G04*
G04 #@! TF.GenerationSoftware,Altium Limited,Altium Designer,23.7.1 (13)*
G04*
G04 Layer_Physical_Order=3*
G04 Layer_Color=36540*
%FSLAX44Y44*%
%MOMM*%
G71*
G04*
G04 #@! TF.SameCoordinates,B1C70322-BD44-42DD-AC63-955F88C0B9D7*
G04*
G04*
G04 #@! TF.FilePolarity,Positive*
G04*
G01*
G75*
%ADD10C,0.2540*%
%ADD22C,1.5240*%
%ADD23R,1.5000X1.5000*%
%ADD24C,1.5000*%
%ADD25R,1.5240X1.5240*%
%ADD26C,1.7000*%
%ADD27R,1.7000X1.7000*%
%ADD28C,3.3000*%
%ADD29C,0.5080*%
D10*
X2626360Y976630D02*
Y1088390D01*
X2609850Y960120D02*
X2626360Y976630D01*
X2609850Y778510D02*
Y960120D01*
X2131060Y1083310D02*
Y1089660D01*
Y1068070D02*
Y1083310D01*
X1554480Y317500D02*
Y957580D01*
X1529080Y292100D02*
X1554480Y317500D01*
X1532890Y306070D02*
Y1092200D01*
X1518920Y292100D02*
X1532890Y306070D01*
X1554480Y957580D02*
Y1000760D01*
X1548130Y656590D02*
Y953770D01*
Y1126490D01*
X1541780Y641350D02*
Y647700D01*
Y1129030D01*
X1441450Y1108710D02*
Y1661160D01*
Y1108710D02*
X1449070Y1101090D01*
Y960120D02*
Y1101090D01*
X1436370Y1079500D02*
Y1294130D01*
Y1079500D02*
X1437640Y1078230D01*
Y1054100D02*
Y1078230D01*
X1436370Y1055370D02*
X1437640Y1054100D01*
X1431290Y938530D02*
Y1291590D01*
X1398270Y932180D02*
Y1129030D01*
X1395730Y929640D02*
X1398270Y932180D01*
Y1129030D02*
Y1279352D01*
X1630795Y1535430D02*
Y1560830D01*
X1911119Y1535430D02*
Y1560830D01*
X2051281Y1535430D02*
Y1560830D01*
X2191443Y1535430D02*
Y1560830D01*
X1850390Y1713230D02*
X1889760Y1673860D01*
X1796357Y1713230D02*
X1850390D01*
X1889760Y1369894D02*
Y1673860D01*
X1963420Y1662430D02*
X1974850Y1651000D01*
X1936519Y1662430D02*
X1963420D01*
X1974850Y1583690D02*
Y1651000D01*
X1982470Y1623060D02*
X2018030Y1587500D01*
Y1109980D02*
Y1587500D01*
X1982470Y1609090D02*
X2010410Y1581150D01*
Y1090930D02*
Y1581150D01*
X1291590Y848360D02*
Y1656080D01*
X1400810Y1611630D02*
X1412240Y1600200D01*
X1375872Y1611630D02*
X1400810D01*
X1412240Y1477010D02*
Y1600200D01*
X1144270Y1436370D02*
Y1657350D01*
X1083310Y1375410D02*
X1144270Y1436370D01*
Y1657350D02*
X1168400Y1681480D01*
X1132840Y1659890D02*
X1154430Y1681480D01*
X1132840Y1639570D02*
Y1659890D01*
Y1639570D02*
Y1653540D01*
Y1471930D02*
Y1639570D01*
X1168400Y1681480D02*
Y1694688D01*
X1186942Y1713230D01*
X1210310D01*
X1221740Y1699260D02*
X1235710Y1713230D01*
X1184910Y1699260D02*
X1221740D01*
X1173480Y1687830D02*
X1184910Y1699260D01*
X1173480Y1553210D02*
Y1687830D01*
Y1553210D02*
Y1563370D01*
Y1508760D02*
Y1553210D01*
X2191443Y1174750D02*
Y1200150D01*
Y1174750D02*
X2192020Y1174173D01*
Y1033780D02*
Y1174173D01*
X2167890Y1278197D02*
X2191443Y1301750D01*
X2167890Y1137920D02*
Y1278197D01*
Y1137920D02*
X2184400Y1121410D01*
Y1031240D02*
Y1121410D01*
Y1031240D02*
X2189480Y1026160D01*
X1435100Y1295400D02*
X1436370Y1294130D01*
X1435100Y1295400D02*
Y1301750D01*
X1436370Y1300480D01*
X1421130Y1304290D02*
Y1518920D01*
Y1294566D02*
Y1304290D01*
X1405890Y1351280D02*
X1409569Y1347601D01*
X1416050Y1341120D01*
X1404620Y1352550D02*
X1409569Y1347601D01*
X1375872Y1352550D02*
X1404620D01*
X2386330Y472440D02*
X2396490Y482600D01*
Y1372870D01*
X2391410Y492760D02*
Y659130D01*
X2386330Y487680D02*
X2391410Y492760D01*
X2390140Y660400D02*
X2391410Y659130D01*
X2390140Y660400D02*
Y1697990D01*
X2383790Y508000D02*
Y1717040D01*
Y508000D02*
X2385060Y506730D01*
X1736090Y1264920D02*
Y1435100D01*
X1770957Y1469967D01*
Y1535430D02*
Y1560830D01*
Y1469967D02*
Y1535430D01*
X1734820Y982980D02*
Y1252220D01*
X1713230Y961390D02*
X1734820Y982980D01*
Y1252220D02*
X1746250Y1263650D01*
Y1303020D01*
Y1327843D01*
Y1276350D02*
Y1303020D01*
Y1327843D02*
X1770957Y1352550D01*
X1266190Y368300D02*
Y1352550D01*
X1117600Y713740D02*
Y1082040D01*
X977900Y887730D02*
Y1283970D01*
X981710Y1287780D01*
X1083310Y1116330D02*
Y1375410D01*
Y1116330D02*
X1117600Y1082040D01*
X1968500Y1135380D02*
Y1285240D01*
Y1121410D02*
Y1135380D01*
X1962150Y1073150D02*
X1973580Y1084580D01*
X1936519Y1301750D02*
X1951990D01*
X1968500Y1285240D01*
Y1121410D02*
X1973580Y1116330D01*
Y1084580D02*
Y1116330D01*
X1962150Y949960D02*
Y1073150D01*
X1170940Y955040D02*
X1176020Y949960D01*
X1170940Y955040D02*
Y1202690D01*
X1040130Y1379220D02*
X1132840Y1471930D01*
X1040130Y965200D02*
Y1379220D01*
X1188720Y1321725D02*
X1208115Y1341120D01*
X1173480Y1508760D02*
X1221740Y1460500D01*
Y1347816D02*
Y1460500D01*
X1215044Y1341120D02*
X1221740Y1347816D01*
X1208115Y1341120D02*
X1215044D01*
X1188720Y1084580D02*
Y1321725D01*
Y1084580D02*
X1200150Y1073150D01*
Y332740D02*
Y1073150D01*
X1765300Y1005840D02*
Y1073150D01*
X2145030Y1132840D02*
X2160270Y1117600D01*
X2145030Y1253490D02*
X2148840Y1257300D01*
X2145030Y1132840D02*
Y1253490D01*
X2148840Y1257300D02*
Y1670627D01*
X2134870Y1266190D02*
Y1617980D01*
X2146300Y1051560D02*
Y1113790D01*
X2138680Y1121410D02*
X2146300Y1113790D01*
X2138680Y1121410D02*
Y1262380D01*
X2134870Y1266190D02*
X2138680Y1262380D01*
X2133600Y1092200D02*
Y1259840D01*
X2127250Y1266190D02*
Y1708150D01*
X2131060Y1089660D02*
X2133600Y1092200D01*
X2127250Y1266190D02*
X2133600Y1259840D01*
X1684020Y1139190D02*
Y1239520D01*
X1656195Y1250950D02*
X1672590D01*
X1684020Y1239520D01*
X1837690Y1230630D02*
Y1338580D01*
X1577340Y1344930D02*
Y1355090D01*
Y316230D02*
Y1344930D01*
X2051281Y1250950D02*
X2065251Y1264920D01*
X2097763D01*
X2117090Y1245593D01*
Y1106170D02*
Y1245593D01*
X1235710Y1250950D02*
X1252220Y1234440D01*
Y1121410D02*
Y1234440D01*
X1064260Y808990D02*
Y941070D01*
X1040130Y965200D02*
X1064260Y941070D01*
X991870Y861060D02*
Y873760D01*
X977900Y887730D02*
X991870Y873760D01*
X2076681Y1301750D02*
X2091690Y1316759D01*
Y1366520D01*
X2082800Y1375410D02*
X2091690Y1366520D01*
X2042160Y1375410D02*
X2082800D01*
X1889760Y1280391D02*
X1911119Y1301750D01*
X1889760Y1219200D02*
Y1280391D01*
Y1219200D02*
Y1236146D01*
Y1049020D02*
Y1219200D01*
X1882140Y1310640D02*
X1889760Y1318260D01*
Y1347470D01*
X1882140Y1010920D02*
Y1310640D01*
X1875790Y1016000D02*
Y1320800D01*
X1880870Y1325880D01*
X1870710Y1018104D02*
Y1342390D01*
X1864360Y1344494D02*
X1889760Y1369894D01*
X1864360Y1305560D02*
Y1344494D01*
X1859280Y1024890D02*
Y1347470D01*
X1854200Y1348740D02*
Y1353820D01*
X1859280Y1358900D01*
X1854200Y1029970D02*
Y1348740D01*
X1889760Y1049020D02*
X1918970Y1019810D01*
X1898650Y1118870D02*
Y1238481D01*
X1911119Y1250950D01*
X1139190Y1234440D02*
X1170940Y1202690D01*
X1117600Y1234440D02*
X1139190D01*
X1159510Y1007110D02*
Y1197610D01*
X1136650Y1220470D02*
X1159510Y1197610D01*
X1117600Y1220470D02*
X1136650D01*
X1181100Y1082040D02*
Y1323340D01*
X1210310Y1352550D01*
X1181100Y1082040D02*
X1189990Y1073150D01*
Y707390D02*
Y1073150D01*
X1193800Y1093470D02*
X1216660Y1070610D01*
X1193800Y1093470D02*
Y1234440D01*
X1210310Y1250950D01*
X1115060Y1186180D02*
X1150620Y1150620D01*
Y1002030D02*
Y1150620D01*
X1113790Y1179830D02*
X1140460Y1153160D01*
Y808990D02*
Y1153160D01*
X1107440Y1179830D02*
X1113790D01*
X1126490Y1187360D02*
Y1187450D01*
X1753870Y1284663D02*
X1770957Y1301750D01*
X1753870Y1262380D02*
Y1284663D01*
X1744980Y1253490D02*
X1753870Y1262380D01*
X1744980Y1242060D02*
Y1253490D01*
X1784350Y1289743D02*
X1796357Y1301750D01*
X1784350Y1266190D02*
Y1289743D01*
X1781810Y1263650D02*
X1784350Y1266190D01*
X1764030Y1263650D02*
X1781810D01*
X1752600Y1252220D02*
X1764030Y1263650D01*
X1752600Y1187450D02*
Y1252220D01*
X1758950Y1162050D02*
Y1238943D01*
X1746250Y1149350D02*
X1758950Y1162050D01*
X1746250Y1087120D02*
Y1149350D01*
X1758950Y1238943D02*
X1770957Y1250950D01*
X1974850Y1583690D02*
Y1597660D01*
Y1160780D02*
Y1583690D01*
X1249680Y1466850D02*
Y1597660D01*
X1235710Y1611630D02*
X1249680Y1597660D01*
X1719580Y1699260D02*
X1722120Y1701800D01*
X1719580Y994410D02*
Y1699260D01*
X1283970Y835660D02*
Y1534160D01*
Y835660D02*
X1299210Y820420D01*
X1309370Y1672128D02*
X1350472Y1713230D01*
X1309370Y1118870D02*
Y1672128D01*
X1315720Y1576878D02*
X1350472Y1611630D01*
X1315720Y1127760D02*
Y1576878D01*
Y1127760D02*
X1329690Y1113790D01*
X1309370Y1118870D02*
X1319530Y1108710D01*
Y772160D02*
Y1108710D01*
X1297940Y750570D02*
X1319530Y772160D01*
X1323340Y1325418D02*
X1350472Y1352550D01*
X1323340Y1130300D02*
Y1325418D01*
Y1130300D02*
X1339850Y1113790D01*
Y681990D02*
Y1113790D01*
X1334770Y1129030D02*
X1350010Y1113790D01*
X1334770Y1129030D02*
Y1235248D01*
X1350472Y1250950D01*
X1291590Y848360D02*
X1310640Y829310D01*
X1300480Y1131570D02*
Y1301750D01*
Y914400D02*
Y1131570D01*
X1416050Y1146810D02*
Y1341120D01*
X1417320Y1522730D02*
Y1648460D01*
Y1522730D02*
X1421130Y1518920D01*
Y1294566D02*
X1424940Y1290756D01*
Y875030D02*
Y1290756D01*
X1398270Y848360D02*
X1424940Y875030D01*
X1426210Y1296670D02*
X1431290Y1291590D01*
X1426210Y1296670D02*
Y1534160D01*
X1350472Y1174750D02*
Y1200150D01*
Y1152698D02*
Y1174750D01*
Y1152698D02*
X1362710Y1140460D01*
Y905510D02*
Y1140460D01*
X1258570Y1588770D02*
Y1714500D01*
Y1588770D02*
Y1598930D01*
Y370840D02*
Y1588770D01*
X1276350Y119380D02*
Y1621790D01*
X1225550Y337820D02*
X1258570Y370840D01*
X1235710Y337820D02*
X1266190Y368300D01*
X1375872Y1301750D02*
X1398270Y1279352D01*
X1614170Y1285125D02*
X1630795Y1301750D01*
X1614170Y1089660D02*
Y1285125D01*
X1605280Y59690D02*
Y1248410D01*
X1470660Y1693256D02*
X1490634Y1713230D01*
X1470660Y1565910D02*
Y1693256D01*
Y1565910D02*
Y1570990D01*
Y1131570D02*
Y1565910D01*
X1447800Y1610360D02*
Y1611630D01*
Y1130300D02*
Y1610360D01*
X1461770Y1130300D02*
Y1249680D01*
X1470660Y1131570D02*
X1521460Y1080770D01*
Y668020D02*
Y1080770D01*
X1503680Y54610D02*
Y1088390D01*
X1461770Y1130300D02*
X1503680Y1088390D01*
X1543050Y1366520D02*
X1549400Y1360170D01*
Y1136650D02*
Y1360170D01*
X1541780Y1129030D02*
X1549400Y1136650D01*
X1551940Y1691640D02*
X1557020Y1686560D01*
Y1135380D02*
Y1686560D01*
X1548130Y1126490D02*
X1557020Y1135380D01*
X1859280Y1347470D02*
X1882140Y1370330D01*
Y1452880D01*
Y1466850D01*
Y1452880D02*
Y1457960D01*
X1864360Y1305560D02*
Y1311910D01*
Y1018938D02*
Y1305560D01*
X1897380Y1369150D02*
Y1684020D01*
X1870710Y1342390D02*
X1880870Y1352550D01*
Y1352640D01*
X1897380Y1369150D01*
X1887220Y1350010D02*
X1889760Y1347470D01*
X1748790Y903368D02*
X1864360Y1018938D01*
X1748790Y393700D02*
Y903368D01*
X1887220Y1694180D02*
X1897380Y1684020D01*
X1887220Y1694180D02*
Y1706880D01*
X1736090Y901700D02*
X1859280Y1024890D01*
X1727200Y902970D02*
X1854200Y1029970D01*
X1864578Y1011972D02*
X1870710Y1018104D01*
X1864578Y1011972D02*
X1866483Y1013877D01*
X1769110Y916504D02*
X1864578Y1011972D01*
X1826260Y966470D02*
X1875790Y1016000D01*
X1790700Y919480D02*
X1882140Y1010920D01*
X1736090Y337820D02*
Y901700D01*
X1769110Y360680D02*
Y916504D01*
X1767840Y359410D02*
X1769110Y360680D01*
X1840230Y1352550D02*
X1849120Y1343660D01*
Y1040130D02*
Y1343660D01*
X1719580Y910590D02*
X1849120Y1040130D01*
X1719580Y607060D02*
Y910590D01*
X1713230Y600710D02*
X1719580Y607060D01*
X1713230Y513080D02*
Y600710D01*
Y513080D02*
X1715770Y510540D01*
Y351790D02*
Y510540D01*
X1727200Y582930D02*
Y902970D01*
X1720850Y576580D02*
X1727200Y582930D01*
X1826260Y966470D02*
X1833880Y974090D01*
X1780540Y920750D02*
X1826260Y966470D01*
X1780540Y891540D02*
Y920750D01*
Y891540D02*
Y915670D01*
Y341630D02*
Y891540D01*
X1790700Y326390D02*
Y919480D01*
X1731010Y332740D02*
X1736090Y337820D01*
X2804160Y1341120D02*
X2814320Y1330960D01*
Y1078230D02*
Y1330960D01*
X2783840Y1047750D02*
X2814320Y1078230D01*
X2783840Y367030D02*
Y1047750D01*
X2777490Y1250950D02*
X2792730Y1235710D01*
Y1088390D02*
Y1235710D01*
X2076681Y1713230D02*
Y1728239D01*
X2073910Y1731010D02*
X2076681Y1728239D01*
X2039851Y1731010D02*
X2073910D01*
X2025650Y1716809D02*
X2039851Y1731010D01*
X2025650Y1466850D02*
Y1716809D01*
X2258060Y1094740D02*
Y1352550D01*
X2256790Y1093470D02*
X2258060Y1094740D01*
X2346960Y1085850D02*
X2354580Y1078230D01*
Y257810D02*
Y1078230D01*
X2216843Y1713230D02*
X2258060D01*
X2266950Y1704340D01*
Y1652270D02*
Y1704340D01*
Y1652270D02*
X2293620Y1625600D01*
Y1460500D02*
Y1625600D01*
X2250440Y113090D02*
Y1586230D01*
X2258060Y1593850D01*
X2284730Y1451610D02*
X2293620Y1460500D01*
X2284730Y1107440D02*
Y1451610D01*
X2372360Y1107440D02*
X2378710Y1101090D01*
Y661670D02*
Y1101090D01*
X2367280Y650240D02*
X2378710Y661670D01*
X2367280Y246380D02*
Y650240D01*
X1404620Y1143000D02*
Y1249680D01*
Y1143000D02*
X1416050Y1131570D01*
X1478280Y1146810D02*
X1532890Y1092200D01*
X1516034Y1713230D02*
X1548130D01*
X1562100Y1699260D01*
Y1008380D02*
Y1699260D01*
X1554480Y1000760D02*
X1562100Y1008380D01*
X1568450Y320040D02*
Y1701800D01*
X1540510Y292100D02*
X1568450Y320040D01*
X1551940Y290830D02*
X1577340Y316230D01*
X1586230Y312420D02*
Y1343660D01*
X1563370Y289560D02*
X1586230Y312420D01*
X1710690Y999490D02*
Y1352550D01*
X1690370Y979170D02*
X1710690Y999490D01*
X1690370Y633730D02*
Y979170D01*
X1647190Y590550D02*
X1690370Y633730D01*
X1697990Y972820D02*
X1719580Y994410D01*
X1697990Y628650D02*
Y972820D01*
X1647190Y577850D02*
X1697990Y628650D01*
X1729740Y989330D02*
Y1708150D01*
X1706880Y966470D02*
X1729740Y989330D01*
X1706880Y624840D02*
Y966470D01*
X1647190Y565150D02*
X1706880Y624840D01*
X1713230Y618490D02*
Y961390D01*
X1645920Y551180D02*
X1713230Y618490D01*
X2122170Y1713230D02*
X2127250Y1708150D01*
Y1064260D02*
X2131060Y1068070D01*
X2498090Y607060D02*
Y1064260D01*
X2148840Y1670627D02*
X2191443Y1713230D01*
X2160270Y1070610D02*
Y1117600D01*
X2146300Y1051560D02*
X2151380Y1046480D01*
Y114030D02*
Y1046480D01*
X2485390Y594360D02*
Y1070610D01*
X2470150Y575310D02*
Y1096010D01*
X2428240Y1247140D02*
X2432050Y1250950D01*
X2428240Y1188720D02*
Y1247140D01*
Y1188720D02*
Y1207424D01*
Y168910D02*
Y1188720D01*
X2266950Y1200150D02*
Y1390650D01*
X2458720Y1374810D02*
X2459066Y1375156D01*
X2458720Y1090930D02*
Y1374810D01*
Y1090930D02*
X2463800Y1085850D01*
Y584200D02*
Y1085850D01*
X2534920Y1132840D02*
Y1360170D01*
X2476500Y1074420D02*
X2534920Y1132840D01*
X2476500Y511810D02*
Y1074420D01*
X2315210Y1625600D02*
X2338879D01*
X2344420Y1620059D01*
X2331604Y1560830D02*
X2344420Y1573646D01*
Y1620059D01*
X2274570Y1666240D02*
X2315210Y1625600D01*
X2274570Y1666240D02*
Y1804670D01*
X2275840Y1459230D02*
X2284730Y1468120D01*
X2275840Y697230D02*
Y1459230D01*
X2471766Y1535430D02*
Y1560830D01*
X2497166Y1662430D02*
X2524760Y1634836D01*
Y1518920D02*
Y1634836D01*
X2501900Y1496060D02*
X2524760Y1518920D01*
X2501900Y1405890D02*
Y1496060D01*
Y1405890D02*
X2509520Y1398270D01*
X2497166Y1301750D02*
X2524760Y1329344D01*
Y1395730D01*
X2509520Y1410970D02*
X2524760Y1395730D01*
X2811780Y1713230D02*
X2820670Y1704340D01*
X2777490Y1713230D02*
X2811780D01*
X2820670Y237490D02*
Y1704340D01*
X2637328Y1662430D02*
X2650490Y1675592D01*
Y1753870D01*
X2752090Y1535430D02*
Y1560830D01*
X2696210Y1565910D02*
X2700020Y1562100D01*
X2696210Y1565910D02*
Y1741170D01*
X2700020Y1744980D01*
X2705100Y1658620D02*
X2712720Y1651000D01*
X2705100Y1658620D02*
Y1728470D01*
X2712720Y1661160D02*
Y1722120D01*
X2725420Y1734820D01*
X2686050Y1026160D02*
Y1710690D01*
X2559050Y1539240D02*
X2565400Y1532890D01*
X2559050Y1539240D02*
Y1611630D01*
Y1770380D01*
Y1595120D02*
Y1611630D01*
X2580640Y1475740D02*
Y1580342D01*
X2557780Y1452880D02*
X2580640Y1475740D01*
X2557780Y119380D02*
Y1452880D01*
X2580640Y1580342D02*
X2611928Y1611630D01*
X2550160Y951230D02*
Y1781810D01*
X2557780Y1789430D02*
X2583180D01*
X2550160Y1781810D02*
X2557780Y1789430D01*
X2593340Y1681018D02*
X2611928Y1662430D01*
X2593340Y1681018D02*
Y1761490D01*
X2738120Y1625600D02*
X2752090Y1611630D01*
X2738120Y1625600D02*
Y1789430D01*
X2583180D02*
Y1790700D01*
X2637328Y1713230D02*
X2637790Y1713692D01*
Y1780540D01*
X2371090Y1729740D02*
X2383790Y1717040D01*
X2331604Y1713230D02*
X2348114Y1729740D01*
X2371090D01*
X2390140Y1697990D02*
X2409190Y1717040D01*
X2357004Y1301750D02*
X2372360Y1317106D01*
Y1385570D01*
X2350770Y1407160D02*
X2372360Y1385570D01*
X2312670Y1320684D02*
X2331604Y1301750D01*
X2312670Y1320684D02*
Y1398270D01*
X2430780Y1301750D02*
Y1351280D01*
X2425700Y1356360D02*
X2430780Y1351280D01*
X2425700Y1356360D02*
Y1761490D01*
X2421890Y233680D02*
Y1347470D01*
X2405380Y1781810D02*
X2425700Y1761490D01*
X2345574Y1651000D02*
X2357004Y1662430D01*
X2312670Y1651000D02*
X2345574D01*
X2294890Y1668780D02*
X2312670Y1651000D01*
X2294890Y1668780D02*
Y1823720D01*
X2308860Y1685174D02*
X2331604Y1662430D01*
X2308860Y1685174D02*
Y1812290D01*
X2051281Y1174750D02*
Y1200150D01*
Y1098319D02*
Y1174750D01*
Y1098319D02*
X2061210Y1088390D01*
X1770957Y1174750D02*
Y1200150D01*
Y1152467D02*
Y1174750D01*
X1765300Y1146810D02*
X1770957Y1152467D01*
X1765300Y1073150D02*
Y1146810D01*
X1911119Y1174750D02*
Y1200150D01*
Y1174750D02*
X1912620Y1173249D01*
Y1082040D02*
Y1173249D01*
X1516034Y1250950D02*
X1543050Y1223934D01*
Y1143000D02*
Y1223934D01*
X1796357Y1250950D02*
X1838960Y1208347D01*
Y1107440D02*
Y1208347D01*
X2089150Y1118870D02*
X2101850Y1106170D01*
X1936519Y1250950D02*
X1963420Y1224049D01*
Y1108710D02*
Y1224049D01*
X2537460Y1817370D02*
X2541270Y1813560D01*
Y1560830D02*
Y1813560D01*
Y1549400D02*
Y1560830D01*
Y1549400D02*
Y1557020D01*
Y1035050D02*
Y1549400D01*
X2590800Y1322878D02*
X2611928Y1301750D01*
X2590800Y1322878D02*
Y1421130D01*
X2693670Y1352550D02*
X2700020Y1346200D01*
Y1029970D02*
Y1346200D01*
X2686050Y1026160D02*
X2743200Y969010D01*
X2637328Y1352550D02*
X2637790Y1353012D01*
Y1389380D01*
X2637328Y1301750D02*
X2663190Y1327612D01*
Y1432560D01*
X2674620Y1198880D02*
Y1421130D01*
X2611928Y1174750D02*
Y1200150D01*
X2610273Y1173095D02*
X2611928Y1174750D01*
X2610273Y1015153D02*
Y1173095D01*
X2617470Y984250D02*
Y1107440D01*
X2584450Y951230D02*
X2617470Y984250D01*
X2584450Y778510D02*
Y951230D01*
X2617470Y1107440D02*
X2654300Y1144270D01*
X2637328Y1250950D02*
X2654300Y1233978D01*
Y1144270D02*
Y1233978D01*
X2644296Y929640D02*
Y1104900D01*
X2840990Y1353820D02*
X2844800Y1350010D01*
Y237490D02*
Y1350010D01*
X2833370Y237490D02*
Y1389380D01*
X2766060Y1313180D02*
X2777490Y1301750D01*
X2766060Y1313180D02*
Y1456690D01*
X2734310Y1319530D02*
X2752090Y1301750D01*
X2734310Y1319530D02*
Y1426210D01*
X2757170Y1449070D01*
X2645410Y665480D02*
Y734060D01*
Y627380D02*
Y665480D01*
X2541270Y842010D02*
Y924560D01*
X2531110Y831850D02*
X2541270Y842010D01*
X2526030Y927100D02*
X2550160Y951230D01*
X2526030Y101600D02*
Y927100D01*
X2531110Y702310D02*
Y831850D01*
Y702310D02*
X2546350Y687070D01*
Y655320D02*
Y687070D01*
X2644296Y862486D02*
Y929640D01*
X2633980Y615950D02*
X2645410Y627380D01*
X2633980Y745490D02*
Y852170D01*
Y745490D02*
X2645410Y734060D01*
X2633980Y330623D02*
Y615950D01*
Y852170D02*
X2644296Y862486D01*
X2584450Y778510D02*
X2595880Y767080D01*
X2609850Y778510D02*
X2621280Y767080D01*
X2509520Y1003300D02*
X2541270Y1035050D01*
X2051050Y114500D02*
Y633730D01*
X2057400Y640080D01*
X2051050Y698500D02*
X2057400Y692150D01*
Y640080D02*
Y692150D01*
X2051050Y698500D02*
Y1076960D01*
X2532380Y641350D02*
X2546350Y655320D01*
X2532380Y497840D02*
Y641350D01*
Y497840D02*
X2545080Y485140D01*
Y317923D02*
Y485140D01*
X2570480Y496570D02*
X2576830Y502920D01*
X2570480Y317923D02*
Y496570D01*
X2583180Y541020D02*
X2595880Y528320D01*
X2583180Y541020D02*
Y571500D01*
X2595880Y584200D01*
Y767080D01*
X2621280Y699770D02*
Y767080D01*
X2609850Y688340D02*
X2621280Y699770D01*
X2609850Y539750D02*
Y688340D01*
Y539750D02*
X2621280Y528320D01*
X2595880Y340543D02*
Y528320D01*
X2584570Y329233D02*
X2595880Y340543D01*
X2584570Y313239D02*
Y329233D01*
Y313239D02*
X2595880Y301929D01*
Y292523D02*
Y301929D01*
X2621280Y317923D02*
X2633980Y330623D01*
X2743200Y473710D02*
Y969010D01*
X2705100Y435610D02*
X2743200Y473710D01*
X2700020Y1029970D02*
X2749550Y980440D01*
Y463550D02*
Y980440D01*
X2710180Y424180D02*
X2749550Y463550D01*
X2390140Y234950D02*
X2409190Y254000D01*
X2406650Y674460D02*
Y1699260D01*
Y674460D02*
X2409190Y671920D01*
Y254000D02*
Y671920D01*
X2414270Y243840D02*
Y1689100D01*
X2405380Y234950D02*
X2414270Y243840D01*
X2438400Y234950D02*
Y1351280D01*
X2451100Y1118870D02*
Y1780540D01*
Y1118870D02*
Y1123950D01*
Y234950D02*
Y1118870D01*
X636604Y294640D02*
X648034Y306070D01*
X671830D01*
X680720Y297180D01*
Y138430D02*
Y297180D01*
X652780Y110490D02*
X680720Y138430D01*
X622300Y110490D02*
X652780D01*
X610010Y122780D02*
X622300Y110490D01*
X610010Y122780D02*
Y136090D01*
X607728Y294640D02*
Y301658D01*
X621030Y314960D01*
X675640D01*
X690880Y299720D01*
Y133350D02*
Y299720D01*
X660400Y102870D02*
X690880Y133350D01*
X604520Y102870D02*
X660400D01*
X585010Y122380D02*
X604520Y102870D01*
X585010Y122380D02*
Y136090D01*
X578853Y294640D02*
Y305803D01*
X594360Y321310D01*
X680720D01*
X698500Y303530D01*
Y120650D02*
Y303530D01*
X671830Y93980D02*
X698500Y120650D01*
X580390Y93980D02*
X671830D01*
X560010Y114360D02*
X580390Y93980D01*
X560010Y114360D02*
Y136090D01*
X549977Y294640D02*
Y303597D01*
X574040Y327660D01*
X690880D01*
X708660Y309880D01*
Y110490D02*
Y309880D01*
X683260Y85090D02*
X708660Y110490D01*
X561340Y85090D02*
X683260D01*
X535010Y111420D02*
X561340Y85090D01*
X535010Y111420D02*
Y136090D01*
X521101Y294640D02*
Y303931D01*
X551180Y334010D01*
X704850D01*
X721360Y317500D01*
Y111760D02*
Y317500D01*
X685800Y76200D02*
X721360Y111760D01*
X539750Y76200D02*
X685800D01*
X510010Y105940D02*
X539750Y76200D01*
X510010Y105940D02*
Y136090D01*
X492225Y294640D02*
Y308075D01*
X528320Y344170D01*
X711200D01*
X730250Y325120D01*
Y101600D02*
Y325120D01*
X699770Y71120D02*
X730250Y101600D01*
X520700Y71120D02*
X699770D01*
X485010Y106810D02*
X520700Y71120D01*
X485010Y106810D02*
Y136090D01*
X463349Y294640D02*
X521769Y353060D01*
X715010D01*
X740410Y327660D01*
Y88900D02*
Y327660D01*
X715010Y63500D02*
X740410Y88900D01*
X501650Y63500D02*
X715010D01*
X460010Y105140D02*
X501650Y63500D01*
X460010Y105140D02*
Y136090D01*
X434474Y294640D02*
X501784Y361950D01*
X725170D01*
X750570Y336550D01*
Y83820D02*
Y336550D01*
X722630Y55880D02*
X750570Y83820D01*
X490220Y55880D02*
X722630D01*
X435010Y111090D02*
X490220Y55880D01*
X435010Y111090D02*
Y136090D01*
X114300Y294640D02*
X318971D01*
X107950Y288290D02*
X114300Y294640D01*
X107950Y138430D02*
Y288290D01*
Y138430D02*
X133350Y113030D01*
X311950D01*
X335010Y136090D01*
X338956Y303530D02*
X347846Y294640D01*
X110490Y303530D02*
X338956D01*
X97790Y290830D02*
X110490Y303530D01*
X97790Y134620D02*
Y290830D01*
Y134620D02*
X132080Y100330D01*
X339090D01*
X360010Y121250D01*
Y136090D01*
X376722Y294640D02*
Y300188D01*
X363220Y313690D02*
X376722Y300188D01*
X100330Y313690D02*
X363220D01*
X83820Y297180D02*
X100330Y313690D01*
X83820Y133350D02*
Y297180D01*
Y133350D02*
X129540Y87630D01*
X359410D01*
X385010Y113230D01*
Y136090D01*
X377658Y322580D02*
X405598Y294640D01*
X95250Y322580D02*
X377658D01*
X73660Y300990D02*
X95250Y322580D01*
X73660Y121920D02*
Y300990D01*
Y121920D02*
X116840Y78740D01*
X370640D01*
X410010Y118110D01*
Y136090D01*
X665480Y294640D02*
X673100Y287020D01*
Y174181D02*
Y287020D01*
X635010Y136090D02*
X673100Y174181D01*
X114300Y481521D02*
Y601980D01*
Y481521D02*
X160011Y435810D01*
X133350Y610870D02*
X142240Y601980D01*
X113030Y610870D02*
X133350D01*
X106680Y604520D02*
X113030Y610870D01*
X106680Y449580D02*
Y604520D01*
Y449580D02*
X134620Y421640D01*
X170840D01*
X185011Y435810D01*
X158750Y615950D02*
X172720Y601980D01*
X110926Y615950D02*
X158750D01*
X100330Y605354D02*
X110926Y615950D01*
X100330Y440690D02*
Y605354D01*
Y440690D02*
X124460Y416560D01*
X190760D01*
X210011Y435810D01*
X180139Y627380D02*
X205539Y601980D01*
X106680Y627380D02*
X180139D01*
X88900Y609600D02*
X106680Y627380D01*
X88900Y435610D02*
Y609600D01*
Y435610D02*
X118110Y406400D01*
X205600D01*
X235011Y435810D01*
X204203Y633730D02*
X235953Y601980D01*
X100330Y633730D02*
X204203D01*
X80010Y613410D02*
X100330Y633730D01*
X80010Y430530D02*
Y613410D01*
Y430530D02*
X115570Y394970D01*
X219170D01*
X260010Y435810D01*
X228266Y640080D02*
X266366Y601980D01*
X95250Y640080D02*
X228266D01*
X72390Y617220D02*
X95250Y640080D01*
X72390Y427990D02*
Y617220D01*
Y427990D02*
X113030Y387350D01*
X236550D01*
X285010Y435810D01*
X251059Y647700D02*
X296779Y601980D01*
X91440Y647700D02*
X251059D01*
X63500Y619760D02*
X91440Y647700D01*
X63500Y429260D02*
Y619760D01*
Y429260D02*
X110490Y382270D01*
X256470D01*
X310010Y435810D01*
X271312Y657860D02*
X327192Y601980D01*
X88900Y657860D02*
X271312D01*
X57150Y626110D02*
X88900Y657860D01*
X57150Y422910D02*
Y626110D01*
Y422910D02*
X106680Y373380D01*
X272580D01*
X335010Y435810D01*
X292500Y368300D02*
X360010Y435810D01*
X99060Y368300D02*
X292500D01*
X49530Y417830D02*
X99060Y368300D01*
X49530Y417830D02*
Y629920D01*
X86360Y666750D01*
X292835D01*
X357605Y601980D01*
X316430Y675640D02*
X390090Y601980D01*
X86360Y675640D02*
X316430D01*
X43180Y632460D02*
X86360Y675640D01*
X43180Y414020D02*
Y632460D01*
Y414020D02*
X95250Y361950D01*
X311150D01*
X385010Y435810D01*
X330000Y687070D02*
X415090Y601980D01*
X90170Y687070D02*
X330000D01*
X36830Y633730D02*
X90170Y687070D01*
X36830Y408940D02*
Y633730D01*
Y408940D02*
X90170Y355600D01*
X329800D01*
X410010Y435810D01*
X692150Y492950D02*
Y601980D01*
X635010Y435810D02*
X692150Y492950D01*
X661737Y601980D02*
X670627Y610870D01*
X699770D01*
X703580Y607060D01*
Y481330D02*
Y607060D01*
X640080Y417830D02*
X703580Y481330D01*
X627990Y417830D02*
X640080D01*
X610010Y435810D02*
X627990Y417830D01*
X631324Y601980D02*
X647833Y618490D01*
X706120D01*
X713740Y610870D01*
Y476250D02*
Y610870D01*
X650240Y412750D02*
X713740Y476250D01*
X608070Y412750D02*
X650240D01*
X585010Y435810D02*
X608070Y412750D01*
X600910Y601980D02*
X623770Y624840D01*
X711200D01*
X723900Y612140D01*
Y469900D02*
Y612140D01*
X660400Y406400D02*
X723900Y469900D01*
X589420Y406400D02*
X660400D01*
X560010Y435810D02*
X589420Y406400D01*
X570497Y601980D02*
X598437Y629920D01*
X720090D01*
X732790Y617220D01*
Y459740D02*
Y617220D01*
X673100Y400050D02*
X732790Y459740D01*
X570770Y400050D02*
X673100D01*
X535010Y435810D02*
X570770Y400050D01*
X540084Y601980D02*
X576914Y638810D01*
X725170D01*
X740410Y623570D01*
Y449580D02*
Y623570D01*
X683260Y392430D02*
X740410Y449580D01*
X553390Y392430D02*
X683260D01*
X510010Y435810D02*
X553390Y392430D01*
X509671Y601980D02*
X554121Y646430D01*
X730250D01*
X749300Y627380D01*
Y444500D02*
Y627380D01*
X690880Y386080D02*
X749300Y444500D01*
X534740Y386080D02*
X690880D01*
X485010Y435810D02*
X534740Y386080D01*
X479258Y601980D02*
X532598Y655320D01*
X735330D01*
X756920Y633730D01*
Y438150D02*
Y633730D01*
X698500Y379730D02*
X756920Y438150D01*
X516090Y379730D02*
X698500D01*
X460010Y435810D02*
X516090Y379730D01*
X448845Y601980D02*
X513615Y666750D01*
X742950D01*
X769620Y640080D01*
Y430530D02*
Y640080D01*
X709930Y370840D02*
X769620Y430530D01*
X499980Y370840D02*
X709930D01*
X435010Y435810D02*
X499980Y370840D01*
X2313950Y101600D02*
X2360930D01*
X2428240Y168910D01*
X2288950Y101600D02*
X2302510Y115160D01*
Y1221856D02*
X2331604Y1250950D01*
X2263950Y101600D02*
X2275840Y113490D01*
X2238950Y101600D02*
X2250440Y113090D01*
X2213950Y101600D02*
X2226310Y113960D01*
Y1118870D01*
X2240280Y1132840D01*
Y1253490D01*
X2228850Y1264920D02*
X2240280Y1253490D01*
X2205413Y1264920D02*
X2228850D01*
X2191443Y1250950D02*
X2205413Y1264920D01*
X2188950Y101600D02*
X2202180Y114830D01*
X2163950Y101600D02*
X2176780Y114430D01*
X2161540Y1132840D02*
X2176780Y1117600D01*
X2161540Y1132840D02*
Y1581727D01*
X2191443Y1611630D01*
X2138950Y101600D02*
X2151380Y114030D01*
X2101850Y113700D02*
X2113950Y101600D01*
X2101850Y113700D02*
Y1106170D01*
X2076450Y114100D02*
X2088950Y101600D01*
X2051050Y114500D02*
X2063950Y101600D01*
X2018030Y1109980D02*
X2051050Y1076960D01*
X2025650Y114900D02*
X2038950Y101600D01*
X2025650Y114900D02*
Y1075690D01*
X2010410Y1090930D02*
X2025650Y1075690D01*
X1593850Y59690D02*
Y1574685D01*
X1630795Y1611630D01*
X1577340Y46990D02*
X1592580D01*
X1605280Y59690D01*
X1489710Y74930D02*
Y1088390D01*
X1447800Y1130300D02*
X1489710Y1088390D01*
X1350010Y88900D02*
Y1113790D01*
X1329690Y109220D02*
Y1113790D01*
X1216660Y99060D02*
Y1070610D01*
X2707640Y1206500D02*
X2752090Y1250950D01*
X2707640Y1047750D02*
Y1206500D01*
Y1047750D02*
X2758440Y996950D01*
X2545080Y106680D02*
X2557780Y119380D01*
X2556510Y92710D02*
X2570480Y106680D01*
X2534920Y92710D02*
X2556510D01*
X2526030Y101600D02*
X2534920Y92710D01*
X2758440Y318770D02*
Y996950D01*
X2750820Y76200D02*
X2758440Y83820D01*
X2628900Y76200D02*
X2750820D01*
X2621280Y83820D02*
X2628900Y76200D01*
X2621280Y83820D02*
Y106680D01*
X2758440Y83820D02*
Y318770D01*
X2545080Y132080D02*
Y238760D01*
X2531110Y252730D02*
X2545080Y238760D01*
X2531110Y252730D02*
Y303953D01*
X2545080Y317923D01*
X2570480Y132080D02*
X2583180Y144780D01*
Y305223D01*
X2570480Y317923D02*
X2583180Y305223D01*
X2595880Y132080D02*
Y243840D01*
X2607310Y255270D01*
Y306493D01*
X2595880Y317923D02*
X2607310Y306493D01*
X2595880Y106680D02*
X2608580Y119380D01*
X2626360D02*
X2632590Y125610D01*
X2608580Y119380D02*
X2626360D01*
X2632590Y125610D02*
Y222130D01*
X2659380Y248920D02*
Y1252220D01*
X2647950Y1263650D02*
X2659380Y1252220D01*
X2624628Y1263650D02*
X2647950D01*
X2611928Y1250950D02*
X2624628Y1263650D01*
X2632590Y222130D02*
X2659380Y248920D01*
X2621280Y132080D02*
Y240030D01*
X2635250Y254000D01*
Y303953D01*
X2621280Y317923D02*
X2635250Y303953D01*
X1814830Y743159D02*
X1838951Y767280D01*
X1814830Y542414D02*
Y743159D01*
Y542414D02*
X1838951Y518293D01*
X1851660Y754989D02*
X1863951Y767280D01*
X1851660Y530584D02*
Y754989D01*
Y530584D02*
X1863951Y518293D01*
X1875790Y754120D02*
X1888951Y767280D01*
X1875790Y531454D02*
Y754120D01*
Y531454D02*
X1888951Y518293D01*
X1901190Y754520D02*
X1913951Y767280D01*
X1901190Y531054D02*
Y754520D01*
Y531054D02*
X1913951Y518293D01*
X1926590Y754920D02*
X1938950Y767280D01*
X1926590Y530654D02*
Y754920D01*
Y530654D02*
X1938950Y518293D01*
X1951990Y755320D02*
X1963950Y767280D01*
X1951990Y530254D02*
Y755320D01*
Y530254D02*
X1963950Y518293D01*
X1976120Y531124D02*
X1988950Y518293D01*
X1976120Y754450D02*
X1988950Y767280D01*
X1976120Y531124D02*
Y754450D01*
X2001520Y754850D02*
X2013950Y767280D01*
X2001520Y530724D02*
Y754850D01*
Y530724D02*
X2013950Y518293D01*
X2076450Y707390D02*
Y1101090D01*
X2063750Y637540D02*
Y694690D01*
Y637540D02*
X2076450Y624840D01*
X2063750Y694690D02*
X2076450Y707390D01*
Y114100D02*
Y624840D01*
X2176780Y712470D02*
Y1117600D01*
X2165350Y650240D02*
Y701040D01*
Y650240D02*
X2176780Y638810D01*
X2165350Y701040D02*
X2176780Y712470D01*
Y114430D02*
Y638810D01*
X2202180Y711200D02*
Y1106170D01*
X2192020Y643890D02*
Y701040D01*
Y643890D02*
X2202180Y633730D01*
X2192020Y701040D02*
X2202180Y711200D01*
Y114830D02*
Y633730D01*
X2283460Y645160D02*
Y689610D01*
X2275840Y113490D02*
Y637540D01*
X2283460Y645160D01*
X2275840Y697230D02*
X2283460Y689610D01*
X2302510Y692150D02*
Y1221856D01*
X2313940Y647700D02*
Y680720D01*
X2302510Y115160D02*
Y636270D01*
Y692150D02*
X2313940Y680720D01*
X2302510Y636270D02*
X2313940Y647700D01*
D22*
X1210310Y1713230D02*
D03*
X1235710D02*
D03*
X1210310Y1687830D02*
D03*
X1235710D02*
D03*
X1210310Y1662430D02*
D03*
X1235710D02*
D03*
X1210310Y1637030D02*
D03*
X1235710D02*
D03*
X1210310Y1611630D02*
D03*
X1235710D02*
D03*
X1210310Y1586230D02*
D03*
X1235710D02*
D03*
X1210310Y1560830D02*
D03*
X1235710D02*
D03*
X1210310Y1535430D02*
D03*
X1235710D02*
D03*
X1838951Y101600D02*
D03*
X1863951Y126600D02*
D03*
Y101600D02*
D03*
X1888951Y126600D02*
D03*
Y101600D02*
D03*
X1913951Y126600D02*
D03*
Y101600D02*
D03*
X1938950Y126600D02*
D03*
Y101600D02*
D03*
X1963950Y126600D02*
D03*
Y101600D02*
D03*
X1988950Y126600D02*
D03*
Y101600D02*
D03*
X2013950Y126600D02*
D03*
Y101600D02*
D03*
X2038950Y126600D02*
D03*
Y101600D02*
D03*
X2063950Y126600D02*
D03*
Y101600D02*
D03*
X2088950Y126600D02*
D03*
Y101600D02*
D03*
X2113950Y126600D02*
D03*
Y101600D02*
D03*
X2138950Y126600D02*
D03*
Y101600D02*
D03*
X2163950Y126600D02*
D03*
Y101600D02*
D03*
X2188950Y126600D02*
D03*
Y101600D02*
D03*
X2213950Y126600D02*
D03*
Y101600D02*
D03*
X2238950Y126600D02*
D03*
Y101600D02*
D03*
X2263950Y126600D02*
D03*
Y101600D02*
D03*
X2313950D02*
D03*
Y126600D02*
D03*
X2288950Y101600D02*
D03*
Y126600D02*
D03*
X160011Y136090D02*
D03*
X185011Y161090D02*
D03*
Y136090D02*
D03*
X210011Y161090D02*
D03*
Y136090D02*
D03*
X235011Y161090D02*
D03*
Y136090D02*
D03*
X260010Y161090D02*
D03*
Y136090D02*
D03*
X285010Y161090D02*
D03*
Y136090D02*
D03*
X310010Y161090D02*
D03*
Y136090D02*
D03*
X335010Y161090D02*
D03*
Y136090D02*
D03*
X360010Y161090D02*
D03*
Y136090D02*
D03*
X385010Y161090D02*
D03*
Y136090D02*
D03*
X410010Y161090D02*
D03*
Y136090D02*
D03*
X435010Y161090D02*
D03*
Y136090D02*
D03*
X460010Y161090D02*
D03*
Y136090D02*
D03*
X485010Y161090D02*
D03*
Y136090D02*
D03*
X510010Y161090D02*
D03*
Y136090D02*
D03*
X535010Y161090D02*
D03*
Y136090D02*
D03*
X560010Y161090D02*
D03*
Y136090D02*
D03*
X585010Y161090D02*
D03*
Y136090D02*
D03*
X635010D02*
D03*
Y161090D02*
D03*
X610010Y136090D02*
D03*
Y161090D02*
D03*
X165091Y766010D02*
D03*
X190091Y791010D02*
D03*
Y766010D02*
D03*
X215091Y791010D02*
D03*
Y766010D02*
D03*
X240091Y791010D02*
D03*
Y766010D02*
D03*
X265090Y791010D02*
D03*
Y766010D02*
D03*
X290090Y791010D02*
D03*
Y766010D02*
D03*
X315090Y791010D02*
D03*
Y766010D02*
D03*
X340090Y791010D02*
D03*
Y766010D02*
D03*
X365090Y791010D02*
D03*
Y766010D02*
D03*
X390090Y791010D02*
D03*
Y766010D02*
D03*
X415090Y791010D02*
D03*
Y766010D02*
D03*
X440090Y791010D02*
D03*
Y766010D02*
D03*
X465090Y791010D02*
D03*
Y766010D02*
D03*
X490090Y791010D02*
D03*
Y766010D02*
D03*
X515090Y791010D02*
D03*
Y766010D02*
D03*
X540090Y791010D02*
D03*
Y766010D02*
D03*
X565090Y791010D02*
D03*
Y766010D02*
D03*
X590090Y791010D02*
D03*
Y766010D02*
D03*
X640090D02*
D03*
Y791010D02*
D03*
X615090Y766010D02*
D03*
Y791010D02*
D03*
X160011Y435810D02*
D03*
X185011Y460810D02*
D03*
Y435810D02*
D03*
X210011Y460810D02*
D03*
Y435810D02*
D03*
X235011Y460810D02*
D03*
Y435810D02*
D03*
X260010Y460810D02*
D03*
Y435810D02*
D03*
X285010Y460810D02*
D03*
Y435810D02*
D03*
X310010Y460810D02*
D03*
Y435810D02*
D03*
X335010Y460810D02*
D03*
Y435810D02*
D03*
X360010Y460810D02*
D03*
Y435810D02*
D03*
X385010Y460810D02*
D03*
Y435810D02*
D03*
X410010Y460810D02*
D03*
Y435810D02*
D03*
X435010Y460810D02*
D03*
Y435810D02*
D03*
X460010Y460810D02*
D03*
Y435810D02*
D03*
X485010Y460810D02*
D03*
Y435810D02*
D03*
X510010Y460810D02*
D03*
Y435810D02*
D03*
X535010Y460810D02*
D03*
Y435810D02*
D03*
X560010Y460810D02*
D03*
Y435810D02*
D03*
X585010Y460810D02*
D03*
Y435810D02*
D03*
X635010D02*
D03*
Y460810D02*
D03*
X610010Y435810D02*
D03*
Y460810D02*
D03*
X1838951Y518293D02*
D03*
X1863951Y543293D02*
D03*
Y518293D02*
D03*
X1888951Y543293D02*
D03*
Y518293D02*
D03*
X1913951Y543293D02*
D03*
Y518293D02*
D03*
X1938950Y543293D02*
D03*
Y518293D02*
D03*
X1963950Y543293D02*
D03*
Y518293D02*
D03*
X1988950Y543293D02*
D03*
Y518293D02*
D03*
X2013950Y543293D02*
D03*
Y518293D02*
D03*
X2038950Y543293D02*
D03*
Y518293D02*
D03*
X2063950Y543293D02*
D03*
Y518293D02*
D03*
X2088950Y543293D02*
D03*
Y518293D02*
D03*
X2113950Y543293D02*
D03*
Y518293D02*
D03*
X2138950Y543293D02*
D03*
Y518293D02*
D03*
X2163950Y543293D02*
D03*
Y518293D02*
D03*
X2188950Y543293D02*
D03*
Y518293D02*
D03*
X2213950Y543293D02*
D03*
Y518293D02*
D03*
X2238950Y543293D02*
D03*
Y518293D02*
D03*
X2263950Y543293D02*
D03*
Y518293D02*
D03*
X2313950D02*
D03*
Y543293D02*
D03*
X2288950Y518293D02*
D03*
Y543293D02*
D03*
X1838951Y767280D02*
D03*
X1863951Y792280D02*
D03*
Y767280D02*
D03*
X1888951Y792280D02*
D03*
Y767280D02*
D03*
X1913951Y792280D02*
D03*
Y767280D02*
D03*
X1938950Y792280D02*
D03*
Y767280D02*
D03*
X1963950Y792280D02*
D03*
Y767280D02*
D03*
X1988950Y792280D02*
D03*
Y767280D02*
D03*
X2013950Y792280D02*
D03*
Y767280D02*
D03*
X2038950Y792280D02*
D03*
Y767280D02*
D03*
X2063950Y792280D02*
D03*
Y767280D02*
D03*
X2088950Y792280D02*
D03*
Y767280D02*
D03*
X2113950Y792280D02*
D03*
Y767280D02*
D03*
X2138950Y792280D02*
D03*
Y767280D02*
D03*
X2163950Y792280D02*
D03*
Y767280D02*
D03*
X2188950Y792280D02*
D03*
Y767280D02*
D03*
X2213950Y792280D02*
D03*
Y767280D02*
D03*
X2238950Y792280D02*
D03*
Y767280D02*
D03*
X2263950Y792280D02*
D03*
Y767280D02*
D03*
X2313950D02*
D03*
Y792280D02*
D03*
X2288950Y767280D02*
D03*
Y792280D02*
D03*
X1838951Y313890D02*
D03*
X1863951Y338890D02*
D03*
Y313890D02*
D03*
X1888951Y338890D02*
D03*
Y313890D02*
D03*
X1913951Y338890D02*
D03*
Y313890D02*
D03*
X1938950Y338890D02*
D03*
Y313890D02*
D03*
X1963950Y338890D02*
D03*
Y313890D02*
D03*
X1988950Y338890D02*
D03*
Y313890D02*
D03*
X2013950Y338890D02*
D03*
Y313890D02*
D03*
X2038950Y338890D02*
D03*
Y313890D02*
D03*
X2063950Y338890D02*
D03*
Y313890D02*
D03*
X2088950Y338890D02*
D03*
Y313890D02*
D03*
X2113950Y338890D02*
D03*
Y313890D02*
D03*
X2138950Y338890D02*
D03*
Y313890D02*
D03*
X2163950Y338890D02*
D03*
Y313890D02*
D03*
X2188950Y338890D02*
D03*
Y313890D02*
D03*
X2213950Y338890D02*
D03*
Y313890D02*
D03*
X2238950Y338890D02*
D03*
Y313890D02*
D03*
X2263950Y338890D02*
D03*
Y313890D02*
D03*
X2313950D02*
D03*
Y338890D02*
D03*
X2288950Y313890D02*
D03*
Y338890D02*
D03*
X2752090Y1352550D02*
D03*
X2777490D02*
D03*
X2752090Y1327150D02*
D03*
X2777490D02*
D03*
X2752090Y1301750D02*
D03*
X2777490D02*
D03*
X2752090Y1276350D02*
D03*
X2777490D02*
D03*
X2752090Y1250950D02*
D03*
X2777490D02*
D03*
X2752090Y1225550D02*
D03*
X2777490D02*
D03*
X2752090Y1200150D02*
D03*
X2777490D02*
D03*
X2752090Y1174750D02*
D03*
X2777490D02*
D03*
X2611928Y1352550D02*
D03*
X2637328D02*
D03*
X2611928Y1327150D02*
D03*
X2637328D02*
D03*
X2611928Y1301750D02*
D03*
X2637328D02*
D03*
X2611928Y1276350D02*
D03*
X2637328D02*
D03*
X2611928Y1250950D02*
D03*
X2637328D02*
D03*
X2611928Y1225550D02*
D03*
X2637328D02*
D03*
X2611928Y1200150D02*
D03*
X2637328D02*
D03*
X2611928Y1174750D02*
D03*
X2637328D02*
D03*
X2752090Y1713230D02*
D03*
X2777490D02*
D03*
X2752090Y1687830D02*
D03*
X2777490D02*
D03*
X2752090Y1662430D02*
D03*
X2777490D02*
D03*
X2752090Y1637030D02*
D03*
X2777490D02*
D03*
X2752090Y1611630D02*
D03*
X2777490D02*
D03*
X2752090Y1586230D02*
D03*
X2777490D02*
D03*
X2752090Y1560830D02*
D03*
X2777490D02*
D03*
X2752090Y1535430D02*
D03*
X2777490D02*
D03*
X2611928Y1713230D02*
D03*
X2637328D02*
D03*
X2611928Y1687830D02*
D03*
X2637328D02*
D03*
X2611928Y1662430D02*
D03*
X2637328D02*
D03*
X2611928Y1637030D02*
D03*
X2637328D02*
D03*
X2611928Y1611630D02*
D03*
X2637328D02*
D03*
X2611928Y1586230D02*
D03*
X2637328D02*
D03*
X2611928Y1560830D02*
D03*
X2637328D02*
D03*
X2611928Y1535430D02*
D03*
X2637328D02*
D03*
X2471766Y1352550D02*
D03*
X2497166D02*
D03*
X2471766Y1327150D02*
D03*
X2497166D02*
D03*
X2471766Y1301750D02*
D03*
X2497166D02*
D03*
X2471766Y1276350D02*
D03*
X2497166D02*
D03*
X2471766Y1250950D02*
D03*
X2497166D02*
D03*
X2471766Y1225550D02*
D03*
X2497166D02*
D03*
X2471766Y1200150D02*
D03*
X2497166D02*
D03*
X2471766Y1174750D02*
D03*
X2497166D02*
D03*
X2331604Y1352550D02*
D03*
X2357004D02*
D03*
X2331604Y1327150D02*
D03*
X2357004D02*
D03*
X2331604Y1301750D02*
D03*
X2357004D02*
D03*
X2331604Y1276350D02*
D03*
X2357004D02*
D03*
X2331604Y1250950D02*
D03*
X2357004D02*
D03*
X2331604Y1225550D02*
D03*
X2357004D02*
D03*
X2331604Y1200150D02*
D03*
X2357004D02*
D03*
X2331604Y1174750D02*
D03*
X2357004D02*
D03*
X2471766Y1713230D02*
D03*
X2497166D02*
D03*
X2471766Y1687830D02*
D03*
X2497166D02*
D03*
X2471766Y1662430D02*
D03*
X2497166D02*
D03*
X2471766Y1637030D02*
D03*
X2497166D02*
D03*
X2471766Y1611630D02*
D03*
X2497166D02*
D03*
X2471766Y1586230D02*
D03*
X2497166D02*
D03*
X2471766Y1560830D02*
D03*
X2497166D02*
D03*
X2471766Y1535430D02*
D03*
X2497166D02*
D03*
X2331604Y1713230D02*
D03*
X2357004D02*
D03*
X2331604Y1687830D02*
D03*
X2357004D02*
D03*
X2331604Y1662430D02*
D03*
X2357004D02*
D03*
X2331604Y1637030D02*
D03*
X2357004D02*
D03*
X2331604Y1611630D02*
D03*
X2357004D02*
D03*
X2331604Y1586230D02*
D03*
X2357004D02*
D03*
X2331604Y1560830D02*
D03*
X2357004D02*
D03*
X2331604Y1535430D02*
D03*
X2357004D02*
D03*
X2191443Y1352550D02*
D03*
X2216843D02*
D03*
X2191443Y1327150D02*
D03*
X2216843D02*
D03*
X2191443Y1301750D02*
D03*
X2216843D02*
D03*
X2191443Y1276350D02*
D03*
X2216843D02*
D03*
X2191443Y1250950D02*
D03*
X2216843D02*
D03*
X2191443Y1225550D02*
D03*
X2216843D02*
D03*
X2191443Y1200150D02*
D03*
X2216843D02*
D03*
X2191443Y1174750D02*
D03*
X2216843D02*
D03*
X2051281Y1352550D02*
D03*
X2076681D02*
D03*
X2051281Y1327150D02*
D03*
X2076681D02*
D03*
X2051281Y1301750D02*
D03*
X2076681D02*
D03*
X2051281Y1276350D02*
D03*
X2076681D02*
D03*
X2051281Y1250950D02*
D03*
X2076681D02*
D03*
X2051281Y1225550D02*
D03*
X2076681D02*
D03*
X2051281Y1200150D02*
D03*
X2076681D02*
D03*
X2051281Y1174750D02*
D03*
X2076681D02*
D03*
X2191443Y1713230D02*
D03*
X2216843D02*
D03*
X2191443Y1687830D02*
D03*
X2216843D02*
D03*
X2191443Y1662430D02*
D03*
X2216843D02*
D03*
X2191443Y1637030D02*
D03*
X2216843D02*
D03*
X2191443Y1611630D02*
D03*
X2216843D02*
D03*
X2191443Y1586230D02*
D03*
X2216843D02*
D03*
X2191443Y1560830D02*
D03*
X2216843D02*
D03*
X2191443Y1535430D02*
D03*
X2216843D02*
D03*
X2051281Y1713230D02*
D03*
X2076681D02*
D03*
X2051281Y1687830D02*
D03*
X2076681D02*
D03*
X2051281Y1662430D02*
D03*
X2076681D02*
D03*
X2051281Y1637030D02*
D03*
X2076681D02*
D03*
X2051281Y1611630D02*
D03*
X2076681D02*
D03*
X2051281Y1586230D02*
D03*
X2076681D02*
D03*
X2051281Y1560830D02*
D03*
X2076681D02*
D03*
X2051281Y1535430D02*
D03*
X2076681D02*
D03*
X1911119Y1352550D02*
D03*
X1936519D02*
D03*
X1911119Y1327150D02*
D03*
X1936519D02*
D03*
X1911119Y1301750D02*
D03*
X1936519D02*
D03*
X1911119Y1276350D02*
D03*
X1936519D02*
D03*
X1911119Y1250950D02*
D03*
X1936519D02*
D03*
X1911119Y1225550D02*
D03*
X1936519D02*
D03*
X1911119Y1200150D02*
D03*
X1936519D02*
D03*
X1911119Y1174750D02*
D03*
X1936519D02*
D03*
X1770957Y1352550D02*
D03*
X1796357D02*
D03*
X1770957Y1327150D02*
D03*
X1796357D02*
D03*
X1770957Y1301750D02*
D03*
X1796357D02*
D03*
X1770957Y1276350D02*
D03*
X1796357D02*
D03*
X1770957Y1250950D02*
D03*
X1796357D02*
D03*
X1770957Y1225550D02*
D03*
X1796357D02*
D03*
X1770957Y1200150D02*
D03*
X1796357D02*
D03*
X1770957Y1174750D02*
D03*
X1796357D02*
D03*
X1911119Y1713230D02*
D03*
X1936519D02*
D03*
X1911119Y1687830D02*
D03*
X1936519D02*
D03*
X1911119Y1662430D02*
D03*
X1936519D02*
D03*
X1911119Y1637030D02*
D03*
X1936519D02*
D03*
X1911119Y1611630D02*
D03*
X1936519D02*
D03*
X1911119Y1586230D02*
D03*
X1936519D02*
D03*
X1911119Y1560830D02*
D03*
X1936519D02*
D03*
X1911119Y1535430D02*
D03*
X1936519D02*
D03*
X1770957Y1713230D02*
D03*
X1796357D02*
D03*
X1770957Y1687830D02*
D03*
X1796357D02*
D03*
X1770957Y1662430D02*
D03*
X1796357D02*
D03*
X1770957Y1637030D02*
D03*
X1796357D02*
D03*
X1770957Y1611630D02*
D03*
X1796357D02*
D03*
X1770957Y1586230D02*
D03*
X1796357D02*
D03*
X1770957Y1560830D02*
D03*
X1796357D02*
D03*
X1770957Y1535430D02*
D03*
X1796357D02*
D03*
X1630795Y1352550D02*
D03*
X1656195D02*
D03*
X1630795Y1327150D02*
D03*
X1656195D02*
D03*
X1630795Y1301750D02*
D03*
X1656195D02*
D03*
X1630795Y1276350D02*
D03*
X1656195D02*
D03*
X1630795Y1250950D02*
D03*
X1656195D02*
D03*
X1630795Y1225550D02*
D03*
X1656195D02*
D03*
X1630795Y1200150D02*
D03*
X1656195D02*
D03*
X1630795Y1174750D02*
D03*
X1656195D02*
D03*
X1490634Y1352550D02*
D03*
X1516034D02*
D03*
X1490634Y1327150D02*
D03*
X1516034D02*
D03*
X1490634Y1301750D02*
D03*
X1516034D02*
D03*
X1490634Y1276350D02*
D03*
X1516034D02*
D03*
X1490634Y1250950D02*
D03*
X1516034D02*
D03*
X1490634Y1225550D02*
D03*
X1516034D02*
D03*
X1490634Y1200150D02*
D03*
X1516034D02*
D03*
X1490634Y1174750D02*
D03*
X1516034D02*
D03*
X1630795Y1713230D02*
D03*
X1656195D02*
D03*
X1630795Y1687830D02*
D03*
X1656195D02*
D03*
X1630795Y1662430D02*
D03*
X1656195D02*
D03*
X1630795Y1637030D02*
D03*
X1656195D02*
D03*
X1630795Y1611630D02*
D03*
X1656195D02*
D03*
X1630795Y1586230D02*
D03*
X1656195D02*
D03*
X1630795Y1560830D02*
D03*
X1656195D02*
D03*
X1630795Y1535430D02*
D03*
X1656195D02*
D03*
X1490634Y1713230D02*
D03*
X1516034D02*
D03*
X1490634Y1687830D02*
D03*
X1516034D02*
D03*
X1490634Y1662430D02*
D03*
X1516034D02*
D03*
X1490634Y1637030D02*
D03*
X1516034D02*
D03*
X1490634Y1611630D02*
D03*
X1516034D02*
D03*
X1490634Y1586230D02*
D03*
X1516034D02*
D03*
X1490634Y1560830D02*
D03*
X1516034D02*
D03*
X1490634Y1535430D02*
D03*
X1516034D02*
D03*
X1350472Y1352550D02*
D03*
X1375872D02*
D03*
X1350472Y1327150D02*
D03*
X1375872D02*
D03*
X1350472Y1301750D02*
D03*
X1375872D02*
D03*
X1350472Y1276350D02*
D03*
X1375872D02*
D03*
X1350472Y1250950D02*
D03*
X1375872D02*
D03*
X1350472Y1225550D02*
D03*
X1375872D02*
D03*
X1350472Y1200150D02*
D03*
X1375872D02*
D03*
X1350472Y1174750D02*
D03*
X1375872D02*
D03*
X1210310Y1352550D02*
D03*
X1235710D02*
D03*
X1210310Y1327150D02*
D03*
X1235710D02*
D03*
X1210310Y1301750D02*
D03*
X1235710D02*
D03*
X1210310Y1276350D02*
D03*
X1235710D02*
D03*
X1210310Y1250950D02*
D03*
X1235710D02*
D03*
X1210310Y1225550D02*
D03*
X1235710D02*
D03*
X1210310Y1200150D02*
D03*
X1235710D02*
D03*
X1210310Y1174750D02*
D03*
X1235710D02*
D03*
X1350472Y1713230D02*
D03*
X1375872D02*
D03*
X1350472Y1687830D02*
D03*
X1375872D02*
D03*
X1350472Y1662430D02*
D03*
X1375872D02*
D03*
X1350472Y1637030D02*
D03*
X1375872D02*
D03*
X1350472Y1611630D02*
D03*
X1375872D02*
D03*
X1350472Y1586230D02*
D03*
X1375872D02*
D03*
X1350472Y1560830D02*
D03*
X1375872D02*
D03*
X1350472Y1535430D02*
D03*
X1375872D02*
D03*
D23*
X2545080Y292523D02*
D03*
X984250Y149860D02*
D03*
X2545080Y528320D02*
D03*
X981710Y793750D02*
D03*
X2545080Y767080D02*
D03*
Y106680D02*
D03*
D24*
X2570480Y292523D02*
D03*
X2595880D02*
D03*
X2621280D02*
D03*
X2646680D02*
D03*
X2672080D02*
D03*
X2697480D02*
D03*
X2722880D02*
D03*
X2545080Y317923D02*
D03*
X2570480D02*
D03*
X2595880D02*
D03*
X2621280D02*
D03*
X2646680D02*
D03*
X2672080D02*
D03*
X2697480D02*
D03*
X2722880D02*
D03*
X958850Y149860D02*
D03*
X933450D02*
D03*
X908050D02*
D03*
X882650D02*
D03*
X857250D02*
D03*
X831850D02*
D03*
X806450D02*
D03*
X984250Y124460D02*
D03*
X958850D02*
D03*
X933450D02*
D03*
X908050D02*
D03*
X882650D02*
D03*
X857250D02*
D03*
X831850D02*
D03*
X806450D02*
D03*
X2570480Y528320D02*
D03*
X2595880D02*
D03*
X2621280D02*
D03*
X2646680D02*
D03*
X2672080D02*
D03*
X2697480D02*
D03*
X2722880D02*
D03*
X2545080Y553720D02*
D03*
X2570480D02*
D03*
X2595880D02*
D03*
X2621280D02*
D03*
X2646680D02*
D03*
X2672080D02*
D03*
X2697480D02*
D03*
X2722880D02*
D03*
X956310Y793750D02*
D03*
X930910D02*
D03*
X905510D02*
D03*
X880110D02*
D03*
X854710D02*
D03*
X829310D02*
D03*
X803910D02*
D03*
X981710Y768350D02*
D03*
X956310D02*
D03*
X930910D02*
D03*
X905510D02*
D03*
X880110D02*
D03*
X854710D02*
D03*
X829310D02*
D03*
X803910D02*
D03*
X2570480Y767080D02*
D03*
X2595880D02*
D03*
X2621280D02*
D03*
X2646680D02*
D03*
X2672080D02*
D03*
X2697480D02*
D03*
X2722880D02*
D03*
X2545080Y792480D02*
D03*
X2570480D02*
D03*
X2595880D02*
D03*
X2621280D02*
D03*
X2646680D02*
D03*
X2672080D02*
D03*
X2697480D02*
D03*
X2722880D02*
D03*
X2570480Y106680D02*
D03*
X2595880D02*
D03*
X2621280D02*
D03*
X2646680D02*
D03*
X2672080D02*
D03*
X2697480D02*
D03*
X2722880D02*
D03*
X2545080Y132080D02*
D03*
X2570480D02*
D03*
X2595880D02*
D03*
X2621280D02*
D03*
X2646680D02*
D03*
X2672080D02*
D03*
X2697480D02*
D03*
X2722880D02*
D03*
D25*
X1838951Y126600D02*
D03*
X160011Y161090D02*
D03*
X165091Y791010D02*
D03*
X160011Y460810D02*
D03*
X1838951Y543293D02*
D03*
Y792280D02*
D03*
Y338890D02*
D03*
D26*
X148591Y1106170D02*
D03*
Y1131570D02*
D03*
X173991Y1106170D02*
D03*
Y1131570D02*
D03*
X199391Y1106170D02*
D03*
Y1131570D02*
D03*
X224790Y1106170D02*
D03*
Y1131570D02*
D03*
X250191Y1106170D02*
D03*
Y1131570D02*
D03*
X275590Y1106170D02*
D03*
Y1131570D02*
D03*
X300991Y1106170D02*
D03*
Y1131570D02*
D03*
X326390Y1106170D02*
D03*
Y1131570D02*
D03*
X351790Y1106170D02*
D03*
Y1131570D02*
D03*
X377190Y1106170D02*
D03*
Y1131570D02*
D03*
X402590Y1106170D02*
D03*
Y1131570D02*
D03*
X427990Y1106170D02*
D03*
Y1131570D02*
D03*
X453390Y1106170D02*
D03*
Y1131570D02*
D03*
X478790Y1106170D02*
D03*
Y1131570D02*
D03*
X504190Y1106170D02*
D03*
Y1131570D02*
D03*
X529590Y1106170D02*
D03*
Y1131570D02*
D03*
X554990Y1106170D02*
D03*
Y1131570D02*
D03*
X580390Y1106170D02*
D03*
Y1131570D02*
D03*
X605790Y1106170D02*
D03*
Y1131570D02*
D03*
X631190Y1106170D02*
D03*
Y1131570D02*
D03*
X656590Y1106170D02*
D03*
Y1131570D02*
D03*
X681990Y1106170D02*
D03*
Y1131570D02*
D03*
X707390Y1106170D02*
D03*
Y1131570D02*
D03*
X732790Y1106170D02*
D03*
Y1131570D02*
D03*
X758189Y1106170D02*
D03*
X148591Y1352550D02*
D03*
Y1377950D02*
D03*
X173991Y1352550D02*
D03*
Y1377950D02*
D03*
X199391Y1352550D02*
D03*
Y1377950D02*
D03*
X224790Y1352550D02*
D03*
Y1377950D02*
D03*
X250191Y1352550D02*
D03*
Y1377950D02*
D03*
X275590Y1352550D02*
D03*
Y1377950D02*
D03*
X300991Y1352550D02*
D03*
Y1377950D02*
D03*
X326390Y1352550D02*
D03*
Y1377950D02*
D03*
X351790Y1352550D02*
D03*
Y1377950D02*
D03*
X377190Y1352550D02*
D03*
Y1377950D02*
D03*
X402590Y1352550D02*
D03*
Y1377950D02*
D03*
X427990Y1352550D02*
D03*
Y1377950D02*
D03*
X453390Y1352550D02*
D03*
Y1377950D02*
D03*
X478790Y1352550D02*
D03*
Y1377950D02*
D03*
X504190Y1352550D02*
D03*
Y1377950D02*
D03*
X529590Y1352550D02*
D03*
Y1377950D02*
D03*
X554990Y1352550D02*
D03*
Y1377950D02*
D03*
X580390Y1352550D02*
D03*
Y1377950D02*
D03*
X605790Y1352550D02*
D03*
Y1377950D02*
D03*
X631190Y1352550D02*
D03*
Y1377950D02*
D03*
X656590Y1352550D02*
D03*
Y1377950D02*
D03*
X681990Y1352550D02*
D03*
Y1377950D02*
D03*
X707390Y1352550D02*
D03*
Y1377950D02*
D03*
X732790Y1352550D02*
D03*
Y1377950D02*
D03*
X758189Y1352550D02*
D03*
X148591Y1598930D02*
D03*
Y1624330D02*
D03*
X173991Y1598930D02*
D03*
Y1624330D02*
D03*
X199391Y1598930D02*
D03*
Y1624330D02*
D03*
X224790Y1598930D02*
D03*
Y1624330D02*
D03*
X250191Y1598930D02*
D03*
Y1624330D02*
D03*
X275590Y1598930D02*
D03*
Y1624330D02*
D03*
X300991Y1598930D02*
D03*
Y1624330D02*
D03*
X326390Y1598930D02*
D03*
Y1624330D02*
D03*
X351790Y1598930D02*
D03*
Y1624330D02*
D03*
X377190Y1598930D02*
D03*
Y1624330D02*
D03*
X402590Y1598930D02*
D03*
Y1624330D02*
D03*
X427990Y1598930D02*
D03*
Y1624330D02*
D03*
X453390Y1598930D02*
D03*
Y1624330D02*
D03*
X478790Y1598930D02*
D03*
Y1624330D02*
D03*
X504190Y1598930D02*
D03*
Y1624330D02*
D03*
X529590Y1598930D02*
D03*
Y1624330D02*
D03*
X554990Y1598930D02*
D03*
Y1624330D02*
D03*
X580390Y1598930D02*
D03*
Y1624330D02*
D03*
X605790Y1598930D02*
D03*
Y1624330D02*
D03*
X631190Y1598930D02*
D03*
Y1624330D02*
D03*
X656590Y1598930D02*
D03*
Y1624330D02*
D03*
X681990Y1598930D02*
D03*
Y1624330D02*
D03*
X707390Y1598930D02*
D03*
Y1624330D02*
D03*
X732790Y1598930D02*
D03*
Y1624330D02*
D03*
X758189Y1598930D02*
D03*
D27*
Y1131570D02*
D03*
Y1377950D02*
D03*
Y1624330D02*
D03*
D28*
X2940000Y750000D02*
D03*
X60000D02*
D03*
X1430000D02*
D03*
X60000Y60000D02*
D03*
Y1800000D02*
D03*
X2940000D02*
D03*
Y60000D02*
D03*
D29*
X2175443Y661670D02*
D03*
X1771650Y1473200D02*
D03*
X1982470Y1623060D02*
D03*
Y1609090D02*
D03*
X1981200Y1591310D02*
D03*
X1864360Y1605280D02*
D03*
X1846580Y1615440D02*
D03*
X1417320Y1648460D02*
D03*
X1291590Y1656080D02*
D03*
X1154430Y1535430D02*
D03*
Y1681480D02*
D03*
X1162050Y1662430D02*
D03*
X2189480Y1026160D02*
D03*
X2192020Y1033780D02*
D03*
X1266190Y1352550D02*
D03*
X1117600Y713740D02*
D03*
X981710Y1287780D02*
D03*
X1962150Y949960D02*
D03*
X2266950Y1018540D02*
D03*
X1656080Y980440D02*
D03*
X1068070Y1009650D02*
D03*
X1076960D02*
D03*
X1085850D02*
D03*
X2153920Y1187450D02*
D03*
X1673860Y1225550D02*
D03*
X1539240Y1253490D02*
D03*
X1837690Y1230630D02*
D03*
Y1338580D02*
D03*
X1674221Y1324856D02*
D03*
X1540510Y1323340D02*
D03*
X2127250Y1250950D02*
D03*
X2117090Y1106170D02*
D03*
X2202180D02*
D03*
X2042160Y1375410D02*
D03*
X1918970Y1019810D02*
D03*
X1765300Y1005840D02*
D03*
X1176020Y949960D02*
D03*
X1159510Y1007110D02*
D03*
X1150620Y1002030D02*
D03*
X2142490Y1290320D02*
D03*
X1752600Y1187450D02*
D03*
X1744980Y1242060D02*
D03*
X1736090Y1264920D02*
D03*
X1974850Y1160780D02*
D03*
X1992630Y1153160D02*
D03*
X1412240Y1477010D02*
D03*
X1704340D02*
D03*
X1249680Y1466850D02*
D03*
X1704340D02*
D03*
X1691640Y1722120D02*
D03*
X1283970Y1534160D02*
D03*
X1252220Y1121410D02*
D03*
X1404620Y1249680D02*
D03*
X1300480Y1301750D02*
D03*
Y914400D02*
D03*
X1258570Y1714500D02*
D03*
X1276350Y1621790D02*
D03*
X1605280Y1248410D02*
D03*
X1614170Y1089660D02*
D03*
X1621790Y1106170D02*
D03*
X1426210Y1534160D02*
D03*
X1435100Y1301750D02*
D03*
X1441450Y1661160D02*
D03*
X1447800Y1610360D02*
D03*
X1461770Y1249680D02*
D03*
X1543050Y1366520D02*
D03*
X1551940Y1691640D02*
D03*
X1748790Y393700D02*
D03*
X1887220Y1706880D02*
D03*
X1767840Y359410D02*
D03*
X1673860Y355600D02*
D03*
X1840230Y1352550D02*
D03*
X1715770Y351790D02*
D03*
X1880870Y1325880D02*
D03*
X1780540Y341630D02*
D03*
X1731010Y332740D02*
D03*
X2804160Y1341120D02*
D03*
X2783840Y367030D02*
D03*
X2025650Y1466850D02*
D03*
X1882140D02*
D03*
X1887220Y1350010D02*
D03*
X1859280Y1358900D02*
D03*
X1790700Y326390D02*
D03*
X2258060Y1352550D02*
D03*
X2256790Y1093470D02*
D03*
X2346960Y1085850D02*
D03*
X2354580Y257810D02*
D03*
X2258060Y1593850D02*
D03*
X2284730Y1107440D02*
D03*
X2372360D02*
D03*
X2367280Y246380D02*
D03*
X1416050Y1146810D02*
D03*
X1478280D02*
D03*
X1568450Y1701800D02*
D03*
X1577340Y1355090D02*
D03*
X1586230Y1343660D02*
D03*
X1710690Y1352550D02*
D03*
X1722120Y1701800D02*
D03*
X1729740Y1708150D02*
D03*
X1720850Y576580D02*
D03*
X2122170Y1713230D02*
D03*
X2134870Y1617980D02*
D03*
X2127250Y1064260D02*
D03*
X2498090D02*
D03*
Y607060D02*
D03*
X2160270Y1070610D02*
D03*
X2485390D02*
D03*
Y594360D02*
D03*
X2217420Y1106170D02*
D03*
X2470150Y1096010D02*
D03*
X2432050Y1250950D02*
D03*
X2266950Y1200150D02*
D03*
Y1390650D02*
D03*
X2459066Y1375156D02*
D03*
X2463800Y584200D02*
D03*
X2534920Y1360170D02*
D03*
X2470150Y575310D02*
D03*
X2274570Y1804670D02*
D03*
X2251710Y1604010D02*
D03*
X2277110Y1612900D02*
D03*
X2439670Y1468120D02*
D03*
X2284730D02*
D03*
X2509520Y1398270D02*
D03*
Y1410970D02*
D03*
X2650490Y1753870D02*
D03*
X2711450Y1611630D02*
D03*
X2700020Y1562100D02*
D03*
X2712720Y1651000D02*
D03*
X2705100Y1728470D02*
D03*
X2712720Y1661160D02*
D03*
X2700020Y1744980D02*
D03*
X2725420Y1734820D02*
D03*
X2686050Y1710690D02*
D03*
X2725420Y1720850D02*
D03*
X2559050Y1770380D02*
D03*
X2593340Y1761490D02*
D03*
X2738120Y1789430D02*
D03*
X2583180D02*
D03*
X2637790Y1780540D02*
D03*
X2451100D02*
D03*
X2350770Y1407160D02*
D03*
X2312670Y1398270D02*
D03*
X2396490Y1372870D02*
D03*
X2430780Y1301750D02*
D03*
X2438400Y1351280D02*
D03*
X2421890Y1347470D02*
D03*
X2409190Y1717040D02*
D03*
X2414270Y1689100D02*
D03*
X2406650Y1699260D02*
D03*
X2433320Y1797050D02*
D03*
X2405380Y1781810D02*
D03*
Y1790700D02*
D03*
X2294890Y1823720D02*
D03*
X2308860Y1812290D02*
D03*
X1085850Y1790700D02*
D03*
Y1781810D02*
D03*
X1084580Y1760220D02*
D03*
Y1747520D02*
D03*
X1083310Y1736090D02*
D03*
Y1727200D02*
D03*
Y1717040D02*
D03*
Y1708150D02*
D03*
X1096010Y1706880D02*
D03*
X1085850Y1443990D02*
D03*
X1684020Y1139190D02*
D03*
X1543050Y1143000D02*
D03*
X1976120Y1126490D02*
D03*
X1746250Y1087120D02*
D03*
X1951990Y1109980D02*
D03*
X1838960Y1107440D02*
D03*
X1898650Y1118870D02*
D03*
X2089150D02*
D03*
X1963420Y1108710D02*
D03*
X1765300Y1073150D02*
D03*
X1912620Y1082040D02*
D03*
X1416050Y1131570D02*
D03*
X1813560Y1097280D02*
D03*
X1827530Y1107440D02*
D03*
X2061210Y1088390D02*
D03*
X2076450Y1101090D02*
D03*
X2061210D02*
D03*
X2089150Y1108710D02*
D03*
X2537460Y1817370D02*
D03*
X2541270Y1560830D02*
D03*
X2565400Y1532890D02*
D03*
X2574290Y1607820D02*
D03*
X2590800Y1421130D02*
D03*
X2693670Y1352550D02*
D03*
X2637790Y1389380D02*
D03*
X2833370D02*
D03*
X2674620Y1198880D02*
D03*
Y1421130D02*
D03*
X2663190Y1432560D02*
D03*
X2610273Y1015153D02*
D03*
X2840990Y1353820D02*
D03*
X2766060Y1456690D02*
D03*
X2757170Y1449070D02*
D03*
X2842260Y1441450D02*
D03*
X2792730Y1088390D02*
D03*
X2644296Y1104900D02*
D03*
X2626360Y1088390D02*
D03*
X2576407Y942340D02*
D03*
X2541270Y924560D02*
D03*
X2645410Y665480D02*
D03*
X2644296Y929640D02*
D03*
X2385060Y506730D02*
D03*
X2386330Y487680D02*
D03*
Y472440D02*
D03*
X2476500Y511810D02*
D03*
X1140460Y808990D02*
D03*
X1762760Y880110D02*
D03*
X1811020Y893278D02*
D03*
X1168400Y854710D02*
D03*
X1857074Y922956D02*
D03*
X1888356Y928236D02*
D03*
X1919638Y938530D02*
D03*
X1941830Y994410D02*
D03*
X1982202Y1051292D02*
D03*
X2002790Y1061720D02*
D03*
X1982470Y1473200D02*
D03*
X2124710Y1073150D02*
D03*
X2138680Y1082040D02*
D03*
X2239010Y1093470D02*
D03*
X2509520Y1003300D02*
D03*
X2326640D02*
D03*
X2546350Y655320D02*
D03*
X2579103Y651510D02*
D03*
X2576830Y502920D02*
D03*
X2640330Y401320D02*
D03*
X2710180Y424180D02*
D03*
X2705100Y435610D02*
D03*
X2451100Y234950D02*
D03*
X2438400D02*
D03*
X2421890Y233680D02*
D03*
X2405380Y234950D02*
D03*
X2390140D02*
D03*
X2820670Y237490D02*
D03*
X2833370D02*
D03*
X2844800D02*
D03*
X1083310Y1513840D02*
D03*
X1071880Y1512570D02*
D03*
X1061720Y1511300D02*
D03*
X1047750D02*
D03*
X1035050D02*
D03*
X1024890Y1504950D02*
D03*
X1016000Y1484630D02*
D03*
Y1477010D02*
D03*
X1022350Y1470660D02*
D03*
X1064260Y1248410D02*
D03*
X1068070Y1275080D02*
D03*
Y1282700D02*
D03*
Y1301750D02*
D03*
Y1309370D02*
D03*
Y1316990D02*
D03*
X1066800Y1325880D02*
D03*
X1065530Y1338580D02*
D03*
X1117600Y1234440D02*
D03*
Y1220470D02*
D03*
X1099820Y1160780D02*
D03*
X1137920Y1206500D02*
D03*
X1135380Y1187450D02*
D03*
X1126490D02*
D03*
X1115060Y1186180D02*
D03*
X1113790Y1168400D02*
D03*
X1108710Y1145540D02*
D03*
X1112520Y1154430D02*
D03*
X1107440Y1179830D02*
D03*
Y1226820D02*
D03*
X1104900Y1240790D02*
D03*
X1483360Y1045210D02*
D03*
X1437640Y1054100D02*
D03*
X1635760Y1075690D02*
D03*
X1554480Y1065530D02*
D03*
X1562100Y972820D02*
D03*
X1692910Y1029970D02*
D03*
X1676400Y1033780D02*
D03*
X1449070Y960120D02*
D03*
X1362710Y905510D02*
D03*
X1395730Y929640D02*
D03*
X1431290Y938530D02*
D03*
X1234440Y880110D02*
D03*
X991870Y861060D02*
D03*
X1299210Y820420D02*
D03*
X1310640Y829310D02*
D03*
X1398270Y848360D02*
D03*
X1064260Y808990D02*
D03*
X1189990Y707390D02*
D03*
X1297940Y750570D02*
D03*
X1339850Y681990D02*
D03*
X1521460Y668020D02*
D03*
X1548130Y656590D02*
D03*
X1541780Y641350D02*
D03*
X1518920Y292100D02*
D03*
X1529080D02*
D03*
X1540510D02*
D03*
X1551940Y290830D02*
D03*
X1563370Y289560D02*
D03*
X1200150Y332740D02*
D03*
X1225550Y337820D02*
D03*
X1235710D02*
D03*
X1287780Y312420D02*
D03*
X1296670Y313690D02*
D03*
X1306830D02*
D03*
X1315720D02*
D03*
Y295910D02*
D03*
X1647190Y590550D02*
D03*
Y577850D02*
D03*
Y565150D02*
D03*
X1645920Y551180D02*
D03*
X1065530Y1352550D02*
D03*
X694690Y1060450D02*
D03*
X618490D02*
D03*
X542290D02*
D03*
X466090D02*
D03*
X364491D02*
D03*
X288291D02*
D03*
X223520Y1049020D02*
D03*
X240030Y1045210D02*
D03*
X265430Y1033780D02*
D03*
X290830Y1019810D02*
D03*
X313690Y1005840D02*
D03*
X340360Y991870D02*
D03*
X873760Y1677670D02*
D03*
Y1691640D02*
D03*
Y1704340D02*
D03*
Y1717040D02*
D03*
X872490Y1762760D02*
D03*
X871220Y1751330D02*
D03*
X873760Y1739900D02*
D03*
Y1727200D02*
D03*
X965200Y1009650D02*
D03*
X963930Y998220D02*
D03*
Y981710D02*
D03*
Y966470D02*
D03*
X566420Y977900D02*
D03*
X591820Y967740D02*
D03*
X614680Y956310D02*
D03*
X640080Y946150D02*
D03*
X1037590Y1435100D02*
D03*
X1028700D02*
D03*
X1018540D02*
D03*
X1008380Y1436370D02*
D03*
X999490D02*
D03*
X989330D02*
D03*
X977900D02*
D03*
X966470Y1435100D02*
D03*
X994410Y920750D02*
D03*
X1004570Y910590D02*
D03*
X1032510Y889000D02*
D03*
X1040130Y887730D02*
D03*
X1049020Y885190D02*
D03*
X1057910D02*
D03*
X1004570Y894080D02*
D03*
Y902970D02*
D03*
X539750Y927100D02*
D03*
X514350Y919480D02*
D03*
X488950Y909320D02*
D03*
X464820Y904240D02*
D03*
X439420Y897890D02*
D03*
X415290Y892810D02*
D03*
X391160Y886460D02*
D03*
X364490Y871220D02*
D03*
X318971Y294640D02*
D03*
X347846D02*
D03*
X376722D02*
D03*
X405598D02*
D03*
X434474D02*
D03*
X908250Y435810D02*
D03*
X944880Y420370D02*
D03*
X976630Y410210D02*
D03*
X1016000Y398780D02*
D03*
X463349Y294640D02*
D03*
X492225D02*
D03*
X521101D02*
D03*
X549977D02*
D03*
X578853D02*
D03*
X607728D02*
D03*
X636604D02*
D03*
X665480D02*
D03*
X198120Y331470D02*
D03*
X218440Y339090D02*
D03*
X242570Y347980D02*
D03*
X116840Y231140D02*
D03*
X145716D02*
D03*
X174592D02*
D03*
X203467D02*
D03*
X232343D02*
D03*
X261219D02*
D03*
X290095D02*
D03*
X318971D02*
D03*
X347846D02*
D03*
X376722D02*
D03*
X405598D02*
D03*
X434474D02*
D03*
X463349D02*
D03*
X485010D02*
D03*
X521101D02*
D03*
X549977D02*
D03*
X578853D02*
D03*
X607728D02*
D03*
X636604D02*
D03*
X665480D02*
D03*
X1012190Y234950D02*
D03*
X978807D02*
D03*
X961390D02*
D03*
X945424Y233680D02*
D03*
X908050Y232410D02*
D03*
X878659Y233680D02*
D03*
X845276Y234950D02*
D03*
X811893D02*
D03*
X778510Y236220D02*
D03*
X661737Y601980D02*
D03*
X631324D02*
D03*
X600910D02*
D03*
X570497D02*
D03*
X540084D02*
D03*
X509671D02*
D03*
X479258D02*
D03*
X448845D02*
D03*
X415090D02*
D03*
X390090D02*
D03*
X357605D02*
D03*
X327192D02*
D03*
X296779D02*
D03*
X266366D02*
D03*
X235953D02*
D03*
X205539D02*
D03*
X172720D02*
D03*
X142240D02*
D03*
X114300D02*
D03*
X692150D02*
D03*
X1216660Y99060D02*
D03*
X1276350Y119380D02*
D03*
X1329690Y109220D02*
D03*
X1350010Y88900D02*
D03*
X1489710Y74930D02*
D03*
X1503680Y54610D02*
D03*
X1593850Y59690D02*
D03*
X1577340Y46990D02*
D03*
X2402840Y666750D02*
D03*
X2370355D02*
D03*
X2337870D02*
D03*
X2240414D02*
D03*
X2207928D02*
D03*
X2142958D02*
D03*
X2110473D02*
D03*
X2045502Y662940D02*
D03*
X2077987Y658863D02*
D03*
X2272899Y671429D02*
D03*
X2305384Y667686D02*
D03*
M02*
