M48
INCH,TZ
T01C.012
T02C.02
T03C.035429
T04C.035433
T05C.15748
;LEADER: 12 
;HEADER: 
;CODE  : ASCII 
;FILE  : Node1-1-2.drl for board F:/PCB/NODE/#Taaabjn10556.tmp ... layers TOP and BOTTOM
;T01 Holesize 1. = 12.000000 Tolerance = +0.000000/-0.000000 PLATED MILS Quantity = 64
;T02 Holesize 2. = 20.000000 Tolerance = +0.000000/-0.000000 PLATED MILS Quantity = 921
;T03 Holesize 3. = 35.429000 Tolerance = +0.000000/-0.000000 PLATED MILS Quantity = 2
;T04 Holesize 4. = 35.433000 Tolerance = +0.000000/-0.000000 PLATED MILS Quantity = 33
;T05 Holesize 5. = 157.480000 Tolerance = +0.000000/-0.000000 PLATED MILS Quantity = 3
%
G90
T01
X48881Y-123052
X46681Y-127949
X43485Y-124493
X32866Y-135693
X-39173Y-134169
X-45252Y-111850
X-30972Y-117937
X-28832Y-108072
X-25382Y-103795
X-21327Y-110201
X-12000Y-113988
X-10693Y-117941
X-8382Y-112913
X-6382Y-115811
X-4032Y-105173
X-3811Y-108072
X-3681Y-110953
X-3724Y-95256
X22264Y-105461
X24988Y-102567
X29685Y-109504
X32551Y-111551
X32551Y-73225
X29685Y-80925
X27161Y-78343
X24988Y-75878
X20439Y-87809
X11567Y-60839
X-2704Y-87673
X-8273Y-75391
X-30972Y-85760
X-39173Y-75555
X-22000Y-50268
X-18886Y-36642
X-76543Y-1055
X-76543Y-8516
X-105047Y-8075
X-90630Y16693
X-85327Y11461
X-82425Y2697
X-40606Y12480
X-21484Y9106
X-5520Y28591
X-3193Y6965
X2847Y12787
X6783Y14681
X10720Y17504
X43484Y17504
X46681Y14681
X56717Y12681
X53921Y47394
X48881Y43546
X-6051Y32602
X-8819Y35335
X-14854Y47394
X-26032Y43546
X-31370Y49429
X-84000Y34512
X-44866Y79579
X-38256Y76992
X-27496Y67173
X-16571Y65331
X50142Y86866
X50142Y116906
T02
X-135335Y-2063
X-135335Y-8063
X-135335Y-20063
R02Y-6000
X-123335Y-62063
X-123335Y-56063
X-129335Y-50063
X-123335Y-50063
X-129335Y-44063
X-123335Y-44063
X-129335Y-38063
X-123335Y-38063
X-129335Y-32063
X-123335Y-32063
X-129335Y-26063
X-123335Y-26063
X-129335Y-20063
X-123335Y-20063
X-123335Y9937
X-129335Y15937
X-123335Y15937
X-129335Y21937
X-123335Y21937
X-129335Y27937
X-123335Y27937
X-123335Y33937
X-129335Y39937
X-123335Y39937
X-129335Y45937
X-123335Y45937
X-129335Y51937
X-123335Y51937
X-123335Y57937
X-123335Y63937
X-111335Y75937
X-117335Y75937
X-111335Y69937
X-117335Y69937
X-111335Y63937
X-117335Y63937
X-111335Y57937
X-117335Y57937
X-111335Y51937
X-117335Y51937
X-111335Y45937
X-117335Y45937
X-111335Y39937
X-117335Y39937
X-117335Y9937
X-111335Y-2063
X-111335Y-14063
X-111335Y-20063
X-117335Y-20063
R02Y-6000
X-111335Y-38063
X-117335Y-38063
X-111335Y-44063
X-117335Y-44063
X-111335Y-50063
X-117335Y-50063
X-111335Y-56063
X-117335Y-56063
X-111335Y-62063
X-117335Y-62063
X-111335Y-68063
X-117335Y-68063
X-111335Y-74063
X-117335Y-74063
X-111335Y-80063
X-111335Y-86063
X-105335Y-86063
R08Y6000
X-105335Y39937
R06Y6000
X-93335Y87937
X-93335Y81937
X-99335Y81937
R02Y-6000
X-93335Y63937
X-99335Y63937
X-93335Y57937
X-99335Y57937
X-93335Y51937
X-99335Y51937
X-93335Y45937
X-99335Y45937
X-93335Y39937
X-99335Y39937
X-93335Y33937
X-93335Y27937
X-93335Y3937
X-93335Y-2063
X-93335Y-32063
X-99335Y-32063
X-93335Y-38063
X-99335Y-38063
X-93335Y-44063
X-99335Y-44063
X-93335Y-50063
X-99335Y-50063
X-93335Y-56063
X-99335Y-56063
X-93335Y-62063
X-99335Y-62063
X-93335Y-68063
X-99335Y-68063
X-93335Y-74063
X-99335Y-74063
X-93335Y-80063
X-99335Y-80063
X-93335Y-86063
X-99335Y-86063
X-87335Y-110063
X-81335Y-110063
X-87335Y-104063
X-81335Y-104063
X-87335Y-98063
X-81335Y-98063
X-87335Y-92063
X-81335Y-92063
X-87335Y-86063
X-81335Y-86063
X-87335Y-80063
X-81335Y-80063
X-87335Y-74063
X-81335Y-74063
X-87335Y-68063
X-81335Y-68063
X-87335Y-62063
X-81335Y-62063
X-87335Y-56063
X-81335Y-56063
X-87335Y-50063
X-81335Y-50063
X-87335Y-44063
X-81335Y-44063
X-87335Y-38063
X-81335Y-38063
X-81335Y-32063
X-81335Y-26063
X-81335Y-14063
X-87335Y39937
X-81335Y39937
X-87335Y45937
X-87335Y51937
X-81335Y51937
X-87335Y57937
X-81335Y57937
X-87335Y63937
X-81335Y63937
X-87335Y81937
R02Y6000
X-81335Y93937
X-81335Y99937
X-81335Y111937
X-75335Y117937
X-75335Y111937
X-72709Y107429
X-72709Y81567
X-75335Y63937
X-75335Y57937
R03Y-6000
X-75335Y27937
X-75335Y-26063
X-75335Y-32063
R14Y-6000
X-69335Y-122063
X-63335Y-122063
X-69335Y-116063
X-63335Y-116063
X-69335Y-110063
X-63335Y-110063
X-69335Y-104063
X-63335Y-104063
X-69335Y-98063
X-63335Y-98063
X-69335Y-92063
X-63335Y-92063
X-69335Y-86063
X-63335Y-86063
X-69335Y-80063
X-63335Y-80063
X-69335Y-74063
X-63335Y-74063
X-69335Y-68063
X-63335Y-68063
X-69335Y-62063
X-63335Y-62063
X-69335Y-56063
X-63335Y-56063
X-69335Y-50063
X-63335Y-50063
X-69335Y-44063
X-63335Y-44063
X-69335Y-38063
X-63335Y-38063
X-69335Y-32063
X-63335Y-32063
X-69335Y-26063
X-63335Y-26063
X-69335Y-14063
X-63335Y-14063
X-69335Y-8063
X-63335Y-8063
X-69335Y3937
X-63335Y3937
X-69335Y15937
X-63335Y15937
X-63335Y21937
X-69335Y33937
X-63335Y39937
R04Y6000
X-63335Y81937
X-63335Y93937
X-63335Y99937
X-69335Y111937
X-63335Y111937
X-69335Y117937
X-63335Y117937
X-63335Y123937
X-51335Y129937
X-51335Y123937
X-57335Y123937
X-51335Y117937
X-57335Y117937
X-57335Y111937
X-57335Y99937
X-57335Y93937
X-58240Y89224
X-51335Y81937
X-57335Y81937
X-55400Y66854
X-57335Y63937
X-57335Y57937
X-51335Y51937
X-57335Y51937
X-51335Y45937
X-57335Y45937
X-57335Y33937
X-57335Y21937
X-57335Y3937
X-57335Y-14063
X-57335Y-26063
X-51335Y-38063
X-57335Y-38063
X-51335Y-62063
X-57335Y-62063
X-51335Y-68063
X-57335Y-68063
X-51335Y-74063
X-57335Y-74063
X-51335Y-86063
X-57335Y-86063
X-57335Y-98063
X-57335Y-116063
X-57335Y-122063
X-45335Y-128063
R02Y6000
X-45335Y-74063
R02Y6000
X-45335Y-44063
R06Y6000
X-45335Y15937
X-45335Y21937
X-45335Y33937
X-45335Y45937
X-45335Y51937
X-45335Y63937
X-45335Y69937
X-45335Y75937
X-45335Y117937
R02Y6000
X-33335Y129937
X-39335Y129937
X-33335Y123937
X-39335Y123937
X-33335Y117937
X-39335Y117937
X-33335Y111937
X-39335Y111937
X-33335Y105937
R02Y-6000
X-30528Y83890
X-33335Y69937
X-33335Y51937
X-33335Y45937
X-33335Y-2063
R13Y-6000
X-33335Y-122063
X-33335Y-128063
X-21335Y-98063
X-21335Y-80063
X-21335Y-74063
R03Y6000
X-21335Y-26063
X-27335Y-14063
X-27335Y-2063
X-21335Y-2063
X-27335Y9937
R02Y6000
X-27335Y33937
X-21335Y33937
X-27335Y63937
X-27335Y93937
X-27335Y99937
X-21335Y99937
X-27335Y105937
X-21335Y105937
X-27335Y111937
R02Y6000
X-21335Y123937
X-27335Y129937
X-21335Y129937
X-27335Y135937
X-21335Y135937
X-15335Y135937
X-15335Y129937
X-15335Y123937
X-15335Y57937
X-15335Y33937
X-15335Y21937
R02Y-6000
X-15335Y-2063
X-15335Y-14063
X-15335Y-20063
X-16957Y-62314
X-15335Y-80063
X-18720Y-132776
X-3335Y-92063
X-3335Y-62063
X-3335Y-56063
X-9335Y-50063
X-3335Y-50063
X-7941Y-45433
X-3335Y-44063
X-7414Y-39051
X-3335Y-38063
X-7387Y-33439
X-3565Y-33056
X-9335Y-20063
X-3335Y-20063
X-9335Y-14063
X-3335Y-14063
X-9335Y-8063
X-3335Y-8063
X-9335Y-2063
X-3335Y-2063
X-9335Y3937
X-3335Y3937
X-9335Y15937
X-3335Y51937
R03Y6000
X-9335Y75937
X-3335Y75937
X-9335Y81937
X-3335Y81937
X-9335Y111937
X-3335Y111937
X-9335Y123937
X-3335Y123937
X-9335Y129937
X8665Y129937
X8665Y123937
X2665Y123937
X8665Y111937
X8665Y105937
X2665Y105937
X8665Y81937
X2665Y81937
X8665Y75937
X2665Y75937
X8665Y69937
X2665Y69937
X8665Y63937
X2665Y63937
X8665Y57937
X2665Y57937
X8665Y51937
X2665Y51937
X8665Y-2063
X2665Y-2063
X8665Y-8063
X2665Y-8063
X8665Y-14063
X2665Y-14063
X8665Y-20063
X2665Y-20063
X1037Y-32647
X8665Y-50063
X8665Y-68063
X2665Y-68063
X8665Y-74063
X2665Y-74063
X8665Y-104063
X14665Y-80063
R02Y6000
X14665Y-50063
X14665Y-38063
X14665Y-20063
R03Y6000
X14665Y21937
R02Y6000
X14665Y51937
R05Y6000
X14665Y105937
X14665Y111937
X14665Y123937
R02Y6000
X26665Y135937
X20665Y135937
X26665Y129937
X20665Y129937
X26665Y123937
X20665Y123937
X26665Y111937
X20665Y111937
X26665Y105937
X20665Y105937
X26665Y87937
X20665Y75937
X26665Y69937
X20665Y69937
X26665Y63937
X20665Y63937
X26665Y57937
X20665Y57937
X26665Y51937
X20665Y51937
X28244Y33890
X20665Y33937
X20665Y27937
X20665Y21937
X26665Y-2063
X20665Y-2063
X26665Y-14063
X20665Y-14063
X26665Y-20063
X20665Y-20063
X26665Y-26063
X20665Y-26063
X26665Y-32063
X20665Y-32063
X26665Y-38063
X20665Y-38063
X26665Y-44063
X26665Y-50063
X26665Y-62063
X26665Y-68063
X20665Y-92063
X20665Y-98063
X36472Y-120061
X39550Y-115713
X38665Y-110063
R06Y6000
X32665Y-68063
X38665Y-68063
X32665Y-62063
X38665Y-62063
X38665Y-56063
X32665Y-50063
X38665Y-50063
X32665Y-44063
X38665Y-44063
X32665Y-38063
X38665Y-38063
X32665Y-32063
X38665Y-32063
X32665Y-26063
X38665Y-26063
X32665Y-20063
X38665Y-20063
X32665Y-14063
X38665Y-14063
X32665Y-8063
X38665Y-8063
X32665Y-2063
X38665Y-2063
X32665Y3937
X38665Y3937
X32665Y9937
X38665Y9937
X32665Y21937
X38665Y21937
R03Y6000
X32665Y51937
R02Y6000
X32665Y81937
X32665Y87937
X38665Y99937
X38665Y105937
X32665Y111937
X38665Y111937
X32665Y123937
X38665Y123937
X32665Y129937
R02X6000
X44665Y123937
X44665Y111937
X44665Y105937
X44665Y99937
X44665Y75937
X44665Y63937
X44665Y57937
X44665Y51937
X44665Y39937
R03Y-6000
X56665Y15937
R05Y6000
X50665Y51937
X56665Y51937
X50665Y57937
X56665Y57937
X50665Y63937
X56665Y63937
X50665Y75937
X56665Y87937
X56665Y99937
R03Y6000
X50665Y123937
X56665Y123937
X50665Y129937
X62665Y123937
X68665Y117937
X62665Y117937
X68665Y111937
X62665Y111937
X68665Y105937
X62665Y105937
X68665Y99937
X62665Y99937
X68665Y93937
X62665Y93937
X68665Y87937
X62665Y87937
X68665Y81937
X62665Y81937
X68665Y69937
X62665Y57937
X68665Y51937
X62665Y51937
X68665Y45937
X62665Y45937
X68665Y39937
X62665Y39937
X68665Y33937
X62665Y33937
X68665Y27937
X62665Y27937
X68665Y21937
X62665Y21937
X68665Y15937
X62665Y15937
X68665Y9937
X62665Y9937
X68665Y3937
X62665Y3937
X68665Y-2063
X62665Y-2063
X68665Y-8063
X62665Y-8063
X68665Y-14063
X62665Y-14063
X68665Y-20063
X62665Y-20063
X68665Y-26063
X62665Y-26063
X68665Y-32063
X62665Y-32063
X68665Y-38063
X62665Y-38063
X68665Y-44063
X62665Y-44063
X68665Y-50063
X62665Y-50063
X68665Y-62063
R08Y-6000
X60424Y-115713
X74665Y-104063
X74665Y-98063
R06Y6000
X74665Y-50063
R16Y6000
X74665Y63937
X74665Y69937
X74665Y81937
R06Y6000
X80665Y111937
X80665Y99937
X86665Y93937
X80665Y93937
X86665Y87937
X80665Y87937
X86665Y81937
X80665Y81937
X86665Y69937
X80665Y69937
X86665Y63937
X80665Y63937
X86665Y57937
X80665Y57937
X86665Y51937
X86665Y39937
X80665Y39937
X86665Y33937
X80665Y33937
X86665Y27937
X80665Y27937
X86665Y21937
X80665Y21937
X86665Y15937
X80665Y15937
X86665Y9937
X80665Y9937
X86665Y3937
X80665Y3937
X86665Y-2063
X80665Y-2063
X86665Y-8063
X80665Y-8063
X86665Y-14063
X80665Y-14063
X86665Y-20063
X80665Y-20063
R05Y-6000
X86665Y-62063
X80665Y-62063
X86665Y-68063
X80665Y-68063
X86665Y-74063
X80665Y-74063
X86665Y-80063
X80665Y-80063
X86665Y-86063
X80665Y-86063
X86665Y-92063
X80665Y-92063
X86665Y-98063
X80665Y-98063
X80665Y-104063
X92665Y-86063
X98665Y-86063
X92665Y-80063
X98665Y-80063
X92665Y-74063
X98665Y-74063
X92665Y-68063
X98665Y-68063
X92665Y-62063
X98665Y-62063
X98665Y-56063
X92665Y-50063
X98665Y-50063
X98665Y-44063
R03Y6000
X92665Y-20063
X98665Y-20063
X92665Y-14063
X98665Y-14063
X92665Y-8063
X98665Y-8063
X92665Y-2063
X98665Y-2063
X92665Y3937
X98665Y3937
X92665Y9937
X98665Y9937
X92665Y21937
X98665Y21937
X92665Y27937
X98665Y27937
X92665Y33937
X98665Y33937
X92665Y39937
X98665Y39937
X98665Y63937
X98665Y69937
X92665Y81937
X98665Y81937
X92665Y87937
X104665Y75937
X104665Y69937
R03Y-6000
X104665Y9937
R16Y-6000
X110665Y-80063
X110665Y-74063
X116665Y-74063
X110665Y-68063
X116665Y-68063
X110665Y-62063
X116665Y-62063
X110665Y-56063
X116665Y-56063
X110665Y-50063
X116665Y-50063
X110665Y-44063
X116665Y-44063
X110665Y-38063
X116665Y-38063
X110665Y-32063
X116665Y-32063
X110665Y-26063
X116665Y-26063
X110665Y-20063
X116665Y-20063
X110665Y-14063
X116665Y-14063
X110665Y-8063
X116665Y-8063
X110665Y-2063
X116665Y-2063
X110665Y3937
X116665Y3937
X110665Y9937
X116665Y9937
X110665Y15937
X116665Y15937
X110665Y21937
X116665Y21937
X110665Y27937
X116665Y27937
X110665Y33937
X116665Y33937
X110665Y39937
X116665Y39937
X110665Y45937
X116665Y45937
X110665Y51937
X116665Y51937
X110665Y57937
X116665Y57937
X110665Y63937
X116665Y63937
X110665Y69937
X116665Y69937
X110665Y75937
X116665Y75937
X110665Y81937
X122665Y63937
X122665Y57937
X128665Y51937
X122665Y51937
X128665Y45937
X122665Y45937
X128665Y39937
X122665Y39937
X128665Y33937
X122665Y33937
X128665Y27937
X122665Y27937
X128665Y21937
X122665Y21937
X128665Y15937
X122665Y15937
X128665Y9937
X122665Y9937
X128665Y3937
X122665Y3937
X128665Y-2063
X122665Y-2063
X128665Y-8063
X122665Y-8063
X128665Y-14063
X122665Y-14063
X128665Y-20063
X122665Y-20063
X128665Y-26063
X122665Y-26063
X128665Y-32063
X122665Y-32063
X128665Y-38063
X122665Y-38063
X128665Y-44063
X122665Y-44063
X128665Y-50063
X122665Y-50063
X122665Y-56063
X122665Y-62063
T03
X94673Y15504
X104673Y15504
T04
X-6776Y116906
X-52799Y38665
X-52799Y28665
R06Y-10000
X-53489Y-81458
R03Y-10000
X-6716Y-124493
R02X-10000
X3284Y-124493
R03X10000
X88181Y-55728
R03Y10000
X23284Y-8745
X33284Y-8745
X94366Y46937
R03Y10000
X3224Y116906
R02X10000
T05
X97449Y-98035
X-99201Y-97500
X-480Y138539
M30
