G04 ================== begin FILE IDENTIFICATION RECORD ==================*
G04 Layout Name:  F:/projects/git/Hardware/ตุดล/PCB/NODE/Node.brd*
G04 Film Name:    TOP*
G04 File Format:  Gerber RS274X*
G04 File Origin:  Cadence Allegro 16.6-2015-S108*
G04 Origin Date:  Sun Jul 28 18:28:47 2019*
G04 *
G04 Layer:  BOARD GEOMETRY/OUTLINE*
G04 Layer:  ETCH/TOP*
G04 Layer:  PIN/TOP*
G04 Layer:  VIA CLASS/TOP*
G04 *
G04 Offset:    (0.000 0.000)*
G04 Mirror:    No*
G04 Mode:      Positive*
G04 Rotation:  0*
G04 FullContactRelief:  No*
G04 UndefLineWidth:     0.000*
G04 ================== end FILE IDENTIFICATION RECORD ====================*
%FSLAX35Y35*MOIN*%
%IR0*IPPOS*OFA0.00000B0.00000*MIA0B0*SFA1.00000B1.00000*%
%ADD21R,.019685X.019685*%
%ADD28R,.019685X.019685*%
%ADD23R,.031488X.037799*%
%ADD22R,.037799X.031488*%
%ADD14R,.094488X.076772*%
%ADD38R,.188976X.188976*%
%ADD15C,.173228*%
%ADD19R,.007874X.017717*%
%ADD18R,.017717X.007874*%
%ADD17C,.02*%
%ADD10C,.03*%
%ADD33R,.011811X.025591*%
%ADD29R,.025591X.011811*%
%ADD37R,.011811X.029528*%
%ADD25C,.059055*%
%ADD36R,.029528X.011811*%
%ADD32R,.033858X.011811*%
%ADD31R,.011811X.033858*%
%ADD34R,.011811X.019685*%
%ADD27R,.047244X.055118*%
%ADD39C,.059059*%
%ADD35R,.019685X.011811*%
%ADD30O,.031496X.059055*%
%ADD24R,.021654X.015748*%
%ADD26R,.070866X.03937*%
%ADD20R,.098425X.098425*%
%ADD16R,.055118X.066929*%
%ADD11R,.066929X.055118*%
%ADD13R,.031496X.037795*%
%ADD12R,.037795X.031496*%
%ADD40C,.005*%
%ADD41C,.01*%
%ADD42C,.011811*%
%ADD43C,.035433*%
%ADD44C,.15751*%
%ADD50R,.041512X.047811*%
%ADD46R,.047811X.041512*%
%ADD49R,.047811X.041504*%
%ADD48C,.06907*%
%ADD45R,.041504X.047811*%
%ADD51C,.069071*%
%ADD47C,.069072*%
%ADD53R,.041504X.047819*%
%ADD52R,.047819X.041504*%
%ADD54C,.069079*%
G75*
%LPD*%
G75*
G36*
G01X29555Y-78924D02*
G02X29156Y-78494I0J400D01*
G03X27350Y-76352I-1995J151D01*
G02X26988Y-75941I38J398D01*
G03X26978Y-75668I-2000J65D01*
G02X27376Y-75226I398J42D01*
G01X32551D01*
G03Y-71224I0J2001D01*
G01X22698D01*
Y-67016D01*
X18958D01*
Y-65835D01*
X17777D01*
Y-62095D01*
X14068D01*
Y-59598D01*
X14204Y-59462D01*
X24870D01*
G03X25030Y-59457I0J2501D01*
G01X25037Y-59457D01*
X29968D01*
G03X30674Y-59355I0J2501D01*
G01X30702Y-59346D01*
X32043D01*
Y-58352D01*
G03Y-55560I-2075J1396D01*
G01Y-54565D01*
X30702D01*
X30674Y-54557D01*
G03X29968Y-54455I-707J-2399D01*
G01X26356D01*
Y-51933D01*
X23385D01*
Y-54461D01*
X21051D01*
G02X20768Y-53778I0J400D01*
G01X21132Y-53414D01*
Y-49553D01*
X21650Y-49035D01*
Y-43294D01*
G03X21225Y-41899I-2501J0D01*
G01Y-40904D01*
X19885D01*
X19857Y-40895D01*
G03X18442I-707J-2399D01*
G01X18415Y-40904D01*
X16926D01*
Y-38904D01*
X10825D01*
Y-37561D01*
X11715D01*
Y-36986D01*
X12164D01*
X12467Y-36683D01*
X12506Y-36667D01*
G03X13680Y-35893I-1300J3250D01*
G01X15375Y-34198D01*
X16414D01*
Y-33159D01*
X16430Y-33143D01*
Y-30713D01*
G03X16415Y-30390I-3501J0D01*
G01X16414Y-30381D01*
Y-27501D01*
X16415Y-27492D01*
G03Y-26847I-3486J322D01*
G01X16414Y-26837D01*
Y-23684D01*
X13261D01*
X13252Y-23684D01*
G03X12607I-322J-3486D01*
G01X12597Y-23684D01*
X11715D01*
Y-23111D01*
X2934D01*
Y-23653D01*
X1674D01*
Y-22125D01*
X-1296D01*
Y-23653D01*
X-2430D01*
Y-22789D01*
X-16880D01*
Y-30741D01*
X-17807D01*
Y-33711D01*
X-16279D01*
Y-35912D01*
X-16289Y-35922D01*
Y-36371D01*
X-16897D01*
X-16931Y-36214D01*
G03X-19842Y-34884I-1955J-428D01*
G02X-20433Y-34533I-191J351D01*
G01Y-26894D01*
X-21323D01*
Y-24732D01*
G03X-20958Y-24717I43J3500D01*
G01X-20948Y-24716D01*
X-17795D01*
Y-21563D01*
X-17794Y-21554D01*
G03X-17779Y-21232I-3486J324D01*
G01Y-18429D01*
G03X-17219Y-16367I-3515J2062D01*
G01Y-13611D01*
G03X-18144Y-11026I-4075J0D01*
G02X-17835Y-10372I309J254D01*
G01X-12133D01*
Y-5433D01*
X-20221D01*
Y-9187D01*
G02X-20681Y-9582I-400J0D01*
G03X-21909I-614J-4029D01*
G02X-22369Y-9187I-60J395D01*
G01Y-5433D01*
X-30457D01*
Y-10372D01*
X-24754D01*
G02X-24445Y-11026I0J-400D01*
G03X-25370Y-13611I3150J-2585D01*
G01Y-16367D01*
G03X-25272Y-17259I4076J0D01*
G02X-25662Y-17746I-390J-87D01*
G01X-28309D01*
Y-20900D01*
X-28309Y-20909D01*
G03X-28324Y-21232I3486J-324D01*
G01Y-23939D01*
X-29857D01*
Y-26909D01*
X-29214D01*
Y-35045D01*
X-27214D01*
Y-36534D01*
X-27222Y-36561D01*
G03X-27324Y-37268I2399J-707D01*
G01Y-40526D01*
X-29842D01*
Y-43496D01*
X-26872D01*
Y-43489D01*
X-26582Y-43779D01*
G03X-25552Y-44400I1768J1769D01*
G02X-25387Y-45065I-118J-382D01*
G01X-30833Y-50511D01*
Y-83560D01*
G02X-31027Y-83760I-200J0D01*
G03X-32973Y-85760I55J-2000D01*
G01Y-117937D01*
G03X-28972I2001J0D01*
G01Y-110272D01*
G02X-28777Y-110072I200J0D01*
G03X-27700Y-109722I-55J2000D01*
G02X-27074Y-110052I226J-330D01*
G01Y-110694D01*
X-23328D01*
Y-112211D01*
X-24265D01*
X-24292Y-112203D01*
G03X-25706I-707J-2399D01*
G01X-25733Y-112211D01*
X-27074D01*
Y-113206D01*
G03X-27500Y-114602I2076J-1396D01*
G01Y-119028D01*
X-26161Y-120366D01*
G02X-26472Y-121048I-283J-283D01*
G03X-23356Y-123695I-244J-3445D01*
G01X-23382Y-123587D01*
X-23161Y-123366D01*
X-22683Y-123845D01*
X-20901D01*
X-20170Y-124576D01*
X-20166Y-124654D01*
G03X-16556Y-121043I3450J161D01*
G01X-16633Y-121039D01*
X-18829Y-118843D01*
X-20611D01*
X-22498Y-116956D01*
Y-116603D01*
X-21596D01*
X-20358Y-115365D01*
G02X-19676Y-115622I283J-283D01*
G01X-16705D01*
Y-115116D01*
X-16395D01*
X-16336Y-115209D01*
G03X-16178Y-115424I1689J1072D01*
G01X-16132Y-115480D01*
Y-115622D01*
X-15989D01*
X-15934Y-115669D01*
G03X-13922Y-116002I1287J1532D01*
G01X-13887Y-115989D01*
X-12524D01*
G02X-12219Y-116648I0J-400D01*
G03X-10693Y-119942I1526J-1293D01*
G01X-8717D01*
Y-121678D01*
G03Y-127308I2001J-2815D01*
G01Y-131723D01*
X-6241Y-134198D01*
G02X-6524Y-134881I-283J-283D01*
G01X-15370D01*
Y-145503D01*
G02X-15811Y-145900I-400J0D01*
G02X-100610Y-107287I15221J145846D01*
G02X-100290Y-106597I273J293D01*
G03X-108310Y-98481I1089J9097D01*
G02X-109004Y-98793I-398J-43D01*
G02X-146137Y17802I108413J98738D01*
G02X-145643Y18141I397J-49D01*
G01X-138607Y16382D01*
G03X-138360Y16551I49J194D01*
G01X-136108Y34267D01*
X-142751Y35899D01*
X-142703Y36094D01*
X-142703Y36095D01*
G02X-114482Y92311I142112J-36150D01*
G02X-113888Y92342I311J-252D01*
G01X-106378Y84832D01*
X-85477Y105733D01*
X-92987Y113243D01*
G02X-92956Y113837I283J283D01*
G02X-6391Y146468I92366J-113891D01*
G02X-6128Y145754I16J-400D01*
G03X-9489Y140210I5648J-7215D01*
G03X-8971Y135096I8898J-1681D01*
G03X5179Y145745I8491J3443D01*
G02X5442Y146459I247J315D01*
G02X91775Y113837I-6034J-146513D01*
G02X91806Y113243I-252J-311D01*
G01X84296Y105733D01*
X105197Y84832D01*
X112707Y92342D01*
G02X113300Y92311I283J-283D01*
G02X138173Y47351I-113890J-92366D01*
G01Y-47460D01*
G02X107239Y-99430I-138764J47404D01*
G02X106548Y-99112I-294J271D01*
G03X98531Y-107134I-9099J1077D01*
G02X98850Y-107825I47J-397D01*
G02X94723Y-111491I-99435J107775D01*
G01X89183Y-105951D01*
X71563Y-118670D01*
G03X71538Y-118974I117J-162D01*
G01X76673Y-124108D01*
G02X76601Y-124731I-283J-283D01*
G02X60310Y-133448I-77190J124677D01*
G02X59861Y-132801I-166J364D01*
G01X62925Y-129737D01*
Y-115713D01*
G03X59311Y-113474I-2501J0D01*
G02X58733Y-113116I-178J358D01*
G01Y12301D01*
X58717Y12317D01*
Y12681D01*
G03X56388Y14655I-2001J0D01*
G02X55922Y15049I-66J395D01*
G01Y47394D01*
G03X51920I-2001J0D01*
G01Y46622D01*
G02X51393Y46243I-400J0D01*
G03X48755Y44346I-637J-1896D01*
G01Y43104D01*
X48739Y43089D01*
Y16417D01*
G02X48063Y16128I-400J0D01*
G03X46018Y16568I-1382J-1447D01*
G02X45485Y16946I-133J377D01*
G01Y17504D01*
G03X41484I-2001J0D01*
G01Y14248D01*
X41484Y14247D01*
Y-113252D01*
G02X40873Y-113591I-400J0D01*
G03X39550Y-113213I-1322J-2122D01*
G01X37552D01*
Y-107890D01*
X37166Y-107504D01*
Y-105150D01*
G03X36741Y-103756I-2501J0D01*
G01Y-102760D01*
X35401D01*
X35373Y-102752D01*
G03X33959I-707J-2399D01*
G01X33931Y-102760D01*
X32590D01*
Y-103756D01*
G03X32165Y-105150I2075J-1395D01*
G01Y-109550D01*
X31694D01*
X31681Y-109364D01*
G03X30442Y-107652I-1996J-140D01*
G01Y-106546D01*
X30474Y-106497D01*
G03X30867Y-105150I-2107J1347D01*
G01Y-99557D01*
X30870Y-99539D01*
G03X30911Y-99091I-2460J448D01*
G01Y-95234D01*
X33478D01*
Y-92264D01*
X30950D01*
Y-89350D01*
X30868Y-89268D01*
Y-87229D01*
G03X30766Y-86522I-2501J0D01*
G01X30758Y-86495D01*
Y-85154D01*
X29763D01*
G03X28367Y-84728I-1396J-2076D01*
G01X23941D01*
X23673Y-84996D01*
X18958D01*
Y-84553D01*
X22698D01*
Y-82926D01*
X29685D01*
G03Y-78924I0J2001D01*
G01X29555D01*
G37*
G36*
G01X-16616Y-108649D02*
G03X-16695Y-108549I-1610J-1188D01*
G01X-16742Y-108493D01*
Y-108351D01*
X-16884D01*
X-16940Y-108304D01*
G03X-18667Y-107884I-1287J-1532D01*
G01X-18689Y-107889D01*
X-21844D01*
X-22241Y-108285D01*
G02X-22924Y-108002I-283J283D01*
G01Y-105913D01*
X-23704D01*
G02X-23984Y-105226I0J400D01*
G03X-23381Y-103795I-1399J1431D01*
G01Y-99811D01*
G02X-22707Y-99520I400J0D01*
G03X-22107Y-99909I1372J1456D01*
G01Y-100899D01*
X-16381D01*
Y-94922D01*
X-15808D01*
Y-100899D01*
X-14945D01*
Y-101466D01*
X-15682D01*
G03X-16969Y-101935I0J-2001D01*
G01X-17025Y-101982D01*
X-17167D01*
Y-102124D01*
X-17214Y-102180D01*
G03X-17371Y-102395I1532J-1287D01*
G01X-17430Y-102488D01*
X-17740D01*
Y-101982D01*
X-20710D01*
Y-104952D01*
X-17740D01*
Y-104446D01*
X-17430D01*
X-17371Y-104539D01*
G03X-17214Y-104754I1689J1073D01*
G01X-17167Y-104810D01*
Y-104952D01*
X-17025D01*
X-16969Y-104999D01*
G03X-15682Y-105468I1287J1532D01*
G01X-12869D01*
X-12641Y-105240D01*
G02X-12300Y-105382I141J-141D01*
G01Y-107144D01*
X-12991Y-107835D01*
X-14684D01*
G03X-15971Y-108304I0J-2001D01*
G01X-16026Y-108351D01*
X-16168D01*
Y-108493D01*
X-16215Y-108549D01*
G03X-16294Y-108649I1532J-1287D01*
G02X-16616I-161J119D01*
G37*
G36*
G01X-23381Y-96316D02*
Y-54478D01*
X-20585Y-51683D01*
G03X-21970Y-48267I-1415J1415D01*
G02X-22247Y-47584I6J400D01*
G01X-21244Y-46582D01*
X-18891D01*
G03X-17271Y-45755I0J2001D01*
G01X-17211Y-45672D01*
X-17110D01*
Y-45495D01*
X-17090Y-45454D01*
G03X-16961Y-45111I-1800J873D01*
G01X-16921Y-44964D01*
X-16568D01*
Y-46161D01*
G02X-17235Y-47131I-2951J1315D01*
G03X-19416Y-51610I5398J-5398D01*
G01X-19437Y-51786D01*
X-19456D01*
Y-52039D01*
X-19456Y-52045D01*
G03X-19471Y-52529I7619J-485D01*
G01Y-55271D01*
G03X-19456Y-55593I3501J1D01*
G01X-19456Y-55603D01*
Y-58756D01*
X-17456D01*
Y-60299D01*
X-15279D01*
Y-65384D01*
X-15917D01*
Y-66144D01*
X-16046Y-66193D01*
G03X-16069Y-69925I711J-1870D01*
G01X-15943Y-69974D01*
Y-73023D01*
X-12972D01*
Y-72517D01*
X-12663D01*
X-12604Y-72610D01*
G03X-12446Y-72825I1690J1072D01*
G01X-12399Y-72881D01*
Y-73023D01*
X-12257D01*
X-12201Y-73070D01*
G03X-12127Y-73129I1289J1530D01*
G02X-12135Y-73771I-242J-318D01*
G03X-12248Y-73859I1177J-1618D01*
G01X-12304Y-73906D01*
X-12446D01*
Y-74048D01*
X-12492Y-74104D01*
G03X-12650Y-74319I1532J-1287D01*
G01X-12709Y-74412D01*
X-13019D01*
Y-73906D01*
X-15989D01*
Y-76876D01*
X-13019D01*
Y-76370D01*
X-12709D01*
X-12650Y-76463D01*
G03X-12492Y-76678I1689J1072D01*
G01X-12446Y-76734D01*
Y-76876D01*
X-12304D01*
X-12248Y-76923D01*
G03X-12113Y-77026I1286J1533D01*
G02X-12106Y-77675I-231J-327D01*
G03X-12203Y-77751I1191J-1608D01*
G01X-12259Y-77798D01*
X-12401D01*
Y-77940D01*
X-12448Y-77996D01*
G03X-12606Y-78211I1531J-1288D01*
G01X-12665Y-78304D01*
X-12974D01*
Y-77798D01*
X-15944D01*
Y-78153D01*
X-16071Y-78203D01*
G03X-13511Y-80886I736J-1861D01*
G01X-13458Y-80768D01*
X-12974D01*
Y-80262D01*
X-12665D01*
X-12606Y-80355D01*
G03X-12448Y-80570I1689J1072D01*
G01X-12401Y-80626D01*
Y-80768D01*
X-12259D01*
X-12203Y-80815D01*
G03X-11017Y-81281I1287J1532D01*
G02X-10828Y-81481I-10J-200D01*
G01Y-85724D01*
X-15808D01*
Y-90180D01*
G02X-16149Y-90321I-200J0D01*
G01X-16381Y-90089D01*
Y-85724D01*
X-17243D01*
Y-84022D01*
X-17254Y-84011D01*
Y-82856D01*
G03X-17722Y-81568I-2001J0D01*
G01X-17769Y-81513D01*
Y-81370D01*
X-17911D01*
X-17967Y-81324D01*
G03X-18182Y-81166I-1287J-1532D01*
G01X-18275Y-81107D01*
Y-80797D01*
X-17769D01*
Y-77827D01*
X-20739D01*
Y-80797D01*
X-20234D01*
Y-81107D01*
X-20326Y-81166D01*
G03X-20541Y-81324I1073J-1689D01*
G01X-20597Y-81370D01*
X-20739D01*
Y-81513D01*
X-20786Y-81568D01*
G03X-21255Y-82856I1532J-1287D01*
G01Y-85724D01*
X-22107D01*
Y-92238D01*
X-19891D01*
X-18426Y-93703D01*
G02X-18709Y-94386I-283J-283D01*
G01X-22107D01*
Y-96217D01*
G03X-22707Y-96607I772J-1846D01*
G02X-23381Y-96316I-274J291D01*
G37*
G36*
G01X-1061Y-65016D02*
X-1104Y-64994D01*
G03X-2704Y-64606I-1601J-3113D01*
G01X-6498D01*
Y-51206D01*
X-10715D01*
G02X-11046Y-50582I0J400D01*
G03X-9685Y-47672I-8474J5735D01*
G01X-9008D01*
Y-36371D01*
X-9278D01*
Y-31570D01*
X-2430D01*
Y-30680D01*
X-871D01*
X-845Y-30654D01*
X2452D01*
X2484Y-30687D01*
X2934D01*
Y-35082D01*
X243D01*
Y-38235D01*
X242Y-38244D01*
G03X228Y-38567I3486J-323D01*
G01Y-41898D01*
X-1312D01*
Y-44868D01*
X-682D01*
Y-59085D01*
X208D01*
Y-59534D01*
X389Y-59715D01*
Y-62095D01*
X240D01*
Y-65016D01*
X-1061D01*
G37*
G36*
G01X5502Y-128999D02*
X5285Y-128782D01*
Y-127308D01*
G03X5946Y-122293I-2001J2815D01*
G02X6255Y-121639I308J255D01*
G01X10313D01*
G02X10621Y-122293I0J-400D01*
G03X12902Y-121061I2662J-2200D01*
G02X12576Y-120380I-44J398D01*
G01X13796Y-119159D01*
Y-114265D01*
X15077D01*
X21283Y-120471D01*
Y-121678D01*
G03X25285I2001J-2815D01*
G01Y-120289D01*
G02X25967Y-120006I400J0D01*
G01X29878Y-123916D01*
X29864Y-124015D01*
G03X32806Y-121073I3420J-478D01*
G01X32707Y-121087D01*
X25855Y-114235D01*
G02X26138Y-113552I283J283D01*
G01X32177D01*
Y-114228D01*
X29649D01*
Y-117198D01*
X32665D01*
G03X34678Y-118214I2012J1485D01*
G01X39550D01*
G03X40873Y-117836I0J2500D01*
G02X41484Y-118176I211J-340D01*
G01Y-124493D01*
G03X44148Y-126381I2001J0D01*
G02X44680Y-126758I133J-377D01*
G01Y-127949D01*
G03X44755Y-128491I2001J0D01*
G02X44370Y-128999I-385J-108D01*
G01X5502D01*
G37*
G36*
G01X12953Y-110435D02*
G03X10923Y-110267I-1157J-1632D01*
G01X10882Y-110287D01*
X10741D01*
X10700Y-110267D01*
G03X8914Y-110287I-873J-1800D01*
G01X2830D01*
Y-110780D01*
X2186D01*
G02X1786Y-110398I0J400D01*
G03X1767Y-110200I-1998J-95D01*
G01X1765Y-110186D01*
Y-107469D01*
G03X1785Y-105683I-1780J913D01*
G01X1765Y-105642D01*
Y-105502D01*
X1785Y-105460D01*
G03Y-103715I-1800J873D01*
G01X1765Y-103673D01*
Y-103533D01*
X1785Y-103492D01*
G03Y-101746I-1800J873D01*
G01X1765Y-101705D01*
Y-101565D01*
X1785Y-101523D01*
G03Y-99778I-1800J873D01*
G01X1765Y-99736D01*
Y-99559D01*
X1682D01*
Y-99328D01*
X1691Y-99298D01*
G03X1750Y-99072I-1904J616D01*
G01X1782Y-98911D01*
X1953D01*
G03X2569Y-98814I0J2001D01*
G01X2599Y-98804D01*
X2830D01*
Y-98887D01*
X3008D01*
X3049Y-98908D01*
G03X4794I873J1800D01*
G01X4836Y-98887D01*
X4976D01*
X5017Y-98908D01*
G03X6763I873J1800D01*
G01X6804Y-98887D01*
X6944D01*
X6986Y-98908D01*
G03X8732I873J1800D01*
G01X8773Y-98887D01*
X8913D01*
X8954Y-98908D01*
G03X10700I873J1800D01*
G01X10741Y-98887D01*
X10882D01*
X10923Y-98908D01*
G03X12668I873J1800D01*
G01X12710Y-98887D01*
X12887D01*
Y-98804D01*
X13118D01*
X13148Y-98814D01*
G03X13998Y-98897I616J1904D01*
G02X14444Y-99295I47J-397D01*
G01Y-99559D01*
X13952D01*
Y-101706D01*
G03X13932Y-103492I1780J-913D01*
G01X13952Y-103533D01*
Y-103673D01*
X13932Y-103715D01*
G03Y-105460I1800J-873D01*
G01X13952Y-105502D01*
Y-105642D01*
X13932Y-105683D01*
G03Y-107429I1800J-873D01*
G01X13952Y-107470D01*
Y-107610D01*
X13932Y-107652D01*
G03Y-109397I1800J-873D01*
G01X13952Y-109439D01*
Y-109616D01*
X14035D01*
Y-109847D01*
X14026Y-109877D01*
G03X13967Y-110103I1904J-616D01*
G01X13935Y-110264D01*
X13764D01*
G03X12953Y-110435I0J-2001D01*
G37*
G36*
G01X-1241Y-94909D02*
X-2309Y-93841D01*
G03X-4545Y-93431I-1415J-1415D01*
G02X-5109Y-93066I-164J365D01*
G01Y-83661D01*
X-5046Y-83598D01*
G02X-4705Y-83739I141J-141D01*
G01Y-87673D01*
G03X-1342Y-89139I2001J0D01*
G02X-670Y-89432I272J-293D01*
G01Y-91935D01*
X1921Y-94526D01*
Y-94909D01*
X-1241D01*
G37*
G36*
G01X17131Y-51756D02*
X16045Y-52842D01*
X9778D01*
X8782Y-53837D01*
G02X8100Y-53554I-283J283D01*
G01Y-46884D01*
X8775D01*
Y-47685D01*
X14103D01*
Y-49502D01*
X17119D01*
G03X17131Y-49518I2005J1495D01*
G01Y-51756D01*
G37*
G36*
G01X16127Y-91899D02*
Y-90393D01*
G02X16549Y-89994I400J0D01*
G03X16685Y-89998I132J2497D01*
G01X19229D01*
G03X21649I1210J2189D01*
G01X25866D01*
Y-91339D01*
X25948Y-91422D01*
Y-92713D01*
X25909Y-92752D01*
Y-98056D01*
X25866Y-98099D01*
Y-100214D01*
G02X25386Y-100606I-400J0D01*
G03X24988Y-100566I-399J-1961D01*
G01X17513D01*
Y-99559D01*
X17415D01*
Y-97591D01*
X16148D01*
G02X15751Y-97144I0J400D01*
G03X15765Y-96910I-1987J235D01*
G01Y-92261D01*
X16127Y-91899D01*
G37*
%LPC*%
G75*
G36*
G01X4847Y12787D02*
G02X846I-2001J0D01*
G01Y13976D01*
G03X163Y14259I-400J0D01*
G01X-13184Y913D01*
X-37722D01*
X-49393Y-10758D01*
X-49379Y-10856D01*
G02X-56219I-3420J-478D01*
G01X-56206Y-10758D01*
X-60128Y-6835D01*
X-74513D01*
G03X-74851Y-7449I0J-400D01*
G02X-74542Y-8516I-1692J-1067D01*
G01Y-10235D01*
X-74153D01*
Y-14387D01*
X-78934D01*
Y-10235D01*
X-78544D01*
Y-8516D01*
G02X-78236Y-7449I2000J0D01*
G03X-78574Y-6835I-338J213D01*
G01X-84884D01*
X-86171Y-5548D01*
X-87992D01*
G02X-88800Y-5378I0J2001D01*
G03X-89361Y-5743I-161J-366D01*
G01Y-7198D01*
X-91416D01*
G03X-91700Y-7880I0J-400D01*
G01X-87007Y-12573D01*
Y-14093D01*
X-84539Y-16561D01*
Y-17909D01*
X-84464D01*
Y-22690D01*
X-88615D01*
Y-18144D01*
X-89679Y-17080D01*
X-90763Y-18163D01*
Y-22690D01*
X-90838D01*
Y-26758D01*
X-90789Y-26806D01*
X-89965D01*
Y-24960D01*
X-83452D01*
Y-32654D01*
X-89965D01*
Y-30808D01*
X-92447D01*
X-94839Y-28415D01*
Y-22690D01*
X-94914D01*
Y-17909D01*
X-94839D01*
Y-16581D01*
X-93076Y-14817D01*
Y-14337D01*
X-97006Y-10406D01*
X-99456Y-12856D01*
Y-13947D01*
X-98189Y-15214D01*
G02X-98132Y-15271I-1386J-1443D01*
G01X-97574Y-15829D01*
Y-16618D01*
G02X-97574Y-16658I-2001J-40D01*
G01Y-17716D01*
X-97499D01*
Y-22497D01*
X-97574D01*
Y-26616D01*
X-101766Y-30808D01*
X-104318D01*
Y-32654D01*
X-110832D01*
Y-24960D01*
X-104318D01*
Y-26806D01*
X-103423D01*
X-101576Y-24959D01*
Y-22497D01*
X-101650D01*
Y-17716D01*
X-101576Y-17536D01*
Y-17486D01*
X-102445Y-16617D01*
X-103798Y-17970D01*
Y-22497D01*
X-107950D01*
Y-17716D01*
X-107875D01*
Y-16388D01*
X-105048Y-13561D01*
Y-10076D01*
G02X-107033Y-8322I1J2001D01*
G03X-107712Y-8089I-397J-50D01*
G01X-112900Y-13276D01*
X-114730D01*
X-117427Y-15973D01*
X-118909D01*
Y-16048D01*
X-123690D01*
Y-11897D01*
X-119010D01*
X-117894Y-10782D01*
X-118927Y-9749D01*
X-123690D01*
Y-9674D01*
X-127482D01*
X-128121Y-10313D01*
Y-11625D01*
X-126275D01*
Y-18139D01*
X-133969D01*
Y-11625D01*
X-132123D01*
Y-8656D01*
X-129140Y-5672D01*
X-123690D01*
Y-5598D01*
X-118909D01*
Y-5672D01*
X-117344D01*
X-115490Y-7527D01*
X-115065D01*
X-109044Y-1506D01*
G03X-109328Y-824I-283J283D01*
G01X-115250D01*
X-117301Y-2875D01*
X-118991D01*
Y-2950D01*
X-123772D01*
Y-2875D01*
X-129211D01*
X-132131Y45D01*
Y2222D01*
G02X-132124Y2390I2001J-1D01*
G01X-132123Y2398D01*
Y2728D01*
X-133969D01*
Y9241D01*
X-126275D01*
Y2728D01*
X-128121D01*
Y1695D01*
X-127553Y1127D01*
X-123772D01*
Y1202D01*
X-118884D01*
X-117991Y2094D01*
X-119246Y3350D01*
X-123772D01*
Y7501D01*
X-118991D01*
Y7426D01*
X-117663D01*
X-114990Y4753D01*
X-112339D01*
G03X-112056Y5435I0J400D01*
G01X-118410Y11789D01*
Y16254D01*
X-120532Y18376D01*
Y19921D01*
X-120607D01*
Y24702D01*
X-116456D01*
Y19959D01*
X-115067Y18570D01*
X-114233Y19404D01*
Y19921D01*
X-114308D01*
Y24702D01*
X-114233D01*
Y27258D01*
X-114498Y27523D01*
X-121233D01*
Y36202D01*
X-110783D01*
Y29466D01*
X-110551Y29235D01*
G03X-110209Y29376I141J142D01*
G01Y36202D01*
X-99759D01*
Y27523D01*
X-104424D01*
Y24800D01*
X-104350D01*
Y20274D01*
X-103163Y19087D01*
X-102202Y20049D01*
Y24800D01*
X-98050D01*
Y20019D01*
X-98125D01*
Y18466D01*
X-100208Y16384D01*
Y16226D01*
X-97067Y13085D01*
X-92045Y18108D01*
G02X-91790Y18323I1414J-1416D01*
G01X-91776Y18333D01*
X-91599Y18510D01*
Y20460D01*
X-91989D01*
Y24611D01*
X-91599D01*
Y31715D01*
X-89990Y33324D01*
G02X-89550Y33657I1415J-1415D01*
G01X-89526Y33670D01*
X-89242Y33954D01*
X-88824D01*
G03X-88426Y34380I0J400D01*
G02X-87961Y35799I1996J132D01*
G01X-87914Y35855D01*
Y35997D01*
X-87772D01*
X-87716Y36044D01*
G02X-86429Y36513I1287J-1532D01*
G01X-84000D01*
G02Y32511I0J-2001D01*
G01X-84034D01*
G03X-84433Y32085I0J-400D01*
G01Y32082D01*
X-84421Y31894D01*
X-79552D01*
X-71382Y40064D01*
Y68964D01*
X-74292D01*
Y71540D01*
X-71382D01*
Y74460D01*
X-72709D01*
G02X-75981Y77732I0J3272D01*
G01Y81567D01*
G02X-69436I3272J0D01*
G01Y81044D01*
X-57165D01*
X-56145Y80024D01*
X-51645D01*
X-48480Y76859D01*
Y59225D01*
X-47417Y58163D01*
X-40606D01*
G02X-39900Y58061I0J-2501D01*
G01X-39872Y58053D01*
X-38531D01*
Y57663D01*
X-38057D01*
X-38041Y57678D01*
X-36713D01*
Y57753D01*
X-31932D01*
Y57678D01*
X-30497D01*
Y58211D01*
X-32187Y59901D01*
X-36713D01*
Y64052D01*
X-31932D01*
Y63977D01*
X-30604D01*
X-26495Y59868D01*
Y56675D01*
X-25215Y55394D01*
X-23560D01*
Y65172D01*
X-27496D01*
G02Y69174I0J2001D01*
G01X-23560D01*
Y71074D01*
X-35531D01*
Y71000D01*
X-40313D01*
Y75150D01*
X-40175D01*
G03X-39856Y75790I0J400D01*
G02X-40257Y76992I1600J1202D01*
G01Y103675D01*
X-42049Y105468D01*
X-42448D01*
Y105393D01*
X-47229D01*
Y109544D01*
X-46878D01*
Y110975D01*
X-46953D01*
Y115756D01*
X-42802D01*
Y110975D01*
X-42838D01*
Y109544D01*
X-42448D01*
Y109469D01*
X-40392D01*
X-36255Y105333D01*
Y76992D01*
G02X-36656Y75790I-2001J0D01*
G03X-36337Y75150I320J-240D01*
G01X-35531D01*
Y75076D01*
X-24892D01*
X-24888Y75080D01*
X-23560D01*
Y93855D01*
X-19172D01*
Y84922D01*
X-17650D01*
Y89661D01*
X-14548Y92764D01*
X-16678Y94894D01*
Y95327D01*
X-16961Y95610D01*
Y111007D01*
X-20359D01*
Y115788D01*
X-16961D01*
Y117196D01*
X-18284D01*
G02X-18990Y117298I0J2501D01*
G01X-19018Y117306D01*
X-20359D01*
Y118301D01*
G02Y121092I2075J1396D01*
G01Y122087D01*
X-19018D01*
X-18990Y122095D01*
G02X-18284Y122197I707J-2399D01*
G01X-14018D01*
G02X-12251Y121465I0J-2501D01*
G01X-10192Y119406D01*
X-9159D01*
X-9102Y119458D01*
G02X-9158Y114405I2326J-2553D01*
G01X-12264D01*
X-12437Y114578D01*
G03X-12779Y114437I-141J-142D01*
G01Y101454D01*
X-5060D01*
Y102582D01*
X-5085Y102607D01*
Y103935D01*
X-5160D01*
Y108716D01*
X-1009D01*
Y103935D01*
X-1058D01*
Y101454D01*
X30373D01*
Y104884D01*
X27947Y107310D01*
X3597D01*
X1224Y109683D01*
Y114091D01*
G02X5225I2001J2815D01*
G01Y111341D01*
X5254Y111312D01*
X29604D01*
X34375Y106541D01*
Y99260D01*
G02X33465Y97583I-2000J0D01*
G01Y97066D01*
X-12495D01*
Y96626D01*
X-10724Y94855D01*
X48894D01*
X48921Y94828D01*
X51038D01*
G02X51284Y94813I-1J-2091D01*
G01X51295Y94811D01*
X53427D01*
Y90661D01*
X51295D01*
X51284Y90659D01*
G02X51038Y90645I-246J2077D01*
G01X47189D01*
X47161Y90672D01*
X45675D01*
Y88867D01*
X50142D01*
G02Y84865I0J-2001D01*
G01X42400D01*
X42392Y84858D01*
X41064D01*
Y82954D01*
X56026D01*
X60041Y78938D01*
X91551D01*
G02Y74936I2815J-2001D01*
G01X90162D01*
G03X89879Y74254I0J-400D01*
G01X93789Y70343D01*
X93888Y70357D01*
G02X90946Y67415I478J-3420D01*
G01X90960Y67514D01*
X86195Y72279D01*
X57034D01*
X52329Y76984D01*
X41064D01*
Y44428D01*
X36676D01*
Y90672D01*
X-10724D01*
X-13468Y87929D01*
Y75126D01*
X-8842Y70500D01*
Y50418D01*
X30000D01*
X34465Y45953D01*
Y37106D01*
X34532Y37039D01*
Y29584D01*
G02X34518Y29339I-2091J1D01*
G01X34516Y29327D01*
Y27195D01*
X30366D01*
Y29327D01*
X30364Y29339D01*
G02X30350Y29584I2077J247D01*
G01Y35307D01*
X30283Y35374D01*
Y36830D01*
X26501D01*
Y9974D01*
X25627Y9100D01*
Y4574D01*
X21476D01*
Y9355D01*
X21550D01*
Y10683D01*
X22499Y11632D01*
Y36830D01*
X12721D01*
Y17504D01*
G02X9440Y15966I-2001J0D01*
G03X8784Y15659I-256J-307D01*
G01Y14681D01*
G02X5503Y13144I-2001J0D01*
G03X4847Y12836I-256J-307D01*
G01Y12787D01*
G37*
G36*
G01X50142Y114905D02*
X26039D01*
G02Y118906I-2815J2001D01*
G01X50142D01*
G02Y114905I0J-2001D01*
G37*
G36*
G01X-46867Y79579D02*
Y86858D01*
X-46942D01*
Y91639D01*
X-46867D01*
Y92692D01*
X-46922D01*
Y97473D01*
X-46847D01*
Y98976D01*
X-47194D01*
Y103126D01*
X-42413D01*
Y98976D01*
X-42803D01*
Y97473D01*
X-42771D01*
Y92692D01*
X-42846D01*
Y91639D01*
X-42791D01*
Y86858D01*
X-42865D01*
Y79579D01*
G02X-46867I-2001J0D01*
G37*
G36*
G01X30956Y20897D02*
X30366D01*
Y25678D01*
X34516D01*
Y22697D01*
X34530Y22662D01*
G02Y21211I-1865J-725D01*
G01X34516Y21176D01*
Y20897D01*
X34374D01*
G02X30956I-1709J1040D01*
G37*
G36*
G01X101391Y16579D02*
X101401Y16609D01*
Y41495D01*
X99231Y43665D01*
X95470D01*
X95440Y43655D01*
G02Y50219I-1074J3282D01*
G01X95470Y50209D01*
X101942D01*
X107946Y44206D01*
Y16609D01*
X107956Y16579D01*
G02X101391I-3282J-1075D01*
G37*
G36*
G01X15176Y4574D02*
Y4964D01*
X12139D01*
Y4574D01*
X7987D01*
Y9355D01*
X12139D01*
Y8965D01*
X15176D01*
Y9355D01*
X19328D01*
Y4574D01*
X15176D01*
G37*
G36*
G01X-3193Y8965D02*
X1688D01*
Y9355D01*
X5839D01*
Y4574D01*
X1688D01*
Y4964D01*
X-3193D01*
G02Y8965I0J2001D01*
G37*
G36*
G01X-47253Y-111850D02*
Y-83459D01*
X-50674D01*
G02Y-79458I-2815J2001D01*
G01X-45032D01*
X-43251Y-81238D01*
Y-111850D01*
G02X-47253I-2001J0D01*
G37*
G36*
G01X-39173Y-136670D02*
X-48615D01*
X-55989Y-129295D01*
Y-113840D01*
G02X-50988I2501J2382D01*
G01Y-127224D01*
X-46543Y-131668D01*
X-41674D01*
Y-75555D01*
G02X-36672I2501J0D01*
G01Y-134169D01*
G02X-39173Y-136670I-2501J0D01*
G37*
G36*
G01X-80386Y68251D02*
X-84097D01*
X-86152Y70306D01*
G03X-86834Y70023I-283J-283D01*
G01Y69074D01*
X-90985D01*
Y73856D01*
X-86524D01*
Y74491D01*
X-88909D01*
G02X-89287Y74513I2J3272D01*
G01X-89299Y74515D01*
X-95264D01*
G02Y81059I0J3272D01*
G01X-87577D01*
X-87554Y81036D01*
X-83658D01*
Y87037D01*
X-78198Y92497D01*
X-53221D01*
Y97473D01*
X-49070D01*
Y92692D01*
X-49111D01*
G03X-49335Y91961I0J-400D01*
G02X-48852Y86934I-1831J-2712D01*
G01X-49834Y85952D01*
X-75487D01*
X-77113Y84326D01*
Y77732D01*
G02X-78802Y74868I-3272J0D01*
G01Y72704D01*
X-81969D01*
Y74460D01*
X-82523D01*
Y72337D01*
X-82439Y72253D01*
X-80386D01*
G02X-78912Y71605I0J-2000D01*
G01X-78852Y71540D01*
X-78802D01*
Y71477D01*
X-78765Y71424D01*
G02Y69080I-1621J-1172D01*
G01X-78802Y69027D01*
Y68964D01*
X-78852D01*
X-78912Y68899D01*
G02X-80386Y68251I-1474J1352D01*
G37*
G36*
G01X-72709Y110702D02*
X-69608D01*
X-69568Y110741D01*
X-53252D01*
Y115756D01*
X-49101D01*
Y110975D01*
X-49178D01*
G03X-49392Y110237I0J-400D01*
G02X-51137Y104196I-1746J-2768D01*
G01X-66857D01*
X-66896Y104157D01*
X-72709D01*
G02Y110702I0J3272D01*
G37*
G54D44*
X-52382Y-51292D03*
G54D50*
X-9384Y106326D03*
G54D46*
X-76543Y-18610D03*
G54D49*
X-44220Y73075D03*
X-51102Y101051D03*
X57335Y92736D03*
G54D48*
X-52799Y-31335D03*
Y-21335D03*
X88181Y-55728D03*
Y-25728D03*
Y-35728D03*
Y-45728D03*
G54D45*
X-95264Y71488D03*
X-40606Y61961D03*
G54D51*
X23284Y-8745D03*
X33284D03*
X94366Y56937D03*
G54D47*
X-53489Y-91458D03*
Y-101458D03*
X13224Y116906D03*
G54D53*
X29968Y-50657D03*
G54D52*
X34666Y-87229D03*
X34709Y-99091D03*
G54D54*
X94673Y15504D03*
%LPD*%
G75*
G36*
G01X-55923Y10666D02*
X-55927Y10670D01*
X-76716D01*
G02X-76999Y11353I0J400D01*
G01X-61687Y26665D01*
X-55614D01*
G03Y30666I2815J2001D01*
G01X-62228D01*
G02X-62511Y31349I0J400D01*
G01X-57195Y36665D01*
X-55614D01*
G03Y40666I2815J2001D01*
G01X-58852D01*
X-82226Y17292D01*
X-87597D01*
Y20460D01*
X-87207D01*
Y24611D01*
X-87597D01*
Y26596D01*
G02X-87091Y26982I400J0D01*
G03X-86429Y26893I663J2411D01*
G01X-77480D01*
X-66381Y37992D01*
Y69082D01*
X-62921D01*
Y73864D01*
X-66381D01*
Y74499D01*
X-59522D01*
G03X-56161Y75022I1251J3024D01*
G01X-53716D01*
X-53481Y74787D01*
Y57153D01*
X-49489Y53161D01*
X-43107D01*
Y12480D01*
G03X-42790Y11261I2501J0D01*
G02X-43139Y10666I-349J-195D01*
G01X-49984D01*
G03X-55556Y10746I-2815J-2001D01*
G01X-55616Y10666D01*
X-55923D01*
G37*
G36*
G01X-49984Y6665D02*
X-48595D01*
G02X-48312Y5982I0J-400D01*
G01X-52222Y2072D01*
X-52321Y2085D01*
G03X-55614Y666I-479J-3420D01*
G01X-57581D01*
X-59301Y-1054D01*
X-74534D01*
X-74551Y-872D01*
G03X-74897Y81I-1992J-183D01*
G02X-74746Y666I329J227D01*
G01Y4859D01*
X-79528D01*
Y4784D01*
X-80183D01*
G02X-80324Y5126I0J200D01*
G01X-78782Y6669D01*
X-57585D01*
X-57581Y6665D01*
X-55614D01*
G03X-49984I2815J2001D01*
G37*
G36*
G01X-34987Y8034D02*
X-29732Y13289D01*
Y43148D01*
X-28991Y43888D01*
G02X-28328Y43728I283J-283D01*
G03X-25010Y42932I1903J618D01*
G01X-24423Y43519D01*
X-21366D01*
G03X-19689Y44428I0J2000D01*
G01X-19172D01*
Y49334D01*
X-16696D01*
G02X-16389Y48677I0J-400D01*
G03X-16855Y47394I1535J-1284D01*
G01Y42561D01*
X-16871Y42545D01*
Y39024D01*
G03X-15961Y37347I2000J0D01*
G01Y36830D01*
X-13024D01*
Y35374D01*
X-13009Y35358D01*
Y31583D01*
X-19853D01*
X-23485Y27951D01*
Y9106D01*
G03X-23136Y7977I2001J0D01*
G02X-23466Y7351I-330J-226D01*
G01X-34704D01*
G02X-34987Y8034I0J400D01*
G37*
G36*
G01X-38601Y10986D02*
G03X-38106Y12480I-2005J1495D01*
G01Y53661D01*
X-36713D01*
Y53602D01*
X-31841D01*
X-29943Y51704D01*
X-30045Y51458D01*
X-30171D01*
X-30199Y51430D01*
X-31370D01*
G03X-31889Y47497I0J-2001D01*
G02X-31710Y46828I-104J-386D01*
G01X-33733Y44805D01*
Y14947D01*
X-38014Y10666D01*
X-38441D01*
G02X-38601Y10986I0J200D01*
G37*
G36*
G01X-4105Y27176D02*
X-3742Y27538D01*
G02X-3060Y27255I283J-283D01*
G01Y19439D01*
X-15148Y7351D01*
X-19502D01*
G02X-19833Y7977I0J400D01*
G03X-19484Y9106I-1652J1130D01*
G01Y26293D01*
X-18195Y27581D01*
X-12993D01*
Y27191D01*
X-8842D01*
Y29323D01*
X-8841Y29335D01*
G03X-8826Y29582I-2077J247D01*
G01Y33334D01*
G03X-8513Y33358I7J2001D01*
G02X-8052Y32962I61J-395D01*
G01Y32602D01*
G03X-6904Y30792I2001J0D01*
G02X-6792Y30148I-170J-362D01*
G01X-6935Y30006D01*
G03X-4105Y27176I1415J-1415D01*
G37*
G36*
G01X-15874Y70987D02*
X-15559Y71302D01*
X-13024Y68768D01*
Y53516D01*
X-19172D01*
Y63204D01*
X-17844D01*
X-17829Y63220D01*
X-15852D01*
X-15156Y63916D01*
G03X-17196Y67231I-1415J1415D01*
G01X-17227Y67221D01*
X-19172D01*
Y70987D01*
X-15874D01*
G37*
%LPC*%
G75*
G36*
G01X-68448Y2143D02*
Y708D01*
X-73229D01*
Y4859D01*
X-71111D01*
G02X-68448Y2143I1776J-922D01*
G37*
G54D49*
X-83299Y22535D03*
G54D48*
X-52799Y18665D03*
G54D45*
X-58272Y71224D03*
X-10917Y23283D03*
%LPD*%
G75*
G54D10*
X-135335Y-32063D03*
Y-26063D03*
Y-20063D03*
Y-8063D03*
Y-2063D03*
X-117335Y-74063D03*
Y-68063D03*
X-123335Y-62063D03*
X-117335D03*
X-123335Y-56063D03*
X-117335D03*
X-129335Y-50063D03*
X-123335D03*
X-117335D03*
X-129335Y-44063D03*
X-123335D03*
X-117335D03*
X-129335Y-38063D03*
X-123335D03*
X-117335D03*
X-129335Y-32063D03*
X-123335D03*
X-117335D03*
X-129335Y-26063D03*
X-123335D03*
X-117335D03*
X-129335Y-20063D03*
X-123335D03*
X-117335D03*
X-123335Y9937D03*
X-117335D03*
X-129335Y15937D03*
X-123335D03*
X-129335Y21937D03*
X-123335D03*
X-129335Y27937D03*
X-123335D03*
Y33937D03*
X-129335Y39937D03*
X-123335D03*
X-117335D03*
X-129335Y45937D03*
X-123335D03*
X-117335D03*
X-129335Y51937D03*
X-123335D03*
X-117335D03*
X-123335Y57937D03*
X-117335D03*
X-123335Y63937D03*
X-117335D03*
Y69937D03*
Y75937D03*
X-111335Y-86063D03*
X-105335D03*
X-111335Y-80063D03*
X-105335D03*
X-111335Y-74063D03*
X-105335D03*
X-111335Y-68063D03*
X-105335D03*
X-111335Y-62063D03*
X-105335D03*
X-111335Y-56063D03*
X-105335D03*
X-111335Y-50063D03*
X-105335D03*
X-111335Y-44063D03*
X-105335D03*
X-111335Y-38063D03*
X-105335D03*
X-111335Y-20063D03*
Y-14063D03*
Y-2063D03*
Y39937D03*
X-105335D03*
X-111335Y45937D03*
X-105335D03*
X-111335Y51937D03*
X-105335D03*
X-111335Y57937D03*
X-105335D03*
X-111335Y63937D03*
X-105335D03*
X-111335Y69937D03*
X-105335D03*
X-111335Y75937D03*
X-105335D03*
X-87335Y-110063D03*
Y-104063D03*
Y-98063D03*
Y-92063D03*
X-99335Y-86063D03*
X-93335D03*
X-87335D03*
X-99335Y-80063D03*
X-93335D03*
X-87335D03*
X-99335Y-74063D03*
X-93335D03*
X-87335D03*
X-99335Y-68063D03*
X-93335D03*
X-87335D03*
X-99335Y-62063D03*
X-93335D03*
X-87335D03*
X-99335Y-56063D03*
X-93335D03*
X-87335D03*
X-99335Y-50063D03*
X-93335D03*
X-87335D03*
X-99335Y-44063D03*
X-93335D03*
X-87335D03*
X-99335Y-38063D03*
X-93335D03*
X-87335D03*
X-99335Y-32063D03*
X-93335D03*
Y-2063D03*
Y3937D03*
Y27937D03*
Y33937D03*
X-99335Y39937D03*
X-93335D03*
X-87335D03*
X-99335Y45937D03*
X-93335D03*
X-87335D03*
X-99335Y51937D03*
X-93335D03*
X-87335D03*
X-99335Y57937D03*
X-93335D03*
X-87335D03*
X-99335Y63937D03*
X-93335D03*
X-87335D03*
X-99335Y69937D03*
Y75937D03*
Y81937D03*
X-93335D03*
X-87335D03*
X-93335Y87937D03*
X-87335D03*
Y93937D03*
X-75335Y-116063D03*
X-81335Y-110063D03*
X-75335D03*
X-81335Y-104063D03*
X-75335D03*
X-81335Y-98063D03*
X-75335D03*
X-81335Y-92063D03*
X-75335D03*
X-81335Y-86063D03*
X-75335D03*
X-81335Y-80063D03*
X-75335D03*
X-81335Y-74063D03*
X-75335D03*
X-81335Y-68063D03*
X-75335D03*
X-81335Y-62063D03*
X-75335D03*
X-81335Y-56063D03*
X-75335D03*
X-81335Y-50063D03*
X-75335D03*
X-81335Y-44063D03*
X-75335D03*
X-81335Y-38063D03*
X-75335D03*
X-81335Y-32063D03*
X-75335D03*
X-81335Y-26063D03*
X-75335D03*
X-81335Y-14063D03*
X-75335Y27937D03*
X-81335Y39937D03*
X-75335D03*
Y45937D03*
X-81335Y51937D03*
X-75335D03*
X-81335Y57937D03*
X-75335D03*
X-81335Y63937D03*
X-75335D03*
X-81335Y93937D03*
X-72709Y81567D03*
X-81335Y99937D03*
Y111937D03*
X-75335D03*
X-72709Y107429D03*
X-75335Y117937D03*
X-69335Y-122063D03*
X-63335D03*
X-57335D03*
X-69335Y-116063D03*
X-63335D03*
X-57335D03*
X-69335Y-110063D03*
X-63335D03*
X-69335Y-104063D03*
X-63335D03*
X-69335Y-98063D03*
X-63335D03*
X-57335D03*
X-69335Y-92063D03*
X-63335D03*
X-57335D03*
X-69335Y-86063D03*
X-63335D03*
X-57335D03*
X-69335Y-80063D03*
X-63335D03*
X-69335Y-74063D03*
X-63335D03*
X-57335D03*
X-69335Y-68063D03*
X-63335D03*
X-57335D03*
X-69335Y-62063D03*
X-63335D03*
X-57335D03*
X-69335Y-56063D03*
X-63335D03*
X-69335Y-50063D03*
X-63335D03*
X-69335Y-44063D03*
X-63335D03*
X-69335Y-38063D03*
X-63335D03*
X-57335D03*
X-69335Y-32063D03*
X-63335D03*
X-69335Y-26063D03*
X-63335D03*
X-57335D03*
X-69335Y-14063D03*
X-63335D03*
X-57335D03*
X-69335Y-8063D03*
X-63335D03*
Y15937D03*
X-69335D03*
X-57335Y3937D03*
X-63335D03*
X-69335D03*
X-57335Y21937D03*
X-63335D03*
X-57335Y45937D03*
X-63335D03*
Y39937D03*
X-57335Y33937D03*
X-69335D03*
X-57335Y63937D03*
X-63335D03*
X-57335Y57937D03*
X-63335D03*
X-57335Y51937D03*
X-63335D03*
X-55400Y66854D03*
X-63335Y81937D03*
X-57335D03*
X-63335Y93937D03*
X-57335D03*
X-58240Y89224D03*
X-63335Y99937D03*
X-57335D03*
X-69335Y111937D03*
X-63335D03*
X-57335D03*
X-69335Y117937D03*
X-63335D03*
X-57335D03*
X-63335Y123937D03*
X-57335D03*
X-45335Y-128063D03*
Y-122063D03*
Y-116063D03*
X-51335Y-92063D03*
Y-86063D03*
Y-74063D03*
X-45335D03*
X-51335Y-68063D03*
X-45335D03*
X-51335Y-62063D03*
X-45335D03*
Y-44063D03*
X-51335Y-38063D03*
X-45335D03*
Y-32063D03*
Y-26063D03*
Y-20063D03*
Y-14063D03*
Y-8063D03*
Y15937D03*
Y21937D03*
Y45937D03*
X-51335D03*
X-45335Y33937D03*
Y51937D03*
X-51335D03*
X-45335Y63937D03*
Y69937D03*
Y75937D03*
X-51335Y81937D03*
X-39335Y111937D03*
X-51335Y117937D03*
X-45335D03*
X-39335D03*
X-51335Y123937D03*
X-45335D03*
X-39335D03*
X-51335Y129937D03*
X-45335D03*
X-39335D03*
X-33335Y-128063D03*
Y-122063D03*
Y-80063D03*
Y-74063D03*
Y-68063D03*
Y-62063D03*
Y-56063D03*
Y-50063D03*
Y-44063D03*
Y-38063D03*
Y-32063D03*
Y-26063D03*
Y-20063D03*
Y-14063D03*
X-27335D03*
X-33335Y-8063D03*
Y-2063D03*
X-27335D03*
Y15937D03*
Y9937D03*
Y21937D03*
X-33335Y45937D03*
X-27335Y33937D03*
X-33335Y51937D03*
X-27335Y63937D03*
X-33335Y69937D03*
X-30528Y83890D03*
X-33335Y93937D03*
X-27335D03*
X-33335Y99937D03*
X-27335D03*
X-33335Y105937D03*
X-27335D03*
X-33335Y111937D03*
X-27335D03*
X-33335Y117937D03*
X-27335D03*
X-33335Y123937D03*
X-27335D03*
X-33335Y129937D03*
X-27335D03*
Y135937D03*
X-18720Y-132776D03*
X-21335Y-98063D03*
X-15335Y-80063D03*
X-21335D03*
X-15335Y-68063D03*
X-21335Y-74063D03*
Y-68063D03*
X-9335Y-50063D03*
X-21335Y-62063D03*
X-15335D03*
X-21335Y-56063D03*
X-7941Y-45433D03*
X-7387Y-33439D03*
X-7414Y-39051D03*
X-21335Y-26063D03*
X-15335Y-20063D03*
X-9335D03*
X-15335Y-14063D03*
X-9335D03*
Y-8063D03*
X-21335Y-2063D03*
X-15335D03*
X-9335D03*
Y15937D03*
X-15335D03*
Y9937D03*
X-9335Y3937D03*
X-15335Y21937D03*
Y33937D03*
X-21335D03*
X-15335Y57937D03*
X-9335Y75937D03*
Y81937D03*
X-21335Y99937D03*
Y105937D03*
X-9335Y111937D03*
X-21335Y123937D03*
X-15335D03*
X-9335D03*
X-21335Y129937D03*
X-15335D03*
X-9335D03*
X-21335Y135937D03*
X-15335D03*
X8665Y-104063D03*
X-3335Y-92063D03*
X8665Y-68063D03*
X2665D03*
X8665Y-74063D03*
X2665D03*
X8665Y-50063D03*
X-3335D03*
Y-56063D03*
Y-62063D03*
X2665Y-32063D03*
X-3335D03*
Y-38063D03*
Y-44063D03*
Y-20063D03*
X2665D03*
X8665D03*
X-3335Y-14063D03*
X2665D03*
X8665D03*
X-3335Y-8063D03*
X2665D03*
X8665D03*
X-3335Y-2063D03*
X2665D03*
X8665D03*
X-3335Y3937D03*
Y51937D03*
X2665D03*
X8665D03*
X-3335Y57937D03*
X2665D03*
X8665D03*
X-3335Y63937D03*
X2665D03*
X8665D03*
X-3335Y69937D03*
X2665D03*
X8665D03*
X-3335Y75937D03*
X2665D03*
X8665D03*
X-3335Y81937D03*
X2665D03*
X8665D03*
X2665Y105937D03*
X8665D03*
X-3335Y111937D03*
X8665D03*
X-3335Y123937D03*
X2665D03*
X8665D03*
Y129937D03*
X20665Y-98063D03*
X14665Y-80063D03*
X20665Y-92063D03*
X14665Y-68063D03*
Y-74063D03*
Y-50063D03*
Y-38063D03*
X20665D03*
Y-32063D03*
Y-26063D03*
X14665Y-20063D03*
X20665D03*
X14665Y-14063D03*
X20665D03*
X14665Y-8063D03*
Y-2063D03*
X20665D03*
X14665Y21937D03*
X20665D03*
X14665Y27937D03*
X20665D03*
X14665Y33937D03*
X20665D03*
X14665Y51937D03*
X20665D03*
X14665Y57937D03*
X20665D03*
X14665Y63937D03*
X20665D03*
X14665Y69937D03*
X20665D03*
X14665Y75937D03*
X20665D03*
X14665Y81937D03*
Y105937D03*
X20665D03*
X14665Y111937D03*
X20665D03*
X14665Y123937D03*
X20665D03*
X14665Y129937D03*
X20665D03*
X14665Y135937D03*
X20665D03*
X36472Y-120061D03*
X38665Y-110063D03*
X39550Y-115713D03*
X38665Y-104063D03*
Y-98063D03*
Y-92063D03*
Y-86063D03*
Y-80063D03*
Y-74063D03*
X26665Y-68063D03*
X32665D03*
X38665D03*
X26665Y-62063D03*
X32665D03*
X38665D03*
Y-56063D03*
X26665Y-50063D03*
X32665D03*
X38665D03*
X26665Y-44063D03*
X32665D03*
X38665D03*
X26665Y-38063D03*
X32665D03*
X38665D03*
X26665Y-32063D03*
X32665D03*
X38665D03*
X26665Y-26063D03*
X32665D03*
X38665D03*
X26665Y-20063D03*
X32665D03*
X38665D03*
X26665Y-14063D03*
X32665D03*
X38665D03*
X32665Y-8063D03*
X38665D03*
X26665Y-2063D03*
X32665D03*
X38665D03*
X32665Y3937D03*
X38665D03*
X32665Y9937D03*
X38665D03*
X32665Y21937D03*
X38665D03*
Y27937D03*
X28244Y33890D03*
X38665Y33937D03*
Y39937D03*
X26665Y51937D03*
X32665D03*
X26665Y57937D03*
X32665D03*
X26665Y63937D03*
X32665D03*
X26665Y69937D03*
X32665Y81937D03*
X26665Y87937D03*
X32665D03*
X38665Y99937D03*
X26665Y105937D03*
X38665D03*
X26665Y111937D03*
X32665D03*
X38665D03*
X26665Y123937D03*
X32665D03*
X38665D03*
X26665Y129937D03*
X32665D03*
X38665D03*
X26665Y135937D03*
X56665Y15937D03*
X44665Y21937D03*
X56665D03*
X44665Y27937D03*
X56665D03*
X44665Y33937D03*
X56665D03*
X44665Y39937D03*
X56665D03*
Y45937D03*
X44665Y51937D03*
X50665D03*
X56665D03*
X44665Y57937D03*
X50665D03*
X56665D03*
X44665Y63937D03*
X50665D03*
X56665D03*
X44665Y75937D03*
X50665D03*
X56665Y87937D03*
X44665Y99937D03*
X56665D03*
X44665Y105937D03*
X56665D03*
X44665Y111937D03*
X56665D03*
Y117937D03*
X44665Y123937D03*
X50665D03*
X56665D03*
X44665Y129937D03*
X50665D03*
X68665Y-110063D03*
X60424Y-115713D03*
X68665Y-104063D03*
Y-98063D03*
Y-92063D03*
Y-86063D03*
Y-80063D03*
Y-74063D03*
Y-68063D03*
Y-62063D03*
X62665Y-50063D03*
X68665D03*
X62665Y-44063D03*
X68665D03*
X62665Y-38063D03*
X68665D03*
X62665Y-32063D03*
X68665D03*
X62665Y-26063D03*
X68665D03*
X62665Y-20063D03*
X68665D03*
X62665Y-14063D03*
X68665D03*
X62665Y-8063D03*
X68665D03*
X62665Y-2063D03*
X68665D03*
X62665Y3937D03*
X68665D03*
X62665Y9937D03*
X68665D03*
X62665Y15937D03*
X68665D03*
X62665Y21937D03*
X68665D03*
X62665Y27937D03*
X68665D03*
X62665Y33937D03*
X68665D03*
X62665Y39937D03*
X68665D03*
X62665Y45937D03*
X68665D03*
X62665Y51937D03*
X68665D03*
X62665Y57937D03*
X68665Y69937D03*
X62665Y81937D03*
X68665D03*
X62665Y87937D03*
X68665D03*
X62665Y93937D03*
X68665D03*
X62665Y99937D03*
X68665D03*
X62665Y105937D03*
X68665D03*
X62665Y111937D03*
X68665D03*
X62665Y117937D03*
X68665D03*
X62665Y123937D03*
X74665Y-104063D03*
X80665D03*
X74665Y-98063D03*
X80665D03*
X86665D03*
X74665Y-92063D03*
X80665D03*
X86665D03*
X74665Y-86063D03*
X80665D03*
X86665D03*
X74665Y-80063D03*
X80665D03*
X86665D03*
X74665Y-74063D03*
X80665D03*
X86665D03*
X74665Y-68063D03*
X80665D03*
X86665D03*
X74665Y-62063D03*
X80665D03*
X86665D03*
X74665Y-50063D03*
X80665D03*
X74665Y-44063D03*
X80665D03*
X74665Y-38063D03*
X80665D03*
X74665Y-32063D03*
X80665D03*
X74665Y-26063D03*
X80665D03*
X74665Y-20063D03*
X80665D03*
X86665D03*
X74665Y-14063D03*
X80665D03*
X86665D03*
X74665Y-8063D03*
X80665D03*
X86665D03*
X74665Y-2063D03*
X80665D03*
X86665D03*
X74665Y3937D03*
X80665D03*
X86665D03*
X74665Y9937D03*
X80665D03*
X86665D03*
X74665Y15937D03*
X80665D03*
X86665D03*
X74665Y21937D03*
X80665D03*
X86665D03*
X74665Y27937D03*
X80665D03*
X86665D03*
X74665Y33937D03*
X80665D03*
X86665D03*
X74665Y39937D03*
X80665D03*
X86665D03*
X74665Y45937D03*
X86665Y51937D03*
X80665Y57937D03*
X86665D03*
X74665Y63937D03*
X80665D03*
X86665D03*
X74665Y69937D03*
X80665D03*
X86665D03*
X74665Y81937D03*
X80665D03*
X86665D03*
X74665Y87937D03*
X80665D03*
X86665D03*
X74665Y93937D03*
X80665D03*
X86665D03*
X74665Y99937D03*
X80665D03*
X74665Y105937D03*
Y111937D03*
X80665D03*
X74665Y117937D03*
X92665Y-86063D03*
X98665D03*
X104665D03*
X92665Y-80063D03*
X98665D03*
X104665D03*
X92665Y-74063D03*
X98665D03*
X104665D03*
X92665Y-68063D03*
X98665D03*
X104665D03*
X92665Y-62063D03*
X98665D03*
X104665D03*
X98665Y-56063D03*
X104665D03*
X92665Y-50063D03*
X98665D03*
X104665D03*
X98665Y-44063D03*
X104665D03*
X98665Y-38063D03*
X104665D03*
X98665Y-32063D03*
X104665D03*
X98665Y-26063D03*
X104665D03*
X92665Y-20063D03*
X98665D03*
X104665D03*
X92665Y-14063D03*
X98665D03*
X104665D03*
X92665Y-8063D03*
X98665D03*
X104665D03*
X92665Y-2063D03*
X98665D03*
X104665D03*
X92665Y3937D03*
X98665D03*
X104665D03*
X92665Y9937D03*
X98665D03*
X104665D03*
X92665Y15937D03*
X98665D03*
X92665Y21937D03*
X98665D03*
X92665Y27937D03*
X98665D03*
X92665Y33937D03*
X98665D03*
X92665Y39937D03*
X98665D03*
X104665Y51937D03*
Y57937D03*
X98665Y63937D03*
X104665D03*
X98665Y69937D03*
X104665D03*
Y75937D03*
X92665Y81937D03*
X98665D03*
X92665Y87937D03*
X110665Y-80063D03*
Y-74063D03*
X116665D03*
X110665Y-68063D03*
X116665D03*
X110665Y-62063D03*
X116665D03*
X110665Y-56063D03*
X116665D03*
X110665Y-50063D03*
X116665D03*
X110665Y-44063D03*
X116665D03*
X110665Y-38063D03*
X116665D03*
X110665Y-32063D03*
X116665D03*
X110665Y-26063D03*
X116665D03*
X110665Y-20063D03*
X116665D03*
X110665Y-14063D03*
X116665D03*
X110665Y-8063D03*
X116665D03*
X110665Y-2063D03*
X116665D03*
X110665Y3937D03*
X116665D03*
X110665Y9937D03*
X116665D03*
X110665Y15937D03*
X116665D03*
X110665Y21937D03*
X116665D03*
X110665Y27937D03*
X116665D03*
X110665Y33937D03*
X116665D03*
X110665Y39937D03*
X116665D03*
X110665Y45937D03*
X116665D03*
X110665Y51937D03*
X116665D03*
X110665Y57937D03*
X116665D03*
X110665Y63937D03*
X116665D03*
X110665Y69937D03*
X116665D03*
X110665Y75937D03*
X116665D03*
X110665Y81937D03*
X122665Y-62063D03*
Y-56063D03*
Y-50063D03*
X128665D03*
X122665Y-44063D03*
X128665D03*
X122665Y-38063D03*
X128665D03*
X122665Y-32063D03*
X128665D03*
X122665Y-26063D03*
X128665D03*
X122665Y-20063D03*
X128665D03*
X122665Y-14063D03*
X128665D03*
X122665Y-8063D03*
X128665D03*
X122665Y-2063D03*
X128665D03*
X122665Y3937D03*
X128665D03*
X122665Y9937D03*
X128665D03*
X122665Y15937D03*
X128665D03*
X122665Y21937D03*
X128665D03*
X122665Y27937D03*
X128665D03*
X122665Y33937D03*
X128665D03*
X122665Y39937D03*
X128665D03*
X122665Y45937D03*
X128665D03*
X122665Y51937D03*
X128665D03*
X122665Y57937D03*
Y63937D03*
G54D11*
X-130122Y-14882D03*
Y5984D03*
G54D20*
X-94980Y1177D03*
G54D12*
X-121382Y-874D03*
X-121299Y-7673D03*
Y-13972D03*
X-121382Y5425D03*
X-76543Y-18610D03*
Y-12311D03*
X-24824Y-30969D03*
Y-37268D03*
X-34323Y61976D03*
Y55677D03*
X-10889Y-55282D03*
Y-61581D03*
X3709Y-48710D03*
Y-55009D03*
X7324Y-33485D03*
Y-27186D03*
G54D30*
X-21295Y-14989D03*
G54D21*
X-86429Y29394D03*
Y31953D03*
Y34512D03*
X-24814Y-42011D03*
X-28357D03*
X-24824Y-21232D03*
X-24829Y-25424D03*
X-28372D03*
X-14647Y-114137D03*
X-18190D03*
X-19225Y-103467D03*
X-15682D03*
X-18227Y-109836D03*
X-14684D03*
X-14459Y-79283D03*
X-10916D03*
X-10914Y-71538D03*
X-14457D03*
X-10961Y-75391D03*
X-14504D03*
X-14432Y-66869D03*
X-10889D03*
X-12778Y-32226D03*
X-16322D03*
X-21280Y-21232D03*
X7272Y-38567D03*
X3728D03*
X173Y-43384D03*
X3716D03*
X19132Y-48017D03*
X15588D03*
X34678Y-115713D03*
X31134D03*
X28449Y-93749D03*
X31992D03*
G54D40*
G01X-88909Y68874D02*
Y71465D01*
G01D02*
Y74056D01*
G01X-91185Y71465D02*
X-88909D01*
G01X-95264Y68897D02*
Y71488D01*
G01D02*
Y74079D01*
G01X-97539Y71488D02*
X-95264D01*
G01D02*
X-92989D01*
G01X-76543Y-20886D02*
Y-18610D01*
G01D02*
Y-16335D01*
G01X-79134Y-18610D02*
X-76543D01*
G01D02*
X-73953D01*
G01X-73429Y2784D02*
X-70839D01*
G01X-83299Y20260D02*
Y22535D01*
G01D02*
Y24811D01*
G01X-85890Y22535D02*
X-83299D01*
G01D02*
X-80708D01*
G01X-80386Y72504D02*
Y73992D01*
G01X-82169D02*
X-80386D01*
G01D02*
X-78602D01*
G01X-57142Y-91458D02*
X-53489D01*
G01X-56453Y-31335D02*
X-52799D01*
G01X-70839Y508D02*
Y2784D01*
G01X-58272Y71224D02*
Y69492D01*
X-55633Y66854D01*
G01D02*
X-55400D01*
G01X-58272Y71224D02*
Y73815D01*
G01X-60547Y71224D02*
X-58272D01*
G01D02*
X-55997D01*
G01X-64996Y68882D02*
Y71473D01*
G01D02*
Y74064D01*
G01Y71473D02*
X-62721Y71473D01*
G01X-53489Y-95112D02*
Y-91458D01*
G01D02*
Y-87805D01*
G01Y-91458D02*
X-49835D01*
G01X-52799Y-34988D02*
Y-31335D01*
G01D02*
Y-27681D01*
G01Y-31335D02*
X-49146D01*
G01X-40606Y59370D02*
Y61961D01*
G01D02*
Y64552D01*
G01X-42882Y61961D02*
X-40606D01*
G01D02*
X-38331D01*
G01X-44220Y70800D02*
Y73075D01*
G01D02*
Y75350D01*
G01X-46811Y73075D02*
X-44220D01*
G01D02*
X-41630D01*
G01X-51146Y95083D02*
Y97673D01*
G01X-53421Y95083D02*
X-51146D01*
G01D02*
X-48870D01*
G01X-51102Y98776D02*
Y101051D01*
G01D02*
Y103326D01*
G01X-53693Y101051D02*
X-51102D01*
G01D02*
X-48511D01*
G01X-51176Y113365D02*
Y115956D01*
G01X-53452Y113365D02*
X-51176D01*
G01D02*
X-48901D01*
G01X-26716Y-128146D02*
Y-124493D01*
G01D02*
Y-120839D01*
G01X-30370Y-124493D02*
X-26716D01*
G01D02*
X-23063D01*
G01X-24999Y-110894D02*
Y-108303D01*
G01D02*
X-22724D01*
G01X-28357Y-43696D02*
Y-42011D01*
G01D02*
Y-40326D01*
G01X-30042Y-42011D02*
X-28357D01*
G01X-28372Y-25424D02*
Y-23739D01*
G01X-30057Y-25424D02*
X-28372D01*
G01X-26413Y-10572D02*
Y-7902D01*
G01D02*
Y-5233D01*
G01X-30657Y-7902D02*
X-26413D01*
G01D02*
X-22169D01*
G01X-23760Y57331D02*
X-21366D01*
G01X-17516Y-117369D02*
X-16430D01*
X-13024Y-120776D01*
Y-123516D01*
X-11626Y-124913D01*
X-11656Y-124943D01*
Y-125651D01*
X-11626Y-125681D01*
X-18720Y-132776D01*
G01X-18190Y-114137D02*
Y-116869D01*
G01X-17516Y-117543D02*
Y-117369D01*
G01X-18190Y-116869D02*
X-18016D01*
X-17516Y-117369D01*
G01X-19225Y-105152D02*
Y-103467D01*
G01D02*
Y-101782D01*
G01X-20910Y-103467D02*
X-19225D01*
G01X-19244Y-101099D02*
Y-97642D01*
G01D02*
Y-94186D01*
G01Y-97642D02*
X-16181D01*
G01X-12944Y-88981D02*
Y-85524D01*
G01X-16008Y-88981D02*
X-12944D01*
G01X-14504Y-77076D02*
Y-75391D01*
G01D02*
Y-73706D01*
G01X-16189Y-75391D02*
X-14504D01*
G01X-14457Y-73223D02*
Y-71538D01*
G01X-16143D02*
X-14457D01*
G01X-19254Y-79312D02*
Y-77627D01*
G01X-20939Y-79312D02*
X-19254D01*
G01D02*
X-17569D01*
G01X-15971Y-60499D02*
Y-58814D01*
G01X-17656D02*
X-15971D01*
G01X-16322Y-33911D02*
Y-32226D01*
G01X-18007D02*
X-16322D01*
G01X-16177Y-10572D02*
Y-7902D01*
G01D02*
Y-5233D01*
G01X-20421Y-7902D02*
X-16177D01*
G01D02*
X-11933D01*
G01X-10917Y20693D02*
Y23284D01*
G01D02*
Y25874D01*
G01X-13193Y23284D02*
X-10917D01*
G01D02*
X-8642D01*
G01X-21366Y57331D02*
X-18972D01*
G01X-9384Y103735D02*
Y106326D01*
G01D02*
Y108916D01*
G01X-11659Y106326D02*
X-9384D01*
G01D02*
X-7108D01*
G01X-18284Y110807D02*
Y113398D01*
G01D02*
Y115989D01*
G01X-20559Y113398D02*
X-18284D01*
G01X8665Y-104063D02*
X4204Y-108524D01*
G01D02*
X-15D01*
G01X6449Y-64072D02*
Y-67097D01*
X6415Y-67131D01*
Y-73191D01*
X9008Y-75784D01*
G01X173Y-43384D02*
Y-41698D01*
G01X-1512Y-43384D02*
X173D01*
G01X189Y-23610D02*
Y-21925D01*
G01X-1496Y-23610D02*
X189D01*
G01D02*
X1874D01*
G01X20721Y-84753D02*
Y-83461D01*
X20721Y-83462D01*
G01D02*
X20721Y-83461D01*
X22898D01*
G01X9008Y-75784D02*
X9008Y-73682D01*
X12415Y-70276D01*
Y-67131D01*
X14126Y-65420D01*
Y-64072D01*
G01X20721Y-68107D02*
X20721Y-66816D01*
G01X20721Y-68107D02*
X22898D01*
G01X16685Y-64072D02*
Y-61895D01*
G01Y-64072D02*
X17977D01*
G01X23185Y-53418D02*
X24870D01*
G01X15588Y-49702D02*
Y-48017D01*
G01X13903D02*
X15588D01*
G01X23284Y-12398D02*
Y-8745D01*
G01D02*
Y-5091D01*
G01X19630Y-8745D02*
X23284D01*
G01D02*
X26937D01*
G01X13224Y113252D02*
Y116906D01*
G01D02*
Y120559D01*
G01X9571Y116906D02*
X13224D01*
G01D02*
X16878D01*
G01X31134Y-117398D02*
Y-115713D01*
G01D02*
Y-114028D01*
G01X29449Y-115713D02*
X31134D01*
G01X31992Y-95434D02*
Y-93749D01*
G01X34709Y-101366D02*
Y-99091D01*
G01D02*
Y-96816D01*
G01X32118Y-99091D02*
X34709D01*
G01D02*
X37300D01*
G01X31992Y-93749D02*
Y-92064D01*
G01Y-93749D02*
X33678D01*
G01X34666Y-89504D02*
Y-87229D01*
G01D02*
Y-84954D01*
G01X32075Y-87229D02*
X34666D01*
G01D02*
X37257D01*
G01X29968Y-53248D02*
Y-50657D01*
G01D02*
Y-48066D01*
G01X27693Y-50657D02*
X29968D01*
G01D02*
X32243D01*
G01X24870Y-53418D02*
Y-51733D01*
G01Y-53418D02*
X26556D01*
G01X33284Y-12398D02*
Y-8745D01*
G01D02*
Y-5091D01*
G01X29630Y-8745D02*
X33284D01*
G01D02*
X36937D01*
G01X32441Y23287D02*
Y25878D01*
G01X30166Y23287D02*
X32441D01*
G01D02*
X34716D01*
G01X54744Y92736D02*
X57335D01*
G01Y90461D02*
Y92736D01*
G01D02*
Y95011D01*
G01Y92736D02*
X59926D01*
G01X84528Y-35728D02*
X88181D01*
G01Y-39382D02*
Y-35728D01*
G01D02*
Y-32075D01*
G01Y-35728D02*
X91835D01*
G01X94673Y11850D02*
Y15504D01*
G01D02*
Y19158D01*
G01X91019Y15504D02*
X94673D01*
G01D02*
X98327D01*
G01X94366Y53284D02*
Y56937D01*
G01D02*
Y60591D01*
G01X90713Y56937D02*
X94366D01*
G01D02*
X98020D01*
G54D13*
X-118532Y22311D03*
X-105874Y-20106D03*
X-106425Y22409D03*
X-112232Y22311D03*
X-99575Y-20106D03*
X-92839Y-20299D03*
X-86539D03*
X-100126Y22409D03*
X-51165Y89248D03*
X-44866D03*
X-44846Y95083D03*
X-51146D03*
X-44877Y113365D03*
X-51176D03*
X-12804Y-27179D03*
X-6505D03*
X-9384Y106326D03*
X10063Y6965D03*
X3764D03*
X-3084Y106326D03*
X19150Y-43294D03*
X12850D03*
X17252Y6965D03*
X23551D03*
X28366Y-105150D03*
X34666D03*
G54D31*
X-6996Y39024D03*
X-8964D03*
X-10933D03*
X-12901D03*
X-14870D03*
Y99260D03*
X-12901D03*
X-10933D03*
X-8964D03*
X-6996D03*
X8752Y39024D03*
X6783D03*
X4815D03*
X2846D03*
X878D03*
X-1090D03*
X-3059D03*
X-5028D03*
Y99260D03*
X-3059D03*
X-1090D03*
X878D03*
X2846D03*
X4815D03*
X6783D03*
X8752D03*
X24500Y39024D03*
X22532D03*
X20563D03*
X18594D03*
X16626D03*
X14657D03*
X12689D03*
X10720D03*
Y99260D03*
X12689D03*
X14657D03*
X16626D03*
X18594D03*
X20563D03*
X22532D03*
X24500D03*
X32374Y39024D03*
X30406D03*
X28437D03*
X26468D03*
Y99260D03*
X28437D03*
X30406D03*
X32374D03*
G54D22*
X-89598Y22535D03*
X-70839Y2784D03*
X-77137D03*
X-83299Y22535D03*
X-44220Y73075D03*
X-37922D03*
X-51102Y101051D03*
X-44804D03*
X-44839Y107468D03*
X-51137D03*
X34709Y-99091D03*
X28410D03*
X34666Y-87229D03*
X28367D03*
X57335Y92736D03*
X51036D03*
G54D41*
G01X-130122Y5984D02*
Y2228D01*
X-130130Y2220D01*
Y874D01*
X-128382Y-874D01*
X-121382D01*
G01X-101968Y1177D02*
X-116079D01*
X-118130Y-874D01*
X-121382D01*
G01X-121299Y-13972D02*
X-118256D01*
X-115559Y-11276D01*
X-113728D01*
X-104425Y-1972D01*
X-101968D01*
G01Y-398D02*
X-105106D01*
X-114236Y-9528D01*
X-116319D01*
X-118173Y-7673D01*
X-121299D01*
G01X-130122Y-14882D02*
Y-9484D01*
X-128311Y-7673D01*
X-121299D01*
G01X-101968Y2752D02*
X-115819D01*
X-118492Y5425D01*
X-121382D01*
G01X-101968Y4327D02*
X-108118D01*
X-116409Y12618D01*
Y17083D01*
X-118532Y19205D01*
Y22311D01*
G01X-107575Y-28807D02*
X-102594D01*
X-99575Y-25787D01*
Y-20106D01*
G01X-99705Y-5811D02*
Y-7697D01*
X-103047Y-11039D01*
Y-14390D01*
X-105874Y-17216D01*
Y-20106D01*
G01X-101968Y-3547D02*
Y-4996D01*
X-105047Y-8075D01*
G01X-98130Y8165D02*
Y11319D01*
X-102209Y15398D01*
Y17213D01*
X-100126Y19295D01*
Y22409D01*
G01X-99705Y8165D02*
Y10354D01*
X-104716Y15366D01*
Y17811D01*
X-106425Y19520D01*
Y22409D01*
G01X-101968Y5902D02*
X-106689D01*
X-113811Y13024D01*
Y16996D01*
X-112232Y18575D01*
Y22311D01*
G01X-106425Y22409D02*
Y30421D01*
X-104984Y31862D01*
G01X-112232Y22311D02*
Y28087D01*
X-116008Y31862D01*
G01X-98130Y-5811D02*
Y-8700D01*
X-101457Y-12027D01*
Y-14776D01*
X-99575Y-16658D01*
Y-20106D01*
G01X-86539Y-20299D02*
Y-17390D01*
X-89008Y-14921D01*
Y-13402D01*
X-94980Y-7429D01*
Y-5811D01*
G01X-96555D02*
Y-8028D01*
X-91075Y-13508D01*
Y-15646D01*
X-92839Y-17409D01*
Y-20299D01*
G01X-86709Y-28807D02*
X-91618D01*
X-92839Y-27587D01*
Y-20299D01*
G01X-93406Y-398D02*
X-91831Y-1972D01*
Y-5811D01*
G01X-94980Y1177D02*
X-93406Y-398D01*
G01D02*
Y-5811D01*
G01X-52799Y-11335D02*
X-59299Y-4835D01*
X-84055D01*
X-85342Y-3547D01*
X-87992D01*
G01Y-1972D02*
X-84311D01*
X-83228Y-3055D01*
X-58472D01*
X-56752Y-1335D01*
X-52799D01*
G01X-96555Y8165D02*
Y2752D01*
X-94980Y1177D01*
G01X-91831Y8165D02*
Y4327D01*
X-94980Y1177D01*
G01X-76543Y-1055D02*
X-81988D01*
X-84221Y1177D01*
X-87992D01*
G01X-52799Y8665D02*
X-56752D01*
X-56756Y8669D01*
X-79610D01*
X-83953Y4327D01*
X-87992D01*
G01X-52799Y28665D02*
X-62516D01*
X-85280Y5902D01*
X-87992D01*
G01X-90256Y8165D02*
Y8658D01*
X-87453Y11461D01*
X-85327D01*
G01X-93406Y8165D02*
Y10051D01*
X-88165Y15291D01*
X-81398D01*
X-58024Y38665D01*
X-52799D01*
G01X-87992Y2752D02*
X-84480D01*
G01X-94980Y12299D02*
Y12342D01*
X-90630Y16693D01*
G01X-94980Y12299D02*
X-89598Y17682D01*
Y22535D01*
G01X-94980Y8165D02*
Y12299D01*
G01X-86429Y31953D02*
X-88413D01*
X-88457Y31909D01*
X-88575D01*
X-89598Y30886D01*
Y22535D01*
G01X-76543Y-12311D02*
Y-8516D01*
G01X-84480Y2752D02*
X-84425Y2697D01*
X-82425D01*
G01X-84480Y2752D02*
X-80059D01*
X-80028Y2784D01*
X-77137D01*
G01X-86429Y34512D02*
X-84000Y34512D01*
G01X-83740Y77732D02*
X-84524Y76949D01*
Y71508D01*
X-83268Y70252D01*
X-80386D01*
G01X-45252Y-111850D02*
Y-82067D01*
X-45861Y-81458D01*
X-53489D01*
G01X878Y39024D02*
Y17804D01*
X-14012Y2913D01*
X-38551D01*
X-52799Y-11335D01*
G01X-1090Y39024D02*
X-1091D01*
Y36331D01*
X-1059Y36299D01*
Y18610D01*
X-14319Y5350D01*
X-46114D01*
X-52799Y-1335D01*
G01X-21366Y47488D02*
X-28220D01*
X-31732Y43976D01*
Y14118D01*
X-37185Y8665D01*
X-52799D01*
G01X-40606Y55662D02*
X-37228D01*
X-37213Y55677D01*
X-34323D01*
G01X-44866Y89248D02*
Y79579D01*
G01X-44804Y101051D02*
X-44804Y98015D01*
X-44846Y97972D01*
Y95083D01*
G01X-44866Y89248D02*
Y92173D01*
X-44846Y92193D01*
Y95083D01*
G01X-38256Y76992D02*
Y104504D01*
X-41220Y107468D01*
X-44839D01*
G01X-44877Y113365D02*
Y110082D01*
X-44839Y110043D01*
Y107468D01*
G01X-21327Y-110201D02*
Y-113504D01*
X-22424Y-114602D01*
X-24999D01*
G01X-30972Y-117937D02*
Y-85760D01*
G01X-25382Y-103795D02*
Y-53650D01*
X-22000Y-50268D01*
G01X-18891Y-44581D02*
X-22073D01*
X-28832Y-51340D01*
Y-108072D01*
G01X-21366Y45520D02*
X-25252D01*
X-26425Y44346D01*
G01X-34323Y61976D02*
X-31433D01*
X-28496Y59039D01*
Y55846D01*
X-26043Y53394D01*
X-21366D01*
G01Y49457D02*
X-29342D01*
X-29370Y49429D01*
X-31370D01*
G01X-21366Y51425D02*
X-26835D01*
X-31087Y55677D01*
X-34323D01*
G01X-21366Y75047D02*
X-24185D01*
X-30528Y81390D01*
G01X-27496Y67173D02*
X-21366D01*
G01X-37922Y73075D02*
X-24063D01*
X-24059Y73079D01*
X-21366D01*
G01X-30528Y81390D02*
Y83890D01*
G01X-8382Y-112913D02*
Y-104043D01*
X-4989Y-100650D01*
X-15D01*
G01X-14684Y-109836D02*
Y-112116D01*
X-14647Y-112153D01*
Y-114137D01*
G01X-12000Y-113988D02*
X-14497D01*
X-14647Y-114137D01*
G01X-10693Y-117941D02*
X6234D01*
X9827Y-114347D01*
Y-112068D01*
G01X-21327Y-110201D02*
X-21016Y-109890D01*
X-18281D01*
X-18227Y-109836D01*
G01X-14684D02*
X-12162D01*
X-10299Y-107973D01*
Y-103748D01*
X-5233Y-98682D01*
X-212D01*
G01X-12944Y-97642D02*
X-9582D01*
X-7110Y-95170D01*
Y-82832D01*
X-5181Y-80902D01*
X-2704D01*
G01X-12944Y-97642D02*
Y-102714D01*
X-13698Y-103467D01*
X-15682D01*
G01X-10916Y-79283D02*
X-8680D01*
X-5181Y-75784D01*
X-2704D01*
G01Y-78343D02*
X-5181D01*
X-8827Y-81989D01*
Y-91673D01*
X-10075Y-92921D01*
X-16378D01*
X-19244Y-90056D01*
Y-88981D01*
G01D02*
Y-84850D01*
X-19254Y-84840D01*
Y-82856D01*
G01X-10961Y-75391D02*
X-8273D01*
G01X-2704Y-73225D02*
X-6107D01*
X-8273Y-75391D01*
G01X-10914Y-71538D02*
X-8930D01*
X-8920Y-71528D01*
X-7110D01*
X-6249Y-70666D01*
X-2704D01*
G01X-12788Y-42022D02*
X-10385Y-42022D01*
X-7414Y-39051D01*
G01X-18886Y-36642D02*
Y-39458D01*
X-18891Y-39463D01*
G01X-10917Y29582D02*
X-19024D01*
X-21484Y27122D01*
Y9106D01*
G01X-12901Y39024D02*
X-12902D01*
Y36370D01*
X-15335Y33937D01*
G01X-8819Y35335D02*
X-8965Y35480D01*
Y39024D01*
X-8964D01*
G01X-14854Y47394D02*
Y41732D01*
X-14870Y41716D01*
Y39024D01*
G01X-15335Y57937D02*
X-17909Y55362D01*
G01D02*
X-21366D01*
G01X-16571Y65331D02*
X-16681Y65220D01*
X-18658D01*
X-18673Y65205D01*
X-21366D01*
G01Y82921D02*
X-15559Y82921D01*
G01X-12901Y99260D02*
X-12902D01*
Y103246D01*
X-11958Y104189D01*
G01D02*
X-11520D01*
G01D02*
X-9384Y106326D01*
G01X56716Y12681D02*
Y11488D01*
X56732Y11472D01*
Y-127445D01*
X51043Y-133134D01*
X-4476D01*
X-6716Y-130894D01*
Y-124493D01*
G01X53921Y47394D02*
Y-127358D01*
X50280Y-131000D01*
X4673D01*
X3284Y-129611D01*
Y-124493D01*
G01X-212Y-110493D02*
X-3221D01*
X-3681Y-110953D01*
G01X11796Y-112068D02*
Y-118330D01*
X10488Y-119638D01*
X-5618D01*
X-6716Y-120736D01*
Y-124493D01*
G01X-6382Y-115811D02*
Y-111488D01*
X-6362Y-111468D01*
Y-104146D01*
X-4835Y-102619D01*
X-15D01*
G01Y-104587D02*
X-3446D01*
X-4031Y-105173D01*
G01X-15Y-106556D02*
X-2295D01*
X-3811Y-108072D01*
G01X3922Y-97107D02*
Y-93697D01*
X1331Y-91107D01*
Y-87497D01*
G01X5890Y-97107D02*
Y-93437D01*
X3890Y-91437D01*
Y-87497D01*
G01X6449D02*
Y-91615D01*
X7859Y-93024D01*
Y-97107D01*
G01X1953Y-96910D02*
X-2070D01*
X-3724Y-95256D01*
G01X9827Y-97107D02*
Y-92610D01*
X9012Y-91795D01*
Y-89977D01*
X9008Y-89973D01*
Y-87497D01*
G01X-2704Y-83462D02*
X-2704Y-83461D01*
Y-87673D01*
G01X19132Y-48017D02*
Y-52585D01*
X16874Y-54842D01*
X10606D01*
X9008Y-56441D01*
Y-64072D01*
G01X6783Y39024D02*
Y14681D01*
G01X3764Y6965D02*
X-3193D01*
G01X2846Y39024D02*
Y12787D01*
G01X-3059Y39024D02*
X-3059Y31051D01*
X-5520Y28591D01*
G01X-6051Y32602D02*
Y34602D01*
X-5028Y35626D01*
Y39024D01*
G01X-3059Y99260D02*
X-3059Y103411D01*
X-3084Y103436D01*
Y106326D01*
G01X32374Y99260D02*
Y105713D01*
X28776Y109311D01*
X4425D01*
X3224Y110512D01*
Y116906D01*
G01X13764Y-112265D02*
X15906D01*
X23284Y-119642D01*
Y-124493D01*
G01X15930Y-110493D02*
X19284D01*
X33284Y-124493D01*
G01X32551Y-111551D02*
X22776D01*
X19791Y-108567D01*
X18055D01*
X18012Y-108524D01*
X15733D01*
G01X29685Y-109504D02*
X23421D01*
X20473Y-106556D01*
X15733D01*
G01Y-104587D02*
X21391D01*
X22264Y-105461D01*
G01X24988Y-102567D02*
X18064D01*
X18012Y-102619D01*
X15733D01*
G01X13764Y-96910D02*
Y-91433D01*
X14126Y-91071D01*
Y-87497D01*
G01X11567D02*
Y-94599D01*
X11796Y-94828D01*
Y-97107D01*
G01X29685Y-80925D02*
X23220D01*
X23197Y-80902D01*
X20721D01*
G01X24988Y-75878D02*
X20815D01*
X20721Y-75784D01*
G01X20721Y-78343D02*
X27161D01*
G01X20721Y-73225D02*
X32551D01*
G01X10063Y6965D02*
X17252D01*
G01X24500Y39024D02*
Y10803D01*
X23551Y9854D01*
Y6965D01*
G01X10720Y39024D02*
Y17504D01*
G01X23224Y116906D02*
X50142D01*
G01X30406Y39024D02*
Y36051D01*
X28244Y33890D01*
G01X94366Y66937D02*
X87024Y74280D01*
X57862D01*
X53158Y78984D01*
X38870D01*
G01Y90795D02*
X35524Y90795D01*
X32665Y87937D01*
G01X50142Y86866D02*
X41571D01*
X41563Y86858D01*
X38870D01*
G01X94366Y76937D02*
X59213D01*
X55197Y80953D01*
X38870D01*
G01X46681Y-127949D02*
Y14681D01*
G01X50756Y44346D02*
Y42276D01*
X50740Y42260D01*
Y-127004D01*
G01X43485Y-124493D02*
Y15076D01*
X43484Y15076D01*
Y17504D01*
G54D32*
X-21366Y45520D03*
Y47488D03*
Y49457D03*
Y51425D03*
Y53394D03*
Y55362D03*
Y57331D03*
Y59299D03*
Y61268D03*
Y63236D03*
Y65205D03*
Y67173D03*
Y69142D03*
Y71110D03*
Y73079D03*
Y75047D03*
Y77016D03*
Y78984D03*
Y80953D03*
Y82921D03*
Y84890D03*
Y86858D03*
Y88827D03*
Y90795D03*
Y92764D03*
X38870Y47488D03*
Y45520D03*
Y63236D03*
Y61268D03*
Y59299D03*
Y57331D03*
Y55362D03*
Y53394D03*
Y51425D03*
Y49457D03*
Y78984D03*
Y77016D03*
Y75047D03*
Y73079D03*
Y71110D03*
Y69142D03*
Y67173D03*
Y65205D03*
Y92764D03*
Y90795D03*
Y88827D03*
Y86858D03*
Y84890D03*
Y82921D03*
Y80953D03*
G54D14*
X-116008Y31862D03*
X-104984D03*
G54D23*
X-88909Y77764D03*
Y71465D03*
X-95264Y71488D03*
Y77787D03*
X-64996Y77772D03*
Y71473D03*
X-58272Y71224D03*
Y77523D03*
X-40606Y61961D03*
Y55662D03*
X-24999Y-114602D03*
Y-108303D03*
X-10917Y23284D03*
Y29582D03*
X-18284Y113398D03*
Y119696D03*
X29968Y-50657D03*
Y-56956D03*
X32441Y23287D03*
Y29586D03*
G54D42*
G01X-10917Y29582D02*
Y36224D01*
X-10933Y36240D01*
Y39024D01*
G01X-10933D02*
X-10933Y48402D01*
G01Y51429D02*
Y69634D01*
X-15559Y74260D01*
G01X-10933Y48402D02*
Y51429D01*
G01Y48402D02*
X-10858Y48327D01*
X29134D01*
X32374Y45087D01*
Y39024D01*
G01X-10933Y51429D02*
X-10937Y51425D01*
X-21366D01*
G01Y73079D02*
X-16740D01*
X-15559Y74260D01*
G01D02*
Y82921D01*
G01X-14870Y99260D02*
X-14870Y96476D01*
X-14587Y96193D01*
Y95760D01*
X-11591Y92764D01*
G01D02*
X38870D01*
G01X-15559Y82921D02*
Y88795D01*
X-11591Y92764D01*
G01X-14870Y99260D02*
X-14870Y118846D01*
X-14019Y119696D01*
G01X32441Y29586D02*
Y36173D01*
X32374Y36240D01*
Y39024D01*
G01X38870Y92764D02*
X43342Y92764D01*
G01D02*
X43584Y92523D01*
Y89662D01*
X42748Y88827D01*
X38870D01*
G01X43342Y92764D02*
X48028D01*
X48055Y92736D01*
X51036D01*
G54D24*
X-72709Y70252D03*
Y77732D03*
X-80386Y70252D03*
Y73992D03*
Y77732D03*
G54D33*
X7859Y-112068D03*
X5890D03*
X3922D03*
Y-97107D03*
X5890D03*
X7859D03*
X11796Y-112068D03*
X9827D03*
Y-97107D03*
X11796D03*
G54D15*
X-99201Y-97500D03*
X-480Y138539D03*
X97449Y-98035D03*
G54D43*
G01X-95264Y77787D02*
X-88933D01*
X-88909Y77764D01*
G01D02*
X-83772D01*
X-83740Y77732D01*
G01X-58240Y89224D02*
X-76842D01*
X-80386Y85681D01*
Y77732D01*
G01X-83740D02*
X-80386D01*
G01X-72709D02*
X-68882D01*
G01X-72709D02*
X-72709Y81567D01*
G01X-68882Y77732D02*
X-68842Y77772D01*
X-64996D01*
G01X-72709Y107429D02*
X-68252D01*
X-68213Y107468D01*
X-51137D01*
G01X-64996Y77772D02*
X-58520D01*
X-58272Y77523D01*
G01X-58240Y89224D02*
X-51189D01*
X-51165Y89248D01*
G01X94366Y46937D02*
X100587D01*
X104673Y42850D01*
Y15504D01*
G54D16*
X-107575Y-28807D03*
X-86709D03*
G54D34*
X1953Y-112265D03*
Y-96910D03*
X13764Y-112265D03*
Y-96910D03*
G54D25*
X-53489Y-111458D03*
Y-101458D03*
Y-81458D03*
Y-91458D03*
X-52799Y-31335D03*
Y-21335D03*
Y-11335D03*
Y-1335D03*
Y8665D03*
Y18665D03*
Y28665D03*
Y38665D03*
X-26716Y-124493D03*
X-6716D03*
X-16716D03*
X-6776Y116906D03*
X3284Y-124493D03*
X3224Y116906D03*
X23284Y-124493D03*
X13284D03*
X23284Y-8745D03*
X23224Y116906D03*
X13224D03*
X33284Y-124493D03*
Y-8745D03*
X88181Y-45728D03*
Y-55728D03*
Y-35728D03*
Y-25728D03*
X94366Y46937D03*
Y56937D03*
Y66937D03*
Y76937D03*
G54D26*
X-26413Y-7902D03*
X-16177D03*
G54D35*
X-212Y-110493D03*
Y-98682D03*
X15930D03*
Y-110493D03*
G54D17*
G01X-68882Y77732D02*
Y39028D01*
X-78516Y29394D01*
X-86429D01*
G01X-40606Y55662D02*
X-48453D01*
X-50980Y58189D01*
Y75823D01*
X-52681Y77523D01*
X-58272D01*
G01X-39173Y-75555D02*
Y-134169D01*
G01D02*
X-47579D01*
X-53489Y-128259D01*
Y-111458D01*
G01X-40606Y55662D02*
Y12480D01*
G01X-24999Y-114602D02*
Y-117992D01*
X-21647Y-121344D01*
X-19865D01*
X-16716Y-124493D01*
G01X-24814Y-42011D02*
X-21681D01*
X-21670Y-42022D01*
X-18891D01*
G01X-24824Y-37268D02*
Y-42001D01*
X-24814Y-42011D01*
G01X-24829Y-25424D02*
Y-30964D01*
X-24824Y-30969D01*
G01Y-21232D02*
Y-25418D01*
X-24829Y-25424D01*
G01X-10889Y-61581D02*
Y-66869D01*
G01X-2704Y-68107D02*
X-7901D01*
G02X-10889Y-66869I0J4226D01*
G01X-15971Y-55271D02*
X-10900D01*
X-10889Y-55282D01*
G01X-15971Y-55271D02*
Y-52529D01*
G02X-14760Y-49606I4133J0D01*
G03X-12788Y-44846I-4760J4760D01*
G01Y-44581D01*
G01X-12778Y-32226D02*
X-12778Y-27205D01*
X-12804Y-27179D01*
G01X-12778Y-32226D02*
X-12778Y-37362D01*
X-12788Y-37372D01*
Y-39463D01*
G01X-21280Y-21232D02*
Y-15004D01*
X-21295Y-14989D01*
G01X-18284Y119696D02*
X-14019Y119696D01*
G01D02*
X-11228Y116906D01*
X-6776D01*
G01X3890Y-64072D02*
X3890Y-58265D01*
X3709Y-58084D01*
Y-55009D01*
G01Y-48710D02*
Y-43391D01*
X3716Y-43384D01*
G01X7324Y-33485D02*
Y-38515D01*
X7272Y-38567D01*
G01X7324Y-33485D02*
X10714D01*
X10782Y-33417D01*
X11205D01*
X12929Y-31693D01*
Y-30713D01*
G01X3716Y-43384D02*
X9686D01*
X9776Y-43294D01*
X12850D01*
G01X3728Y-38567D02*
Y-43372D01*
X3716Y-43384D01*
G01X7324Y-27186D02*
X12912D01*
X12929Y-27169D01*
G01X189Y-27154D02*
X3902D01*
X3934Y-27186D01*
X7324D01*
G01X-6505Y-27179D02*
X-2321D01*
X-2295Y-27154D01*
X189D01*
G01X20127Y-87497D02*
X20439Y-87809D01*
G01X20127Y-87497D02*
X24709D01*
X24977Y-87229D01*
X28367D01*
G01X16685Y-87497D02*
X20127D01*
G01X11567Y-64072D02*
Y-60839D01*
G01D02*
Y-58563D01*
X13168Y-56961D01*
X24870D01*
G01X29968Y-56956D02*
X24876D01*
X24870Y-56961D01*
G01X19150Y-43294D02*
Y-47999D01*
X19132Y-48017D01*
G01X32866Y-135693D02*
X53433D01*
X60424Y-128702D01*
Y-115713D01*
G01X34678D02*
Y-112961D01*
X35051Y-112587D01*
Y-108926D01*
X34666Y-108540D01*
Y-105150D01*
G01X34678Y-115713D02*
X39550D01*
G01X28410Y-99091D02*
X28410Y-93788D01*
X28449Y-93749D01*
G01X28366Y-105150D02*
Y-99135D01*
X28410Y-99091D01*
G01X28449Y-93749D02*
Y-90386D01*
X28367Y-90304D01*
Y-87229D01*
X-105047Y-8075D03*
X-90630Y16693D03*
X-76543Y-1055D03*
Y-8516D03*
X-85327Y11461D03*
X-82425Y2697D03*
X-84000Y34512D03*
X-39173Y-134169D03*
X-45252Y-111850D03*
X-39173Y-75555D03*
X-40606Y12480D03*
X-44866Y79579D03*
X-30972Y-117937D03*
X-25382Y-103795D03*
X-28832Y-108072D03*
X-30972Y-85760D03*
X-26425Y44346D03*
X-31370Y49429D03*
X-27496Y67173D03*
X-38256Y76992D03*
X-8382Y-112913D03*
X-12000Y-113988D03*
X-10693Y-117941D03*
X-21327Y-110201D03*
X-8273Y-75391D03*
X-22000Y-50268D03*
X-18886Y-36642D03*
X-21484Y9106D03*
X-8819Y35335D03*
X-14854Y47394D03*
X-16571Y65331D03*
X-3681Y-110953D03*
X-6382Y-115811D03*
X-4031Y-105173D03*
X-3811Y-108072D03*
X-3724Y-95256D03*
X-2704Y-87673D03*
X6783Y14681D03*
X-3193Y6965D03*
X2846Y12787D03*
X-5520Y28591D03*
X-6051Y32602D03*
X22264Y-105461D03*
X24988Y-102567D03*
X20439Y-87809D03*
X24988Y-75878D03*
X11567Y-60839D03*
X10720Y17504D03*
X32866Y-135693D03*
X32551Y-111551D03*
X29685Y-109504D03*
Y-80925D03*
X27161Y-78343D03*
X32551Y-73225D03*
X46681Y-127949D03*
X50740Y-127004D03*
X43485Y-124493D03*
X46681Y14681D03*
X56716Y12681D03*
X43484Y17504D03*
X50756Y44346D03*
X53921Y47394D03*
X50142Y86866D03*
Y116906D03*
G54D27*
X-19244Y-97642D03*
X-12944D03*
X-19244Y-88981D03*
X-12944D03*
G54D36*
X-2704Y-83462D03*
Y-80902D03*
Y-78343D03*
Y-75784D03*
Y-73225D03*
Y-70666D03*
Y-68107D03*
X20721Y-80902D03*
Y-83462D03*
Y-68107D03*
Y-70666D03*
Y-73225D03*
Y-75784D03*
Y-78343D03*
G54D18*
X-87992Y-398D03*
Y-1972D03*
Y-3547D03*
X-101968D03*
Y-1972D03*
Y-398D03*
X-87992Y5902D03*
Y4327D03*
Y2752D03*
Y1177D03*
X-101968D03*
Y2752D03*
Y4327D03*
Y5902D03*
G54D37*
X9008Y-87497D03*
X6449D03*
X3890D03*
X1331D03*
Y-64072D03*
X3890D03*
X6449D03*
X9008D03*
X16685Y-87497D03*
X14126D03*
X11567D03*
Y-64072D03*
X14126D03*
X16685D03*
G54D19*
X-90256Y-5811D03*
X-91831D03*
X-93406D03*
X-94980D03*
X-96555D03*
X-98130D03*
X-99705D03*
Y8165D03*
X-98130D03*
X-96555D03*
X-94980D03*
X-93406D03*
X-91831D03*
X-90256D03*
G54D28*
X-19254Y-79312D03*
Y-82856D03*
X-15971Y-58814D03*
Y-55271D03*
X189Y-27154D03*
Y-23610D03*
X24870Y-56961D03*
Y-53418D03*
X12929Y-27169D03*
Y-30713D03*
G54D29*
X-18891Y-44581D03*
Y-42022D03*
Y-39463D03*
X-12788D03*
Y-42022D03*
Y-44581D03*
X-15Y-108524D03*
Y-106556D03*
Y-104587D03*
Y-102619D03*
Y-100650D03*
X15733D03*
Y-102619D03*
Y-104587D03*
Y-106556D03*
Y-108524D03*
G54D38*
X9008Y-75784D03*
G54D39*
X94673Y15504D03*
X104673D03*
M02*
