M48
;Layer_Color=9474304
;FILE_FORMAT=2:5
INCH,LZ
;TYPE=PLATED
T1F00S00C0.01000
T2F00S00C0.01200
T3F00S00C0.04000
T4F00S00C0.12200
;TYPE=NON_PLATED
T5F00S00C0.12200
%
T01
X-0049703Y-0073227
X-0051863Y-0064527
X-0044763Y-0061727
X0003884Y-0058016
X0011784Y-0061216
X0021184Y-0061084
X0025184Y-0050197
X0030686Y-0051849
X0023384Y-0041016
X0018984Y-0045516
X0015284
X0014131Y-0052655
X0018084Y-0052616
X0010113Y-0050616
X000376Y-0046516
X0003582Y-0039516
X000376Y-0034005
X0003984Y-0030416
X0017784Y-0034216
X0016284Y-0037316
X-0049863Y-0054048
T02
X-0037263Y-0073127
X-0014657Y-00674
X-0017154Y-00575
X0053668Y-00539
X00575Y-005058
X00684Y-0054402
X00754Y-00474
X00789Y-00437
X00835Y-00312
X00727Y-00205
X00605Y-00254
X00535Y-00323
X0050133Y-00362
X00467Y-00399
X00429Y-0043
X0052795Y-00138
X00443Y-00002
X0047Y00063
X0052Y00169
X0051Y00233
X00467Y00296
X00441Y003506
X0025
X00307Y00284
X00327Y00234
X00214Y00227
X0019Y0014
X0006225Y0011075
X00038Y00077
X-00071Y00087
Y-00025
X00016Y-00067
X0009325Y-0006
X00141Y-00011
X00151Y-00193
X0010986
X-0023503Y-00137
X-00321Y-0016544
X-0026476Y-0022502
X-00279Y-00352
X-0017803Y-0037103
X-00152
X-0013254Y-00477
X-00418Y-0036
X-0041503Y-0029402
X-0045579Y-002628
X-0045302Y-00205
X-00477Y-00139
X-0054
X-00599Y-00254
X-00496Y-0032
X-00463Y00165
X-0042757Y0019064
X-00381Y00273
X-0029246Y0025053
X-0029371Y0016278
X-0018546Y0012613
X-00171Y0005
X-0015746Y0027153
X-00221Y0027
X-0006177Y00271
X-00002Y0027
X-00003Y00156
X00108Y00256
T03
X00315Y0
X-00354
T04
X-00787Y0
X0Y00787
T05
X0Y-00787
X00787Y0
M30
