G04*
G04 #@! TF.GenerationSoftware,Altium Limited,Altium Designer,23.10.1 (27)*
G04*
G04 Layer_Physical_Order=1*
G04 Layer_Color=255*
%FSLAX25Y25*%
%MOIN*%
G70*
G04*
G04 #@! TF.SameCoordinates,11ED35D2-EC07-4038-AA85-49FD2C925FBF*
G04*
G04*
G04 #@! TF.FilePolarity,Positive*
G04*
G01*
G75*
%ADD10C,0.01000*%
%ADD14R,0.03347X0.02756*%
%ADD15O,0.15748X0.06000*%
%ADD16O,0.06000X0.15748*%
%ADD28C,0.02000*%
%ADD29C,0.03000*%
%ADD30C,0.02500*%
%ADD31C,0.04000*%
%ADD32C,0.08000*%
%ADD33C,0.19685*%
%ADD34R,0.05906X0.05906*%
%ADD35C,0.05906*%
%ADD36C,0.07087*%
%ADD37C,0.09843*%
%ADD38C,0.11811*%
%ADD39C,0.02000*%
%ADD40C,0.04000*%
%ADD41C,0.04500*%
G36*
X392766Y521533D02*
Y468271D01*
X392398Y467902D01*
X391845Y467075D01*
X391651Y466100D01*
Y415900D01*
X391305D01*
X390542Y415696D01*
X389858Y415301D01*
X389299Y414742D01*
X388904Y414058D01*
X388700Y413295D01*
Y412505D01*
X388904Y411742D01*
X389151Y411315D01*
Y364262D01*
X388754Y363957D01*
X388595Y364000D01*
X387805D01*
X387042Y363796D01*
X386358Y363401D01*
X385799Y362842D01*
X385404Y362158D01*
X385200Y361395D01*
Y360605D01*
X385404Y359842D01*
X385651Y359415D01*
Y311400D01*
X385205D01*
X384442Y311196D01*
X383758Y310801D01*
X383199Y310242D01*
X382804Y309558D01*
X382600Y308795D01*
Y308005D01*
X382804Y307242D01*
X383051Y306815D01*
Y259200D01*
X382505D01*
X381742Y258996D01*
X381058Y258601D01*
X380499Y258042D01*
X380104Y257358D01*
X379900Y256595D01*
Y255805D01*
X380104Y255042D01*
X380351Y254615D01*
Y204643D01*
X380295Y204600D01*
X379505D01*
X379047Y204477D01*
X378847Y204692D01*
X378747Y204915D01*
X379233Y205756D01*
X379505Y206773D01*
Y207827D01*
X379233Y208844D01*
X378706Y209756D01*
X377962Y210501D01*
X377826Y210579D01*
Y258269D01*
X378401Y258844D01*
X378927Y259756D01*
X379200Y260773D01*
Y261827D01*
X378927Y262844D01*
X378401Y263756D01*
X377826Y264331D01*
Y313497D01*
X378033Y313856D01*
X378306Y314873D01*
Y315927D01*
X378033Y316944D01*
X377826Y317302D01*
Y365969D01*
X377901Y366044D01*
X378427Y366956D01*
X378700Y367973D01*
Y369027D01*
X378427Y370044D01*
X377901Y370956D01*
X377826Y371031D01*
Y418163D01*
X377906Y418244D01*
X378433Y419156D01*
X378706Y420173D01*
Y421227D01*
X378433Y422244D01*
X377906Y423156D01*
X377826Y423237D01*
Y470490D01*
X378362Y470799D01*
X379106Y471544D01*
X379633Y472456D01*
X379906Y473473D01*
Y474527D01*
X379633Y475544D01*
X379106Y476456D01*
X378362Y477201D01*
X377449Y477727D01*
X376432Y478000D01*
X375379D01*
X374362Y477727D01*
X373449Y477201D01*
X372705Y476456D01*
X372178Y475544D01*
X371905Y474527D01*
Y473473D01*
X371949Y473310D01*
X371877Y473136D01*
X371774Y472353D01*
Y423425D01*
X371505Y423156D01*
X370978Y422244D01*
X370706Y421227D01*
Y420173D01*
X370978Y419156D01*
X371505Y418244D01*
X371774Y417975D01*
Y371231D01*
X371499Y370956D01*
X370973Y370044D01*
X370700Y369027D01*
Y367973D01*
X370973Y366956D01*
X371499Y366044D01*
X371774Y365769D01*
Y318526D01*
X371105Y317856D01*
X370578Y316944D01*
X370305Y315927D01*
Y314873D01*
X370578Y313856D01*
X371105Y312944D01*
X371774Y312275D01*
Y263366D01*
X371473Y262844D01*
X371200Y261827D01*
Y260773D01*
X371473Y259756D01*
X371774Y259234D01*
Y208829D01*
X371505Y207827D01*
Y206773D01*
X371774Y205771D01*
Y160331D01*
X371599Y160156D01*
X371073Y159244D01*
X370800Y158227D01*
Y157173D01*
X371073Y156156D01*
X371599Y155244D01*
X371774Y155069D01*
Y153248D01*
X371679Y153125D01*
X371377Y152395D01*
X371274Y151612D01*
Y136000D01*
X371377Y135217D01*
X371679Y134487D01*
X372160Y133860D01*
X381060Y124960D01*
X381687Y124479D01*
X382417Y124177D01*
X383200Y124074D01*
X417269D01*
X417444Y123899D01*
X418356Y123373D01*
X419373Y123100D01*
X420427D01*
X421444Y123373D01*
X422356Y123899D01*
X423101Y124644D01*
X423627Y125556D01*
X423900Y126573D01*
Y127627D01*
X423627Y128644D01*
X423101Y129556D01*
X422356Y130301D01*
X421444Y130827D01*
X420427Y131100D01*
X419373D01*
X418356Y130827D01*
X417444Y130301D01*
X417269Y130126D01*
X384453D01*
X377326Y137253D01*
Y142816D01*
X377788Y143007D01*
X379198Y141598D01*
X380025Y141045D01*
X381000Y140851D01*
X399200D01*
X400176Y141045D01*
X401002Y141598D01*
X404902Y145498D01*
X414400Y136000D01*
X456100D01*
X458908Y138808D01*
X459370Y138617D01*
Y112694D01*
X459490Y111780D01*
X459843Y110929D01*
X460404Y110198D01*
X467287Y103315D01*
Y102703D01*
X467624Y101443D01*
X468276Y100314D01*
X469198Y99391D01*
X470328Y98739D01*
X471587Y98402D01*
X472891D01*
X474151Y98739D01*
X475280Y99391D01*
X476203Y100314D01*
X476855Y101443D01*
X477192Y102703D01*
Y104007D01*
X476855Y105266D01*
X476203Y106396D01*
X475280Y107318D01*
X474151Y107970D01*
X472891Y108307D01*
X472279D01*
X466430Y114156D01*
Y152022D01*
X468513D01*
X469198Y151337D01*
X470328Y150685D01*
X471587Y150347D01*
X472891D01*
X474151Y150685D01*
X475280Y151337D01*
X476203Y152259D01*
X476855Y153388D01*
X477192Y154648D01*
Y155952D01*
X476855Y157212D01*
X476203Y158341D01*
X475280Y159263D01*
X474151Y159915D01*
X472891Y160253D01*
X471587D01*
X470328Y159915D01*
X469198Y159263D01*
X468513Y158578D01*
X466430D01*
Y205117D01*
X468513D01*
X469198Y204432D01*
X470328Y203780D01*
X471587Y203443D01*
X472891D01*
X474151Y203780D01*
X475280Y204432D01*
X476203Y205354D01*
X476855Y206484D01*
X477192Y207743D01*
Y209047D01*
X476855Y210307D01*
X476203Y211437D01*
X475280Y212359D01*
X474151Y213011D01*
X472891Y213348D01*
X471587D01*
X470328Y213011D01*
X469198Y212359D01*
X468513Y211673D01*
X466430D01*
Y250689D01*
X472279Y256538D01*
X472891D01*
X474151Y256876D01*
X475280Y257528D01*
X476203Y258450D01*
X476855Y259579D01*
X477192Y260839D01*
Y262143D01*
X476855Y263403D01*
X476203Y264532D01*
X475280Y265454D01*
X474151Y266106D01*
X472891Y266444D01*
X471587D01*
X470328Y266106D01*
X469198Y265454D01*
X468276Y264532D01*
X467624Y263403D01*
X467287Y262143D01*
Y261530D01*
X466062Y260306D01*
X465600Y260497D01*
Y510500D01*
X475500D01*
X504700Y481300D01*
Y416650D01*
X504200Y416443D01*
X504042Y416601D01*
X503358Y416996D01*
X502595Y417200D01*
X501805D01*
X501042Y416996D01*
X500358Y416601D01*
X499949Y416192D01*
X499449Y416399D01*
Y464815D01*
X499696Y465242D01*
X499900Y466005D01*
Y466795D01*
X499696Y467558D01*
X499301Y468242D01*
X498742Y468801D01*
X498058Y469196D01*
X497295Y469400D01*
X496505D01*
X495742Y469196D01*
X495058Y468801D01*
X494499Y468242D01*
X494104Y467558D01*
X493900Y466795D01*
Y466005D01*
X494104Y465242D01*
X494351Y464815D01*
Y363086D01*
X493642Y362896D01*
X492958Y362501D01*
X492399Y361942D01*
X492004Y361258D01*
X491800Y360495D01*
Y359705D01*
X492004Y358942D01*
X492251Y358515D01*
Y202623D01*
X492012Y202536D01*
X491751Y202535D01*
X491401Y203142D01*
X490842Y203701D01*
X490158Y204096D01*
X489395Y204300D01*
X488605D01*
X488002Y204139D01*
X487744Y204587D01*
X487751Y204594D01*
X488277Y205506D01*
X488550Y206523D01*
Y207577D01*
X488277Y208594D01*
X487751Y209506D01*
X487673Y209584D01*
Y258022D01*
X487945Y258294D01*
X488472Y259206D01*
X488744Y260223D01*
Y261277D01*
X488472Y262294D01*
X487945Y263206D01*
X487570Y263581D01*
Y312837D01*
X488072Y313706D01*
X488344Y314723D01*
Y315777D01*
X488072Y316794D01*
X487545Y317706D01*
X487520Y317731D01*
Y364269D01*
X487845Y364594D01*
X488372Y365506D01*
X488645Y366523D01*
Y367577D01*
X488372Y368594D01*
X487845Y369506D01*
X487470Y369881D01*
Y419437D01*
X487972Y420306D01*
X488244Y421323D01*
Y422377D01*
X487972Y423394D01*
X487445Y424306D01*
X486998Y424753D01*
Y470512D01*
X487427Y471256D01*
X487700Y472273D01*
Y473327D01*
X487427Y474344D01*
X486901Y475256D01*
X486156Y476001D01*
X485244Y476527D01*
X484227Y476800D01*
X483173D01*
X482156Y476527D01*
X481244Y476001D01*
X480499Y475256D01*
X479973Y474344D01*
X479700Y473327D01*
Y472273D01*
X479973Y471256D01*
X480499Y470344D01*
X480946Y469897D01*
Y424137D01*
X480517Y423394D01*
X480244Y422377D01*
Y421323D01*
X480517Y420306D01*
X481044Y419394D01*
X481419Y419019D01*
Y369463D01*
X480917Y368594D01*
X480645Y367577D01*
Y366523D01*
X480917Y365506D01*
X481444Y364594D01*
X481469Y364569D01*
Y318031D01*
X481144Y317706D01*
X480617Y316794D01*
X480344Y315777D01*
Y314723D01*
X480617Y313706D01*
X481144Y312794D01*
X481519Y312419D01*
Y263163D01*
X481017Y262294D01*
X480745Y261277D01*
Y260223D01*
X481017Y259206D01*
X481544Y258294D01*
X481621Y258216D01*
Y209778D01*
X481349Y209506D01*
X480823Y208594D01*
X480550Y207577D01*
Y206523D01*
X480823Y205506D01*
X481349Y204594D01*
X481374Y204569D01*
Y158631D01*
X481049Y158306D01*
X480523Y157394D01*
X480250Y156377D01*
Y155323D01*
X480523Y154306D01*
X481049Y153394D01*
X481549Y152894D01*
Y104496D01*
X481173Y103844D01*
X480900Y102827D01*
Y101773D01*
X481173Y100756D01*
X481699Y99844D01*
X482444Y99099D01*
X483356Y98573D01*
X484373Y98300D01*
X485427D01*
X485951Y98440D01*
X486451Y98057D01*
Y95323D01*
X486212Y95236D01*
X485951Y95235D01*
X485601Y95842D01*
X485042Y96401D01*
X484358Y96796D01*
X483595Y97000D01*
X482805D01*
X482042Y96796D01*
X481358Y96401D01*
X480799Y95842D01*
X480404Y95158D01*
X480200Y94395D01*
Y93605D01*
X480404Y92842D01*
X480651Y92415D01*
Y53793D01*
X464261Y37402D01*
X463708Y36575D01*
X463514Y35600D01*
Y27869D01*
X463022Y27585D01*
X462100Y26663D01*
X461448Y25534D01*
X461322Y25064D01*
X460804D01*
X460678Y25534D01*
X460026Y26663D01*
X459104Y27585D01*
X457975Y28237D01*
X456715Y28575D01*
X455411D01*
X454151Y28237D01*
X453022Y27585D01*
X452100Y26663D01*
X451448Y25534D01*
X451322Y25064D01*
X450804D01*
X450678Y25534D01*
X450026Y26663D01*
X449104Y27585D01*
X447975Y28237D01*
X446715Y28575D01*
X445411D01*
X444151Y28237D01*
X443022Y27585D01*
X442100Y26663D01*
X441448Y25534D01*
X441322Y25064D01*
X440804D01*
X440678Y25534D01*
X440026Y26663D01*
X439104Y27585D01*
X437975Y28237D01*
X436715Y28575D01*
X435411D01*
X434875Y28431D01*
X434478Y28736D01*
Y47868D01*
X434366Y48716D01*
X434039Y49507D01*
X433518Y50186D01*
X419818Y63886D01*
X419139Y64407D01*
X418348Y64734D01*
X417924Y64790D01*
X417500Y64846D01*
X398943D01*
Y66442D01*
X398771Y67747D01*
X398268Y68963D01*
X397466Y70008D01*
X396422Y70809D01*
X395205Y71313D01*
X393900Y71485D01*
X392595Y71313D01*
X391378Y70809D01*
X390334Y70008D01*
X389532Y68963D01*
X389029Y67747D01*
X388857Y66442D01*
Y65602D01*
X386668D01*
X385624Y65465D01*
X384650Y65062D01*
X383815Y64421D01*
X383815Y64420D01*
X382797Y63402D01*
X382334Y63594D01*
Y118000D01*
X382197Y119044D01*
X381794Y120017D01*
X381153Y120853D01*
X381153Y120853D01*
X359135Y142871D01*
Y152383D01*
X359715Y153388D01*
X360053Y154648D01*
Y155952D01*
X359715Y157212D01*
X359063Y158341D01*
X358141Y159263D01*
X357012Y159915D01*
X355752Y160253D01*
X354448D01*
X353188Y159915D01*
X352059Y159263D01*
X351137Y158341D01*
X350485Y157212D01*
X350147Y155952D01*
Y154648D01*
X350485Y153388D01*
X351065Y152383D01*
Y141200D01*
X351065Y141200D01*
X351203Y140156D01*
X351606Y139183D01*
X352247Y138347D01*
X374266Y116329D01*
Y54564D01*
X374050Y53759D01*
Y52640D01*
X374340Y51560D01*
X374899Y50590D01*
X375690Y49799D01*
X376660Y49240D01*
X377741Y48950D01*
X378859D01*
X379940Y49240D01*
X380910Y49799D01*
X381701Y50590D01*
X382117Y51311D01*
X388339Y57533D01*
X388857D01*
Y56694D01*
X389029Y55388D01*
X389532Y54172D01*
X390334Y53128D01*
X391378Y52326D01*
X392595Y51822D01*
X393900Y51651D01*
X395205Y51822D01*
X396422Y52326D01*
X397466Y53128D01*
X398268Y54172D01*
X398771Y55388D01*
X398943Y56694D01*
Y58290D01*
X416142D01*
X427922Y46510D01*
Y28662D01*
X427525Y28358D01*
X426715Y28575D01*
X425411D01*
X424151Y28237D01*
X423022Y27585D01*
X422100Y26663D01*
X421448Y25534D01*
X421322Y25064D01*
X420804D01*
X420678Y25534D01*
X420026Y26663D01*
X419104Y27585D01*
X417975Y28237D01*
X416715Y28575D01*
X415411D01*
X414151Y28237D01*
X413022Y27585D01*
X412100Y26663D01*
X411448Y25534D01*
X411322Y25064D01*
X410804D01*
X410678Y25534D01*
X410026Y26663D01*
X409104Y27585D01*
X407975Y28237D01*
X406715Y28575D01*
X405411D01*
X404151Y28237D01*
X403022Y27585D01*
X402100Y26663D01*
X401448Y25534D01*
X401322Y25064D01*
X400804D01*
X400678Y25534D01*
X400026Y26663D01*
X399104Y27585D01*
X397975Y28237D01*
X396715Y28575D01*
X395411D01*
X394151Y28237D01*
X393022Y27585D01*
X392100Y26663D01*
X391448Y25534D01*
X391110Y24274D01*
Y22970D01*
X391448Y21710D01*
X392100Y20581D01*
X393022Y19659D01*
X394151Y19007D01*
X394621Y18881D01*
Y18363D01*
X394151Y18237D01*
X393022Y17585D01*
X392100Y16663D01*
X391448Y15534D01*
X391110Y14274D01*
Y13103D01*
X390663Y12843D01*
X387934Y15571D01*
Y32200D01*
X387934Y32200D01*
X387797Y33244D01*
X387394Y34217D01*
X386753Y35053D01*
X386753Y35053D01*
X378853Y42953D01*
X378017Y43594D01*
X377044Y43997D01*
X376000Y44135D01*
X376000Y44135D01*
X245464D01*
X244659Y44350D01*
X243541D01*
X242460Y44060D01*
X241490Y43501D01*
X240699Y42710D01*
X240140Y41740D01*
X239850Y40659D01*
Y39540D01*
X240140Y38460D01*
X240699Y37490D01*
X241490Y36699D01*
X242460Y36140D01*
X243541Y35850D01*
X244659D01*
X245464Y36066D01*
X374329D01*
X379866Y30529D01*
Y13900D01*
X379866Y13900D01*
X380003Y12856D01*
X380406Y11883D01*
X381047Y11047D01*
X387154Y4940D01*
X386963Y4478D01*
X219854Y4412D01*
X219500Y4766D01*
Y16124D01*
X223363Y19987D01*
X224113Y20901D01*
X224670Y21943D01*
X225013Y23074D01*
X225129Y24250D01*
Y98281D01*
X225670Y99293D01*
X226013Y100424D01*
X226129Y101600D01*
X226013Y102776D01*
X225670Y103907D01*
X225113Y104949D01*
X224363Y105863D01*
X223449Y106613D01*
X223287Y106700D01*
X223412Y107200D01*
X317900D01*
X331800Y121100D01*
Y523800D01*
X333200Y525200D01*
X389100D01*
X392766Y521533D01*
D02*
G37*
G36*
X319400Y139100D02*
X295200Y114900D01*
X212900D01*
X202600Y104600D01*
Y18829D01*
X99500D01*
Y64400D01*
X117300Y82200D01*
Y124900D01*
X132900Y140500D01*
Y239500D01*
X304800D01*
Y559300D01*
X293700Y570400D01*
X95300D01*
Y550300D01*
X33200D01*
Y585625D01*
X319400D01*
X319400Y139100D01*
D02*
G37*
G36*
X441448Y21710D02*
X442100Y20581D01*
X443022Y19659D01*
X444151Y19007D01*
X445411Y18669D01*
X446715D01*
X447975Y19007D01*
X449104Y19659D01*
X450026Y20581D01*
X450678Y21710D01*
X450804Y22180D01*
X451322D01*
X451448Y21710D01*
X452100Y20581D01*
X453022Y19659D01*
X454151Y19007D01*
X455411Y18669D01*
X456715D01*
X457975Y19007D01*
X459104Y19659D01*
X460026Y20581D01*
X460678Y21710D01*
X460804Y22180D01*
X461322D01*
X461448Y21710D01*
X462100Y20581D01*
X463022Y19659D01*
X464151Y19007D01*
X464621Y18881D01*
Y18363D01*
X464151Y18237D01*
X463022Y17585D01*
X462100Y16663D01*
X461448Y15534D01*
X461110Y14274D01*
Y12970D01*
X461448Y11710D01*
X462100Y10581D01*
X463022Y9659D01*
X464151Y9007D01*
X465411Y8669D01*
X466715D01*
X467975Y9007D01*
X469104Y9659D01*
X470026Y10581D01*
X470678Y11710D01*
X470804Y12180D01*
X471322D01*
X471448Y11710D01*
X472100Y10581D01*
X473022Y9659D01*
X474151Y9007D01*
X475411Y8669D01*
X476715D01*
X477975Y9007D01*
X479104Y9659D01*
X480026Y10581D01*
X480678Y11710D01*
X480804Y12180D01*
X481322D01*
X481448Y11710D01*
X482100Y10581D01*
X483022Y9659D01*
X484151Y9007D01*
X485411Y8669D01*
X486715D01*
X487975Y9007D01*
X489104Y9659D01*
X490026Y10581D01*
X490678Y11710D01*
X490804Y12180D01*
X491322D01*
X491448Y11710D01*
X492100Y10581D01*
X493022Y9659D01*
X494151Y9007D01*
X495411Y8669D01*
X496715D01*
X497975Y9007D01*
X499104Y9659D01*
X500026Y10581D01*
X500678Y11710D01*
X501016Y12970D01*
Y14274D01*
X500869Y14823D01*
X504238Y18192D01*
X504700Y18001D01*
Y4525D01*
X423293Y4493D01*
X423101Y4955D01*
X426853Y8706D01*
X427975Y9007D01*
X429104Y9659D01*
X430026Y10581D01*
X430678Y11710D01*
X430804Y12180D01*
X431322D01*
X431448Y11710D01*
X432100Y10581D01*
X433022Y9659D01*
X434151Y9007D01*
X435411Y8669D01*
X436715D01*
X437975Y9007D01*
X439104Y9659D01*
X440026Y10581D01*
X440678Y11710D01*
X441016Y12970D01*
Y14274D01*
X440678Y15534D01*
X440026Y16663D01*
X439104Y17585D01*
X437975Y18237D01*
X437505Y18363D01*
Y18881D01*
X437975Y19007D01*
X439104Y19659D01*
X440026Y20581D01*
X440678Y21710D01*
X440804Y22180D01*
X441322D01*
X441448Y21710D01*
D02*
G37*
%LPC*%
G36*
X355752Y508380D02*
X354448D01*
X353188Y508043D01*
X352059Y507391D01*
X351137Y506469D01*
X350485Y505339D01*
X350147Y504080D01*
Y502775D01*
X350485Y501516D01*
X351137Y500386D01*
X352059Y499464D01*
X353188Y498812D01*
X354448Y498475D01*
X355752D01*
X357012Y498812D01*
X358141Y499464D01*
X359063Y500386D01*
X359715Y501516D01*
X360053Y502775D01*
Y504080D01*
X359715Y505339D01*
X359063Y506469D01*
X358141Y507391D01*
X357012Y508043D01*
X355752Y508380D01*
D02*
G37*
G36*
X472952Y508180D02*
X471648D01*
X470388Y507843D01*
X469259Y507191D01*
X468337Y506269D01*
X467685Y505139D01*
X467347Y503880D01*
Y502575D01*
X467685Y501316D01*
X468337Y500186D01*
X469259Y499264D01*
X470388Y498612D01*
X471648Y498275D01*
X472952D01*
X474212Y498612D01*
X475341Y499264D01*
X476263Y500186D01*
X476915Y501316D01*
X477253Y502575D01*
Y503880D01*
X476915Y505139D01*
X476263Y506269D01*
X475341Y507191D01*
X474212Y507843D01*
X472952Y508180D01*
D02*
G37*
G36*
X355752Y478853D02*
X354448D01*
X353188Y478515D01*
X352059Y477863D01*
X351137Y476941D01*
X350485Y475812D01*
X350147Y474552D01*
Y473248D01*
X350485Y471988D01*
X351137Y470859D01*
X352059Y469937D01*
X353188Y469285D01*
X354448Y468947D01*
X355752D01*
X357012Y469285D01*
X358141Y469937D01*
X359063Y470859D01*
X359715Y471988D01*
X360053Y473248D01*
Y474552D01*
X359715Y475812D01*
X359063Y476941D01*
X358141Y477863D01*
X357012Y478515D01*
X355752Y478853D01*
D02*
G37*
G36*
X472952Y478653D02*
X471648D01*
X470388Y478315D01*
X469259Y477663D01*
X468337Y476741D01*
X467685Y475612D01*
X467347Y474352D01*
Y473048D01*
X467685Y471788D01*
X468337Y470659D01*
X469259Y469737D01*
X470388Y469085D01*
X471648Y468747D01*
X472952D01*
X474212Y469085D01*
X475341Y469737D01*
X476263Y470659D01*
X476915Y471788D01*
X477253Y473048D01*
Y474352D01*
X476915Y475612D01*
X476263Y476741D01*
X475341Y477663D01*
X474212Y478315D01*
X472952Y478653D01*
D02*
G37*
G36*
X355752Y455280D02*
X354448D01*
X353188Y454943D01*
X352059Y454291D01*
X351137Y453369D01*
X350485Y452239D01*
X350147Y450980D01*
Y449676D01*
X350485Y448416D01*
X351137Y447287D01*
X352059Y446364D01*
X353188Y445712D01*
X354448Y445375D01*
X355752D01*
X357012Y445712D01*
X358141Y446364D01*
X359063Y447287D01*
X359715Y448416D01*
X360053Y449676D01*
Y450980D01*
X359715Y452239D01*
X359063Y453369D01*
X358141Y454291D01*
X357012Y454943D01*
X355752Y455280D01*
D02*
G37*
G36*
X472891Y455257D02*
X471587D01*
X470328Y454920D01*
X469198Y454268D01*
X468276Y453346D01*
X467624Y452216D01*
X467287Y450957D01*
Y449652D01*
X467624Y448393D01*
X468276Y447263D01*
X469198Y446341D01*
X470328Y445689D01*
X471587Y445352D01*
X472891D01*
X474151Y445689D01*
X475280Y446341D01*
X476203Y447263D01*
X476855Y448393D01*
X477192Y449652D01*
Y450957D01*
X476855Y452216D01*
X476203Y453346D01*
X475280Y454268D01*
X474151Y454920D01*
X472891Y455257D01*
D02*
G37*
G36*
X355752Y425753D02*
X354448D01*
X353188Y425415D01*
X352059Y424763D01*
X351137Y423841D01*
X350485Y422712D01*
X350147Y421452D01*
Y420148D01*
X350485Y418888D01*
X351137Y417759D01*
X352059Y416837D01*
X353188Y416185D01*
X354448Y415847D01*
X355752D01*
X357012Y416185D01*
X358141Y416837D01*
X359063Y417759D01*
X359715Y418888D01*
X360053Y420148D01*
Y421452D01*
X359715Y422712D01*
X359063Y423841D01*
X358141Y424763D01*
X357012Y425415D01*
X355752Y425753D01*
D02*
G37*
G36*
X472891Y425730D02*
X471587D01*
X470328Y425392D01*
X469198Y424740D01*
X468276Y423818D01*
X467624Y422689D01*
X467287Y421429D01*
Y420125D01*
X467624Y418865D01*
X468276Y417736D01*
X469198Y416814D01*
X470328Y416162D01*
X471587Y415824D01*
X472891D01*
X474151Y416162D01*
X475280Y416814D01*
X476203Y417736D01*
X476855Y418865D01*
X477192Y420125D01*
Y421429D01*
X476855Y422689D01*
X476203Y423818D01*
X475280Y424740D01*
X474151Y425392D01*
X472891Y425730D01*
D02*
G37*
G36*
X355752Y402180D02*
X354448D01*
X353188Y401843D01*
X352059Y401191D01*
X351137Y400269D01*
X350485Y399139D01*
X350147Y397880D01*
Y396575D01*
X350485Y395316D01*
X351137Y394186D01*
X352059Y393264D01*
X353188Y392612D01*
X354448Y392275D01*
X355752D01*
X357012Y392612D01*
X358141Y393264D01*
X359063Y394186D01*
X359715Y395316D01*
X360053Y396575D01*
Y397880D01*
X359715Y399139D01*
X359063Y400269D01*
X358141Y401191D01*
X357012Y401843D01*
X355752Y402180D01*
D02*
G37*
G36*
X472891Y402162D02*
X471587D01*
X470328Y401824D01*
X469198Y401172D01*
X468276Y400250D01*
X467624Y399121D01*
X467287Y397861D01*
Y396557D01*
X467624Y395298D01*
X468276Y394168D01*
X469198Y393246D01*
X470328Y392594D01*
X471587Y392256D01*
X472891D01*
X474151Y392594D01*
X475280Y393246D01*
X476203Y394168D01*
X476855Y395298D01*
X477192Y396557D01*
Y397861D01*
X476855Y399121D01*
X476203Y400250D01*
X475280Y401172D01*
X474151Y401824D01*
X472891Y402162D01*
D02*
G37*
G36*
X355752Y372653D02*
X354448D01*
X353188Y372315D01*
X352059Y371663D01*
X351137Y370741D01*
X350485Y369612D01*
X350147Y368352D01*
Y367048D01*
X350485Y365788D01*
X351137Y364659D01*
X352059Y363737D01*
X353188Y363085D01*
X354448Y362747D01*
X355752D01*
X357012Y363085D01*
X358141Y363737D01*
X359063Y364659D01*
X359715Y365788D01*
X360053Y367048D01*
Y368352D01*
X359715Y369612D01*
X359063Y370741D01*
X358141Y371663D01*
X357012Y372315D01*
X355752Y372653D01*
D02*
G37*
G36*
X472891Y372634D02*
X471587D01*
X470328Y372297D01*
X469198Y371645D01*
X468276Y370723D01*
X467624Y369593D01*
X467287Y368334D01*
Y367030D01*
X467624Y365770D01*
X468276Y364640D01*
X469198Y363718D01*
X470328Y363066D01*
X471587Y362729D01*
X472891D01*
X474151Y363066D01*
X475280Y363718D01*
X476203Y364640D01*
X476855Y365770D01*
X477192Y367030D01*
Y368334D01*
X476855Y369593D01*
X476203Y370723D01*
X475280Y371645D01*
X474151Y372297D01*
X472891Y372634D01*
D02*
G37*
G36*
X355752Y349080D02*
X354448D01*
X353188Y348743D01*
X352059Y348091D01*
X351137Y347169D01*
X350485Y346039D01*
X350147Y344780D01*
Y343476D01*
X350485Y342216D01*
X351137Y341087D01*
X352059Y340164D01*
X353188Y339512D01*
X354448Y339175D01*
X355752D01*
X357012Y339512D01*
X358141Y340164D01*
X359063Y341087D01*
X359715Y342216D01*
X360053Y343476D01*
Y344780D01*
X359715Y346039D01*
X359063Y347169D01*
X358141Y348091D01*
X357012Y348743D01*
X355752Y349080D01*
D02*
G37*
G36*
X472891Y349066D02*
X471587D01*
X470328Y348729D01*
X469198Y348077D01*
X468276Y347155D01*
X467624Y346025D01*
X467287Y344766D01*
Y343462D01*
X467624Y342202D01*
X468276Y341073D01*
X469198Y340151D01*
X470328Y339498D01*
X471587Y339161D01*
X472891D01*
X474151Y339498D01*
X475280Y340151D01*
X476203Y341073D01*
X476855Y342202D01*
X477192Y343462D01*
Y344766D01*
X476855Y346025D01*
X476203Y347155D01*
X475280Y348077D01*
X474151Y348729D01*
X472891Y349066D01*
D02*
G37*
G36*
X355752Y319553D02*
X354448D01*
X353188Y319215D01*
X352059Y318563D01*
X351137Y317641D01*
X350485Y316512D01*
X350147Y315252D01*
Y313948D01*
X350485Y312688D01*
X351137Y311559D01*
X352059Y310637D01*
X353188Y309985D01*
X354448Y309647D01*
X355752D01*
X357012Y309985D01*
X358141Y310637D01*
X359063Y311559D01*
X359715Y312688D01*
X360053Y313948D01*
Y315252D01*
X359715Y316512D01*
X359063Y317641D01*
X358141Y318563D01*
X357012Y319215D01*
X355752Y319553D01*
D02*
G37*
G36*
X472891Y319539D02*
X471587D01*
X470328Y319201D01*
X469198Y318549D01*
X468276Y317627D01*
X467624Y316498D01*
X467287Y315238D01*
Y313934D01*
X467624Y312674D01*
X468276Y311545D01*
X469198Y310623D01*
X470328Y309971D01*
X471587Y309633D01*
X472891D01*
X474151Y309971D01*
X475280Y310623D01*
X476203Y311545D01*
X476855Y312674D01*
X477192Y313934D01*
Y315238D01*
X476855Y316498D01*
X476203Y317627D01*
X475280Y318549D01*
X474151Y319201D01*
X472891Y319539D01*
D02*
G37*
G36*
X355752Y295980D02*
X354448D01*
X353188Y295643D01*
X352059Y294991D01*
X351137Y294069D01*
X350485Y292939D01*
X350147Y291680D01*
Y290375D01*
X350485Y289116D01*
X351137Y287986D01*
X352059Y287064D01*
X353188Y286412D01*
X354448Y286075D01*
X355752D01*
X357012Y286412D01*
X358141Y287064D01*
X359063Y287986D01*
X359715Y289116D01*
X360053Y290375D01*
Y291680D01*
X359715Y292939D01*
X359063Y294069D01*
X358141Y294991D01*
X357012Y295643D01*
X355752Y295980D01*
D02*
G37*
G36*
X472891Y295971D02*
X471587D01*
X470328Y295634D01*
X469198Y294982D01*
X468276Y294059D01*
X467624Y292930D01*
X467287Y291670D01*
Y290366D01*
X467624Y289107D01*
X468276Y287977D01*
X469198Y287055D01*
X470328Y286403D01*
X471587Y286066D01*
X472891D01*
X474151Y286403D01*
X475280Y287055D01*
X476203Y287977D01*
X476855Y289107D01*
X477192Y290366D01*
Y291670D01*
X476855Y292930D01*
X476203Y294059D01*
X475280Y294982D01*
X474151Y295634D01*
X472891Y295971D01*
D02*
G37*
G36*
X355752Y266453D02*
X354448D01*
X353188Y266115D01*
X352059Y265463D01*
X351137Y264541D01*
X350485Y263412D01*
X350147Y262152D01*
Y260848D01*
X350485Y259588D01*
X351137Y258459D01*
X352059Y257537D01*
X353188Y256885D01*
X354448Y256547D01*
X355417D01*
X359988Y251976D01*
Y241807D01*
X359489Y241673D01*
X359203Y242169D01*
X358280Y243091D01*
X357151Y243743D01*
X355891Y244080D01*
X354587D01*
X353328Y243743D01*
X352198Y243091D01*
X351276Y242169D01*
X350624Y241039D01*
X350287Y239780D01*
Y238475D01*
X350624Y237216D01*
X351276Y236087D01*
X352198Y235164D01*
X353328Y234512D01*
X354587Y234175D01*
X355891D01*
X357151Y234512D01*
X358280Y235164D01*
X359203Y236087D01*
X359489Y236582D01*
X359988Y236448D01*
Y218793D01*
X355749Y214553D01*
X354587D01*
X353328Y214215D01*
X352198Y213563D01*
X351276Y212641D01*
X350624Y211512D01*
X350287Y210252D01*
Y208948D01*
X350624Y207688D01*
X351276Y206559D01*
X352198Y205637D01*
X353328Y204985D01*
X354587Y204647D01*
X355891D01*
X357151Y204985D01*
X358280Y205637D01*
X359203Y206559D01*
X359855Y207688D01*
X360192Y208948D01*
Y209724D01*
X365584Y215117D01*
X366105Y215796D01*
X366433Y216586D01*
X366545Y217435D01*
Y253333D01*
X366433Y254182D01*
X366105Y254973D01*
X365584Y255651D01*
X360053Y261183D01*
Y262152D01*
X359715Y263412D01*
X359063Y264541D01*
X358141Y265463D01*
X357012Y266115D01*
X355752Y266453D01*
D02*
G37*
G36*
X472891Y242876D02*
X471587D01*
X470328Y242538D01*
X469198Y241886D01*
X468276Y240964D01*
X467624Y239835D01*
X467287Y238575D01*
Y237271D01*
X467624Y236011D01*
X468276Y234882D01*
X469198Y233960D01*
X470328Y233308D01*
X471587Y232970D01*
X472891D01*
X474151Y233308D01*
X475280Y233960D01*
X476203Y234882D01*
X476855Y236011D01*
X477192Y237271D01*
Y238575D01*
X476855Y239835D01*
X476203Y240964D01*
X475280Y241886D01*
X474151Y242538D01*
X472891Y242876D01*
D02*
G37*
G36*
Y189780D02*
X471587D01*
X470328Y189443D01*
X469198Y188791D01*
X468276Y187869D01*
X467624Y186739D01*
X467287Y185480D01*
Y184176D01*
X467624Y182916D01*
X468276Y181787D01*
X469198Y180864D01*
X470328Y180212D01*
X471587Y179875D01*
X472891D01*
X474151Y180212D01*
X475280Y180864D01*
X476203Y181787D01*
X476855Y182916D01*
X477192Y184176D01*
Y185480D01*
X476855Y186739D01*
X476203Y187869D01*
X475280Y188791D01*
X474151Y189443D01*
X472891Y189780D01*
D02*
G37*
G36*
X355752D02*
X354448D01*
X353188Y189443D01*
X352059Y188791D01*
X351137Y187869D01*
X350485Y186739D01*
X350147Y185480D01*
Y184176D01*
X350485Y182916D01*
X351137Y181787D01*
X352059Y180864D01*
X353188Y180212D01*
X354448Y179875D01*
X355752D01*
X357012Y180212D01*
X358141Y180864D01*
X359063Y181787D01*
X359715Y182916D01*
X360053Y184176D01*
Y185480D01*
X359715Y186739D01*
X359063Y187869D01*
X358141Y188791D01*
X357012Y189443D01*
X355752Y189780D01*
D02*
G37*
G36*
X472891Y137835D02*
X471587D01*
X470328Y137497D01*
X469198Y136845D01*
X468276Y135923D01*
X467624Y134794D01*
X467287Y133534D01*
Y132230D01*
X467624Y130971D01*
X468276Y129841D01*
X469198Y128919D01*
X470328Y128267D01*
X471587Y127929D01*
X472891D01*
X474151Y128267D01*
X475280Y128919D01*
X476203Y129841D01*
X476855Y130971D01*
X477192Y132230D01*
Y133534D01*
X476855Y134794D01*
X476203Y135923D01*
X475280Y136845D01*
X474151Y137497D01*
X472891Y137835D01*
D02*
G37*
G36*
X357282Y110321D02*
X355918D01*
X354581Y110055D01*
X353322Y109534D01*
X352188Y108776D01*
X351224Y107812D01*
X350466Y106678D01*
X349945Y105419D01*
X349679Y104082D01*
Y102718D01*
X349945Y101381D01*
X350466Y100122D01*
X351224Y98988D01*
X352188Y98024D01*
X353322Y97267D01*
X354581Y96745D01*
X355918Y96479D01*
X357282D01*
X358619Y96745D01*
X359878Y97267D01*
X361012Y98024D01*
X361976Y98988D01*
X362734Y100122D01*
X363255Y101381D01*
X363521Y102718D01*
Y104082D01*
X363255Y105419D01*
X362734Y106678D01*
X361976Y107812D01*
X361012Y108776D01*
X359878Y109534D01*
X358619Y110055D01*
X357282Y110321D01*
D02*
G37*
G36*
X394900Y103809D02*
Y96032D01*
X397935D01*
Y99906D01*
X397797Y100951D01*
X397394Y101924D01*
X396753Y102759D01*
X395917Y103400D01*
X394944Y103803D01*
X394900Y103809D01*
D02*
G37*
G36*
X392900Y103809D02*
X392856Y103803D01*
X391883Y103400D01*
X391047Y102759D01*
X390406Y101924D01*
X390003Y100951D01*
X389865Y99906D01*
Y96032D01*
X392900D01*
Y103809D01*
D02*
G37*
G36*
X397935Y94032D02*
X394900D01*
Y86255D01*
X394944Y86261D01*
X395917Y86664D01*
X396753Y87305D01*
X397394Y88141D01*
X397797Y89114D01*
X397935Y90158D01*
Y94032D01*
D02*
G37*
G36*
X392900D02*
X389865D01*
Y90158D01*
X390003Y89114D01*
X390406Y88141D01*
X391047Y87305D01*
X391883Y86664D01*
X392856Y86261D01*
X392900Y86255D01*
Y94032D01*
D02*
G37*
G36*
X357600Y69238D02*
Y64400D01*
X362438D01*
X362294Y65127D01*
X361847Y66205D01*
X361199Y67175D01*
X360375Y67999D01*
X359405Y68647D01*
X358327Y69094D01*
X357600Y69238D01*
D02*
G37*
G36*
X355600D02*
X354873Y69094D01*
X353795Y68647D01*
X352825Y67999D01*
X352001Y67175D01*
X351353Y66205D01*
X350906Y65127D01*
X350762Y64400D01*
X355600D01*
Y69238D01*
D02*
G37*
G36*
X340995Y94800D02*
X340205D01*
X339442Y94596D01*
X338758Y94201D01*
X338199Y93642D01*
X337804Y92958D01*
X337677Y92482D01*
X331498Y86302D01*
X330945Y85475D01*
X330751Y84500D01*
Y62185D01*
X330504Y61758D01*
X330300Y60995D01*
Y60205D01*
X330504Y59442D01*
X330899Y58758D01*
X331458Y58199D01*
X332142Y57804D01*
X332905Y57600D01*
X333695D01*
X334458Y57804D01*
X335142Y58199D01*
X335701Y58758D01*
X336096Y59442D01*
X336300Y60205D01*
Y60995D01*
X336096Y61758D01*
X335849Y62185D01*
Y83444D01*
X341282Y88877D01*
X341758Y89004D01*
X342442Y89399D01*
X343001Y89958D01*
X343396Y90642D01*
X343600Y91405D01*
Y92195D01*
X343396Y92958D01*
X343001Y93642D01*
X342442Y94201D01*
X341758Y94596D01*
X340995Y94800D01*
D02*
G37*
G36*
X362438Y62400D02*
X357600D01*
Y57562D01*
X358327Y57706D01*
X359405Y58153D01*
X360375Y58801D01*
X361199Y59625D01*
X361847Y60595D01*
X362294Y61673D01*
X362438Y62400D01*
D02*
G37*
G36*
X355600D02*
X350762D01*
X350906Y61673D01*
X351353Y60595D01*
X352001Y59625D01*
X352825Y58801D01*
X353795Y58153D01*
X354873Y57706D01*
X355600Y57562D01*
Y62400D01*
D02*
G37*
G36*
X357282Y30321D02*
X355918D01*
X354581Y30055D01*
X353322Y29533D01*
X352188Y28776D01*
X351224Y27812D01*
X350466Y26678D01*
X349945Y25419D01*
X349679Y24082D01*
Y22718D01*
X349945Y21381D01*
X350466Y20121D01*
X351224Y18988D01*
X352188Y18024D01*
X353322Y17266D01*
X354581Y16745D01*
X355918Y16479D01*
X357282D01*
X358619Y16745D01*
X359878Y17266D01*
X361012Y18024D01*
X361976Y18988D01*
X362734Y20121D01*
X363255Y21381D01*
X363521Y22718D01*
Y24082D01*
X363255Y25419D01*
X362734Y26678D01*
X361976Y27812D01*
X361012Y28776D01*
X359878Y29533D01*
X358619Y30055D01*
X357282Y30321D01*
D02*
G37*
G36*
X49740Y578627D02*
Y575803D01*
X52564D01*
X52424Y576329D01*
X51903Y577230D01*
X51167Y577966D01*
X50266Y578486D01*
X49740Y578627D01*
D02*
G37*
G36*
X82693Y578756D02*
X79740D01*
Y575803D01*
X82693D01*
Y578756D01*
D02*
G37*
G36*
X69740Y578627D02*
Y575803D01*
X72564D01*
X72423Y576329D01*
X71903Y577230D01*
X71167Y577966D01*
X70266Y578486D01*
X69740Y578627D01*
D02*
G37*
G36*
X59740D02*
Y575803D01*
X62564D01*
X62423Y576329D01*
X61903Y577230D01*
X61167Y577966D01*
X60266Y578486D01*
X59740Y578627D01*
D02*
G37*
G36*
X47740Y578627D02*
X47214Y578486D01*
X46313Y577966D01*
X45577Y577230D01*
X45057Y576329D01*
X44916Y575803D01*
X47740D01*
Y578627D01*
D02*
G37*
G36*
X67740D02*
X67214Y578486D01*
X66313Y577966D01*
X65577Y577230D01*
X65057Y576329D01*
X64916Y575803D01*
X67740D01*
Y578627D01*
D02*
G37*
G36*
X57740D02*
X57214Y578486D01*
X56313Y577966D01*
X55577Y577230D01*
X55057Y576329D01*
X54916Y575803D01*
X57740D01*
Y578627D01*
D02*
G37*
G36*
X77740Y578756D02*
X74787D01*
Y575803D01*
X77740D01*
Y578756D01*
D02*
G37*
G36*
X72564Y573803D02*
X69740D01*
Y570979D01*
X70266Y571120D01*
X71167Y571640D01*
X71903Y572376D01*
X72423Y573277D01*
X72564Y573803D01*
D02*
G37*
G36*
X62564D02*
X59740D01*
Y570979D01*
X60266Y571120D01*
X61167Y571640D01*
X61903Y572376D01*
X62423Y573277D01*
X62564Y573803D01*
D02*
G37*
G36*
X52564D02*
X49740D01*
Y570979D01*
X50266Y571120D01*
X51167Y571640D01*
X51903Y572376D01*
X52424Y573277D01*
X52564Y573803D01*
D02*
G37*
G36*
X67740D02*
X64916D01*
X65057Y573277D01*
X65577Y572376D01*
X66313Y571640D01*
X67214Y571120D01*
X67740Y570979D01*
Y573803D01*
D02*
G37*
G36*
X57740D02*
X54916D01*
X55057Y573277D01*
X55577Y572376D01*
X56313Y571640D01*
X57214Y571120D01*
X57740Y570979D01*
Y573803D01*
D02*
G37*
G36*
X47740D02*
X44916D01*
X45057Y573277D01*
X45577Y572376D01*
X46313Y571640D01*
X47214Y571120D01*
X47740Y570979D01*
Y573803D01*
D02*
G37*
G36*
X82693D02*
X79740D01*
Y570850D01*
X82693D01*
Y573803D01*
D02*
G37*
G36*
X77740D02*
X74787D01*
Y570850D01*
X77740D01*
Y573803D01*
D02*
G37*
G36*
X49740Y568627D02*
Y565803D01*
X52564D01*
X52424Y566329D01*
X51903Y567230D01*
X51167Y567966D01*
X50266Y568486D01*
X49740Y568627D01*
D02*
G37*
G36*
X79740D02*
Y565803D01*
X82564D01*
X82424Y566329D01*
X81903Y567230D01*
X81167Y567966D01*
X80266Y568486D01*
X79740Y568627D01*
D02*
G37*
G36*
X69740D02*
Y565803D01*
X72564D01*
X72423Y566329D01*
X71903Y567230D01*
X71167Y567966D01*
X70266Y568486D01*
X69740Y568627D01*
D02*
G37*
G36*
X59740D02*
Y565803D01*
X62564D01*
X62423Y566329D01*
X61903Y567230D01*
X61167Y567966D01*
X60266Y568486D01*
X59740Y568627D01*
D02*
G37*
G36*
X47740Y568627D02*
X47214Y568486D01*
X46313Y567966D01*
X45577Y567230D01*
X45057Y566329D01*
X44916Y565803D01*
X47740D01*
Y568627D01*
D02*
G37*
G36*
X77740D02*
X77214Y568486D01*
X76313Y567966D01*
X75577Y567230D01*
X75057Y566329D01*
X74916Y565803D01*
X77740D01*
Y568627D01*
D02*
G37*
G36*
X67740D02*
X67214Y568486D01*
X66313Y567966D01*
X65577Y567230D01*
X65057Y566329D01*
X64916Y565803D01*
X67740D01*
Y568627D01*
D02*
G37*
G36*
X57740D02*
X57214Y568486D01*
X56313Y567966D01*
X55577Y567230D01*
X55057Y566329D01*
X54916Y565803D01*
X57740D01*
Y568627D01*
D02*
G37*
G36*
X82564Y563803D02*
X79740D01*
Y560979D01*
X80266Y561120D01*
X81167Y561640D01*
X81903Y562376D01*
X82424Y563277D01*
X82564Y563803D01*
D02*
G37*
G36*
X72564D02*
X69740D01*
Y560979D01*
X70266Y561120D01*
X71167Y561640D01*
X71903Y562376D01*
X72423Y563277D01*
X72564Y563803D01*
D02*
G37*
G36*
X62564D02*
X59740D01*
Y560979D01*
X60266Y561120D01*
X61167Y561640D01*
X61903Y562376D01*
X62423Y563277D01*
X62564Y563803D01*
D02*
G37*
G36*
X52564D02*
X49740D01*
Y560979D01*
X50266Y561120D01*
X51167Y561640D01*
X51903Y562376D01*
X52424Y563277D01*
X52564Y563803D01*
D02*
G37*
G36*
X77740D02*
X74916D01*
X75057Y563277D01*
X75577Y562376D01*
X76313Y561640D01*
X77214Y561120D01*
X77740Y560979D01*
Y563803D01*
D02*
G37*
G36*
X67740D02*
X64916D01*
X65057Y563277D01*
X65577Y562376D01*
X66313Y561640D01*
X67214Y561120D01*
X67740Y560979D01*
Y563803D01*
D02*
G37*
G36*
X57740D02*
X54916D01*
X55057Y563277D01*
X55577Y562376D01*
X56313Y561640D01*
X57214Y561120D01*
X57740Y560979D01*
Y563803D01*
D02*
G37*
G36*
X47740D02*
X44916D01*
X45057Y563277D01*
X45577Y562376D01*
X46313Y561640D01*
X47214Y561120D01*
X47740Y560979D01*
Y563803D01*
D02*
G37*
G36*
X205865Y175642D02*
Y169800D01*
X211707D01*
X211506Y170814D01*
X210985Y172071D01*
X210229Y173202D01*
X209267Y174164D01*
X208136Y174920D01*
X206880Y175440D01*
X205865Y175642D01*
D02*
G37*
G36*
X203865D02*
X202851Y175440D01*
X201594Y174920D01*
X200463Y174164D01*
X199502Y173202D01*
X198746Y172071D01*
X198225Y170814D01*
X198023Y169800D01*
X203865D01*
Y175642D01*
D02*
G37*
G36*
Y167800D02*
X198023D01*
X198225Y166786D01*
X198746Y165529D01*
X199502Y164398D01*
X200463Y163436D01*
X201594Y162680D01*
X202851Y162160D01*
X203865Y161958D01*
Y167800D01*
D02*
G37*
G36*
X211707D02*
X205865D01*
Y161958D01*
X206880Y162160D01*
X208136Y162680D01*
X209267Y163436D01*
X210229Y164398D01*
X210985Y165529D01*
X211506Y166786D01*
X211707Y167800D01*
D02*
G37*
G36*
X225644Y176706D02*
X224087D01*
X222559Y176402D01*
X221121Y175806D01*
X219826Y174941D01*
X218725Y173839D01*
X217860Y172545D01*
X217264Y171106D01*
X216960Y169579D01*
Y168021D01*
X217264Y166494D01*
X217860Y165055D01*
X218725Y163761D01*
X219826Y162659D01*
X221121Y161794D01*
X222559Y161198D01*
X224087Y160895D01*
X225644D01*
X227171Y161198D01*
X228610Y161794D01*
X229905Y162659D01*
X231006Y163761D01*
X231871Y165055D01*
X232467Y166494D01*
X232771Y168021D01*
Y169579D01*
X232467Y171106D01*
X231871Y172545D01*
X231006Y173839D01*
X229905Y174941D01*
X228610Y175806D01*
X227171Y176402D01*
X225644Y176706D01*
D02*
G37*
G36*
X170605D02*
X169047D01*
X167520Y176402D01*
X166081Y175806D01*
X164787Y174941D01*
X163685Y173839D01*
X162820Y172545D01*
X162224Y171106D01*
X161920Y169579D01*
Y168021D01*
X162224Y166494D01*
X162820Y165055D01*
X163685Y163761D01*
X164787Y162659D01*
X166081Y161794D01*
X167520Y161198D01*
X169047Y160895D01*
X170605D01*
X172132Y161198D01*
X173571Y161794D01*
X174865Y162659D01*
X175967Y163761D01*
X176832Y165055D01*
X177428Y166494D01*
X177732Y168021D01*
Y169579D01*
X177428Y171106D01*
X176832Y172545D01*
X175967Y173839D01*
X174865Y174941D01*
X173571Y175806D01*
X172132Y176402D01*
X170605Y176706D01*
D02*
G37*
G36*
X177282Y100321D02*
X175918D01*
X174581Y100055D01*
X173322Y99533D01*
X172188Y98776D01*
X171224Y97812D01*
X170466Y96678D01*
X169945Y95419D01*
X169679Y94082D01*
Y92718D01*
X169945Y91381D01*
X170466Y90122D01*
X171224Y88988D01*
X172188Y88024D01*
X173322Y87266D01*
X174581Y86745D01*
X175918Y86479D01*
X177282D01*
X178619Y86745D01*
X179878Y87266D01*
X181012Y88024D01*
X181976Y88988D01*
X182734Y90122D01*
X183255Y91381D01*
X183521Y92718D01*
Y94082D01*
X183255Y95419D01*
X182734Y96678D01*
X181976Y97812D01*
X181012Y98776D01*
X179878Y99533D01*
X178619Y100055D01*
X177282Y100321D01*
D02*
G37*
G36*
X136973Y87584D02*
X129627D01*
Y80828D01*
Y74922D01*
X130751D01*
Y72300D01*
X130945Y71324D01*
X131498Y70498D01*
X141583Y60412D01*
Y54743D01*
X139258D01*
X137953Y54571D01*
X136737Y54067D01*
X135692Y53266D01*
X134891Y52222D01*
X134387Y51005D01*
X134215Y49700D01*
X134387Y48395D01*
X134891Y47178D01*
X135692Y46134D01*
X136737Y45333D01*
X137953Y44829D01*
X139258Y44657D01*
X140098D01*
Y39168D01*
X140098Y39168D01*
X140235Y38124D01*
X140638Y37150D01*
X141279Y36315D01*
X147047Y30547D01*
X147047Y30547D01*
X147883Y29906D01*
X148856Y29503D01*
X149900Y29366D01*
X149900Y29366D01*
X170972D01*
X171224Y28988D01*
X172188Y28024D01*
X173322Y27266D01*
X174581Y26745D01*
X175918Y26479D01*
X177282D01*
X178619Y26745D01*
X179878Y27266D01*
X181012Y28024D01*
X181976Y28988D01*
X182734Y30122D01*
X183255Y31381D01*
X183521Y32718D01*
Y34082D01*
X183255Y35419D01*
X182734Y36678D01*
X181976Y37812D01*
X181012Y38776D01*
X179878Y39533D01*
X178619Y40055D01*
X177282Y40321D01*
X175918D01*
X174581Y40055D01*
X173322Y39533D01*
X172188Y38776D01*
X171224Y37812D01*
X170972Y37435D01*
X151571D01*
X148167Y40839D01*
Y44657D01*
X149006D01*
X150312Y44829D01*
X151528Y45333D01*
X152572Y46134D01*
X153374Y47178D01*
X153878Y48395D01*
X154049Y49700D01*
X153878Y51005D01*
X153374Y52222D01*
X152572Y53266D01*
X151528Y54067D01*
X150312Y54571D01*
X149006Y54743D01*
X146681D01*
Y61468D01*
X146487Y62443D01*
X145935Y63270D01*
X135849Y73356D01*
Y74922D01*
X136973D01*
Y81607D01*
X138727D01*
Y80728D01*
X139289D01*
X139727Y80578D01*
X139727Y80228D01*
Y79200D01*
X142400D01*
X145073D01*
Y80578D01*
X145511Y80728D01*
X146073D01*
Y87484D01*
X138727D01*
Y86704D01*
X136973D01*
Y87584D01*
D02*
G37*
G36*
X145073Y77200D02*
X143400D01*
Y75822D01*
X145073D01*
Y77200D01*
D02*
G37*
G36*
X141400D02*
X139727D01*
Y75822D01*
X141400D01*
Y77200D01*
D02*
G37*
G36*
X177600Y59238D02*
Y54400D01*
X182438D01*
X182294Y55127D01*
X181847Y56205D01*
X181199Y57175D01*
X180375Y57999D01*
X179405Y58647D01*
X178327Y59094D01*
X177600Y59238D01*
D02*
G37*
G36*
X175600D02*
X174873Y59094D01*
X173795Y58647D01*
X172825Y57999D01*
X172001Y57175D01*
X171353Y56205D01*
X170906Y55127D01*
X170762Y54400D01*
X175600D01*
Y59238D01*
D02*
G37*
G36*
X115542Y53734D02*
X111668D01*
Y50700D01*
X119445D01*
X119439Y50744D01*
X119036Y51717D01*
X118395Y52553D01*
X117559Y53194D01*
X116586Y53597D01*
X115542Y53734D01*
D02*
G37*
G36*
X109668D02*
X105794D01*
X104750Y53597D01*
X103776Y53194D01*
X102941Y52553D01*
X102300Y51717D01*
X101897Y50744D01*
X101891Y50700D01*
X109668D01*
Y53734D01*
D02*
G37*
G36*
X182438Y52400D02*
X177600D01*
Y47562D01*
X178327Y47706D01*
X179405Y48153D01*
X180375Y48801D01*
X181199Y49625D01*
X181847Y50595D01*
X182294Y51673D01*
X182438Y52400D01*
D02*
G37*
G36*
X175600D02*
X170762D01*
X170906Y51673D01*
X171353Y50595D01*
X172001Y49625D01*
X172825Y48801D01*
X173795Y48153D01*
X174873Y47706D01*
X175600Y47562D01*
Y52400D01*
D02*
G37*
G36*
X119445Y48700D02*
X111668D01*
Y45665D01*
X115542D01*
X116586Y45803D01*
X117559Y46206D01*
X118395Y46847D01*
X119036Y47683D01*
X119439Y48656D01*
X119445Y48700D01*
D02*
G37*
G36*
X109668D02*
X101891D01*
X101897Y48656D01*
X102300Y47683D01*
X102941Y46847D01*
X103776Y46206D01*
X104750Y45803D01*
X105794Y45665D01*
X109668D01*
Y48700D01*
D02*
G37*
G36*
X447063Y17446D02*
Y14622D01*
X449887D01*
X449746Y15148D01*
X449226Y16049D01*
X448490Y16785D01*
X447589Y17305D01*
X447063Y17446D01*
D02*
G37*
G36*
X457063D02*
Y14622D01*
X459887D01*
X459746Y15148D01*
X459226Y16049D01*
X458490Y16785D01*
X457589Y17305D01*
X457063Y17446D01*
D02*
G37*
G36*
X445063D02*
X444537Y17305D01*
X443636Y16785D01*
X442900Y16049D01*
X442380Y15148D01*
X442239Y14622D01*
X445063D01*
Y17446D01*
D02*
G37*
G36*
X455063D02*
X454537Y17305D01*
X453636Y16785D01*
X452900Y16049D01*
X452380Y15148D01*
X452239Y14622D01*
X455063D01*
Y17446D01*
D02*
G37*
G36*
X459887Y12622D02*
X457063D01*
Y9798D01*
X457589Y9939D01*
X458490Y10459D01*
X459226Y11195D01*
X459746Y12096D01*
X459887Y12622D01*
D02*
G37*
G36*
X449887D02*
X447063D01*
Y9798D01*
X447589Y9939D01*
X448490Y10459D01*
X449226Y11195D01*
X449746Y12096D01*
X449887Y12622D01*
D02*
G37*
G36*
X455063D02*
X452239D01*
X452380Y12096D01*
X452900Y11195D01*
X453636Y10459D01*
X454537Y9939D01*
X455063Y9798D01*
Y12622D01*
D02*
G37*
G36*
X445063D02*
X442239D01*
X442380Y12096D01*
X442900Y11195D01*
X443636Y10459D01*
X444537Y9939D01*
X445063Y9798D01*
Y12622D01*
D02*
G37*
%LPD*%
D10*
X391700Y147900D02*
Y412900D01*
X385600Y147900D02*
Y308400D01*
X379900Y147900D02*
Y201600D01*
X394200Y147800D02*
Y466100D01*
X396400Y468300D01*
X502200Y29759D02*
Y414200D01*
X499500Y307600D02*
X499500Y35200D01*
X466063Y23622D02*
Y35600D01*
X483200Y52737D01*
Y94000D01*
X471200Y18759D02*
Y32500D01*
X489000Y50300D01*
X476063Y23622D02*
Y31500D01*
X492600Y48037D02*
Y149800D01*
X476063Y31500D02*
X492600Y48037D01*
X480900Y18459D02*
Y30500D01*
X494800Y44400D01*
X486063Y23622D02*
Y28622D01*
X496900Y466400D02*
X496900Y39459D01*
X486063Y28622D02*
X496900Y39459D01*
X490800Y18359D02*
Y26500D01*
X499500Y35200D01*
X496063Y23622D02*
X502200Y29759D01*
X505200Y22759D02*
Y250500D01*
X496063Y13622D02*
X505200Y22759D01*
X486063Y13622D02*
X490800Y18359D01*
X494800Y360100D02*
X494800Y44400D01*
X476063Y13622D02*
X480900Y18459D01*
X489000Y50300D02*
Y201300D01*
X466063Y13622D02*
X471200Y18759D01*
X399200Y143400D02*
X405300Y149500D01*
Y160500D01*
X376800Y147600D02*
X381000Y143400D01*
X399200D01*
X388200Y361000D02*
X388200Y147700D01*
X382900D02*
Y256200D01*
X333300Y84500D02*
X340600Y91800D01*
X333300Y60600D02*
Y84500D01*
X144132Y49700D02*
Y61468D01*
X133300Y72300D02*
X144132Y61468D01*
X133300Y72300D02*
Y78300D01*
X142350Y84155D02*
X142400Y84105D01*
X133300Y84206D02*
X133350Y84155D01*
X142350D01*
D14*
X133300Y84206D02*
D03*
Y78300D02*
D03*
X142400Y78200D02*
D03*
Y84105D02*
D03*
D15*
X144132Y49700D02*
D03*
X110668D02*
D03*
D16*
X393900Y61568D02*
D03*
Y95032D02*
D03*
D28*
X458766Y558134D02*
X520700Y496200D01*
X458766Y558134D02*
Y566800D01*
X507979Y552586D02*
X570400Y490165D01*
X507979Y552586D02*
Y566799D01*
X507979Y566800D01*
X518844Y575618D02*
X520026Y576800D01*
X513368Y572189D02*
X517821Y576642D01*
X517821D01*
X513368Y556532D02*
Y572189D01*
Y556532D02*
X573200Y496700D01*
X508923Y575698D02*
X510026Y576800D01*
X503526Y550741D02*
X551040Y503228D01*
X503526Y572189D02*
X507978Y576642D01*
X507979D01*
X503526Y550741D02*
Y572189D01*
X473998Y561402D02*
X529700Y505700D01*
X479159Y575933D02*
X480026Y576800D01*
X473998Y561402D02*
Y572189D01*
X478450Y576642D01*
X478451D01*
X468609Y558491D02*
X526500Y500600D01*
X468609Y558491D02*
Y566799D01*
X468610Y566800D01*
X464156Y558844D02*
Y570930D01*
Y558844D02*
X523800Y499200D01*
X464156Y570930D02*
X470026Y576800D01*
X454313Y555387D02*
X517700Y492000D01*
X454313Y571087D02*
X460026Y576800D01*
X454313Y555387D02*
Y571087D01*
X448924Y555376D02*
X514874Y489426D01*
X448924Y566799D02*
X448924Y566800D01*
X448924Y555376D02*
Y566799D01*
X446913Y573687D02*
X450026Y576800D01*
X444471Y571245D02*
X446913Y573687D01*
X444471Y555129D02*
Y571245D01*
Y555129D02*
X445300Y554300D01*
X420026Y576800D02*
X423849Y572977D01*
Y557951D02*
Y572977D01*
X410026Y576800D02*
X414100Y572726D01*
Y558100D02*
Y572726D01*
Y558100D02*
X452072Y520127D01*
X385100Y550200D02*
Y571726D01*
X390026Y550974D02*
Y566800D01*
X405000Y555000D02*
Y571826D01*
X400026Y576800D02*
X405000Y571826D01*
X419900Y566674D02*
X420026Y566800D01*
X419900Y558200D02*
Y566674D01*
X395200Y553400D02*
Y571626D01*
X390026Y576800D02*
X395200Y571626D01*
Y553400D02*
X425700Y522900D01*
X423849Y557951D02*
X458900Y522900D01*
X445300Y554300D02*
X511600Y488000D01*
X570400Y214036D02*
Y490165D01*
X529700Y349200D02*
Y505700D01*
X433840Y291028D02*
X458900Y316087D01*
Y522900D01*
X374800Y157700D02*
Y472353D01*
X383200Y127100D02*
X419900D01*
X374300Y136000D02*
X383200Y127100D01*
X374800Y152112D02*
Y157700D01*
X374300Y151612D02*
X374800Y152112D01*
X374300Y136000D02*
Y151612D01*
X484575Y102625D02*
X484900Y102300D01*
X484250Y155850D02*
X484575Y155525D01*
Y102625D02*
Y155525D01*
X484400Y206900D02*
X484550Y207050D01*
X484400Y156000D02*
Y206900D01*
X484250Y155850D02*
X484400Y156000D01*
X484647Y207147D02*
Y260653D01*
X484745Y260750D01*
X484550Y207050D02*
X484647Y207147D01*
X484545Y260950D02*
Y315050D01*
X484344Y315250D02*
X484545Y315050D01*
Y260950D02*
X484745Y260750D01*
X484494Y366900D02*
X484645Y367050D01*
X484494Y315400D02*
Y366900D01*
X484344Y315250D02*
X484494Y315400D01*
X484445Y367250D02*
Y421650D01*
X484244Y421850D02*
X484445Y421650D01*
Y367250D02*
X484645Y367050D01*
X483972Y422122D02*
Y472528D01*
Y422122D02*
X484244Y421850D01*
X483700Y472800D02*
X483972Y472528D01*
X526500Y330800D02*
Y500600D01*
X523800Y299800D02*
Y499200D01*
X520700Y287200D02*
Y496200D01*
X517700Y241300D02*
Y492000D01*
X514874Y193826D02*
Y489426D01*
X511600Y153000D02*
Y488000D01*
X374800Y472353D02*
X375905Y473459D01*
Y474000D01*
X573200Y163741D02*
Y496700D01*
X390026Y550974D02*
X414200Y526800D01*
X529700Y349200D02*
X534786Y344114D01*
X550980D01*
X526500Y330800D02*
X533300Y324000D01*
X555345D01*
X564759Y314586D01*
X523800Y299800D02*
X532582Y291018D01*
X550980D01*
X520700Y287200D02*
X546409Y261491D01*
X564759D01*
X517700Y241300D02*
X521077Y237923D01*
X550980D01*
X514874Y193826D02*
X523872Y184828D01*
X550980D01*
X511600Y153000D02*
X531718Y132882D01*
X550980D01*
X564759Y208395D02*
X570400Y214036D01*
X564759Y155300D02*
X573200Y163741D01*
X455500Y322480D02*
Y522600D01*
X419900Y558200D02*
X455500Y522600D01*
X452072Y372153D02*
Y520127D01*
X439700Y306500D02*
Y520300D01*
X405000Y555000D02*
X439700Y520300D01*
X425700Y303800D02*
Y522900D01*
X414200Y227600D02*
Y526800D01*
X421100Y271400D02*
Y299200D01*
X425700Y303800D01*
X426200Y293000D02*
X439700Y306500D01*
X426200Y273600D02*
Y293000D01*
X447620Y367700D02*
X452072Y372153D01*
X447620Y314600D02*
X455500Y322480D01*
X426200Y273600D02*
X438300Y261500D01*
X447620D01*
X433980Y239128D02*
Y258521D01*
X421100Y271400D02*
X433980Y258521D01*
X432200Y209600D02*
X447759D01*
X414200Y227600D02*
X432200Y209600D01*
D29*
X517821Y559722D02*
X576500Y501043D01*
X517821Y559722D02*
Y566800D01*
X400026Y554774D02*
Y566800D01*
X409900Y566674D02*
X410026Y566800D01*
X409900Y555800D02*
Y566674D01*
X462900Y252151D02*
X472239Y261491D01*
X462900Y208000D02*
Y252151D01*
Y155500D02*
Y208000D01*
Y112694D02*
Y155500D01*
Y112694D02*
X472239Y103355D01*
X400026Y554774D02*
X433840Y520960D01*
X576500Y115096D02*
Y501043D01*
X564759Y103355D02*
X576500Y115096D01*
X447620Y473900D02*
Y518080D01*
X409900Y555800D02*
X447620Y518080D01*
X433840Y503428D02*
Y520960D01*
D30*
X380026Y576800D02*
X385100Y571726D01*
X380026Y547874D02*
Y566800D01*
X355239Y209600D02*
X355432D01*
X363266Y217435D01*
Y253333D01*
X355100Y261500D02*
X363266Y253333D01*
X417500Y61568D02*
X431200Y47868D01*
Y18485D02*
X436063Y13622D01*
X431200Y18485D02*
Y47868D01*
X462900Y208000D02*
X463295Y208395D01*
X472239D01*
X462900Y155500D02*
X463100Y155300D01*
X472239D01*
X385100Y550200D02*
X409800Y525500D01*
X380026Y547874D02*
X404800Y523100D01*
X409800Y206900D02*
Y525500D01*
X404800Y204700D02*
Y523100D01*
X409800Y206900D02*
X425600Y191100D01*
X442400D01*
X447620Y185880D01*
Y155300D02*
Y185880D01*
X404800Y204700D02*
X424672Y184828D01*
X433840D01*
X393900Y61568D02*
X417500D01*
D31*
X392300Y5500D02*
X417941D01*
X383900Y13900D02*
X392300Y5500D01*
X383900Y13900D02*
Y32200D01*
X244100Y40100D02*
X376000D01*
X383900Y32200D01*
X417941Y5500D02*
X426063Y13622D01*
X355100Y141200D02*
Y155300D01*
Y141200D02*
X378300Y118000D01*
Y53200D02*
Y118000D01*
X386668Y61568D02*
X393900D01*
X378300Y53200D02*
X386668Y61568D01*
X149900Y33400D02*
X176600D01*
X144132Y39168D02*
X149900Y33400D01*
X144132Y39168D02*
Y49700D01*
D32*
X219100Y24250D02*
Y100600D01*
X220100Y101600D01*
X63800Y12800D02*
X207650D01*
X219100Y24250D01*
X51026Y25574D02*
Y101100D01*
Y25574D02*
X63800Y12800D01*
X91526Y163228D02*
Y213374D01*
X85100Y219800D02*
X91526Y213374D01*
X58626Y165428D02*
Y204874D01*
X20200Y243300D02*
Y264789D01*
Y243300D02*
X58626Y204874D01*
D33*
X11811Y570866D02*
D03*
Y19685D02*
D03*
X562992Y570866D02*
D03*
Y19685D02*
D03*
D34*
X517821Y566800D02*
D03*
X496063Y23622D02*
D03*
X78740Y574803D02*
D03*
D35*
X517821Y576642D02*
D03*
X507979Y566800D02*
D03*
Y576642D02*
D03*
X498136Y566800D02*
D03*
Y576642D02*
D03*
X488294Y566800D02*
D03*
Y576642D02*
D03*
X478451Y566800D02*
D03*
Y576642D02*
D03*
X468609Y566800D02*
D03*
Y576642D02*
D03*
X458766Y566800D02*
D03*
Y576642D02*
D03*
X448924Y566800D02*
D03*
Y576642D02*
D03*
X439081Y566800D02*
D03*
Y576642D02*
D03*
X429239Y566800D02*
D03*
Y576642D02*
D03*
X419396Y566800D02*
D03*
Y576642D02*
D03*
X409554Y566800D02*
D03*
Y576642D02*
D03*
X399711Y566800D02*
D03*
Y576642D02*
D03*
X389869Y566800D02*
D03*
Y576642D02*
D03*
X380026Y566800D02*
D03*
Y576642D02*
D03*
X551040Y503228D02*
D03*
X564820Y473700D02*
D03*
X537261D02*
D03*
X472300D02*
D03*
Y503228D02*
D03*
X550980Y450305D02*
D03*
X564759Y420777D02*
D03*
X537200D02*
D03*
X472239D02*
D03*
Y450305D02*
D03*
X550980Y397209D02*
D03*
X564759Y367682D02*
D03*
X537200D02*
D03*
X472239D02*
D03*
Y397209D02*
D03*
X550980Y344114D02*
D03*
X564759Y314586D02*
D03*
X537200D02*
D03*
X472239D02*
D03*
Y344114D02*
D03*
Y291018D02*
D03*
Y261491D02*
D03*
X537200D02*
D03*
X564759D02*
D03*
X550980Y291018D02*
D03*
Y237923D02*
D03*
X564759Y208395D02*
D03*
X537200D02*
D03*
X472239D02*
D03*
Y237923D02*
D03*
X550980Y184828D02*
D03*
X564759Y155300D02*
D03*
X537200D02*
D03*
X472239D02*
D03*
Y184828D02*
D03*
X550980Y132882D02*
D03*
X564759Y103355D02*
D03*
X537200D02*
D03*
X472239D02*
D03*
Y132882D02*
D03*
X355100Y184828D02*
D03*
Y155300D02*
D03*
X420061D02*
D03*
X447620D02*
D03*
X433840Y184828D02*
D03*
X355239Y239128D02*
D03*
Y209600D02*
D03*
X420200D02*
D03*
X447759D02*
D03*
X433980Y239128D02*
D03*
X355100Y291028D02*
D03*
Y261500D02*
D03*
X420061D02*
D03*
X447620D02*
D03*
X433840Y291028D02*
D03*
X355100Y344128D02*
D03*
Y314600D02*
D03*
X420061D02*
D03*
X447620D02*
D03*
X433840Y344128D02*
D03*
X355100Y397228D02*
D03*
Y367700D02*
D03*
X420061D02*
D03*
X447620D02*
D03*
X433840Y397228D02*
D03*
X355100Y503428D02*
D03*
Y473900D02*
D03*
X420061D02*
D03*
X447620D02*
D03*
X433840Y503428D02*
D03*
X355100Y450328D02*
D03*
Y420800D02*
D03*
X420061D02*
D03*
X447620D02*
D03*
X433840Y450328D02*
D03*
X396063Y13622D02*
D03*
Y23622D02*
D03*
X406063Y13622D02*
D03*
Y23622D02*
D03*
X416063Y13622D02*
D03*
Y23622D02*
D03*
X426063Y13622D02*
D03*
Y23622D02*
D03*
X436063Y13622D02*
D03*
Y23622D02*
D03*
X446063Y13622D02*
D03*
Y23622D02*
D03*
X456063Y13622D02*
D03*
Y23622D02*
D03*
X466063Y13622D02*
D03*
Y23622D02*
D03*
X476063Y13622D02*
D03*
Y23622D02*
D03*
X486063Y13622D02*
D03*
Y23622D02*
D03*
X496063Y13622D02*
D03*
X48740Y564803D02*
D03*
Y574803D02*
D03*
X58740Y564803D02*
D03*
Y574803D02*
D03*
X68740Y564803D02*
D03*
Y574803D02*
D03*
X78740Y564803D02*
D03*
X268800Y80700D02*
D03*
D36*
X16226Y357200D02*
D03*
X96935D02*
D03*
X25426Y326900D02*
D03*
X84481D02*
D03*
X51026Y101100D02*
D03*
X90396D02*
D03*
X75400Y499355D02*
D03*
Y440300D02*
D03*
X58626Y135900D02*
D03*
Y165428D02*
D03*
X75252Y387000D02*
D03*
X33126D02*
D03*
Y407000D02*
D03*
X75252D02*
D03*
X91526Y163228D02*
D03*
Y133700D02*
D03*
X85100Y259170D02*
D03*
Y219800D02*
D03*
X34126Y440300D02*
D03*
Y499355D02*
D03*
D37*
X356600Y103400D02*
D03*
Y63400D02*
D03*
Y23400D02*
D03*
X176600Y33400D02*
D03*
Y53400D02*
D03*
Y93400D02*
D03*
X20426Y141800D02*
D03*
Y121800D02*
D03*
Y101800D02*
D03*
D38*
X282385Y548013D02*
D03*
X242385D02*
D03*
X167385D02*
D03*
X169826Y168800D02*
D03*
X204865D02*
D03*
X224865D02*
D03*
X20200Y176600D02*
D03*
Y264789D02*
D03*
D39*
X500716Y458800D02*
D03*
X503216Y13800D02*
D03*
X500716Y8800D02*
D03*
X490716Y478800D02*
D03*
Y468800D02*
D03*
X493216Y463800D02*
D03*
X490716Y458800D02*
D03*
X493216Y413800D02*
D03*
X490716Y408800D02*
D03*
X493216Y403800D02*
D03*
X490716Y358800D02*
D03*
Y348800D02*
D03*
Y338800D02*
D03*
Y328800D02*
D03*
Y308800D02*
D03*
Y298800D02*
D03*
Y248800D02*
D03*
Y8800D02*
D03*
X488216Y463800D02*
D03*
X480716Y8800D02*
D03*
X475716Y508800D02*
D03*
X478216Y463800D02*
D03*
X475716Y458800D02*
D03*
X478216Y413800D02*
D03*
Y403800D02*
D03*
Y363800D02*
D03*
X475716Y358800D02*
D03*
X478216Y353800D02*
D03*
Y313800D02*
D03*
X475716Y308800D02*
D03*
X478216Y303800D02*
D03*
X475716Y298800D02*
D03*
X478216Y253800D02*
D03*
X475716Y248800D02*
D03*
X478216Y243800D02*
D03*
Y203800D02*
D03*
X475716Y198800D02*
D03*
X478216Y193800D02*
D03*
X475716Y138800D02*
D03*
Y118800D02*
D03*
Y88800D02*
D03*
X478216Y83800D02*
D03*
X475716Y78800D02*
D03*
X478216Y73800D02*
D03*
X475716Y68800D02*
D03*
X478216Y63800D02*
D03*
X475716Y58800D02*
D03*
X478216Y53800D02*
D03*
X473216Y493800D02*
D03*
X470716Y488800D02*
D03*
X473216Y483800D02*
D03*
Y463800D02*
D03*
X470716Y458800D02*
D03*
Y358800D02*
D03*
X473216Y353800D02*
D03*
X470716Y308800D02*
D03*
X473216Y303800D02*
D03*
X470716Y298800D02*
D03*
X473216Y253800D02*
D03*
X470716Y248800D02*
D03*
Y228800D02*
D03*
X473216Y223800D02*
D03*
X470716Y218800D02*
D03*
Y198800D02*
D03*
X473216Y193800D02*
D03*
X470716Y178800D02*
D03*
X473216Y173800D02*
D03*
X470716Y168800D02*
D03*
X473216Y163800D02*
D03*
X470716Y148800D02*
D03*
X473216Y143800D02*
D03*
X470716Y138800D02*
D03*
X473216Y123800D02*
D03*
X470716Y118800D02*
D03*
X473216Y113800D02*
D03*
X470716Y88800D02*
D03*
X473216Y83800D02*
D03*
X470716Y78800D02*
D03*
X473216Y73800D02*
D03*
X470716Y68800D02*
D03*
X473216Y63800D02*
D03*
X470716Y58800D02*
D03*
X473216Y53800D02*
D03*
X470716Y48800D02*
D03*
Y8800D02*
D03*
X468216Y493800D02*
D03*
Y483800D02*
D03*
Y243800D02*
D03*
Y223800D02*
D03*
Y213800D02*
D03*
Y193800D02*
D03*
Y173800D02*
D03*
Y163800D02*
D03*
Y143800D02*
D03*
Y123800D02*
D03*
Y113800D02*
D03*
X465716Y98800D02*
D03*
Y88800D02*
D03*
X468216Y83800D02*
D03*
X465716Y78800D02*
D03*
X468216Y73800D02*
D03*
X465716Y68800D02*
D03*
X468216Y63800D02*
D03*
X465716Y58800D02*
D03*
X468216Y53800D02*
D03*
X465716Y48800D02*
D03*
X468216Y43800D02*
D03*
X463216Y103800D02*
D03*
X460716Y98800D02*
D03*
Y88800D02*
D03*
X463216Y83800D02*
D03*
X460716Y78800D02*
D03*
X463216Y73800D02*
D03*
X460716Y68800D02*
D03*
X463216Y63800D02*
D03*
X460716Y58800D02*
D03*
X463216Y53800D02*
D03*
X460716Y48800D02*
D03*
X463216Y43800D02*
D03*
X460716Y38800D02*
D03*
Y28800D02*
D03*
Y18800D02*
D03*
Y8800D02*
D03*
X458216Y133800D02*
D03*
X455716Y128800D02*
D03*
X458216Y123800D02*
D03*
X455716Y118800D02*
D03*
X458216Y113800D02*
D03*
X455716Y108800D02*
D03*
X458216Y103800D02*
D03*
X455716Y98800D02*
D03*
Y88800D02*
D03*
X458216Y83800D02*
D03*
X455716Y78800D02*
D03*
X458216Y73800D02*
D03*
X455716Y68800D02*
D03*
X458216Y63800D02*
D03*
X455716Y58800D02*
D03*
X458216Y53800D02*
D03*
X455716Y48800D02*
D03*
X458216Y43800D02*
D03*
X455716Y38800D02*
D03*
X458216Y33800D02*
D03*
X453216Y133800D02*
D03*
X450716Y128800D02*
D03*
X453216Y123800D02*
D03*
X450716Y118800D02*
D03*
X453216Y113800D02*
D03*
X450716Y108800D02*
D03*
X453216Y103800D02*
D03*
X450716Y98800D02*
D03*
Y88800D02*
D03*
X453216Y83800D02*
D03*
X450716Y78800D02*
D03*
X453216Y73800D02*
D03*
X450716Y68800D02*
D03*
X453216Y63800D02*
D03*
X450716Y58800D02*
D03*
X453216Y53800D02*
D03*
X450716Y48800D02*
D03*
X453216Y43800D02*
D03*
X450716Y38800D02*
D03*
X453216Y33800D02*
D03*
X450716Y18800D02*
D03*
Y8800D02*
D03*
X448216Y133800D02*
D03*
X445716Y128800D02*
D03*
X448216Y123800D02*
D03*
X445716Y118800D02*
D03*
X448216Y113800D02*
D03*
X445716Y108800D02*
D03*
X448216Y103800D02*
D03*
X445716Y98800D02*
D03*
Y88800D02*
D03*
X448216Y83800D02*
D03*
X445716Y78800D02*
D03*
X448216Y73800D02*
D03*
X445716Y68800D02*
D03*
X448216Y63800D02*
D03*
X445716Y58800D02*
D03*
X448216Y53800D02*
D03*
X445716Y48800D02*
D03*
X448216Y43800D02*
D03*
X443216Y133800D02*
D03*
X440716Y128800D02*
D03*
X443216Y123800D02*
D03*
X440716Y118800D02*
D03*
X443216Y113800D02*
D03*
X440716Y108800D02*
D03*
X443216Y103800D02*
D03*
X440716Y98800D02*
D03*
Y88800D02*
D03*
X443216Y83800D02*
D03*
X440716Y78800D02*
D03*
X443216Y73800D02*
D03*
X440716Y68800D02*
D03*
X443216Y63800D02*
D03*
X440716Y58800D02*
D03*
X443216Y53800D02*
D03*
X440716Y48800D02*
D03*
X443216Y43800D02*
D03*
X440716Y18800D02*
D03*
Y8800D02*
D03*
X438216Y133800D02*
D03*
X435716Y128800D02*
D03*
X438216Y123800D02*
D03*
X435716Y118800D02*
D03*
X438216Y113800D02*
D03*
X435716Y108800D02*
D03*
X438216Y103800D02*
D03*
X435716Y98800D02*
D03*
Y88800D02*
D03*
X438216Y83800D02*
D03*
X435716Y78800D02*
D03*
X438216Y73800D02*
D03*
X435716Y68800D02*
D03*
X438216Y63800D02*
D03*
X435716Y58800D02*
D03*
X438216Y53800D02*
D03*
X433216Y133800D02*
D03*
X430716Y128800D02*
D03*
X433216Y123800D02*
D03*
X430716Y118800D02*
D03*
X433216Y113800D02*
D03*
X430716Y108800D02*
D03*
X433216Y103800D02*
D03*
X430716Y98800D02*
D03*
Y88800D02*
D03*
X433216Y83800D02*
D03*
X430716Y78800D02*
D03*
X433216Y73800D02*
D03*
X430716Y68800D02*
D03*
X433216Y63800D02*
D03*
X430716Y58800D02*
D03*
X433216Y53800D02*
D03*
X430716Y8800D02*
D03*
X428216Y133800D02*
D03*
X425716Y128800D02*
D03*
X428216Y123800D02*
D03*
X425716Y118800D02*
D03*
X428216Y113800D02*
D03*
X425716Y108800D02*
D03*
X428216Y103800D02*
D03*
X425716Y88800D02*
D03*
X428216Y83800D02*
D03*
X425716Y78800D02*
D03*
X428216Y73800D02*
D03*
X425716Y68800D02*
D03*
X428216Y63800D02*
D03*
X423216Y133800D02*
D03*
X420716Y88800D02*
D03*
X423216Y83800D02*
D03*
X420716Y78800D02*
D03*
X423216Y73800D02*
D03*
X420716Y68800D02*
D03*
X423216Y63800D02*
D03*
X418216Y133800D02*
D03*
X415716Y118800D02*
D03*
Y108800D02*
D03*
Y98800D02*
D03*
X418216Y93800D02*
D03*
X415716Y88800D02*
D03*
X418216Y83800D02*
D03*
X415716Y78800D02*
D03*
X418216Y73800D02*
D03*
X413216Y133800D02*
D03*
X405716Y138800D02*
D03*
X408216Y133800D02*
D03*
X390716Y518800D02*
D03*
Y508800D02*
D03*
Y488800D02*
D03*
Y478800D02*
D03*
Y468800D02*
D03*
Y118800D02*
D03*
Y108800D02*
D03*
Y78800D02*
D03*
Y48800D02*
D03*
Y38800D02*
D03*
Y28800D02*
D03*
X385716Y518800D02*
D03*
X388216Y513800D02*
D03*
X385716Y508800D02*
D03*
X388216Y483800D02*
D03*
X385716Y468800D02*
D03*
X388216Y463800D02*
D03*
X385716Y458800D02*
D03*
X388216Y433800D02*
D03*
X385716Y408800D02*
D03*
Y118800D02*
D03*
X388216Y113800D02*
D03*
X385716Y108800D02*
D03*
X388216Y103800D02*
D03*
X385716Y98800D02*
D03*
Y88800D02*
D03*
X388216Y83800D02*
D03*
X385716Y78800D02*
D03*
X388216Y73800D02*
D03*
X385716Y68800D02*
D03*
X388216Y53800D02*
D03*
X385716Y48800D02*
D03*
X388216Y43800D02*
D03*
X380716Y518800D02*
D03*
X383216Y513800D02*
D03*
X380716Y508800D02*
D03*
Y498800D02*
D03*
Y468800D02*
D03*
X383216Y463800D02*
D03*
X380716Y458800D02*
D03*
X383216Y413800D02*
D03*
X380716Y408800D02*
D03*
X383216Y403800D02*
D03*
Y363800D02*
D03*
X380716Y358800D02*
D03*
X383216Y353800D02*
D03*
X380716Y328800D02*
D03*
Y308800D02*
D03*
Y298800D02*
D03*
X375716Y518800D02*
D03*
X378216Y513800D02*
D03*
X375716Y508800D02*
D03*
Y498800D02*
D03*
Y128800D02*
D03*
Y28800D02*
D03*
X370716Y518800D02*
D03*
X373216Y513800D02*
D03*
X370716Y508800D02*
D03*
Y498800D02*
D03*
Y478800D02*
D03*
Y468800D02*
D03*
Y458800D02*
D03*
Y408800D02*
D03*
Y358800D02*
D03*
Y338800D02*
D03*
Y308800D02*
D03*
Y298800D02*
D03*
Y258800D02*
D03*
Y208800D02*
D03*
Y198800D02*
D03*
Y178800D02*
D03*
X373216Y113800D02*
D03*
X370716Y108800D02*
D03*
X373216Y103800D02*
D03*
X370716Y98800D02*
D03*
X373216Y93800D02*
D03*
X370716Y88800D02*
D03*
X373216Y83800D02*
D03*
X370716Y78800D02*
D03*
X373216Y73800D02*
D03*
X370716Y68800D02*
D03*
X373216Y63800D02*
D03*
X370716Y58800D02*
D03*
Y48800D02*
D03*
X373216Y33800D02*
D03*
X370716Y28800D02*
D03*
X365716Y518800D02*
D03*
X368216Y513800D02*
D03*
X365716Y508800D02*
D03*
Y498800D02*
D03*
X368216Y473800D02*
D03*
X365716Y468800D02*
D03*
X368216Y463800D02*
D03*
X365716Y458800D02*
D03*
X368216Y443800D02*
D03*
Y423800D02*
D03*
X365716Y418800D02*
D03*
X368216Y413800D02*
D03*
X365716Y408800D02*
D03*
X368216Y403800D02*
D03*
X365716Y368800D02*
D03*
X368216Y363800D02*
D03*
X365716Y358800D02*
D03*
X368216Y353800D02*
D03*
X365716Y338800D02*
D03*
Y318800D02*
D03*
X368216Y313800D02*
D03*
X365716Y308800D02*
D03*
X368216Y303800D02*
D03*
X365716Y298800D02*
D03*
X368216Y283800D02*
D03*
Y263800D02*
D03*
X365716Y258800D02*
D03*
X368216Y233800D02*
D03*
Y213800D02*
D03*
X365716Y208800D02*
D03*
X368216Y203800D02*
D03*
X365716Y198800D02*
D03*
Y178800D02*
D03*
Y158800D02*
D03*
X368216Y153800D02*
D03*
X365716Y148800D02*
D03*
X368216Y143800D02*
D03*
X365716Y138800D02*
D03*
Y118800D02*
D03*
X368216Y113800D02*
D03*
X365716Y108800D02*
D03*
X368216Y103800D02*
D03*
X365716Y98800D02*
D03*
X368216Y93800D02*
D03*
X365716Y88800D02*
D03*
X368216Y83800D02*
D03*
X365716Y78800D02*
D03*
X368216Y73800D02*
D03*
X365716Y68800D02*
D03*
X368216Y63800D02*
D03*
X365716Y58800D02*
D03*
X368216Y53800D02*
D03*
X365716Y48800D02*
D03*
X368216Y33800D02*
D03*
X365716Y28800D02*
D03*
X360716Y518800D02*
D03*
X363216Y513800D02*
D03*
X360716Y508800D02*
D03*
X363216Y473800D02*
D03*
X360716Y468800D02*
D03*
X363216Y463800D02*
D03*
X360716Y458800D02*
D03*
X363216Y413800D02*
D03*
X360716Y408800D02*
D03*
X363216Y403800D02*
D03*
Y363800D02*
D03*
X360716Y358800D02*
D03*
X363216Y353800D02*
D03*
X360716Y338800D02*
D03*
X363216Y313800D02*
D03*
X360716Y308800D02*
D03*
X363216Y303800D02*
D03*
X360716Y298800D02*
D03*
X363216Y283800D02*
D03*
Y203800D02*
D03*
X360716Y198800D02*
D03*
X363216Y153800D02*
D03*
X360716Y148800D02*
D03*
X363216Y143800D02*
D03*
Y123800D02*
D03*
X360716Y118800D02*
D03*
X363216Y113800D02*
D03*
Y93800D02*
D03*
X360716Y88800D02*
D03*
X363216Y83800D02*
D03*
X360716Y78800D02*
D03*
X363216Y73800D02*
D03*
Y53800D02*
D03*
X360716Y48800D02*
D03*
X363216Y33800D02*
D03*
X355716Y518800D02*
D03*
X358216Y513800D02*
D03*
X355716Y488800D02*
D03*
X358216Y483800D02*
D03*
Y463800D02*
D03*
X355716Y458800D02*
D03*
Y438800D02*
D03*
X358216Y433800D02*
D03*
X355716Y428800D02*
D03*
X358216Y413800D02*
D03*
X355716Y408800D02*
D03*
X358216Y403800D02*
D03*
X355716Y378800D02*
D03*
Y358800D02*
D03*
X358216Y353800D02*
D03*
Y323800D02*
D03*
Y303800D02*
D03*
X355716Y298800D02*
D03*
X358216Y273800D02*
D03*
X355716Y268800D02*
D03*
Y248800D02*
D03*
Y218800D02*
D03*
X358216Y203800D02*
D03*
X355716Y198800D02*
D03*
Y128800D02*
D03*
X358216Y123800D02*
D03*
X355716Y118800D02*
D03*
X358216Y113800D02*
D03*
Y93800D02*
D03*
X355716Y88800D02*
D03*
X358216Y83800D02*
D03*
X355716Y78800D02*
D03*
X358216Y73800D02*
D03*
Y53800D02*
D03*
X355716Y48800D02*
D03*
X358216Y33800D02*
D03*
X350716Y518800D02*
D03*
X353216Y513800D02*
D03*
X350716Y508800D02*
D03*
Y498800D02*
D03*
X353216Y493800D02*
D03*
X350716Y488800D02*
D03*
X353216Y483800D02*
D03*
X350716Y478800D02*
D03*
X353216Y463800D02*
D03*
X350716Y458800D02*
D03*
X353216Y443800D02*
D03*
X350716Y438800D02*
D03*
X353216Y433800D02*
D03*
X350716Y428800D02*
D03*
X353216Y413800D02*
D03*
X350716Y408800D02*
D03*
X353216Y403800D02*
D03*
X350716Y378800D02*
D03*
X353216Y373800D02*
D03*
X350716Y358800D02*
D03*
X353216Y353800D02*
D03*
X350716Y348800D02*
D03*
Y328800D02*
D03*
X353216Y323800D02*
D03*
X350716Y308800D02*
D03*
X353216Y303800D02*
D03*
X350716Y298800D02*
D03*
Y278800D02*
D03*
X353216Y273800D02*
D03*
X350716Y268800D02*
D03*
X353216Y253800D02*
D03*
X350716Y248800D02*
D03*
Y228800D02*
D03*
X353216Y223800D02*
D03*
X350716Y218800D02*
D03*
X353216Y203800D02*
D03*
X350716Y198800D02*
D03*
X353216Y133800D02*
D03*
X350716Y128800D02*
D03*
X353216Y123800D02*
D03*
X350716Y118800D02*
D03*
X353216Y113800D02*
D03*
X350716Y108800D02*
D03*
X353216Y93800D02*
D03*
X350716Y88800D02*
D03*
X353216Y83800D02*
D03*
X350716Y78800D02*
D03*
X353216Y73800D02*
D03*
X350716Y68800D02*
D03*
X353216Y53800D02*
D03*
X350716Y48800D02*
D03*
X353216Y33800D02*
D03*
X350716Y28800D02*
D03*
X345716Y518800D02*
D03*
X348216Y513800D02*
D03*
X345716Y508800D02*
D03*
X348216Y503800D02*
D03*
X345716Y498800D02*
D03*
X348216Y493800D02*
D03*
X345716Y488800D02*
D03*
X348216Y483800D02*
D03*
X345716Y478800D02*
D03*
X348216Y473800D02*
D03*
Y453800D02*
D03*
X345716Y448800D02*
D03*
X348216Y443800D02*
D03*
X345716Y438800D02*
D03*
X348216Y433800D02*
D03*
X345716Y428800D02*
D03*
X348216Y413800D02*
D03*
X345716Y408800D02*
D03*
X348216Y403800D02*
D03*
X345716Y398800D02*
D03*
X348216Y393800D02*
D03*
X345716Y388800D02*
D03*
X348216Y383800D02*
D03*
X345716Y378800D02*
D03*
X348216Y373800D02*
D03*
X345716Y358800D02*
D03*
X348216Y353800D02*
D03*
X345716Y348800D02*
D03*
X348216Y343800D02*
D03*
X345716Y338800D02*
D03*
X348216Y333800D02*
D03*
X345716Y328800D02*
D03*
X348216Y323800D02*
D03*
X345716Y308800D02*
D03*
X348216Y303800D02*
D03*
X345716Y298800D02*
D03*
X348216Y293800D02*
D03*
X345716Y288800D02*
D03*
X348216Y283800D02*
D03*
X345716Y278800D02*
D03*
X348216Y273800D02*
D03*
X345716Y268800D02*
D03*
X348216Y253800D02*
D03*
X345716Y248800D02*
D03*
X348216Y243800D02*
D03*
X345716Y238800D02*
D03*
X348216Y233800D02*
D03*
X345716Y228800D02*
D03*
X348216Y223800D02*
D03*
X345716Y218800D02*
D03*
X348216Y203800D02*
D03*
X345716Y198800D02*
D03*
X348216Y153800D02*
D03*
X345716Y148800D02*
D03*
X348216Y143800D02*
D03*
X345716Y138800D02*
D03*
X348216Y133800D02*
D03*
X345716Y128800D02*
D03*
X348216Y123800D02*
D03*
X345716Y118800D02*
D03*
X348216Y113800D02*
D03*
X345716Y108800D02*
D03*
Y98800D02*
D03*
X348216Y93800D02*
D03*
X345716Y88800D02*
D03*
X348216Y83800D02*
D03*
X345716Y78800D02*
D03*
X348216Y73800D02*
D03*
X345716Y68800D02*
D03*
X348216Y63800D02*
D03*
X345716Y58800D02*
D03*
X348216Y53800D02*
D03*
Y33800D02*
D03*
X345716Y28800D02*
D03*
Y18800D02*
D03*
X340716Y518800D02*
D03*
X343216Y513800D02*
D03*
X340716Y508800D02*
D03*
X343216Y503800D02*
D03*
X340716Y498800D02*
D03*
X343216Y493800D02*
D03*
X340716Y488800D02*
D03*
X343216Y483800D02*
D03*
X340716Y478800D02*
D03*
X343216Y473800D02*
D03*
X340716Y468800D02*
D03*
X343216Y453800D02*
D03*
Y443800D02*
D03*
Y433800D02*
D03*
Y413800D02*
D03*
Y403800D02*
D03*
Y393800D02*
D03*
Y383800D02*
D03*
Y373800D02*
D03*
Y353800D02*
D03*
Y343800D02*
D03*
Y333800D02*
D03*
Y323800D02*
D03*
Y303800D02*
D03*
Y293800D02*
D03*
Y283800D02*
D03*
Y273800D02*
D03*
Y253800D02*
D03*
X340716Y248800D02*
D03*
X343216Y243800D02*
D03*
X340716Y238800D02*
D03*
X343216Y233800D02*
D03*
X340716Y228800D02*
D03*
X343216Y223800D02*
D03*
X340716Y218800D02*
D03*
X343216Y203800D02*
D03*
X340716Y158800D02*
D03*
X343216Y153800D02*
D03*
X340716Y148800D02*
D03*
X343216Y143800D02*
D03*
X340716Y138800D02*
D03*
X343216Y133800D02*
D03*
X340716Y128800D02*
D03*
X343216Y123800D02*
D03*
X340716Y118800D02*
D03*
X343216Y113800D02*
D03*
X340716Y108800D02*
D03*
X343216Y83800D02*
D03*
X340716Y78800D02*
D03*
X343216Y33800D02*
D03*
X340716Y18800D02*
D03*
X335716Y518800D02*
D03*
X338216Y513800D02*
D03*
X335716Y508800D02*
D03*
X338216Y503800D02*
D03*
X335716Y498800D02*
D03*
X338216Y493800D02*
D03*
X335716Y488800D02*
D03*
X338216Y483800D02*
D03*
X335716Y478800D02*
D03*
X338216Y473800D02*
D03*
X335716Y468800D02*
D03*
X338216Y463800D02*
D03*
X335716Y258800D02*
D03*
X338216Y253800D02*
D03*
X335716Y248800D02*
D03*
X338216Y243800D02*
D03*
X335716Y238800D02*
D03*
X338216Y233800D02*
D03*
X335716Y228800D02*
D03*
X338216Y223800D02*
D03*
X335716Y218800D02*
D03*
X338216Y213800D02*
D03*
Y163800D02*
D03*
X335716Y158800D02*
D03*
X338216Y153800D02*
D03*
X335716Y148800D02*
D03*
X338216Y143800D02*
D03*
X335716Y138800D02*
D03*
X338216Y133800D02*
D03*
X335716Y128800D02*
D03*
X338216Y123800D02*
D03*
X335716Y118800D02*
D03*
X338216Y113800D02*
D03*
X335716Y108800D02*
D03*
Y98800D02*
D03*
X338216Y83800D02*
D03*
Y33800D02*
D03*
X335716Y18800D02*
D03*
X333216Y513800D02*
D03*
Y503800D02*
D03*
Y493800D02*
D03*
Y483800D02*
D03*
Y473800D02*
D03*
Y463800D02*
D03*
Y453800D02*
D03*
Y443800D02*
D03*
Y433800D02*
D03*
Y423800D02*
D03*
Y413800D02*
D03*
Y403800D02*
D03*
Y393800D02*
D03*
Y383800D02*
D03*
Y373800D02*
D03*
Y363800D02*
D03*
Y353800D02*
D03*
Y343800D02*
D03*
Y333800D02*
D03*
Y323800D02*
D03*
Y313800D02*
D03*
Y303800D02*
D03*
Y293800D02*
D03*
Y283800D02*
D03*
Y273800D02*
D03*
Y263800D02*
D03*
Y253800D02*
D03*
Y243800D02*
D03*
Y233800D02*
D03*
Y223800D02*
D03*
Y213800D02*
D03*
Y203800D02*
D03*
Y193800D02*
D03*
Y183800D02*
D03*
Y173800D02*
D03*
Y163800D02*
D03*
Y153800D02*
D03*
Y143800D02*
D03*
Y133800D02*
D03*
Y123800D02*
D03*
Y113800D02*
D03*
X330716Y108800D02*
D03*
X333216Y103800D02*
D03*
X330716Y98800D02*
D03*
X333216Y93800D02*
D03*
X330716Y88800D02*
D03*
Y28800D02*
D03*
X333216Y23800D02*
D03*
X330716Y18800D02*
D03*
X328216Y113800D02*
D03*
X325716Y108800D02*
D03*
X328216Y103800D02*
D03*
X325716Y98800D02*
D03*
X328216Y93800D02*
D03*
X325716Y88800D02*
D03*
X328216Y83800D02*
D03*
X325716Y68800D02*
D03*
X328216Y63800D02*
D03*
X325716Y58800D02*
D03*
X328216Y53800D02*
D03*
X325716Y48800D02*
D03*
X328216Y33800D02*
D03*
X325716Y28800D02*
D03*
X328216Y23800D02*
D03*
X325716Y18800D02*
D03*
X323216Y103800D02*
D03*
X320716Y98800D02*
D03*
X323216Y93800D02*
D03*
X320716Y88800D02*
D03*
X323216Y83800D02*
D03*
X320716Y68800D02*
D03*
X323216Y63800D02*
D03*
Y33800D02*
D03*
X318216Y103800D02*
D03*
X315716Y98800D02*
D03*
X318216Y93800D02*
D03*
X315716Y88800D02*
D03*
X318216Y83800D02*
D03*
X315716Y68800D02*
D03*
X318216Y63800D02*
D03*
X313216Y103800D02*
D03*
X310716Y98800D02*
D03*
X313216Y93800D02*
D03*
X310716Y88800D02*
D03*
X313216Y83800D02*
D03*
X310716Y68800D02*
D03*
X313216Y63800D02*
D03*
X308216Y103800D02*
D03*
X305716Y98800D02*
D03*
X308216Y93800D02*
D03*
X305716Y88800D02*
D03*
X308216Y83800D02*
D03*
X305716Y68800D02*
D03*
X308216Y63800D02*
D03*
X305716Y18800D02*
D03*
X303216Y103800D02*
D03*
X300716Y98800D02*
D03*
X303216Y93800D02*
D03*
X300716Y88800D02*
D03*
X303216Y83800D02*
D03*
X300716Y68800D02*
D03*
X303216Y63800D02*
D03*
X300716Y58800D02*
D03*
X303216Y33800D02*
D03*
X300716Y28800D02*
D03*
X303216Y23800D02*
D03*
X300716Y18800D02*
D03*
X298216Y103800D02*
D03*
X295716Y98800D02*
D03*
X298216Y93800D02*
D03*
X295716Y88800D02*
D03*
Y68800D02*
D03*
X298216Y63800D02*
D03*
X295716Y58800D02*
D03*
X298216Y33800D02*
D03*
X295716Y28800D02*
D03*
X298216Y23800D02*
D03*
X295716Y18800D02*
D03*
X293216Y103800D02*
D03*
X290716Y98800D02*
D03*
X293216Y93800D02*
D03*
Y73800D02*
D03*
X290716Y68800D02*
D03*
X293216Y63800D02*
D03*
X290716Y58800D02*
D03*
X293216Y53800D02*
D03*
Y33800D02*
D03*
X290716Y28800D02*
D03*
X293216Y23800D02*
D03*
X290716Y18800D02*
D03*
X288216Y103800D02*
D03*
X285716Y98800D02*
D03*
X288216Y93800D02*
D03*
Y73800D02*
D03*
X285716Y68800D02*
D03*
X288216Y63800D02*
D03*
X285716Y58800D02*
D03*
Y28800D02*
D03*
X288216Y23800D02*
D03*
X285716Y18800D02*
D03*
X283216Y103800D02*
D03*
X280716Y98800D02*
D03*
X283216Y93800D02*
D03*
X280716Y28800D02*
D03*
X283216Y23800D02*
D03*
X280716Y18800D02*
D03*
X278216Y93800D02*
D03*
X275716Y48800D02*
D03*
X278216Y33800D02*
D03*
X275716Y28800D02*
D03*
X278216Y23800D02*
D03*
X275716Y18800D02*
D03*
X273216Y93800D02*
D03*
X270716Y58800D02*
D03*
X273216Y53800D02*
D03*
X270716Y48800D02*
D03*
X273216Y33800D02*
D03*
X270716Y28800D02*
D03*
X273216Y23800D02*
D03*
X270716Y18800D02*
D03*
X268216Y103800D02*
D03*
Y93800D02*
D03*
X265716Y58800D02*
D03*
X268216Y53800D02*
D03*
X265716Y48800D02*
D03*
X268216Y33800D02*
D03*
X265716Y28800D02*
D03*
X268216Y23800D02*
D03*
X265716Y18800D02*
D03*
X263216Y93800D02*
D03*
X260716Y58800D02*
D03*
X263216Y53800D02*
D03*
X260716Y48800D02*
D03*
X263216Y33800D02*
D03*
X260716Y28800D02*
D03*
X263216Y23800D02*
D03*
X260716Y18800D02*
D03*
X258216Y93800D02*
D03*
X255716Y58800D02*
D03*
X258216Y53800D02*
D03*
Y33800D02*
D03*
X255716Y28800D02*
D03*
X258216Y23800D02*
D03*
X255716Y18800D02*
D03*
X253216Y93800D02*
D03*
X250716Y78800D02*
D03*
Y68800D02*
D03*
X253216Y63800D02*
D03*
X250716Y58800D02*
D03*
X253216Y53800D02*
D03*
X250716Y28800D02*
D03*
X253216Y23800D02*
D03*
X248216Y93800D02*
D03*
Y73800D02*
D03*
X245716Y68800D02*
D03*
X248216Y63800D02*
D03*
X245716Y58800D02*
D03*
X248216Y53800D02*
D03*
X245716Y28800D02*
D03*
X248216Y23800D02*
D03*
X243216Y93800D02*
D03*
X240716Y78800D02*
D03*
X243216Y73800D02*
D03*
X240716Y68800D02*
D03*
X243216Y63800D02*
D03*
X240716Y58800D02*
D03*
X243216Y53800D02*
D03*
X240716Y48800D02*
D03*
X243216Y33800D02*
D03*
Y23800D02*
D03*
X238216Y93800D02*
D03*
Y73800D02*
D03*
Y63800D02*
D03*
Y53800D02*
D03*
Y33800D02*
D03*
X233216Y93800D02*
D03*
X230716Y88800D02*
D03*
Y78800D02*
D03*
Y68800D02*
D03*
Y58800D02*
D03*
Y48800D02*
D03*
X233216Y33800D02*
D03*
X228216Y93800D02*
D03*
Y83800D02*
D03*
Y73800D02*
D03*
Y63800D02*
D03*
Y53800D02*
D03*
Y33800D02*
D03*
X318216Y578800D02*
D03*
X315716Y573800D02*
D03*
X318216Y568800D02*
D03*
X315716Y563800D02*
D03*
X318216Y558800D02*
D03*
X315716Y553800D02*
D03*
X318216Y548800D02*
D03*
X315716Y543800D02*
D03*
X318216Y538800D02*
D03*
X315716Y533800D02*
D03*
X318216Y528800D02*
D03*
X315716Y523800D02*
D03*
X318216Y518800D02*
D03*
X315716Y513800D02*
D03*
X318216Y508800D02*
D03*
X315716Y503800D02*
D03*
X318216Y498800D02*
D03*
X315716Y493800D02*
D03*
X318216Y488800D02*
D03*
X315716Y483800D02*
D03*
X318216Y478800D02*
D03*
X315716Y473800D02*
D03*
X318216Y468800D02*
D03*
X315716Y463800D02*
D03*
X318216Y458800D02*
D03*
X315716Y453800D02*
D03*
X318216Y448800D02*
D03*
X315716Y443800D02*
D03*
X318216Y438800D02*
D03*
X315716Y433800D02*
D03*
X318216Y428800D02*
D03*
X315716Y423800D02*
D03*
X318216Y418800D02*
D03*
X315716Y413800D02*
D03*
X318216Y408800D02*
D03*
X315716Y403800D02*
D03*
X318216Y398800D02*
D03*
X315716Y393800D02*
D03*
X318216Y388800D02*
D03*
X315716Y383800D02*
D03*
X318216Y378800D02*
D03*
X315716Y373800D02*
D03*
X318216Y368800D02*
D03*
X315716Y363800D02*
D03*
X318216Y358800D02*
D03*
X315716Y353800D02*
D03*
X318216Y348800D02*
D03*
X315716Y343800D02*
D03*
X318216Y338800D02*
D03*
X315716Y333800D02*
D03*
X318216Y328800D02*
D03*
X315716Y323800D02*
D03*
X318216Y318800D02*
D03*
X315716Y313800D02*
D03*
X318216Y308800D02*
D03*
X315716Y303800D02*
D03*
X318216Y298800D02*
D03*
X315716Y293800D02*
D03*
X318216Y288800D02*
D03*
X315716Y283800D02*
D03*
X318216Y278800D02*
D03*
X315716Y273800D02*
D03*
X318216Y268800D02*
D03*
X315716Y263800D02*
D03*
X318216Y258800D02*
D03*
X315716Y253800D02*
D03*
X318216Y248800D02*
D03*
X315716Y243800D02*
D03*
X318216Y238800D02*
D03*
X315716Y233800D02*
D03*
X318216Y228800D02*
D03*
X315716Y223800D02*
D03*
X318216Y218800D02*
D03*
X315716Y213800D02*
D03*
X318216Y208800D02*
D03*
X315716Y203800D02*
D03*
X318216Y198800D02*
D03*
X315716Y193800D02*
D03*
X318216Y188800D02*
D03*
X315716Y183800D02*
D03*
X318216Y178800D02*
D03*
X315716Y173800D02*
D03*
X318216Y168800D02*
D03*
X315716Y163800D02*
D03*
X318216Y158800D02*
D03*
X315716Y153800D02*
D03*
X318216Y148800D02*
D03*
X315716Y143800D02*
D03*
X313216Y578800D02*
D03*
X310716Y573800D02*
D03*
X313216Y568800D02*
D03*
X310716Y563800D02*
D03*
X313216Y558800D02*
D03*
X310716Y553800D02*
D03*
X313216Y548800D02*
D03*
X310716Y543800D02*
D03*
X313216Y538800D02*
D03*
X310716Y533800D02*
D03*
X313216Y528800D02*
D03*
X310716Y523800D02*
D03*
X313216Y518800D02*
D03*
X310716Y513800D02*
D03*
X313216Y508800D02*
D03*
X310716Y503800D02*
D03*
X313216Y498800D02*
D03*
X310716Y493800D02*
D03*
X313216Y488800D02*
D03*
X310716Y483800D02*
D03*
X313216Y478800D02*
D03*
X310716Y473800D02*
D03*
X313216Y468800D02*
D03*
X310716Y463800D02*
D03*
X313216Y458800D02*
D03*
X310716Y453800D02*
D03*
X313216Y448800D02*
D03*
X310716Y443800D02*
D03*
X313216Y438800D02*
D03*
X310716Y433800D02*
D03*
X313216Y428800D02*
D03*
X310716Y423800D02*
D03*
X313216Y418800D02*
D03*
X310716Y413800D02*
D03*
X313216Y408800D02*
D03*
X310716Y403800D02*
D03*
X313216Y398800D02*
D03*
X310716Y393800D02*
D03*
X313216Y388800D02*
D03*
X310716Y383800D02*
D03*
X313216Y378800D02*
D03*
X310716Y373800D02*
D03*
X313216Y368800D02*
D03*
X310716Y363800D02*
D03*
X313216Y358800D02*
D03*
X310716Y353800D02*
D03*
X313216Y348800D02*
D03*
X310716Y343800D02*
D03*
X313216Y338800D02*
D03*
X310716Y333800D02*
D03*
X313216Y328800D02*
D03*
X310716Y323800D02*
D03*
X313216Y318800D02*
D03*
X310716Y313800D02*
D03*
X313216Y308800D02*
D03*
X310716Y303800D02*
D03*
X313216Y298800D02*
D03*
X310716Y293800D02*
D03*
X313216Y288800D02*
D03*
X310716Y283800D02*
D03*
X313216Y278800D02*
D03*
X310716Y273800D02*
D03*
X313216Y268800D02*
D03*
X310716Y263800D02*
D03*
X313216Y258800D02*
D03*
X310716Y253800D02*
D03*
X313216Y248800D02*
D03*
X310716Y243800D02*
D03*
X313216Y238800D02*
D03*
X310716Y233800D02*
D03*
X313216Y228800D02*
D03*
X310716Y223800D02*
D03*
X313216Y218800D02*
D03*
X310716Y213800D02*
D03*
X313216Y208800D02*
D03*
X310716Y203800D02*
D03*
X313216Y198800D02*
D03*
X310716Y193800D02*
D03*
X313216Y188800D02*
D03*
X310716Y183800D02*
D03*
X313216Y178800D02*
D03*
X310716Y173800D02*
D03*
X313216Y168800D02*
D03*
X310716Y163800D02*
D03*
X313216Y158800D02*
D03*
X310716Y153800D02*
D03*
X313216Y148800D02*
D03*
X310716Y143800D02*
D03*
X313216Y138800D02*
D03*
X310716Y133800D02*
D03*
X308216Y578800D02*
D03*
X305716Y573800D02*
D03*
X308216Y568800D02*
D03*
X305716Y563800D02*
D03*
X308216Y558800D02*
D03*
Y548800D02*
D03*
Y538800D02*
D03*
Y528800D02*
D03*
Y518800D02*
D03*
Y508800D02*
D03*
Y498800D02*
D03*
Y488800D02*
D03*
Y478800D02*
D03*
Y468800D02*
D03*
Y458800D02*
D03*
Y448800D02*
D03*
Y438800D02*
D03*
Y428800D02*
D03*
Y418800D02*
D03*
Y408800D02*
D03*
Y398800D02*
D03*
Y388800D02*
D03*
Y378800D02*
D03*
Y368800D02*
D03*
Y358800D02*
D03*
Y348800D02*
D03*
Y338800D02*
D03*
Y328800D02*
D03*
Y318800D02*
D03*
Y308800D02*
D03*
Y298800D02*
D03*
Y288800D02*
D03*
Y278800D02*
D03*
Y268800D02*
D03*
Y258800D02*
D03*
Y248800D02*
D03*
Y238800D02*
D03*
X305716Y233800D02*
D03*
X308216Y228800D02*
D03*
X305716Y223800D02*
D03*
X308216Y218800D02*
D03*
X305716Y213800D02*
D03*
X308216Y208800D02*
D03*
X305716Y203800D02*
D03*
X308216Y198800D02*
D03*
X305716Y193800D02*
D03*
X308216Y188800D02*
D03*
X305716Y183800D02*
D03*
X308216Y178800D02*
D03*
X305716Y173800D02*
D03*
X308216Y168800D02*
D03*
X305716Y163800D02*
D03*
X308216Y158800D02*
D03*
X305716Y153800D02*
D03*
X308216Y148800D02*
D03*
X305716Y143800D02*
D03*
X308216Y138800D02*
D03*
X305716Y133800D02*
D03*
X303216Y578800D02*
D03*
X300716Y573800D02*
D03*
X303216Y568800D02*
D03*
X300716Y233800D02*
D03*
X303216Y228800D02*
D03*
X300716Y223800D02*
D03*
X303216Y218800D02*
D03*
X300716Y213800D02*
D03*
X303216Y208800D02*
D03*
X300716Y203800D02*
D03*
X303216Y198800D02*
D03*
X300716Y193800D02*
D03*
X303216Y188800D02*
D03*
X300716Y183800D02*
D03*
X303216Y178800D02*
D03*
X300716Y173800D02*
D03*
X303216Y168800D02*
D03*
X300716Y163800D02*
D03*
X303216Y158800D02*
D03*
X300716Y153800D02*
D03*
X303216Y148800D02*
D03*
X300716Y143800D02*
D03*
X303216Y138800D02*
D03*
X300716Y133800D02*
D03*
X303216Y128800D02*
D03*
X300716Y123800D02*
D03*
X298216Y578800D02*
D03*
X295716Y573800D02*
D03*
X298216Y568800D02*
D03*
X295716Y233800D02*
D03*
X298216Y228800D02*
D03*
X295716Y223800D02*
D03*
X298216Y218800D02*
D03*
X295716Y213800D02*
D03*
X298216Y208800D02*
D03*
X295716Y203800D02*
D03*
X298216Y198800D02*
D03*
X295716Y193800D02*
D03*
X298216Y188800D02*
D03*
X295716Y183800D02*
D03*
X298216Y178800D02*
D03*
X295716Y173800D02*
D03*
X298216Y168800D02*
D03*
X295716Y163800D02*
D03*
X298216Y158800D02*
D03*
X295716Y153800D02*
D03*
X298216Y148800D02*
D03*
X295716Y143800D02*
D03*
X298216Y138800D02*
D03*
X295716Y133800D02*
D03*
X298216Y128800D02*
D03*
X295716Y123800D02*
D03*
X293216Y578800D02*
D03*
X290716Y573800D02*
D03*
Y233800D02*
D03*
X293216Y228800D02*
D03*
X290716Y223800D02*
D03*
X293216Y218800D02*
D03*
X290716Y213800D02*
D03*
X293216Y208800D02*
D03*
X290716Y203800D02*
D03*
X293216Y198800D02*
D03*
X290716Y193800D02*
D03*
X293216Y188800D02*
D03*
X290716Y183800D02*
D03*
X293216Y178800D02*
D03*
X290716Y173800D02*
D03*
X293216Y168800D02*
D03*
X290716Y163800D02*
D03*
X293216Y158800D02*
D03*
X290716Y153800D02*
D03*
X293216Y148800D02*
D03*
X290716Y143800D02*
D03*
X293216Y138800D02*
D03*
X290716Y133800D02*
D03*
X293216Y128800D02*
D03*
X290716Y123800D02*
D03*
X293216Y118800D02*
D03*
X288216Y578800D02*
D03*
X285716Y573800D02*
D03*
Y233800D02*
D03*
X288216Y228800D02*
D03*
X285716Y223800D02*
D03*
X288216Y218800D02*
D03*
X285716Y213800D02*
D03*
X288216Y208800D02*
D03*
X285716Y203800D02*
D03*
X288216Y198800D02*
D03*
X285716Y193800D02*
D03*
X288216Y188800D02*
D03*
X285716Y183800D02*
D03*
X288216Y178800D02*
D03*
X285716Y173800D02*
D03*
X288216Y168800D02*
D03*
X285716Y163800D02*
D03*
X288216Y158800D02*
D03*
X285716Y153800D02*
D03*
X288216Y148800D02*
D03*
X285716Y143800D02*
D03*
X288216Y138800D02*
D03*
X285716Y133800D02*
D03*
X288216Y128800D02*
D03*
X285716Y123800D02*
D03*
X288216Y118800D02*
D03*
X283216Y578800D02*
D03*
X280716Y573800D02*
D03*
Y233800D02*
D03*
X283216Y228800D02*
D03*
X280716Y223800D02*
D03*
X283216Y218800D02*
D03*
X280716Y213800D02*
D03*
X283216Y208800D02*
D03*
X280716Y203800D02*
D03*
X283216Y198800D02*
D03*
X280716Y193800D02*
D03*
X283216Y188800D02*
D03*
X280716Y183800D02*
D03*
X283216Y178800D02*
D03*
X280716Y173800D02*
D03*
X283216Y168800D02*
D03*
X280716Y163800D02*
D03*
X283216Y158800D02*
D03*
X280716Y153800D02*
D03*
X283216Y148800D02*
D03*
X280716Y143800D02*
D03*
X283216Y138800D02*
D03*
X280716Y133800D02*
D03*
X283216Y128800D02*
D03*
X280716Y123800D02*
D03*
X283216Y118800D02*
D03*
X278216Y578800D02*
D03*
X275716Y573800D02*
D03*
Y233800D02*
D03*
X278216Y228800D02*
D03*
X275716Y223800D02*
D03*
X278216Y218800D02*
D03*
X275716Y213800D02*
D03*
X278216Y208800D02*
D03*
X275716Y203800D02*
D03*
X278216Y198800D02*
D03*
X275716Y193800D02*
D03*
X278216Y188800D02*
D03*
X275716Y183800D02*
D03*
X278216Y178800D02*
D03*
X275716Y173800D02*
D03*
X278216Y168800D02*
D03*
X275716Y163800D02*
D03*
X278216Y158800D02*
D03*
X275716Y153800D02*
D03*
X278216Y148800D02*
D03*
X275716Y143800D02*
D03*
X278216Y138800D02*
D03*
X275716Y133800D02*
D03*
X278216Y128800D02*
D03*
X275716Y123800D02*
D03*
X278216Y118800D02*
D03*
X273216Y578800D02*
D03*
X270716Y573800D02*
D03*
Y233800D02*
D03*
X273216Y228800D02*
D03*
X270716Y223800D02*
D03*
X273216Y218800D02*
D03*
X270716Y213800D02*
D03*
X273216Y208800D02*
D03*
X270716Y203800D02*
D03*
X273216Y198800D02*
D03*
X270716Y193800D02*
D03*
X273216Y188800D02*
D03*
X270716Y183800D02*
D03*
X273216Y178800D02*
D03*
X270716Y173800D02*
D03*
X273216Y168800D02*
D03*
X270716Y163800D02*
D03*
X273216Y158800D02*
D03*
X270716Y153800D02*
D03*
X273216Y148800D02*
D03*
X270716Y143800D02*
D03*
X273216Y138800D02*
D03*
X270716Y133800D02*
D03*
X273216Y128800D02*
D03*
X270716Y123800D02*
D03*
X273216Y118800D02*
D03*
X268216Y578800D02*
D03*
X265716Y573800D02*
D03*
Y233800D02*
D03*
X268216Y228800D02*
D03*
X265716Y223800D02*
D03*
X268216Y218800D02*
D03*
X265716Y213800D02*
D03*
X268216Y208800D02*
D03*
X265716Y203800D02*
D03*
X268216Y198800D02*
D03*
X265716Y193800D02*
D03*
X268216Y188800D02*
D03*
X265716Y183800D02*
D03*
X268216Y178800D02*
D03*
X265716Y173800D02*
D03*
X268216Y168800D02*
D03*
X265716Y163800D02*
D03*
X268216Y158800D02*
D03*
X265716Y153800D02*
D03*
X268216Y148800D02*
D03*
X265716Y143800D02*
D03*
X268216Y138800D02*
D03*
X265716Y133800D02*
D03*
X268216Y128800D02*
D03*
X265716Y123800D02*
D03*
X268216Y118800D02*
D03*
X263216Y578800D02*
D03*
X260716Y573800D02*
D03*
Y233800D02*
D03*
X263216Y228800D02*
D03*
X260716Y223800D02*
D03*
X263216Y218800D02*
D03*
X260716Y213800D02*
D03*
X263216Y208800D02*
D03*
X260716Y203800D02*
D03*
X263216Y198800D02*
D03*
Y178800D02*
D03*
Y158800D02*
D03*
X260716Y153800D02*
D03*
X263216Y148800D02*
D03*
X260716Y143800D02*
D03*
X263216Y138800D02*
D03*
X260716Y133800D02*
D03*
X263216Y128800D02*
D03*
X260716Y123800D02*
D03*
X263216Y118800D02*
D03*
X258216Y578800D02*
D03*
X255716Y573800D02*
D03*
Y233800D02*
D03*
X258216Y228800D02*
D03*
X255716Y223800D02*
D03*
X258216Y218800D02*
D03*
X255716Y213800D02*
D03*
X258216Y208800D02*
D03*
X255716Y203800D02*
D03*
X258216Y198800D02*
D03*
Y158800D02*
D03*
X255716Y153800D02*
D03*
X258216Y148800D02*
D03*
X255716Y143800D02*
D03*
X258216Y138800D02*
D03*
X255716Y133800D02*
D03*
X258216Y128800D02*
D03*
X255716Y123800D02*
D03*
X258216Y118800D02*
D03*
X253216Y578800D02*
D03*
X250716Y573800D02*
D03*
Y233800D02*
D03*
X253216Y228800D02*
D03*
X250716Y223800D02*
D03*
X253216Y218800D02*
D03*
X250716Y213800D02*
D03*
X253216Y208800D02*
D03*
X250716Y203800D02*
D03*
X253216Y198800D02*
D03*
X250716Y193800D02*
D03*
X253216Y188800D02*
D03*
X250716Y183800D02*
D03*
X253216Y178800D02*
D03*
X250716Y173800D02*
D03*
X253216Y168800D02*
D03*
X250716Y163800D02*
D03*
X253216Y158800D02*
D03*
X250716Y153800D02*
D03*
X253216Y148800D02*
D03*
X250716Y143800D02*
D03*
X253216Y138800D02*
D03*
X250716Y133800D02*
D03*
X253216Y128800D02*
D03*
X250716Y123800D02*
D03*
X253216Y118800D02*
D03*
X248216Y578800D02*
D03*
X245716Y573800D02*
D03*
Y233800D02*
D03*
X248216Y228800D02*
D03*
X245716Y223800D02*
D03*
X248216Y218800D02*
D03*
X245716Y213800D02*
D03*
X248216Y208800D02*
D03*
X245716Y203800D02*
D03*
X248216Y198800D02*
D03*
Y158800D02*
D03*
X245716Y153800D02*
D03*
X248216Y148800D02*
D03*
X245716Y143800D02*
D03*
X248216Y138800D02*
D03*
X245716Y133800D02*
D03*
X248216Y128800D02*
D03*
X245716Y123800D02*
D03*
X248216Y118800D02*
D03*
X243216Y578800D02*
D03*
X240716Y573800D02*
D03*
Y233800D02*
D03*
X243216Y228800D02*
D03*
X240716Y223800D02*
D03*
X243216Y218800D02*
D03*
X240716Y213800D02*
D03*
X243216Y208800D02*
D03*
X240716Y203800D02*
D03*
X243216Y198800D02*
D03*
X240716Y193800D02*
D03*
X243216Y158800D02*
D03*
X240716Y153800D02*
D03*
X243216Y148800D02*
D03*
X240716Y143800D02*
D03*
X243216Y138800D02*
D03*
X240716Y133800D02*
D03*
X243216Y128800D02*
D03*
X240716Y123800D02*
D03*
X243216Y118800D02*
D03*
X238216Y578800D02*
D03*
X235716Y573800D02*
D03*
Y233800D02*
D03*
X238216Y228800D02*
D03*
X235716Y223800D02*
D03*
X238216Y218800D02*
D03*
X235716Y213800D02*
D03*
X238216Y208800D02*
D03*
X235716Y203800D02*
D03*
X238216Y198800D02*
D03*
X235716Y193800D02*
D03*
X238216Y188800D02*
D03*
X235716Y183800D02*
D03*
X238216Y178800D02*
D03*
Y158800D02*
D03*
X235716Y153800D02*
D03*
X238216Y148800D02*
D03*
X235716Y143800D02*
D03*
X238216Y138800D02*
D03*
X235716Y133800D02*
D03*
X238216Y128800D02*
D03*
X235716Y123800D02*
D03*
X238216Y118800D02*
D03*
X233216Y578800D02*
D03*
X230716Y573800D02*
D03*
Y233800D02*
D03*
X233216Y228800D02*
D03*
X230716Y223800D02*
D03*
X233216Y218800D02*
D03*
X230716Y213800D02*
D03*
X233216Y208800D02*
D03*
X230716Y203800D02*
D03*
X233216Y198800D02*
D03*
X230716Y193800D02*
D03*
X233216Y188800D02*
D03*
X230716Y183800D02*
D03*
X233216Y178800D02*
D03*
Y158800D02*
D03*
X230716Y153800D02*
D03*
X233216Y148800D02*
D03*
X230716Y143800D02*
D03*
X233216Y138800D02*
D03*
X230716Y133800D02*
D03*
X233216Y128800D02*
D03*
X230716Y123800D02*
D03*
X233216Y118800D02*
D03*
X228216Y578800D02*
D03*
X225716Y573800D02*
D03*
Y233800D02*
D03*
X228216Y228800D02*
D03*
X225716Y223800D02*
D03*
X228216Y218800D02*
D03*
X225716Y213800D02*
D03*
X228216Y208800D02*
D03*
X225716Y203800D02*
D03*
X228216Y198800D02*
D03*
X225716Y193800D02*
D03*
X228216Y188800D02*
D03*
Y138800D02*
D03*
X225716Y133800D02*
D03*
X228216Y128800D02*
D03*
X225716Y123800D02*
D03*
X228216Y118800D02*
D03*
X223216Y578800D02*
D03*
X220716Y573800D02*
D03*
Y233800D02*
D03*
X223216Y228800D02*
D03*
X220716Y223800D02*
D03*
X223216Y218800D02*
D03*
X220716Y213800D02*
D03*
X223216Y208800D02*
D03*
X220716Y203800D02*
D03*
X223216Y198800D02*
D03*
X220716Y193800D02*
D03*
X223216Y188800D02*
D03*
Y128800D02*
D03*
X220716Y123800D02*
D03*
X223216Y118800D02*
D03*
X218216Y578800D02*
D03*
X215716Y573800D02*
D03*
Y233800D02*
D03*
X218216Y228800D02*
D03*
X215716Y223800D02*
D03*
X218216Y218800D02*
D03*
X215716Y213800D02*
D03*
X218216Y208800D02*
D03*
X215716Y203800D02*
D03*
X218216Y198800D02*
D03*
X215716Y193800D02*
D03*
X218216Y188800D02*
D03*
X215716Y173800D02*
D03*
Y163800D02*
D03*
X218216Y158800D02*
D03*
X215716Y153800D02*
D03*
X218216Y148800D02*
D03*
X215716Y143800D02*
D03*
X218216Y128800D02*
D03*
X215716Y123800D02*
D03*
X218216Y118800D02*
D03*
X213216Y578800D02*
D03*
X210716Y573800D02*
D03*
Y233800D02*
D03*
X213216Y228800D02*
D03*
X210716Y223800D02*
D03*
X213216Y218800D02*
D03*
X210716Y213800D02*
D03*
X213216Y208800D02*
D03*
X210716Y203800D02*
D03*
X213216Y198800D02*
D03*
X210716Y193800D02*
D03*
X213216Y188800D02*
D03*
Y178800D02*
D03*
Y158800D02*
D03*
X210716Y153800D02*
D03*
X213216Y148800D02*
D03*
X210716Y143800D02*
D03*
X213216Y128800D02*
D03*
X210716Y123800D02*
D03*
X213216Y118800D02*
D03*
X208216Y578800D02*
D03*
X205716Y573800D02*
D03*
Y233800D02*
D03*
X208216Y228800D02*
D03*
X205716Y223800D02*
D03*
X208216Y218800D02*
D03*
X205716Y213800D02*
D03*
X208216Y208800D02*
D03*
X205716Y203800D02*
D03*
X208216Y198800D02*
D03*
X205716Y193800D02*
D03*
X208216Y188800D02*
D03*
Y178800D02*
D03*
Y158800D02*
D03*
X205716Y153800D02*
D03*
X208216Y148800D02*
D03*
X205716Y143800D02*
D03*
X208216Y128800D02*
D03*
X205716Y123800D02*
D03*
X208216Y118800D02*
D03*
X205716Y113800D02*
D03*
X203216Y578800D02*
D03*
X200716Y573800D02*
D03*
Y233800D02*
D03*
X203216Y228800D02*
D03*
X200716Y223800D02*
D03*
X203216Y218800D02*
D03*
X200716Y213800D02*
D03*
X203216Y208800D02*
D03*
X200716Y203800D02*
D03*
X203216Y198800D02*
D03*
X200716Y193800D02*
D03*
X203216Y188800D02*
D03*
Y178800D02*
D03*
Y158800D02*
D03*
X200716Y153800D02*
D03*
X203216Y148800D02*
D03*
X200716Y143800D02*
D03*
X203216Y128800D02*
D03*
X200716Y123800D02*
D03*
X203216Y118800D02*
D03*
X200716Y113800D02*
D03*
X203216Y108800D02*
D03*
X200716Y103800D02*
D03*
Y93800D02*
D03*
Y83800D02*
D03*
Y73800D02*
D03*
Y63800D02*
D03*
Y53800D02*
D03*
Y43800D02*
D03*
Y33800D02*
D03*
Y23800D02*
D03*
X198216Y578800D02*
D03*
X195716Y573800D02*
D03*
Y233800D02*
D03*
X198216Y228800D02*
D03*
X195716Y223800D02*
D03*
X198216Y218800D02*
D03*
X195716Y213800D02*
D03*
X198216Y208800D02*
D03*
X195716Y203800D02*
D03*
X198216Y198800D02*
D03*
X195716Y193800D02*
D03*
X198216Y188800D02*
D03*
Y178800D02*
D03*
X195716Y173800D02*
D03*
Y163800D02*
D03*
X198216Y158800D02*
D03*
X195716Y153800D02*
D03*
X198216Y148800D02*
D03*
X195716Y143800D02*
D03*
X198216Y128800D02*
D03*
X195716Y123800D02*
D03*
X198216Y118800D02*
D03*
X195716Y113800D02*
D03*
X198216Y108800D02*
D03*
X195716Y103800D02*
D03*
X198216Y98800D02*
D03*
Y88800D02*
D03*
Y78800D02*
D03*
X195716Y73800D02*
D03*
X198216Y68800D02*
D03*
X195716Y63800D02*
D03*
X198216Y58800D02*
D03*
X195716Y53800D02*
D03*
X198216Y48800D02*
D03*
X195716Y43800D02*
D03*
X198216Y38800D02*
D03*
X195716Y33800D02*
D03*
X198216Y28800D02*
D03*
X195716Y23800D02*
D03*
X193216Y578800D02*
D03*
X190716Y573800D02*
D03*
Y233800D02*
D03*
X193216Y228800D02*
D03*
X190716Y223800D02*
D03*
X193216Y218800D02*
D03*
X190716Y213800D02*
D03*
X193216Y208800D02*
D03*
X190716Y203800D02*
D03*
X193216Y198800D02*
D03*
X190716Y193800D02*
D03*
X193216Y188800D02*
D03*
Y178800D02*
D03*
X190716Y173800D02*
D03*
X193216Y168800D02*
D03*
X190716Y163800D02*
D03*
X193216Y158800D02*
D03*
X190716Y153800D02*
D03*
X193216Y148800D02*
D03*
X190716Y143800D02*
D03*
X193216Y128800D02*
D03*
X190716Y123800D02*
D03*
X193216Y118800D02*
D03*
X190716Y113800D02*
D03*
X193216Y108800D02*
D03*
X190716Y103800D02*
D03*
X193216Y98800D02*
D03*
X190716Y33800D02*
D03*
X193216Y28800D02*
D03*
X190716Y23800D02*
D03*
X188216Y578800D02*
D03*
X185716Y573800D02*
D03*
Y233800D02*
D03*
X188216Y228800D02*
D03*
X185716Y223800D02*
D03*
X188216Y218800D02*
D03*
X185716Y213800D02*
D03*
X188216Y208800D02*
D03*
X185716Y203800D02*
D03*
X188216Y198800D02*
D03*
X185716Y193800D02*
D03*
X188216Y188800D02*
D03*
Y178800D02*
D03*
X185716Y173800D02*
D03*
X188216Y168800D02*
D03*
X185716Y163800D02*
D03*
X188216Y158800D02*
D03*
X185716Y153800D02*
D03*
X188216Y148800D02*
D03*
X185716Y143800D02*
D03*
X188216Y128800D02*
D03*
X185716Y123800D02*
D03*
X188216Y118800D02*
D03*
X185716Y113800D02*
D03*
X188216Y108800D02*
D03*
X185716Y103800D02*
D03*
X188216Y98800D02*
D03*
X185716Y83800D02*
D03*
Y73800D02*
D03*
Y63800D02*
D03*
Y53800D02*
D03*
Y43800D02*
D03*
X188216Y28800D02*
D03*
X185716Y23800D02*
D03*
X183216Y578800D02*
D03*
X180716Y573800D02*
D03*
Y233800D02*
D03*
X183216Y228800D02*
D03*
X180716Y223800D02*
D03*
X183216Y218800D02*
D03*
X180716Y213800D02*
D03*
X183216Y208800D02*
D03*
X180716Y203800D02*
D03*
X183216Y198800D02*
D03*
X180716Y193800D02*
D03*
X183216Y188800D02*
D03*
X180716Y173800D02*
D03*
X183216Y168800D02*
D03*
X180716Y163800D02*
D03*
X183216Y158800D02*
D03*
X180716Y153800D02*
D03*
X183216Y148800D02*
D03*
X180716Y143800D02*
D03*
X183216Y128800D02*
D03*
X180716Y123800D02*
D03*
X183216Y118800D02*
D03*
X180716Y113800D02*
D03*
X183216Y108800D02*
D03*
X180716Y103800D02*
D03*
X183216Y98800D02*
D03*
Y88800D02*
D03*
X180716Y83800D02*
D03*
X183216Y78800D02*
D03*
X180716Y73800D02*
D03*
X183216Y68800D02*
D03*
X180716Y63800D02*
D03*
X183216Y58800D02*
D03*
Y48800D02*
D03*
X180716Y43800D02*
D03*
X183216Y38800D02*
D03*
Y28800D02*
D03*
X180716Y23800D02*
D03*
X178216Y578800D02*
D03*
X175716Y573800D02*
D03*
Y233800D02*
D03*
X178216Y228800D02*
D03*
X175716Y223800D02*
D03*
X178216Y218800D02*
D03*
X175716Y213800D02*
D03*
X178216Y208800D02*
D03*
X175716Y203800D02*
D03*
X178216Y198800D02*
D03*
X175716Y193800D02*
D03*
X178216Y188800D02*
D03*
X175716Y183800D02*
D03*
X178216Y158800D02*
D03*
X175716Y153800D02*
D03*
X178216Y148800D02*
D03*
X175716Y143800D02*
D03*
X178216Y128800D02*
D03*
X175716Y123800D02*
D03*
X178216Y118800D02*
D03*
X175716Y113800D02*
D03*
X178216Y108800D02*
D03*
X175716Y103800D02*
D03*
Y83800D02*
D03*
X178216Y78800D02*
D03*
X175716Y73800D02*
D03*
X178216Y68800D02*
D03*
X175716Y63800D02*
D03*
Y43800D02*
D03*
Y23800D02*
D03*
X173216Y578800D02*
D03*
X170716Y573800D02*
D03*
Y233800D02*
D03*
X173216Y228800D02*
D03*
X170716Y223800D02*
D03*
X173216Y218800D02*
D03*
X170716Y213800D02*
D03*
X173216Y208800D02*
D03*
X170716Y203800D02*
D03*
X173216Y198800D02*
D03*
X170716Y193800D02*
D03*
X173216Y188800D02*
D03*
X170716Y183800D02*
D03*
X173216Y178800D02*
D03*
Y158800D02*
D03*
X170716Y153800D02*
D03*
X173216Y148800D02*
D03*
X170716Y143800D02*
D03*
X173216Y128800D02*
D03*
X170716Y123800D02*
D03*
X173216Y118800D02*
D03*
X170716Y113800D02*
D03*
X173216Y108800D02*
D03*
X170716Y103800D02*
D03*
Y83800D02*
D03*
X173216Y78800D02*
D03*
X170716Y73800D02*
D03*
X173216Y68800D02*
D03*
X170716Y63800D02*
D03*
Y43800D02*
D03*
X168216Y578800D02*
D03*
X165716Y573800D02*
D03*
Y233800D02*
D03*
X168216Y228800D02*
D03*
X165716Y223800D02*
D03*
X168216Y218800D02*
D03*
X165716Y213800D02*
D03*
X168216Y208800D02*
D03*
X165716Y203800D02*
D03*
X168216Y198800D02*
D03*
X165716Y193800D02*
D03*
X168216Y188800D02*
D03*
X165716Y183800D02*
D03*
X168216Y178800D02*
D03*
Y158800D02*
D03*
X165716Y153800D02*
D03*
X168216Y148800D02*
D03*
X165716Y143800D02*
D03*
X168216Y128800D02*
D03*
X165716Y123800D02*
D03*
X168216Y118800D02*
D03*
X165716Y113800D02*
D03*
X168216Y108800D02*
D03*
X165716Y103800D02*
D03*
X168216Y98800D02*
D03*
X165716Y93800D02*
D03*
X168216Y88800D02*
D03*
X165716Y83800D02*
D03*
X168216Y78800D02*
D03*
X165716Y73800D02*
D03*
X168216Y68800D02*
D03*
X165716Y63800D02*
D03*
X168216Y58800D02*
D03*
X165716Y53800D02*
D03*
X168216Y48800D02*
D03*
X165716Y43800D02*
D03*
X168216Y38800D02*
D03*
X163216Y578800D02*
D03*
X160716Y573800D02*
D03*
Y233800D02*
D03*
X163216Y228800D02*
D03*
X160716Y223800D02*
D03*
X163216Y218800D02*
D03*
X160716Y213800D02*
D03*
X163216Y208800D02*
D03*
X160716Y203800D02*
D03*
X163216Y198800D02*
D03*
X160716Y193800D02*
D03*
X163216Y188800D02*
D03*
X160716Y183800D02*
D03*
X163216Y178800D02*
D03*
X160716Y173800D02*
D03*
Y163800D02*
D03*
X163216Y158800D02*
D03*
X160716Y153800D02*
D03*
X163216Y148800D02*
D03*
X160716Y143800D02*
D03*
X163216Y138800D02*
D03*
Y118800D02*
D03*
X160716Y113800D02*
D03*
X163216Y108800D02*
D03*
X160716Y103800D02*
D03*
X163216Y98800D02*
D03*
X160716Y93800D02*
D03*
X163216Y88800D02*
D03*
X160716Y83800D02*
D03*
X163216Y78800D02*
D03*
X160716Y73800D02*
D03*
X163216Y68800D02*
D03*
X160716Y63800D02*
D03*
X163216Y58800D02*
D03*
X160716Y53800D02*
D03*
X163216Y48800D02*
D03*
X160716Y43800D02*
D03*
X163216Y38800D02*
D03*
X158216Y578800D02*
D03*
X155716Y573800D02*
D03*
Y233800D02*
D03*
X158216Y228800D02*
D03*
X155716Y223800D02*
D03*
X158216Y218800D02*
D03*
X155716Y213800D02*
D03*
X158216Y208800D02*
D03*
X155716Y203800D02*
D03*
X158216Y198800D02*
D03*
X155716Y193800D02*
D03*
X158216Y188800D02*
D03*
X155716Y183800D02*
D03*
X158216Y178800D02*
D03*
X155716Y173800D02*
D03*
X158216Y168800D02*
D03*
X155716Y163800D02*
D03*
X158216Y158800D02*
D03*
X155716Y153800D02*
D03*
X158216Y148800D02*
D03*
X155716Y143800D02*
D03*
X158216Y138800D02*
D03*
X155716Y133800D02*
D03*
X158216Y118800D02*
D03*
X155716Y113800D02*
D03*
X158216Y108800D02*
D03*
X155716Y103800D02*
D03*
X158216Y98800D02*
D03*
X155716Y93800D02*
D03*
X158216Y88800D02*
D03*
X155716Y83800D02*
D03*
X158216Y78800D02*
D03*
X155716Y73800D02*
D03*
X158216Y68800D02*
D03*
X155716Y63800D02*
D03*
X158216Y58800D02*
D03*
X155716Y53800D02*
D03*
X158216Y48800D02*
D03*
X155716Y43800D02*
D03*
X158216Y38800D02*
D03*
X153216Y578800D02*
D03*
X150716Y573800D02*
D03*
Y233800D02*
D03*
X153216Y228800D02*
D03*
X150716Y223800D02*
D03*
X153216Y218800D02*
D03*
X150716Y213800D02*
D03*
X153216Y208800D02*
D03*
X150716Y203800D02*
D03*
X153216Y198800D02*
D03*
X150716Y193800D02*
D03*
X153216Y188800D02*
D03*
X150716Y183800D02*
D03*
X153216Y178800D02*
D03*
X150716Y173800D02*
D03*
X153216Y168800D02*
D03*
X150716Y163800D02*
D03*
X153216Y158800D02*
D03*
X150716Y153800D02*
D03*
X153216Y148800D02*
D03*
X150716Y143800D02*
D03*
X153216Y138800D02*
D03*
X150716Y133800D02*
D03*
X153216Y128800D02*
D03*
X148216Y578800D02*
D03*
X145716Y573800D02*
D03*
Y233800D02*
D03*
X148216Y228800D02*
D03*
X145716Y223800D02*
D03*
X148216Y218800D02*
D03*
X145716Y213800D02*
D03*
X148216Y208800D02*
D03*
X145716Y203800D02*
D03*
X148216Y198800D02*
D03*
X145716Y193800D02*
D03*
X148216Y188800D02*
D03*
X145716Y183800D02*
D03*
X148216Y178800D02*
D03*
X145716Y173800D02*
D03*
X148216Y168800D02*
D03*
X145716Y163800D02*
D03*
X148216Y158800D02*
D03*
X145716Y153800D02*
D03*
X148216Y148800D02*
D03*
X145716Y143800D02*
D03*
X148216Y138800D02*
D03*
X145716Y133800D02*
D03*
X148216Y128800D02*
D03*
X145716Y123800D02*
D03*
X143216Y578800D02*
D03*
X140716Y573800D02*
D03*
Y233800D02*
D03*
X143216Y228800D02*
D03*
X140716Y223800D02*
D03*
X143216Y218800D02*
D03*
X140716Y213800D02*
D03*
X143216Y208800D02*
D03*
X140716Y203800D02*
D03*
X143216Y198800D02*
D03*
X140716Y193800D02*
D03*
X143216Y188800D02*
D03*
X140716Y183800D02*
D03*
X143216Y178800D02*
D03*
X140716Y173800D02*
D03*
X143216Y168800D02*
D03*
X140716Y163800D02*
D03*
X143216Y158800D02*
D03*
X140716Y153800D02*
D03*
X143216Y148800D02*
D03*
X140716Y143800D02*
D03*
X143216Y138800D02*
D03*
X140716Y133800D02*
D03*
X143216Y128800D02*
D03*
X140716Y123800D02*
D03*
X143216Y118800D02*
D03*
X140716Y113800D02*
D03*
X143216Y108800D02*
D03*
X140716Y103800D02*
D03*
X143216Y98800D02*
D03*
X140716Y93800D02*
D03*
X143216Y88800D02*
D03*
X140716Y73800D02*
D03*
X143216Y68800D02*
D03*
X140716Y33800D02*
D03*
Y23800D02*
D03*
X138216Y578800D02*
D03*
X135716Y573800D02*
D03*
Y233800D02*
D03*
X138216Y228800D02*
D03*
X135716Y223800D02*
D03*
X138216Y218800D02*
D03*
X135716Y213800D02*
D03*
X138216Y208800D02*
D03*
X135716Y203800D02*
D03*
X138216Y198800D02*
D03*
X135716Y193800D02*
D03*
X138216Y188800D02*
D03*
X135716Y183800D02*
D03*
X138216Y178800D02*
D03*
X135716Y173800D02*
D03*
X138216Y168800D02*
D03*
X135716Y163800D02*
D03*
X138216Y158800D02*
D03*
X135716Y153800D02*
D03*
X138216Y148800D02*
D03*
X135716Y143800D02*
D03*
X138216Y138800D02*
D03*
X135716Y133800D02*
D03*
X138216Y128800D02*
D03*
X135716Y123800D02*
D03*
X138216Y118800D02*
D03*
X135716Y113800D02*
D03*
X138216Y108800D02*
D03*
X135716Y103800D02*
D03*
X138216Y98800D02*
D03*
X135716Y93800D02*
D03*
X138216Y88800D02*
D03*
X135716Y63800D02*
D03*
X138216Y58800D02*
D03*
Y38800D02*
D03*
X135716Y33800D02*
D03*
X138216Y28800D02*
D03*
X135716Y23800D02*
D03*
X133216Y578800D02*
D03*
X130716Y573800D02*
D03*
X133216Y138800D02*
D03*
X130716Y133800D02*
D03*
X133216Y128800D02*
D03*
X130716Y123800D02*
D03*
X133216Y118800D02*
D03*
X130716Y113800D02*
D03*
X133216Y108800D02*
D03*
X130716Y103800D02*
D03*
X133216Y98800D02*
D03*
X130716Y93800D02*
D03*
X133216Y88800D02*
D03*
X130716Y63800D02*
D03*
X133216Y58800D02*
D03*
X130716Y53800D02*
D03*
Y43800D02*
D03*
X133216Y38800D02*
D03*
X130716Y33800D02*
D03*
X133216Y28800D02*
D03*
X128216Y578800D02*
D03*
X125716Y573800D02*
D03*
X128216Y128800D02*
D03*
X125716Y123800D02*
D03*
X128216Y118800D02*
D03*
X125716Y113800D02*
D03*
X128216Y108800D02*
D03*
X125716Y103800D02*
D03*
X128216Y98800D02*
D03*
X125716Y93800D02*
D03*
X128216Y88800D02*
D03*
X125716Y83800D02*
D03*
X128216Y78800D02*
D03*
X125716Y73800D02*
D03*
X128216Y68800D02*
D03*
X125716Y63800D02*
D03*
X128216Y58800D02*
D03*
X125716Y53800D02*
D03*
X128216Y48800D02*
D03*
X125716Y43800D02*
D03*
X128216Y38800D02*
D03*
X123216Y578800D02*
D03*
X120716Y573800D02*
D03*
X123216Y128800D02*
D03*
X120716Y123800D02*
D03*
X123216Y118800D02*
D03*
X120716Y113800D02*
D03*
X123216Y108800D02*
D03*
X120716Y103800D02*
D03*
X123216Y98800D02*
D03*
X120716Y93800D02*
D03*
X123216Y88800D02*
D03*
X120716Y83800D02*
D03*
X123216Y78800D02*
D03*
X120716Y73800D02*
D03*
X123216Y68800D02*
D03*
X120716Y63800D02*
D03*
X123216Y58800D02*
D03*
X120716Y53800D02*
D03*
X123216Y48800D02*
D03*
X120716Y43800D02*
D03*
X123216Y38800D02*
D03*
X118216Y578800D02*
D03*
X115716Y573800D02*
D03*
X118216Y78800D02*
D03*
X115716Y73800D02*
D03*
X118216Y68800D02*
D03*
X115716Y63800D02*
D03*
X118216Y58800D02*
D03*
Y38800D02*
D03*
X115716Y33800D02*
D03*
X113216Y578800D02*
D03*
X110716Y573800D02*
D03*
Y73800D02*
D03*
X113216Y68800D02*
D03*
X110716Y63800D02*
D03*
X113216Y58800D02*
D03*
Y38800D02*
D03*
X110716Y33800D02*
D03*
X113216Y28800D02*
D03*
X110716Y23800D02*
D03*
X108216Y578800D02*
D03*
X105716Y573800D02*
D03*
X108216Y68800D02*
D03*
X105716Y63800D02*
D03*
X108216Y58800D02*
D03*
Y38800D02*
D03*
X105716Y33800D02*
D03*
X108216Y28800D02*
D03*
X105716Y23800D02*
D03*
X103216Y578800D02*
D03*
X100716Y573800D02*
D03*
Y63800D02*
D03*
X103216Y58800D02*
D03*
X100716Y53800D02*
D03*
Y43800D02*
D03*
X103216Y38800D02*
D03*
X100716Y33800D02*
D03*
X103216Y28800D02*
D03*
X100716Y23800D02*
D03*
X98216Y578800D02*
D03*
X95716Y573800D02*
D03*
X93216Y578800D02*
D03*
X90716Y573800D02*
D03*
X93216Y568800D02*
D03*
X90716Y563800D02*
D03*
X93216Y558800D02*
D03*
X90716Y553800D02*
D03*
X88216Y578800D02*
D03*
X85716Y573800D02*
D03*
X88216Y568800D02*
D03*
X85716Y563800D02*
D03*
X88216Y558800D02*
D03*
X85716Y553800D02*
D03*
X83216Y568800D02*
D03*
Y558800D02*
D03*
X80716Y553800D02*
D03*
X78216Y558800D02*
D03*
X75716Y553800D02*
D03*
X73216Y568800D02*
D03*
Y558800D02*
D03*
X70716Y553800D02*
D03*
X68216Y558800D02*
D03*
X65716Y553800D02*
D03*
X63216Y578800D02*
D03*
Y568800D02*
D03*
Y558800D02*
D03*
X60716Y553800D02*
D03*
X58216Y558800D02*
D03*
X55716Y553800D02*
D03*
X53216Y578800D02*
D03*
Y568800D02*
D03*
Y558800D02*
D03*
X50716Y553800D02*
D03*
X48216Y558800D02*
D03*
X45716Y553800D02*
D03*
X43216Y578800D02*
D03*
X40716Y573800D02*
D03*
X43216Y568800D02*
D03*
X40716Y563800D02*
D03*
X43216Y558800D02*
D03*
X40716Y553800D02*
D03*
X38216Y578800D02*
D03*
X35716Y573800D02*
D03*
X38216Y568800D02*
D03*
X35716Y563800D02*
D03*
X38216Y558800D02*
D03*
X35716Y553800D02*
D03*
X391700Y147900D02*
D03*
X385600D02*
D03*
X379900D02*
D03*
X496900Y466400D02*
D03*
X494800Y360100D02*
D03*
X502200Y414200D02*
D03*
X499500Y307600D02*
D03*
X505200Y250300D02*
D03*
X489000Y201300D02*
D03*
X492600Y149800D02*
D03*
X483200Y94000D02*
D03*
X396400Y468300D02*
D03*
X391700Y412900D02*
D03*
X388200Y361000D02*
D03*
X385600Y308400D02*
D03*
X382900Y256200D02*
D03*
X379900Y201600D02*
D03*
X405300Y160500D02*
D03*
X394200Y147800D02*
D03*
X388200Y147700D02*
D03*
X382900D02*
D03*
X376800Y147600D02*
D03*
X340600Y91800D02*
D03*
X333300Y60600D02*
D03*
D40*
X220100Y101600D02*
D03*
X419900Y127100D02*
D03*
X483700Y472800D02*
D03*
X484244Y421850D02*
D03*
X484645Y367050D02*
D03*
X484344Y315250D02*
D03*
X484745Y260750D02*
D03*
X484550Y207050D02*
D03*
X484250Y155850D02*
D03*
X484900Y102300D02*
D03*
X375905Y474000D02*
D03*
X374706Y420700D02*
D03*
X374700Y368500D02*
D03*
X374306Y315400D02*
D03*
X375200Y261300D02*
D03*
X375505Y207300D02*
D03*
X374800Y157700D02*
D03*
D41*
X244100Y40100D02*
D03*
X378300Y53200D02*
D03*
M02*
