M48
;Layer_Color=9474304
;FILE_FORMAT=2:5
INCH,LZ
;TYPE=PLATED
T01F00S00C0.01200
T02F00S00C0.02000
T03F00S00C0.03937
T04F00S00C0.04000
;TYPE=NON_PLATED
T05F00S00C0.08661
%
T01
X0015Y-00975
X0024Y-00955
Y-0076
X00315
X00356Y-00766
X00336Y-00646
X00315Y-00629
X00323Y-00586
X00247Y-00636
X002122Y-006368
X00177Y-00634
X00093Y-00638
X00088Y-00742
X00143Y-00763
X00126Y-0082
X00091Y-00866
X00605Y-0084
X00585Y-00795
X00596Y-00763
X0057Y-0074
X00574Y-00657
X0060701Y-0091
X00615Y-0095
X00808Y-00967
X0091598Y-0092598
X0098655Y-0086382
X00839Y-00813
X00836Y-00736
X00873Y-00673
X0111402Y-0058402
X0119Y-0064
X0122098Y-0055203
X01195Y-005
X012Y-00415
X0116
X01125
X012Y-00365
X01087Y-00325
X01085Y-00515
X00954Y-00547
X00912Y-00356
X00861Y-00352
X00757Y-00355
X00683Y-00342
X00616Y-00352
X0061Y-00441
X0066Y-00445
X0055
X0051
Y-004
Y-0036
X00554Y-0011
X00405
X00744Y-00249
X00847Y-00231
X00955Y-00265
X00354Y-00229
X00289Y-00433
X002122Y-004172
X0013543Y-0041857
X0010984Y-0041684
X00077Y-00454
X00209Y-00559
X00235Y-0056
X00313Y-00543
X00343Y-00546
T02
X0004Y-0068
Y-0063
Y-0058
X00395Y-00335
X0078Y-00447
X0024253Y-0036
X0004Y-0053
T03
X004Y-00595
X005
X006
X007
X008
X009
Y-0019105
X008
X007
X006
X005
X004
T04
X0031Y-01015
X00606Y-01017
X00705Y-01018
X00975Y-01
X01135Y-00705
X01255
X01005Y-00055
X0089
X005
X0038Y-0006
T05
X0007874Y-0093701
X0122441
X0064961Y-0005512
M30
