G04 ================== begin FILE IDENTIFICATION RECORD ==================*
G04 Layout Name:  F:/PCB/RECEIVER/Receiver.brd*
G04 Film Name:    NcDrill*
G04 File Format:  Gerber RS274X*
G04 File Origin:  Cadence Allegro 16.6-2015-S108*
G04 Origin Date:  Mon Jul 29 15:21:12 2019*
G04 *
G04 Layer:  MANUFACTURING/NCLEGEND-1-2*
G04 Layer:  BOARD GEOMETRY/OUTLINE*
G04 *
G04 Offset:    (0.000 0.000)*
G04 Mirror:    No*
G04 Mode:      Positive*
G04 Rotation:  0*
G04 FullContactRelief:  No*
G04 UndefLineWidth:     5.000*
G04 ================== end FILE IDENTIFICATION RECORD ====================*
%FSLAX35Y35*MOIN*%
%IR0*IPPOS*OFA0.00000B0.00000*MIA0B0*SFA1.00000B1.00000*%
%AMMACRO16*
1,1,.005,.004,0.0*
20,1,.005,.004,0.0,.003939,-.000695,0.0*
1,1,.005,.003939,-.000695*
20,1,.005,.003939,-.000695,.003759,-.001368,0.0*
1,1,.005,.003759,-.001368*
20,1,.005,.003759,-.001368,.003464,-.002,0.0*
1,1,.005,.003464,-.002*
20,1,.005,.003464,-.002,.003064,-.002571,0.0*
1,1,.005,.003064,-.002571*
20,1,.005,.003064,-.002571,.002571,-.003064,0.0*
1,1,.005,.002571,-.003064*
20,1,.005,.002571,-.003064,.002,-.003464,0.0*
1,1,.005,.002,-.003464*
20,1,.005,.002,-.003464,.001368,-.003759,0.0*
1,1,.005,.001368,-.003759*
20,1,.005,.001368,-.003759,.000695,-.003939,0.0*
1,1,.005,.000695,-.003939*
20,1,.005,.000695,-.003939,0.0,-.004,0.0*
1,1,.005,0.0,-.004*
20,1,.005,0.0,-.004,-.000695,-.003939,0.0*
1,1,.005,-.000695,-.003939*
20,1,.005,-.000695,-.003939,-.001368,-.003759,0.0*
1,1,.005,-.001368,-.003759*
20,1,.005,-.001368,-.003759,-.002,-.003464,0.0*
1,1,.005,-.002,-.003464*
20,1,.005,-.002,-.003464,-.002571,-.003064,0.0*
1,1,.005,-.002571,-.003064*
20,1,.005,-.002571,-.003064,-.003064,-.002571,0.0*
1,1,.005,-.003064,-.002571*
20,1,.005,-.003064,-.002571,-.003464,-.002,0.0*
1,1,.005,-.003464,-.002*
20,1,.005,-.003464,-.002,-.003759,-.001368,0.0*
1,1,.005,-.003759,-.001368*
20,1,.005,-.003759,-.001368,-.003939,-.000695,0.0*
1,1,.005,-.003939,-.000695*
20,1,.005,-.003939,-.000695,-.004,0.0,0.0*
1,1,.005,-.004,0.0*
20,1,.005,-.004,0.0,-.003939,.000695,0.0*
1,1,.005,-.003939,.000695*
20,1,.005,-.003939,.000695,-.003759,.001368,0.0*
1,1,.005,-.003759,.001368*
20,1,.005,-.003759,.001368,-.003464,.002,0.0*
1,1,.005,-.003464,.002*
20,1,.005,-.003464,.002,-.003064,.002571,0.0*
1,1,.005,-.003064,.002571*
20,1,.005,-.003064,.002571,-.002571,.003064,0.0*
1,1,.005,-.002571,.003064*
20,1,.005,-.002571,.003064,-.002,.003464,0.0*
1,1,.005,-.002,.003464*
20,1,.005,-.002,.003464,-.001368,.003759,0.0*
1,1,.005,-.001368,.003759*
20,1,.005,-.001368,.003759,-.000695,.003939,0.0*
1,1,.005,-.000695,.003939*
20,1,.005,-.000695,.003939,0.0,.004,0.0*
1,1,.005,0.0,.004*
20,1,.005,0.0,.004,.000695,.003939,0.0*
1,1,.005,.000695,.003939*
20,1,.005,.000695,.003939,.001368,.003759,0.0*
1,1,.005,.001368,.003759*
20,1,.005,.001368,.003759,.002,.003464,0.0*
1,1,.005,.002,.003464*
20,1,.005,.002,.003464,.002571,.003064,0.0*
1,1,.005,.002571,.003064*
20,1,.005,.002571,.003064,.003064,.002571,0.0*
1,1,.005,.003064,.002571*
20,1,.005,.003064,.002571,.003464,.002,0.0*
1,1,.005,.003464,.002*
20,1,.005,.003464,.002,.003759,.001368,0.0*
1,1,.005,.003759,.001368*
20,1,.005,.003759,.001368,.003939,.000695,0.0*
1,1,.005,.003939,.000695*
20,1,.005,.003939,.000695,.004,0.0,0.0*
1,1,.005,.004,0.0*
%
%ADD16MACRO16*%
%AMMACRO13*
1,1,.005,.005906,0.0*
20,1,.005,.005906,0.0,.005816,-.001025,0.0*
1,1,.005,.005816,-.001025*
20,1,.005,.005816,-.001025,.005549,-.00202,0.0*
1,1,.005,.005549,-.00202*
20,1,.005,.005549,-.00202,.005114,-.002953,0.0*
1,1,.005,.005114,-.002953*
20,1,.005,.005114,-.002953,.004524,-.003796,0.0*
1,1,.005,.004524,-.003796*
20,1,.005,.004524,-.003796,.003796,-.004524,0.0*
1,1,.005,.003796,-.004524*
20,1,.005,.003796,-.004524,.002953,-.005114,0.0*
1,1,.005,.002953,-.005114*
20,1,.005,.002953,-.005114,.00202,-.005549,0.0*
1,1,.005,.00202,-.005549*
20,1,.005,.00202,-.005549,.001025,-.005816,0.0*
1,1,.005,.001025,-.005816*
20,1,.005,.001025,-.005816,0.0,-.005906,0.0*
1,1,.005,0.0,-.005906*
20,1,.005,0.0,-.005906,-.001025,-.005816,0.0*
1,1,.005,-.001025,-.005816*
20,1,.005,-.001025,-.005816,-.00202,-.005549,0.0*
1,1,.005,-.00202,-.005549*
20,1,.005,-.00202,-.005549,-.002953,-.005114,0.0*
1,1,.005,-.002953,-.005114*
20,1,.005,-.002953,-.005114,-.003796,-.004524,0.0*
1,1,.005,-.003796,-.004524*
20,1,.005,-.003796,-.004524,-.004524,-.003796,0.0*
1,1,.005,-.004524,-.003796*
20,1,.005,-.004524,-.003796,-.005114,-.002953,0.0*
1,1,.005,-.005114,-.002953*
20,1,.005,-.005114,-.002953,-.005549,-.00202,0.0*
1,1,.005,-.005549,-.00202*
20,1,.005,-.005549,-.00202,-.005816,-.001025,0.0*
1,1,.005,-.005816,-.001025*
20,1,.005,-.005816,-.001025,-.005906,0.0,0.0*
1,1,.005,-.005906,0.0*
20,1,.005,-.005906,0.0,-.005816,.001025,0.0*
1,1,.005,-.005816,.001025*
20,1,.005,-.005816,.001025,-.005549,.00202,0.0*
1,1,.005,-.005549,.00202*
20,1,.005,-.005549,.00202,-.005114,.002953,0.0*
1,1,.005,-.005114,.002953*
20,1,.005,-.005114,.002953,-.004524,.003796,0.0*
1,1,.005,-.004524,.003796*
20,1,.005,-.004524,.003796,-.003796,.004524,0.0*
1,1,.005,-.003796,.004524*
20,1,.005,-.003796,.004524,-.002953,.005114,0.0*
1,1,.005,-.002953,.005114*
20,1,.005,-.002953,.005114,-.00202,.005549,0.0*
1,1,.005,-.00202,.005549*
20,1,.005,-.00202,.005549,-.001025,.005816,0.0*
1,1,.005,-.001025,.005816*
20,1,.005,-.001025,.005816,0.0,.005906,0.0*
1,1,.005,0.0,.005906*
20,1,.005,0.0,.005906,.001025,.005816,0.0*
1,1,.005,.001025,.005816*
20,1,.005,.001025,.005816,.00202,.005549,0.0*
1,1,.005,.00202,.005549*
20,1,.005,.00202,.005549,.002953,.005114,0.0*
1,1,.005,.002953,.005114*
20,1,.005,.002953,.005114,.003796,.004524,0.0*
1,1,.005,.003796,.004524*
20,1,.005,.003796,.004524,.004524,.003796,0.0*
1,1,.005,.004524,.003796*
20,1,.005,.004524,.003796,.005114,.002953,0.0*
1,1,.005,.005114,.002953*
20,1,.005,.005114,.002953,.005549,.00202,0.0*
1,1,.005,.005549,.00202*
20,1,.005,.005549,.00202,.005816,.001025,0.0*
1,1,.005,.005816,.001025*
20,1,.005,.005816,.001025,.005906,0.0,0.0*
1,1,.005,.005906,0.0*
%
%ADD13MACRO13*%
%AMMACRO12*
1,1,.005,.011811,0.0*
20,1,.005,.011811,0.0,.011632,-.002051,0.0*
1,1,.005,.011632,-.002051*
20,1,.005,.011632,-.002051,.011099,-.00404,0.0*
1,1,.005,.011099,-.00404*
20,1,.005,.011099,-.00404,.010229,-.005905,0.0*
1,1,.005,.010229,-.005905*
20,1,.005,.010229,-.005905,.009048,-.007592,0.0*
1,1,.005,.009048,-.007592*
20,1,.005,.009048,-.007592,.007592,-.009048,0.0*
1,1,.005,.007592,-.009048*
20,1,.005,.007592,-.009048,.005906,-.010229,0.0*
1,1,.005,.005906,-.010229*
20,1,.005,.005906,-.010229,.00404,-.011099,0.0*
1,1,.005,.00404,-.011099*
20,1,.005,.00404,-.011099,.002051,-.011632,0.0*
1,1,.005,.002051,-.011632*
20,1,.005,.002051,-.011632,0.0,-.011811,0.0*
1,1,.005,0.0,-.011811*
20,1,.005,0.0,-.011811,-.002051,-.011632,0.0*
1,1,.005,-.002051,-.011632*
20,1,.005,-.002051,-.011632,-.00404,-.011099,0.0*
1,1,.005,-.00404,-.011099*
20,1,.005,-.00404,-.011099,-.005905,-.010229,0.0*
1,1,.005,-.005905,-.010229*
20,1,.005,-.005905,-.010229,-.007592,-.009048,0.0*
1,1,.005,-.007592,-.009048*
20,1,.005,-.007592,-.009048,-.009048,-.007592,0.0*
1,1,.005,-.009048,-.007592*
20,1,.005,-.009048,-.007592,-.010229,-.005906,0.0*
1,1,.005,-.010229,-.005906*
20,1,.005,-.010229,-.005906,-.011099,-.00404,0.0*
1,1,.005,-.011099,-.00404*
20,1,.005,-.011099,-.00404,-.011632,-.002051,0.0*
1,1,.005,-.011632,-.002051*
20,1,.005,-.011632,-.002051,-.011811,0.0,0.0*
1,1,.005,-.011811,0.0*
20,1,.005,-.011811,0.0,-.011632,.002051,0.0*
1,1,.005,-.011632,.002051*
20,1,.005,-.011632,.002051,-.011099,.00404,0.0*
1,1,.005,-.011099,.00404*
20,1,.005,-.011099,.00404,-.010229,.005905,0.0*
1,1,.005,-.010229,.005905*
20,1,.005,-.010229,.005905,-.009048,.007592,0.0*
1,1,.005,-.009048,.007592*
20,1,.005,-.009048,.007592,-.007592,.009048,0.0*
1,1,.005,-.007592,.009048*
20,1,.005,-.007592,.009048,-.005906,.010229,0.0*
1,1,.005,-.005906,.010229*
20,1,.005,-.005906,.010229,-.00404,.011099,0.0*
1,1,.005,-.00404,.011099*
20,1,.005,-.00404,.011099,-.002051,.011632,0.0*
1,1,.005,-.002051,.011632*
20,1,.005,-.002051,.011632,0.0,.011811,0.0*
1,1,.005,0.0,.011811*
20,1,.005,0.0,.011811,.002051,.011632,0.0*
1,1,.005,.002051,.011632*
20,1,.005,.002051,.011632,.00404,.011099,0.0*
1,1,.005,.00404,.011099*
20,1,.005,.00404,.011099,.005905,.010229,0.0*
1,1,.005,.005905,.010229*
20,1,.005,.005905,.010229,.007592,.009048,0.0*
1,1,.005,.007592,.009048*
20,1,.005,.007592,.009048,.009048,.007592,0.0*
1,1,.005,.009048,.007592*
20,1,.005,.009048,.007592,.010229,.005906,0.0*
1,1,.005,.010229,.005906*
20,1,.005,.010229,.005906,.011099,.00404,0.0*
1,1,.005,.011099,.00404*
20,1,.005,.011099,.00404,.011632,.002051,0.0*
1,1,.005,.011632,.002051*
20,1,.005,.011632,.002051,.011811,0.0,0.0*
1,1,.005,.011811,0.0*
%
%ADD12MACRO12*%
%AMMACRO14*
1,1,.005,.007874,0.0*
20,1,.005,.007874,0.0,.007754,-.001367,0.0*
1,1,.005,.007754,-.001367*
20,1,.005,.007754,-.001367,.007399,-.002693,0.0*
1,1,.005,.007399,-.002693*
20,1,.005,.007399,-.002693,.006819,-.003937,0.0*
1,1,.005,.006819,-.003937*
20,1,.005,.006819,-.003937,.006032,-.005061,0.0*
1,1,.005,.006032,-.005061*
20,1,.005,.006032,-.005061,.005061,-.006032,0.0*
1,1,.005,.005061,-.006032*
20,1,.005,.005061,-.006032,.003937,-.006819,0.0*
1,1,.005,.003937,-.006819*
20,1,.005,.003937,-.006819,.002693,-.007399,0.0*
1,1,.005,.002693,-.007399*
20,1,.005,.002693,-.007399,.001367,-.007754,0.0*
1,1,.005,.001367,-.007754*
20,1,.005,.001367,-.007754,0.0,-.007874,0.0*
1,1,.005,0.0,-.007874*
20,1,.005,0.0,-.007874,-.001367,-.007754,0.0*
1,1,.005,-.001367,-.007754*
20,1,.005,-.001367,-.007754,-.002693,-.007399,0.0*
1,1,.005,-.002693,-.007399*
20,1,.005,-.002693,-.007399,-.003937,-.006819,0.0*
1,1,.005,-.003937,-.006819*
20,1,.005,-.003937,-.006819,-.005061,-.006032,0.0*
1,1,.005,-.005061,-.006032*
20,1,.005,-.005061,-.006032,-.006032,-.005061,0.0*
1,1,.005,-.006032,-.005061*
20,1,.005,-.006032,-.005061,-.006819,-.003937,0.0*
1,1,.005,-.006819,-.003937*
20,1,.005,-.006819,-.003937,-.007399,-.002693,0.0*
1,1,.005,-.007399,-.002693*
20,1,.005,-.007399,-.002693,-.007754,-.001367,0.0*
1,1,.005,-.007754,-.001367*
20,1,.005,-.007754,-.001367,-.007874,0.0,0.0*
1,1,.005,-.007874,0.0*
20,1,.005,-.007874,0.0,-.007754,.001367,0.0*
1,1,.005,-.007754,.001367*
20,1,.005,-.007754,.001367,-.007399,.002693,0.0*
1,1,.005,-.007399,.002693*
20,1,.005,-.007399,.002693,-.006819,.003937,0.0*
1,1,.005,-.006819,.003937*
20,1,.005,-.006819,.003937,-.006032,.005061,0.0*
1,1,.005,-.006032,.005061*
20,1,.005,-.006032,.005061,-.005061,.006032,0.0*
1,1,.005,-.005061,.006032*
20,1,.005,-.005061,.006032,-.003937,.006819,0.0*
1,1,.005,-.003937,.006819*
20,1,.005,-.003937,.006819,-.002693,.007399,0.0*
1,1,.005,-.002693,.007399*
20,1,.005,-.002693,.007399,-.001367,.007754,0.0*
1,1,.005,-.001367,.007754*
20,1,.005,-.001367,.007754,0.0,.007874,0.0*
1,1,.005,0.0,.007874*
20,1,.005,0.0,.007874,.001367,.007754,0.0*
1,1,.005,.001367,.007754*
20,1,.005,.001367,.007754,.002693,.007399,0.0*
1,1,.005,.002693,.007399*
20,1,.005,.002693,.007399,.003937,.006819,0.0*
1,1,.005,.003937,.006819*
20,1,.005,.003937,.006819,.005061,.006032,0.0*
1,1,.005,.005061,.006032*
20,1,.005,.005061,.006032,.006032,.005061,0.0*
1,1,.005,.006032,.005061*
20,1,.005,.006032,.005061,.006819,.003937,0.0*
1,1,.005,.006819,.003937*
20,1,.005,.006819,.003937,.007399,.002693,0.0*
1,1,.005,.007399,.002693*
20,1,.005,.007399,.002693,.007754,.001367,0.0*
1,1,.005,.007754,.001367*
20,1,.005,.007754,.001367,.007874,0.0,0.0*
1,1,.005,.007874,0.0*
%
%ADD14MACRO14*%
%AMMACRO11*
1,1,.005,.014764,0.0*
20,1,.005,.014764,0.0,.01454,-.002564,0.0*
1,1,.005,.01454,-.002564*
20,1,.005,.01454,-.002564,.013874,-.00505,0.0*
1,1,.005,.013874,-.00505*
20,1,.005,.013874,-.00505,.012786,-.007382,0.0*
1,1,.005,.012786,-.007382*
20,1,.005,.012786,-.007382,.01131,-.00949,0.0*
1,1,.005,.01131,-.00949*
20,1,.005,.01131,-.00949,.00949,-.01131,0.0*
1,1,.005,.00949,-.01131*
20,1,.005,.00949,-.01131,.007382,-.012786,0.0*
1,1,.005,.007382,-.012786*
20,1,.005,.007382,-.012786,.00505,-.013874,0.0*
1,1,.005,.00505,-.013874*
20,1,.005,.00505,-.013874,.002564,-.01454,0.0*
1,1,.005,.002564,-.01454*
20,1,.005,.002564,-.01454,0.0,-.014764,0.0*
1,1,.005,0.0,-.014764*
20,1,.005,0.0,-.014764,-.002564,-.01454,0.0*
1,1,.005,-.002564,-.01454*
20,1,.005,-.002564,-.01454,-.00505,-.013874,0.0*
1,1,.005,-.00505,-.013874*
20,1,.005,-.00505,-.013874,-.007382,-.012786,0.0*
1,1,.005,-.007382,-.012786*
20,1,.005,-.007382,-.012786,-.00949,-.01131,0.0*
1,1,.005,-.00949,-.01131*
20,1,.005,-.00949,-.01131,-.01131,-.00949,0.0*
1,1,.005,-.01131,-.00949*
20,1,.005,-.01131,-.00949,-.012786,-.007382,0.0*
1,1,.005,-.012786,-.007382*
20,1,.005,-.012786,-.007382,-.013874,-.00505,0.0*
1,1,.005,-.013874,-.00505*
20,1,.005,-.013874,-.00505,-.01454,-.002564,0.0*
1,1,.005,-.01454,-.002564*
20,1,.005,-.01454,-.002564,-.014764,0.0,0.0*
1,1,.005,-.014764,0.0*
20,1,.005,-.014764,0.0,-.01454,.002564,0.0*
1,1,.005,-.01454,.002564*
20,1,.005,-.01454,.002564,-.013874,.00505,0.0*
1,1,.005,-.013874,.00505*
20,1,.005,-.013874,.00505,-.012786,.007382,0.0*
1,1,.005,-.012786,.007382*
20,1,.005,-.012786,.007382,-.01131,.00949,0.0*
1,1,.005,-.01131,.00949*
20,1,.005,-.01131,.00949,-.00949,.01131,0.0*
1,1,.005,-.00949,.01131*
20,1,.005,-.00949,.01131,-.007382,.012786,0.0*
1,1,.005,-.007382,.012786*
20,1,.005,-.007382,.012786,-.00505,.013874,0.0*
1,1,.005,-.00505,.013874*
20,1,.005,-.00505,.013874,-.002564,.01454,0.0*
1,1,.005,-.002564,.01454*
20,1,.005,-.002564,.01454,0.0,.014764,0.0*
1,1,.005,0.0,.014764*
20,1,.005,0.0,.014764,.002564,.01454,0.0*
1,1,.005,.002564,.01454*
20,1,.005,.002564,.01454,.00505,.013874,0.0*
1,1,.005,.00505,.013874*
20,1,.005,.00505,.013874,.007382,.012786,0.0*
1,1,.005,.007382,.012786*
20,1,.005,.007382,.012786,.00949,.01131,0.0*
1,1,.005,.00949,.01131*
20,1,.005,.00949,.01131,.01131,.00949,0.0*
1,1,.005,.01131,.00949*
20,1,.005,.01131,.00949,.012786,.007382,0.0*
1,1,.005,.012786,.007382*
20,1,.005,.012786,.007382,.013874,.00505,0.0*
1,1,.005,.013874,.00505*
20,1,.005,.013874,.00505,.01454,.002564,0.0*
1,1,.005,.01454,.002564*
20,1,.005,.01454,.002564,.014764,0.0,0.0*
1,1,.005,.014764,0.0*
%
%ADD11MACRO11*%
%AMMACRO10*
1,1,.005,-.009449,.014173*
20,1,.005,-.009449,.014173,.009449,.014173,0.0*
1,1,.005,.009449,.014173*
20,1,.005,.009449,.014173,.01191,.013958,0.0*
1,1,.005,.01191,.013958*
20,1,.005,.01191,.013958,.014296,.013318,0.0*
1,1,.005,.014296,.013318*
20,1,.005,.014296,.013318,.016535,.012274,0.0*
1,1,.005,.016535,.012274*
20,1,.005,.016535,.012274,.018559,.010857,0.0*
1,1,.005,.018559,.010857*
20,1,.005,.018559,.010857,.020306,.00911,0.0*
1,1,.005,.020306,.00911*
20,1,.005,.020306,.00911,.021723,.007087,0.0*
1,1,.005,.021723,.007087*
20,1,.005,.021723,.007087,.022767,.004847,0.0*
1,1,.005,.022767,.004847*
20,1,.005,.022767,.004847,.023407,.002461,0.0*
1,1,.005,.023407,.002461*
20,1,.005,.023407,.002461,.023622,0.0,0.0*
1,1,.005,.023622,0.0*
20,1,.005,.023622,0.0,.023407,-.002461,0.0*
1,1,.005,.023407,-.002461*
20,1,.005,.023407,-.002461,.022767,-.004847,0.0*
1,1,.005,.022767,-.004847*
20,1,.005,.022767,-.004847,.021723,-.007086,0.0*
1,1,.005,.021723,-.007086*
20,1,.005,.021723,-.007086,.020306,-.00911,0.0*
1,1,.005,.020306,-.00911*
20,1,.005,.020306,-.00911,.018559,-.010857,0.0*
1,1,.005,.018559,-.010857*
20,1,.005,.018559,-.010857,.016536,-.012274,0.0*
1,1,.005,.016536,-.012274*
20,1,.005,.016536,-.012274,.014296,-.013318,0.0*
1,1,.005,.014296,-.013318*
20,1,.005,.014296,-.013318,.01191,-.013958,0.0*
1,1,.005,.01191,-.013958*
20,1,.005,.01191,-.013958,.009449,-.014173,0.0*
1,1,.005,.009449,-.014173*
20,1,.005,.009449,-.014173,-.009449,-.014173,0.0*
1,1,.005,-.009449,-.014173*
20,1,.005,-.009449,-.014173,-.01191,-.013958,0.0*
1,1,.005,-.01191,-.013958*
20,1,.005,-.01191,-.013958,-.014296,-.013318,0.0*
1,1,.005,-.014296,-.013318*
20,1,.005,-.014296,-.013318,-.016535,-.012274,0.0*
1,1,.005,-.016535,-.012274*
20,1,.005,-.016535,-.012274,-.018559,-.010857,0.0*
1,1,.005,-.018559,-.010857*
20,1,.005,-.018559,-.010857,-.020306,-.00911,0.0*
1,1,.005,-.020306,-.00911*
20,1,.005,-.020306,-.00911,-.021723,-.007087,0.0*
1,1,.005,-.021723,-.007087*
20,1,.005,-.021723,-.007087,-.022767,-.004847,0.0*
1,1,.005,-.022767,-.004847*
20,1,.005,-.022767,-.004847,-.023407,-.002461,0.0*
1,1,.005,-.023407,-.002461*
20,1,.005,-.023407,-.002461,-.023622,0.0,0.0*
1,1,.005,-.023622,0.0*
20,1,.005,-.023622,0.0,-.023407,.002461,0.0*
1,1,.005,-.023407,.002461*
20,1,.005,-.023407,.002461,-.022767,.004847,0.0*
1,1,.005,-.022767,.004847*
20,1,.005,-.022767,.004847,-.021723,.007086,0.0*
1,1,.005,-.021723,.007086*
20,1,.005,-.021723,.007086,-.020306,.00911,0.0*
1,1,.005,-.020306,.00911*
20,1,.005,-.020306,.00911,-.018559,.010857,0.0*
1,1,.005,-.018559,.010857*
20,1,.005,-.018559,.010857,-.016536,.012274,0.0*
1,1,.005,-.016536,.012274*
20,1,.005,-.016536,.012274,-.014296,.013318,0.0*
1,1,.005,-.014296,.013318*
20,1,.005,-.014296,.013318,-.01191,.013958,0.0*
1,1,.005,-.01191,.013958*
20,1,.005,-.01191,.013958,-.009449,.014173,0.0*
1,1,.005,-.009449,.014173*
%
%ADD10MACRO10*%
%AMMACRO15*
1,1,.005,.005,0.0*
20,1,.005,.005,0.0,.004924,-.000868,0.0*
1,1,.005,.004924,-.000868*
20,1,.005,.004924,-.000868,.004698,-.00171,0.0*
1,1,.005,.004698,-.00171*
20,1,.005,.004698,-.00171,.00433,-.0025,0.0*
1,1,.005,.00433,-.0025*
20,1,.005,.00433,-.0025,.00383,-.003214,0.0*
1,1,.005,.00383,-.003214*
20,1,.005,.00383,-.003214,.003214,-.00383,0.0*
1,1,.005,.003214,-.00383*
20,1,.005,.003214,-.00383,.0025,-.00433,0.0*
1,1,.005,.0025,-.00433*
20,1,.005,.0025,-.00433,.00171,-.004698,0.0*
1,1,.005,.00171,-.004698*
20,1,.005,.00171,-.004698,.000868,-.004924,0.0*
1,1,.005,.000868,-.004924*
20,1,.005,.000868,-.004924,0.0,-.005,0.0*
1,1,.005,0.0,-.005*
20,1,.005,0.0,-.005,-.000868,-.004924,0.0*
1,1,.005,-.000868,-.004924*
20,1,.005,-.000868,-.004924,-.00171,-.004698,0.0*
1,1,.005,-.00171,-.004698*
20,1,.005,-.00171,-.004698,-.0025,-.00433,0.0*
1,1,.005,-.0025,-.00433*
20,1,.005,-.0025,-.00433,-.003214,-.00383,0.0*
1,1,.005,-.003214,-.00383*
20,1,.005,-.003214,-.00383,-.00383,-.003214,0.0*
1,1,.005,-.00383,-.003214*
20,1,.005,-.00383,-.003214,-.00433,-.0025,0.0*
1,1,.005,-.00433,-.0025*
20,1,.005,-.00433,-.0025,-.004698,-.00171,0.0*
1,1,.005,-.004698,-.00171*
20,1,.005,-.004698,-.00171,-.004924,-.000868,0.0*
1,1,.005,-.004924,-.000868*
20,1,.005,-.004924,-.000868,-.005,0.0,0.0*
1,1,.005,-.005,0.0*
20,1,.005,-.005,0.0,-.004924,.000868,0.0*
1,1,.005,-.004924,.000868*
20,1,.005,-.004924,.000868,-.004698,.00171,0.0*
1,1,.005,-.004698,.00171*
20,1,.005,-.004698,.00171,-.00433,.0025,0.0*
1,1,.005,-.00433,.0025*
20,1,.005,-.00433,.0025,-.00383,.003214,0.0*
1,1,.005,-.00383,.003214*
20,1,.005,-.00383,.003214,-.003214,.00383,0.0*
1,1,.005,-.003214,.00383*
20,1,.005,-.003214,.00383,-.0025,.00433,0.0*
1,1,.005,-.0025,.00433*
20,1,.005,-.0025,.00433,-.00171,.004698,0.0*
1,1,.005,-.00171,.004698*
20,1,.005,-.00171,.004698,-.000868,.004924,0.0*
1,1,.005,-.000868,.004924*
20,1,.005,-.000868,.004924,0.0,.005,0.0*
1,1,.005,0.0,.005*
20,1,.005,0.0,.005,.000868,.004924,0.0*
1,1,.005,.000868,.004924*
20,1,.005,.000868,.004924,.00171,.004698,0.0*
1,1,.005,.00171,.004698*
20,1,.005,.00171,.004698,.0025,.00433,0.0*
1,1,.005,.0025,.00433*
20,1,.005,.0025,.00433,.003214,.00383,0.0*
1,1,.005,.003214,.00383*
20,1,.005,.003214,.00383,.00383,.003214,0.0*
1,1,.005,.00383,.003214*
20,1,.005,.00383,.003214,.00433,.0025,0.0*
1,1,.005,.00433,.0025*
20,1,.005,.00433,.0025,.004698,.00171,0.0*
1,1,.005,.004698,.00171*
20,1,.005,.004698,.00171,.004924,.000868,0.0*
1,1,.005,.004924,.000868*
20,1,.005,.004924,.000868,.005,0.0,0.0*
1,1,.005,.005,0.0*
%
%ADD15MACRO15*%
%ADD17C,.005*%
G75*
%LPD*%
G75*
G54D10*
X-49122Y39037D03*
X9252Y-93012D03*
Y-64468D03*
G54D11*
X-49122Y64037D03*
X241811Y-127933D03*
Y-29547D03*
G54D12*
X-49122Y114037D03*
X27177Y-142744D03*
X37177D03*
X47177D03*
X57177D03*
X65543Y-122012D03*
X55543D03*
X83079Y-142913D03*
X73079D03*
X75543Y-122012D03*
X93079Y-142913D03*
X95543Y-122012D03*
X85543D03*
X103079Y-142913D03*
X115543Y-122012D03*
X105543D03*
X115543Y-6264D03*
X105543D03*
X147630Y-18374D03*
X157630D03*
X177630D03*
X167630D03*
G54D13*
X-49122Y89037D03*
X236220Y-100551D03*
X247402Y-95098D03*
Y-84193D03*
X236220Y-89646D03*
X247402Y-73287D03*
X236220Y-78740D03*
Y-67835D03*
X247402Y-62382D03*
X236220Y-56929D03*
G54D14*
X-49122Y139037D03*
X19685Y-88287D03*
Y-69193D03*
G54D15*
X-49122Y164037D03*
X11098Y-135910D03*
X16468Y-129998D03*
X8368Y-129631D03*
X7160Y-105628D03*
X9596Y-82484D03*
X11020Y-56539D03*
X16020D03*
X11020Y-51539D03*
X16020D03*
X11020Y-46539D03*
X16020D03*
X11020Y-41539D03*
X16020D03*
X11020Y-36539D03*
X16020D03*
X11020Y-31539D03*
X16020D03*
X11020Y-26539D03*
X16020D03*
X11020Y-21539D03*
X16020D03*
X24022Y-130361D03*
X32123Y-115342D03*
X31020Y-66539D03*
X26020Y-61539D03*
X31020D03*
X26020Y-56539D03*
X31020D03*
X21020Y-51539D03*
X26020D03*
X31020D03*
X21020Y-46539D03*
X26020D03*
X31020D03*
X21020Y-41539D03*
X26020D03*
X31020D03*
X21020Y-36539D03*
X26020D03*
X31020D03*
X21020Y-31539D03*
X26020D03*
X31020D03*
X21020Y-26539D03*
X26020D03*
X31020D03*
X21020Y-21539D03*
X26020D03*
X31020D03*
X21020Y-16539D03*
X26020D03*
X31020D03*
X26020Y-11539D03*
X31020D03*
X43592Y-101598D03*
X36020Y-66539D03*
X41020D03*
X46020D03*
X36020Y-61539D03*
X41020D03*
X46020D03*
X36020Y-56539D03*
X41020D03*
X46020D03*
X36020Y-51539D03*
X41020D03*
X46020D03*
X36020Y-46539D03*
X41020D03*
X46020D03*
X36020Y-41539D03*
X41020D03*
X36020Y-36539D03*
X41020D03*
X36020Y-31539D03*
X41020D03*
X46020D03*
X36020Y-26539D03*
X41020D03*
X36020Y-21539D03*
X41020D03*
X36020Y-16539D03*
X41020D03*
X46020D03*
X36020Y-11539D03*
X41020D03*
X58880Y-128902D03*
X50963Y-102238D03*
X51420Y-93361D03*
X51463Y-57275D03*
X50963Y-49810D03*
X51030Y-36090D03*
X62500Y-47650D03*
X50577Y-27260D03*
X62862Y-28809D03*
X51213Y-14609D03*
X79316Y-129904D03*
X74931Y-130943D03*
X81500Y-50766D03*
X76243Y-51382D03*
X75787Y-45192D03*
X77834Y-37681D03*
X77792Y-33633D03*
X81840Y-30084D03*
X73853Y-12768D03*
X76470Y-17296D03*
X69555Y-16933D03*
X81020Y-11539D03*
X91946Y-103412D03*
X97040Y-77864D03*
X85233Y-77796D03*
X85779Y-71061D03*
X96857Y-70403D03*
X91422Y-70426D03*
X96720Y-63301D03*
X85685Y-63507D03*
X92105Y-46671D03*
X98930Y-33882D03*
X99932Y-17772D03*
X93649Y-14952D03*
X88119Y-15794D03*
X86020Y-11539D03*
X91020D03*
X96020D03*
X112447Y-113431D03*
X116020Y-56539D03*
X107849Y-33064D03*
X101773Y-30809D03*
X101453Y-22709D03*
X106020Y-26539D03*
X111020D03*
X116020D03*
X106020Y-21539D03*
X111020D03*
X116020D03*
X106020Y-16539D03*
X111020D03*
X116020D03*
X125287Y-138024D03*
X120744Y-116524D03*
X120571Y-97724D03*
X126020Y-51539D03*
X131020D03*
X121020Y-26539D03*
Y-21539D03*
Y-16539D03*
X126020D03*
Y-11539D03*
X131020D03*
X146896Y-117982D03*
X137793Y-118345D03*
X139792Y-84899D03*
X141098Y-63090D03*
X154229Y-141617D03*
X163831Y-133539D03*
X156020Y-86539D03*
X161020D03*
X166020D03*
X156020Y-81539D03*
X161020D03*
X166020D03*
X156020Y-76539D03*
X161020D03*
X166020D03*
X156020Y-71539D03*
X161020D03*
X166020D03*
X156020Y-66539D03*
X161020D03*
X166020D03*
X165963Y-47946D03*
X156135D03*
X171020Y-146539D03*
X176020D03*
X181020D03*
X178413Y-99567D03*
X171020Y-86539D03*
Y-81539D03*
Y-76539D03*
X176245Y-48848D03*
X176284Y-45302D03*
X186020Y-146539D03*
X191020D03*
X196020D03*
X191020Y-141539D03*
X196020D03*
X191313Y-119484D03*
X189581Y-101598D03*
X198034Y-82797D03*
X197410Y-57112D03*
X196020Y-31539D03*
Y-26539D03*
Y-21539D03*
Y-16539D03*
Y-11539D03*
X201020Y-146539D03*
X206020D03*
X211020D03*
X206020Y-141539D03*
X211020D03*
X203918Y-119757D03*
X206102Y-92453D03*
X210526Y-82680D03*
X209824Y-58198D03*
X201020Y-36539D03*
X206020D03*
X211020D03*
X201020Y-31539D03*
X206020D03*
X211020D03*
X201020Y-26539D03*
X206020D03*
X211020D03*
X201020Y-21539D03*
X206020D03*
X211020D03*
X201020Y-16539D03*
X206020D03*
X211020D03*
X201020Y-11539D03*
X206020D03*
X211020D03*
X216020Y-146539D03*
X221020D03*
X226020D03*
X231020D03*
X216020Y-141539D03*
X221020D03*
X226020D03*
X231020D03*
X226020Y-136539D03*
Y-131539D03*
X221020Y-126539D03*
X226020D03*
X221020Y-121539D03*
X226020D03*
Y-116539D03*
X231020D03*
X226020Y-111539D03*
X231020D03*
X226020Y-106539D03*
Y-101539D03*
Y-96539D03*
X221020Y-91539D03*
X226020D03*
X221020Y-86539D03*
X226020D03*
X231020Y-46539D03*
X226020Y-41539D03*
X231020D03*
X216020Y-36539D03*
X221020D03*
X226020D03*
X216020Y-31539D03*
X221020D03*
X226020D03*
X216020Y-26539D03*
X221020D03*
X226020D03*
X216020Y-21539D03*
X221020D03*
X226020D03*
X216020Y-16539D03*
X221020D03*
X226020D03*
X231020D03*
X216020Y-11539D03*
X221020D03*
X226020D03*
X231020D03*
X236020Y-111539D03*
X241020D03*
X246020D03*
Y-106539D03*
Y-51539D03*
X236020Y-46539D03*
X241020D03*
X246020D03*
G54D16*
X-49122Y189037D03*
X27244Y-78740D03*
X24780Y-76181D03*
X47319Y-123778D03*
X44303Y-127472D03*
X43705Y-78740D03*
X38051Y-76181D03*
X50689Y-108287D03*
X55622Y-110850D03*
X58342Y-106154D03*
Y-48488D03*
X63449Y-35114D03*
X80395Y-109099D03*
X69892Y-108295D03*
X69958Y-110835D03*
X74063Y-114071D03*
X71230Y-106184D03*
X76740Y-116378D03*
X79764Y-89472D03*
X76136Y-92878D03*
X76900Y-100487D03*
X80122Y-98976D03*
X74429Y-69610D03*
X107720Y-129693D03*
X109223Y-108346D03*
X109618Y-102921D03*
X104980Y-105382D03*
X100803Y-86744D03*
X106715Y-100632D03*
X111626Y-70429D03*
X109020Y-72988D03*
X106606Y-75547D03*
X113049Y-67870D03*
X100803Y-52307D03*
X128784Y-142831D03*
X121827Y-125032D03*
X128130Y-133992D03*
X126709Y-111342D03*
X128878Y-114059D03*
X124028Y-70402D03*
X120740Y-66654D03*
X124028Y-62709D03*
X120744Y-37567D03*
X146106Y-37508D03*
X157642Y-127465D03*
X164193Y-125032D03*
X161461Y-128854D03*
X153228Y-127421D03*
X155984Y-122012D03*
X166276Y-107354D03*
X177028Y-70594D03*
X179748Y-41055D03*
X168811Y-37508D03*
X184819Y-107354D03*
X197248Y-114059D03*
X189071Y-92240D03*
X185839Y-96146D03*
X193878Y-42476D03*
X189071Y-8906D03*
X185839Y-18374D03*
X198732Y-135331D03*
X204484Y-111342D03*
X205764Y-63328D03*
X204819Y-66067D03*
X201634Y-66677D03*
X205764Y-45024D03*
X200484Y-42543D03*
X215476Y-135331D03*
G54D17*
G01X17736Y-145728D02*
G03I-5905J0D01*
G01Y-11870D02*
G03I-5905J0D01*
G01X250020Y-145728D02*
G03I-5906J0D01*
G01Y-11870D02*
G03I-5906J0D01*
G01X-94072Y26537D02*
Y276537D01*
X389528D01*
Y26537D01*
X-94072D01*
G01Y51537D02*
X389528D01*
G01X-94072Y76537D02*
X389528D01*
G01X-94072Y101537D02*
X389528D01*
G01X-94072Y126537D02*
X389528D01*
G01X-94072Y151537D02*
X389528D01*
G01X-94072Y176537D02*
X389528D01*
G01X-83067Y207787D02*
Y220287D01*
X-77177D01*
G01X-79347Y214246D02*
X-83067D01*
G01X-69582Y220287D02*
X-65862D01*
G01X-67722D02*
Y207787D01*
G01X-69582D02*
X-65862D01*
G01X-54392Y214037D02*
X-51292D01*
Y210287D01*
X-52222Y209037D01*
X-53307Y208204D01*
X-54857Y207787D01*
X-56407Y208204D01*
X-57492Y209037D01*
X-58422Y210287D01*
X-59042Y211746D01*
X-59352Y213412D01*
Y214871D01*
X-59042Y216120D01*
X-58422Y217579D01*
X-57492Y218829D01*
X-56562Y219662D01*
X-55322Y220287D01*
X-54237D01*
X-52997Y219871D01*
X-52067Y219037D01*
G01X-46332Y220287D02*
Y211329D01*
X-45712Y209454D01*
X-44472Y208204D01*
X-42922Y207787D01*
X-41372Y208204D01*
X-40132Y209454D01*
X-39512Y211329D01*
Y220287D01*
G01X-33622Y207787D02*
Y220287D01*
X-29747D01*
X-28507Y219662D01*
X-27732Y218829D01*
X-27422Y217162D01*
X-27732Y215496D01*
X-28662Y214454D01*
X-29747Y213829D01*
X-33622D01*
G01X-29747D02*
X-27422Y207787D01*
G01X-15022D02*
X-21222D01*
Y220287D01*
X-15022D01*
G01X-17502Y214246D02*
X-21222D01*
G01X-94072Y201537D02*
X389528D01*
G01X-94072Y226537D02*
X389528D01*
G01X-94072Y251537D02*
X389528D01*
G01X-4172Y226537D02*
Y26537D01*
G01X-10682Y257787D02*
Y270287D01*
X-7582D01*
X-6342Y269662D01*
X-5412Y268829D01*
X-4637Y267579D01*
X-4017Y266120D01*
X-3862Y264037D01*
X-4017Y261954D01*
X-4637Y260495D01*
X-5412Y259245D01*
X-6342Y258412D01*
X-7582Y257787D01*
X-10682D01*
G01X2028D02*
Y270287D01*
X5903D01*
X7143Y269662D01*
X7918Y268829D01*
X8228Y267162D01*
X7918Y265496D01*
X6988Y264454D01*
X5903Y263829D01*
X2028D01*
G01X5903D02*
X8228Y257787D01*
G01X15668Y270287D02*
X19388D01*
G01X17528D02*
Y257787D01*
G01X15668D02*
X19388D01*
G01X26828Y270287D02*
Y257787D01*
X33028D01*
G01X39228Y270287D02*
Y257787D01*
X45428D01*
G01X70538Y269246D02*
X69608Y269871D01*
X68523Y270287D01*
X67283D01*
X65888Y269662D01*
X64803Y268621D01*
X64028Y267370D01*
X63408Y265287D01*
X63253Y263412D01*
X63563Y261537D01*
X64028Y260287D01*
X64958Y259037D01*
X66043Y258204D01*
X67128Y257787D01*
X68213D01*
X69298Y258204D01*
X70228Y258829D01*
X71003Y259662D01*
G01X76273Y257787D02*
Y270287D01*
G01X82783D02*
Y257787D01*
G01Y264037D02*
X76273D01*
G01X88053Y257787D02*
X91928Y270287D01*
X95803Y257787D01*
G01X94408Y262162D02*
X89448D01*
G01X101228Y257787D02*
Y270287D01*
X105103D01*
X106343Y269662D01*
X107118Y268829D01*
X107428Y267162D01*
X107118Y265496D01*
X106188Y264454D01*
X105103Y263829D01*
X101228D01*
G01X105103D02*
X107428Y257787D01*
G01X116728Y270287D02*
Y257787D01*
G01X113163Y270287D02*
X120293D01*
G01X129128Y257371D02*
X128818Y257579D01*
Y257996D01*
X129128Y258204D01*
X129438Y257996D01*
Y257579D01*
X129128Y257371D01*
G01Y262995D02*
X128818Y263204D01*
Y263620D01*
X129128Y263829D01*
X129438Y263620D01*
Y263204D01*
X129128Y262995D01*
G01X153928Y270287D02*
Y257787D01*
G01X150363Y270287D02*
X157493D01*
G01X166328Y257787D02*
X165088Y257996D01*
X164003Y258829D01*
X163073Y260079D01*
X162453Y261537D01*
X162143Y263204D01*
Y264871D01*
X162453Y266537D01*
X163073Y267996D01*
X164003Y269246D01*
X165088Y270079D01*
X166328Y270287D01*
X167568Y270079D01*
X168653Y269246D01*
X169583Y267996D01*
X170203Y266537D01*
X170513Y264871D01*
Y263204D01*
X170203Y261537D01*
X169583Y260079D01*
X168653Y258829D01*
X167568Y257996D01*
X166328Y257787D01*
G01X175628D02*
Y270287D01*
X179348D01*
X180588Y269662D01*
X181518Y268204D01*
X181828Y266537D01*
X181518Y264871D01*
X180743Y263620D01*
X179348Y262995D01*
X175628D01*
G01X203528Y270287D02*
Y257787D01*
G01X201358Y266120D02*
X205698D01*
G01X215928Y257787D02*
X214998Y257996D01*
X214068Y258829D01*
X213448Y260287D01*
X213138Y261954D01*
X213448Y263620D01*
X214068Y265079D01*
X214998Y265912D01*
X215928Y266120D01*
X216858Y265912D01*
X217788Y265079D01*
X218408Y263620D01*
X218563Y261954D01*
X218408Y260287D01*
X217788Y258829D01*
X216858Y257996D01*
X215928Y257787D01*
G01X241968Y264454D02*
X242588Y265079D01*
X243053Y266120D01*
X243363Y267579D01*
X243053Y268829D01*
X242433Y269662D01*
X241348Y270287D01*
X237163D01*
Y257787D01*
X242278D01*
X243363Y258620D01*
X243983Y259871D01*
X244293Y261329D01*
X243983Y262787D01*
X243053Y264037D01*
X241968Y264454D01*
X237163D01*
G01X253128Y257787D02*
X251888Y257996D01*
X250803Y258829D01*
X249873Y260079D01*
X249253Y261537D01*
X248943Y263204D01*
Y264871D01*
X249253Y266537D01*
X249873Y267996D01*
X250803Y269246D01*
X251888Y270079D01*
X253128Y270287D01*
X254368Y270079D01*
X255453Y269246D01*
X256383Y267996D01*
X257003Y266537D01*
X257313Y264871D01*
Y263204D01*
X257003Y261537D01*
X256383Y260079D01*
X255453Y258829D01*
X254368Y257996D01*
X253128Y257787D01*
G01X265528Y270287D02*
Y257787D01*
G01X261963Y270287D02*
X269093D01*
G01X277928D02*
Y257787D01*
G01X274363Y270287D02*
X281493D01*
G01X290328Y257787D02*
X289088Y257996D01*
X288003Y258829D01*
X287073Y260079D01*
X286453Y261537D01*
X286143Y263204D01*
Y264871D01*
X286453Y266537D01*
X287073Y267996D01*
X288003Y269246D01*
X289088Y270079D01*
X290328Y270287D01*
X291568Y270079D01*
X292653Y269246D01*
X293583Y267996D01*
X294203Y266537D01*
X294513Y264871D01*
Y263204D01*
X294203Y261537D01*
X293583Y260079D01*
X292653Y258829D01*
X291568Y257996D01*
X290328Y257787D01*
G01X298698D02*
Y270287D01*
X302728Y259871D01*
X306758Y270287D01*
Y257787D01*
G01X20Y-157539D02*
Y-59D01*
X255925D01*
Y-157539D01*
X20D01*
G01X17736Y-145728D02*
G03I-5905J0D01*
G01Y-11870D02*
G03I-5905J0D01*
G01X17838Y32787D02*
Y45287D01*
X12103Y36329D01*
X19853D01*
G01X28068Y32787D02*
X28378Y35495D01*
X28843Y37787D01*
X29463Y39871D01*
X30238Y42162D01*
X31478Y45287D01*
X25278D01*
G01X40778Y32371D02*
X40468Y32579D01*
Y32996D01*
X40778Y33204D01*
X41088Y32996D01*
Y32579D01*
X40778Y32371D01*
G01X50233Y43204D02*
X51163Y44454D01*
X52248Y45079D01*
X53488Y45287D01*
X55038Y44871D01*
X56123Y43829D01*
X56433Y42579D01*
X56278Y41329D01*
X55658Y40287D01*
X52558Y38204D01*
X51163Y36746D01*
X50233Y34662D01*
X49923Y32787D01*
X56433D01*
G01X67438D02*
Y45287D01*
X61703Y36329D01*
X69453D01*
G01X79838Y32787D02*
Y45287D01*
X74103Y36329D01*
X81853D01*
G01X88053Y41120D02*
X92703Y32787D01*
G01Y41120D02*
X88053Y32787D01*
G01X99833Y43204D02*
X100763Y44454D01*
X101848Y45079D01*
X103088Y45287D01*
X104638Y44871D01*
X105723Y43829D01*
X106033Y42579D01*
X105878Y41329D01*
X105258Y40287D01*
X102158Y38204D01*
X100763Y36746D01*
X99833Y34662D01*
X99523Y32787D01*
X106033D01*
G01X115178D02*
X116263Y32996D01*
X117503Y33620D01*
X118278Y34662D01*
X118588Y36121D01*
X118278Y37579D01*
X117348Y38829D01*
X115953Y39454D01*
X114403D01*
X113473Y39871D01*
X112698Y40912D01*
X112388Y42370D01*
X112853Y43829D01*
X113938Y44871D01*
X115178Y45287D01*
X116418Y44871D01*
X117503Y43829D01*
X117968Y42370D01*
X117658Y40912D01*
X116883Y39871D01*
X115953Y39454D01*
X114403D01*
X113008Y38829D01*
X112078Y37579D01*
X111768Y36121D01*
X112078Y34662D01*
X112853Y33620D01*
X114093Y32996D01*
X115178Y32787D01*
G01X127578Y32371D02*
X127268Y32579D01*
Y32996D01*
X127578Y33204D01*
X127888Y32996D01*
Y32579D01*
X127578Y32371D01*
G01X136568Y35287D02*
X137498Y33829D01*
X138738Y32996D01*
X140133Y32787D01*
X141373Y32996D01*
X142613Y34037D01*
X143388Y35287D01*
X143543Y36537D01*
X143233Y37995D01*
X142148Y39037D01*
X141063Y39454D01*
X139668D01*
G01X141063D02*
X141993Y40079D01*
X142768Y41120D01*
X143078Y42370D01*
X142768Y43621D01*
X141993Y44662D01*
X140598Y45287D01*
X139203Y45079D01*
X137808Y44246D01*
G01X154238Y32787D02*
Y45287D01*
X148503Y36329D01*
X156253D01*
G01X161833Y37995D02*
X162918Y39454D01*
X163848Y40287D01*
X165088Y40704D01*
X166173Y40287D01*
X166948Y39454D01*
X167568Y38204D01*
X167723Y36746D01*
X167568Y35495D01*
X166948Y34245D01*
X166018Y33204D01*
X164933Y32787D01*
X163693Y33204D01*
X162608Y34454D01*
X161988Y36329D01*
X161833Y38412D01*
X162143Y41120D01*
X162608Y42579D01*
X163383Y44037D01*
X164468Y45079D01*
X165553Y45287D01*
X166638Y44871D01*
X167413Y43829D01*
G01X19853Y232787D02*
X23728Y245287D01*
X27603Y232787D01*
G01X26208Y237162D02*
X21248D01*
G01X33028Y245287D02*
Y232787D01*
X39228D01*
G01X45428Y245287D02*
Y232787D01*
X51628D01*
G01X69918Y245287D02*
Y236329D01*
X70538Y234454D01*
X71778Y233204D01*
X73328Y232787D01*
X74878Y233204D01*
X76118Y234454D01*
X76738Y236329D01*
Y245287D01*
G01X82163Y232787D02*
Y245287D01*
X89293Y232787D01*
Y245287D01*
G01X96268D02*
X99988D01*
G01X98128D02*
Y232787D01*
G01X96268D02*
X99988D01*
G01X110528Y245287D02*
Y232787D01*
G01X106963Y245287D02*
X114093D01*
G01X119673Y234454D02*
X120913Y233412D01*
X122308Y232787D01*
X123548D01*
X124788Y233412D01*
X125718Y234454D01*
X126183Y235912D01*
X125873Y237370D01*
X125098Y238620D01*
X123703Y239454D01*
X121843Y239871D01*
X120758Y240704D01*
X120293Y242162D01*
X120603Y243621D01*
X121378Y244662D01*
X122463Y245287D01*
X123548D01*
X124633Y244871D01*
X125563Y243829D01*
G01X143853Y232787D02*
X147728Y245287D01*
X151603Y232787D01*
G01X150208Y237162D02*
X145248D01*
G01X157028Y232787D02*
Y245287D01*
X160903D01*
X162143Y244662D01*
X162918Y243829D01*
X163228Y242162D01*
X162918Y240496D01*
X161988Y239454D01*
X160903Y238829D01*
X157028D01*
G01X160903D02*
X163228Y232787D01*
G01X175628D02*
X169428D01*
Y245287D01*
X175628D01*
G01X173148Y239246D02*
X169428D01*
G01X195468Y245287D02*
X199188D01*
G01X197328D02*
Y232787D01*
G01X195468D02*
X199188D01*
G01X206163D02*
Y245287D01*
X213293Y232787D01*
Y245287D01*
G01X230498Y232787D02*
Y245287D01*
X234528Y234871D01*
X238558Y245287D01*
Y232787D01*
G01X245068Y245287D02*
X248788D01*
G01X246928D02*
Y232787D01*
G01X245068D02*
X248788D01*
G01X256228Y245287D02*
Y232787D01*
X262428D01*
G01X268473Y234454D02*
X269713Y233412D01*
X271108Y232787D01*
X272348D01*
X273588Y233412D01*
X274518Y234454D01*
X274983Y235912D01*
X274673Y237370D01*
X273898Y238620D01*
X272503Y239454D01*
X270643Y239871D01*
X269558Y240704D01*
X269093Y242162D01*
X269403Y243621D01*
X270178Y244662D01*
X271263Y245287D01*
X272348D01*
X273433Y244871D01*
X274363Y243829D01*
G01X53178Y57787D02*
Y70287D01*
X51318Y67788D01*
G01Y57787D02*
X55038D01*
G01X62633Y68204D02*
X63563Y69454D01*
X64648Y70079D01*
X65888Y70287D01*
X67438Y69871D01*
X68523Y68829D01*
X68833Y67579D01*
X68678Y66329D01*
X68058Y65287D01*
X64958Y63204D01*
X63563Y61746D01*
X62633Y59662D01*
X62323Y57787D01*
X68833D01*
G01X77978D02*
X79063Y57996D01*
X80303Y58621D01*
X81078Y59662D01*
X81388Y61121D01*
X81078Y62579D01*
X80148Y63829D01*
X78753Y64454D01*
X77203D01*
X76273Y64871D01*
X75498Y65912D01*
X75188Y67371D01*
X75653Y68829D01*
X76738Y69871D01*
X77978Y70287D01*
X79218Y69871D01*
X80303Y68829D01*
X80768Y67371D01*
X80458Y65912D01*
X79683Y64871D01*
X78753Y64454D01*
X77203D01*
X75808Y63829D01*
X74878Y62579D01*
X74568Y61121D01*
X74878Y59662D01*
X75653Y58621D01*
X76893Y57996D01*
X77978Y57787D01*
G01X90378Y57371D02*
X90068Y57579D01*
Y57996D01*
X90378Y58204D01*
X90688Y57996D01*
Y57579D01*
X90378Y57371D01*
G01X99368Y60287D02*
X100298Y58829D01*
X101538Y57996D01*
X102933Y57787D01*
X104173Y57996D01*
X105413Y59037D01*
X106188Y60287D01*
X106343Y61537D01*
X106033Y62995D01*
X104948Y64037D01*
X103863Y64454D01*
X102468D01*
G01X103863D02*
X104793Y65079D01*
X105568Y66120D01*
X105878Y67371D01*
X105568Y68621D01*
X104793Y69662D01*
X103398Y70287D01*
X102003Y70079D01*
X100608Y69246D01*
G01X117038Y57787D02*
Y70287D01*
X111303Y61329D01*
X119053D01*
G01X124633Y62995D02*
X125718Y64454D01*
X126648Y65287D01*
X127888Y65704D01*
X128973Y65287D01*
X129748Y64454D01*
X130368Y63204D01*
X130523Y61746D01*
X130368Y60495D01*
X129748Y59245D01*
X128818Y58204D01*
X127733Y57787D01*
X126493Y58204D01*
X125408Y59454D01*
X124788Y61329D01*
X124633Y63412D01*
X124943Y66120D01*
X125408Y67579D01*
X126183Y69037D01*
X127268Y70079D01*
X128353Y70287D01*
X129438Y69871D01*
X130213Y68829D01*
G01X61238Y82787D02*
Y95287D01*
X55503Y86329D01*
X63253D01*
G01X68833Y93204D02*
X69763Y94454D01*
X70848Y95079D01*
X72088Y95287D01*
X73638Y94871D01*
X74723Y93829D01*
X75033Y92579D01*
X74878Y91329D01*
X74258Y90287D01*
X71158Y88204D01*
X69763Y86746D01*
X68833Y84662D01*
X68523Y82787D01*
X75033D01*
G01X84178Y82371D02*
X83868Y82579D01*
Y82996D01*
X84178Y83204D01*
X84488Y82996D01*
Y82579D01*
X84178Y82371D01*
G01X93943Y84245D02*
X95028Y83204D01*
X96268Y82787D01*
X97508Y83204D01*
X98593Y84454D01*
X99368Y86329D01*
X99678Y88204D01*
Y90496D01*
X99368Y92371D01*
X98593Y94037D01*
X97663Y94871D01*
X96578Y95287D01*
X95338Y94871D01*
X94408Y94037D01*
X93788Y92788D01*
X93478Y91120D01*
X93788Y89662D01*
X94563Y88204D01*
X95493Y87370D01*
X96578Y87162D01*
X97818Y87579D01*
X98748Y88620D01*
X99678Y90496D01*
G01X108978Y82787D02*
Y95287D01*
X107118Y92788D01*
G01Y82787D02*
X110838D01*
G01X117968Y85287D02*
X118898Y83829D01*
X120138Y82996D01*
X121533Y82787D01*
X122773Y82996D01*
X124013Y84037D01*
X124788Y85287D01*
X124943Y86537D01*
X124633Y87995D01*
X123548Y89037D01*
X122463Y89454D01*
X121068D01*
G01X122463D02*
X123393Y90079D01*
X124168Y91120D01*
X124478Y92371D01*
X124168Y93621D01*
X123393Y94662D01*
X121998Y95287D01*
X120603Y95079D01*
X119208Y94246D01*
G01X55968Y110287D02*
X56898Y108829D01*
X58138Y107996D01*
X59533Y107787D01*
X60773Y107996D01*
X62013Y109037D01*
X62788Y110287D01*
X62943Y111537D01*
X62633Y112995D01*
X61548Y114037D01*
X60463Y114454D01*
X59068D01*
G01X60463D02*
X61393Y115079D01*
X62168Y116120D01*
X62478Y117370D01*
X62168Y118621D01*
X61393Y119662D01*
X59998Y120287D01*
X58603Y120079D01*
X57208Y119246D01*
G01X68368Y109662D02*
X69298Y108620D01*
X70383Y107996D01*
X71778Y107787D01*
X73173Y108204D01*
X74258Y109037D01*
X75033Y110495D01*
X75188Y112162D01*
X74878Y113829D01*
X74103Y114871D01*
X73018Y115704D01*
X71933Y115912D01*
X70848Y115704D01*
X69453Y114871D01*
X69918Y120287D01*
X74103D01*
G01X84178Y107371D02*
X83868Y107579D01*
Y107996D01*
X84178Y108204D01*
X84488Y107996D01*
Y107579D01*
X84178Y107371D01*
G01X98438Y107787D02*
Y120287D01*
X92703Y111329D01*
X100453D01*
G01X105568Y110287D02*
X106498Y108829D01*
X107738Y107996D01*
X109133Y107787D01*
X110373Y107996D01*
X111613Y109037D01*
X112388Y110287D01*
X112543Y111537D01*
X112233Y112995D01*
X111148Y114037D01*
X110063Y114454D01*
X108668D01*
G01X110063D02*
X110993Y115079D01*
X111768Y116120D01*
X112078Y117370D01*
X111768Y118621D01*
X110993Y119662D01*
X109598Y120287D01*
X108203Y120079D01*
X106808Y119246D01*
G01X117968Y110287D02*
X118898Y108829D01*
X120138Y107996D01*
X121533Y107787D01*
X122773Y107996D01*
X124013Y109037D01*
X124788Y110287D01*
X124943Y111537D01*
X124633Y112995D01*
X123548Y114037D01*
X122463Y114454D01*
X121068D01*
G01X122463D02*
X123393Y115079D01*
X124168Y116120D01*
X124478Y117370D01*
X124168Y118621D01*
X123393Y119662D01*
X121998Y120287D01*
X120603Y120079D01*
X119208Y119246D01*
G01X56433Y143204D02*
X57363Y144454D01*
X58448Y145079D01*
X59688Y145287D01*
X61238Y144871D01*
X62323Y143829D01*
X62633Y142579D01*
X62478Y141329D01*
X61858Y140287D01*
X58758Y138204D01*
X57363Y136746D01*
X56433Y134662D01*
X56123Y132787D01*
X62633D01*
G01X71468D02*
X71778Y135495D01*
X72243Y137787D01*
X72863Y139871D01*
X73638Y142162D01*
X74878Y145287D01*
X68678D01*
G01X84178Y132371D02*
X83868Y132579D01*
Y132996D01*
X84178Y133204D01*
X84488Y132996D01*
Y132579D01*
X84178Y132371D01*
G01X93943Y134245D02*
X95028Y133204D01*
X96268Y132787D01*
X97508Y133204D01*
X98593Y134454D01*
X99368Y136329D01*
X99678Y138204D01*
Y140496D01*
X99368Y142370D01*
X98593Y144037D01*
X97663Y144871D01*
X96578Y145287D01*
X95338Y144871D01*
X94408Y144037D01*
X93788Y142788D01*
X93478Y141120D01*
X93788Y139662D01*
X94563Y138204D01*
X95493Y137370D01*
X96578Y137162D01*
X97818Y137579D01*
X98748Y138620D01*
X99678Y140496D01*
G01X105568Y134662D02*
X106498Y133620D01*
X107583Y132996D01*
X108978Y132787D01*
X110373Y133204D01*
X111458Y134037D01*
X112233Y135495D01*
X112388Y137162D01*
X112078Y138829D01*
X111303Y139871D01*
X110218Y140704D01*
X109133Y140912D01*
X108048Y140704D01*
X106653Y139871D01*
X107118Y145287D01*
X111303D01*
G01X117968Y135287D02*
X118898Y133829D01*
X120138Y132996D01*
X121533Y132787D01*
X122773Y132996D01*
X124013Y134037D01*
X124788Y135287D01*
X124943Y136537D01*
X124633Y137995D01*
X123548Y139037D01*
X122463Y139454D01*
X121068D01*
G01X122463D02*
X123393Y140079D01*
X124168Y141120D01*
X124478Y142370D01*
X124168Y143621D01*
X123393Y144662D01*
X121998Y145287D01*
X120603Y145079D01*
X119208Y144246D01*
G01X68833Y168204D02*
X69763Y169454D01*
X70848Y170079D01*
X72088Y170287D01*
X73638Y169871D01*
X74723Y168829D01*
X75033Y167579D01*
X74878Y166329D01*
X74258Y165287D01*
X71158Y163204D01*
X69763Y161746D01*
X68833Y159662D01*
X68523Y157787D01*
X75033D01*
G01X84178Y170287D02*
X82938Y169871D01*
X82008Y168829D01*
X81388Y167579D01*
X80923Y165912D01*
X80768Y164037D01*
X80923Y162162D01*
X81388Y160495D01*
X82008Y159245D01*
X82938Y158204D01*
X84178Y157787D01*
X85418Y158204D01*
X86348Y159245D01*
X86968Y160495D01*
X87433Y162162D01*
X87588Y164037D01*
X87433Y165912D01*
X86968Y167579D01*
X86348Y168829D01*
X85418Y169871D01*
X84178Y170287D01*
G01X96578Y157371D02*
X96268Y157579D01*
Y157996D01*
X96578Y158204D01*
X96888Y157996D01*
Y157579D01*
X96578Y157371D01*
G01X108978Y170287D02*
X107738Y169871D01*
X106808Y168829D01*
X106188Y167579D01*
X105723Y165912D01*
X105568Y164037D01*
X105723Y162162D01*
X106188Y160495D01*
X106808Y159245D01*
X107738Y158204D01*
X108978Y157787D01*
X110218Y158204D01*
X111148Y159245D01*
X111768Y160495D01*
X112233Y162162D01*
X112388Y164037D01*
X112233Y165912D01*
X111768Y167579D01*
X111148Y168829D01*
X110218Y169871D01*
X108978Y170287D01*
G01X71778Y182787D02*
Y195287D01*
X69918Y192788D01*
G01Y182787D02*
X73638D01*
G01X81233Y193204D02*
X82163Y194454D01*
X83248Y195079D01*
X84488Y195287D01*
X86038Y194871D01*
X87123Y193829D01*
X87433Y192579D01*
X87278Y191329D01*
X86658Y190287D01*
X83558Y188204D01*
X82163Y186746D01*
X81233Y184662D01*
X80923Y182787D01*
X87433D01*
G01X96578Y182371D02*
X96268Y182579D01*
Y182996D01*
X96578Y183204D01*
X96888Y182996D01*
Y182579D01*
X96578Y182371D01*
G01X108978Y195287D02*
X107738Y194871D01*
X106808Y193829D01*
X106188Y192579D01*
X105723Y190912D01*
X105568Y189037D01*
X105723Y187162D01*
X106188Y185495D01*
X106808Y184245D01*
X107738Y183204D01*
X108978Y182787D01*
X110218Y183204D01*
X111148Y184245D01*
X111768Y185495D01*
X112233Y187162D01*
X112388Y189037D01*
X112233Y190912D01*
X111768Y192579D01*
X111148Y193829D01*
X110218Y194871D01*
X108978Y195287D01*
G01X68523Y209454D02*
X69763Y208412D01*
X71158Y207787D01*
X72398D01*
X73638Y208412D01*
X74568Y209454D01*
X75033Y210912D01*
X74723Y212370D01*
X73948Y213620D01*
X72553Y214454D01*
X70693Y214871D01*
X69608Y215704D01*
X69143Y217162D01*
X69453Y218621D01*
X70228Y219662D01*
X71313Y220287D01*
X72398D01*
X73483Y219871D01*
X74413Y218829D01*
G01X82318Y220287D02*
X86038D01*
G01X84178D02*
Y207787D01*
G01X82318D02*
X86038D01*
G01X93633Y220287D02*
X99523D01*
X93633Y207787D01*
X99523D01*
G01X112078D02*
X105878D01*
Y220287D01*
X112078D01*
G01X109598Y214246D02*
X105878D01*
G01X184928Y226537D02*
Y26537D01*
G01X214378Y32787D02*
Y45287D01*
X218098D01*
X219338Y44662D01*
X220268Y43204D01*
X220578Y41537D01*
X220268Y39871D01*
X219493Y38620D01*
X218098Y37995D01*
X214378D01*
G01X226778Y45287D02*
Y32787D01*
X232978D01*
G01X238403D02*
X242278Y45287D01*
X246153Y32787D01*
G01X244758Y37162D02*
X239798D01*
G01X254678Y45287D02*
Y32787D01*
G01X251113Y45287D02*
X258243D01*
G01X270178Y32787D02*
X263978D01*
Y45287D01*
X270178D01*
G01X267698Y39246D02*
X263978D01*
G01X276068Y32787D02*
Y45287D01*
X279168D01*
X280408Y44662D01*
X281338Y43829D01*
X282113Y42579D01*
X282733Y41120D01*
X282888Y39037D01*
X282733Y36954D01*
X282113Y35495D01*
X281338Y34245D01*
X280408Y33412D01*
X279168Y32787D01*
X276068D01*
G01X214378Y57787D02*
Y70287D01*
X218098D01*
X219338Y69662D01*
X220268Y68204D01*
X220578Y66537D01*
X220268Y64871D01*
X219493Y63620D01*
X218098Y62995D01*
X214378D01*
G01X226778Y70287D02*
Y57787D01*
X232978D01*
G01X238403D02*
X242278Y70287D01*
X246153Y57787D01*
G01X244758Y62162D02*
X239798D01*
G01X254678Y70287D02*
Y57787D01*
G01X251113Y70287D02*
X258243D01*
G01X270178Y57787D02*
X263978D01*
Y70287D01*
X270178D01*
G01X267698Y64246D02*
X263978D01*
G01X276068Y57787D02*
Y70287D01*
X279168D01*
X280408Y69662D01*
X281338Y68829D01*
X282113Y67579D01*
X282733Y66120D01*
X282888Y64037D01*
X282733Y61954D01*
X282113Y60495D01*
X281338Y59245D01*
X280408Y58412D01*
X279168Y57787D01*
X276068D01*
G01X214378Y82787D02*
Y95287D01*
X218098D01*
X219338Y94662D01*
X220268Y93204D01*
X220578Y91537D01*
X220268Y89871D01*
X219493Y88620D01*
X218098Y87995D01*
X214378D01*
G01X226778Y95287D02*
Y82787D01*
X232978D01*
G01X238403D02*
X242278Y95287D01*
X246153Y82787D01*
G01X244758Y87162D02*
X239798D01*
G01X254678Y95287D02*
Y82787D01*
G01X251113Y95287D02*
X258243D01*
G01X270178Y82787D02*
X263978D01*
Y95287D01*
X270178D01*
G01X267698Y89246D02*
X263978D01*
G01X276068Y82787D02*
Y95287D01*
X279168D01*
X280408Y94662D01*
X281338Y93829D01*
X282113Y92579D01*
X282733Y91120D01*
X282888Y89037D01*
X282733Y86954D01*
X282113Y85495D01*
X281338Y84245D01*
X280408Y83412D01*
X279168Y82787D01*
X276068D01*
G01X214378Y107787D02*
Y120287D01*
X218098D01*
X219338Y119662D01*
X220268Y118204D01*
X220578Y116537D01*
X220268Y114871D01*
X219493Y113620D01*
X218098Y112995D01*
X214378D01*
G01X226778Y120287D02*
Y107787D01*
X232978D01*
G01X238403D02*
X242278Y120287D01*
X246153Y107787D01*
G01X244758Y112162D02*
X239798D01*
G01X254678Y120287D02*
Y107787D01*
G01X251113Y120287D02*
X258243D01*
G01X270178Y107787D02*
X263978D01*
Y120287D01*
X270178D01*
G01X267698Y114246D02*
X263978D01*
G01X276068Y107787D02*
Y120287D01*
X279168D01*
X280408Y119662D01*
X281338Y118829D01*
X282113Y117579D01*
X282733Y116120D01*
X282888Y114037D01*
X282733Y111954D01*
X282113Y110495D01*
X281338Y109245D01*
X280408Y108412D01*
X279168Y107787D01*
X276068D01*
G01X214378Y132787D02*
Y145287D01*
X218098D01*
X219338Y144662D01*
X220268Y143204D01*
X220578Y141537D01*
X220268Y139871D01*
X219493Y138620D01*
X218098Y137995D01*
X214378D01*
G01X226778Y145287D02*
Y132787D01*
X232978D01*
G01X238403D02*
X242278Y145287D01*
X246153Y132787D01*
G01X244758Y137162D02*
X239798D01*
G01X254678Y145287D02*
Y132787D01*
G01X251113Y145287D02*
X258243D01*
G01X270178Y132787D02*
X263978D01*
Y145287D01*
X270178D01*
G01X267698Y139246D02*
X263978D01*
G01X276068Y132787D02*
Y145287D01*
X279168D01*
X280408Y144662D01*
X281338Y143829D01*
X282113Y142579D01*
X282733Y141120D01*
X282888Y139037D01*
X282733Y136954D01*
X282113Y135495D01*
X281338Y134245D01*
X280408Y133412D01*
X279168Y132787D01*
X276068D01*
G01X214378Y157787D02*
Y170287D01*
X218098D01*
X219338Y169662D01*
X220268Y168204D01*
X220578Y166537D01*
X220268Y164871D01*
X219493Y163620D01*
X218098Y162995D01*
X214378D01*
G01X226778Y170287D02*
Y157787D01*
X232978D01*
G01X238403D02*
X242278Y170287D01*
X246153Y157787D01*
G01X244758Y162162D02*
X239798D01*
G01X254678Y170287D02*
Y157787D01*
G01X251113Y170287D02*
X258243D01*
G01X270178Y157787D02*
X263978D01*
Y170287D01*
X270178D01*
G01X267698Y164246D02*
X263978D01*
G01X276068Y157787D02*
Y170287D01*
X279168D01*
X280408Y169662D01*
X281338Y168829D01*
X282113Y167579D01*
X282733Y166120D01*
X282888Y164037D01*
X282733Y161954D01*
X282113Y160495D01*
X281338Y159245D01*
X280408Y158412D01*
X279168Y157787D01*
X276068D01*
G01X214378Y182787D02*
Y195287D01*
X218098D01*
X219338Y194662D01*
X220268Y193204D01*
X220578Y191537D01*
X220268Y189871D01*
X219493Y188620D01*
X218098Y187995D01*
X214378D01*
G01X226778Y195287D02*
Y182787D01*
X232978D01*
G01X238403D02*
X242278Y195287D01*
X246153Y182787D01*
G01X244758Y187162D02*
X239798D01*
G01X254678Y195287D02*
Y182787D01*
G01X251113Y195287D02*
X258243D01*
G01X270178Y182787D02*
X263978D01*
Y195287D01*
X270178D01*
G01X267698Y189246D02*
X263978D01*
G01X276068Y182787D02*
Y195287D01*
X279168D01*
X280408Y194662D01*
X281338Y193829D01*
X282113Y192579D01*
X282733Y191120D01*
X282888Y189037D01*
X282733Y186954D01*
X282113Y185495D01*
X281338Y184245D01*
X280408Y183412D01*
X279168Y182787D01*
X276068D01*
G01X214378Y207787D02*
Y220287D01*
X218098D01*
X219338Y219662D01*
X220268Y218204D01*
X220578Y216537D01*
X220268Y214871D01*
X219493Y213620D01*
X218098Y212995D01*
X214378D01*
G01X226778Y220287D02*
Y207787D01*
X232978D01*
G01X238403D02*
X242278Y220287D01*
X246153Y207787D01*
G01X244758Y212162D02*
X239798D01*
G01X254678Y220287D02*
Y207787D01*
G01X251113Y220287D02*
X258243D01*
G01X270178Y207787D02*
X263978D01*
Y220287D01*
X270178D01*
G01X267698Y214246D02*
X263978D01*
G01X276068Y207787D02*
Y220287D01*
X279168D01*
X280408Y219662D01*
X281338Y218829D01*
X282113Y217579D01*
X282733Y216120D01*
X282888Y214037D01*
X282733Y211954D01*
X282113Y210495D01*
X281338Y209245D01*
X280408Y208412D01*
X279168Y207787D01*
X276068D01*
G01X250020Y-145728D02*
G03I-5906J0D01*
G01Y-11870D02*
G03I-5906J0D01*
G01X312028Y226537D02*
Y26537D01*
G01X347833Y43204D02*
X348763Y44454D01*
X349848Y45079D01*
X351088Y45287D01*
X352638Y44871D01*
X353723Y43829D01*
X354033Y42579D01*
X353878Y41329D01*
X353258Y40287D01*
X350158Y38204D01*
X348763Y36746D01*
X347833Y34662D01*
X347523Y32787D01*
X354033D01*
G01X347833Y68204D02*
X348763Y69454D01*
X349848Y70079D01*
X351088Y70287D01*
X352638Y69871D01*
X353723Y68829D01*
X354033Y67579D01*
X353878Y66329D01*
X353258Y65287D01*
X350158Y63204D01*
X348763Y61746D01*
X347833Y59662D01*
X347523Y57787D01*
X354033D01*
G01X348143Y84245D02*
X349228Y83204D01*
X350468Y82787D01*
X351708Y83204D01*
X352793Y84454D01*
X353568Y86329D01*
X353878Y88204D01*
Y90496D01*
X353568Y92371D01*
X352793Y94037D01*
X351863Y94871D01*
X350778Y95287D01*
X349538Y94871D01*
X348608Y94037D01*
X347988Y92788D01*
X347678Y91120D01*
X347988Y89662D01*
X348763Y88204D01*
X349693Y87370D01*
X350778Y87162D01*
X352018Y87579D01*
X352948Y88620D01*
X353878Y90496D01*
G01X341633Y118204D02*
X342563Y119454D01*
X343648Y120079D01*
X344888Y120287D01*
X346438Y119871D01*
X347523Y118829D01*
X347833Y117579D01*
X347678Y116329D01*
X347058Y115287D01*
X343958Y113204D01*
X342563Y111746D01*
X341633Y109662D01*
X341323Y107787D01*
X347833D01*
G01X356978D02*
Y120287D01*
X355118Y117788D01*
G01Y107787D02*
X358838D01*
G01X347833Y143204D02*
X348763Y144454D01*
X349848Y145079D01*
X351088Y145287D01*
X352638Y144871D01*
X353723Y143829D01*
X354033Y142579D01*
X353878Y141329D01*
X353258Y140287D01*
X350158Y138204D01*
X348763Y136746D01*
X347833Y134662D01*
X347523Y132787D01*
X354033D01*
G01X335433Y168204D02*
X336363Y169454D01*
X337448Y170079D01*
X338688Y170287D01*
X340238Y169871D01*
X341323Y168829D01*
X341633Y167579D01*
X341478Y166329D01*
X340858Y165287D01*
X337758Y163204D01*
X336363Y161746D01*
X335433Y159662D01*
X335123Y157787D01*
X341633D01*
G01X350468D02*
X350778Y160495D01*
X351243Y162787D01*
X351863Y164871D01*
X352638Y167162D01*
X353878Y170287D01*
X347678D01*
G01X363178Y157787D02*
X364263Y157996D01*
X365503Y158620D01*
X366278Y159662D01*
X366588Y161121D01*
X366278Y162579D01*
X365348Y163829D01*
X363953Y164454D01*
X362403D01*
X361473Y164871D01*
X360698Y165912D01*
X360388Y167370D01*
X360853Y168829D01*
X361938Y169871D01*
X363178Y170287D01*
X364418Y169871D01*
X365503Y168829D01*
X365968Y167370D01*
X365658Y165912D01*
X364883Y164871D01*
X363953Y164454D01*
X362403D01*
X361008Y163829D01*
X360078Y162579D01*
X359768Y161121D01*
X360078Y159662D01*
X360853Y158620D01*
X362093Y157996D01*
X363178Y157787D01*
G01X341633Y187995D02*
X342718Y189454D01*
X343648Y190287D01*
X344888Y190704D01*
X345973Y190287D01*
X346748Y189454D01*
X347368Y188204D01*
X347523Y186746D01*
X347368Y185495D01*
X346748Y184245D01*
X345818Y183204D01*
X344733Y182787D01*
X343493Y183204D01*
X342408Y184454D01*
X341788Y186329D01*
X341633Y188412D01*
X341943Y191120D01*
X342408Y192579D01*
X343183Y194037D01*
X344268Y195079D01*
X345353Y195287D01*
X346438Y194871D01*
X347213Y193829D01*
G01X356668Y182787D02*
X356978Y185495D01*
X357443Y187787D01*
X358063Y189871D01*
X358838Y192162D01*
X360078Y195287D01*
X353878D01*
G01X338378Y207787D02*
X337138Y207996D01*
X336053Y208829D01*
X335123Y210079D01*
X334503Y211537D01*
X334193Y213204D01*
Y214871D01*
X334503Y216537D01*
X335123Y217996D01*
X336053Y219245D01*
X337138Y220079D01*
X338378Y220287D01*
X339618Y220079D01*
X340703Y219245D01*
X341633Y217996D01*
X342253Y216537D01*
X342563Y214871D01*
Y213204D01*
X342253Y211537D01*
X341633Y210079D01*
X340703Y208829D01*
X339618Y207996D01*
X338378Y207787D01*
G01X339618Y211121D02*
X341478Y207787D01*
G01X350778Y220287D02*
Y207787D01*
G01X347213Y220287D02*
X354343D01*
G01X363178Y207787D02*
Y213412D01*
X360078Y220287D01*
G01X366278D02*
X363178Y213412D01*
M02*
