M48
INCH,TZ
T01C.012
T02C.02
T03C.027953
T04C.035433
T05C.042913
T06C.128346
;LEADER: 12 
;HEADER: 
;CODE  : ASCII 
;FILE  : Receiver-1-2.drl for board F:/PCB/RECEIVER/#Taaaayq06444.tmp ... layers TOP and BOTTOM
;T01 Holesize 1. = 12.000000 Tolerance = +0.000000/-0.000000 PLATED MILS Quantity = 67
;T02 Holesize 2. = 20.000000 Tolerance = +0.000000/-0.000000 PLATED MILS Quantity = 278
;T03 Holesize 3. = 27.953000 Tolerance = +0.000000/-0.000000 PLATED MILS Quantity = 2
;T04 Holesize 4. = 35.433000 Tolerance = +0.000000/-0.000000 PLATED MILS Quantity = 21
;T05 Holesize 5. = 42.913000 Tolerance = +0.000000/-0.000000 PLATED MILS Quantity = 9
;T06 Holesize 6. = 128.346000 Tolerance = +0.000000/-0.000000 PLATED MILS Quantity = 2
%
G90
T01
X24780Y-76181
X27244Y-78740
X44303Y-127472
X47319Y-123778
X55622Y-110850
X50689Y-108287
X58342Y-106154
X43705Y-78740
X38051Y-76181
X58342Y-48488
X63449Y-35114
X74429Y-69610
X79764Y-89472
X76136Y-92878
X80122Y-98976
X76900Y-100487
X71230Y-106184
X69892Y-108295
X80395Y-109099
X69958Y-110835
X74063Y-114071
X76740Y-116378
X107720Y-129693
X109223Y-108346
X104980Y-105382
X109618Y-102921
X106715Y-100632
X100803Y-86744
X106606Y-75547
X109020Y-72988
X111626Y-70429
X113049Y-67870
X100803Y-52307
X146106Y-37508
X120744Y-37567
X124028Y-62709
X120740Y-66654
X124028Y-70402
X126709Y-111342
X128878Y-114059
X121827Y-125032
X128130Y-133992
X128784Y-142831
X161461Y-128854
X157642Y-127465
X153228Y-127421
X164193Y-125032
X155984Y-122012
X166276Y-107354
X177028Y-70594
X179748Y-41055
X168811Y-37508
X189071Y-8906
X185839Y-18374
X200484Y-42543
X193878Y-42476
X205764Y-45024
X205764Y-63328
X204819Y-66067
X201634Y-66677
X189071Y-92240
X185839Y-96146
X184819Y-107354
X204484Y-111342
X197248Y-114059
X198732Y-135331
X215476Y-135331
T02
X8368Y-129631
X11098Y-135910
X16468Y-129998
X24022Y-130361
X58880Y-128902
X74931Y-130943
X79316Y-129904
X125287Y-138024
X154229Y-141617
X163831Y-133539
X171020Y-146539
R04X5000
X191020Y-141539
X196020Y-146539
X196020Y-141539
X201020Y-146539
X206020Y-146539
X206020Y-141539
X211020Y-146539
X211020Y-141539
X216020Y-146539
X216020Y-141539
X221020Y-146539
X221020Y-141539
X221020Y-126539
X221020Y-121539
X226020Y-146539
R05Y5000
X231020Y-146539
X231020Y-141539
X246020Y-106539
X246020Y-111539
X241020Y-111539
R02X-5000
X231020Y-116539
X226020Y-91539
X226020Y-96539
R04Y-5000
X221020Y-91539
X206102Y-92453
X203918Y-119757
X191313Y-119484
X189581Y-101598
X178413Y-99567
X146896Y-117982
X137793Y-118345
X120744Y-116524
X120571Y-97724
X112447Y-113431
X91946Y-103412
X51420Y-93361
X50964Y-102238
X43592Y-101598
X32123Y-115342
X7160Y-105628
X9596Y-82484
X26020Y-61539
X31020Y-66539
X31020Y-61539
X36020Y-66539
X36020Y-61539
X41020Y-66539
X41020Y-61539
X46020Y-66539
X46020Y-61539
X85233Y-77797
X85685Y-63507
X85779Y-71061
X91422Y-70426
X96720Y-63301
X96857Y-70403
X97040Y-77864
X139792Y-84899
X141098Y-63090
X156020Y-86539
R04Y5000
X161020Y-86539
R04Y5000
X166020Y-86539
R04Y5000
X171020Y-86539
R02Y5000
X198034Y-82797
X210526Y-82680
X221020Y-86539
X226020Y-86539
X246020Y-46539
X246020Y-51539
X241020Y-46539
X236020Y-46539
X231020Y-41539
X231020Y-46539
X226020Y-31539
R02Y-5000
X221020Y-31539
X221020Y-36539
X216020Y-31539
X216020Y-36539
X211020Y-31539
X211020Y-36539
X209824Y-58198
X206020Y-31539
X206020Y-36539
X201020Y-31539
X201020Y-36539
X197410Y-57112
X196020Y-31539
X176284Y-45302
X176245Y-48848
X165963Y-47946
X156135Y-47946
X131020Y-51539
X126020Y-51539
X116020Y-56539
X107849Y-33064
X101773Y-30809
X98930Y-33882
X92105Y-46671
X81840Y-30084
X81500Y-50766
X77792Y-33633
X77834Y-37681
X76243Y-51382
X75787Y-45192
X62500Y-47650
X51463Y-57275
X51030Y-36090
X50964Y-49810
X46020Y-31539
X46020Y-46539
X46020Y-51539
X46020Y-56539
X41020Y-31539
R05Y-5000
X36020Y-31539
R05Y-5000
X31020Y-31539
R05Y-5000
X26020Y-31539
R05Y-5000
X21020Y-31539
R04Y-5000
X16020Y-31539
R05Y-5000
X11020Y-31539
R05Y-5000
X11020Y-26539
X11020Y-21539
X16020Y-26539
X16020Y-21539
X21020Y-26539
R02Y5000
X26020Y-26539
R03Y5000
X31020Y-26539
R03Y5000
X36020Y-26539
R03Y5000
X41020Y-26539
R03Y5000
X46020Y-16539
X50577Y-27260
X51213Y-14609
X62862Y-28809
X69555Y-16933
X73853Y-12768
X76470Y-17296
X81020Y-11539
X86020Y-11539
X88119Y-15794
X91020Y-11539
X93649Y-14952
X96020Y-11539
X99932Y-17772
X101453Y-22709
X106020Y-26539
X106020Y-21539
X106020Y-16539
X111020Y-26539
R02Y5000
X116020Y-26539
R02Y5000
X121020Y-26539
R02Y5000
X126020Y-16539
X126020Y-11539
X131020Y-11539
X196020Y-26539
X196020Y-21539
R02Y5000
X201020Y-26539
R03Y5000
X206020Y-26539
R03Y5000
X211020Y-26539
R03Y5000
X216020Y-26539
R03Y5000
X221020Y-26539
R03Y5000
X226020Y-26539
R03Y5000
X231020Y-16539
X231020Y-11539
T03
X19685Y-88287
X19685Y-69193
T04
X27177Y-142744
R03X10000
X73079Y-142913
R03X10000
X115543Y-122012
R06X-10000
X105543Y-6264
X115543Y-6264
X147630Y-18374
R03X10000
T05
X236220Y-56929
R04Y-10905
X247402Y-95098
R03Y10906
T06
X241811Y-127933
X241811Y-29547
M30
