G04*
G04 #@! TF.GenerationSoftware,Altium Limited,Altium Designer,23.10.1 (27)*
G04*
G04 Layer_Color=32896*
%FSLAX25Y25*%
%MOIN*%
G70*
G04*
G04 #@! TF.SameCoordinates,C39A602E-4AF5-4C04-9668-1E5429A84749*
G04*
G04*
G04 #@! TF.FilePolarity,Positive*
G04*
G01*
G75*
%ADD10C,0.01000*%
%ADD11C,0.00787*%
%ADD12C,0.00984*%
%ADD15C,0.00500*%
%ADD17C,0.00800*%
%ADD168C,0.00700*%
%ADD169C,0.02500*%
D10*
X536990Y427200D02*
Y433198D01*
X539989D01*
X540988Y432198D01*
Y430199D01*
X539989Y429199D01*
X536990D01*
X542988Y432198D02*
X543988Y433198D01*
X545987D01*
X546986Y432198D01*
Y431199D01*
X545987Y430199D01*
X546986Y429199D01*
Y428200D01*
X545987Y427200D01*
X543988D01*
X542988Y428200D01*
Y429199D01*
X543988Y430199D01*
X542988Y431199D01*
Y432198D01*
X543988Y430199D02*
X545987D01*
D11*
X266274Y566111D02*
Y588946D01*
X297770Y566111D02*
Y588946D01*
X266274Y566111D02*
X297770D01*
X266274Y588946D02*
X297770D01*
X500900Y8600D02*
Y28600D01*
X390900D02*
X500900D01*
X390900Y8600D02*
X500900D01*
X390900D02*
Y28600D01*
X43700Y559800D02*
Y579800D01*
X83700Y559800D02*
Y579800D01*
X43700D02*
X83700D01*
X43700Y559800D02*
X83700D01*
X384626Y367063D02*
Y378874D01*
X382658Y367063D02*
Y378874D01*
X384626D01*
X382658Y367063D02*
X384626D01*
X488229Y309400D02*
Y320400D01*
X482174Y319428D02*
Y320609D01*
X487729Y309400D02*
Y320400D01*
X482174Y309191D02*
Y310372D01*
X500284Y309191D02*
Y310372D01*
Y319428D02*
Y320609D01*
X482174Y309191D02*
X500284D01*
X482174Y320609D02*
X500284D01*
X384206Y255095D02*
Y266906D01*
X386174Y255095D02*
Y266906D01*
X384206Y255095D02*
X386174D01*
X384206Y266906D02*
X386174D01*
D12*
X379410Y365882D02*
G03*
X379410Y365882I-492J0D01*
G01*
X480107Y320018D02*
G03*
X480107Y320018I-492J0D01*
G01*
X390406Y268087D02*
G03*
X390406Y268087I-492J0D01*
G01*
D15*
X374103Y555235D02*
X388276D01*
X374103Y527282D02*
X388276D01*
X377253Y543030D02*
X385127D01*
X374103Y527282D02*
Y555235D01*
X388276Y527282D02*
Y555235D01*
X377253Y539093D02*
X385127D01*
X381190Y543030D02*
X385127Y539093D01*
X377253D02*
X381190Y543030D01*
X358753Y539093D02*
X362690Y543030D01*
X366627Y539093D01*
X358753D02*
X366627D01*
X369776Y527282D02*
Y555235D01*
X355603Y527282D02*
Y555235D01*
X358753Y543030D02*
X366627D01*
X355603Y527282D02*
X369776D01*
X355603Y555235D02*
X369776D01*
X376565Y467332D02*
Y477174D01*
X372235Y467332D02*
Y477174D01*
Y467332D02*
X376565D01*
X372235Y477174D02*
X376565D01*
X366065Y467332D02*
Y477174D01*
X361735Y467332D02*
Y477174D01*
Y467332D02*
X366065D01*
X361735Y477174D02*
X366065D01*
X536500Y334300D02*
X543400D01*
Y328500D02*
Y334300D01*
X543200Y328300D02*
X543400Y328500D01*
X536500Y328300D02*
X543200D01*
X576788Y300110D02*
Y423900D01*
X536237Y300110D02*
Y423900D01*
Y300110D02*
X576788D01*
X536237Y423890D02*
X576788D01*
X536300Y389000D02*
X543000D01*
X543200Y389200D01*
Y395000D01*
X536300D02*
X543200D01*
X536178Y93474D02*
X536965Y92687D01*
X532635D02*
X533422Y93474D01*
X532635Y84419D02*
X533422Y83631D01*
X536178D02*
X536965Y84419D01*
Y92687D01*
X533422Y83631D02*
X536178D01*
X533422Y93474D02*
X536178D01*
X532635Y84419D02*
Y92687D01*
X439292Y63337D02*
X443229Y59400D01*
X439292Y55463D02*
X443229Y59400D01*
Y55463D02*
Y63337D01*
X439292Y55463D02*
Y63337D01*
X428268Y53495D02*
X454253D01*
Y65306D01*
X428268D02*
X454253D01*
X428268Y53495D02*
Y65306D01*
X50882Y279894D02*
Y291705D01*
X76866D01*
Y279894D02*
Y291705D01*
X50882Y279894D02*
X76866D01*
X61905Y281863D02*
Y289737D01*
X65842Y281863D02*
Y289737D01*
X61905Y281863D02*
X65842Y285800D01*
X61905Y289737D02*
X65842Y285800D01*
X488742Y306284D02*
X502128D01*
X488742Y299985D02*
X502128D01*
X501143Y306284D02*
Y306284D01*
X488742Y299985D02*
Y306284D01*
X502128Y299985D02*
Y306284D01*
X538500Y226100D02*
X545400D01*
Y220300D02*
Y226100D01*
X545200Y220100D02*
X545400Y220300D01*
X538500Y220100D02*
X545200D01*
X538437Y254990D02*
X578988D01*
X538437Y131210D02*
X578988D01*
X538437D02*
Y255000D01*
X578988Y131210D02*
Y255000D01*
X538700Y159400D02*
X545400D01*
X545600Y159600D01*
Y165400D01*
X538700D02*
X545600D01*
X538000Y514400D02*
X544900D01*
Y508600D02*
Y514400D01*
X544700Y508400D02*
X544900Y508600D01*
X538000Y508400D02*
X544700D01*
X538300Y482600D02*
X545200D01*
Y476800D02*
Y482600D01*
X545000Y476600D02*
X545200Y476800D01*
X538300Y476600D02*
X545000D01*
X578588Y448410D02*
Y542190D01*
X538037Y448410D02*
Y542190D01*
Y448410D02*
X578588D01*
X538037Y542190D02*
X578588D01*
X438619Y79869D02*
X444918D01*
X438619Y68058D02*
X444918D01*
Y72191D02*
Y75735D01*
X438619Y76916D02*
Y79869D01*
Y68058D02*
Y71010D01*
X380550Y153670D02*
Y167056D01*
X374250Y153670D02*
Y167056D01*
X380550Y154654D02*
X380550D01*
X374250Y167056D02*
X380550D01*
X374250Y153670D02*
X380550D01*
X383435Y155298D02*
X384222Y154511D01*
X386978D02*
X387765Y155298D01*
X386978Y164354D02*
X387765Y163566D01*
X383435D02*
X384222Y164354D01*
X383435Y155298D02*
Y163566D01*
X384222Y164354D02*
X386978D01*
X384222Y154511D02*
X386978D01*
X387765Y155298D02*
Y163566D01*
X474950Y149828D02*
Y161246D01*
X475935Y162230D02*
X480265D01*
X481250Y149828D02*
Y161246D01*
X475935Y148844D02*
X480265D01*
X481250Y149828D01*
X474950Y149828D02*
X475935Y148844D01*
X480265Y162230D02*
X481250Y161246D01*
X474950D02*
X474950D01*
X475935Y162230D01*
X321755Y336213D02*
Y344481D01*
X318212Y335426D02*
X320968D01*
X318212Y345269D02*
X320968D01*
X317424Y336213D02*
Y344481D01*
X318212Y345269D01*
X320968D02*
X321755Y344481D01*
X320968Y335426D02*
X321755Y336213D01*
X317424D02*
X318212Y335426D01*
X412013Y156635D02*
X420281D01*
X411226Y157422D02*
Y160178D01*
X421068Y157422D02*
Y160178D01*
X412013Y160965D02*
X420281D01*
X421068Y160178D01*
X420281Y156635D02*
X421068Y157422D01*
X411226D02*
X412013Y156635D01*
X411226Y160178D02*
X412013Y160965D01*
X237813Y233535D02*
X246081D01*
X237026Y234322D02*
Y237078D01*
X246868Y234322D02*
Y237078D01*
X237813Y237865D02*
X246081D01*
X246868Y237078D01*
X246081Y233535D02*
X246868Y234322D01*
X237026D02*
X237813Y233535D01*
X237026Y237078D02*
X237813Y237865D01*
X46735Y336116D02*
Y345958D01*
X51065Y336116D02*
Y345958D01*
X46735D02*
X51065D01*
X46735Y336116D02*
X51065D01*
X423813Y387903D02*
X432081D01*
X423026Y388690D02*
Y391446D01*
X432868Y388690D02*
Y391446D01*
X423813Y392234D02*
X432081D01*
X432868Y391446D01*
X432081Y387903D02*
X432868Y388690D01*
X423026D02*
X423813Y387903D01*
X423026Y391446D02*
X423813Y392234D01*
X424913Y270535D02*
X433181D01*
X424126Y271322D02*
Y274078D01*
X433968Y271322D02*
Y274078D01*
X424913Y274865D02*
X433181D01*
X433968Y274078D01*
X433181Y270535D02*
X433968Y271322D01*
X424126D02*
X424913Y270535D01*
X424126Y274078D02*
X424913Y274865D01*
X396290Y280135D02*
X406132D01*
X396290Y284465D02*
X406132D01*
X396290Y280135D02*
Y284465D01*
X406132Y280135D02*
Y284465D01*
X379166Y386034D02*
X387434D01*
X388221Y382490D02*
Y385246D01*
X378379Y382490D02*
Y385246D01*
X379166Y381703D02*
X387434D01*
X378379Y382490D02*
X379166Y381703D01*
X378379Y385246D02*
X379166Y386034D01*
X387434D02*
X388221Y385246D01*
X387434Y381703D02*
X388221Y382490D01*
X490335Y212313D02*
Y220581D01*
X491122Y221369D02*
X493878D01*
X491122Y211526D02*
X493878D01*
X494665Y212313D02*
Y220581D01*
X493878Y211526D02*
X494665Y212313D01*
X490335D02*
X491122Y211526D01*
X490335Y220581D02*
X491122Y221369D01*
X493878D02*
X494665Y220581D01*
X478432Y176265D02*
X488274D01*
X478432Y171935D02*
X488274D01*
Y176265D01*
X478432Y171935D02*
Y176265D01*
X389172Y388419D02*
Y394718D01*
X375786Y388419D02*
Y394718D01*
X388187Y394718D02*
Y394718D01*
X375786Y388419D02*
X389172D01*
X375786Y394718D02*
X389172D01*
X348719Y340465D02*
X356987D01*
X357774Y336922D02*
Y339678D01*
X347932Y336922D02*
Y339678D01*
X348719Y336135D02*
X356987D01*
X347932Y336922D02*
X348719Y336135D01*
X347932Y339678D02*
X348719Y340465D01*
X356987D02*
X357774Y339678D01*
X356987Y336135D02*
X357774Y336922D01*
X352524Y280119D02*
Y288387D01*
X353312Y289174D02*
X356068D01*
X353312Y279332D02*
X356068D01*
X356855Y280119D02*
Y288387D01*
X356068Y279332D02*
X356855Y280119D01*
X352524D02*
X353312Y279332D01*
X352524Y288387D02*
X353312Y289174D01*
X356068D02*
X356855Y288387D01*
X348319Y224465D02*
X356587D01*
X357374Y220922D02*
Y223678D01*
X347532Y220922D02*
Y223678D01*
X348319Y220135D02*
X356587D01*
X347532Y220922D02*
X348319Y220135D01*
X347532Y223678D02*
X348319Y224465D01*
X356587D02*
X357374Y223678D01*
X356587Y220135D02*
X357374Y220922D01*
X358630Y257151D02*
Y263450D01*
X345244Y257151D02*
Y263450D01*
X357646Y263450D02*
Y263450D01*
X345244Y257151D02*
X358630D01*
X345244Y263450D02*
X358630D01*
X238313Y128435D02*
X246581D01*
X237526Y129222D02*
Y131978D01*
X247369Y129222D02*
Y131978D01*
X238313Y132765D02*
X246581D01*
X247369Y131978D01*
X246581Y128435D02*
X247369Y129222D01*
X237526D02*
X238313Y128435D01*
X237526Y131978D02*
X238313Y132765D01*
X316935Y279519D02*
Y287787D01*
X317722Y288574D02*
X320478D01*
X317722Y278731D02*
X320478D01*
X321265Y279519D02*
Y287787D01*
X320478Y278731D02*
X321265Y279519D01*
X316935D02*
X317722Y278731D01*
X316935Y287787D02*
X317722Y288574D01*
X320478D02*
X321265Y287787D01*
X316335Y215319D02*
Y223587D01*
X317122Y224374D02*
X319878D01*
X317122Y214532D02*
X319878D01*
X320665Y215319D02*
Y223587D01*
X319878Y214532D02*
X320665Y215319D01*
X316335D02*
X317122Y214532D01*
X316335Y223587D02*
X317122Y224374D01*
X319878D02*
X320665Y223587D01*
X276319Y118465D02*
X284587D01*
X285374Y114922D02*
Y117678D01*
X275532Y114922D02*
Y117678D01*
X276319Y114135D02*
X284587D01*
X275532Y114922D02*
X276319Y114135D01*
X275532Y117678D02*
X276319Y118465D01*
X284587D02*
X285374Y117678D01*
X284587Y114135D02*
X285374Y114922D01*
X227435Y190819D02*
Y199087D01*
X228222Y199874D02*
X230978D01*
X228222Y190032D02*
X230978D01*
X231765Y190819D02*
Y199087D01*
X230978Y190032D02*
X231765Y190819D01*
X227435D02*
X228222Y190032D01*
X227435Y199087D02*
X228222Y199874D01*
X230978D02*
X231765Y199087D01*
X221189Y190565D02*
Y198832D01*
X221976Y199620D02*
X224732D01*
X221976Y189777D02*
X224732D01*
X225520Y190565D02*
Y198832D01*
X224732Y189777D02*
X225520Y190565D01*
X221189D02*
X221976Y189777D01*
X221189Y198832D02*
X221976Y199620D01*
X224732D02*
X225520Y198832D01*
X201535Y189919D02*
Y198187D01*
X202322Y198974D02*
X205078D01*
X202322Y189131D02*
X205078D01*
X205865Y189919D02*
Y198187D01*
X205078Y189131D02*
X205865Y189919D01*
X201535D02*
X202322Y189131D01*
X201535Y198187D02*
X202322Y198974D01*
X205078D02*
X205865Y198187D01*
X197503Y207735D02*
X205771D01*
X196716Y208522D02*
Y211278D01*
X206558Y208522D02*
Y211278D01*
X197503Y212065D02*
X205771D01*
X206558Y211278D01*
X205771Y207735D02*
X206558Y208522D01*
X196716D02*
X197503Y207735D01*
X196716Y211278D02*
X197503Y212065D01*
X197713Y214235D02*
X205981D01*
X196926Y215022D02*
Y217778D01*
X206768Y215022D02*
Y217778D01*
X197713Y218565D02*
X205981D01*
X206768Y217778D01*
X205981Y214235D02*
X206768Y215022D01*
X196926D02*
X197713Y214235D01*
X196926Y217778D02*
X197713Y218565D01*
X196921Y221335D02*
X206764D01*
X196921Y225665D02*
X206764D01*
X196921Y221335D02*
Y225665D01*
X206764Y221335D02*
Y225665D01*
X188803Y233335D02*
X197071D01*
X188016Y234122D02*
Y236878D01*
X197858Y234122D02*
Y236878D01*
X188803Y237665D02*
X197071D01*
X197858Y236878D01*
X197071Y233335D02*
X197858Y234122D01*
X188016D02*
X188803Y233335D01*
X188016Y236878D02*
X188803Y237665D01*
X205835Y237626D02*
Y247469D01*
X210165Y237626D02*
Y247469D01*
X205835D02*
X210165D01*
X205835Y237626D02*
X210165D01*
X199624Y238619D02*
Y246887D01*
X200412Y247674D02*
X203168D01*
X200412Y237832D02*
X203168D01*
X203955Y238619D02*
Y246887D01*
X203168Y237832D02*
X203955Y238619D01*
X199624D02*
X200412Y237832D01*
X199624Y246887D02*
X200412Y247674D01*
X203168D02*
X203955Y246887D01*
X453213Y79935D02*
X461481D01*
X452426Y80722D02*
Y83478D01*
X462268Y80722D02*
Y83478D01*
X453213Y84265D02*
X461481D01*
X462268Y83478D01*
X461481Y79935D02*
X462268Y80722D01*
X452426D02*
X453213Y79935D01*
X452426Y83478D02*
X453213Y84265D01*
X464552Y68719D02*
Y76987D01*
X461009Y67931D02*
X463765D01*
X461009Y77774D02*
X463765D01*
X460221Y68719D02*
Y76987D01*
X461009Y77774D01*
X463765D02*
X464552Y76987D01*
X463765Y67931D02*
X464552Y68719D01*
X460221D02*
X461009Y67931D01*
X452221Y67931D02*
Y77774D01*
X456552Y67931D02*
Y77774D01*
X452221D02*
X456552D01*
X452221Y67931D02*
X456552D01*
X478426Y146265D02*
X488269D01*
X478426Y141935D02*
X488269D01*
Y146265D01*
X478426Y141935D02*
Y146265D01*
X490275Y150315D02*
Y158582D01*
X491062Y159370D02*
X493818D01*
X491062Y149527D02*
X493818D01*
X494605Y150315D02*
Y158582D01*
X493818Y149527D02*
X494605Y150315D01*
X490275D02*
X491062Y149527D01*
X490275Y158582D02*
X491062Y159370D01*
X493818D02*
X494605Y158582D01*
X484275Y149527D02*
Y159370D01*
X488605Y149527D02*
Y159370D01*
X484275D02*
X488605D01*
X484275Y149527D02*
X488605D01*
X456431Y157035D02*
X466274D01*
X456431Y161365D02*
X466274D01*
X456431Y157035D02*
Y161365D01*
X466274Y157035D02*
Y161365D01*
X453765Y158019D02*
Y166287D01*
X450222Y157231D02*
X452978D01*
X450222Y167074D02*
X452978D01*
X449435Y158019D02*
Y166287D01*
X450222Y167074D01*
X452978D02*
X453765Y166287D01*
X452978Y157231D02*
X453765Y158019D01*
X449435D02*
X450222Y157231D01*
X441826Y154865D02*
X451669D01*
X441826Y150535D02*
X451669D01*
Y154865D01*
X441826Y150535D02*
Y154865D01*
X440250Y169646D02*
X441235Y170630D01*
X440250Y169646D02*
X440250D01*
X445565Y170630D02*
X446550Y169646D01*
X440250Y158228D02*
X441235Y157244D01*
X445565D02*
X446550Y158228D01*
X441235Y157244D02*
X445565D01*
X446550Y158228D02*
Y169646D01*
X441235Y170630D02*
X445565D01*
X440250Y158228D02*
Y169646D01*
X414565Y195613D02*
Y203881D01*
X411022Y194826D02*
X413778D01*
X411022Y204669D02*
X413778D01*
X410235Y195613D02*
Y203881D01*
X411022Y204669D01*
X413778D02*
X414565Y203881D01*
X413778Y194826D02*
X414565Y195613D01*
X410235D02*
X411022Y194826D01*
X492085Y179702D02*
Y187970D01*
X492872Y188757D02*
X495628D01*
X492872Y178915D02*
X495628D01*
X496416Y179702D02*
Y187970D01*
X495628Y178915D02*
X496416Y179702D01*
X492085D02*
X492872Y178915D01*
X492085Y187970D02*
X492872Y188757D01*
X495628D02*
X496416Y187970D01*
X484585Y179009D02*
Y188852D01*
X488916Y179009D02*
Y188852D01*
X484585D02*
X488916D01*
X484585Y179009D02*
X488916D01*
X440031Y179535D02*
X449874D01*
X440031Y183865D02*
X449874D01*
X440031Y179535D02*
Y183865D01*
X449874Y179535D02*
Y183865D01*
X446235Y187319D02*
Y195587D01*
X447022Y196374D02*
X449778D01*
X447022Y186531D02*
X449778D01*
X450565Y187319D02*
Y195587D01*
X449778Y186531D02*
X450565Y187319D01*
X446235D02*
X447022Y186531D01*
X446235Y195587D02*
X447022Y196374D01*
X449778D02*
X450565Y195587D01*
X439735Y186626D02*
Y196468D01*
X444065Y186626D02*
Y196468D01*
X439735D02*
X444065D01*
X439735Y186626D02*
X444065D01*
X429450Y198246D02*
X430435Y199230D01*
X429450Y198246D02*
X429450D01*
X434765Y199230D02*
X435750Y198246D01*
X429450Y186828D02*
X430435Y185844D01*
X434765D02*
X435750Y186828D01*
X430435Y185844D02*
X434765D01*
X435750Y186828D02*
Y198246D01*
X430435Y199230D02*
X434765D01*
X429450Y186828D02*
Y198246D01*
X477826Y205865D02*
X487669D01*
X477826Y201535D02*
X487669D01*
Y205865D01*
X477826Y201535D02*
Y205865D01*
X483435Y211531D02*
Y221374D01*
X487765Y211531D02*
Y221374D01*
X483435D02*
X487765D01*
X483435Y211531D02*
X487765D01*
X474250Y223046D02*
X475235Y224030D01*
X474250Y223046D02*
X474250D01*
X479565Y224030D02*
X480550Y223046D01*
X474250Y211628D02*
X475235Y210644D01*
X479565D02*
X480550Y211628D01*
X475235Y210644D02*
X479565D01*
X480550Y211628D02*
Y223046D01*
X475235Y224030D02*
X479565D01*
X474250Y211628D02*
Y223046D01*
X409424Y238713D02*
Y246981D01*
X405880Y237926D02*
X408636D01*
X405880Y247769D02*
X408636D01*
X405093Y238713D02*
Y246981D01*
X405880Y247769D01*
X408636D02*
X409424Y246981D01*
X408636Y237926D02*
X409424Y238713D01*
X405093D02*
X405880Y237926D01*
X381603Y247835D02*
X389871D01*
X380816Y248622D02*
Y251378D01*
X390658Y248622D02*
Y251378D01*
X381603Y252165D02*
X389871D01*
X390658Y251378D01*
X389871Y247835D02*
X390658Y248622D01*
X380816D02*
X381603Y247835D01*
X380816Y251378D02*
X381603Y252165D01*
X396290Y274135D02*
X406132D01*
X396290Y278465D02*
X406132D01*
X396290Y274135D02*
Y278465D01*
X406132Y274135D02*
Y278465D01*
X348819Y254465D02*
X357087D01*
X357874Y250922D02*
Y253678D01*
X348031Y250922D02*
Y253678D01*
X348819Y250135D02*
X357087D01*
X348031Y250922D02*
X348819Y250135D01*
X348031Y253678D02*
X348819Y254465D01*
X357087D02*
X357874Y253678D01*
X357087Y250135D02*
X357874Y250922D01*
X429172Y285635D02*
X437439D01*
X428384Y286422D02*
Y289178D01*
X438227Y286422D02*
Y289178D01*
X429172Y289965D02*
X437439D01*
X438227Y289178D01*
X437439Y285635D02*
X438227Y286422D01*
X428384D02*
X429172Y285635D01*
X428384Y289178D02*
X429172Y289965D01*
X419035Y347219D02*
Y355487D01*
X419822Y356274D02*
X422578D01*
X419822Y346431D02*
X422578D01*
X423365Y347219D02*
Y355487D01*
X422578Y346431D02*
X423365Y347219D01*
X419035D02*
X419822Y346431D01*
X419035Y355487D02*
X419822Y356274D01*
X422578D02*
X423365Y355487D01*
X417065Y346600D02*
Y356442D01*
X412735Y346600D02*
Y356442D01*
Y346600D02*
X417065D01*
X412735Y356442D02*
X417065D01*
X410065Y346600D02*
Y356442D01*
X405735Y346600D02*
Y356442D01*
Y346600D02*
X410065D01*
X405735Y356442D02*
X410065D01*
X396431Y387403D02*
X406274D01*
X396431Y391734D02*
X406274D01*
X396431Y387403D02*
Y391734D01*
X406274Y387403D02*
Y391734D01*
X396431Y393403D02*
X406274D01*
X396431Y397734D02*
X406274D01*
X396431Y393403D02*
Y397734D01*
X406274Y393403D02*
Y397734D01*
X393976Y368287D02*
Y376555D01*
X394764Y377343D02*
X397520D01*
X394764Y367500D02*
X397520D01*
X398307Y368287D02*
Y376555D01*
X397520Y367500D02*
X398307Y368287D01*
X393976D02*
X394764Y367500D01*
X393976Y376555D02*
X394764Y377343D01*
X397520D02*
X398307Y376555D01*
X523365Y531226D02*
Y541069D01*
X519035Y531226D02*
Y541069D01*
Y531226D02*
X523365D01*
X519035Y541069D02*
X523365D01*
X516937Y532013D02*
Y540281D01*
X513393Y531226D02*
X516149D01*
X513393Y541069D02*
X516149D01*
X512606Y532013D02*
Y540281D01*
X513393Y541069D01*
X516149D02*
X516937Y540281D01*
X516149Y531226D02*
X516937Y532013D01*
X512606D02*
X513393Y531226D01*
X510508Y531226D02*
Y541069D01*
X506178Y531226D02*
Y541069D01*
Y531226D02*
X510508D01*
X506178Y541069D02*
X510508D01*
X504080Y532013D02*
Y540281D01*
X500536Y531226D02*
X503292D01*
X500536Y541069D02*
X503292D01*
X499749Y532013D02*
Y540281D01*
X500536Y541069D01*
X503292D02*
X504080Y540281D01*
X503292Y531226D02*
X504080Y532013D01*
X499749D02*
X500536Y531226D01*
X497651Y531226D02*
Y541069D01*
X493320Y531226D02*
Y541069D01*
Y531226D02*
X497651D01*
X493320Y541069D02*
X497651D01*
X491222Y532013D02*
Y540281D01*
X487679Y531226D02*
X490435D01*
X487679Y541069D02*
X490435D01*
X486892Y532013D02*
Y540281D01*
X487679Y541069D01*
X490435D02*
X491222Y540281D01*
X490435Y531226D02*
X491222Y532013D01*
X486892D02*
X487679Y531226D01*
X484794Y531226D02*
Y541069D01*
X480463Y531226D02*
Y541069D01*
Y531226D02*
X484794D01*
X480463Y541069D02*
X484794D01*
X478365Y532013D02*
Y540281D01*
X474822Y531226D02*
X477578D01*
X474822Y541069D02*
X477578D01*
X474035Y532013D02*
Y540281D01*
X474822Y541069D01*
X477578D02*
X478365Y540281D01*
X477578Y531226D02*
X478365Y532013D01*
X474035D02*
X474822Y531226D01*
X464865Y531226D02*
Y541069D01*
X460535Y531226D02*
Y541069D01*
Y531226D02*
X464865D01*
X460535Y541069D02*
X464865D01*
X458423Y532013D02*
Y540281D01*
X454879Y531226D02*
X457635D01*
X454879Y541069D02*
X457635D01*
X454092Y532013D02*
Y540281D01*
X454879Y541069D01*
X457635D02*
X458423Y540281D01*
X457635Y531226D02*
X458423Y532013D01*
X454092D02*
X454879Y531226D01*
X451980Y531226D02*
Y541069D01*
X447649Y531226D02*
Y541069D01*
Y531226D02*
X451980D01*
X447649Y541069D02*
X451980D01*
X445537Y532013D02*
Y540281D01*
X441994Y531226D02*
X444749D01*
X441994Y541069D02*
X444749D01*
X441206Y532013D02*
Y540281D01*
X441994Y541069D01*
X444749D02*
X445537Y540281D01*
X444749Y531226D02*
X445537Y532013D01*
X441206D02*
X441994Y531226D01*
X439094Y531226D02*
Y541069D01*
X434763Y531226D02*
Y541069D01*
Y531226D02*
X439094D01*
X434763Y541069D02*
X439094D01*
X432651Y532013D02*
Y540281D01*
X429108Y531226D02*
X431864D01*
X429108Y541069D02*
X431864D01*
X428320Y532013D02*
Y540281D01*
X429108Y541069D01*
X431864D02*
X432651Y540281D01*
X431864Y531226D02*
X432651Y532013D01*
X428320D02*
X429108Y531226D01*
X426208Y531226D02*
Y541069D01*
X421877Y531226D02*
Y541069D01*
Y531226D02*
X426208D01*
X421877Y541069D02*
X426208D01*
X419765Y532013D02*
Y540281D01*
X416222Y531226D02*
X418978D01*
X416222Y541069D02*
X418978D01*
X415435Y532013D02*
Y540281D01*
X416222Y541069D01*
X418978D02*
X419765Y540281D01*
X418978Y531226D02*
X419765Y532013D01*
X415435D02*
X416222Y531226D01*
X389276Y270835D02*
X390064Y271622D01*
X389276Y275165D02*
X390064Y274378D01*
X380221D02*
X381009Y275165D01*
X380221Y271622D02*
X381009Y270835D01*
X389276D01*
X380221Y271622D02*
Y274378D01*
X390064Y271622D02*
Y274378D01*
X381009Y275165D02*
X389276D01*
X474550Y179928D02*
Y191346D01*
X475535Y192330D02*
X479865D01*
X480850Y179928D02*
Y191346D01*
X475535Y178944D02*
X479865D01*
X480850Y179928D01*
X474550Y179928D02*
X475535Y178944D01*
X479865Y192330D02*
X480850Y191346D01*
X474550D02*
X474550D01*
X475535Y192330D01*
X51272Y196895D02*
Y208705D01*
X77256D01*
Y196895D02*
Y208705D01*
X51272Y196895D02*
X77256D01*
X62295Y198863D02*
Y206737D01*
X66232Y198863D02*
Y206737D01*
X62295Y198863D02*
X66232Y202800D01*
X62295Y206737D02*
X66232Y202800D01*
X387990Y561999D02*
Y558000D01*
X385990D01*
X385324Y558667D01*
Y561332D01*
X385990Y561999D01*
X387990D01*
X383991D02*
X381325D01*
Y561332D01*
X383991Y558667D01*
Y558000D01*
X379992Y561332D02*
X379326Y561999D01*
X377993D01*
X377326Y561332D01*
Y560666D01*
X377993Y559999D01*
X377326Y559333D01*
Y558667D01*
X377993Y558000D01*
X379326D01*
X379992Y558667D01*
Y559333D01*
X379326Y559999D01*
X379992Y560666D01*
Y561332D01*
X379326Y559999D02*
X377993D01*
X369490Y561999D02*
Y558000D01*
X367490D01*
X366824Y558667D01*
Y561332D01*
X367490Y561999D01*
X369490D01*
X365491D02*
X362825D01*
Y561332D01*
X365491Y558667D01*
Y558000D01*
X361492Y558667D02*
X360826Y558000D01*
X359493D01*
X358826Y558667D01*
Y561332D01*
X359493Y561999D01*
X360826D01*
X361492Y561332D01*
Y560666D01*
X360826Y559999D01*
X358826D01*
X376478Y462410D02*
X372479D01*
Y460411D01*
X373146Y459744D01*
X374479D01*
X375145Y460411D01*
Y462410D01*
Y461077D02*
X376478Y459744D01*
X372479Y458412D02*
Y455746D01*
X373146D01*
X375812Y458412D01*
X376478D01*
X372479Y451747D02*
X373146Y453080D01*
X374479Y454413D01*
X375812D01*
X376478Y453746D01*
Y452413D01*
X375812Y451747D01*
X375145D01*
X374479Y452413D01*
Y454413D01*
X365702Y461998D02*
X361704D01*
Y459998D01*
X362370Y459332D01*
X363703D01*
X364370Y459998D01*
Y461998D01*
Y460665D02*
X365702Y459332D01*
Y455333D02*
Y457999D01*
X363037Y455333D01*
X362370D01*
X361704Y456000D01*
Y457333D01*
X362370Y457999D01*
X365702Y451334D02*
Y454000D01*
X363037Y451334D01*
X362370D01*
X361704Y452001D01*
Y453334D01*
X362370Y454000D01*
X361704Y450001D02*
Y447336D01*
X362370D01*
X365036Y450001D01*
X365702D01*
X377800Y13800D02*
Y17799D01*
X375801D01*
X375134Y17132D01*
Y15799D01*
X375801Y15133D01*
X377800D01*
X371135Y17799D02*
X373801D01*
Y15799D01*
X372468Y16466D01*
X371802D01*
X371135Y15799D01*
Y14467D01*
X371802Y13800D01*
X373135D01*
X373801Y14467D01*
X534024Y99532D02*
X534690Y100199D01*
X536023D01*
X536690Y99532D01*
Y96867D01*
X536023Y96200D01*
X534690D01*
X534024Y96867D01*
X532691Y96200D02*
X531358D01*
X532025D01*
Y100199D01*
X532691Y99532D01*
X526693Y100199D02*
X528026Y99532D01*
X529359Y98199D01*
Y96867D01*
X528692Y96200D01*
X527359D01*
X526693Y96867D01*
Y97533D01*
X527359Y98199D01*
X529359D01*
X525360Y100199D02*
X522694D01*
Y99532D01*
X525360Y96867D01*
Y96200D01*
X463597Y60099D02*
Y56100D01*
X461597D01*
X460931Y56766D01*
Y59432D01*
X461597Y60099D01*
X463597D01*
X459598Y59432D02*
X458932Y60099D01*
X457599D01*
X456932Y59432D01*
Y58766D01*
X457599Y58099D01*
X456932Y57433D01*
Y56766D01*
X457599Y56100D01*
X458932D01*
X459598Y56766D01*
Y57433D01*
X458932Y58099D01*
X459598Y58766D01*
Y59432D01*
X458932Y58099D02*
X457599D01*
X76590Y298499D02*
Y294500D01*
X74590D01*
X73924Y295166D01*
Y297832D01*
X74590Y298499D01*
X76590D01*
X72591D02*
X69925D01*
Y297832D01*
X72591Y295166D01*
Y294500D01*
X68592D02*
X67259D01*
X67926D01*
Y298499D01*
X68592Y297832D01*
X532990Y176699D02*
Y172700D01*
X530990D01*
X530324Y173366D01*
Y176032D01*
X530990Y176699D01*
X532990D01*
X528991D02*
X526325D01*
Y176032D01*
X528991Y173366D01*
Y172700D01*
X522327Y176699D02*
X524992D01*
Y174699D01*
X523659Y175366D01*
X522993D01*
X522327Y174699D01*
Y173366D01*
X522993Y172700D01*
X524326D01*
X524992Y173366D01*
X530390Y577799D02*
Y573800D01*
X528390D01*
X527724Y574467D01*
Y577132D01*
X528390Y577799D01*
X530390D01*
X526391D02*
X523725D01*
Y577132D01*
X526391Y574467D01*
Y573800D01*
X519727Y577799D02*
X521059Y577132D01*
X522392Y575799D01*
Y574467D01*
X521726Y573800D01*
X520393D01*
X519727Y574467D01*
Y575133D01*
X520393Y575799D01*
X522392D01*
X447934Y247799D02*
X450600D01*
Y243800D01*
X447934D01*
X450600Y245799D02*
X449267D01*
X446601Y243800D02*
X445268D01*
X445935D01*
Y247799D01*
X446601Y247132D01*
X441270Y243800D02*
Y247799D01*
X443269Y245799D01*
X440603D01*
X509042Y304833D02*
X511708D01*
Y302834D01*
X510375D01*
X511708D01*
Y300835D01*
X505043D02*
X507709D01*
X505043Y303501D01*
Y304167D01*
X505710Y304833D01*
X507043D01*
X507709Y304167D01*
X538690Y257800D02*
Y261799D01*
X540689D01*
X541356Y261132D01*
Y259799D01*
X540689Y259133D01*
X538690D01*
X542689Y257800D02*
X544021D01*
X543355D01*
Y261799D01*
X542689Y261132D01*
X538290Y544900D02*
Y548899D01*
X540289D01*
X540956Y548232D01*
Y546899D01*
X540289Y546233D01*
X538290D01*
X542288Y548232D02*
X542955Y548899D01*
X544288D01*
X544954Y548232D01*
Y547566D01*
X544288Y546899D01*
X543621D01*
X544288D01*
X544954Y546233D01*
Y545567D01*
X544288Y544900D01*
X542955D01*
X542288Y545567D01*
X13700Y559300D02*
X17699D01*
Y561299D01*
X17032Y561966D01*
X15699D01*
X15033Y561299D01*
Y559300D01*
X17699Y563299D02*
Y565965D01*
X17032D01*
X14367Y563299D01*
X13700D01*
X432221Y79728D02*
Y82394D01*
X432887Y83060D01*
X434220D01*
X434887Y82394D01*
Y79728D01*
X434220Y79061D01*
X432887D01*
X433554Y80394D02*
X432221Y79061D01*
X432887D02*
X432221Y79728D01*
X430888Y79061D02*
X429555D01*
X430222D01*
Y83060D01*
X430888Y82394D01*
X427556Y79061D02*
X426223D01*
X426889D01*
Y83060D01*
X427556Y82394D01*
X387042Y363380D02*
Y360048D01*
X386375Y359382D01*
X385042D01*
X384376Y360048D01*
Y363380D01*
X380377D02*
X383043D01*
Y361381D01*
X381710Y362047D01*
X381044D01*
X380377Y361381D01*
Y360048D01*
X381044Y359382D01*
X382377D01*
X383043Y360048D01*
X376378Y363380D02*
X377711Y362714D01*
X379044Y361381D01*
Y360048D01*
X378378Y359382D01*
X377045D01*
X376378Y360048D01*
Y360714D01*
X377045Y361381D01*
X379044D01*
X523376Y315199D02*
Y311200D01*
X521377D01*
X520711Y311866D01*
Y314532D01*
X521377Y315199D01*
X523376D01*
X519378D02*
X516712D01*
Y314532D01*
X519378Y311866D01*
Y311200D01*
X512713D02*
X515379D01*
X512713Y313866D01*
Y314532D01*
X513380Y315199D01*
X514712D01*
X515379Y314532D01*
X375101Y178434D02*
Y181100D01*
X377101D01*
Y179767D01*
Y181100D01*
X379100D01*
X375101Y177101D02*
X379100D01*
Y175102D01*
X378434Y174435D01*
X377767D01*
X377101Y175102D01*
Y177101D01*
Y175102D01*
X376434Y174435D01*
X375768D01*
X375101Y175102D01*
Y177101D01*
X379100Y171103D02*
X375101D01*
X377101Y173103D01*
Y170437D01*
X384668Y176834D02*
X384001Y177501D01*
Y178833D01*
X384668Y179500D01*
X387334D01*
X388000Y178833D01*
Y177501D01*
X387334Y176834D01*
X384001Y172836D02*
Y175501D01*
X386001D01*
X385334Y174168D01*
Y173502D01*
X386001Y172836D01*
X387334D01*
X388000Y173502D01*
Y174835D01*
X387334Y175501D01*
X384668Y171503D02*
X384001Y170836D01*
Y169503D01*
X384668Y168837D01*
X385334D01*
X386001Y169503D01*
X386667Y168837D01*
X387334D01*
X388000Y169503D01*
Y170836D01*
X387334Y171503D01*
X386667D01*
X386001Y170836D01*
X385334Y171503D01*
X384668D01*
X386001Y170836D02*
Y169503D01*
X475434Y165562D02*
X476101Y166229D01*
X477433D01*
X478100Y165562D01*
Y162896D01*
X477433Y162230D01*
X476101D01*
X475434Y162896D01*
X472102Y162230D02*
Y166229D01*
X474101Y164229D01*
X471435D01*
X401300Y225599D02*
X398634D01*
X399967D01*
Y221600D01*
X397301D02*
Y225599D01*
X395302D01*
X394636Y224932D01*
Y223599D01*
X395302Y222933D01*
X397301D01*
X393303Y221600D02*
X391970D01*
X392636D01*
Y225599D01*
X393303Y224932D01*
X21426Y440029D02*
X24092D01*
Y438030D01*
X22759Y438696D01*
X22093D01*
X21426Y438030D01*
Y436697D01*
X22093Y436031D01*
X23426D01*
X24092Y436697D01*
X20093Y440029D02*
Y437364D01*
X18760Y436031D01*
X17427Y437364D01*
Y440029D01*
X43100Y457999D02*
Y454000D01*
X40434D01*
X36435Y457332D02*
X37102Y457999D01*
X38435D01*
X39101Y457332D01*
Y454666D01*
X38435Y454000D01*
X37102D01*
X36435Y454666D01*
X35103Y457999D02*
Y454000D01*
X33103D01*
X32437Y454666D01*
Y457332D01*
X33103Y457999D01*
X35103D01*
X31104Y453334D02*
X28438D01*
X27105Y454000D02*
Y457999D01*
X25106D01*
X24439Y457332D01*
Y455999D01*
X25106Y455333D01*
X27105D01*
X25772D02*
X24439Y454000D01*
X23107Y457999D02*
X20441Y454000D01*
Y457999D02*
X23107Y454000D01*
X42500Y465699D02*
Y461700D01*
X39834D01*
X35835Y465032D02*
X36502Y465699D01*
X37835D01*
X38501Y465032D01*
Y462366D01*
X37835Y461700D01*
X36502D01*
X35835Y462366D01*
X34503Y465699D02*
Y461700D01*
X32503D01*
X31837Y462366D01*
Y465032D01*
X32503Y465699D01*
X34503D01*
X30504Y461034D02*
X27838D01*
X26505Y465699D02*
X23839D01*
X25172D01*
Y461700D01*
X22506Y465699D02*
X19841Y461700D01*
Y465699D02*
X22506Y461700D01*
X27234Y488132D02*
X27901Y488799D01*
X29234D01*
X29900Y488132D01*
Y485466D01*
X29234Y484800D01*
X27901D01*
X27234Y485466D01*
Y486799D01*
X28567D01*
X25901Y484800D02*
Y488799D01*
X23235Y484800D01*
Y488799D01*
X21903D02*
Y484800D01*
X19903D01*
X19237Y485466D01*
Y488132D01*
X19903Y488799D01*
X21903D01*
X1141234Y-111300D02*
X1143900D01*
X1141234Y-108634D01*
Y-107968D01*
X1141901Y-107301D01*
X1143233D01*
X1143900Y-107968D01*
X1137902Y-111300D02*
Y-107301D01*
X1139901Y-109301D01*
X1137236D01*
X1135903Y-107301D02*
Y-109967D01*
X1134570Y-111300D01*
X1133237Y-109967D01*
Y-107301D01*
X1175422Y-111200D02*
X1178088D01*
X1175422Y-108534D01*
Y-107868D01*
X1176089Y-107201D01*
X1177422D01*
X1178088Y-107868D01*
X1172090Y-111200D02*
Y-107201D01*
X1174090Y-109201D01*
X1171424D01*
X1170091Y-107201D02*
Y-109867D01*
X1168758Y-111200D01*
X1167425Y-109867D01*
Y-107201D01*
X1169034Y-117568D02*
X1169701Y-116901D01*
X1171033D01*
X1171700Y-117568D01*
Y-120234D01*
X1171033Y-120900D01*
X1169701D01*
X1169034Y-120234D01*
Y-118901D01*
X1170367D01*
X1169434Y-127168D02*
X1170101Y-126501D01*
X1171434D01*
X1172100Y-127168D01*
Y-129833D01*
X1171434Y-130500D01*
X1170101D01*
X1169434Y-129833D01*
Y-128501D01*
X1170767D01*
X1170034Y-137368D02*
X1170701Y-136701D01*
X1172034D01*
X1172700Y-137368D01*
Y-140033D01*
X1172034Y-140700D01*
X1170701D01*
X1170034Y-140033D01*
Y-138701D01*
X1171367D01*
X1170134Y-147868D02*
X1170801Y-147201D01*
X1172134D01*
X1172800Y-147868D01*
Y-150533D01*
X1172134Y-151200D01*
X1170801D01*
X1170134Y-150533D01*
Y-149201D01*
X1171467D01*
X1170134Y-157568D02*
X1170801Y-156901D01*
X1172134D01*
X1172800Y-157568D01*
Y-160233D01*
X1172134Y-160900D01*
X1170801D01*
X1170134Y-160233D01*
Y-158901D01*
X1171467D01*
X1170234Y-167368D02*
X1170901Y-166701D01*
X1172233D01*
X1172900Y-167368D01*
Y-170034D01*
X1172233Y-170700D01*
X1170901D01*
X1170234Y-170034D01*
Y-168701D01*
X1171567D01*
X1170434Y-177268D02*
X1171101Y-176601D01*
X1172433D01*
X1173100Y-177268D01*
Y-179934D01*
X1172433Y-180600D01*
X1171101D01*
X1170434Y-179934D01*
Y-178601D01*
X1171767D01*
X1170734Y-187668D02*
X1171401Y-187001D01*
X1172733D01*
X1173400Y-187668D01*
Y-190333D01*
X1172733Y-191000D01*
X1171401D01*
X1170734Y-190333D01*
Y-189001D01*
X1172067D01*
X1145400Y-155901D02*
Y-159900D01*
X1143401D01*
X1142734Y-159233D01*
Y-156568D01*
X1143401Y-155901D01*
X1145400D01*
X1141401D02*
X1140068D01*
X1140735D01*
Y-159900D01*
X1141401D01*
X1140068D01*
X1138069Y-156568D02*
X1137403Y-155901D01*
X1136070D01*
X1135403Y-156568D01*
Y-159233D01*
X1136070Y-159900D01*
X1137403D01*
X1138069Y-159233D01*
Y-156568D01*
X1145000Y-166201D02*
Y-170200D01*
X1143001D01*
X1142334Y-169534D01*
Y-166868D01*
X1143001Y-166201D01*
X1145000D01*
X1141001D02*
X1139668D01*
X1140335D01*
Y-170200D01*
X1141001D01*
X1139668D01*
X1137669D02*
X1136336D01*
X1137003D01*
Y-166201D01*
X1137669Y-166868D01*
X1145000Y-175601D02*
Y-179600D01*
X1143001D01*
X1142334Y-178934D01*
Y-176268D01*
X1143001Y-175601D01*
X1145000D01*
X1141001D02*
X1139668D01*
X1140335D01*
Y-179600D01*
X1141001D01*
X1139668D01*
X1135003D02*
X1137669D01*
X1135003Y-176934D01*
Y-176268D01*
X1135670Y-175601D01*
X1137003D01*
X1137669Y-176268D01*
X1144900Y-184401D02*
Y-188400D01*
X1142901D01*
X1142234Y-187733D01*
Y-185068D01*
X1142901Y-184401D01*
X1144900D01*
X1140901D02*
X1139568D01*
X1140235D01*
Y-188400D01*
X1140901D01*
X1139568D01*
X1137569Y-185068D02*
X1136903Y-184401D01*
X1135570D01*
X1134903Y-185068D01*
Y-185734D01*
X1135570Y-186401D01*
X1136236D01*
X1135570D01*
X1134903Y-187067D01*
Y-187733D01*
X1135570Y-188400D01*
X1136903D01*
X1137569Y-187733D01*
X1143300Y-116301D02*
Y-120300D01*
X1141301D01*
X1140634Y-119633D01*
Y-116968D01*
X1141301Y-116301D01*
X1143300D01*
X1139301D02*
X1137968D01*
X1138635D01*
Y-120300D01*
X1139301D01*
X1137968D01*
X1133970D02*
Y-116301D01*
X1135969Y-118301D01*
X1133303D01*
X1143700Y-126001D02*
Y-130000D01*
X1141701D01*
X1141034Y-129333D01*
Y-126668D01*
X1141701Y-126001D01*
X1143700D01*
X1139701D02*
X1138368D01*
X1139035D01*
Y-130000D01*
X1139701D01*
X1138368D01*
X1133703Y-126001D02*
X1136369D01*
Y-128001D01*
X1135036Y-127334D01*
X1134370D01*
X1133703Y-128001D01*
Y-129333D01*
X1134370Y-130000D01*
X1135703D01*
X1136369Y-129333D01*
X1143400Y-136701D02*
Y-140700D01*
X1141401D01*
X1140734Y-140033D01*
Y-137368D01*
X1141401Y-136701D01*
X1143400D01*
X1139401D02*
X1138068D01*
X1138735D01*
Y-140700D01*
X1139401D01*
X1138068D01*
X1133403Y-136701D02*
X1134736Y-137368D01*
X1136069Y-138701D01*
Y-140033D01*
X1135403Y-140700D01*
X1134070D01*
X1133403Y-140033D01*
Y-139367D01*
X1134070Y-138701D01*
X1136069D01*
X1144900Y-146601D02*
Y-150600D01*
X1142901D01*
X1142234Y-149934D01*
Y-147268D01*
X1142901Y-146601D01*
X1144900D01*
X1140901D02*
X1139568D01*
X1140235D01*
Y-150600D01*
X1140901D01*
X1139568D01*
X1137569Y-146601D02*
X1134903D01*
Y-147268D01*
X1137569Y-149934D01*
Y-150600D01*
X1177988Y-215900D02*
Y-211901D01*
X1175989D01*
X1175322Y-212568D01*
Y-213901D01*
X1175989Y-214567D01*
X1177988D01*
X1173989Y-211901D02*
Y-215900D01*
X1171990D01*
X1171324Y-215233D01*
Y-214567D01*
X1171990Y-213901D01*
X1173989D01*
X1171990D01*
X1171324Y-213234D01*
Y-212568D01*
X1171990Y-211901D01*
X1173989D01*
X1169991Y-215900D02*
X1168658D01*
X1169324D01*
Y-211901D01*
X1169991Y-212568D01*
X1177988Y-225500D02*
Y-221501D01*
X1175989D01*
X1175322Y-222168D01*
Y-223501D01*
X1175989Y-224167D01*
X1177988D01*
X1173989Y-221501D02*
Y-225500D01*
X1171990D01*
X1171324Y-224833D01*
Y-224167D01*
X1171990Y-223501D01*
X1173989D01*
X1171990D01*
X1171324Y-222834D01*
Y-222168D01*
X1171990Y-221501D01*
X1173989D01*
X1169991Y-225500D02*
X1168658D01*
X1169324D01*
Y-221501D01*
X1169991Y-222168D01*
X1177988Y-246100D02*
Y-242101D01*
X1175989D01*
X1175322Y-242768D01*
Y-244101D01*
X1175989Y-244767D01*
X1177988D01*
X1173989Y-242101D02*
Y-246100D01*
X1171990D01*
X1171324Y-245433D01*
Y-244767D01*
X1171990Y-244101D01*
X1173989D01*
X1171990D01*
X1171324Y-243434D01*
Y-242768D01*
X1171990Y-242101D01*
X1173989D01*
X1167325Y-246100D02*
X1169991D01*
X1167325Y-243434D01*
Y-242768D01*
X1167991Y-242101D01*
X1169324D01*
X1169991Y-242768D01*
X1177988Y-255700D02*
Y-251701D01*
X1175989D01*
X1175322Y-252368D01*
Y-253701D01*
X1175989Y-254367D01*
X1177988D01*
X1173989Y-251701D02*
Y-255700D01*
X1171990D01*
X1171324Y-255033D01*
Y-254367D01*
X1171990Y-253701D01*
X1173989D01*
X1171990D01*
X1171324Y-253034D01*
Y-252368D01*
X1171990Y-251701D01*
X1173989D01*
X1167325Y-255700D02*
X1169991D01*
X1167325Y-253034D01*
Y-252368D01*
X1167991Y-251701D01*
X1169324D01*
X1169991Y-252368D01*
X1149300Y-276500D02*
Y-272501D01*
X1147301D01*
X1146634Y-273168D01*
Y-274501D01*
X1147301Y-275167D01*
X1149300D01*
X1145301Y-272501D02*
Y-276500D01*
X1143302D01*
X1142636Y-275834D01*
Y-275167D01*
X1143302Y-274501D01*
X1145301D01*
X1143302D01*
X1142636Y-273834D01*
Y-273168D01*
X1143302Y-272501D01*
X1145301D01*
X1141303Y-273168D02*
X1140636Y-272501D01*
X1139303D01*
X1138637Y-273168D01*
Y-273834D01*
X1139303Y-274501D01*
X1139970D01*
X1139303D01*
X1138637Y-275167D01*
Y-275834D01*
X1139303Y-276500D01*
X1140636D01*
X1141303Y-275834D01*
X1149600Y-285700D02*
Y-281701D01*
X1147601D01*
X1146934Y-282368D01*
Y-283701D01*
X1147601Y-284367D01*
X1149600D01*
X1145601Y-281701D02*
Y-285700D01*
X1143602D01*
X1142935Y-285033D01*
Y-284367D01*
X1143602Y-283701D01*
X1145601D01*
X1143602D01*
X1142935Y-283034D01*
Y-282368D01*
X1143602Y-281701D01*
X1145601D01*
X1141603Y-282368D02*
X1140936Y-281701D01*
X1139603D01*
X1138937Y-282368D01*
Y-283034D01*
X1139603Y-283701D01*
X1140270D01*
X1139603D01*
X1138937Y-284367D01*
Y-285033D01*
X1139603Y-285700D01*
X1140936D01*
X1141603Y-285033D01*
X1177988Y-376100D02*
Y-372101D01*
X1175989D01*
X1175322Y-372768D01*
Y-374101D01*
X1175989Y-374767D01*
X1177988D01*
X1173989Y-372101D02*
Y-376100D01*
X1171990D01*
X1171324Y-375433D01*
Y-374767D01*
X1171990Y-374101D01*
X1173989D01*
X1171990D01*
X1171324Y-373434D01*
Y-372768D01*
X1171990Y-372101D01*
X1173989D01*
X1167325D02*
X1168658Y-372768D01*
X1169991Y-374101D01*
Y-375433D01*
X1169324Y-376100D01*
X1167991D01*
X1167325Y-375433D01*
Y-374767D01*
X1167991Y-374101D01*
X1169991D01*
X1177988Y-366200D02*
Y-362201D01*
X1175989D01*
X1175322Y-362868D01*
Y-364201D01*
X1175989Y-364867D01*
X1177988D01*
X1173989Y-362201D02*
Y-366200D01*
X1171990D01*
X1171324Y-365533D01*
Y-364867D01*
X1171990Y-364201D01*
X1173989D01*
X1171990D01*
X1171324Y-363534D01*
Y-362868D01*
X1171990Y-362201D01*
X1173989D01*
X1167325D02*
X1168658Y-362868D01*
X1169991Y-364201D01*
Y-365533D01*
X1169324Y-366200D01*
X1167991D01*
X1167325Y-365533D01*
Y-364867D01*
X1167991Y-364201D01*
X1169991D01*
X1148800Y-375200D02*
Y-371201D01*
X1146801D01*
X1146134Y-371868D01*
Y-373201D01*
X1146801Y-373867D01*
X1148800D01*
X1144801Y-371201D02*
Y-375200D01*
X1142802D01*
X1142136Y-374534D01*
Y-373867D01*
X1142802Y-373201D01*
X1144801D01*
X1142802D01*
X1142136Y-372534D01*
Y-371868D01*
X1142802Y-371201D01*
X1144801D01*
X1140803Y-375200D02*
X1139470D01*
X1140136D01*
Y-371201D01*
X1140803Y-371868D01*
X1137470D02*
X1136804Y-371201D01*
X1135471D01*
X1134805Y-371868D01*
Y-372534D01*
X1135471Y-373201D01*
X1136137D01*
X1135471D01*
X1134805Y-373867D01*
Y-374534D01*
X1135471Y-375200D01*
X1136804D01*
X1137470Y-374534D01*
X1148800Y-365800D02*
Y-361801D01*
X1146801D01*
X1146134Y-362468D01*
Y-363801D01*
X1146801Y-364467D01*
X1148800D01*
X1144801Y-361801D02*
Y-365800D01*
X1142802D01*
X1142136Y-365134D01*
Y-364467D01*
X1142802Y-363801D01*
X1144801D01*
X1142802D01*
X1142136Y-363134D01*
Y-362468D01*
X1142802Y-361801D01*
X1144801D01*
X1140803Y-365800D02*
X1139470D01*
X1140136D01*
Y-361801D01*
X1140803Y-362468D01*
X1137470D02*
X1136804Y-361801D01*
X1135471D01*
X1134805Y-362468D01*
Y-363134D01*
X1135471Y-363801D01*
X1136137D01*
X1135471D01*
X1134805Y-364467D01*
Y-365134D01*
X1135471Y-365800D01*
X1136804D01*
X1137470Y-365134D01*
X1149700Y-347800D02*
Y-343801D01*
X1147701D01*
X1147034Y-344468D01*
Y-345801D01*
X1147701Y-346467D01*
X1149700D01*
X1145701Y-343801D02*
Y-347800D01*
X1143702D01*
X1143036Y-347133D01*
Y-346467D01*
X1143702Y-345801D01*
X1145701D01*
X1143702D01*
X1143036Y-345134D01*
Y-344468D01*
X1143702Y-343801D01*
X1145701D01*
X1141703Y-347800D02*
X1140370D01*
X1141036D01*
Y-343801D01*
X1141703Y-344468D01*
X1135705Y-347800D02*
X1138370D01*
X1135705Y-345134D01*
Y-344468D01*
X1136371Y-343801D01*
X1137704D01*
X1138370Y-344468D01*
X1149300Y-335000D02*
Y-331001D01*
X1147301D01*
X1146634Y-331668D01*
Y-333001D01*
X1147301Y-333667D01*
X1149300D01*
X1145301Y-331001D02*
Y-335000D01*
X1143302D01*
X1142636Y-334333D01*
Y-333667D01*
X1143302Y-333001D01*
X1145301D01*
X1143302D01*
X1142636Y-332334D01*
Y-331668D01*
X1143302Y-331001D01*
X1145301D01*
X1141303Y-335000D02*
X1139970D01*
X1140636D01*
Y-331001D01*
X1141303Y-331668D01*
X1135305Y-335000D02*
X1137970D01*
X1135305Y-332334D01*
Y-331668D01*
X1135971Y-331001D01*
X1137304D01*
X1137970Y-331668D01*
X1177988Y-335900D02*
Y-331901D01*
X1175989D01*
X1175322Y-332568D01*
Y-333901D01*
X1175989Y-334567D01*
X1177988D01*
X1173989Y-331901D02*
Y-335900D01*
X1171990D01*
X1171324Y-335233D01*
Y-334567D01*
X1171990Y-333901D01*
X1173989D01*
X1171990D01*
X1171324Y-333234D01*
Y-332568D01*
X1171990Y-331901D01*
X1173989D01*
X1167325D02*
X1169991D01*
Y-333901D01*
X1168658Y-333234D01*
X1167991D01*
X1167325Y-333901D01*
Y-335233D01*
X1167991Y-335900D01*
X1169324D01*
X1169991Y-335233D01*
X1177988Y-345700D02*
Y-341701D01*
X1175989D01*
X1175322Y-342368D01*
Y-343701D01*
X1175989Y-344367D01*
X1177988D01*
X1173989Y-341701D02*
Y-345700D01*
X1171990D01*
X1171324Y-345034D01*
Y-344367D01*
X1171990Y-343701D01*
X1173989D01*
X1171990D01*
X1171324Y-343034D01*
Y-342368D01*
X1171990Y-341701D01*
X1173989D01*
X1167325D02*
X1169991D01*
Y-343701D01*
X1168658Y-343034D01*
X1167991D01*
X1167325Y-343701D01*
Y-345034D01*
X1167991Y-345700D01*
X1169324D01*
X1169991Y-345034D01*
X1148900Y-305500D02*
Y-301501D01*
X1146901D01*
X1146234Y-302168D01*
Y-303501D01*
X1146901Y-304167D01*
X1148900D01*
X1144901Y-301501D02*
Y-305500D01*
X1142902D01*
X1142235Y-304834D01*
Y-304167D01*
X1142902Y-303501D01*
X1144901D01*
X1142902D01*
X1142235Y-302834D01*
Y-302168D01*
X1142902Y-301501D01*
X1144901D01*
X1140903Y-305500D02*
X1139570D01*
X1140236D01*
Y-301501D01*
X1140903Y-302168D01*
X1137570Y-305500D02*
X1136237D01*
X1136904D01*
Y-301501D01*
X1137570Y-302168D01*
X1149200Y-317400D02*
Y-313401D01*
X1147201D01*
X1146534Y-314068D01*
Y-315401D01*
X1147201Y-316067D01*
X1149200D01*
X1145201Y-313401D02*
Y-317400D01*
X1143202D01*
X1142535Y-316734D01*
Y-316067D01*
X1143202Y-315401D01*
X1145201D01*
X1143202D01*
X1142535Y-314734D01*
Y-314068D01*
X1143202Y-313401D01*
X1145201D01*
X1141203Y-317400D02*
X1139870D01*
X1140536D01*
Y-313401D01*
X1141203Y-314068D01*
X1137870Y-317400D02*
X1136537D01*
X1137204D01*
Y-313401D01*
X1137870Y-314068D01*
X1177988Y-306000D02*
Y-302001D01*
X1175989D01*
X1175322Y-302668D01*
Y-304001D01*
X1175989Y-304667D01*
X1177988D01*
X1173989Y-302001D02*
Y-306000D01*
X1171990D01*
X1171324Y-305333D01*
Y-304667D01*
X1171990Y-304001D01*
X1173989D01*
X1171990D01*
X1171324Y-303334D01*
Y-302668D01*
X1171990Y-302001D01*
X1173989D01*
X1167991Y-306000D02*
Y-302001D01*
X1169991Y-304001D01*
X1167325D01*
X1177988Y-316200D02*
Y-312201D01*
X1175989D01*
X1175322Y-312868D01*
Y-314201D01*
X1175989Y-314867D01*
X1177988D01*
X1173989Y-312201D02*
Y-316200D01*
X1171990D01*
X1171324Y-315533D01*
Y-314867D01*
X1171990Y-314201D01*
X1173989D01*
X1171990D01*
X1171324Y-313534D01*
Y-312868D01*
X1171990Y-312201D01*
X1173989D01*
X1167991Y-316200D02*
Y-312201D01*
X1169991Y-314201D01*
X1167325D01*
X1172900Y-272200D02*
X1168901D01*
Y-274199D01*
X1169568Y-274866D01*
X1170901D01*
X1171567Y-274199D01*
Y-272200D01*
X1168901Y-276199D02*
X1172900D01*
Y-278198D01*
X1172233Y-278865D01*
X1171567D01*
X1170901Y-278198D01*
Y-276199D01*
Y-278198D01*
X1170234Y-278865D01*
X1169568D01*
X1168901Y-278198D01*
Y-276199D01*
X1172900Y-280197D02*
Y-281530D01*
Y-280864D01*
X1168901D01*
X1169568Y-280197D01*
Y-283530D02*
X1168901Y-284196D01*
Y-285529D01*
X1169568Y-286195D01*
X1172233D01*
X1172900Y-285529D01*
Y-284196D01*
X1172233Y-283530D01*
X1169568D01*
X1148700Y-245500D02*
Y-241501D01*
X1146701D01*
X1146034Y-242168D01*
Y-243501D01*
X1146701Y-244167D01*
X1148700D01*
X1144701Y-241501D02*
Y-245500D01*
X1142702D01*
X1142035Y-244833D01*
Y-244167D01*
X1142702Y-243501D01*
X1144701D01*
X1142702D01*
X1142035Y-242834D01*
Y-242168D01*
X1142702Y-241501D01*
X1144701D01*
X1140703Y-244833D02*
X1140036Y-245500D01*
X1138703D01*
X1138037Y-244833D01*
Y-242168D01*
X1138703Y-241501D01*
X1140036D01*
X1140703Y-242168D01*
Y-242834D01*
X1140036Y-243501D01*
X1138037D01*
X1148900Y-254300D02*
Y-250301D01*
X1146901D01*
X1146234Y-250968D01*
Y-252301D01*
X1146901Y-252967D01*
X1148900D01*
X1144901Y-250301D02*
Y-254300D01*
X1142902D01*
X1142235Y-253633D01*
Y-252967D01*
X1142902Y-252301D01*
X1144901D01*
X1142902D01*
X1142235Y-251634D01*
Y-250968D01*
X1142902Y-250301D01*
X1144901D01*
X1140903Y-253633D02*
X1140236Y-254300D01*
X1138903D01*
X1138237Y-253633D01*
Y-250968D01*
X1138903Y-250301D01*
X1140236D01*
X1140903Y-250968D01*
Y-251634D01*
X1140236Y-252301D01*
X1138237D01*
X1149400Y-213800D02*
Y-209801D01*
X1147401D01*
X1146734Y-210468D01*
Y-211801D01*
X1147401Y-212467D01*
X1149400D01*
X1145401Y-209801D02*
Y-213800D01*
X1143402D01*
X1142735Y-213134D01*
Y-212467D01*
X1143402Y-211801D01*
X1145401D01*
X1143402D01*
X1142735Y-211134D01*
Y-210468D01*
X1143402Y-209801D01*
X1145401D01*
X1141403Y-210468D02*
X1140736Y-209801D01*
X1139403D01*
X1138737Y-210468D01*
Y-211134D01*
X1139403Y-211801D01*
X1138737Y-212467D01*
Y-213134D01*
X1139403Y-213800D01*
X1140736D01*
X1141403Y-213134D01*
Y-212467D01*
X1140736Y-211801D01*
X1141403Y-211134D01*
Y-210468D01*
X1140736Y-211801D02*
X1139403D01*
X1149500Y-226100D02*
Y-222101D01*
X1147501D01*
X1146834Y-222768D01*
Y-224101D01*
X1147501Y-224767D01*
X1149500D01*
X1145501Y-222101D02*
Y-226100D01*
X1143502D01*
X1142836Y-225433D01*
Y-224767D01*
X1143502Y-224101D01*
X1145501D01*
X1143502D01*
X1142836Y-223434D01*
Y-222768D01*
X1143502Y-222101D01*
X1145501D01*
X1141503Y-222768D02*
X1140836Y-222101D01*
X1139503D01*
X1138837Y-222768D01*
Y-223434D01*
X1139503Y-224101D01*
X1138837Y-224767D01*
Y-225433D01*
X1139503Y-226100D01*
X1140836D01*
X1141503Y-225433D01*
Y-224767D01*
X1140836Y-224101D01*
X1141503Y-223434D01*
Y-222768D01*
X1140836Y-224101D02*
X1139503D01*
X1147200Y-389800D02*
Y-387134D01*
X1145867Y-385801D01*
X1144534Y-387134D01*
Y-389800D01*
Y-387801D01*
X1147200D01*
X1143201Y-385801D02*
X1141868D01*
X1142535D01*
Y-389800D01*
X1143201D01*
X1141868D01*
X1139869Y-386468D02*
X1139203Y-385801D01*
X1137870D01*
X1137203Y-386468D01*
Y-389134D01*
X1137870Y-389800D01*
X1139203D01*
X1139869Y-389134D01*
Y-386468D01*
X1147100Y-399800D02*
Y-397134D01*
X1145767Y-395801D01*
X1144434Y-397134D01*
Y-399800D01*
Y-397801D01*
X1147100D01*
X1143101Y-395801D02*
X1141768D01*
X1142435D01*
Y-399800D01*
X1143101D01*
X1141768D01*
X1139769D02*
X1138436D01*
X1139103D01*
Y-395801D01*
X1139769Y-396468D01*
X1147300Y-410000D02*
Y-407334D01*
X1145967Y-406001D01*
X1144634Y-407334D01*
Y-410000D01*
Y-408001D01*
X1147300D01*
X1143301Y-406001D02*
X1141968D01*
X1142635D01*
Y-410000D01*
X1143301D01*
X1141968D01*
X1137303D02*
X1139969D01*
X1137303Y-407334D01*
Y-406668D01*
X1137970Y-406001D01*
X1139303D01*
X1139969Y-406668D01*
X1147300Y-420800D02*
Y-418134D01*
X1145967Y-416801D01*
X1144634Y-418134D01*
Y-420800D01*
Y-418801D01*
X1147300D01*
X1143301Y-416801D02*
X1141968D01*
X1142635D01*
Y-420800D01*
X1143301D01*
X1141968D01*
X1139969Y-417468D02*
X1139303Y-416801D01*
X1137970D01*
X1137303Y-417468D01*
Y-418134D01*
X1137970Y-418801D01*
X1138636D01*
X1137970D01*
X1137303Y-419467D01*
Y-420133D01*
X1137970Y-420800D01*
X1139303D01*
X1139969Y-420133D01*
X1146900Y-429800D02*
Y-427134D01*
X1145567Y-425801D01*
X1144234Y-427134D01*
Y-429800D01*
Y-427801D01*
X1146900D01*
X1142901Y-425801D02*
X1141568D01*
X1142235D01*
Y-429800D01*
X1142901D01*
X1141568D01*
X1137570D02*
Y-425801D01*
X1139569Y-427801D01*
X1136903D01*
X1146600Y-440100D02*
Y-437434D01*
X1145267Y-436101D01*
X1143934Y-437434D01*
Y-440100D01*
Y-438101D01*
X1146600D01*
X1142601Y-436101D02*
X1141268D01*
X1141935D01*
Y-440100D01*
X1142601D01*
X1141268D01*
X1136603Y-436101D02*
X1139269D01*
Y-438101D01*
X1137936Y-437434D01*
X1137270D01*
X1136603Y-438101D01*
Y-439433D01*
X1137270Y-440100D01*
X1138603D01*
X1139269Y-439433D01*
X1146700Y-449900D02*
Y-447234D01*
X1145367Y-445901D01*
X1144034Y-447234D01*
Y-449900D01*
Y-447901D01*
X1146700D01*
X1142701Y-445901D02*
X1141368D01*
X1142035D01*
Y-449900D01*
X1142701D01*
X1141368D01*
X1136703Y-445901D02*
X1138036Y-446568D01*
X1139369Y-447901D01*
Y-449233D01*
X1138703Y-449900D01*
X1137370D01*
X1136703Y-449233D01*
Y-448567D01*
X1137370Y-447901D01*
X1139369D01*
X1146900Y-460500D02*
Y-457834D01*
X1145567Y-456501D01*
X1144234Y-457834D01*
Y-460500D01*
Y-458501D01*
X1146900D01*
X1142901Y-456501D02*
X1141568D01*
X1142235D01*
Y-460500D01*
X1142901D01*
X1141568D01*
X1139569Y-456501D02*
X1136903D01*
Y-457168D01*
X1139569Y-459833D01*
Y-460500D01*
X1149500Y-470300D02*
Y-467634D01*
X1148167Y-466301D01*
X1146834Y-467634D01*
Y-470300D01*
Y-468301D01*
X1149500D01*
X1145501Y-466301D02*
X1144168D01*
X1144835D01*
Y-470300D01*
X1145501D01*
X1144168D01*
X1142169Y-466968D02*
X1141503Y-466301D01*
X1140170D01*
X1139503Y-466968D01*
Y-467634D01*
X1140170Y-468301D01*
X1139503Y-468967D01*
Y-469633D01*
X1140170Y-470300D01*
X1141503D01*
X1142169Y-469633D01*
Y-468967D01*
X1141503Y-468301D01*
X1142169Y-467634D01*
Y-466968D01*
X1141503Y-468301D02*
X1140170D01*
X1148800Y-490300D02*
Y-487634D01*
X1147467Y-486301D01*
X1146134Y-487634D01*
Y-490300D01*
Y-488301D01*
X1148800D01*
X1142802Y-486301D02*
X1144135D01*
X1144801Y-486968D01*
Y-489634D01*
X1144135Y-490300D01*
X1142802D01*
X1142136Y-489634D01*
Y-486968D01*
X1142802Y-486301D01*
X1146034Y-500700D02*
X1148700D01*
X1146034Y-498034D01*
Y-497368D01*
X1146701Y-496701D01*
X1148034D01*
X1148700Y-497368D01*
X1142702Y-500700D02*
Y-496701D01*
X1144701Y-498701D01*
X1142035D01*
X1140703Y-496701D02*
Y-499367D01*
X1139370Y-500700D01*
X1138037Y-499367D01*
Y-496701D01*
X1175385Y-470800D02*
X1178051D01*
X1175385Y-468134D01*
Y-467468D01*
X1176052Y-466801D01*
X1177385D01*
X1178051Y-467468D01*
X1172053Y-470800D02*
Y-466801D01*
X1174053Y-468801D01*
X1171387D01*
X1170054Y-466801D02*
Y-469467D01*
X1168721Y-470800D01*
X1167388Y-469467D01*
Y-466801D01*
X1175385Y-460700D02*
X1178051D01*
X1175385Y-458034D01*
Y-457368D01*
X1176052Y-456701D01*
X1177385D01*
X1178051Y-457368D01*
X1172053Y-460700D02*
Y-456701D01*
X1174053Y-458701D01*
X1171387D01*
X1170054Y-456701D02*
Y-459367D01*
X1168721Y-460700D01*
X1167388Y-459367D01*
Y-456701D01*
X1175385Y-451200D02*
X1178051D01*
X1175385Y-448534D01*
Y-447868D01*
X1176052Y-447201D01*
X1177385D01*
X1178051Y-447868D01*
X1172053Y-451200D02*
Y-447201D01*
X1174053Y-449201D01*
X1171387D01*
X1170054Y-447201D02*
Y-449867D01*
X1168721Y-451200D01*
X1167388Y-449867D01*
Y-447201D01*
X1175385Y-440500D02*
X1178051D01*
X1175385Y-437834D01*
Y-437168D01*
X1176052Y-436501D01*
X1177385D01*
X1178051Y-437168D01*
X1172053Y-440500D02*
Y-436501D01*
X1174053Y-438501D01*
X1171387D01*
X1170054Y-436501D02*
Y-439167D01*
X1168721Y-440500D01*
X1167388Y-439167D01*
Y-436501D01*
X1175385Y-430800D02*
X1178051D01*
X1175385Y-428134D01*
Y-427468D01*
X1176052Y-426801D01*
X1177385D01*
X1178051Y-427468D01*
X1172053Y-430800D02*
Y-426801D01*
X1174053Y-428801D01*
X1171387D01*
X1170054Y-426801D02*
Y-429467D01*
X1168721Y-430800D01*
X1167388Y-429467D01*
Y-426801D01*
X1175385Y-420700D02*
X1178051D01*
X1175385Y-418034D01*
Y-417368D01*
X1176052Y-416701D01*
X1177385D01*
X1178051Y-417368D01*
X1172053Y-420700D02*
Y-416701D01*
X1174053Y-418701D01*
X1171387D01*
X1170054Y-416701D02*
Y-419367D01*
X1168721Y-420700D01*
X1167388Y-419367D01*
Y-416701D01*
X1175385Y-410800D02*
X1178051D01*
X1175385Y-408134D01*
Y-407468D01*
X1176052Y-406801D01*
X1177385D01*
X1178051Y-407468D01*
X1172053Y-410800D02*
Y-406801D01*
X1174053Y-408801D01*
X1171387D01*
X1170054Y-406801D02*
Y-409467D01*
X1168721Y-410800D01*
X1167388Y-409467D01*
Y-406801D01*
X1175385Y-400800D02*
X1178051D01*
X1175385Y-398134D01*
Y-397468D01*
X1176052Y-396801D01*
X1177385D01*
X1178051Y-397468D01*
X1172053Y-400800D02*
Y-396801D01*
X1174053Y-398801D01*
X1171387D01*
X1170054Y-396801D02*
Y-399467D01*
X1168721Y-400800D01*
X1167388Y-399467D01*
Y-396801D01*
X1175385Y-390900D02*
X1178051D01*
X1175385Y-388234D01*
Y-387568D01*
X1176052Y-386901D01*
X1177385D01*
X1178051Y-387568D01*
X1172053Y-390900D02*
Y-386901D01*
X1174053Y-388901D01*
X1171387D01*
X1170054Y-386901D02*
Y-389567D01*
X1168721Y-390900D01*
X1167388Y-389567D01*
Y-386901D01*
X1169534Y-477168D02*
X1170201Y-476501D01*
X1171533D01*
X1172200Y-477168D01*
Y-479834D01*
X1171533Y-480500D01*
X1170201D01*
X1169534Y-479834D01*
Y-478501D01*
X1170867D01*
X1169434Y-486368D02*
X1170101Y-485701D01*
X1171434D01*
X1172100Y-486368D01*
Y-489034D01*
X1171434Y-489700D01*
X1170101D01*
X1169434Y-489034D01*
Y-487701D01*
X1170767D01*
X1170234Y-496968D02*
X1170901Y-496301D01*
X1172233D01*
X1172900Y-496968D01*
Y-499634D01*
X1172233Y-500300D01*
X1170901D01*
X1170234Y-499634D01*
Y-498301D01*
X1171567D01*
X1653900Y-801400D02*
Y-797401D01*
X1651901D01*
X1651234Y-798068D01*
Y-799401D01*
X1651901Y-800067D01*
X1653900D01*
X1652567D02*
X1651234Y-801400D01*
X1649901D02*
X1648568D01*
X1649235D01*
Y-797401D01*
X1649901Y-798068D01*
X1654700Y-791500D02*
Y-787501D01*
X1652701D01*
X1652034Y-788168D01*
Y-789501D01*
X1652701Y-790167D01*
X1654700D01*
X1653367D02*
X1652034Y-791500D01*
X1648035D02*
X1650701D01*
X1648035Y-788834D01*
Y-788168D01*
X1648702Y-787501D01*
X1650035D01*
X1650701Y-788168D01*
X1654600Y-781600D02*
Y-777601D01*
X1652601D01*
X1651934Y-778268D01*
Y-779601D01*
X1652601Y-780267D01*
X1654600D01*
X1653267D02*
X1651934Y-781600D01*
X1650601Y-778268D02*
X1649935Y-777601D01*
X1648602D01*
X1647935Y-778268D01*
Y-778934D01*
X1648602Y-779601D01*
X1649268D01*
X1648602D01*
X1647935Y-780267D01*
Y-780934D01*
X1648602Y-781600D01*
X1649935D01*
X1650601Y-780934D01*
X1654500Y-771600D02*
Y-767601D01*
X1652501D01*
X1651834Y-768268D01*
Y-769601D01*
X1652501Y-770267D01*
X1654500D01*
X1653167D02*
X1651834Y-771600D01*
X1648502D02*
Y-767601D01*
X1650501Y-769601D01*
X1647836D01*
X1174600Y-669900D02*
Y-665901D01*
X1172601D01*
X1171934Y-666568D01*
Y-667901D01*
X1172601Y-668567D01*
X1174600D01*
X1173267D02*
X1171934Y-669900D01*
X1167935Y-665901D02*
X1170601D01*
Y-667901D01*
X1169268Y-667234D01*
X1168602D01*
X1167935Y-667901D01*
Y-669234D01*
X1168602Y-669900D01*
X1169935D01*
X1170601Y-669234D01*
X1175200Y-660000D02*
Y-656001D01*
X1173201D01*
X1172534Y-656668D01*
Y-658001D01*
X1173201Y-658667D01*
X1175200D01*
X1173867D02*
X1172534Y-660000D01*
X1168536Y-656001D02*
X1169868Y-656668D01*
X1171201Y-658001D01*
Y-659334D01*
X1170535Y-660000D01*
X1169202D01*
X1168536Y-659334D01*
Y-658667D01*
X1169202Y-658001D01*
X1171201D01*
X1174900Y-649700D02*
Y-645701D01*
X1172901D01*
X1172234Y-646368D01*
Y-647701D01*
X1172901Y-648367D01*
X1174900D01*
X1173567D02*
X1172234Y-649700D01*
X1170901Y-645701D02*
X1168235D01*
Y-646368D01*
X1170901Y-649033D01*
Y-649700D01*
X1174900Y-639800D02*
Y-635801D01*
X1172901D01*
X1172234Y-636468D01*
Y-637801D01*
X1172901Y-638467D01*
X1174900D01*
X1173567D02*
X1172234Y-639800D01*
X1170901Y-636468D02*
X1170235Y-635801D01*
X1168902D01*
X1168235Y-636468D01*
Y-637134D01*
X1168902Y-637801D01*
X1168235Y-638467D01*
Y-639134D01*
X1168902Y-639800D01*
X1170235D01*
X1170901Y-639134D01*
Y-638467D01*
X1170235Y-637801D01*
X1170901Y-637134D01*
Y-636468D01*
X1170235Y-637801D02*
X1168902D01*
X1174500Y-630100D02*
Y-626101D01*
X1172501D01*
X1171834Y-626768D01*
Y-628101D01*
X1172501Y-628767D01*
X1174500D01*
X1173167D02*
X1171834Y-630100D01*
X1170501Y-629433D02*
X1169835Y-630100D01*
X1168502D01*
X1167836Y-629433D01*
Y-626768D01*
X1168502Y-626101D01*
X1169835D01*
X1170501Y-626768D01*
Y-627434D01*
X1169835Y-628101D01*
X1167836D01*
X1178051Y-620100D02*
Y-616101D01*
X1176052D01*
X1175385Y-616768D01*
Y-618101D01*
X1176052Y-618767D01*
X1178051D01*
X1176718D02*
X1175385Y-620100D01*
X1174053D02*
X1172720D01*
X1173386D01*
Y-616101D01*
X1174053Y-616768D01*
X1170720D02*
X1170054Y-616101D01*
X1168721D01*
X1168054Y-616768D01*
Y-619433D01*
X1168721Y-620100D01*
X1170054D01*
X1170720Y-619433D01*
Y-616768D01*
X1176100Y-609700D02*
Y-605701D01*
X1174101D01*
X1173434Y-606368D01*
Y-607701D01*
X1174101Y-608367D01*
X1176100D01*
X1174767D02*
X1173434Y-609700D01*
X1172101D02*
X1170768D01*
X1171435D01*
Y-605701D01*
X1172101Y-606368D01*
X1168769Y-609700D02*
X1167436D01*
X1168103D01*
Y-605701D01*
X1168769Y-606368D01*
X1177100Y-599600D02*
Y-595601D01*
X1175101D01*
X1174434Y-596268D01*
Y-597601D01*
X1175101Y-598267D01*
X1177100D01*
X1175767D02*
X1174434Y-599600D01*
X1173101D02*
X1171768D01*
X1172435D01*
Y-595601D01*
X1173101Y-596268D01*
X1167103Y-599600D02*
X1169769D01*
X1167103Y-596934D01*
Y-596268D01*
X1167770Y-595601D01*
X1169103D01*
X1169769Y-596268D01*
X1178051Y-589700D02*
Y-585701D01*
X1176052D01*
X1175385Y-586368D01*
Y-587701D01*
X1176052Y-588367D01*
X1178051D01*
X1176718D02*
X1175385Y-589700D01*
X1174053D02*
X1172720D01*
X1173386D01*
Y-585701D01*
X1174053Y-586368D01*
X1170720D02*
X1170054Y-585701D01*
X1168721D01*
X1168054Y-586368D01*
Y-587034D01*
X1168721Y-587701D01*
X1169387D01*
X1168721D01*
X1168054Y-588367D01*
Y-589034D01*
X1168721Y-589700D01*
X1170054D01*
X1170720Y-589034D01*
X1178051Y-579900D02*
Y-575901D01*
X1176052D01*
X1175385Y-576568D01*
Y-577901D01*
X1176052Y-578567D01*
X1178051D01*
X1176718D02*
X1175385Y-579900D01*
X1174053D02*
X1172720D01*
X1173386D01*
Y-575901D01*
X1174053Y-576568D01*
X1168721Y-579900D02*
Y-575901D01*
X1170720Y-577901D01*
X1168054D01*
X1178051Y-569900D02*
Y-565901D01*
X1176052D01*
X1175385Y-566568D01*
Y-567901D01*
X1176052Y-568567D01*
X1178051D01*
X1176718D02*
X1175385Y-569900D01*
X1174053D02*
X1172720D01*
X1173386D01*
Y-565901D01*
X1174053Y-566568D01*
X1168054Y-565901D02*
X1170720D01*
Y-567901D01*
X1169387Y-567234D01*
X1168721D01*
X1168054Y-567901D01*
Y-569234D01*
X1168721Y-569900D01*
X1170054D01*
X1170720Y-569234D01*
X1177100Y-559800D02*
Y-555801D01*
X1175101D01*
X1174434Y-556468D01*
Y-557801D01*
X1175101Y-558467D01*
X1177100D01*
X1175767D02*
X1174434Y-559800D01*
X1173101D02*
X1171768D01*
X1172435D01*
Y-555801D01*
X1173101Y-556468D01*
X1167103Y-555801D02*
X1168436Y-556468D01*
X1169769Y-557801D01*
Y-559133D01*
X1169103Y-559800D01*
X1167770D01*
X1167103Y-559133D01*
Y-558467D01*
X1167770Y-557801D01*
X1169769D01*
X1178051Y-550400D02*
Y-546401D01*
X1176052D01*
X1175385Y-547068D01*
Y-548401D01*
X1176052Y-549067D01*
X1178051D01*
X1176718D02*
X1175385Y-550400D01*
X1174053D02*
X1172720D01*
X1173386D01*
Y-546401D01*
X1174053Y-547068D01*
X1170720Y-546401D02*
X1168054D01*
Y-547068D01*
X1170720Y-549733D01*
Y-550400D01*
X1178051Y-540000D02*
Y-536001D01*
X1176052D01*
X1175385Y-536668D01*
Y-538001D01*
X1176052Y-538667D01*
X1178051D01*
X1176718D02*
X1175385Y-540000D01*
X1174053D02*
X1172720D01*
X1173386D01*
Y-536001D01*
X1174053Y-536668D01*
X1170720D02*
X1170054Y-536001D01*
X1168721D01*
X1168054Y-536668D01*
Y-537334D01*
X1168721Y-538001D01*
X1168054Y-538667D01*
Y-539333D01*
X1168721Y-540000D01*
X1170054D01*
X1170720Y-539333D01*
Y-538667D01*
X1170054Y-538001D01*
X1170720Y-537334D01*
Y-536668D01*
X1170054Y-538001D02*
X1168721D01*
X1178051Y-530000D02*
Y-526001D01*
X1176052D01*
X1175385Y-526668D01*
Y-528001D01*
X1176052Y-528667D01*
X1178051D01*
X1176718D02*
X1175385Y-530000D01*
X1174053D02*
X1172720D01*
X1173386D01*
Y-526001D01*
X1174053Y-526668D01*
X1170720Y-529333D02*
X1170054Y-530000D01*
X1168721D01*
X1168054Y-529333D01*
Y-526668D01*
X1168721Y-526001D01*
X1170054D01*
X1170720Y-526668D01*
Y-527334D01*
X1170054Y-528001D01*
X1168054D01*
X1149300Y-519100D02*
Y-515101D01*
X1147301D01*
X1146634Y-515768D01*
Y-517101D01*
X1147301Y-517767D01*
X1149300D01*
X1147967D02*
X1146634Y-519100D01*
X1142636D02*
X1145301D01*
X1142636Y-516434D01*
Y-515768D01*
X1143302Y-515101D01*
X1144635D01*
X1145301Y-515768D01*
X1141303D02*
X1140636Y-515101D01*
X1139303D01*
X1138637Y-515768D01*
Y-518434D01*
X1139303Y-519100D01*
X1140636D01*
X1141303Y-518434D01*
Y-515768D01*
X378110Y272323D02*
Y268991D01*
X377444Y268325D01*
X376111D01*
X375445Y268991D01*
Y272323D01*
X374112Y268325D02*
X372779D01*
X373445D01*
Y272323D01*
X374112Y271657D01*
X409642Y422968D02*
Y426967D01*
X407642D01*
X406976Y426301D01*
Y424968D01*
X407642Y424301D01*
X409642D01*
X408309D02*
X406976Y422968D01*
X405643D02*
X404310D01*
X404977D01*
Y426967D01*
X405643Y426301D01*
X402311Y423635D02*
X401644Y422968D01*
X400311D01*
X399645Y423635D01*
Y426301D01*
X400311Y426967D01*
X401644D01*
X402311Y426301D01*
Y425634D01*
X401644Y424968D01*
X399645D01*
X398312Y426301D02*
X397646Y426967D01*
X396313D01*
X395646Y426301D01*
Y423635D01*
X396313Y422968D01*
X397646D01*
X398312Y423635D01*
Y426301D01*
X409042Y343568D02*
X405043D01*
Y341569D01*
X405710Y340903D01*
X407042D01*
X407709Y341569D01*
Y343568D01*
Y342236D02*
X409042Y340903D01*
Y339570D02*
Y338237D01*
Y338903D01*
X405043D01*
X405710Y339570D01*
Y336238D02*
X405043Y335571D01*
Y334238D01*
X405710Y333572D01*
X406376D01*
X407042Y334238D01*
X407709Y333572D01*
X408375D01*
X409042Y334238D01*
Y335571D01*
X408375Y336238D01*
X407709D01*
X407042Y335571D01*
X406376Y336238D01*
X405710D01*
X407042Y335571D02*
Y334238D01*
X408375Y332239D02*
X409042Y331572D01*
Y330240D01*
X408375Y329573D01*
X405710D01*
X405043Y330240D01*
Y331572D01*
X405710Y332239D01*
X406376D01*
X407042Y331572D01*
Y329573D01*
X194328Y221798D02*
Y225796D01*
X192328D01*
X191662Y225130D01*
Y223797D01*
X192328Y223130D01*
X194328D01*
X192995D02*
X191662Y221798D01*
X190329D02*
X188996D01*
X189662D01*
Y225796D01*
X190329Y225130D01*
X184331Y225796D02*
X185664Y225130D01*
X186997Y223797D01*
Y222464D01*
X186330Y221798D01*
X184997D01*
X184331Y222464D01*
Y223130D01*
X184997Y223797D01*
X186997D01*
X182998Y225130D02*
X182331Y225796D01*
X180999D01*
X180332Y225130D01*
Y224464D01*
X180999Y223797D01*
X180332Y223130D01*
Y222464D01*
X180999Y221798D01*
X182331D01*
X182998Y222464D01*
Y223130D01*
X182331Y223797D01*
X182998Y224464D01*
Y225130D01*
X182331Y223797D02*
X180999D01*
X209700Y261100D02*
X205701D01*
Y259101D01*
X206368Y258434D01*
X207701D01*
X208367Y259101D01*
Y261100D01*
Y259767D02*
X209700Y258434D01*
Y254435D02*
Y257101D01*
X207034Y254435D01*
X206368D01*
X205701Y255102D01*
Y256435D01*
X206368Y257101D01*
X209700Y250437D02*
Y253103D01*
X207034Y250437D01*
X206368D01*
X205701Y251103D01*
Y252436D01*
X206368Y253103D01*
X484500Y526200D02*
X480501D01*
Y524201D01*
X481168Y523534D01*
X482501D01*
X483167Y524201D01*
Y526200D01*
Y524867D02*
X484500Y523534D01*
Y522201D02*
Y520868D01*
Y521535D01*
X480501D01*
X481168Y522201D01*
X484500Y518869D02*
Y517536D01*
Y518203D01*
X480501D01*
X481168Y518869D01*
X480501Y515537D02*
Y512871D01*
X481168D01*
X483834Y515537D01*
X484500D01*
X496826Y525918D02*
X492827D01*
Y523919D01*
X493494Y523252D01*
X494827D01*
X495493Y523919D01*
Y525918D01*
Y524585D02*
X496826Y523252D01*
Y521919D02*
Y520586D01*
Y521253D01*
X492827D01*
X493494Y521919D01*
X496826Y518587D02*
Y517254D01*
Y517921D01*
X492827D01*
X493494Y518587D01*
X492827Y512589D02*
Y515255D01*
X494827D01*
X494160Y513922D01*
Y513255D01*
X494827Y512589D01*
X496160D01*
X496826Y513255D01*
Y514588D01*
X496160Y515255D01*
X509666Y525955D02*
X505667D01*
Y523956D01*
X506334Y523289D01*
X507667D01*
X508333Y523956D01*
Y525955D01*
Y524622D02*
X509666Y523289D01*
Y521956D02*
Y520623D01*
Y521290D01*
X505667D01*
X506334Y521956D01*
X509666Y518624D02*
Y517291D01*
Y517958D01*
X505667D01*
X506334Y518624D01*
Y515292D02*
X505667Y514625D01*
Y513292D01*
X506334Y512626D01*
X507000D01*
X507667Y513292D01*
Y513959D01*
Y513292D01*
X508333Y512626D01*
X509000D01*
X509666Y513292D01*
Y514625D01*
X509000Y515292D01*
X524100Y525700D02*
X520101D01*
Y523701D01*
X520768Y523034D01*
X522101D01*
X522767Y523701D01*
Y525700D01*
Y524367D02*
X524100Y523034D01*
Y521701D02*
Y520368D01*
Y521035D01*
X520101D01*
X520768Y521701D01*
Y518369D02*
X520101Y517703D01*
Y516370D01*
X520768Y515703D01*
X523434D01*
X524100Y516370D01*
Y517703D01*
X523434Y518369D01*
X520768D01*
Y514370D02*
X520101Y513704D01*
Y512371D01*
X520768Y511705D01*
X521434D01*
X522101Y512371D01*
X522767Y511705D01*
X523434D01*
X524100Y512371D01*
Y513704D01*
X523434Y514370D01*
X522767D01*
X522101Y513704D01*
X521434Y514370D01*
X520768D01*
X522101Y513704D02*
Y512371D01*
X427011Y528389D02*
X423012D01*
Y526390D01*
X423679Y525723D01*
X425012D01*
X425678Y526390D01*
Y528389D01*
Y527056D02*
X427011Y525723D01*
X426345Y524390D02*
X427011Y523724D01*
Y522391D01*
X426345Y521724D01*
X423679D01*
X423012Y522391D01*
Y523724D01*
X423679Y524390D01*
X424345D01*
X425012Y523724D01*
Y521724D01*
X423012Y517726D02*
X423679Y519059D01*
X425012Y520391D01*
X426345D01*
X427011Y519725D01*
Y518392D01*
X426345Y517726D01*
X425678D01*
X425012Y518392D01*
Y520391D01*
X438700Y527500D02*
X434701D01*
Y525501D01*
X435368Y524834D01*
X436701D01*
X437367Y525501D01*
Y527500D01*
Y526167D02*
X438700Y524834D01*
X438034Y523501D02*
X438700Y522835D01*
Y521502D01*
X438034Y520835D01*
X435368D01*
X434701Y521502D01*
Y522835D01*
X435368Y523501D01*
X436034D01*
X436701Y522835D01*
Y520835D01*
X438700Y516837D02*
Y519503D01*
X436034Y516837D01*
X435368D01*
X434701Y517503D01*
Y518836D01*
X435368Y519503D01*
X451900Y527700D02*
X447901D01*
Y525701D01*
X448568Y525034D01*
X449901D01*
X450567Y525701D01*
Y527700D01*
Y526367D02*
X451900Y525034D01*
X448568Y523701D02*
X447901Y523035D01*
Y521702D01*
X448568Y521035D01*
X449234D01*
X449901Y521702D01*
X450567Y521035D01*
X451234D01*
X451900Y521702D01*
Y523035D01*
X451234Y523701D01*
X450567D01*
X449901Y523035D01*
X449234Y523701D01*
X448568D01*
X449901Y523035D02*
Y521702D01*
X447901Y517037D02*
X448568Y518370D01*
X449901Y519703D01*
X451234D01*
X451900Y519036D01*
Y517703D01*
X451234Y517037D01*
X450567D01*
X449901Y517703D01*
Y519703D01*
X465239Y527546D02*
X461240D01*
Y525546D01*
X461906Y524880D01*
X463239D01*
X463906Y525546D01*
Y527546D01*
Y526213D02*
X465239Y524880D01*
X461906Y523547D02*
X461240Y522881D01*
Y521548D01*
X461906Y520881D01*
X462573D01*
X463239Y521548D01*
X463906Y520881D01*
X464572D01*
X465239Y521548D01*
Y522881D01*
X464572Y523547D01*
X463906D01*
X463239Y522881D01*
X462573Y523547D01*
X461906D01*
X463239Y522881D02*
Y521548D01*
X465239Y519548D02*
Y518215D01*
Y518882D01*
X461240D01*
X461906Y519548D01*
X408942Y415668D02*
Y419667D01*
X406942D01*
X406276Y419001D01*
Y417668D01*
X406942Y417001D01*
X408942D01*
X407609D02*
X406276Y415668D01*
X404943Y419667D02*
X402277D01*
Y419001D01*
X404943Y416335D01*
Y415668D01*
X398278Y419667D02*
X400944D01*
Y417668D01*
X399611Y418334D01*
X398945D01*
X398278Y417668D01*
Y416335D01*
X398945Y415668D01*
X400278D01*
X400944Y416335D01*
X406000Y269000D02*
Y272999D01*
X404001D01*
X403334Y272332D01*
Y270999D01*
X404001Y270333D01*
X406000D01*
X404667D02*
X403334Y269000D01*
X402001Y272999D02*
X399336D01*
Y272332D01*
X402001Y269667D01*
Y269000D01*
X398003Y272332D02*
X397336Y272999D01*
X396003D01*
X395337Y272332D01*
Y271666D01*
X396003Y270999D01*
X396670D01*
X396003D01*
X395337Y270333D01*
Y269667D01*
X396003Y269000D01*
X397336D01*
X398003Y269667D01*
X476400Y80700D02*
X472401D01*
Y78701D01*
X473068Y78034D01*
X474401D01*
X475067Y78701D01*
Y80700D01*
Y79367D02*
X476400Y78034D01*
X472401Y76701D02*
Y74036D01*
X473068D01*
X475734Y76701D01*
X476400D01*
Y70037D02*
Y72703D01*
X473734Y70037D01*
X473068D01*
X472401Y70703D01*
Y72036D01*
X473068Y72703D01*
X439300Y151100D02*
Y155099D01*
X437301D01*
X436634Y154432D01*
Y153099D01*
X437301Y152433D01*
X439300D01*
X437967D02*
X436634Y151100D01*
X433302D02*
Y155099D01*
X435301Y153099D01*
X432635D01*
X428637Y155099D02*
X431303D01*
Y153099D01*
X429970Y153766D01*
X429303D01*
X428637Y153099D01*
Y151767D01*
X429303Y151100D01*
X430636D01*
X431303Y151767D01*
X467052Y150328D02*
Y154327D01*
X465053D01*
X464387Y153660D01*
Y152327D01*
X465053Y151661D01*
X467052D01*
X465720D02*
X464387Y150328D01*
X461054D02*
Y154327D01*
X463054Y152327D01*
X460388D01*
X457056Y150328D02*
Y154327D01*
X459055Y152327D01*
X456389D01*
X443900Y209000D02*
X439901D01*
Y207001D01*
X440568Y206334D01*
X441901D01*
X442567Y207001D01*
Y209000D01*
Y207667D02*
X443900Y206334D01*
X440568Y205001D02*
X439901Y204335D01*
Y203002D01*
X440568Y202336D01*
X441234D01*
X441901Y203002D01*
Y203668D01*
Y203002D01*
X442567Y202336D01*
X443234D01*
X443900Y203002D01*
Y204335D01*
X443234Y205001D01*
X440568Y201003D02*
X439901Y200336D01*
Y199003D01*
X440568Y198337D01*
X443234D01*
X443900Y199003D01*
Y200336D01*
X443234Y201003D01*
X440568D01*
X436400Y179100D02*
Y183099D01*
X434401D01*
X433734Y182432D01*
Y181099D01*
X434401Y180433D01*
X436400D01*
X435067D02*
X433734Y179100D01*
X429736D02*
X432401D01*
X429736Y181766D01*
Y182432D01*
X430402Y183099D01*
X431735D01*
X432401Y182432D01*
X428403Y179766D02*
X427736Y179100D01*
X426403D01*
X425737Y179766D01*
Y182432D01*
X426403Y183099D01*
X427736D01*
X428403Y182432D01*
Y181766D01*
X427736Y181099D01*
X425737D01*
X405890Y287200D02*
Y291199D01*
X403890D01*
X403224Y290532D01*
Y289199D01*
X403890Y288533D01*
X405890D01*
X404557D02*
X403224Y287200D01*
X399225D02*
X401891D01*
X399225Y289866D01*
Y290532D01*
X399892Y291199D01*
X401225D01*
X401891Y290532D01*
X397892D02*
X397226Y291199D01*
X395893D01*
X395227Y290532D01*
Y287866D01*
X395893Y287200D01*
X397226D01*
X397892Y287866D01*
Y290532D01*
X416642Y343868D02*
X412643D01*
Y341869D01*
X413309Y341203D01*
X414642D01*
X415309Y341869D01*
Y343868D01*
Y342536D02*
X416642Y341203D01*
Y339870D02*
Y338537D01*
Y339203D01*
X412643D01*
X413309Y339870D01*
X415975Y336538D02*
X416642Y335871D01*
Y334538D01*
X415975Y333872D01*
X413309D01*
X412643Y334538D01*
Y335871D01*
X413309Y336538D01*
X413976D01*
X414642Y335871D01*
Y333872D01*
X50790Y348700D02*
Y352699D01*
X48790D01*
X48124Y352032D01*
Y350699D01*
X48790Y350033D01*
X50790D01*
X49457D02*
X48124Y348700D01*
X46791D02*
X45458D01*
X46125D01*
Y352699D01*
X46791Y352032D01*
X40793Y352699D02*
X43459D01*
Y350699D01*
X42126Y351366D01*
X41459D01*
X40793Y350699D01*
Y349366D01*
X41459Y348700D01*
X42792D01*
X43459Y349366D01*
X488600Y231705D02*
X484601D01*
Y229706D01*
X485268Y229040D01*
X486601D01*
X487267Y229706D01*
Y231705D01*
Y230373D02*
X488600Y229040D01*
X485268Y227707D02*
X484601Y227040D01*
Y225708D01*
X485268Y225041D01*
X485934D01*
X486601Y225708D01*
X487267Y225041D01*
X487934D01*
X488600Y225708D01*
Y227040D01*
X487934Y227707D01*
X487267D01*
X486601Y227040D01*
X485934Y227707D01*
X485268D01*
X486601Y227040D02*
Y225708D01*
X496200Y202358D02*
Y206357D01*
X494201D01*
X493534Y205690D01*
Y204358D01*
X494201Y203691D01*
X496200D01*
X494867D02*
X493534Y202358D01*
X492201Y206357D02*
X489536D01*
Y205690D01*
X492201Y203025D01*
Y202358D01*
X487750Y168717D02*
X483752D01*
Y166717D01*
X484418Y166051D01*
X485751D01*
X486417Y166717D01*
Y168717D01*
Y167384D02*
X487750Y166051D01*
Y162718D02*
X483752D01*
X485751Y164718D01*
Y162052D01*
X497910Y141933D02*
Y145932D01*
X495911D01*
X495244Y145265D01*
Y143932D01*
X495911Y143266D01*
X497910D01*
X496577D02*
X495244Y141933D01*
X493912Y145265D02*
X493245Y145932D01*
X491912D01*
X491246Y145265D01*
Y144599D01*
X491912Y143932D01*
X492579D01*
X491912D01*
X491246Y143266D01*
Y142599D01*
X491912Y141933D01*
X493245D01*
X493912Y142599D01*
X488950Y197283D02*
X484952D01*
Y195284D01*
X485618Y194617D01*
X486951D01*
X487617Y195284D01*
Y197283D01*
Y195950D02*
X488950Y194617D01*
Y190619D02*
Y193285D01*
X486285Y190619D01*
X485618D01*
X484952Y191285D01*
Y192618D01*
X485618Y193285D01*
X495905Y172700D02*
Y176699D01*
X493906D01*
X493240Y176032D01*
Y174699D01*
X493906Y174033D01*
X495905D01*
X494573D02*
X493240Y172700D01*
X491907D02*
X490574D01*
X491240D01*
Y176699D01*
X491907Y176032D01*
X355724Y270199D02*
X358390D01*
Y268199D01*
X357057D01*
X358390D01*
Y266200D01*
X354391Y270199D02*
Y266200D01*
X352392D01*
X351725Y266866D01*
Y267533D01*
X352392Y268199D01*
X354391D01*
X352392D01*
X351725Y268866D01*
Y269532D01*
X352392Y270199D01*
X354391D01*
X350392Y269532D02*
X349726Y270199D01*
X348393D01*
X347726Y269532D01*
Y268866D01*
X348393Y268199D01*
X349059D01*
X348393D01*
X347726Y267533D01*
Y266866D01*
X348393Y266200D01*
X349726D01*
X350392Y266866D01*
X386224Y401499D02*
X388890D01*
Y399499D01*
X387557D01*
X388890D01*
Y397500D01*
X384891Y401499D02*
Y397500D01*
X382892D01*
X382225Y398166D01*
Y398833D01*
X382892Y399499D01*
X384891D01*
X382892D01*
X382225Y400166D01*
Y400832D01*
X382892Y401499D01*
X384891D01*
X378226Y397500D02*
X380892D01*
X378226Y400166D01*
Y400832D01*
X378893Y401499D01*
X380226D01*
X380892Y400832D01*
X449024Y364799D02*
X451690D01*
Y360800D01*
X449024D01*
X451690Y362799D02*
X450357D01*
X447691Y360800D02*
X446358D01*
X447025D01*
Y364799D01*
X447691Y364132D01*
X444359D02*
X443692Y364799D01*
X442359D01*
X441693Y364132D01*
Y363466D01*
X442359Y362799D01*
X443026D01*
X442359D01*
X441693Y362133D01*
Y361467D01*
X442359Y360800D01*
X443692D01*
X444359Y361467D01*
X102390Y112799D02*
Y108800D01*
X100390D01*
X99724Y109467D01*
Y112132D01*
X100390Y112799D01*
X102390D01*
X98391D02*
X95725D01*
Y112132D01*
X98391Y109467D01*
Y108800D01*
X94392Y112132D02*
X93726Y112799D01*
X92393D01*
X91726Y112132D01*
Y109467D01*
X92393Y108800D01*
X93726D01*
X94392Y109467D01*
Y112132D01*
X76990Y215499D02*
Y211500D01*
X74990D01*
X74324Y212167D01*
Y214832D01*
X74990Y215499D01*
X76990D01*
X70325D02*
X71658Y214832D01*
X72991Y213499D01*
Y212167D01*
X72325Y211500D01*
X70992D01*
X70325Y212167D01*
Y212833D01*
X70992Y213499D01*
X72991D01*
X68992Y212167D02*
X68326Y211500D01*
X66993D01*
X66326Y212167D01*
Y214832D01*
X66993Y215499D01*
X68326D01*
X68992Y214832D01*
Y214166D01*
X68326Y213499D01*
X66326D01*
X569990Y103399D02*
Y99400D01*
X567990D01*
X567324Y100066D01*
Y102732D01*
X567990Y103399D01*
X569990D01*
X563325D02*
X565991D01*
Y101399D01*
X564658Y102066D01*
X563992D01*
X563325Y101399D01*
Y100066D01*
X563992Y99400D01*
X565325D01*
X565991Y100066D01*
X559327Y99400D02*
X561992D01*
X559327Y102066D01*
Y102732D01*
X559993Y103399D01*
X561326D01*
X561992Y102732D01*
X356934Y247232D02*
X357601Y247899D01*
X358934D01*
X359600Y247232D01*
Y244566D01*
X358934Y243900D01*
X357601D01*
X356934Y244566D01*
X355601Y243900D02*
X354268D01*
X354935D01*
Y247899D01*
X355601Y247232D01*
X349603Y247899D02*
X350936Y247232D01*
X352269Y245899D01*
Y244566D01*
X351603Y243900D01*
X350270D01*
X349603Y244566D01*
Y245233D01*
X350270Y245899D01*
X352269D01*
X345604Y247899D02*
X348270D01*
Y245899D01*
X346937Y246566D01*
X346271D01*
X345604Y245899D01*
Y244566D01*
X346271Y243900D01*
X347604D01*
X348270Y244566D01*
X354424Y230532D02*
X355090Y231199D01*
X356423D01*
X357090Y230532D01*
Y227867D01*
X356423Y227200D01*
X355090D01*
X354424Y227867D01*
X353091Y227200D02*
X351758D01*
X352425D01*
Y231199D01*
X353091Y230532D01*
X347093Y231199D02*
X348426Y230532D01*
X349759Y229199D01*
Y227867D01*
X349092Y227200D01*
X347759D01*
X347093Y227867D01*
Y228533D01*
X347759Y229199D01*
X349759D01*
X343761Y227200D02*
Y231199D01*
X345760Y229199D01*
X343094D01*
X320158Y359934D02*
X319491Y360601D01*
Y361934D01*
X320158Y362600D01*
X322823D01*
X323490Y361934D01*
Y360601D01*
X322823Y359934D01*
X323490Y358601D02*
Y357268D01*
Y357935D01*
X319491D01*
X320158Y358601D01*
X319491Y352603D02*
X320158Y353936D01*
X321490Y355269D01*
X322823D01*
X323490Y354603D01*
Y353270D01*
X322823Y352603D01*
X322157D01*
X321490Y353270D01*
Y355269D01*
X320158Y351270D02*
X319491Y350604D01*
Y349271D01*
X320158Y348605D01*
X320824D01*
X321490Y349271D01*
Y349938D01*
Y349271D01*
X322157Y348605D01*
X322823D01*
X323490Y349271D01*
Y350604D01*
X322823Y351270D01*
X317724Y230432D02*
X318390Y231099D01*
X319723D01*
X320390Y230432D01*
Y227766D01*
X319723Y227100D01*
X318390D01*
X317724Y227766D01*
X316391Y227100D02*
X315058D01*
X315725D01*
Y231099D01*
X316391Y230432D01*
X310393Y231099D02*
X311726Y230432D01*
X313059Y229099D01*
Y227766D01*
X312392Y227100D01*
X311059D01*
X310393Y227766D01*
Y228433D01*
X311059Y229099D01*
X313059D01*
X309060Y227100D02*
X307727D01*
X308394D01*
Y231099D01*
X309060Y230432D01*
X353914Y295232D02*
X354580Y295899D01*
X355913D01*
X356579Y295232D01*
Y292567D01*
X355913Y291900D01*
X354580D01*
X353914Y292567D01*
X352581Y291900D02*
X351248D01*
X351914D01*
Y295899D01*
X352581Y295232D01*
X346583Y295899D02*
X347916Y295232D01*
X349249Y293899D01*
Y292567D01*
X348582Y291900D01*
X347249D01*
X346583Y292567D01*
Y293233D01*
X347249Y293899D01*
X349249D01*
X345250Y295232D02*
X344583Y295899D01*
X343250D01*
X342584Y295232D01*
Y292567D01*
X343250Y291900D01*
X344583D01*
X345250Y292567D01*
Y295232D01*
X372176Y385701D02*
X372842Y386367D01*
X374175D01*
X374842Y385701D01*
Y383035D01*
X374175Y382368D01*
X372842D01*
X372176Y383035D01*
X370843Y382368D02*
X369510D01*
X370177D01*
Y386367D01*
X370843Y385701D01*
X364845Y386367D02*
X367511D01*
Y384368D01*
X366178Y385034D01*
X365511D01*
X364845Y384368D01*
Y383035D01*
X365511Y382368D01*
X366844D01*
X367511Y383035D01*
X363512Y386367D02*
X360846D01*
Y385701D01*
X363512Y383035D01*
Y382368D01*
X401909Y375303D02*
X401243Y375969D01*
Y377302D01*
X401909Y377969D01*
X404575D01*
X405242Y377302D01*
Y375969D01*
X404575Y375303D01*
X405242Y373970D02*
Y372637D01*
Y373303D01*
X401243D01*
X401909Y373970D01*
X401243Y367972D02*
Y370637D01*
X403242D01*
X402576Y369305D01*
Y368638D01*
X403242Y367972D01*
X404575D01*
X405242Y368638D01*
Y369971D01*
X404575Y370637D01*
X401243Y363973D02*
X401909Y365306D01*
X403242Y366639D01*
X404575D01*
X405242Y365972D01*
Y364639D01*
X404575Y363973D01*
X403909D01*
X403242Y364639D01*
Y366639D01*
X318334Y294632D02*
X319001Y295299D01*
X320334D01*
X321000Y294632D01*
Y291966D01*
X320334Y291300D01*
X319001D01*
X318334Y291966D01*
X317001Y291300D02*
X315668D01*
X316335D01*
Y295299D01*
X317001Y294632D01*
X311670Y291300D02*
Y295299D01*
X313669Y293299D01*
X311003D01*
X309670Y295299D02*
X307004D01*
Y294632D01*
X309670Y291966D01*
Y291300D01*
X354824Y346532D02*
X355490Y347199D01*
X356823D01*
X357490Y346532D01*
Y343866D01*
X356823Y343200D01*
X355490D01*
X354824Y343866D01*
X353491Y343200D02*
X352158D01*
X352825D01*
Y347199D01*
X353491Y346532D01*
X350159D02*
X349492Y347199D01*
X348159D01*
X347493Y346532D01*
Y345866D01*
X348159Y345199D01*
X348826D01*
X348159D01*
X347493Y344533D01*
Y343866D01*
X348159Y343200D01*
X349492D01*
X350159Y343866D01*
X346160Y346532D02*
X345494Y347199D01*
X344161D01*
X343494Y346532D01*
Y345866D01*
X344161Y345199D01*
X343494Y344533D01*
Y343866D01*
X344161Y343200D01*
X345494D01*
X346160Y343866D01*
Y344533D01*
X345494Y345199D01*
X346160Y345866D01*
Y346532D01*
X345494Y345199D02*
X344161D01*
X435943Y296069D02*
X436609Y296736D01*
X437942D01*
X438609Y296069D01*
Y293404D01*
X437942Y292737D01*
X436609D01*
X435943Y293404D01*
X434610Y292737D02*
X433277D01*
X433944D01*
Y296736D01*
X434610Y296069D01*
X431278D02*
X430611Y296736D01*
X429278D01*
X428612Y296069D01*
Y295403D01*
X429278Y294736D01*
X429945D01*
X429278D01*
X428612Y294070D01*
Y293404D01*
X429278Y292737D01*
X430611D01*
X431278Y293404D01*
X427279Y296069D02*
X426613Y296736D01*
X425280D01*
X424613Y296069D01*
Y295403D01*
X425280Y294736D01*
X425946D01*
X425280D01*
X424613Y294070D01*
Y293404D01*
X425280Y292737D01*
X426613D01*
X427279Y293404D01*
X182574Y237408D02*
X183241Y238075D01*
X184574D01*
X185240Y237408D01*
Y234742D01*
X184574Y234076D01*
X183241D01*
X182574Y234742D01*
X181242Y234076D02*
X179909D01*
X180575D01*
Y238075D01*
X181242Y237408D01*
X175243Y234076D02*
X177909D01*
X175243Y236742D01*
Y237408D01*
X175910Y238075D01*
X177243D01*
X177909Y237408D01*
X173910D02*
X173244Y238075D01*
X171911D01*
X171245Y237408D01*
Y236742D01*
X171911Y236075D01*
X171245Y235409D01*
Y234742D01*
X171911Y234076D01*
X173244D01*
X173910Y234742D01*
Y235409D01*
X173244Y236075D01*
X173910Y236742D01*
Y237408D01*
X173244Y236075D02*
X171911D01*
X199968Y260334D02*
X199301Y261001D01*
Y262334D01*
X199968Y263000D01*
X202634D01*
X203300Y262334D01*
Y261001D01*
X202634Y260334D01*
X203300Y259001D02*
Y257668D01*
Y258335D01*
X199301D01*
X199968Y259001D01*
X203300Y253003D02*
Y255669D01*
X200634Y253003D01*
X199968D01*
X199301Y253670D01*
Y255003D01*
X199968Y255669D01*
X199301Y251670D02*
Y249005D01*
X199968D01*
X202634Y251670D01*
X203300D01*
X243924Y243932D02*
X244590Y244599D01*
X245923D01*
X246590Y243932D01*
Y241266D01*
X245923Y240600D01*
X244590D01*
X243924Y241266D01*
X242591Y240600D02*
X241258D01*
X241925D01*
Y244599D01*
X242591Y243932D01*
X236593Y240600D02*
X239259D01*
X236593Y243266D01*
Y243932D01*
X237259Y244599D01*
X238592D01*
X239259Y243932D01*
X232594Y244599D02*
X233927Y243932D01*
X235260Y242599D01*
Y241266D01*
X234594Y240600D01*
X233261D01*
X232594Y241266D01*
Y241933D01*
X233261Y242599D01*
X235260D01*
X191643Y212253D02*
X192309Y212919D01*
X193642D01*
X194309Y212253D01*
Y209587D01*
X193642Y208920D01*
X192309D01*
X191643Y209587D01*
X190310Y208920D02*
X188977D01*
X189644D01*
Y212919D01*
X190310Y212253D01*
X184312Y208920D02*
X186978D01*
X184312Y211586D01*
Y212253D01*
X184978Y212919D01*
X186311D01*
X186978Y212253D01*
X180313Y212919D02*
X182979D01*
Y210920D01*
X181646Y211586D01*
X180980D01*
X180313Y210920D01*
Y209587D01*
X180980Y208920D01*
X182313D01*
X182979Y209587D01*
X228368Y183434D02*
X227701Y184101D01*
Y185434D01*
X228368Y186100D01*
X231034D01*
X231700Y185434D01*
Y184101D01*
X231034Y183434D01*
X231700Y182101D02*
Y180768D01*
Y181435D01*
X227701D01*
X228368Y182101D01*
X231700Y176103D02*
Y178769D01*
X229034Y176103D01*
X228368D01*
X227701Y176770D01*
Y178103D01*
X228368Y178769D01*
X231700Y172771D02*
X227701D01*
X229701Y174770D01*
Y172105D01*
X202274Y184134D02*
X201608Y184801D01*
Y186134D01*
X202274Y186800D01*
X204940D01*
X205606Y186134D01*
Y184801D01*
X204940Y184134D01*
X205606Y182801D02*
Y181468D01*
Y182135D01*
X201608D01*
X202274Y182801D01*
X205606Y176803D02*
Y179469D01*
X202941Y176803D01*
X202274D01*
X201608Y177470D01*
Y178803D01*
X202274Y179469D01*
Y175470D02*
X201608Y174804D01*
Y173471D01*
X202274Y172805D01*
X202941D01*
X203607Y173471D01*
Y174137D01*
Y173471D01*
X204273Y172805D01*
X204940D01*
X205606Y173471D01*
Y174804D01*
X204940Y175470D01*
X431024Y280932D02*
X431690Y281599D01*
X433023D01*
X433690Y280932D01*
Y278267D01*
X433023Y277600D01*
X431690D01*
X431024Y278267D01*
X429691Y277600D02*
X428358D01*
X429025D01*
Y281599D01*
X429691Y280932D01*
X423693Y277600D02*
X426359D01*
X423693Y280266D01*
Y280932D01*
X424359Y281599D01*
X425692D01*
X426359Y280932D01*
X422360Y277600D02*
X421027D01*
X421694D01*
Y281599D01*
X422360Y280932D01*
X190634Y218432D02*
X191301Y219099D01*
X192633D01*
X193300Y218432D01*
Y215767D01*
X192633Y215100D01*
X191301D01*
X190634Y215767D01*
X189301Y215100D02*
X187968D01*
X188635D01*
Y219099D01*
X189301Y218432D01*
X183303Y215100D02*
X185969D01*
X183303Y217766D01*
Y218432D01*
X183970Y219099D01*
X185303D01*
X185969Y218432D01*
X181970D02*
X181304Y219099D01*
X179971D01*
X179305Y218432D01*
Y215767D01*
X179971Y215100D01*
X181304D01*
X181970Y215767D01*
Y218432D01*
X221468Y183434D02*
X220801Y184101D01*
Y185434D01*
X221468Y186100D01*
X224134D01*
X224800Y185434D01*
Y184101D01*
X224134Y183434D01*
X224800Y182101D02*
Y180768D01*
Y181435D01*
X220801D01*
X221468Y182101D01*
X224800Y178769D02*
Y177436D01*
Y178103D01*
X220801D01*
X221468Y178769D01*
X224134Y175437D02*
X224800Y174770D01*
Y173438D01*
X224134Y172771D01*
X221468D01*
X220801Y173438D01*
Y174770D01*
X221468Y175437D01*
X222134D01*
X222801Y174770D01*
Y172771D01*
X481168Y78434D02*
X480501Y79101D01*
Y80434D01*
X481168Y81100D01*
X483834D01*
X484500Y80434D01*
Y79101D01*
X483834Y78434D01*
X484500Y77101D02*
Y75768D01*
Y76435D01*
X480501D01*
X481168Y77101D01*
X484500Y73769D02*
Y72436D01*
Y73103D01*
X480501D01*
X481168Y73769D01*
X484500Y67771D02*
Y70437D01*
X481834Y67771D01*
X481168D01*
X480501Y68437D01*
Y69770D01*
X481168Y70437D01*
X454868Y524734D02*
X454201Y525401D01*
Y526734D01*
X454868Y527400D01*
X457534D01*
X458200Y526734D01*
Y525401D01*
X457534Y524734D01*
X458200Y523401D02*
Y522068D01*
Y522735D01*
X454201D01*
X454868Y523401D01*
Y520069D02*
X454201Y519403D01*
Y518070D01*
X454868Y517403D01*
X457534D01*
X458200Y518070D01*
Y519403D01*
X457534Y520069D01*
X454868D01*
Y516070D02*
X454201Y515404D01*
Y514071D01*
X454868Y513405D01*
X455534D01*
X456201Y514071D01*
X456867Y513405D01*
X457534D01*
X458200Y514071D01*
Y515404D01*
X457534Y516070D01*
X456867D01*
X456201Y515404D01*
X455534Y516070D01*
X454868D01*
X456201Y515404D02*
Y514071D01*
X429924Y398332D02*
X430590Y398999D01*
X431923D01*
X432590Y398332D01*
Y395667D01*
X431923Y395000D01*
X430590D01*
X429924Y395667D01*
X428591Y398332D02*
X427925Y398999D01*
X426592D01*
X425925Y398332D01*
Y397666D01*
X426592Y396999D01*
X425925Y396333D01*
Y395667D01*
X426592Y395000D01*
X427925D01*
X428591Y395667D01*
Y396333D01*
X427925Y396999D01*
X428591Y397666D01*
Y398332D01*
X427925Y396999D02*
X426592D01*
X421926Y398999D02*
X423259Y398332D01*
X424592Y396999D01*
Y395667D01*
X423926Y395000D01*
X422593D01*
X421926Y395667D01*
Y396333D01*
X422593Y396999D01*
X424592D01*
X420710Y340034D02*
X420043Y340701D01*
Y342034D01*
X420710Y342700D01*
X423375D01*
X424042Y342034D01*
Y340701D01*
X423375Y340034D01*
X420710Y338701D02*
X420043Y338035D01*
Y336702D01*
X420710Y336035D01*
X421376D01*
X422042Y336702D01*
X422709Y336035D01*
X423375D01*
X424042Y336702D01*
Y338035D01*
X423375Y338701D01*
X422709D01*
X422042Y338035D01*
X421376Y338701D01*
X420710D01*
X422042Y338035D02*
Y336702D01*
X420043Y332037D02*
Y334703D01*
X422042D01*
X421376Y333370D01*
Y332703D01*
X422042Y332037D01*
X423375D01*
X424042Y332703D01*
Y334036D01*
X423375Y334703D01*
X398968Y244934D02*
X398301Y245601D01*
Y246934D01*
X398968Y247600D01*
X401634D01*
X402300Y246934D01*
Y245601D01*
X401634Y244934D01*
X398968Y243601D02*
X398301Y242935D01*
Y241602D01*
X398968Y240935D01*
X399634D01*
X400301Y241602D01*
X400967Y240935D01*
X401634D01*
X402300Y241602D01*
Y242935D01*
X401634Y243601D01*
X400967D01*
X400301Y242935D01*
X399634Y243601D01*
X398968D01*
X400301Y242935D02*
Y241602D01*
X402300Y237603D02*
X398301D01*
X400301Y239603D01*
Y236937D01*
X475268Y523334D02*
X474601Y524001D01*
Y525334D01*
X475268Y526000D01*
X477934D01*
X478600Y525334D01*
Y524001D01*
X477934Y523334D01*
X475268Y522001D02*
X474601Y521335D01*
Y520002D01*
X475268Y519336D01*
X475934D01*
X476601Y520002D01*
X477267Y519336D01*
X477934D01*
X478600Y520002D01*
Y521335D01*
X477934Y522001D01*
X477267D01*
X476601Y521335D01*
X475934Y522001D01*
X475268D01*
X476601Y521335D02*
Y520002D01*
X475268Y518003D02*
X474601Y517336D01*
Y516003D01*
X475268Y515337D01*
X477934D01*
X478600Y516003D01*
Y517336D01*
X477934Y518003D01*
X475268D01*
X487082Y522789D02*
X486416Y523456D01*
Y524789D01*
X487082Y525455D01*
X489748D01*
X490414Y524789D01*
Y523456D01*
X489748Y522789D01*
X486416Y521456D02*
Y518790D01*
X487082D01*
X489748Y521456D01*
X490414D01*
X489748Y517458D02*
X490414Y516791D01*
Y515458D01*
X489748Y514792D01*
X487082D01*
X486416Y515458D01*
Y516791D01*
X487082Y517458D01*
X487748D01*
X488415Y516791D01*
Y514792D01*
X499860Y522237D02*
X499193Y522903D01*
Y524236D01*
X499860Y524902D01*
X502526D01*
X503192Y524236D01*
Y522903D01*
X502526Y522237D01*
X499193Y520904D02*
Y518238D01*
X499860D01*
X502526Y520904D01*
X503192D01*
X499860Y516905D02*
X499193Y516239D01*
Y514906D01*
X499860Y514239D01*
X500526D01*
X501193Y514906D01*
X501859Y514239D01*
X502526D01*
X503192Y514906D01*
Y516239D01*
X502526Y516905D01*
X501859D01*
X501193Y516239D01*
X500526Y516905D01*
X499860D01*
X501193Y516239D02*
Y514906D01*
X513268Y523034D02*
X512601Y523701D01*
Y525034D01*
X513268Y525700D01*
X515934D01*
X516600Y525034D01*
Y523701D01*
X515934Y523034D01*
X512601Y521701D02*
Y519035D01*
X513268D01*
X515934Y521701D01*
X516600D01*
X512601Y515037D02*
X513268Y516370D01*
X514601Y517703D01*
X515934D01*
X516600Y517036D01*
Y515703D01*
X515934Y515037D01*
X515267D01*
X514601Y515703D01*
Y517703D01*
X269334Y118332D02*
X270001Y118999D01*
X271334D01*
X272000Y118332D01*
Y115666D01*
X271334Y115000D01*
X270001D01*
X269334Y115666D01*
X268001Y118999D02*
X265335D01*
Y118332D01*
X268001Y115666D01*
Y115000D01*
X264003Y118332D02*
X263336Y118999D01*
X262003D01*
X261337Y118332D01*
Y117666D01*
X262003Y116999D01*
X262670D01*
X262003D01*
X261337Y116333D01*
Y115666D01*
X262003Y115000D01*
X263336D01*
X264003Y115666D01*
X416368Y525834D02*
X415701Y526501D01*
Y527834D01*
X416368Y528500D01*
X419034D01*
X419700Y527834D01*
Y526501D01*
X419034Y525834D01*
X415701Y521836D02*
X416368Y523168D01*
X417701Y524501D01*
X419034D01*
X419700Y523835D01*
Y522502D01*
X419034Y521836D01*
X418367D01*
X417701Y522502D01*
Y524501D01*
X415701Y517837D02*
Y520503D01*
X417701D01*
X417034Y519170D01*
Y518503D01*
X417701Y517837D01*
X419034D01*
X419700Y518503D01*
Y519836D01*
X419034Y520503D01*
X429468Y524834D02*
X428801Y525501D01*
Y526834D01*
X429468Y527500D01*
X432134D01*
X432800Y526834D01*
Y525501D01*
X432134Y524834D01*
X428801Y520835D02*
X429468Y522168D01*
X430801Y523501D01*
X432134D01*
X432800Y522835D01*
Y521502D01*
X432134Y520835D01*
X431467D01*
X430801Y521502D01*
Y523501D01*
X429468Y519503D02*
X428801Y518836D01*
Y517503D01*
X429468Y516837D01*
X430134D01*
X430801Y517503D01*
Y518170D01*
Y517503D01*
X431467Y516837D01*
X432134D01*
X432800Y517503D01*
Y518836D01*
X432134Y519503D01*
X244424Y138832D02*
X245090Y139499D01*
X246423D01*
X247090Y138832D01*
Y136167D01*
X246423Y135500D01*
X245090D01*
X244424Y136167D01*
X240425Y139499D02*
X243091D01*
Y137499D01*
X241758Y138166D01*
X241092D01*
X240425Y137499D01*
Y136167D01*
X241092Y135500D01*
X242425D01*
X243091Y136167D01*
X239092Y139499D02*
X236426D01*
Y138832D01*
X239092Y136167D01*
Y135500D01*
X442368Y524934D02*
X441701Y525601D01*
Y526934D01*
X442368Y527600D01*
X445034D01*
X445700Y526934D01*
Y525601D01*
X445034Y524934D01*
X441701Y520935D02*
Y523601D01*
X443701D01*
X443034Y522268D01*
Y521602D01*
X443701Y520935D01*
X445034D01*
X445700Y521602D01*
Y522935D01*
X445034Y523601D01*
X441701Y516937D02*
X442368Y518270D01*
X443701Y519603D01*
X445034D01*
X445700Y518936D01*
Y517603D01*
X445034Y516937D01*
X444367D01*
X443701Y517603D01*
Y519603D01*
X405012Y201778D02*
X404345Y202445D01*
Y203778D01*
X405012Y204444D01*
X407678D01*
X408344Y203778D01*
Y202445D01*
X407678Y201778D01*
X408344Y198446D02*
X404345D01*
X406345Y200445D01*
Y197780D01*
X407678Y196447D02*
X408344Y195780D01*
Y194447D01*
X407678Y193781D01*
X405012D01*
X404345Y194447D01*
Y195780D01*
X405012Y196447D01*
X405678D01*
X406345Y195780D01*
Y193781D01*
X418124Y167032D02*
X418790Y167699D01*
X420123D01*
X420790Y167032D01*
Y164366D01*
X420123Y163700D01*
X418790D01*
X418124Y164366D01*
X414792Y163700D02*
Y167699D01*
X416791Y165699D01*
X414125D01*
X412792Y167699D02*
X410126D01*
Y167032D01*
X412792Y164366D01*
Y163700D01*
X447575Y84658D02*
X448242Y85324D01*
X449575D01*
X450241Y84658D01*
Y81992D01*
X449575Y81325D01*
X448242D01*
X447575Y81992D01*
X444243Y81325D02*
Y85324D01*
X446242Y83324D01*
X443576D01*
X442243Y84658D02*
X441577Y85324D01*
X440244D01*
X439578Y84658D01*
Y81992D01*
X440244Y81325D01*
X441577D01*
X442243Y81992D01*
Y84658D01*
X454668Y177634D02*
X454001Y178301D01*
Y179633D01*
X454668Y180300D01*
X457334D01*
X458000Y179633D01*
Y178301D01*
X457334Y177634D01*
X458000Y173635D02*
Y176301D01*
X455334Y173635D01*
X454668D01*
X454001Y174302D01*
Y175635D01*
X454668Y176301D01*
X454001Y169637D02*
Y172303D01*
X456001D01*
X455334Y170970D01*
Y170303D01*
X456001Y169637D01*
X457334D01*
X458000Y170303D01*
Y171636D01*
X457334Y172303D01*
X434168Y167134D02*
X433501Y167801D01*
Y169133D01*
X434168Y169800D01*
X436834D01*
X437500Y169133D01*
Y167801D01*
X436834Y167134D01*
X437500Y163136D02*
Y165801D01*
X434834Y163136D01*
X434168D01*
X433501Y163802D01*
Y165135D01*
X434168Y165801D01*
X437500Y161803D02*
Y160470D01*
Y161136D01*
X433501D01*
X434168Y161803D01*
X447478Y206555D02*
X446811Y207221D01*
Y208554D01*
X447478Y209221D01*
X450144D01*
X450810Y208554D01*
Y207221D01*
X450144Y206555D01*
X450810Y205222D02*
Y203889D01*
Y204555D01*
X446811D01*
X447478Y205222D01*
X446811Y201889D02*
Y199224D01*
X447478D01*
X450144Y201889D01*
X450810D01*
X431178Y208467D02*
X430512Y209134D01*
Y210467D01*
X431178Y211133D01*
X433844D01*
X434510Y210467D01*
Y209134D01*
X433844Y208467D01*
X434510Y207134D02*
Y205802D01*
Y206468D01*
X430512D01*
X431178Y207134D01*
Y203802D02*
X430512Y203136D01*
Y201803D01*
X431178Y201136D01*
X431844D01*
X432511Y201803D01*
Y202469D01*
Y201803D01*
X433177Y201136D01*
X433844D01*
X434510Y201803D01*
Y203136D01*
X433844Y203802D01*
X491368Y228329D02*
X490701Y228995D01*
Y230328D01*
X491368Y230995D01*
X494034D01*
X494700Y230328D01*
Y228995D01*
X494034Y228329D01*
X491368Y226996D02*
X490701Y226329D01*
Y224996D01*
X491368Y224330D01*
X492034D01*
X492701Y224996D01*
X493367Y224330D01*
X494034D01*
X494700Y224996D01*
Y226329D01*
X494034Y226996D01*
X493367D01*
X492701Y226329D01*
X492034Y226996D01*
X491368D01*
X492701Y226329D02*
Y224996D01*
X491818Y166051D02*
X491152Y166717D01*
Y168050D01*
X491818Y168717D01*
X494484D01*
X495150Y168050D01*
Y166717D01*
X494484Y166051D01*
X491152Y164718D02*
Y162052D01*
X491818D01*
X494484Y164718D01*
X495150D01*
X493418Y194518D02*
X492752Y195184D01*
Y196517D01*
X493418Y197183D01*
X496084D01*
X496750Y196517D01*
Y195184D01*
X496084Y194518D01*
X492752Y190519D02*
X493418Y191852D01*
X494751Y193185D01*
X496084D01*
X496750Y192518D01*
Y191185D01*
X496084Y190519D01*
X495417D01*
X494751Y191185D01*
Y193185D01*
X469168Y221134D02*
X468501Y221801D01*
Y223134D01*
X469168Y223800D01*
X471834D01*
X472500Y223134D01*
Y221801D01*
X471834Y221134D01*
X468501Y217136D02*
Y219801D01*
X470501D01*
X469834Y218468D01*
Y217802D01*
X470501Y217136D01*
X471834D01*
X472500Y217802D01*
Y219135D01*
X471834Y219801D01*
X469387Y186767D02*
X468721Y187434D01*
Y188767D01*
X469387Y189433D01*
X472053D01*
X472720Y188767D01*
Y187434D01*
X472053Y186767D01*
X469387Y185434D02*
X468721Y184768D01*
Y183435D01*
X469387Y182769D01*
X470054D01*
X470720Y183435D01*
Y184101D01*
Y183435D01*
X471387Y182769D01*
X472053D01*
X472720Y183435D01*
Y184768D01*
X472053Y185434D01*
X376634Y251805D02*
X377301Y252472D01*
X378634D01*
X379300Y251805D01*
Y249140D01*
X378634Y248473D01*
X377301D01*
X376634Y249140D01*
X372636Y248473D02*
X375301D01*
X372636Y251139D01*
Y251805D01*
X373302Y252472D01*
X374635D01*
X375301Y251805D01*
X387124Y281232D02*
X387790Y281899D01*
X389123D01*
X389790Y281232D01*
Y278567D01*
X389123Y277900D01*
X387790D01*
X387124Y278567D01*
X385791Y277900D02*
X384458D01*
X385125D01*
Y281899D01*
X385791Y281232D01*
D17*
X429758Y249300D02*
X437258D01*
X429758Y235300D02*
X437258D01*
X413758D02*
X421258D01*
X413758Y249300D02*
X421258D01*
X437258Y235300D02*
Y249300D01*
X413758Y235300D02*
Y249300D01*
X444300Y357900D02*
X451800D01*
X444300Y343900D02*
X451800D01*
X428300D02*
X435800D01*
X428300Y357900D02*
X435800D01*
X451800Y343900D02*
Y357900D01*
X428300Y343900D02*
Y357900D01*
X505900Y11600D02*
X504234D01*
X505067D01*
Y16598D01*
X505900Y15765D01*
X502568Y21600D02*
X505900D01*
X502568Y24932D01*
Y25765D01*
X503401Y26598D01*
X505067D01*
X505900Y25765D01*
X386568Y11600D02*
X389900D01*
X386568Y14932D01*
Y15765D01*
X387401Y16598D01*
X389067D01*
X389900Y15765D01*
X384902Y11600D02*
X383236D01*
X384069D01*
Y16598D01*
X384902Y15765D01*
X386568Y21600D02*
X389900D01*
X386568Y24932D01*
Y25765D01*
X387401Y26598D01*
X389067D01*
X389900Y25765D01*
X381569Y21600D02*
X384902D01*
X381569Y24932D01*
Y25765D01*
X382402Y26598D01*
X384069D01*
X384902Y25765D01*
X42700Y576965D02*
X41867Y577798D01*
X40201D01*
X39368Y576965D01*
Y576132D01*
X40201Y575299D01*
X39368Y574466D01*
Y573633D01*
X40201Y572800D01*
X41867D01*
X42700Y573633D01*
Y574466D01*
X41867Y575299D01*
X42700Y576132D01*
Y576965D01*
X41867Y575299D02*
X40201D01*
X42700Y567798D02*
X39368D01*
Y566965D01*
X42700Y563633D01*
Y562800D01*
X86700D02*
X85034D01*
X85867D01*
Y567798D01*
X86700Y566965D01*
X85368Y572800D02*
X88700D01*
X85368Y576132D01*
Y576965D01*
X86201Y577798D01*
X87867D01*
X88700Y576965D01*
D168*
X513457Y154433D02*
X520347Y147544D01*
X527827Y136717D02*
X533142D01*
Y166244D01*
X527827D02*
X533142D01*
X507552Y136717D02*
X512867D01*
X507552D02*
Y166244D01*
X512867D01*
X513457Y147544D02*
X527237D01*
X513457Y154433D02*
X527237D01*
X520347Y147544D02*
X527237Y154433D01*
X509433Y565090D02*
X516323Y558200D01*
X509433Y551310D02*
Y565090D01*
X516323Y551310D02*
Y565090D01*
X497622Y545405D02*
Y550720D01*
Y545405D02*
X527150D01*
Y550720D01*
X497622Y565680D02*
Y570995D01*
X527150D01*
Y565680D02*
Y570995D01*
X509433Y551310D02*
X516323Y558200D01*
X89790Y83700D02*
X96680Y90590D01*
X82900D02*
X96680D01*
X82900Y83700D02*
X96680D01*
X76995Y102401D02*
X82310D01*
X76995Y72873D02*
Y102401D01*
Y72873D02*
X82310D01*
X97270Y102401D02*
X102585D01*
Y72873D02*
Y102401D01*
X97270Y72873D02*
X102585D01*
X82900Y90590D02*
X89790Y83700D01*
X557300Y82348D02*
X564190Y75458D01*
X544505Y93175D02*
X549820D01*
X544505Y63647D02*
Y93175D01*
Y63647D02*
X549820D01*
X564780Y93175D02*
X570095D01*
Y63647D02*
Y93175D01*
X564780Y63647D02*
X570095D01*
X550410Y82348D02*
X564190D01*
X550410Y75458D02*
X564190D01*
X550410D02*
X557300Y82348D01*
D169*
X413758Y237300D02*
Y247300D01*
X428300Y345900D02*
Y355900D01*
M02*
