G04 ================== begin FILE IDENTIFICATION RECORD ==================*
G04 Layout Name:  F:/PCB/ANT/top.brd*
G04 Film Name:    TOP*
G04 File Format:  Gerber RS274X*
G04 File Origin:  Cadence Allegro 16.6-2015-S108*
G04 Origin Date:  Mon Jul 29 14:57:05 2019*
G04 *
G04 Layer:  BOARD GEOMETRY/OUTLINE*
G04 Layer:  ETCH/TOP*
G04 Layer:  PIN/TOP*
G04 Layer:  VIA CLASS/TOP*
G04 *
G04 Offset:    (0.0000 0.0000)*
G04 Mirror:    No*
G04 Mode:      Positive*
G04 Rotation:  0*
G04 FullContactRelief:  No*
G04 UndefLineWidth:     0.1270*
G04 ================== end FILE IDENTIFICATION RECORD ====================*
%FSLAX35Y35*MOIN*%
%IR0*IPPOS*OFA0.00000B0.00000*MIA0B0*SFA1.00000B1.00000*%
%ADD10R,.059055X.059055*%
%ADD11C,.005*%
G75*
%LPD*%
G75*
G36*
G01X102059Y-86614D02*
X-91488D01*
G03X47677Y-116614I91488J86614D01*
G02X48228Y-116985I151J-370D01*
G01Y-124868D01*
G02X-107783Y-79377I-48228J124868D01*
G02X-107461Y-78740I322J237D01*
G01X98346D01*
G03X118307Y-43307I-98346J78740D01*
G01X-126659D01*
G02X-133626Y7874I126659J43307D01*
G01X97441D01*
Y35433D01*
X-128558D01*
G02X-128943Y35941I0J400D01*
G02X-108250Y78740I128943J-35941D01*
G01X98346D01*
G03X-30017Y122356I-98346J-78740D01*
G02X-30512Y122744I-95J389D01*
G01Y130335D01*
G02X113176Y71480I30512J-130334D01*
G02X112837Y70866I-338J-213D01*
G01X-104163D01*
G03X-118307Y43307I104163J-70867D01*
G01X126659D01*
G02X133626Y-7874I-126659J-43307D01*
G01X-105315D01*
Y-35433D01*
X128558D01*
G02X128943Y-35941I0J-400D01*
G02X102059Y-86614I-128943J35941D01*
G37*
%LPC*%
G75*
G36*
G01X125739Y7873D02*
X105314D01*
Y35434D01*
X120899D01*
G02X125739Y7877I-120899J-35435D01*
G01Y7873D01*
G37*
G36*
G01X122047Y-1969D02*
X110236D01*
G02Y1969I0J1969D01*
G01X122047D01*
G02Y-1969I0J-1969D01*
G37*
G36*
G01X5906D02*
X-5906D01*
G02Y1969I0J1969D01*
G01X5906D01*
G02Y-1969I0J-1969D01*
G37*
G36*
G01X-122047Y1969D02*
X-110236D01*
G02Y-1969I0J-1969D01*
G01X-122047D01*
G02Y1969I0J1969D01*
G37*
G36*
G01X-125739Y-7873D02*
X-113188D01*
Y-35434D01*
X-120899D01*
G02X-125739Y-7877I120899J35435D01*
G01Y-7873D01*
G37*
%LPD*%
G75*
G54D10*
X0Y-4921D03*
G54D11*
G01X135827Y0D02*
G03I-135827J0D01*
G01X-125738Y-7874D02*
G03X-120899Y-35433I125738J7873D01*
G01X-113189D01*
Y-7874D01*
X-125738D01*
G01X-122047Y1969D02*
G03Y-1969I0J-1969D01*
G01X-110236D01*
G03Y1969I0J1969D01*
G01X-122047D01*
G01X-97983Y-51458D02*
G02I-3937J0D01*
G01X5906Y-1969D02*
G03Y1969I0J1969D01*
G01X-5906D01*
G03Y-1969I0J-1969D01*
G01X5906D01*
G01X3937Y114173D02*
G02I-3937J0D01*
G01X106485Y-50194D02*
G02I-3937J0D01*
G01X122047Y-1969D02*
G03Y1969I0J1969D01*
G01X110236D01*
G03Y-1969I0J-1969D01*
G01X122047D01*
G01Y1969D02*
X110236D01*
G03Y-1969I0J-1969D01*
G01X122047D01*
G03Y1969I0J1969D01*
G01X105315Y35433D02*
Y7874D01*
X125738D01*
G03X120899Y35433I-125738J-7873D01*
G01X105315D01*
M02*
