G04*
G04 #@! TF.GenerationSoftware,Altium Limited,Altium Designer,23.7.1 (13)*
G04*
G04 Layer_Color=8421504*
%FSLAX44Y44*%
%MOMM*%
G71*
G04*
G04 #@! TF.SameCoordinates,18148A51-D3F6-497A-8191-E25F5C0AB562*
G04*
G04*
G04 #@! TF.FilePolarity,Positive*
G04*
G01*
G75*
%ADD12R,1.5000X0.8000*%
D12*
X666666Y878796D02*
D03*
Y889796D02*
D03*
Y900796D02*
D03*
Y911796D02*
D03*
Y922796D02*
D03*
Y933796D02*
D03*
Y944796D02*
D03*
Y974996D02*
D03*
Y985996D02*
D03*
Y996996D02*
D03*
Y1007996D02*
D03*
Y1018996D02*
D03*
X557266D02*
D03*
Y1007996D02*
D03*
Y996996D02*
D03*
Y985996D02*
D03*
Y974996D02*
D03*
Y944796D02*
D03*
Y933796D02*
D03*
Y922796D02*
D03*
Y911796D02*
D03*
Y900796D02*
D03*
Y889796D02*
D03*
Y878796D02*
D03*
X840466D02*
D03*
Y889796D02*
D03*
Y900796D02*
D03*
Y911796D02*
D03*
Y922796D02*
D03*
Y933796D02*
D03*
Y944796D02*
D03*
Y974996D02*
D03*
Y985996D02*
D03*
Y996996D02*
D03*
Y1007996D02*
D03*
Y1018996D02*
D03*
X949866D02*
D03*
Y1007996D02*
D03*
Y996996D02*
D03*
Y985996D02*
D03*
Y974996D02*
D03*
Y944796D02*
D03*
Y933796D02*
D03*
Y922796D02*
D03*
Y911796D02*
D03*
Y900796D02*
D03*
Y889796D02*
D03*
Y878796D02*
D03*
X1091466Y1238796D02*
D03*
Y1249796D02*
D03*
Y1260796D02*
D03*
Y1271796D02*
D03*
Y1282796D02*
D03*
Y1293796D02*
D03*
Y1304796D02*
D03*
Y1334996D02*
D03*
Y1345996D02*
D03*
Y1356996D02*
D03*
Y1367996D02*
D03*
Y1378996D02*
D03*
X982066D02*
D03*
Y1367996D02*
D03*
Y1356996D02*
D03*
Y1345996D02*
D03*
Y1334996D02*
D03*
Y1304796D02*
D03*
Y1293796D02*
D03*
Y1282796D02*
D03*
Y1271796D02*
D03*
Y1260796D02*
D03*
Y1249796D02*
D03*
Y1238796D02*
D03*
X840466Y698796D02*
D03*
Y709796D02*
D03*
Y720796D02*
D03*
Y731796D02*
D03*
Y742796D02*
D03*
Y753796D02*
D03*
Y764796D02*
D03*
Y794996D02*
D03*
Y805996D02*
D03*
Y816996D02*
D03*
Y827996D02*
D03*
Y838996D02*
D03*
X949866D02*
D03*
Y827996D02*
D03*
Y816996D02*
D03*
Y805996D02*
D03*
Y794996D02*
D03*
Y764796D02*
D03*
Y753796D02*
D03*
Y742796D02*
D03*
Y731796D02*
D03*
Y720796D02*
D03*
Y709796D02*
D03*
Y698796D02*
D03*
X1091466Y1058796D02*
D03*
Y1069796D02*
D03*
Y1080796D02*
D03*
Y1091796D02*
D03*
Y1102796D02*
D03*
Y1113796D02*
D03*
Y1124796D02*
D03*
Y1154996D02*
D03*
Y1165996D02*
D03*
Y1176996D02*
D03*
Y1187996D02*
D03*
Y1198996D02*
D03*
X982066D02*
D03*
Y1187996D02*
D03*
Y1176996D02*
D03*
Y1165996D02*
D03*
Y1154996D02*
D03*
Y1124796D02*
D03*
Y1113796D02*
D03*
Y1102796D02*
D03*
Y1091796D02*
D03*
Y1080796D02*
D03*
Y1069796D02*
D03*
Y1058796D02*
D03*
X698866Y698796D02*
D03*
Y709796D02*
D03*
Y720796D02*
D03*
Y731796D02*
D03*
Y742796D02*
D03*
Y753796D02*
D03*
Y764796D02*
D03*
Y794996D02*
D03*
Y805996D02*
D03*
Y816996D02*
D03*
Y827996D02*
D03*
Y838996D02*
D03*
X808266D02*
D03*
Y827996D02*
D03*
Y816996D02*
D03*
Y805996D02*
D03*
Y794996D02*
D03*
Y764796D02*
D03*
Y753796D02*
D03*
Y742796D02*
D03*
Y731796D02*
D03*
Y720796D02*
D03*
Y709796D02*
D03*
Y698796D02*
D03*
X1091466Y878796D02*
D03*
Y889796D02*
D03*
Y900796D02*
D03*
Y911796D02*
D03*
Y922796D02*
D03*
Y933796D02*
D03*
Y944796D02*
D03*
Y974996D02*
D03*
Y985996D02*
D03*
Y996996D02*
D03*
Y1007996D02*
D03*
Y1018996D02*
D03*
X982066D02*
D03*
Y1007996D02*
D03*
Y996996D02*
D03*
Y985996D02*
D03*
Y974996D02*
D03*
Y944796D02*
D03*
Y933796D02*
D03*
Y922796D02*
D03*
Y911796D02*
D03*
Y900796D02*
D03*
Y889796D02*
D03*
Y878796D02*
D03*
X698866D02*
D03*
Y889796D02*
D03*
Y900796D02*
D03*
Y911796D02*
D03*
Y922796D02*
D03*
Y933796D02*
D03*
Y944796D02*
D03*
Y974996D02*
D03*
Y985996D02*
D03*
Y996996D02*
D03*
Y1007996D02*
D03*
Y1018996D02*
D03*
X808266D02*
D03*
Y1007996D02*
D03*
Y996996D02*
D03*
Y985996D02*
D03*
Y974996D02*
D03*
Y944796D02*
D03*
Y933796D02*
D03*
Y922796D02*
D03*
Y911796D02*
D03*
Y900796D02*
D03*
Y889796D02*
D03*
Y878796D02*
D03*
X949866Y1238796D02*
D03*
Y1249796D02*
D03*
Y1260796D02*
D03*
Y1271796D02*
D03*
Y1282796D02*
D03*
Y1293796D02*
D03*
Y1304796D02*
D03*
Y1334996D02*
D03*
Y1345996D02*
D03*
Y1356996D02*
D03*
Y1367996D02*
D03*
Y1378996D02*
D03*
X840466D02*
D03*
Y1367996D02*
D03*
Y1356996D02*
D03*
Y1345996D02*
D03*
Y1334996D02*
D03*
Y1304796D02*
D03*
Y1293796D02*
D03*
Y1282796D02*
D03*
Y1271796D02*
D03*
Y1260796D02*
D03*
Y1249796D02*
D03*
Y1238796D02*
D03*
X698866Y1058796D02*
D03*
Y1069796D02*
D03*
Y1080796D02*
D03*
Y1091796D02*
D03*
Y1102796D02*
D03*
Y1113796D02*
D03*
Y1124796D02*
D03*
Y1154996D02*
D03*
Y1165996D02*
D03*
Y1176996D02*
D03*
Y1187996D02*
D03*
Y1198996D02*
D03*
X808266D02*
D03*
Y1187996D02*
D03*
Y1176996D02*
D03*
Y1165996D02*
D03*
Y1154996D02*
D03*
Y1124796D02*
D03*
Y1113796D02*
D03*
Y1102796D02*
D03*
Y1091796D02*
D03*
Y1080796D02*
D03*
Y1069796D02*
D03*
Y1058796D02*
D03*
X949866D02*
D03*
Y1069796D02*
D03*
Y1080796D02*
D03*
Y1091796D02*
D03*
Y1102796D02*
D03*
Y1113796D02*
D03*
Y1124796D02*
D03*
Y1154996D02*
D03*
Y1165996D02*
D03*
Y1176996D02*
D03*
Y1187996D02*
D03*
Y1198996D02*
D03*
X840466D02*
D03*
Y1187996D02*
D03*
Y1176996D02*
D03*
Y1165996D02*
D03*
Y1154996D02*
D03*
Y1124796D02*
D03*
Y1113796D02*
D03*
Y1102796D02*
D03*
Y1091796D02*
D03*
Y1080796D02*
D03*
Y1069796D02*
D03*
Y1058796D02*
D03*
X698866Y1238796D02*
D03*
Y1249796D02*
D03*
Y1260796D02*
D03*
Y1271796D02*
D03*
Y1282796D02*
D03*
Y1293796D02*
D03*
Y1304796D02*
D03*
Y1334996D02*
D03*
Y1345996D02*
D03*
Y1356996D02*
D03*
Y1367996D02*
D03*
Y1378996D02*
D03*
X808266D02*
D03*
Y1367996D02*
D03*
Y1356996D02*
D03*
Y1345996D02*
D03*
Y1334996D02*
D03*
Y1304796D02*
D03*
Y1293796D02*
D03*
Y1282796D02*
D03*
Y1271796D02*
D03*
Y1260796D02*
D03*
Y1249796D02*
D03*
Y1238796D02*
D03*
X1091466Y698796D02*
D03*
Y709796D02*
D03*
Y720796D02*
D03*
Y731796D02*
D03*
Y742796D02*
D03*
Y753796D02*
D03*
Y764796D02*
D03*
Y794996D02*
D03*
Y805996D02*
D03*
Y816996D02*
D03*
Y827996D02*
D03*
Y838996D02*
D03*
X982066D02*
D03*
Y827996D02*
D03*
Y816996D02*
D03*
Y805996D02*
D03*
Y794996D02*
D03*
Y764796D02*
D03*
Y753796D02*
D03*
Y742796D02*
D03*
Y731796D02*
D03*
Y720796D02*
D03*
Y709796D02*
D03*
Y698796D02*
D03*
X415666Y878796D02*
D03*
Y889796D02*
D03*
Y900796D02*
D03*
Y911796D02*
D03*
Y922796D02*
D03*
Y933796D02*
D03*
Y944796D02*
D03*
Y974996D02*
D03*
Y985996D02*
D03*
Y996996D02*
D03*
Y1007996D02*
D03*
Y1018996D02*
D03*
X525066D02*
D03*
Y1007996D02*
D03*
Y996996D02*
D03*
Y985996D02*
D03*
Y974996D02*
D03*
Y944796D02*
D03*
Y933796D02*
D03*
Y922796D02*
D03*
Y911796D02*
D03*
Y900796D02*
D03*
Y889796D02*
D03*
Y878796D02*
D03*
X666666Y1238796D02*
D03*
Y1249796D02*
D03*
Y1260796D02*
D03*
Y1271796D02*
D03*
Y1282796D02*
D03*
Y1293796D02*
D03*
Y1304796D02*
D03*
Y1334996D02*
D03*
Y1345996D02*
D03*
Y1356996D02*
D03*
Y1367996D02*
D03*
Y1378996D02*
D03*
X557266D02*
D03*
Y1367996D02*
D03*
Y1356996D02*
D03*
Y1345996D02*
D03*
Y1334996D02*
D03*
Y1304796D02*
D03*
Y1293796D02*
D03*
Y1282796D02*
D03*
Y1271796D02*
D03*
Y1260796D02*
D03*
Y1249796D02*
D03*
Y1238796D02*
D03*
X415666Y698796D02*
D03*
Y709796D02*
D03*
Y720796D02*
D03*
Y731796D02*
D03*
Y742796D02*
D03*
Y753796D02*
D03*
Y764796D02*
D03*
Y794996D02*
D03*
Y805996D02*
D03*
Y816996D02*
D03*
Y827996D02*
D03*
Y838996D02*
D03*
X525066D02*
D03*
Y827996D02*
D03*
Y816996D02*
D03*
Y805996D02*
D03*
Y794996D02*
D03*
Y764796D02*
D03*
Y753796D02*
D03*
Y742796D02*
D03*
Y731796D02*
D03*
Y720796D02*
D03*
Y709796D02*
D03*
Y698796D02*
D03*
X666666Y1058796D02*
D03*
Y1069796D02*
D03*
Y1080796D02*
D03*
Y1091796D02*
D03*
Y1102796D02*
D03*
Y1113796D02*
D03*
Y1124796D02*
D03*
Y1154996D02*
D03*
Y1165996D02*
D03*
Y1176996D02*
D03*
Y1187996D02*
D03*
Y1198996D02*
D03*
X557266D02*
D03*
Y1187996D02*
D03*
Y1176996D02*
D03*
Y1165996D02*
D03*
Y1154996D02*
D03*
Y1124796D02*
D03*
Y1113796D02*
D03*
Y1102796D02*
D03*
Y1091796D02*
D03*
Y1080796D02*
D03*
Y1069796D02*
D03*
Y1058796D02*
D03*
X274066Y1238796D02*
D03*
Y1249796D02*
D03*
Y1260796D02*
D03*
Y1271796D02*
D03*
Y1282796D02*
D03*
Y1293796D02*
D03*
Y1304796D02*
D03*
Y1334996D02*
D03*
Y1345996D02*
D03*
Y1356996D02*
D03*
Y1367996D02*
D03*
Y1378996D02*
D03*
X383466D02*
D03*
Y1367996D02*
D03*
Y1356996D02*
D03*
Y1345996D02*
D03*
Y1334996D02*
D03*
Y1304796D02*
D03*
Y1293796D02*
D03*
Y1282796D02*
D03*
Y1271796D02*
D03*
Y1260796D02*
D03*
Y1249796D02*
D03*
Y1238796D02*
D03*
X666666Y698796D02*
D03*
Y709796D02*
D03*
Y720796D02*
D03*
Y731796D02*
D03*
Y742796D02*
D03*
Y753796D02*
D03*
Y764796D02*
D03*
Y794996D02*
D03*
Y805996D02*
D03*
Y816996D02*
D03*
Y827996D02*
D03*
Y838996D02*
D03*
X557266D02*
D03*
Y827996D02*
D03*
Y816996D02*
D03*
Y805996D02*
D03*
Y794996D02*
D03*
Y764796D02*
D03*
Y753796D02*
D03*
Y742796D02*
D03*
Y731796D02*
D03*
Y720796D02*
D03*
Y709796D02*
D03*
Y698796D02*
D03*
X274066Y1058796D02*
D03*
Y1069796D02*
D03*
Y1080796D02*
D03*
Y1091796D02*
D03*
Y1102796D02*
D03*
Y1113796D02*
D03*
Y1124796D02*
D03*
Y1154996D02*
D03*
Y1165996D02*
D03*
Y1176996D02*
D03*
Y1187996D02*
D03*
Y1198996D02*
D03*
X383466D02*
D03*
Y1187996D02*
D03*
Y1176996D02*
D03*
Y1165996D02*
D03*
Y1154996D02*
D03*
Y1124796D02*
D03*
Y1113796D02*
D03*
Y1102796D02*
D03*
Y1091796D02*
D03*
Y1080796D02*
D03*
Y1069796D02*
D03*
Y1058796D02*
D03*
X525066Y1238796D02*
D03*
Y1249796D02*
D03*
Y1260796D02*
D03*
Y1271796D02*
D03*
Y1282796D02*
D03*
Y1293796D02*
D03*
Y1304796D02*
D03*
Y1334996D02*
D03*
Y1345996D02*
D03*
Y1356996D02*
D03*
Y1367996D02*
D03*
Y1378996D02*
D03*
X415666D02*
D03*
Y1367996D02*
D03*
Y1356996D02*
D03*
Y1345996D02*
D03*
Y1334996D02*
D03*
Y1304796D02*
D03*
Y1293796D02*
D03*
Y1282796D02*
D03*
Y1271796D02*
D03*
Y1260796D02*
D03*
Y1249796D02*
D03*
Y1238796D02*
D03*
X274066Y878796D02*
D03*
Y889796D02*
D03*
Y900796D02*
D03*
Y911796D02*
D03*
Y922796D02*
D03*
Y933796D02*
D03*
Y944796D02*
D03*
Y974996D02*
D03*
Y985996D02*
D03*
Y996996D02*
D03*
Y1007996D02*
D03*
Y1018996D02*
D03*
X383466D02*
D03*
Y1007996D02*
D03*
Y996996D02*
D03*
Y985996D02*
D03*
Y974996D02*
D03*
Y944796D02*
D03*
Y933796D02*
D03*
Y922796D02*
D03*
Y911796D02*
D03*
Y900796D02*
D03*
Y889796D02*
D03*
Y878796D02*
D03*
X525066Y1058796D02*
D03*
Y1069796D02*
D03*
Y1080796D02*
D03*
Y1091796D02*
D03*
Y1102796D02*
D03*
Y1113796D02*
D03*
Y1124796D02*
D03*
Y1154996D02*
D03*
Y1165996D02*
D03*
Y1176996D02*
D03*
Y1187996D02*
D03*
Y1198996D02*
D03*
X415666D02*
D03*
Y1187996D02*
D03*
Y1176996D02*
D03*
Y1165996D02*
D03*
Y1154996D02*
D03*
Y1124796D02*
D03*
Y1113796D02*
D03*
Y1102796D02*
D03*
Y1091796D02*
D03*
Y1080796D02*
D03*
Y1069796D02*
D03*
Y1058796D02*
D03*
X274066Y698796D02*
D03*
Y709796D02*
D03*
Y720796D02*
D03*
Y731796D02*
D03*
Y742796D02*
D03*
Y753796D02*
D03*
Y764796D02*
D03*
Y794996D02*
D03*
Y805996D02*
D03*
Y816996D02*
D03*
Y827996D02*
D03*
Y838996D02*
D03*
X383466D02*
D03*
Y827996D02*
D03*
Y816996D02*
D03*
Y805996D02*
D03*
Y794996D02*
D03*
Y764796D02*
D03*
Y753796D02*
D03*
Y742796D02*
D03*
Y731796D02*
D03*
Y720796D02*
D03*
Y709796D02*
D03*
Y698796D02*
D03*
M02*
