%FSLAX25Y25*%
%MOIN*%
G70*
G01*
G75*
G04 Layer_Physical_Order=3*
G04 Layer_Color=16440176*
%ADD10C,0.01500*%
%ADD11C,0.02000*%
%ADD12R,0.02362X0.02362*%
%ADD13R,0.05000X0.07874*%
%ADD14R,0.05000X0.05000*%
%ADD15R,0.04800X0.05600*%
%ADD16R,0.02362X0.02362*%
%ADD17R,0.02756X0.03347*%
%ADD18O,0.06299X0.01181*%
%ADD19O,0.01181X0.06299*%
%ADD20R,0.06299X0.01181*%
%ADD21C,0.03937*%
G04:AMPARAMS|DCode=22|XSize=41.34mil|YSize=86.61mil|CornerRadius=6.2mil|HoleSize=0mil|Usage=FLASHONLY|Rotation=0.000|XOffset=0mil|YOffset=0mil|HoleType=Round|Shape=RoundedRectangle|*
%AMROUNDEDRECTD22*
21,1,0.04134,0.07421,0,0,0.0*
21,1,0.02894,0.08661,0,0,0.0*
1,1,0.01240,0.01447,-0.03711*
1,1,0.01240,-0.01447,-0.03711*
1,1,0.01240,-0.01447,0.03711*
1,1,0.01240,0.01447,0.03711*
%
%ADD22ROUNDEDRECTD22*%
G04:AMPARAMS|DCode=23|XSize=39.37mil|YSize=41.34mil|CornerRadius=5.91mil|HoleSize=0mil|Usage=FLASHONLY|Rotation=0.000|XOffset=0mil|YOffset=0mil|HoleType=Round|Shape=RoundedRectangle|*
%AMROUNDEDRECTD23*
21,1,0.03937,0.02953,0,0,0.0*
21,1,0.02756,0.04134,0,0,0.0*
1,1,0.01181,0.01378,-0.01476*
1,1,0.01181,-0.01378,-0.01476*
1,1,0.01181,-0.01378,0.01476*
1,1,0.01181,0.01378,0.01476*
%
%ADD23ROUNDEDRECTD23*%
%ADD24R,0.00984X0.01083*%
%ADD25R,0.01083X0.00984*%
%ADD26R,0.03347X0.02756*%
%ADD27R,0.01890X0.01181*%
%ADD28R,0.01181X0.01890*%
%ADD29R,0.00984X0.01083*%
%ADD30R,0.01083X0.00984*%
%ADD31R,0.00787X0.01378*%
%ADD32R,0.01181X0.01378*%
%ADD33R,0.00984X0.01378*%
%ADD34R,0.01181X0.01181*%
%ADD35R,0.03937X0.02362*%
%ADD36R,0.03937X0.03150*%
%ADD37R,0.03150X0.03937*%
%ADD38R,0.09843X0.11811*%
%ADD39O,0.07087X0.02362*%
%ADD40O,0.02362X0.07087*%
%ADD41C,0.00800*%
%ADD42C,0.01000*%
%ADD43C,0.00500*%
%ADD44C,0.00600*%
%ADD45R,0.12000X0.09600*%
%ADD46C,0.02000*%
%ADD47C,0.04000*%
%ADD48C,0.03000*%
%ADD49C,0.05000*%
%ADD50C,0.04000*%
%ADD51C,0.03000*%
G36*
X66040Y86355D02*
X66145Y85825D01*
X66698Y84998D01*
X67524Y84445D01*
X68500Y84251D01*
X69476Y84445D01*
X70302Y84998D01*
Y84998D01*
X70598Y85098D01*
X71425Y84545D01*
X72400Y84351D01*
X73375Y84545D01*
X74202Y85098D01*
X74567Y85643D01*
X75067Y85643D01*
X75098Y85598D01*
X75924Y85045D01*
X76900Y84851D01*
X77876Y85045D01*
X78537Y85487D01*
X78978Y85251D01*
Y81128D01*
X61067Y63217D01*
X60625Y62555D01*
X60470Y61775D01*
Y46494D01*
X60470Y46494D01*
X60470D01*
X60625Y45714D01*
X61067Y45052D01*
X67561Y38559D01*
X67421Y38097D01*
X66594Y37545D01*
X66041Y36718D01*
X65847Y35742D01*
X66041Y34767D01*
X66594Y33940D01*
X67421Y33387D01*
X68396Y33193D01*
X69372Y33387D01*
X70199Y33940D01*
X70751Y34767D01*
X71213Y34907D01*
X83623Y22497D01*
X84284Y22055D01*
X85065Y21899D01*
X85895D01*
X86368Y21584D01*
X86988Y21460D01*
X87024Y21276D01*
X87577Y20449D01*
X88404Y19897D01*
X89379Y19703D01*
X90355Y19897D01*
X91182Y20449D01*
X91734Y21276D01*
X91928Y22252D01*
X91734Y23227D01*
X91182Y24054D01*
X90355Y24607D01*
X89735Y24730D01*
X89698Y24914D01*
X89146Y25741D01*
X88319Y26294D01*
X87343Y26488D01*
X86368Y26294D01*
X85904Y25983D01*
X74628Y37259D01*
X74677Y37757D01*
X74715Y37782D01*
X75267Y38609D01*
X75461Y39585D01*
X75267Y40560D01*
X74931Y41064D01*
X75317Y41381D01*
X93993Y22705D01*
X94967Y21731D01*
Y10407D01*
X92760Y8200D01*
X92298Y8391D01*
Y10231D01*
D01*
Y10231D01*
X92259Y10425D01*
X92104Y11206D01*
X91920Y11481D01*
X91551Y12033D01*
X86345Y17239D01*
X85518Y17792D01*
X84543Y17986D01*
X73896D01*
X69239Y22643D01*
X68412Y23196D01*
X67436Y23390D01*
X63059D01*
X62966Y23461D01*
X62236Y23763D01*
X61453Y23866D01*
X60669Y23763D01*
X60417Y23659D01*
X60140Y24075D01*
X64368Y28303D01*
X68515D01*
X69169Y27650D01*
X69279Y27092D01*
X69832Y26265D01*
X70659Y25713D01*
X71634Y25519D01*
X72610Y25713D01*
X73437Y26265D01*
X73989Y27092D01*
X74183Y28068D01*
X73989Y29043D01*
X73437Y29870D01*
X72610Y30423D01*
X72052Y30533D01*
X70802Y31784D01*
X70802Y31784D01*
X70405Y32049D01*
X70140Y32226D01*
X69360Y32381D01*
X63523D01*
X63523Y32381D01*
X62743Y32226D01*
X62081Y31784D01*
X62081Y31784D01*
X56493Y26196D01*
X56051Y25534D01*
X55896Y24754D01*
Y21927D01*
Y7836D01*
X55896Y7836D01*
X55896D01*
X56051Y7056D01*
X56493Y6394D01*
X59458Y3429D01*
X59569Y2872D01*
X59738Y2619D01*
X59502Y2178D01*
X12187D01*
X11930Y2607D01*
X12281Y3264D01*
X12674Y4559D01*
X12807Y5906D01*
X12674Y7252D01*
X12281Y8546D01*
X11644Y9740D01*
X10785Y10785D01*
X9740Y11644D01*
X8546Y12281D01*
X7252Y12674D01*
X5906Y12807D01*
X4559Y12674D01*
X3264Y12281D01*
X2607Y11930D01*
X2178Y12187D01*
Y38864D01*
X2640Y39055D01*
X3982Y37713D01*
X4578Y37315D01*
X4694Y37292D01*
X5280Y37175D01*
X6277D01*
X6469Y36713D01*
X4603Y34848D01*
X4051Y34021D01*
X3856Y33046D01*
Y31366D01*
X3785Y31273D01*
X3483Y30543D01*
X3380Y29760D01*
X3483Y28977D01*
X3785Y28247D01*
X4266Y27620D01*
X4893Y27139D01*
X5622Y26837D01*
X6337Y26743D01*
X6510Y25876D01*
X7062Y25049D01*
X7889Y24497D01*
X8865Y24303D01*
X9840Y24497D01*
X10667Y25049D01*
X11220Y25876D01*
X11414Y26851D01*
X11220Y27827D01*
X11186Y27877D01*
X11503Y28263D01*
X12158Y27992D01*
X12941Y27889D01*
X13724Y27992D01*
X14454Y28295D01*
X15081Y28775D01*
X15562Y29402D01*
X15864Y30132D01*
X15967Y30915D01*
X15864Y31698D01*
X15562Y32428D01*
X15605Y32515D01*
X19219D01*
X19284Y32023D01*
X18554Y31721D01*
X17927Y31240D01*
X17446Y30613D01*
X17144Y29883D01*
X17041Y29100D01*
X17144Y28317D01*
X17446Y27587D01*
X17927Y26960D01*
X18554Y26480D01*
X19284Y26177D01*
X19585Y26138D01*
X19890Y25741D01*
X19804Y25089D01*
X19924Y24175D01*
X20277Y23324D01*
X20838Y22593D01*
X26026Y17405D01*
X26757Y16844D01*
X27608Y16491D01*
X28522Y16371D01*
X47430D01*
X48344Y16491D01*
X49195Y16844D01*
X49926Y17405D01*
X50487Y18136D01*
X50840Y18987D01*
X50960Y19901D01*
Y23158D01*
X55804Y28002D01*
X56365Y28733D01*
X56718Y29584D01*
X56838Y30498D01*
Y66772D01*
X56738Y67533D01*
Y72529D01*
X56618Y73443D01*
X56265Y74294D01*
X55704Y75025D01*
X50605Y80125D01*
Y82340D01*
X50618Y82351D01*
X51593Y82545D01*
X52420Y83097D01*
X52973Y83924D01*
X53167Y84900D01*
X53070Y85387D01*
X53495Y85650D01*
X53587Y85580D01*
X54317Y85277D01*
X55100Y85174D01*
X55883Y85277D01*
X56613Y85580D01*
X57240Y86060D01*
X57259Y86085D01*
X57787Y85680D01*
X58517Y85377D01*
X59300Y85274D01*
X60083Y85377D01*
X60813Y85680D01*
X61135Y85927D01*
X61587Y85580D01*
X62317Y85277D01*
X63100Y85174D01*
X63883Y85277D01*
X64613Y85580D01*
X65240Y86060D01*
X65553Y86468D01*
X66040Y86355D01*
D02*
G37*
G36*
X41070Y100145D02*
Y99296D01*
X40586Y99200D01*
X40033Y100027D01*
X39206Y100579D01*
X38230Y100773D01*
X37255Y100579D01*
X36428Y100027D01*
X35957Y99322D01*
X35457D01*
X35440Y99347D01*
X34613Y99900D01*
X33637Y100094D01*
X32662Y99900D01*
X31835Y99347D01*
X31282Y98520D01*
X31088Y97545D01*
X31282Y96570D01*
X31835Y95743D01*
X32662Y95190D01*
X33637Y94996D01*
X34613Y95190D01*
X35440Y95743D01*
X35911Y96448D01*
X36411D01*
X36428Y96422D01*
X37255Y95869D01*
X38230Y95675D01*
X39206Y95869D01*
X40033Y96422D01*
X40586Y97249D01*
X41070Y97153D01*
Y89574D01*
X41190Y88661D01*
X41543Y87809D01*
X42104Y87078D01*
X42753Y86429D01*
X42562Y85967D01*
X26822D01*
X26039Y85864D01*
X25309Y85561D01*
X24682Y85080D01*
X16186Y76584D01*
X15705Y75957D01*
X15617Y75744D01*
X15403Y75227D01*
X15300Y74444D01*
Y69915D01*
X4501Y59116D01*
X4039Y59308D01*
Y70825D01*
X4936Y71722D01*
D01*
D01*
X4936Y71722D01*
X11662Y78448D01*
X12060Y79043D01*
X12083Y79160D01*
X12200Y79746D01*
Y82395D01*
X12719Y83173D01*
X12913Y84148D01*
X12719Y85124D01*
X12428Y85560D01*
X13038Y86028D01*
X13599Y86760D01*
X13951Y87611D01*
X14072Y88525D01*
Y90704D01*
X25950Y102582D01*
X38633D01*
X41070Y100145D01*
D02*
G37*
G36*
X43544Y79598D02*
Y78662D01*
X43665Y77749D01*
X44017Y76897D01*
X44578Y76166D01*
X49678Y71067D01*
Y66872D01*
X49678Y66872D01*
X49678D01*
X49778Y66111D01*
X49778Y66111D01*
X49778D01*
Y62112D01*
X49316Y61921D01*
X46674Y64562D01*
X46095Y64949D01*
X45447Y65078D01*
X45430Y65103D01*
X44604Y65656D01*
X44578Y65739D01*
X45548Y66708D01*
X45664Y66724D01*
X46394Y67026D01*
X47021Y67507D01*
X47502Y68133D01*
X47804Y68863D01*
X47907Y69646D01*
X47804Y70429D01*
X47502Y71159D01*
X47021Y71786D01*
X46394Y72267D01*
X45664Y72569D01*
X44881Y72672D01*
X44098Y72569D01*
X43368Y72267D01*
X42742Y71786D01*
X42261Y71159D01*
X41958Y70429D01*
X41943Y70313D01*
X39080Y67450D01*
X36350Y64720D01*
X35797Y63893D01*
X35603Y62917D01*
Y53867D01*
X35217Y53550D01*
X34667Y53659D01*
X33691Y53465D01*
X32864Y52913D01*
X32404D01*
X32313Y53049D01*
X31486Y53601D01*
X30511Y53795D01*
X29535Y53601D01*
X28708Y53049D01*
D01*
X28351Y53228D01*
X27790Y53960D01*
X27059Y54521D01*
X26208Y54873D01*
X25294Y54994D01*
X24380Y54873D01*
X23529Y54521D01*
X22798Y53960D01*
X22237Y53228D01*
X21884Y52377D01*
X21764Y51463D01*
X21884Y50550D01*
X22237Y49698D01*
X22798Y48967D01*
X23529Y48406D01*
X24380Y48054D01*
X25294Y47933D01*
X26208Y48054D01*
X27059Y48406D01*
X27790Y48967D01*
X28190Y49488D01*
X28690Y49472D01*
X28708Y49444D01*
X29535Y48892D01*
X30511Y48698D01*
X31486Y48892D01*
X32313Y49444D01*
X32773D01*
X32864Y49308D01*
X33691Y48755D01*
X34667Y48561D01*
X35217Y48671D01*
X35603Y48354D01*
Y40818D01*
X32398Y37613D01*
X12983D01*
X12791Y38075D01*
X16064Y41348D01*
X16982Y41530D01*
X17809Y42083D01*
X18361Y42910D01*
X18555Y43885D01*
X18361Y44861D01*
X17809Y45688D01*
X16982Y46240D01*
X16006Y46434D01*
X15031Y46240D01*
X14204Y45688D01*
X13651Y44861D01*
X13469Y43943D01*
X10372Y40846D01*
X6040D01*
X2912Y43974D01*
Y45519D01*
X3131Y45698D01*
X4106Y45893D01*
X4933Y46445D01*
X5486Y47272D01*
X5680Y48248D01*
X5486Y49223D01*
X4933Y50050D01*
X4106Y50603D01*
X4039Y50616D01*
Y52711D01*
X4455Y52988D01*
X4693Y52890D01*
X5476Y52787D01*
X6260Y52890D01*
X6989Y53192D01*
X7616Y53673D01*
X20465Y66522D01*
X20946Y67149D01*
X21249Y67879D01*
X21352Y68662D01*
X21352Y68662D01*
Y73191D01*
X28076Y79915D01*
X43075D01*
X43168Y79927D01*
X43544Y79598D01*
D02*
G37*
G36*
X71038Y13634D02*
X71576Y13274D01*
X71479Y12784D01*
X70681Y12625D01*
X69854Y12073D01*
X69301Y11246D01*
X69107Y10270D01*
X69301Y9295D01*
X69854Y8468D01*
X70681Y7915D01*
X71656Y7721D01*
X72632Y7915D01*
X73458Y8468D01*
X74011Y9295D01*
X74205Y10270D01*
X74011Y11246D01*
X73458Y12073D01*
X72955Y12409D01*
X73100Y12888D01*
X83487D01*
X85626Y10749D01*
X85577Y10251D01*
X84831Y9753D01*
X84437Y9164D01*
X83947Y9262D01*
X83854Y9731D01*
X83301Y10558D01*
X82474Y11111D01*
X81499Y11305D01*
X80523Y11111D01*
X79984Y10751D01*
X79355Y11171D01*
X78379Y11365D01*
X77404Y11171D01*
X76577Y10619D01*
X76025Y9792D01*
X75831Y8816D01*
X76025Y7841D01*
X76577Y7014D01*
X77404Y6461D01*
X78379Y6267D01*
X79355Y6461D01*
X79894Y6821D01*
X80523Y6401D01*
X81499Y6207D01*
X82474Y6401D01*
X83301Y6954D01*
X83695Y7543D01*
X84185Y7445D01*
X84279Y6975D01*
X84831Y6148D01*
X85658Y5596D01*
X86633Y5402D01*
X86813Y5438D01*
X87200Y5120D01*
Y4479D01*
X87200Y4479D01*
X87200D01*
X87394Y3504D01*
X87946Y2677D01*
X87983Y2640D01*
X87792Y2178D01*
X64345D01*
X64110Y2619D01*
X64279Y2872D01*
X64473Y3847D01*
X64279Y4823D01*
X63726Y5650D01*
X62899Y6202D01*
X62342Y6313D01*
X59974Y8681D01*
Y17756D01*
X60390Y18034D01*
X60669Y17918D01*
X61453Y17815D01*
X62236Y17918D01*
X62966Y18220D01*
X63059Y18292D01*
X66380D01*
X71038Y13634D01*
D02*
G37*
G36*
X82936Y78523D02*
Y59815D01*
Y57409D01*
X82936Y57409D01*
X82936D01*
X83091Y56628D01*
X83533Y55967D01*
X84691Y54809D01*
X84802Y54251D01*
X85354Y53424D01*
X86181Y52872D01*
X86414Y52825D01*
X86606Y52364D01*
X86200Y51756D01*
X86114Y51325D01*
X85729Y50748D01*
X85535Y49773D01*
X85664Y49124D01*
X85248Y48846D01*
X84494Y49350D01*
X83519Y49544D01*
X82543Y49350D01*
X81716Y48798D01*
X81164Y47971D01*
X80970Y46995D01*
X81164Y46020D01*
X81363Y45722D01*
X81136Y45382D01*
X80942Y44406D01*
X81132Y43453D01*
X80691Y43217D01*
X72612Y51295D01*
X72176Y51731D01*
Y51995D01*
X71982Y52970D01*
X71430Y53798D01*
X70603Y54350D01*
X69627Y54544D01*
X68652Y54350D01*
X67825Y53798D01*
X67272Y52970D01*
X67078Y51995D01*
Y50676D01*
X67272Y49700D01*
X66730Y49338D01*
X66209Y49441D01*
X65233Y49247D01*
X64989Y49084D01*
X64548Y49320D01*
Y60930D01*
X82459Y78841D01*
X82936Y78523D01*
D02*
G37*
G36*
X157361Y166684D02*
X157010Y166027D01*
X156617Y164732D01*
X156484Y163386D01*
X156617Y162039D01*
X157010Y160745D01*
X157648Y159552D01*
X158506Y158506D01*
X159552Y157648D01*
X160745Y157010D01*
X162039Y156617D01*
X163386Y156484D01*
X164732Y156617D01*
X166027Y157010D01*
X166684Y157361D01*
X167113Y157104D01*
Y12187D01*
X166684Y11930D01*
X166027Y12281D01*
X164732Y12674D01*
X163386Y12807D01*
X162039Y12674D01*
X160745Y12281D01*
X159552Y11644D01*
X158506Y10785D01*
X157648Y9740D01*
X157010Y8546D01*
X156617Y7252D01*
X156484Y5906D01*
X156617Y4559D01*
X157010Y3264D01*
X157361Y2607D01*
X157104Y2178D01*
X94601D01*
X94409Y2640D01*
X99318Y7549D01*
X99871Y8376D01*
X100065Y9352D01*
Y17535D01*
X100506Y17770D01*
X100953Y17472D01*
X101928Y17278D01*
X102904Y17472D01*
X103730Y18024D01*
X104283Y18851D01*
X104477Y19827D01*
X104397Y20228D01*
X104838Y20463D01*
X108081Y17220D01*
X112505Y12797D01*
X113100Y12399D01*
X113100Y12399D01*
X113100Y12399D01*
D01*
X113100Y12399D01*
X113100Y12399D01*
X113802Y12260D01*
X129932D01*
X135978Y6214D01*
X136161Y5296D01*
X136713Y4469D01*
X137540Y3917D01*
X138516Y3723D01*
X139491Y3917D01*
X140318Y4469D01*
X140871Y5296D01*
X141054Y6216D01*
X141201Y6260D01*
X141630Y6003D01*
X141747Y5410D01*
X142300Y4583D01*
X143127Y4031D01*
X144102Y3837D01*
X145078Y4031D01*
X145905Y4583D01*
X146457Y5410D01*
X146651Y6386D01*
X146457Y7361D01*
X145905Y8188D01*
X145078Y8741D01*
X144160Y8923D01*
X137994Y15089D01*
X138230Y15530D01*
X138988Y15380D01*
X139963Y15574D01*
X140790Y16126D01*
X141343Y16953D01*
X141454Y17511D01*
X148843Y24900D01*
X149285Y25561D01*
X149440Y26342D01*
X149440Y26342D01*
X149440Y26342D01*
Y26342D01*
Y69575D01*
X149756Y70047D01*
X149950Y71023D01*
X149756Y71998D01*
X149203Y72825D01*
X148376Y73378D01*
X147401Y73572D01*
X146425Y73378D01*
X145598Y72825D01*
X145046Y71998D01*
X144852Y71023D01*
X145046Y70047D01*
X145361Y69575D01*
Y27186D01*
X138570Y20395D01*
X138012Y20284D01*
X137185Y19731D01*
X136633Y18904D01*
X136439Y17929D01*
X136590Y17171D01*
X136149Y16935D01*
X135957Y17127D01*
X135361Y17525D01*
X135245Y17548D01*
X134659Y17664D01*
X115445D01*
X88731Y44379D01*
X88967Y44820D01*
X89754Y44663D01*
X90730Y44857D01*
X91557Y45410D01*
X92109Y46237D01*
X92303Y47212D01*
X92109Y48187D01*
X91557Y49014D01*
X90730Y49567D01*
X90730Y49567D01*
X90730D01*
X90623Y49726D01*
X90633Y49773D01*
X90489Y50497D01*
X99531Y59539D01*
X99973Y60201D01*
X100128Y60981D01*
X100128Y60981D01*
X100128Y60981D01*
Y60981D01*
Y61945D01*
X103903Y65719D01*
X104400Y65670D01*
X104413Y65651D01*
X105240Y65099D01*
X106215Y64904D01*
X107191Y65099D01*
X108018Y65651D01*
X108217Y65949D01*
X108545Y66015D01*
X108761D01*
X109288Y65226D01*
X110115Y64673D01*
X111090Y64479D01*
X112066Y64673D01*
X112893Y65226D01*
X113445Y66053D01*
X113639Y67028D01*
X113445Y68003D01*
X113129Y68476D01*
Y68760D01*
X113592Y68951D01*
X114923Y67619D01*
Y53536D01*
X112692Y51305D01*
X112140Y50479D01*
X111946Y49503D01*
X112140Y48528D01*
X112692Y47701D01*
X113519Y47148D01*
X114495Y46954D01*
X115470Y47148D01*
X116297Y47701D01*
X116297Y47701D01*
X116297Y47701D01*
X119274Y50678D01*
X119827Y51505D01*
X120021Y52481D01*
X120021Y52481D01*
X120021Y52481D01*
Y52481D01*
Y68675D01*
X119908Y69242D01*
X120250Y69607D01*
X120500Y69574D01*
X121283Y69677D01*
X122013Y69980D01*
X122640Y70460D01*
X123120Y71087D01*
X123423Y71817D01*
X123526Y72600D01*
X123423Y73383D01*
X123120Y74113D01*
X122640Y74740D01*
X122013Y75221D01*
X121283Y75523D01*
X120500Y75626D01*
X119717Y75523D01*
X118987Y75221D01*
X118360Y74740D01*
X117879Y74113D01*
X117577Y73383D01*
X117510Y72874D01*
X117483Y72847D01*
X117053Y72652D01*
X116367Y73111D01*
X115392Y73305D01*
X115392D01*
D01*
X114416Y73111D01*
X113589Y72558D01*
X113129Y72698D01*
Y78895D01*
X125443Y91208D01*
X125885Y91870D01*
X126040Y92650D01*
Y96856D01*
X130932Y101748D01*
X131410Y101603D01*
X131545Y100925D01*
X132098Y100098D01*
X132924Y99545D01*
X133900Y99351D01*
X134876Y99545D01*
X135702Y100098D01*
X136255Y100925D01*
X136449Y101900D01*
X136255Y102875D01*
X135702Y103702D01*
X134876Y104255D01*
X133900Y104449D01*
X133807Y104623D01*
X136757Y107573D01*
X137198Y107337D01*
X137051Y106600D01*
X137245Y105624D01*
X137798Y104798D01*
X138625Y104245D01*
X139600Y104051D01*
X140576Y104245D01*
X141402Y104798D01*
X141955Y105624D01*
X142149Y106600D01*
X141955Y107576D01*
X141402Y108402D01*
X140576Y108955D01*
X139600Y109149D01*
X138630Y108956D01*
X138352Y109372D01*
X138384Y109420D01*
X138539Y110200D01*
X138539Y110200D01*
Y115852D01*
X138855Y116324D01*
X139049Y117300D01*
X138935Y117874D01*
X139252Y118261D01*
X140755D01*
X143728Y115288D01*
X143651Y114900D01*
X143845Y113925D01*
X144398Y113098D01*
X145224Y112545D01*
X146200Y112351D01*
X147176Y112545D01*
X148002Y113098D01*
X148555Y113925D01*
X148749Y114900D01*
X149160Y114982D01*
X149245Y114925D01*
D01*
X149798Y114098D01*
X150625Y113545D01*
X151600Y113351D01*
X152576Y113545D01*
X153402Y114098D01*
X153955Y114925D01*
X154149Y115900D01*
X153955Y116876D01*
X153402Y117702D01*
X152576Y118255D01*
X151600Y118449D01*
X150625Y118255D01*
X149798Y117702D01*
X149245Y116876D01*
X149051Y115900D01*
X148640Y115818D01*
X148555Y115875D01*
D01*
X148002Y116702D01*
X147882Y116783D01*
X147642Y117142D01*
X143042Y121742D01*
X142380Y122184D01*
X141600Y122339D01*
X132000D01*
X131220Y122184D01*
X130558Y121742D01*
X125043Y116227D01*
X124601Y115566D01*
X124446Y114785D01*
Y105967D01*
X108001Y89522D01*
X107539Y89714D01*
Y93191D01*
X107384Y93972D01*
X106942Y94633D01*
X105422Y96153D01*
X105311Y96711D01*
X104758Y97538D01*
X103931Y98090D01*
X102956Y98285D01*
X102534Y98201D01*
X102147Y98518D01*
Y104163D01*
X102245Y104261D01*
X109455D01*
X110134Y103582D01*
X110245Y103024D01*
X110798Y102198D01*
X111625Y101645D01*
X112600Y101451D01*
X113575Y101645D01*
X114402Y102198D01*
X114955Y103024D01*
X115149Y104000D01*
X114955Y104975D01*
X114670Y105403D01*
X114947Y105818D01*
X115131Y105782D01*
X116106Y105976D01*
X116933Y106528D01*
X117486Y107355D01*
X117680Y108331D01*
X117486Y109306D01*
X116933Y110133D01*
X116106Y110686D01*
X115131Y110880D01*
X114155Y110686D01*
X113328Y110133D01*
X112776Y109306D01*
X112582Y108331D01*
X112769Y107392D01*
X112328Y107156D01*
X111742Y107742D01*
X111080Y108184D01*
X110300Y108339D01*
X101400D01*
X100620Y108184D01*
X99958Y107742D01*
X98666Y106450D01*
X98224Y105788D01*
X98069Y105008D01*
Y82588D01*
X97753Y82115D01*
X97559Y81140D01*
X97753Y80164D01*
X98305Y79337D01*
X99133Y78785D01*
X100108Y78591D01*
X101083Y78785D01*
X101910Y79337D01*
X102463Y80164D01*
X102657Y81140D01*
X102463Y82115D01*
X102147Y82588D01*
Y92953D01*
X102279Y93062D01*
X102609Y93199D01*
X103461Y92347D01*
Y75484D01*
X103045Y75207D01*
X102850Y75287D01*
X102067Y75390D01*
X101284Y75287D01*
X100554Y74985D01*
X99928Y74504D01*
X99447Y73877D01*
X99145Y73147D01*
X99041Y72364D01*
X99145Y71581D01*
X99447Y70851D01*
X99928Y70225D01*
X100554Y69744D01*
X101274Y69446D01*
X101372Y68955D01*
X96647Y64231D01*
X96205Y63569D01*
X96050Y62789D01*
Y61826D01*
X92245Y58021D01*
X91767Y58166D01*
X91675Y58627D01*
X91122Y59454D01*
X90295Y60006D01*
X89945Y60076D01*
Y84561D01*
X90255Y85024D01*
X90449Y86000D01*
X90255Y86976D01*
X89702Y87802D01*
X88876Y88355D01*
X87900Y88549D01*
X87400Y88450D01*
X87014Y88767D01*
Y108344D01*
X87014Y108344D01*
X86859Y109124D01*
X86417Y109786D01*
X84183Y112019D01*
X83522Y112461D01*
X82741Y112616D01*
X58477D01*
X57697Y112461D01*
X57035Y112019D01*
X54682Y109666D01*
X54124Y109555D01*
X53298Y109002D01*
X52745Y108176D01*
X52551Y107200D01*
X52745Y106225D01*
X53298Y105398D01*
X54124Y104845D01*
X55100Y104651D01*
X56076Y104845D01*
X56902Y105398D01*
X57455Y106225D01*
X57566Y106782D01*
X59322Y108538D01*
X77289D01*
X77525Y108097D01*
X77080Y107432D01*
X76886Y106456D01*
X77080Y105481D01*
X77632Y104654D01*
X78459Y104101D01*
X78978Y103998D01*
Y89549D01*
X78537Y89313D01*
X77876Y89755D01*
X76900Y89949D01*
X75924Y89755D01*
X75098Y89202D01*
X74733Y88657D01*
X74233Y88657D01*
X74202Y88702D01*
X73375Y89255D01*
X72400Y89449D01*
X71425Y89255D01*
X70598Y88702D01*
Y88702D01*
X70302Y88602D01*
X69476Y89155D01*
X68500Y89349D01*
X67524Y89155D01*
X66698Y88602D01*
X66570Y88411D01*
X66083Y88525D01*
X66023Y88983D01*
X65720Y89713D01*
X65240Y90340D01*
X64613Y90820D01*
X63883Y91123D01*
X63100Y91226D01*
X62317Y91123D01*
X61587Y90820D01*
X61265Y90574D01*
X60813Y90921D01*
X60083Y91223D01*
X59300Y91326D01*
X58517Y91223D01*
X57787Y90921D01*
X57160Y90440D01*
X57141Y90415D01*
X56613Y90820D01*
X55883Y91123D01*
X55100Y91226D01*
X54317Y91123D01*
X53587Y90820D01*
X53105Y90451D01*
X52657Y90672D01*
Y91382D01*
X52657Y91382D01*
X52502Y92163D01*
X52060Y92824D01*
X52060Y92824D01*
X50239Y94645D01*
Y116155D01*
X52060Y117976D01*
X52060Y117976D01*
X52542Y118458D01*
X53018Y118934D01*
X53575Y119045D01*
X54402Y119598D01*
X54955Y120424D01*
X55149Y121400D01*
X55029Y122003D01*
X55223Y122293D01*
X55367Y122437D01*
X56300Y122251D01*
X57275Y122445D01*
X58102Y122998D01*
X58655Y123825D01*
X58849Y124800D01*
X58655Y125776D01*
X58102Y126602D01*
X57275Y127155D01*
X56300Y127349D01*
X55325Y127155D01*
X54498Y126602D01*
X53945Y125776D01*
X53751Y124800D01*
X53871Y124197D01*
X53677Y123907D01*
X53533Y123763D01*
X52600Y123949D01*
X51625Y123755D01*
X50798Y123202D01*
X50245Y122376D01*
X50134Y121818D01*
X49658Y121342D01*
X49176Y120860D01*
X49176Y120860D01*
X46758Y118442D01*
X46316Y117780D01*
X46161Y117000D01*
Y105693D01*
X45699Y105501D01*
X42592Y108608D01*
X41860Y109169D01*
X41009Y109522D01*
X40095Y109643D01*
X24488D01*
X23574Y109522D01*
X22723Y109169D01*
X21992Y108608D01*
X8045Y94662D01*
X7484Y93931D01*
X7132Y93080D01*
X7011Y92166D01*
Y90750D01*
X6810Y90667D01*
X6394Y90945D01*
Y96107D01*
X9834Y99546D01*
Y99546D01*
X9834D01*
X9880Y99592D01*
X10797Y99775D01*
X11624Y100327D01*
X12177Y101154D01*
X12371Y102129D01*
X12177Y103105D01*
X11624Y103932D01*
X10797Y104484D01*
X10438Y104556D01*
X10293Y105034D01*
X10367Y105108D01*
X11684D01*
X12462Y104588D01*
X13437Y104394D01*
X14413Y104588D01*
X15240Y105141D01*
X15792Y105968D01*
X15986Y106943D01*
X15792Y107919D01*
X15240Y108746D01*
X14413Y109298D01*
X13437Y109492D01*
X12462Y109298D01*
X11684Y108779D01*
X9607D01*
X9021Y108662D01*
X8904Y108639D01*
X8309Y108241D01*
X2640Y102572D01*
X2178Y102763D01*
Y157104D01*
X2607Y157361D01*
X3264Y157010D01*
X4559Y156617D01*
X5906Y156484D01*
X7252Y156617D01*
X8546Y157010D01*
X9740Y157648D01*
X10785Y158506D01*
X11644Y159552D01*
X12281Y160745D01*
X12674Y162039D01*
X12807Y163386D01*
X12674Y164732D01*
X12281Y166027D01*
X11930Y166684D01*
X12187Y167113D01*
X127176D01*
X127242Y166955D01*
X126964Y166539D01*
X43000D01*
X43000Y166539D01*
X42220Y166384D01*
X41558Y165942D01*
X41558Y165942D01*
X36758Y161142D01*
X36316Y160480D01*
X36161Y159700D01*
Y144348D01*
X35845Y143876D01*
X35651Y142900D01*
X35845Y141925D01*
X36398Y141098D01*
X36718Y140883D01*
Y140383D01*
X36598Y140302D01*
X36045Y139476D01*
X35898Y138738D01*
X35030Y137870D01*
X34610Y137241D01*
X34463Y136500D01*
Y132100D01*
X34463Y132100D01*
X34463D01*
X34610Y131359D01*
X35030Y130730D01*
X35652Y130108D01*
X36281Y129688D01*
X37022Y129541D01*
X39278D01*
X40019Y129688D01*
X40648Y130108D01*
X43402Y132863D01*
X45600D01*
X46341Y133010D01*
X46970Y133430D01*
X50570Y137030D01*
X50990Y137659D01*
X51137Y138400D01*
Y143200D01*
X51137Y143200D01*
X51137Y143200D01*
Y143200D01*
Y147998D01*
X53802Y150663D01*
X110565D01*
X110882Y150276D01*
X110733Y149529D01*
X110927Y148553D01*
X111480Y147726D01*
X112307Y147174D01*
X112187Y146573D01*
X111825Y146331D01*
X111273Y145504D01*
X111079Y144529D01*
X111273Y143553D01*
X111825Y142726D01*
X112652Y142174D01*
X113628Y141980D01*
X114603Y142174D01*
X115430Y142726D01*
X115982Y143553D01*
X116177Y144529D01*
X115982Y145504D01*
X115430Y146331D01*
X114603Y146884D01*
X114258Y146952D01*
Y147174D01*
X115085Y147726D01*
X115637Y148553D01*
X115831Y149529D01*
X115637Y150504D01*
X115722Y150663D01*
X142900D01*
X143641Y150810D01*
X144270Y151230D01*
X146870Y153830D01*
X147290Y154459D01*
X147437Y155200D01*
Y158864D01*
X147871Y159298D01*
X148609Y159445D01*
X149436Y159998D01*
X149988Y160825D01*
X150182Y161800D01*
X149988Y162776D01*
X149436Y163602D01*
X148609Y164155D01*
X147633Y164349D01*
X146658Y164155D01*
X145831Y163602D01*
X145278Y162776D01*
X145132Y162038D01*
X144700Y161606D01*
X144268Y162038D01*
X144122Y162776D01*
X143569Y163602D01*
X142742Y164155D01*
X141767Y164349D01*
X140791Y164155D01*
X139964Y163602D01*
X139412Y162776D01*
X139218Y161800D01*
X139412Y160825D01*
X139964Y159998D01*
X140791Y159445D01*
X141529Y159298D01*
X141563Y159264D01*
Y157002D01*
X140998Y156437D01*
X88050D01*
X87772Y156853D01*
X87923Y157217D01*
X88026Y158000D01*
X87923Y158783D01*
X87621Y159513D01*
X87140Y160140D01*
X86513Y160620D01*
X85783Y160923D01*
X85000Y161026D01*
X84217Y160923D01*
X83487Y160620D01*
X82860Y160140D01*
X82809D01*
X82182Y160620D01*
X81452Y160923D01*
X80669Y161026D01*
X79886Y160923D01*
X79156Y160620D01*
X78530Y160140D01*
X78478D01*
X77851Y160620D01*
X77122Y160923D01*
X76338Y161026D01*
X75555Y160923D01*
X74826Y160620D01*
X74199Y160140D01*
X74147D01*
X73521Y160620D01*
X72791Y160923D01*
X72008Y161026D01*
X71225Y160923D01*
X70495Y160620D01*
X69868Y160140D01*
X69387Y159513D01*
X69085Y158783D01*
X68982Y158000D01*
X69085Y157217D01*
X69236Y156853D01*
X68958Y156437D01*
X52200D01*
X51459Y156290D01*
X50830Y155870D01*
X45930Y150970D01*
X45510Y150341D01*
X45363Y149600D01*
Y140302D01*
X43398Y138337D01*
X41083D01*
X40949Y138500D01*
X40755Y139476D01*
X40202Y140302D01*
X39882Y140517D01*
Y141017D01*
X40002Y141098D01*
X40555Y141925D01*
X40749Y142900D01*
X40555Y143876D01*
X40239Y144348D01*
Y158855D01*
X43845Y162461D01*
X128100D01*
X128880Y162616D01*
X129542Y163058D01*
X130545Y164061D01*
X134302D01*
X134924Y163645D01*
X135900Y163451D01*
X136875Y163645D01*
X137702Y164198D01*
X138255Y165024D01*
X138449Y166000D01*
X138255Y166975D01*
X138329Y167113D01*
X157104D01*
X157361Y166684D01*
D02*
G37*
%LPC*%
G36*
X153249Y63395D02*
X152274Y63201D01*
X151447Y62649D01*
X150894Y61822D01*
X150700Y60846D01*
X150894Y59871D01*
X151447Y59044D01*
X152274Y58491D01*
X153249Y58297D01*
X154225Y58491D01*
X155052Y59044D01*
X155604Y59871D01*
X155798Y60846D01*
X155604Y61822D01*
X155052Y62649D01*
X154225Y63201D01*
X153249Y63395D01*
D02*
G37*
G36*
X104338Y55962D02*
X103362Y55768D01*
X102535Y55215D01*
X101983Y54388D01*
X101789Y53413D01*
X101983Y52438D01*
X102535Y51611D01*
X103362Y51058D01*
X104338Y50864D01*
X105313Y51058D01*
X106140Y51611D01*
X106693Y52438D01*
X106887Y53413D01*
X106693Y54388D01*
X106140Y55215D01*
X105313Y55768D01*
X104338Y55962D01*
D02*
G37*
G36*
X25706Y68923D02*
X24730Y68729D01*
X23903Y68176D01*
X23351Y67349D01*
X23157Y66374D01*
X23351Y65398D01*
X23903Y64571D01*
X24730Y64019D01*
X25706Y63825D01*
X25706Y63825D01*
X25706Y63825D01*
X25962Y63654D01*
X26076Y63079D01*
X26629Y62252D01*
X27456Y61700D01*
X28431Y61506D01*
X29407Y61700D01*
X29421Y61710D01*
X29690Y61598D01*
X30243Y60771D01*
X31070Y60219D01*
X32045Y60025D01*
X33020Y60219D01*
X33847Y60771D01*
X34400Y61598D01*
X34594Y62574D01*
X34400Y63549D01*
X33847Y64376D01*
X33020Y64929D01*
X32045Y65123D01*
X31070Y64929D01*
X31055Y64919D01*
X30786Y65030D01*
X30234Y65857D01*
X29407Y66410D01*
X28431Y66604D01*
X28431Y66604D01*
X28431Y66604D01*
X28175Y66775D01*
X28061Y67349D01*
X27508Y68176D01*
X26681Y68729D01*
X25706Y68923D01*
D02*
G37*
G36*
X140310Y82661D02*
X139335Y82467D01*
X138508Y81915D01*
X137955Y81088D01*
X137761Y80112D01*
X137955Y79137D01*
X138508Y78310D01*
X139335Y77757D01*
X140310Y77563D01*
X141286Y77757D01*
X142112Y78310D01*
X142665Y79137D01*
X142859Y80112D01*
X142665Y81088D01*
X142112Y81915D01*
X141286Y82467D01*
X140310Y82661D01*
D02*
G37*
G36*
X156770Y150466D02*
X155794Y150272D01*
X154967Y149719D01*
X154415Y148892D01*
X154220Y147917D01*
X154415Y146941D01*
X154967Y146114D01*
X155794Y145562D01*
X156770Y145368D01*
X157745Y145562D01*
X158572Y146114D01*
X159125Y146941D01*
X159318Y147917D01*
X159125Y148892D01*
X158572Y149719D01*
X157745Y150272D01*
X156770Y150466D01*
D02*
G37*
G36*
X150083Y155617D02*
X149107Y155423D01*
X148280Y154870D01*
X147728Y154043D01*
X147534Y153068D01*
X147728Y152092D01*
X148280Y151265D01*
X149107Y150713D01*
X150083Y150519D01*
X151058Y150713D01*
X151885Y151265D01*
X152438Y152092D01*
X152632Y153068D01*
X152438Y154043D01*
X151885Y154870D01*
X151058Y155423D01*
X150083Y155617D01*
D02*
G37*
G36*
X152779Y30226D02*
X151804Y30032D01*
X150977Y29479D01*
X150424Y28653D01*
X150230Y27677D01*
X150424Y26702D01*
X150977Y25875D01*
X151720Y25378D01*
Y24905D01*
X151714Y24873D01*
X151296Y24594D01*
X150744Y23767D01*
X150550Y22792D01*
X150744Y21816D01*
X151296Y20989D01*
X152123Y20437D01*
X153099Y20243D01*
X154074Y20437D01*
X154901Y20989D01*
X155454Y21816D01*
X155648Y22792D01*
X155454Y23767D01*
X154901Y24594D01*
X154074Y25147D01*
X153841Y25193D01*
X153754Y25322D01*
X154581Y25875D01*
Y25875D01*
X154581Y25875D01*
X154581Y25875D01*
X155134Y26702D01*
X155328Y27677D01*
X155134Y28653D01*
X154581Y29479D01*
X153754Y30032D01*
X152779Y30226D01*
D02*
G37*
G36*
X104272Y12196D02*
X103489Y12093D01*
X102759Y11791D01*
X102132Y11310D01*
X101652Y10683D01*
X101349Y9953D01*
X101246Y9170D01*
X101349Y8387D01*
X101652Y7657D01*
X102132Y7030D01*
X102759Y6550D01*
X103489Y6247D01*
X104272Y6144D01*
X105055Y6247D01*
X105785Y6550D01*
X106412Y7030D01*
X106893Y7657D01*
X107195Y8387D01*
X107298Y9170D01*
X107195Y9953D01*
X106893Y10683D01*
X106412Y11310D01*
X105785Y11791D01*
X105055Y12093D01*
X104272Y12196D01*
D02*
G37*
G36*
X102678Y39975D02*
X101702Y39781D01*
X100875Y39228D01*
X100322Y38401D01*
X100128Y37426D01*
X100322Y36451D01*
X100875Y35624D01*
X101702Y35071D01*
X102678Y34877D01*
X103653Y35071D01*
X104480Y35624D01*
X105032Y36451D01*
X105226Y37426D01*
X105032Y38401D01*
X104480Y39228D01*
X103653Y39781D01*
X102678Y39975D01*
D02*
G37*
G36*
X99372Y49620D02*
X98397Y49426D01*
X97570Y48873D01*
X97017Y48046D01*
X96823Y47071D01*
X97017Y46095D01*
X97570Y45268D01*
X98397Y44716D01*
X99372Y44522D01*
X100348Y44716D01*
X101175Y45268D01*
X101727Y46095D01*
X101921Y47071D01*
X101727Y48046D01*
X101175Y48873D01*
X100348Y49426D01*
X99372Y49620D01*
D02*
G37*
G36*
X132200Y43394D02*
X131225Y43200D01*
X130398Y42648D01*
X129845Y41821D01*
X129651Y40845D01*
X129845Y39870D01*
X130398Y39043D01*
X131225Y38490D01*
X132200Y38296D01*
X133176Y38490D01*
X134002Y39043D01*
X134555Y39870D01*
X134749Y40845D01*
X134555Y41821D01*
X134002Y42648D01*
X133176Y43200D01*
X132200Y43394D01*
D02*
G37*
G36*
X56300Y132649D02*
X55325Y132455D01*
X54498Y131902D01*
X53945Y131076D01*
X53751Y130100D01*
X53945Y129124D01*
X54498Y128298D01*
X55325Y127745D01*
X56300Y127551D01*
X57275Y127745D01*
X58102Y128298D01*
X58655Y129124D01*
X58849Y130100D01*
X58655Y131076D01*
X58102Y131902D01*
X57275Y132455D01*
X56300Y132649D01*
D02*
G37*
G36*
X141900Y132449D02*
X140925Y132255D01*
X140098Y131702D01*
X139545Y130876D01*
X139351Y129900D01*
X139545Y128925D01*
X140098Y128098D01*
X140925Y127545D01*
X141900Y127351D01*
X142876Y127545D01*
X143702Y128098D01*
X144255Y128925D01*
X144449Y129900D01*
X144255Y130876D01*
X143702Y131702D01*
X142876Y132255D01*
X141900Y132449D01*
D02*
G37*
G36*
X114500Y124649D02*
X113524Y124455D01*
X112698Y123902D01*
X112145Y123075D01*
X111951Y122100D01*
X112145Y121124D01*
X112698Y120298D01*
X113524Y119745D01*
X114500Y119551D01*
X115475Y119745D01*
X116302Y120298D01*
X116855Y121124D01*
X117049Y122100D01*
X116855Y123075D01*
X116302Y123902D01*
X115475Y124455D01*
X114500Y124649D01*
D02*
G37*
G36*
X153832Y133899D02*
X152857Y133705D01*
X152030Y133152D01*
X151478Y132325D01*
X151284Y131350D01*
X151478Y130375D01*
X152030Y129548D01*
X152857Y128995D01*
X153832Y128801D01*
X154808Y128995D01*
X155635Y129548D01*
X156187Y130375D01*
X156381Y131350D01*
X156187Y132325D01*
X155635Y133152D01*
X154808Y133705D01*
X153832Y133899D01*
D02*
G37*
G36*
X16900Y143126D02*
X16117Y143023D01*
X15387Y142720D01*
X14760Y142240D01*
X14279Y141613D01*
X13977Y140883D01*
X13874Y140100D01*
X13977Y139317D01*
X14279Y138587D01*
X14760Y137960D01*
X14826Y137464D01*
X14480Y137013D01*
X14177Y136283D01*
X14074Y135500D01*
X14177Y134717D01*
X14480Y133987D01*
X14960Y133360D01*
Y133340D01*
X14480Y132713D01*
X14177Y131983D01*
X14074Y131200D01*
X14177Y130417D01*
X14480Y129687D01*
X14960Y129060D01*
X15587Y128579D01*
X16317Y128277D01*
X17100Y128174D01*
X17883Y128277D01*
X18613Y128579D01*
X19240Y129060D01*
X19721Y129687D01*
X20023Y130417D01*
X20126Y131200D01*
X20023Y131983D01*
X19721Y132713D01*
X19240Y133340D01*
Y133360D01*
X19721Y133987D01*
X20023Y134717D01*
X20126Y135500D01*
X20023Y136283D01*
X19721Y137013D01*
X19240Y137640D01*
X19040Y137793D01*
Y137960D01*
X19521Y138587D01*
X19823Y139317D01*
X19926Y140100D01*
X19823Y140883D01*
X19521Y141613D01*
X19040Y142240D01*
X18413Y142720D01*
X17683Y143023D01*
X16900Y143126D01*
D02*
G37*
G36*
X115600Y132649D02*
X114625Y132455D01*
X113798Y131902D01*
X113245Y131076D01*
X113051Y130100D01*
X113245Y129124D01*
X113798Y128298D01*
X114625Y127745D01*
X115600Y127551D01*
X116576Y127745D01*
X117402Y128298D01*
X117955Y129124D01*
X118149Y130100D01*
X117955Y131076D01*
X117402Y131902D01*
X116576Y132455D01*
X115600Y132649D01*
D02*
G37*
G36*
X149900Y144849D02*
X148925Y144655D01*
X148098Y144102D01*
X147545Y143275D01*
X147351Y142300D01*
X147545Y141324D01*
X148098Y140498D01*
X148925Y139945D01*
X149900Y139751D01*
X150875Y139945D01*
X151702Y140498D01*
X152255Y141324D01*
X152449Y142300D01*
X152255Y143275D01*
X151702Y144102D01*
X150875Y144655D01*
X149900Y144849D01*
D02*
G37*
G36*
X135561Y96285D02*
X134585Y96091D01*
X133758Y95539D01*
X133206Y94712D01*
X133095Y94154D01*
X131863Y92923D01*
X131421Y92261D01*
X131266Y91481D01*
Y83400D01*
Y60259D01*
X130842Y60032D01*
X129867Y60226D01*
X128891Y60032D01*
X128064Y59479D01*
X127512Y58653D01*
X127318Y57677D01*
X127512Y56702D01*
X128064Y55875D01*
X128734Y55427D01*
Y54927D01*
X128064Y54479D01*
X127512Y53653D01*
X127318Y52677D01*
X127512Y51702D01*
X128064Y50875D01*
X128891Y50322D01*
X129867Y50128D01*
X130842Y50322D01*
X130978Y50413D01*
X131421Y50229D01*
X131863Y49567D01*
X135475Y45955D01*
Y28293D01*
X135160Y27821D01*
X134966Y26845D01*
X135160Y25870D01*
X135712Y25043D01*
X136539Y24490D01*
X137514Y24296D01*
X138490Y24490D01*
X139317Y25043D01*
X139869Y25870D01*
X140064Y26845D01*
X139869Y27821D01*
X139554Y28293D01*
Y46800D01*
X139399Y47580D01*
X138956Y48242D01*
X135344Y51854D01*
Y83400D01*
Y84404D01*
X135731Y84721D01*
X136265Y84615D01*
X137241Y84809D01*
X138067Y85361D01*
X138620Y86189D01*
X138814Y87164D01*
X138620Y88139D01*
X138067Y88966D01*
X137241Y89519D01*
X136265Y89713D01*
X135731Y89607D01*
X135344Y89924D01*
Y90636D01*
X135979Y91270D01*
X136536Y91381D01*
X137363Y91934D01*
X137916Y92761D01*
X138110Y93736D01*
X137916Y94712D01*
X137363Y95539D01*
X136536Y96091D01*
X135561Y96285D01*
D02*
G37*
G36*
X93866Y83160D02*
X92891Y82966D01*
X92064Y82413D01*
X91511Y81586D01*
X91317Y80611D01*
X91511Y79635D01*
X92064Y78808D01*
X92891Y78256D01*
X93866Y78062D01*
X94842Y78256D01*
X95669Y78808D01*
X96221Y79635D01*
X96415Y80611D01*
X96221Y81586D01*
X95669Y82413D01*
X94842Y82966D01*
X93866Y83160D01*
D02*
G37*
G36*
X155400Y124249D02*
X154425Y124055D01*
X153598Y123502D01*
X153045Y122676D01*
X152851Y121700D01*
X153045Y120724D01*
X153598Y119898D01*
X154425Y119345D01*
X155400Y119151D01*
X156376Y119345D01*
X157202Y119898D01*
X157755Y120724D01*
X157949Y121700D01*
X157755Y122676D01*
X157202Y123502D01*
X156376Y124055D01*
X155400Y124249D01*
D02*
G37*
G36*
X115100Y117249D02*
X114125Y117055D01*
X113298Y116502D01*
X112745Y115675D01*
X112551Y114700D01*
X112745Y113725D01*
X113298Y112898D01*
X114125Y112345D01*
X115100Y112151D01*
X116076Y112345D01*
X116902Y112898D01*
X117455Y113725D01*
X117649Y114700D01*
X117455Y115675D01*
X116902Y116502D01*
X116076Y117055D01*
X115100Y117249D01*
D02*
G37*
G36*
X139671Y142078D02*
X138696Y141884D01*
X137869Y141331D01*
X137316Y140504D01*
X137122Y139529D01*
X137316Y138553D01*
X137869Y137726D01*
X138696Y137174D01*
X139671Y136980D01*
X140647Y137174D01*
X141474Y137726D01*
X142026Y138553D01*
X142220Y139529D01*
X142026Y140504D01*
X141474Y141331D01*
X140647Y141884D01*
X139671Y142078D01*
D02*
G37*
%LPD*%
D11*
X84989Y36834D02*
X85879Y37725D01*
X95796Y24507D02*
X97516Y22787D01*
Y9352D02*
Y22787D01*
X114495Y49503D02*
X117472Y52481D01*
Y68675D01*
X115392Y70756D02*
X117472Y68675D01*
X8424Y35064D02*
X33454D01*
X40882Y65647D02*
X44881Y69646D01*
X38152Y62917D02*
X40882Y65647D01*
X33454Y35064D02*
X38152Y39762D01*
Y62917D01*
X91196Y3032D02*
X97516Y9352D01*
X84543Y15437D02*
X89749Y10231D01*
Y4479D02*
Y10231D01*
Y4479D02*
X91196Y3032D01*
X61453Y20841D02*
X67436D01*
X72840Y15437D01*
X84543D01*
X6406Y29760D02*
Y33046D01*
X8424Y35064D01*
X70810Y49493D02*
X95796Y24507D01*
X69627Y50676D02*
X70810Y49493D01*
X69627Y50676D02*
Y51995D01*
D41*
X141767Y161800D02*
X143500Y160067D01*
Y156200D02*
Y160067D01*
X141800Y154500D02*
X143500Y156200D01*
X52200Y154500D02*
X141800D01*
X47300Y149600D02*
X52200Y154500D01*
X47300Y139500D02*
Y149600D01*
X44200Y136400D02*
X47300Y139500D01*
X38715Y134315D02*
X40800Y136400D01*
X44200D01*
X145500Y159667D02*
X147633Y161800D01*
X42600Y134800D02*
X45600D01*
X145500Y155200D02*
Y159667D01*
X142900Y152600D02*
X145500Y155200D01*
X53000Y152600D02*
X142900D01*
X45600Y134800D02*
X49200Y138400D01*
X39278Y131478D02*
X42600Y134800D01*
X36400Y132100D02*
X37022Y131478D01*
X39278D01*
X36400Y136500D02*
X38400Y138500D01*
X36400Y132100D02*
Y136500D01*
X49200Y138400D02*
Y143200D01*
Y148800D01*
X53000Y152600D01*
D42*
X81017Y80283D02*
Y104874D01*
X79435Y106456D02*
X81017Y104874D01*
X107764Y86401D02*
X126485Y105123D01*
X69360Y30342D02*
X71634Y28068D01*
X62509Y61775D02*
X81017Y80283D01*
X62509Y46494D02*
Y61775D01*
X138988Y17929D02*
X147401Y26342D01*
Y71023D01*
X107764Y69002D02*
Y86401D01*
X111090Y67028D02*
Y79739D01*
X133305Y91481D02*
X135561Y93736D01*
X106215Y67453D02*
X107764Y69002D01*
X87906Y59065D02*
X89320Y57652D01*
X84975Y59815D02*
Y81744D01*
Y108344D01*
Y57409D02*
Y81744D01*
Y57409D02*
X87157Y55227D01*
X88084Y50976D02*
X98089Y60981D01*
X88084Y49773D02*
Y50976D01*
X57935Y7836D02*
X61924Y3847D01*
X57935Y7836D02*
Y21927D01*
Y24754D02*
X63523Y30342D01*
X57935Y21927D02*
Y24754D01*
X63523Y30342D02*
X67354D01*
X69360D01*
X87906Y59065D02*
Y86000D01*
X126485Y114785D02*
X132000Y120300D01*
X141600D01*
X126485Y105123D02*
Y114785D01*
X141600Y120300D02*
X146200Y115700D01*
Y114900D02*
Y115700D01*
X100108Y81140D02*
Y105008D01*
X101400Y106300D01*
X110300D01*
X112600Y104000D01*
X102956Y95736D02*
X105500Y93191D01*
X98089Y60981D02*
Y62789D01*
X105500Y70200D02*
Y93191D01*
X98089Y62789D02*
X105500Y70200D01*
X133305Y83400D02*
Y91481D01*
Y51009D02*
Y83400D01*
Y51009D02*
X137514Y46800D01*
Y26845D02*
Y46800D01*
X136500Y110200D02*
Y117300D01*
X111090Y79739D02*
X124001Y92650D01*
Y97701D02*
X136500Y110200D01*
X124001Y92650D02*
Y97701D01*
X38200Y142900D02*
Y159700D01*
X43000Y164500D01*
X128100D01*
X129700Y166100D02*
X135800D01*
X135900Y166000D01*
X128100Y164500D02*
X129700Y166100D01*
X82741Y110577D02*
X84975Y108344D01*
X85065Y23939D02*
X87343D01*
X62509Y46494D02*
X85065Y23939D01*
X58477Y110577D02*
X82741D01*
X55100Y107200D02*
X58477Y110577D01*
X51100Y119900D02*
X52600Y121400D01*
X48200Y93800D02*
Y117000D01*
X50618Y84900D02*
Y91382D01*
X48200Y93800D02*
X50618Y91382D01*
X48200Y117000D02*
X50618Y119418D01*
X51100Y119900D01*
D43*
X43420Y45781D02*
X44600Y46962D01*
Y48888D01*
X43420Y39930D02*
Y45781D01*
X44962Y45367D02*
X49561Y49966D01*
X43628Y63301D02*
X45412D01*
X49561Y59152D01*
Y49966D02*
Y59152D01*
X44962Y38571D02*
Y45367D01*
X39984Y36494D02*
X43420Y39930D01*
X42443Y36052D02*
X44962Y38571D01*
X39984Y33928D02*
Y36494D01*
X41137Y57451D02*
X41994Y58309D01*
X41137Y52351D02*
X44600Y48888D01*
X41137Y52351D02*
Y57451D01*
X10630Y5906D02*
G03*
X10630Y5906I-4724J0D01*
G01*
X168110Y163386D02*
G03*
X168110Y163386I-4724J0D01*
G01*
X10630D02*
G03*
X10630Y163386I-4724J0D01*
G01*
X168110Y5906D02*
G03*
X168110Y5906I-4724J0D01*
G01*
X0Y-74D02*
X169291Y-0D01*
Y169291D01*
X-0D02*
X0Y0D01*
X-0Y169291D02*
X169291D01*
X168484Y168484D02*
X169291Y169291D01*
D44*
X8536Y100844D02*
X9822Y102129D01*
X83519Y46995D02*
X114685Y15829D01*
X83491Y44406D02*
X109379Y18518D01*
X113802Y14095D01*
X9607Y106943D02*
X13437D01*
X2891Y100228D02*
X9607Y106943D01*
X2891Y86688D02*
Y100228D01*
X4559Y89954D02*
Y96867D01*
X7940Y100844D02*
X8536D01*
X4559Y96867D02*
X8536Y100844D01*
X2891Y86688D02*
X4838Y84742D01*
X4559Y89954D02*
X10364Y84148D01*
X7390Y79115D02*
Y83658D01*
X6260Y84789D02*
X7390Y83658D01*
X10364Y79746D02*
Y84148D01*
X1076Y72801D02*
X7390Y79115D01*
X1076Y43214D02*
Y72801D01*
X3638Y73019D02*
X10364Y79746D01*
X3314Y72696D02*
X3638Y73019D01*
X2204Y71585D02*
X3638Y73019D01*
X5280Y39011D02*
X11132D01*
X16006Y43885D01*
X1076Y43214D02*
X5280Y39011D01*
X2204Y49174D02*
Y71585D01*
Y49174D02*
X3131Y48248D01*
X4838Y84742D02*
X6260D01*
X130693Y14095D02*
X138516Y6272D01*
X113802Y14095D02*
X130693D01*
X114685Y15829D02*
X134411D01*
X134659D02*
X144102Y6386D01*
X134411Y15829D02*
X134659D01*
D46*
X147600Y79300D02*
D03*
X149900Y90000D02*
D03*
X161200Y125500D02*
D03*
X165100Y133800D02*
D03*
X165500Y139800D02*
D03*
Y145900D02*
D03*
X156700Y158300D02*
D03*
X110100Y157100D02*
D03*
X118800Y130600D02*
D03*
X96900Y82200D02*
D03*
X92000Y84500D02*
D03*
X20000Y86300D02*
D03*
X24200Y72100D02*
D03*
X33800Y144200D02*
D03*
X38100Y123200D02*
D03*
X104800Y19800D02*
D03*
X106800Y4300D02*
D03*
X101500Y4200D02*
D03*
X115600Y38500D02*
D03*
X163300Y16600D02*
D03*
X156100Y15600D02*
D03*
X148300Y15200D02*
D03*
X156900Y65000D02*
D03*
X114700Y45400D02*
D03*
X104700Y62900D02*
D03*
X114100Y56800D02*
D03*
X113400Y63200D02*
D03*
X96100Y76200D02*
D03*
X136400Y69600D02*
D03*
X122400Y67300D02*
D03*
X126300Y71700D02*
D03*
X140300Y72400D02*
D03*
X164500Y74800D02*
D03*
X158700Y71300D02*
D03*
X153400Y69100D02*
D03*
X149300Y75600D02*
D03*
X163100Y96400D02*
D03*
X162000Y102300D02*
D03*
X160600Y119300D02*
D03*
X163700Y123600D02*
D03*
X119000Y109400D02*
D03*
X119100Y121800D02*
D03*
X126683Y147028D02*
D03*
X111600Y162300D02*
D03*
X8000Y119800D02*
D03*
X4000Y120500D02*
D03*
X4600Y127500D02*
D03*
X7800Y147300D02*
D03*
X4400Y151000D02*
D03*
X9000Y152200D02*
D03*
X11600Y147900D02*
D03*
X11200Y143100D02*
D03*
X6000Y142600D02*
D03*
X42300Y158300D02*
D03*
X30700Y111700D02*
D03*
X27000Y115600D02*
D03*
X36800Y101500D02*
D03*
X30600Y94800D02*
D03*
X58300Y79500D02*
D03*
X62100Y83500D02*
D03*
X56700Y83600D02*
D03*
X53100Y80900D02*
D03*
X40600Y76700D02*
D03*
X26400Y77500D02*
D03*
X27800Y55200D02*
D03*
X24100Y56200D02*
D03*
X20300Y10200D02*
D03*
X26100Y16200D02*
D03*
X16000Y6200D02*
D03*
X3900Y16600D02*
D03*
X66300Y16400D02*
D03*
X52500Y20900D02*
D03*
X72900Y42400D02*
D03*
X77400Y38700D02*
D03*
X71300Y32400D02*
D03*
X30511Y43187D02*
D03*
X34358Y92169D02*
D03*
X12429Y111765D02*
D03*
X4287Y111562D02*
D03*
X3542Y79562D02*
D03*
X13384Y101957D02*
D03*
X65961Y58395D02*
D03*
X38080Y70252D02*
D03*
X101455Y58908D02*
D03*
X58219Y70307D02*
D03*
X70607Y24702D02*
D03*
X118580Y84274D02*
D03*
X114258Y67451D02*
D03*
X91608Y49863D02*
D03*
X91870Y24557D02*
D03*
X43628Y63301D02*
D03*
X66209Y46892D02*
D03*
X97516Y9352D02*
D03*
X69627Y51995D02*
D03*
X85879Y37725D02*
D03*
X95796Y24507D02*
D03*
X91196Y3032D02*
D03*
X61924Y3847D02*
D03*
X71634Y28068D02*
D03*
X144102Y6386D02*
D03*
X83903Y40225D02*
D03*
X83491Y44406D02*
D03*
X83519Y46995D02*
D03*
X89754Y47212D02*
D03*
X78379Y8816D02*
D03*
X138988Y17929D02*
D03*
X153099Y22792D02*
D03*
X152779Y27677D02*
D03*
X81499Y8756D02*
D03*
X86633Y7951D02*
D03*
X72912Y39585D02*
D03*
X71656Y10270D02*
D03*
X68396Y35742D02*
D03*
X28431Y64055D02*
D03*
X32045Y62574D02*
D03*
X48898Y38348D02*
D03*
X47484Y36149D02*
D03*
X102956Y95736D02*
D03*
X46746Y56803D02*
D03*
X25706Y66374D02*
D03*
X43765Y52340D02*
D03*
X46028Y53835D02*
D03*
X16006Y43885D02*
D03*
X10364Y84148D02*
D03*
X6260Y84789D02*
D03*
X13437Y106943D02*
D03*
X9822Y102129D02*
D03*
X99372Y47071D02*
D03*
X102678Y37426D02*
D03*
X111090Y67028D02*
D03*
X106215Y67453D02*
D03*
X113628Y144529D02*
D03*
X150083Y153068D02*
D03*
X149900Y142300D02*
D03*
X156770Y147917D02*
D03*
X113282Y149529D02*
D03*
X89379Y22252D02*
D03*
X137514Y26845D02*
D03*
X135561Y93736D02*
D03*
X140310Y80112D02*
D03*
X136265Y87164D02*
D03*
X100108Y81140D02*
D03*
X88084Y49773D02*
D03*
X38230Y98224D02*
D03*
X76900Y87400D02*
D03*
X89320Y57652D02*
D03*
X87900Y86000D02*
D03*
X87343Y23939D02*
D03*
X79435Y106456D02*
D03*
X50618Y84900D02*
D03*
X104338Y53413D02*
D03*
X114495Y49503D02*
D03*
X115392Y70756D02*
D03*
X93866Y80611D02*
D03*
X30511Y51247D02*
D03*
X34667Y51110D02*
D03*
X41305Y47518D02*
D03*
X41994Y58309D02*
D03*
X42443Y36052D02*
D03*
X39984Y33928D02*
D03*
X153249Y60846D02*
D03*
X129867Y57677D02*
D03*
X129867Y52677D02*
D03*
X132200Y40845D02*
D03*
X104144Y46903D02*
D03*
X87157Y55227D02*
D03*
X101928Y19827D02*
D03*
X8865Y26851D02*
D03*
X3131Y48248D02*
D03*
X20951Y57471D02*
D03*
X9091Y69358D02*
D03*
X67768Y3626D02*
D03*
X138516Y6272D02*
D03*
X77948Y49397D02*
D03*
X88654Y35906D02*
D03*
X30097Y101100D02*
D03*
X6433Y93000D02*
D03*
X9776Y30469D02*
D03*
X2654Y36480D02*
D03*
X42598Y4429D02*
D03*
X38200Y142900D02*
D03*
X38400Y138500D02*
D03*
X38715Y134315D02*
D03*
X153832Y131350D02*
D03*
X141900Y129900D02*
D03*
X139671Y139529D02*
D03*
X146200Y114900D02*
D03*
X136500Y117300D02*
D03*
X141767Y161800D02*
D03*
X147633D02*
D03*
X112600Y104000D02*
D03*
X115131Y108331D02*
D03*
X147401Y71023D02*
D03*
X56300Y130100D02*
D03*
Y124800D02*
D03*
X151600Y115900D02*
D03*
X115100Y114700D02*
D03*
X155400Y121700D02*
D03*
X139600Y106600D02*
D03*
X33637Y97545D02*
D03*
X72400Y86900D02*
D03*
X115600Y130100D02*
D03*
X52600Y121400D02*
D03*
X114500Y122100D02*
D03*
X133900Y101900D02*
D03*
X135900Y166000D02*
D03*
X68500Y86800D02*
D03*
X55100Y107200D02*
D03*
X62700Y144500D02*
D03*
X67600Y137200D02*
D03*
X72900Y136600D02*
D03*
X66700Y132200D02*
D03*
X72700Y132400D02*
D03*
X91300Y124900D02*
D03*
X61100Y115900D02*
D03*
X142483Y138825D02*
D03*
D47*
X28676Y7881D02*
D03*
X10542Y88525D02*
D03*
X53208Y66872D02*
D03*
X23334Y25089D02*
D03*
X47430Y19901D02*
D03*
X25294Y51463D02*
D03*
X41118Y28546D02*
D03*
D48*
X17100Y131200D02*
D03*
Y135500D02*
D03*
X16900Y140100D02*
D03*
X104272Y9170D02*
D03*
X61453Y20841D02*
D03*
X120500Y72600D02*
D03*
X119968Y93055D02*
D03*
X102067Y72364D02*
D03*
X44881Y69646D02*
D03*
X43075Y82941D02*
D03*
X6406Y29760D02*
D03*
X12941Y30915D02*
D03*
X5476Y55813D02*
D03*
X20067Y29100D02*
D03*
X63100Y88200D02*
D03*
X59300Y88300D02*
D03*
X55100Y88200D02*
D03*
X85000Y158000D02*
D03*
X80669D02*
D03*
X76338D02*
D03*
X72008D02*
D03*
D50*
X47430Y24620D02*
X53308Y30498D01*
X47430Y19901D02*
Y24620D01*
X53308Y30498D02*
Y66772D01*
X23334Y25089D02*
X28522Y19901D01*
X47430D01*
X10542Y88525D02*
Y92166D01*
X53208Y66872D02*
Y72529D01*
X47074Y78662D02*
X53208Y72529D01*
X10542Y92166D02*
X24488Y106112D01*
X40095D01*
X44600Y101608D01*
Y89574D02*
Y101608D01*
X47074Y78662D02*
Y87100D01*
X44600Y89574D02*
X47074Y87100D01*
D51*
X5476Y55813D02*
X18326Y68662D01*
Y74444D01*
X26822Y82941D02*
X43075D01*
X18326Y74444D02*
X26822Y82941D01*
M02*
