  0
SECTION
  2
HEADER
  9
$ACADVER
  1
AC1012
  9
$DWGCODEPAGE
  3
dos850
  9
$INSBASE
 10
0.0
 20
0.0
 30
0.0
  9
$EXTMIN
 10
1.798209
 20
1.419497
 30
0.0
  9
$EXTMAX
 10
5.09061
 20
4.493642
 30
0.0
  9
$LIMMIN
 10
0.0
 20
0.0
  9
$LIMMAX
 10
0.0
 20
0.0
  9
$ORTHOMODE
 70
     0
  9
$REGENMODE
 70
     1
  9
$FILLMODE
 70
     1
  9
$QTEXTMODE
 70
     0
  9
$MIRRTEXT
 70
     1
  9
$DRAGMODE
 70
     2
  9
$LTSCALE
 40
1.0
  9
$OSMODE
 70
     0
  9
$ATTMODE
 70
     1
  9
$TEXTSIZE
 40
0.2
  9
$TRACEWID
 40
0.05
  9
$TEXTSTYLE
  7
STANDARD
  9
$CLAYER
  8
0
  9
$CELTYPE
  6
CONTINUOUS
  9
$CECOLOR
 62
   256
  9
$CELTSCALE
 40
1.0
  9
$DELOBJ
 70
     1
  9
$DISPSILH
 70
     0
  9
$DIMSCALE
 40
1.0
  9
$DIMASZ
 40
0.18
  9
$DIMEXO
 40
0.0625
  9
$DIMDLI
 40
0.38
  9
$DIMRND
 40
0.0
  9
$DIMDLE
 40
0.0
  9
$DIMEXE
 40
0.18
  9
$DIMTP
 40
0.0
  9
$DIMTM
 40
0.0
  9
$DIMTXT
 40
0.18
  9
$DIMCEN
 40
0.09
  9
$DIMTSZ
 40
0.0
  9
$DIMTOL
 70
     0
  9
$DIMLIM
 70
     0
  9
$DIMTIH
 70
     1
  9
$DIMTOH
 70
     1
  9
$DIMSE1
 70
     0
  9
$DIMSE2
 70
     0
  9
$DIMTAD
 70
     0
  9
$DIMZIN
 70
     0
  9
$DIMBLK
  1

  9
$DIMASO
 70
     1
  9
$DIMSHO
 70
     1
  9
$DIMPOST
  1

  9
$DIMAPOST
  1

  9
$DIMALT
 70
     0
  9
$DIMALTD
 70
     2
  9
$DIMALTF
 40
25.4
  9
$DIMLFAC
 40
1.0
  9
$DIMTOFL
 70
     0
  9
$DIMTVP
 40
0.0
  9
$DIMTIX
 70
     0
  9
$DIMSOXD
 70
     0
  9
$DIMSAH
 70
     0
  9
$DIMBLK1
  1

  9
$DIMBLK2
  1

  9
$DIMSTYLE
  2
STANDARD
  9
$DIMCLRD
 70
     0
  9
$DIMCLRE
 70
     0
  9
$DIMCLRT
 70
     0
  9
$DIMTFAC
 40
1.0
  9
$DIMGAP
 40
0.09
  9
$DIMJUST
 70
     0
  9
$DIMSD1
 70
     0
  9
$DIMSD2
 70
     0
  9
$DIMTOLJ
 70
     1
  9
$DIMTZIN
 70
     0
  9
$DIMALTZ
 70
     0
  9
$DIMALTTZ
 70
     0
  9
$DIMFIT
 70
     3
  9
$DIMUPT
 70
     0
  9
$DIMUNIT
 70
     2
  9
$DIMDEC
 70
     4
  9
$DIMTDEC
 70
     4
  9
$DIMALTU
 70
     2
  9
$DIMALTTD
 70
     2
  9
$DIMTXSTY
  7
STANDARD
  9
$DIMAUNIT
 70
     0
  9
$LUNITS
 70
     2
  9
$LUPREC
 70
     4
  9
$SKETCHINC
 40
0.1
  9
$FILLETRAD
 40
0.0
  9
$AUNITS
 70
     0
  9
$AUPREC
 70
     0
  9
$MENU
  1
acad
  9
$ELEVATION
 40
0.0
  9
$PELEVATION
 40
0.0
  9
$THICKNESS
 40
0.0
  9
$LIMCHECK
 70
     0
  9
$BLIPMODE
 70
     1
  9
$CHAMFERA
 40
0.0
  9
$CHAMFERB
 40
0.0
  9
$CHAMFERC
 40
0.0
  9
$CHAMFERD
 40
0.0
  9
$SKPOLY
 70
     0
  9
$TDCREATE
 40
0.000000000
  9
$TDUPDATE
 40
0.000000000
  9
$TDINDWG
 40
0.0000000000
  9
$TDUSRTIMER
 40
0.0000000000
  9
$USRTIMER
 70
     1
  9
$ANGBASE
 50
0.0
  9
$ANGDIR
 70
     0
  9
$PDMODE
 70
     0
  9
$PDSIZE
 40
0.0
  9
$PLINEWID
 40
0.0
  9
$COORDS
 70
     0
  9
$SPLFRAME
 70
     0
  9
$SPLINETYPE
 70
     6
  9
$SPLINESEGS
 70
     8
  9
$ATTDIA
 70
     0
  9
$ATTREQ
 70
     1
  9
$HANDLING
 70
     1
  9
$HANDSEED
  5
3F0
  9
$SURFTAB1
 70
     6
  9
$SURFTAB2
 70
     6
  9
$SURFTYPE
 70
     6
  9
$SURFU
 70
     6
  9
$SURFV
 70
     6
  9
$UCSNAME
  2

  9
$UCSORG
 10
0.0
 20
0.0
 30
0.0
  9
$UCSXDIR
 10
1.0
 20
0.0
 30
0.0
  9
$UCSYDIR
 10
0.0
 20
1.0
 30
0.0
  9
$PUCSNAME
  2

  9
$PUCSORG
 10
0.0
 20
0.0
 30
0.0
  9
$PUCSXDIR
 10
1.0
 20
0.0
 30
0.0
  9
$PUCSYDIR
 10
0.0
 20
1.0
 30
0.0
  9
$USERI1
 70
     0
  9
$USERI2
 70
     0
  9
$USERI3
 70
     0
  9
$USERI4
 70
     0
  9
$USERI5
 70
     0
  9
$USERR1
 40
0.0
  9
$USERR2
 40
0.0
  9
$USERR3
 40
0.0
  9
$USERR4
 40
0.0
  9
$USERR5
 40
0.0
  9
$WORLDVIEW
 70
     1
  9
$SHADEDGE
 70
     3
  9
$SHADEDIF
 70
    70
  9
$TILEMODE
 70
     1
  9
$MAXACTVP
 70
    16
  9
$PINSBASE
 10
0.0
 20
0.0
 30
0.0
  9
$PLIMCHECK
 70
     0
  9
$PEXTMIN
 10
1.000000E+20
 20
1.000000E+20
 30
1.000000E+20
  9
$PEXTMAX
 10
-1.000000E+20
 20
-1.000000E+20
 30
-1.000000E+20
  9
$PLIMMIN
 10
0.0
 20
0.0
  9
$PLIMMAX
 10
12.0
 20
9.0
  9
$UNITMODE
 70
     0
  9
$VISRETAIN
 70
     0
  9
$PLINEGEN
 70
     1
  9
$PSLTSCALE
 70
     0
  9
$TREEDEPTH
 70
  3020
  9
$PICKSTYLE
 70
     1
  9
$CMLSTYLE
  2
Standard
  9
$CMLJUST
 70
     0
  9
$CMLSCALE
 40
1.0
  9
$SAVEIMAGES
 70
     0
  0
ENDSEC
  0
SECTION
  2
CLASSES
  0
CLASS
  1
LWPOLYLINE
  2
AcDbPolyline
  3
"AutoCAD"
 90
        0
280
     0
281
     1
  0
CLASS
  1
IMAGE
  2
AcDbRasterImage
  3
ISM
 90
      127
280
     0
281
     1
  0
CLASS
  1
OLE2FRAME
  2
AcDbOle2Frame
  3
""
 90
        0
280
     0
281
     1
  0
CLASS
  1
HATCH
  2
AcDbHatch
  3
"ACAD_SEDONA"
 90
        0
280
     0
281
     1
  0
CLASS
  1
DICTIONARYVAR
  2
AcDbDictionaryVar
  3
"AutoCAD"
 90
        0
280
     0
281
     0
  0
CLASS
  1
RASTERVARIABLES
  2
AcDbRasterVariables
  3
ISM
 90
        0
280
     0
281
     0
  0
CLASS
  1
IMAGEDEF
  2
AcDbRasterImageDef
  3
ISM
 90
        0
280
     0
281
     0
  0
CLASS
  1
IMAGEDEF_REACTOR
  2
AcDbRasterImageDefReactor
  3
ISM
 90
        1
280
     0
281
     0
  0
CLASS
  1
IDBUFFER
  2
AcDbIdBuffer
  3
"Acad"
 90
        0
280
     0
281
     0
  0
CLASS
  1
SPATIAL_FILTER
  2
AcDbSpatialFilter
  3
"Acad"
 90
        0
280
     0
281
     0
  0
CLASS
  1
XRECORD
  2
AcDbXrecord
  3
"<Built In>"
 90
        0
280
     0
281
     0
  0
CLASS
  1
SORTENTSTABLE
  2
AcDbSortentsTable
  3
"AutoCAD"
 90
        0
280
     0
281
     0
  0
CLASS
  1
LAYER_INDEX
  2
AcDbLayerIndex
  3
"Acad"
 90
        0
280
     0
281
     0
  0
CLASS
  1
SPATIAL_INDEX
  2
AcDbSpatialIndex
  3
"Acad"
 90
        0
280
     0
281
     0
  0
CLASS
  1
OBJECT_PTR
  2
CAseDLPNTableRecord
  3
"ASE-LPNTableRecord"
 90
        1
280
     0
281
     0
  0
CLASS
  1
LAYOUT
  2
AcDbLayout
  3
"AutoCAD 2000"
 90
        1
280
     0
281
     0
  0
CLASS
  1
PLOTSETTINGS
  2
AcDbPlotSettings
  3
"AutoCAD 2000"
 90
        1
280
     0
281
     0
  0
CLASS
  1
ACDBDICTIONARYWDFLT
  2
AcDbDictionaryWithDefault
  3
"AutoCAD 2000"
 90
        1
280
     0
281
     0
  0
CLASS
  1
ACDBPLACEHOLDER
  2
AcDbPlaceHolder
  3
"AutoCAD 2000"
 90
        1
280
     0
281
     0
  0
CLASS
  1
VBA_PROJECT
  2
AcDbVbaProject
  3
"acadvba"
 90
        1
280
     0
281
     0
  0
CLASS
  1
WIPEOUT
  2
AcDbWipeout
  3
WipeOut|AutoCAD Express Tool|expresstools@autodesk.com
 90
      127
280
     0
281
     1
  0
CLASS
  1
WIPEOUTVARIABLES
  2
AcDbWipeoutVariables
  3
WipeOut|AutoCAD Express Tool|expresstools@autodesk.com
 90
        0
280
     0
281
     0
  0
CLASS
  1
RTEXT
  2
RText
  3
RText|AutoCAD Express Tool|expresstools@autodesk.com
 90
        0
280
     0
281
     1
  0
CLASS
  1
ARCALIGNEDTEXT
  2
AcDbArcAlignedText
  3
ATEXT|AutoCAD Express Tool|expresstools@autodesk.com
 90
        0
280
     0
281
     1
  0
ENDSEC
  0
SECTION
  2
TABLES
  0
TABLE
  2
VPORT
  5
7
100
AcDbSymbolTable
 70
     1
  0
VPORT
  5
15
100
AcDbSymbolTableRecord
100
AcDbViewportTableRecord
  2
*ACTIVE
 70
     0
 10
0.0
 20
0.0
 11
1.0
 21
1.0
 12
6.591288
 22
4.579184
 13
0.0
 23
0.0
 14
1.0
 24
1.0
 15
0.0
 25
0.0
 16
0.0
 26
0.0
 36
1.0
 17
0.0
 27
0.0
 37
0.0
 40
9.158369
 41
0.688564
 42
50.0
 43
0.0
 44
0.0
 50
0.0
 51
0.0
 71
     0
 72
   100
 73
     1
 74
     1
 75
     0
 76
     0
 77
     0
 78
     0
  0
ENDTAB
  0
TABLE
  2
LTYPE
  5
4
100
AcDbSymbolTable
 70
     3
  0
LTYPE
  5
11
100
AcDbSymbolTableRecord
100
AcDbLinetypeTableRecord
  2
BYBLOCK
 70
    64
  3

 72
    65
 73
     0
 40
0.0
  0
LTYPE
  5
12
100
AcDbSymbolTableRecord
100
AcDbLinetypeTableRecord
  2
BYLAYER
 70
    64
  3

 72
    65
 73
     0
 40
0.0
  0
LTYPE
  5
13
100
AcDbSymbolTableRecord
100
AcDbLinetypeTableRecord
  2
CONTINUOUS
 70
    64
  3
Solid line
 72
    65
 73
     0
 40
0.0
  0
ENDTAB
  0
TABLE
  2
LAYER
  5
2
100
AcDbSymbolTable
 70
    11
  0
LAYER
  5
14
100
AcDbSymbolTableRecord
100
AcDbLayerTableRecord
  2
0
 70
     0
 62
     7
  6
CONTINUOUS
  0
LAYER
  5
1D
100
AcDbSymbolTableRecord
100
AcDbLayerTableRecord
  2
TOPLAYER
 70
     0
 62
     1
  6
CONTINUOUS
  0
LAYER
  5
1E
100
AcDbSymbolTableRecord
100
AcDbLayerTableRecord
  2
BOTTOMLAYER
 70
     0
 62
     5
  6
CONTINUOUS
  0
LAYER
  5
1F
100
AcDbSymbolTableRecord
100
AcDbLayerTableRecord
  2
MECHANICAL1
 70
     0
 62
     6
  6
CONTINUOUS
  0
LAYER
  5
20
100
AcDbSymbolTableRecord
100
AcDbLayerTableRecord
  2
TOPOVERLAY
 70
     0
 62
     2
  6
CONTINUOUS
  0
LAYER
  5
21
100
AcDbSymbolTableRecord
100
AcDbLayerTableRecord
  2
MULTILAYER
 70
     0
 62
     9
  6
CONTINUOUS
  0
LAYER
  5
22
100
AcDbSymbolTableRecord
100
AcDbLayerTableRecord
  2
KEEPOUTLAYER
 70
     0
 62
     6
  6
CONTINUOUS
  0
LAYER
  5
23
100
AcDbSymbolTableRecord
100
AcDbLayerTableRecord
  2
TOPPASTE
 70
     0
 62
     8
  6
CONTINUOUS
  0
LAYER
  5
24
100
AcDbSymbolTableRecord
100
AcDbLayerTableRecord
  2
BOTTOMPASTE
 70
     0
 62
    16
  6
CONTINUOUS
  0
LAYER
  5
25
100
AcDbSymbolTableRecord
100
AcDbLayerTableRecord
  2
TOPSOLDER
 70
     0
 62
   216
  6
CONTINUOUS
  0
LAYER
  5
26
100
AcDbSymbolTableRecord
100
AcDbLayerTableRecord
  2
BOTTOMSOLDER
 70
     0
 62
     6
  6
CONTINUOUS
  0
ENDTAB
  0
TABLE
  2
STYLE
  5
3
100
AcDbSymbolTable
 70
     1
  0
STYLE
  5
17
100
AcDbSymbolTableRecord
100
AcDbTextStyleTableRecord
  2
STANDARD
 70
     0
 40
0.0
 41
1.0
 50
0.0
 71
     0
 42
0.0
  3
txt
  4

  0
ENDTAB
  0
TABLE
  2
VIEW
  5
5
100
AcDbSymbolTable
 70
     0
  0
ENDTAB
  0
TABLE
  2
UCS
  5
6
100
AcDbSymbolTable
 70
     0
  0
ENDTAB
  0
TABLE
  2
APPID
  5
8
100
AcDbSymbolTable
 70
     1
  0
APPID
  5
16
100
AcDbSymbolTableRecord
100
AcDbRegAppTableRecord
  2
ACAD
 70
     0
  0
ENDTAB
  0
TABLE
  2
DIMSTYLE
  5
9
100
AcDbSymbolTable
 70
     1
  0
DIMSTYLE
105
18
100
AcDbSymbolTableRecord
100
AcDbDimStyleTableRecord
  2
STANDARD
 70
     0
  3

  4

  5

  6

  7

 40
1.0
 41
0.18
 42
0.0625
 43
0.38
 44
0.18
 45
0.0
 46
0.0
 47
0.0
 48
0.0
 71
     0
 72
     0
 73
     1
 74
     1
 75
     0
 76
     0
 77
     0
 78
     0
140
0.18
141
0.09
142
0.0
143
25.4
144
1.0
145
0.0
146
1.0
147
0.09
170
     0
171
     2
172
     0
173
     0
174
     0
175
     0
176
     0
177
     0
178
     0
270
     2
271
     4
272
     4
273
     2
274
     2
275
     0
280
     0
281
     0
282
     0
283
     1
284
     0
285
     0
286
     0
287
     0
288
     0
340
17
  0
ENDTAB
  0
TABLE
  2
BLOCK_RECORD
  5
1
100
AcDbSymbolTable
 70
     4
  0
BLOCK_RECORD
  5
A
100
AcDbSymbolTableRecord
100
AcDbBlockTableRecord
  2
*MODEL_SPACE
  0
BLOCK_RECORD
  5
B
100
AcDbSymbolTableRecord
100
AcDbBlockTableRecord
  2
*PAPER_SPACE
  0
BLOCK_RECORD
  5
17A
100
AcDbSymbolTableRecord
100
AcDbBlockTableRecord
  2
SCREW_M3_1
  0
BLOCK_RECORD
  5
217
100
AcDbSymbolTableRecord
100
AcDbBlockTableRecord
  2
SCREW_M3_2
  0
BLOCK_RECORD
  5
2B4
100
AcDbSymbolTableRecord
100
AcDbBlockTableRecord
  2
SCREW_M3_3
  0
BLOCK_RECORD
  5
351
100
AcDbSymbolTableRecord
100
AcDbBlockTableRecord
  2
SCREW_M3_4
  0
ENDTAB
  0
ENDSEC
  0
SECTION
  2
BLOCKS
  0
BLOCK
  5
D
100
AcDbEntity
  8
0
100
AcDbBlockBegin
  2
*MODEL_SPACE
 70
     0
 10
0.0
 20
0.0
 30
0.0
  3
*MODEL_SPACE
  1

  0
ENDBLK
  5
E
100
AcDbEntity
  8
0
100
AcDbBlockEnd
  0
BLOCK
  5
F
100
AcDbEntity
 67
     1
  8
0
100
AcDbBlockBegin
  2
*PAPER_SPACE
 70
     0
 10
0.0
 20
0.0
 30
0.0
  3
*PAPER_SPACE
  1

  0
ENDBLK
  5
10
100
AcDbEntity
 67
     1
  8
0
100
AcDbBlockEnd
  0
BLOCK
  5
17B
100
AcDbEntity
  8
0
100
AcDbBlockBegin
  2
SCREW_M3_1
 70
     0
 10
0.0
 20
0.0
 30
0.0
  3
SCREW_M3_1
  1

  0
POLYLINE
  5
17C
100
AcDbEntity
  8
TOPOVERLAY
100
AcDb2dPolyline
 66
     1
 10
0.0
 20
0.0
 30
0.0
 70
     1
 40
0.01
 41
0.01
 75
     8
  0
VERTEX
  5
17D
100
AcDbEntity
  8
TOPOVERLAY
100
AcDbVertex
100
AcDb2dVertex
 10
0.11039
 20
0.0
 30
0.0
 42
1.0
  0
VERTEX
  5
17E
100
AcDbEntity
  8
TOPOVERLAY
100
AcDbVertex
100
AcDb2dVertex
 10
-0.11039
 20
0.0
 30
0.0
 42
1.0
  0
SEQEND
  5
17F
100
AcDbEntity
  8
0
  0
POLYLINE
  5
180
100
AcDbEntity
  8
TOPOVERLAY
100
AcDb2dPolyline
 66
     1
 10
0.0
 20
0.0
 30
0.0
 70
     1
 40
0.005
 41
0.005
 75
     8
  0
VERTEX
  5
181
100
AcDbEntity
  8
TOPOVERLAY
100
AcDbVertex
100
AcDb2dVertex
 10
0.10789
 20
0.0
 30
0.0
 42
1.0
  0
VERTEX
  5
182
100
AcDbEntity
  8
TOPOVERLAY
100
AcDbVertex
100
AcDb2dVertex
 10
0.11289
 20
0.0
 30
0.0
 42
1.0
  0
SEQEND
  5
183
100
AcDbEntity
  8
0
  0
POLYLINE
  5
184
100
AcDbEntity
  8
TOPOVERLAY
100
AcDb2dPolyline
 66
     1
 10
0.0
 20
0.0
 30
0.0
 70
     1
 40
0.005
 41
0.005
 75
     8
  0
VERTEX
  5
185
100
AcDbEntity
  8
TOPOVERLAY
100
AcDbVertex
100
AcDb2dVertex
 10
-0.11289
 20
0.0
 30
0.0
 42
1.0
  0
VERTEX
  5
186
100
AcDbEntity
  8
TOPOVERLAY
100
AcDbVertex
100
AcDb2dVertex
 10
-0.10789
 20
0.0
 30
0.0
 42
1.0
  0
SEQEND
  5
187
100
AcDbEntity
  8
0
  0
POLYLINE
  5
188
100
AcDbEntity
  8
TOPLAYER
100
AcDb2dPolyline
 66
     1
 10
0.0
 20
0.0
 30
0.0
 70
     1
 40
0.015748
 41
0.015748
 75
     8
  0
VERTEX
  5
189
100
AcDbEntity
  8
TOPLAYER
100
AcDbVertex
100
AcDb2dVertex
 10
0.064126
 20
0.04
 30
0.0
 42
1.0
  0
VERTEX
  5
18A
100
AcDbEntity
  8
TOPLAYER
100
AcDbVertex
100
AcDb2dVertex
 10
0.079874
 20
0.04
 30
0.0
 42
1.0
  0
SEQEND
  5
18B
100
AcDbEntity
  8
0
  0
POLYLINE
  5
18C
100
AcDbEntity
  8
BOTTOMLAYER
100
AcDb2dPolyline
 66
     1
 10
0.0
 20
0.0
 30
0.0
 70
     1
 40
0.015748
 41
0.015748
 75
     8
  0
VERTEX
  5
18D
100
AcDbEntity
  8
BOTTOMLAYER
100
AcDbVertex
100
AcDb2dVertex
 10
0.064126
 20
0.04
 30
0.0
 42
1.0
  0
VERTEX
  5
18E
100
AcDbEntity
  8
BOTTOMLAYER
100
AcDbVertex
100
AcDb2dVertex
 10
0.079874
 20
0.04
 30
0.0
 42
1.0
  0
SEQEND
  5
18F
100
AcDbEntity
  8
0
  0
POLYLINE
  5
190
100
AcDbEntity
  8
TOPSOLDER
100
AcDb2dPolyline
 66
     1
 10
0.0
 20
0.0
 30
0.0
 70
     1
 40
0.019748
 41
0.019748
 75
     8
  0
VERTEX
  5
191
100
AcDbEntity
  8
TOPSOLDER
100
AcDbVertex
100
AcDb2dVertex
 10
0.062126
 20
0.04
 30
0.0
 42
1.0
  0
VERTEX
  5
192
100
AcDbEntity
  8
TOPSOLDER
100
AcDbVertex
100
AcDb2dVertex
 10
0.081874
 20
0.04
 30
0.0
 42
1.0
  0
SEQEND
  5
193
100
AcDbEntity
  8
0
  0
POLYLINE
  5
194
100
AcDbEntity
  8
BOTTOMSOLDER
100
AcDb2dPolyline
 66
     1
 10
0.0
 20
0.0
 30
0.0
 70
     1
 40
0.019748
 41
0.019748
 75
     8
  0
VERTEX
  5
195
100
AcDbEntity
  8
BOTTOMSOLDER
100
AcDbVertex
100
AcDb2dVertex
 10
0.062126
 20
0.04
 30
0.0
 42
1.0
  0
VERTEX
  5
196
100
AcDbEntity
  8
BOTTOMSOLDER
100
AcDbVertex
100
AcDb2dVertex
 10
0.081874
 20
0.04
 30
0.0
 42
1.0
  0
SEQEND
  5
197
100
AcDbEntity
  8
0
  0
POLYLINE
  5
198
100
AcDbEntity
  8
MULTILAYER
100
AcDb2dPolyline
 66
     1
 10
0.0
 20
0.0
 30
0.0
 70
     1
 40
0.015748
 41
0.015748
 75
     8
  0
VERTEX
  5
199
100
AcDbEntity
  8
MULTILAYER
100
AcDbVertex
100
AcDb2dVertex
 10
0.064126
 20
0.04
 30
0.0
 42
1.0
  0
VERTEX
  5
19A
100
AcDbEntity
  8
MULTILAYER
100
AcDbVertex
100
AcDb2dVertex
 10
0.079874
 20
0.04
 30
0.0
 42
1.0
  0
SEQEND
  5
19B
100
AcDbEntity
  8
0
  0
POLYLINE
  5
19C
100
AcDbEntity
  8
TOPLAYER
100
AcDb2dPolyline
 66
     1
 10
0.0
 20
0.0
 30
0.0
 70
     1
 40
0.015748
 41
0.015748
 75
     8
  0
VERTEX
  5
19D
100
AcDbEntity
  8
TOPLAYER
100
AcDbVertex
100
AcDb2dVertex
 10
0.063126
 20
-0.042
 30
0.0
 42
1.0
  0
VERTEX
  5
19E
100
AcDbEntity
  8
TOPLAYER
100
AcDbVertex
100
AcDb2dVertex
 10
0.078874
 20
-0.042
 30
0.0
 42
1.0
  0
SEQEND
  5
19F
100
AcDbEntity
  8
0
  0
POLYLINE
  5
1A0
100
AcDbEntity
  8
BOTTOMLAYER
100
AcDb2dPolyline
 66
     1
 10
0.0
 20
0.0
 30
0.0
 70
     1
 40
0.015748
 41
0.015748
 75
     8
  0
VERTEX
  5
1A1
100
AcDbEntity
  8
BOTTOMLAYER
100
AcDbVertex
100
AcDb2dVertex
 10
0.063126
 20
-0.042
 30
0.0
 42
1.0
  0
VERTEX
  5
1A2
100
AcDbEntity
  8
BOTTOMLAYER
100
AcDbVertex
100
AcDb2dVertex
 10
0.078874
 20
-0.042
 30
0.0
 42
1.0
  0
SEQEND
  5
1A3
100
AcDbEntity
  8
0
  0
POLYLINE
  5
1A4
100
AcDbEntity
  8
TOPSOLDER
100
AcDb2dPolyline
 66
     1
 10
0.0
 20
0.0
 30
0.0
 70
     1
 40
0.019748
 41
0.019748
 75
     8
  0
VERTEX
  5
1A5
100
AcDbEntity
  8
TOPSOLDER
100
AcDbVertex
100
AcDb2dVertex
 10
0.061126
 20
-0.042
 30
0.0
 42
1.0
  0
VERTEX
  5
1A6
100
AcDbEntity
  8
TOPSOLDER
100
AcDbVertex
100
AcDb2dVertex
 10
0.080874
 20
-0.042
 30
0.0
 42
1.0
  0
SEQEND
  5
1A7
100
AcDbEntity
  8
0
  0
POLYLINE
  5
1A8
100
AcDbEntity
  8
BOTTOMSOLDER
100
AcDb2dPolyline
 66
     1
 10
0.0
 20
0.0
 30
0.0
 70
     1
 40
0.019748
 41
0.019748
 75
     8
  0
VERTEX
  5
1A9
100
AcDbEntity
  8
BOTTOMSOLDER
100
AcDbVertex
100
AcDb2dVertex
 10
0.061126
 20
-0.042
 30
0.0
 42
1.0
  0
VERTEX
  5
1AA
100
AcDbEntity
  8
BOTTOMSOLDER
100
AcDbVertex
100
AcDb2dVertex
 10
0.080874
 20
-0.042
 30
0.0
 42
1.0
  0
SEQEND
  5
1AB
100
AcDbEntity
  8
0
  0
POLYLINE
  5
1AC
100
AcDbEntity
  8
MULTILAYER
100
AcDb2dPolyline
 66
     1
 10
0.0
 20
0.0
 30
0.0
 70
     1
 40
0.015748
 41
0.015748
 75
     8
  0
VERTEX
  5
1AD
100
AcDbEntity
  8
MULTILAYER
100
AcDbVertex
100
AcDb2dVertex
 10
0.063126
 20
-0.042
 30
0.0
 42
1.0
  0
VERTEX
  5
1AE
100
AcDbEntity
  8
MULTILAYER
100
AcDbVertex
100
AcDb2dVertex
 10
0.078874
 20
-0.042
 30
0.0
 42
1.0
  0
SEQEND
  5
1AF
100
AcDbEntity
  8
0
  0
POLYLINE
  5
1B0
100
AcDbEntity
  8
TOPLAYER
100
AcDb2dPolyline
 66
     1
 10
0.0
 20
0.0
 30
0.0
 70
     1
 40
0.015748
 41
0.015748
 75
     8
  0
VERTEX
  5
1B1
100
AcDbEntity
  8
TOPLAYER
100
AcDbVertex
100
AcDb2dVertex
 10
-0.007874
 20
-0.082
 30
0.0
 42
1.0
  0
VERTEX
  5
1B2
100
AcDbEntity
  8
TOPLAYER
100
AcDbVertex
100
AcDb2dVertex
 10
0.007874
 20
-0.082
 30
0.0
 42
1.0
  0
SEQEND
  5
1B3
100
AcDbEntity
  8
0
  0
POLYLINE
  5
1B4
100
AcDbEntity
  8
BOTTOMLAYER
100
AcDb2dPolyline
 66
     1
 10
0.0
 20
0.0
 30
0.0
 70
     1
 40
0.015748
 41
0.015748
 75
     8
  0
VERTEX
  5
1B5
100
AcDbEntity
  8
BOTTOMLAYER
100
AcDbVertex
100
AcDb2dVertex
 10
-0.007874
 20
-0.082
 30
0.0
 42
1.0
  0
VERTEX
  5
1B6
100
AcDbEntity
  8
BOTTOMLAYER
100
AcDbVertex
100
AcDb2dVertex
 10
0.007874
 20
-0.082
 30
0.0
 42
1.0
  0
SEQEND
  5
1B7
100
AcDbEntity
  8
0
  0
POLYLINE
  5
1B8
100
AcDbEntity
  8
TOPSOLDER
100
AcDb2dPolyline
 66
     1
 10
0.0
 20
0.0
 30
0.0
 70
     1
 40
0.019748
 41
0.019748
 75
     8
  0
VERTEX
  5
1B9
100
AcDbEntity
  8
TOPSOLDER
100
AcDbVertex
100
AcDb2dVertex
 10
-0.009874
 20
-0.082
 30
0.0
 42
1.0
  0
VERTEX
  5
1BA
100
AcDbEntity
  8
TOPSOLDER
100
AcDbVertex
100
AcDb2dVertex
 10
0.009874
 20
-0.082
 30
0.0
 42
1.0
  0
SEQEND
  5
1BB
100
AcDbEntity
  8
0
  0
POLYLINE
  5
1BC
100
AcDbEntity
  8
BOTTOMSOLDER
100
AcDb2dPolyline
 66
     1
 10
0.0
 20
0.0
 30
0.0
 70
     1
 40
0.019748
 41
0.019748
 75
     8
  0
VERTEX
  5
1BD
100
AcDbEntity
  8
BOTTOMSOLDER
100
AcDbVertex
100
AcDb2dVertex
 10
-0.009874
 20
-0.082
 30
0.0
 42
1.0
  0
VERTEX
  5
1BE
100
AcDbEntity
  8
BOTTOMSOLDER
100
AcDbVertex
100
AcDb2dVertex
 10
0.009874
 20
-0.082
 30
0.0
 42
1.0
  0
SEQEND
  5
1BF
100
AcDbEntity
  8
0
  0
POLYLINE
  5
1C0
100
AcDbEntity
  8
MULTILAYER
100
AcDb2dPolyline
 66
     1
 10
0.0
 20
0.0
 30
0.0
 70
     1
 40
0.015748
 41
0.015748
 75
     8
  0
VERTEX
  5
1C1
100
AcDbEntity
  8
MULTILAYER
100
AcDbVertex
100
AcDb2dVertex
 10
-0.007874
 20
-0.082
 30
0.0
 42
1.0
  0
VERTEX
  5
1C2
100
AcDbEntity
  8
MULTILAYER
100
AcDbVertex
100
AcDb2dVertex
 10
0.007874
 20
-0.082
 30
0.0
 42
1.0
  0
SEQEND
  5
1C3
100
AcDbEntity
  8
0
  0
POLYLINE
  5
1C4
100
AcDbEntity
  8
TOPLAYER
100
AcDb2dPolyline
 66
     1
 10
0.0
 20
0.0
 30
0.0
 70
     1
 40
0.015748
 41
0.015748
 75
     8
  0
VERTEX
  5
1C5
100
AcDbEntity
  8
TOPLAYER
100
AcDbVertex
100
AcDb2dVertex
 10
-0.077874
 20
-0.042
 30
0.0
 42
1.0
  0
VERTEX
  5
1C6
100
AcDbEntity
  8
TOPLAYER
100
AcDbVertex
100
AcDb2dVertex
 10
-0.062126
 20
-0.042
 30
0.0
 42
1.0
  0
SEQEND
  5
1C7
100
AcDbEntity
  8
0
  0
POLYLINE
  5
1C8
100
AcDbEntity
  8
BOTTOMLAYER
100
AcDb2dPolyline
 66
     1
 10
0.0
 20
0.0
 30
0.0
 70
     1
 40
0.015748
 41
0.015748
 75
     8
  0
VERTEX
  5
1C9
100
AcDbEntity
  8
BOTTOMLAYER
100
AcDbVertex
100
AcDb2dVertex
 10
-0.077874
 20
-0.042
 30
0.0
 42
1.0
  0
VERTEX
  5
1CA
100
AcDbEntity
  8
BOTTOMLAYER
100
AcDbVertex
100
AcDb2dVertex
 10
-0.062126
 20
-0.042
 30
0.0
 42
1.0
  0
SEQEND
  5
1CB
100
AcDbEntity
  8
0
  0
POLYLINE
  5
1CC
100
AcDbEntity
  8
TOPSOLDER
100
AcDb2dPolyline
 66
     1
 10
0.0
 20
0.0
 30
0.0
 70
     1
 40
0.019748
 41
0.019748
 75
     8
  0
VERTEX
  5
1CD
100
AcDbEntity
  8
TOPSOLDER
100
AcDbVertex
100
AcDb2dVertex
 10
-0.079874
 20
-0.042
 30
0.0
 42
1.0
  0
VERTEX
  5
1CE
100
AcDbEntity
  8
TOPSOLDER
100
AcDbVertex
100
AcDb2dVertex
 10
-0.060126
 20
-0.042
 30
0.0
 42
1.0
  0
SEQEND
  5
1CF
100
AcDbEntity
  8
0
  0
POLYLINE
  5
1D0
100
AcDbEntity
  8
BOTTOMSOLDER
100
AcDb2dPolyline
 66
     1
 10
0.0
 20
0.0
 30
0.0
 70
     1
 40
0.019748
 41
0.019748
 75
     8
  0
VERTEX
  5
1D1
100
AcDbEntity
  8
BOTTOMSOLDER
100
AcDbVertex
100
AcDb2dVertex
 10
-0.079874
 20
-0.042
 30
0.0
 42
1.0
  0
VERTEX
  5
1D2
100
AcDbEntity
  8
BOTTOMSOLDER
100
AcDbVertex
100
AcDb2dVertex
 10
-0.060126
 20
-0.042
 30
0.0
 42
1.0
  0
SEQEND
  5
1D3
100
AcDbEntity
  8
0
  0
POLYLINE
  5
1D4
100
AcDbEntity
  8
MULTILAYER
100
AcDb2dPolyline
 66
     1
 10
0.0
 20
0.0
 30
0.0
 70
     1
 40
0.015748
 41
0.015748
 75
     8
  0
VERTEX
  5
1D5
100
AcDbEntity
  8
MULTILAYER
100
AcDbVertex
100
AcDb2dVertex
 10
-0.077874
 20
-0.042
 30
0.0
 42
1.0
  0
VERTEX
  5
1D6
100
AcDbEntity
  8
MULTILAYER
100
AcDbVertex
100
AcDb2dVertex
 10
-0.062126
 20
-0.042
 30
0.0
 42
1.0
  0
SEQEND
  5
1D7
100
AcDbEntity
  8
0
  0
POLYLINE
  5
1D8
100
AcDbEntity
  8
TOPLAYER
100
AcDb2dPolyline
 66
     1
 10
0.0
 20
0.0
 30
0.0
 70
     1
 40
0.015748
 41
0.015748
 75
     8
  0
VERTEX
  5
1D9
100
AcDbEntity
  8
TOPLAYER
100
AcDbVertex
100
AcDb2dVertex
 10
-0.079874
 20
0.04
 30
0.0
 42
1.0
  0
VERTEX
  5
1DA
100
AcDbEntity
  8
TOPLAYER
100
AcDbVertex
100
AcDb2dVertex
 10
-0.064126
 20
0.04
 30
0.0
 42
1.0
  0
SEQEND
  5
1DB
100
AcDbEntity
  8
0
  0
POLYLINE
  5
1DC
100
AcDbEntity
  8
BOTTOMLAYER
100
AcDb2dPolyline
 66
     1
 10
0.0
 20
0.0
 30
0.0
 70
     1
 40
0.015748
 41
0.015748
 75
     8
  0
VERTEX
  5
1DD
100
AcDbEntity
  8
BOTTOMLAYER
100
AcDbVertex
100
AcDb2dVertex
 10
-0.079874
 20
0.04
 30
0.0
 42
1.0
  0
VERTEX
  5
1DE
100
AcDbEntity
  8
BOTTOMLAYER
100
AcDbVertex
100
AcDb2dVertex
 10
-0.064126
 20
0.04
 30
0.0
 42
1.0
  0
SEQEND
  5
1DF
100
AcDbEntity
  8
0
  0
POLYLINE
  5
1E0
100
AcDbEntity
  8
TOPSOLDER
100
AcDb2dPolyline
 66
     1
 10
0.0
 20
0.0
 30
0.0
 70
     1
 40
0.019748
 41
0.019748
 75
     8
  0
VERTEX
  5
1E1
100
AcDbEntity
  8
TOPSOLDER
100
AcDbVertex
100
AcDb2dVertex
 10
-0.081874
 20
0.04
 30
0.0
 42
1.0
  0
VERTEX
  5
1E2
100
AcDbEntity
  8
TOPSOLDER
100
AcDbVertex
100
AcDb2dVertex
 10
-0.062126
 20
0.04
 30
0.0
 42
1.0
  0
SEQEND
  5
1E3
100
AcDbEntity
  8
0
  0
POLYLINE
  5
1E4
100
AcDbEntity
  8
BOTTOMSOLDER
100
AcDb2dPolyline
 66
     1
 10
0.0
 20
0.0
 30
0.0
 70
     1
 40
0.019748
 41
0.019748
 75
     8
  0
VERTEX
  5
1E5
100
AcDbEntity
  8
BOTTOMSOLDER
100
AcDbVertex
100
AcDb2dVertex
 10
-0.081874
 20
0.04
 30
0.0
 42
1.0
  0
VERTEX
  5
1E6
100
AcDbEntity
  8
BOTTOMSOLDER
100
AcDbVertex
100
AcDb2dVertex
 10
-0.062126
 20
0.04
 30
0.0
 42
1.0
  0
SEQEND
  5
1E7
100
AcDbEntity
  8
0
  0
POLYLINE
  5
1E8
100
AcDbEntity
  8
MULTILAYER
100
AcDb2dPolyline
 66
     1
 10
0.0
 20
0.0
 30
0.0
 70
     1
 40
0.015748
 41
0.015748
 75
     8
  0
VERTEX
  5
1E9
100
AcDbEntity
  8
MULTILAYER
100
AcDbVertex
100
AcDb2dVertex
 10
-0.079874
 20
0.04
 30
0.0
 42
1.0
  0
VERTEX
  5
1EA
100
AcDbEntity
  8
MULTILAYER
100
AcDbVertex
100
AcDb2dVertex
 10
-0.064126
 20
0.04
 30
0.0
 42
1.0
  0
SEQEND
  5
1EB
100
AcDbEntity
  8
0
  0
POLYLINE
  5
1EC
100
AcDbEntity
  8
TOPLAYER
100
AcDb2dPolyline
 66
     1
 10
0.0
 20
0.0
 30
0.0
 70
     1
 40
0.015748
 41
0.015748
 75
     8
  0
VERTEX
  5
1ED
100
AcDbEntity
  8
TOPLAYER
100
AcDbVertex
100
AcDb2dVertex
 10
-0.007874
 20
0.082
 30
0.0
 42
1.0
  0
VERTEX
  5
1EE
100
AcDbEntity
  8
TOPLAYER
100
AcDbVertex
100
AcDb2dVertex
 10
0.007874
 20
0.082
 30
0.0
 42
1.0
  0
SEQEND
  5
1EF
100
AcDbEntity
  8
0
  0
POLYLINE
  5
1F0
100
AcDbEntity
  8
BOTTOMLAYER
100
AcDb2dPolyline
 66
     1
 10
0.0
 20
0.0
 30
0.0
 70
     1
 40
0.015748
 41
0.015748
 75
     8
  0
VERTEX
  5
1F1
100
AcDbEntity
  8
BOTTOMLAYER
100
AcDbVertex
100
AcDb2dVertex
 10
-0.007874
 20
0.082
 30
0.0
 42
1.0
  0
VERTEX
  5
1F2
100
AcDbEntity
  8
BOTTOMLAYER
100
AcDbVertex
100
AcDb2dVertex
 10
0.007874
 20
0.082
 30
0.0
 42
1.0
  0
SEQEND
  5
1F3
100
AcDbEntity
  8
0
  0
POLYLINE
  5
1F4
100
AcDbEntity
  8
TOPSOLDER
100
AcDb2dPolyline
 66
     1
 10
0.0
 20
0.0
 30
0.0
 70
     1
 40
0.019748
 41
0.019748
 75
     8
  0
VERTEX
  5
1F5
100
AcDbEntity
  8
TOPSOLDER
100
AcDbVertex
100
AcDb2dVertex
 10
-0.009874
 20
0.082
 30
0.0
 42
1.0
  0
VERTEX
  5
1F6
100
AcDbEntity
  8
TOPSOLDER
100
AcDbVertex
100
AcDb2dVertex
 10
0.009874
 20
0.082
 30
0.0
 42
1.0
  0
SEQEND
  5
1F7
100
AcDbEntity
  8
0
  0
POLYLINE
  5
1F8
100
AcDbEntity
  8
BOTTOMSOLDER
100
AcDb2dPolyline
 66
     1
 10
0.0
 20
0.0
 30
0.0
 70
     1
 40
0.019748
 41
0.019748
 75
     8
  0
VERTEX
  5
1F9
100
AcDbEntity
  8
BOTTOMSOLDER
100
AcDbVertex
100
AcDb2dVertex
 10
-0.009874
 20
0.082
 30
0.0
 42
1.0
  0
VERTEX
  5
1FA
100
AcDbEntity
  8
BOTTOMSOLDER
100
AcDbVertex
100
AcDb2dVertex
 10
0.009874
 20
0.082
 30
0.0
 42
1.0
  0
SEQEND
  5
1FB
100
AcDbEntity
  8
0
  0
POLYLINE
  5
1FC
100
AcDbEntity
  8
MULTILAYER
100
AcDb2dPolyline
 66
     1
 10
0.0
 20
0.0
 30
0.0
 70
     1
 40
0.015748
 41
0.015748
 75
     8
  0
VERTEX
  5
1FD
100
AcDbEntity
  8
MULTILAYER
100
AcDbVertex
100
AcDb2dVertex
 10
-0.007874
 20
0.082
 30
0.0
 42
1.0
  0
VERTEX
  5
1FE
100
AcDbEntity
  8
MULTILAYER
100
AcDbVertex
100
AcDb2dVertex
 10
0.007874
 20
0.082
 30
0.0
 42
1.0
  0
SEQEND
  5
1FF
100
AcDbEntity
  8
0
  0
POLYLINE
  5
200
100
AcDbEntity
  8
TOPLAYER
100
AcDb2dPolyline
 66
     1
 10
0.0
 20
0.0
 30
0.0
 70
     1
 40
0.098425
 41
0.098425
 75
     8
  0
VERTEX
  5
201
100
AcDbEntity
  8
TOPLAYER
100
AcDbVertex
100
AcDb2dVertex
 10
-0.049213
 20
0.0
 30
0.0
 42
1.0
  0
VERTEX
  5
202
100
AcDbEntity
  8
TOPLAYER
100
AcDbVertex
100
AcDb2dVertex
 10
0.049213
 20
0.0
 30
0.0
 42
1.0
  0
SEQEND
  5
203
100
AcDbEntity
  8
0
  0
POLYLINE
  5
204
100
AcDbEntity
  8
BOTTOMLAYER
100
AcDb2dPolyline
 66
     1
 10
0.0
 20
0.0
 30
0.0
 70
     1
 40
0.098425
 41
0.098425
 75
     8
  0
VERTEX
  5
205
100
AcDbEntity
  8
BOTTOMLAYER
100
AcDbVertex
100
AcDb2dVertex
 10
-0.049213
 20
0.0
 30
0.0
 42
1.0
  0
VERTEX
  5
206
100
AcDbEntity
  8
BOTTOMLAYER
100
AcDbVertex
100
AcDb2dVertex
 10
0.049213
 20
0.0
 30
0.0
 42
1.0
  0
SEQEND
  5
207
100
AcDbEntity
  8
0
  0
POLYLINE
  5
208
100
AcDbEntity
  8
TOPSOLDER
100
AcDb2dPolyline
 66
     1
 10
0.0
 20
0.0
 30
0.0
 70
     1
 40
0.102425
 41
0.102425
 75
     8
  0
VERTEX
  5
209
100
AcDbEntity
  8
TOPSOLDER
100
AcDbVertex
100
AcDb2dVertex
 10
-0.051213
 20
0.0
 30
0.0
 42
1.0
  0
VERTEX
  5
20A
100
AcDbEntity
  8
TOPSOLDER
100
AcDbVertex
100
AcDb2dVertex
 10
0.051213
 20
0.0
 30
0.0
 42
1.0
  0
SEQEND
  5
20B
100
AcDbEntity
  8
0
  0
POLYLINE
  5
20C
100
AcDbEntity
  8
BOTTOMSOLDER
100
AcDb2dPolyline
 66
     1
 10
0.0
 20
0.0
 30
0.0
 70
     1
 40
0.102425
 41
0.102425
 75
     8
  0
VERTEX
  5
20D
100
AcDbEntity
  8
BOTTOMSOLDER
100
AcDbVertex
100
AcDb2dVertex
 10
-0.051213
 20
0.0
 30
0.0
 42
1.0
  0
VERTEX
  5
20E
100
AcDbEntity
  8
BOTTOMSOLDER
100
AcDbVertex
100
AcDb2dVertex
 10
0.051213
 20
0.0
 30
0.0
 42
1.0
  0
SEQEND
  5
20F
100
AcDbEntity
  8
0
  0
POLYLINE
  5
210
100
AcDbEntity
  8
MULTILAYER
100
AcDb2dPolyline
 66
     1
 10
0.0
 20
0.0
 30
0.0
 70
     1
 40
0.098425
 41
0.098425
 75
     8
  0
VERTEX
  5
211
100
AcDbEntity
  8
MULTILAYER
100
AcDbVertex
100
AcDb2dVertex
 10
-0.049213
 20
0.0
 30
0.0
 42
1.0
  0
VERTEX
  5
212
100
AcDbEntity
  8
MULTILAYER
100
AcDbVertex
100
AcDb2dVertex
 10
0.049213
 20
0.0
 30
0.0
 42
1.0
  0
SEQEND
  5
213
100
AcDbEntity
  8
0
  0
ENDBLK
  5
214
100
AcDbEntity
  8
0
100
AcDbBlockEnd
  0
BLOCK
  5
218
100
AcDbEntity
  8
0
100
AcDbBlockBegin
  2
SCREW_M3_2
 70
     0
 10
0.0
 20
0.0
 30
0.0
  3
SCREW_M3_2
  1

  0
POLYLINE
  5
219
100
AcDbEntity
  8
TOPOVERLAY
100
AcDb2dPolyline
 66
     1
 10
0.0
 20
0.0
 30
0.0
 70
     1
 40
0.01
 41
0.01
 75
     8
  0
VERTEX
  5
21A
100
AcDbEntity
  8
TOPOVERLAY
100
AcDbVertex
100
AcDb2dVertex
 10
0.11039
 20
0.0
 30
0.0
 42
1.0
  0
VERTEX
  5
21B
100
AcDbEntity
  8
TOPOVERLAY
100
AcDbVertex
100
AcDb2dVertex
 10
-0.11039
 20
0.0
 30
0.0
 42
1.0
  0
SEQEND
  5
21C
100
AcDbEntity
  8
0
  0
POLYLINE
  5
21D
100
AcDbEntity
  8
TOPOVERLAY
100
AcDb2dPolyline
 66
     1
 10
0.0
 20
0.0
 30
0.0
 70
     1
 40
0.005
 41
0.005
 75
     8
  0
VERTEX
  5
21E
100
AcDbEntity
  8
TOPOVERLAY
100
AcDbVertex
100
AcDb2dVertex
 10
0.10789
 20
0.0
 30
0.0
 42
1.0
  0
VERTEX
  5
21F
100
AcDbEntity
  8
TOPOVERLAY
100
AcDbVertex
100
AcDb2dVertex
 10
0.11289
 20
0.0
 30
0.0
 42
1.0
  0
SEQEND
  5
220
100
AcDbEntity
  8
0
  0
POLYLINE
  5
221
100
AcDbEntity
  8
TOPOVERLAY
100
AcDb2dPolyline
 66
     1
 10
0.0
 20
0.0
 30
0.0
 70
     1
 40
0.005
 41
0.005
 75
     8
  0
VERTEX
  5
222
100
AcDbEntity
  8
TOPOVERLAY
100
AcDbVertex
100
AcDb2dVertex
 10
-0.11289
 20
0.0
 30
0.0
 42
1.0
  0
VERTEX
  5
223
100
AcDbEntity
  8
TOPOVERLAY
100
AcDbVertex
100
AcDb2dVertex
 10
-0.10789
 20
0.0
 30
0.0
 42
1.0
  0
SEQEND
  5
224
100
AcDbEntity
  8
0
  0
POLYLINE
  5
225
100
AcDbEntity
  8
TOPLAYER
100
AcDb2dPolyline
 66
     1
 10
0.0
 20
0.0
 30
0.0
 70
     1
 40
0.015748
 41
0.015748
 75
     8
  0
VERTEX
  5
226
100
AcDbEntity
  8
TOPLAYER
100
AcDbVertex
100
AcDb2dVertex
 10
0.064126
 20
0.04
 30
0.0
 42
1.0
  0
VERTEX
  5
227
100
AcDbEntity
  8
TOPLAYER
100
AcDbVertex
100
AcDb2dVertex
 10
0.079874
 20
0.04
 30
0.0
 42
1.0
  0
SEQEND
  5
228
100
AcDbEntity
  8
0
  0
POLYLINE
  5
229
100
AcDbEntity
  8
BOTTOMLAYER
100
AcDb2dPolyline
 66
     1
 10
0.0
 20
0.0
 30
0.0
 70
     1
 40
0.015748
 41
0.015748
 75
     8
  0
VERTEX
  5
22A
100
AcDbEntity
  8
BOTTOMLAYER
100
AcDbVertex
100
AcDb2dVertex
 10
0.064126
 20
0.04
 30
0.0
 42
1.0
  0
VERTEX
  5
22B
100
AcDbEntity
  8
BOTTOMLAYER
100
AcDbVertex
100
AcDb2dVertex
 10
0.079874
 20
0.04
 30
0.0
 42
1.0
  0
SEQEND
  5
22C
100
AcDbEntity
  8
0
  0
POLYLINE
  5
22D
100
AcDbEntity
  8
TOPSOLDER
100
AcDb2dPolyline
 66
     1
 10
0.0
 20
0.0
 30
0.0
 70
     1
 40
0.019748
 41
0.019748
 75
     8
  0
VERTEX
  5
22E
100
AcDbEntity
  8
TOPSOLDER
100
AcDbVertex
100
AcDb2dVertex
 10
0.062126
 20
0.04
 30
0.0
 42
1.0
  0
VERTEX
  5
22F
100
AcDbEntity
  8
TOPSOLDER
100
AcDbVertex
100
AcDb2dVertex
 10
0.081874
 20
0.04
 30
0.0
 42
1.0
  0
SEQEND
  5
230
100
AcDbEntity
  8
0
  0
POLYLINE
  5
231
100
AcDbEntity
  8
BOTTOMSOLDER
100
AcDb2dPolyline
 66
     1
 10
0.0
 20
0.0
 30
0.0
 70
     1
 40
0.019748
 41
0.019748
 75
     8
  0
VERTEX
  5
232
100
AcDbEntity
  8
BOTTOMSOLDER
100
AcDbVertex
100
AcDb2dVertex
 10
0.062126
 20
0.04
 30
0.0
 42
1.0
  0
VERTEX
  5
233
100
AcDbEntity
  8
BOTTOMSOLDER
100
AcDbVertex
100
AcDb2dVertex
 10
0.081874
 20
0.04
 30
0.0
 42
1.0
  0
SEQEND
  5
234
100
AcDbEntity
  8
0
  0
POLYLINE
  5
235
100
AcDbEntity
  8
MULTILAYER
100
AcDb2dPolyline
 66
     1
 10
0.0
 20
0.0
 30
0.0
 70
     1
 40
0.015748
 41
0.015748
 75
     8
  0
VERTEX
  5
236
100
AcDbEntity
  8
MULTILAYER
100
AcDbVertex
100
AcDb2dVertex
 10
0.064126
 20
0.04
 30
0.0
 42
1.0
  0
VERTEX
  5
237
100
AcDbEntity
  8
MULTILAYER
100
AcDbVertex
100
AcDb2dVertex
 10
0.079874
 20
0.04
 30
0.0
 42
1.0
  0
SEQEND
  5
238
100
AcDbEntity
  8
0
  0
POLYLINE
  5
239
100
AcDbEntity
  8
TOPLAYER
100
AcDb2dPolyline
 66
     1
 10
0.0
 20
0.0
 30
0.0
 70
     1
 40
0.015748
 41
0.015748
 75
     8
  0
VERTEX
  5
23A
100
AcDbEntity
  8
TOPLAYER
100
AcDbVertex
100
AcDb2dVertex
 10
0.063126
 20
-0.042
 30
0.0
 42
1.0
  0
VERTEX
  5
23B
100
AcDbEntity
  8
TOPLAYER
100
AcDbVertex
100
AcDb2dVertex
 10
0.078874
 20
-0.042
 30
0.0
 42
1.0
  0
SEQEND
  5
23C
100
AcDbEntity
  8
0
  0
POLYLINE
  5
23D
100
AcDbEntity
  8
BOTTOMLAYER
100
AcDb2dPolyline
 66
     1
 10
0.0
 20
0.0
 30
0.0
 70
     1
 40
0.015748
 41
0.015748
 75
     8
  0
VERTEX
  5
23E
100
AcDbEntity
  8
BOTTOMLAYER
100
AcDbVertex
100
AcDb2dVertex
 10
0.063126
 20
-0.042
 30
0.0
 42
1.0
  0
VERTEX
  5
23F
100
AcDbEntity
  8
BOTTOMLAYER
100
AcDbVertex
100
AcDb2dVertex
 10
0.078874
 20
-0.042
 30
0.0
 42
1.0
  0
SEQEND
  5
240
100
AcDbEntity
  8
0
  0
POLYLINE
  5
241
100
AcDbEntity
  8
TOPSOLDER
100
AcDb2dPolyline
 66
     1
 10
0.0
 20
0.0
 30
0.0
 70
     1
 40
0.019748
 41
0.019748
 75
     8
  0
VERTEX
  5
242
100
AcDbEntity
  8
TOPSOLDER
100
AcDbVertex
100
AcDb2dVertex
 10
0.061126
 20
-0.042
 30
0.0
 42
1.0
  0
VERTEX
  5
243
100
AcDbEntity
  8
TOPSOLDER
100
AcDbVertex
100
AcDb2dVertex
 10
0.080874
 20
-0.042
 30
0.0
 42
1.0
  0
SEQEND
  5
244
100
AcDbEntity
  8
0
  0
POLYLINE
  5
245
100
AcDbEntity
  8
BOTTOMSOLDER
100
AcDb2dPolyline
 66
     1
 10
0.0
 20
0.0
 30
0.0
 70
     1
 40
0.019748
 41
0.019748
 75
     8
  0
VERTEX
  5
246
100
AcDbEntity
  8
BOTTOMSOLDER
100
AcDbVertex
100
AcDb2dVertex
 10
0.061126
 20
-0.042
 30
0.0
 42
1.0
  0
VERTEX
  5
247
100
AcDbEntity
  8
BOTTOMSOLDER
100
AcDbVertex
100
AcDb2dVertex
 10
0.080874
 20
-0.042
 30
0.0
 42
1.0
  0
SEQEND
  5
248
100
AcDbEntity
  8
0
  0
POLYLINE
  5
249
100
AcDbEntity
  8
MULTILAYER
100
AcDb2dPolyline
 66
     1
 10
0.0
 20
0.0
 30
0.0
 70
     1
 40
0.015748
 41
0.015748
 75
     8
  0
VERTEX
  5
24A
100
AcDbEntity
  8
MULTILAYER
100
AcDbVertex
100
AcDb2dVertex
 10
0.063126
 20
-0.042
 30
0.0
 42
1.0
  0
VERTEX
  5
24B
100
AcDbEntity
  8
MULTILAYER
100
AcDbVertex
100
AcDb2dVertex
 10
0.078874
 20
-0.042
 30
0.0
 42
1.0
  0
SEQEND
  5
24C
100
AcDbEntity
  8
0
  0
POLYLINE
  5
24D
100
AcDbEntity
  8
TOPLAYER
100
AcDb2dPolyline
 66
     1
 10
0.0
 20
0.0
 30
0.0
 70
     1
 40
0.015748
 41
0.015748
 75
     8
  0
VERTEX
  5
24E
100
AcDbEntity
  8
TOPLAYER
100
AcDbVertex
100
AcDb2dVertex
 10
-0.007874
 20
-0.082
 30
0.0
 42
1.0
  0
VERTEX
  5
24F
100
AcDbEntity
  8
TOPLAYER
100
AcDbVertex
100
AcDb2dVertex
 10
0.007874
 20
-0.082
 30
0.0
 42
1.0
  0
SEQEND
  5
250
100
AcDbEntity
  8
0
  0
POLYLINE
  5
251
100
AcDbEntity
  8
BOTTOMLAYER
100
AcDb2dPolyline
 66
     1
 10
0.0
 20
0.0
 30
0.0
 70
     1
 40
0.015748
 41
0.015748
 75
     8
  0
VERTEX
  5
252
100
AcDbEntity
  8
BOTTOMLAYER
100
AcDbVertex
100
AcDb2dVertex
 10
-0.007874
 20
-0.082
 30
0.0
 42
1.0
  0
VERTEX
  5
253
100
AcDbEntity
  8
BOTTOMLAYER
100
AcDbVertex
100
AcDb2dVertex
 10
0.007874
 20
-0.082
 30
0.0
 42
1.0
  0
SEQEND
  5
254
100
AcDbEntity
  8
0
  0
POLYLINE
  5
255
100
AcDbEntity
  8
TOPSOLDER
100
AcDb2dPolyline
 66
     1
 10
0.0
 20
0.0
 30
0.0
 70
     1
 40
0.019748
 41
0.019748
 75
     8
  0
VERTEX
  5
256
100
AcDbEntity
  8
TOPSOLDER
100
AcDbVertex
100
AcDb2dVertex
 10
-0.009874
 20
-0.082
 30
0.0
 42
1.0
  0
VERTEX
  5
257
100
AcDbEntity
  8
TOPSOLDER
100
AcDbVertex
100
AcDb2dVertex
 10
0.009874
 20
-0.082
 30
0.0
 42
1.0
  0
SEQEND
  5
258
100
AcDbEntity
  8
0
  0
POLYLINE
  5
259
100
AcDbEntity
  8
BOTTOMSOLDER
100
AcDb2dPolyline
 66
     1
 10
0.0
 20
0.0
 30
0.0
 70
     1
 40
0.019748
 41
0.019748
 75
     8
  0
VERTEX
  5
25A
100
AcDbEntity
  8
BOTTOMSOLDER
100
AcDbVertex
100
AcDb2dVertex
 10
-0.009874
 20
-0.082
 30
0.0
 42
1.0
  0
VERTEX
  5
25B
100
AcDbEntity
  8
BOTTOMSOLDER
100
AcDbVertex
100
AcDb2dVertex
 10
0.009874
 20
-0.082
 30
0.0
 42
1.0
  0
SEQEND
  5
25C
100
AcDbEntity
  8
0
  0
POLYLINE
  5
25D
100
AcDbEntity
  8
MULTILAYER
100
AcDb2dPolyline
 66
     1
 10
0.0
 20
0.0
 30
0.0
 70
     1
 40
0.015748
 41
0.015748
 75
     8
  0
VERTEX
  5
25E
100
AcDbEntity
  8
MULTILAYER
100
AcDbVertex
100
AcDb2dVertex
 10
-0.007874
 20
-0.082
 30
0.0
 42
1.0
  0
VERTEX
  5
25F
100
AcDbEntity
  8
MULTILAYER
100
AcDbVertex
100
AcDb2dVertex
 10
0.007874
 20
-0.082
 30
0.0
 42
1.0
  0
SEQEND
  5
260
100
AcDbEntity
  8
0
  0
POLYLINE
  5
261
100
AcDbEntity
  8
TOPLAYER
100
AcDb2dPolyline
 66
     1
 10
0.0
 20
0.0
 30
0.0
 70
     1
 40
0.015748
 41
0.015748
 75
     8
  0
VERTEX
  5
262
100
AcDbEntity
  8
TOPLAYER
100
AcDbVertex
100
AcDb2dVertex
 10
-0.077874
 20
-0.042
 30
0.0
 42
1.0
  0
VERTEX
  5
263
100
AcDbEntity
  8
TOPLAYER
100
AcDbVertex
100
AcDb2dVertex
 10
-0.062126
 20
-0.042
 30
0.0
 42
1.0
  0
SEQEND
  5
264
100
AcDbEntity
  8
0
  0
POLYLINE
  5
265
100
AcDbEntity
  8
BOTTOMLAYER
100
AcDb2dPolyline
 66
     1
 10
0.0
 20
0.0
 30
0.0
 70
     1
 40
0.015748
 41
0.015748
 75
     8
  0
VERTEX
  5
266
100
AcDbEntity
  8
BOTTOMLAYER
100
AcDbVertex
100
AcDb2dVertex
 10
-0.077874
 20
-0.042
 30
0.0
 42
1.0
  0
VERTEX
  5
267
100
AcDbEntity
  8
BOTTOMLAYER
100
AcDbVertex
100
AcDb2dVertex
 10
-0.062126
 20
-0.042
 30
0.0
 42
1.0
  0
SEQEND
  5
268
100
AcDbEntity
  8
0
  0
POLYLINE
  5
269
100
AcDbEntity
  8
TOPSOLDER
100
AcDb2dPolyline
 66
     1
 10
0.0
 20
0.0
 30
0.0
 70
     1
 40
0.019748
 41
0.019748
 75
     8
  0
VERTEX
  5
26A
100
AcDbEntity
  8
TOPSOLDER
100
AcDbVertex
100
AcDb2dVertex
 10
-0.079874
 20
-0.042
 30
0.0
 42
1.0
  0
VERTEX
  5
26B
100
AcDbEntity
  8
TOPSOLDER
100
AcDbVertex
100
AcDb2dVertex
 10
-0.060126
 20
-0.042
 30
0.0
 42
1.0
  0
SEQEND
  5
26C
100
AcDbEntity
  8
0
  0
POLYLINE
  5
26D
100
AcDbEntity
  8
BOTTOMSOLDER
100
AcDb2dPolyline
 66
     1
 10
0.0
 20
0.0
 30
0.0
 70
     1
 40
0.019748
 41
0.019748
 75
     8
  0
VERTEX
  5
26E
100
AcDbEntity
  8
BOTTOMSOLDER
100
AcDbVertex
100
AcDb2dVertex
 10
-0.079874
 20
-0.042
 30
0.0
 42
1.0
  0
VERTEX
  5
26F
100
AcDbEntity
  8
BOTTOMSOLDER
100
AcDbVertex
100
AcDb2dVertex
 10
-0.060126
 20
-0.042
 30
0.0
 42
1.0
  0
SEQEND
  5
270
100
AcDbEntity
  8
0
  0
POLYLINE
  5
271
100
AcDbEntity
  8
MULTILAYER
100
AcDb2dPolyline
 66
     1
 10
0.0
 20
0.0
 30
0.0
 70
     1
 40
0.015748
 41
0.015748
 75
     8
  0
VERTEX
  5
272
100
AcDbEntity
  8
MULTILAYER
100
AcDbVertex
100
AcDb2dVertex
 10
-0.077874
 20
-0.042
 30
0.0
 42
1.0
  0
VERTEX
  5
273
100
AcDbEntity
  8
MULTILAYER
100
AcDbVertex
100
AcDb2dVertex
 10
-0.062126
 20
-0.042
 30
0.0
 42
1.0
  0
SEQEND
  5
274
100
AcDbEntity
  8
0
  0
POLYLINE
  5
275
100
AcDbEntity
  8
TOPLAYER
100
AcDb2dPolyline
 66
     1
 10
0.0
 20
0.0
 30
0.0
 70
     1
 40
0.015748
 41
0.015748
 75
     8
  0
VERTEX
  5
276
100
AcDbEntity
  8
TOPLAYER
100
AcDbVertex
100
AcDb2dVertex
 10
-0.079874
 20
0.04
 30
0.0
 42
1.0
  0
VERTEX
  5
277
100
AcDbEntity
  8
TOPLAYER
100
AcDbVertex
100
AcDb2dVertex
 10
-0.064126
 20
0.04
 30
0.0
 42
1.0
  0
SEQEND
  5
278
100
AcDbEntity
  8
0
  0
POLYLINE
  5
279
100
AcDbEntity
  8
BOTTOMLAYER
100
AcDb2dPolyline
 66
     1
 10
0.0
 20
0.0
 30
0.0
 70
     1
 40
0.015748
 41
0.015748
 75
     8
  0
VERTEX
  5
27A
100
AcDbEntity
  8
BOTTOMLAYER
100
AcDbVertex
100
AcDb2dVertex
 10
-0.079874
 20
0.04
 30
0.0
 42
1.0
  0
VERTEX
  5
27B
100
AcDbEntity
  8
BOTTOMLAYER
100
AcDbVertex
100
AcDb2dVertex
 10
-0.064126
 20
0.04
 30
0.0
 42
1.0
  0
SEQEND
  5
27C
100
AcDbEntity
  8
0
  0
POLYLINE
  5
27D
100
AcDbEntity
  8
TOPSOLDER
100
AcDb2dPolyline
 66
     1
 10
0.0
 20
0.0
 30
0.0
 70
     1
 40
0.019748
 41
0.019748
 75
     8
  0
VERTEX
  5
27E
100
AcDbEntity
  8
TOPSOLDER
100
AcDbVertex
100
AcDb2dVertex
 10
-0.081874
 20
0.04
 30
0.0
 42
1.0
  0
VERTEX
  5
27F
100
AcDbEntity
  8
TOPSOLDER
100
AcDbVertex
100
AcDb2dVertex
 10
-0.062126
 20
0.04
 30
0.0
 42
1.0
  0
SEQEND
  5
280
100
AcDbEntity
  8
0
  0
POLYLINE
  5
281
100
AcDbEntity
  8
BOTTOMSOLDER
100
AcDb2dPolyline
 66
     1
 10
0.0
 20
0.0
 30
0.0
 70
     1
 40
0.019748
 41
0.019748
 75
     8
  0
VERTEX
  5
282
100
AcDbEntity
  8
BOTTOMSOLDER
100
AcDbVertex
100
AcDb2dVertex
 10
-0.081874
 20
0.04
 30
0.0
 42
1.0
  0
VERTEX
  5
283
100
AcDbEntity
  8
BOTTOMSOLDER
100
AcDbVertex
100
AcDb2dVertex
 10
-0.062126
 20
0.04
 30
0.0
 42
1.0
  0
SEQEND
  5
284
100
AcDbEntity
  8
0
  0
POLYLINE
  5
285
100
AcDbEntity
  8
MULTILAYER
100
AcDb2dPolyline
 66
     1
 10
0.0
 20
0.0
 30
0.0
 70
     1
 40
0.015748
 41
0.015748
 75
     8
  0
VERTEX
  5
286
100
AcDbEntity
  8
MULTILAYER
100
AcDbVertex
100
AcDb2dVertex
 10
-0.079874
 20
0.04
 30
0.0
 42
1.0
  0
VERTEX
  5
287
100
AcDbEntity
  8
MULTILAYER
100
AcDbVertex
100
AcDb2dVertex
 10
-0.064126
 20
0.04
 30
0.0
 42
1.0
  0
SEQEND
  5
288
100
AcDbEntity
  8
0
  0
POLYLINE
  5
289
100
AcDbEntity
  8
TOPLAYER
100
AcDb2dPolyline
 66
     1
 10
0.0
 20
0.0
 30
0.0
 70
     1
 40
0.015748
 41
0.015748
 75
     8
  0
VERTEX
  5
28A
100
AcDbEntity
  8
TOPLAYER
100
AcDbVertex
100
AcDb2dVertex
 10
-0.007874
 20
0.082
 30
0.0
 42
1.0
  0
VERTEX
  5
28B
100
AcDbEntity
  8
TOPLAYER
100
AcDbVertex
100
AcDb2dVertex
 10
0.007874
 20
0.082
 30
0.0
 42
1.0
  0
SEQEND
  5
28C
100
AcDbEntity
  8
0
  0
POLYLINE
  5
28D
100
AcDbEntity
  8
BOTTOMLAYER
100
AcDb2dPolyline
 66
     1
 10
0.0
 20
0.0
 30
0.0
 70
     1
 40
0.015748
 41
0.015748
 75
     8
  0
VERTEX
  5
28E
100
AcDbEntity
  8
BOTTOMLAYER
100
AcDbVertex
100
AcDb2dVertex
 10
-0.007874
 20
0.082
 30
0.0
 42
1.0
  0
VERTEX
  5
28F
100
AcDbEntity
  8
BOTTOMLAYER
100
AcDbVertex
100
AcDb2dVertex
 10
0.007874
 20
0.082
 30
0.0
 42
1.0
  0
SEQEND
  5
290
100
AcDbEntity
  8
0
  0
POLYLINE
  5
291
100
AcDbEntity
  8
TOPSOLDER
100
AcDb2dPolyline
 66
     1
 10
0.0
 20
0.0
 30
0.0
 70
     1
 40
0.019748
 41
0.019748
 75
     8
  0
VERTEX
  5
292
100
AcDbEntity
  8
TOPSOLDER
100
AcDbVertex
100
AcDb2dVertex
 10
-0.009874
 20
0.082
 30
0.0
 42
1.0
  0
VERTEX
  5
293
100
AcDbEntity
  8
TOPSOLDER
100
AcDbVertex
100
AcDb2dVertex
 10
0.009874
 20
0.082
 30
0.0
 42
1.0
  0
SEQEND
  5
294
100
AcDbEntity
  8
0
  0
POLYLINE
  5
295
100
AcDbEntity
  8
BOTTOMSOLDER
100
AcDb2dPolyline
 66
     1
 10
0.0
 20
0.0
 30
0.0
 70
     1
 40
0.019748
 41
0.019748
 75
     8
  0
VERTEX
  5
296
100
AcDbEntity
  8
BOTTOMSOLDER
100
AcDbVertex
100
AcDb2dVertex
 10
-0.009874
 20
0.082
 30
0.0
 42
1.0
  0
VERTEX
  5
297
100
AcDbEntity
  8
BOTTOMSOLDER
100
AcDbVertex
100
AcDb2dVertex
 10
0.009874
 20
0.082
 30
0.0
 42
1.0
  0
SEQEND
  5
298
100
AcDbEntity
  8
0
  0
POLYLINE
  5
299
100
AcDbEntity
  8
MULTILAYER
100
AcDb2dPolyline
 66
     1
 10
0.0
 20
0.0
 30
0.0
 70
     1
 40
0.015748
 41
0.015748
 75
     8
  0
VERTEX
  5
29A
100
AcDbEntity
  8
MULTILAYER
100
AcDbVertex
100
AcDb2dVertex
 10
-0.007874
 20
0.082
 30
0.0
 42
1.0
  0
VERTEX
  5
29B
100
AcDbEntity
  8
MULTILAYER
100
AcDbVertex
100
AcDb2dVertex
 10
0.007874
 20
0.082
 30
0.0
 42
1.0
  0
SEQEND
  5
29C
100
AcDbEntity
  8
0
  0
POLYLINE
  5
29D
100
AcDbEntity
  8
TOPLAYER
100
AcDb2dPolyline
 66
     1
 10
0.0
 20
0.0
 30
0.0
 70
     1
 40
0.098425
 41
0.098425
 75
     8
  0
VERTEX
  5
29E
100
AcDbEntity
  8
TOPLAYER
100
AcDbVertex
100
AcDb2dVertex
 10
-0.049213
 20
0.0
 30
0.0
 42
1.0
  0
VERTEX
  5
29F
100
AcDbEntity
  8
TOPLAYER
100
AcDbVertex
100
AcDb2dVertex
 10
0.049213
 20
0.0
 30
0.0
 42
1.0
  0
SEQEND
  5
2A0
100
AcDbEntity
  8
0
  0
POLYLINE
  5
2A1
100
AcDbEntity
  8
BOTTOMLAYER
100
AcDb2dPolyline
 66
     1
 10
0.0
 20
0.0
 30
0.0
 70
     1
 40
0.098425
 41
0.098425
 75
     8
  0
VERTEX
  5
2A2
100
AcDbEntity
  8
BOTTOMLAYER
100
AcDbVertex
100
AcDb2dVertex
 10
-0.049213
 20
0.0
 30
0.0
 42
1.0
  0
VERTEX
  5
2A3
100
AcDbEntity
  8
BOTTOMLAYER
100
AcDbVertex
100
AcDb2dVertex
 10
0.049213
 20
0.0
 30
0.0
 42
1.0
  0
SEQEND
  5
2A4
100
AcDbEntity
  8
0
  0
POLYLINE
  5
2A5
100
AcDbEntity
  8
TOPSOLDER
100
AcDb2dPolyline
 66
     1
 10
0.0
 20
0.0
 30
0.0
 70
     1
 40
0.102425
 41
0.102425
 75
     8
  0
VERTEX
  5
2A6
100
AcDbEntity
  8
TOPSOLDER
100
AcDbVertex
100
AcDb2dVertex
 10
-0.051213
 20
0.0
 30
0.0
 42
1.0
  0
VERTEX
  5
2A7
100
AcDbEntity
  8
TOPSOLDER
100
AcDbVertex
100
AcDb2dVertex
 10
0.051213
 20
0.0
 30
0.0
 42
1.0
  0
SEQEND
  5
2A8
100
AcDbEntity
  8
0
  0
POLYLINE
  5
2A9
100
AcDbEntity
  8
BOTTOMSOLDER
100
AcDb2dPolyline
 66
     1
 10
0.0
 20
0.0
 30
0.0
 70
     1
 40
0.102425
 41
0.102425
 75
     8
  0
VERTEX
  5
2AA
100
AcDbEntity
  8
BOTTOMSOLDER
100
AcDbVertex
100
AcDb2dVertex
 10
-0.051213
 20
0.0
 30
0.0
 42
1.0
  0
VERTEX
  5
2AB
100
AcDbEntity
  8
BOTTOMSOLDER
100
AcDbVertex
100
AcDb2dVertex
 10
0.051213
 20
0.0
 30
0.0
 42
1.0
  0
SEQEND
  5
2AC
100
AcDbEntity
  8
0
  0
POLYLINE
  5
2AD
100
AcDbEntity
  8
MULTILAYER
100
AcDb2dPolyline
 66
     1
 10
0.0
 20
0.0
 30
0.0
 70
     1
 40
0.098425
 41
0.098425
 75
     8
  0
VERTEX
  5
2AE
100
AcDbEntity
  8
MULTILAYER
100
AcDbVertex
100
AcDb2dVertex
 10
-0.049213
 20
0.0
 30
0.0
 42
1.0
  0
VERTEX
  5
2AF
100
AcDbEntity
  8
MULTILAYER
100
AcDbVertex
100
AcDb2dVertex
 10
0.049213
 20
0.0
 30
0.0
 42
1.0
  0
SEQEND
  5
2B0
100
AcDbEntity
  8
0
  0
ENDBLK
  5
2B1
100
AcDbEntity
  8
0
100
AcDbBlockEnd
  0
BLOCK
  5
2B5
100
AcDbEntity
  8
0
100
AcDbBlockBegin
  2
SCREW_M3_3
 70
     0
 10
0.0
 20
0.0
 30
0.0
  3
SCREW_M3_3
  1

  0
POLYLINE
  5
2B6
100
AcDbEntity
  8
TOPOVERLAY
100
AcDb2dPolyline
 66
     1
 10
0.0
 20
0.0
 30
0.0
 70
     1
 40
0.01
 41
0.01
 75
     8
  0
VERTEX
  5
2B7
100
AcDbEntity
  8
TOPOVERLAY
100
AcDbVertex
100
AcDb2dVertex
 10
0.11039
 20
0.0
 30
0.0
 42
1.0
  0
VERTEX
  5
2B8
100
AcDbEntity
  8
TOPOVERLAY
100
AcDbVertex
100
AcDb2dVertex
 10
-0.11039
 20
0.0
 30
0.0
 42
1.0
  0
SEQEND
  5
2B9
100
AcDbEntity
  8
0
  0
POLYLINE
  5
2BA
100
AcDbEntity
  8
TOPOVERLAY
100
AcDb2dPolyline
 66
     1
 10
0.0
 20
0.0
 30
0.0
 70
     1
 40
0.005
 41
0.005
 75
     8
  0
VERTEX
  5
2BB
100
AcDbEntity
  8
TOPOVERLAY
100
AcDbVertex
100
AcDb2dVertex
 10
0.10789
 20
0.0
 30
0.0
 42
1.0
  0
VERTEX
  5
2BC
100
AcDbEntity
  8
TOPOVERLAY
100
AcDbVertex
100
AcDb2dVertex
 10
0.11289
 20
0.0
 30
0.0
 42
1.0
  0
SEQEND
  5
2BD
100
AcDbEntity
  8
0
  0
POLYLINE
  5
2BE
100
AcDbEntity
  8
TOPOVERLAY
100
AcDb2dPolyline
 66
     1
 10
0.0
 20
0.0
 30
0.0
 70
     1
 40
0.005
 41
0.005
 75
     8
  0
VERTEX
  5
2BF
100
AcDbEntity
  8
TOPOVERLAY
100
AcDbVertex
100
AcDb2dVertex
 10
-0.11289
 20
0.0
 30
0.0
 42
1.0
  0
VERTEX
  5
2C0
100
AcDbEntity
  8
TOPOVERLAY
100
AcDbVertex
100
AcDb2dVertex
 10
-0.10789
 20
0.0
 30
0.0
 42
1.0
  0
SEQEND
  5
2C1
100
AcDbEntity
  8
0
  0
POLYLINE
  5
2C2
100
AcDbEntity
  8
TOPLAYER
100
AcDb2dPolyline
 66
     1
 10
0.0
 20
0.0
 30
0.0
 70
     1
 40
0.098425
 41
0.098425
 75
     8
  0
VERTEX
  5
2C3
100
AcDbEntity
  8
TOPLAYER
100
AcDbVertex
100
AcDb2dVertex
 10
-0.049213
 20
0.0
 30
0.0
 42
1.0
  0
VERTEX
  5
2C4
100
AcDbEntity
  8
TOPLAYER
100
AcDbVertex
100
AcDb2dVertex
 10
0.049213
 20
0.0
 30
0.0
 42
1.0
  0
SEQEND
  5
2C5
100
AcDbEntity
  8
0
  0
POLYLINE
  5
2C6
100
AcDbEntity
  8
BOTTOMLAYER
100
AcDb2dPolyline
 66
     1
 10
0.0
 20
0.0
 30
0.0
 70
     1
 40
0.098425
 41
0.098425
 75
     8
  0
VERTEX
  5
2C7
100
AcDbEntity
  8
BOTTOMLAYER
100
AcDbVertex
100
AcDb2dVertex
 10
-0.049213
 20
0.0
 30
0.0
 42
1.0
  0
VERTEX
  5
2C8
100
AcDbEntity
  8
BOTTOMLAYER
100
AcDbVertex
100
AcDb2dVertex
 10
0.049213
 20
0.0
 30
0.0
 42
1.0
  0
SEQEND
  5
2C9
100
AcDbEntity
  8
0
  0
POLYLINE
  5
2CA
100
AcDbEntity
  8
TOPSOLDER
100
AcDb2dPolyline
 66
     1
 10
0.0
 20
0.0
 30
0.0
 70
     1
 40
0.102425
 41
0.102425
 75
     8
  0
VERTEX
  5
2CB
100
AcDbEntity
  8
TOPSOLDER
100
AcDbVertex
100
AcDb2dVertex
 10
-0.051213
 20
0.0
 30
0.0
 42
1.0
  0
VERTEX
  5
2CC
100
AcDbEntity
  8
TOPSOLDER
100
AcDbVertex
100
AcDb2dVertex
 10
0.051213
 20
0.0
 30
0.0
 42
1.0
  0
SEQEND
  5
2CD
100
AcDbEntity
  8
0
  0
POLYLINE
  5
2CE
100
AcDbEntity
  8
BOTTOMSOLDER
100
AcDb2dPolyline
 66
     1
 10
0.0
 20
0.0
 30
0.0
 70
     1
 40
0.102425
 41
0.102425
 75
     8
  0
VERTEX
  5
2CF
100
AcDbEntity
  8
BOTTOMSOLDER
100
AcDbVertex
100
AcDb2dVertex
 10
-0.051213
 20
0.0
 30
0.0
 42
1.0
  0
VERTEX
  5
2D0
100
AcDbEntity
  8
BOTTOMSOLDER
100
AcDbVertex
100
AcDb2dVertex
 10
0.051213
 20
0.0
 30
0.0
 42
1.0
  0
SEQEND
  5
2D1
100
AcDbEntity
  8
0
  0
POLYLINE
  5
2D2
100
AcDbEntity
  8
MULTILAYER
100
AcDb2dPolyline
 66
     1
 10
0.0
 20
0.0
 30
0.0
 70
     1
 40
0.098425
 41
0.098425
 75
     8
  0
VERTEX
  5
2D3
100
AcDbEntity
  8
MULTILAYER
100
AcDbVertex
100
AcDb2dVertex
 10
-0.049213
 20
0.0
 30
0.0
 42
1.0
  0
VERTEX
  5
2D4
100
AcDbEntity
  8
MULTILAYER
100
AcDbVertex
100
AcDb2dVertex
 10
0.049213
 20
0.0
 30
0.0
 42
1.0
  0
SEQEND
  5
2D5
100
AcDbEntity
  8
0
  0
POLYLINE
  5
2D6
100
AcDbEntity
  8
TOPLAYER
100
AcDb2dPolyline
 66
     1
 10
0.0
 20
0.0
 30
0.0
 70
     1
 40
0.015748
 41
0.015748
 75
     8
  0
VERTEX
  5
2D7
100
AcDbEntity
  8
TOPLAYER
100
AcDbVertex
100
AcDb2dVertex
 10
-0.007874
 20
0.082
 30
0.0
 42
1.0
  0
VERTEX
  5
2D8
100
AcDbEntity
  8
TOPLAYER
100
AcDbVertex
100
AcDb2dVertex
 10
0.007874
 20
0.082
 30
0.0
 42
1.0
  0
SEQEND
  5
2D9
100
AcDbEntity
  8
0
  0
POLYLINE
  5
2DA
100
AcDbEntity
  8
BOTTOMLAYER
100
AcDb2dPolyline
 66
     1
 10
0.0
 20
0.0
 30
0.0
 70
     1
 40
0.015748
 41
0.015748
 75
     8
  0
VERTEX
  5
2DB
100
AcDbEntity
  8
BOTTOMLAYER
100
AcDbVertex
100
AcDb2dVertex
 10
-0.007874
 20
0.082
 30
0.0
 42
1.0
  0
VERTEX
  5
2DC
100
AcDbEntity
  8
BOTTOMLAYER
100
AcDbVertex
100
AcDb2dVertex
 10
0.007874
 20
0.082
 30
0.0
 42
1.0
  0
SEQEND
  5
2DD
100
AcDbEntity
  8
0
  0
POLYLINE
  5
2DE
100
AcDbEntity
  8
TOPSOLDER
100
AcDb2dPolyline
 66
     1
 10
0.0
 20
0.0
 30
0.0
 70
     1
 40
0.019748
 41
0.019748
 75
     8
  0
VERTEX
  5
2DF
100
AcDbEntity
  8
TOPSOLDER
100
AcDbVertex
100
AcDb2dVertex
 10
-0.009874
 20
0.082
 30
0.0
 42
1.0
  0
VERTEX
  5
2E0
100
AcDbEntity
  8
TOPSOLDER
100
AcDbVertex
100
AcDb2dVertex
 10
0.009874
 20
0.082
 30
0.0
 42
1.0
  0
SEQEND
  5
2E1
100
AcDbEntity
  8
0
  0
POLYLINE
  5
2E2
100
AcDbEntity
  8
BOTTOMSOLDER
100
AcDb2dPolyline
 66
     1
 10
0.0
 20
0.0
 30
0.0
 70
     1
 40
0.019748
 41
0.019748
 75
     8
  0
VERTEX
  5
2E3
100
AcDbEntity
  8
BOTTOMSOLDER
100
AcDbVertex
100
AcDb2dVertex
 10
-0.009874
 20
0.082
 30
0.0
 42
1.0
  0
VERTEX
  5
2E4
100
AcDbEntity
  8
BOTTOMSOLDER
100
AcDbVertex
100
AcDb2dVertex
 10
0.009874
 20
0.082
 30
0.0
 42
1.0
  0
SEQEND
  5
2E5
100
AcDbEntity
  8
0
  0
POLYLINE
  5
2E6
100
AcDbEntity
  8
MULTILAYER
100
AcDb2dPolyline
 66
     1
 10
0.0
 20
0.0
 30
0.0
 70
     1
 40
0.015748
 41
0.015748
 75
     8
  0
VERTEX
  5
2E7
100
AcDbEntity
  8
MULTILAYER
100
AcDbVertex
100
AcDb2dVertex
 10
-0.007874
 20
0.082
 30
0.0
 42
1.0
  0
VERTEX
  5
2E8
100
AcDbEntity
  8
MULTILAYER
100
AcDbVertex
100
AcDb2dVertex
 10
0.007874
 20
0.082
 30
0.0
 42
1.0
  0
SEQEND
  5
2E9
100
AcDbEntity
  8
0
  0
POLYLINE
  5
2EA
100
AcDbEntity
  8
TOPLAYER
100
AcDb2dPolyline
 66
     1
 10
0.0
 20
0.0
 30
0.0
 70
     1
 40
0.015748
 41
0.015748
 75
     8
  0
VERTEX
  5
2EB
100
AcDbEntity
  8
TOPLAYER
100
AcDbVertex
100
AcDb2dVertex
 10
-0.079874
 20
0.04
 30
0.0
 42
1.0
  0
VERTEX
  5
2EC
100
AcDbEntity
  8
TOPLAYER
100
AcDbVertex
100
AcDb2dVertex
 10
-0.064126
 20
0.04
 30
0.0
 42
1.0
  0
SEQEND
  5
2ED
100
AcDbEntity
  8
0
  0
POLYLINE
  5
2EE
100
AcDbEntity
  8
BOTTOMLAYER
100
AcDb2dPolyline
 66
     1
 10
0.0
 20
0.0
 30
0.0
 70
     1
 40
0.015748
 41
0.015748
 75
     8
  0
VERTEX
  5
2EF
100
AcDbEntity
  8
BOTTOMLAYER
100
AcDbVertex
100
AcDb2dVertex
 10
-0.079874
 20
0.04
 30
0.0
 42
1.0
  0
VERTEX
  5
2F0
100
AcDbEntity
  8
BOTTOMLAYER
100
AcDbVertex
100
AcDb2dVertex
 10
-0.064126
 20
0.04
 30
0.0
 42
1.0
  0
SEQEND
  5
2F1
100
AcDbEntity
  8
0
  0
POLYLINE
  5
2F2
100
AcDbEntity
  8
TOPSOLDER
100
AcDb2dPolyline
 66
     1
 10
0.0
 20
0.0
 30
0.0
 70
     1
 40
0.019748
 41
0.019748
 75
     8
  0
VERTEX
  5
2F3
100
AcDbEntity
  8
TOPSOLDER
100
AcDbVertex
100
AcDb2dVertex
 10
-0.081874
 20
0.04
 30
0.0
 42
1.0
  0
VERTEX
  5
2F4
100
AcDbEntity
  8
TOPSOLDER
100
AcDbVertex
100
AcDb2dVertex
 10
-0.062126
 20
0.04
 30
0.0
 42
1.0
  0
SEQEND
  5
2F5
100
AcDbEntity
  8
0
  0
POLYLINE
  5
2F6
100
AcDbEntity
  8
BOTTOMSOLDER
100
AcDb2dPolyline
 66
     1
 10
0.0
 20
0.0
 30
0.0
 70
     1
 40
0.019748
 41
0.019748
 75
     8
  0
VERTEX
  5
2F7
100
AcDbEntity
  8
BOTTOMSOLDER
100
AcDbVertex
100
AcDb2dVertex
 10
-0.081874
 20
0.04
 30
0.0
 42
1.0
  0
VERTEX
  5
2F8
100
AcDbEntity
  8
BOTTOMSOLDER
100
AcDbVertex
100
AcDb2dVertex
 10
-0.062126
 20
0.04
 30
0.0
 42
1.0
  0
SEQEND
  5
2F9
100
AcDbEntity
  8
0
  0
POLYLINE
  5
2FA
100
AcDbEntity
  8
MULTILAYER
100
AcDb2dPolyline
 66
     1
 10
0.0
 20
0.0
 30
0.0
 70
     1
 40
0.015748
 41
0.015748
 75
     8
  0
VERTEX
  5
2FB
100
AcDbEntity
  8
MULTILAYER
100
AcDbVertex
100
AcDb2dVertex
 10
-0.079874
 20
0.04
 30
0.0
 42
1.0
  0
VERTEX
  5
2FC
100
AcDbEntity
  8
MULTILAYER
100
AcDbVertex
100
AcDb2dVertex
 10
-0.064126
 20
0.04
 30
0.0
 42
1.0
  0
SEQEND
  5
2FD
100
AcDbEntity
  8
0
  0
POLYLINE
  5
2FE
100
AcDbEntity
  8
TOPLAYER
100
AcDb2dPolyline
 66
     1
 10
0.0
 20
0.0
 30
0.0
 70
     1
 40
0.015748
 41
0.015748
 75
     8
  0
VERTEX
  5
2FF
100
AcDbEntity
  8
TOPLAYER
100
AcDbVertex
100
AcDb2dVertex
 10
-0.077874
 20
-0.042
 30
0.0
 42
1.0
  0
VERTEX
  5
300
100
AcDbEntity
  8
TOPLAYER
100
AcDbVertex
100
AcDb2dVertex
 10
-0.062126
 20
-0.042
 30
0.0
 42
1.0
  0
SEQEND
  5
301
100
AcDbEntity
  8
0
  0
POLYLINE
  5
302
100
AcDbEntity
  8
BOTTOMLAYER
100
AcDb2dPolyline
 66
     1
 10
0.0
 20
0.0
 30
0.0
 70
     1
 40
0.015748
 41
0.015748
 75
     8
  0
VERTEX
  5
303
100
AcDbEntity
  8
BOTTOMLAYER
100
AcDbVertex
100
AcDb2dVertex
 10
-0.077874
 20
-0.042
 30
0.0
 42
1.0
  0
VERTEX
  5
304
100
AcDbEntity
  8
BOTTOMLAYER
100
AcDbVertex
100
AcDb2dVertex
 10
-0.062126
 20
-0.042
 30
0.0
 42
1.0
  0
SEQEND
  5
305
100
AcDbEntity
  8
0
  0
POLYLINE
  5
306
100
AcDbEntity
  8
TOPSOLDER
100
AcDb2dPolyline
 66
     1
 10
0.0
 20
0.0
 30
0.0
 70
     1
 40
0.019748
 41
0.019748
 75
     8
  0
VERTEX
  5
307
100
AcDbEntity
  8
TOPSOLDER
100
AcDbVertex
100
AcDb2dVertex
 10
-0.079874
 20
-0.042
 30
0.0
 42
1.0
  0
VERTEX
  5
308
100
AcDbEntity
  8
TOPSOLDER
100
AcDbVertex
100
AcDb2dVertex
 10
-0.060126
 20
-0.042
 30
0.0
 42
1.0
  0
SEQEND
  5
309
100
AcDbEntity
  8
0
  0
POLYLINE
  5
30A
100
AcDbEntity
  8
BOTTOMSOLDER
100
AcDb2dPolyline
 66
     1
 10
0.0
 20
0.0
 30
0.0
 70
     1
 40
0.019748
 41
0.019748
 75
     8
  0
VERTEX
  5
30B
100
AcDbEntity
  8
BOTTOMSOLDER
100
AcDbVertex
100
AcDb2dVertex
 10
-0.079874
 20
-0.042
 30
0.0
 42
1.0
  0
VERTEX
  5
30C
100
AcDbEntity
  8
BOTTOMSOLDER
100
AcDbVertex
100
AcDb2dVertex
 10
-0.060126
 20
-0.042
 30
0.0
 42
1.0
  0
SEQEND
  5
30D
100
AcDbEntity
  8
0
  0
POLYLINE
  5
30E
100
AcDbEntity
  8
MULTILAYER
100
AcDb2dPolyline
 66
     1
 10
0.0
 20
0.0
 30
0.0
 70
     1
 40
0.015748
 41
0.015748
 75
     8
  0
VERTEX
  5
30F
100
AcDbEntity
  8
MULTILAYER
100
AcDbVertex
100
AcDb2dVertex
 10
-0.077874
 20
-0.042
 30
0.0
 42
1.0
  0
VERTEX
  5
310
100
AcDbEntity
  8
MULTILAYER
100
AcDbVertex
100
AcDb2dVertex
 10
-0.062126
 20
-0.042
 30
0.0
 42
1.0
  0
SEQEND
  5
311
100
AcDbEntity
  8
0
  0
POLYLINE
  5
312
100
AcDbEntity
  8
TOPLAYER
100
AcDb2dPolyline
 66
     1
 10
0.0
 20
0.0
 30
0.0
 70
     1
 40
0.015748
 41
0.015748
 75
     8
  0
VERTEX
  5
313
100
AcDbEntity
  8
TOPLAYER
100
AcDbVertex
100
AcDb2dVertex
 10
-0.007874
 20
-0.082
 30
0.0
 42
1.0
  0
VERTEX
  5
314
100
AcDbEntity
  8
TOPLAYER
100
AcDbVertex
100
AcDb2dVertex
 10
0.007874
 20
-0.082
 30
0.0
 42
1.0
  0
SEQEND
  5
315
100
AcDbEntity
  8
0
  0
POLYLINE
  5
316
100
AcDbEntity
  8
BOTTOMLAYER
100
AcDb2dPolyline
 66
     1
 10
0.0
 20
0.0
 30
0.0
 70
     1
 40
0.015748
 41
0.015748
 75
     8
  0
VERTEX
  5
317
100
AcDbEntity
  8
BOTTOMLAYER
100
AcDbVertex
100
AcDb2dVertex
 10
-0.007874
 20
-0.082
 30
0.0
 42
1.0
  0
VERTEX
  5
318
100
AcDbEntity
  8
BOTTOMLAYER
100
AcDbVertex
100
AcDb2dVertex
 10
0.007874
 20
-0.082
 30
0.0
 42
1.0
  0
SEQEND
  5
319
100
AcDbEntity
  8
0
  0
POLYLINE
  5
31A
100
AcDbEntity
  8
TOPSOLDER
100
AcDb2dPolyline
 66
     1
 10
0.0
 20
0.0
 30
0.0
 70
     1
 40
0.019748
 41
0.019748
 75
     8
  0
VERTEX
  5
31B
100
AcDbEntity
  8
TOPSOLDER
100
AcDbVertex
100
AcDb2dVertex
 10
-0.009874
 20
-0.082
 30
0.0
 42
1.0
  0
VERTEX
  5
31C
100
AcDbEntity
  8
TOPSOLDER
100
AcDbVertex
100
AcDb2dVertex
 10
0.009874
 20
-0.082
 30
0.0
 42
1.0
  0
SEQEND
  5
31D
100
AcDbEntity
  8
0
  0
POLYLINE
  5
31E
100
AcDbEntity
  8
BOTTOMSOLDER
100
AcDb2dPolyline
 66
     1
 10
0.0
 20
0.0
 30
0.0
 70
     1
 40
0.019748
 41
0.019748
 75
     8
  0
VERTEX
  5
31F
100
AcDbEntity
  8
BOTTOMSOLDER
100
AcDbVertex
100
AcDb2dVertex
 10
-0.009874
 20
-0.082
 30
0.0
 42
1.0
  0
VERTEX
  5
320
100
AcDbEntity
  8
BOTTOMSOLDER
100
AcDbVertex
100
AcDb2dVertex
 10
0.009874
 20
-0.082
 30
0.0
 42
1.0
  0
SEQEND
  5
321
100
AcDbEntity
  8
0
  0
POLYLINE
  5
322
100
AcDbEntity
  8
MULTILAYER
100
AcDb2dPolyline
 66
     1
 10
0.0
 20
0.0
 30
0.0
 70
     1
 40
0.015748
 41
0.015748
 75
     8
  0
VERTEX
  5
323
100
AcDbEntity
  8
MULTILAYER
100
AcDbVertex
100
AcDb2dVertex
 10
-0.007874
 20
-0.082
 30
0.0
 42
1.0
  0
VERTEX
  5
324
100
AcDbEntity
  8
MULTILAYER
100
AcDbVertex
100
AcDb2dVertex
 10
0.007874
 20
-0.082
 30
0.0
 42
1.0
  0
SEQEND
  5
325
100
AcDbEntity
  8
0
  0
POLYLINE
  5
326
100
AcDbEntity
  8
TOPLAYER
100
AcDb2dPolyline
 66
     1
 10
0.0
 20
0.0
 30
0.0
 70
     1
 40
0.015748
 41
0.015748
 75
     8
  0
VERTEX
  5
327
100
AcDbEntity
  8
TOPLAYER
100
AcDbVertex
100
AcDb2dVertex
 10
0.063126
 20
-0.042
 30
0.0
 42
1.0
  0
VERTEX
  5
328
100
AcDbEntity
  8
TOPLAYER
100
AcDbVertex
100
AcDb2dVertex
 10
0.078874
 20
-0.042
 30
0.0
 42
1.0
  0
SEQEND
  5
329
100
AcDbEntity
  8
0
  0
POLYLINE
  5
32A
100
AcDbEntity
  8
BOTTOMLAYER
100
AcDb2dPolyline
 66
     1
 10
0.0
 20
0.0
 30
0.0
 70
     1
 40
0.015748
 41
0.015748
 75
     8
  0
VERTEX
  5
32B
100
AcDbEntity
  8
BOTTOMLAYER
100
AcDbVertex
100
AcDb2dVertex
 10
0.063126
 20
-0.042
 30
0.0
 42
1.0
  0
VERTEX
  5
32C
100
AcDbEntity
  8
BOTTOMLAYER
100
AcDbVertex
100
AcDb2dVertex
 10
0.078874
 20
-0.042
 30
0.0
 42
1.0
  0
SEQEND
  5
32D
100
AcDbEntity
  8
0
  0
POLYLINE
  5
32E
100
AcDbEntity
  8
TOPSOLDER
100
AcDb2dPolyline
 66
     1
 10
0.0
 20
0.0
 30
0.0
 70
     1
 40
0.019748
 41
0.019748
 75
     8
  0
VERTEX
  5
32F
100
AcDbEntity
  8
TOPSOLDER
100
AcDbVertex
100
AcDb2dVertex
 10
0.061126
 20
-0.042
 30
0.0
 42
1.0
  0
VERTEX
  5
330
100
AcDbEntity
  8
TOPSOLDER
100
AcDbVertex
100
AcDb2dVertex
 10
0.080874
 20
-0.042
 30
0.0
 42
1.0
  0
SEQEND
  5
331
100
AcDbEntity
  8
0
  0
POLYLINE
  5
332
100
AcDbEntity
  8
BOTTOMSOLDER
100
AcDb2dPolyline
 66
     1
 10
0.0
 20
0.0
 30
0.0
 70
     1
 40
0.019748
 41
0.019748
 75
     8
  0
VERTEX
  5
333
100
AcDbEntity
  8
BOTTOMSOLDER
100
AcDbVertex
100
AcDb2dVertex
 10
0.061126
 20
-0.042
 30
0.0
 42
1.0
  0
VERTEX
  5
334
100
AcDbEntity
  8
BOTTOMSOLDER
100
AcDbVertex
100
AcDb2dVertex
 10
0.080874
 20
-0.042
 30
0.0
 42
1.0
  0
SEQEND
  5
335
100
AcDbEntity
  8
0
  0
POLYLINE
  5
336
100
AcDbEntity
  8
MULTILAYER
100
AcDb2dPolyline
 66
     1
 10
0.0
 20
0.0
 30
0.0
 70
     1
 40
0.015748
 41
0.015748
 75
     8
  0
VERTEX
  5
337
100
AcDbEntity
  8
MULTILAYER
100
AcDbVertex
100
AcDb2dVertex
 10
0.063126
 20
-0.042
 30
0.0
 42
1.0
  0
VERTEX
  5
338
100
AcDbEntity
  8
MULTILAYER
100
AcDbVertex
100
AcDb2dVertex
 10
0.078874
 20
-0.042
 30
0.0
 42
1.0
  0
SEQEND
  5
339
100
AcDbEntity
  8
0
  0
POLYLINE
  5
33A
100
AcDbEntity
  8
TOPLAYER
100
AcDb2dPolyline
 66
     1
 10
0.0
 20
0.0
 30
0.0
 70
     1
 40
0.015748
 41
0.015748
 75
     8
  0
VERTEX
  5
33B
100
AcDbEntity
  8
TOPLAYER
100
AcDbVertex
100
AcDb2dVertex
 10
0.064126
 20
0.04
 30
0.0
 42
1.0
  0
VERTEX
  5
33C
100
AcDbEntity
  8
TOPLAYER
100
AcDbVertex
100
AcDb2dVertex
 10
0.079874
 20
0.04
 30
0.0
 42
1.0
  0
SEQEND
  5
33D
100
AcDbEntity
  8
0
  0
POLYLINE
  5
33E
100
AcDbEntity
  8
BOTTOMLAYER
100
AcDb2dPolyline
 66
     1
 10
0.0
 20
0.0
 30
0.0
 70
     1
 40
0.015748
 41
0.015748
 75
     8
  0
VERTEX
  5
33F
100
AcDbEntity
  8
BOTTOMLAYER
100
AcDbVertex
100
AcDb2dVertex
 10
0.064126
 20
0.04
 30
0.0
 42
1.0
  0
VERTEX
  5
340
100
AcDbEntity
  8
BOTTOMLAYER
100
AcDbVertex
100
AcDb2dVertex
 10
0.079874
 20
0.04
 30
0.0
 42
1.0
  0
SEQEND
  5
341
100
AcDbEntity
  8
0
  0
POLYLINE
  5
342
100
AcDbEntity
  8
TOPSOLDER
100
AcDb2dPolyline
 66
     1
 10
0.0
 20
0.0
 30
0.0
 70
     1
 40
0.019748
 41
0.019748
 75
     8
  0
VERTEX
  5
343
100
AcDbEntity
  8
TOPSOLDER
100
AcDbVertex
100
AcDb2dVertex
 10
0.062126
 20
0.04
 30
0.0
 42
1.0
  0
VERTEX
  5
344
100
AcDbEntity
  8
TOPSOLDER
100
AcDbVertex
100
AcDb2dVertex
 10
0.081874
 20
0.04
 30
0.0
 42
1.0
  0
SEQEND
  5
345
100
AcDbEntity
  8
0
  0
POLYLINE
  5
346
100
AcDbEntity
  8
BOTTOMSOLDER
100
AcDb2dPolyline
 66
     1
 10
0.0
 20
0.0
 30
0.0
 70
     1
 40
0.019748
 41
0.019748
 75
     8
  0
VERTEX
  5
347
100
AcDbEntity
  8
BOTTOMSOLDER
100
AcDbVertex
100
AcDb2dVertex
 10
0.062126
 20
0.04
 30
0.0
 42
1.0
  0
VERTEX
  5
348
100
AcDbEntity
  8
BOTTOMSOLDER
100
AcDbVertex
100
AcDb2dVertex
 10
0.081874
 20
0.04
 30
0.0
 42
1.0
  0
SEQEND
  5
349
100
AcDbEntity
  8
0
  0
POLYLINE
  5
34A
100
AcDbEntity
  8
MULTILAYER
100
AcDb2dPolyline
 66
     1
 10
0.0
 20
0.0
 30
0.0
 70
     1
 40
0.015748
 41
0.015748
 75
     8
  0
VERTEX
  5
34B
100
AcDbEntity
  8
MULTILAYER
100
AcDbVertex
100
AcDb2dVertex
 10
0.064126
 20
0.04
 30
0.0
 42
1.0
  0
VERTEX
  5
34C
100
AcDbEntity
  8
MULTILAYER
100
AcDbVertex
100
AcDb2dVertex
 10
0.079874
 20
0.04
 30
0.0
 42
1.0
  0
SEQEND
  5
34D
100
AcDbEntity
  8
0
  0
ENDBLK
  5
34E
100
AcDbEntity
  8
0
100
AcDbBlockEnd
  0
BLOCK
  5
352
100
AcDbEntity
  8
0
100
AcDbBlockBegin
  2
SCREW_M3_4
 70
     0
 10
0.0
 20
0.0
 30
0.0
  3
SCREW_M3_4
  1

  0
POLYLINE
  5
353
100
AcDbEntity
  8
TOPOVERLAY
100
AcDb2dPolyline
 66
     1
 10
0.0
 20
0.0
 30
0.0
 70
     1
 40
0.01
 41
0.01
 75
     8
  0
VERTEX
  5
354
100
AcDbEntity
  8
TOPOVERLAY
100
AcDbVertex
100
AcDb2dVertex
 10
0.11039
 20
0.0
 30
0.0
 42
1.0
  0
VERTEX
  5
355
100
AcDbEntity
  8
TOPOVERLAY
100
AcDbVertex
100
AcDb2dVertex
 10
-0.11039
 20
0.0
 30
0.0
 42
1.0
  0
SEQEND
  5
356
100
AcDbEntity
  8
0
  0
POLYLINE
  5
357
100
AcDbEntity
  8
TOPOVERLAY
100
AcDb2dPolyline
 66
     1
 10
0.0
 20
0.0
 30
0.0
 70
     1
 40
0.005
 41
0.005
 75
     8
  0
VERTEX
  5
358
100
AcDbEntity
  8
TOPOVERLAY
100
AcDbVertex
100
AcDb2dVertex
 10
0.10789
 20
0.0
 30
0.0
 42
1.0
  0
VERTEX
  5
359
100
AcDbEntity
  8
TOPOVERLAY
100
AcDbVertex
100
AcDb2dVertex
 10
0.11289
 20
0.0
 30
0.0
 42
1.0
  0
SEQEND
  5
35A
100
AcDbEntity
  8
0
  0
POLYLINE
  5
35B
100
AcDbEntity
  8
TOPOVERLAY
100
AcDb2dPolyline
 66
     1
 10
0.0
 20
0.0
 30
0.0
 70
     1
 40
0.005
 41
0.005
 75
     8
  0
VERTEX
  5
35C
100
AcDbEntity
  8
TOPOVERLAY
100
AcDbVertex
100
AcDb2dVertex
 10
-0.11289
 20
0.0
 30
0.0
 42
1.0
  0
VERTEX
  5
35D
100
AcDbEntity
  8
TOPOVERLAY
100
AcDbVertex
100
AcDb2dVertex
 10
-0.10789
 20
0.0
 30
0.0
 42
1.0
  0
SEQEND
  5
35E
100
AcDbEntity
  8
0
  0
POLYLINE
  5
35F
100
AcDbEntity
  8
TOPLAYER
100
AcDb2dPolyline
 66
     1
 10
0.0
 20
0.0
 30
0.0
 70
     1
 40
0.015748
 41
0.015748
 75
     8
  0
VERTEX
  5
360
100
AcDbEntity
  8
TOPLAYER
100
AcDbVertex
100
AcDb2dVertex
 10
0.064126
 20
0.04
 30
0.0
 42
1.0
  0
VERTEX
  5
361
100
AcDbEntity
  8
TOPLAYER
100
AcDbVertex
100
AcDb2dVertex
 10
0.079874
 20
0.04
 30
0.0
 42
1.0
  0
SEQEND
  5
362
100
AcDbEntity
  8
0
  0
POLYLINE
  5
363
100
AcDbEntity
  8
BOTTOMLAYER
100
AcDb2dPolyline
 66
     1
 10
0.0
 20
0.0
 30
0.0
 70
     1
 40
0.015748
 41
0.015748
 75
     8
  0
VERTEX
  5
364
100
AcDbEntity
  8
BOTTOMLAYER
100
AcDbVertex
100
AcDb2dVertex
 10
0.064126
 20
0.04
 30
0.0
 42
1.0
  0
VERTEX
  5
365
100
AcDbEntity
  8
BOTTOMLAYER
100
AcDbVertex
100
AcDb2dVertex
 10
0.079874
 20
0.04
 30
0.0
 42
1.0
  0
SEQEND
  5
366
100
AcDbEntity
  8
0
  0
POLYLINE
  5
367
100
AcDbEntity
  8
TOPSOLDER
100
AcDb2dPolyline
 66
     1
 10
0.0
 20
0.0
 30
0.0
 70
     1
 40
0.019748
 41
0.019748
 75
     8
  0
VERTEX
  5
368
100
AcDbEntity
  8
TOPSOLDER
100
AcDbVertex
100
AcDb2dVertex
 10
0.062126
 20
0.04
 30
0.0
 42
1.0
  0
VERTEX
  5
369
100
AcDbEntity
  8
TOPSOLDER
100
AcDbVertex
100
AcDb2dVertex
 10
0.081874
 20
0.04
 30
0.0
 42
1.0
  0
SEQEND
  5
36A
100
AcDbEntity
  8
0
  0
POLYLINE
  5
36B
100
AcDbEntity
  8
BOTTOMSOLDER
100
AcDb2dPolyline
 66
     1
 10
0.0
 20
0.0
 30
0.0
 70
     1
 40
0.019748
 41
0.019748
 75
     8
  0
VERTEX
  5
36C
100
AcDbEntity
  8
BOTTOMSOLDER
100
AcDbVertex
100
AcDb2dVertex
 10
0.062126
 20
0.04
 30
0.0
 42
1.0
  0
VERTEX
  5
36D
100
AcDbEntity
  8
BOTTOMSOLDER
100
AcDbVertex
100
AcDb2dVertex
 10
0.081874
 20
0.04
 30
0.0
 42
1.0
  0
SEQEND
  5
36E
100
AcDbEntity
  8
0
  0
POLYLINE
  5
36F
100
AcDbEntity
  8
MULTILAYER
100
AcDb2dPolyline
 66
     1
 10
0.0
 20
0.0
 30
0.0
 70
     1
 40
0.015748
 41
0.015748
 75
     8
  0
VERTEX
  5
370
100
AcDbEntity
  8
MULTILAYER
100
AcDbVertex
100
AcDb2dVertex
 10
0.064126
 20
0.04
 30
0.0
 42
1.0
  0
VERTEX
  5
371
100
AcDbEntity
  8
MULTILAYER
100
AcDbVertex
100
AcDb2dVertex
 10
0.079874
 20
0.04
 30
0.0
 42
1.0
  0
SEQEND
  5
372
100
AcDbEntity
  8
0
  0
POLYLINE
  5
373
100
AcDbEntity
  8
TOPLAYER
100
AcDb2dPolyline
 66
     1
 10
0.0
 20
0.0
 30
0.0
 70
     1
 40
0.015748
 41
0.015748
 75
     8
  0
VERTEX
  5
374
100
AcDbEntity
  8
TOPLAYER
100
AcDbVertex
100
AcDb2dVertex
 10
0.063126
 20
-0.042
 30
0.0
 42
1.0
  0
VERTEX
  5
375
100
AcDbEntity
  8
TOPLAYER
100
AcDbVertex
100
AcDb2dVertex
 10
0.078874
 20
-0.042
 30
0.0
 42
1.0
  0
SEQEND
  5
376
100
AcDbEntity
  8
0
  0
POLYLINE
  5
377
100
AcDbEntity
  8
BOTTOMLAYER
100
AcDb2dPolyline
 66
     1
 10
0.0
 20
0.0
 30
0.0
 70
     1
 40
0.015748
 41
0.015748
 75
     8
  0
VERTEX
  5
378
100
AcDbEntity
  8
BOTTOMLAYER
100
AcDbVertex
100
AcDb2dVertex
 10
0.063126
 20
-0.042
 30
0.0
 42
1.0
  0
VERTEX
  5
379
100
AcDbEntity
  8
BOTTOMLAYER
100
AcDbVertex
100
AcDb2dVertex
 10
0.078874
 20
-0.042
 30
0.0
 42
1.0
  0
SEQEND
  5
37A
100
AcDbEntity
  8
0
  0
POLYLINE
  5
37B
100
AcDbEntity
  8
TOPSOLDER
100
AcDb2dPolyline
 66
     1
 10
0.0
 20
0.0
 30
0.0
 70
     1
 40
0.019748
 41
0.019748
 75
     8
  0
VERTEX
  5
37C
100
AcDbEntity
  8
TOPSOLDER
100
AcDbVertex
100
AcDb2dVertex
 10
0.061126
 20
-0.042
 30
0.0
 42
1.0
  0
VERTEX
  5
37D
100
AcDbEntity
  8
TOPSOLDER
100
AcDbVertex
100
AcDb2dVertex
 10
0.080874
 20
-0.042
 30
0.0
 42
1.0
  0
SEQEND
  5
37E
100
AcDbEntity
  8
0
  0
POLYLINE
  5
37F
100
AcDbEntity
  8
BOTTOMSOLDER
100
AcDb2dPolyline
 66
     1
 10
0.0
 20
0.0
 30
0.0
 70
     1
 40
0.019748
 41
0.019748
 75
     8
  0
VERTEX
  5
380
100
AcDbEntity
  8
BOTTOMSOLDER
100
AcDbVertex
100
AcDb2dVertex
 10
0.061126
 20
-0.042
 30
0.0
 42
1.0
  0
VERTEX
  5
381
100
AcDbEntity
  8
BOTTOMSOLDER
100
AcDbVertex
100
AcDb2dVertex
 10
0.080874
 20
-0.042
 30
0.0
 42
1.0
  0
SEQEND
  5
382
100
AcDbEntity
  8
0
  0
POLYLINE
  5
383
100
AcDbEntity
  8
MULTILAYER
100
AcDb2dPolyline
 66
     1
 10
0.0
 20
0.0
 30
0.0
 70
     1
 40
0.015748
 41
0.015748
 75
     8
  0
VERTEX
  5
384
100
AcDbEntity
  8
MULTILAYER
100
AcDbVertex
100
AcDb2dVertex
 10
0.063126
 20
-0.042
 30
0.0
 42
1.0
  0
VERTEX
  5
385
100
AcDbEntity
  8
MULTILAYER
100
AcDbVertex
100
AcDb2dVertex
 10
0.078874
 20
-0.042
 30
0.0
 42
1.0
  0
SEQEND
  5
386
100
AcDbEntity
  8
0
  0
POLYLINE
  5
387
100
AcDbEntity
  8
TOPLAYER
100
AcDb2dPolyline
 66
     1
 10
0.0
 20
0.0
 30
0.0
 70
     1
 40
0.015748
 41
0.015748
 75
     8
  0
VERTEX
  5
388
100
AcDbEntity
  8
TOPLAYER
100
AcDbVertex
100
AcDb2dVertex
 10
-0.007874
 20
-0.082
 30
0.0
 42
1.0
  0
VERTEX
  5
389
100
AcDbEntity
  8
TOPLAYER
100
AcDbVertex
100
AcDb2dVertex
 10
0.007874
 20
-0.082
 30
0.0
 42
1.0
  0
SEQEND
  5
38A
100
AcDbEntity
  8
0
  0
POLYLINE
  5
38B
100
AcDbEntity
  8
BOTTOMLAYER
100
AcDb2dPolyline
 66
     1
 10
0.0
 20
0.0
 30
0.0
 70
     1
 40
0.015748
 41
0.015748
 75
     8
  0
VERTEX
  5
38C
100
AcDbEntity
  8
BOTTOMLAYER
100
AcDbVertex
100
AcDb2dVertex
 10
-0.007874
 20
-0.082
 30
0.0
 42
1.0
  0
VERTEX
  5
38D
100
AcDbEntity
  8
BOTTOMLAYER
100
AcDbVertex
100
AcDb2dVertex
 10
0.007874
 20
-0.082
 30
0.0
 42
1.0
  0
SEQEND
  5
38E
100
AcDbEntity
  8
0
  0
POLYLINE
  5
38F
100
AcDbEntity
  8
TOPSOLDER
100
AcDb2dPolyline
 66
     1
 10
0.0
 20
0.0
 30
0.0
 70
     1
 40
0.019748
 41
0.019748
 75
     8
  0
VERTEX
  5
390
100
AcDbEntity
  8
TOPSOLDER
100
AcDbVertex
100
AcDb2dVertex
 10
-0.009874
 20
-0.082
 30
0.0
 42
1.0
  0
VERTEX
  5
391
100
AcDbEntity
  8
TOPSOLDER
100
AcDbVertex
100
AcDb2dVertex
 10
0.009874
 20
-0.082
 30
0.0
 42
1.0
  0
SEQEND
  5
392
100
AcDbEntity
  8
0
  0
POLYLINE
  5
393
100
AcDbEntity
  8
BOTTOMSOLDER
100
AcDb2dPolyline
 66
     1
 10
0.0
 20
0.0
 30
0.0
 70
     1
 40
0.019748
 41
0.019748
 75
     8
  0
VERTEX
  5
394
100
AcDbEntity
  8
BOTTOMSOLDER
100
AcDbVertex
100
AcDb2dVertex
 10
-0.009874
 20
-0.082
 30
0.0
 42
1.0
  0
VERTEX
  5
395
100
AcDbEntity
  8
BOTTOMSOLDER
100
AcDbVertex
100
AcDb2dVertex
 10
0.009874
 20
-0.082
 30
0.0
 42
1.0
  0
SEQEND
  5
396
100
AcDbEntity
  8
0
  0
POLYLINE
  5
397
100
AcDbEntity
  8
MULTILAYER
100
AcDb2dPolyline
 66
     1
 10
0.0
 20
0.0
 30
0.0
 70
     1
 40
0.015748
 41
0.015748
 75
     8
  0
VERTEX
  5
398
100
AcDbEntity
  8
MULTILAYER
100
AcDbVertex
100
AcDb2dVertex
 10
-0.007874
 20
-0.082
 30
0.0
 42
1.0
  0
VERTEX
  5
399
100
AcDbEntity
  8
MULTILAYER
100
AcDbVertex
100
AcDb2dVertex
 10
0.007874
 20
-0.082
 30
0.0
 42
1.0
  0
SEQEND
  5
39A
100
AcDbEntity
  8
0
  0
POLYLINE
  5
39B
100
AcDbEntity
  8
TOPLAYER
100
AcDb2dPolyline
 66
     1
 10
0.0
 20
0.0
 30
0.0
 70
     1
 40
0.015748
 41
0.015748
 75
     8
  0
VERTEX
  5
39C
100
AcDbEntity
  8
TOPLAYER
100
AcDbVertex
100
AcDb2dVertex
 10
-0.077874
 20
-0.042
 30
0.0
 42
1.0
  0
VERTEX
  5
39D
100
AcDbEntity
  8
TOPLAYER
100
AcDbVertex
100
AcDb2dVertex
 10
-0.062126
 20
-0.042
 30
0.0
 42
1.0
  0
SEQEND
  5
39E
100
AcDbEntity
  8
0
  0
POLYLINE
  5
39F
100
AcDbEntity
  8
BOTTOMLAYER
100
AcDb2dPolyline
 66
     1
 10
0.0
 20
0.0
 30
0.0
 70
     1
 40
0.015748
 41
0.015748
 75
     8
  0
VERTEX
  5
3A0
100
AcDbEntity
  8
BOTTOMLAYER
100
AcDbVertex
100
AcDb2dVertex
 10
-0.077874
 20
-0.042
 30
0.0
 42
1.0
  0
VERTEX
  5
3A1
100
AcDbEntity
  8
BOTTOMLAYER
100
AcDbVertex
100
AcDb2dVertex
 10
-0.062126
 20
-0.042
 30
0.0
 42
1.0
  0
SEQEND
  5
3A2
100
AcDbEntity
  8
0
  0
POLYLINE
  5
3A3
100
AcDbEntity
  8
TOPSOLDER
100
AcDb2dPolyline
 66
     1
 10
0.0
 20
0.0
 30
0.0
 70
     1
 40
0.019748
 41
0.019748
 75
     8
  0
VERTEX
  5
3A4
100
AcDbEntity
  8
TOPSOLDER
100
AcDbVertex
100
AcDb2dVertex
 10
-0.079874
 20
-0.042
 30
0.0
 42
1.0
  0
VERTEX
  5
3A5
100
AcDbEntity
  8
TOPSOLDER
100
AcDbVertex
100
AcDb2dVertex
 10
-0.060126
 20
-0.042
 30
0.0
 42
1.0
  0
SEQEND
  5
3A6
100
AcDbEntity
  8
0
  0
POLYLINE
  5
3A7
100
AcDbEntity
  8
BOTTOMSOLDER
100
AcDb2dPolyline
 66
     1
 10
0.0
 20
0.0
 30
0.0
 70
     1
 40
0.019748
 41
0.019748
 75
     8
  0
VERTEX
  5
3A8
100
AcDbEntity
  8
BOTTOMSOLDER
100
AcDbVertex
100
AcDb2dVertex
 10
-0.079874
 20
-0.042
 30
0.0
 42
1.0
  0
VERTEX
  5
3A9
100
AcDbEntity
  8
BOTTOMSOLDER
100
AcDbVertex
100
AcDb2dVertex
 10
-0.060126
 20
-0.042
 30
0.0
 42
1.0
  0
SEQEND
  5
3AA
100
AcDbEntity
  8
0
  0
POLYLINE
  5
3AB
100
AcDbEntity
  8
MULTILAYER
100
AcDb2dPolyline
 66
     1
 10
0.0
 20
0.0
 30
0.0
 70
     1
 40
0.015748
 41
0.015748
 75
     8
  0
VERTEX
  5
3AC
100
AcDbEntity
  8
MULTILAYER
100
AcDbVertex
100
AcDb2dVertex
 10
-0.077874
 20
-0.042
 30
0.0
 42
1.0
  0
VERTEX
  5
3AD
100
AcDbEntity
  8
MULTILAYER
100
AcDbVertex
100
AcDb2dVertex
 10
-0.062126
 20
-0.042
 30
0.0
 42
1.0
  0
SEQEND
  5
3AE
100
AcDbEntity
  8
0
  0
POLYLINE
  5
3AF
100
AcDbEntity
  8
TOPLAYER
100
AcDb2dPolyline
 66
     1
 10
0.0
 20
0.0
 30
0.0
 70
     1
 40
0.015748
 41
0.015748
 75
     8
  0
VERTEX
  5
3B0
100
AcDbEntity
  8
TOPLAYER
100
AcDbVertex
100
AcDb2dVertex
 10
-0.079874
 20
0.04
 30
0.0
 42
1.0
  0
VERTEX
  5
3B1
100
AcDbEntity
  8
TOPLAYER
100
AcDbVertex
100
AcDb2dVertex
 10
-0.064126
 20
0.04
 30
0.0
 42
1.0
  0
SEQEND
  5
3B2
100
AcDbEntity
  8
0
  0
POLYLINE
  5
3B3
100
AcDbEntity
  8
BOTTOMLAYER
100
AcDb2dPolyline
 66
     1
 10
0.0
 20
0.0
 30
0.0
 70
     1
 40
0.015748
 41
0.015748
 75
     8
  0
VERTEX
  5
3B4
100
AcDbEntity
  8
BOTTOMLAYER
100
AcDbVertex
100
AcDb2dVertex
 10
-0.079874
 20
0.04
 30
0.0
 42
1.0
  0
VERTEX
  5
3B5
100
AcDbEntity
  8
BOTTOMLAYER
100
AcDbVertex
100
AcDb2dVertex
 10
-0.064126
 20
0.04
 30
0.0
 42
1.0
  0
SEQEND
  5
3B6
100
AcDbEntity
  8
0
  0
POLYLINE
  5
3B7
100
AcDbEntity
  8
TOPSOLDER
100
AcDb2dPolyline
 66
     1
 10
0.0
 20
0.0
 30
0.0
 70
     1
 40
0.019748
 41
0.019748
 75
     8
  0
VERTEX
  5
3B8
100
AcDbEntity
  8
TOPSOLDER
100
AcDbVertex
100
AcDb2dVertex
 10
-0.081874
 20
0.04
 30
0.0
 42
1.0
  0
VERTEX
  5
3B9
100
AcDbEntity
  8
TOPSOLDER
100
AcDbVertex
100
AcDb2dVertex
 10
-0.062126
 20
0.04
 30
0.0
 42
1.0
  0
SEQEND
  5
3BA
100
AcDbEntity
  8
0
  0
POLYLINE
  5
3BB
100
AcDbEntity
  8
BOTTOMSOLDER
100
AcDb2dPolyline
 66
     1
 10
0.0
 20
0.0
 30
0.0
 70
     1
 40
0.019748
 41
0.019748
 75
     8
  0
VERTEX
  5
3BC
100
AcDbEntity
  8
BOTTOMSOLDER
100
AcDbVertex
100
AcDb2dVertex
 10
-0.081874
 20
0.04
 30
0.0
 42
1.0
  0
VERTEX
  5
3BD
100
AcDbEntity
  8
BOTTOMSOLDER
100
AcDbVertex
100
AcDb2dVertex
 10
-0.062126
 20
0.04
 30
0.0
 42
1.0
  0
SEQEND
  5
3BE
100
AcDbEntity
  8
0
  0
POLYLINE
  5
3BF
100
AcDbEntity
  8
MULTILAYER
100
AcDb2dPolyline
 66
     1
 10
0.0
 20
0.0
 30
0.0
 70
     1
 40
0.015748
 41
0.015748
 75
     8
  0
VERTEX
  5
3C0
100
AcDbEntity
  8
MULTILAYER
100
AcDbVertex
100
AcDb2dVertex
 10
-0.079874
 20
0.04
 30
0.0
 42
1.0
  0
VERTEX
  5
3C1
100
AcDbEntity
  8
MULTILAYER
100
AcDbVertex
100
AcDb2dVertex
 10
-0.064126
 20
0.04
 30
0.0
 42
1.0
  0
SEQEND
  5
3C2
100
AcDbEntity
  8
0
  0
POLYLINE
  5
3C3
100
AcDbEntity
  8
TOPLAYER
100
AcDb2dPolyline
 66
     1
 10
0.0
 20
0.0
 30
0.0
 70
     1
 40
0.015748
 41
0.015748
 75
     8
  0
VERTEX
  5
3C4
100
AcDbEntity
  8
TOPLAYER
100
AcDbVertex
100
AcDb2dVertex
 10
-0.007874
 20
0.082
 30
0.0
 42
1.0
  0
VERTEX
  5
3C5
100
AcDbEntity
  8
TOPLAYER
100
AcDbVertex
100
AcDb2dVertex
 10
0.007874
 20
0.082
 30
0.0
 42
1.0
  0
SEQEND
  5
3C6
100
AcDbEntity
  8
0
  0
POLYLINE
  5
3C7
100
AcDbEntity
  8
BOTTOMLAYER
100
AcDb2dPolyline
 66
     1
 10
0.0
 20
0.0
 30
0.0
 70
     1
 40
0.015748
 41
0.015748
 75
     8
  0
VERTEX
  5
3C8
100
AcDbEntity
  8
BOTTOMLAYER
100
AcDbVertex
100
AcDb2dVertex
 10
-0.007874
 20
0.082
 30
0.0
 42
1.0
  0
VERTEX
  5
3C9
100
AcDbEntity
  8
BOTTOMLAYER
100
AcDbVertex
100
AcDb2dVertex
 10
0.007874
 20
0.082
 30
0.0
 42
1.0
  0
SEQEND
  5
3CA
100
AcDbEntity
  8
0
  0
POLYLINE
  5
3CB
100
AcDbEntity
  8
TOPSOLDER
100
AcDb2dPolyline
 66
     1
 10
0.0
 20
0.0
 30
0.0
 70
     1
 40
0.019748
 41
0.019748
 75
     8
  0
VERTEX
  5
3CC
100
AcDbEntity
  8
TOPSOLDER
100
AcDbVertex
100
AcDb2dVertex
 10
-0.009874
 20
0.082
 30
0.0
 42
1.0
  0
VERTEX
  5
3CD
100
AcDbEntity
  8
TOPSOLDER
100
AcDbVertex
100
AcDb2dVertex
 10
0.009874
 20
0.082
 30
0.0
 42
1.0
  0
SEQEND
  5
3CE
100
AcDbEntity
  8
0
  0
POLYLINE
  5
3CF
100
AcDbEntity
  8
BOTTOMSOLDER
100
AcDb2dPolyline
 66
     1
 10
0.0
 20
0.0
 30
0.0
 70
     1
 40
0.019748
 41
0.019748
 75
     8
  0
VERTEX
  5
3D0
100
AcDbEntity
  8
BOTTOMSOLDER
100
AcDbVertex
100
AcDb2dVertex
 10
-0.009874
 20
0.082
 30
0.0
 42
1.0
  0
VERTEX
  5
3D1
100
AcDbEntity
  8
BOTTOMSOLDER
100
AcDbVertex
100
AcDb2dVertex
 10
0.009874
 20
0.082
 30
0.0
 42
1.0
  0
SEQEND
  5
3D2
100
AcDbEntity
  8
0
  0
POLYLINE
  5
3D3
100
AcDbEntity
  8
MULTILAYER
100
AcDb2dPolyline
 66
     1
 10
0.0
 20
0.0
 30
0.0
 70
     1
 40
0.015748
 41
0.015748
 75
     8
  0
VERTEX
  5
3D4
100
AcDbEntity
  8
MULTILAYER
100
AcDbVertex
100
AcDb2dVertex
 10
-0.007874
 20
0.082
 30
0.0
 42
1.0
  0
VERTEX
  5
3D5
100
AcDbEntity
  8
MULTILAYER
100
AcDbVertex
100
AcDb2dVertex
 10
0.007874
 20
0.082
 30
0.0
 42
1.0
  0
SEQEND
  5
3D6
100
AcDbEntity
  8
0
  0
POLYLINE
  5
3D7
100
AcDbEntity
  8
TOPLAYER
100
AcDb2dPolyline
 66
     1
 10
0.0
 20
0.0
 30
0.0
 70
     1
 40
0.098425
 41
0.098425
 75
     8
  0
VERTEX
  5
3D8
100
AcDbEntity
  8
TOPLAYER
100
AcDbVertex
100
AcDb2dVertex
 10
-0.049213
 20
0.0
 30
0.0
 42
1.0
  0
VERTEX
  5
3D9
100
AcDbEntity
  8
TOPLAYER
100
AcDbVertex
100
AcDb2dVertex
 10
0.049213
 20
0.0
 30
0.0
 42
1.0
  0
SEQEND
  5
3DA
100
AcDbEntity
  8
0
  0
POLYLINE
  5
3DB
100
AcDbEntity
  8
BOTTOMLAYER
100
AcDb2dPolyline
 66
     1
 10
0.0
 20
0.0
 30
0.0
 70
     1
 40
0.098425
 41
0.098425
 75
     8
  0
VERTEX
  5
3DC
100
AcDbEntity
  8
BOTTOMLAYER
100
AcDbVertex
100
AcDb2dVertex
 10
-0.049213
 20
0.0
 30
0.0
 42
1.0
  0
VERTEX
  5
3DD
100
AcDbEntity
  8
BOTTOMLAYER
100
AcDbVertex
100
AcDb2dVertex
 10
0.049213
 20
0.0
 30
0.0
 42
1.0
  0
SEQEND
  5
3DE
100
AcDbEntity
  8
0
  0
POLYLINE
  5
3DF
100
AcDbEntity
  8
TOPSOLDER
100
AcDb2dPolyline
 66
     1
 10
0.0
 20
0.0
 30
0.0
 70
     1
 40
0.102425
 41
0.102425
 75
     8
  0
VERTEX
  5
3E0
100
AcDbEntity
  8
TOPSOLDER
100
AcDbVertex
100
AcDb2dVertex
 10
-0.051213
 20
0.0
 30
0.0
 42
1.0
  0
VERTEX
  5
3E1
100
AcDbEntity
  8
TOPSOLDER
100
AcDbVertex
100
AcDb2dVertex
 10
0.051213
 20
0.0
 30
0.0
 42
1.0
  0
SEQEND
  5
3E2
100
AcDbEntity
  8
0
  0
POLYLINE
  5
3E3
100
AcDbEntity
  8
BOTTOMSOLDER
100
AcDb2dPolyline
 66
     1
 10
0.0
 20
0.0
 30
0.0
 70
     1
 40
0.102425
 41
0.102425
 75
     8
  0
VERTEX
  5
3E4
100
AcDbEntity
  8
BOTTOMSOLDER
100
AcDbVertex
100
AcDb2dVertex
 10
-0.051213
 20
0.0
 30
0.0
 42
1.0
  0
VERTEX
  5
3E5
100
AcDbEntity
  8
BOTTOMSOLDER
100
AcDbVertex
100
AcDb2dVertex
 10
0.051213
 20
0.0
 30
0.0
 42
1.0
  0
SEQEND
  5
3E6
100
AcDbEntity
  8
0
  0
POLYLINE
  5
3E7
100
AcDbEntity
  8
MULTILAYER
100
AcDb2dPolyline
 66
     1
 10
0.0
 20
0.0
 30
0.0
 70
     1
 40
0.098425
 41
0.098425
 75
     8
  0
VERTEX
  5
3E8
100
AcDbEntity
  8
MULTILAYER
100
AcDbVertex
100
AcDb2dVertex
 10
-0.049213
 20
0.0
 30
0.0
 42
1.0
  0
VERTEX
  5
3E9
100
AcDbEntity
  8
MULTILAYER
100
AcDbVertex
100
AcDb2dVertex
 10
0.049213
 20
0.0
 30
0.0
 42
1.0
  0
SEQEND
  5
3EA
100
AcDbEntity
  8
0
  0
ENDBLK
  5
3EB
100
AcDbEntity
  8
0
100
AcDbBlockEnd
  0
ENDSEC
  0
SECTION
  2
ENTITIES
  0
POLYLINE
  5
27
100
AcDbEntity
  8
MECHANICAL1
100
AcDb2dPolyline
 66
     1
 10
0.0
 20
0.0
 30
0.0
 40
0.005
 41
0.005
 75
     8
  0
VERTEX
  5
28
100
AcDbEntity
  8
MECHANICAL1
100
AcDbVertex
100
AcDb2dVertex
 10
5.08811
 20
1.479331
 30
0.0
  0
VERTEX
  5
29
100
AcDbEntity
  8
MECHANICAL1
100
AcDbVertex
100
AcDb2dVertex
 10
5.08811
 20
1.823331
 30
0.0
  0
SEQEND
  5
2A
100
AcDbEntity
  8
0
  0
POLYLINE
  5
2B
100
AcDbEntity
  8
MECHANICAL1
100
AcDb2dPolyline
 66
     1
 10
0.0
 20
0.0
 30
0.0
 70
     1
 40
0.0025
 41
0.0025
 75
     8
  0
VERTEX
  5
2C
100
AcDbEntity
  8
MECHANICAL1
100
AcDbVertex
100
AcDb2dVertex
 10
5.08686
 20
1.479331
 30
0.0
 42
1.0
  0
VERTEX
  5
2D
100
AcDbEntity
  8
MECHANICAL1
100
AcDbVertex
100
AcDb2dVertex
 10
5.08936
 20
1.479331
 30
0.0
 42
1.0
  0
SEQEND
  5
2E
100
AcDbEntity
  8
0
  0
POLYLINE
  5
2F
100
AcDbEntity
  8
MECHANICAL1
100
AcDb2dPolyline
 66
     1
 10
0.0
 20
0.0
 30
0.0
 70
     1
 40
0.0025
 41
0.0025
 75
     8
  0
VERTEX
  5
30
100
AcDbEntity
  8
MECHANICAL1
100
AcDbVertex
100
AcDb2dVertex
 10
5.08686
 20
1.823331
 30
0.0
 42
1.0
  0
VERTEX
  5
31
100
AcDbEntity
  8
MECHANICAL1
100
AcDbVertex
100
AcDb2dVertex
 10
5.08936
 20
1.823331
 30
0.0
 42
1.0
  0
SEQEND
  5
32
100
AcDbEntity
  8
0
  0
POLYLINE
  5
33
100
AcDbEntity
  8
MECHANICAL1
100
AcDb2dPolyline
 66
     1
 10
0.0
 20
0.0
 30
0.0
 40
0.005
 41
0.005
 75
     8
  0
VERTEX
  5
34
100
AcDbEntity
  8
MECHANICAL1
100
AcDbVertex
100
AcDb2dVertex
 10
4.97011
 20
1.823331
 30
0.0
  0
VERTEX
  5
35
100
AcDbEntity
  8
MECHANICAL1
100
AcDbVertex
100
AcDb2dVertex
 10
5.08811
 20
1.823331
 30
0.0
  0
SEQEND
  5
36
100
AcDbEntity
  8
0
  0
POLYLINE
  5
37
100
AcDbEntity
  8
MECHANICAL1
100
AcDb2dPolyline
 66
     1
 10
0.0
 20
0.0
 30
0.0
 70
     1
 40
0.0025
 41
0.0025
 75
     8
  0
VERTEX
  5
38
100
AcDbEntity
  8
MECHANICAL1
100
AcDbVertex
100
AcDb2dVertex
 10
4.96886
 20
1.823331
 30
0.0
 42
1.0
  0
VERTEX
  5
39
100
AcDbEntity
  8
MECHANICAL1
100
AcDbVertex
100
AcDb2dVertex
 10
4.97136
 20
1.823331
 30
0.0
 42
1.0
  0
SEQEND
  5
3A
100
AcDbEntity
  8
0
  0
POLYLINE
  5
3B
100
AcDbEntity
  8
MECHANICAL1
100
AcDb2dPolyline
 66
     1
 10
0.0
 20
0.0
 30
0.0
 70
     1
 40
0.0025
 41
0.0025
 75
     8
  0
VERTEX
  5
3C
100
AcDbEntity
  8
MECHANICAL1
100
AcDbVertex
100
AcDb2dVertex
 10
5.08686
 20
1.823331
 30
0.0
 42
1.0
  0
VERTEX
  5
3D
100
AcDbEntity
  8
MECHANICAL1
100
AcDbVertex
100
AcDb2dVertex
 10
5.08936
 20
1.823331
 30
0.0
 42
1.0
  0
SEQEND
  5
3E
100
AcDbEntity
  8
0
  0
POLYLINE
  5
3F
100
AcDbEntity
  8
MECHANICAL1
100
AcDb2dPolyline
 66
     1
 10
0.0
 20
0.0
 30
0.0
 40
0.005
 41
0.005
 75
     8
  0
VERTEX
  5
40
100
AcDbEntity
  8
MECHANICAL1
100
AcDbVertex
100
AcDb2dVertex
 10
4.97011
 20
1.823331
 30
0.0
  0
VERTEX
  5
41
100
AcDbEntity
  8
MECHANICAL1
100
AcDbVertex
100
AcDb2dVertex
 10
4.97011
 20
3.844331
 30
0.0
  0
SEQEND
  5
42
100
AcDbEntity
  8
0
  0
POLYLINE
  5
43
100
AcDbEntity
  8
MECHANICAL1
100
AcDb2dPolyline
 66
     1
 10
0.0
 20
0.0
 30
0.0
 70
     1
 40
0.0025
 41
0.0025
 75
     8
  0
VERTEX
  5
44
100
AcDbEntity
  8
MECHANICAL1
100
AcDbVertex
100
AcDb2dVertex
 10
4.96886
 20
1.823331
 30
0.0
 42
1.0
  0
VERTEX
  5
45
100
AcDbEntity
  8
MECHANICAL1
100
AcDbVertex
100
AcDb2dVertex
 10
4.97136
 20
1.823331
 30
0.0
 42
1.0
  0
SEQEND
  5
46
100
AcDbEntity
  8
0
  0
POLYLINE
  5
47
100
AcDbEntity
  8
MECHANICAL1
100
AcDb2dPolyline
 66
     1
 10
0.0
 20
0.0
 30
0.0
 70
     1
 40
0.0025
 41
0.0025
 75
     8
  0
VERTEX
  5
48
100
AcDbEntity
  8
MECHANICAL1
100
AcDbVertex
100
AcDb2dVertex
 10
4.96886
 20
3.844331
 30
0.0
 42
1.0
  0
VERTEX
  5
49
100
AcDbEntity
  8
MECHANICAL1
100
AcDbVertex
100
AcDb2dVertex
 10
4.97136
 20
3.844331
 30
0.0
 42
1.0
  0
SEQEND
  5
4A
100
AcDbEntity
  8
0
  0
POLYLINE
  5
4B
100
AcDbEntity
  8
MECHANICAL1
100
AcDb2dPolyline
 66
     1
 10
0.0
 20
0.0
 30
0.0
 40
0.005
 41
0.005
 75
     8
  0
VERTEX
  5
4C
100
AcDbEntity
  8
MECHANICAL1
100
AcDbVertex
100
AcDb2dVertex
 10
4.97011
 20
3.844331
 30
0.0
  0
VERTEX
  5
4D
100
AcDbEntity
  8
MECHANICAL1
100
AcDbVertex
100
AcDb2dVertex
 10
4.97011
 20
4.018331
 30
0.0
  0
SEQEND
  5
4E
100
AcDbEntity
  8
0
  0
POLYLINE
  5
4F
100
AcDbEntity
  8
MECHANICAL1
100
AcDb2dPolyline
 66
     1
 10
0.0
 20
0.0
 30
0.0
 70
     1
 40
0.0025
 41
0.0025
 75
     8
  0
VERTEX
  5
50
100
AcDbEntity
  8
MECHANICAL1
100
AcDbVertex
100
AcDb2dVertex
 10
4.96886
 20
3.844331
 30
0.0
 42
1.0
  0
VERTEX
  5
51
100
AcDbEntity
  8
MECHANICAL1
100
AcDbVertex
100
AcDb2dVertex
 10
4.97136
 20
3.844331
 30
0.0
 42
1.0
  0
SEQEND
  5
52
100
AcDbEntity
  8
0
  0
POLYLINE
  5
53
100
AcDbEntity
  8
MECHANICAL1
100
AcDb2dPolyline
 66
     1
 10
0.0
 20
0.0
 30
0.0
 70
     1
 40
0.0025
 41
0.0025
 75
     8
  0
VERTEX
  5
54
100
AcDbEntity
  8
MECHANICAL1
100
AcDbVertex
100
AcDb2dVertex
 10
4.96886
 20
4.018331
 30
0.0
 42
1.0
  0
VERTEX
  5
55
100
AcDbEntity
  8
MECHANICAL1
100
AcDbVertex
100
AcDb2dVertex
 10
4.97136
 20
4.018331
 30
0.0
 42
1.0
  0
SEQEND
  5
56
100
AcDbEntity
  8
0
  0
POLYLINE
  5
57
100
AcDbEntity
  8
MECHANICAL1
100
AcDb2dPolyline
 66
     1
 10
0.0
 20
0.0
 30
0.0
 40
0.005
 41
0.005
 75
     8
  0
VERTEX
  5
58
100
AcDbEntity
  8
MECHANICAL1
100
AcDbVertex
100
AcDb2dVertex
 10
4.97011
 20
4.018331
 30
0.0
  0
VERTEX
  5
59
100
AcDbEntity
  8
MECHANICAL1
100
AcDbVertex
100
AcDb2dVertex
 10
5.08811
 20
4.018331
 30
0.0
  0
SEQEND
  5
5A
100
AcDbEntity
  8
0
  0
POLYLINE
  5
5B
100
AcDbEntity
  8
MECHANICAL1
100
AcDb2dPolyline
 66
     1
 10
0.0
 20
0.0
 30
0.0
 70
     1
 40
0.0025
 41
0.0025
 75
     8
  0
VERTEX
  5
5C
100
AcDbEntity
  8
MECHANICAL1
100
AcDbVertex
100
AcDb2dVertex
 10
4.96886
 20
4.018331
 30
0.0
 42
1.0
  0
VERTEX
  5
5D
100
AcDbEntity
  8
MECHANICAL1
100
AcDbVertex
100
AcDb2dVertex
 10
4.97136
 20
4.018331
 30
0.0
 42
1.0
  0
SEQEND
  5
5E
100
AcDbEntity
  8
0
  0
POLYLINE
  5
5F
100
AcDbEntity
  8
MECHANICAL1
100
AcDb2dPolyline
 66
     1
 10
0.0
 20
0.0
 30
0.0
 70
     1
 40
0.0025
 41
0.0025
 75
     8
  0
VERTEX
  5
60
100
AcDbEntity
  8
MECHANICAL1
100
AcDbVertex
100
AcDb2dVertex
 10
5.08686
 20
4.018331
 30
0.0
 42
1.0
  0
VERTEX
  5
61
100
AcDbEntity
  8
MECHANICAL1
100
AcDbVertex
100
AcDb2dVertex
 10
5.08936
 20
4.018331
 30
0.0
 42
1.0
  0
SEQEND
  5
62
100
AcDbEntity
  8
0
  0
POLYLINE
  5
63
100
AcDbEntity
  8
MECHANICAL1
100
AcDb2dPolyline
 66
     1
 10
0.0
 20
0.0
 30
0.0
 40
0.005
 41
0.005
 75
     8
  0
VERTEX
  5
64
100
AcDbEntity
  8
MECHANICAL1
100
AcDbVertex
100
AcDb2dVertex
 10
5.08811
 20
4.018331
 30
0.0
  0
VERTEX
  5
65
100
AcDbEntity
  8
MECHANICAL1
100
AcDbVertex
100
AcDb2dVertex
 10
5.08811
 20
4.491142
 30
0.0
  0
SEQEND
  5
66
100
AcDbEntity
  8
0
  0
POLYLINE
  5
67
100
AcDbEntity
  8
MECHANICAL1
100
AcDb2dPolyline
 66
     1
 10
0.0
 20
0.0
 30
0.0
 70
     1
 40
0.0025
 41
0.0025
 75
     8
  0
VERTEX
  5
68
100
AcDbEntity
  8
MECHANICAL1
100
AcDbVertex
100
AcDb2dVertex
 10
5.08686
 20
4.018331
 30
0.0
 42
1.0
  0
VERTEX
  5
69
100
AcDbEntity
  8
MECHANICAL1
100
AcDbVertex
100
AcDb2dVertex
 10
5.08936
 20
4.018331
 30
0.0
 42
1.0
  0
SEQEND
  5
6A
100
AcDbEntity
  8
0
  0
POLYLINE
  5
6B
100
AcDbEntity
  8
MECHANICAL1
100
AcDb2dPolyline
 66
     1
 10
0.0
 20
0.0
 30
0.0
 70
     1
 40
0.0025
 41
0.0025
 75
     8
  0
VERTEX
  5
6C
100
AcDbEntity
  8
MECHANICAL1
100
AcDbVertex
100
AcDb2dVertex
 10
5.08686
 20
4.491142
 30
0.0
 42
1.0
  0
VERTEX
  5
6D
100
AcDbEntity
  8
MECHANICAL1
100
AcDbVertex
100
AcDb2dVertex
 10
5.08936
 20
4.491142
 30
0.0
 42
1.0
  0
SEQEND
  5
6E
100
AcDbEntity
  8
0
  0
POLYLINE
  5
6F
100
AcDbEntity
  8
MECHANICAL1
100
AcDb2dPolyline
 66
     1
 10
0.0
 20
0.0
 30
0.0
 40
0.005
 41
0.005
 75
     8
  0
VERTEX
  5
70
100
AcDbEntity
  8
MECHANICAL1
100
AcDbVertex
100
AcDb2dVertex
 10
1.800709
 20
1.823331
 30
0.0
  0
VERTEX
  5
71
100
AcDbEntity
  8
MECHANICAL1
100
AcDbVertex
100
AcDb2dVertex
 10
1.918709
 20
1.823331
 30
0.0
  0
SEQEND
  5
72
100
AcDbEntity
  8
0
  0
POLYLINE
  5
73
100
AcDbEntity
  8
MECHANICAL1
100
AcDb2dPolyline
 66
     1
 10
0.0
 20
0.0
 30
0.0
 70
     1
 40
0.0025
 41
0.0025
 75
     8
  0
VERTEX
  5
74
100
AcDbEntity
  8
MECHANICAL1
100
AcDbVertex
100
AcDb2dVertex
 10
1.799459
 20
1.823331
 30
0.0
 42
1.0
  0
VERTEX
  5
75
100
AcDbEntity
  8
MECHANICAL1
100
AcDbVertex
100
AcDb2dVertex
 10
1.801959
 20
1.823331
 30
0.0
 42
1.0
  0
SEQEND
  5
76
100
AcDbEntity
  8
0
  0
POLYLINE
  5
77
100
AcDbEntity
  8
MECHANICAL1
100
AcDb2dPolyline
 66
     1
 10
0.0
 20
0.0
 30
0.0
 70
     1
 40
0.0025
 41
0.0025
 75
     8
  0
VERTEX
  5
78
100
AcDbEntity
  8
MECHANICAL1
100
AcDbVertex
100
AcDb2dVertex
 10
1.917459
 20
1.823331
 30
0.0
 42
1.0
  0
VERTEX
  5
79
100
AcDbEntity
  8
MECHANICAL1
100
AcDbVertex
100
AcDb2dVertex
 10
1.919959
 20
1.823331
 30
0.0
 42
1.0
  0
SEQEND
  5
7A
100
AcDbEntity
  8
0
  0
POLYLINE
  5
7B
100
AcDbEntity
  8
MECHANICAL1
100
AcDb2dPolyline
 66
     1
 10
0.0
 20
0.0
 30
0.0
 40
0.005
 41
0.005
 75
     8
  0
VERTEX
  5
7C
100
AcDbEntity
  8
MECHANICAL1
100
AcDbVertex
100
AcDb2dVertex
 10
1.918709
 20
3.844331
 30
0.0
  0
VERTEX
  5
7D
100
AcDbEntity
  8
MECHANICAL1
100
AcDbVertex
100
AcDb2dVertex
 10
1.918709
 20
4.018331
 30
0.0
  0
SEQEND
  5
7E
100
AcDbEntity
  8
0
  0
POLYLINE
  5
7F
100
AcDbEntity
  8
MECHANICAL1
100
AcDb2dPolyline
 66
     1
 10
0.0
 20
0.0
 30
0.0
 70
     1
 40
0.0025
 41
0.0025
 75
     8
  0
VERTEX
  5
80
100
AcDbEntity
  8
MECHANICAL1
100
AcDbVertex
100
AcDb2dVertex
 10
1.917459
 20
3.844331
 30
0.0
 42
1.0
  0
VERTEX
  5
81
100
AcDbEntity
  8
MECHANICAL1
100
AcDbVertex
100
AcDb2dVertex
 10
1.919959
 20
3.844331
 30
0.0
 42
1.0
  0
SEQEND
  5
82
100
AcDbEntity
  8
0
  0
POLYLINE
  5
83
100
AcDbEntity
  8
MECHANICAL1
100
AcDb2dPolyline
 66
     1
 10
0.0
 20
0.0
 30
0.0
 70
     1
 40
0.0025
 41
0.0025
 75
     8
  0
VERTEX
  5
84
100
AcDbEntity
  8
MECHANICAL1
100
AcDbVertex
100
AcDb2dVertex
 10
1.917459
 20
4.018331
 30
0.0
 42
1.0
  0
VERTEX
  5
85
100
AcDbEntity
  8
MECHANICAL1
100
AcDbVertex
100
AcDb2dVertex
 10
1.919959
 20
4.018331
 30
0.0
 42
1.0
  0
SEQEND
  5
86
100
AcDbEntity
  8
0
  0
POLYLINE
  5
87
100
AcDbEntity
  8
MECHANICAL1
100
AcDb2dPolyline
 66
     1
 10
0.0
 20
0.0
 30
0.0
 40
0.005
 41
0.005
 75
     8
  0
VERTEX
  5
88
100
AcDbEntity
  8
MECHANICAL1
100
AcDbVertex
100
AcDb2dVertex
 10
1.800709
 20
4.018331
 30
0.0
  0
VERTEX
  5
89
100
AcDbEntity
  8
MECHANICAL1
100
AcDbVertex
100
AcDb2dVertex
 10
1.918709
 20
4.018331
 30
0.0
  0
SEQEND
  5
8A
100
AcDbEntity
  8
0
  0
POLYLINE
  5
8B
100
AcDbEntity
  8
MECHANICAL1
100
AcDb2dPolyline
 66
     1
 10
0.0
 20
0.0
 30
0.0
 70
     1
 40
0.0025
 41
0.0025
 75
     8
  0
VERTEX
  5
8C
100
AcDbEntity
  8
MECHANICAL1
100
AcDbVertex
100
AcDb2dVertex
 10
1.799459
 20
4.018331
 30
0.0
 42
1.0
  0
VERTEX
  5
8D
100
AcDbEntity
  8
MECHANICAL1
100
AcDbVertex
100
AcDb2dVertex
 10
1.801959
 20
4.018331
 30
0.0
 42
1.0
  0
SEQEND
  5
8E
100
AcDbEntity
  8
0
  0
POLYLINE
  5
8F
100
AcDbEntity
  8
MECHANICAL1
100
AcDb2dPolyline
 66
     1
 10
0.0
 20
0.0
 30
0.0
 70
     1
 40
0.0025
 41
0.0025
 75
     8
  0
VERTEX
  5
90
100
AcDbEntity
  8
MECHANICAL1
100
AcDbVertex
100
AcDb2dVertex
 10
1.917459
 20
4.018331
 30
0.0
 42
1.0
  0
VERTEX
  5
91
100
AcDbEntity
  8
MECHANICAL1
100
AcDbVertex
100
AcDb2dVertex
 10
1.919959
 20
4.018331
 30
0.0
 42
1.0
  0
SEQEND
  5
92
100
AcDbEntity
  8
0
  0
POLYLINE
  5
93
100
AcDbEntity
  8
MECHANICAL1
100
AcDb2dPolyline
 66
     1
 10
0.0
 20
0.0
 30
0.0
 40
0.005
 41
0.005
 75
     8
  0
VERTEX
  5
94
100
AcDbEntity
  8
MECHANICAL1
100
AcDbVertex
100
AcDb2dVertex
 10
1.800709
 20
4.018331
 30
0.0
  0
VERTEX
  5
95
100
AcDbEntity
  8
MECHANICAL1
100
AcDbVertex
100
AcDb2dVertex
 10
1.800709
 20
4.491142
 30
0.0
  0
SEQEND
  5
96
100
AcDbEntity
  8
0
  0
POLYLINE
  5
97
100
AcDbEntity
  8
MECHANICAL1
100
AcDb2dPolyline
 66
     1
 10
0.0
 20
0.0
 30
0.0
 70
     1
 40
0.0025
 41
0.0025
 75
     8
  0
VERTEX
  5
98
100
AcDbEntity
  8
MECHANICAL1
100
AcDbVertex
100
AcDb2dVertex
 10
1.799459
 20
4.018331
 30
0.0
 42
1.0
  0
VERTEX
  5
99
100
AcDbEntity
  8
MECHANICAL1
100
AcDbVertex
100
AcDb2dVertex
 10
1.801959
 20
4.018331
 30
0.0
 42
1.0
  0
SEQEND
  5
9A
100
AcDbEntity
  8
0
  0
POLYLINE
  5
9B
100
AcDbEntity
  8
MECHANICAL1
100
AcDb2dPolyline
 66
     1
 10
0.0
 20
0.0
 30
0.0
 70
     1
 40
0.0025
 41
0.0025
 75
     8
  0
VERTEX
  5
9C
100
AcDbEntity
  8
MECHANICAL1
100
AcDbVertex
100
AcDb2dVertex
 10
1.799459
 20
4.491142
 30
0.0
 42
1.0
  0
VERTEX
  5
9D
100
AcDbEntity
  8
MECHANICAL1
100
AcDbVertex
100
AcDb2dVertex
 10
1.801959
 20
4.491142
 30
0.0
 42
1.0
  0
SEQEND
  5
9E
100
AcDbEntity
  8
0
  0
POLYLINE
  5
9F
100
AcDbEntity
  8
MECHANICAL1
100
AcDb2dPolyline
 66
     1
 10
0.0
 20
0.0
 30
0.0
 40
0.005
 41
0.005
 75
     8
  0
VERTEX
  5
A0
100
AcDbEntity
  8
MECHANICAL1
100
AcDbVertex
100
AcDb2dVertex
 10
1.918709
 20
1.823331
 30
0.0
  0
VERTEX
  5
A1
100
AcDbEntity
  8
MECHANICAL1
100
AcDbVertex
100
AcDb2dVertex
 10
1.918709
 20
3.844331
 30
0.0
  0
SEQEND
  5
A2
100
AcDbEntity
  8
0
  0
POLYLINE
  5
A3
100
AcDbEntity
  8
MECHANICAL1
100
AcDb2dPolyline
 66
     1
 10
0.0
 20
0.0
 30
0.0
 70
     1
 40
0.0025
 41
0.0025
 75
     8
  0
VERTEX
  5
A4
100
AcDbEntity
  8
MECHANICAL1
100
AcDbVertex
100
AcDb2dVertex
 10
1.917459
 20
1.823331
 30
0.0
 42
1.0
  0
VERTEX
  5
A5
100
AcDbEntity
  8
MECHANICAL1
100
AcDbVertex
100
AcDb2dVertex
 10
1.919959
 20
1.823331
 30
0.0
 42
1.0
  0
SEQEND
  5
A6
100
AcDbEntity
  8
0
  0
POLYLINE
  5
A7
100
AcDbEntity
  8
MECHANICAL1
100
AcDb2dPolyline
 66
     1
 10
0.0
 20
0.0
 30
0.0
 70
     1
 40
0.0025
 41
0.0025
 75
     8
  0
VERTEX
  5
A8
100
AcDbEntity
  8
MECHANICAL1
100
AcDbVertex
100
AcDb2dVertex
 10
1.917459
 20
3.844331
 30
0.0
 42
1.0
  0
VERTEX
  5
A9
100
AcDbEntity
  8
MECHANICAL1
100
AcDbVertex
100
AcDb2dVertex
 10
1.919959
 20
3.844331
 30
0.0
 42
1.0
  0
SEQEND
  5
AA
100
AcDbEntity
  8
0
  0
POLYLINE
  5
AB
100
AcDbEntity
  8
MECHANICAL1
100
AcDb2dPolyline
 66
     1
 10
0.0
 20
0.0
 30
0.0
 40
0.005
 41
0.005
 75
     8
  0
VERTEX
  5
AC
100
AcDbEntity
  8
MECHANICAL1
100
AcDbVertex
100
AcDb2dVertex
 10
1.800709
 20
1.479331
 30
0.0
  0
VERTEX
  5
AD
100
AcDbEntity
  8
MECHANICAL1
100
AcDbVertex
100
AcDb2dVertex
 10
1.800709
 20
1.823331
 30
0.0
  0
SEQEND
  5
AE
100
AcDbEntity
  8
0
  0
POLYLINE
  5
AF
100
AcDbEntity
  8
MECHANICAL1
100
AcDb2dPolyline
 66
     1
 10
0.0
 20
0.0
 30
0.0
 70
     1
 40
0.0025
 41
0.0025
 75
     8
  0
VERTEX
  5
B0
100
AcDbEntity
  8
MECHANICAL1
100
AcDbVertex
100
AcDb2dVertex
 10
1.799459
 20
1.479331
 30
0.0
 42
1.0
  0
VERTEX
  5
B1
100
AcDbEntity
  8
MECHANICAL1
100
AcDbVertex
100
AcDb2dVertex
 10
1.801959
 20
1.479331
 30
0.0
 42
1.0
  0
SEQEND
  5
B2
100
AcDbEntity
  8
0
  0
POLYLINE
  5
B3
100
AcDbEntity
  8
MECHANICAL1
100
AcDb2dPolyline
 66
     1
 10
0.0
 20
0.0
 30
0.0
 70
     1
 40
0.0025
 41
0.0025
 75
     8
  0
VERTEX
  5
B4
100
AcDbEntity
  8
MECHANICAL1
100
AcDbVertex
100
AcDb2dVertex
 10
1.799459
 20
1.823331
 30
0.0
 42
1.0
  0
VERTEX
  5
B5
100
AcDbEntity
  8
MECHANICAL1
100
AcDbVertex
100
AcDb2dVertex
 10
1.801959
 20
1.823331
 30
0.0
 42
1.0
  0
SEQEND
  5
B6
100
AcDbEntity
  8
0
  0
POLYLINE
  5
B7
100
AcDbEntity
  8
MECHANICAL1
100
AcDb2dPolyline
 66
     1
 10
0.0
 20
0.0
 30
0.0
 40
0.005
 41
0.005
 75
     8
  0
VERTEX
  5
B8
100
AcDbEntity
  8
MECHANICAL1
100
AcDbVertex
100
AcDb2dVertex
 10
1.800709
 20
1.479331
 30
0.0
  0
VERTEX
  5
B9
100
AcDbEntity
  8
MECHANICAL1
100
AcDbVertex
100
AcDb2dVertex
 10
5.08811
 20
1.479331
 30
0.0
  0
SEQEND
  5
BA
100
AcDbEntity
  8
0
  0
POLYLINE
  5
BB
100
AcDbEntity
  8
MECHANICAL1
100
AcDb2dPolyline
 66
     1
 10
0.0
 20
0.0
 30
0.0
 70
     1
 40
0.0025
 41
0.0025
 75
     8
  0
VERTEX
  5
BC
100
AcDbEntity
  8
MECHANICAL1
100
AcDbVertex
100
AcDb2dVertex
 10
1.799459
 20
1.479331
 30
0.0
 42
1.0
  0
VERTEX
  5
BD
100
AcDbEntity
  8
MECHANICAL1
100
AcDbVertex
100
AcDb2dVertex
 10
1.801959
 20
1.479331
 30
0.0
 42
1.0
  0
SEQEND
  5
BE
100
AcDbEntity
  8
0
  0
POLYLINE
  5
BF
100
AcDbEntity
  8
MECHANICAL1
100
AcDb2dPolyline
 66
     1
 10
0.0
 20
0.0
 30
0.0
 70
     1
 40
0.0025
 41
0.0025
 75
     8
  0
VERTEX
  5
C0
100
AcDbEntity
  8
MECHANICAL1
100
AcDbVertex
100
AcDb2dVertex
 10
5.08686
 20
1.479331
 30
0.0
 42
1.0
  0
VERTEX
  5
C1
100
AcDbEntity
  8
MECHANICAL1
100
AcDbVertex
100
AcDb2dVertex
 10
5.08936
 20
1.479331
 30
0.0
 42
1.0
  0
SEQEND
  5
C2
100
AcDbEntity
  8
0
  0
POLYLINE
  5
C3
100
AcDbEntity
  8
MECHANICAL1
100
AcDb2dPolyline
 66
     1
 10
0.0
 20
0.0
 30
0.0
 40
0.005
 41
0.005
 75
     8
  0
VERTEX
  5
C4
100
AcDbEntity
  8
MECHANICAL1
100
AcDbVertex
100
AcDb2dVertex
 10
1.800709
 20
4.491142
 30
0.0
  0
VERTEX
  5
C5
100
AcDbEntity
  8
MECHANICAL1
100
AcDbVertex
100
AcDb2dVertex
 10
5.08811
 20
4.491142
 30
0.0
  0
SEQEND
  5
C6
100
AcDbEntity
  8
0
  0
POLYLINE
  5
C7
100
AcDbEntity
  8
MECHANICAL1
100
AcDb2dPolyline
 66
     1
 10
0.0
 20
0.0
 30
0.0
 70
     1
 40
0.0025
 41
0.0025
 75
     8
  0
VERTEX
  5
C8
100
AcDbEntity
  8
MECHANICAL1
100
AcDbVertex
100
AcDb2dVertex
 10
1.799459
 20
4.491142
 30
0.0
 42
1.0
  0
VERTEX
  5
C9
100
AcDbEntity
  8
MECHANICAL1
100
AcDbVertex
100
AcDb2dVertex
 10
1.801959
 20
4.491142
 30
0.0
 42
1.0
  0
SEQEND
  5
CA
100
AcDbEntity
  8
0
  0
POLYLINE
  5
CB
100
AcDbEntity
  8
MECHANICAL1
100
AcDb2dPolyline
 66
     1
 10
0.0
 20
0.0
 30
0.0
 70
     1
 40
0.0025
 41
0.0025
 75
     8
  0
VERTEX
  5
CC
100
AcDbEntity
  8
MECHANICAL1
100
AcDbVertex
100
AcDb2dVertex
 10
5.08686
 20
4.491142
 30
0.0
 42
1.0
  0
VERTEX
  5
CD
100
AcDbEntity
  8
MECHANICAL1
100
AcDbVertex
100
AcDb2dVertex
 10
5.08936
 20
4.491142
 30
0.0
 42
1.0
  0
SEQEND
  5
CE
100
AcDbEntity
  8
0
  0
POLYLINE
  5
CF
100
AcDbEntity
  8
KEEPOUTLAYER
100
AcDb2dPolyline
 66
     1
 10
0.0
 20
0.0
 30
0.0
 40
0.005
 41
0.005
 75
     8
  0
VERTEX
  5
D0
100
AcDbEntity
  8
KEEPOUTLAYER
100
AcDbVertex
100
AcDb2dVertex
 10
1.800709
 20
4.491142
 30
0.0
  0
VERTEX
  5
D1
100
AcDbEntity
  8
KEEPOUTLAYER
100
AcDbVertex
100
AcDb2dVertex
 10
5.08811
 20
4.491142
 30
0.0
  0
SEQEND
  5
D2
100
AcDbEntity
  8
0
  0
POLYLINE
  5
D3
100
AcDbEntity
  8
KEEPOUTLAYER
100
AcDb2dPolyline
 66
     1
 10
0.0
 20
0.0
 30
0.0
 70
     1
 40
0.0025
 41
0.0025
 75
     8
  0
VERTEX
  5
D4
100
AcDbEntity
  8
KEEPOUTLAYER
100
AcDbVertex
100
AcDb2dVertex
 10
1.799459
 20
4.491142
 30
0.0
 42
1.0
  0
VERTEX
  5
D5
100
AcDbEntity
  8
KEEPOUTLAYER
100
AcDbVertex
100
AcDb2dVertex
 10
1.801959
 20
4.491142
 30
0.0
 42
1.0
  0
SEQEND
  5
D6
100
AcDbEntity
  8
0
  0
POLYLINE
  5
D7
100
AcDbEntity
  8
KEEPOUTLAYER
100
AcDb2dPolyline
 66
     1
 10
0.0
 20
0.0
 30
0.0
 70
     1
 40
0.0025
 41
0.0025
 75
     8
  0
VERTEX
  5
D8
100
AcDbEntity
  8
KEEPOUTLAYER
100
AcDbVertex
100
AcDb2dVertex
 10
5.08686
 20
4.491142
 30
0.0
 42
1.0
  0
VERTEX
  5
D9
100
AcDbEntity
  8
KEEPOUTLAYER
100
AcDbVertex
100
AcDb2dVertex
 10
5.08936
 20
4.491142
 30
0.0
 42
1.0
  0
SEQEND
  5
DA
100
AcDbEntity
  8
0
  0
POLYLINE
  5
DB
100
AcDbEntity
  8
KEEPOUTLAYER
100
AcDb2dPolyline
 66
     1
 10
0.0
 20
0.0
 30
0.0
 40
0.005
 41
0.005
 75
     8
  0
VERTEX
  5
DC
100
AcDbEntity
  8
KEEPOUTLAYER
100
AcDbVertex
100
AcDb2dVertex
 10
1.800709
 20
1.479331
 30
0.0
  0
VERTEX
  5
DD
100
AcDbEntity
  8
KEEPOUTLAYER
100
AcDbVertex
100
AcDb2dVertex
 10
5.08811
 20
1.479331
 30
0.0
  0
SEQEND
  5
DE
100
AcDbEntity
  8
0
  0
POLYLINE
  5
DF
100
AcDbEntity
  8
KEEPOUTLAYER
100
AcDb2dPolyline
 66
     1
 10
0.0
 20
0.0
 30
0.0
 70
     1
 40
0.0025
 41
0.0025
 75
     8
  0
VERTEX
  5
E0
100
AcDbEntity
  8
KEEPOUTLAYER
100
AcDbVertex
100
AcDb2dVertex
 10
1.799459
 20
1.479331
 30
0.0
 42
1.0
  0
VERTEX
  5
E1
100
AcDbEntity
  8
KEEPOUTLAYER
100
AcDbVertex
100
AcDb2dVertex
 10
1.801959
 20
1.479331
 30
0.0
 42
1.0
  0
SEQEND
  5
E2
100
AcDbEntity
  8
0
  0
POLYLINE
  5
E3
100
AcDbEntity
  8
KEEPOUTLAYER
100
AcDb2dPolyline
 66
     1
 10
0.0
 20
0.0
 30
0.0
 70
     1
 40
0.0025
 41
0.0025
 75
     8
  0
VERTEX
  5
E4
100
AcDbEntity
  8
KEEPOUTLAYER
100
AcDbVertex
100
AcDb2dVertex
 10
5.08686
 20
1.479331
 30
0.0
 42
1.0
  0
VERTEX
  5
E5
100
AcDbEntity
  8
KEEPOUTLAYER
100
AcDbVertex
100
AcDb2dVertex
 10
5.08936
 20
1.479331
 30
0.0
 42
1.0
  0
SEQEND
  5
E6
100
AcDbEntity
  8
0
  0
POLYLINE
  5
E7
100
AcDbEntity
  8
KEEPOUTLAYER
100
AcDb2dPolyline
 66
     1
 10
0.0
 20
0.0
 30
0.0
 40
0.005
 41
0.005
 75
     8
  0
VERTEX
  5
E8
100
AcDbEntity
  8
KEEPOUTLAYER
100
AcDbVertex
100
AcDb2dVertex
 10
1.800709
 20
1.479331
 30
0.0
  0
VERTEX
  5
E9
100
AcDbEntity
  8
KEEPOUTLAYER
100
AcDbVertex
100
AcDb2dVertex
 10
1.800709
 20
1.823331
 30
0.0
  0
SEQEND
  5
EA
100
AcDbEntity
  8
0
  0
POLYLINE
  5
EB
100
AcDbEntity
  8
KEEPOUTLAYER
100
AcDb2dPolyline
 66
     1
 10
0.0
 20
0.0
 30
0.0
 70
     1
 40
0.0025
 41
0.0025
 75
     8
  0
VERTEX
  5
EC
100
AcDbEntity
  8
KEEPOUTLAYER
100
AcDbVertex
100
AcDb2dVertex
 10
1.799459
 20
1.479331
 30
0.0
 42
1.0
  0
VERTEX
  5
ED
100
AcDbEntity
  8
KEEPOUTLAYER
100
AcDbVertex
100
AcDb2dVertex
 10
1.801959
 20
1.479331
 30
0.0
 42
1.0
  0
SEQEND
  5
EE
100
AcDbEntity
  8
0
  0
POLYLINE
  5
EF
100
AcDbEntity
  8
KEEPOUTLAYER
100
AcDb2dPolyline
 66
     1
 10
0.0
 20
0.0
 30
0.0
 70
     1
 40
0.0025
 41
0.0025
 75
     8
  0
VERTEX
  5
F0
100
AcDbEntity
  8
KEEPOUTLAYER
100
AcDbVertex
100
AcDb2dVertex
 10
1.799459
 20
1.823331
 30
0.0
 42
1.0
  0
VERTEX
  5
F1
100
AcDbEntity
  8
KEEPOUTLAYER
100
AcDbVertex
100
AcDb2dVertex
 10
1.801959
 20
1.823331
 30
0.0
 42
1.0
  0
SEQEND
  5
F2
100
AcDbEntity
  8
0
  0
POLYLINE
  5
F3
100
AcDbEntity
  8
KEEPOUTLAYER
100
AcDb2dPolyline
 66
     1
 10
0.0
 20
0.0
 30
0.0
 40
0.005
 41
0.005
 75
     8
  0
VERTEX
  5
F4
100
AcDbEntity
  8
KEEPOUTLAYER
100
AcDbVertex
100
AcDb2dVertex
 10
1.918709
 20
1.823331
 30
0.0
  0
VERTEX
  5
F5
100
AcDbEntity
  8
KEEPOUTLAYER
100
AcDbVertex
100
AcDb2dVertex
 10
1.918709
 20
3.844331
 30
0.0
  0
SEQEND
  5
F6
100
AcDbEntity
  8
0
  0
POLYLINE
  5
F7
100
AcDbEntity
  8
KEEPOUTLAYER
100
AcDb2dPolyline
 66
     1
 10
0.0
 20
0.0
 30
0.0
 70
     1
 40
0.0025
 41
0.0025
 75
     8
  0
VERTEX
  5
F8
100
AcDbEntity
  8
KEEPOUTLAYER
100
AcDbVertex
100
AcDb2dVertex
 10
1.917459
 20
1.823331
 30
0.0
 42
1.0
  0
VERTEX
  5
F9
100
AcDbEntity
  8
KEEPOUTLAYER
100
AcDbVertex
100
AcDb2dVertex
 10
1.919959
 20
1.823331
 30
0.0
 42
1.0
  0
SEQEND
  5
FA
100
AcDbEntity
  8
0
  0
POLYLINE
  5
FB
100
AcDbEntity
  8
KEEPOUTLAYER
100
AcDb2dPolyline
 66
     1
 10
0.0
 20
0.0
 30
0.0
 70
     1
 40
0.0025
 41
0.0025
 75
     8
  0
VERTEX
  5
FC
100
AcDbEntity
  8
KEEPOUTLAYER
100
AcDbVertex
100
AcDb2dVertex
 10
1.917459
 20
3.844331
 30
0.0
 42
1.0
  0
VERTEX
  5
FD
100
AcDbEntity
  8
KEEPOUTLAYER
100
AcDbVertex
100
AcDb2dVertex
 10
1.919959
 20
3.844331
 30
0.0
 42
1.0
  0
SEQEND
  5
FE
100
AcDbEntity
  8
0
  0
POLYLINE
  5
FF
100
AcDbEntity
  8
KEEPOUTLAYER
100
AcDb2dPolyline
 66
     1
 10
0.0
 20
0.0
 30
0.0
 40
0.005
 41
0.005
 75
     8
  0
VERTEX
  5
100
100
AcDbEntity
  8
KEEPOUTLAYER
100
AcDbVertex
100
AcDb2dVertex
 10
1.800709
 20
4.018331
 30
0.0
  0
VERTEX
  5
101
100
AcDbEntity
  8
KEEPOUTLAYER
100
AcDbVertex
100
AcDb2dVertex
 10
1.800709
 20
4.491142
 30
0.0
  0
SEQEND
  5
102
100
AcDbEntity
  8
0
  0
POLYLINE
  5
103
100
AcDbEntity
  8
KEEPOUTLAYER
100
AcDb2dPolyline
 66
     1
 10
0.0
 20
0.0
 30
0.0
 70
     1
 40
0.0025
 41
0.0025
 75
     8
  0
VERTEX
  5
104
100
AcDbEntity
  8
KEEPOUTLAYER
100
AcDbVertex
100
AcDb2dVertex
 10
1.799459
 20
4.018331
 30
0.0
 42
1.0
  0
VERTEX
  5
105
100
AcDbEntity
  8
KEEPOUTLAYER
100
AcDbVertex
100
AcDb2dVertex
 10
1.801959
 20
4.018331
 30
0.0
 42
1.0
  0
SEQEND
  5
106
100
AcDbEntity
  8
0
  0
POLYLINE
  5
107
100
AcDbEntity
  8
KEEPOUTLAYER
100
AcDb2dPolyline
 66
     1
 10
0.0
 20
0.0
 30
0.0
 70
     1
 40
0.0025
 41
0.0025
 75
     8
  0
VERTEX
  5
108
100
AcDbEntity
  8
KEEPOUTLAYER
100
AcDbVertex
100
AcDb2dVertex
 10
1.799459
 20
4.491142
 30
0.0
 42
1.0
  0
VERTEX
  5
109
100
AcDbEntity
  8
KEEPOUTLAYER
100
AcDbVertex
100
AcDb2dVertex
 10
1.801959
 20
4.491142
 30
0.0
 42
1.0
  0
SEQEND
  5
10A
100
AcDbEntity
  8
0
  0
POLYLINE
  5
10B
100
AcDbEntity
  8
KEEPOUTLAYER
100
AcDb2dPolyline
 66
     1
 10
0.0
 20
0.0
 30
0.0
 40
0.005
 41
0.005
 75
     8
  0
VERTEX
  5
10C
100
AcDbEntity
  8
KEEPOUTLAYER
100
AcDbVertex
100
AcDb2dVertex
 10
1.800709
 20
4.018331
 30
0.0
  0
VERTEX
  5
10D
100
AcDbEntity
  8
KEEPOUTLAYER
100
AcDbVertex
100
AcDb2dVertex
 10
1.918709
 20
4.018331
 30
0.0
  0
SEQEND
  5
10E
100
AcDbEntity
  8
0
  0
POLYLINE
  5
10F
100
AcDbEntity
  8
KEEPOUTLAYER
100
AcDb2dPolyline
 66
     1
 10
0.0
 20
0.0
 30
0.0
 70
     1
 40
0.0025
 41
0.0025
 75
     8
  0
VERTEX
  5
110
100
AcDbEntity
  8
KEEPOUTLAYER
100
AcDbVertex
100
AcDb2dVertex
 10
1.799459
 20
4.018331
 30
0.0
 42
1.0
  0
VERTEX
  5
111
100
AcDbEntity
  8
KEEPOUTLAYER
100
AcDbVertex
100
AcDb2dVertex
 10
1.801959
 20
4.018331
 30
0.0
 42
1.0
  0
SEQEND
  5
112
100
AcDbEntity
  8
0
  0
POLYLINE
  5
113
100
AcDbEntity
  8
KEEPOUTLAYER
100
AcDb2dPolyline
 66
     1
 10
0.0
 20
0.0
 30
0.0
 70
     1
 40
0.0025
 41
0.0025
 75
     8
  0
VERTEX
  5
114
100
AcDbEntity
  8
KEEPOUTLAYER
100
AcDbVertex
100
AcDb2dVertex
 10
1.917459
 20
4.018331
 30
0.0
 42
1.0
  0
VERTEX
  5
115
100
AcDbEntity
  8
KEEPOUTLAYER
100
AcDbVertex
100
AcDb2dVertex
 10
1.919959
 20
4.018331
 30
0.0
 42
1.0
  0
SEQEND
  5
116
100
AcDbEntity
  8
0
  0
POLYLINE
  5
117
100
AcDbEntity
  8
KEEPOUTLAYER
100
AcDb2dPolyline
 66
     1
 10
0.0
 20
0.0
 30
0.0
 40
0.005
 41
0.005
 75
     8
  0
VERTEX
  5
118
100
AcDbEntity
  8
KEEPOUTLAYER
100
AcDbVertex
100
AcDb2dVertex
 10
1.918709
 20
3.844331
 30
0.0
  0
VERTEX
  5
119
100
AcDbEntity
  8
KEEPOUTLAYER
100
AcDbVertex
100
AcDb2dVertex
 10
1.918709
 20
4.018331
 30
0.0
  0
SEQEND
  5
11A
100
AcDbEntity
  8
0
  0
POLYLINE
  5
11B
100
AcDbEntity
  8
KEEPOUTLAYER
100
AcDb2dPolyline
 66
     1
 10
0.0
 20
0.0
 30
0.0
 70
     1
 40
0.0025
 41
0.0025
 75
     8
  0
VERTEX
  5
11C
100
AcDbEntity
  8
KEEPOUTLAYER
100
AcDbVertex
100
AcDb2dVertex
 10
1.917459
 20
3.844331
 30
0.0
 42
1.0
  0
VERTEX
  5
11D
100
AcDbEntity
  8
KEEPOUTLAYER
100
AcDbVertex
100
AcDb2dVertex
 10
1.919959
 20
3.844331
 30
0.0
 42
1.0
  0
SEQEND
  5
11E
100
AcDbEntity
  8
0
  0
POLYLINE
  5
11F
100
AcDbEntity
  8
KEEPOUTLAYER
100
AcDb2dPolyline
 66
     1
 10
0.0
 20
0.0
 30
0.0
 70
     1
 40
0.0025
 41
0.0025
 75
     8
  0
VERTEX
  5
120
100
AcDbEntity
  8
KEEPOUTLAYER
100
AcDbVertex
100
AcDb2dVertex
 10
1.917459
 20
4.018331
 30
0.0
 42
1.0
  0
VERTEX
  5
121
100
AcDbEntity
  8
KEEPOUTLAYER
100
AcDbVertex
100
AcDb2dVertex
 10
1.919959
 20
4.018331
 30
0.0
 42
1.0
  0
SEQEND
  5
122
100
AcDbEntity
  8
0
  0
POLYLINE
  5
123
100
AcDbEntity
  8
KEEPOUTLAYER
100
AcDb2dPolyline
 66
     1
 10
0.0
 20
0.0
 30
0.0
 40
0.005
 41
0.005
 75
     8
  0
VERTEX
  5
124
100
AcDbEntity
  8
KEEPOUTLAYER
100
AcDbVertex
100
AcDb2dVertex
 10
1.800709
 20
1.823331
 30
0.0
  0
VERTEX
  5
125
100
AcDbEntity
  8
KEEPOUTLAYER
100
AcDbVertex
100
AcDb2dVertex
 10
1.918709
 20
1.823331
 30
0.0
  0
SEQEND
  5
126
100
AcDbEntity
  8
0
  0
POLYLINE
  5
127
100
AcDbEntity
  8
KEEPOUTLAYER
100
AcDb2dPolyline
 66
     1
 10
0.0
 20
0.0
 30
0.0
 70
     1
 40
0.0025
 41
0.0025
 75
     8
  0
VERTEX
  5
128
100
AcDbEntity
  8
KEEPOUTLAYER
100
AcDbVertex
100
AcDb2dVertex
 10
1.799459
 20
1.823331
 30
0.0
 42
1.0
  0
VERTEX
  5
129
100
AcDbEntity
  8
KEEPOUTLAYER
100
AcDbVertex
100
AcDb2dVertex
 10
1.801959
 20
1.823331
 30
0.0
 42
1.0
  0
SEQEND
  5
12A
100
AcDbEntity
  8
0
  0
POLYLINE
  5
12B
100
AcDbEntity
  8
KEEPOUTLAYER
100
AcDb2dPolyline
 66
     1
 10
0.0
 20
0.0
 30
0.0
 70
     1
 40
0.0025
 41
0.0025
 75
     8
  0
VERTEX
  5
12C
100
AcDbEntity
  8
KEEPOUTLAYER
100
AcDbVertex
100
AcDb2dVertex
 10
1.917459
 20
1.823331
 30
0.0
 42
1.0
  0
VERTEX
  5
12D
100
AcDbEntity
  8
KEEPOUTLAYER
100
AcDbVertex
100
AcDb2dVertex
 10
1.919959
 20
1.823331
 30
0.0
 42
1.0
  0
SEQEND
  5
12E
100
AcDbEntity
  8
0
  0
POLYLINE
  5
12F
100
AcDbEntity
  8
KEEPOUTLAYER
100
AcDb2dPolyline
 66
     1
 10
0.0
 20
0.0
 30
0.0
 40
0.005
 41
0.005
 75
     8
  0
VERTEX
  5
130
100
AcDbEntity
  8
KEEPOUTLAYER
100
AcDbVertex
100
AcDb2dVertex
 10
5.08811
 20
4.018331
 30
0.0
  0
VERTEX
  5
131
100
AcDbEntity
  8
KEEPOUTLAYER
100
AcDbVertex
100
AcDb2dVertex
 10
5.08811
 20
4.491142
 30
0.0
  0
SEQEND
  5
132
100
AcDbEntity
  8
0
  0
POLYLINE
  5
133
100
AcDbEntity
  8
KEEPOUTLAYER
100
AcDb2dPolyline
 66
     1
 10
0.0
 20
0.0
 30
0.0
 70
     1
 40
0.0025
 41
0.0025
 75
     8
  0
VERTEX
  5
134
100
AcDbEntity
  8
KEEPOUTLAYER
100
AcDbVertex
100
AcDb2dVertex
 10
5.08686
 20
4.018331
 30
0.0
 42
1.0
  0
VERTEX
  5
135
100
AcDbEntity
  8
KEEPOUTLAYER
100
AcDbVertex
100
AcDb2dVertex
 10
5.08936
 20
4.018331
 30
0.0
 42
1.0
  0
SEQEND
  5
136
100
AcDbEntity
  8
0
  0
POLYLINE
  5
137
100
AcDbEntity
  8
KEEPOUTLAYER
100
AcDb2dPolyline
 66
     1
 10
0.0
 20
0.0
 30
0.0
 70
     1
 40
0.0025
 41
0.0025
 75
     8
  0
VERTEX
  5
138
100
AcDbEntity
  8
KEEPOUTLAYER
100
AcDbVertex
100
AcDb2dVertex
 10
5.08686
 20
4.491142
 30
0.0
 42
1.0
  0
VERTEX
  5
139
100
AcDbEntity
  8
KEEPOUTLAYER
100
AcDbVertex
100
AcDb2dVertex
 10
5.08936
 20
4.491142
 30
0.0
 42
1.0
  0
SEQEND
  5
13A
100
AcDbEntity
  8
0
  0
POLYLINE
  5
13B
100
AcDbEntity
  8
KEEPOUTLAYER
100
AcDb2dPolyline
 66
     1
 10
0.0
 20
0.0
 30
0.0
 40
0.005
 41
0.005
 75
     8
  0
VERTEX
  5
13C
100
AcDbEntity
  8
KEEPOUTLAYER
100
AcDbVertex
100
AcDb2dVertex
 10
4.97011
 20
4.018331
 30
0.0
  0
VERTEX
  5
13D
100
AcDbEntity
  8
KEEPOUTLAYER
100
AcDbVertex
100
AcDb2dVertex
 10
5.08811
 20
4.018331
 30
0.0
  0
SEQEND
  5
13E
100
AcDbEntity
  8
0
  0
POLYLINE
  5
13F
100
AcDbEntity
  8
KEEPOUTLAYER
100
AcDb2dPolyline
 66
     1
 10
0.0
 20
0.0
 30
0.0
 70
     1
 40
0.0025
 41
0.0025
 75
     8
  0
VERTEX
  5
140
100
AcDbEntity
  8
KEEPOUTLAYER
100
AcDbVertex
100
AcDb2dVertex
 10
4.96886
 20
4.018331
 30
0.0
 42
1.0
  0
VERTEX
  5
141
100
AcDbEntity
  8
KEEPOUTLAYER
100
AcDbVertex
100
AcDb2dVertex
 10
4.97136
 20
4.018331
 30
0.0
 42
1.0
  0
SEQEND
  5
142
100
AcDbEntity
  8
0
  0
POLYLINE
  5
143
100
AcDbEntity
  8
KEEPOUTLAYER
100
AcDb2dPolyline
 66
     1
 10
0.0
 20
0.0
 30
0.0
 70
     1
 40
0.0025
 41
0.0025
 75
     8
  0
VERTEX
  5
144
100
AcDbEntity
  8
KEEPOUTLAYER
100
AcDbVertex
100
AcDb2dVertex
 10
5.08686
 20
4.018331
 30
0.0
 42
1.0
  0
VERTEX
  5
145
100
AcDbEntity
  8
KEEPOUTLAYER
100
AcDbVertex
100
AcDb2dVertex
 10
5.08936
 20
4.018331
 30
0.0
 42
1.0
  0
SEQEND
  5
146
100
AcDbEntity
  8
0
  0
POLYLINE
  5
147
100
AcDbEntity
  8
KEEPOUTLAYER
100
AcDb2dPolyline
 66
     1
 10
0.0
 20
0.0
 30
0.0
 40
0.005
 41
0.005
 75
     8
  0
VERTEX
  5
148
100
AcDbEntity
  8
KEEPOUTLAYER
100
AcDbVertex
100
AcDb2dVertex
 10
4.97011
 20
3.844331
 30
0.0
  0
VERTEX
  5
149
100
AcDbEntity
  8
KEEPOUTLAYER
100
AcDbVertex
100
AcDb2dVertex
 10
4.97011
 20
4.018331
 30
0.0
  0
SEQEND
  5
14A
100
AcDbEntity
  8
0
  0
POLYLINE
  5
14B
100
AcDbEntity
  8
KEEPOUTLAYER
100
AcDb2dPolyline
 66
     1
 10
0.0
 20
0.0
 30
0.0
 70
     1
 40
0.0025
 41
0.0025
 75
     8
  0
VERTEX
  5
14C
100
AcDbEntity
  8
KEEPOUTLAYER
100
AcDbVertex
100
AcDb2dVertex
 10
4.96886
 20
3.844331
 30
0.0
 42
1.0
  0
VERTEX
  5
14D
100
AcDbEntity
  8
KEEPOUTLAYER
100
AcDbVertex
100
AcDb2dVertex
 10
4.97136
 20
3.844331
 30
0.0
 42
1.0
  0
SEQEND
  5
14E
100
AcDbEntity
  8
0
  0
POLYLINE
  5
14F
100
AcDbEntity
  8
KEEPOUTLAYER
100
AcDb2dPolyline
 66
     1
 10
0.0
 20
0.0
 30
0.0
 70
     1
 40
0.0025
 41
0.0025
 75
     8
  0
VERTEX
  5
150
100
AcDbEntity
  8
KEEPOUTLAYER
100
AcDbVertex
100
AcDb2dVertex
 10
4.96886
 20
4.018331
 30
0.0
 42
1.0
  0
VERTEX
  5
151
100
AcDbEntity
  8
KEEPOUTLAYER
100
AcDbVertex
100
AcDb2dVertex
 10
4.97136
 20
4.018331
 30
0.0
 42
1.0
  0
SEQEND
  5
152
100
AcDbEntity
  8
0
  0
POLYLINE
  5
153
100
AcDbEntity
  8
KEEPOUTLAYER
100
AcDb2dPolyline
 66
     1
 10
0.0
 20
0.0
 30
0.0
 40
0.005
 41
0.005
 75
     8
  0
VERTEX
  5
154
100
AcDbEntity
  8
KEEPOUTLAYER
100
AcDbVertex
100
AcDb2dVertex
 10
4.97011
 20
1.823331
 30
0.0
  0
VERTEX
  5
155
100
AcDbEntity
  8
KEEPOUTLAYER
100
AcDbVertex
100
AcDb2dVertex
 10
4.97011
 20
3.844331
 30
0.0
  0
SEQEND
  5
156
100
AcDbEntity
  8
0
  0
POLYLINE
  5
157
100
AcDbEntity
  8
KEEPOUTLAYER
100
AcDb2dPolyline
 66
     1
 10
0.0
 20
0.0
 30
0.0
 70
     1
 40
0.0025
 41
0.0025
 75
     8
  0
VERTEX
  5
158
100
AcDbEntity
  8
KEEPOUTLAYER
100
AcDbVertex
100
AcDb2dVertex
 10
4.96886
 20
1.823331
 30
0.0
 42
1.0
  0
VERTEX
  5
159
100
AcDbEntity
  8
KEEPOUTLAYER
100
AcDbVertex
100
AcDb2dVertex
 10
4.97136
 20
1.823331
 30
0.0
 42
1.0
  0
SEQEND
  5
15A
100
AcDbEntity
  8
0
  0
POLYLINE
  5
15B
100
AcDbEntity
  8
KEEPOUTLAYER
100
AcDb2dPolyline
 66
     1
 10
0.0
 20
0.0
 30
0.0
 70
     1
 40
0.0025
 41
0.0025
 75
     8
  0
VERTEX
  5
15C
100
AcDbEntity
  8
KEEPOUTLAYER
100
AcDbVertex
100
AcDb2dVertex
 10
4.96886
 20
3.844331
 30
0.0
 42
1.0
  0
VERTEX
  5
15D
100
AcDbEntity
  8
KEEPOUTLAYER
100
AcDbVertex
100
AcDb2dVertex
 10
4.97136
 20
3.844331
 30
0.0
 42
1.0
  0
SEQEND
  5
15E
100
AcDbEntity
  8
0
  0
POLYLINE
  5
15F
100
AcDbEntity
  8
KEEPOUTLAYER
100
AcDb2dPolyline
 66
     1
 10
0.0
 20
0.0
 30
0.0
 40
0.005
 41
0.005
 75
     8
  0
VERTEX
  5
160
100
AcDbEntity
  8
KEEPOUTLAYER
100
AcDbVertex
100
AcDb2dVertex
 10
4.97011
 20
1.823331
 30
0.0
  0
VERTEX
  5
161
100
AcDbEntity
  8
KEEPOUTLAYER
100
AcDbVertex
100
AcDb2dVertex
 10
5.08811
 20
1.823331
 30
0.0
  0
SEQEND
  5
162
100
AcDbEntity
  8
0
  0
POLYLINE
  5
163
100
AcDbEntity
  8
KEEPOUTLAYER
100
AcDb2dPolyline
 66
     1
 10
0.0
 20
0.0
 30
0.0
 70
     1
 40
0.0025
 41
0.0025
 75
     8
  0
VERTEX
  5
164
100
AcDbEntity
  8
KEEPOUTLAYER
100
AcDbVertex
100
AcDb2dVertex
 10
4.96886
 20
1.823331
 30
0.0
 42
1.0
  0
VERTEX
  5
165
100
AcDbEntity
  8
KEEPOUTLAYER
100
AcDbVertex
100
AcDb2dVertex
 10
4.97136
 20
1.823331
 30
0.0
 42
1.0
  0
SEQEND
  5
166
100
AcDbEntity
  8
0
  0
POLYLINE
  5
167
100
AcDbEntity
  8
KEEPOUTLAYER
100
AcDb2dPolyline
 66
     1
 10
0.0
 20
0.0
 30
0.0
 70
     1
 40
0.0025
 41
0.0025
 75
     8
  0
VERTEX
  5
168
100
AcDbEntity
  8
KEEPOUTLAYER
100
AcDbVertex
100
AcDb2dVertex
 10
5.08686
 20
1.823331
 30
0.0
 42
1.0
  0
VERTEX
  5
169
100
AcDbEntity
  8
KEEPOUTLAYER
100
AcDbVertex
100
AcDb2dVertex
 10
5.08936
 20
1.823331
 30
0.0
 42
1.0
  0
SEQEND
  5
16A
100
AcDbEntity
  8
0
  0
POLYLINE
  5
16B
100
AcDbEntity
  8
KEEPOUTLAYER
100
AcDb2dPolyline
 66
     1
 10
0.0
 20
0.0
 30
0.0
 40
0.005
 41
0.005
 75
     8
  0
VERTEX
  5
16C
100
AcDbEntity
  8
KEEPOUTLAYER
100
AcDbVertex
100
AcDb2dVertex
 10
5.08811
 20
1.479331
 30
0.0
  0
VERTEX
  5
16D
100
AcDbEntity
  8
KEEPOUTLAYER
100
AcDbVertex
100
AcDb2dVertex
 10
5.08811
 20
1.823331
 30
0.0
  0
SEQEND
  5
16E
100
AcDbEntity
  8
0
  0
POLYLINE
  5
16F
100
AcDbEntity
  8
KEEPOUTLAYER
100
AcDb2dPolyline
 66
     1
 10
0.0
 20
0.0
 30
0.0
 70
     1
 40
0.0025
 41
0.0025
 75
     8
  0
VERTEX
  5
170
100
AcDbEntity
  8
KEEPOUTLAYER
100
AcDbVertex
100
AcDb2dVertex
 10
5.08686
 20
1.479331
 30
0.0
 42
1.0
  0
VERTEX
  5
171
100
AcDbEntity
  8
KEEPOUTLAYER
100
AcDbVertex
100
AcDb2dVertex
 10
5.08936
 20
1.479331
 30
0.0
 42
1.0
  0
SEQEND
  5
172
100
AcDbEntity
  8
0
  0
POLYLINE
  5
173
100
AcDbEntity
  8
KEEPOUTLAYER
100
AcDb2dPolyline
 66
     1
 10
0.0
 20
0.0
 30
0.0
 70
     1
 40
0.0025
 41
0.0025
 75
     8
  0
VERTEX
  5
174
100
AcDbEntity
  8
KEEPOUTLAYER
100
AcDbVertex
100
AcDb2dVertex
 10
5.08686
 20
1.823331
 30
0.0
 42
1.0
  0
VERTEX
  5
175
100
AcDbEntity
  8
KEEPOUTLAYER
100
AcDbVertex
100
AcDb2dVertex
 10
5.08936
 20
1.823331
 30
0.0
 42
1.0
  0
SEQEND
  5
176
100
AcDbEntity
  8
0
  0
SOLID
  5
177
100
AcDbEntity
  8
TOPOVERLAY
100
AcDbTrace
 10
2.633417
 20
3.445
 30
0.0
 11
2.995
 21
3.445
 31
0.0
 12
2.633417
 22
3.88522
 32
0.0
 13
2.995
 23
3.88522
 33
0.0
  0
SOLID
  5
178
100
AcDbEntity
  8
TOPOVERLAY
100
AcDbTrace
 10
3.088709
 20
3.45022
 30
0.0
 11
3.443039
 21
3.45022
 31
0.0
 12
3.088709
 22
3.88522
 32
0.0
 13
3.443039
 23
3.88522
 33
0.0
  0
SOLID
  5
179
100
AcDbEntity
  8
TOPOVERLAY
100
AcDbTrace
 10
3.554709
 20
3.447535
 30
0.0
 11
4.177937
 21
3.447535
 31
0.0
 12
3.554709
 22
4.108567
 32
0.0
 13
4.177937
 23
4.108567
 33
0.0
  0
INSERT
  5
215
100
AcDbEntity
  8
0
100
AcDbBlockReference
  2
SCREW_M3_1
 10
1.918819
 20
4.20374
 30
0.0
  0
TEXT
  5
216
100
AcDbEntity
  8
TOPOVERLAY
100
AcDbText
 10
1.893709
 20
4.181331
 30
0.0
 40
0.04
  1
TP1
100
AcDbText
  0
INSERT
  5
2B2
100
AcDbEntity
  8
0
100
AcDbBlockReference
  2
SCREW_M3_2
 10
4.97
 20
4.20374
 30
0.0
  0
TEXT
  5
2B3
100
AcDbEntity
  8
TOPOVERLAY
100
AcDbText
 10
4.942709
 20
4.184331
 30
0.0
 40
0.04
  1
TP2
100
AcDbText
  0
INSERT
  5
34F
100
AcDbEntity
  8
0
100
AcDbBlockReference
  2
SCREW_M3_3
 10
4.97
 20
1.625
 30
0.0
  0
TEXT
  5
350
100
AcDbEntity
  8
TOPOVERLAY
100
AcDbText
 10
4.921709
 20
1.603331
 30
0.0
 40
0.04
  1
TP3
100
AcDbText
  0
INSERT
  5
3EC
100
AcDbEntity
  8
0
100
AcDbBlockReference
  2
SCREW_M3_4
 10
1.918819
 20
1.625
 30
0.0
  0
TEXT
  5
3ED
100
AcDbEntity
  8
TOPOVERLAY
100
AcDbText
 10
1.862709
 20
1.606331
 30
0.0
 40
0.04
  1
TP4
100
AcDbText
  0
ENDSEC
  0
SECTION
  2
OBJECTS
  0
DICTIONARY
  5
19
100
AcDbDictionary
  3
ACAD_GROUP
350
1A
  3
ACAD_MLINESTYLE
350
1B
  0
DICTIONARY
  5
1A
102
{ACAD_REACTORS
330
19
102
}
100
AcDbDictionary
  0
DICTIONARY
  5
1B
102
{ACAD_REACTORS
330
19
102
}
100
AcDbDictionary
  3
STANDARD
350
1C
  0
MLINESTYLE
  5
1C
102
{ACAD_REACTORS
330
1B
102
}
100
AcDbMlineStyle
  2
STANDARD
 70
     0
  3

 62
     0
 51
90.0
 52
90.0
 71
     2
 49
0.5
 62
   256
  6
BYLAYER
 49
-0.5
 62
   256
  6
BYLAYER
  0
ENDSEC
  0
EOF
