  0
SECTION
  2
HEADER
  9
$ACADVER
  1
AC1009
  9
$INSBASE
 10
0.000000
 20
0.000000
  9
$LIMMIN
 10
-101.209704
 20
-132.862295
  9
$LIMMAX
 10
2438.790296
 20
2407.137705
  9
$EXTMIN
 10
-101.209704
 20
-132.862295
  9
$EXTMAX
 10
2438.790296
 20
2407.137705
  9
$ATTMODE
 70
0
  9
$LUNITS
 70
2
  9
$LUPREC
 70
3
  9
$THICKNESS
 40
1.666240
  0
ENDSEC
  0
SECTION
  2
TABLES
  0
TABLE
  2
LTYPE
 70
1
  0
LTYPE
  3
Solid Line
  2
CONTINUOUS
 70
0
 72
65
 73
0
 40
0.000000
  0
ENDTAB
  0
TABLE
  2
LAYER
 70
2
  0
LAYER
  2
MECHANICAL1
 70
0
 62
1
  6
CONTINUOUS
  0
LAYER
  2
TOPOVERLAY
 70
0
 62
2
  6
CONTINUOUS
  0
ENDTAB
  0
TABLE
  2
STYLE
 70
1
  0
STYLE
  2
STANDARD
 70
0
 40
0.000000
 41
1.000000
 50
0.000000
 71
0
 42
0.200000
  3
txt
  0
ENDTAB
  0
ENDSEC
  0
SECTION
  2
BLOCKS
  0
BLOCK
  8
0
  2
FIGURE_CIRCLE
 70
0
 10
0.000000
 20
0.000000
  0
CIRCLE
  8
0
 10
0.000000
 20
0.000000
 40
0.500000
  0
ENDBLK
  0
BLOCK
  8
0
  2
FIGURE_SQUARE
 70
0
 10
0.000000
 20
0.000000
  0
POLYLINE
  8
0
 66
1
 70
1
 40
0.000000
 41
0.000000
 39
0.000000
  0
VERTEX
  8
0
 10
-0.500000
 20
-0.500000
 40
0.000000
 41
0.000000
 42
0.000000
  0
VERTEX
  8
0
 10
-0.500000
 20
0.500000
 40
0.000000
 41
0.000000
 42
0.000000
  0
VERTEX
  8
0
 10
0.500000
 20
0.500000
 40
0.000000
 41
0.000000
 42
0.000000
  0
VERTEX
  8
0
 10
0.500000
 20
-0.500000
 40
0.000000
 41
0.000000
 42
0.000000
  0
SEQEND
  0
ENDBLK
  0
BLOCK
  8
0
  2
FIGURE_HEX
 70
0
 10
0.000000
 20
0.000000
  0
POLYLINE
  8
0
 66
1
 70
1
 40
0.000000
 41
0.000000
 39
0.000000
  0
VERTEX
  8
0
 10
-0.500000
 20
0.000000
 40
0.000000
 41
0.000000
 42
0.000000
  0
VERTEX
  8
0
 10
-0.250000
 20
0.500000
 40
0.000000
 41
0.000000
 42
0.000000
  0
VERTEX
  8
0
 10
0.250000
 20
0.500000
 40
0.000000
 41
0.000000
 42
0.000000
  0
VERTEX
  8
0
 10
0.500000
 20
0.000000
 40
0.000000
 41
0.000000
 42
0.000000
  0
VERTEX
  8
0
 10
0.250000
 20
-0.500000
 40
0.000000
 41
0.000000
 42
0.000000
  0
VERTEX
  8
0
 10
-0.250000
 20
-0.500000
 40
0.000000
 41
0.000000
 42
0.000000
  0
SEQEND
  0
ENDBLK
  0
BLOCK
  8
0
  2
FIGURE_OCT
 70
0
 10
0.000000
 20
0.000000
  0
POLYLINE
  8
0
 66
1
 70
1
 40
0.000000
 41
0.000000
 39
0.000000
  0
VERTEX
  8
0
 10
-0.500000
 20
-0.207100
 40
0.000000
 41
0.000000
 42
0.000000
  0
VERTEX
  8
0
 10
-0.500000
 20
0.207100
 40
0.000000
 41
0.000000
 42
0.000000
  0
VERTEX
  8
0
 10
-0.207100
 20
0.500000
 40
0.000000
 41
0.000000
 42
0.000000
  0
VERTEX
  8
0
 10
0.207100
 20
0.500000
 40
0.000000
 41
0.000000
 42
0.000000
  0
VERTEX
  8
0
 10
0.500000
 20
0.207100
 40
0.000000
 41
0.000000
 42
0.000000
  0
VERTEX
  8
0
 10
0.500000
 20
-0.207100
 40
0.000000
 41
0.000000
 42
0.000000
  0
VERTEX
  8
0
 10
0.207100
 20
-0.500000
 40
0.000000
 41
0.000000
 42
0.000000
  0
VERTEX
  8
0
 10
-0.207100
 20
-0.500000
 40
0.000000
 41
0.000000
 42
0.000000
  0
SEQEND
  0
ENDBLK
  0
BLOCK
  8
0
  2
FIGURE_OBLONG
 70
0
 10
0.000000
 20
0.000000
  0
POLYLINE
  8
0
 66
1
 70
1
 40
0.000000
 41
0.000000
 39
0.000000
  0
VERTEX
  8
0
 10
-0.500000
 20
-0.125000
 40
0.000000
 41
0.000000
 42
0.000000
  0
VERTEX
  8
0
 10
-0.500000
 20
0.125000
 40
0.000000
 41
0.000000
 42
0.000000
  0
VERTEX
  8
0
 10
-0.416000
 20
0.375000
 40
0.000000
 41
0.000000
 42
0.000000
  0
VERTEX
  8
0
 10
-0.250000
 20
0.500000
 40
0.000000
 41
0.000000
 42
0.000000
  0
VERTEX
  8
0
 10
0.250000
 20
0.500000
 40
0.000000
 41
0.000000
 42
0.000000
  0
VERTEX
  8
0
 10
0.416000
 20
0.375000
 40
0.000000
 41
0.000000
 42
0.000000
  0
VERTEX
  8
0
 10
0.500000
 20
0.125000
 40
0.000000
 41
0.000000
 42
0.000000
  0
VERTEX
  8
0
 10
0.500000
 20
-0.125000
 40
0.000000
 41
0.000000
 42
0.000000
  0
VERTEX
  8
0
 10
0.416000
 20
-0.375000
 40
0.000000
 41
0.000000
 42
0.000000
  0
VERTEX
  8
0
 10
0.250000
 20
-0.500000
 40
0.000000
 41
0.000000
 42
0.000000
  0
VERTEX
  8
0
 10
-0.250000
 20
-0.500000
 40
0.000000
 41
0.000000
 42
0.000000
  0
VERTEX
  8
0
 10
-0.416000
 20
-0.375000
 40
0.000000
 41
0.000000
 42
0.000000
  0
SEQEND
  0
ENDBLK
  0
BLOCK
  8
0
  2
FIGURE_TRI
 70
0
 10
0.000000
 20
0.000000
  0
POLYLINE
  8
0
 66
1
 70
1
 40
0.000000
 41
0.000000
 39
0.000000
  0
VERTEX
  8
0
 10
-0.500000
 20
-0.500000
 40
0.000000
 41
0.000000
 42
0.000000
  0
VERTEX
  8
0
 10
0.000000
 20
0.500000
 40
0.000000
 41
0.000000
 42
0.000000
  0
VERTEX
  8
0
 10
0.500000
 20
-0.500000
 40
0.000000
 41
0.000000
 42
0.000000
  0
SEQEND
  0
ENDBLK
  0
BLOCK
  8
0
  2
FIGURE_CROSS
 70
0
 10
0.000000
 20
0.000000
  0
POLYLINE
  8
0
 66
1
 70
0
 40
0.000000
 41
0.000000
 39
0.000000
  0
VERTEX
  8
0
 10
-0.500000
 20
0.000000
 40
0.000000
 41
0.000000
 42
0.000000
  0
VERTEX
  8
0
 10
0.500000
 20
0.000000
 40
0.000000
 41
0.000000
 42
0.000000
  0
SEQEND
  0
POLYLINE
  8
0
 66
1
 70
0
 40
0.000000
 41
0.000000
 39
0.000000
  0
VERTEX
  8
0
 10
0.000000
 20
0.500000
 40
0.000000
 41
0.000000
 42
0.000000
  0
VERTEX
  8
0
 10
0.000000
 20
-0.500000
 40
0.000000
 41
0.000000
 42
0.000000
  0
SEQEND
  0
ENDBLK
  0
BLOCK
  8
0
  2
FIGURE_DIAMOND
 70
0
 10
0.000000
 20
0.000000
  0
POLYLINE
  8
0
 66
1
 70
1
 40
0.000000
 41
0.000000
 39
0.000000
  0
VERTEX
  8
0
 10
-0.500000
 20
0.000000
 40
0.000000
 41
0.000000
 42
0.000000
  0
VERTEX
  8
0
 10
0.000000
 20
0.500000
 40
0.000000
 41
0.000000
 42
0.000000
  0
VERTEX
  8
0
 10
0.500000
 20
0.000000
 40
0.000000
 41
0.000000
 42
0.000000
  0
VERTEX
  8
0
 10
0.000000
 20
-0.500000
 40
0.000000
 41
0.000000
 42
0.000000
  0
SEQEND
  0
ENDBLK
  0
ENDSEC
  0
SECTION
  2
ENTITIES
  0
POLYLINE
  8
TOPOVERLAY
 66
1
 70
1
 40
0.000000
 41
0.000000
 39
0.000000
  0
VERTEX
  8
TOPOVERLAY
 10
67.663085
 20
-61.130307
 40
0.127000
 41
0.127000
 42
0.000000
  0
VERTEX
  8
TOPOVERLAY
 10
80.142156
 20
-61.130307
 40
0.127000
 41
0.127000
 42
0.000000
  0
VERTEX
  8
TOPOVERLAY
 10
80.142156
 20
-34.061705
 40
0.127000
 41
0.127000
 42
0.000000
  0
VERTEX
  8
TOPOVERLAY
 10
33.125639
 20
-34.061705
 40
0.127000
 41
0.127000
 42
0.000000
  0
VERTEX
  8
TOPOVERLAY
 10
33.125639
 20
-60.064701
 40
0.127000
 41
0.127000
 42
0.000000
  0
VERTEX
  8
TOPOVERLAY
 10
35.625557
 20
-60.064701
 40
0.127000
 41
0.127000
 42
0.000000
  0
VERTEX
  8
TOPOVERLAY
 10
35.625557
 20
-74.756747
 40
0.127000
 41
0.127000
 42
0.000000
  0
VERTEX
  8
TOPOVERLAY
 10
42.039210
 20
-74.756747
 40
0.127000
 41
0.127000
 42
0.000000
  0
VERTEX
  8
TOPOVERLAY
 10
42.039210
 20
-78.568067
 40
0.127000
 41
0.127000
 42
0.000000
  0
VERTEX
  8
TOPOVERLAY
 10
63.759664
 20
-78.568067
 40
0.127000
 41
0.127000
 42
0.000000
  0
VERTEX
  8
TOPOVERLAY
 10
63.759664
 20
-65.668957
 40
0.127000
 41
0.127000
 42
0.000000
  0
VERTEX
  8
TOPOVERLAY
 10
67.576116
 20
-65.668957
 40
0.127000
 41
0.127000
 42
0.000000
  0
VERTEX
  8
TOPOVERLAY
 10
67.576116
 20
-61.130307
 40
0.127000
 41
0.127000
 42
0.000000
  0
SEQEND
  0
POLYLINE
  8
MECHANICAL1
 66
1
 70
1
 40
0.000000
 41
0.000000
 39
0.000000
  0
VERTEX
  8
MECHANICAL1
 10
0.000000
 20
0.000000
 40
0.127000
 41
0.127000
 42
0.000000
  0
VERTEX
  8
MECHANICAL1
 10
100.000003
 20
0.000000
 40
0.127000
 41
0.127000
 42
0.000000
  0
VERTEX
  8
MECHANICAL1
 10
100.000003
 20
-85.000008
 40
0.127000
 41
0.127000
 42
0.000000
  0
VERTEX
  8
MECHANICAL1
 10
0.000000
 20
-85.000008
 40
0.127000
 41
0.127000
 42
0.000000
  0
SEQEND
  0
TEXT
  8
TOPOVERLAY
 10
96.374229
 20
-37.793041
 11
0.000000
 21
0.000000
 40
0.508000
 41
0.750000
 50
0.000000
  7
STANDARD
 71
0
 72
0
  1
LOCK_12V
 73
0
  0
TEXT
  8
TOPOVERLAY
 10
96.264552
 20
-36.506861
 11
0.000000
 21
0.000000
 40
0.508000
 41
0.750000
 50
0.000000
  7
STANDARD
 71
0
 72
0
  1
GND
 73
0
  0
TEXT
  8
TOPOVERLAY
 10
6.073724
 20
-9.915169
 11
0.000000
 21
0.000000
 40
1.270000
 41
0.500000
 50
0.000000
  7
STANDARD
 71
0
 72
0
  1
RXD1
 73
0
  0
TEXT
  8
TOPOVERLAY
 10
5.985383
 20
-8.224241
 11
0.000000
 21
0.000000
 40
1.270000
 41
0.500000
 50
0.000000
  7
STANDARD
 71
0
 72
0
  1
TXD1
 73
0
  0
TEXT
  8
TOPOVERLAY
 10
5.985383
 20
-6.520663
 11
0.000000
 21
0.000000
 40
1.270000
 41
0.500000
 50
0.000000
  7
STANDARD
 71
0
 72
0
  1
GND
 73
0
  0
TEXT
  8
TOPOVERLAY
 10
89.586410
 20
-84.267878
 11
0.000000
 21
0.000000
 40
1.270000
 41
0.500000
 50
0.000000
  7
STANDARD
 71
0
 72
0
  1
recovery
 73
0
  0
TEXT
  8
TOPOVERLAY
 10
75.705487
 20
-84.242656
 11
0.000000
 21
0.000000
 40
1.270000
 41
0.500000
 50
0.000000
  7
STANDARD
 71
0
 72
0
  1
reset
 73
0
  0
TEXT
  8
TOPOVERLAY
 10
55.439335
 20
-80.002659
 11
0.000000
 21
0.000000
 40
1.270000
 41
0.500000
 50
0.000000
  7
STANDARD
 71
0
 72
0
  1
power
 73
0
  0
ENDSEC
  0
EOF
