<?xml version="1.0" encoding="UTF-8"?>
<!DOCTYPE svg PUBLIC "-//W3C//DTD SVG 1.1//EN" "http://www.w3.org/Graphics/SVG/1.1/DTD/svg11.dtd">

<svg xmlns="http://www.w3.org/2000/svg" xmlns:xlink="http://www.w3.org/1999/xlink" xmlns:xs="http://www.w3.org/2001/XMLSchema" xmlns:wb="http://www.ti.com/webench" version="1.1" width="100%" height="100%" viewBox="0 0 1730.0 705.0" preserveAspectRatio="xMidYMid meet">
  <defs>
    <g id="WB_CONTINUATION">
      <circle xmlns="" opacity="0.01" fill="#ffffff" stroke="#000000" stroke-width="0" cx="0" cy="0" r="14" />
      <line fill="none" stroke="#CC0000" stroke-width="2" x1="0" y1="10" x2="0" y2="-10" />
      <line fill="none" stroke="#CC0000" stroke-width="2" x1="-10" y1="-10" x2="10" y2="-10" />
    </g>
    <g id="WB_BLOCK_IO">
      <circle xmlns="" opacity="0.01" fill="#ffffff" stroke="#000000" stroke-width="0" cx="0" cy="0" r="14" />
      <line stroke="#CC0000" fill="none" stroke-width="2" x1="-5" y1="0" x2="5" y2="0" />
    </g>
    <g id="WB_RESISTOR">
      <circle xmlns="" opacity="0.01" fill="#ffffff" stroke="#000000" stroke-width="0" cx="0" cy="0" r="14" />
      <polyline fill="none" stroke="#115566" stroke-width="2" stroke-linecap="round" stroke-linejoin="round" points="30,0 20,0 15,-6 7.5,6 0,-6 -7.5,6 -15,-6 -20,0 -30,0" />
    </g>
    <g id="WB_PWL_CURRENT_LOAD">
      <circle xmlns="" opacity="0.01" fill="#ffffff" stroke="#000000" stroke-width="0" cx="0" cy="0" r="14" />
      <circle fill-opacity="0.01" fill="#CC0000" stroke="#CC0000" stroke-width="2" cx="0" cy="0" r="14" />
      <line y1="0" x2="-20" stroke="#CC0000" x1="-30" fill="none" stroke-width="2" y2="0" />
      <line y1="0" x2="20" stroke="#CC0000" x1="30" fill="none" stroke-width="2" y2="0" />
      <polyline stroke="#CC0000" points="-7,6 4,8  " stroke-linejoin="round" fill="none" stroke-width="2" stroke-linecap="round" />
      <polyline stroke="#CC0000" points="-7,-6 4,-8  " stroke-linejoin="round" fill="none" stroke-width="2" stroke-linecap="round" />
      <polyline stroke="#CC0000" points="-20,0 -15,0  " stroke-linejoin="round" fill="none" stroke-width="2" stroke-linecap="round" />
      <polyline stroke="#CC0000" points="20,0 15,0  " stroke-linejoin="round" fill="none" stroke-width="2" stroke-linecap="round" />
      <polyline stroke="#CC0000" points="-7,-6 -7,6  " stroke-linejoin="round" fill="none" stroke-width="2" stroke-linecap="round" />
      <polyline stroke="#CC0000" points="4,-8 4,-11  " stroke-linejoin="round" fill="none" stroke-width="2" stroke-linecap="round" />
      <polyline stroke="#CC0000" points="4,8 4,11  " stroke-linejoin="round" fill="none" stroke-width="2" stroke-linecap="round" />
      <line x1="23" y1="-13" x2="23" y2="-7" stroke="#CC0000" fill="none" stroke-width="2" stroke-linecap="round" />
      <line x1="-23" y1="-13" x2="-23" y2="-7" stroke="#CC0000" fill="none" stroke-width="2" stroke-linecap="round" />
      <line x1="-26" y1="-10" x2="-20" y2="-10" stroke="#CC0000" fill="none" stroke-width="2" stroke-linecap="round" />
    </g>
    <g id="WB_STARTUP_VOLTAGE_SOURCE">
      <circle xmlns="" opacity="0.01" fill="#ffffff" stroke="#000000" stroke-width="0" cx="0" cy="0" r="14" />
      <circle fill-opacity="0.01" fill="#CC0000" stroke="#CC0000" stroke-width="2" cx="0" cy="0" r="14" />
      <polyline fill="none" stroke="#CC0000" stroke-width="2" points="-6,-11 -6,7 5,9 5,12 " />
      <line fill="none" stroke="#CC0000" stroke-width="2" x1="16" y1="-12" x2="16" y2="-18" />
      <line fill="none" stroke="#CC0000" stroke-width="2" x1="-17" y1="-12" x2="-17" y2="-18" />
      <line fill="none" stroke="#CC0000" stroke-width="2" x1="-14" y1="-15" x2="-20" y2="-15" />
      <line fill="none" stroke="#CC0000" stroke-width="2" x1="-15" y1="0" x2="-30" y2="0" />
      <line fill="none" stroke="#CC0000" stroke-width="2" x1="30" y1="0" x2="15" y2="0" />
    </g>
    <g id="WB_SOURCE_RESISTOR">
      <circle xmlns="" opacity="0.01" fill="#ffffff" stroke="#000000" stroke-width="0" cx="0" cy="0" r="14" />
      <polyline fill="none" stroke="#CC0000" stroke-width="2" stroke-linecap="round" stroke-linejoin="round" points="30,0 20,0 15,-6 7.5,6 0,-6 -7.5,6 -15,-6 -20,0 -30,0" />
    </g>
    <g id="WB_PRIM_STARTUP_VOLTAGE_SOURCE">
      <circle xmlns="" opacity="0.01" fill="#ffffff" stroke="#000000" stroke-width="0" cx="0" cy="0" r="14" />
      <circle fill-opacity="0.01" fill="#CC0000" stroke="#CC0000" stroke-width="2" cx="0" cy="0" r="14" />
      <polyline fill="none" stroke="#CC0000" stroke-width="2" points="-6,-11 -6,7 5,9 5,12 " />
      <line fill="none" stroke="#CC0000" stroke-width="2" x1="16" y1="-12" x2="16" y2="-18" />
      <line fill="none" stroke="#CC0000" stroke-width="2" x1="-17" y1="-12" x2="-17" y2="-18" />
      <line fill="none" stroke="#CC0000" stroke-width="2" x1="-14" y1="-15" x2="-20" y2="-15" />
      <line fill="none" stroke="#CC0000" stroke-width="2" x1="-15" y1="0" x2="-30" y2="0" />
      <line fill="none" stroke="#CC0000" stroke-width="2" x1="30" y1="0" x2="15" y2="0" />
    </g>
    <g id="WB_PRIM_DC_VOLTAGE_SOURCE">
      <circle xmlns="" opacity="0.01" fill="#ffffff" stroke="#000000" stroke-width="0" cx="0" cy="0" r="14" />
      <line fill="none" stroke="#CC0000" stroke-width="2" x1="-8" y1="0" x2="-30" y2="0" />
      <line fill="none" stroke="#CC0000" stroke-width="2" x1="-7" y1="12" x2="-7" y2="-12" />
      <line fill="none" stroke="#CC0000" stroke-width="2" x1="4" y1="12" x2="4" y2="-12" />
      <line fill="none" stroke="#CC0000" stroke-width="2" x1="30" y1="0" x2="11" y2="0" />
      <line fill="none" stroke="#CC0000" stroke-width="2" x1="-2" y1="5" x2="-2" y2="-5" />
      <line fill="none" stroke="#CC0000" stroke-width="2" x1="-1" y1="5" x2="-1" y2="-5" />
      <line fill="none" stroke="#CC0000" stroke-width="2" x1="-14" y1="-9" x2="-14" y2="-15" />
      <line fill="none" stroke="#CC0000" stroke-width="2" x1="-11" y1="-12" x2="-17" y2="-12" />
      <line fill="none" stroke="#CC0000" stroke-width="2" x1="13" y1="-10" x2="13" y2="-15" />
      <line fill="none" stroke="#CC0000" stroke-width="2" x1="10" y1="5" x2="10" y2="-5" />
      <line fill="none" stroke="#CC0000" stroke-width="2" x1="9" y1="5" x2="9" y2="-5" />
    </g>
    <g id="WB_PRIM_PULSE_VOLTAGE_SOURCE">
      <circle xmlns="" opacity="0.01" fill="#ffffff" stroke="#000000" stroke-width="0" cx="0" cy="0" r="14" />
      <circle fill-opacity="0.01" fill="#CC0000" stroke="#CC0000" stroke-width="2" cx="0" cy="0" r="14" />
      <line y1="0" x2="-20" stroke="#CC0000" x1="-30" fill="none" stroke-width="2" y2="0" />
      <line y1="0" x2="20" stroke="#CC0000" x1="30" fill="none" stroke-width="2" y2="0" />
      <polyline stroke="#CC0000" points="-7,6 4,8  " stroke-linejoin="round" fill="none" stroke-width="2" stroke-linecap="round" />
      <polyline stroke="#CC0000" points="-7,-6 4,-8  " stroke-linejoin="round" fill="none" stroke-width="2" stroke-linecap="round" />
      <polyline stroke="#CC0000" points="-20,0 -15,0  " stroke-linejoin="round" fill="none" stroke-width="2" stroke-linecap="round" />
      <polyline stroke="#CC0000" points="20,0 15,0  " stroke-linejoin="round" fill="none" stroke-width="2" stroke-linecap="round" />
      <polyline stroke="#CC0000" points="-7,-6 -7,6  " stroke-linejoin="round" fill="none" stroke-width="2" stroke-linecap="round" />
      <polyline stroke="#CC0000" points="4,-8 4,-11  " stroke-linejoin="round" fill="none" stroke-width="2" stroke-linecap="round" />
      <polyline stroke="#CC0000" points="4,8 4,11  " stroke-linejoin="round" fill="none" stroke-width="2" stroke-linecap="round" />
      <line x1="23" y1="-13" x2="23" y2="-7" stroke="#CC0000" fill="none" stroke-width="2" stroke-linecap="round" />
      <line x1="-23" y1="-13" x2="-23" y2="-7" stroke="#CC0000" fill="none" stroke-width="2" stroke-linecap="round" />
      <line x1="-26" y1="-10" x2="-20" y2="-10" stroke="#CC0000" fill="none" stroke-width="2" stroke-linecap="round" />
    </g>
    <g id="WB_CAPACITOR">
      <circle xmlns="" opacity="0.01" fill="#ffffff" stroke="#000000" stroke-width="0" cx="0" cy="0" r="14" />
      <line y1="0" x2="20" stroke="#115566" x1="30" fill="none" stroke-width="2" y2="0" />
      <line y1="0" x2="-20" stroke="#115566" x1="-30" fill="none" stroke-width="2" y2="0" />
      <polyline stroke="#115566" points="3,12 3,-12  " stroke-linejoin="round" fill="none" stroke-width="2" stroke-linecap="round" />
      <polyline stroke="#115566" points="-20,0 -3,0  " stroke-linejoin="round" fill="none" stroke-width="2" stroke-linecap="round" />
      <polyline stroke="#115566" points="3,0 20,0  " stroke-linejoin="round" fill="none" stroke-width="2" stroke-linecap="round" />
      <polyline stroke="#115566" points="-3,12 -3,-12  " stroke-linejoin="round" fill="none" stroke-width="2" stroke-linecap="round" />
    </g>
    <g id="WB_PWL_VOLTAGE_SOURCE">
      <circle xmlns="" opacity="0.01" fill="#ffffff" stroke="#000000" stroke-width="0" cx="0" cy="0" r="14" />
      <circle fill-opacity="0.01" fill="#CC0000" stroke="#CC0000" stroke-width="2" cx="0" cy="0" r="14" />
      <line y1="0" x2="-20" stroke="#CC0000" x1="-30" fill="none" stroke-width="2" y2="0" />
      <line y1="0" x2="20" stroke="#CC0000" x1="30" fill="none" stroke-width="2" y2="0" />
      <polyline stroke="#CC0000" points="-7,6 4,8  " stroke-linejoin="round" fill="none" stroke-width="2" stroke-linecap="round" />
      <polyline stroke="#CC0000" points="-7,-6 4,-8  " stroke-linejoin="round" fill="none" stroke-width="2" stroke-linecap="round" />
      <polyline stroke="#CC0000" points="-20,0 -15,0  " stroke-linejoin="round" fill="none" stroke-width="2" stroke-linecap="round" />
      <polyline stroke="#CC0000" points="20,0 15,0  " stroke-linejoin="round" fill="none" stroke-width="2" stroke-linecap="round" />
      <polyline stroke="#CC0000" points="-7,-6 -7,6  " stroke-linejoin="round" fill="none" stroke-width="2" stroke-linecap="round" />
      <polyline stroke="#CC0000" points="4,-8 4,-11  " stroke-linejoin="round" fill="none" stroke-width="2" stroke-linecap="round" />
      <polyline stroke="#CC0000" points="4,8 4,11  " stroke-linejoin="round" fill="none" stroke-width="2" stroke-linecap="round" />
      <line x1="23" y1="-13" x2="23" y2="-7" stroke="#CC0000" fill="none" stroke-width="2" stroke-linecap="round" />
      <line x1="-23" y1="-13" x2="-23" y2="-7" stroke="#CC0000" fill="none" stroke-width="2" stroke-linecap="round" />
      <line x1="-26" y1="-10" x2="-20" y2="-10" stroke="#CC0000" fill="none" stroke-width="2" stroke-linecap="round" />
    </g>
    <g id="WB_PRIM_PWL_VOLTAGE_SOURCE">
      <circle xmlns="" opacity="0.01" fill="#ffffff" stroke="#000000" stroke-width="0" cx="0" cy="0" r="14" />
      <circle fill-opacity="0.01" fill="#CC0000" stroke="#CC0000" stroke-width="2" cx="0" cy="0" r="14" />
      <line x1="-30" y1="0" x2="-15" y2="0" stroke="#CC0000" fill="none" stroke-width="2" />
      <line x1="30" y1="0" x2="15" y2="0" stroke="#CC0000" fill="none" stroke-width="2" />
      <polyline stroke="#CC0000" points="0,13 0,8 -7,6 -7,0 7,-4 0,-8 0,-13" stroke-linejoin="round" fill="none" stroke-width="2" stroke-linecap="round" />
      <line x1="23" y1="-13" x2="23" y2="-7" stroke="#CC0000" fill="none" stroke-width="2" stroke-linecap="round" />
      <line x1="-23" y1="-13" x2="-23" y2="-7" stroke="#CC0000" fill="none" stroke-width="2" stroke-linecap="round" />
      <line x1="-26" y1="-10" x2="-20" y2="-10" stroke="#CC0000" fill="none" stroke-width="2" stroke-linecap="round" />
    </g>
    <g id="WB_CURRENT_PROBE">
      <circle xmlns="" opacity="0.01" fill="#ffffff" stroke="#000000" stroke-width="0" cx="0" cy="0" r="14" />
      <line stroke="#CC0000" stroke-width="2" stroke-linecap="square" stroke-linejoin="round" x1="-16" y1="0" x2="-10" y2="0" />
      <polyline stroke="#CC0000" stroke-width="2" stroke-linecap="square" stroke-linejoin="round" points="6,0 3,-3.5 3,3.5 6,0 -6,0 " />
      <line stroke="#CC0000" stroke-width="2" stroke-linecap="square" stroke-linejoin="round" x1="10" y1="0" x2="16" y2="0" />
      <rect stroke-width="1" x="-9.5" y="-7" fill="none" stroke="#CC0000" width="19" height="14" />
    </g>
    <g id="WB_LOAD_RESISTOR">
      <circle xmlns="" opacity="0.01" fill="#ffffff" stroke="#000000" stroke-width="0" cx="0" cy="0" r="14" />
      <polyline fill="none" stroke="#CC0000" stroke-width="2" stroke-linecap="round" stroke-linejoin="round" points="30,0 20,0 15,-6 7.5,6 0,-6 -7.5,6 -15,-6 -20,0 -30,0" />
    </g>
    <g id="WB_PRIMITIVE_CAPACITOR">
      <circle xmlns="" opacity="0.01" fill="#ffffff" stroke="#000000" stroke-width="0" cx="0" cy="0" r="14" />
      <line y1="0" x2="20" stroke="#CC0000" x1="30" fill="none" stroke-width="2" y2="0" />
      <line y1="0" x2="-20" stroke="#CC0000" x1="-30" fill="none" stroke-width="2" y2="0" />
      <polyline stroke="#CC0000" points="3,12 3,-12  " stroke-linejoin="round" fill="none" stroke-width="2" stroke-linecap="round" />
      <polyline stroke="#CC0000" points="-20,0 -3,0  " stroke-linejoin="round" fill="none" stroke-width="2" stroke-linecap="round" />
      <polyline stroke="#CC0000" points="3,0 20,0  " stroke-linejoin="round" fill="none" stroke-width="2" stroke-linecap="round" />
      <polyline stroke="#CC0000" points="-3,12 -3,-12  " stroke-linejoin="round" fill="none" stroke-width="2" stroke-linecap="round" />
    </g>
    <g id="WB_GND">
      <circle xmlns="" opacity="0.01" fill="#ffffff" stroke="#000000" stroke-width="0" cx="0" cy="0" r="14" />
      <line fill="none" stroke="black" stroke-width="2" x1="0" y1="-10" x2="0" y2="0" />
      <line fill="none" stroke="black" stroke-width="2" x1="-13" y1="0" x2="13" y2="0" />
      <line fill="none" stroke="black" stroke-width="2" x1="-9" y1="4" x2="9" y2="4" />
      <line fill="none" stroke="black" stroke-width="2" x1="-3" y1="8" x2="3" y2="8" />
    </g>
    <g id="WB_PRIMITIVE_INDUCTOR">
      <circle xmlns="" opacity="0.01" fill="#ffffff" stroke="#000000" stroke-width="0" cx="0" cy="0" r="14" />
      <path fill="none" stroke="#CC0000" stroke-width="2" stroke-linecap="round" stroke-linejoin="round" d="M-10,0c0-0.6-0.2-1.8-0.6-3.3c-0.5-2.4-2-3.7-4.4-4c-2.4,0.3-3.8,1.6-4.3,4c-0.6,2.3-0.8,3.6-0.7,3M-20,0H-30" />
      <path fill="none" stroke="#CC0000" stroke-width="2" stroke-linecap="round" stroke-linejoin="round" d="M0,0c0-0.6-0.2-1.8-0.6-3.3c-0.5-2.4-2-3.7-4.4-4c-2.4,0.3-3.8,1.6-4.3,4c-0.6,2.3-0.8,3.6-0.7,4" />
      <path fill="none" stroke="#CC0000" stroke-width="2" stroke-linecap="round" stroke-linejoin="round" d="M10,0c0-0.6-0.2-1.8-0.6-3.3c-0.5-2.4-2-3.7-4.4-4c-2.4,0.3-3.8,1.6-4.3,4c-0.6,2.3-0.8,3.6-0.7,4" />
      <path fill="none" stroke="#CC0000" stroke-width="2" stroke-linecap="round" stroke-linejoin="round" d="M30,0H20c0-0.6-0.2-1.8-0.6-3.3c-0.5-2.4-2-3.7-4.4-4c-2.4,0.3-3.8,1.6-4.3,4c-0.6,2.3-0.8,3.6-0.7,4" />
      <path fill="none" stroke="#CC0000" stroke-width="2" stroke-linecap="round" stroke-linejoin="round" d=" M10,0 c0.1,0.4,0.1,0.6,0,0.7" />
      <path fill="none" stroke="#CC0000" stroke-width="2" stroke-linecap="round" stroke-linejoin="round" d=" M0,0  c0.1,0.4,0.1,0.6,0,0.7" />
      <path fill="none" stroke="#CC0000" stroke-width="2" stroke-linecap="round" stroke-linejoin="round" d=" M-10,0c0.1,0.4,0.1,0.6,0,0.7" />
    </g>
    <g id="WB_PRIM_AC_VOLTAGE_SOURCE">
      <circle xmlns="" opacity="0.01" fill="#ffffff" stroke="#000000" stroke-width="0" cx="0" cy="0" r="14" />
      <circle fill-opacity="0.01" fill="#CC0000" stroke="#CC0000" stroke-width="2" cx="0" cy="0" r="14" />
      <line y1="0" x2="-20" stroke="#CC0000" x1="-30" fill="none" stroke-width="2" y2="0" />
      <line y1="0" x2="20" stroke="#CC0000" x1="30" fill="none" stroke-width="2" y2="0" />
      <polyline stroke="#CC0000" points="-20,0 -15,0  " stroke-linejoin="round" fill="none" stroke-width="2" stroke-linecap="round" />
      <polyline stroke="#CC0000" points="20,0 15,0  " stroke-linejoin="round" fill="none" stroke-width="2" stroke-linecap="round" />
      <path stroke="#CC0000" d="M0,10A5,5 0 0,1 0,0 " fill="none" stroke-width="2" stroke-linecap="round" />
      <path stroke="#CC0000" d="M0-10A5,5 0 1,1 0,0 " fill="none" stroke-width="2" stroke-linecap="round" />
      <line x1="23" y1="-13" x2="23" y2="-7" stroke="#CC0000" fill="none" stroke-width="2" stroke-linecap="round" />
      <line x1="-23" y1="-13" x2="-23" y2="-7" stroke="#CC0000" fill="none" stroke-width="2" stroke-linecap="round" />
      <line x1="-26" y1="-10" x2="-20" y2="-10" stroke="#CC0000" fill="none" stroke-width="2" stroke-linecap="round" />
    </g>
    <g id="WB_VOLTAGE_PROBE">
      <circle xmlns="" opacity="0.01" fill="#ffffff" stroke="#000000" stroke-width="0" cx="0" cy="0" r="14" />
      <rect stroke-width="1" width="20" stroke="#CC0000" x="-10" height="19.5" y="-30" fill="#CC0000" fill-opacity="0.01" />
      <polyline stroke="#CC0000" points="7,-27 4,-22 3,-26 0,-18 -1,-22 -5,-14  " stroke-linejoin="round" fill="none" stroke-width="2" stroke-linecap="round" />
      <line y1="0" x2="0" stroke="#CC0000" x1="0" fill="none" stroke-width="2" y2="-10" />
    </g>
    <g id="WB_INDUCTOR">
      <circle xmlns="" opacity="0.01" fill="#ffffff" stroke="#000000" stroke-width="0" cx="0" cy="0" r="14" />
      <path fill="none" stroke="#115566" stroke-width="2" stroke-linecap="round" stroke-linejoin="round" d="M-10,0c0-0.6-0.2-1.8-0.6-3.3c-0.5-2.4-2-3.7-4.4-4c-2.4,0.3-3.8,1.6-4.3,4c-0.6,2.3-0.8,3.6-0.7,3M-20,0H-30" />
      <path fill="none" stroke="#115566" stroke-width="2" stroke-linecap="round" stroke-linejoin="round" d="M0,0c0-0.6-0.2-1.8-0.6-3.3c-0.5-2.4-2-3.7-4.4-4c-2.4,0.3-3.8,1.6-4.3,4c-0.6,2.3-0.8,3.6-0.7,4" />
      <path fill="none" stroke="#115566" stroke-width="2" stroke-linecap="round" stroke-linejoin="round" d="M10,0c0-0.6-0.2-1.8-0.6-3.3c-0.5-2.4-2-3.7-4.4-4c-2.4,0.3-3.8,1.6-4.3,4c-0.6,2.3-0.8,3.6-0.7,4" />
      <path fill="none" stroke="#115566" stroke-width="2" stroke-linecap="round" stroke-linejoin="round" d="M30,0H20c0-0.6-0.2-1.8-0.6-3.3c-0.5-2.4-2-3.7-4.4-4c-2.4,0.3-3.8,1.6-4.3,4c-0.6,2.3-0.8,3.6-0.7,4" />
      <path fill="none" stroke="#115566" stroke-width="2" stroke-linecap="round" stroke-linejoin="round" d=" M10,0 c0.1,0.4,0.1,0.6,0,0.7" />
      <path fill="none" stroke="#115566" stroke-width="2" stroke-linecap="round" stroke-linejoin="round" d=" M0,0  c0.1,0.4,0.1,0.6,0,0.7" />
      <path fill="none" stroke="#115566" stroke-width="2" stroke-linecap="round" stroke-linejoin="round" d=" M-10,0c0.1,0.4,0.1,0.6,0,0.7" />
    </g>
    <g id="WB_TPS54824RNV">
      <circle xmlns="" opacity="0.01" fill="#ffffff" stroke="#000000" stroke-width="0" cx="0" cy="0" r="14" />
      <line fill="none" stroke="#000000" stroke-width="2" stroke-linecap="round" stroke-linejoin="round" x1="-60" y1="100" x2="60" y2="100" />
      <line fill="none" stroke="#000000" stroke-width="2" stroke-linecap="round" stroke-linejoin="round" x1="60" y1="100" x2="60" y2="-100" />
      <line fill="none" stroke="#000000" stroke-width="2" stroke-linecap="round" stroke-linejoin="round" x1="60" y1="-100" x2="-60" y2="-100" />
      <line fill="none" stroke="#000000" stroke-width="2" stroke-linecap="round" stroke-linejoin="round" x1="-60" y1="-100" x2="-60" y2="100" />
      <text id="partNumber_label" x="5" y="-90" style="font-family:arial;font-weight:bold;font-size:10px;text-anchor:middle;">TPS54824RNV</text>
      <line fill="none" stroke="#000000" stroke-width="2" stroke-linecap="round" stroke-linejoin="round" x1="80" y1="-80" x2="60" y2="-80" />
      <text id="1" x="56" y="-76" transform="rotate(0,56,-76)" style="font-family:arial;font-weight:normal;font-size:9px;text-anchor:end;">BOOT</text>
      <line fill="none" stroke="#000000" stroke-width="2" stroke-linecap="round" stroke-linejoin="round" x1="-80" y1="-80" x2="-60" y2="-80" />
      <text id="2" x="-56" y="-76" transform="rotate(0,-56,-76)" style="font-family:arial;font-weight:normal;font-size:9px;text-anchor:start;">VIN</text>
      <line fill="none" stroke="#000000" stroke-width="2" stroke-linecap="round" stroke-linejoin="round" x1="80" y1="30" x2="60" y2="30" />
      <text id="3" x="56" y="34" transform="rotate(0,56,34)" style="font-family:arial;font-weight:normal;font-size:9px;text-anchor:end;">PGND</text>
      <line fill="none" stroke="#000000" stroke-width="2" stroke-linecap="round" stroke-linejoin="round" x1="80" y1="40" x2="60" y2="40" />
      <text id="4" x="56" y="44" transform="rotate(0,56,44)" style="font-family:arial;font-weight:normal;font-size:9px;text-anchor:end;">PGND</text>
      <line fill="none" stroke="#000000" stroke-width="2" stroke-linecap="round" stroke-linejoin="round" x1="80" y1="50" x2="60" y2="50" />
      <text id="5" x="56" y="54" transform="rotate(0,56,54)" style="font-family:arial;font-weight:normal;font-size:9px;text-anchor:end;">PGND</text>
      <line fill="none" stroke="#000000" stroke-width="2" stroke-linecap="round" stroke-linejoin="round" x1="80" y1="-50" x2="60" y2="-50" />
      <text id="6" x="56" y="-46" transform="rotate(0,56,-46)" style="font-family:arial;font-weight:normal;font-size:9px;text-anchor:end;">SW</text>
      <line fill="none" stroke="#000000" stroke-width="2" stroke-linecap="round" stroke-linejoin="round" x1="80" y1="-40" x2="60" y2="-40" />
      <text id="7" x="56" y="-36" transform="rotate(0,56,-36)" style="font-family:arial;font-weight:normal;font-size:9px;text-anchor:end;">SW</text>
      <line fill="none" stroke="#000000" stroke-width="2" stroke-linecap="round" stroke-linejoin="round" x1="80" y1="60" x2="60" y2="60" />
      <text id="8" x="56" y="64" transform="rotate(0,56,64)" style="font-family:arial;font-weight:normal;font-size:9px;text-anchor:end;">PGND</text>
      <line fill="none" stroke="#000000" stroke-width="2" stroke-linecap="round" stroke-linejoin="round" x1="80" y1="70" x2="60" y2="70" />
      <text id="9" x="56" y="74" transform="rotate(0,56,74)" style="font-family:arial;font-weight:normal;font-size:9px;text-anchor:end;">PGND</text>
      <line fill="none" stroke="#000000" stroke-width="2" stroke-linecap="round" stroke-linejoin="round" x1="80" y1="80" x2="60" y2="80" />
      <text id="10" x="56" y="84" transform="rotate(0,56,84)" style="font-family:arial;font-weight:normal;font-size:9px;text-anchor:end;">PGND</text>
      <line fill="none" stroke="#000000" stroke-width="2" stroke-linecap="round" stroke-linejoin="round" x1="-80" y1="-70" x2="-60" y2="-70" />
      <text id="11" x="-56" y="-66" transform="rotate(0,-56,-66)" style="font-family:arial;font-weight:normal;font-size:9px;text-anchor:start;">VIN</text>
      <line fill="none" stroke="#000000" stroke-width="2" stroke-linecap="round" stroke-linejoin="round" x1="-80" y1="80" x2="-60" y2="80" />
      <text id="12" x="-56" y="84" transform="rotate(0,-56,84)" style="font-family:arial;font-weight:normal;font-size:9px;text-anchor:start;">AGND</text>
      <line fill="none" stroke="#000000" stroke-width="2" stroke-linecap="round" stroke-linejoin="round" x1="-80" y1="20" x2="-60" y2="20" />
      <text id="13" x="-56" y="24" transform="rotate(0,-56,24)" style="font-family:arial;font-weight:normal;font-size:9px;text-anchor:start;">RT_CLK</text>
      <line fill="none" stroke="#000000" stroke-width="2" stroke-linecap="round" stroke-linejoin="round" x1="80" y1="0" x2="60" y2="0" />
      <text id="14" x="56" y="4" transform="rotate(0,56,4)" style="font-family:arial;font-weight:normal;font-size:9px;text-anchor:end;">FB</text>
      <line fill="none" stroke="#000000" stroke-width="2" stroke-linecap="round" stroke-linejoin="round" x1="-80" y1="40" x2="-60" y2="40" />
      <text id="15" x="-56" y="44" transform="rotate(0,-56,44)" style="font-family:arial;font-weight:normal;font-size:9px;text-anchor:start;">COMP</text>
      <line fill="none" stroke="#000000" stroke-width="2" stroke-linecap="round" stroke-linejoin="round" x1="-80" y1="0" x2="-60" y2="0" />
      <text id="16" x="-56" y="4" transform="rotate(0,-56,4)" style="font-family:arial;font-weight:normal;font-size:9px;text-anchor:start;">SS_TRK</text>
      <line fill="none" stroke="#000000" stroke-width="2" stroke-linecap="round" stroke-linejoin="round" x1="-80" y1="-40" x2="-60" y2="-40" />
      <text id="17" x="-56" y="-36" transform="rotate(0,-56,-36)" style="font-family:arial;font-weight:normal;font-size:9px;text-anchor:start;">EN</text>
      <line fill="none" stroke="#000000" stroke-width="2" stroke-linecap="round" stroke-linejoin="round" x1="-80" y1="-20" x2="-60" y2="-20" />
      <text id="18" x="-56" y="-16" transform="rotate(0,-56,-16)" style="font-family:arial;font-weight:normal;font-size:9px;text-anchor:start;">PGOOD</text>
    </g>
    <g id="WB_PRIMITIVE_BATTERY">
      <circle xmlns="" opacity="0.01" fill="#ffffff" stroke="#000000" stroke-width="0" cx="0" cy="0" r="14" />
      <line fill="none" stroke="#CC0000" stroke-width="2" x1="-8" y1="0" x2="-30" y2="0" />
      <line fill="none" stroke="#CC0000" stroke-width="2" x1="-7" y1="12" x2="-7" y2="-12" />
      <line fill="none" stroke="#CC0000" stroke-width="2" x1="4" y1="12" x2="4" y2="-12" />
      <line fill="none" stroke="#CC0000" stroke-width="2" x1="30" y1="0" x2="11" y2="0" />
      <line fill="none" stroke="#CC0000" stroke-width="2" x1="-2" y1="5" x2="-2" y2="-5" />
      <line fill="none" stroke="#CC0000" stroke-width="2" x1="-1" y1="5" x2="-1" y2="-5" />
      <line fill="none" stroke="#CC0000" stroke-width="2" x1="-14" y1="-9" x2="-14" y2="-15" />
      <line fill="none" stroke="#CC0000" stroke-width="2" x1="-11" y1="-12" x2="-17" y2="-12" />
      <line fill="none" stroke="#CC0000" stroke-width="2" x1="13" y1="-10" x2="13" y2="-15" />
      <line fill="none" stroke="#CC0000" stroke-width="2" x1="10" y1="5" x2="10" y2="-5" />
      <line fill="none" stroke="#CC0000" stroke-width="2" x1="9" y1="5" x2="9" y2="-5" />
    </g>
    <g id="WB_BATTERY">
      <circle xmlns="" opacity="0.01" fill="#ffffff" stroke="#000000" stroke-width="0" cx="0" cy="0" r="14" />
      <line fill="none" stroke="#CC0000" stroke-width="2" x1="-8" y1="0" x2="-30" y2="0" />
      <line fill="none" stroke="#CC0000" stroke-width="2" x1="-7" y1="12" x2="-7" y2="-12" />
      <line fill="none" stroke="#CC0000" stroke-width="2" x1="4" y1="12" x2="4" y2="-12" />
      <line fill="none" stroke="#CC0000" stroke-width="2" x1="30" y1="0" x2="11" y2="0" />
      <line fill="none" stroke="#CC0000" stroke-width="2" x1="-2" y1="5" x2="-2" y2="-5" />
      <line fill="none" stroke="#CC0000" stroke-width="2" x1="-1" y1="5" x2="-1" y2="-5" />
      <line fill="none" stroke="#CC0000" stroke-width="2" x1="-14" y1="-9" x2="-14" y2="-15" />
      <line fill="none" stroke="#CC0000" stroke-width="2" x1="-11" y1="-12" x2="-17" y2="-12" />
      <line fill="none" stroke="#CC0000" stroke-width="2" x1="13" y1="-10" x2="13" y2="-15" />
      <line fill="none" stroke="#CC0000" stroke-width="2" x1="10" y1="5" x2="10" y2="-5" />
      <line fill="none" stroke="#CC0000" stroke-width="2" x1="9" y1="5" x2="9" y2="-5" />
    </g>
  </defs>
  <use id="Cboot" class="comp" xlink:href="#WB_CAPACITOR" x="1095.0" y="220.0" transform="rotate(-180, 1095.0, 220.0)" cap="100nF" partNo="GRM155R71C104KA88D" thermalId="0402" esr="1mOhm" manufacturer="MuRata" />
  <text for="Cboot" x="1075.0" y="205.0" style="font-family:arial;font-size:13px;stroke-width:0.5;stroke:#115566;fill:#115566;">Cboot</text>
  <text for="Cboot" x="1075.0" y="240.0" style="font-family:arial;font-size:10px;stroke-width:0.1;stroke:#CC0000;fill:#CC0000;">100nF</text>
  <text for="Cboot" x="1075.0" y="250.0" style="font-family:arial;font-size:10px;stroke-width:0.1;stroke:#CC0000;fill:#CC0000;">1mOhm</text>
  <use id="Rpg" class="comp" xlink:href="#WB_RESISTOR" x="1035.0" y="110.0" partNo="RC0201FR-0756K2L" thermalId="0201" resistance="56.2kOhm" manufacturer="Yageo" />
  <text for="Rpg" x="1015.0" y="95.0" style="font-family:arial;font-size:13px;stroke-width:0.5;stroke:#115566;fill:#115566;">Rpg</text>
  <text for="Rpg" x="1015.0" y="130.0" style="font-family:arial;font-size:10px;stroke-width:0.1;stroke:#CC0000;fill:#CC0000;">56.2kOhm</text>
  <use id="Cout" class="comp" xlink:href="#WB_CAPACITOR" x="1405.0" y="430.0" transform="rotate(-90, 1405.0, 430.0)" cap="47uF" partNo="GRM31CR61A476KE15L" thermalId="1206_190" esr="3.709mOhm" manufacturer="MuRata" />
  <text for="Cout" x="1420.0" y="430.0" style="font-family:arial;font-size:13px;stroke-width:0.5;stroke:#115566;fill:#115566;">Cout</text>
  <text for="Cout" x="1420.0" y="440.0" style="font-family:arial;font-size:10px;stroke-width:0.1;stroke:#CC0000;fill:#CC0000;">47uF</text>
  <text for="Cout" x="1420.0" y="450.0" style="font-family:arial;font-size:10px;stroke-width:0.1;stroke:#CC0000;fill:#CC0000;">3.709mOhm</text>
  <use id="Rcomp" class="comp" xlink:href="#WB_RESISTOR" x="750.0" y="450.0" transform="rotate(-90, 750.0, 450.0)" partNo="CRCW04022K15FKED" thermalId="0402" resistance="2.15kOhm" manufacturer="Vishay-Dale" />
  <text for="Rcomp" x="765.0" y="450.0" style="font-family:arial;font-size:13px;stroke-width:0.5;stroke:#115566;fill:#115566;">Rcomp</text>
  <text for="Rcomp" x="765.0" y="460.0" style="font-family:arial;font-size:10px;stroke-width:0.1;stroke:#CC0000;fill:#CC0000;">2.15kOhm</text>
  <use id="Cin" class="comp" xlink:href="#WB_CAPACITOR" x="185.0" y="355.0" transform="rotate(-90, 185.0, 355.0)" cap="4.7uF" partNo="GRM31CR71E475KA88L" thermalId="1206_190" esr="3.705mOhm" manufacturer="MuRata" />
  <text for="Cin" x="200.0" y="355.0" style="font-family:arial;font-size:13px;stroke-width:0.5;stroke:#115566;fill:#115566;">Cin</text>
  <text for="Cin" x="200.0" y="365.0" style="font-family:arial;font-size:10px;stroke-width:0.1;stroke:#CC0000;fill:#CC0000;">4.7uF</text>
  <text for="Cin" x="200.0" y="375.0" style="font-family:arial;font-size:10px;stroke-width:0.1;stroke:#CC0000;fill:#CC0000;">3.705mOhm</text>
  <text for="Cin" x="200.0" y="385.0" style="font-family:arial;font-size:10px;stroke-width:0.1;stroke:#CC0000;fill:#CC0000;">Qty=2</text>
  <use id="Rfbt" class="comp" xlink:href="#WB_RESISTOR" x="1345.0" y="300.0" transform="rotate(-90, 1345.0, 300.0)" partNo="CRCW040220K0FKED" thermalId="0402" resistance="20kOhm" manufacturer="Vishay-Dale" />
  <text for="Rfbt" x="1360.0" y="300.0" style="font-family:arial;font-size:13px;stroke-width:0.5;stroke:#115566;fill:#115566;">Rfbt</text>
  <text for="Rfbt" x="1360.0" y="310.0" style="font-family:arial;font-size:10px;stroke-width:0.1;stroke:#CC0000;fill:#CC0000;">20kOhm</text>
  <use id="Ccomp2" class="comp" xlink:href="#WB_CAPACITOR" x="830.0" y="490.0" transform="rotate(-90, 830.0, 490.0)" cap="330pF" partNo="CL21C331JBANNNC" thermalId="0805" esr="0Ohm" manufacturer="Samsung Electro-Mechanics" />
  <text for="Ccomp2" x="845.0" y="490.0" style="font-family:arial;font-size:13px;stroke-width:0.5;stroke:#115566;fill:#115566;">Ccomp2</text>
  <text for="Ccomp2" x="845.0" y="500.0" style="font-family:arial;font-size:10px;stroke-width:0.1;stroke:#CC0000;fill:#CC0000;">330pF</text>
  <text for="Ccomp2" x="845.0" y="510.0" style="font-family:arial;font-size:10px;stroke-width:0.1;stroke:#CC0000;fill:#CC0000;">0Ohm</text>
  <use id="GND" class="other" xlink:href="#WB_GND" x="885.0" y="605.0" />
  <use id="Cinx" class="comp" xlink:href="#WB_CAPACITOR" x="265.0" y="415.0" transform="rotate(-90, 265.0, 415.0)" cap="100nF" partNo="C0603C104Z3VACTU" thermalId="0603" esr="1mOhm" manufacturer="Kemet" />
  <text for="Cinx" x="280.0" y="415.0" style="font-family:arial;font-size:13px;stroke-width:0.5;stroke:#115566;fill:#115566;">Cinx</text>
  <text for="Cinx" x="280.0" y="425.0" style="font-family:arial;font-size:10px;stroke-width:0.1;stroke:#CC0000;fill:#CC0000;">100nF</text>
  <text for="Cinx" x="280.0" y="435.0" style="font-family:arial;font-size:10px;stroke-width:0.1;stroke:#CC0000;fill:#CC0000;">1mOhm</text>
  <text for="Cinx" x="280.0" y="445.0" style="font-family:arial;font-size:10px;stroke-width:0.1;stroke:#CC0000;fill:#CC0000;">Qty=2</text>
  <use id="L1" class="comp" xlink:href="#WB_INDUCTOR" x="1170.0" y="265.0" transform="rotate(-180, 1170.0, 265.0) scale(1,-1) translate(0,-530.0)" partNo="XAL5030-222MEB" thermalId="XAL5030" l="2.2uH" dcr="13.2mOhm" manufacturer="Coilcraft" />
  <text for="L1" x="1150.0" y="250.0" style="font-family:arial;font-size:13px;stroke-width:0.5;stroke:#115566;fill:#115566;">L1</text>
  <text for="L1" x="1150.0" y="285.0" style="font-family:arial;font-size:10px;stroke-width:0.1;stroke:#CC0000;fill:#CC0000;">2.2uH</text>
  <text for="L1" x="1150.0" y="295.0" style="font-family:arial;font-size:10px;stroke-width:0.1;stroke:#CC0000;fill:#CC0000;">13.2mOhm</text>
  <use id="Coutx" class="comp" xlink:href="#WB_CAPACITOR" x="1500.0" y="430.0" transform="rotate(-90, 1500.0, 430.0)" cap="47uF" partNo="GRM31CR61A476KE15L" thermalId="1206_190" esr="3.709mOhm" manufacturer="MuRata" />
  <text for="Coutx" x="1515.0" y="430.0" style="font-family:arial;font-size:13px;stroke-width:0.5;stroke:#115566;fill:#115566;">Coutx</text>
  <text for="Coutx" x="1515.0" y="440.0" style="font-family:arial;font-size:10px;stroke-width:0.1;stroke:#CC0000;fill:#CC0000;">47uF</text>
  <text for="Coutx" x="1515.0" y="450.0" style="font-family:arial;font-size:10px;stroke-width:0.1;stroke:#CC0000;fill:#CC0000;">3.709mOhm</text>
  <use id="Css" class="comp" xlink:href="#WB_CAPACITOR" x="590.0" y="475.0" transform="rotate(-90, 590.0, 475.0)" cap="3.9nF" partNo="GRM033R71A392KA01D" thermalId="0201" esr="1mOhm" manufacturer="MuRata" />
  <text for="Css" x="605.0" y="475.0" style="font-family:arial;font-size:13px;stroke-width:0.5;stroke:#115566;fill:#115566;">Css</text>
  <text for="Css" x="605.0" y="485.0" style="font-family:arial;font-size:10px;stroke-width:0.1;stroke:#CC0000;fill:#CC0000;">3.9nF</text>
  <text for="Css" x="605.0" y="495.0" style="font-family:arial;font-size:10px;stroke-width:0.1;stroke:#CC0000;fill:#CC0000;">1mOhm</text>
  <use id="Rt" class="comp" xlink:href="#WB_RESISTOR" x="440.0" y="520.0" transform="rotate(-90, 440.0, 520.0)" partNo="RC0201FR-0756K2L" thermalId="0201" resistance="56.2kOhm" manufacturer="Yageo" />
  <text for="Rt" x="455.0" y="520.0" style="font-family:arial;font-size:13px;stroke-width:0.5;stroke:#115566;fill:#115566;">Rt</text>
  <text for="Rt" x="455.0" y="530.0" style="font-family:arial;font-size:10px;stroke-width:0.1;stroke:#CC0000;fill:#CC0000;">56.2kOhm</text>
  <use id="Ccomp" class="comp" xlink:href="#WB_CAPACITOR" x="750.0" y="530.0" transform="rotate(-90, 750.0, 530.0)" cap="6.8nF" partNo="C2012C0G1H682J060AA" thermalId="0805" esr="0Ohm" manufacturer="TDK" />
  <text for="Ccomp" x="765.0" y="530.0" style="font-family:arial;font-size:13px;stroke-width:0.5;stroke:#115566;fill:#115566;">Ccomp</text>
  <text for="Ccomp" x="765.0" y="540.0" style="font-family:arial;font-size:10px;stroke-width:0.1;stroke:#CC0000;fill:#CC0000;">6.8nF</text>
  <text for="Ccomp" x="765.0" y="550.0" style="font-family:arial;font-size:10px;stroke-width:0.1;stroke:#CC0000;fill:#CC0000;">0Ohm</text>
  <use id="U1" class="comp" xlink:href="#WB_TPS54824RNV" x="980.0" y="315.0" />
  <text for="U1" x="960.0" y="315.0" style="font-family:arial;font-size:13px;stroke-width:0.5;stroke:#115566;fill:#115566;">U1</text>
  <use id="Rfbb" class="comp" xlink:href="#WB_RESISTOR" x="1345.0" y="455.0" transform="rotate(-90, 1345.0, 455.0)" partNo="CRCW04022K74FKED" thermalId="0402" resistance="2.74kOhm" manufacturer="Vishay-Dale" />
  <text for="Rfbb" x="1360.0" y="455.0" style="font-family:arial;font-size:13px;stroke-width:0.5;stroke:#115566;fill:#115566;">Rfbb</text>
  <text for="Rfbb" x="1360.0" y="465.0" style="font-family:arial;font-size:10px;stroke-width:0.1;stroke:#CC0000;fill:#CC0000;">2.74kOhm</text>
  <use id="Vin" class="other" xlink:href="#WB_STARTUP_VOLTAGE_SOURCE" x="100.0" y="315.0" transform="rotate(-270, 100.0, 315.0)" />
  <text for="Vin" x="115.0" y="315.0" style="font-family:arial;font-size:13px;stroke-width:0.5;stroke:#CC0000;fill:#CC0000;">Vin</text>
  <use id="Rload" class="other" xlink:href="#WB_LOAD_RESISTOR" x="1610.0" y="415.0" transform="rotate(-90, 1610.0, 415.0)" />
  <text for="Rload" x="1625.0" y="415.0" style="font-family:arial;font-size:13px;stroke-width:0.5;stroke:#CC0000;fill:#CC0000;">Rload</text>
  <line x1="1240.0" y1="110.0" x2="1065.0" y2="110.0" stroke="#000000" stroke-width="2" fill="none" />
  <line x1="830.0" y1="110.0" x2="1005.0" y2="110.0" stroke="#000000" stroke-width="2" fill="none" />
  <line x1="830.0" y1="295.0" x2="830.0" y2="110.0" stroke="#000000" stroke-width="2" fill="none" />
  <line x1="1240.0" y1="265.0" x2="1240.0" y2="110.0" stroke="#000000" stroke-width="2" fill="none" />
  <line x1="1500.0" y1="400.0" x2="1500.0" y2="265.0" stroke="#000000" stroke-width="2" fill="none" />
  <line x1="1500.0" y1="575.0" x2="1500.0" y2="460.0" stroke="#000000" stroke-width="2" fill="none" />
  <line x1="1345.0" y1="425.0" x2="1345.0" y2="330.0" stroke="#000000" stroke-width="2" fill="none" />
  <line x1="1060.0" y1="345.0" x2="1060.0" y2="575.0" stroke="#000000" stroke-width="2" fill="none" />
  <line x1="440.0" y1="550.0" x2="440.0" y2="575.0" stroke="#000000" stroke-width="2" fill="none" />
  <line x1="440.0" y1="490.0" x2="440.0" y2="335.0" stroke="#000000" stroke-width="2" fill="none" />
  <line x1="1345.0" y1="485.0" x2="1345.0" y2="575.0" stroke="#000000" stroke-width="2" fill="none" />
  <line x1="900.0" y1="355.0" x2="750.0" y2="355.0" stroke="#000000" stroke-width="2" fill="none" />
  <line x1="1065.0" y1="220.0" x2="1060.0" y2="220.0" stroke="#000000" stroke-width="2" fill="none" />
  <line x1="1125.0" y1="220.0" x2="1135.0" y2="220.0" stroke="#000000" stroke-width="2" fill="none" />
  <line x1="750.0" y1="500.0" x2="750.0" y2="480.0" stroke="#000000" stroke-width="2" fill="none" />
  <line x1="185.0" y1="385.0" x2="185.0" y2="575.0" stroke="#000000" stroke-width="2" fill="none" />
  <line x1="590.0" y1="315.0" x2="590.0" y2="445.0" stroke="#000000" stroke-width="2" fill="none" />
  <line x1="830.0" y1="520.0" x2="830.0" y2="575.0" stroke="#000000" stroke-width="2" fill="none" />
  <line x1="265.0" y1="385.0" x2="265.0" y2="235.0" stroke="#000000" stroke-width="2" fill="none" />
  <line x1="1060.0" y1="235.0" x2="1060.0" y2="220.0" stroke="#000000" stroke-width="2" fill="none" />
  <line x1="885.0" y1="595.0" x2="885.0" y2="575.0" stroke="#000000" stroke-width="2" fill="none" />
  <line x1="265.0" y1="445.0" x2="265.0" y2="575.0" stroke="#000000" stroke-width="2" fill="none" />
  <line x1="1135.0" y1="220.0" x2="1135.0" y2="265.0" stroke="#000000" stroke-width="2" fill="none" />
  <line x1="1345.0" y1="270.0" x2="1345.0" y2="265.0" stroke="#000000" stroke-width="2" fill="none" />
  <line x1="830.0" y1="460.0" x2="830.0" y2="355.0" stroke="#000000" stroke-width="2" fill="none" />
  <line x1="830.0" y1="295.0" x2="900.0" y2="295.0" stroke="#000000" stroke-width="2" fill="none" />
  <line x1="440.0" y1="335.0" x2="900.0" y2="335.0" stroke="#000000" stroke-width="2" fill="none" />
  <line x1="590.0" y1="505.0" x2="590.0" y2="575.0" stroke="#000000" stroke-width="2" fill="none" />
  <line x1="1060.0" y1="265.0" x2="1060.0" y2="275.0" stroke="#000000" stroke-width="2" fill="none" />
  <line x1="900.0" y1="315.0" x2="590.0" y2="315.0" stroke="#000000" stroke-width="2" fill="none" />
  <line x1="1405.0" y1="460.0" x2="1405.0" y2="575.0" stroke="#000000" stroke-width="2" fill="none" />
  <line x1="750.0" y1="420.0" x2="750.0" y2="355.0" stroke="#000000" stroke-width="2" fill="none" />
  <line x1="900.0" y1="395.0" x2="900.0" y2="575.0" stroke="#000000" stroke-width="2" fill="none" />
  <line x1="750.0" y1="560.0" x2="750.0" y2="575.0" stroke="#000000" stroke-width="2" fill="none" />
  <line x1="1060.0" y1="265.0" x2="1140.0" y2="265.0" stroke="#000000" stroke-width="2" fill="none" />
  <line x1="1210.0" y1="365.0" x2="1345.0" y2="365.0" stroke="#000000" stroke-width="2" fill="none" />
  <line x1="1210.0" y1="315.0" x2="1210.0" y2="365.0" stroke="#000000" stroke-width="2" fill="none" />
  <line x1="900.0" y1="245.0" x2="900.0" y2="235.0" stroke="#000000" stroke-width="2" fill="none" />
  <line x1="1210.0" y1="315.0" x2="1060.0" y2="315.0" stroke="#000000" stroke-width="2" fill="none" />
  <line x1="100.0" y1="575.0" x2="1610.0" y2="575.0" stroke="#000000" stroke-width="2" fill="none" />
  <line x1="1200.0" y1="265.0" x2="1610.0" y2="265.0" stroke="#000000" stroke-width="2" fill="none" />
  <line x1="185.0" y1="325.0" x2="185.0" y2="235.0" stroke="#000000" stroke-width="2" fill="none" />
  <line x1="100.0" y1="235.0" x2="900.0" y2="235.0" stroke="#000000" stroke-width="2" fill="none" />
  <line x1="1405.0" y1="400.0" x2="1405.0" y2="265.0" stroke="#000000" stroke-width="2" fill="none" />
  <line x1="100.0" y1="285.0" x2="100.0" y2="235.0" stroke="#000000" stroke-width="2" fill="none" />
  <line x1="100.0" y1="575.0" x2="100.0" y2="345.0" stroke="#000000" stroke-width="2" fill="none" />
  <line x1="1610.0" y1="385.0" x2="1610.0" y2="265.0" stroke="#000000" stroke-width="2" fill="none" />
  <line x1="1610.0" y1="575.0" x2="1610.0" y2="445.0" stroke="#000000" stroke-width="2" fill="none" />
  <circle cx="1345.0" cy="365.0" r="5" stroke="#000000" stroke-width="0" fill="#000000" />
  <circle cx="830.0" cy="355.0" r="5" stroke="#000000" stroke-width="0" fill="#000000" />
  <circle cx="1135.0" cy="265.0" r="5" stroke="#000000" stroke-width="0" fill="#000000" />
  <circle cx="1500.0" cy="575.0" r="5" stroke="#000000" stroke-width="0" fill="#000000" />
  <circle cx="1060.0" cy="575.0" r="5" stroke="#000000" stroke-width="0" fill="#000000" />
  <circle cx="440.0" cy="575.0" r="5" stroke="#000000" stroke-width="0" fill="#000000" />
  <circle cx="1345.0" cy="575.0" r="5" stroke="#000000" stroke-width="0" fill="#000000" />
  <circle cx="185.0" cy="575.0" r="5" stroke="#000000" stroke-width="0" fill="#000000" />
  <circle cx="830.0" cy="575.0" r="5" stroke="#000000" stroke-width="0" fill="#000000" />
  <circle cx="885.0" cy="575.0" r="5" stroke="#000000" stroke-width="0" fill="#000000" />
  <circle cx="265.0" cy="575.0" r="5" stroke="#000000" stroke-width="0" fill="#000000" />
  <circle cx="590.0" cy="575.0" r="5" stroke="#000000" stroke-width="0" fill="#000000" />
  <circle cx="1405.0" cy="575.0" r="5" stroke="#000000" stroke-width="0" fill="#000000" />
  <circle cx="900.0" cy="575.0" r="5" stroke="#000000" stroke-width="0" fill="#000000" />
  <circle cx="750.0" cy="575.0" r="5" stroke="#000000" stroke-width="0" fill="#000000" />
  <circle cx="1240.0" cy="265.0" r="5" stroke="#000000" stroke-width="0" fill="#000000" />
  <circle cx="1500.0" cy="265.0" r="5" stroke="#000000" stroke-width="0" fill="#000000" />
  <circle cx="1345.0" cy="265.0" r="5" stroke="#000000" stroke-width="0" fill="#000000" />
  <circle cx="1405.0" cy="265.0" r="5" stroke="#000000" stroke-width="0" fill="#000000" />
  <circle cx="265.0" cy="235.0" r="5" stroke="#000000" stroke-width="0" fill="#000000" />
  <circle cx="185.0" cy="235.0" r="5" stroke="#000000" stroke-width="0" fill="#000000" />
</svg>

