G04 ================== begin FILE IDENTIFICATION RECORD ==================*
G04 Layout Name:  F:/PCB/ANT/mid.brd*
G04 Film Name:    SilkscreenTOP*
G04 File Format:  Gerber RS274X*
G04 File Origin:  Cadence Allegro 16.6-2015-S108*
G04 Origin Date:  Mon Jul 29 15:01:10 2019*
G04 *
G04 Layer:  REF DES/SILKSCREEN_TOP*
G04 Layer:  PACKAGE GEOMETRY/SILKSCREEN_TOP*
G04 Layer:  BOARD GEOMETRY/SILKSCREEN_TOP*
G04 Layer:  BOARD GEOMETRY/OUTLINE*
G04 *
G04 Offset:    (0.0000 0.0000)*
G04 Mirror:    No*
G04 Mode:      Positive*
G04 Rotation:  0*
G04 FullContactRelief:  No*
G04 UndefLineWidth:     0.1270*
G04 ================== end FILE IDENTIFICATION RECORD ====================*
%FSLAX35Y35*MOMM*%
%IR0*IPPOS*OFA0.00000B0.00000*MIA0B0*SFA1.00000B1.00000*%
%ADD10C,.127*%
G75*
%LPD*%
G75*
G54D10*
G01X-3229800Y1924000D02*
Y-76000D01*
G01D02*
X-3104800D01*
G01Y-276000D02*
X-2804800D01*
G01Y-76000D02*
Y-276000D01*
G01X-3104800Y-76000D02*
Y-276000D01*
G01X-2804800Y-76000D02*
X-154800D01*
G01X-2962380Y89500D02*
Y26000D01*
G01X-2977960Y89500D02*
X-2946800D01*
G01X-2906500Y26000D02*
Y89500D01*
X-2914630Y76800D01*
G01Y26000D02*
X-2898370D01*
G01X-3229800Y1924000D02*
X-3104800D01*
G01Y2124000D02*
X-2804800D01*
G01X-3104800D02*
Y1924000D01*
G01X-2804800Y2124000D02*
Y1924000D01*
G01D02*
X-154800D01*
G01X-2965980Y2087500D02*
Y2024000D01*
G01X-2981560Y2087500D02*
X-2950400D01*
G01X-2922970Y2076920D02*
X-2918910Y2083270D01*
X-2914160Y2086440D01*
X-2908750Y2087500D01*
X-2901970Y2085380D01*
X-2897230Y2080090D01*
X-2895880Y2073740D01*
X-2896550Y2067390D01*
X-2899260Y2062100D01*
X-2912810Y2051520D01*
X-2918910Y2044110D01*
X-2922970Y2033520D01*
X-2924320Y2024000D01*
X-2895880D01*
G01X-2460680Y32200D02*
Y-31300D01*
G01X-2476260Y32200D02*
X-2445100D01*
G01X-2396670Y-31300D02*
Y32200D01*
X-2421730Y-13310D01*
X-2387870D01*
G01X270200Y1924000D02*
Y-76000D01*
G01X-154800Y-276000D02*
X145200D01*
G01Y-76000D02*
Y-276000D01*
G01X-154800Y-76000D02*
Y-276000D01*
G01X145200Y-76000D02*
X270200D01*
G01X-11080Y32200D02*
Y-31300D01*
G01X-26660Y32200D02*
X4500D01*
G01X29900Y-18600D02*
X33960Y-26010D01*
X39380Y-30240D01*
X45480Y-31300D01*
X50900Y-30240D01*
X56320Y-24950D01*
X59700Y-18600D01*
X60380Y-12250D01*
X59020Y-4840D01*
X54280Y450D01*
X49540Y2570D01*
X43450D01*
G01X49540D02*
X53610Y5740D01*
X56990Y11030D01*
X58350Y17380D01*
X56990Y23730D01*
X53610Y29020D01*
X47510Y32200D01*
X41410Y31140D01*
X35320Y26910D01*
G01X-154800Y2124000D02*
Y1924000D01*
G01X145200Y2124000D02*
Y1924000D01*
G01X-154800Y2124000D02*
X145200D01*
G01Y1924000D02*
X270200D01*
M02*
