G04*
G04 #@! TF.GenerationSoftware,Altium Limited,Altium Designer,23.10.1 (27)*
G04*
G04 Layer_Color=8388736*
%FSLAX25Y25*%
%MOIN*%
G70*
G04*
G04 #@! TF.SameCoordinates,442CD837-0526-4CC3-B5C4-5EBA4434BA87*
G04*
G04*
G04 #@! TF.FilePolarity,Negative*
G04*
G01*
G75*
%ADD19R,0.06312X0.05131*%
%ADD20R,0.04800X0.03800*%
%ADD21R,0.03556X0.04147*%
%ADD22R,0.03800X0.04800*%
%ADD23C,0.07099*%
%ADD24C,0.06902*%
%ADD25O,0.06800X0.03800*%
%ADD26R,0.06800X0.03800*%
%ADD27C,0.09461*%
D19*
X78295Y-102406D02*
D03*
X52705D02*
D03*
X78295Y-90595D02*
D03*
X52705D02*
D03*
X111795Y-102406D02*
D03*
X86205D02*
D03*
X111795Y-90595D02*
D03*
X86205D02*
D03*
X45795Y-102406D02*
D03*
X20205D02*
D03*
X45795Y-90595D02*
D03*
X20205D02*
D03*
D20*
X65302Y-83100D02*
D03*
X71498D02*
D03*
X71598Y-75900D02*
D03*
X65500D02*
D03*
X71098Y-26000D02*
D03*
X64902D02*
D03*
D21*
X110500Y-5500D02*
D03*
X116405D02*
D03*
X80000D02*
D03*
X74094D02*
D03*
D22*
X57900Y-39398D02*
D03*
Y-33202D02*
D03*
X101900Y-39398D02*
D03*
Y-33202D02*
D03*
X79600Y-33302D02*
D03*
Y-39498D02*
D03*
X65233Y-33202D02*
D03*
Y-39398D02*
D03*
X72567Y-33202D02*
D03*
Y-39398D02*
D03*
X87233Y-33202D02*
D03*
Y-39398D02*
D03*
X94567Y-33202D02*
D03*
Y-39398D02*
D03*
X19000Y-83298D02*
D03*
Y-77200D02*
D03*
X78000Y-81898D02*
D03*
Y-75702D02*
D03*
D23*
X40000Y-19106D02*
D03*
X50000D02*
D03*
X60000D02*
D03*
X70000D02*
D03*
X80000D02*
D03*
X90000D02*
D03*
Y-59500D02*
D03*
X80000D02*
D03*
X70000D02*
D03*
X60000D02*
D03*
X50000D02*
D03*
X40000D02*
D03*
D24*
X100500Y-5500D02*
D03*
X113500Y-70500D02*
D03*
X125500D02*
D03*
X60600Y-101700D02*
D03*
X31000Y-101500D02*
D03*
X38000Y-6000D02*
D03*
X50000Y-5500D02*
D03*
X70500Y-101800D02*
D03*
X97500Y-100000D02*
D03*
X89000Y-5500D02*
D03*
D25*
X4000Y-63000D02*
D03*
Y-53000D02*
D03*
Y-58000D02*
D03*
D26*
Y-68000D02*
D03*
D27*
X122441Y-93701D02*
D03*
X64961Y-5512D02*
D03*
X7874Y-93701D02*
D03*
M02*
