%FSLAX25Y25*%
%MOIN*%
G70*
G01*
G75*
%ADD10C,0.02500*%
%ADD11R,0.11811X0.08661*%
%ADD12R,0.03347X0.02756*%
%ADD13R,0.02756X0.03347*%
%ADD14O,0.03543X0.01969*%
%ADD15O,0.03543X0.01969*%
%ADD16R,0.03543X0.01969*%
%ADD17R,0.01969X0.03150*%
%ADD18R,0.02362X0.03937*%
%ADD19O,0.02500X0.05500*%
%ADD20R,0.02500X0.05500*%
%ADD21R,0.03150X0.01969*%
%ADD22R,0.08661X0.11811*%
%ADD23O,0.05500X0.02500*%
%ADD24R,0.05500X0.02500*%
%ADD25R,0.02165X0.01181*%
%ADD26R,0.03150X0.01181*%
%ADD27R,0.01181X0.02165*%
%ADD28R,0.01181X0.03150*%
%ADD29R,0.03937X0.02362*%
%ADD30O,0.02362X0.07087*%
%ADD31O,0.07087X0.02362*%
%ADD32R,0.07000X0.03150*%
%ADD33R,0.07874X0.06000*%
%ADD34R,0.03937X0.03150*%
G04:AMPARAMS|DCode=35|XSize=35.43mil|YSize=157.48mil|CornerRadius=1.77mil|HoleSize=0mil|Usage=FLASHONLY|Rotation=300.000|XOffset=0mil|YOffset=0mil|HoleType=Round|Shape=RoundedRectangle|*
%AMROUNDEDRECTD35*
21,1,0.03543,0.15394,0,0,300.0*
21,1,0.03189,0.15748,0,0,300.0*
1,1,0.00354,-0.05868,-0.05229*
1,1,0.00354,-0.07463,-0.02468*
1,1,0.00354,0.05868,0.05229*
1,1,0.00354,0.07463,0.02468*
%
%ADD35ROUNDEDRECTD35*%
%ADD36C,0.02000*%
%ADD37C,0.07000*%
%ADD38C,0.00800*%
%ADD39C,0.01000*%
%ADD40C,0.04000*%
%ADD41C,0.05000*%
%ADD42C,0.03000*%
%ADD43R,0.07874X0.11811*%
%ADD44O,0.07874X0.11811*%
%ADD45R,0.05906X0.05906*%
%ADD46C,0.05906*%
%ADD47R,0.05906X0.05906*%
%ADD48C,0.06000*%
G04:AMPARAMS|DCode=49|XSize=51.18mil|YSize=173.23mil|CornerRadius=2.56mil|HoleSize=0mil|Usage=FLASHONLY|Rotation=300.000|XOffset=0mil|YOffset=0mil|HoleType=Round|Shape=RoundedRectangle|*
%AMROUNDEDRECTD49*
21,1,0.05118,0.16811,0,0,300.0*
21,1,0.04606,0.17323,0,0,300.0*
1,1,0.00512,-0.06128,-0.06197*
1,1,0.00512,-0.08431,-0.02208*
1,1,0.00512,0.06128,0.06197*
1,1,0.00512,0.08431,0.02208*
%
%ADD49ROUNDEDRECTD49*%
%ADD50C,0.03000*%
%ADD51C,0.02000*%
%ADD52C,0.05000*%
%ADD53R,0.01575X0.03347*%
%ADD54R,0.02756X0.08268*%
%ADD55R,0.02559X0.04843*%
%ADD56C,0.00500*%
%ADD57C,0.00787*%
%ADD58R,0.11811X0.01575*%
%ADD59R,0.01575X0.11811*%
D38*
X522000Y328500D02*
Y338736D01*
X511764D02*
X522000D01*
X511764Y328500D02*
Y338736D01*
Y328500D02*
X522000D01*
D39*
X431253Y252300D02*
G03*
X431253Y252300I-361J0D01*
G01*
X496500Y211400D02*
Y235400D01*
Y211400D02*
X534500D01*
Y239400D01*
X496500D02*
X534500D01*
X496500Y235400D02*
Y239400D01*
X506500Y220400D02*
X514500D01*
X512500D02*
X524500D01*
X511500D02*
Y224400D01*
X519500Y220400D02*
Y224400D01*
X506500Y228400D02*
X524500D01*
X512500Y229400D02*
X518500D01*
X512500Y230400D02*
X518500D01*
X512500Y228400D02*
Y230400D01*
X518500Y228400D02*
Y230400D01*
X557110Y268500D02*
G03*
X557110Y268500I-118110J0D01*
G01*
D56*
X377434Y274662D02*
G03*
X380977Y274662I1772J0D01*
G01*
X475524Y167525D02*
G03*
X475524Y170675I-1575J1575D01*
G01*
X469028D02*
G03*
X469028Y167525I1575J-1575D01*
G01*
X431500Y201119D02*
G03*
X431500Y205119I0J2000D01*
G01*
X463145Y201167D02*
G03*
X463145Y205167I0J2000D01*
G01*
X496425Y343976D02*
G03*
X499575Y343976I1575J1575D01*
G01*
Y350472D02*
G03*
X496425Y350472I-1575J-1575D01*
G01*
X382619Y238100D02*
G03*
X386619Y238100I2000J0D01*
G01*
X383519Y206400D02*
G03*
X387519Y206400I2000J0D01*
G01*
X334542Y281437D02*
X337494Y284390D01*
X349306D01*
X352258Y281437D01*
X334542Y246791D02*
Y281437D01*
X352258Y246791D02*
Y281437D01*
X334542Y246791D02*
X352258D01*
X476065Y362319D02*
Y370587D01*
X472522Y371374D02*
X475278D01*
X472522Y361531D02*
X475278D01*
X471735Y362319D02*
Y370587D01*
Y362319D02*
X472522Y361531D01*
X475278D02*
X476065Y362319D01*
X475278Y371374D02*
X476065Y370587D01*
X471735D02*
X472522Y371374D01*
X432031Y177865D02*
X441874D01*
X432031Y173535D02*
X441874D01*
X432031D02*
Y177865D01*
X441874Y173535D02*
Y177865D01*
X432031Y179635D02*
X441874D01*
X432031Y183965D02*
X441874D01*
Y179635D02*
Y183965D01*
X432031Y179635D02*
Y183965D01*
X362535Y228613D02*
Y236881D01*
X363322Y227826D02*
X366078D01*
X363322Y237668D02*
X366078D01*
X366865Y228613D02*
Y236881D01*
X366078Y237668D02*
X366865Y236881D01*
X362535D02*
X363322Y237668D01*
X362535Y228613D02*
X363322Y227826D01*
X366078D02*
X366865Y228613D01*
X346731Y216465D02*
X356574D01*
X346731Y212135D02*
X356574D01*
X346731D02*
Y216465D01*
X356574Y212135D02*
Y216465D01*
X333300Y292020D02*
X365311D01*
X333300Y288083D02*
X365311D01*
X333300Y315642D02*
X365311D01*
X333300Y288083D02*
Y315642D01*
X365311Y288083D02*
Y315642D01*
X348500Y292020D02*
Y315642D01*
X382749Y262457D02*
Y274662D01*
X375662Y262457D02*
X382749D01*
X375662Y274662D02*
X382749D01*
X375662Y262457D02*
Y274662D01*
X490790Y364168D02*
X493743D01*
X481931D02*
X484884D01*
X486065Y357869D02*
X489609D01*
X493743D02*
Y364168D01*
X481931Y357869D02*
Y364168D01*
X431500Y196119D02*
X451500D01*
X431500Y210119D02*
X451500D01*
Y196119D02*
Y210119D01*
X431500Y196119D02*
Y201119D01*
Y205119D02*
Y210119D01*
X463145Y196167D02*
X483145D01*
X463145Y210167D02*
X483145D01*
Y196167D02*
Y210167D01*
X463145Y196167D02*
Y201167D01*
Y205167D02*
Y210167D01*
X436932Y223865D02*
X446774D01*
X436932Y219535D02*
X446774D01*
X436932D02*
Y223865D01*
X446774Y219535D02*
Y223865D01*
X436932Y230465D02*
X446774D01*
X436932Y226135D02*
X446774D01*
X436932D02*
Y230465D01*
X446774Y226135D02*
Y230465D01*
X447935Y171731D02*
Y181574D01*
X452265Y171731D02*
Y181574D01*
X447935Y171731D02*
X452265D01*
X447935Y181574D02*
X452265D01*
X468726Y179235D02*
X478569D01*
X468726Y183565D02*
X478569D01*
Y179235D02*
Y183565D01*
X468726Y179235D02*
Y183565D01*
X407969Y239526D02*
Y249369D01*
X412300Y239526D02*
Y249369D01*
X407969Y239526D02*
X412300D01*
X407969Y249369D02*
X412300D01*
X432391Y355542D02*
Y373258D01*
Y355542D02*
X467037D01*
X432391Y373258D02*
X467037D01*
Y355542D02*
X469990Y358494D01*
Y370305D01*
X467037Y373258D02*
X469990Y370305D01*
X386865Y326026D02*
Y335869D01*
X382535Y326026D02*
Y335869D01*
X386865D01*
X382535Y326026D02*
X386865D01*
X377619Y218100D02*
Y238100D01*
X391619Y218100D02*
Y238100D01*
X377619Y218100D02*
X391619D01*
X377619Y238100D02*
X382619D01*
X386619D02*
X391619D01*
X378519Y186400D02*
Y206400D01*
X392519Y186400D02*
Y206400D01*
X378519Y186400D02*
X392519D01*
X378519Y206400D02*
X383519D01*
X387519D02*
X392519D01*
X468826Y172835D02*
X478668D01*
X468826Y177165D02*
X478668D01*
Y172835D02*
Y177165D01*
X468826Y172835D02*
Y177165D01*
X456135Y171731D02*
Y181574D01*
X460465Y171731D02*
Y181574D01*
X456135Y171731D02*
X460465D01*
X456135Y181574D02*
X460465D01*
X466798Y249143D02*
X476641D01*
X466798Y244813D02*
X476641D01*
X466798D02*
Y249143D01*
X476641Y244813D02*
Y249143D01*
X448813Y272265D02*
X457081D01*
X448026Y268722D02*
Y271478D01*
X457868Y268722D02*
Y271478D01*
X448813Y267935D02*
X457081D01*
X457868Y268722D01*
X457081Y272265D02*
X457868Y271478D01*
X448026D02*
X448813Y272265D01*
X448026Y268722D02*
X448813Y267935D01*
X398126Y178635D02*
X407969D01*
X398126Y182965D02*
X407969D01*
Y178635D02*
Y182965D01*
X398126Y178635D02*
Y182965D01*
X344932Y243265D02*
X354774D01*
X344932Y238935D02*
X354774D01*
X344932D02*
Y243265D01*
X354774Y238935D02*
Y243265D01*
X408165Y186026D02*
Y195869D01*
X403835Y186026D02*
Y195869D01*
X408165D01*
X403835Y186026D02*
X408165D01*
X396965Y265213D02*
Y273481D01*
X393422Y274269D02*
X396178D01*
X393422Y264426D02*
X396178D01*
X392635Y265213D02*
Y273481D01*
Y265213D02*
X393422Y264426D01*
X396178D02*
X396965Y265213D01*
X396178Y274269D02*
X396965Y273481D01*
X392635D02*
X393422Y274269D01*
X360565Y265219D02*
Y273487D01*
X357022Y274274D02*
X359778D01*
X357022Y264432D02*
X359778D01*
X356235Y265219D02*
Y273487D01*
Y265219D02*
X357022Y264432D01*
X359778D02*
X360565Y265219D01*
X359778Y274274D02*
X360565Y273487D01*
X356235D02*
X357022Y274274D01*
X435265Y260119D02*
Y268387D01*
X431722Y269174D02*
X434478D01*
X431722Y259331D02*
X434478D01*
X430935Y260119D02*
Y268387D01*
Y260119D02*
X431722Y259331D01*
X434478D02*
X435265Y260119D01*
X434478Y269174D02*
X435265Y268387D01*
X430935D02*
X431722Y269174D01*
X362835Y265213D02*
Y273481D01*
X363622Y264426D02*
X366378D01*
X363622Y274269D02*
X366378D01*
X367165Y265213D02*
Y273481D01*
X366378Y274269D02*
X367165Y273481D01*
X362835D02*
X363622Y274269D01*
X362835Y265213D02*
X363622Y264426D01*
X366378D02*
X367165Y265213D01*
X398935D02*
Y273481D01*
X399722Y264426D02*
X402478D01*
X399722Y274269D02*
X402478D01*
X403265Y265213D02*
Y273481D01*
X402478Y274269D02*
X403265Y273481D01*
X398935D02*
X399722Y274269D01*
X398935Y265213D02*
X399722Y264426D01*
X402478D02*
X403265Y265213D01*
X397532Y373365D02*
X407374D01*
X397532Y369035D02*
X407374D01*
X397532D02*
Y373365D01*
X407374Y369035D02*
Y373365D01*
X380532Y179790D02*
Y182743D01*
Y170931D02*
Y173884D01*
X386831Y175065D02*
Y178609D01*
X380532Y182743D02*
X386831D01*
X380532Y170931D02*
X386831D01*
X353590Y230468D02*
X356542D01*
X344731D02*
X347684D01*
X348865Y224168D02*
X352409D01*
X356542D02*
Y230468D01*
X344731Y224168D02*
Y230468D01*
X397431Y362535D02*
Y366865D01*
Y362535D02*
X406487D01*
X407274Y363322D02*
Y366078D01*
X397431Y366865D02*
X406487D01*
X406487Y362535D02*
X407274Y363322D01*
X402845Y363322D02*
Y366078D01*
X401467Y363322D02*
Y366078D01*
X402845Y364700D01*
X401467Y363322D02*
X402845Y364700D01*
X401467D02*
X402845D01*
X406487Y366865D02*
X407274Y366078D01*
X382968Y245058D02*
Y248010D01*
Y253916D02*
Y256869D01*
X376669Y249191D02*
Y252735D01*
Y245058D02*
X382968D01*
X376669Y256869D02*
X382968D01*
X374090Y335468D02*
X377043D01*
X365231D02*
X368184D01*
X369365Y329169D02*
X372909D01*
X377043D02*
Y335468D01*
X365231Y329169D02*
Y335468D01*
X398126Y170735D02*
X407969D01*
X398126Y175065D02*
X407969D01*
Y170735D02*
Y175065D01*
X398126Y170735D02*
Y175065D01*
X341565Y220126D02*
Y229969D01*
X337235Y220126D02*
Y229969D01*
X341565D01*
X337235Y220126D02*
X341565D01*
X380319Y209335D02*
X388587D01*
X389374Y210122D02*
Y212878D01*
X379532Y210122D02*
Y212878D01*
X380319Y213665D02*
X388587D01*
X379532Y212878D02*
X380319Y213665D01*
X379532Y210122D02*
X380319Y209335D01*
X388587D02*
X389374Y210122D01*
X388587Y213665D02*
X389374Y212878D01*
X437235Y259331D02*
Y269174D01*
X441565Y259331D02*
Y269174D01*
X437235Y259331D02*
X441565D01*
X437235Y269174D02*
X441565D01*
X390135Y325832D02*
Y335674D01*
X394465Y325832D02*
Y335674D01*
X390135Y325832D02*
X394465D01*
X390135Y335674D02*
X394465D01*
X476635Y237413D02*
Y241743D01*
X467580D02*
X476635D01*
X466793Y238200D02*
Y240956D01*
X467580Y237413D02*
X476635D01*
X466793Y240956D02*
X467580Y241743D01*
X471222Y238200D02*
Y240956D01*
X472600Y238200D02*
Y240956D01*
X471222Y239578D02*
X472600Y238200D01*
X471222Y239578D02*
X472600Y240956D01*
X471222Y239578D02*
X472600D01*
X466793Y238200D02*
X467580Y237413D01*
X419865Y239526D02*
Y249369D01*
X415535Y239526D02*
Y249369D01*
X419865D01*
X415535Y239526D02*
X419865D01*
X416300Y346600D02*
Y348700D01*
X414700Y346600D02*
X416300D01*
X420200Y337700D02*
X422600Y340100D01*
Y335300D02*
Y340100D01*
X420200Y337700D02*
X422600Y335300D01*
X414800Y279500D02*
X427000D01*
X414700Y279600D02*
Y288800D01*
X464500Y279400D02*
X476500D01*
Y288900D01*
Y339300D02*
Y348700D01*
X464300D02*
X476500D01*
X420200Y337700D02*
X422600D01*
X414700Y339600D02*
Y346600D01*
X416300Y348700D02*
X427000D01*
X402165Y325826D02*
Y335668D01*
X397835Y325826D02*
Y335668D01*
X402165D01*
X397835Y325826D02*
X402165D01*
X398126Y209722D02*
X398913Y208935D01*
X398126Y212478D02*
X398913Y213265D01*
X407181D02*
X407969Y212478D01*
X407181Y208935D02*
X407969Y209722D01*
X398913Y208935D02*
X407181D01*
X407969Y209722D02*
Y212478D01*
X398126Y209722D02*
Y212478D01*
X398913Y213265D02*
X407181D01*
X426335Y230487D02*
X427122Y231274D01*
X429878D02*
X430665Y230487D01*
X429878Y221431D02*
X430665Y222219D01*
X426335D02*
X427122Y221431D01*
X426335Y222219D02*
Y230487D01*
X427122Y221431D02*
X429878D01*
X427122Y231274D02*
X429878D01*
X430665Y222219D02*
Y230487D01*
X457578Y206612D02*
X458365Y207399D01*
X454035D02*
X454822Y206612D01*
X454035Y215667D02*
X454822Y216454D01*
X457578D02*
X458365Y215667D01*
Y207399D02*
Y215667D01*
X454822Y216454D02*
X457578D01*
X454822Y206612D02*
X457578D01*
X454035Y207399D02*
Y215667D01*
X332932Y268234D02*
X333599Y268901D01*
Y270234D01*
X332932Y270900D01*
X330266D01*
X329600Y270234D01*
Y268901D01*
X330266Y268234D01*
X329600Y264235D02*
Y266901D01*
X332266Y264235D01*
X332932D01*
X333599Y264902D01*
Y266235D01*
X332932Y266901D01*
X462900Y166499D02*
X465566D01*
X464233D01*
Y162500D01*
X469564D02*
X466899D01*
X469564Y165166D01*
Y165832D01*
X468898Y166499D01*
X467565D01*
X466899Y165832D01*
X498466Y358266D02*
Y360932D01*
X497799Y361599D01*
X496466D01*
X495800Y360932D01*
Y358266D01*
X496466Y357600D01*
X497799D01*
X497133Y358933D02*
X498466Y357600D01*
X497799D02*
X498466Y358266D01*
X499799Y360932D02*
X500465Y361599D01*
X501798D01*
X502464Y360932D01*
Y360266D01*
X501798Y359599D01*
X501132D01*
X501798D01*
X502464Y358933D01*
Y358266D01*
X501798Y357600D01*
X500465D01*
X499799Y358266D01*
X467501Y201200D02*
X470834D01*
X471500Y201867D01*
Y203199D01*
X470834Y203866D01*
X467501D01*
X468168Y205199D02*
X467501Y205865D01*
Y207198D01*
X468168Y207864D01*
X468834D01*
X469501Y207198D01*
X470167Y207864D01*
X470834D01*
X471500Y207198D01*
Y205865D01*
X470834Y205199D01*
X470167D01*
X469501Y205865D01*
X468834Y205199D01*
X468168D01*
X469501Y205865D02*
Y207198D01*
X425901Y201100D02*
X429234D01*
X429900Y201766D01*
Y203099D01*
X429234Y203766D01*
X425901D01*
Y205099D02*
Y207765D01*
X426568D01*
X429234Y205099D01*
X429900D01*
X506949Y350350D02*
Y347684D01*
Y349017D01*
X502950D01*
Y346351D02*
Y345018D01*
Y345685D01*
X506949D01*
X506282Y346351D01*
X481900Y179800D02*
Y183799D01*
X483899D01*
X484566Y183132D01*
Y181799D01*
X483899Y181133D01*
X481900D01*
X483233D02*
X484566Y179800D01*
X488564D02*
X485899D01*
X488564Y182466D01*
Y183132D01*
X487898Y183799D01*
X486565D01*
X485899Y183132D01*
X492563Y183799D02*
X491230Y183132D01*
X489897Y181799D01*
Y180466D01*
X490564Y179800D01*
X491897D01*
X492563Y180466D01*
Y181133D01*
X491897Y181799D01*
X489897D01*
X443100Y181600D02*
X447099D01*
Y179601D01*
X446432Y178934D01*
X445099D01*
X444433Y179601D01*
Y181600D01*
Y180267D02*
X443100Y178934D01*
Y174935D02*
Y177601D01*
X445766Y174935D01*
X446432D01*
X447099Y175602D01*
Y176935D01*
X446432Y177601D01*
X447099Y170937D02*
Y173603D01*
X445099D01*
X445766Y172270D01*
Y171603D01*
X445099Y170937D01*
X443766D01*
X443100Y171603D01*
Y172936D01*
X443766Y173603D01*
X449500Y226200D02*
Y230199D01*
X451499D01*
X452166Y229532D01*
Y228199D01*
X451499Y227533D01*
X449500D01*
X450833D02*
X452166Y226200D01*
X456165D02*
X453499D01*
X456165Y228866D01*
Y229532D01*
X455498Y230199D01*
X454165D01*
X453499Y229532D01*
X459497Y226200D02*
Y230199D01*
X457497Y228199D01*
X460163D01*
X449300Y219800D02*
Y223799D01*
X451299D01*
X451966Y223132D01*
Y221799D01*
X451299Y221133D01*
X449300D01*
X450633D02*
X451966Y219800D01*
X455965D02*
X453299D01*
X455965Y222466D01*
Y223132D01*
X455298Y223799D01*
X453965D01*
X453299Y223132D01*
X457297D02*
X457964Y223799D01*
X459297D01*
X459963Y223132D01*
Y222466D01*
X459297Y221799D01*
X458630D01*
X459297D01*
X459963Y221133D01*
Y220466D01*
X459297Y219800D01*
X457964D01*
X457297Y220466D01*
X382600Y345600D02*
X386599D01*
Y343601D01*
X385932Y342934D01*
X384599D01*
X383933Y343601D01*
Y345600D01*
Y344267D02*
X382600Y342934D01*
Y341601D02*
Y340268D01*
Y340935D01*
X386599D01*
X385932Y341601D01*
X382600Y338269D02*
Y336936D01*
Y337603D01*
X386599D01*
X385932Y338269D01*
X408000Y258900D02*
X411999D01*
Y256901D01*
X411332Y256234D01*
X409999D01*
X409333Y256901D01*
Y258900D01*
Y257567D02*
X408000Y256234D01*
X411332Y254901D02*
X411999Y254235D01*
Y252902D01*
X411332Y252236D01*
X410666D01*
X409999Y252902D01*
X409333Y252236D01*
X408666D01*
X408000Y252902D01*
Y254235D01*
X408666Y254901D01*
X409333D01*
X409999Y254235D01*
X410666Y254901D01*
X411332D01*
X409999Y254235D02*
Y252902D01*
X438666Y379632D02*
X437999Y380299D01*
X436666D01*
X436000Y379632D01*
Y376966D01*
X436666Y376300D01*
X437999D01*
X438666Y376966D01*
X439999D02*
X440665Y376300D01*
X441998D01*
X442664Y376966D01*
Y379632D01*
X441998Y380299D01*
X440665D01*
X439999Y379632D01*
Y378966D01*
X440665Y378299D01*
X442664D01*
X443997Y379632D02*
X444664Y380299D01*
X445997D01*
X446663Y379632D01*
Y378966D01*
X445997Y378299D01*
X445330D01*
X445997D01*
X446663Y377633D01*
Y376966D01*
X445997Y376300D01*
X444664D01*
X443997Y376966D01*
X368400Y300300D02*
Y304299D01*
X370399D01*
X371066Y303632D01*
Y302299D01*
X370399Y301633D01*
X368400D01*
X375064Y300300D02*
X372399D01*
X375064Y302966D01*
Y303632D01*
X374398Y304299D01*
X373065D01*
X372399Y303632D01*
X538000Y254800D02*
Y258799D01*
X539999D01*
X540666Y258132D01*
Y256799D01*
X539999Y256133D01*
X538000D01*
X541999Y254800D02*
X543332D01*
X542665D01*
Y258799D01*
X541999Y258132D01*
X421200Y180300D02*
Y184299D01*
X423199D01*
X423866Y183632D01*
Y182299D01*
X423199Y181633D01*
X421200D01*
X422533D02*
X423866Y180300D01*
X427865D02*
X425199D01*
X427865Y182966D01*
Y183632D01*
X427198Y184299D01*
X425865D01*
X425199Y183632D01*
X429197Y180300D02*
X430530D01*
X429864D01*
Y184299D01*
X429197Y183632D01*
X376600Y280499D02*
Y277166D01*
X377266Y276500D01*
X378599D01*
X379266Y277166D01*
Y280499D01*
X383264D02*
X380599D01*
Y278499D01*
X381932Y279166D01*
X382598D01*
X383264Y278499D01*
Y277166D01*
X382598Y276500D01*
X381265D01*
X380599Y277166D01*
X382600Y197199D02*
Y193867D01*
X383266Y193200D01*
X384599D01*
X385266Y193867D01*
Y197199D01*
X388598Y193200D02*
Y197199D01*
X386599Y195199D01*
X389264D01*
X410800Y369200D02*
Y373199D01*
X412799D01*
X413466Y372532D01*
Y371199D01*
X412799Y370533D01*
X410800D01*
X412133D02*
X413466Y369200D01*
X414799D02*
X416132D01*
X415465D01*
Y373199D01*
X414799Y372532D01*
X344266Y232666D02*
Y235332D01*
X343599Y235999D01*
X342266D01*
X341600Y235332D01*
Y232666D01*
X342266Y232000D01*
X343599D01*
X342933Y233333D02*
X344266Y232000D01*
X343599D02*
X344266Y232666D01*
X348265Y235999D02*
X345599D01*
Y233999D01*
X346932Y234666D01*
X347598D01*
X348265Y233999D01*
Y232666D01*
X347598Y232000D01*
X346265D01*
X345599Y232666D01*
X373166Y180966D02*
Y183632D01*
X372499Y184299D01*
X371166D01*
X370500Y183632D01*
Y180966D01*
X371166Y180300D01*
X372499D01*
X371833Y181633D02*
X373166Y180300D01*
X372499D02*
X373166Y180966D01*
X376498Y180300D02*
Y184299D01*
X374499Y182299D01*
X377165D01*
X358766Y330866D02*
Y333532D01*
X358099Y334199D01*
X356766D01*
X356100Y333532D01*
Y330866D01*
X356766Y330200D01*
X358099D01*
X357433Y331533D02*
X358766Y330200D01*
X358099D02*
X358766Y330866D01*
X362765Y330200D02*
X360099D01*
X362765Y332866D01*
Y333532D01*
X362098Y334199D01*
X360765D01*
X360099Y333532D01*
X371166Y250366D02*
Y253032D01*
X370499Y253699D01*
X369166D01*
X368500Y253032D01*
Y250366D01*
X369166Y249700D01*
X370499D01*
X369833Y251033D02*
X371166Y249700D01*
X370499D02*
X371166Y250366D01*
X372499Y249700D02*
X373832D01*
X373165D01*
Y253699D01*
X372499Y253032D01*
X385200Y362400D02*
Y366399D01*
X387866Y362400D01*
Y366399D01*
X391864D02*
X389199D01*
Y362400D01*
X391864D01*
X389199Y364399D02*
X390532D01*
X393197Y366399D02*
X395863D01*
X394530D01*
Y362400D01*
X380700Y243299D02*
Y239966D01*
X381366Y239300D01*
X382699D01*
X383366Y239966D01*
Y243299D01*
X387365D02*
X386032Y242632D01*
X384699Y241299D01*
Y239966D01*
X385365Y239300D01*
X386698D01*
X387365Y239966D01*
Y240633D01*
X386698Y241299D01*
X384699D01*
X408100Y352999D02*
Y349666D01*
X408766Y349000D01*
X410099D01*
X410766Y349666D01*
Y352999D01*
X412099Y349000D02*
X413432D01*
X412765D01*
Y352999D01*
X412099Y352332D01*
X443300Y258299D02*
Y254966D01*
X443966Y254300D01*
X445299D01*
X445966Y254966D01*
Y258299D01*
X447299Y257632D02*
X447965Y258299D01*
X449298D01*
X449965Y257632D01*
Y256966D01*
X449298Y256299D01*
X448632D01*
X449298D01*
X449965Y255633D01*
Y254966D01*
X449298Y254300D01*
X447965D01*
X447299Y254966D01*
X488966Y226932D02*
X488299Y227599D01*
X486966D01*
X486300Y226932D01*
Y226266D01*
X486966Y225599D01*
X488299D01*
X488966Y224933D01*
Y224266D01*
X488299Y223600D01*
X486966D01*
X486300Y224266D01*
X490299Y223600D02*
X491632D01*
X490965D01*
Y227599D01*
X490299Y226932D01*
X359000Y211500D02*
Y215499D01*
X360999D01*
X361666Y214832D01*
Y213499D01*
X360999Y212833D01*
X359000D01*
X360333D02*
X361666Y211500D01*
X362999D02*
X364332D01*
X363665D01*
Y215499D01*
X362999Y214832D01*
X366331Y215499D02*
X368997D01*
Y214832D01*
X366331Y212166D01*
Y211500D01*
X409400Y178700D02*
Y182699D01*
X411399D01*
X412066Y182032D01*
Y180699D01*
X411399Y180033D01*
X409400D01*
X410733D02*
X412066Y178700D01*
X413399D02*
X414732D01*
X414065D01*
Y182699D01*
X413399Y182032D01*
X419397Y182699D02*
X418064Y182032D01*
X416731Y180699D01*
Y179367D01*
X417397Y178700D01*
X418730D01*
X419397Y179367D01*
Y180033D01*
X418730Y180699D01*
X416731D01*
X443200Y266700D02*
X447199D01*
Y264701D01*
X446532Y264034D01*
X445199D01*
X444533Y264701D01*
Y266700D01*
Y265367D02*
X443200Y264034D01*
X447199Y262701D02*
Y260035D01*
X446532D01*
X443866Y262701D01*
X443200D01*
X409400Y170300D02*
Y174299D01*
X411399D01*
X412066Y173632D01*
Y172299D01*
X411399Y171633D01*
X409400D01*
X410733D02*
X412066Y170300D01*
X413399D02*
X414732D01*
X414065D01*
Y174299D01*
X413399Y173632D01*
X418730Y170300D02*
Y174299D01*
X416731Y172299D01*
X419397D01*
X357300Y239800D02*
Y243799D01*
X359299D01*
X359966Y243132D01*
Y241799D01*
X359299Y241133D01*
X357300D01*
X358633D02*
X359966Y239800D01*
X361299D02*
X362632D01*
X361965D01*
Y243799D01*
X361299Y243132D01*
X367297Y239800D02*
X364631D01*
X367297Y242466D01*
Y243132D01*
X366630Y243799D01*
X365297D01*
X364631Y243132D01*
X403200Y208000D02*
X407199D01*
Y206001D01*
X406532Y205334D01*
X405199D01*
X404533Y206001D01*
Y208000D01*
Y206667D02*
X403200Y205334D01*
Y204001D02*
Y202668D01*
Y203335D01*
X407199D01*
X406532Y204001D01*
Y200669D02*
X407199Y200003D01*
Y198670D01*
X406532Y198003D01*
X405866D01*
X405199Y198670D01*
X404533Y198003D01*
X403866D01*
X403200Y198670D01*
Y200003D01*
X403866Y200669D01*
X404533D01*
X405199Y200003D01*
X405866Y200669D01*
X406532D01*
X405199Y200003D02*
Y198670D01*
X415200Y230600D02*
X419199D01*
Y228601D01*
X418532Y227934D01*
X417199D01*
X416533Y228601D01*
Y230600D01*
Y229267D02*
X415200Y227934D01*
Y223936D02*
Y226601D01*
X417866Y223936D01*
X418532D01*
X419199Y224602D01*
Y225935D01*
X418532Y226601D01*
X415200Y219937D02*
Y222603D01*
X417866Y219937D01*
X418532D01*
X419199Y220603D01*
Y221936D01*
X418532Y222603D01*
X419900Y173900D02*
Y177899D01*
X421899D01*
X422566Y177232D01*
Y175899D01*
X421899Y175233D01*
X419900D01*
X421233D02*
X422566Y173900D01*
X426565D02*
X423899D01*
X426565Y176566D01*
Y177232D01*
X425898Y177899D01*
X424565D01*
X423899Y177232D01*
X427897D02*
X428564Y177899D01*
X429897D01*
X430563Y177232D01*
Y174566D01*
X429897Y173900D01*
X428564D01*
X427897Y174566D01*
Y177232D01*
X481700Y173300D02*
Y177299D01*
X483699D01*
X484366Y176632D01*
Y175299D01*
X483699Y174633D01*
X481700D01*
X483033D02*
X484366Y173300D01*
X485699D02*
X487032D01*
X486365D01*
Y177299D01*
X485699Y176632D01*
X489031Y173967D02*
X489697Y173300D01*
X491030D01*
X491697Y173967D01*
Y176632D01*
X491030Y177299D01*
X489697D01*
X489031Y176632D01*
Y175966D01*
X489697Y175299D01*
X491697D01*
X461900Y181300D02*
X465899D01*
Y179301D01*
X465232Y178634D01*
X463899D01*
X463233Y179301D01*
Y181300D01*
Y179967D02*
X461900Y178634D01*
Y177301D02*
Y175968D01*
Y176635D01*
X465899D01*
X465232Y177301D01*
Y173969D02*
X465899Y173303D01*
Y171970D01*
X465232Y171303D01*
X464566D01*
X463899Y171970D01*
Y172636D01*
Y171970D01*
X463233Y171303D01*
X462566D01*
X461900Y171970D01*
Y173303D01*
X462566Y173969D01*
X335900Y242700D02*
X339899D01*
Y240701D01*
X339232Y240034D01*
X337899D01*
X337233Y240701D01*
Y242700D01*
Y241367D02*
X335900Y240034D01*
Y238701D02*
Y237368D01*
Y238035D01*
X339899D01*
X339232Y238701D01*
X339899Y232703D02*
Y235369D01*
X337899D01*
X338566Y234036D01*
Y233370D01*
X337899Y232703D01*
X336566D01*
X335900Y233370D01*
Y234703D01*
X336566Y235369D01*
X478900Y244900D02*
Y248899D01*
X480899D01*
X481566Y248232D01*
Y246899D01*
X480899Y246233D01*
X478900D01*
X480233D02*
X481566Y244900D01*
X482899Y245566D02*
X483565Y244900D01*
X484898D01*
X485565Y245566D01*
Y248232D01*
X484898Y248899D01*
X483565D01*
X482899Y248232D01*
Y247566D01*
X483565Y246899D01*
X485565D01*
X415500Y261100D02*
X419499D01*
Y259101D01*
X418832Y258434D01*
X417499D01*
X416833Y259101D01*
Y261100D01*
Y259767D02*
X415500Y258434D01*
Y257101D02*
Y255768D01*
Y256435D01*
X419499D01*
X418832Y257101D01*
Y253769D02*
X419499Y253103D01*
Y251770D01*
X418832Y251103D01*
X416166D01*
X415500Y251770D01*
Y253103D01*
X416166Y253769D01*
X418832D01*
X397900Y345500D02*
X401899D01*
Y343501D01*
X401232Y342834D01*
X399899D01*
X399233Y343501D01*
Y345500D01*
Y344167D02*
X397900Y342834D01*
X401899Y338836D02*
X401232Y340168D01*
X399899Y341501D01*
X398566D01*
X397900Y340835D01*
Y339502D01*
X398566Y338836D01*
X399233D01*
X399899Y339502D01*
Y341501D01*
X390200Y345600D02*
X394199D01*
Y343601D01*
X393532Y342934D01*
X392199D01*
X391533Y343601D01*
Y345600D01*
Y344267D02*
X390200Y342934D01*
X394199Y338935D02*
Y341601D01*
X392199D01*
X392866Y340268D01*
Y339602D01*
X392199Y338935D01*
X390866D01*
X390200Y339602D01*
Y340935D01*
X390866Y341601D01*
X410343Y160485D02*
Y164484D01*
X412342D01*
X413008Y163817D01*
Y162484D01*
X412342Y161818D01*
X410343D01*
X414341Y163817D02*
X415008Y164484D01*
X416341D01*
X417007Y163817D01*
Y163151D01*
X416341Y162484D01*
X415674D01*
X416341D01*
X417007Y161818D01*
Y161152D01*
X416341Y160485D01*
X415008D01*
X414341Y161152D01*
X529019Y305958D02*
X529263Y306868D01*
X528596Y308022D01*
X527686Y308266D01*
X527109Y307933D01*
X526865Y307023D01*
X527531Y305868D01*
X527287Y304958D01*
X526710Y304625D01*
X525800Y304869D01*
X525133Y306023D01*
X525377Y306933D01*
X526799Y303137D02*
X530262Y305136D01*
X529775Y303316D01*
X531595Y302828D01*
X528132Y300828D01*
X532262Y301673D02*
X528799Y299674D01*
X529798Y297942D01*
X530709Y297699D01*
X531286Y298032D01*
X531530Y298942D01*
X530530Y300674D01*
X531530Y298942D01*
X532440Y298698D01*
X533017Y299031D01*
X533261Y299942D01*
X532262Y301673D01*
X546396Y298791D02*
X545729Y299945D01*
X546063Y299368D01*
X543177Y297702D01*
X542266Y297946D01*
X541933Y298523D01*
X542177Y299433D01*
X543599Y295637D02*
X544266Y294483D01*
X543933Y295060D01*
X547396Y297059D01*
X546485Y297303D01*
X501432Y334234D02*
X502099Y334901D01*
Y336234D01*
X501432Y336900D01*
X498766D01*
X498100Y336234D01*
Y334901D01*
X498766Y334234D01*
X500099D01*
Y335567D01*
X501432Y330236D02*
X502099Y330902D01*
Y332235D01*
X501432Y332901D01*
X500766D01*
X500099Y332235D01*
Y330902D01*
X499433Y330236D01*
X498766D01*
X498100Y330902D01*
Y332235D01*
X498766Y332901D01*
X498100Y328903D02*
X502099D01*
X500766Y327570D01*
X502099Y326237D01*
X498100D01*
X497434Y324904D02*
Y322238D01*
X498100Y320905D02*
X500766D01*
X502099Y319572D01*
X500766Y318239D01*
X498100D01*
X500099D01*
Y320905D01*
X498100Y316906D02*
X502099D01*
X498100Y314241D01*
X502099D01*
Y312908D02*
Y310242D01*
Y311575D01*
X498100D01*
Y308909D02*
Y307576D01*
Y308243D01*
X502099D01*
X501432Y308909D01*
X479200Y241899D02*
Y237900D01*
X481199D01*
X481866Y238566D01*
Y241232D01*
X481199Y241899D01*
X479200D01*
X483199Y237900D02*
X484532D01*
X483865D01*
Y241899D01*
X483199Y241232D01*
X371366Y211832D02*
X370699Y212499D01*
X369366D01*
X368700Y211832D01*
Y209166D01*
X369366Y208500D01*
X370699D01*
X371366Y209166D01*
X372699Y208500D02*
X374032D01*
X373365D01*
Y212499D01*
X372699Y211832D01*
X378697Y208500D02*
X376031D01*
X378697Y211166D01*
Y211832D01*
X378030Y212499D01*
X376697D01*
X376031Y211832D01*
X395832Y285534D02*
X396499Y286201D01*
Y287534D01*
X395832Y288200D01*
X393166D01*
X392500Y287534D01*
Y286201D01*
X393166Y285534D01*
X392500Y284201D02*
Y282868D01*
Y283535D01*
X396499D01*
X395832Y284201D01*
X392500Y278870D02*
X396499D01*
X394499Y280869D01*
Y278203D01*
X359732Y258534D02*
X360399Y259201D01*
Y260534D01*
X359732Y261200D01*
X357066D01*
X356400Y260534D01*
Y259201D01*
X357066Y258534D01*
X356400Y257201D02*
Y255868D01*
Y256535D01*
X360399D01*
X359732Y257201D01*
X360399Y251203D02*
X359732Y252536D01*
X358399Y253869D01*
X357066D01*
X356400Y253203D01*
Y251870D01*
X357066Y251203D01*
X357733D01*
X358399Y251870D01*
Y253869D01*
X428032Y264634D02*
X428699Y265301D01*
Y266634D01*
X428032Y267300D01*
X425366D01*
X424700Y266634D01*
Y265301D01*
X425366Y264634D01*
X428032Y263301D02*
X428699Y262635D01*
Y261302D01*
X428032Y260635D01*
X427366D01*
X426699Y261302D01*
X426033Y260635D01*
X425366D01*
X424700Y261302D01*
Y262635D01*
X425366Y263301D01*
X426033D01*
X426699Y262635D01*
X427366Y263301D01*
X428032D01*
X426699Y262635D02*
Y261302D01*
X366532Y258434D02*
X367199Y259101D01*
Y260434D01*
X366532Y261100D01*
X363866D01*
X363200Y260434D01*
Y259101D01*
X363866Y258434D01*
X363200Y257101D02*
Y255768D01*
Y256435D01*
X367199D01*
X366532Y257101D01*
X367199Y253769D02*
Y251103D01*
X366532D01*
X363866Y253769D01*
X363200D01*
X402632Y286134D02*
X403299Y286801D01*
Y288134D01*
X402632Y288800D01*
X399966D01*
X399300Y288134D01*
Y286801D01*
X399966Y286134D01*
X399300Y284801D02*
Y283468D01*
Y284135D01*
X403299D01*
X402632Y284801D01*
Y281469D02*
X403299Y280803D01*
Y279470D01*
X402632Y278803D01*
X401966D01*
X401299Y279470D01*
Y280136D01*
Y279470D01*
X400633Y278803D01*
X399966D01*
X399300Y279470D01*
Y280803D01*
X399966Y281469D01*
X475832Y356834D02*
X476499Y357501D01*
Y358834D01*
X475832Y359500D01*
X473166D01*
X472500Y358834D01*
Y357501D01*
X473166Y356834D01*
X475832Y355501D02*
X476499Y354835D01*
Y353502D01*
X475832Y352835D01*
X475166D01*
X474499Y353502D01*
Y354168D01*
Y353502D01*
X473833Y352835D01*
X473166D01*
X472500Y353502D01*
Y354835D01*
X473166Y355501D01*
X463066Y272032D02*
X462399Y272699D01*
X461066D01*
X460400Y272032D01*
Y269366D01*
X461066Y268700D01*
X462399D01*
X463066Y269366D01*
X466398Y268700D02*
Y272699D01*
X464399Y270699D01*
X467065D01*
X365632Y221734D02*
X366299Y222401D01*
Y223734D01*
X365632Y224400D01*
X362966D01*
X362300Y223734D01*
Y222401D01*
X362966Y221734D01*
X362300Y220401D02*
Y219068D01*
Y219735D01*
X366299D01*
X365632Y220401D01*
X456932Y201934D02*
X457599Y202601D01*
Y203934D01*
X456932Y204600D01*
X454266D01*
X453600Y203934D01*
Y202601D01*
X454266Y201934D01*
Y200601D02*
X453600Y199935D01*
Y198602D01*
X454266Y197935D01*
X456932D01*
X457599Y198602D01*
Y199935D01*
X456932Y200601D01*
X456266D01*
X455599Y199935D01*
Y197935D01*
X402366Y219532D02*
X401699Y220199D01*
X400366D01*
X399700Y219532D01*
Y216866D01*
X400366Y216200D01*
X401699D01*
X402366Y216866D01*
X403699Y216200D02*
X405032D01*
X404365D01*
Y220199D01*
X403699Y219532D01*
X407031D02*
X407697Y220199D01*
X409030D01*
X409697Y219532D01*
Y216866D01*
X409030Y216200D01*
X407697D01*
X407031Y216866D01*
Y219532D01*
X425232Y228134D02*
X425899Y228801D01*
Y230134D01*
X425232Y230800D01*
X422566D01*
X421900Y230134D01*
Y228801D01*
X422566Y228134D01*
X421900Y226801D02*
Y225468D01*
Y226135D01*
X425899D01*
X425232Y226801D01*
X421900Y223469D02*
Y222136D01*
Y222803D01*
X425899D01*
X425232Y223469D01*
X356032Y325634D02*
X356699Y326301D01*
Y327634D01*
X356032Y328300D01*
X353366D01*
X352700Y327634D01*
Y326301D01*
X353366Y325634D01*
X354699D01*
Y326967D01*
X352700Y324301D02*
X356699D01*
X352700Y321636D01*
X356699D01*
Y320303D02*
X352700D01*
Y318303D01*
X353366Y317637D01*
X356032D01*
X356699Y318303D01*
Y320303D01*
X346399Y332600D02*
X343733D01*
X342400Y331267D01*
X343733Y329934D01*
X346399D01*
Y328601D02*
X342400D01*
Y326602D01*
X343066Y325936D01*
X343733D01*
X344399Y326602D01*
Y328601D01*
Y326602D01*
X345066Y325936D01*
X345732D01*
X346399Y326602D01*
Y328601D01*
X342400Y324603D02*
X345066D01*
X346399Y323270D01*
X345066Y321937D01*
X342400D01*
X344399D01*
Y324603D01*
X346399Y320604D02*
Y317938D01*
Y319271D01*
X342400D01*
X500432Y279000D02*
X501099Y278334D01*
Y277001D01*
X500432Y276334D01*
X499766D01*
X499099Y277001D01*
Y277667D01*
Y277001D01*
X498433Y276334D01*
X497766D01*
X497100Y277001D01*
Y278334D01*
X497766Y279000D01*
X497100Y275001D02*
X497766D01*
Y274335D01*
X497100D01*
Y275001D01*
X500432Y271669D02*
X501099Y271003D01*
Y269670D01*
X500432Y269003D01*
X499766D01*
X499099Y269670D01*
Y270336D01*
Y269670D01*
X498433Y269003D01*
X497766D01*
X497100Y269670D01*
Y271003D01*
X497766Y271669D01*
X499766Y267670D02*
X497100Y266337D01*
X499766Y265004D01*
X507500Y279400D02*
Y277401D01*
X508166Y276734D01*
X508833Y277401D01*
Y278734D01*
X509499Y279400D01*
X510166Y278734D01*
Y276734D01*
Y275401D02*
X508166D01*
X507500Y274735D01*
X508166Y274068D01*
X507500Y273402D01*
X508166Y272736D01*
X510166D01*
X507500Y271403D02*
Y270070D01*
Y270736D01*
X510166D01*
Y271403D01*
X507500Y268070D02*
X510166D01*
Y267404D01*
X509499Y266737D01*
X507500D01*
X509499D01*
X510166Y266071D01*
X509499Y265405D01*
X507500D01*
X521232Y275134D02*
X521899Y275801D01*
Y277134D01*
X521232Y277800D01*
X518566D01*
X517900Y277134D01*
Y275801D01*
X518566Y275134D01*
X519899D01*
Y276467D01*
X517900Y273801D02*
X521899D01*
X517900Y271135D01*
X521899D01*
Y269803D02*
X517900D01*
Y267803D01*
X518566Y267137D01*
X521232D01*
X521899Y267803D01*
Y269803D01*
X528100Y277800D02*
X532099D01*
Y275801D01*
X531432Y275134D01*
X530099D01*
X529433Y275801D01*
Y277800D01*
Y276467D02*
X528100Y275134D01*
X531432Y271135D02*
X532099Y271802D01*
Y273135D01*
X531432Y273801D01*
X530766D01*
X530099Y273135D01*
Y271802D01*
X529433Y271135D01*
X528766D01*
X528100Y271802D01*
Y273135D01*
X528766Y273801D01*
X532099Y269803D02*
Y267137D01*
Y268470D01*
X528100D01*
D57*
X423900Y186700D02*
Y216700D01*
X413900D02*
X423900D01*
X413900Y186700D02*
Y216700D01*
Y186700D02*
X423900D01*
X431705Y250581D02*
Y250896D01*
Y235306D02*
Y236408D01*
Y235306D02*
X432807D01*
X446980D02*
X448083D01*
Y236408D01*
Y250581D02*
Y251683D01*
X446980D02*
X448083D01*
X432492D02*
X432807D01*
X431705Y250896D02*
X432492Y251683D01*
X494400Y253000D02*
Y263000D01*
X534400D01*
X494400Y253000D02*
X534400D01*
Y263000D01*
X459300Y156000D02*
Y166000D01*
X419300Y156000D02*
X459300D01*
X419300Y166000D02*
X459300D01*
X419300Y156000D02*
Y166000D01*
D58*
X343394Y283580D02*
D03*
D59*
X469190Y364400D02*
D03*
M02*
