%FSLAX25Y25*%
%MOIN*%
G70*
G01*
G75*
%ADD10R,0.02756X0.03347*%
%ADD11R,0.03347X0.02756*%
%ADD12O,0.04724X0.00984*%
%ADD13R,0.04724X0.01772*%
%ADD14O,0.04724X0.01772*%
%ADD15O,0.00984X0.04724*%
%ADD16O,0.01772X0.04724*%
%ADD17R,0.03937X0.02362*%
%ADD18R,0.04724X0.01969*%
%ADD19O,0.03543X0.01969*%
%ADD20O,0.03543X0.01969*%
%ADD21R,0.03543X0.01969*%
%ADD22R,0.02362X0.03937*%
%ADD23O,0.02500X0.05500*%
%ADD24R,0.02500X0.05500*%
%ADD25R,0.07874X0.07874*%
%ADD26C,0.01000*%
%ADD27C,0.00800*%
%ADD28C,0.02000*%
%ADD29C,0.06000*%
%ADD30C,0.01500*%
%ADD31C,0.03000*%
%ADD32C,0.01200*%
%ADD33C,0.05906*%
%ADD34P,0.08352X4X180.0*%
%ADD35R,0.05906X0.05906*%
G04:AMPARAMS|DCode=36|XSize=78.74mil|YSize=118.11mil|CornerRadius=0mil|HoleSize=0mil|Usage=FLASHONLY|Rotation=45.000|XOffset=0mil|YOffset=0mil|HoleType=Round|Shape=Rectangle|*
%AMROTATEDRECTD36*
4,1,4,0.01392,-0.06960,-0.06960,0.01392,-0.01392,0.06960,0.06960,-0.01392,0.01392,-0.06960,0.0*
%
%ADD36ROTATEDRECTD36*%

G04:AMPARAMS|DCode=37|XSize=78.74mil|YSize=118.11mil|CornerRadius=0mil|HoleSize=0mil|Usage=FLASHONLY|Rotation=45.000|XOffset=0mil|YOffset=0mil|HoleType=Round|Shape=Round|*
%AMOVALD37*
21,1,0.03937,0.07874,0.00000,0.00000,135.0*
1,1,0.07874,0.01392,-0.01392*
1,1,0.07874,-0.01392,0.01392*
%
%ADD37OVALD37*%

G04:AMPARAMS|DCode=38|XSize=78.74mil|YSize=118.11mil|CornerRadius=0mil|HoleSize=0mil|Usage=FLASHONLY|Rotation=75.000|XOffset=0mil|YOffset=0mil|HoleType=Round|Shape=Round|*
%AMOVALD38*
21,1,0.03937,0.07874,0.00000,0.00000,165.0*
1,1,0.07874,0.01901,-0.00510*
1,1,0.07874,-0.01901,0.00510*
%
%ADD38OVALD38*%

G04:AMPARAMS|DCode=39|XSize=78.74mil|YSize=118.11mil|CornerRadius=0mil|HoleSize=0mil|Usage=FLASHONLY|Rotation=75.000|XOffset=0mil|YOffset=0mil|HoleType=Round|Shape=Rectangle|*
%AMROTATEDRECTD39*
4,1,4,0.04685,-0.05331,-0.06723,-0.02274,-0.04685,0.05331,0.06723,0.02274,0.04685,-0.05331,0.0*
%
%ADD39ROTATEDRECTD39*%

%ADD40P,0.08352X4X200.0*%
%ADD41R,0.05906X0.05906*%
%ADD42C,0.02000*%
%ADD43C,0.03000*%
%ADD44C,0.04000*%
%ADD45C,0.05000*%
%ADD46C,0.27559*%
%ADD47C,0.00500*%
%ADD48C,0.00787*%
%ADD49C,0.00984*%
%ADD50C,0.02362*%
D26*
X83000Y-59055D02*
G03*
X83000Y-59055I-7874J0D01*
G01*
X-67500Y59055D02*
G03*
X-67500Y59055I-7874J0D01*
G01*
X118110Y0D02*
G03*
X118110Y0I-118110J0D01*
G01*
D27*
X-281Y-65288D02*
G03*
X2081Y-65288I1181J0D01*
G01*
X-800D02*
X-281D01*
X2081D02*
X2500D01*
X-6580Y-64107D02*
X9561D01*
X-7762Y-65288D02*
X-6580Y-64107D01*
X-7762Y-77493D02*
Y-65288D01*
Y-77493D02*
X9561D01*
Y-64107D01*
X-800Y-75918D02*
Y-65288D01*
Y-75918D02*
X2500D01*
Y-65288D01*
D47*
X-11700Y25000D02*
G03*
X-11700Y25000I-2000J0D01*
G01*
X42466Y40138D02*
G03*
X38923Y40138I-1772J0D01*
G01*
X-86900Y-38581D02*
G03*
X-86900Y-34581I0J2000D01*
G01*
X18232Y-68735D02*
X28074D01*
X18232Y-73065D02*
X28074D01*
X18232D02*
Y-68735D01*
X28074Y-73065D02*
Y-68735D01*
X-56566Y-239D02*
Y9603D01*
X-60897Y-239D02*
Y9603D01*
X-56566D01*
X-60897Y-239D02*
X-56566D01*
X-17365Y-19087D02*
Y-10819D01*
X-16578Y-19874D02*
X-13822D01*
X-16578Y-10031D02*
X-13822D01*
X-13035Y-19087D02*
Y-10819D01*
X-13822Y-10031D02*
X-13035Y-10819D01*
X-17365D02*
X-16578Y-10031D01*
X-17365Y-19087D02*
X-16578Y-19874D01*
X-13822D02*
X-13035Y-19087D01*
X-15795Y28921D02*
X9796D01*
X-17763Y26953D02*
X-15794Y28921D01*
X-17763Y1362D02*
Y26953D01*
X-17763Y1362D02*
X9796D01*
Y28921D01*
X-60568Y-35810D02*
Y-32857D01*
Y-44668D02*
Y-41716D01*
X-54268Y-40535D02*
Y-36991D01*
X-60568Y-32857D02*
X-54268D01*
X-60568Y-44668D02*
X-54268D01*
X-60274Y-51365D02*
X-50432D01*
X-60274Y-47035D02*
X-50432D01*
Y-51365D02*
Y-47035D01*
X-60274Y-51365D02*
Y-47035D01*
X-41974Y-73665D02*
X-32131D01*
X-41974Y-69335D02*
X-32131D01*
Y-73665D02*
Y-69335D01*
X-41974Y-73665D02*
Y-69335D01*
X-22374Y-74665D02*
X-12531D01*
X-22374Y-70335D02*
X-12531D01*
Y-74665D02*
Y-70335D01*
X-22374Y-74665D02*
Y-70335D01*
X17926Y-79565D02*
X27768D01*
X17926Y-75235D02*
X27768D01*
Y-79565D02*
Y-75235D01*
X17926Y-79565D02*
Y-75235D01*
X33259Y-88262D02*
X55894Y-65627D01*
X30475Y-85478D02*
X53110Y-62843D01*
X49962Y-104965D02*
X72597Y-82330D01*
X53110Y-62843D02*
X72597Y-82330D01*
X30475Y-85478D02*
X49962Y-104966D01*
X45146Y-76375D02*
X61849Y-93078D01*
X-2768Y-48110D02*
Y-45158D01*
Y-56968D02*
Y-54016D01*
X3531Y-52835D02*
Y-49291D01*
X-2768Y-45158D02*
X3531D01*
X-2768Y-56968D02*
X3531D01*
X77535Y-19869D02*
Y-10026D01*
X81865Y-19869D02*
Y-10026D01*
X77535Y-19869D02*
X81865D01*
X77535Y-10026D02*
X81865D01*
X62465Y41419D02*
Y49687D01*
X58922Y50474D02*
X61678D01*
X58922Y40631D02*
X61678D01*
X58135Y41419D02*
Y49687D01*
Y41419D02*
X58922Y40631D01*
X61678D02*
X62465Y41419D01*
X61678Y50474D02*
X62465Y49687D01*
X58135D02*
X58922Y50474D01*
X51235Y41313D02*
Y49581D01*
X52022Y40526D02*
X54778D01*
X52022Y50368D02*
X54778D01*
X55565Y41313D02*
Y49581D01*
X54778Y50368D02*
X55565Y49581D01*
X51235D02*
X52022Y50368D01*
X51235Y41313D02*
X52022Y40526D01*
X54778D02*
X55565Y41313D01*
X37151Y40138D02*
Y52342D01*
X44238D01*
X37151Y40138D02*
X44238D01*
Y52342D01*
X29465Y41319D02*
Y49587D01*
X25922Y50374D02*
X28678D01*
X25922Y40532D02*
X28678D01*
X25135Y41319D02*
Y49587D01*
Y41319D02*
X25922Y40532D01*
X28678D02*
X29465Y41319D01*
X28678Y50374D02*
X29465Y49587D01*
X25135D02*
X25922Y50374D01*
X18335Y41313D02*
Y49581D01*
X19122Y40526D02*
X21878D01*
X19122Y50368D02*
X21878D01*
X22665Y41313D02*
Y49581D01*
X21878Y50368D02*
X22665Y49581D01*
X18335D02*
X19122Y50368D01*
X18335Y41313D02*
X19122Y40526D01*
X21878D02*
X22665Y41313D01*
X-41965Y44032D02*
Y53874D01*
X-37635Y44032D02*
Y53874D01*
X-41965Y44032D02*
X-37635D01*
X-41965Y53874D02*
X-37635D01*
X-31735Y44819D02*
Y53087D01*
X-35278Y53874D02*
X-32522D01*
X-35278Y44032D02*
X-32522D01*
X-36065Y44819D02*
Y53087D01*
Y44819D02*
X-35278Y44032D01*
X-32522D02*
X-31735Y44819D01*
X-32522Y53874D02*
X-31735Y53087D01*
X-36065D02*
X-35278Y53874D01*
X6018Y44819D02*
Y53087D01*
X2475Y53874D02*
X5231D01*
X2475Y44032D02*
X5231D01*
X1687Y44819D02*
Y53087D01*
Y44819D02*
X2475Y44032D01*
X5231D02*
X6018Y44819D01*
X5231Y53874D02*
X6018Y53087D01*
X1687D02*
X2475Y53874D01*
X-31465Y-9887D02*
Y-1619D01*
X-30678Y-10674D02*
X-27922D01*
X-30678Y-831D02*
X-27922D01*
X-27135Y-9887D02*
Y-1619D01*
X-27922Y-831D02*
X-27135Y-1619D01*
X-31465D02*
X-30678Y-831D01*
X-31465Y-9887D02*
X-30678Y-10674D01*
X-27922D02*
X-27135Y-9887D01*
X90069Y-17934D02*
X112886Y-24048D01*
X81915Y-33154D02*
X108535Y-40286D01*
X90200Y-2233D02*
X116820Y-9366D01*
X108535Y-40286D02*
X116820Y-9366D01*
X81915Y-33154D02*
X90200Y-2233D01*
X85718Y-34172D02*
X94003Y-3252D01*
X-41943Y-86368D02*
X-38990D01*
X-33084D02*
X-30132D01*
X-37809Y-80068D02*
X-34265D01*
X-41943Y-86368D02*
Y-80068D01*
X-30132Y-86368D02*
Y-80068D01*
X-62269Y-26135D02*
X-52426D01*
X-62269Y-30465D02*
X-52426D01*
X-62269D02*
Y-26135D01*
X-52426Y-30465D02*
Y-26135D01*
X-62269Y-19535D02*
X-52426D01*
X-62269Y-23865D02*
X-52426D01*
X-62269D02*
Y-19535D01*
X-52426Y-23865D02*
Y-19535D01*
X-86900Y-34581D02*
Y-29581D01*
Y-43581D02*
Y-38581D01*
X-66900Y-43581D02*
Y-29581D01*
X-86900D02*
X-66900D01*
X-86900Y-43581D02*
X-66900D01*
X-85681Y-19965D02*
X-77413D01*
X-76626Y-19178D02*
Y-16422D01*
X-86468Y-19178D02*
Y-16422D01*
X-85681Y-15635D02*
X-77413D01*
X-86468Y-16422D02*
X-85681Y-15635D01*
X-86468Y-19178D02*
X-85681Y-19965D01*
X-77413D02*
X-76626Y-19178D01*
X-77413Y-15635D02*
X-76626Y-16422D01*
X-89435Y-41574D02*
Y-31732D01*
X-93765Y-41574D02*
Y-31732D01*
X-89435D01*
X-93765Y-41574D02*
X-89435D01*
X34726Y-50565D02*
X44568D01*
X34726Y-46235D02*
X44568D01*
Y-50565D02*
Y-46235D01*
X34726Y-50565D02*
Y-46235D01*
X-13100Y44032D02*
Y53874D01*
X-8769Y44032D02*
Y53874D01*
X-13100Y44032D02*
X-8769D01*
X-13100Y53874D02*
X-8769D01*
X9435Y-59069D02*
Y-49226D01*
X13765Y-59069D02*
Y-49226D01*
X9435Y-59069D02*
X13765D01*
X9435Y-49226D02*
X13765D01*
X-2869Y44026D02*
Y53869D01*
X-7200Y44026D02*
Y53869D01*
X-2869D01*
X-7200Y44026D02*
X-2869D01*
X-2381Y-83965D02*
X5887D01*
X6674Y-83178D02*
Y-80422D01*
X-3168Y-83178D02*
Y-80422D01*
X-2381Y-79635D02*
X5887D01*
X-3168Y-80422D02*
X-2381Y-79635D01*
X-3168Y-83178D02*
X-2381Y-83965D01*
X5887D02*
X6674Y-83178D01*
X5887Y-79635D02*
X6674Y-80422D01*
X34132Y-56510D02*
Y-53557D01*
Y-65368D02*
Y-62416D01*
X40431Y-61235D02*
Y-57691D01*
X34132Y-53557D02*
X40431D01*
X34132Y-65368D02*
X40431D01*
X36863Y16937D02*
X40800Y13000D01*
X44737Y16937D01*
X36863Y13000D02*
X44737D01*
X36863Y16937D02*
X44737D01*
X46705Y1976D02*
Y27961D01*
X34894Y1976D02*
X46705D01*
X34894D02*
Y27961D01*
X46705D01*
X57600Y16842D02*
X61537Y12905D01*
X53663D02*
X57600Y16842D01*
X53663D02*
X61537D01*
X53663Y12905D02*
X61537D01*
X51695Y1882D02*
Y27866D01*
X63506D01*
Y1882D02*
Y27866D01*
X51695Y1882D02*
X63506D01*
X72890Y-9732D02*
X75842D01*
X64031D02*
X66984D01*
X68165Y-16032D02*
X71709D01*
X75842D02*
Y-9732D01*
X64031Y-16032D02*
Y-9732D01*
X-50999Y8624D02*
Y11577D01*
Y-234D02*
Y2719D01*
X-44700Y3900D02*
Y7443D01*
X-50999Y11577D02*
X-44700D01*
X-50999Y-234D02*
X-44700D01*
X-33366Y-239D02*
Y9603D01*
X-37697Y-239D02*
Y9603D01*
X-33366D01*
X-37697Y-239D02*
X-33366D01*
X59490Y-9601D02*
X62442D01*
X50631D02*
X53584D01*
X54765Y-15900D02*
X58309D01*
X62442D02*
Y-9601D01*
X50631Y-15900D02*
Y-9601D01*
X48765Y-19874D02*
Y-10031D01*
X44435Y-19874D02*
Y-10031D01*
X48765D01*
X44435Y-19874D02*
X48765D01*
X-73599Y8524D02*
Y11477D01*
Y-334D02*
Y2619D01*
X-67300Y3800D02*
Y7343D01*
X-73599Y11477D02*
X-67300D01*
X-73599Y-334D02*
X-67300D01*
X6674Y-90665D02*
Y-86335D01*
X-3168Y-90665D02*
Y-86335D01*
Y-90665D02*
X6674D01*
X-3168Y-86335D02*
X6674D01*
X7474Y-62865D02*
Y-58535D01*
X-2369Y-62865D02*
Y-58535D01*
Y-62865D02*
X7474D01*
X-2369Y-58535D02*
X7474D01*
X16732Y-63131D02*
Y-56832D01*
X28543Y-63131D02*
Y-56832D01*
X20865Y-63131D02*
X24409D01*
X16732Y-56832D02*
X19684D01*
X25590D02*
X28543D01*
X30000Y-71300D02*
Y-67301D01*
X31999D01*
X32666Y-67968D01*
Y-69301D01*
X31999Y-69967D01*
X30000D01*
X31333D02*
X32666Y-71300D01*
X33999D02*
X35332D01*
X34665D01*
Y-67301D01*
X33999Y-67968D01*
X39997Y-67301D02*
X38664Y-67968D01*
X37331Y-69301D01*
Y-70634D01*
X37997Y-71300D01*
X39330D01*
X39997Y-70634D01*
Y-69967D01*
X39330Y-69301D01*
X37331D01*
X-62500Y-3000D02*
X-58501D01*
Y-4999D01*
X-59168Y-5666D01*
X-60501D01*
X-61167Y-4999D01*
Y-3000D01*
Y-4333D02*
X-62500Y-5666D01*
X-59168Y-6999D02*
X-58501Y-7665D01*
Y-8998D01*
X-59168Y-9664D01*
X-59834D01*
X-60501Y-8998D01*
Y-8332D01*
Y-8998D01*
X-61167Y-9664D01*
X-61834D01*
X-62500Y-8998D01*
Y-7665D01*
X-61834Y-6999D01*
X10358Y49740D02*
X11025Y50406D01*
Y51739D01*
X10358Y52406D01*
X7692D01*
X7026Y51739D01*
Y50406D01*
X7692Y49740D01*
X10358Y48407D02*
X11025Y47740D01*
Y46407D01*
X10358Y45741D01*
X9692D01*
X9025Y46407D01*
Y47074D01*
Y46407D01*
X8359Y45741D01*
X7692D01*
X7026Y46407D01*
Y47740D01*
X7692Y48407D01*
X-34268Y-5766D02*
X-33601Y-5099D01*
Y-3766D01*
X-34268Y-3100D01*
X-36934D01*
X-37600Y-3766D01*
Y-5099D01*
X-36934Y-5766D01*
X-37600Y-9764D02*
Y-7099D01*
X-34934Y-9764D01*
X-34268D01*
X-33601Y-9098D01*
Y-7765D01*
X-34268Y-7099D01*
X105800Y-36900D02*
X101937Y-35865D01*
X102455Y-33934D01*
X103271Y-33463D01*
X104559Y-33808D01*
X105030Y-34624D01*
X104513Y-36555D01*
X102972Y-32003D02*
X103662Y-29428D01*
X104306Y-29600D01*
X106191Y-32865D01*
X106835Y-33037D01*
X-25634Y-89734D02*
Y-87068D01*
X-26301Y-86401D01*
X-27634D01*
X-28300Y-87068D01*
Y-89734D01*
X-27634Y-90400D01*
X-26301D01*
X-26967Y-89067D02*
X-25634Y-90400D01*
X-26301D02*
X-25634Y-89734D01*
X-21635Y-86401D02*
X-24301D01*
Y-88401D01*
X-22968Y-87734D01*
X-22302D01*
X-21635Y-88401D01*
Y-89734D01*
X-22302Y-90400D01*
X-23635D01*
X-24301Y-89734D01*
X-78899Y-40500D02*
X-75566D01*
X-74900Y-39834D01*
Y-38501D01*
X-75566Y-37834D01*
X-78899D01*
X-78232Y-36501D02*
X-78899Y-35835D01*
Y-34502D01*
X-78232Y-33836D01*
X-77566D01*
X-76899Y-34502D01*
X-76233Y-33836D01*
X-75566D01*
X-74900Y-34502D01*
Y-35835D01*
X-75566Y-36501D01*
X-76233D01*
X-76899Y-35835D01*
X-77566Y-36501D01*
X-78232D01*
X-76899Y-35835D02*
Y-34502D01*
X-93800Y-18000D02*
X-89801D01*
Y-19999D01*
X-90468Y-20666D01*
X-91801D01*
X-92467Y-19999D01*
Y-18000D01*
Y-19333D02*
X-93800Y-20666D01*
Y-24665D02*
Y-21999D01*
X-91134Y-24665D01*
X-90468D01*
X-89801Y-23998D01*
Y-22665D01*
X-90468Y-21999D01*
X-93134Y-25997D02*
X-93800Y-26664D01*
Y-27997D01*
X-93134Y-28663D01*
X-90468D01*
X-89801Y-27997D01*
Y-26664D01*
X-90468Y-25997D01*
X-91134D01*
X-91801Y-26664D01*
Y-28663D01*
X-49000Y-21600D02*
Y-17601D01*
X-47001D01*
X-46334Y-18268D01*
Y-19601D01*
X-47001Y-20267D01*
X-49000D01*
X-47667D02*
X-46334Y-21600D01*
X-45001D02*
X-43668D01*
X-44335D01*
Y-17601D01*
X-45001Y-18268D01*
X-41669D02*
X-41003Y-17601D01*
X-39670D01*
X-39003Y-18268D01*
Y-18934D01*
X-39670Y-19601D01*
X-39003Y-20267D01*
Y-20933D01*
X-39670Y-21600D01*
X-41003D01*
X-41669Y-20933D01*
Y-20267D01*
X-41003Y-19601D01*
X-41669Y-18934D01*
Y-18268D01*
X-41003Y-19601D02*
X-39670D01*
X-8000Y37800D02*
Y41799D01*
X-6001D01*
X-5334Y41132D01*
Y39799D01*
X-6001Y39133D01*
X-8000D01*
X-6667D02*
X-5334Y37800D01*
X-4001D02*
X-2668D01*
X-3335D01*
Y41799D01*
X-4001Y41132D01*
X-669D02*
X-3Y41799D01*
X1330D01*
X1997Y41132D01*
Y38466D01*
X1330Y37800D01*
X-3D01*
X-669Y38466D01*
Y41132D01*
X-19100Y52100D02*
X-15101D01*
Y50101D01*
X-15768Y49434D01*
X-17101D01*
X-17767Y50101D01*
Y52100D01*
Y50767D02*
X-19100Y49434D01*
X-15768Y48101D02*
X-15101Y47435D01*
Y46102D01*
X-15768Y45436D01*
X-16434D01*
X-17101Y46102D01*
X-17767Y45436D01*
X-18433D01*
X-19100Y46102D01*
Y47435D01*
X-18433Y48101D01*
X-17767D01*
X-17101Y47435D01*
X-16434Y48101D01*
X-15768D01*
X-17101Y47435D02*
Y46102D01*
X45800Y-50300D02*
Y-46301D01*
X47799D01*
X48466Y-46968D01*
Y-48301D01*
X47799Y-48967D01*
X45800D01*
X47133D02*
X48466Y-50300D01*
X52464Y-46301D02*
X51132Y-46968D01*
X49799Y-48301D01*
Y-49634D01*
X50465Y-50300D01*
X51798D01*
X52464Y-49634D01*
Y-48967D01*
X51798Y-48301D01*
X49799D01*
X-49800Y-28400D02*
Y-24401D01*
X-47801D01*
X-47134Y-25068D01*
Y-26401D01*
X-47801Y-27067D01*
X-49800D01*
X-48467D02*
X-47134Y-28400D01*
X-43135D02*
X-45801D01*
X-43135Y-25734D01*
Y-25068D01*
X-43802Y-24401D01*
X-45135D01*
X-45801Y-25068D01*
X10400Y-60600D02*
X14399D01*
Y-62599D01*
X13732Y-63266D01*
X12399D01*
X11733Y-62599D01*
Y-60600D01*
Y-61933D02*
X10400Y-63266D01*
Y-64599D02*
Y-65932D01*
Y-65265D01*
X14399D01*
X13732Y-64599D01*
X-81934Y-10168D02*
X-82601Y-9501D01*
X-83934D01*
X-84600Y-10168D01*
Y-12833D01*
X-83934Y-13500D01*
X-82601D01*
X-81934Y-12833D01*
X-80601Y-13500D02*
X-79268D01*
X-79935D01*
Y-9501D01*
X-80601Y-10168D01*
X-77269Y-13500D02*
X-75936D01*
X-76603D01*
Y-9501D01*
X-77269Y-10168D01*
X-8534Y-80368D02*
X-9201Y-79701D01*
X-10533D01*
X-11200Y-80368D01*
Y-83034D01*
X-10533Y-83700D01*
X-9201D01*
X-8534Y-83034D01*
X-7201D02*
X-6535Y-83700D01*
X-5202D01*
X-4535Y-83034D01*
Y-80368D01*
X-5202Y-79701D01*
X-6535D01*
X-7201Y-80368D01*
Y-81034D01*
X-6535Y-81701D01*
X-4535D01*
X-34400Y-54201D02*
Y-57534D01*
X-33734Y-58200D01*
X-32401D01*
X-31734Y-57534D01*
Y-54201D01*
X-30401Y-58200D02*
X-29068D01*
X-29735D01*
Y-54201D01*
X-30401Y-54868D01*
X-27069D02*
X-26403Y-54201D01*
X-25070D01*
X-24403Y-54868D01*
Y-57534D01*
X-25070Y-58200D01*
X-26403D01*
X-27069Y-57534D01*
Y-54868D01*
X37100Y-10100D02*
X41099D01*
Y-12099D01*
X40432Y-12766D01*
X39099D01*
X38433Y-12099D01*
Y-10100D01*
Y-11433D02*
X37100Y-12766D01*
X40432Y-14099D02*
X41099Y-14765D01*
Y-16098D01*
X40432Y-16765D01*
X39766D01*
X39099Y-16098D01*
Y-15432D01*
Y-16098D01*
X38433Y-16765D01*
X37766D01*
X37100Y-16098D01*
Y-14765D01*
X37766Y-14099D01*
X37100Y-20763D02*
Y-18097D01*
X39766Y-20763D01*
X40432D01*
X41099Y-20097D01*
Y-18764D01*
X40432Y-18097D01*
X-37800Y22800D02*
X-33801D01*
Y20801D01*
X-34468Y20134D01*
X-35801D01*
X-36467Y20801D01*
Y22800D01*
Y21467D02*
X-37800Y20134D01*
X-34468Y18801D02*
X-33801Y18135D01*
Y16802D01*
X-34468Y16136D01*
X-35134D01*
X-35801Y16802D01*
Y17468D01*
Y16802D01*
X-36467Y16136D01*
X-37134D01*
X-37800Y16802D01*
Y18135D01*
X-37134Y18801D01*
X-34468Y14803D02*
X-33801Y14136D01*
Y12803D01*
X-34468Y12137D01*
X-37134D01*
X-37800Y12803D01*
Y14136D01*
X-37134Y14803D01*
X-34468D01*
X53966Y-26534D02*
Y-23868D01*
X53299Y-23201D01*
X51966D01*
X51300Y-23868D01*
Y-26534D01*
X51966Y-27200D01*
X53299D01*
X52633Y-25867D02*
X53966Y-27200D01*
X53299D02*
X53966Y-26534D01*
X55299Y-27200D02*
X56632D01*
X55965D01*
Y-23201D01*
X55299Y-23868D01*
X58631D02*
X59297Y-23201D01*
X60630D01*
X61297Y-23868D01*
Y-26534D01*
X60630Y-27200D01*
X59297D01*
X58631Y-26534D01*
Y-23868D01*
X-48634Y15067D02*
Y17732D01*
X-49301Y18399D01*
X-50634D01*
X-51300Y17732D01*
Y15067D01*
X-50634Y14400D01*
X-49301D01*
X-49967Y15733D02*
X-48634Y14400D01*
X-49301D02*
X-48634Y15067D01*
X-47301D02*
X-46635Y14400D01*
X-45302D01*
X-44635Y15067D01*
Y17732D01*
X-45302Y18399D01*
X-46635D01*
X-47301Y17732D01*
Y17066D01*
X-46635Y16399D01*
X-44635D01*
X70366Y-25834D02*
Y-23168D01*
X69699Y-22501D01*
X68366D01*
X67700Y-23168D01*
Y-25834D01*
X68366Y-26500D01*
X69699D01*
X69033Y-25167D02*
X70366Y-26500D01*
X69699D02*
X70366Y-25834D01*
X71699Y-22501D02*
X74365D01*
Y-23168D01*
X71699Y-25834D01*
Y-26500D01*
X29330Y-51734D02*
Y-49068D01*
X28663Y-48401D01*
X27330D01*
X26664Y-49068D01*
Y-51734D01*
X27330Y-52400D01*
X28663D01*
X27997Y-51067D02*
X29330Y-52400D01*
X28663D02*
X29330Y-51734D01*
X33328Y-48401D02*
X31995Y-49068D01*
X30663Y-50401D01*
Y-51734D01*
X31329Y-52400D01*
X32662D01*
X33328Y-51734D01*
Y-51067D01*
X32662Y-50401D01*
X30663D01*
X-27400Y-99400D02*
X-25710Y-95776D01*
X-23898Y-96621D01*
X-23576Y-97507D01*
X-24139Y-98715D01*
X-25025Y-99037D01*
X-26837Y-98192D01*
X-19670Y-98593D02*
X-21160Y-98633D01*
X-22931Y-99278D01*
X-23494Y-100486D01*
X-23172Y-101372D01*
X-21964Y-101935D01*
X-21078Y-101612D01*
X-20797Y-101008D01*
X-21119Y-100123D01*
X-22931Y-99278D01*
X39900Y85500D02*
Y89499D01*
X41899D01*
X42566Y88832D01*
Y87499D01*
X41899Y86833D01*
X39900D01*
X46564Y89499D02*
X43899D01*
Y87499D01*
X45232Y88166D01*
X45898D01*
X46564Y87499D01*
Y86166D01*
X45898Y85500D01*
X44565D01*
X43899Y86166D01*
X38000Y34299D02*
Y30300D01*
X39999D01*
X40666Y30966D01*
Y33632D01*
X39999Y34299D01*
X38000D01*
X41999D02*
X44664D01*
Y33632D01*
X41999Y30966D01*
Y30300D01*
X52450Y35149D02*
Y31150D01*
X54449D01*
X55116Y31816D01*
Y34482D01*
X54449Y35149D01*
X52450D01*
X59114Y31150D02*
X56449D01*
X59114Y33816D01*
Y34482D01*
X58448Y35149D01*
X57115D01*
X56449Y34482D01*
X77200Y500D02*
X80199D01*
Y-1000D01*
X79699Y-1499D01*
X78699D01*
X78200Y-1000D01*
Y500D01*
Y-500D02*
X77200Y-1499D01*
Y-4498D02*
Y-2499D01*
X79199Y-4498D01*
X79699D01*
X80199Y-3999D01*
Y-2999D01*
X79699Y-2499D01*
X80199Y-5498D02*
Y-7497D01*
X79699D01*
X77700Y-5498D01*
X77200D01*
X30500Y-101600D02*
Y-97601D01*
X32499D01*
X33166Y-98268D01*
Y-99601D01*
X32499Y-100267D01*
X30500D01*
X37165Y-101600D02*
X34499D01*
X37165Y-98934D01*
Y-98268D01*
X36498Y-97601D01*
X35165D01*
X34499Y-98268D01*
X83200Y52200D02*
Y56199D01*
X85199D01*
X85866Y55532D01*
Y54199D01*
X85199Y53533D01*
X83200D01*
X87199Y52200D02*
X88532D01*
X87865D01*
Y56199D01*
X87199Y55532D01*
X37400Y38899D02*
Y35566D01*
X38066Y34900D01*
X39399D01*
X40066Y35566D01*
Y38899D01*
X44065D02*
X41399D01*
Y36899D01*
X42732Y37566D01*
X43398D01*
X44065Y36899D01*
Y35566D01*
X43398Y34900D01*
X42065D01*
X41399Y35566D01*
X9700Y-79201D02*
Y-82534D01*
X10367Y-83200D01*
X11699D01*
X12366Y-82534D01*
Y-79201D01*
X15698Y-83200D02*
Y-79201D01*
X13699Y-81201D01*
X16364D01*
X-34Y-34834D02*
Y-32168D01*
X-701Y-31501D01*
X-2034D01*
X-2700Y-32168D01*
Y-34834D01*
X-2034Y-35500D01*
X-701D01*
X-1367Y-34167D02*
X-34Y-35500D01*
X-701D02*
X-34Y-34834D01*
X1299Y-35500D02*
X2632D01*
X1965D01*
Y-31501D01*
X1299Y-32168D01*
X-46934Y-39534D02*
Y-36868D01*
X-47601Y-36201D01*
X-48934D01*
X-49600Y-36868D01*
Y-39534D01*
X-48934Y-40200D01*
X-47601D01*
X-48267Y-38867D02*
X-46934Y-40200D01*
X-47601D02*
X-46934Y-39534D01*
X-43602Y-40200D02*
Y-36201D01*
X-45601Y-38201D01*
X-42935D01*
X-70866Y13801D02*
Y16467D01*
X-71532Y17133D01*
X-72865D01*
X-73532Y16467D01*
Y13801D01*
X-72865Y13135D01*
X-71532D01*
X-72199Y14468D02*
X-70866Y13135D01*
X-71532D02*
X-70866Y13801D01*
X-66867Y13135D02*
X-69533D01*
X-66867Y15800D01*
Y16467D01*
X-67533Y17133D01*
X-68866D01*
X-69533Y16467D01*
X-23600Y40899D02*
Y37566D01*
X-22933Y36900D01*
X-21601D01*
X-20934Y37566D01*
Y40899D01*
X-19601Y36900D02*
X-18268D01*
X-18935D01*
Y40899D01*
X-19601Y40232D01*
X-45300Y62400D02*
X-41301D01*
Y60401D01*
X-41968Y59734D01*
X-43301D01*
X-43967Y60401D01*
Y62400D01*
Y61067D02*
X-45300Y59734D01*
X-41301Y58401D02*
Y55735D01*
X-41968D01*
X-44634Y58401D01*
X-45300D01*
X-60500Y-56800D02*
Y-52801D01*
X-58501D01*
X-57834Y-53468D01*
Y-54801D01*
X-58501Y-55467D01*
X-60500D01*
X-59167D02*
X-57834Y-56800D01*
X-56501D02*
X-55168D01*
X-55835D01*
Y-52801D01*
X-56501Y-53468D01*
X-51170Y-56800D02*
Y-52801D01*
X-53169Y-54801D01*
X-50503D01*
X29600Y-79100D02*
Y-75101D01*
X31599D01*
X32266Y-75768D01*
Y-77101D01*
X31599Y-77767D01*
X29600D01*
X30933D02*
X32266Y-79100D01*
X33599D02*
X34932D01*
X34265D01*
Y-75101D01*
X33599Y-75768D01*
X39597Y-79100D02*
X36931D01*
X39597Y-76434D01*
Y-75768D01*
X38930Y-75101D01*
X37597D01*
X36931Y-75768D01*
X-28000Y-79900D02*
Y-75901D01*
X-26001D01*
X-25334Y-76568D01*
Y-77901D01*
X-26001Y-78567D01*
X-28000D01*
X-26667D02*
X-25334Y-79900D01*
X-24001D02*
X-22668D01*
X-23335D01*
Y-75901D01*
X-24001Y-76568D01*
X-20669D02*
X-20003Y-75901D01*
X-18670D01*
X-18003Y-76568D01*
Y-77234D01*
X-18670Y-77901D01*
X-19336D01*
X-18670D01*
X-18003Y-78567D01*
Y-79234D01*
X-18670Y-79900D01*
X-20003D01*
X-20669Y-79234D01*
X-53024Y-69031D02*
Y-65033D01*
X-51025D01*
X-50358Y-65699D01*
Y-67032D01*
X-51025Y-67698D01*
X-53024D01*
X-51691D02*
X-50358Y-69031D01*
X-49025D02*
X-47692D01*
X-48359D01*
Y-65033D01*
X-49025Y-65699D01*
X-43027Y-65033D02*
X-45693D01*
Y-67032D01*
X-44360Y-66365D01*
X-43694D01*
X-43027Y-67032D01*
Y-68365D01*
X-43694Y-69031D01*
X-45027D01*
X-45693Y-68365D01*
X-92800Y-62600D02*
Y-58601D01*
X-90801D01*
X-90134Y-59268D01*
Y-60601D01*
X-90801Y-61267D01*
X-92800D01*
X-88801Y-59268D02*
X-88135Y-58601D01*
X-86802D01*
X-86136Y-59268D01*
Y-59934D01*
X-86802Y-60601D01*
X-87468D01*
X-86802D01*
X-86136Y-61267D01*
Y-61934D01*
X-86802Y-62600D01*
X-88135D01*
X-88801Y-61934D01*
X16432Y48034D02*
X17099Y48701D01*
Y50034D01*
X16432Y50700D01*
X13767D01*
X13100Y50034D01*
Y48701D01*
X13767Y48034D01*
X13100Y46701D02*
Y45368D01*
Y46035D01*
X17099D01*
X16432Y46701D01*
X13100Y41370D02*
X17099D01*
X15099Y43369D01*
Y40703D01*
X73532Y51434D02*
X74199Y52101D01*
Y53434D01*
X73532Y54100D01*
X70866D01*
X70200Y53434D01*
Y52101D01*
X70866Y51434D01*
X70200Y50101D02*
Y48768D01*
Y49435D01*
X74199D01*
X73532Y50101D01*
X74199Y44103D02*
X73532Y45436D01*
X72199Y46769D01*
X70866D01*
X70200Y46103D01*
Y44770D01*
X70866Y44103D01*
X71533D01*
X72199Y44770D01*
Y46769D01*
X-32168Y38134D02*
X-31501Y38801D01*
Y40134D01*
X-32168Y40800D01*
X-34834D01*
X-35500Y40134D01*
Y38801D01*
X-34834Y38134D01*
X-32168Y36801D02*
X-31501Y36135D01*
Y34802D01*
X-32168Y34135D01*
X-32834D01*
X-33501Y34802D01*
X-34167Y34135D01*
X-34834D01*
X-35500Y34802D01*
Y36135D01*
X-34834Y36801D01*
X-34167D01*
X-33501Y36135D01*
X-32834Y36801D01*
X-32168D01*
X-33501Y36135D02*
Y34802D01*
X78232Y51234D02*
X78899Y51901D01*
Y53234D01*
X78232Y53900D01*
X75566D01*
X74900Y53234D01*
Y51901D01*
X75566Y51234D01*
X74900Y49901D02*
Y48568D01*
Y49235D01*
X78899D01*
X78232Y49901D01*
X78899Y46569D02*
Y43903D01*
X78232D01*
X75566Y46569D01*
X74900D01*
X27732Y35834D02*
X28399Y36501D01*
Y37834D01*
X27732Y38500D01*
X25067D01*
X24400Y37834D01*
Y36501D01*
X25067Y35834D01*
X24400Y34501D02*
Y33168D01*
Y33835D01*
X28399D01*
X27732Y34501D01*
Y31169D02*
X28399Y30503D01*
Y29170D01*
X27732Y28503D01*
X27066D01*
X26399Y29170D01*
Y29836D01*
Y29170D01*
X25733Y28503D01*
X25067D01*
X24400Y29170D01*
Y30503D01*
X25067Y31169D01*
X-15334Y-22068D02*
X-16001Y-21401D01*
X-17334D01*
X-18000Y-22068D01*
Y-24734D01*
X-17334Y-25400D01*
X-16001D01*
X-15334Y-24734D01*
X-14001Y-25400D02*
X-12668D01*
X-13335D01*
Y-21401D01*
X-14001Y-22068D01*
X20166Y-51234D02*
Y-48568D01*
X19499Y-47901D01*
X18167D01*
X17500Y-48568D01*
Y-51234D01*
X18167Y-51900D01*
X19499D01*
X18833Y-50567D02*
X20166Y-51900D01*
X19499D02*
X20166Y-51234D01*
X21499Y-51900D02*
X22832D01*
X22165D01*
Y-47901D01*
X21499Y-48568D01*
X24831Y-51900D02*
X26164D01*
X25497D01*
Y-47901D01*
X24831Y-48568D01*
X-10700Y-62900D02*
Y-58901D01*
X-8701D01*
X-8034Y-59568D01*
Y-60901D01*
X-8701Y-61567D01*
X-10700D01*
X-9367D02*
X-8034Y-62900D01*
X-4702D02*
Y-58901D01*
X-6701Y-60901D01*
X-4036D01*
X9400Y-90300D02*
Y-86301D01*
X11399D01*
X12066Y-86968D01*
Y-88301D01*
X11399Y-88967D01*
X9400D01*
X10733D02*
X12066Y-90300D01*
X13399D02*
X14732D01*
X14065D01*
Y-86301D01*
X13399Y-86968D01*
X16731Y-90300D02*
X18064D01*
X17397D01*
Y-86301D01*
X16731Y-86968D01*
X-2900Y-100101D02*
X-234D01*
X-1567D01*
Y-104100D01*
X1099D02*
X2432D01*
X1765D01*
Y-100101D01*
X1099Y-100768D01*
X-35101Y109000D02*
Y106334D01*
Y107667D01*
X-39100D01*
X-35101Y105001D02*
X-39100Y102336D01*
X-35101D02*
X-39100Y105001D01*
X-35101Y101003D02*
X-39100D01*
Y99003D01*
X-38434Y98337D01*
X-35768D01*
X-35101Y99003D01*
Y101003D01*
X-27900Y109300D02*
X-23901D01*
Y107301D01*
X-24568Y106634D01*
X-25901D01*
X-26567Y107301D01*
Y109300D01*
Y107967D02*
X-27900Y106634D01*
X-23901Y105301D02*
X-27900Y102636D01*
X-23901D02*
X-27900Y105301D01*
X-23901Y101303D02*
X-27900D01*
Y99303D01*
X-27234Y98637D01*
X-24568D01*
X-23901Y99303D01*
Y101303D01*
X-14501Y109600D02*
Y106934D01*
Y108267D01*
X-18500D01*
X-14501Y105601D02*
X-18500Y102936D01*
X-14501D02*
X-18500Y105601D01*
X-14501Y101603D02*
X-18500D01*
Y99603D01*
X-17833Y98937D01*
X-15168D01*
X-14501Y99603D01*
Y101603D01*
X-8300Y109600D02*
X-4301D01*
Y107601D01*
X-4968Y106934D01*
X-6301D01*
X-6967Y107601D01*
Y109600D01*
Y108267D02*
X-8300Y106934D01*
X-4301Y105601D02*
X-8300Y102936D01*
X-4301D02*
X-8300Y105601D01*
X-4301Y101603D02*
X-8300D01*
Y99603D01*
X-7633Y98937D01*
X-4968D01*
X-4301Y99603D01*
Y101603D01*
X4899Y106734D02*
Y109400D01*
X900D01*
Y106734D01*
X2899Y109400D02*
Y108067D01*
X900Y105401D02*
X4899D01*
X900Y102735D01*
X4899D01*
X11000Y109700D02*
X14999D01*
Y107701D01*
X14332Y107034D01*
X12999D01*
X12333Y107701D01*
Y109700D01*
X14999Y105701D02*
X11000D01*
X12333Y104368D01*
X11000Y103035D01*
X14999D01*
X11000Y101703D02*
X14999D01*
Y99703D01*
X14332Y99037D01*
X12999D01*
X12333Y99703D01*
Y101703D01*
Y100370D02*
X11000Y99037D01*
X24132Y112500D02*
X24799Y111834D01*
Y110501D01*
X24132Y109834D01*
X23466D01*
X22799Y110501D01*
Y111167D01*
Y110501D01*
X22133Y109834D01*
X21466D01*
X20800Y110501D01*
Y111834D01*
X21466Y112500D01*
X20800Y108501D02*
X21466D01*
Y107835D01*
X20800D01*
Y108501D01*
X24799Y105169D02*
Y102503D01*
X24132D01*
X21466Y105169D01*
X20800D01*
X24799Y101170D02*
X22133D01*
X20800Y99837D01*
X22133Y98505D01*
X24799D01*
X33832Y99134D02*
X34499Y99801D01*
Y101134D01*
X33832Y101800D01*
X31166D01*
X30500Y101134D01*
Y99801D01*
X31166Y99134D01*
X32499D01*
Y100467D01*
X101500Y15332D02*
X102166Y15999D01*
X103499D01*
X104166Y15332D01*
Y14666D01*
X103499Y13999D01*
X102833D01*
X103499D01*
X104166Y13333D01*
Y12666D01*
X103499Y12000D01*
X102166D01*
X101500Y12666D01*
X105499Y12000D02*
Y12666D01*
X106165D01*
Y12000D01*
X105499D01*
X108831Y15332D02*
X109497Y15999D01*
X110830D01*
X111497Y15332D01*
Y14666D01*
X110830Y13999D01*
X110164D01*
X110830D01*
X111497Y13333D01*
Y12666D01*
X110830Y12000D01*
X109497D01*
X108831Y12666D01*
X112830Y15999D02*
Y13333D01*
X114163Y12000D01*
X115496Y13333D01*
Y15999D01*
X104866Y27832D02*
X104199Y28499D01*
X102866D01*
X102200Y27832D01*
Y27166D01*
X102866Y26499D01*
X104199D01*
X104866Y25833D01*
Y25166D01*
X104199Y24500D01*
X102866D01*
X102200Y25166D01*
X106199Y28499D02*
Y24500D01*
X107532Y25833D01*
X108864Y24500D01*
Y28499D01*
X110197Y24500D02*
Y28499D01*
X111530Y27166D01*
X112863Y28499D01*
Y24500D01*
X105266Y38032D02*
X104599Y38699D01*
X103267D01*
X102600Y38032D01*
Y35366D01*
X103267Y34700D01*
X104599D01*
X105266Y35366D01*
Y36699D01*
X103933D01*
X101000Y42000D02*
Y45999D01*
X102999D01*
X103666Y45332D01*
Y43999D01*
X102999Y43333D01*
X101000D01*
X102333D02*
X103666Y42000D01*
X107665Y45332D02*
X106998Y45999D01*
X105665D01*
X104999Y45332D01*
Y44666D01*
X105665Y43999D01*
X106998D01*
X107665Y43333D01*
Y42666D01*
X106998Y42000D01*
X105665D01*
X104999Y42666D01*
X108997Y45999D02*
X111663D01*
X110330D01*
Y42000D01*
X80129Y-42359D02*
X79186D01*
X78244Y-43301D01*
Y-44244D01*
X80129Y-46129D01*
X81071D01*
X82014Y-45186D01*
Y-44244D01*
X81071Y-43301D01*
X80129Y-44244D01*
X83428Y-43773D02*
X80600Y-40945D01*
X85312Y-41888D01*
X82485Y-39060D01*
X83428Y-38118D02*
X86255Y-40945D01*
X87669Y-39531D01*
Y-38589D01*
X85784Y-36704D01*
X84841D01*
X83428Y-38118D01*
X100472Y-1273D02*
X102357Y-3158D01*
X104243D01*
Y-1273D01*
X102357Y612D01*
X103300Y1555D02*
X106128Y-1273D01*
X107541Y141D01*
Y1084D01*
X107070Y1555D01*
X106128D01*
X104714Y141D01*
X106128Y1555D01*
Y2497D01*
X105656Y2969D01*
X104714D01*
X103300Y1555D01*
X108955D02*
X107070Y3440D01*
Y5325D01*
X108955Y5325D01*
X110840Y3440D01*
X109426Y4854D01*
X107541Y2969D01*
X108955Y7210D02*
X110840Y9095D01*
X109897Y8153D01*
X112725Y5325D01*
X31629Y-90459D02*
X30686D01*
X29744Y-91401D01*
Y-92344D01*
X31629Y-94229D01*
X32571D01*
X33514Y-93286D01*
Y-92344D01*
X32571Y-91401D01*
X31629Y-92344D01*
X55972Y-62273D02*
X57858Y-64157D01*
X59742D01*
Y-62273D01*
X57858Y-60387D01*
X58800Y-59445D02*
X59742Y-58503D01*
X59271Y-58974D01*
X62099Y-61801D01*
X61628Y-62273D01*
X62570Y-61330D01*
X63984Y-59916D02*
X61156Y-57089D01*
X65869Y-58031D01*
X63041Y-55204D01*
X-38067Y-91418D02*
X-41691Y-89728D01*
X-40724Y-92385D02*
X-39035Y-88761D01*
X-76714Y-59059D02*
X-77656Y-60001D01*
Y-60944D01*
X-75771Y-62829D01*
X-74829D01*
X-73886Y-61886D01*
Y-60944D01*
X-75771Y-59059D01*
X-76714D01*
X-73886D02*
X-72001Y-57174D01*
X-73886Y-57174D02*
X-72001Y-59059D01*
X-54614Y-78659D02*
X-55556Y-79601D01*
Y-80544D01*
X-53671Y-82429D01*
X-52729D01*
X-51786Y-81486D01*
Y-80544D01*
X-53671Y-78659D01*
X-54614D01*
X-51786D02*
X-49901Y-76774D01*
X-63627Y-73273D02*
X-62685Y-72330D01*
X-63156Y-72801D01*
X-60329Y-75629D01*
X-60800Y-76100D01*
X-59857Y-75157D01*
X-58444Y-73744D02*
X-61271Y-70916D01*
X-56559Y-71859D01*
X-59386Y-69031D01*
X-57030Y-69503D02*
X-55145Y-67617D01*
X-57030D02*
X-55145Y-69503D01*
X-70928Y-67572D02*
X-69985Y-66630D01*
X-70456Y-67101D01*
X-67629Y-69929D01*
X-68100Y-70400D01*
X-67158Y-69458D01*
X-65744Y-68044D02*
X-68571Y-65216D01*
X-63859Y-66159D01*
X-66686Y-63331D01*
X-64330Y-63802D02*
X-62445Y-61918D01*
D48*
X-27000Y-65139D02*
G03*
X-32000Y-65139I-2500J0D01*
G01*
X-60800Y-96171D02*
X-53729Y-89100D01*
X-89084Y-67887D02*
X-60800Y-96171D01*
X-82013Y-60816D02*
X-53729Y-89100D01*
X-89084Y-67887D02*
X-82013Y-60816D01*
X89800Y11200D02*
X99800D01*
X89800D02*
Y51200D01*
X99800Y11200D02*
Y51200D01*
X89800D02*
X99800D01*
X-50308Y-101592D02*
X-46082Y-92529D01*
X-27955Y-100982D01*
X-32182Y-110045D02*
X-27955Y-100982D01*
X-50308Y-101592D02*
X-32182Y-110045D01*
X-19067Y-65139D02*
Y-45061D01*
X-39933Y-65139D02*
Y-45061D01*
X-27000Y-65139D02*
X-19067D01*
X-39933D02*
X-32000D01*
X-39933Y-45061D02*
X-19067D01*
X38500Y87200D02*
Y97200D01*
X-41500Y87200D02*
X38500D01*
X-41500D02*
Y97200D01*
X38500D01*
D49*
X-14008Y-65218D02*
G03*
X-14008Y-65218I-492J0D01*
G01*
D50*
X-21823Y-61202D02*
G03*
X-21823Y-61202I-1181J0D01*
G01*
M02*
