M48
;Layer_Color=9474304
;FILE_FORMAT=2:4
INCH,LZ
;TYPE=PLATED
T01F00S00C0.0120
T02F00S00C0.0295
T03F00S00C0.0354
T04F00S00C0.1063
%
T01
X00245Y0017
X00295
X00345
X00395
X00445
X00495
X00545
X00595
X00645
X0067Y0022
X0062
X0057
X0052
X0047
X0042
X0037
X0032
X0027
X0022
X00245Y0027
X00295
X00345
X00395
X00445
X00495
X00545
X00595
X00645
X00695
X00745
X0072Y0032
X0067
X0062
X0057
X0052
X0047
X0042
X0037
X0032
X0027
X0022
X0017
X00195Y0027
X00145
X00195Y0047
X0022Y0052
X00269Y00521
X0032Y0052
X0037
X00395Y0057
X00345
X00245
X00195
Y0067
X00295
X00303Y00635
X00253Y00628
X00395Y0067
X00503Y00662
X006045Y006855
X00577Y00579
X00576Y00533
X00519Y0049
X00445Y00541
X00395Y0047
X00295
X0032Y0082
X0037
X0042
X0047
X0052
X0057
X0062
X0067
X0072
X007625Y00816
X0082Y0082
X0088Y00816
X0092Y0082
X0097
X0102
X0108Y00816
X0112Y0082
X0117
X01145Y0077
X01172Y0072
X01245Y0067
X01295
X01333Y0066
X013313Y006923
X01395Y0067
X0137Y0062
X0131Y00598
X01097Y00573
X01186Y00483
X01195Y0037
X01126Y00366
X0131Y00354
X01374Y00322
X00832Y00368
X0078Y0032
X007625Y005815
X00695Y0057
X00645
X00867Y00565
X00905Y00567
X0027Y0082
X014592Y006918
X015012Y006922
X01536Y00694
X015758Y006922
X01641Y0065
X01711Y00644
X0172Y0072
X0167
X0182
X01676Y00543
X01745Y0037
X01795
X0182Y0032
X0177
X01795Y0027
X01745
X0177Y0022
X0162
X01645Y0027
X01595
X01693Y00318
T02
X007283Y00198
X007874
X008464
X009055
X009645
X010236
X010826
X011417
T03
X0147Y00174
X0157
T04
X000984Y000984
Y008858
X018701
Y000984
M30
