%FSLAX25Y25*%
%MOIN*%
G70*
G01*
G75*
G04 Layer_Physical_Order=1*
G04 Layer_Color=255*
%ADD10R,0.07087X0.03937*%
%ADD11O,0.08465X0.02756*%
%ADD12R,0.05100X0.05100*%
%ADD13R,0.02559X0.06496*%
%ADD14R,0.05100X0.05100*%
%ADD15O,0.01102X0.07087*%
%ADD16O,0.07087X0.01102*%
%ADD17R,0.07480X0.09449*%
%ADD18R,0.10799X0.08500*%
%ADD19C,0.01102*%
%ADD20C,0.01000*%
%ADD21C,0.02362*%
%ADD22C,0.01500*%
%ADD23C,0.01200*%
%ADD24C,0.03000*%
%ADD25C,0.02000*%
%ADD26C,0.02500*%
%ADD27C,0.04000*%
%ADD28C,0.04331*%
%ADD29R,0.18600X0.07100*%
%ADD30R,0.10000X0.05300*%
%ADD31R,0.19700X0.10000*%
%ADD32C,0.05906*%
%ADD33R,0.05906X0.05906*%
%ADD34C,0.02000*%
%ADD35C,0.03000*%
G36*
X122203Y-4215D02*
Y-210022D01*
X35000D01*
X34434Y-210134D01*
X33955Y-210455D01*
X33634Y-210934D01*
X33522Y-211500D01*
Y-262500D01*
X33634Y-263066D01*
X33955Y-263545D01*
X34434Y-263866D01*
X35000Y-263978D01*
X85458D01*
Y-298400D01*
X14500D01*
Y-286881D01*
X14500D01*
X14650D01*
X14854Y-286881D01*
X14854Y-286881D01*
Y-286881D01*
X17711D01*
Y-283132D01*
Y-279381D01*
X14854D01*
X14854Y-279381D01*
Y-279381D01*
X14650Y-279381D01*
X14500Y-279231D01*
Y-278219D01*
X14650D01*
Y-278219D01*
X22150D01*
Y-276843D01*
X25776D01*
X25836Y-277143D01*
Y-277350D01*
X25300Y-277761D01*
X24887Y-278300D01*
X24634Y-278911D01*
X35352D01*
X35099Y-278300D01*
X34686Y-277761D01*
X34147Y-277348D01*
Y-276852D01*
X34686Y-276439D01*
X35099Y-275900D01*
X35359Y-275273D01*
X35447Y-274600D01*
X35359Y-273927D01*
X35099Y-273300D01*
X34686Y-272761D01*
X34147Y-272348D01*
X33520Y-272088D01*
X32847Y-272000D01*
X27139D01*
X26466Y-272088D01*
X25839Y-272348D01*
X25827Y-272357D01*
X22150D01*
Y-270719D01*
X14650D01*
D01*
X14650D01*
X14500Y-270569D01*
Y-270400D01*
X-43400D01*
Y-280626D01*
X-43878Y-280771D01*
X-44184Y-280314D01*
X-44911Y-279828D01*
X-45770Y-279657D01*
X-46628Y-279828D01*
X-47356Y-280314D01*
X-47842Y-281042D01*
X-48013Y-281900D01*
X-47842Y-282758D01*
X-47555Y-283188D01*
Y-283955D01*
X-48249D01*
D01*
D01*
X-48249Y-283955D01*
X-48290D01*
Y-283955D01*
X-50081D01*
Y-288404D01*
X-51459D01*
Y-283955D01*
X-53100D01*
Y-270000D01*
X-94300D01*
Y-283955D01*
X-98687D01*
X-98687Y-283955D01*
Y-283955D01*
X-99000Y-283955D01*
X-99021D01*
X-99041D01*
X-99354Y-283955D01*
X-99354Y-283955D01*
Y-283955D01*
X-100832D01*
Y-288404D01*
X-102209D01*
Y-283955D01*
X-103688D01*
X-103688Y-283955D01*
Y-283955D01*
X-104000Y-283955D01*
X-104021D01*
X-104041D01*
X-104354Y-283955D01*
X-104354Y-283955D01*
Y-283955D01*
X-108687D01*
X-108687Y-283955D01*
Y-283955D01*
X-109000Y-283955D01*
X-109021D01*
X-109041D01*
X-109354Y-283955D01*
X-109354Y-283955D01*
Y-283955D01*
X-110832D01*
Y-288404D01*
X-112209D01*
Y-283955D01*
X-113688D01*
X-113688Y-283955D01*
Y-283955D01*
X-114000Y-283955D01*
X-114021D01*
X-114041D01*
X-114354Y-283955D01*
X-114354Y-283955D01*
Y-283955D01*
X-118687D01*
X-118687Y-283955D01*
Y-283955D01*
X-119000Y-283955D01*
X-119021D01*
X-119041D01*
X-119354Y-283955D01*
X-119354Y-283955D01*
Y-283955D01*
X-120832D01*
Y-288404D01*
X-122210D01*
Y-283955D01*
X-123688D01*
X-123688Y-283955D01*
Y-283955D01*
X-124000Y-283955D01*
X-124021D01*
X-124041D01*
X-124354Y-283955D01*
X-124354Y-283955D01*
Y-283955D01*
X-129000D01*
D01*
D01*
X-129000Y-283955D01*
X-129041D01*
Y-283955D01*
X-130832D01*
Y-288404D01*
X-132210D01*
Y-283955D01*
X-133500D01*
Y-270000D01*
X-191800D01*
Y-307295D01*
X-197669D01*
Y-305788D01*
X-205169D01*
Y-307295D01*
X-207569D01*
Y-305788D01*
X-215069D01*
Y-307295D01*
X-217619D01*
Y-305788D01*
X-225119D01*
Y-307295D01*
X-227919D01*
Y-305788D01*
X-235419D01*
Y-313288D01*
X-227919D01*
Y-311781D01*
X-225119D01*
Y-313288D01*
X-217619D01*
Y-311781D01*
X-215069D01*
Y-313288D01*
X-207569D01*
Y-311781D01*
X-205169D01*
Y-313288D01*
X-197669D01*
Y-311781D01*
X-191800D01*
Y-322200D01*
Y-329600D01*
X-90100D01*
Y-355800D01*
Y-360726D01*
X-146522D01*
Y-345500D01*
X-146634Y-344934D01*
X-146955Y-344455D01*
X-147434Y-344134D01*
X-148000Y-344022D01*
X-188500D01*
X-189066Y-344134D01*
X-189545Y-344455D01*
X-189866Y-344934D01*
X-189978Y-345500D01*
Y-360726D01*
X-245841D01*
Y-197978D01*
X-241113D01*
X-240413Y-198525D01*
X-234429Y-202740D01*
X-228244Y-206656D01*
X-221876Y-210264D01*
X-215337Y-213555D01*
X-208646Y-216521D01*
X-201816Y-219155D01*
X-194866Y-221451D01*
X-187811Y-223404D01*
X-180669Y-225008D01*
X-173457Y-226259D01*
X-166192Y-227155D01*
X-158893Y-227693D01*
X-151575Y-227873D01*
X-144257Y-227693D01*
X-136957Y-227155D01*
X-129693Y-226259D01*
X-122480Y-225008D01*
X-115339Y-223404D01*
X-109412Y-221763D01*
X-109160Y-222196D01*
X-118444Y-231480D01*
X-118957Y-232148D01*
X-119279Y-232926D01*
X-119389Y-233762D01*
Y-236845D01*
X-119912D01*
Y-237367D01*
X-122283D01*
Y-236845D01*
X-129783D01*
Y-237367D01*
X-143546D01*
Y-236745D01*
X-151046D01*
Y-237367D01*
X-153579D01*
Y-236745D01*
X-161080D01*
Y-237367D01*
X-163613D01*
Y-236745D01*
X-171113D01*
Y-237367D01*
X-173646D01*
Y-236745D01*
X-181146D01*
Y-237367D01*
X-197969D01*
Y-236827D01*
X-205469D01*
Y-237367D01*
X-208084D01*
Y-236845D01*
X-215584D01*
Y-237367D01*
X-218199D01*
Y-236845D01*
X-225699D01*
Y-237367D01*
X-228315D01*
Y-236845D01*
X-235815D01*
Y-244345D01*
X-228315D01*
Y-243822D01*
X-225699D01*
Y-244345D01*
X-218199D01*
Y-243822D01*
X-215584D01*
Y-244345D01*
X-208084D01*
Y-243822D01*
X-205469D01*
Y-244327D01*
X-197969D01*
Y-243822D01*
X-181146D01*
Y-244245D01*
X-173646D01*
Y-243822D01*
X-171113D01*
Y-244245D01*
X-163613D01*
Y-243822D01*
X-161080D01*
Y-244245D01*
X-153579D01*
Y-243822D01*
X-151046D01*
Y-244245D01*
X-143546D01*
Y-243822D01*
X-129783D01*
Y-244345D01*
X-122283D01*
Y-243822D01*
X-119912D01*
Y-244345D01*
X-113367D01*
X-113131Y-244786D01*
X-113237Y-244943D01*
X-113349Y-245506D01*
X-119912D01*
Y-253006D01*
X-118306D01*
Y-258364D01*
X-118687D01*
X-118687Y-258364D01*
Y-258364D01*
X-119000Y-258364D01*
X-119021D01*
X-119041D01*
X-119129D01*
X-119446Y-257978D01*
X-119278Y-257129D01*
X-119448Y-256270D01*
X-119934Y-255542D01*
X-120662Y-255056D01*
X-121521Y-254886D01*
X-122379Y-255056D01*
X-123107Y-255542D01*
X-123593Y-256270D01*
X-123764Y-257129D01*
X-123595Y-257978D01*
X-123912Y-258364D01*
X-124000D01*
X-124021D01*
X-124041D01*
X-124354Y-258364D01*
X-124354Y-258364D01*
Y-258364D01*
X-124735D01*
Y-253006D01*
X-122283D01*
Y-245506D01*
X-129783D01*
Y-253006D01*
X-128306D01*
Y-258364D01*
X-128688D01*
X-128688Y-258364D01*
Y-258364D01*
X-129000Y-258364D01*
X-129021D01*
X-129041D01*
X-129129D01*
X-129446Y-257978D01*
X-129278Y-257129D01*
X-129448Y-256270D01*
X-129934Y-255542D01*
X-130662Y-255056D01*
X-131521Y-254886D01*
X-132379Y-255056D01*
X-133107Y-255542D01*
X-133593Y-256270D01*
X-133764Y-257129D01*
X-133595Y-257978D01*
X-133912Y-258364D01*
X-134000D01*
Y-267260D01*
X-129041D01*
Y-267260D01*
X-129000D01*
X-128688Y-267260D01*
X-128688Y-267260D01*
Y-267260D01*
X-124041D01*
Y-267260D01*
X-124000D01*
X-123688Y-267260D01*
X-123688Y-267260D01*
Y-267260D01*
X-119041D01*
Y-267260D01*
X-119000D01*
X-118687Y-267260D01*
X-118687Y-267260D01*
Y-267260D01*
X-114041D01*
X-114041Y-267260D01*
Y-267260D01*
X-114041D01*
X-114000D01*
X-113688Y-267260D01*
X-113688Y-267260D01*
Y-267260D01*
X-113595D01*
X-113359Y-267701D01*
X-113593Y-268051D01*
X-113764Y-268909D01*
X-113593Y-269768D01*
X-113107Y-270496D01*
X-112379Y-270982D01*
X-111521Y-271152D01*
X-110662Y-270982D01*
X-109934Y-270496D01*
X-109448Y-269768D01*
X-109277Y-268909D01*
X-109448Y-268051D01*
X-109735Y-267622D01*
Y-267260D01*
X-109041D01*
Y-267260D01*
X-109000D01*
X-108687Y-267260D01*
X-108687Y-267260D01*
Y-267260D01*
X-104041D01*
X-104041Y-267260D01*
Y-267260D01*
X-104041D01*
X-104000D01*
X-103688Y-267260D01*
X-103688Y-267260D01*
Y-267260D01*
X-103595D01*
X-103359Y-267701D01*
X-103593Y-268051D01*
X-103764Y-268909D01*
X-103593Y-269768D01*
X-103107Y-270496D01*
X-102379Y-270982D01*
X-101521Y-271152D01*
X-100662Y-270982D01*
X-99935Y-270496D01*
X-99448Y-269768D01*
X-99278Y-268909D01*
X-99448Y-268051D01*
X-99735Y-267622D01*
Y-267260D01*
X-99041D01*
Y-267260D01*
X-99000D01*
X-98687Y-267260D01*
X-98687Y-267260D01*
Y-267260D01*
X-94041D01*
Y-258364D01*
X-94634D01*
Y-252988D01*
X-92669D01*
Y-245488D01*
X-100169D01*
Y-252988D01*
X-98204D01*
Y-258364D01*
X-98687D01*
X-98687Y-258364D01*
Y-258364D01*
X-99000Y-258364D01*
X-99021D01*
X-99041D01*
X-99354Y-258364D01*
X-99354Y-258364D01*
Y-258364D01*
X-103688D01*
X-103688Y-258364D01*
Y-258364D01*
X-104000Y-258364D01*
X-104021D01*
X-104041D01*
X-104354Y-258364D01*
X-104354Y-258364D01*
Y-258364D01*
X-104735D01*
Y-253006D01*
X-102540D01*
Y-245506D01*
X-107737D01*
X-107928Y-245044D01*
X-107229Y-244345D01*
X-102540D01*
Y-236845D01*
X-110040D01*
Y-241533D01*
X-111950Y-243442D01*
X-112412Y-243251D01*
Y-236845D01*
X-112934D01*
Y-235099D01*
X-104218Y-226382D01*
X-103705Y-225714D01*
X-103382Y-224935D01*
X-103272Y-224100D01*
X-103382Y-223265D01*
X-103705Y-222486D01*
X-104218Y-221818D01*
X-104886Y-221305D01*
X-105665Y-220982D01*
X-106500Y-220872D01*
X-106500Y-220872D01*
X-106502Y-220863D01*
X-101334Y-219155D01*
X-94504Y-216521D01*
X-90165Y-214597D01*
X-89882Y-215010D01*
X-96917Y-222045D01*
X-97105Y-222070D01*
X-97762Y-222342D01*
X-98326Y-222774D01*
X-98759Y-223338D01*
X-99031Y-223995D01*
X-99123Y-224700D01*
X-99031Y-225405D01*
X-98759Y-226062D01*
X-98662Y-226187D01*
Y-236827D01*
X-100169D01*
Y-244327D01*
X-92669D01*
Y-236827D01*
X-94176D01*
Y-226237D01*
X-94042Y-226062D01*
X-93770Y-225405D01*
X-93745Y-225217D01*
X-89857Y-221329D01*
X-89416Y-221565D01*
X-89443Y-221700D01*
X-89272Y-222558D01*
X-88986Y-222988D01*
Y-257363D01*
X-89372Y-257942D01*
X-89543Y-258800D01*
X-89372Y-259658D01*
X-88886Y-260386D01*
X-88158Y-260872D01*
X-87300Y-261043D01*
X-86872Y-260958D01*
X-86485Y-261275D01*
Y-261563D01*
X-86872Y-262142D01*
X-87043Y-263000D01*
X-86872Y-263858D01*
X-86386Y-264586D01*
X-85658Y-265072D01*
X-84800Y-265243D01*
X-83942Y-265072D01*
X-83690Y-264904D01*
X-83249Y-265140D01*
Y-267260D01*
X-78290D01*
X-78290Y-267260D01*
Y-267260D01*
X-78290D01*
X-78249D01*
X-77937Y-267260D01*
X-77937Y-267260D01*
Y-267260D01*
X-73290D01*
Y-267260D01*
X-73249D01*
X-72937Y-267260D01*
X-72937Y-267260D01*
Y-267260D01*
X-68290D01*
Y-267260D01*
X-68249D01*
X-67937Y-267260D01*
X-67937Y-267260D01*
Y-267260D01*
X-63290D01*
Y-267260D01*
X-63249D01*
X-62937Y-267260D01*
X-62937Y-267260D01*
Y-267260D01*
X-58290D01*
Y-267260D01*
X-58249D01*
X-57937Y-267260D01*
X-57937Y-267260D01*
Y-267260D01*
X-53290D01*
Y-267260D01*
X-53249D01*
X-52937Y-267260D01*
X-52937Y-267260D01*
Y-267260D01*
X-48290D01*
Y-267260D01*
X-48249D01*
X-47937Y-267260D01*
X-47937Y-267260D01*
Y-267260D01*
X-43290D01*
Y-258364D01*
X-43911D01*
Y-253006D01*
X-41946D01*
Y-252683D01*
X-41456Y-252585D01*
X-41258Y-253062D01*
X-40826Y-253626D01*
X-40262Y-254058D01*
X-39605Y-254330D01*
X-38900Y-254423D01*
X-38195Y-254330D01*
X-37538Y-254058D01*
X-36974Y-253626D01*
X-36542Y-253062D01*
X-36270Y-252405D01*
X-36177Y-251700D01*
X-36270Y-250995D01*
X-36542Y-250338D01*
X-36657Y-250188D01*
Y-242900D01*
X-36657Y-242900D01*
X-36657Y-242900D01*
Y-242900D01*
X-36657D01*
X-36657Y-242900D01*
X-36828Y-242042D01*
X-37314Y-241314D01*
X-39619Y-239009D01*
X-40347Y-238522D01*
X-41205Y-238352D01*
X-41946D01*
Y-236845D01*
X-43453D01*
Y-222304D01*
X-43624Y-221445D01*
X-44110Y-220718D01*
X-50914Y-213914D01*
X-51642Y-213428D01*
X-52500Y-213257D01*
X-86139D01*
X-86254Y-212770D01*
X-81274Y-210264D01*
X-74905Y-206656D01*
X-68721Y-202740D01*
X-62737Y-198525D01*
X-56966Y-194021D01*
X-51423Y-189240D01*
X-46122Y-184193D01*
X-41075Y-178892D01*
X-36294Y-173349D01*
X-31790Y-167578D01*
X-27575Y-161594D01*
X-23659Y-155410D01*
X-20052Y-149041D01*
X-16760Y-142503D01*
X-13794Y-135811D01*
X-11160Y-128981D01*
X-8864Y-122031D01*
X-6911Y-114977D01*
X-5308Y-107835D01*
X-4056Y-100622D01*
X-3160Y-93358D01*
X-2622Y-86058D01*
X-2442Y-78740D01*
X-2459D01*
X-2459Y-78740D01*
Y-4549D01*
X612Y-1478D01*
X119466D01*
X122203Y-4215D01*
D02*
G37*
G36*
X-57900Y-283955D02*
X-57937D01*
X-57937D01*
D01*
X-58249D01*
X-58249D01*
X-58270D01*
X-58290D01*
X-58603Y-283955D01*
X-58603Y-283955D01*
Y-283955D01*
X-60081D01*
Y-288404D01*
Y-292851D01*
X-58290D01*
Y-292851D01*
X-58249D01*
X-58249D01*
X-57937D01*
X-57937D01*
D01*
X-57900D01*
Y-294432D01*
X-58013Y-295000D01*
X-57900Y-295567D01*
Y-297427D01*
X-58969D01*
Y-304927D01*
X-51469D01*
Y-298830D01*
X-48069D01*
Y-304927D01*
X-40569D01*
Y-298830D01*
X-39633D01*
Y-306982D01*
X-40107Y-307456D01*
X-40569Y-307264D01*
Y-306088D01*
X-48069D01*
Y-313588D01*
X-40569D01*
Y-311571D01*
X-40038D01*
X-39375Y-311439D01*
X-38812Y-311064D01*
X-38812Y-311064D01*
X-38812Y-311064D01*
X-36674Y-308926D01*
X-36299Y-308363D01*
X-36167Y-307700D01*
Y-289973D01*
X-35974Y-289826D01*
X-35542Y-289262D01*
X-35269Y-288605D01*
X-35177Y-287900D01*
X-35269Y-287195D01*
X-35542Y-286538D01*
X-35974Y-285974D01*
X-36538Y-285542D01*
X-37195Y-285269D01*
X-37900Y-285177D01*
X-38224Y-285219D01*
X-38600Y-284890D01*
Y-279609D01*
X8500D01*
Y-297427D01*
X8500D01*
X8331D01*
X8146Y-297427D01*
X8146Y-297427D01*
Y-297427D01*
X6767D01*
Y-295688D01*
X7053Y-295258D01*
X7224Y-294400D01*
X7053Y-293542D01*
X6767Y-293112D01*
Y-292851D01*
X7461D01*
Y-283955D01*
X2814D01*
X2814Y-283955D01*
Y-283955D01*
X2502Y-283955D01*
X2481D01*
X2461D01*
X2148Y-283955D01*
X2148Y-283955D01*
Y-283955D01*
X670D01*
Y-288404D01*
Y-292851D01*
X2461D01*
X2461Y-292851D01*
Y-292851D01*
X2461D01*
X2502D01*
X2814Y-292851D01*
X2814Y-292851D01*
Y-292851D01*
X2840D01*
X3076Y-293292D01*
X2909Y-293542D01*
X2738Y-294400D01*
X2909Y-295258D01*
X3196Y-295688D01*
Y-297427D01*
X831D01*
Y-304927D01*
X8146D01*
X8500Y-305280D01*
Y-306088D01*
X8331D01*
Y-306088D01*
X831D01*
Y-307410D01*
X-1569D01*
Y-306088D01*
X-9069D01*
Y-307410D01*
X-11669D01*
Y-306088D01*
X-19169D01*
Y-307410D01*
X-21669D01*
Y-306088D01*
X-29169D01*
Y-307410D01*
X-29738D01*
X-30667Y-307595D01*
X-31455Y-308121D01*
X-39406Y-316072D01*
X-50394D01*
X-52791Y-313675D01*
Y-313588D01*
X-51469D01*
Y-306088D01*
X-58969D01*
Y-307410D01*
X-61369D01*
Y-306088D01*
X-68869D01*
Y-307410D01*
X-72069D01*
Y-306088D01*
X-79569D01*
Y-307410D01*
X-81138D01*
X-82067Y-307595D01*
X-82855Y-308121D01*
X-88606Y-313872D01*
X-91769D01*
Y-313872D01*
Y-313588D01*
X-91769Y-313519D01*
X-91769Y-313519D01*
X-91769D01*
Y-312081D01*
X-91038D01*
X-90180Y-311910D01*
X-89452Y-311424D01*
X-86983Y-308955D01*
X-86795Y-308930D01*
X-86138Y-308658D01*
X-85574Y-308226D01*
X-85141Y-307662D01*
X-84869Y-307005D01*
X-84777Y-306300D01*
X-84869Y-305595D01*
X-85020Y-305232D01*
X-85099Y-304837D01*
X-85474Y-304274D01*
X-86037Y-303899D01*
X-86432Y-303820D01*
X-86795Y-303670D01*
X-87500Y-303577D01*
X-88205Y-303670D01*
X-88862Y-303942D01*
X-89426Y-304374D01*
X-89859Y-304938D01*
X-90131Y-305595D01*
X-90155Y-305783D01*
X-91307Y-306935D01*
X-91769Y-306744D01*
Y-306088D01*
X-99269D01*
Y-307595D01*
X-101769D01*
Y-306088D01*
X-109269D01*
Y-313519D01*
X-109269Y-313519D01*
X-109269D01*
X-109269Y-313588D01*
X-109553Y-313872D01*
X-111869D01*
Y-313588D01*
X-111869D01*
Y-306088D01*
X-119369D01*
Y-306444D01*
X-122769D01*
Y-306088D01*
X-130269D01*
Y-313588D01*
X-128079D01*
X-127918Y-314061D01*
X-128326Y-314374D01*
X-128758Y-314938D01*
X-129031Y-315595D01*
X-129123Y-316300D01*
X-129031Y-317005D01*
X-128758Y-317662D01*
X-128326Y-318226D01*
X-127762Y-318658D01*
X-127105Y-318931D01*
X-126400Y-319023D01*
X-125695Y-318931D01*
X-125206Y-318728D01*
X-87600D01*
X-86671Y-318543D01*
X-85883Y-318017D01*
X-85883Y-318017D01*
X-85883Y-318017D01*
X-80132Y-312266D01*
X-79569D01*
Y-313588D01*
X-72069D01*
Y-312266D01*
X-68869D01*
Y-313588D01*
X-61369D01*
Y-312266D01*
X-58969D01*
Y-313588D01*
X-57647D01*
Y-314681D01*
X-57647Y-314681D01*
X-57647D01*
X-57462Y-315610D01*
X-56936Y-316398D01*
X-53117Y-320217D01*
X-53117D01*
X-53117Y-320217D01*
X-53117Y-320217D01*
Y-320217D01*
X-52329Y-320743D01*
X-51400Y-320928D01*
X-38400D01*
X-37471Y-320743D01*
X-36683Y-320217D01*
X-35392Y-318926D01*
X-34895Y-318975D01*
X-34486Y-319586D01*
X-33758Y-320072D01*
X-32900Y-320243D01*
X-32042Y-320072D01*
X-31314Y-319586D01*
X-30828Y-318858D01*
X-30657Y-318000D01*
X-30828Y-317142D01*
X-31314Y-316414D01*
X-32042Y-315928D01*
X-32124Y-315657D01*
X-29631Y-313164D01*
X-29169Y-313356D01*
Y-313588D01*
X-21669D01*
Y-312266D01*
X-19169D01*
Y-313588D01*
X-11669D01*
Y-312266D01*
X-9069D01*
Y-313588D01*
X-1569D01*
Y-312266D01*
X831D01*
Y-313588D01*
X8331D01*
Y-312336D01*
X11613D01*
X11933Y-312469D01*
X12638Y-312561D01*
X13343Y-312469D01*
X14000Y-312196D01*
X14564Y-311764D01*
X14997Y-311200D01*
X15269Y-310543D01*
X15361Y-309838D01*
X15269Y-309133D01*
X14997Y-308476D01*
X14992Y-308470D01*
X15213Y-308022D01*
X85458D01*
Y-360726D01*
X-82700D01*
Y-344741D01*
X-82259Y-344505D01*
X-82158Y-344572D01*
X-81300Y-344743D01*
X-80442Y-344572D01*
X-79714Y-344086D01*
X-79228Y-343358D01*
X-79057Y-342500D01*
X-79228Y-341642D01*
X-79714Y-340914D01*
X-80442Y-340428D01*
X-81300Y-340257D01*
X-82158Y-340428D01*
X-82259Y-340495D01*
X-82700Y-340259D01*
Y-329344D01*
X-82259Y-329108D01*
X-82139Y-329188D01*
X-81281Y-329359D01*
X-80423Y-329188D01*
X-79695Y-328702D01*
X-79209Y-327974D01*
X-79038Y-327116D01*
X-79209Y-326257D01*
X-79695Y-325529D01*
X-80423Y-325043D01*
X-81281Y-324872D01*
X-82139Y-325043D01*
X-82259Y-325123D01*
X-82700Y-324887D01*
Y-323185D01*
Y-323116D01*
X-185300D01*
Y-311781D01*
X-181069D01*
Y-313788D01*
X-173569D01*
Y-312466D01*
X-171036D01*
Y-313788D01*
X-163536D01*
Y-312466D01*
X-161002D01*
Y-313788D01*
X-153502D01*
Y-312466D01*
X-150969D01*
Y-313788D01*
X-143469D01*
Y-312745D01*
X-143053Y-312467D01*
X-142567Y-312668D01*
X-141862Y-312761D01*
X-141157Y-312668D01*
X-140500Y-312397D01*
X-139936Y-311964D01*
X-139504Y-311400D01*
X-139232Y-310743D01*
X-139139Y-310038D01*
X-139232Y-309333D01*
X-139504Y-308676D01*
X-139936Y-308112D01*
X-140500Y-307680D01*
X-141157Y-307407D01*
X-141862Y-307315D01*
X-142567Y-307407D01*
X-143053Y-307609D01*
X-143469Y-307331D01*
Y-306288D01*
X-150969D01*
Y-307610D01*
X-153502D01*
Y-306288D01*
X-161002D01*
Y-307610D01*
X-163536D01*
Y-306288D01*
X-171036D01*
Y-307610D01*
X-173569D01*
Y-306288D01*
X-181069D01*
Y-307295D01*
X-185300D01*
Y-277500D01*
X-140600D01*
Y-286379D01*
Y-301806D01*
X-130269D01*
Y-304927D01*
X-122769D01*
Y-301806D01*
X-119369D01*
Y-304927D01*
X-111869D01*
Y-301806D01*
X-109269D01*
Y-304927D01*
X-101769D01*
Y-301806D01*
X-99269D01*
Y-304927D01*
X-91769D01*
Y-301806D01*
X-89600D01*
Y-282938D01*
Y-277500D01*
X-57900D01*
Y-283955D01*
D02*
G37*
%LPC*%
G36*
X22150Y-283820D02*
X19089D01*
Y-286881D01*
X22150D01*
Y-283820D01*
D02*
G37*
G36*
X-81459Y-283955D02*
X-83249D01*
Y-287714D01*
X-81459D01*
Y-283955D01*
D02*
G37*
G36*
X-30708D02*
X-32498D01*
Y-287714D01*
X-30708D01*
Y-283955D01*
D02*
G37*
G36*
X-174438Y-283955D02*
Y-283955D01*
X-174751Y-283955D01*
X-174771D01*
X-174792D01*
X-175104Y-283955D01*
X-175104Y-283955D01*
Y-283955D01*
X-179438D01*
X-179438Y-283955D01*
Y-283955D01*
X-179751Y-283955D01*
X-179771D01*
X-179792D01*
X-180104Y-283955D01*
X-180104Y-283955D01*
Y-283955D01*
X-181582D01*
Y-288404D01*
Y-292851D01*
X-179792D01*
X-179792Y-292851D01*
Y-292851D01*
X-179792D01*
X-179751D01*
X-179438Y-292851D01*
X-179438Y-292851D01*
Y-292851D01*
X-179005D01*
Y-293334D01*
X-179344Y-293842D01*
X-179514Y-294700D01*
X-179344Y-295558D01*
X-179005Y-296066D01*
Y-297627D01*
X-181069D01*
Y-305127D01*
X-173569D01*
Y-297627D01*
X-175538D01*
Y-296066D01*
X-175199Y-295558D01*
X-175028Y-294700D01*
X-175199Y-293842D01*
X-175538Y-293334D01*
Y-292851D01*
X-174792D01*
Y-292851D01*
X-174751D01*
X-174438Y-292851D01*
X-174438Y-292851D01*
Y-292851D01*
X-172960D01*
Y-288404D01*
Y-283955D01*
X-174438D01*
X-174438Y-283955D01*
D02*
G37*
G36*
X-164438D02*
Y-283955D01*
X-164751Y-283955D01*
X-164771D01*
X-164792D01*
X-165104Y-283955D01*
X-165104Y-283955D01*
Y-283955D01*
X-169438D01*
X-169438Y-283955D01*
Y-283955D01*
X-169751Y-283955D01*
X-169771D01*
X-169792D01*
X-170104Y-283955D01*
X-170104Y-283955D01*
Y-283955D01*
X-171582D01*
Y-288404D01*
Y-292851D01*
X-169792D01*
X-169792Y-292851D01*
Y-292851D01*
X-169792D01*
X-169751D01*
X-169479Y-292851D01*
X-169244Y-293292D01*
X-169344Y-293442D01*
X-169514Y-294300D01*
X-169344Y-295158D01*
X-169005Y-295666D01*
Y-297627D01*
X-171036D01*
Y-305127D01*
X-163536D01*
Y-297627D01*
X-165538D01*
Y-295666D01*
X-165199Y-295158D01*
X-165028Y-294300D01*
X-165199Y-293442D01*
X-165538Y-292934D01*
Y-292851D01*
X-164792D01*
Y-292851D01*
X-164751D01*
X-164438Y-292851D01*
X-164438Y-292851D01*
Y-292851D01*
X-162960D01*
Y-288404D01*
Y-283955D01*
X-164438D01*
X-164438Y-283955D01*
D02*
G37*
G36*
X-209239Y-283955D02*
Y-283955D01*
X-213886D01*
X-213886Y-283955D01*
Y-283955D01*
X-214198Y-283955D01*
X-214219D01*
X-214239D01*
X-214552Y-283955D01*
X-214552Y-283955D01*
Y-283955D01*
X-218886D01*
X-218886Y-283955D01*
Y-283955D01*
X-219198Y-283955D01*
X-219219D01*
X-219239D01*
X-219552Y-283955D01*
X-219552Y-283955D01*
Y-283955D01*
X-223886D01*
X-223886Y-283955D01*
Y-283955D01*
X-224199Y-283955D01*
X-224219D01*
X-224239D01*
X-224552Y-283955D01*
X-224552Y-283955D01*
Y-283955D01*
X-228886D01*
X-228886Y-283955D01*
Y-283955D01*
X-229199Y-283955D01*
X-229219D01*
X-229239D01*
X-229552Y-283955D01*
X-229552Y-283955D01*
Y-283955D01*
X-234198D01*
Y-292851D01*
X-233452D01*
Y-297127D01*
X-235419D01*
Y-304627D01*
X-227919D01*
Y-297665D01*
X-227645Y-297255D01*
X-227533Y-297162D01*
X-226719Y-297324D01*
X-225861Y-297153D01*
X-225560Y-296953D01*
X-225119Y-297188D01*
X-225119Y-297322D01*
D01*
Y-304627D01*
X-217619D01*
Y-297539D01*
X-217232Y-297222D01*
X-216719Y-297324D01*
X-215861Y-297153D01*
X-215510Y-296919D01*
X-215069Y-297155D01*
X-215069Y-297289D01*
D01*
Y-304627D01*
X-207569D01*
Y-297549D01*
X-207183Y-297232D01*
X-206719Y-297324D01*
X-205861Y-297153D01*
X-205610Y-296986D01*
X-205444Y-297075D01*
Y-297075D01*
X-205169Y-297222D01*
X-205169Y-297356D01*
D01*
Y-304627D01*
X-197669D01*
Y-297529D01*
X-197283Y-297212D01*
X-196719Y-297324D01*
X-195861Y-297153D01*
X-195133Y-296667D01*
X-194647Y-295939D01*
X-194476Y-295081D01*
X-194647Y-294223D01*
X-194933Y-293793D01*
Y-292851D01*
X-194239D01*
Y-283955D01*
X-198886D01*
X-198886Y-283955D01*
Y-283955D01*
X-199198Y-283955D01*
X-199219D01*
X-199239D01*
X-199552Y-283955D01*
X-199552Y-283955D01*
Y-283955D01*
X-203886D01*
X-203886Y-283955D01*
Y-283955D01*
X-204199Y-283955D01*
X-204219D01*
X-204239D01*
X-204552Y-283955D01*
X-204552Y-283955D01*
Y-283955D01*
X-209198D01*
D01*
D01*
X-209198Y-283955D01*
X-209239D01*
D02*
G37*
G36*
X-149438Y-283955D02*
Y-283955D01*
X-149751Y-283955D01*
X-149771D01*
X-149792D01*
X-150104Y-283955D01*
X-150104Y-283955D01*
Y-283955D01*
X-151582D01*
Y-288404D01*
Y-292851D01*
X-149792D01*
X-149792Y-292851D01*
Y-292851D01*
X-149792D01*
X-149751D01*
X-149479Y-292851D01*
X-149243Y-293292D01*
X-149344Y-293442D01*
X-149514Y-294300D01*
X-149344Y-295158D01*
X-149057Y-295588D01*
Y-297627D01*
X-150969D01*
Y-305127D01*
X-143469D01*
Y-297627D01*
X-145486D01*
Y-295588D01*
X-145199Y-295158D01*
X-145028Y-294300D01*
X-145199Y-293442D01*
X-145486Y-293012D01*
Y-292851D01*
X-144792D01*
Y-283955D01*
X-149438D01*
X-149438Y-283955D01*
D02*
G37*
G36*
X-182960Y-283955D02*
X-184751D01*
Y-287714D01*
X-182960D01*
Y-283955D01*
D02*
G37*
G36*
X-56500Y-319657D02*
X-57358Y-319828D01*
X-58086Y-320314D01*
X-58572Y-321042D01*
X-58743Y-321900D01*
X-58572Y-322758D01*
X-58086Y-323486D01*
X-57358Y-323972D01*
X-56500Y-324143D01*
X-55642Y-323972D01*
X-54914Y-323486D01*
X-54428Y-322758D01*
X-54257Y-321900D01*
X-54428Y-321042D01*
X-54914Y-320314D01*
X-55642Y-319828D01*
X-56500Y-319657D01*
D02*
G37*
G36*
X-56300Y-324903D02*
X-57158Y-325073D01*
X-57886Y-325559D01*
X-58372Y-326287D01*
X-58543Y-327146D01*
X-58372Y-328004D01*
X-57886Y-328732D01*
X-57158Y-329218D01*
X-56300Y-329389D01*
X-55442Y-329218D01*
X-54714Y-328732D01*
X-54228Y-328004D01*
X-54057Y-327146D01*
X-54228Y-326287D01*
X-54714Y-325559D01*
X-55442Y-325073D01*
X-56300Y-324903D01*
D02*
G37*
G36*
X-61300D02*
X-62158Y-325073D01*
X-62886Y-325559D01*
X-63372Y-326287D01*
X-63543Y-327146D01*
X-63372Y-328004D01*
X-62886Y-328732D01*
X-62158Y-329218D01*
X-61300Y-329389D01*
X-60442Y-329218D01*
X-59714Y-328732D01*
X-59228Y-328004D01*
X-59057Y-327146D01*
X-59228Y-326287D01*
X-59714Y-325559D01*
X-60442Y-325073D01*
X-61300Y-324903D01*
D02*
G37*
G36*
X-24100Y-315557D02*
X-24958Y-315728D01*
X-25686Y-316214D01*
X-26172Y-316942D01*
X-26343Y-317800D01*
X-26172Y-318658D01*
X-25686Y-319386D01*
X-24958Y-319872D01*
X-24100Y-320043D01*
X-23242Y-319872D01*
X-22514Y-319386D01*
X-22028Y-318658D01*
X-21857Y-317800D01*
X-22028Y-316942D01*
X-22514Y-316214D01*
X-23242Y-315728D01*
X-24100Y-315557D01*
D02*
G37*
G36*
X-30708Y-289092D02*
X-32498D01*
Y-292851D01*
X-30708D01*
Y-289092D01*
D02*
G37*
G36*
X-81459D02*
X-83249D01*
Y-292851D01*
X-81459D01*
Y-289092D01*
D02*
G37*
G36*
X-182960D02*
X-184751D01*
Y-292851D01*
X-182960D01*
Y-289092D01*
D02*
G37*
G36*
X-154438Y-283955D02*
Y-283955D01*
X-154751Y-283955D01*
X-154771D01*
X-154792D01*
X-155104Y-283955D01*
X-155104Y-283955D01*
Y-283955D01*
X-159438D01*
X-159438Y-283955D01*
Y-283955D01*
X-159751Y-283955D01*
X-159771D01*
X-159792D01*
X-160104Y-283955D01*
X-160104Y-283955D01*
Y-283955D01*
X-161582D01*
Y-288404D01*
Y-292851D01*
X-159792D01*
X-159792Y-292851D01*
Y-292851D01*
X-159792D01*
X-159751D01*
X-159553D01*
X-159344Y-293242D01*
X-159514Y-294100D01*
X-159344Y-294958D01*
X-159057Y-295388D01*
Y-297627D01*
X-161002D01*
Y-305127D01*
X-153502D01*
Y-297627D01*
X-155486D01*
Y-295388D01*
X-155199Y-294958D01*
X-155028Y-294100D01*
X-155199Y-293242D01*
X-154990Y-292851D01*
X-154792D01*
Y-292851D01*
X-154751D01*
X-154438Y-292851D01*
X-154438Y-292851D01*
Y-292851D01*
X-152960D01*
Y-288404D01*
Y-283955D01*
X-154438D01*
X-154438Y-283955D01*
D02*
G37*
G36*
X69461Y-272000D02*
X67296D01*
Y-273911D01*
X71966D01*
X71713Y-273300D01*
X71300Y-272761D01*
X70762Y-272348D01*
X70134Y-272088D01*
X69461Y-272000D01*
D02*
G37*
G36*
X-228315Y-245506D02*
X-235815D01*
Y-253006D01*
X-233504D01*
Y-254012D01*
X-233791Y-254442D01*
X-233962Y-255300D01*
X-233791Y-256158D01*
X-233504Y-256588D01*
Y-258364D01*
X-234198D01*
Y-267260D01*
X-229239D01*
Y-267260D01*
X-229199D01*
X-228886Y-267260D01*
X-228886Y-267260D01*
Y-267260D01*
X-227408D01*
Y-262813D01*
Y-258364D01*
X-228886D01*
X-228886Y-258364D01*
Y-258364D01*
X-229199Y-258364D01*
X-229219D01*
X-229239D01*
X-229552Y-258364D01*
X-229552Y-258364D01*
Y-258364D01*
X-229934D01*
Y-256588D01*
X-229647Y-256158D01*
X-229476Y-255300D01*
X-229647Y-254442D01*
X-229934Y-254012D01*
Y-253006D01*
X-228315D01*
Y-245506D01*
D02*
G37*
G36*
X71966Y-275289D02*
X61248D01*
X61501Y-275900D01*
X61914Y-276439D01*
X62450Y-276850D01*
Y-277350D01*
X61914Y-277761D01*
X61873Y-277815D01*
X60288D01*
X59858Y-277528D01*
X59000Y-277357D01*
X58142Y-277528D01*
X57414Y-278014D01*
X56928Y-278742D01*
X56757Y-279600D01*
X56928Y-280458D01*
X57414Y-281186D01*
X58142Y-281672D01*
X59000Y-281843D01*
X59858Y-281672D01*
X60288Y-281385D01*
X61873D01*
X61914Y-281439D01*
X62453Y-281852D01*
X63080Y-282112D01*
X63753Y-282200D01*
X69461D01*
X70134Y-282112D01*
X70762Y-281852D01*
X71300Y-281439D01*
X71713Y-280900D01*
X71973Y-280273D01*
X72062Y-279600D01*
X71973Y-278927D01*
X71713Y-278300D01*
X71300Y-277761D01*
X70762Y-277348D01*
Y-276852D01*
X71300Y-276439D01*
X71713Y-275900D01*
X71966Y-275289D01*
D02*
G37*
G36*
X65918Y-272000D02*
X63753D01*
X63080Y-272088D01*
X62453Y-272348D01*
X61914Y-272761D01*
X61501Y-273300D01*
X61248Y-273911D01*
X65918D01*
Y-272000D01*
D02*
G37*
G36*
X-218199Y-245506D02*
X-225699D01*
Y-253006D01*
X-223504D01*
Y-254212D01*
X-223791Y-254642D01*
X-223962Y-255500D01*
X-223791Y-256358D01*
X-223504Y-256788D01*
Y-258364D01*
X-223886D01*
X-223886Y-258364D01*
Y-258364D01*
X-224199Y-258364D01*
X-224219D01*
X-224239D01*
X-224552Y-258364D01*
X-224552Y-258364D01*
Y-258364D01*
X-226030D01*
Y-262813D01*
Y-267260D01*
X-224239D01*
Y-267260D01*
X-224199D01*
X-223886Y-267260D01*
X-223886Y-267260D01*
Y-267260D01*
X-219239D01*
Y-267260D01*
X-219198D01*
X-218886Y-267260D01*
X-218886Y-267260D01*
Y-267260D01*
X-217408D01*
Y-262813D01*
Y-258364D01*
X-218886D01*
X-218886Y-258364D01*
Y-258364D01*
X-219198Y-258364D01*
X-219219D01*
X-219239D01*
X-219552Y-258364D01*
X-219552Y-258364D01*
Y-258364D01*
X-219934D01*
Y-256788D01*
X-219647Y-256358D01*
X-219476Y-255500D01*
X-219647Y-254642D01*
X-219934Y-254212D01*
Y-253006D01*
X-218199D01*
Y-245506D01*
D02*
G37*
G36*
X-208084D02*
X-215584D01*
Y-253006D01*
X-213504D01*
Y-254412D01*
X-213791Y-254842D01*
X-213962Y-255700D01*
X-213791Y-256558D01*
X-213504Y-256988D01*
Y-258364D01*
X-213886D01*
X-213886Y-258364D01*
Y-258364D01*
X-214198Y-258364D01*
X-214219D01*
X-214239D01*
X-214552Y-258364D01*
X-214552Y-258364D01*
Y-258364D01*
X-216030D01*
Y-262813D01*
Y-267260D01*
X-214239D01*
Y-267260D01*
X-214198D01*
X-213886Y-267260D01*
X-213886Y-267260D01*
Y-267260D01*
X-209239D01*
Y-267260D01*
X-209198D01*
X-208886Y-267260D01*
X-208886Y-267260D01*
Y-267260D01*
X-207408D01*
Y-262813D01*
Y-258364D01*
X-208886D01*
X-208886Y-258364D01*
Y-258364D01*
X-209198Y-258364D01*
X-209219D01*
X-209239D01*
X-209552Y-258364D01*
X-209552Y-258364D01*
Y-258364D01*
X-209933D01*
Y-256988D01*
X-209647Y-256558D01*
X-209476Y-255700D01*
X-209647Y-254842D01*
X-209933Y-254412D01*
Y-253006D01*
X-208084D01*
Y-245506D01*
D02*
G37*
G36*
X-194239Y-263501D02*
X-196030D01*
Y-267260D01*
X-194239D01*
Y-263501D01*
D02*
G37*
G36*
Y-258364D02*
X-196030D01*
Y-262123D01*
X-194239D01*
Y-258364D01*
D02*
G37*
G36*
X-22186Y-283955D02*
Y-283955D01*
X-22499Y-283955D01*
X-22519D01*
X-22539D01*
X-22852Y-283955D01*
X-22852Y-283955D01*
Y-283955D01*
X-27186D01*
X-27186Y-283955D01*
Y-283955D01*
X-27498Y-283955D01*
X-27519D01*
X-27540D01*
X-27852Y-283955D01*
X-27852Y-283955D01*
Y-283955D01*
X-29330D01*
Y-288404D01*
Y-292851D01*
X-27540D01*
X-27540Y-292851D01*
Y-292851D01*
X-27540D01*
X-27498D01*
X-27186Y-292851D01*
X-27186Y-292851D01*
Y-292851D01*
X-26805D01*
Y-293412D01*
X-27091Y-293842D01*
X-27262Y-294700D01*
X-27091Y-295558D01*
X-26805Y-295988D01*
Y-297427D01*
X-29169D01*
Y-304927D01*
X-21669D01*
Y-297427D01*
X-23234D01*
Y-295988D01*
X-22947Y-295558D01*
X-22776Y-294700D01*
X-22947Y-293842D01*
X-23234Y-293412D01*
Y-292851D01*
X-22539D01*
Y-292851D01*
X-22499D01*
X-22186Y-292851D01*
X-22186Y-292851D01*
Y-292851D01*
X-20708D01*
Y-288404D01*
Y-283955D01*
X-22186D01*
X-22186Y-283955D01*
D02*
G37*
G36*
X-12186D02*
Y-283955D01*
X-12499Y-283955D01*
X-12519D01*
X-12539D01*
X-12852Y-283955D01*
X-12852Y-283955D01*
Y-283955D01*
X-17186D01*
X-17186Y-283955D01*
Y-283955D01*
X-17499Y-283955D01*
X-17519D01*
X-17539D01*
X-17852Y-283955D01*
X-17852Y-283955D01*
Y-283955D01*
X-19330D01*
Y-288404D01*
Y-292851D01*
X-17539D01*
X-17539Y-292851D01*
Y-292851D01*
X-17539D01*
X-17499D01*
X-17186Y-292851D01*
X-17186Y-292851D01*
Y-292851D01*
X-16804D01*
Y-293612D01*
X-17091Y-294042D01*
X-17262Y-294900D01*
X-17091Y-295758D01*
X-16804Y-296188D01*
Y-297427D01*
X-19169D01*
Y-304927D01*
X-11669D01*
Y-297427D01*
X-13234D01*
Y-296188D01*
X-12947Y-295758D01*
X-12776Y-294900D01*
X-12947Y-294042D01*
X-13234Y-293612D01*
Y-292851D01*
X-12539D01*
Y-292851D01*
X-12499D01*
X-12186Y-292851D01*
X-12186Y-292851D01*
Y-292851D01*
X-10708D01*
Y-288404D01*
Y-283955D01*
X-12186D01*
X-12186Y-283955D01*
D02*
G37*
G36*
X-72937D02*
Y-283955D01*
X-73249Y-283955D01*
X-73270D01*
X-73290D01*
X-73603Y-283955D01*
X-73603Y-283955D01*
Y-283955D01*
X-77937D01*
X-77937Y-283955D01*
Y-283955D01*
X-78249Y-283955D01*
X-78270D01*
X-78290D01*
X-78603Y-283955D01*
X-78603Y-283955D01*
Y-283955D01*
X-80081D01*
Y-288404D01*
Y-292851D01*
X-78290D01*
X-78290Y-292851D01*
Y-292851D01*
X-78290D01*
X-78249D01*
X-77937Y-292851D01*
X-77937Y-292851D01*
Y-292851D01*
X-77555D01*
Y-293812D01*
X-77842Y-294242D01*
X-78013Y-295100D01*
X-77842Y-295958D01*
X-77555Y-296388D01*
Y-297427D01*
X-79569D01*
Y-304927D01*
X-72069D01*
Y-297427D01*
X-73984D01*
Y-296388D01*
X-73697Y-295958D01*
X-73527Y-295100D01*
X-73697Y-294242D01*
X-73984Y-293812D01*
Y-292851D01*
X-73290D01*
Y-292851D01*
X-73249D01*
X-72937Y-292851D01*
X-72937Y-292851D01*
Y-292851D01*
X-71459D01*
Y-288404D01*
Y-283955D01*
X-72937D01*
X-72937Y-283955D01*
D02*
G37*
G36*
X-62937D02*
Y-283955D01*
X-63249Y-283955D01*
X-63270D01*
X-63290D01*
X-63603Y-283955D01*
X-63603Y-283955D01*
Y-283955D01*
X-67937D01*
X-67937Y-283955D01*
Y-283955D01*
X-68249Y-283955D01*
X-68270D01*
X-68290D01*
X-68603Y-283955D01*
X-68603Y-283955D01*
Y-283955D01*
X-70081D01*
Y-288404D01*
Y-292851D01*
X-68290D01*
X-68290Y-292851D01*
Y-292851D01*
X-68290D01*
X-68249D01*
X-67937Y-292851D01*
X-67937Y-292851D01*
Y-292851D01*
X-67555D01*
Y-293812D01*
X-67842Y-294242D01*
X-68013Y-295100D01*
X-67842Y-295958D01*
X-67555Y-296388D01*
Y-297427D01*
X-68869D01*
Y-304927D01*
X-61369D01*
Y-297427D01*
X-63984D01*
Y-296388D01*
X-63697Y-295958D01*
X-63527Y-295100D01*
X-63697Y-294242D01*
X-63984Y-293812D01*
Y-292851D01*
X-63290D01*
Y-292851D01*
X-63249D01*
X-62937Y-292851D01*
X-62937Y-292851D01*
Y-292851D01*
X-61459D01*
Y-288404D01*
Y-283955D01*
X-62937D01*
X-62937Y-283955D01*
D02*
G37*
G36*
X29304Y-280289D02*
X24634D01*
X24887Y-280900D01*
X25300Y-281439D01*
X25839Y-281852D01*
X26466Y-282112D01*
X27139Y-282200D01*
X29304D01*
Y-280289D01*
D02*
G37*
G36*
X35352D02*
X30682D01*
Y-282200D01*
X32847D01*
X33520Y-282112D01*
X34147Y-281852D01*
X34686Y-281439D01*
X35099Y-280900D01*
X35352Y-280289D01*
D02*
G37*
G36*
X-2186Y-283955D02*
Y-283955D01*
X-2499Y-283955D01*
X-2519D01*
X-2540D01*
X-2852Y-283955D01*
X-2852Y-283955D01*
Y-283955D01*
X-7186D01*
X-7186Y-283955D01*
Y-283955D01*
X-7498Y-283955D01*
X-7519D01*
X-7540D01*
X-7852Y-283955D01*
X-7852Y-283955D01*
Y-283955D01*
X-9330D01*
Y-288404D01*
Y-292851D01*
X-7540D01*
X-7540Y-292851D01*
Y-292851D01*
X-7540D01*
X-7498D01*
X-7186Y-292851D01*
X-7186Y-292851D01*
Y-292851D01*
X-6752D01*
Y-293734D01*
X-7091Y-294242D01*
X-7262Y-295100D01*
X-7091Y-295958D01*
X-6752Y-296466D01*
Y-297427D01*
X-9069D01*
Y-304927D01*
X-1569D01*
Y-297427D01*
X-3286D01*
Y-296466D01*
X-2947Y-295958D01*
X-2776Y-295100D01*
X-2947Y-294242D01*
X-3286Y-293734D01*
Y-292851D01*
X-2540D01*
Y-292851D01*
X-2499D01*
X-2186Y-292851D01*
X-2186Y-292851D01*
Y-292851D01*
X-708D01*
Y-288404D01*
Y-283955D01*
X-2186D01*
X-2186Y-283955D01*
D02*
G37*
G36*
X22150Y-279381D02*
X19089D01*
Y-282442D01*
X22150D01*
Y-279381D01*
D02*
G37*
G36*
X-36300Y-340257D02*
X-37158Y-340428D01*
X-37886Y-340914D01*
X-38372Y-341642D01*
X-38543Y-342500D01*
X-38372Y-343358D01*
X-37886Y-344086D01*
X-37158Y-344572D01*
X-36300Y-344743D01*
X-35442Y-344572D01*
X-34714Y-344086D01*
X-34228Y-343358D01*
X-34057Y-342500D01*
X-34228Y-341642D01*
X-34714Y-340914D01*
X-35442Y-340428D01*
X-36300Y-340257D01*
D02*
G37*
G36*
X-66300Y-340257D02*
X-67158Y-340428D01*
X-67886Y-340914D01*
X-68372Y-341642D01*
X-68543Y-342500D01*
X-68372Y-343358D01*
X-67886Y-344086D01*
X-67158Y-344572D01*
X-66300Y-344743D01*
X-65442Y-344572D01*
X-64714Y-344086D01*
X-64228Y-343358D01*
X-64057Y-342500D01*
X-64228Y-341642D01*
X-64714Y-340914D01*
X-65442Y-340428D01*
X-66300Y-340257D01*
D02*
G37*
G36*
X-2157Y-343427D02*
X-6211D01*
Y-345906D01*
X-2157D01*
Y-343427D01*
D02*
G37*
G36*
X-61300Y-340257D02*
X-62158Y-340428D01*
X-62886Y-340914D01*
X-63372Y-341642D01*
X-63543Y-342500D01*
X-63372Y-343358D01*
X-62886Y-344086D01*
X-62158Y-344572D01*
X-61300Y-344743D01*
X-60442Y-344572D01*
X-59714Y-344086D01*
X-59228Y-343358D01*
X-59057Y-342500D01*
X-59228Y-341642D01*
X-59714Y-340914D01*
X-60442Y-340428D01*
X-61300Y-340257D01*
D02*
G37*
G36*
X-31300Y-340257D02*
X-32158Y-340428D01*
X-32886Y-340914D01*
X-33372Y-341642D01*
X-33543Y-342500D01*
X-33372Y-343358D01*
X-32886Y-344086D01*
X-32158Y-344572D01*
X-31300Y-344743D01*
X-30442Y-344572D01*
X-29714Y-344086D01*
X-29228Y-343358D01*
X-29057Y-342500D01*
X-29228Y-341642D01*
X-29714Y-340914D01*
X-30442Y-340428D01*
X-31300Y-340257D01*
D02*
G37*
G36*
X-76300Y-340257D02*
X-77158Y-340428D01*
X-77886Y-340914D01*
X-78372Y-341642D01*
X-78543Y-342500D01*
X-78372Y-343358D01*
X-77886Y-344086D01*
X-77158Y-344572D01*
X-76300Y-344743D01*
X-75442Y-344572D01*
X-74714Y-344086D01*
X-74228Y-343358D01*
X-74057Y-342500D01*
X-74228Y-341642D01*
X-74714Y-340914D01*
X-75442Y-340428D01*
X-76300Y-340257D01*
D02*
G37*
G36*
X-56300Y-340257D02*
X-57158Y-340428D01*
X-57886Y-340914D01*
X-58372Y-341642D01*
X-58543Y-342500D01*
X-58372Y-343358D01*
X-57886Y-344086D01*
X-57158Y-344572D01*
X-56300Y-344743D01*
X-55442Y-344572D01*
X-54714Y-344086D01*
X-54228Y-343358D01*
X-54057Y-342500D01*
X-54228Y-341642D01*
X-54714Y-340914D01*
X-55442Y-340428D01*
X-56300Y-340257D01*
D02*
G37*
G36*
X-41300D02*
X-42158Y-340428D01*
X-42886Y-340914D01*
X-43372Y-341642D01*
X-43543Y-342500D01*
X-43372Y-343358D01*
X-42886Y-344086D01*
X-42158Y-344572D01*
X-41300Y-344743D01*
X-40442Y-344572D01*
X-39714Y-344086D01*
X-39228Y-343358D01*
X-39057Y-342500D01*
X-39228Y-341642D01*
X-39714Y-340914D01*
X-40442Y-340428D01*
X-41300Y-340257D01*
D02*
G37*
G36*
X-7589Y-343427D02*
X-11643D01*
Y-345906D01*
X-7589D01*
Y-343427D01*
D02*
G37*
G36*
X45819Y-350989D02*
X42758D01*
Y-354050D01*
X45819D01*
Y-350989D01*
D02*
G37*
G36*
X-7589Y-347284D02*
X-11643D01*
Y-349764D01*
X-7589D01*
Y-347284D01*
D02*
G37*
G36*
X-100900Y-343177D02*
X-110900D01*
X-111368Y-343270D01*
X-111765Y-343535D01*
X-112030Y-343932D01*
X-112124Y-344400D01*
Y-345376D01*
X-119400D01*
X-119868Y-345470D01*
X-120265Y-345735D01*
X-120530Y-346132D01*
X-120624Y-346600D01*
Y-353700D01*
X-120530Y-354168D01*
X-120265Y-354565D01*
X-119868Y-354830D01*
X-119400Y-354924D01*
X-100800D01*
X-100332Y-354830D01*
X-99935Y-354565D01*
X-99670Y-354168D01*
X-99576Y-353700D01*
Y-346600D01*
X-99670Y-346132D01*
X-99677Y-346122D01*
Y-345698D01*
X-99657Y-345600D01*
X-99677Y-345501D01*
Y-344400D01*
X-99770Y-343932D01*
X-100035Y-343535D01*
X-100432Y-343270D01*
X-100900Y-343177D01*
D02*
G37*
G36*
X41380Y-350989D02*
X38319D01*
Y-354050D01*
X41380D01*
Y-350989D01*
D02*
G37*
G36*
X45819Y-346550D02*
X42758D01*
Y-349611D01*
X45819D01*
Y-346550D01*
D02*
G37*
G36*
X71966Y-335289D02*
X61248D01*
X61501Y-335900D01*
X61914Y-336439D01*
X62450Y-336850D01*
Y-337350D01*
X61914Y-337761D01*
X61501Y-338300D01*
X61241Y-338927D01*
X61153Y-339600D01*
X61241Y-340273D01*
X61501Y-340900D01*
X61914Y-341439D01*
X62453Y-341852D01*
X63080Y-342112D01*
X63753Y-342200D01*
X64179D01*
Y-345199D01*
X64046Y-345521D01*
X61694Y-347872D01*
X54481D01*
Y-346550D01*
X46981D01*
Y-354050D01*
X54481D01*
Y-352728D01*
X62700D01*
X63629Y-352543D01*
X64417Y-352017D01*
X67479Y-348954D01*
X67969Y-348751D01*
X68533Y-348319D01*
X68966Y-347755D01*
X69238Y-347098D01*
X69330Y-346393D01*
X69238Y-345688D01*
X69035Y-345199D01*
Y-342200D01*
X69461D01*
X70134Y-342112D01*
X70762Y-341852D01*
X71300Y-341439D01*
X71713Y-340900D01*
X71973Y-340273D01*
X72062Y-339600D01*
X71973Y-338927D01*
X71713Y-338300D01*
X71300Y-337761D01*
X70762Y-337348D01*
Y-336852D01*
X71300Y-336439D01*
X71713Y-335900D01*
X71966Y-335289D01*
D02*
G37*
G36*
X-2157Y-347284D02*
X-6211D01*
Y-349764D01*
X-2157D01*
Y-347284D01*
D02*
G37*
G36*
X41380Y-346550D02*
X38319D01*
Y-349611D01*
X41380D01*
Y-346550D01*
D02*
G37*
G36*
X65918Y-332000D02*
X63753D01*
X63080Y-332088D01*
X62453Y-332348D01*
X61914Y-332761D01*
X61501Y-333300D01*
X61248Y-333911D01*
X65918D01*
Y-332000D01*
D02*
G37*
G36*
X69461D02*
X67296D01*
Y-333911D01*
X71966D01*
X71713Y-333300D01*
X71300Y-332761D01*
X70762Y-332348D01*
X70134Y-332088D01*
X69461Y-332000D01*
D02*
G37*
G36*
X-115689Y-335136D02*
X-119743D01*
Y-337616D01*
X-115689D01*
Y-335136D01*
D02*
G37*
G36*
X-110257D02*
X-114311D01*
Y-337616D01*
X-110257D01*
Y-335136D01*
D02*
G37*
G36*
X-36300Y-324903D02*
X-37158Y-325073D01*
X-37886Y-325560D01*
X-38372Y-326287D01*
X-38543Y-327146D01*
X-38372Y-328004D01*
X-37886Y-328732D01*
X-37158Y-329218D01*
X-36300Y-329389D01*
X-35442Y-329218D01*
X-34714Y-328732D01*
X-34228Y-328004D01*
X-34057Y-327146D01*
X-34228Y-326287D01*
X-34714Y-325560D01*
X-35442Y-325073D01*
X-36300Y-324903D01*
D02*
G37*
G36*
X-66300Y-324903D02*
X-67158Y-325073D01*
X-67886Y-325559D01*
X-68372Y-326287D01*
X-68543Y-327146D01*
X-68372Y-328004D01*
X-67886Y-328732D01*
X-67158Y-329218D01*
X-66300Y-329389D01*
X-65442Y-329218D01*
X-64714Y-328732D01*
X-64228Y-328004D01*
X-64057Y-327146D01*
X-64228Y-326287D01*
X-64714Y-325559D01*
X-65442Y-325073D01*
X-66300Y-324903D01*
D02*
G37*
G36*
X-76300Y-324903D02*
X-77158Y-325073D01*
X-77886Y-325560D01*
X-78372Y-326287D01*
X-78543Y-327146D01*
X-78372Y-328004D01*
X-77886Y-328732D01*
X-77158Y-329218D01*
X-76300Y-329389D01*
X-75442Y-329218D01*
X-74714Y-328732D01*
X-74228Y-328004D01*
X-74057Y-327146D01*
X-74228Y-326287D01*
X-74714Y-325560D01*
X-75442Y-325073D01*
X-76300Y-324903D01*
D02*
G37*
G36*
X-71300D02*
X-72158Y-325073D01*
X-72886Y-325560D01*
X-73372Y-326287D01*
X-73543Y-327146D01*
X-73372Y-328004D01*
X-72886Y-328732D01*
X-72158Y-329218D01*
X-71300Y-329389D01*
X-70442Y-329218D01*
X-69714Y-328732D01*
X-69228Y-328004D01*
X-69057Y-327146D01*
X-69228Y-326287D01*
X-69714Y-325560D01*
X-70442Y-325073D01*
X-71300Y-324903D01*
D02*
G37*
G36*
X-31300Y-324903D02*
X-32158Y-325073D01*
X-32886Y-325559D01*
X-33372Y-326287D01*
X-33543Y-327146D01*
X-33372Y-328004D01*
X-32886Y-328732D01*
X-32158Y-329218D01*
X-31300Y-329389D01*
X-30442Y-329218D01*
X-30316Y-329134D01*
X-23324D01*
Y-338800D01*
X-23230Y-339268D01*
X-22965Y-339665D01*
X-22568Y-339930D01*
X-22100Y-340023D01*
X-2400D01*
X-1932Y-339930D01*
X-1535Y-339665D01*
X-1270Y-339268D01*
X-1177Y-338800D01*
Y-329134D01*
X25515D01*
X27919Y-331538D01*
X27728Y-332000D01*
X27139D01*
X26466Y-332088D01*
X25839Y-332348D01*
X25300Y-332761D01*
X24887Y-333300D01*
X24627Y-333927D01*
X24538Y-334600D01*
X24627Y-335273D01*
X24887Y-335900D01*
X25300Y-336439D01*
X25836Y-336850D01*
Y-337350D01*
X25300Y-337761D01*
X24887Y-338300D01*
X24634Y-338911D01*
X35352D01*
X35099Y-338300D01*
X34686Y-337761D01*
X34147Y-337348D01*
Y-336852D01*
X34686Y-336439D01*
X35099Y-335900D01*
X35359Y-335273D01*
X35447Y-334600D01*
X35359Y-333927D01*
X35099Y-333300D01*
X34686Y-332761D01*
X34147Y-332348D01*
X33520Y-332088D01*
X32847Y-332000D01*
X31981D01*
Y-330800D01*
X31830Y-330039D01*
X31399Y-329394D01*
X27744Y-325740D01*
X27099Y-325309D01*
X26339Y-325157D01*
X-30316D01*
X-30442Y-325073D01*
X-31300Y-324903D01*
D02*
G37*
G36*
X-46300Y-340257D02*
X-47158Y-340428D01*
X-47886Y-340914D01*
X-48372Y-341642D01*
X-48543Y-342500D01*
X-48372Y-343358D01*
X-47886Y-344086D01*
X-47158Y-344572D01*
X-46300Y-344743D01*
X-45442Y-344572D01*
X-44714Y-344086D01*
X-44228Y-343358D01*
X-44057Y-342500D01*
X-44228Y-341642D01*
X-44714Y-340914D01*
X-45442Y-340428D01*
X-46300Y-340257D01*
D02*
G37*
G36*
X-26300D02*
X-27158Y-340428D01*
X-27886Y-340914D01*
X-28372Y-341642D01*
X-28543Y-342500D01*
X-28372Y-343358D01*
X-27886Y-344086D01*
X-27158Y-344572D01*
X-26300Y-344743D01*
X-25442Y-344572D01*
X-24714Y-344086D01*
X-24228Y-343358D01*
X-24057Y-342500D01*
X-24228Y-341642D01*
X-24714Y-340914D01*
X-25442Y-340428D01*
X-26300Y-340257D01*
D02*
G37*
G36*
X-71300D02*
X-72158Y-340428D01*
X-72886Y-340914D01*
X-73372Y-341642D01*
X-73543Y-342500D01*
X-73372Y-343358D01*
X-72886Y-344086D01*
X-72158Y-344572D01*
X-71300Y-344743D01*
X-70442Y-344572D01*
X-69714Y-344086D01*
X-69228Y-343358D01*
X-69057Y-342500D01*
X-69228Y-341642D01*
X-69714Y-340914D01*
X-70442Y-340428D01*
X-71300Y-340257D01*
D02*
G37*
G36*
X-51300D02*
X-52158Y-340428D01*
X-52886Y-340914D01*
X-53372Y-341642D01*
X-53543Y-342500D01*
X-53372Y-343358D01*
X-52886Y-344086D01*
X-52158Y-344572D01*
X-51300Y-344743D01*
X-50442Y-344572D01*
X-49714Y-344086D01*
X-49228Y-343358D01*
X-49057Y-342500D01*
X-49228Y-341642D01*
X-49714Y-340914D01*
X-50442Y-340428D01*
X-51300Y-340257D01*
D02*
G37*
G36*
X-115689Y-338994D02*
X-119743D01*
Y-341473D01*
X-115689D01*
Y-338994D01*
D02*
G37*
G36*
X-110257D02*
X-114311D01*
Y-341473D01*
X-110257D01*
Y-338994D01*
D02*
G37*
G36*
X29304Y-340289D02*
X24634D01*
X24887Y-340900D01*
X25300Y-341439D01*
X25839Y-341852D01*
X26466Y-342112D01*
X27139Y-342200D01*
X29304D01*
Y-340289D01*
D02*
G37*
G36*
X35352D02*
X30682D01*
Y-342200D01*
X32847D01*
X33520Y-342112D01*
X34147Y-341852D01*
X34686Y-341439D01*
X35099Y-340900D01*
X35352Y-340289D01*
D02*
G37*
G36*
X76111Y-51758D02*
X73050D01*
Y-54819D01*
X76111D01*
Y-51758D01*
D02*
G37*
G36*
X80550D02*
X77489D01*
Y-54819D01*
X80550D01*
Y-51758D01*
D02*
G37*
G36*
X39700Y-95657D02*
X38842Y-95828D01*
X38114Y-96314D01*
X37628Y-97042D01*
X37457Y-97900D01*
X37628Y-98758D01*
X38114Y-99486D01*
X38842Y-99972D01*
X39700Y-100143D01*
X40558Y-99972D01*
X41286Y-99486D01*
X41772Y-98758D01*
X41943Y-97900D01*
X41772Y-97042D01*
X41286Y-96314D01*
X40558Y-95828D01*
X39700Y-95657D01*
D02*
G37*
G36*
X105481Y-18919D02*
X104397Y-19061D01*
X103387Y-19480D01*
X102519Y-20145D01*
X101854Y-21013D01*
X101435Y-22023D01*
X101293Y-23107D01*
X101435Y-24191D01*
X101854Y-25202D01*
X102519Y-26069D01*
X103238Y-26621D01*
Y-34490D01*
X95014Y-42714D01*
X94528Y-43442D01*
X94357Y-44300D01*
Y-47619D01*
X92850D01*
Y-55119D01*
X100350D01*
Y-47619D01*
X98843D01*
Y-45229D01*
X107067Y-37005D01*
X107553Y-36277D01*
X107724Y-35419D01*
X107724Y-35419D01*
X107724Y-35419D01*
Y-35419D01*
Y-26621D01*
X108443Y-26069D01*
X109108Y-25202D01*
X109527Y-24191D01*
X109670Y-23107D01*
X109527Y-22023D01*
X109108Y-21013D01*
X108443Y-20145D01*
X107575Y-19480D01*
X106565Y-19061D01*
X105481Y-18919D01*
D02*
G37*
G36*
X36011Y-50958D02*
X32950D01*
Y-54019D01*
X36011D01*
Y-50958D01*
D02*
G37*
G36*
X40450D02*
X37389D01*
Y-54019D01*
X40450D01*
Y-50958D01*
D02*
G37*
G36*
X86111Y-51758D02*
X83050D01*
Y-54819D01*
X86111D01*
Y-51758D01*
D02*
G37*
G36*
X90550D02*
X87489D01*
Y-54819D01*
X90550D01*
Y-51758D01*
D02*
G37*
G36*
X99850Y-115958D02*
X96789D01*
Y-119019D01*
X99850D01*
Y-115958D01*
D02*
G37*
G36*
X95411Y-111519D02*
X92350D01*
Y-114580D01*
X95411D01*
Y-111519D01*
D02*
G37*
G36*
X99850Y-120181D02*
X92350D01*
Y-121547D01*
X92200Y-121670D01*
X91342Y-121841D01*
X91028Y-122050D01*
X90566Y-121859D01*
X90583Y-121944D01*
X90557Y-122077D01*
X85805D01*
X85804Y-122078D01*
X85555Y-122127D01*
X82813D01*
X82130Y-122263D01*
X81576Y-122633D01*
X81168D01*
X81365Y-122929D01*
X81164Y-123230D01*
X81028Y-123913D01*
X81164Y-124596D01*
X81365Y-124897D01*
X81164Y-125198D01*
X81028Y-125881D01*
X81164Y-126565D01*
X81365Y-126866D01*
X81164Y-127166D01*
X81028Y-127850D01*
X80878Y-128033D01*
X80070D01*
X79972Y-127542D01*
X79486Y-126814D01*
X78758Y-126328D01*
X77900Y-126157D01*
X77042Y-126328D01*
X76314Y-126814D01*
X75828Y-127542D01*
X75657Y-128400D01*
X75828Y-129258D01*
X76314Y-129986D01*
X76314Y-129986D01*
X76214Y-130193D01*
X76214Y-130193D01*
X76214D01*
X75728Y-130921D01*
X75557Y-131780D01*
X75728Y-132638D01*
X76214Y-133366D01*
X76242Y-133384D01*
X76340Y-133875D01*
X76028Y-134342D01*
X75857Y-135200D01*
X76028Y-136058D01*
X76514Y-136786D01*
X77242Y-137272D01*
X77704Y-137364D01*
X77801Y-137855D01*
X77114Y-138314D01*
X76628Y-139042D01*
X76457Y-139900D01*
X76628Y-140758D01*
X77114Y-141486D01*
X77842Y-141972D01*
X78348Y-142073D01*
X78934Y-142659D01*
X78944Y-142711D01*
X78924Y-142913D01*
X78472Y-143126D01*
X78424Y-143094D01*
Y-143502D01*
X78053Y-144056D01*
X77917Y-144740D01*
Y-146956D01*
X77907Y-146971D01*
X77756Y-147732D01*
X77756Y-147733D01*
X77907Y-148493D01*
X77917Y-148508D01*
Y-150724D01*
X78053Y-151407D01*
X78424Y-151961D01*
Y-152370D01*
X78719Y-152172D01*
X79020Y-152373D01*
X79703Y-152509D01*
X80386Y-152373D01*
X80966Y-151986D01*
X81353Y-151407D01*
X81489Y-150724D01*
Y-149788D01*
X85176D01*
X88912Y-153524D01*
Y-163416D01*
X88828Y-163542D01*
X88657Y-164400D01*
X88828Y-165258D01*
X88912Y-165384D01*
Y-168663D01*
X87150D01*
Y-176163D01*
X94650D01*
Y-168663D01*
X92888D01*
Y-165384D01*
X92972Y-165258D01*
X93143Y-164400D01*
X92972Y-163542D01*
X92888Y-163416D01*
Y-152700D01*
X92737Y-151939D01*
X92306Y-151294D01*
X87406Y-146394D01*
X86761Y-145963D01*
X86000Y-145812D01*
X81489D01*
Y-144740D01*
X81353Y-144056D01*
X80966Y-143477D01*
X80984Y-143415D01*
X88798D01*
X89481Y-143279D01*
X90060Y-142892D01*
X90447Y-142313D01*
X90583Y-141629D01*
X90447Y-140946D01*
X90246Y-140645D01*
X90447Y-140344D01*
X90583Y-139661D01*
X90447Y-138978D01*
X90246Y-138677D01*
X90447Y-138376D01*
X90583Y-137692D01*
X90447Y-137009D01*
X90246Y-136708D01*
X90447Y-136407D01*
X90583Y-135724D01*
X90447Y-135041D01*
X90246Y-134740D01*
X90447Y-134439D01*
X90583Y-133755D01*
X90447Y-133072D01*
X90246Y-132771D01*
X90447Y-132470D01*
X90583Y-131787D01*
X90447Y-131104D01*
X90246Y-130803D01*
X90447Y-130502D01*
X90583Y-129818D01*
X90447Y-129135D01*
X90246Y-128834D01*
X90447Y-128533D01*
X90583Y-127850D01*
X90447Y-127166D01*
X90246Y-126866D01*
X90447Y-126565D01*
X90566Y-125967D01*
X91028Y-125776D01*
X91342Y-125985D01*
X92200Y-126156D01*
X92350Y-126279D01*
Y-127681D01*
X99850D01*
Y-125247D01*
X99904Y-125210D01*
X100079Y-125036D01*
X100477Y-124440D01*
X100616Y-123738D01*
X100477Y-123036D01*
X100079Y-122440D01*
X99850Y-122287D01*
Y-120181D01*
D02*
G37*
G36*
X95411Y-115958D02*
X92350D01*
Y-119019D01*
X95411D01*
Y-115958D01*
D02*
G37*
G36*
X52800Y-108157D02*
X51942Y-108328D01*
X51214Y-108814D01*
X50728Y-109542D01*
X50557Y-110400D01*
X50728Y-111258D01*
X51214Y-111986D01*
X51942Y-112472D01*
X52800Y-112643D01*
X53658Y-112472D01*
X54386Y-111986D01*
X54872Y-111258D01*
X55043Y-110400D01*
X54872Y-109542D01*
X54386Y-108814D01*
X53658Y-108328D01*
X52800Y-108157D01*
D02*
G37*
G36*
X37100Y-105457D02*
X36242Y-105628D01*
X35514Y-106114D01*
X35028Y-106842D01*
X34857Y-107700D01*
X35028Y-108558D01*
X35514Y-109286D01*
X36242Y-109772D01*
X37100Y-109943D01*
X37958Y-109772D01*
X38686Y-109286D01*
X39172Y-108558D01*
X39343Y-107700D01*
X39172Y-106842D01*
X38686Y-106114D01*
X37958Y-105628D01*
X37100Y-105457D01*
D02*
G37*
G36*
X99850Y-111519D02*
X96789D01*
Y-114580D01*
X99850D01*
Y-111519D01*
D02*
G37*
G36*
X1500Y-109657D02*
X642Y-109828D01*
X-86Y-110314D01*
X-572Y-111042D01*
X-743Y-111900D01*
X-572Y-112758D01*
X-86Y-113486D01*
X642Y-113972D01*
X1500Y-114143D01*
X2358Y-113972D01*
X3086Y-113486D01*
X3572Y-112758D01*
X3743Y-111900D01*
X3572Y-111042D01*
X3086Y-110314D01*
X2358Y-109828D01*
X1500Y-109657D01*
D02*
G37*
G36*
X47846Y-9489D02*
X46338Y-9638D01*
X44887Y-10078D01*
X43550Y-10793D01*
X42378Y-11755D01*
X41416Y-12926D01*
X40702Y-14263D01*
X40262Y-15714D01*
X40113Y-17223D01*
X40262Y-18732D01*
X40702Y-20182D01*
X41416Y-21519D01*
X42378Y-22691D01*
X43550Y-23653D01*
X44887Y-24367D01*
X46338Y-24807D01*
X47846Y-24956D01*
X47895Y-24951D01*
X47945Y-24956D01*
X49453Y-24807D01*
X50904Y-24367D01*
X52241Y-23653D01*
X53413Y-22691D01*
X54375Y-21519D01*
X55089Y-20182D01*
X55529Y-18732D01*
X55678Y-17223D01*
X55529Y-15714D01*
X55089Y-14263D01*
X54375Y-12926D01*
X53413Y-11755D01*
X52241Y-10793D01*
X50904Y-10078D01*
X49453Y-9638D01*
X47945Y-9489D01*
X47896Y-9494D01*
X47846Y-9489D01*
D02*
G37*
G36*
X84792Y-19009D02*
X84397Y-19061D01*
X83387Y-19480D01*
X82519Y-20145D01*
X81854Y-21013D01*
X81435Y-22023D01*
X81383Y-22418D01*
X84792D01*
Y-19009D01*
D02*
G37*
G36*
X89579Y-23796D02*
X86170D01*
Y-27205D01*
X86565Y-27153D01*
X87575Y-26735D01*
X88443Y-26069D01*
X89108Y-25202D01*
X89527Y-24191D01*
X89579Y-23796D01*
D02*
G37*
G36*
X27531Y-7427D02*
X20031D01*
Y-14927D01*
X27531D01*
Y-13186D01*
X27993Y-12995D01*
X28596Y-13597D01*
Y-23560D01*
X26028Y-26127D01*
X25567Y-25936D01*
Y-23588D01*
X27531D01*
Y-16088D01*
X20031D01*
Y-23588D01*
X21995D01*
Y-30560D01*
X13938Y-38618D01*
X13550Y-39198D01*
X13415Y-39881D01*
Y-93000D01*
X13550Y-93683D01*
X13938Y-94262D01*
X19260Y-99585D01*
X19839Y-99972D01*
X20522Y-100108D01*
X21429D01*
X21579Y-100291D01*
X21715Y-100974D01*
X21916Y-101275D01*
X21715Y-101576D01*
X21579Y-102259D01*
X21715Y-102943D01*
X21916Y-103244D01*
X21715Y-103544D01*
X21579Y-104228D01*
X21715Y-104911D01*
X21916Y-105212D01*
X21715Y-105513D01*
X21579Y-106196D01*
X21715Y-106879D01*
X21916Y-107181D01*
X21715Y-107482D01*
X21579Y-108165D01*
X21715Y-108848D01*
X21916Y-109149D01*
X21715Y-109450D01*
X21579Y-110133D01*
X21715Y-110817D01*
X21916Y-111117D01*
X21715Y-111418D01*
X21579Y-112102D01*
X21470Y-112235D01*
X19631D01*
X18998Y-111602D01*
X18402Y-111204D01*
X18286Y-111181D01*
X17700Y-111065D01*
X15950D01*
Y-109806D01*
X14443D01*
X14252Y-109344D01*
X14840Y-108756D01*
X15258Y-108672D01*
X15986Y-108186D01*
X16472Y-107458D01*
X16643Y-106600D01*
X16472Y-105742D01*
X15986Y-105014D01*
X15258Y-104528D01*
X14400Y-104357D01*
X13542Y-104528D01*
X12814Y-105014D01*
X12328Y-105742D01*
X12244Y-106160D01*
X10902Y-107502D01*
X10504Y-108098D01*
X10481Y-108214D01*
X10365Y-108800D01*
Y-109806D01*
X8450D01*
Y-115955D01*
X3497D01*
X2858Y-115528D01*
X2000Y-115357D01*
X1142Y-115528D01*
X414Y-116014D01*
X-72Y-116742D01*
X-243Y-117600D01*
X-72Y-118458D01*
X414Y-119186D01*
X1142Y-119672D01*
X2000Y-119843D01*
X2858Y-119672D01*
X3078Y-119526D01*
X8450D01*
Y-121528D01*
X15950D01*
Y-121603D01*
X16429Y-121458D01*
X16514Y-121586D01*
X17242Y-122072D01*
X18100Y-122243D01*
X18958Y-122072D01*
X19424Y-121761D01*
X21429D01*
X21579Y-121944D01*
X21715Y-122628D01*
X21916Y-122929D01*
X21715Y-123230D01*
X21579Y-123913D01*
X21715Y-124596D01*
X21916Y-124897D01*
X21715Y-125198D01*
X21579Y-125881D01*
X21715Y-126565D01*
X21916Y-126866D01*
X21715Y-127166D01*
X21579Y-127850D01*
X21715Y-128533D01*
X21916Y-128834D01*
X21715Y-129135D01*
X21579Y-129818D01*
X21715Y-130502D01*
X21916Y-130803D01*
X21715Y-131104D01*
X21579Y-131787D01*
X21715Y-132470D01*
X21916Y-132771D01*
X21715Y-133072D01*
X21579Y-133755D01*
X21715Y-134439D01*
X21916Y-134740D01*
X21715Y-135041D01*
X21579Y-135724D01*
X21715Y-136407D01*
X21916Y-136708D01*
X21715Y-137009D01*
X21579Y-137692D01*
X21715Y-138376D01*
X21916Y-138677D01*
X21715Y-138978D01*
X21579Y-139661D01*
X21715Y-140344D01*
X21916Y-140645D01*
X21715Y-140946D01*
X21579Y-141629D01*
X21715Y-142313D01*
X22102Y-142892D01*
X22681Y-143279D01*
X23365Y-143415D01*
X24883D01*
X25119Y-143856D01*
X24728Y-144442D01*
X24557Y-145300D01*
X24609Y-145560D01*
X24291Y-145946D01*
X18519D01*
X18090Y-145659D01*
X17232Y-145489D01*
X16373Y-145659D01*
X15646Y-146146D01*
X15159Y-146873D01*
X14989Y-147732D01*
X15159Y-148590D01*
X15646Y-149318D01*
X16373Y-149804D01*
X17232Y-149975D01*
X18090Y-149804D01*
X18519Y-149517D01*
X30674D01*
Y-150724D01*
X30809Y-151407D01*
X31196Y-151986D01*
X31776Y-152373D01*
X32459Y-152509D01*
X33142Y-152373D01*
X33443Y-152172D01*
X33744Y-152373D01*
X34427Y-152509D01*
X35111Y-152373D01*
X35412Y-152172D01*
X35713Y-152373D01*
X36396Y-152509D01*
X37079Y-152373D01*
X37380Y-152172D01*
X37681Y-152373D01*
X38085Y-152454D01*
X38240Y-152656D01*
X38330Y-152952D01*
X33974Y-157307D01*
X33542Y-157871D01*
X33270Y-158528D01*
X33177Y-159233D01*
Y-164900D01*
X33177Y-164900D01*
X33177D01*
X33270Y-165605D01*
X33542Y-166262D01*
X33974Y-166826D01*
X35756Y-168608D01*
X35687Y-168776D01*
X35687D01*
X35687Y-168776D01*
Y-169803D01*
X32987D01*
Y-168776D01*
X25487D01*
Y-169803D01*
X20304D01*
Y-165077D01*
X7104D01*
Y-167299D01*
X-4727D01*
X-5562Y-167409D01*
X-6340Y-167731D01*
X-6675Y-167988D01*
X-7009Y-168244D01*
X-26978Y-188214D01*
X-27491Y-188882D01*
X-27814Y-189661D01*
X-27924Y-190496D01*
Y-236845D01*
X-28446D01*
Y-244345D01*
X-20946D01*
Y-243822D01*
X-18554D01*
Y-244345D01*
X-11054D01*
Y-242838D01*
X-8661D01*
Y-244345D01*
X-1161D01*
Y-243822D01*
X1231D01*
Y-244327D01*
X8731D01*
Y-236827D01*
X8209D01*
Y-234081D01*
X8099Y-233246D01*
X7776Y-232467D01*
X7263Y-231799D01*
X6595Y-231286D01*
X5816Y-230963D01*
X4981Y-230853D01*
X4146Y-230963D01*
X3367Y-231286D01*
X2699Y-231799D01*
X2186Y-232467D01*
X1863Y-233246D01*
X1753Y-234081D01*
Y-236827D01*
X1231D01*
Y-237367D01*
X-1161D01*
Y-236845D01*
X-8661D01*
Y-238352D01*
X-11054D01*
Y-236845D01*
X-18554D01*
Y-237367D01*
X-20946D01*
Y-236845D01*
X-21468D01*
Y-191833D01*
X-3390Y-173754D01*
X7104D01*
Y-175977D01*
X20304D01*
Y-175249D01*
X25487D01*
Y-176276D01*
X32987D01*
Y-175249D01*
X35687D01*
Y-176276D01*
X43187D01*
Y-168776D01*
X42160D01*
Y-168437D01*
X42067Y-167732D01*
X41795Y-167075D01*
X41362Y-166511D01*
X38623Y-163772D01*
Y-160361D01*
X42259Y-156726D01*
X42691Y-156162D01*
X42963Y-155505D01*
X43056Y-154800D01*
X42963Y-154095D01*
X42691Y-153438D01*
X42259Y-152874D01*
X42301Y-152509D01*
X42169Y-152483D01*
Y-147733D01*
Y-147732D01*
X42168Y-147731D01*
X42119Y-147481D01*
Y-144740D01*
X41983Y-144056D01*
X41612Y-143502D01*
Y-143094D01*
X41317Y-143291D01*
X41016Y-143090D01*
X40333Y-142954D01*
X39650Y-143090D01*
X39349Y-143291D01*
X39048Y-143090D01*
X38364Y-142954D01*
X37681Y-143090D01*
X37380Y-143291D01*
X37079Y-143090D01*
X36396Y-142954D01*
X35713Y-143090D01*
X35412Y-143291D01*
X35111Y-143090D01*
X34427Y-142954D01*
X33744Y-143090D01*
X33443Y-143291D01*
X33142Y-143090D01*
X32459Y-142954D01*
X31776Y-143090D01*
X31196Y-143477D01*
X30809Y-144056D01*
X30674Y-144740D01*
Y-145946D01*
X29309D01*
X28991Y-145560D01*
X29043Y-145300D01*
X28872Y-144442D01*
X28386Y-143714D01*
X28477Y-143415D01*
X29349D01*
X30032Y-143279D01*
X30611Y-142892D01*
X30998Y-142313D01*
X31134Y-141629D01*
X30998Y-140946D01*
X30797Y-140645D01*
X30998Y-140344D01*
X31134Y-139661D01*
X30998Y-138978D01*
X30797Y-138677D01*
X30998Y-138376D01*
X31134Y-137692D01*
X31284Y-137509D01*
X31748D01*
X32142Y-137772D01*
X33000Y-137943D01*
X33858Y-137772D01*
X34252Y-137509D01*
X34476D01*
X35159Y-137373D01*
X35739Y-136986D01*
X35739Y-136986D01*
X35739Y-136986D01*
X35763Y-136962D01*
X36150Y-136383D01*
X36285Y-135700D01*
X36150Y-135017D01*
X35763Y-134438D01*
X35183Y-134050D01*
X34500Y-133914D01*
X34288D01*
X33858Y-133628D01*
X33000Y-133457D01*
X32142Y-133628D01*
X31677Y-133938D01*
X31284D01*
X31134Y-133755D01*
X30998Y-133072D01*
X30797Y-132771D01*
X30998Y-132470D01*
X31134Y-131787D01*
X30998Y-131104D01*
X30797Y-130803D01*
X30998Y-130502D01*
X31134Y-129818D01*
X30998Y-129135D01*
X30797Y-128834D01*
X30998Y-128533D01*
X31134Y-127850D01*
X30998Y-127166D01*
X30797Y-126866D01*
X30998Y-126565D01*
X31134Y-125881D01*
X30998Y-125198D01*
X30797Y-124897D01*
X30998Y-124596D01*
X31134Y-123913D01*
X30998Y-123230D01*
X30797Y-122929D01*
X30998Y-122628D01*
X31134Y-121944D01*
X30998Y-121261D01*
X30797Y-120960D01*
X30998Y-120659D01*
X31134Y-119976D01*
X30998Y-119292D01*
X30797Y-118991D01*
X30998Y-118691D01*
X31134Y-118007D01*
X30998Y-117324D01*
X30797Y-117023D01*
X30994Y-116728D01*
X30586D01*
X30032Y-116358D01*
X29349Y-116222D01*
X26356D01*
Y-115906D01*
X26357D01*
X26607Y-115856D01*
X29349D01*
X30032Y-115720D01*
X30586Y-115350D01*
X30994D01*
X30797Y-115055D01*
X30998Y-114754D01*
X31134Y-114070D01*
X30998Y-113387D01*
X30797Y-113086D01*
X30998Y-112785D01*
X31134Y-112102D01*
X30998Y-111418D01*
X30797Y-111117D01*
X30998Y-110817D01*
X31134Y-110133D01*
X30998Y-109450D01*
X30797Y-109149D01*
X30998Y-108848D01*
X31134Y-108165D01*
X30998Y-107482D01*
X30797Y-107181D01*
X30998Y-106879D01*
X31134Y-106196D01*
X30998Y-105513D01*
X30797Y-105212D01*
X30998Y-104911D01*
X31134Y-104228D01*
X30998Y-103544D01*
X30797Y-103244D01*
X30998Y-102943D01*
X31134Y-102259D01*
X30998Y-101576D01*
X30797Y-101275D01*
X30998Y-100974D01*
X31134Y-100291D01*
X30998Y-99607D01*
X30797Y-99306D01*
X30998Y-99006D01*
X31134Y-98322D01*
X30998Y-97639D01*
X30797Y-97338D01*
X30998Y-97037D01*
X31134Y-96354D01*
X31049Y-95925D01*
X31465Y-95647D01*
X31601Y-95738D01*
X32459Y-95909D01*
X33317Y-95738D01*
X34045Y-95252D01*
X34531Y-94524D01*
X34702Y-93666D01*
X34645Y-93378D01*
X34923Y-92962D01*
X35111Y-92925D01*
X35412Y-92724D01*
X35713Y-92925D01*
X36396Y-93060D01*
X37079Y-92925D01*
X37380Y-92724D01*
X37681Y-92925D01*
X38364Y-93060D01*
X39048Y-92925D01*
X39349Y-92724D01*
X39650Y-92925D01*
X40333Y-93060D01*
X41016Y-92925D01*
X41317Y-92724D01*
X41618Y-92925D01*
X42301Y-93060D01*
X42985Y-92925D01*
X43286Y-92724D01*
X43587Y-92925D01*
X44270Y-93060D01*
X44515Y-93261D01*
Y-93712D01*
X44228Y-94142D01*
X44057Y-95000D01*
X44228Y-95858D01*
X44714Y-96586D01*
X45442Y-97072D01*
X46300Y-97243D01*
X47158Y-97072D01*
X47886Y-96586D01*
X48372Y-95858D01*
X48543Y-95000D01*
X48372Y-94142D01*
X48085Y-93712D01*
Y-93160D01*
X48207Y-93060D01*
X48890Y-92925D01*
X49191Y-92724D01*
X49492Y-92925D01*
X50175Y-93060D01*
X50859Y-92925D01*
X51160Y-92724D01*
X51461Y-92925D01*
X52144Y-93060D01*
X52827Y-92925D01*
X53128Y-92724D01*
X53429Y-92925D01*
X54112Y-93060D01*
X54796Y-92925D01*
X55097Y-92724D01*
X55398Y-92925D01*
X56081Y-93060D01*
X56764Y-92925D01*
X57065Y-92724D01*
X57366Y-92925D01*
X58049Y-93060D01*
X58733Y-92925D01*
X59034Y-92724D01*
X59335Y-92925D01*
X60018Y-93060D01*
X60701Y-92925D01*
X61002Y-92724D01*
X61303Y-92925D01*
X61987Y-93060D01*
X62670Y-92925D01*
X62971Y-92724D01*
X63272Y-92925D01*
X63955Y-93060D01*
X64638Y-92925D01*
X64939Y-92724D01*
X65240Y-92925D01*
X65924Y-93060D01*
X66607Y-92925D01*
X66908Y-92724D01*
X67203Y-92921D01*
Y-92512D01*
X67573Y-91958D01*
X67709Y-91275D01*
Y-88282D01*
X68025D01*
Y-88283D01*
X68075Y-88533D01*
Y-91275D01*
X68211Y-91958D01*
X68581Y-92512D01*
Y-92921D01*
X68876Y-92724D01*
X69177Y-92925D01*
X69861Y-93060D01*
X70544Y-92925D01*
X70845Y-92724D01*
X71146Y-92925D01*
X71829Y-93060D01*
X72512Y-92925D01*
X72813Y-92724D01*
X73114Y-92925D01*
X73798Y-93060D01*
X74481Y-92925D01*
X74782Y-92724D01*
X75083Y-92925D01*
X75766Y-93060D01*
X76449Y-92925D01*
X76750Y-92724D01*
X77051Y-92925D01*
X77240Y-92962D01*
X77517Y-93378D01*
X77460Y-93666D01*
X77631Y-94524D01*
X77919Y-94956D01*
X77528Y-95542D01*
X77357Y-96400D01*
X77528Y-97258D01*
X77605Y-97373D01*
X77369Y-97815D01*
X76188D01*
X75758Y-97528D01*
X74900Y-97357D01*
X74042Y-97528D01*
X73314Y-98014D01*
X72828Y-98742D01*
X72657Y-99600D01*
X72828Y-100458D01*
X73314Y-101186D01*
X74042Y-101672D01*
X74900Y-101843D01*
X75245Y-101775D01*
X75300Y-101786D01*
X75983Y-101650D01*
X76379Y-101385D01*
X79596D01*
X80279Y-101250D01*
X80858Y-100863D01*
X81107Y-100938D01*
X81275Y-101409D01*
X81164Y-101576D01*
X81028Y-102259D01*
X81164Y-102943D01*
X81365Y-103244D01*
X81164Y-103544D01*
X81028Y-104228D01*
X81164Y-104911D01*
X81365Y-105212D01*
X81164Y-105513D01*
X81028Y-106196D01*
D01*
X80683Y-106050D01*
X80683Y-106050D01*
X80683Y-106050D01*
X80000Y-105914D01*
X76088D01*
X75658Y-105628D01*
X74800Y-105457D01*
X73942Y-105628D01*
X73214Y-106114D01*
X72728Y-106842D01*
X72557Y-107700D01*
X72728Y-108558D01*
X73214Y-109286D01*
X73942Y-109772D01*
X74800Y-109943D01*
X75241Y-109855D01*
X75595Y-110209D01*
X75557Y-110400D01*
X75728Y-111258D01*
X76214Y-111986D01*
X76942Y-112472D01*
X77800Y-112643D01*
X78658Y-112472D01*
X79088Y-112186D01*
X80263D01*
X80668Y-112105D01*
X81084Y-112383D01*
X81164Y-112785D01*
X81365Y-113086D01*
X81164Y-113387D01*
X81028Y-114070D01*
X81164Y-114754D01*
X81365Y-115055D01*
X81164Y-115356D01*
X81028Y-116039D01*
X80878Y-116222D01*
X79099D01*
X78658Y-115928D01*
X77800Y-115757D01*
X76942Y-115928D01*
X76214Y-116414D01*
X75728Y-117142D01*
X75557Y-118000D01*
X75728Y-118858D01*
X76072Y-119374D01*
X75836Y-119815D01*
X73588D01*
X73158Y-119528D01*
X72300Y-119357D01*
X71442Y-119528D01*
X70714Y-120014D01*
X70228Y-120742D01*
X70057Y-121600D01*
X70228Y-122458D01*
X70714Y-123186D01*
X71442Y-123672D01*
X72300Y-123843D01*
X73158Y-123672D01*
X73588Y-123386D01*
X78500D01*
X79183Y-123250D01*
X79763Y-122863D01*
X80595Y-122030D01*
X81073Y-122175D01*
X81028Y-121944D01*
X81064Y-121762D01*
X88798D01*
X89481Y-121625D01*
X90035Y-121255D01*
X90443D01*
X90246Y-120960D01*
X90447Y-120659D01*
X90583Y-119976D01*
X90447Y-119292D01*
X90246Y-118991D01*
X90447Y-118691D01*
X90583Y-118007D01*
X90447Y-117324D01*
X90246Y-117023D01*
X90447Y-116722D01*
X90583Y-116039D01*
X90447Y-115356D01*
X90246Y-115055D01*
X90447Y-114754D01*
X90583Y-114070D01*
X90447Y-113387D01*
X90246Y-113086D01*
X90447Y-112785D01*
X90583Y-112102D01*
X90447Y-111418D01*
X90246Y-111117D01*
X90447Y-110817D01*
X90583Y-110133D01*
X90447Y-109450D01*
X90246Y-109149D01*
X90447Y-108848D01*
X90583Y-108165D01*
X90447Y-107482D01*
X90246Y-107181D01*
X90447Y-106879D01*
X90583Y-106196D01*
X90733Y-106013D01*
X92685D01*
X93114Y-106300D01*
X93972Y-106471D01*
X94831Y-106300D01*
X95558Y-105814D01*
X96045Y-105086D01*
X96215Y-104228D01*
X96045Y-103369D01*
X95558Y-102642D01*
X94831Y-102155D01*
X94816Y-102109D01*
X96252Y-100673D01*
X96758Y-100572D01*
X97486Y-100086D01*
X97972Y-99358D01*
X98143Y-98500D01*
X97972Y-97642D01*
X97486Y-96914D01*
X96758Y-96428D01*
X95900Y-96257D01*
X95042Y-96428D01*
X94433Y-96834D01*
X94286Y-96614D01*
X93558Y-96128D01*
X92700Y-95957D01*
X91842Y-96128D01*
X91114Y-96614D01*
X90996Y-96790D01*
X90534Y-96599D01*
X90583Y-96354D01*
X90447Y-95670D01*
X90246Y-95369D01*
X90447Y-95069D01*
X90583Y-94385D01*
X90447Y-93702D01*
X90060Y-93123D01*
X89481Y-92736D01*
X88798Y-92600D01*
X87591D01*
Y-90290D01*
X87878Y-89861D01*
X88048Y-89002D01*
X87878Y-88144D01*
X87392Y-87416D01*
X86664Y-86930D01*
X85805Y-86759D01*
X84947Y-86930D01*
X84219Y-87416D01*
X83733Y-88144D01*
X83562Y-89002D01*
X83733Y-89861D01*
X84020Y-90290D01*
Y-92600D01*
X82813D01*
X82130Y-92736D01*
X82130Y-92736D01*
X82130Y-92736D01*
X81775Y-92807D01*
D01*
X81489Y-92378D01*
Y-88283D01*
Y-85291D01*
X81353Y-84607D01*
X81498Y-84336D01*
X87850D01*
X88533Y-84200D01*
X89113Y-83812D01*
X89113Y-83812D01*
X89113Y-83812D01*
X93144Y-79782D01*
X93531Y-79202D01*
X93531Y-79202D01*
X93531Y-79202D01*
X93666Y-78519D01*
Y-63781D01*
X100350D01*
Y-56281D01*
X92850D01*
Y-58253D01*
X90550D01*
Y-55981D01*
X83050D01*
Y-57572D01*
X82664Y-57889D01*
X82500Y-57857D01*
X81642Y-58028D01*
X80991Y-58462D01*
X80550Y-58227D01*
Y-55981D01*
X73050D01*
Y-57714D01*
X69911D01*
Y-53576D01*
X60031D01*
Y-65424D01*
X64208D01*
Y-68895D01*
X62244D01*
Y-76395D01*
X64138D01*
Y-79660D01*
X63676Y-79851D01*
X60682Y-76857D01*
X60873Y-76395D01*
X61082D01*
Y-68895D01*
X59118D01*
Y-63832D01*
X58982Y-63149D01*
X58595Y-62570D01*
X54263Y-58237D01*
X53769Y-57908D01*
Y-53576D01*
X43889D01*
Y-57145D01*
X40450D01*
Y-55181D01*
X32950D01*
Y-62681D01*
X40450D01*
Y-60716D01*
X43889D01*
Y-65424D01*
X47596D01*
X48146Y-65792D01*
X48829Y-65927D01*
X49512Y-65792D01*
X50062Y-65424D01*
X53769D01*
Y-63448D01*
X54231Y-63256D01*
X55547Y-64572D01*
Y-68895D01*
X53582D01*
Y-76395D01*
X55619D01*
X55683Y-76715D01*
X56070Y-77295D01*
X61857Y-83082D01*
X61711Y-83560D01*
X61303Y-83641D01*
X61002Y-83842D01*
X60701Y-83641D01*
X60018Y-83505D01*
X59335Y-83641D01*
X59034Y-83842D01*
X58733Y-83641D01*
X58049Y-83505D01*
X57366Y-83641D01*
X57065Y-83842D01*
X56764Y-83641D01*
X56081Y-83505D01*
X55398Y-83641D01*
X55097Y-83842D01*
X54796Y-83641D01*
X54112Y-83505D01*
X53429Y-83641D01*
X53128Y-83842D01*
X52827Y-83641D01*
X52144Y-83505D01*
X51461Y-83641D01*
X51160Y-83842D01*
X50859Y-83641D01*
X50175Y-83505D01*
X49492Y-83641D01*
X49191Y-83842D01*
X48890Y-83641D01*
X48207Y-83505D01*
X47524Y-83641D01*
X47223Y-83842D01*
X46922Y-83641D01*
X46238Y-83505D01*
X46055Y-83355D01*
Y-78088D01*
X46342Y-77658D01*
X46513Y-76800D01*
X46342Y-75942D01*
X45856Y-75214D01*
X45128Y-74728D01*
X44270Y-74557D01*
X43412Y-74728D01*
X42817Y-75125D01*
X42464Y-74771D01*
X42472Y-74758D01*
X42643Y-73900D01*
X42472Y-73042D01*
X41986Y-72314D01*
X41258Y-71828D01*
X40400Y-71657D01*
X39542Y-71828D01*
X38814Y-72314D01*
X38328Y-73042D01*
X38157Y-73900D01*
X38328Y-74758D01*
X38614Y-75188D01*
Y-77602D01*
X38173Y-77838D01*
X38158Y-77828D01*
X37300Y-77657D01*
X36442Y-77828D01*
X35714Y-78314D01*
X35228Y-79042D01*
X35057Y-79900D01*
X35228Y-80758D01*
X35714Y-81486D01*
X36442Y-81972D01*
X36948Y-82073D01*
X38003Y-83128D01*
X37857Y-83606D01*
X37681Y-83641D01*
X37380Y-83842D01*
X37079Y-83641D01*
X36396Y-83505D01*
X35713Y-83641D01*
X35412Y-83842D01*
X35111Y-83641D01*
X34427Y-83505D01*
X33744Y-83641D01*
X33443Y-83842D01*
X33142Y-83641D01*
X32459Y-83505D01*
X31776Y-83641D01*
X31196Y-84028D01*
X31060Y-84232D01*
X30573Y-84119D01*
X30531Y-83795D01*
X30258Y-83138D01*
X29826Y-82574D01*
X29633Y-82427D01*
Y-62481D01*
X30250D01*
Y-54981D01*
X22750D01*
Y-62481D01*
X26167D01*
Y-82427D01*
X25974Y-82574D01*
X25542Y-83138D01*
X25269Y-83795D01*
X25177Y-84500D01*
X25269Y-85205D01*
X25542Y-85862D01*
X25974Y-86426D01*
X26538Y-86858D01*
X27195Y-87130D01*
X27900Y-87223D01*
X28605Y-87130D01*
X29262Y-86858D01*
X29826Y-86426D01*
X30200Y-85938D01*
X30674Y-86098D01*
Y-88283D01*
Y-91275D01*
Y-92378D01*
X30387Y-92807D01*
D01*
X30032Y-92736D01*
X30032Y-92736D01*
X30032Y-92736D01*
X29349Y-92600D01*
X23365D01*
X22681Y-92736D01*
X22102Y-93123D01*
X21715Y-93702D01*
X21579Y-94385D01*
X21715Y-95069D01*
X21916Y-95369D01*
X21715Y-95670D01*
X21599Y-96251D01*
X21121Y-96396D01*
X16985Y-92260D01*
Y-40621D01*
X24253Y-33353D01*
X24714Y-33545D01*
Y-46319D01*
X22750D01*
Y-53819D01*
X30250D01*
Y-46319D01*
X28286D01*
Y-28921D01*
X31644Y-25563D01*
X31876Y-25215D01*
X32031Y-24983D01*
X32166Y-24300D01*
Y-12858D01*
X32031Y-12174D01*
X31876Y-11942D01*
X31644Y-11595D01*
X29963Y-9914D01*
X29383Y-9527D01*
X28700Y-9391D01*
X27531D01*
Y-7427D01*
D02*
G37*
G36*
X85481Y-8919D02*
X84397Y-9061D01*
X83387Y-9480D01*
X82519Y-10146D01*
X81854Y-11013D01*
X81435Y-12023D01*
X81292Y-13107D01*
X81435Y-14191D01*
X81854Y-15202D01*
X82519Y-16069D01*
X83387Y-16735D01*
X84397Y-17153D01*
X85481Y-17296D01*
X86565Y-17153D01*
X87575Y-16735D01*
X88443Y-16069D01*
X89109Y-15202D01*
X89527Y-14191D01*
X89670Y-13107D01*
X89527Y-12023D01*
X89109Y-11013D01*
X88443Y-10146D01*
X87575Y-9480D01*
X86565Y-9061D01*
X85481Y-8919D01*
D02*
G37*
G36*
X109634Y-8954D02*
X101328D01*
Y-17260D01*
X109634D01*
Y-8954D01*
D02*
G37*
G36*
X86170Y-19009D02*
Y-22418D01*
X89579D01*
X89527Y-22023D01*
X89108Y-21013D01*
X88443Y-20145D01*
X87575Y-19480D01*
X86565Y-19061D01*
X86170Y-19009D01*
D02*
G37*
G36*
X95481Y-8919D02*
X94397Y-9061D01*
X93387Y-9480D01*
X92519Y-10146D01*
X91854Y-11013D01*
X91435Y-12023D01*
X91292Y-13107D01*
X91435Y-14191D01*
X91854Y-15202D01*
X92519Y-16069D01*
X93387Y-16735D01*
X94397Y-17153D01*
X95481Y-17296D01*
X96565Y-17153D01*
X97575Y-16735D01*
X98443Y-16069D01*
X99108Y-15202D01*
X99527Y-14191D01*
X99670Y-13107D01*
X99527Y-12023D01*
X99108Y-11013D01*
X98443Y-10146D01*
X97575Y-9480D01*
X96565Y-9061D01*
X95481Y-8919D01*
D02*
G37*
G36*
X86111Y-47319D02*
X83050D01*
Y-50380D01*
X86111D01*
Y-47319D01*
D02*
G37*
G36*
X90550D02*
X87489D01*
Y-50380D01*
X90550D01*
Y-47319D01*
D02*
G37*
G36*
X76111D02*
X73050D01*
Y-50380D01*
X76111D01*
Y-47319D01*
D02*
G37*
G36*
X80550D02*
X77489D01*
Y-50380D01*
X80550D01*
Y-47319D01*
D02*
G37*
G36*
X95481Y-18919D02*
X94397Y-19061D01*
X93387Y-19480D01*
X92519Y-20145D01*
X91854Y-21013D01*
X91435Y-22023D01*
X91292Y-23107D01*
X91435Y-24191D01*
X91854Y-25202D01*
X92519Y-26069D01*
X93387Y-26735D01*
X94397Y-27153D01*
X95481Y-27296D01*
X96565Y-27153D01*
X97575Y-26735D01*
X98443Y-26069D01*
X99108Y-25202D01*
X99527Y-24191D01*
X99670Y-23107D01*
X99527Y-22023D01*
X99108Y-21013D01*
X98443Y-20145D01*
X97575Y-19480D01*
X96565Y-19061D01*
X95481Y-18919D01*
D02*
G37*
G36*
X84792Y-23796D02*
X81383D01*
X81435Y-24191D01*
X81854Y-25202D01*
X82519Y-26069D01*
X83387Y-26735D01*
X84397Y-27153D01*
X84792Y-27205D01*
Y-23796D01*
D02*
G37*
G36*
X36011Y-46519D02*
X32950D01*
Y-49580D01*
X36011D01*
Y-46519D01*
D02*
G37*
G36*
X40450D02*
X37389D01*
Y-49580D01*
X40450D01*
Y-46519D01*
D02*
G37*
G36*
X43187Y-181876D02*
X40126D01*
Y-184937D01*
X43187D01*
Y-181876D01*
D02*
G37*
G36*
X58887Y-181763D02*
X55826D01*
Y-184824D01*
X58887D01*
Y-181763D01*
D02*
G37*
G36*
X32987Y-181876D02*
X29926D01*
Y-184937D01*
X32987D01*
Y-181876D01*
D02*
G37*
G36*
X38748Y-181876D02*
X35687D01*
Y-184937D01*
X38748D01*
Y-181876D01*
D02*
G37*
G36*
X84177Y-181763D02*
X81116D01*
Y-184824D01*
X84177D01*
Y-181763D01*
D02*
G37*
G36*
X90211D02*
X87150D01*
Y-184824D01*
X90211D01*
Y-181763D01*
D02*
G37*
G36*
X63326Y-181763D02*
X60265D01*
Y-184824D01*
X63326D01*
Y-181763D01*
D02*
G37*
G36*
X79738Y-181763D02*
X76677D01*
Y-184824D01*
X79738D01*
Y-181763D01*
D02*
G37*
G36*
X28548Y-181876D02*
X25487D01*
Y-184937D01*
X28548D01*
Y-181876D01*
D02*
G37*
G36*
X8731Y-245488D02*
X1231D01*
Y-252988D01*
X3196D01*
Y-258364D01*
X2814D01*
X2814Y-258364D01*
Y-258364D01*
X2502Y-258364D01*
X2481D01*
X2461D01*
X2372D01*
X2055Y-257978D01*
X2224Y-257129D01*
X2053Y-256270D01*
X1567Y-255542D01*
X839Y-255056D01*
X-19Y-254886D01*
X-877Y-255056D01*
X-1605Y-255542D01*
X-2091Y-256270D01*
X-2262Y-257129D01*
X-2093Y-257978D01*
X-2410Y-258364D01*
X-2499D01*
X-2519D01*
X-2540D01*
X-2852Y-258364D01*
X-2852Y-258364D01*
Y-258364D01*
X-3233D01*
Y-253006D01*
X-1161D01*
Y-245506D01*
X-8661D01*
Y-253006D01*
X-6804D01*
Y-258364D01*
X-7186D01*
X-7186Y-258364D01*
Y-258364D01*
X-7498Y-258364D01*
X-7519D01*
X-7540D01*
X-7627D01*
X-7945Y-257978D01*
X-7776Y-257129D01*
X-7947Y-256270D01*
X-8433Y-255542D01*
X-9161Y-255056D01*
X-10019Y-254886D01*
X-10877Y-255056D01*
X-11605Y-255542D01*
X-12091Y-256270D01*
X-12262Y-257129D01*
X-12093Y-257978D01*
X-12410Y-258364D01*
X-12499D01*
X-12519D01*
X-12539D01*
X-12852Y-258364D01*
X-12852Y-258364D01*
Y-258364D01*
X-13234D01*
Y-253006D01*
X-11054D01*
Y-245506D01*
X-18554D01*
Y-253006D01*
X-16804D01*
Y-258364D01*
X-17186D01*
X-17186Y-258364D01*
Y-258364D01*
X-17499Y-258364D01*
X-17519D01*
X-17539D01*
X-17627D01*
X-17945Y-257978D01*
X-17776Y-257129D01*
X-17947Y-256270D01*
X-18433Y-255542D01*
X-19161Y-255056D01*
X-20019Y-254886D01*
X-20877Y-255056D01*
X-21605Y-255542D01*
X-22091Y-256270D01*
X-22262Y-257129D01*
X-22093Y-257978D01*
X-22411Y-258364D01*
X-22499D01*
X-22519D01*
X-22539D01*
X-22852Y-258364D01*
X-22852Y-258364D01*
Y-258364D01*
X-23234D01*
Y-253006D01*
X-20946D01*
Y-245506D01*
X-28446D01*
Y-253006D01*
X-26805D01*
Y-258364D01*
X-27186D01*
X-27186Y-258364D01*
Y-258364D01*
X-27498Y-258364D01*
X-27519D01*
X-27540D01*
X-27628D01*
X-27945Y-257978D01*
X-27776Y-257129D01*
X-27947Y-256270D01*
X-28433Y-255542D01*
X-29161Y-255056D01*
X-30019Y-254886D01*
X-30877Y-255056D01*
X-31605Y-255542D01*
X-32091Y-256270D01*
X-32262Y-257129D01*
X-32093Y-257978D01*
X-32410Y-258364D01*
X-32498D01*
Y-267260D01*
X-27540D01*
Y-267260D01*
X-27498D01*
X-27186Y-267260D01*
X-27186Y-267260D01*
Y-267260D01*
X-22539D01*
Y-267260D01*
X-22499D01*
X-22186Y-267260D01*
X-22186Y-267260D01*
Y-267260D01*
X-17539D01*
Y-267260D01*
X-17499D01*
X-17186Y-267260D01*
X-17186Y-267260D01*
Y-267260D01*
X-12539D01*
Y-267260D01*
X-12499D01*
X-12186Y-267260D01*
X-12186Y-267260D01*
Y-267260D01*
X-7540D01*
Y-267260D01*
X-7498D01*
X-7186Y-267260D01*
X-7186Y-267260D01*
Y-267260D01*
X-2540D01*
Y-267260D01*
X-2499D01*
X-2186Y-267260D01*
X-2186Y-267260D01*
Y-267260D01*
X2461D01*
Y-267260D01*
X2502D01*
X2814Y-267260D01*
X2814Y-267260D01*
Y-267260D01*
X7461D01*
Y-258364D01*
X6767D01*
Y-252988D01*
X8731D01*
Y-245488D01*
D02*
G37*
G36*
X13015Y-188617D02*
X7104D01*
Y-193378D01*
X13015D01*
Y-188617D01*
D02*
G37*
G36*
X-197969Y-245488D02*
X-205469D01*
Y-252988D01*
X-203504D01*
Y-254512D01*
X-203791Y-254942D01*
X-203962Y-255800D01*
X-203791Y-256658D01*
X-203504Y-257088D01*
Y-258364D01*
X-203886D01*
X-203886Y-258364D01*
Y-258364D01*
X-204199Y-258364D01*
X-204219D01*
X-204239D01*
X-204552Y-258364D01*
X-204552Y-258364D01*
Y-258364D01*
X-206030D01*
Y-262813D01*
Y-267260D01*
X-204239D01*
Y-267260D01*
X-204199D01*
X-203886Y-267260D01*
X-203886Y-267260D01*
Y-267260D01*
X-199239D01*
Y-267260D01*
X-199198D01*
X-198886Y-267260D01*
X-198886Y-267260D01*
Y-267260D01*
X-197408D01*
Y-262813D01*
Y-258364D01*
X-198886D01*
X-198886Y-258364D01*
Y-258364D01*
X-199198Y-258364D01*
X-199219D01*
X-199239D01*
X-199552Y-258364D01*
X-199552Y-258364D01*
Y-258364D01*
X-199934D01*
Y-257088D01*
X-199647Y-256658D01*
X-199476Y-255800D01*
X-199647Y-254942D01*
X-199934Y-254512D01*
Y-252988D01*
X-197969D01*
Y-245488D01*
D02*
G37*
G36*
X-143546Y-245406D02*
X-151046D01*
Y-252906D01*
X-149057D01*
Y-258364D01*
X-149438D01*
X-149438Y-258364D01*
Y-258364D01*
X-149751Y-258364D01*
X-149771D01*
X-149792D01*
X-149880D01*
X-150197Y-257978D01*
X-150028Y-257129D01*
X-150199Y-256270D01*
X-150685Y-255542D01*
X-151413Y-255056D01*
X-152271Y-254886D01*
X-153130Y-255056D01*
X-153857Y-255542D01*
X-154344Y-256270D01*
X-154514Y-257129D01*
X-154346Y-257978D01*
X-154663Y-258364D01*
X-154751D01*
X-154771D01*
X-154792D01*
X-155104Y-258364D01*
X-155104Y-258364D01*
Y-258364D01*
X-155486D01*
Y-252906D01*
X-153579D01*
Y-245406D01*
X-161080D01*
Y-252906D01*
X-159057D01*
Y-258364D01*
X-159438D01*
X-159438Y-258364D01*
Y-258364D01*
X-159751Y-258364D01*
X-159771D01*
X-159792D01*
X-159880D01*
X-160197Y-257978D01*
X-160028Y-257129D01*
X-160199Y-256270D01*
X-160685Y-255542D01*
X-161413Y-255056D01*
X-162271Y-254886D01*
X-163130Y-255056D01*
X-163857Y-255542D01*
X-164344Y-256270D01*
X-164514Y-257129D01*
X-164346Y-257978D01*
X-164663Y-258364D01*
X-164751D01*
X-164771D01*
X-164792D01*
X-165104Y-258364D01*
X-165104Y-258364D01*
Y-258364D01*
X-165486D01*
Y-252906D01*
X-163613D01*
Y-245406D01*
X-171113D01*
Y-252906D01*
X-169057D01*
Y-258364D01*
X-169438D01*
X-169438Y-258364D01*
Y-258364D01*
X-169751Y-258364D01*
X-169771D01*
X-169792D01*
X-169880D01*
X-170197Y-257978D01*
X-170028Y-257129D01*
X-170199Y-256270D01*
X-170685Y-255542D01*
X-171413Y-255056D01*
X-172271Y-254886D01*
X-173130Y-255056D01*
X-173857Y-255542D01*
X-174344Y-256270D01*
X-174514Y-257129D01*
X-174346Y-257978D01*
X-174663Y-258364D01*
X-174751D01*
X-174771D01*
X-174792D01*
X-175104Y-258364D01*
X-175104Y-258364D01*
Y-258364D01*
X-175486D01*
Y-252906D01*
X-173646D01*
Y-245406D01*
X-181146D01*
Y-252906D01*
X-179057D01*
Y-258364D01*
X-179438D01*
X-179438Y-258364D01*
Y-258364D01*
X-179751Y-258364D01*
X-179771D01*
X-179792D01*
X-179880D01*
X-180197Y-257978D01*
X-180028Y-257129D01*
X-180199Y-256270D01*
X-180685Y-255542D01*
X-181413Y-255056D01*
X-182271Y-254886D01*
X-183130Y-255056D01*
X-183857Y-255542D01*
X-184344Y-256270D01*
X-184514Y-257129D01*
X-184346Y-257978D01*
X-184663Y-258364D01*
X-184751D01*
Y-267260D01*
X-179792D01*
Y-267260D01*
X-179751D01*
X-179438Y-267260D01*
X-179438Y-267260D01*
Y-267260D01*
X-174792D01*
Y-267260D01*
X-174751D01*
X-174438Y-267260D01*
X-174438Y-267260D01*
Y-267260D01*
X-169792D01*
Y-267260D01*
X-169751D01*
X-169438Y-267260D01*
X-169438Y-267260D01*
Y-267260D01*
X-164792D01*
Y-267260D01*
X-164751D01*
X-164438Y-267260D01*
X-164438Y-267260D01*
Y-267260D01*
X-159792D01*
Y-267260D01*
X-159751D01*
X-159438Y-267260D01*
X-159438Y-267260D01*
Y-267260D01*
X-154792D01*
Y-267260D01*
X-154751D01*
X-154438Y-267260D01*
X-154438Y-267260D01*
Y-267260D01*
X-149792D01*
Y-267260D01*
X-149751D01*
X-149438Y-267260D01*
X-149438Y-267260D01*
Y-267260D01*
X-144792D01*
Y-258364D01*
X-145486D01*
Y-252906D01*
X-143546D01*
Y-245406D01*
D02*
G37*
G36*
X13015Y-182478D02*
X7104D01*
Y-187239D01*
X13015D01*
Y-182478D01*
D02*
G37*
G36*
X20304D02*
X14393D01*
Y-187239D01*
X20304D01*
Y-182478D01*
D02*
G37*
G36*
Y-188617D02*
X14393D01*
Y-193378D01*
X20304D01*
Y-188617D01*
D02*
G37*
G36*
X73799Y-177324D02*
X66299D01*
Y-184824D01*
X68025D01*
X68261Y-185265D01*
X67977Y-185691D01*
X67806Y-186549D01*
X67977Y-187408D01*
X68463Y-188135D01*
X69191Y-188621D01*
X70049Y-188792D01*
X70907Y-188621D01*
X71635Y-188135D01*
X72121Y-187408D01*
X72292Y-186549D01*
X72121Y-185691D01*
X71835Y-185261D01*
Y-184824D01*
X73799D01*
Y-177324D01*
D02*
G37*
G36*
X94650Y-181763D02*
X91589D01*
Y-184824D01*
X94650D01*
Y-181763D01*
D02*
G37*
G36*
X90211Y-177324D02*
X87150D01*
Y-180385D01*
X90211D01*
Y-177324D01*
D02*
G37*
G36*
X94650D02*
X91589D01*
Y-180385D01*
X94650D01*
Y-177324D01*
D02*
G37*
G36*
X79738D02*
X76677D01*
Y-180385D01*
X79738D01*
Y-177324D01*
D02*
G37*
G36*
X84177D02*
X81116D01*
Y-180385D01*
X84177D01*
Y-177324D01*
D02*
G37*
G36*
X11511Y-122906D02*
X8450D01*
Y-125967D01*
X11511D01*
Y-122906D01*
D02*
G37*
G36*
X15950D02*
X12889D01*
Y-125967D01*
X15950D01*
Y-122906D01*
D02*
G37*
G36*
X46500Y-132957D02*
X45642Y-133128D01*
X44914Y-133614D01*
X44428Y-134342D01*
X44257Y-135200D01*
X44428Y-136058D01*
X44914Y-136786D01*
X45642Y-137272D01*
X46500Y-137443D01*
X47358Y-137272D01*
X47631Y-137090D01*
X48093Y-137282D01*
X48228Y-137958D01*
X48228Y-137958D01*
X48228Y-137958D01*
X48210Y-138049D01*
X47814Y-138314D01*
X47328Y-139042D01*
X47157Y-139900D01*
X47328Y-140758D01*
X47814Y-141486D01*
X48542Y-141972D01*
X49400Y-142143D01*
X49972Y-142029D01*
X50332Y-142325D01*
Y-142825D01*
X50175Y-142954D01*
X49492Y-143090D01*
X49191Y-143291D01*
X48890Y-143090D01*
X48207Y-142954D01*
X47524Y-143090D01*
X47223Y-143291D01*
X46922Y-143090D01*
X46238Y-142954D01*
X45555Y-143090D01*
X45254Y-143291D01*
X44953Y-143090D01*
X44270Y-142954D01*
X43587Y-143090D01*
X43286Y-143291D01*
X42990Y-143094D01*
Y-143502D01*
X42620Y-144056D01*
X42484Y-144740D01*
Y-147733D01*
Y-150724D01*
X42620Y-151407D01*
X42990Y-151961D01*
Y-152370D01*
X43286Y-152172D01*
X43587Y-152373D01*
X44270Y-152509D01*
X44953Y-152373D01*
X45254Y-152172D01*
X45555Y-152373D01*
X46238Y-152509D01*
X46922Y-152373D01*
X47223Y-152172D01*
X47524Y-152373D01*
X48207Y-152509D01*
X48890Y-152373D01*
X49191Y-152172D01*
X49492Y-152373D01*
X50175Y-152509D01*
X50859Y-152373D01*
X51160Y-152172D01*
X51461Y-152373D01*
X52144Y-152509D01*
X52827Y-152373D01*
X53128Y-152172D01*
X53429Y-152373D01*
X54112Y-152509D01*
X54796Y-152373D01*
X55097Y-152172D01*
X55398Y-152373D01*
X56081Y-152509D01*
X56264Y-152659D01*
Y-161249D01*
X56400Y-161933D01*
X56787Y-162512D01*
X57791Y-163516D01*
Y-168663D01*
X55826D01*
Y-176163D01*
X63326D01*
Y-174198D01*
X66299D01*
Y-176163D01*
X73799D01*
Y-168663D01*
X66299D01*
Y-170627D01*
X63326D01*
Y-168663D01*
X61362D01*
Y-162776D01*
X61226Y-162093D01*
X60839Y-161514D01*
X59835Y-160510D01*
Y-152659D01*
X60018Y-152509D01*
X60701Y-152373D01*
X61002Y-152172D01*
X61303Y-152373D01*
X61987Y-152509D01*
X62670Y-152373D01*
X62971Y-152172D01*
X63272Y-152373D01*
X63955Y-152509D01*
X64638Y-152373D01*
X64939Y-152172D01*
X65240Y-152373D01*
X65924Y-152509D01*
X66607Y-152373D01*
X66908Y-152172D01*
X67209Y-152373D01*
X67892Y-152509D01*
X68575Y-152373D01*
X68876Y-152172D01*
X69177Y-152373D01*
X69861Y-152509D01*
X70544Y-152373D01*
X70845Y-152172D01*
X71146Y-152373D01*
X71829Y-152509D01*
X72512Y-152373D01*
X72813Y-152172D01*
X73114Y-152373D01*
X73798Y-152509D01*
X73931Y-152619D01*
Y-157566D01*
X74047Y-158152D01*
X74071Y-158268D01*
X74468Y-158864D01*
X78592Y-162987D01*
Y-168663D01*
X76677D01*
Y-176163D01*
X84177D01*
Y-168663D01*
X82263D01*
Y-162227D01*
X82123Y-161525D01*
X81991Y-161327D01*
X81725Y-160930D01*
X77601Y-156806D01*
Y-152619D01*
X77734Y-152509D01*
X77601Y-152483D01*
Y-147733D01*
Y-147732D01*
X77601Y-147731D01*
X77552Y-147481D01*
Y-144740D01*
X77416Y-144056D01*
X77046Y-143502D01*
Y-143094D01*
X76750Y-143291D01*
X76449Y-143090D01*
X75766Y-142954D01*
X75083Y-143090D01*
X74782Y-143291D01*
X74481Y-143090D01*
X73798Y-142954D01*
X73114Y-143090D01*
X72813Y-143291D01*
X72512Y-143090D01*
X71829Y-142954D01*
X71146Y-143090D01*
X70845Y-143291D01*
X70544Y-143090D01*
X69861Y-142954D01*
X69177Y-143090D01*
X68876Y-143291D01*
X68575Y-143090D01*
X67892Y-142954D01*
X67209Y-143090D01*
X66908Y-143291D01*
X66607Y-143090D01*
X65924Y-142954D01*
X65240Y-143090D01*
X64939Y-143291D01*
X64638Y-143090D01*
X63955Y-142954D01*
X63272Y-143090D01*
X62971Y-143291D01*
X62670Y-143090D01*
X61987Y-142954D01*
X61303Y-143090D01*
X61002Y-143291D01*
X60701Y-143090D01*
X60018Y-142954D01*
X59335Y-143090D01*
X59034Y-143291D01*
X58733Y-143090D01*
X58049Y-142954D01*
X57867Y-142804D01*
Y-139858D01*
X58940Y-138786D01*
X63812D01*
X64242Y-139072D01*
X65100Y-139243D01*
X65958Y-139072D01*
X66686Y-138586D01*
X67172Y-137858D01*
X67343Y-137000D01*
X67172Y-136142D01*
X66686Y-135414D01*
X65958Y-134928D01*
X65100Y-134757D01*
X64242Y-134928D01*
X63812Y-135214D01*
X58200D01*
X57517Y-135350D01*
X56937Y-135738D01*
X54818Y-137856D01*
X54431Y-138436D01*
X54380Y-138695D01*
X53880D01*
X53794Y-138261D01*
X53407Y-137681D01*
X52473Y-136748D01*
X52372Y-136242D01*
X51886Y-135514D01*
X51158Y-135028D01*
X50300Y-134857D01*
X49442Y-135028D01*
X49169Y-135210D01*
X48707Y-135019D01*
X48572Y-134342D01*
X48086Y-133614D01*
X47358Y-133128D01*
X46500Y-132957D01*
D02*
G37*
G36*
X6700Y-129536D02*
X5842Y-129707D01*
X5114Y-130193D01*
X4628Y-130921D01*
X4457Y-131780D01*
X4628Y-132638D01*
X5114Y-133366D01*
X5842Y-133852D01*
X6700Y-134023D01*
X7558Y-133852D01*
X8286Y-133366D01*
X8772Y-132638D01*
X8943Y-131780D01*
X8772Y-130921D01*
X8286Y-130193D01*
X7558Y-129707D01*
X6700Y-129536D01*
D02*
G37*
G36*
X63326Y-177324D02*
X60265D01*
Y-180385D01*
X63326D01*
Y-177324D01*
D02*
G37*
G36*
X38748Y-177437D02*
X35687D01*
Y-180498D01*
X38748D01*
Y-177437D01*
D02*
G37*
G36*
X43187D02*
X40126D01*
Y-180498D01*
X43187D01*
Y-177437D01*
D02*
G37*
G36*
X28548Y-177437D02*
X25487D01*
Y-180498D01*
X28548D01*
Y-177437D01*
D02*
G37*
G36*
X32987D02*
X29926D01*
Y-180498D01*
X32987D01*
Y-177437D01*
D02*
G37*
G36*
X58887Y-177324D02*
X55826D01*
Y-180385D01*
X58887D01*
Y-177324D01*
D02*
G37*
%LPD*%
G36*
X73050Y-63481D02*
X80550D01*
Y-61973D01*
X80991Y-61738D01*
X81642Y-62172D01*
X82500Y-62343D01*
X82664Y-62311D01*
X83050Y-62628D01*
Y-63481D01*
X90096D01*
Y-69050D01*
X87220D01*
Y-72801D01*
Y-76550D01*
X90096D01*
Y-77779D01*
X87110Y-80765D01*
X75525D01*
X75208Y-80378D01*
X75231Y-80265D01*
X75460Y-80035D01*
X76300D01*
X76886Y-79919D01*
X77002Y-79896D01*
X77598Y-79498D01*
X79167Y-77928D01*
X79565Y-77333D01*
X79588Y-77217D01*
X79704Y-76631D01*
Y-76550D01*
X81619D01*
Y-69050D01*
X74119D01*
Y-76480D01*
X74114Y-76481D01*
X73998Y-76504D01*
X73402Y-76902D01*
X72785Y-77520D01*
X72242Y-77628D01*
X71514Y-78114D01*
X71028Y-78842D01*
X70920Y-79385D01*
X68563Y-81742D01*
X68187Y-82303D01*
X67709Y-82158D01*
Y-76395D01*
X69744D01*
Y-68895D01*
X67779D01*
Y-65424D01*
X69911D01*
Y-61286D01*
X73050D01*
Y-63481D01*
D02*
G37*
%LPC*%
G36*
X85842Y-73489D02*
X82781D01*
Y-76550D01*
X85842D01*
Y-73489D01*
D02*
G37*
G36*
Y-69050D02*
X82781D01*
Y-72111D01*
X85842D01*
Y-69050D01*
D02*
G37*
%LPD*%
D10*
X-6900Y-333800D02*
D03*
Y-346595D02*
D03*
X-115000Y-351100D02*
D03*
Y-338305D02*
D03*
D11*
X29993Y-274600D02*
D03*
Y-279600D02*
D03*
Y-334600D02*
D03*
Y-339600D02*
D03*
X66607Y-274600D02*
D03*
Y-279600D02*
D03*
Y-334600D02*
D03*
Y-339600D02*
D03*
D12*
X80427Y-172413D02*
D03*
Y-181074D02*
D03*
X-126519Y-309838D02*
D03*
X-95519D02*
D03*
X-157252Y-310038D02*
D03*
X-96419Y-240577D02*
D03*
X-126519Y-301177D02*
D03*
X-201419Y-300877D02*
D03*
Y-309538D02*
D03*
X-211319Y-300877D02*
D03*
Y-309538D02*
D03*
X-221369Y-300877D02*
D03*
Y-309538D02*
D03*
X-231669Y-300877D02*
D03*
Y-309538D02*
D03*
X-126033Y-249256D02*
D03*
Y-240595D02*
D03*
X-232065Y-240595D02*
D03*
Y-249256D02*
D03*
X29237Y-172526D02*
D03*
Y-181187D02*
D03*
X-201719Y-240577D02*
D03*
Y-249238D02*
D03*
X-211834Y-240595D02*
D03*
Y-249256D02*
D03*
X-221949Y-240595D02*
D03*
Y-249256D02*
D03*
X39437Y-181187D02*
D03*
X90900Y-181074D02*
D03*
X36700Y-50269D02*
D03*
X76800Y-51069D02*
D03*
X86800D02*
D03*
X-116162Y-240595D02*
D03*
X-106290D02*
D03*
X26500Y-58731D02*
D03*
X39437Y-172526D02*
D03*
X96600Y-51369D02*
D03*
X-95519Y-301177D02*
D03*
X-105519Y-309838D02*
D03*
Y-301177D02*
D03*
X-115619Y-309838D02*
D03*
Y-301177D02*
D03*
X-116162Y-249256D02*
D03*
X-106290D02*
D03*
X-96419Y-249238D02*
D03*
X-157329Y-249156D02*
D03*
X-157252Y-301377D02*
D03*
X96100Y-123931D02*
D03*
Y-115269D02*
D03*
X12200Y-113556D02*
D03*
Y-122217D02*
D03*
X76800Y-59731D02*
D03*
X86800D02*
D03*
X36700Y-58931D02*
D03*
X96600Y-60031D02*
D03*
X90900Y-172413D02*
D03*
X-5319Y-309838D02*
D03*
Y-301177D02*
D03*
X-157329Y-240495D02*
D03*
X26500Y-50069D02*
D03*
X23781Y-11177D02*
D03*
Y-19838D02*
D03*
X-75696Y-240595D02*
D03*
Y-249256D02*
D03*
X-75819Y-301177D02*
D03*
Y-309838D02*
D03*
X-65696Y-240595D02*
D03*
Y-249256D02*
D03*
X-65119Y-301177D02*
D03*
Y-309838D02*
D03*
X-55696Y-240595D02*
D03*
Y-249256D02*
D03*
X-55219Y-301177D02*
D03*
Y-309838D02*
D03*
X-45696Y-240595D02*
D03*
Y-249256D02*
D03*
X-44319Y-301177D02*
D03*
Y-309838D02*
D03*
X-24696Y-240595D02*
D03*
Y-249256D02*
D03*
X-25419Y-301177D02*
D03*
Y-309838D02*
D03*
X-177396Y-240495D02*
D03*
Y-249156D02*
D03*
X-177319Y-301377D02*
D03*
Y-310038D02*
D03*
X59576Y-172413D02*
D03*
Y-181074D02*
D03*
X-14804Y-240595D02*
D03*
Y-249256D02*
D03*
X-15419Y-301177D02*
D03*
Y-309838D02*
D03*
X-167363Y-240495D02*
D03*
Y-249156D02*
D03*
X-167286Y-301377D02*
D03*
Y-310038D02*
D03*
X70049Y-172413D02*
D03*
Y-181074D02*
D03*
X-4911Y-240595D02*
D03*
Y-249256D02*
D03*
X18400Y-274469D02*
D03*
Y-283131D02*
D03*
X4981Y-240577D02*
D03*
Y-249238D02*
D03*
X4581Y-301177D02*
D03*
Y-309838D02*
D03*
X-147296Y-240495D02*
D03*
Y-249156D02*
D03*
X-147219Y-301377D02*
D03*
Y-310038D02*
D03*
D13*
X-231719Y-262812D02*
D03*
X-221719D02*
D03*
X-211719D02*
D03*
X-201719D02*
D03*
X-196719Y-288403D02*
D03*
X-201719D02*
D03*
X-206719D02*
D03*
X-211719D02*
D03*
X-216719D02*
D03*
X-221719D02*
D03*
X-226719D02*
D03*
X-231719D02*
D03*
X-196719Y-262812D02*
D03*
X-206719D02*
D03*
X-216719D02*
D03*
X-226719D02*
D03*
X-101521Y-288403D02*
D03*
X-96521D02*
D03*
X-106521D02*
D03*
X-111521D02*
D03*
X-116521D02*
D03*
X-121521D02*
D03*
X-126521D02*
D03*
X-131521D02*
D03*
Y-262812D02*
D03*
X-126521D02*
D03*
X-121521D02*
D03*
X-116521D02*
D03*
X-111521D02*
D03*
X-106521D02*
D03*
X-101521D02*
D03*
X-96521D02*
D03*
X-19Y-288403D02*
D03*
X4981D02*
D03*
X-5019D02*
D03*
X-10019D02*
D03*
X-15019D02*
D03*
X-20019D02*
D03*
X-25019D02*
D03*
X-30019D02*
D03*
Y-262812D02*
D03*
X-25019D02*
D03*
X-20019D02*
D03*
X-15019D02*
D03*
X-10019D02*
D03*
X-5019D02*
D03*
X-19D02*
D03*
X4981D02*
D03*
X-152271Y-288403D02*
D03*
X-147271D02*
D03*
X-157271D02*
D03*
X-162271D02*
D03*
X-167271D02*
D03*
X-172271D02*
D03*
X-177271D02*
D03*
X-182271D02*
D03*
Y-262812D02*
D03*
X-177271D02*
D03*
X-172271D02*
D03*
X-167271D02*
D03*
X-162271D02*
D03*
X-157271D02*
D03*
X-152271D02*
D03*
X-147271D02*
D03*
X-50770Y-288403D02*
D03*
X-45770D02*
D03*
X-55770D02*
D03*
X-60770D02*
D03*
X-65770D02*
D03*
X-70770D02*
D03*
X-75770D02*
D03*
X-80770D02*
D03*
Y-262812D02*
D03*
X-75770D02*
D03*
X-70770D02*
D03*
X-65770D02*
D03*
X-60770D02*
D03*
X-55770D02*
D03*
X-50770D02*
D03*
X-45770D02*
D03*
D14*
X86531Y-72800D02*
D03*
X77869D02*
D03*
X65994Y-72645D02*
D03*
X57332D02*
D03*
X50731Y-350300D02*
D03*
X42069D02*
D03*
D15*
X77735Y-147732D02*
D03*
X42301D02*
D03*
X67892Y-88283D02*
D03*
X79703Y-147732D02*
D03*
X40333D02*
D03*
X69861Y-88283D02*
D03*
X32459D02*
D03*
X67892Y-147732D02*
D03*
X69861D02*
D03*
X73798D02*
D03*
X54112D02*
D03*
X34427D02*
D03*
X56081D02*
D03*
X61987D02*
D03*
X71829D02*
D03*
X40333Y-88283D02*
D03*
X42301D02*
D03*
X44270D02*
D03*
X46238D02*
D03*
X48207Y-147732D02*
D03*
X44270D02*
D03*
X46238D02*
D03*
X79703Y-88283D02*
D03*
X77735D02*
D03*
X75766D02*
D03*
X73798D02*
D03*
X71829D02*
D03*
X65924D02*
D03*
X63955D02*
D03*
X61987D02*
D03*
X60018D02*
D03*
X58049D02*
D03*
X56081D02*
D03*
X54112D02*
D03*
X52144D02*
D03*
X50175D02*
D03*
X48207D02*
D03*
X38364D02*
D03*
X36396D02*
D03*
X34427D02*
D03*
X32459Y-147732D02*
D03*
X36396D02*
D03*
X38364D02*
D03*
X50175D02*
D03*
X52144D02*
D03*
X58049D02*
D03*
X60018D02*
D03*
X63955D02*
D03*
X65924D02*
D03*
X75766D02*
D03*
D16*
X26357Y-116039D02*
D03*
X85805Y-121944D02*
D03*
X26357Y-114070D02*
D03*
X85805Y-123913D02*
D03*
X26357Y-139661D02*
D03*
X85805Y-141629D02*
D03*
Y-112102D02*
D03*
Y-129818D02*
D03*
Y-131787D02*
D03*
Y-108165D02*
D03*
Y-118007D02*
D03*
Y-119976D02*
D03*
Y-98322D02*
D03*
X26357Y-119976D02*
D03*
Y-118007D02*
D03*
X85805Y-139661D02*
D03*
Y-137692D02*
D03*
Y-135724D02*
D03*
Y-133755D02*
D03*
Y-127850D02*
D03*
Y-125881D02*
D03*
Y-116039D02*
D03*
Y-114070D02*
D03*
Y-110133D02*
D03*
Y-106196D02*
D03*
Y-104228D02*
D03*
Y-102259D02*
D03*
Y-100291D02*
D03*
Y-96354D02*
D03*
Y-94385D02*
D03*
X26357D02*
D03*
Y-96354D02*
D03*
Y-98322D02*
D03*
Y-100291D02*
D03*
Y-102259D02*
D03*
Y-104228D02*
D03*
Y-106196D02*
D03*
Y-108165D02*
D03*
Y-110133D02*
D03*
Y-112102D02*
D03*
Y-121944D02*
D03*
Y-123913D02*
D03*
Y-125881D02*
D03*
Y-127850D02*
D03*
Y-129818D02*
D03*
Y-131787D02*
D03*
Y-133755D02*
D03*
Y-135724D02*
D03*
Y-137692D02*
D03*
Y-141629D02*
D03*
D17*
X48829Y-59500D02*
D03*
X64971D02*
D03*
D18*
X13704Y-187928D02*
D03*
Y-170527D02*
D03*
D19*
X-55770Y-295000D02*
Y-288403D01*
Y-300626D02*
Y-295000D01*
X-65770Y-295100D02*
Y-288403D01*
Y-300526D02*
Y-295100D01*
X-75770D02*
Y-288403D01*
Y-301127D02*
Y-295100D01*
X-25019Y-294700D02*
Y-288403D01*
Y-300777D02*
Y-294700D01*
X-15019Y-294900D02*
Y-288403D01*
Y-300777D02*
Y-294900D01*
X4981Y-294400D02*
Y-288403D01*
Y-300777D02*
Y-294400D01*
X-126521Y-294500D02*
Y-288403D01*
Y-301175D02*
Y-294500D01*
X-147271Y-294300D02*
Y-288403D01*
Y-301324D02*
Y-294300D01*
X-157271Y-294100D02*
Y-288403D01*
Y-301358D02*
Y-294100D01*
X4581Y-301177D02*
X4981Y-300777D01*
X-15419Y-301177D02*
X-15019Y-300777D01*
X-25419Y-301177D02*
X-25019Y-300777D01*
X-45770Y-299726D02*
X-44319Y-301177D01*
X-55770Y-300626D02*
X-55219Y-301177D01*
X-65770Y-300526D02*
X-65119Y-301177D01*
X-75819D02*
X-75770Y-301127D01*
X-126521Y-301175D02*
X-126519Y-301177D01*
X-147271Y-301324D02*
X-147219Y-301377D01*
X-157271Y-301358D02*
X-157252Y-301377D01*
X-196719Y-295081D02*
Y-288403D01*
X-206719Y-295081D02*
Y-288403D01*
X-216719Y-295081D02*
Y-288403D01*
X-226719Y-295081D02*
Y-288403D01*
X-106521Y-300175D02*
X-105519Y-301177D01*
X-96521Y-300175D02*
X-95519Y-301177D01*
X-111521Y-268909D02*
Y-262812D01*
X-101521Y-268909D02*
Y-262812D01*
X4981Y-262812D02*
Y-249238D01*
X4981Y-262812D02*
X4981Y-262812D01*
X-5019Y-262812D02*
Y-249364D01*
X-4911Y-249256D01*
X-15019Y-262812D02*
Y-249471D01*
X-14804Y-249256D01*
X-25019Y-262812D02*
Y-249579D01*
X-24696Y-249256D01*
X-45696Y-262738D02*
Y-249256D01*
X-45770Y-262812D02*
X-45696Y-262738D01*
X-55770Y-262812D02*
Y-249330D01*
X-55696Y-249256D01*
X-65770Y-262812D02*
Y-249330D01*
X-65696Y-249256D01*
X-75770Y-262812D02*
Y-249330D01*
X-75696Y-249256D01*
X-96419Y-262710D02*
Y-249238D01*
X-96521Y-262812D02*
X-96419Y-262710D01*
X-106521Y-262812D02*
Y-249486D01*
X-106290Y-249256D01*
X-116521Y-262812D02*
Y-249615D01*
X-116162Y-249256D01*
X-126521Y-262812D02*
Y-249744D01*
X-126033Y-249256D01*
X-147271Y-262812D02*
Y-249181D01*
X-147296Y-249156D02*
X-147271Y-249181D01*
X-157271Y-262812D02*
Y-249214D01*
X-157329Y-249156D02*
X-157271Y-249214D01*
X-167271Y-262812D02*
Y-249248D01*
X-167363Y-249156D02*
X-167271Y-249248D01*
X-177271Y-262812D02*
Y-249281D01*
X-177396Y-249156D02*
X-177271Y-249281D01*
X-232065Y-249256D02*
X-231719Y-249602D01*
X-221949Y-249256D02*
X-221719Y-249487D01*
X-211834Y-249256D02*
X-211719Y-249371D01*
X-201719Y-249238D02*
X-201719Y-249238D01*
X-182271Y-262812D02*
Y-257129D01*
X-182300Y-257100D02*
X-182271Y-257129D01*
X-172300Y-257100D02*
X-172271Y-257129D01*
Y-262812D02*
Y-257129D01*
X-162300Y-257100D02*
X-162271Y-257129D01*
Y-262812D02*
Y-257129D01*
X-152300Y-257100D02*
X-152271Y-257129D01*
Y-262812D02*
Y-257129D01*
X-131549Y-257100D02*
X-131521Y-257129D01*
Y-262812D02*
Y-257129D01*
X-121549Y-257100D02*
X-121521Y-257129D01*
Y-262812D02*
Y-257129D01*
X-80798Y-257100D02*
X-80770Y-257129D01*
Y-262812D02*
Y-257129D01*
X-70770Y-262812D02*
Y-257129D01*
X-60770Y-262812D02*
Y-257129D01*
X-50798Y-257100D02*
X-50770Y-257129D01*
Y-262812D02*
Y-257129D01*
X-30048Y-257100D02*
X-30019Y-257129D01*
Y-262812D02*
Y-257129D01*
X-20048Y-257100D02*
X-20019Y-257129D01*
Y-262812D02*
Y-257129D01*
X-10048Y-257100D02*
X-10019Y-257129D01*
Y-262812D02*
Y-257129D01*
X-48Y-257100D02*
X-19Y-257129D01*
Y-262812D02*
Y-257129D01*
X-231719Y-262812D02*
Y-255300D01*
Y-249602D01*
X-221719Y-262812D02*
Y-255500D01*
Y-249487D01*
X-211719Y-262812D02*
Y-255700D01*
Y-249371D01*
X-201719Y-262812D02*
Y-255800D01*
Y-249238D01*
X65924Y-88283D02*
Y-72715D01*
X65994Y-72645D01*
X63955Y-88283D02*
Y-82655D01*
X57332Y-76032D02*
X63955Y-82655D01*
X71829Y-88283D02*
Y-84571D01*
X91881Y-60038D02*
X91900Y-60057D01*
X91881Y-78519D02*
Y-60038D01*
X44270Y-88283D02*
Y-76800D01*
X40333Y-88283D02*
Y-82933D01*
X37300Y-79900D02*
X40333Y-82933D01*
X42301Y-88283D02*
Y-81201D01*
X40400Y-79300D02*
Y-73900D01*
Y-79300D02*
X42301Y-81201D01*
X32459Y-93666D02*
Y-88283D01*
X79703Y-93666D02*
Y-88283D01*
X85805Y-94385D02*
Y-89002D01*
X18124Y-119976D02*
X26357D01*
X18100Y-120000D02*
X18124Y-119976D01*
X79654Y-96354D02*
X85805D01*
X77807Y-118007D02*
X85805D01*
X77800Y-118000D02*
X77807Y-118007D01*
X74900Y-99600D02*
X75300Y-100000D01*
X74900Y-99600D02*
X79596D01*
X80874Y-98322D02*
X85805D01*
X79596Y-99600D02*
X80874Y-98322D01*
X80465Y-108165D02*
X85805D01*
X80000Y-107700D02*
X80465Y-108165D01*
X74800Y-107700D02*
X80000D01*
X77800Y-110400D02*
X80263D01*
X80530Y-110133D01*
X85805D01*
X77807Y-131787D02*
X85805D01*
X79318Y-129818D02*
X85805D01*
X77900Y-128400D02*
X79318Y-129818D01*
X78100Y-135200D02*
X79545Y-133755D01*
X85805D01*
X34476Y-135724D02*
X34500Y-135700D01*
X80429Y-141629D02*
X85805D01*
X78700Y-139900D02*
X80429Y-141629D01*
X17232Y-147732D02*
X32459D01*
X17200Y-147700D02*
X17232Y-147732D01*
X52144D02*
Y-138944D01*
X50300Y-137100D02*
X52144Y-138944D01*
X56081Y-147732D02*
Y-139119D01*
X58200Y-137000D01*
X58049Y-161249D02*
Y-147732D01*
Y-161249D02*
X59576Y-162776D01*
Y-172413D02*
Y-162776D01*
Y-172413D02*
X70049D01*
Y-186549D02*
Y-181074D01*
X79600Y-96300D02*
X79654Y-96354D01*
X59000Y-279600D02*
X66607D01*
X58200Y-137000D02*
X61500D01*
X62800D01*
X61500D02*
X65100D01*
X-45770Y-299726D02*
Y-294500D01*
Y-288403D01*
X33000Y-135700D02*
X34500D01*
X46238Y-94938D02*
X46300Y-95000D01*
Y-88344D01*
X46238Y-88283D02*
X46300Y-88344D01*
X-96521Y-300175D02*
Y-294200D01*
Y-288403D01*
X-106521Y-300175D02*
Y-294100D01*
Y-288403D01*
X-84700Y-263000D02*
Y-224300D01*
X21133Y-117740D02*
X21400Y-118007D01*
X26357D01*
X2140Y-117740D02*
X21133D01*
X2000Y-117600D02*
X2140Y-117740D01*
X80124Y-119976D02*
X85805D01*
X78500Y-121600D02*
X80124Y-119976D01*
X72300Y-121600D02*
X78500D01*
X85805Y-100291D02*
X90609D01*
X92700Y-98200D01*
X85805Y-102259D02*
X92141D01*
X95900Y-98500D01*
X85805Y-104228D02*
X93972D01*
X94000Y-104200D01*
X87062Y-60038D02*
X91881D01*
X28700Y-11177D02*
X30381Y-12858D01*
X23781Y-11177D02*
X28700D01*
X20522Y-98322D02*
X26357D01*
X15200Y-93000D02*
Y-39881D01*
Y-93000D02*
X20522Y-98322D01*
X15200Y-39881D02*
X23781Y-31300D01*
Y-19838D01*
X71829Y-84571D02*
X73850Y-82550D01*
X87850D01*
X91881Y-78519D01*
X-87200Y-258800D02*
Y-221700D01*
X-45770Y-288403D02*
Y-282000D01*
X26357Y-135724D02*
X34476D01*
X36700Y-58931D02*
X44893D01*
X44900Y-58938D01*
X48829Y-59500D02*
X53000D01*
X57332Y-63832D01*
Y-76032D02*
Y-72645D01*
Y-63832D01*
X65994Y-72645D02*
Y-60523D01*
X64971Y-59500D02*
X74055D01*
X74100Y-59545D01*
X26500Y-50069D02*
Y-28181D01*
X30381Y-24300D02*
Y-12858D01*
X26500Y-28181D02*
X30381Y-24300D01*
X87000Y-60100D02*
X87062Y-60038D01*
X91881D02*
X96600D01*
X82500Y-60100D02*
X87000D01*
D20*
X-5019Y-295100D02*
Y-288403D01*
Y-300877D02*
Y-295100D01*
X-116521Y-294800D02*
Y-288403D01*
Y-300275D02*
Y-294800D01*
X-167271Y-294300D02*
Y-288403D01*
Y-301362D02*
Y-294300D01*
X-5319Y-301177D02*
X-5019Y-300877D01*
X-116521Y-300275D02*
X-115619Y-301177D01*
X-167286Y-301377D02*
X-167271Y-301362D01*
X-177319Y-301377D02*
X-177271Y-301329D01*
X-201719Y-300577D02*
X-201419Y-300877D01*
X-201719Y-300577D02*
Y-288403D01*
X-211719Y-300477D02*
X-211319Y-300877D01*
X-211719Y-300477D02*
Y-288403D01*
X-221719Y-300527D02*
X-221369Y-300877D01*
X-221719Y-300527D02*
Y-288403D01*
X-231719Y-300827D02*
X-231669Y-300877D01*
X-231719Y-300827D02*
Y-288403D01*
X-221369Y-309538D02*
X-211319D01*
X-177271Y-301329D02*
Y-294700D01*
Y-288403D01*
X-87500Y-306300D02*
X-86700Y-305500D01*
X-44319Y-309838D02*
X-40038D01*
X-37900Y-307700D02*
Y-287900D01*
X-40038Y-309838D02*
X-37900Y-307700D01*
X26500Y-58731D02*
X27900Y-60131D01*
Y-84500D02*
Y-60131D01*
D21*
X-167286Y-310038D02*
X-157252D01*
X66607Y-346393D02*
Y-339600D01*
X50731Y-350300D02*
X62700D01*
X66607Y-346393D01*
X-177319Y-310038D02*
X-167286D01*
X-157252D01*
X-147219D01*
X-75819Y-309838D02*
X-65119D01*
X-55219D01*
X-25419D02*
X-15419D01*
X-5319D01*
X4581D01*
X-55219Y-314681D02*
Y-309838D01*
X-147219Y-310038D02*
X-141862D01*
X-141800Y-310100D01*
X-126400Y-316300D02*
X-87600D01*
X-81138Y-309838D02*
X-75819D01*
X-87600Y-316300D02*
X-81138Y-309838D01*
X-29738D02*
X-25419D01*
X-38400Y-318500D02*
X-29738Y-309838D01*
X-51400Y-318500D02*
X-38400D01*
X-55219Y-314681D02*
X-51400Y-318500D01*
D22*
X-31300Y-327146D02*
X26339D01*
X29993Y-334600D02*
Y-330800D01*
X26339Y-327146D02*
X29993Y-330800D01*
X86000Y-147800D02*
X90900Y-152700D01*
X79813Y-147800D02*
X86000D01*
X79744Y-147732D02*
X79813Y-147800D01*
X90900Y-172413D02*
Y-164400D01*
Y-152700D01*
X-111400Y-245704D02*
X-106290Y-240595D01*
X-111400Y-255600D02*
Y-245704D01*
D23*
X75766Y-157566D02*
Y-147732D01*
X80427Y-172413D02*
Y-162227D01*
X75766Y-157566D02*
X80427Y-162227D01*
X39437Y-172526D02*
X40333Y-171630D01*
X18870Y-114070D02*
X26357D01*
X17700Y-112900D02*
X18870Y-114070D01*
X12856Y-112900D02*
X17700D01*
X12200Y-113556D02*
X12856Y-112900D01*
X98606Y-123913D02*
X98781Y-123738D01*
X69861Y-88283D02*
Y-83039D01*
X76300Y-78200D02*
X77869Y-76631D01*
X74700Y-78200D02*
X76300D01*
X77869Y-76631D02*
Y-72800D01*
X12200Y-113556D02*
Y-108800D01*
X14400Y-106600D01*
X40333Y-154800D02*
Y-147732D01*
X85805Y-123913D02*
X92200D01*
X69861Y-83039D02*
X74700Y-78200D01*
X92200Y-123913D02*
X98606D01*
D24*
X13704Y-170527D02*
X15703Y-172526D01*
X39437D02*
Y-168437D01*
X35900Y-164900D02*
Y-159233D01*
X15703Y-172526D02*
X39437D01*
X35900Y-164900D02*
X39437Y-168437D01*
X35900Y-159233D02*
X40333Y-154800D01*
D25*
X-201737Y-240595D02*
X-201719Y-240577D01*
X-221949Y-240595D02*
X-211834D01*
X-201737D01*
X-177396Y-240495D02*
X-167363D01*
X-157329D01*
X-147296D01*
X-75696Y-240595D02*
X-65696D01*
X-55696D01*
X4963D02*
X4981Y-240577D01*
X-14804Y-240595D02*
X-4911D01*
X-231669Y-309538D02*
X-221369D01*
X-211319D01*
X-201419D01*
X-105519Y-309838D02*
X-95519D01*
X-177819Y-309538D02*
X-177319Y-310038D01*
X-96419Y-240577D02*
Y-224719D01*
X-96400Y-224700D01*
X-87200Y-215500D01*
X-45696Y-240595D02*
Y-222304D01*
X-87200Y-215500D02*
X-52500D01*
X-45696Y-222304D01*
Y-240595D02*
X-41205D01*
X-38900Y-242900D01*
Y-251700D02*
Y-242900D01*
X-201719Y-240577D02*
X-177478D01*
X-177396Y-240495D01*
X-147296D02*
X-126133D01*
X-126033Y-240595D01*
X-75696D02*
Y-218804D01*
X-75700Y-218800D02*
X-75696Y-218804D01*
X-95519Y-309838D02*
X-91038D01*
X-87500Y-306300D01*
X18531Y-274600D02*
X29993D01*
X18400Y-274469D02*
X18531Y-274600D01*
X4031Y-274469D02*
X18400D01*
X4000Y-274500D02*
X4031Y-274469D01*
X-201419Y-309538D02*
X-177819D01*
X105481Y-35419D02*
Y-23107D01*
X96600Y-51369D02*
Y-44300D01*
X105481Y-35419D01*
D26*
X4581Y-309838D02*
X12638D01*
D27*
X-4727Y-170527D02*
X13704D01*
X-24696Y-240595D02*
Y-190496D01*
X-4727Y-170527D01*
X-24696Y-240595D02*
X-14804D01*
X-4911D02*
X4963D01*
X4981Y-240577D02*
Y-234081D01*
X-116162Y-233762D02*
X-106500Y-224100D01*
X-116162Y-240595D02*
Y-233762D01*
X-232065Y-240595D02*
X-232065Y-240595D01*
X-126033D01*
X-116162D01*
D28*
X-126519Y-309838D02*
X-115619D01*
D29*
X-110100Y-350150D02*
D03*
D30*
X-105900Y-347050D02*
D03*
D31*
X-12250Y-333800D02*
D03*
D32*
X85481Y-23107D02*
D03*
X105481Y-23107D02*
D03*
X85481Y-13107D02*
D03*
X95481Y-23107D02*
D03*
X95481Y-13107D02*
D03*
D33*
X105481Y-13107D02*
D03*
D34*
X4981Y-294400D02*
D03*
X-5019Y-295100D02*
D03*
X-15019Y-294900D02*
D03*
X-25019Y-294700D02*
D03*
X-55770Y-295000D02*
D03*
X-65770Y-295100D02*
D03*
X-75770D02*
D03*
X-116521Y-294800D02*
D03*
X-126521Y-294500D02*
D03*
X-147271Y-294300D02*
D03*
X-157271Y-294100D02*
D03*
X-167271Y-294300D02*
D03*
X-196719Y-295081D02*
D03*
X-206719D02*
D03*
X-216719D02*
D03*
X-226719D02*
D03*
X-86300Y-342500D02*
D03*
X-81300Y-342500D02*
D03*
X-76300Y-342500D02*
D03*
X-71300D02*
D03*
X-66300Y-342500D02*
D03*
X-61300Y-342500D02*
D03*
X-56300Y-342500D02*
D03*
X-51300Y-342500D02*
D03*
X-46300D02*
D03*
X-41300Y-342500D02*
D03*
X-36300Y-342500D02*
D03*
X-111521Y-268909D02*
D03*
X-101521D02*
D03*
X-177271Y-294700D02*
D03*
X-86300Y-327146D02*
D03*
X-81281Y-327116D02*
D03*
X-76300Y-327146D02*
D03*
X-71300D02*
D03*
X-66300Y-327146D02*
D03*
X-61300D02*
D03*
X-56300D02*
D03*
X-56500Y-321900D02*
D03*
X-31300Y-342500D02*
D03*
X-26300Y-342500D02*
D03*
X-36300Y-327146D02*
D03*
X-31300Y-327146D02*
D03*
X-231719Y-255300D02*
D03*
X-221719Y-255500D02*
D03*
X-211719Y-255700D02*
D03*
X-201719Y-255800D02*
D03*
X-182271Y-257129D02*
D03*
X-172271D02*
D03*
X-162271D02*
D03*
X-152271D02*
D03*
X-131521D02*
D03*
X-121521D02*
D03*
X-80770D02*
D03*
X-70770D02*
D03*
X-60770D02*
D03*
X-50770D02*
D03*
X-30019D02*
D03*
X-20019D02*
D03*
X-10019D02*
D03*
X-19D02*
D03*
X44270Y-76800D02*
D03*
X37300Y-79900D02*
D03*
X40400Y-73900D02*
D03*
X32459Y-93666D02*
D03*
X79703D02*
D03*
X85805Y-89002D02*
D03*
X18100Y-120000D02*
D03*
X79600Y-96400D02*
D03*
X77800Y-118000D02*
D03*
X39700Y-97900D02*
D03*
X74900Y-99600D02*
D03*
X37100Y-107700D02*
D03*
X52800Y-110400D02*
D03*
X74800Y-107700D02*
D03*
X77800Y-110400D02*
D03*
Y-131780D02*
D03*
X77900Y-128400D02*
D03*
X78100Y-135200D02*
D03*
X6700Y-131780D02*
D03*
X46500Y-135200D02*
D03*
X78700Y-139900D02*
D03*
X49400D02*
D03*
X17232Y-147732D02*
D03*
X50300Y-137100D02*
D03*
X26800Y-145300D02*
D03*
X65100Y-137000D02*
D03*
X70049Y-186549D02*
D03*
X59000Y-279600D02*
D03*
X-32900Y-318000D02*
D03*
X-45770Y-281900D02*
D03*
X-96521Y-294200D02*
D03*
X-106521Y-294100D02*
D03*
X33000Y-135700D02*
D03*
X46300Y-95000D02*
D03*
X-84700Y-224300D02*
D03*
X-87200Y-221700D02*
D03*
X1500Y-111900D02*
D03*
X2000Y-117600D02*
D03*
X72300Y-121600D02*
D03*
X-24100Y-317800D02*
D03*
X92700Y-98200D02*
D03*
X95900Y-98500D02*
D03*
X93972Y-104228D02*
D03*
X82500Y-60100D02*
D03*
X-13238Y-330115D02*
D03*
X-87300Y-258800D02*
D03*
X-84800Y-263000D02*
D03*
X-16838Y-330115D02*
D03*
X-20438D02*
D03*
X-16838Y-333565D02*
D03*
X-13238Y-337015D02*
D03*
Y-333565D02*
D03*
X-20438D02*
D03*
X-16838Y-337015D02*
D03*
X-20438D02*
D03*
X92200Y-123913D02*
D03*
X90900Y-164400D02*
D03*
X73100Y-79700D02*
D03*
X14400Y-106600D02*
D03*
X-109100Y-352500D02*
D03*
X-105500D02*
D03*
X-109100Y-349050D02*
D03*
X-101900D02*
D03*
Y-352500D02*
D03*
X-105500Y-349050D02*
D03*
X-109100Y-345600D02*
D03*
X-105500D02*
D03*
X-101900D02*
D03*
X-101319Y-330700D02*
D03*
X86882Y-66800D02*
D03*
X35500Y-65800D02*
D03*
X40800D02*
D03*
X40100Y-69800D02*
D03*
X45200Y-68400D02*
D03*
X50600Y-73100D02*
D03*
X52000Y-78400D02*
D03*
X57000Y-80800D02*
D03*
X68500Y-79100D02*
D03*
X71500Y-76300D02*
D03*
X71800Y-70700D02*
D03*
X75600Y-66800D02*
D03*
X79500Y-66200D02*
D03*
X83900Y-85400D02*
D03*
X88400D02*
D03*
X19400Y-82800D02*
D03*
X95300Y-130700D02*
D03*
X102000Y-131000D02*
D03*
X92400Y-109100D02*
D03*
X98400Y-108600D02*
D03*
X18100Y-124500D02*
D03*
X18200Y-108900D02*
D03*
X84800Y-154000D02*
D03*
X84700Y-160200D02*
D03*
X97400Y-166500D02*
D03*
X96400Y-154600D02*
D03*
X97100Y-160100D02*
D03*
X62200Y-191600D02*
D03*
X72700Y-191800D02*
D03*
X47600Y-119400D02*
D03*
X47700Y-126500D02*
D03*
X67300Y-123900D02*
D03*
X72900Y-113900D02*
D03*
X72400Y-103300D02*
D03*
X50400Y-100900D02*
D03*
X33700Y-100100D02*
D03*
X69500Y-137100D02*
D03*
X76400Y-124500D02*
D03*
X-16100Y-343000D02*
D03*
X-16200Y-349500D02*
D03*
X-15300Y-354300D02*
D03*
X-1600Y-353200D02*
D03*
X1100Y-346100D02*
D03*
X1900Y-337600D02*
D03*
X18800Y-332700D02*
D03*
X22100Y-340100D02*
D03*
X72900Y-330800D02*
D03*
X48700Y-331400D02*
D03*
X51100Y-338200D02*
D03*
X38800Y-333200D02*
D03*
X56300Y-332800D02*
D03*
X42700Y-339200D02*
D03*
X78000D02*
D03*
X76400Y-345000D02*
D03*
X67500Y-354800D02*
D03*
X57500Y-356700D02*
D03*
X32700Y-350000D02*
D03*
X34900Y-354100D02*
D03*
X41800Y-359000D02*
D03*
X48400Y-358600D02*
D03*
X42700Y-276100D02*
D03*
X50000Y-275700D02*
D03*
X57300Y-275600D02*
D03*
X42600Y-283300D02*
D03*
X50100Y-282700D02*
D03*
X55500Y-282900D02*
D03*
X62800Y-282600D02*
D03*
X69400Y-283800D02*
D03*
X73400Y-273900D02*
D03*
X67900Y-269100D02*
D03*
X58400Y-268700D02*
D03*
X25400Y-268000D02*
D03*
X33700Y-269200D02*
D03*
X39200Y-270100D02*
D03*
X38100Y-275400D02*
D03*
X25400Y-285400D02*
D03*
X32000Y-285300D02*
D03*
X-11500Y-280800D02*
D03*
X-5400Y-277000D02*
D03*
X3100Y-281700D02*
D03*
X-34700Y-292100D02*
D03*
X-38000Y-282400D02*
D03*
X-82500Y-302400D02*
D03*
X-180800Y-331300D02*
D03*
X-162800Y-330900D02*
D03*
X-152800Y-330800D02*
D03*
X-138400Y-331000D02*
D03*
X-126300Y-343300D02*
D03*
X-226800Y-255400D02*
D03*
X-216000D02*
D03*
X-206100Y-255300D02*
D03*
X-188500Y-255600D02*
D03*
X-136800Y-252000D02*
D03*
X-140200Y-255300D02*
D03*
X-102500Y-256100D02*
D03*
X-91400Y-255400D02*
D03*
X-39300Y-256500D02*
D03*
X-239200Y-319100D02*
D03*
X-237400Y-330700D02*
D03*
X-228600Y-342100D02*
D03*
X-223100Y-347100D02*
D03*
X-209300Y-351400D02*
D03*
X-197900Y-349600D02*
D03*
X-196900Y-355100D02*
D03*
X-219600Y-355200D02*
D03*
X-229900Y-352900D02*
D03*
X-236800Y-340900D02*
D03*
X-229500Y-333300D02*
D03*
X-223300Y-340700D02*
D03*
X-211800Y-357500D02*
D03*
X-203200Y-357300D02*
D03*
X-192600Y-350600D02*
D03*
X-192700Y-357700D02*
D03*
X-222700Y-318700D02*
D03*
X-220300Y-329700D02*
D03*
X-213400Y-337500D02*
D03*
X-212100Y-322100D02*
D03*
X-202800Y-322900D02*
D03*
X-143900Y-345400D02*
D03*
X-136700Y-345500D02*
D03*
X-131100Y-349400D02*
D03*
X-126000Y-355100D02*
D03*
X-243300Y-205600D02*
D03*
X-243000Y-211700D02*
D03*
X-242900Y-217800D02*
D03*
Y-224300D02*
D03*
X-242700Y-230600D02*
D03*
Y-236700D02*
D03*
X-242400Y-243300D02*
D03*
X-242200Y-249700D02*
D03*
X-243000Y-254300D02*
D03*
X-243300Y-260400D02*
D03*
X-243100Y-265100D02*
D03*
X-242700Y-270800D02*
D03*
X-243400Y-276500D02*
D03*
X-242900Y-283100D02*
D03*
X-243500Y-290600D02*
D03*
X-243700Y-298200D02*
D03*
X-242800Y-306700D02*
D03*
X-243500Y-312300D02*
D03*
X-243700Y-319400D02*
D03*
Y-324900D02*
D03*
X-244400Y-331200D02*
D03*
X-243800Y-335200D02*
D03*
Y-340700D02*
D03*
X-244000Y-346000D02*
D03*
X-243700Y-352600D02*
D03*
X-243800Y-358000D02*
D03*
X-237500Y-358100D02*
D03*
X-233200Y-358200D02*
D03*
X-228200Y-357900D02*
D03*
X-221800Y-358400D02*
D03*
X-217200Y-358300D02*
D03*
X-239000Y-202700D02*
D03*
X-234500Y-205600D02*
D03*
X-230200Y-208600D02*
D03*
X-225200Y-211100D02*
D03*
X-220600Y-214100D02*
D03*
X-215300Y-216100D02*
D03*
X-209400Y-218700D02*
D03*
X-205100Y-220500D02*
D03*
X-198700Y-222500D02*
D03*
X-188200Y-224800D02*
D03*
X-234600Y-214700D02*
D03*
X-234300Y-219600D02*
D03*
X-237300Y-226600D02*
D03*
X-227400Y-224700D02*
D03*
X-224600Y-218800D02*
D03*
X-214300Y-224200D02*
D03*
X-192200Y-249800D02*
D03*
X-91200Y-226100D02*
D03*
X-101600Y-227200D02*
D03*
X-118106Y-226619D02*
D03*
X-75800Y-211300D02*
D03*
X-65500Y-206600D02*
D03*
X-69700Y-210100D02*
D03*
X-60400Y-200800D02*
D03*
X-54900Y-196100D02*
D03*
X-48500Y-191500D02*
D03*
X-43400Y-186500D02*
D03*
X-37900Y-180400D02*
D03*
X-32600Y-174800D02*
D03*
X-27900Y-168500D02*
D03*
X-23400Y-161200D02*
D03*
X-19200Y-153000D02*
D03*
X-14200Y-145900D02*
D03*
X-10600Y-138200D02*
D03*
X-8900Y-126700D02*
D03*
X-6400Y-130300D02*
D03*
X-8200Y-143000D02*
D03*
X-11000Y-150600D02*
D03*
X-17500Y-158500D02*
D03*
X-3700Y-110700D02*
D03*
X-1900Y-103700D02*
D03*
X-1000Y-97500D02*
D03*
X-800Y-90400D02*
D03*
X-500Y-82900D02*
D03*
X-300Y-75200D02*
D03*
X-500Y-67900D02*
D03*
X-200Y-60000D02*
D03*
X-500Y-50800D02*
D03*
X-1000Y-41500D02*
D03*
X-800Y-33900D02*
D03*
X-1400Y-26800D02*
D03*
X-1100Y-19400D02*
D03*
X-700Y-10900D02*
D03*
X400Y-4600D02*
D03*
X7100Y-3200D02*
D03*
X13600Y-3500D02*
D03*
X18600Y-3600D02*
D03*
X22400Y-3700D02*
D03*
X28500Y-3400D02*
D03*
X34700Y-3800D02*
D03*
X6800Y-8900D02*
D03*
X5200Y-20600D02*
D03*
X4000Y-35800D02*
D03*
X5700Y-50900D02*
D03*
X11600Y-40000D02*
D03*
X10700Y-26900D02*
D03*
X13500Y-13500D02*
D03*
X18400Y-28500D02*
D03*
X23300Y-42000D02*
D03*
X21000Y-47700D02*
D03*
X19600Y-54900D02*
D03*
X19200Y-65400D02*
D03*
X23200Y-70300D02*
D03*
X34700Y-70600D02*
D03*
X8200Y-63600D02*
D03*
X36800Y-33800D02*
D03*
X43800Y-37900D02*
D03*
X49300Y-44200D02*
D03*
X48200Y-48800D02*
D03*
X56900Y-48100D02*
D03*
X63300Y-42300D02*
D03*
X63100Y-34000D02*
D03*
X53300Y-34600D02*
D03*
X56800Y-41200D02*
D03*
X68900Y-35500D02*
D03*
X71200Y-41700D02*
D03*
X66200Y-48000D02*
D03*
X71300D02*
D03*
X67300Y-27100D02*
D03*
X67900Y-16800D02*
D03*
X66200Y-6400D02*
D03*
X75200Y-5800D02*
D03*
X73800Y-15500D02*
D03*
X72900Y-28300D02*
D03*
X75200Y-35900D02*
D03*
X80300Y-3600D02*
D03*
X68800Y-2400D02*
D03*
X86600Y-3000D02*
D03*
X94900Y-3100D02*
D03*
X101000Y-3000D02*
D03*
X108100Y-3300D02*
D03*
X114300Y-3700D02*
D03*
X119200Y-3800D02*
D03*
X118100Y-9100D02*
D03*
X118900Y-17400D02*
D03*
X118600Y-23800D02*
D03*
X118900Y-33100D02*
D03*
X119800Y-42300D02*
D03*
X114600Y-35800D02*
D03*
X113400Y-29900D02*
D03*
X118300Y-28500D02*
D03*
X119900Y-38100D02*
D03*
X119300Y-51100D02*
D03*
X111700Y-46400D02*
D03*
X116000Y-40900D02*
D03*
X117200Y-47900D02*
D03*
X115400Y-61500D02*
D03*
X116700Y-70600D02*
D03*
X118300Y-81900D02*
D03*
X116400Y-94600D02*
D03*
Y-101700D02*
D03*
X118100Y-110700D02*
D03*
X119500Y-93500D02*
D03*
X118300Y-88000D02*
D03*
X119300Y-72800D02*
D03*
X119800Y-62200D02*
D03*
X119000Y-55200D02*
D03*
X110500Y-52300D02*
D03*
X111400Y-64400D02*
D03*
X119900Y-100500D02*
D03*
X120100Y-105200D02*
D03*
X120300Y-114100D02*
D03*
Y-120900D02*
D03*
X119900Y-125800D02*
D03*
Y-131100D02*
D03*
X120100Y-136000D02*
D03*
Y-143000D02*
D03*
Y-147900D02*
D03*
X120300Y-154300D02*
D03*
X119800Y-160700D02*
D03*
X119600Y-168700D02*
D03*
X119800Y-176200D02*
D03*
X119600Y-182400D02*
D03*
X119900Y-187900D02*
D03*
X118800Y-196400D02*
D03*
X119200Y-203700D02*
D03*
X118800Y-207400D02*
D03*
X111400Y-207600D02*
D03*
X102400D02*
D03*
X88700D02*
D03*
X78000Y-207700D02*
D03*
X69900Y-207900D02*
D03*
X59400Y-208100D02*
D03*
X49100Y-207600D02*
D03*
X29400Y-222200D02*
D03*
X27100Y-232900D02*
D03*
Y-247000D02*
D03*
X26200Y-257000D02*
D03*
X30000Y-252800D02*
D03*
X28700Y-237500D02*
D03*
X80300Y-270300D02*
D03*
X81300Y-277800D02*
D03*
X81800Y-286000D02*
D03*
X80900Y-294000D02*
D03*
X69800Y-296600D02*
D03*
X64500Y-291900D02*
D03*
X18500Y-292200D02*
D03*
X25600Y-293900D02*
D03*
X44200D02*
D03*
X53200Y-293700D02*
D03*
X83100Y-311800D02*
D03*
X82600Y-316800D02*
D03*
X82100Y-323500D02*
D03*
Y-330900D02*
D03*
X81300Y-336200D02*
D03*
Y-345300D02*
D03*
X81800Y-352200D02*
D03*
Y-357000D02*
D03*
X76300Y-358200D02*
D03*
Y-353700D02*
D03*
X2700Y-358900D02*
D03*
X12400Y-358400D02*
D03*
X23700Y-358900D02*
D03*
X32500Y-359900D02*
D03*
X44800Y-314700D02*
D03*
X54600Y-320400D02*
D03*
X42600Y-321400D02*
D03*
X18200Y-315500D02*
D03*
X29800Y-321200D02*
D03*
X27500Y-315500D02*
D03*
X40300Y-329500D02*
D03*
X47600Y-325700D02*
D03*
X54900Y-327300D02*
D03*
X52900Y-313300D02*
D03*
X69300Y-314900D02*
D03*
X76700Y-313000D02*
D03*
X76400Y-320100D02*
D03*
X66700Y-326000D02*
D03*
X64400Y-320200D02*
D03*
X64100Y-311300D02*
D03*
X72100Y-323200D02*
D03*
X6700Y-341400D02*
D03*
X9600Y-349000D02*
D03*
X17400Y-353300D02*
D03*
X26000Y-352100D02*
D03*
X-80200Y-359000D02*
D03*
X-74700D02*
D03*
X-67800D02*
D03*
X-61300D02*
D03*
X-55100Y-359300D02*
D03*
X-48300Y-358900D02*
D03*
X-40200Y-358500D02*
D03*
X-29600Y-359100D02*
D03*
X-20200Y-358800D02*
D03*
X-35900Y-358700D02*
D03*
X-11200Y-358500D02*
D03*
X-3100Y-358600D02*
D03*
X-8200Y-353600D02*
D03*
X107500Y-138800D02*
D03*
X106700Y-151500D02*
D03*
X108300Y-163300D02*
D03*
X106700Y-180500D02*
D03*
X108300Y-192400D02*
D03*
X83800Y-199600D02*
D03*
X97200Y-191200D02*
D03*
X99100Y-200000D02*
D03*
X63500Y-121900D02*
D03*
X109700Y-76300D02*
D03*
X110500Y-82600D02*
D03*
X112000Y-91500D02*
D03*
X109600Y-108800D02*
D03*
X-49800Y-269600D02*
D03*
X-89400Y-266100D02*
D03*
X-36200Y-268100D02*
D03*
X-5500Y-268700D02*
D03*
X-13700Y-268800D02*
D03*
X-129900Y-271800D02*
D03*
X-129300Y-278300D02*
D03*
X-116500Y-276200D02*
D03*
X-108900Y-276000D02*
D03*
X-103800D02*
D03*
X-99300Y-276200D02*
D03*
X-228600Y-272100D02*
D03*
X-221700Y-272900D02*
D03*
X-211400Y-273200D02*
D03*
X-203000Y-272700D02*
D03*
X-200200Y-275600D02*
D03*
X-202400Y-279400D02*
D03*
X-214100Y-279200D02*
D03*
X-225400Y-278500D02*
D03*
X-230900Y-279400D02*
D03*
X-219800Y-277000D02*
D03*
X-178000Y-281400D02*
D03*
X-166100Y-281100D02*
D03*
X-155200D02*
D03*
X-146400D02*
D03*
X-160000Y-281400D02*
D03*
X-173400Y-280200D02*
D03*
X-142700Y-287500D02*
D03*
X-182300Y-317200D02*
D03*
X-172500Y-318400D02*
D03*
X-159700Y-317900D02*
D03*
X-147900Y-318300D02*
D03*
X-137300Y-315100D02*
D03*
X-81200Y-280600D02*
D03*
X-74500Y-280700D02*
D03*
X-67300Y-281000D02*
D03*
X-61100Y-280900D02*
D03*
X-86700Y-284600D02*
D03*
X-28500Y-281600D02*
D03*
D35*
X12638Y-309838D02*
D03*
X-96400Y-224700D02*
D03*
X-38900Y-251700D02*
D03*
X-75696Y-218804D02*
D03*
X-106500Y-224100D02*
D03*
X4981Y-234081D02*
D03*
X-87500Y-306300D02*
D03*
X66607Y-346393D02*
D03*
X35900Y-159233D02*
D03*
Y-164900D02*
D03*
X27900Y-84500D02*
D03*
X-111400Y-255600D02*
D03*
X-121200Y-309800D02*
D03*
X-141862Y-310038D02*
D03*
X-126400Y-316300D02*
D03*
X4000Y-274500D02*
D03*
X-29400Y-322200D02*
D03*
X-240100Y-349000D02*
D03*
X-37900Y-287900D02*
D03*
X-92900Y-341800D02*
D03*
X-99100Y-341700D02*
D03*
X-105000Y-341600D02*
D03*
M02*
