G04*
G04 #@! TF.GenerationSoftware,Altium Limited,Altium Designer,23.10.1 (27)*
G04*
G04 Layer_Physical_Order=4*
G04 Layer_Color=16711680*
%FSLAX25Y25*%
%MOIN*%
G70*
G04*
G04 #@! TF.SameCoordinates,11ED35D2-EC07-4038-AA85-49FD2C925FBF*
G04*
G04*
G04 #@! TF.FilePolarity,Positive*
G04*
G01*
G75*
%ADD10C,0.01000*%
%ADD14R,0.03347X0.02756*%
%ADD28C,0.02000*%
%ADD29C,0.03000*%
%ADD30C,0.02500*%
%ADD31C,0.04000*%
%ADD32C,0.08000*%
%ADD33C,0.19685*%
%ADD34R,0.05906X0.05906*%
%ADD35C,0.05906*%
%ADD36C,0.07087*%
%ADD37C,0.09843*%
%ADD38C,0.11811*%
%ADD39C,0.02000*%
%ADD40C,0.04000*%
%ADD41C,0.04500*%
%ADD42R,0.09843X0.12992*%
%ADD43R,0.10630X0.03937*%
%ADD44R,0.06299X0.12598*%
%ADD45R,0.02756X0.03347*%
%ADD46R,0.08000X0.03000*%
%ADD47R,0.03543X0.05906*%
%ADD48R,0.03937X0.07087*%
%ADD49O,0.06890X0.02362*%
%ADD50R,0.07480X0.11811*%
%ADD51R,0.13780X0.05118*%
%ADD52R,0.12992X0.09843*%
%ADD53R,0.03937X0.10630*%
%ADD54R,0.09637X0.15830*%
G36*
X392766Y521533D02*
Y477673D01*
X387322D01*
Y477026D01*
X378537D01*
X378362Y477201D01*
X377449Y477727D01*
X376432Y478000D01*
X375379D01*
X374362Y477727D01*
X373449Y477201D01*
X372705Y476456D01*
X372178Y475544D01*
X371905Y474527D01*
Y473473D01*
X372178Y472456D01*
X372705Y471544D01*
X373449Y470799D01*
X374362Y470273D01*
X375379Y470000D01*
X376432D01*
X377449Y470273D01*
X378362Y470799D01*
X378537Y470974D01*
X387322D01*
Y470327D01*
X392766D01*
Y424373D01*
X386122D01*
Y423726D01*
X377337D01*
X377162Y423901D01*
X376249Y424427D01*
X375232Y424700D01*
X374179D01*
X373162Y424427D01*
X372249Y423901D01*
X371505Y423156D01*
X370978Y422244D01*
X370706Y421227D01*
Y420173D01*
X370978Y419156D01*
X371505Y418244D01*
X372249Y417499D01*
X373162Y416973D01*
X374179Y416700D01*
X375232D01*
X376249Y416973D01*
X377162Y417499D01*
X377337Y417674D01*
X386122D01*
Y417027D01*
X392766D01*
Y416131D01*
X392370Y415826D01*
X392095Y415900D01*
X391305D01*
X390542Y415696D01*
X389858Y415301D01*
X389299Y414742D01*
X388904Y414058D01*
X388700Y413295D01*
Y412505D01*
X388904Y411742D01*
X389299Y411058D01*
X389858Y410499D01*
X390542Y410104D01*
X391305Y409900D01*
X392095D01*
X392370Y409974D01*
X392766Y409669D01*
Y372173D01*
X386117D01*
Y371526D01*
X377331D01*
X377156Y371701D01*
X376244Y372227D01*
X375227Y372500D01*
X374173D01*
X373156Y372227D01*
X372244Y371701D01*
X371499Y370956D01*
X370973Y370044D01*
X370700Y369027D01*
Y367973D01*
X370973Y366956D01*
X371499Y366044D01*
X372244Y365299D01*
X373156Y364773D01*
X374173Y364500D01*
X375227D01*
X376244Y364773D01*
X377156Y365299D01*
X377331Y365474D01*
X386117D01*
Y364827D01*
X392766D01*
Y363549D01*
X389785D01*
X389358Y363796D01*
X388595Y364000D01*
X387805D01*
X387042Y363796D01*
X386358Y363401D01*
X385799Y362842D01*
X385404Y362158D01*
X385200Y361395D01*
Y360605D01*
X385404Y359842D01*
X385799Y359158D01*
X386358Y358599D01*
X387042Y358204D01*
X387805Y358000D01*
X388595D01*
X389358Y358204D01*
X389785Y358451D01*
X392766D01*
Y330854D01*
X392651Y330681D01*
X392457Y329706D01*
Y319073D01*
X385722D01*
Y318426D01*
X376937D01*
X376762Y318601D01*
X375849Y319127D01*
X374832Y319400D01*
X373779D01*
X372762Y319127D01*
X371849Y318601D01*
X371105Y317856D01*
X370578Y316944D01*
X370305Y315927D01*
Y314873D01*
X370578Y313856D01*
X371105Y312944D01*
X371849Y312199D01*
X372762Y311673D01*
X373779Y311400D01*
X374832D01*
X375849Y311673D01*
X376762Y312199D01*
X376937Y312374D01*
X385368D01*
X385577Y312165D01*
X385565Y311586D01*
X385357Y311400D01*
X385205D01*
X384442Y311196D01*
X383758Y310801D01*
X383199Y310242D01*
X382804Y309558D01*
X382600Y308795D01*
Y308005D01*
X382804Y307242D01*
X383199Y306558D01*
X383758Y305999D01*
X384442Y305604D01*
X385205Y305400D01*
X385995D01*
X386758Y305604D01*
X387185Y305851D01*
X392766D01*
Y264973D01*
X386616D01*
Y264326D01*
X377831D01*
X377656Y264501D01*
X376744Y265027D01*
X375727Y265300D01*
X374673D01*
X373656Y265027D01*
X372744Y264501D01*
X371999Y263756D01*
X371473Y262844D01*
X371200Y261827D01*
Y260773D01*
X371473Y259756D01*
X371999Y258844D01*
X372744Y258099D01*
X373656Y257573D01*
X374673Y257300D01*
X375727D01*
X376744Y257573D01*
X377656Y258099D01*
X377831Y258274D01*
X380056D01*
X380345Y257774D01*
X380104Y257358D01*
X379900Y256595D01*
Y255805D01*
X380104Y255042D01*
X380499Y254358D01*
X381058Y253799D01*
X381178Y253730D01*
X381044Y253230D01*
X368362D01*
X360210Y261382D01*
Y261975D01*
X365584Y267349D01*
X366105Y268027D01*
X366146Y268127D01*
X372678D01*
Y275473D01*
X372678D01*
Y282473D01*
X360016D01*
Y282441D01*
X359517Y282376D01*
X358630Y283262D01*
Y287497D01*
X381139D01*
Y286847D01*
X381380D01*
Y284830D01*
X380500D01*
X380271Y284800D01*
X374500D01*
Y277800D01*
X380271D01*
X380500Y277770D01*
X383000D01*
X383229Y277800D01*
X386500D01*
Y279807D01*
X387406Y280714D01*
X387967Y281445D01*
X388320Y282297D01*
X388440Y283210D01*
Y286847D01*
X388682D01*
Y296753D01*
X381139D01*
Y294558D01*
X358574D01*
X358141Y294991D01*
X357012Y295643D01*
X355752Y295980D01*
X354448D01*
X353188Y295643D01*
X352059Y294991D01*
X351137Y294069D01*
X350485Y292939D01*
X350147Y291680D01*
Y290375D01*
X350485Y289116D01*
X351137Y287986D01*
X351570Y287554D01*
Y281800D01*
X351690Y280886D01*
X352043Y280035D01*
X352604Y279304D01*
X353905Y278003D01*
X355604Y276304D01*
X356335Y275743D01*
X357186Y275390D01*
X358100Y275270D01*
X360016D01*
Y275127D01*
X360016D01*
Y271885D01*
X359988Y271672D01*
Y271024D01*
X355417Y266453D01*
X354448D01*
X353188Y266115D01*
X352059Y265463D01*
X351374Y264778D01*
X344158D01*
X341878Y267058D01*
Y311322D01*
X351374D01*
X352059Y310637D01*
X353188Y309985D01*
X354448Y309647D01*
X355752D01*
X357012Y309985D01*
X358141Y310637D01*
X359063Y311559D01*
X359715Y312688D01*
X360053Y313948D01*
Y314917D01*
X365584Y320449D01*
X366105Y321128D01*
X366312Y321627D01*
X372678D01*
Y328973D01*
X372678D01*
X372678Y329227D01*
X372678D01*
Y336573D01*
X363502D01*
X363272Y336603D01*
X358630D01*
Y340653D01*
X359060Y341084D01*
X381825D01*
X381991Y340584D01*
X380504Y339096D01*
X379943Y338365D01*
X379626Y337600D01*
X374500D01*
Y330600D01*
X380271D01*
X380500Y330570D01*
X383000D01*
X383229Y330600D01*
X386500D01*
Y333871D01*
X386530Y334100D01*
Y335138D01*
X388135Y336742D01*
X388696Y337474D01*
X389049Y338325D01*
X389169Y339239D01*
X389169Y339239D01*
Y340147D01*
X389682D01*
Y350053D01*
X382139D01*
Y348144D01*
X358049D01*
X357012Y348743D01*
X355752Y349080D01*
X354448D01*
X353188Y348743D01*
X352059Y348091D01*
X351137Y347169D01*
X350485Y346039D01*
X350147Y344780D01*
Y343476D01*
X350485Y342216D01*
X351137Y341087D01*
X351570Y340653D01*
Y334831D01*
X351690Y333917D01*
X352043Y333066D01*
X352604Y332334D01*
X354361Y330577D01*
X355092Y330016D01*
X355944Y329663D01*
X356857Y329543D01*
X359647D01*
X360016Y329227D01*
X360016Y328973D01*
X360016D01*
Y325385D01*
X359988Y325172D01*
Y324124D01*
X355417Y319553D01*
X354448D01*
X353188Y319215D01*
X352059Y318563D01*
X351374Y317878D01*
X341878D01*
Y364422D01*
X351374D01*
X352059Y363737D01*
X353188Y363085D01*
X354448Y362747D01*
X355752D01*
X357012Y363085D01*
X358141Y363737D01*
X359063Y364659D01*
X359715Y365788D01*
X360053Y367048D01*
Y368017D01*
X365463Y373427D01*
X372678D01*
Y376109D01*
X372710Y376186D01*
X372830Y377100D01*
X372830Y377100D01*
Y384200D01*
X372710Y385114D01*
X372678Y385191D01*
Y387873D01*
X360017D01*
X360016Y387873D01*
Y387873D01*
X360016Y387873D01*
X359576Y388017D01*
X358630Y388962D01*
Y393584D01*
X382539D01*
Y392047D01*
X382539D01*
X382655Y391547D01*
X381538Y390430D01*
X380500D01*
X380271Y390400D01*
X374500D01*
Y383400D01*
X380271D01*
X380500Y383370D01*
X383000D01*
X383229Y383400D01*
X386500D01*
Y385407D01*
X388896Y387804D01*
X389457Y388535D01*
X389810Y389386D01*
X389930Y390300D01*
X389930Y390300D01*
Y392047D01*
X390082D01*
Y401953D01*
X382539D01*
Y400644D01*
X358688D01*
X358141Y401191D01*
X357012Y401843D01*
X355752Y402180D01*
X354448D01*
X353188Y401843D01*
X352059Y401191D01*
X351137Y400269D01*
X350485Y399139D01*
X350147Y397880D01*
Y396575D01*
X350485Y395316D01*
X351137Y394186D01*
X351570Y393754D01*
Y387500D01*
X351690Y386586D01*
X352043Y385735D01*
X352604Y385004D01*
X355904Y381704D01*
X355904Y381704D01*
X356635Y381143D01*
X357486Y380790D01*
X358400Y380670D01*
X360016D01*
Y380527D01*
X360016D01*
Y377252D01*
X355417Y372653D01*
X354448D01*
X353188Y372315D01*
X352059Y371663D01*
X351374Y370978D01*
X341878D01*
Y417522D01*
X351374D01*
X352059Y416837D01*
X353188Y416185D01*
X354448Y415847D01*
X355752D01*
X357012Y416185D01*
X358141Y416837D01*
X359063Y417759D01*
X359715Y418888D01*
X360053Y420148D01*
Y421117D01*
X365263Y426327D01*
X372678D01*
Y429009D01*
X372710Y429086D01*
X372830Y430000D01*
X372830Y430000D01*
Y438000D01*
X372710Y438914D01*
X372678Y438991D01*
Y441673D01*
X366803D01*
Y442155D01*
X366803Y442155D01*
X366682Y443069D01*
X366330Y443920D01*
X365769Y444651D01*
X364085Y446335D01*
X364276Y446797D01*
X381898D01*
X382105Y446297D01*
X380504Y444696D01*
X379943Y443965D01*
X379626Y443200D01*
X374500D01*
Y436200D01*
X380271D01*
X380500Y436170D01*
X383000D01*
X383229Y436200D01*
X386500D01*
Y439471D01*
X386530Y439700D01*
Y440738D01*
X388435Y442642D01*
X388996Y443373D01*
X389349Y444225D01*
X389469Y445139D01*
Y445747D01*
X389982D01*
Y455653D01*
X382439D01*
Y453858D01*
X358574D01*
X358141Y454291D01*
X357012Y454943D01*
X355752Y455280D01*
X354448D01*
X353188Y454943D01*
X352059Y454291D01*
X351137Y453369D01*
X350485Y452239D01*
X350147Y450980D01*
Y449676D01*
X350485Y448416D01*
X351137Y447287D01*
X352059Y446364D01*
X353188Y445712D01*
X354448Y445375D01*
X355060D01*
X359742Y440693D01*
Y438122D01*
X359862Y437208D01*
X360016Y436837D01*
Y434327D01*
X365770D01*
Y433673D01*
X360016D01*
Y430352D01*
X355417Y425753D01*
X354448D01*
X353188Y425415D01*
X352059Y424763D01*
X351374Y424078D01*
X341878D01*
Y456042D01*
X354783Y468947D01*
X355752D01*
X357012Y469285D01*
X358141Y469937D01*
X359063Y470859D01*
X359715Y471988D01*
X360053Y473248D01*
Y474217D01*
X365584Y479749D01*
X365951Y480227D01*
X372678D01*
Y487573D01*
X372326D01*
Y488227D01*
X372678D01*
Y495573D01*
X364296D01*
X359929Y499940D01*
X360121Y500402D01*
X382239D01*
Y497447D01*
X382984D01*
Y496764D01*
X382221Y496000D01*
X374500D01*
Y489000D01*
X386500D01*
Y491721D01*
X388150Y493371D01*
X388631Y493997D01*
X388933Y494727D01*
X389036Y495510D01*
Y497447D01*
X389782D01*
Y507353D01*
X382239D01*
Y506453D01*
X359072D01*
X359063Y506469D01*
X358141Y507391D01*
X357012Y508043D01*
X355752Y508380D01*
X354448D01*
X353188Y508043D01*
X352059Y507391D01*
X351137Y506469D01*
X350485Y505339D01*
X350147Y504080D01*
Y502775D01*
X350485Y501516D01*
X351137Y500386D01*
X352059Y499464D01*
X352924Y498965D01*
X352924Y498959D01*
X353227Y498230D01*
X353708Y497603D01*
X360016Y491294D01*
Y488227D01*
X366274D01*
Y487573D01*
X360016D01*
Y483985D01*
X359988Y483772D01*
Y483424D01*
X355417Y478853D01*
X354448D01*
X353188Y478515D01*
X352059Y477863D01*
X351137Y476941D01*
X350485Y475812D01*
X350147Y474552D01*
Y473583D01*
X336282Y459718D01*
X335761Y459039D01*
X335434Y458248D01*
X335378Y457824D01*
X335322Y457400D01*
Y420100D01*
Y367900D01*
Y315000D01*
Y265700D01*
X335378Y265276D01*
X335434Y264852D01*
X335761Y264061D01*
X336282Y263382D01*
X340482Y259182D01*
X341161Y258661D01*
X341952Y258334D01*
X342800Y258222D01*
X351374D01*
X352059Y257537D01*
X353188Y256885D01*
X354448Y256547D01*
X355060D01*
X364404Y247204D01*
X365135Y246643D01*
X365986Y246290D01*
X366900Y246170D01*
X392766D01*
Y210973D01*
X386922D01*
Y210326D01*
X378136D01*
X377962Y210501D01*
X377049Y211027D01*
X376032Y211300D01*
X374979D01*
X373962Y211027D01*
X373049Y210501D01*
X372305Y209756D01*
X371778Y208844D01*
X371505Y207827D01*
Y206773D01*
X371778Y205756D01*
X372305Y204844D01*
X373049Y204099D01*
X373962Y203573D01*
X374979Y203300D01*
X376032D01*
X376988Y203556D01*
X377144Y203437D01*
X377337Y203162D01*
X377104Y202758D01*
X376900Y201995D01*
Y201205D01*
X377104Y200442D01*
X377499Y199758D01*
X378058Y199199D01*
X378742Y198804D01*
X379505Y198600D01*
X380295D01*
X381058Y198804D01*
X381485Y199051D01*
X392766D01*
Y195920D01*
X392267Y195726D01*
X391729Y196139D01*
X390938Y196466D01*
X390514Y196522D01*
X390090Y196578D01*
X341878D01*
Y206322D01*
X351513D01*
X352198Y205637D01*
X353328Y204985D01*
X354587Y204647D01*
X355891D01*
X357151Y204985D01*
X358280Y205637D01*
X359203Y206559D01*
X359855Y207688D01*
X360159Y208823D01*
X365584Y214249D01*
X366105Y214928D01*
X366433Y215718D01*
X366460Y215927D01*
X372678D01*
Y223273D01*
X372678D01*
X372678Y223427D01*
X372678D01*
Y230773D01*
X360016D01*
Y230741D01*
X359517Y230676D01*
X358770Y231423D01*
Y235653D01*
X359203Y236087D01*
X359539Y236670D01*
X381139D01*
Y235247D01*
X381380D01*
Y232030D01*
X380500D01*
X380271Y232000D01*
X374500D01*
Y225000D01*
X380271D01*
X380500Y224970D01*
X383000D01*
X383229Y225000D01*
X386500D01*
Y227008D01*
X387406Y227914D01*
X387967Y228645D01*
X388320Y229497D01*
X388440Y230410D01*
Y235247D01*
X388682D01*
Y245153D01*
X381139D01*
Y243730D01*
X357173D01*
X357151Y243743D01*
X355891Y244080D01*
X354587D01*
X353328Y243743D01*
X352198Y243091D01*
X351276Y242169D01*
X350624Y241039D01*
X350287Y239780D01*
Y238475D01*
X350624Y237216D01*
X351276Y236087D01*
X351709Y235653D01*
Y229961D01*
X351830Y229047D01*
X352182Y228196D01*
X352743Y227464D01*
X355604Y224604D01*
X356335Y224043D01*
X357186Y223690D01*
X358100Y223570D01*
X359639D01*
X360016Y223273D01*
Y219685D01*
X359988Y219472D01*
Y217924D01*
X356464Y214399D01*
X355891Y214553D01*
X354587D01*
X353328Y214215D01*
X352198Y213563D01*
X351513Y212878D01*
X339800D01*
X338952Y212766D01*
X338161Y212439D01*
X337482Y211918D01*
X336282Y210718D01*
X335761Y210039D01*
X335434Y209248D01*
X335378Y208824D01*
X335322Y208400D01*
Y193300D01*
Y171800D01*
X335378Y171376D01*
X335434Y170952D01*
X335761Y170161D01*
X336282Y169482D01*
X350147Y155617D01*
Y154648D01*
X350485Y153388D01*
X351137Y152259D01*
X352059Y151337D01*
X353188Y150685D01*
X354448Y150347D01*
X355752D01*
X357012Y150685D01*
X358141Y151337D01*
X359063Y152259D01*
X359715Y153388D01*
X360053Y154648D01*
Y155617D01*
X365584Y161149D01*
X366105Y161828D01*
X366433Y162618D01*
X366500Y163127D01*
X372678D01*
Y170473D01*
X372678D01*
Y177773D01*
X363502D01*
X363272Y177803D01*
X360889D01*
X359186Y179506D01*
Y181384D01*
X379954D01*
X380190Y180943D01*
X380145Y180876D01*
X379951Y179900D01*
Y179200D01*
X374500D01*
Y172200D01*
X386500D01*
Y179200D01*
X385891D01*
X385648Y179617D01*
X385845Y180047D01*
X388382D01*
Y189665D01*
X388882Y189872D01*
X392766Y185987D01*
Y161373D01*
X386216D01*
Y160726D01*
X377431D01*
X377256Y160901D01*
X376344Y161427D01*
X375327Y161700D01*
X374273D01*
X373256Y161427D01*
X372344Y160901D01*
X371599Y160156D01*
X371073Y159244D01*
X370800Y158227D01*
Y157173D01*
X371073Y156156D01*
X371599Y155244D01*
X372344Y154499D01*
X373256Y153973D01*
X374273Y153700D01*
X375327D01*
X376344Y153973D01*
X377256Y154499D01*
X377431Y154674D01*
X386216D01*
Y154027D01*
X396373D01*
X414400Y136000D01*
X456100D01*
X465600Y145500D01*
Y197120D01*
X471922Y203443D01*
X472891D01*
X474151Y203780D01*
X475280Y204432D01*
X476203Y205354D01*
X476855Y206484D01*
X477192Y207743D01*
Y208712D01*
X480212Y211733D01*
X480733Y212411D01*
X481061Y213202D01*
X481173Y214051D01*
Y215627D01*
X487178D01*
Y222973D01*
X486449D01*
Y223927D01*
X487378D01*
Y231273D01*
X481503D01*
Y232190D01*
X481382Y233104D01*
X481055Y233893D01*
X481244Y234389D01*
X481246Y234393D01*
X498008D01*
Y233258D01*
X497104Y232353D01*
X496543Y231622D01*
X496226Y230857D01*
X491100D01*
Y223857D01*
X496871D01*
X497100Y223827D01*
X499600D01*
X499829Y223857D01*
X503100D01*
Y227128D01*
X503130Y227357D01*
Y228395D01*
X504035Y229299D01*
X504596Y230031D01*
X504949Y230882D01*
X505069Y231796D01*
X505069Y231796D01*
Y232647D01*
X505582D01*
Y242553D01*
X498039D01*
Y241453D01*
X475713D01*
X475280Y241886D01*
X474151Y242538D01*
X472891Y242876D01*
X471587D01*
X470328Y242538D01*
X469198Y241886D01*
X468276Y240964D01*
X467624Y239835D01*
X467287Y238575D01*
Y237271D01*
X467624Y236011D01*
X468276Y234882D01*
X469198Y233960D01*
X470328Y233308D01*
X471587Y232970D01*
X472200D01*
X474442Y230728D01*
Y227722D01*
X474563Y226808D01*
X474717Y226437D01*
Y223927D01*
X481351D01*
Y222973D01*
X474516D01*
Y215627D01*
X474516Y215627D01*
X474516D01*
X474516Y215627D01*
X474388Y215180D01*
X472556Y213348D01*
X471587D01*
X470328Y213011D01*
X469198Y212359D01*
X468276Y211437D01*
X467624Y210307D01*
X467287Y209047D01*
Y208079D01*
X466062Y206854D01*
X465600Y207045D01*
Y262841D01*
X466062Y263032D01*
X467287Y261808D01*
Y260839D01*
X467624Y259579D01*
X468276Y258450D01*
X469198Y257528D01*
X470328Y256876D01*
X471587Y256538D01*
X472891D01*
X474151Y256876D01*
X475280Y257528D01*
X476203Y258450D01*
X476855Y259579D01*
X477192Y260839D01*
Y261808D01*
X480912Y265528D01*
X481433Y266207D01*
X481761Y266998D01*
X481873Y267846D01*
Y269027D01*
X487878D01*
Y276373D01*
X486999D01*
Y277027D01*
X487778D01*
Y284373D01*
X481903D01*
Y284885D01*
X481782Y285799D01*
X481430Y286650D01*
X480869Y287382D01*
X480869Y287382D01*
X480783Y287467D01*
X480974Y287929D01*
X499139D01*
Y286947D01*
X499380D01*
Y285158D01*
X498138Y283916D01*
X497100D01*
X496871Y283886D01*
X491100D01*
Y276886D01*
X496871D01*
X497100Y276855D01*
X499600D01*
X499829Y276886D01*
X503100D01*
Y278893D01*
X505407Y281200D01*
X505968Y281931D01*
X506320Y282782D01*
X506440Y283696D01*
Y286947D01*
X506682D01*
Y296853D01*
X499139D01*
Y294989D01*
X475267D01*
X474151Y295634D01*
X472891Y295971D01*
X471587D01*
X470328Y295634D01*
X469198Y294982D01*
X468276Y294059D01*
X467778Y293197D01*
X467278Y293331D01*
Y311308D01*
X468513D01*
X469198Y310623D01*
X470328Y309971D01*
X471587Y309633D01*
X472891D01*
X474151Y309971D01*
X475280Y310623D01*
X476203Y311545D01*
X476855Y312674D01*
X477192Y313934D01*
Y314903D01*
X480812Y318523D01*
X481333Y319202D01*
X481661Y319993D01*
X481773Y320841D01*
Y321227D01*
X487778D01*
Y328427D01*
X487878D01*
Y335773D01*
X482003D01*
Y337881D01*
X481882Y338794D01*
X481530Y339646D01*
X481313Y339928D01*
X481534Y340377D01*
X498363D01*
X498570Y339877D01*
X497104Y338410D01*
X496543Y337679D01*
X496226Y336914D01*
X491100D01*
Y329914D01*
X496871D01*
X497100Y329884D01*
X499600D01*
X499829Y329914D01*
X503100D01*
Y333185D01*
X503130Y333414D01*
Y334452D01*
X504835Y336157D01*
X505396Y336888D01*
X505749Y337739D01*
X505869Y338653D01*
Y338747D01*
X506382D01*
Y348653D01*
X498839D01*
Y347437D01*
X475920D01*
X475280Y348077D01*
X474151Y348729D01*
X472891Y349066D01*
X471587D01*
X470328Y348729D01*
X469198Y348077D01*
X468276Y347155D01*
X467778Y346292D01*
X467278Y346426D01*
Y358084D01*
X471922Y362729D01*
X472891D01*
X474151Y363066D01*
X475280Y363718D01*
X476203Y364640D01*
X476855Y365770D01*
X477192Y367030D01*
Y367999D01*
X481684Y372491D01*
X482205Y373170D01*
X482395Y373627D01*
X488778D01*
Y380973D01*
X488978Y381227D01*
X488978D01*
Y388573D01*
X483103D01*
Y389876D01*
X482982Y390790D01*
X482630Y391641D01*
X482069Y392372D01*
X480668Y393773D01*
X480859Y394235D01*
X493570D01*
Y389943D01*
X491100D01*
Y382943D01*
X496871D01*
X497100Y382913D01*
X497329Y382943D01*
X503100D01*
Y389943D01*
X500630D01*
Y393647D01*
X503092D01*
Y403553D01*
X495549D01*
Y401295D01*
X475068D01*
X474151Y401824D01*
X473251Y402066D01*
X473101Y402623D01*
X474557Y404079D01*
X475078Y404758D01*
X475406Y405549D01*
X475517Y406397D01*
Y417051D01*
X476203Y417736D01*
X476855Y418865D01*
X477192Y420125D01*
Y421429D01*
X476855Y422689D01*
X476695Y422964D01*
X481458Y427727D01*
X489483D01*
Y429983D01*
X489563Y430086D01*
X489915Y430937D01*
X490036Y431851D01*
X490036Y431851D01*
Y439400D01*
X489915Y440314D01*
X489884Y440391D01*
Y443073D01*
X483849D01*
X483535Y443831D01*
X482974Y444562D01*
X481226Y446310D01*
X481418Y446772D01*
X498873D01*
X499080Y446272D01*
X497804Y444996D01*
X497243Y444265D01*
X496926Y443500D01*
X491800D01*
Y436500D01*
X497571D01*
X497800Y436470D01*
X500300D01*
X500529Y436500D01*
X503800D01*
Y439771D01*
X503830Y440000D01*
Y441038D01*
X505435Y442642D01*
X505996Y443373D01*
X506349Y444225D01*
X506469Y445139D01*
X506882Y445347D01*
X506982D01*
Y455253D01*
X499439D01*
Y453832D01*
X475716D01*
X475280Y454268D01*
X474151Y454920D01*
X472891Y455257D01*
X471587D01*
X470328Y454920D01*
X469811Y454622D01*
X469378Y454872D01*
Y466142D01*
X471983Y468747D01*
X472952D01*
X474212Y469085D01*
X475341Y469737D01*
X476263Y470659D01*
X476915Y471788D01*
X477253Y473048D01*
Y474017D01*
X480590Y477354D01*
X481111Y478033D01*
X481357Y478627D01*
X487683D01*
Y481309D01*
X487715Y481386D01*
X487836Y482300D01*
X487833Y482321D01*
Y491097D01*
X487713Y492011D01*
X487678Y492095D01*
Y494773D01*
X481803D01*
Y497255D01*
X481682Y498169D01*
X481330Y499020D01*
X481154Y499249D01*
X481375Y499697D01*
X493384D01*
X493676Y499197D01*
X493570Y498390D01*
Y496000D01*
X491100D01*
Y489000D01*
X496871D01*
X497100Y488970D01*
X497329Y489000D01*
X503100D01*
Y496000D01*
X500630D01*
Y496927D01*
X501650Y497947D01*
X505382D01*
Y507853D01*
X497839D01*
Y506758D01*
X475774D01*
X475341Y507191D01*
X474212Y507843D01*
X472952Y508180D01*
X471648D01*
X470388Y507843D01*
X469259Y507191D01*
X468337Y506269D01*
X467685Y505139D01*
X467347Y503880D01*
Y502575D01*
X467685Y501316D01*
X468337Y500186D01*
X469259Y499264D01*
X470388Y498612D01*
X471648Y498275D01*
X472260D01*
X474742Y495793D01*
Y491222D01*
X474862Y490308D01*
X475016Y489937D01*
Y487427D01*
X480772D01*
Y485973D01*
X475022D01*
Y482385D01*
X474994Y482172D01*
Y481030D01*
X472617Y478653D01*
X471648D01*
X470388Y478315D01*
X469259Y477663D01*
X468337Y476741D01*
X467685Y475612D01*
X467347Y474352D01*
Y473383D01*
X466062Y472098D01*
X465600Y472289D01*
Y510500D01*
X503800D01*
X508900Y505400D01*
Y492592D01*
X508804Y492496D01*
X508243Y491765D01*
X507890Y490914D01*
X507770Y490000D01*
Y476773D01*
X502016D01*
Y475976D01*
X486181D01*
X486156Y476001D01*
X485244Y476527D01*
X484227Y476800D01*
X483173D01*
X482156Y476527D01*
X481244Y476001D01*
X480499Y475256D01*
X479973Y474344D01*
X479700Y473327D01*
Y472273D01*
X479973Y471256D01*
X480499Y470344D01*
X481244Y469599D01*
X482156Y469073D01*
X483173Y468800D01*
X484227D01*
X485244Y469073D01*
X486156Y469599D01*
X486481Y469924D01*
X502010D01*
X502016Y469427D01*
X501963Y468949D01*
X498485D01*
X498058Y469196D01*
X497295Y469400D01*
X496505D01*
X495742Y469196D01*
X495058Y468801D01*
X494499Y468242D01*
X494104Y467558D01*
X493900Y466795D01*
Y466005D01*
X494104Y465242D01*
X494499Y464558D01*
X495058Y463999D01*
X495742Y463604D01*
X496505Y463400D01*
X497295D01*
X498058Y463604D01*
X498485Y463851D01*
X508900D01*
Y425573D01*
X503316D01*
Y424926D01*
X486826D01*
X486701Y425051D01*
X485788Y425577D01*
X484771Y425850D01*
X483718D01*
X482701Y425577D01*
X481788Y425051D01*
X481044Y424306D01*
X480517Y423394D01*
X480244Y422377D01*
Y421323D01*
X480517Y420306D01*
X481044Y419394D01*
X481788Y418649D01*
X482701Y418123D01*
X483718Y417850D01*
X484771D01*
X485788Y418123D01*
X486701Y418649D01*
X486926Y418874D01*
X503316D01*
Y418227D01*
X508900D01*
Y416749D01*
X503785D01*
X503358Y416996D01*
X502595Y417200D01*
X501805D01*
X501042Y416996D01*
X500358Y416601D01*
X499799Y416042D01*
X499404Y415358D01*
X499200Y414595D01*
Y413805D01*
X499404Y413042D01*
X499799Y412358D01*
X500358Y411799D01*
X501042Y411404D01*
X501805Y411200D01*
X502595D01*
X503358Y411404D01*
X503785Y411651D01*
X508900D01*
Y370773D01*
X503717D01*
Y370126D01*
X487225D01*
X487101Y370251D01*
X486188Y370777D01*
X485171Y371050D01*
X484118D01*
X483101Y370777D01*
X482188Y370251D01*
X481444Y369506D01*
X480917Y368594D01*
X480645Y367577D01*
Y366523D01*
X480917Y365506D01*
X481444Y364594D01*
X482188Y363849D01*
X483101Y363323D01*
X484118Y363050D01*
X485171D01*
X486188Y363323D01*
X487101Y363849D01*
X487325Y364074D01*
X503717D01*
Y363427D01*
X508900D01*
Y362649D01*
X496385D01*
X495958Y362896D01*
X495195Y363100D01*
X494405D01*
X493642Y362896D01*
X492958Y362501D01*
X492399Y361942D01*
X492004Y361258D01*
X491800Y360495D01*
Y359705D01*
X492004Y358942D01*
X492399Y358258D01*
X492958Y357699D01*
X493642Y357304D01*
X494405Y357100D01*
X495195D01*
X495958Y357304D01*
X496385Y357551D01*
X508900D01*
Y318973D01*
X503416D01*
Y318326D01*
X486926D01*
X486801Y318451D01*
X485888Y318977D01*
X484871Y319250D01*
X483818D01*
X482801Y318977D01*
X481888Y318451D01*
X481144Y317706D01*
X480617Y316794D01*
X480344Y315777D01*
Y314723D01*
X480617Y313706D01*
X481144Y312794D01*
X481888Y312049D01*
X482801Y311523D01*
X483818Y311250D01*
X484871D01*
X485888Y311523D01*
X486801Y312049D01*
X487025Y312274D01*
X503416D01*
Y311627D01*
X508900D01*
Y310149D01*
X501085D01*
X500658Y310396D01*
X499895Y310600D01*
X499105D01*
X498342Y310396D01*
X497658Y310001D01*
X497099Y309442D01*
X496704Y308758D01*
X496500Y307995D01*
Y307205D01*
X496704Y306442D01*
X497099Y305758D01*
X497658Y305199D01*
X498342Y304804D01*
X499105Y304600D01*
X499895D01*
X500658Y304804D01*
X501085Y305051D01*
X508900D01*
Y264473D01*
X503817D01*
Y263826D01*
X487325D01*
X487201Y263951D01*
X486288Y264477D01*
X485271Y264750D01*
X484218D01*
X483201Y264477D01*
X482288Y263951D01*
X481544Y263206D01*
X481017Y262294D01*
X480745Y261277D01*
Y260223D01*
X481017Y259206D01*
X481544Y258294D01*
X482288Y257549D01*
X483201Y257023D01*
X484218Y256750D01*
X485271D01*
X486288Y257023D01*
X487201Y257549D01*
X487426Y257774D01*
X503817D01*
Y257127D01*
X508900D01*
Y252849D01*
X506785D01*
X506358Y253096D01*
X505595Y253300D01*
X504805D01*
X504042Y253096D01*
X503358Y252701D01*
X502799Y252142D01*
X502404Y251458D01*
X502200Y250695D01*
Y249905D01*
X502404Y249142D01*
X502799Y248458D01*
X503358Y247899D01*
X504042Y247504D01*
X504805Y247300D01*
X505595D01*
X506358Y247504D01*
X506785Y247751D01*
X508900D01*
Y210773D01*
X503622D01*
Y210126D01*
X487131D01*
X487006Y210251D01*
X486094Y210777D01*
X485077Y211050D01*
X484023D01*
X483006Y210777D01*
X482094Y210251D01*
X481349Y209506D01*
X480823Y208594D01*
X480550Y207577D01*
Y206523D01*
X480823Y205506D01*
X481349Y204594D01*
X482094Y203849D01*
X483006Y203323D01*
X484023Y203050D01*
X485077D01*
X486094Y203323D01*
X486142Y203351D01*
X486509Y202985D01*
X486204Y202458D01*
X486000Y201695D01*
Y200905D01*
X486204Y200142D01*
X486599Y199458D01*
X487158Y198899D01*
X487842Y198504D01*
X488605Y198300D01*
X489395D01*
X490158Y198504D01*
X490585Y198751D01*
X508900D01*
Y159573D01*
X503322D01*
Y158926D01*
X486831D01*
X486706Y159051D01*
X485794Y159577D01*
X484777Y159850D01*
X483723D01*
X482706Y159577D01*
X481794Y159051D01*
X481049Y158306D01*
X480523Y157394D01*
X480250Y156377D01*
Y155323D01*
X480523Y154306D01*
X481049Y153394D01*
X481794Y152649D01*
X482706Y152123D01*
X483723Y151850D01*
X484777D01*
X485794Y152123D01*
X486706Y152649D01*
X486931Y152874D01*
X490925D01*
X491058Y152374D01*
X490758Y152201D01*
X490199Y151642D01*
X489804Y150958D01*
X489600Y150195D01*
Y149405D01*
X489804Y148642D01*
X490199Y147958D01*
X490758Y147399D01*
X491442Y147004D01*
X492205Y146800D01*
X492995D01*
X493758Y147004D01*
X494185Y147251D01*
X508900D01*
Y144678D01*
X487497D01*
X477192Y154983D01*
Y155617D01*
X481285Y159709D01*
X481805Y160388D01*
X482133Y161179D01*
X482218Y161827D01*
X488378D01*
Y169173D01*
X487802D01*
Y169827D01*
X488883D01*
Y177173D01*
X483008D01*
Y177589D01*
X482888Y178503D01*
X482535Y179354D01*
X481974Y180085D01*
X481438Y180622D01*
X481629Y181084D01*
X498019D01*
Y180240D01*
X497104Y179325D01*
X496543Y178594D01*
X496226Y177829D01*
X491100D01*
Y170829D01*
X496871D01*
X497100Y170798D01*
X499600D01*
X499829Y170829D01*
X503100D01*
Y174099D01*
X503130Y174329D01*
Y175366D01*
X504045Y176281D01*
X504606Y177012D01*
X504959Y177864D01*
X505079Y178777D01*
Y179447D01*
X505592D01*
Y189353D01*
X498049D01*
Y188144D01*
X475927D01*
X475280Y188791D01*
X474151Y189443D01*
X472891Y189780D01*
X471587D01*
X470328Y189443D01*
X469198Y188791D01*
X468276Y187869D01*
X467624Y186739D01*
X467287Y185480D01*
Y184176D01*
X467624Y182916D01*
X468276Y181787D01*
X469198Y180864D01*
X470328Y180212D01*
X471587Y179875D01*
X472200D01*
X475948Y176127D01*
Y173622D01*
X476068Y172708D01*
X476222Y172337D01*
Y169827D01*
X482704D01*
Y169173D01*
X475716D01*
Y165585D01*
X475689Y165372D01*
Y163385D01*
X472556Y160253D01*
X471587D01*
X470328Y159915D01*
X469198Y159263D01*
X468276Y158341D01*
X467624Y157212D01*
X467287Y155952D01*
Y154648D01*
X467624Y153388D01*
X468276Y152259D01*
X469198Y151337D01*
X470328Y150685D01*
X471587Y150347D01*
X472556D01*
X483821Y139082D01*
X484500Y138561D01*
X485291Y138234D01*
X485715Y138178D01*
X486139Y138122D01*
X500739D01*
Y136358D01*
X475768D01*
X475280Y136845D01*
X474151Y137497D01*
X472891Y137835D01*
X471587D01*
X470328Y137497D01*
X469198Y136845D01*
X468276Y135923D01*
X467624Y134794D01*
X467287Y133534D01*
Y132230D01*
X467624Y130971D01*
X468276Y129841D01*
X469198Y128919D01*
X470328Y128267D01*
X471587Y127929D01*
X472891D01*
X472908Y127934D01*
X477216Y123626D01*
Y117209D01*
X477216Y117209D01*
X477122Y116855D01*
X477122Y116855D01*
X477122Y116748D01*
Y113267D01*
X477094Y113054D01*
Y112845D01*
X472556Y108307D01*
X471587D01*
X470328Y107970D01*
X469198Y107318D01*
X468276Y106396D01*
X467624Y105266D01*
X467287Y104007D01*
Y102703D01*
X467624Y101443D01*
X468276Y100314D01*
X469198Y99391D01*
X470328Y98739D01*
X471587Y98402D01*
X472891D01*
X474151Y98739D01*
X475280Y99391D01*
X476203Y100314D01*
X476855Y101443D01*
X477192Y102703D01*
Y103672D01*
X482690Y109169D01*
X482950Y109509D01*
X489783D01*
Y116855D01*
X489783Y116855D01*
X489878Y117209D01*
X489878Y117209D01*
X489878Y117316D01*
Y124555D01*
X483617D01*
X483517Y125310D01*
X483215Y126040D01*
X482734Y126667D01*
X482734Y126667D01*
X479557Y129844D01*
X479748Y130306D01*
X500739D01*
Y128829D01*
X501484D01*
Y127464D01*
X498821Y124800D01*
X491100D01*
Y117800D01*
X503100D01*
Y120521D01*
X506650Y124071D01*
X507131Y124697D01*
X507433Y125427D01*
X507485Y125819D01*
X507536Y126210D01*
X507536Y126210D01*
Y128829D01*
X508282D01*
Y138122D01*
X508900D01*
Y106073D01*
X504022D01*
Y105376D01*
X487481D01*
X487356Y105501D01*
X486444Y106027D01*
X485427Y106300D01*
X484373D01*
X483356Y106027D01*
X482444Y105501D01*
X481699Y104756D01*
X481173Y103844D01*
X480900Y102827D01*
Y102579D01*
X475747Y97426D01*
X429453D01*
X422926Y103953D01*
Y124469D01*
X423101Y124644D01*
X423627Y125556D01*
X423900Y126573D01*
Y127627D01*
X423627Y128644D01*
X423101Y129556D01*
X422356Y130301D01*
X421444Y130827D01*
X420427Y131100D01*
X419373D01*
X418356Y130827D01*
X417444Y130301D01*
X416699Y129556D01*
X416173Y128644D01*
X415900Y127627D01*
Y126573D01*
X416173Y125556D01*
X416699Y124644D01*
X416874Y124469D01*
Y102700D01*
X416977Y101917D01*
X417279Y101187D01*
X417760Y100560D01*
X426060Y92260D01*
X426687Y91780D01*
X427417Y91477D01*
X428200Y91374D01*
X477000D01*
X477783Y91477D01*
X478513Y91780D01*
X479140Y92260D01*
X479907Y93027D01*
X480389Y92898D01*
X480404Y92842D01*
X480799Y92158D01*
X481358Y91599D01*
X482042Y91204D01*
X482805Y91000D01*
X483595D01*
X484358Y91204D01*
X484785Y91451D01*
X508900D01*
Y4527D01*
X413289Y4489D01*
X413097Y4951D01*
X416853Y8706D01*
X417975Y9007D01*
X419104Y9659D01*
X420026Y10581D01*
X420678Y11710D01*
X420804Y12180D01*
X421322D01*
X421448Y11710D01*
X422100Y10581D01*
X423022Y9659D01*
X424151Y9007D01*
X425411Y8669D01*
X426715D01*
X427975Y9007D01*
X429104Y9659D01*
X430026Y10581D01*
X430678Y11710D01*
X430804Y12180D01*
X431322D01*
X431448Y11710D01*
X432100Y10581D01*
X433022Y9659D01*
X434151Y9007D01*
X435411Y8669D01*
X436715D01*
X437975Y9007D01*
X439104Y9659D01*
X440026Y10581D01*
X440678Y11710D01*
X441016Y12970D01*
Y14274D01*
X440678Y15534D01*
X440026Y16663D01*
X439104Y17585D01*
X437975Y18237D01*
X437505Y18363D01*
Y18881D01*
X437975Y19007D01*
X439104Y19659D01*
X440026Y20581D01*
X440678Y21710D01*
X440804Y22180D01*
X441322D01*
X441448Y21710D01*
X442100Y20581D01*
X443022Y19659D01*
X444151Y19007D01*
X445411Y18669D01*
X446715D01*
X447975Y19007D01*
X449104Y19659D01*
X450026Y20581D01*
X450678Y21710D01*
X450804Y22180D01*
X451322D01*
X451448Y21710D01*
X452100Y20581D01*
X453022Y19659D01*
X454151Y19007D01*
X455411Y18669D01*
X456715D01*
X457975Y19007D01*
X459104Y19659D01*
X460026Y20581D01*
X460678Y21710D01*
X460804Y22180D01*
X461322D01*
X461448Y21710D01*
X462100Y20581D01*
X463022Y19659D01*
X464151Y19007D01*
X464621Y18881D01*
Y18363D01*
X464151Y18237D01*
X463022Y17585D01*
X462100Y16663D01*
X461448Y15534D01*
X461110Y14274D01*
Y12970D01*
X461448Y11710D01*
X462100Y10581D01*
X463022Y9659D01*
X464151Y9007D01*
X465411Y8669D01*
X466715D01*
X467975Y9007D01*
X469104Y9659D01*
X470026Y10581D01*
X470678Y11710D01*
X470804Y12180D01*
X471322D01*
X471448Y11710D01*
X472100Y10581D01*
X473022Y9659D01*
X474151Y9007D01*
X475411Y8669D01*
X476715D01*
X477975Y9007D01*
X479104Y9659D01*
X480026Y10581D01*
X480678Y11710D01*
X480804Y12180D01*
X481322D01*
X481448Y11710D01*
X482100Y10581D01*
X483022Y9659D01*
X484151Y9007D01*
X485411Y8669D01*
X486715D01*
X487975Y9007D01*
X489104Y9659D01*
X490026Y10581D01*
X490678Y11710D01*
X490804Y12180D01*
X491322D01*
X491448Y11710D01*
X492100Y10581D01*
X493022Y9659D01*
X494151Y9007D01*
X495411Y8669D01*
X496715D01*
X497975Y9007D01*
X499104Y9659D01*
X500026Y10581D01*
X500678Y11710D01*
X501016Y12970D01*
Y14274D01*
X500678Y15534D01*
X500026Y16663D01*
X499104Y17585D01*
X498092Y18169D01*
X498226Y18669D01*
X501016D01*
Y28575D01*
X491110D01*
Y25785D01*
X490610Y25651D01*
X490026Y26663D01*
X489104Y27585D01*
X487975Y28237D01*
X486715Y28575D01*
X485411D01*
X484151Y28237D01*
X483022Y27585D01*
X482100Y26663D01*
X481448Y25534D01*
X481322Y25064D01*
X480804D01*
X480678Y25534D01*
X480026Y26663D01*
X479104Y27585D01*
X477975Y28237D01*
X476715Y28575D01*
X475411D01*
X474151Y28237D01*
X473022Y27585D01*
X472100Y26663D01*
X471448Y25534D01*
X471322Y25064D01*
X470804D01*
X470678Y25534D01*
X470026Y26663D01*
X469104Y27585D01*
X467975Y28237D01*
X466715Y28575D01*
X465411D01*
X464151Y28237D01*
X463022Y27585D01*
X462100Y26663D01*
X461448Y25534D01*
X461322Y25064D01*
X460804D01*
X460678Y25534D01*
X460026Y26663D01*
X459104Y27585D01*
X457975Y28237D01*
X456715Y28575D01*
X455411D01*
X454862Y28428D01*
X414549Y68741D01*
Y124400D01*
X414355Y125375D01*
X413802Y126202D01*
X396749Y143256D01*
Y146215D01*
X396996Y146642D01*
X397200Y147405D01*
Y148195D01*
X396996Y148958D01*
X396601Y149642D01*
X396042Y150201D01*
X395358Y150596D01*
X394595Y150800D01*
X393805D01*
X393042Y150596D01*
X393037Y150592D01*
X392858Y150696D01*
X392095Y150900D01*
X391305D01*
X390542Y150696D01*
X389858Y150301D01*
X389798Y150241D01*
X389358Y150496D01*
X388595Y150700D01*
X387805D01*
X387085Y150507D01*
X386758Y150696D01*
X385995Y150900D01*
X385205D01*
X384442Y150696D01*
X384077Y150485D01*
X384058Y150496D01*
X383295Y150700D01*
X382505D01*
X381742Y150496D01*
X381573Y150398D01*
X381058Y150696D01*
X380295Y150900D01*
X379505D01*
X378742Y150696D01*
X378090Y150319D01*
X377958Y150396D01*
X377195Y150600D01*
X376405D01*
X375642Y150396D01*
X374958Y150001D01*
X374399Y149442D01*
X374004Y148758D01*
X373800Y147995D01*
Y147205D01*
X374004Y146442D01*
X374251Y146015D01*
Y141963D01*
X374445Y140988D01*
X374998Y140161D01*
X393514Y121644D01*
Y27869D01*
X393022Y27585D01*
X392100Y26663D01*
X391448Y25534D01*
X391110Y24274D01*
Y22970D01*
X391448Y21710D01*
X391528Y21572D01*
X391278Y21139D01*
X387700D01*
X387476Y21095D01*
X387090Y21412D01*
Y27559D01*
X369310D01*
Y27235D01*
X362362D01*
X361976Y27812D01*
X361012Y28776D01*
X359878Y29533D01*
X358619Y30055D01*
X357282Y30321D01*
X355918D01*
X354581Y30055D01*
X353322Y29533D01*
X352188Y28776D01*
X351224Y27812D01*
X350466Y26678D01*
X350164Y25949D01*
X344156D01*
X335849Y34256D01*
Y49700D01*
X336349Y49799D01*
X336603Y49185D01*
X337245Y48350D01*
X347731Y37864D01*
X347731Y37864D01*
X348566Y37222D01*
X349539Y36819D01*
X350584Y36682D01*
X350584Y36682D01*
X369310D01*
Y36158D01*
X387090D01*
Y45276D01*
X382334D01*
Y51836D01*
X382550Y52640D01*
Y53759D01*
X382260Y54840D01*
X381701Y55810D01*
X380910Y56601D01*
X379940Y57160D01*
X378859Y57450D01*
X377741D01*
X376660Y57160D01*
X375690Y56601D01*
X374899Y55810D01*
X374340Y54840D01*
X374050Y53759D01*
Y52640D01*
X374266Y51836D01*
Y45276D01*
X369310D01*
Y44751D01*
X352255D01*
X344132Y52874D01*
Y70103D01*
X343994Y71147D01*
X343591Y72120D01*
X342950Y72956D01*
X342950Y72956D01*
X334758Y81147D01*
X333923Y81788D01*
X332950Y82191D01*
X331906Y82329D01*
X331905Y82329D01*
X300973D01*
Y83200D01*
X298300D01*
X295627D01*
Y81822D01*
X295189Y81672D01*
X294627D01*
Y81273D01*
X293673D01*
Y87478D01*
X292065D01*
X291802Y87871D01*
X289671Y90002D01*
X288844Y90555D01*
X287868Y90749D01*
X283204D01*
X282904Y90979D01*
X282130Y91299D01*
X281300Y91409D01*
X276772D01*
X275942Y91299D01*
X275168Y90979D01*
X274504Y90469D01*
X273994Y89804D01*
X273673Y89030D01*
X273564Y88200D01*
X273578Y88090D01*
X273138Y87606D01*
X269800D01*
Y80700D01*
Y73795D01*
X273138D01*
X273578Y73310D01*
X273564Y73200D01*
X273673Y72370D01*
X273994Y71596D01*
X274504Y70931D01*
X274890Y70635D01*
X274764Y70135D01*
X272400D01*
X271356Y69997D01*
X270815Y69773D01*
X263117D01*
Y69126D01*
X261590D01*
Y70092D01*
X261658Y70101D01*
X262432Y70421D01*
X263096Y70931D01*
X263606Y71596D01*
X263927Y72370D01*
X264036Y73200D01*
X264022Y73310D01*
X264462Y73795D01*
X267800D01*
Y80700D01*
Y87606D01*
X264462D01*
X264022Y88090D01*
X264036Y88200D01*
X263927Y89030D01*
X263606Y89804D01*
X263096Y90469D01*
X262432Y90979D01*
X261658Y91299D01*
X260828Y91409D01*
X256300D01*
X255470Y91299D01*
X254696Y90979D01*
X254273Y90654D01*
X248473D01*
Y91483D01*
X241127D01*
Y90654D01*
X237705D01*
X236730Y90460D01*
X235903Y89908D01*
X232798Y86802D01*
X232245Y85975D01*
X232051Y85000D01*
Y44464D01*
X227285D01*
Y44230D01*
X219500D01*
Y95258D01*
X219870Y95594D01*
X220100Y95571D01*
X261200D01*
X262376Y95687D01*
X263507Y96030D01*
X263557Y96057D01*
X265168D01*
Y97095D01*
X265463Y97337D01*
X266213Y98251D01*
X266770Y99293D01*
X267113Y100424D01*
X267229Y101600D01*
X267113Y102776D01*
X266770Y103907D01*
X266213Y104949D01*
X265463Y105863D01*
X265168Y106105D01*
Y107143D01*
X265645Y107200D01*
X317900D01*
X331800Y121100D01*
Y523800D01*
X333200Y525200D01*
X389100D01*
X392766Y521533D01*
D02*
G37*
G36*
X319400Y139100D02*
X295200Y114900D01*
X212900D01*
X202600Y104600D01*
Y12900D01*
X375200D01*
X380741Y18441D01*
X387090D01*
Y18725D01*
X387590Y19074D01*
X387676Y19065D01*
X387773Y19095D01*
X387874D01*
X387901Y19100D01*
X391278D01*
X391539Y19152D01*
X391805Y19170D01*
X391926Y19229D01*
X392058Y19255D01*
X392280Y19403D01*
X392519Y19521D01*
X393022Y19659D01*
X394151Y19007D01*
X395411Y18669D01*
X396715D01*
X397975Y19007D01*
X399104Y19659D01*
X399445Y20000D01*
X402681D01*
X403022Y19659D01*
X404151Y19007D01*
X405411Y18669D01*
X406715D01*
X407975Y19007D01*
X409104Y19659D01*
X409445Y20000D01*
X412681D01*
X413022Y19659D01*
X414151Y19007D01*
X414621Y18881D01*
Y18363D01*
X414151Y18237D01*
X413022Y17585D01*
X412100Y16663D01*
X411448Y15534D01*
X411147Y14412D01*
X410478Y13742D01*
X410016Y13934D01*
Y14142D01*
X409746Y15148D01*
X409226Y16049D01*
X408490Y16785D01*
X407589Y17305D01*
X407063Y17446D01*
Y13622D01*
X406063D01*
Y12622D01*
X402239D01*
X402380Y12096D01*
X402900Y11195D01*
X403636Y10459D01*
X403852Y10334D01*
X403718Y9834D01*
X398408D01*
X398274Y10334D01*
X398490Y10459D01*
X399226Y11195D01*
X399746Y12096D01*
X399887Y12622D01*
X396063D01*
X392239D01*
X392380Y12096D01*
X392900Y11195D01*
X393636Y10459D01*
X393852Y10334D01*
X393718Y9834D01*
X155171D01*
X153735Y11271D01*
Y16904D01*
X156621D01*
Y21365D01*
X168600D01*
X168600Y21365D01*
X169644Y21503D01*
X170617Y21906D01*
X171453Y22547D01*
X175473Y26567D01*
X175918Y26479D01*
X177282D01*
X178619Y26745D01*
X179878Y27266D01*
X181012Y28024D01*
X181976Y28988D01*
X182734Y30122D01*
X183036Y30851D01*
X184100D01*
X185075Y31045D01*
X185902Y31598D01*
X193302Y38998D01*
X193855Y39825D01*
X194049Y40800D01*
Y83722D01*
X195173D01*
Y89628D01*
Y96384D01*
X187827D01*
Y95752D01*
X183117D01*
X182734Y96678D01*
X181976Y97812D01*
X181012Y98776D01*
X179878Y99533D01*
X178619Y100055D01*
X177282Y100321D01*
X175918D01*
X174581Y100055D01*
X173322Y99533D01*
X172188Y98776D01*
X171224Y97812D01*
X170466Y96678D01*
X169945Y95419D01*
X169679Y94082D01*
Y92718D01*
X169945Y91381D01*
X170466Y90122D01*
X171224Y88988D01*
X172188Y88024D01*
X173322Y87266D01*
X174581Y86745D01*
X175918Y86479D01*
X177282D01*
X178619Y86745D01*
X179878Y87266D01*
X181012Y88024D01*
X181976Y88988D01*
X182734Y90122D01*
X182954Y90654D01*
X187827D01*
Y83722D01*
X188951D01*
Y41856D01*
X183421Y36326D01*
X182831Y36443D01*
X182734Y36678D01*
X181976Y37812D01*
X181012Y38776D01*
X179878Y39533D01*
X178619Y40055D01*
X177282Y40321D01*
X175918D01*
X174581Y40055D01*
X173322Y39533D01*
X172188Y38776D01*
X171224Y37812D01*
X170466Y36678D01*
X169945Y35419D01*
X169679Y34082D01*
Y32718D01*
X169767Y32273D01*
X166929Y29434D01*
X156621D01*
Y33896D01*
X153735D01*
Y115829D01*
X172371Y134466D01*
X219000D01*
X219000Y134466D01*
X220044Y134603D01*
X221017Y135006D01*
X221853Y135647D01*
X227718Y141513D01*
X228359Y142348D01*
X228762Y143321D01*
X228900Y144365D01*
X228900Y144366D01*
Y161988D01*
X229905Y162659D01*
X231006Y163761D01*
X231678Y164766D01*
X241632D01*
Y161385D01*
X249569D01*
Y168199D01*
X249635Y168700D01*
Y178485D01*
X249673D01*
Y179826D01*
X249708Y180088D01*
Y185561D01*
X249739Y185800D01*
X249673Y186302D01*
Y193115D01*
X241736D01*
Y186509D01*
X241639Y185768D01*
X241639Y185768D01*
Y180571D01*
X241565Y180015D01*
X241565Y180015D01*
Y172835D01*
X231678D01*
X231006Y173839D01*
X229905Y174941D01*
X228900Y175612D01*
Y183040D01*
X228900Y183040D01*
X228762Y184084D01*
X228359Y185057D01*
X228083Y185417D01*
Y186873D01*
X226290D01*
X225750Y187097D01*
X224706Y187234D01*
X223661Y187097D01*
X223121Y186873D01*
X215422D01*
Y186226D01*
X184226D01*
X183443Y186123D01*
X182713Y185820D01*
X182086Y185340D01*
X182086Y185340D01*
X172851Y176104D01*
X172132Y176402D01*
X170605Y176706D01*
X169047D01*
X167520Y176402D01*
X166081Y175806D01*
X164787Y174941D01*
X163685Y173839D01*
X162820Y172545D01*
X162224Y171106D01*
X161920Y169579D01*
Y168021D01*
X162224Y166494D01*
X162820Y165055D01*
X163685Y163761D01*
X164787Y162659D01*
X166081Y161794D01*
X167520Y161198D01*
X169047Y160895D01*
X170605D01*
X172132Y161198D01*
X173571Y161794D01*
X174865Y162659D01*
X175967Y163761D01*
X176832Y165055D01*
X177428Y166494D01*
X177732Y168021D01*
Y169579D01*
X177428Y171106D01*
X177130Y171825D01*
X185479Y180174D01*
X215422D01*
Y179527D01*
X220831D01*
Y175612D01*
X219826Y174941D01*
X218725Y173839D01*
X217860Y172545D01*
X217264Y171106D01*
X216960Y169579D01*
Y168021D01*
X217264Y166494D01*
X217860Y165055D01*
X218725Y163761D01*
X219826Y162659D01*
X220831Y161988D01*
Y146037D01*
X217329Y142534D01*
X170700D01*
X169656Y142397D01*
X168683Y141994D01*
X167847Y141353D01*
X167847Y141353D01*
X146847Y120353D01*
X146206Y119517D01*
X145803Y118544D01*
X145666Y117500D01*
X145666Y117500D01*
Y55515D01*
X145327D01*
Y40885D01*
X145666D01*
Y33896D01*
X142779D01*
Y16904D01*
X145666D01*
Y9600D01*
X145666Y9600D01*
X145803Y8556D01*
X146206Y7583D01*
X146847Y6747D01*
X148748Y4846D01*
X148557Y4384D01*
X99854Y4365D01*
X99500Y4719D01*
Y64400D01*
X117300Y82200D01*
Y124900D01*
X132900Y140500D01*
Y239500D01*
X304800D01*
Y559300D01*
X293700Y570400D01*
X171807D01*
X171263Y571063D01*
X170968Y571305D01*
Y572343D01*
X169357D01*
X169307Y572370D01*
X168176Y572713D01*
X167000Y572829D01*
X165824Y572713D01*
X164693Y572370D01*
X164643Y572343D01*
X163031D01*
Y571305D01*
X162737Y571063D01*
X162193Y570400D01*
X157173D01*
Y571343D01*
X151236D01*
Y570400D01*
X95300D01*
Y550300D01*
X33200D01*
Y585625D01*
X319400D01*
X319400Y139100D01*
D02*
G37*
G36*
X253715Y85057D02*
X253521Y84804D01*
X253201Y84030D01*
X253091Y83200D01*
X253201Y82370D01*
X253521Y81596D01*
X254031Y80931D01*
Y80469D01*
X253521Y79804D01*
X253201Y79030D01*
X253091Y78200D01*
X253201Y77370D01*
X253521Y76596D01*
X254031Y75931D01*
Y75469D01*
X253521Y74804D01*
X253201Y74030D01*
X253091Y73200D01*
X253201Y72370D01*
X253521Y71596D01*
X254031Y70931D01*
X254696Y70421D01*
X255470Y70101D01*
X255538Y70092D01*
Y67836D01*
X255641Y67053D01*
X255943Y66323D01*
X256424Y65697D01*
X258160Y63960D01*
X258160Y63960D01*
X258787Y63480D01*
X259517Y63177D01*
X260300Y63074D01*
X260300Y63074D01*
X263117D01*
Y62427D01*
X270815D01*
X271356Y62203D01*
X272400Y62066D01*
X275002D01*
Y57364D01*
X275002Y57364D01*
X275139Y56320D01*
X275542Y55347D01*
X276183Y54511D01*
X281211Y49483D01*
X281250Y48999D01*
X281250D01*
Y32401D01*
X291550D01*
Y38065D01*
X292400D01*
X292400Y38065D01*
X293444Y38203D01*
X294417Y38606D01*
X295253Y39247D01*
X304446Y48440D01*
X306504D01*
Y45554D01*
X323496D01*
Y59396D01*
X306504D01*
Y56509D01*
X302775D01*
X301731Y56372D01*
X300758Y55969D01*
X299922Y55328D01*
X299922Y55328D01*
X292011Y47417D01*
X291550Y47609D01*
Y48999D01*
X289435D01*
Y51000D01*
X289297Y52044D01*
X288894Y53017D01*
X288253Y53853D01*
X288253Y53853D01*
X283071Y59035D01*
Y65282D01*
Y70549D01*
X283569Y70931D01*
X284079Y71596D01*
X284399Y72370D01*
X284509Y73200D01*
X284399Y74030D01*
X284113Y74721D01*
X284315Y75221D01*
X286327D01*
Y74817D01*
X293673D01*
Y75221D01*
X294627D01*
Y74916D01*
X296131D01*
X296283Y74800D01*
X297256Y74397D01*
X298300Y74260D01*
X330234D01*
X336063Y68432D01*
Y62775D01*
X335563Y62580D01*
X335142Y63001D01*
X334458Y63396D01*
X333695Y63600D01*
X332905D01*
X332142Y63396D01*
X331458Y63001D01*
X330899Y62442D01*
X330504Y61758D01*
X330300Y60995D01*
Y60205D01*
X330504Y59442D01*
X330751Y59015D01*
Y33200D01*
X330945Y32225D01*
X331498Y31398D01*
X341298Y21598D01*
X342125Y21045D01*
X343100Y20851D01*
X350164D01*
X350466Y20121D01*
X351224Y18988D01*
X352188Y18024D01*
X353322Y17266D01*
X354581Y16745D01*
X355112Y16639D01*
X355063Y16139D01*
X256745D01*
X251742Y21142D01*
X251080Y21584D01*
X250300Y21739D01*
X219500D01*
Y24431D01*
X225415D01*
Y26400D01*
X219100D01*
Y28400D01*
X225415D01*
Y30369D01*
X219500D01*
Y36161D01*
X234600D01*
X235644Y36298D01*
X235961Y36429D01*
X241958D01*
X242460Y36140D01*
X243541Y35850D01*
X244659D01*
X245464Y36066D01*
X246211D01*
Y32401D01*
X256510D01*
Y48999D01*
X246211D01*
Y44135D01*
X245464D01*
X244693Y44341D01*
X244645Y44361D01*
X243601Y44498D01*
X243601Y44498D01*
X237149D01*
Y83944D01*
X238761Y85557D01*
X241127D01*
Y84728D01*
X241689D01*
X242127Y84578D01*
X242127Y84228D01*
Y83200D01*
X244800D01*
X247473D01*
Y84578D01*
X247911Y84728D01*
X248473D01*
Y85557D01*
X253468D01*
X253715Y85057D01*
D02*
G37*
%LPC*%
G36*
X385400Y485000D02*
X381400D01*
Y483500D01*
X385400D01*
Y485000D01*
D02*
G37*
G36*
X379400D02*
X375400D01*
Y483500D01*
X379400D01*
Y485000D01*
D02*
G37*
G36*
X502000Y485000D02*
X498000D01*
Y483500D01*
X502000D01*
Y485000D01*
D02*
G37*
G36*
X496000D02*
X492000D01*
Y483500D01*
X496000D01*
Y485000D01*
D02*
G37*
G36*
X385400Y481500D02*
X381400D01*
Y480000D01*
X385400D01*
Y481500D01*
D02*
G37*
G36*
X379400D02*
X375400D01*
Y480000D01*
X379400D01*
Y481500D01*
D02*
G37*
G36*
X502000Y481500D02*
X498000D01*
Y480000D01*
X502000D01*
Y481500D01*
D02*
G37*
G36*
X496000D02*
X492000D01*
Y480000D01*
X496000D01*
Y481500D01*
D02*
G37*
G36*
X502700Y432500D02*
X498700D01*
Y431000D01*
X502700D01*
Y432500D01*
D02*
G37*
G36*
X496700D02*
X492700D01*
Y431000D01*
X496700D01*
Y432500D01*
D02*
G37*
G36*
X385400Y432200D02*
X381400D01*
Y430700D01*
X385400D01*
Y432200D01*
D02*
G37*
G36*
X379400D02*
X375400D01*
Y430700D01*
X379400D01*
Y432200D01*
D02*
G37*
G36*
X502700Y429000D02*
X498700D01*
Y427500D01*
X502700D01*
Y429000D01*
D02*
G37*
G36*
X496700D02*
X492700D01*
Y427500D01*
X496700D01*
Y429000D01*
D02*
G37*
G36*
X385400Y428700D02*
X381400D01*
Y427200D01*
X385400D01*
Y428700D01*
D02*
G37*
G36*
X379400D02*
X375400D01*
Y427200D01*
X379400D01*
Y428700D01*
D02*
G37*
G36*
X385400Y379400D02*
X381400D01*
Y377900D01*
X385400D01*
Y379400D01*
D02*
G37*
G36*
X379400D02*
X375400D01*
Y377900D01*
X379400D01*
Y379400D01*
D02*
G37*
G36*
X502000Y378943D02*
X498000D01*
Y377443D01*
X502000D01*
Y378943D01*
D02*
G37*
G36*
X496000D02*
X492000D01*
Y377443D01*
X496000D01*
Y378943D01*
D02*
G37*
G36*
X385400Y375900D02*
X381400D01*
Y374400D01*
X385400D01*
Y375900D01*
D02*
G37*
G36*
X379400D02*
X375400D01*
Y374400D01*
X379400D01*
Y375900D01*
D02*
G37*
G36*
X502000Y375443D02*
X498000D01*
Y373943D01*
X502000D01*
Y375443D01*
D02*
G37*
G36*
X496000D02*
X492000D01*
Y373943D01*
X496000D01*
Y375443D01*
D02*
G37*
G36*
X385400Y326600D02*
X381400D01*
Y325100D01*
X385400D01*
Y326600D01*
D02*
G37*
G36*
X379400D02*
X375400D01*
Y325100D01*
X379400D01*
Y326600D01*
D02*
G37*
G36*
X502000Y325914D02*
X498000D01*
Y324414D01*
X502000D01*
Y325914D01*
D02*
G37*
G36*
X496000D02*
X492000D01*
Y324414D01*
X496000D01*
Y325914D01*
D02*
G37*
G36*
X385400Y323100D02*
X381400D01*
Y321600D01*
X385400D01*
Y323100D01*
D02*
G37*
G36*
X379400D02*
X375400D01*
Y321600D01*
X379400D01*
Y323100D01*
D02*
G37*
G36*
X502000Y322414D02*
X498000D01*
Y320914D01*
X502000D01*
Y322414D01*
D02*
G37*
G36*
X496000D02*
X492000D01*
Y320914D01*
X496000D01*
Y322414D01*
D02*
G37*
G36*
X385400Y273800D02*
X381400D01*
Y272300D01*
X385400D01*
Y273800D01*
D02*
G37*
G36*
X379400D02*
X375400D01*
Y272300D01*
X379400D01*
Y273800D01*
D02*
G37*
G36*
X502000Y272886D02*
X498000D01*
Y271386D01*
X502000D01*
Y272886D01*
D02*
G37*
G36*
X496000D02*
X492000D01*
Y271386D01*
X496000D01*
Y272886D01*
D02*
G37*
G36*
X385400Y270300D02*
X381400D01*
Y268800D01*
X385400D01*
Y270300D01*
D02*
G37*
G36*
X379400D02*
X375400D01*
Y268800D01*
X379400D01*
Y270300D01*
D02*
G37*
G36*
X502000Y269386D02*
X498000D01*
Y267886D01*
X502000D01*
Y269386D01*
D02*
G37*
G36*
X496000D02*
X492000D01*
Y267886D01*
X496000D01*
Y269386D01*
D02*
G37*
G36*
X385400Y221000D02*
X381400D01*
Y219500D01*
X385400D01*
Y221000D01*
D02*
G37*
G36*
X379400D02*
X375400D01*
Y219500D01*
X379400D01*
Y221000D01*
D02*
G37*
G36*
X502000Y219857D02*
X498000D01*
Y218357D01*
X502000D01*
Y219857D01*
D02*
G37*
G36*
X496000D02*
X492000D01*
Y218357D01*
X496000D01*
Y219857D01*
D02*
G37*
G36*
X385400Y217500D02*
X381400D01*
Y216000D01*
X385400D01*
Y217500D01*
D02*
G37*
G36*
X379400D02*
X375400D01*
Y216000D01*
X379400D01*
Y217500D01*
D02*
G37*
G36*
X502000Y216357D02*
X498000D01*
Y214857D01*
X502000D01*
Y216357D01*
D02*
G37*
G36*
X496000D02*
X492000D01*
Y214857D01*
X496000D01*
Y216357D01*
D02*
G37*
G36*
X385400Y168200D02*
X381400D01*
Y166700D01*
X385400D01*
Y168200D01*
D02*
G37*
G36*
X379400D02*
X375400D01*
Y166700D01*
X379400D01*
Y168200D01*
D02*
G37*
G36*
X502000Y166829D02*
X498000D01*
Y165329D01*
X502000D01*
Y166829D01*
D02*
G37*
G36*
X496000D02*
X492000D01*
Y165329D01*
X496000D01*
Y166829D01*
D02*
G37*
G36*
X385400Y164700D02*
X381400D01*
Y163200D01*
X385400D01*
Y164700D01*
D02*
G37*
G36*
X379400D02*
X375400D01*
Y163200D01*
X379400D01*
Y164700D01*
D02*
G37*
G36*
X502000Y163329D02*
X498000D01*
Y161829D01*
X502000D01*
Y163329D01*
D02*
G37*
G36*
X496000D02*
X492000D01*
Y161829D01*
X496000D01*
Y163329D01*
D02*
G37*
G36*
X502000Y113800D02*
X498000D01*
Y112300D01*
X502000D01*
Y113800D01*
D02*
G37*
G36*
X496000D02*
X492000D01*
Y112300D01*
X496000D01*
Y113800D01*
D02*
G37*
G36*
X502000Y110300D02*
X498000D01*
Y108800D01*
X502000D01*
Y110300D01*
D02*
G37*
G36*
X496000D02*
X492000D01*
Y108800D01*
X496000D01*
Y110300D01*
D02*
G37*
G36*
X357282Y110321D02*
X355918D01*
X354581Y110055D01*
X353322Y109534D01*
X352188Y108776D01*
X351224Y107812D01*
X350466Y106678D01*
X350124Y105852D01*
X344273D01*
Y106583D01*
X336927D01*
Y99828D01*
Y93922D01*
X338051D01*
Y93385D01*
X337804Y92958D01*
X337600Y92195D01*
Y91405D01*
X337804Y90642D01*
X338199Y89958D01*
X338758Y89399D01*
X339442Y89004D01*
X340205Y88800D01*
X340995D01*
X341758Y89004D01*
X342442Y89399D01*
X343001Y89958D01*
X343396Y90642D01*
X343600Y91405D01*
Y92195D01*
X343396Y92958D01*
X343149Y93385D01*
Y93922D01*
X344273D01*
Y100754D01*
X350205D01*
X350466Y100122D01*
X351224Y98988D01*
X352188Y98024D01*
X353322Y97267D01*
X354581Y96745D01*
X355918Y96479D01*
X357282D01*
X358619Y96745D01*
X359878Y97267D01*
X361012Y98024D01*
X361976Y98988D01*
X362734Y100122D01*
X363255Y101381D01*
X363521Y102718D01*
Y104082D01*
X363255Y105419D01*
X362734Y106678D01*
X361976Y107812D01*
X361012Y108776D01*
X359878Y109534D01*
X358619Y110055D01*
X357282Y110321D01*
D02*
G37*
G36*
X276964Y106143D02*
X274995D01*
Y102600D01*
X276964D01*
Y106143D01*
D02*
G37*
G36*
X272995D02*
X271027D01*
Y102600D01*
X272995D01*
Y106143D01*
D02*
G37*
G36*
X276964Y100600D02*
X274995D01*
Y97057D01*
X276964D01*
Y100600D01*
D02*
G37*
G36*
X272995D02*
X271027D01*
Y97057D01*
X272995D01*
Y100600D01*
D02*
G37*
G36*
X300973Y86578D02*
X299300D01*
Y85200D01*
X300973D01*
Y86578D01*
D02*
G37*
G36*
X297300D02*
X295627D01*
Y85200D01*
X297300D01*
Y86578D01*
D02*
G37*
G36*
X357600Y69238D02*
Y64400D01*
X362438D01*
X362294Y65127D01*
X361847Y66205D01*
X361199Y67175D01*
X360375Y67999D01*
X359405Y68647D01*
X358327Y69094D01*
X357600Y69238D01*
D02*
G37*
G36*
X355600D02*
X354873Y69094D01*
X353795Y68647D01*
X352825Y67999D01*
X352001Y67175D01*
X351353Y66205D01*
X350906Y65127D01*
X350762Y64400D01*
X355600D01*
Y69238D01*
D02*
G37*
G36*
X362438Y62400D02*
X357600D01*
Y57562D01*
X358327Y57706D01*
X359405Y58153D01*
X360375Y58801D01*
X361199Y59625D01*
X361847Y60595D01*
X362294Y61673D01*
X362438Y62400D01*
D02*
G37*
G36*
X355600D02*
X350762D01*
X350906Y61673D01*
X351353Y60595D01*
X352001Y59625D01*
X352825Y58801D01*
X353795Y58153D01*
X354873Y57706D01*
X355600Y57562D01*
Y62400D01*
D02*
G37*
G36*
X447063Y17446D02*
Y14622D01*
X449887D01*
X449746Y15148D01*
X449226Y16049D01*
X448490Y16785D01*
X447589Y17305D01*
X447063Y17446D01*
D02*
G37*
G36*
X457063D02*
Y14622D01*
X459887D01*
X459746Y15148D01*
X459226Y16049D01*
X458490Y16785D01*
X457589Y17305D01*
X457063Y17446D01*
D02*
G37*
G36*
X445063D02*
X444537Y17305D01*
X443636Y16785D01*
X442900Y16049D01*
X442380Y15148D01*
X442239Y14622D01*
X445063D01*
Y17446D01*
D02*
G37*
G36*
X455063D02*
X454537Y17305D01*
X453636Y16785D01*
X452900Y16049D01*
X452380Y15148D01*
X452239Y14622D01*
X455063D01*
Y17446D01*
D02*
G37*
G36*
X459887Y12622D02*
X457063D01*
Y9798D01*
X457589Y9939D01*
X458490Y10459D01*
X459226Y11195D01*
X459746Y12096D01*
X459887Y12622D01*
D02*
G37*
G36*
X449887D02*
X447063D01*
Y9798D01*
X447589Y9939D01*
X448490Y10459D01*
X449226Y11195D01*
X449746Y12096D01*
X449887Y12622D01*
D02*
G37*
G36*
X455063D02*
X452239D01*
X452380Y12096D01*
X452900Y11195D01*
X453636Y10459D01*
X454537Y9939D01*
X455063Y9798D01*
Y12622D01*
D02*
G37*
G36*
X445063D02*
X442239D01*
X442380Y12096D01*
X442900Y11195D01*
X443636Y10459D01*
X444537Y9939D01*
X445063Y9798D01*
Y12622D01*
D02*
G37*
G36*
X49740Y578627D02*
Y575803D01*
X52564D01*
X52424Y576329D01*
X51903Y577230D01*
X51167Y577966D01*
X50266Y578486D01*
X49740Y578627D01*
D02*
G37*
G36*
X82693Y578756D02*
X79740D01*
Y575803D01*
X82693D01*
Y578756D01*
D02*
G37*
G36*
X69740Y578627D02*
Y575803D01*
X72564D01*
X72423Y576329D01*
X71903Y577230D01*
X71167Y577966D01*
X70266Y578486D01*
X69740Y578627D01*
D02*
G37*
G36*
X59740D02*
Y575803D01*
X62564D01*
X62423Y576329D01*
X61903Y577230D01*
X61167Y577966D01*
X60266Y578486D01*
X59740Y578627D01*
D02*
G37*
G36*
X47740Y578627D02*
X47214Y578486D01*
X46313Y577966D01*
X45577Y577230D01*
X45057Y576329D01*
X44916Y575803D01*
X47740D01*
Y578627D01*
D02*
G37*
G36*
X67740D02*
X67214Y578486D01*
X66313Y577966D01*
X65577Y577230D01*
X65057Y576329D01*
X64916Y575803D01*
X67740D01*
Y578627D01*
D02*
G37*
G36*
X57740D02*
X57214Y578486D01*
X56313Y577966D01*
X55577Y577230D01*
X55057Y576329D01*
X54916Y575803D01*
X57740D01*
Y578627D01*
D02*
G37*
G36*
X77740Y578756D02*
X74787D01*
Y575803D01*
X77740D01*
Y578756D01*
D02*
G37*
G36*
X72564Y573803D02*
X69740D01*
Y570979D01*
X70266Y571120D01*
X71167Y571640D01*
X71903Y572376D01*
X72423Y573277D01*
X72564Y573803D01*
D02*
G37*
G36*
X62564D02*
X59740D01*
Y570979D01*
X60266Y571120D01*
X61167Y571640D01*
X61903Y572376D01*
X62423Y573277D01*
X62564Y573803D01*
D02*
G37*
G36*
X52564D02*
X49740D01*
Y570979D01*
X50266Y571120D01*
X51167Y571640D01*
X51903Y572376D01*
X52424Y573277D01*
X52564Y573803D01*
D02*
G37*
G36*
X67740D02*
X64916D01*
X65057Y573277D01*
X65577Y572376D01*
X66313Y571640D01*
X67214Y571120D01*
X67740Y570979D01*
Y573803D01*
D02*
G37*
G36*
X57740D02*
X54916D01*
X55057Y573277D01*
X55577Y572376D01*
X56313Y571640D01*
X57214Y571120D01*
X57740Y570979D01*
Y573803D01*
D02*
G37*
G36*
X47740D02*
X44916D01*
X45057Y573277D01*
X45577Y572376D01*
X46313Y571640D01*
X47214Y571120D01*
X47740Y570979D01*
Y573803D01*
D02*
G37*
G36*
X82693D02*
X79740D01*
Y570850D01*
X82693D01*
Y573803D01*
D02*
G37*
G36*
X77740D02*
X74787D01*
Y570850D01*
X77740D01*
Y573803D01*
D02*
G37*
G36*
X49740Y568627D02*
Y565803D01*
X52564D01*
X52424Y566329D01*
X51903Y567230D01*
X51167Y567966D01*
X50266Y568486D01*
X49740Y568627D01*
D02*
G37*
G36*
X79740D02*
Y565803D01*
X82564D01*
X82424Y566329D01*
X81903Y567230D01*
X81167Y567966D01*
X80266Y568486D01*
X79740Y568627D01*
D02*
G37*
G36*
X69740D02*
Y565803D01*
X72564D01*
X72423Y566329D01*
X71903Y567230D01*
X71167Y567966D01*
X70266Y568486D01*
X69740Y568627D01*
D02*
G37*
G36*
X59740D02*
Y565803D01*
X62564D01*
X62423Y566329D01*
X61903Y567230D01*
X61167Y567966D01*
X60266Y568486D01*
X59740Y568627D01*
D02*
G37*
G36*
X47740Y568627D02*
X47214Y568486D01*
X46313Y567966D01*
X45577Y567230D01*
X45057Y566329D01*
X44916Y565803D01*
X47740D01*
Y568627D01*
D02*
G37*
G36*
X77740D02*
X77214Y568486D01*
X76313Y567966D01*
X75577Y567230D01*
X75057Y566329D01*
X74916Y565803D01*
X77740D01*
Y568627D01*
D02*
G37*
G36*
X67740D02*
X67214Y568486D01*
X66313Y567966D01*
X65577Y567230D01*
X65057Y566329D01*
X64916Y565803D01*
X67740D01*
Y568627D01*
D02*
G37*
G36*
X57740D02*
X57214Y568486D01*
X56313Y567966D01*
X55577Y567230D01*
X55057Y566329D01*
X54916Y565803D01*
X57740D01*
Y568627D01*
D02*
G37*
G36*
X82564Y563803D02*
X79740D01*
Y560979D01*
X80266Y561120D01*
X81167Y561640D01*
X81903Y562376D01*
X82424Y563277D01*
X82564Y563803D01*
D02*
G37*
G36*
X72564D02*
X69740D01*
Y560979D01*
X70266Y561120D01*
X71167Y561640D01*
X71903Y562376D01*
X72423Y563277D01*
X72564Y563803D01*
D02*
G37*
G36*
X62564D02*
X59740D01*
Y560979D01*
X60266Y561120D01*
X61167Y561640D01*
X61903Y562376D01*
X62423Y563277D01*
X62564Y563803D01*
D02*
G37*
G36*
X52564D02*
X49740D01*
Y560979D01*
X50266Y561120D01*
X51167Y561640D01*
X51903Y562376D01*
X52424Y563277D01*
X52564Y563803D01*
D02*
G37*
G36*
X77740D02*
X74916D01*
X75057Y563277D01*
X75577Y562376D01*
X76313Y561640D01*
X77214Y561120D01*
X77740Y560979D01*
Y563803D01*
D02*
G37*
G36*
X67740D02*
X64916D01*
X65057Y563277D01*
X65577Y562376D01*
X66313Y561640D01*
X67214Y561120D01*
X67740Y560979D01*
Y563803D01*
D02*
G37*
G36*
X57740D02*
X54916D01*
X55057Y563277D01*
X55577Y562376D01*
X56313Y561640D01*
X57214Y561120D01*
X57740Y560979D01*
Y563803D01*
D02*
G37*
G36*
X47740D02*
X44916D01*
X45057Y563277D01*
X45577Y562376D01*
X46313Y561640D01*
X47214Y561120D01*
X47740Y560979D01*
Y563803D01*
D02*
G37*
G36*
X261469Y192115D02*
X259500D01*
Y186800D01*
X261469D01*
Y192115D01*
D02*
G37*
G36*
X257500D02*
X255532D01*
Y186800D01*
X257500D01*
Y192115D01*
D02*
G37*
G36*
X261469Y184800D02*
X259500D01*
Y179485D01*
X261469D01*
Y184800D01*
D02*
G37*
G36*
X257500D02*
X255532D01*
Y179485D01*
X257500D01*
Y184800D01*
D02*
G37*
G36*
X205865Y175642D02*
Y169800D01*
X211707D01*
X211506Y170814D01*
X210985Y172071D01*
X210229Y173202D01*
X209267Y174164D01*
X208136Y174920D01*
X206880Y175440D01*
X205865Y175642D01*
D02*
G37*
G36*
X203865D02*
X202851Y175440D01*
X201594Y174920D01*
X200463Y174164D01*
X199502Y173202D01*
X198746Y172071D01*
X198225Y170814D01*
X198023Y169800D01*
X203865D01*
Y175642D01*
D02*
G37*
G36*
X261364Y175015D02*
X259395D01*
Y169700D01*
X261364D01*
Y175015D01*
D02*
G37*
G36*
X257395D02*
X255427D01*
Y169700D01*
X257395D01*
Y175015D01*
D02*
G37*
G36*
X261364Y167700D02*
X259395D01*
Y162385D01*
X261364D01*
Y167700D01*
D02*
G37*
G36*
X257395D02*
X255427D01*
Y162385D01*
X257395D01*
Y167700D01*
D02*
G37*
G36*
X203865Y167800D02*
X198023D01*
X198225Y166786D01*
X198746Y165529D01*
X199502Y164398D01*
X200463Y163436D01*
X201594Y162680D01*
X202851Y162160D01*
X203865Y161958D01*
Y167800D01*
D02*
G37*
G36*
X211707D02*
X205865D01*
Y161958D01*
X206880Y162160D01*
X208136Y162680D01*
X209267Y163436D01*
X210229Y164398D01*
X210985Y165529D01*
X211506Y166786D01*
X211707Y167800D01*
D02*
G37*
G36*
X177600Y59238D02*
Y54400D01*
X182438D01*
X182294Y55127D01*
X181847Y56205D01*
X181199Y57175D01*
X180375Y57999D01*
X179405Y58647D01*
X178327Y59094D01*
X177600Y59238D01*
D02*
G37*
G36*
X175600D02*
X174873Y59094D01*
X173795Y58647D01*
X172825Y57999D01*
X172001Y57175D01*
X171353Y56205D01*
X170906Y55127D01*
X170762Y54400D01*
X175600D01*
Y59238D01*
D02*
G37*
G36*
X139469Y54515D02*
X137500D01*
Y49200D01*
X139469D01*
Y54515D01*
D02*
G37*
G36*
X135500D02*
X133531D01*
Y49200D01*
X135500D01*
Y54515D01*
D02*
G37*
G36*
X182438Y52400D02*
X177600D01*
Y47562D01*
X178327Y47706D01*
X179405Y48153D01*
X180375Y48801D01*
X181199Y49625D01*
X181847Y50595D01*
X182294Y51673D01*
X182438Y52400D01*
D02*
G37*
G36*
X175600D02*
X170762D01*
X170906Y51673D01*
X171353Y50595D01*
X172001Y49625D01*
X172825Y48801D01*
X173795Y48153D01*
X174873Y47706D01*
X175600Y47562D01*
Y52400D01*
D02*
G37*
G36*
X139469Y47200D02*
X137500D01*
Y41885D01*
X139469D01*
Y47200D01*
D02*
G37*
G36*
X135500D02*
X133531D01*
Y41885D01*
X135500D01*
Y47200D01*
D02*
G37*
G36*
X129046Y32896D02*
X124125D01*
Y26400D01*
X129046D01*
Y32896D01*
D02*
G37*
G36*
X122125D02*
X117204D01*
Y26400D01*
X122125D01*
Y32896D01*
D02*
G37*
G36*
X129046Y24400D02*
X124125D01*
Y17904D01*
X129046D01*
Y24400D01*
D02*
G37*
G36*
X122125D02*
X117204D01*
Y17904D01*
X122125D01*
Y24400D01*
D02*
G37*
G36*
X397063Y17446D02*
Y14622D01*
X399887D01*
X399746Y15148D01*
X399226Y16049D01*
X398490Y16785D01*
X397589Y17305D01*
X397063Y17446D01*
D02*
G37*
G36*
X395063D02*
X394537Y17305D01*
X393636Y16785D01*
X392900Y16049D01*
X392380Y15148D01*
X392239Y14622D01*
X395063D01*
Y17446D01*
D02*
G37*
G36*
X405063D02*
X404537Y17305D01*
X403636Y16785D01*
X402900Y16049D01*
X402380Y15148D01*
X402239Y14622D01*
X405063D01*
Y17446D01*
D02*
G37*
G36*
X247473Y81200D02*
X245800D01*
Y79822D01*
X247473D01*
Y81200D01*
D02*
G37*
G36*
X243800D02*
X242127D01*
Y79822D01*
X243800D01*
Y81200D01*
D02*
G37*
G36*
X240915Y30669D02*
X235600D01*
Y28700D01*
X240915D01*
Y30669D01*
D02*
G37*
G36*
X233600D02*
X228285D01*
Y28700D01*
X233600D01*
Y30669D01*
D02*
G37*
G36*
X322496Y31821D02*
X316000D01*
Y26900D01*
X322496D01*
Y31821D01*
D02*
G37*
G36*
X314000D02*
X307504D01*
Y26900D01*
X314000D01*
Y31821D01*
D02*
G37*
G36*
X240915Y26700D02*
X235600D01*
Y24732D01*
X240915D01*
Y26700D01*
D02*
G37*
G36*
X233600D02*
X228285D01*
Y24732D01*
X233600D01*
Y26700D01*
D02*
G37*
G36*
X322496Y24900D02*
X316000D01*
Y19979D01*
X322496D01*
Y24900D01*
D02*
G37*
G36*
X314000D02*
X307504D01*
Y19979D01*
X314000D01*
Y24900D01*
D02*
G37*
%LPD*%
D10*
X391700Y141700D02*
Y147900D01*
X385600Y141600D02*
Y147900D01*
X379900Y142000D02*
Y147900D01*
X496900Y466400D02*
X517100D01*
X522000Y471300D01*
Y482500D01*
X494800Y360100D02*
X518700D01*
X494700D02*
X494800D01*
X518700D02*
X522000Y363400D01*
Y376443D01*
X485500Y384800D02*
X485600Y384900D01*
X485500Y377400D02*
Y384800D01*
X485400Y377300D02*
X485500Y377400D01*
X512700Y315300D02*
Y330800D01*
X515314Y333414D02*
X522000D01*
X512700Y330800D02*
X515314Y333414D01*
X484450Y324950D02*
Y332050D01*
X484400Y324900D02*
X484450Y324950D01*
Y332050D02*
X484500Y332100D01*
X502200Y414200D02*
X516800D01*
X522700Y420100D01*
Y430000D01*
X499500Y307600D02*
X519000D01*
X522000Y310600D01*
Y323414D01*
X505185Y250300D02*
X519000D01*
X505160Y250276D02*
X505185Y250300D01*
X522000Y253300D02*
Y270386D01*
X519000Y250300D02*
X522000Y253300D01*
X484450Y272750D02*
Y280650D01*
X484400Y280700D02*
X484450Y280650D01*
Y272750D02*
X484500Y272700D01*
X489000Y201300D02*
X518600D01*
X522000Y204700D01*
Y217357D01*
X512906Y207100D02*
Y223905D01*
X516357Y227357D02*
X522000D01*
X512906Y223905D02*
X516357Y227357D01*
X483900Y219400D02*
Y227500D01*
X483800Y219300D02*
X483900Y219400D01*
Y227500D02*
X484000Y227600D01*
X492600Y149800D02*
X519300D01*
X522000Y152500D02*
Y164329D01*
X519300Y149800D02*
X522000Y152500D01*
X512605Y155900D02*
Y172205D01*
X514729Y174329D02*
X522000D01*
X512605Y172205D02*
X514729Y174329D01*
X485000Y165500D02*
X485253Y165753D01*
Y173247D02*
X485505Y173500D01*
X485253Y165753D02*
Y173247D01*
X483200Y94000D02*
X516900D01*
X522000Y99100D01*
Y111300D01*
X513306Y102400D02*
Y119205D01*
X515400Y121300D01*
X522000D01*
X396400Y468300D02*
X402800D01*
X396300D02*
X396400D01*
X402800D02*
X405400Y470900D01*
Y482500D01*
X396605Y490705D02*
X398400Y492500D01*
X396605Y474000D02*
Y490705D01*
X398400Y492500D02*
X405400D01*
X395406Y420700D02*
Y435706D01*
X399400Y439700D02*
X405400D01*
X395406Y435706D02*
X399400Y439700D01*
X391700Y412900D02*
X402200D01*
X405400Y416100D02*
Y429700D01*
X402200Y412900D02*
X405400Y416100D01*
X388200Y361000D02*
X403600D01*
X405400Y362800D01*
Y376900D01*
X395400Y384300D02*
X398000Y386900D01*
X405400D01*
X395400Y368500D02*
Y384300D01*
X385600Y308400D02*
X403200D01*
X385500D02*
X385600D01*
X403200D02*
X405400Y310600D01*
Y324100D01*
X395005Y315400D02*
Y329706D01*
X399400Y334100D01*
X405400D01*
X369300Y325300D02*
Y332900D01*
Y325300D02*
X369300Y325300D01*
X369300Y271800D02*
Y278800D01*
Y271800D02*
X369300Y271800D01*
X395900Y278900D02*
X398300Y281300D01*
X405400D01*
X395900Y261300D02*
Y278900D01*
X382900Y256200D02*
X400500D01*
X405400Y261100D02*
Y271300D01*
X400500Y256200D02*
X405400Y261100D01*
X402500Y201600D02*
X405400Y204500D01*
Y218500D01*
X379900Y201600D02*
X402500D01*
X369300Y219600D02*
X369300Y219600D01*
X369300Y219600D02*
Y227100D01*
X399500Y228500D02*
X405400D01*
X396205Y225205D02*
X399500Y228500D01*
X396205Y207300D02*
Y225205D01*
X405300Y165600D02*
X405400Y165700D01*
X405300Y160500D02*
Y165600D01*
X384524Y184914D02*
X384610Y185000D01*
X383339Y183728D02*
X384524Y184914D01*
X382500Y179900D02*
X383339Y180739D01*
Y183728D01*
X382500Y176700D02*
Y179900D01*
X380500Y175700D02*
X381500D01*
X382500Y176700D01*
X369300Y166800D02*
X369300Y166800D01*
X369300Y166800D02*
Y174100D01*
X397800Y175700D02*
X405400D01*
X395500Y173400D02*
X397800Y175700D01*
X395500Y157700D02*
Y173400D01*
X394200Y142200D02*
Y147800D01*
Y142200D02*
X412000Y124400D01*
Y67685D02*
Y124400D01*
X391700Y141700D02*
X409700Y123700D01*
Y59985D02*
Y123700D01*
X388200Y142000D02*
Y147700D01*
X407300Y52385D02*
Y122900D01*
X388200Y142000D02*
X407300Y122900D01*
X404200Y45485D02*
Y123000D01*
X385600Y141600D02*
X404200Y123000D01*
X382900Y141900D02*
Y147700D01*
Y141900D02*
X401700Y123100D01*
Y37985D02*
Y123100D01*
X379900Y142000D02*
X398800Y123100D01*
Y30885D02*
Y123100D01*
X396063Y23622D02*
Y122700D01*
X376800Y141963D02*
Y147600D01*
Y141963D02*
X396063Y122700D01*
X412000Y67685D02*
X456063Y23622D01*
X409700Y59985D02*
X446063Y23622D01*
X407300Y52385D02*
X436063Y23622D01*
X404200Y45485D02*
X426063Y23622D01*
X401700Y37985D02*
X416063Y23622D01*
X398800Y30885D02*
X406063Y23622D01*
X244800Y88105D02*
X258469D01*
X237705D02*
X244800D01*
X258469D02*
X258564Y88200D01*
X234600Y85000D02*
X237705Y88105D01*
X234600Y40495D02*
Y85000D01*
X176600Y33400D02*
X184100D01*
X191500Y40800D02*
Y87100D01*
X184100Y33400D02*
X191500Y40800D01*
X340600Y91800D02*
Y97300D01*
X333300Y33200D02*
Y60600D01*
Y33200D02*
X343100Y23400D01*
X356600D01*
X340697Y103303D02*
X356503D01*
X340600Y103206D02*
X340697Y103303D01*
X356503D02*
X356600Y103400D01*
X290000Y84100D02*
Y86068D01*
X287868Y88200D02*
X290000Y86068D01*
X279036Y88200D02*
X287868D01*
X176600Y93400D02*
X176797Y93203D01*
X191303D02*
X191500Y93006D01*
X176797Y93203D02*
X191303D01*
D14*
X290000Y78194D02*
D03*
Y84100D02*
D03*
X298300Y84200D02*
D03*
Y78294D02*
D03*
X244800Y88105D02*
D03*
Y82200D02*
D03*
X191500Y87100D02*
D03*
Y93006D02*
D03*
X340600Y103206D02*
D03*
Y97300D02*
D03*
D28*
X488294Y566799D02*
X488295Y566800D01*
X488294Y560306D02*
Y566799D01*
X478451Y561549D02*
Y566800D01*
X429239Y554961D02*
X441900Y542300D01*
X429239Y554961D02*
Y566799D01*
X429240Y566800D01*
X439081Y560419D02*
X454700Y544800D01*
X439081Y560419D02*
Y566800D01*
X498153Y560847D02*
X519700Y539300D01*
X498136Y566800D02*
X498153Y566783D01*
Y560847D02*
Y566783D01*
X493683Y560217D02*
X517400Y536500D01*
X499002Y575776D02*
X500026Y576800D01*
X493683Y572189D02*
X498136Y576642D01*
X493683Y560217D02*
Y572189D01*
X498136Y576642D02*
X498136D01*
X483841Y559694D02*
X557200Y486336D01*
X489081Y575855D02*
X490026Y576800D01*
X483841Y559694D02*
Y572189D01*
X488294Y576642D02*
X488295D01*
X483841Y572189D02*
X488294Y576642D01*
X478451Y561549D02*
X550980Y489020D01*
X478451Y566800D02*
X479153Y566098D01*
X440026Y576800D02*
X444471Y572355D01*
Y560229D02*
X458600Y546100D01*
X444471Y560229D02*
Y572355D01*
X434479Y557721D02*
Y572347D01*
X430026Y576800D02*
X434479Y572347D01*
X154205Y572289D02*
X155716Y573800D01*
X154205Y566800D02*
Y572289D01*
X268800Y80700D02*
X271300Y83200D01*
X279036D01*
X440900Y485400D02*
X446400Y490900D01*
X434479Y557721D02*
X446400Y545800D01*
Y490900D02*
Y545800D01*
X433840Y486240D02*
X441900Y494300D01*
Y542300D01*
X428200Y94400D02*
X477000D01*
X484900Y102300D01*
X419900Y102700D02*
X428200Y94400D01*
X419900Y102700D02*
Y127100D01*
X550980Y450305D02*
Y489020D01*
X557200Y422700D02*
Y486336D01*
X550980Y416479D02*
X557200Y422700D01*
X433840Y416540D02*
X440900Y423600D01*
Y485400D01*
X505244Y472950D02*
X505395Y473100D01*
X483700Y472800D02*
X483850Y472950D01*
X505244D01*
X484244Y421850D02*
X484295Y421900D01*
X506695D02*
X506744Y421950D01*
X484295Y421900D02*
X506695D01*
X484645Y367050D02*
X484694Y367100D01*
X507094D02*
X507144Y367150D01*
X484694Y367100D02*
X507094D01*
X484344Y315250D02*
X484395Y315300D01*
X506795D02*
X506845Y315350D01*
X484395Y315300D02*
X506795D01*
X484745Y260750D02*
X484795Y260800D01*
X507195D02*
X507244Y260850D01*
X484795Y260800D02*
X507195D01*
X484550Y207050D02*
X484600Y207100D01*
X507000D02*
X507050Y207150D01*
X484600Y207100D02*
X507000D01*
X484250Y155850D02*
X484300Y155900D01*
X506700D02*
X506750Y155950D01*
X484300Y155900D02*
X506700D01*
X506845Y366850D02*
X507094Y367100D01*
X506595Y315100D02*
X506795Y315300D01*
X507094Y260700D02*
X507195Y260800D01*
X506950Y207150D02*
X507000Y207100D01*
X506500Y156100D02*
X506700Y155900D01*
X484950Y102350D02*
X507350D01*
X507400Y102400D01*
X484900Y102300D02*
X484950Y102350D01*
X375905Y474000D02*
X390700D01*
X374706Y420700D02*
X389500D01*
X374700Y368500D02*
X389494D01*
X374306Y315400D02*
X389100D01*
X375200Y261300D02*
X389995D01*
X375505Y207300D02*
X390300D01*
X374800Y157700D02*
X389595D01*
X479900Y566674D02*
X480026Y566800D01*
X576000Y378923D02*
Y507100D01*
X519700Y539300D02*
X543800D01*
X576000Y507100D01*
X572900Y428918D02*
Y505600D01*
X517400Y536500D02*
X542000D01*
X572900Y505600D01*
X488294Y560306D02*
X514600Y534000D01*
X539800D01*
X564820Y508980D01*
Y473700D02*
Y508980D01*
X550980Y397209D02*
Y416479D01*
X564759Y420777D02*
X572900Y428918D01*
X564759Y367682D02*
X576000Y378923D01*
X458600Y368887D02*
Y546100D01*
X454700Y427880D02*
Y544800D01*
X433840Y450328D02*
Y486240D01*
Y397228D02*
Y416540D01*
X447620Y420800D02*
X454700Y427880D01*
X433840Y344128D02*
X458600Y368887D01*
X504510Y126210D02*
Y133782D01*
X497100Y121300D02*
X499600D01*
X504510Y126210D01*
X472239Y132882D02*
X472689Y133332D01*
X504060D02*
X504510Y133782D01*
X472689Y133332D02*
X504060D01*
X486406Y113182D02*
X486453Y113229D01*
Y120835D02*
X486500Y120882D01*
X486453Y113229D02*
Y120835D01*
X472239Y132882D02*
X480594Y124527D01*
Y120882D02*
Y124527D01*
X369300Y483900D02*
X369300Y483900D01*
X369300Y483900D02*
Y491900D01*
X386010Y495510D02*
Y502400D01*
X383000Y492500D02*
X386010Y495510D01*
X380500Y492500D02*
X383000D01*
X355100Y503428D02*
X385239D01*
X355847Y499743D02*
Y502680D01*
X363394Y491900D02*
Y492195D01*
X355847Y499743D02*
X363394Y492195D01*
X355100Y503428D02*
X355847Y502680D01*
X258564Y67836D02*
X260300Y66100D01*
X266494D01*
X258564Y67836D02*
Y73200D01*
X279083Y78247D02*
X298253D01*
X298300Y78294D01*
X279036Y78200D02*
X279083Y78247D01*
X169826Y168800D02*
X184226Y183200D01*
X218800D01*
D29*
X366900Y249700D02*
X395743D01*
X398418Y241653D02*
Y247024D01*
X395743Y249700D02*
X398418Y247024D01*
X355100Y261500D02*
X366900Y249700D01*
X398690Y240200D02*
Y241381D01*
X398418Y241653D02*
X398690Y241381D01*
X413400Y246600D02*
Y292700D01*
X398690Y240200D02*
X407000D01*
X413400Y246600D01*
Y292700D02*
Y344500D01*
X412500Y291800D02*
X413400Y292700D01*
X398690Y291800D02*
X412500D01*
X413400Y344500D02*
Y397700D01*
X412800Y345100D02*
X413400Y344500D01*
X399690Y345100D02*
X412800D01*
X413400Y397700D02*
Y450500D01*
X412700Y397000D02*
X413400Y397700D01*
X400090Y397000D02*
X412700D01*
X413400Y450500D02*
Y499200D01*
X399990Y450700D02*
X413200D01*
X413400Y450500D01*
X399790Y502400D02*
X410200D01*
X413400Y499200D01*
X511300Y473100D02*
Y490000D01*
X513800Y492500D01*
X522000D01*
X500157Y501447D02*
X501339D01*
X501610Y501719D01*
X497100Y492500D02*
Y498390D01*
X500157Y501447D01*
X501610Y501719D02*
Y502900D01*
X501339Y503228D02*
X501610Y502956D01*
X472300Y503228D02*
X501339D01*
X501610Y502900D02*
Y502956D01*
X484303Y482303D02*
Y491097D01*
X484300Y491100D02*
X484303Y491097D01*
Y482303D02*
X484305Y482300D01*
X472300Y503228D02*
X478272Y497255D01*
Y491222D02*
Y497255D01*
Y491222D02*
X478395Y491100D01*
X512600Y421900D02*
Y436200D01*
X516400Y440000D02*
X522700D01*
X512600Y436200D02*
X516400Y440000D01*
X500300D02*
Y442500D01*
X502939Y445139D01*
X497800Y440000D02*
X500300D01*
X502939Y445139D02*
Y450028D01*
X503210Y450300D01*
X472242Y450302D02*
X480478Y442066D01*
X472239Y450305D02*
X472242Y450302D01*
X503208D02*
X503210Y450300D01*
X472242Y450302D02*
X503208D01*
X486105Y431451D02*
X486506Y431851D01*
Y439400D01*
X486105Y431400D02*
Y431451D01*
X480478Y439522D02*
Y442066D01*
Y439522D02*
X480600Y439400D01*
X513000Y367100D02*
Y379943D01*
X519500Y386443D02*
X522000D01*
X513000Y379943D02*
X519500Y386443D01*
X499321Y397419D02*
Y398037D01*
X497100Y386443D02*
Y395198D01*
X499321Y397419D01*
X472795Y397765D02*
X499049D01*
X499321Y398037D01*
X472239Y397209D02*
X472795Y397765D01*
X479572Y385022D02*
X479695Y384900D01*
X472239Y397209D02*
X479572Y389876D01*
Y385022D02*
Y389876D01*
X499600Y333414D02*
Y335914D01*
X502339Y338653D01*
X497100Y333414D02*
X499600D01*
X502339Y338653D02*
Y343428D01*
X502610Y343700D01*
X472446Y343907D02*
X478473Y337881D01*
X472446Y343907D02*
X502403D01*
X502610Y343700D01*
X472239Y344114D02*
X472446Y343907D01*
X478473Y332222D02*
Y337881D01*
Y332222D02*
X478594Y332100D01*
X519500Y280386D02*
X522000D01*
X513100Y273986D02*
X519500Y280386D01*
X513100Y260800D02*
Y273986D01*
X502910Y291731D02*
Y291900D01*
Y283696D02*
Y291731D01*
X499600Y280386D02*
X502910Y283696D01*
X497100Y280386D02*
X499600D01*
X502639Y291459D02*
X502910Y291731D01*
X472239Y291018D02*
X472680Y291459D01*
X502639D01*
X478372Y280822D02*
Y284885D01*
Y280822D02*
X478495Y280700D01*
X472239Y291018D02*
X478372Y284885D01*
X499600Y227357D02*
Y229857D01*
X501539Y237328D02*
X501810Y237600D01*
X497100Y227357D02*
X499600D01*
Y229857D02*
X501539Y231796D01*
Y237328D01*
Y237923D02*
X501810Y237651D01*
X472239Y237923D02*
X501539D01*
X501810Y237600D02*
Y237651D01*
X477973Y227722D02*
Y232190D01*
X472239Y237923D02*
X477973Y232190D01*
Y227722D02*
X478094Y227600D01*
X499600Y174329D02*
Y176829D01*
X501549Y178777D01*
Y184128D01*
X497100Y174329D02*
X499600D01*
X501549Y184128D02*
X501821Y184400D01*
X472453Y184614D02*
X479478Y177589D01*
X501607Y184614D02*
X501821Y184400D01*
X472453Y184614D02*
X501607D01*
X472239Y184828D02*
X472453Y184614D01*
X479478Y173622D02*
Y177589D01*
Y173622D02*
X479600Y173500D01*
X369300Y430000D02*
Y438000D01*
Y430000D02*
X369300Y430000D01*
X383000Y439700D02*
Y442200D01*
X385939Y450328D02*
Y450428D01*
Y445139D02*
Y450328D01*
X383000Y442200D02*
X385939Y445139D01*
X380500Y439700D02*
X383000D01*
X385939Y450428D02*
X386210Y450700D01*
X355100Y450328D02*
X385939D01*
X363272Y438122D02*
X363394Y438000D01*
X355100Y450328D02*
X363272Y442155D01*
Y438122D02*
Y442155D01*
X386310Y397000D02*
X386400Y396910D01*
Y390300D02*
Y396910D01*
X383000Y386900D02*
X386400Y390300D01*
X380500Y386900D02*
X383000D01*
X355214Y397114D02*
X386196D01*
X386310Y397000D01*
X355100Y397228D02*
X355214Y397114D01*
X355100Y387500D02*
X358400Y384200D01*
X363394D01*
X355100Y387500D02*
Y397228D01*
X369300Y377100D02*
Y384200D01*
Y377100D02*
X369300Y377100D01*
X385639Y344614D02*
Y344828D01*
Y339239D02*
Y344614D01*
X383000Y334100D02*
Y336600D01*
X385639Y339239D01*
Y344828D02*
X385910Y345100D01*
X380500Y334100D02*
X383000D01*
X355586Y344614D02*
X385639D01*
X355100Y344128D02*
X355586Y344614D01*
X356857Y333073D02*
X363272D01*
X355100Y334831D02*
Y344128D01*
Y334831D02*
X356857Y333073D01*
X363272D02*
X363394Y332951D01*
Y332900D02*
Y332951D01*
X380500Y281300D02*
X383000D01*
X384910Y283210D01*
Y291299D01*
X355100Y281800D02*
Y291028D01*
Y281800D02*
X356401Y280499D01*
X358100Y278800D01*
X363394D01*
X384639Y291028D02*
X384910Y291299D01*
X355100Y291028D02*
X384639D01*
X384910Y230410D02*
Y240200D01*
X380500Y228500D02*
X383000D01*
X384910Y230410D01*
X355239Y239128D02*
X356026D01*
X357098Y240200D02*
X384910D01*
X356026Y239128D02*
X357098Y240200D01*
X358100Y227100D02*
X363394D01*
X355239Y229961D02*
X358100Y227100D01*
X355239Y229961D02*
Y239128D01*
X355186Y184914D02*
X384524D01*
X355100Y184828D02*
X355186Y184914D01*
X363394Y174100D02*
Y174151D01*
X363272Y174273D02*
X363394Y174151D01*
X359427Y174273D02*
X363272D01*
X355100Y184828D02*
X355656Y184272D01*
Y178044D02*
Y184272D01*
Y178044D02*
X359427Y174273D01*
D30*
X472891Y423796D02*
X480200Y431105D01*
Y431400D01*
X472891Y421429D02*
Y423796D01*
X472239Y420777D02*
X472891Y421429D01*
X342800Y261500D02*
X355100D01*
X338600Y265700D02*
Y315000D01*
Y265700D02*
X342800Y261500D01*
X355770Y209070D02*
X363266Y216566D01*
X418100Y195900D02*
X459744D01*
X407200Y185000D02*
X418100Y195900D01*
X398390Y185000D02*
X407200D01*
X459744Y195900D02*
X472239Y208395D01*
X338600Y315000D02*
Y367900D01*
X339000Y314600D02*
X355100D01*
X338600Y315000D02*
X339000Y314600D01*
X338600Y367900D02*
Y420100D01*
X338800Y367700D02*
X355100D01*
X338600Y367900D02*
X338800Y367700D01*
X338600Y420100D02*
Y457400D01*
Y420100D02*
X339300Y420800D01*
X355100D01*
X338600Y457400D02*
X355100Y473900D01*
X518290Y133782D02*
Y139510D01*
X486139Y141400D02*
X516400D01*
X472239Y155300D02*
X486139Y141400D01*
X516400D02*
X518290Y139510D01*
X530200Y138900D02*
Y176700D01*
X518290Y133782D02*
X525082D01*
X530200Y138900D01*
X529581Y182900D02*
Y237923D01*
Y177319D02*
Y182900D01*
X515600Y184400D02*
X528081D01*
X529581Y182900D01*
Y237923D02*
Y291500D01*
X529258Y237600D02*
X529581Y237923D01*
X515590Y237600D02*
X529258D01*
X529581Y291500D02*
Y343100D01*
X529181Y291900D02*
X529581Y291500D01*
X516690Y291900D02*
X529181D01*
X529581Y343100D02*
Y398000D01*
X516390Y343700D02*
X528981D01*
X529581Y343100D01*
Y398000D02*
Y450800D01*
X528981Y398600D02*
X529581Y398000D01*
X513100Y398600D02*
X528981D01*
X516990Y450300D02*
X529081D01*
X529581Y450800D01*
Y499319D01*
X515390Y502900D02*
X526000D01*
X529581Y499319D01*
Y177319D02*
X530200Y176700D01*
X466600Y373321D02*
X472239Y367682D01*
X466600Y373321D02*
Y400758D01*
X472239Y406397D01*
Y420777D01*
X466100Y426916D02*
Y467500D01*
Y426916D02*
X472239Y420777D01*
X466100Y467500D02*
X472300Y473700D01*
X464000Y314586D02*
Y359442D01*
Y269730D02*
Y314586D01*
X472239D01*
X464000Y359442D02*
X472239Y367682D01*
X464000Y269730D02*
X472239Y261491D01*
X338600Y193300D02*
Y208400D01*
Y171800D02*
Y193300D01*
X396687Y186703D02*
X397868D01*
X338600Y193300D02*
X390090D01*
X398390Y185000D02*
Y186181D01*
X397868Y186703D02*
X398390Y186181D01*
X390090Y193300D02*
X396687Y186703D01*
X339800Y209600D02*
X355239D01*
X338600Y208400D02*
X339800Y209600D01*
X338600Y171800D02*
X355100Y155300D01*
X478272Y479672D02*
Y482172D01*
X478400Y482300D01*
X472300Y473700D02*
X478272Y479672D01*
X479366Y374809D02*
Y377172D01*
X472239Y367682D02*
X479366Y374809D01*
Y377172D02*
X479494Y377300D01*
X478495Y320841D02*
Y324900D01*
X472239Y314586D02*
X478495Y320841D01*
X478594Y267846D02*
Y272700D01*
X472239Y261491D02*
X478594Y267846D01*
X472239Y208395D02*
X477894Y214051D01*
Y219300D01*
X478967Y162027D02*
Y165372D01*
X479095Y165500D01*
X472239Y155300D02*
X478967Y162027D01*
X480372Y113054D02*
X480500Y113182D01*
X472239Y103355D02*
X480372Y111487D01*
Y113054D01*
X363266Y483772D02*
X363394Y483900D01*
X355100Y473900D02*
X363266Y482066D01*
Y483772D01*
Y429872D02*
X363394Y430000D01*
X355100Y420800D02*
X363266Y428967D01*
Y429872D01*
Y376972D02*
X363394Y377100D01*
X355100Y367700D02*
X363266Y375867D01*
Y376972D01*
Y325172D02*
X363394Y325300D01*
X355100Y314600D02*
X363266Y322766D01*
Y325172D01*
Y269667D02*
Y271672D01*
X355100Y261500D02*
X363266Y269667D01*
Y271672D02*
X363394Y271800D01*
X363266Y166672D02*
X363394Y166800D01*
X355100Y155300D02*
X363266Y163467D01*
Y166672D01*
Y216566D02*
Y219472D01*
X363394Y219600D01*
D31*
X153500Y5800D02*
X408241D01*
X416063Y13622D01*
X219100Y40195D02*
X234600D01*
X234631Y40464D02*
X243601D01*
X243965Y40100D01*
X244100D01*
X234600Y40495D02*
X234631Y40464D01*
X244100Y40100D02*
X250761D01*
X251361Y40700D01*
X149700Y25400D02*
Y117500D01*
Y9600D02*
X153500Y5800D01*
X149700Y9600D02*
Y25400D01*
X378300Y40817D02*
Y53200D01*
X378200Y40716D02*
X378300Y40817D01*
X286400Y40950D02*
X287550Y42100D01*
X292400D01*
X286400Y40700D02*
Y40950D01*
X302775Y52475D02*
X315000D01*
X292400Y42100D02*
X302775Y52475D01*
X279036Y65282D02*
Y73200D01*
Y57364D02*
Y65282D01*
X278218Y66100D02*
X279036Y65282D01*
X272400Y66100D02*
X278218D01*
X285400Y41700D02*
Y51000D01*
Y41700D02*
X286400Y40700D01*
X279036Y57364D02*
X285400Y51000D01*
X340097Y51203D02*
X350584Y40716D01*
X378200D01*
X340097Y51203D02*
Y70103D01*
X298300Y78294D02*
X331906D01*
X340097Y70103D01*
X356800Y23200D02*
X378000D01*
X356600Y23400D02*
X356800Y23200D01*
X378000D02*
X378200Y23000D01*
X149700Y25400D02*
X168600D01*
X176600Y33400D01*
X170700Y138500D02*
X219000D01*
X149700Y117500D02*
X170700Y138500D01*
X219000D02*
X224865Y144365D01*
Y168800D01*
X245600Y168769D02*
Y180015D01*
X245568Y168800D02*
X245600Y168769D01*
X224865Y168800D02*
X245568D01*
X245600Y168700D02*
Y168769D01*
X245673Y180088D02*
Y185768D01*
X245705Y185800D01*
X245600Y180015D02*
X245673Y180088D01*
X224706Y183200D02*
X224865Y183040D01*
Y168800D02*
Y183040D01*
D32*
X220100Y101600D02*
X261200D01*
X219400Y102300D02*
X220100Y101600D01*
X75400Y440300D02*
X89300Y454200D01*
X188572D02*
X282385Y548013D01*
X89300Y454200D02*
X188572D01*
X1300Y120926D02*
X20426Y101800D01*
X1300Y120926D02*
Y466529D01*
X34126Y499355D01*
X167000Y548398D02*
X167385Y548013D01*
X167000Y548398D02*
Y566800D01*
X174072Y479700D02*
X242385Y548013D01*
X34126Y462726D02*
X51100Y479700D01*
X174072D01*
X34126Y440300D02*
Y462726D01*
X75400Y499355D02*
X118728D01*
X167385Y548013D01*
X34126Y499355D02*
X75400D01*
X50326Y101800D02*
X51026Y101100D01*
X20426Y101800D02*
X50326D01*
X90396Y101100D02*
X91526Y102230D01*
Y133700D01*
X58626Y135900D02*
X89326D01*
X91526Y133700D01*
X51000Y153200D02*
X81498D01*
X91526Y163228D01*
X42300Y144500D02*
X51000Y153200D01*
X42300Y128600D02*
Y144500D01*
X35853Y122152D02*
X42300Y128600D01*
X20778Y122152D02*
X35853D01*
X20426Y121800D02*
X20778Y122152D01*
X85100Y219800D02*
X107500Y242200D01*
Y303881D01*
X84481Y326900D02*
X107500Y303881D01*
X20200Y264789D02*
X79481D01*
X85100Y259170D01*
X96935Y339353D02*
Y357200D01*
X84481Y326900D02*
X96935Y339353D01*
Y357200D02*
Y365317D01*
X75252Y387000D02*
X96935Y365317D01*
X75400Y407148D02*
Y440300D01*
X75252Y407000D02*
X75400Y407148D01*
X34126Y408000D02*
Y440300D01*
X33126Y407000D02*
X34126Y408000D01*
X16226Y357200D02*
Y370100D01*
X33126Y387000D01*
X16226Y357200D02*
X25426Y348000D01*
Y326900D02*
Y348000D01*
X24700Y326174D02*
X25426Y326900D01*
X24700Y303800D02*
Y326174D01*
X20200Y299300D02*
X24700Y303800D01*
X20200Y264789D02*
Y299300D01*
X20313Y141913D02*
Y176487D01*
X20200Y176600D02*
X20313Y176487D01*
Y141913D02*
X20426Y141800D01*
D33*
X11811Y570866D02*
D03*
Y19685D02*
D03*
X562992Y570866D02*
D03*
Y19685D02*
D03*
D34*
X517821Y566800D02*
D03*
X496063Y23622D02*
D03*
X78740Y574803D02*
D03*
D35*
X517821Y576642D02*
D03*
X507979Y566800D02*
D03*
Y576642D02*
D03*
X498136Y566800D02*
D03*
Y576642D02*
D03*
X488294Y566800D02*
D03*
Y576642D02*
D03*
X478451Y566800D02*
D03*
Y576642D02*
D03*
X468609Y566800D02*
D03*
Y576642D02*
D03*
X458766Y566800D02*
D03*
Y576642D02*
D03*
X448924Y566800D02*
D03*
Y576642D02*
D03*
X439081Y566800D02*
D03*
Y576642D02*
D03*
X429239Y566800D02*
D03*
Y576642D02*
D03*
X419396Y566800D02*
D03*
Y576642D02*
D03*
X409554Y566800D02*
D03*
Y576642D02*
D03*
X399711Y566800D02*
D03*
Y576642D02*
D03*
X389869Y566800D02*
D03*
Y576642D02*
D03*
X380026Y566800D02*
D03*
Y576642D02*
D03*
X551040Y503228D02*
D03*
X564820Y473700D02*
D03*
X537261D02*
D03*
X472300D02*
D03*
Y503228D02*
D03*
X550980Y450305D02*
D03*
X564759Y420777D02*
D03*
X537200D02*
D03*
X472239D02*
D03*
Y450305D02*
D03*
X550980Y397209D02*
D03*
X564759Y367682D02*
D03*
X537200D02*
D03*
X472239D02*
D03*
Y397209D02*
D03*
X550980Y344114D02*
D03*
X564759Y314586D02*
D03*
X537200D02*
D03*
X472239D02*
D03*
Y344114D02*
D03*
Y291018D02*
D03*
Y261491D02*
D03*
X537200D02*
D03*
X564759D02*
D03*
X550980Y291018D02*
D03*
Y237923D02*
D03*
X564759Y208395D02*
D03*
X537200D02*
D03*
X472239D02*
D03*
Y237923D02*
D03*
X550980Y184828D02*
D03*
X564759Y155300D02*
D03*
X537200D02*
D03*
X472239D02*
D03*
Y184828D02*
D03*
X550980Y132882D02*
D03*
X564759Y103355D02*
D03*
X537200D02*
D03*
X472239D02*
D03*
Y132882D02*
D03*
X355100Y184828D02*
D03*
Y155300D02*
D03*
X420061D02*
D03*
X447620D02*
D03*
X433840Y184828D02*
D03*
X355239Y239128D02*
D03*
Y209600D02*
D03*
X420200D02*
D03*
X447759D02*
D03*
X433980Y239128D02*
D03*
X355100Y291028D02*
D03*
Y261500D02*
D03*
X420061D02*
D03*
X447620D02*
D03*
X433840Y291028D02*
D03*
X355100Y344128D02*
D03*
Y314600D02*
D03*
X420061D02*
D03*
X447620D02*
D03*
X433840Y344128D02*
D03*
X355100Y397228D02*
D03*
Y367700D02*
D03*
X420061D02*
D03*
X447620D02*
D03*
X433840Y397228D02*
D03*
X355100Y503428D02*
D03*
Y473900D02*
D03*
X420061D02*
D03*
X447620D02*
D03*
X433840Y503428D02*
D03*
X355100Y450328D02*
D03*
Y420800D02*
D03*
X420061D02*
D03*
X447620D02*
D03*
X433840Y450328D02*
D03*
X396063Y13622D02*
D03*
Y23622D02*
D03*
X406063Y13622D02*
D03*
Y23622D02*
D03*
X416063Y13622D02*
D03*
Y23622D02*
D03*
X426063Y13622D02*
D03*
Y23622D02*
D03*
X436063Y13622D02*
D03*
Y23622D02*
D03*
X446063Y13622D02*
D03*
Y23622D02*
D03*
X456063Y13622D02*
D03*
Y23622D02*
D03*
X466063Y13622D02*
D03*
Y23622D02*
D03*
X476063Y13622D02*
D03*
Y23622D02*
D03*
X486063Y13622D02*
D03*
Y23622D02*
D03*
X496063Y13622D02*
D03*
X48740Y564803D02*
D03*
Y574803D02*
D03*
X58740Y564803D02*
D03*
Y574803D02*
D03*
X68740Y564803D02*
D03*
Y574803D02*
D03*
X78740Y564803D02*
D03*
X268800Y80700D02*
D03*
D36*
X16226Y357200D02*
D03*
X96935D02*
D03*
X25426Y326900D02*
D03*
X84481D02*
D03*
X51026Y101100D02*
D03*
X90396D02*
D03*
X75400Y499355D02*
D03*
Y440300D02*
D03*
X58626Y135900D02*
D03*
Y165428D02*
D03*
X75252Y387000D02*
D03*
X33126D02*
D03*
Y407000D02*
D03*
X75252D02*
D03*
X91526Y163228D02*
D03*
Y133700D02*
D03*
X85100Y259170D02*
D03*
Y219800D02*
D03*
X34126Y440300D02*
D03*
Y499355D02*
D03*
D37*
X356600Y103400D02*
D03*
Y63400D02*
D03*
Y23400D02*
D03*
X176600Y33400D02*
D03*
Y53400D02*
D03*
Y93400D02*
D03*
X20426Y141800D02*
D03*
Y121800D02*
D03*
Y101800D02*
D03*
D38*
X282385Y548013D02*
D03*
X242385D02*
D03*
X167385D02*
D03*
X169826Y168800D02*
D03*
X204865D02*
D03*
X224865D02*
D03*
X20200Y176600D02*
D03*
Y264789D02*
D03*
D39*
X500716Y458800D02*
D03*
X503216Y13800D02*
D03*
X500716Y8800D02*
D03*
X490716Y478800D02*
D03*
Y468800D02*
D03*
X493216Y463800D02*
D03*
X490716Y458800D02*
D03*
X493216Y413800D02*
D03*
X490716Y408800D02*
D03*
X493216Y403800D02*
D03*
X490716Y358800D02*
D03*
Y348800D02*
D03*
Y338800D02*
D03*
Y328800D02*
D03*
Y308800D02*
D03*
Y298800D02*
D03*
Y248800D02*
D03*
Y8800D02*
D03*
X488216Y463800D02*
D03*
X480716Y8800D02*
D03*
X475716Y508800D02*
D03*
X478216Y463800D02*
D03*
X475716Y458800D02*
D03*
X478216Y413800D02*
D03*
Y403800D02*
D03*
Y363800D02*
D03*
X475716Y358800D02*
D03*
X478216Y353800D02*
D03*
Y313800D02*
D03*
X475716Y308800D02*
D03*
X478216Y303800D02*
D03*
X475716Y298800D02*
D03*
X478216Y253800D02*
D03*
X475716Y248800D02*
D03*
X478216Y243800D02*
D03*
Y203800D02*
D03*
X475716Y198800D02*
D03*
X478216Y193800D02*
D03*
X475716Y138800D02*
D03*
Y118800D02*
D03*
Y88800D02*
D03*
X478216Y83800D02*
D03*
X475716Y78800D02*
D03*
X478216Y73800D02*
D03*
X475716Y68800D02*
D03*
X478216Y63800D02*
D03*
X475716Y58800D02*
D03*
X478216Y53800D02*
D03*
X473216Y493800D02*
D03*
X470716Y488800D02*
D03*
X473216Y483800D02*
D03*
Y463800D02*
D03*
X470716Y458800D02*
D03*
Y358800D02*
D03*
X473216Y353800D02*
D03*
X470716Y308800D02*
D03*
X473216Y303800D02*
D03*
X470716Y298800D02*
D03*
X473216Y253800D02*
D03*
X470716Y248800D02*
D03*
Y228800D02*
D03*
X473216Y223800D02*
D03*
X470716Y218800D02*
D03*
Y198800D02*
D03*
X473216Y193800D02*
D03*
X470716Y178800D02*
D03*
X473216Y173800D02*
D03*
X470716Y168800D02*
D03*
X473216Y163800D02*
D03*
X470716Y148800D02*
D03*
X473216Y143800D02*
D03*
X470716Y138800D02*
D03*
X473216Y123800D02*
D03*
X470716Y118800D02*
D03*
X473216Y113800D02*
D03*
X470716Y88800D02*
D03*
X473216Y83800D02*
D03*
X470716Y78800D02*
D03*
X473216Y73800D02*
D03*
X470716Y68800D02*
D03*
X473216Y63800D02*
D03*
X470716Y58800D02*
D03*
X473216Y53800D02*
D03*
X470716Y48800D02*
D03*
Y8800D02*
D03*
X468216Y493800D02*
D03*
Y483800D02*
D03*
Y243800D02*
D03*
Y223800D02*
D03*
Y213800D02*
D03*
Y193800D02*
D03*
Y173800D02*
D03*
Y163800D02*
D03*
Y143800D02*
D03*
Y123800D02*
D03*
Y113800D02*
D03*
X465716Y98800D02*
D03*
Y88800D02*
D03*
X468216Y83800D02*
D03*
X465716Y78800D02*
D03*
X468216Y73800D02*
D03*
X465716Y68800D02*
D03*
X468216Y63800D02*
D03*
X465716Y58800D02*
D03*
X468216Y53800D02*
D03*
X465716Y48800D02*
D03*
X468216Y43800D02*
D03*
X463216Y103800D02*
D03*
X460716Y98800D02*
D03*
Y88800D02*
D03*
X463216Y83800D02*
D03*
X460716Y78800D02*
D03*
X463216Y73800D02*
D03*
X460716Y68800D02*
D03*
X463216Y63800D02*
D03*
X460716Y58800D02*
D03*
X463216Y53800D02*
D03*
X460716Y48800D02*
D03*
X463216Y43800D02*
D03*
X460716Y38800D02*
D03*
Y28800D02*
D03*
Y18800D02*
D03*
Y8800D02*
D03*
X458216Y133800D02*
D03*
X455716Y128800D02*
D03*
X458216Y123800D02*
D03*
X455716Y118800D02*
D03*
X458216Y113800D02*
D03*
X455716Y108800D02*
D03*
X458216Y103800D02*
D03*
X455716Y98800D02*
D03*
Y88800D02*
D03*
X458216Y83800D02*
D03*
X455716Y78800D02*
D03*
X458216Y73800D02*
D03*
X455716Y68800D02*
D03*
X458216Y63800D02*
D03*
X455716Y58800D02*
D03*
X458216Y53800D02*
D03*
X455716Y48800D02*
D03*
X458216Y43800D02*
D03*
X455716Y38800D02*
D03*
X458216Y33800D02*
D03*
X453216Y133800D02*
D03*
X450716Y128800D02*
D03*
X453216Y123800D02*
D03*
X450716Y118800D02*
D03*
X453216Y113800D02*
D03*
X450716Y108800D02*
D03*
X453216Y103800D02*
D03*
X450716Y98800D02*
D03*
Y88800D02*
D03*
X453216Y83800D02*
D03*
X450716Y78800D02*
D03*
X453216Y73800D02*
D03*
X450716Y68800D02*
D03*
X453216Y63800D02*
D03*
X450716Y58800D02*
D03*
X453216Y53800D02*
D03*
X450716Y48800D02*
D03*
X453216Y43800D02*
D03*
X450716Y38800D02*
D03*
X453216Y33800D02*
D03*
X450716Y18800D02*
D03*
Y8800D02*
D03*
X448216Y133800D02*
D03*
X445716Y128800D02*
D03*
X448216Y123800D02*
D03*
X445716Y118800D02*
D03*
X448216Y113800D02*
D03*
X445716Y108800D02*
D03*
X448216Y103800D02*
D03*
X445716Y98800D02*
D03*
Y88800D02*
D03*
X448216Y83800D02*
D03*
X445716Y78800D02*
D03*
X448216Y73800D02*
D03*
X445716Y68800D02*
D03*
X448216Y63800D02*
D03*
X445716Y58800D02*
D03*
X448216Y53800D02*
D03*
X445716Y48800D02*
D03*
X448216Y43800D02*
D03*
X443216Y133800D02*
D03*
X440716Y128800D02*
D03*
X443216Y123800D02*
D03*
X440716Y118800D02*
D03*
X443216Y113800D02*
D03*
X440716Y108800D02*
D03*
X443216Y103800D02*
D03*
X440716Y98800D02*
D03*
Y88800D02*
D03*
X443216Y83800D02*
D03*
X440716Y78800D02*
D03*
X443216Y73800D02*
D03*
X440716Y68800D02*
D03*
X443216Y63800D02*
D03*
X440716Y58800D02*
D03*
X443216Y53800D02*
D03*
X440716Y48800D02*
D03*
X443216Y43800D02*
D03*
X440716Y18800D02*
D03*
Y8800D02*
D03*
X438216Y133800D02*
D03*
X435716Y128800D02*
D03*
X438216Y123800D02*
D03*
X435716Y118800D02*
D03*
X438216Y113800D02*
D03*
X435716Y108800D02*
D03*
X438216Y103800D02*
D03*
X435716Y98800D02*
D03*
Y88800D02*
D03*
X438216Y83800D02*
D03*
X435716Y78800D02*
D03*
X438216Y73800D02*
D03*
X435716Y68800D02*
D03*
X438216Y63800D02*
D03*
X435716Y58800D02*
D03*
X438216Y53800D02*
D03*
X433216Y133800D02*
D03*
X430716Y128800D02*
D03*
X433216Y123800D02*
D03*
X430716Y118800D02*
D03*
X433216Y113800D02*
D03*
X430716Y108800D02*
D03*
X433216Y103800D02*
D03*
X430716Y98800D02*
D03*
Y88800D02*
D03*
X433216Y83800D02*
D03*
X430716Y78800D02*
D03*
X433216Y73800D02*
D03*
X430716Y68800D02*
D03*
X433216Y63800D02*
D03*
X430716Y58800D02*
D03*
X433216Y53800D02*
D03*
X430716Y8800D02*
D03*
X428216Y133800D02*
D03*
X425716Y128800D02*
D03*
X428216Y123800D02*
D03*
X425716Y118800D02*
D03*
X428216Y113800D02*
D03*
X425716Y108800D02*
D03*
X428216Y103800D02*
D03*
X425716Y88800D02*
D03*
X428216Y83800D02*
D03*
X425716Y78800D02*
D03*
X428216Y73800D02*
D03*
X425716Y68800D02*
D03*
X428216Y63800D02*
D03*
X423216Y133800D02*
D03*
X420716Y88800D02*
D03*
X423216Y83800D02*
D03*
X420716Y78800D02*
D03*
X423216Y73800D02*
D03*
X420716Y68800D02*
D03*
X423216Y63800D02*
D03*
X418216Y133800D02*
D03*
X415716Y118800D02*
D03*
Y108800D02*
D03*
Y98800D02*
D03*
X418216Y93800D02*
D03*
X415716Y88800D02*
D03*
X418216Y83800D02*
D03*
X415716Y78800D02*
D03*
X418216Y73800D02*
D03*
X413216Y133800D02*
D03*
X405716Y138800D02*
D03*
X408216Y133800D02*
D03*
X390716Y518800D02*
D03*
Y508800D02*
D03*
Y488800D02*
D03*
Y478800D02*
D03*
Y468800D02*
D03*
Y118800D02*
D03*
Y108800D02*
D03*
Y78800D02*
D03*
Y48800D02*
D03*
Y38800D02*
D03*
Y28800D02*
D03*
X385716Y518800D02*
D03*
X388216Y513800D02*
D03*
X385716Y508800D02*
D03*
X388216Y483800D02*
D03*
X385716Y468800D02*
D03*
X388216Y463800D02*
D03*
X385716Y458800D02*
D03*
X388216Y433800D02*
D03*
X385716Y408800D02*
D03*
Y118800D02*
D03*
X388216Y113800D02*
D03*
X385716Y108800D02*
D03*
X388216Y103800D02*
D03*
X385716Y98800D02*
D03*
Y88800D02*
D03*
X388216Y83800D02*
D03*
X385716Y78800D02*
D03*
X388216Y73800D02*
D03*
X385716Y68800D02*
D03*
X388216Y53800D02*
D03*
X385716Y48800D02*
D03*
X388216Y43800D02*
D03*
X380716Y518800D02*
D03*
X383216Y513800D02*
D03*
X380716Y508800D02*
D03*
Y498800D02*
D03*
Y468800D02*
D03*
X383216Y463800D02*
D03*
X380716Y458800D02*
D03*
X383216Y413800D02*
D03*
X380716Y408800D02*
D03*
X383216Y403800D02*
D03*
Y363800D02*
D03*
X380716Y358800D02*
D03*
X383216Y353800D02*
D03*
X380716Y328800D02*
D03*
Y308800D02*
D03*
Y298800D02*
D03*
X375716Y518800D02*
D03*
X378216Y513800D02*
D03*
X375716Y508800D02*
D03*
Y498800D02*
D03*
Y128800D02*
D03*
Y28800D02*
D03*
X370716Y518800D02*
D03*
X373216Y513800D02*
D03*
X370716Y508800D02*
D03*
Y498800D02*
D03*
Y478800D02*
D03*
Y468800D02*
D03*
Y458800D02*
D03*
Y408800D02*
D03*
Y358800D02*
D03*
Y338800D02*
D03*
Y308800D02*
D03*
Y298800D02*
D03*
Y258800D02*
D03*
Y208800D02*
D03*
Y198800D02*
D03*
Y178800D02*
D03*
X373216Y113800D02*
D03*
X370716Y108800D02*
D03*
X373216Y103800D02*
D03*
X370716Y98800D02*
D03*
X373216Y93800D02*
D03*
X370716Y88800D02*
D03*
X373216Y83800D02*
D03*
X370716Y78800D02*
D03*
X373216Y73800D02*
D03*
X370716Y68800D02*
D03*
X373216Y63800D02*
D03*
X370716Y58800D02*
D03*
Y48800D02*
D03*
X373216Y33800D02*
D03*
X370716Y28800D02*
D03*
X365716Y518800D02*
D03*
X368216Y513800D02*
D03*
X365716Y508800D02*
D03*
Y498800D02*
D03*
X368216Y473800D02*
D03*
X365716Y468800D02*
D03*
X368216Y463800D02*
D03*
X365716Y458800D02*
D03*
X368216Y443800D02*
D03*
Y423800D02*
D03*
X365716Y418800D02*
D03*
X368216Y413800D02*
D03*
X365716Y408800D02*
D03*
X368216Y403800D02*
D03*
X365716Y368800D02*
D03*
X368216Y363800D02*
D03*
X365716Y358800D02*
D03*
X368216Y353800D02*
D03*
X365716Y338800D02*
D03*
Y318800D02*
D03*
X368216Y313800D02*
D03*
X365716Y308800D02*
D03*
X368216Y303800D02*
D03*
X365716Y298800D02*
D03*
X368216Y283800D02*
D03*
Y263800D02*
D03*
X365716Y258800D02*
D03*
X368216Y233800D02*
D03*
Y213800D02*
D03*
X365716Y208800D02*
D03*
X368216Y203800D02*
D03*
X365716Y198800D02*
D03*
Y178800D02*
D03*
Y158800D02*
D03*
X368216Y153800D02*
D03*
X365716Y148800D02*
D03*
X368216Y143800D02*
D03*
X365716Y138800D02*
D03*
Y118800D02*
D03*
X368216Y113800D02*
D03*
X365716Y108800D02*
D03*
X368216Y103800D02*
D03*
X365716Y98800D02*
D03*
X368216Y93800D02*
D03*
X365716Y88800D02*
D03*
X368216Y83800D02*
D03*
X365716Y78800D02*
D03*
X368216Y73800D02*
D03*
X365716Y68800D02*
D03*
X368216Y63800D02*
D03*
X365716Y58800D02*
D03*
X368216Y53800D02*
D03*
X365716Y48800D02*
D03*
X368216Y33800D02*
D03*
X365716Y28800D02*
D03*
X360716Y518800D02*
D03*
X363216Y513800D02*
D03*
X360716Y508800D02*
D03*
X363216Y473800D02*
D03*
X360716Y468800D02*
D03*
X363216Y463800D02*
D03*
X360716Y458800D02*
D03*
X363216Y413800D02*
D03*
X360716Y408800D02*
D03*
X363216Y403800D02*
D03*
Y363800D02*
D03*
X360716Y358800D02*
D03*
X363216Y353800D02*
D03*
X360716Y338800D02*
D03*
X363216Y313800D02*
D03*
X360716Y308800D02*
D03*
X363216Y303800D02*
D03*
X360716Y298800D02*
D03*
X363216Y283800D02*
D03*
Y203800D02*
D03*
X360716Y198800D02*
D03*
X363216Y153800D02*
D03*
X360716Y148800D02*
D03*
X363216Y143800D02*
D03*
Y123800D02*
D03*
X360716Y118800D02*
D03*
X363216Y113800D02*
D03*
Y93800D02*
D03*
X360716Y88800D02*
D03*
X363216Y83800D02*
D03*
X360716Y78800D02*
D03*
X363216Y73800D02*
D03*
Y53800D02*
D03*
X360716Y48800D02*
D03*
X363216Y33800D02*
D03*
X355716Y518800D02*
D03*
X358216Y513800D02*
D03*
X355716Y488800D02*
D03*
X358216Y483800D02*
D03*
Y463800D02*
D03*
X355716Y458800D02*
D03*
Y438800D02*
D03*
X358216Y433800D02*
D03*
X355716Y428800D02*
D03*
X358216Y413800D02*
D03*
X355716Y408800D02*
D03*
X358216Y403800D02*
D03*
X355716Y378800D02*
D03*
Y358800D02*
D03*
X358216Y353800D02*
D03*
Y323800D02*
D03*
Y303800D02*
D03*
X355716Y298800D02*
D03*
X358216Y273800D02*
D03*
X355716Y268800D02*
D03*
Y248800D02*
D03*
Y218800D02*
D03*
X358216Y203800D02*
D03*
X355716Y198800D02*
D03*
Y128800D02*
D03*
X358216Y123800D02*
D03*
X355716Y118800D02*
D03*
X358216Y113800D02*
D03*
Y93800D02*
D03*
X355716Y88800D02*
D03*
X358216Y83800D02*
D03*
X355716Y78800D02*
D03*
X358216Y73800D02*
D03*
Y53800D02*
D03*
X355716Y48800D02*
D03*
X358216Y33800D02*
D03*
X350716Y518800D02*
D03*
X353216Y513800D02*
D03*
X350716Y508800D02*
D03*
Y498800D02*
D03*
X353216Y493800D02*
D03*
X350716Y488800D02*
D03*
X353216Y483800D02*
D03*
X350716Y478800D02*
D03*
X353216Y463800D02*
D03*
X350716Y458800D02*
D03*
X353216Y443800D02*
D03*
X350716Y438800D02*
D03*
X353216Y433800D02*
D03*
X350716Y428800D02*
D03*
X353216Y413800D02*
D03*
X350716Y408800D02*
D03*
X353216Y403800D02*
D03*
X350716Y378800D02*
D03*
X353216Y373800D02*
D03*
X350716Y358800D02*
D03*
X353216Y353800D02*
D03*
X350716Y348800D02*
D03*
Y328800D02*
D03*
X353216Y323800D02*
D03*
X350716Y308800D02*
D03*
X353216Y303800D02*
D03*
X350716Y298800D02*
D03*
Y278800D02*
D03*
X353216Y273800D02*
D03*
X350716Y268800D02*
D03*
X353216Y253800D02*
D03*
X350716Y248800D02*
D03*
Y228800D02*
D03*
X353216Y223800D02*
D03*
X350716Y218800D02*
D03*
X353216Y203800D02*
D03*
X350716Y198800D02*
D03*
X353216Y133800D02*
D03*
X350716Y128800D02*
D03*
X353216Y123800D02*
D03*
X350716Y118800D02*
D03*
X353216Y113800D02*
D03*
X350716Y108800D02*
D03*
X353216Y93800D02*
D03*
X350716Y88800D02*
D03*
X353216Y83800D02*
D03*
X350716Y78800D02*
D03*
X353216Y73800D02*
D03*
X350716Y68800D02*
D03*
X353216Y53800D02*
D03*
X350716Y48800D02*
D03*
X353216Y33800D02*
D03*
X350716Y28800D02*
D03*
X345716Y518800D02*
D03*
X348216Y513800D02*
D03*
X345716Y508800D02*
D03*
X348216Y503800D02*
D03*
X345716Y498800D02*
D03*
X348216Y493800D02*
D03*
X345716Y488800D02*
D03*
X348216Y483800D02*
D03*
X345716Y478800D02*
D03*
X348216Y473800D02*
D03*
Y453800D02*
D03*
X345716Y448800D02*
D03*
X348216Y443800D02*
D03*
X345716Y438800D02*
D03*
X348216Y433800D02*
D03*
X345716Y428800D02*
D03*
X348216Y413800D02*
D03*
X345716Y408800D02*
D03*
X348216Y403800D02*
D03*
X345716Y398800D02*
D03*
X348216Y393800D02*
D03*
X345716Y388800D02*
D03*
X348216Y383800D02*
D03*
X345716Y378800D02*
D03*
X348216Y373800D02*
D03*
X345716Y358800D02*
D03*
X348216Y353800D02*
D03*
X345716Y348800D02*
D03*
X348216Y343800D02*
D03*
X345716Y338800D02*
D03*
X348216Y333800D02*
D03*
X345716Y328800D02*
D03*
X348216Y323800D02*
D03*
X345716Y308800D02*
D03*
X348216Y303800D02*
D03*
X345716Y298800D02*
D03*
X348216Y293800D02*
D03*
X345716Y288800D02*
D03*
X348216Y283800D02*
D03*
X345716Y278800D02*
D03*
X348216Y273800D02*
D03*
X345716Y268800D02*
D03*
X348216Y253800D02*
D03*
X345716Y248800D02*
D03*
X348216Y243800D02*
D03*
X345716Y238800D02*
D03*
X348216Y233800D02*
D03*
X345716Y228800D02*
D03*
X348216Y223800D02*
D03*
X345716Y218800D02*
D03*
X348216Y203800D02*
D03*
X345716Y198800D02*
D03*
X348216Y153800D02*
D03*
X345716Y148800D02*
D03*
X348216Y143800D02*
D03*
X345716Y138800D02*
D03*
X348216Y133800D02*
D03*
X345716Y128800D02*
D03*
X348216Y123800D02*
D03*
X345716Y118800D02*
D03*
X348216Y113800D02*
D03*
X345716Y108800D02*
D03*
Y98800D02*
D03*
X348216Y93800D02*
D03*
X345716Y88800D02*
D03*
X348216Y83800D02*
D03*
X345716Y78800D02*
D03*
X348216Y73800D02*
D03*
X345716Y68800D02*
D03*
X348216Y63800D02*
D03*
X345716Y58800D02*
D03*
X348216Y53800D02*
D03*
Y33800D02*
D03*
X345716Y28800D02*
D03*
Y18800D02*
D03*
X340716Y518800D02*
D03*
X343216Y513800D02*
D03*
X340716Y508800D02*
D03*
X343216Y503800D02*
D03*
X340716Y498800D02*
D03*
X343216Y493800D02*
D03*
X340716Y488800D02*
D03*
X343216Y483800D02*
D03*
X340716Y478800D02*
D03*
X343216Y473800D02*
D03*
X340716Y468800D02*
D03*
X343216Y453800D02*
D03*
Y443800D02*
D03*
Y433800D02*
D03*
Y413800D02*
D03*
Y403800D02*
D03*
Y393800D02*
D03*
Y383800D02*
D03*
Y373800D02*
D03*
Y353800D02*
D03*
Y343800D02*
D03*
Y333800D02*
D03*
Y323800D02*
D03*
Y303800D02*
D03*
Y293800D02*
D03*
Y283800D02*
D03*
Y273800D02*
D03*
Y253800D02*
D03*
X340716Y248800D02*
D03*
X343216Y243800D02*
D03*
X340716Y238800D02*
D03*
X343216Y233800D02*
D03*
X340716Y228800D02*
D03*
X343216Y223800D02*
D03*
X340716Y218800D02*
D03*
X343216Y203800D02*
D03*
X340716Y158800D02*
D03*
X343216Y153800D02*
D03*
X340716Y148800D02*
D03*
X343216Y143800D02*
D03*
X340716Y138800D02*
D03*
X343216Y133800D02*
D03*
X340716Y128800D02*
D03*
X343216Y123800D02*
D03*
X340716Y118800D02*
D03*
X343216Y113800D02*
D03*
X340716Y108800D02*
D03*
X343216Y83800D02*
D03*
X340716Y78800D02*
D03*
X343216Y33800D02*
D03*
X340716Y18800D02*
D03*
X335716Y518800D02*
D03*
X338216Y513800D02*
D03*
X335716Y508800D02*
D03*
X338216Y503800D02*
D03*
X335716Y498800D02*
D03*
X338216Y493800D02*
D03*
X335716Y488800D02*
D03*
X338216Y483800D02*
D03*
X335716Y478800D02*
D03*
X338216Y473800D02*
D03*
X335716Y468800D02*
D03*
X338216Y463800D02*
D03*
X335716Y258800D02*
D03*
X338216Y253800D02*
D03*
X335716Y248800D02*
D03*
X338216Y243800D02*
D03*
X335716Y238800D02*
D03*
X338216Y233800D02*
D03*
X335716Y228800D02*
D03*
X338216Y223800D02*
D03*
X335716Y218800D02*
D03*
X338216Y213800D02*
D03*
Y163800D02*
D03*
X335716Y158800D02*
D03*
X338216Y153800D02*
D03*
X335716Y148800D02*
D03*
X338216Y143800D02*
D03*
X335716Y138800D02*
D03*
X338216Y133800D02*
D03*
X335716Y128800D02*
D03*
X338216Y123800D02*
D03*
X335716Y118800D02*
D03*
X338216Y113800D02*
D03*
X335716Y108800D02*
D03*
Y98800D02*
D03*
X338216Y83800D02*
D03*
Y33800D02*
D03*
X335716Y18800D02*
D03*
X333216Y513800D02*
D03*
Y503800D02*
D03*
Y493800D02*
D03*
Y483800D02*
D03*
Y473800D02*
D03*
Y463800D02*
D03*
Y453800D02*
D03*
Y443800D02*
D03*
Y433800D02*
D03*
Y423800D02*
D03*
Y413800D02*
D03*
Y403800D02*
D03*
Y393800D02*
D03*
Y383800D02*
D03*
Y373800D02*
D03*
Y363800D02*
D03*
Y353800D02*
D03*
Y343800D02*
D03*
Y333800D02*
D03*
Y323800D02*
D03*
Y313800D02*
D03*
Y303800D02*
D03*
Y293800D02*
D03*
Y283800D02*
D03*
Y273800D02*
D03*
Y263800D02*
D03*
Y253800D02*
D03*
Y243800D02*
D03*
Y233800D02*
D03*
Y223800D02*
D03*
Y213800D02*
D03*
Y203800D02*
D03*
Y193800D02*
D03*
Y183800D02*
D03*
Y173800D02*
D03*
Y163800D02*
D03*
Y153800D02*
D03*
Y143800D02*
D03*
Y133800D02*
D03*
Y123800D02*
D03*
Y113800D02*
D03*
X330716Y108800D02*
D03*
X333216Y103800D02*
D03*
X330716Y98800D02*
D03*
X333216Y93800D02*
D03*
X330716Y88800D02*
D03*
Y28800D02*
D03*
X333216Y23800D02*
D03*
X330716Y18800D02*
D03*
X328216Y113800D02*
D03*
X325716Y108800D02*
D03*
X328216Y103800D02*
D03*
X325716Y98800D02*
D03*
X328216Y93800D02*
D03*
X325716Y88800D02*
D03*
X328216Y83800D02*
D03*
X325716Y68800D02*
D03*
X328216Y63800D02*
D03*
X325716Y58800D02*
D03*
X328216Y53800D02*
D03*
X325716Y48800D02*
D03*
X328216Y33800D02*
D03*
X325716Y28800D02*
D03*
X328216Y23800D02*
D03*
X325716Y18800D02*
D03*
X323216Y103800D02*
D03*
X320716Y98800D02*
D03*
X323216Y93800D02*
D03*
X320716Y88800D02*
D03*
X323216Y83800D02*
D03*
X320716Y68800D02*
D03*
X323216Y63800D02*
D03*
Y33800D02*
D03*
X318216Y103800D02*
D03*
X315716Y98800D02*
D03*
X318216Y93800D02*
D03*
X315716Y88800D02*
D03*
X318216Y83800D02*
D03*
X315716Y68800D02*
D03*
X318216Y63800D02*
D03*
X313216Y103800D02*
D03*
X310716Y98800D02*
D03*
X313216Y93800D02*
D03*
X310716Y88800D02*
D03*
X313216Y83800D02*
D03*
X310716Y68800D02*
D03*
X313216Y63800D02*
D03*
X308216Y103800D02*
D03*
X305716Y98800D02*
D03*
X308216Y93800D02*
D03*
X305716Y88800D02*
D03*
X308216Y83800D02*
D03*
X305716Y68800D02*
D03*
X308216Y63800D02*
D03*
X305716Y18800D02*
D03*
X303216Y103800D02*
D03*
X300716Y98800D02*
D03*
X303216Y93800D02*
D03*
X300716Y88800D02*
D03*
X303216Y83800D02*
D03*
X300716Y68800D02*
D03*
X303216Y63800D02*
D03*
X300716Y58800D02*
D03*
X303216Y33800D02*
D03*
X300716Y28800D02*
D03*
X303216Y23800D02*
D03*
X300716Y18800D02*
D03*
X298216Y103800D02*
D03*
X295716Y98800D02*
D03*
X298216Y93800D02*
D03*
X295716Y88800D02*
D03*
Y68800D02*
D03*
X298216Y63800D02*
D03*
X295716Y58800D02*
D03*
X298216Y33800D02*
D03*
X295716Y28800D02*
D03*
X298216Y23800D02*
D03*
X295716Y18800D02*
D03*
X293216Y103800D02*
D03*
X290716Y98800D02*
D03*
X293216Y93800D02*
D03*
Y73800D02*
D03*
X290716Y68800D02*
D03*
X293216Y63800D02*
D03*
X290716Y58800D02*
D03*
X293216Y53800D02*
D03*
Y33800D02*
D03*
X290716Y28800D02*
D03*
X293216Y23800D02*
D03*
X290716Y18800D02*
D03*
X288216Y103800D02*
D03*
X285716Y98800D02*
D03*
X288216Y93800D02*
D03*
Y73800D02*
D03*
X285716Y68800D02*
D03*
X288216Y63800D02*
D03*
X285716Y58800D02*
D03*
Y28800D02*
D03*
X288216Y23800D02*
D03*
X285716Y18800D02*
D03*
X283216Y103800D02*
D03*
X280716Y98800D02*
D03*
X283216Y93800D02*
D03*
X280716Y28800D02*
D03*
X283216Y23800D02*
D03*
X280716Y18800D02*
D03*
X278216Y93800D02*
D03*
X275716Y48800D02*
D03*
X278216Y33800D02*
D03*
X275716Y28800D02*
D03*
X278216Y23800D02*
D03*
X275716Y18800D02*
D03*
X273216Y93800D02*
D03*
X270716Y58800D02*
D03*
X273216Y53800D02*
D03*
X270716Y48800D02*
D03*
X273216Y33800D02*
D03*
X270716Y28800D02*
D03*
X273216Y23800D02*
D03*
X270716Y18800D02*
D03*
X268216Y103800D02*
D03*
Y93800D02*
D03*
X265716Y58800D02*
D03*
X268216Y53800D02*
D03*
X265716Y48800D02*
D03*
X268216Y33800D02*
D03*
X265716Y28800D02*
D03*
X268216Y23800D02*
D03*
X265716Y18800D02*
D03*
X263216Y93800D02*
D03*
X260716Y58800D02*
D03*
X263216Y53800D02*
D03*
X260716Y48800D02*
D03*
X263216Y33800D02*
D03*
X260716Y28800D02*
D03*
X263216Y23800D02*
D03*
X260716Y18800D02*
D03*
X258216Y93800D02*
D03*
X255716Y58800D02*
D03*
X258216Y53800D02*
D03*
Y33800D02*
D03*
X255716Y28800D02*
D03*
X258216Y23800D02*
D03*
X255716Y18800D02*
D03*
X253216Y93800D02*
D03*
X250716Y78800D02*
D03*
Y68800D02*
D03*
X253216Y63800D02*
D03*
X250716Y58800D02*
D03*
X253216Y53800D02*
D03*
X250716Y28800D02*
D03*
X253216Y23800D02*
D03*
X248216Y93800D02*
D03*
Y73800D02*
D03*
X245716Y68800D02*
D03*
X248216Y63800D02*
D03*
X245716Y58800D02*
D03*
X248216Y53800D02*
D03*
X245716Y28800D02*
D03*
X248216Y23800D02*
D03*
X243216Y93800D02*
D03*
X240716Y78800D02*
D03*
X243216Y73800D02*
D03*
X240716Y68800D02*
D03*
X243216Y63800D02*
D03*
X240716Y58800D02*
D03*
X243216Y53800D02*
D03*
X240716Y48800D02*
D03*
X243216Y33800D02*
D03*
Y23800D02*
D03*
X238216Y93800D02*
D03*
Y73800D02*
D03*
Y63800D02*
D03*
Y53800D02*
D03*
Y33800D02*
D03*
X233216Y93800D02*
D03*
X230716Y88800D02*
D03*
Y78800D02*
D03*
Y68800D02*
D03*
Y58800D02*
D03*
Y48800D02*
D03*
X233216Y33800D02*
D03*
X228216Y93800D02*
D03*
Y83800D02*
D03*
Y73800D02*
D03*
Y63800D02*
D03*
Y53800D02*
D03*
Y33800D02*
D03*
X318216Y578800D02*
D03*
X315716Y573800D02*
D03*
X318216Y568800D02*
D03*
X315716Y563800D02*
D03*
X318216Y558800D02*
D03*
X315716Y553800D02*
D03*
X318216Y548800D02*
D03*
X315716Y543800D02*
D03*
X318216Y538800D02*
D03*
X315716Y533800D02*
D03*
X318216Y528800D02*
D03*
X315716Y523800D02*
D03*
X318216Y518800D02*
D03*
X315716Y513800D02*
D03*
X318216Y508800D02*
D03*
X315716Y503800D02*
D03*
X318216Y498800D02*
D03*
X315716Y493800D02*
D03*
X318216Y488800D02*
D03*
X315716Y483800D02*
D03*
X318216Y478800D02*
D03*
X315716Y473800D02*
D03*
X318216Y468800D02*
D03*
X315716Y463800D02*
D03*
X318216Y458800D02*
D03*
X315716Y453800D02*
D03*
X318216Y448800D02*
D03*
X315716Y443800D02*
D03*
X318216Y438800D02*
D03*
X315716Y433800D02*
D03*
X318216Y428800D02*
D03*
X315716Y423800D02*
D03*
X318216Y418800D02*
D03*
X315716Y413800D02*
D03*
X318216Y408800D02*
D03*
X315716Y403800D02*
D03*
X318216Y398800D02*
D03*
X315716Y393800D02*
D03*
X318216Y388800D02*
D03*
X315716Y383800D02*
D03*
X318216Y378800D02*
D03*
X315716Y373800D02*
D03*
X318216Y368800D02*
D03*
X315716Y363800D02*
D03*
X318216Y358800D02*
D03*
X315716Y353800D02*
D03*
X318216Y348800D02*
D03*
X315716Y343800D02*
D03*
X318216Y338800D02*
D03*
X315716Y333800D02*
D03*
X318216Y328800D02*
D03*
X315716Y323800D02*
D03*
X318216Y318800D02*
D03*
X315716Y313800D02*
D03*
X318216Y308800D02*
D03*
X315716Y303800D02*
D03*
X318216Y298800D02*
D03*
X315716Y293800D02*
D03*
X318216Y288800D02*
D03*
X315716Y283800D02*
D03*
X318216Y278800D02*
D03*
X315716Y273800D02*
D03*
X318216Y268800D02*
D03*
X315716Y263800D02*
D03*
X318216Y258800D02*
D03*
X315716Y253800D02*
D03*
X318216Y248800D02*
D03*
X315716Y243800D02*
D03*
X318216Y238800D02*
D03*
X315716Y233800D02*
D03*
X318216Y228800D02*
D03*
X315716Y223800D02*
D03*
X318216Y218800D02*
D03*
X315716Y213800D02*
D03*
X318216Y208800D02*
D03*
X315716Y203800D02*
D03*
X318216Y198800D02*
D03*
X315716Y193800D02*
D03*
X318216Y188800D02*
D03*
X315716Y183800D02*
D03*
X318216Y178800D02*
D03*
X315716Y173800D02*
D03*
X318216Y168800D02*
D03*
X315716Y163800D02*
D03*
X318216Y158800D02*
D03*
X315716Y153800D02*
D03*
X318216Y148800D02*
D03*
X315716Y143800D02*
D03*
X313216Y578800D02*
D03*
X310716Y573800D02*
D03*
X313216Y568800D02*
D03*
X310716Y563800D02*
D03*
X313216Y558800D02*
D03*
X310716Y553800D02*
D03*
X313216Y548800D02*
D03*
X310716Y543800D02*
D03*
X313216Y538800D02*
D03*
X310716Y533800D02*
D03*
X313216Y528800D02*
D03*
X310716Y523800D02*
D03*
X313216Y518800D02*
D03*
X310716Y513800D02*
D03*
X313216Y508800D02*
D03*
X310716Y503800D02*
D03*
X313216Y498800D02*
D03*
X310716Y493800D02*
D03*
X313216Y488800D02*
D03*
X310716Y483800D02*
D03*
X313216Y478800D02*
D03*
X310716Y473800D02*
D03*
X313216Y468800D02*
D03*
X310716Y463800D02*
D03*
X313216Y458800D02*
D03*
X310716Y453800D02*
D03*
X313216Y448800D02*
D03*
X310716Y443800D02*
D03*
X313216Y438800D02*
D03*
X310716Y433800D02*
D03*
X313216Y428800D02*
D03*
X310716Y423800D02*
D03*
X313216Y418800D02*
D03*
X310716Y413800D02*
D03*
X313216Y408800D02*
D03*
X310716Y403800D02*
D03*
X313216Y398800D02*
D03*
X310716Y393800D02*
D03*
X313216Y388800D02*
D03*
X310716Y383800D02*
D03*
X313216Y378800D02*
D03*
X310716Y373800D02*
D03*
X313216Y368800D02*
D03*
X310716Y363800D02*
D03*
X313216Y358800D02*
D03*
X310716Y353800D02*
D03*
X313216Y348800D02*
D03*
X310716Y343800D02*
D03*
X313216Y338800D02*
D03*
X310716Y333800D02*
D03*
X313216Y328800D02*
D03*
X310716Y323800D02*
D03*
X313216Y318800D02*
D03*
X310716Y313800D02*
D03*
X313216Y308800D02*
D03*
X310716Y303800D02*
D03*
X313216Y298800D02*
D03*
X310716Y293800D02*
D03*
X313216Y288800D02*
D03*
X310716Y283800D02*
D03*
X313216Y278800D02*
D03*
X310716Y273800D02*
D03*
X313216Y268800D02*
D03*
X310716Y263800D02*
D03*
X313216Y258800D02*
D03*
X310716Y253800D02*
D03*
X313216Y248800D02*
D03*
X310716Y243800D02*
D03*
X313216Y238800D02*
D03*
X310716Y233800D02*
D03*
X313216Y228800D02*
D03*
X310716Y223800D02*
D03*
X313216Y218800D02*
D03*
X310716Y213800D02*
D03*
X313216Y208800D02*
D03*
X310716Y203800D02*
D03*
X313216Y198800D02*
D03*
X310716Y193800D02*
D03*
X313216Y188800D02*
D03*
X310716Y183800D02*
D03*
X313216Y178800D02*
D03*
X310716Y173800D02*
D03*
X313216Y168800D02*
D03*
X310716Y163800D02*
D03*
X313216Y158800D02*
D03*
X310716Y153800D02*
D03*
X313216Y148800D02*
D03*
X310716Y143800D02*
D03*
X313216Y138800D02*
D03*
X310716Y133800D02*
D03*
X308216Y578800D02*
D03*
X305716Y573800D02*
D03*
X308216Y568800D02*
D03*
X305716Y563800D02*
D03*
X308216Y558800D02*
D03*
Y548800D02*
D03*
Y538800D02*
D03*
Y528800D02*
D03*
Y518800D02*
D03*
Y508800D02*
D03*
Y498800D02*
D03*
Y488800D02*
D03*
Y478800D02*
D03*
Y468800D02*
D03*
Y458800D02*
D03*
Y448800D02*
D03*
Y438800D02*
D03*
Y428800D02*
D03*
Y418800D02*
D03*
Y408800D02*
D03*
Y398800D02*
D03*
Y388800D02*
D03*
Y378800D02*
D03*
Y368800D02*
D03*
Y358800D02*
D03*
Y348800D02*
D03*
Y338800D02*
D03*
Y328800D02*
D03*
Y318800D02*
D03*
Y308800D02*
D03*
Y298800D02*
D03*
Y288800D02*
D03*
Y278800D02*
D03*
Y268800D02*
D03*
Y258800D02*
D03*
Y248800D02*
D03*
Y238800D02*
D03*
X305716Y233800D02*
D03*
X308216Y228800D02*
D03*
X305716Y223800D02*
D03*
X308216Y218800D02*
D03*
X305716Y213800D02*
D03*
X308216Y208800D02*
D03*
X305716Y203800D02*
D03*
X308216Y198800D02*
D03*
X305716Y193800D02*
D03*
X308216Y188800D02*
D03*
X305716Y183800D02*
D03*
X308216Y178800D02*
D03*
X305716Y173800D02*
D03*
X308216Y168800D02*
D03*
X305716Y163800D02*
D03*
X308216Y158800D02*
D03*
X305716Y153800D02*
D03*
X308216Y148800D02*
D03*
X305716Y143800D02*
D03*
X308216Y138800D02*
D03*
X305716Y133800D02*
D03*
X303216Y578800D02*
D03*
X300716Y573800D02*
D03*
X303216Y568800D02*
D03*
X300716Y233800D02*
D03*
X303216Y228800D02*
D03*
X300716Y223800D02*
D03*
X303216Y218800D02*
D03*
X300716Y213800D02*
D03*
X303216Y208800D02*
D03*
X300716Y203800D02*
D03*
X303216Y198800D02*
D03*
X300716Y193800D02*
D03*
X303216Y188800D02*
D03*
X300716Y183800D02*
D03*
X303216Y178800D02*
D03*
X300716Y173800D02*
D03*
X303216Y168800D02*
D03*
X300716Y163800D02*
D03*
X303216Y158800D02*
D03*
X300716Y153800D02*
D03*
X303216Y148800D02*
D03*
X300716Y143800D02*
D03*
X303216Y138800D02*
D03*
X300716Y133800D02*
D03*
X303216Y128800D02*
D03*
X300716Y123800D02*
D03*
X298216Y578800D02*
D03*
X295716Y573800D02*
D03*
X298216Y568800D02*
D03*
X295716Y233800D02*
D03*
X298216Y228800D02*
D03*
X295716Y223800D02*
D03*
X298216Y218800D02*
D03*
X295716Y213800D02*
D03*
X298216Y208800D02*
D03*
X295716Y203800D02*
D03*
X298216Y198800D02*
D03*
X295716Y193800D02*
D03*
X298216Y188800D02*
D03*
X295716Y183800D02*
D03*
X298216Y178800D02*
D03*
X295716Y173800D02*
D03*
X298216Y168800D02*
D03*
X295716Y163800D02*
D03*
X298216Y158800D02*
D03*
X295716Y153800D02*
D03*
X298216Y148800D02*
D03*
X295716Y143800D02*
D03*
X298216Y138800D02*
D03*
X295716Y133800D02*
D03*
X298216Y128800D02*
D03*
X295716Y123800D02*
D03*
X293216Y578800D02*
D03*
X290716Y573800D02*
D03*
Y233800D02*
D03*
X293216Y228800D02*
D03*
X290716Y223800D02*
D03*
X293216Y218800D02*
D03*
X290716Y213800D02*
D03*
X293216Y208800D02*
D03*
X290716Y203800D02*
D03*
X293216Y198800D02*
D03*
X290716Y193800D02*
D03*
X293216Y188800D02*
D03*
X290716Y183800D02*
D03*
X293216Y178800D02*
D03*
X290716Y173800D02*
D03*
X293216Y168800D02*
D03*
X290716Y163800D02*
D03*
X293216Y158800D02*
D03*
X290716Y153800D02*
D03*
X293216Y148800D02*
D03*
X290716Y143800D02*
D03*
X293216Y138800D02*
D03*
X290716Y133800D02*
D03*
X293216Y128800D02*
D03*
X290716Y123800D02*
D03*
X293216Y118800D02*
D03*
X288216Y578800D02*
D03*
X285716Y573800D02*
D03*
Y233800D02*
D03*
X288216Y228800D02*
D03*
X285716Y223800D02*
D03*
X288216Y218800D02*
D03*
X285716Y213800D02*
D03*
X288216Y208800D02*
D03*
X285716Y203800D02*
D03*
X288216Y198800D02*
D03*
X285716Y193800D02*
D03*
X288216Y188800D02*
D03*
X285716Y183800D02*
D03*
X288216Y178800D02*
D03*
X285716Y173800D02*
D03*
X288216Y168800D02*
D03*
X285716Y163800D02*
D03*
X288216Y158800D02*
D03*
X285716Y153800D02*
D03*
X288216Y148800D02*
D03*
X285716Y143800D02*
D03*
X288216Y138800D02*
D03*
X285716Y133800D02*
D03*
X288216Y128800D02*
D03*
X285716Y123800D02*
D03*
X288216Y118800D02*
D03*
X283216Y578800D02*
D03*
X280716Y573800D02*
D03*
Y233800D02*
D03*
X283216Y228800D02*
D03*
X280716Y223800D02*
D03*
X283216Y218800D02*
D03*
X280716Y213800D02*
D03*
X283216Y208800D02*
D03*
X280716Y203800D02*
D03*
X283216Y198800D02*
D03*
X280716Y193800D02*
D03*
X283216Y188800D02*
D03*
X280716Y183800D02*
D03*
X283216Y178800D02*
D03*
X280716Y173800D02*
D03*
X283216Y168800D02*
D03*
X280716Y163800D02*
D03*
X283216Y158800D02*
D03*
X280716Y153800D02*
D03*
X283216Y148800D02*
D03*
X280716Y143800D02*
D03*
X283216Y138800D02*
D03*
X280716Y133800D02*
D03*
X283216Y128800D02*
D03*
X280716Y123800D02*
D03*
X283216Y118800D02*
D03*
X278216Y578800D02*
D03*
X275716Y573800D02*
D03*
Y233800D02*
D03*
X278216Y228800D02*
D03*
X275716Y223800D02*
D03*
X278216Y218800D02*
D03*
X275716Y213800D02*
D03*
X278216Y208800D02*
D03*
X275716Y203800D02*
D03*
X278216Y198800D02*
D03*
X275716Y193800D02*
D03*
X278216Y188800D02*
D03*
X275716Y183800D02*
D03*
X278216Y178800D02*
D03*
X275716Y173800D02*
D03*
X278216Y168800D02*
D03*
X275716Y163800D02*
D03*
X278216Y158800D02*
D03*
X275716Y153800D02*
D03*
X278216Y148800D02*
D03*
X275716Y143800D02*
D03*
X278216Y138800D02*
D03*
X275716Y133800D02*
D03*
X278216Y128800D02*
D03*
X275716Y123800D02*
D03*
X278216Y118800D02*
D03*
X273216Y578800D02*
D03*
X270716Y573800D02*
D03*
Y233800D02*
D03*
X273216Y228800D02*
D03*
X270716Y223800D02*
D03*
X273216Y218800D02*
D03*
X270716Y213800D02*
D03*
X273216Y208800D02*
D03*
X270716Y203800D02*
D03*
X273216Y198800D02*
D03*
X270716Y193800D02*
D03*
X273216Y188800D02*
D03*
X270716Y183800D02*
D03*
X273216Y178800D02*
D03*
X270716Y173800D02*
D03*
X273216Y168800D02*
D03*
X270716Y163800D02*
D03*
X273216Y158800D02*
D03*
X270716Y153800D02*
D03*
X273216Y148800D02*
D03*
X270716Y143800D02*
D03*
X273216Y138800D02*
D03*
X270716Y133800D02*
D03*
X273216Y128800D02*
D03*
X270716Y123800D02*
D03*
X273216Y118800D02*
D03*
X268216Y578800D02*
D03*
X265716Y573800D02*
D03*
Y233800D02*
D03*
X268216Y228800D02*
D03*
X265716Y223800D02*
D03*
X268216Y218800D02*
D03*
X265716Y213800D02*
D03*
X268216Y208800D02*
D03*
X265716Y203800D02*
D03*
X268216Y198800D02*
D03*
X265716Y193800D02*
D03*
X268216Y188800D02*
D03*
X265716Y183800D02*
D03*
X268216Y178800D02*
D03*
X265716Y173800D02*
D03*
X268216Y168800D02*
D03*
X265716Y163800D02*
D03*
X268216Y158800D02*
D03*
X265716Y153800D02*
D03*
X268216Y148800D02*
D03*
X265716Y143800D02*
D03*
X268216Y138800D02*
D03*
X265716Y133800D02*
D03*
X268216Y128800D02*
D03*
X265716Y123800D02*
D03*
X268216Y118800D02*
D03*
X263216Y578800D02*
D03*
X260716Y573800D02*
D03*
Y233800D02*
D03*
X263216Y228800D02*
D03*
X260716Y223800D02*
D03*
X263216Y218800D02*
D03*
X260716Y213800D02*
D03*
X263216Y208800D02*
D03*
X260716Y203800D02*
D03*
X263216Y198800D02*
D03*
Y178800D02*
D03*
Y158800D02*
D03*
X260716Y153800D02*
D03*
X263216Y148800D02*
D03*
X260716Y143800D02*
D03*
X263216Y138800D02*
D03*
X260716Y133800D02*
D03*
X263216Y128800D02*
D03*
X260716Y123800D02*
D03*
X263216Y118800D02*
D03*
X258216Y578800D02*
D03*
X255716Y573800D02*
D03*
Y233800D02*
D03*
X258216Y228800D02*
D03*
X255716Y223800D02*
D03*
X258216Y218800D02*
D03*
X255716Y213800D02*
D03*
X258216Y208800D02*
D03*
X255716Y203800D02*
D03*
X258216Y198800D02*
D03*
Y158800D02*
D03*
X255716Y153800D02*
D03*
X258216Y148800D02*
D03*
X255716Y143800D02*
D03*
X258216Y138800D02*
D03*
X255716Y133800D02*
D03*
X258216Y128800D02*
D03*
X255716Y123800D02*
D03*
X258216Y118800D02*
D03*
X253216Y578800D02*
D03*
X250716Y573800D02*
D03*
Y233800D02*
D03*
X253216Y228800D02*
D03*
X250716Y223800D02*
D03*
X253216Y218800D02*
D03*
X250716Y213800D02*
D03*
X253216Y208800D02*
D03*
X250716Y203800D02*
D03*
X253216Y198800D02*
D03*
X250716Y193800D02*
D03*
X253216Y188800D02*
D03*
X250716Y183800D02*
D03*
X253216Y178800D02*
D03*
X250716Y173800D02*
D03*
X253216Y168800D02*
D03*
X250716Y163800D02*
D03*
X253216Y158800D02*
D03*
X250716Y153800D02*
D03*
X253216Y148800D02*
D03*
X250716Y143800D02*
D03*
X253216Y138800D02*
D03*
X250716Y133800D02*
D03*
X253216Y128800D02*
D03*
X250716Y123800D02*
D03*
X253216Y118800D02*
D03*
X248216Y578800D02*
D03*
X245716Y573800D02*
D03*
Y233800D02*
D03*
X248216Y228800D02*
D03*
X245716Y223800D02*
D03*
X248216Y218800D02*
D03*
X245716Y213800D02*
D03*
X248216Y208800D02*
D03*
X245716Y203800D02*
D03*
X248216Y198800D02*
D03*
Y158800D02*
D03*
X245716Y153800D02*
D03*
X248216Y148800D02*
D03*
X245716Y143800D02*
D03*
X248216Y138800D02*
D03*
X245716Y133800D02*
D03*
X248216Y128800D02*
D03*
X245716Y123800D02*
D03*
X248216Y118800D02*
D03*
X243216Y578800D02*
D03*
X240716Y573800D02*
D03*
Y233800D02*
D03*
X243216Y228800D02*
D03*
X240716Y223800D02*
D03*
X243216Y218800D02*
D03*
X240716Y213800D02*
D03*
X243216Y208800D02*
D03*
X240716Y203800D02*
D03*
X243216Y198800D02*
D03*
X240716Y193800D02*
D03*
X243216Y158800D02*
D03*
X240716Y153800D02*
D03*
X243216Y148800D02*
D03*
X240716Y143800D02*
D03*
X243216Y138800D02*
D03*
X240716Y133800D02*
D03*
X243216Y128800D02*
D03*
X240716Y123800D02*
D03*
X243216Y118800D02*
D03*
X238216Y578800D02*
D03*
X235716Y573800D02*
D03*
Y233800D02*
D03*
X238216Y228800D02*
D03*
X235716Y223800D02*
D03*
X238216Y218800D02*
D03*
X235716Y213800D02*
D03*
X238216Y208800D02*
D03*
X235716Y203800D02*
D03*
X238216Y198800D02*
D03*
X235716Y193800D02*
D03*
X238216Y188800D02*
D03*
X235716Y183800D02*
D03*
X238216Y178800D02*
D03*
Y158800D02*
D03*
X235716Y153800D02*
D03*
X238216Y148800D02*
D03*
X235716Y143800D02*
D03*
X238216Y138800D02*
D03*
X235716Y133800D02*
D03*
X238216Y128800D02*
D03*
X235716Y123800D02*
D03*
X238216Y118800D02*
D03*
X233216Y578800D02*
D03*
X230716Y573800D02*
D03*
Y233800D02*
D03*
X233216Y228800D02*
D03*
X230716Y223800D02*
D03*
X233216Y218800D02*
D03*
X230716Y213800D02*
D03*
X233216Y208800D02*
D03*
X230716Y203800D02*
D03*
X233216Y198800D02*
D03*
X230716Y193800D02*
D03*
X233216Y188800D02*
D03*
X230716Y183800D02*
D03*
X233216Y178800D02*
D03*
Y158800D02*
D03*
X230716Y153800D02*
D03*
X233216Y148800D02*
D03*
X230716Y143800D02*
D03*
X233216Y138800D02*
D03*
X230716Y133800D02*
D03*
X233216Y128800D02*
D03*
X230716Y123800D02*
D03*
X233216Y118800D02*
D03*
X228216Y578800D02*
D03*
X225716Y573800D02*
D03*
Y233800D02*
D03*
X228216Y228800D02*
D03*
X225716Y223800D02*
D03*
X228216Y218800D02*
D03*
X225716Y213800D02*
D03*
X228216Y208800D02*
D03*
X225716Y203800D02*
D03*
X228216Y198800D02*
D03*
X225716Y193800D02*
D03*
X228216Y188800D02*
D03*
Y138800D02*
D03*
X225716Y133800D02*
D03*
X228216Y128800D02*
D03*
X225716Y123800D02*
D03*
X228216Y118800D02*
D03*
X223216Y578800D02*
D03*
X220716Y573800D02*
D03*
Y233800D02*
D03*
X223216Y228800D02*
D03*
X220716Y223800D02*
D03*
X223216Y218800D02*
D03*
X220716Y213800D02*
D03*
X223216Y208800D02*
D03*
X220716Y203800D02*
D03*
X223216Y198800D02*
D03*
X220716Y193800D02*
D03*
X223216Y188800D02*
D03*
Y128800D02*
D03*
X220716Y123800D02*
D03*
X223216Y118800D02*
D03*
X218216Y578800D02*
D03*
X215716Y573800D02*
D03*
Y233800D02*
D03*
X218216Y228800D02*
D03*
X215716Y223800D02*
D03*
X218216Y218800D02*
D03*
X215716Y213800D02*
D03*
X218216Y208800D02*
D03*
X215716Y203800D02*
D03*
X218216Y198800D02*
D03*
X215716Y193800D02*
D03*
X218216Y188800D02*
D03*
X215716Y173800D02*
D03*
Y163800D02*
D03*
X218216Y158800D02*
D03*
X215716Y153800D02*
D03*
X218216Y148800D02*
D03*
X215716Y143800D02*
D03*
X218216Y128800D02*
D03*
X215716Y123800D02*
D03*
X218216Y118800D02*
D03*
X213216Y578800D02*
D03*
X210716Y573800D02*
D03*
Y233800D02*
D03*
X213216Y228800D02*
D03*
X210716Y223800D02*
D03*
X213216Y218800D02*
D03*
X210716Y213800D02*
D03*
X213216Y208800D02*
D03*
X210716Y203800D02*
D03*
X213216Y198800D02*
D03*
X210716Y193800D02*
D03*
X213216Y188800D02*
D03*
Y178800D02*
D03*
Y158800D02*
D03*
X210716Y153800D02*
D03*
X213216Y148800D02*
D03*
X210716Y143800D02*
D03*
X213216Y128800D02*
D03*
X210716Y123800D02*
D03*
X213216Y118800D02*
D03*
X208216Y578800D02*
D03*
X205716Y573800D02*
D03*
Y233800D02*
D03*
X208216Y228800D02*
D03*
X205716Y223800D02*
D03*
X208216Y218800D02*
D03*
X205716Y213800D02*
D03*
X208216Y208800D02*
D03*
X205716Y203800D02*
D03*
X208216Y198800D02*
D03*
X205716Y193800D02*
D03*
X208216Y188800D02*
D03*
Y178800D02*
D03*
Y158800D02*
D03*
X205716Y153800D02*
D03*
X208216Y148800D02*
D03*
X205716Y143800D02*
D03*
X208216Y128800D02*
D03*
X205716Y123800D02*
D03*
X208216Y118800D02*
D03*
X205716Y113800D02*
D03*
X203216Y578800D02*
D03*
X200716Y573800D02*
D03*
Y233800D02*
D03*
X203216Y228800D02*
D03*
X200716Y223800D02*
D03*
X203216Y218800D02*
D03*
X200716Y213800D02*
D03*
X203216Y208800D02*
D03*
X200716Y203800D02*
D03*
X203216Y198800D02*
D03*
X200716Y193800D02*
D03*
X203216Y188800D02*
D03*
Y178800D02*
D03*
Y158800D02*
D03*
X200716Y153800D02*
D03*
X203216Y148800D02*
D03*
X200716Y143800D02*
D03*
X203216Y128800D02*
D03*
X200716Y123800D02*
D03*
X203216Y118800D02*
D03*
X200716Y113800D02*
D03*
X203216Y108800D02*
D03*
X200716Y103800D02*
D03*
Y93800D02*
D03*
Y83800D02*
D03*
Y73800D02*
D03*
Y63800D02*
D03*
Y53800D02*
D03*
Y43800D02*
D03*
Y33800D02*
D03*
Y23800D02*
D03*
X198216Y578800D02*
D03*
X195716Y573800D02*
D03*
Y233800D02*
D03*
X198216Y228800D02*
D03*
X195716Y223800D02*
D03*
X198216Y218800D02*
D03*
X195716Y213800D02*
D03*
X198216Y208800D02*
D03*
X195716Y203800D02*
D03*
X198216Y198800D02*
D03*
X195716Y193800D02*
D03*
X198216Y188800D02*
D03*
Y178800D02*
D03*
X195716Y173800D02*
D03*
Y163800D02*
D03*
X198216Y158800D02*
D03*
X195716Y153800D02*
D03*
X198216Y148800D02*
D03*
X195716Y143800D02*
D03*
X198216Y128800D02*
D03*
X195716Y123800D02*
D03*
X198216Y118800D02*
D03*
X195716Y113800D02*
D03*
X198216Y108800D02*
D03*
X195716Y103800D02*
D03*
X198216Y98800D02*
D03*
Y88800D02*
D03*
Y78800D02*
D03*
X195716Y73800D02*
D03*
X198216Y68800D02*
D03*
X195716Y63800D02*
D03*
X198216Y58800D02*
D03*
X195716Y53800D02*
D03*
X198216Y48800D02*
D03*
X195716Y43800D02*
D03*
X198216Y38800D02*
D03*
X195716Y33800D02*
D03*
X198216Y28800D02*
D03*
X195716Y23800D02*
D03*
X193216Y578800D02*
D03*
X190716Y573800D02*
D03*
Y233800D02*
D03*
X193216Y228800D02*
D03*
X190716Y223800D02*
D03*
X193216Y218800D02*
D03*
X190716Y213800D02*
D03*
X193216Y208800D02*
D03*
X190716Y203800D02*
D03*
X193216Y198800D02*
D03*
X190716Y193800D02*
D03*
X193216Y188800D02*
D03*
Y178800D02*
D03*
X190716Y173800D02*
D03*
X193216Y168800D02*
D03*
X190716Y163800D02*
D03*
X193216Y158800D02*
D03*
X190716Y153800D02*
D03*
X193216Y148800D02*
D03*
X190716Y143800D02*
D03*
X193216Y128800D02*
D03*
X190716Y123800D02*
D03*
X193216Y118800D02*
D03*
X190716Y113800D02*
D03*
X193216Y108800D02*
D03*
X190716Y103800D02*
D03*
X193216Y98800D02*
D03*
X190716Y33800D02*
D03*
X193216Y28800D02*
D03*
X190716Y23800D02*
D03*
X188216Y578800D02*
D03*
X185716Y573800D02*
D03*
Y233800D02*
D03*
X188216Y228800D02*
D03*
X185716Y223800D02*
D03*
X188216Y218800D02*
D03*
X185716Y213800D02*
D03*
X188216Y208800D02*
D03*
X185716Y203800D02*
D03*
X188216Y198800D02*
D03*
X185716Y193800D02*
D03*
X188216Y188800D02*
D03*
Y178800D02*
D03*
X185716Y173800D02*
D03*
X188216Y168800D02*
D03*
X185716Y163800D02*
D03*
X188216Y158800D02*
D03*
X185716Y153800D02*
D03*
X188216Y148800D02*
D03*
X185716Y143800D02*
D03*
X188216Y128800D02*
D03*
X185716Y123800D02*
D03*
X188216Y118800D02*
D03*
X185716Y113800D02*
D03*
X188216Y108800D02*
D03*
X185716Y103800D02*
D03*
X188216Y98800D02*
D03*
X185716Y83800D02*
D03*
Y73800D02*
D03*
Y63800D02*
D03*
Y53800D02*
D03*
Y43800D02*
D03*
X188216Y28800D02*
D03*
X185716Y23800D02*
D03*
X183216Y578800D02*
D03*
X180716Y573800D02*
D03*
Y233800D02*
D03*
X183216Y228800D02*
D03*
X180716Y223800D02*
D03*
X183216Y218800D02*
D03*
X180716Y213800D02*
D03*
X183216Y208800D02*
D03*
X180716Y203800D02*
D03*
X183216Y198800D02*
D03*
X180716Y193800D02*
D03*
X183216Y188800D02*
D03*
X180716Y173800D02*
D03*
X183216Y168800D02*
D03*
X180716Y163800D02*
D03*
X183216Y158800D02*
D03*
X180716Y153800D02*
D03*
X183216Y148800D02*
D03*
X180716Y143800D02*
D03*
X183216Y128800D02*
D03*
X180716Y123800D02*
D03*
X183216Y118800D02*
D03*
X180716Y113800D02*
D03*
X183216Y108800D02*
D03*
X180716Y103800D02*
D03*
X183216Y98800D02*
D03*
Y88800D02*
D03*
X180716Y83800D02*
D03*
X183216Y78800D02*
D03*
X180716Y73800D02*
D03*
X183216Y68800D02*
D03*
X180716Y63800D02*
D03*
X183216Y58800D02*
D03*
Y48800D02*
D03*
X180716Y43800D02*
D03*
X183216Y38800D02*
D03*
Y28800D02*
D03*
X180716Y23800D02*
D03*
X178216Y578800D02*
D03*
X175716Y573800D02*
D03*
Y233800D02*
D03*
X178216Y228800D02*
D03*
X175716Y223800D02*
D03*
X178216Y218800D02*
D03*
X175716Y213800D02*
D03*
X178216Y208800D02*
D03*
X175716Y203800D02*
D03*
X178216Y198800D02*
D03*
X175716Y193800D02*
D03*
X178216Y188800D02*
D03*
X175716Y183800D02*
D03*
X178216Y158800D02*
D03*
X175716Y153800D02*
D03*
X178216Y148800D02*
D03*
X175716Y143800D02*
D03*
X178216Y128800D02*
D03*
X175716Y123800D02*
D03*
X178216Y118800D02*
D03*
X175716Y113800D02*
D03*
X178216Y108800D02*
D03*
X175716Y103800D02*
D03*
Y83800D02*
D03*
X178216Y78800D02*
D03*
X175716Y73800D02*
D03*
X178216Y68800D02*
D03*
X175716Y63800D02*
D03*
Y43800D02*
D03*
Y23800D02*
D03*
X173216Y578800D02*
D03*
X170716Y573800D02*
D03*
Y233800D02*
D03*
X173216Y228800D02*
D03*
X170716Y223800D02*
D03*
X173216Y218800D02*
D03*
X170716Y213800D02*
D03*
X173216Y208800D02*
D03*
X170716Y203800D02*
D03*
X173216Y198800D02*
D03*
X170716Y193800D02*
D03*
X173216Y188800D02*
D03*
X170716Y183800D02*
D03*
X173216Y178800D02*
D03*
Y158800D02*
D03*
X170716Y153800D02*
D03*
X173216Y148800D02*
D03*
X170716Y143800D02*
D03*
X173216Y128800D02*
D03*
X170716Y123800D02*
D03*
X173216Y118800D02*
D03*
X170716Y113800D02*
D03*
X173216Y108800D02*
D03*
X170716Y103800D02*
D03*
Y83800D02*
D03*
X173216Y78800D02*
D03*
X170716Y73800D02*
D03*
X173216Y68800D02*
D03*
X170716Y63800D02*
D03*
Y43800D02*
D03*
X168216Y578800D02*
D03*
X165716Y573800D02*
D03*
Y233800D02*
D03*
X168216Y228800D02*
D03*
X165716Y223800D02*
D03*
X168216Y218800D02*
D03*
X165716Y213800D02*
D03*
X168216Y208800D02*
D03*
X165716Y203800D02*
D03*
X168216Y198800D02*
D03*
X165716Y193800D02*
D03*
X168216Y188800D02*
D03*
X165716Y183800D02*
D03*
X168216Y178800D02*
D03*
Y158800D02*
D03*
X165716Y153800D02*
D03*
X168216Y148800D02*
D03*
X165716Y143800D02*
D03*
X168216Y128800D02*
D03*
X165716Y123800D02*
D03*
X168216Y118800D02*
D03*
X165716Y113800D02*
D03*
X168216Y108800D02*
D03*
X165716Y103800D02*
D03*
X168216Y98800D02*
D03*
X165716Y93800D02*
D03*
X168216Y88800D02*
D03*
X165716Y83800D02*
D03*
X168216Y78800D02*
D03*
X165716Y73800D02*
D03*
X168216Y68800D02*
D03*
X165716Y63800D02*
D03*
X168216Y58800D02*
D03*
X165716Y53800D02*
D03*
X168216Y48800D02*
D03*
X165716Y43800D02*
D03*
X168216Y38800D02*
D03*
X163216Y578800D02*
D03*
X160716Y573800D02*
D03*
Y233800D02*
D03*
X163216Y228800D02*
D03*
X160716Y223800D02*
D03*
X163216Y218800D02*
D03*
X160716Y213800D02*
D03*
X163216Y208800D02*
D03*
X160716Y203800D02*
D03*
X163216Y198800D02*
D03*
X160716Y193800D02*
D03*
X163216Y188800D02*
D03*
X160716Y183800D02*
D03*
X163216Y178800D02*
D03*
X160716Y173800D02*
D03*
Y163800D02*
D03*
X163216Y158800D02*
D03*
X160716Y153800D02*
D03*
X163216Y148800D02*
D03*
X160716Y143800D02*
D03*
X163216Y138800D02*
D03*
Y118800D02*
D03*
X160716Y113800D02*
D03*
X163216Y108800D02*
D03*
X160716Y103800D02*
D03*
X163216Y98800D02*
D03*
X160716Y93800D02*
D03*
X163216Y88800D02*
D03*
X160716Y83800D02*
D03*
X163216Y78800D02*
D03*
X160716Y73800D02*
D03*
X163216Y68800D02*
D03*
X160716Y63800D02*
D03*
X163216Y58800D02*
D03*
X160716Y53800D02*
D03*
X163216Y48800D02*
D03*
X160716Y43800D02*
D03*
X163216Y38800D02*
D03*
X158216Y578800D02*
D03*
X155716Y573800D02*
D03*
Y233800D02*
D03*
X158216Y228800D02*
D03*
X155716Y223800D02*
D03*
X158216Y218800D02*
D03*
X155716Y213800D02*
D03*
X158216Y208800D02*
D03*
X155716Y203800D02*
D03*
X158216Y198800D02*
D03*
X155716Y193800D02*
D03*
X158216Y188800D02*
D03*
X155716Y183800D02*
D03*
X158216Y178800D02*
D03*
X155716Y173800D02*
D03*
X158216Y168800D02*
D03*
X155716Y163800D02*
D03*
X158216Y158800D02*
D03*
X155716Y153800D02*
D03*
X158216Y148800D02*
D03*
X155716Y143800D02*
D03*
X158216Y138800D02*
D03*
X155716Y133800D02*
D03*
X158216Y118800D02*
D03*
X155716Y113800D02*
D03*
X158216Y108800D02*
D03*
X155716Y103800D02*
D03*
X158216Y98800D02*
D03*
X155716Y93800D02*
D03*
X158216Y88800D02*
D03*
X155716Y83800D02*
D03*
X158216Y78800D02*
D03*
X155716Y73800D02*
D03*
X158216Y68800D02*
D03*
X155716Y63800D02*
D03*
X158216Y58800D02*
D03*
X155716Y53800D02*
D03*
X158216Y48800D02*
D03*
X155716Y43800D02*
D03*
X158216Y38800D02*
D03*
X153216Y578800D02*
D03*
X150716Y573800D02*
D03*
Y233800D02*
D03*
X153216Y228800D02*
D03*
X150716Y223800D02*
D03*
X153216Y218800D02*
D03*
X150716Y213800D02*
D03*
X153216Y208800D02*
D03*
X150716Y203800D02*
D03*
X153216Y198800D02*
D03*
X150716Y193800D02*
D03*
X153216Y188800D02*
D03*
X150716Y183800D02*
D03*
X153216Y178800D02*
D03*
X150716Y173800D02*
D03*
X153216Y168800D02*
D03*
X150716Y163800D02*
D03*
X153216Y158800D02*
D03*
X150716Y153800D02*
D03*
X153216Y148800D02*
D03*
X150716Y143800D02*
D03*
X153216Y138800D02*
D03*
X150716Y133800D02*
D03*
X153216Y128800D02*
D03*
X148216Y578800D02*
D03*
X145716Y573800D02*
D03*
Y233800D02*
D03*
X148216Y228800D02*
D03*
X145716Y223800D02*
D03*
X148216Y218800D02*
D03*
X145716Y213800D02*
D03*
X148216Y208800D02*
D03*
X145716Y203800D02*
D03*
X148216Y198800D02*
D03*
X145716Y193800D02*
D03*
X148216Y188800D02*
D03*
X145716Y183800D02*
D03*
X148216Y178800D02*
D03*
X145716Y173800D02*
D03*
X148216Y168800D02*
D03*
X145716Y163800D02*
D03*
X148216Y158800D02*
D03*
X145716Y153800D02*
D03*
X148216Y148800D02*
D03*
X145716Y143800D02*
D03*
X148216Y138800D02*
D03*
X145716Y133800D02*
D03*
X148216Y128800D02*
D03*
X145716Y123800D02*
D03*
X143216Y578800D02*
D03*
X140716Y573800D02*
D03*
Y233800D02*
D03*
X143216Y228800D02*
D03*
X140716Y223800D02*
D03*
X143216Y218800D02*
D03*
X140716Y213800D02*
D03*
X143216Y208800D02*
D03*
X140716Y203800D02*
D03*
X143216Y198800D02*
D03*
X140716Y193800D02*
D03*
X143216Y188800D02*
D03*
X140716Y183800D02*
D03*
X143216Y178800D02*
D03*
X140716Y173800D02*
D03*
X143216Y168800D02*
D03*
X140716Y163800D02*
D03*
X143216Y158800D02*
D03*
X140716Y153800D02*
D03*
X143216Y148800D02*
D03*
X140716Y143800D02*
D03*
X143216Y138800D02*
D03*
X140716Y133800D02*
D03*
X143216Y128800D02*
D03*
X140716Y123800D02*
D03*
X143216Y118800D02*
D03*
X140716Y113800D02*
D03*
X143216Y108800D02*
D03*
X140716Y103800D02*
D03*
X143216Y98800D02*
D03*
X140716Y93800D02*
D03*
X143216Y88800D02*
D03*
X140716Y73800D02*
D03*
X143216Y68800D02*
D03*
X140716Y33800D02*
D03*
Y23800D02*
D03*
X138216Y578800D02*
D03*
X135716Y573800D02*
D03*
Y233800D02*
D03*
X138216Y228800D02*
D03*
X135716Y223800D02*
D03*
X138216Y218800D02*
D03*
X135716Y213800D02*
D03*
X138216Y208800D02*
D03*
X135716Y203800D02*
D03*
X138216Y198800D02*
D03*
X135716Y193800D02*
D03*
X138216Y188800D02*
D03*
X135716Y183800D02*
D03*
X138216Y178800D02*
D03*
X135716Y173800D02*
D03*
X138216Y168800D02*
D03*
X135716Y163800D02*
D03*
X138216Y158800D02*
D03*
X135716Y153800D02*
D03*
X138216Y148800D02*
D03*
X135716Y143800D02*
D03*
X138216Y138800D02*
D03*
X135716Y133800D02*
D03*
X138216Y128800D02*
D03*
X135716Y123800D02*
D03*
X138216Y118800D02*
D03*
X135716Y113800D02*
D03*
X138216Y108800D02*
D03*
X135716Y103800D02*
D03*
X138216Y98800D02*
D03*
X135716Y93800D02*
D03*
X138216Y88800D02*
D03*
X135716Y63800D02*
D03*
X138216Y58800D02*
D03*
Y38800D02*
D03*
X135716Y33800D02*
D03*
X138216Y28800D02*
D03*
X135716Y23800D02*
D03*
X133216Y578800D02*
D03*
X130716Y573800D02*
D03*
X133216Y138800D02*
D03*
X130716Y133800D02*
D03*
X133216Y128800D02*
D03*
X130716Y123800D02*
D03*
X133216Y118800D02*
D03*
X130716Y113800D02*
D03*
X133216Y108800D02*
D03*
X130716Y103800D02*
D03*
X133216Y98800D02*
D03*
X130716Y93800D02*
D03*
X133216Y88800D02*
D03*
X130716Y63800D02*
D03*
X133216Y58800D02*
D03*
X130716Y53800D02*
D03*
Y43800D02*
D03*
X133216Y38800D02*
D03*
X130716Y33800D02*
D03*
X133216Y28800D02*
D03*
X128216Y578800D02*
D03*
X125716Y573800D02*
D03*
X128216Y128800D02*
D03*
X125716Y123800D02*
D03*
X128216Y118800D02*
D03*
X125716Y113800D02*
D03*
X128216Y108800D02*
D03*
X125716Y103800D02*
D03*
X128216Y98800D02*
D03*
X125716Y93800D02*
D03*
X128216Y88800D02*
D03*
X125716Y83800D02*
D03*
X128216Y78800D02*
D03*
X125716Y73800D02*
D03*
X128216Y68800D02*
D03*
X125716Y63800D02*
D03*
X128216Y58800D02*
D03*
X125716Y53800D02*
D03*
X128216Y48800D02*
D03*
X125716Y43800D02*
D03*
X128216Y38800D02*
D03*
X123216Y578800D02*
D03*
X120716Y573800D02*
D03*
X123216Y128800D02*
D03*
X120716Y123800D02*
D03*
X123216Y118800D02*
D03*
X120716Y113800D02*
D03*
X123216Y108800D02*
D03*
X120716Y103800D02*
D03*
X123216Y98800D02*
D03*
X120716Y93800D02*
D03*
X123216Y88800D02*
D03*
X120716Y83800D02*
D03*
X123216Y78800D02*
D03*
X120716Y73800D02*
D03*
X123216Y68800D02*
D03*
X120716Y63800D02*
D03*
X123216Y58800D02*
D03*
X120716Y53800D02*
D03*
X123216Y48800D02*
D03*
X120716Y43800D02*
D03*
X123216Y38800D02*
D03*
X118216Y578800D02*
D03*
X115716Y573800D02*
D03*
X118216Y78800D02*
D03*
X115716Y73800D02*
D03*
X118216Y68800D02*
D03*
X115716Y63800D02*
D03*
X118216Y58800D02*
D03*
Y38800D02*
D03*
X115716Y33800D02*
D03*
X113216Y578800D02*
D03*
X110716Y573800D02*
D03*
Y73800D02*
D03*
X113216Y68800D02*
D03*
X110716Y63800D02*
D03*
X113216Y58800D02*
D03*
Y38800D02*
D03*
X110716Y33800D02*
D03*
X113216Y28800D02*
D03*
X110716Y23800D02*
D03*
X108216Y578800D02*
D03*
X105716Y573800D02*
D03*
X108216Y68800D02*
D03*
X105716Y63800D02*
D03*
X108216Y58800D02*
D03*
Y38800D02*
D03*
X105716Y33800D02*
D03*
X108216Y28800D02*
D03*
X105716Y23800D02*
D03*
X103216Y578800D02*
D03*
X100716Y573800D02*
D03*
Y63800D02*
D03*
X103216Y58800D02*
D03*
X100716Y53800D02*
D03*
Y43800D02*
D03*
X103216Y38800D02*
D03*
X100716Y33800D02*
D03*
X103216Y28800D02*
D03*
X100716Y23800D02*
D03*
X98216Y578800D02*
D03*
X95716Y573800D02*
D03*
X93216Y578800D02*
D03*
X90716Y573800D02*
D03*
X93216Y568800D02*
D03*
X90716Y563800D02*
D03*
X93216Y558800D02*
D03*
X90716Y553800D02*
D03*
X88216Y578800D02*
D03*
X85716Y573800D02*
D03*
X88216Y568800D02*
D03*
X85716Y563800D02*
D03*
X88216Y558800D02*
D03*
X85716Y553800D02*
D03*
X83216Y568800D02*
D03*
Y558800D02*
D03*
X80716Y553800D02*
D03*
X78216Y558800D02*
D03*
X75716Y553800D02*
D03*
X73216Y568800D02*
D03*
Y558800D02*
D03*
X70716Y553800D02*
D03*
X68216Y558800D02*
D03*
X65716Y553800D02*
D03*
X63216Y578800D02*
D03*
Y568800D02*
D03*
Y558800D02*
D03*
X60716Y553800D02*
D03*
X58216Y558800D02*
D03*
X55716Y553800D02*
D03*
X53216Y578800D02*
D03*
Y568800D02*
D03*
Y558800D02*
D03*
X50716Y553800D02*
D03*
X48216Y558800D02*
D03*
X45716Y553800D02*
D03*
X43216Y578800D02*
D03*
X40716Y573800D02*
D03*
X43216Y568800D02*
D03*
X40716Y563800D02*
D03*
X43216Y558800D02*
D03*
X40716Y553800D02*
D03*
X38216Y578800D02*
D03*
X35716Y573800D02*
D03*
X38216Y568800D02*
D03*
X35716Y563800D02*
D03*
X38216Y558800D02*
D03*
X35716Y553800D02*
D03*
X391700Y147900D02*
D03*
X385600D02*
D03*
X379900D02*
D03*
X496900Y466400D02*
D03*
X494800Y360100D02*
D03*
X502200Y414200D02*
D03*
X499500Y307600D02*
D03*
X505200Y250300D02*
D03*
X489000Y201300D02*
D03*
X492600Y149800D02*
D03*
X483200Y94000D02*
D03*
X396400Y468300D02*
D03*
X391700Y412900D02*
D03*
X388200Y361000D02*
D03*
X385600Y308400D02*
D03*
X382900Y256200D02*
D03*
X379900Y201600D02*
D03*
X405300Y160500D02*
D03*
X394200Y147800D02*
D03*
X388200Y147700D02*
D03*
X382900D02*
D03*
X376800Y147600D02*
D03*
X340600Y91800D02*
D03*
X333300Y60600D02*
D03*
D40*
X220100Y101600D02*
D03*
X419900Y127100D02*
D03*
X483700Y472800D02*
D03*
X484244Y421850D02*
D03*
X484645Y367050D02*
D03*
X484344Y315250D02*
D03*
X484745Y260750D02*
D03*
X484550Y207050D02*
D03*
X484250Y155850D02*
D03*
X484900Y102300D02*
D03*
X375905Y474000D02*
D03*
X374706Y420700D02*
D03*
X374700Y368500D02*
D03*
X374306Y315400D02*
D03*
X375200Y261300D02*
D03*
X375505Y207300D02*
D03*
X374800Y157700D02*
D03*
D41*
X244100Y40100D02*
D03*
X378300Y53200D02*
D03*
D42*
X149700Y25400D02*
D03*
X123125D02*
D03*
D43*
X219100Y40195D02*
D03*
Y27400D02*
D03*
X234600Y40495D02*
D03*
Y27700D02*
D03*
D44*
X286400Y40700D02*
D03*
X251361D02*
D03*
D45*
X363394Y166800D02*
D03*
X369300D02*
D03*
X389595Y157700D02*
D03*
X395500D02*
D03*
X363394Y219600D02*
D03*
X369300D02*
D03*
X390300Y207300D02*
D03*
X396205D02*
D03*
X363394Y271800D02*
D03*
X369300D02*
D03*
X389995Y261300D02*
D03*
X395900D02*
D03*
X363394Y325300D02*
D03*
X369300D02*
D03*
X389100Y315400D02*
D03*
X395005D02*
D03*
X363394Y384200D02*
D03*
X369300D02*
D03*
X363394Y377100D02*
D03*
X369300D02*
D03*
X389494Y368500D02*
D03*
X395400D02*
D03*
X389500Y420700D02*
D03*
X395406D02*
D03*
X363394Y438000D02*
D03*
X369300D02*
D03*
X363394Y430000D02*
D03*
X369300D02*
D03*
X390700Y474000D02*
D03*
X396605D02*
D03*
X363394Y491900D02*
D03*
X369300D02*
D03*
X363394Y483900D02*
D03*
X369300D02*
D03*
X480594Y120882D02*
D03*
X486500D02*
D03*
X480500Y113182D02*
D03*
X486406D02*
D03*
X507400Y102400D02*
D03*
X513306D02*
D03*
X485505Y173500D02*
D03*
X479600D02*
D03*
X485000Y165500D02*
D03*
X479095D02*
D03*
X512605Y155900D02*
D03*
X506700D02*
D03*
X478094Y227600D02*
D03*
X484000D02*
D03*
X477894Y219300D02*
D03*
X483800D02*
D03*
X507000Y207100D02*
D03*
X512906D02*
D03*
X478594Y272700D02*
D03*
X484500D02*
D03*
X507195Y260800D02*
D03*
X513100D02*
D03*
X478594Y332100D02*
D03*
X484500D02*
D03*
X478495Y324900D02*
D03*
X484400D02*
D03*
X506795Y315300D02*
D03*
X512700D02*
D03*
X507094Y367100D02*
D03*
X513000D02*
D03*
X512600Y421900D02*
D03*
X506695D02*
D03*
X486105Y431400D02*
D03*
X480200D02*
D03*
X511300Y473100D02*
D03*
X505395D02*
D03*
X484300Y491100D02*
D03*
X478395D02*
D03*
X484305Y482300D02*
D03*
X478400D02*
D03*
X486506Y439400D02*
D03*
X480600D02*
D03*
X272400Y66100D02*
D03*
X266494D02*
D03*
X484400Y280700D02*
D03*
X478495D02*
D03*
X369300Y174100D02*
D03*
X363394D02*
D03*
X369300Y227100D02*
D03*
X363394D02*
D03*
X369300Y278800D02*
D03*
X363394D02*
D03*
X369300Y332900D02*
D03*
X363394D02*
D03*
X485400Y377300D02*
D03*
X479494D02*
D03*
X485600Y384900D02*
D03*
X479695D02*
D03*
X218800Y183200D02*
D03*
X224706D02*
D03*
D46*
X405400Y175700D02*
D03*
X380400Y165700D02*
D03*
X405400D02*
D03*
X380500Y175700D02*
D03*
X405400Y228500D02*
D03*
X380400Y218500D02*
D03*
X405400D02*
D03*
X380500Y228500D02*
D03*
X405400Y334100D02*
D03*
X380400Y324100D02*
D03*
X405400D02*
D03*
X380500Y334100D02*
D03*
X405400Y386900D02*
D03*
X380400Y376900D02*
D03*
X405400D02*
D03*
X380500Y386900D02*
D03*
X405400Y439700D02*
D03*
X380400Y429700D02*
D03*
X405400D02*
D03*
X380500Y439700D02*
D03*
X405400Y492500D02*
D03*
X380400Y482500D02*
D03*
X405400D02*
D03*
X380500Y492500D02*
D03*
X522000Y121300D02*
D03*
X497000Y111300D02*
D03*
X522000D02*
D03*
X497100Y121300D02*
D03*
Y174329D02*
D03*
X522000Y164329D02*
D03*
X497000D02*
D03*
X522000Y174329D02*
D03*
Y227357D02*
D03*
X497000Y217357D02*
D03*
X522000D02*
D03*
X497100Y227357D02*
D03*
X522000Y280386D02*
D03*
X497000Y270386D02*
D03*
X522000D02*
D03*
X497100Y280386D02*
D03*
X522000Y333414D02*
D03*
X497000Y323414D02*
D03*
X522000D02*
D03*
X497100Y333414D02*
D03*
X522000Y386443D02*
D03*
X497000Y376443D02*
D03*
X522000D02*
D03*
X497100Y386443D02*
D03*
X497800Y440000D02*
D03*
X522700Y430000D02*
D03*
X497700D02*
D03*
X522700Y440000D02*
D03*
X497100Y492500D02*
D03*
X522000Y482500D02*
D03*
X497000D02*
D03*
X522000Y492500D02*
D03*
X405400Y281300D02*
D03*
X380400Y271300D02*
D03*
X405400D02*
D03*
X380500Y281300D02*
D03*
D47*
X384910Y240200D02*
D03*
X398690D02*
D03*
X386310Y397000D02*
D03*
X400090D02*
D03*
X501810Y237600D02*
D03*
X515590D02*
D03*
X501610Y502900D02*
D03*
X515390D02*
D03*
X499321Y398600D02*
D03*
X513100D02*
D03*
X502610Y343700D02*
D03*
X516390D02*
D03*
X502910Y291900D02*
D03*
X516690D02*
D03*
X516990Y450300D02*
D03*
X503210D02*
D03*
X501821Y184400D02*
D03*
X515600D02*
D03*
X504510Y133782D02*
D03*
X518290D02*
D03*
X386010Y502400D02*
D03*
X399790D02*
D03*
X386210Y450700D02*
D03*
X399990D02*
D03*
X385910Y345100D02*
D03*
X399690D02*
D03*
X384910Y291800D02*
D03*
X398690D02*
D03*
X384610Y185000D02*
D03*
X398390D02*
D03*
D48*
X261200Y101600D02*
D03*
X273995D02*
D03*
X154205Y566800D02*
D03*
X167000D02*
D03*
D49*
X258564Y73200D02*
D03*
Y78200D02*
D03*
Y83200D02*
D03*
Y88200D02*
D03*
X279036Y73200D02*
D03*
Y78200D02*
D03*
Y83200D02*
D03*
Y88200D02*
D03*
D50*
X268800Y80700D02*
D03*
D51*
X378200Y40716D02*
D03*
Y23000D02*
D03*
D52*
X315000Y25900D02*
D03*
Y52475D02*
D03*
D53*
X245705Y185800D02*
D03*
X258500D02*
D03*
X245600Y168700D02*
D03*
X258395D02*
D03*
X149295Y48200D02*
D03*
X136500D02*
D03*
D54*
X268855Y80285D02*
D03*
M02*
