%FSLAX25Y25*%
%MOIN*%
G70*
G01*
G75*
%ADD10C,0.01500*%
%ADD11C,0.01000*%
%ADD12C,0.02000*%
%ADD13R,0.03937X0.03150*%
%ADD14R,0.03150X0.03937*%
%ADD15R,0.09843X0.11811*%
%ADD16O,0.07087X0.02362*%
%ADD17O,0.02362X0.07087*%
%ADD18R,0.03347X0.02756*%
%ADD19R,0.02756X0.03347*%
%ADD20R,0.03150X0.07000*%
%ADD21R,0.06000X0.07874*%
%ADD22R,0.01181X0.01181*%
%ADD23R,0.01378X0.00984*%
%ADD24R,0.01378X0.01181*%
%ADD25R,0.02362X0.03937*%
%ADD26C,0.01200*%
%ADD27C,0.00800*%
%ADD28R,0.06800X0.08800*%
%ADD29R,0.12700X0.10700*%
%ADD30C,0.00500*%
%ADD31R,0.05906X0.05906*%
%ADD32C,0.05906*%
%ADD33C,0.02000*%
%ADD34C,0.04000*%
%ADD35R,0.05906X0.03937*%
%ADD36R,0.01575X0.03347*%
%ADD37R,0.07000X0.10000*%
%ADD38R,0.02756X0.08268*%
%ADD39R,0.02559X0.04843*%
%ADD40C,0.02500*%
%ADD41R,0.07200X0.31400*%
%ADD42R,0.10700X0.04700*%
%ADD43R,0.12600X0.10400*%
%ADD44R,0.12100X0.10500*%
D13*
X73569Y-73923D02*
D03*
Y-84946D02*
D03*
X31436D02*
D03*
Y-79435D02*
D03*
Y-62899D02*
D03*
Y-51876D02*
D03*
Y-46364D02*
D03*
Y-57387D02*
D03*
Y-68411D02*
D03*
Y-73923D02*
D03*
X73569Y-62899D02*
D03*
Y-68411D02*
D03*
Y-79435D02*
D03*
D14*
X35967Y-90458D02*
D03*
X58014Y-40816D02*
D03*
X52502D02*
D03*
X35967D02*
D03*
X41479D02*
D03*
X46990D02*
D03*
X63526D02*
D03*
X41479Y-90458D02*
D03*
X46990D02*
D03*
X52502D02*
D03*
X58014D02*
D03*
X63526D02*
D03*
X69038D02*
D03*
X22000Y-11900D02*
D03*
X91100Y-13500D02*
D03*
D15*
X63920Y-65619D02*
D03*
X41085Y-52233D02*
D03*
X63920D02*
D03*
X52502D02*
D03*
X41085Y-65619D02*
D03*
X52502D02*
D03*
X41085Y-79005D02*
D03*
X63920D02*
D03*
X52502D02*
D03*
D16*
X83998Y-80776D02*
D03*
Y-89438D02*
D03*
Y-76446D02*
D03*
Y-72115D02*
D03*
Y-67784D02*
D03*
Y-63454D02*
D03*
Y-59123D02*
D03*
Y-54792D02*
D03*
Y-46131D02*
D03*
Y-41800D02*
D03*
X21400Y-85107D02*
D03*
Y-80776D02*
D03*
Y-76446D02*
D03*
Y-72115D02*
D03*
Y-67784D02*
D03*
Y-63454D02*
D03*
Y-59123D02*
D03*
Y-54792D02*
D03*
Y-50461D02*
D03*
Y-46131D02*
D03*
Y-41800D02*
D03*
Y-89438D02*
D03*
X83998Y-85107D02*
D03*
Y-50461D02*
D03*
D17*
X39707Y-100658D02*
D03*
X70022D02*
D03*
X65691D02*
D03*
X61361D02*
D03*
X57030D02*
D03*
X39707Y-30580D02*
D03*
X44038D02*
D03*
X48368D02*
D03*
X52699D02*
D03*
X57030D02*
D03*
X61361D02*
D03*
X65691D02*
D03*
X70022D02*
D03*
X35376Y-100658D02*
D03*
X44038D02*
D03*
X48368D02*
D03*
X52699D02*
D03*
X35376Y-30580D02*
D03*
D18*
X31800Y-108794D02*
D03*
Y-114700D02*
D03*
X43900Y-108794D02*
D03*
Y-114700D02*
D03*
X37933Y-108794D02*
D03*
Y-114700D02*
D03*
X50700Y-108794D02*
D03*
Y-114700D02*
D03*
X5500Y-30900D02*
D03*
Y-36805D02*
D03*
X10600Y-62000D02*
D03*
Y-56094D02*
D03*
X4600Y-56039D02*
D03*
Y-61945D02*
D03*
D19*
X16500Y-26000D02*
D03*
X10594D02*
D03*
X16605Y-30900D02*
D03*
X10700D02*
D03*
D20*
X22000Y-24136D02*
D03*
X91100Y-25736D02*
D03*
D21*
X28100Y-17000D02*
D03*
X15864Y-16900D02*
D03*
X97200Y-18600D02*
D03*
X84964Y-18500D02*
D03*
D22*
X11800Y-38700D02*
D03*
D23*
X10668Y-37027D02*
D03*
X12932D02*
D03*
D24*
X10668Y-35157D02*
D03*
X12932D02*
D03*
D25*
X44526Y-14100D02*
D03*
X48463Y-23943D02*
D03*
X52400Y-14100D02*
D03*
D30*
X102362Y-118110D02*
Y0D01*
X0Y-118110D02*
X102362D01*
X0D02*
Y0D01*
X102362D01*
D31*
X13900Y-5600D02*
D03*
D32*
X23900D02*
D03*
X33900D02*
D03*
X43900D02*
D03*
X53900D02*
D03*
X63900D02*
D03*
X73900D02*
D03*
X83900D02*
D03*
M02*
