%FSLAX25Y25*%
%MOIN*%
G70*
G01*
G75*
G04 Layer_Color=255*
%ADD10C,0.01500*%
%ADD11C,0.01000*%
%ADD12C,0.02000*%
%ADD13R,0.03937X0.03150*%
%ADD14R,0.03150X0.03937*%
%ADD15R,0.09843X0.11811*%
%ADD16O,0.07087X0.02362*%
%ADD17O,0.02362X0.07087*%
%ADD18R,0.03347X0.02756*%
%ADD19R,0.02756X0.03347*%
%ADD20R,0.03150X0.07000*%
%ADD21R,0.06000X0.07874*%
%ADD22R,0.01181X0.01181*%
%ADD23R,0.01378X0.00984*%
%ADD24R,0.01378X0.01181*%
%ADD25R,0.02362X0.03937*%
%ADD26C,0.01200*%
%ADD27C,0.00800*%
%ADD28R,0.06800X0.08800*%
%ADD29R,0.12700X0.10700*%
%ADD30C,0.00500*%
%ADD31R,0.05906X0.05906*%
%ADD32C,0.05906*%
%ADD33C,0.02000*%
%ADD34C,0.04000*%
%ADD35R,0.05906X0.03937*%
%ADD36R,0.01575X0.03347*%
%ADD37R,0.07000X0.10000*%
%ADD38R,0.02756X0.08268*%
%ADD39R,0.02559X0.04843*%
%ADD40C,0.02500*%
%ADD41R,0.07200X0.31400*%
%ADD42R,0.10700X0.04700*%
%ADD43R,0.12600X0.10400*%
%ADD44R,0.12100X0.10500*%
D18*
X10143Y-21800D02*
D03*
Y-15894D02*
D03*
X3700Y-15894D02*
D03*
Y-21800D02*
D03*
X16586Y-15894D02*
D03*
Y-21800D02*
D03*
X29471Y-21800D02*
D03*
Y-15894D02*
D03*
X23029Y-15894D02*
D03*
Y-21800D02*
D03*
X43000Y-21606D02*
D03*
Y-15700D02*
D03*
X49300Y-15695D02*
D03*
Y-21600D02*
D03*
X35914Y-15894D02*
D03*
Y-21800D02*
D03*
X52100Y-40295D02*
D03*
Y-46200D02*
D03*
X31800Y-39100D02*
D03*
Y-45006D02*
D03*
D19*
X81600Y-43600D02*
D03*
X87506D02*
D03*
X81600Y-50100D02*
D03*
X87506D02*
D03*
X46205Y-33100D02*
D03*
X40300D02*
D03*
D30*
X102362Y-118110D02*
Y0D01*
X0Y-118110D02*
X102362D01*
X0D02*
Y0D01*
X102362D01*
D31*
X13900Y-5600D02*
D03*
D32*
X23900D02*
D03*
X33900D02*
D03*
X43900D02*
D03*
X53900D02*
D03*
X63900D02*
D03*
X73900D02*
D03*
X83900D02*
D03*
D35*
X65900Y-26711D02*
D03*
Y-14900D02*
D03*
D36*
X40241Y-46242D02*
D03*
Y-38958D02*
D03*
X42800D02*
D03*
X45359Y-46242D02*
D03*
X42800D02*
D03*
X45359Y-38958D02*
D03*
D37*
X81800Y-18600D02*
D03*
X93800D02*
D03*
X93600Y-32600D02*
D03*
X81600D02*
D03*
D38*
X11073Y-112802D02*
D03*
Y-65558D02*
D03*
X62215Y-112802D02*
D03*
Y-65558D02*
D03*
D39*
X35640Y-59200D02*
D03*
X40640D02*
D03*
X45640D02*
D03*
X50640D02*
D03*
X55640D02*
D03*
X30640D02*
D03*
X26900D02*
D03*
M02*
