%FSLAX25Y25*%
%MOIN*%
G70*
G01*
G75*
G04 Layer_Color=16711935*
%ADD10C,0.01500*%
%ADD11C,0.01000*%
%ADD12C,0.02000*%
%ADD13R,0.03937X0.03150*%
%ADD14R,0.03150X0.03937*%
%ADD15R,0.09843X0.11811*%
%ADD16O,0.07087X0.02362*%
%ADD17O,0.02362X0.07087*%
%ADD18R,0.03347X0.02756*%
%ADD19R,0.02756X0.03347*%
%ADD20R,0.03150X0.07000*%
%ADD21R,0.06000X0.07874*%
%ADD22R,0.01181X0.01181*%
%ADD23R,0.01378X0.00984*%
%ADD24R,0.01378X0.01181*%
%ADD25R,0.02362X0.03937*%
%ADD26C,0.01200*%
%ADD27C,0.00800*%
%ADD28R,0.06800X0.08800*%
%ADD29R,0.12700X0.10700*%
%ADD30C,0.00500*%
%ADD31R,0.05906X0.05906*%
%ADD32C,0.05906*%
%ADD33C,0.02000*%
%ADD34C,0.04000*%
%ADD35R,0.05906X0.03937*%
%ADD36R,0.01575X0.03347*%
%ADD37R,0.07000X0.10000*%
%ADD38R,0.02756X0.08268*%
%ADD39R,0.02559X0.04843*%
%ADD40C,0.02500*%
%ADD41R,0.07200X0.31400*%
%ADD42R,0.10700X0.04700*%
%ADD43R,0.12600X0.10400*%
%ADD44R,0.12100X0.10500*%
%ADD45C,0.00400*%
%ADD46C,0.00300*%
%ADD47R,0.04737X0.03950*%
%ADD48R,0.03950X0.04737*%
%ADD49R,0.10642X0.12611*%
%ADD50O,0.07887X0.03162*%
%ADD51O,0.03162X0.07887*%
%ADD52R,0.04147X0.03556*%
%ADD53R,0.03556X0.04147*%
%ADD54R,0.03950X0.07800*%
%ADD55R,0.06800X0.08674*%
%ADD56R,0.01981X0.01981*%
%ADD57R,0.02178X0.01784*%
%ADD58R,0.02178X0.01981*%
%ADD59R,0.03162X0.04737*%
%ADD60R,0.06706X0.06706*%
%ADD61C,0.06706*%
%ADD62R,0.06706X0.04737*%
%ADD63R,0.02375X0.04147*%
%ADD64R,0.07800X0.10800*%
%ADD65R,0.03556X0.09068*%
%ADD66R,0.03359X0.05643*%
D30*
X102362Y-118110D02*
Y0D01*
X0Y-118110D02*
X102362D01*
X0D02*
Y0D01*
X102362D01*
D52*
X10143Y-21800D02*
D03*
Y-15894D02*
D03*
X3700Y-15894D02*
D03*
Y-21800D02*
D03*
X16586Y-15894D02*
D03*
Y-21800D02*
D03*
X29471Y-21800D02*
D03*
Y-15894D02*
D03*
X23029Y-15894D02*
D03*
Y-21800D02*
D03*
X43000Y-21606D02*
D03*
Y-15700D02*
D03*
X49300Y-15695D02*
D03*
Y-21600D02*
D03*
X35914Y-15894D02*
D03*
Y-21800D02*
D03*
X52100Y-40295D02*
D03*
Y-46200D02*
D03*
X31800Y-39100D02*
D03*
Y-45006D02*
D03*
D53*
X81600Y-43600D02*
D03*
X87506D02*
D03*
X81600Y-50100D02*
D03*
X87506D02*
D03*
X46205Y-33100D02*
D03*
X40300D02*
D03*
D60*
X13900Y-5600D02*
D03*
D61*
X23900D02*
D03*
X33900D02*
D03*
X43900D02*
D03*
X53900D02*
D03*
X63900D02*
D03*
X73900D02*
D03*
X83900D02*
D03*
D62*
X65900Y-26711D02*
D03*
Y-14900D02*
D03*
D63*
X40241Y-46242D02*
D03*
Y-38958D02*
D03*
X42800D02*
D03*
X45359Y-46242D02*
D03*
X42800D02*
D03*
X45359Y-38958D02*
D03*
D64*
X81800Y-18600D02*
D03*
X93800D02*
D03*
X93600Y-32600D02*
D03*
X81600D02*
D03*
D65*
X11073Y-112802D02*
D03*
Y-65558D02*
D03*
X62215Y-112802D02*
D03*
Y-65558D02*
D03*
D66*
X35640Y-59200D02*
D03*
X40640D02*
D03*
X45640D02*
D03*
X50640D02*
D03*
X55640D02*
D03*
X30640D02*
D03*
X26900D02*
D03*
M02*
