%FSLAX25Y25*%
%MOIN*%
G70*
G01*
G75*
G04 Layer_Physical_Order=1*
G04 Layer_Color=255*
%ADD10C,0.01000*%
%ADD11R,0.04843X0.05354*%
%ADD12C,0.03000*%
%ADD13C,0.00500*%
%ADD14C,0.00600*%
%ADD15O,0.06000X0.03000*%
%ADD16R,0.06000X0.03000*%
%ADD17R,0.02362X0.02362*%
%ADD18C,0.02000*%
%ADD19C,0.05000*%
G36*
X111718Y45000D02*
X103800D01*
Y40000D01*
X104680D01*
X104825Y39522D01*
X104498Y39302D01*
X104315Y39029D01*
X101833D01*
X99929Y40933D01*
Y44075D01*
X99945Y44112D01*
X100284Y44620D01*
X100439Y45400D01*
X100284Y46180D01*
X99842Y46842D01*
X99180Y47284D01*
X98400Y47439D01*
X97620Y47284D01*
X96958Y46842D01*
X96516Y46180D01*
X96361Y45400D01*
X96516Y44620D01*
X96855Y44112D01*
X96871Y44075D01*
Y40300D01*
X96871Y40300D01*
X96871D01*
X96987Y39715D01*
X97319Y39219D01*
X100119Y36419D01*
X100615Y36087D01*
X101200Y35971D01*
X104315D01*
X104498Y35698D01*
X105167Y35250D01*
Y34750D01*
X104498Y34302D01*
X103945Y33475D01*
X103751Y32500D01*
X103945Y31525D01*
X104498Y30698D01*
X105167Y30250D01*
Y29750D01*
X104498Y29302D01*
X103945Y28475D01*
X103751Y27500D01*
X103945Y26524D01*
X104498Y25698D01*
X105324Y25145D01*
X106300Y24951D01*
X109300D01*
X110275Y25145D01*
X111102Y25698D01*
X111239Y25902D01*
X111718Y25757D01*
Y-17229D01*
X87310D01*
Y-4026D01*
X85729D01*
Y-1325D01*
X85745Y-1288D01*
X86084Y-780D01*
X86239Y0D01*
X86084Y780D01*
X85642Y1442D01*
X84980Y1884D01*
X84200Y2039D01*
X83420Y1884D01*
X82758Y1442D01*
X82316Y780D01*
X82161Y0D01*
X82316Y-780D01*
X82655Y-1288D01*
X82671Y-1325D01*
Y-4026D01*
X80980D01*
Y-17229D01*
X79436D01*
Y-4026D01*
X78150D01*
X77914Y-3585D01*
X77984Y-3480D01*
X78139Y-2700D01*
X77984Y-1920D01*
X77542Y-1258D01*
X76880Y-816D01*
X76100Y-661D01*
X75320Y-816D01*
X74658Y-1258D01*
X74216Y-1920D01*
X74061Y-2700D01*
X74216Y-3480D01*
X74286Y-3585D01*
X74050Y-4026D01*
X73106D01*
Y-17229D01*
X71562D01*
Y-4026D01*
X70452D01*
X70402Y-3993D01*
X70112Y-3639D01*
X70239Y-3000D01*
X70084Y-2220D01*
X69642Y-1558D01*
X68980Y-1116D01*
X68200Y-961D01*
X67420Y-1116D01*
X66758Y-1558D01*
X66316Y-2220D01*
X66161Y-3000D01*
X66288Y-3639D01*
X65971Y-4026D01*
X65232D01*
Y-17229D01*
X63688D01*
Y-4026D01*
X62029D01*
Y-2825D01*
X62045Y-2788D01*
X62384Y-2280D01*
X62539Y-1500D01*
X62384Y-720D01*
X61942Y-58D01*
X61280Y384D01*
X60500Y539D01*
X59720Y384D01*
X59058Y-58D01*
X58616Y-720D01*
X58461Y-1500D01*
X58616Y-2280D01*
X58955Y-2788D01*
X58971Y-2825D01*
Y-4026D01*
X57358D01*
Y-17229D01*
X55814D01*
Y-4026D01*
X54129D01*
Y-3325D01*
X54145Y-3288D01*
X54484Y-2780D01*
X54639Y-2000D01*
X54484Y-1220D01*
X54042Y-558D01*
X53380Y-116D01*
X52600Y39D01*
X51820Y-116D01*
X51158Y-558D01*
X50716Y-1220D01*
X50561Y-2000D01*
X50716Y-2780D01*
X51055Y-3288D01*
X51071Y-3325D01*
Y-4026D01*
X49483D01*
Y-17229D01*
X47940D01*
Y-4026D01*
X46129D01*
Y-1325D01*
X46145Y-1288D01*
X46484Y-780D01*
X46639Y0D01*
X46484Y780D01*
X46042Y1442D01*
X45380Y1884D01*
X44600Y2039D01*
X43820Y1884D01*
X43158Y1442D01*
X42716Y780D01*
X42561Y0D01*
X42716Y-780D01*
X43055Y-1288D01*
X43071Y-1325D01*
Y-4026D01*
X41609D01*
Y-17229D01*
X40066D01*
Y-4026D01*
X38229D01*
Y-1325D01*
X38245Y-1288D01*
X38584Y-780D01*
X38739Y0D01*
X38584Y780D01*
X38142Y1442D01*
X37480Y1884D01*
X36700Y2039D01*
X35920Y1884D01*
X35258Y1442D01*
X34816Y780D01*
X34661Y0D01*
X34816Y-780D01*
X35155Y-1288D01*
X35171Y-1325D01*
Y-4026D01*
X33735D01*
Y-17229D01*
X32192D01*
Y-4026D01*
X30429D01*
Y-125D01*
X30445Y-88D01*
X30784Y420D01*
X30939Y1200D01*
X30784Y1980D01*
X30342Y2642D01*
X29680Y3084D01*
X28900Y3239D01*
X28120Y3084D01*
X27458Y2642D01*
X27016Y1980D01*
X26861Y1200D01*
X27016Y420D01*
X27355Y-88D01*
X27371Y-125D01*
Y-4026D01*
X25861D01*
Y-17229D01*
X24318D01*
Y-4026D01*
X22682D01*
Y222D01*
X22697Y259D01*
X23037Y767D01*
X23192Y1547D01*
X23037Y2328D01*
X22595Y2989D01*
X21933Y3431D01*
X21153Y3586D01*
X20372Y3431D01*
X19711Y2989D01*
X19269Y2328D01*
X19114Y1547D01*
X19269Y767D01*
X19608Y259D01*
X19623Y222D01*
Y-4026D01*
X17988D01*
Y-17229D01*
X-7781D01*
Y-14877D01*
X-6102D01*
Y-11201D01*
Y-7523D01*
X-7781D01*
Y26617D01*
X-7283Y26666D01*
X-7255Y26524D01*
X-6702Y25698D01*
X-5875Y25145D01*
X-4900Y24951D01*
X67344D01*
X68956Y23339D01*
X69065Y22512D01*
X69418Y21660D01*
X69979Y20929D01*
X70710Y20368D01*
X71561Y20015D01*
X72475Y19895D01*
X73388Y20015D01*
X74240Y20368D01*
X74971Y20929D01*
X75532Y21660D01*
X75885Y22512D01*
X76005Y23425D01*
X75885Y24339D01*
X75532Y25190D01*
X74971Y25921D01*
X74240Y26482D01*
X73388Y26835D01*
X72561Y26944D01*
X70202Y29302D01*
X69375Y29855D01*
X68400Y30049D01*
X-207D01*
X-352Y30527D01*
X-98Y30698D01*
X455Y31525D01*
X550Y32000D01*
X-3401D01*
Y33000D01*
X550D01*
X455Y33475D01*
X-98Y34302D01*
X-924Y34855D01*
Y35145D01*
X-98Y35698D01*
X455Y36525D01*
X649Y37500D01*
X455Y38475D01*
X-98Y39302D01*
X-924Y39855D01*
X-924Y39855D01*
X-924D01*
Y39855D01*
X-910Y40000D01*
X600D01*
Y42000D01*
X-3401D01*
Y42499D01*
X-3900D01*
Y45000D01*
X-7400D01*
Y45000D01*
X-7427D01*
X-7781Y45354D01*
Y87111D01*
X111718D01*
Y45000D01*
D02*
G37*
%LPC*%
G36*
X600D02*
X-2900D01*
Y43000D01*
X600D01*
Y45000D01*
D02*
G37*
G36*
X47940Y86525D02*
X41609D01*
Y72714D01*
X43271D01*
Y71611D01*
X42916Y71080D01*
X42761Y70300D01*
X42916Y69520D01*
X43358Y68858D01*
X44020Y68416D01*
X44800Y68261D01*
X45580Y68416D01*
X46242Y68858D01*
X46684Y69520D01*
X46839Y70300D01*
X46684Y71080D01*
X46329Y71611D01*
Y72714D01*
X47940D01*
Y86525D01*
D02*
G37*
G36*
X-2181Y-11700D02*
X-5102D01*
Y-14877D01*
X-2181D01*
Y-11700D01*
D02*
G37*
G36*
X13300Y3739D02*
X12520Y3584D01*
X11858Y3142D01*
X11416Y2480D01*
X11261Y1700D01*
X11416Y920D01*
X11755Y412D01*
X11771Y375D01*
Y-1366D01*
X10521Y-2617D01*
X10189Y-3113D01*
X10073Y-3698D01*
Y-7523D01*
X8181D01*
Y-14877D01*
X15023D01*
Y-7523D01*
X13131D01*
Y-4332D01*
X14381Y-3081D01*
X14713Y-2585D01*
X14732Y-2488D01*
X14829Y-2000D01*
Y375D01*
X14845Y412D01*
X15184Y920D01*
X15339Y1700D01*
X15184Y2480D01*
X14742Y3142D01*
X14080Y3584D01*
X13300Y3739D01*
D02*
G37*
G36*
X-2181Y-7523D02*
X-5102D01*
Y-10700D01*
X-2181D01*
Y-7523D01*
D02*
G37*
G36*
X32192Y86525D02*
X25861D01*
Y72714D01*
X27371D01*
Y71811D01*
X27016Y71280D01*
X26861Y70500D01*
X27016Y69720D01*
X27458Y69058D01*
X28120Y68616D01*
X28900Y68461D01*
X29680Y68616D01*
X30342Y69058D01*
X30784Y69720D01*
X30939Y70500D01*
X30784Y71280D01*
X30429Y71811D01*
Y72714D01*
X32192D01*
Y86525D01*
D02*
G37*
G36*
X71562D02*
X65232D01*
Y72714D01*
X66643D01*
X66878Y72273D01*
X66616Y71880D01*
X66461Y71100D01*
X66616Y70320D01*
X67058Y69658D01*
X67720Y69216D01*
X68500Y69061D01*
X69280Y69216D01*
X69942Y69658D01*
X70384Y70320D01*
X70539Y71100D01*
X70384Y71880D01*
X70029Y72411D01*
Y72714D01*
X71562D01*
Y86525D01*
D02*
G37*
G36*
X87310D02*
X80980D01*
Y72714D01*
X82109D01*
X82345Y72273D01*
X82216Y72080D01*
X82061Y71300D01*
X82216Y70520D01*
X82658Y69858D01*
X83320Y69416D01*
X84100Y69261D01*
X84880Y69416D01*
X85542Y69858D01*
X85984Y70520D01*
X86139Y71300D01*
X85984Y72080D01*
X85645Y72588D01*
X85629Y72625D01*
Y72714D01*
X87310D01*
Y86525D01*
D02*
G37*
G36*
X79436D02*
X73106D01*
Y72714D01*
X74188D01*
X74506Y72328D01*
X74361Y71600D01*
X74516Y70820D01*
X74958Y70158D01*
X75620Y69716D01*
X76400Y69561D01*
X77180Y69716D01*
X77842Y70158D01*
X78284Y70820D01*
X78439Y71600D01*
X78284Y72380D01*
X78462Y72714D01*
X79436D01*
Y86525D01*
D02*
G37*
G36*
X40066D02*
X33735D01*
Y72714D01*
X35471D01*
Y71811D01*
X35116Y71280D01*
X34961Y70500D01*
X35116Y69720D01*
X35558Y69058D01*
X36220Y68616D01*
X37000Y68461D01*
X37780Y68616D01*
X38442Y69058D01*
X38884Y69720D01*
X39039Y70500D01*
X38884Y71280D01*
X38529Y71811D01*
Y72714D01*
X40066D01*
Y86525D01*
D02*
G37*
G36*
X55814D02*
X49483D01*
Y72714D01*
X51271D01*
Y71911D01*
X50916Y71380D01*
X50761Y70600D01*
X50916Y69820D01*
X51358Y69158D01*
X52020Y68716D01*
X52800Y68561D01*
X53580Y68716D01*
X54242Y69158D01*
X54684Y69820D01*
X54839Y70600D01*
X54684Y71380D01*
X54329Y71911D01*
Y72714D01*
X55814D01*
Y86525D01*
D02*
G37*
G36*
X63688D02*
X57358D01*
Y72714D01*
X58871D01*
Y72211D01*
X58516Y71680D01*
X58361Y70900D01*
X58516Y70120D01*
X58958Y69458D01*
X59620Y69016D01*
X60400Y68861D01*
X61180Y69016D01*
X61842Y69458D01*
X62284Y70120D01*
X62439Y70900D01*
X62284Y71680D01*
X61929Y72211D01*
Y72714D01*
X63688D01*
Y86525D01*
D02*
G37*
%LPD*%
D10*
X98753Y45046D02*
G03*
X98400Y44193I854J-854D01*
G01*
D02*
G03*
X98046Y45046I-1207J0D01*
G01*
X29254Y846D02*
G03*
X28900Y-7I854J-854D01*
G01*
D02*
G03*
X28546Y846I-1207J0D01*
G01*
X37054Y-353D02*
G03*
X36700Y-1207I854J-854D01*
G01*
D02*
G03*
X36346Y-353I-1207J0D01*
G01*
X44954D02*
G03*
X44600Y-1207I854J-854D01*
G01*
D02*
G03*
X44246Y-353I-1207J0D01*
G01*
X52953Y-2354D02*
G03*
X52600Y-3207I854J-854D01*
G01*
D02*
G03*
X52246Y-2354I-1207J0D01*
G01*
X60853Y-1853D02*
G03*
X60500Y-2707I854J-854D01*
G01*
D02*
G03*
X60146Y-1853I-1207J0D01*
G01*
X68554Y-3353D02*
G03*
X68200Y-4207I854J-854D01*
G01*
D02*
G03*
X67847Y-3353I-1207J0D01*
G01*
X76454Y-3053D02*
G03*
X76100Y-3907I854J-854D01*
G01*
D02*
G03*
X75747Y-3053I-1207J0D01*
G01*
X84553Y-353D02*
G03*
X84200Y-1207I854J-854D01*
G01*
D02*
G03*
X83846Y-353I-1207J0D01*
G01*
X83746Y71653D02*
G03*
X84100Y72507I-854J854D01*
G01*
D02*
G03*
X84453Y71653I1207J0D01*
G01*
X13654Y1346D02*
G03*
X13300Y493I854J-854D01*
G01*
D02*
G03*
X12946Y1346I-1207J0D01*
G01*
X21506Y1194D02*
G03*
X21153Y340I854J-854D01*
G01*
D02*
G03*
X20799Y1194I-1207J0D01*
G01*
X75093Y-6014D02*
G03*
X76100Y-3583I-2430J2430D01*
G01*
Y-2758D02*
G03*
X77448Y-6014I4604J0D01*
G01*
X67219D02*
G03*
X68200Y-3646I-2368J2368D01*
G01*
Y-3000D02*
G03*
X69513Y-5955I3982J0D01*
G01*
X76100Y-2758D02*
G03*
X77448Y-6014I4604J0D01*
G01*
X75093D02*
G03*
X76100Y-3583I-2430J2430D01*
G01*
X68200Y-3000D02*
G03*
X69513Y-5955I3982J0D01*
G01*
X67219Y-6014D02*
G03*
X68200Y-3646I-2368J2368D01*
G01*
X68500Y72307D02*
G03*
X68853Y71453I1207J0D01*
G01*
X68147D02*
G03*
X68500Y72307I-854J854D01*
G01*
X60400Y72107D02*
G03*
X60754Y71254I1207J0D01*
G01*
X60046D02*
G03*
X60400Y72107I-854J854D01*
G01*
X52800Y71807D02*
G03*
X53154Y70954I1207J0D01*
G01*
X52447D02*
G03*
X52800Y71807I-854J854D01*
G01*
X44800Y71507D02*
G03*
X45154Y70653I1207J0D01*
G01*
X44446D02*
G03*
X44800Y71507I-854J854D01*
G01*
X37000Y71707D02*
G03*
X37354Y70854I1207J0D01*
G01*
X36646D02*
G03*
X37000Y71707I-854J854D01*
G01*
X28900D02*
G03*
X29254Y70854I1207J0D01*
G01*
X28546D02*
G03*
X28900Y71707I-854J854D01*
G01*
X98400Y44193D02*
G03*
X98046Y45046I-1207J0D01*
G01*
X98753D02*
G03*
X98400Y44193I854J-854D01*
G01*
X28900Y-7D02*
G03*
X28546Y846I-1207J0D01*
G01*
X29254D02*
G03*
X28900Y-7I854J-854D01*
G01*
X36700Y-1207D02*
G03*
X36346Y-353I-1207J0D01*
G01*
X37054D02*
G03*
X36700Y-1207I854J-854D01*
G01*
X44600D02*
G03*
X44246Y-353I-1207J0D01*
G01*
X44954D02*
G03*
X44600Y-1207I854J-854D01*
G01*
X52600Y-3207D02*
G03*
X52246Y-2354I-1207J0D01*
G01*
X52953D02*
G03*
X52600Y-3207I854J-854D01*
G01*
X60500Y-2707D02*
G03*
X60146Y-1853I-1207J0D01*
G01*
X60853D02*
G03*
X60500Y-2707I854J-854D01*
G01*
X68200Y-4207D02*
G03*
X67847Y-3353I-1207J0D01*
G01*
X68554D02*
G03*
X68200Y-4207I854J-854D01*
G01*
X76100Y-3907D02*
G03*
X75747Y-3053I-1207J0D01*
G01*
X76454D02*
G03*
X76100Y-3907I854J-854D01*
G01*
X84200Y-1207D02*
G03*
X83846Y-353I-1207J0D01*
G01*
X84553D02*
G03*
X84200Y-1207I854J-854D01*
G01*
X84100Y72507D02*
G03*
X84453Y71653I1207J0D01*
G01*
X83746D02*
G03*
X84100Y72507I-854J854D01*
G01*
X13300Y493D02*
G03*
X12946Y1346I-1207J0D01*
G01*
X13654D02*
G03*
X13300Y493I854J-854D01*
G01*
X21153Y340D02*
G03*
X20799Y1194I-1207J0D01*
G01*
X21506D02*
G03*
X21153Y340I854J-854D01*
G01*
Y-10932D02*
Y1547D01*
X13300Y-2000D02*
Y1700D01*
X11602Y-3698D02*
X13300Y-2000D01*
X11602Y-11200D02*
Y-3698D01*
X84200Y-10876D02*
Y0D01*
X76100Y-10761D02*
Y-2700D01*
X68200Y-10735D02*
Y-3000D01*
X60500Y-10909D02*
Y-1500D01*
X52600Y-10883D02*
Y-2000D01*
X44600Y-10757D02*
Y0D01*
X36700Y-10731D02*
Y0D01*
X28900Y-10805D02*
Y1200D01*
X84100Y71300D02*
Y79575D01*
X101200Y37500D02*
X107800D01*
X98400Y40300D02*
X101200Y37500D01*
X98400Y40300D02*
Y45400D01*
X28900Y70500D02*
Y79493D01*
X29027Y79620D01*
X37000Y70500D02*
Y79520D01*
X36901Y79620D02*
X37000Y79520D01*
X44800Y70300D02*
Y79594D01*
X44775Y79620D02*
X44800Y79594D01*
X52800Y70600D02*
Y79469D01*
X52649Y79620D02*
X52800Y79469D01*
X60400Y70900D02*
Y79497D01*
X60523Y79620D01*
X68500Y71100D02*
Y79517D01*
X68397Y79620D02*
X68500Y79517D01*
X76271Y71729D02*
Y79620D01*
Y71729D02*
X76400Y71600D01*
X105300Y-24400D02*
Y-1250D01*
X0Y-24400D02*
Y-1250D01*
X68291Y-23400D02*
X105300D01*
X0D02*
X38100D01*
X99300Y-21400D02*
X105300Y-23400D01*
X99300Y-25400D02*
X105300Y-23400D01*
X0D02*
X6000Y-25400D01*
X0Y-23400D02*
X6000Y-21400D01*
X-42000Y0D02*
X-1250D01*
X-42000Y68946D02*
X-1250D01*
X-41000Y0D02*
Y19277D01*
Y46469D02*
Y68946D01*
Y0D02*
X-39000Y6000D01*
X-43000D02*
X-41000Y0D01*
X-43000Y62946D02*
X-41000Y68946D01*
X-39000Y62946D01*
D11*
X-5602Y-11200D02*
D03*
X11602D02*
D03*
D12*
X68400Y27500D02*
X72475Y23425D01*
X-3400Y27500D02*
X68400D01*
D13*
X-9055Y-18504D02*
Y88386D01*
X-8900D02*
X112992D01*
Y-18504D02*
Y88400D01*
X-9055Y-18504D02*
X113100D01*
D14*
X43699Y-28100D02*
X39700D01*
X43699Y-24101D01*
Y-23102D01*
X42699Y-22102D01*
X40700D01*
X39700Y-23102D01*
X49697Y-22102D02*
X47697Y-23102D01*
X45698Y-25101D01*
Y-27100D01*
X46698Y-28100D01*
X48697D01*
X49697Y-27100D01*
Y-26101D01*
X48697Y-25101D01*
X45698D01*
X51696Y-28100D02*
Y-27100D01*
X52696D01*
Y-28100D01*
X51696D01*
X56695Y-22102D02*
X60693D01*
Y-23102D01*
X56695Y-27100D01*
Y-28100D01*
X66691Y-22102D02*
X62693D01*
Y-25101D01*
X64692Y-24101D01*
X65692D01*
X66691Y-25101D01*
Y-27100D01*
X65692Y-28100D01*
X63692D01*
X62693Y-27100D01*
X-37401Y20877D02*
Y22876D01*
Y21877D01*
X-43399D01*
X-42399Y20877D01*
X-43399Y25875D02*
Y29874D01*
X-42399D01*
X-38401Y25875D01*
X-37401D01*
Y31873D02*
X-38401D01*
Y32873D01*
X-37401D01*
Y31873D01*
X-43399Y40870D02*
Y36872D01*
X-40400D01*
X-41400Y38871D01*
Y39871D01*
X-40400Y40870D01*
X-38401D01*
X-37401Y39871D01*
Y37871D01*
X-38401Y36872D01*
X-37401Y42870D02*
Y44869D01*
Y43869D01*
X-43399D01*
X-42399Y42870D01*
D15*
X-3400Y32500D02*
D03*
Y27500D02*
D03*
Y37500D02*
D03*
X107800Y32500D02*
D03*
Y27500D02*
D03*
Y37500D02*
D03*
D16*
X-3400Y42500D02*
D03*
X107800D02*
D03*
D17*
X84145Y-10932D02*
D03*
X76271D02*
D03*
X68397D02*
D03*
X60523D02*
D03*
X52649D02*
D03*
X44775D02*
D03*
X36901D02*
D03*
X29027D02*
D03*
X21153D02*
D03*
X29027Y79620D02*
D03*
X36901D02*
D03*
X44775D02*
D03*
X52649D02*
D03*
X60523D02*
D03*
X68397D02*
D03*
X76271D02*
D03*
X84145D02*
D03*
D18*
X21153Y1547D02*
D03*
X13300Y1700D02*
D03*
X76400Y71600D02*
D03*
X84100Y71300D02*
D03*
X84200Y0D02*
D03*
X76100Y-2700D02*
D03*
X68200Y-3000D02*
D03*
X60500Y-1500D02*
D03*
X52600Y-2000D02*
D03*
X44600Y0D02*
D03*
X36700D02*
D03*
X28900Y1200D02*
D03*
X98400Y45400D02*
D03*
X28900Y70500D02*
D03*
X37000D02*
D03*
X44800Y70300D02*
D03*
X52800Y70600D02*
D03*
X60400Y70900D02*
D03*
X68500Y71100D02*
D03*
D19*
X72475Y23425D02*
D03*
M02*
