  0
SECTION
  2
HEADER
  9
$ACADVER
  1
AC1015
  9
$ACADMAINTVER
 70
     6
  9
$DWGCODEPAGE
  3
ANSI_1252
  9
$INSBASE
 10
0.0
 20
0.0
 30
0.0
  9
$EXTMIN
 10
0.0
 20
0.0
 30
0.0
  9
$EXTMAX
 10
145.771896
 20
128.758499
 30
2.0
  9
$LIMMIN
 10
0.0
 20
0.0
  9
$LIMMAX
 10
420.0
 20
297.0
  9
$ORTHOMODE
 70
     0
  9
$REGENMODE
 70
     1
  9
$FILLMODE
 70
     1
  9
$QTEXTMODE
 70
     0
  9
$MIRRTEXT
 70
     1
  9
$LTSCALE
 40
1.0
  9
$ATTMODE
 70
     1
  9
$TEXTSIZE
 40
2.5
  9
$TRACEWID
 40
1.0
  9
$TEXTSTYLE
  7
Standard
  9
$CLAYER
  8
0
  9
$CELTYPE
  6
ByLayer
  9
$CECOLOR
 62
   256
  9
$CELTSCALE
 40
1.0
  9
$DISPSILH
 70
     0
  9
$DIMSCALE
 40
1.0
  9
$DIMASZ
 40
2.5
  9
$DIMEXO
 40
0.625
  9
$DIMDLI
 40
3.75
  9
$DIMRND
 40
0.0
  9
$DIMDLE
 40
0.0
  9
$DIMEXE
 40
1.25
  9
$DIMTP
 40
0.0
  9
$DIMTM
 40
0.0
  9
$DIMTXT
 40
2.5
  9
$DIMCEN
 40
2.5
  9
$DIMTSZ
 40
0.0
  9
$DIMTOL
 70
     0
  9
$DIMLIM
 70
     0
  9
$DIMTIH
 70
     0
  9
$DIMTOH
 70
     0
  9
$DIMSE1
 70
     0
  9
$DIMSE2
 70
     0
  9
$DIMTAD
 70
     1
  9
$DIMZIN
 70
     8
  9
$DIMBLK
  1

  9
$DIMASO
 70
     1
  9
$DIMSHO
 70
     1
  9
$DIMPOST
  1

  9
$DIMAPOST
  1

  9
$DIMALT
 70
     0
  9
$DIMALTD
 70
     3
  9
$DIMALTF
 40
0.03937
  9
$DIMLFAC
 40
1.0
  9
$DIMTOFL
 70
     1
  9
$DIMTVP
 40
0.0
  9
$DIMTIX
 70
     0
  9
$DIMSOXD
 70
     0
  9
$DIMSAH
 70
     0
  9
$DIMBLK1
  1

  9
$DIMBLK2
  1

  9
$DIMSTYLE
  2

  9
$DIMCLRD
 70
     0
  9
$DIMCLRE
 70
     0
  9
$DIMCLRT
 70
     0
  9
$DIMTFAC
 40
1.0
  9
$DIMGAP
 40
0.625
  9
$DIMJUST
 70
     0
  9
$DIMSD1
 70
     0
  9
$DIMSD2
 70
     0
  9
$DIMTOLJ
 70
     0
  9
$DIMTZIN
 70
     8
  9
$DIMALTZ
 70
     0
  9
$DIMALTTZ
 70
     0
  9
$DIMUPT
 70
     0
  9
$DIMDEC
 70
     2
  9
$DIMTDEC
 70
     2
  9
$DIMALTU
 70
     2
  9
$DIMALTTD
 70
     3
  9
$DIMTXSTY
  7
Standard
  9
$DIMAUNIT
 70
     0
  9
$DIMADEC
 70
     0
  9
$DIMALTRND
 40
0.0
  9
$DIMAZIN
 70
     0
  9
$DIMDSEP
 70
    44
  9
$DIMATFIT
 70
     0
  9
$DIMFRAC
 70
     0
  9
$DIMLDRBLK
  1

  9
$DIMLUNIT
 70
     2
  9
$DIMLWD
 70
    -2
  9
$DIMLWE
 70
    -2
  9
$DIMTMOVE
 70
     0
  9
$LUNITS
 70
     2
  9
$LUPREC
 70
     4
  9
$SKETCHINC
 40
1.0
  9
$FILLETRAD
 40
2.5
  9
$AUNITS
 70
     0
  9
$AUPREC
 70
     0
  9
$MENU
  1
.
  9
$ELEVATION
 40
0.0
  9
$PELEVATION
 40
0.0
  9
$THICKNESS
 40
0.0
  9
$LIMCHECK
 70
     0
  9
$CHAMFERA
 40
2.5
  9
$CHAMFERB
 40
2.5
  9
$CHAMFERC
 40
0.0
  9
$CHAMFERD
 40
0.0
  9
$SKPOLY
 70
     0
  9
$TDCREATE
 40
0.000000000
  9
$TDUCREATE
 40
0.000000000
  9
$TDUPDATE
 40
0.000000000
  9
$TDUUPDATE
 40
0.000000000
  9
$TDINDWG
 40
0.0000000000
  9
$TDUSRTIMER
 40
0.0000000000
  9
$USRTIMER
 70
     1
  9
$ANGBASE
 50
0.0
  9
$ANGDIR
 70
     0
  9
$PDMODE
 70
     0
  9
$PDSIZE
 40
0.0
  9
$PLINEWID
 40
0.0
  9
$SPLFRAME
 70
     0
  9
$SPLINETYPE
 70
     6
  9
$SPLINESEGS
 70
     8
  9
$HANDSEED
  5
2B4
  9
$SURFTAB1
 70
     6
  9
$SURFTAB2
 70
     6
  9
$SURFTYPE
 70
     6
  9
$SURFU
 70
     6
  9
$SURFV
 70
     6
  9
$UCSBASE
  2

  9
$UCSNAME
  2

  9
$UCSORG
 10
0.0
 20
0.0
 30
0.0
  9
$UCSXDIR
 10
1.0
 20
0.0
 30
0.0
  9
$UCSYDIR
 10
0.0
 20
1.0
 30
0.0
  9
$UCSORTHOREF
  2

  9
$UCSORTHOVIEW
 70
     1
  9
$UCSORGTOP
 10
0.0
 20
0.0
 30
0.0
  9
$UCSORGBOTTOM
 10
0.0
 20
0.0
 30
0.0
  9
$UCSORGLEFT
 10
0.0
 20
0.0
 30
0.0
  9
$UCSORGRIGHT
 10
0.0
 20
0.0
 30
0.0
  9
$UCSORGFRONT
 10
0.0
 20
0.0
 30
0.0
  9
$UCSORGBACK
 10
0.0
 20
0.0
 30
0.0
  9
$PUCSBASE
  2

  9
$PUCSNAME
  2

  9
$PUCSORG
 10
0.0
 20
0.0
 30
0.0
  9
$PUCSXDIR
 10
1.0
 20
0.0
 30
0.0
  9
$PUCSYDIR
 10
0.0
 20
1.0
 30
0.0
  9
$PUCSORTHOREF
  2

  9
$PUCSORTHOVIEW
 70
     0
  9
$PUCSORGTOP
 10
0.0
 20
0.0
 30
0.0
  9
$PUCSORGBOTTOM
 10
0.0
 20
0.0
 30
0.0
  9
$PUCSORGLEFT
 10
0.0
 20
0.0
 30
0.0
  9
$PUCSORGRIGHT
 10
0.0
 20
0.0
 30
0.0
  9
$PUCSORGFRONT
 10
0.0
 20
0.0
 30
0.0
  9
$PUCSORGBACK
 10
0.0
 20
0.0
 30
0.0
  9
$USERI1
 70
     0
  9
$USERI2
 70
     0
  9
$USERI3
 70
     0
  9
$USERI4
 70
     0
  9
$USERI5
 70
     0
  9
$USERR1
 40
0.0
  9
$USERR2
 40
0.0
  9
$USERR3
 40
0.0
  9
$USERR4
 40
0.0
  9
$USERR5
 40
0.0
  9
$WORLDVIEW
 70
     1
  9
$SHADEDGE
 70
     3
  9
$SHADEDIF
 70
    70
  9
$TILEMODE
 70
     1
  9
$MAXACTVP
 70
    48
  9
$PINSBASE
 10
0.0
 20
0.0
 30
0.0
  9
$PLIMCHECK
 70
     0
  9
$PEXTMIN
 10
0.0
 20
0.0
 30
0.0
  9
$PEXTMAX
 10
145.771896
 20
128.758499
 30
2.0
  9
$PLIMMIN
 10
0.0
 20
0.0
  9
$PLIMMAX
 10
420.0
 20
297.0
  9
$UNITMODE
 70
     0
  9
$VISRETAIN
 70
     0
  9
$PLINEGEN
 70
     0
  9
$PSLTSCALE
 70
     1
  9
$TREEDEPTH
 70
  3020
  9
$CMLSTYLE
  2
Standard
  9
$CMLJUST
 70
     0
  9
$CMLSCALE
 40
20.0
  9
$PROXYGRAPHICS
 70
     1
  9
$MEASUREMENT
 70
     1
  9
$CELWEIGHT
370
    -1
  9
$ENDCAPS
280
     0
  9
$JOINSTYLE
280
     0
  9
$LWDISPLAY
290
     0
  9
$INSUNITS
 70
     0
  9
$HYPERLINKBASE
  1

  9
$STYLESHEET
  1

  9
$XEDIT
290
     1
  9
$CEPSNTYPE
380
     0
  9
$PSTYLEMODE
290
     0
  9
$FINGERPRINTGUID
  2

  9
$VERSIONGUID
  2

  9
$EXTNAMES
290
     0
  9
$PSVPSCALE
 40
0.0
  0
ENDSEC
  0
SECTION
  2
CLASSES
  0
CLASS
  1
LWPOLYLINE
  2
AcDbPolyline
  3
AutoCAD 2000
 90
        0
280
     0
281
     1
  0
CLASS
  1
IMAGE
  2
AcDbRasterImage
  3
ISM
 90
      127
280
     0
281
     1
  0
CLASS
  1
OLE2FRAME
  2
AcDbOle2Frame
  3
AutoCAD 2000
 90
        0
280
     0
281
     1
  0
CLASS
  1
HATCH
  2
AcDbHatch
  3
AutoCAD 2000
 90
        0
280
     0
281
     1
  0
CLASS
  1
DICTIONARYVAR
  2
AcDbDictionaryVar
  3
AutoCAD 2000
 90
        0
280
     0
281
     0
  0
CLASS
  1
RASTERVARIABLES
  2
AcDbRasterVariables
  3
ISM
 90
        0
280
     0
281
     0
  0
CLASS
  1
IMAGEDEF
  2
AcDbRasterImageDef
  3
ISM
 90
        0
280
     0
281
     0
  0
CLASS
  1
IMAGEDEF_REACTOR
  2
AcDbRasterImageDefReactor
  3
ISM
 90
        1
280
     0
281
     0
  0
CLASS
  1
IDBUFFER
  2
AcDbIdBuffer
  3
AutoCAD 2000
 90
        0
280
     0
281
     0
  0
CLASS
  1
SPATIAL_FILTER
  2
AcDbSpatialFilter
  3
AutoCAD 2000
 90
        0
280
     0
281
     0
  0
CLASS
  1
XRECORD
  2
AcDbXrecord
  3
AutoCAD 2000
 90
        0
280
     0
281
     0
  0
CLASS
  1
SORTENTSTABLE
  2
AcDbSortentsTable
  3
AutoCAD 2000
 90
        0
280
     0
281
     0
  0
CLASS
  1
LAYER_INDEX
  2
AcDbLayerIndex
  3
AutoCAD 2000
 90
        0
280
     0
281
     0
  0
CLASS
  1
SPATIAL_INDEX
  2
AcDbSpatialIndex
  3
AutoCAD 2000
 90
        0
280
     0
281
     0
  0
CLASS
  1
OBJECT_PTR
  2
CAseDLPNTableRecord
  3
"ASE-LPNTableRecord"
 90
        1
280
     0
281
     0
  0
CLASS
  1
LAYOUT
  2
AcDbLayout
  3
AutoCAD 2000
 90
        0
280
     0
281
     0
  0
CLASS
  1
PLOTSETTINGS
  2
AcDbPlotSettings
  3
AutoCAD 2000
 90
        0
280
     0
281
     0
  0
CLASS
  1
ACDBDICTIONARYWDFLT
  2
AcDbDictionaryWithDefault
  3
AutoCAD 2000
 90
        0
280
     0
281
     0
  0
CLASS
  1
ACDBPLACEHOLDER
  2
AcDbPlaceHolder
  3
AutoCAD 2000
 90
        0
280
     0
281
     0
  0
CLASS
  1
VBA_PROJECT
  2
AcDbVbaProject
  3
acadvba
 90
        0
280
     0
281
     0
  0
CLASS
  1
WIPEOUT
  2
AcDbWipeout
  3
WipeOut|AutoCAD Express Tool|expresstools@autodesk.com
 90
      127
280
     0
281
     1
  0
CLASS
  1
WIPEOUTVARIABLES
  2
AcDbWipeoutVariables
  3
WipeOut|AutoCAD Express Tool|expresstools@autodesk.com
 90
        0
280
     0
281
     0
  0
CLASS
  1
RTEXT
  2
RText
  3
RText|AutoCAD Express Tool|expresstools@autodesk.com
 90
        0
280
     0
281
     1
  0
CLASS
  1
ARCALIGNEDTEXT
  2
AcDbArcAlignedText
  3
ATEXT|AutoCAD Express Tool|expresstools@autodesk.com
 90
        0
280
     0
281
     1
  0
ENDSEC
  0
SECTION
  2
TABLES
  0
TABLE
  2
VPORT
  5
7
100
AcDbSymbolTable
 70
     1
  0
VPORT
  5
15
100
AcDbSymbolTableRecord
100
AcDbViewportTableRecord
  2
*ACTIVE
 70
     0
 10
0.0
 20
0.0
 11
1.0
 21
1.0
 12
6.591288
 22
4.579184
 13
0.0
 23
0.0
 14
1.0
 24
1.0
 15
0.0
 25
0.0
 16
0.0
 26
0.0
 36
1.0
 17
0.0
 27
0.0
 37
0.0
 40
9.158369
 41
0.688564
 42
50.0
 43
0.0
 44
0.0
 50
0.0
 51
0.0
 71
     0
 72
   100
 73
     1
 74
     1
 75
     0
 76
     0
 77
     0
 78
     0
281
     0
 65
     0
110
0.0
120
0.0
130
0.0
111
1.0
121
0.0
131
0.0
112
0.0
122
1.0
132
0.0
345
0
346
0
 79
     0
146
0.0
  0
ENDTAB
  0
TABLE
  2
LTYPE
  5
4
100
AcDbSymbolTable
 70
     3
  0
LTYPE
  5
11
100
AcDbSymbolTableRecord
100
AcDbLinetypeTableRecord
  2
ByBlock
 70
    64
  3

 72
    65
 73
     0
 40
0.0
  0
LTYPE
  5
12
100
AcDbSymbolTableRecord
100
AcDbLinetypeTableRecord
  2
ByLayer
 70
    64
  3

 72
    65
 73
     0
 40
0.0
  0
LTYPE
  5
13
100
AcDbSymbolTableRecord
100
AcDbLinetypeTableRecord
  2
Continuous
 70
    64
  3
Solid line
 72
    65
 73
     0
 40
0.0
  0
ENDTAB
  0
TABLE
  2
LAYER
  5
2
100
AcDbSymbolTable
 70
     1
  0
LAYER
  5
14
100
AcDbSymbolTableRecord
100
AcDbLayerTableRecord
  2
0
 70
     0
 62
     7
  6
Continuous
290
     1
370
    -3
390
1D
  0
ENDTAB
  0
TABLE
  2
STYLE
  5
3
100
AcDbSymbolTable
 70
     1
  0
STYLE
  5
17
100
AcDbSymbolTableRecord
100
AcDbTextStyleTableRecord
  2
Standard
 70
     0
 40
0.0
 41
1.0
 50
0.0
 71
     0
 42
0.0
  3
txt
  4

  0
ENDTAB
  0
TABLE
  2
VIEW
  5
5
100
AcDbSymbolTable
 70
     0
  0
ENDTAB
  0
TABLE
  2
UCS
  5
6
100
AcDbSymbolTable
 70
     0
  0
ENDTAB
  0
TABLE
  2
APPID
  5
8
100
AcDbSymbolTable
 70
     1
  0
APPID
  5
16
100
AcDbSymbolTableRecord
100
AcDbRegAppTableRecord
  2
ACAD
 70
     0
  0
ENDTAB
  0
TABLE
  2
DIMSTYLE
  5
9
100
AcDbSymbolTable
 70
     1
100
AcDbDimStyleTable
 71
     0
  0
DIMSTYLE
105
18
100
AcDbSymbolTableRecord
100
AcDbDimStyleTableRecord
  2
Standard
 70
     0
  3

  4

 40
1.0
 41
0.18
 42
0.0625
 43
0.38
 44
0.18
 45
0.0
 46
0.0
 47
0.0
 48
0.0
 71
     0
 72
     0
 73
     1
 74
     1
 75
     0
 76
     0
 77
     0
 78
     0
 79
     0
140
0.18
141
0.09
142
0.0
143
25.4
144
1.0
145
0.0
146
1.0
147
0.09
148
0.0
170
     0
171
     2
172
     0
173
     0
174
     0
175
     0
176
     0
177
     0
178
     0
179
     0
271
     4
272
     4
273
     2
274
     2
275
     0
276
     0
277
     2
278
    46
279
     0
280
     0
281
     0
282
     0
283
     1
284
     0
285
     0
286
     0
288
     0
289
     3
340
17
341
0
342
0
343
0
344
0
371
    -2
372
    -2
  0
ENDTAB
  0
TABLE
  2
BLOCK_RECORD
  5
1
100
AcDbSymbolTable
 70
     0
  0
BLOCK_RECORD
  5
A
100
AcDbSymbolTableRecord
100
AcDbBlockTableRecord
  2
*MODEL_SPACE
340
20
  0
BLOCK_RECORD
  5
B
100
AcDbSymbolTableRecord
100
AcDbBlockTableRecord
  2
*PAPER_SPACE
340
21
  0
ENDTAB
  0
ENDSEC
  0
SECTION
  2
BLOCKS
  0
BLOCK
  5
D
100
AcDbEntity
  8
0
390
0
100
AcDbBlockBegin
  2
*MODEL_SPACE
 70
     0
 10
0.0
 20
0.0
 30
0.0
  3
*MODEL_SPACE
  1

  0
ENDBLK
  5
E
100
AcDbEntity
  8
0
390
0
100
AcDbBlockEnd
  0
BLOCK
  5
F
100
AcDbEntity
 67
     1
  8
0
390
0
100
AcDbBlockBegin
  2
*PAPER_SPACE
 70
     0
 10
0.0
 20
0.0
 30
0.0
  3
*PAPER_SPACE
  1

  0
ENDBLK
  5
10
100
AcDbEntity
 67
     1
  8
0
390
0
100
AcDbBlockEnd
  0
ENDSEC
  0
SECTION
  2
ENTITIES
  0
VIEWPORT
  5
2B3
100
AcDbEntity
 67
     1
  8
0
370
     0
390
0
 62
     0
 48
0.0
100
AcDbViewport
 10
0.0
 20
0.0
 30
0.0
 40
1000.0
 41
1000.0
 68
     1
 69
     1
 12
0.0
 22
0.0
 13
0.0
 23
0.0
 14
1.0
 24
1.0
 15
1.0
 25
1.0
 16
0.0
 26
0.0
 36
1.0
 17
0.0
 27
0.0
 37
0.0
 42
50.0
 43
0.0
 44
0.0
 45
1000.0
 50
0.0
 51
0.0
 72
   100
 90
        0
340
0
  1

281
     0
 71
     0
 74
     1
110
0.0
120
0.0
130
0.0
111
1.0
121
0.0
131
0.0
112
0.0
122
1.0
132
0.0
345
0
346
0
 79
     0
146
0.0
  0
POLYLINE
  5
24
100
AcDbEntity
  8
0
370
    13
390
0
 62
     7
100
AcDb2dPolyline
 66
     1
 10
0.0
 20
0.0
 30
0.0
 71
    12
  0
VERTEX
  5
25
100
AcDbEntity
  8
0
370
     0
390
0
100
AcDbVertex
100
AcDb2dVertex
 10
100.628601
 20
71.813522
 30
0.0
  0
VERTEX
  5
26
100
AcDbEntity
  8
0
370
     0
390
0
100
AcDbVertex
100
AcDb2dVertex
 10
100.7686
 20
71.428513
 30
0.0
  0
VERTEX
  5
27
100
AcDbEntity
  8
0
370
     0
390
0
100
AcDbVertex
100
AcDb2dVertex
 10
101.083595
 20
71.183517
 30
0.0
  0
VERTEX
  5
28
100
AcDbEntity
  8
0
370
     0
390
0
100
AcDbVertex
100
AcDb2dVertex
 10
101.503601
 20
71.183517
 30
0.0
  0
VERTEX
  5
29
100
AcDbEntity
  8
0
370
     0
390
0
100
AcDbVertex
100
AcDb2dVertex
 10
101.923599
 20
71.603516
 30
0.0
  0
VERTEX
  5
2A
100
AcDbEntity
  8
0
370
     0
390
0
100
AcDbVertex
100
AcDb2dVertex
 10
102.063599
 20
72.023514
 30
0.0
  0
VERTEX
  5
2B
100
AcDbEntity
  8
0
370
     0
390
0
100
AcDbVertex
100
AcDb2dVertex
 10
102.063599
 20
72.478516
 30
0.0
  0
VERTEX
  5
2C
100
AcDbEntity
  8
0
370
     0
390
0
100
AcDbVertex
100
AcDb2dVertex
 10
101.8536
 20
72.86351
 30
0.0
  0
VERTEX
  5
2D
100
AcDbEntity
  8
0
370
     0
390
0
100
AcDbVertex
100
AcDb2dVertex
 10
101.468597
 20
73.00351
 30
0.0
  0
VERTEX
  5
2E
100
AcDbEntity
  8
0
370
     0
390
0
100
AcDbVertex
100
AcDb2dVertex
 10
101.083595
 20
72.933517
 30
0.0
  0
VERTEX
  5
2F
100
AcDbEntity
  8
0
370
     0
390
0
100
AcDbVertex
100
AcDb2dVertex
 10
100.8386
 20
72.723511
 30
0.0
  0
VERTEX
  5
30
100
AcDbEntity
  8
0
370
     0
390
0
100
AcDbVertex
100
AcDb2dVertex
 10
100.9786
 20
73.983521
 30
0.0
  0
SEQEND
  5
31
100
AcDbEntity
  8
0
370
     0
390
0
  0
POLYLINE
  5
32
100
AcDbEntity
  8
0
370
    13
390
0
 62
     7
100
AcDb2dPolyline
 66
     1
 10
0.0
 20
0.0
 30
0.0
 71
     2
  0
VERTEX
  5
33
100
AcDbEntity
  8
0
370
     0
390
0
100
AcDbVertex
100
AcDb2dVertex
 10
100.9786
 20
73.843521
 30
0.0
  0
VERTEX
  5
34
100
AcDbEntity
  8
0
370
     0
390
0
100
AcDbVertex
100
AcDb2dVertex
 10
102.133598
 20
73.843521
 30
0.0
  0
SEQEND
  5
35
100
AcDbEntity
  8
0
370
     0
390
0
  0
POLYLINE
  5
36
100
AcDbEntity
  8
0
370
    13
390
0
 62
     7
100
AcDb2dPolyline
 66
     1
 10
0.0
 20
0.0
 30
0.0
 70
     1
 71
     8
  0
VERTEX
  5
37
100
AcDbEntity
  8
0
370
     0
390
0
100
AcDbVertex
100
AcDb2dVertex
 10
103.043594
 20
71.323517
 30
0.0
  0
VERTEX
  5
38
100
AcDbEntity
  8
0
370
     0
390
0
100
AcDbVertex
100
AcDb2dVertex
 10
103.323593
 20
71.323517
 30
0.0
  0
VERTEX
  5
39
100
AcDbEntity
  8
0
370
     0
390
0
100
AcDbVertex
100
AcDb2dVertex
 10
103.533592
 20
71.533508
 30
0.0
  0
VERTEX
  5
3A
100
AcDbEntity
  8
0
370
     0
390
0
100
AcDbVertex
100
AcDb2dVertex
 10
103.533592
 20
71.813522
 30
0.0
  0
VERTEX
  5
3B
100
AcDbEntity
  8
0
370
     0
390
0
100
AcDbVertex
100
AcDb2dVertex
 10
103.323593
 20
72.023514
 30
0.0
  0
VERTEX
  5
3C
100
AcDbEntity
  8
0
370
     0
390
0
100
AcDbVertex
100
AcDb2dVertex
 10
103.043594
 20
72.023514
 30
0.0
  0
VERTEX
  5
3D
100
AcDbEntity
  8
0
370
     0
390
0
100
AcDbVertex
100
AcDb2dVertex
 10
102.833595
 20
71.813522
 30
0.0
  0
VERTEX
  5
3E
100
AcDbEntity
  8
0
370
     0
390
0
100
AcDbVertex
100
AcDb2dVertex
 10
102.833595
 20
71.533508
 30
0.0
  0
SEQEND
  5
3F
100
AcDbEntity
  8
0
370
     0
390
0
  0
POLYLINE
  5
40
100
AcDbEntity
  8
0
370
    13
390
0
 62
     7
100
AcDb2dPolyline
 66
     1
 10
0.0
 20
0.0
 30
0.0
 71
     2
  0
VERTEX
  5
41
100
AcDbEntity
  8
0
370
     0
390
0
100
AcDbVertex
100
AcDb2dVertex
 10
102.903595
 20
71.883514
 30
0.0
  0
VERTEX
  5
42
100
AcDbEntity
  8
0
370
     0
390
0
100
AcDbVertex
100
AcDb2dVertex
 10
103.463593
 20
71.883514
 30
0.0
  0
SEQEND
  5
43
100
AcDbEntity
  8
0
370
     0
390
0
  0
POLYLINE
  5
44
100
AcDbEntity
  8
0
370
    13
390
0
 62
     7
100
AcDb2dPolyline
 66
     1
 10
0.0
 20
0.0
 30
0.0
 71
     2
  0
VERTEX
  5
45
100
AcDbEntity
  8
0
370
     0
390
0
100
AcDbVertex
100
AcDb2dVertex
 10
103.533592
 20
71.673508
 30
0.0
  0
VERTEX
  5
46
100
AcDbEntity
  8
0
370
     0
390
0
100
AcDbVertex
100
AcDb2dVertex
 10
102.833595
 20
71.673508
 30
0.0
  0
SEQEND
  5
47
100
AcDbEntity
  8
0
370
     0
390
0
  0
POLYLINE
  5
48
100
AcDbEntity
  8
0
370
    13
390
0
 62
     7
100
AcDb2dPolyline
 66
     1
 10
0.0
 20
0.0
 30
0.0
 71
     2
  0
VERTEX
  5
49
100
AcDbEntity
  8
0
370
     0
390
0
100
AcDbVertex
100
AcDb2dVertex
 10
102.903595
 20
71.463516
 30
0.0
  0
VERTEX
  5
4A
100
AcDbEntity
  8
0
370
     0
390
0
100
AcDbVertex
100
AcDb2dVertex
 10
103.463593
 20
71.463516
 30
0.0
  0
SEQEND
  5
4B
100
AcDbEntity
  8
0
370
     0
390
0
  0
POLYLINE
  5
4C
100
AcDbEntity
  8
0
370
    13
390
0
 62
     7
100
AcDb2dPolyline
 66
     1
 10
0.0
 20
0.0
 30
0.0
 71
     5
  0
VERTEX
  5
4D
100
AcDbEntity
  8
0
370
     0
390
0
100
AcDbVertex
100
AcDb2dVertex
 10
105.458595
 20
71.183517
 30
0.0
  0
VERTEX
  5
4E
100
AcDbEntity
  8
0
370
     0
390
0
100
AcDbVertex
100
AcDb2dVertex
 10
105.598595
 20
72.758514
 30
0.0
  0
VERTEX
  5
4F
100
AcDbEntity
  8
0
370
     0
390
0
100
AcDbVertex
100
AcDb2dVertex
 10
105.70359
 20
73.983521
 30
0.0
  0
VERTEX
  5
50
100
AcDbEntity
  8
0
370
     0
390
0
100
AcDbVertex
100
AcDb2dVertex
 10
104.233589
 20
71.953522
 30
0.0
  0
VERTEX
  5
51
100
AcDbEntity
  8
0
370
     0
390
0
100
AcDbVertex
100
AcDb2dVertex
 10
105.983589
 20
71.953522
 30
0.0
  0
SEQEND
  5
52
100
AcDbEntity
  8
0
370
     0
390
0
  0
POLYLINE
  5
53
100
AcDbEntity
  8
0
370
    13
390
0
 62
     7
100
AcDb2dPolyline
 66
     1
 10
0.0
 20
0.0
 30
0.0
 71
     3
  0
VERTEX
  5
54
100
AcDbEntity
  8
0
370
     0
390
0
100
AcDbVertex
100
AcDb2dVertex
 10
106.893593
 20
73.983521
 30
0.0
  0
VERTEX
  5
55
100
AcDbEntity
  8
0
370
     0
390
0
100
AcDbVertex
100
AcDb2dVertex
 10
106.788597
 20
72.583511
 30
0.0
  0
VERTEX
  5
56
100
AcDbEntity
  8
0
370
     0
390
0
100
AcDbVertex
100
AcDb2dVertex
 10
106.683594
 20
71.183517
 30
0.0
  0
SEQEND
  5
57
100
AcDbEntity
  8
0
370
     0
390
0
  0
LINE
  5
58
100
AcDbEntity
  8
0
370
    13
390
0
 62
     7
 48
0.092907
100
AcDbLine
 10
90.218399
 20
70.549805
 30
0.0
 11
90.218399
 21
66.833511
 31
0.0
210
0.0
220
0.0
230
1.0
  0
LINE
  5
59
100
AcDbEntity
  8
0
370
    13
390
0
 62
     7
 48
0.092907
100
AcDbLine
 10
95.628601
 20
70.549805
 30
0.0
 11
95.628601
 21
66.833511
 31
0.0
210
0.0
220
0.0
230
1.0
  0
POLYLINE
  5
5A
100
AcDbEntity
  8
0
370
    13
390
0
 62
     7
100
AcDb2dPolyline
 66
     1
 10
0.0
 20
0.0
 30
0.0
 71
     3
  0
VERTEX
  5
5B
100
AcDbEntity
  8
0
370
     0
390
0
100
AcDbVertex
100
AcDb2dVertex
 10
88.286545
 20
68.315872
 30
0.0
  0
VERTEX
  5
5C
100
AcDbEntity
  8
0
370
     0
390
0
100
AcDbVertex
100
AcDb2dVertex
 10
90.218399
 20
68.833511
 30
0.0
  0
VERTEX
  5
5D
100
AcDbEntity
  8
0
370
     0
390
0
100
AcDbVertex
100
AcDb2dVertex
 10
88.286545
 20
69.351151
 30
0.0
  0
SEQEND
  5
5E
100
AcDbEntity
  8
0
370
     0
390
0
  0
POLYLINE
  5
5F
100
AcDbEntity
  8
0
370
    13
390
0
 62
     7
100
AcDb2dPolyline
 66
     1
 10
0.0
 20
0.0
 30
0.0
 71
     3
  0
VERTEX
  5
60
100
AcDbEntity
  8
0
370
     0
390
0
100
AcDbVertex
100
AcDb2dVertex
 10
97.560448
 20
69.351151
 30
0.0
  0
VERTEX
  5
61
100
AcDbEntity
  8
0
370
     0
390
0
100
AcDbVertex
100
AcDb2dVertex
 10
95.628601
 20
68.833511
 30
0.0
  0
VERTEX
  5
62
100
AcDbEntity
  8
0
370
     0
390
0
100
AcDbVertex
100
AcDb2dVertex
 10
97.560448
 20
68.315872
 30
0.0
  0
SEQEND
  5
63
100
AcDbEntity
  8
0
370
     0
390
0
  0
LINE
  5
64
100
AcDbEntity
  8
0
370
    13
390
0
 62
     7
100
AcDbLine
 10
85.218399
 20
68.833511
 30
0.0
 11
106.8936
 21
68.833511
 31
0.0
210
0.0
220
0.0
230
1.0
  0
POLYLINE
  5
65
100
AcDbEntity
  8
0
370
    13
390
0
 62
     5
100
AcDb2dPolyline
 66
     1
 10
0.0
 20
0.0
 30
0.0
 71
     3
  0
VERTEX
  5
66
100
AcDbEntity
  8
0
370
     0
390
0
100
AcDbVertex
100
AcDb2dVertex
 10
76.645279
 20
64.429794
 30
0.0
  0
VERTEX
  5
67
100
AcDbEntity
  8
0
370
     0
390
0
100
AcDbVertex
100
AcDb2dVertex
 10
78.04528
 20
64.324799
 30
0.0
  0
VERTEX
  5
68
100
AcDbEntity
  8
0
370
     0
390
0
100
AcDbVertex
100
AcDb2dVertex
 10
79.445282
 20
64.219803
 30
0.0
  0
SEQEND
  5
69
100
AcDbEntity
  8
0
370
     0
390
0
  0
POLYLINE
  5
6A
100
AcDbEntity
  8
0
370
    13
390
0
 62
     5
100
AcDb2dPolyline
 66
     1
 10
0.0
 20
0.0
 30
0.0
 71
     5
  0
VERTEX
  5
6B
100
AcDbEntity
  8
0
370
     0
390
0
100
AcDbVertex
100
AcDb2dVertex
 10
79.445282
 20
66.354797
 30
0.0
  0
VERTEX
  5
6C
100
AcDbEntity
  8
0
370
     0
390
0
100
AcDbVertex
100
AcDb2dVertex
 10
77.870285
 20
66.494797
 30
0.0
  0
VERTEX
  5
6D
100
AcDbEntity
  8
0
370
     0
390
0
100
AcDbVertex
100
AcDb2dVertex
 10
76.645279
 20
66.599792
 30
0.0
  0
VERTEX
  5
6E
100
AcDbEntity
  8
0
370
     0
390
0
100
AcDbVertex
100
AcDb2dVertex
 10
78.675278
 20
65.129791
 30
0.0
  0
VERTEX
  5
6F
100
AcDbEntity
  8
0
370
     0
390
0
100
AcDbVertex
100
AcDb2dVertex
 10
78.675278
 20
66.879791
 30
0.0
  0
SEQEND
  5
70
100
AcDbEntity
  8
0
370
     0
390
0
  0
LINE
  5
71
100
AcDbEntity
  8
0
370
    13
390
0
 62
     5
 48
0.210578
100
AcDbLine
 10
88.218399
 20
58.549801
 30
0.0
 11
79.79528
 21
58.549801
 31
0.0
210
0.0
220
0.0
230
1.0
  0
LINE
  5
72
100
AcDbEntity
  8
0
370
    13
390
0
 62
     5
 48
0.210578
100
AcDbLine
 10
88.218399
 20
72.549805
 30
0.0
 11
79.79528
 21
72.549805
 31
0.0
210
0.0
220
0.0
230
1.0
  0
POLYLINE
  5
73
100
AcDbEntity
  8
0
370
    13
390
0
 62
     5
100
AcDb2dPolyline
 66
     1
 10
0.0
 20
0.0
 30
0.0
 71
     3
  0
VERTEX
  5
74
100
AcDbEntity
  8
0
370
     0
390
0
100
AcDbVertex
100
AcDb2dVertex
 10
81.277641
 20
60.481647
 30
0.0
  0
VERTEX
  5
75
100
AcDbEntity
  8
0
370
     0
390
0
100
AcDbVertex
100
AcDb2dVertex
 10
81.79528
 20
58.549801
 30
0.0
  0
VERTEX
  5
76
100
AcDbEntity
  8
0
370
     0
390
0
100
AcDbVertex
100
AcDb2dVertex
 10
82.31292
 20
60.481647
 30
0.0
  0
SEQEND
  5
77
100
AcDbEntity
  8
0
370
     0
390
0
  0
POLYLINE
  5
78
100
AcDbEntity
  8
0
370
    13
390
0
 62
     5
100
AcDb2dPolyline
 66
     1
 10
0.0
 20
0.0
 30
0.0
 71
     3
  0
VERTEX
  5
79
100
AcDbEntity
  8
0
370
     0
390
0
100
AcDbVertex
100
AcDb2dVertex
 10
82.31292
 20
70.61795
 30
0.0
  0
VERTEX
  5
7A
100
AcDbEntity
  8
0
370
     0
390
0
100
AcDbVertex
100
AcDb2dVertex
 10
81.79528
 20
72.549805
 30
0.0
  0
VERTEX
  5
7B
100
AcDbEntity
  8
0
370
     0
390
0
100
AcDbVertex
100
AcDb2dVertex
 10
81.277641
 20
70.61795
 30
0.0
  0
SEQEND
  5
7C
100
AcDbEntity
  8
0
370
     0
390
0
  0
LINE
  5
7D
100
AcDbEntity
  8
0
370
    13
390
0
 62
     5
 48
0.35
100
AcDbLine
 10
81.79528
 20
58.549801
 30
0.0
 11
81.79528
 21
72.549805
 31
0.0
210
0.0
220
0.0
230
1.0
  0
POLYLINE
  5
7E
100
AcDbEntity
  8
0
370
    13
390
0
 62
     5
100
AcDb2dPolyline
 66
     1
 10
0.0
 20
0.0
 30
0.0
 70
     1
 71
     9
  0
VERTEX
  5
7F
100
AcDbEntity
  8
0
370
     0
390
0
100
AcDbVertex
100
AcDb2dVertex
 10
115.325073
 20
74.602692
 30
0.0
  0
VERTEX
  5
80
100
AcDbEntity
  8
0
370
     0
390
0
100
AcDbVertex
100
AcDb2dVertex
 10
115.29007
 20
75.232697
 30
0.0
  0
VERTEX
  5
81
100
AcDbEntity
  8
0
370
     0
390
0
100
AcDbVertex
100
AcDb2dVertex
 10
114.905075
 20
75.617691
 30
0.0
  0
VERTEX
  5
82
100
AcDbEntity
  8
0
370
     0
390
0
100
AcDbVertex
100
AcDb2dVertex
 10
114.27507
 20
75.617691
 30
0.0
  0
VERTEX
  5
83
100
AcDbEntity
  8
0
370
     0
390
0
100
AcDbVertex
100
AcDb2dVertex
 10
113.820068
 20
75.2677
 30
0.0
  0
VERTEX
  5
84
100
AcDbEntity
  8
0
370
     0
390
0
100
AcDbVertex
100
AcDb2dVertex
 10
113.820068
 20
74.742691
 30
0.0
  0
VERTEX
  5
85
100
AcDbEntity
  8
0
370
     0
390
0
100
AcDbVertex
100
AcDb2dVertex
 10
114.030075
 20
74.3927
 30
0.0
  0
VERTEX
  5
86
100
AcDbEntity
  8
0
370
     0
390
0
100
AcDbVertex
100
AcDb2dVertex
 10
114.380074
 20
74.182693
 30
0.0
  0
VERTEX
  5
87
100
AcDbEntity
  8
0
370
     0
390
0
100
AcDbVertex
100
AcDb2dVertex
 10
114.905075
 20
74.182693
 30
0.0
  0
SEQEND
  5
88
100
AcDbEntity
  8
0
370
     0
390
0
  0
POLYLINE
  5
89
100
AcDbEntity
  8
0
370
    13
390
0
 62
     5
100
AcDb2dPolyline
 66
     1
 10
0.0
 20
0.0
 30
0.0
 71
    10
  0
VERTEX
  5
8A
100
AcDbEntity
  8
0
370
     0
390
0
100
AcDbVertex
100
AcDb2dVertex
 10
113.820068
 20
75.2677
 30
0.0
  0
VERTEX
  5
8B
100
AcDbEntity
  8
0
370
     0
390
0
100
AcDbVertex
100
AcDb2dVertex
 10
113.715073
 20
75.477692
 30
0.0
  0
VERTEX
  5
8C
100
AcDbEntity
  8
0
370
     0
390
0
100
AcDbVertex
100
AcDb2dVertex
 10
113.260071
 20
75.722687
 30
0.0
  0
VERTEX
  5
8D
100
AcDbEntity
  8
0
370
     0
390
0
100
AcDbVertex
100
AcDb2dVertex
 10
112.770073
 20
75.617691
 30
0.0
  0
VERTEX
  5
8E
100
AcDbEntity
  8
0
370
     0
390
0
100
AcDbVertex
100
AcDb2dVertex
 10
112.52507
 20
75.337692
 30
0.0
  0
VERTEX
  5
8F
100
AcDbEntity
  8
0
370
     0
390
0
100
AcDbVertex
100
AcDb2dVertex
 10
112.52507
 20
74.917694
 30
0.0
  0
VERTEX
  5
90
100
AcDbEntity
  8
0
370
     0
390
0
100
AcDbVertex
100
AcDb2dVertex
 10
112.770073
 20
74.497696
 30
0.0
  0
VERTEX
  5
91
100
AcDbEntity
  8
0
370
     0
390
0
100
AcDbVertex
100
AcDb2dVertex
 10
113.190071
 20
74.3927
 30
0.0
  0
VERTEX
  5
92
100
AcDbEntity
  8
0
370
     0
390
0
100
AcDbVertex
100
AcDb2dVertex
 10
113.575073
 20
74.5327
 30
0.0
  0
VERTEX
  5
93
100
AcDbEntity
  8
0
370
     0
390
0
100
AcDbVertex
100
AcDb2dVertex
 10
113.820068
 20
74.742691
 30
0.0
  0
SEQEND
  5
94
100
AcDbEntity
  8
0
370
     0
390
0
  0
POLYLINE
  5
95
100
AcDbEntity
  8
0
370
    13
390
0
 62
     5
100
AcDb2dPolyline
 66
     1
 10
0.0
 20
0.0
 30
0.0
 70
     1
 71
     8
  0
VERTEX
  5
96
100
AcDbEntity
  8
0
370
     0
390
0
100
AcDbVertex
100
AcDb2dVertex
 10
115.185074
 20
76.63269
 30
0.0
  0
VERTEX
  5
97
100
AcDbEntity
  8
0
370
     0
390
0
100
AcDbVertex
100
AcDb2dVertex
 10
115.185074
 20
76.912689
 30
0.0
  0
VERTEX
  5
98
100
AcDbEntity
  8
0
370
     0
390
0
100
AcDbVertex
100
AcDb2dVertex
 10
114.975075
 20
77.122696
 30
0.0
  0
VERTEX
  5
99
100
AcDbEntity
  8
0
370
     0
390
0
100
AcDbVertex
100
AcDb2dVertex
 10
114.695068
 20
77.122696
 30
0.0
  0
VERTEX
  5
9A
100
AcDbEntity
  8
0
370
     0
390
0
100
AcDbVertex
100
AcDb2dVertex
 10
114.485069
 20
76.912689
 30
0.0
  0
VERTEX
  5
9B
100
AcDbEntity
  8
0
370
     0
390
0
100
AcDbVertex
100
AcDb2dVertex
 10
114.485069
 20
76.63269
 30
0.0
  0
VERTEX
  5
9C
100
AcDbEntity
  8
0
370
     0
390
0
100
AcDbVertex
100
AcDb2dVertex
 10
114.695068
 20
76.422699
 30
0.0
  0
VERTEX
  5
9D
100
AcDbEntity
  8
0
370
     0
390
0
100
AcDbVertex
100
AcDb2dVertex
 10
114.975075
 20
76.422699
 30
0.0
  0
SEQEND
  5
9E
100
AcDbEntity
  8
0
370
     0
390
0
  0
POLYLINE
  5
9F
100
AcDbEntity
  8
0
370
    13
390
0
 62
     5
100
AcDb2dPolyline
 66
     1
 10
0.0
 20
0.0
 30
0.0
 71
     2
  0
VERTEX
  5
A0
100
AcDbEntity
  8
0
370
     0
390
0
100
AcDbVertex
100
AcDb2dVertex
 10
114.625069
 20
76.492691
 30
0.0
  0
VERTEX
  5
A1
100
AcDbEntity
  8
0
370
     0
390
0
100
AcDbVertex
100
AcDb2dVertex
 10
114.625069
 20
77.052689
 30
0.0
  0
SEQEND
  5
A2
100
AcDbEntity
  8
0
370
     0
390
0
  0
POLYLINE
  5
A3
100
AcDbEntity
  8
0
370
    13
390
0
 62
     5
100
AcDb2dPolyline
 66
     1
 10
0.0
 20
0.0
 30
0.0
 71
     2
  0
VERTEX
  5
A4
100
AcDbEntity
  8
0
370
     0
390
0
100
AcDbVertex
100
AcDb2dVertex
 10
114.835075
 20
77.122696
 30
0.0
  0
VERTEX
  5
A5
100
AcDbEntity
  8
0
370
     0
390
0
100
AcDbVertex
100
AcDb2dVertex
 10
114.835075
 20
76.422699
 30
0.0
  0
SEQEND
  5
A6
100
AcDbEntity
  8
0
370
     0
390
0
  0
POLYLINE
  5
A7
100
AcDbEntity
  8
0
370
    13
390
0
 62
     5
100
AcDb2dPolyline
 66
     1
 10
0.0
 20
0.0
 30
0.0
 71
     2
  0
VERTEX
  5
A8
100
AcDbEntity
  8
0
370
     0
390
0
100
AcDbVertex
100
AcDb2dVertex
 10
115.045074
 20
76.492691
 30
0.0
  0
VERTEX
  5
A9
100
AcDbEntity
  8
0
370
     0
390
0
100
AcDbVertex
100
AcDb2dVertex
 10
115.045074
 20
77.052689
 30
0.0
  0
SEQEND
  5
AA
100
AcDbEntity
  8
0
370
     0
390
0
  0
POLYLINE
  5
AB
100
AcDbEntity
  8
0
370
    13
390
0
 62
     5
100
AcDb2dPolyline
 66
     1
 10
0.0
 20
0.0
 30
0.0
 71
    13
  0
VERTEX
  5
AC
100
AcDbEntity
  8
0
370
     0
390
0
100
AcDbVertex
100
AcDb2dVertex
 10
114.870071
 20
77.822693
 30
0.0
  0
VERTEX
  5
AD
100
AcDbEntity
  8
0
370
     0
390
0
100
AcDbVertex
100
AcDb2dVertex
 10
115.08007
 20
77.8927
 30
0.0
  0
VERTEX
  5
AE
100
AcDbEntity
  8
0
370
     0
390
0
100
AcDbVertex
100
AcDb2dVertex
 10
115.255074
 20
77.997696
 30
0.0
  0
VERTEX
  5
AF
100
AcDbEntity
  8
0
370
     0
390
0
100
AcDbVertex
100
AcDb2dVertex
 10
115.325073
 20
78.207687
 30
0.0
  0
VERTEX
  5
B0
100
AcDbEntity
  8
0
370
     0
390
0
100
AcDbVertex
100
AcDb2dVertex
 10
115.325073
 20
78.627701
 30
0.0
  0
VERTEX
  5
B1
100
AcDbEntity
  8
0
370
     0
390
0
100
AcDbVertex
100
AcDb2dVertex
 10
115.22007
 20
78.802689
 30
0.0
  0
VERTEX
  5
B2
100
AcDbEntity
  8
0
370
     0
390
0
100
AcDbVertex
100
AcDb2dVertex
 10
115.010071
 20
79.047699
 30
0.0
  0
VERTEX
  5
B3
100
AcDbEntity
  8
0
370
     0
390
0
100
AcDbVertex
100
AcDb2dVertex
 10
114.065071
 20
79.25769
 30
0.0
  0
VERTEX
  5
B4
100
AcDbEntity
  8
0
370
     0
390
0
100
AcDbVertex
100
AcDb2dVertex
 10
113.820068
 20
79.117691
 30
0.0
  0
VERTEX
  5
B5
100
AcDbEntity
  8
0
370
     0
390
0
100
AcDbVertex
100
AcDb2dVertex
 10
113.680069
 20
78.837692
 30
0.0
  0
VERTEX
  5
B6
100
AcDbEntity
  8
0
370
     0
390
0
100
AcDbVertex
100
AcDb2dVertex
 10
113.750069
 20
78.557693
 30
0.0
  0
VERTEX
  5
B7
100
AcDbEntity
  8
0
370
     0
390
0
100
AcDbVertex
100
AcDb2dVertex
 10
112.52507
 20
79.25769
 30
0.0
  0
VERTEX
  5
B8
100
AcDbEntity
  8
0
370
     0
390
0
100
AcDbVertex
100
AcDb2dVertex
 10
112.52507
 20
77.997696
 30
0.0
  0
SEQEND
  5
B9
100
AcDbEntity
  8
0
370
     0
390
0
  0
LINE
  5
BA
100
AcDbEntity
  8
0
370
    13
390
0
 62
     5
100
AcDbLine
 10
97.628601
 20
72.570206
 30
0.0
 11
119.675072
 21
72.570206
 31
0.0
210
0.0
220
0.0
230
1.0
  0
LINE
  5
BB
100
AcDbEntity
  8
0
370
    13
390
0
 62
     5
100
AcDbLine
 10
97.628601
 20
80.870193
 30
0.0
 11
119.675072
 21
80.870193
 31
0.0
210
0.0
220
0.0
230
1.0
  0
POLYLINE
  5
BC
100
AcDbEntity
  8
0
370
    13
390
0
 62
     5
100
AcDb2dPolyline
 66
     1
 10
0.0
 20
0.0
 30
0.0
 71
     3
  0
VERTEX
  5
BD
100
AcDbEntity
  8
0
370
     0
390
0
100
AcDbVertex
100
AcDb2dVertex
 10
118.192711
 20
70.638351
 30
0.0
  0
VERTEX
  5
BE
100
AcDbEntity
  8
0
370
     0
390
0
100
AcDbVertex
100
AcDb2dVertex
 10
117.675072
 20
72.570206
 30
0.0
  0
VERTEX
  5
BF
100
AcDbEntity
  8
0
370
     0
390
0
100
AcDbVertex
100
AcDb2dVertex
 10
117.157433
 20
70.638351
 30
0.0
  0
SEQEND
  5
C0
100
AcDbEntity
  8
0
370
     0
390
0
  0
POLYLINE
  5
C1
100
AcDbEntity
  8
0
370
    13
390
0
 62
     5
100
AcDb2dPolyline
 66
     1
 10
0.0
 20
0.0
 30
0.0
 71
     3
  0
VERTEX
  5
C2
100
AcDbEntity
  8
0
370
     0
390
0
100
AcDbVertex
100
AcDb2dVertex
 10
117.157433
 20
82.802048
 30
0.0
  0
VERTEX
  5
C3
100
AcDbEntity
  8
0
370
     0
390
0
100
AcDbVertex
100
AcDb2dVertex
 10
117.675072
 20
80.870193
 30
0.0
  0
VERTEX
  5
C4
100
AcDbEntity
  8
0
370
     0
390
0
100
AcDbVertex
100
AcDb2dVertex
 10
118.192711
 20
82.802048
 30
0.0
  0
SEQEND
  5
C5
100
AcDbEntity
  8
0
370
     0
390
0
  0
LINE
  5
C6
100
AcDbEntity
  8
0
370
    13
390
0
 62
     5
 48
0.4575
100
AcDbLine
 10
117.675072
 20
67.570206
 30
0.0
 11
117.675072
 21
85.870193
 31
0.0
210
0.0
220
0.0
230
1.0
  0
POLYLINE
  5
C7
100
AcDbEntity
  8
0
370
    13
390
0
 62
     5
100
AcDb2dPolyline
 66
     1
 10
0.0
 20
0.0
 30
0.0
 71
     3
  0
VERTEX
  5
C8
100
AcDbEntity
  8
0
370
     0
390
0
100
AcDbVertex
100
AcDb2dVertex
 10
71.489532
 20
87.2435
 30
0.0
  0
VERTEX
  5
C9
100
AcDbEntity
  8
0
370
     0
390
0
100
AcDbVertex
100
AcDb2dVertex
 10
72.889534
 20
87.138504
 30
0.0
  0
VERTEX
  5
CA
100
AcDbEntity
  8
0
370
     0
390
0
100
AcDbVertex
100
AcDb2dVertex
 10
74.289536
 20
87.033493
 30
0.0
  0
SEQEND
  5
CB
100
AcDbEntity
  8
0
370
     0
390
0
  0
POLYLINE
  5
CC
100
AcDbEntity
  8
0
370
    13
390
0
 62
     5
100
AcDb2dPolyline
 66
     1
 10
0.0
 20
0.0
 30
0.0
 70
     1
 71
     9
  0
VERTEX
  5
CD
100
AcDbEntity
  8
0
370
     0
390
0
100
AcDbVertex
100
AcDb2dVertex
 10
74.289536
 20
88.363495
 30
0.0
  0
VERTEX
  5
CE
100
AcDbEntity
  8
0
370
     0
390
0
100
AcDbVertex
100
AcDb2dVertex
 10
74.254532
 20
88.9935
 30
0.0
  0
VERTEX
  5
CF
100
AcDbEntity
  8
0
370
     0
390
0
100
AcDbVertex
100
AcDb2dVertex
 10
73.869537
 20
89.378494
 30
0.0
  0
VERTEX
  5
D0
100
AcDbEntity
  8
0
370
     0
390
0
100
AcDbVertex
100
AcDb2dVertex
 10
73.239532
 20
89.378494
 30
0.0
  0
VERTEX
  5
D1
100
AcDbEntity
  8
0
370
     0
390
0
100
AcDbVertex
100
AcDb2dVertex
 10
72.784531
 20
89.028503
 30
0.0
  0
VERTEX
  5
D2
100
AcDbEntity
  8
0
370
     0
390
0
100
AcDbVertex
100
AcDb2dVertex
 10
72.784531
 20
88.503494
 30
0.0
  0
VERTEX
  5
D3
100
AcDbEntity
  8
0
370
     0
390
0
100
AcDbVertex
100
AcDb2dVertex
 10
72.994537
 20
88.153503
 30
0.0
  0
VERTEX
  5
D4
100
AcDbEntity
  8
0
370
     0
390
0
100
AcDbVertex
100
AcDb2dVertex
 10
73.344536
 20
87.943497
 30
0.0
  0
VERTEX
  5
D5
100
AcDbEntity
  8
0
370
     0
390
0
100
AcDbVertex
100
AcDb2dVertex
 10
73.869537
 20
87.943497
 30
0.0
  0
SEQEND
  5
D6
100
AcDbEntity
  8
0
370
     0
390
0
  0
POLYLINE
  5
D7
100
AcDbEntity
  8
0
370
    13
390
0
 62
     5
100
AcDb2dPolyline
 66
     1
 10
0.0
 20
0.0
 30
0.0
 71
    10
  0
VERTEX
  5
D8
100
AcDbEntity
  8
0
370
     0
390
0
100
AcDbVertex
100
AcDb2dVertex
 10
72.784531
 20
89.028503
 30
0.0
  0
VERTEX
  5
D9
100
AcDbEntity
  8
0
370
     0
390
0
100
AcDbVertex
100
AcDb2dVertex
 10
72.679535
 20
89.238495
 30
0.0
  0
VERTEX
  5
DA
100
AcDbEntity
  8
0
370
     0
390
0
100
AcDbVertex
100
AcDb2dVertex
 10
72.224533
 20
89.48349
 30
0.0
  0
VERTEX
  5
DB
100
AcDbEntity
  8
0
370
     0
390
0
100
AcDbVertex
100
AcDb2dVertex
 10
71.734535
 20
89.378494
 30
0.0
  0
VERTEX
  5
DC
100
AcDbEntity
  8
0
370
     0
390
0
100
AcDbVertex
100
AcDb2dVertex
 10
71.489532
 20
89.098495
 30
0.0
  0
VERTEX
  5
DD
100
AcDbEntity
  8
0
370
     0
390
0
100
AcDbVertex
100
AcDb2dVertex
 10
71.489532
 20
88.678497
 30
0.0
  0
VERTEX
  5
DE
100
AcDbEntity
  8
0
370
     0
390
0
100
AcDbVertex
100
AcDb2dVertex
 10
71.734535
 20
88.258499
 30
0.0
  0
VERTEX
  5
DF
100
AcDbEntity
  8
0
370
     0
390
0
100
AcDbVertex
100
AcDb2dVertex
 10
72.154533
 20
88.153503
 30
0.0
  0
VERTEX
  5
E0
100
AcDbEntity
  8
0
370
     0
390
0
100
AcDbVertex
100
AcDb2dVertex
 10
72.539536
 20
88.293503
 30
0.0
  0
VERTEX
  5
E1
100
AcDbEntity
  8
0
370
     0
390
0
100
AcDbVertex
100
AcDb2dVertex
 10
72.784531
 20
88.503494
 30
0.0
  0
SEQEND
  5
E2
100
AcDbEntity
  8
0
370
     0
390
0
  0
POLYLINE
  5
E3
100
AcDbEntity
  8
0
370
    13
390
0
 62
     5
100
AcDb2dPolyline
 66
     1
 10
0.0
 20
0.0
 30
0.0
 70
     1
 71
     8
  0
VERTEX
  5
E4
100
AcDbEntity
  8
0
370
     0
390
0
100
AcDbVertex
100
AcDb2dVertex
 10
74.149536
 20
90.393494
 30
0.0
  0
VERTEX
  5
E5
100
AcDbEntity
  8
0
370
     0
390
0
100
AcDbVertex
100
AcDb2dVertex
 10
74.149536
 20
90.673492
 30
0.0
  0
VERTEX
  5
E6
100
AcDbEntity
  8
0
370
     0
390
0
100
AcDbVertex
100
AcDb2dVertex
 10
73.939529
 20
90.883499
 30
0.0
  0
VERTEX
  5
E7
100
AcDbEntity
  8
0
370
     0
390
0
100
AcDbVertex
100
AcDb2dVertex
 10
73.659531
 20
90.883499
 30
0.0
  0
VERTEX
  5
E8
100
AcDbEntity
  8
0
370
     0
390
0
100
AcDbVertex
100
AcDb2dVertex
 10
73.449539
 20
90.673492
 30
0.0
  0
VERTEX
  5
E9
100
AcDbEntity
  8
0
370
     0
390
0
100
AcDbVertex
100
AcDb2dVertex
 10
73.449539
 20
90.393494
 30
0.0
  0
VERTEX
  5
EA
100
AcDbEntity
  8
0
370
     0
390
0
100
AcDbVertex
100
AcDb2dVertex
 10
73.659531
 20
90.183502
 30
0.0
  0
VERTEX
  5
EB
100
AcDbEntity
  8
0
370
     0
390
0
100
AcDbVertex
100
AcDb2dVertex
 10
73.939529
 20
90.183502
 30
0.0
  0
SEQEND
  5
EC
100
AcDbEntity
  8
0
370
     0
390
0
  0
POLYLINE
  5
ED
100
AcDbEntity
  8
0
370
    13
390
0
 62
     5
100
AcDb2dPolyline
 66
     1
 10
0.0
 20
0.0
 30
0.0
 71
     2
  0
VERTEX
  5
EE
100
AcDbEntity
  8
0
370
     0
390
0
100
AcDbVertex
100
AcDb2dVertex
 10
73.589539
 20
90.253494
 30
0.0
  0
VERTEX
  5
EF
100
AcDbEntity
  8
0
370
     0
390
0
100
AcDbVertex
100
AcDb2dVertex
 10
73.589539
 20
90.813492
 30
0.0
  0
SEQEND
  5
F0
100
AcDbEntity
  8
0
370
     0
390
0
  0
POLYLINE
  5
F1
100
AcDbEntity
  8
0
370
    13
390
0
 62
     5
100
AcDb2dPolyline
 66
     1
 10
0.0
 20
0.0
 30
0.0
 71
     2
  0
VERTEX
  5
F2
100
AcDbEntity
  8
0
370
     0
390
0
100
AcDbVertex
100
AcDb2dVertex
 10
73.79953
 20
90.883499
 30
0.0
  0
VERTEX
  5
F3
100
AcDbEntity
  8
0
370
     0
390
0
100
AcDbVertex
100
AcDb2dVertex
 10
73.79953
 20
90.183502
 30
0.0
  0
SEQEND
  5
F4
100
AcDbEntity
  8
0
370
     0
390
0
  0
POLYLINE
  5
F5
100
AcDbEntity
  8
0
370
    13
390
0
 62
     5
100
AcDb2dPolyline
 66
     1
 10
0.0
 20
0.0
 30
0.0
 71
     2
  0
VERTEX
  5
F6
100
AcDbEntity
  8
0
370
     0
390
0
100
AcDbVertex
100
AcDb2dVertex
 10
74.009537
 20
90.253494
 30
0.0
  0
VERTEX
  5
F7
100
AcDbEntity
  8
0
370
     0
390
0
100
AcDbVertex
100
AcDb2dVertex
 10
74.009537
 20
90.813492
 30
0.0
  0
SEQEND
  5
F8
100
AcDbEntity
  8
0
370
     0
390
0
  0
POLYLINE
  5
F9
100
AcDbEntity
  8
0
370
    13
390
0
 62
     5
100
AcDb2dPolyline
 66
     1
 10
0.0
 20
0.0
 30
0.0
 71
    13
  0
VERTEX
  5
FA
100
AcDbEntity
  8
0
370
     0
390
0
100
AcDbVertex
100
AcDb2dVertex
 10
73.834534
 20
91.583496
 30
0.0
  0
VERTEX
  5
FB
100
AcDbEntity
  8
0
370
     0
390
0
100
AcDbVertex
100
AcDb2dVertex
 10
74.044533
 20
91.653503
 30
0.0
  0
VERTEX
  5
FC
100
AcDbEntity
  8
0
370
     0
390
0
100
AcDbVertex
100
AcDb2dVertex
 10
74.219536
 20
91.758499
 30
0.0
  0
VERTEX
  5
FD
100
AcDbEntity
  8
0
370
     0
390
0
100
AcDbVertex
100
AcDb2dVertex
 10
74.289536
 20
91.968491
 30
0.0
  0
VERTEX
  5
FE
100
AcDbEntity
  8
0
370
     0
390
0
100
AcDbVertex
100
AcDb2dVertex
 10
74.289536
 20
92.388504
 30
0.0
  0
VERTEX
  5
FF
100
AcDbEntity
  8
0
370
     0
390
0
100
AcDbVertex
100
AcDb2dVertex
 10
74.184532
 20
92.563492
 30
0.0
  0
VERTEX
  5
100
100
AcDbEntity
  8
0
370
     0
390
0
100
AcDbVertex
100
AcDb2dVertex
 10
73.974533
 20
92.808502
 30
0.0
  0
VERTEX
  5
101
100
AcDbEntity
  8
0
370
     0
390
0
100
AcDbVertex
100
AcDb2dVertex
 10
73.029533
 20
93.018494
 30
0.0
  0
VERTEX
  5
102
100
AcDbEntity
  8
0
370
     0
390
0
100
AcDbVertex
100
AcDb2dVertex
 10
72.784531
 20
92.878494
 30
0.0
  0
VERTEX
  5
103
100
AcDbEntity
  8
0
370
     0
390
0
100
AcDbVertex
100
AcDb2dVertex
 10
72.644531
 20
92.598495
 30
0.0
  0
VERTEX
  5
104
100
AcDbEntity
  8
0
370
     0
390
0
100
AcDbVertex
100
AcDb2dVertex
 10
72.714539
 20
92.318497
 30
0.0
  0
VERTEX
  5
105
100
AcDbEntity
  8
0
370
     0
390
0
100
AcDbVertex
100
AcDb2dVertex
 10
71.489532
 20
93.018494
 30
0.0
  0
VERTEX
  5
106
100
AcDbEntity
  8
0
370
     0
390
0
100
AcDbVertex
100
AcDb2dVertex
 10
71.489532
 20
91.758499
 30
0.0
  0
SEQEND
  5
107
100
AcDbEntity
  8
0
370
     0
390
0
  0
LINE
  5
108
100
AcDbEntity
  8
0
370
    13
390
0
 62
     5
 48
0.339472
100
AcDbLine
 10
88.218399
 20
80.875992
 30
0.0
 11
74.639534
 21
80.875992
 31
0.0
210
0.0
220
0.0
230
1.0
  0
LINE
  5
109
100
AcDbEntity
  8
0
370
    13
390
0
 62
     5
 48
0.339472
100
AcDbLine
 10
88.218399
 20
99.175995
 30
0.0
 11
74.639534
 21
99.175995
 31
0.0
210
0.0
220
0.0
230
1.0
  0
POLYLINE
  5
10A
100
AcDbEntity
  8
0
370
    13
390
0
 62
     5
100
AcDb2dPolyline
 66
     1
 10
0.0
 20
0.0
 30
0.0
 71
     3
  0
VERTEX
  5
10B
100
AcDbEntity
  8
0
370
     0
390
0
100
AcDbVertex
100
AcDb2dVertex
 10
76.121895
 20
82.807846
 30
0.0
  0
VERTEX
  5
10C
100
AcDbEntity
  8
0
370
     0
390
0
100
AcDbVertex
100
AcDb2dVertex
 10
76.639534
 20
80.875992
 30
0.0
  0
VERTEX
  5
10D
100
AcDbEntity
  8
0
370
     0
390
0
100
AcDbVertex
100
AcDb2dVertex
 10
77.157173
 20
82.807846
 30
0.0
  0
SEQEND
  5
10E
100
AcDbEntity
  8
0
370
     0
390
0
  0
POLYLINE
  5
10F
100
AcDbEntity
  8
0
370
    13
390
0
 62
     5
100
AcDb2dPolyline
 66
     1
 10
0.0
 20
0.0
 30
0.0
 71
     3
  0
VERTEX
  5
110
100
AcDbEntity
  8
0
370
     0
390
0
100
AcDbVertex
100
AcDb2dVertex
 10
77.157173
 20
97.244141
 30
0.0
  0
VERTEX
  5
111
100
AcDbEntity
  8
0
370
     0
390
0
100
AcDbVertex
100
AcDb2dVertex
 10
76.639534
 20
99.175995
 30
0.0
  0
VERTEX
  5
112
100
AcDbEntity
  8
0
370
     0
390
0
100
AcDbVertex
100
AcDb2dVertex
 10
76.121895
 20
97.244141
 30
0.0
  0
SEQEND
  5
113
100
AcDbEntity
  8
0
370
     0
390
0
  0
LINE
  5
114
100
AcDbEntity
  8
0
370
    13
390
0
 62
     5
 48
0.4575
100
AcDbLine
 10
76.639534
 20
80.875992
 30
0.0
 11
76.639534
 21
99.175995
 31
0.0
210
0.0
220
0.0
230
1.0
  0
POLYLINE
  5
115
100
AcDbEntity
  8
0
370
    13
390
0
 62
     5
100
AcDb2dPolyline
 66
     1
 10
0.0
 20
0.0
 30
0.0
 71
    12
  0
VERTEX
  5
116
100
AcDbEntity
  8
0
370
     0
390
0
100
AcDbVertex
100
AcDb2dVertex
 10
100.618401
 20
89.864487
 30
0.0
  0
VERTEX
  5
117
100
AcDbEntity
  8
0
370
     0
390
0
100
AcDbVertex
100
AcDb2dVertex
 10
100.7584
 20
89.479477
 30
0.0
  0
VERTEX
  5
118
100
AcDbEntity
  8
0
370
     0
390
0
100
AcDbVertex
100
AcDb2dVertex
 10
101.073395
 20
89.234482
 30
0.0
  0
VERTEX
  5
119
100
AcDbEntity
  8
0
370
     0
390
0
100
AcDbVertex
100
AcDb2dVertex
 10
101.493401
 20
89.234482
 30
0.0
  0
VERTEX
  5
11A
100
AcDbEntity
  8
0
370
     0
390
0
100
AcDbVertex
100
AcDb2dVertex
 10
101.913399
 20
89.65448
 30
0.0
  0
VERTEX
  5
11B
100
AcDbEntity
  8
0
370
     0
390
0
100
AcDbVertex
100
AcDb2dVertex
 10
102.053398
 20
90.074478
 30
0.0
  0
VERTEX
  5
11C
100
AcDbEntity
  8
0
370
     0
390
0
100
AcDbVertex
100
AcDb2dVertex
 10
102.053398
 20
90.52948
 30
0.0
  0
VERTEX
  5
11D
100
AcDbEntity
  8
0
370
     0
390
0
100
AcDbVertex
100
AcDb2dVertex
 10
101.843399
 20
90.914474
 30
0.0
  0
VERTEX
  5
11E
100
AcDbEntity
  8
0
370
     0
390
0
100
AcDbVertex
100
AcDb2dVertex
 10
101.458397
 20
91.054474
 30
0.0
  0
VERTEX
  5
11F
100
AcDbEntity
  8
0
370
     0
390
0
100
AcDbVertex
100
AcDb2dVertex
 10
101.073395
 20
90.984482
 30
0.0
  0
VERTEX
  5
120
100
AcDbEntity
  8
0
370
     0
390
0
100
AcDbVertex
100
AcDb2dVertex
 10
100.8284
 20
90.774475
 30
0.0
  0
VERTEX
  5
121
100
AcDbEntity
  8
0
370
     0
390
0
100
AcDbVertex
100
AcDb2dVertex
 10
100.968399
 20
92.034485
 30
0.0
  0
SEQEND
  5
122
100
AcDbEntity
  8
0
370
     0
390
0
  0
POLYLINE
  5
123
100
AcDbEntity
  8
0
370
    13
390
0
 62
     5
100
AcDb2dPolyline
 66
     1
 10
0.0
 20
0.0
 30
0.0
 71
     2
  0
VERTEX
  5
124
100
AcDbEntity
  8
0
370
     0
390
0
100
AcDbVertex
100
AcDb2dVertex
 10
100.968399
 20
91.894485
 30
0.0
  0
VERTEX
  5
125
100
AcDbEntity
  8
0
370
     0
390
0
100
AcDbVertex
100
AcDb2dVertex
 10
102.123398
 20
91.894485
 30
0.0
  0
SEQEND
  5
126
100
AcDbEntity
  8
0
370
     0
390
0
  0
POLYLINE
  5
127
100
AcDbEntity
  8
0
370
    13
390
0
 62
     5
100
AcDb2dPolyline
 66
     1
 10
0.0
 20
0.0
 30
0.0
 70
     1
 71
     8
  0
VERTEX
  5
128
100
AcDbEntity
  8
0
370
     0
390
0
100
AcDbVertex
100
AcDb2dVertex
 10
103.033394
 20
89.374481
 30
0.0
  0
VERTEX
  5
129
100
AcDbEntity
  8
0
370
     0
390
0
100
AcDbVertex
100
AcDb2dVertex
 10
103.313393
 20
89.374481
 30
0.0
  0
VERTEX
  5
12A
100
AcDbEntity
  8
0
370
     0
390
0
100
AcDbVertex
100
AcDb2dVertex
 10
103.523392
 20
89.584473
 30
0.0
  0
VERTEX
  5
12B
100
AcDbEntity
  8
0
370
     0
390
0
100
AcDbVertex
100
AcDb2dVertex
 10
103.523392
 20
89.864487
 30
0.0
  0
VERTEX
  5
12C
100
AcDbEntity
  8
0
370
     0
390
0
100
AcDbVertex
100
AcDb2dVertex
 10
103.313393
 20
90.074478
 30
0.0
  0
VERTEX
  5
12D
100
AcDbEntity
  8
0
370
     0
390
0
100
AcDbVertex
100
AcDb2dVertex
 10
103.033394
 20
90.074478
 30
0.0
  0
VERTEX
  5
12E
100
AcDbEntity
  8
0
370
     0
390
0
100
AcDbVertex
100
AcDb2dVertex
 10
102.823395
 20
89.864487
 30
0.0
  0
VERTEX
  5
12F
100
AcDbEntity
  8
0
370
     0
390
0
100
AcDbVertex
100
AcDb2dVertex
 10
102.823395
 20
89.584473
 30
0.0
  0
SEQEND
  5
130
100
AcDbEntity
  8
0
370
     0
390
0
  0
POLYLINE
  5
131
100
AcDbEntity
  8
0
370
    13
390
0
 62
     5
100
AcDb2dPolyline
 66
     1
 10
0.0
 20
0.0
 30
0.0
 71
     2
  0
VERTEX
  5
132
100
AcDbEntity
  8
0
370
     0
390
0
100
AcDbVertex
100
AcDb2dVertex
 10
102.893394
 20
89.934479
 30
0.0
  0
VERTEX
  5
133
100
AcDbEntity
  8
0
370
     0
390
0
100
AcDbVertex
100
AcDb2dVertex
 10
103.453392
 20
89.934479
 30
0.0
  0
SEQEND
  5
134
100
AcDbEntity
  8
0
370
     0
390
0
  0
POLYLINE
  5
135
100
AcDbEntity
  8
0
370
    13
390
0
 62
     5
100
AcDb2dPolyline
 66
     1
 10
0.0
 20
0.0
 30
0.0
 71
     2
  0
VERTEX
  5
136
100
AcDbEntity
  8
0
370
     0
390
0
100
AcDbVertex
100
AcDb2dVertex
 10
103.523392
 20
89.724472
 30
0.0
  0
VERTEX
  5
137
100
AcDbEntity
  8
0
370
     0
390
0
100
AcDbVertex
100
AcDb2dVertex
 10
102.823395
 20
89.724472
 30
0.0
  0
SEQEND
  5
138
100
AcDbEntity
  8
0
370
     0
390
0
  0
POLYLINE
  5
139
100
AcDbEntity
  8
0
370
    13
390
0
 62
     5
100
AcDb2dPolyline
 66
     1
 10
0.0
 20
0.0
 30
0.0
 71
     2
  0
VERTEX
  5
13A
100
AcDbEntity
  8
0
370
     0
390
0
100
AcDbVertex
100
AcDb2dVertex
 10
102.893394
 20
89.514481
 30
0.0
  0
VERTEX
  5
13B
100
AcDbEntity
  8
0
370
     0
390
0
100
AcDbVertex
100
AcDb2dVertex
 10
103.453392
 20
89.514481
 30
0.0
  0
SEQEND
  5
13C
100
AcDbEntity
  8
0
370
     0
390
0
  0
POLYLINE
  5
13D
100
AcDbEntity
  8
0
370
    13
390
0
 62
     5
100
AcDb2dPolyline
 66
     1
 10
0.0
 20
0.0
 30
0.0
 71
     5
  0
VERTEX
  5
13E
100
AcDbEntity
  8
0
370
     0
390
0
100
AcDbVertex
100
AcDb2dVertex
 10
105.448395
 20
89.234482
 30
0.0
  0
VERTEX
  5
13F
100
AcDbEntity
  8
0
370
     0
390
0
100
AcDbVertex
100
AcDb2dVertex
 10
105.588394
 20
90.809479
 30
0.0
  0
VERTEX
  5
140
100
AcDbEntity
  8
0
370
     0
390
0
100
AcDbVertex
100
AcDb2dVertex
 10
105.69339
 20
92.034485
 30
0.0
  0
VERTEX
  5
141
100
AcDbEntity
  8
0
370
     0
390
0
100
AcDbVertex
100
AcDb2dVertex
 10
104.223389
 20
90.004486
 30
0.0
  0
VERTEX
  5
142
100
AcDbEntity
  8
0
370
     0
390
0
100
AcDbVertex
100
AcDb2dVertex
 10
105.973389
 20
90.004486
 30
0.0
  0
SEQEND
  5
143
100
AcDbEntity
  8
0
370
     0
390
0
  0
LINE
  5
144
100
AcDbEntity
  8
0
370
    13
390
0
 62
     5
 48
0.150212
100
AcDbLine
 10
90.218399
 20
82.875992
 30
0.0
 11
90.218399
 21
88.884476
 31
0.0
210
0.0
220
0.0
230
1.0
  0
LINE
  5
145
100
AcDbEntity
  8
0
370
    13
390
0
 62
     5
 48
0.150212
100
AcDbLine
 10
95.618401
 20
82.875992
 30
0.0
 11
95.618401
 21
88.884476
 31
0.0
210
0.0
220
0.0
230
1.0
  0
POLYLINE
  5
146
100
AcDbEntity
  8
0
370
    13
390
0
 62
     5
100
AcDb2dPolyline
 66
     1
 10
0.0
 20
0.0
 30
0.0
 71
     3
  0
VERTEX
  5
147
100
AcDbEntity
  8
0
370
     0
390
0
100
AcDbVertex
100
AcDb2dVertex
 10
88.286545
 20
86.366837
 30
0.0
  0
VERTEX
  5
148
100
AcDbEntity
  8
0
370
     0
390
0
100
AcDbVertex
100
AcDb2dVertex
 10
90.218399
 20
86.884476
 30
0.0
  0
VERTEX
  5
149
100
AcDbEntity
  8
0
370
     0
390
0
100
AcDbVertex
100
AcDb2dVertex
 10
88.286545
 20
87.402115
 30
0.0
  0
SEQEND
  5
14A
100
AcDbEntity
  8
0
370
     0
390
0
  0
POLYLINE
  5
14B
100
AcDbEntity
  8
0
370
    13
390
0
 62
     5
100
AcDb2dPolyline
 66
     1
 10
0.0
 20
0.0
 30
0.0
 71
     3
  0
VERTEX
  5
14C
100
AcDbEntity
  8
0
370
     0
390
0
100
AcDbVertex
100
AcDb2dVertex
 10
97.550247
 20
87.402115
 30
0.0
  0
VERTEX
  5
14D
100
AcDbEntity
  8
0
370
     0
390
0
100
AcDbVertex
100
AcDb2dVertex
 10
95.618401
 20
86.884476
 30
0.0
  0
VERTEX
  5
14E
100
AcDbEntity
  8
0
370
     0
390
0
100
AcDbVertex
100
AcDb2dVertex
 10
97.550247
 20
86.366837
 30
0.0
  0
SEQEND
  5
14F
100
AcDbEntity
  8
0
370
     0
390
0
  0
LINE
  5
150
100
AcDbEntity
  8
0
370
    13
390
0
 62
     5
100
AcDbLine
 10
85.218399
 20
86.884476
 30
0.0
 11
105.973396
 21
86.884476
 31
0.0
210
0.0
220
0.0
230
1.0
  0
POLYLINE
  5
151
100
AcDbEntity
  8
0
370
    13
390
0
 62
     5
100
AcDb2dPolyline
 66
     1
 10
0.0
 20
0.0
 30
0.0
 71
    12
  0
VERTEX
  5
152
100
AcDbEntity
  8
0
370
     0
390
0
100
AcDbVertex
100
AcDb2dVertex
 10
101.018394
 20
98.365234
 30
0.0
  0
VERTEX
  5
153
100
AcDbEntity
  8
0
370
     0
390
0
100
AcDbVertex
100
AcDb2dVertex
 10
101.158394
 20
97.980225
 30
0.0
  0
VERTEX
  5
154
100
AcDbEntity
  8
0
370
     0
390
0
100
AcDbVertex
100
AcDb2dVertex
 10
101.473389
 20
97.735229
 30
0.0
  0
VERTEX
  5
155
100
AcDbEntity
  8
0
370
     0
390
0
100
AcDbVertex
100
AcDb2dVertex
 10
101.893394
 20
97.735229
 30
0.0
  0
VERTEX
  5
156
100
AcDbEntity
  8
0
370
     0
390
0
100
AcDbVertex
100
AcDb2dVertex
 10
102.313393
 20
98.155228
 30
0.0
  0
VERTEX
  5
157
100
AcDbEntity
  8
0
370
     0
390
0
100
AcDbVertex
100
AcDb2dVertex
 10
102.453392
 20
98.575226
 30
0.0
  0
VERTEX
  5
158
100
AcDbEntity
  8
0
370
     0
390
0
100
AcDbVertex
100
AcDb2dVertex
 10
102.453392
 20
99.030228
 30
0.0
  0
VERTEX
  5
159
100
AcDbEntity
  8
0
370
     0
390
0
100
AcDbVertex
100
AcDb2dVertex
 10
102.243393
 20
99.415222
 30
0.0
  0
VERTEX
  5
15A
100
AcDbEntity
  8
0
370
     0
390
0
100
AcDbVertex
100
AcDb2dVertex
 10
101.858391
 20
99.555222
 30
0.0
  0
VERTEX
  5
15B
100
AcDbEntity
  8
0
370
     0
390
0
100
AcDbVertex
100
AcDb2dVertex
 10
101.473389
 20
99.485229
 30
0.0
  0
VERTEX
  5
15C
100
AcDbEntity
  8
0
370
     0
390
0
100
AcDbVertex
100
AcDb2dVertex
 10
101.228394
 20
99.275223
 30
0.0
  0
VERTEX
  5
15D
100
AcDbEntity
  8
0
370
     0
390
0
100
AcDbVertex
100
AcDb2dVertex
 10
101.368393
 20
100.535233
 30
0.0
  0
SEQEND
  5
15E
100
AcDbEntity
  8
0
370
     0
390
0
  0
POLYLINE
  5
15F
100
AcDbEntity
  8
0
370
    13
390
0
 62
     5
100
AcDb2dPolyline
 66
     1
 10
0.0
 20
0.0
 30
0.0
 71
     2
  0
VERTEX
  5
160
100
AcDbEntity
  8
0
370
     0
390
0
100
AcDbVertex
100
AcDb2dVertex
 10
101.368393
 20
100.395233
 30
0.0
  0
VERTEX
  5
161
100
AcDbEntity
  8
0
370
     0
390
0
100
AcDbVertex
100
AcDb2dVertex
 10
102.523392
 20
100.395233
 30
0.0
  0
SEQEND
  5
162
100
AcDbEntity
  8
0
370
     0
390
0
  0
POLYLINE
  5
163
100
AcDbEntity
  8
0
370
    13
390
0
 62
     5
100
AcDb2dPolyline
 66
     1
 10
0.0
 20
0.0
 30
0.0
 70
     1
 71
     8
  0
VERTEX
  5
164
100
AcDbEntity
  8
0
370
     0
390
0
100
AcDbVertex
100
AcDb2dVertex
 10
103.433388
 20
97.875229
 30
0.0
  0
VERTEX
  5
165
100
AcDbEntity
  8
0
370
     0
390
0
100
AcDbVertex
100
AcDb2dVertex
 10
103.713387
 20
97.875229
 30
0.0
  0
VERTEX
  5
166
100
AcDbEntity
  8
0
370
     0
390
0
100
AcDbVertex
100
AcDb2dVertex
 10
103.923386
 20
98.08522
 30
0.0
  0
VERTEX
  5
167
100
AcDbEntity
  8
0
370
     0
390
0
100
AcDbVertex
100
AcDb2dVertex
 10
103.923386
 20
98.365234
 30
0.0
  0
VERTEX
  5
168
100
AcDbEntity
  8
0
370
     0
390
0
100
AcDbVertex
100
AcDb2dVertex
 10
103.713387
 20
98.575226
 30
0.0
  0
VERTEX
  5
169
100
AcDbEntity
  8
0
370
     0
390
0
100
AcDbVertex
100
AcDb2dVertex
 10
103.433388
 20
98.575226
 30
0.0
  0
VERTEX
  5
16A
100
AcDbEntity
  8
0
370
     0
390
0
100
AcDbVertex
100
AcDb2dVertex
 10
103.223389
 20
98.365234
 30
0.0
  0
VERTEX
  5
16B
100
AcDbEntity
  8
0
370
     0
390
0
100
AcDbVertex
100
AcDb2dVertex
 10
103.223389
 20
98.08522
 30
0.0
  0
SEQEND
  5
16C
100
AcDbEntity
  8
0
370
     0
390
0
  0
POLYLINE
  5
16D
100
AcDbEntity
  8
0
370
    13
390
0
 62
     5
100
AcDb2dPolyline
 66
     1
 10
0.0
 20
0.0
 30
0.0
 71
     2
  0
VERTEX
  5
16E
100
AcDbEntity
  8
0
370
     0
390
0
100
AcDbVertex
100
AcDb2dVertex
 10
103.293388
 20
98.435226
 30
0.0
  0
VERTEX
  5
16F
100
AcDbEntity
  8
0
370
     0
390
0
100
AcDbVertex
100
AcDb2dVertex
 10
103.853386
 20
98.435226
 30
0.0
  0
SEQEND
  5
170
100
AcDbEntity
  8
0
370
     0
390
0
  0
POLYLINE
  5
171
100
AcDbEntity
  8
0
370
    13
390
0
 62
     5
100
AcDb2dPolyline
 66
     1
 10
0.0
 20
0.0
 30
0.0
 71
     2
  0
VERTEX
  5
172
100
AcDbEntity
  8
0
370
     0
390
0
100
AcDbVertex
100
AcDb2dVertex
 10
103.923386
 20
98.22522
 30
0.0
  0
VERTEX
  5
173
100
AcDbEntity
  8
0
370
     0
390
0
100
AcDbVertex
100
AcDb2dVertex
 10
103.223389
 20
98.22522
 30
0.0
  0
SEQEND
  5
174
100
AcDbEntity
  8
0
370
     0
390
0
  0
POLYLINE
  5
175
100
AcDbEntity
  8
0
370
    13
390
0
 62
     5
100
AcDb2dPolyline
 66
     1
 10
0.0
 20
0.0
 30
0.0
 71
     2
  0
VERTEX
  5
176
100
AcDbEntity
  8
0
370
     0
390
0
100
AcDbVertex
100
AcDb2dVertex
 10
103.293388
 20
98.015228
 30
0.0
  0
VERTEX
  5
177
100
AcDbEntity
  8
0
370
     0
390
0
100
AcDbVertex
100
AcDb2dVertex
 10
103.853386
 20
98.015228
 30
0.0
  0
SEQEND
  5
178
100
AcDbEntity
  8
0
370
     0
390
0
  0
POLYLINE
  5
179
100
AcDbEntity
  8
0
370
    13
390
0
 62
     5
100
AcDb2dPolyline
 66
     1
 10
0.0
 20
0.0
 30
0.0
 70
     1
 71
     9
  0
VERTEX
  5
17A
100
AcDbEntity
  8
0
370
     0
390
0
100
AcDbVertex
100
AcDb2dVertex
 10
105.043388
 20
97.735229
 30
0.0
  0
VERTEX
  5
17B
100
AcDbEntity
  8
0
370
     0
390
0
100
AcDbVertex
100
AcDb2dVertex
 10
105.673386
 20
97.770233
 30
0.0
  0
VERTEX
  5
17C
100
AcDbEntity
  8
0
370
     0
390
0
100
AcDbVertex
100
AcDb2dVertex
 10
106.058388
 20
98.155228
 30
0.0
  0
VERTEX
  5
17D
100
AcDbEntity
  8
0
370
     0
390
0
100
AcDbVertex
100
AcDb2dVertex
 10
106.058388
 20
98.785233
 30
0.0
  0
VERTEX
  5
17E
100
AcDbEntity
  8
0
370
     0
390
0
100
AcDbVertex
100
AcDb2dVertex
 10
105.708389
 20
99.240234
 30
0.0
  0
VERTEX
  5
17F
100
AcDbEntity
  8
0
370
     0
390
0
100
AcDbVertex
100
AcDb2dVertex
 10
105.183388
 20
99.240234
 30
0.0
  0
VERTEX
  5
180
100
AcDbEntity
  8
0
370
     0
390
0
100
AcDbVertex
100
AcDb2dVertex
 10
104.833389
 20
99.030228
 30
0.0
  0
VERTEX
  5
181
100
AcDbEntity
  8
0
370
     0
390
0
100
AcDbVertex
100
AcDb2dVertex
 10
104.62339
 20
98.680222
 30
0.0
  0
VERTEX
  5
182
100
AcDbEntity
  8
0
370
     0
390
0
100
AcDbVertex
100
AcDb2dVertex
 10
104.62339
 20
98.155228
 30
0.0
  0
SEQEND
  5
183
100
AcDbEntity
  8
0
370
     0
390
0
  0
POLYLINE
  5
184
100
AcDbEntity
  8
0
370
    13
390
0
 62
     5
100
AcDb2dPolyline
 66
     1
 10
0.0
 20
0.0
 30
0.0
 71
    10
  0
VERTEX
  5
185
100
AcDbEntity
  8
0
370
     0
390
0
100
AcDbVertex
100
AcDb2dVertex
 10
105.708389
 20
99.240234
 30
0.0
  0
VERTEX
  5
186
100
AcDbEntity
  8
0
370
     0
390
0
100
AcDbVertex
100
AcDb2dVertex
 10
105.918388
 20
99.34523
 30
0.0
  0
VERTEX
  5
187
100
AcDbEntity
  8
0
370
     0
390
0
100
AcDbVertex
100
AcDb2dVertex
 10
106.163383
 20
99.800232
 30
0.0
  0
VERTEX
  5
188
100
AcDbEntity
  8
0
370
     0
390
0
100
AcDbVertex
100
AcDb2dVertex
 10
106.058388
 20
100.290222
 30
0.0
  0
VERTEX
  5
189
100
AcDbEntity
  8
0
370
     0
390
0
100
AcDbVertex
100
AcDb2dVertex
 10
105.778389
 20
100.535233
 30
0.0
  0
VERTEX
  5
18A
100
AcDbEntity
  8
0
370
     0
390
0
100
AcDbVertex
100
AcDb2dVertex
 10
105.358383
 20
100.535233
 30
0.0
  0
VERTEX
  5
18B
100
AcDbEntity
  8
0
370
     0
390
0
100
AcDbVertex
100
AcDb2dVertex
 10
104.938385
 20
100.290222
 30
0.0
  0
VERTEX
  5
18C
100
AcDbEntity
  8
0
370
     0
390
0
100
AcDbVertex
100
AcDb2dVertex
 10
104.833389
 20
99.870224
 30
0.0
  0
VERTEX
  5
18D
100
AcDbEntity
  8
0
370
     0
390
0
100
AcDbVertex
100
AcDb2dVertex
 10
104.973389
 20
99.485229
 30
0.0
  0
VERTEX
  5
18E
100
AcDbEntity
  8
0
370
     0
390
0
100
AcDbVertex
100
AcDb2dVertex
 10
105.183388
 20
99.240234
 30
0.0
  0
SEQEND
  5
18F
100
AcDbEntity
  8
0
370
     0
390
0
  0
LINE
  5
190
100
AcDbEntity
  8
0
370
    13
390
0
 62
     5
 48
0.095104
100
AcDbLine
 10
90.218399
 20
97.189392
 30
0.0
 11
90.218399
 21
93.385223
 31
0.0
210
0.0
220
0.0
230
1.0
  0
LINE
  5
191
100
AcDbEntity
  8
0
370
    13
390
0
 62
     5
 48
0.095104
100
AcDbLine
 10
96.018394
 20
97.189392
 30
0.0
 11
96.018394
 21
93.385223
 31
0.0
210
0.0
220
0.0
230
1.0
  0
POLYLINE
  5
192
100
AcDbEntity
  8
0
370
    13
390
0
 62
     5
100
AcDb2dPolyline
 66
     1
 10
0.0
 20
0.0
 30
0.0
 71
     3
  0
VERTEX
  5
193
100
AcDbEntity
  8
0
370
     0
390
0
100
AcDbVertex
100
AcDb2dVertex
 10
88.286545
 20
94.867584
 30
0.0
  0
VERTEX
  5
194
100
AcDbEntity
  8
0
370
     0
390
0
100
AcDbVertex
100
AcDb2dVertex
 10
90.218399
 20
95.385223
 30
0.0
  0
VERTEX
  5
195
100
AcDbEntity
  8
0
370
     0
390
0
100
AcDbVertex
100
AcDb2dVertex
 10
88.286545
 20
95.902863
 30
0.0
  0
SEQEND
  5
196
100
AcDbEntity
  8
0
370
     0
390
0
  0
POLYLINE
  5
197
100
AcDbEntity
  8
0
370
    13
390
0
 62
     5
100
AcDb2dPolyline
 66
     1
 10
0.0
 20
0.0
 30
0.0
 71
     3
  0
VERTEX
  5
198
100
AcDbEntity
  8
0
370
     0
390
0
100
AcDbVertex
100
AcDb2dVertex
 10
97.950249
 20
95.902863
 30
0.0
  0
VERTEX
  5
199
100
AcDbEntity
  8
0
370
     0
390
0
100
AcDbVertex
100
AcDb2dVertex
 10
96.018394
 20
95.385223
 30
0.0
  0
VERTEX
  5
19A
100
AcDbEntity
  8
0
370
     0
390
0
100
AcDbVertex
100
AcDb2dVertex
 10
97.950249
 20
94.867584
 30
0.0
  0
SEQEND
  5
19B
100
AcDbEntity
  8
0
370
     0
390
0
  0
LINE
  5
19C
100
AcDbEntity
  8
0
370
    13
390
0
 62
     5
100
AcDbLine
 10
85.218399
 20
95.385223
 30
0.0
 11
106.163399
 21
95.385223
 31
0.0
210
0.0
220
0.0
230
1.0
  0
POLYLINE
  5
19D
100
AcDbEntity
  8
0
370
    13
390
0
 62
     5
100
AcDb2dPolyline
 66
     1
 10
0.0
 20
0.0
 30
0.0
 71
     5
  0
VERTEX
  5
19E
100
AcDbEntity
  8
0
370
     0
390
0
100
AcDbVertex
100
AcDb2dVertex
 10
112.694595
 20
109.864395
 30
0.0
  0
VERTEX
  5
19F
100
AcDbEntity
  8
0
370
     0
390
0
100
AcDbVertex
100
AcDb2dVertex
 10
111.119591
 20
110.004395
 30
0.0
  0
VERTEX
  5
1A0
100
AcDbEntity
  8
0
370
     0
390
0
100
AcDbVertex
100
AcDb2dVertex
 10
109.894592
 20
110.10939
 30
0.0
  0
VERTEX
  5
1A1
100
AcDbEntity
  8
0
370
     0
390
0
100
AcDbVertex
100
AcDb2dVertex
 10
111.924591
 20
108.639389
 30
0.0
  0
VERTEX
  5
1A2
100
AcDbEntity
  8
0
370
     0
390
0
100
AcDbVertex
100
AcDb2dVertex
 10
111.924591
 20
110.389389
 30
0.0
  0
SEQEND
  5
1A3
100
AcDbEntity
  8
0
370
     0
390
0
  0
POLYLINE
  5
1A4
100
AcDbEntity
  8
0
370
    13
390
0
 62
     5
100
AcDb2dPolyline
 66
     1
 10
0.0
 20
0.0
 30
0.0
 70
     1
 71
     8
  0
VERTEX
  5
1A5
100
AcDbEntity
  8
0
370
     0
390
0
100
AcDbVertex
100
AcDb2dVertex
 10
112.554596
 20
111.299393
 30
0.0
  0
VERTEX
  5
1A6
100
AcDbEntity
  8
0
370
     0
390
0
100
AcDbVertex
100
AcDb2dVertex
 10
112.554596
 20
111.579391
 30
0.0
  0
VERTEX
  5
1A7
100
AcDbEntity
  8
0
370
     0
390
0
100
AcDbVertex
100
AcDb2dVertex
 10
112.344597
 20
111.789398
 30
0.0
  0
VERTEX
  5
1A8
100
AcDbEntity
  8
0
370
     0
390
0
100
AcDbVertex
100
AcDb2dVertex
 10
112.06459
 20
111.789398
 30
0.0
  0
VERTEX
  5
1A9
100
AcDbEntity
  8
0
370
     0
390
0
100
AcDbVertex
100
AcDb2dVertex
 10
111.854591
 20
111.579391
 30
0.0
  0
VERTEX
  5
1AA
100
AcDbEntity
  8
0
370
     0
390
0
100
AcDbVertex
100
AcDb2dVertex
 10
111.854591
 20
111.299393
 30
0.0
  0
VERTEX
  5
1AB
100
AcDbEntity
  8
0
370
     0
390
0
100
AcDbVertex
100
AcDb2dVertex
 10
112.06459
 20
111.089401
 30
0.0
  0
VERTEX
  5
1AC
100
AcDbEntity
  8
0
370
     0
390
0
100
AcDbVertex
100
AcDb2dVertex
 10
112.344597
 20
111.089401
 30
0.0
  0
SEQEND
  5
1AD
100
AcDbEntity
  8
0
370
     0
390
0
  0
POLYLINE
  5
1AE
100
AcDbEntity
  8
0
370
    13
390
0
 62
     5
100
AcDb2dPolyline
 66
     1
 10
0.0
 20
0.0
 30
0.0
 71
     2
  0
VERTEX
  5
1AF
100
AcDbEntity
  8
0
370
     0
390
0
100
AcDbVertex
100
AcDb2dVertex
 10
111.994591
 20
111.159393
 30
0.0
  0
VERTEX
  5
1B0
100
AcDbEntity
  8
0
370
     0
390
0
100
AcDbVertex
100
AcDb2dVertex
 10
111.994591
 20
111.719391
 30
0.0
  0
SEQEND
  5
1B1
100
AcDbEntity
  8
0
370
     0
390
0
  0
POLYLINE
  5
1B2
100
AcDbEntity
  8
0
370
    13
390
0
 62
     5
100
AcDb2dPolyline
 66
     1
 10
0.0
 20
0.0
 30
0.0
 71
     2
  0
VERTEX
  5
1B3
100
AcDbEntity
  8
0
370
     0
390
0
100
AcDbVertex
100
AcDb2dVertex
 10
112.204597
 20
111.789398
 30
0.0
  0
VERTEX
  5
1B4
100
AcDbEntity
  8
0
370
     0
390
0
100
AcDbVertex
100
AcDb2dVertex
 10
112.204597
 20
111.089401
 30
0.0
  0
SEQEND
  5
1B5
100
AcDbEntity
  8
0
370
     0
390
0
  0
POLYLINE
  5
1B6
100
AcDbEntity
  8
0
370
    13
390
0
 62
     5
100
AcDb2dPolyline
 66
     1
 10
0.0
 20
0.0
 30
0.0
 71
     2
  0
VERTEX
  5
1B7
100
AcDbEntity
  8
0
370
     0
390
0
100
AcDbVertex
100
AcDb2dVertex
 10
112.414597
 20
111.159393
 30
0.0
  0
VERTEX
  5
1B8
100
AcDbEntity
  8
0
370
     0
390
0
100
AcDbVertex
100
AcDb2dVertex
 10
112.414597
 20
111.719391
 30
0.0
  0
SEQEND
  5
1B9
100
AcDbEntity
  8
0
370
     0
390
0
  0
POLYLINE
  5
1BA
100
AcDbEntity
  8
0
370
    13
390
0
 62
     5
100
AcDb2dPolyline
 66
     1
 10
0.0
 20
0.0
 30
0.0
 71
     5
  0
VERTEX
  5
1BB
100
AcDbEntity
  8
0
370
     0
390
0
100
AcDbVertex
100
AcDb2dVertex
 10
112.694595
 20
113.714401
 30
0.0
  0
VERTEX
  5
1BC
100
AcDbEntity
  8
0
370
     0
390
0
100
AcDbVertex
100
AcDb2dVertex
 10
111.119591
 20
113.854401
 30
0.0
  0
VERTEX
  5
1BD
100
AcDbEntity
  8
0
370
     0
390
0
100
AcDbVertex
100
AcDb2dVertex
 10
109.894592
 20
113.959396
 30
0.0
  0
VERTEX
  5
1BE
100
AcDbEntity
  8
0
370
     0
390
0
100
AcDbVertex
100
AcDb2dVertex
 10
111.924591
 20
112.489395
 30
0.0
  0
VERTEX
  5
1BF
100
AcDbEntity
  8
0
370
     0
390
0
100
AcDbVertex
100
AcDb2dVertex
 10
111.924591
 20
114.239395
 30
0.0
  0
SEQEND
  5
1C0
100
AcDbEntity
  8
0
370
     0
390
0
  0
POLYLINE
  5
1C1
100
AcDbEntity
  8
0
370
    13
390
0
 62
     5
100
AcDb2dPolyline
 66
     1
 10
0.0
 20
0.0
 30
0.0
 71
    12
  0
VERTEX
  5
1C2
100
AcDbEntity
  8
0
370
     0
390
0
100
AcDbVertex
100
AcDb2dVertex
 10
112.06459
 20
114.939392
 30
0.0
  0
VERTEX
  5
1C3
100
AcDbEntity
  8
0
370
     0
390
0
100
AcDbVertex
100
AcDb2dVertex
 10
112.449593
 20
115.079391
 30
0.0
  0
VERTEX
  5
1C4
100
AcDbEntity
  8
0
370
     0
390
0
100
AcDbVertex
100
AcDb2dVertex
 10
112.694595
 20
115.394394
 30
0.0
  0
VERTEX
  5
1C5
100
AcDbEntity
  8
0
370
     0
390
0
100
AcDbVertex
100
AcDb2dVertex
 10
112.694595
 20
115.814392
 30
0.0
  0
VERTEX
  5
1C6
100
AcDbEntity
  8
0
370
     0
390
0
100
AcDbVertex
100
AcDb2dVertex
 10
112.274597
 20
116.23439
 30
0.0
  0
VERTEX
  5
1C7
100
AcDbEntity
  8
0
370
     0
390
0
100
AcDbVertex
100
AcDb2dVertex
 10
111.854591
 20
116.37439
 30
0.0
  0
VERTEX
  5
1C8
100
AcDbEntity
  8
0
370
     0
390
0
100
AcDbVertex
100
AcDb2dVertex
 10
111.399597
 20
116.37439
 30
0.0
  0
VERTEX
  5
1C9
100
AcDbEntity
  8
0
370
     0
390
0
100
AcDbVertex
100
AcDb2dVertex
 10
111.014595
 20
116.164398
 30
0.0
  0
VERTEX
  5
1CA
100
AcDbEntity
  8
0
370
     0
390
0
100
AcDbVertex
100
AcDb2dVertex
 10
110.874596
 20
115.779404
 30
0.0
  0
VERTEX
  5
1CB
100
AcDbEntity
  8
0
370
     0
390
0
100
AcDbVertex
100
AcDb2dVertex
 10
110.944595
 20
115.394394
 30
0.0
  0
VERTEX
  5
1CC
100
AcDbEntity
  8
0
370
     0
390
0
100
AcDbVertex
100
AcDb2dVertex
 10
111.154594
 20
115.149399
 30
0.0
  0
VERTEX
  5
1CD
100
AcDbEntity
  8
0
370
     0
390
0
100
AcDbVertex
100
AcDb2dVertex
 10
109.894592
 20
115.289398
 30
0.0
  0
SEQEND
  5
1CE
100
AcDbEntity
  8
0
370
     0
390
0
  0
POLYLINE
  5
1CF
100
AcDbEntity
  8
0
370
    13
390
0
 62
     5
100
AcDb2dPolyline
 66
     1
 10
0.0
 20
0.0
 30
0.0
 71
     2
  0
VERTEX
  5
1D0
100
AcDbEntity
  8
0
370
     0
390
0
100
AcDbVertex
100
AcDb2dVertex
 10
110.034592
 20
115.289398
 30
0.0
  0
VERTEX
  5
1D1
100
AcDbEntity
  8
0
370
     0
390
0
100
AcDbVertex
100
AcDb2dVertex
 10
110.034592
 20
116.444397
 30
0.0
  0
SEQEND
  5
1D2
100
AcDbEntity
  8
0
370
     0
390
0
  0
LINE
  5
1D3
100
AcDbEntity
  8
0
370
    13
390
0
 62
     5
 48
0.475875
100
AcDbLine
 10
98.009598
 20
99.189392
 30
0.0
 11
117.044594
 21
99.189392
 31
0.0
210
0.0
220
0.0
230
1.0
  0
LINE
  5
1D4
100
AcDbEntity
  8
0
370
    13
390
0
 62
     5
 48
0.475875
100
AcDbLine
 10
98.009598
 20
103.639404
 30
0.0
 11
117.044594
 21
103.639404
 31
0.0
210
0.0
220
0.0
230
1.0
  0
POLYLINE
  5
1D5
100
AcDbEntity
  8
0
370
    13
390
0
 62
     5
100
AcDb2dPolyline
 66
     1
 10
0.0
 20
0.0
 30
0.0
 71
     3
  0
VERTEX
  5
1D6
100
AcDbEntity
  8
0
370
     0
390
0
100
AcDbVertex
100
AcDb2dVertex
 10
115.562233
 20
97.257553
 30
0.0
  0
VERTEX
  5
1D7
100
AcDbEntity
  8
0
370
     0
390
0
100
AcDbVertex
100
AcDb2dVertex
 10
115.044594
 20
99.189392
 30
0.0
  0
VERTEX
  5
1D8
100
AcDbEntity
  8
0
370
     0
390
0
100
AcDbVertex
100
AcDb2dVertex
 10
114.526955
 20
97.257553
 30
0.0
  0
SEQEND
  5
1D9
100
AcDbEntity
  8
0
370
     0
390
0
  0
POLYLINE
  5
1DA
100
AcDbEntity
  8
0
370
    13
390
0
 62
     5
100
AcDb2dPolyline
 66
     1
 10
0.0
 20
0.0
 30
0.0
 71
     3
  0
VERTEX
  5
1DB
100
AcDbEntity
  8
0
370
     0
390
0
100
AcDbVertex
100
AcDb2dVertex
 10
114.526955
 20
105.571243
 30
0.0
  0
VERTEX
  5
1DC
100
AcDbEntity
  8
0
370
     0
390
0
100
AcDbVertex
100
AcDb2dVertex
 10
115.044594
 20
103.639404
 30
0.0
  0
VERTEX
  5
1DD
100
AcDbEntity
  8
0
370
     0
390
0
100
AcDbVertex
100
AcDb2dVertex
 10
115.562233
 20
105.571243
 30
0.0
  0
SEQEND
  5
1DE
100
AcDbEntity
  8
0
370
     0
390
0
  0
LINE
  5
1DF
100
AcDbEntity
  8
0
370
    13
390
0
 62
     5
100
AcDbLine
 10
115.044594
 20
94.189392
 30
0.0
 11
115.044594
 21
116.444397
 31
0.0
210
0.0
220
0.0
230
1.0
  0
POLYLINE
  5
1E0
100
AcDbEntity
  8
0
370
    13
390
0
 62
     5
100
AcDb2dPolyline
 66
     1
 10
0.0
 20
0.0
 30
0.0
 71
    10
  0
VERTEX
  5
1E1
100
AcDbEntity
  8
0
370
     0
390
0
100
AcDbVertex
100
AcDb2dVertex
 10
141.421906
 20
88.742599
 30
0.0
  0
VERTEX
  5
1E2
100
AcDbEntity
  8
0
370
     0
390
0
100
AcDbVertex
100
AcDb2dVertex
 10
141.421906
 20
87.272598
 30
0.0
  0
VERTEX
  5
1E3
100
AcDbEntity
  8
0
370
     0
390
0
100
AcDbVertex
100
AcDb2dVertex
 10
140.091888
 20
88.392593
 30
0.0
  0
VERTEX
  5
1E4
100
AcDbEntity
  8
0
370
     0
390
0
100
AcDbVertex
100
AcDb2dVertex
 10
139.671906
 20
88.672592
 30
0.0
  0
VERTEX
  5
1E5
100
AcDbEntity
  8
0
370
     0
390
0
100
AcDbVertex
100
AcDb2dVertex
 10
139.076904
 20
88.812592
 30
0.0
  0
VERTEX
  5
1E6
100
AcDbEntity
  8
0
370
     0
390
0
100
AcDbVertex
100
AcDb2dVertex
 10
138.726898
 20
88.742599
 30
0.0
  0
VERTEX
  5
1E7
100
AcDbEntity
  8
0
370
     0
390
0
100
AcDbVertex
100
AcDb2dVertex
 10
138.621887
 20
88.567596
 30
0.0
  0
VERTEX
  5
1E8
100
AcDbEntity
  8
0
370
     0
390
0
100
AcDbVertex
100
AcDb2dVertex
 10
138.621887
 20
87.972595
 30
0.0
  0
VERTEX
  5
1E9
100
AcDbEntity
  8
0
370
     0
390
0
100
AcDbVertex
100
AcDb2dVertex
 10
138.761902
 20
87.657593
 30
0.0
  0
VERTEX
  5
1EA
100
AcDbEntity
  8
0
370
     0
390
0
100
AcDbVertex
100
AcDb2dVertex
 10
139.321899
 20
87.307602
 30
0.0
  0
SEQEND
  5
1EB
100
AcDbEntity
  8
0
370
     0
390
0
  0
POLYLINE
  5
1EC
100
AcDbEntity
  8
0
370
    13
390
0
 62
     5
100
AcDb2dPolyline
 66
     1
 10
0.0
 20
0.0
 30
0.0
 71
    11
  0
VERTEX
  5
1ED
100
AcDbEntity
  8
0
370
     0
390
0
100
AcDbVertex
100
AcDb2dVertex
 10
139.986893
 20
90.772598
 30
0.0
  0
VERTEX
  5
1EE
100
AcDbEntity
  8
0
370
     0
390
0
100
AcDbVertex
100
AcDb2dVertex
 10
140.126892
 20
90.387604
 30
0.0
  0
VERTEX
  5
1EF
100
AcDbEntity
  8
0
370
     0
390
0
100
AcDbVertex
100
AcDb2dVertex
 10
140.126892
 20
89.897598
 30
0.0
  0
VERTEX
  5
1F0
100
AcDbEntity
  8
0
370
     0
390
0
100
AcDbVertex
100
AcDb2dVertex
 10
139.846893
 20
89.617599
 30
0.0
  0
VERTEX
  5
1F1
100
AcDbEntity
  8
0
370
     0
390
0
100
AcDbVertex
100
AcDb2dVertex
 10
139.391907
 20
89.512604
 30
0.0
  0
VERTEX
  5
1F2
100
AcDbEntity
  8
0
370
     0
390
0
100
AcDbVertex
100
AcDb2dVertex
 10
138.866898
 20
89.652603
 30
0.0
  0
VERTEX
  5
1F3
100
AcDbEntity
  8
0
370
     0
390
0
100
AcDbVertex
100
AcDb2dVertex
 10
138.621887
 20
89.932602
 30
0.0
  0
VERTEX
  5
1F4
100
AcDbEntity
  8
0
370
     0
390
0
100
AcDbVertex
100
AcDb2dVertex
 10
138.621887
 20
90.562592
 30
0.0
  0
VERTEX
  5
1F5
100
AcDbEntity
  8
0
370
     0
390
0
100
AcDbVertex
100
AcDb2dVertex
 10
138.93689
 20
90.912598
 30
0.0
  0
VERTEX
  5
1F6
100
AcDbEntity
  8
0
370
     0
390
0
100
AcDbVertex
100
AcDb2dVertex
 10
139.461899
 20
90.98259
 30
0.0
  0
VERTEX
  5
1F7
100
AcDbEntity
  8
0
370
     0
390
0
100
AcDbVertex
100
AcDb2dVertex
 10
141.421906
 20
90.142593
 30
0.0
  0
SEQEND
  5
1F8
100
AcDbEntity
  8
0
370
     0
390
0
  0
LINE
  5
1F9
100
AcDbEntity
  8
0
370
    13
390
0
 62
     5
 48
0.155198
100
AcDbLine
 10
139.563995
 20
74.627594
 30
0.0
 11
145.771896
 21
74.627594
 31
0.0
210
0.0
220
0.0
230
1.0
  0
LINE
  5
1FA
100
AcDbEntity
  8
0
370
    13
390
0
 62
     5
 48
0.155198
100
AcDbLine
 10
139.563995
 20
103.627594
 30
0.0
 11
145.771896
 21
103.627594
 31
0.0
210
0.0
220
0.0
230
1.0
  0
POLYLINE
  5
1FB
100
AcDbEntity
  8
0
370
    13
390
0
 62
     5
100
AcDb2dPolyline
 66
     1
 10
0.0
 20
0.0
 30
0.0
 71
     3
  0
VERTEX
  5
1FC
100
AcDbEntity
  8
0
370
     0
390
0
100
AcDbVertex
100
AcDb2dVertex
 10
143.254257
 20
76.559448
 30
0.0
  0
VERTEX
  5
1FD
100
AcDbEntity
  8
0
370
     0
390
0
100
AcDbVertex
100
AcDb2dVertex
 10
143.771896
 20
74.627594
 30
0.0
  0
VERTEX
  5
1FE
100
AcDbEntity
  8
0
370
     0
390
0
100
AcDbVertex
100
AcDb2dVertex
 10
144.289536
 20
76.559448
 30
0.0
  0
SEQEND
  5
1FF
100
AcDbEntity
  8
0
370
     0
390
0
  0
POLYLINE
  5
200
100
AcDbEntity
  8
0
370
    13
390
0
 62
     5
100
AcDb2dPolyline
 66
     1
 10
0.0
 20
0.0
 30
0.0
 71
     3
  0
VERTEX
  5
201
100
AcDbEntity
  8
0
370
     0
390
0
100
AcDbVertex
100
AcDb2dVertex
 10
144.289536
 20
101.69574
 30
0.0
  0
VERTEX
  5
202
100
AcDbEntity
  8
0
370
     0
390
0
100
AcDbVertex
100
AcDb2dVertex
 10
143.771896
 20
103.627594
 30
0.0
  0
VERTEX
  5
203
100
AcDbEntity
  8
0
370
     0
390
0
100
AcDbVertex
100
AcDb2dVertex
 10
143.254257
 20
101.69574
 30
0.0
  0
SEQEND
  5
204
100
AcDbEntity
  8
0
370
     0
390
0
  0
LINE
  5
205
100
AcDbEntity
  8
0
370
    13
390
0
 62
     5
100
AcDbLine
 10
143.771896
 20
74.627594
 30
0.0
 11
143.771896
 21
103.627594
 31
0.0
210
0.0
220
0.0
230
1.0
  0
POLYLINE
  5
206
100
AcDbEntity
  8
0
370
    13
390
0
 62
     5
100
AcDb2dPolyline
 66
     1
 10
0.0
 20
0.0
 30
0.0
 71
     5
  0
VERTEX
  5
207
100
AcDbEntity
  8
0
370
     0
390
0
100
AcDbVertex
100
AcDb2dVertex
 10
114.919609
 20
124.958496
 30
0.0
  0
VERTEX
  5
208
100
AcDbEntity
  8
0
370
     0
390
0
100
AcDbVertex
100
AcDb2dVertex
 10
115.059608
 20
126.533493
 30
0.0
  0
VERTEX
  5
209
100
AcDbEntity
  8
0
370
     0
390
0
100
AcDbVertex
100
AcDb2dVertex
 10
115.164604
 20
127.758484
 30
0.0
  0
VERTEX
  5
20A
100
AcDbEntity
  8
0
370
     0
390
0
100
AcDbVertex
100
AcDb2dVertex
 10
113.694603
 20
125.728485
 30
0.0
  0
VERTEX
  5
20B
100
AcDbEntity
  8
0
370
     0
390
0
100
AcDbVertex
100
AcDb2dVertex
 10
115.444603
 20
125.728485
 30
0.0
  0
SEQEND
  5
20C
100
AcDbEntity
  8
0
370
     0
390
0
  0
POLYLINE
  5
20D
100
AcDbEntity
  8
0
370
    13
390
0
 62
     5
100
AcDb2dPolyline
 66
     1
 10
0.0
 20
0.0
 30
0.0
 71
     3
  0
VERTEX
  5
20E
100
AcDbEntity
  8
0
370
     0
390
0
100
AcDbVertex
100
AcDb2dVertex
 10
116.354607
 20
127.758484
 30
0.0
  0
VERTEX
  5
20F
100
AcDbEntity
  8
0
370
     0
390
0
100
AcDbVertex
100
AcDb2dVertex
 10
116.249611
 20
126.35849
 30
0.0
  0
VERTEX
  5
210
100
AcDbEntity
  8
0
370
     0
390
0
100
AcDbVertex
100
AcDb2dVertex
 10
116.144608
 20
124.958496
 30
0.0
  0
SEQEND
  5
211
100
AcDbEntity
  8
0
370
     0
390
0
  0
POLYLINE
  5
212
100
AcDbEntity
  8
0
370
    13
390
0
 62
     5
100
AcDb2dPolyline
 66
     1
 10
0.0
 20
0.0
 30
0.0
 70
     1
 71
     8
  0
VERTEX
  5
213
100
AcDbEntity
  8
0
370
     0
390
0
100
AcDbVertex
100
AcDb2dVertex
 10
117.26461
 20
125.098495
 30
0.0
  0
VERTEX
  5
214
100
AcDbEntity
  8
0
370
     0
390
0
100
AcDbVertex
100
AcDb2dVertex
 10
117.544609
 20
125.098495
 30
0.0
  0
VERTEX
  5
215
100
AcDbEntity
  8
0
370
     0
390
0
100
AcDbVertex
100
AcDb2dVertex
 10
117.754608
 20
125.308487
 30
0.0
  0
VERTEX
  5
216
100
AcDbEntity
  8
0
370
     0
390
0
100
AcDbVertex
100
AcDb2dVertex
 10
117.754608
 20
125.588486
 30
0.0
  0
VERTEX
  5
217
100
AcDbEntity
  8
0
370
     0
390
0
100
AcDbVertex
100
AcDb2dVertex
 10
117.544609
 20
125.798492
 30
0.0
  0
VERTEX
  5
218
100
AcDbEntity
  8
0
370
     0
390
0
100
AcDbVertex
100
AcDb2dVertex
 10
117.26461
 20
125.798492
 30
0.0
  0
VERTEX
  5
219
100
AcDbEntity
  8
0
370
     0
390
0
100
AcDbVertex
100
AcDb2dVertex
 10
117.054611
 20
125.588486
 30
0.0
  0
VERTEX
  5
21A
100
AcDbEntity
  8
0
370
     0
390
0
100
AcDbVertex
100
AcDb2dVertex
 10
117.054611
 20
125.308487
 30
0.0
  0
SEQEND
  5
21B
100
AcDbEntity
  8
0
370
     0
390
0
  0
POLYLINE
  5
21C
100
AcDbEntity
  8
0
370
    13
390
0
 62
     5
100
AcDb2dPolyline
 66
     1
 10
0.0
 20
0.0
 30
0.0
 71
     2
  0
VERTEX
  5
21D
100
AcDbEntity
  8
0
370
     0
390
0
100
AcDbVertex
100
AcDb2dVertex
 10
117.124611
 20
125.658493
 30
0.0
  0
VERTEX
  5
21E
100
AcDbEntity
  8
0
370
     0
390
0
100
AcDbVertex
100
AcDb2dVertex
 10
117.684608
 20
125.658493
 30
0.0
  0
SEQEND
  5
21F
100
AcDbEntity
  8
0
370
     0
390
0
  0
POLYLINE
  5
220
100
AcDbEntity
  8
0
370
    13
390
0
 62
     5
100
AcDb2dPolyline
 66
     1
 10
0.0
 20
0.0
 30
0.0
 71
     2
  0
VERTEX
  5
221
100
AcDbEntity
  8
0
370
     0
390
0
100
AcDbVertex
100
AcDb2dVertex
 10
117.754608
 20
125.448486
 30
0.0
  0
VERTEX
  5
222
100
AcDbEntity
  8
0
370
     0
390
0
100
AcDbVertex
100
AcDb2dVertex
 10
117.054611
 20
125.448486
 30
0.0
  0
SEQEND
  5
223
100
AcDbEntity
  8
0
370
     0
390
0
  0
POLYLINE
  5
224
100
AcDbEntity
  8
0
370
    13
390
0
 62
     5
100
AcDb2dPolyline
 66
     1
 10
0.0
 20
0.0
 30
0.0
 71
     2
  0
VERTEX
  5
225
100
AcDbEntity
  8
0
370
     0
390
0
100
AcDbVertex
100
AcDb2dVertex
 10
117.124611
 20
125.238495
 30
0.0
  0
VERTEX
  5
226
100
AcDbEntity
  8
0
370
     0
390
0
100
AcDbVertex
100
AcDb2dVertex
 10
117.684608
 20
125.238495
 30
0.0
  0
SEQEND
  5
227
100
AcDbEntity
  8
0
370
     0
390
0
  0
POLYLINE
  5
228
100
AcDbEntity
  8
0
370
    13
390
0
 62
     5
100
AcDb2dPolyline
 66
     1
 10
0.0
 20
0.0
 30
0.0
 71
    12
  0
VERTEX
  5
229
100
AcDbEntity
  8
0
370
     0
390
0
100
AcDbVertex
100
AcDb2dVertex
 10
119.504608
 20
127.758484
 30
0.0
  0
VERTEX
  5
22A
100
AcDbEntity
  8
0
370
     0
390
0
100
AcDbVertex
100
AcDb2dVertex
 10
118.979607
 20
127.443497
 30
0.0
  0
VERTEX
  5
22B
100
AcDbEntity
  8
0
370
     0
390
0
100
AcDbVertex
100
AcDb2dVertex
 10
118.594612
 20
126.848495
 30
0.0
  0
VERTEX
  5
22C
100
AcDbEntity
  8
0
370
     0
390
0
100
AcDbVertex
100
AcDb2dVertex
 10
118.454613
 20
125.938492
 30
0.0
  0
VERTEX
  5
22D
100
AcDbEntity
  8
0
370
     0
390
0
100
AcDbVertex
100
AcDb2dVertex
 10
118.559608
 20
125.203491
 30
0.0
  0
VERTEX
  5
22E
100
AcDbEntity
  8
0
370
     0
390
0
100
AcDbVertex
100
AcDb2dVertex
 10
119.01461
 20
124.958496
 30
0.0
  0
VERTEX
  5
22F
100
AcDbEntity
  8
0
370
     0
390
0
100
AcDbVertex
100
AcDb2dVertex
 10
119.504608
 20
124.958496
 30
0.0
  0
VERTEX
  5
230
100
AcDbEntity
  8
0
370
     0
390
0
100
AcDbVertex
100
AcDb2dVertex
 10
119.924606
 20
125.378494
 30
0.0
  0
VERTEX
  5
231
100
AcDbEntity
  8
0
370
     0
390
0
100
AcDbVertex
100
AcDb2dVertex
 10
119.854607
 20
126.008484
 30
0.0
  0
VERTEX
  5
232
100
AcDbEntity
  8
0
370
     0
390
0
100
AcDbVertex
100
AcDb2dVertex
 10
119.434608
 20
126.323486
 30
0.0
  0
VERTEX
  5
233
100
AcDbEntity
  8
0
370
     0
390
0
100
AcDbVertex
100
AcDb2dVertex
 10
118.874611
 20
126.288483
 30
0.0
  0
VERTEX
  5
234
100
AcDbEntity
  8
0
370
     0
390
0
100
AcDbVertex
100
AcDb2dVertex
 10
118.489609
 20
125.903488
 30
0.0
  0
SEQEND
  5
235
100
AcDbEntity
  8
0
370
     0
390
0
  0
LINE
  5
236
100
AcDbEntity
  8
0
370
    13
390
0
 62
     5
 48
0.473936
100
AcDbLine
 10
96.009598
 20
105.651047
 30
0.0
 11
96.009598
 21
124.60849
 31
0.0
210
0.0
220
0.0
230
1.0
  0
LINE
  5
237
100
AcDbEntity
  8
0
370
    13
390
0
 62
     5
 48
0.473936
100
AcDbLine
 10
137.609589
 20
105.651047
 30
0.0
 11
137.609589
 21
124.60849
 31
0.0
210
0.0
220
0.0
230
1.0
  0
POLYLINE
  5
238
100
AcDbEntity
  8
0
370
    13
390
0
 62
     5
100
AcDb2dPolyline
 66
     1
 10
0.0
 20
0.0
 30
0.0
 71
     3
  0
VERTEX
  5
239
100
AcDbEntity
  8
0
370
     0
390
0
100
AcDbVertex
100
AcDb2dVertex
 10
97.941452
 20
123.126129
 30
0.0
  0
VERTEX
  5
23A
100
AcDbEntity
  8
0
370
     0
390
0
100
AcDbVertex
100
AcDb2dVertex
 10
96.009598
 20
122.60849
 30
0.0
  0
VERTEX
  5
23B
100
AcDbEntity
  8
0
370
     0
390
0
100
AcDbVertex
100
AcDb2dVertex
 10
97.941452
 20
122.090851
 30
0.0
  0
SEQEND
  5
23C
100
AcDbEntity
  8
0
370
     0
390
0
  0
POLYLINE
  5
23D
100
AcDbEntity
  8
0
370
    13
390
0
 62
     5
100
AcDb2dPolyline
 66
     1
 10
0.0
 20
0.0
 30
0.0
 71
     3
  0
VERTEX
  5
23E
100
AcDbEntity
  8
0
370
     0
390
0
100
AcDbVertex
100
AcDb2dVertex
 10
135.67775
 20
122.090851
 30
0.0
  0
VERTEX
  5
23F
100
AcDbEntity
  8
0
370
     0
390
0
100
AcDbVertex
100
AcDb2dVertex
 10
137.609589
 20
122.60849
 30
0.0
  0
VERTEX
  5
240
100
AcDbEntity
  8
0
370
     0
390
0
100
AcDbVertex
100
AcDb2dVertex
 10
135.67775
 20
123.126129
 30
0.0
  0
SEQEND
  5
241
100
AcDbEntity
  8
0
370
     0
390
0
  0
LINE
  5
242
100
AcDbEntity
  8
0
370
    13
390
0
 62
     5
100
AcDbLine
 10
96.009598
 20
122.60849
 30
0.0
 11
137.609589
 21
122.60849
 31
0.0
210
0.0
220
0.0
230
1.0
  0
POLYLINE
  5
243
100
AcDbEntity
  8
0
370
    13
390
0
 62
     5
100
AcDb2dPolyline
 66
     1
 10
0.0
 20
0.0
 30
0.0
 71
     5
  0
VERTEX
  5
244
100
AcDbEntity
  8
0
370
     0
390
0
100
AcDbVertex
100
AcDb2dVertex
 10
111.418404
 20
53.762234
 30
0.0
  0
VERTEX
  5
245
100
AcDbEntity
  8
0
370
     0
390
0
100
AcDbVertex
100
AcDb2dVertex
 10
111.558403
 20
55.337238
 30
0.0
  0
VERTEX
  5
246
100
AcDbEntity
  8
0
370
     0
390
0
100
AcDbVertex
100
AcDb2dVertex
 10
111.663399
 20
56.562237
 30
0.0
  0
VERTEX
  5
247
100
AcDbEntity
  8
0
370
     0
390
0
100
AcDbVertex
100
AcDb2dVertex
 10
110.193398
 20
54.532238
 30
0.0
  0
VERTEX
  5
248
100
AcDbEntity
  8
0
370
     0
390
0
100
AcDbVertex
100
AcDb2dVertex
 10
111.943398
 20
54.532238
 30
0.0
  0
SEQEND
  5
249
100
AcDbEntity
  8
0
370
     0
390
0
  0
POLYLINE
  5
24A
100
AcDbEntity
  8
0
370
    13
390
0
 62
     5
100
AcDb2dPolyline
 66
     1
 10
0.0
 20
0.0
 30
0.0
 71
     5
  0
VERTEX
  5
24B
100
AcDbEntity
  8
0
370
     0
390
0
100
AcDbVertex
100
AcDb2dVertex
 10
113.238396
 20
53.762234
 30
0.0
  0
VERTEX
  5
24C
100
AcDbEntity
  8
0
370
     0
390
0
100
AcDbVertex
100
AcDb2dVertex
 10
113.518402
 20
55.477238
 30
0.0
  0
VERTEX
  5
24D
100
AcDbEntity
  8
0
370
     0
390
0
100
AcDbVertex
100
AcDb2dVertex
 10
113.763397
 20
56.107235
 30
0.0
  0
VERTEX
  5
24E
100
AcDbEntity
  8
0
370
     0
390
0
100
AcDbVertex
100
AcDb2dVertex
 10
114.0084
 20
56.562237
 30
0.0
  0
VERTEX
  5
24F
100
AcDbEntity
  8
0
370
     0
390
0
100
AcDbVertex
100
AcDb2dVertex
 10
112.643402
 20
56.562237
 30
0.0
  0
SEQEND
  5
250
100
AcDbEntity
  8
0
370
     0
390
0
  0
POLYLINE
  5
251
100
AcDbEntity
  8
0
370
    13
390
0
 62
     5
100
AcDb2dPolyline
 66
     1
 10
0.0
 20
0.0
 30
0.0
 70
     1
 71
     8
  0
VERTEX
  5
252
100
AcDbEntity
  8
0
370
     0
390
0
100
AcDbVertex
100
AcDb2dVertex
 10
114.918396
 20
53.902233
 30
0.0
  0
VERTEX
  5
253
100
AcDbEntity
  8
0
370
     0
390
0
100
AcDbVertex
100
AcDb2dVertex
 10
115.198395
 20
53.902233
 30
0.0
  0
VERTEX
  5
254
100
AcDbEntity
  8
0
370
     0
390
0
100
AcDbVertex
100
AcDb2dVertex
 10
115.408394
 20
54.112232
 30
0.0
  0
VERTEX
  5
255
100
AcDbEntity
  8
0
370
     0
390
0
100
AcDbVertex
100
AcDb2dVertex
 10
115.408394
 20
54.392239
 30
0.0
  0
VERTEX
  5
256
100
AcDbEntity
  8
0
370
     0
390
0
100
AcDbVertex
100
AcDb2dVertex
 10
115.198395
 20
54.602238
 30
0.0
  0
VERTEX
  5
257
100
AcDbEntity
  8
0
370
     0
390
0
100
AcDbVertex
100
AcDb2dVertex
 10
114.918396
 20
54.602238
 30
0.0
  0
VERTEX
  5
258
100
AcDbEntity
  8
0
370
     0
390
0
100
AcDbVertex
100
AcDb2dVertex
 10
114.708397
 20
54.392239
 30
0.0
  0
VERTEX
  5
259
100
AcDbEntity
  8
0
370
     0
390
0
100
AcDbVertex
100
AcDb2dVertex
 10
114.708397
 20
54.112232
 30
0.0
  0
SEQEND
  5
25A
100
AcDbEntity
  8
0
370
     0
390
0
  0
POLYLINE
  5
25B
100
AcDbEntity
  8
0
370
    13
390
0
 62
     5
100
AcDb2dPolyline
 66
     1
 10
0.0
 20
0.0
 30
0.0
 71
     2
  0
VERTEX
  5
25C
100
AcDbEntity
  8
0
370
     0
390
0
100
AcDbVertex
100
AcDb2dVertex
 10
114.778397
 20
54.462238
 30
0.0
  0
VERTEX
  5
25D
100
AcDbEntity
  8
0
370
     0
390
0
100
AcDbVertex
100
AcDb2dVertex
 10
115.338394
 20
54.462238
 30
0.0
  0
SEQEND
  5
25E
100
AcDbEntity
  8
0
370
     0
390
0
  0
POLYLINE
  5
25F
100
AcDbEntity
  8
0
370
    13
390
0
 62
     5
100
AcDb2dPolyline
 66
     1
 10
0.0
 20
0.0
 30
0.0
 71
     2
  0
VERTEX
  5
260
100
AcDbEntity
  8
0
370
     0
390
0
100
AcDbVertex
100
AcDb2dVertex
 10
115.408394
 20
54.252232
 30
0.0
  0
VERTEX
  5
261
100
AcDbEntity
  8
0
370
     0
390
0
100
AcDbVertex
100
AcDb2dVertex
 10
114.708397
 20
54.252232
 30
0.0
  0
SEQEND
  5
262
100
AcDbEntity
  8
0
370
     0
390
0
  0
POLYLINE
  5
263
100
AcDbEntity
  8
0
370
    13
390
0
 62
     5
100
AcDb2dPolyline
 66
     1
 10
0.0
 20
0.0
 30
0.0
 71
     2
  0
VERTEX
  5
264
100
AcDbEntity
  8
0
370
     0
390
0
100
AcDbVertex
100
AcDb2dVertex
 10
114.778397
 20
54.042233
 30
0.0
  0
VERTEX
  5
265
100
AcDbEntity
  8
0
370
     0
390
0
100
AcDbVertex
100
AcDb2dVertex
 10
115.338394
 20
54.042233
 30
0.0
  0
SEQEND
  5
266
100
AcDbEntity
  8
0
370
     0
390
0
  0
POLYLINE
  5
267
100
AcDbEntity
  8
0
370
    13
390
0
 62
     5
100
AcDb2dPolyline
 66
     1
 10
0.0
 20
0.0
 30
0.0
 71
    13
  0
VERTEX
  5
268
100
AcDbEntity
  8
0
370
     0
390
0
100
AcDbVertex
100
AcDb2dVertex
 10
116.108398
 20
54.217236
 30
0.0
  0
VERTEX
  5
269
100
AcDbEntity
  8
0
370
     0
390
0
100
AcDbVertex
100
AcDb2dVertex
 10
116.178398
 20
54.007236
 30
0.0
  0
VERTEX
  5
26A
100
AcDbEntity
  8
0
370
     0
390
0
100
AcDbVertex
100
AcDb2dVertex
 10
116.283394
 20
53.832233
 30
0.0
  0
VERTEX
  5
26B
100
AcDbEntity
  8
0
370
     0
390
0
100
AcDbVertex
100
AcDb2dVertex
 10
116.493393
 20
53.762234
 30
0.0
  0
VERTEX
  5
26C
100
AcDbEntity
  8
0
370
     0
390
0
100
AcDbVertex
100
AcDb2dVertex
 10
116.913399
 20
53.762234
 30
0.0
  0
VERTEX
  5
26D
100
AcDbEntity
  8
0
370
     0
390
0
100
AcDbVertex
100
AcDb2dVertex
 10
117.088394
 20
53.867237
 30
0.0
  0
VERTEX
  5
26E
100
AcDbEntity
  8
0
370
     0
390
0
100
AcDbVertex
100
AcDb2dVertex
 10
117.333397
 20
54.077236
 30
0.0
  0
VERTEX
  5
26F
100
AcDbEntity
  8
0
370
     0
390
0
100
AcDbVertex
100
AcDb2dVertex
 10
117.543396
 20
55.022236
 30
0.0
  0
VERTEX
  5
270
100
AcDbEntity
  8
0
370
     0
390
0
100
AcDbVertex
100
AcDb2dVertex
 10
117.403397
 20
55.267239
 30
0.0
  0
VERTEX
  5
271
100
AcDbEntity
  8
0
370
     0
390
0
100
AcDbVertex
100
AcDb2dVertex
 10
117.123398
 20
55.407238
 30
0.0
  0
VERTEX
  5
272
100
AcDbEntity
  8
0
370
     0
390
0
100
AcDbVertex
100
AcDb2dVertex
 10
116.843391
 20
55.337238
 30
0.0
  0
VERTEX
  5
273
100
AcDbEntity
  8
0
370
     0
390
0
100
AcDbVertex
100
AcDb2dVertex
 10
117.543396
 20
56.562237
 30
0.0
  0
VERTEX
  5
274
100
AcDbEntity
  8
0
370
     0
390
0
100
AcDbVertex
100
AcDb2dVertex
 10
116.283394
 20
56.562237
 30
0.0
  0
SEQEND
  5
275
100
AcDbEntity
  8
0
370
     0
390
0
  0
LINE
  5
276
100
AcDbEntity
  8
0
370
    13
390
0
 62
     5
 48
0.178429
100
AcDbLine
 10
90.218399
 20
56.549397
 30
0.0
 11
90.218399
 21
49.412235
 31
0.0
210
0.0
220
0.0
230
1.0
  0
LINE
  5
277
100
AcDbEntity
  8
0
370
    13
390
0
 62
     5
 48
0.178429
100
AcDbLine
 10
137.518402
 20
56.549397
 30
0.0
 11
137.518402
 21
49.412235
 31
0.0
210
0.0
220
0.0
230
1.0
  0
POLYLINE
  5
278
100
AcDbEntity
  8
0
370
    13
390
0
 62
     5
100
AcDb2dPolyline
 66
     1
 10
0.0
 20
0.0
 30
0.0
 71
     3
  0
VERTEX
  5
279
100
AcDbEntity
  8
0
370
     0
390
0
100
AcDbVertex
100
AcDb2dVertex
 10
92.150253
 20
51.929874
 30
0.0
  0
VERTEX
  5
27A
100
AcDbEntity
  8
0
370
     0
390
0
100
AcDbVertex
100
AcDb2dVertex
 10
90.218399
 20
51.412235
 30
0.0
  0
VERTEX
  5
27B
100
AcDbEntity
  8
0
370
     0
390
0
100
AcDbVertex
100
AcDb2dVertex
 10
92.150253
 20
50.894596
 30
0.0
  0
SEQEND
  5
27C
100
AcDbEntity
  8
0
370
     0
390
0
  0
POLYLINE
  5
27D
100
AcDbEntity
  8
0
370
    13
390
0
 62
     5
100
AcDb2dPolyline
 66
     1
 10
0.0
 20
0.0
 30
0.0
 71
     3
  0
VERTEX
  5
27E
100
AcDbEntity
  8
0
370
     0
390
0
100
AcDbVertex
100
AcDb2dVertex
 10
135.586548
 20
50.894596
 30
0.0
  0
VERTEX
  5
27F
100
AcDbEntity
  8
0
370
     0
390
0
100
AcDbVertex
100
AcDb2dVertex
 10
137.518402
 20
51.412235
 30
0.0
  0
VERTEX
  5
280
100
AcDbEntity
  8
0
370
     0
390
0
100
AcDbVertex
100
AcDb2dVertex
 10
135.586548
 20
51.929874
 30
0.0
  0
SEQEND
  5
281
100
AcDbEntity
  8
0
370
     0
390
0
  0
LINE
  5
282
100
AcDbEntity
  8
0
370
    13
390
0
 62
     5
100
AcDbLine
 10
90.218399
 20
51.412235
 30
0.0
 11
137.518402
 21
51.412235
 31
0.0
210
0.0
220
0.0
230
1.0
  0
LINE
  5
283
100
AcDbEntity
  8
0
370
    35
390
0
 62
   216
 48
0.135255
100
AcDbLine
 10
90.218399
 20
72.549805
 30
0.0
 11
95.628601
 21
72.549805
 31
0.0
210
0.0
220
0.0
230
1.0
  0
LINE
  5
284
100
AcDbEntity
  8
0
370
    35
390
0
 62
   216
 48
0.2075
100
AcDbLine
 10
95.628601
 20
72.570206
 30
0.0
 11
95.628601
 21
80.870193
 31
0.0
210
0.0
220
0.0
230
1.0
  0
LINE
  5
285
100
AcDbEntity
  8
0
370
    35
390
0
 62
   216
 48
0.005
100
AcDbLine
 10
95.628601
 20
80.875992
 30
0.0
 11
95.428596
 21
80.875992
 31
0.0
210
0.0
220
0.0
230
1.0
  0
LINE
  5
286
100
AcDbEntity
  8
0
370
    35
390
0
 62
   216
 48
0.005
100
AcDbLine
 10
95.428596
 20
80.875992
 30
0.0
 11
95.628601
 21
80.875992
 31
0.0
210
0.0
220
0.0
230
1.0
  0
LINE
  5
287
100
AcDbEntity
  8
0
370
    35
390
0
 62
   216
 48
0.135
100
AcDbLine
 10
90.218399
 20
80.875992
 30
0.0
 11
95.618401
 21
80.875992
 31
0.0
210
0.0
220
0.0
230
1.0
  0
LINE
  5
288
100
AcDbEntity
  8
0
370
    35
390
0
 62
   216
 48
0.005
100
AcDbLine
 10
90.418396
 20
80.875992
 30
0.0
 11
90.218399
 21
80.875992
 31
0.0
210
0.0
220
0.0
230
1.0
  0
LINE
  5
289
100
AcDbEntity
  8
0
370
    35
390
0
 62
   216
 48
0.005
100
AcDbLine
 10
90.218399
 20
80.875992
 30
0.0
 11
90.418396
 21
80.875992
 31
0.0
210
0.0
220
0.0
230
1.0
  0
LINE
  5
28A
100
AcDbEntity
  8
0
370
    35
390
0
 62
   216
 48
0.005
100
AcDbLine
 10
95.628601
 20
80.875992
 30
0.0
 11
95.428596
 21
80.875992
 31
0.0
210
0.0
220
0.0
230
1.0
  0
LINE
  5
28B
100
AcDbEntity
  8
0
370
    35
390
0
 62
   216
 48
0.005
100
AcDbLine
 10
95.428596
 20
80.875992
 30
0.0
 11
95.628601
 21
80.875992
 31
0.0
210
0.0
220
0.0
230
1.0
  0
LINE
  5
28C
100
AcDbEntity
  8
0
370
    35
390
0
 62
   216
 48
0.005
100
AcDbLine
 10
128.641357
 20
103.651047
 30
0.0
 11
128.441345
 21
103.651047
 31
0.0
210
0.0
220
0.0
230
1.0
  0
LINE
  5
28D
100
AcDbEntity
  8
0
370
    35
390
0
 62
   216
 48
0.005
100
AcDbLine
 10
128.441345
 20
103.651047
 30
0.0
 11
128.241348
 21
103.651047
 31
0.0
210
0.0
220
0.0
230
1.0
  0
LINE
  5
28E
100
AcDbEntity
  8
0
370
    35
390
0
 62
   216
 48
0.005
100
AcDbLine
 10
128.241348
 20
103.651047
 30
0.0
 11
128.441345
 21
103.651047
 31
0.0
210
0.0
220
0.0
230
1.0
  0
LINE
  5
28F
100
AcDbEntity
  8
0
370
    35
390
0
 62
   216
 48
0.005
100
AcDbLine
 10
128.441345
 20
103.651047
 30
0.0
 11
128.641357
 21
103.651047
 31
0.0
210
0.0
220
0.0
230
1.0
  0
LINE
  5
290
100
AcDbEntity
  8
0
370
    35
390
0
 62
   216
 48
0.005
100
AcDbLine
 10
137.563995
 20
103.651047
 30
0.0
 11
137.363998
 21
103.651047
 31
0.0
210
0.0
220
0.0
230
1.0
  0
LINE
  5
291
100
AcDbEntity
  8
0
370
    35
390
0
 62
   216
 48
0.005
100
AcDbLine
 10
137.363998
 20
103.651047
 30
0.0
 11
137.563995
 21
103.651047
 31
0.0
210
0.0
220
0.0
230
1.0
  0
LINE
  5
292
100
AcDbEntity
  8
0
370
    35
390
0
 62
   216
100
AcDbLine
 10
137.563995
 20
74.627594
 30
0.0
 11
137.563995
 21
103.627594
 31
0.0
210
0.0
220
0.0
230
1.0
  0
LINE
  5
293
100
AcDbEntity
  8
0
370
    35
390
0
 62
   216
 48
0.005
100
AcDbLine
 10
137.563995
 20
58.549397
 30
0.0
 11
137.363998
 21
58.549397
 31
0.0
210
0.0
220
0.0
230
1.0
  0
LINE
  5
294
100
AcDbEntity
  8
0
370
    35
390
0
 62
   216
 48
0.005
100
AcDbLine
 10
137.363998
 20
58.549397
 30
0.0
 11
137.563995
 21
58.549397
 31
0.0
210
0.0
220
0.0
230
1.0
  0
LINE
  5
295
100
AcDbEntity
  8
0
370
    35
390
0
 62
   216
 48
0.005
100
AcDbLine
 10
137.563995
 20
103.651047
 30
0.0
 11
137.363998
 21
103.651047
 31
0.0
210
0.0
220
0.0
230
1.0
  0
LINE
  5
296
100
AcDbEntity
  8
0
370
    35
390
0
 62
   216
 48
0.005
100
AcDbLine
 10
137.363998
 20
103.651047
 30
0.0
 11
137.563995
 21
103.651047
 31
0.0
210
0.0
220
0.0
230
1.0
  0
LINE
  5
297
100
AcDbEntity
  8
0
370
    35
390
0
 62
   216
100
AcDbLine
 10
90.218399
 20
58.549397
 30
0.0
 11
137.518402
 21
58.549397
 31
0.0
210
0.0
220
0.0
230
1.0
  0
LINE
  5
298
100
AcDbEntity
  8
0
370
    35
390
0
 62
   216
 48
0.005
100
AcDbLine
 10
90.418396
 20
58.549397
 30
0.0
 11
90.218399
 21
58.549397
 31
0.0
210
0.0
220
0.0
230
1.0
  0
LINE
  5
299
100
AcDbEntity
  8
0
370
    35
390
0
 62
   216
 48
0.005
100
AcDbLine
 10
90.218399
 20
58.549397
 30
0.0
 11
90.418396
 21
58.549397
 31
0.0
210
0.0
220
0.0
230
1.0
  0
LINE
  5
29A
100
AcDbEntity
  8
0
370
    35
390
0
 62
   216
 48
0.005
100
AcDbLine
 10
137.563995
 20
58.549397
 30
0.0
 11
137.363998
 21
58.549397
 31
0.0
210
0.0
220
0.0
230
1.0
  0
LINE
  5
29B
100
AcDbEntity
  8
0
370
    35
390
0
 62
   216
 48
0.005
100
AcDbLine
 10
137.363998
 20
58.549397
 30
0.0
 11
137.563995
 21
58.549397
 31
0.0
210
0.0
220
0.0
230
1.0
  0
LINE
  5
29C
100
AcDbEntity
  8
0
370
    35
390
0
 62
   216
 48
0.35
100
AcDbLine
 10
90.218399
 20
58.549801
 30
0.0
 11
90.218399
 21
72.549805
 31
0.0
210
0.0
220
0.0
230
1.0
  0
LINE
  5
29D
100
AcDbEntity
  8
0
370
    35
390
0
 62
   216
 48
0.005
100
AcDbLine
 10
90.418396
 20
58.549397
 30
0.0
 11
90.218399
 21
58.549397
 31
0.0
210
0.0
220
0.0
230
1.0
  0
LINE
  5
29E
100
AcDbEntity
  8
0
370
    35
390
0
 62
   216
 48
0.005
100
AcDbLine
 10
90.218399
 20
58.549397
 30
0.0
 11
90.418396
 21
58.549397
 31
0.0
210
0.0
220
0.0
230
1.0
  0
LINE
  5
29F
100
AcDbEntity
  8
0
370
    35
390
0
 62
   216
 48
0.005
100
AcDbLine
 10
90.418396
 20
99.189392
 30
0.0
 11
90.218399
 21
99.189392
 31
0.0
210
0.0
220
0.0
230
1.0
  0
LINE
  5
2A0
100
AcDbEntity
  8
0
370
    35
390
0
 62
   216
 48
0.005
100
AcDbLine
 10
90.218399
 20
99.189392
 30
0.0
 11
90.418396
 21
99.189392
 31
0.0
210
0.0
220
0.0
230
1.0
  0
LINE
  5
2A1
100
AcDbEntity
  8
0
370
    35
390
0
 62
   216
 48
0.145
100
AcDbLine
 10
90.218399
 20
99.189392
 30
0.0
 11
96.018394
 21
99.189392
 31
0.0
210
0.0
220
0.0
230
1.0
  0
LINE
  5
2A2
100
AcDbEntity
  8
0
370
    35
390
0
 62
   216
 48
0.005
100
AcDbLine
 10
90.418396
 20
99.189392
 30
0.0
 11
90.218399
 21
99.189392
 31
0.0
210
0.0
220
0.0
230
1.0
  0
LINE
  5
2A3
100
AcDbEntity
  8
0
370
    35
390
0
 62
   216
 48
0.005
100
AcDbLine
 10
90.218399
 20
99.189392
 30
0.0
 11
90.418396
 21
99.189392
 31
0.0
210
0.0
220
0.0
230
1.0
  0
LINE
  5
2A4
100
AcDbEntity
  8
0
370
    35
390
0
 62
   216
 48
0.005
100
AcDbLine
 10
96.009598
 20
99.189392
 30
0.0
 11
95.809601
 21
99.189392
 31
0.0
210
0.0
220
0.0
230
1.0
  0
LINE
  5
2A5
100
AcDbEntity
  8
0
370
    35
390
0
 62
   216
 48
0.005
100
AcDbLine
 10
95.809601
 20
99.189392
 30
0.0
 11
96.009598
 21
99.189392
 31
0.0
210
0.0
220
0.0
230
1.0
  0
LINE
  5
2A6
100
AcDbEntity
  8
0
370
    35
390
0
 62
   216
 48
0.11125
100
AcDbLine
 10
96.009598
 20
99.189392
 30
0.0
 11
96.009598
 21
103.639404
 31
0.0
210
0.0
220
0.0
230
1.0
  0
LINE
  5
2A7
100
AcDbEntity
  8
0
370
    35
390
0
 62
   216
 48
0.005
100
AcDbLine
 10
96.009598
 20
99.189392
 30
0.0
 11
95.809601
 21
99.189392
 31
0.0
210
0.0
220
0.0
230
1.0
  0
LINE
  5
2A8
100
AcDbEntity
  8
0
370
    35
390
0
 62
   216
 48
0.005
100
AcDbLine
 10
95.809601
 20
99.189392
 30
0.0
 11
96.009598
 21
99.189392
 31
0.0
210
0.0
220
0.0
230
1.0
  0
LINE
  5
2A9
100
AcDbEntity
  8
0
370
    35
390
0
 62
   216
 48
0.005
100
AcDbLine
 10
96.209595
 20
103.651047
 30
0.0
 11
96.009598
 21
103.651047
 31
0.0
210
0.0
220
0.0
230
1.0
  0
LINE
  5
2AA
100
AcDbEntity
  8
0
370
    35
390
0
 62
   216
 48
0.005
100
AcDbLine
 10
96.009598
 20
103.651047
 30
0.0
 11
96.209595
 21
103.651047
 31
0.0
210
0.0
220
0.0
230
1.0
  0
LINE
  5
2AB
100
AcDbEntity
  8
0
370
    35
390
0
 62
   216
100
AcDbLine
 10
96.009598
 20
103.651047
 30
0.0
 11
137.609589
 21
103.651047
 31
0.0
210
0.0
220
0.0
230
1.0
  0
LINE
  5
2AC
100
AcDbEntity
  8
0
370
    35
390
0
 62
   216
 48
0.005
100
AcDbLine
 10
96.209595
 20
103.651047
 30
0.0
 11
96.009598
 21
103.651047
 31
0.0
210
0.0
220
0.0
230
1.0
  0
LINE
  5
2AD
100
AcDbEntity
  8
0
370
    35
390
0
 62
   216
 48
0.005
100
AcDbLine
 10
96.009598
 20
103.651047
 30
0.0
 11
96.209595
 21
103.651047
 31
0.0
210
0.0
220
0.0
230
1.0
  0
LINE
  5
2AE
100
AcDbEntity
  8
0
370
    35
390
0
 62
   216
 48
0.005
100
AcDbLine
 10
128.641357
 20
103.651047
 30
0.0
 11
128.441345
 21
103.651047
 31
0.0
210
0.0
220
0.0
230
1.0
  0
LINE
  5
2AF
100
AcDbEntity
  8
0
370
    35
390
0
 62
   216
 48
0.005
100
AcDbLine
 10
128.441345
 20
103.651047
 30
0.0
 11
128.241348
 21
103.651047
 31
0.0
210
0.0
220
0.0
230
1.0
  0
LINE
  5
2B0
100
AcDbEntity
  8
0
370
    35
390
0
 62
   216
 48
0.005
100
AcDbLine
 10
128.241348
 20
103.651047
 30
0.0
 11
128.441345
 21
103.651047
 31
0.0
210
0.0
220
0.0
230
1.0
  0
LINE
  5
2B1
100
AcDbEntity
  8
0
370
    35
390
0
 62
   216
 48
0.005
100
AcDbLine
 10
128.441345
 20
103.651047
 30
0.0
 11
128.641357
 21
103.651047
 31
0.0
210
0.0
220
0.0
230
1.0
  0
LINE
  5
2B2
100
AcDbEntity
  8
0
370
    35
390
0
 62
   216
 48
0.4575
100
AcDbLine
 10
90.218399
 20
80.875992
 30
0.0
 11
90.218399
 21
99.175995
 31
0.0
210
0.0
220
0.0
230
1.0
  0
ENDSEC
  0
SECTION
  2
OBJECTS
  0
DICTIONARY
  5
19
100
AcDbDictionary
280
     0
281
     1
  3
ACAD_GROUP
350
1A
  3
ACAD_MLINESTYLE
350
1B
  3
ACAD_LAYOUT
350
1E
  3
ACAD_PLOTSETTINGS
350
22
  3
ACAD_PLOTSTYLENAME
350
1F
  3
ACAD_WIPEOUT_VARS
350
23
  0
DICTIONARY
  5
1A
102
{ACAD_REACTORS
330
19
102
}
100
AcDbDictionary
280
     0
281
     1
  0
DICTIONARY
  5
1B
102
{ACAD_REACTORS
330
19
102
}
100
AcDbDictionary
280
     0
281
     1
  3
Standard
350
1C
  0
MLINESTYLE
  5
1C
102
{ACAD_REACTORS
330
1B
102
}
100
AcDbMlineStyle
  2
Standard
 70
     0
  3

 62
     0
 51
90.0
 52
90.0
 71
     2
 49
0.5
 62
   256
  6
ByLayer
 49
-0.5
 62
   256
  6
ByLayer
  0
ACDBDICTIONARYWDFLT
  5
1F
102
{ACAD_REACTORS
330
19
102
}
100
AcDbDictionary
281
     1
  3
Normal
350
1D
100
AcDbDictionaryWithDefault
340
1D
  0
ACDBPLACEHOLDER
  5
1D
102
{ACAD_REACTORS
330
1F
102
}
  0
LAYOUT
  5
20
102
{ACAD_REACTORS
330
1E
102
}
100
AcDbPlotSettings
  1

  2

  4

  6

 40
0.0
 41
0.0
 42
0.0
 43
0.0
 44
0.0
 45
0.0
 46
0.0
 47
0.0
 48
0.0
 49
0.0
140
0.0
141
0.0
142
1.0
143
1.0
 70
  1024
 72
     0
 73
     0
 74
     0
  7

 75
     0
147
1.0
148
0.0
149
0.0
100
AcDbLayout
  1
Model
 70
     0
 71
     0
 10
0.0
 20
0.0
 11
0.0
 21
0.0
 12
0.0
 22
0.0
 32
0.0
 14
0.0
 24
0.0
 34
0.0
 15
0.0
 25
0.0
 35
0.0
146
0.0
 13
0.0
 23
0.0
 33
0.0
 16
0.0
 26
0.0
 36
0.0
 17
0.0
 27
0.0
 37
0.0
 76
     0
330
A
331
0
345
0
346
0
  0
LAYOUT
  5
21
102
{ACAD_REACTORS
330
1E
102
}
100
AcDbPlotSettings
  1

  2

  4

  6

 40
0.0
 41
0.0
 42
0.0
 43
0.0
 44
0.0
 45
0.0
 46
0.0
 47
0.0
 48
0.0
 49
0.0
140
0.0
141
0.0
142
1.0
143
1.0
 70
     0
 72
     0
 73
     0
 74
     0
  7

 75
     0
147
1.0
148
0.0
149
0.0
100
AcDbLayout
  1
Layout1
 70
     0
 71
     0
 10
0.0
 20
0.0
 11
0.0
 21
0.0
 12
0.0
 22
0.0
 32
0.0
 14
0.0
 24
0.0
 34
0.0
 15
0.0
 25
0.0
 35
0.0
146
0.0
 13
0.0
 23
0.0
 33
0.0
 16
0.0
 26
0.0
 36
0.0
 17
0.0
 27
0.0
 37
0.0
 76
     0
330
B
331
0
345
0
346
0
  0
DICTIONARY
  5
1E
102
{ACAD_REACTORS
330
19
102
}
100
AcDbDictionary
280
     0
281
     1
  3
Layout1
350
21
  3
Model
350
20
  0
DICTIONARY
  5
22
102
{ACAD_REACTORS
330
19
102
}
100
AcDbDictionary
280
     0
281
     1
  0
WIPEOUTVARIABLES
  5
23
100
AcDbWipeoutVariables
 70
     1
  0
ENDSEC
  0
EOF
