%FSLAX25Y25*%
%MOIN*%
G70*
G01*
G75*
G04 Layer_Color=32896*
%ADD10C,0.01000*%
%ADD11R,0.04843X0.05354*%
%ADD12C,0.03000*%
%ADD13C,0.00500*%
%ADD14C,0.00600*%
%ADD15O,0.06000X0.03000*%
%ADD16R,0.06000X0.03000*%
%ADD17R,0.02362X0.02362*%
%ADD18C,0.02000*%
%ADD19C,0.05000*%
%ADD20R,0.03347X0.02756*%
%ADD21R,0.05118X0.03937*%
%ADD22R,0.02559X0.05315*%
%ADD23O,0.01772X0.05709*%
%ADD24R,0.05643X0.06154*%
%ADD25O,0.06800X0.03800*%
%ADD26R,0.06800X0.03800*%
%ADD27R,0.03162X0.03162*%
%ADD28R,0.04147X0.03556*%
%ADD29R,0.05918X0.04737*%
%ADD30R,0.03359X0.06115*%
%ADD31O,0.02572X0.06509*%
%ADD32C,0.02362*%
%ADD33C,0.00984*%
%ADD34C,0.00787*%
D10*
X1Y48443D02*
Y54441D01*
X-2998D01*
X-3997Y53441D01*
Y51442D01*
X-2998Y50442D01*
X1D01*
X-9995Y48443D02*
X-5997D01*
X-9995Y52441D01*
Y53441D01*
X-8996Y54441D01*
X-6996D01*
X-5997Y53441D01*
X-15993Y48443D02*
X-11995D01*
X-15993Y52441D01*
Y53441D01*
X-14994Y54441D01*
X-12994D01*
X-11995Y53441D01*
X-21991Y48443D02*
X-17993D01*
X-21991Y52441D01*
Y53441D01*
X-20992Y54441D01*
X-18992D01*
X-17993Y53441D01*
X111202Y48443D02*
Y54441D01*
X108202D01*
X107203Y53441D01*
Y51442D01*
X108202Y50442D01*
X111202D01*
X105203Y48443D02*
X103204D01*
X104204D01*
Y54441D01*
X105203Y53441D01*
X100205Y48443D02*
X98206D01*
X99205D01*
Y54441D01*
X100205Y53441D01*
X95207Y48443D02*
X93207D01*
X94207D01*
Y54441D01*
X95207Y53441D01*
X76903Y33541D02*
X77902Y34541D01*
X79902D01*
X80901Y33541D01*
Y29542D01*
X79902Y28543D01*
X77902D01*
X76903Y29542D01*
X74903D02*
X73904Y28543D01*
X71904D01*
X70905Y29542D01*
Y33541D01*
X71904Y34541D01*
X73904D01*
X74903Y33541D01*
Y32541D01*
X73904Y31542D01*
X70905D01*
X68905Y29542D02*
X67906Y28543D01*
X65906D01*
X64907Y29542D01*
Y33541D01*
X65906Y34541D01*
X67906D01*
X68905Y33541D01*
Y32541D01*
X67906Y31542D01*
X64907D01*
X85903Y34341D02*
X86902Y35341D01*
X88902D01*
X89902Y34341D01*
Y30342D01*
X88902Y29343D01*
X86902D01*
X85903Y30342D01*
X83903D02*
X82904Y29343D01*
X80904D01*
X79905Y30342D01*
Y34341D01*
X80904Y35341D01*
X82904D01*
X83903Y34341D01*
Y33341D01*
X82904Y32342D01*
X79905D01*
X77905Y34341D02*
X76906Y35341D01*
X74906D01*
X73907Y34341D01*
Y33341D01*
X74906Y32342D01*
X73907Y31342D01*
Y30342D01*
X74906Y29343D01*
X76906D01*
X77905Y30342D01*
Y31342D01*
X76906Y32342D01*
X77905Y33341D01*
Y34341D01*
X76906Y32342D02*
X74906D01*
X10102Y14141D02*
Y8143D01*
X7102D01*
X6103Y9142D01*
Y13141D01*
X7102Y14141D01*
X10102D01*
X4103Y13141D02*
X3104Y14141D01*
X1104D01*
X105Y13141D01*
Y12141D01*
X1104Y11142D01*
X105Y10142D01*
Y9142D01*
X1104Y8143D01*
X3104D01*
X4103Y9142D01*
Y10142D01*
X3104Y11142D01*
X4103Y12141D01*
Y13141D01*
X3104Y11142D02*
X1104D01*
X-1895Y13141D02*
X-2894Y14141D01*
X-4894D01*
X-5893Y13141D01*
Y12141D01*
X-4894Y11142D01*
X-5893Y10142D01*
Y9142D01*
X-4894Y8143D01*
X-2894D01*
X-1895Y9142D01*
Y10142D01*
X-2894Y11142D01*
X-1895Y12141D01*
Y13141D01*
X-2894Y11142D02*
X-4894D01*
X7102Y13543D02*
Y19541D01*
X4102D01*
X3103Y18541D01*
Y16542D01*
X4102Y15542D01*
X7102D01*
X5102D02*
X3103Y13543D01*
X1103Y19541D02*
X-2895D01*
Y18541D01*
X1103Y14542D01*
Y13543D01*
X-4895Y18541D02*
X-5894Y19541D01*
X-7894D01*
X-8893Y18541D01*
Y14542D01*
X-7894Y13543D01*
X-5894D01*
X-4895Y14542D01*
Y18541D01*
X-10893Y19541D02*
X-14891D01*
Y18541D01*
X-10893Y14542D01*
Y13543D01*
X66702Y59441D02*
Y54442D01*
X65702Y53443D01*
X63702D01*
X62703Y54442D01*
Y59441D01*
X56705Y53443D02*
X60703D01*
X56705Y57441D01*
Y58441D01*
X57704Y59441D01*
X59704D01*
X60703Y58441D01*
X50707Y53443D02*
X54705D01*
X50707Y57441D01*
Y58441D01*
X51706Y59441D01*
X53706D01*
X54705Y58441D01*
X44709Y53443D02*
X48707D01*
X44709Y57441D01*
Y58441D01*
X45708Y59441D01*
X47708D01*
X48707Y58441D01*
X105300Y-24400D02*
Y-1250D01*
X0Y-24400D02*
Y-1250D01*
X68291Y-23400D02*
X105300D01*
X0D02*
X38100D01*
X99300Y-21400D02*
X105300Y-23400D01*
X99300Y-25400D02*
X105300Y-23400D01*
X0D02*
X6000Y-25400D01*
X0Y-23400D02*
X6000Y-21400D01*
X-42000Y0D02*
X-1250D01*
X-42000Y68946D02*
X-1250D01*
X-41000Y0D02*
Y19277D01*
Y46469D02*
Y68946D01*
Y0D02*
X-39000Y6000D01*
X-43000D02*
X-41000Y0D01*
X-43000Y62946D02*
X-41000Y68946D01*
X-39000Y62946D01*
D13*
X77335Y16219D02*
Y24487D01*
X78122Y25274D02*
X80878D01*
X78122Y15431D02*
X80878D01*
X81665Y16219D02*
Y24487D01*
X80878Y15431D02*
X81665Y16219D01*
X77335D02*
X78122Y15431D01*
X77335Y24487D02*
X78122Y25274D01*
X80878D02*
X81665Y24487D01*
X84350Y25146D02*
X85335Y26130D01*
X84350Y25146D02*
X84350D01*
X89665Y26130D02*
X90650Y25146D01*
X84350Y13728D02*
X85335Y12744D01*
X89665D02*
X90650Y13728D01*
X85335Y12744D02*
X89665D01*
X90650Y13728D02*
Y25146D01*
X85335Y26130D02*
X89665D01*
X84350Y13728D02*
Y25146D01*
X788Y7125D02*
Y10275D01*
X7875Y7125D02*
Y10275D01*
X788D02*
X7875D01*
X788Y7125D02*
X7875D01*
X-100Y4850D02*
X9600D01*
X3138Y3700D02*
X5106Y1732D01*
X3138Y-237D02*
X5106Y1732D01*
X3138Y-237D02*
Y3700D01*
X5500Y-237D02*
Y3700D01*
X-100Y-1450D02*
X9600D01*
X-9055Y-18504D02*
Y88386D01*
X-8900D02*
X112992D01*
Y-18504D02*
Y88400D01*
X-9055Y-18504D02*
X113100D01*
D14*
X43699Y-28100D02*
X39700D01*
X43699Y-24101D01*
Y-23102D01*
X42699Y-22102D01*
X40700D01*
X39700Y-23102D01*
X49697Y-22102D02*
X47697Y-23102D01*
X45698Y-25101D01*
Y-27100D01*
X46698Y-28100D01*
X48697D01*
X49697Y-27100D01*
Y-26101D01*
X48697Y-25101D01*
X45698D01*
X51696Y-28100D02*
Y-27100D01*
X52696D01*
Y-28100D01*
X51696D01*
X56695Y-22102D02*
X60693D01*
Y-23102D01*
X56695Y-27100D01*
Y-28100D01*
X66691Y-22102D02*
X62693D01*
Y-25101D01*
X64692Y-24101D01*
X65692D01*
X66691Y-25101D01*
Y-27100D01*
X65692Y-28100D01*
X63692D01*
X62693Y-27100D01*
X-37401Y20877D02*
Y22876D01*
Y21877D01*
X-43399D01*
X-42399Y20877D01*
X-43399Y25875D02*
Y29874D01*
X-42399D01*
X-38401Y25875D01*
X-37401D01*
Y31873D02*
X-38401D01*
Y32873D01*
X-37401D01*
Y31873D01*
X-43399Y40870D02*
Y36872D01*
X-40400D01*
X-41400Y38871D01*
Y39871D01*
X-40400Y40870D01*
X-38401D01*
X-37401Y39871D01*
Y37871D01*
X-38401Y36872D01*
X-37401Y42870D02*
Y44869D01*
Y43869D01*
X-43399D01*
X-42399Y42870D01*
D32*
X62198Y31791D02*
G03*
X62198Y31791I-1181J0D01*
G01*
D33*
X67218Y23425D02*
G03*
X67218Y23425I-492J0D01*
G01*
D34*
X-7400Y24900D02*
X600D01*
X-7400D02*
Y45000D01*
X-7387D02*
X612D01*
X-7400Y40000D02*
X600D01*
Y24900D02*
Y45000D01*
X103800Y24900D02*
X111800D01*
X103800D02*
Y45000D01*
X103813D02*
X111813D01*
X103800Y40000D02*
X111800D01*
Y24900D02*
Y45000D01*
X34246Y27854D02*
Y42028D01*
X64954Y27854D02*
Y42028D01*
X34246D02*
X64954D01*
X34246Y27854D02*
X64954D01*
M02*
