M48
;Layer_Color=9474304
;FILE_FORMAT=2:5
INCH,LZ
;TYPE=PLATED
T1F00S00C0.01200
T2F00S00C0.02000
T3F00S00C0.02500
T4F00S00C0.03300
T5F00S00C0.03346
T6F00S00C0.03543
T7F00S00C0.03937
T8F00S00C0.04000
T9F00S00C0.04724
T11F00S00C0.07283
T12F00S00C0.12205
%
T01
X0106577Y-03024
X0110077
X0126477Y-03079
X0141677Y-03024
X0147577Y-03051
X0161077Y-03079
X0133277Y-03264
X0187777Y-03302
X0201377Y-03153
X0209477Y-03167
X0248177Y-03172
X0239677Y-03309
X0209477Y-02627
X0191577Y-02625
X0194477Y-02681
X0177577Y-02682
X0149377Y-02695
X0116777Y-02656
X0102877Y-02677
X0266177Y-02678
X0299777Y-02619
X0290077Y-03111
X02731Y-03139
X02735Y-03173
X0256077Y-03028
X0320477Y-03038
X0332477Y-03034
X0335209Y-0320499
X03388Y-03227
X0332477Y-02464
X0316077
X0295277Y-02558
X0268877Y-0254
X0280177Y-02406
X02663Y-0176
X02696Y-01723
X02791Y-01596
X02822Y-01485
X02696Y-01491
X02663Y-01483
X02669Y-01335
X02864Y-0122
X02841Y-01152
X0316Y-01134
Y-01041
X03213Y-01034
X03183Y-01234
X03213Y-0157
X0301677Y-01551
X0299177Y-01515
X02502Y-01431
X02503Y-0137
X02506Y-01287
X02504Y-01237
X02427Y-01335
X0233422Y-0134022
X0220578
X02223Y-01464
X02296Y-0164
X0199Y-01635
X01968Y-01688
X01886Y-01724
X01887Y-0176
X0191059Y-0158259
X01951Y-01586
X02015Y-01566
X0187122Y-01546
X0179248Y-0143582
X01793Y-01399
X01735Y-01424
X0170509Y-0135991
X01715Y-01307
X0171152Y-0126148
X0169735Y-0116305
X01774Y-01094
X01911Y-01059
X0196965Y-0121665
X020496Y-012966
X0206472Y-01124
X02277Y-01222
X023Y-0120243
X0193028Y-01402
X01636Y-01432
X01586Y-0138
X01485Y-01356
X017Y-01498
X0118477Y-01613
X0098277Y-01557
X0114777Y-02296
X0119877Y-02329
X0119777Y-02431
X0114777
X01501Y-02385
X0194477Y-02441
X0191477Y-02494
X0201577Y-02457
X0210803Y-0229497
X02278Y-02384
X02341Y-02329
X0242077Y-0184223
X0212713Y-01842
X0202Y-01913
X01853Y-02014
X0092377Y-01583
X0084677Y-01528
X0082177Y-01496
X0078977Y-01465
X0089177Y-01434
X0092377Y-01215
X0060577Y-01114
X0038677Y-01215
X0026477
X0022977Y-01598
X0070777Y-01583
X006492Y-017788
X00593Y-01814
X0084577Y-00394
X0082177Y-00365
X0078977Y-00336
X020287Y-005953
X02296Y-00573
X0233422Y-0096078
X02406Y-00914
X0194996Y-00924
X01872Y-00922
X0187122Y-0094878
X017897Y-00942
X0185Y-00785
X01873Y-00764
X0267677Y-0076177
X0269977Y-0078577
X027Y-00872
X02723Y-01012
X03183Y-01005
X03235Y-00959
X03296Y-00557
X03421Y-0054
X0294877Y-00418
X0274577Y-00456
X0269977Y-00338
X0267677Y-00314
X0304077Y-00165
X0308177Y-00148
T02
X00848Y-03147
X00929Y-03109
X0091Y-03041
X00847Y-03021
X0079877Y-0296
X01244Y-02737
X01319Y-02739
X01329Y-02666
X01392Y-02673
X01423Y-02735
X01236Y-02666
X01221Y-03469
X01975Y-03468
X02351Y-03424
X02432Y-03459
X02507Y-03481
X0182577Y-03128
X0178477
X0174077
X0257677Y-03123
X0262477
X0267177Y-0312
X02689Y-03481
X02773
X02856Y-03483
X02853Y-03556
X02937
X0294Y-0348
X03035Y-03478
X03024Y-03553
X03033Y-03741
X03029Y-03852
X0296Y-03905
X02598Y-03482
X03539Y-03415
X03529Y-03352
X03622Y-03351
X03627Y-03416
X03258Y-02756
X03267Y-02692
X03266Y-02624
X03199Y-02598
X03198Y-0266
X03118Y-02637
Y-02694
X03116Y-02577
X03199Y-02527
X03276Y-02546
X03263Y-02389
X03147Y-02399
X03145Y-02231
X03196Y-02108
X03294Y-02133
X03312Y-02267
X03011Y-02334
X02962Y-02195
X0291Y-02236
X02825Y-02322
X0274Y-02306
X02755Y-02216
X02646Y-02199
X02701Y-021
X02843
X03031
X02618Y-02331
X0312177Y-0143323
X0305603Y-0136101
X03044Y-0122
X03071Y-01117
X02494Y-01085
X02022Y-01103
X01847Y-01131
X0185Y-01215
X01832Y-01281
X01935Y-01275
X01562Y-01484
X01511Y-01751
X01639Y-01753
X01304Y-01724
X01167Y-01876
X01155Y-01962
X01043Y-01964
X01029Y-01861
X0108Y-02258
X01039Y-02385
X01253Y-02377
X0138Y-02387
X0137077Y-0247196
X0143577Y-02473
Y-02528
X0130577Y-0247
X01362Y-02252
X01244Y-02248
X0133Y-02159
X01328Y-02064
X01685Y-02115
X01667Y-02234
X01813
X01842Y-02142
X01978Y-02236
X02053Y-02384
X02147Y-02376
X0221Y-02265
X02493Y-02244
X0159877Y-02475
X01265Y-01261
X01263Y-01112
X0121377Y-01114
X00802Y-01561
X00589Y-01683
X00587Y-01764
X0050203Y-0167503
X00606Y-0141
X00185Y-0117
X00214Y-01023
X00062Y-01117
X00912Y-01868
X00918Y-01946
X00965Y-02127
X00954Y-00732
X00749Y-0085289
X00647Y-00937
X00642Y-01001
X00639Y-0064
X00448Y-00677
X00494Y-00741
X0035Y-00638
X001Y-00741
X00061Y-00863
X00143Y-00876
X00097Y-00986
X00981Y-00961
X01076Y-0099
X01107Y-00888
X01251Y-00788
X01495
X01647Y-00789
X01734Y-0087885
X0207Y-00822
X0212713Y-0087898
X02196Y-00822
X02376
X02504Y-00815
X02496Y-0087885
X02467Y-00584
X02358Y-0052
X02177Y-00519
X02023Y-00515
X01818Y-00516
X01638Y-00522
X01491Y-00524
X00992Y-00528
X01015Y-00653
X02569Y-00585
X02536Y-00493
X0256Y-00389
X02865Y-00574
X02635Y-00884
T03
X0098577Y-03871
X0110977
X0123077
X0133077
X0144177
X0154877
X0164277
X0174477
X0185577
X0196777
X0206777
X0216477
X0225977
X0237646Y-0386531
X0244177Y-03799
X0241077Y-02971
X0240677Y-02908
X0234677
X0234877Y-02841
X0240977Y-02832
X0240877Y-02769
X0234877Y-02771
X0234777Y-02977
X0168577Y-0295
Y-0286
X0149877Y-02849
X0141111
X0132344
X0123577
X0123377Y-02944
X0132777
X0141077
X0266477Y-02973
X0266877Y-02871
X0267577Y-03247
X0260327
X0254177
Y-03325
X0260477
X0267577
Y-03403
X0260877
X026685Y-0255683
Y-0247441
X0081377Y-024763
X0032977Y-02075
X0043177Y-00531
X0057877Y-00465
X0089177Y-00531
X0139277Y-00445
X0199377Y-0044274
X01592Y-0087885
X0312177Y-00797
X03098Y-00722
T04
X0014177Y-0328
X0024177
T05
X0007677Y-03013
X0005877Y-02836
X0005577Y-02656
X0045577
X0045877Y-02836
X0037677Y-03013
X0079077Y-02611
X0089377Y-0261
Y-0221
X0079077Y-02211
X00575Y-02001
X00075
X0006677Y-01665
X0017477Y-01671
X0028377
Y-01271
X0017477
X0006677Y-01265
T06
X03656Y-01793
Y-0139333
X0107677Y-0141
Y-0131
Y-0121
X0038377Y-01295
Y-01395
Y-01495
X0038177Y-01123
Y-01023
Y-00923
Y-00823
X03656Y-0099367
Y-00594
T07
X0054277Y-03453
X006412
X0071994
X0081836
X0332Y-01534
Y-01434
Y-01334
Y-01234
Y-01134
Y-01034
X0009377Y-02207
Y-02307
Y-02407
X0031177Y-00207
X0041177
X0051177
X0061177
X0090877
X0100877
X0110877
X0120877
X0150177
X0160177
X0170177
X0180177
X0190177
X0200177
X0210177
X0220177
X0230177
X0240177
X0268977
X0278977
X0288977
X0298977
X0328377
X0338377
X0348377
X0358377
X0332Y-00834
Y-00934
T08
X0014477Y-03788
X0024477
X0024677Y-03523
X0014677
X0130477Y-037335
X0140477
X0180627
X0190627
X0230777
X0240777
X0279477Y-03733
X0289477
X0021577Y-01792
X0011577
T09
X0026577Y-0241285
X0040977Y-0241085
Y-02214
X0026577Y-02216
T11
X0063779Y-0321733
Y-0306142
Y-0290551
Y-0274961
Y-025937
X0354331Y-025937
Y-0274961
Y-0290551
Y-0306142
Y-0321733
X0361387Y-0368
X0376977
X0331877Y-03678
X0316287
X0354331Y-024378
Y-0228189
Y-0212598
X0063779Y-0212598
Y-0228189
Y-024378
T12
X0328063Y-0190683
X0067197
Y-0046117
X0328063
M30
