%FSLAX25Y25*%
%MOIN*%
G70*
G01*
G75*
G04 Layer_Color=255*
%ADD10R,0.05100X0.05100*%
G04:AMPARAMS|DCode=11|XSize=94.49mil|YSize=29.13mil|CornerRadius=0.73mil|HoleSize=0mil|Usage=FLASHONLY|Rotation=270.000|XOffset=0mil|YOffset=0mil|HoleType=Round|Shape=RoundedRectangle|*
%AMROUNDEDRECTD11*
21,1,0.09449,0.02768,0,0,270.0*
21,1,0.09303,0.02913,0,0,270.0*
1,1,0.00146,-0.01384,-0.04652*
1,1,0.00146,-0.01384,0.04652*
1,1,0.00146,0.01384,0.04652*
1,1,0.00146,0.01384,-0.04652*
%
%ADD11ROUNDEDRECTD11*%
%ADD12R,0.03937X0.07087*%
%ADD13R,0.07087X0.03937*%
%ADD14R,0.04724X0.13780*%
%ADD15R,0.05906X0.03543*%
%ADD16R,0.09449X0.11024*%
%ADD17R,0.03150X0.07874*%
%ADD18O,0.07874X0.02362*%
%ADD19R,0.08465X0.04331*%
%ADD20R,0.08465X0.04331*%
%ADD21R,0.08465X0.13780*%
%ADD22R,0.37402X0.41339*%
%ADD23R,0.13780X0.03543*%
%ADD24R,0.08661X0.02362*%
%ADD25R,0.08661X0.02362*%
%ADD26R,0.06693X0.15748*%
%ADD27R,0.13465X0.04921*%
%ADD28R,0.04921X0.02756*%
%ADD29R,0.09843X0.07874*%
%ADD30R,0.13465X0.04724*%
%ADD31R,0.05080X0.05600*%
%ADD32R,0.20472X0.19200*%
%ADD33R,0.07874X0.07874*%
%ADD34R,0.07874X0.07874*%
%ADD35R,0.02165X0.03937*%
%ADD36R,0.05100X0.05100*%
%ADD37R,0.07087X0.04449*%
%ADD38R,0.07874X0.09843*%
%ADD39R,0.04449X0.07087*%
%ADD40C,0.01102*%
%ADD41C,0.03000*%
%ADD42C,0.04331*%
%ADD43C,0.01500*%
%ADD44C,0.02362*%
%ADD45C,0.05000*%
%ADD46C,0.01200*%
%ADD47C,0.02000*%
%ADD48C,0.04000*%
%ADD49C,0.08000*%
%ADD50C,0.10000*%
%ADD51C,0.01969*%
%ADD52C,0.02165*%
%ADD53R,0.03600X0.13800*%
%ADD54R,0.08000X0.29700*%
%ADD55R,0.07000X0.24600*%
%ADD56R,0.06600X0.24400*%
%ADD57R,0.06700X0.20500*%
%ADD58R,0.11300X0.13400*%
%ADD59R,0.09300X0.13200*%
%ADD60R,0.25100X0.17800*%
%ADD61R,0.16300X0.24200*%
%ADD62R,0.31100X0.30000*%
%ADD63R,0.17300X0.10200*%
%ADD64R,0.59000X0.07200*%
%ADD65R,0.10000X0.09200*%
%ADD66R,0.30300X0.11200*%
%ADD67C,0.00197*%
%ADD68C,0.03150*%
%ADD69R,0.11811X0.11811*%
%ADD70C,0.11811*%
%ADD71C,0.05906*%
%ADD72R,0.05906X0.05906*%
%ADD73C,0.04331*%
G04:AMPARAMS|DCode=74|XSize=43.31mil|YSize=43.31mil|CornerRadius=10.83mil|HoleSize=0mil|Usage=FLASHONLY|Rotation=90.000|XOffset=0mil|YOffset=0mil|HoleType=Round|Shape=RoundedRectangle|*
%AMROUNDEDRECTD74*
21,1,0.04331,0.02165,0,0,90.0*
21,1,0.02165,0.04331,0,0,90.0*
1,1,0.02165,0.01083,0.01083*
1,1,0.02165,0.01083,-0.01083*
1,1,0.02165,-0.01083,-0.01083*
1,1,0.02165,-0.01083,0.01083*
%
%ADD74ROUNDEDRECTD74*%
%ADD75C,0.05315*%
%ADD76R,0.05315X0.05315*%
G04:AMPARAMS|DCode=77|XSize=59.06mil|YSize=59.06mil|CornerRadius=14.76mil|HoleSize=0mil|Usage=FLASHONLY|Rotation=90.000|XOffset=0mil|YOffset=0mil|HoleType=Round|Shape=RoundedRectangle|*
%AMROUNDEDRECTD77*
21,1,0.05906,0.02953,0,0,90.0*
21,1,0.02953,0.05906,0,0,90.0*
1,1,0.02953,0.01476,0.01476*
1,1,0.02953,0.01476,-0.01476*
1,1,0.02953,-0.01476,-0.01476*
1,1,0.02953,-0.01476,0.01476*
%
%ADD77ROUNDEDRECTD77*%
%ADD78C,0.07874*%
%ADD79C,0.02000*%
%ADD80C,0.04000*%
%ADD81C,0.03000*%
%ADD82R,0.33700X0.13200*%
%ADD83R,0.09335X0.10100*%
%ADD84R,0.13100X1.68900*%
%ADD85R,0.41700X0.14400*%
%ADD86R,0.19200X0.39100*%
%ADD87R,0.79600X0.20200*%
%ADD88R,0.31800X0.32800*%
%ADD89R,0.10900X0.35200*%
%ADD90R,0.68339X0.12300*%
%ADD91R,0.10300X0.24700*%
%ADD92R,0.11900X0.16700*%
%ADD93R,0.13500X1.15100*%
D67*
X-151477Y-78740D02*
G03*
X-151477Y-78740I-98J0D01*
G01*
D02*
G03*
X-151477Y-78740I-98J0D01*
G01*
D02*
G03*
X-151477Y-78740I-98J0D01*
G01*
D02*
G03*
X-151477Y-78740I-98J0D01*
G01*
D68*
X-156319Y-303207D02*
D03*
X-151319D02*
D03*
X-146319D02*
D03*
D69*
X-179200Y-353400D02*
D03*
D70*
X-159200Y-353400D02*
D03*
D71*
X94535Y-239546D02*
D03*
Y-219546D02*
D03*
Y-229546D02*
D03*
X-332971Y-348307D02*
D03*
Y-338307D02*
D03*
X61882Y-248788D02*
D03*
X-414991Y-138507D02*
D03*
Y-148507D02*
D03*
Y-118507D02*
D03*
Y-158507D02*
D03*
Y-128507D02*
D03*
X-382669Y-338307D02*
D03*
Y-348307D02*
D03*
X-357820D02*
D03*
Y-338307D02*
D03*
D72*
X94535Y-249546D02*
D03*
X-332971Y-328307D02*
D03*
X-414991Y-108507D02*
D03*
X-382669Y-328307D02*
D03*
X-357820D02*
D03*
D73*
X-417519Y-203899D02*
D03*
Y-186182D02*
D03*
Y-197993D02*
D03*
Y-209804D02*
D03*
Y-192088D02*
D03*
D74*
Y-180277D02*
D03*
D75*
X-416998Y-266023D02*
D03*
Y-242401D02*
D03*
Y-273897D02*
D03*
Y-258149D02*
D03*
Y-250275D02*
D03*
X-417151Y-323971D02*
D03*
Y-300349D02*
D03*
Y-331845D02*
D03*
Y-308223D02*
D03*
Y-316097D02*
D03*
D76*
X-416998Y-234527D02*
D03*
X-417151Y-292475D02*
D03*
D77*
X61882Y-229103D02*
D03*
D78*
X-274400Y-206300D02*
D03*
X-305896D02*
D03*
X-274400Y-229922D02*
D03*
X-305896D02*
D03*
X-388000Y-186600D02*
D03*
Y-206600D02*
D03*
X-328000D02*
D03*
Y-186600D02*
D03*
Y-266600D02*
D03*
Y-276600D02*
D03*
X-388000Y-266600D02*
D03*
Y-276600D02*
D03*
M02*
