%FSLAX25Y25*%
%MOIN*%
G70*
G01*
G75*
G04 Layer_Physical_Order=3*
G04 Layer_Color=16440176*
%ADD10R,0.05100X0.05100*%
G04:AMPARAMS|DCode=11|XSize=94.49mil|YSize=29.13mil|CornerRadius=0.73mil|HoleSize=0mil|Usage=FLASHONLY|Rotation=270.000|XOffset=0mil|YOffset=0mil|HoleType=Round|Shape=RoundedRectangle|*
%AMROUNDEDRECTD11*
21,1,0.09449,0.02768,0,0,270.0*
21,1,0.09303,0.02913,0,0,270.0*
1,1,0.00146,-0.01384,-0.04652*
1,1,0.00146,-0.01384,0.04652*
1,1,0.00146,0.01384,0.04652*
1,1,0.00146,0.01384,-0.04652*
%
%ADD11ROUNDEDRECTD11*%
%ADD12R,0.03937X0.07087*%
%ADD13R,0.07087X0.03937*%
%ADD14R,0.04724X0.13780*%
%ADD15R,0.05906X0.03543*%
%ADD16R,0.09449X0.11024*%
%ADD17R,0.03150X0.07874*%
%ADD18O,0.07874X0.02362*%
%ADD19R,0.08465X0.04331*%
%ADD20R,0.08465X0.04331*%
%ADD21R,0.08465X0.13780*%
%ADD22R,0.37402X0.41339*%
%ADD23R,0.13780X0.03543*%
%ADD24R,0.08661X0.02362*%
%ADD25R,0.08661X0.02362*%
%ADD26R,0.06693X0.15748*%
%ADD27R,0.13465X0.04921*%
%ADD28R,0.04921X0.02756*%
%ADD29R,0.09843X0.07874*%
%ADD30R,0.13465X0.04724*%
%ADD31R,0.05080X0.05600*%
%ADD32R,0.20472X0.19200*%
%ADD33R,0.07874X0.07874*%
%ADD34R,0.07874X0.07874*%
%ADD35R,0.02165X0.03937*%
%ADD36R,0.05100X0.05100*%
%ADD37R,0.07087X0.04449*%
%ADD38R,0.07874X0.09843*%
%ADD39R,0.04449X0.07087*%
%ADD40C,0.01102*%
%ADD41C,0.03000*%
%ADD42C,0.04331*%
%ADD43C,0.01500*%
%ADD44C,0.02362*%
%ADD45C,0.05000*%
%ADD46C,0.01200*%
%ADD47C,0.02000*%
%ADD48C,0.04000*%
%ADD49C,0.08000*%
%ADD50C,0.10000*%
%ADD51C,0.01969*%
%ADD52C,0.02165*%
%ADD53R,0.03600X0.13800*%
%ADD54R,0.08000X0.29700*%
%ADD55R,0.07000X0.24600*%
%ADD56R,0.06600X0.24400*%
%ADD57R,0.06700X0.20500*%
%ADD58R,0.11300X0.13400*%
%ADD59R,0.09300X0.13200*%
%ADD60R,0.25100X0.17800*%
%ADD61R,0.16300X0.24200*%
%ADD62R,0.31100X0.30000*%
%ADD63R,0.17300X0.10200*%
%ADD64R,0.59000X0.07200*%
%ADD65R,0.10000X0.09200*%
%ADD66R,0.30300X0.11200*%
%ADD67C,0.00197*%
%ADD68C,0.03150*%
%ADD69R,0.11811X0.11811*%
%ADD70C,0.11811*%
%ADD71C,0.05906*%
%ADD72R,0.05906X0.05906*%
%ADD73C,0.04331*%
G04:AMPARAMS|DCode=74|XSize=43.31mil|YSize=43.31mil|CornerRadius=10.83mil|HoleSize=0mil|Usage=FLASHONLY|Rotation=90.000|XOffset=0mil|YOffset=0mil|HoleType=Round|Shape=RoundedRectangle|*
%AMROUNDEDRECTD74*
21,1,0.04331,0.02165,0,0,90.0*
21,1,0.02165,0.04331,0,0,90.0*
1,1,0.02165,0.01083,0.01083*
1,1,0.02165,0.01083,-0.01083*
1,1,0.02165,-0.01083,-0.01083*
1,1,0.02165,-0.01083,0.01083*
%
%ADD74ROUNDEDRECTD74*%
%ADD75C,0.05315*%
%ADD76R,0.05315X0.05315*%
G04:AMPARAMS|DCode=77|XSize=59.06mil|YSize=59.06mil|CornerRadius=14.76mil|HoleSize=0mil|Usage=FLASHONLY|Rotation=90.000|XOffset=0mil|YOffset=0mil|HoleType=Round|Shape=RoundedRectangle|*
%AMROUNDEDRECTD77*
21,1,0.05906,0.02953,0,0,90.0*
21,1,0.02953,0.05906,0,0,90.0*
1,1,0.02953,0.01476,0.01476*
1,1,0.02953,0.01476,-0.01476*
1,1,0.02953,-0.01476,-0.01476*
1,1,0.02953,-0.01476,0.01476*
%
%ADD77ROUNDEDRECTD77*%
%ADD78C,0.07874*%
%ADD79C,0.02000*%
%ADD80C,0.04000*%
%ADD81C,0.03000*%
%ADD82R,0.33700X0.13200*%
%ADD83R,0.09335X0.10100*%
%ADD84R,0.13100X1.68900*%
%ADD85R,0.41700X0.14400*%
%ADD86R,0.19200X0.39100*%
%ADD87R,0.79600X0.20200*%
%ADD88R,0.31800X0.32800*%
%ADD89R,0.10900X0.35200*%
G36*
X-369700Y-181419D02*
Y-181500D01*
X-330393D01*
X-330295Y-181990D01*
X-330591Y-182113D01*
X-331664Y-182936D01*
X-332487Y-184009D01*
X-333005Y-185259D01*
X-333181Y-186600D01*
X-333005Y-187941D01*
X-332487Y-189191D01*
X-331664Y-190264D01*
X-330591Y-191087D01*
X-329341Y-191605D01*
X-328000Y-191781D01*
X-326659Y-191605D01*
X-325409Y-191087D01*
X-324336Y-190264D01*
X-323513Y-189191D01*
X-322995Y-187941D01*
X-322819Y-186600D01*
X-322995Y-185259D01*
X-323513Y-184009D01*
X-324336Y-182936D01*
X-325409Y-182113D01*
X-326653Y-181598D01*
Y-181597D01*
X-326653D01*
X-326659Y-181595D01*
Y-181595D01*
X-326653Y-181500D01*
X-283878D01*
X-251132Y-214246D01*
Y-259100D01*
X-255768D01*
Y-229000D01*
X-255895Y-228034D01*
X-256268Y-227134D01*
X-256861Y-226361D01*
X-267561Y-215661D01*
X-268334Y-215068D01*
X-268861Y-214850D01*
X-269234Y-214695D01*
X-270200Y-214568D01*
X-398300D01*
Y-177232D01*
X-369700D01*
Y-181419D01*
D02*
G37*
G36*
X36300Y-86000D02*
Y-94600D01*
X35300Y-95600D01*
Y-174500D01*
X55400D01*
X60500Y-179600D01*
Y-186000D01*
X64600Y-190100D01*
X84200D01*
X85100Y-191000D01*
Y-200300D01*
X82500Y-202900D01*
X55400D01*
X52200Y-199700D01*
Y-183600D01*
X11800D01*
X-76200Y-271600D01*
X-233100D01*
Y-250900D01*
X-86900D01*
X-21100Y-185100D01*
Y-185000D01*
X8400Y-155500D01*
Y-85500D01*
X35800D01*
X36300Y-86000D01*
D02*
G37*
G36*
X-216726Y-234726D02*
X-216162Y-235158D01*
X-215890Y-235271D01*
X-215505Y-235431D01*
X-214800Y-235523D01*
X-89300D01*
X-88595Y-235431D01*
X-87938Y-235158D01*
X-87374Y-234726D01*
X-35362Y-182713D01*
X-34900Y-182905D01*
Y-184122D01*
X-88246Y-237468D01*
X-229500D01*
X-230466Y-237595D01*
X-231366Y-237968D01*
X-232139Y-238561D01*
X-240839Y-247261D01*
X-241432Y-248034D01*
X-241650Y-248561D01*
X-241805Y-248934D01*
X-241932Y-249900D01*
Y-259100D01*
X-243668D01*
Y-212700D01*
X-243795Y-211734D01*
X-244168Y-210834D01*
X-244761Y-210061D01*
X-272860Y-181962D01*
X-272669Y-181500D01*
X-269951D01*
X-216726Y-234726D01*
D02*
G37*
G36*
X-300637Y-4527D02*
Y-78740D01*
X-300655D01*
X-300475Y-86055D01*
X-299937Y-93353D01*
X-299041Y-100615D01*
X-297790Y-107824D01*
X-296187Y-114964D01*
X-294235Y-122016D01*
X-291940Y-128964D01*
X-289306Y-135791D01*
X-286341Y-142480D01*
X-283051Y-149016D01*
X-279445Y-155382D01*
X-275530Y-161564D01*
X-271317Y-167547D01*
X-269415Y-169984D01*
X-269481Y-170118D01*
X-269974Y-170201D01*
X-297515Y-142660D01*
Y-119800D01*
X-297650Y-119117D01*
X-298038Y-118537D01*
X-311488Y-105087D01*
X-312067Y-104700D01*
X-312750Y-104564D01*
X-396704D01*
X-397134Y-104278D01*
X-397992Y-104107D01*
X-398850Y-104278D01*
X-399578Y-104764D01*
X-400065Y-105492D01*
X-400235Y-106350D01*
X-400065Y-107208D01*
X-399578Y-107936D01*
X-398850Y-108422D01*
X-397992Y-108593D01*
X-397134Y-108422D01*
X-396704Y-108135D01*
X-313490D01*
X-301085Y-120540D01*
Y-142010D01*
X-301547Y-142201D01*
X-303077Y-140672D01*
Y-124900D01*
X-303169Y-124195D01*
X-303442Y-123538D01*
X-303874Y-122974D01*
X-310267Y-116582D01*
X-310831Y-116149D01*
X-311488Y-115877D01*
X-312193Y-115784D01*
X-395581D01*
X-395898Y-115398D01*
X-395749Y-114650D01*
X-395920Y-113792D01*
X-396406Y-113064D01*
X-397134Y-112578D01*
X-397640Y-112477D01*
X-403015Y-107103D01*
Y-22253D01*
X-402776Y-21896D01*
X-402606Y-21038D01*
X-402776Y-20179D01*
X-403263Y-19452D01*
X-403990Y-18965D01*
X-404849Y-18795D01*
X-405707Y-18965D01*
X-406435Y-19452D01*
X-406921Y-20179D01*
X-407092Y-21038D01*
X-406921Y-21896D01*
X-406586Y-22399D01*
Y-107842D01*
X-406450Y-108525D01*
X-406063Y-109105D01*
X-400165Y-115002D01*
X-400086Y-115398D01*
X-400404Y-115784D01*
X-411846D01*
X-412030Y-115545D01*
X-412897Y-114880D01*
X-413907Y-114461D01*
X-414991Y-114319D01*
X-416075Y-114461D01*
X-417086Y-114880D01*
X-417953Y-115545D01*
X-418136Y-115784D01*
X-421907D01*
X-422612Y-115877D01*
X-423269Y-116149D01*
X-423833Y-116582D01*
X-425279Y-118028D01*
X-425741Y-117837D01*
Y-4527D01*
X-422639Y-1424D01*
X-303740D01*
X-300637Y-4527D01*
D02*
G37*
G36*
X-409565Y-262082D02*
X-391329D01*
X-391168Y-262556D01*
X-391664Y-262936D01*
X-392487Y-264009D01*
X-393005Y-265259D01*
X-393181Y-266600D01*
X-393005Y-267941D01*
X-392487Y-269191D01*
X-391664Y-270264D01*
X-390591Y-271087D01*
X-389956Y-271350D01*
Y-271850D01*
X-390591Y-272113D01*
X-391664Y-272936D01*
X-392487Y-274009D01*
X-393005Y-275259D01*
X-393181Y-276600D01*
X-393005Y-277941D01*
X-392487Y-279191D01*
X-391664Y-280264D01*
X-390591Y-281087D01*
X-389341Y-281605D01*
X-388000Y-281781D01*
X-386659Y-281605D01*
X-385409Y-281087D01*
X-384336Y-280264D01*
X-383513Y-279191D01*
X-382995Y-277941D01*
X-382819Y-276600D01*
X-382995Y-275259D01*
X-383513Y-274009D01*
X-384336Y-272936D01*
X-385409Y-272113D01*
X-386044Y-271850D01*
Y-271350D01*
X-385409Y-271087D01*
X-384336Y-270264D01*
X-383513Y-269191D01*
X-382995Y-267941D01*
X-382819Y-266600D01*
X-382995Y-265259D01*
X-383513Y-264009D01*
X-384336Y-262936D01*
X-385409Y-262113D01*
X-385403Y-262082D01*
X-331329D01*
X-331168Y-262556D01*
X-331664Y-262936D01*
X-332487Y-264009D01*
X-333005Y-265259D01*
X-333091Y-265911D01*
X-322909D01*
X-322995Y-265259D01*
X-323513Y-264009D01*
X-324336Y-262936D01*
X-325409Y-262113D01*
X-325403Y-262082D01*
X-313665D01*
Y-245466D01*
X-313203Y-245275D01*
X-297265Y-261213D01*
Y-267882D01*
Y-267941D01*
X-290537D01*
X-289532Y-268946D01*
Y-304608D01*
X-299939Y-315015D01*
X-300532Y-315788D01*
X-300796Y-316424D01*
X-300905Y-316688D01*
X-301032Y-317653D01*
Y-336300D01*
X-301032Y-336300D01*
X-301032D01*
X-300905Y-337266D01*
X-300750Y-337639D01*
X-300532Y-338166D01*
X-299939Y-338939D01*
X-299939Y-338939D01*
X-299939Y-338939D01*
X-295539Y-343339D01*
X-295466Y-343395D01*
X-295627Y-343868D01*
X-300354D01*
X-318554Y-325668D01*
X-319327Y-325075D01*
X-320227Y-324703D01*
X-321193Y-324575D01*
X-328818D01*
Y-324154D01*
X-334723D01*
X-334915Y-323693D01*
X-324961Y-313739D01*
X-324961Y-313739D01*
X-324961Y-313739D01*
X-324368Y-312966D01*
X-324150Y-312439D01*
X-323995Y-312066D01*
X-323868Y-311100D01*
X-323868Y-311100D01*
X-323868Y-311100D01*
Y-311100D01*
Y-294900D01*
X-323980Y-294046D01*
X-323995Y-293934D01*
X-324150Y-293561D01*
X-324368Y-293034D01*
X-324961Y-292261D01*
X-333261Y-283961D01*
X-334034Y-283368D01*
X-334561Y-283150D01*
X-334934Y-282995D01*
X-335900Y-282868D01*
X-402750D01*
X-413603Y-272015D01*
X-413629Y-271952D01*
X-414247Y-271146D01*
X-415053Y-270528D01*
X-415991Y-270139D01*
X-416998Y-270006D01*
X-418006Y-270139D01*
X-418944Y-270528D01*
X-419750Y-271146D01*
X-420368Y-271952D01*
X-420757Y-272890D01*
X-420889Y-273897D01*
X-420757Y-274904D01*
X-420368Y-275842D01*
X-419750Y-276648D01*
X-418944Y-277267D01*
X-418881Y-277293D01*
X-406934Y-289239D01*
X-406161Y-289832D01*
X-405262Y-290205D01*
X-404296Y-290332D01*
X-337446D01*
X-331332Y-296446D01*
Y-309554D01*
X-340209Y-318431D01*
X-340639Y-318761D01*
X-345739Y-323861D01*
X-346332Y-324634D01*
X-346550Y-325161D01*
X-346705Y-325534D01*
X-346832Y-326500D01*
Y-351000D01*
X-346705Y-351966D01*
X-346550Y-352339D01*
X-346332Y-352866D01*
X-345739Y-353639D01*
X-339059Y-360319D01*
X-339250Y-360781D01*
X-422639D01*
X-425741Y-357678D01*
Y-300723D01*
X-425279Y-300532D01*
X-423537Y-302275D01*
X-422973Y-302708D01*
X-422316Y-302979D01*
X-422234Y-302990D01*
X-421611Y-303072D01*
X-419924D01*
X-419903Y-303100D01*
X-419097Y-303718D01*
X-418330Y-304036D01*
Y-304536D01*
X-419097Y-304854D01*
X-419903Y-305472D01*
X-420521Y-306278D01*
X-420910Y-307216D01*
X-421042Y-308223D01*
X-420910Y-309230D01*
X-420521Y-310168D01*
X-419903Y-310974D01*
X-419097Y-311593D01*
X-418330Y-311910D01*
Y-312410D01*
X-419097Y-312727D01*
X-419903Y-313346D01*
X-420521Y-314152D01*
X-420910Y-315090D01*
X-421042Y-316097D01*
X-420910Y-317104D01*
X-420521Y-318042D01*
X-419903Y-318848D01*
X-419097Y-319467D01*
X-418330Y-319784D01*
Y-320284D01*
X-419097Y-320602D01*
X-419903Y-321220D01*
X-420521Y-322026D01*
X-420910Y-322964D01*
X-420951Y-323282D01*
X-413351D01*
X-413393Y-322964D01*
X-413782Y-322026D01*
X-414400Y-321220D01*
X-415206Y-320602D01*
X-415972Y-320284D01*
Y-319784D01*
X-415206Y-319467D01*
X-414400Y-318848D01*
X-413782Y-318042D01*
X-413393Y-317104D01*
X-413261Y-316097D01*
X-413393Y-315090D01*
X-413782Y-314152D01*
X-414400Y-313346D01*
X-415206Y-312727D01*
X-415972Y-312410D01*
Y-311910D01*
X-415206Y-311593D01*
X-414400Y-310974D01*
X-413782Y-310168D01*
X-413393Y-309230D01*
X-413261Y-308223D01*
X-413393Y-307216D01*
X-413782Y-306278D01*
X-414400Y-305472D01*
X-415206Y-304854D01*
X-415972Y-304536D01*
Y-304036D01*
X-415206Y-303718D01*
X-414400Y-303100D01*
X-413782Y-302294D01*
X-413393Y-301356D01*
X-413261Y-300349D01*
X-413393Y-299342D01*
X-413782Y-298404D01*
X-414400Y-297598D01*
X-415206Y-296979D01*
X-416144Y-296591D01*
X-417151Y-296458D01*
X-417026Y-296333D01*
X-413294D01*
Y-296207D01*
X-412711D01*
X-407979Y-300939D01*
X-407206Y-301532D01*
X-406306Y-301905D01*
X-405340Y-302032D01*
X-340500D01*
X-339534Y-301905D01*
X-338634Y-301532D01*
X-337861Y-300939D01*
X-337268Y-300166D01*
X-336895Y-299266D01*
X-336768Y-298300D01*
X-336895Y-297334D01*
X-337268Y-296434D01*
X-337861Y-295661D01*
X-338634Y-295068D01*
X-339534Y-294695D01*
X-340500Y-294568D01*
X-403794D01*
X-408526Y-289836D01*
X-409299Y-289243D01*
X-409827Y-289025D01*
X-410199Y-288870D01*
X-411165Y-288743D01*
X-413294D01*
Y-288617D01*
X-421009D01*
Y-296333D01*
X-418816D01*
X-418718Y-296823D01*
X-419097Y-296979D01*
X-419903Y-297598D01*
X-419924Y-297626D01*
X-420483D01*
X-422037Y-296072D01*
Y-245124D01*
X-419771D01*
X-419750Y-245152D01*
X-418944Y-245771D01*
X-418177Y-246088D01*
Y-246588D01*
X-418944Y-246905D01*
X-419750Y-247524D01*
X-420368Y-248330D01*
X-420757Y-249268D01*
X-420889Y-250275D01*
X-420757Y-251282D01*
X-420368Y-252220D01*
X-419750Y-253026D01*
X-418944Y-253644D01*
X-418177Y-253962D01*
Y-254462D01*
X-418944Y-254780D01*
X-419750Y-255398D01*
X-420368Y-256204D01*
X-420757Y-257142D01*
X-420889Y-258149D01*
X-420757Y-259156D01*
X-420368Y-260094D01*
X-419750Y-260900D01*
X-418944Y-261519D01*
X-418177Y-261836D01*
Y-262336D01*
X-418944Y-262653D01*
X-419750Y-263272D01*
X-420368Y-264078D01*
X-420757Y-265016D01*
X-420799Y-265334D01*
X-413198D01*
X-413240Y-265016D01*
X-413629Y-264078D01*
X-414247Y-263272D01*
X-415053Y-262653D01*
X-415820Y-262336D01*
Y-261836D01*
X-415053Y-261519D01*
X-414247Y-260900D01*
X-413629Y-260094D01*
X-413240Y-259156D01*
X-413108Y-258149D01*
X-413240Y-257142D01*
X-413629Y-256204D01*
X-414247Y-255398D01*
X-415053Y-254780D01*
X-415820Y-254462D01*
Y-253962D01*
X-415053Y-253644D01*
X-414247Y-253026D01*
X-413629Y-252220D01*
X-413240Y-251282D01*
X-413108Y-250275D01*
X-413240Y-249268D01*
X-413629Y-248330D01*
X-414247Y-247524D01*
X-415053Y-246905D01*
X-415820Y-246588D01*
Y-246088D01*
X-415053Y-245771D01*
X-414247Y-245152D01*
X-413629Y-244346D01*
X-413240Y-243408D01*
X-413108Y-242401D01*
X-413240Y-241394D01*
X-413629Y-240456D01*
X-414247Y-239650D01*
X-415053Y-239032D01*
X-415431Y-238875D01*
X-415334Y-238385D01*
X-413141D01*
Y-238259D01*
X-409565D01*
Y-262082D01*
D02*
G37*
G36*
X-308523Y-126028D02*
Y-141800D01*
X-308431Y-142505D01*
X-308158Y-143162D01*
X-307726Y-143726D01*
X-281480Y-169971D01*
X-281672Y-170433D01*
X-284519D01*
X-284734Y-170268D01*
X-285261Y-170050D01*
X-285634Y-169895D01*
X-286600Y-169768D01*
X-361400D01*
Y-144024D01*
X-351324D01*
Y-164800D01*
X-351230Y-165268D01*
X-350965Y-165665D01*
X-350568Y-165930D01*
X-350100Y-166024D01*
X-318300D01*
X-317832Y-165930D01*
X-317435Y-165665D01*
X-317170Y-165268D01*
X-317076Y-164800D01*
Y-143578D01*
X-316870Y-143268D01*
X-316776Y-142800D01*
Y-122600D01*
X-316870Y-122132D01*
X-317135Y-121735D01*
X-317532Y-121470D01*
X-318000Y-121377D01*
X-317854Y-121231D01*
X-313321D01*
X-308523Y-126028D01*
D02*
G37*
G36*
X-4035Y-103101D02*
Y-133737D01*
X-14672Y-144374D01*
X-15105Y-144938D01*
X-15377Y-145595D01*
X-15470Y-146300D01*
Y-155119D01*
X-30038Y-169687D01*
X-30500Y-169495D01*
Y-165654D01*
X-27620Y-161564D01*
X-23705Y-155382D01*
X-20098Y-149016D01*
X-16808Y-142480D01*
X-13843Y-135791D01*
X-11210Y-128964D01*
X-8915Y-122016D01*
X-6963Y-114964D01*
X-5360Y-107824D01*
X-4533Y-103058D01*
X-4035Y-103101D01*
D02*
G37*
G36*
X-241932Y-295800D02*
X-241805Y-296766D01*
X-241650Y-297139D01*
X-241432Y-297666D01*
X-240839Y-298439D01*
X-210432Y-328846D01*
Y-356400D01*
X-210305Y-357366D01*
X-209966Y-358183D01*
X-210244Y-358598D01*
X-250687D01*
X-250965Y-358183D01*
X-250719Y-357590D01*
X-250592Y-356624D01*
X-250719Y-355658D01*
X-251092Y-354758D01*
X-251685Y-353985D01*
X-260709Y-344961D01*
X-261482Y-344368D01*
X-262009Y-344150D01*
X-262382Y-343995D01*
X-263348Y-343868D01*
X-290173D01*
X-290334Y-343395D01*
X-290261Y-343339D01*
X-289668Y-342566D01*
X-289295Y-341666D01*
X-289168Y-340700D01*
X-289295Y-339734D01*
X-289668Y-338834D01*
X-290261Y-338061D01*
X-293568Y-334754D01*
Y-319199D01*
X-283161Y-308792D01*
X-282568Y-308019D01*
X-282195Y-307119D01*
X-282068Y-306153D01*
Y-267941D01*
X-263232D01*
Y-334100D01*
X-263105Y-335066D01*
X-262950Y-335439D01*
X-262732Y-335966D01*
X-262139Y-336739D01*
X-242339Y-356539D01*
X-241566Y-357132D01*
X-240666Y-357505D01*
X-239700Y-357632D01*
X-238734Y-357505D01*
X-237834Y-357132D01*
X-237061Y-356539D01*
X-236468Y-355766D01*
X-236095Y-354866D01*
X-235968Y-353900D01*
X-236095Y-352934D01*
X-236468Y-352034D01*
X-237061Y-351261D01*
X-255768Y-332554D01*
Y-267941D01*
X-251132D01*
Y-329100D01*
X-251132Y-329100D01*
X-251132D01*
X-251005Y-330066D01*
X-250850Y-330439D01*
X-250632Y-330966D01*
X-250039Y-331739D01*
X-250039Y-331739D01*
X-250039Y-331739D01*
X-238539Y-343239D01*
X-237766Y-343832D01*
X-236866Y-344205D01*
X-235900Y-344332D01*
X-234934Y-344205D01*
X-234034Y-343832D01*
X-233261Y-343239D01*
X-232668Y-342466D01*
X-232295Y-341566D01*
X-232168Y-340600D01*
X-232295Y-339634D01*
X-232668Y-338734D01*
X-233261Y-337961D01*
X-243668Y-327554D01*
Y-267941D01*
X-241932D01*
Y-295800D01*
D02*
G37*
G36*
X-113765Y-292191D02*
X-161765D01*
Y-315326D01*
Y-315400D01*
X-112600D01*
Y-317869D01*
Y-318589D01*
X-113086Y-318914D01*
X-113572Y-319642D01*
X-113743Y-320500D01*
X-113572Y-321358D01*
X-113286Y-321788D01*
Y-329093D01*
X-113764Y-329238D01*
X-114114Y-328714D01*
X-114842Y-328228D01*
X-115700Y-328057D01*
X-116558Y-328228D01*
X-117286Y-328714D01*
X-117772Y-329442D01*
X-117943Y-330300D01*
X-117772Y-331158D01*
X-117286Y-331886D01*
X-116558Y-332372D01*
X-115700Y-332543D01*
X-114842Y-332372D01*
X-114114Y-331886D01*
X-113764Y-331362D01*
X-113286Y-331507D01*
Y-335960D01*
X-117240Y-339914D01*
X-186500D01*
X-187183Y-340050D01*
X-187762Y-340438D01*
X-202506Y-355181D01*
X-202968Y-354990D01*
Y-327300D01*
X-202968Y-327300D01*
Y-327300D01*
X-202968D01*
X-202968Y-327300D01*
Y-327200D01*
X-202981Y-327101D01*
X-202981Y-327101D01*
X-203095Y-326234D01*
Y-326234D01*
D01*
D01*
D01*
X-203095Y-326234D01*
X-203468Y-325334D01*
X-204061Y-324561D01*
X-204491Y-324231D01*
X-234468Y-294254D01*
Y-291074D01*
X-233990Y-290929D01*
X-233965Y-290965D01*
X-233568Y-291230D01*
X-233100Y-291323D01*
X-222200D01*
X-221732Y-291230D01*
X-221335Y-290965D01*
X-221070Y-290568D01*
X-220976Y-290100D01*
Y-272824D01*
X-213856D01*
X-213620Y-273265D01*
X-213872Y-273642D01*
X-214043Y-274500D01*
X-213872Y-275358D01*
X-213635Y-275713D01*
Y-297700D01*
X-213519Y-298286D01*
X-213496Y-298402D01*
X-213098Y-298998D01*
X-203235Y-308860D01*
Y-316656D01*
X-203472Y-317011D01*
X-203643Y-317869D01*
X-203472Y-318728D01*
X-202986Y-319455D01*
X-202258Y-319942D01*
X-201400Y-320112D01*
X-200542Y-319942D01*
X-199814Y-319455D01*
X-199328Y-318728D01*
X-199157Y-317869D01*
X-199328Y-317011D01*
X-199565Y-316656D01*
Y-308100D01*
X-199681Y-307514D01*
X-199704Y-307398D01*
X-200102Y-306802D01*
X-209965Y-296940D01*
Y-275713D01*
X-209728Y-275358D01*
X-209557Y-274500D01*
X-209728Y-273642D01*
X-210214Y-272914D01*
X-210187Y-272824D01*
X-113765D01*
Y-292191D01*
D02*
G37*
G36*
X-42613Y-182262D02*
X-90428Y-230077D01*
X-104017D01*
X-104334Y-229690D01*
X-104257Y-229300D01*
X-104428Y-228442D01*
X-104914Y-227714D01*
X-105642Y-227228D01*
X-106500Y-227057D01*
X-107358Y-227228D01*
X-107788Y-227515D01*
X-136230D01*
X-136261Y-227015D01*
X-129700Y-226206D01*
X-122491Y-224955D01*
X-115351Y-223352D01*
X-108299Y-221400D01*
X-101351Y-219105D01*
X-94525Y-216472D01*
X-87835Y-213507D01*
X-81299Y-210217D01*
X-74933Y-206610D01*
X-68751Y-202695D01*
X-62768Y-198482D01*
X-57000Y-193980D01*
X-51459Y-189201D01*
X-46160Y-184155D01*
X-43917Y-181800D01*
X-42805D01*
X-42613Y-182262D01*
D02*
G37*
G36*
X-322900Y-230795D02*
X-398300D01*
Y-222032D01*
X-322900D01*
Y-230795D01*
D02*
G37*
G36*
X-240382Y-198482D02*
X-234399Y-202695D01*
X-228217Y-206610D01*
X-221850Y-210217D01*
X-215315Y-213507D01*
X-208625Y-216472D01*
X-201798Y-219105D01*
X-194850Y-221400D01*
X-187798Y-223352D01*
X-180659Y-224955D01*
X-173449Y-226206D01*
X-166889Y-227015D01*
X-166919Y-227515D01*
X-212660D01*
X-243470Y-196704D01*
X-243139Y-196330D01*
X-240382Y-198482D01*
D02*
G37*
G36*
X-297265Y-250004D02*
X-297727Y-250196D01*
X-313665Y-234258D01*
Y-222582D01*
X-297265D01*
Y-250004D01*
D02*
G37*
G36*
X-34900Y-195331D02*
Y-197170D01*
X-87407Y-249676D01*
X-232046D01*
X-232237Y-249215D01*
X-227954Y-244932D01*
X-86700D01*
X-85734Y-244805D01*
X-85361Y-244650D01*
X-84834Y-244432D01*
X-84061Y-243839D01*
X-35362Y-195140D01*
X-34900Y-195331D01*
D02*
G37*
G36*
X122592Y-4527D02*
Y-357610D01*
X119421Y-360781D01*
X-157349D01*
X-157423Y-360286D01*
X-156468Y-359996D01*
X-155233Y-359337D01*
X-154151Y-358449D01*
X-153263Y-357367D01*
X-152604Y-356132D01*
X-152197Y-354793D01*
X-152060Y-353400D01*
X-152197Y-352007D01*
X-152604Y-350668D01*
X-153263Y-349433D01*
X-154151Y-348351D01*
X-155233Y-347463D01*
X-156468Y-346804D01*
X-157807Y-346397D01*
X-159200Y-346260D01*
X-160593Y-346397D01*
X-161932Y-346804D01*
X-163167Y-347463D01*
X-164249Y-348351D01*
X-165137Y-349433D01*
X-165796Y-350668D01*
X-166203Y-352007D01*
X-166340Y-353400D01*
X-166203Y-354793D01*
X-165796Y-356132D01*
X-165137Y-357367D01*
X-164249Y-358449D01*
X-163167Y-359337D01*
X-161932Y-359996D01*
X-160977Y-360286D01*
X-161051Y-360781D01*
X-172095D01*
Y-360506D01*
X-172095D01*
Y-346294D01*
X-184516D01*
X-184707Y-345832D01*
X-184560Y-345686D01*
X-114300D01*
X-113617Y-345550D01*
X-113041Y-345165D01*
X-112600Y-345401D01*
Y-349900D01*
X-94694D01*
Y-353200D01*
X-94694Y-353200D01*
X-94579Y-354079D01*
X-94240Y-354897D01*
X-93700Y-355600D01*
X-90800Y-358500D01*
X-90097Y-359040D01*
X-89279Y-359379D01*
X-88400Y-359494D01*
X-88400Y-359494D01*
X-15100D01*
X-14221Y-359379D01*
X-13403Y-359040D01*
X-12700Y-358500D01*
X-12160Y-357797D01*
X-11821Y-356979D01*
X-11706Y-356100D01*
X-11821Y-355222D01*
X-12160Y-354403D01*
X-12700Y-353700D01*
X-13403Y-353160D01*
X-14221Y-352821D01*
X-15100Y-352706D01*
X-86994D01*
X-87906Y-351794D01*
Y-349900D01*
X-61865D01*
Y-344825D01*
X-61478Y-344508D01*
X-61300Y-344543D01*
X-60442Y-344372D01*
X-59714Y-343886D01*
X-59228Y-343158D01*
X-59134Y-342686D01*
X-58861Y-342603D01*
X-58432Y-342860D01*
X-58372Y-343158D01*
X-57886Y-343886D01*
X-57158Y-344372D01*
X-56300Y-344543D01*
X-55442Y-344372D01*
X-54714Y-343886D01*
X-54228Y-343158D01*
X-54134Y-342686D01*
X-53861Y-342603D01*
X-53432Y-342860D01*
X-53372Y-343158D01*
X-52886Y-343886D01*
X-52158Y-344372D01*
X-51300Y-344543D01*
X-50442Y-344372D01*
X-49714Y-343886D01*
X-49228Y-343158D01*
X-49134Y-342686D01*
X-48861Y-342603D01*
X-48432Y-342860D01*
X-48372Y-343158D01*
X-47886Y-343886D01*
X-47158Y-344372D01*
X-46300Y-344543D01*
X-45442Y-344372D01*
X-44714Y-343886D01*
X-44228Y-343158D01*
X-44057Y-342300D01*
X-44228Y-341442D01*
X-44714Y-340714D01*
X-45442Y-340228D01*
X-45860Y-340144D01*
X-46865Y-339140D01*
Y-325800D01*
X-46865Y-325800D01*
X-46865Y-325800D01*
Y-325800D01*
Y-303064D01*
X-46424Y-302829D01*
X-46358Y-302872D01*
X-45500Y-303043D01*
X-44642Y-302872D01*
X-43914Y-302386D01*
X-43428Y-301658D01*
X-43257Y-300800D01*
X-43295Y-300606D01*
X-42854Y-300371D01*
X-28086Y-315140D01*
Y-341012D01*
X-28372Y-341442D01*
X-28543Y-342300D01*
X-28372Y-343158D01*
X-27886Y-343886D01*
X-27158Y-344372D01*
X-26300Y-344543D01*
X-25442Y-344372D01*
X-24714Y-343886D01*
X-24228Y-343158D01*
X-24057Y-342300D01*
X-24228Y-341442D01*
X-24514Y-341012D01*
Y-340423D01*
X8800D01*
X9268Y-340330D01*
X9665Y-340065D01*
X9930Y-339668D01*
X10024Y-339200D01*
Y-338600D01*
X21200D01*
Y-333200D01*
Y-307278D01*
X29239Y-299239D01*
X29832Y-298466D01*
X30205Y-297566D01*
X30332Y-296600D01*
X30332Y-296600D01*
X30332Y-296600D01*
Y-296600D01*
Y-294700D01*
X42000D01*
Y-301300D01*
Y-303409D01*
X46661D01*
X46806Y-303887D01*
X46795Y-303895D01*
X46309Y-304623D01*
X46138Y-305481D01*
X46309Y-306339D01*
X46795Y-307067D01*
X47523Y-307553D01*
X47900Y-307628D01*
Y-310200D01*
Y-311200D01*
X52200D01*
Y-321800D01*
Y-339500D01*
X64600D01*
Y-336700D01*
Y-292400D01*
X66900D01*
Y-284900D01*
Y-260100D01*
X51300D01*
Y-248099D01*
Y-241900D01*
X30332D01*
Y-236400D01*
Y-227053D01*
X34107Y-223278D01*
X88977D01*
Y-223300D01*
X89070Y-223768D01*
X89335Y-224165D01*
X89732Y-224430D01*
X90200Y-224523D01*
X108700D01*
X109168Y-224430D01*
X109565Y-224165D01*
X109830Y-223768D01*
X109924Y-223300D01*
Y-54400D01*
X109830Y-53932D01*
X109565Y-53535D01*
X109168Y-53270D01*
X108700Y-53176D01*
X95600D01*
X95132Y-53270D01*
X94972Y-53377D01*
X14800D01*
X14177Y-53459D01*
X14095Y-53470D01*
X13438Y-53742D01*
X12874Y-54174D01*
X-2051Y-69099D01*
X-2513Y-68908D01*
Y-4527D01*
X590Y-1424D01*
X119489D01*
X122592Y-4527D01*
D02*
G37*
G36*
X94376Y-68419D02*
X93995Y-68470D01*
X93338Y-68742D01*
X92774Y-69174D01*
X92342Y-69738D01*
X92070Y-70395D01*
X91518Y-70323D01*
X91359Y-69938D01*
X90926Y-69374D01*
X90362Y-68941D01*
X89705Y-68669D01*
X89000Y-68577D01*
X88295Y-68669D01*
X87638Y-68941D01*
X87074Y-69374D01*
X86642Y-69938D01*
X86370Y-70595D01*
X86277Y-71300D01*
X86370Y-72005D01*
X86642Y-72662D01*
X87074Y-73226D01*
X87638Y-73659D01*
X88295Y-73931D01*
X89000Y-74023D01*
X89705Y-73931D01*
X90362Y-73659D01*
X90926Y-73226D01*
X91359Y-72662D01*
X91631Y-72005D01*
X92182Y-72078D01*
X92342Y-72462D01*
X92774Y-73026D01*
X93338Y-73458D01*
X93995Y-73730D01*
X94376Y-73781D01*
Y-211977D01*
X90200D01*
X89732Y-212070D01*
X89335Y-212335D01*
X89070Y-212732D01*
X88977Y-213200D01*
Y-215814D01*
X32561D01*
X31595Y-215941D01*
X30695Y-216314D01*
X29922Y-216907D01*
X23961Y-222868D01*
X23368Y-223641D01*
X23104Y-224278D01*
X22995Y-224541D01*
X22868Y-225507D01*
Y-236400D01*
Y-241900D01*
X-25700D01*
Y-222830D01*
X12307Y-184824D01*
X50977D01*
Y-199700D01*
X51070Y-200168D01*
X51335Y-200565D01*
X54535Y-203765D01*
X54932Y-204030D01*
X55400Y-204123D01*
X82500D01*
X82968Y-204030D01*
X83127Y-203924D01*
X83365Y-203765D01*
X85965Y-201165D01*
X86230Y-200768D01*
X86323Y-200300D01*
Y-191000D01*
X86230Y-190532D01*
X85965Y-190135D01*
X85065Y-189235D01*
X84668Y-188970D01*
X84200Y-188876D01*
X65107D01*
X61724Y-185493D01*
Y-179600D01*
X61630Y-179132D01*
X61365Y-178735D01*
X56265Y-173635D01*
X55868Y-173370D01*
X55400Y-173276D01*
X36524D01*
Y-96107D01*
X37165Y-95465D01*
X37430Y-95068D01*
X37523Y-94600D01*
Y-86000D01*
X37430Y-85532D01*
X37165Y-85135D01*
X36665Y-84635D01*
X36268Y-84370D01*
X35800Y-84276D01*
X8400D01*
X7932Y-84370D01*
X7535Y-84635D01*
X7270Y-85032D01*
X7176Y-85500D01*
Y-142305D01*
X6703Y-142466D01*
X6239Y-141861D01*
X5466Y-141268D01*
X4566Y-140895D01*
X3600Y-140768D01*
X2634Y-140895D01*
X1734Y-141268D01*
X961Y-141861D01*
X-6539Y-149361D01*
X-7132Y-150134D01*
X-7350Y-150661D01*
X-7505Y-151034D01*
X-7632Y-152000D01*
X-7632Y-152000D01*
X-7632D01*
X-7632Y-152000D01*
X-7632D01*
Y-156854D01*
X-25238Y-174460D01*
X-25700Y-174269D01*
Y-173051D01*
X-10821Y-158173D01*
X-10388Y-157608D01*
X-10116Y-156952D01*
X-10106Y-156870D01*
X-10024Y-156247D01*
Y-147428D01*
X614Y-136790D01*
X1047Y-136226D01*
X1319Y-135569D01*
X1412Y-134865D01*
Y-73339D01*
X15928Y-58823D01*
X94376D01*
Y-68419D01*
D02*
G37*
G36*
X4200Y-300100D02*
Y-313722D01*
X3594Y-314328D01*
X3097Y-314279D01*
X2986Y-314114D01*
X2258Y-313628D01*
X1400Y-313457D01*
X542Y-313628D01*
X-186Y-314114D01*
X-672Y-314842D01*
X-843Y-315700D01*
X-672Y-316558D01*
X-186Y-317286D01*
X542Y-317772D01*
X1400Y-317943D01*
X1882Y-317847D01*
X2268Y-318164D01*
Y-324777D01*
X-24514D01*
Y-314400D01*
X-24650Y-313717D01*
X-25038Y-313138D01*
X-43313Y-294862D01*
X-43122Y-294400D01*
X-32066D01*
X-31496Y-294456D01*
X-31447Y-294451D01*
X-31398Y-294456D01*
X-30828Y-294400D01*
X-18394D01*
Y-298440D01*
X-18494Y-299200D01*
X-18379Y-300079D01*
X-18040Y-300897D01*
X-17500Y-301600D01*
X-16797Y-302140D01*
X-15979Y-302479D01*
X-15100Y-302594D01*
X-14221Y-302479D01*
X-13403Y-302140D01*
X-12700Y-301600D01*
X-12600Y-301500D01*
X-12060Y-300797D01*
X-11721Y-299978D01*
X-11606Y-299100D01*
X-11606Y-299100D01*
X-11606Y-299100D01*
Y-299100D01*
Y-294400D01*
X4200D01*
Y-300100D01*
D02*
G37*
G36*
X-34900Y-232684D02*
Y-241100D01*
Y-246400D01*
X22868D01*
Y-285700D01*
X-11606D01*
Y-261000D01*
X-11721Y-260121D01*
X-12060Y-259303D01*
X-12600Y-258600D01*
X-13303Y-258060D01*
X-14121Y-257721D01*
X-15000Y-257606D01*
X-15879Y-257721D01*
X-16697Y-258060D01*
X-17400Y-258600D01*
X-17940Y-259303D01*
X-18279Y-260121D01*
X-18394Y-261000D01*
Y-285700D01*
X-23765D01*
X-23813Y-285214D01*
X-24253Y-283763D01*
X-24968Y-282426D01*
X-25929Y-281255D01*
X-27101Y-280293D01*
X-28438Y-279578D01*
X-29889Y-279138D01*
X-31398Y-278990D01*
X-31447Y-278994D01*
X-31496Y-278990D01*
X-33005Y-279138D01*
X-34455Y-279578D01*
X-35792Y-280293D01*
X-36964Y-281255D01*
X-37926Y-282426D01*
X-38641Y-283763D01*
X-39081Y-285214D01*
X-39129Y-285700D01*
X-47296D01*
X-47328Y-285542D01*
X-47814Y-284814D01*
X-48542Y-284328D01*
X-49400Y-284157D01*
X-50258Y-284328D01*
X-50986Y-284814D01*
X-51472Y-285542D01*
X-51504Y-285700D01*
X-56792D01*
Y-267672D01*
X-56909Y-267087D01*
X-56932Y-266970D01*
X-57330Y-266375D01*
X-60044Y-263660D01*
X-60128Y-263242D01*
X-60614Y-262514D01*
X-61342Y-262028D01*
X-62200Y-261857D01*
X-63058Y-262028D01*
X-63786Y-262514D01*
X-64272Y-263242D01*
X-64443Y-264100D01*
X-64272Y-264958D01*
X-63786Y-265686D01*
X-63058Y-266172D01*
X-62640Y-266256D01*
X-60463Y-268432D01*
Y-285700D01*
X-66014D01*
Y-270288D01*
X-65728Y-269858D01*
X-65557Y-269000D01*
X-65728Y-268142D01*
X-66214Y-267414D01*
X-66942Y-266928D01*
X-67800Y-266757D01*
X-68658Y-266928D01*
X-69386Y-267414D01*
X-69872Y-268142D01*
X-69907Y-268314D01*
X-70323Y-268592D01*
X-70500Y-268557D01*
X-70812Y-268619D01*
X-71048Y-268178D01*
X-35362Y-232492D01*
X-34900Y-232684D01*
D02*
G37*
G36*
X-69586Y-274964D02*
Y-283925D01*
X-69972Y-284242D01*
X-70400Y-284157D01*
X-71258Y-284328D01*
X-71986Y-284814D01*
X-72472Y-285542D01*
X-72643Y-286400D01*
X-72472Y-287258D01*
X-71986Y-287986D01*
X-71258Y-288472D01*
X-70400Y-288643D01*
X-69972Y-288558D01*
X-69586Y-288875D01*
Y-304969D01*
X-70026Y-305205D01*
X-70142Y-305128D01*
X-71000Y-304957D01*
X-71858Y-305128D01*
X-72586Y-305614D01*
X-73072Y-306342D01*
X-73243Y-307200D01*
X-73072Y-308058D01*
X-72586Y-308786D01*
X-71858Y-309272D01*
X-71000Y-309443D01*
X-70142Y-309272D01*
X-70026Y-309195D01*
X-69586Y-309431D01*
Y-312036D01*
X-70026Y-312271D01*
X-70242Y-312128D01*
X-71100Y-311957D01*
X-71958Y-312128D01*
X-72686Y-312614D01*
X-73172Y-313342D01*
X-73273Y-313848D01*
X-74862Y-315438D01*
X-75250Y-316017D01*
X-75385Y-316700D01*
Y-319268D01*
X-75772Y-319585D01*
X-76319Y-319476D01*
X-76428Y-319498D01*
X-76815Y-319180D01*
Y-302764D01*
X-76373Y-302528D01*
X-75858Y-302872D01*
X-75000Y-303043D01*
X-74142Y-302872D01*
X-73414Y-302386D01*
X-72928Y-301658D01*
X-72757Y-300800D01*
X-72928Y-299942D01*
X-73414Y-299214D01*
X-74142Y-298728D01*
X-75000Y-298557D01*
X-75858Y-298728D01*
X-76373Y-299072D01*
X-76815Y-298836D01*
Y-294140D01*
X-75848Y-293173D01*
X-75342Y-293072D01*
X-74614Y-292586D01*
X-74128Y-291858D01*
X-73957Y-291000D01*
X-74128Y-290142D01*
X-74614Y-289414D01*
X-75342Y-288928D01*
X-76200Y-288757D01*
X-77058Y-288928D01*
X-77072Y-288937D01*
X-77488Y-288659D01*
X-77357Y-288000D01*
X-77528Y-287142D01*
X-78014Y-286414D01*
X-78742Y-285928D01*
X-79600Y-285757D01*
X-80458Y-285928D01*
X-80580Y-286009D01*
X-80898Y-285623D01*
X-70047Y-274773D01*
X-69586Y-274964D01*
D02*
G37*
G36*
X45700Y-253900D02*
Y-264400D01*
X62100D01*
Y-275000D01*
Y-285700D01*
X30332D01*
Y-246400D01*
X45700D01*
Y-253900D01*
D02*
G37*
G36*
X-186305Y-348084D02*
Y-360506D01*
D01*
Y-360506D01*
X-186581Y-360781D01*
X-193458D01*
X-193775Y-360394D01*
X-193657Y-359800D01*
X-193828Y-358942D01*
X-194114Y-358512D01*
Y-355240D01*
X-186767Y-347892D01*
X-186305Y-348084D01*
D02*
G37*
G36*
X-72681Y-270488D02*
X-72743Y-270800D01*
X-72572Y-271658D01*
X-72337Y-272011D01*
X-90763Y-290438D01*
X-91150Y-291017D01*
X-91286Y-291700D01*
Y-339100D01*
X-91279Y-339135D01*
X-91570Y-339541D01*
X-92178Y-339621D01*
X-92302Y-339672D01*
X-105400D01*
Y-326325D01*
X-102948Y-323873D01*
X-102442Y-323772D01*
X-101714Y-323286D01*
X-101228Y-322558D01*
X-101057Y-321700D01*
X-101228Y-320842D01*
X-101714Y-320114D01*
X-102442Y-319628D01*
X-103300Y-319457D01*
X-103991Y-319594D01*
X-104183Y-319132D01*
X-103814Y-318886D01*
X-103328Y-318158D01*
X-103157Y-317300D01*
X-103328Y-316442D01*
X-103814Y-315714D01*
X-104542Y-315228D01*
X-105400Y-315057D01*
Y-309272D01*
Y-309200D01*
X-149340D01*
Y-305186D01*
X-149069Y-304833D01*
X-148569D01*
X-148298Y-305186D01*
X-147718Y-305631D01*
X-147043Y-305911D01*
X-147008Y-305915D01*
Y-303208D01*
Y-300499D01*
X-147043Y-300504D01*
X-147718Y-300783D01*
X-148298Y-301228D01*
X-148569Y-301581D01*
X-149069D01*
X-149340Y-301228D01*
Y-297700D01*
X-105400D01*
Y-272824D01*
X-76200D01*
X-75732Y-272730D01*
X-75335Y-272465D01*
X-73122Y-270252D01*
X-72681Y-270488D01*
D02*
G37*
G36*
X-398427Y-121709D02*
X-398465Y-121735D01*
X-398730Y-122132D01*
X-398823Y-122600D01*
Y-124880D01*
X-409565D01*
Y-152676D01*
X-412923D01*
X-413021Y-152186D01*
X-412897Y-152135D01*
X-412030Y-151469D01*
X-411364Y-150602D01*
X-410945Y-149591D01*
X-410893Y-149196D01*
X-419089D01*
X-419037Y-149591D01*
X-418619Y-150602D01*
X-417953Y-151469D01*
X-417086Y-152135D01*
X-416961Y-152186D01*
X-417059Y-152676D01*
X-420100D01*
X-420568Y-152770D01*
X-420965Y-153035D01*
X-421230Y-153432D01*
X-421323Y-153900D01*
Y-168300D01*
X-421230Y-168768D01*
X-420965Y-169165D01*
X-420568Y-169430D01*
X-420100Y-169524D01*
X-409565D01*
Y-174940D01*
X-411169Y-176545D01*
X-417519D01*
X-418485Y-176672D01*
X-419281Y-177002D01*
X-419492Y-177044D01*
X-420247Y-177548D01*
X-420752Y-178303D01*
X-420794Y-178514D01*
X-421124Y-179311D01*
X-421251Y-180277D01*
X-421124Y-181243D01*
X-420794Y-182039D01*
X-420752Y-182250D01*
X-420247Y-183005D01*
X-419888Y-183245D01*
X-419871Y-183745D01*
X-419919Y-183782D01*
X-420459Y-184485D01*
X-420798Y-185304D01*
X-420823Y-185493D01*
X-414215D01*
X-414240Y-185304D01*
X-414579Y-184485D01*
X-414601Y-184457D01*
X-414380Y-184009D01*
X-409623D01*
X-409565Y-184060D01*
Y-211827D01*
X-410027Y-212019D01*
X-414880Y-207165D01*
X-415238Y-206891D01*
Y-206391D01*
X-415119Y-206299D01*
X-414579Y-205596D01*
X-414240Y-204777D01*
X-414125Y-203899D01*
X-414240Y-203020D01*
X-414579Y-202201D01*
X-415119Y-201498D01*
X-415822Y-200959D01*
X-415119Y-200393D01*
X-415119Y-200393D01*
X-414579Y-199690D01*
X-414240Y-198872D01*
X-414125Y-197993D01*
X-414240Y-197115D01*
X-414579Y-196296D01*
X-415119Y-195593D01*
X-415822Y-195054D01*
Y-195027D01*
X-415119Y-194488D01*
X-414579Y-193785D01*
X-414240Y-192966D01*
X-414125Y-192088D01*
X-414240Y-191209D01*
X-414579Y-190390D01*
X-415119Y-189687D01*
X-415822Y-189148D01*
Y-189122D01*
D01*
X-415119Y-188582D01*
X-414579Y-187879D01*
X-414240Y-187061D01*
X-414215Y-186871D01*
X-420823D01*
X-420798Y-187061D01*
X-420459Y-187879D01*
X-419919Y-188582D01*
X-419525Y-188885D01*
Y-189385D01*
X-419919Y-189687D01*
X-420459Y-190390D01*
X-420798Y-191209D01*
X-420913Y-192088D01*
X-420798Y-192966D01*
X-420459Y-193785D01*
X-419919Y-194488D01*
X-419525Y-194790D01*
Y-195290D01*
X-419919Y-195593D01*
X-420459Y-196296D01*
X-420798Y-197115D01*
X-420913Y-197993D01*
X-420798Y-198872D01*
X-420459Y-199690D01*
X-419919Y-200393D01*
X-419517Y-200702D01*
X-419678Y-201175D01*
X-422037D01*
Y-122488D01*
X-420779Y-121231D01*
X-418136D01*
X-417953Y-121469D01*
X-417086Y-122135D01*
X-416075Y-122553D01*
X-414991Y-122696D01*
X-413907Y-122553D01*
X-412897Y-122135D01*
X-412030Y-121469D01*
X-411846Y-121231D01*
X-398572D01*
X-398427Y-121709D01*
D02*
G37*
G36*
X-337124Y-326455D02*
Y-332460D01*
X-328818D01*
Y-332039D01*
X-322739D01*
X-304539Y-350239D01*
X-303766Y-350832D01*
X-303239Y-351050D01*
X-302866Y-351205D01*
X-302753Y-351220D01*
X-301900Y-351332D01*
X-264894D01*
X-258494Y-357731D01*
X-258543Y-358229D01*
X-258620Y-358280D01*
X-259106Y-359008D01*
X-259277Y-359866D01*
X-259172Y-360394D01*
X-259489Y-360781D01*
X-280481D01*
X-280703Y-360332D01*
X-280268Y-359766D01*
X-279895Y-358866D01*
X-279768Y-357900D01*
X-279895Y-356934D01*
X-280268Y-356034D01*
X-280861Y-355261D01*
X-281634Y-354668D01*
X-282534Y-354295D01*
X-283500Y-354168D01*
X-334654D01*
X-339368Y-349454D01*
Y-328046D01*
X-337586Y-326263D01*
X-337124Y-326455D01*
D02*
G37*
%LPC*%
G36*
X-31300Y-324703D02*
X-32158Y-324873D01*
X-32886Y-325360D01*
X-33372Y-326087D01*
X-33543Y-326946D01*
X-33372Y-327804D01*
X-32886Y-328532D01*
X-32158Y-329018D01*
X-31300Y-329189D01*
X-30442Y-329018D01*
X-29714Y-328532D01*
X-29228Y-327804D01*
X-29057Y-326946D01*
X-29228Y-326087D01*
X-29714Y-325360D01*
X-30442Y-324873D01*
X-31300Y-324703D01*
D02*
G37*
G36*
X-225800Y-329077D02*
X-226505Y-329170D01*
X-227162Y-329442D01*
X-227726Y-329874D01*
X-227850Y-330036D01*
X-228350D01*
X-228474Y-329874D01*
X-229038Y-329442D01*
X-229695Y-329170D01*
X-230400Y-329077D01*
X-231105Y-329170D01*
X-231762Y-329442D01*
X-232326Y-329874D01*
X-232758Y-330438D01*
X-233031Y-331095D01*
X-233123Y-331800D01*
X-233031Y-332505D01*
X-232758Y-333162D01*
X-232326Y-333726D01*
X-231762Y-334158D01*
X-231105Y-334431D01*
X-230400Y-334523D01*
X-229695Y-334431D01*
X-229038Y-334158D01*
X-228474Y-333726D01*
X-228350Y-333564D01*
X-227850D01*
X-227726Y-333726D01*
X-227162Y-334158D01*
X-226505Y-334431D01*
X-225800Y-334523D01*
X-225095Y-334431D01*
X-224438Y-334158D01*
X-223874Y-333726D01*
X-223442Y-333162D01*
X-223169Y-332505D01*
X-223077Y-331800D01*
X-223169Y-331095D01*
X-223442Y-330438D01*
X-223874Y-329874D01*
X-224438Y-329442D01*
X-225095Y-329170D01*
X-225800Y-329077D01*
D02*
G37*
G36*
X-341300Y-309668D02*
X-388900D01*
X-389866Y-309795D01*
X-390766Y-310168D01*
X-391539Y-310761D01*
X-408891Y-328113D01*
X-415790D01*
X-415884Y-327638D01*
X-415876Y-327618D01*
X-415206Y-327341D01*
X-414400Y-326722D01*
X-413782Y-325916D01*
X-413393Y-324978D01*
X-413351Y-324660D01*
X-420951D01*
X-420910Y-324978D01*
X-420521Y-325916D01*
X-419903Y-326722D01*
X-419097Y-327341D01*
X-418330Y-327658D01*
Y-328158D01*
X-419097Y-328476D01*
X-419903Y-329094D01*
X-420521Y-329900D01*
X-420910Y-330838D01*
X-421042Y-331845D01*
X-420910Y-332852D01*
X-420521Y-333790D01*
X-419903Y-334596D01*
X-419097Y-335215D01*
X-418158Y-335603D01*
X-417151Y-335736D01*
X-416144Y-335603D01*
X-416081Y-335577D01*
X-407345D01*
X-406379Y-335450D01*
X-405479Y-335077D01*
X-404706Y-334484D01*
X-404706Y-334484D01*
X-404706Y-334484D01*
X-387354Y-317132D01*
X-341300D01*
X-340334Y-317005D01*
X-339434Y-316632D01*
X-338661Y-316039D01*
X-338068Y-315266D01*
X-337695Y-314366D01*
X-337568Y-313400D01*
X-337695Y-312434D01*
X-338068Y-311534D01*
X-338661Y-310761D01*
X-339434Y-310168D01*
X-340334Y-309795D01*
X-341300Y-309668D01*
D02*
G37*
G36*
X-286700Y-315377D02*
X-287405Y-315470D01*
X-288062Y-315742D01*
X-288626Y-316174D01*
X-289058Y-316738D01*
X-289331Y-317395D01*
X-289423Y-318100D01*
X-289331Y-318805D01*
X-289058Y-319462D01*
X-288626Y-320026D01*
X-288062Y-320458D01*
X-287405Y-320730D01*
X-286700Y-320823D01*
X-285995Y-320730D01*
X-285338Y-320458D01*
X-284774Y-320026D01*
X-284688Y-319914D01*
X-284188D01*
X-284026Y-320126D01*
X-283462Y-320558D01*
X-282805Y-320830D01*
X-282100Y-320923D01*
X-281395Y-320830D01*
X-280738Y-320558D01*
X-280174Y-320126D01*
X-279742Y-319562D01*
X-279469Y-318905D01*
X-279377Y-318200D01*
X-279469Y-317495D01*
X-279742Y-316838D01*
X-280174Y-316274D01*
X-280738Y-315842D01*
X-281395Y-315569D01*
X-282100Y-315477D01*
X-282805Y-315569D01*
X-283462Y-315842D01*
X-284026Y-316274D01*
X-284112Y-316386D01*
X-284612D01*
X-284774Y-316174D01*
X-285338Y-315742D01*
X-285995Y-315470D01*
X-286700Y-315377D01*
D02*
G37*
G36*
X-268200Y-315857D02*
X-269058Y-316028D01*
X-269786Y-316514D01*
X-270272Y-317242D01*
X-270443Y-318100D01*
X-270272Y-318958D01*
X-269786Y-319686D01*
X-269058Y-320172D01*
X-268200Y-320343D01*
X-267342Y-320172D01*
X-266614Y-319686D01*
X-266128Y-318958D01*
X-265957Y-318100D01*
X-266128Y-317242D01*
X-266614Y-316514D01*
X-267342Y-316028D01*
X-268200Y-315857D01*
D02*
G37*
G36*
X-271654Y-278990D02*
X-273162Y-279138D01*
X-274613Y-279578D01*
X-275950Y-280293D01*
X-277122Y-281255D01*
X-278084Y-282426D01*
X-278798Y-283763D01*
X-279238Y-285214D01*
X-279387Y-286723D01*
X-279238Y-288231D01*
X-278798Y-289682D01*
X-278084Y-291019D01*
X-277122Y-292191D01*
X-275950Y-293153D01*
X-274613Y-293867D01*
X-273162Y-294307D01*
X-271654Y-294456D01*
X-270145Y-294307D01*
X-268694Y-293867D01*
X-267357Y-293153D01*
X-266185Y-292191D01*
X-265224Y-291019D01*
X-264509Y-289682D01*
X-264069Y-288231D01*
X-263920Y-286723D01*
X-264069Y-285214D01*
X-264509Y-283763D01*
X-265224Y-282426D01*
X-266185Y-281255D01*
X-267357Y-280293D01*
X-268694Y-279578D01*
X-270145Y-279138D01*
X-271654Y-278990D01*
D02*
G37*
G36*
X-143611Y-303896D02*
X-145630D01*
Y-305915D01*
X-145595Y-305911D01*
X-144920Y-305631D01*
X-144340Y-305186D01*
X-143895Y-304607D01*
X-143616Y-303932D01*
X-143611Y-303896D01*
D02*
G37*
G36*
X-196900Y-301257D02*
X-197758Y-301428D01*
X-198486Y-301914D01*
X-198972Y-302642D01*
X-199143Y-303500D01*
X-198972Y-304358D01*
X-198486Y-305086D01*
X-197758Y-305572D01*
X-196900Y-305743D01*
X-196042Y-305572D01*
X-195314Y-305086D01*
X-194828Y-304358D01*
X-194657Y-303500D01*
X-194828Y-302642D01*
X-195314Y-301914D01*
X-196042Y-301428D01*
X-196900Y-301257D01*
D02*
G37*
G36*
X43381Y-305938D02*
X42523Y-306109D01*
X41795Y-306595D01*
X41309Y-307323D01*
X41138Y-308181D01*
X41309Y-309039D01*
X41795Y-309767D01*
X42523Y-310253D01*
X43381Y-310424D01*
X44239Y-310253D01*
X44967Y-309767D01*
X45453Y-309039D01*
X45624Y-308181D01*
X45453Y-307323D01*
X44967Y-306595D01*
X44239Y-306109D01*
X43381Y-305938D01*
D02*
G37*
G36*
X28381Y-306357D02*
X27523Y-306528D01*
X26795Y-307014D01*
X26309Y-307742D01*
X26138Y-308600D01*
X26309Y-309458D01*
X26795Y-310186D01*
X27523Y-310672D01*
X28381Y-310843D01*
X29239Y-310672D01*
X29967Y-310186D01*
X30453Y-309458D01*
X30624Y-308600D01*
X30453Y-307742D01*
X29967Y-307014D01*
X29239Y-306528D01*
X28381Y-306357D01*
D02*
G37*
G36*
X-500Y-308057D02*
X-1358Y-308228D01*
X-2086Y-308714D01*
X-2572Y-309442D01*
X-2743Y-310300D01*
X-2572Y-311158D01*
X-2086Y-311886D01*
X-1358Y-312372D01*
X-500Y-312543D01*
X358Y-312372D01*
X1086Y-311886D01*
X1572Y-311158D01*
X1743Y-310300D01*
X1572Y-309442D01*
X1086Y-308714D01*
X358Y-308228D01*
X-500Y-308057D01*
D02*
G37*
G36*
X-36400Y-313457D02*
X-37258Y-313628D01*
X-37986Y-314114D01*
X-38472Y-314842D01*
X-38643Y-315700D01*
X-38472Y-316558D01*
X-37986Y-317286D01*
X-37258Y-317772D01*
X-36400Y-317943D01*
X-35542Y-317772D01*
X-34814Y-317286D01*
X-34328Y-316558D01*
X-34157Y-315700D01*
X-34328Y-314842D01*
X-34814Y-314114D01*
X-35542Y-313628D01*
X-36400Y-313457D01*
D02*
G37*
G36*
X-196900Y-296257D02*
X-197758Y-296428D01*
X-198486Y-296914D01*
X-198972Y-297642D01*
X-199143Y-298500D01*
X-198972Y-299358D01*
X-198486Y-300086D01*
X-197758Y-300572D01*
X-196900Y-300743D01*
X-196042Y-300572D01*
X-195314Y-300086D01*
X-194828Y-299358D01*
X-194657Y-298500D01*
X-194828Y-297642D01*
X-195314Y-296914D01*
X-196042Y-296428D01*
X-196900Y-296257D01*
D02*
G37*
G36*
X-145630Y-300499D02*
Y-302518D01*
X-143611D01*
X-143616Y-302483D01*
X-143895Y-301808D01*
X-144340Y-301228D01*
X-144920Y-300783D01*
X-145595Y-300504D01*
X-145630Y-300499D01*
D02*
G37*
G36*
X-225700Y-316777D02*
X-226405Y-316869D01*
X-227062Y-317142D01*
X-227626Y-317574D01*
X-227738Y-317721D01*
X-228238D01*
X-228274Y-317674D01*
X-228838Y-317242D01*
X-229495Y-316969D01*
X-230200Y-316877D01*
X-230905Y-316969D01*
X-231562Y-317242D01*
X-232126Y-317674D01*
X-232558Y-318238D01*
X-232831Y-318895D01*
X-232923Y-319600D01*
X-232831Y-320305D01*
X-232558Y-320962D01*
X-232126Y-321526D01*
X-231562Y-321958D01*
X-230905Y-322231D01*
X-230200Y-322323D01*
X-229495Y-322231D01*
X-228838Y-321958D01*
X-228274Y-321526D01*
X-228162Y-321379D01*
X-227662D01*
X-227626Y-321426D01*
X-227062Y-321858D01*
X-226405Y-322130D01*
X-225700Y-322223D01*
X-224995Y-322130D01*
X-224338Y-321858D01*
X-223774Y-321426D01*
X-223342Y-320862D01*
X-223070Y-320205D01*
X-222977Y-319500D01*
X-223070Y-318795D01*
X-223342Y-318138D01*
X-223774Y-317574D01*
X-224338Y-317142D01*
X-224995Y-316869D01*
X-225700Y-316777D01*
D02*
G37*
G36*
X-383358Y-344209D02*
X-383753Y-344261D01*
X-384763Y-344680D01*
X-385630Y-345345D01*
X-386296Y-346213D01*
X-386714Y-347223D01*
X-386767Y-347618D01*
X-383358D01*
Y-344209D01*
D02*
G37*
G36*
X-197231Y-343557D02*
X-198089Y-343728D01*
X-198817Y-344214D01*
X-199303Y-344942D01*
X-199474Y-345800D01*
X-199303Y-346658D01*
X-198817Y-347386D01*
X-198089Y-347872D01*
X-197231Y-348043D01*
X-196372Y-347872D01*
X-195645Y-347386D01*
X-195158Y-346658D01*
X-194988Y-345800D01*
X-195158Y-344942D01*
X-195645Y-344214D01*
X-196372Y-343728D01*
X-197231Y-343557D01*
D02*
G37*
G36*
X-353722Y-348996D02*
X-357131D01*
Y-352405D01*
X-356736Y-352353D01*
X-355726Y-351935D01*
X-354858Y-351269D01*
X-354192Y-350402D01*
X-353774Y-349391D01*
X-353722Y-348996D01*
D02*
G37*
G36*
X-357131Y-344209D02*
Y-347618D01*
X-353722D01*
X-353774Y-347223D01*
X-354192Y-346213D01*
X-354858Y-345345D01*
X-355726Y-344680D01*
X-356736Y-344261D01*
X-357131Y-344209D01*
D02*
G37*
G36*
X-358509D02*
X-358904Y-344261D01*
X-359914Y-344680D01*
X-360782Y-345345D01*
X-361447Y-346213D01*
X-361866Y-347223D01*
X-361918Y-347618D01*
X-358509D01*
Y-344209D01*
D02*
G37*
G36*
X-381980D02*
Y-347618D01*
X-378571D01*
X-378623Y-347223D01*
X-379041Y-346213D01*
X-379707Y-345345D01*
X-380574Y-344680D01*
X-381585Y-344261D01*
X-381980Y-344209D01*
D02*
G37*
G36*
X-358509Y-348996D02*
X-361918D01*
X-361866Y-349391D01*
X-361447Y-350402D01*
X-360782Y-351269D01*
X-359914Y-351935D01*
X-358904Y-352353D01*
X-358509Y-352405D01*
Y-348996D01*
D02*
G37*
G36*
X-6700Y-350957D02*
X-7558Y-351128D01*
X-8286Y-351614D01*
X-8772Y-352342D01*
X-8943Y-353200D01*
X-8772Y-354058D01*
X-8286Y-354786D01*
X-7558Y-355272D01*
X-6700Y-355443D01*
X-5842Y-355272D01*
X-5114Y-354786D01*
X-4628Y-354058D01*
X-4457Y-353200D01*
X-4628Y-352342D01*
X-5114Y-351614D01*
X-5842Y-351128D01*
X-6700Y-350957D01*
D02*
G37*
G36*
X-134800Y-351257D02*
X-135658Y-351428D01*
X-136386Y-351914D01*
X-136872Y-352642D01*
X-137043Y-353500D01*
X-136872Y-354358D01*
X-136386Y-355086D01*
X-135658Y-355572D01*
X-134800Y-355743D01*
X-133942Y-355572D01*
X-133214Y-355086D01*
X-132728Y-354358D01*
X-132557Y-353500D01*
X-132728Y-352642D01*
X-133214Y-351914D01*
X-133942Y-351428D01*
X-134800Y-351257D01*
D02*
G37*
G36*
X-142200Y-351557D02*
X-143058Y-351728D01*
X-143786Y-352214D01*
X-144272Y-352942D01*
X-144443Y-353800D01*
X-144272Y-354658D01*
X-143786Y-355386D01*
X-143058Y-355872D01*
X-142200Y-356043D01*
X-141342Y-355872D01*
X-140614Y-355386D01*
X-140128Y-354658D01*
X-139957Y-353800D01*
X-140128Y-352942D01*
X-140614Y-352214D01*
X-141342Y-351728D01*
X-142200Y-351557D01*
D02*
G37*
G36*
X-378571Y-348996D02*
X-381980D01*
Y-352405D01*
X-381585Y-352353D01*
X-380574Y-351935D01*
X-379707Y-351269D01*
X-379041Y-350402D01*
X-378623Y-349391D01*
X-378571Y-348996D01*
D02*
G37*
G36*
X-383358D02*
X-386767D01*
X-386714Y-349391D01*
X-386296Y-350402D01*
X-385630Y-351269D01*
X-384763Y-351935D01*
X-383753Y-352353D01*
X-383358Y-352405D01*
Y-348996D01*
D02*
G37*
G36*
X-332971Y-344119D02*
X-334055Y-344261D01*
X-335065Y-344680D01*
X-335933Y-345345D01*
X-336598Y-346213D01*
X-337017Y-347223D01*
X-337159Y-348307D01*
X-337017Y-349391D01*
X-336598Y-350402D01*
X-335933Y-351269D01*
X-335065Y-351935D01*
X-334055Y-352353D01*
X-332971Y-352496D01*
X-331887Y-352353D01*
X-330877Y-351935D01*
X-330009Y-351269D01*
X-329344Y-350402D01*
X-328925Y-349391D01*
X-328782Y-348307D01*
X-328925Y-347223D01*
X-329344Y-346213D01*
X-330009Y-345345D01*
X-330877Y-344680D01*
X-331887Y-344261D01*
X-332971Y-344119D01*
D02*
G37*
G36*
X-332282Y-334209D02*
Y-337618D01*
X-328873D01*
X-328925Y-337223D01*
X-329344Y-336213D01*
X-330009Y-335346D01*
X-330877Y-334680D01*
X-331887Y-334261D01*
X-332282Y-334209D01*
D02*
G37*
G36*
X-333660D02*
X-334055Y-334261D01*
X-335065Y-334680D01*
X-335933Y-335346D01*
X-336598Y-336213D01*
X-337017Y-337223D01*
X-337069Y-337618D01*
X-333660D01*
Y-334209D01*
D02*
G37*
G36*
X-328873Y-338996D02*
X-332282D01*
Y-342405D01*
X-331887Y-342353D01*
X-330877Y-341935D01*
X-330009Y-341269D01*
X-329344Y-340402D01*
X-328925Y-339391D01*
X-328873Y-338996D01*
D02*
G37*
G36*
X-282100Y-328677D02*
X-282805Y-328769D01*
X-283462Y-329042D01*
X-284026Y-329474D01*
X-284458Y-330038D01*
X-284550Y-330259D01*
X-285050D01*
X-285142Y-330038D01*
X-285574Y-329474D01*
X-286138Y-329042D01*
X-286795Y-328769D01*
X-287500Y-328677D01*
X-288205Y-328769D01*
X-288862Y-329042D01*
X-289426Y-329474D01*
X-289858Y-330038D01*
X-290130Y-330695D01*
X-290223Y-331400D01*
X-290130Y-332105D01*
X-289858Y-332762D01*
X-289426Y-333326D01*
X-288862Y-333758D01*
X-288205Y-334031D01*
X-287500Y-334123D01*
X-286795Y-334031D01*
X-286138Y-333758D01*
X-285574Y-333326D01*
X-285142Y-332762D01*
X-285050Y-332541D01*
X-284550D01*
X-284458Y-332762D01*
X-284026Y-333326D01*
X-283462Y-333758D01*
X-282805Y-334031D01*
X-282100Y-334123D01*
X-281395Y-334031D01*
X-280738Y-333758D01*
X-280174Y-333326D01*
X-279742Y-332762D01*
X-279469Y-332105D01*
X-279377Y-331400D01*
X-279469Y-330695D01*
X-279742Y-330038D01*
X-280174Y-329474D01*
X-280738Y-329042D01*
X-281395Y-328769D01*
X-282100Y-328677D01*
D02*
G37*
G36*
X-353667Y-324154D02*
X-361972D01*
Y-332460D01*
X-353667D01*
Y-324154D01*
D02*
G37*
G36*
X-378516D02*
X-386821D01*
Y-332460D01*
X-378516D01*
Y-324154D01*
D02*
G37*
G36*
X-333660Y-338996D02*
X-337069D01*
X-337017Y-339391D01*
X-336598Y-340402D01*
X-335933Y-341269D01*
X-335065Y-341935D01*
X-334055Y-342353D01*
X-333660Y-342405D01*
Y-338996D01*
D02*
G37*
G36*
X-31300Y-340057D02*
X-32158Y-340228D01*
X-32886Y-340714D01*
X-33372Y-341442D01*
X-33543Y-342300D01*
X-33372Y-343158D01*
X-32886Y-343886D01*
X-32158Y-344372D01*
X-31300Y-344543D01*
X-30442Y-344372D01*
X-29714Y-343886D01*
X-29228Y-343158D01*
X-29057Y-342300D01*
X-29228Y-341442D01*
X-29714Y-340714D01*
X-30442Y-340228D01*
X-31300Y-340057D01*
D02*
G37*
G36*
X-41300D02*
X-42158Y-340228D01*
X-42886Y-340714D01*
X-43372Y-341442D01*
X-43543Y-342300D01*
X-43372Y-343158D01*
X-42886Y-343886D01*
X-42158Y-344372D01*
X-41300Y-344543D01*
X-40442Y-344372D01*
X-39714Y-343886D01*
X-39228Y-343158D01*
X-39057Y-342300D01*
X-39228Y-341442D01*
X-39714Y-340714D01*
X-40442Y-340228D01*
X-41300Y-340057D01*
D02*
G37*
G36*
X-36300Y-340057D02*
X-37158Y-340228D01*
X-37886Y-340714D01*
X-38372Y-341442D01*
X-38543Y-342300D01*
X-38372Y-343158D01*
X-37886Y-343886D01*
X-37158Y-344372D01*
X-36300Y-344543D01*
X-35442Y-344372D01*
X-34714Y-343886D01*
X-34228Y-343158D01*
X-34057Y-342300D01*
X-34228Y-341442D01*
X-34714Y-340714D01*
X-35442Y-340228D01*
X-36300Y-340057D01*
D02*
G37*
G36*
X-357820Y-334119D02*
X-358904Y-334261D01*
X-359914Y-334680D01*
X-360782Y-335346D01*
X-361447Y-336213D01*
X-361866Y-337223D01*
X-362008Y-338307D01*
X-361866Y-339391D01*
X-361447Y-340402D01*
X-360782Y-341269D01*
X-359914Y-341935D01*
X-358904Y-342353D01*
X-357820Y-342496D01*
X-356736Y-342353D01*
X-355726Y-341935D01*
X-354858Y-341269D01*
X-354192Y-340402D01*
X-353774Y-339391D01*
X-353631Y-338307D01*
X-353774Y-337223D01*
X-354192Y-336213D01*
X-354858Y-335346D01*
X-355726Y-334680D01*
X-356736Y-334261D01*
X-357820Y-334119D01*
D02*
G37*
G36*
X-382669D02*
X-383753Y-334261D01*
X-384763Y-334680D01*
X-385630Y-335346D01*
X-386296Y-336213D01*
X-386714Y-337223D01*
X-386857Y-338307D01*
X-386714Y-339391D01*
X-386296Y-340402D01*
X-385630Y-341269D01*
X-384763Y-341935D01*
X-383753Y-342353D01*
X-382669Y-342496D01*
X-381585Y-342353D01*
X-380574Y-341935D01*
X-379707Y-341269D01*
X-379041Y-340402D01*
X-378623Y-339391D01*
X-378480Y-338307D01*
X-378623Y-337223D01*
X-379041Y-336213D01*
X-379707Y-335346D01*
X-380574Y-334680D01*
X-381585Y-334261D01*
X-382669Y-334119D01*
D02*
G37*
G36*
X-197231Y-338557D02*
X-198089Y-338728D01*
X-198817Y-339214D01*
X-199303Y-339942D01*
X-199474Y-340800D01*
X-199303Y-341658D01*
X-198817Y-342386D01*
X-198089Y-342872D01*
X-197231Y-343043D01*
X-196372Y-342872D01*
X-195645Y-342386D01*
X-195158Y-341658D01*
X-194988Y-340800D01*
X-195158Y-339942D01*
X-195645Y-339214D01*
X-196372Y-338728D01*
X-197231Y-338557D01*
D02*
G37*
G36*
X-294800Y-283377D02*
X-295505Y-283470D01*
X-296162Y-283742D01*
X-296726Y-284174D01*
X-297158Y-284738D01*
X-297430Y-285395D01*
X-297523Y-286100D01*
X-297430Y-286805D01*
X-297158Y-287462D01*
X-296726Y-288026D01*
X-296542Y-288167D01*
Y-288667D01*
X-296726Y-288808D01*
X-297158Y-289372D01*
X-297430Y-290029D01*
X-297523Y-290733D01*
X-297430Y-291438D01*
X-297158Y-292095D01*
X-296726Y-292659D01*
X-296542Y-292800D01*
Y-293300D01*
X-296726Y-293441D01*
X-297158Y-294005D01*
X-297172Y-294039D01*
X-297668Y-294104D01*
X-298074Y-293574D01*
X-298638Y-293142D01*
X-299295Y-292869D01*
X-300000Y-292777D01*
X-300705Y-292869D01*
X-301362Y-293142D01*
X-301926Y-293574D01*
X-302067Y-293758D01*
X-302567D01*
X-302708Y-293574D01*
X-303272Y-293142D01*
X-303928Y-292869D01*
X-304633Y-292777D01*
X-305338Y-292869D01*
X-305995Y-293142D01*
X-306559Y-293574D01*
X-306700Y-293758D01*
X-307200D01*
X-307341Y-293574D01*
X-307905Y-293142D01*
X-308562Y-292869D01*
X-309267Y-292777D01*
X-309971Y-292869D01*
X-310628Y-293142D01*
X-311192Y-293574D01*
X-311333Y-293758D01*
X-311833D01*
X-311974Y-293574D01*
X-312538Y-293142D01*
X-313195Y-292869D01*
X-313900Y-292777D01*
X-314605Y-292869D01*
X-315262Y-293142D01*
X-315826Y-293574D01*
X-316258Y-294138D01*
X-316530Y-294795D01*
X-316623Y-295500D01*
X-316530Y-296205D01*
X-316258Y-296862D01*
X-315826Y-297426D01*
X-315679Y-297538D01*
Y-298038D01*
X-315726Y-298074D01*
X-316158Y-298638D01*
X-316430Y-299295D01*
X-316523Y-300000D01*
X-316430Y-300705D01*
X-316158Y-301362D01*
X-315726Y-301926D01*
X-315162Y-302358D01*
X-314505Y-302630D01*
X-313800Y-302723D01*
X-313095Y-302630D01*
X-312438Y-302358D01*
X-311874Y-301926D01*
X-311733Y-301742D01*
X-311233D01*
X-311092Y-301926D01*
X-310528Y-302358D01*
X-309872Y-302630D01*
X-309167Y-302723D01*
X-308462Y-302630D01*
X-307805Y-302358D01*
X-307241Y-301926D01*
X-307100Y-301742D01*
X-306600D01*
X-306459Y-301926D01*
X-305895Y-302358D01*
X-305238Y-302630D01*
X-304533Y-302723D01*
X-303829Y-302630D01*
X-303172Y-302358D01*
X-302608Y-301926D01*
X-302467Y-301742D01*
X-301967D01*
X-301826Y-301926D01*
X-301262Y-302358D01*
X-300605Y-302630D01*
X-299900Y-302723D01*
X-299195Y-302630D01*
X-298538Y-302358D01*
X-297974Y-301926D01*
X-297600Y-301438D01*
X-297100D01*
X-296726Y-301926D01*
X-296162Y-302358D01*
X-295505Y-302630D01*
X-294800Y-302723D01*
X-294095Y-302630D01*
X-293438Y-302358D01*
X-292874Y-301926D01*
X-292442Y-301362D01*
X-292169Y-300705D01*
X-292077Y-300000D01*
X-292169Y-299295D01*
X-292442Y-298638D01*
X-292874Y-298074D01*
X-293058Y-297933D01*
Y-297433D01*
X-292874Y-297292D01*
X-292442Y-296728D01*
X-292169Y-296072D01*
X-292077Y-295367D01*
X-292169Y-294662D01*
X-292442Y-294005D01*
X-292874Y-293441D01*
X-293058Y-293300D01*
Y-292800D01*
X-292874Y-292659D01*
X-292442Y-292095D01*
X-292169Y-291438D01*
X-292077Y-290733D01*
X-292169Y-290029D01*
X-292442Y-289372D01*
X-292874Y-288808D01*
X-293058Y-288667D01*
Y-288167D01*
X-292874Y-288026D01*
X-292442Y-287462D01*
X-292169Y-286805D01*
X-292077Y-286100D01*
X-292169Y-285395D01*
X-292442Y-284738D01*
X-292874Y-284174D01*
X-293438Y-283742D01*
X-294095Y-283470D01*
X-294800Y-283377D01*
D02*
G37*
G36*
X-388000Y-181419D02*
X-389341Y-181595D01*
X-390591Y-182113D01*
X-391664Y-182936D01*
X-392487Y-184009D01*
X-393005Y-185259D01*
X-393181Y-186600D01*
X-393005Y-187941D01*
X-392487Y-189191D01*
X-391664Y-190264D01*
X-390591Y-191087D01*
X-389341Y-191605D01*
X-388000Y-191781D01*
X-386659Y-191605D01*
X-385409Y-191087D01*
X-384336Y-190264D01*
X-383513Y-189191D01*
X-382995Y-187941D01*
X-382819Y-186600D01*
X-382995Y-185259D01*
X-383513Y-184009D01*
X-384336Y-182936D01*
X-385409Y-182113D01*
X-386659Y-181595D01*
X-388000Y-181419D01*
D02*
G37*
G36*
X-387311Y-201509D02*
Y-205911D01*
X-382909D01*
X-382995Y-205259D01*
X-383513Y-204009D01*
X-384336Y-202936D01*
X-385409Y-202113D01*
X-386659Y-201595D01*
X-387311Y-201509D01*
D02*
G37*
G36*
X-415680Y-144409D02*
X-416075Y-144461D01*
X-417086Y-144880D01*
X-417953Y-145545D01*
X-418619Y-146413D01*
X-419037Y-147423D01*
X-419089Y-147818D01*
X-415680D01*
Y-144409D01*
D02*
G37*
G36*
X-414991Y-134319D02*
X-416075Y-134461D01*
X-417086Y-134880D01*
X-417953Y-135546D01*
X-418619Y-136413D01*
X-419037Y-137423D01*
X-419180Y-138507D01*
X-419037Y-139592D01*
X-418619Y-140602D01*
X-417953Y-141469D01*
X-417086Y-142135D01*
X-416075Y-142553D01*
X-414991Y-142696D01*
X-413907Y-142553D01*
X-412897Y-142135D01*
X-412030Y-141469D01*
X-411364Y-140602D01*
X-410945Y-139592D01*
X-410803Y-138507D01*
X-410945Y-137423D01*
X-411364Y-136413D01*
X-412030Y-135546D01*
X-412897Y-134880D01*
X-413907Y-134461D01*
X-414991Y-134319D01*
D02*
G37*
G36*
X-414302Y-144409D02*
Y-147818D01*
X-410893D01*
X-410945Y-147423D01*
X-411364Y-146413D01*
X-412030Y-145545D01*
X-412897Y-144880D01*
X-413907Y-144461D01*
X-414302Y-144409D01*
D02*
G37*
G36*
X-388689Y-201509D02*
X-389341Y-201595D01*
X-390591Y-202113D01*
X-391664Y-202936D01*
X-392487Y-204009D01*
X-393005Y-205259D01*
X-393091Y-205911D01*
X-388689D01*
Y-201509D01*
D02*
G37*
G36*
Y-207289D02*
X-393091D01*
X-393005Y-207941D01*
X-392487Y-209191D01*
X-391664Y-210264D01*
X-390591Y-211087D01*
X-389341Y-211605D01*
X-388689Y-211691D01*
Y-207289D01*
D02*
G37*
G36*
X-328000Y-201419D02*
X-329341Y-201595D01*
X-330591Y-202113D01*
X-331664Y-202936D01*
X-332487Y-204009D01*
X-333005Y-205259D01*
X-333181Y-206600D01*
X-333005Y-207941D01*
X-332487Y-209191D01*
X-331664Y-210264D01*
X-330591Y-211087D01*
X-329341Y-211605D01*
X-328000Y-211781D01*
X-326659Y-211605D01*
X-325409Y-211087D01*
X-324336Y-210264D01*
X-323513Y-209191D01*
X-322995Y-207941D01*
X-322819Y-206600D01*
X-322995Y-205259D01*
X-323513Y-204009D01*
X-324336Y-202936D01*
X-325409Y-202113D01*
X-326659Y-201595D01*
X-328000Y-201419D01*
D02*
G37*
G36*
X-382909Y-207289D02*
X-387311D01*
Y-211691D01*
X-386659Y-211605D01*
X-385409Y-211087D01*
X-384336Y-210264D01*
X-383513Y-209191D01*
X-382995Y-207941D01*
X-382909Y-207289D01*
D02*
G37*
G36*
X-274400Y-201119D02*
X-275741Y-201295D01*
X-276991Y-201813D01*
X-278064Y-202636D01*
X-278887Y-203709D01*
X-279405Y-204959D01*
X-279581Y-206300D01*
X-279405Y-207641D01*
X-278887Y-208891D01*
X-278064Y-209964D01*
X-276991Y-210787D01*
X-275741Y-211305D01*
X-274400Y-211481D01*
X-273059Y-211305D01*
X-271809Y-210787D01*
X-270736Y-209964D01*
X-269913Y-208891D01*
X-269395Y-207641D01*
X-269219Y-206300D01*
X-269395Y-204959D01*
X-269913Y-203709D01*
X-270736Y-202636D01*
X-271809Y-201813D01*
X-273059Y-201295D01*
X-274400Y-201119D01*
D02*
G37*
G36*
X-305896D02*
X-307237Y-201295D01*
X-308487Y-201813D01*
X-309560Y-202636D01*
X-310383Y-203709D01*
X-310901Y-204959D01*
X-311077Y-206300D01*
X-310901Y-207641D01*
X-310383Y-208891D01*
X-309560Y-209964D01*
X-308487Y-210787D01*
X-307237Y-211305D01*
X-305896Y-211481D01*
X-304555Y-211305D01*
X-303305Y-210787D01*
X-302232Y-209964D01*
X-301409Y-208891D01*
X-300891Y-207641D01*
X-300715Y-206300D01*
X-300891Y-204959D01*
X-301409Y-203709D01*
X-302232Y-202636D01*
X-303305Y-201813D01*
X-304555Y-201295D01*
X-305896Y-201119D01*
D02*
G37*
G36*
X-414991Y-124319D02*
X-416075Y-124461D01*
X-417086Y-124880D01*
X-417953Y-125546D01*
X-418619Y-126413D01*
X-419037Y-127423D01*
X-419180Y-128507D01*
X-419037Y-129591D01*
X-418619Y-130602D01*
X-417953Y-131469D01*
X-417086Y-132135D01*
X-416075Y-132553D01*
X-414991Y-132696D01*
X-413907Y-132553D01*
X-412897Y-132135D01*
X-412030Y-131469D01*
X-411364Y-130602D01*
X-410945Y-129591D01*
X-410803Y-128507D01*
X-410945Y-127423D01*
X-411364Y-126413D01*
X-412030Y-125546D01*
X-412897Y-124880D01*
X-413907Y-124461D01*
X-414991Y-124319D01*
D02*
G37*
G36*
X-333600Y-20177D02*
X-334305Y-20269D01*
X-334962Y-20542D01*
X-335526Y-20974D01*
X-335958Y-21538D01*
X-336230Y-22195D01*
X-336323Y-22900D01*
X-336230Y-23605D01*
X-335958Y-24262D01*
X-335526Y-24826D01*
X-335349Y-24962D01*
X-335349Y-25462D01*
X-335626Y-25674D01*
X-336058Y-26238D01*
X-336331Y-26895D01*
X-336423Y-27600D01*
X-336331Y-28305D01*
X-336058Y-28962D01*
X-335626Y-29526D01*
X-335364Y-29727D01*
X-335364Y-30227D01*
X-335426Y-30274D01*
X-335858Y-30838D01*
X-336130Y-31495D01*
X-336223Y-32200D01*
X-336130Y-32905D01*
X-335858Y-33562D01*
X-335426Y-34126D01*
X-334918Y-34515D01*
Y-34695D01*
X-335113Y-35164D01*
X-335126Y-35174D01*
X-335558Y-35738D01*
X-335830Y-36395D01*
X-335923Y-37100D01*
X-335830Y-37805D01*
X-335558Y-38462D01*
X-335126Y-39026D01*
X-334562Y-39458D01*
X-333905Y-39731D01*
X-333200Y-39823D01*
X-332495Y-39731D01*
X-331838Y-39458D01*
X-331274Y-39026D01*
X-330842Y-38462D01*
X-330570Y-37805D01*
X-330507Y-37327D01*
X-330493D01*
Y-37327D01*
X-330007D01*
X-329930Y-37905D01*
X-329658Y-38562D01*
X-329226Y-39126D01*
X-328662Y-39558D01*
X-328005Y-39830D01*
X-327300Y-39923D01*
X-326595Y-39830D01*
X-325938Y-39558D01*
X-325374Y-39126D01*
X-324942Y-38562D01*
X-324670Y-37905D01*
X-324577Y-37200D01*
X-324670Y-36495D01*
X-324942Y-35838D01*
X-325374Y-35274D01*
X-325938Y-34842D01*
X-326238Y-34717D01*
Y-34658D01*
X-325674Y-34226D01*
X-325242Y-33662D01*
X-324970Y-33005D01*
X-324877Y-32300D01*
X-324970Y-31595D01*
X-325242Y-30938D01*
X-325674Y-30374D01*
X-326238Y-29942D01*
X-326243Y-29908D01*
X-325874Y-29626D01*
X-325442Y-29062D01*
X-325169Y-28405D01*
X-325077Y-27700D01*
X-325169Y-26995D01*
X-325442Y-26338D01*
X-325874Y-25774D01*
X-326345Y-25413D01*
X-326338Y-25358D01*
X-325774Y-24926D01*
X-325342Y-24362D01*
X-325069Y-23705D01*
X-324977Y-23000D01*
X-325069Y-22295D01*
X-325342Y-21638D01*
X-325774Y-21074D01*
X-326338Y-20642D01*
X-326995Y-20369D01*
X-327700Y-20277D01*
X-328405Y-20369D01*
X-329062Y-20642D01*
X-329626Y-21074D01*
X-330058Y-21638D01*
X-330330Y-22295D01*
X-330393Y-22773D01*
X-330407D01*
Y-22773D01*
X-330893D01*
X-330970Y-22195D01*
X-331242Y-21538D01*
X-331674Y-20974D01*
X-332238Y-20542D01*
X-332895Y-20269D01*
X-333600Y-20177D01*
D02*
G37*
G36*
X-321500Y-20477D02*
X-322205Y-20570D01*
X-322862Y-20842D01*
X-323426Y-21274D01*
X-323858Y-21838D01*
X-324131Y-22495D01*
X-324223Y-23200D01*
X-324131Y-23905D01*
X-323858Y-24562D01*
X-323426Y-25126D01*
X-323249Y-25262D01*
X-323249Y-25762D01*
X-323526Y-25974D01*
X-323958Y-26538D01*
X-324231Y-27195D01*
X-324323Y-27900D01*
X-324231Y-28605D01*
X-323958Y-29262D01*
X-323526Y-29826D01*
X-323264Y-30027D01*
X-323264Y-30527D01*
X-323326Y-30574D01*
X-323758Y-31138D01*
X-324030Y-31795D01*
X-324123Y-32500D01*
X-324030Y-33205D01*
X-323758Y-33862D01*
X-323326Y-34426D01*
X-322818Y-34815D01*
Y-34995D01*
X-323013Y-35464D01*
X-323026Y-35474D01*
X-323458Y-36038D01*
X-323730Y-36695D01*
X-323823Y-37400D01*
X-323730Y-38105D01*
X-323458Y-38762D01*
X-323026Y-39326D01*
X-322462Y-39758D01*
X-321805Y-40031D01*
X-321100Y-40123D01*
X-320395Y-40031D01*
X-319738Y-39758D01*
X-319174Y-39326D01*
X-318742Y-38762D01*
X-318470Y-38105D01*
X-318377Y-37400D01*
X-318470Y-36695D01*
X-318742Y-36038D01*
X-319174Y-35474D01*
X-319738Y-35042D01*
X-320038Y-34917D01*
Y-34858D01*
X-319474Y-34426D01*
X-319042Y-33862D01*
X-318770Y-33205D01*
X-318677Y-32500D01*
X-318770Y-31795D01*
X-319042Y-31138D01*
X-319474Y-30574D01*
X-320038Y-30142D01*
X-320043Y-30108D01*
X-319674Y-29826D01*
X-319242Y-29262D01*
X-318969Y-28605D01*
X-318877Y-27900D01*
X-318969Y-27195D01*
X-319242Y-26538D01*
X-319674Y-25974D01*
X-320146Y-25613D01*
X-320138Y-25558D01*
X-319574Y-25126D01*
X-319142Y-24562D01*
X-318869Y-23905D01*
X-318777Y-23200D01*
X-318869Y-22495D01*
X-319142Y-21838D01*
X-319574Y-21274D01*
X-320138Y-20842D01*
X-320795Y-20570D01*
X-321500Y-20477D01*
D02*
G37*
G36*
X-340900Y-19977D02*
X-341605Y-20069D01*
X-342262Y-20342D01*
X-342826Y-20774D01*
X-343258Y-21338D01*
X-343531Y-21995D01*
X-343623Y-22700D01*
X-343531Y-23405D01*
X-343258Y-24062D01*
X-342826Y-24626D01*
X-342649Y-24762D01*
X-342649Y-25262D01*
X-342926Y-25474D01*
X-343358Y-26038D01*
X-343631Y-26695D01*
X-343723Y-27400D01*
X-343631Y-28105D01*
X-343358Y-28762D01*
X-342926Y-29326D01*
X-342664Y-29527D01*
X-342664Y-30027D01*
X-342726Y-30074D01*
X-343158Y-30638D01*
X-343430Y-31295D01*
X-343523Y-32000D01*
X-343430Y-32705D01*
X-343158Y-33362D01*
X-342726Y-33926D01*
X-342218Y-34315D01*
Y-34495D01*
X-342413Y-34964D01*
X-342426Y-34974D01*
X-342858Y-35538D01*
X-343130Y-36195D01*
X-343223Y-36900D01*
X-343130Y-37605D01*
X-342858Y-38262D01*
X-342426Y-38826D01*
X-341862Y-39258D01*
X-341205Y-39531D01*
X-340500Y-39623D01*
X-339795Y-39531D01*
X-339138Y-39258D01*
X-338574Y-38826D01*
X-338142Y-38262D01*
X-337870Y-37605D01*
X-337777Y-36900D01*
X-337870Y-36195D01*
X-338142Y-35538D01*
X-338574Y-34974D01*
X-339138Y-34542D01*
X-339438Y-34417D01*
Y-34358D01*
X-338874Y-33926D01*
X-338442Y-33362D01*
X-338170Y-32705D01*
X-338077Y-32000D01*
X-338170Y-31295D01*
X-338442Y-30638D01*
X-338874Y-30074D01*
X-339438Y-29642D01*
X-339443Y-29608D01*
X-339074Y-29326D01*
X-338642Y-28762D01*
X-338369Y-28105D01*
X-338277Y-27400D01*
X-338369Y-26695D01*
X-338642Y-26038D01*
X-339074Y-25474D01*
X-339545Y-25113D01*
X-339538Y-25058D01*
X-338974Y-24626D01*
X-338542Y-24062D01*
X-338269Y-23405D01*
X-338177Y-22700D01*
X-338269Y-21995D01*
X-338542Y-21338D01*
X-338974Y-20774D01*
X-339538Y-20342D01*
X-340195Y-20069D01*
X-340900Y-19977D01*
D02*
G37*
G36*
X-404800Y-10357D02*
X-405658Y-10528D01*
X-406386Y-11014D01*
X-406872Y-11742D01*
X-407043Y-12600D01*
X-406872Y-13458D01*
X-406386Y-14186D01*
X-405658Y-14672D01*
X-404800Y-14843D01*
X-403942Y-14672D01*
X-403214Y-14186D01*
X-402728Y-13458D01*
X-402557Y-12600D01*
X-402728Y-11742D01*
X-403214Y-11014D01*
X-403942Y-10528D01*
X-404800Y-10357D01*
D02*
G37*
G36*
X47945Y-9489D02*
X46436Y-9638D01*
X44985Y-10078D01*
X43648Y-10793D01*
X42476Y-11755D01*
X41515Y-12926D01*
X40800Y-14263D01*
X40360Y-15714D01*
X40211Y-17223D01*
X40360Y-18732D01*
X40800Y-20182D01*
X41515Y-21519D01*
X42476Y-22691D01*
X43648Y-23653D01*
X44985Y-24367D01*
X46436Y-24807D01*
X47945Y-24956D01*
X49453Y-24807D01*
X50904Y-24367D01*
X52241Y-23653D01*
X53413Y-22691D01*
X54375Y-21519D01*
X55089Y-20182D01*
X55529Y-18732D01*
X55678Y-17223D01*
X55529Y-15714D01*
X55089Y-14263D01*
X54375Y-12926D01*
X53413Y-11755D01*
X52241Y-10793D01*
X50904Y-10078D01*
X49453Y-9638D01*
X47945Y-9489D01*
D02*
G37*
G36*
X-315200Y-20577D02*
X-315905Y-20670D01*
X-316562Y-20942D01*
X-317126Y-21374D01*
X-317558Y-21938D01*
X-317830Y-22595D01*
X-317923Y-23300D01*
X-317830Y-24005D01*
X-317558Y-24662D01*
X-317126Y-25226D01*
X-316949Y-25362D01*
X-316949Y-25862D01*
X-317226Y-26074D01*
X-317658Y-26638D01*
X-317931Y-27295D01*
X-318023Y-28000D01*
X-317931Y-28705D01*
X-317658Y-29362D01*
X-317226Y-29926D01*
X-316964Y-30127D01*
X-316964Y-30627D01*
X-317026Y-30674D01*
X-317458Y-31238D01*
X-317730Y-31895D01*
X-317823Y-32600D01*
X-317730Y-33305D01*
X-317458Y-33962D01*
X-317026Y-34526D01*
X-316518Y-34915D01*
Y-35095D01*
X-316713Y-35564D01*
X-316726Y-35574D01*
X-317158Y-36138D01*
X-317430Y-36795D01*
X-317523Y-37500D01*
X-317430Y-38205D01*
X-317158Y-38862D01*
X-316726Y-39426D01*
X-316162Y-39858D01*
X-315505Y-40130D01*
X-314800Y-40223D01*
X-314095Y-40130D01*
X-313438Y-39858D01*
X-312874Y-39426D01*
X-312442Y-38862D01*
X-312170Y-38205D01*
X-312077Y-37500D01*
X-312170Y-36795D01*
X-312442Y-36138D01*
X-312874Y-35574D01*
X-313438Y-35142D01*
X-313738Y-35017D01*
Y-34958D01*
X-313174Y-34526D01*
X-312742Y-33962D01*
X-312470Y-33305D01*
X-312377Y-32600D01*
X-312470Y-31895D01*
X-312742Y-31238D01*
X-313174Y-30674D01*
X-313738Y-30242D01*
X-313743Y-30208D01*
X-313374Y-29926D01*
X-312942Y-29362D01*
X-312669Y-28705D01*
X-312577Y-28000D01*
X-312669Y-27295D01*
X-312942Y-26638D01*
X-313374Y-26074D01*
X-313845Y-25713D01*
X-313838Y-25658D01*
X-313274Y-25226D01*
X-312842Y-24662D01*
X-312569Y-24005D01*
X-312477Y-23300D01*
X-312569Y-22595D01*
X-312842Y-21938D01*
X-313274Y-21374D01*
X-313838Y-20942D01*
X-314495Y-20670D01*
X-315200Y-20577D01*
D02*
G37*
G36*
X-410839Y-104355D02*
X-419144D01*
Y-112660D01*
X-410839D01*
Y-104355D01*
D02*
G37*
G36*
X58800Y-96557D02*
X57942Y-96728D01*
X57214Y-97214D01*
X56728Y-97942D01*
X56557Y-98800D01*
X56728Y-99658D01*
X57015Y-100088D01*
Y-115612D01*
X56728Y-116042D01*
X56557Y-116900D01*
X56728Y-117758D01*
X57214Y-118486D01*
X57942Y-118972D01*
X58800Y-119143D01*
X59658Y-118972D01*
X60386Y-118486D01*
X60872Y-117758D01*
X61043Y-116900D01*
X60872Y-116042D01*
X60585Y-115612D01*
Y-100088D01*
X60872Y-99658D01*
X61043Y-98800D01*
X60872Y-97942D01*
X60386Y-97214D01*
X59658Y-96728D01*
X58800Y-96557D01*
D02*
G37*
G36*
X-391733Y-71007D02*
X-393241Y-71156D01*
X-394692Y-71596D01*
X-396029Y-72310D01*
X-397201Y-73272D01*
X-398163Y-74444D01*
X-398877Y-75781D01*
X-399317Y-77232D01*
X-399466Y-78740D01*
X-399317Y-80249D01*
X-398877Y-81700D01*
X-398163Y-83037D01*
X-397201Y-84209D01*
X-396029Y-85170D01*
X-394692Y-85885D01*
X-393241Y-86325D01*
X-391733Y-86474D01*
X-391683Y-86469D01*
X-391634Y-86474D01*
X-390125Y-86325D01*
X-388675Y-85885D01*
X-387338Y-85170D01*
X-386166Y-84209D01*
X-385204Y-83037D01*
X-384489Y-81700D01*
X-384049Y-80249D01*
X-383901Y-78740D01*
X-384049Y-77232D01*
X-384489Y-75781D01*
X-385204Y-74444D01*
X-386166Y-73272D01*
X-387338Y-72310D01*
X-388675Y-71596D01*
X-390125Y-71156D01*
X-391634Y-71007D01*
X-391683Y-71012D01*
X-391733Y-71007D01*
D02*
G37*
G36*
X-364000Y-47277D02*
X-364705Y-47370D01*
X-365362Y-47642D01*
X-365926Y-48074D01*
X-366358Y-48638D01*
X-366631Y-49295D01*
X-366723Y-50000D01*
X-366631Y-50705D01*
X-366358Y-51362D01*
X-365926Y-51926D01*
X-365362Y-52359D01*
X-364970Y-52521D01*
Y-53021D01*
X-365262Y-53141D01*
X-365826Y-53574D01*
X-366258Y-54138D01*
X-366530Y-54795D01*
X-366623Y-55500D01*
X-366530Y-56205D01*
X-366258Y-56862D01*
X-365826Y-57426D01*
X-365288Y-57838D01*
Y-57922D01*
X-365541Y-58533D01*
X-365726Y-58674D01*
X-366158Y-59238D01*
X-366430Y-59895D01*
X-366523Y-60600D01*
X-366430Y-61305D01*
X-366158Y-61962D01*
X-365726Y-62526D01*
X-365162Y-62959D01*
X-364505Y-63231D01*
X-363800Y-63323D01*
X-363095Y-63231D01*
X-362438Y-62959D01*
X-361874Y-62526D01*
X-361442Y-61962D01*
X-361170Y-61305D01*
X-361077Y-60600D01*
X-361170Y-59895D01*
X-361442Y-59238D01*
X-361874Y-58674D01*
X-362438Y-58241D01*
X-362538Y-58200D01*
Y-57859D01*
X-361974Y-57426D01*
X-361542Y-56862D01*
X-361269Y-56205D01*
X-361177Y-55500D01*
X-361269Y-54795D01*
X-361542Y-54138D01*
X-361974Y-53574D01*
X-362538Y-53141D01*
X-362930Y-52979D01*
Y-52479D01*
X-362638Y-52359D01*
X-362074Y-51926D01*
X-361642Y-51362D01*
X-361369Y-50705D01*
X-361277Y-50000D01*
X-361369Y-49295D01*
X-361642Y-48638D01*
X-362074Y-48074D01*
X-362638Y-47642D01*
X-363295Y-47370D01*
X-364000Y-47277D01*
D02*
G37*
G36*
X-371600Y-47177D02*
X-372305Y-47269D01*
X-372962Y-47542D01*
X-373526Y-47974D01*
X-373958Y-48538D01*
X-374231Y-49195D01*
X-374323Y-49900D01*
X-374231Y-50605D01*
X-373958Y-51262D01*
X-373526Y-51826D01*
X-372962Y-52258D01*
X-372305Y-52530D01*
X-372375Y-53064D01*
X-372562Y-53141D01*
X-373126Y-53574D01*
X-373558Y-54138D01*
X-373831Y-54795D01*
X-373923Y-55500D01*
X-373831Y-56205D01*
X-373558Y-56862D01*
X-373126Y-57426D01*
X-372562Y-57859D01*
X-372461Y-57900D01*
Y-58400D01*
X-372562Y-58442D01*
X-373126Y-58874D01*
X-373558Y-59438D01*
X-373831Y-60095D01*
X-373923Y-60800D01*
X-373831Y-61505D01*
X-373558Y-62162D01*
X-373126Y-62726D01*
X-372562Y-63159D01*
X-371905Y-63431D01*
X-371200Y-63523D01*
X-370495Y-63431D01*
X-369838Y-63159D01*
X-369274Y-62726D01*
X-368842Y-62162D01*
X-368569Y-61505D01*
X-368477Y-60800D01*
X-368569Y-60095D01*
X-368842Y-59438D01*
X-369274Y-58874D01*
X-369838Y-58442D01*
X-370495Y-58170D01*
X-369838Y-57859D01*
X-369838D01*
D01*
D01*
D01*
X-369838Y-57858D01*
X-369274Y-57426D01*
X-368842Y-56862D01*
X-368569Y-56205D01*
X-368477Y-55500D01*
X-368569Y-54795D01*
X-368842Y-54138D01*
X-369274Y-53574D01*
X-369838Y-53141D01*
X-370495Y-52869D01*
X-370425Y-52336D01*
X-370238Y-52258D01*
X-369674Y-51826D01*
X-369242Y-51262D01*
X-368969Y-50605D01*
X-368877Y-49900D01*
X-368969Y-49195D01*
X-369242Y-48538D01*
X-369674Y-47974D01*
X-370238Y-47542D01*
X-370895Y-47269D01*
X-371600Y-47177D01*
D02*
G37*
G36*
X95224Y-225448D02*
Y-228857D01*
X98633D01*
X98581Y-228462D01*
X98163Y-227452D01*
X97497Y-226584D01*
X96630Y-225919D01*
X95619Y-225500D01*
X95224Y-225448D01*
D02*
G37*
G36*
X-413198Y-266712D02*
X-416309D01*
Y-269823D01*
X-415991Y-269781D01*
X-415053Y-269393D01*
X-414247Y-268774D01*
X-413629Y-267968D01*
X-413240Y-267030D01*
X-413198Y-266712D01*
D02*
G37*
G36*
X-417688D02*
X-420799D01*
X-420757Y-267030D01*
X-420368Y-267968D01*
X-419750Y-268774D01*
X-418944Y-269393D01*
X-418006Y-269781D01*
X-417688Y-269823D01*
Y-266712D01*
D02*
G37*
G36*
X38500Y-257672D02*
X37665Y-257782D01*
X36886Y-258105D01*
X36218Y-258618D01*
X35705Y-259286D01*
X35382Y-260065D01*
X35272Y-260900D01*
X35382Y-261735D01*
X35705Y-262514D01*
X36218Y-263182D01*
X36886Y-263695D01*
X37665Y-264018D01*
X38500Y-264128D01*
X39335Y-264018D01*
X40114Y-263695D01*
X40782Y-263182D01*
X41295Y-262514D01*
X41618Y-261735D01*
X41728Y-260900D01*
X41618Y-260065D01*
X41295Y-259286D01*
X40782Y-258618D01*
X40114Y-258105D01*
X39335Y-257782D01*
X38500Y-257672D01*
D02*
G37*
G36*
X61193Y-249477D02*
X57784D01*
X57836Y-249872D01*
X58254Y-250883D01*
X58920Y-251750D01*
X59787Y-252416D01*
X60798Y-252834D01*
X61193Y-252886D01*
Y-249477D01*
D02*
G37*
G36*
X98688Y-245393D02*
X90383D01*
Y-253699D01*
X98688D01*
Y-245393D01*
D02*
G37*
G36*
X-322909Y-267289D02*
X-333091D01*
X-333005Y-267941D01*
X-332487Y-269191D01*
X-331664Y-270264D01*
X-330591Y-271087D01*
X-329956Y-271350D01*
Y-271850D01*
X-330591Y-272113D01*
X-331664Y-272936D01*
X-332487Y-274009D01*
X-333005Y-275259D01*
X-333091Y-275911D01*
X-322909D01*
X-322995Y-275259D01*
X-323513Y-274009D01*
X-324336Y-272936D01*
X-325409Y-272113D01*
X-326044Y-271850D01*
Y-271350D01*
X-325409Y-271087D01*
X-324336Y-270264D01*
X-323513Y-269191D01*
X-322995Y-267941D01*
X-322909Y-267289D01*
D02*
G37*
G36*
X-135000Y-277072D02*
X-135835Y-277182D01*
X-136614Y-277505D01*
X-137282Y-278018D01*
X-137795Y-278686D01*
X-138118Y-279465D01*
X-138228Y-280300D01*
X-138118Y-281135D01*
X-137795Y-281914D01*
X-137282Y-282582D01*
X-136614Y-283095D01*
X-135835Y-283418D01*
X-135000Y-283528D01*
X-134165Y-283418D01*
X-133386Y-283095D01*
X-132718Y-282582D01*
X-132205Y-281914D01*
X-131882Y-281135D01*
X-131772Y-280300D01*
X-131882Y-279465D01*
X-132205Y-278686D01*
X-132718Y-278018D01*
X-133386Y-277505D01*
X-134165Y-277182D01*
X-135000Y-277072D01*
D02*
G37*
G36*
X18381Y-279458D02*
X17676Y-279551D01*
X17019Y-279823D01*
X16455Y-280255D01*
X16023Y-280819D01*
X15751Y-281476D01*
X15658Y-282181D01*
X15751Y-282886D01*
X16023Y-283543D01*
X16455Y-284107D01*
X17019Y-284540D01*
X17676Y-284811D01*
X18381Y-284904D01*
X19086Y-284811D01*
X19743Y-284540D01*
X20307Y-284107D01*
X20740Y-283543D01*
X21012Y-282886D01*
X21104Y-282181D01*
X21012Y-281476D01*
X20740Y-280819D01*
X20307Y-280255D01*
X19743Y-279823D01*
X19086Y-279551D01*
X18381Y-279458D01*
D02*
G37*
G36*
X-53000Y-276972D02*
X-53835Y-277082D01*
X-54614Y-277405D01*
X-55282Y-277918D01*
X-55795Y-278586D01*
X-56118Y-279365D01*
X-56228Y-280200D01*
X-56118Y-281035D01*
X-55795Y-281814D01*
X-55282Y-282482D01*
X-54614Y-282995D01*
X-53835Y-283318D01*
X-53000Y-283428D01*
X-52165Y-283318D01*
X-51386Y-282995D01*
X-50718Y-282482D01*
X-50205Y-281814D01*
X-49882Y-281035D01*
X-49772Y-280200D01*
X-49882Y-279365D01*
X-50205Y-278586D01*
X-50718Y-277918D01*
X-51386Y-277405D01*
X-52165Y-277082D01*
X-53000Y-276972D01*
D02*
G37*
G36*
X-322909Y-277289D02*
X-327311D01*
Y-281691D01*
X-326659Y-281605D01*
X-325409Y-281087D01*
X-324336Y-280264D01*
X-323513Y-279191D01*
X-322995Y-277941D01*
X-322909Y-277289D01*
D02*
G37*
G36*
X-328689D02*
X-333091D01*
X-333005Y-277941D01*
X-332487Y-279191D01*
X-331664Y-280264D01*
X-330591Y-281087D01*
X-329341Y-281605D01*
X-328689Y-281691D01*
Y-277289D01*
D02*
G37*
G36*
X65980Y-249477D02*
X62571D01*
Y-252886D01*
X62966Y-252834D01*
X63976Y-252416D01*
X64844Y-251750D01*
X65509Y-250883D01*
X65928Y-249872D01*
X65980Y-249477D01*
D02*
G37*
G36*
X63358Y-224927D02*
X60405D01*
X59707Y-225020D01*
X59056Y-225289D01*
X58497Y-225718D01*
X58068Y-226277D01*
X57798Y-226928D01*
X57706Y-227627D01*
Y-230580D01*
X57798Y-231278D01*
X58068Y-231929D01*
X58497Y-232488D01*
X59056Y-232917D01*
X59707Y-233187D01*
X60405Y-233279D01*
X63358D01*
X64057Y-233187D01*
X64708Y-232917D01*
X65267Y-232488D01*
X65696Y-231929D01*
X65966Y-231278D01*
X66058Y-230580D01*
Y-227627D01*
X65966Y-226928D01*
X65696Y-226277D01*
X65267Y-225718D01*
X64708Y-225289D01*
X64057Y-225020D01*
X63358Y-224927D01*
D02*
G37*
G36*
X98633Y-230235D02*
X95224D01*
Y-233644D01*
X95619Y-233592D01*
X96630Y-233173D01*
X97497Y-232508D01*
X98163Y-231640D01*
X98581Y-230630D01*
X98633Y-230235D01*
D02*
G37*
G36*
X-306585Y-224831D02*
X-307237Y-224917D01*
X-308487Y-225435D01*
X-309560Y-226258D01*
X-310383Y-227331D01*
X-310901Y-228581D01*
X-310987Y-229233D01*
X-306585D01*
Y-224831D01*
D02*
G37*
G36*
X93846Y-225448D02*
X93451Y-225500D01*
X92441Y-225919D01*
X91574Y-226584D01*
X90908Y-227452D01*
X90490Y-228462D01*
X90438Y-228857D01*
X93846D01*
Y-225448D01*
D02*
G37*
G36*
X-305207Y-224831D02*
Y-229233D01*
X-300805D01*
X-300891Y-228581D01*
X-301409Y-227331D01*
X-302232Y-226258D01*
X-303305Y-225435D01*
X-304555Y-224917D01*
X-305207Y-224831D01*
D02*
G37*
G36*
X93846Y-230235D02*
X90438D01*
X90490Y-230630D01*
X90908Y-231640D01*
X91574Y-232508D01*
X92441Y-233173D01*
X93451Y-233592D01*
X93846Y-233644D01*
Y-230235D01*
D02*
G37*
G36*
X62571Y-244690D02*
Y-248099D01*
X65980D01*
X65928Y-247704D01*
X65509Y-246694D01*
X64844Y-245827D01*
X63976Y-245161D01*
X62966Y-244742D01*
X62571Y-244690D01*
D02*
G37*
G36*
X61193D02*
X60798Y-244742D01*
X59787Y-245161D01*
X58920Y-245827D01*
X58254Y-246694D01*
X57836Y-247704D01*
X57784Y-248099D01*
X61193D01*
Y-244690D01*
D02*
G37*
G36*
X94535Y-235357D02*
X93451Y-235500D01*
X92441Y-235919D01*
X91574Y-236584D01*
X90908Y-237452D01*
X90490Y-238462D01*
X90347Y-239546D01*
X90490Y-240630D01*
X90908Y-241640D01*
X91574Y-242508D01*
X92441Y-243174D01*
X93451Y-243592D01*
X94535Y-243735D01*
X95619Y-243592D01*
X96630Y-243174D01*
X97497Y-242508D01*
X98163Y-241640D01*
X98581Y-240630D01*
X98724Y-239546D01*
X98581Y-238462D01*
X98163Y-237452D01*
X97497Y-236584D01*
X96630Y-235919D01*
X95619Y-235500D01*
X94535Y-235357D01*
D02*
G37*
G36*
X-300805Y-230611D02*
X-305207D01*
Y-235013D01*
X-304555Y-234927D01*
X-303305Y-234409D01*
X-302232Y-233586D01*
X-301409Y-232513D01*
X-300891Y-231263D01*
X-300805Y-230611D01*
D02*
G37*
G36*
X-306585D02*
X-310987D01*
X-310901Y-231263D01*
X-310383Y-232513D01*
X-309560Y-233586D01*
X-308487Y-234409D01*
X-307237Y-234927D01*
X-306585Y-235013D01*
Y-230611D01*
D02*
G37*
%LPD*%
D40*
X-78600Y-340000D02*
Y-293400D01*
X-76200Y-291000D01*
X-84000Y-339600D02*
Y-292400D01*
X-79600Y-288000D01*
X-73600Y-340000D02*
Y-316700D01*
X-71100Y-314200D01*
X-312750Y-106350D02*
X-299300Y-119800D01*
Y-143400D02*
Y-119800D01*
X-397992Y-106350D02*
X-312750D01*
X-49400Y-291300D02*
X-26300Y-314400D01*
Y-342300D02*
Y-314400D01*
X-49400Y-291300D02*
Y-286400D01*
X-67800Y-335800D02*
X-61300Y-342300D01*
X-73600Y-340000D02*
X-71300Y-342300D01*
X-78600Y-340000D02*
X-76300Y-342300D01*
X-84000Y-339600D02*
X-81300Y-342300D01*
X-89500Y-339100D02*
Y-291700D01*
Y-339100D02*
X-86300Y-342300D01*
X-108000Y-326400D02*
X-103300Y-321700D01*
X-108000Y-337600D02*
Y-326400D01*
X-114300Y-343900D02*
X-108000Y-337600D01*
X-111500Y-336700D02*
Y-320500D01*
X-116500Y-341700D02*
X-111500Y-336700D01*
X-67800Y-335800D02*
Y-269000D01*
X-89500Y-291700D02*
X-70500Y-272700D01*
Y-270800D01*
X-185300Y-343900D02*
X-114300D01*
X-195900Y-354500D02*
X-185300Y-343900D01*
X-195900Y-359800D02*
Y-354500D01*
X-205184Y-360384D02*
X-186500Y-341700D01*
X-256516Y-360384D02*
X-205184D01*
X-186500Y-341700D02*
X-116500D01*
X-257034Y-359866D02*
X-256516Y-360384D01*
X-299300Y-143400D02*
X-213400Y-229300D01*
X-106500D01*
X-404800Y-107842D02*
Y-21087D01*
X-404849Y-21038D02*
X-404800Y-21087D01*
Y-107842D02*
X-397992Y-114650D01*
X58800Y-116900D02*
Y-98800D01*
D41*
X-12747Y-146300D02*
X-1311Y-134865D01*
X-12747Y-156247D02*
Y-146300D01*
X-214800Y-232800D02*
X-89300D01*
X-1311Y-134865D02*
Y-72211D01*
X-421611Y-300349D02*
X-417151D01*
X-424760Y-297200D02*
X-421611Y-300349D01*
X-421907Y-118507D02*
X-414991D01*
X-424760Y-121360D02*
X-421907Y-118507D01*
X-424759Y-242401D02*
X-416998D01*
X-424760Y-297200D02*
Y-242400D01*
X-424759Y-242401D01*
X-424759Y-203899D02*
X-417519D01*
X-424760Y-203900D02*
X-424759Y-203899D01*
X-424760Y-242400D02*
Y-203900D01*
Y-121360D01*
X14800Y-56100D02*
X99700D01*
X-414991Y-118507D02*
X-414099Y-119400D01*
X-89300Y-232800D02*
X-12747Y-156247D01*
X-305800Y-141800D02*
X-214800Y-232800D01*
X-414991Y-118507D02*
X-312193D01*
X-305800Y-124900D01*
Y-141800D02*
Y-124900D01*
X-1311Y-72211D02*
X14800Y-56100D01*
D42*
X-15100Y-299200D02*
X-15000Y-299100D01*
Y-261000D01*
X-91300Y-353200D02*
X-88400Y-356100D01*
X-91300Y-353200D02*
Y-342900D01*
X-88400Y-356100D02*
X-15100D01*
D45*
X26600Y-296600D02*
Y-236400D01*
X6000Y-317200D02*
X26600Y-296600D01*
X6000Y-329600D02*
Y-317200D01*
X-259500Y-334100D02*
Y-229000D01*
Y-334100D02*
X-239700Y-353900D01*
X-270200Y-218300D02*
X-259500Y-229000D01*
X-263348Y-347600D02*
X-254324Y-356624D01*
X-238200Y-295800D02*
Y-249900D01*
Y-295800D02*
X-206700Y-327300D01*
Y-327200D01*
Y-356400D02*
Y-327300D01*
X-247400Y-329100D02*
X-235900Y-340600D01*
X-247400Y-329100D02*
Y-212700D01*
X-285800Y-306153D02*
Y-267400D01*
X-318673Y-234527D02*
X-285800Y-267400D01*
X-416998Y-234527D02*
X-318673D01*
X26600Y-225507D02*
X32561Y-219546D01*
X26600Y-236400D02*
Y-225507D01*
X32561Y-219546D02*
X94535D01*
X-301900Y-347600D02*
X-263348D01*
X-321193Y-328307D02*
X-301900Y-347600D01*
X-343100Y-351000D02*
X-336200Y-357900D01*
X-283500D01*
X-402847Y-173500D02*
X-286600D01*
X-297300Y-317653D02*
X-285800Y-306153D01*
X-297300Y-336300D02*
Y-317653D01*
Y-336300D02*
X-292900Y-340700D01*
X-416998Y-273897D02*
X-404296Y-286600D01*
X-409623Y-180277D02*
X-402847Y-173500D01*
X-417519Y-180277D02*
X-409623D01*
X-417519Y-209804D02*
X-409023Y-218300D01*
X-417151Y-292475D02*
X-411165D01*
X-405340Y-298300D01*
X-340500D01*
X-417151Y-331845D02*
X-407345D01*
X-388900Y-313400D02*
X-341300D01*
X-407345Y-331845D02*
X-388900Y-313400D01*
X-404296Y-286600D02*
X-335900D01*
X-337900Y-321400D02*
X-327600Y-311100D01*
X-338000Y-321400D02*
X-337900D01*
X-343100Y-326500D02*
X-338000Y-321400D01*
X-343100Y-351000D02*
Y-326500D01*
X-327600Y-311100D02*
Y-294900D01*
X-335900Y-286600D02*
X-327600Y-294900D01*
X-409023Y-218300D02*
X-270200D01*
X-286600Y-173500D02*
X-247400Y-212700D01*
X-3900Y-152000D02*
X3600Y-144500D01*
X-238200Y-249900D02*
X-229500Y-241200D01*
X-3900Y-158400D02*
Y-152000D01*
X-86700Y-241200D02*
X-3900Y-158400D01*
X-229500Y-241200D02*
X-86700D01*
X-332971Y-328307D02*
X-321193D01*
D46*
X-58628Y-312100D02*
Y-267672D01*
X-62200Y-264100D02*
X-58628Y-267672D01*
Y-314375D02*
Y-312100D01*
X-211800Y-297700D02*
X-201400Y-308100D01*
Y-317869D02*
Y-308100D01*
X-211800Y-297700D02*
Y-274500D01*
X-58628Y-314375D02*
X-58609Y-314394D01*
Y-339991D02*
Y-314394D01*
X-48700Y-297800D02*
Y-297300D01*
Y-325800D02*
Y-297800D01*
X-53609Y-339991D02*
Y-294909D01*
X-53600Y-294900D01*
X-48700Y-339900D02*
Y-325800D01*
X-53609Y-339991D02*
X-51300Y-342300D01*
X-48700Y-339900D02*
X-46300Y-342300D01*
X-58609Y-339991D02*
X-56300Y-342300D01*
D67*
X-151477Y-78740D02*
G03*
X-151477Y-78740I-98J0D01*
G01*
D02*
G03*
X-151477Y-78740I-98J0D01*
G01*
D02*
G03*
X-151477Y-78740I-98J0D01*
G01*
D02*
G03*
X-151477Y-78740I-98J0D01*
G01*
D68*
X-156319Y-303207D02*
D03*
X-151319D02*
D03*
X-146319D02*
D03*
D69*
X-179200Y-353400D02*
D03*
D70*
X-159200Y-353400D02*
D03*
D71*
X94535Y-239546D02*
D03*
Y-219546D02*
D03*
Y-229546D02*
D03*
X-332971Y-348307D02*
D03*
Y-338307D02*
D03*
X61882Y-248788D02*
D03*
X-414991Y-138507D02*
D03*
Y-148507D02*
D03*
Y-118507D02*
D03*
Y-158507D02*
D03*
Y-128507D02*
D03*
X-382669Y-338307D02*
D03*
Y-348307D02*
D03*
X-357820D02*
D03*
Y-338307D02*
D03*
D72*
X94535Y-249546D02*
D03*
X-332971Y-328307D02*
D03*
X-414991Y-108507D02*
D03*
X-382669Y-328307D02*
D03*
X-357820D02*
D03*
D73*
X-417519Y-203899D02*
D03*
Y-186182D02*
D03*
Y-197993D02*
D03*
Y-209804D02*
D03*
Y-192088D02*
D03*
D74*
Y-180277D02*
D03*
D75*
X-416998Y-266023D02*
D03*
Y-242401D02*
D03*
Y-273897D02*
D03*
Y-258149D02*
D03*
Y-250275D02*
D03*
X-417151Y-323971D02*
D03*
Y-300349D02*
D03*
Y-331845D02*
D03*
Y-308223D02*
D03*
Y-316097D02*
D03*
D76*
X-416998Y-234527D02*
D03*
X-417151Y-292475D02*
D03*
D77*
X61882Y-229103D02*
D03*
D78*
X-274400Y-206300D02*
D03*
X-305896D02*
D03*
X-274400Y-229922D02*
D03*
X-305896D02*
D03*
X-388000Y-186600D02*
D03*
Y-206600D02*
D03*
X-328000D02*
D03*
Y-186600D02*
D03*
Y-266600D02*
D03*
Y-276600D02*
D03*
X-388000Y-266600D02*
D03*
Y-276600D02*
D03*
D79*
X22500Y-309900D02*
D03*
X39600Y-318200D02*
D03*
X30500Y-312500D02*
D03*
X26000Y-316100D02*
D03*
X-146600Y-320400D02*
D03*
X-158500D02*
D03*
X-138500Y-347800D02*
D03*
X-129000Y-349100D02*
D03*
X-92400Y-326700D02*
D03*
X-96100D02*
D03*
X-86600Y-316800D02*
D03*
X-93100Y-317100D02*
D03*
X65900Y-111100D02*
D03*
X-280000Y-269200D02*
D03*
X-267200Y-269100D02*
D03*
X-379500Y-242000D02*
D03*
X-385200Y-241600D02*
D03*
X-354300D02*
D03*
X-347000Y-245500D02*
D03*
X-20700Y-302400D02*
D03*
X-7300Y-282700D02*
D03*
X-3400Y-295700D02*
D03*
X-5500Y-302000D02*
D03*
X-8400Y-297200D02*
D03*
X97200Y-319400D02*
D03*
X116700Y-336100D02*
D03*
X115600Y-326300D02*
D03*
Y-315600D02*
D03*
X114700Y-309100D02*
D03*
X115300Y-301000D02*
D03*
X115000Y-291300D02*
D03*
X114400Y-284500D02*
D03*
X114200Y-277100D02*
D03*
X106200Y-274400D02*
D03*
X104600Y-282400D02*
D03*
X104900Y-292800D02*
D03*
X105200Y-304800D02*
D03*
X106700Y-315700D02*
D03*
X106500Y-329300D02*
D03*
X106600Y-337900D02*
D03*
X94200Y-338600D02*
D03*
X86000Y-335800D02*
D03*
X93700Y-331700D02*
D03*
X92600Y-324300D02*
D03*
X80600Y-331300D02*
D03*
X78200Y-336300D02*
D03*
X66200Y-333800D02*
D03*
X65800Y-328100D02*
D03*
X71400Y-330800D02*
D03*
X70900Y-336900D02*
D03*
X81200Y-288600D02*
D03*
X76200Y-274500D02*
D03*
X80500Y-280000D02*
D03*
X76400Y-292200D02*
D03*
X77900Y-307600D02*
D03*
X71700Y-317000D02*
D03*
X-9000Y-223300D02*
D03*
X-20300Y-228300D02*
D03*
X-9800Y-237400D02*
D03*
X-9500Y-230300D02*
D03*
X-16200Y-236900D02*
D03*
X-21800Y-233200D02*
D03*
X-50700Y-254900D02*
D03*
X-49600Y-270300D02*
D03*
X-24400Y-257700D02*
D03*
X-25000Y-250400D02*
D03*
X-36200Y-258800D02*
D03*
X-43000Y-254600D02*
D03*
X-33300Y-252600D02*
D03*
X-20700Y-268400D02*
D03*
X-29800Y-264700D02*
D03*
X-40700Y-265100D02*
D03*
X-49000Y-264900D02*
D03*
X1400Y-315700D02*
D03*
X-154900Y-273500D02*
D03*
X-122600Y-320500D02*
D03*
X-121300Y-335300D02*
D03*
X-157800Y-335700D02*
D03*
X-41200Y-327400D02*
D03*
X-41500Y-317000D02*
D03*
X-75600Y-212400D02*
D03*
X-99700Y-326600D02*
D03*
X-237700Y-232500D02*
D03*
X-124000Y-246900D02*
D03*
X-6700Y-353200D02*
D03*
X-49400Y-286400D02*
D03*
X-70400D02*
D03*
X-124931Y-258731D02*
D03*
X-169200Y-232900D02*
D03*
X-211800Y-274500D02*
D03*
X-201400Y-317869D02*
D03*
X-268200Y-318100D02*
D03*
X-71300Y-319440D02*
D03*
X-111500Y-320500D02*
D03*
X-76319Y-321719D02*
D03*
X-103300Y-321700D02*
D03*
X-45500Y-300800D02*
D03*
X-75000D02*
D03*
X-36400Y-315700D02*
D03*
X-71000Y-307200D02*
D03*
X-81319Y-311719D02*
D03*
X-56319Y-313400D02*
D03*
X-61319Y-316159D02*
D03*
X-51300Y-322100D02*
D03*
X48381Y-305481D02*
D03*
X43381Y-308181D02*
D03*
X28381Y-308600D02*
D03*
X-500Y-310300D02*
D03*
X-142200Y-353800D02*
D03*
X-105400Y-317300D02*
D03*
X-115700Y-330300D02*
D03*
X-134800Y-353500D02*
D03*
X-106500Y-229300D02*
D03*
X-70500Y-270800D02*
D03*
X-67800Y-269000D02*
D03*
X-71100Y-314200D02*
D03*
X-53600Y-294900D02*
D03*
X-48700Y-297300D02*
D03*
X-62200Y-264100D02*
D03*
X-76200Y-291000D02*
D03*
X-79600Y-288000D02*
D03*
X-31300Y-326946D02*
D03*
X-86300Y-326946D02*
D03*
X-26300Y-342300D02*
D03*
X-31300Y-342300D02*
D03*
X-36300Y-342300D02*
D03*
X-41300Y-342300D02*
D03*
X-46300Y-342300D02*
D03*
X-51300D02*
D03*
X-56300Y-342300D02*
D03*
X-61300Y-342300D02*
D03*
X-66300Y-342300D02*
D03*
X-71300Y-342300D02*
D03*
X-76300D02*
D03*
X-81300Y-342300D02*
D03*
X-86300Y-342300D02*
D03*
X-257034Y-359866D02*
D03*
X-195900Y-359800D02*
D03*
X-197231Y-345800D02*
D03*
X-197231Y-340800D02*
D03*
X-196900Y-303500D02*
D03*
X-196900Y-298500D02*
D03*
X-397992Y-114650D02*
D03*
Y-106350D02*
D03*
X-404849Y-21038D02*
D03*
X-404800Y-12600D02*
D03*
X58800Y-116900D02*
D03*
Y-98800D02*
D03*
D80*
X-101500Y-274400D02*
D03*
X-81600Y-274800D02*
D03*
X-103100Y-310600D02*
D03*
X-264200Y-358400D02*
D03*
X-349300Y-323500D02*
D03*
X-217300Y-354300D02*
D03*
X108000Y-358500D02*
D03*
X94700Y-359000D02*
D03*
X76600Y-358300D02*
D03*
X65600Y-358500D02*
D03*
X49800Y-357500D02*
D03*
X29700Y-358000D02*
D03*
X15100Y-358300D02*
D03*
X-6500Y-359000D02*
D03*
X116800Y-352300D02*
D03*
X107000D02*
D03*
X94700D02*
D03*
X82900Y-352800D02*
D03*
X72100Y-352500D02*
D03*
X56500D02*
D03*
X40200D02*
D03*
X22200Y-352000D02*
D03*
X6600Y-352800D02*
D03*
X67300Y-312500D02*
D03*
X46100Y-315800D02*
D03*
X38700Y-296600D02*
D03*
X18600Y-296700D02*
D03*
X69000Y-266700D02*
D03*
Y-281100D02*
D03*
X67300Y-295400D02*
D03*
X-116300Y-335300D02*
D03*
X-152000Y-337000D02*
D03*
X-191600Y-356600D02*
D03*
X-195400Y-333600D02*
D03*
X-191900Y-304000D02*
D03*
X-197000Y-310900D02*
D03*
X-253300Y-285300D02*
D03*
X-321800Y-299400D02*
D03*
X-316500Y-323400D02*
D03*
X-304100Y-335200D02*
D03*
X-310200Y-330100D02*
D03*
X-345600Y-306100D02*
D03*
X-355500Y-306700D02*
D03*
X-400300Y-308500D02*
D03*
X-396200Y-336500D02*
D03*
X-400600Y-352000D02*
D03*
X-404400Y-358500D02*
D03*
X-419800Y-356500D02*
D03*
X-423400Y-345800D02*
D03*
X-370400Y-268200D02*
D03*
X-351400Y-268000D02*
D03*
X-347000Y-277400D02*
D03*
X-362700Y-277900D02*
D03*
X-377100Y-278400D02*
D03*
X-315000Y-166000D02*
D03*
Y-158400D02*
D03*
X-315100Y-150600D02*
D03*
X-356500Y-164800D02*
D03*
X-356300Y-156800D02*
D03*
X-356200Y-148600D02*
D03*
X-314500Y-95400D02*
D03*
X-377700Y-102700D02*
D03*
X-354700Y-102800D02*
D03*
X-303100Y-5900D02*
D03*
X-310800Y-3900D02*
D03*
X-320600Y-4200D02*
D03*
X-328700Y-4300D02*
D03*
X-338800D02*
D03*
X-349200Y-4600D02*
D03*
X-316300Y-88400D02*
D03*
X-321900Y-99200D02*
D03*
X-356800Y-74100D02*
D03*
X-388300Y-56500D02*
D03*
X-399400Y-56000D02*
D03*
X-355100Y-65700D02*
D03*
Y-56500D02*
D03*
X-421700Y-88900D02*
D03*
X-421400Y-72100D02*
D03*
Y-58300D02*
D03*
Y-45600D02*
D03*
X-422400Y-33500D02*
D03*
Y-22600D02*
D03*
X-422700Y-11900D02*
D03*
X-418500Y-4500D02*
D03*
X-405300Y-3800D02*
D03*
X-393100Y-4200D02*
D03*
X-360400Y-5100D02*
D03*
X-370300Y-5000D02*
D03*
X-382600Y-4900D02*
D03*
X41900Y-102100D02*
D03*
Y-92600D02*
D03*
X-217000Y-307800D02*
D03*
X-216900Y-291357D02*
D03*
X-217000Y-301200D02*
D03*
X-217300Y-335500D02*
D03*
X-273400Y-355800D02*
D03*
X-71700Y-290700D02*
D03*
X-377900Y-225700D02*
D03*
X-389600Y-226000D02*
D03*
X-378800Y-209400D02*
D03*
X-324100Y-196400D02*
D03*
X-335900Y-196300D02*
D03*
X-352100Y-199000D02*
D03*
X-338500Y-205800D02*
D03*
X-339100Y-184100D02*
D03*
X-351000D02*
D03*
X-394600Y-198800D02*
D03*
X-15100Y-299200D02*
D03*
X-15000Y-261000D02*
D03*
X38500Y-260900D02*
D03*
X26600Y-236400D02*
D03*
X-91300Y-342900D02*
D03*
X-15100Y-356100D02*
D03*
X-53000Y-280200D02*
D03*
X-135000Y-280300D02*
D03*
X-254300Y-356600D02*
D03*
X3600Y-144500D02*
D03*
X-206800Y-356500D02*
D03*
D81*
X58381Y-333419D02*
D03*
X13381Y-331919D02*
D03*
X8100Y-249200D02*
D03*
X43500Y-258300D02*
D03*
X-7100Y-269400D02*
D03*
X4100Y-271100D02*
D03*
X38600Y-284100D02*
D03*
X23400Y-215100D02*
D03*
X92900Y-43200D02*
D03*
X25800Y-43300D02*
D03*
X-400Y-47300D02*
D03*
X9200Y-49800D02*
D03*
X11700Y-34000D02*
D03*
X13700Y-21300D02*
D03*
X12500Y-12300D02*
D03*
X114400Y-10800D02*
D03*
X109800Y-32900D02*
D03*
X115900Y-41400D02*
D03*
X103700Y-41900D02*
D03*
X88000Y-31800D02*
D03*
X96500Y-25900D02*
D03*
X95700Y-11400D02*
D03*
X79900Y-20600D02*
D03*
X68600Y-36500D02*
D03*
X56300Y-38600D02*
D03*
X37500Y-38500D02*
D03*
X20000Y-38300D02*
D03*
X2400Y-37600D02*
D03*
X116500Y-207400D02*
D03*
X116200Y-190600D02*
D03*
X115000Y-174600D02*
D03*
X116500Y-154400D02*
D03*
X114200Y-141800D02*
D03*
X116800Y-127900D02*
D03*
X115900Y-113600D02*
D03*
X117000Y-98800D02*
D03*
X117300Y-84600D02*
D03*
X116500Y-72600D02*
D03*
X115800Y-58200D02*
D03*
X27100Y-77600D02*
D03*
X17600Y-77800D02*
D03*
X7000Y-77600D02*
D03*
X73400Y-98600D02*
D03*
X67500Y-93800D02*
D03*
X64900Y-85000D02*
D03*
X83400Y-137000D02*
D03*
X73200Y-122900D02*
D03*
X87500Y-136300D02*
D03*
X88000Y-152600D02*
D03*
X74900Y-141700D02*
D03*
X65700Y-131400D02*
D03*
X65300Y-121200D02*
D03*
X3300Y-121600D02*
D03*
X-8900Y-129100D02*
D03*
X-23000Y-157500D02*
D03*
X4700Y-215000D02*
D03*
X18200Y-207700D02*
D03*
X25500Y-199700D02*
D03*
X82000Y-206100D02*
D03*
X67400Y-207500D02*
D03*
X50700Y-206300D02*
D03*
X42900Y-203100D02*
D03*
X43800Y-193300D02*
D03*
X39200Y-189000D02*
D03*
X26200Y-188000D02*
D03*
X-21300Y-223200D02*
D03*
X-10400Y-214800D02*
D03*
X-2800Y-207000D02*
D03*
X4300Y-199700D02*
D03*
X14300Y-191000D02*
D03*
X18381Y-282181D02*
D03*
X-293700Y-198000D02*
D03*
X-282900Y-189600D02*
D03*
X-293300Y-183500D02*
D03*
X-203900Y-223900D02*
D03*
X-217800Y-215700D02*
D03*
X-240500Y-215900D02*
D03*
X-228300Y-229800D02*
D03*
X-240300Y-224800D02*
D03*
X-144000Y-307600D02*
D03*
X-340500Y-36900D02*
D03*
X-333200Y-37100D02*
D03*
X-327300Y-37200D02*
D03*
X-321100Y-37400D02*
D03*
X-314800Y-37500D02*
D03*
X-340800Y-32000D02*
D03*
X-333500Y-32200D02*
D03*
X-327600Y-32300D02*
D03*
X-321400Y-32500D02*
D03*
X-315100Y-32600D02*
D03*
X-341000Y-27400D02*
D03*
X-333700Y-27600D02*
D03*
X-327800Y-27700D02*
D03*
X-321600Y-27900D02*
D03*
X-315300Y-28000D02*
D03*
X-315200Y-23300D02*
D03*
X-321500Y-23200D02*
D03*
X-327700Y-23000D02*
D03*
X-333600Y-22900D02*
D03*
X-340900Y-22700D02*
D03*
X-22100Y-337200D02*
D03*
Y-332700D02*
D03*
Y-327700D02*
D03*
X-294800Y-286100D02*
D03*
Y-290733D02*
D03*
Y-295367D02*
D03*
Y-300000D02*
D03*
X-300000Y-295500D02*
D03*
X-304633D02*
D03*
X-309267D02*
D03*
X-313900D02*
D03*
X-299900Y-300000D02*
D03*
X-304533D02*
D03*
X-309167D02*
D03*
X-313800D02*
D03*
X-230200Y-274800D02*
D03*
X-225600Y-274900D02*
D03*
X-230400Y-287400D02*
D03*
X-225500Y-287300D02*
D03*
X-286700Y-318100D02*
D03*
X-282100Y-318200D02*
D03*
X-287500Y-331400D02*
D03*
X-282100D02*
D03*
X-230200Y-319600D02*
D03*
X-225700Y-319500D02*
D03*
X-230400Y-331800D02*
D03*
X-225800D02*
D03*
X-235900Y-340600D02*
D03*
X-239700Y-353900D02*
D03*
X-292900Y-340700D02*
D03*
X-283500Y-357900D02*
D03*
X-340500Y-298300D02*
D03*
X-341300Y-313400D02*
D03*
X-366700Y-145900D02*
D03*
Y-150600D02*
D03*
Y-155300D02*
D03*
Y-159400D02*
D03*
X-371600Y-49900D02*
D03*
X-364000Y-50000D02*
D03*
X-363900Y-55500D02*
D03*
X-371200D02*
D03*
Y-60800D02*
D03*
X-363800Y-60600D02*
D03*
X-346700Y-147700D02*
D03*
X-339400Y-147900D02*
D03*
X-333500Y-148000D02*
D03*
X-327300Y-148200D02*
D03*
X-321000Y-148300D02*
D03*
X-321100Y-153000D02*
D03*
X-327400Y-152900D02*
D03*
X-333600Y-152700D02*
D03*
X-339500Y-152600D02*
D03*
X-346800Y-152400D02*
D03*
X-320900Y-157600D02*
D03*
X-327200Y-157500D02*
D03*
X-333400Y-157300D02*
D03*
X-339300Y-157200D02*
D03*
X-346600Y-157000D02*
D03*
X-320600Y-162500D02*
D03*
X-326900Y-162400D02*
D03*
X-333100Y-162200D02*
D03*
X-339000Y-162100D02*
D03*
X-346300Y-161900D02*
D03*
X10100Y-87300D02*
D03*
X13600D02*
D03*
X18200Y-87400D02*
D03*
X22600Y-87500D02*
D03*
X22900Y-92600D02*
D03*
X11476Y-91903D02*
D03*
X99700Y-56100D02*
D03*
X99600Y-61100D02*
D03*
X99500Y-65700D02*
D03*
X99600Y-71100D02*
D03*
X99500Y-77000D02*
D03*
Y-82000D02*
D03*
X99300Y-86700D02*
D03*
X99200Y-91900D02*
D03*
X99300Y-97500D02*
D03*
X94700Y-71100D02*
D03*
X89000Y-71300D02*
D03*
X12100Y-125531D02*
D03*
X26600Y-180100D02*
D03*
X31900D02*
D03*
X37000Y-180000D02*
D03*
X4400D02*
D03*
X16016Y-179684D02*
D03*
X41900Y-179900D02*
D03*
X60700Y-192300D02*
D03*
X67000Y-192500D02*
D03*
X67200Y-197800D02*
D03*
X61000Y-197900D02*
D03*
X54100Y-192300D02*
D03*
X54200Y-198000D02*
D03*
D82*
X-8050Y-332600D02*
D03*
D83*
X94868Y-218250D02*
D03*
D84*
X102150Y-138850D02*
D03*
D85*
X-399250Y-161100D02*
D03*
D86*
X-388000Y-148750D02*
D03*
D87*
X-357800Y-132700D02*
D03*
D88*
X-334200Y-148400D02*
D03*
D89*
X-227650Y-272500D02*
D03*
M02*
