G04 ================== begin FILE IDENTIFICATION RECORD ==================*
G04 Layout Name:  F:/projects/git/Hardware/ตุดล/PCB/ANT/bottom.brd*
G04 Film Name:    SilkscreenTop*
G04 File Format:  Gerber RS274X*
G04 File Origin:  Cadence Allegro 16.6-2015-S108*
G04 Origin Date:  Sun Jul 28 15:06:22 2019*
G04 *
G04 Layer:  REF DES/SILKSCREEN_TOP*
G04 Layer:  PACKAGE GEOMETRY/SILKSCREEN_TOP*
G04 Layer:  BOARD GEOMETRY/SILKSCREEN_TOP*
G04 Layer:  BOARD GEOMETRY/OUTLINE*
G04 *
G04 Offset:    (0.0000 0.0000)*
G04 Mirror:    No*
G04 Mode:      Positive*
G04 Rotation:  0*
G04 FullContactRelief:  No*
G04 UndefLineWidth:     0.1270*
G04 ================== end FILE IDENTIFICATION RECORD ====================*
%FSLAX35Y35*MOMM*%
%IR0*IPPOS*OFA0.00000B0.00000*MIA0B0*SFA1.00000B1.00000*%
%ADD10C,.127*%
G75*
%LPD*%
G75*
G54D10*
G01X3649900Y700D02*
G03I-3650000J0D01*
G01X-3100100Y50700D02*
G03Y-49300I0J-50000D01*
G01X-2800100D01*
G03Y50700I0J50000D01*
G01X-3100100D01*
G01X-2488860Y-1306340D02*
G02I-99995J3D01*
G01X-1950100Y300700D02*
X-1550100D01*
G02Y700I0J-150000D01*
G01X-1950100D01*
G02Y300700I0J150000D01*
G01D02*
G03Y700I0J-150000D01*
G01X-1550100D01*
G03Y300700I0J150000D01*
G01X-1950100D01*
G01Y700D02*
G02Y300700I0J150000D01*
G01X-1550100D01*
G02Y700I0J-150000D01*
G01X-1950100D01*
G01Y300700D02*
X-1550100D01*
G02Y700I0J-150000D01*
G01X-1950100D01*
G02Y300700I0J150000D01*
G01X-1550100D02*
G02Y700I0J-150000D01*
G01X-1950100D01*
G02Y300700I0J150000D01*
G01X-1550100D01*
G01Y700D02*
X-1950100D01*
G01D02*
X-1550100D01*
G01X-1950100Y300700D02*
G03Y700I0J-150000D01*
G01Y300700D02*
X-1550100D01*
G01Y700D02*
G03Y300700I0J150000D01*
G01X-150100Y50700D02*
G03Y-49300I0J-50000D01*
G01X149900D01*
G03Y50700I0J50000D01*
G01X-150100D01*
G01X99900Y2900700D02*
G02I-100000J0D01*
G01X486690Y64180D02*
Y680D01*
G01X471110Y64180D02*
X502270D01*
G01X529700Y53600D02*
X533760Y59950D01*
X538510Y63120D01*
X543920Y64180D01*
X550700Y62060D01*
X555440Y56770D01*
X556790Y50420D01*
X556120Y44070D01*
X553410Y38780D01*
X539860Y28200D01*
X533760Y20790D01*
X529700Y10200D01*
X528350Y680D01*
X556790D01*
G01X1549900Y300700D02*
G03Y700I0J-150000D01*
G01X1949900D01*
G03Y300700I0J150000D01*
G01X1549900D01*
G01X1949900Y700D02*
X1549900D01*
G01D02*
X1949900D01*
G01X2704620Y-1274230D02*
G02I-100001J5D01*
G01X2799900Y50700D02*
G03Y-49300I0J-50000D01*
G01X3099900D01*
G03Y50700I0J50000D01*
G01X2799900D01*
G01X2936680Y64170D02*
Y670D01*
G01X2921100Y64170D02*
X2952260D01*
G01X2992560Y670D02*
Y64170D01*
X2984430Y51470D01*
G01Y670D02*
X3000690D01*
M02*
