G04*
G04 #@! TF.GenerationSoftware,Altium Limited,Altium Designer,23.10.1 (27)*
G04*
G04 Layer_Color=16711935*
%FSLAX44Y44*%
%MOMM*%
G71*
G04*
G04 #@! TF.SameCoordinates,15D5246E-31D4-4D40-A870-ABE906178733*
G04*
G04*
G04 #@! TF.FilePolarity,Negative*
G04*
G01*
G75*
%ADD119R,1.8032X1.8032*%
%ADD120C,1.8032*%
%ADD121O,1.2032X2.3032*%
%ADD122C,0.8732*%
%ADD123C,2.9972*%
%ADD124C,1.6240*%
%ADD125C,2.0032*%
%ADD126R,2.0032X2.0032*%
%ADD127R,1.7032X1.7032*%
%ADD128C,1.7032*%
%ADD129C,1.9000*%
%ADD130C,2.9000*%
%ADD131R,2.7000X2.9000*%
%ADD132R,1.6032X1.6032*%
%ADD133C,1.6032*%
%ADD134R,1.6032X1.6032*%
%ADD135R,1.4732X1.4732*%
%ADD136C,1.4732*%
%ADD137C,2.2032*%
%ADD138C,10.7032*%
%ADD139C,5.2032*%
%ADD140C,0.7112*%
%ADD141C,0.7032*%
%ADD142C,1.7272*%
%ADD143C,1.2192*%
%ADD144C,2.2352*%
%ADD197C,2.4000*%
D119*
X-1615766Y-3260090D02*
D03*
X-1946330Y-3261451D02*
D03*
D120*
X-1640764Y-3260090D02*
D03*
X-1665766D02*
D03*
X-1690767D02*
D03*
X-1715766D02*
D03*
X-1815765D02*
D03*
X-1790766D02*
D03*
X-1765765D02*
D03*
X-1740764D02*
D03*
X-2046330Y-3261451D02*
D03*
X-2021331D02*
D03*
X-1996330D02*
D03*
X-1971328D02*
D03*
D121*
X-1383804Y-1998883D02*
D03*
Y-2040383D02*
D03*
X-1470204Y-1998883D02*
D03*
Y-2040383D02*
D03*
D122*
X-1455904Y-2035383D02*
D03*
X-1398104D02*
D03*
D123*
X-2223007Y-3080868D02*
D03*
X-2101005Y-2960873D02*
D03*
Y-3080873D02*
D03*
X-2081006Y-3020873D02*
D03*
X-2223007Y-2960878D02*
D03*
X-2222889Y-2799283D02*
D03*
X-2080887Y-2859278D02*
D03*
X-2100887Y-2919278D02*
D03*
Y-2799278D02*
D03*
X-2222889Y-2919273D02*
D03*
D124*
X-521462Y-1439418D02*
D03*
X-591462D02*
D03*
X-521462Y-1519418D02*
D03*
X-591462D02*
D03*
D125*
X-1024636Y-1435862D02*
D03*
X-999236D02*
D03*
X-1024636Y-1461262D02*
D03*
X-999236D02*
D03*
X-1024636Y-1486662D02*
D03*
X-999236D02*
D03*
X-1024636Y-1512062D02*
D03*
X-999236D02*
D03*
X-1024636Y-1537462D02*
D03*
X-999236D02*
D03*
X-1024636Y-1562862D02*
D03*
X-999236D02*
D03*
X-1024636Y-1588262D02*
D03*
X-999236D02*
D03*
X-1024636Y-1613662D02*
D03*
X-999236D02*
D03*
X-1024636Y-1639062D02*
D03*
X-999236D02*
D03*
X-1024636Y-1664462D02*
D03*
D126*
X-999236D02*
D03*
D127*
X-1797558Y-2387092D02*
D03*
X-1787144Y-2517140D02*
D03*
D128*
X-1797558Y-2412492D02*
D03*
Y-2437892D02*
D03*
Y-2463292D02*
D03*
X-1787144Y-2542540D02*
D03*
D129*
X-457804Y-1449987D02*
D03*
X-469803Y-1500985D02*
D03*
X-1784350Y-2753868D02*
D03*
Y-2803868D02*
D03*
D130*
X-577343Y-1320291D02*
D03*
X-537744D02*
D03*
X-498146D02*
D03*
D131*
X-458542D02*
D03*
D132*
X-1846133Y-2013966D02*
D03*
X-1989450D02*
D03*
X-1702816D02*
D03*
D133*
X-1826133D02*
D03*
X-1806133D02*
D03*
X-1786133D02*
D03*
X-1766133D02*
D03*
X-2320798Y-2928908D02*
D03*
Y-2948908D02*
D03*
Y-2968908D02*
D03*
Y-2565998D02*
D03*
Y-2545998D02*
D03*
Y-2525998D02*
D03*
Y-2395828D02*
D03*
Y-2415828D02*
D03*
Y-2435828D02*
D03*
Y-2455828D02*
D03*
Y-2677758D02*
D03*
Y-2657758D02*
D03*
Y-2637758D02*
D03*
X-1969450Y-2013966D02*
D03*
X-1949450D02*
D03*
X-1929450D02*
D03*
X-1909450D02*
D03*
X-2320798Y-2788878D02*
D03*
Y-2768878D02*
D03*
Y-2748878D02*
D03*
X-1622816Y-2013966D02*
D03*
X-1642816D02*
D03*
X-1662816D02*
D03*
X-1682816D02*
D03*
D134*
X-2320798Y-2988908D02*
D03*
Y-2585998D02*
D03*
Y-2475828D02*
D03*
Y-2697758D02*
D03*
Y-2808878D02*
D03*
D135*
X-1554226Y-2688336D02*
D03*
D136*
X-1536446D02*
D03*
D137*
X-1239520Y-1998980D02*
D03*
X-1290320D02*
D03*
D138*
X-561650Y-3051710D02*
D03*
D139*
X-1559306Y-3166872D02*
D03*
X-2209292Y-3166364D02*
D03*
X-2208784Y-2067052D02*
D03*
X-1559306Y-2066544D02*
D03*
X-559308Y-2816352D02*
D03*
X-909320Y-3166872D02*
D03*
X-909150Y-2066710D02*
D03*
D140*
X-1477010Y-2466594D02*
D03*
Y-2482850D02*
D03*
Y-2499106D02*
D03*
Y-2515362D02*
D03*
Y-2531618D02*
D03*
X-1533652Y-2466594D02*
D03*
Y-2482850D02*
D03*
Y-2499106D02*
D03*
Y-2515362D02*
D03*
Y-2531618D02*
D03*
X-1519491D02*
D03*
X-1518920Y-2515362D02*
D03*
Y-2499106D02*
D03*
Y-2482850D02*
D03*
X-1519491Y-2466594D02*
D03*
X-1505331Y-2531618D02*
D03*
X-1505458Y-2515362D02*
D03*
Y-2499106D02*
D03*
Y-2482850D02*
D03*
X-1505331Y-2466594D02*
D03*
X-1491171Y-2531618D02*
D03*
X-1490980Y-2515362D02*
D03*
Y-2499106D02*
D03*
Y-2482850D02*
D03*
X-1491171Y-2466594D02*
D03*
X-2024380Y-2311400D02*
D03*
X-2159254Y-2422398D02*
D03*
X-2144014Y-2756154D02*
D03*
X-1211535Y-2558410D02*
D03*
X-1113790Y-2611120D02*
D03*
X-1356360Y-2827020D02*
D03*
X-1325880Y-2819400D02*
D03*
X-1310640Y-2811780D02*
D03*
X-891540Y-1640840D02*
D03*
X-1770380Y-2862580D02*
D03*
X-1559560Y-2854960D02*
D03*
X-1653781Y-3187700D02*
D03*
X-1917700Y-3152140D02*
D03*
X-1605280Y-2841652D02*
D03*
X-1668781Y-3134716D02*
D03*
X-1634529D02*
D03*
X-1693996Y-3144565D02*
D03*
X-1958638Y-3149659D02*
D03*
X-2001056Y-3150421D02*
D03*
X-2042712Y-3150152D02*
D03*
X-619760Y-1745660D02*
D03*
X-616712Y-1631950D02*
D03*
X-2120900Y-2181860D02*
D03*
X-2230374Y-2186933D02*
D03*
X-1168400Y-2316480D02*
D03*
X-1658620Y-2395220D02*
D03*
X-1648460D02*
D03*
X-1579880Y-2705100D02*
D03*
X-1475740Y-2595880D02*
D03*
X-1410155Y-2392225D02*
D03*
Y-2260145D02*
D03*
X-1452105Y-2341452D02*
D03*
X-1374140Y-2667000D02*
D03*
X-1412240Y-2661920D02*
D03*
X-1404620D02*
D03*
X-1397000D02*
D03*
X-1727200Y-2583180D02*
D03*
X-1676400Y-2585760D02*
D03*
X-1648460Y-2489200D02*
D03*
X-1379220Y-2720340D02*
D03*
X-1668780Y-2722880D02*
D03*
X-1739900Y-2633980D02*
D03*
Y-2453640D02*
D03*
X-1742440Y-2278380D02*
D03*
X-1527100Y-2281480D02*
D03*
X-1559560Y-2232660D02*
D03*
X-1623060Y-2420620D02*
D03*
Y-2522220D02*
D03*
X-1483360Y-2392680D02*
D03*
X-1488440Y-2402840D02*
D03*
X-1648460Y-2621280D02*
D03*
X-1656080Y-2623820D02*
D03*
X-1663700Y-2628900D02*
D03*
X-1181928Y-2328352D02*
D03*
X-1226851Y-2400300D02*
D03*
X-1978232Y-2387172D02*
D03*
X-1963796Y-2374524D02*
D03*
X-1978232Y-2341452D02*
D03*
X-1961764Y-2327524D02*
D03*
D141*
X-561760Y-1648880D02*
D03*
Y-1637880D02*
D03*
X-550760Y-1648880D02*
D03*
Y-1637880D02*
D03*
X-701636Y-1642198D02*
D03*
Y-1653198D02*
D03*
X-712636Y-1642198D02*
D03*
Y-1653198D02*
D03*
D142*
X-652780Y-1562100D02*
D03*
D143*
X-1905762Y-2445258D02*
D03*
X-1547084Y-2557780D02*
D03*
X-1767840Y-2631440D02*
D03*
X-1836420Y-2580640D02*
D03*
X-1836406Y-2532394D02*
D03*
X-1174805Y-2646785D02*
D03*
X-990600Y-2646243D02*
D03*
X-1894840Y-2143760D02*
D03*
X-569490Y-1775158D02*
D03*
X-2183892Y-2211439D02*
D03*
X-2171700Y-2319020D02*
D03*
D144*
X-1099820Y-2143760D02*
D03*
X-2143760Y-2151380D02*
D03*
X-843026Y-1796034D02*
D03*
D197*
X-2142490Y-2755646D02*
D03*
X-1418082Y-2766568D02*
D03*
M02*
