M48
;Layer_Color=9474304
;FILE_FORMAT=2:5
INCH,LZ
;TYPE=PLATED
T1F00S00C0.01200
T2F00S00C0.02000
T3F00S00C0.02500
%
T01
X00049Y00161
X0008865Y0026851
X0009776Y0030469
X0002654Y003648
X0039984Y0033928
X0042443Y0036052
X0047484Y0036149
X0048898Y0038348
X0068396Y0035742
X00725Y00323
X0071634Y0028068
X0070607Y0024702
X00667Y00161
X00669Y001
X0071656Y001027
X0078379Y0008816
X0081499Y0008756
X0086633Y0007951
X0091196Y0003032
X0097516Y0009352
X0095796Y0024507
X009187Y0024557
X0089379Y0022252
X0087343Y0023939
X0088654Y0035906
X0085879Y0037725
X0083903Y0040225
X00774Y00385
X0072912Y0039585
X0067768Y0003626
X0061924Y0003847
X0042598Y0004429
X00305Y00145
X00185Y00108
X0019Y00058
X0101928Y0019827
X0102678Y0037426
X01161Y00386
X01322Y0040845
X01423Y00348
X01435Y0028
X0137514Y0026845
X0138988Y0017929
X01488Y00168
X01537Y00166
X0153099Y0022792
X0152779Y0027677
X01609Y00172
X0144102Y0006386
X0138516Y0006272
X0134Y00551
X0129867Y0052677
X0129867Y0057677
X01276Y00627
X01423Y00633
X01417Y00573
X0153249Y0060846
X01606Y00625
X0164981Y0074951
X0165366Y008241
X0158563Y0088405
X0147022Y0087609
X0136265Y0087164
X0135561Y0093736
X014031Y0080112
X0151017Y0077868
X0151045Y0074945
X0147401Y0071023
X0115392Y0070756
X0114258Y0067451
X011109Y0067028
X0106215Y0067453
X01061Y00637
X01131Y00635
X01138Y00571
X0114495Y0049503
X01159Y0045
X0104144Y0046903
X0104338Y0053413
X0102956Y0095736
X0105734Y0103108
X01034Y01083
X01019Y01136
X0102987Y0125982
X0106171Y0125632
X0108321Y0127637
X01049Y013
X0117324Y0127152
X0116202Y0139053
X0117683Y0141425
X012501Y0144897
X0125283Y0155668
X0131969Y0150517
X0134Y01597
X01382Y0163
X0139Y01556
X01472Y01562
X01527Y01629
X01592Y01524
X01627Y01387
X01634Y01311
X0155822Y0132555
X014573Y0130826
X0147083Y0121428
X0146799Y0111712
X0152111Y0112247
X0156958Y0105251
X0158439Y0100902
X014048Y0109418
X0137284Y0116601
X0133492Y011439
X0118052Y0111889
X01194Y010576
X011858Y0084274
X0127549Y0131297
X0129033Y013395
X0138203Y0137073
X0142125Y0141302
X0147992
X01286Y01649
X0088482Y0152129
X0088828Y0147129
X00887Y0133
X0088Y0128
X0089237Y0123363
X00963Y01266
X00654Y01231
X0066963Y0112286
X007708Y0104479
X0079435Y0106456
X008981Y0092144
X0093866Y0080611
X0096968Y0081891
X0100108Y008114
X0101455Y0058908
X008932Y0057652
X0087157Y0055227
X0088084Y0049773
X0091608Y0049863
X0089754Y0047212
X0083519Y0046995
X0083491Y0044406
X0077948Y0049397
X0069627Y0051995
X0066209Y0046892
X00736Y00426
X0065961Y0058395
X0058219Y0070307
X0048845Y0070427
X00473Y00651
X0043628Y0063301
X0041994Y0058309
X0046746Y0056803
X0046028Y0053835
X0043765Y005234
X0041305Y0047518
X0034667Y005111
X0030511Y0051247
Y0043187
X0016006Y0043885
X0021Y00545
X0020951Y0057471
X00266Y00561
X0028431Y0064055
X0025706Y0066374
X0032045Y0062574
X0031778Y0070547
X003808Y0070252
X0048915Y0083197
X00586Y00822
X0063258Y0080825
X0073015Y008418
X00437Y00951
X003823Y0098224
X0034358Y0092169
X0030097Y01011
X0013384Y0101957
X0009822Y0102129
X0013437Y0106943
X0012429Y0111765
X0004287Y0111562
X0006433Y0093
X000626Y0084789
X0010364Y0084148
X0003542Y0079562
X0009091Y0069358
X0003131Y0048248
X00035Y01426
X00084Y01425
X00125Y01439
X0010127Y014655
X0012346Y0148997
X00584Y01483
X00582Y0153
X00584Y01586
X0064652Y0159655
X0074374Y0159389
X0074963Y0146714
X0074833Y0142349
X00582Y01425
X00584Y01367
X00585Y01306
X00483Y01226
X00438Y01265
X0099372Y0047071
T02
X0006406Y002976
X0012941Y0030915
X0020067Y00291
X0061453Y0020841
X0104272Y000917
X0102067Y0072364
X011893Y0078158
X0119968Y0093055
X0065101Y0088019
X0068631Y0107495
X0054127Y0122299
X0038333Y0122219
X0036156Y010708
X0034801Y0136352
X0034873Y0151814
X0065582Y015131
X0015834Y0139239
X0016346Y0135704
X0016291Y0131895
X0043075Y0082941
X0044881Y0069646
X0005476Y0055813
T03
X0028676Y0007881
X0023334Y0025089
X0041118Y0028546
X004743Y0019901
X0053208Y0066872
X0025294Y0051463
X0010542Y0088525
M30
