  0
SECTION
  2
HEADER
  9
$ACADVER
  1
AC1004
  9
$INSBASE
 10
0.0
 20
0.0
  9
$EXTMIN
 10
98.806
 20
46.5036
  9
$EXTMAX
 10
117.545366
 20
67.487307
  9
$LIMMIN
 10
0.0
 20
0.0
  9
$LIMMAX
 10
0.0
 20
0.0
  9
$VIEWCTR
 10
6.591288
 20
4.579184
  9
$VIEWSIZE
 40
9.158369
  9
$SNAPMODE
 70
     0
  9
$SNAPUNIT
 10
1.0
 20
1.0
  9
$SNAPBASE
 10
0.0
 20
0.0
  9
$SNAPANG
 50
0.0
  9
$SNAPSTYLE
 70
     0
  9
$SNAPISOPAIR
 70
     0
  9
$GRIDMODE
 70
     0
  9
$GRIDUNIT
 10
0.0
 20
0.0
  9
$ORTHOMODE
 70
     0
  9
$REGENMODE
 70
     1
  9
$FILLMODE
 70
     1
  9
$QTEXTMODE
 70
     0
  9
$DRAGMODE
 70
     2
  9
$LTSCALE
 40
1.0
  9
$OSMODE
 70
     0
  9
$ATTMODE
 70
     1
  9
$TEXTSIZE
 40
0.2
  9
$TRACEWID
 40
0.05
  9
$TEXTSTYLE
  7
STANDARD
  9
$CLAYER
  8
0
  9
$CELTYPE
  6
CONTINUOUS
  9
$CECOLOR
 62
   256
  9
$DIMSCALE
 40
1.0
  9
$DIMASZ
 40
0.18
  9
$DIMEXO
 40
0.0625
  9
$DIMDLI
 40
0.38
  9
$DIMRND
 40
0.0
  9
$DIMDLE
 40
0.0
  9
$DIMEXE
 40
0.18
  9
$DIMTP
 40
0.0
  9
$DIMTM
 40
0.0
  9
$DIMTXT
 40
0.18
  9
$DIMCEN
 40
0.09
  9
$DIMTSZ
 40
0.0
  9
$DIMTOL
 70
     0
  9
$DIMLIM
 70
     0
  9
$DIMTIH
 70
     1
  9
$DIMTOH
 70
     1
  9
$DIMSE1
 70
     0
  9
$DIMSE2
 70
     0
  9
$DIMTAD
 70
     0
  9
$DIMZIN
 70
     0
  9
$DIMBLK
  1

  9
$DIMASO
 70
     1
  9
$DIMSHO
 70
     1
  9
$DIMPOST
  1

  9
$DIMAPOST
  1

  9
$DIMALT
 70
     0
  9
$DIMALTD
 70
     2
  9
$DIMALTF
 40
25.4
  9
$DIMLFAC
 40
1.0
  9
$LUNITS
 70
     2
  9
$LUPREC
 70
     4
  9
$AXISMODE
 70
     0
  9
$AXISUNIT
 10
0.0
 20
0.0
  9
$SKETCHINC
 40
0.1
  9
$FILLETRAD
 40
0.0
  9
$AUNITS
 70
     0
  9
$AUPREC
 70
     0
  9
$MENU
  1
acad
  9
$ELEVATION
 40
0.0
  9
$THICKNESS
 40
0.0
  9
$VIEWDIR
 10
0.0
 20
0.0
 30
1.0
  9
$LIMCHECK
 70
     0
  9
$BLIPMODE
 70
     1
  9
$CHAMFERA
 40
0.0
  9
$CHAMFERB
 40
0.0
  9
$FASTZOOM
 70
     1
  9
$SKPOLY
 70
     0
  9
$TDCREATE
 40
0.000000000
  9
$TDUPDATE
 40
0.000000000
  9
$TDINDWG
 40
0.0000000000
  9
$TDUSRTIMER
 40
0.0000000000
  9
$USRTIMER
 70
     1
  9
$ANGBASE
 50
0.0
  9
$ANGDIR
 70
     0
  9
$PDMODE
 70
     0
  9
$PDSIZE
 40
0.0
  9
$PLINEWID
 40
0.0
  9
$COORDS
 70
     0
  9
$SPLFRAME
 70
     0
  9
$SPLINESEGS
 70
     8
  9
$ATTDIA
 70
     0
  9
$ATTREQ
 70
     1
  9
$USERI1
 70
     0
  9
$USERI2
 70
     0
  9
$USERI3
 70
     0
  9
$USERI4
 70
     0
  9
$USERI5
 70
     0
  9
$USERR1
 40
0.0
  9
$USERR2
 40
0.0
  9
$USERR3
 40
0.0
  9
$USERR4
 40
0.0
  9
$USERR5
 40
0.0
  0
ENDSEC
  0
SECTION
  2
TABLES
  0
TABLE
  2
LTYPE
 70
     1
  0
LTYPE
  2
CONTINUOUS
 70
    64
  3
Solid line
 72
    65
 73
     0
 40
0.0
  0
ENDTAB
  0
TABLE
  2
LAYER
 70
     8
  0
LAYER
  2
0
 70
     0
 62
     7
  6
CONTINUOUS
  0
LAYER
  2
TOPLAYER
 70
     0
 62
     1
  6
CONTINUOUS
  0
LAYER
  2
BOTTOMLAYER
 70
     0
 62
     5
  6
CONTINUOUS
  0
LAYER
  2
TOPOVERLAY
 70
     0
 62
     2
  6
CONTINUOUS
  0
LAYER
  2
TOPPASTE
 70
     0
 62
     8
  6
CONTINUOUS
  0
LAYER
  2
BOTTOMPASTE
 70
     0
 62
    16
  6
CONTINUOUS
  0
LAYER
  2
TOPSOLDER
 70
     0
 62
   216
  6
CONTINUOUS
  0
LAYER
  2
BOTTOMSOLDER
 70
     0
 62
     6
  6
CONTINUOUS
  0
ENDTAB
  0
TABLE
  2
STYLE
 70
     1
  0
STYLE
  2
STANDARD
 70
     0
 40
0.0
 41
1.0
 50
0.0
 71
     0
 42
0.0
  3
txt
  4

  0
ENDTAB
  0
TABLE
  2
VIEW
 70
     0
  0
ENDTAB
  0
ENDSEC
  0
SECTION
  2
BLOCKS
  0
BLOCK
  8
0
  2
PCBC_________1_1
 70
     0
 10
0.0
 20
0.0
  0
POLYLINE
  8
TOPOVERLAY
 66
     1
 40
0.1
 41
0.1
  0
VERTEX
  8
TOPOVERLAY
 10
0.0
 20
0.0
  0
VERTEX
  8
TOPOVERLAY
 10
15.0114
 20
0.0
  0
SEQEND
  8
0
  0
POLYLINE
  8
TOPOVERLAY
 66
     1
 70
     1
 40
0.05
 41
0.05
  0
VERTEX
  8
TOPOVERLAY
 10
-0.024999
 20
0.0
 42
1.0
  0
VERTEX
  8
TOPOVERLAY
 10
0.024999
 20
0.0
 42
1.0
  0
SEQEND
  8
0
  0
POLYLINE
  8
TOPOVERLAY
 66
     1
 70
     1
 40
0.05
 41
0.05
  0
VERTEX
  8
TOPOVERLAY
 10
14.986401
 20
0.0
 42
1.0
  0
VERTEX
  8
TOPOVERLAY
 10
15.036399
 20
0.0
 42
1.0
  0
SEQEND
  8
0
  0
POLYLINE
  8
TOPOVERLAY
 66
     1
 40
0.1
 41
0.1
  0
VERTEX
  8
TOPOVERLAY
 10
0.0
 20
-15.0114
  0
VERTEX
  8
TOPOVERLAY
 10
0.0
 20
0.0
  0
SEQEND
  8
0
  0
POLYLINE
  8
TOPOVERLAY
 66
     1
 70
     1
 40
0.05
 41
0.05
  0
VERTEX
  8
TOPOVERLAY
 10
-0.024999
 20
-15.0114
 42
1.0
  0
VERTEX
  8
TOPOVERLAY
 10
0.024999
 20
-15.0114
 42
1.0
  0
SEQEND
  8
0
  0
POLYLINE
  8
TOPOVERLAY
 66
     1
 70
     1
 40
0.05
 41
0.05
  0
VERTEX
  8
TOPOVERLAY
 10
-0.024999
 20
0.0
 42
1.0
  0
VERTEX
  8
TOPOVERLAY
 10
0.024999
 20
0.0
 42
1.0
  0
SEQEND
  8
0
  0
POLYLINE
  8
TOPOVERLAY
 66
     1
 40
0.1
 41
0.1
  0
VERTEX
  8
TOPOVERLAY
 10
0.0
 20
-15.0114
  0
VERTEX
  8
TOPOVERLAY
 10
15.0114
 20
-15.0114
  0
SEQEND
  8
0
  0
POLYLINE
  8
TOPOVERLAY
 66
     1
 70
     1
 40
0.05
 41
0.05
  0
VERTEX
  8
TOPOVERLAY
 10
-0.024999
 20
-15.0114
 42
1.0
  0
VERTEX
  8
TOPOVERLAY
 10
0.024999
 20
-15.0114
 42
1.0
  0
SEQEND
  8
0
  0
POLYLINE
  8
TOPOVERLAY
 66
     1
 70
     1
 40
0.05
 41
0.05
  0
VERTEX
  8
TOPOVERLAY
 10
14.986401
 20
-15.0114
 42
1.0
  0
VERTEX
  8
TOPOVERLAY
 10
15.036399
 20
-15.0114
 42
1.0
  0
SEQEND
  8
0
  0
POLYLINE
  8
TOPOVERLAY
 66
     1
 40
0.1
 41
0.1
  0
VERTEX
  8
TOPOVERLAY
 10
15.0114
 20
-15.0114
  0
VERTEX
  8
TOPOVERLAY
 10
15.0114
 20
0.0
  0
SEQEND
  8
0
  0
POLYLINE
  8
TOPOVERLAY
 66
     1
 70
     1
 40
0.05
 41
0.05
  0
VERTEX
  8
TOPOVERLAY
 10
14.986401
 20
-15.0114
 42
1.0
  0
VERTEX
  8
TOPOVERLAY
 10
15.036399
 20
-15.0114
 42
1.0
  0
SEQEND
  8
0
  0
POLYLINE
  8
TOPOVERLAY
 66
     1
 70
     1
 40
0.05
 41
0.05
  0
VERTEX
  8
TOPOVERLAY
 10
14.986401
 20
0.0
 42
1.0
  0
VERTEX
  8
TOPOVERLAY
 10
15.036399
 20
0.0
 42
1.0
  0
SEQEND
  8
0
  0
POLYLINE
  8
TOPLAYER
 66
     1
 40
0.800001
 41
0.800001
  0
VERTEX
  8
TOPLAYER
 10
1.188199
 20
0.951972
  0
VERTEX
  8
TOPLAYER
 10
1.188199
 20
-0.948025
  0
SEQEND
  8
0
  0
POLYLINE
  8
TOPLAYER
 66
     1
 70
     1
 40
0.399999
 41
0.399999
  0
VERTEX
  8
TOPLAYER
 10
0.9882
 20
0.951972
 42
1.0
  0
VERTEX
  8
TOPLAYER
 10
1.388199
 20
0.951972
 42
1.0
  0
SEQEND
  8
0
  0
POLYLINE
  8
TOPLAYER
 66
     1
 70
     1
 40
0.399999
 41
0.399999
  0
VERTEX
  8
TOPLAYER
 10
0.9882
 20
-0.948025
 42
1.0
  0
VERTEX
  8
TOPLAYER
 10
1.388199
 20
-0.948025
 42
1.0
  0
SEQEND
  8
0
  0
POLYLINE
  8
TOPPASTE
 66
     1
 40
0.800001
 41
0.800001
  0
VERTEX
  8
TOPPASTE
 10
1.188199
 20
0.951972
  0
VERTEX
  8
TOPPASTE
 10
1.188199
 20
-0.948025
  0
SEQEND
  8
0
  0
POLYLINE
  8
TOPPASTE
 66
     1
 70
     1
 40
0.399999
 41
0.399999
  0
VERTEX
  8
TOPPASTE
 10
0.9882
 20
0.951972
 42
1.0
  0
VERTEX
  8
TOPPASTE
 10
1.388199
 20
0.951972
 42
1.0
  0
SEQEND
  8
0
  0
POLYLINE
  8
TOPPASTE
 66
     1
 70
     1
 40
0.399999
 41
0.399999
  0
VERTEX
  8
TOPPASTE
 10
0.9882
 20
-0.948025
 42
1.0
  0
VERTEX
  8
TOPPASTE
 10
1.388199
 20
-0.948025
 42
1.0
  0
SEQEND
  8
0
  0
POLYLINE
  8
TOPSOLDER
 66
     1
 40
1.003201
 41
1.003201
  0
VERTEX
  8
TOPSOLDER
 10
1.188199
 20
0.951972
  0
VERTEX
  8
TOPSOLDER
 10
1.188199
 20
-0.948025
  0
SEQEND
  8
0
  0
POLYLINE
  8
TOPSOLDER
 66
     1
 70
     1
 40
0.501599
 41
0.501599
  0
VERTEX
  8
TOPSOLDER
 10
0.9374
 20
0.951972
 42
1.0
  0
VERTEX
  8
TOPSOLDER
 10
1.438999
 20
0.951972
 42
1.0
  0
SEQEND
  8
0
  0
POLYLINE
  8
TOPSOLDER
 66
     1
 70
     1
 40
0.501599
 41
0.501599
  0
VERTEX
  8
TOPSOLDER
 10
0.9374
 20
-0.948025
 42
1.0
  0
VERTEX
  8
TOPSOLDER
 10
1.438999
 20
-0.948025
 42
1.0
  0
SEQEND
  8
0
  0
POLYLINE
  8
TOPLAYER
 66
     1
 40
0.800001
 41
0.800001
  0
VERTEX
  8
TOPLAYER
 10
2.458197
 20
0.951972
  0
VERTEX
  8
TOPLAYER
 10
2.458197
 20
-0.948025
  0
SEQEND
  8
0
  0
POLYLINE
  8
TOPLAYER
 66
     1
 70
     1
 40
0.399999
 41
0.399999
  0
VERTEX
  8
TOPLAYER
 10
2.258197
 20
0.951972
 42
1.0
  0
VERTEX
  8
TOPLAYER
 10
2.658196
 20
0.951972
 42
1.0
  0
SEQEND
  8
0
  0
POLYLINE
  8
TOPLAYER
 66
     1
 70
     1
 40
0.399999
 41
0.399999
  0
VERTEX
  8
TOPLAYER
 10
2.258197
 20
-0.948025
 42
1.0
  0
VERTEX
  8
TOPLAYER
 10
2.658196
 20
-0.948025
 42
1.0
  0
SEQEND
  8
0
  0
POLYLINE
  8
TOPPASTE
 66
     1
 40
0.800001
 41
0.800001
  0
VERTEX
  8
TOPPASTE
 10
2.458197
 20
0.951972
  0
VERTEX
  8
TOPPASTE
 10
2.458197
 20
-0.948025
  0
SEQEND
  8
0
  0
POLYLINE
  8
TOPPASTE
 66
     1
 70
     1
 40
0.399999
 41
0.399999
  0
VERTEX
  8
TOPPASTE
 10
2.258197
 20
0.951972
 42
1.0
  0
VERTEX
  8
TOPPASTE
 10
2.658196
 20
0.951972
 42
1.0
  0
SEQEND
  8
0
  0
POLYLINE
  8
TOPPASTE
 66
     1
 70
     1
 40
0.399999
 41
0.399999
  0
VERTEX
  8
TOPPASTE
 10
2.258197
 20
-0.948025
 42
1.0
  0
VERTEX
  8
TOPPASTE
 10
2.658196
 20
-0.948025
 42
1.0
  0
SEQEND
  8
0
  0
POLYLINE
  8
TOPSOLDER
 66
     1
 40
1.003201
 41
1.003201
  0
VERTEX
  8
TOPSOLDER
 10
2.458197
 20
0.951972
  0
VERTEX
  8
TOPSOLDER
 10
2.458197
 20
-0.948025
  0
SEQEND
  8
0
  0
POLYLINE
  8
TOPSOLDER
 66
     1
 70
     1
 40
0.501599
 41
0.501599
  0
VERTEX
  8
TOPSOLDER
 10
2.207397
 20
0.951972
 42
1.0
  0
VERTEX
  8
TOPSOLDER
 10
2.708996
 20
0.951972
 42
1.0
  0
SEQEND
  8
0
  0
POLYLINE
  8
TOPSOLDER
 66
     1
 70
     1
 40
0.501599
 41
0.501599
  0
VERTEX
  8
TOPSOLDER
 10
2.207397
 20
-0.948025
 42
1.0
  0
VERTEX
  8
TOPSOLDER
 10
2.708996
 20
-0.948025
 42
1.0
  0
SEQEND
  8
0
  0
POLYLINE
  8
TOPLAYER
 66
     1
 40
0.800001
 41
0.800001
  0
VERTEX
  8
TOPLAYER
 10
3.728194
 20
0.951972
  0
VERTEX
  8
TOPLAYER
 10
3.728194
 20
-0.948025
  0
SEQEND
  8
0
  0
POLYLINE
  8
TOPLAYER
 66
     1
 70
     1
 40
0.399999
 41
0.399999
  0
VERTEX
  8
TOPLAYER
 10
3.528195
 20
0.951972
 42
1.0
  0
VERTEX
  8
TOPLAYER
 10
3.928194
 20
0.951972
 42
1.0
  0
SEQEND
  8
0
  0
POLYLINE
  8
TOPLAYER
 66
     1
 70
     1
 40
0.399999
 41
0.399999
  0
VERTEX
  8
TOPLAYER
 10
3.528195
 20
-0.948025
 42
1.0
  0
VERTEX
  8
TOPLAYER
 10
3.928194
 20
-0.948025
 42
1.0
  0
SEQEND
  8
0
  0
POLYLINE
  8
TOPPASTE
 66
     1
 40
0.800001
 41
0.800001
  0
VERTEX
  8
TOPPASTE
 10
3.728194
 20
0.951972
  0
VERTEX
  8
TOPPASTE
 10
3.728194
 20
-0.948025
  0
SEQEND
  8
0
  0
POLYLINE
  8
TOPPASTE
 66
     1
 70
     1
 40
0.399999
 41
0.399999
  0
VERTEX
  8
TOPPASTE
 10
3.528195
 20
0.951972
 42
1.0
  0
VERTEX
  8
TOPPASTE
 10
3.928194
 20
0.951972
 42
1.0
  0
SEQEND
  8
0
  0
POLYLINE
  8
TOPPASTE
 66
     1
 70
     1
 40
0.399999
 41
0.399999
  0
VERTEX
  8
TOPPASTE
 10
3.528195
 20
-0.948025
 42
1.0
  0
VERTEX
  8
TOPPASTE
 10
3.928194
 20
-0.948025
 42
1.0
  0
SEQEND
  8
0
  0
POLYLINE
  8
TOPSOLDER
 66
     1
 40
1.003201
 41
1.003201
  0
VERTEX
  8
TOPSOLDER
 10
3.728194
 20
0.951972
  0
VERTEX
  8
TOPSOLDER
 10
3.728194
 20
-0.948025
  0
SEQEND
  8
0
  0
POLYLINE
  8
TOPSOLDER
 66
     1
 70
     1
 40
0.501599
 41
0.501599
  0
VERTEX
  8
TOPSOLDER
 10
3.477395
 20
0.951972
 42
1.0
  0
VERTEX
  8
TOPSOLDER
 10
3.978994
 20
0.951972
 42
1.0
  0
SEQEND
  8
0
  0
POLYLINE
  8
TOPSOLDER
 66
     1
 70
     1
 40
0.501599
 41
0.501599
  0
VERTEX
  8
TOPSOLDER
 10
3.477395
 20
-0.948025
 42
1.0
  0
VERTEX
  8
TOPSOLDER
 10
3.978994
 20
-0.948025
 42
1.0
  0
SEQEND
  8
0
  0
POLYLINE
  8
TOPLAYER
 66
     1
 40
0.800001
 41
0.800001
  0
VERTEX
  8
TOPLAYER
 10
4.998192
 20
0.951972
  0
VERTEX
  8
TOPLAYER
 10
4.998192
 20
-0.948025
  0
SEQEND
  8
0
  0
POLYLINE
  8
TOPLAYER
 66
     1
 70
     1
 40
0.399999
 41
0.399999
  0
VERTEX
  8
TOPLAYER
 10
4.798192
 20
0.951972
 42
1.0
  0
VERTEX
  8
TOPLAYER
 10
5.198191
 20
0.951972
 42
1.0
  0
SEQEND
  8
0
  0
POLYLINE
  8
TOPLAYER
 66
     1
 70
     1
 40
0.399999
 41
0.399999
  0
VERTEX
  8
TOPLAYER
 10
4.798192
 20
-0.948025
 42
1.0
  0
VERTEX
  8
TOPLAYER
 10
5.198191
 20
-0.948025
 42
1.0
  0
SEQEND
  8
0
  0
POLYLINE
  8
TOPPASTE
 66
     1
 40
0.800001
 41
0.800001
  0
VERTEX
  8
TOPPASTE
 10
4.998192
 20
0.951972
  0
VERTEX
  8
TOPPASTE
 10
4.998192
 20
-0.948025
  0
SEQEND
  8
0
  0
POLYLINE
  8
TOPPASTE
 66
     1
 70
     1
 40
0.399999
 41
0.399999
  0
VERTEX
  8
TOPPASTE
 10
4.798192
 20
0.951972
 42
1.0
  0
VERTEX
  8
TOPPASTE
 10
5.198191
 20
0.951972
 42
1.0
  0
SEQEND
  8
0
  0
POLYLINE
  8
TOPPASTE
 66
     1
 70
     1
 40
0.399999
 41
0.399999
  0
VERTEX
  8
TOPPASTE
 10
4.798192
 20
-0.948025
 42
1.0
  0
VERTEX
  8
TOPPASTE
 10
5.198191
 20
-0.948025
 42
1.0
  0
SEQEND
  8
0
  0
POLYLINE
  8
TOPSOLDER
 66
     1
 40
1.003201
 41
1.003201
  0
VERTEX
  8
TOPSOLDER
 10
4.998192
 20
0.951972
  0
VERTEX
  8
TOPSOLDER
 10
4.998192
 20
-0.948025
  0
SEQEND
  8
0
  0
POLYLINE
  8
TOPSOLDER
 66
     1
 70
     1
 40
0.501599
 41
0.501599
  0
VERTEX
  8
TOPSOLDER
 10
4.747392
 20
0.951972
 42
1.0
  0
VERTEX
  8
TOPSOLDER
 10
5.248991
 20
0.951972
 42
1.0
  0
SEQEND
  8
0
  0
POLYLINE
  8
TOPSOLDER
 66
     1
 70
     1
 40
0.501599
 41
0.501599
  0
VERTEX
  8
TOPSOLDER
 10
4.747392
 20
-0.948025
 42
1.0
  0
VERTEX
  8
TOPSOLDER
 10
5.248991
 20
-0.948025
 42
1.0
  0
SEQEND
  8
0
  0
POLYLINE
  8
TOPLAYER
 66
     1
 40
0.800001
 41
0.800001
  0
VERTEX
  8
TOPLAYER
 10
6.268189
 20
0.951972
  0
VERTEX
  8
TOPLAYER
 10
6.268189
 20
-0.948025
  0
SEQEND
  8
0
  0
POLYLINE
  8
TOPLAYER
 66
     1
 70
     1
 40
0.399999
 41
0.399999
  0
VERTEX
  8
TOPLAYER
 10
6.06819
 20
0.951972
 42
1.0
  0
VERTEX
  8
TOPLAYER
 10
6.468189
 20
0.951972
 42
1.0
  0
SEQEND
  8
0
  0
POLYLINE
  8
TOPLAYER
 66
     1
 70
     1
 40
0.399999
 41
0.399999
  0
VERTEX
  8
TOPLAYER
 10
6.06819
 20
-0.948025
 42
1.0
  0
VERTEX
  8
TOPLAYER
 10
6.468189
 20
-0.948025
 42
1.0
  0
SEQEND
  8
0
  0
POLYLINE
  8
TOPPASTE
 66
     1
 40
0.800001
 41
0.800001
  0
VERTEX
  8
TOPPASTE
 10
6.268189
 20
0.951972
  0
VERTEX
  8
TOPPASTE
 10
6.268189
 20
-0.948025
  0
SEQEND
  8
0
  0
POLYLINE
  8
TOPPASTE
 66
     1
 70
     1
 40
0.399999
 41
0.399999
  0
VERTEX
  8
TOPPASTE
 10
6.06819
 20
0.951972
 42
1.0
  0
VERTEX
  8
TOPPASTE
 10
6.468189
 20
0.951972
 42
1.0
  0
SEQEND
  8
0
  0
POLYLINE
  8
TOPPASTE
 66
     1
 70
     1
 40
0.399999
 41
0.399999
  0
VERTEX
  8
TOPPASTE
 10
6.06819
 20
-0.948025
 42
1.0
  0
VERTEX
  8
TOPPASTE
 10
6.468189
 20
-0.948025
 42
1.0
  0
SEQEND
  8
0
  0
POLYLINE
  8
TOPSOLDER
 66
     1
 40
1.003201
 41
1.003201
  0
VERTEX
  8
TOPSOLDER
 10
6.268189
 20
0.951972
  0
VERTEX
  8
TOPSOLDER
 10
6.268189
 20
-0.948025
  0
SEQEND
  8
0
  0
POLYLINE
  8
TOPSOLDER
 66
     1
 70
     1
 40
0.501599
 41
0.501599
  0
VERTEX
  8
TOPSOLDER
 10
6.01739
 20
0.951972
 42
1.0
  0
VERTEX
  8
TOPSOLDER
 10
6.518989
 20
0.951972
 42
1.0
  0
SEQEND
  8
0
  0
POLYLINE
  8
TOPSOLDER
 66
     1
 70
     1
 40
0.501599
 41
0.501599
  0
VERTEX
  8
TOPSOLDER
 10
6.01739
 20
-0.948025
 42
1.0
  0
VERTEX
  8
TOPSOLDER
 10
6.518989
 20
-0.948025
 42
1.0
  0
SEQEND
  8
0
  0
POLYLINE
  8
TOPLAYER
 66
     1
 40
0.800001
 41
0.800001
  0
VERTEX
  8
TOPLAYER
 10
7.538187
 20
0.951972
  0
VERTEX
  8
TOPLAYER
 10
7.538187
 20
-0.948025
  0
SEQEND
  8
0
  0
POLYLINE
  8
TOPLAYER
 66
     1
 70
     1
 40
0.399999
 41
0.399999
  0
VERTEX
  8
TOPLAYER
 10
7.338187
 20
0.951972
 42
1.0
  0
VERTEX
  8
TOPLAYER
 10
7.738186
 20
0.951972
 42
1.0
  0
SEQEND
  8
0
  0
POLYLINE
  8
TOPLAYER
 66
     1
 70
     1
 40
0.399999
 41
0.399999
  0
VERTEX
  8
TOPLAYER
 10
7.338187
 20
-0.948025
 42
1.0
  0
VERTEX
  8
TOPLAYER
 10
7.738186
 20
-0.948025
 42
1.0
  0
SEQEND
  8
0
  0
POLYLINE
  8
TOPPASTE
 66
     1
 40
0.800001
 41
0.800001
  0
VERTEX
  8
TOPPASTE
 10
7.538187
 20
0.951972
  0
VERTEX
  8
TOPPASTE
 10
7.538187
 20
-0.948025
  0
SEQEND
  8
0
  0
POLYLINE
  8
TOPPASTE
 66
     1
 70
     1
 40
0.399999
 41
0.399999
  0
VERTEX
  8
TOPPASTE
 10
7.338187
 20
0.951972
 42
1.0
  0
VERTEX
  8
TOPPASTE
 10
7.738186
 20
0.951972
 42
1.0
  0
SEQEND
  8
0
  0
POLYLINE
  8
TOPPASTE
 66
     1
 70
     1
 40
0.399999
 41
0.399999
  0
VERTEX
  8
TOPPASTE
 10
7.338187
 20
-0.948025
 42
1.0
  0
VERTEX
  8
TOPPASTE
 10
7.738186
 20
-0.948025
 42
1.0
  0
SEQEND
  8
0
  0
POLYLINE
  8
TOPSOLDER
 66
     1
 40
1.003201
 41
1.003201
  0
VERTEX
  8
TOPSOLDER
 10
7.538187
 20
0.951972
  0
VERTEX
  8
TOPSOLDER
 10
7.538187
 20
-0.948025
  0
SEQEND
  8
0
  0
POLYLINE
  8
TOPSOLDER
 66
     1
 70
     1
 40
0.501599
 41
0.501599
  0
VERTEX
  8
TOPSOLDER
 10
7.287387
 20
0.951972
 42
1.0
  0
VERTEX
  8
TOPSOLDER
 10
7.788986
 20
0.951972
 42
1.0
  0
SEQEND
  8
0
  0
POLYLINE
  8
TOPSOLDER
 66
     1
 70
     1
 40
0.501599
 41
0.501599
  0
VERTEX
  8
TOPSOLDER
 10
7.287387
 20
-0.948025
 42
1.0
  0
VERTEX
  8
TOPSOLDER
 10
7.788986
 20
-0.948025
 42
1.0
  0
SEQEND
  8
0
  0
POLYLINE
  8
TOPLAYER
 66
     1
 40
0.800001
 41
0.800001
  0
VERTEX
  8
TOPLAYER
 10
8.808184
 20
0.951972
  0
VERTEX
  8
TOPLAYER
 10
8.808184
 20
-0.948025
  0
SEQEND
  8
0
  0
POLYLINE
  8
TOPLAYER
 66
     1
 70
     1
 40
0.399999
 41
0.399999
  0
VERTEX
  8
TOPLAYER
 10
8.608184
 20
0.951972
 42
1.0
  0
VERTEX
  8
TOPLAYER
 10
9.008184
 20
0.951972
 42
1.0
  0
SEQEND
  8
0
  0
POLYLINE
  8
TOPLAYER
 66
     1
 70
     1
 40
0.399999
 41
0.399999
  0
VERTEX
  8
TOPLAYER
 10
8.608184
 20
-0.948025
 42
1.0
  0
VERTEX
  8
TOPLAYER
 10
9.008184
 20
-0.948025
 42
1.0
  0
SEQEND
  8
0
  0
POLYLINE
  8
TOPPASTE
 66
     1
 40
0.800001
 41
0.800001
  0
VERTEX
  8
TOPPASTE
 10
8.808184
 20
0.951972
  0
VERTEX
  8
TOPPASTE
 10
8.808184
 20
-0.948025
  0
SEQEND
  8
0
  0
POLYLINE
  8
TOPPASTE
 66
     1
 70
     1
 40
0.399999
 41
0.399999
  0
VERTEX
  8
TOPPASTE
 10
8.608184
 20
0.951972
 42
1.0
  0
VERTEX
  8
TOPPASTE
 10
9.008184
 20
0.951972
 42
1.0
  0
SEQEND
  8
0
  0
POLYLINE
  8
TOPPASTE
 66
     1
 70
     1
 40
0.399999
 41
0.399999
  0
VERTEX
  8
TOPPASTE
 10
8.608184
 20
-0.948025
 42
1.0
  0
VERTEX
  8
TOPPASTE
 10
9.008184
 20
-0.948025
 42
1.0
  0
SEQEND
  8
0
  0
POLYLINE
  8
TOPSOLDER
 66
     1
 40
1.003201
 41
1.003201
  0
VERTEX
  8
TOPSOLDER
 10
8.808184
 20
0.951972
  0
VERTEX
  8
TOPSOLDER
 10
8.808184
 20
-0.948025
  0
SEQEND
  8
0
  0
POLYLINE
  8
TOPSOLDER
 66
     1
 70
     1
 40
0.501599
 41
0.501599
  0
VERTEX
  8
TOPSOLDER
 10
8.557384
 20
0.951972
 42
1.0
  0
VERTEX
  8
TOPSOLDER
 10
9.058984
 20
0.951972
 42
1.0
  0
SEQEND
  8
0
  0
POLYLINE
  8
TOPSOLDER
 66
     1
 70
     1
 40
0.501599
 41
0.501599
  0
VERTEX
  8
TOPSOLDER
 10
8.557384
 20
-0.948025
 42
1.0
  0
VERTEX
  8
TOPSOLDER
 10
9.058984
 20
-0.948025
 42
1.0
  0
SEQEND
  8
0
  0
POLYLINE
  8
TOPLAYER
 66
     1
 40
0.800001
 41
0.800001
  0
VERTEX
  8
TOPLAYER
 10
10.078182
 20
0.951972
  0
VERTEX
  8
TOPLAYER
 10
10.078182
 20
-0.948025
  0
SEQEND
  8
0
  0
POLYLINE
  8
TOPLAYER
 66
     1
 70
     1
 40
0.399999
 41
0.399999
  0
VERTEX
  8
TOPLAYER
 10
9.878182
 20
0.951972
 42
1.0
  0
VERTEX
  8
TOPLAYER
 10
10.278181
 20
0.951972
 42
1.0
  0
SEQEND
  8
0
  0
POLYLINE
  8
TOPLAYER
 66
     1
 70
     1
 40
0.399999
 41
0.399999
  0
VERTEX
  8
TOPLAYER
 10
9.878182
 20
-0.948025
 42
1.0
  0
VERTEX
  8
TOPLAYER
 10
10.278181
 20
-0.948025
 42
1.0
  0
SEQEND
  8
0
  0
POLYLINE
  8
TOPPASTE
 66
     1
 40
0.800001
 41
0.800001
  0
VERTEX
  8
TOPPASTE
 10
10.078182
 20
0.951972
  0
VERTEX
  8
TOPPASTE
 10
10.078182
 20
-0.948025
  0
SEQEND
  8
0
  0
POLYLINE
  8
TOPPASTE
 66
     1
 70
     1
 40
0.399999
 41
0.399999
  0
VERTEX
  8
TOPPASTE
 10
9.878182
 20
0.951972
 42
1.0
  0
VERTEX
  8
TOPPASTE
 10
10.278181
 20
0.951972
 42
1.0
  0
SEQEND
  8
0
  0
POLYLINE
  8
TOPPASTE
 66
     1
 70
     1
 40
0.399999
 41
0.399999
  0
VERTEX
  8
TOPPASTE
 10
9.878182
 20
-0.948025
 42
1.0
  0
VERTEX
  8
TOPPASTE
 10
10.278181
 20
-0.948025
 42
1.0
  0
SEQEND
  8
0
  0
POLYLINE
  8
TOPSOLDER
 66
     1
 40
1.003201
 41
1.003201
  0
VERTEX
  8
TOPSOLDER
 10
10.078182
 20
0.951972
  0
VERTEX
  8
TOPSOLDER
 10
10.078182
 20
-0.948025
  0
SEQEND
  8
0
  0
POLYLINE
  8
TOPSOLDER
 66
     1
 70
     1
 40
0.501599
 41
0.501599
  0
VERTEX
  8
TOPSOLDER
 10
9.827382
 20
0.951972
 42
1.0
  0
VERTEX
  8
TOPSOLDER
 10
10.328981
 20
0.951972
 42
1.0
  0
SEQEND
  8
0
  0
POLYLINE
  8
TOPSOLDER
 66
     1
 70
     1
 40
0.501599
 41
0.501599
  0
VERTEX
  8
TOPSOLDER
 10
9.827382
 20
-0.948025
 42
1.0
  0
VERTEX
  8
TOPSOLDER
 10
10.328981
 20
-0.948025
 42
1.0
  0
SEQEND
  8
0
  0
POLYLINE
  8
TOPLAYER
 66
     1
 40
0.800001
 41
0.800001
  0
VERTEX
  8
TOPLAYER
 10
11.348179
 20
0.951972
  0
VERTEX
  8
TOPLAYER
 10
11.348179
 20
-0.948025
  0
SEQEND
  8
0
  0
POLYLINE
  8
TOPLAYER
 66
     1
 70
     1
 40
0.399999
 41
0.399999
  0
VERTEX
  8
TOPLAYER
 10
11.148179
 20
0.951972
 42
1.0
  0
VERTEX
  8
TOPLAYER
 10
11.548179
 20
0.951972
 42
1.0
  0
SEQEND
  8
0
  0
POLYLINE
  8
TOPLAYER
 66
     1
 70
     1
 40
0.399999
 41
0.399999
  0
VERTEX
  8
TOPLAYER
 10
11.148179
 20
-0.948025
 42
1.0
  0
VERTEX
  8
TOPLAYER
 10
11.548179
 20
-0.948025
 42
1.0
  0
SEQEND
  8
0
  0
POLYLINE
  8
TOPPASTE
 66
     1
 40
0.800001
 41
0.800001
  0
VERTEX
  8
TOPPASTE
 10
11.348179
 20
0.951972
  0
VERTEX
  8
TOPPASTE
 10
11.348179
 20
-0.948025
  0
SEQEND
  8
0
  0
POLYLINE
  8
TOPPASTE
 66
     1
 70
     1
 40
0.399999
 41
0.399999
  0
VERTEX
  8
TOPPASTE
 10
11.148179
 20
0.951972
 42
1.0
  0
VERTEX
  8
TOPPASTE
 10
11.548179
 20
0.951972
 42
1.0
  0
SEQEND
  8
0
  0
POLYLINE
  8
TOPPASTE
 66
     1
 70
     1
 40
0.399999
 41
0.399999
  0
VERTEX
  8
TOPPASTE
 10
11.148179
 20
-0.948025
 42
1.0
  0
VERTEX
  8
TOPPASTE
 10
11.548179
 20
-0.948025
 42
1.0
  0
SEQEND
  8
0
  0
POLYLINE
  8
TOPSOLDER
 66
     1
 40
1.003201
 41
1.003201
  0
VERTEX
  8
TOPSOLDER
 10
11.348179
 20
0.951972
  0
VERTEX
  8
TOPSOLDER
 10
11.348179
 20
-0.948025
  0
SEQEND
  8
0
  0
POLYLINE
  8
TOPSOLDER
 66
     1
 70
     1
 40
0.501599
 41
0.501599
  0
VERTEX
  8
TOPSOLDER
 10
11.097379
 20
0.951972
 42
1.0
  0
VERTEX
  8
TOPSOLDER
 10
11.598979
 20
0.951972
 42
1.0
  0
SEQEND
  8
0
  0
POLYLINE
  8
TOPSOLDER
 66
     1
 70
     1
 40
0.501599
 41
0.501599
  0
VERTEX
  8
TOPSOLDER
 10
11.097379
 20
-0.948025
 42
1.0
  0
VERTEX
  8
TOPSOLDER
 10
11.598979
 20
-0.948025
 42
1.0
  0
SEQEND
  8
0
  0
POLYLINE
  8
TOPLAYER
 66
     1
 40
0.800001
 41
0.800001
  0
VERTEX
  8
TOPLAYER
 10
12.618176
 20
0.951972
  0
VERTEX
  8
TOPLAYER
 10
12.618176
 20
-0.948025
  0
SEQEND
  8
0
  0
POLYLINE
  8
TOPLAYER
 66
     1
 70
     1
 40
0.399999
 41
0.399999
  0
VERTEX
  8
TOPLAYER
 10
12.418177
 20
0.951972
 42
1.0
  0
VERTEX
  8
TOPLAYER
 10
12.818176
 20
0.951972
 42
1.0
  0
SEQEND
  8
0
  0
POLYLINE
  8
TOPLAYER
 66
     1
 70
     1
 40
0.399999
 41
0.399999
  0
VERTEX
  8
TOPLAYER
 10
12.418177
 20
-0.948025
 42
1.0
  0
VERTEX
  8
TOPLAYER
 10
12.818176
 20
-0.948025
 42
1.0
  0
SEQEND
  8
0
  0
POLYLINE
  8
TOPPASTE
 66
     1
 40
0.800001
 41
0.800001
  0
VERTEX
  8
TOPPASTE
 10
12.618176
 20
0.951972
  0
VERTEX
  8
TOPPASTE
 10
12.618176
 20
-0.948025
  0
SEQEND
  8
0
  0
POLYLINE
  8
TOPPASTE
 66
     1
 70
     1
 40
0.399999
 41
0.399999
  0
VERTEX
  8
TOPPASTE
 10
12.418177
 20
0.951972
 42
1.0
  0
VERTEX
  8
TOPPASTE
 10
12.818176
 20
0.951972
 42
1.0
  0
SEQEND
  8
0
  0
POLYLINE
  8
TOPPASTE
 66
     1
 70
     1
 40
0.399999
 41
0.399999
  0
VERTEX
  8
TOPPASTE
 10
12.418177
 20
-0.948025
 42
1.0
  0
VERTEX
  8
TOPPASTE
 10
12.818176
 20
-0.948025
 42
1.0
  0
SEQEND
  8
0
  0
POLYLINE
  8
TOPSOLDER
 66
     1
 40
1.003201
 41
1.003201
  0
VERTEX
  8
TOPSOLDER
 10
12.618176
 20
0.951972
  0
VERTEX
  8
TOPSOLDER
 10
12.618176
 20
-0.948025
  0
SEQEND
  8
0
  0
POLYLINE
  8
TOPSOLDER
 66
     1
 70
     1
 40
0.501599
 41
0.501599
  0
VERTEX
  8
TOPSOLDER
 10
12.367377
 20
0.951972
 42
1.0
  0
VERTEX
  8
TOPSOLDER
 10
12.868976
 20
0.951972
 42
1.0
  0
SEQEND
  8
0
  0
POLYLINE
  8
TOPSOLDER
 66
     1
 70
     1
 40
0.501599
 41
0.501599
  0
VERTEX
  8
TOPSOLDER
 10
12.367377
 20
-0.948025
 42
1.0
  0
VERTEX
  8
TOPSOLDER
 10
12.868976
 20
-0.948025
 42
1.0
  0
SEQEND
  8
0
  0
POLYLINE
  8
TOPLAYER
 66
     1
 40
0.800001
 41
0.800001
  0
VERTEX
  8
TOPLAYER
 10
13.888174
 20
0.951972
  0
VERTEX
  8
TOPLAYER
 10
13.888174
 20
-0.948025
  0
SEQEND
  8
0
  0
POLYLINE
  8
TOPLAYER
 66
     1
 70
     1
 40
0.399999
 41
0.399999
  0
VERTEX
  8
TOPLAYER
 10
13.688174
 20
0.951972
 42
1.0
  0
VERTEX
  8
TOPLAYER
 10
14.088173
 20
0.951972
 42
1.0
  0
SEQEND
  8
0
  0
POLYLINE
  8
TOPLAYER
 66
     1
 70
     1
 40
0.399999
 41
0.399999
  0
VERTEX
  8
TOPLAYER
 10
13.688174
 20
-0.948025
 42
1.0
  0
VERTEX
  8
TOPLAYER
 10
14.088173
 20
-0.948025
 42
1.0
  0
SEQEND
  8
0
  0
POLYLINE
  8
TOPPASTE
 66
     1
 40
0.800001
 41
0.800001
  0
VERTEX
  8
TOPPASTE
 10
13.888174
 20
0.951972
  0
VERTEX
  8
TOPPASTE
 10
13.888174
 20
-0.948025
  0
SEQEND
  8
0
  0
POLYLINE
  8
TOPPASTE
 66
     1
 70
     1
 40
0.399999
 41
0.399999
  0
VERTEX
  8
TOPPASTE
 10
13.688174
 20
0.951972
 42
1.0
  0
VERTEX
  8
TOPPASTE
 10
14.088173
 20
0.951972
 42
1.0
  0
SEQEND
  8
0
  0
POLYLINE
  8
TOPPASTE
 66
     1
 70
     1
 40
0.399999
 41
0.399999
  0
VERTEX
  8
TOPPASTE
 10
13.688174
 20
-0.948025
 42
1.0
  0
VERTEX
  8
TOPPASTE
 10
14.088173
 20
-0.948025
 42
1.0
  0
SEQEND
  8
0
  0
POLYLINE
  8
TOPSOLDER
 66
     1
 40
1.003201
 41
1.003201
  0
VERTEX
  8
TOPSOLDER
 10
13.888174
 20
0.951972
  0
VERTEX
  8
TOPSOLDER
 10
13.888174
 20
-0.948025
  0
SEQEND
  8
0
  0
POLYLINE
  8
TOPSOLDER
 66
     1
 70
     1
 40
0.501599
 41
0.501599
  0
VERTEX
  8
TOPSOLDER
 10
13.637374
 20
0.951972
 42
1.0
  0
VERTEX
  8
TOPSOLDER
 10
14.138973
 20
0.951972
 42
1.0
  0
SEQEND
  8
0
  0
POLYLINE
  8
TOPSOLDER
 66
     1
 70
     1
 40
0.501599
 41
0.501599
  0
VERTEX
  8
TOPSOLDER
 10
13.637374
 20
-0.948025
 42
1.0
  0
VERTEX
  8
TOPSOLDER
 10
14.138973
 20
-0.948025
 42
1.0
  0
SEQEND
  8
0
  0
POLYLINE
  8
TOPLAYER
 66
     1
 40
0.800001
 41
0.800001
  0
VERTEX
  8
TOPLAYER
 10
1.1838
 20
-15.986798
  0
VERTEX
  8
TOPLAYER
 10
1.1838
 20
-14.086802
  0
SEQEND
  8
0
  0
POLYLINE
  8
TOPLAYER
 66
     1
 70
     1
 40
0.399999
 41
0.399999
  0
VERTEX
  8
TOPLAYER
 10
0.9838
 20
-15.986798
 42
1.0
  0
VERTEX
  8
TOPLAYER
 10
1.3838
 20
-15.986798
 42
1.0
  0
SEQEND
  8
0
  0
POLYLINE
  8
TOPLAYER
 66
     1
 70
     1
 40
0.399999
 41
0.399999
  0
VERTEX
  8
TOPLAYER
 10
0.9838
 20
-14.086802
 42
1.0
  0
VERTEX
  8
TOPLAYER
 10
1.3838
 20
-14.086802
 42
1.0
  0
SEQEND
  8
0
  0
POLYLINE
  8
TOPPASTE
 66
     1
 40
0.800001
 41
0.800001
  0
VERTEX
  8
TOPPASTE
 10
1.1838
 20
-15.986798
  0
VERTEX
  8
TOPPASTE
 10
1.1838
 20
-14.086802
  0
SEQEND
  8
0
  0
POLYLINE
  8
TOPPASTE
 66
     1
 70
     1
 40
0.399999
 41
0.399999
  0
VERTEX
  8
TOPPASTE
 10
0.9838
 20
-15.986798
 42
1.0
  0
VERTEX
  8
TOPPASTE
 10
1.3838
 20
-15.986798
 42
1.0
  0
SEQEND
  8
0
  0
POLYLINE
  8
TOPPASTE
 66
     1
 70
     1
 40
0.399999
 41
0.399999
  0
VERTEX
  8
TOPPASTE
 10
0.9838
 20
-14.086802
 42
1.0
  0
VERTEX
  8
TOPPASTE
 10
1.3838
 20
-14.086802
 42
1.0
  0
SEQEND
  8
0
  0
POLYLINE
  8
TOPSOLDER
 66
     1
 40
1.003201
 41
1.003201
  0
VERTEX
  8
TOPSOLDER
 10
1.1838
 20
-15.986798
  0
VERTEX
  8
TOPSOLDER
 10
1.1838
 20
-14.086802
  0
SEQEND
  8
0
  0
POLYLINE
  8
TOPSOLDER
 66
     1
 70
     1
 40
0.501599
 41
0.501599
  0
VERTEX
  8
TOPSOLDER
 10
0.933
 20
-15.986798
 42
1.0
  0
VERTEX
  8
TOPSOLDER
 10
1.4346
 20
-15.986798
 42
1.0
  0
SEQEND
  8
0
  0
POLYLINE
  8
TOPSOLDER
 66
     1
 70
     1
 40
0.501599
 41
0.501599
  0
VERTEX
  8
TOPSOLDER
 10
0.933
 20
-14.086802
 42
1.0
  0
VERTEX
  8
TOPSOLDER
 10
1.4346
 20
-14.086802
 42
1.0
  0
SEQEND
  8
0
  0
POLYLINE
  8
TOPLAYER
 66
     1
 40
0.800001
 41
0.800001
  0
VERTEX
  8
TOPLAYER
 10
2.453797
 20
-15.986798
  0
VERTEX
  8
TOPLAYER
 10
2.453797
 20
-14.086802
  0
SEQEND
  8
0
  0
POLYLINE
  8
TOPLAYER
 66
     1
 70
     1
 40
0.399999
 41
0.399999
  0
VERTEX
  8
TOPLAYER
 10
2.253798
 20
-15.986798
 42
1.0
  0
VERTEX
  8
TOPLAYER
 10
2.653797
 20
-15.986798
 42
1.0
  0
SEQEND
  8
0
  0
POLYLINE
  8
TOPLAYER
 66
     1
 70
     1
 40
0.399999
 41
0.399999
  0
VERTEX
  8
TOPLAYER
 10
2.253798
 20
-14.086802
 42
1.0
  0
VERTEX
  8
TOPLAYER
 10
2.653797
 20
-14.086802
 42
1.0
  0
SEQEND
  8
0
  0
POLYLINE
  8
TOPPASTE
 66
     1
 40
0.800001
 41
0.800001
  0
VERTEX
  8
TOPPASTE
 10
2.453797
 20
-15.986798
  0
VERTEX
  8
TOPPASTE
 10
2.453797
 20
-14.086802
  0
SEQEND
  8
0
  0
POLYLINE
  8
TOPPASTE
 66
     1
 70
     1
 40
0.399999
 41
0.399999
  0
VERTEX
  8
TOPPASTE
 10
2.253798
 20
-15.986798
 42
1.0
  0
VERTEX
  8
TOPPASTE
 10
2.653797
 20
-15.986798
 42
1.0
  0
SEQEND
  8
0
  0
POLYLINE
  8
TOPPASTE
 66
     1
 70
     1
 40
0.399999
 41
0.399999
  0
VERTEX
  8
TOPPASTE
 10
2.253798
 20
-14.086802
 42
1.0
  0
VERTEX
  8
TOPPASTE
 10
2.653797
 20
-14.086802
 42
1.0
  0
SEQEND
  8
0
  0
POLYLINE
  8
TOPSOLDER
 66
     1
 40
1.003201
 41
1.003201
  0
VERTEX
  8
TOPSOLDER
 10
2.453797
 20
-15.986798
  0
VERTEX
  8
TOPSOLDER
 10
2.453797
 20
-14.086802
  0
SEQEND
  8
0
  0
POLYLINE
  8
TOPSOLDER
 66
     1
 70
     1
 40
0.501599
 41
0.501599
  0
VERTEX
  8
TOPSOLDER
 10
2.202998
 20
-15.986798
 42
1.0
  0
VERTEX
  8
TOPSOLDER
 10
2.704597
 20
-15.986798
 42
1.0
  0
SEQEND
  8
0
  0
POLYLINE
  8
TOPSOLDER
 66
     1
 70
     1
 40
0.501599
 41
0.501599
  0
VERTEX
  8
TOPSOLDER
 10
2.202998
 20
-14.086802
 42
1.0
  0
VERTEX
  8
TOPSOLDER
 10
2.704597
 20
-14.086802
 42
1.0
  0
SEQEND
  8
0
  0
POLYLINE
  8
TOPLAYER
 66
     1
 40
0.800001
 41
0.800001
  0
VERTEX
  8
TOPLAYER
 10
3.723795
 20
-15.986798
  0
VERTEX
  8
TOPLAYER
 10
3.723795
 20
-14.086802
  0
SEQEND
  8
0
  0
POLYLINE
  8
TOPLAYER
 66
     1
 70
     1
 40
0.399999
 41
0.399999
  0
VERTEX
  8
TOPLAYER
 10
3.523795
 20
-15.986798
 42
1.0
  0
VERTEX
  8
TOPLAYER
 10
3.923795
 20
-15.986798
 42
1.0
  0
SEQEND
  8
0
  0
POLYLINE
  8
TOPLAYER
 66
     1
 70
     1
 40
0.399999
 41
0.399999
  0
VERTEX
  8
TOPLAYER
 10
3.523795
 20
-14.086802
 42
1.0
  0
VERTEX
  8
TOPLAYER
 10
3.923795
 20
-14.086802
 42
1.0
  0
SEQEND
  8
0
  0
POLYLINE
  8
TOPPASTE
 66
     1
 40
0.800001
 41
0.800001
  0
VERTEX
  8
TOPPASTE
 10
3.723795
 20
-15.986798
  0
VERTEX
  8
TOPPASTE
 10
3.723795
 20
-14.086802
  0
SEQEND
  8
0
  0
POLYLINE
  8
TOPPASTE
 66
     1
 70
     1
 40
0.399999
 41
0.399999
  0
VERTEX
  8
TOPPASTE
 10
3.523795
 20
-15.986798
 42
1.0
  0
VERTEX
  8
TOPPASTE
 10
3.923795
 20
-15.986798
 42
1.0
  0
SEQEND
  8
0
  0
POLYLINE
  8
TOPPASTE
 66
     1
 70
     1
 40
0.399999
 41
0.399999
  0
VERTEX
  8
TOPPASTE
 10
3.523795
 20
-14.086802
 42
1.0
  0
VERTEX
  8
TOPPASTE
 10
3.923795
 20
-14.086802
 42
1.0
  0
SEQEND
  8
0
  0
POLYLINE
  8
TOPSOLDER
 66
     1
 40
1.003201
 41
1.003201
  0
VERTEX
  8
TOPSOLDER
 10
3.723795
 20
-15.986798
  0
VERTEX
  8
TOPSOLDER
 10
3.723795
 20
-14.086802
  0
SEQEND
  8
0
  0
POLYLINE
  8
TOPSOLDER
 66
     1
 70
     1
 40
0.501599
 41
0.501599
  0
VERTEX
  8
TOPSOLDER
 10
3.472995
 20
-15.986798
 42
1.0
  0
VERTEX
  8
TOPSOLDER
 10
3.974595
 20
-15.986798
 42
1.0
  0
SEQEND
  8
0
  0
POLYLINE
  8
TOPSOLDER
 66
     1
 70
     1
 40
0.501599
 41
0.501599
  0
VERTEX
  8
TOPSOLDER
 10
3.472995
 20
-14.086802
 42
1.0
  0
VERTEX
  8
TOPSOLDER
 10
3.974595
 20
-14.086802
 42
1.0
  0
SEQEND
  8
0
  0
POLYLINE
  8
TOPLAYER
 66
     1
 40
0.800001
 41
0.800001
  0
VERTEX
  8
TOPLAYER
 10
4.993792
 20
-15.986798
  0
VERTEX
  8
TOPLAYER
 10
4.993792
 20
-14.086802
  0
SEQEND
  8
0
  0
POLYLINE
  8
TOPLAYER
 66
     1
 70
     1
 40
0.399999
 41
0.399999
  0
VERTEX
  8
TOPLAYER
 10
4.793793
 20
-15.986798
 42
1.0
  0
VERTEX
  8
TOPLAYER
 10
5.193792
 20
-15.986798
 42
1.0
  0
SEQEND
  8
0
  0
POLYLINE
  8
TOPLAYER
 66
     1
 70
     1
 40
0.399999
 41
0.399999
  0
VERTEX
  8
TOPLAYER
 10
4.793793
 20
-14.086802
 42
1.0
  0
VERTEX
  8
TOPLAYER
 10
5.193792
 20
-14.086802
 42
1.0
  0
SEQEND
  8
0
  0
POLYLINE
  8
TOPPASTE
 66
     1
 40
0.800001
 41
0.800001
  0
VERTEX
  8
TOPPASTE
 10
4.993792
 20
-15.986798
  0
VERTEX
  8
TOPPASTE
 10
4.993792
 20
-14.086802
  0
SEQEND
  8
0
  0
POLYLINE
  8
TOPPASTE
 66
     1
 70
     1
 40
0.399999
 41
0.399999
  0
VERTEX
  8
TOPPASTE
 10
4.793793
 20
-15.986798
 42
1.0
  0
VERTEX
  8
TOPPASTE
 10
5.193792
 20
-15.986798
 42
1.0
  0
SEQEND
  8
0
  0
POLYLINE
  8
TOPPASTE
 66
     1
 70
     1
 40
0.399999
 41
0.399999
  0
VERTEX
  8
TOPPASTE
 10
4.793793
 20
-14.086802
 42
1.0
  0
VERTEX
  8
TOPPASTE
 10
5.193792
 20
-14.086802
 42
1.0
  0
SEQEND
  8
0
  0
POLYLINE
  8
TOPSOLDER
 66
     1
 40
1.003201
 41
1.003201
  0
VERTEX
  8
TOPSOLDER
 10
4.993792
 20
-15.986798
  0
VERTEX
  8
TOPSOLDER
 10
4.993792
 20
-14.086802
  0
SEQEND
  8
0
  0
POLYLINE
  8
TOPSOLDER
 66
     1
 70
     1
 40
0.501599
 41
0.501599
  0
VERTEX
  8
TOPSOLDER
 10
4.742993
 20
-15.986798
 42
1.0
  0
VERTEX
  8
TOPSOLDER
 10
5.244592
 20
-15.986798
 42
1.0
  0
SEQEND
  8
0
  0
POLYLINE
  8
TOPSOLDER
 66
     1
 70
     1
 40
0.501599
 41
0.501599
  0
VERTEX
  8
TOPSOLDER
 10
4.742993
 20
-14.086802
 42
1.0
  0
VERTEX
  8
TOPSOLDER
 10
5.244592
 20
-14.086802
 42
1.0
  0
SEQEND
  8
0
  0
POLYLINE
  8
TOPLAYER
 66
     1
 40
0.800001
 41
0.800001
  0
VERTEX
  8
TOPLAYER
 10
6.26379
 20
-15.986798
  0
VERTEX
  8
TOPLAYER
 10
6.26379
 20
-14.086802
  0
SEQEND
  8
0
  0
POLYLINE
  8
TOPLAYER
 66
     1
 70
     1
 40
0.399999
 41
0.399999
  0
VERTEX
  8
TOPLAYER
 10
6.06379
 20
-15.986798
 42
1.0
  0
VERTEX
  8
TOPLAYER
 10
6.463789
 20
-15.986798
 42
1.0
  0
SEQEND
  8
0
  0
POLYLINE
  8
TOPLAYER
 66
     1
 70
     1
 40
0.399999
 41
0.399999
  0
VERTEX
  8
TOPLAYER
 10
6.06379
 20
-14.086802
 42
1.0
  0
VERTEX
  8
TOPLAYER
 10
6.463789
 20
-14.086802
 42
1.0
  0
SEQEND
  8
0
  0
POLYLINE
  8
TOPPASTE
 66
     1
 40
0.800001
 41
0.800001
  0
VERTEX
  8
TOPPASTE
 10
6.26379
 20
-15.986798
  0
VERTEX
  8
TOPPASTE
 10
6.26379
 20
-14.086802
  0
SEQEND
  8
0
  0
POLYLINE
  8
TOPPASTE
 66
     1
 70
     1
 40
0.399999
 41
0.399999
  0
VERTEX
  8
TOPPASTE
 10
6.06379
 20
-15.986798
 42
1.0
  0
VERTEX
  8
TOPPASTE
 10
6.463789
 20
-15.986798
 42
1.0
  0
SEQEND
  8
0
  0
POLYLINE
  8
TOPPASTE
 66
     1
 70
     1
 40
0.399999
 41
0.399999
  0
VERTEX
  8
TOPPASTE
 10
6.06379
 20
-14.086802
 42
1.0
  0
VERTEX
  8
TOPPASTE
 10
6.463789
 20
-14.086802
 42
1.0
  0
SEQEND
  8
0
  0
POLYLINE
  8
TOPSOLDER
 66
     1
 40
1.003201
 41
1.003201
  0
VERTEX
  8
TOPSOLDER
 10
6.26379
 20
-15.986798
  0
VERTEX
  8
TOPSOLDER
 10
6.26379
 20
-14.086802
  0
SEQEND
  8
0
  0
POLYLINE
  8
TOPSOLDER
 66
     1
 70
     1
 40
0.501599
 41
0.501599
  0
VERTEX
  8
TOPSOLDER
 10
6.01299
 20
-15.986798
 42
1.0
  0
VERTEX
  8
TOPSOLDER
 10
6.514589
 20
-15.986798
 42
1.0
  0
SEQEND
  8
0
  0
POLYLINE
  8
TOPSOLDER
 66
     1
 70
     1
 40
0.501599
 41
0.501599
  0
VERTEX
  8
TOPSOLDER
 10
6.01299
 20
-14.086802
 42
1.0
  0
VERTEX
  8
TOPSOLDER
 10
6.514589
 20
-14.086802
 42
1.0
  0
SEQEND
  8
0
  0
POLYLINE
  8
TOPLAYER
 66
     1
 40
0.800001
 41
0.800001
  0
VERTEX
  8
TOPLAYER
 10
7.533787
 20
-15.986798
  0
VERTEX
  8
TOPLAYER
 10
7.533787
 20
-14.086802
  0
SEQEND
  8
0
  0
POLYLINE
  8
TOPLAYER
 66
     1
 70
     1
 40
0.399999
 41
0.399999
  0
VERTEX
  8
TOPLAYER
 10
7.333788
 20
-15.986798
 42
1.0
  0
VERTEX
  8
TOPLAYER
 10
7.733787
 20
-15.986798
 42
1.0
  0
SEQEND
  8
0
  0
POLYLINE
  8
TOPLAYER
 66
     1
 70
     1
 40
0.399999
 41
0.399999
  0
VERTEX
  8
TOPLAYER
 10
7.333788
 20
-14.086802
 42
1.0
  0
VERTEX
  8
TOPLAYER
 10
7.733787
 20
-14.086802
 42
1.0
  0
SEQEND
  8
0
  0
POLYLINE
  8
TOPPASTE
 66
     1
 40
0.800001
 41
0.800001
  0
VERTEX
  8
TOPPASTE
 10
7.533787
 20
-15.986798
  0
VERTEX
  8
TOPPASTE
 10
7.533787
 20
-14.086802
  0
SEQEND
  8
0
  0
POLYLINE
  8
TOPPASTE
 66
     1
 70
     1
 40
0.399999
 41
0.399999
  0
VERTEX
  8
TOPPASTE
 10
7.333788
 20
-15.986798
 42
1.0
  0
VERTEX
  8
TOPPASTE
 10
7.733787
 20
-15.986798
 42
1.0
  0
SEQEND
  8
0
  0
POLYLINE
  8
TOPPASTE
 66
     1
 70
     1
 40
0.399999
 41
0.399999
  0
VERTEX
  8
TOPPASTE
 10
7.333788
 20
-14.086802
 42
1.0
  0
VERTEX
  8
TOPPASTE
 10
7.733787
 20
-14.086802
 42
1.0
  0
SEQEND
  8
0
  0
POLYLINE
  8
TOPSOLDER
 66
     1
 40
1.003201
 41
1.003201
  0
VERTEX
  8
TOPSOLDER
 10
7.533787
 20
-15.986798
  0
VERTEX
  8
TOPSOLDER
 10
7.533787
 20
-14.086802
  0
SEQEND
  8
0
  0
POLYLINE
  8
TOPSOLDER
 66
     1
 70
     1
 40
0.501599
 41
0.501599
  0
VERTEX
  8
TOPSOLDER
 10
7.282988
 20
-15.986798
 42
1.0
  0
VERTEX
  8
TOPSOLDER
 10
7.784587
 20
-15.986798
 42
1.0
  0
SEQEND
  8
0
  0
POLYLINE
  8
TOPSOLDER
 66
     1
 70
     1
 40
0.501599
 41
0.501599
  0
VERTEX
  8
TOPSOLDER
 10
7.282988
 20
-14.086802
 42
1.0
  0
VERTEX
  8
TOPSOLDER
 10
7.784587
 20
-14.086802
 42
1.0
  0
SEQEND
  8
0
  0
POLYLINE
  8
TOPLAYER
 66
     1
 40
0.800001
 41
0.800001
  0
VERTEX
  8
TOPLAYER
 10
8.803785
 20
-15.986798
  0
VERTEX
  8
TOPLAYER
 10
8.803785
 20
-14.086802
  0
SEQEND
  8
0
  0
POLYLINE
  8
TOPLAYER
 66
     1
 70
     1
 40
0.399999
 41
0.399999
  0
VERTEX
  8
TOPLAYER
 10
8.603785
 20
-15.986798
 42
1.0
  0
VERTEX
  8
TOPLAYER
 10
9.003784
 20
-15.986798
 42
1.0
  0
SEQEND
  8
0
  0
POLYLINE
  8
TOPLAYER
 66
     1
 70
     1
 40
0.399999
 41
0.399999
  0
VERTEX
  8
TOPLAYER
 10
8.603785
 20
-14.086802
 42
1.0
  0
VERTEX
  8
TOPLAYER
 10
9.003784
 20
-14.086802
 42
1.0
  0
SEQEND
  8
0
  0
POLYLINE
  8
TOPPASTE
 66
     1
 40
0.800001
 41
0.800001
  0
VERTEX
  8
TOPPASTE
 10
8.803785
 20
-15.986798
  0
VERTEX
  8
TOPPASTE
 10
8.803785
 20
-14.086802
  0
SEQEND
  8
0
  0
POLYLINE
  8
TOPPASTE
 66
     1
 70
     1
 40
0.399999
 41
0.399999
  0
VERTEX
  8
TOPPASTE
 10
8.603785
 20
-15.986798
 42
1.0
  0
VERTEX
  8
TOPPASTE
 10
9.003784
 20
-15.986798
 42
1.0
  0
SEQEND
  8
0
  0
POLYLINE
  8
TOPPASTE
 66
     1
 70
     1
 40
0.399999
 41
0.399999
  0
VERTEX
  8
TOPPASTE
 10
8.603785
 20
-14.086802
 42
1.0
  0
VERTEX
  8
TOPPASTE
 10
9.003784
 20
-14.086802
 42
1.0
  0
SEQEND
  8
0
  0
POLYLINE
  8
TOPSOLDER
 66
     1
 40
1.003201
 41
1.003201
  0
VERTEX
  8
TOPSOLDER
 10
8.803785
 20
-15.986798
  0
VERTEX
  8
TOPSOLDER
 10
8.803785
 20
-14.086802
  0
SEQEND
  8
0
  0
POLYLINE
  8
TOPSOLDER
 66
     1
 70
     1
 40
0.501599
 41
0.501599
  0
VERTEX
  8
TOPSOLDER
 10
8.552985
 20
-15.986798
 42
1.0
  0
VERTEX
  8
TOPSOLDER
 10
9.054584
 20
-15.986798
 42
1.0
  0
SEQEND
  8
0
  0
POLYLINE
  8
TOPSOLDER
 66
     1
 70
     1
 40
0.501599
 41
0.501599
  0
VERTEX
  8
TOPSOLDER
 10
8.552985
 20
-14.086802
 42
1.0
  0
VERTEX
  8
TOPSOLDER
 10
9.054584
 20
-14.086802
 42
1.0
  0
SEQEND
  8
0
  0
POLYLINE
  8
TOPLAYER
 66
     1
 40
0.800001
 41
0.800001
  0
VERTEX
  8
TOPLAYER
 10
10.073782
 20
-15.986798
  0
VERTEX
  8
TOPLAYER
 10
10.073782
 20
-14.086802
  0
SEQEND
  8
0
  0
POLYLINE
  8
TOPLAYER
 66
     1
 70
     1
 40
0.399999
 41
0.399999
  0
VERTEX
  8
TOPLAYER
 10
9.873783
 20
-15.986798
 42
1.0
  0
VERTEX
  8
TOPLAYER
 10
10.273782
 20
-15.986798
 42
1.0
  0
SEQEND
  8
0
  0
POLYLINE
  8
TOPLAYER
 66
     1
 70
     1
 40
0.399999
 41
0.399999
  0
VERTEX
  8
TOPLAYER
 10
9.873783
 20
-14.086802
 42
1.0
  0
VERTEX
  8
TOPLAYER
 10
10.273782
 20
-14.086802
 42
1.0
  0
SEQEND
  8
0
  0
POLYLINE
  8
TOPPASTE
 66
     1
 40
0.800001
 41
0.800001
  0
VERTEX
  8
TOPPASTE
 10
10.073782
 20
-15.986798
  0
VERTEX
  8
TOPPASTE
 10
10.073782
 20
-14.086802
  0
SEQEND
  8
0
  0
POLYLINE
  8
TOPPASTE
 66
     1
 70
     1
 40
0.399999
 41
0.399999
  0
VERTEX
  8
TOPPASTE
 10
9.873783
 20
-15.986798
 42
1.0
  0
VERTEX
  8
TOPPASTE
 10
10.273782
 20
-15.986798
 42
1.0
  0
SEQEND
  8
0
  0
POLYLINE
  8
TOPPASTE
 66
     1
 70
     1
 40
0.399999
 41
0.399999
  0
VERTEX
  8
TOPPASTE
 10
9.873783
 20
-14.086802
 42
1.0
  0
VERTEX
  8
TOPPASTE
 10
10.273782
 20
-14.086802
 42
1.0
  0
SEQEND
  8
0
  0
POLYLINE
  8
TOPSOLDER
 66
     1
 40
1.003201
 41
1.003201
  0
VERTEX
  8
TOPSOLDER
 10
10.073782
 20
-15.986798
  0
VERTEX
  8
TOPSOLDER
 10
10.073782
 20
-14.086802
  0
SEQEND
  8
0
  0
POLYLINE
  8
TOPSOLDER
 66
     1
 70
     1
 40
0.501599
 41
0.501599
  0
VERTEX
  8
TOPSOLDER
 10
9.822983
 20
-15.986798
 42
1.0
  0
VERTEX
  8
TOPSOLDER
 10
10.324582
 20
-15.986798
 42
1.0
  0
SEQEND
  8
0
  0
POLYLINE
  8
TOPSOLDER
 66
     1
 70
     1
 40
0.501599
 41
0.501599
  0
VERTEX
  8
TOPSOLDER
 10
9.822983
 20
-14.086802
 42
1.0
  0
VERTEX
  8
TOPSOLDER
 10
10.324582
 20
-14.086802
 42
1.0
  0
SEQEND
  8
0
  0
POLYLINE
  8
TOPLAYER
 66
     1
 40
0.800001
 41
0.800001
  0
VERTEX
  8
TOPLAYER
 10
11.34378
 20
-15.986798
  0
VERTEX
  8
TOPLAYER
 10
11.34378
 20
-14.086802
  0
SEQEND
  8
0
  0
POLYLINE
  8
TOPLAYER
 66
     1
 70
     1
 40
0.399999
 41
0.399999
  0
VERTEX
  8
TOPLAYER
 10
11.14378
 20
-15.986798
 42
1.0
  0
VERTEX
  8
TOPLAYER
 10
11.543779
 20
-15.986798
 42
1.0
  0
SEQEND
  8
0
  0
POLYLINE
  8
TOPLAYER
 66
     1
 70
     1
 40
0.399999
 41
0.399999
  0
VERTEX
  8
TOPLAYER
 10
11.14378
 20
-14.086802
 42
1.0
  0
VERTEX
  8
TOPLAYER
 10
11.543779
 20
-14.086802
 42
1.0
  0
SEQEND
  8
0
  0
POLYLINE
  8
TOPPASTE
 66
     1
 40
0.800001
 41
0.800001
  0
VERTEX
  8
TOPPASTE
 10
11.34378
 20
-15.986798
  0
VERTEX
  8
TOPPASTE
 10
11.34378
 20
-14.086802
  0
SEQEND
  8
0
  0
POLYLINE
  8
TOPPASTE
 66
     1
 70
     1
 40
0.399999
 41
0.399999
  0
VERTEX
  8
TOPPASTE
 10
11.14378
 20
-15.986798
 42
1.0
  0
VERTEX
  8
TOPPASTE
 10
11.543779
 20
-15.986798
 42
1.0
  0
SEQEND
  8
0
  0
POLYLINE
  8
TOPPASTE
 66
     1
 70
     1
 40
0.399999
 41
0.399999
  0
VERTEX
  8
TOPPASTE
 10
11.14378
 20
-14.086802
 42
1.0
  0
VERTEX
  8
TOPPASTE
 10
11.543779
 20
-14.086802
 42
1.0
  0
SEQEND
  8
0
  0
POLYLINE
  8
TOPSOLDER
 66
     1
 40
1.003201
 41
1.003201
  0
VERTEX
  8
TOPSOLDER
 10
11.34378
 20
-15.986798
  0
VERTEX
  8
TOPSOLDER
 10
11.34378
 20
-14.086802
  0
SEQEND
  8
0
  0
POLYLINE
  8
TOPSOLDER
 66
     1
 70
     1
 40
0.501599
 41
0.501599
  0
VERTEX
  8
TOPSOLDER
 10
11.09298
 20
-15.986798
 42
1.0
  0
VERTEX
  8
TOPSOLDER
 10
11.594579
 20
-15.986798
 42
1.0
  0
SEQEND
  8
0
  0
POLYLINE
  8
TOPSOLDER
 66
     1
 70
     1
 40
0.501599
 41
0.501599
  0
VERTEX
  8
TOPSOLDER
 10
11.09298
 20
-14.086802
 42
1.0
  0
VERTEX
  8
TOPSOLDER
 10
11.594579
 20
-14.086802
 42
1.0
  0
SEQEND
  8
0
  0
POLYLINE
  8
TOPLAYER
 66
     1
 40
0.800001
 41
0.800001
  0
VERTEX
  8
TOPLAYER
 10
12.613777
 20
-15.986798
  0
VERTEX
  8
TOPLAYER
 10
12.613777
 20
-14.086802
  0
SEQEND
  8
0
  0
POLYLINE
  8
TOPLAYER
 66
     1
 70
     1
 40
0.399999
 41
0.399999
  0
VERTEX
  8
TOPLAYER
 10
12.413778
 20
-15.986798
 42
1.0
  0
VERTEX
  8
TOPLAYER
 10
12.813777
 20
-15.986798
 42
1.0
  0
SEQEND
  8
0
  0
POLYLINE
  8
TOPLAYER
 66
     1
 70
     1
 40
0.399999
 41
0.399999
  0
VERTEX
  8
TOPLAYER
 10
12.413778
 20
-14.086802
 42
1.0
  0
VERTEX
  8
TOPLAYER
 10
12.813777
 20
-14.086802
 42
1.0
  0
SEQEND
  8
0
  0
POLYLINE
  8
TOPPASTE
 66
     1
 40
0.800001
 41
0.800001
  0
VERTEX
  8
TOPPASTE
 10
12.613777
 20
-15.986798
  0
VERTEX
  8
TOPPASTE
 10
12.613777
 20
-14.086802
  0
SEQEND
  8
0
  0
POLYLINE
  8
TOPPASTE
 66
     1
 70
     1
 40
0.399999
 41
0.399999
  0
VERTEX
  8
TOPPASTE
 10
12.413778
 20
-15.986798
 42
1.0
  0
VERTEX
  8
TOPPASTE
 10
12.813777
 20
-15.986798
 42
1.0
  0
SEQEND
  8
0
  0
POLYLINE
  8
TOPPASTE
 66
     1
 70
     1
 40
0.399999
 41
0.399999
  0
VERTEX
  8
TOPPASTE
 10
12.413778
 20
-14.086802
 42
1.0
  0
VERTEX
  8
TOPPASTE
 10
12.813777
 20
-14.086802
 42
1.0
  0
SEQEND
  8
0
  0
POLYLINE
  8
TOPSOLDER
 66
     1
 40
1.003201
 41
1.003201
  0
VERTEX
  8
TOPSOLDER
 10
12.613777
 20
-15.986798
  0
VERTEX
  8
TOPSOLDER
 10
12.613777
 20
-14.086802
  0
SEQEND
  8
0
  0
POLYLINE
  8
TOPSOLDER
 66
     1
 70
     1
 40
0.501599
 41
0.501599
  0
VERTEX
  8
TOPSOLDER
 10
12.362978
 20
-15.986798
 42
1.0
  0
VERTEX
  8
TOPSOLDER
 10
12.864577
 20
-15.986798
 42
1.0
  0
SEQEND
  8
0
  0
POLYLINE
  8
TOPSOLDER
 66
     1
 70
     1
 40
0.501599
 41
0.501599
  0
VERTEX
  8
TOPSOLDER
 10
12.362978
 20
-14.086802
 42
1.0
  0
VERTEX
  8
TOPSOLDER
 10
12.864577
 20
-14.086802
 42
1.0
  0
SEQEND
  8
0
  0
POLYLINE
  8
TOPLAYER
 66
     1
 40
0.800001
 41
0.800001
  0
VERTEX
  8
TOPLAYER
 10
13.883775
 20
-15.986798
  0
VERTEX
  8
TOPLAYER
 10
13.883775
 20
-14.086802
  0
SEQEND
  8
0
  0
POLYLINE
  8
TOPLAYER
 66
     1
 70
     1
 40
0.399999
 41
0.399999
  0
VERTEX
  8
TOPLAYER
 10
13.683775
 20
-15.986798
 42
1.0
  0
VERTEX
  8
TOPLAYER
 10
14.083774
 20
-15.986798
 42
1.0
  0
SEQEND
  8
0
  0
POLYLINE
  8
TOPLAYER
 66
     1
 70
     1
 40
0.399999
 41
0.399999
  0
VERTEX
  8
TOPLAYER
 10
13.683775
 20
-14.086802
 42
1.0
  0
VERTEX
  8
TOPLAYER
 10
14.083774
 20
-14.086802
 42
1.0
  0
SEQEND
  8
0
  0
POLYLINE
  8
TOPPASTE
 66
     1
 40
0.800001
 41
0.800001
  0
VERTEX
  8
TOPPASTE
 10
13.883775
 20
-15.986798
  0
VERTEX
  8
TOPPASTE
 10
13.883775
 20
-14.086802
  0
SEQEND
  8
0
  0
POLYLINE
  8
TOPPASTE
 66
     1
 70
     1
 40
0.399999
 41
0.399999
  0
VERTEX
  8
TOPPASTE
 10
13.683775
 20
-15.986798
 42
1.0
  0
VERTEX
  8
TOPPASTE
 10
14.083774
 20
-15.986798
 42
1.0
  0
SEQEND
  8
0
  0
POLYLINE
  8
TOPPASTE
 66
     1
 70
     1
 40
0.399999
 41
0.399999
  0
VERTEX
  8
TOPPASTE
 10
13.683775
 20
-14.086802
 42
1.0
  0
VERTEX
  8
TOPPASTE
 10
14.083774
 20
-14.086802
 42
1.0
  0
SEQEND
  8
0
  0
POLYLINE
  8
TOPSOLDER
 66
     1
 40
1.003201
 41
1.003201
  0
VERTEX
  8
TOPSOLDER
 10
13.883775
 20
-15.986798
  0
VERTEX
  8
TOPSOLDER
 10
13.883775
 20
-14.086802
  0
SEQEND
  8
0
  0
POLYLINE
  8
TOPSOLDER
 66
     1
 70
     1
 40
0.501599
 41
0.501599
  0
VERTEX
  8
TOPSOLDER
 10
13.632975
 20
-15.986798
 42
1.0
  0
VERTEX
  8
TOPSOLDER
 10
14.134574
 20
-15.986798
 42
1.0
  0
SEQEND
  8
0
  0
POLYLINE
  8
TOPSOLDER
 66
     1
 70
     1
 40
0.501599
 41
0.501599
  0
VERTEX
  8
TOPSOLDER
 10
13.632975
 20
-14.086802
 42
1.0
  0
VERTEX
  8
TOPSOLDER
 10
14.134574
 20
-14.086802
 42
1.0
  0
SEQEND
  8
0
  0
ENDBLK
  8
0
  0
ENDSEC
  0
SECTION
  2
ENTITIES
  0
INSERT
  8
0
  2
PCBC_________1_1
 10
99.06
 20
62.992
 50
360.0
  0
ENDSEC
  0
EOF
