%FSLAX25Y25*%
%MOIN*%
G70*
G01*
G75*
G04 Layer_Color=8388736*
%ADD10R,0.10000X0.07500*%
%ADD11R,0.03937X0.05118*%
%ADD12R,0.02362X0.03937*%
%ADD13R,0.02559X0.05315*%
%ADD14R,0.03937X0.02362*%
%ADD15O,0.03543X0.01969*%
%ADD16R,0.03543X0.01969*%
%ADD17O,0.03543X0.01969*%
%ADD18R,0.05000X0.06000*%
%ADD19O,0.09843X0.05906*%
%ADD20R,0.08661X0.07087*%
%ADD21R,0.09843X0.15748*%
%ADD22O,0.05906X0.03150*%
%ADD23R,0.04000X0.01969*%
%ADD24R,0.08000X0.02400*%
%ADD25O,0.08000X0.02400*%
%ADD26R,0.09449X0.08268*%
%ADD27O,0.00984X0.04724*%
%ADD28O,0.04724X0.00984*%
%ADD29O,0.04724X0.01772*%
%ADD30O,0.01772X0.04724*%
%ADD31R,0.04724X0.01772*%
%ADD32R,0.14410X0.09843*%
%ADD33R,0.14410X0.07874*%
%ADD34R,0.01969X0.06299*%
%ADD35R,0.03543X0.02126*%
%ADD36R,0.05118X0.03937*%
%ADD37R,0.09843X0.14410*%
%ADD38R,0.07874X0.14410*%
%ADD39R,0.06299X0.01969*%
%ADD40R,0.02126X0.03543*%
%ADD41R,0.03347X0.02756*%
%ADD42R,0.10630X0.03937*%
%ADD43R,0.20866X0.11024*%
%ADD44R,0.03937X0.10630*%
%ADD45R,0.21654X0.05630*%
%ADD46C,0.00800*%
%ADD47C,0.10000*%
%ADD48C,0.05000*%
%ADD49C,0.01000*%
%ADD50C,0.03500*%
%ADD51C,0.06000*%
%ADD52C,0.02000*%
%ADD53C,0.03000*%
%ADD54C,0.01500*%
%ADD55C,0.01200*%
%ADD56C,0.04000*%
%ADD57C,0.08000*%
%ADD58R,0.10571X0.09351*%
%ADD59R,0.10871X0.13938*%
%ADD60R,0.06400X0.08900*%
%ADD61R,0.08600X0.43171*%
%ADD62R,0.10722X0.08773*%
%ADD63R,0.28371X0.07471*%
%ADD64R,0.07400X0.15300*%
%ADD65R,0.44271X0.07764*%
%ADD66R,0.12367X0.05271*%
%ADD67R,0.10200X0.04900*%
%ADD68R,0.04000X0.18600*%
%ADD69R,0.18900X0.05200*%
%ADD70R,0.07300X0.29900*%
%ADD71R,0.23600X0.17400*%
%ADD72R,0.25624X0.17093*%
%ADD73R,0.24100X0.17400*%
%ADD74R,0.50200X0.62200*%
%ADD75R,0.24300X1.56600*%
%ADD76O,0.06000X0.10000*%
%ADD77R,0.06000X0.10000*%
%ADD78C,0.05512*%
%ADD79C,0.06693*%
%ADD80C,0.06000*%
%ADD81O,0.05906X0.09843*%
%ADD82R,0.05906X0.09843*%
%ADD83O,0.07874X0.15748*%
%ADD84C,0.05906*%
%ADD85R,0.05906X0.05906*%
%ADD86R,0.05906X0.05906*%
%ADD87C,0.05500*%
%ADD88O,0.09843X0.11811*%
%ADD89R,0.09843X0.11811*%
%ADD90O,0.11811X0.09843*%
%ADD91R,0.11811X0.09843*%
%ADD92C,0.03000*%
%ADD93C,0.02000*%
%ADD94C,0.04000*%
%ADD95C,0.05000*%
%ADD96R,0.05512X0.07087*%
%ADD97R,0.02756X0.03347*%
%ADD98R,0.13386X0.07087*%
%ADD99O,0.02756X0.01181*%
%ADD100O,0.01181X0.02756*%
%ADD101R,0.09100X0.04600*%
%ADD102R,0.04000X0.22000*%
%ADD103R,0.18000X0.06400*%
%ADD104R,0.05200X0.25200*%
%ADD105R,0.50100X0.62100*%
%ADD106R,0.24600X1.31200*%
%ADD107R,0.18400X0.60700*%
%ADD108R,0.46600X0.21200*%
%ADD109C,0.00500*%
%ADD110C,0.00394*%
%ADD111C,0.00787*%
%ADD112C,0.00591*%
%ADD113R,0.04724X0.02756*%
%ADD114R,0.01968X0.03543*%
%ADD115R,0.23900X1.76759*%
%ADD116R,0.10800X0.08300*%
%ADD117R,0.04737X0.05918*%
%ADD118R,0.03162X0.04737*%
%ADD119R,0.03359X0.06115*%
%ADD120R,0.04737X0.03162*%
%ADD121O,0.04343X0.02769*%
%ADD122R,0.04343X0.02769*%
%ADD123O,0.04343X0.02769*%
%ADD124R,0.05800X0.06800*%
%ADD125O,0.10642X0.06706*%
%ADD126R,0.09461X0.07887*%
%ADD127R,0.10642X0.16548*%
%ADD128O,0.06706X0.03950*%
%ADD129R,0.04800X0.02769*%
%ADD130R,0.08800X0.03200*%
%ADD131O,0.08800X0.03200*%
%ADD132R,0.10249X0.09068*%
%ADD133O,0.01784X0.05524*%
%ADD134O,0.05524X0.01784*%
%ADD135O,0.05524X0.02572*%
%ADD136O,0.02572X0.05524*%
%ADD137R,0.05524X0.02572*%
%ADD138R,0.15210X0.10642*%
%ADD139R,0.15210X0.08674*%
%ADD140R,0.02769X0.07099*%
%ADD141R,0.04343X0.02926*%
%ADD142R,0.05918X0.04737*%
%ADD143R,0.10642X0.15210*%
%ADD144R,0.08674X0.15210*%
%ADD145R,0.07099X0.02769*%
%ADD146R,0.02926X0.04343*%
%ADD147R,0.04147X0.03556*%
%ADD148R,0.11430X0.04737*%
%ADD149R,0.21666X0.11824*%
%ADD150R,0.04737X0.11430*%
%ADD151R,0.22453X0.06430*%
%ADD152O,0.06800X0.10800*%
%ADD153R,0.06800X0.10800*%
%ADD154C,0.06312*%
%ADD155C,0.07493*%
%ADD156C,0.06800*%
%ADD157O,0.06706X0.10642*%
%ADD158R,0.06706X0.10642*%
%ADD159O,0.08674X0.16548*%
%ADD160C,0.06706*%
%ADD161R,0.06706X0.06706*%
%ADD162R,0.06706X0.06706*%
%ADD163C,0.06300*%
%ADD164O,0.10642X0.12611*%
%ADD165R,0.10642X0.12611*%
%ADD166O,0.12611X0.10642*%
%ADD167R,0.12611X0.10642*%
%ADD168C,0.05800*%
D49*
X311024Y-393701D02*
Y0D01*
X-82677Y-393701D02*
X311024D01*
X-82677D02*
Y0D01*
X311024D01*
D115*
X297450Y-291221D02*
D03*
D116*
X177500Y-359900D02*
D03*
Y-377400D02*
D03*
X27000Y-359200D02*
D03*
Y-376700D02*
D03*
X128497Y-359100D02*
D03*
Y-376600D02*
D03*
X78349Y-359100D02*
D03*
Y-376600D02*
D03*
D117*
X105100Y-224000D02*
D03*
X97226D02*
D03*
X105000Y-232900D02*
D03*
X97126D02*
D03*
X61000Y-97500D02*
D03*
X53126D02*
D03*
X182300Y-210600D02*
D03*
X174426D02*
D03*
X94600Y-200200D02*
D03*
X102474D02*
D03*
X94700Y-191762D02*
D03*
X102574D02*
D03*
X94700Y-174762D02*
D03*
X102574D02*
D03*
X31526Y-38200D02*
D03*
X39400D02*
D03*
X102574Y-208100D02*
D03*
X94700D02*
D03*
X-39374Y-37000D02*
D03*
X-31500D02*
D03*
X183674Y-230800D02*
D03*
X175800D02*
D03*
X151826Y-227900D02*
D03*
X159700D02*
D03*
X129626Y-227800D02*
D03*
X137500D02*
D03*
X183174Y-221800D02*
D03*
X175300D02*
D03*
X151826Y-235974D02*
D03*
X159700D02*
D03*
X129926D02*
D03*
X137800D02*
D03*
D118*
X-36474Y-185000D02*
D03*
X-32537Y-194843D02*
D03*
X-28600Y-185000D02*
D03*
D119*
X31400Y-47200D02*
D03*
X40849D02*
D03*
X-39500Y-46500D02*
D03*
X-30051D02*
D03*
D120*
X76500Y-62800D02*
D03*
X66658Y-58863D02*
D03*
X76500Y-54926D02*
D03*
X135500Y-69500D02*
D03*
X125657Y-65563D02*
D03*
X135500Y-61626D02*
D03*
D121*
X272411Y-50480D02*
D03*
X260600Y-46740D02*
D03*
Y-50480D02*
D03*
D122*
Y-43000D02*
D03*
D123*
X272411D02*
D03*
D124*
X233000Y-47200D02*
D03*
Y-38200D02*
D03*
D125*
X52506Y-336655D02*
D03*
Y-318545D02*
D03*
X105206Y-336855D02*
D03*
Y-318745D02*
D03*
X157006Y-335955D02*
D03*
Y-317845D02*
D03*
D126*
X28294Y-332521D02*
D03*
X28294Y-322679D02*
D03*
X80994Y-332721D02*
D03*
X80994Y-322879D02*
D03*
X132794Y-331821D02*
D03*
X132794Y-321979D02*
D03*
D127*
X14120Y-327600D02*
D03*
X66820Y-327800D02*
D03*
X118620Y-326900D02*
D03*
D128*
X83400Y-91960D02*
D03*
X93400Y-88220D02*
D03*
Y-95700D02*
D03*
X103300Y-91960D02*
D03*
X113300Y-88220D02*
D03*
Y-95700D02*
D03*
X121800Y-91960D02*
D03*
X131800Y-88220D02*
D03*
Y-95700D02*
D03*
X142200Y-91960D02*
D03*
X152200Y-88220D02*
D03*
Y-95700D02*
D03*
D129*
X93745Y-122605D02*
D03*
X100745D02*
D03*
X93745Y-119455D02*
D03*
X100745D02*
D03*
X93745Y-116306D02*
D03*
X100745D02*
D03*
X93745Y-113156D02*
D03*
X100745D02*
D03*
X94245Y-136605D02*
D03*
X101245D02*
D03*
X94245Y-133455D02*
D03*
X101245D02*
D03*
X94245Y-130306D02*
D03*
X101245D02*
D03*
X94245Y-127156D02*
D03*
X101245D02*
D03*
D130*
X72200Y-141300D02*
D03*
D131*
Y-136300D02*
D03*
Y-131300D02*
D03*
Y-126300D02*
D03*
Y-121300D02*
D03*
Y-116300D02*
D03*
Y-111300D02*
D03*
Y-106300D02*
D03*
X45200D02*
D03*
Y-111300D02*
D03*
Y-116300D02*
D03*
Y-121300D02*
D03*
Y-126300D02*
D03*
Y-131300D02*
D03*
Y-136300D02*
D03*
Y-141300D02*
D03*
D132*
X117200Y-174994D02*
D03*
Y-191530D02*
D03*
D133*
X158295Y-199075D02*
D03*
X166169D02*
D03*
X160264D02*
D03*
X164201D02*
D03*
X162232D02*
D03*
X170106D02*
D03*
X164201Y-163642D02*
D03*
X172075D02*
D03*
X156327Y-199075D02*
D03*
X168138D02*
D03*
X170106Y-163642D02*
D03*
X168138D02*
D03*
X166169D02*
D03*
X162232D02*
D03*
X160264D02*
D03*
X158295D02*
D03*
X156327D02*
D03*
X154358D02*
D03*
Y-199075D02*
D03*
X172075D02*
D03*
D134*
X145500Y-188248D02*
D03*
Y-178405D02*
D03*
Y-184311D02*
D03*
Y-190217D02*
D03*
Y-180374D02*
D03*
Y-174469D02*
D03*
X180933Y-182343D02*
D03*
Y-186279D02*
D03*
Y-188248D02*
D03*
X145500Y-172500D02*
D03*
X180933D02*
D03*
X145500Y-182343D02*
D03*
Y-176437D02*
D03*
X180933Y-190217D02*
D03*
Y-180374D02*
D03*
Y-176437D02*
D03*
Y-178405D02*
D03*
Y-184311D02*
D03*
X180933Y-174469D02*
D03*
X145500Y-186279D02*
D03*
D135*
Y-192579D02*
D03*
X180933D02*
D03*
Y-170138D02*
D03*
D136*
X151996Y-199075D02*
D03*
X174437Y-163642D02*
D03*
X151996D02*
D03*
X174437Y-199075D02*
D03*
D137*
X145500Y-170138D02*
D03*
D138*
X91072Y-285641D02*
D03*
X235972Y-326941D02*
D03*
X184172Y-247441D02*
D03*
X187528Y-295459D02*
D03*
D139*
X91072Y-293883D02*
D03*
X235972Y-335183D02*
D03*
X184172Y-255683D02*
D03*
X187528Y-287217D02*
D03*
D140*
X95108Y-281388D02*
D03*
Y-297136D02*
D03*
X240008Y-322688D02*
D03*
Y-338436D02*
D03*
X188208Y-243188D02*
D03*
Y-258936D02*
D03*
X183492Y-299712D02*
D03*
Y-283964D02*
D03*
D141*
X104360Y-291762D02*
D03*
X82322D02*
D03*
X104360Y-281762D02*
D03*
Y-286762D02*
D03*
X82322Y-281762D02*
D03*
X104360Y-296762D02*
D03*
X82322D02*
D03*
Y-286762D02*
D03*
X249260Y-333062D02*
D03*
X227222D02*
D03*
X249260Y-323062D02*
D03*
Y-328062D02*
D03*
X227222Y-323062D02*
D03*
X249260Y-338062D02*
D03*
X227222D02*
D03*
Y-328062D02*
D03*
X197460Y-253562D02*
D03*
X175422D02*
D03*
X197460Y-243562D02*
D03*
Y-248562D02*
D03*
X175422Y-243562D02*
D03*
X197460Y-258562D02*
D03*
X175422D02*
D03*
Y-248562D02*
D03*
X174240Y-289338D02*
D03*
X196278D02*
D03*
X174240Y-299338D02*
D03*
Y-294338D02*
D03*
X196278Y-299338D02*
D03*
X174240Y-284338D02*
D03*
X196278D02*
D03*
Y-294338D02*
D03*
D142*
X-51600Y-38700D02*
D03*
Y-46574D02*
D03*
X190100Y-162200D02*
D03*
Y-170074D02*
D03*
X135000Y-162000D02*
D03*
Y-169874D02*
D03*
X137000Y-210000D02*
D03*
Y-202126D02*
D03*
X129700Y-179388D02*
D03*
Y-187262D02*
D03*
X107750Y-44274D02*
D03*
Y-36400D02*
D03*
X87725Y-44274D02*
D03*
Y-36400D02*
D03*
X166800Y-148174D02*
D03*
Y-140300D02*
D03*
X15600Y-120926D02*
D03*
Y-128800D02*
D03*
X174600Y-148174D02*
D03*
Y-140300D02*
D03*
X67700Y-44274D02*
D03*
Y-36400D02*
D03*
X175500Y-70026D02*
D03*
Y-77900D02*
D03*
X116000Y-70026D02*
D03*
Y-77900D02*
D03*
X145500Y-70026D02*
D03*
Y-77900D02*
D03*
X87163Y-69963D02*
D03*
Y-77837D02*
D03*
X159000Y-147974D02*
D03*
Y-140100D02*
D03*
X151100Y-140126D02*
D03*
Y-148000D02*
D03*
X127775Y-36400D02*
D03*
Y-44274D02*
D03*
X147800D02*
D03*
Y-36400D02*
D03*
D143*
X173857Y-329000D02*
D03*
D144*
X182100D02*
D03*
D145*
X169605Y-324965D02*
D03*
X185353D02*
D03*
D146*
X179979Y-315713D02*
D03*
Y-337750D02*
D03*
X169979Y-315713D02*
D03*
X174979D02*
D03*
X169979Y-337750D02*
D03*
X184979Y-315713D02*
D03*
Y-337750D02*
D03*
X174979D02*
D03*
D147*
X252092Y-48997D02*
D03*
Y-43092D02*
D03*
X279500Y-48906D02*
D03*
Y-43000D02*
D03*
X287500Y-43095D02*
D03*
Y-49000D02*
D03*
X245900Y-43095D02*
D03*
Y-49000D02*
D03*
D148*
X214800Y-316405D02*
D03*
Y-329200D02*
D03*
X69500Y-263795D02*
D03*
Y-251000D02*
D03*
X200800Y-316405D02*
D03*
Y-329200D02*
D03*
X224300Y-286005D02*
D03*
Y-298800D02*
D03*
X209400Y-285905D02*
D03*
Y-298700D02*
D03*
X238500Y-285705D02*
D03*
Y-298500D02*
D03*
D149*
X34100Y-290700D02*
D03*
Y-250936D02*
D03*
D150*
X133005Y-292700D02*
D03*
X145800D02*
D03*
X133205Y-305700D02*
D03*
X146000D02*
D03*
X132605Y-279200D02*
D03*
X145400D02*
D03*
D151*
X150100Y-251100D02*
D03*
Y-267005D02*
D03*
D152*
X206800Y-373300D02*
D03*
X57800Y-373350D02*
D03*
X107950D02*
D03*
X158100D02*
D03*
X-68200Y-378800D02*
D03*
X-68000Y-352300D02*
D03*
D153*
X196800Y-373300D02*
D03*
X47800Y-373350D02*
D03*
X97950D02*
D03*
X148100D02*
D03*
X-58200Y-378800D02*
D03*
X-58000Y-352300D02*
D03*
D154*
X-71195Y-196200D02*
D03*
X-21195D02*
D03*
X6700Y-261000D02*
D03*
Y-221000D02*
D03*
X-3600Y-261100D02*
D03*
Y-221100D02*
D03*
X-54300Y-127100D02*
D03*
Y-167100D02*
D03*
X-65200Y-127100D02*
D03*
Y-167100D02*
D03*
X-76000Y-126500D02*
D03*
Y-166500D02*
D03*
X-37100Y-265600D02*
D03*
X-77100D02*
D03*
X-45000Y-301300D02*
D03*
X-75000D02*
D03*
X-27000Y-138900D02*
D03*
Y-178900D02*
D03*
X-36800Y-283600D02*
D03*
X-76800D02*
D03*
D155*
X-73300Y-220700D02*
D03*
Y-230700D02*
D03*
Y-240700D02*
D03*
X-56100Y-221600D02*
D03*
Y-241285D02*
D03*
X-41700Y-221400D02*
D03*
Y-241085D02*
D03*
D156*
X66672Y-77837D02*
D03*
X77672D02*
D03*
X120649Y-103900D02*
D03*
X110649D02*
D03*
X100649D02*
D03*
X130649D02*
D03*
X90649D02*
D03*
X140649D02*
D03*
X120649Y-143900D02*
D03*
X110649D02*
D03*
X100649D02*
D03*
X90649D02*
D03*
X130649D02*
D03*
X140649D02*
D03*
X124940Y-77837D02*
D03*
X135940D02*
D03*
X95806D02*
D03*
X106806D02*
D03*
X154074D02*
D03*
X165074D02*
D03*
D157*
X127500Y-20700D02*
D03*
X137500D02*
D03*
X147500D02*
D03*
X157500D02*
D03*
X117500D02*
D03*
X107500D02*
D03*
X77500D02*
D03*
X97500D02*
D03*
X87500D02*
D03*
X255700D02*
D03*
X275700D02*
D03*
X265700D02*
D03*
X196300D02*
D03*
X216300D02*
D03*
X206300D02*
D03*
X-31500D02*
D03*
X-21500D02*
D03*
X-41500D02*
D03*
X28200D02*
D03*
X38200D02*
D03*
X18200D02*
D03*
D158*
X67500D02*
D03*
X245700D02*
D03*
X186300D02*
D03*
X-51500D02*
D03*
X8200D02*
D03*
D159*
X11364Y-356324D02*
D03*
X-40605D02*
D03*
D160*
X-841Y-345300D02*
D03*
X-10684D02*
D03*
X-18557D02*
D03*
X-28400D02*
D03*
X-44500Y-82300D02*
D03*
Y-92300D02*
D03*
Y-102300D02*
D03*
X-65100Y-181900D02*
D03*
X-55100D02*
D03*
X25000Y-131000D02*
D03*
Y-141000D02*
D03*
X-44300Y-139500D02*
D03*
Y-129500D02*
D03*
D161*
X-44500Y-112300D02*
D03*
X25000Y-121000D02*
D03*
X-44300Y-149500D02*
D03*
D162*
X-75100Y-181900D02*
D03*
D163*
X-68500Y-328000D02*
D03*
X-58500D02*
D03*
D164*
X294300Y-368000D02*
D03*
X249200Y-367800D02*
D03*
D165*
X278709Y-368000D02*
D03*
X233609Y-367800D02*
D03*
D166*
X-18898Y-228189D02*
D03*
Y-243780D02*
D03*
Y-274961D02*
D03*
Y-259370D02*
D03*
Y-321733D02*
D03*
Y-306142D02*
D03*
Y-290551D02*
D03*
X271654Y-243780D02*
D03*
Y-228189D02*
D03*
Y-212598D02*
D03*
Y-274961D02*
D03*
Y-259370D02*
D03*
Y-290551D02*
D03*
Y-306142D02*
D03*
D167*
X-18898Y-212598D02*
D03*
X271654Y-321733D02*
D03*
D168*
X175400Y-62900D02*
D03*
M02*
