%FSLAX25Y25*%
%MOIN*%
G70*
G01*
G75*
G04 Layer_Color=128*
%ADD10O,0.06299X0.01772*%
%ADD11R,0.08071X0.09055*%
%ADD12R,0.21654X0.25197*%
%ADD13R,0.03937X0.10827*%
%ADD14R,0.07087X0.03937*%
%ADD15R,0.15748X0.17716*%
%ADD16R,0.03937X0.05118*%
%ADD17R,0.02559X0.05315*%
%ADD18R,0.03937X0.02362*%
%ADD19O,0.03543X0.01969*%
%ADD20R,0.03543X0.01969*%
%ADD21O,0.03543X0.01969*%
%ADD22R,0.10000X0.07500*%
%ADD23R,0.05000X0.06000*%
%ADD24O,0.09843X0.05906*%
%ADD25R,0.08661X0.07087*%
%ADD26R,0.09843X0.15748*%
%ADD27O,0.05906X0.03150*%
%ADD28R,0.04000X0.01969*%
%ADD29R,0.08000X0.02400*%
%ADD30O,0.08000X0.02400*%
%ADD31R,0.09449X0.08268*%
%ADD32R,0.03347X0.02756*%
%ADD33R,0.03937X0.10630*%
%ADD34O,0.00984X0.04724*%
%ADD35O,0.04724X0.00984*%
%ADD36O,0.04724X0.01772*%
%ADD37O,0.01772X0.04724*%
%ADD38R,0.04724X0.01772*%
%ADD39R,0.14410X0.09843*%
%ADD40R,0.14410X0.07874*%
%ADD41R,0.01969X0.06299*%
%ADD42R,0.03543X0.02126*%
%ADD43R,0.07559X0.25590*%
%ADD44R,0.02756X0.03347*%
%ADD45R,0.05118X0.03937*%
%ADD46R,0.09843X0.14410*%
%ADD47R,0.07874X0.14410*%
%ADD48R,0.06299X0.01969*%
%ADD49R,0.02126X0.03543*%
%ADD50R,0.10630X0.03937*%
%ADD51R,0.17716X0.15748*%
%ADD52C,0.01200*%
%ADD53C,0.04000*%
%ADD54C,0.00800*%
%ADD55C,0.03000*%
%ADD56C,0.01000*%
%ADD57C,0.10000*%
%ADD58C,0.08000*%
%ADD59C,0.02000*%
%ADD60C,0.03500*%
%ADD61C,0.06000*%
%ADD62C,0.01500*%
%ADD63R,0.06100X0.05100*%
%ADD64R,0.08400X0.51300*%
%ADD65R,0.14738X0.06832*%
%ADD66R,0.06900X0.03700*%
%ADD67R,0.08000X0.44800*%
%ADD68R,0.05400X0.06100*%
%ADD69R,0.38500X0.08800*%
%ADD70R,0.09971X0.13838*%
%ADD71R,0.05300X0.18000*%
%ADD72R,0.23600X0.17400*%
%ADD73R,0.25624X0.17093*%
%ADD74R,0.24100X0.17400*%
%ADD75C,0.06693*%
%ADD76C,0.06000*%
%ADD77O,0.05906X0.09843*%
%ADD78R,0.05906X0.09843*%
%ADD79O,0.07874X0.15748*%
%ADD80C,0.05906*%
%ADD81R,0.05906X0.05906*%
%ADD82O,0.09843X0.11811*%
%ADD83R,0.09843X0.11811*%
%ADD84O,0.06000X0.10000*%
%ADD85R,0.06000X0.10000*%
%ADD86R,0.07874X0.07874*%
%ADD87C,0.07874*%
%ADD88C,0.03937*%
%ADD89R,0.03937X0.03937*%
%ADD90C,0.04000*%
%ADD91C,0.02000*%
%ADD92C,0.03000*%
%ADD93C,0.02598*%
%ADD94C,0.05000*%
%ADD95R,0.05512X0.07087*%
%ADD96R,0.07087X0.13386*%
%ADD97O,0.01181X0.02756*%
%ADD98O,0.02756X0.01181*%
%ADD99R,0.13386X0.07087*%
%ADD100R,0.09473X0.02178*%
%ADD101R,0.21400X0.03900*%
%ADD102R,0.04263X0.05806*%
%ADD103R,0.22500X1.19600*%
%ADD104R,0.29000X0.26900*%
%ADD105C,0.00984*%
%ADD106C,0.00500*%
%ADD107C,0.00394*%
%ADD108C,0.00787*%
%ADD109C,0.00591*%
%ADD110R,0.04724X0.02756*%
%ADD111R,0.01968X0.03543*%
%ADD112R,0.11024X0.03150*%
%ADD113O,0.07099X0.02572*%
%ADD114R,0.08871X0.09855*%
%ADD115R,0.22453X0.25997*%
%ADD116R,0.04737X0.11627*%
%ADD117R,0.07887X0.04737*%
%ADD118R,0.16548X0.18517*%
%ADD119R,0.04737X0.05918*%
%ADD120R,0.03359X0.06115*%
%ADD121R,0.04737X0.03162*%
%ADD122O,0.04343X0.02769*%
%ADD123R,0.04343X0.02769*%
%ADD124O,0.04343X0.02769*%
%ADD125R,0.10800X0.08300*%
%ADD126R,0.05800X0.06800*%
%ADD127O,0.10642X0.06706*%
%ADD128R,0.09461X0.07887*%
%ADD129R,0.10642X0.16548*%
%ADD130O,0.06706X0.03950*%
%ADD131R,0.04800X0.02769*%
%ADD132R,0.08800X0.03200*%
%ADD133O,0.08800X0.03200*%
%ADD134R,0.10249X0.09068*%
%ADD135R,0.04147X0.03556*%
%ADD136R,0.04737X0.11430*%
%ADD137O,0.01784X0.05524*%
%ADD138O,0.05524X0.01784*%
%ADD139O,0.05524X0.02572*%
%ADD140O,0.02572X0.05524*%
%ADD141R,0.05524X0.02572*%
%ADD142R,0.15210X0.10642*%
%ADD143R,0.15210X0.08674*%
%ADD144R,0.02769X0.07099*%
%ADD145R,0.04343X0.02926*%
%ADD146R,0.08359X0.26391*%
%ADD147R,0.03556X0.04147*%
%ADD148R,0.05918X0.04737*%
%ADD149R,0.10642X0.15210*%
%ADD150R,0.08674X0.15210*%
%ADD151R,0.07099X0.02769*%
%ADD152R,0.02926X0.04343*%
%ADD153R,0.11430X0.04737*%
%ADD154R,0.18517X0.16548*%
%ADD155C,0.07493*%
%ADD156C,0.06800*%
%ADD157O,0.06706X0.10642*%
%ADD158R,0.06706X0.10642*%
%ADD159O,0.08674X0.16548*%
%ADD160C,0.06706*%
%ADD161R,0.06706X0.06706*%
%ADD162O,0.10642X0.12611*%
%ADD163R,0.10642X0.12611*%
%ADD164O,0.06800X0.10800*%
%ADD165R,0.06800X0.10800*%
%ADD166R,0.08674X0.08674*%
%ADD167C,0.08674*%
%ADD168C,0.04737*%
%ADD169R,0.04737X0.04737*%
%ADD170C,0.05800*%
%ADD171R,0.06312X0.07887*%
%ADD172R,0.07887X0.14186*%
%ADD173O,0.01981X0.03556*%
%ADD174O,0.03556X0.01981*%
%ADD175R,0.14186X0.07887*%
%ADD176C,0.03398*%
D16*
X296174Y-324700D02*
D03*
X288300D02*
D03*
D32*
X-61200Y-163105D02*
D03*
Y-157200D02*
D03*
X-55300Y-157095D02*
D03*
Y-163000D02*
D03*
X187300Y-308400D02*
D03*
Y-302495D02*
D03*
X193600Y-308405D02*
D03*
Y-302500D02*
D03*
X252600Y-323106D02*
D03*
Y-317200D02*
D03*
X157800Y-283594D02*
D03*
Y-289500D02*
D03*
X208100Y-284095D02*
D03*
Y-290000D02*
D03*
X197500Y-271006D02*
D03*
Y-265100D02*
D03*
X288100Y-287595D02*
D03*
Y-293500D02*
D03*
X250000Y-284894D02*
D03*
Y-290800D02*
D03*
X249800Y-276600D02*
D03*
Y-270694D02*
D03*
X265300Y-323100D02*
D03*
Y-317195D02*
D03*
X258700Y-323000D02*
D03*
Y-317094D02*
D03*
X244100Y-290800D02*
D03*
Y-284894D02*
D03*
X256400Y-297400D02*
D03*
Y-291494D02*
D03*
X256200Y-276800D02*
D03*
Y-270895D02*
D03*
X243100Y-303900D02*
D03*
Y-309805D02*
D03*
X208100Y-270900D02*
D03*
Y-276805D02*
D03*
X190000Y-265200D02*
D03*
Y-271106D02*
D03*
X164800Y-277700D02*
D03*
Y-283606D02*
D03*
X181200Y-314295D02*
D03*
Y-308389D02*
D03*
D44*
X-65005Y-199000D02*
D03*
X-59100D02*
D03*
X281105Y-317000D02*
D03*
X275200D02*
D03*
X168994Y-308395D02*
D03*
X174900D02*
D03*
X175495Y-269800D02*
D03*
X181400D02*
D03*
X288595Y-306000D02*
D03*
X294500D02*
D03*
X275205Y-274100D02*
D03*
X269300D02*
D03*
X249994Y-309800D02*
D03*
X255900D02*
D03*
X249994Y-303400D02*
D03*
X255900D02*
D03*
X214206Y-310400D02*
D03*
X208300D02*
D03*
X244100Y-296600D02*
D03*
X250006D02*
D03*
X281100Y-280800D02*
D03*
X275195D02*
D03*
X294400Y-299700D02*
D03*
X288494D02*
D03*
X293200Y-317000D02*
D03*
X287295D02*
D03*
X156200Y-301400D02*
D03*
X150294D02*
D03*
X156200Y-307900D02*
D03*
X150294D02*
D03*
X187700Y-314094D02*
D03*
X193605D02*
D03*
X181200Y-302495D02*
D03*
X175294D02*
D03*
X175100Y-314494D02*
D03*
X169194D02*
D03*
X214300Y-304200D02*
D03*
X208395D02*
D03*
X214100Y-298200D02*
D03*
X208194D02*
D03*
D45*
X215600Y-270826D02*
D03*
Y-278700D02*
D03*
D56*
X311024Y-393701D02*
Y0D01*
X-82677Y-393701D02*
X311024D01*
X-82677D02*
Y0D01*
X311024D01*
D95*
X41956Y-163270D02*
D03*
Y-190829D02*
D03*
X59869Y-163270D02*
D03*
Y-190829D02*
D03*
X128570Y-163270D02*
D03*
Y-190829D02*
D03*
X146483Y-163270D02*
D03*
Y-190829D02*
D03*
X85263Y-163270D02*
D03*
Y-190829D02*
D03*
X103176Y-163270D02*
D03*
Y-190829D02*
D03*
X171877Y-163270D02*
D03*
Y-190829D02*
D03*
X189790Y-163270D02*
D03*
Y-190829D02*
D03*
D96*
X272100Y-297900D02*
D03*
D97*
X269147Y-306758D02*
D03*
X275053D02*
D03*
Y-289042D02*
D03*
X269147D02*
D03*
X191190Y-279810D02*
D03*
X189221D02*
D03*
X187253D02*
D03*
X185284D02*
D03*
X183316D02*
D03*
X181347D02*
D03*
X179379D02*
D03*
X177410D02*
D03*
Y-293590D02*
D03*
X179379D02*
D03*
X181347D02*
D03*
X183316D02*
D03*
X185284D02*
D03*
X187253D02*
D03*
X189221D02*
D03*
X191190D02*
D03*
D98*
X278990Y-304790D02*
D03*
Y-302821D02*
D03*
Y-300853D02*
D03*
Y-298884D02*
D03*
Y-296916D02*
D03*
Y-294947D02*
D03*
Y-292979D02*
D03*
Y-291010D02*
D03*
X265210D02*
D03*
Y-292979D02*
D03*
Y-294947D02*
D03*
Y-296916D02*
D03*
Y-298884D02*
D03*
Y-300853D02*
D03*
Y-302821D02*
D03*
Y-304790D02*
D03*
X193158Y-289653D02*
D03*
Y-283747D02*
D03*
X175442D02*
D03*
Y-289653D02*
D03*
D99*
X184300Y-286700D02*
D03*
M02*
