%FSLAX25Y25*%
%MOIN*%
G70*
G01*
G75*
G04 Layer_Color=32896*
%ADD10R,0.10630X0.03937*%
%ADD11R,0.15748X0.17716*%
%ADD12R,0.14410X0.09843*%
%ADD13R,0.14410X0.07874*%
%ADD14R,0.01969X0.06299*%
%ADD15R,0.03543X0.02126*%
%ADD16R,0.09843X0.14410*%
%ADD17R,0.07874X0.14410*%
%ADD18R,0.06299X0.01969*%
%ADD19R,0.02126X0.03543*%
%ADD20C,0.01000*%
%ADD21C,0.02000*%
%ADD22C,0.00800*%
%ADD23R,0.05400X0.12900*%
%ADD24R,0.21600X0.06537*%
%ADD25C,0.00500*%
%ADD26C,0.05906*%
%ADD27R,0.05906X0.05906*%
%ADD28O,0.10000X0.06000*%
%ADD29R,0.10000X0.06000*%
%ADD30C,0.04000*%
%ADD31C,0.02000*%
%ADD32C,0.03000*%
%ADD33R,0.02756X0.03347*%
%ADD34R,0.03347X0.02756*%
%ADD35R,0.05118X0.03937*%
%ADD36R,0.13386X0.07087*%
%ADD37O,0.02756X0.01181*%
%ADD38O,0.01181X0.02756*%
%ADD39R,0.11430X0.04737*%
%ADD40R,0.16548X0.18517*%
%ADD41R,0.15210X0.10642*%
%ADD42R,0.15210X0.08674*%
%ADD43R,0.02769X0.07099*%
%ADD44R,0.04343X0.02926*%
%ADD45R,0.10642X0.15210*%
%ADD46R,0.08674X0.15210*%
%ADD47R,0.07099X0.02769*%
%ADD48R,0.02926X0.04343*%
%ADD49C,0.06706*%
%ADD50R,0.06706X0.06706*%
%ADD51O,0.10800X0.06800*%
%ADD52R,0.10800X0.06800*%
%ADD53R,0.03556X0.04147*%
%ADD54R,0.04147X0.03556*%
%ADD55R,0.05918X0.04737*%
%ADD56R,0.14186X0.07887*%
%ADD57O,0.03556X0.01981*%
%ADD58O,0.01981X0.03556*%
%ADD59C,0.00984*%
%ADD60C,0.00787*%
D25*
X85326Y38083D02*
X86113Y38871D01*
X85326Y35328D02*
X86113Y34540D01*
X94381D02*
X95169Y35328D01*
X94381Y38871D02*
X95169Y38083D01*
X86113Y38871D02*
X94381D01*
X95169Y35328D02*
Y38083D01*
X85326Y35328D02*
Y38083D01*
X86113Y34540D02*
X94381D01*
X103435Y35519D02*
X104222Y34732D01*
X106978D02*
X107765Y35519D01*
X106978Y44574D02*
X107765Y43787D01*
X103435D02*
X104222Y44574D01*
X103435Y35519D02*
Y43787D01*
X104222Y44574D02*
X106978D01*
X104222Y34732D02*
X106978D01*
X107765Y35519D02*
Y43787D01*
X109735Y35513D02*
X110522Y34726D01*
X113278D02*
X114065Y35513D01*
X113278Y44568D02*
X114065Y43781D01*
X109735D02*
X110522Y44568D01*
X109735Y35513D02*
Y43781D01*
X110522Y44568D02*
X113278D01*
X110522Y34726D02*
X113278D01*
X114065Y35513D02*
Y43781D01*
X91826Y76678D02*
X92613Y77465D01*
X91826Y73922D02*
X92613Y73135D01*
X100881D02*
X101669Y73922D01*
X100881Y77465D02*
X101669Y76678D01*
X92613Y77465D02*
X100881D01*
X101669Y73922D02*
Y76678D01*
X91826Y73922D02*
Y76678D01*
X92613Y73135D02*
X100881D01*
X77478Y63474D02*
X78265Y62687D01*
X73935D02*
X74722Y63474D01*
X73935Y54419D02*
X74722Y53632D01*
X77478D02*
X78265Y54419D01*
Y62687D01*
X74722Y53632D02*
X77478D01*
X74722Y63474D02*
X77478D01*
X73935Y54419D02*
Y62687D01*
X127778Y62974D02*
X128565Y62187D01*
X124235D02*
X125022Y62974D01*
X124235Y53919D02*
X125022Y53132D01*
X127778D02*
X128565Y53919D01*
Y62187D01*
X125022Y53132D02*
X127778D01*
X125022Y62974D02*
X127778D01*
X124235Y53919D02*
Y62187D01*
X113635Y72913D02*
X114422Y72126D01*
X117178D02*
X117965Y72913D01*
X117178Y81968D02*
X117965Y81181D01*
X113635D02*
X114422Y81968D01*
X113635Y72913D02*
Y81181D01*
X114422Y81968D02*
X117178D01*
X114422Y72126D02*
X117178D01*
X117965Y72913D02*
Y81181D01*
X133687Y32535D02*
X134474Y33322D01*
X133687Y36865D02*
X134474Y36078D01*
X124632D02*
X125419Y36865D01*
X124632Y33322D02*
X125419Y32535D01*
X133687D01*
X124632Y33322D02*
Y36078D01*
X134474Y33322D02*
Y36078D01*
X125419Y36865D02*
X133687D01*
X124235Y66326D02*
X128565D01*
X124235Y76169D02*
X128565D01*
Y66326D02*
Y76169D01*
X124235Y66326D02*
Y76169D01*
X106135Y72026D02*
X110465D01*
X106135Y81868D02*
X110465D01*
Y72026D02*
Y81868D01*
X106135Y72026D02*
Y81868D01*
X80935Y59526D02*
X85265D01*
X80935Y69368D02*
X85265D01*
Y59526D02*
Y69368D01*
X80935Y59526D02*
Y69368D01*
X66626Y41535D02*
Y45865D01*
X76468Y41535D02*
Y45865D01*
X66626Y41535D02*
X76468D01*
X66626Y45865D02*
X76468D01*
X66626Y35035D02*
Y39365D01*
X76468Y35035D02*
Y39365D01*
X66626Y35035D02*
X76468D01*
X66626Y39365D02*
X76468D01*
X113874Y28840D02*
Y33171D01*
X104032Y28840D02*
Y33171D01*
X113874D01*
X104032Y28840D02*
X113874D01*
X91626Y40440D02*
Y44771D01*
X101469Y40440D02*
Y44771D01*
X91626Y40440D02*
X101469D01*
X91626Y44771D02*
X101469D01*
X97335Y38680D02*
X101665D01*
X97335Y28837D02*
X101665D01*
X97335D02*
Y38680D01*
X101665Y28837D02*
Y38680D01*
X85526Y28440D02*
Y32771D01*
X95368Y28440D02*
Y32771D01*
X85526Y28440D02*
X95368D01*
X85526Y32771D02*
X95368D01*
X124726Y38735D02*
Y43065D01*
X134569Y38735D02*
Y43065D01*
X124726Y38735D02*
X134569D01*
X124726Y43065D02*
X134569D01*
X124526Y44735D02*
Y49065D01*
X134369Y44735D02*
Y49065D01*
X124526Y44735D02*
X134369D01*
X124526Y49065D02*
X134369D01*
X130750Y63644D02*
Y77030D01*
X137050Y63644D02*
Y77030D01*
X130750Y76046D02*
X130750D01*
X130750Y63644D02*
X137050D01*
X130750Y77030D02*
X137050D01*
X93545Y51313D02*
X94600D01*
X93545D02*
Y52298D01*
Y64502D02*
Y65487D01*
X94500D01*
X110700D02*
X111655D01*
Y64502D02*
Y65487D01*
Y51313D02*
Y52298D01*
X110700Y51313D02*
X111655D01*
X144934Y29299D02*
X146267D01*
X145601D01*
Y25966D01*
X146267Y25300D01*
X146933D01*
X147600Y25966D01*
X141602Y25300D02*
Y29299D01*
X143601Y27299D01*
X140936D01*
X132700Y24500D02*
Y28499D01*
X130701D01*
X130034Y27832D01*
Y26499D01*
X130701Y25833D01*
X132700D01*
X131367D02*
X130034Y24500D01*
X128701Y27832D02*
X128035Y28499D01*
X126702D01*
X126035Y27832D01*
Y27166D01*
X126702Y26499D01*
X127368D01*
X126702D01*
X126035Y25833D01*
Y25166D01*
X126702Y24500D01*
X128035D01*
X128701Y25166D01*
X122703Y24500D02*
Y28499D01*
X124703Y26499D01*
X122037D01*
X132300Y19000D02*
Y22999D01*
X130301D01*
X129634Y22332D01*
Y20999D01*
X130301Y20333D01*
X132300D01*
X130967D02*
X129634Y19000D01*
X126302D02*
Y22999D01*
X128301Y20999D01*
X125636D01*
X124303Y22999D02*
X121637D01*
Y22332D01*
X124303Y19667D01*
Y19000D01*
X94300Y7400D02*
Y11399D01*
X92301D01*
X91634Y10732D01*
Y9399D01*
X92301Y8733D01*
X94300D01*
X92967D02*
X91634Y7400D01*
X88302D02*
Y11399D01*
X90301Y9399D01*
X87635D01*
X83637Y11399D02*
X84970Y10732D01*
X86303Y9399D01*
Y8066D01*
X85636Y7400D01*
X84303D01*
X83637Y8066D01*
Y8733D01*
X84303Y9399D01*
X86303D01*
X101400Y17500D02*
X97401D01*
Y15501D01*
X98068Y14834D01*
X99401D01*
X100067Y15501D01*
Y17500D01*
Y16167D02*
X101400Y14834D01*
Y11502D02*
X97401D01*
X99401Y13501D01*
Y10836D01*
X101400Y7503D02*
X97401D01*
X99401Y9503D01*
Y6837D01*
X100845Y19424D02*
Y23423D01*
X98846D01*
X98179Y22757D01*
Y21424D01*
X98846Y20757D01*
X100845D01*
X99512D02*
X98179Y19424D01*
X94847D02*
Y23423D01*
X96846Y21424D01*
X94181D01*
X92848Y22757D02*
X92181Y23423D01*
X90848D01*
X90182Y22757D01*
Y22090D01*
X90848Y21424D01*
X91515D01*
X90848D01*
X90182Y20757D01*
Y20091D01*
X90848Y19424D01*
X92181D01*
X92848Y20091D01*
X112100Y7800D02*
Y11799D01*
X110101D01*
X109434Y11132D01*
Y9799D01*
X110101Y9133D01*
X112100D01*
X110767D02*
X109434Y7800D01*
X106102D02*
Y11799D01*
X108101Y9799D01*
X105436D01*
X104103Y7800D02*
X102770D01*
X103436D01*
Y11799D01*
X104103Y11132D01*
X64200Y35300D02*
Y39299D01*
X62201D01*
X61534Y38632D01*
Y37299D01*
X62201Y36633D01*
X64200D01*
X62867D02*
X61534Y35300D01*
X58202D02*
Y39299D01*
X60201Y37299D01*
X57535D01*
X56203Y38632D02*
X55536Y39299D01*
X54203D01*
X53537Y38632D01*
Y35966D01*
X54203Y35300D01*
X55536D01*
X56203Y35966D01*
Y38632D01*
X63900Y42000D02*
Y45999D01*
X61901D01*
X61234Y45332D01*
Y43999D01*
X61901Y43333D01*
X63900D01*
X62567D02*
X61234Y42000D01*
X59901Y45332D02*
X59235Y45999D01*
X57902D01*
X57235Y45332D01*
Y44666D01*
X57902Y43999D01*
X58568D01*
X57902D01*
X57235Y43333D01*
Y42666D01*
X57902Y42000D01*
X59235D01*
X59901Y42666D01*
X55903D02*
X55236Y42000D01*
X53903D01*
X53237Y42666D01*
Y45332D01*
X53903Y45999D01*
X55236D01*
X55903Y45332D01*
Y44666D01*
X55236Y43999D01*
X53237D01*
X85094Y82300D02*
X81096D01*
Y80301D01*
X81762Y79634D01*
X83095D01*
X83762Y80301D01*
Y82300D01*
Y80967D02*
X85094Y79634D01*
X81762Y78301D02*
X81096Y77635D01*
Y76302D01*
X81762Y75635D01*
X82429D01*
X83095Y76302D01*
Y76968D01*
Y76302D01*
X83762Y75635D01*
X84428D01*
X85094Y76302D01*
Y77635D01*
X84428Y78301D01*
X81762Y74303D02*
X81096Y73636D01*
Y72303D01*
X81762Y71637D01*
X82429D01*
X83095Y72303D01*
X83762Y71637D01*
X84428D01*
X85094Y72303D01*
Y73636D01*
X84428Y74303D01*
X83762D01*
X83095Y73636D01*
X82429Y74303D01*
X81762D01*
X83095Y73636D02*
Y72303D01*
X130134Y16232D02*
X130801Y16899D01*
X132133D01*
X132800Y16232D01*
Y13566D01*
X132133Y12900D01*
X130801D01*
X130134Y13566D01*
X128801Y12900D02*
X127468D01*
X128135D01*
Y16899D01*
X128801Y16232D01*
X122803Y16899D02*
X125469D01*
Y14899D01*
X124136Y15566D01*
X123470D01*
X122803Y14899D01*
Y13566D01*
X123470Y12900D01*
X124803D01*
X125469Y13566D01*
X114768Y92534D02*
X114101Y93201D01*
Y94534D01*
X114768Y95200D01*
X117434D01*
X118100Y94534D01*
Y93201D01*
X117434Y92534D01*
X114768Y91201D02*
X114101Y90535D01*
Y89202D01*
X114768Y88535D01*
X115434D01*
X116101Y89202D01*
Y89868D01*
Y89202D01*
X116767Y88535D01*
X117434D01*
X118100Y89202D01*
Y90535D01*
X117434Y91201D01*
X114768Y87203D02*
X114101Y86536D01*
Y85203D01*
X114768Y84537D01*
X115434D01*
X116101Y85203D01*
X116767Y84537D01*
X117434D01*
X118100Y85203D01*
Y86536D01*
X117434Y87203D01*
X116767D01*
X116101Y86536D01*
X115434Y87203D01*
X114768D01*
X116101Y86536D02*
Y85203D01*
X130568Y58934D02*
X129901Y59601D01*
Y60934D01*
X130568Y61600D01*
X133233D01*
X133900Y60934D01*
Y59601D01*
X133233Y58934D01*
X130568Y57601D02*
X129901Y56935D01*
Y55602D01*
X130568Y54935D01*
X131234D01*
X131901Y55602D01*
Y56268D01*
Y55602D01*
X132567Y54935D01*
X133233D01*
X133900Y55602D01*
Y56935D01*
X133233Y57601D01*
Y53603D02*
X133900Y52936D01*
Y51603D01*
X133233Y50937D01*
X130568D01*
X129901Y51603D01*
Y52936D01*
X130568Y53603D01*
X131234D01*
X131901Y52936D01*
Y50937D01*
X74768Y73834D02*
X74101Y74501D01*
Y75834D01*
X74768Y76500D01*
X77434D01*
X78100Y75834D01*
Y74501D01*
X77434Y73834D01*
X78100Y70502D02*
X74101D01*
X76101Y72501D01*
Y69836D01*
X74768Y68503D02*
X74101Y67836D01*
Y66503D01*
X74768Y65837D01*
X77434D01*
X78100Y66503D01*
Y67836D01*
X77434Y68503D01*
X74768D01*
X99434Y82732D02*
X100101Y83399D01*
X101434D01*
X102100Y82732D01*
Y80066D01*
X101434Y79400D01*
X100101D01*
X99434Y80066D01*
X95436Y83399D02*
X98101D01*
Y81399D01*
X96768Y82066D01*
X96102D01*
X95436Y81399D01*
Y80066D01*
X96102Y79400D01*
X97435D01*
X98101Y80066D01*
X94103Y82732D02*
X93436Y83399D01*
X92103D01*
X91437Y82732D01*
Y80066D01*
X92103Y79400D01*
X93436D01*
X94103Y80066D01*
Y82732D01*
X117268Y42234D02*
X116601Y42901D01*
Y44234D01*
X117268Y44900D01*
X119933D01*
X120600Y44234D01*
Y42901D01*
X119933Y42234D01*
X116601Y38236D02*
Y40901D01*
X118601D01*
X117934Y39568D01*
Y38902D01*
X118601Y38236D01*
X119933D01*
X120600Y38902D01*
Y40235D01*
X119933Y40901D01*
X120600Y36903D02*
Y35570D01*
Y36236D01*
X116601D01*
X117268Y36903D01*
X104668Y21834D02*
X104001Y22501D01*
Y23833D01*
X104668Y24500D01*
X107334D01*
X108000Y23833D01*
Y22501D01*
X107334Y21834D01*
X104001Y17835D02*
Y20501D01*
X106001D01*
X105334Y19168D01*
Y18502D01*
X106001Y17835D01*
X107334D01*
X108000Y18502D01*
Y19835D01*
X107334Y20501D01*
X108000Y13837D02*
Y16503D01*
X105334Y13837D01*
X104668D01*
X104001Y14503D01*
Y15836D01*
X104668Y16503D01*
X92334Y16532D02*
X93001Y17199D01*
X94334D01*
X95000Y16532D01*
Y13867D01*
X94334Y13200D01*
X93001D01*
X92334Y13867D01*
X88336Y17199D02*
X91001D01*
Y15199D01*
X89668Y15866D01*
X89002D01*
X88336Y15199D01*
Y13867D01*
X89002Y13200D01*
X90335D01*
X91001Y13867D01*
X87003Y16532D02*
X86336Y17199D01*
X85003D01*
X84337Y16532D01*
Y15866D01*
X85003Y15199D01*
X85670D01*
X85003D01*
X84337Y14533D01*
Y13867D01*
X85003Y13200D01*
X86336D01*
X87003Y13867D01*
X110700Y94800D02*
X106701D01*
Y92801D01*
X107368Y92134D01*
X108701D01*
X109367Y92801D01*
Y94800D01*
Y93467D02*
X110700Y92134D01*
X107368Y90801D02*
X106701Y90135D01*
Y88802D01*
X107368Y88135D01*
X108034D01*
X108701Y88802D01*
Y89468D01*
Y88802D01*
X109367Y88135D01*
X110034D01*
X110700Y88802D01*
Y90135D01*
X110034Y90801D01*
X106701Y84137D02*
Y86803D01*
X108701D01*
X108034Y85470D01*
Y84803D01*
X108701Y84137D01*
X110034D01*
X110700Y84803D01*
Y86136D01*
X110034Y86803D01*
X136700Y90400D02*
X132701D01*
Y88401D01*
X133368Y87734D01*
X134701D01*
X135367Y88401D01*
Y90400D01*
Y89067D02*
X136700Y87734D01*
X133368Y86401D02*
X132701Y85735D01*
Y84402D01*
X133368Y83736D01*
X134034D01*
X134701Y84402D01*
Y85068D01*
Y84402D01*
X135367Y83736D01*
X136033D01*
X136700Y84402D01*
Y85735D01*
X136033Y86401D01*
X132701Y79737D02*
X133368Y81070D01*
X134701Y82403D01*
X136033D01*
X136700Y81736D01*
Y80403D01*
X136033Y79737D01*
X135367D01*
X134701Y80403D01*
Y82403D01*
X129300Y89700D02*
X125301D01*
Y87701D01*
X125968Y87034D01*
X127301D01*
X127967Y87701D01*
Y89700D01*
Y88367D02*
X129300Y87034D01*
X125968Y85701D02*
X125301Y85035D01*
Y83702D01*
X125968Y83035D01*
X126634D01*
X127301Y83702D01*
Y84368D01*
Y83702D01*
X127967Y83035D01*
X128633D01*
X129300Y83702D01*
Y85035D01*
X128633Y85701D01*
X125301Y81703D02*
Y79037D01*
X125968D01*
X128633Y81703D01*
X129300D01*
X121649Y49950D02*
X118316D01*
X117650Y50616D01*
Y51949D01*
X118316Y52616D01*
X121649D01*
Y56615D02*
X120982Y55282D01*
X119649Y53949D01*
X118316D01*
X117650Y54615D01*
Y55948D01*
X118316Y56615D01*
X118983D01*
X119649Y55948D01*
Y53949D01*
X0Y102362D02*
X157480D01*
Y0D02*
Y102362D01*
X0Y0D02*
X157480D01*
X0D02*
Y102362D01*
D59*
X114192Y51808D02*
G03*
X114192Y51808I-492J0D01*
G01*
D60*
X139400Y72300D02*
X149400D01*
X139400Y32300D02*
Y72300D01*
X149400Y32300D02*
Y72300D01*
X139400Y32300D02*
X149400D01*
M02*
