M48
;Layer_Color=9474304
;FILE_FORMAT=2:5
INCH,LZ
;TYPE=PLATED
T1F00S00C0.01200
T2F00S00C0.02000
T3F00S00C0.02500
T4F00S00C0.03543
T5F00S00C0.04000
%
T01
X00267Y00318
X00302Y00345
X00618
X00695Y00674
X0023Y00692
X00977Y00687
X01146Y00688
X01117Y00744
X01116Y0083
X01146Y00859
X0138Y00632
Y00599
X01204Y00317
T02
X01025Y00599
T03
X00068Y00052
X0007Y00134
X00066Y00226
X00054Y00315
X00183
X00182Y00225
X00196Y00135
X00201Y00058
X00301Y00267
X00442Y00272
X00443Y00201
X00529Y00271
X00614Y00276
X00616Y00206
X0072Y00284
X00804Y00281
X00807Y00203
X00612Y00425
X00529
X00435
X00437Y0052
X0052467
X0061233
X007
X00634Y00626
X00638Y00708
X0072Y00736
X00876Y00732
X00883Y0067099
X00524Y00632
X0052Y00729
X00446Y00668
X00359Y00671
X00369Y0073
X00372Y00604
X00887Y00509
Y00419
X00898Y00204
X009595
X01032
Y00126
X00961
X00898
Y00048
X00965
X01032
X01525Y00096
X01527Y00232
X01521Y00371
Y00495
X01514Y00648
X01516Y00743
X01518Y00845
X012Y00713
X01036Y00726
X0105Y00962
X01139Y00964
X01221Y00961
X01518Y00985
X00877Y00959
X00731Y00958
X00498Y00988
T04
X01444Y00373
Y00473
Y00573
Y00673
T05
X0135Y00806
Y00906
M30
