M48
;Layer_Color=9474304
;FILE_FORMAT=2:5
INCH,LZ
;TYPE=PLATED
T01F00S00C0.01181
T02F00S00C0.01200
T03F00S00C0.02000
T04F00S00C0.02756
T05F00S00C0.03000
T06F00S00C0.03200
T07F00S00C0.03543
T09F00S00C0.03937
T10F00S00C0.04000
T11F00S00C0.04724
T12F00S00C0.05906
;TYPE=NON_PLATED
T13F00S00C0.01968
T14F00S00C0.12598
%
T01
X0415884Y0251426
Y0255363
Y02593
Y0263237
Y0267174
X0419703
X0423758
X0427695
X0431632
Y0263237
Y02593
X0427695
Y0263237
X0423758
X0419821
Y02593
X0423758
Y0255363
X0427695
X0431514Y0255481
X0431632Y0251426
X0427695
X0423758
X0419821Y0251544
Y0255363
X0419963Y0368313
Y0372131
Y0376068
Y0380006
X04239
X0427837
X0431774
Y0376068
X0427837
Y0372131
X0431656Y037225
X0431774Y0368195
X0427837
X04239
Y0372131
Y0376068
Y0383943
X0427837
X0431774
X0419845
X0416026
Y0380006
Y0376068
Y0372131
Y0368195
T02
X000279Y00094
X002279
X002779
X003279
X003779
X004279
X004779
X005279
X005029Y00144
X004529
X004029
X003529
X003029
X002529
X002779Y00194
X003279
X003779
X004279
X004779
X006279
X006779
X007279
X007779
X008279
X008779
X009279
X009779
X010279
X010029Y00144
X009529
X009029
X008529
X008029
X007529
X007029
X010529
X011029
X011529
X012029
X012529
X013029
X013529
X014029
X014529
X015029
X015529
X016029
X016529
X017029
X017529
X018029
X018529
X019029
X019529
X020029
X020529
X021029
X021529
X022029
X022529
X023029
X023529
X024029
X024529
X025029
X025529
X026029
X025779Y00194
X025279
X024779
X024279
X023779
X023279
X022779
X022279
X021779
X021279
X020779
X020279
X019779
X019279
X018779
X018279
X017779
X017279
X016779
X016279
X015779
X015279
X014779
X014279
X013779
X013279
X012779
X012279
X011779
X011279
X010779
X026279
X026779
X027279
X027779
X028279
X028779
X029279
X029779
X030279
X030779
X031279
X031779
X032279
X032779
X033279
X033779
X034279
X034779
X035279
X035779
X036279
X036779
X037279
X037779
X038279
X038779
X038529Y00144
X038029
X037529
X037029
X036529
X036029
X035529
X035029
X034529
X034029
X033529
X033029
X032529
X032029
X031529
X031029
X030529
X030029
X029529
X029029
X028529
X028029
X027529
X027029
X026529
X050529
X051029
X050779Y00194
X050279
X053279
X053779
X054279
X054779
X055029Y00144
X054529
X054029
X053529
X053029
X053279Y00094
X053779
X054279
X054779
X055279
X057279
X052779
X057529Y00144
Y00244
Y00344
Y00444
Y00544
Y00644
Y00744
Y00844
Y01744
X057029
X057279Y01694
X057029Y01544
Y01444
X056779Y01294
X056279
X056529Y01244
X057029
X056779Y01194
X056279
X056029Y01244
Y01144
X056529
X057029
X056779Y01094
X056279
X056529Y01044
X057029
X056779Y00994
X057029Y00844
X057279Y00794
X056779
X056279
X055779
X055279
X054779
X054279
X053779
X054029Y00844
X054529
Y00744
X055029
X055529
X056029
X056529
X057029
X057279Y00694
X056779
X057029Y00644
X057279Y00594
X056779
X057029Y00544
X056529
X056029
X055529
X055029
X054529
X054029
X053529
X053029
X053279Y00594
X053779
X054279
X054779
X054529Y00644
X054029
X053529
X053779Y00694
X054279
X054779
X054029Y00744
X051529
X051029
X050529
X050029
X049529
X049029
X048529
X048029
X047529
X047279Y00794
X047779
X048279
X048779
X049279
X049779
X050279
X050779
X051279
X051779
X051529Y00844
X051029
X050529
X050029
X049529
X049029
X048529
X048029
X047529
X047779Y00894
X048279
X048779
X049279
X049779
X050279
X050779
X051279
X051779
X052029Y00944
X052529
X052779Y00994
X052279
X051779
X051279
X050779
X050279
X049779
X049279
X048779
X048279
X047779
X047279
X047529Y01044
X048029
X048529
X049029
X049529
X050029
X050529
X051029
X051529
X052029
X052529
X052779Y01094
Y01194
Y01294
X054279
X054779
X054529Y01244
X054029
X054279Y01194
X054779
X054529Y01144
X054029
X054279Y01094
X054779
X055029Y01044
X054529
X054029
X054279Y00994
X054779
X053779
Y01094
Y01194
X053529Y01444
X054029
X054279Y01494
X054779
X054529Y01544
X054029
X053779Y01494
X053029Y01444
X051529Y01544
X050029
Y01644
X048529
X047029
X0470554Y01592
X0470717Y01741
X0470791Y01441
X045529Y01344
X045029
X044529Y01244
X044279Y01194
X043779Y01294
X043279
X042779
X042279
X041779
X042279Y01494
X042779
X043279
X043779
X043029Y01544
X042529
X042779Y01594
X043279
Y01094
X043779
X04535Y00983
X04561Y00958
X046029Y00944
X046529
X047029
X047529
X048029
X048529
X049029
X049529
X050029
X050529
X051029
X051529
X051779Y01094
X050279
X049779
X049279
X048779
X048279
X047779
X047279
X047529Y01144
X048029
X047779Y01194
X047279
X047029Y01144
Y01044
X047279Y00894
Y00694
X047779
X048279
X048779
X049279
X049779
X050279
X050779
X051279
X051779
X051529Y00644
X051029
X050529
X050029
X049529
X049029
X048529
X048029
X047529
X047029
X046529
X046779Y00694
Y00594
X047279
X047779
X048279
X048779
X049279
X049779
X050279
X050779
X051279
X051779
Y00494
X051279
X050779
X050279
X049779
X049279
X050029Y00344
X050529
X051029
X050779Y00294
X050279
X050529Y00244
X051029
X053029
X053529
X054029
X054529
X055029
X055279Y00294
X054779
X054279
X053779
X053279
X053529Y00344
X054029
X054529
X055029
X055529
X056029
X056529
X057029
X057279Y00394
X056779
X056279
X055779
X055279
X054779
X054279
X053779
X053279
X053529Y00444
X054029
X054529
X055029
X055529
X056029
X056529
X057029
X056779Y00494
X056279
X055779
X055279
X054779
X054279
X053779
X053279
X053029Y00444
Y00344
X057279Y00294
Y00494
X04591Y00594
X042279Y00594
X041779
Y00694
X042279
X042779
X043029Y00744
X042529
X042029
X041779Y00794
X043279
X049279Y01194
X049779
X050279
X051029Y01244
X051529Y01744
X054779Y01694
Y01594
X041279Y01494
X04103Y01454
X04048Y01446
X040529Y01344
X041029
X041529
X041279Y01294
X040779
X040279
X039779
X039279
X038779
X038279
X038529Y01344
X039029
X039529
X040029
Y01244
X040529
X041029
X040779Y01194
X040279
X040529Y01144
X040779Y01094
X041029Y01044
X040779Y00794
X041279
X041029Y00744
X041529
X041279Y00694
X040779
X040279
X039779
X039279
X038779
X038279
X038529Y00744
X039029
X038279Y00794
Y00894
Y00994
Y01094
X038529Y01144
X037029
X035779Y01194
X035279
X035529Y01244
X035029
X034529
X034779Y01294
X034279
X033779
X033279
X032779
X033029Y01344
X033529
X034029
X034529
X035029
X034779Y01394
X034279
X033779
X033279
X032779
X032279
X031779
X032029Y01444
X032529
X033029
X033529
X034029
X034529
X035029
X034779Y01494
X034279
X033779
X033279
X033529Y01544
X034029
X033779Y01594
X033279
Y01694
X034279
X034779
X035029Y01744
X034529
X036029
X036529
X037029
X037529
X037779Y01694
X037279
X036779
X036279
X037029Y01544
X037279Y01494
X037529Y01444
X038029
X038529
X039029
X039279Y01394
X038779
X038279
X037779
X037279
X037029Y01444
X038029Y01344
X0390078Y0159655
X03898Y01628
X032279Y01594
X031779
X031279
X030779
X030279
X029779
X030029Y01644
X030529
X031029
X031529
X032029
X032279Y01694
X031779
X031279
X030779
X030279
X029779
X029279
X028779
X029029Y01744
X029529
X030029
X030529
X031029
X031529
X032029
X031529Y01444
X032529Y01344
X033779Y01194
X034779Y01094
X03521Y01105
X0348Y01
X0345Y00999
X0342Y01001
X0345Y0091
X03435Y00865
X034279Y00794
X033779
X033279
X032779
X032279
X031779
X031279
X030779
X030279
X029779
X030029Y00844
X030529
X031029
X031529
X032029
X032529
X033029
X033529
X033779Y00894
X033279
X032779
X032279
X031779
X031279
X030779
X030279
X030529Y00944
X031029
X031529
X032029
X032529
X033029
X032779Y00994
X032279
X031779
X031279
X030779
X030279
X029779
X029279
X029529Y01044
X030029
X030529
X031029
X031529
X032029
X031779Y01094
X031279
X030779
X030279
X030529Y01144
X031029
X030779Y01194
X030279
X030029Y01144
X02955Y01099
X02903Y01067
X02852Y01054
X028529Y00944
X029029
X029529
X030029
Y00744
X030529
X031029
X031529
X032029
X032529
X033029
X033529
X034029
X034279Y00694
X033779
X033279
X032779
X032279
X031779
X031279
X030779
X030279
X031029Y00644
X031529
X032029
X032529
X033029
X033529
X034029
X034529
X034779Y00594
X035279
X035529Y00544
X035029
X034529
X034029
X033529
X033029
X032529
X032029
X032279Y00594
X032779
X033279
X033779
X034279
X036029Y00644
X036529
X036779Y00694
X036279
X035779
X035279Y00794
X036779Y00594
X038279
X038779
X039279
X039779
X040279
X040779
X041279
X0414915Y00544
X038529Y00244
X038029
X037529
X037029
X036529
X036029
X035529
X035029
X034529
X034029
X033529
X033029
X032529
X032029
X031529
X031029
X030529
X030029
X029529
X029029
X028529
X028029
X027529
X027029
X026529
X026779Y00294
X026279
X02796Y00431
X02843Y00415
X02893Y00446
X02959Y0049
X03023Y00523
X031279Y00594
X031779
X029Y00714
X0290385Y0076115
X02853Y00758
X02843Y00674
X02796Y00652
X02776Y00717
X026779Y00694
X026279
X026529Y00744
X026779Y00794
X026279
X026529Y00844
X026779Y00894
X026279
X026529Y00944
X028029
X02755Y01032
X026529Y01144
X026279Y01194
Y01294
X026779
X027279
X027779
X02776Y01251
X027029Y01244
X02825Y013
X028779Y01294
X029279
X0292944Y0124756
X029779Y01294
X029029Y01344
X028529
X028779Y01394
X028279
X028029Y01444
X027529
X027029
X026529
X026779Y01594
X026279
X029529Y01644
X028529Y01744
X026529Y00644
X026029
X025529
X025779Y00694
X025279
X025529Y00744
X026029
X025779Y00794
X025279
X025529Y00844
X026029
X025779Y00894
X025279
X025529Y00944
X026029
X025029
X024529
X024029
X023529
X023029
X022529
X022029
X021529
X021029
X020529
X020029
X019529
X019029
X018529
X018029
X017529
X017029
X016529
X016029
X015529
X015029
X014529
X014029
X013529
X013029
X012529
X012029
X011529
X011029
X010529
X010779Y00994
X011279
X011779
X012279
X012779
X013279
X013779
X014279
X014779
X015279
X015779
X016279
X016779
X017279
X017779
X018279
X018779
X019279
X019779
X020279
X020779
X021279
X021779
X022279
X022779
X023279
X023779
X023529Y01044
X023029
X022529
X022029
X021529
X021029
X020529
X020029
X019529
X019029
X018529
X018029
X017529
X017029
X016529
X016029
X015529
X015029
X014529
X014029
X013529
X013029
X012529
X012029
X011529
X011029
X011279Y01094
X011779
X012279
X012779
X013279
X013779
X014279
X014779
X015279
X015779
X016279
X016779
X017279
X017779
X018279
X018779
X019279
X019779
X020279
X020779
X021279
X021779
X022279
X022779
X02351Y011
X02301Y01255
X02337Y01318
X0232Y01375
X024529Y01444
X025029
X025529
X026029
X025779Y01594
X025279
X024779
X024279
X023779
X023279
X022779
X022279
X021779
X021279
X021529Y01644
X021029
X021279Y01694
X015029Y01744
X014529
X014029
X013529
X013029
X012529
X012029
X012279Y01694
X012779
X013279
X012529Y01644
X012029
X011529
X011029
X010529
X010779Y01694
X010529Y01744
X010779Y01594
X011279
X011779
X012279
Y01494
X012779
X013279
X013779
X014279
X014779
X015029Y01544
X014529
X014029
X013529
X013029
Y01444
X013529
X014029
X014529
X015029
X014779Y01394
X014279
X013779
X013279
X012779
X012279
X011779
X012029Y01444
X012529
Y01344
X013029
X013529
X014029
X014529
X015029
X015279Y01294
X014779
X014279
X013779
X013279
X012779
X012279
X011779
X012029Y01344
X011529
Y01444
X011779Y01494
X011279
X011529Y01244
X012029
X012529
X013029
X013529
X014029
X014529
X015029
X015529
X015779Y01194
X016279
X016529Y01144
X016029
X015529
X015029
X014529
X014029
X013529
X013029
X012529
X012029
X011529
X011779Y01194
X012279
X012779
X013279
X013779
X014279
X014779
X015279
Y00894
X015779
X016279
X016779
X017279
X017779
X018279
X018779
X019279
X019779
X020279
X020779
X021279
X021779
X022279
X022529Y00844
X022029
X021529
X021029
X020529
X020029
X019529
X019029
X018529
X018029
X017529
X017029
X016529
X016029
X015529
X015029
X014529
X014029
X013529
X013029
X012529
X012029
X011529
X011029
X010529
X010779Y00894
X011279
X011779
X012279
X012779
X013279
X013779
X014279
X014779
Y00794
X015279
X015779
X016279
X016779
X017279
X017779
X018279
X018779
X019279
X019779
X020279
X020779
X021279
X021779
X022279
X022529Y00744
X022029
X021529
X021029
X020529
X020029
X019529
X019029
X018529
X018029
X017529
X017029
X016529
X016029
X015529
X015029
X014529
X014029
X013529
X013029
X012529
X012029
X011529
X011029
X010529
X010779Y00794
X011279
X011779
X012279
X012779
X013279
X013779
X014279
Y00694
X014779
X015279
X015779
X016279
X016779
X017279
X017779
X018279
X018779
X019279
X019779
X020279
X020779
X021279
X021779
X022279
X022529Y00644
X022029
X021529
X021029
X020529
X020029
X019529
X019029
X018529
X018029
X017529
X017029
X016529
X016029
X015529
X015029
X014529
X014029
X013529
X013029
X012529
X012029
X011529
X011029
X010529
X010779Y00694
X011279
X011779
X012279
X012779
X013279
X013779
Y00594
X014279
X014779
X015279
X015779
X016279
X016779
X017279
X017779
X018279
X018779
X019279
X019779
X020279
X020779
X021279
X021779
X022279
X022529Y00544
X022029
X021529
X021029
X020529
X020029
X019529
X019029
X018529
X018029
X017529
X017029
X016529
X016029
X015529
X015029
X014529
X014029
X013529
X013029
X012529
X012029
X011529
X011029
X010529
X010779Y00594
X011279
X011779
X012279
X012779
X013279
Y00494
X013779
X014279
X014779
X015279
X015779
X016279
X016779
X017279
X017779
X018279
X018779
X019279
X019779
X020279
X020779
X021279
X021779
X022279
X022779
X023029Y00444
X022529
X022029
X021529
X021029
X020529
X020029
X019529
X019029
X018529
X018029
X017529
X017029
X016529
X016029
X015529
X015029
X014529
X014029
X013529
X013029
X012529
X012029
X011529
X011029
X010529
X010779Y00494
X011279
X011779
X012279
X012779
Y00394
X013279
X013779
X014279
X014779
X015279
X015779
X016279
X016779
X017279
X017779
X018279
X018779
X019279
X019779
X020279
X020779
X021279
X021779
X022279
X022779
X023279
X023779
X024279
X024779
X025279
X025779
X026029Y00344
X025529
X025029
X024529
X024029
X023529
X023029
X022529
X022029
X021529
X021029
X020529
X020029
X019529
X019029
X018529
X018029
X017529
X017029
X016529
X016029
X015529
X015029
X014529
X014029
X013529
X013029
X012529
X012029
X011529
X011029
X010529
X010779Y00394
X011279
X011779
X012279
Y00294
X012779
X013279
X013779
X014279
X014779
X015279
X015779
X016279
X016779
X017279
X017779
X018279
X018779
X019279
X019779
X020279
X020779
X021279
X021779
X022279
X022779
X023279
X023779
X024279
X024779
X025279
X025779
X026029Y00244
X025529
X025029
X024529
X024029
X023529
X023029
X022529
X022029
X021529
X021029
X020529
X020029
X019529
X019029
X018529
X018029
X017529
X017029
X016529
X016029
X015529
X015029
X014529
X014029
X013529
X013029
X012529
X012029
X011529
X011029
X010529
X010779Y00294
X011279
X011779
X011029Y01244
X010529
X013779Y01594
X014279
X014779
X02454Y0126
X025279Y01294
X025779
Y01194
X025279
X025529Y01144
X026029
X025029Y00744
X02462Y00667
X02443Y00642
X0240326Y0063926
X010279Y00594
Y00694
Y00794
X010029Y00844
X009529
X009029
X008529
X008029
X007529
X007029
X007279Y00894
X007779
X008279
X008779
X009279
X009779
X010279
X010029Y00944
X010279Y00994
X009529Y01144
Y01244
X010029
X009529Y01344
Y01444
X009779Y01494
X008279
Y01594
X008779
X010029Y01644
X010279Y01694
X009779
X010029Y01744
X008029
X006529
X006029
X005529
X005029
X004529
X004029
X003529
X003029
X003279Y01594
X003779
X004279
X004779
X005279
X005779
X006279
X006779
X007029Y01544
X006529
X006029
X005529
X005029
X004529
X004029
X003529
X003029
X002529
X002029
X001529
X001029
X000529
X000779Y01594
X001279
X001779
X002279
X002779
Y01494
X003279
X003779
X004279
X004779
X005279
X005779
X006279
X006779
X007029Y01444
X006529
X006029
X005529
X005029
X004529
X004029
X003529
X003029
X002529
X002029
X001529
X001029
X000529
X000779Y01494
X001279
X001779
X002279
Y01394
X002779
X003279
X003779
X004279
X004779
X005279
X005779
X006279
X006779
X007029Y01344
X006529
X006029
X005529
X005029
X004529
X004029
X003529
X003029
X002529
X002029
X001529
X001029
X000529
X000779Y01394
X001279
X001779
Y01294
X002279
X002779
X003279
X003779
X004279
X004779
X005279
X005779
X006279
X006779
X007029Y01244
X006529
X006029
X005529
X005029
X004529
X004029
X003529
X003029
X002529
X002029
X001529
X001029
X000529
X000779Y01294
X001279
Y01194
X001779
X002279
X002779
X003279
X003779
X004279
X004779
X005279
X005779
X006279
X006779
X007279
X007779
X007529Y01144
X007029
X006529
X006029
X005529
X005029
X004529
X004029
X003529
X003029
X002529
X002029
X001529
X001029
X000529
X000779Y01194
X000279
Y01294
Y01394
Y01494
Y01594
X000529Y01644
X001029
X001529
X002029
X001279Y01694
X000779
X000279
X000529Y01744
X001029
X001279Y01094
X001779
X002279
X002779
X003279
X003779
X004279
X004779
X005279
X005779
X006279
X006779
X007279
X007779
Y00994
X007279
X006779
X006279
X005779
X005279
X004779
X003779
X003279
X002779
X002279
X001779
X001279
X000779
X000279
X000529Y01044
X001029
X001529
X002029
X002529
X003029
X003529
X004029
X003529Y00944
X003029
X002529
X002029
X001529
X001029
X000529
X000779Y00894
X001279
X001779
X002279
X002779
X003279
X003779
X004029Y00844
X003529
X003029
X002529
X002029
X001529
X001029
X000529
X000779Y00794
X001279
X001779
X002279
X002779
X003279
X003779
X003029Y00744
X002529
X002029
X001529
X001029
X000529
X000779Y00694
X001279
X001779
X002279
X002779
X003029Y00644
X002529
X002029
X001529
X001029
X000529
X000779Y00594
X001279
X001779
X002279
X002779
X003029Y00544
X002529
X002029
X001529
X001029
X000529
X000779Y00494
X001279
X001779
X002279
X002779
X003279
X003779
X004029Y00444
X004529
X004779Y00394
X004279
X003779
X003279
X002779
X002279
X001779
X001279
X000779
X000279
X000529Y00444
X001029
X001529
X002029
X002529
X003029
X003529
Y00344
X004029
X004529
X004779Y00294
X004279
X003779
X003279
X002779
X002279
X002529Y00344
X003029
Y00244
X003529
X004029
X004529
X006029
X006529
X007029
X007529
X008029
X008529
X009029
X009529
X010029
X010279Y00294
X009779
X009279
X008779
X008279
X007779
X007279
X006779
X006279
X006529Y00344
X007029
X007529
X008029
X008529
X009029
X009529
X010029
X010279Y00394
X009779
X009279
X008779
X008279
X007779
X007279
X006779
X006279
X006529Y00444
X007029
X007529
X008029
X008529
X009029
X009529
X010029
X010279Y00494
X009779
X009279
X008779
X008279
X007779
X007279
X006779
X006279
X006529Y00544
X007029
X007529
X007279Y00594
X006779
X006279
X006529Y00644
X007029
X006029
Y00544
Y00444
Y00344
X002029
X001529
X001029
X000529
X000279Y00294
Y00494
Y00594
Y00694
Y00794
Y00894
Y01094
X000779
X007029Y00944
X007529
X008029
X007279Y00794
X006029Y00844
X00835Y00611
X00837Y00568
X00886Y0057
X0093Y00569
X00928Y0061
X00882Y00612
X008279Y01294
Y01394
X002529Y00244
X002779Y01794
X003279
X003779
X004279
X004779
X005279
X005779
X006279
X006529Y01844
X006029
X005529
X005029
X005279Y01894
X005779
X006279
X006529Y01944
X006029
X005529
X005029
X004779Y01994
Y02094
X005029Y02144
X005529
X006029
X006529
X006779Y02194
X006279
X005779
X005279
X004779
X004279
X003779
X003279
X002779
X002279
X001779
X002029Y02244
X002529
X003029
X003529
X004029
X004529
X005029
X005529
X006029
X006529
X007029
X007279Y02294
X007779
X008029Y02344
X008529
X009029
X009529
X010029
X010279Y02394
X009779
X009279
X008779
X008279
X007779
X007279
X006779
X006279
X005779
X005279
X004779
X004279
X003779
X003279
X002779
X002279
X001779
X002029Y02444
X002529
X003029
X003529
X004029
X004529
X005029
X005529
X006029
X006529
X007029
X007529
X008029
X008529
X009029
X009529
X010029
X010279Y02494
X009779
X009279
X008779
X008279
X007779
X007279
X006779
X006279
X005779
X005279
X004779
X004279
X003779
X003279
X002779
X002279
X001779
X002029Y02544
X002529
X003029
X003529
X004029
X004529
X005029
X005529
X006029
X006529
X007029
X007529
X008029
X008529
X009029
X009529
X010029
X010279Y02594
X009779
X009279
Y02694
X009779
X010279
X010029Y02744
X009529
X009029
X008529
X008029
X008279Y02794
X008779
X009279
X0084615Y028586
X008779Y02694
X006279
X005779
X005279
X004779
X005029Y02744
X005529
X006029
X006529
X006279Y02794
X004779
Y02894
X005029Y02944
X005529
X006029
X006529
X006779Y02994
X007279
X007529Y03044
X007029
X006529
X006029
X005529
X005029
X004529
X004029
X003529
X003029
X002529
X002029
X002279Y03094
X002779
X003279
X003779
X004279
X004779
X005279
X005779
X006279
X006779
X007279
X007529Y03144
X007029
X006529
X006029
X005529
X005029
X004529
X004029
X003529
X003029
X002529
X002029
X002279Y03194
X002779
X003279
X003779
X004279
X004779
X005279
X005779
X006279
X006779
X007279
X007779
X008029Y03244
X007529
X007029
X006529
X006029
X005529
X005029
X004529
X004029
X003529
X003029
X002529
X002029
X002279Y03294
X002779
X003279
X003779
X004279
X004779
X005279
X005779
X006279
X006779
X007279
X007779
X008279
X008029Y03344
X007529
X007029
X006529
X006029
X005529
X003529
X003029
X002529
X002029
X001779Y03294
Y03194
Y03094
Y02994
X002279
X002779
X003279
X003779
X004279
X004779
X005279
X005779
X006279
X004529Y02944
X000279Y02994
Y03094
Y03194
Y03294
Y02894
Y02794
Y02694
Y02594
Y02494
Y02394
Y02294
Y02194
Y02094
Y01994
Y01894
Y01794
X002279
X004779Y01894
X004529Y02144
X004029
X003529
X003029
X002529
X002029
X002279Y02294
X002779
X003279
X003779
X004279
X004779
X005279
X005779
X006279
X006779
X007029Y02344
X007529
X006529
X006029
X005529
X005029
X004529
X004029
X003529
X003029
X002529
X002029
X001779Y02294
X006279Y02094
X008529Y01944
X009029
X009529
X010029
X010279Y01894
X009779
X009279
X010029Y01844
X010279Y01794
X009779
X008279
X010279Y03194
Y03294
X010779
X011279
X011779
X011529Y03344
X011029
X010529
Y03244
X011029
X011279Y03194
X010779
X011029Y03144
X011279Y03094
X013779
X014279
X014529Y03044
X015029
X015279Y02994
X014779
X014279
X013779
X014029Y03044
X013529
Y03144
X014029
Y02944
X014529
X015029
X015529
X016029
X016279Y02894
X015779
X015279
X014779
X014279
X013779
X013529Y02944
Y02744
X014029
X014529
X014779Y02694
X014279
X013779
X014029Y02644
X014529
X015029
X014779Y02594
X014279
X013779
X014029Y02544
X013529
X013779Y02494
X013529Y02444
X013779Y02394
X013529Y02344
X013779Y02294
X013529Y02244
X013779Y02194
X013529Y02144
X013779Y02094
X013529Y02044
X013779Y01994
X013279
X012779
X013029Y01944
X013529
X014029
X014279Y01894
X014779
X015029Y01844
X014529
X014029
X013529
X013029
X012529
X012029
X012279Y01894
X012779
X013279
X013779
Y01794
X014279
X014779
X013279
X012779
X012279
X011779Y01894
X011279
X010779
X011029Y01944
X011529
X012029
X012529
X010529
Y01844
X010779Y01794
Y02294
X011279
X011779
X011529Y02344
X011029
X010529
X011279Y02394
X011779
Y02494
Y02594
X011529Y02644
X010779Y02694
X013529Y02644
X016529
X017029
X017529
X017779Y02694
X017279
X016779
X016279
X016529Y02744
X017029
X017529
X018029
X017279Y02794
X016779
X016279
X015779
X016029Y02844
X016529
X017029
X015529
X016279Y02594
X016779
X017279
X0179Y02574
X0182009Y026121
X01872Y02562
X01994Y02522
X02049
X0213512Y02578
X02102Y02616
X02186Y02602
X02223Y02603
X02259Y026
X02306
X02333Y02657
X02316Y02691
X02279Y02667
X02263Y02554
X02266Y02522
X022029Y02344
X021529
X021029
X021279Y02294
X021779
X022279
X022029Y02244
X021529
X021029
X021279Y02194
X021779
X021529Y02144
X021029
X01951Y021
X0182009Y020991
X0182Y02065
X017529Y02044
X017029
X017279Y02094
X01765Y02139
X017279Y02194
X016529Y02244
X016029
X015529
X015029
X015279Y02294
X015529Y02344
X015029
X015279Y02394
X015029Y02444
X017029
X017529
X017279Y02394
X017529Y02344
X01899Y02402
X02037Y02355
X01961Y02235
X02038Y02012
X02029Y01875
X023779Y01894
X024279
X024779
X025279
X025779
X026029Y01944
X025529
X025029
X024529
X024029
X023529
X023779Y01994
X024279
X024779
X025279
X025779
X02292Y02035
X02235Y02055
X023279Y02094
X023029Y02144
X02306Y02269
X02277Y02267
X02389Y02396
X024529Y02444
X025029
X02497Y0255
X02543Y02557
X025779Y02394
X024779Y02994
X024279
X024529Y03044
X025029
X024779Y03094
X024279
X023779
X023279
X022779
X022279
X021779
X021279
X020779
X020279
X019779
X019279
X018779
X018279
X017779
X018029Y03144
X018529
X019029
X019529
X020029
X020529
X021029
X021529
X022029
X022529
X023029
X023529
X024029
X024529
X025029
X024779Y03294
X024279
X023779
X023279
X022779
X022279
X021779
X021279
X020779
X020279
X019779
X019279
X018779
X018279
X017779
X017279
X016779
X016279
X016529Y03344
X017029
X017529
X018029
X018529
X019029
X019529
X020029
X020529
X021029
X021529
X022029
X022529
X023029
X023529
X024029
X024529
X025029
X024029Y03044
X023529
X023029
X022529
X022029
X021529
X021029
X020529
X020029
X019529
X019029
X018529
X018779Y02994
X019279
X019779
X020029Y02944
X019529
X019779Y02894
X020279
X020779
X021029Y02844
X020529
X020779Y02794
X021279
X021779
X022029Y02744
X021529
X022279Y02894
X017529Y03144
X016029Y03344
X013529
X011529Y02244
X015279Y02194
X015529Y02144
X015029
X015279Y02094
X015029Y02044
X026279Y01994
X026779
X027279
X027779
X028279
X028529Y02044
X02836Y02096
X028779Y02094
X029029Y02144
X028779Y02194
X02868Y02257
X02921Y02322
X02898Y0235
X02867Y02548
X0261894Y02522
X0266Y02231
X02684Y02214
X02709Y02196
X02733Y02177
X02763Y02156
X02768Y02118
X02812
X027529Y01944
X027029
X026529
X026779Y01894
X027279
X026279
X028779Y01794
X029279
X029779
X030279
X030779
X031279
X031779
X032279
X032029Y01844
X031529
X031029
X030529
X030029
X02952Y01866
X02979Y01916
X03007Y01954
X030529Y01944
X031029
X031529
X032029
X032279Y01994
X031779
X032029Y02044
X032279Y02094
X031779
X03117Y02032
X03045Y01998
X030279Y01894
X030779
X031279
X031779
X032279
X033279
X034279
X034779
X035029Y01944
X034529
X034779Y01994
X034279
X034529Y02044
X035029
X034779Y02094
X034279
X034529Y02144
X034279Y02194
Y02294
X034529Y02344
X034279Y02394
X034529Y02444
X034279Y02494
X034529Y02544
X033279Y02594
Y02694
Y02794
X034279
Y02894
Y02994
Y03094
Y03194
Y03294
X035279
X035529Y03244
X036529
X037029
X037529
X037779Y03294
X037279
X036779
X036279
X036529Y03344
X037029
X037529
X037279Y03194
X036779
X036279
X036529Y03144
X036279Y02994
X033279
Y03094
Y03194
Y03294
X032279
X031779
X031279
X031529Y03244
X032029
X031029
Y03344
Y03144
Y02944
Y02844
Y02744
X031529
X032029
X032279Y02694
X031779
X031279
X031529Y02644
X032029
X032279Y02594
X031779
X031279
X031029Y02644
X03102Y02481
X03117Y02423
X033279Y02394
Y02494
Y02294
Y02194
Y02094
Y01994
Y01794
X034279
X034779
X035029Y01844
X034529
X036029
X036529
X037029
X037529
X038029
X038529
X039279Y01894
X039029Y01944
X03906Y01993
X0388Y02019
X039529Y02044
X039779Y02094
X040279
X040779
X041279
X041529Y02244
X041029
X040529
X040029
X039529
X039029
X038779Y02194
X038279
X037779
X037279
X036779
X037029Y02144
X037529
X038029
X038529
X038279Y02094
X037779
X037279
X036779
X036279
X036529Y02144
Y02044
X037029
X037529
X037279Y01994
X036779
X036279
X036029Y02044
Y01944
X036529
X037029
X037529
X037279Y01894
X036779
X036279
Y01794
X036779
X037279
X037779
X04129Y01906
X0417011Y0187189
X04007Y02366
X040279Y02594
X040529Y02644
X039279Y02694
Y02794
X038779
X038279
X039029Y02844
X039279Y02894
X039779
X040029Y02944
X040279Y02994
X041029Y03044
X040779Y03194
X040529Y03244
X040779Y03294
X040529Y03344
X04139Y0282
X04133Y02789
X03809Y02424
X03804Y02279
X03846Y02269
X0368846Y02273
X0366095Y02323
X0362253Y02373
X033279Y02894
X02919Y03013
X02898Y03063
X029029Y03144
X028779Y03194
X029029Y03244
X028779Y03294
X029029Y03344
X042029Y03244
X042529
X044029
X044529
X045029
X045529
X045779Y03194
X046279
X046029Y03144
X045529
X045029
X044529
X044029
X044279Y03194
X044779
X045279
Y03094
X045779
X046279
X046029Y03044
X045529
X045029
X044529
X044029
X044279Y03094
X044779
Y02994
X045279
X045779
X046279
X046029Y02944
X045529
X045029
X045279Y02894
X045779
X046279
X046779
X047029Y02844
X047529
X047279Y02794
X047779
X048279
X048779
X049279
X049779
X050279
X050779
X051279
X051779
X052279
X052779
X053279
X053779
X054279
X054779
X055279
X055779
X056029Y02844
X055529
X055029
X054529
Y02744
X055029
X055529
X055779Y02694
X055279
X054779
X054279
X053779
X053279
X052779
X052279
X051779
X051279
X050779
X050279
X049779
X049279
X048779
X048279
X047779
X047279
X046779
X046279
X045779
X045279
X044779
X044279
X044529Y02744
X045029
X045529
X046029
X046529
X047029
X047529
X048029
X048529
X049029
X049529
X050029
X050529
X051029
X051529
X052029
X052529
X053029
X053529
X054029
Y02644
X054529
X055029
X055529
X055779Y02594
X055279
X054779
X054279
X053779
X053279
X052779
X052279
X051779
X051279
X050779
X050279
X049779
X049279
X048779
X048279
X047779
X047279
X046779
X046279
X045779
X045279
X044779
X044279
X044529Y02644
X045029
X045529
X046029
X046529
X047029
X047529
X048029
X048529
X049029
X049529
X050029
X050529
X051029
X051529
X052029
X052529
X053029
X053529
Y02544
X054029
X054529
X055029
X055529
X054779Y02494
X054279
X053779
X053279
X052779
X052279
X051779
X051279
X050779
X050279
X049779
X049279
X048779
X048279
X047779
X04769Y02444
X047029Y02444
X046529
X046029
X045529
X045029
X044529
X044029
X044279Y02394
X044779
X045279
X045779
X046279
X046779
X047279
X047029Y02344
X046529
X046029
X045529
X045029
X044529
X044029
X044279Y02294
X044779
X045279
X045779
X046279
X046779
X047279
X047029Y02244
X046529
X046029
X045529
X045029
X044529
X044029
X042029
X04188Y02326
X0424743Y0233958
X041779Y02094
X04202Y01991
X04246Y01988
X047029Y01944
X0470592Y0189288
X04699Y02044
X048529Y01944
X050029
Y01844
X051529
Y01944
Y02044
Y02144
X051029
X050529
X050029
X050279Y02194
X050779
X051279
X051779
X052029Y02244
X052529
X052779Y02294
X052279
X051779
X051279
X050779
X050279
X049779
X049279
X048779
X048279
X048529Y02344
X049029
X049529
X050029
X050529
X051029
X051529
X052029
X052529
X053029
X053529
X053779Y02394
X053279
X052779
X052279
X051779
X051279
X050779
X050279
X049779
X049279
X048779
X048279
X048529Y02444
X049029
X049529
X050029
X050529
X051029
X051529
X052029
X052529
X053029
X053529
X054029
X054529
X057029
X057279Y02394
X057029Y02344
X057279Y02294
X057029Y02244
X057279Y02194
X057029Y02144
X057279Y02094
X057029Y02044
X057279Y01994
X057029Y01944
X057279Y01894
X057029Y01844
X057279Y01794
X054779
Y01894
X051529Y02244
X051029
X050529
X050029
X049529
X049029
X048529
X049779Y02194
X050029Y02544
X050529
X051029
X051529
X052029
X052529
X053029
X049529
X049029
X048529
X048029
X047529
X047029
X046529
X046029
X045529
X045029
X044529
X044029Y02744
X044279Y02794
X044779
X045279
X045779
X046279
X046779
X046529Y02844
X046029
X045529
X045029
X044779Y02894
X043779Y02794
X0429Y02793
X043779Y03094
Y03194
X046779Y03294
X046529Y03344
X047529Y03244
X049529
X050029
X050529
X051029
X051529
X052029
X052529
X052779Y03194
X052279
X051779
X051279
X050779
X051029Y03144
X051529
X052029
X052529
X053029
X053529
X054029
X054529
X054029Y03044
X053529
X053029
X052529
X052029
X051529
X051029
X051279Y02994
X051779
X052279
X052779
X053279
X053779
X054279
X054779
X055779
X056279
X056779
X056529Y02944
X056029
X055529
X055779Y02894
X056279
X056779
X055279
X054029Y02944
X053529
X053029
X052529
X052029
X051529
X051029
X050529
X050029
X049529
X049029
X0479729Y03053
X050779Y02994
Y03294
X051279
X051779
X051529Y03344
X053029
X053279Y03294
X050279
X049779
X049279
X056779
Y03194
X057029Y02744
X057279Y02694
X057029Y02644
X057279Y02594
X057029Y02544
X057279Y02494
X057529Y02444
Y02344
Y02244
Y02144
Y02044
Y01944
Y01844
Y02544
Y02644
Y02744
X056779Y03394
Y03494
Y03594
Y03694
Y03794
Y03894
Y03994
Y04094
Y04194
X056529Y04244
X056029
X055529
X055029
X054529
X054029
X053529
X053029
X052529
X052029
X051529
X051029
X050529
X050029
X049529
X049029
X048529
X048029
X047529
X047029
X046529
X046029
X045529
X045029
X044529
X044029
X043529
X043029
X042779Y04194
X043279
X043779
X044279
X044779
X045279
X045779
X046279
X046779
X047279
X047779
X048279
X048779
X049279
X049779
X050279
X050779
X051279
X051779
X052279
X052779
X053279
X053779
X054279
X054529Y04144
X054029
X053529
X053029
X052529
X052779Y04094
X053279
X053779
X054279
X054529Y04044
X054029
X053529
X053779Y03994
X054279
X054529Y03944
X054279Y03894
X054529Y03844
X053779Y03794
X053279
X053029Y03844
X053279Y03894
X052779
X052279
X052529Y03944
X052029
X052279Y03994
X051779
X051279
X050779
X050279
X051529Y04044
X052029
X051279Y04094
X0487597Y04091
X047779Y04094
X047279
X046779
X046279
X045779
X045279
X044779
X045029Y04144
X045529
X046029
X046529
X047029
X047529
X048029
X047529Y04044
X047029
X046529
X046029
X045529
X045029
Y04344
X045529
X046029
X046529
X047029
X047529
X048029
X048529
X049029
X049529
X050029
X050529
X051029
X051529
X052029
X052529
X052279Y04394
X051779
X051279
X051529Y04444
X052029
X052529
X052279Y04494
X051779
X052029Y04544
X052529
X052279Y04594
X051639Y045921
X051529Y04544
X050689Y045921
X049639
X048589
X049029Y04744
X050029
X051029
X052029
X052529
X052279Y04794
X052529Y04844
X052279Y04694
X052529Y04644
X053529
X054029
X054279Y04594
X053779
X053279
X053529Y04544
X054029
X054529
X054779Y04494
X055279
X055779
X056029Y04444
X056529
X056779Y04494
Y04394
X056279
X055779
X055279
X054779
X054279
X053779
X053279
X053529Y04344
X054029
X054529
X055029
X055529
X056029
X056529
X056779Y04294
X056279
X055779
X055279
X054779
X054279
X053779
X053279
X053529Y04444
X054029
X054529
X055029
X055529
X054279Y04494
X053779
X053279
Y04694
X053779
X053529Y04744
X054779Y04894
X047779
X047279
X046779
X046279
X045779
X045279
X044779
X044279
X043779
X043279
X042779
X042279
X041779
X042029Y04844
X041779Y04794
X042029Y04744
X042529
X043529
X044529
X045529
X046529
X047029
X047529
X048029
X047779Y04794
X047279
X046779
X047029Y04844
X047529
X046529
X046779Y04694
X047279
X047029Y04644
X046529
Y04544
X047029
X047279Y04494
X046779
X046279
X046029Y04544
X046019Y045921
X044999
X043979
X04261Y0463
X0419826Y0463126
X043029Y04344
X043529
X044029
X044529
X0427Y0396
X04201Y03576
X0419035Y03487
X04193Y03409
X042779Y03394
X043779
X044279
X044779
X045279
X045779
X045529Y03444
X044029
Y03544
X043779Y03594
X04838Y03596
X0484Y03421
X047779Y03394
X04832Y03772
X0483006Y03874
X0483Y03955
X051529Y03844
X051779Y03794
X052029Y03744
X052529
X052779Y03694
X053029Y03644
X053529
X053779Y03594
X054029Y03544
X054529
X054279Y03694
X054029Y03744
X053029Y03944
X051279Y03694
X051529Y03644
X051029
X050529
X050029
X051779Y03594
X052279
X052529Y03544
X052779Y03494
X053279
X053529Y03444
X053779Y03394
X054279
X052279
X052029Y03444
X051279Y03494
X0413486Y0358358
X03893Y03566
X03896Y03528
X03898Y03491
X03948Y03469
X03993Y03441
X03948Y0338
X03923Y03405
X037279Y03394
X036779
X036279
X036529Y03444
X036279Y03494
Y03694
X036779
X037279
X037529Y03644
X038029
X038529
X039029
X038279Y03594
X037779
X038029Y03544
X037029Y03644
Y03744
X036529
X036779Y03794
X037279
X037529Y03844
X037029
X036529
X036029
X035529
X035029
X035279Y03794
X035779
X036279
X034779
X034279
X034529Y03744
X034279Y03694
Y03594
Y03494
Y03394
X033279
X03262Y03382
X033279Y03494
Y03594
Y03694
Y03794
X032279
X031779
X031279
X030779
X030279
X030529Y03744
X031029
X030779Y03694
X030279
X029779
X029279
X029529Y03644
X030029
X03045Y03633
Y03583
Y03533
Y03483
X031029Y03444
X029029
X028779Y03494
X029029Y03544
X029279Y03594
X028779
X029029Y03644
X030029Y03744
X031029Y03844
X031529
X032029
X032279Y03894
X031779
X031279
X03087Y0392
X0308577Y0397077
X03085Y04024
X0308254Y0406954
X0308177Y0411177
X03073Y04147
X03072Y04188
X0307Y0423
X03051Y04266
X03037Y04304
Y04346
X030279Y04394
X029779
X029279
X028779
X028279
X027779
X028029Y04444
X028529
X029029
X029529
X030029
X030529
X030779Y04494
X031279
X031529Y04544
X031029
X030529
X030029
X029529
X029029
X028529
X028029
X028279Y04594
X028779
X029279
X029779
X030279
X030779
X031279
X031779
X031529Y04644
X031029
X030529
X030029
X029529
X029029
X028529
X028029
X028279Y04694
X028779
X029279
X029779
X030279
X030779
X031279
X031779
X031529Y04744
X031029
X030529
X030029
X029529
X029029
X028529
X028029
X028279Y04794
X028779
X029279
X029779
X030279
X030779
X031279
X031779
X031529Y04844
X031029
X030529
X030029
X029529
X029029
X028529
X028029
X028279Y04894
X028779
X029279
X029779
X030279
X030779
X031279
X031779
X033279
X033779
X034279
X034779
X035279
X035779
X036279
X036779
X037279
X037779
X038279
X038779
X039279
X039779
X040279
X040779
X041279
X041529Y04844
X04141Y04764
X040529Y04744
X040029
X039529
X039779Y04794
X040279
Y04694
X040779
X039779
X040029Y04644
X039529
X039279Y04594
X038779
X038279
X036919Y04635
X036419Y04649
X034529Y04644
X034029
X033529
X033029
X033279Y04694
X033529Y04744
X033029
X033279Y04794
X033529Y04844
X034029
X034529
X035029
X035529
X036029
X035779Y04794
X035279
X034779
X03478Y0470694
X033029Y04844
X037779Y04794
X038279
X038779
X039279
X039529Y04344
X040029
X040529
X041029
Y04244
X040529
X040029
X039529
X039029
X038529
X038029
X037529
X037779Y04194
X038279
X038779
X039279
X039779
X040279
X040779
X041029Y04144
X040029
X039529
X039029
X038529
X038029
X037529
X037029
X036529
X036779Y04094
X037279
X037779
X038279
X038779
X039279
X039779
X040029Y04044
X039529
X039029
X038529
X038029
X037529
X037029
X036529
X036029
X035529
X035779Y04094
X036279
Y03994
X036779
X037279
X037779
X038279
X038779
X039279
Y03794
X04133Y03946
X04157Y03969
X035779Y03994
X035279
X034779
X034529Y03944
X033029
X032529
X032029
X032279Y03994
X032779
X033279
X033029Y04044
X033279Y04094
X034529Y04144
X034779Y04194
X034279
X035029Y04244
X035529
X035779Y04294
X035279
X036029Y04344
X036529
X037029
X038529
X039029
X037279Y04194
X029279Y04294
X028779
X028279
X027779
X027279
X026779
X026279
X026529Y04244
X027029
X027529
X028029
X028529
X028279Y04194
X027779
X027279
X026279
Y04094
Y03994
X027529Y04344
X028029
X028529
X029029
X029529
X029779Y04494
X030279
X029279
X028779
X028279
X027779
X026279
X027779Y04794
Y04894
X028779Y03394
X024779
X024279
X023779
X023279
X022779
X022279
X021779
X021279
X020779
X020279
X019779
X019279
X018779
X018279
X017779
X017279
X016779
X016279
X016529Y03444
X017029
X017529
X018029
X018529
X019029
X019529
X020029
X020529
X021029
X021529
X022029
X022529
X023029
X023529
X024029
X024529
X025029
X024779Y03494
X024279
X023779
X023279
X022779
X022279
X021779
X021279
X020779
X020279
X019779
X019279
X018779
X018279
X017779
X017279
X016779
X016279
X016529Y03544
X017029
X017529
X018029
X018529
X019029
X019529
X020029
X020529
X021029
X021529
X022029
X020779Y03594
X020279
X019779
X019279
X018779
X018279
X017779
X017279
X016779
X016279
X016529Y03644
X017029
X017529
X018029
X018529
X019029
X019529
X020029
X020529
X020279Y03694
X019779
X019279
X018779
X018279
X017779
X017279
X016779
X016279
X016529Y03744
X017029
X017529
X018029
X018529
X019029
X019529
X020029
X020529
X021029
X020779Y03794
X020279
X019779
X019279
X018779
X018279
X017779
X017279
X016779
X016279
X016529Y03844
X017029
X017529
X018029
X018529
X019029
X019529
X020029
X020529
X020279Y03894
X019779
X019279
X018779
X018279
X017779
X017279
X01686Y03911
X016279Y03894
X015779
X015279
X014779
X01493Y03856
X015529Y03844
X016029
Y03744
X01557Y03774
X01519Y0377
X01446Y03751
X014529Y03944
X015029
X015529
X015279Y03994
X014779
X015029Y04044
X014529
X014779Y04094
X014529Y04144
X014779Y04194
X01451Y04265
X0142Y04297
X014029Y04344
X013529
Y04444
X014029Y04544
X013779Y04594
X014029Y04644
X013529
X013779Y04694
X014029Y04744
X013529
X013779Y04794
X014029Y04844
X013529
X013779Y04894
X015029Y04844
X016029
Y04744
X01651Y04741
X01704Y04746
X01739Y04745
X018029Y04744
X018529
X018279Y04794
X017779
X018029Y04844
X018529
X018779Y04894
X018279
X017779
X020029Y04844
X020529
X021029
X021529
X022029
X022529
X022279Y04894
X021779
X021279
X020779Y04794
X020279
X019779
X020029Y04744
X019529
Y04544
X020029
X020529
X021029
X021529
X021279Y04494
X020779
X020279
X019779
X019279
X018779
X018279
X017779
X017279
X016779
X017029Y04544
X017529
X018029
X018529
X019029
Y04444
X019529
X020029
X020529
X021029
X021529
X021279Y04394
X020779
X021029Y04344
X021529
X021279Y04294
X020779
X021029Y04244
X021529
X021279Y04194
X020779
X020279
X019779
X019279
X018779
X018279
X017779
X017279
X016779
X017029Y04244
X017529
X017779Y04294
X017279
X016779
X017029Y04344
X017529
X017779Y04394
X017279
X016779
X017029Y04444
X017529
X018029
X018529
X016529
Y04544
X016029Y04644
X015029
Y04744
X01453Y04509
X016529Y04344
Y04244
Y04144
X017029
X017529
X018029
X018529
X019029
X019529
X020029
X020529
X021029
X021529
X021279Y04094
X020779
X020279
X019779
X019279
X018779
X018279
X017779
X017279
X016779
X017529Y03944
X021029
X022529
X023029
X023529
X024029
X024529
X025029
X024779Y03994
X024279
X023779
X023279
X022779
X022279
X022529Y04044
X023029
X023529
X024029
X024529
X025029
X024779Y04094
X024279
X023779
X023279
X023529Y04144
X024029
X024529
X025029
X024779Y04194
X024279
X023779
X023279
X023529Y04244
X024029
X024529
X025029
X024779Y04294
X024279
X023779
X023279
X023529Y04344
X024029
X024529
X025029
X026029
Y04244
Y04144
Y04044
X024779Y03894
X024279
X023779
X023279
X022779
X022279
X022529Y03844
X023029
X023529
X024029
X024529
X025029
X024779Y03694
X025029Y03644
X024029Y03744
X023779Y03794
X024029Y03544
X016029
Y03644
Y03444
X013529
Y03544
Y03644
X011529
X011029
X010529
X010779Y03694
X011279
X011779
Y03594
X011279
X010779
X011029Y03544
X011529
X011779Y03494
X011279
X010779
X011029Y03444
X011529
X011779Y03394
X011279
X010779
X010529Y03444
Y03544
X010779Y03894
X011279
X011779
X011529Y03944
X011029
X010529
X010779Y03994
X011279
X011779
X011529Y04044
X011029
X010529
X010779Y04094
X011279
X011779
X011529Y04144
X011029
X010529
X011029Y04344
Y04444
X011529
X010529
Y04644
X011029
X011529
X011779Y04694
X011279
X010779
X011029Y04744
X011529
X011779Y04794
X011279
X010779
X011029Y04844
X011529
X011779Y04894
X011279
X010779
X010529Y04844
Y04744
X013529Y04244
Y04144
Y04044
Y03944
X020529Y04244
Y04344
X023279Y04494
X023779
X024279
X024779
X025029Y04544
X024529
X024029
X023529
X023779Y04594
X024279
X024779
X024529Y04644
X024029
X023529
X023029
X022529
X022779Y04594
X023279
X022279
X026029Y04644
X025779Y04694
X026029Y04744
X025529
X025029
X025779Y04794
X026029Y04844
X024279Y04894
X023779
X026029Y04544
X009779Y04494
X010029Y04444
X009779Y04394
X01045Y04402
X008779Y04394
X008279
X007779
X007279
X006779
X006279
X006529Y04444
X007029
X007529
X008029
X008529
X008779Y04494
X008279
X007779
X007279
X006779
X006279
X006529Y04544
X007029
X007529
X008029
X008529
X008779Y04594
X008279
X007779
X007279
X006779
X006279
X005779
X005279
X005529Y04644
X006029
X006529
X007029
X007529
X008029
X008529
X009029
X009529
X010029
X010279Y04694
X009779
X009279
X008779
X008279
X007779
X007279
X006779
X006279
X005779
X005279
X004779
X004279
X003779
X003279
X002779
X002279
X001779
X002029Y04744
X002529
X003029
X003529
X004029
X004529
X005029
X005529
X006029
X006529
X007029
X007529
X008029
X008529
X009029
X009529
X010029
X010279Y04794
X009779
X009279
X008779
X008279
X007779
X007279
X006779
X006279
X005779
X005279
X004779
X004279
X003779
X003279
X002779
X002279
X001779
X002029Y04844
X002529
X003029
X003529
X004029
X004529
X005029
X005529
X006029
X006529
X007029
X007529
X008029
X008529
X009029
X009529
X010029
X010279Y04894
X009779
X009279
X008779
X008279
X007779
X007279
X006779
X006279
X005779
X005279
X004779
X004279
X003779
X003279
X002779
X002279
X001779
X001529Y04844
Y04744
X000279Y04794
Y04894
Y04694
Y04594
Y04494
X000529Y04444
X000279Y04394
Y04294
Y04194
Y04094
Y03994
Y03894
Y03794
Y03694
Y03594
Y03494
Y03394
X001779
X002279
X002779
X003279
Y03494
X003779
X004279
X004779
X005279
X005779
X006279
X006779
X007279
X007779
X008279
X008779
X009279
X009779
X010279
X010029Y03544
X009529
X009029
X008529
X008029
X007529
X007029
X006529
X006029
X005529
X005029
X005279Y03594
X005779
X006279
X006779
X007279
X007779
X008279
X008779
X009279
X009779
X010279
X010029Y03644
X009529
X009029
X008529
X008029
X007529
X007029
X006529
X006029
X005529
X005029
X004529
X004779Y03694
X005279
X005779
X006279
X006779
X007279
X007779
X008279
X008779
X009279
X009779
X010279
Y03894
X010029Y03944
X010279Y03994
X009779
X010029Y04044
X010279Y04094
X009779
X010029Y04144
X008529
X008029
X007529
X007029
X006529
X006779Y04194
X007279
X007779
X008279
X008779
X008529Y04244
X008029
X007529
X007029
X006529
X006779Y04294
X007279
X007779
X008279
X008779
X008529Y04344
X008029
X007529
X007029
X006529
X006279Y04294
Y04194
X006779Y04094
X007279
X007779
X008279
X008779
X008529Y04044
X008029
X007529
X007779Y03994
X008279
X008779
X008529Y03944
X008779Y03894
X008029Y03744
X007529
X007029
X006529
X006029
X005529
X005029
X004529
X003529
X003029
X002529
X002029
X002279Y03794
X002779
X003279
X003029Y03844
X002529
X002029
X002279Y03894
X002779
X003279
X003779
X003029Y03944
X002529
X002029
X002279Y03994
X002779
X003029Y04044
X002529
X002029
X002279Y04094
X002779
X003279
X003779
X004279
X004779
X005279
X005529Y04044
X005029
Y04144
X004529
X004029
X003529
X003029
X002529
X002029
X002279Y04194
X002779
X003279
X003779
X004279
X004779
X005029Y04244
X004529
X004029
X003529
X003029
X002529
X002029
X002279Y04294
X002779
X003279
X003779
X004279
X004779
X005029Y04344
X004529
X004029
X003529
X003029
X002529
Y04444
X003029
X003529
X004029
X004529
X004779Y04394
X003779Y04494
X003279
X002779
X002279
X001779
X002029Y04444
X001529
X001779Y04394
Y04294
Y04194
Y04094
Y03994
Y03894
Y03794
Y03694
X002279
X002779
X003279
X003529Y03644
X003029
X002529
X002029
X002279Y03594
X002779
X003279
X003529Y03544
X003029
X002529
X002029
X002279Y03494
X002779
X001779
Y03594
X004779
X005529Y03444
X006029
X006529
X007029
X007529
X008029
X008529
X009029
X009529
X010029
X010279Y03394
X009779
X009279
X008779
X008279
X007779
X007279
X006779
X006279
X005779
Y03794
X006279
X006779
X007279
X007029Y03844
X006529
X006029
X005529
X005029
X005279Y03894
X005779
X006279
X006029Y03944
X005529
X005029
X005279Y03794
X005529Y04544
X006029
X005029Y04644
X004529
Y04944
X005029
X005529
X006029
X006529
X007029
X007529
X008029
X008529
X009029
X009529
X010029
X010279Y04994
X009779
X009279
X008779
X008279
X007779
X007279
X006779
X006279
X005779
X005279
X004779
X004279
X003779
X003279
X002779
X002279
X001779
X001279
X000779
X000279
X000529Y05044
X001029
X001529
X002029
X002529
X003029
X003529
X004029
X004529
X005029
X005529
X006029
X006529
X007029
X007529
X008029
X008529
X009029
X009529
X010029
X010279Y05094
X009779
X009279
X008779
X008279
X007779
X007279
X006779
X006279
X005779
X005279
X004779
X004279
X003779
X003279
X002779
X002279
X001779
X001279
X000779
X000279
X000529Y05144
X001029
X001529
X002029
X002529
X003029
X003529
X004029
X004529
X005029
X005529
X006029
X006529
X007029
X007529
X008029
X008529
X009029
X009529
X010029
X010279Y05194
X009779
X009279
X008779
X008279
X007779
X007279
X006779
X006279
X005779
X005279
X004779
X004279
X003779
X003279
X002779
X002279
X001779
X001279
X000779
X000279
X000529Y05244
X001029
X001529
X002029
X002529
X003029
X003529
X004029
X004529
X005029
X005529
X006029
X006529
X007029
X007529
X008029
X008529
X009029
X009529
X010029
X010279Y05294
X009779
X009279
X008779
X008279
X007779
X007279
X006779
X006279
X005779
X005279
X004779
X004279
X003779
X003279
X002779
X002279
X001779
X001279
X000779
X000279
X000529Y05344
X001029
X001529
X002029
X002529
X003029
X003529
X004029
X004529
X005029
X005529
X006029
X006529
X007029
X007529
X008029
X008529
X009029
X009529
X010029
X010279Y05394
X009779
X009279
X008779
X008279
X007779
X007279
X006779
X006279
X005779
X005279
X004779
X004279
X003779
X003279
X002779
X002279
X001779
X001279
X000779
X000279
X000529Y05444
X001029
X001529
X002029
X002529
X003029
X003529
X004029
X004529
X005029
X005529
X006029
X006529
X007029
X007529
X008029
X008529
X009029
X009529
X010029
X010279Y05494
X009779
X009279
X008779
X008279
X007779
X007279
X006779
X006279
X005779
X005279
X004779
X004279
X003779
X003279
X002779
X002279
X001779
X001279
X000779
X000279
X000529Y05544
X001029
X001529
X002029
X002529
X003029
X003529
X004029
X004529
X005029
X005529
X006029
X006529
X007029
X007529
X008029
X008529
X009029
X009529
X010029
X010279Y05594
X009779
X009279
X008779
X009029Y05644
X009529
X010029
X010279Y05694
X009779
X009279
X008779
X009029Y05744
X009529
X010029
X010279Y05794
X009779
X009279
X008779
X008279
X008529Y05744
Y05644
X007279Y05694
Y05794
X006279
Y05694
Y05594
X007279
X005279
Y05694
Y05794
X004279
X003779
X003279
X002779
X002279
X002529Y05744
X003029
X003529
X004029
X004279Y05694
X003779
X003279
X002779
X003029Y05644
X003529
X004029
X004279Y05594
X003779
X003279
X002779
X002279
X001779
X002529Y05644
X000279Y05594
X000529Y04944
X001029
X001529
X002029
X002529
X003029
X003529
X004029
X010529
X011029
X011529
X011779Y04994
X011279
X010779
X011029Y05044
X011529
X011779Y05094
X011279
X010779
X011029Y05144
X011529
X012029
X012529
X013029
X013529
X014029
X014279Y05194
X014779
X015029Y05244
X014529
X014029
X013529
X013029
X013279Y05294
X013779
X014279
X014779
X015279
X015779
X016029Y05344
X015529
X015029
X014529
X014029
X013529
X013779Y05394
X014279
X014779
X015279
X015779
X016279
X016779
X016529Y05444
X016029
X015529
X015029
X014529
X014029
X013529
X013029
X012529
X012029
X011529
X011029
X010529
X010779Y05494
X011279
X011779
X012279
X012779
X013279
X013779
X014279
X014779
X015279
X015779
X016279
X016779
X016529Y05544
X016029
X015529
X015029
X014529
X014029
X013529
X013029
X012529
X012029
X011529
X011029
X010529
X010779Y05594
X011279
X011779
X012279
X012779
X013279
X013779
X014279
X014779
X015279
X015779
X016279
X016779
X016529Y05644
X016029
X015529
X015029
X014529
X014029
X013529
X013779Y05694
X014279
X014779
X015279
X015779
X016279
X016779
Y05794
X017279
X016279
X015779
X015279
X014779
X014279
X013779
X013279
X012779
X012279
X011779
X011279
X010779
X011029Y05744
X010529
X010779Y05694
X011279
X011779
X012029Y05644
X011529
X011029
X010529
X010779Y05394
X011279
X011779
X012279
X012029Y05344
X011529
X011029
X010529
X010779Y05294
X011279
X011779
X012279
X012779
X013279Y05394
Y05194
X013779
X015529Y05144
X016029
X016529
X017279Y05294
X017779
X018279
X018029Y05344
X0193705Y0533894
X019029Y05244
X021029
X021529
X022029
X022529
X023029
X023529
X024029
X024529
X025029
X025529
X026029
X025779Y05294
X025279
X024779
X024279
X023779
X023279
X022779
X022279
X021779
X021279
X020779
X021029Y05344
X021529
X022029
X022529
X023029
X023529
X024029
X024529
X025029
X025529
X026029
X025779Y05394
X025279
X024779
X024279
X023779
X023279
X023529Y05444
X024029
X024529
X025029
X025529
X026029
X025779Y05494
X025279
X024779
X024279
X023779
X023279
X023529Y05544
X024029
X024529
X025029
X025529
X026029
X025779Y05594
X025279
X024779
X024279
X023779
X023279
X023529Y05644
X024029
X024529
X025029
X025529
X026029
X025779Y05694
X025279
X024779
X024279
X023779
X023279
X022779
X022279
X022529Y05744
X023029
X023529
X024029
X024529
X025029
X025529
X026029
X025779Y05794
X025279
X024779
X024279
X023779
X023279
X022779
X022279
X021779
X022029Y05744
X022529Y05644
X023029
X0198435Y0562335
X0198465Y0554835
X021029Y05444
X01819Y05477
X018029Y05744
X01942Y0573
X016029Y05744
X015529
X015029
X014529
X014029
X013529
X013029
X013279Y05694
X011029Y05244
X010529
X010779Y05194
X011279
X010529Y05144
Y05044
X013529Y04944
X014029
X015029
X016029
X018529
X019029
X019529
X019279Y04994
X018779
X019529Y05044
X019779Y05094
X021279
X021779
X022279
X022779
X023279
X023529Y05044
X024029
X024279Y04994
X023779
X023279
X022779
X022279
X02233Y04939
X023029Y04944
X023529
X024029
X024529
X023029Y05044
X022529
X022029
X021529
X021029Y04944
X025779Y05094
X026029Y05144
X025529
X025779Y05194
X025279
X024779
X026279
X026779
X027279
X027529Y05244
X027029
X026529
X026779Y05294
X027279
X027779
X027529Y05344
X027029
X026529
X026779Y05394
X027279
X027779
X027529Y05444
X027029
X026529
X026779Y05494
X027279
X027529Y05544
X027029
X026529
X026779Y05594
X027279
X027779
X027029Y05644
X026529
X026779Y05694
X026279
Y05594
Y05494
Y05394
Y05294
X026529Y05144
X026279Y05094
X028029Y05044
X028529
X029029
X029529
X030029
X030529
X031029
X031529
X032029
X032279Y05094
X031779
X031279
X030779
X030279
X029779
X029279
X028779
X029029Y05144
X029529
X030029
X030529
X031029
X031529
X032029
X032279Y05194
X031779
X031279
X030779
X030279
X029779
X030029Y05244
X030529
X031029
X031529
X032029
X032279Y05294
X031779
X031279
X030779
X030279
X029779
X030029Y05344
X030529
X031029
X031529
X032029
X032279Y05394
X031779
X031279
X030779
X030279
X029779
X030029Y05444
X030529
X031029
X031529
X032029
X032279Y05494
X031779
X031279
X030779
X030279
X029779
X030029Y05544
X030529
X031029
X031529
X032029
X032279Y05594
X031779
X031279
X030779
X030279
X029779
X030029Y05644
X030529
X031029
X031529
X032029
X032279Y05694
X031779
X031279
X030779
X030279
X029779
X029529Y05644
Y05544
Y05444
Y05344
Y05244
X029779Y04994
X030279
X030779
X031279
X031779
X031529Y04944
X031029
X030529
X030029
X029529
X029029
X028529
X028029
X027529
X027779Y04994
X028279
X028779
X029279
X034279
X034779
X035029Y05144
X035279Y05194
X034779
X034279
X033779
X033279
X033529Y05244
X034029
X034529
X035029
X035529
X036029
X036529
X036279Y05194
X035779
X035279Y05294
X034779
X034279
X033779
X033279
X033529Y05344
X034029
X034529
X035029
X035279Y05394
X034779
X034279
X033779
X033279
X033529Y05444
X034029
X034529
X035029
X035279Y05494
X034779
X034279
X033779
X033279
X033529Y05544
X034029
X034529
X035029
X034779Y05594
X035279
X035779
X036279
X036029Y05644
X035529
X035029
X034529
X034029
X033529
X033779Y05694
X034279
X034779
X035279
X035779
X035529Y05744
X035029
X034529
X034029
X033529
X033779Y05794
X034279
X034779
X035279
X035779
X033279
Y05694
Y05594
X033779
X034279
X037779
X038279
X038779
X039279
X039779
X040279
X040779
X041279
X041529Y05644
X041029
X040529
X040029
X039529
X039029
X038529
X038779Y05694
X039279
X039779
X040279
X040779
X041279
X041529Y05744
X041029
X040529
X040029
X039529
X039029
X038529
X038779Y05794
X039279
X039779
X040279
X040779
X041279
X041529Y05544
X041029
X040529
X040029
X039529
X039029
X039279Y05494
X039779
X040279
X040779
X041279
X041029Y05444
X040529
X040029
X039529
X039029
X039279Y05394
X039779
X040279
X040029Y05344
X039529
X039029
X039279Y05294
X039779
X040279
X040029Y05244
X039529
X039029
X038529
X038029
X038279Y05194
X038779
X039279
X039779
X040279
X040029Y05144
X039529
X039779Y05094
X040279
X040029Y05044
X039529
X039779Y04994
X040279
X039279
X038779
X041279
X041529Y05044
X041029
X041279Y05094
X041529Y05144
X041029
X041279Y05194
X041029Y05244
X0417629Y0525386
X041029Y05344
Y04944
X041529
X037279Y05394
X032029Y05744
X031529
X031029
X030529
X030779Y05794
X031279
X031779
X032279
X030279
X028779
X028279
X027779
X041779
X042279
X042779
X043279
X043779
X044279
X044779
X045279
X045779
X046279
X046779
X047279
X047779
X048279
X048779
X049279
X049779
X050279
X050779
X051279
X051779
X052279
X052779
X053279
X053779
X054279
X054779
X055279
X055029Y05744
X054529
X054029
X053529
X053029
X052529
X052029
X051529
X051029
X050529
X050029
X049529
X049029
X048529
X048029
X047529
X047029
X046529
X046029
X045529
X045029
X044529
X044029
X043529
X043029
X042529
X042029
X041779Y05694
X042279
X042779
X043279
X043779
X044279
X044779
X045279
X045779
X046279
X046779
X047279
X047779
X048279
X048779
X049279
X049779
X050279
X050779
X051279
X051779
X052279
X052779
X053279
X053779
X054279
X054779
X055029Y05644
X054529
X054029
X053529
X053779Y05594
X054279
X054779
X055279
X055529Y05544
X055029
X054529
X054029
X053529
X053779Y05494
X054279
X054779
X055279
X055779
X056279
X056779
X057279
X057029Y05544
X056529
X056029
Y05444
X056529
X057029
X057279Y05394
Y05594
Y05794
X055529Y05444
X055029
X054529
X054029
X053529
X053029
X054779Y05394
X05212Y05272
X05148Y0525386
X05082Y05252
X0501943Y0525386
X049639Y052549
X0489086Y0525386
X04825Y05257
X0476229Y0525386
X047029Y05244
X047279Y05194
X046779
X047029Y05144
X047529
X047279Y05094
X046779
X046529Y05144
X0462657Y05253
X0456286Y0525386
X0449771Y05253
X04434Y0525386
X0436886Y05253
X0430514Y0525386
X0424Y05253
X041779Y05194
X042029Y05144
X041779Y05094
X042029Y05044
X042279Y04994
X041779
X042029Y04944
X042529
X042779Y05494
X043279
X043779
X044279
X044779
X045279
X045779
X046279
X046779
X047279
X047779
X048279
X048779
X049029Y05544
X048529
X048029
X047529
X047029
X046529
X046029
X045529
X045029
X044529
X044029
X043529
X043029
X042529
X042029
X042279Y05594
X042779
X043279
X043779
X044279
X044779
X045279
X045779
X046279
X046779
X047279
X047779
X048279
X048779
X049029Y05644
X048529
X048029
X047529
X047029
X046529
X046029
X045529
X045029
X044529
X044029
X043529
X043029
X042529
X042029
X041779Y05594
Y05494
X042279
X0436929Y054389
X047029Y05344
X046779Y05294
X0495486Y0543876
X050779Y05494
X051279
X051529Y05544
X051029
X051279Y05594
X050779
X051029Y05644
X051529
X052279Y05094
X053279
X053779
X054029Y05044
X053529
X053779Y04994
X054029Y04944
X054529
X057529Y05344
Y05444
Y05544
Y05644
T03
X04502Y01257
X0459481Y0131019
X04959Y01257
X03882Y01219
X03746Y01162
X03765Y00615
Y00505
X03646Y01645
X03406
X03283Y01533
X0411226Y0157422
X0410172Y0172972
X0157Y01533
X00724Y01618
X01848Y01958
X01993Y0231
X02229Y022
X0117Y03211
X03283Y02866
X03471Y02863
X0337965Y02702
X0355906Y02558
X03622Y02223
X03275
X0398733Y0196767
X03935Y02979
X0412Y0331
X04671Y02966
X03654Y04229
X03242Y05012
T04
X00098Y0432172
Y0440046
Y044792
Y0455794
Y0463668
Y0471542
Y0479416
Y048729
T05
X05093Y00429
T06
X0416258Y02893
X0423258
X04229Y0405569
X04159
T07
X03959Y00136
X04059
X04159
X04259
X04359
X04459
X04559
X04659
X04759
X04859
X04959
Y00236
X04859
X04759
X04659
X04559
X04459
X04359
X04259
X05116Y01147
X05216
X05545Y01381
X05645
Y01481
Y01581
X05545
Y01681
Y01781
X05645
Y01681
X05545Y01481
X04159Y00236
X04059
X03959
X02364Y02967
X02264
X02164
X02064
X04868Y02875
X04968
X05523Y0307
X05623
Y0317
Y0327
X05523
Y0317
X05545Y02481
X05645
Y02381
Y02281
Y02181
X05545
Y02281
Y02381
Y02081
X05645
Y01981
Y01881
X05545
Y01981
X05523Y0337
X05623
Y0347
Y0357
X05523
Y0367
X05623
Y0377
Y0387
X05523
Y0397
Y0407
X05623
Y0397
Y0417
X05523
Y0377
Y0347
X05541Y04553
X05641
Y04653
Y04753
Y04853
X05541
Y04753
Y04653
X00404Y0357675
Y033799
X00487Y05648
X00587
X00687
X00787
Y05748
X00687
X00587
X00487
X05541Y05353
Y05253
X05641
Y05153
Y05053
Y04953
X05541
Y05053
Y05153
X05641Y05353
T09
X005079Y0082523
T10
X0541Y00916
X00533Y00627
X00902Y0166
X00846Y02634
X01272Y02098
X02693Y04543
X02391Y05168
X01271Y05053
T11
X023871Y0367057
X036629Y0572994
X037629Y05726
T12
X022871Y0357057
X024871
Y0377057
X022871
T13
X0272475Y0568867
X0291569
T14
X0011811Y0019685
X0562992
X0011811Y0570866
X0562992
M30
