M48
;Layer_Color=9474304
;FILE_FORMAT=4:4
METRIC,LZ
;TYPE=PLATED
T01F00S00C0.3048
T03F00S00C0.6700
T04F00S00C0.7000
T05F00S00C0.8128
T06F00S00C0.9000
T07F00S00C1.0000
T08F00S00C1.1000
T09F00S00C1.2000
T10F00S00C1.4000
T11F00S00C1.5240
T12F00S00C1.7000
T13F00S00C2.5000
%
T01
X0264295Y0031123
X0265295
Y0032123
X0264295
T03
X03354497Y0114966
Y0120746
T04
X0273304Y0320882
Y0330882
X0327914
Y0320882
X0332486Y0425403
Y0435403
T05
X0323596Y0121666
X0325374
T06
X0173101Y0034544
Y0037084
Y0039624
X0180467Y0030988
Y0028448
X0346867Y00318875
X0351917
X0356967
Y00015875
X0351917
X0346867
X0364567
X0369617
X0374667
Y00318875
X0369617
X0364567
X0285115Y0076708
Y0079248
X0198247Y0078994
Y0076454
Y0073914
X0173101Y0042164
X0198247Y0081534
Y0084074
X0213614Y0094488
Y0097028
X0229362
Y0094488
Y0091948
Y0089408
X0276987Y0113792
Y0116332
Y0118872
X0285115Y0097028
Y0094488
Y0091948
Y0089408
Y0086868
Y0084328
Y0081788
X0388493Y0118872
Y0121412
X0276987
X0238379Y020574
Y022624
X0351536Y0319659
X0219456Y0441833
Y0444373
Y0446913
Y0449453
Y0451993
X019812
Y0449453
Y0446913
Y0444373
Y0441833
T07
X023368Y0062357
X0231267Y0215599
Y0225599
X0309245Y032012
Y033012
X0279273Y0433324
T08
X0269875Y0215646
Y0223146
X0221234Y0220693
Y0210693
X0351536Y0329659
X036703Y0327667
Y0320167
T09
X0245364Y0212217
X0250444
Y0222917
X0245364
T10
X0382016Y031239
Y03174901
Y03225903
Y03276899
T11
X01554475Y00393617
X01614475Y00373618
X01674475Y00393617
X0198216Y00385879
X0204216Y00365879
X0210216Y00385879
X02102155Y00507882
X01982165Y00507881
X0167447Y00515621
X0155448Y0051562
T12
X0389636Y019558
Y021798
T13
X020177Y0209677
X019177
M30
