  0
SECTION
  2
HEADER
  9
$ACADVER
  1
AC1009
  9
$INSBASE
 10
0.0
 20
0.0
 30
0.0
  9
$EXTMIN
 10
394.0968529551000188
 20
612.8880609824998373
 30
0.0
  9
$EXTMAX
 10
615.0968529551000756
 20
844.3880603268999039
 30
0.0
  9
$LIMMIN
 10
0.0
 20
0.0
  9
$LIMMAX
 10
1485.0
 20
1050.0
  9
$ORTHOMODE
 70
     0
  9
$REGENMODE
 70
     1
  9
$FILLMODE
 70
     1
  9
$QTEXTMODE
 70
     0
  9
$MIRRTEXT
 70
     1
  9
$DRAGMODE
 70
     2
  9
$LTSCALE
 40
5.0
  9
$OSMODE
 70
    39
  9
$ATTMODE
 70
     1
  9
$TEXTSIZE
 40
17.5
  9
$TRACEWID
 40
1.0
  9
$TEXTSTYLE
  7
STANDARD
  9
$CLAYER
  8
0
  9
$CELTYPE
  6
BYLAYER
  9
$CECOLOR
 62
   256
  9
$DIMSCALE
 40
1.0
  9
$DIMASZ
 40
15.0
  9
$DIMEXO
 40
5.0
  9
$DIMDLI
 40
3.75
  9
$DIMRND
 40
0.0
  9
$DIMDLE
 40
0.0
  9
$DIMEXE
 40
5.0
  9
$DIMTP
 40
0.0
  9
$DIMTM
 40
0.0
  9
$DIMTXT
 40
17.5
  9
$DIMCEN
 40
2.5
  9
$DIMTSZ
 40
0.0
  9
$DIMTOL
 70
     0
  9
$DIMLIM
 70
     0
  9
$DIMTIH
 70
     1
  9
$DIMTOH
 70
     1
  9
$DIMSE1
 70
     0
  9
$DIMSE2
 70
     0
  9
$DIMTAD
 70
     1
  9
$DIMZIN
 70
     0
  9
$DIMBLK
  1

  9
$DIMASO
 70
     1
  9
$DIMSHO
 70
     1
  9
$DIMPOST
  1

  9
$DIMAPOST
  1

  9
$DIMALT
 70
     0
  9
$DIMALTD
 70
     3
  9
$DIMALTF
 40
0.0393700787
  9
$DIMLFAC
 40
1.0
  9
$DIMTOFL
 70
     1
  9
$DIMTVP
 40
0.0
  9
$DIMTIX
 70
     0
  9
$DIMSOXD
 70
     0
  9
$DIMSAH
 70
     0
  9
$DIMBLK1
  1

  9
$DIMBLK2
  1

  9
$DIMSTYLE
  2
ISO-25
  9
$DIMCLRD
 70
     0
  9
$DIMCLRE
 70
     0
  9
$DIMCLRT
 70
     0
  9
$DIMTFAC
 40
1.0
  9
$DIMGAP
 40
7.6200000000000001
  9
$LUNITS
 70
     2
  9
$LUPREC
 70
     2
  9
$SKETCHINC
 40
1.0
  9
$FILLETRAD
 40
10.0
  9
$AUNITS
 70
     0
  9
$AUPREC
 70
     2
  9
$MENU
  1
.
  9
$ELEVATION
 40
0.0
  9
$PELEVATION
 40
0.0
  9
$THICKNESS
 40
0.0
  9
$LIMCHECK
 70
     0
  9
$BLIPMODE
 70
     0
  9
$CHAMFERA
 40
0.0
  9
$CHAMFERB
 40
0.0
  9
$SKPOLY
 70
     0
  9
$TDCREATE
 40
2460557.9223495367914438
  9
$TDUPDATE
 40
2460589.9647569451481104
  9
$TDINDWG
 40
0.0064310764
  9
$TDUSRTIMER
 40
0.006430162
  9
$USRTIMER
 70
     1
  9
$ANGBASE
 50
0.0
  9
$ANGDIR
 70
     0
  9
$PDMODE
 70
     0
  9
$PDSIZE
 40
-1.0
  9
$PLINEWID
 40
0.0
  9
$COORDS
 70
     1
  9
$SPLFRAME
 70
     0
  9
$SPLINETYPE
 70
     6
  9
$SPLINESEGS
 70
     8
  9
$ATTDIA
 70
     1
  9
$ATTREQ
 70
     1
  9
$HANDLING
 70
     1
  9
$HANDSEED
  5
82B
  9
$SURFTAB1
 70
     6
  9
$SURFTAB2
 70
     6
  9
$SURFTYPE
 70
     6
  9
$SURFU
 70
     6
  9
$SURFV
 70
     6
  9
$UCSNAME
  2

  9
$UCSORG
 10
0.0
 20
0.0
 30
0.0
  9
$UCSXDIR
 10
1.0
 20
0.0
 30
0.0
  9
$UCSYDIR
 10
0.0
 20
1.0
 30
0.0
  9
$PUCSNAME
  2

  9
$PUCSORG
 10
0.0
 20
0.0
 30
0.0
  9
$PUCSXDIR
 10
1.0
 20
0.0
 30
0.0
  9
$PUCSYDIR
 10
0.0
 20
1.0
 30
0.0
  9
$USERI1
 70
     0
  9
$USERI2
 70
     0
  9
$USERI3
 70
     0
  9
$USERI4
 70
     0
  9
$USERI5
 70
     0
  9
$USERR1
 40
0.0
  9
$USERR2
 40
0.0
  9
$USERR3
 40
0.0
  9
$USERR4
 40
0.0
  9
$USERR5
 40
0.0
  9
$WORLDVIEW
 70
     1
  9
$SHADEDGE
 70
     3
  9
$SHADEDIF
 70
    70
  9
$TILEMODE
 70
     1
  9
$MAXACTVP
 70
    64
  9
$PLIMCHECK
 70
     0
  9
$PEXTMIN
 10
1.0000000000000000E+20
 20
1.0000000000000000E+20
 30
1.0000000000000000E+20
  9
$PEXTMAX
 10
-1.0000000000000000E+20
 20
-1.0000000000000000E+20
 30
-1.0000000000000000E+20
  9
$PLIMMIN
 10
0.0
 20
0.0
  9
$PLIMMAX
 10
420.0
 20
297.0
  9
$UNITMODE
 70
     0
  9
$VISRETAIN
 70
     1
  9
$PLINEGEN
 70
     0
  9
$PSLTSCALE
 70
     1
  0
ENDSEC
  0
SECTION
  2
TABLES
  0
TABLE
  2
VPORT
 70
     1
  0
VPORT
  2
*ACTIVE
 70
     0
 10
0.0
 20
0.0
 11
1.0
 21
1.0
 12
476.106962475950013
 22
739.0546314742459799
 13
0.0
 23
0.0
 14
10.0
 24
10.0
 15
10.0
 25
10.0
 16
0.0
 26
0.0
 36
1.0
 17
0.0
 27
0.0
 37
0.0
 40
461.7569992610169152
 41
2.0750816104461371
 42
50.0
 43
0.0
 44
0.0
 50
0.0
 51
0.0
 71
     0
 72
  2000
 73
     1
 74
     3
 75
     0
 76
     0
 77
     0
 78
     0
  0
ENDTAB
  0
TABLE
  2
LTYPE
 70
     6
  0
LTYPE
  2
CONTINUOUS
 70
     0
  3
Solid line
 72
    65
 73
     0
 40
0.0
  0
LTYPE
  2
HIDDEN
 70
     0
  3
Hidden __ __ __ __ __ __ __ __ __ __ __ __ __ __
 72
    65
 73
     2
 40
1.905
 49
1.27
 49
-0.635
  0
LTYPE
  2
PHANTOM
 70
     0
  3
Phantom ______  __  __  ______  __  __  ______
 72
    65
 73
     6
 40
12.6999999999999993
 49
6.3499999999999979
 49
-1.27
 49
1.27
 49
-1.27
 49
1.27
 49
-1.27
  0
LTYPE
  2
CENTER
 70
     0
  3
Center ____ _ ____ _ ____ _ ____ _ ____ _ ____
 72
    65
 73
     4
 40
10.1600000000000001
 49
6.3499999999999979
 49
-1.27
 49
1.27
 49
-1.27
  0
LTYPE
  2
CENTERX2
 70
     0
  3
Center (2x) ________  __  ________  __  _____
 72
    65
 73
     4
 40
20.3200000000000003
 49
12.6999999999999993
 49
-2.54
 49
2.54
 49
-2.54
  0
LTYPE
  2
DOT2
 70
     0
  3
Dot (.5x) ........................................
 72
    65
 73
     2
 40
0.635
 49
0.0
 49
-0.635
  0
ENDTAB
  0
TABLE
  2
LAYER
 70
     3
  0
LAYER
  2
0
 70
     0
 62
     7
  6
CONTINUOUS
  0
LAYER
  2
FORMAT
 70
     0
 62
     7
  6
CONTINUOUS
  0
LAYER
  2
DEFPOINTS
 70
     0
 62
     7
  6
CONTINUOUS
  0
ENDTAB
  0
TABLE
  2
STYLE
 70
     6
  0
STYLE
  2
STANDARD
 70
     0
 40
0.0
 41
1.0
 50
0.0
 71
     0
 42
17.5
  3
txt
  4

  0
STYLE
  2
SLDTEXTSTYLE0
 70
     0
 40
0.0
 41
0.75
 50
0.0
 71
     0
 42
17.5
  3
TXT
  4
bigfont
  0
STYLE
  2
SLDTEXTSTYLE1
 70
     0
 40
0.0
 41
0.7
 50
0.0
 71
     0
 42
17.5
  3
TXT
  4
bigfont
  0
STYLE
  2
SLDTEXTSTYLE2
 70
     0
 40
0.0
 41
0.58
 50
0.0
 71
     0
 42
17.5
  3
TXT
  4
bigfont
  0
STYLE
  2
SLDTEXTSTYLE3
 70
     0
 40
0.0
 41
0.7
 50
0.0
 71
     0
 42
17.5
  3
TXT
  4

  0
STYLE
  2
SLDTEXTSTYLE4
 70
     0
 40
0.0
 41
0.75
 50
0.0
 71
     0
 42
17.5
  3
TXT
  4

  0
ENDTAB
  0
TABLE
  2
VIEW
 70
     0
  0
ENDTAB
  0
TABLE
  2
UCS
 70
     0
  0
ENDTAB
  0
TABLE
  2
APPID
 70
     3
  0
APPID
  2
ACAD
 70
     0
  0
APPID
  2
ACAD_NAV_VCDISPLAY
 70
     0
  0
APPID
  2
ACAD_MLEADERVER
 70
     0
  0
ENDTAB
  0
TABLE
  2
DIMSTYLE
 70
     4
  0
DIMSTYLE
  2
ISO-25
 70
     0
  3

  4

  5

  6

  7

 40
1.0
 41
2.5
 42
0.625
 43
3.75
 44
1.25
 45
0.0
 46
0.0
 47
0.0
 48
0.0
140
2.5
141
2.5
142
0.0
143
0.0393700787
144
1.0
145
0.0
146
1.0
147
0.625
 71
     0
 72
     0
 73
     0
 74
     0
 75
     0
 76
     0
 77
     1
 78
     8
170
     0
171
     3
172
     1
173
     0
174
     0
175
     0
176
     0
177
     0
178
     0
  0
DIMSTYLE
  2
SLDDIMSTYLE0
 70
     0
  3

  4

  5

  6
CLOSED
  7
CLOSED
 40
1.0
 41
15.0
 42
0.0625
 43
0.38
 44
0.0
 45
0.000000001
 46
0.0
 47
0.0
 48
0.0
140
17.5
141
0.09
142
0.0
143
25.3999999999999986
144
1.0
145
0.0
146
1.0
147
4.375
 71
     0
 72
     0
 73
     0
 74
     0
 75
     0
 76
     0
 77
     1
 78
    12
170
     0
171
     2
172
     0
173
     1
174
     0
175
     0
176
     0
177
     0
178
     0
  0
DIMSTYLE
  2
SLDDIMSTYLE1
 70
     0
  3

  4

  5

  6
CLOSED
  7
CLOSED
 40
1.0
 41
15.0
 42
0.0625
 43
0.38
 44
0.0
 45
0.000000001
 46
0.0
 47
0.0
 48
0.0
140
17.5
141
0.09
142
0.0
143
25.3999999999999986
144
1.0
145
0.0
146
1.0
147
4.375
 71
     0
 72
     0
 73
     0
 74
     0
 75
     0
 76
     0
 77
     1
 78
    12
170
     0
171
     2
172
     1
173
     1
174
     0
175
     0
176
     0
177
     0
178
     0
  0
DIMSTYLE
  2
SLDDIMSTYLE2
 70
     0
  3
<>
  4

  5

  6
NONE
  7
CLOSED
 40
1.0
 41
15.0
 42
0.0625
 43
0.38
 44
0.0
 45
0.000000001
 46
0.0
 47
0.0
 48
0.0
140
17.5
141
0.0
142
0.0
143
25.3999999999999986
144
1.0
145
0.0
146
1.0
147
4.375
 71
     0
 72
     0
 73
     0
 74
     0
 75
     0
 76
     0
 77
     1
 78
    12
170
     0
171
     2
172
     1
173
     1
174
     0
175
     0
176
     0
177
     0
178
     0
  0
ENDTAB
  0
ENDSEC
  0
SECTION
  2
BLOCKS
  0
BLOCK
  8
0
  2
$MODEL_SPACE
 70
     0
 10
0.0
 20
0.0
 30
0.0
  3
$MODEL_SPACE
  1

  0
ENDBLK
  5
21
  8
0
  0
BLOCK
 67
     1
  8
0
  2
$PAPER_SPACE
 70
     0
 10
0.0
 20
0.0
 30
0.0
  3
$PAPER_SPACE
  1

  0
ENDBLK
  5
1D
 67
     1
  8
0
  0
BLOCK
  8
0
  2
_CLOSED
 70
     0
 10
0.0
 20
0.0
 30
0.0
  3
_CLOSED
  1

  0
LINE
  5
165
  8
0
  6
BYBLOCK
 62
     0
 10
-1.0
 20
0.166667
 30
0.0
 11
0.0
 21
0.0
 31
0.0
  0
LINE
  5
166
  8
0
  6
BYBLOCK
 62
     0
 10
0.0
 20
0.0
 30
0.0
 11
-1.0
 21
-0.166667
 31
0.0
  0
LINE
  5
167
  8
0
  6
BYBLOCK
 62
     0
 10
-1.0
 20
0.166667
 30
0.0
 11
-1.0
 21
-0.166667
 31
0.0
  0
LINE
  5
168
  8
0
  6
BYBLOCK
 62
     0
 10
0.0
 20
0.0
 30
0.0
 11
-1.0
 21
0.0
 31
0.0
  0
ENDBLK
  5
164
  8
0
  0
BLOCK
  8
0
  2
_D
 70
     0
 10
0.0
 20
0.0
 30
0.0
  3
_D
  1

  0
INSERT
  5
16C
  8
FORMAT
  2
_CLOSED
 10
344.5968529551000188
 20
757.8880603268999039
 30
13.0
 41
15.0
 42
15.0
 50
90.0
  0
INSERT
  5
16D
  8
FORMAT
  2
_CLOSED
 10
344.5968529551000188
 20
647.8880603269000176
 30
13.0
 41
15.0
 42
15.0
 50
270.0
  0
LINE
  5
16E
  8
FORMAT
 10
532.5968529550999619
 20
757.8880603268999039
 30
0.0
 11
339.5968529551000188
 21
757.8880603268999039
 31
0.0
  0
LINE
  5
16F
  8
FORMAT
 10
532.5968529550999619
 20
647.8880603269000176
 30
0.0
 11
339.5968529551000188
 21
647.8880603269000176
 31
0.0
  0
LINE
  5
170
  8
FORMAT
 10
344.5968529551000188
 20
757.8880603268999039
 30
0.0
 11
344.5968529551000188
 21
647.8880603269000176
 31
0.0
  0
INSERT
  5
171
  8
0
  2
*U26
 10
0.0
 20
0.0
 30
0.0
  0
ENDBLK
  5
16B
  8
0
  0
BLOCK
  8
0
  2
_D_1
 70
     0
 10
0.0
 20
0.0
 30
0.0
  3
_D_1
  1

  0
INSERT
  5
177
  8
FORMAT
  2
_CLOSED
 10
414.5968529551000188
 20
586.9910523065000234
 30
13.0
 41
15.0
 42
15.0
  0
INSERT
  5
178
  8
FORMAT
  2
_CLOSED
 10
479.5968529551000188
 20
586.9910523065000234
 30
13.0
 41
15.0
 42
15.0
 50
180.0
  0
LINE
  5
179
  8
FORMAT
 10
414.5968529551000188
 20
745.8880603269000176
 30
0.0
 11
414.5968529551000188
 21
581.9910523065000234
 31
0.0
  0
LINE
  5
17A
  8
FORMAT
 10
479.5968529551000188
 20
745.8880603269000176
 30
0.0
 11
479.5968529551000188
 21
581.9910523065000234
 31
0.0
  0
LINE
  5
17B
  8
FORMAT
 10
414.5968529551000188
 20
586.9910523065000234
 30
0.0
 11
394.5968529551000188
 21
586.9910523065000234
 31
0.0
  0
LINE
  5
17C
  8
FORMAT
 10
414.5968529551000188
 20
586.9910523065000234
 30
0.0
 11
479.5968529551000188
 21
586.9910523065000234
 31
0.0
  0
LINE
  5
17D
  8
FORMAT
 10
479.5968529551000188
 20
586.9910523065000234
 30
0.0
 11
499.5968529550999051
 21
586.9910523065000234
 31
0.0
  0
INSERT
  5
17E
  8
0
  2
*U27
 10
0.0
 20
0.0
 30
0.0
  0
ENDBLK
  5
176
  8
0
  0
BLOCK
  8
0
  2
_D_2
 70
     0
 10
0.0
 20
0.0
 30
0.0
  3
_D_2
  1

  0
INSERT
  5
183
  8
FORMAT
  2
_CLOSED
 10
479.5968529551000188
 20
586.9910523065000234
 30
13.0
 41
15.0
 42
15.0
  0
INSERT
  5
184
  8
FORMAT
  2
_CLOSED
 10
544.5968529550999619
 20
586.9910523065000234
 30
13.0
 41
15.0
 42
15.0
 50
180.0
  0
LINE
  5
185
  8
FORMAT
 10
479.5968529551000188
 20
745.8880603269000176
 30
0.0
 11
479.5968529551000188
 21
581.9910523065000234
 31
0.0
  0
LINE
  5
186
  8
FORMAT
 10
544.5968529550999619
 20
815.8880603269000176
 30
0.0
 11
544.5968529550999619
 21
581.9910523065000234
 31
0.0
  0
LINE
  5
187
  8
FORMAT
 10
479.5968529551000188
 20
586.9910523065000234
 30
0.0
 11
459.5968529551000188
 21
586.9910523065000234
 31
0.0
  0
LINE
  5
188
  8
FORMAT
 10
479.5968529551000188
 20
586.9910523065000234
 30
0.0
 11
544.5968529550999619
 21
586.9910523065000234
 31
0.0
  0
LINE
  5
189
  8
FORMAT
 10
544.5968529550999619
 20
586.9910523065000234
 30
0.0
 11
564.5968529551000756
 21
586.9910523065000234
 31
0.0
  0
INSERT
  5
18A
  8
0
  2
*U28
 10
0.0
 20
0.0
 30
0.0
  0
ENDBLK
  5
182
  8
0
  0
BLOCK
  8
0
  2
_D_3
 70
     0
 10
0.0
 20
0.0
 30
0.0
  3
_D_3
  1

  0
INSERT
  5
18F
  8
FORMAT
  2
_CLOSED
 10
344.5968529551000188
 20
757.8880603268999039
 30
13.0
 41
15.0
 42
15.0
 50
270.0
  0
INSERT
  5
190
  8
FORMAT
  2
_CLOSED
 10
344.5968529551000188
 20
827.8880603269000176
 30
13.0
 41
15.0
 42
15.0
 50
90.0
  0
LINE
  5
191
  8
FORMAT
 10
532.5968529550999619
 20
757.8880603268999039
 30
0.0
 11
339.5968529551000188
 21
757.8880603268999039
 31
0.0
  0
LINE
  5
192
  8
FORMAT
 10
532.5968529550999619
 20
827.8880603269000176
 30
0.0
 11
339.5968529551000188
 21
827.8880603269000176
 31
0.0
  0
LINE
  5
193
  8
FORMAT
 10
344.5968529551000188
 20
757.8880603268999039
 30
0.0
 11
344.5968529551000188
 21
827.8880603269000176
 31
0.0
  0
INSERT
  5
194
  8
0
  2
*U29
 10
0.0
 20
0.0
 30
0.0
  0
ENDBLK
  5
18E
  8
0
  0
BLOCK
  8
0
  2
_NONE
 70
     0
 10
0.0
 20
0.0
 30
0.0
  3
_NONE
  1

  0
ENDBLK
  5
199
  8
0
  0
BLOCK
  8
0
  2
_D_4
 70
     0
 10
0.0
 20
0.0
 30
0.0
  3
_D_4
  1

  0
LINE
  5
5B2
  8
FORMAT
 62
     0
 10
329.8638771818643249
 20
591.887018289258549
 30
0.0
 11
400.4144424410316105
 21
638.514734769179654
 31
0.0
  0
INSERT
  5
5B3
  8
0
  2
*U32
 10
0.0
 20
0.0
 30
0.0
  0
LINE
  5
5B4
  8
FORMAT
 62
     0
 10
416.2653718391001121
 20
648.9908045101001335
 30
0.0
 11
412.9283340710999255
 21
646.7853161436001983
 31
0.0
  0
INSERT
  5
5B5
  8
FORMAT
 62
     0
  2
_CLOSED
 10
412.9283340710999255
 20
646.7853161436001983
 30
0.0
 41
15.0
 42
15.0
 43
15.0
 50
33.4611951987283334
  0
POINT
  5
5B6
  8
DEFPOINTS
 62
     0
 10
412.9283340710999255
 20
646.7853161436001983
 30
0.0
  0
POINT
  5
5B7
  8
DEFPOINTS
 62
     0
 10
416.2653718391001121
 20
648.9908045101001335
 30
0.0
  0
ENDBLK
  5
19C
  8
0
  0
BLOCK
  8
0
  2
SW_CENTERMARKSYMBOL_0
 70
     0
 10
0.0
 20
0.0
 30
0.0
  3
SW_CENTERMARKSYMBOL_0
  1

  0
LINE
  5
1A5
  8
FORMAT
 62
     0
 10
0.0
 20
0.0
 30
0.0
 11
0.0
 21
2.5
 31
0.0
  0
LINE
  5
1A6
  8
FORMAT
 62
     0
 10
0.0
 20
0.0
 30
0.0
 11
-2.5
 21
0.0
 31
0.0
  0
LINE
  5
1A7
  8
FORMAT
 62
     0
 10
0.0
 20
0.0
 30
0.0
 11
0.0
 21
-2.5
 31
0.0
  0
LINE
  5
1A8
  8
FORMAT
 62
     0
 10
0.0
 20
0.0
 30
0.0
 11
2.5
 21
0.0
 31
0.0
  0
LINE
  5
1A9
  8
FORMAT
 62
     0
 10
0.0
 20
5.0
 30
0.0
 11
0.0
 21
5.5
 31
0.0
  0
LINE
  5
1AA
  8
FORMAT
 62
     0
 10
-5.0
 20
0.0
 30
0.0
 11
-5.5
 21
0.0
 31
0.0
  0
LINE
  5
1AB
  8
FORMAT
 62
     0
 10
0.0
 20
-5.0
 30
0.0
 11
0.0
 21
-5.5
 31
0.0
  0
LINE
  5
1AC
  8
FORMAT
 62
     0
 10
5.0
 20
0.0
 30
0.0
 11
5.5
 21
0.0
 31
0.0
  0
ENDBLK
  5
1A4
  8
0
  0
BLOCK
  8
0
  2
SW_CENTERMARKSYMBOL_1
 70
     0
 10
0.0
 20
0.0
 30
0.0
  3
SW_CENTERMARKSYMBOL_1
  1

  0
LINE
  5
1B1
  8
FORMAT
 62
     0
 10
0.0
 20
0.0
 30
0.0
 11
0.0
 21
2.5
 31
0.0
  0
LINE
  5
1B2
  8
FORMAT
 62
     0
 10
0.0
 20
0.0
 30
0.0
 11
-2.5
 21
0.0
 31
0.0
  0
LINE
  5
1B3
  8
FORMAT
 62
     0
 10
0.0
 20
0.0
 30
0.0
 11
0.0
 21
-2.5
 31
0.0
  0
LINE
  5
1B4
  8
FORMAT
 62
     0
 10
0.0
 20
0.0
 30
0.0
 11
2.5
 21
0.0
 31
0.0
  0
LINE
  5
1B5
  8
FORMAT
 62
     0
 10
0.0
 20
5.0
 30
0.0
 11
0.0
 21
5.5
 31
0.0
  0
LINE
  5
1B6
  8
FORMAT
 62
     0
 10
-5.0
 20
0.0
 30
0.0
 11
-5.5
 21
0.0
 31
0.0
  0
LINE
  5
1B7
  8
FORMAT
 62
     0
 10
0.0
 20
-5.0
 30
0.0
 11
0.0
 21
-5.5
 31
0.0
  0
LINE
  5
1B8
  8
FORMAT
 62
     0
 10
5.0
 20
0.0
 30
0.0
 11
5.5
 21
0.0
 31
0.0
  0
ENDBLK
  5
1B0
  8
0
  0
BLOCK
  8
0
  2
SW_CENTERMARKSYMBOL_2
 70
     0
 10
0.0
 20
0.0
 30
0.0
  3
SW_CENTERMARKSYMBOL_2
  1

  0
LINE
  5
1BD
  8
FORMAT
 62
     0
 10
0.0
 20
0.0
 30
0.0
 11
0.0
 21
2.5
 31
0.0
  0
LINE
  5
1BE
  8
FORMAT
 62
     0
 10
0.0
 20
0.0
 30
0.0
 11
-2.5
 21
0.0
 31
0.0
  0
LINE
  5
1BF
  8
FORMAT
 62
     0
 10
0.0
 20
0.0
 30
0.0
 11
0.0
 21
-2.5
 31
0.0
  0
LINE
  5
1C0
  8
FORMAT
 62
     0
 10
0.0
 20
0.0
 30
0.0
 11
2.5
 21
0.0
 31
0.0
  0
LINE
  5
1C1
  8
FORMAT
 62
     0
 10
0.0
 20
5.0
 30
0.0
 11
0.0
 21
5.5
 31
0.0
  0
LINE
  5
1C2
  8
FORMAT
 62
     0
 10
-5.0
 20
0.0
 30
0.0
 11
-5.5
 21
0.0
 31
0.0
  0
LINE
  5
1C3
  8
FORMAT
 62
     0
 10
0.0
 20
-5.0
 30
0.0
 11
0.0
 21
-5.5
 31
0.0
  0
LINE
  5
1C4
  8
FORMAT
 62
     0
 10
5.0
 20
0.0
 30
0.0
 11
5.5
 21
0.0
 31
0.0
  0
ENDBLK
  5
1BC
  8
0
  0
BLOCK
  8
0
  2
SW_CENTERMARKSYMBOL_3
 70
     0
 10
0.0
 20
0.0
 30
0.0
  3
SW_CENTERMARKSYMBOL_3
  1

  0
LINE
  5
1C9
  8
FORMAT
 62
     0
 10
0.0
 20
0.0
 30
0.0
 11
0.0
 21
2.5
 31
0.0
  0
LINE
  5
1CA
  8
FORMAT
 62
     0
 10
0.0
 20
0.0
 30
0.0
 11
-2.5
 21
0.0
 31
0.0
  0
LINE
  5
1CB
  8
FORMAT
 62
     0
 10
0.0
 20
0.0
 30
0.0
 11
0.0
 21
-2.5
 31
0.0
  0
LINE
  5
1CC
  8
FORMAT
 62
     0
 10
0.0
 20
0.0
 30
0.0
 11
2.5
 21
0.0
 31
0.0
  0
LINE
  5
1CD
  8
FORMAT
 62
     0
 10
0.0
 20
5.0
 30
0.0
 11
0.0
 21
5.5
 31
0.0
  0
LINE
  5
1CE
  8
FORMAT
 62
     0
 10
-5.0
 20
0.0
 30
0.0
 11
-5.5
 21
0.0
 31
0.0
  0
LINE
  5
1CF
  8
FORMAT
 62
     0
 10
0.0
 20
-5.0
 30
0.0
 11
0.0
 21
-5.5
 31
0.0
  0
LINE
  5
1D0
  8
FORMAT
 62
     0
 10
5.0
 20
0.0
 30
0.0
 11
5.5
 21
0.0
 31
0.0
  0
ENDBLK
  5
1C8
  8
0
  0
BLOCK
  8
0
  2
SW_CENTERMARKSYMBOL_4
 70
     0
 10
0.0
 20
0.0
 30
0.0
  3
SW_CENTERMARKSYMBOL_4
  1

  0
LINE
  5
1D5
  8
FORMAT
 62
     0
 10
0.0
 20
0.0
 30
0.0
 11
0.0
 21
2.5
 31
0.0
  0
LINE
  5
1D6
  8
FORMAT
 62
     0
 10
0.0
 20
0.0
 30
0.0
 11
-2.5
 21
0.0
 31
0.0
  0
LINE
  5
1D7
  8
FORMAT
 62
     0
 10
0.0
 20
0.0
 30
0.0
 11
0.0
 21
-2.5
 31
0.0
  0
LINE
  5
1D8
  8
FORMAT
 62
     0
 10
0.0
 20
0.0
 30
0.0
 11
2.5
 21
0.0
 31
0.0
  0
LINE
  5
1D9
  8
FORMAT
 62
     0
 10
0.0
 20
5.0
 30
0.0
 11
0.0
 21
5.5
 31
0.0
  0
LINE
  5
1DA
  8
FORMAT
 62
     0
 10
-5.0
 20
0.0
 30
0.0
 11
-5.5
 21
0.0
 31
0.0
  0
LINE
  5
1DB
  8
FORMAT
 62
     0
 10
0.0
 20
-5.0
 30
0.0
 11
0.0
 21
-5.5
 31
0.0
  0
LINE
  5
1DC
  8
FORMAT
 62
     0
 10
5.0
 20
0.0
 30
0.0
 11
5.5
 21
0.0
 31
0.0
  0
ENDBLK
  5
1D4
  8
0
  0
BLOCK
  8
0
  2
SW_CENTERMARKSYMBOL_5
 70
     0
 10
0.0
 20
0.0
 30
0.0
  3
SW_CENTERMARKSYMBOL_5
  1

  0
LINE
  5
1E1
  8
FORMAT
 62
     0
 10
0.0
 20
0.0
 30
0.0
 11
0.0
 21
2.5
 31
0.0
  0
LINE
  5
1E2
  8
FORMAT
 62
     0
 10
0.0
 20
0.0
 30
0.0
 11
-2.5
 21
0.0
 31
0.0
  0
LINE
  5
1E3
  8
FORMAT
 62
     0
 10
0.0
 20
0.0
 30
0.0
 11
0.0
 21
-2.5
 31
0.0
  0
LINE
  5
1E4
  8
FORMAT
 62
     0
 10
0.0
 20
0.0
 30
0.0
 11
2.5
 21
0.0
 31
0.0
  0
LINE
  5
1E5
  8
FORMAT
 62
     0
 10
0.0
 20
5.0
 30
0.0
 11
0.0
 21
5.5
 31
0.0
  0
LINE
  5
1E6
  8
FORMAT
 62
     0
 10
-5.0
 20
0.0
 30
0.0
 11
-5.5
 21
0.0
 31
0.0
  0
LINE
  5
1E7
  8
FORMAT
 62
     0
 10
0.0
 20
-5.0
 30
0.0
 11
0.0
 21
-5.5
 31
0.0
  0
LINE
  5
1E8
  8
FORMAT
 62
     0
 10
5.0
 20
0.0
 30
0.0
 11
5.5
 21
0.0
 31
0.0
  0
ENDBLK
  5
1E0
  8
0
  0
BLOCK
  8
0
  2
SW_CENTERMARKSYMBOL_6
 70
     0
 10
0.0
 20
0.0
 30
0.0
  3
SW_CENTERMARKSYMBOL_6
  1

  0
LINE
  5
1ED
  8
FORMAT
 62
     0
 10
0.0
 20
0.0
 30
0.0
 11
0.0
 21
2.5
 31
0.0
  0
LINE
  5
1EE
  8
FORMAT
 62
     0
 10
0.0
 20
0.0
 30
0.0
 11
-2.5
 21
0.0
 31
0.0
  0
LINE
  5
1EF
  8
FORMAT
 62
     0
 10
0.0
 20
0.0
 30
0.0
 11
0.0
 21
-2.5
 31
0.0
  0
LINE
  5
1F0
  8
FORMAT
 62
     0
 10
0.0
 20
0.0
 30
0.0
 11
2.5
 21
0.0
 31
0.0
  0
LINE
  5
1F1
  8
FORMAT
 62
     0
 10
0.0
 20
5.0
 30
0.0
 11
0.0
 21
5.5
 31
0.0
  0
LINE
  5
1F2
  8
FORMAT
 62
     0
 10
-5.0
 20
0.0
 30
0.0
 11
-5.5
 21
0.0
 31
0.0
  0
LINE
  5
1F3
  8
FORMAT
 62
     0
 10
0.0
 20
-5.0
 30
0.0
 11
0.0
 21
-5.5
 31
0.0
  0
LINE
  5
1F4
  8
FORMAT
 62
     0
 10
5.0
 20
0.0
 30
0.0
 11
5.5
 21
0.0
 31
0.0
  0
ENDBLK
  5
1EC
  8
0
  0
BLOCK
  8
0
  2
SW_CENTERMARKSYMBOL_7
 70
     0
 10
0.0
 20
0.0
 30
0.0
  3
SW_CENTERMARKSYMBOL_7
  1

  0
LINE
  5
1F9
  8
FORMAT
 62
     0
 10
0.0
 20
0.0
 30
0.0
 11
0.0
 21
2.5
 31
0.0
  0
LINE
  5
1FA
  8
FORMAT
 62
     0
 10
0.0
 20
0.0
 30
0.0
 11
-2.5
 21
0.0
 31
0.0
  0
LINE
  5
1FB
  8
FORMAT
 62
     0
 10
0.0
 20
0.0
 30
0.0
 11
0.0
 21
-2.5
 31
0.0
  0
LINE
  5
1FC
  8
FORMAT
 62
     0
 10
0.0
 20
0.0
 30
0.0
 11
2.5
 21
0.0
 31
0.0
  0
LINE
  5
1FD
  8
FORMAT
 62
     0
 10
0.0
 20
5.0
 30
0.0
 11
0.0
 21
5.5
 31
0.0
  0
LINE
  5
1FE
  8
FORMAT
 62
     0
 10
-5.0
 20
0.0
 30
0.0
 11
-5.5
 21
0.0
 31
0.0
  0
LINE
  5
1FF
  8
FORMAT
 62
     0
 10
0.0
 20
-5.0
 30
0.0
 11
0.0
 21
-5.5
 31
0.0
  0
LINE
  5
200
  8
FORMAT
 62
     0
 10
5.0
 20
0.0
 30
0.0
 11
5.5
 21
0.0
 31
0.0
  0
ENDBLK
  5
1F8
  8
0
  0
BLOCK
  8
0
  2
SW_CENTERMARKSYMBOL_8
 70
     0
 10
0.0
 20
0.0
 30
0.0
  3
SW_CENTERMARKSYMBOL_8
  1

  0
LINE
  5
205
  8
FORMAT
 62
     0
 10
0.0
 20
0.0
 30
0.0
 11
0.0
 21
2.5
 31
0.0
  0
LINE
  5
206
  8
FORMAT
 62
     0
 10
0.0
 20
0.0
 30
0.0
 11
-2.5
 21
0.0
 31
0.0
  0
LINE
  5
207
  8
FORMAT
 62
     0
 10
0.0
 20
0.0
 30
0.0
 11
0.0
 21
-2.5
 31
0.0
  0
LINE
  5
208
  8
FORMAT
 62
     0
 10
0.0
 20
0.0
 30
0.0
 11
2.5
 21
0.0
 31
0.0
  0
LINE
  5
209
  8
FORMAT
 62
     0
 10
0.0
 20
5.0
 30
0.0
 11
0.0
 21
7.0
 31
0.0
  0
LINE
  5
20A
  8
FORMAT
 62
     0
 10
-5.0
 20
0.0
 30
0.0
 11
-7.0
 21
0.0
 31
0.0
  0
LINE
  5
20B
  8
FORMAT
 62
     0
 10
0.0
 20
-5.0
 30
0.0
 11
0.0
 21
-7.0
 31
0.0
  0
LINE
  5
20C
  8
FORMAT
 62
     0
 10
5.0
 20
0.0
 30
0.0
 11
7.0
 21
0.0
 31
0.0
  0
ENDBLK
  5
204
  8
0
  0
BLOCK
  8
0
  2
SW_CENTERMARKSYMBOL_9
 70
     0
 10
0.0
 20
0.0
 30
0.0
  3
SW_CENTERMARKSYMBOL_9
  1

  0
LINE
  5
211
  8
FORMAT
 62
     0
 10
0.0
 20
0.0
 30
0.0
 11
0.0
 21
2.5
 31
0.0
  0
LINE
  5
212
  8
FORMAT
 62
     0
 10
0.0
 20
0.0
 30
0.0
 11
-2.5
 21
0.0
 31
0.0
  0
LINE
  5
213
  8
FORMAT
 62
     0
 10
0.0
 20
0.0
 30
0.0
 11
0.0
 21
-2.5
 31
0.0
  0
LINE
  5
214
  8
FORMAT
 62
     0
 10
0.0
 20
0.0
 30
0.0
 11
2.5
 21
0.0
 31
0.0
  0
LINE
  5
215
  8
FORMAT
 62
     0
 10
0.0
 20
5.0
 30
0.0
 11
0.0
 21
7.0
 31
0.0
  0
LINE
  5
216
  8
FORMAT
 62
     0
 10
-5.0
 20
0.0
 30
0.0
 11
-7.0
 21
0.0
 31
0.0
  0
LINE
  5
217
  8
FORMAT
 62
     0
 10
0.0
 20
-5.0
 30
0.0
 11
0.0
 21
-7.0
 31
0.0
  0
LINE
  5
218
  8
FORMAT
 62
     0
 10
5.0
 20
0.0
 30
0.0
 11
7.0
 21
0.0
 31
0.0
  0
ENDBLK
  5
210
  8
0
  0
BLOCK
  8
0
  2
SW_CENTERMARKSYMBOL_10
 70
     0
 10
0.0
 20
0.0
 30
0.0
  3
SW_CENTERMARKSYMBOL_10
  1

  0
LINE
  5
21D
  8
FORMAT
 62
     0
 10
0.0
 20
0.0
 30
0.0
 11
0.0
 21
2.5
 31
0.0
  0
LINE
  5
21E
  8
FORMAT
 62
     0
 10
0.0
 20
0.0
 30
0.0
 11
-2.5
 21
0.0
 31
0.0
  0
LINE
  5
21F
  8
FORMAT
 62
     0
 10
0.0
 20
0.0
 30
0.0
 11
0.0
 21
-2.5
 31
0.0
  0
LINE
  5
220
  8
FORMAT
 62
     0
 10
0.0
 20
0.0
 30
0.0
 11
2.5
 21
0.0
 31
0.0
  0
LINE
  5
221
  8
FORMAT
 62
     0
 10
0.0
 20
5.0
 30
0.0
 11
0.0
 21
7.0
 31
0.0
  0
LINE
  5
222
  8
FORMAT
 62
     0
 10
-5.0
 20
0.0
 30
0.0
 11
-7.0
 21
0.0
 31
0.0
  0
LINE
  5
223
  8
FORMAT
 62
     0
 10
0.0
 20
-5.0
 30
0.0
 11
0.0
 21
-7.0
 31
0.0
  0
LINE
  5
224
  8
FORMAT
 62
     0
 10
5.0
 20
0.0
 30
0.0
 11
7.0
 21
0.0
 31
0.0
  0
ENDBLK
  5
21C
  8
0
  0
BLOCK
  8
0
  2
SW_CENTERMARKSYMBOL_11
 70
     0
 10
0.0
 20
0.0
 30
0.0
  3
SW_CENTERMARKSYMBOL_11
  1

  0
LINE
  5
229
  8
FORMAT
 62
     0
 10
0.0
 20
0.0
 30
0.0
 11
0.0
 21
2.5
 31
0.0
  0
LINE
  5
22A
  8
FORMAT
 62
     0
 10
0.0
 20
0.0
 30
0.0
 11
-2.5
 21
0.0
 31
0.0
  0
LINE
  5
22B
  8
FORMAT
 62
     0
 10
0.0
 20
0.0
 30
0.0
 11
0.0
 21
-2.5
 31
0.0
  0
LINE
  5
22C
  8
FORMAT
 62
     0
 10
0.0
 20
0.0
 30
0.0
 11
2.5
 21
0.0
 31
0.0
  0
LINE
  5
22D
  8
FORMAT
 62
     0
 10
0.0
 20
5.0
 30
0.0
 11
0.0
 21
7.0
 31
0.0
  0
LINE
  5
22E
  8
FORMAT
 62
     0
 10
-5.0
 20
0.0
 30
0.0
 11
-7.0
 21
0.0
 31
0.0
  0
LINE
  5
22F
  8
FORMAT
 62
     0
 10
0.0
 20
-5.0
 30
0.0
 11
0.0
 21
-7.0
 31
0.0
  0
LINE
  5
230
  8
FORMAT
 62
     0
 10
5.0
 20
0.0
 30
0.0
 11
7.0
 21
0.0
 31
0.0
  0
ENDBLK
  5
228
  8
0
  0
BLOCK
  8
0
  2
SW_CENTERMARKSYMBOL_12
 70
     0
 10
0.0
 20
0.0
 30
0.0
  3
SW_CENTERMARKSYMBOL_12
  1

  0
LINE
  5
235
  8
FORMAT
 62
     0
 10
0.0
 20
0.0
 30
0.0
 11
0.0
 21
2.5
 31
0.0
  0
LINE
  5
236
  8
FORMAT
 62
     0
 10
0.0
 20
0.0
 30
0.0
 11
-2.5
 21
0.0
 31
0.0
  0
LINE
  5
237
  8
FORMAT
 62
     0
 10
0.0
 20
0.0
 30
0.0
 11
0.0
 21
-2.5
 31
0.0
  0
LINE
  5
238
  8
FORMAT
 62
     0
 10
0.0
 20
0.0
 30
0.0
 11
2.5
 21
0.0
 31
0.0
  0
LINE
  5
239
  8
FORMAT
 62
     0
 10
0.0
 20
5.0
 30
0.0
 11
0.0
 21
7.0
 31
0.0
  0
LINE
  5
23A
  8
FORMAT
 62
     0
 10
-5.0
 20
0.0
 30
0.0
 11
-7.0
 21
0.0
 31
0.0
  0
LINE
  5
23B
  8
FORMAT
 62
     0
 10
0.0
 20
-5.0
 30
0.0
 11
0.0
 21
-7.0
 31
0.0
  0
LINE
  5
23C
  8
FORMAT
 62
     0
 10
5.0
 20
0.0
 30
0.0
 11
7.0
 21
0.0
 31
0.0
  0
ENDBLK
  5
234
  8
0
  0
BLOCK
  8
0
  2
SW_CENTERMARKSYMBOL_13
 70
     0
 10
0.0
 20
0.0
 30
0.0
  3
SW_CENTERMARKSYMBOL_13
  1

  0
LINE
  5
241
  8
FORMAT
 62
     0
 10
0.0
 20
0.0
 30
0.0
 11
0.0
 21
2.5
 31
0.0
  0
LINE
  5
242
  8
FORMAT
 62
     0
 10
0.0
 20
0.0
 30
0.0
 11
-2.5
 21
0.0
 31
0.0
  0
LINE
  5
243
  8
FORMAT
 62
     0
 10
0.0
 20
0.0
 30
0.0
 11
0.0
 21
-2.5
 31
0.0
  0
LINE
  5
244
  8
FORMAT
 62
     0
 10
0.0
 20
0.0
 30
0.0
 11
2.5
 21
0.0
 31
0.0
  0
LINE
  5
245
  8
FORMAT
 62
     0
 10
0.0
 20
5.0
 30
0.0
 11
0.0
 21
7.0
 31
0.0
  0
LINE
  5
246
  8
FORMAT
 62
     0
 10
-5.0
 20
0.0
 30
0.0
 11
-7.0
 21
0.0
 31
0.0
  0
LINE
  5
247
  8
FORMAT
 62
     0
 10
0.0
 20
-5.0
 30
0.0
 11
0.0
 21
-7.0
 31
0.0
  0
LINE
  5
248
  8
FORMAT
 62
     0
 10
5.0
 20
0.0
 30
0.0
 11
7.0
 21
0.0
 31
0.0
  0
ENDBLK
  5
240
  8
0
  0
BLOCK
  8
0
  2
SW_CENTERMARKSYMBOL_14
 70
     0
 10
0.0
 20
0.0
 30
0.0
  3
SW_CENTERMARKSYMBOL_14
  1

  0
LINE
  5
24D
  8
FORMAT
 62
     0
 10
0.0
 20
0.0
 30
0.0
 11
0.0
 21
2.5
 31
0.0
  0
LINE
  5
24E
  8
FORMAT
 62
     0
 10
0.0
 20
0.0
 30
0.0
 11
-2.5
 21
0.0
 31
0.0
  0
LINE
  5
24F
  8
FORMAT
 62
     0
 10
0.0
 20
0.0
 30
0.0
 11
0.0
 21
-2.5
 31
0.0
  0
LINE
  5
250
  8
FORMAT
 62
     0
 10
0.0
 20
0.0
 30
0.0
 11
2.5
 21
0.0
 31
0.0
  0
LINE
  5
251
  8
FORMAT
 62
     0
 10
0.0
 20
5.0
 30
0.0
 11
0.0
 21
7.0
 31
0.0
  0
LINE
  5
252
  8
FORMAT
 62
     0
 10
-5.0
 20
0.0
 30
0.0
 11
-7.0
 21
0.0
 31
0.0
  0
LINE
  5
253
  8
FORMAT
 62
     0
 10
0.0
 20
-5.0
 30
0.0
 11
0.0
 21
-7.0
 31
0.0
  0
LINE
  5
254
  8
FORMAT
 62
     0
 10
5.0
 20
0.0
 30
0.0
 11
7.0
 21
0.0
 31
0.0
  0
ENDBLK
  5
24C
  8
0
  0
BLOCK
  8
0
  2
SW_CENTERMARKSYMBOL_15
 70
     0
 10
0.0
 20
0.0
 30
0.0
  3
SW_CENTERMARKSYMBOL_15
  1

  0
LINE
  5
259
  8
FORMAT
 62
     0
 10
0.0
 20
0.0
 30
0.0
 11
0.0
 21
2.5
 31
0.0
  0
LINE
  5
25A
  8
FORMAT
 62
     0
 10
0.0
 20
0.0
 30
0.0
 11
-2.5
 21
0.0
 31
0.0
  0
LINE
  5
25B
  8
FORMAT
 62
     0
 10
0.0
 20
0.0
 30
0.0
 11
0.0
 21
-2.5
 31
0.0
  0
LINE
  5
25C
  8
FORMAT
 62
     0
 10
0.0
 20
0.0
 30
0.0
 11
2.5
 21
0.0
 31
0.0
  0
LINE
  5
25D
  8
FORMAT
 62
     0
 10
0.0
 20
5.0
 30
0.0
 11
0.0
 21
7.0
 31
0.0
  0
LINE
  5
25E
  8
FORMAT
 62
     0
 10
-5.0
 20
0.0
 30
0.0
 11
-7.0
 21
0.0
 31
0.0
  0
LINE
  5
25F
  8
FORMAT
 62
     0
 10
0.0
 20
-5.0
 30
0.0
 11
0.0
 21
-7.0
 31
0.0
  0
LINE
  5
260
  8
FORMAT
 62
     0
 10
5.0
 20
0.0
 30
0.0
 11
7.0
 21
0.0
 31
0.0
  0
ENDBLK
  5
258
  8
0
  0
BLOCK
  8
0
  2
*U26
 70
     1
 10
0.0
 20
0.0
 30
0.0
  3
*U26
  1

  0
TEXT
  5
650
  8
FORMAT
 10
339.5381683822000127
 20
686.9875888015001237
 30
0.0
 40
17.5
  1
110
 50
90.0000000000003979
 41
0.75
  7
SLDTEXTSTYLE4
  0
ENDBLK
  5
652
  8
0
  0
BLOCK
  8
0
  2
*U27
 70
     1
 10
0.0
 20
0.0
 30
0.0
  3
*U27
  1

  0
TEXT
  5
654
  8
FORMAT
 10
434.1337829632000194
 20
592.0497368794000295
 30
0.0
 40
17.5
  1
65
 41
0.75
  7
SLDTEXTSTYLE4
  0
ENDBLK
  5
656
  8
0
  0
BLOCK
  8
0
  2
*U28
 70
     1
 10
0.0
 20
0.0
 30
0.0
  3
*U28
  1

  0
TEXT
  5
658
  8
FORMAT
 10
504.1671249188000274
 20
592.0497368794000295
 30
0.0
 40
17.5
  1
65
 41
0.75
  7
SLDTEXTSTYLE4
  0
ENDBLK
  5
65A
  8
0
  0
BLOCK
  8
0
  2
*U29
 70
     1
 10
0.0
 20
0.0
 30
0.0
  3
*U29
  1

  0
TEXT
  5
65C
  8
FORMAT
 10
339.5381683822000127
 20
781.7902023625000538
 30
0.0
 40
17.5
  1
70
 50
90.0
 41
0.75
  7
SLDTEXTSTYLE4
  0
ENDBLK
  5
65E
  8
0
  0
BLOCK
  8
0
  2
*U30
 70
     1
 10
0.0
 20
0.0
 30
0.0
  3
*U30
  1

  0
TEXT
  5
681
  8
0
 62
     0
 10
617.2168529551000802
 20
597.527718973166543
 30
0.0
 40
17.5
  1
35,00
  0
ENDBLK
  5
683
  8
0
  0
BLOCK
  8
0
  2
*U31
 70
     1
 10
0.0
 20
0.0
 30
0.0
  3
*U31
  1

  0
TEXT
  5
685
  8
0
 62
     0
 10
651.6059829200047488
 20
723.4247269935668783
 30
0.0
 40
17.5
  1
35,00
  0
ENDBLK
  5
687
  8
0
  0
BLOCK
  8
0
  2
*U32
 70
     1
 10
0.0
 20
0.0
 30
0.0
  3
*U32
  1

  0
TEXT
  5
689
  8
FORMAT
 62
     0
 10
331.1015093397617193
 20
597.9491562489008629
 30
0.0
 40
17.5
  1
8-M4
 50
33.4611951987283334
 41
0.75
  7
SLDTEXTSTYLE4
  0
ENDBLK
  5
68B
  8
0
  0
ENDSEC
  0
SECTION
  2
ENTITIES
  0
CIRCLE
  5
B5
  8
0
  6
CONTINUOUS
 62
     7
 10
609.5968529551000756
 20
835.8880603269000176
 30
0.0
 40
3.0
  0
CIRCLE
  5
B6
  8
0
  6
CONTINUOUS
 62
     7
 10
609.5968529551000756
 20
835.8880603269000176
 30
0.0
 40
2.25
  0
CIRCLE
  5
B7
  8
0
  6
CONTINUOUS
 62
     7
 10
609.5968529551000756
 20
723.8880603269000176
 30
0.0
 40
3.0
  0
CIRCLE
  5
B8
  8
0
  6
CONTINUOUS
 62
     7
 10
609.5968529551000756
 20
723.8880603269000176
 30
0.0
 40
2.25
  0
CIRCLE
  5
B9
  8
0
  6
CONTINUOUS
 62
     7
 10
609.5968529551000756
 20
628.8880603268999039
 30
0.0
 40
3.0
  0
CIRCLE
  5
BA
  8
0
  6
CONTINUOUS
 62
     7
 10
609.5968529551000756
 20
628.8880603268999039
 30
0.0
 40
2.25
  0
CIRCLE
  5
BB
  8
0
  6
CONTINUOUS
 62
     7
 10
504.5968529551000188
 20
628.8880603268999039
 30
0.0
 40
3.0
  0
CIRCLE
  5
BC
  8
0
  6
CONTINUOUS
 62
     7
 10
504.5968529551000188
 20
628.8880603268999039
 30
0.0
 40
2.25
  0
CIRCLE
  5
BD
  8
0
  6
CONTINUOUS
 62
     7
 10
403.5968529550997914
 20
628.8880603268999039
 30
0.0
 40
2.2499999999999432
  0
CIRCLE
  5
BE
  8
0
  6
CONTINUOUS
 62
     7
 10
403.5968529550997914
 20
628.8880603268999039
 30
0.0
 40
2.9999999999999432
  0
CIRCLE
  5
BF
  8
0
  6
CONTINUOUS
 62
     7
 10
399.5968529551000188
 20
738.8880603269000176
 30
0.0
 40
2.25
  0
CIRCLE
  5
C0
  8
0
  6
CONTINUOUS
 62
     7
 10
399.5968529551000188
 20
738.8880603269000176
 30
0.0
 40
3.0000000000000551
  0
CIRCLE
  5
C1
  8
0
  6
CONTINUOUS
 62
     7
 10
399.5968529551000188
 20
838.8880603268999039
 30
0.0
 40
3.0000000000000551
  0
CIRCLE
  5
C2
  8
0
  6
CONTINUOUS
 62
     7
 10
399.5968529551000188
 20
838.8880603268999039
 30
0.0
 40
2.2500000000000551
  0
CIRCLE
  5
C3
  8
0
  6
CONTINUOUS
 62
     7
 10
499.5968529550999051
 20
838.8880603268999039
 30
0.0
 40
3.0
  0
CIRCLE
  5
C4
  8
0
  6
CONTINUOUS
 62
     7
 10
499.5968529550999051
 20
838.8880603268999039
 30
0.0
 40
2.25
  0
LINE
  5
C5
  8
0
  6
CONTINUOUS
 62
     7
 10
565.5968536405999885
 20
618.8880582407000475
 30
0.0
 11
565.5968536405999885
 21
621.3880633070998556
 31
0.0
  0
LINE
  5
C6
  8
0
  6
CONTINUOUS
 62
     7
 10
565.5968536405999885
 20
621.3880633070998556
 30
0.0
 11
569.5968505708998464
 21
621.3880633070998556
 31
0.0
  0
LINE
  5
C7
  8
0
  6
CONTINUOUS
 62
     7
 10
569.5968505708998464
 20
618.8880582407000475
 30
0.0
 11
569.5968505708998464
 21
621.3880633070998556
 31
0.0
  0
LINE
  5
C8
  8
0
  6
CONTINUOUS
 62
     7
 10
565.5968536405999885
 20
618.8880582407000475
 30
0.0
 11
569.5968505708998464
 21
618.8880582407000475
 31
0.0
  0
ARC
  5
C9
  8
0
  6
CONTINUOUS
 62
     7
 10
609.5968529551000756
 20
628.8880603268999039
 30
0.0
 40
7.250000000000111
 50
90.0
 51
180.0
  0
LINE
  5
CA
  8
0
  6
CONTINUOUS
 62
     7
 10
609.5968496768999785
 20
636.1380596712000397
 30
0.0
 11
609.5968496768999785
 21
716.6380607589999272
 31
0.0
  0
ARC
  5
CB
  8
0
  6
CONTINUOUS
 62
     7
 10
609.5968529551000756
 20
723.8880603269000176
 30
0.0
 40
7.25
 50
90.0
 51
270.0
  0
LINE
  5
CC
  8
0
  6
CONTINUOUS
 62
     7
 10
609.5968496768999785
 20
731.1380603417999282
 30
0.0
 11
609.5968496768999785
 21
828.638062353399846
 31
0.0
  0
ARC
  5
CD
  8
0
  6
CONTINUOUS
 62
     7
 10
609.5968529551000756
 20
835.8880603269000176
 30
0.0
 40
7.2500000000000373
 50
170.1291103938999925
 51
270.0
  0
ARC
  5
CE
  8
0
  6
CONTINUOUS
 62
     7
 10
600.9763831302999506
 20
837.3880603269000176
 30
0.0
 40
1.5
 50
350.1291103939000209
 51
90.0
  0
LINE
  5
CF
  8
0
  6
CONTINUOUS
 62
     7
 10
600.9763863651999145
 20
838.8880570485999897
 30
0.0
 11
506.846852858299826
 21
838.8880570485999897
 31
0.0
  0
ARC
  5
D0
  8
0
  6
CONTINUOUS
 62
     7
 10
499.5968529550999051
 20
838.8880603268999039
 30
0.0
 40
7.25
 50
180.0
 51
0.0
  0
LINE
  5
D1
  8
0
  6
CONTINUOUS
 62
     7
 10
492.3468532754999956
 20
838.8880570485999897
 30
0.0
 11
406.8468522994999148
 21
838.8880570485999897
 31
0.0
  0
ARC
  5
D2
  8
0
  6
CONTINUOUS
 62
     7
 10
399.5968529551000188
 20
838.8880603268999039
 30
0.0
 40
7.250000000000111
 50
270.0
 51
0.0
  0
LINE
  5
D3
  8
0
  6
CONTINUOUS
 62
     7
 10
399.5968562333999898
 20
746.1380600064999271
 30
0.0
 11
399.5968562333999898
 21
831.6380609824998373
 31
0.0
  0
ARC
  5
D4
  8
0
  6
CONTINUOUS
 62
     7
 10
399.5968529551000188
 20
738.8880603269000176
 30
0.0
 40
7.25
 50
270.0
 51
90.0
  0
LINE
  5
D5
  8
0
  6
CONTINUOUS
 62
     7
 10
399.5968562333999898
 20
637.2733120873000416
 30
0.0
 11
399.5968562333999898
 21
731.6380604236999261
 31
0.0
  0
ARC
  5
D6
  8
0
  6
CONTINUOUS
 62
     7
 10
401.0968529551000188
 20
637.273315242499848
 30
0.0
 40
1.5000000000000551
 50
180.0
 51
286.601549599000009
  0
ARC
  5
D7
  8
0
  6
CONTINUOUS
 62
     7
 10
403.5968529550997914
 20
628.8880603268999039
 30
0.0
 40
7.2500000000001004
 50
0.0
 51
106.6015495989999948
  0
LINE
  5
D8
  8
0
  6
CONTINUOUS
 62
     7
 10
497.3468531637000183
 20
628.888063605100001
 30
0.0
 11
410.8468529551000188
 21
628.888063605100001
 31
0.0
  0
ARC
  5
D9
  8
0
  6
CONTINUOUS
 62
     7
 10
504.5968529551000188
 20
628.8880603268999039
 30
0.0
 40
7.25
 50
0.0
 51
180.0
  0
LINE
  5
DA
  8
0
  6
CONTINUOUS
 62
     7
 10
602.3468536108000535
 20
628.888063605100001
 30
0.0
 11
511.8468527465000193
 21
628.888063605100001
 31
0.0
  0
ARC
  5
DB
  8
0
  6
CONTINUOUS
 62
     7
 10
609.5968529551000756
 20
828.8880603268999039
 30
0.0
 40
1.0
 50
0.0
 51
90.0
  0
LINE
  5
DC
  8
0
  6
CONTINUOUS
 62
     7
 10
610.5968517033999206
 20
730.8880603008000207
 30
0.0
 11
610.5968517033999206
 21
828.8880591347999598
 31
0.0
  0
ARC
  5
DD
  8
0
  6
CONTINUOUS
 62
     7
 10
609.5968529551000756
 20
730.8880603269000176
 30
0.0
 40
1.0
 50
270.0
 51
0.0
  0
ARC
  5
DE
  8
0
  6
CONTINUOUS
 62
     7
 10
609.5968529551000756
 20
723.8880603269000176
 30
0.0
 40
6.0
 50
90.0
 51
270.0
  0
ARC
  5
DF
  8
0
  6
CONTINUOUS
 62
     7
 10
609.5968529551000756
 20
716.8880603269000176
 30
0.0
 40
1.0
 50
0.0
 51
90.0
  0
LINE
  5
E0
  8
0
  6
CONTINUOUS
 62
     7
 10
610.5968517033999206
 20
635.8880628898998566
 30
0.0
 11
610.5968517033999206
 21
716.8880594030000566
 31
0.0
  0
ARC
  5
E1
  8
0
  6
CONTINUOUS
 62
     7
 10
609.5968529551000756
 20
635.8880603269000176
 30
0.0
 40
1.0
 50
270.0
 51
0.0
  0
ARC
  5
E2
  8
0
  6
CONTINUOUS
 62
     7
 10
609.5968529551000756
 20
628.8880603268999039
 30
0.0
 40
6.000000000000111
 50
90.0
 51
180.0
  0
ARC
  5
E3
  8
0
  6
CONTINUOUS
 62
     7
 10
602.5968529551000756
 20
628.8880603268999039
 30
0.0
 40
1.0
 50
270.0
 51
0.0
  0
LINE
  5
E4
  8
0
  6
CONTINUOUS
 62
     7
 10
511.5968531711999958
 20
627.8880615785999453
 30
0.0
 11
602.5968503920997819
 21
627.8880615785999453
 31
0.0
  0
ARC
  5
E5
  8
0
  6
CONTINUOUS
 62
     7
 10
511.5968529551000188
 20
628.8880603268999039
 30
0.0
 40
1.0000000000000571
 50
180.0
 51
270.0
  0
ARC
  5
E6
  8
0
  6
CONTINUOUS
 62
     7
 10
504.5968529551000188
 20
628.8880603268999039
 30
0.0
 40
6.0
 50
0.0
 51
180.0
  0
ARC
  5
E7
  8
0
  6
CONTINUOUS
 62
     7
 10
497.5968529551000188
 20
628.8880603268999039
 30
0.0
 40
1.0
 50
270.0
 51
0.0
  0
LINE
  5
E8
  8
0
  6
CONTINUOUS
 62
     7
 10
410.5968561737998925
 20
627.8880615785999453
 30
0.0
 11
497.5968527390999725
 21
627.8880615785999453
 31
0.0
  0
ARC
  5
E9
  8
0
  6
CONTINUOUS
 62
     7
 10
410.5968529551000188
 20
628.8880603268999039
 30
0.0
 40
1.0000000000000571
 50
180.0
 51
270.0
  0
ARC
  5
EA
  8
0
  6
CONTINUOUS
 62
     7
 10
403.5968529550997914
 20
628.8880603268999039
 30
0.0
 40
5.9999999999999947
 50
0.0
 51
107.1046351765999987
  0
ARC
  5
EB
  8
0
  6
CONTINUOUS
 62
     7
 10
401.0968529551000188
 20
637.012098731500032
 30
0.0
 40
2.5000000000000941
 50
180.0
 51
287.1046351766000271
  0
LINE
  5
EC
  8
0
  6
CONTINUOUS
 62
     7
 10
398.5968542068000033
 20
731.8880602318999991
 30
0.0
 11
398.5968542068000033
 21
637.0121021822000102
 31
0.0
  0
ARC
  5
ED
  8
0
  6
CONTINUOUS
 62
     7
 10
399.5968529551000188
 20
731.8880603269000176
 30
0.0
 40
1.0
 50
90.0
 51
180.0
  0
ARC
  5
EE
  8
0
  6
CONTINUOUS
 62
     7
 10
399.5968529551000188
 20
738.8880603269000176
 30
0.0
 40
6.0
 50
270.0
 51
90.0
  0
ARC
  5
EF
  8
0
  6
CONTINUOUS
 62
     7
 10
399.5968529551000188
 20
745.8880603269000176
 30
0.0
 40
1.000000000000113
 50
180.0
 51
270.0
  0
LINE
  5
F0
  8
0
  6
CONTINUOUS
 62
     7
 10
398.5968542068000033
 20
831.8880577638998375
 30
0.0
 11
398.5968542068000033
 21
745.8880604311999605
 31
0.0
  0
ARC
  5
F1
  8
0
  6
CONTINUOUS
 62
     7
 10
399.5968529551000188
 20
831.8880603269001313
 30
0.0
 40
1.0
 50
90.0
 51
180.0
  0
ARC
  5
F2
  8
0
  6
CONTINUOUS
 62
     7
 10
399.5968529551000188
 20
838.8880603268999039
 30
0.0
 40
6.000000000000111
 50
270.0
 51
0.0
  0
ARC
  5
F3
  8
0
  6
CONTINUOUS
 62
     7
 10
406.5968529551000188
 20
838.8880603268999039
 30
0.0
 40
1.0
 50
90.0
 51
180.0
  0
LINE
  5
F4
  8
0
  6
CONTINUOUS
 62
     7
 10
492.596852850800019
 20
839.8880590751999762
 30
0.0
 11
406.5968555180999147
 21
839.8880590751999762
 31
0.0
  0
ARC
  5
F5
  8
0
  6
CONTINUOUS
 62
     7
 10
492.5968529551000188
 20
838.8880603268999039
 30
0.0
 40
1.0
 50
0.0
 51
90.0
  0
ARC
  5
F6
  8
0
  6
CONTINUOUS
 62
     7
 10
499.5968529550999051
 20
838.8880603268999039
 30
0.0
 40
6.000000000000056
 50
180.0
 51
0.0
  0
ARC
  5
F7
  8
0
  6
CONTINUOUS
 62
     7
 10
506.5968529551000188
 20
838.8880603268999039
 30
0.0
 40
1.0
 50
90.0
 51
180.0
  0
ARC
  5
F8
  8
0
  6
CONTINUOUS
 62
     7
 10
601.2302526897999542
 20
837.3880603269000176
 30
0.0
 40
2.5000000000001141
 50
349.8357513783000172
 51
90.0
  0
ARC
  5
F9
  8
0
  6
CONTINUOUS
 62
     7
 10
609.5968529551000756
 20
835.8880603269000176
 30
0.0
 40
6.0000000000000622
 50
169.8357513782999035
 51
270.0
  0
LINE
  5
FA
  8
0
  6
CONTINUOUS
 62
     7
 10
601.2302499979000459
 20
839.8880590751999762
 30
0.0
 11
506.5968530500999805
 21
839.8880590751999762
 31
0.0
  0
ARC
  5
FB
  8
0
  6
CONTINUOUS
 62
     7
 10
497.5968529551000188
 20
628.8880603268999039
 30
0.0
 40
3.9999999999999432
 50
270.0
 51
0.0
  0
ARC
  5
FC
  8
0
  6
CONTINUOUS
 62
     7
 10
511.5968529551000188
 20
628.8880603268999039
 30
0.0
 40
4.0
 50
180.0
 51
270.0
  0
LINE
  5
FD
  8
0
  6
CONTINUOUS
 62
     7
 10
511.5968531711999958
 20
624.8880629494998402
 30
0.0
 11
602.5968503920997819
 21
624.8880629494998402
 31
0.0
  0
ARC
  5
FE
  8
0
  6
CONTINUOUS
 62
     7
 10
602.5968529551000756
 20
628.8880603268999039
 30
0.0
 40
4.0
 50
270.0
 51
0.0
  0
ARC
  5
FF
  8
0
  6
CONTINUOUS
 62
     7
 10
609.5968529551000756
 20
635.8880603269000176
 30
0.0
 40
4.0000000000001128
 50
270.0
 51
0.0
  0
LINE
  5
100
  8
0
  6
CONTINUOUS
 62
     7
 10
613.5968503325000256
 20
635.8880628898998566
 30
0.0
 11
613.5968503325000256
 21
716.8880594030000566
 31
0.0
  0
ARC
  5
101
  8
0
  6
CONTINUOUS
 62
     7
 10
609.5968529551000756
 20
716.8880603269000176
 30
0.0
 40
4.0
 50
0.0
 51
90.0
  0
LINE
  5
102
  8
0
  6
CONTINUOUS
 62
     7
 10
565.5968536405999885
 20
623.8880609228998537
 30
0.0
 11
443.5968522696999798
 21
623.8880609228998537
 31
0.0
  0
LINE
  5
103
  8
0
  6
CONTINUOUS
 62
     7
 10
439.5968553393000207
 20
612.8880609824998373
 30
0.0
 11
443.5968522696999798
 21
612.8880609824998373
 31
0.0
  0
LINE
  5
104
  8
0
  6
CONTINUOUS
 62
     7
 10
439.5968553393000207
 20
623.8880609228998537
 30
0.0
 11
439.5968553393000207
 21
612.8880609824998373
 31
0.0
  0
LINE
  5
105
  8
0
  6
CONTINUOUS
 62
     7
 10
439.5968553393000207
 20
623.8880609228998537
 30
0.0
 11
394.596853551200013
 21
623.8880609228998537
 31
0.0
  0
LINE
  5
106
  8
0
  6
CONTINUOUS
 62
     7
 10
394.596853551200013
 20
623.8880609228998537
 30
0.0
 11
394.596853551200013
 21
843.8880597307999096
 31
0.0
  0
LINE
  5
107
  8
0
  6
CONTINUOUS
 62
     7
 10
614.5968523591000121
 20
843.8880597307999096
 30
0.0
 11
394.596853551200013
 21
843.8880597307999096
 31
0.0
  0
LINE
  5
108
  8
0
  6
CONTINUOUS
 62
     7
 10
614.5968523591000121
 20
623.8880609228998537
 30
0.0
 11
614.5968523591000121
 21
843.8880597307999096
 31
0.0
  0
LINE
  5
109
  8
0
  6
CONTINUOUS
 62
     7
 10
614.5968523591000121
 20
623.8880609228998537
 30
0.0
 11
569.5968505708998464
 21
623.8880609228998537
 31
0.0
  0
LINE
  5
10A
  8
0
  6
CONTINUOUS
 62
     7
 10
569.5968505708998464
 20
621.3880633070998556
 30
0.0
 11
569.5968505708998464
 21
623.8880609228998537
 31
0.0
  0
LINE
  5
10B
  8
0
  6
CONTINUOUS
 62
     7
 10
565.5968536405999885
 20
623.8880609228998537
 30
0.0
 11
565.5968536405999885
 21
621.3880633070998556
 31
0.0
  0
LINE
  5
10C
  8
0
  6
CONTINUOUS
 62
     7
 10
443.5968522696999798
 20
612.8880609824998373
 30
0.0
 11
443.5968522696999798
 21
623.8880609228998537
 31
0.0
  0
ARC
  5
10D
  8
0
  6
CONTINUOUS
 62
     7
 10
399.5968529551000188
 20
634.6326229733999753
 30
0.0
 40
4.0000000000000604
 50
180.0
 51
304.8499045789999968
  0
ARC
  5
10E
  8
0
  6
CONTINUOUS
 62
     7
 10
410.5968529551000188
 20
628.8880603268999039
 30
0.0
 40
4.0000000000000551
 50
180.0
 51
270.0
  0
LINE
  5
10F
  8
0
  6
CONTINUOUS
 62
     7
 10
410.5968561737998925
 20
624.8880629494998402
 30
0.0
 11
497.5968527390999725
 21
624.8880629494998402
 31
0.0
  0
ARC
  5
110
  8
0
  6
CONTINUOUS
 62
     7
 10
609.5968529551000756
 20
730.8880603269000176
 30
0.0
 40
4.0
 50
270.0
 51
0.0
  0
ARC
  5
111
  8
0
  6
CONTINUOUS
 62
     7
 10
609.5968529551000756
 20
828.8880603268999039
 30
0.0
 40
4.0
 50
0.0
 51
90.0
  0
ARC
  5
112
  8
0
  6
CONTINUOUS
 62
     7
 10
603.2722976347999975
 20
838.8880603268999039
 30
0.0
 40
4.0
 50
334.6230664747999981
 51
90.0
  0
LINE
  5
113
  8
0
  6
CONTINUOUS
 62
     7
 10
613.5968503325000256
 20
730.8880603008000207
 30
0.0
 11
613.5968503325000256
 21
828.8880591347999598
 31
0.0
  0
ARC
  5
114
  8
0
  6
CONTINUOUS
 62
     7
 10
399.5968529551000188
 20
745.8880603269000176
 30
0.0
 40
4.0
 50
180.0
 51
270.0
  0
ARC
  5
115
  8
0
  6
CONTINUOUS
 62
     7
 10
399.5968529551000188
 20
731.8880603269000176
 30
0.0
 40
3.9999999999999432
 50
90.0
 51
180.0
  0
LINE
  5
116
  8
0
  6
CONTINUOUS
 62
     7
 10
395.5968555776998983
 20
731.8880602318999991
 30
0.0
 11
395.5968555776998983
 21
634.6326251580999269
 31
0.0
  0
ARC
  5
117
  8
0
  6
CONTINUOUS
 62
     7
 10
399.5968529551000188
 20
831.8880603269001313
 30
0.0
 40
4.0
 50
90.0
 51
180.0
  0
LINE
  5
118
  8
0
  6
CONTINUOUS
 62
     7
 10
395.5968555776998983
 20
831.8880577638998375
 30
0.0
 11
395.5968555776998983
 21
745.8880604311999605
 31
0.0
  0
LINE
  5
119
  8
0
  6
CONTINUOUS
 62
     7
 10
603.2722976772998891
 20
842.8880577042998539
 30
0.0
 11
506.5968530500999805
 21
842.8880577042998539
 31
0.0
  0
ARC
  5
11A
  8
0
  6
CONTINUOUS
 62
     7
 10
506.5968529551000188
 20
838.8880603268999039
 30
0.0
 40
4.0
 50
90.0
 51
180.0
  0
ARC
  5
11B
  8
0
  6
CONTINUOUS
 62
     7
 10
492.5968529551000188
 20
838.8880603268999039
 30
0.0
 40
4.0
 50
0.0
 51
90.0
  0
LINE
  5
11C
  8
0
  6
CONTINUOUS
 62
     7
 10
492.596852850800019
 20
842.8880577042998539
 30
0.0
 11
406.5968555180999147
 21
842.8880577042998539
 31
0.0
  0
ARC
  5
11D
  8
0
  6
CONTINUOUS
 62
     7
 10
406.5968529551000188
 20
838.8880603268999039
 30
0.0
 40
4.0
 50
90.0
 51
180.0
  0
ARC
  5
11E
  8
0
  6
CONTINUOUS
 62
     7
 10
403.5968529550997914
 20
628.8880603268999039
 30
0.0
 40
10.2500000000000906
 50
0.0
 51
112.9696765723000027
  0
ARC
  5
11F
  8
0
  6
CONTINUOUS
 62
     7
 10
609.5968529551000756
 20
835.8880603269000176
 30
0.0
 40
10.2500000000000604
 50
162.9813525964000007
 51
270.0
  0
ARC
  5
120
  8
0
  6
CONTINUOUS
 62
     7
 10
499.5968529550999051
 20
838.8880603268999039
 30
0.0
 40
10.25
 50
180.0
 51
0.0
  0
ARC
  5
121
  8
0
  6
CONTINUOUS
 62
     7
 10
609.5968529551000756
 20
723.8880603269000176
 30
0.0
 40
10.2500000000001101
 50
90.0
 51
270.0
  0
ARC
  5
122
  8
0
  6
CONTINUOUS
 62
     7
 10
609.5968529551000756
 20
628.8880603268999039
 30
0.0
 40
10.25
 50
90.0
 51
180.0
  0
ARC
  5
123
  8
0
  6
CONTINUOUS
 62
     7
 10
399.5968529551000188
 20
838.8880603268999039
 30
0.0
 40
10.25
 50
270.0
 51
0.0
  0
ARC
  5
124
  8
0
  6
CONTINUOUS
 62
     7
 10
399.5968529551000188
 20
738.8880603269000176
 30
0.0
 40
10.25
 50
270.0
 51
90.0
  0
ARC
  5
125
  8
0
  6
CONTINUOUS
 62
     7
 10
504.5968529551000188
 20
628.8880603268999039
 30
0.0
 40
10.25
 50
0.0
 51
180.0
  0
LINE
  5
126
  8
0
  6
CONTINUOUS
 62
     7
 10
505.0534818394999093
 20
771.8880591050000248
 30
0.0
 11
505.0534818394999093
 21
830.2112151935998554
 31
0.0
  0
LINE
  5
127
  8
0
  6
CONTINUOUS
 62
     7
 10
399.5968562333999898
 20
771.8880591050000248
 30
0.0
 11
505.0534818394999093
 21
771.8880591050000248
 31
0.0
  0
POLYLINE
  5
128
  8
0
  6
CONTINUOUS
 62
     7
 10
505.0534818377000192
 20
771.8880603269000176
 30
0.0
 66
     1
 70
     8
  0
VERTEX
  8
0
  5
6A5
 10
505.053
 20
771.888
 30
0.00000
  70
    32
  0
VERTEX
  8
0
  5
6A6
 10
505.054
 20
771.839
 30
0.00000
  70
    32
  0
VERTEX
  8
0
  5
6A7
 10
505.054
 20
771.790
 30
0.00000
  70
    32
  0
VERTEX
  8
0
  5
6A8
 10
505.054
 20
771.741
 30
0.00000
  70
    32
  0
VERTEX
  8
0
  5
6A9
 10
505.055
 20
771.692
 30
0.00000
  70
    32
  0
VERTEX
  8
0
  5
6AA
 10
505.055
 20
771.643
 30
0.00000
  70
    32
  0
VERTEX
  8
0
  5
6AB
 10
505.056
 20
771.594
 30
0.00000
  70
    32
  0
VERTEX
  8
0
  5
6AC
 10
505.057
 20
771.545
 30
0.00000
  70
    32
  0
VERTEX
  8
0
  5
6AD
 10
505.058
 20
771.496
 30
0.00000
  70
    32
  0
VERTEX
  8
0
  5
6AE
 10
505.059
 20
771.447
 30
0.00000
  70
    32
  0
VERTEX
  8
0
  5
6AF
 10
505.060
 20
771.398
 30
0.00000
  70
    32
  0
VERTEX
  8
0
  5
6B0
 10
505.061
 20
771.350
 30
0.00000
  70
    32
  0
VERTEX
  8
0
  5
6B1
 10
505.063
 20
771.301
 30
0.00000
  70
    32
  0
VERTEX
  8
0
  5
6B2
 10
505.064
 20
771.253
 30
0.00000
  70
    32
  0
VERTEX
  8
0
  5
6B3
 10
505.066
 20
771.204
 30
0.00000
  70
    32
  0
VERTEX
  8
0
  5
6B4
 10
505.068
 20
771.156
 30
0.00000
  70
    32
  0
VERTEX
  8
0
  5
6B5
 10
505.070
 20
771.108
 30
0.00000
  70
    32
  0
VERTEX
  8
0
  5
6B6
 10
505.072
 20
771.060
 30
0.00000
  70
    32
  0
VERTEX
  8
0
  5
6B7
 10
505.075
 20
771.012
 30
0.00000
  70
    32
  0
VERTEX
  8
0
  5
6B8
 10
505.077
 20
770.964
 30
0.00000
  70
    32
  0
VERTEX
  8
0
  5
6B9
 10
505.079
 20
770.916
 30
0.00000
  70
    32
  0
VERTEX
  8
0
  5
6BA
 10
505.082
 20
770.869
 30
0.00000
  70
    32
  0
VERTEX
  8
0
  5
6BB
 10
505.085
 20
770.821
 30
0.00000
  70
    32
  0
VERTEX
  8
0
  5
6BC
 10
505.088
 20
770.774
 30
0.00000
  70
    32
  0
VERTEX
  8
0
  5
6BD
 10
505.091
 20
770.727
 30
0.00000
  70
    32
  0
VERTEX
  8
0
  5
6BE
 10
505.094
 20
770.680
 30
0.00000
  70
    32
  0
VERTEX
  8
0
  5
6BF
 10
505.097
 20
770.633
 30
0.00000
  70
    32
  0
VERTEX
  8
0
  5
6C0
 10
505.101
 20
770.587
 30
0.00000
  70
    32
  0
VERTEX
  8
0
  5
6C1
 10
505.104
 20
770.541
 30
0.00000
  70
    32
  0
VERTEX
  8
0
  5
6C2
 10
505.108
 20
770.494
 30
0.00000
  70
    32
  0
VERTEX
  8
0
  5
6C3
 10
505.112
 20
770.448
 30
0.00000
  70
    32
  0
VERTEX
  8
0
  5
6C4
 10
505.115
 20
770.403
 30
0.00000
  70
    32
  0
VERTEX
  8
0
  5
6C5
 10
505.119
 20
770.357
 30
0.00000
  70
    32
  0
VERTEX
  8
0
  5
6C6
 10
505.124
 20
770.312
 30
0.00000
  70
    32
  0
VERTEX
  8
0
  5
6C7
 10
505.128
 20
770.267
 30
0.00000
  70
    32
  0
VERTEX
  8
0
  5
6C8
 10
505.132
 20
770.222
 30
0.00000
  70
    32
  0
VERTEX
  8
0
  5
6C9
 10
505.137
 20
770.178
 30
0.00000
  70
    32
  0
VERTEX
  8
0
  5
6CA
 10
505.141
 20
770.134
 30
0.00000
  70
    32
  0
VERTEX
  8
0
  5
6CB
 10
505.146
 20
770.090
 30
0.00000
  70
    32
  0
VERTEX
  8
0
  5
6CC
 10
505.151
 20
770.046
 30
0.00000
  70
    32
  0
VERTEX
  8
0
  5
6CD
 10
505.156
 20
770.002
 30
0.00000
  70
    32
  0
VERTEX
  8
0
  5
6CE
 10
505.161
 20
769.959
 30
0.00000
  70
    32
  0
VERTEX
  8
0
  5
6CF
 10
505.166
 20
769.916
 30
0.00000
  70
    32
  0
VERTEX
  8
0
  5
6D0
 10
505.171
 20
769.874
 30
0.00000
  70
    32
  0
VERTEX
  8
0
  5
6D1
 10
505.177
 20
769.832
 30
0.00000
  70
    32
  0
VERTEX
  8
0
  5
6D2
 10
505.182
 20
769.790
 30
0.00000
  70
    32
  0
VERTEX
  8
0
  5
6D3
 10
505.188
 20
769.748
 30
0.00000
  70
    32
  0
VERTEX
  8
0
  5
6D4
 10
505.194
 20
769.707
 30
0.00000
  70
    32
  0
VERTEX
  8
0
  5
6D5
 10
505.200
 20
769.666
 30
0.00000
  70
    32
  0
VERTEX
  8
0
  5
6D6
 10
505.206
 20
769.625
 30
0.00000
  70
    32
  0
VERTEX
  8
0
  5
6D7
 10
505.212
 20
769.585
 30
0.00000
  70
    32
  0
VERTEX
  8
0
  5
6D8
 10
505.218
 20
769.545
 30
0.00000
  70
    32
  0
VERTEX
  8
0
  5
6D9
 10
505.224
 20
769.505
 30
0.00000
  70
    32
  0
VERTEX
  8
0
  5
6DA
 10
505.230
 20
769.466
 30
0.00000
  70
    32
  0
VERTEX
  8
0
  5
6DB
 10
505.237
 20
769.427
 30
0.00000
  70
    32
  0
VERTEX
  8
0
  5
6DC
 10
505.244
 20
769.389
 30
0.00000
  70
    32
  0
VERTEX
  8
0
  5
6DD
 10
505.250
 20
769.350
 30
0.00000
  70
    32
  0
VERTEX
  8
0
  5
6DE
 10
505.257
 20
769.313
 30
0.00000
  70
    32
  0
VERTEX
  8
0
  5
6DF
 10
505.264
 20
769.275
 30
0.00000
  70
    32
  0
VERTEX
  8
0
  5
6E0
 10
505.271
 20
769.238
 30
0.00000
  70
    32
  0
VERTEX
  8
0
  5
6E1
 10
505.278
 20
769.202
 30
0.00000
  70
    32
  0
VERTEX
  8
0
  5
6E2
 10
505.285
 20
769.166
 30
0.00000
  70
    32
  0
VERTEX
  8
0
  5
6E3
 10
505.292
 20
769.130
 30
0.00000
  70
    32
  0
VERTEX
  8
0
  5
6E4
 10
505.300
 20
769.095
 30
0.00000
  70
    32
  0
VERTEX
  8
0
  5
6E5
 10
505.307
 20
769.060
 30
0.00000
  70
    32
  0
VERTEX
  8
0
  5
6E6
 10
505.315
 20
769.025
 30
0.00000
  70
    32
  0
VERTEX
  8
0
  5
6E7
 10
505.323
 20
768.991
 30
0.00000
  70
    32
  0
VERTEX
  8
0
  5
6E8
 10
505.330
 20
768.957
 30
0.00000
  70
    32
  0
VERTEX
  8
0
  5
6E9
 10
505.338
 20
768.924
 30
0.00000
  70
    32
  0
VERTEX
  8
0
  5
6EA
 10
505.346
 20
768.892
 30
0.00000
  70
    32
  0
VERTEX
  8
0
  5
6EB
 10
505.354
 20
768.859
 30
0.00000
  70
    32
  0
VERTEX
  8
0
  5
6EC
 10
505.362
 20
768.827
 30
0.00000
  70
    32
  0
VERTEX
  8
0
  5
6ED
 10
505.370
 20
768.796
 30
0.00000
  70
    32
  0
VERTEX
  8
0
  5
6EE
 10
505.379
 20
768.765
 30
0.00000
  70
    32
  0
VERTEX
  8
0
  5
6EF
 10
505.387
 20
768.735
 30
0.00000
  70
    32
  0
VERTEX
  8
0
  5
6F0
 10
505.395
 20
768.705
 30
0.00000
  70
    32
  0
VERTEX
  8
0
  5
6F1
 10
505.404
 20
768.675
 30
0.00000
  70
    32
  0
VERTEX
  8
0
  5
6F2
 10
505.412
 20
768.646
 30
0.00000
  70
    32
  0
VERTEX
  8
0
  5
6F3
 10
505.421
 20
768.618
 30
0.00000
  70
    32
  0
VERTEX
  8
0
  5
6F4
 10
505.430
 20
768.590
 30
0.00000
  70
    32
  0
VERTEX
  8
0
  5
6F5
 10
505.439
 20
768.562
 30
0.00000
  70
    32
  0
VERTEX
  8
0
  5
6F6
 10
505.448
 20
768.535
 30
0.00000
  70
    32
  0
VERTEX
  8
0
  5
6F7
 10
505.456
 20
768.509
 30
0.00000
  70
    32
  0
VERTEX
  8
0
  5
6F8
 10
505.466
 20
768.483
 30
0.00000
  70
    32
  0
VERTEX
  8
0
  5
6F9
 10
505.475
 20
768.457
 30
0.00000
  70
    32
  0
VERTEX
  8
0
  5
6FA
 10
505.484
 20
768.432
 30
0.00000
  70
    32
  0
VERTEX
  8
0
  5
6FB
 10
505.493
 20
768.408
 30
0.00000
  70
    32
  0
VERTEX
  8
0
  5
6FC
 10
505.502
 20
768.384
 30
0.00000
  70
    32
  0
VERTEX
  8
0
  5
6FD
 10
505.512
 20
768.360
 30
0.00000
  70
    32
  0
VERTEX
  8
0
  5
6FE
 10
505.521
 20
768.338
 30
0.00000
  70
    32
  0
VERTEX
  8
0
  5
6FF
 10
505.530
 20
768.315
 30
0.00000
  70
    32
  0
VERTEX
  8
0
  5
700
 10
505.540
 20
768.293
 30
0.00000
  70
    32
  0
VERTEX
  8
0
  5
701
 10
505.550
 20
768.272
 30
0.00000
  70
    32
  0
VERTEX
  8
0
  5
702
 10
505.559
 20
768.251
 30
0.00000
  70
    32
  0
VERTEX
  8
0
  5
703
 10
505.569
 20
768.231
 30
0.00000
  70
    32
  0
VERTEX
  8
0
  5
704
 10
505.579
 20
768.212
 30
0.00000
  70
    32
  0
VERTEX
  8
0
  5
705
 10
505.588
 20
768.193
 30
0.00000
  70
    32
  0
VERTEX
  8
0
  5
706
 10
505.598
 20
768.174
 30
0.00000
  70
    32
  0
VERTEX
  8
0
  5
707
 10
505.608
 20
768.156
 30
0.00000
  70
    32
  0
VERTEX
  8
0
  5
708
 10
505.618
 20
768.139
 30
0.00000
  70
    32
  0
VERTEX
  8
0
  5
709
 10
505.628
 20
768.122
 30
0.00000
  70
    32
  0
VERTEX
  8
0
  5
70A
 10
505.638
 20
768.106
 30
0.00000
  70
    32
  0
VERTEX
  8
0
  5
70B
 10
505.648
 20
768.090
 30
0.00000
  70
    32
  0
VERTEX
  8
0
  5
70C
 10
505.658
 20
768.075
 30
0.00000
  70
    32
  0
VERTEX
  8
0
  5
70D
 10
505.669
 20
768.060
 30
0.00000
  70
    32
  0
VERTEX
  8
0
  5
70E
 10
505.679
 20
768.046
 30
0.00000
  70
    32
  0
VERTEX
  8
0
  5
70F
 10
505.689
 20
768.033
 30
0.00000
  70
    32
  0
VERTEX
  8
0
  5
710
 10
505.699
 20
768.020
 30
0.00000
  70
    32
  0
VERTEX
  8
0
  5
711
 10
505.710
 20
768.008
 30
0.00000
  70
    32
  0
VERTEX
  8
0
  5
712
 10
505.720
 20
767.996
 30
0.00000
  70
    32
  0
VERTEX
  8
0
  5
713
 10
505.730
 20
767.985
 30
0.00000
  70
    32
  0
VERTEX
  8
0
  5
714
 10
505.741
 20
767.975
 30
0.00000
  70
    32
  0
VERTEX
  8
0
  5
715
 10
505.751
 20
767.965
 30
0.00000
  70
    32
  0
VERTEX
  8
0
  5
716
 10
505.762
 20
767.956
 30
0.00000
  70
    32
  0
VERTEX
  8
0
  5
717
 10
505.772
 20
767.947
 30
0.00000
  70
    32
  0
VERTEX
  8
0
  5
718
 10
505.782
 20
767.939
 30
0.00000
  70
    32
  0
VERTEX
  8
0
  5
719
 10
505.793
 20
767.931
 30
0.00000
  70
    32
  0
VERTEX
  8
0
  5
71A
 10
505.804
 20
767.924
 30
0.00000
  70
    32
  0
VERTEX
  8
0
  5
71B
 10
505.814
 20
767.918
 30
0.00000
  70
    32
  0
VERTEX
  8
0
  5
71C
 10
505.825
 20
767.912
 30
0.00000
  70
    32
  0
VERTEX
  8
0
  5
71D
 10
505.835
 20
767.907
 30
0.00000
  70
    32
  0
VERTEX
  8
0
  5
71E
 10
505.846
 20
767.903
 30
0.00000
  70
    32
  0
VERTEX
  8
0
  5
71F
 10
505.856
 20
767.899
 30
0.00000
  70
    32
  0
VERTEX
  8
0
  5
720
 10
505.867
 20
767.896
 30
0.00000
  70
    32
  0
VERTEX
  8
0
  5
721
 10
505.878
 20
767.893
 30
0.00000
  70
    32
  0
VERTEX
  8
0
  5
722
 10
505.888
 20
767.891
 30
0.00000
  70
    32
  0
VERTEX
  8
0
  5
723
 10
505.899
 20
767.889
 30
0.00000
  70
    32
  0
VERTEX
  8
0
  5
724
 10
505.910
 20
767.888
 30
0.00000
  70
    32
  0
VERTEX
  8
0
  5
725
 10
505.920
 20
767.888
 30
0.00000
  70
    32
  0
SEQEND
  8
0
  5
726
  0
LINE
  5
129
  8
0
  6
CONTINUOUS
 62
     7
 10
505.9201484794999146
 20
767.8880621746001225
 30
0.0
 11
399.5968562333999898
 21
767.8880621746001225
 31
0.0
  0
LINE
  5
12A
  8
0
  6
CONTINUOUS
 62
     7
 10
507.3205491310998241
 20
832.1495880439999837
 30
0.0
 11
507.3205491310998241
 21
771.8880591050000248
 31
0.0
  0
LINE
  5
12B
  8
0
  6
CONTINUOUS
 62
     7
 10
507.3205491310998241
 20
771.8880591050000248
 30
0.0
 11
505.0534818394999093
 21
771.8880591050000248
 31
0.0
  0
POLYLINE
  5
12C
  8
0
  6
CONTINUOUS
 62
     7
 10
507.3205490862000602
 20
771.8880603269000176
 30
0.0
 66
     1
 70
     8
  0
VERTEX
  8
0
  5
727
 10
507.321
 20
771.888
 30
0.00000
  70
    32
  0
VERTEX
  8
0
  5
728
 10
507.321
 20
771.876
 30
0.00000
  70
    32
  0
VERTEX
  8
0
  5
729
 10
507.321
 20
771.864
 30
0.00000
  70
    32
  0
VERTEX
  8
0
  5
72A
 10
507.321
 20
771.851
 30
0.00000
  70
    32
  0
VERTEX
  8
0
  5
72B
 10
507.322
 20
771.839
 30
0.00000
  70
    32
  0
VERTEX
  8
0
  5
72C
 10
507.322
 20
771.827
 30
0.00000
  70
    32
  0
VERTEX
  8
0
  5
72D
 10
507.323
 20
771.814
 30
0.00000
  70
    32
  0
VERTEX
  8
0
  5
72E
 10
507.324
 20
771.802
 30
0.00000
  70
    32
  0
VERTEX
  8
0
  5
72F
 10
507.325
 20
771.790
 30
0.00000
  70
    32
  0
VERTEX
  8
0
  5
730
 10
507.326
 20
771.778
 30
0.00000
  70
    32
  0
VERTEX
  8
0
  5
731
 10
507.327
 20
771.766
 30
0.00000
  70
    32
  0
VERTEX
  8
0
  5
732
 10
507.328
 20
771.753
 30
0.00000
  70
    32
  0
VERTEX
  8
0
  5
733
 10
507.330
 20
771.741
 30
0.00000
  70
    32
  0
VERTEX
  8
0
  5
734
 10
507.332
 20
771.729
 30
0.00000
  70
    32
  0
VERTEX
  8
0
  5
735
 10
507.333
 20
771.717
 30
0.00000
  70
    32
  0
VERTEX
  8
0
  5
736
 10
507.335
 20
771.705
 30
0.00000
  70
    32
  0
VERTEX
  8
0
  5
737
 10
507.337
 20
771.693
 30
0.00000
  70
    32
  0
VERTEX
  8
0
  5
738
 10
507.339
 20
771.681
 30
0.00000
  70
    32
  0
VERTEX
  8
0
  5
739
 10
507.342
 20
771.669
 30
0.00000
  70
    32
  0
VERTEX
  8
0
  5
73A
 10
507.344
 20
771.657
 30
0.00000
  70
    32
  0
VERTEX
  8
0
  5
73B
 10
507.347
 20
771.645
 30
0.00000
  70
    32
  0
VERTEX
  8
0
  5
73C
 10
507.349
 20
771.633
 30
0.00000
  70
    32
  0
VERTEX
  8
0
  5
73D
 10
507.352
 20
771.621
 30
0.00000
  70
    32
  0
VERTEX
  8
0
  5
73E
 10
507.355
 20
771.610
 30
0.00000
  70
    32
  0
VERTEX
  8
0
  5
73F
 10
507.358
 20
771.598
 30
0.00000
  70
    32
  0
VERTEX
  8
0
  5
740
 10
507.361
 20
771.586
 30
0.00000
  70
    32
  0
VERTEX
  8
0
  5
741
 10
507.364
 20
771.574
 30
0.00000
  70
    32
  0
VERTEX
  8
0
  5
742
 10
507.368
 20
771.563
 30
0.00000
  70
    32
  0
VERTEX
  8
0
  5
743
 10
507.371
 20
771.551
 30
0.00000
  70
    32
  0
VERTEX
  8
0
  5
744
 10
507.375
 20
771.540
 30
0.00000
  70
    32
  0
VERTEX
  8
0
  5
745
 10
507.379
 20
771.528
 30
0.00000
  70
    32
  0
VERTEX
  8
0
  5
746
 10
507.383
 20
771.517
 30
0.00000
  70
    32
  0
VERTEX
  8
0
  5
747
 10
507.387
 20
771.505
 30
0.00000
  70
    32
  0
VERTEX
  8
0
  5
748
 10
507.391
 20
771.494
 30
0.00000
  70
    32
  0
VERTEX
  8
0
  5
749
 10
507.395
 20
771.483
 30
0.00000
  70
    32
  0
VERTEX
  8
0
  5
74A
 10
507.399
 20
771.472
 30
0.00000
  70
    32
  0
VERTEX
  8
0
  5
74B
 10
507.404
 20
771.461
 30
0.00000
  70
    32
  0
VERTEX
  8
0
  5
74C
 10
507.408
 20
771.449
 30
0.00000
  70
    32
  0
VERTEX
  8
0
  5
74D
 10
507.413
 20
771.438
 30
0.00000
  70
    32
  0
VERTEX
  8
0
  5
74E
 10
507.418
 20
771.428
 30
0.00000
  70
    32
  0
VERTEX
  8
0
  5
74F
 10
507.423
 20
771.417
 30
0.00000
  70
    32
  0
VERTEX
  8
0
  5
750
 10
507.428
 20
771.406
 30
0.00000
  70
    32
  0
VERTEX
  8
0
  5
751
 10
507.433
 20
771.395
 30
0.00000
  70
    32
  0
VERTEX
  8
0
  5
752
 10
507.438
 20
771.385
 30
0.00000
  70
    32
  0
VERTEX
  8
0
  5
753
 10
507.444
 20
771.374
 30
0.00000
  70
    32
  0
VERTEX
  8
0
  5
754
 10
507.449
 20
771.363
 30
0.00000
  70
    32
  0
VERTEX
  8
0
  5
755
 10
507.455
 20
771.353
 30
0.00000
  70
    32
  0
VERTEX
  8
0
  5
756
 10
507.461
 20
771.343
 30
0.00000
  70
    32
  0
VERTEX
  8
0
  5
757
 10
507.467
 20
771.332
 30
0.00000
  70
    32
  0
VERTEX
  8
0
  5
758
 10
507.473
 20
771.322
 30
0.00000
  70
    32
  0
VERTEX
  8
0
  5
759
 10
507.479
 20
771.312
 30
0.00000
  70
    32
  0
VERTEX
  8
0
  5
75A
 10
507.485
 20
771.302
 30
0.00000
  70
    32
  0
VERTEX
  8
0
  5
75B
 10
507.491
 20
771.292
 30
0.00000
  70
    32
  0
VERTEX
  8
0
  5
75C
 10
507.497
 20
771.283
 30
0.00000
  70
    32
  0
VERTEX
  8
0
  5
75D
 10
507.504
 20
771.273
 30
0.00000
  70
    32
  0
VERTEX
  8
0
  5
75E
 10
507.511
 20
771.263
 30
0.00000
  70
    32
  0
VERTEX
  8
0
  5
75F
 10
507.517
 20
771.254
 30
0.00000
  70
    32
  0
VERTEX
  8
0
  5
760
 10
507.524
 20
771.244
 30
0.00000
  70
    32
  0
VERTEX
  8
0
  5
761
 10
507.531
 20
771.235
 30
0.00000
  70
    32
  0
VERTEX
  8
0
  5
762
 10
507.538
 20
771.226
 30
0.00000
  70
    32
  0
VERTEX
  8
0
  5
763
 10
507.545
 20
771.217
 30
0.00000
  70
    32
  0
VERTEX
  8
0
  5
764
 10
507.552
 20
771.207
 30
0.00000
  70
    32
  0
VERTEX
  8
0
  5
765
 10
507.560
 20
771.199
 30
0.00000
  70
    32
  0
VERTEX
  8
0
  5
766
 10
507.567
 20
771.190
 30
0.00000
  70
    32
  0
VERTEX
  8
0
  5
767
 10
507.574
 20
771.181
 30
0.00000
  70
    32
  0
VERTEX
  8
0
  5
768
 10
507.582
 20
771.172
 30
0.00000
  70
    32
  0
VERTEX
  8
0
  5
769
 10
507.590
 20
771.164
 30
0.00000
  70
    32
  0
VERTEX
  8
0
  5
76A
 10
507.597
 20
771.155
 30
0.00000
  70
    32
  0
VERTEX
  8
0
  5
76B
 10
507.605
 20
771.147
 30
0.00000
  70
    32
  0
VERTEX
  8
0
  5
76C
 10
507.613
 20
771.139
 30
0.00000
  70
    32
  0
VERTEX
  8
0
  5
76D
 10
507.621
 20
771.131
 30
0.00000
  70
    32
  0
VERTEX
  8
0
  5
76E
 10
507.629
 20
771.123
 30
0.00000
  70
    32
  0
VERTEX
  8
0
  5
76F
 10
507.637
 20
771.115
 30
0.00000
  70
    32
  0
VERTEX
  8
0
  5
770
 10
507.646
 20
771.107
 30
0.00000
  70
    32
  0
VERTEX
  8
0
  5
771
 10
507.654
 20
771.100
 30
0.00000
  70
    32
  0
VERTEX
  8
0
  5
772
 10
507.662
 20
771.092
 30
0.00000
  70
    32
  0
VERTEX
  8
0
  5
773
 10
507.671
 20
771.085
 30
0.00000
  70
    32
  0
VERTEX
  8
0
  5
774
 10
507.680
 20
771.078
 30
0.00000
  70
    32
  0
VERTEX
  8
0
  5
775
 10
507.688
 20
771.070
 30
0.00000
  70
    32
  0
VERTEX
  8
0
  5
776
 10
507.697
 20
771.063
 30
0.00000
  70
    32
  0
VERTEX
  8
0
  5
777
 10
507.706
 20
771.057
 30
0.00000
  70
    32
  0
VERTEX
  8
0
  5
778
 10
507.715
 20
771.050
 30
0.00000
  70
    32
  0
VERTEX
  8
0
  5
779
 10
507.724
 20
771.043
 30
0.00000
  70
    32
  0
VERTEX
  8
0
  5
77A
 10
507.733
 20
771.037
 30
0.00000
  70
    32
  0
VERTEX
  8
0
  5
77B
 10
507.742
 20
771.030
 30
0.00000
  70
    32
  0
VERTEX
  8
0
  5
77C
 10
507.751
 20
771.024
 30
0.00000
  70
    32
  0
VERTEX
  8
0
  5
77D
 10
507.760
 20
771.018
 30
0.00000
  70
    32
  0
VERTEX
  8
0
  5
77E
 10
507.769
 20
771.012
 30
0.00000
  70
    32
  0
VERTEX
  8
0
  5
77F
 10
507.779
 20
771.006
 30
0.00000
  70
    32
  0
VERTEX
  8
0
  5
780
 10
507.788
 20
771.000
 30
0.00000
  70
    32
  0
VERTEX
  8
0
  5
781
 10
507.798
 20
770.995
 30
0.00000
  70
    32
  0
VERTEX
  8
0
  5
782
 10
507.807
 20
770.989
 30
0.00000
  70
    32
  0
VERTEX
  8
0
  5
783
 10
507.817
 20
770.984
 30
0.00000
  70
    32
  0
VERTEX
  8
0
  5
784
 10
507.826
 20
770.979
 30
0.00000
  70
    32
  0
VERTEX
  8
0
  5
785
 10
507.836
 20
770.974
 30
0.00000
  70
    32
  0
VERTEX
  8
0
  5
786
 10
507.846
 20
770.969
 30
0.00000
  70
    32
  0
VERTEX
  8
0
  5
787
 10
507.856
 20
770.964
 30
0.00000
  70
    32
  0
VERTEX
  8
0
  5
788
 10
507.865
 20
770.960
 30
0.00000
  70
    32
  0
VERTEX
  8
0
  5
789
 10
507.875
 20
770.955
 30
0.00000
  70
    32
  0
VERTEX
  8
0
  5
78A
 10
507.885
 20
770.951
 30
0.00000
  70
    32
  0
VERTEX
  8
0
  5
78B
 10
507.895
 20
770.947
 30
0.00000
  70
    32
  0
VERTEX
  8
0
  5
78C
 10
507.905
 20
770.942
 30
0.00000
  70
    32
  0
VERTEX
  8
0
  5
78D
 10
507.915
 20
770.939
 30
0.00000
  70
    32
  0
VERTEX
  8
0
  5
78E
 10
507.925
 20
770.935
 30
0.00000
  70
    32
  0
VERTEX
  8
0
  5
78F
 10
507.936
 20
770.931
 30
0.00000
  70
    32
  0
VERTEX
  8
0
  5
790
 10
507.946
 20
770.928
 30
0.00000
  70
    32
  0
VERTEX
  8
0
  5
791
 10
507.956
 20
770.924
 30
0.00000
  70
    32
  0
VERTEX
  8
0
  5
792
 10
507.966
 20
770.921
 30
0.00000
  70
    32
  0
VERTEX
  8
0
  5
793
 10
507.977
 20
770.918
 30
0.00000
  70
    32
  0
VERTEX
  8
0
  5
794
 10
507.987
 20
770.915
 30
0.00000
  70
    32
  0
VERTEX
  8
0
  5
795
 10
507.997
 20
770.912
 30
0.00000
  70
    32
  0
VERTEX
  8
0
  5
796
 10
508.008
 20
770.910
 30
0.00000
  70
    32
  0
VERTEX
  8
0
  5
797
 10
508.018
 20
770.907
 30
0.00000
  70
    32
  0
VERTEX
  8
0
  5
798
 10
508.029
 20
770.905
 30
0.00000
  70
    32
  0
VERTEX
  8
0
  5
799
 10
508.039
 20
770.903
 30
0.00000
  70
    32
  0
VERTEX
  8
0
  5
79A
 10
508.050
 20
770.901
 30
0.00000
  70
    32
  0
VERTEX
  8
0
  5
79B
 10
508.060
 20
770.899
 30
0.00000
  70
    32
  0
VERTEX
  8
0
  5
79C
 10
508.071
 20
770.897
 30
0.00000
  70
    32
  0
VERTEX
  8
0
  5
79D
 10
508.081
 20
770.896
 30
0.00000
  70
    32
  0
VERTEX
  8
0
  5
79E
 10
508.092
 20
770.894
 30
0.00000
  70
    32
  0
VERTEX
  8
0
  5
79F
 10
508.102
 20
770.893
 30
0.00000
  70
    32
  0
VERTEX
  8
0
  5
7A0
 10
508.113
 20
770.892
 30
0.00000
  70
    32
  0
VERTEX
  8
0
  5
7A1
 10
508.123
 20
770.891
 30
0.00000
  70
    32
  0
VERTEX
  8
0
  5
7A2
 10
508.134
 20
770.890
 30
0.00000
  70
    32
  0
VERTEX
  8
0
  5
7A3
 10
508.145
 20
770.889
 30
0.00000
  70
    32
  0
VERTEX
  8
0
  5
7A4
 10
508.155
 20
770.889
 30
0.00000
  70
    32
  0
VERTEX
  8
0
  5
7A5
 10
508.166
 20
770.888
 30
0.00000
  70
    32
  0
VERTEX
  8
0
  5
7A6
 10
508.177
 20
770.888
 30
0.00000
  70
    32
  0
VERTEX
  8
0
  5
7A7
 10
508.187
 20
770.888
 30
0.00000
  70
    32
  0
SEQEND
  8
0
  5
7A8
  0
ARC
  5
12D
  8
0
  6
CONTINUOUS
 62
     7
 10
505.4944483296000044
 20
770.5663580330998457
 30
0.0
 40
2.7119161718329812
 50
279.0312959322999973
 51
6.8127905557000004
  0
LINE
  5
12E
  8
0
  6
CONTINUOUS
 62
     7
 10
519.423368644600032
 20
770.8880608037000002
 30
0.0
 11
519.423368644600032
 21
838.8880570485999897
 31
0.0
  0
LINE
  5
12F
  8
0
  6
CONTINUOUS
 62
     7
 10
508.1872158000999775
 20
770.8880608037000002
 30
0.0
 11
519.423368644600032
 21
770.8880608037000002
 31
0.0
  0
CIRCLE
  5
130
  8
0
  6
CONTINUOUS
 62
     7
 10
579.3468529551000756
 20
659.3880603269000176
 30
0.0
 40
3.5000000000001128
  0
CIRCLE
  5
131
  8
0
  6
CONTINUOUS
 62
     7
 10
579.3468529551000756
 20
659.3880603269000176
 30
0.0
 40
1.25
  0
CIRCLE
  5
132
  8
0
  6
CONTINUOUS
 62
     7
 10
579.3468529551000756
 20
659.3880603269000176
 30
0.0
 40
4.5000000000001128
  0
POLYLINE
  5
133
  8
0
  6
CONTINUOUS
 62
     7
 10
515.4534818378999717
 20
767.8880603268596587
 30
0.0
 66
     1
 70
     8
  0
VERTEX
  8
0
  5
7A9
 10
515.453
 20
767.888
 30
0.00000
  70
    32
  0
VERTEX
  8
0
  5
7AA
 10
515.502
 20
767.888
 30
0.00000
  70
    32
  0
VERTEX
  8
0
  5
7AB
 10
515.551
 20
767.889
 30
0.00000
  70
    32
  0
VERTEX
  8
0
  5
7AC
 10
515.600
 20
767.890
 30
0.00000
  70
    32
  0
VERTEX
  8
0
  5
7AD
 10
515.648
 20
767.892
 30
0.00000
  70
    32
  0
VERTEX
  8
0
  5
7AE
 10
515.697
 20
767.894
 30
0.00000
  70
    32
  0
VERTEX
  8
0
  5
7AF
 10
515.746
 20
767.896
 30
0.00000
  70
    32
  0
VERTEX
  8
0
  5
7B0
 10
515.794
 20
767.899
 30
0.00000
  70
    32
  0
VERTEX
  8
0
  5
7B1
 10
515.843
 20
767.903
 30
0.00000
  70
    32
  0
VERTEX
  8
0
  5
7B2
 10
515.891
 20
767.906
 30
0.00000
  70
    32
  0
VERTEX
  8
0
  5
7B3
 10
515.939
 20
767.911
 30
0.00000
  70
    32
  0
VERTEX
  8
0
  5
7B4
 10
515.988
 20
767.915
 30
0.00000
  70
    32
  0
VERTEX
  8
0
  5
7B5
 10
516.036
 20
767.921
 30
0.00000
  70
    32
  0
VERTEX
  8
0
  5
7B6
 10
516.084
 20
767.926
 30
0.00000
  70
    32
  0
VERTEX
  8
0
  5
7B7
 10
516.132
 20
767.932
 30
0.00000
  70
    32
  0
VERTEX
  8
0
  5
7B8
 10
516.180
 20
767.939
 30
0.00000
  70
    32
  0
VERTEX
  8
0
  5
7B9
 10
516.228
 20
767.946
 30
0.00000
  70
    32
  0
VERTEX
  8
0
  5
7BA
 10
516.276
 20
767.953
 30
0.00000
  70
    32
  0
VERTEX
  8
0
  5
7BB
 10
516.323
 20
767.961
 30
0.00000
  70
    32
  0
VERTEX
  8
0
  5
7BC
 10
516.371
 20
767.969
 30
0.00000
  70
    32
  0
VERTEX
  8
0
  5
7BD
 10
516.418
 20
767.978
 30
0.00000
  70
    32
  0
VERTEX
  8
0
  5
7BE
 10
516.465
 20
767.987
 30
0.00000
  70
    32
  0
VERTEX
  8
0
  5
7BF
 10
516.512
 20
767.997
 30
0.00000
  70
    32
  0
VERTEX
  8
0
  5
7C0
 10
516.559
 20
768.007
 30
0.00000
  70
    32
  0
VERTEX
  8
0
  5
7C1
 10
516.606
 20
768.017
 30
0.00000
  70
    32
  0
VERTEX
  8
0
  5
7C2
 10
516.652
 20
768.028
 30
0.00000
  70
    32
  0
VERTEX
  8
0
  5
7C3
 10
516.699
 20
768.039
 30
0.00000
  70
    32
  0
VERTEX
  8
0
  5
7C4
 10
516.745
 20
768.051
 30
0.00000
  70
    32
  0
VERTEX
  8
0
  5
7C5
 10
516.791
 20
768.063
 30
0.00000
  70
    32
  0
VERTEX
  8
0
  5
7C6
 10
516.837
 20
768.076
 30
0.00000
  70
    32
  0
VERTEX
  8
0
  5
7C7
 10
516.882
 20
768.089
 30
0.00000
  70
    32
  0
VERTEX
  8
0
  5
7C8
 10
516.928
 20
768.103
 30
0.00000
  70
    32
  0
VERTEX
  8
0
  5
7C9
 10
516.973
 20
768.116
 30
0.00000
  70
    32
  0
VERTEX
  8
0
  5
7CA
 10
517.018
 20
768.131
 30
0.00000
  70
    32
  0
VERTEX
  8
0
  5
7CB
 10
517.062
 20
768.145
 30
0.00000
  70
    32
  0
VERTEX
  8
0
  5
7CC
 10
517.107
 20
768.161
 30
0.00000
  70
    32
  0
VERTEX
  8
0
  5
7CD
 10
517.151
 20
768.176
 30
0.00000
  70
    32
  0
VERTEX
  8
0
  5
7CE
 10
517.195
 20
768.192
 30
0.00000
  70
    32
  0
VERTEX
  8
0
  5
7CF
 10
517.238
 20
768.208
 30
0.00000
  70
    32
  0
VERTEX
  8
0
  5
7D0
 10
517.282
 20
768.225
 30
0.00000
  70
    32
  0
VERTEX
  8
0
  5
7D1
 10
517.325
 20
768.242
 30
0.00000
  70
    32
  0
VERTEX
  8
0
  5
7D2
 10
517.368
 20
768.260
 30
0.00000
  70
    32
  0
VERTEX
  8
0
  5
7D3
 10
517.410
 20
768.278
 30
0.00000
  70
    32
  0
VERTEX
  8
0
  5
7D4
 10
517.452
 20
768.296
 30
0.00000
  70
    32
  0
VERTEX
  8
0
  5
7D5
 10
517.494
 20
768.315
 30
0.00000
  70
    32
  0
VERTEX
  8
0
  5
7D6
 10
517.536
 20
768.334
 30
0.00000
  70
    32
  0
VERTEX
  8
0
  5
7D7
 10
517.577
 20
768.353
 30
0.00000
  70
    32
  0
VERTEX
  8
0
  5
7D8
 10
517.618
 20
768.373
 30
0.00000
  70
    32
  0
VERTEX
  8
0
  5
7D9
 10
517.659
 20
768.394
 30
0.00000
  70
    32
  0
VERTEX
  8
0
  5
7DA
 10
517.699
 20
768.414
 30
0.00000
  70
    32
  0
VERTEX
  8
0
  5
7DB
 10
517.739
 20
768.435
 30
0.00000
  70
    32
  0
VERTEX
  8
0
  5
7DC
 10
517.779
 20
768.457
 30
0.00000
  70
    32
  0
VERTEX
  8
0
  5
7DD
 10
517.818
 20
768.478
 30
0.00000
  70
    32
  0
VERTEX
  8
0
  5
7DE
 10
517.857
 20
768.501
 30
0.00000
  70
    32
  0
VERTEX
  8
0
  5
7DF
 10
517.896
 20
768.523
 30
0.00000
  70
    32
  0
VERTEX
  8
0
  5
7E0
 10
517.934
 20
768.546
 30
0.00000
  70
    32
  0
VERTEX
  8
0
  5
7E1
 10
517.972
 20
768.569
 30
0.00000
  70
    32
  0
VERTEX
  8
0
  5
7E2
 10
518.009
 20
768.593
 30
0.00000
  70
    32
  0
VERTEX
  8
0
  5
7E3
 10
518.047
 20
768.616
 30
0.00000
  70
    32
  0
VERTEX
  8
0
  5
7E4
 10
518.083
 20
768.641
 30
0.00000
  70
    32
  0
VERTEX
  8
0
  5
7E5
 10
518.119
 20
768.665
 30
0.00000
  70
    32
  0
VERTEX
  8
0
  5
7E6
 10
518.155
 20
768.690
 30
0.00000
  70
    32
  0
VERTEX
  8
0
  5
7E7
 10
518.191
 20
768.715
 30
0.00000
  70
    32
  0
VERTEX
  8
0
  5
7E8
 10
518.226
 20
768.741
 30
0.00000
  70
    32
  0
VERTEX
  8
0
  5
7E9
 10
518.261
 20
768.767
 30
0.00000
  70
    32
  0
VERTEX
  8
0
  5
7EA
 10
518.295
 20
768.793
 30
0.00000
  70
    32
  0
VERTEX
  8
0
  5
7EB
 10
518.329
 20
768.819
 30
0.00000
  70
    32
  0
VERTEX
  8
0
  5
7EC
 10
518.362
 20
768.846
 30
0.00000
  70
    32
  0
VERTEX
  8
0
  5
7ED
 10
518.395
 20
768.873
 30
0.00000
  70
    32
  0
VERTEX
  8
0
  5
7EE
 10
518.427
 20
768.901
 30
0.00000
  70
    32
  0
VERTEX
  8
0
  5
7EF
 10
518.460
 20
768.929
 30
0.00000
  70
    32
  0
VERTEX
  8
0
  5
7F0
 10
518.491
 20
768.957
 30
0.00000
  70
    32
  0
VERTEX
  8
0
  5
7F1
 10
518.522
 20
768.985
 30
0.00000
  70
    32
  0
VERTEX
  8
0
  5
7F2
 10
518.553
 20
769.013
 30
0.00000
  70
    32
  0
VERTEX
  8
0
  5
7F3
 10
518.583
 20
769.042
 30
0.00000
  70
    32
  0
VERTEX
  8
0
  5
7F4
 10
518.613
 20
769.072
 30
0.00000
  70
    32
  0
VERTEX
  8
0
  5
7F5
 10
518.642
 20
769.101
 30
0.00000
  70
    32
  0
VERTEX
  8
0
  5
7F6
 10
518.671
 20
769.131
 30
0.00000
  70
    32
  0
VERTEX
  8
0
  5
7F7
 10
518.699
 20
769.161
 30
0.00000
  70
    32
  0
VERTEX
  8
0
  5
7F8
 10
518.727
 20
769.191
 30
0.00000
  70
    32
  0
VERTEX
  8
0
  5
7F9
 10
518.754
 20
769.221
 30
0.00000
  70
    32
  0
VERTEX
  8
0
  5
7FA
 10
518.781
 20
769.252
 30
0.00000
  70
    32
  0
VERTEX
  8
0
  5
7FB
 10
518.807
 20
769.283
 30
0.00000
  70
    32
  0
VERTEX
  8
0
  5
7FC
 10
518.833
 20
769.314
 30
0.00000
  70
    32
  0
VERTEX
  8
0
  5
7FD
 10
518.859
 20
769.346
 30
0.00000
  70
    32
  0
VERTEX
  8
0
  5
7FE
 10
518.883
 20
769.377
 30
0.00000
  70
    32
  0
VERTEX
  8
0
  5
7FF
 10
518.908
 20
769.409
 30
0.00000
  70
    32
  0
VERTEX
  8
0
  5
800
 10
518.931
 20
769.442
 30
0.00000
  70
    32
  0
VERTEX
  8
0
  5
801
 10
518.955
 20
769.474
 30
0.00000
  70
    32
  0
VERTEX
  8
0
  5
802
 10
518.977
 20
769.506
 30
0.00000
  70
    32
  0
VERTEX
  8
0
  5
803
 10
518.999
 20
769.539
 30
0.00000
  70
    32
  0
VERTEX
  8
0
  5
804
 10
519.021
 20
769.572
 30
0.00000
  70
    32
  0
VERTEX
  8
0
  5
805
 10
519.042
 20
769.605
 30
0.00000
  70
    32
  0
VERTEX
  8
0
  5
806
 10
519.063
 20
769.639
 30
0.00000
  70
    32
  0
VERTEX
  8
0
  5
807
 10
519.083
 20
769.672
 30
0.00000
  70
    32
  0
VERTEX
  8
0
  5
808
 10
519.102
 20
769.706
 30
0.00000
  70
    32
  0
VERTEX
  8
0
  5
809
 10
519.121
 20
769.740
 30
0.00000
  70
    32
  0
VERTEX
  8
0
  5
80A
 10
519.140
 20
769.774
 30
0.00000
  70
    32
  0
VERTEX
  8
0
  5
80B
 10
519.157
 20
769.808
 30
0.00000
  70
    32
  0
VERTEX
  8
0
  5
80C
 10
519.175
 20
769.843
 30
0.00000
  70
    32
  0
VERTEX
  8
0
  5
80D
 10
519.191
 20
769.877
 30
0.00000
  70
    32
  0
VERTEX
  8
0
  5
80E
 10
519.207
 20
769.912
 30
0.00000
  70
    32
  0
VERTEX
  8
0
  5
80F
 10
519.223
 20
769.947
 30
0.00000
  70
    32
  0
VERTEX
  8
0
  5
810
 10
519.238
 20
769.982
 30
0.00000
  70
    32
  0
VERTEX
  8
0
  5
811
 10
519.252
 20
770.017
 30
0.00000
  70
    32
  0
VERTEX
  8
0
  5
812
 10
519.266
 20
770.053
 30
0.00000
  70
    32
  0
VERTEX
  8
0
  5
813
 10
519.280
 20
770.088
 30
0.00000
  70
    32
  0
VERTEX
  8
0
  5
814
 10
519.292
 20
770.123
 30
0.00000
  70
    32
  0
VERTEX
  8
0
  5
815
 10
519.304
 20
770.159
 30
0.00000
  70
    32
  0
VERTEX
  8
0
  5
816
 10
519.316
 20
770.195
 30
0.00000
  70
    32
  0
VERTEX
  8
0
  5
817
 10
519.327
 20
770.231
 30
0.00000
  70
    32
  0
VERTEX
  8
0
  5
818
 10
519.337
 20
770.267
 30
0.00000
  70
    32
  0
VERTEX
  8
0
  5
819
 10
519.347
 20
770.303
 30
0.00000
  70
    32
  0
VERTEX
  8
0
  5
81A
 10
519.356
 20
770.339
 30
0.00000
  70
    32
  0
VERTEX
  8
0
  5
81B
 10
519.365
 20
770.375
 30
0.00000
  70
    32
  0
VERTEX
  8
0
  5
81C
 10
519.373
 20
770.411
 30
0.00000
  70
    32
  0
VERTEX
  8
0
  5
81D
 10
519.380
 20
770.448
 30
0.00000
  70
    32
  0
VERTEX
  8
0
  5
81E
 10
519.387
 20
770.484
 30
0.00000
  70
    32
  0
VERTEX
  8
0
  5
81F
 10
519.394
 20
770.521
 30
0.00000
  70
    32
  0
VERTEX
  8
0
  5
820
 10
519.399
 20
770.557
 30
0.00000
  70
    32
  0
VERTEX
  8
0
  5
821
 10
519.404
 20
770.594
 30
0.00000
  70
    32
  0
VERTEX
  8
0
  5
822
 10
519.409
 20
770.631
 30
0.00000
  70
    32
  0
VERTEX
  8
0
  5
823
 10
519.413
 20
770.667
 30
0.00000
  70
    32
  0
VERTEX
  8
0
  5
824
 10
519.416
 20
770.704
 30
0.00000
  70
    32
  0
VERTEX
  8
0
  5
825
 10
519.419
 20
770.741
 30
0.00000
  70
    32
  0
VERTEX
  8
0
  5
826
 10
519.421
 20
770.778
 30
0.00000
  70
    32
  0
VERTEX
  8
0
  5
827
 10
519.422
 20
770.814
 30
0.00000
  70
    32
  0
VERTEX
  8
0
  5
828
 10
519.423
 20
770.851
 30
0.00000
  70
    32
  0
VERTEX
  8
0
  5
829
 10
519.423
 20
770.888
 30
0.00000
  70
    32
  0
SEQEND
  8
0
  5
82A
  0
LINE
  5
134
  8
0
  6
CONTINUOUS
 62
     7
 10
515.4534813730997485
 20
767.8880621746001225
 30
0.0
 11
505.9201484794999146
 21
767.8880621746001225
 31
0.0
  0
LINE
  5
135
  8
0
  6
CONTINUOUS
 62
     7
 10
560.5968546837000304
 20
641.5449162080999486
 30
0.0
 11
399.5968562333999898
 21
641.5449162080999486
 31
0.0
  0
ARC
  5
136
  8
0
  6
CONTINUOUS
 62
     7
 10
561.5968529550999619
 20
634.5449145763000161
 30
0.0
 40
1.0
 50
180.0
 51
270.0
  0
LINE
  5
137
  8
0
  6
CONTINUOUS
 62
     7
 10
600.4657980769000005
 20
633.5449148968000372
 30
0.0
 11
561.5968529848997832
 21
633.5449148968000372
 31
0.0
  0
LINE
  5
138
  8
0
  6
CONTINUOUS
 62
     7
 10
596.939997073900031
 20
677.8880585982999492
 30
0.0
 11
596.939997073900031
 21
838.8880570485999897
 31
0.0
  0
LINE
  5
139
  8
0
  6
CONTINUOUS
 62
     7
 10
604.9399983851999423
 20
676.8880602970998552
 30
0.0
 11
604.9399983851999423
 21
638.019115205099979
 31
0.0
  0
ARC
  5
13A
  8
0
  6
CONTINUOUS
 62
     7
 10
603.939998705599919
 20
676.8880603269000176
 30
0.0
 40
1.0
 50
0.0
 51
90.0
  0
LINE
  5
13B
  8
0
  6
CONTINUOUS
 62
     7
 10
565.5968536405999885
 20
612.8880609824998373
 30
0.0
 11
569.5968505708998464
 21
612.8880609824998373
 31
0.0
  0
LINE
  5
13C
  8
0
  6
CONTINUOUS
 62
     7
 10
569.5968505708998464
 20
612.8880609824998373
 30
0.0
 11
569.5968505708998464
 21
618.8880582407000475
 31
0.0
  0
LINE
  5
13D
  8
0
  6
CONTINUOUS
 62
     7
 10
565.5968536405999885
 20
612.8880609824998373
 30
0.0
 11
565.5968536405999885
 21
618.8880582407000475
 31
0.0
  0
LINE
  5
13E
  8
0
  6
CONTINUOUS
 62
     7
 10
561.5968529848997832
 20
676.8880602970998552
 30
0.0
 11
561.5968529848997832
 21
633.5449148968000372
 31
0.0
  0
LINE
  5
13F
  8
0
  6
CONTINUOUS
 62
     7
 10
604.9399983851999423
 20
676.8880602970998552
 30
0.0
 11
561.5968529848997832
 21
676.8880602970998552
 31
0.0
  0
LINE
  5
140
  8
0
  6
CONTINUOUS
 62
     7
 10
587.3468530146999456
 20
656.6380639626999027
 30
0.0
 11
587.3468530146999456
 21
662.1380602075998922
 31
0.0
  0
LINE
  5
141
  8
0
  6
CONTINUOUS
 62
     7
 10
588.846856054600039
 20
656.6380639626999027
 30
0.0
 11
587.3468530146999456
 21
656.6380639626999027
 31
0.0
  0
LINE
  5
142
  8
0
  6
CONTINUOUS
 62
     7
 10
588.846856054600039
 20
662.1380602075998922
 30
0.0
 11
588.846856054600039
 21
656.6380639626999027
 31
0.0
  0
LINE
  5
143
  8
0
  6
CONTINUOUS
 62
     7
 10
587.3468530146999456
 20
662.1380602075998922
 30
0.0
 11
588.846856054600039
 21
662.1380602075998922
 31
0.0
  0
LINE
  5
144
  8
0
  6
CONTINUOUS
 62
     7
 10
576.596849855700043
 20
649.6380572273999405
 30
0.0
 11
576.596849855700043
 21
651.138060267300034
 31
0.0
  0
LINE
  5
145
  8
0
  6
CONTINUOUS
 62
     7
 10
582.0968535511999562
 20
649.6380572273999405
 30
0.0
 11
576.596849855700043
 21
649.6380572273999405
 31
0.0
  0
LINE
  5
146
  8
0
  6
CONTINUOUS
 62
     7
 10
582.0968535511999562
 20
651.138060267300034
 30
0.0
 11
582.0968535511999562
 21
649.6380572273999405
 31
0.0
  0
LINE
  5
147
  8
0
  6
CONTINUOUS
 62
     7
 10
576.596849855700043
 20
651.138060267300034
 30
0.0
 11
582.0968535511999562
 21
651.138060267300034
 31
0.0
  0
LINE
  5
148
  8
0
  6
CONTINUOUS
 62
     7
 10
576.596849855700043
 20
667.6380639030999191
 30
0.0
 11
576.596849855700043
 21
669.1380594923997478
 31
0.0
  0
LINE
  5
149
  8
0
  6
CONTINUOUS
 62
     7
 10
582.0968535511999562
 20
667.6380639030999191
 30
0.0
 11
576.596849855700043
 21
667.6380639030999191
 31
0.0
  0
LINE
  5
14A
  8
0
  6
CONTINUOUS
 62
     7
 10
582.0968535511999562
 20
669.1380594923997478
 30
0.0
 11
582.0968535511999562
 21
667.6380639030999191
 31
0.0
  0
LINE
  5
14B
  8
0
  6
CONTINUOUS
 62
     7
 10
576.596849855700043
 20
669.1380594923997478
 30
0.0
 11
582.0968535511999562
 21
669.1380594923997478
 31
0.0
  0
CIRCLE
  5
14C
  8
0
  6
CONTINUOUS
 62
     7
 10
544.5968529550999619
 20
757.8880603268999039
 30
0.0
 40
4.5
  0
CIRCLE
  5
14D
  8
0
  6
CONTINUOUS
 62
     7
 10
544.5968529550999619
 20
757.8880603268999039
 30
0.0
 40
1.649999999999975
  0
CIRCLE
  5
14E
  8
0
  6
CONTINUOUS
 62
     7
 10
414.5968529551000188
 20
647.8880603269000176
 30
0.0
 40
4.4999999999999432
  0
CIRCLE
  5
14F
  8
0
  6
CONTINUOUS
 62
     7
 10
414.5968529551000188
 20
647.8880603269000176
 30
0.0
 40
1.649999999999975
  0
CIRCLE
  5
150
  8
0
  6
CONTINUOUS
 62
     7
 10
479.5968529551000188
 20
647.8880603269000176
 30
0.0
 40
4.500000000000056
  0
CIRCLE
  5
151
  8
0
  6
CONTINUOUS
 62
     7
 10
479.5968529551000188
 20
647.8880603269000176
 30
0.0
 40
1.649999999999975
  0
CIRCLE
  5
152
  8
0
  6
CONTINUOUS
 62
     7
 10
479.5968529551000188
 20
757.8880603268999039
 30
0.0
 40
4.500000000000056
  0
CIRCLE
  5
153
  8
0
  6
CONTINUOUS
 62
     7
 10
479.5968529551000188
 20
757.8880603268999039
 30
0.0
 40
1.649999999999975
  0
CIRCLE
  5
154
  8
0
  6
CONTINUOUS
 62
     7
 10
414.5968529551000188
 20
757.8880603268999039
 30
0.0
 40
4.4999999999999432
  0
CIRCLE
  5
155
  8
0
  6
CONTINUOUS
 62
     7
 10
414.5968529551000188
 20
757.8880603268999039
 30
0.0
 40
1.649999999999975
  0
CIRCLE
  5
156
  8
0
  6
CONTINUOUS
 62
     7
 10
544.5968529550999619
 20
647.8880603269000176
 30
0.0
 40
4.5
  0
CIRCLE
  5
157
  8
0
  6
CONTINUOUS
 62
     7
 10
544.5968529550999619
 20
647.8880603269000176
 30
0.0
 40
1.649999999999975
  0
CIRCLE
  5
158
  8
0
  6
CONTINUOUS
 62
     7
 10
544.5968529550999619
 20
827.8880603269000176
 30
0.0
 40
4.5
  0
CIRCLE
  5
159
  8
0
  6
CONTINUOUS
 62
     7
 10
544.5968529550999619
 20
827.8880603269000176
 30
0.0
 40
1.649999999999975
  0
LINE
  5
15A
  8
0
  6
CONTINUOUS
 62
     7
 10
560.5968546837000304
 20
634.5449169232997519
 30
0.0
 11
560.5968546837000304
 21
676.8880602970998552
 31
0.0
  0
LINE
  5
15B
  8
0
  6
CONTINUOUS
 62
     7
 10
560.5968546837000304
 20
676.8880602970998552
 30
0.0
 11
561.5968529848997832
 21
676.8880602970998552
 31
0.0
  0
LINE
  5
15C
  8
0
  6
CONTINUOUS
 62
     7
 10
561.5968529848997832
 20
676.8880602970998552
 30
0.0
 11
561.5968529848997832
 21
677.8880585982999492
 31
0.0
  0
LINE
  5
15D
  8
0
  6
CONTINUOUS
 62
     7
 10
561.5968529848997832
 20
677.8880585982999492
 30
0.0
 11
603.9399963585998421
 21
677.8880585982999492
 31
0.0
  0
ARC
  5
15E
  8
0
  6
CONTINUOUS
 62
     7
 10
561.5968529550999619
 20
676.8880603269000176
 30
0.0
 40
1.0
 50
90.0
 51
180.0
  0
INSERT
  5
1AD
  8
FORMAT
  2
SW_CENTERMARKSYMBOL_0
 10
609.5968529551000756
 20
835.8880603269000176
 30
0.0
  0
INSERT
  5
1B9
  8
FORMAT
  2
SW_CENTERMARKSYMBOL_1
 10
399.5968529551000188
 20
838.8880603268999039
 30
0.0
  0
INSERT
  5
1C5
  8
FORMAT
  2
SW_CENTERMARKSYMBOL_2
 10
499.5968529550999051
 20
838.8880603268999039
 30
0.0
  0
INSERT
  5
1D1
  8
FORMAT
  2
SW_CENTERMARKSYMBOL_3
 10
609.5968529551000756
 20
723.8880603269000176
 30
0.0
  0
INSERT
  5
1DD
  8
FORMAT
  2
SW_CENTERMARKSYMBOL_4
 10
609.5968529551000756
 20
628.8880603268999039
 30
0.0
  0
INSERT
  5
1E9
  8
FORMAT
  2
SW_CENTERMARKSYMBOL_5
 10
504.5968529551000188
 20
628.8880603268999039
 30
0.0
  0
INSERT
  5
1F5
  8
FORMAT
  2
SW_CENTERMARKSYMBOL_6
 10
403.5968529550997914
 20
628.8880603268999039
 30
0.0
  0
INSERT
  5
201
  8
FORMAT
  2
SW_CENTERMARKSYMBOL_7
 10
399.5968529551000188
 20
738.8880603269000176
 30
0.0
  0
INSERT
  5
20D
  8
FORMAT
  2
SW_CENTERMARKSYMBOL_8
 10
414.5968529551000188
 20
647.8880603269000176
 30
0.0
  0
INSERT
  5
219
  8
FORMAT
  2
SW_CENTERMARKSYMBOL_9
 10
414.5968529551000188
 20
757.8880603268999039
 30
0.0
  0
INSERT
  5
225
  8
FORMAT
  2
SW_CENTERMARKSYMBOL_10
 10
479.5968529551000188
 20
757.8880603268999039
 30
0.0
  0
INSERT
  5
231
  8
FORMAT
  2
SW_CENTERMARKSYMBOL_11
 10
479.5968529551000188
 20
647.8880603269000176
 30
0.0
  0
INSERT
  5
23D
  8
FORMAT
  2
SW_CENTERMARKSYMBOL_12
 10
544.5968529550999619
 20
757.8880603268999039
 30
0.0
  0
INSERT
  5
249
  8
FORMAT
  2
SW_CENTERMARKSYMBOL_13
 10
544.5968529550999619
 20
647.8880603269000176
 30
0.0
  0
INSERT
  5
255
  8
FORMAT
  2
SW_CENTERMARKSYMBOL_14
 10
544.5968529550999619
 20
827.8880603269000176
 30
0.0
  0
INSERT
  5
261
  8
FORMAT
  2
SW_CENTERMARKSYMBOL_15
 10
579.3468529551000756
 20
659.3880603269000176
 30
0.0
  0
ARC
  5
262
  8
0
  6
CONTINUOUS
 62
     7
 10
544.5968529550999619
 20
827.8880603269000176
 30
0.0
 40
2.0000000000000608
 50
255.0
 51
195.0
  0
ARC
  5
263
  8
0
  6
CONTINUOUS
 62
     7
 10
414.5968529551000188
 20
757.8880603268999039
 30
0.0
 40
2.0000000000000608
 50
255.0
 51
195.0
  0
ARC
  5
264
  8
0
  6
CONTINUOUS
 62
     7
 10
479.5968529551000188
 20
757.8880603268999039
 30
0.0
 40
2.000000000000044
 50
255.0
 51
195.0
  0
ARC
  5
265
  8
0
  6
CONTINUOUS
 62
     7
 10
544.5968529550999619
 20
757.8880603268999039
 30
0.0
 40
2.0000000000000608
 50
255.0
 51
195.0
  0
ARC
  5
266
  8
0
  6
CONTINUOUS
 62
     7
 10
544.5968529550999619
 20
647.8880603269000176
 30
0.0
 40
2.0000000000000608
 50
255.0
 51
195.0
  0
ARC
  5
267
  8
0
  6
CONTINUOUS
 62
     7
 10
479.5968529551000188
 20
647.8880603269000176
 30
0.0
 40
2.000000000000044
 50
255.0
 51
195.0
  0
ARC
  5
268
  8
0
  6
CONTINUOUS
 62
     7
 10
414.5968529551000188
 20
647.8880603269000176
 30
0.0
 40
2.0000000000000608
 50
255.0
 51
195.0
  0
ARC
  5
269
  8
0
  6
CONTINUOUS
 62
     7
 10
579.3468529551000756
 20
659.3880603269000176
 30
0.0
 40
1.499999999999919
 50
255.0
 51
195.0
  0
CIRCLE
  5
552
  8
0
  6
CONTINUOUS
 62
     7
 10
579.5968529550999619
 20
682.8880603268999039
 30
0.0
 40
4.5
  0
CIRCLE
  5
553
  8
0
  6
CONTINUOUS
 62
     7
 10
579.5968529550999619
 20
682.8880603268999039
 30
0.0
 40
1.649999999999975
  0
INSERT
  5
554
  8
FORMAT
  2
SW_CENTERMARKSYMBOL_13
 10
579.5968529550999619
 20
682.8880603268999039
 30
0.0
  0
ARC
  5
555
  8
0
  6
CONTINUOUS
 62
     7
 10
579.5968529550999619
 20
682.8880603268999039
 30
0.0
 40
2.0000000000000608
 50
255.0000000000001137
 51
195.0
  0
ENDSEC
  0
EOF
