%FSLAX25Y25*%
%MOIN*%
G70*
G01*
G75*
G04 Layer_Color=8388736*
%ADD10R,0.03937X0.02362*%
%ADD11R,0.03347X0.02756*%
%ADD12R,0.02362X0.03937*%
%ADD13R,0.07874X0.07874*%
%ADD14R,0.02756X0.03347*%
%ADD15O,0.02500X0.05500*%
%ADD16R,0.02500X0.05500*%
%ADD17O,0.03543X0.01969*%
%ADD18R,0.03543X0.01969*%
%ADD19O,0.03543X0.01969*%
%ADD20R,0.04724X0.01969*%
%ADD21O,0.00984X0.04724*%
%ADD22O,0.04724X0.00984*%
%ADD23O,0.04724X0.01772*%
%ADD24O,0.01772X0.04724*%
%ADD25R,0.04724X0.01772*%
%ADD26C,0.06000*%
%ADD27C,0.01000*%
%ADD28C,0.00800*%
%ADD29C,0.05000*%
%ADD30C,0.03000*%
%ADD31C,0.01500*%
%ADD32C,0.02000*%
%ADD33C,0.01200*%
%ADD34C,0.05906*%
%ADD35R,0.05906X0.05906*%
%ADD36P,0.08352X4X200.0*%
%ADD37C,0.06000*%
G04:AMPARAMS|DCode=38|XSize=78.74mil|YSize=118.11mil|CornerRadius=0mil|HoleSize=0mil|Usage=FLASHONLY|Rotation=45.000|XOffset=0mil|YOffset=0mil|HoleType=Round|Shape=Rectangle|*
%AMROTATEDRECTD38*
4,1,4,0.01392,-0.06960,-0.06960,0.01392,-0.01392,0.06960,0.06960,-0.01392,0.01392,-0.06960,0.0*
%
%ADD38ROTATEDRECTD38*%

G04:AMPARAMS|DCode=39|XSize=78.74mil|YSize=118.11mil|CornerRadius=0mil|HoleSize=0mil|Usage=FLASHONLY|Rotation=45.000|XOffset=0mil|YOffset=0mil|HoleType=Round|Shape=Round|*
%AMOVALD39*
21,1,0.03937,0.07874,0.00000,0.00000,135.0*
1,1,0.07874,0.01392,-0.01392*
1,1,0.07874,-0.01392,0.01392*
%
%ADD39OVALD39*%

%ADD40R,0.05906X0.05906*%
%ADD41P,0.08352X4X180.0*%
%ADD42C,0.05000*%
%ADD43C,0.02000*%
%ADD44C,0.04000*%
%ADD45C,0.03000*%
%ADD46C,0.02362*%
%ADD47C,0.00984*%
%ADD48C,0.00787*%
%ADD49C,0.00500*%
%ADD50R,0.04737X0.03162*%
%ADD51R,0.04147X0.03556*%
%ADD52R,0.03162X0.04737*%
%ADD53R,0.08674X0.08674*%
%ADD54R,0.03556X0.04147*%
%ADD55O,0.03300X0.06300*%
%ADD56R,0.03300X0.06300*%
%ADD57O,0.04343X0.02769*%
%ADD58R,0.04343X0.02769*%
%ADD59O,0.04343X0.02769*%
%ADD60R,0.05524X0.02769*%
%ADD61O,0.01784X0.05524*%
%ADD62O,0.05524X0.01784*%
%ADD63O,0.05524X0.02572*%
%ADD64O,0.02572X0.05524*%
%ADD65R,0.05524X0.02572*%
%ADD66C,0.06706*%
%ADD67R,0.06706X0.06706*%
%ADD68P,0.09483X4X200.0*%
%ADD69C,0.06800*%
G04:AMPARAMS|DCode=70|XSize=86.74mil|YSize=126.11mil|CornerRadius=0mil|HoleSize=0mil|Usage=FLASHONLY|Rotation=45.000|XOffset=0mil|YOffset=0mil|HoleType=Round|Shape=Rectangle|*
%AMROTATEDRECTD70*
4,1,4,0.01392,-0.07525,-0.07525,0.01392,-0.01392,0.07525,0.07525,-0.01392,0.01392,-0.07525,0.0*
%
%ADD70ROTATEDRECTD70*%

G04:AMPARAMS|DCode=71|XSize=86.74mil|YSize=126.11mil|CornerRadius=0mil|HoleSize=0mil|Usage=FLASHONLY|Rotation=45.000|XOffset=0mil|YOffset=0mil|HoleType=Round|Shape=Round|*
%AMOVALD71*
21,1,0.03937,0.08674,0.00000,0.00000,135.0*
1,1,0.08674,0.01392,-0.01392*
1,1,0.08674,-0.01392,0.01392*
%
%ADD71OVALD71*%

%ADD72R,0.06706X0.06706*%
%ADD73P,0.09483X4X180.0*%
D27*
X118110Y0D02*
G03*
X118110Y0I-118110J0D01*
G01*
X-67500Y59055D02*
G03*
X-67500Y59055I-7874J0D01*
G01*
X83000Y-59055D02*
G03*
X83000Y-59055I-7874J0D01*
G01*
D50*
X-65332Y1635D02*
D03*
X-75174Y5572D02*
D03*
X-65332Y9509D02*
D03*
X-42731Y1735D02*
D03*
X-52574Y5672D02*
D03*
X-42731Y9609D02*
D03*
X42100Y-53400D02*
D03*
X32258Y-49463D02*
D03*
X42100Y-45526D02*
D03*
X-52300Y-42700D02*
D03*
X-62142Y-38763D02*
D03*
X-52300Y-34826D02*
D03*
D51*
X46600Y-12000D02*
D03*
Y-17906D02*
D03*
X-35531Y7635D02*
D03*
Y1729D02*
D03*
X-5035Y51900D02*
D03*
Y45994D02*
D03*
X-10935Y46000D02*
D03*
Y51906D02*
D03*
X-91600Y-33700D02*
D03*
Y-39606D02*
D03*
X-29300Y-8705D02*
D03*
Y-2800D02*
D03*
X3853Y51906D02*
D03*
Y46000D02*
D03*
X-36565Y51937D02*
D03*
Y46031D02*
D03*
X-30100Y46000D02*
D03*
Y51906D02*
D03*
X20500Y42494D02*
D03*
Y48400D02*
D03*
X27300Y48406D02*
D03*
Y42500D02*
D03*
X53400Y42494D02*
D03*
Y48400D02*
D03*
X60300Y48505D02*
D03*
Y42600D02*
D03*
X79700Y-17900D02*
D03*
Y-11994D02*
D03*
X-15200Y-17906D02*
D03*
Y-12000D02*
D03*
X-58732Y7635D02*
D03*
Y1729D02*
D03*
D52*
X52600Y-17868D02*
D03*
X56537Y-8026D02*
D03*
X60474Y-17868D02*
D03*
X66000Y-18000D02*
D03*
X69937Y-8157D02*
D03*
X73874Y-18000D02*
D03*
X-32100Y-71900D02*
D03*
X-36037Y-81743D02*
D03*
X-39974Y-71900D02*
D03*
X18700Y-60200D02*
D03*
X22637Y-50358D02*
D03*
X26574Y-60200D02*
D03*
X51500Y74300D02*
D03*
X55437Y84143D02*
D03*
X59374Y74300D02*
D03*
D53*
X57600Y22748D02*
D03*
Y7000D02*
D03*
X40800Y7095D02*
D03*
Y22842D02*
D03*
D54*
X5006Y-69000D02*
D03*
X-900D02*
D03*
X-800Y-76100D02*
D03*
X5105D02*
D03*
X42100Y-39700D02*
D03*
X36195D02*
D03*
X-78594Y-17800D02*
D03*
X-84500D02*
D03*
X-60300Y-21700D02*
D03*
X-54395D02*
D03*
X-60300Y-28300D02*
D03*
X-54395D02*
D03*
X57400Y68100D02*
D03*
X51494D02*
D03*
X18700Y-66100D02*
D03*
X24606D02*
D03*
X-14500Y-66900D02*
D03*
X-20405D02*
D03*
X-34100Y-66100D02*
D03*
X-40005D02*
D03*
X-52400Y-49200D02*
D03*
X-58306D02*
D03*
D55*
X-74400Y-25262D02*
D03*
X-84400D02*
D03*
X-69400D02*
D03*
X-74400Y-47900D02*
D03*
X-69400D02*
D03*
X-79400Y-25262D02*
D03*
Y-47900D02*
D03*
D56*
X-84400D02*
D03*
D57*
X34789Y49980D02*
D03*
X46600Y46240D02*
D03*
Y49980D02*
D03*
D58*
Y42500D02*
D03*
D59*
X34789D02*
D03*
D60*
X7218Y-56700D02*
D03*
X7218Y-52763D02*
D03*
Y-60637D02*
D03*
X-3018D02*
D03*
Y-56700D02*
D03*
Y-52763D02*
D03*
D61*
X-8905Y-2575D02*
D03*
X-1031D02*
D03*
X-6936D02*
D03*
X-2999D02*
D03*
X-4968D02*
D03*
X2906D02*
D03*
X-2999Y32858D02*
D03*
X4875D02*
D03*
X-10873Y-2575D02*
D03*
X938D02*
D03*
X2906Y32858D02*
D03*
X938D02*
D03*
X-1031D02*
D03*
X-4968D02*
D03*
X-6936D02*
D03*
X-8905D02*
D03*
X-10873D02*
D03*
X-12842D02*
D03*
Y-2575D02*
D03*
X4875D02*
D03*
D62*
X-21700Y8252D02*
D03*
Y18094D02*
D03*
Y12189D02*
D03*
Y6283D02*
D03*
Y16126D02*
D03*
Y22031D02*
D03*
X13733Y14157D02*
D03*
Y10221D02*
D03*
Y8252D02*
D03*
X-21700Y24000D02*
D03*
X13733D02*
D03*
X-21700Y14157D02*
D03*
Y20063D02*
D03*
X13733Y6283D02*
D03*
Y16126D02*
D03*
Y20063D02*
D03*
Y18094D02*
D03*
Y12189D02*
D03*
X13733Y22031D02*
D03*
X-21700Y10221D02*
D03*
D63*
Y3921D02*
D03*
X13733D02*
D03*
Y26362D02*
D03*
D64*
X-15204Y-2575D02*
D03*
X7237Y32858D02*
D03*
X-15204D02*
D03*
X7237Y-2575D02*
D03*
D65*
X-21700Y26362D02*
D03*
D66*
X33500Y92200D02*
D03*
X23500D02*
D03*
X13500D02*
D03*
X3500D02*
D03*
X-6500D02*
D03*
X-16500D02*
D03*
X-26500D02*
D03*
X-44500Y-47200D02*
D03*
Y-57200D02*
D03*
X-14500Y-47200D02*
D03*
X-43663Y-99174D02*
D03*
X39500Y-32262D02*
D03*
X29500D02*
D03*
X19500D02*
D03*
X9500D02*
D03*
X-500D02*
D03*
X-10500D02*
D03*
X-20500D02*
D03*
X-30500D02*
D03*
X-40500D02*
D03*
Y70100D02*
D03*
X-30500D02*
D03*
X-20500D02*
D03*
X-10500D02*
D03*
X-500D02*
D03*
X9500D02*
D03*
X19500D02*
D03*
X29500D02*
D03*
X39500D02*
D03*
X84500Y31800D02*
D03*
Y41800D02*
D03*
Y51800D02*
D03*
X-67871Y-82029D02*
D03*
X-74942Y-74958D02*
D03*
X-82013Y-67887D02*
D03*
D67*
X-36500Y92200D02*
D03*
X-14500Y-57200D02*
D03*
D68*
X-34600Y-103400D02*
D03*
D69*
X0Y-97600D02*
D03*
X-15000Y-88500D02*
D03*
Y-108500D02*
D03*
X15000Y-88500D02*
D03*
Y-108500D02*
D03*
D70*
X86900Y-34900D02*
D03*
X46900Y-85200D02*
D03*
D71*
X94249Y-28107D02*
D03*
X54250Y-78407D02*
D03*
D72*
X84500Y21800D02*
D03*
D73*
X-60800Y-89100D02*
D03*
M02*
