%FSLAX25Y25*%
%MOIN*%
G70*
G01*
G75*
G04 Layer_Physical_Order=1*
G04 Layer_Color=255*
%ADD10R,0.03937X0.02362*%
%ADD11R,0.03347X0.02756*%
%ADD12R,0.02362X0.03937*%
%ADD13R,0.07874X0.07874*%
%ADD14R,0.02756X0.03347*%
%ADD15O,0.02500X0.05500*%
%ADD16R,0.02500X0.05500*%
%ADD17O,0.03543X0.01969*%
%ADD18R,0.03543X0.01969*%
%ADD19O,0.03543X0.01969*%
%ADD20R,0.04724X0.01969*%
%ADD21O,0.00984X0.04724*%
%ADD22O,0.04724X0.00984*%
%ADD23O,0.04724X0.01772*%
%ADD24O,0.01772X0.04724*%
%ADD25R,0.04724X0.01772*%
%ADD26C,0.06000*%
%ADD27C,0.01000*%
%ADD28C,0.00800*%
%ADD29C,0.05000*%
%ADD30C,0.03000*%
%ADD31C,0.01500*%
%ADD32C,0.02000*%
%ADD33C,0.01200*%
%ADD34C,0.05906*%
%ADD35R,0.05906X0.05906*%
%ADD36P,0.08352X4X200.0*%
%ADD37C,0.06000*%
G04:AMPARAMS|DCode=38|XSize=78.74mil|YSize=118.11mil|CornerRadius=0mil|HoleSize=0mil|Usage=FLASHONLY|Rotation=45.000|XOffset=0mil|YOffset=0mil|HoleType=Round|Shape=Rectangle|*
%AMROTATEDRECTD38*
4,1,4,0.01392,-0.06960,-0.06960,0.01392,-0.01392,0.06960,0.06960,-0.01392,0.01392,-0.06960,0.0*
%
%ADD38ROTATEDRECTD38*%

G04:AMPARAMS|DCode=39|XSize=78.74mil|YSize=118.11mil|CornerRadius=0mil|HoleSize=0mil|Usage=FLASHONLY|Rotation=45.000|XOffset=0mil|YOffset=0mil|HoleType=Round|Shape=Round|*
%AMOVALD39*
21,1,0.03937,0.07874,0.00000,0.00000,135.0*
1,1,0.07874,0.01392,-0.01392*
1,1,0.07874,-0.01392,0.01392*
%
%ADD39OVALD39*%

%ADD40R,0.05906X0.05906*%
%ADD41P,0.08352X4X180.0*%
%ADD42C,0.05000*%
%ADD43C,0.02000*%
%ADD44C,0.04000*%
%ADD45C,0.03000*%
G36*
X6510Y115923D02*
X13000Y115376D01*
X19448Y114465D01*
X25836Y113195D01*
X32142Y111568D01*
X38347Y109590D01*
X44432Y107268D01*
X50376Y104608D01*
X56163Y101619D01*
X61772Y98310D01*
X67187Y94691D01*
X72391Y90775D01*
X77367Y86573D01*
X82099Y82099D01*
X86573Y77367D01*
X90775Y72391D01*
X94691Y67187D01*
X98310Y61772D01*
X101619Y56163D01*
X104608Y50376D01*
X107268Y44432D01*
X109590Y38347D01*
X111568Y32142D01*
X113195Y25836D01*
X114465Y19448D01*
X115376Y13000D01*
X115923Y6510D01*
X116106Y0D01*
X115923Y-6510D01*
X115376Y-13000D01*
X114465Y-19448D01*
X113195Y-25836D01*
X111568Y-32142D01*
X109590Y-38347D01*
X107268Y-44432D01*
X104608Y-50376D01*
X101619Y-56163D01*
X98310Y-61772D01*
X94691Y-67187D01*
X90775Y-72391D01*
X86573Y-77367D01*
X82099Y-82099D01*
X77367Y-86573D01*
X72391Y-90775D01*
X67187Y-94691D01*
X61772Y-98310D01*
X56163Y-101619D01*
X50376Y-104608D01*
X44432Y-107268D01*
X38347Y-109590D01*
X32142Y-111568D01*
X25836Y-113195D01*
X19448Y-114465D01*
X15662Y-115000D01*
X-15662D01*
X-19448Y-114465D01*
X-25836Y-113195D01*
X-32142Y-111568D01*
X-38347Y-109590D01*
X-44432Y-107268D01*
X-50376Y-104608D01*
X-56163Y-101619D01*
X-61772Y-98310D01*
X-67187Y-94691D01*
X-72391Y-90775D01*
X-77367Y-86573D01*
X-82099Y-82099D01*
X-86573Y-77367D01*
X-90775Y-72391D01*
X-94691Y-67187D01*
X-98310Y-61772D01*
X-101619Y-56163D01*
X-104608Y-50376D01*
X-107268Y-44432D01*
X-109590Y-38347D01*
X-111568Y-32142D01*
X-113195Y-25836D01*
X-114465Y-19448D01*
X-115376Y-13000D01*
X-115923Y-6510D01*
X-116106Y0D01*
X-115923Y6510D01*
X-115376Y13000D01*
X-114465Y19448D01*
X-113195Y25836D01*
X-111568Y32142D01*
X-109590Y38347D01*
X-107268Y44432D01*
X-104608Y50376D01*
X-101619Y56163D01*
X-98310Y61772D01*
X-94691Y67187D01*
X-90775Y72391D01*
X-86573Y77367D01*
X-82099Y82099D01*
X-77367Y86573D01*
X-72391Y90775D01*
X-67187Y94691D01*
X-61772Y98310D01*
X-56163Y101619D01*
X-50376Y104608D01*
X-44432Y107268D01*
X-38347Y109590D01*
X-32142Y111568D01*
X-25836Y113195D01*
X-19448Y114465D01*
X-13000Y115376D01*
X-6510Y115923D01*
X0Y116106D01*
X6510Y115923D01*
D02*
G37*
%LPC*%
G36*
X-44500Y-52709D02*
X-45662Y-52862D01*
X-46746Y-53311D01*
X-47676Y-54024D01*
X-48390Y-54954D01*
X-48838Y-56038D01*
X-48991Y-57200D01*
X-48838Y-58362D01*
X-48390Y-59446D01*
X-47676Y-60376D01*
X-46746Y-61089D01*
X-45662Y-61538D01*
X-44500Y-61691D01*
X-43338Y-61538D01*
X-42254Y-61089D01*
X-41324Y-60376D01*
X-40843Y-59749D01*
X-36756D01*
X-36649Y-59856D01*
Y-62927D01*
X-36774Y-62927D01*
X-36774D01*
D01*
X-36978D01*
X-36978D01*
X-37053D01*
X-37128D01*
X-37332Y-62927D01*
X-37332Y-62927D01*
Y-62927D01*
X-42884D01*
Y-63551D01*
X-43800D01*
X-44776Y-63745D01*
X-45602Y-64298D01*
X-46155Y-65124D01*
X-46349Y-66100D01*
X-46155Y-67076D01*
X-45602Y-67902D01*
X-44776Y-68455D01*
X-43800Y-68649D01*
X-42884D01*
Y-69273D01*
X-42655D01*
Y-75368D01*
X-37293D01*
Y-69273D01*
X-37128Y-69273D01*
Y-69273D01*
X-36978D01*
X-36774Y-69273D01*
X-36774Y-69273D01*
Y-69273D01*
X-34781D01*
Y-75368D01*
X-29419D01*
Y-68432D01*
X-29551D01*
Y-68100D01*
X-29745Y-67124D01*
X-30298Y-66298D01*
X-31222Y-65373D01*
Y-62927D01*
X-31551D01*
Y-58800D01*
X-31745Y-57824D01*
X-32298Y-56998D01*
X-33898Y-55398D01*
X-34725Y-54845D01*
X-35700Y-54651D01*
X-40843D01*
X-41324Y-54024D01*
X-42254Y-53311D01*
X-43338Y-52862D01*
X-44500Y-52709D01*
D02*
G37*
G36*
X7884Y-65827D02*
X5505D01*
Y-68500D01*
X7884D01*
Y-65827D01*
D02*
G37*
G36*
X57800Y-22174D02*
X57017Y-22277D01*
X56287Y-22580D01*
X55660Y-23060D01*
X55180Y-23687D01*
X54877Y-24417D01*
X54774Y-25200D01*
X54877Y-25983D01*
X55180Y-26713D01*
X55251Y-26806D01*
Y-57100D01*
X55251Y-57100D01*
X55251D01*
X55445Y-58075D01*
X55998Y-58902D01*
X57069Y-59973D01*
X57084Y-60090D01*
X57386Y-60820D01*
X57867Y-61446D01*
X58494Y-61927D01*
X59224Y-62229D01*
X60007Y-62333D01*
X60790Y-62229D01*
X61520Y-61927D01*
X62146Y-61446D01*
X62627Y-60820D01*
X62929Y-60090D01*
X63033Y-59307D01*
X62929Y-58523D01*
X62627Y-57794D01*
X62146Y-57167D01*
X61520Y-56686D01*
X60790Y-56384D01*
X60673Y-56368D01*
X60349Y-56044D01*
Y-26806D01*
X60421Y-26713D01*
X60723Y-25983D01*
X60826Y-25200D01*
X60723Y-24417D01*
X60421Y-23687D01*
X59940Y-23060D01*
X59313Y-22580D01*
X58583Y-22277D01*
X57800Y-22174D01*
D02*
G37*
G36*
X6718Y-50279D02*
X3356D01*
Y-52263D01*
X6718D01*
Y-50279D01*
D02*
G37*
G36*
X-58806Y-49700D02*
X-61184D01*
Y-52373D01*
X-58806D01*
Y-49700D01*
D02*
G37*
G36*
X-88427Y-34200D02*
X-94773D01*
Y-36374D01*
X-94773Y-36374D01*
X-94773D01*
X-94773Y-36578D01*
Y-36728D01*
D01*
D01*
D01*
X-94773D01*
D01*
Y-42483D01*
X-94149D01*
Y-44054D01*
X-93955Y-45029D01*
X-93402Y-45856D01*
X-89556Y-49702D01*
X-89556D01*
X-89556Y-49702D01*
X-89556Y-49702D01*
Y-49702D01*
X-88729Y-50255D01*
X-87754Y-50449D01*
X-87150D01*
Y-52150D01*
X-81650D01*
X-81650Y-52150D01*
Y-52150D01*
X-81418Y-52080D01*
X-81202Y-52402D01*
X-77902Y-55702D01*
X-77075Y-56255D01*
X-76100Y-56449D01*
X-70956D01*
X-57802Y-69602D01*
X-57802D01*
X-57802Y-69602D01*
X-57802Y-69602D01*
Y-69602D01*
X-56976Y-70155D01*
X-56000Y-70349D01*
X-55024Y-70155D01*
X-54198Y-69602D01*
X-53645Y-68775D01*
X-53451Y-67800D01*
X-53645Y-66825D01*
X-54198Y-65998D01*
X-68098Y-52098D01*
X-68071Y-51826D01*
X-68013Y-51802D01*
X-67439Y-51361D01*
X-66998Y-50787D01*
X-66721Y-50118D01*
X-66626Y-49400D01*
Y-48400D01*
X-69401D01*
Y-47901D01*
X-69900D01*
Y-43692D01*
X-70118Y-43721D01*
X-70195Y-43753D01*
X-70582Y-43436D01*
X-70456Y-42805D01*
X-70651Y-41830D01*
X-71203Y-41003D01*
X-72030Y-40451D01*
X-73005Y-40257D01*
X-73981Y-40451D01*
X-74808Y-41003D01*
X-76202Y-42398D01*
X-76432Y-42741D01*
X-76922Y-42643D01*
X-77045Y-42024D01*
X-77598Y-41198D01*
X-78425Y-40645D01*
X-79400Y-40451D01*
X-80375Y-40645D01*
X-81202Y-41198D01*
X-81755Y-42024D01*
X-81949Y-43000D01*
Y-43650D01*
X-87150D01*
Y-44246D01*
X-87612Y-44437D01*
X-89051Y-42998D01*
Y-42483D01*
X-88427D01*
Y-42154D01*
X-87312D01*
X-87218Y-42226D01*
X-86489Y-42528D01*
X-85706Y-42631D01*
X-84922Y-42528D01*
X-84193Y-42226D01*
X-83566Y-41745D01*
X-83085Y-41118D01*
X-82783Y-40389D01*
X-82680Y-39606D01*
X-82783Y-38822D01*
X-83085Y-38093D01*
X-83566Y-37466D01*
X-84193Y-36985D01*
X-84922Y-36683D01*
X-85706Y-36580D01*
X-86489Y-36683D01*
X-87218Y-36985D01*
X-87312Y-37056D01*
X-88427D01*
Y-36931D01*
Y-36931D01*
D01*
D01*
X-88427Y-36728D01*
Y-36712D01*
Y-36653D01*
X-88427Y-36578D01*
X-88427Y-36374D01*
X-88427Y-36374D01*
X-88427D01*
Y-34200D01*
D02*
G37*
G36*
X7884Y-69500D02*
X5505D01*
Y-72173D01*
X7884D01*
Y-69500D01*
D02*
G37*
G36*
X11080Y-53263D02*
X3356D01*
Y-55247D01*
X3356D01*
Y-58153D01*
X3356D01*
Y-63121D01*
X9661D01*
Y-63800D01*
Y-65452D01*
X9345Y-65925D01*
X9151Y-66900D01*
X9345Y-67875D01*
X9898Y-68702D01*
X10725Y-69255D01*
X11700Y-69449D01*
X12675Y-69255D01*
X13502Y-68702D01*
X14055Y-67875D01*
X14249Y-66900D01*
X14055Y-65925D01*
X13739Y-65452D01*
Y-63800D01*
Y-61500D01*
X13739Y-61500D01*
X13584Y-60720D01*
X13142Y-60058D01*
X12279Y-59195D01*
X11617Y-58753D01*
X11080Y-58646D01*
Y-54216D01*
X11080D01*
Y-53263D01*
D02*
G37*
G36*
X75126Y-49133D02*
X73190Y-49324D01*
X71329Y-49889D01*
X69614Y-50805D01*
X68110Y-52039D01*
X66876Y-53543D01*
X65959Y-55258D01*
X65395Y-57120D01*
X65204Y-59055D01*
X65395Y-60991D01*
X65959Y-62852D01*
X66876Y-64567D01*
X68110Y-66071D01*
X69614Y-67305D01*
X71329Y-68222D01*
X73190Y-68786D01*
X75126Y-68977D01*
X77062Y-68786D01*
X78923Y-68222D01*
X80638Y-67305D01*
X82142Y-66071D01*
X83376Y-64567D01*
X84293Y-62852D01*
X84857Y-60991D01*
X85048Y-59055D01*
X84857Y-57120D01*
X84293Y-55258D01*
X83376Y-53543D01*
X82142Y-52039D01*
X80638Y-50805D01*
X78923Y-49889D01*
X77062Y-49324D01*
X75126Y-49133D01*
D02*
G37*
G36*
X27483Y-66600D02*
X25106D01*
Y-69273D01*
X27483D01*
Y-66600D01*
D02*
G37*
G36*
X11080Y-50279D02*
X7718D01*
Y-52263D01*
X11080D01*
Y-50279D01*
D02*
G37*
G36*
X81310Y-30017D02*
X77819Y-33508D01*
X82702Y-38391D01*
X86193Y-34900D01*
X81310Y-30017D01*
D02*
G37*
G36*
X86900Y-35607D02*
X83409Y-39098D01*
X88292Y-43981D01*
X91783Y-40490D01*
X86900Y-35607D01*
D02*
G37*
G36*
X-92100Y-30822D02*
X-94773D01*
Y-33200D01*
X-92100D01*
Y-30822D01*
D02*
G37*
G36*
X-75717Y-14627D02*
X-78095D01*
Y-17300D01*
X-75717D01*
Y-14627D01*
D02*
G37*
G36*
X-88427Y-30822D02*
X-91100D01*
Y-33200D01*
X-88427D01*
Y-30822D01*
D02*
G37*
G36*
X-40075Y-47700D02*
X-44000D01*
Y-51625D01*
X-43338Y-51538D01*
X-42254Y-51090D01*
X-41324Y-50376D01*
X-40611Y-49446D01*
X-40162Y-48362D01*
X-40075Y-47700D01*
D02*
G37*
G36*
X-45000D02*
X-48925D01*
X-48838Y-48362D01*
X-48390Y-49446D01*
X-47676Y-50376D01*
X-46746Y-51090D01*
X-45662Y-51538D01*
X-45000Y-51625D01*
Y-47700D01*
D02*
G37*
G36*
X-58806Y-46027D02*
X-61184D01*
Y-48700D01*
X-58806D01*
Y-46027D01*
D02*
G37*
G36*
X-44000Y-42775D02*
Y-46700D01*
X-40075D01*
X-40162Y-46038D01*
X-40611Y-44954D01*
X-41324Y-44024D01*
X-42254Y-43310D01*
X-43338Y-42862D01*
X-44000Y-42775D01*
D02*
G37*
G36*
X-68900Y-43692D02*
Y-47400D01*
X-66626D01*
Y-46400D01*
X-66721Y-45682D01*
X-66998Y-45013D01*
X-67439Y-44439D01*
X-68013Y-43998D01*
X-68682Y-43721D01*
X-68900Y-43692D01*
D02*
G37*
G36*
X844Y-57200D02*
X-6880D01*
Y-59184D01*
Y-63121D01*
X-5057D01*
Y-63982D01*
X-5057Y-63982D01*
X-5057D01*
X-4902Y-64762D01*
X-4460Y-65424D01*
X-3778Y-66106D01*
Y-72173D01*
X-2839D01*
Y-72927D01*
X-3678D01*
Y-79273D01*
X2078D01*
X2078Y-79273D01*
Y-79273D01*
X2078D01*
X2228D01*
X2431Y-79273D01*
X2431Y-79273D01*
Y-79273D01*
X3066D01*
Y-79750D01*
X-1542Y-84358D01*
X-1984Y-85020D01*
X-2139Y-85800D01*
Y-93615D01*
X-2269Y-93669D01*
X-3209Y-94391D01*
X-3931Y-95331D01*
X-4384Y-96425D01*
X-4539Y-97600D01*
X-4384Y-98775D01*
X-3931Y-99869D01*
X-3209Y-100809D01*
X-2269Y-101531D01*
X-1175Y-101984D01*
X0Y-102139D01*
X1175Y-101984D01*
X2269Y-101531D01*
X3209Y-100809D01*
X3931Y-99869D01*
X4384Y-98775D01*
X4539Y-97600D01*
X4384Y-96425D01*
X3931Y-95331D01*
X3209Y-94391D01*
X2269Y-93669D01*
X1939Y-93533D01*
Y-86645D01*
X6547Y-82036D01*
X6989Y-81375D01*
X7145Y-80594D01*
Y-79273D01*
X7983D01*
Y-72927D01*
X2431D01*
X2431Y-72927D01*
Y-72927D01*
X2228Y-72927D01*
X2153D01*
X2078D01*
X1874Y-72927D01*
X1874Y-72927D01*
Y-72927D01*
X1239D01*
Y-72173D01*
X1978D01*
X1978Y-72173D01*
Y-72173D01*
X1978D01*
X2128D01*
X2331Y-72173D01*
X2331Y-72173D01*
Y-72173D01*
X4505D01*
Y-69001D01*
Y-65827D01*
X2331D01*
X2331Y-65827D01*
Y-65827D01*
X2128Y-65827D01*
X2053D01*
X1978D01*
X1774Y-65827D01*
X1774Y-65827D01*
Y-65827D01*
X1165D01*
X1084Y-65420D01*
X642Y-64758D01*
X-979Y-63137D01*
Y-63121D01*
X844D01*
Y-59184D01*
Y-57200D01*
D02*
G37*
G36*
X-60800Y-82803D02*
X-67097Y-89100D01*
X-60800Y-95397D01*
X-54503Y-89100D01*
X-60800Y-82803D01*
D02*
G37*
G36*
X-36754Y-97483D02*
X-38424Y-101065D01*
X-34842Y-102735D01*
X-33171Y-99153D01*
X-36754Y-97483D01*
D02*
G37*
G36*
X-33356Y-78274D02*
X-38718D01*
Y-85211D01*
X-38586D01*
Y-90492D01*
X-42854Y-94760D01*
X-42883Y-94751D01*
X-44054Y-94700D01*
X-45199Y-94954D01*
X-46239Y-95495D01*
X-47104Y-96287D01*
X-47733Y-97276D01*
X-48086Y-98394D01*
X-48137Y-99565D01*
X-47883Y-100710D01*
X-47342Y-101750D01*
X-46550Y-102614D01*
X-45561Y-103244D01*
X-44443Y-103597D01*
X-43272Y-103648D01*
X-42127Y-103394D01*
X-41087Y-102853D01*
X-40223Y-102061D01*
X-39593Y-101072D01*
X-39240Y-99954D01*
X-39189Y-98782D01*
X-39276Y-98391D01*
X-34235Y-93350D01*
X-33682Y-92523D01*
X-33488Y-91548D01*
X-33488Y-91548D01*
X-33488Y-91548D01*
Y-91548D01*
Y-85211D01*
X-33356D01*
Y-78274D01*
D02*
G37*
G36*
X15000Y-83961D02*
X13825Y-84116D01*
X12731Y-84569D01*
X11791Y-85291D01*
X11069Y-86231D01*
X10616Y-87325D01*
X10461Y-88500D01*
X10616Y-89675D01*
X11069Y-90769D01*
X11791Y-91709D01*
X12731Y-92431D01*
X13825Y-92884D01*
X15000Y-93039D01*
X16175Y-92884D01*
X17269Y-92431D01*
X18210Y-91709D01*
X18931Y-90769D01*
X19384Y-89675D01*
X19539Y-88500D01*
X19384Y-87325D01*
X18931Y-86231D01*
X18210Y-85291D01*
X17269Y-84569D01*
X16175Y-84116D01*
X15000Y-83961D01*
D02*
G37*
G36*
X46900Y-85907D02*
X43409Y-89398D01*
X48292Y-94281D01*
X51783Y-90790D01*
X46900Y-85907D01*
D02*
G37*
G36*
X15000Y-103961D02*
X13825Y-104116D01*
X12731Y-104569D01*
X11791Y-105291D01*
X11069Y-106231D01*
X10616Y-107325D01*
X10461Y-108500D01*
X10616Y-109675D01*
X11069Y-110769D01*
X11791Y-111709D01*
X12731Y-112431D01*
X13825Y-112884D01*
X15000Y-113039D01*
X16175Y-112884D01*
X17269Y-112431D01*
X18210Y-111709D01*
X18931Y-110769D01*
X19384Y-109675D01*
X19539Y-108500D01*
X19384Y-107325D01*
X18931Y-106231D01*
X18210Y-105291D01*
X17269Y-104569D01*
X16175Y-104116D01*
X15000Y-103961D01*
D02*
G37*
G36*
X-15000D02*
X-16175Y-104116D01*
X-17269Y-104569D01*
X-18209Y-105291D01*
X-18931Y-106231D01*
X-19384Y-107325D01*
X-19539Y-108500D01*
X-19384Y-109675D01*
X-18931Y-110769D01*
X-18209Y-111709D01*
X-17269Y-112431D01*
X-16175Y-112884D01*
X-15000Y-113039D01*
X-13825Y-112884D01*
X-12731Y-112431D01*
X-11791Y-111709D01*
X-11069Y-110769D01*
X-10616Y-109675D01*
X-10461Y-108500D01*
X-10616Y-107325D01*
X-11069Y-106231D01*
X-11791Y-105291D01*
X-12731Y-104569D01*
X-13825Y-104116D01*
X-15000Y-103961D01*
D02*
G37*
G36*
X-34358Y-104065D02*
X-36029Y-107647D01*
X-32446Y-109317D01*
X-30776Y-105735D01*
X-34358Y-104065D01*
D02*
G37*
G36*
X-32265Y-99576D02*
X-33935Y-103158D01*
X-30353Y-104829D01*
X-28683Y-101246D01*
X-32265Y-99576D01*
D02*
G37*
G36*
X-38847Y-101971D02*
X-40517Y-105554D01*
X-36935Y-107224D01*
X-35265Y-103642D01*
X-38847Y-101971D01*
D02*
G37*
G36*
X-15500Y-89000D02*
X-19473D01*
X-19384Y-89675D01*
X-18931Y-90769D01*
X-18209Y-91709D01*
X-17269Y-92431D01*
X-16175Y-92884D01*
X-15500Y-92973D01*
Y-89000D01*
D02*
G37*
G36*
X-78425Y-72182D02*
X-78832Y-72712D01*
X-79280Y-73795D01*
X-79433Y-74958D01*
X-79280Y-76120D01*
X-78832Y-77203D01*
X-78425Y-77733D01*
X-75649Y-74958D01*
X-78425Y-72182D01*
D02*
G37*
G36*
X-74942Y-75665D02*
X-77718Y-78441D01*
X-77188Y-78847D01*
X-76104Y-79296D01*
X-74942Y-79449D01*
X-73780Y-79296D01*
X-72697Y-78847D01*
X-72167Y-78441D01*
X-74942Y-75665D01*
D02*
G37*
G36*
X-71459Y-72182D02*
X-74235Y-74958D01*
X-71459Y-77733D01*
X-71053Y-77203D01*
X-70604Y-76120D01*
X-70451Y-74958D01*
X-70604Y-73795D01*
X-71053Y-72712D01*
X-71459Y-72182D01*
D02*
G37*
G36*
X-82013Y-63396D02*
X-83176Y-63549D01*
X-84259Y-63997D01*
X-85189Y-64711D01*
X-85903Y-65641D01*
X-86351Y-66724D01*
X-86504Y-67887D01*
X-86351Y-69049D01*
X-85903Y-70132D01*
X-85189Y-71062D01*
X-84259Y-71776D01*
X-83176Y-72225D01*
X-82013Y-72378D01*
X-80851Y-72225D01*
X-79768Y-71776D01*
X-78838Y-71062D01*
X-78124Y-70132D01*
X-77675Y-69049D01*
X-77522Y-67887D01*
X-77675Y-66724D01*
X-78124Y-65641D01*
X-78838Y-64711D01*
X-79768Y-63997D01*
X-80851Y-63549D01*
X-82013Y-63396D01*
D02*
G37*
G36*
X-74942Y-70467D02*
X-76104Y-70620D01*
X-77188Y-71068D01*
X-77718Y-71475D01*
X-74942Y-74251D01*
X-72167Y-71475D01*
X-72697Y-71068D01*
X-73780Y-70620D01*
X-74942Y-70467D01*
D02*
G37*
G36*
X41310Y-80317D02*
X37819Y-83808D01*
X42702Y-88691D01*
X46193Y-85200D01*
X41310Y-80317D01*
D02*
G37*
G36*
X-10527Y-89000D02*
X-14500D01*
Y-92973D01*
X-13825Y-92884D01*
X-12731Y-92431D01*
X-11791Y-91709D01*
X-11069Y-90769D01*
X-10616Y-89675D01*
X-10527Y-89000D01*
D02*
G37*
G36*
X-15500Y-84027D02*
X-16175Y-84116D01*
X-17269Y-84569D01*
X-18209Y-85291D01*
X-18931Y-86231D01*
X-19384Y-87325D01*
X-19473Y-88000D01*
X-15500D01*
Y-84027D01*
D02*
G37*
G36*
X-67871Y-77538D02*
X-69033Y-77691D01*
X-70117Y-78140D01*
X-71047Y-78853D01*
X-71760Y-79783D01*
X-72209Y-80866D01*
X-72362Y-82029D01*
X-72209Y-83191D01*
X-71760Y-84275D01*
X-71047Y-85205D01*
X-70117Y-85918D01*
X-69033Y-86367D01*
X-67871Y-86520D01*
X-66709Y-86367D01*
X-65626Y-85918D01*
X-64695Y-85205D01*
X-63982Y-84275D01*
X-63533Y-83191D01*
X-63380Y-82029D01*
X-63533Y-80866D01*
X-63982Y-79783D01*
X-64695Y-78853D01*
X-65626Y-78140D01*
X-66709Y-77691D01*
X-67871Y-77538D01*
D02*
G37*
G36*
X-14500Y-84027D02*
Y-88000D01*
X-10527D01*
X-10616Y-87325D01*
X-11069Y-86231D01*
X-11791Y-85291D01*
X-12731Y-84569D01*
X-13825Y-84116D01*
X-14500Y-84027D01*
D02*
G37*
G36*
X20000Y51278D02*
X17327D01*
Y48900D01*
X20000D01*
Y51278D01*
D02*
G37*
G36*
X34000Y96625D02*
Y92700D01*
X37925D01*
X37838Y93362D01*
X37389Y94446D01*
X36676Y95376D01*
X35746Y96090D01*
X34662Y96538D01*
X34000Y96625D01*
D02*
G37*
G36*
X30473Y51284D02*
X27800D01*
Y48906D01*
X30473D01*
Y51284D01*
D02*
G37*
G36*
X38010Y49480D02*
X35289D01*
Y47447D01*
X35576D01*
X36546Y47640D01*
X37367Y48189D01*
X37916Y49011D01*
X38010Y49480D01*
D02*
G37*
G36*
X85000Y46225D02*
Y42300D01*
X88925D01*
X88838Y42962D01*
X88389Y44046D01*
X87676Y44976D01*
X86746Y45689D01*
X85662Y46138D01*
X85000Y46225D01*
D02*
G37*
G36*
X84500Y56291D02*
X83338Y56138D01*
X82254Y55690D01*
X81324Y54976D01*
X80611Y54046D01*
X80162Y52962D01*
X80009Y51800D01*
X80162Y50638D01*
X80611Y49554D01*
X81324Y48624D01*
X82254Y47910D01*
X83338Y47462D01*
X84500Y47309D01*
X85662Y47462D01*
X86746Y47910D01*
X87676Y48624D01*
X88389Y49554D01*
X88838Y50638D01*
X88991Y51800D01*
X88838Y52962D01*
X88389Y54046D01*
X87676Y54976D01*
X86746Y55690D01*
X85662Y56138D01*
X84500Y56291D01*
D02*
G37*
G36*
X34289Y49480D02*
X31568D01*
X31661Y49011D01*
X32210Y48189D01*
X33032Y47640D01*
X34002Y47447D01*
X34289D01*
Y49480D01*
D02*
G37*
G36*
X33000Y96625D02*
X32338Y96538D01*
X31254Y96090D01*
X30324Y95376D01*
X29610Y94446D01*
X29162Y93362D01*
X29075Y92700D01*
X33000D01*
Y96625D01*
D02*
G37*
G36*
X23500Y96691D02*
X22338Y96538D01*
X21254Y96090D01*
X20324Y95376D01*
X19611Y94446D01*
X19162Y93362D01*
X19009Y92200D01*
X19162Y91038D01*
X19466Y90305D01*
Y87800D01*
X19466Y87800D01*
X19603Y86756D01*
X20006Y85783D01*
X20647Y84947D01*
X25399Y80195D01*
X26235Y79554D01*
X27208Y79151D01*
X28252Y79013D01*
X54342D01*
X55386Y79151D01*
X56359Y79554D01*
X57195Y80195D01*
X57563Y80674D01*
X58118D01*
Y81711D01*
X58239Y82003D01*
X58377Y83048D01*
X58239Y84092D01*
X58118Y84385D01*
Y87611D01*
X52756D01*
Y87082D01*
X29923D01*
X27534Y89471D01*
Y90305D01*
X27838Y91038D01*
X27991Y92200D01*
X27838Y93362D01*
X27389Y94446D01*
X26676Y95376D01*
X25746Y96090D01*
X24662Y96538D01*
X23500Y96691D01*
D02*
G37*
G36*
X29500Y74591D02*
X28338Y74438D01*
X27254Y73989D01*
X26324Y73276D01*
X25611Y72346D01*
X25162Y71262D01*
X25009Y70100D01*
X25162Y68938D01*
X25611Y67854D01*
X26324Y66924D01*
X27254Y66211D01*
X28338Y65762D01*
X29500Y65609D01*
X30662Y65762D01*
X31746Y66211D01*
X32676Y66924D01*
X33389Y67854D01*
X33838Y68938D01*
X33991Y70100D01*
X33838Y71262D01*
X33389Y72346D01*
X32676Y73276D01*
X31746Y73989D01*
X30662Y74438D01*
X29500Y74591D01*
D02*
G37*
G36*
X39500D02*
X38338Y74438D01*
X37254Y73989D01*
X36324Y73276D01*
X35610Y72346D01*
X35162Y71262D01*
X35009Y70100D01*
X35162Y68938D01*
X35610Y67854D01*
X36324Y66924D01*
X37254Y66211D01*
X38338Y65762D01*
X39500Y65609D01*
X40662Y65762D01*
X41746Y66211D01*
X42676Y66924D01*
X43389Y67854D01*
X43838Y68938D01*
X43991Y70100D01*
X43838Y71262D01*
X43389Y72346D01*
X42676Y73276D01*
X41746Y73989D01*
X40662Y74438D01*
X39500Y74591D01*
D02*
G37*
G36*
X33000Y91700D02*
X29075D01*
X29162Y91038D01*
X29610Y89954D01*
X30324Y89024D01*
X31254Y88310D01*
X32338Y87862D01*
X33000Y87775D01*
Y91700D01*
D02*
G37*
G36*
X37925D02*
X34000D01*
Y87775D01*
X34662Y87862D01*
X35746Y88310D01*
X36676Y89024D01*
X37389Y89954D01*
X37838Y91038D01*
X37925Y91700D01*
D02*
G37*
G36*
X34289Y52513D02*
X34002D01*
X33032Y52320D01*
X32210Y51771D01*
X31661Y50950D01*
X31568Y50480D01*
X34289D01*
Y52513D01*
D02*
G37*
G36*
X35576D02*
X35289D01*
Y50480D01*
X38010D01*
X37916Y50950D01*
X37367Y51771D01*
X36546Y52320D01*
X35576Y52513D01*
D02*
G37*
G36*
X56037Y-8526D02*
X53856D01*
Y-11495D01*
X56037D01*
Y-8526D01*
D02*
G37*
G36*
X59218D02*
X57037D01*
Y-11495D01*
X59218D01*
Y-8526D01*
D02*
G37*
G36*
X56037Y-4558D02*
X53856D01*
Y-7526D01*
X56037D01*
Y-4558D01*
D02*
G37*
G36*
X49773Y-9122D02*
X47100D01*
Y-11500D01*
X49773D01*
Y-9122D01*
D02*
G37*
G36*
X-3900Y100237D02*
X-10400D01*
X-11141Y100090D01*
X-11770Y99670D01*
X-15029Y96410D01*
X-15338Y96538D01*
X-16500Y96691D01*
X-17662Y96538D01*
X-18746Y96090D01*
X-19676Y95376D01*
X-19691Y95355D01*
X-20130Y95370D01*
X-22683Y97923D01*
X-23311Y98343D01*
X-24053Y98490D01*
X-32127D01*
X-32868Y98343D01*
X-33497Y97923D01*
X-33522Y97897D01*
X-33584Y97856D01*
X-34787Y96653D01*
X-40953D01*
Y87747D01*
X-32047D01*
Y93913D01*
X-31345Y94616D01*
X-30769D01*
X-30491Y94200D01*
X-30838Y93362D01*
X-30991Y92200D01*
X-30838Y91038D01*
X-30389Y89954D01*
X-29676Y89024D01*
X-28746Y88310D01*
X-28584Y88244D01*
X-28486Y87753D01*
X-30002Y86237D01*
X-41600D01*
X-42341Y86090D01*
X-42970Y85670D01*
X-46701Y81939D01*
X-47163Y82130D01*
Y84299D01*
X-46745Y84925D01*
X-46551Y85900D01*
X-46745Y86875D01*
X-47298Y87702D01*
X-48125Y88255D01*
X-49100Y88449D01*
X-50076Y88255D01*
X-50902Y87702D01*
X-51455Y86875D01*
X-51649Y85900D01*
X-51455Y84925D01*
X-51037Y84299D01*
Y82359D01*
X-51478Y82124D01*
X-51824Y82355D01*
X-52800Y82549D01*
X-53776Y82355D01*
X-54602Y81802D01*
X-65502Y70902D01*
X-66055Y70076D01*
X-66249Y69100D01*
Y63959D01*
X-66734Y63837D01*
X-67124Y64567D01*
X-68358Y66071D01*
X-69862Y67305D01*
X-71577Y68222D01*
X-73438Y68786D01*
X-75374Y68977D01*
X-77310Y68786D01*
X-79171Y68222D01*
X-80886Y67305D01*
X-82390Y66071D01*
X-83624Y64567D01*
X-84541Y62852D01*
X-85105Y60991D01*
X-85296Y59055D01*
X-85105Y57120D01*
X-84541Y55258D01*
X-83624Y53543D01*
X-82390Y52039D01*
X-80886Y50805D01*
X-79171Y49889D01*
X-77310Y49324D01*
X-75374Y49133D01*
X-73438Y49324D01*
X-71577Y49889D01*
X-69862Y50805D01*
X-68358Y52039D01*
X-67124Y53543D01*
X-66734Y54273D01*
X-66249Y54152D01*
Y20487D01*
X-67134Y19602D01*
X-67686Y18776D01*
X-67880Y17800D01*
Y14168D01*
Y12190D01*
X-68800D01*
Y6828D01*
X-61905D01*
Y4757D01*
X-61905Y4757D01*
X-61905Y4607D01*
D01*
X-61905Y4316D01*
X-68800D01*
Y-1046D01*
X-61905D01*
Y-1149D01*
X-55558D01*
Y-208D01*
X-54137D01*
Y-1799D01*
X-54555Y-2424D01*
X-54749Y-3400D01*
X-54555Y-4375D01*
X-54002Y-5202D01*
X-53175Y-5755D01*
X-52200Y-5949D01*
X-52024Y-5914D01*
X-51637Y-6231D01*
Y-12498D01*
X-52902Y-13763D01*
X-61199D01*
X-61825Y-13345D01*
X-62800Y-13151D01*
X-63775Y-13345D01*
X-64602Y-13898D01*
X-65155Y-14725D01*
X-65349Y-15700D01*
X-65155Y-16676D01*
X-64602Y-17502D01*
X-63775Y-18055D01*
X-63178Y-18174D01*
Y-18527D01*
Y-18527D01*
X-63178Y-20149D01*
X-63178Y-20149D01*
X-63178D01*
Y-24873D01*
X-63178Y-24873D01*
X-63178Y-25127D01*
X-63178D01*
Y-29773D01*
X-63656Y-30251D01*
X-80844D01*
X-81851Y-29244D01*
Y-28863D01*
X-81378Y-28702D01*
X-81361Y-28723D01*
X-80787Y-29164D01*
X-80118Y-29441D01*
X-79400Y-29536D01*
X-78682Y-29441D01*
X-78013Y-29164D01*
X-77439Y-28723D01*
X-77150Y-28347D01*
X-76650D01*
X-76361Y-28723D01*
X-75787Y-29164D01*
X-75118Y-29441D01*
X-74400Y-29536D01*
X-73682Y-29441D01*
X-73013Y-29164D01*
X-72439Y-28723D01*
X-72150Y-28347D01*
X-71650D01*
X-71361Y-28723D01*
X-70787Y-29164D01*
X-70118Y-29441D01*
X-69400Y-29536D01*
X-68682Y-29441D01*
X-68013Y-29164D01*
X-67439Y-28723D01*
X-66998Y-28149D01*
X-66721Y-27480D01*
X-66626Y-26762D01*
Y-23762D01*
X-66721Y-23044D01*
X-66998Y-22375D01*
X-67439Y-21801D01*
X-68013Y-21360D01*
X-68682Y-21083D01*
X-69400Y-20989D01*
X-70118Y-21083D01*
X-70787Y-21360D01*
X-71361Y-21801D01*
X-71650Y-22177D01*
X-72150D01*
X-72439Y-21801D01*
X-73013Y-21360D01*
X-73682Y-21083D01*
X-74400Y-20989D01*
X-75118Y-21083D01*
X-75301Y-21159D01*
X-75555Y-20989D01*
D01*
X-75717Y-20881D01*
D01*
Y-18300D01*
X-78596D01*
Y-17801D01*
X-79094D01*
Y-14627D01*
X-81269D01*
X-81269Y-14627D01*
Y-14627D01*
X-81472Y-14627D01*
X-81547D01*
X-81622D01*
X-81622D01*
X-81826D01*
X-81826D01*
D01*
X-81951Y-14627D01*
Y-856D01*
X-78205Y2891D01*
X-71706D01*
Y8253D01*
X-78642D01*
Y8121D01*
X-79128D01*
X-80104Y7927D01*
X-80931Y7374D01*
X-86302Y2002D01*
X-86855Y1175D01*
X-87049Y200D01*
Y-14627D01*
X-87378D01*
Y-20973D01*
X-87049D01*
Y-22971D01*
X-87079Y-23044D01*
X-87174Y-23762D01*
Y-26762D01*
X-87079Y-27480D01*
X-86949Y-27795D01*
Y-30300D01*
X-86755Y-31275D01*
X-86202Y-32102D01*
X-83702Y-34602D01*
X-82876Y-35155D01*
X-81900Y-35349D01*
X-62600D01*
X-61624Y-35155D01*
X-60798Y-34602D01*
X-59279Y-33084D01*
X-58817Y-33276D01*
Y-36082D01*
X-65611D01*
Y-41444D01*
X-64692D01*
Y-42411D01*
X-64749Y-42700D01*
X-64555Y-43676D01*
X-64002Y-44502D01*
X-63175Y-45055D01*
X-62200Y-45249D01*
X-61225Y-45055D01*
X-60398Y-44502D01*
X-60375Y-44468D01*
X-60340Y-44445D01*
X-59788Y-43618D01*
X-59593Y-42643D01*
Y-41444D01*
X-58755D01*
X-58623Y-42107D01*
X-58071Y-42934D01*
X-56502Y-44502D01*
X-55769Y-44993D01*
Y-45381D01*
X-54849D01*
Y-45673D01*
X-55203Y-46027D01*
X-55278D01*
X-55353D01*
X-55428D01*
X-55632Y-46027D01*
X-55632Y-46027D01*
Y-46027D01*
X-57806D01*
Y-49201D01*
Y-52373D01*
X-55428D01*
Y-52373D01*
X-55278D01*
X-55074Y-52373D01*
X-55074Y-52373D01*
Y-52373D01*
X-49522D01*
Y-46027D01*
X-49751D01*
Y-45381D01*
X-49016D01*
X-48738Y-45797D01*
X-48838Y-46038D01*
X-48925Y-46700D01*
X-45000D01*
Y-42775D01*
X-45662Y-42862D01*
X-46746Y-43310D01*
X-47676Y-44024D01*
X-48358Y-44914D01*
X-48831Y-44753D01*
Y-40019D01*
X-53720D01*
Y-37507D01*
X-48831D01*
Y-32604D01*
X-48545Y-32175D01*
X-48351Y-31200D01*
Y-23400D01*
X-48545Y-22424D01*
X-49098Y-21598D01*
X-50798Y-19898D01*
X-51516Y-19417D01*
Y-18527D01*
X-57272D01*
D01*
D01*
X-57272Y-18527D01*
X-57422D01*
Y-18527D01*
X-61669D01*
X-61815Y-18048D01*
X-61199Y-17637D01*
X-52100D01*
X-51359Y-17490D01*
X-50730Y-17070D01*
X-50730Y-17070D01*
X-50730Y-17070D01*
X-48330Y-14670D01*
X-47910Y-14041D01*
X-47763Y-13300D01*
X-47763Y-13300D01*
X-47763Y-13300D01*
Y-13300D01*
Y-4495D01*
X-47301Y-4304D01*
X-47002Y-4602D01*
X-47002Y-4602D01*
X-47002Y-4602D01*
Y-4602D01*
X-47002Y-4602D01*
Y-4602D01*
X-46176Y-5155D01*
X-45200Y-5349D01*
X-32473D01*
X-32473Y-5678D01*
X-32473D01*
X-32473Y-5828D01*
X-32473D01*
Y-8206D01*
X-26127D01*
Y-5828D01*
D01*
Y-5828D01*
X-26127Y-5828D01*
Y-5678D01*
D01*
X-26127Y-5349D01*
X-23300D01*
X-22324Y-5155D01*
X-21498Y-4602D01*
X-20920Y-4025D01*
X-20747Y-4197D01*
X-20003Y-4694D01*
X-19125Y-4869D01*
X-17474D01*
X-17451Y-4982D01*
X-17243Y-5294D01*
Y-9122D01*
X-18373D01*
Y-9961D01*
X-26127D01*
Y-9206D01*
X-32473D01*
Y-9961D01*
X-37500D01*
X-38280Y-10116D01*
X-38942Y-10558D01*
X-46342Y-17958D01*
X-46784Y-18620D01*
X-46939Y-19400D01*
Y-28023D01*
X-46966Y-28160D01*
X-46992Y-28288D01*
Y-36947D01*
X-46992Y-36947D01*
X-46992D01*
X-46837Y-37728D01*
X-46395Y-38389D01*
X-42342Y-42442D01*
X-41680Y-42884D01*
X-40900Y-43039D01*
X-40900Y-43039D01*
X-27745D01*
X-22445Y-48339D01*
Y-63727D01*
X-23283D01*
Y-64406D01*
X-24227Y-64593D01*
X-25054Y-65146D01*
X-25607Y-65973D01*
X-25801Y-66948D01*
X-25607Y-67924D01*
X-25054Y-68751D01*
X-24227Y-69303D01*
X-23283Y-69491D01*
Y-70073D01*
X-17528D01*
Y-70073D01*
X-17528D01*
X-17528Y-70073D01*
X-17378D01*
Y-70073D01*
X-11622D01*
Y-63727D01*
X-11951D01*
Y-61653D01*
X-10047D01*
Y-52747D01*
X-18366D01*
Y-50253D01*
X-17893Y-50093D01*
X-17676Y-50376D01*
X-16746Y-51090D01*
X-15662Y-51538D01*
X-14500Y-51691D01*
X-13338Y-51538D01*
X-12254Y-51090D01*
X-11324Y-50376D01*
X-10610Y-49446D01*
X-10162Y-48362D01*
X-10009Y-47200D01*
X-10162Y-46038D01*
X-10610Y-44954D01*
X-11324Y-44024D01*
X-12254Y-43310D01*
X-13338Y-42862D01*
X-14500Y-42709D01*
X-15662Y-42862D01*
X-16746Y-43310D01*
X-17676Y-44024D01*
X-18390Y-44954D01*
X-18707Y-45721D01*
X-19197Y-45819D01*
X-25458Y-39558D01*
X-26120Y-39116D01*
X-26900Y-38961D01*
X-40055D01*
X-42042Y-36974D01*
X-41765Y-36558D01*
X-41662Y-36600D01*
X-40500Y-36753D01*
X-39338Y-36600D01*
X-38254Y-36152D01*
X-37324Y-35438D01*
X-36611Y-34508D01*
X-36162Y-33425D01*
X-36009Y-32262D01*
X-36162Y-31100D01*
X-36611Y-30017D01*
X-36683Y-29922D01*
X-32298Y-25537D01*
X-27168D01*
X-26977Y-25999D01*
X-29029Y-28052D01*
X-29338Y-27924D01*
X-30500Y-27771D01*
X-31662Y-27924D01*
X-32746Y-28373D01*
X-33676Y-29087D01*
X-34389Y-30017D01*
X-34838Y-31100D01*
X-34991Y-32262D01*
X-34838Y-33425D01*
X-34389Y-34508D01*
X-33676Y-35438D01*
X-32746Y-36152D01*
X-31662Y-36600D01*
X-30500Y-36753D01*
X-29338Y-36600D01*
X-28254Y-36152D01*
X-27324Y-35438D01*
X-26611Y-34508D01*
X-26162Y-33425D01*
X-26009Y-32262D01*
X-26162Y-31100D01*
X-26290Y-30791D01*
X-23002Y-27504D01*
X-22503Y-27529D01*
X-22343Y-27724D01*
X-22437Y-28200D01*
Y-28245D01*
X-22746Y-28373D01*
X-23676Y-29087D01*
X-24389Y-30017D01*
X-24838Y-31100D01*
X-24991Y-32262D01*
X-24838Y-33425D01*
X-24389Y-34508D01*
X-23676Y-35438D01*
X-22746Y-36152D01*
X-21662Y-36600D01*
X-20500Y-36753D01*
X-19338Y-36600D01*
X-18254Y-36152D01*
X-17324Y-35438D01*
X-16611Y-34508D01*
X-16162Y-33425D01*
X-16009Y-32262D01*
X-16162Y-31100D01*
X-16611Y-30017D01*
X-16864Y-29686D01*
X-16643Y-29237D01*
X-14357D01*
X-14135Y-29686D01*
X-14390Y-30017D01*
X-14838Y-31100D01*
X-14991Y-32262D01*
X-14838Y-33425D01*
X-14390Y-34508D01*
X-13676Y-35438D01*
X-12746Y-36152D01*
X-11662Y-36600D01*
X-10500Y-36753D01*
X-9338Y-36600D01*
X-8254Y-36152D01*
X-7324Y-35438D01*
X-6611Y-34508D01*
X-6162Y-33425D01*
X-6009Y-32262D01*
X-6162Y-31100D01*
X-6611Y-30017D01*
X-7324Y-29087D01*
X-8254Y-28373D01*
X-8284Y-28224D01*
X2476Y-17464D01*
X2938Y-17655D01*
Y-18623D01*
X-1870Y-23430D01*
X-2290Y-24059D01*
X-2437Y-24800D01*
Y-28245D01*
X-2746Y-28373D01*
X-3676Y-29087D01*
X-4389Y-30017D01*
X-4838Y-31100D01*
X-4991Y-32262D01*
X-4838Y-33425D01*
X-4389Y-34508D01*
X-3676Y-35438D01*
X-2746Y-36152D01*
X-1662Y-36600D01*
X-500Y-36753D01*
X662Y-36600D01*
X1746Y-36152D01*
X2676Y-35438D01*
X3390Y-34508D01*
X3838Y-33425D01*
X3991Y-32262D01*
X3838Y-31100D01*
X3390Y-30017D01*
X2676Y-29087D01*
X1746Y-28373D01*
X1437Y-28245D01*
Y-25602D01*
X4736Y-22304D01*
X5198Y-22495D01*
Y-23237D01*
X5353Y-24017D01*
X5795Y-24679D01*
X7461Y-26345D01*
Y-28287D01*
X7254Y-28373D01*
X6324Y-29087D01*
X5610Y-30017D01*
X5162Y-31100D01*
X5009Y-32262D01*
X5162Y-33425D01*
X5610Y-34508D01*
X6324Y-35438D01*
X7254Y-36152D01*
X8338Y-36600D01*
X9500Y-36753D01*
X10662Y-36600D01*
X11746Y-36152D01*
X12012Y-35947D01*
X12461Y-36168D01*
Y-40355D01*
X9955Y-42861D01*
X100D01*
X-680Y-43016D01*
X-1342Y-43458D01*
X-4460Y-46576D01*
X-4902Y-47238D01*
X-5057Y-48018D01*
Y-50279D01*
X-6880D01*
Y-55247D01*
Y-56200D01*
X844D01*
Y-55247D01*
Y-50279D01*
X-979D01*
Y-48863D01*
X945Y-46939D01*
X10800D01*
X11580Y-46784D01*
X12242Y-46342D01*
X12242Y-46342D01*
X12242Y-46342D01*
X15942Y-42642D01*
X16384Y-41980D01*
X16539Y-41200D01*
X16539Y-41200D01*
X16539Y-41200D01*
Y-41200D01*
Y-36168D01*
X16988Y-35947D01*
X17254Y-36152D01*
X18338Y-36600D01*
X19500Y-36753D01*
X20662Y-36600D01*
X21746Y-36152D01*
X22676Y-35438D01*
X23389Y-34508D01*
X23838Y-33425D01*
X23991Y-32262D01*
X23838Y-31100D01*
X23389Y-30017D01*
X22676Y-29087D01*
X21746Y-28373D01*
X21437Y-28245D01*
Y-22630D01*
X21899Y-22439D01*
X26845Y-27385D01*
X27254Y-28373D01*
X26324Y-29087D01*
X25611Y-30017D01*
X25162Y-31100D01*
X25009Y-32262D01*
X25162Y-33425D01*
X25611Y-34508D01*
X26324Y-35438D01*
X27254Y-36152D01*
X28338Y-36600D01*
X29500Y-36753D01*
X30662Y-36600D01*
X31746Y-36152D01*
X32676Y-35438D01*
X33389Y-34508D01*
X33838Y-33425D01*
X33991Y-32262D01*
X33838Y-31100D01*
X33389Y-30017D01*
X32676Y-29087D01*
X31746Y-28373D01*
X31437Y-28245D01*
Y-27300D01*
X31401Y-27117D01*
X31842Y-26881D01*
X35425Y-30465D01*
X35162Y-31100D01*
X35009Y-32262D01*
X35162Y-33425D01*
X35610Y-34508D01*
X36324Y-35438D01*
X37126Y-36053D01*
X36966Y-36527D01*
X33316D01*
Y-37661D01*
X25900D01*
X25120Y-37816D01*
X24855Y-37993D01*
X24458Y-38258D01*
X24458Y-38258D01*
X21195Y-41521D01*
X20753Y-42183D01*
X20598Y-42963D01*
Y-46889D01*
X19956D01*
Y-53060D01*
X17258Y-55758D01*
X16816Y-56420D01*
X16754Y-56731D01*
X16019D01*
Y-62927D01*
X15822D01*
Y-69273D01*
X21578D01*
Y-69273D01*
X21578D01*
X21578Y-69273D01*
X21728D01*
Y-69273D01*
X24105D01*
Y-66099D01*
X24604D01*
Y-65600D01*
X27483D01*
Y-63669D01*
X29255D01*
Y-60700D01*
X26573D01*
Y-59700D01*
X29123D01*
X29255Y-59832D01*
Y-60485D01*
X29717Y-60294D01*
X45525Y-76102D01*
X45508Y-76119D01*
X45508Y-76119D01*
X45508Y-76119D01*
X42017Y-79610D01*
X47253Y-84846D01*
D01*
X47254Y-84846D01*
X47254Y-84847D01*
D01*
X52490Y-90083D01*
X55981Y-86592D01*
X55075Y-85686D01*
X55296Y-85238D01*
X55641Y-85283D01*
X57061Y-85096D01*
X58383Y-84548D01*
X59519Y-83677D01*
X60391Y-82541D01*
X60939Y-81219D01*
X61125Y-79799D01*
X60939Y-78380D01*
X60391Y-77057D01*
X59519Y-75921D01*
X56735Y-73138D01*
X55599Y-72266D01*
X54277Y-71718D01*
X53934Y-71673D01*
X38631Y-56371D01*
Y-56081D01*
D01*
X38782D01*
Y-56081D01*
X45568D01*
Y-50719D01*
X43884D01*
X43606Y-50303D01*
X43705Y-50065D01*
X46374D01*
X47549Y-49910D01*
X48190Y-49645D01*
X48643Y-49457D01*
X49584Y-48735D01*
X51979Y-46340D01*
X51979Y-46340D01*
X51979Y-46340D01*
X52700Y-45400D01*
X53154Y-44305D01*
X53308Y-43130D01*
Y-31370D01*
X53154Y-30195D01*
X52700Y-29100D01*
X51979Y-28160D01*
X45064Y-21245D01*
X45256Y-20784D01*
X49773D01*
D01*
X49773D01*
X49919Y-20929D01*
Y-21337D01*
X55281D01*
Y-14400D01*
X50127D01*
X50127Y-14400D01*
Y-14400D01*
X49919Y-14400D01*
X49773Y-14254D01*
Y-12500D01*
X43427D01*
Y-14674D01*
X43427Y-14674D01*
X43427D01*
X43427Y-14878D01*
Y-15028D01*
D01*
D01*
X43427D01*
Y-18955D01*
X42965Y-19146D01*
X35189Y-11370D01*
Y1657D01*
X35189D01*
X35363D01*
X35542Y1657D01*
X35542Y1657D01*
Y1657D01*
X46237D01*
Y2556D01*
X52163D01*
Y1563D01*
X63037D01*
Y12437D01*
X52163D01*
Y11633D01*
X46237D01*
Y12531D01*
X35542D01*
X35542Y12531D01*
Y12531D01*
X35363Y12531D01*
X35189Y12706D01*
Y16985D01*
X35363Y17405D01*
Y17405D01*
D01*
X46237D01*
Y28280D01*
X35363D01*
Y27381D01*
X34242D01*
X33068Y27227D01*
X31973Y26773D01*
X31033Y26052D01*
X27441Y22459D01*
X26719Y21519D01*
X26531Y21066D01*
X26266Y20425D01*
X26111Y19250D01*
Y-13250D01*
X26111Y-13250D01*
X26111D01*
X26266Y-14425D01*
X26531Y-15066D01*
X26719Y-15519D01*
X26899Y-15754D01*
X26523Y-16084D01*
X21937Y-11498D01*
Y5146D01*
X21790Y5887D01*
X21370Y6515D01*
X18340Y9545D01*
X17711Y9965D01*
X17711Y9965D01*
X17711D01*
X17613Y10113D01*
X17634Y10221D01*
X17480Y10998D01*
X17341Y11205D01*
X17480Y11412D01*
X17503Y11529D01*
X17919Y11806D01*
X18700Y11651D01*
X19676Y11845D01*
X20502Y12398D01*
X21055Y13225D01*
X21249Y14200D01*
X21208Y14405D01*
X21562Y14759D01*
X21600Y14751D01*
X22576Y14945D01*
X23402Y15498D01*
X23955Y16325D01*
X24149Y17300D01*
X23955Y18275D01*
X23402Y19102D01*
X22576Y19655D01*
X22141Y19741D01*
X21996Y20220D01*
X22270Y20493D01*
X22690Y21122D01*
X22837Y21863D01*
Y35453D01*
X22690Y36194D01*
X22270Y36823D01*
X20041Y39051D01*
X20262Y39500D01*
X20500Y39469D01*
X22294D01*
X22335Y39437D01*
X23186Y39085D01*
X24100Y38964D01*
X25014Y39085D01*
X25865Y39437D01*
X26106Y39622D01*
X26409D01*
X26517Y39577D01*
X27300Y39474D01*
X34789D01*
X35572Y39577D01*
X36302Y39880D01*
X36929Y40360D01*
X37016Y40474D01*
X37367Y40709D01*
X37916Y41531D01*
X38109Y42500D01*
X37916Y43469D01*
X37367Y44291D01*
X37016Y44526D01*
X36929Y44640D01*
X36302Y45120D01*
X35572Y45423D01*
X34789Y45526D01*
X30473D01*
Y45528D01*
X30473Y45528D01*
X30473Y45528D01*
Y47905D01*
X27299D01*
Y48404D01*
X26800D01*
Y51284D01*
X24127D01*
Y51278D01*
X23673D01*
Y51278D01*
X21000D01*
Y48399D01*
X20501D01*
Y47900D01*
X17327D01*
Y45522D01*
X17327Y45522D01*
X17327Y45372D01*
X17327D01*
Y42419D01*
X16865Y42228D01*
X15790Y43302D01*
Y59678D01*
X16176Y59996D01*
X16400Y59951D01*
X17376Y60145D01*
X17695Y60359D01*
X39313D01*
X44459Y55213D01*
Y53006D01*
X44380D01*
X43597Y52903D01*
X42867Y52601D01*
X42241Y52120D01*
X39460Y49340D01*
X38980Y48713D01*
X38891Y48499D01*
X38677Y47983D01*
X38574Y47200D01*
Y44900D01*
X38677Y44117D01*
X38891Y43601D01*
X38980Y43387D01*
X39460Y42760D01*
X41860Y40360D01*
X42487Y39880D01*
X43217Y39577D01*
X44000Y39474D01*
X46600D01*
X47360Y39574D01*
X55774D01*
Y37250D01*
X55591Y37109D01*
X55070Y36430D01*
X54391Y35909D01*
X53669Y34969D01*
X53216Y33875D01*
X53061Y32700D01*
Y28185D01*
X52163D01*
Y17311D01*
X63037D01*
Y28185D01*
X62139D01*
Y29361D01*
X63100D01*
X64275Y29516D01*
X64916Y29781D01*
X65369Y29969D01*
X66309Y30691D01*
X73409Y37791D01*
X73409Y37791D01*
X73963Y38512D01*
X74131Y38731D01*
X74584Y39825D01*
X74739Y41000D01*
X74739Y41000D01*
Y63474D01*
X74739Y63474D01*
X74584Y64649D01*
X74131Y65743D01*
X73963Y65962D01*
X73409Y66684D01*
X73409Y66684D01*
X65596Y74497D01*
X62584Y77509D01*
X61643Y78231D01*
X60549Y78684D01*
X59374Y78839D01*
X58199Y78684D01*
X57105Y78231D01*
X56165Y77509D01*
X55443Y76569D01*
X54990Y75475D01*
X54835Y74300D01*
X54990Y73125D01*
X55443Y72031D01*
X55680Y71722D01*
X55459Y71273D01*
X54726D01*
X54726Y71273D01*
Y71273D01*
X54522Y71273D01*
X54372D01*
Y71273D01*
X54181Y71273D01*
Y77768D01*
X48819D01*
Y71273D01*
X48616D01*
Y64927D01*
X49563D01*
Y58101D01*
X49145Y57476D01*
X49057Y57034D01*
X48567Y56936D01*
X48114Y57614D01*
X41714Y64014D01*
X41019Y64478D01*
X40200Y64641D01*
X17695D01*
X17376Y64855D01*
X16400Y65049D01*
X16176Y65004D01*
X15790Y65322D01*
Y66843D01*
X16263Y67004D01*
X16324Y66924D01*
X17254Y66211D01*
X18338Y65762D01*
X19500Y65609D01*
X20662Y65762D01*
X21746Y66211D01*
X22676Y66924D01*
X23389Y67854D01*
X23838Y68938D01*
X23991Y70100D01*
X23838Y71262D01*
X23389Y72346D01*
X22676Y73276D01*
X21746Y73989D01*
X20662Y74438D01*
X19500Y74591D01*
X18338Y74438D01*
X17254Y73989D01*
X16324Y73276D01*
X16263Y73197D01*
X15790Y73357D01*
Y88345D01*
X16676Y89024D01*
X17390Y89954D01*
X17838Y91038D01*
X17991Y92200D01*
X17838Y93362D01*
X17390Y94446D01*
X16676Y95376D01*
X15746Y96090D01*
X14662Y96538D01*
X13500Y96691D01*
X12338Y96538D01*
X11254Y96090D01*
X10324Y95376D01*
X9611Y94446D01*
X9162Y93362D01*
X9009Y92200D01*
X9162Y91038D01*
X9611Y89954D01*
X10324Y89024D01*
X11254Y88310D01*
X11915Y88037D01*
Y74369D01*
X11500Y74091D01*
X10662Y74438D01*
X9500Y74591D01*
X8338Y74438D01*
X7254Y73989D01*
X6324Y73276D01*
X6263Y73197D01*
X5790Y73357D01*
Y88345D01*
X6676Y89024D01*
X7389Y89954D01*
X7838Y91038D01*
X7991Y92200D01*
X7838Y93362D01*
X7389Y94446D01*
X6676Y95376D01*
X5746Y96090D01*
X4662Y96538D01*
X3500Y96691D01*
X2338Y96538D01*
X1254Y96090D01*
X686Y95653D01*
X237Y95874D01*
Y96100D01*
X90Y96841D01*
X-330Y97470D01*
X-2530Y99670D01*
X-3159Y100090D01*
X-3900Y100237D01*
D02*
G37*
G36*
X69937Y3576D02*
X68762Y3421D01*
X67668Y2968D01*
X66728Y2246D01*
X66006Y1306D01*
X65553Y212D01*
X65398Y-963D01*
Y-8157D01*
X65553Y-9332D01*
X66006Y-10427D01*
X66728Y-11367D01*
X67668Y-12088D01*
X68762Y-12542D01*
X69273Y-12609D01*
X69434Y-13082D01*
X67985Y-14532D01*
X63319D01*
Y-14532D01*
X63287D01*
X63155Y-14400D01*
Y-14400D01*
X57793D01*
Y-21337D01*
X63155D01*
Y-21337D01*
X63187D01*
X63319Y-21468D01*
Y-21468D01*
X68681D01*
Y-19549D01*
X68842Y-19442D01*
X69160Y-19124D01*
X69651Y-19221D01*
X70043Y-20169D01*
X70765Y-21109D01*
X71193Y-21438D01*
Y-21468D01*
X71232D01*
X71705Y-21831D01*
X72799Y-22284D01*
X73974Y-22439D01*
X82162D01*
X85525Y-25802D01*
X85508Y-25819D01*
X85508Y-25819D01*
X85508Y-25819D01*
X82017Y-29310D01*
X87253Y-34546D01*
D01*
X87253Y-34546D01*
X87254Y-34547D01*
D01*
X92490Y-39783D01*
X95981Y-36292D01*
X95075Y-35386D01*
X95296Y-34938D01*
X95641Y-34983D01*
X97061Y-34796D01*
X98383Y-34249D01*
X99519Y-33377D01*
X100391Y-32241D01*
X100938Y-30919D01*
X101125Y-29499D01*
X100938Y-28080D01*
X100391Y-26757D01*
X99519Y-25622D01*
X96735Y-22838D01*
X95600Y-21966D01*
X94277Y-21418D01*
X93934Y-21373D01*
X87252Y-14691D01*
X86312Y-13969D01*
X85858Y-13781D01*
X85217Y-13516D01*
X84042Y-13361D01*
X82873D01*
Y-9116D01*
X76527D01*
Y-9955D01*
X74513D01*
X74235Y-9540D01*
X74321Y-9332D01*
X74476Y-8157D01*
Y-963D01*
X74321Y212D01*
X73868Y1306D01*
X73146Y2246D01*
X72206Y2968D01*
X71112Y3421D01*
X69937Y3576D01*
D02*
G37*
G36*
X46100Y-9122D02*
X43427D01*
Y-11500D01*
X46100D01*
Y-9122D01*
D02*
G37*
G36*
X84000Y41300D02*
X80075D01*
X80162Y40638D01*
X80611Y39554D01*
X81324Y38624D01*
X82254Y37911D01*
X83338Y37462D01*
X84000Y37375D01*
Y41300D01*
D02*
G37*
G36*
X88925D02*
X85000D01*
Y37375D01*
X85662Y37462D01*
X86746Y37911D01*
X87676Y38624D01*
X88389Y39554D01*
X88838Y40638D01*
X88925Y41300D01*
D02*
G37*
G36*
X84000Y46225D02*
X83338Y46138D01*
X82254Y45689D01*
X81324Y44976D01*
X80611Y44046D01*
X80162Y42962D01*
X80075Y42300D01*
X84000D01*
Y46225D01*
D02*
G37*
G36*
X88953Y26253D02*
X80047D01*
Y17347D01*
X88953D01*
Y26253D01*
D02*
G37*
G36*
X59218Y-4558D02*
X57037D01*
Y-7526D01*
X59218D01*
Y-4558D01*
D02*
G37*
G36*
X84500Y36291D02*
X83338Y36138D01*
X82254Y35689D01*
X81324Y34976D01*
X80611Y34046D01*
X80162Y32962D01*
X80009Y31800D01*
X80162Y30638D01*
X80611Y29554D01*
X81324Y28624D01*
X82254Y27911D01*
X83338Y27462D01*
X84500Y27309D01*
X85662Y27462D01*
X86746Y27911D01*
X87676Y28624D01*
X88389Y29554D01*
X88838Y30638D01*
X88991Y31800D01*
X88838Y32962D01*
X88389Y34046D01*
X87676Y34976D01*
X86746Y35689D01*
X85662Y36138D01*
X84500Y36291D01*
D02*
G37*
%LPD*%
G36*
X-27137Y66502D02*
Y66100D01*
X-27137Y66100D01*
X-27137D01*
X-26990Y65359D01*
X-26570Y64730D01*
X-22037Y60198D01*
Y41000D01*
X-22037Y41000D01*
X-22037D01*
X-21890Y40259D01*
X-21470Y39630D01*
X-17313Y35473D01*
X-17451Y35266D01*
X-17636Y34335D01*
Y31382D01*
X-17451Y30451D01*
X-16924Y29662D01*
X-16135Y29135D01*
X-15204Y28949D01*
X-14273Y29135D01*
X-13963Y29342D01*
X-13619Y29112D01*
X-12842Y28957D01*
X-12064Y29112D01*
X-11857Y29250D01*
X-11650Y29112D01*
X-10873Y28957D01*
X-10096Y29112D01*
X-9889Y29250D01*
X-9682Y29112D01*
X-8905Y28957D01*
X-8127Y29112D01*
X-7920Y29250D01*
X-7713Y29112D01*
X-6936Y28957D01*
X-6159Y29112D01*
X-5952Y29250D01*
X-5745Y29112D01*
X-4968Y28957D01*
X-4190Y29112D01*
X-3983Y29250D01*
X-3777Y29112D01*
X-2999Y28957D01*
X-2255Y29105D01*
X-2020Y28664D01*
X-2342Y28342D01*
X-2784Y27680D01*
X-2939Y26900D01*
X-2784Y26120D01*
X-2342Y25458D01*
X-2279Y25416D01*
X-2424Y24937D01*
X-5799D01*
X-6425Y25355D01*
X-7400Y25549D01*
X-8375Y25355D01*
X-9202Y24802D01*
X-9755Y23976D01*
X-9949Y23000D01*
X-9755Y22025D01*
X-9202Y21198D01*
X-8375Y20645D01*
X-7400Y20451D01*
X-6425Y20645D01*
X-5799Y21063D01*
X100D01*
X841Y21210D01*
X1470Y21630D01*
X1470Y21630D01*
X1470Y21630D01*
X4736Y24896D01*
X5198Y24705D01*
Y3463D01*
X5353Y2683D01*
X5795Y2021D01*
X6244Y1572D01*
X6218Y1309D01*
X5766Y1096D01*
X5652Y1172D01*
X4875Y1326D01*
X4098Y1172D01*
X3891Y1034D01*
X3684Y1172D01*
X2937Y1320D01*
Y1799D01*
X3355Y2424D01*
X3549Y3400D01*
X3355Y4375D01*
X2802Y5202D01*
X1976Y5755D01*
X1000Y5949D01*
X25Y5755D01*
X-802Y5202D01*
X-1355Y4375D01*
X-1549Y3400D01*
X-1355Y2424D01*
X-937Y1799D01*
Y1403D01*
X-1031Y1326D01*
X-1808Y1172D01*
X-2015Y1034D01*
X-2222Y1172D01*
X-2999Y1326D01*
X-3777Y1172D01*
X-3983Y1034D01*
X-4190Y1172D01*
X-4968Y1326D01*
X-5745Y1172D01*
X-5952Y1034D01*
X-6159Y1172D01*
X-6936Y1326D01*
X-7713Y1172D01*
X-7920Y1034D01*
X-8127Y1172D01*
X-8905Y1326D01*
X-9682Y1172D01*
X-9889Y1034D01*
X-10096Y1172D01*
X-10134Y1179D01*
X-10412Y1595D01*
X-10351Y1900D01*
X-10545Y2875D01*
X-11098Y3702D01*
X-11925Y4255D01*
X-12900Y4449D01*
X-13643Y4301D01*
X-13879Y4742D01*
X-12637Y5983D01*
X-12586Y5990D01*
X-11735Y6343D01*
X-11004Y6904D01*
X-10443Y7635D01*
X-10090Y8486D01*
X-9970Y9400D01*
X-10090Y10314D01*
X-10443Y11165D01*
X-11004Y11896D01*
X-11735Y12457D01*
X-12586Y12810D01*
X-13500Y12930D01*
X-14414Y12810D01*
X-15265Y12457D01*
X-15996Y11896D01*
X-16557Y11165D01*
X-16910Y10314D01*
X-16916Y10268D01*
X-17808D01*
X-17808Y10268D01*
X-19276D01*
X-19052Y10312D01*
X-18442Y10721D01*
X-17898D01*
X-17953Y10998D01*
X-18092Y11205D01*
X-17953Y11412D01*
X-17799Y12189D01*
X-17953Y12966D01*
X-18092Y13173D01*
X-17953Y13380D01*
X-17799Y14157D01*
X-17953Y14935D01*
X-18092Y15142D01*
X-17953Y15349D01*
X-17799Y16126D01*
X-17953Y16903D01*
X-18092Y17110D01*
X-17953Y17317D01*
X-17799Y18094D01*
X-17953Y18872D01*
X-18092Y19079D01*
X-17953Y19286D01*
X-17799Y20063D01*
X-17953Y20840D01*
X-18092Y21047D01*
X-17953Y21254D01*
X-17799Y22031D01*
X-17953Y22809D01*
X-18092Y23016D01*
X-17953Y23223D01*
X-17799Y24000D01*
X-17838Y24196D01*
Y28748D01*
X-19661D01*
Y31400D01*
X-19816Y32180D01*
X-20258Y32842D01*
X-23361Y35945D01*
Y38552D01*
X-23045Y39024D01*
X-22851Y40000D01*
X-23045Y40975D01*
X-23598Y41802D01*
X-24424Y42355D01*
X-25400Y42549D01*
X-26375Y42355D01*
X-27202Y41802D01*
X-27684Y41081D01*
X-28163Y41226D01*
Y43122D01*
X-26927D01*
Y43241D01*
X-26540Y43558D01*
X-26000Y43451D01*
X-25025Y43645D01*
X-24198Y44198D01*
X-23645Y45024D01*
X-23451Y46000D01*
X-23645Y46975D01*
X-24198Y47802D01*
X-25025Y48355D01*
X-26000Y48549D01*
X-26540Y48441D01*
X-26927Y48759D01*
Y48878D01*
D01*
Y48878D01*
X-26927Y48878D01*
Y49028D01*
X-26927D01*
Y54783D01*
X-28061D01*
Y55500D01*
X-28061Y55500D01*
X-28061Y55500D01*
Y55500D01*
X-28061D01*
X-28061Y55500D01*
X-28216Y56280D01*
X-28658Y56942D01*
X-33461Y61745D01*
Y66194D01*
X-33012Y66415D01*
X-32746Y66211D01*
X-31662Y65762D01*
X-30500Y65609D01*
X-29338Y65762D01*
X-28254Y66211D01*
X-27586Y66724D01*
X-27137Y66502D01*
D02*
G37*
G36*
X-37539Y66194D02*
Y60900D01*
X-37539Y60900D01*
X-37539D01*
X-37384Y60120D01*
X-36942Y59458D01*
X-32729Y55245D01*
X-32921Y54783D01*
X-33039D01*
X-33039Y54783D01*
Y54783D01*
X-33273Y54783D01*
X-33273D01*
X-33392Y54815D01*
X-33627Y54815D01*
X-33627Y54815D01*
Y54815D01*
X-36065D01*
Y51936D01*
X-36564D01*
Y51437D01*
X-39739D01*
Y49263D01*
X-39739Y49263D01*
X-39739D01*
X-39739Y49059D01*
Y48909D01*
D01*
D01*
X-39739D01*
Y43154D01*
X-33392D01*
Y43154D01*
X-33305D01*
X-33273Y43122D01*
Y43122D01*
X-32037D01*
Y42700D01*
Y29091D01*
X-32037Y29091D01*
X-32037D01*
X-31890Y28350D01*
X-31470Y27721D01*
X-31448Y27699D01*
X-31639Y27237D01*
X-40998D01*
X-43363Y29602D01*
Y66119D01*
X-42914Y66340D01*
X-42746Y66211D01*
X-41662Y65762D01*
X-40500Y65609D01*
X-39338Y65762D01*
X-38254Y66211D01*
X-37988Y66415D01*
X-37539Y66194D01*
D02*
G37*
G36*
X-18373Y-14878D02*
X-18373Y-14878D01*
X-18373Y-15028D01*
X-18373D01*
Y-17405D01*
X-15199D01*
Y-17905D01*
X-14700D01*
Y-20784D01*
X-15276D01*
X-15085Y-21245D01*
X-15502Y-21663D01*
X-33100D01*
X-33841Y-21810D01*
X-34470Y-22230D01*
X-40068Y-27828D01*
X-40500Y-27771D01*
X-41662Y-27924D01*
X-42445Y-28248D01*
X-42861Y-27970D01*
Y-20245D01*
X-36655Y-14039D01*
X-18373D01*
Y-14878D01*
D02*
G37*
G36*
X324Y89024D02*
X1254Y88310D01*
X1915Y88037D01*
Y74369D01*
X1500Y74091D01*
X662Y74438D01*
X-500Y74591D01*
X-1662Y74438D01*
X-2746Y73989D01*
X-3676Y73276D01*
X-3737Y73197D01*
X-4210Y73357D01*
Y80150D01*
X-3862Y80498D01*
X-3125Y80645D01*
X-2298Y81198D01*
X-1745Y82025D01*
X-1551Y83000D01*
X-1745Y83975D01*
X-2298Y84802D01*
X-3125Y85355D01*
X-3339Y85398D01*
X-3484Y85876D01*
X-330Y89030D01*
X-266Y89126D01*
X234Y89142D01*
X324Y89024D01*
D02*
G37*
G36*
X65661Y61594D02*
Y42880D01*
X63935Y41154D01*
X63473Y41345D01*
Y45274D01*
X63473Y45274D01*
D01*
D01*
X63473Y45478D01*
Y45494D01*
Y45553D01*
X63473Y45628D01*
X63473Y45832D01*
X63473Y45832D01*
X63473D01*
Y48006D01*
X57127D01*
Y45979D01*
X57127Y45979D01*
X57127D01*
X57127Y45628D01*
X57125Y45626D01*
X56573D01*
Y47900D01*
X53399D01*
Y48399D01*
X52900D01*
Y51278D01*
X50227D01*
Y50990D01*
X49729Y50941D01*
X49727Y50950D01*
X49178Y51771D01*
X48827Y52006D01*
X48741Y52118D01*
Y55268D01*
X49220Y55413D01*
X49698Y54698D01*
X50524Y54145D01*
X51500Y53951D01*
X52476Y54145D01*
X53302Y54698D01*
X53855Y55524D01*
X54049Y56500D01*
X53855Y57476D01*
X53437Y58101D01*
Y64927D01*
X54372D01*
Y64927D01*
X54522D01*
X54726Y64927D01*
X54726Y64927D01*
Y64927D01*
X60278D01*
Y66295D01*
X60687Y66568D01*
X65661Y61594D01*
D02*
G37*
G36*
X-9124Y96236D02*
X-9006Y95889D01*
X-9676Y95376D01*
X-10390Y94446D01*
X-10838Y93362D01*
X-10991Y92200D01*
X-10838Y91038D01*
X-10710Y90729D01*
X-26570Y74870D01*
X-26990Y74241D01*
X-27108Y73645D01*
X-27494Y73500D01*
X-27617D01*
X-28254Y73989D01*
X-29338Y74438D01*
X-30500Y74591D01*
X-31662Y74438D01*
X-32746Y73989D01*
X-33012Y73785D01*
X-33461Y74006D01*
Y74852D01*
X-33145Y75324D01*
X-32951Y76300D01*
X-33145Y77276D01*
X-33698Y78102D01*
X-34525Y78655D01*
X-35500Y78849D01*
X-36476Y78655D01*
X-37302Y78102D01*
X-37855Y77276D01*
X-38049Y76300D01*
X-37855Y75324D01*
X-37539Y74852D01*
Y74006D01*
X-37988Y73785D01*
X-38254Y73989D01*
X-39338Y74438D01*
X-40500Y74591D01*
X-41662Y74438D01*
X-42746Y73989D01*
X-42914Y73860D01*
X-43363Y74081D01*
Y76898D01*
X-39698Y80563D01*
X-28000D01*
X-27259Y80710D01*
X-26630Y81130D01*
X-20130Y87630D01*
X-19710Y88259D01*
X-19666Y88481D01*
X-19198Y88658D01*
X-18746Y88310D01*
X-17662Y87862D01*
X-16500Y87709D01*
X-15338Y87862D01*
X-14254Y88310D01*
X-13324Y89024D01*
X-12610Y89954D01*
X-12162Y91038D01*
X-12009Y92200D01*
X-12162Y93362D01*
X-12290Y93671D01*
X-9611Y96349D01*
X-9124Y96236D01*
D02*
G37*
G36*
X16563Y32698D02*
Y28835D01*
X16140Y28610D01*
X15210Y28795D01*
X12257D01*
X11326Y28610D01*
X10537Y28082D01*
X10009Y27293D01*
X9824Y26362D01*
X10009Y25431D01*
X10216Y25121D01*
X9986Y24777D01*
X9832Y24000D01*
X9986Y23223D01*
X10125Y23016D01*
X9986Y22809D01*
X9832Y22031D01*
X9986Y21254D01*
X10125Y21047D01*
X9986Y20840D01*
X9832Y20063D01*
X9986Y19286D01*
X10125Y19079D01*
X9986Y18872D01*
X9832Y18094D01*
X9986Y17317D01*
X10125Y17110D01*
X9986Y16903D01*
X9832Y16126D01*
X9986Y15349D01*
X10125Y15142D01*
X9986Y14935D01*
X9832Y14157D01*
X9986Y13380D01*
X10125Y13173D01*
X9986Y12966D01*
X9832Y12189D01*
X9986Y11412D01*
X10125Y11205D01*
X9986Y10998D01*
X9832Y10221D01*
X9986Y9443D01*
X10125Y9236D01*
X9986Y9029D01*
X9832Y8252D01*
X9986Y7475D01*
X10125Y7268D01*
X9986Y7061D01*
X9832Y6283D01*
X9986Y5506D01*
X10216Y5162D01*
X10009Y4852D01*
X9901Y4307D01*
X9678Y4239D01*
X9276Y4537D01*
Y30139D01*
X9484Y30451D01*
X9669Y31382D01*
Y34335D01*
X9661Y34376D01*
X9979Y34763D01*
X14498D01*
X16563Y32698D01*
D02*
G37*
G36*
X-49037Y65970D02*
Y26400D01*
X-49037Y26400D01*
X-49037D01*
X-48890Y25659D01*
X-48470Y25030D01*
X-45292Y21852D01*
X-44663Y21432D01*
X-43922Y21284D01*
X-32488D01*
X-32170Y20898D01*
X-32292Y20288D01*
X-32500Y20149D01*
X-32500Y20149D01*
Y20149D01*
X-33476Y19955D01*
X-34302Y19402D01*
X-34855Y18575D01*
X-35049Y17600D01*
X-35100Y17537D01*
X-35699D01*
X-36325Y17955D01*
X-37300Y18149D01*
X-38276Y17955D01*
X-39102Y17402D01*
X-39655Y16576D01*
X-39849Y15600D01*
X-39734Y15022D01*
X-40576Y14855D01*
X-41402Y14302D01*
X-41955Y13476D01*
X-42149Y12500D01*
X-42321Y12290D01*
X-42232D01*
Y9608D01*
X-43231D01*
Y12290D01*
X-44751D01*
Y14000D01*
X-44945Y14976D01*
X-45498Y15802D01*
X-47198Y17502D01*
X-48024Y18055D01*
X-49000Y18249D01*
X-60992D01*
X-61309Y18635D01*
X-61151Y19432D01*
Y55689D01*
X-60735Y55967D01*
X-60423Y55838D01*
X-59640Y55734D01*
X-58857Y55838D01*
X-58127Y56140D01*
X-57500Y56621D01*
X-57019Y57247D01*
X-56717Y57977D01*
X-56614Y58760D01*
X-56647Y59013D01*
X-49499Y66161D01*
X-49037Y65970D01*
D02*
G37*
G36*
X-51037Y77505D02*
Y70102D01*
X-59387Y61753D01*
X-59640Y61786D01*
X-60423Y61683D01*
X-60735Y61554D01*
X-61151Y61831D01*
Y68044D01*
X-51499Y77696D01*
X-51037Y77505D01*
D02*
G37*
G36*
X-3676Y66924D02*
X-2746Y66211D01*
X-1662Y65762D01*
X-500Y65609D01*
X662Y65762D01*
X1746Y66211D01*
X1928Y66351D01*
X2422Y66269D01*
X2483Y66177D01*
X5163Y63498D01*
Y54783D01*
X4353D01*
Y51904D01*
X3854D01*
Y51406D01*
X679D01*
Y51164D01*
X238Y50928D01*
X-55Y51124D01*
X-1031Y51318D01*
X-1475Y51230D01*
X-1861Y51547D01*
Y51400D01*
X-5036D01*
Y51899D01*
X-5535D01*
Y54778D01*
X-7761D01*
Y54783D01*
X-8794D01*
Y55879D01*
X-6413Y58259D01*
X-2795D01*
X-2475Y58045D01*
X-1500Y57851D01*
X-525Y58045D01*
X302Y58598D01*
X855Y59425D01*
X1049Y60400D01*
X855Y61375D01*
X302Y62202D01*
X-525Y62755D01*
X-1500Y62949D01*
X-2475Y62755D01*
X-2795Y62541D01*
X-6066D01*
X-6257Y63003D01*
X-4777Y64483D01*
X-4358Y65111D01*
X-4210Y65853D01*
Y66843D01*
X-3737Y67004D01*
X-3676Y66924D01*
D02*
G37*
%LPC*%
G36*
X59800Y51384D02*
X57127D01*
Y49005D01*
X59800D01*
Y51384D01*
D02*
G37*
G36*
X56573Y51278D02*
X53900D01*
Y48900D01*
X56573D01*
Y51278D01*
D02*
G37*
G36*
X-15700Y-18406D02*
X-18373D01*
Y-20784D01*
X-15700D01*
Y-18406D01*
D02*
G37*
G36*
X63473Y51384D02*
X60800D01*
Y49005D01*
X63473D01*
Y51384D01*
D02*
G37*
G36*
X-37065Y54815D02*
X-39739D01*
Y52437D01*
X-37065D01*
Y54815D01*
D02*
G37*
G36*
X3353Y54783D02*
X679D01*
Y52406D01*
X3353D01*
Y54783D01*
D02*
G37*
G36*
X-1861Y54778D02*
X-4535D01*
Y52400D01*
X-1861D01*
Y54778D01*
D02*
G37*
%LPD*%
D10*
X-65332Y1635D02*
D03*
X-75174Y5572D02*
D03*
X-65332Y9509D02*
D03*
X-42731Y1735D02*
D03*
X-52574Y5672D02*
D03*
X-42731Y9609D02*
D03*
X42100Y-53400D02*
D03*
X32258Y-49463D02*
D03*
X42100Y-45526D02*
D03*
X-52300Y-42700D02*
D03*
X-62142Y-38763D02*
D03*
X-52300Y-34826D02*
D03*
D11*
X46600Y-12000D02*
D03*
Y-17906D02*
D03*
X-35531Y7635D02*
D03*
Y1729D02*
D03*
X-5035Y51900D02*
D03*
Y45994D02*
D03*
X-10935Y46000D02*
D03*
Y51906D02*
D03*
X-91600Y-33700D02*
D03*
Y-39606D02*
D03*
X-29300Y-8705D02*
D03*
Y-2800D02*
D03*
X3853Y51906D02*
D03*
Y46000D02*
D03*
X-36565Y51937D02*
D03*
Y46031D02*
D03*
X-30100Y46000D02*
D03*
Y51906D02*
D03*
X20500Y42494D02*
D03*
Y48400D02*
D03*
X27300Y48406D02*
D03*
Y42500D02*
D03*
X53400Y42494D02*
D03*
Y48400D02*
D03*
X60300Y48505D02*
D03*
Y42600D02*
D03*
X79700Y-17900D02*
D03*
Y-11994D02*
D03*
X-15200Y-17906D02*
D03*
Y-12000D02*
D03*
X-58732Y7635D02*
D03*
Y1729D02*
D03*
D12*
X52600Y-17868D02*
D03*
X56537Y-8026D02*
D03*
X60474Y-17868D02*
D03*
X66000Y-18000D02*
D03*
X69937Y-8157D02*
D03*
X73874Y-18000D02*
D03*
X-32100Y-71900D02*
D03*
X-36037Y-81743D02*
D03*
X-39974Y-71900D02*
D03*
X18700Y-60200D02*
D03*
X22637Y-50358D02*
D03*
X26574Y-60200D02*
D03*
X51500Y74300D02*
D03*
X55437Y84143D02*
D03*
X59374Y74300D02*
D03*
D13*
X57600Y22748D02*
D03*
Y7000D02*
D03*
X40800Y7095D02*
D03*
Y22842D02*
D03*
D14*
X5006Y-69000D02*
D03*
X-900D02*
D03*
X-800Y-76100D02*
D03*
X5105D02*
D03*
X42100Y-39700D02*
D03*
X36195D02*
D03*
X-78594Y-17800D02*
D03*
X-84500D02*
D03*
X-60300Y-21700D02*
D03*
X-54395D02*
D03*
X-60300Y-28300D02*
D03*
X-54395D02*
D03*
X57400Y68100D02*
D03*
X51494D02*
D03*
X18700Y-66100D02*
D03*
X24606D02*
D03*
X-14500Y-66900D02*
D03*
X-20405D02*
D03*
X-34100Y-66100D02*
D03*
X-40005D02*
D03*
X-52400Y-49200D02*
D03*
X-58306D02*
D03*
D15*
X-74400Y-25262D02*
D03*
X-84400D02*
D03*
X-69400D02*
D03*
X-74400Y-47900D02*
D03*
X-69400D02*
D03*
X-79400Y-25262D02*
D03*
Y-47900D02*
D03*
D16*
X-84400D02*
D03*
D17*
X34789Y49980D02*
D03*
X46600Y46240D02*
D03*
Y49980D02*
D03*
D18*
Y42500D02*
D03*
D19*
X34789D02*
D03*
D20*
X7218Y-56700D02*
D03*
X7218Y-52763D02*
D03*
Y-60637D02*
D03*
X-3018D02*
D03*
Y-56700D02*
D03*
Y-52763D02*
D03*
D21*
X-8905Y-2575D02*
D03*
X-1031D02*
D03*
X-6936D02*
D03*
X-2999D02*
D03*
X-4968D02*
D03*
X2906D02*
D03*
X-2999Y32858D02*
D03*
X4875D02*
D03*
X-10873Y-2575D02*
D03*
X938D02*
D03*
X2906Y32858D02*
D03*
X938D02*
D03*
X-1031D02*
D03*
X-4968D02*
D03*
X-6936D02*
D03*
X-8905D02*
D03*
X-10873D02*
D03*
X-12842D02*
D03*
Y-2575D02*
D03*
X4875D02*
D03*
D22*
X-21700Y8252D02*
D03*
Y18094D02*
D03*
Y12189D02*
D03*
Y6283D02*
D03*
Y16126D02*
D03*
Y22031D02*
D03*
X13733Y14157D02*
D03*
Y10221D02*
D03*
Y8252D02*
D03*
X-21700Y24000D02*
D03*
X13733D02*
D03*
X-21700Y14157D02*
D03*
Y20063D02*
D03*
X13733Y6283D02*
D03*
Y16126D02*
D03*
Y20063D02*
D03*
Y18094D02*
D03*
Y12189D02*
D03*
X13733Y22031D02*
D03*
X-21700Y10221D02*
D03*
D23*
Y3921D02*
D03*
X13733D02*
D03*
Y26362D02*
D03*
D24*
X-15204Y-2575D02*
D03*
X7237Y32858D02*
D03*
X-15204D02*
D03*
X7237Y-2575D02*
D03*
D25*
X-21700Y26362D02*
D03*
D26*
X42100Y-45526D02*
X46374D01*
X34242Y22842D02*
X40800D01*
X30650Y19250D02*
X34242Y22842D01*
X30650Y-13250D02*
Y19250D01*
Y-13250D02*
X48770Y-31370D01*
X46374Y-45526D02*
X48770Y-43130D01*
Y-31370D01*
X73974Y-17900D02*
X79700D01*
X69937Y-8157D02*
Y-963D01*
X40800Y7095D02*
X57506D01*
X57600Y7000D01*
X70200Y41000D02*
Y63474D01*
X58800Y33900D02*
X63100D01*
X70200Y41000D01*
X57600Y22748D02*
Y32700D01*
X62387Y71287D02*
X70200Y63474D01*
X59374Y74300D02*
X62387Y71287D01*
X53600Y-77758D02*
X54250Y-78407D01*
X32258Y-56415D02*
X53600Y-77758D01*
X32258Y-56415D02*
Y-54357D01*
Y-49463D01*
X79700Y-17900D02*
X84042D01*
X94249Y-28107D01*
D27*
X42100Y-45526D02*
Y-39700D01*
X22637Y-50358D02*
Y-42963D01*
X25900Y-39700D01*
X36195D01*
Y-45994D02*
Y-39700D01*
Y-45994D02*
X42100Y-51900D01*
Y-53400D02*
Y-51900D01*
X18700Y-66100D02*
Y-60200D01*
Y-57200D01*
X21542Y-54357D01*
X51306Y-17906D02*
X51400Y-18000D01*
X60474Y-17868D02*
X65869D01*
X66000Y-18000D01*
X73405Y-11994D02*
X79700D01*
X67400Y-18000D02*
X73405Y-11994D01*
X66000Y-18000D02*
X67400D01*
X7237Y-23237D02*
Y-2575D01*
Y-23237D02*
X9500Y-25500D01*
Y-32262D02*
Y-25500D01*
X-15204Y-11996D02*
Y-2575D01*
Y-11996D02*
X-15200Y-12000D01*
X-30100Y51906D02*
Y55500D01*
X-35500Y60900D02*
X-30100Y55500D01*
X-35500Y60900D02*
Y76300D01*
X-21700Y26362D02*
Y31400D01*
X-25400Y35100D02*
X-21700Y31400D01*
X-25400Y35100D02*
Y40000D01*
X-37500Y-12000D02*
X-15200D01*
X-44900Y-19400D02*
X-37500Y-12000D01*
X-44953Y-36947D02*
X-40900Y-41000D01*
X-26900D01*
X-20405Y-47495D01*
Y-66900D02*
Y-47495D01*
X-44953Y-28288D02*
X-44900Y-28236D01*
Y-19400D01*
X-44953Y-36947D02*
Y-28288D01*
X7218Y-60637D02*
Y-56700D01*
X7218Y-60637D02*
X7218Y-60637D01*
X-3018Y-63982D02*
Y-60637D01*
Y-63982D02*
X-800Y-66200D01*
Y-76100D02*
Y-66200D01*
X5105Y-80594D02*
Y-76100D01*
X-100Y-85800D02*
X5105Y-80594D01*
X-23203Y-66900D02*
X-20405D01*
X-3018Y-52763D02*
Y-48018D01*
X100Y-44900D01*
X10800D01*
X14500Y-41200D01*
Y-26700D01*
X10800Y-23000D02*
X14500Y-26700D01*
X10800Y-23000D02*
Y-100D01*
X7237Y3463D02*
X10800Y-100D01*
X7237Y3463D02*
Y32858D01*
X46600Y-17906D02*
X51306D01*
X10837Y-60637D02*
X11700Y-61500D01*
Y-66900D02*
Y-63800D01*
Y-61500D01*
X7218Y-60637D02*
X10837D01*
X3853Y42853D02*
Y46000D01*
X2906Y41906D02*
X3853Y42853D01*
X2906Y32858D02*
Y38800D01*
Y41906D01*
Y38800D02*
X4500D01*
X4600Y38700D01*
X938Y28738D02*
Y32858D01*
X-900Y26900D02*
X938Y28738D01*
X-100Y-97500D02*
Y-85800D01*
Y-97500D02*
X0Y-97600D01*
X21542Y-54357D02*
X32258D01*
X-21700Y8228D02*
X-14672D01*
X118110Y0D02*
G03*
X118110Y0I-118110J0D01*
G01*
X-67500Y59055D02*
G03*
X-67500Y59055I-7874J0D01*
G01*
X83000Y-59055D02*
G03*
X83000Y-59055I-7874J0D01*
G01*
D28*
X4875Y-19425D02*
Y-2575D01*
X-500Y-24800D02*
X4875Y-19425D01*
X-500Y-32262D02*
Y-24800D01*
X2906Y-14294D02*
Y-2575D01*
X-10500Y-27700D02*
X2906Y-14294D01*
X-10500Y-32262D02*
Y-27700D01*
X-1031Y-15331D02*
Y-2575D01*
X-30500Y-32262D02*
X-23638Y-25400D01*
X-20500Y-28200D02*
X-19600Y-27300D01*
X-13000D02*
X-1031Y-15331D01*
X-20500Y-32262D02*
Y-28200D01*
X-19600Y-27300D02*
X-13000D01*
X-2999Y-14754D02*
Y-2575D01*
X-13646Y-25400D02*
X-2999Y-14754D01*
X-23638Y-25400D02*
X-13646D01*
X-4968Y-13868D02*
Y-2575D01*
X-14700Y-23600D02*
X-4968Y-13868D01*
X-33100Y-23600D02*
X-14700D01*
X-40500Y-31000D02*
X-33100Y-23600D01*
X-40500Y-32262D02*
Y-31000D01*
X13733Y-16633D02*
Y3921D01*
Y-16633D02*
X19500Y-22400D01*
Y-32262D02*
Y-22400D01*
X13733Y6283D02*
X16317D01*
X17700Y4900D01*
Y-15500D02*
Y4900D01*
Y-15500D02*
X29500Y-27300D01*
Y-32262D02*
Y-27300D01*
X13733Y8252D02*
X13810Y8175D01*
X16970D01*
X20000Y5146D01*
Y-12300D02*
Y5146D01*
X39500Y-32262D02*
Y-31800D01*
X20000Y-12300D02*
X39500Y-31800D01*
X-6936Y-10336D02*
Y-2575D01*
X-8000Y-11400D02*
X-6936Y-10336D01*
X-11400Y-6900D02*
Y-6800D01*
X-10743Y-9900D02*
X-10157D01*
X-10743D02*
X-8905Y-8062D01*
Y-2575D01*
X-10873Y-6273D02*
Y-2575D01*
X-11400Y-6800D02*
X-10873Y-6273D01*
X-12842Y-2575D02*
Y1842D01*
X-10935Y46000D02*
X-5040D01*
X-5035Y45994D01*
Y32925D02*
Y45994D01*
Y32925D02*
X-4968Y32858D01*
X-15204D02*
X-15200Y32862D01*
X-16500Y92200D02*
X-10400Y98300D01*
X-3900D01*
X-1700Y96100D01*
X-25200Y73500D02*
X-6500Y92200D01*
X-1700Y90400D02*
Y96100D01*
X-12842Y32858D02*
Y38042D01*
X-15800Y76300D02*
X-1700Y90400D01*
X-15204Y32858D02*
Y36104D01*
X-39600Y12500D02*
X-39365Y12265D01*
X-21776D01*
X-21700Y12189D01*
X-34900Y15600D02*
X-33457Y14157D01*
X-37300Y15600D02*
X-34900D01*
X-33457Y14157D02*
X-21700D01*
X-26163Y20063D02*
X-21700D01*
X-36500Y92200D02*
X-32214Y96486D01*
X-21500Y89000D02*
Y94000D01*
X-24053Y96553D02*
X-21500Y94000D01*
X-32127Y96553D02*
X-24053D01*
X-32214Y96486D02*
X-32193D01*
X-32127Y96553D01*
X-25586Y22031D02*
X-21700D01*
X-36534Y46000D02*
X-30100D01*
X-36565Y46031D02*
X-36534Y46000D01*
X-29800Y20000D02*
X-27894Y18094D01*
X-21700D01*
X-32500Y17600D02*
X-31026Y16126D01*
X-21700D01*
X-30100Y42700D02*
Y46000D01*
X-47100Y26400D02*
X-43922Y23222D01*
X-29322D02*
X-26163Y20063D01*
X-43922Y23222D02*
X-29322D01*
X-47100Y78800D02*
X-41600Y84300D01*
X-29200D02*
X-26500Y87000D01*
Y92200D01*
X-47100Y26400D02*
Y78800D01*
X-41600Y84300D02*
X-29200D01*
X-28000Y82500D02*
X-21500Y89000D01*
X-45300Y77700D02*
X-40500Y82500D01*
X-45300Y28800D02*
Y77700D01*
Y28800D02*
X-41800Y25300D01*
X-28854D02*
X-25586Y22031D01*
X-41800Y25300D02*
X-28854D01*
X-40500Y82500D02*
X-28000D01*
X-30100Y29091D02*
Y46000D01*
Y29091D02*
X-25009Y24000D01*
X-21700D01*
X9500Y39700D02*
Y70100D01*
X1000Y-2513D02*
Y3400D01*
X938Y-2575D02*
X1000Y-2513D01*
X3500Y92200D02*
X3853Y91847D01*
X13657Y22108D02*
X13733Y22031D01*
X13500Y92200D02*
X13853Y91847D01*
X13733Y20063D02*
X19100D01*
X20900Y21863D01*
X16931Y22031D02*
X18500Y23600D01*
X13733Y22031D02*
X16931D01*
X51500Y56500D02*
Y74300D01*
X13733Y14157D02*
X18657D01*
X18700Y14200D01*
X4875Y27775D02*
Y32858D01*
X100Y23000D02*
X4875Y27775D01*
X-7400Y23000D02*
X100D01*
X-29200Y3300D02*
Y7200D01*
X-30771Y1729D02*
X-29200Y3300D01*
X-35531Y1729D02*
X-30771D01*
X-65332Y1635D02*
X-58826D01*
X-58732Y1729D01*
X-52929D01*
X-52200Y1000D01*
Y-3400D02*
Y1000D01*
X13733Y16126D02*
X16826D01*
X18000Y17300D01*
X21600D01*
X-52574Y5672D02*
X-49700Y2798D01*
X-25200Y66100D02*
Y73500D01*
X-30100Y46000D02*
X-26000D01*
X13853Y42500D02*
Y91847D01*
Y42500D02*
X20900Y35453D01*
Y21863D02*
Y35453D01*
X15300Y36700D02*
X18500Y33500D01*
Y23600D02*
Y33500D01*
X-1031Y32858D02*
Y48769D01*
X-49100Y69300D02*
Y85900D01*
X-6147Y80953D02*
X-4100Y83000D01*
X-20100Y41000D02*
Y61000D01*
Y41000D02*
X-15204Y36104D01*
X-25200Y66100D02*
X-20100Y61000D01*
X-15800Y63500D02*
Y76300D01*
X-18300Y43500D02*
Y61000D01*
X-15800Y63500D01*
X-18300Y43500D02*
X-12842Y38042D01*
X-16400Y45700D02*
Y55600D01*
Y45700D02*
X-10873Y40173D01*
Y32858D02*
Y40173D01*
X-16400Y55600D02*
X-6147Y65853D01*
Y80953D01*
X-52100Y-15700D02*
X-49700Y-13300D01*
X-62800Y-15700D02*
X-52100D01*
X-49700Y-13300D02*
Y2798D01*
X-37035Y7635D02*
X-35531D01*
X-39009Y9609D02*
X-37035Y7635D01*
X-42731Y9609D02*
X-39009D01*
X-27355Y10221D02*
X-21700D01*
X-29579D02*
X-21700D01*
X-32165Y7635D02*
X-29579Y10221D01*
X-35531Y7635D02*
X-32165D01*
X8300Y36700D02*
X15300D01*
X7100Y37900D02*
X8300Y36700D01*
X3853Y67547D02*
Y91847D01*
Y67547D02*
X7100Y64300D01*
X-59640Y58760D02*
X-49100Y69300D01*
X7100Y37900D02*
Y39600D01*
Y64300D01*
D29*
X23500Y87800D02*
Y92200D01*
Y87800D02*
X28252Y83048D01*
X54342D01*
D30*
X41600Y47200D02*
X44380Y49980D01*
X46600D01*
Y42500D02*
X46700Y42600D01*
X-21700Y3921D02*
X-18979D01*
X-16617Y6283D01*
X-14672Y8228D01*
X46700Y42600D02*
X60300D01*
X58800Y33900D02*
Y41100D01*
X60300Y42600D01*
X44000Y42500D02*
X46600D01*
X41600Y44900D02*
X44000Y42500D01*
X41600Y44900D02*
Y47200D01*
X24100Y42494D02*
X24105Y42500D01*
X27300D02*
X34789D01*
X20500Y42494D02*
X24100D01*
D31*
X-19125Y-2575D02*
X-15204D01*
X-21700Y6283D02*
X-16617D01*
X-42731Y1735D02*
X-35537D01*
X-35531Y1729D01*
X-21700Y0D02*
X-19125Y-2575D01*
D32*
X-47300Y-700D02*
Y14000D01*
X-49000Y15700D02*
X-47300Y14000D01*
X-21700Y0D02*
Y3921D01*
X-58732Y7635D02*
Y15431D01*
X-65332Y15700D02*
X-49000D01*
X-91600Y-44054D02*
Y-39606D01*
Y-44054D02*
X-87754Y-47900D01*
X-84400D01*
X-79400D02*
Y-43000D01*
X-74400Y-47900D02*
Y-44200D01*
X-73005Y-42805D01*
X-79400Y-50600D02*
Y-47900D01*
Y-50600D02*
X-76100Y-53900D01*
X-69900D01*
X-56000Y-67800D01*
X-62142Y-42643D02*
Y-38763D01*
X-52300Y-49100D02*
Y-42700D01*
Y-34826D02*
Y-32600D01*
X-50900Y-31200D01*
Y-23400D01*
X-52600Y-21700D02*
X-50900Y-23400D01*
X-54395Y-21700D02*
X-52600D01*
X-56269Y-30174D02*
X-54395Y-28300D01*
X-56269Y-41131D02*
X-54700Y-42700D01*
X-52300D01*
X-56269Y-41131D02*
Y-30174D01*
X-60300Y-28300D02*
Y-21700D01*
Y-30500D02*
Y-28300D01*
X-62600Y-32800D02*
X-60300Y-30500D01*
X-81900Y-32800D02*
X-62600D01*
X-84400Y-30300D02*
X-81900Y-32800D01*
X-84400Y-30300D02*
Y-25262D01*
X-84500Y-25162D02*
Y-17800D01*
Y-25162D02*
X-84400Y-25262D01*
X-40005Y-71868D02*
Y-66100D01*
Y-71868D02*
X-39974Y-71900D01*
X-44500Y-57200D02*
X-35700D01*
X-34100Y-58800D01*
Y-66100D02*
Y-58800D01*
X-32100Y-71900D02*
Y-68100D01*
X-34100Y-66100D02*
X-32100Y-68100D01*
X-14500Y-66900D02*
Y-57200D01*
X-43800Y-66100D02*
X-40005D01*
X57800Y-57100D02*
Y-25200D01*
Y-57100D02*
X60007Y-59307D01*
X-91600Y-39606D02*
X-85706D01*
X-29300Y-2800D02*
X-23300D01*
X-21700Y-1200D01*
X-47300Y-700D02*
X-45200Y-2800D01*
X-29300D01*
X46600Y46240D02*
X48540D01*
X50700Y48400D02*
X53400D01*
X48540Y46240D02*
X50700Y48400D01*
X-43663Y-99174D02*
X-36037Y-91548D01*
Y-81743D01*
X-63700Y69100D02*
X-52800Y80000D01*
X-65332Y9509D02*
Y14168D01*
Y17800D01*
X-63700Y19432D01*
Y69100D01*
X-79128Y5572D02*
X-75174D01*
X-84500Y-17800D02*
Y200D01*
X-79128Y5572D01*
D33*
X-10935Y51906D02*
Y56765D01*
X-7300Y60400D01*
X-1500D01*
X16400Y62500D02*
X40200D01*
X46600Y56100D01*
Y49980D02*
Y56100D01*
X57400Y68100D02*
X59200D01*
X62387Y71287D01*
D34*
X33500Y92200D02*
D03*
X23500D02*
D03*
X13500D02*
D03*
X3500D02*
D03*
X-6500D02*
D03*
X-16500D02*
D03*
X-26500D02*
D03*
X-44500Y-47200D02*
D03*
Y-57200D02*
D03*
X-14500Y-47200D02*
D03*
X-43663Y-99174D02*
D03*
X39500Y-32262D02*
D03*
X29500D02*
D03*
X19500D02*
D03*
X9500D02*
D03*
X-500D02*
D03*
X-10500D02*
D03*
X-20500D02*
D03*
X-30500D02*
D03*
X-40500D02*
D03*
Y70100D02*
D03*
X-30500D02*
D03*
X-20500D02*
D03*
X-10500D02*
D03*
X-500D02*
D03*
X9500D02*
D03*
X19500D02*
D03*
X29500D02*
D03*
X39500D02*
D03*
X84500Y31800D02*
D03*
Y41800D02*
D03*
Y51800D02*
D03*
X-67871Y-82029D02*
D03*
X-74942Y-74958D02*
D03*
X-82013Y-67887D02*
D03*
D35*
X-36500Y92200D02*
D03*
X-14500Y-57200D02*
D03*
D36*
X-34600Y-103400D02*
D03*
D37*
X0Y-97600D02*
D03*
X-15000Y-88500D02*
D03*
Y-108500D02*
D03*
X15000Y-88500D02*
D03*
Y-108500D02*
D03*
D38*
X86900Y-34900D02*
D03*
X46900Y-85200D02*
D03*
D39*
X94249Y-28107D02*
D03*
X54250Y-78407D02*
D03*
D40*
X84500Y21800D02*
D03*
D41*
X-60800Y-89100D02*
D03*
D42*
X70000Y-900D02*
D03*
X58800Y33900D02*
D03*
D43*
X49900Y-17900D02*
D03*
X-29800Y20000D02*
D03*
X-8000Y-11400D02*
D03*
X-11400Y-6900D02*
D03*
X-10743Y-9900D02*
D03*
X-12900Y1900D02*
D03*
X-39600Y12500D02*
D03*
X-37300Y15600D02*
D03*
X-32500Y17600D02*
D03*
X9500Y39700D02*
D03*
X1000Y3400D02*
D03*
X51500Y56500D02*
D03*
X-1031Y48769D02*
D03*
X18700Y14200D02*
D03*
X-7400Y23000D02*
D03*
X-29200Y7200D02*
D03*
X-52200Y-3400D02*
D03*
X21600Y17300D02*
D03*
X-62800Y-15700D02*
D03*
X-52800Y80000D02*
D03*
X-35500Y76300D02*
D03*
X-25400Y40000D02*
D03*
X-26000Y46000D02*
D03*
X-79400Y-43000D02*
D03*
X-73005Y-42805D02*
D03*
X-56000Y-67800D02*
D03*
X-62200Y-42700D02*
D03*
X11700Y-66900D02*
D03*
X-23252Y-66948D02*
D03*
X-43800Y-66100D02*
D03*
X-49100Y85900D02*
D03*
X-4100Y83000D02*
D03*
X-1500Y60400D02*
D03*
X16400Y62500D02*
D03*
X4600Y38700D02*
D03*
X-900Y26900D02*
D03*
X-41400Y62300D02*
D03*
X2300Y64100D02*
D03*
D44*
X24100Y42494D02*
D03*
X-13500Y9400D02*
D03*
D45*
X57800Y-25200D02*
D03*
X60007Y-59307D02*
D03*
X-85706Y-39606D02*
D03*
X-59640Y58760D02*
D03*
X23100Y58900D02*
D03*
X32200Y57100D02*
D03*
X24700Y35400D02*
D03*
X32700Y35500D02*
D03*
X41200Y36100D02*
D03*
X49400Y37100D02*
D03*
X26800Y28100D02*
D03*
X13700Y32300D02*
D03*
X-10300Y17600D02*
D03*
X-6400Y4500D02*
D03*
X24000Y8200D02*
D03*
X23800Y-5200D02*
D03*
X38600Y-2300D02*
D03*
X48600Y-2500D02*
D03*
X68300Y25700D02*
D03*
X68700Y17700D02*
D03*
X68600Y9500D02*
D03*
X79400Y10400D02*
D03*
X-9100Y-40700D02*
D03*
X3700Y-40000D02*
D03*
X19000Y-40200D02*
D03*
X13500Y-55200D02*
D03*
X31600Y-64900D02*
D03*
X-70000Y-5500D02*
D03*
X-61600Y-5300D02*
D03*
X-72100Y-15600D02*
D03*
X-62700Y-11100D02*
D03*
X-97600Y-14800D02*
D03*
X-51100Y28900D02*
D03*
X-51300Y38600D02*
D03*
X-51500Y55000D02*
D03*
X-71300Y40900D02*
D03*
X-71000Y30700D02*
D03*
X-70900Y21800D02*
D03*
X-85900Y41800D02*
D03*
X-87700Y50800D02*
D03*
X-67600Y68300D02*
D03*
X-29500Y78000D02*
D03*
X-1800Y79000D02*
D03*
X19500Y80800D02*
D03*
X30400Y76200D02*
D03*
X43100Y76600D02*
D03*
X45600Y64400D02*
D03*
X55700Y63700D02*
D03*
X21300Y-83100D02*
D03*
X23200Y-94700D02*
D03*
X25900Y-89000D02*
D03*
X-27400Y-86500D02*
D03*
X-24900Y-76700D02*
D03*
X-28200Y-67700D02*
D03*
X-53200Y-61200D02*
D03*
X-71300Y-37800D02*
D03*
X-40200Y-24600D02*
D03*
X-3000Y18600D02*
D03*
X-21000Y36100D02*
D03*
X-26100Y30300D02*
D03*
X-10000Y77300D02*
D03*
X-21900Y82700D02*
D03*
X9000Y83400D02*
D03*
X9100Y77500D02*
D03*
X49200Y15000D02*
D03*
X49300Y25100D02*
D03*
X48400Y31700D02*
D03*
X-7300Y-45900D02*
D03*
X12200Y-48100D02*
D03*
X-67000Y-19000D02*
D03*
X92600Y33900D02*
D03*
X92700Y23200D02*
D03*
X96300Y14600D02*
D03*
X-24100Y50400D02*
D03*
X-3400Y-39300D02*
D03*
X10000D02*
D03*
X-84300Y10900D02*
D03*
X-81500Y25000D02*
D03*
X-82100Y37400D02*
D03*
X-59700Y66100D02*
D03*
X-69300Y72200D02*
D03*
X42700Y-6600D02*
D03*
X32700Y29700D02*
D03*
X-48700Y-87500D02*
D03*
X-45500Y-77600D02*
D03*
X23300Y76300D02*
D03*
M02*
