G04*
G04 #@! TF.GenerationSoftware,Altium Limited,Altium Designer,23.10.1 (27)*
G04*
G04 Layer_Physical_Order=1*
G04 Layer_Color=255*
%FSLAX25Y25*%
%MOIN*%
G70*
G04*
G04 #@! TF.SameCoordinates,442CD837-0526-4CC3-B5C4-5EBA4434BA87*
G04*
G04*
G04 #@! TF.FilePolarity,Positive*
G04*
G01*
G75*
%ADD10C,0.01000*%
%ADD15R,0.05512X0.04331*%
%ADD16R,0.04000X0.03000*%
%ADD17R,0.02756X0.03347*%
%ADD18R,0.03000X0.04000*%
%ADD28C,0.01500*%
%ADD29C,0.00800*%
%ADD30C,0.06299*%
%ADD31C,0.06102*%
%ADD32O,0.06000X0.03000*%
%ADD33R,0.06000X0.03000*%
%ADD34C,0.08661*%
%ADD35C,0.02000*%
%ADD36C,0.03000*%
G36*
X60104Y-2285D02*
X59794Y-2750D01*
X59354Y-3811D01*
X59130Y-4938D01*
Y-6086D01*
X59354Y-7213D01*
X59794Y-8274D01*
X60026Y-8622D01*
X59790Y-9063D01*
X56998D01*
X56816Y-8881D01*
X55897Y-8500D01*
X54903D01*
X53984Y-8881D01*
X53281Y-9584D01*
X52900Y-10503D01*
Y-11463D01*
X27900D01*
X27159Y-11610D01*
X26530Y-12030D01*
X9614Y-28946D01*
X9194Y-29575D01*
X9047Y-30316D01*
Y-40086D01*
X8865Y-40268D01*
X8484Y-41187D01*
Y-42181D01*
X8632Y-42539D01*
X8249Y-42922D01*
X8197Y-42900D01*
X7203D01*
X6284Y-43281D01*
X5581Y-43984D01*
X5200Y-44903D01*
Y-45897D01*
X5581Y-46816D01*
X5943Y-47178D01*
X6016Y-47547D01*
X6436Y-48175D01*
X9963Y-51702D01*
Y-60398D01*
X9060Y-61300D01*
X8803D01*
X8154Y-61569D01*
X8121Y-61487D01*
X7640Y-60860D01*
X7165Y-60496D01*
X7114Y-59928D01*
X7302Y-59802D01*
X7855Y-58975D01*
X7949Y-58500D01*
X4000D01*
Y-57500D01*
X7949D01*
X7855Y-57025D01*
X7302Y-56198D01*
X7114Y-56072D01*
X7165Y-55504D01*
X7640Y-55140D01*
X8121Y-54513D01*
X8423Y-53783D01*
X8526Y-53000D01*
X8423Y-52217D01*
X8121Y-51487D01*
X7640Y-50860D01*
X7013Y-50380D01*
X6283Y-50077D01*
X5500Y-49974D01*
X2500D01*
X2124Y-50024D01*
X1748Y-49694D01*
Y-19340D01*
X1879Y-17346D01*
X2336Y-15047D01*
X3090Y-12827D01*
X4127Y-10724D01*
X5429Y-8775D01*
X6975Y-7012D01*
X8738Y-5466D01*
X10687Y-4164D01*
X12790Y-3127D01*
X15010Y-2373D01*
X17309Y-1916D01*
X19303Y-1785D01*
X35232D01*
X35362Y-2268D01*
X35206Y-2358D01*
X34358Y-3206D01*
X33759Y-4243D01*
X33449Y-5401D01*
Y-6599D01*
X33759Y-7757D01*
X34358Y-8794D01*
X35206Y-9642D01*
X36243Y-10241D01*
X37401Y-10551D01*
X38599D01*
X39757Y-10241D01*
X40795Y-9642D01*
X41642Y-8794D01*
X42241Y-7757D01*
X42551Y-6599D01*
Y-5401D01*
X42241Y-4243D01*
X41642Y-3206D01*
X40795Y-2358D01*
X40638Y-2268D01*
X40768Y-1785D01*
X47386D01*
X47472Y-2108D01*
X47486Y-2285D01*
X46758Y-3012D01*
X46225Y-3936D01*
X45949Y-4967D01*
Y-5000D01*
X50000D01*
X54051D01*
Y-4967D01*
X53775Y-3936D01*
X53242Y-3012D01*
X52514Y-2285D01*
X52528Y-2108D01*
X52614Y-1785D01*
X59837D01*
X60104Y-2285D01*
D02*
G37*
G36*
X109146Y-6300D02*
X109138Y-6224D01*
X109114Y-6156D01*
X109073Y-6096D01*
X109016Y-6044D01*
X108943Y-6000D01*
X108854Y-5964D01*
X108748Y-5936D01*
X108626Y-5916D01*
X108488Y-5904D01*
X108334Y-5900D01*
Y-5100D01*
X108488Y-5096D01*
X108626Y-5084D01*
X108748Y-5064D01*
X108854Y-5036D01*
X108943Y-5000D01*
X109016Y-4956D01*
X109073Y-4904D01*
X109114Y-4844D01*
X109138Y-4776D01*
X109146Y-4700D01*
Y-6300D01*
D02*
G37*
G36*
X81362Y-4776D02*
X81386Y-4844D01*
X81427Y-4904D01*
X81484Y-4956D01*
X81557Y-5000D01*
X81646Y-5036D01*
X81752Y-5064D01*
X81874Y-5084D01*
X82012Y-5096D01*
X82166Y-5100D01*
Y-5900D01*
X82012Y-5904D01*
X81874Y-5916D01*
X81752Y-5936D01*
X81646Y-5964D01*
X81557Y-6000D01*
X81484Y-6044D01*
X81427Y-6096D01*
X81386Y-6156D01*
X81362Y-6224D01*
X81354Y-6300D01*
Y-4700D01*
X81362Y-4776D01*
D02*
G37*
G36*
X116171Y-7161D02*
X116109Y-7116D01*
X116035Y-7093D01*
X115950D01*
X115854Y-7116D01*
X115747Y-7161D01*
X115628Y-7229D01*
X115498Y-7320D01*
X115356Y-7433D01*
X115040Y-7727D01*
X114474Y-7161D01*
X114632Y-6997D01*
X114881Y-6703D01*
X114972Y-6573D01*
X115040Y-6454D01*
X115085Y-6347D01*
X115107Y-6250D01*
Y-6166D01*
X115085Y-6092D01*
X115040Y-6030D01*
X116171Y-7161D01*
D02*
G37*
G36*
X103012Y-3694D02*
X103924Y-4475D01*
X104199Y-4666D01*
X104459Y-4822D01*
X104705Y-4944D01*
X104936Y-5031D01*
X105153Y-5083D01*
X105356Y-5100D01*
Y-5900D01*
X105153Y-5917D01*
X104936Y-5969D01*
X104705Y-6056D01*
X104459Y-6178D01*
X104199Y-6334D01*
X103924Y-6525D01*
X103635Y-6751D01*
X103012Y-7306D01*
X102679Y-7636D01*
Y-3364D01*
X103012Y-3694D01*
D02*
G37*
G36*
X86821Y-7636D02*
X86488Y-7306D01*
X85576Y-6525D01*
X85301Y-6334D01*
X85041Y-6178D01*
X84795Y-6056D01*
X84563Y-5969D01*
X84347Y-5917D01*
X84144Y-5900D01*
Y-5100D01*
X84347Y-5083D01*
X84563Y-5031D01*
X84795Y-4944D01*
X85041Y-4822D01*
X85301Y-4666D01*
X85576Y-4475D01*
X85865Y-4250D01*
X86488Y-3694D01*
X86821Y-3364D01*
Y-7636D01*
D02*
G37*
G36*
X75404Y-6091D02*
X75383Y-6164D01*
X75384Y-6248D01*
X75408Y-6344D01*
X75454Y-6451D01*
X75524Y-6570D01*
X75615Y-6701D01*
X75730Y-6842D01*
X76026Y-7161D01*
X75460Y-7727D01*
X75295Y-7567D01*
X75000Y-7316D01*
X74869Y-7224D01*
X74750Y-7155D01*
X74643Y-7109D01*
X74547Y-7085D01*
X74463Y-7084D01*
X74390Y-7105D01*
X74329Y-7149D01*
X75448Y-6030D01*
X75404Y-6091D01*
D02*
G37*
G36*
X93006Y-18126D02*
X93079Y-18248D01*
X93164Y-18355D01*
X93261Y-18448D01*
X93371Y-18527D01*
X93493Y-18591D01*
X93628Y-18641D01*
X93774Y-18677D01*
X93934Y-18698D01*
X94105Y-18705D01*
Y-19505D01*
X93934Y-19512D01*
X93774Y-19534D01*
X93628Y-19570D01*
X93493Y-19620D01*
X93371Y-19684D01*
X93261Y-19763D01*
X93164Y-19856D01*
X93079Y-19963D01*
X93006Y-20085D01*
X92946Y-20221D01*
Y-17990D01*
X93006Y-18126D01*
D02*
G37*
G36*
X51509Y-21881D02*
X51442Y-21948D01*
X51383Y-22029D01*
X51332Y-22124D01*
X51289Y-22233D01*
X51253Y-22356D01*
X51226Y-22494D01*
X51206Y-22645D01*
X51195Y-22811D01*
X51191Y-22991D01*
X50191D01*
X50186Y-22856D01*
X50172Y-22734D01*
X50150Y-22626D01*
X50118Y-22531D01*
X50077Y-22450D01*
X50026Y-22382D01*
X49967Y-22327D01*
X49898Y-22286D01*
X49821Y-22258D01*
X49734Y-22244D01*
X51583Y-21828D01*
X51509Y-21881D01*
D02*
G37*
G36*
X89160Y-13999D02*
X89011Y-14557D01*
X88205Y-14773D01*
X87145Y-15385D01*
X86279Y-16251D01*
X85667Y-17311D01*
X85350Y-18494D01*
Y-19718D01*
X85667Y-20900D01*
X86279Y-21961D01*
X87145Y-22826D01*
X88205Y-23438D01*
X89388Y-23755D01*
X90612D01*
X91795Y-23438D01*
X92855Y-22826D01*
X93721Y-21961D01*
X94163Y-21902D01*
X95760Y-23500D01*
X95553Y-24000D01*
X95003D01*
X94084Y-24381D01*
X93381Y-25084D01*
X93000Y-26003D01*
Y-26997D01*
X93381Y-27916D01*
X94084Y-28619D01*
X94581Y-28825D01*
X94995Y-29240D01*
X94804Y-29702D01*
X91567D01*
Y-33013D01*
X91437Y-33100D01*
X90703D01*
X90649Y-33122D01*
X90233Y-32844D01*
Y-29702D01*
X84233D01*
Y-33478D01*
X84127Y-33637D01*
X83981Y-33784D01*
X83901Y-33975D01*
X83849Y-34053D01*
X83831Y-34145D01*
X83600Y-34703D01*
Y-35697D01*
X83981Y-36616D01*
X84233Y-36869D01*
Y-42898D01*
X85296D01*
Y-45364D01*
X78630Y-52030D01*
X78210Y-52659D01*
X78063Y-53400D01*
Y-54465D01*
X78035Y-54539D01*
X77970Y-54668D01*
X77866Y-54841D01*
X77740Y-55021D01*
X77013Y-55867D01*
X76709Y-56174D01*
X76629Y-56296D01*
X76279Y-56645D01*
X75667Y-57705D01*
X75350Y-58888D01*
Y-60112D01*
X75667Y-61294D01*
X75802Y-61528D01*
X75552Y-61961D01*
X74448D01*
X74198Y-61528D01*
X74333Y-61294D01*
X74650Y-60112D01*
Y-58888D01*
X74333Y-57705D01*
X73721Y-56645D01*
X73372Y-56297D01*
X73293Y-56177D01*
X73001Y-55880D01*
X72521Y-55334D01*
X72360Y-55122D01*
X72228Y-54923D01*
X72133Y-54757D01*
X72073Y-54627D01*
X72043Y-54540D01*
X72039Y-54524D01*
Y-49845D01*
X78885Y-42998D01*
X82600D01*
Y-36802D01*
Y-29802D01*
X81730D01*
X81671Y-29507D01*
X81229Y-28845D01*
X80142Y-27758D01*
X79480Y-27316D01*
X78700Y-27161D01*
X76382D01*
X76175Y-26661D01*
X76519Y-26316D01*
X76900Y-25397D01*
Y-24403D01*
X76519Y-23484D01*
X75816Y-22781D01*
X74897Y-22400D01*
X73988D01*
X73811Y-22149D01*
X73734Y-21938D01*
X74333Y-20900D01*
X74650Y-19718D01*
Y-18494D01*
X74333Y-17311D01*
X73721Y-16251D01*
X74090Y-15935D01*
X75625Y-17470D01*
X75350Y-18494D01*
Y-19718D01*
X75667Y-20900D01*
X76279Y-21961D01*
X77145Y-22826D01*
X78205Y-23438D01*
X79388Y-23755D01*
X80612D01*
X81795Y-23438D01*
X82855Y-22826D01*
X83721Y-21961D01*
X84333Y-20900D01*
X84650Y-19718D01*
Y-18494D01*
X84333Y-17311D01*
X83721Y-16251D01*
X82855Y-15385D01*
X81795Y-14773D01*
X80612Y-14456D01*
X79388D01*
X78364Y-14730D01*
X77033Y-13399D01*
X77225Y-12937D01*
X88098D01*
X89160Y-13999D01*
D02*
G37*
G36*
X61862Y-21701D02*
X61050Y-22646D01*
X60851Y-22930D01*
X60689Y-23199D01*
X60562Y-23452D01*
X60472Y-23690D01*
X60418Y-23912D01*
X60400Y-24119D01*
X59600D01*
X59582Y-23912D01*
X59528Y-23690D01*
X59438Y-23452D01*
X59311Y-23199D01*
X59149Y-22930D01*
X58950Y-22646D01*
X58716Y-22346D01*
X58138Y-21701D01*
X57795Y-21355D01*
X62205D01*
X61862Y-21701D01*
D02*
G37*
G36*
X73686Y-24501D02*
X73886Y-24500D01*
Y-25300D01*
X73733Y-25304D01*
X73686Y-25308D01*
Y-25600D01*
X73625Y-25543D01*
X73560Y-25492D01*
X73490Y-25447D01*
X73416Y-25408D01*
X73340Y-25376D01*
X73279Y-25400D01*
X73206Y-25444D01*
X73149Y-25496D01*
X73108Y-25556D01*
X73083Y-25624D01*
X73074Y-25700D01*
X73078Y-25312D01*
X73078Y-25312D01*
X72983Y-25303D01*
X72883Y-25300D01*
Y-24500D01*
X72983Y-24497D01*
X73078Y-24488D01*
X73169Y-24473D01*
X73256Y-24452D01*
X73338Y-24425D01*
X73416Y-24392D01*
X73490Y-24353D01*
X73560Y-24308D01*
X73625Y-24257D01*
X73686Y-24200D01*
Y-24501D01*
D02*
G37*
G36*
X62926Y-26800D02*
X62917Y-26724D01*
X62893Y-26656D01*
X62853Y-26596D01*
X62796Y-26544D01*
X62723Y-26500D01*
X62633Y-26464D01*
X62528Y-26436D01*
X62406Y-26416D01*
X62268Y-26404D01*
X62114Y-26400D01*
Y-25600D01*
X62268Y-25596D01*
X62406Y-25584D01*
X62528Y-25564D01*
X62633Y-25536D01*
X62723Y-25500D01*
X62796Y-25456D01*
X62853Y-25404D01*
X62893Y-25344D01*
X62917Y-25276D01*
X62926Y-25200D01*
Y-26800D01*
D02*
G37*
G36*
X102304Y-30568D02*
X102316Y-30706D01*
X102336Y-30828D01*
X102364Y-30933D01*
X102400Y-31023D01*
X102444Y-31096D01*
X102496Y-31152D01*
X102556Y-31193D01*
X102624Y-31218D01*
X102700Y-31226D01*
X101100D01*
X101176Y-31218D01*
X101244Y-31193D01*
X101304Y-31152D01*
X101356Y-31096D01*
X101400Y-31023D01*
X101436Y-30933D01*
X101464Y-30828D01*
X101484Y-30706D01*
X101496Y-30568D01*
X101500Y-30414D01*
X102300D01*
X102304Y-30568D01*
D02*
G37*
G36*
X58405Y-30406D02*
X58420Y-30578D01*
X58445Y-30730D01*
X58480Y-30861D01*
X58525Y-30973D01*
X58580Y-31064D01*
X58645Y-31135D01*
X58720Y-31185D01*
X58805Y-31215D01*
X58900Y-31226D01*
X56900D01*
X56995Y-31215D01*
X57080Y-31185D01*
X57155Y-31135D01*
X57220Y-31064D01*
X57275Y-30973D01*
X57320Y-30861D01*
X57355Y-30730D01*
X57380Y-30578D01*
X57395Y-30406D01*
X57400Y-30214D01*
X58400D01*
X58405Y-30406D01*
D02*
G37*
G36*
X80292Y-30506D02*
X80307Y-30678D01*
X80332Y-30830D01*
X80367Y-30961D01*
X80412Y-31073D01*
X80467Y-31164D01*
X80532Y-31234D01*
X80607Y-31285D01*
X80692Y-31315D01*
X80787Y-31326D01*
X78787D01*
X78882Y-31315D01*
X78967Y-31285D01*
X79042Y-31234D01*
X79107Y-31164D01*
X79162Y-31073D01*
X79207Y-30961D01*
X79242Y-30830D01*
X79267Y-30678D01*
X79282Y-30506D01*
X79287Y-30314D01*
X80287D01*
X80292Y-30506D01*
D02*
G37*
G36*
X35667Y-20900D02*
X36279Y-21961D01*
X37145Y-22826D01*
X38205Y-23438D01*
X39388Y-23755D01*
X40612D01*
X41795Y-23438D01*
X42495Y-23034D01*
X50454Y-30994D01*
X50263Y-31456D01*
X47817D01*
X46939Y-31631D01*
X46194Y-32128D01*
X45916Y-32406D01*
X42313D01*
X42296Y-32342D01*
X41901Y-31658D01*
X41342Y-31099D01*
X40658Y-30704D01*
X39895Y-30500D01*
X39105D01*
X38342Y-30704D01*
X37658Y-31099D01*
X37099Y-31658D01*
X36704Y-32342D01*
X36500Y-33105D01*
Y-33895D01*
X36704Y-34658D01*
X37099Y-35342D01*
X37658Y-35901D01*
X37881Y-36029D01*
X37747Y-36529D01*
X27356D01*
X27253Y-36395D01*
Y-35605D01*
X27049Y-34842D01*
X26654Y-34158D01*
X26095Y-33599D01*
X25411Y-33204D01*
X24648Y-33000D01*
X23858D01*
X23095Y-33204D01*
X22411Y-33599D01*
X22304Y-33706D01*
X19900D01*
X19022Y-33880D01*
X18278Y-34378D01*
X15980Y-36676D01*
X15480Y-36468D01*
Y-31421D01*
X27159Y-19743D01*
X35357D01*
X35667Y-20900D01*
D02*
G37*
G36*
X62002Y-33791D02*
X62020Y-33983D01*
X62036Y-34068D01*
X62056Y-34145D01*
X62081Y-34215D01*
X62110Y-34277D01*
X62144Y-34332D01*
X62182Y-34380D01*
X62225Y-34419D01*
X60832Y-34559D01*
X60864Y-34516D01*
X60892Y-34465D01*
X60918Y-34407D01*
X60940Y-34341D01*
X60958Y-34269D01*
X60973Y-34189D01*
X60985Y-34103D01*
X60998Y-33908D01*
X61000Y-33800D01*
X62000Y-33683D01*
X62002Y-33791D01*
D02*
G37*
G36*
X66731Y-32997D02*
X66761Y-33082D01*
X66811Y-33157D01*
X66881Y-33222D01*
X66971Y-33277D01*
X67081Y-33322D01*
X67211Y-33357D01*
X67361Y-33382D01*
X67418Y-33387D01*
X67637Y-33372D01*
X67697Y-33361D01*
X67749Y-33349D01*
X67792Y-33334D01*
X67827Y-33319D01*
X67721Y-33658D01*
Y-34402D01*
X67531Y-34407D01*
X67486Y-34411D01*
X67409Y-34655D01*
X67379Y-34607D01*
X67340Y-34564D01*
X67293Y-34526D01*
X67237Y-34493D01*
X67172Y-34465D01*
X67159Y-34461D01*
X67081Y-34482D01*
X66971Y-34527D01*
X66881Y-34582D01*
X66811Y-34647D01*
X66761Y-34722D01*
X66731Y-34807D01*
X66721Y-34902D01*
Y-34402D01*
X66720Y-34402D01*
X66721Y-34400D01*
Y-32902D01*
X66731Y-32997D01*
D02*
G37*
G36*
X92581Y-35468D02*
X92128Y-35973D01*
X91592Y-34680D01*
X91644Y-34697D01*
X91699Y-34703D01*
X91757Y-34699D01*
X91818Y-34686D01*
X91882Y-34662D01*
X91948Y-34628D01*
X92018Y-34584D01*
X92090Y-34529D01*
X92165Y-34465D01*
X92243Y-34391D01*
X92581Y-35468D01*
D02*
G37*
G36*
X74060Y-34140D02*
X74078Y-34153D01*
X74107Y-34164D01*
X74147Y-34174D01*
X74199Y-34183D01*
X74262Y-34189D01*
X74521Y-34201D01*
X74631Y-34202D01*
Y-35202D01*
X74055Y-35190D01*
Y-34125D01*
X74060Y-34140D01*
D02*
G37*
G36*
X66731Y-38402D02*
X66758Y-38475D01*
X66805Y-38539D01*
X66869Y-38594D01*
X66953Y-38641D01*
X67055Y-38679D01*
X67175Y-38709D01*
X67314Y-38730D01*
X67472Y-38743D01*
X67647Y-38748D01*
Y-39748D01*
X67472Y-39752D01*
X67314Y-39765D01*
X67175Y-39786D01*
X67055Y-39816D01*
X66953Y-39854D01*
X66869Y-39901D01*
X66805Y-39956D01*
X66758Y-40020D01*
X66731Y-40093D01*
X66721Y-40174D01*
Y-38321D01*
X66731Y-38402D01*
D02*
G37*
G36*
X103384Y-38674D02*
X103409Y-38742D01*
X103449Y-38802D01*
X103506Y-38854D01*
X103579Y-38898D01*
X103668Y-38934D01*
X103774Y-38962D01*
X103896Y-38982D01*
X104034Y-38994D01*
X104188Y-38998D01*
Y-39798D01*
X104034Y-39802D01*
X103896Y-39814D01*
X103774Y-39834D01*
X103668Y-39862D01*
X103579Y-39898D01*
X103506Y-39942D01*
X103449Y-39994D01*
X103409Y-40054D01*
X103384Y-40122D01*
X103376Y-40198D01*
Y-38598D01*
X103384Y-38674D01*
D02*
G37*
G36*
X50286Y-40700D02*
X50243Y-40662D01*
X50193Y-40628D01*
X50136Y-40598D01*
X50072Y-40572D01*
X50000Y-40550D01*
X49921Y-40532D01*
X49835Y-40518D01*
X49742Y-40508D01*
X49534Y-40500D01*
Y-39500D01*
X49642Y-39498D01*
X49835Y-39482D01*
X49921Y-39468D01*
X50000Y-39450D01*
X50072Y-39428D01*
X50136Y-39402D01*
X50193Y-39372D01*
X50243Y-39338D01*
X50286Y-39300D01*
Y-40700D01*
D02*
G37*
G36*
X116403Y-40083D02*
X116412Y-40178D01*
X116427Y-40269D01*
X116448Y-40356D01*
X116475Y-40438D01*
X116508Y-40516D01*
X116547Y-40590D01*
X116592Y-40660D01*
X116643Y-40725D01*
X116700Y-40786D01*
X115300D01*
X115357Y-40725D01*
X115408Y-40660D01*
X115453Y-40590D01*
X115492Y-40516D01*
X115525Y-40438D01*
X115552Y-40356D01*
X115573Y-40269D01*
X115588Y-40178D01*
X115597Y-40083D01*
X115600Y-39983D01*
X116400D01*
X116403Y-40083D01*
D02*
G37*
G36*
X112903D02*
X112912Y-40178D01*
X112927Y-40269D01*
X112948Y-40356D01*
X112975Y-40438D01*
X113008Y-40516D01*
X113047Y-40590D01*
X113092Y-40660D01*
X113143Y-40725D01*
X113200Y-40786D01*
X111800D01*
X111857Y-40725D01*
X111908Y-40660D01*
X111953Y-40590D01*
X111992Y-40516D01*
X112025Y-40438D01*
X112052Y-40356D01*
X112073Y-40269D01*
X112088Y-40178D01*
X112097Y-40083D01*
X112100Y-39983D01*
X112900D01*
X112903Y-40083D01*
D02*
G37*
G36*
X22610Y-41037D02*
X22535Y-41114D01*
X22410Y-41263D01*
X22359Y-41333D01*
X22316Y-41402D01*
X22281Y-41468D01*
X22254Y-41532D01*
X22235Y-41594D01*
X22223Y-41653D01*
X22220Y-41710D01*
X21230Y-40720D01*
X21287Y-40717D01*
X21347Y-40705D01*
X21408Y-40686D01*
X21472Y-40659D01*
X21538Y-40624D01*
X21607Y-40581D01*
X21677Y-40530D01*
X21750Y-40471D01*
X21903Y-40330D01*
X22610Y-41037D01*
D02*
G37*
G36*
X87957Y-41383D02*
X87889Y-41407D01*
X87829Y-41447D01*
X87777Y-41504D01*
X87733Y-41577D01*
X87697Y-41667D01*
X87669Y-41772D01*
X87649Y-41894D01*
X87637Y-42032D01*
X87633Y-42186D01*
X86833D01*
X86829Y-42032D01*
X86817Y-41894D01*
X86797Y-41772D01*
X86769Y-41667D01*
X86733Y-41577D01*
X86689Y-41504D01*
X86637Y-41447D01*
X86577Y-41407D01*
X86509Y-41383D01*
X86433Y-41374D01*
X88033D01*
X87957Y-41383D01*
D02*
G37*
G36*
X59388Y-41386D02*
X59292Y-41392D01*
X59218Y-41409D01*
X59166Y-41437D01*
X59136Y-41477D01*
X59127Y-41528D01*
X59141Y-41590D01*
X59178Y-41664D01*
X59236Y-41748D01*
X59316Y-41845D01*
X59418Y-41952D01*
X58569Y-42235D01*
X58401Y-42072D01*
X58082Y-41797D01*
X57931Y-41686D01*
X57787Y-41591D01*
X57648Y-41513D01*
X57516Y-41453D01*
X57390Y-41410D01*
X57269Y-41384D01*
X57155Y-41374D01*
X59388Y-41386D01*
D02*
G37*
G36*
X95472Y-41385D02*
X95387Y-41415D01*
X95312Y-41465D01*
X95247Y-41536D01*
X95192Y-41627D01*
X95147Y-41739D01*
X95112Y-41870D01*
X95087Y-42022D01*
X95072Y-42194D01*
X95067Y-42386D01*
X94067D01*
X94062Y-42194D01*
X94047Y-42022D01*
X94022Y-41870D01*
X93987Y-41739D01*
X93942Y-41627D01*
X93887Y-41536D01*
X93822Y-41465D01*
X93747Y-41415D01*
X93662Y-41385D01*
X93567Y-41374D01*
X95567D01*
X95472Y-41385D01*
D02*
G37*
G36*
X73472D02*
X73387Y-41415D01*
X73312Y-41465D01*
X73247Y-41536D01*
X73192Y-41627D01*
X73147Y-41739D01*
X73112Y-41870D01*
X73087Y-42022D01*
X73072Y-42194D01*
X73067Y-42386D01*
X72067D01*
X72062Y-42194D01*
X72047Y-42022D01*
X72022Y-41870D01*
X71987Y-41739D01*
X71942Y-41627D01*
X71887Y-41536D01*
X71822Y-41465D01*
X71747Y-41415D01*
X71662Y-41385D01*
X71567Y-41374D01*
X73567D01*
X73472Y-41385D01*
D02*
G37*
G36*
X121111Y-5466D02*
X122874Y-7012D01*
X124420Y-8775D01*
X125722Y-10724D01*
X126759Y-12827D01*
X127513Y-15047D01*
X127970Y-17346D01*
X128105Y-19402D01*
X128101Y-19422D01*
Y-66746D01*
X127601Y-67035D01*
X127064Y-66725D01*
X126033Y-66449D01*
X126000D01*
Y-70500D01*
Y-74551D01*
X126033D01*
X127064Y-74275D01*
X127601Y-73965D01*
X128101Y-74254D01*
Y-86961D01*
X127970Y-88954D01*
X127710Y-90260D01*
X127220Y-90358D01*
X126970Y-89984D01*
X126158Y-89172D01*
X125203Y-88534D01*
X124142Y-88094D01*
X123015Y-87870D01*
X121867D01*
X120740Y-88094D01*
X119679Y-88534D01*
X118724Y-89172D01*
X117912Y-89984D01*
X117274Y-90939D01*
X116834Y-92000D01*
X116610Y-93126D01*
Y-94275D01*
X116834Y-95402D01*
X117274Y-96463D01*
X117912Y-97418D01*
X118724Y-98230D01*
X119679Y-98868D01*
X120740Y-99307D01*
X121844Y-99527D01*
X121945Y-99685D01*
X122063Y-99999D01*
X121111Y-100835D01*
X119162Y-102137D01*
X117059Y-103174D01*
X115957Y-103548D01*
X115551Y-103257D01*
Y-102905D01*
X111795D01*
X108039D01*
Y-104516D01*
X99781D01*
X99647Y-104016D01*
X100294Y-103642D01*
X101142Y-102795D01*
X101741Y-101757D01*
X102051Y-100599D01*
Y-99401D01*
X101741Y-98243D01*
X101142Y-97206D01*
X100294Y-96358D01*
X99257Y-95759D01*
X98099Y-95449D01*
X96901D01*
X95743Y-95759D01*
X94705Y-96358D01*
X93858Y-97206D01*
X93259Y-98243D01*
X92949Y-99401D01*
Y-100599D01*
X93259Y-101757D01*
X93858Y-102795D01*
X94705Y-103642D01*
X95353Y-104016D01*
X95219Y-104516D01*
X89961D01*
Y-102905D01*
X86205D01*
Y-102406D01*
X85705D01*
Y-99240D01*
X82449D01*
Y-99240D01*
X82051D01*
Y-99240D01*
X78795D01*
Y-102406D01*
X77795D01*
Y-99240D01*
X74539D01*
X74138Y-99002D01*
X73295Y-98158D01*
X72257Y-97559D01*
X71099Y-97249D01*
X69901D01*
X69864Y-97259D01*
X69614Y-96826D01*
X73539Y-92901D01*
X74039Y-93108D01*
Y-94260D01*
X89724D01*
X90182Y-94718D01*
X91101Y-95098D01*
X92096D01*
X93015Y-94718D01*
X93095Y-94638D01*
X103596D01*
X104377Y-94482D01*
X105038Y-94040D01*
X106445Y-92634D01*
X107539D01*
Y-94260D01*
X116051D01*
Y-86929D01*
X111834D01*
Y-83550D01*
X120442Y-74942D01*
X120884Y-74280D01*
X121039Y-73500D01*
X121039Y-73500D01*
Y-71436D01*
X121539Y-71371D01*
X121725Y-72064D01*
X122258Y-72988D01*
X123012Y-73742D01*
X123936Y-74275D01*
X124967Y-74551D01*
X125000D01*
Y-70500D01*
Y-66449D01*
X124967D01*
X123936Y-66725D01*
X123012Y-67258D01*
X122258Y-68012D01*
X121725Y-68936D01*
X121539Y-69629D01*
X121039Y-69564D01*
Y-65496D01*
X121119Y-65416D01*
X121500Y-64497D01*
Y-63503D01*
X121119Y-62584D01*
X120416Y-61881D01*
X119497Y-61500D01*
X118503D01*
X117584Y-61881D01*
X116881Y-62584D01*
X116500Y-63503D01*
Y-64497D01*
X116881Y-65416D01*
X116961Y-65496D01*
Y-66871D01*
X116499Y-67062D01*
X116295Y-66858D01*
X115257Y-66259D01*
X114099Y-65949D01*
X112901D01*
X111743Y-66259D01*
X110705Y-66858D01*
X109858Y-67706D01*
X109422Y-68461D01*
X92500D01*
X91720Y-68616D01*
X91058Y-69058D01*
X88555Y-71561D01*
X85481D01*
X85404Y-71469D01*
X85516Y-71126D01*
X85626Y-70958D01*
X86309Y-70822D01*
X86938Y-70402D01*
X87540Y-69800D01*
X87797D01*
X88716Y-69419D01*
X89419Y-68716D01*
X89800Y-67797D01*
Y-67339D01*
X95200D01*
X95980Y-67184D01*
X96642Y-66742D01*
X102943Y-60441D01*
X109905D01*
X109985Y-60521D01*
X110904Y-60902D01*
X111899D01*
X112818Y-60521D01*
X113521Y-59818D01*
X113902Y-58899D01*
Y-57904D01*
X114173Y-57498D01*
X121104D01*
X121601Y-57704D01*
X122596D01*
X123515Y-57323D01*
X124218Y-56620D01*
X124598Y-55701D01*
Y-54706D01*
X124218Y-53787D01*
X123515Y-53084D01*
X122596Y-52703D01*
X121601D01*
X121104Y-52909D01*
X120316D01*
X120216Y-52409D01*
X120916Y-52119D01*
X121619Y-51416D01*
X122000Y-50497D01*
Y-49503D01*
X121619Y-48584D01*
X120916Y-47881D01*
X119997Y-47500D01*
X119003D01*
X118084Y-47881D01*
X117381Y-48584D01*
X117000Y-49503D01*
Y-50497D01*
X117381Y-51416D01*
X118084Y-52119D01*
X118784Y-52409D01*
X118684Y-52909D01*
X97694D01*
Y-52050D01*
X99722Y-50022D01*
X100220Y-49278D01*
X100394Y-48400D01*
Y-42898D01*
X104900D01*
Y-41197D01*
X104943Y-41188D01*
X105571Y-40768D01*
X106970Y-39370D01*
X107390Y-38741D01*
X107537Y-38000D01*
Y-29826D01*
X107999Y-29634D01*
X110563Y-32198D01*
Y-39902D01*
X110381Y-40084D01*
X110000Y-41003D01*
Y-41997D01*
X110381Y-42916D01*
X111084Y-43619D01*
X112003Y-44000D01*
X112997D01*
X113916Y-43619D01*
X114250Y-43286D01*
X114584Y-43619D01*
X115503Y-44000D01*
X116497D01*
X117416Y-43619D01*
X118000Y-43036D01*
X118584Y-43619D01*
X119503Y-44000D01*
X120497D01*
X121416Y-43619D01*
X122119Y-42916D01*
X122500Y-41997D01*
Y-41003D01*
X122119Y-40084D01*
X121416Y-39381D01*
X121101Y-39250D01*
Y-38750D01*
X121416Y-38619D01*
X122119Y-37916D01*
X122500Y-36997D01*
Y-36003D01*
X122119Y-35084D01*
X121416Y-34381D01*
X120497Y-34000D01*
X119503D01*
X118584Y-34381D01*
X118399Y-34565D01*
X117937Y-34374D01*
Y-32350D01*
X117790Y-31609D01*
X117370Y-30980D01*
X98245Y-11855D01*
X98711Y-11388D01*
X112750D01*
X113491Y-11241D01*
X114119Y-10821D01*
X116256Y-8685D01*
X116268Y-8673D01*
X119283D01*
Y-4775D01*
X119724Y-4540D01*
X121111Y-5466D01*
D02*
G37*
G36*
X60283Y-42813D02*
X60357Y-42874D01*
X60432Y-42928D01*
X60508Y-42974D01*
X60585Y-43013D01*
X60664Y-43045D01*
X60743Y-43070D01*
X60824Y-43087D01*
X60907Y-43097D01*
X60990Y-43100D01*
X60000Y-44090D01*
X59997Y-44007D01*
X59987Y-43924D01*
X59970Y-43843D01*
X59945Y-43764D01*
X59913Y-43685D01*
X59874Y-43608D01*
X59828Y-43532D01*
X59774Y-43457D01*
X59713Y-43383D01*
X59645Y-43310D01*
X60211Y-42745D01*
X60283Y-42813D01*
D02*
G37*
G36*
X65990Y-45500D02*
X65933Y-45503D01*
X65873Y-45515D01*
X65812Y-45534D01*
X65748Y-45561D01*
X65682Y-45596D01*
X65613Y-45639D01*
X65543Y-45690D01*
X65470Y-45749D01*
X65317Y-45890D01*
X64610Y-45183D01*
X64684Y-45106D01*
X64810Y-44957D01*
X64861Y-44887D01*
X64904Y-44818D01*
X64939Y-44752D01*
X64966Y-44688D01*
X64985Y-44627D01*
X64997Y-44567D01*
X65000Y-44510D01*
X65990Y-45500D01*
D02*
G37*
G36*
X31703Y-52883D02*
X31712Y-52978D01*
X31727Y-53069D01*
X31748Y-53156D01*
X31775Y-53238D01*
X31808Y-53316D01*
X31847Y-53390D01*
X31892Y-53460D01*
X31943Y-53525D01*
X32000Y-53586D01*
X30600D01*
X30657Y-53525D01*
X30708Y-53460D01*
X30753Y-53390D01*
X30792Y-53316D01*
X30825Y-53238D01*
X30852Y-53156D01*
X30873Y-53069D01*
X30888Y-52978D01*
X30897Y-52883D01*
X30900Y-52784D01*
X31700D01*
X31703Y-52883D01*
D02*
G37*
G36*
X34802Y-53241D02*
X34818Y-53435D01*
X34832Y-53521D01*
X34850Y-53600D01*
X34872Y-53671D01*
X34898Y-53736D01*
X34928Y-53793D01*
X34962Y-53843D01*
X35000Y-53886D01*
X33600D01*
X33638Y-53843D01*
X33672Y-53793D01*
X33702Y-53736D01*
X33728Y-53671D01*
X33750Y-53600D01*
X33768Y-53521D01*
X33782Y-53435D01*
X33792Y-53342D01*
X33800Y-53134D01*
X34800D01*
X34802Y-53241D01*
D02*
G37*
G36*
X80418Y-54693D02*
X80472Y-54915D01*
X80562Y-55153D01*
X80689Y-55406D01*
X80851Y-55675D01*
X81050Y-55959D01*
X81284Y-56259D01*
X81862Y-56905D01*
X82205Y-57251D01*
X77795D01*
X78138Y-56905D01*
X78950Y-55959D01*
X79149Y-55675D01*
X79311Y-55406D01*
X79438Y-55153D01*
X79528Y-54915D01*
X79582Y-54693D01*
X79600Y-54486D01*
X80400D01*
X80418Y-54693D01*
D02*
G37*
G36*
X70517Y-54722D02*
X70568Y-54956D01*
X70653Y-55201D01*
X70773Y-55459D01*
X70926Y-55728D01*
X71114Y-56009D01*
X71335Y-56301D01*
X71881Y-56923D01*
X72205Y-57251D01*
X67795D01*
X68119Y-56923D01*
X68665Y-56301D01*
X68886Y-56009D01*
X69074Y-55728D01*
X69227Y-55459D01*
X69347Y-55201D01*
X69432Y-54956D01*
X69483Y-54722D01*
X69500Y-54501D01*
X70500D01*
X70517Y-54722D01*
D02*
G37*
G36*
X21462Y-56732D02*
X21459Y-56750D01*
X21457Y-56778D01*
X21451Y-56993D01*
X21449Y-57262D01*
X20649D01*
X20649Y-57187D01*
X20633Y-56927D01*
X20627Y-56898D01*
X20620Y-56876D01*
X20612Y-56862D01*
X20604Y-56855D01*
X21465Y-56725D01*
X21462Y-56732D01*
D02*
G37*
G36*
X50564Y-54512D02*
X50581Y-54731D01*
X50631Y-54963D01*
X50716Y-55209D01*
X50834Y-55467D01*
X50986Y-55739D01*
X51171Y-56024D01*
X51390Y-56323D01*
X51930Y-56958D01*
X52250Y-57296D01*
X47842Y-57206D01*
X48169Y-56887D01*
X48720Y-56281D01*
X48944Y-55994D01*
X49134Y-55717D01*
X49288Y-55451D01*
X49409Y-55195D01*
X49495Y-54950D01*
X49547Y-54715D01*
X49564Y-54491D01*
X50564Y-54512D01*
D02*
G37*
G36*
X110687Y-59102D02*
X110645Y-59064D01*
X110595Y-59030D01*
X110537Y-59000D01*
X110473Y-58974D01*
X110401Y-58952D01*
X110323Y-58934D01*
X110237Y-58920D01*
X110143Y-58910D01*
X109935Y-58902D01*
Y-57902D01*
X110043Y-57900D01*
X110237Y-57884D01*
X110323Y-57870D01*
X110401Y-57852D01*
X110473Y-57830D01*
X110537Y-57804D01*
X110595Y-57774D01*
X110645Y-57740D01*
X110687Y-57702D01*
Y-59102D01*
D02*
G37*
G36*
X21546Y-62336D02*
X21564Y-62561D01*
X21575Y-62620D01*
X21588Y-62669D01*
X21603Y-62711D01*
X21622Y-62744D01*
X21642Y-62768D01*
X21665Y-62784D01*
X20645Y-62862D01*
X20664Y-62843D01*
X20681Y-62815D01*
X20696Y-62777D01*
X20709Y-62730D01*
X20719Y-62673D01*
X20729Y-62606D01*
X20740Y-62444D01*
X20744Y-62244D01*
X21544D01*
X21546Y-62336D01*
D02*
G37*
G36*
X41476Y-62295D02*
X41384Y-62378D01*
X41303Y-62475D01*
X41232Y-62586D01*
X41173Y-62710D01*
X41124Y-62848D01*
X41086Y-63000D01*
X41059Y-63165D01*
X41043Y-63345D01*
X41038Y-63538D01*
X40038D01*
X40031Y-63379D01*
X40013Y-63235D01*
X39983Y-63105D01*
X39941Y-62990D01*
X39886Y-62888D01*
X39819Y-62802D01*
X39740Y-62729D01*
X39649Y-62671D01*
X39546Y-62627D01*
X39430Y-62598D01*
X41578Y-62226D01*
X41476Y-62295D01*
D02*
G37*
G36*
X10655Y-63011D02*
X10587Y-63083D01*
X10526Y-63157D01*
X10472Y-63232D01*
X10426Y-63308D01*
X10387Y-63385D01*
X10355Y-63464D01*
X10330Y-63543D01*
X10313Y-63624D01*
X10303Y-63707D01*
X10300Y-63790D01*
X9310Y-62800D01*
X9393Y-62797D01*
X9476Y-62787D01*
X9557Y-62770D01*
X9636Y-62745D01*
X9715Y-62713D01*
X9792Y-62674D01*
X9868Y-62628D01*
X9943Y-62574D01*
X10017Y-62513D01*
X10090Y-62445D01*
X10655Y-63011D01*
D02*
G37*
G36*
X24690Y-64600D02*
X24607Y-64603D01*
X24524Y-64613D01*
X24443Y-64630D01*
X24364Y-64655D01*
X24285Y-64687D01*
X24208Y-64726D01*
X24132Y-64772D01*
X24057Y-64826D01*
X23983Y-64887D01*
X23911Y-64955D01*
X23345Y-64389D01*
X23413Y-64317D01*
X23474Y-64243D01*
X23528Y-64168D01*
X23574Y-64092D01*
X23613Y-64015D01*
X23645Y-63936D01*
X23670Y-63857D01*
X23687Y-63776D01*
X23697Y-63693D01*
X23700Y-63610D01*
X24690Y-64600D01*
D02*
G37*
G36*
X119662Y-64757D02*
X119628Y-64807D01*
X119598Y-64864D01*
X119572Y-64929D01*
X119550Y-65000D01*
X119532Y-65079D01*
X119518Y-65165D01*
X119508Y-65258D01*
X119500Y-65466D01*
X118500D01*
X118498Y-65359D01*
X118482Y-65165D01*
X118468Y-65079D01*
X118450Y-65000D01*
X118428Y-64929D01*
X118402Y-64864D01*
X118372Y-64807D01*
X118338Y-64757D01*
X118300Y-64714D01*
X119700D01*
X119662Y-64757D01*
D02*
G37*
G36*
X7003Y-66652D02*
X7048Y-66778D01*
X7123Y-66888D01*
X7228Y-66984D01*
X7363Y-67066D01*
X7528Y-67132D01*
X7723Y-67184D01*
X7948Y-67220D01*
X8203Y-67243D01*
X8488Y-67250D01*
Y-68750D01*
X8203Y-68757D01*
X7948Y-68779D01*
X7723Y-68816D01*
X7528Y-68868D01*
X7363Y-68935D01*
X7228Y-69016D01*
X7123Y-69112D01*
X7048Y-69222D01*
X7003Y-69348D01*
X6988Y-69488D01*
Y-66512D01*
X7003Y-66652D01*
D02*
G37*
G36*
X13328Y-71772D02*
X14072Y-72269D01*
X14950Y-72444D01*
X18421D01*
X19177Y-73200D01*
X18970Y-73700D01*
X16000D01*
Y-73811D01*
X15500Y-74091D01*
X14797Y-73800D01*
X13803D01*
X12884Y-74181D01*
X12274Y-74790D01*
X11300Y-73816D01*
Y-73703D01*
X10919Y-72784D01*
X10216Y-72081D01*
X9297Y-71700D01*
X8303D01*
X7384Y-72081D01*
X6681Y-72784D01*
X6300Y-73703D01*
Y-74697D01*
X6681Y-75616D01*
X7384Y-76319D01*
X8303Y-76700D01*
X8416D01*
X13358Y-81642D01*
X14020Y-82084D01*
X14800Y-82239D01*
X16500D01*
Y-82798D01*
X19000D01*
X21500D01*
Y-82693D01*
X21904Y-82289D01*
X30105D01*
X31058Y-83242D01*
X31720Y-83684D01*
X32500Y-83839D01*
X58000D01*
Y-84497D01*
X58381Y-85416D01*
X58662Y-85697D01*
Y-89504D01*
X58581Y-89584D01*
X58201Y-90503D01*
Y-91497D01*
X58581Y-92416D01*
X59285Y-93119D01*
X60203Y-93500D01*
X61198D01*
X62117Y-93119D01*
X62820Y-92416D01*
X63201Y-91497D01*
Y-90503D01*
X62820Y-89584D01*
X62740Y-89504D01*
Y-86100D01*
X74998D01*
Y-85898D01*
X75000Y-85398D01*
X76063D01*
Y-86929D01*
X74039D01*
Y-88657D01*
X73106D01*
X72364Y-88805D01*
X71736Y-89225D01*
X65998Y-94963D01*
X59813D01*
X56961Y-92111D01*
Y-86929D01*
X41539D01*
Y-88555D01*
X24461D01*
Y-86929D01*
X15949D01*
Y-94260D01*
X21358D01*
X21635Y-94676D01*
X21500Y-95003D01*
Y-95997D01*
X21881Y-96916D01*
X22584Y-97619D01*
X23503Y-98000D01*
X24497D01*
X25416Y-97619D01*
X26119Y-96916D01*
X26500Y-95997D01*
Y-95003D01*
X26119Y-94084D01*
X26039Y-94004D01*
Y-92634D01*
X41539D01*
Y-94260D01*
X53651D01*
X53691Y-94320D01*
X57617Y-98246D01*
X56958Y-98905D01*
X56882Y-99037D01*
X56461Y-99240D01*
Y-99240D01*
X56461Y-99240D01*
X53205D01*
Y-102406D01*
X52205D01*
Y-99240D01*
X46295D01*
Y-102406D01*
X45795D01*
Y-102905D01*
X42039D01*
Y-104516D01*
X35092D01*
X34803Y-104016D01*
X35241Y-103257D01*
X35551Y-102099D01*
Y-100901D01*
X35241Y-99743D01*
X34642Y-98706D01*
X33795Y-97858D01*
X32757Y-97259D01*
X31599Y-96949D01*
X30401D01*
X29243Y-97259D01*
X28205Y-97858D01*
X27358Y-98706D01*
X26759Y-99743D01*
X26449Y-100901D01*
Y-102099D01*
X26759Y-103257D01*
X27197Y-104016D01*
X26908Y-104516D01*
X23961D01*
Y-102905D01*
X20205D01*
X16449D01*
Y-103820D01*
X16063Y-104137D01*
X15010Y-103928D01*
X12790Y-103174D01*
X10687Y-102137D01*
X8738Y-100835D01*
X7822Y-100031D01*
X8010Y-99532D01*
X8448D01*
X9575Y-99307D01*
X10636Y-98868D01*
X11591Y-98230D01*
X12403Y-97418D01*
X13041Y-96463D01*
X13481Y-95402D01*
X13705Y-94275D01*
Y-93126D01*
X13481Y-92000D01*
X13041Y-90939D01*
X12403Y-89984D01*
X11591Y-89172D01*
X10636Y-88534D01*
X9575Y-88094D01*
X8448Y-87870D01*
X7300D01*
X6173Y-88094D01*
X5112Y-88534D01*
X4157Y-89172D01*
X3345Y-89984D01*
X2766Y-90851D01*
X2462Y-90847D01*
X2238Y-90763D01*
X1879Y-88954D01*
X1748Y-86961D01*
Y-71000D01*
X6797D01*
X6825Y-71009D01*
X6907Y-71001D01*
X6988Y-71017D01*
X7075Y-71000D01*
X8500D01*
Y-70294D01*
X11000D01*
X11709Y-70153D01*
X13328Y-71772D01*
D02*
G37*
G36*
X78103Y-73138D02*
X78113Y-73261D01*
X78128Y-73370D01*
X78150Y-73464D01*
X78178Y-73544D01*
X78213Y-73610D01*
X78254Y-73660D01*
X78301Y-73697D01*
X78354Y-73718D01*
X78414Y-73726D01*
X76986D01*
X77046Y-73718D01*
X77099Y-73697D01*
X77146Y-73660D01*
X77187Y-73610D01*
X77222Y-73544D01*
X77250Y-73464D01*
X77272Y-73370D01*
X77288Y-73261D01*
X77297Y-73138D01*
X77300Y-73000D01*
X78100D01*
X78103Y-73138D01*
D02*
G37*
G36*
X84357Y-72938D02*
X84407Y-72972D01*
X84464Y-73002D01*
X84528Y-73028D01*
X84600Y-73050D01*
X84679Y-73068D01*
X84765Y-73082D01*
X84858Y-73092D01*
X85066Y-73100D01*
Y-74100D01*
X84958Y-74102D01*
X84765Y-74118D01*
X84679Y-74132D01*
X84600Y-74150D01*
X84528Y-74172D01*
X84464Y-74198D01*
X84407Y-74228D01*
X84357Y-74262D01*
X84314Y-74300D01*
Y-72900D01*
X84357Y-72938D01*
D02*
G37*
G36*
X24403Y-74583D02*
X24412Y-74678D01*
X24427Y-74769D01*
X24448Y-74856D01*
X24475Y-74938D01*
X24508Y-75016D01*
X24547Y-75090D01*
X24592Y-75160D01*
X24643Y-75225D01*
X24700Y-75286D01*
X23300D01*
X23357Y-75225D01*
X23408Y-75160D01*
X23453Y-75090D01*
X23492Y-75016D01*
X23525Y-74938D01*
X23552Y-74856D01*
X23573Y-74769D01*
X23588Y-74678D01*
X23597Y-74583D01*
X23600Y-74484D01*
X24400D01*
X24403Y-74583D01*
D02*
G37*
G36*
X9803Y-74267D02*
X9815Y-74326D01*
X9834Y-74388D01*
X9861Y-74452D01*
X9896Y-74518D01*
X9939Y-74587D01*
X9990Y-74657D01*
X10049Y-74730D01*
X10190Y-74883D01*
X9483Y-75590D01*
X9406Y-75516D01*
X9257Y-75390D01*
X9187Y-75339D01*
X9118Y-75296D01*
X9052Y-75261D01*
X8988Y-75234D01*
X8926Y-75215D01*
X8867Y-75203D01*
X8810Y-75200D01*
X9800Y-74210D01*
X9803Y-74267D01*
D02*
G37*
G36*
X62500Y-74693D02*
Y-75400D01*
X65500D01*
Y-76400D01*
X62500D01*
Y-78400D01*
X64063D01*
X64254Y-78862D01*
X63872Y-79244D01*
X63456Y-79867D01*
X63261Y-79935D01*
X62902Y-79997D01*
X62780Y-79916D01*
X62000Y-79761D01*
X61000D01*
Y-79003D01*
X60619Y-78084D01*
X59916Y-77381D01*
X58997Y-77000D01*
X58003D01*
X57084Y-77381D01*
X56902Y-77563D01*
X35802D01*
X34234Y-75994D01*
X34441Y-75494D01*
X54958D01*
X55584Y-76119D01*
X56503Y-76500D01*
X57497D01*
X58416Y-76119D01*
X58598Y-75937D01*
X59800D01*
X60541Y-75790D01*
X61170Y-75370D01*
X62038Y-74502D01*
X62500Y-74693D01*
D02*
G37*
G36*
X32503Y-76093D02*
X32513Y-76176D01*
X32530Y-76257D01*
X32555Y-76336D01*
X32587Y-76415D01*
X32626Y-76492D01*
X32672Y-76568D01*
X32726Y-76643D01*
X32787Y-76717D01*
X32855Y-76789D01*
X32289Y-77355D01*
X32217Y-77287D01*
X32143Y-77226D01*
X32068Y-77172D01*
X31992Y-77126D01*
X31915Y-77087D01*
X31836Y-77055D01*
X31757Y-77030D01*
X31676Y-77013D01*
X31593Y-77003D01*
X31510Y-77000D01*
X32500Y-76010D01*
X32503Y-76093D01*
D02*
G37*
G36*
X17524Y-78200D02*
X17514Y-78105D01*
X17483Y-78020D01*
X17433Y-77945D01*
X17362Y-77880D01*
X17271Y-77825D01*
X17160Y-77780D01*
X17028Y-77745D01*
X16876Y-77720D01*
X16704Y-77705D01*
X16512Y-77700D01*
Y-76700D01*
X16704Y-76695D01*
X16876Y-76680D01*
X17028Y-76655D01*
X17160Y-76620D01*
X17271Y-76575D01*
X17362Y-76520D01*
X17433Y-76455D01*
X17483Y-76380D01*
X17514Y-76295D01*
X17524Y-76200D01*
Y-78200D01*
D02*
G37*
G36*
X71831Y-77385D02*
X71759Y-77413D01*
X71695Y-77460D01*
X71639Y-77526D01*
X71592Y-77611D01*
X71554Y-77714D01*
X71524Y-77836D01*
X71503Y-77976D01*
X71490Y-78136D01*
X71486Y-78314D01*
X70486D01*
X70481Y-78136D01*
X70469Y-77976D01*
X70447Y-77836D01*
X70418Y-77714D01*
X70379Y-77611D01*
X70332Y-77526D01*
X70277Y-77460D01*
X70213Y-77413D01*
X70141Y-77385D01*
X70060Y-77376D01*
X71912D01*
X71831Y-77385D01*
D02*
G37*
G36*
X57786Y-80200D02*
X57725Y-80143D01*
X57660Y-80092D01*
X57590Y-80047D01*
X57516Y-80008D01*
X57438Y-79975D01*
X57356Y-79948D01*
X57269Y-79927D01*
X57178Y-79912D01*
X57083Y-79903D01*
X56984Y-79900D01*
Y-79100D01*
X57083Y-79097D01*
X57178Y-79088D01*
X57269Y-79073D01*
X57356Y-79052D01*
X57438Y-79025D01*
X57516Y-78992D01*
X57590Y-78953D01*
X57660Y-78908D01*
X57725Y-78857D01*
X57786Y-78800D01*
Y-80200D01*
D02*
G37*
G36*
X65819Y-80862D02*
X65831Y-81019D01*
X65853Y-81158D01*
X65882Y-81279D01*
X65921Y-81380D01*
X65968Y-81464D01*
X66023Y-81529D01*
X66087Y-81575D01*
X66159Y-81603D01*
X66240Y-81612D01*
X64388D01*
X64469Y-81603D01*
X64541Y-81575D01*
X64605Y-81529D01*
X64661Y-81464D01*
X64708Y-81380D01*
X64746Y-81279D01*
X64776Y-81158D01*
X64797Y-81019D01*
X64810Y-80862D01*
X64814Y-80686D01*
X65814D01*
X65819Y-80862D01*
D02*
G37*
G36*
X76512Y-82698D02*
X76504Y-82622D01*
X76480Y-82554D01*
X76440Y-82494D01*
X76384Y-82442D01*
X76312Y-82398D01*
X76224Y-82362D01*
X76120Y-82334D01*
X76000Y-82314D01*
X75864Y-82302D01*
X75712Y-82298D01*
Y-81498D01*
X75864Y-81494D01*
X76000Y-81482D01*
X76120Y-81462D01*
X76224Y-81434D01*
X76312Y-81398D01*
X76384Y-81354D01*
X76440Y-81302D01*
X76480Y-81242D01*
X76504Y-81174D01*
X76512Y-81098D01*
Y-82698D01*
D02*
G37*
G36*
X74286Y-82298D02*
X74133Y-82302D01*
X73996Y-82314D01*
X73874Y-82334D01*
X73769Y-82362D01*
X73680Y-82398D01*
X73606Y-82442D01*
X73549Y-82494D01*
X73508Y-82554D01*
X73483Y-82622D01*
X73474Y-82698D01*
X73486Y-81612D01*
X74286Y-81498D01*
Y-82298D01*
D02*
G37*
G36*
X63326Y-83114D02*
X63317Y-83052D01*
X63291Y-82997D01*
X63249Y-82949D01*
X63191Y-82907D01*
X63115Y-82871D01*
X63024Y-82842D01*
X62915Y-82819D01*
X62790Y-82803D01*
X62648Y-82793D01*
X62490Y-82790D01*
Y-81790D01*
X62647Y-81788D01*
X63017Y-81762D01*
X63108Y-81746D01*
X63182Y-81726D01*
X63240Y-81703D01*
X63281Y-81676D01*
X63305Y-81646D01*
X63314Y-81612D01*
X63326Y-83114D01*
D02*
G37*
G36*
X78724Y-83883D02*
X78656Y-83907D01*
X78596Y-83947D01*
X78544Y-84004D01*
X78500Y-84077D01*
X78464Y-84167D01*
X78436Y-84272D01*
X78416Y-84394D01*
X78404Y-84532D01*
X78400Y-84686D01*
X77600D01*
X77596Y-84532D01*
X77584Y-84394D01*
X77564Y-84272D01*
X77536Y-84167D01*
X77500Y-84077D01*
X77456Y-84004D01*
X77404Y-83947D01*
X77344Y-83907D01*
X77276Y-83883D01*
X77200Y-83874D01*
X78800D01*
X78724Y-83883D01*
D02*
G37*
G36*
X61305Y-84601D02*
X61283Y-84650D01*
X61264Y-84707D01*
X61247Y-84771D01*
X61233Y-84843D01*
X61212Y-85009D01*
X61206Y-85103D01*
X61201Y-85313D01*
X60201Y-85554D01*
X60198Y-85447D01*
X60179Y-85256D01*
X60162Y-85172D01*
X60140Y-85097D01*
X60113Y-85030D01*
X60082Y-84970D01*
X60045Y-84919D01*
X60004Y-84876D01*
X59958Y-84840D01*
X61329Y-84559D01*
X61305Y-84601D01*
D02*
G37*
G36*
X99058Y-84965D02*
X99067Y-85060D01*
X99082Y-85151D01*
X99103Y-85237D01*
X99130Y-85320D01*
X99163Y-85398D01*
X99202Y-85472D01*
X99247Y-85541D01*
X99298Y-85606D01*
X99355Y-85667D01*
X97955D01*
X98012Y-85606D01*
X98063Y-85541D01*
X98108Y-85472D01*
X98147Y-85398D01*
X98180Y-85320D01*
X98207Y-85237D01*
X98228Y-85151D01*
X98243Y-85060D01*
X98252Y-84965D01*
X98255Y-84865D01*
X99055D01*
X99058Y-84965D01*
D02*
G37*
G36*
X110300Y-87631D02*
X110315Y-87801D01*
X110340Y-87951D01*
X110375Y-88081D01*
X110420Y-88191D01*
X110475Y-88281D01*
X110540Y-88351D01*
X110615Y-88401D01*
X110700Y-88431D01*
X110795Y-88441D01*
X109051D01*
X109097Y-88431D01*
X109139Y-88401D01*
X109176Y-88351D01*
X109207Y-88281D01*
X109234Y-88191D01*
X109256Y-88081D01*
X109273Y-87951D01*
X109293Y-87631D01*
X109295Y-87441D01*
X110295D01*
X110300Y-87631D01*
D02*
G37*
G36*
X78404Y-87793D02*
X78416Y-87929D01*
X78436Y-88049D01*
X78464Y-88153D01*
X78500Y-88241D01*
X78544Y-88313D01*
X78596Y-88369D01*
X78656Y-88409D01*
X78724Y-88433D01*
X78800Y-88441D01*
X77200D01*
X77276Y-88433D01*
X77344Y-88409D01*
X77404Y-88369D01*
X77456Y-88313D01*
X77500Y-88241D01*
X77536Y-88153D01*
X77564Y-88049D01*
X77584Y-87929D01*
X77596Y-87793D01*
X77600Y-87641D01*
X78400D01*
X78404Y-87793D01*
D02*
G37*
G36*
X109858Y-73295D02*
X110705Y-74142D01*
X111743Y-74741D01*
X112901Y-75051D01*
X113858D01*
X114065Y-75551D01*
X108353Y-81263D01*
X107911Y-81925D01*
X107756Y-82705D01*
Y-86929D01*
X107539D01*
Y-88354D01*
X107522Y-88441D01*
X107035Y-88555D01*
X105600D01*
X104820Y-88710D01*
X104158Y-89153D01*
X104158Y-89153D01*
X102752Y-90559D01*
X93095D01*
X93015Y-90479D01*
X92096Y-90098D01*
X91101D01*
X91017Y-90133D01*
X90461Y-89577D01*
Y-86929D01*
X79937D01*
Y-85398D01*
X81000D01*
Y-79202D01*
Y-77093D01*
X81462Y-76902D01*
X85330Y-80770D01*
X85959Y-81190D01*
X86700Y-81337D01*
X94998D01*
X96718Y-83058D01*
Y-84783D01*
X96536Y-84965D01*
X96155Y-85884D01*
Y-86879D01*
X96536Y-87798D01*
X97239Y-88501D01*
X98158Y-88881D01*
X99153D01*
X100071Y-88501D01*
X100775Y-87798D01*
X101155Y-86879D01*
Y-85884D01*
X100775Y-84965D01*
X100593Y-84783D01*
Y-82255D01*
X100445Y-81514D01*
X100025Y-80885D01*
X97170Y-78030D01*
X96541Y-77610D01*
X95800Y-77463D01*
X87502D01*
X86141Y-76101D01*
X86332Y-75639D01*
X89400D01*
X90180Y-75484D01*
X90842Y-75042D01*
X93345Y-72539D01*
X109422D01*
X109858Y-73295D01*
D02*
G37*
G36*
X61203Y-89641D02*
X61219Y-89835D01*
X61233Y-89921D01*
X61251Y-90000D01*
X61273Y-90071D01*
X61299Y-90136D01*
X61329Y-90193D01*
X61363Y-90243D01*
X61401Y-90286D01*
X60001D01*
X60039Y-90243D01*
X60073Y-90193D01*
X60103Y-90136D01*
X60129Y-90071D01*
X60151Y-90000D01*
X60169Y-89921D01*
X60183Y-89835D01*
X60193Y-89742D01*
X60201Y-89534D01*
X61201D01*
X61203Y-89641D01*
D02*
G37*
G36*
X75563Y-91395D02*
X75555Y-91319D01*
X75531Y-91250D01*
X75490Y-91190D01*
X75433Y-91138D01*
X75360Y-91094D01*
X75271Y-91058D01*
X75165Y-91031D01*
X75043Y-91010D01*
X74905Y-90999D01*
X74751Y-90995D01*
Y-90194D01*
X74905Y-90191D01*
X75043Y-90179D01*
X75165Y-90158D01*
X75271Y-90131D01*
X75360Y-90095D01*
X75433Y-90051D01*
X75490Y-89999D01*
X75531Y-89938D01*
X75555Y-89871D01*
X75563Y-89794D01*
Y-91395D01*
D02*
G37*
G36*
X109063Y-91594D02*
X109053Y-91500D01*
X109023Y-91414D01*
X108972Y-91339D01*
X108901Y-91274D01*
X108810Y-91220D01*
X108699Y-91175D01*
X108567Y-91140D01*
X108415Y-91114D01*
X108243Y-91100D01*
X108051Y-91094D01*
Y-90095D01*
X108243Y-90089D01*
X108415Y-90074D01*
X108567Y-90049D01*
X108699Y-90014D01*
X108810Y-89969D01*
X108901Y-89915D01*
X108972Y-89850D01*
X109023Y-89775D01*
X109053Y-89689D01*
X109063Y-89595D01*
Y-91594D01*
D02*
G37*
G36*
X43063D02*
X43053Y-91500D01*
X43023Y-91414D01*
X42972Y-91339D01*
X42901Y-91274D01*
X42810Y-91220D01*
X42699Y-91175D01*
X42567Y-91140D01*
X42415Y-91114D01*
X42243Y-91100D01*
X42051Y-91094D01*
Y-90095D01*
X42243Y-90089D01*
X42415Y-90074D01*
X42567Y-90049D01*
X42699Y-90014D01*
X42810Y-89969D01*
X42901Y-89915D01*
X42972Y-89850D01*
X43023Y-89775D01*
X43053Y-89689D01*
X43063Y-89595D01*
Y-91594D01*
D02*
G37*
G36*
X22947Y-89689D02*
X22977Y-89775D01*
X23028Y-89850D01*
X23099Y-89915D01*
X23190Y-89969D01*
X23301Y-90014D01*
X23433Y-90049D01*
X23585Y-90074D01*
X23757Y-90089D01*
X23949Y-90095D01*
Y-91094D01*
X23757Y-91100D01*
X23585Y-91114D01*
X23569Y-91117D01*
X23656Y-91209D01*
X23646Y-92613D01*
X23512Y-92486D01*
X23391Y-92387D01*
X23285Y-92316D01*
X23192Y-92274D01*
X23114Y-92261D01*
X23050Y-92276D01*
X23001Y-92320D01*
X22965Y-92392D01*
X22944Y-92493D01*
X22937Y-92623D01*
Y-91594D01*
Y-89595D01*
X22947Y-89689D01*
D02*
G37*
G36*
X91023Y-91781D02*
X90613Y-92770D01*
X90608Y-92760D01*
X90594Y-92750D01*
X90574Y-92742D01*
X90545Y-92735D01*
X90509Y-92729D01*
X90466Y-92724D01*
X90290Y-92716D01*
X90216Y-92716D01*
X90528Y-91716D01*
X91023Y-91781D01*
D02*
G37*
G36*
X92355Y-91936D02*
X92405Y-91970D01*
X92463Y-92000D01*
X92527Y-92026D01*
X92599Y-92048D01*
X92677Y-92066D01*
X92763Y-92080D01*
X92857Y-92090D01*
X93064Y-92098D01*
Y-93098D01*
X92957Y-93100D01*
X92763Y-93116D01*
X92677Y-93130D01*
X92599Y-93148D01*
X92527Y-93170D01*
X92463Y-93196D01*
X92405Y-93226D01*
X92355Y-93260D01*
X92313Y-93298D01*
Y-91898D01*
X92355Y-91936D01*
D02*
G37*
G36*
X24502Y-94142D02*
X24518Y-94335D01*
X24532Y-94421D01*
X24550Y-94500D01*
X24572Y-94572D01*
X24598Y-94636D01*
X24628Y-94693D01*
X24662Y-94743D01*
X24700Y-94786D01*
X23300D01*
X23338Y-94743D01*
X23372Y-94693D01*
X23402Y-94636D01*
X23428Y-94572D01*
X23450Y-94500D01*
X23468Y-94421D01*
X23482Y-94335D01*
X23492Y-94242D01*
X23500Y-94034D01*
X24500D01*
X24502Y-94142D01*
D02*
G37*
%LPC*%
G36*
X54051Y-6000D02*
X50500D01*
Y-9551D01*
X50533D01*
X51564Y-9275D01*
X52487Y-8742D01*
X53242Y-7987D01*
X53775Y-7064D01*
X54051Y-6033D01*
Y-6000D01*
D02*
G37*
G36*
X49500D02*
X45949D01*
Y-6033D01*
X46225Y-7064D01*
X46758Y-7987D01*
X47513Y-8742D01*
X48436Y-9275D01*
X49467Y-9551D01*
X49500D01*
Y-6000D01*
D02*
G37*
G36*
X89961Y-99240D02*
X86705D01*
Y-101906D01*
X89961D01*
Y-99240D01*
D02*
G37*
G36*
X115551D02*
X112295D01*
Y-101906D01*
X115551D01*
Y-99240D01*
D02*
G37*
G36*
X111295D02*
X108039D01*
Y-101906D01*
X111295D01*
Y-99240D01*
D02*
G37*
G36*
X21500Y-83798D02*
X19500D01*
Y-86298D01*
X21500D01*
Y-83798D01*
D02*
G37*
G36*
X18500D02*
X16500D01*
Y-86298D01*
X18500D01*
Y-83798D01*
D02*
G37*
G36*
X23961Y-99240D02*
X20705D01*
Y-101906D01*
X23961D01*
Y-99240D01*
D02*
G37*
G36*
X45295D02*
X42039D01*
Y-101906D01*
X45295D01*
Y-99240D01*
D02*
G37*
G36*
X19705D02*
X16449D01*
Y-101906D01*
X19705D01*
Y-99240D01*
D02*
G37*
%LPD*%
D10*
X86100Y-34702D02*
X86233D01*
X85865D02*
X86100D01*
X85733Y-34833D02*
X85865Y-34702D01*
X86100D02*
Y-34533D01*
Y-35200D02*
Y-34702D01*
X86233D02*
X87233Y-33702D01*
Y-33202D01*
X31500Y-66300D02*
Y-62900D01*
X32732Y-67532D02*
X52739D01*
X31500Y-66300D02*
X32732Y-67532D01*
X56572Y-63700D02*
X59700D01*
X52739Y-67532D02*
X56572Y-63700D01*
X43000Y-66000D02*
X50700D01*
X55000Y-61700D02*
Y-55400D01*
X50700Y-66000D02*
X55000Y-61700D01*
X62000Y-66000D02*
X82943D01*
X59700Y-63700D02*
X62000Y-66000D01*
X59200Y-67500D02*
X83565D01*
X57400Y-65700D02*
X59200Y-67500D01*
X88553Y-63800D02*
X89139Y-63214D01*
X82943Y-66000D02*
X85143Y-63800D01*
X89139Y-60361D02*
X90000Y-59500D01*
X89139Y-63214D02*
Y-60361D01*
X85143Y-63800D02*
X88553D01*
X60000Y-59500D02*
X64500Y-64000D01*
X85100Y-61000D02*
Y-53650D01*
X64500Y-64000D02*
X82100D01*
X85100Y-61000D01*
X83565Y-67500D02*
X85764Y-65300D01*
X95200D01*
X102098Y-58402D01*
X14800Y-80200D02*
X21854D01*
X8800Y-74200D02*
X14800Y-80200D01*
X65314Y-83087D02*
Y-80686D01*
X65302Y-83100D02*
X65314Y-83087D01*
Y-80686D02*
X66200Y-79800D01*
X69500D01*
X70986Y-78314D01*
Y-76513D01*
X71598Y-75900D01*
X32500Y-81800D02*
X62000D01*
X21854Y-80200D02*
X21904Y-80250D01*
X30950D01*
X32500Y-81800D01*
X62000D02*
X62490Y-82290D01*
X64492D01*
X65302Y-83100D01*
X51500Y-50500D02*
X62828D01*
X50064Y-59436D02*
Y-51936D01*
X51500Y-50500D01*
X36600Y-48300D02*
X62200D01*
X34300Y-54600D02*
Y-50600D01*
X36600Y-48300D01*
X14200Y-76400D02*
X15000Y-77200D01*
X19000D01*
X62828Y-50500D02*
X68800Y-44528D01*
Y-40400D01*
X62200Y-48300D02*
X66000Y-44500D01*
X50000Y-59500D02*
X50064Y-59436D01*
X63021Y-52600D02*
X72567Y-43055D01*
X57800Y-52600D02*
X63021D01*
X55000Y-55400D02*
X57800Y-52600D01*
X79900Y-39398D02*
Y-38598D01*
X78900Y-40898D02*
X79900Y-39898D01*
Y-39398D01*
X78102Y-40898D02*
X78900D01*
X70000Y-49000D02*
X78102Y-40898D01*
X70000Y-59500D02*
Y-49000D01*
X73567Y-34702D02*
X74631D01*
X75429Y-35500D01*
X75700D01*
X72567Y-33702D02*
Y-33202D01*
Y-33702D02*
X73567Y-34702D01*
X72567Y-43055D02*
Y-39398D01*
X105600Y-90595D02*
X109795D01*
X91598Y-92598D02*
X103596D01*
X105600Y-90595D01*
X61500Y-35100D02*
Y-31100D01*
Y-35100D02*
X61600Y-35200D01*
X63400Y-29200D02*
X78700D01*
X61500Y-31100D02*
X63400Y-29200D01*
X78700D02*
X79787Y-30287D01*
Y-33089D02*
Y-30287D01*
Y-33089D02*
X79900Y-33202D01*
X93567Y-34702D02*
X94567Y-33702D01*
Y-33202D01*
X92640Y-34702D02*
X93567D01*
X91741Y-35600D02*
X92640Y-34702D01*
X91200Y-35600D02*
X91741D01*
X66233Y-33902D02*
X68002D01*
X68300Y-34200D01*
X65233Y-32902D02*
Y-32402D01*
Y-32902D02*
X66233Y-33902D01*
X85100Y-53650D02*
X94567Y-44184D01*
Y-38598D01*
X67647Y-39248D02*
X68800Y-40400D01*
X65882Y-39248D02*
X67647D01*
X65233Y-38598D02*
X65882Y-39248D01*
X57900Y-33502D02*
Y-30200D01*
X50000Y-19105D02*
X50691Y-19796D01*
Y-22991D02*
Y-19796D01*
Y-22991D02*
X57900Y-30200D01*
X83600Y-73600D02*
X89400D01*
X92500Y-70500D01*
X22940Y-40000D02*
X51000D01*
X21220Y-41720D02*
X22940Y-40000D01*
X102098Y-58402D02*
X111402D01*
X119000Y-73500D02*
Y-64000D01*
X109795Y-82705D02*
X119000Y-73500D01*
X109795Y-90595D02*
Y-82705D01*
X92500Y-70500D02*
X113500D01*
X22335Y-90595D02*
X47795D01*
X22205D02*
X22335D01*
X24000Y-92260D01*
Y-95500D02*
Y-92260D01*
X84205Y-90595D02*
X88595D01*
X90216Y-92216D01*
X91216D02*
X91598Y-92598D01*
X90216Y-92216D02*
X91216D01*
X60500Y-84000D02*
X60701Y-84201D01*
Y-91000D02*
Y-84201D01*
X40538Y-63538D02*
X43000Y-66000D01*
X40538Y-63538D02*
Y-60038D01*
X40000Y-59500D02*
X40538Y-60038D01*
D15*
X78295Y-102406D02*
D03*
X52705D02*
D03*
X78295Y-90595D02*
D03*
X52705D02*
D03*
X111795Y-102406D02*
D03*
X86205D02*
D03*
X111795Y-90595D02*
D03*
X86205D02*
D03*
X45795Y-102406D02*
D03*
X20205D02*
D03*
X45795Y-90595D02*
D03*
X20205D02*
D03*
D16*
X65302Y-83100D02*
D03*
X71498D02*
D03*
X71598Y-75900D02*
D03*
X65500D02*
D03*
X71098Y-26000D02*
D03*
X64902D02*
D03*
D17*
X110500Y-5500D02*
D03*
X116405D02*
D03*
X80000D02*
D03*
X74094D02*
D03*
D18*
X57900Y-39398D02*
D03*
Y-33202D02*
D03*
X101900Y-39398D02*
D03*
Y-33202D02*
D03*
X79600Y-33302D02*
D03*
Y-39498D02*
D03*
X65233Y-33202D02*
D03*
Y-39398D02*
D03*
X72567Y-33202D02*
D03*
Y-39398D02*
D03*
X87233Y-33202D02*
D03*
Y-39398D02*
D03*
X94567Y-33202D02*
D03*
Y-39398D02*
D03*
X19000Y-83298D02*
D03*
Y-77200D02*
D03*
X78000Y-81898D02*
D03*
Y-75702D02*
D03*
D28*
X30900Y-73200D02*
X56065D01*
X56865Y-74000D02*
X57000D01*
X56065Y-73200D02*
X56865Y-74000D01*
X52700Y-34500D02*
X53500Y-35300D01*
X39906Y-33500D02*
X41106Y-34700D01*
X52682Y-34500D02*
X52700D01*
X39500Y-33500D02*
X39906D01*
X41106Y-34700D02*
X46867D01*
X47817Y-33750D01*
X51932D01*
X52682Y-34500D01*
X95400Y-51100D02*
X98100Y-48400D01*
X95400Y-54700D02*
Y-51100D01*
X98100Y-48400D02*
Y-29100D01*
X95500Y-26500D02*
X98100Y-29100D01*
X19900Y-36000D02*
X24253D01*
X17400Y-38500D02*
X19900Y-36000D01*
X17400Y-42300D02*
Y-38500D01*
X13550Y-65450D02*
Y-46150D01*
X17400Y-42300D01*
X96039Y-55203D02*
X122098D01*
X95535Y-54700D02*
X96039Y-55203D01*
X95400Y-54700D02*
X95535D01*
X53500Y-43000D02*
Y-35300D01*
Y-43000D02*
X55000Y-44500D01*
X25600Y-78500D02*
X30900Y-73200D01*
X22629Y-78500D02*
X25600D01*
X21750Y-77621D02*
Y-72529D01*
Y-77621D02*
X22629Y-78500D01*
X11900Y-67100D02*
X13550Y-65450D01*
X11000Y-68000D02*
X11900Y-67100D01*
X4000Y-68000D02*
X11000D01*
X14950Y-70150D02*
X19371D01*
X11900Y-67100D02*
X14950Y-70150D01*
X19371D02*
X21750Y-72529D01*
D29*
X32500Y-46900D02*
X55287D01*
X28900Y-43300D02*
X32500Y-46900D01*
X59800Y-74000D02*
X61915Y-71885D01*
X57000Y-74000D02*
X59800D01*
X61915Y-71885D02*
X76585D01*
X19320Y-40933D02*
X21787Y-38467D01*
X45434D01*
X47900Y-36000D01*
X51000D01*
X15200Y-63900D02*
Y-47300D01*
X19320Y-43180D01*
Y-40933D01*
X13543Y-41857D02*
Y-30619D01*
X26356Y-17805D01*
X10984Y-41684D02*
Y-30316D01*
X27900Y-13400D01*
X7700Y-45400D02*
X7806Y-45506D01*
Y-46806D02*
Y-45506D01*
Y-46806D02*
X11900Y-50900D01*
Y-61200D02*
Y-50900D01*
X21980Y-43620D02*
X22007D01*
X17700Y-47900D02*
X21980Y-43620D01*
X24227Y-41400D02*
X47900D01*
X22007Y-43620D02*
X24227Y-41400D01*
X47900D02*
X51000Y-44500D01*
X56900Y-45287D02*
Y-43600D01*
X55287Y-46900D02*
X56900Y-45287D01*
X55400Y-42100D02*
X56900Y-43600D01*
X55400Y-42100D02*
Y-33200D01*
X41305Y-19105D02*
X55400Y-33200D01*
X40000Y-19105D02*
X41305D01*
X27900Y-13400D02*
X74295D01*
X80000Y-19105D01*
X88900Y-11000D02*
X105600Y-27700D01*
X55400Y-11000D02*
X88900D01*
X26356Y-17805D02*
X35573D01*
X38323Y-15056D01*
X65951D01*
X70000Y-19105D01*
X31532Y-69032D02*
X85568D01*
X87300Y-67300D01*
X23500Y-56000D02*
X26850Y-59350D01*
X29300Y-66800D02*
X31532Y-69032D01*
X29300Y-66800D02*
Y-61836D01*
X26850Y-59386D02*
X29300Y-61836D01*
X26850Y-59386D02*
Y-59350D01*
X29985Y-70585D02*
X77885D01*
X23972Y-58347D02*
X27900Y-62274D01*
Y-68500D02*
X29985Y-70585D01*
X27900Y-68500D02*
Y-62274D01*
X32300Y-58600D02*
X33600Y-59900D01*
Y-64600D02*
Y-59900D01*
X55061Y-92950D02*
Y-92360D01*
X52705Y-90595D02*
X53296D01*
X55061Y-92360D01*
Y-92950D02*
X59010Y-96900D01*
X77700Y-75402D02*
Y-73000D01*
Y-75402D02*
X78000Y-75702D01*
X76585Y-71885D02*
X77700Y-73000D01*
X77885Y-70585D02*
X86700Y-79400D01*
X24000Y-73300D02*
X26600Y-70700D01*
X24000Y-76000D02*
Y-73300D01*
X9300Y-63800D02*
X11900Y-61200D01*
X15200Y-63900D02*
X17000Y-65700D01*
X17700Y-58800D02*
Y-47900D01*
Y-58800D02*
X21144Y-62244D01*
X19000Y-57887D02*
Y-51800D01*
Y-57887D02*
X20760Y-59647D01*
X20700Y-50100D02*
X28800D01*
X19000Y-51800D02*
X20700Y-50100D01*
X20900Y-55900D02*
X21049Y-56049D01*
Y-57262D02*
Y-56049D01*
Y-57262D02*
X22134Y-58347D01*
X23972D01*
X73106Y-90595D02*
X78295D01*
X66800Y-96900D02*
X73106Y-90595D01*
X59010Y-96900D02*
X66800D01*
X78000Y-90299D02*
Y-81898D01*
Y-90299D02*
X78295Y-90595D01*
X71998Y-83100D02*
X73200Y-81898D01*
X78000D01*
X71498Y-83100D02*
X71998D01*
X86700Y-79400D02*
X95800D01*
X98655Y-86382D02*
Y-82255D01*
X95800Y-79400D02*
X98655Y-82255D01*
X23434Y-59647D02*
X26600Y-62813D01*
Y-70700D02*
Y-62813D01*
X21144Y-63604D02*
Y-62244D01*
Y-63604D02*
X21220Y-63680D01*
X20760Y-59647D02*
X23434D01*
X17000Y-65700D02*
X22600D01*
X31300Y-54300D02*
Y-52600D01*
X28800Y-50100D02*
X31300Y-52600D01*
X22600Y-65700D02*
X24700Y-63600D01*
X72198Y-24900D02*
X74400D01*
X77750Y-9451D02*
X92951D01*
X74094Y-5795D02*
X77750Y-9451D01*
X104202Y-39398D02*
X105600Y-38000D01*
X101900Y-39398D02*
X104202D01*
X105600Y-38000D02*
Y-27700D01*
X101900Y-33202D02*
Y-26900D01*
X94105Y-19105D02*
X101900Y-26900D01*
X90000Y-19105D02*
X94105D01*
X80000Y-53400D02*
X87233Y-46167D01*
Y-38598D01*
X58230Y-41330D02*
X61000Y-44100D01*
X58230Y-41330D02*
Y-38928D01*
X57900Y-38598D02*
X58230Y-38928D01*
X80000Y-59500D02*
Y-53400D01*
X71098Y-26000D02*
X72198Y-24900D01*
X61400Y-26000D02*
X64902D01*
X60000Y-24600D02*
X61400Y-26000D01*
X60000Y-24600D02*
Y-19105D01*
X89172Y-18277D02*
X90000Y-19105D01*
X31500Y-76000D02*
X35000Y-79500D01*
X58500D01*
X94802Y-13698D02*
X112500Y-31396D01*
X94802Y-13698D02*
Y-11302D01*
X92951Y-9451D02*
X94802Y-11302D01*
X96150Y-12500D02*
Y-11210D01*
X97909Y-9451D02*
X112750D01*
X96150Y-11210D02*
X97909Y-9451D01*
X112750D02*
X116405Y-5795D01*
Y-5500D01*
X116000Y-41500D02*
Y-32350D01*
X96150Y-12500D02*
X116000Y-32350D01*
X112500Y-41500D02*
Y-31396D01*
X74094Y-5795D02*
Y-5500D01*
X80000D02*
X89000D01*
X100500D02*
X110500D01*
D30*
X40000Y-19106D02*
D03*
X50000D02*
D03*
X60000D02*
D03*
X70000D02*
D03*
X80000D02*
D03*
X90000D02*
D03*
Y-59500D02*
D03*
X80000D02*
D03*
X70000D02*
D03*
X60000D02*
D03*
X50000D02*
D03*
X40000D02*
D03*
D31*
X100500Y-5500D02*
D03*
X113500Y-70500D02*
D03*
X125500D02*
D03*
X60600Y-101700D02*
D03*
X31000Y-101500D02*
D03*
X38000Y-6000D02*
D03*
X50000Y-5500D02*
D03*
X70500Y-101800D02*
D03*
X97500Y-100000D02*
D03*
X89000Y-5500D02*
D03*
D32*
X4000Y-63000D02*
D03*
Y-53000D02*
D03*
Y-58000D02*
D03*
D33*
Y-68000D02*
D03*
D34*
X122441Y-93701D02*
D03*
X64961Y-5512D02*
D03*
X7874Y-93701D02*
D03*
D35*
X86100Y-35200D02*
D03*
X84700Y-23100D02*
D03*
X95400Y-54700D02*
D03*
X7700Y-45400D02*
D03*
X10984Y-41684D02*
D03*
X13543Y-41857D02*
D03*
X28900Y-43300D02*
D03*
X55400Y-11000D02*
D03*
X31500Y-62900D02*
D03*
X32300Y-58600D02*
D03*
X33600Y-64600D02*
D03*
X57400Y-65700D02*
D03*
X12600Y-82000D02*
D03*
X24000Y-76000D02*
D03*
X15000Y-97500D02*
D03*
X20900Y-55900D02*
D03*
X9300Y-63800D02*
D03*
X8800Y-74200D02*
D03*
X61500Y-95000D02*
D03*
X40500Y-11000D02*
D03*
X17700Y-63400D02*
D03*
X14300Y-76300D02*
D03*
X31300Y-54300D02*
D03*
X24700Y-63600D02*
D03*
X21220Y-63680D02*
D03*
X34300Y-54600D02*
D03*
X74400Y-24900D02*
D03*
X61600Y-35200D02*
D03*
X91200Y-35600D02*
D03*
X75700Y-35500D02*
D03*
X68300Y-34200D02*
D03*
X61000Y-44100D02*
D03*
X87300Y-67300D02*
D03*
X108500Y-51500D02*
D03*
X108700Y-32500D02*
D03*
X80800Y-96700D02*
D03*
X83900Y-81300D02*
D03*
X9100Y-86600D02*
D03*
X35600Y-76600D02*
D03*
X59600Y-76300D02*
D03*
X35400Y-22900D02*
D03*
X83600Y-73600D02*
D03*
X122098Y-55203D02*
D03*
X23500Y-56000D02*
D03*
X66000Y-44500D02*
D03*
X21220Y-41720D02*
D03*
X51000Y-36000D02*
D03*
Y-40000D02*
D03*
Y-44500D02*
D03*
X55000D02*
D03*
X119500Y-50000D02*
D03*
X120000Y-41500D02*
D03*
Y-36500D02*
D03*
X111402Y-58402D02*
D03*
X119000Y-64000D02*
D03*
X98655Y-86382D02*
D03*
X31500Y-76000D02*
D03*
X58500Y-79500D02*
D03*
X57000Y-74000D02*
D03*
X24000Y-95500D02*
D03*
X91598Y-92598D02*
D03*
X60701Y-91000D02*
D03*
X60500Y-84000D02*
D03*
X95500Y-26500D02*
D03*
X116000Y-41500D02*
D03*
X112500D02*
D03*
D36*
X78000Y-44700D02*
D03*
X24253Y-36000D02*
D03*
X39500Y-33500D02*
D03*
M02*
