G04*
G04 #@! TF.GenerationSoftware,Altium Limited,Altium Designer,23.10.1 (27)*
G04*
G04 Layer_Color=65535*
%FSLAX25Y25*%
%MOIN*%
G70*
G04*
G04 #@! TF.SameCoordinates,442CD837-0526-4CC3-B5C4-5EBA4434BA87*
G04*
G04*
G04 #@! TF.FilePolarity,Positive*
G04*
G01*
G75*
%ADD10C,0.01000*%
%ADD11C,0.01968*%
%ADD12C,0.00787*%
%ADD13C,0.03937*%
%ADD14C,0.00500*%
D10*
X69130Y-96500D02*
G03*
X69130Y-96500I-3630J0D01*
G01*
X61408Y-102013D02*
G03*
X61408Y-102013I-1420J0D01*
G01*
X72432D02*
G03*
X72432Y-102013I-1420J0D01*
G01*
Y-90988D02*
G03*
X72432Y-90988I-1420J0D01*
G01*
X61408D02*
G03*
X61408Y-90988I-1420J0D01*
G01*
X102630Y-96500D02*
G03*
X102630Y-96500I-3630J0D01*
G01*
X94908Y-102013D02*
G03*
X94908Y-102013I-1420J0D01*
G01*
X105932D02*
G03*
X105932Y-102013I-1420J0D01*
G01*
Y-90988D02*
G03*
X105932Y-90988I-1420J0D01*
G01*
X94908D02*
G03*
X94908Y-90988I-1420J0D01*
G01*
X36630Y-96500D02*
G03*
X36630Y-96500I-3630J0D01*
G01*
X28908Y-102013D02*
G03*
X28908Y-102013I-1420J0D01*
G01*
X39932D02*
G03*
X39932Y-102013I-1420J0D01*
G01*
Y-90988D02*
G03*
X39932Y-90988I-1420J0D01*
G01*
X28908D02*
G03*
X28908Y-90988I-1420J0D01*
G01*
X56642Y-105359D02*
X74358D01*
X56642D02*
Y-87642D01*
X74358D01*
Y-105359D02*
Y-87642D01*
X124055Y-66862D02*
Y-11744D01*
X5945D02*
X5945Y-66862D01*
X124055D01*
X5945Y-11744D02*
X124055D01*
X90142Y-105359D02*
X107858D01*
X90142D02*
Y-87642D01*
X107858D01*
Y-105359D02*
Y-87642D01*
X24142Y-105359D02*
X41858D01*
X24142D02*
Y-87642D01*
X41858D01*
Y-105359D02*
Y-87642D01*
D11*
X119438Y-52803D02*
G03*
X119438Y-52803I-1000J0D01*
G01*
X33938Y-52303D02*
G03*
X33938Y-52303I-1000J0D01*
G01*
X63375D02*
G03*
X63375Y-52303I-1000J0D01*
G01*
X92375D02*
G03*
X92375Y-52303I-1000J0D01*
G01*
D12*
X65447Y-80246D02*
X71353D01*
X65447Y-85954D02*
X71353D01*
X65547Y-78754D02*
X71453D01*
X65547Y-73046D02*
X71453D01*
X55046Y-39253D02*
Y-33347D01*
X60754Y-39253D02*
Y-33347D01*
X99046Y-39253D02*
Y-33347D01*
X104754Y-39253D02*
Y-33347D01*
X82454Y-39353D02*
Y-33447D01*
X76746Y-39353D02*
Y-33447D01*
X68088Y-39253D02*
Y-33347D01*
X62379Y-39253D02*
Y-33347D01*
X75421Y-39253D02*
Y-33347D01*
X69712Y-39253D02*
Y-33347D01*
X65047Y-28854D02*
X70953D01*
X65047Y-23146D02*
X70953D01*
X90088Y-39253D02*
Y-33347D01*
X84379Y-39253D02*
Y-33347D01*
X97421Y-39253D02*
Y-33347D01*
X91712Y-39253D02*
Y-33347D01*
X16146Y-83153D02*
Y-77247D01*
X21854Y-83153D02*
Y-77247D01*
X75146Y-81753D02*
Y-75847D01*
X80854Y-81753D02*
Y-75847D01*
D13*
X57750Y-49803D02*
X59250Y-41802D01*
X86813Y-50302D02*
X88313Y-42303D01*
X69563Y-50302D02*
X71062Y-42303D01*
X88687Y-36803D02*
X90188Y-28802D01*
X74937Y-39803D02*
X84438D01*
X76688Y-26803D02*
X86187D01*
X73188Y-52802D02*
X82687D01*
X71438Y-36803D02*
X72938Y-28802D01*
X28375Y-49803D02*
X29875Y-41803D01*
X40500Y-49803D02*
X42000Y-41802D01*
X59625Y-36303D02*
X61125Y-28302D01*
X45875Y-39303D02*
X55375D01*
X47625Y-26302D02*
X57125D01*
X44125Y-52302D02*
X53625D01*
X42375Y-36303D02*
X43875Y-28302D01*
X113875Y-50303D02*
X115375Y-42303D01*
X96625Y-50303D02*
X98125Y-42303D01*
X115750Y-36803D02*
X117250Y-28803D01*
X103750Y-26803D02*
X113250D01*
X100250Y-52803D02*
X109750D01*
X98500Y-36803D02*
X100000Y-28803D01*
X13000Y-36303D02*
X14500Y-28303D01*
X14750Y-52303D02*
X24250D01*
X18250Y-26303D02*
X27750D01*
X16500Y-39303D02*
X26000D01*
X30250Y-36303D02*
X31750Y-28303D01*
X11125Y-49803D02*
X12625Y-41803D01*
X102500Y-39803D02*
X112000D01*
D14*
X118374Y-7665D02*
Y-3335D01*
X108531Y-7665D02*
Y-3335D01*
Y-7665D02*
X118374D01*
X108531Y-3335D02*
X118374D01*
X72126Y-7665D02*
Y-3335D01*
X81968Y-7665D02*
Y-3335D01*
X72126D02*
X81968D01*
X72126Y-7665D02*
X81968D01*
X49434Y-81667D02*
X48768Y-81001D01*
X47435D01*
X46768Y-81667D01*
Y-82334D01*
X47435Y-83000D01*
X48768D01*
X49434Y-83666D01*
Y-84333D01*
X48768Y-84999D01*
X47435D01*
X46768Y-84333D01*
X50767Y-81001D02*
Y-84999D01*
X52100Y-83666D01*
X53433Y-84999D01*
Y-81001D01*
X54766Y-81667D02*
X55432Y-81001D01*
X56765D01*
X57432Y-81667D01*
Y-82334D01*
X56765Y-83000D01*
X56099D01*
X56765D01*
X57432Y-83666D01*
Y-84333D01*
X56765Y-84999D01*
X55432D01*
X54766Y-84333D01*
X97501Y-81667D02*
X96834Y-81001D01*
X95501D01*
X94835Y-81667D01*
Y-82334D01*
X95501Y-83000D01*
X96834D01*
X97501Y-83666D01*
Y-84333D01*
X96834Y-84999D01*
X95501D01*
X94835Y-84333D01*
X98834Y-81001D02*
Y-84999D01*
X100166Y-83666D01*
X101499Y-84999D01*
Y-81001D01*
X102832Y-84999D02*
X104165D01*
X103499D01*
Y-81001D01*
X102832Y-81667D01*
X29834Y-80667D02*
X29168Y-80001D01*
X27835D01*
X27168Y-80667D01*
Y-81334D01*
X27835Y-82000D01*
X29168D01*
X29834Y-82666D01*
Y-83333D01*
X29168Y-83999D01*
X27835D01*
X27168Y-83333D01*
X31167Y-80001D02*
Y-83999D01*
X32500Y-82666D01*
X33833Y-83999D01*
Y-80001D01*
X37832Y-83999D02*
X35166D01*
X37832Y-81334D01*
Y-80667D01*
X37165Y-80001D01*
X35832D01*
X35166Y-80667D01*
X18366Y-69768D02*
X17699Y-69101D01*
X16366D01*
X15700Y-69768D01*
Y-70434D01*
X16366Y-71101D01*
X17699D01*
X18366Y-71767D01*
Y-72434D01*
X17699Y-73100D01*
X16366D01*
X15700Y-72434D01*
X21698Y-73100D02*
X20365D01*
X19699Y-72434D01*
Y-71101D01*
X20365Y-70434D01*
X21698D01*
X22365Y-71101D01*
Y-71767D01*
X19699D01*
X23697Y-73100D02*
Y-70434D01*
X25697D01*
X26363Y-71101D01*
Y-73100D01*
X27696D02*
X29695D01*
X30362Y-72434D01*
X29695Y-71767D01*
X28363D01*
X27696Y-71101D01*
X28363Y-70434D01*
X30362D01*
X32361Y-73100D02*
X33694D01*
X34361Y-72434D01*
Y-71101D01*
X33694Y-70434D01*
X32361D01*
X31695Y-71101D01*
Y-72434D01*
X32361Y-73100D01*
X35693Y-70434D02*
Y-73100D01*
Y-71767D01*
X36360Y-71101D01*
X37026Y-70434D01*
X37693D01*
X43691Y-69101D02*
Y-71767D01*
X45024Y-73100D01*
X46357Y-71767D01*
Y-69101D01*
X47690Y-73100D02*
X49023D01*
X48356D01*
Y-69101D01*
X47690Y-69768D01*
X51022Y-73100D02*
Y-72434D01*
X51688D01*
Y-73100D01*
X51022D01*
X54354Y-69768D02*
X55021Y-69101D01*
X56353D01*
X57020Y-69768D01*
Y-72434D01*
X56353Y-73100D01*
X55021D01*
X54354Y-72434D01*
Y-69768D01*
M02*
