  0
SECTION
  2
HEADER
  9
$ACADVER
  1
AC1015
  9
$ACADMAINTVER
 70
     6
  9
$DWGCODEPAGE
  3
ANSI_1252
  9
$INSBASE
 10
0.0
 20
0.0
 30
0.0
  9
$EXTMIN
 10
0.0
 20
0.0
 30
0.0
  9
$EXTMAX
 10
153.033066
 20
127.808441
 30
2.0
  9
$LIMMIN
 10
0.0
 20
0.0
  9
$LIMMAX
 10
420.0
 20
297.0
  9
$ORTHOMODE
 70
     0
  9
$REGENMODE
 70
     1
  9
$FILLMODE
 70
     1
  9
$QTEXTMODE
 70
     0
  9
$MIRRTEXT
 70
     1
  9
$LTSCALE
 40
1.0
  9
$ATTMODE
 70
     1
  9
$TEXTSIZE
 40
2.5
  9
$TRACEWID
 40
1.0
  9
$TEXTSTYLE
  7
Standard
  9
$CLAYER
  8
0
  9
$CELTYPE
  6
ByLayer
  9
$CECOLOR
 62
   256
  9
$CELTSCALE
 40
1.0
  9
$DISPSILH
 70
     0
  9
$DIMSCALE
 40
1.0
  9
$DIMASZ
 40
2.5
  9
$DIMEXO
 40
0.625
  9
$DIMDLI
 40
3.75
  9
$DIMRND
 40
0.0
  9
$DIMDLE
 40
0.0
  9
$DIMEXE
 40
1.25
  9
$DIMTP
 40
0.0
  9
$DIMTM
 40
0.0
  9
$DIMTXT
 40
2.5
  9
$DIMCEN
 40
2.5
  9
$DIMTSZ
 40
0.0
  9
$DIMTOL
 70
     0
  9
$DIMLIM
 70
     0
  9
$DIMTIH
 70
     0
  9
$DIMTOH
 70
     0
  9
$DIMSE1
 70
     0
  9
$DIMSE2
 70
     0
  9
$DIMTAD
 70
     1
  9
$DIMZIN
 70
     8
  9
$DIMBLK
  1

  9
$DIMASO
 70
     1
  9
$DIMSHO
 70
     1
  9
$DIMPOST
  1

  9
$DIMAPOST
  1

  9
$DIMALT
 70
     0
  9
$DIMALTD
 70
     3
  9
$DIMALTF
 40
0.03937
  9
$DIMLFAC
 40
1.0
  9
$DIMTOFL
 70
     1
  9
$DIMTVP
 40
0.0
  9
$DIMTIX
 70
     0
  9
$DIMSOXD
 70
     0
  9
$DIMSAH
 70
     0
  9
$DIMBLK1
  1

  9
$DIMBLK2
  1

  9
$DIMSTYLE
  2

  9
$DIMCLRD
 70
     0
  9
$DIMCLRE
 70
     0
  9
$DIMCLRT
 70
     0
  9
$DIMTFAC
 40
1.0
  9
$DIMGAP
 40
0.625
  9
$DIMJUST
 70
     0
  9
$DIMSD1
 70
     0
  9
$DIMSD2
 70
     0
  9
$DIMTOLJ
 70
     0
  9
$DIMTZIN
 70
     8
  9
$DIMALTZ
 70
     0
  9
$DIMALTTZ
 70
     0
  9
$DIMUPT
 70
     0
  9
$DIMDEC
 70
     2
  9
$DIMTDEC
 70
     2
  9
$DIMALTU
 70
     2
  9
$DIMALTTD
 70
     3
  9
$DIMTXSTY
  7
Standard
  9
$DIMAUNIT
 70
     0
  9
$DIMADEC
 70
     0
  9
$DIMALTRND
 40
0.0
  9
$DIMAZIN
 70
     0
  9
$DIMDSEP
 70
    44
  9
$DIMATFIT
 70
     0
  9
$DIMFRAC
 70
     0
  9
$DIMLDRBLK
  1

  9
$DIMLUNIT
 70
     2
  9
$DIMLWD
 70
    -2
  9
$DIMLWE
 70
    -2
  9
$DIMTMOVE
 70
     0
  9
$LUNITS
 70
     2
  9
$LUPREC
 70
     4
  9
$SKETCHINC
 40
1.0
  9
$FILLETRAD
 40
2.5
  9
$AUNITS
 70
     0
  9
$AUPREC
 70
     0
  9
$MENU
  1
.
  9
$ELEVATION
 40
0.0
  9
$PELEVATION
 40
0.0
  9
$THICKNESS
 40
0.0
  9
$LIMCHECK
 70
     0
  9
$CHAMFERA
 40
2.5
  9
$CHAMFERB
 40
2.5
  9
$CHAMFERC
 40
0.0
  9
$CHAMFERD
 40
0.0
  9
$SKPOLY
 70
     0
  9
$TDCREATE
 40
0.000000000
  9
$TDUCREATE
 40
0.000000000
  9
$TDUPDATE
 40
0.000000000
  9
$TDUUPDATE
 40
0.000000000
  9
$TDINDWG
 40
0.0000000000
  9
$TDUSRTIMER
 40
0.0000000000
  9
$USRTIMER
 70
     1
  9
$ANGBASE
 50
0.0
  9
$ANGDIR
 70
     0
  9
$PDMODE
 70
     0
  9
$PDSIZE
 40
0.0
  9
$PLINEWID
 40
0.0
  9
$SPLFRAME
 70
     0
  9
$SPLINETYPE
 70
     6
  9
$SPLINESEGS
 70
     8
  9
$HANDSEED
  5
25B
  9
$SURFTAB1
 70
     6
  9
$SURFTAB2
 70
     6
  9
$SURFTYPE
 70
     6
  9
$SURFU
 70
     6
  9
$SURFV
 70
     6
  9
$UCSBASE
  2

  9
$UCSNAME
  2

  9
$UCSORG
 10
0.0
 20
0.0
 30
0.0
  9
$UCSXDIR
 10
1.0
 20
0.0
 30
0.0
  9
$UCSYDIR
 10
0.0
 20
1.0
 30
0.0
  9
$UCSORTHOREF
  2

  9
$UCSORTHOVIEW
 70
     1
  9
$UCSORGTOP
 10
0.0
 20
0.0
 30
0.0
  9
$UCSORGBOTTOM
 10
0.0
 20
0.0
 30
0.0
  9
$UCSORGLEFT
 10
0.0
 20
0.0
 30
0.0
  9
$UCSORGRIGHT
 10
0.0
 20
0.0
 30
0.0
  9
$UCSORGFRONT
 10
0.0
 20
0.0
 30
0.0
  9
$UCSORGBACK
 10
0.0
 20
0.0
 30
0.0
  9
$PUCSBASE
  2

  9
$PUCSNAME
  2

  9
$PUCSORG
 10
0.0
 20
0.0
 30
0.0
  9
$PUCSXDIR
 10
1.0
 20
0.0
 30
0.0
  9
$PUCSYDIR
 10
0.0
 20
1.0
 30
0.0
  9
$PUCSORTHOREF
  2

  9
$PUCSORTHOVIEW
 70
     0
  9
$PUCSORGTOP
 10
0.0
 20
0.0
 30
0.0
  9
$PUCSORGBOTTOM
 10
0.0
 20
0.0
 30
0.0
  9
$PUCSORGLEFT
 10
0.0
 20
0.0
 30
0.0
  9
$PUCSORGRIGHT
 10
0.0
 20
0.0
 30
0.0
  9
$PUCSORGFRONT
 10
0.0
 20
0.0
 30
0.0
  9
$PUCSORGBACK
 10
0.0
 20
0.0
 30
0.0
  9
$USERI1
 70
     0
  9
$USERI2
 70
     0
  9
$USERI3
 70
     0
  9
$USERI4
 70
     0
  9
$USERI5
 70
     0
  9
$USERR1
 40
0.0
  9
$USERR2
 40
0.0
  9
$USERR3
 40
0.0
  9
$USERR4
 40
0.0
  9
$USERR5
 40
0.0
  9
$WORLDVIEW
 70
     1
  9
$SHADEDGE
 70
     3
  9
$SHADEDIF
 70
    70
  9
$TILEMODE
 70
     1
  9
$MAXACTVP
 70
    48
  9
$PINSBASE
 10
0.0
 20
0.0
 30
0.0
  9
$PLIMCHECK
 70
     0
  9
$PEXTMIN
 10
0.0
 20
0.0
 30
0.0
  9
$PEXTMAX
 10
153.033066
 20
127.808441
 30
2.0
  9
$PLIMMIN
 10
0.0
 20
0.0
  9
$PLIMMAX
 10
420.0
 20
297.0
  9
$UNITMODE
 70
     0
  9
$VISRETAIN
 70
     0
  9
$PLINEGEN
 70
     0
  9
$PSLTSCALE
 70
     1
  9
$TREEDEPTH
 70
  3020
  9
$CMLSTYLE
  2
Standard
  9
$CMLJUST
 70
     0
  9
$CMLSCALE
 40
20.0
  9
$PROXYGRAPHICS
 70
     1
  9
$MEASUREMENT
 70
     1
  9
$CELWEIGHT
370
    -1
  9
$ENDCAPS
280
     0
  9
$JOINSTYLE
280
     0
  9
$LWDISPLAY
290
     0
  9
$INSUNITS
 70
     0
  9
$HYPERLINKBASE
  1

  9
$STYLESHEET
  1

  9
$XEDIT
290
     1
  9
$CEPSNTYPE
380
     0
  9
$PSTYLEMODE
290
     0
  9
$FINGERPRINTGUID
  2

  9
$VERSIONGUID
  2

  9
$EXTNAMES
290
     0
  9
$PSVPSCALE
 40
0.0
  0
ENDSEC
  0
SECTION
  2
CLASSES
  0
CLASS
  1
LWPOLYLINE
  2
AcDbPolyline
  3
AutoCAD 2000
 90
        0
280
     0
281
     1
  0
CLASS
  1
IMAGE
  2
AcDbRasterImage
  3
ISM
 90
      127
280
     0
281
     1
  0
CLASS
  1
OLE2FRAME
  2
AcDbOle2Frame
  3
AutoCAD 2000
 90
        0
280
     0
281
     1
  0
CLASS
  1
HATCH
  2
AcDbHatch
  3
AutoCAD 2000
 90
        0
280
     0
281
     1
  0
CLASS
  1
DICTIONARYVAR
  2
AcDbDictionaryVar
  3
AutoCAD 2000
 90
        0
280
     0
281
     0
  0
CLASS
  1
RASTERVARIABLES
  2
AcDbRasterVariables
  3
ISM
 90
        0
280
     0
281
     0
  0
CLASS
  1
IMAGEDEF
  2
AcDbRasterImageDef
  3
ISM
 90
        0
280
     0
281
     0
  0
CLASS
  1
IMAGEDEF_REACTOR
  2
AcDbRasterImageDefReactor
  3
ISM
 90
        1
280
     0
281
     0
  0
CLASS
  1
IDBUFFER
  2
AcDbIdBuffer
  3
AutoCAD 2000
 90
        0
280
     0
281
     0
  0
CLASS
  1
SPATIAL_FILTER
  2
AcDbSpatialFilter
  3
AutoCAD 2000
 90
        0
280
     0
281
     0
  0
CLASS
  1
XRECORD
  2
AcDbXrecord
  3
AutoCAD 2000
 90
        0
280
     0
281
     0
  0
CLASS
  1
SORTENTSTABLE
  2
AcDbSortentsTable
  3
AutoCAD 2000
 90
        0
280
     0
281
     0
  0
CLASS
  1
LAYER_INDEX
  2
AcDbLayerIndex
  3
AutoCAD 2000
 90
        0
280
     0
281
     0
  0
CLASS
  1
SPATIAL_INDEX
  2
AcDbSpatialIndex
  3
AutoCAD 2000
 90
        0
280
     0
281
     0
  0
CLASS
  1
OBJECT_PTR
  2
CAseDLPNTableRecord
  3
"ASE-LPNTableRecord"
 90
        1
280
     0
281
     0
  0
CLASS
  1
LAYOUT
  2
AcDbLayout
  3
AutoCAD 2000
 90
        0
280
     0
281
     0
  0
CLASS
  1
PLOTSETTINGS
  2
AcDbPlotSettings
  3
AutoCAD 2000
 90
        0
280
     0
281
     0
  0
CLASS
  1
ACDBDICTIONARYWDFLT
  2
AcDbDictionaryWithDefault
  3
AutoCAD 2000
 90
        0
280
     0
281
     0
  0
CLASS
  1
ACDBPLACEHOLDER
  2
AcDbPlaceHolder
  3
AutoCAD 2000
 90
        0
280
     0
281
     0
  0
CLASS
  1
VBA_PROJECT
  2
AcDbVbaProject
  3
acadvba
 90
        0
280
     0
281
     0
  0
CLASS
  1
WIPEOUT
  2
AcDbWipeout
  3
WipeOut|AutoCAD Express Tool|expresstools@autodesk.com
 90
      127
280
     0
281
     1
  0
CLASS
  1
WIPEOUTVARIABLES
  2
AcDbWipeoutVariables
  3
WipeOut|AutoCAD Express Tool|expresstools@autodesk.com
 90
        0
280
     0
281
     0
  0
CLASS
  1
RTEXT
  2
RText
  3
RText|AutoCAD Express Tool|expresstools@autodesk.com
 90
        0
280
     0
281
     1
  0
CLASS
  1
ARCALIGNEDTEXT
  2
AcDbArcAlignedText
  3
ATEXT|AutoCAD Express Tool|expresstools@autodesk.com
 90
        0
280
     0
281
     1
  0
ENDSEC
  0
SECTION
  2
TABLES
  0
TABLE
  2
VPORT
  5
7
100
AcDbSymbolTable
 70
     1
  0
VPORT
  5
15
100
AcDbSymbolTableRecord
100
AcDbViewportTableRecord
  2
*ACTIVE
 70
     0
 10
0.0
 20
0.0
 11
1.0
 21
1.0
 12
6.591288
 22
4.579184
 13
0.0
 23
0.0
 14
1.0
 24
1.0
 15
0.0
 25
0.0
 16
0.0
 26
0.0
 36
1.0
 17
0.0
 27
0.0
 37
0.0
 40
9.158369
 41
0.688564
 42
50.0
 43
0.0
 44
0.0
 50
0.0
 51
0.0
 71
     0
 72
   100
 73
     1
 74
     1
 75
     0
 76
     0
 77
     0
 78
     0
281
     0
 65
     0
110
0.0
120
0.0
130
0.0
111
1.0
121
0.0
131
0.0
112
0.0
122
1.0
132
0.0
345
0
346
0
 79
     0
146
0.0
  0
ENDTAB
  0
TABLE
  2
LTYPE
  5
4
100
AcDbSymbolTable
 70
     3
  0
LTYPE
  5
11
100
AcDbSymbolTableRecord
100
AcDbLinetypeTableRecord
  2
ByBlock
 70
    64
  3

 72
    65
 73
     0
 40
0.0
  0
LTYPE
  5
12
100
AcDbSymbolTableRecord
100
AcDbLinetypeTableRecord
  2
ByLayer
 70
    64
  3

 72
    65
 73
     0
 40
0.0
  0
LTYPE
  5
13
100
AcDbSymbolTableRecord
100
AcDbLinetypeTableRecord
  2
Continuous
 70
    64
  3
Solid line
 72
    65
 73
     0
 40
0.0
  0
ENDTAB
  0
TABLE
  2
LAYER
  5
2
100
AcDbSymbolTable
 70
     1
  0
LAYER
  5
14
100
AcDbSymbolTableRecord
100
AcDbLayerTableRecord
  2
0
 70
     0
 62
     7
  6
Continuous
290
     1
370
    -3
390
1D
  0
ENDTAB
  0
TABLE
  2
STYLE
  5
3
100
AcDbSymbolTable
 70
     1
  0
STYLE
  5
17
100
AcDbSymbolTableRecord
100
AcDbTextStyleTableRecord
  2
Standard
 70
     0
 40
0.0
 41
1.0
 50
0.0
 71
     0
 42
0.0
  3
txt
  4

  0
ENDTAB
  0
TABLE
  2
VIEW
  5
5
100
AcDbSymbolTable
 70
     0
  0
ENDTAB
  0
TABLE
  2
UCS
  5
6
100
AcDbSymbolTable
 70
     0
  0
ENDTAB
  0
TABLE
  2
APPID
  5
8
100
AcDbSymbolTable
 70
     1
  0
APPID
  5
16
100
AcDbSymbolTableRecord
100
AcDbRegAppTableRecord
  2
ACAD
 70
     0
  0
ENDTAB
  0
TABLE
  2
DIMSTYLE
  5
9
100
AcDbSymbolTable
 70
     1
100
AcDbDimStyleTable
 71
     0
  0
DIMSTYLE
105
18
100
AcDbSymbolTableRecord
100
AcDbDimStyleTableRecord
  2
Standard
 70
     0
  3

  4

 40
1.0
 41
0.18
 42
0.0625
 43
0.38
 44
0.18
 45
0.0
 46
0.0
 47
0.0
 48
0.0
 71
     0
 72
     0
 73
     1
 74
     1
 75
     0
 76
     0
 77
     0
 78
     0
 79
     0
140
0.18
141
0.09
142
0.0
143
25.4
144
1.0
145
0.0
146
1.0
147
0.09
148
0.0
170
     0
171
     2
172
     0
173
     0
174
     0
175
     0
176
     0
177
     0
178
     0
179
     0
271
     4
272
     4
273
     2
274
     2
275
     0
276
     0
277
     2
278
    46
279
     0
280
     0
281
     0
282
     0
283
     1
284
     0
285
     0
286
     0
288
     0
289
     3
340
17
341
0
342
0
343
0
344
0
371
    -2
372
    -2
  0
ENDTAB
  0
TABLE
  2
BLOCK_RECORD
  5
1
100
AcDbSymbolTable
 70
     0
  0
BLOCK_RECORD
  5
A
100
AcDbSymbolTableRecord
100
AcDbBlockTableRecord
  2
*MODEL_SPACE
340
20
  0
BLOCK_RECORD
  5
B
100
AcDbSymbolTableRecord
100
AcDbBlockTableRecord
  2
*PAPER_SPACE
340
21
  0
ENDTAB
  0
ENDSEC
  0
SECTION
  2
BLOCKS
  0
BLOCK
  5
D
100
AcDbEntity
  8
0
390
0
100
AcDbBlockBegin
  2
*MODEL_SPACE
 70
     0
 10
0.0
 20
0.0
 30
0.0
  3
*MODEL_SPACE
  1

  0
ENDBLK
  5
E
100
AcDbEntity
  8
0
390
0
100
AcDbBlockEnd
  0
BLOCK
  5
F
100
AcDbEntity
 67
     1
  8
0
390
0
100
AcDbBlockBegin
  2
*PAPER_SPACE
 70
     0
 10
0.0
 20
0.0
 30
0.0
  3
*PAPER_SPACE
  1

  0
ENDBLK
  5
10
100
AcDbEntity
 67
     1
  8
0
390
0
100
AcDbBlockEnd
  0
ENDSEC
  0
SECTION
  2
ENTITIES
  0
VIEWPORT
  5
25A
100
AcDbEntity
 67
     1
  8
0
370
     0
390
0
 62
     0
 48
0.0
100
AcDbViewport
 10
0.0
 20
0.0
 30
0.0
 40
1000.0
 41
1000.0
 68
     1
 69
     1
 12
0.0
 22
0.0
 13
0.0
 23
0.0
 14
1.0
 24
1.0
 15
1.0
 25
1.0
 16
0.0
 26
0.0
 36
1.0
 17
0.0
 27
0.0
 37
0.0
 42
50.0
 43
0.0
 44
0.0
 45
1000.0
 50
0.0
 51
0.0
 72
   100
 90
        0
340
0
  1

281
     0
 71
     0
 74
     1
110
0.0
120
0.0
130
0.0
111
1.0
121
0.0
131
0.0
112
0.0
122
1.0
132
0.0
345
0
346
0
 79
     0
146
0.0
  0
POLYLINE
  5
24
100
AcDbEntity
  8
0
370
    13
390
0
 62
     5
100
AcDb2dPolyline
 66
     1
 10
0.0
 20
0.0
 30
0.0
 71
     5
  0
VERTEX
  5
25
100
AcDbEntity
  8
0
370
     0
390
0
100
AcDbVertex
100
AcDb2dVertex
 10
111.483406
 20
51.389507
 30
0.0
  0
VERTEX
  5
26
100
AcDbEntity
  8
0
370
     0
390
0
100
AcDbVertex
100
AcDb2dVertex
 10
111.623405
 20
52.964512
 30
0.0
  0
VERTEX
  5
27
100
AcDbEntity
  8
0
370
     0
390
0
100
AcDbVertex
100
AcDb2dVertex
 10
111.728401
 20
54.18951
 30
0.0
  0
VERTEX
  5
28
100
AcDbEntity
  8
0
370
     0
390
0
100
AcDbVertex
100
AcDb2dVertex
 10
110.2584
 20
52.159512
 30
0.0
  0
VERTEX
  5
29
100
AcDbEntity
  8
0
370
     0
390
0
100
AcDbVertex
100
AcDb2dVertex
 10
112.0084
 20
52.159512
 30
0.0
  0
SEQEND
  5
2A
100
AcDbEntity
  8
0
370
     0
390
0
  0
POLYLINE
  5
2B
100
AcDbEntity
  8
0
370
    13
390
0
 62
     5
100
AcDb2dPolyline
 66
     1
 10
0.0
 20
0.0
 30
0.0
 71
     5
  0
VERTEX
  5
2C
100
AcDbEntity
  8
0
370
     0
390
0
100
AcDbVertex
100
AcDb2dVertex
 10
113.303398
 20
51.389507
 30
0.0
  0
VERTEX
  5
2D
100
AcDbEntity
  8
0
370
     0
390
0
100
AcDbVertex
100
AcDb2dVertex
 10
113.583405
 20
53.104511
 30
0.0
  0
VERTEX
  5
2E
100
AcDbEntity
  8
0
370
     0
390
0
100
AcDbVertex
100
AcDb2dVertex
 10
113.8284
 20
53.734509
 30
0.0
  0
VERTEX
  5
2F
100
AcDbEntity
  8
0
370
     0
390
0
100
AcDbVertex
100
AcDb2dVertex
 10
114.073402
 20
54.18951
 30
0.0
  0
VERTEX
  5
30
100
AcDbEntity
  8
0
370
     0
390
0
100
AcDbVertex
100
AcDb2dVertex
 10
112.708405
 20
54.18951
 30
0.0
  0
SEQEND
  5
31
100
AcDbEntity
  8
0
370
     0
390
0
  0
POLYLINE
  5
32
100
AcDbEntity
  8
0
370
    13
390
0
 62
     5
100
AcDb2dPolyline
 66
     1
 10
0.0
 20
0.0
 30
0.0
 70
     1
 71
     8
  0
VERTEX
  5
33
100
AcDbEntity
  8
0
370
     0
390
0
100
AcDbVertex
100
AcDb2dVertex
 10
114.983398
 20
51.529507
 30
0.0
  0
VERTEX
  5
34
100
AcDbEntity
  8
0
370
     0
390
0
100
AcDbVertex
100
AcDb2dVertex
 10
115.263397
 20
51.529507
 30
0.0
  0
VERTEX
  5
35
100
AcDbEntity
  8
0
370
     0
390
0
100
AcDbVertex
100
AcDb2dVertex
 10
115.473396
 20
51.739506
 30
0.0
  0
VERTEX
  5
36
100
AcDbEntity
  8
0
370
     0
390
0
100
AcDbVertex
100
AcDb2dVertex
 10
115.473396
 20
52.019512
 30
0.0
  0
VERTEX
  5
37
100
AcDbEntity
  8
0
370
     0
390
0
100
AcDbVertex
100
AcDb2dVertex
 10
115.263397
 20
52.229511
 30
0.0
  0
VERTEX
  5
38
100
AcDbEntity
  8
0
370
     0
390
0
100
AcDbVertex
100
AcDb2dVertex
 10
114.983398
 20
52.229511
 30
0.0
  0
VERTEX
  5
39
100
AcDbEntity
  8
0
370
     0
390
0
100
AcDbVertex
100
AcDb2dVertex
 10
114.773399
 20
52.019512
 30
0.0
  0
VERTEX
  5
3A
100
AcDbEntity
  8
0
370
     0
390
0
100
AcDbVertex
100
AcDb2dVertex
 10
114.773399
 20
51.739506
 30
0.0
  0
SEQEND
  5
3B
100
AcDbEntity
  8
0
370
     0
390
0
  0
POLYLINE
  5
3C
100
AcDbEntity
  8
0
370
    13
390
0
 62
     5
100
AcDb2dPolyline
 66
     1
 10
0.0
 20
0.0
 30
0.0
 71
     2
  0
VERTEX
  5
3D
100
AcDbEntity
  8
0
370
     0
390
0
100
AcDbVertex
100
AcDb2dVertex
 10
114.843399
 20
52.089512
 30
0.0
  0
VERTEX
  5
3E
100
AcDbEntity
  8
0
370
     0
390
0
100
AcDbVertex
100
AcDb2dVertex
 10
115.403397
 20
52.089512
 30
0.0
  0
SEQEND
  5
3F
100
AcDbEntity
  8
0
370
     0
390
0
  0
POLYLINE
  5
40
100
AcDbEntity
  8
0
370
    13
390
0
 62
     5
100
AcDb2dPolyline
 66
     1
 10
0.0
 20
0.0
 30
0.0
 71
     2
  0
VERTEX
  5
41
100
AcDbEntity
  8
0
370
     0
390
0
100
AcDbVertex
100
AcDb2dVertex
 10
115.473396
 20
51.879505
 30
0.0
  0
VERTEX
  5
42
100
AcDbEntity
  8
0
370
     0
390
0
100
AcDbVertex
100
AcDb2dVertex
 10
114.773399
 20
51.879505
 30
0.0
  0
SEQEND
  5
43
100
AcDbEntity
  8
0
370
     0
390
0
  0
POLYLINE
  5
44
100
AcDbEntity
  8
0
370
    13
390
0
 62
     5
100
AcDb2dPolyline
 66
     1
 10
0.0
 20
0.0
 30
0.0
 71
     2
  0
VERTEX
  5
45
100
AcDbEntity
  8
0
370
     0
390
0
100
AcDbVertex
100
AcDb2dVertex
 10
114.843399
 20
51.669506
 30
0.0
  0
VERTEX
  5
46
100
AcDbEntity
  8
0
370
     0
390
0
100
AcDbVertex
100
AcDb2dVertex
 10
115.403397
 20
51.669506
 30
0.0
  0
SEQEND
  5
47
100
AcDbEntity
  8
0
370
     0
390
0
  0
POLYLINE
  5
48
100
AcDbEntity
  8
0
370
    13
390
0
 62
     5
100
AcDb2dPolyline
 66
     1
 10
0.0
 20
0.0
 30
0.0
 71
    12
  0
VERTEX
  5
49
100
AcDbEntity
  8
0
370
     0
390
0
100
AcDbVertex
100
AcDb2dVertex
 10
116.173401
 20
52.019512
 30
0.0
  0
VERTEX
  5
4A
100
AcDbEntity
  8
0
370
     0
390
0
100
AcDbVertex
100
AcDb2dVertex
 10
116.3134
 20
51.63451
 30
0.0
  0
VERTEX
  5
4B
100
AcDbEntity
  8
0
370
     0
390
0
100
AcDbVertex
100
AcDb2dVertex
 10
116.628395
 20
51.389507
 30
0.0
  0
VERTEX
  5
4C
100
AcDbEntity
  8
0
370
     0
390
0
100
AcDbVertex
100
AcDb2dVertex
 10
117.048401
 20
51.389507
 30
0.0
  0
VERTEX
  5
4D
100
AcDbEntity
  8
0
370
     0
390
0
100
AcDbVertex
100
AcDb2dVertex
 10
117.468399
 20
51.809505
 30
0.0
  0
VERTEX
  5
4E
100
AcDbEntity
  8
0
370
     0
390
0
100
AcDbVertex
100
AcDb2dVertex
 10
117.608398
 20
52.229511
 30
0.0
  0
VERTEX
  5
4F
100
AcDbEntity
  8
0
370
     0
390
0
100
AcDbVertex
100
AcDb2dVertex
 10
117.608398
 20
52.684505
 30
0.0
  0
VERTEX
  5
50
100
AcDbEntity
  8
0
370
     0
390
0
100
AcDbVertex
100
AcDb2dVertex
 10
117.398399
 20
53.069508
 30
0.0
  0
VERTEX
  5
51
100
AcDbEntity
  8
0
370
     0
390
0
100
AcDbVertex
100
AcDb2dVertex
 10
117.013397
 20
53.209507
 30
0.0
  0
VERTEX
  5
52
100
AcDbEntity
  8
0
370
     0
390
0
100
AcDbVertex
100
AcDb2dVertex
 10
116.628395
 20
53.139507
 30
0.0
  0
VERTEX
  5
53
100
AcDbEntity
  8
0
370
     0
390
0
100
AcDbVertex
100
AcDb2dVertex
 10
116.3834
 20
52.929508
 30
0.0
  0
VERTEX
  5
54
100
AcDbEntity
  8
0
370
     0
390
0
100
AcDbVertex
100
AcDb2dVertex
 10
116.523399
 20
54.18951
 30
0.0
  0
SEQEND
  5
55
100
AcDbEntity
  8
0
370
     0
390
0
  0
POLYLINE
  5
56
100
AcDbEntity
  8
0
370
    13
390
0
 62
     5
100
AcDb2dPolyline
 66
     1
 10
0.0
 20
0.0
 30
0.0
 71
     2
  0
VERTEX
  5
57
100
AcDbEntity
  8
0
370
     0
390
0
100
AcDbVertex
100
AcDb2dVertex
 10
116.523399
 20
54.049511
 30
0.0
  0
VERTEX
  5
58
100
AcDbEntity
  8
0
370
     0
390
0
100
AcDbVertex
100
AcDb2dVertex
 10
117.678398
 20
54.049511
 30
0.0
  0
SEQEND
  5
59
100
AcDbEntity
  8
0
370
     0
390
0
  0
LINE
  5
5A
100
AcDbEntity
  8
0
370
    13
390
0
 62
     5
 48
0.237747
100
AcDbLine
 10
90.218399
 20
56.549397
 30
0.0
 11
90.218399
 21
47.039505
 31
0.0
210
0.0
220
0.0
230
1.0
  0
LINE
  5
5B
100
AcDbEntity
  8
0
370
    13
390
0
 62
     5
 48
0.237747
100
AcDbLine
 10
137.718399
 20
56.549397
 30
0.0
 11
137.718399
 21
47.039505
 31
0.0
210
0.0
220
0.0
230
1.0
  0
POLYLINE
  5
5C
100
AcDbEntity
  8
0
370
    13
390
0
 62
     5
100
AcDb2dPolyline
 66
     1
 10
0.0
 20
0.0
 30
0.0
 71
     3
  0
VERTEX
  5
5D
100
AcDbEntity
  8
0
370
     0
390
0
100
AcDbVertex
100
AcDb2dVertex
 10
92.150253
 20
49.557144
 30
0.0
  0
VERTEX
  5
5E
100
AcDbEntity
  8
0
370
     0
390
0
100
AcDbVertex
100
AcDb2dVertex
 10
90.218399
 20
49.039505
 30
0.0
  0
VERTEX
  5
5F
100
AcDbEntity
  8
0
370
     0
390
0
100
AcDbVertex
100
AcDb2dVertex
 10
92.150253
 20
48.521866
 30
0.0
  0
SEQEND
  5
60
100
AcDbEntity
  8
0
370
     0
390
0
  0
POLYLINE
  5
61
100
AcDbEntity
  8
0
370
    13
390
0
 62
     5
100
AcDb2dPolyline
 66
     1
 10
0.0
 20
0.0
 30
0.0
 71
     3
  0
VERTEX
  5
62
100
AcDbEntity
  8
0
370
     0
390
0
100
AcDbVertex
100
AcDb2dVertex
 10
135.786545
 20
48.521866
 30
0.0
  0
VERTEX
  5
63
100
AcDbEntity
  8
0
370
     0
390
0
100
AcDbVertex
100
AcDb2dVertex
 10
137.718399
 20
49.039505
 30
0.0
  0
VERTEX
  5
64
100
AcDbEntity
  8
0
370
     0
390
0
100
AcDbVertex
100
AcDb2dVertex
 10
135.786545
 20
49.557144
 30
0.0
  0
SEQEND
  5
65
100
AcDbEntity
  8
0
370
     0
390
0
  0
LINE
  5
66
100
AcDbEntity
  8
0
370
    13
390
0
 62
     5
100
AcDbLine
 10
90.218399
 20
49.039505
 30
0.0
 11
137.718399
 21
49.039505
 31
0.0
210
0.0
220
0.0
230
1.0
  0
POLYLINE
  5
67
100
AcDbEntity
  8
0
370
    13
390
0
 62
     5
100
AcDb2dPolyline
 66
     1
 10
0.0
 20
0.0
 30
0.0
 71
     3
  0
VERTEX
  5
68
100
AcDbEntity
  8
0
370
     0
390
0
100
AcDbVertex
100
AcDb2dVertex
 10
74.054398
 20
64.429398
 30
0.0
  0
VERTEX
  5
69
100
AcDbEntity
  8
0
370
     0
390
0
100
AcDbVertex
100
AcDb2dVertex
 10
75.454399
 20
64.324402
 30
0.0
  0
VERTEX
  5
6A
100
AcDbEntity
  8
0
370
     0
390
0
100
AcDbVertex
100
AcDb2dVertex
 10
76.854401
 20
64.219391
 30
0.0
  0
SEQEND
  5
6B
100
AcDbEntity
  8
0
370
     0
390
0
  0
POLYLINE
  5
6C
100
AcDbEntity
  8
0
370
    13
390
0
 62
     5
100
AcDb2dPolyline
 66
     1
 10
0.0
 20
0.0
 30
0.0
 71
     5
  0
VERTEX
  5
6D
100
AcDbEntity
  8
0
370
     0
390
0
100
AcDbVertex
100
AcDb2dVertex
 10
76.854401
 20
66.354401
 30
0.0
  0
VERTEX
  5
6E
100
AcDbEntity
  8
0
370
     0
390
0
100
AcDbVertex
100
AcDb2dVertex
 10
75.279404
 20
66.4944
 30
0.0
  0
VERTEX
  5
6F
100
AcDbEntity
  8
0
370
     0
390
0
100
AcDbVertex
100
AcDb2dVertex
 10
74.054398
 20
66.599396
 30
0.0
  0
VERTEX
  5
70
100
AcDbEntity
  8
0
370
     0
390
0
100
AcDbVertex
100
AcDb2dVertex
 10
76.084396
 20
65.129395
 30
0.0
  0
VERTEX
  5
71
100
AcDbEntity
  8
0
370
     0
390
0
100
AcDbVertex
100
AcDb2dVertex
 10
76.084396
 20
66.879395
 30
0.0
  0
SEQEND
  5
72
100
AcDbEntity
  8
0
370
     0
390
0
  0
LINE
  5
73
100
AcDbEntity
  8
0
370
    13
390
0
 62
     5
 48
0.27535
100
AcDbLine
 10
88.218399
 20
58.549397
 30
0.0
 11
77.204399
 21
58.549397
 31
0.0
210
0.0
220
0.0
230
1.0
  0
LINE
  5
74
100
AcDbEntity
  8
0
370
    13
390
0
 62
     5
 48
0.27535
100
AcDbLine
 10
88.218399
 20
72.549393
 30
0.0
 11
77.204399
 21
72.549393
 31
0.0
210
0.0
220
0.0
230
1.0
  0
POLYLINE
  5
75
100
AcDbEntity
  8
0
370
    13
390
0
 62
     5
100
AcDb2dPolyline
 66
     1
 10
0.0
 20
0.0
 30
0.0
 71
     3
  0
VERTEX
  5
76
100
AcDbEntity
  8
0
370
     0
390
0
100
AcDbVertex
100
AcDb2dVertex
 10
78.68676
 20
60.481251
 30
0.0
  0
VERTEX
  5
77
100
AcDbEntity
  8
0
370
     0
390
0
100
AcDbVertex
100
AcDb2dVertex
 10
79.204399
 20
58.549397
 30
0.0
  0
VERTEX
  5
78
100
AcDbEntity
  8
0
370
     0
390
0
100
AcDbVertex
100
AcDb2dVertex
 10
79.722038
 20
60.481251
 30
0.0
  0
SEQEND
  5
79
100
AcDbEntity
  8
0
370
     0
390
0
  0
POLYLINE
  5
7A
100
AcDbEntity
  8
0
370
    13
390
0
 62
     5
100
AcDb2dPolyline
 66
     1
 10
0.0
 20
0.0
 30
0.0
 71
     3
  0
VERTEX
  5
7B
100
AcDbEntity
  8
0
370
     0
390
0
100
AcDbVertex
100
AcDb2dVertex
 10
79.722038
 20
70.617554
 30
0.0
  0
VERTEX
  5
7C
100
AcDbEntity
  8
0
370
     0
390
0
100
AcDbVertex
100
AcDb2dVertex
 10
79.204399
 20
72.549393
 30
0.0
  0
VERTEX
  5
7D
100
AcDbEntity
  8
0
370
     0
390
0
100
AcDbVertex
100
AcDb2dVertex
 10
78.68676
 20
70.617554
 30
0.0
  0
SEQEND
  5
7E
100
AcDbEntity
  8
0
370
     0
390
0
  0
LINE
  5
7F
100
AcDbEntity
  8
0
370
    13
390
0
 62
     5
 48
0.35
100
AcDbLine
 10
79.204399
 20
58.549397
 30
0.0
 11
79.204399
 21
72.549393
 31
0.0
210
0.0
220
0.0
230
1.0
  0
POLYLINE
  5
80
100
AcDbEntity
  8
0
370
    13
390
0
 62
     5
100
AcDb2dPolyline
 66
     1
 10
0.0
 20
0.0
 30
0.0
 71
    12
  0
VERTEX
  5
81
100
AcDbEntity
  8
0
370
     0
390
0
100
AcDbVertex
100
AcDb2dVertex
 10
100.718399
 20
70.836563
 30
0.0
  0
VERTEX
  5
82
100
AcDbEntity
  8
0
370
     0
390
0
100
AcDbVertex
100
AcDb2dVertex
 10
100.858398
 20
70.451553
 30
0.0
  0
VERTEX
  5
83
100
AcDbEntity
  8
0
370
     0
390
0
100
AcDbVertex
100
AcDb2dVertex
 10
101.173393
 20
70.206558
 30
0.0
  0
VERTEX
  5
84
100
AcDbEntity
  8
0
370
     0
390
0
100
AcDbVertex
100
AcDb2dVertex
 10
101.593399
 20
70.206558
 30
0.0
  0
VERTEX
  5
85
100
AcDbEntity
  8
0
370
     0
390
0
100
AcDbVertex
100
AcDb2dVertex
 10
102.013397
 20
70.626556
 30
0.0
  0
VERTEX
  5
86
100
AcDbEntity
  8
0
370
     0
390
0
100
AcDbVertex
100
AcDb2dVertex
 10
102.153397
 20
71.046555
 30
0.0
  0
VERTEX
  5
87
100
AcDbEntity
  8
0
370
     0
390
0
100
AcDbVertex
100
AcDb2dVertex
 10
102.153397
 20
71.501556
 30
0.0
  0
VERTEX
  5
88
100
AcDbEntity
  8
0
370
     0
390
0
100
AcDbVertex
100
AcDb2dVertex
 10
101.943398
 20
71.886551
 30
0.0
  0
VERTEX
  5
89
100
AcDbEntity
  8
0
370
     0
390
0
100
AcDbVertex
100
AcDb2dVertex
 10
101.558395
 20
72.02655
 30
0.0
  0
VERTEX
  5
8A
100
AcDbEntity
  8
0
370
     0
390
0
100
AcDbVertex
100
AcDb2dVertex
 10
101.173393
 20
71.956558
 30
0.0
  0
VERTEX
  5
8B
100
AcDbEntity
  8
0
370
     0
390
0
100
AcDbVertex
100
AcDb2dVertex
 10
100.928398
 20
71.746552
 30
0.0
  0
VERTEX
  5
8C
100
AcDbEntity
  8
0
370
     0
390
0
100
AcDbVertex
100
AcDb2dVertex
 10
101.068398
 20
73.006561
 30
0.0
  0
SEQEND
  5
8D
100
AcDbEntity
  8
0
370
     0
390
0
  0
POLYLINE
  5
8E
100
AcDbEntity
  8
0
370
    13
390
0
 62
     5
100
AcDb2dPolyline
 66
     1
 10
0.0
 20
0.0
 30
0.0
 71
     2
  0
VERTEX
  5
8F
100
AcDbEntity
  8
0
370
     0
390
0
100
AcDbVertex
100
AcDb2dVertex
 10
101.068398
 20
72.866562
 30
0.0
  0
VERTEX
  5
90
100
AcDbEntity
  8
0
370
     0
390
0
100
AcDbVertex
100
AcDb2dVertex
 10
102.223396
 20
72.866562
 30
0.0
  0
SEQEND
  5
91
100
AcDbEntity
  8
0
370
     0
390
0
  0
POLYLINE
  5
92
100
AcDbEntity
  8
0
370
    13
390
0
 62
     5
100
AcDb2dPolyline
 66
     1
 10
0.0
 20
0.0
 30
0.0
 70
     1
 71
     8
  0
VERTEX
  5
93
100
AcDbEntity
  8
0
370
     0
390
0
100
AcDbVertex
100
AcDb2dVertex
 10
103.133392
 20
70.346558
 30
0.0
  0
VERTEX
  5
94
100
AcDbEntity
  8
0
370
     0
390
0
100
AcDbVertex
100
AcDb2dVertex
 10
103.413391
 20
70.346558
 30
0.0
  0
VERTEX
  5
95
100
AcDbEntity
  8
0
370
     0
390
0
100
AcDbVertex
100
AcDb2dVertex
 10
103.62339
 20
70.556549
 30
0.0
  0
VERTEX
  5
96
100
AcDbEntity
  8
0
370
     0
390
0
100
AcDbVertex
100
AcDb2dVertex
 10
103.62339
 20
70.836563
 30
0.0
  0
VERTEX
  5
97
100
AcDbEntity
  8
0
370
     0
390
0
100
AcDbVertex
100
AcDb2dVertex
 10
103.413391
 20
71.046555
 30
0.0
  0
VERTEX
  5
98
100
AcDbEntity
  8
0
370
     0
390
0
100
AcDbVertex
100
AcDb2dVertex
 10
103.133392
 20
71.046555
 30
0.0
  0
VERTEX
  5
99
100
AcDbEntity
  8
0
370
     0
390
0
100
AcDbVertex
100
AcDb2dVertex
 10
102.923393
 20
70.836563
 30
0.0
  0
VERTEX
  5
9A
100
AcDbEntity
  8
0
370
     0
390
0
100
AcDbVertex
100
AcDb2dVertex
 10
102.923393
 20
70.556549
 30
0.0
  0
SEQEND
  5
9B
100
AcDbEntity
  8
0
370
     0
390
0
  0
POLYLINE
  5
9C
100
AcDbEntity
  8
0
370
    13
390
0
 62
     5
100
AcDb2dPolyline
 66
     1
 10
0.0
 20
0.0
 30
0.0
 71
     2
  0
VERTEX
  5
9D
100
AcDbEntity
  8
0
370
     0
390
0
100
AcDbVertex
100
AcDb2dVertex
 10
102.993393
 20
70.906555
 30
0.0
  0
VERTEX
  5
9E
100
AcDbEntity
  8
0
370
     0
390
0
100
AcDbVertex
100
AcDb2dVertex
 10
103.553391
 20
70.906555
 30
0.0
  0
SEQEND
  5
9F
100
AcDbEntity
  8
0
370
     0
390
0
  0
POLYLINE
  5
A0
100
AcDbEntity
  8
0
370
    13
390
0
 62
     5
100
AcDb2dPolyline
 66
     1
 10
0.0
 20
0.0
 30
0.0
 71
     2
  0
VERTEX
  5
A1
100
AcDbEntity
  8
0
370
     0
390
0
100
AcDbVertex
100
AcDb2dVertex
 10
103.62339
 20
70.696548
 30
0.0
  0
VERTEX
  5
A2
100
AcDbEntity
  8
0
370
     0
390
0
100
AcDbVertex
100
AcDb2dVertex
 10
102.923393
 20
70.696548
 30
0.0
  0
SEQEND
  5
A3
100
AcDbEntity
  8
0
370
     0
390
0
  0
POLYLINE
  5
A4
100
AcDbEntity
  8
0
370
    13
390
0
 62
     5
100
AcDb2dPolyline
 66
     1
 10
0.0
 20
0.0
 30
0.0
 71
     2
  0
VERTEX
  5
A5
100
AcDbEntity
  8
0
370
     0
390
0
100
AcDbVertex
100
AcDb2dVertex
 10
102.993393
 20
70.486557
 30
0.0
  0
VERTEX
  5
A6
100
AcDbEntity
  8
0
370
     0
390
0
100
AcDbVertex
100
AcDb2dVertex
 10
103.553391
 20
70.486557
 30
0.0
  0
SEQEND
  5
A7
100
AcDbEntity
  8
0
370
     0
390
0
  0
POLYLINE
  5
A8
100
AcDbEntity
  8
0
370
    13
390
0
 62
     5
100
AcDb2dPolyline
 66
     1
 10
0.0
 20
0.0
 30
0.0
 71
    12
  0
VERTEX
  5
A9
100
AcDbEntity
  8
0
370
     0
390
0
100
AcDbVertex
100
AcDb2dVertex
 10
104.323395
 20
70.836563
 30
0.0
  0
VERTEX
  5
AA
100
AcDbEntity
  8
0
370
     0
390
0
100
AcDbVertex
100
AcDb2dVertex
 10
104.463394
 20
70.451553
 30
0.0
  0
VERTEX
  5
AB
100
AcDbEntity
  8
0
370
     0
390
0
100
AcDbVertex
100
AcDb2dVertex
 10
104.778389
 20
70.206558
 30
0.0
  0
VERTEX
  5
AC
100
AcDbEntity
  8
0
370
     0
390
0
100
AcDbVertex
100
AcDb2dVertex
 10
105.198395
 20
70.206558
 30
0.0
  0
VERTEX
  5
AD
100
AcDbEntity
  8
0
370
     0
390
0
100
AcDbVertex
100
AcDb2dVertex
 10
105.618393
 20
70.626556
 30
0.0
  0
VERTEX
  5
AE
100
AcDbEntity
  8
0
370
     0
390
0
100
AcDbVertex
100
AcDb2dVertex
 10
105.758392
 20
71.046555
 30
0.0
  0
VERTEX
  5
AF
100
AcDbEntity
  8
0
370
     0
390
0
100
AcDbVertex
100
AcDb2dVertex
 10
105.758392
 20
71.501556
 30
0.0
  0
VERTEX
  5
B0
100
AcDbEntity
  8
0
370
     0
390
0
100
AcDbVertex
100
AcDb2dVertex
 10
105.548393
 20
71.886551
 30
0.0
  0
VERTEX
  5
B1
100
AcDbEntity
  8
0
370
     0
390
0
100
AcDbVertex
100
AcDb2dVertex
 10
105.163391
 20
72.02655
 30
0.0
  0
VERTEX
  5
B2
100
AcDbEntity
  8
0
370
     0
390
0
100
AcDbVertex
100
AcDb2dVertex
 10
104.778389
 20
71.956558
 30
0.0
  0
VERTEX
  5
B3
100
AcDbEntity
  8
0
370
     0
390
0
100
AcDbVertex
100
AcDb2dVertex
 10
104.533394
 20
71.746552
 30
0.0
  0
VERTEX
  5
B4
100
AcDbEntity
  8
0
370
     0
390
0
100
AcDbVertex
100
AcDb2dVertex
 10
104.673393
 20
73.006561
 30
0.0
  0
SEQEND
  5
B5
100
AcDbEntity
  8
0
370
     0
390
0
  0
POLYLINE
  5
B6
100
AcDbEntity
  8
0
370
    13
390
0
 62
     5
100
AcDb2dPolyline
 66
     1
 10
0.0
 20
0.0
 30
0.0
 71
     2
  0
VERTEX
  5
B7
100
AcDbEntity
  8
0
370
     0
390
0
100
AcDbVertex
100
AcDb2dVertex
 10
104.673393
 20
72.866562
 30
0.0
  0
VERTEX
  5
B8
100
AcDbEntity
  8
0
370
     0
390
0
100
AcDbVertex
100
AcDb2dVertex
 10
105.828392
 20
72.866562
 30
0.0
  0
SEQEND
  5
B9
100
AcDbEntity
  8
0
370
     0
390
0
  0
LINE
  5
BA
100
AcDbEntity
  8
0
370
    13
390
0
 62
     5
 48
0.117321
100
AcDbLine
 10
90.218399
 20
70.549393
 30
0.0
 11
90.218399
 21
65.856552
 31
0.0
210
0.0
220
0.0
230
1.0
  0
LINE
  5
BB
100
AcDbEntity
  8
0
370
    13
390
0
 62
     5
 48
0.117321
100
AcDbLine
 10
95.718399
 20
70.549393
 30
0.0
 11
95.718399
 21
65.856552
 31
0.0
210
0.0
220
0.0
230
1.0
  0
POLYLINE
  5
BC
100
AcDbEntity
  8
0
370
    13
390
0
 62
     5
100
AcDb2dPolyline
 66
     1
 10
0.0
 20
0.0
 30
0.0
 71
     3
  0
VERTEX
  5
BD
100
AcDbEntity
  8
0
370
     0
390
0
100
AcDbVertex
100
AcDb2dVertex
 10
88.286545
 20
67.338913
 30
0.0
  0
VERTEX
  5
BE
100
AcDbEntity
  8
0
370
     0
390
0
100
AcDbVertex
100
AcDb2dVertex
 10
90.218399
 20
67.856552
 30
0.0
  0
VERTEX
  5
BF
100
AcDbEntity
  8
0
370
     0
390
0
100
AcDbVertex
100
AcDb2dVertex
 10
88.286545
 20
68.374191
 30
0.0
  0
SEQEND
  5
C0
100
AcDbEntity
  8
0
370
     0
390
0
  0
POLYLINE
  5
C1
100
AcDbEntity
  8
0
370
    13
390
0
 62
     5
100
AcDb2dPolyline
 66
     1
 10
0.0
 20
0.0
 30
0.0
 71
     3
  0
VERTEX
  5
C2
100
AcDbEntity
  8
0
370
     0
390
0
100
AcDbVertex
100
AcDb2dVertex
 10
97.650253
 20
68.374191
 30
0.0
  0
VERTEX
  5
C3
100
AcDbEntity
  8
0
370
     0
390
0
100
AcDbVertex
100
AcDb2dVertex
 10
95.718399
 20
67.856552
 30
0.0
  0
VERTEX
  5
C4
100
AcDbEntity
  8
0
370
     0
390
0
100
AcDbVertex
100
AcDb2dVertex
 10
97.650253
 20
67.338913
 30
0.0
  0
SEQEND
  5
C5
100
AcDbEntity
  8
0
370
     0
390
0
  0
LINE
  5
C6
100
AcDbEntity
  8
0
370
    13
390
0
 62
     5
100
AcDbLine
 10
85.218399
 20
67.856552
 30
0.0
 11
105.8284
 21
67.856552
 31
0.0
210
0.0
220
0.0
230
1.0
  0
POLYLINE
  5
C7
100
AcDbEntity
  8
0
370
    13
390
0
 62
     5
100
AcDb2dPolyline
 66
     1
 10
0.0
 20
0.0
 30
0.0
 70
     1
 71
     9
  0
VERTEX
  5
C8
100
AcDbEntity
  8
0
370
     0
390
0
100
AcDbVertex
100
AcDb2dVertex
 10
115.875946
 20
76.2202
 30
0.0
  0
VERTEX
  5
C9
100
AcDbEntity
  8
0
370
     0
390
0
100
AcDbVertex
100
AcDb2dVertex
 10
115.840942
 20
76.850204
 30
0.0
  0
VERTEX
  5
CA
100
AcDbEntity
  8
0
370
     0
390
0
100
AcDbVertex
100
AcDb2dVertex
 10
115.455948
 20
77.235199
 30
0.0
  0
VERTEX
  5
CB
100
AcDbEntity
  8
0
370
     0
390
0
100
AcDbVertex
100
AcDb2dVertex
 10
114.825943
 20
77.235199
 30
0.0
  0
VERTEX
  5
CC
100
AcDbEntity
  8
0
370
     0
390
0
100
AcDbVertex
100
AcDb2dVertex
 10
114.370941
 20
76.885208
 30
0.0
  0
VERTEX
  5
CD
100
AcDbEntity
  8
0
370
     0
390
0
100
AcDbVertex
100
AcDb2dVertex
 10
114.370941
 20
76.360199
 30
0.0
  0
VERTEX
  5
CE
100
AcDbEntity
  8
0
370
     0
390
0
100
AcDbVertex
100
AcDb2dVertex
 10
114.580948
 20
76.010208
 30
0.0
  0
VERTEX
  5
CF
100
AcDbEntity
  8
0
370
     0
390
0
100
AcDbVertex
100
AcDb2dVertex
 10
114.930946
 20
75.800201
 30
0.0
  0
VERTEX
  5
D0
100
AcDbEntity
  8
0
370
     0
390
0
100
AcDbVertex
100
AcDb2dVertex
 10
115.455948
 20
75.800201
 30
0.0
  0
SEQEND
  5
D1
100
AcDbEntity
  8
0
370
     0
390
0
  0
POLYLINE
  5
D2
100
AcDbEntity
  8
0
370
    13
390
0
 62
     5
100
AcDb2dPolyline
 66
     1
 10
0.0
 20
0.0
 30
0.0
 71
    10
  0
VERTEX
  5
D3
100
AcDbEntity
  8
0
370
     0
390
0
100
AcDbVertex
100
AcDb2dVertex
 10
114.370941
 20
76.885208
 30
0.0
  0
VERTEX
  5
D4
100
AcDbEntity
  8
0
370
     0
390
0
100
AcDbVertex
100
AcDb2dVertex
 10
114.265945
 20
77.0952
 30
0.0
  0
VERTEX
  5
D5
100
AcDbEntity
  8
0
370
     0
390
0
100
AcDbVertex
100
AcDb2dVertex
 10
113.810944
 20
77.340195
 30
0.0
  0
VERTEX
  5
D6
100
AcDbEntity
  8
0
370
     0
390
0
100
AcDbVertex
100
AcDb2dVertex
 10
113.320946
 20
77.235199
 30
0.0
  0
VERTEX
  5
D7
100
AcDbEntity
  8
0
370
     0
390
0
100
AcDbVertex
100
AcDb2dVertex
 10
113.075943
 20
76.9552
 30
0.0
  0
VERTEX
  5
D8
100
AcDbEntity
  8
0
370
     0
390
0
100
AcDbVertex
100
AcDb2dVertex
 10
113.075943
 20
76.535202
 30
0.0
  0
VERTEX
  5
D9
100
AcDbEntity
  8
0
370
     0
390
0
100
AcDbVertex
100
AcDb2dVertex
 10
113.320946
 20
76.115204
 30
0.0
  0
VERTEX
  5
DA
100
AcDbEntity
  8
0
370
     0
390
0
100
AcDbVertex
100
AcDb2dVertex
 10
113.740944
 20
76.010208
 30
0.0
  0
VERTEX
  5
DB
100
AcDbEntity
  8
0
370
     0
390
0
100
AcDbVertex
100
AcDb2dVertex
 10
114.125946
 20
76.150208
 30
0.0
  0
VERTEX
  5
DC
100
AcDbEntity
  8
0
370
     0
390
0
100
AcDbVertex
100
AcDb2dVertex
 10
114.370941
 20
76.360199
 30
0.0
  0
SEQEND
  5
DD
100
AcDbEntity
  8
0
370
     0
390
0
  0
LINE
  5
DE
100
AcDbEntity
  8
0
370
    13
390
0
 62
     5
100
AcDbLine
 10
97.718597
 20
72.570206
 30
0.0
 11
120.225945
 21
72.570206
 31
0.0
210
0.0
220
0.0
230
1.0
  0
LINE
  5
DF
100
AcDbEntity
  8
0
370
    13
390
0
 62
     5
100
AcDbLine
 10
97.718597
 20
80.570206
 30
0.0
 11
120.225945
 21
80.570206
 31
0.0
210
0.0
220
0.0
230
1.0
  0
POLYLINE
  5
E0
100
AcDbEntity
  8
0
370
    13
390
0
 62
     5
100
AcDb2dPolyline
 66
     1
 10
0.0
 20
0.0
 30
0.0
 71
     3
  0
VERTEX
  5
E1
100
AcDbEntity
  8
0
370
     0
390
0
100
AcDbVertex
100
AcDb2dVertex
 10
118.743584
 20
70.638351
 30
0.0
  0
VERTEX
  5
E2
100
AcDbEntity
  8
0
370
     0
390
0
100
AcDbVertex
100
AcDb2dVertex
 10
118.225945
 20
72.570206
 30
0.0
  0
VERTEX
  5
E3
100
AcDbEntity
  8
0
370
     0
390
0
100
AcDbVertex
100
AcDb2dVertex
 10
117.708305
 20
70.638351
 30
0.0
  0
SEQEND
  5
E4
100
AcDbEntity
  8
0
370
     0
390
0
  0
POLYLINE
  5
E5
100
AcDbEntity
  8
0
370
    13
390
0
 62
     5
100
AcDb2dPolyline
 66
     1
 10
0.0
 20
0.0
 30
0.0
 71
     3
  0
VERTEX
  5
E6
100
AcDbEntity
  8
0
370
     0
390
0
100
AcDbVertex
100
AcDb2dVertex
 10
117.708305
 20
82.502045
 30
0.0
  0
VERTEX
  5
E7
100
AcDbEntity
  8
0
370
     0
390
0
100
AcDbVertex
100
AcDb2dVertex
 10
118.225945
 20
80.570206
 30
0.0
  0
VERTEX
  5
E8
100
AcDbEntity
  8
0
370
     0
390
0
100
AcDbVertex
100
AcDb2dVertex
 10
118.743584
 20
82.502045
 30
0.0
  0
SEQEND
  5
E9
100
AcDbEntity
  8
0
370
     0
390
0
  0
LINE
  5
EA
100
AcDbEntity
  8
0
370
    13
390
0
 62
     5
 48
0.45
100
AcDbLine
 10
118.225945
 20
67.570206
 30
0.0
 11
118.225945
 21
85.570206
 31
0.0
210
0.0
220
0.0
230
1.0
  0
POLYLINE
  5
EB
100
AcDbEntity
  8
0
370
    13
390
0
 62
     5
100
AcDb2dPolyline
 66
     1
 10
0.0
 20
0.0
 30
0.0
 71
    12
  0
VERTEX
  5
EC
100
AcDbEntity
  8
0
370
     0
390
0
100
AcDbVertex
100
AcDb2dVertex
 10
100.718399
 20
90.197083
 30
0.0
  0
VERTEX
  5
ED
100
AcDbEntity
  8
0
370
     0
390
0
100
AcDbVertex
100
AcDb2dVertex
 10
100.858398
 20
89.812073
 30
0.0
  0
VERTEX
  5
EE
100
AcDbEntity
  8
0
370
     0
390
0
100
AcDbVertex
100
AcDb2dVertex
 10
101.173393
 20
89.567078
 30
0.0
  0
VERTEX
  5
EF
100
AcDbEntity
  8
0
370
     0
390
0
100
AcDbVertex
100
AcDb2dVertex
 10
101.593399
 20
89.567078
 30
0.0
  0
VERTEX
  5
F0
100
AcDbEntity
  8
0
370
     0
390
0
100
AcDbVertex
100
AcDb2dVertex
 10
102.013397
 20
89.987076
 30
0.0
  0
VERTEX
  5
F1
100
AcDbEntity
  8
0
370
     0
390
0
100
AcDbVertex
100
AcDb2dVertex
 10
102.153397
 20
90.407074
 30
0.0
  0
VERTEX
  5
F2
100
AcDbEntity
  8
0
370
     0
390
0
100
AcDbVertex
100
AcDb2dVertex
 10
102.153397
 20
90.862076
 30
0.0
  0
VERTEX
  5
F3
100
AcDbEntity
  8
0
370
     0
390
0
100
AcDbVertex
100
AcDb2dVertex
 10
101.943398
 20
91.24707
 30
0.0
  0
VERTEX
  5
F4
100
AcDbEntity
  8
0
370
     0
390
0
100
AcDbVertex
100
AcDb2dVertex
 10
101.558395
 20
91.38707
 30
0.0
  0
VERTEX
  5
F5
100
AcDbEntity
  8
0
370
     0
390
0
100
AcDbVertex
100
AcDb2dVertex
 10
101.173393
 20
91.317078
 30
0.0
  0
VERTEX
  5
F6
100
AcDbEntity
  8
0
370
     0
390
0
100
AcDbVertex
100
AcDb2dVertex
 10
100.928398
 20
91.107071
 30
0.0
  0
VERTEX
  5
F7
100
AcDbEntity
  8
0
370
     0
390
0
100
AcDbVertex
100
AcDb2dVertex
 10
101.068398
 20
92.367081
 30
0.0
  0
SEQEND
  5
F8
100
AcDbEntity
  8
0
370
     0
390
0
  0
POLYLINE
  5
F9
100
AcDbEntity
  8
0
370
    13
390
0
 62
     5
100
AcDb2dPolyline
 66
     1
 10
0.0
 20
0.0
 30
0.0
 71
     2
  0
VERTEX
  5
FA
100
AcDbEntity
  8
0
370
     0
390
0
100
AcDbVertex
100
AcDb2dVertex
 10
101.068398
 20
92.227081
 30
0.0
  0
VERTEX
  5
FB
100
AcDbEntity
  8
0
370
     0
390
0
100
AcDbVertex
100
AcDb2dVertex
 10
102.223396
 20
92.227081
 30
0.0
  0
SEQEND
  5
FC
100
AcDbEntity
  8
0
370
     0
390
0
  0
POLYLINE
  5
FD
100
AcDbEntity
  8
0
370
    13
390
0
 62
     5
100
AcDb2dPolyline
 66
     1
 10
0.0
 20
0.0
 30
0.0
 70
     1
 71
     8
  0
VERTEX
  5
FE
100
AcDbEntity
  8
0
370
     0
390
0
100
AcDbVertex
100
AcDb2dVertex
 10
103.133392
 20
89.707077
 30
0.0
  0
VERTEX
  5
FF
100
AcDbEntity
  8
0
370
     0
390
0
100
AcDbVertex
100
AcDb2dVertex
 10
103.413391
 20
89.707077
 30
0.0
  0
VERTEX
  5
100
100
AcDbEntity
  8
0
370
     0
390
0
100
AcDbVertex
100
AcDb2dVertex
 10
103.62339
 20
89.917068
 30
0.0
  0
VERTEX
  5
101
100
AcDbEntity
  8
0
370
     0
390
0
100
AcDbVertex
100
AcDb2dVertex
 10
103.62339
 20
90.197083
 30
0.0
  0
VERTEX
  5
102
100
AcDbEntity
  8
0
370
     0
390
0
100
AcDbVertex
100
AcDb2dVertex
 10
103.413391
 20
90.407074
 30
0.0
  0
VERTEX
  5
103
100
AcDbEntity
  8
0
370
     0
390
0
100
AcDbVertex
100
AcDb2dVertex
 10
103.133392
 20
90.407074
 30
0.0
  0
VERTEX
  5
104
100
AcDbEntity
  8
0
370
     0
390
0
100
AcDbVertex
100
AcDb2dVertex
 10
102.923393
 20
90.197083
 30
0.0
  0
VERTEX
  5
105
100
AcDbEntity
  8
0
370
     0
390
0
100
AcDbVertex
100
AcDb2dVertex
 10
102.923393
 20
89.917068
 30
0.0
  0
SEQEND
  5
106
100
AcDbEntity
  8
0
370
     0
390
0
  0
POLYLINE
  5
107
100
AcDbEntity
  8
0
370
    13
390
0
 62
     5
100
AcDb2dPolyline
 66
     1
 10
0.0
 20
0.0
 30
0.0
 71
     2
  0
VERTEX
  5
108
100
AcDbEntity
  8
0
370
     0
390
0
100
AcDbVertex
100
AcDb2dVertex
 10
102.993393
 20
90.267075
 30
0.0
  0
VERTEX
  5
109
100
AcDbEntity
  8
0
370
     0
390
0
100
AcDbVertex
100
AcDb2dVertex
 10
103.553391
 20
90.267075
 30
0.0
  0
SEQEND
  5
10A
100
AcDbEntity
  8
0
370
     0
390
0
  0
POLYLINE
  5
10B
100
AcDbEntity
  8
0
370
    13
390
0
 62
     5
100
AcDb2dPolyline
 66
     1
 10
0.0
 20
0.0
 30
0.0
 71
     2
  0
VERTEX
  5
10C
100
AcDbEntity
  8
0
370
     0
390
0
100
AcDbVertex
100
AcDb2dVertex
 10
103.62339
 20
90.057068
 30
0.0
  0
VERTEX
  5
10D
100
AcDbEntity
  8
0
370
     0
390
0
100
AcDbVertex
100
AcDb2dVertex
 10
102.923393
 20
90.057068
 30
0.0
  0
SEQEND
  5
10E
100
AcDbEntity
  8
0
370
     0
390
0
  0
POLYLINE
  5
10F
100
AcDbEntity
  8
0
370
    13
390
0
 62
     5
100
AcDb2dPolyline
 66
     1
 10
0.0
 20
0.0
 30
0.0
 71
     2
  0
VERTEX
  5
110
100
AcDbEntity
  8
0
370
     0
390
0
100
AcDbVertex
100
AcDb2dVertex
 10
102.993393
 20
89.847076
 30
0.0
  0
VERTEX
  5
111
100
AcDbEntity
  8
0
370
     0
390
0
100
AcDbVertex
100
AcDb2dVertex
 10
103.553391
 20
89.847076
 30
0.0
  0
SEQEND
  5
112
100
AcDbEntity
  8
0
370
     0
390
0
  0
POLYLINE
  5
113
100
AcDbEntity
  8
0
370
    13
390
0
 62
     5
100
AcDb2dPolyline
 66
     1
 10
0.0
 20
0.0
 30
0.0
 71
    12
  0
VERTEX
  5
114
100
AcDbEntity
  8
0
370
     0
390
0
100
AcDbVertex
100
AcDb2dVertex
 10
104.323395
 20
90.197083
 30
0.0
  0
VERTEX
  5
115
100
AcDbEntity
  8
0
370
     0
390
0
100
AcDbVertex
100
AcDb2dVertex
 10
104.463394
 20
89.812073
 30
0.0
  0
VERTEX
  5
116
100
AcDbEntity
  8
0
370
     0
390
0
100
AcDbVertex
100
AcDb2dVertex
 10
104.778389
 20
89.567078
 30
0.0
  0
VERTEX
  5
117
100
AcDbEntity
  8
0
370
     0
390
0
100
AcDbVertex
100
AcDb2dVertex
 10
105.198395
 20
89.567078
 30
0.0
  0
VERTEX
  5
118
100
AcDbEntity
  8
0
370
     0
390
0
100
AcDbVertex
100
AcDb2dVertex
 10
105.618393
 20
89.987076
 30
0.0
  0
VERTEX
  5
119
100
AcDbEntity
  8
0
370
     0
390
0
100
AcDbVertex
100
AcDb2dVertex
 10
105.758392
 20
90.407074
 30
0.0
  0
VERTEX
  5
11A
100
AcDbEntity
  8
0
370
     0
390
0
100
AcDbVertex
100
AcDb2dVertex
 10
105.758392
 20
90.862076
 30
0.0
  0
VERTEX
  5
11B
100
AcDbEntity
  8
0
370
     0
390
0
100
AcDbVertex
100
AcDb2dVertex
 10
105.548393
 20
91.24707
 30
0.0
  0
VERTEX
  5
11C
100
AcDbEntity
  8
0
370
     0
390
0
100
AcDbVertex
100
AcDb2dVertex
 10
105.163391
 20
91.38707
 30
0.0
  0
VERTEX
  5
11D
100
AcDbEntity
  8
0
370
     0
390
0
100
AcDbVertex
100
AcDb2dVertex
 10
104.778389
 20
91.317078
 30
0.0
  0
VERTEX
  5
11E
100
AcDbEntity
  8
0
370
     0
390
0
100
AcDbVertex
100
AcDb2dVertex
 10
104.533394
 20
91.107071
 30
0.0
  0
VERTEX
  5
11F
100
AcDbEntity
  8
0
370
     0
390
0
100
AcDbVertex
100
AcDb2dVertex
 10
104.673393
 20
92.367081
 30
0.0
  0
SEQEND
  5
120
100
AcDbEntity
  8
0
370
     0
390
0
  0
POLYLINE
  5
121
100
AcDbEntity
  8
0
370
    13
390
0
 62
     5
100
AcDb2dPolyline
 66
     1
 10
0.0
 20
0.0
 30
0.0
 71
     2
  0
VERTEX
  5
122
100
AcDbEntity
  8
0
370
     0
390
0
100
AcDbVertex
100
AcDb2dVertex
 10
104.673393
 20
92.227081
 30
0.0
  0
VERTEX
  5
123
100
AcDbEntity
  8
0
370
     0
390
0
100
AcDbVertex
100
AcDb2dVertex
 10
105.828392
 20
92.227081
 30
0.0
  0
SEQEND
  5
124
100
AcDbEntity
  8
0
370
     0
390
0
  0
LINE
  5
125
100
AcDbEntity
  8
0
370
    13
390
0
 62
     5
 48
0.166182
100
AcDbLine
 10
90.218399
 20
82.569794
 30
0.0
 11
90.218399
 21
89.217072
 31
0.0
210
0.0
220
0.0
230
1.0
  0
LINE
  5
126
100
AcDbEntity
  8
0
370
    13
390
0
 62
     5
 48
0.166182
100
AcDbLine
 10
95.718399
 20
82.569794
 30
0.0
 11
95.718399
 21
89.217072
 31
0.0
210
0.0
220
0.0
230
1.0
  0
POLYLINE
  5
127
100
AcDbEntity
  8
0
370
    13
390
0
 62
     5
100
AcDb2dPolyline
 66
     1
 10
0.0
 20
0.0
 30
0.0
 71
     3
  0
VERTEX
  5
128
100
AcDbEntity
  8
0
370
     0
390
0
100
AcDbVertex
100
AcDb2dVertex
 10
88.286545
 20
86.699432
 30
0.0
  0
VERTEX
  5
129
100
AcDbEntity
  8
0
370
     0
390
0
100
AcDbVertex
100
AcDb2dVertex
 10
90.218399
 20
87.217072
 30
0.0
  0
VERTEX
  5
12A
100
AcDbEntity
  8
0
370
     0
390
0
100
AcDbVertex
100
AcDb2dVertex
 10
88.286545
 20
87.734711
 30
0.0
  0
SEQEND
  5
12B
100
AcDbEntity
  8
0
370
     0
390
0
  0
POLYLINE
  5
12C
100
AcDbEntity
  8
0
370
    13
390
0
 62
     5
100
AcDb2dPolyline
 66
     1
 10
0.0
 20
0.0
 30
0.0
 71
     3
  0
VERTEX
  5
12D
100
AcDbEntity
  8
0
370
     0
390
0
100
AcDbVertex
100
AcDb2dVertex
 10
97.650253
 20
87.734711
 30
0.0
  0
VERTEX
  5
12E
100
AcDbEntity
  8
0
370
     0
390
0
100
AcDbVertex
100
AcDb2dVertex
 10
95.718399
 20
87.217072
 30
0.0
  0
VERTEX
  5
12F
100
AcDbEntity
  8
0
370
     0
390
0
100
AcDbVertex
100
AcDb2dVertex
 10
97.650253
 20
86.699432
 30
0.0
  0
SEQEND
  5
130
100
AcDbEntity
  8
0
370
     0
390
0
  0
LINE
  5
131
100
AcDbEntity
  8
0
370
    13
390
0
 62
     5
100
AcDbLine
 10
85.218399
 20
87.217072
 30
0.0
 11
105.8284
 21
87.217072
 31
0.0
210
0.0
220
0.0
230
1.0
  0
POLYLINE
  5
132
100
AcDbEntity
  8
0
370
    13
390
0
 62
     5
100
AcDb2dPolyline
 66
     1
 10
0.0
 20
0.0
 30
0.0
 71
     3
  0
VERTEX
  5
133
100
AcDbEntity
  8
0
370
     0
390
0
100
AcDbVertex
100
AcDb2dVertex
 10
74.359673
 20
87.002304
 30
0.0
  0
VERTEX
  5
134
100
AcDbEntity
  8
0
370
     0
390
0
100
AcDbVertex
100
AcDb2dVertex
 10
75.759674
 20
86.897308
 30
0.0
  0
VERTEX
  5
135
100
AcDbEntity
  8
0
370
     0
390
0
100
AcDbVertex
100
AcDb2dVertex
 10
77.159676
 20
86.792297
 30
0.0
  0
SEQEND
  5
136
100
AcDbEntity
  8
0
370
     0
390
0
  0
POLYLINE
  5
137
100
AcDbEntity
  8
0
370
    13
390
0
 62
     5
100
AcDb2dPolyline
 66
     1
 10
0.0
 20
0.0
 30
0.0
 70
     1
 71
     9
  0
VERTEX
  5
138
100
AcDbEntity
  8
0
370
     0
390
0
100
AcDbVertex
100
AcDb2dVertex
 10
77.159676
 20
88.122299
 30
0.0
  0
VERTEX
  5
139
100
AcDbEntity
  8
0
370
     0
390
0
100
AcDbVertex
100
AcDb2dVertex
 10
77.12468
 20
88.752304
 30
0.0
  0
VERTEX
  5
13A
100
AcDbEntity
  8
0
370
     0
390
0
100
AcDbVertex
100
AcDb2dVertex
 10
76.73967
 20
89.137299
 30
0.0
  0
VERTEX
  5
13B
100
AcDbEntity
  8
0
370
     0
390
0
100
AcDbVertex
100
AcDb2dVertex
 10
76.109673
 20
89.137299
 30
0.0
  0
VERTEX
  5
13C
100
AcDbEntity
  8
0
370
     0
390
0
100
AcDbVertex
100
AcDb2dVertex
 10
75.654678
 20
88.787308
 30
0.0
  0
VERTEX
  5
13D
100
AcDbEntity
  8
0
370
     0
390
0
100
AcDbVertex
100
AcDb2dVertex
 10
75.654678
 20
88.262299
 30
0.0
  0
VERTEX
  5
13E
100
AcDbEntity
  8
0
370
     0
390
0
100
AcDbVertex
100
AcDb2dVertex
 10
75.86467
 20
87.912308
 30
0.0
  0
VERTEX
  5
13F
100
AcDbEntity
  8
0
370
     0
390
0
100
AcDbVertex
100
AcDb2dVertex
 10
76.214676
 20
87.702301
 30
0.0
  0
VERTEX
  5
140
100
AcDbEntity
  8
0
370
     0
390
0
100
AcDbVertex
100
AcDb2dVertex
 10
76.73967
 20
87.702301
 30
0.0
  0
SEQEND
  5
141
100
AcDbEntity
  8
0
370
     0
390
0
  0
POLYLINE
  5
142
100
AcDbEntity
  8
0
370
    13
390
0
 62
     5
100
AcDb2dPolyline
 66
     1
 10
0.0
 20
0.0
 30
0.0
 71
    10
  0
VERTEX
  5
143
100
AcDbEntity
  8
0
370
     0
390
0
100
AcDbVertex
100
AcDb2dVertex
 10
75.654678
 20
88.787308
 30
0.0
  0
VERTEX
  5
144
100
AcDbEntity
  8
0
370
     0
390
0
100
AcDbVertex
100
AcDb2dVertex
 10
75.549675
 20
88.997299
 30
0.0
  0
VERTEX
  5
145
100
AcDbEntity
  8
0
370
     0
390
0
100
AcDbVertex
100
AcDb2dVertex
 10
75.094673
 20
89.242294
 30
0.0
  0
VERTEX
  5
146
100
AcDbEntity
  8
0
370
     0
390
0
100
AcDbVertex
100
AcDb2dVertex
 10
74.604675
 20
89.137299
 30
0.0
  0
VERTEX
  5
147
100
AcDbEntity
  8
0
370
     0
390
0
100
AcDbVertex
100
AcDb2dVertex
 10
74.359673
 20
88.8573
 30
0.0
  0
VERTEX
  5
148
100
AcDbEntity
  8
0
370
     0
390
0
100
AcDbVertex
100
AcDb2dVertex
 10
74.359673
 20
88.437302
 30
0.0
  0
VERTEX
  5
149
100
AcDbEntity
  8
0
370
     0
390
0
100
AcDbVertex
100
AcDb2dVertex
 10
74.604675
 20
88.017303
 30
0.0
  0
VERTEX
  5
14A
100
AcDbEntity
  8
0
370
     0
390
0
100
AcDbVertex
100
AcDb2dVertex
 10
75.024673
 20
87.912308
 30
0.0
  0
VERTEX
  5
14B
100
AcDbEntity
  8
0
370
     0
390
0
100
AcDbVertex
100
AcDb2dVertex
 10
75.409676
 20
88.052307
 30
0.0
  0
VERTEX
  5
14C
100
AcDbEntity
  8
0
370
     0
390
0
100
AcDbVertex
100
AcDb2dVertex
 10
75.654678
 20
88.262299
 30
0.0
  0
SEQEND
  5
14D
100
AcDbEntity
  8
0
370
     0
390
0
  0
POLYLINE
  5
14E
100
AcDbEntity
  8
0
370
    13
390
0
 62
     5
100
AcDb2dPolyline
 66
     1
 10
0.0
 20
0.0
 30
0.0
 70
     1
 71
     8
  0
VERTEX
  5
14F
100
AcDbEntity
  8
0
370
     0
390
0
100
AcDbVertex
100
AcDb2dVertex
 10
77.019669
 20
90.152298
 30
0.0
  0
VERTEX
  5
150
100
AcDbEntity
  8
0
370
     0
390
0
100
AcDbVertex
100
AcDb2dVertex
 10
77.019669
 20
90.432297
 30
0.0
  0
VERTEX
  5
151
100
AcDbEntity
  8
0
370
     0
390
0
100
AcDbVertex
100
AcDb2dVertex
 10
76.809677
 20
90.642303
 30
0.0
  0
VERTEX
  5
152
100
AcDbEntity
  8
0
370
     0
390
0
100
AcDbVertex
100
AcDb2dVertex
 10
76.529678
 20
90.642303
 30
0.0
  0
VERTEX
  5
153
100
AcDbEntity
  8
0
370
     0
390
0
100
AcDbVertex
100
AcDb2dVertex
 10
76.319672
 20
90.432297
 30
0.0
  0
VERTEX
  5
154
100
AcDbEntity
  8
0
370
     0
390
0
100
AcDbVertex
100
AcDb2dVertex
 10
76.319672
 20
90.152298
 30
0.0
  0
VERTEX
  5
155
100
AcDbEntity
  8
0
370
     0
390
0
100
AcDbVertex
100
AcDb2dVertex
 10
76.529678
 20
89.942307
 30
0.0
  0
VERTEX
  5
156
100
AcDbEntity
  8
0
370
     0
390
0
100
AcDbVertex
100
AcDb2dVertex
 10
76.809677
 20
89.942307
 30
0.0
  0
SEQEND
  5
157
100
AcDbEntity
  8
0
370
     0
390
0
  0
POLYLINE
  5
158
100
AcDbEntity
  8
0
370
    13
390
0
 62
     5
100
AcDb2dPolyline
 66
     1
 10
0.0
 20
0.0
 30
0.0
 71
     2
  0
VERTEX
  5
159
100
AcDbEntity
  8
0
370
     0
390
0
100
AcDbVertex
100
AcDb2dVertex
 10
76.459671
 20
90.012299
 30
0.0
  0
VERTEX
  5
15A
100
AcDbEntity
  8
0
370
     0
390
0
100
AcDbVertex
100
AcDb2dVertex
 10
76.459671
 20
90.572296
 30
0.0
  0
SEQEND
  5
15B
100
AcDbEntity
  8
0
370
     0
390
0
  0
POLYLINE
  5
15C
100
AcDbEntity
  8
0
370
    13
390
0
 62
     5
100
AcDb2dPolyline
 66
     1
 10
0.0
 20
0.0
 30
0.0
 71
     2
  0
VERTEX
  5
15D
100
AcDbEntity
  8
0
370
     0
390
0
100
AcDbVertex
100
AcDb2dVertex
 10
76.669678
 20
90.642303
 30
0.0
  0
VERTEX
  5
15E
100
AcDbEntity
  8
0
370
     0
390
0
100
AcDbVertex
100
AcDb2dVertex
 10
76.669678
 20
89.942307
 30
0.0
  0
SEQEND
  5
15F
100
AcDbEntity
  8
0
370
     0
390
0
  0
POLYLINE
  5
160
100
AcDbEntity
  8
0
370
    13
390
0
 62
     5
100
AcDb2dPolyline
 66
     1
 10
0.0
 20
0.0
 30
0.0
 71
     2
  0
VERTEX
  5
161
100
AcDbEntity
  8
0
370
     0
390
0
100
AcDbVertex
100
AcDb2dVertex
 10
76.879669
 20
90.012299
 30
0.0
  0
VERTEX
  5
162
100
AcDbEntity
  8
0
370
     0
390
0
100
AcDbVertex
100
AcDb2dVertex
 10
76.879669
 20
90.572296
 30
0.0
  0
SEQEND
  5
163
100
AcDbEntity
  8
0
370
     0
390
0
  0
POLYLINE
  5
164
100
AcDbEntity
  8
0
370
    13
390
0
 62
     5
100
AcDb2dPolyline
 66
     1
 10
0.0
 20
0.0
 30
0.0
 71
    12
  0
VERTEX
  5
165
100
AcDbEntity
  8
0
370
     0
390
0
100
AcDbVertex
100
AcDb2dVertex
 10
76.529678
 20
91.3423
 30
0.0
  0
VERTEX
  5
166
100
AcDbEntity
  8
0
370
     0
390
0
100
AcDbVertex
100
AcDb2dVertex
 10
76.914673
 20
91.4823
 30
0.0
  0
VERTEX
  5
167
100
AcDbEntity
  8
0
370
     0
390
0
100
AcDbVertex
100
AcDb2dVertex
 10
77.159676
 20
91.797302
 30
0.0
  0
VERTEX
  5
168
100
AcDbEntity
  8
0
370
     0
390
0
100
AcDbVertex
100
AcDb2dVertex
 10
77.159676
 20
92.2173
 30
0.0
  0
VERTEX
  5
169
100
AcDbEntity
  8
0
370
     0
390
0
100
AcDbVertex
100
AcDb2dVertex
 10
76.73967
 20
92.637299
 30
0.0
  0
VERTEX
  5
16A
100
AcDbEntity
  8
0
370
     0
390
0
100
AcDbVertex
100
AcDb2dVertex
 10
76.319672
 20
92.777298
 30
0.0
  0
VERTEX
  5
16B
100
AcDbEntity
  8
0
370
     0
390
0
100
AcDbVertex
100
AcDb2dVertex
 10
75.86467
 20
92.777298
 30
0.0
  0
VERTEX
  5
16C
100
AcDbEntity
  8
0
370
     0
390
0
100
AcDbVertex
100
AcDb2dVertex
 10
75.479675
 20
92.567307
 30
0.0
  0
VERTEX
  5
16D
100
AcDbEntity
  8
0
370
     0
390
0
100
AcDbVertex
100
AcDb2dVertex
 10
75.339676
 20
92.182297
 30
0.0
  0
VERTEX
  5
16E
100
AcDbEntity
  8
0
370
     0
390
0
100
AcDbVertex
100
AcDb2dVertex
 10
75.409676
 20
91.797302
 30
0.0
  0
VERTEX
  5
16F
100
AcDbEntity
  8
0
370
     0
390
0
100
AcDbVertex
100
AcDb2dVertex
 10
75.619675
 20
91.552307
 30
0.0
  0
VERTEX
  5
170
100
AcDbEntity
  8
0
370
     0
390
0
100
AcDbVertex
100
AcDb2dVertex
 10
74.359673
 20
91.692307
 30
0.0
  0
SEQEND
  5
171
100
AcDbEntity
  8
0
370
     0
390
0
  0
POLYLINE
  5
172
100
AcDbEntity
  8
0
370
    13
390
0
 62
     5
100
AcDb2dPolyline
 66
     1
 10
0.0
 20
0.0
 30
0.0
 71
     2
  0
VERTEX
  5
173
100
AcDbEntity
  8
0
370
     0
390
0
100
AcDbVertex
100
AcDb2dVertex
 10
74.49968
 20
91.692307
 30
0.0
  0
VERTEX
  5
174
100
AcDbEntity
  8
0
370
     0
390
0
100
AcDbVertex
100
AcDb2dVertex
 10
74.49968
 20
92.847305
 30
0.0
  0
SEQEND
  5
175
100
AcDbEntity
  8
0
370
     0
390
0
  0
LINE
  5
176
100
AcDbEntity
  8
0
370
    13
390
0
 62
     5
 48
0.267718
100
AcDbLine
 10
88.218399
 20
80.569794
 30
0.0
 11
77.509674
 21
80.569794
 31
0.0
210
0.0
220
0.0
230
1.0
  0
LINE
  5
177
100
AcDbEntity
  8
0
370
    13
390
0
 62
     5
 48
0.267718
100
AcDbLine
 10
88.218399
 20
99.069794
 30
0.0
 11
77.509674
 21
99.069794
 31
0.0
210
0.0
220
0.0
230
1.0
  0
POLYLINE
  5
178
100
AcDbEntity
  8
0
370
    13
390
0
 62
     5
100
AcDb2dPolyline
 66
     1
 10
0.0
 20
0.0
 30
0.0
 71
     3
  0
VERTEX
  5
179
100
AcDbEntity
  8
0
370
     0
390
0
100
AcDbVertex
100
AcDb2dVertex
 10
78.992035
 20
82.501648
 30
0.0
  0
VERTEX
  5
17A
100
AcDbEntity
  8
0
370
     0
390
0
100
AcDbVertex
100
AcDb2dVertex
 10
79.509674
 20
80.569794
 30
0.0
  0
VERTEX
  5
17B
100
AcDbEntity
  8
0
370
     0
390
0
100
AcDbVertex
100
AcDb2dVertex
 10
80.027313
 20
82.501648
 30
0.0
  0
SEQEND
  5
17C
100
AcDbEntity
  8
0
370
     0
390
0
  0
POLYLINE
  5
17D
100
AcDbEntity
  8
0
370
    13
390
0
 62
     5
100
AcDb2dPolyline
 66
     1
 10
0.0
 20
0.0
 30
0.0
 71
     3
  0
VERTEX
  5
17E
100
AcDbEntity
  8
0
370
     0
390
0
100
AcDbVertex
100
AcDb2dVertex
 10
80.027313
 20
97.137939
 30
0.0
  0
VERTEX
  5
17F
100
AcDbEntity
  8
0
370
     0
390
0
100
AcDbVertex
100
AcDb2dVertex
 10
79.509674
 20
99.069794
 30
0.0
  0
VERTEX
  5
180
100
AcDbEntity
  8
0
370
     0
390
0
100
AcDbVertex
100
AcDb2dVertex
 10
78.992035
 20
97.137939
 30
0.0
  0
SEQEND
  5
181
100
AcDbEntity
  8
0
370
     0
390
0
  0
LINE
  5
182
100
AcDbEntity
  8
0
370
    13
390
0
 62
     5
 48
0.4625
100
AcDbLine
 10
79.509674
 20
80.569794
 30
0.0
 11
79.509674
 21
99.069794
 31
0.0
210
0.0
220
0.0
230
1.0
  0
POLYLINE
  5
183
100
AcDbEntity
  8
0
370
    13
390
0
 62
     5
100
AcDb2dPolyline
 66
     1
 10
0.0
 20
0.0
 30
0.0
 71
    12
  0
VERTEX
  5
184
100
AcDbEntity
  8
0
370
     0
390
0
100
AcDbVertex
100
AcDb2dVertex
 10
100.718399
 20
98.145081
 30
0.0
  0
VERTEX
  5
185
100
AcDbEntity
  8
0
370
     0
390
0
100
AcDbVertex
100
AcDb2dVertex
 10
100.858398
 20
97.760071
 30
0.0
  0
VERTEX
  5
186
100
AcDbEntity
  8
0
370
     0
390
0
100
AcDbVertex
100
AcDb2dVertex
 10
101.173393
 20
97.515076
 30
0.0
  0
VERTEX
  5
187
100
AcDbEntity
  8
0
370
     0
390
0
100
AcDbVertex
100
AcDb2dVertex
 10
101.593399
 20
97.515076
 30
0.0
  0
VERTEX
  5
188
100
AcDbEntity
  8
0
370
     0
390
0
100
AcDbVertex
100
AcDb2dVertex
 10
102.013397
 20
97.935074
 30
0.0
  0
VERTEX
  5
189
100
AcDbEntity
  8
0
370
     0
390
0
100
AcDbVertex
100
AcDb2dVertex
 10
102.153397
 20
98.355072
 30
0.0
  0
VERTEX
  5
18A
100
AcDbEntity
  8
0
370
     0
390
0
100
AcDbVertex
100
AcDb2dVertex
 10
102.153397
 20
98.810074
 30
0.0
  0
VERTEX
  5
18B
100
AcDbEntity
  8
0
370
     0
390
0
100
AcDbVertex
100
AcDb2dVertex
 10
101.943398
 20
99.195068
 30
0.0
  0
VERTEX
  5
18C
100
AcDbEntity
  8
0
370
     0
390
0
100
AcDbVertex
100
AcDb2dVertex
 10
101.558395
 20
99.335068
 30
0.0
  0
VERTEX
  5
18D
100
AcDbEntity
  8
0
370
     0
390
0
100
AcDbVertex
100
AcDb2dVertex
 10
101.173393
 20
99.265076
 30
0.0
  0
VERTEX
  5
18E
100
AcDbEntity
  8
0
370
     0
390
0
100
AcDbVertex
100
AcDb2dVertex
 10
100.928398
 20
99.055069
 30
0.0
  0
VERTEX
  5
18F
100
AcDbEntity
  8
0
370
     0
390
0
100
AcDbVertex
100
AcDb2dVertex
 10
101.068398
 20
100.315079
 30
0.0
  0
SEQEND
  5
190
100
AcDbEntity
  8
0
370
     0
390
0
  0
POLYLINE
  5
191
100
AcDbEntity
  8
0
370
    13
390
0
 62
     5
100
AcDb2dPolyline
 66
     1
 10
0.0
 20
0.0
 30
0.0
 71
     2
  0
VERTEX
  5
192
100
AcDbEntity
  8
0
370
     0
390
0
100
AcDbVertex
100
AcDb2dVertex
 10
101.068398
 20
100.175079
 30
0.0
  0
VERTEX
  5
193
100
AcDbEntity
  8
0
370
     0
390
0
100
AcDbVertex
100
AcDb2dVertex
 10
102.223396
 20
100.175079
 30
0.0
  0
SEQEND
  5
194
100
AcDbEntity
  8
0
370
     0
390
0
  0
POLYLINE
  5
195
100
AcDbEntity
  8
0
370
    13
390
0
 62
     5
100
AcDb2dPolyline
 66
     1
 10
0.0
 20
0.0
 30
0.0
 70
     1
 71
     8
  0
VERTEX
  5
196
100
AcDbEntity
  8
0
370
     0
390
0
100
AcDbVertex
100
AcDb2dVertex
 10
103.133392
 20
97.655075
 30
0.0
  0
VERTEX
  5
197
100
AcDbEntity
  8
0
370
     0
390
0
100
AcDbVertex
100
AcDb2dVertex
 10
103.413391
 20
97.655075
 30
0.0
  0
VERTEX
  5
198
100
AcDbEntity
  8
0
370
     0
390
0
100
AcDbVertex
100
AcDb2dVertex
 10
103.62339
 20
97.865067
 30
0.0
  0
VERTEX
  5
199
100
AcDbEntity
  8
0
370
     0
390
0
100
AcDbVertex
100
AcDb2dVertex
 10
103.62339
 20
98.145081
 30
0.0
  0
VERTEX
  5
19A
100
AcDbEntity
  8
0
370
     0
390
0
100
AcDbVertex
100
AcDb2dVertex
 10
103.413391
 20
98.355072
 30
0.0
  0
VERTEX
  5
19B
100
AcDbEntity
  8
0
370
     0
390
0
100
AcDbVertex
100
AcDb2dVertex
 10
103.133392
 20
98.355072
 30
0.0
  0
VERTEX
  5
19C
100
AcDbEntity
  8
0
370
     0
390
0
100
AcDbVertex
100
AcDb2dVertex
 10
102.923393
 20
98.145081
 30
0.0
  0
VERTEX
  5
19D
100
AcDbEntity
  8
0
370
     0
390
0
100
AcDbVertex
100
AcDb2dVertex
 10
102.923393
 20
97.865067
 30
0.0
  0
SEQEND
  5
19E
100
AcDbEntity
  8
0
370
     0
390
0
  0
POLYLINE
  5
19F
100
AcDbEntity
  8
0
370
    13
390
0
 62
     5
100
AcDb2dPolyline
 66
     1
 10
0.0
 20
0.0
 30
0.0
 71
     2
  0
VERTEX
  5
1A0
100
AcDbEntity
  8
0
370
     0
390
0
100
AcDbVertex
100
AcDb2dVertex
 10
102.993393
 20
98.215073
 30
0.0
  0
VERTEX
  5
1A1
100
AcDbEntity
  8
0
370
     0
390
0
100
AcDbVertex
100
AcDb2dVertex
 10
103.553391
 20
98.215073
 30
0.0
  0
SEQEND
  5
1A2
100
AcDbEntity
  8
0
370
     0
390
0
  0
POLYLINE
  5
1A3
100
AcDbEntity
  8
0
370
    13
390
0
 62
     5
100
AcDb2dPolyline
 66
     1
 10
0.0
 20
0.0
 30
0.0
 71
     2
  0
VERTEX
  5
1A4
100
AcDbEntity
  8
0
370
     0
390
0
100
AcDbVertex
100
AcDb2dVertex
 10
103.62339
 20
98.005066
 30
0.0
  0
VERTEX
  5
1A5
100
AcDbEntity
  8
0
370
     0
390
0
100
AcDbVertex
100
AcDb2dVertex
 10
102.923393
 20
98.005066
 30
0.0
  0
SEQEND
  5
1A6
100
AcDbEntity
  8
0
370
     0
390
0
  0
POLYLINE
  5
1A7
100
AcDbEntity
  8
0
370
    13
390
0
 62
     5
100
AcDb2dPolyline
 66
     1
 10
0.0
 20
0.0
 30
0.0
 71
     2
  0
VERTEX
  5
1A8
100
AcDbEntity
  8
0
370
     0
390
0
100
AcDbVertex
100
AcDb2dVertex
 10
102.993393
 20
97.795074
 30
0.0
  0
VERTEX
  5
1A9
100
AcDbEntity
  8
0
370
     0
390
0
100
AcDbVertex
100
AcDb2dVertex
 10
103.553391
 20
97.795074
 30
0.0
  0
SEQEND
  5
1AA
100
AcDbEntity
  8
0
370
     0
390
0
  0
POLYLINE
  5
1AB
100
AcDbEntity
  8
0
370
    13
390
0
 62
     5
100
AcDb2dPolyline
 66
     1
 10
0.0
 20
0.0
 30
0.0
 71
    12
  0
VERTEX
  5
1AC
100
AcDbEntity
  8
0
370
     0
390
0
100
AcDbVertex
100
AcDb2dVertex
 10
104.323395
 20
98.145081
 30
0.0
  0
VERTEX
  5
1AD
100
AcDbEntity
  8
0
370
     0
390
0
100
AcDbVertex
100
AcDb2dVertex
 10
104.463394
 20
97.760071
 30
0.0
  0
VERTEX
  5
1AE
100
AcDbEntity
  8
0
370
     0
390
0
100
AcDbVertex
100
AcDb2dVertex
 10
104.778389
 20
97.515076
 30
0.0
  0
VERTEX
  5
1AF
100
AcDbEntity
  8
0
370
     0
390
0
100
AcDbVertex
100
AcDb2dVertex
 10
105.198395
 20
97.515076
 30
0.0
  0
VERTEX
  5
1B0
100
AcDbEntity
  8
0
370
     0
390
0
100
AcDbVertex
100
AcDb2dVertex
 10
105.618393
 20
97.935074
 30
0.0
  0
VERTEX
  5
1B1
100
AcDbEntity
  8
0
370
     0
390
0
100
AcDbVertex
100
AcDb2dVertex
 10
105.758392
 20
98.355072
 30
0.0
  0
VERTEX
  5
1B2
100
AcDbEntity
  8
0
370
     0
390
0
100
AcDbVertex
100
AcDb2dVertex
 10
105.758392
 20
98.810074
 30
0.0
  0
VERTEX
  5
1B3
100
AcDbEntity
  8
0
370
     0
390
0
100
AcDbVertex
100
AcDb2dVertex
 10
105.548393
 20
99.195068
 30
0.0
  0
VERTEX
  5
1B4
100
AcDbEntity
  8
0
370
     0
390
0
100
AcDbVertex
100
AcDb2dVertex
 10
105.163391
 20
99.335068
 30
0.0
  0
VERTEX
  5
1B5
100
AcDbEntity
  8
0
370
     0
390
0
100
AcDbVertex
100
AcDb2dVertex
 10
104.778389
 20
99.265076
 30
0.0
  0
VERTEX
  5
1B6
100
AcDbEntity
  8
0
370
     0
390
0
100
AcDbVertex
100
AcDb2dVertex
 10
104.533394
 20
99.055069
 30
0.0
  0
VERTEX
  5
1B7
100
AcDbEntity
  8
0
370
     0
390
0
100
AcDbVertex
100
AcDb2dVertex
 10
104.673393
 20
100.315079
 30
0.0
  0
SEQEND
  5
1B8
100
AcDbEntity
  8
0
370
     0
390
0
  0
POLYLINE
  5
1B9
100
AcDbEntity
  8
0
370
    13
390
0
 62
     5
100
AcDb2dPolyline
 66
     1
 10
0.0
 20
0.0
 30
0.0
 71
     2
  0
VERTEX
  5
1BA
100
AcDbEntity
  8
0
370
     0
390
0
100
AcDbVertex
100
AcDb2dVertex
 10
104.673393
 20
100.175079
 30
0.0
  0
VERTEX
  5
1BB
100
AcDbEntity
  8
0
370
     0
390
0
100
AcDbVertex
100
AcDb2dVertex
 10
105.828392
 20
100.175079
 30
0.0
  0
SEQEND
  5
1BC
100
AcDbEntity
  8
0
370
     0
390
0
  0
LINE
  5
1BD
100
AcDbEntity
  8
0
370
    13
390
0
 62
     5
 48
0.097618
100
AcDbLine
 10
90.218399
 20
97.069794
 30
0.0
 11
90.218399
 21
93.16507
 31
0.0
210
0.0
220
0.0
230
1.0
  0
LINE
  5
1BE
100
AcDbEntity
  8
0
370
    13
390
0
 62
     5
 48
0.097618
100
AcDbLine
 10
95.718399
 20
97.069794
 30
0.0
 11
95.718399
 21
93.16507
 31
0.0
210
0.0
220
0.0
230
1.0
  0
POLYLINE
  5
1BF
100
AcDbEntity
  8
0
370
    13
390
0
 62
     5
100
AcDb2dPolyline
 66
     1
 10
0.0
 20
0.0
 30
0.0
 71
     3
  0
VERTEX
  5
1C0
100
AcDbEntity
  8
0
370
     0
390
0
100
AcDbVertex
100
AcDb2dVertex
 10
88.286545
 20
94.64743
 30
0.0
  0
VERTEX
  5
1C1
100
AcDbEntity
  8
0
370
     0
390
0
100
AcDbVertex
100
AcDb2dVertex
 10
90.218399
 20
95.16507
 30
0.0
  0
VERTEX
  5
1C2
100
AcDbEntity
  8
0
370
     0
390
0
100
AcDbVertex
100
AcDb2dVertex
 10
88.286545
 20
95.682709
 30
0.0
  0
SEQEND
  5
1C3
100
AcDbEntity
  8
0
370
     0
390
0
  0
POLYLINE
  5
1C4
100
AcDbEntity
  8
0
370
    13
390
0
 62
     5
100
AcDb2dPolyline
 66
     1
 10
0.0
 20
0.0
 30
0.0
 71
     3
  0
VERTEX
  5
1C5
100
AcDbEntity
  8
0
370
     0
390
0
100
AcDbVertex
100
AcDb2dVertex
 10
97.650253
 20
95.682709
 30
0.0
  0
VERTEX
  5
1C6
100
AcDbEntity
  8
0
370
     0
390
0
100
AcDbVertex
100
AcDb2dVertex
 10
95.718399
 20
95.16507
 30
0.0
  0
VERTEX
  5
1C7
100
AcDbEntity
  8
0
370
     0
390
0
100
AcDbVertex
100
AcDb2dVertex
 10
97.650253
 20
94.64743
 30
0.0
  0
SEQEND
  5
1C8
100
AcDbEntity
  8
0
370
     0
390
0
  0
LINE
  5
1C9
100
AcDbEntity
  8
0
370
    13
390
0
 62
     5
100
AcDbLine
 10
85.218399
 20
95.16507
 30
0.0
 11
105.8284
 21
95.16507
 31
0.0
210
0.0
220
0.0
230
1.0
  0
POLYLINE
  5
1CA
100
AcDbEntity
  8
0
370
    13
390
0
 62
     5
100
AcDb2dPolyline
 66
     1
 10
0.0
 20
0.0
 30
0.0
 71
     5
  0
VERTEX
  5
1CB
100
AcDbEntity
  8
0
370
     0
390
0
100
AcDbVertex
100
AcDb2dVertex
 10
114.177864
 20
109.7948
 30
0.0
  0
VERTEX
  5
1CC
100
AcDbEntity
  8
0
370
     0
390
0
100
AcDbVertex
100
AcDb2dVertex
 10
112.602859
 20
109.934799
 30
0.0
  0
VERTEX
  5
1CD
100
AcDbEntity
  8
0
370
     0
390
0
100
AcDbVertex
100
AcDb2dVertex
 10
111.377861
 20
110.039795
 30
0.0
  0
VERTEX
  5
1CE
100
AcDbEntity
  8
0
370
     0
390
0
100
AcDbVertex
100
AcDb2dVertex
 10
113.40786
 20
108.569794
 30
0.0
  0
VERTEX
  5
1CF
100
AcDbEntity
  8
0
370
     0
390
0
100
AcDbVertex
100
AcDb2dVertex
 10
113.40786
 20
110.319794
 30
0.0
  0
SEQEND
  5
1D0
100
AcDbEntity
  8
0
370
     0
390
0
  0
POLYLINE
  5
1D1
100
AcDbEntity
  8
0
370
    13
390
0
 62
     5
100
AcDb2dPolyline
 66
     1
 10
0.0
 20
0.0
 30
0.0
 70
     1
 71
     8
  0
VERTEX
  5
1D2
100
AcDbEntity
  8
0
370
     0
390
0
100
AcDbVertex
100
AcDb2dVertex
 10
114.037865
 20
111.229797
 30
0.0
  0
VERTEX
  5
1D3
100
AcDbEntity
  8
0
370
     0
390
0
100
AcDbVertex
100
AcDb2dVertex
 10
114.037865
 20
111.509796
 30
0.0
  0
VERTEX
  5
1D4
100
AcDbEntity
  8
0
370
     0
390
0
100
AcDbVertex
100
AcDb2dVertex
 10
113.827866
 20
111.719803
 30
0.0
  0
VERTEX
  5
1D5
100
AcDbEntity
  8
0
370
     0
390
0
100
AcDbVertex
100
AcDb2dVertex
 10
113.547859
 20
111.719803
 30
0.0
  0
VERTEX
  5
1D6
100
AcDbEntity
  8
0
370
     0
390
0
100
AcDbVertex
100
AcDb2dVertex
 10
113.33786
 20
111.509796
 30
0.0
  0
VERTEX
  5
1D7
100
AcDbEntity
  8
0
370
     0
390
0
100
AcDbVertex
100
AcDb2dVertex
 10
113.33786
 20
111.229797
 30
0.0
  0
VERTEX
  5
1D8
100
AcDbEntity
  8
0
370
     0
390
0
100
AcDbVertex
100
AcDb2dVertex
 10
113.547859
 20
111.019806
 30
0.0
  0
VERTEX
  5
1D9
100
AcDbEntity
  8
0
370
     0
390
0
100
AcDbVertex
100
AcDb2dVertex
 10
113.827866
 20
111.019806
 30
0.0
  0
SEQEND
  5
1DA
100
AcDbEntity
  8
0
370
     0
390
0
  0
POLYLINE
  5
1DB
100
AcDbEntity
  8
0
370
    13
390
0
 62
     5
100
AcDb2dPolyline
 66
     1
 10
0.0
 20
0.0
 30
0.0
 71
     2
  0
VERTEX
  5
1DC
100
AcDbEntity
  8
0
370
     0
390
0
100
AcDbVertex
100
AcDb2dVertex
 10
113.477859
 20
111.089798
 30
0.0
  0
VERTEX
  5
1DD
100
AcDbEntity
  8
0
370
     0
390
0
100
AcDbVertex
100
AcDb2dVertex
 10
113.477859
 20
111.649796
 30
0.0
  0
SEQEND
  5
1DE
100
AcDbEntity
  8
0
370
     0
390
0
  0
POLYLINE
  5
1DF
100
AcDbEntity
  8
0
370
    13
390
0
 62
     5
100
AcDb2dPolyline
 66
     1
 10
0.0
 20
0.0
 30
0.0
 71
     2
  0
VERTEX
  5
1E0
100
AcDbEntity
  8
0
370
     0
390
0
100
AcDbVertex
100
AcDb2dVertex
 10
113.687866
 20
111.719803
 30
0.0
  0
VERTEX
  5
1E1
100
AcDbEntity
  8
0
370
     0
390
0
100
AcDbVertex
100
AcDb2dVertex
 10
113.687866
 20
111.019806
 30
0.0
  0
SEQEND
  5
1E2
100
AcDbEntity
  8
0
370
     0
390
0
  0
POLYLINE
  5
1E3
100
AcDbEntity
  8
0
370
    13
390
0
 62
     5
100
AcDb2dPolyline
 66
     1
 10
0.0
 20
0.0
 30
0.0
 71
     2
  0
VERTEX
  5
1E4
100
AcDbEntity
  8
0
370
     0
390
0
100
AcDbVertex
100
AcDb2dVertex
 10
113.897865
 20
111.089798
 30
0.0
  0
VERTEX
  5
1E5
100
AcDbEntity
  8
0
370
     0
390
0
100
AcDbVertex
100
AcDb2dVertex
 10
113.897865
 20
111.649796
 30
0.0
  0
SEQEND
  5
1E6
100
AcDbEntity
  8
0
370
     0
390
0
  0
POLYLINE
  5
1E7
100
AcDbEntity
  8
0
370
    13
390
0
 62
     5
100
AcDb2dPolyline
 66
     1
 10
0.0
 20
0.0
 30
0.0
 71
    12
  0
VERTEX
  5
1E8
100
AcDbEntity
  8
0
370
     0
390
0
100
AcDbVertex
100
AcDb2dVertex
 10
113.547859
 20
112.4198
 30
0.0
  0
VERTEX
  5
1E9
100
AcDbEntity
  8
0
370
     0
390
0
100
AcDbVertex
100
AcDb2dVertex
 10
113.932861
 20
112.559799
 30
0.0
  0
VERTEX
  5
1EA
100
AcDbEntity
  8
0
370
     0
390
0
100
AcDbVertex
100
AcDb2dVertex
 10
114.177864
 20
112.874802
 30
0.0
  0
VERTEX
  5
1EB
100
AcDbEntity
  8
0
370
     0
390
0
100
AcDbVertex
100
AcDb2dVertex
 10
114.177864
 20
113.2948
 30
0.0
  0
VERTEX
  5
1EC
100
AcDbEntity
  8
0
370
     0
390
0
100
AcDbVertex
100
AcDb2dVertex
 10
113.757866
 20
113.714798
 30
0.0
  0
VERTEX
  5
1ED
100
AcDbEntity
  8
0
370
     0
390
0
100
AcDbVertex
100
AcDb2dVertex
 10
113.33786
 20
113.854797
 30
0.0
  0
VERTEX
  5
1EE
100
AcDbEntity
  8
0
370
     0
390
0
100
AcDbVertex
100
AcDb2dVertex
 10
112.882866
 20
113.854797
 30
0.0
  0
VERTEX
  5
1EF
100
AcDbEntity
  8
0
370
     0
390
0
100
AcDbVertex
100
AcDb2dVertex
 10
112.497864
 20
113.644806
 30
0.0
  0
VERTEX
  5
1F0
100
AcDbEntity
  8
0
370
     0
390
0
100
AcDbVertex
100
AcDb2dVertex
 10
112.357864
 20
113.259796
 30
0.0
  0
VERTEX
  5
1F1
100
AcDbEntity
  8
0
370
     0
390
0
100
AcDbVertex
100
AcDb2dVertex
 10
112.427864
 20
112.874802
 30
0.0
  0
VERTEX
  5
1F2
100
AcDbEntity
  8
0
370
     0
390
0
100
AcDbVertex
100
AcDb2dVertex
 10
112.637863
 20
112.629807
 30
0.0
  0
VERTEX
  5
1F3
100
AcDbEntity
  8
0
370
     0
390
0
100
AcDbVertex
100
AcDb2dVertex
 10
111.377861
 20
112.769806
 30
0.0
  0
SEQEND
  5
1F4
100
AcDbEntity
  8
0
370
     0
390
0
  0
POLYLINE
  5
1F5
100
AcDbEntity
  8
0
370
    13
390
0
 62
     5
100
AcDb2dPolyline
 66
     1
 10
0.0
 20
0.0
 30
0.0
 71
     2
  0
VERTEX
  5
1F6
100
AcDbEntity
  8
0
370
     0
390
0
100
AcDbVertex
100
AcDb2dVertex
 10
111.51786
 20
112.769806
 30
0.0
  0
VERTEX
  5
1F7
100
AcDbEntity
  8
0
370
     0
390
0
100
AcDbVertex
100
AcDb2dVertex
 10
111.51786
 20
113.924805
 30
0.0
  0
SEQEND
  5
1F8
100
AcDbEntity
  8
0
370
     0
390
0
  0
LINE
  5
1F9
100
AcDbEntity
  8
0
370
    13
390
0
 62
     5
100
AcDbLine
 10
97.718597
 20
99.069794
 30
0.0
 11
118.527863
 21
99.069794
 31
0.0
210
0.0
220
0.0
230
1.0
  0
LINE
  5
1FA
100
AcDbEntity
  8
0
370
    13
390
0
 62
     5
100
AcDbLine
 10
97.718597
 20
103.569794
 30
0.0
 11
118.527863
 21
103.569794
 31
0.0
210
0.0
220
0.0
230
1.0
  0
POLYLINE
  5
1FB
100
AcDbEntity
  8
0
370
    13
390
0
 62
     5
100
AcDb2dPolyline
 66
     1
 10
0.0
 20
0.0
 30
0.0
 71
     3
  0
VERTEX
  5
1FC
100
AcDbEntity
  8
0
370
     0
390
0
100
AcDbVertex
100
AcDb2dVertex
 10
117.045502
 20
97.137939
 30
0.0
  0
VERTEX
  5
1FD
100
AcDbEntity
  8
0
370
     0
390
0
100
AcDbVertex
100
AcDb2dVertex
 10
116.527863
 20
99.069794
 30
0.0
  0
VERTEX
  5
1FE
100
AcDbEntity
  8
0
370
     0
390
0
100
AcDbVertex
100
AcDb2dVertex
 10
116.010223
 20
97.137939
 30
0.0
  0
SEQEND
  5
1FF
100
AcDbEntity
  8
0
370
     0
390
0
  0
POLYLINE
  5
200
100
AcDbEntity
  8
0
370
    13
390
0
 62
     5
100
AcDb2dPolyline
 66
     1
 10
0.0
 20
0.0
 30
0.0
 71
     3
  0
VERTEX
  5
201
100
AcDbEntity
  8
0
370
     0
390
0
100
AcDbVertex
100
AcDb2dVertex
 10
116.010223
 20
105.501648
 30
0.0
  0
VERTEX
  5
202
100
AcDbEntity
  8
0
370
     0
390
0
100
AcDbVertex
100
AcDb2dVertex
 10
116.527863
 20
103.569794
 30
0.0
  0
VERTEX
  5
203
100
AcDbEntity
  8
0
370
     0
390
0
100
AcDbVertex
100
AcDb2dVertex
 10
117.045502
 20
105.501648
 30
0.0
  0
SEQEND
  5
204
100
AcDbEntity
  8
0
370
     0
390
0
  0
LINE
  5
205
100
AcDbEntity
  8
0
370
    13
390
0
 62
     5
 48
0.496375
100
AcDbLine
 10
116.527863
 20
94.069794
 30
0.0
 11
116.527863
 21
113.924805
 31
0.0
210
0.0
220
0.0
230
1.0
  0
POLYLINE
  5
206
100
AcDbEntity
  8
0
370
    13
390
0
 62
     7
100
AcDb2dPolyline
 66
     1
 10
0.0
 20
0.0
 30
0.0
 71
     5
  0
VERTEX
  5
207
100
AcDbEntity
  8
0
370
     0
390
0
100
AcDbVertex
100
AcDb2dVertex
 10
115.946098
 20
124.008438
 30
0.0
  0
VERTEX
  5
208
100
AcDbEntity
  8
0
370
     0
390
0
100
AcDbVertex
100
AcDb2dVertex
 10
116.086098
 20
125.583435
 30
0.0
  0
VERTEX
  5
209
100
AcDbEntity
  8
0
370
     0
390
0
100
AcDbVertex
100
AcDb2dVertex
 10
116.191093
 20
126.808426
 30
0.0
  0
VERTEX
  5
20A
100
AcDbEntity
  8
0
370
     0
390
0
100
AcDbVertex
100
AcDb2dVertex
 10
114.721092
 20
124.778427
 30
0.0
  0
VERTEX
  5
20B
100
AcDbEntity
  8
0
370
     0
390
0
100
AcDbVertex
100
AcDb2dVertex
 10
116.471092
 20
124.778427
 30
0.0
  0
SEQEND
  5
20C
100
AcDbEntity
  8
0
370
     0
390
0
  0
POLYLINE
  5
20D
100
AcDbEntity
  8
0
370
    13
390
0
 62
     7
100
AcDb2dPolyline
 66
     1
 10
0.0
 20
0.0
 30
0.0
 71
    10
  0
VERTEX
  5
20E
100
AcDbEntity
  8
0
370
     0
390
0
100
AcDbVertex
100
AcDb2dVertex
 10
118.641098
 20
124.008438
 30
0.0
  0
VERTEX
  5
20F
100
AcDbEntity
  8
0
370
     0
390
0
100
AcDbVertex
100
AcDb2dVertex
 10
117.171097
 20
124.008438
 30
0.0
  0
VERTEX
  5
210
100
AcDbEntity
  8
0
370
     0
390
0
100
AcDbVertex
100
AcDb2dVertex
 10
118.2911
 20
125.338425
 30
0.0
  0
VERTEX
  5
211
100
AcDbEntity
  8
0
370
     0
390
0
100
AcDbVertex
100
AcDb2dVertex
 10
118.571098
 20
125.758438
 30
0.0
  0
VERTEX
  5
212
100
AcDbEntity
  8
0
370
     0
390
0
100
AcDbVertex
100
AcDb2dVertex
 10
118.711098
 20
126.353439
 30
0.0
  0
VERTEX
  5
213
100
AcDbEntity
  8
0
370
     0
390
0
100
AcDbVertex
100
AcDb2dVertex
 10
118.641098
 20
126.70343
 30
0.0
  0
VERTEX
  5
214
100
AcDbEntity
  8
0
370
     0
390
0
100
AcDbVertex
100
AcDb2dVertex
 10
118.466095
 20
126.808426
 30
0.0
  0
VERTEX
  5
215
100
AcDbEntity
  8
0
370
     0
390
0
100
AcDbVertex
100
AcDb2dVertex
 10
117.871094
 20
126.808426
 30
0.0
  0
VERTEX
  5
216
100
AcDbEntity
  8
0
370
     0
390
0
100
AcDbVertex
100
AcDb2dVertex
 10
117.556099
 20
126.668427
 30
0.0
  0
VERTEX
  5
217
100
AcDbEntity
  8
0
370
     0
390
0
100
AcDbVertex
100
AcDb2dVertex
 10
117.2061
 20
126.108429
 30
0.0
  0
SEQEND
  5
218
100
AcDbEntity
  8
0
370
     0
390
0
  0
LINE
  5
219
100
AcDbEntity
  8
0
370
    13
390
0
 62
     7
 48
0.452216
100
AcDbLine
 10
95.718597
 20
105.569794
 30
0.0
 11
95.718597
 21
123.658432
 31
0.0
210
0.0
220
0.0
230
1.0
  0
LINE
  5
21A
100
AcDbEntity
  8
0
370
    13
390
0
 62
     7
 48
0.452216
100
AcDbLine
 10
137.713593
 20
105.569794
 30
0.0
 11
137.713593
 21
123.658432
 31
0.0
210
0.0
220
0.0
230
1.0
  0
POLYLINE
  5
21B
100
AcDbEntity
  8
0
370
    13
390
0
 62
     7
100
AcDb2dPolyline
 66
     1
 10
0.0
 20
0.0
 30
0.0
 71
     3
  0
VERTEX
  5
21C
100
AcDbEntity
  8
0
370
     0
390
0
100
AcDbVertex
100
AcDb2dVertex
 10
97.650452
 20
122.176071
 30
0.0
  0
VERTEX
  5
21D
100
AcDbEntity
  8
0
370
     0
390
0
100
AcDbVertex
100
AcDb2dVertex
 10
95.718597
 20
121.658432
 30
0.0
  0
VERTEX
  5
21E
100
AcDbEntity
  8
0
370
     0
390
0
100
AcDbVertex
100
AcDb2dVertex
 10
97.650452
 20
121.140793
 30
0.0
  0
SEQEND
  5
21F
100
AcDbEntity
  8
0
370
     0
390
0
  0
POLYLINE
  5
220
100
AcDbEntity
  8
0
370
    13
390
0
 62
     7
100
AcDb2dPolyline
 66
     1
 10
0.0
 20
0.0
 30
0.0
 71
     3
  0
VERTEX
  5
221
100
AcDbEntity
  8
0
370
     0
390
0
100
AcDbVertex
100
AcDb2dVertex
 10
135.781738
 20
121.140793
 30
0.0
  0
VERTEX
  5
222
100
AcDbEntity
  8
0
370
     0
390
0
100
AcDbVertex
100
AcDb2dVertex
 10
137.713593
 20
121.658432
 30
0.0
  0
VERTEX
  5
223
100
AcDbEntity
  8
0
370
     0
390
0
100
AcDbVertex
100
AcDb2dVertex
 10
135.781738
 20
122.176071
 30
0.0
  0
SEQEND
  5
224
100
AcDbEntity
  8
0
370
     0
390
0
  0
LINE
  5
225
100
AcDbEntity
  8
0
370
    13
390
0
 62
     7
100
AcDbLine
 10
95.718597
 20
121.658432
 30
0.0
 11
137.713593
 21
121.658432
 31
0.0
210
0.0
220
0.0
230
1.0
  0
POLYLINE
  5
226
100
AcDbEntity
  8
0
370
    13
390
0
 62
     7
100
AcDb2dPolyline
 66
     1
 10
0.0
 20
0.0
 30
0.0
 71
    10
  0
VERTEX
  5
227
100
AcDbEntity
  8
0
370
     0
390
0
100
AcDbVertex
100
AcDb2dVertex
 10
148.68306
 20
88.683792
 30
0.0
  0
VERTEX
  5
228
100
AcDbEntity
  8
0
370
     0
390
0
100
AcDbVertex
100
AcDb2dVertex
 10
148.68306
 20
87.213791
 30
0.0
  0
VERTEX
  5
229
100
AcDbEntity
  8
0
370
     0
390
0
100
AcDbVertex
100
AcDb2dVertex
 10
147.353073
 20
88.333801
 30
0.0
  0
VERTEX
  5
22A
100
AcDbEntity
  8
0
370
     0
390
0
100
AcDbVertex
100
AcDb2dVertex
 10
146.93306
 20
88.6138
 30
0.0
  0
VERTEX
  5
22B
100
AcDbEntity
  8
0
370
     0
390
0
100
AcDbVertex
100
AcDb2dVertex
 10
146.338058
 20
88.753799
 30
0.0
  0
VERTEX
  5
22C
100
AcDbEntity
  8
0
370
     0
390
0
100
AcDbVertex
100
AcDb2dVertex
 10
145.988068
 20
88.683792
 30
0.0
  0
VERTEX
  5
22D
100
AcDbEntity
  8
0
370
     0
390
0
100
AcDbVertex
100
AcDb2dVertex
 10
145.883072
 20
88.508789
 30
0.0
  0
VERTEX
  5
22E
100
AcDbEntity
  8
0
370
     0
390
0
100
AcDbVertex
100
AcDb2dVertex
 10
145.883072
 20
87.913788
 30
0.0
  0
VERTEX
  5
22F
100
AcDbEntity
  8
0
370
     0
390
0
100
AcDbVertex
100
AcDb2dVertex
 10
146.023071
 20
87.598801
 30
0.0
  0
VERTEX
  5
230
100
AcDbEntity
  8
0
370
     0
390
0
100
AcDbVertex
100
AcDb2dVertex
 10
146.583069
 20
87.248795
 30
0.0
  0
SEQEND
  5
231
100
AcDbEntity
  8
0
370
     0
390
0
  0
POLYLINE
  5
232
100
AcDbEntity
  8
0
370
    13
390
0
 62
     7
100
AcDb2dPolyline
 66
     1
 10
0.0
 20
0.0
 30
0.0
 71
    11
  0
VERTEX
  5
233
100
AcDbEntity
  8
0
370
     0
390
0
100
AcDbVertex
100
AcDb2dVertex
 10
147.248062
 20
90.713791
 30
0.0
  0
VERTEX
  5
234
100
AcDbEntity
  8
0
370
     0
390
0
100
AcDbVertex
100
AcDb2dVertex
 10
147.388062
 20
90.328796
 30
0.0
  0
VERTEX
  5
235
100
AcDbEntity
  8
0
370
     0
390
0
100
AcDbVertex
100
AcDb2dVertex
 10
147.388062
 20
89.838791
 30
0.0
  0
VERTEX
  5
236
100
AcDbEntity
  8
0
370
     0
390
0
100
AcDbVertex
100
AcDb2dVertex
 10
147.108063
 20
89.558792
 30
0.0
  0
VERTEX
  5
237
100
AcDbEntity
  8
0
370
     0
390
0
100
AcDbVertex
100
AcDb2dVertex
 10
146.653061
 20
89.453796
 30
0.0
  0
VERTEX
  5
238
100
AcDbEntity
  8
0
370
     0
390
0
100
AcDbVertex
100
AcDb2dVertex
 10
146.128067
 20
89.593796
 30
0.0
  0
VERTEX
  5
239
100
AcDbEntity
  8
0
370
     0
390
0
100
AcDbVertex
100
AcDb2dVertex
 10
145.883072
 20
89.873795
 30
0.0
  0
VERTEX
  5
23A
100
AcDbEntity
  8
0
370
     0
390
0
100
AcDbVertex
100
AcDb2dVertex
 10
145.883072
 20
90.503799
 30
0.0
  0
VERTEX
  5
23B
100
AcDbEntity
  8
0
370
     0
390
0
100
AcDbVertex
100
AcDb2dVertex
 10
146.198059
 20
90.85379
 30
0.0
  0
VERTEX
  5
23C
100
AcDbEntity
  8
0
370
     0
390
0
100
AcDbVertex
100
AcDb2dVertex
 10
146.723068
 20
90.923798
 30
0.0
  0
VERTEX
  5
23D
100
AcDbEntity
  8
0
370
     0
390
0
100
AcDbVertex
100
AcDb2dVertex
 10
148.68306
 20
90.083801
 30
0.0
  0
SEQEND
  5
23E
100
AcDbEntity
  8
0
370
     0
390
0
  0
LINE
  5
23F
100
AcDbEntity
  8
0
370
    13
390
0
 62
     7
 48
0.332987
100
AcDbLine
 10
139.713593
 20
74.567795
 30
0.0
 11
153.033066
 21
74.567795
 31
0.0
210
0.0
220
0.0
230
1.0
  0
LINE
  5
240
100
AcDbEntity
  8
0
370
    13
390
0
 62
     7
 48
0.332987
100
AcDbLine
 10
139.713593
 20
103.569794
 30
0.0
 11
153.033066
 21
103.569794
 31
0.0
210
0.0
220
0.0
230
1.0
  0
POLYLINE
  5
241
100
AcDbEntity
  8
0
370
    13
390
0
 62
     7
100
AcDb2dPolyline
 66
     1
 10
0.0
 20
0.0
 30
0.0
 71
     3
  0
VERTEX
  5
242
100
AcDbEntity
  8
0
370
     0
390
0
100
AcDbVertex
100
AcDb2dVertex
 10
150.515427
 20
76.499649
 30
0.0
  0
VERTEX
  5
243
100
AcDbEntity
  8
0
370
     0
390
0
100
AcDbVertex
100
AcDb2dVertex
 10
151.033066
 20
74.567795
 30
0.0
  0
VERTEX
  5
244
100
AcDbEntity
  8
0
370
     0
390
0
100
AcDbVertex
100
AcDb2dVertex
 10
151.550705
 20
76.499649
 30
0.0
  0
SEQEND
  5
245
100
AcDbEntity
  8
0
370
     0
390
0
  0
POLYLINE
  5
246
100
AcDbEntity
  8
0
370
    13
390
0
 62
     7
100
AcDb2dPolyline
 66
     1
 10
0.0
 20
0.0
 30
0.0
 71
     3
  0
VERTEX
  5
247
100
AcDbEntity
  8
0
370
     0
390
0
100
AcDbVertex
100
AcDb2dVertex
 10
151.550705
 20
101.637939
 30
0.0
  0
VERTEX
  5
248
100
AcDbEntity
  8
0
370
     0
390
0
100
AcDbVertex
100
AcDb2dVertex
 10
151.033066
 20
103.569794
 30
0.0
  0
VERTEX
  5
249
100
AcDbEntity
  8
0
370
     0
390
0
100
AcDbVertex
100
AcDb2dVertex
 10
150.515427
 20
101.637939
 30
0.0
  0
SEQEND
  5
24A
100
AcDbEntity
  8
0
370
     0
390
0
  0
LINE
  5
24B
100
AcDbEntity
  8
0
370
    13
390
0
 62
     7
100
AcDbLine
 10
151.033066
 20
74.567795
 30
0.0
 11
151.033066
 21
103.569794
 31
0.0
210
0.0
220
0.0
230
1.0
  0
LINE
  5
24C
100
AcDbEntity
  8
0
370
    35
390
0
 62
   216
 48
0.1375
100
AcDbLine
 10
90.218399
 20
72.549393
 30
0.0
 11
95.718399
 21
72.549393
 31
0.0
210
0.0
220
0.0
230
1.0
  0
LINE
  5
24D
100
AcDbEntity
  8
0
370
    35
390
0
 62
   216
 48
0.2
100
AcDbLine
 10
95.718597
 20
72.570206
 30
0.0
 11
95.718597
 21
80.570206
 31
0.0
210
0.0
220
0.0
230
1.0
  0
LINE
  5
24E
100
AcDbEntity
  8
0
370
    35
390
0
 62
   216
 48
0.1375
100
AcDbLine
 10
90.218399
 20
80.569794
 30
0.0
 11
95.718399
 21
80.569794
 31
0.0
210
0.0
220
0.0
230
1.0
  0
LINE
  5
24F
100
AcDbEntity
  8
0
370
    35
390
0
 62
   216
100
AcDbLine
 10
137.713593
 20
74.567795
 30
0.0
 11
137.713593
 21
103.569794
 31
0.0
210
0.0
220
0.0
230
1.0
  0
LINE
  5
250
100
AcDbEntity
  8
0
370
    35
390
0
 62
   216
 48
0.005
100
AcDbLine
 10
137.563995
 20
58.549397
 30
0.0
 11
137.363998
 21
58.549397
 31
0.0
210
0.0
220
0.0
230
1.0
  0
LINE
  5
251
100
AcDbEntity
  8
0
370
    35
390
0
 62
   216
 48
0.005
100
AcDbLine
 10
137.363998
 20
58.549397
 30
0.0
 11
137.563995
 21
58.549397
 31
0.0
210
0.0
220
0.0
230
1.0
  0
LINE
  5
252
100
AcDbEntity
  8
0
370
    35
390
0
 62
   216
100
AcDbLine
 10
90.218399
 20
58.549397
 30
0.0
 11
137.718399
 21
58.549397
 31
0.0
210
0.0
220
0.0
230
1.0
  0
LINE
  5
253
100
AcDbEntity
  8
0
370
    35
390
0
 62
   216
 48
0.005
100
AcDbLine
 10
137.764008
 20
58.549397
 30
0.0
 11
137.563995
 21
58.549397
 31
0.0
210
0.0
220
0.0
230
1.0
  0
LINE
  5
254
100
AcDbEntity
  8
0
370
    35
390
0
 62
   216
 48
0.005
100
AcDbLine
 10
137.563995
 20
58.549397
 30
0.0
 11
137.363998
 21
58.549397
 31
0.0
210
0.0
220
0.0
230
1.0
  0
LINE
  5
255
100
AcDbEntity
  8
0
370
    35
390
0
 62
   216
 48
0.35
100
AcDbLine
 10
90.218399
 20
58.549397
 30
0.0
 11
90.218399
 21
72.549393
 31
0.0
210
0.0
220
0.0
230
1.0
  0
LINE
  5
256
100
AcDbEntity
  8
0
370
    35
390
0
 62
   216
 48
0.1375
100
AcDbLine
 10
90.218399
 20
99.069794
 30
0.0
 11
95.718399
 21
99.069794
 31
0.0
210
0.0
220
0.0
230
1.0
  0
LINE
  5
257
100
AcDbEntity
  8
0
370
    35
390
0
 62
   216
 48
0.1125
100
AcDbLine
 10
95.718597
 20
99.069794
 30
0.0
 11
95.718597
 21
103.569794
 31
0.0
210
0.0
220
0.0
230
1.0
  0
LINE
  5
258
100
AcDbEntity
  8
0
370
    35
390
0
 62
   216
100
AcDbLine
 10
95.718597
 20
103.569794
 30
0.0
 11
137.713593
 21
103.569794
 31
0.0
210
0.0
220
0.0
230
1.0
  0
LINE
  5
259
100
AcDbEntity
  8
0
370
    35
390
0
 62
   216
 48
0.4625
100
AcDbLine
 10
90.218399
 20
80.569794
 30
0.0
 11
90.218399
 21
99.069794
 31
0.0
210
0.0
220
0.0
230
1.0
  0
ENDSEC
  0
SECTION
  2
OBJECTS
  0
DICTIONARY
  5
19
100
AcDbDictionary
280
     0
281
     1
  3
ACAD_GROUP
350
1A
  3
ACAD_MLINESTYLE
350
1B
  3
ACAD_LAYOUT
350
1E
  3
ACAD_PLOTSETTINGS
350
22
  3
ACAD_PLOTSTYLENAME
350
1F
  3
ACAD_WIPEOUT_VARS
350
23
  0
DICTIONARY
  5
1A
102
{ACAD_REACTORS
330
19
102
}
100
AcDbDictionary
280
     0
281
     1
  0
DICTIONARY
  5
1B
102
{ACAD_REACTORS
330
19
102
}
100
AcDbDictionary
280
     0
281
     1
  3
Standard
350
1C
  0
MLINESTYLE
  5
1C
102
{ACAD_REACTORS
330
1B
102
}
100
AcDbMlineStyle
  2
Standard
 70
     0
  3

 62
     0
 51
90.0
 52
90.0
 71
     2
 49
0.5
 62
   256
  6
ByLayer
 49
-0.5
 62
   256
  6
ByLayer
  0
ACDBDICTIONARYWDFLT
  5
1F
102
{ACAD_REACTORS
330
19
102
}
100
AcDbDictionary
281
     1
  3
Normal
350
1D
100
AcDbDictionaryWithDefault
340
1D
  0
ACDBPLACEHOLDER
  5
1D
102
{ACAD_REACTORS
330
1F
102
}
  0
LAYOUT
  5
20
102
{ACAD_REACTORS
330
1E
102
}
100
AcDbPlotSettings
  1

  2

  4

  6

 40
0.0
 41
0.0
 42
0.0
 43
0.0
 44
0.0
 45
0.0
 46
0.0
 47
0.0
 48
0.0
 49
0.0
140
0.0
141
0.0
142
1.0
143
1.0
 70
  1024
 72
     0
 73
     0
 74
     0
  7

 75
     0
147
1.0
148
0.0
149
0.0
100
AcDbLayout
  1
Model
 70
     0
 71
     0
 10
0.0
 20
0.0
 11
0.0
 21
0.0
 12
0.0
 22
0.0
 32
0.0
 14
0.0
 24
0.0
 34
0.0
 15
0.0
 25
0.0
 35
0.0
146
0.0
 13
0.0
 23
0.0
 33
0.0
 16
0.0
 26
0.0
 36
0.0
 17
0.0
 27
0.0
 37
0.0
 76
     0
330
A
331
0
345
0
346
0
  0
LAYOUT
  5
21
102
{ACAD_REACTORS
330
1E
102
}
100
AcDbPlotSettings
  1

  2

  4

  6

 40
0.0
 41
0.0
 42
0.0
 43
0.0
 44
0.0
 45
0.0
 46
0.0
 47
0.0
 48
0.0
 49
0.0
140
0.0
141
0.0
142
1.0
143
1.0
 70
     0
 72
     0
 73
     0
 74
     0
  7

 75
     0
147
1.0
148
0.0
149
0.0
100
AcDbLayout
  1
Layout1
 70
     0
 71
     0
 10
0.0
 20
0.0
 11
0.0
 21
0.0
 12
0.0
 22
0.0
 32
0.0
 14
0.0
 24
0.0
 34
0.0
 15
0.0
 25
0.0
 35
0.0
146
0.0
 13
0.0
 23
0.0
 33
0.0
 16
0.0
 26
0.0
 36
0.0
 17
0.0
 27
0.0
 37
0.0
 76
     0
330
B
331
0
345
0
346
0
  0
DICTIONARY
  5
1E
102
{ACAD_REACTORS
330
19
102
}
100
AcDbDictionary
280
     0
281
     1
  3
Layout1
350
21
  3
Model
350
20
  0
DICTIONARY
  5
22
102
{ACAD_REACTORS
330
19
102
}
100
AcDbDictionary
280
     0
281
     1
  0
WIPEOUTVARIABLES
  5
23
100
AcDbWipeoutVariables
 70
     1
  0
ENDSEC
  0
EOF
