%FSLAX25Y25*%
%MOIN*%
G70*
G01*
G75*
G04 Layer_Color=255*
%ADD10C,0.01000*%
%ADD11C,0.00800*%
%ADD12C,0.02000*%
%ADD13C,0.01500*%
%ADD14R,0.07874X0.09843*%
%ADD15R,0.03937X0.02362*%
%ADD16R,0.02756X0.03347*%
%ADD17R,0.03347X0.02756*%
%ADD18R,0.02362X0.03937*%
%ADD19R,0.09843X0.07874*%
%ADD20R,0.03150X0.03000*%
%ADD21R,0.01102X0.02618*%
%ADD22R,0.02618X0.01102*%
%ADD23R,0.08425X0.08425*%
%ADD24R,0.05118X0.03937*%
%ADD25R,0.07087X0.03937*%
%ADD26R,0.13780X0.04724*%
%ADD27R,0.10630X0.03937*%
%ADD28C,0.04000*%
%ADD29R,0.10400X0.19500*%
%ADD30R,0.29800X0.09500*%
%ADD31R,0.09700X0.12600*%
%ADD32R,0.21700X0.08200*%
%ADD33R,0.14400X0.15700*%
%ADD34R,0.31850X0.07800*%
%ADD35R,0.22100X0.07800*%
%ADD36R,0.09250X0.32500*%
%ADD37R,0.35100X0.09500*%
%ADD38R,0.13950X0.24700*%
%ADD39R,0.15400X0.30700*%
%ADD40R,0.11100X0.37200*%
%ADD41R,0.43600X0.19500*%
%ADD42R,0.55200X0.21700*%
%ADD43R,0.28700X0.30200*%
%ADD44R,0.23100X0.37800*%
%ADD45R,0.46700X0.47800*%
%ADD46R,0.48000X1.67000*%
%ADD47R,0.40000X0.63500*%
%ADD48R,2.47000X0.34000*%
%ADD49R,0.27000X0.39600*%
%ADD50R,0.32000X0.43000*%
%ADD51R,0.28000X0.46000*%
%ADD52C,0.00600*%
%ADD53C,0.05906*%
%ADD54R,0.05906X0.05906*%
%ADD55R,0.04724X0.06299*%
%ADD56O,0.04724X0.06299*%
%ADD57C,0.23622*%
%ADD58R,0.05906X0.05906*%
%ADD59C,0.19685*%
%ADD60C,0.03000*%
%ADD61C,0.02000*%
%ADD62C,0.05500*%
%ADD63R,0.03000X0.04000*%
%ADD64R,0.04000X0.03000*%
%ADD65R,0.04331X0.04724*%
%ADD66R,0.12992X0.09843*%
%ADD67R,0.03543X0.02126*%
%ADD68R,0.01969X0.06299*%
%ADD69R,0.14410X0.07874*%
%ADD70R,0.14410X0.09843*%
%ADD71R,0.05118X0.13780*%
%ADD72R,0.04724X0.13780*%
%ADD73R,0.13386X0.19291*%
%ADD74R,0.05512X0.05512*%
%ADD75R,0.09843X0.14410*%
%ADD76R,0.07874X0.14410*%
%ADD77R,0.06299X0.01969*%
%ADD78R,0.02126X0.03543*%
%ADD79R,0.14016X0.07008*%
%ADD80R,0.23900X0.07400*%
%ADD81R,0.06600X0.29900*%
%ADD82R,0.31161X0.10375*%
%ADD83R,0.10100X0.35200*%
%ADD84R,0.32275X0.09409*%
%ADD85R,0.13400X0.33200*%
%ADD86R,0.09200X0.34200*%
%ADD87R,0.31475X0.09309*%
%ADD88R,0.36300X0.11700*%
%ADD89R,0.07800X0.28400*%
%ADD90R,0.34500X0.09900*%
%ADD91R,0.06800X0.25700*%
%ADD92R,0.33050X0.09400*%
%ADD93R,0.08800X0.24200*%
%ADD94R,0.35000X0.11700*%
%ADD95R,0.13000X0.24000*%
%ADD96R,0.32000X2.10000*%
%ADD97R,0.15000X0.04000*%
%ADD98R,0.15000X0.03000*%
%ADD99R,0.65000X0.49000*%
%ADD100R,0.10000X0.48000*%
%ADD101R,0.85000X0.08000*%
%ADD102R,0.38000X0.18000*%
%ADD103R,0.16000X0.49000*%
%ADD104R,0.32000X0.47000*%
%ADD105R,0.03000X0.08000*%
D10*
X433071Y-64000D02*
Y-1500D01*
X0Y-64000D02*
Y-1500D01*
X232030Y-63000D02*
X433071D01*
X0D02*
X197840D01*
X427071Y-61000D02*
X433071Y-63000D01*
X427071Y-65000D02*
X433071Y-63000D01*
X0D02*
X6000Y-65000D01*
X0Y-63000D02*
X6000Y-61000D01*
X434571Y0D02*
X506000D01*
X434571Y275000D02*
X506000D01*
X505000Y0D02*
Y120804D01*
Y150996D02*
Y275000D01*
Y0D02*
X507000Y6000D01*
X503000D02*
X505000Y0D01*
X503000Y269000D02*
X505000Y275000D01*
X507000Y269000D01*
X433071Y0D02*
Y275000D01*
X0Y0D02*
X433071D01*
X0Y275000D02*
X433071D01*
X0Y0D02*
Y275590D01*
D17*
X55565Y173561D02*
D03*
Y167656D02*
D03*
X61500Y167694D02*
D03*
Y173600D02*
D03*
X229600Y208900D02*
D03*
Y214806D02*
D03*
X236700Y214700D02*
D03*
Y208794D02*
D03*
D18*
X15800Y54700D02*
D03*
X19737Y44857D02*
D03*
X23674Y54700D02*
D03*
D52*
X199441Y-66599D02*
X201440D01*
X200440D01*
Y-60601D01*
X199441Y-61601D01*
X204439Y-66599D02*
X206438D01*
X205438D01*
Y-60601D01*
X204439Y-61601D01*
X209437D02*
X210437Y-60601D01*
X212436D01*
X213436Y-61601D01*
Y-65599D01*
X212436Y-66599D01*
X210437D01*
X209437Y-65599D01*
Y-61601D01*
X215435Y-66599D02*
Y-65599D01*
X216435D01*
Y-66599D01*
X215435D01*
X220434Y-61601D02*
X221433Y-60601D01*
X223433D01*
X224432Y-61601D01*
Y-65599D01*
X223433Y-66599D01*
X221433D01*
X220434Y-65599D01*
Y-61601D01*
X226432D02*
X227431Y-60601D01*
X229431D01*
X230430Y-61601D01*
Y-65599D01*
X229431Y-66599D01*
X227431D01*
X226432Y-65599D01*
Y-61601D01*
X502601Y126403D02*
X503601Y124404D01*
X505600Y122404D01*
X507599D01*
X508599Y123404D01*
Y125403D01*
X507599Y126403D01*
X506600D01*
X505600Y125403D01*
Y122404D01*
X507599Y128402D02*
X508599Y129402D01*
Y131401D01*
X507599Y132401D01*
X503601D01*
X502601Y131401D01*
Y129402D01*
X503601Y128402D01*
X504600D01*
X505600Y129402D01*
Y132401D01*
X508599Y134400D02*
X507599D01*
Y135400D01*
X508599D01*
Y134400D01*
X503601Y139399D02*
X502601Y140399D01*
Y142398D01*
X503601Y143398D01*
X504600D01*
X505600Y142398D01*
X506600Y143398D01*
X507599D01*
X508599Y142398D01*
Y140399D01*
X507599Y139399D01*
X506600D01*
X505600Y140399D01*
X504600Y139399D01*
X503601D01*
X505600Y140399D02*
Y142398D01*
X502601Y149396D02*
Y145397D01*
X505600D01*
X504600Y147396D01*
Y148396D01*
X505600Y149396D01*
X507599D01*
X508599Y148396D01*
Y146397D01*
X507599Y145397D01*
D53*
X42900Y256500D02*
D03*
X43000Y222300D02*
D03*
X88500Y256400D02*
D03*
X88400Y223900D02*
D03*
X128100Y255800D02*
D03*
Y224200D02*
D03*
X92000Y180100D02*
D03*
D54*
X52900Y256500D02*
D03*
X53000Y222300D02*
D03*
X98500Y256400D02*
D03*
X98400Y223900D02*
D03*
X138100Y255800D02*
D03*
Y224200D02*
D03*
D55*
X254900Y258400D02*
D03*
D56*
X247026D02*
D03*
X239152D02*
D03*
X231081Y258700D02*
D03*
X215136Y259000D02*
D03*
X223207Y258700D02*
D03*
X191317Y259300D02*
D03*
X183247Y259600D02*
D03*
X199191Y259300D02*
D03*
X207262Y259000D02*
D03*
X167302Y259900D02*
D03*
X175372Y259600D02*
D03*
D57*
X54800Y15900D02*
D03*
X90556D02*
D03*
X126311D02*
D03*
X162067D02*
D03*
X197822D02*
D03*
X233578D02*
D03*
X269333D02*
D03*
X305089D02*
D03*
X340844D02*
D03*
X376600D02*
D03*
X380400Y232200D02*
D03*
X380100Y55000D02*
D03*
Y159867D02*
D03*
X417000Y76500D02*
D03*
Y182300D02*
D03*
X380100Y107433D02*
D03*
X417000Y129400D02*
D03*
Y218300D02*
D03*
D58*
X92000Y190100D02*
D03*
D59*
X413386Y19685D02*
D03*
Y255906D02*
D03*
X19685D02*
D03*
Y19685D02*
D03*
D63*
X8600Y52998D02*
D03*
Y46802D02*
D03*
D64*
X16102Y63100D02*
D03*
X22298D02*
D03*
Y84000D02*
D03*
X16102D02*
D03*
D65*
X9300Y74200D02*
D03*
X22627D02*
D03*
D66*
X33500Y103425D02*
D03*
Y130000D02*
D03*
D67*
X304572Y75662D02*
D03*
Y85662D02*
D03*
X326609D02*
D03*
X304572Y70662D02*
D03*
X326609Y75662D02*
D03*
Y70662D02*
D03*
X304572Y80662D02*
D03*
X326609D02*
D03*
X304572Y111802D02*
D03*
Y121802D02*
D03*
X326609D02*
D03*
X304572Y106802D02*
D03*
X326609Y111802D02*
D03*
Y106802D02*
D03*
X304572Y116803D02*
D03*
X326609D02*
D03*
X304572Y148943D02*
D03*
Y158943D02*
D03*
X326609D02*
D03*
X304572Y143943D02*
D03*
X326609Y148943D02*
D03*
Y143943D02*
D03*
X304572Y153943D02*
D03*
X326609D02*
D03*
X305572Y197083D02*
D03*
Y207083D02*
D03*
X327609D02*
D03*
X305572Y192083D02*
D03*
X327609Y197083D02*
D03*
Y192083D02*
D03*
X305572Y202083D02*
D03*
X327609D02*
D03*
X329578Y240738D02*
D03*
Y230738D02*
D03*
X307540D02*
D03*
X329578Y245738D02*
D03*
X307540Y240738D02*
D03*
Y245738D02*
D03*
X329578Y235738D02*
D03*
X307540D02*
D03*
D68*
X317357Y86036D02*
D03*
Y70288D02*
D03*
Y122177D02*
D03*
Y106429D02*
D03*
Y159317D02*
D03*
Y143569D02*
D03*
X318357Y207457D02*
D03*
Y191709D02*
D03*
X316792Y230364D02*
D03*
Y246112D02*
D03*
D69*
X313322Y82784D02*
D03*
Y118924D02*
D03*
Y156064D02*
D03*
X314322Y204205D02*
D03*
X320828Y233616D02*
D03*
D70*
X313322Y74541D02*
D03*
Y110681D02*
D03*
Y147822D02*
D03*
X314322Y195962D02*
D03*
X320828Y241859D02*
D03*
D71*
X269500Y43500D02*
D03*
X251783D02*
D03*
X197800Y43300D02*
D03*
X180084D02*
D03*
X127500Y45200D02*
D03*
X145217D02*
D03*
D72*
X156500Y72900D02*
D03*
X180122D02*
D03*
D73*
X98900Y92600D02*
D03*
X70100Y92400D02*
D03*
D74*
X95278Y76600D02*
D03*
X102522D02*
D03*
X73722Y76400D02*
D03*
X66478D02*
D03*
D75*
X78759Y126972D02*
D03*
X102241Y131728D02*
D03*
X40141Y76528D02*
D03*
D76*
X70517Y126972D02*
D03*
X110483Y131728D02*
D03*
X48383Y76528D02*
D03*
D77*
X83012Y131008D02*
D03*
X67264D02*
D03*
X97988Y127692D02*
D03*
X113736D02*
D03*
X51636Y72492D02*
D03*
X35888D02*
D03*
D78*
X72638Y140260D02*
D03*
Y118222D02*
D03*
X82638Y140260D02*
D03*
X77638D02*
D03*
X82638Y118222D02*
D03*
X67638Y140260D02*
D03*
Y118222D02*
D03*
X77638D02*
D03*
X108362Y118440D02*
D03*
Y140478D02*
D03*
X98362Y118440D02*
D03*
X103362D02*
D03*
X98362Y140478D02*
D03*
X113362Y118440D02*
D03*
Y140478D02*
D03*
X103362D02*
D03*
X41262Y85278D02*
D03*
X51262D02*
D03*
Y63240D02*
D03*
X36262Y85278D02*
D03*
X41262Y63240D02*
D03*
X36262D02*
D03*
X46262Y85278D02*
D03*
Y63240D02*
D03*
D79*
X155600Y140500D02*
D03*
Y103492D02*
D03*
M02*
