G04*
G04 #@! TF.GenerationSoftware,Altium Limited,Altium Designer,23.10.1 (27)*
G04*
G04 Layer_Color=8388736*
%FSLAX25Y25*%
%MOIN*%
G70*
G04*
G04 #@! TF.SameCoordinates,D0F96BE9-EE4C-402D-8CE8-E6F0CD5897FE*
G04*
G04*
G04 #@! TF.FilePolarity,Negative*
G04*
G01*
G75*
%ADD22R,0.04331X0.12205*%
%ADD23R,0.05524X0.08083*%
%ADD24R,0.04540X0.04343*%
%ADD25R,0.02769X0.03162*%
%ADD26R,0.04737X0.05131*%
%ADD27R,0.05918X0.08083*%
%ADD28R,0.03800X0.04800*%
%ADD29C,0.05512*%
%ADD30R,0.06706X0.06706*%
%ADD31C,0.06706*%
%ADD32C,0.14580*%
D22*
X44500Y72854D02*
D03*
X34500D02*
D03*
X24500D02*
D03*
Y42146D02*
D03*
X34500D02*
D03*
X44500D02*
D03*
X108000Y72854D02*
D03*
X98000D02*
D03*
X88000D02*
D03*
Y42146D02*
D03*
X98000D02*
D03*
X108000D02*
D03*
X76250Y72854D02*
D03*
X66250D02*
D03*
X56250D02*
D03*
Y42146D02*
D03*
X66250D02*
D03*
X76250D02*
D03*
D23*
X192202Y62900D02*
D03*
X179998D02*
D03*
D24*
X125673Y73465D02*
D03*
X137327D02*
D03*
X157577D02*
D03*
X145923D02*
D03*
D25*
X129866Y71766D02*
D03*
X133134D02*
D03*
X153384D02*
D03*
X150116D02*
D03*
D26*
X131000Y47693D02*
D03*
Y41000D02*
D03*
D27*
X191509Y52000D02*
D03*
X180091D02*
D03*
D28*
X123100Y41800D02*
D03*
Y47898D02*
D03*
X164100Y60498D02*
D03*
Y54302D02*
D03*
X171100Y60497D02*
D03*
Y54300D02*
D03*
X169300Y38402D02*
D03*
Y44598D02*
D03*
D29*
X114170Y19800D02*
D03*
X108264D02*
D03*
X102358D02*
D03*
X96452D02*
D03*
X90548D02*
D03*
X84641D02*
D03*
X78737D02*
D03*
X72830D02*
D03*
D30*
X147000Y17400D02*
D03*
D31*
X157000D02*
D03*
D32*
X187008Y88583D02*
D03*
X9843Y9843D02*
D03*
Y88583D02*
D03*
X187008Y9843D02*
D03*
M02*
