%FSLAX25Y25*%
%MOIN*%
G70*
G01*
G75*
G04 Layer_Color=255*
%ADD10C,0.02500*%
%ADD11R,0.11811X0.08661*%
%ADD12R,0.03347X0.02756*%
%ADD13R,0.02756X0.03347*%
%ADD14O,0.03543X0.01969*%
%ADD15O,0.03543X0.01969*%
%ADD16R,0.03543X0.01969*%
%ADD17R,0.01969X0.03150*%
%ADD18R,0.02362X0.03937*%
%ADD19O,0.02500X0.05500*%
%ADD20R,0.02500X0.05500*%
%ADD21R,0.03150X0.01969*%
%ADD22R,0.08661X0.11811*%
%ADD23O,0.05500X0.02500*%
%ADD24R,0.05500X0.02500*%
%ADD25R,0.02165X0.01181*%
%ADD26R,0.03150X0.01181*%
%ADD27R,0.01181X0.02165*%
%ADD28R,0.01181X0.03150*%
%ADD29R,0.03937X0.02362*%
%ADD30O,0.02362X0.07087*%
%ADD31O,0.07087X0.02362*%
%ADD32R,0.07000X0.03150*%
%ADD33R,0.07874X0.06000*%
%ADD34R,0.03937X0.03150*%
G04:AMPARAMS|DCode=35|XSize=35.43mil|YSize=157.48mil|CornerRadius=1.77mil|HoleSize=0mil|Usage=FLASHONLY|Rotation=300.000|XOffset=0mil|YOffset=0mil|HoleType=Round|Shape=RoundedRectangle|*
%AMROUNDEDRECTD35*
21,1,0.03543,0.15394,0,0,300.0*
21,1,0.03189,0.15748,0,0,300.0*
1,1,0.00354,-0.05868,-0.05229*
1,1,0.00354,-0.07463,-0.02468*
1,1,0.00354,0.05868,0.05229*
1,1,0.00354,0.07463,0.02468*
%
%ADD35ROUNDEDRECTD35*%
%ADD36C,0.02000*%
%ADD37C,0.07000*%
%ADD38C,0.00800*%
%ADD39C,0.01000*%
%ADD40C,0.04000*%
%ADD41C,0.05000*%
%ADD42C,0.03000*%
%ADD43R,0.07874X0.11811*%
%ADD44O,0.07874X0.11811*%
%ADD45R,0.05906X0.05906*%
%ADD46C,0.05906*%
%ADD47R,0.05906X0.05906*%
%ADD48C,0.06000*%
G04:AMPARAMS|DCode=49|XSize=51.18mil|YSize=173.23mil|CornerRadius=2.56mil|HoleSize=0mil|Usage=FLASHONLY|Rotation=300.000|XOffset=0mil|YOffset=0mil|HoleType=Round|Shape=RoundedRectangle|*
%AMROUNDEDRECTD49*
21,1,0.05118,0.16811,0,0,300.0*
21,1,0.04606,0.17323,0,0,300.0*
1,1,0.00512,-0.06128,-0.06197*
1,1,0.00512,-0.08431,-0.02208*
1,1,0.00512,0.06128,0.06197*
1,1,0.00512,0.08431,0.02208*
%
%ADD49ROUNDEDRECTD49*%
%ADD50C,0.03000*%
%ADD51C,0.02000*%
%ADD52C,0.05000*%
%ADD53R,0.01575X0.03347*%
%ADD54R,0.02756X0.08268*%
%ADD55R,0.02559X0.04843*%
D12*
X450300Y281300D02*
D03*
Y287206D02*
D03*
X431500Y281294D02*
D03*
Y287200D02*
D03*
X437750Y281294D02*
D03*
Y287200D02*
D03*
X444000Y281294D02*
D03*
Y287200D02*
D03*
X456500Y281294D02*
D03*
Y287200D02*
D03*
D13*
X448300Y309900D02*
D03*
X442394D02*
D03*
D39*
X557110Y268500D02*
G03*
X557110Y268500I-118110J0D01*
G01*
D43*
X353500Y299500D02*
D03*
D44*
X343500Y299894D02*
D03*
D45*
X418900Y191700D02*
D03*
D46*
Y201700D02*
D03*
Y211700D02*
D03*
X529400Y258000D02*
D03*
X519400D02*
D03*
X509400D02*
D03*
X424300Y161000D02*
D03*
X434300D02*
D03*
X444300D02*
D03*
D47*
X499400Y258000D02*
D03*
X454300Y161000D02*
D03*
D48*
X530500Y235400D02*
D03*
Y215400D02*
D03*
X500500Y235400D02*
D03*
Y215400D02*
D03*
D49*
X540300Y307829D02*
D03*
X530064Y325558D02*
D03*
D53*
X438159Y303842D02*
D03*
Y296558D02*
D03*
X435600D02*
D03*
X433041Y303842D02*
D03*
X435600D02*
D03*
X433041Y296558D02*
D03*
D54*
X467027Y370602D02*
D03*
Y323358D02*
D03*
X415885Y370602D02*
D03*
Y323358D02*
D03*
D55*
X442460Y317000D02*
D03*
X437460D02*
D03*
X432460D02*
D03*
X427460D02*
D03*
X422460D02*
D03*
X447460D02*
D03*
X451200D02*
D03*
M02*
