%FSLAX25Y25*%
%MOIN*%
G70*
G01*
G75*
G04 Layer_Color=8388736*
%ADD10C,0.02500*%
%ADD11R,0.11811X0.08661*%
%ADD12R,0.03347X0.02756*%
%ADD13R,0.02756X0.03347*%
%ADD14O,0.03543X0.01969*%
%ADD15O,0.03543X0.01969*%
%ADD16R,0.03543X0.01969*%
%ADD17R,0.01969X0.03150*%
%ADD18R,0.02362X0.03937*%
%ADD19O,0.02500X0.05500*%
%ADD20R,0.02500X0.05500*%
%ADD21R,0.03150X0.01969*%
%ADD22R,0.08661X0.11811*%
%ADD23O,0.05500X0.02500*%
%ADD24R,0.05500X0.02500*%
%ADD25R,0.02165X0.01181*%
%ADD26R,0.03150X0.01181*%
%ADD27R,0.01181X0.02165*%
%ADD28R,0.01181X0.03150*%
%ADD29R,0.03937X0.02362*%
%ADD30O,0.02362X0.07087*%
%ADD31O,0.07087X0.02362*%
%ADD32R,0.07000X0.03150*%
%ADD33R,0.07874X0.06000*%
%ADD34R,0.03937X0.03150*%
G04:AMPARAMS|DCode=35|XSize=35.43mil|YSize=157.48mil|CornerRadius=1.77mil|HoleSize=0mil|Usage=FLASHONLY|Rotation=300.000|XOffset=0mil|YOffset=0mil|HoleType=Round|Shape=RoundedRectangle|*
%AMROUNDEDRECTD35*
21,1,0.03543,0.15394,0,0,300.0*
21,1,0.03189,0.15748,0,0,300.0*
1,1,0.00354,-0.05868,-0.05229*
1,1,0.00354,-0.07463,-0.02468*
1,1,0.00354,0.05868,0.05229*
1,1,0.00354,0.07463,0.02468*
%
%ADD35ROUNDEDRECTD35*%
%ADD36C,0.02000*%
%ADD37C,0.07000*%
%ADD38C,0.00800*%
%ADD39C,0.01000*%
%ADD40C,0.04000*%
%ADD41C,0.05000*%
%ADD42C,0.03000*%
%ADD43R,0.07874X0.11811*%
%ADD44O,0.07874X0.11811*%
%ADD45R,0.05906X0.05906*%
%ADD46C,0.05906*%
%ADD47R,0.05906X0.05906*%
%ADD48C,0.06000*%
G04:AMPARAMS|DCode=49|XSize=51.18mil|YSize=173.23mil|CornerRadius=2.56mil|HoleSize=0mil|Usage=FLASHONLY|Rotation=300.000|XOffset=0mil|YOffset=0mil|HoleType=Round|Shape=RoundedRectangle|*
%AMROUNDEDRECTD49*
21,1,0.05118,0.16811,0,0,300.0*
21,1,0.04606,0.17323,0,0,300.0*
1,1,0.00512,-0.06128,-0.06197*
1,1,0.00512,-0.08431,-0.02208*
1,1,0.00512,0.06128,0.06197*
1,1,0.00512,0.08431,0.02208*
%
%ADD49ROUNDEDRECTD49*%
%ADD50C,0.03000*%
%ADD51C,0.02000*%
%ADD52C,0.05000*%
%ADD53R,0.01575X0.03347*%
%ADD54R,0.02756X0.08268*%
%ADD55R,0.02559X0.04843*%
%ADD56C,0.00500*%
%ADD57C,0.00787*%
%ADD58R,0.11811X0.01575*%
%ADD59R,0.01575X0.11811*%
%ADD60R,0.12611X0.09461*%
%ADD61R,0.04147X0.03556*%
%ADD62R,0.03556X0.04147*%
%ADD63O,0.04343X0.02769*%
%ADD64O,0.04343X0.02769*%
%ADD65R,0.04343X0.02769*%
%ADD66R,0.02769X0.03950*%
%ADD67R,0.03162X0.04737*%
%ADD68O,0.03300X0.06300*%
%ADD69R,0.03300X0.06300*%
%ADD70R,0.03950X0.02769*%
%ADD71R,0.09461X0.12611*%
%ADD72O,0.06300X0.03300*%
%ADD73R,0.06300X0.03300*%
%ADD74R,0.02965X0.01981*%
%ADD75R,0.03950X0.01981*%
%ADD76R,0.01981X0.02965*%
%ADD77R,0.01981X0.03950*%
%ADD78R,0.04737X0.03162*%
%ADD79O,0.03162X0.07887*%
%ADD80O,0.07887X0.03162*%
%ADD81R,0.07800X0.03950*%
%ADD82R,0.08674X0.06800*%
%ADD83R,0.04737X0.03950*%
G04:AMPARAMS|DCode=84|XSize=39.37mil|YSize=161.42mil|CornerRadius=1.97mil|HoleSize=0mil|Usage=FLASHONLY|Rotation=300.000|XOffset=0mil|YOffset=0mil|HoleType=Round|Shape=RoundedRectangle|*
%AMROUNDEDRECTD84*
21,1,0.03937,0.15748,0,0,300.0*
21,1,0.03543,0.16142,0,0,300.0*
1,1,0.00394,-0.05933,-0.05471*
1,1,0.00394,-0.07705,-0.02403*
1,1,0.00394,0.05933,0.05471*
1,1,0.00394,0.07705,0.02403*
%
%ADD84ROUNDEDRECTD84*%
%ADD85R,0.08674X0.12611*%
%ADD86O,0.08674X0.12611*%
%ADD87R,0.06706X0.06706*%
%ADD88C,0.06706*%
%ADD89R,0.06706X0.06706*%
%ADD90C,0.06800*%
G04:AMPARAMS|DCode=91|XSize=55.12mil|YSize=177.16mil|CornerRadius=2.76mil|HoleSize=0mil|Usage=FLASHONLY|Rotation=300.000|XOffset=0mil|YOffset=0mil|HoleType=Round|Shape=RoundedRectangle|*
%AMROUNDEDRECTD91*
21,1,0.05512,0.17165,0,0,300.0*
21,1,0.04961,0.17716,0,0,300.0*
1,1,0.00551,-0.06193,-0.06439*
1,1,0.00551,-0.08673,-0.02143*
1,1,0.00551,0.06193,0.06439*
1,1,0.00551,0.08673,0.02143*
%
%ADD91ROUNDEDRECTD91*%
D39*
X557110Y268500D02*
G03*
X557110Y268500I-118110J0D01*
G01*
D60*
X343400Y277500D02*
D03*
Y251909D02*
D03*
D61*
X473900Y363500D02*
D03*
Y369406D02*
D03*
X364700Y235700D02*
D03*
Y229795D02*
D03*
X450100Y179605D02*
D03*
Y173700D02*
D03*
X410135Y247400D02*
D03*
Y241494D02*
D03*
X384700Y327994D02*
D03*
Y333900D02*
D03*
X458300Y179605D02*
D03*
Y173700D02*
D03*
X406000Y187995D02*
D03*
Y193900D02*
D03*
X394800Y266394D02*
D03*
Y272300D02*
D03*
X358400Y266400D02*
D03*
Y272305D02*
D03*
X433100Y261300D02*
D03*
Y267206D02*
D03*
X365000Y272300D02*
D03*
Y266394D02*
D03*
X401100Y272300D02*
D03*
Y266394D02*
D03*
X339400Y222094D02*
D03*
Y228000D02*
D03*
X439400Y267206D02*
D03*
Y261300D02*
D03*
X392300Y333705D02*
D03*
Y327800D02*
D03*
X417700Y241494D02*
D03*
Y247400D02*
D03*
X400000Y327795D02*
D03*
Y333700D02*
D03*
X428500Y229306D02*
D03*
Y223400D02*
D03*
X456200Y208580D02*
D03*
Y214486D02*
D03*
D62*
X439906Y175700D02*
D03*
X434000D02*
D03*
X434000Y181800D02*
D03*
X439906D02*
D03*
X354606Y214300D02*
D03*
X348700D02*
D03*
X444805Y221700D02*
D03*
X438900D02*
D03*
X444805Y228300D02*
D03*
X438900D02*
D03*
X470694Y181400D02*
D03*
X476600D02*
D03*
X470794Y175000D02*
D03*
X476700D02*
D03*
X474672Y246978D02*
D03*
X468767D02*
D03*
X455900Y270100D02*
D03*
X449995D02*
D03*
X400095Y180800D02*
D03*
X406000D02*
D03*
X352805Y241100D02*
D03*
X346900D02*
D03*
X405406Y371200D02*
D03*
X399500D02*
D03*
X399400Y364700D02*
D03*
X405305D02*
D03*
X400095Y172900D02*
D03*
X406000D02*
D03*
X381500Y211500D02*
D03*
X387405D02*
D03*
X474667Y239578D02*
D03*
X468761D02*
D03*
X400095Y211100D02*
D03*
X406000D02*
D03*
D63*
X373300Y264820D02*
D03*
Y268560D02*
D03*
X385111Y264820D02*
D03*
D64*
Y272300D02*
D03*
D65*
X373300D02*
D03*
D66*
X473753Y169100D02*
D03*
X470800D02*
D03*
D67*
X491774Y355900D02*
D03*
X487837Y365742D02*
D03*
X483900Y355900D02*
D03*
X354574Y222200D02*
D03*
X350637Y232043D02*
D03*
X346700Y222200D02*
D03*
X375074Y327200D02*
D03*
X371137Y337042D02*
D03*
X367200Y327200D02*
D03*
D68*
X444000Y214438D02*
D03*
X434000D02*
D03*
X449000D02*
D03*
X444000Y191800D02*
D03*
X449000D02*
D03*
X439000Y214438D02*
D03*
Y191800D02*
D03*
X475645Y214486D02*
D03*
X465645D02*
D03*
X480645D02*
D03*
X475645Y191848D02*
D03*
X480645D02*
D03*
X470645Y214486D02*
D03*
Y191848D02*
D03*
D69*
X434000Y191800D02*
D03*
X465645Y191848D02*
D03*
D70*
X498000Y345747D02*
D03*
Y348700D02*
D03*
D71*
X437509Y364400D02*
D03*
X463100D02*
D03*
D72*
X395938Y225600D02*
D03*
Y235600D02*
D03*
Y220600D02*
D03*
X373300Y225600D02*
D03*
Y220600D02*
D03*
X395938Y230600D02*
D03*
X373300D02*
D03*
X396838Y193900D02*
D03*
Y203900D02*
D03*
Y188900D02*
D03*
X374200Y193900D02*
D03*
Y188900D02*
D03*
X396838Y198900D02*
D03*
X374200D02*
D03*
D73*
X373300Y235600D02*
D03*
X374200Y203900D02*
D03*
D74*
X431606Y249400D02*
D03*
Y237589D02*
D03*
X448181D02*
D03*
Y249400D02*
D03*
D75*
X432098Y247431D02*
D03*
Y245463D02*
D03*
Y243495D02*
D03*
Y241526D02*
D03*
Y239558D02*
D03*
X447689D02*
D03*
Y241526D02*
D03*
Y243495D02*
D03*
Y245463D02*
D03*
Y247431D02*
D03*
D76*
X433988Y235207D02*
D03*
X445799D02*
D03*
Y251782D02*
D03*
X433988D02*
D03*
D77*
X435957Y235699D02*
D03*
X437925D02*
D03*
X439894D02*
D03*
X441862D02*
D03*
X443831D02*
D03*
Y251290D02*
D03*
X441862D02*
D03*
X439894D02*
D03*
X437925D02*
D03*
X435957D02*
D03*
D78*
X388800Y180774D02*
D03*
X378958Y176837D02*
D03*
X388800Y172900D02*
D03*
X374700Y247026D02*
D03*
X384542Y250963D02*
D03*
X374700Y254900D02*
D03*
D79*
X428283Y348727D02*
D03*
X432613D02*
D03*
X436944D02*
D03*
X441275D02*
D03*
X445605D02*
D03*
X449936D02*
D03*
X454267D02*
D03*
X458598D02*
D03*
X462928D02*
D03*
Y279435D02*
D03*
X458598D02*
D03*
X454267D02*
D03*
X449936D02*
D03*
X445605D02*
D03*
X441275D02*
D03*
X436944D02*
D03*
X432613D02*
D03*
X428283D02*
D03*
D80*
X476511Y337900D02*
D03*
Y333569D02*
D03*
Y329239D02*
D03*
Y324908D02*
D03*
Y320577D02*
D03*
Y316246D02*
D03*
Y311916D02*
D03*
Y307585D02*
D03*
Y303254D02*
D03*
Y298924D02*
D03*
Y294593D02*
D03*
Y290262D02*
D03*
X414700D02*
D03*
Y294593D02*
D03*
Y298924D02*
D03*
Y303254D02*
D03*
Y307585D02*
D03*
Y311916D02*
D03*
Y316246D02*
D03*
Y320577D02*
D03*
Y324908D02*
D03*
Y329239D02*
D03*
Y333569D02*
D03*
Y337900D02*
D03*
D81*
X509764Y333600D02*
D03*
D82*
X516900Y327500D02*
D03*
X517000Y339736D02*
D03*
D83*
X522000Y333600D02*
D03*
D84*
X534500Y316300D02*
D03*
D85*
X353500Y299500D02*
D03*
D86*
X343500Y299894D02*
D03*
D87*
X418900Y191700D02*
D03*
D88*
Y201700D02*
D03*
Y211700D02*
D03*
X529400Y258000D02*
D03*
X519400D02*
D03*
X509400D02*
D03*
X424300Y161000D02*
D03*
X434300D02*
D03*
X444300D02*
D03*
D89*
X499400Y258000D02*
D03*
X454300Y161000D02*
D03*
D90*
X530500Y235400D02*
D03*
Y215400D02*
D03*
X500500Y235400D02*
D03*
Y215400D02*
D03*
D91*
X540300Y307829D02*
D03*
X530064Y325558D02*
D03*
M02*
