%FSLAX25Y25*%
%MOIN*%
G70*
G01*
G75*
G04 Layer_Color=255*
%ADD10R,0.03347X0.02756*%
%ADD11R,0.02362X0.03937*%
%ADD12O,0.04724X0.00984*%
%ADD13R,0.04724X0.01772*%
%ADD14O,0.04724X0.01772*%
%ADD15O,0.00984X0.04724*%
%ADD16O,0.01772X0.04724*%
%ADD17R,0.03937X0.02362*%
%ADD18R,0.02756X0.03347*%
%ADD19R,0.04724X0.01969*%
%ADD20O,0.03543X0.01969*%
%ADD21O,0.03543X0.01969*%
%ADD22R,0.03543X0.01969*%
%ADD23O,0.02500X0.05500*%
%ADD24R,0.02500X0.05500*%
%ADD25R,0.07874X0.07874*%
%ADD26C,0.01200*%
%ADD27C,0.06000*%
%ADD28C,0.01000*%
%ADD29C,0.02000*%
%ADD30C,0.00800*%
%ADD31C,0.01500*%
%ADD32C,0.03000*%
%ADD33C,0.05000*%
%ADD34C,0.00500*%
%ADD35C,0.05906*%
%ADD36P,0.08352X4X180.0*%
%ADD37R,0.05906X0.05906*%
G04:AMPARAMS|DCode=38|XSize=78.74mil|YSize=118.11mil|CornerRadius=0mil|HoleSize=0mil|Usage=FLASHONLY|Rotation=45.000|XOffset=0mil|YOffset=0mil|HoleType=Round|Shape=Rectangle|*
%AMROTATEDRECTD38*
4,1,4,0.01392,-0.06960,-0.06960,0.01392,-0.01392,0.06960,0.06960,-0.01392,0.01392,-0.06960,0.0*
%
%ADD38ROTATEDRECTD38*%

G04:AMPARAMS|DCode=39|XSize=78.74mil|YSize=118.11mil|CornerRadius=0mil|HoleSize=0mil|Usage=FLASHONLY|Rotation=45.000|XOffset=0mil|YOffset=0mil|HoleType=Round|Shape=Round|*
%AMOVALD39*
21,1,0.03937,0.07874,0.00000,0.00000,135.0*
1,1,0.07874,0.01392,-0.01392*
1,1,0.07874,-0.01392,0.01392*
%
%ADD39OVALD39*%

%ADD40C,0.06000*%
%ADD41P,0.08352X4X200.0*%
%ADD42R,0.05906X0.05906*%
%ADD43C,0.03000*%
%ADD44C,0.02000*%
%ADD45C,0.04000*%
%ADD46C,0.05000*%
D10*
X-50900Y-67795D02*
D03*
Y-73700D02*
D03*
X47700Y-40095D02*
D03*
Y-46000D02*
D03*
X-66600Y-53194D02*
D03*
Y-59100D02*
D03*
D17*
X53500Y-38126D02*
D03*
X63342Y-42063D02*
D03*
X53500Y-46000D02*
D03*
D18*
X-73005Y-47400D02*
D03*
X-67100D02*
D03*
X-61700Y73400D02*
D03*
X-55795D02*
D03*
X-61705Y80100D02*
D03*
X-55800D02*
D03*
X-84905Y-47400D02*
D03*
X-79000D02*
D03*
D34*
X105123Y-15766D02*
G03*
X-100244Y35364I-105123J15766D01*
G01*
X-105128Y15737D02*
G03*
X100221Y-35430I105128J-15737D01*
G01*
X-82677Y49D02*
G03*
X-82677Y0I-7874J-49D01*
G01*
X98425Y49D02*
G03*
X98425Y0I-7874J-49D01*
G01*
X-105128Y15748D02*
X-85515D01*
X-100199Y35348D02*
X-85515D01*
Y15748D02*
Y35348D01*
X85315Y-35348D02*
Y-15748D01*
Y-35433D02*
X100229D01*
X85315Y-15748D02*
X105000D01*
D35*
X-74713Y-59787D02*
D03*
X-67642Y-66858D02*
D03*
X-60571Y-73929D02*
D03*
X84500Y51800D02*
D03*
Y41800D02*
D03*
Y31800D02*
D03*
X39500Y70100D02*
D03*
X29500D02*
D03*
X19500D02*
D03*
X9500D02*
D03*
X-500D02*
D03*
X-10500D02*
D03*
X-20500D02*
D03*
X-30500D02*
D03*
X-40500D02*
D03*
Y-32262D02*
D03*
X-30500D02*
D03*
X-20500D02*
D03*
X-10500D02*
D03*
X-500D02*
D03*
X9500D02*
D03*
X19500D02*
D03*
X29500D02*
D03*
X39500D02*
D03*
X-40663Y-90374D02*
D03*
X-14500Y-47200D02*
D03*
X-44500Y-57200D02*
D03*
Y-47200D02*
D03*
X-26500Y92200D02*
D03*
X-16500D02*
D03*
X-6500D02*
D03*
X3500D02*
D03*
X13500D02*
D03*
X23500D02*
D03*
X33500D02*
D03*
D36*
X-53500Y-81000D02*
D03*
D37*
X84500Y21800D02*
D03*
D38*
X43200Y-75000D02*
D03*
X69900Y-50100D02*
D03*
D39*
X50550Y-68207D02*
D03*
X77249Y-43307D02*
D03*
D40*
X14900Y-96700D02*
D03*
Y-76700D02*
D03*
X-15100Y-96700D02*
D03*
Y-76700D02*
D03*
X-100Y-85800D02*
D03*
D41*
X-31600Y-94600D02*
D03*
D42*
X-14500Y-57200D02*
D03*
X-36500Y92200D02*
D03*
M02*
