G04 ================== begin FILE IDENTIFICATION RECORD ==================*
G04 Layout Name:  F:/work/ZM/Frogs/Git/Hardware/Hardware/Wepark/esp32/cam/ESP323.brd*
G04 Film Name:    GND*
G04 File Format:  Gerber RS274X*
G04 File Origin:  Cadence Allegro 16.6-2015-S108*
G04 Origin Date:  Thu Aug 01 16:50:14 2019*
G04 *
G04 Layer:  BOARD GEOMETRY/OUTLINE*
G04 Layer:  ETCH/GND*
G04 Layer:  PIN/GND*
G04 Layer:  VIA CLASS/GND*
G04 *
G04 Offset:    (0.000 0.000)*
G04 Mirror:    No*
G04 Mode:      Positive*
G04 Rotation:  0*
G04 FullContactRelief:  No*
G04 UndefLineWidth:     0.127*
G04 ================== end FILE IDENTIFICATION RECORD ====================*
%FSLAX35Y35*MOIN*%
%IR0*IPPOS*OFA0.00000B0.00000*MIA0B0*SFA1.00000B1.00000*%
%ADD11C,.02*%
%ADD10C,.03*%
%ADD13C,.04*%
%ADD12C,.059055*%
%ADD14C,.059059*%
%ADD15C,.005*%
%ADD16C,.000127*%
%ADD17C,.590559*%
%ADD21C,.030004*%
%ADD22C,.040004*%
%ADD24C,.050004*%
%ADD23C,.08306*%
%ADD26C,.083064*%
%ADD25C,.069064*%
%ADD18C,.082683*%
%ADD20C,.082684*%
%ADD19C,.094495*%
G75*
%LPD*%
G75*
G36*
G01X101632Y12230D02*
G03Y-12230I0J-12230D01*
G01X107437D01*
G02X107537Y-12342I0J-100D01*
G02X12342Y-107537I-107537J12342D01*
G02X12230Y-107437I-11J99D01*
G01Y-101632D01*
G03X-12230I-12230J0D01*
G01Y-107437D01*
G02X-12342Y-107537I-100J0D01*
G02X-107537Y-12342I12342J107537D01*
G02X-107437Y-12230I99J11D01*
G01X-101632D01*
G03Y12230I0J12230D01*
G01X-107437D01*
G02X-107537Y12342I0J100D01*
G02X107537I107537J-12341D01*
G02X107437Y12230I-99J-11D01*
G01X101632D01*
G37*
%LPC*%
G75*
G36*
G01X-70293Y13597D02*
G03X-70162Y13512I100J10D01*
G02X-71182Y11941I473J-1424D01*
G03X-71313Y12026I-100J-10D01*
G02X-70293Y13597I-473J1424D01*
G37*
G36*
G01X-41309Y10640D02*
G03X-41342Y10822I-54J84D01*
G02X-40226Y11027I307J1468D01*
G03X-40192Y10845I54J-84D01*
G02X-41309Y10640I-307J-1468D01*
G37*
G36*
G01X-70811Y-5749D02*
G03X-70928Y-5874I-20J-98D01*
G02X-72077Y-4800I-1447J-396D01*
G03X-71961Y-4675I20J98D01*
G02X-70811Y-5749I1447J396D01*
G37*
G36*
G01X-15728Y-31016D02*
X-13794Y-32951D01*
G02X-15842Y-35007I-754J-1297D01*
G01X-15845Y-35001D01*
X-16930Y-33917D01*
X-18012D01*
X-19461Y-32467D01*
G02X-17410Y-30416I1025J1025D01*
G01X-16810Y-31016D01*
X-15728D01*
G37*
G36*
G01X14448Y-45865D02*
G03X14325Y-46000I-31J-95D01*
G02X11579Y-46000I-1373J-605D01*
G03X11456Y-45865I-92J40D01*
G02X12357Y-45046I-472J1424D01*
G03X12480Y-45181I92J-40D01*
G02X13425Y-45181I472J-1424D01*
G03X13548Y-45046I31J95D01*
G02X14448Y-45865I1373J605D01*
G37*
G36*
G01X-6074Y-53940D02*
G03X-6257Y-53960I-87J-49D01*
G02X-6386Y-52801I-1438J427D01*
G03X-6203Y-52781I87J49D01*
G02X-6074Y-53940I1438J-427D01*
G37*
G36*
G01X-23514Y-55920D02*
G03X-23694Y-55931I-87J-49D01*
G02X-23772Y-54633I-1389J567D01*
G03X-23592Y-54623I87J49D01*
G02X-23514Y-55920I1389J-567D01*
G37*
G54D17*
X0Y0D03*
G54D21*
X-102288Y29410D03*
X-97666Y-24226D03*
X-93632Y-24494D03*
X-91678Y25862D03*
X-86206Y38385D03*
X-73315Y-64994D03*
X-79749Y-38378D03*
X-78477Y-5038D03*
X-76682Y-1963D03*
X-72730Y7168D03*
X-79401Y5990D03*
X-75861Y1069D03*
X-82744Y6412D03*
X-81395Y24699D03*
X-77425Y40250D03*
X-80624Y36572D03*
X-77426Y43842D03*
X-84854Y47097D03*
X-81777Y57234D03*
X-62224Y-70717D03*
X-67792Y-67830D03*
X-69619Y-50210D03*
X-69988Y-43704D03*
X-60265Y-29851D03*
X-61775Y-15224D03*
X-67324Y-10251D03*
X-66865Y8875D03*
X-71498Y3241D03*
X-67519Y20701D03*
X-71623Y38833D03*
X-71462Y63171D03*
X-65249Y73638D03*
X-68925Y68986D03*
X-53277Y-18075D03*
X-57401Y-19123D03*
X-56838Y24018D03*
X-58359Y28496D03*
X-51843Y68228D03*
X-44574Y-21453D03*
X-40848Y-9125D03*
X-37895Y-5715D03*
X-33169Y13022D03*
X-40869Y20598D03*
X-44804Y15010D03*
X-27926Y-61249D03*
X-25083Y-67627D03*
X-30704Y19419D03*
X-17741Y-55278D03*
X-15218Y-51048D03*
X-16592Y-44483D03*
X-8166Y-34189D03*
X-11300Y43439D03*
X-12046Y91427D03*
X-12015Y103238D03*
X-12378Y97332D03*
X-828Y-44447D03*
X3110Y-44441D03*
X2324Y-51070D03*
X7047Y-44441D03*
X9015Y-34890D03*
X1141Y-31204D03*
X1901Y45806D03*
X-1533Y47730D03*
X8753Y43439D03*
X16883Y-30980D03*
X18834Y-35142D03*
X15050Y45806D03*
X19159Y47730D03*
X16054Y103692D03*
X30104Y-83937D03*
X26572Y-88563D03*
X31910Y-77566D03*
X35480Y-64438D03*
X61999Y69987D03*
X68713Y-68685D03*
X64756Y-73080D03*
X69907Y-61538D03*
X69387Y-49692D03*
X68292Y51648D03*
X72967Y64298D03*
X69132Y68800D03*
G54D22*
X-86044Y-61674D03*
X-86417Y-53049D03*
X-93022Y21938D03*
X-78071Y20877D03*
X48023Y-74857D03*
G54D24*
X38626Y-4722D03*
G54D23*
X-4981Y62095D03*
X-14981D03*
X5019D03*
X15019D03*
G54D26*
X51731Y45142D03*
G54D25*
X44660Y52213D03*
G54D18*
X-27838Y27839D03*
G54D20*
X27839Y-27839D03*
G54D19*
X0Y-82086D03*
Y82087D03*
%LPD*%
G75*
G54D10*
X-101117Y-27572D03*
X-102548Y-22548D03*
Y-17548D03*
Y17452D03*
Y22452D03*
X-86044Y-61674D03*
X-92548Y-42548D03*
X-86417Y-53049D03*
X-87548Y-37548D03*
X-97548Y-32548D03*
X-87548Y-22548D03*
X-97548Y-17548D03*
X-92548Y-12548D03*
X-87548Y-7548D03*
Y7452D03*
X-92548Y12452D03*
X-87548D03*
X-97548Y17452D03*
X-92548D03*
X-87548D03*
X-97548Y22452D03*
X-93022Y21938D03*
X-88450Y45647D03*
X-87548Y57452D03*
X-82548Y-47548D03*
X-77548D03*
Y-42548D03*
X-72548Y-37548D03*
X-77548Y-32548D03*
X-72548D03*
X-82548Y-27548D03*
X-77548D03*
X-82548Y-22548D03*
Y-2548D03*
X-75945Y10198D03*
X-82548Y17452D03*
X-78071Y20877D03*
X-72548Y57452D03*
X-82548Y62452D03*
X-77548D03*
X-63745Y-41849D03*
X-62548Y-52548D03*
X-67548Y-47548D03*
Y-37548D03*
Y-32548D03*
X-62548D03*
X-59070Y-916D03*
X-62548Y32452D03*
X-67548Y37452D03*
X-62548D03*
Y42452D03*
Y47452D03*
X-67548Y52452D03*
X-62548D03*
X-47548Y-77548D03*
X-52548Y-72548D03*
X-47548D03*
X-52548Y-67548D03*
X-47548D03*
X-52548Y-62548D03*
X-47548D03*
X-57548Y-57548D03*
X-52548D03*
X-47548D03*
X-57548Y-52548D03*
X-47548D03*
X-57548Y-47548D03*
X-47548D03*
X-57548Y-37548D03*
X-52548Y-32548D03*
X-47548D03*
X-52548Y-22548D03*
X-53944Y-6372D03*
X-51174Y2981D03*
X-53455Y7775D03*
X-49257Y21212D03*
X-52548Y17452D03*
Y32452D03*
X-57548Y37452D03*
X-52548D03*
X-47548D03*
X-57548Y42452D03*
X-47548D03*
X-57548Y47452D03*
X-52548D03*
X-47548D03*
X-57548Y52452D03*
X-52548D03*
X-47548D03*
X-57548Y57452D03*
X-52548D03*
X-47548D03*
X-52548Y62452D03*
X-47548D03*
Y67452D03*
Y72452D03*
X-57548Y87452D03*
X-42548Y-82548D03*
X-37548D03*
X-32548D03*
X-42548Y-77548D03*
X-37548D03*
X-32548D03*
X-42548Y-72548D03*
X-37548D03*
X-32548D03*
X-42548Y-67548D03*
X-37548D03*
X-32548D03*
X-42548Y-62548D03*
X-37548D03*
X-32548D03*
X-42548Y-57548D03*
X-37548D03*
X-32548D03*
X-42548Y-52548D03*
X-37548D03*
X-32548D03*
X-42548Y-47548D03*
X-37548D03*
X-32548D03*
X-42548Y-42548D03*
X-37548D03*
X-32548D03*
X-37548Y-37548D03*
X-32548D03*
X-37548Y-32548D03*
X-32548D03*
Y22452D03*
X-37548Y27452D03*
X-34008Y28866D03*
X-32548Y32452D03*
X-42548Y42452D03*
Y47452D03*
X-37548D03*
X-32548D03*
X-42548Y52452D03*
X-37548D03*
X-32548D03*
X-42548Y57452D03*
X-37548D03*
X-32548D03*
X-42548Y62452D03*
Y67452D03*
X-37548D03*
X-42548Y72452D03*
X-37548D03*
X-32548D03*
X-42548Y77452D03*
X-37548D03*
X-32548D03*
X-37548Y82452D03*
X-32548D03*
X-22548Y-102548D03*
X-17548D03*
X-27548Y-97548D03*
X-22548D03*
X-17548D03*
Y-92548D03*
X-27548Y-77548D03*
X-22548D03*
X-27548Y-72548D03*
X-22548D03*
X-17548D03*
X-27548Y-42548D03*
Y-37548D03*
X-22548Y32452D03*
X-27548Y37452D03*
X-22548D03*
X-17548D03*
X-27548Y47452D03*
X-22548D03*
X-27548Y52452D03*
X-17548D03*
X-22548Y57452D03*
X-17548D03*
X-27548Y62452D03*
X-22548D03*
X-27548Y67452D03*
X-22548D03*
X-17548D03*
X-27548Y72452D03*
X-22548D03*
X-17548D03*
X-27548Y77452D03*
X-22548D03*
X-17548D03*
X-27548Y82452D03*
X-22548D03*
X-17548D03*
X-27548Y87452D03*
X-22548D03*
X-12548Y-92548D03*
Y-87548D03*
X-7548D03*
Y-82548D03*
Y37452D03*
Y47452D03*
X-12548Y67452D03*
X-7548D03*
X-12548Y72452D03*
X-7548D03*
X-12548Y77452D03*
X-7548D03*
X-12548Y82452D03*
X-7548D03*
X-2548Y-62548D03*
X4068Y-47949D03*
X-2548Y37452D03*
X2452D03*
Y42452D03*
X-2548Y57452D03*
X2452D03*
X7452D03*
X-2548Y67452D03*
X2452D03*
X7452D03*
X-2548Y72452D03*
X2452D03*
X7452D03*
Y77452D03*
Y82452D03*
X17452Y-102548D03*
X22452D03*
X20606Y-46509D03*
X22452Y22452D03*
X17452Y27452D03*
X22452D03*
X12452Y32452D03*
X17452D03*
X22452D03*
Y37452D03*
Y42452D03*
X12452Y57452D03*
X17452D03*
X22452D03*
Y62452D03*
X12452Y67452D03*
X17452D03*
X22452D03*
X12452Y72452D03*
X17452D03*
X22452D03*
X12452Y77452D03*
X17452D03*
X22452D03*
X12452Y82452D03*
X17452D03*
X22452D03*
X17452Y97452D03*
X34298Y-39053D03*
X35586Y-33224D03*
X35314Y-22718D03*
X32061Y-12212D03*
X27452Y17452D03*
X32452D03*
X27452Y22452D03*
X32452D03*
X27452Y27452D03*
X32452D03*
X27452Y32452D03*
X32452D03*
X27452Y37452D03*
X32452D03*
X27452Y42452D03*
X32452D03*
X27452Y47452D03*
X32452D03*
X27452Y52452D03*
X32452D03*
X27452Y57452D03*
X32452D03*
X27452Y62452D03*
X32452D03*
X27452Y67452D03*
X32452D03*
X27452Y72452D03*
X32452D03*
X27452Y77452D03*
X32452D03*
X27452Y82452D03*
X32452D03*
X42452Y-92548D03*
X45685Y-69401D03*
X48023Y-74857D03*
X49684Y-65843D03*
X40534Y-60725D03*
X47244Y-40951D03*
X41957Y-46915D03*
X48531Y-47864D03*
X41957Y-32275D03*
X48260Y-35054D03*
X40669Y-39256D03*
X44194Y-26175D03*
X50361Y-21634D03*
X42973Y-21295D03*
X47452Y2452D03*
Y12452D03*
X37452Y17452D03*
X42452D03*
X47452D03*
X37452Y22452D03*
X42452D03*
X47452D03*
X37452Y27452D03*
X42452D03*
X47452D03*
X37452Y32452D03*
X42452D03*
X47452D03*
X37452Y37452D03*
X42452D03*
X47452D03*
X37452Y42452D03*
X42452D03*
X47452D03*
X37452Y47452D03*
X42452D03*
X37452Y52452D03*
Y57452D03*
X42452D03*
X47452D03*
X37452Y62452D03*
X42452D03*
X47452D03*
X37452Y67452D03*
X42452D03*
X47452D03*
X37452Y72452D03*
X42452D03*
X47452D03*
X37452Y77452D03*
X42452D03*
X47452D03*
X37452Y82452D03*
X54767Y-45018D03*
X60054Y-40951D03*
X51853Y-28073D03*
X60122Y-30242D03*
X54699Y-37087D03*
X63375Y-35528D03*
X64595Y-16940D03*
X64324Y-22650D03*
X57072Y-22040D03*
X63680Y-9043D03*
X52452Y2452D03*
X57452D03*
X62452D03*
X52452Y12452D03*
Y17452D03*
Y22452D03*
X57452D03*
X52452Y27452D03*
X57452D03*
X52452Y32452D03*
X57452D03*
X52452Y37452D03*
X62452Y42452D03*
X57452Y47452D03*
X62452D03*
X52452Y52452D03*
X57452D03*
X62452D03*
X52452Y57452D03*
X57452D03*
X52452Y62452D03*
Y67452D03*
Y72452D03*
X75779Y-48356D03*
X74830Y-43340D03*
X76592Y-36562D03*
X67171Y-29157D03*
X70560Y-22718D03*
X69814Y-12297D03*
X71136Y-4536D03*
X67452Y2452D03*
X72452D03*
X67452Y12452D03*
Y22452D03*
X72452D03*
X77452D03*
X67452Y27452D03*
X72452D03*
X77452D03*
X67452Y32452D03*
X72452D03*
X77452D03*
X67452Y37452D03*
X72452D03*
X77452D03*
X67452Y42452D03*
X72452D03*
X77452D03*
X67452Y47452D03*
X72452D03*
X77452D03*
X72452Y52452D03*
X77452Y62452D03*
X87708Y-28971D03*
X84861Y-37104D03*
X80117Y-30733D03*
X82015Y-23819D03*
X82452Y22452D03*
Y27452D03*
X87452D03*
X82452Y32452D03*
X87452D03*
X82452Y37452D03*
X87452D03*
X82452Y42452D03*
X87452Y52452D03*
X82452Y57452D03*
X92452Y17452D03*
X97452D03*
Y22452D03*
Y27452D03*
Y32452D03*
G54D11*
X-102288Y29410D03*
X-97666Y-24226D03*
X-93632Y-24494D03*
X-91678Y25862D03*
X-86206Y38385D03*
X-73315Y-64994D03*
X-79749Y-38378D03*
X-78477Y-5038D03*
X-76682Y-1963D03*
X-72730Y7168D03*
X-79401Y5990D03*
X-75861Y1069D03*
X-82744Y6412D03*
X-81395Y24699D03*
X-77425Y40250D03*
X-80624Y36572D03*
X-77426Y43842D03*
X-84854Y47097D03*
X-81777Y57234D03*
X-62224Y-70717D03*
X-67792Y-67830D03*
X-69619Y-50210D03*
X-69988Y-43704D03*
X-60265Y-29851D03*
X-61775Y-15224D03*
X-67324Y-10251D03*
X-70514Y-4279D03*
X-72374Y-6270D03*
X-71786Y13449D03*
X-69689Y12089D03*
X-66865Y8875D03*
X-71498Y3241D03*
X-67519Y20701D03*
X-71623Y38833D03*
X-71462Y63171D03*
X-65249Y73638D03*
X-68925Y68986D03*
X-53277Y-18075D03*
X-57401Y-19123D03*
X-56838Y24018D03*
X-58359Y28496D03*
X-51843Y68228D03*
X-44574Y-21453D03*
X-40848Y-9125D03*
X-37895Y-5715D03*
X-41034Y12290D03*
X-40500Y9376D03*
X-33169Y13022D03*
X-40869Y20598D03*
X-44804Y15010D03*
X-27926Y-61249D03*
X-25083Y-55364D03*
Y-67627D03*
X-22204Y-55190D03*
X-19974Y-53470D03*
X-30704Y19419D03*
X-17741Y-55278D03*
X-15218Y-51048D03*
X-16592Y-44483D03*
X-7695Y-53534D03*
X-4765Y-53208D03*
X-14548Y-34248D03*
X-8166Y-34189D03*
X-11300Y43439D03*
X-12046Y91427D03*
X-12015Y103238D03*
X-12378Y97332D03*
X-828Y-44447D03*
X3110Y-44441D03*
X2324Y-51070D03*
X7047Y-44441D03*
X9015Y-34890D03*
X1141Y-31204D03*
X1901Y45806D03*
X-1533Y47730D03*
X8753Y43439D03*
X14921Y-44441D03*
X12952Y-46605D03*
X10984Y-44441D03*
X16883Y-30980D03*
X18834Y-35142D03*
X15050Y45806D03*
X19159Y47730D03*
X16054Y103692D03*
X30104Y-83937D03*
X26572Y-88563D03*
X31910Y-77566D03*
X35480Y-64438D03*
X61999Y69987D03*
X68713Y-68685D03*
X64756Y-73080D03*
X69907Y-61538D03*
X69387Y-49692D03*
X68292Y51648D03*
X72967Y64298D03*
X69132Y68800D03*
G54D12*
X-4981Y62095D03*
X-14981D03*
X5019D03*
X15019D03*
G54D13*
X38626Y-4722D03*
G54D14*
X44660Y52213D03*
X51731Y45142D03*
G54D15*
G01X-14548Y-34248D02*
X-16329Y-32466D01*
X-17411D01*
X-18436Y-31442D01*
G01X44660Y48710D02*
Y52213D01*
G01D02*
Y55717D01*
G01X41157Y52213D02*
X44660D01*
G01D02*
X48163D01*
G54D16*
G01X101632Y12205D02*
G03Y-12205I0J-12205D01*
G01X107578D01*
G02X12205Y-107578I-107578J12205D01*
G01Y-101632D01*
G03X-12205I-12205J0D01*
G01Y-107578D01*
G02X-107578Y-12205I12205J107578D01*
G01X-101632D01*
G03Y12205I0J12205D01*
G01X-107578D01*
G02X107578I107578J-12205D01*
G01X101632D01*
G01X29528Y0D02*
G02I-29528J0D01*
G01X-23705Y27839D02*
G02I-4134J0D01*
G01X4725Y-82087D02*
G02I-4724J0D01*
G01Y82087D02*
G02I-4724J0D01*
G01X31973Y-27839D02*
G02I-4134J0D01*
M02*
