G04 ================== begin FILE IDENTIFICATION RECORD ==================*
G04 Layout Name:  F:/work/ZM/Frogs/Git/Hardware/Hardware/Wepark/esp32/cam/ESP323.brd*
G04 Film Name:    SilkScreenTOP*
G04 File Format:  Gerber RS274X*
G04 File Origin:  Cadence Allegro 16.6-2015-S108*
G04 Origin Date:  Thu Aug 01 16:50:14 2019*
G04 *
G04 Layer:  BOARD GEOMETRY/OUTLINE*
G04 Layer:  REF DES/SILKSCREEN_TOP*
G04 Layer:  PACKAGE GEOMETRY/SILKSCREEN_TOP*
G04 Layer:  COMPONENT VALUE/SILKSCREEN_TOP*
G04 Layer:  BOARD GEOMETRY/SILKSCREEN_TOP*
G04 *
G04 Offset:    (0.000 0.000)*
G04 Mirror:    No*
G04 Mode:      Positive*
G04 Rotation:  0*
G04 FullContactRelief:  No*
G04 UndefLineWidth:     0.127*
G04 ================== end FILE IDENTIFICATION RECORD ====================*
%FSLAX35Y35*MOIN*%
%IR0*IPPOS*OFA0.00000B0.00000*MIA0B0*SFA1.00000B1.00000*%
%ADD10C,.005*%
%ADD11C,.01*%
%ADD12C,.000127*%
G75*
%LPD*%
G75*
G54D10*
G01X-90360Y-14495D02*
X-90608Y-14459D01*
X-90826Y-14489D01*
X-90967Y-14630D01*
X-90985Y-14931D01*
X-90873Y-15290D01*
X-90678Y-15661D01*
X-90278Y-16204D01*
X-89871Y-16646D01*
X-89411Y-17034D01*
X-89075Y-17264D01*
X-88686Y-17441D01*
X-88374Y-17506D01*
X-88156Y-17476D01*
X-88032Y-17352D01*
X-88003Y-17134D01*
X-88038Y-16887D01*
X-88138Y-16610D01*
G01X-89435Y-14041D02*
X-89612Y-13652D01*
X-89629Y-13387D01*
X-89535Y-13198D01*
X-89264Y-13116D01*
X-88904Y-13228D01*
X-88586Y-13475D01*
X-88321Y-13776D01*
X-88156Y-14082D01*
X-88038Y-14907D01*
X-87867Y-15396D01*
X-87502Y-15974D01*
X-87113Y-16433D01*
X-86371Y-15691D01*
G01X-80771Y-57996D02*
X-78744Y-60023D01*
X-78249Y-60377D01*
X-77825Y-60518D01*
X-77554Y-60436D01*
X-77471Y-60164D01*
X-77612Y-59740D01*
X-77966Y-59245D01*
X-79993Y-57218D01*
G01X-76139Y-59021D02*
X-78968Y-56193D01*
X-78614Y-56971D01*
G01X-76352Y-59233D02*
X-75927Y-58809D01*
G01X-75356Y-57578D02*
X-74996Y-57690D01*
X-74761Y-57642D01*
X-74713Y-57407D01*
X-74872Y-57000D01*
X-75208Y-56488D01*
X-75597Y-56028D01*
X-76116Y-55509D01*
X-76575Y-55120D01*
X-77041Y-54832D01*
X-77336Y-54749D01*
X-77554Y-54779D01*
X-77601Y-55014D01*
X-77518Y-55309D01*
X-77306Y-55663D01*
X-76964Y-56075D01*
X-76599Y-56370D01*
X-76181Y-56611D01*
X-75886Y-56694D01*
X-75715Y-56617D01*
X-75668Y-56382D01*
X-75798Y-56040D01*
X-76116Y-55509D01*
G01X-80779Y-68003D02*
X-81336Y-67447D01*
X-67416Y-53527D01*
X-66859Y-54084D01*
G01X-81046Y-24509D02*
X-79019Y-26536D01*
X-78524Y-26889D01*
X-78100Y-27031D01*
X-77829Y-26948D01*
X-77746Y-26677D01*
X-77888Y-26253D01*
X-78241Y-25758D01*
X-80268Y-23731D01*
G01X-76414Y-25534D02*
X-79243Y-22706D01*
X-78889Y-23483D01*
G01X-76627Y-25746D02*
X-76202Y-25322D01*
G01X-75052Y-28916D02*
X-75300Y-28881D01*
X-75518Y-28910D01*
X-75659Y-29052D01*
X-75677Y-29352D01*
X-75565Y-29712D01*
X-75370Y-30083D01*
X-74970Y-30625D01*
X-74563Y-31067D01*
X-74103Y-31456D01*
X-73767Y-31686D01*
X-73378Y-31863D01*
X-73066Y-31927D01*
X-72848Y-31898D01*
X-72724Y-31774D01*
X-72695Y-31556D01*
X-72730Y-31309D01*
X-72830Y-31032D01*
G01X-71434Y-30484D02*
X-74262Y-27655D01*
X-73909Y-28433D01*
G01X-71646Y-30696D02*
X-71222Y-30272D01*
G01X-86224Y-10947D02*
X-82241Y-6963D01*
X-81901Y-6963D01*
X-80005Y-8859D01*
X-80005Y-9171D01*
X-84056Y-13221D01*
X-84356D01*
X-86224Y-11353D01*
Y-10947D01*
G01X-66727Y53981D02*
X-67284Y53424D01*
X-81203Y67344D01*
X-80646Y67900D01*
G01X-54054Y-66890D02*
X-53497Y-67447D01*
X-67416Y-81366D01*
X-67973Y-80809D01*
G01X-57089Y-52076D02*
X-61396Y-47769D01*
G01D02*
X-55559Y-41932D01*
G01X-54085Y-26003D02*
X-58461Y-30380D01*
X-60746Y-28094D01*
X-56370Y-23717D01*
X-54085Y-26003D01*
G01X-71355Y-32308D02*
X-71602Y-32273D01*
X-71821Y-32302D01*
X-71962Y-32443D01*
X-71980Y-32744D01*
X-71868Y-33103D01*
X-71673Y-33475D01*
X-71272Y-34017D01*
X-70866Y-34459D01*
X-70406Y-34848D01*
X-70070Y-35077D01*
X-69681Y-35254D01*
X-69369Y-35319D01*
X-69151Y-35290D01*
X-69027Y-35166D01*
X-68998Y-34948D01*
X-69033Y-34700D01*
X-69133Y-34423D01*
G01X-68550Y-33840D02*
X-68208Y-33970D01*
X-67943Y-33987D01*
X-67737Y-33875D01*
X-67672Y-33622D01*
X-67737Y-33310D01*
X-67978Y-32891D01*
X-68338Y-32496D01*
X-68750Y-32155D01*
X-69075Y-32007D01*
X-69387Y-31943D01*
X-69558Y-32019D01*
X-69634Y-32190D01*
X-69605Y-32538D01*
X-70778Y-31259D01*
X-70300Y-30782D01*
G01X-62529Y-28368D02*
X-66512Y-32352D01*
X-66852D01*
X-68748Y-30456D01*
X-68748Y-30144D01*
X-64697Y-26093D01*
X-64397D01*
X-62529Y-27961D01*
Y-28368D01*
G01X-65954Y-25280D02*
X-69938Y-29264D01*
X-70277D01*
X-72173Y-27368D01*
Y-27057D01*
X-68122Y-23006D01*
X-67822D01*
X-65954Y-24874D01*
Y-25280D01*
G01X-66168Y-19680D02*
G03I-527J0D01*
G01X-60094Y-17891D02*
X-62922Y-15062D01*
X-62480Y-14621D01*
X-62198D01*
X-61921Y-14721D01*
X-61508Y-15062D01*
X-61166Y-15475D01*
X-61037Y-15817D01*
X-61019Y-16082D01*
X-61461Y-16524D01*
G01X-61019Y-16082D02*
X-59387Y-17184D01*
G01X-61019Y-14102D02*
X-61196Y-13713D01*
X-61214Y-13448D01*
X-61119Y-13259D01*
X-60848Y-13177D01*
X-60489Y-13289D01*
X-60171Y-13536D01*
X-59905Y-13837D01*
X-59740Y-14143D01*
X-59622Y-14968D01*
X-59452Y-15457D01*
X-59086Y-16035D01*
X-58697Y-16494D01*
X-57955Y-15752D01*
G01X-67009Y-21776D02*
X-62634Y-17399D01*
X-60348Y-19685D01*
X-64724Y-24061D01*
X-67009Y-21776D01*
G01X-57366Y-23050D02*
X-61350Y-27034D01*
X-61689D01*
X-63585Y-25137D01*
Y-24826D01*
X-59535Y-20775D01*
X-59234D01*
X-57366Y-22643D01*
Y-23050D01*
G01X-65205Y-13339D02*
X-63178Y-11312D01*
X-62824Y-10817D01*
X-62683Y-10392D01*
X-62765Y-10121D01*
X-63036Y-10039D01*
X-63460Y-10180D01*
X-63955Y-10534D01*
X-65983Y-12561D01*
G01X-66200Y-11400D02*
X-66589Y-11577D01*
X-66855Y-11594D01*
X-67043Y-11500D01*
X-67126Y-11229D01*
X-67014Y-10870D01*
X-66766Y-10552D01*
X-66466Y-10286D01*
X-66159Y-10121D01*
X-65334Y-10004D01*
X-64845Y-9833D01*
X-64268Y-9467D01*
X-63808Y-9078D01*
X-64551Y-8336D01*
G01X-67201Y-2628D02*
X-67201Y-2617D01*
X-70066Y247D01*
X-69008Y1305D01*
X-69002Y1305D01*
G01X-72552Y28595D02*
X-70525Y26568D01*
X-70030Y26214D01*
X-69606Y26073D01*
X-69335Y26155D01*
X-69252Y26426D01*
X-69394Y26850D01*
X-69747Y27345D01*
X-71774Y29372D01*
G01X-67708Y27781D02*
X-70537Y30610D01*
X-69164Y27929D01*
X-68280Y28813D01*
G01X-60160Y25253D02*
X-64144Y29237D01*
X-64144Y29576D01*
X-62248Y31472D01*
X-61937Y31472D01*
X-57886Y27422D01*
Y27121D01*
X-59754Y25253D01*
X-60160D01*
G01X-56853Y28143D02*
X-61229Y32519D01*
X-58944Y34805D01*
X-54568Y30428D01*
X-56853Y28143D01*
G01X-65498Y35212D02*
X-65462Y35460D01*
X-65492Y35678D01*
X-65633Y35819D01*
X-65934Y35837D01*
X-66293Y35725D01*
X-66664Y35530D01*
X-67206Y35130D01*
X-67648Y34723D01*
X-68037Y34263D01*
X-68267Y33927D01*
X-68444Y33538D01*
X-68508Y33226D01*
X-68479Y33008D01*
X-68355Y32884D01*
X-68137Y32855D01*
X-67890Y32890D01*
X-67613Y32990D01*
G01X-65044Y34287D02*
X-64655Y34464D01*
X-64390Y34481D01*
X-64201Y34387D01*
X-64119Y34116D01*
X-64231Y33756D01*
X-64478Y33438D01*
X-64779Y33173D01*
X-65085Y33008D01*
X-65910Y32890D01*
X-66399Y32719D01*
X-66977Y32354D01*
X-67436Y31965D01*
X-66694Y31223D01*
G01X-65438Y29968D02*
X-62610Y32796D01*
X-65291Y31423D01*
X-64407Y30539D01*
G01X-57546Y80010D02*
X-59573Y77983D01*
X-59926Y77488D01*
X-60068Y77063D01*
X-59985Y76792D01*
X-59714Y76710D01*
X-59290Y76851D01*
X-58795Y77205D01*
X-56768Y79232D01*
G01X-56550Y78071D02*
X-56161Y78248D01*
X-55896Y78266D01*
X-55707Y78171D01*
X-55625Y77900D01*
X-55737Y77541D01*
X-55984Y77223D01*
X-56285Y76957D01*
X-56591Y76792D01*
X-57416Y76674D01*
X-57905Y76504D01*
X-58483Y76138D01*
X-58942Y75749D01*
X-58200Y75007D01*
G01X-55136Y76657D02*
X-54747Y76834D01*
X-54482Y76851D01*
X-54293Y76757D01*
X-54211Y76486D01*
X-54323Y76126D01*
X-54570Y75808D01*
X-54871Y75543D01*
X-55177Y75378D01*
X-56002Y75260D01*
X-56491Y75089D01*
X-57069Y74724D01*
X-57528Y74335D01*
X-56786Y73593D01*
G01X-67840Y80706D02*
X-67284Y81263D01*
X-53364Y67344D01*
X-53921Y66787D01*
G01X-55559Y-41932D02*
X-51252Y-46239D01*
G01D02*
X-57089Y-52076D01*
G01X-48906Y-29777D02*
X-48871Y-29530D01*
X-48900Y-29312D01*
X-49042Y-29170D01*
X-49342Y-29152D01*
X-49702Y-29264D01*
X-50073Y-29459D01*
X-50615Y-29860D01*
X-51057Y-30266D01*
X-51446Y-30726D01*
X-51676Y-31062D01*
X-51853Y-31451D01*
X-51917Y-31763D01*
X-51888Y-31981D01*
X-51764Y-32105D01*
X-51546Y-32134D01*
X-51299Y-32099D01*
X-51022Y-31999D01*
G01X-50474Y-33395D02*
X-47645Y-30567D01*
X-48423Y-30920D01*
G01X-50686Y-33183D02*
X-50262Y-33607D01*
G01X-49024Y-33996D02*
X-49154Y-34338D01*
X-49172Y-34603D01*
X-49060Y-34809D01*
X-48806Y-34874D01*
X-48494Y-34809D01*
X-48076Y-34568D01*
X-47681Y-34208D01*
X-47339Y-33796D01*
X-47192Y-33472D01*
X-47127Y-33159D01*
X-47203Y-32988D01*
X-47374Y-32912D01*
X-47722Y-32941D01*
X-46443Y-31769D01*
X-45966Y-32246D01*
G01X-42580Y-39770D02*
X-46564Y-35786D01*
Y-35447D01*
X-44668Y-33551D01*
X-44356D01*
X-40306Y-37602D01*
Y-37902D01*
X-42174Y-39770D01*
X-42580D01*
G01X-52394Y-25102D02*
X-55223Y-22273D01*
X-54781Y-21831D01*
X-54498D01*
X-54221Y-21932D01*
X-53809Y-22273D01*
X-53467Y-22686D01*
X-53337Y-23028D01*
X-53320Y-23293D01*
X-53762Y-23735D01*
G01X-53320Y-23293D02*
X-51687Y-24395D01*
G01X-50627Y-23334D02*
X-53455Y-20506D01*
X-53102Y-21283D01*
G01X-50839Y-23546D02*
X-50415Y-23122D01*
G01X-44299Y-14375D02*
X-39923Y-18751D01*
X-42209Y-21037D01*
X-46585Y-16661D01*
X-44299Y-14375D01*
G01X-57911Y-18039D02*
X-58159Y-18004D01*
X-58377Y-18033D01*
X-58518Y-18174D01*
X-58536Y-18475D01*
X-58424Y-18834D01*
X-58229Y-19206D01*
X-57829Y-19748D01*
X-57422Y-20190D01*
X-56963Y-20578D01*
X-56627Y-20808D01*
X-56238Y-20985D01*
X-55925Y-21050D01*
X-55707Y-21021D01*
X-55584Y-20897D01*
X-55554Y-20679D01*
X-55590Y-20431D01*
X-55690Y-20154D01*
G01X-55808Y-18764D02*
X-56014Y-18310D01*
X-56096Y-18015D01*
X-56049Y-17780D01*
X-55831Y-17750D01*
X-55554Y-17850D01*
X-55201Y-18062D01*
X-54853Y-18375D01*
X-54588Y-18675D01*
X-54376Y-19029D01*
X-54246Y-19371D01*
X-54276Y-19589D01*
X-54511Y-19636D01*
X-54918Y-19477D01*
X-55413Y-19123D01*
X-55902Y-18669D01*
X-56479Y-18021D01*
X-56756Y-17638D01*
X-56998Y-17220D01*
X-57110Y-16860D01*
X-57033Y-16690D01*
X-56815Y-16660D01*
X-56491Y-16807D01*
G01X-51164Y-17550D02*
G03I-943J0D01*
G01X-56350Y-13475D02*
X-56344D01*
X-53363Y-16456D01*
X-52413Y-15507D01*
G01X-44828Y22350D02*
X-46646Y22102D01*
G01D02*
X-50229Y25685D01*
G01D02*
X-50117Y27639D01*
G01X-53250Y24518D02*
X-56078Y27347D01*
X-55636Y27789D01*
X-55354D01*
X-55077Y27689D01*
X-54664Y27347D01*
X-54322Y26934D01*
X-54193Y26593D01*
X-54175Y26327D01*
X-54617Y25886D01*
G01X-54175Y26327D02*
X-52543Y25226D01*
G01X-51270Y26498D02*
X-54099Y29327D01*
X-52726Y26646D01*
X-51842Y27530D01*
G01X-50353Y13941D02*
X-53363Y16950D01*
X-54554Y15759D01*
G01X-51492Y33366D02*
X-51739Y33401D01*
X-51957Y33372D01*
X-52099Y33230D01*
X-52116Y32930D01*
X-52004Y32570D01*
X-51810Y32199D01*
X-51409Y31657D01*
X-51003Y31215D01*
X-50543Y30826D01*
X-50207Y30596D01*
X-49818Y30419D01*
X-49506Y30355D01*
X-49288Y30384D01*
X-49164Y30508D01*
X-49135Y30726D01*
X-49170Y30973D01*
X-49270Y31250D01*
G01X-47662Y32010D02*
X-50490Y34839D01*
X-49117Y32158D01*
X-48233Y33042D01*
G01X-46460Y33212D02*
X-46383Y33383D01*
X-46383Y33666D01*
X-46530Y33990D01*
X-46825Y34356D01*
X-47190Y34650D01*
X-47579Y34827D01*
X-47880Y34809D01*
X-48056Y34633D01*
X-48257Y34621D01*
X-48581Y34768D01*
X-48946Y35063D01*
X-49223Y35446D01*
X-49335Y35805D01*
X-49288Y36041D01*
X-49052Y36088D01*
X-48693Y35976D01*
X-48310Y35699D01*
X-48015Y35334D01*
X-47868Y35010D01*
X-47880Y34809D01*
X-48056Y34633D01*
X-48074Y34332D01*
X-47897Y33943D01*
X-47603Y33578D01*
X-47237Y33283D01*
X-46913Y33136D01*
X-46630D01*
X-46460Y33212D01*
G01X-50117Y27639D02*
X-47146Y30610D01*
G01X-44965Y49965D02*
X-44588Y49870D01*
X-44288Y49888D01*
X-44146Y50030D01*
X-44146Y50313D01*
X-44276Y50654D01*
X-44553Y51037D01*
X-44918Y51332D01*
X-45290Y51526D01*
X-45637Y51556D01*
X-45944Y51438D01*
X-46256Y51503D01*
X-46639Y51780D01*
X-46934Y52145D01*
X-47081Y52469D01*
X-47099Y52734D01*
X-46975Y52858D01*
X-46757Y52888D01*
X-46415Y52758D01*
G01X-46162Y53671D02*
X-43086Y51090D01*
X-45631Y54202D01*
X-42520Y51656D01*
X-45101Y54732D01*
G01X-41389Y52787D02*
X-44217Y55616D01*
X-43864Y54838D01*
G01X-41601Y52575D02*
X-41177Y52999D01*
G01X-56091Y50810D02*
X-46347Y41067D01*
X-31314Y56100D01*
X-41058Y65844D01*
X-56091Y50810D01*
G01X-32425Y-27149D02*
X-35253Y-29977D01*
X-34546Y-30684D01*
G01X-33273Y-31957D02*
X-30445Y-29129D01*
X-33126Y-30502D01*
X-32242Y-31386D01*
G01X-40155Y-24035D02*
X-35779Y-28411D01*
X-38065Y-30697D01*
X-42441Y-26321D01*
X-40155Y-24035D01*
G01X-36481Y-32631D02*
X-36443Y-32384D01*
X-36469Y-32166D01*
X-36609Y-32023D01*
X-36909Y-32001D01*
X-37270Y-32109D01*
X-37644Y-32299D01*
X-38191Y-32693D01*
X-38638Y-33094D01*
X-39032Y-33549D01*
X-39266Y-33882D01*
X-39448Y-34268D01*
X-39516Y-34580D01*
X-39489Y-34798D01*
X-39367Y-34924D01*
X-39150Y-34956D01*
X-38902Y-34923D01*
X-38624Y-34827D01*
G01X-38093Y-36230D02*
X-35230Y-33436D01*
X-36012Y-33780D01*
G01X-38302Y-36015D02*
X-37883Y-36444D01*
G01X-36486Y-37876D02*
X-33623Y-35082D01*
X-36321Y-36422D01*
X-35448Y-37317D01*
G01X-42808Y-27140D02*
X-38873Y-31173D01*
X-38877Y-31512D01*
X-40796Y-33384D01*
X-41108Y-33381D01*
X-45109Y-29281D01*
X-45105Y-28980D01*
X-43214Y-27135D01*
X-42808Y-27140D01*
G01X-39452Y-11322D02*
X-42281Y-14150D01*
X-41574Y-14857D01*
G01X-40478Y-15105D02*
X-40607Y-15447D01*
X-40625Y-15712D01*
X-40513Y-15918D01*
X-40260Y-15983D01*
X-39948Y-15918D01*
X-39529Y-15676D01*
X-39134Y-15317D01*
X-38792Y-14904D01*
X-38645Y-14580D01*
X-38580Y-14268D01*
X-38657Y-14097D01*
X-38828Y-14021D01*
X-39175Y-14050D01*
X-37897Y-12877D01*
X-37420Y-13355D01*
G01X-39594Y3193D02*
Y3181D01*
X-36659Y247D01*
Y242D01*
X-37659Y-758D01*
G01X-41857Y25321D02*
X-44828Y22350D01*
G01X-30740Y17552D02*
X-35116Y13176D01*
X-37402Y15462D01*
X-33026Y19838D01*
X-30740Y17552D01*
G01X-37377Y26285D02*
X-37624Y26320D01*
X-37842Y26291D01*
X-37984Y26149D01*
X-38002Y25849D01*
X-37890Y25489D01*
X-37695Y25118D01*
X-37294Y24576D01*
X-36888Y24134D01*
X-36428Y23745D01*
X-36092Y23515D01*
X-35703Y23338D01*
X-35391Y23274D01*
X-35173Y23303D01*
X-35049Y23427D01*
X-35020Y23645D01*
X-35055Y23892D01*
X-35155Y24169D01*
G01X-33759Y24717D02*
X-36587Y27546D01*
X-36234Y26768D01*
G01X-33971Y24505D02*
X-33547Y24929D01*
G01X-32975Y26161D02*
X-32616Y26049D01*
X-32380Y26096D01*
X-32333Y26332D01*
X-32492Y26738D01*
X-32828Y27251D01*
X-33217Y27711D01*
X-33735Y28229D01*
X-34195Y28618D01*
X-34660Y28907D01*
X-34955Y28989D01*
X-35173Y28960D01*
X-35220Y28724D01*
X-35138Y28430D01*
X-34926Y28076D01*
X-34584Y27664D01*
X-34218Y27369D01*
X-33800Y27127D01*
X-33505Y27045D01*
X-33335Y27121D01*
X-33287Y27357D01*
X-33417Y27699D01*
X-33735Y28229D01*
G01X-40610Y18978D02*
X-36626Y22962D01*
X-36286Y22962D01*
X-34391Y21066D01*
X-34390Y20754D01*
X-38441Y16704D01*
X-38742D01*
X-40610Y18572D01*
Y18978D01*
G01X-37701Y40679D02*
X-40529Y43507D01*
X-40176Y43861D01*
X-39893Y43861D01*
X-39598Y43778D01*
X-39227Y43584D01*
X-38826Y43325D01*
X-38337Y42871D01*
X-37884Y42382D01*
X-37624Y41981D01*
X-37430Y41610D01*
X-37347Y41315D01*
Y41032D01*
X-37701Y40679D01*
G01X-39080Y44957D02*
X-36251Y42128D01*
X-35544Y42836D01*
G01X-37615Y29563D02*
X-33834Y33344D01*
G01D02*
X-39124Y38633D01*
G01D02*
X-42904Y34852D01*
G01X-25775Y-64088D02*
X-21775D01*
Y-64713D01*
X-21975Y-64913D01*
X-22242Y-65038D01*
X-22775Y-65088D01*
X-23308Y-65038D01*
X-23642Y-64888D01*
X-23842Y-64713D01*
Y-64088D01*
G01Y-64713D02*
X-25775Y-65088D01*
G01X-24975Y-66038D02*
X-25442Y-66188D01*
X-25708Y-66388D01*
X-25775Y-66613D01*
X-25708Y-66813D01*
X-25375Y-67013D01*
X-24975Y-67138D01*
X-24575Y-67163D01*
X-24108Y-67113D01*
X-23775Y-66938D01*
X-23642Y-66763D01*
Y-66538D01*
G01Y-66763D02*
X-23442Y-66913D01*
X-23108Y-67038D01*
X-22708Y-67088D01*
X-22308Y-67038D01*
X-21975Y-66913D01*
X-21775Y-66688D01*
X-21842Y-66463D01*
X-22108Y-66238D01*
G01X-25775Y-68538D02*
X-24908Y-68588D01*
X-24175Y-68663D01*
X-23508Y-68763D01*
X-22775Y-68888D01*
X-21775Y-69088D01*
Y-68088D01*
G01X-20559Y-56391D02*
Y-62580D01*
X-23791D01*
Y-56391D01*
X-20559D01*
G01X-19908Y-63966D02*
X-15908D01*
Y-64591D01*
X-16108Y-64791D01*
X-16375Y-64916D01*
X-16908Y-64966D01*
X-17442Y-64916D01*
X-17775Y-64766D01*
X-17975Y-64591D01*
Y-63966D01*
G01Y-64591D02*
X-19908Y-64966D01*
G01X-19108Y-65916D02*
X-19575Y-66066D01*
X-19842Y-66266D01*
X-19908Y-66491D01*
X-19842Y-66691D01*
X-19508Y-66891D01*
X-19108Y-67016D01*
X-18708Y-67041D01*
X-18242Y-66991D01*
X-17909Y-66816D01*
X-17775Y-66641D01*
Y-66416D01*
G01Y-66641D02*
X-17575Y-66791D01*
X-17242Y-66916D01*
X-16842Y-66966D01*
X-16442Y-66916D01*
X-16108Y-66791D01*
X-15908Y-66566D01*
X-15975Y-66341D01*
X-16242Y-66116D01*
G01X-18242Y-67991D02*
X-17775Y-68166D01*
X-17508Y-68316D01*
X-17375Y-68516D01*
X-17508Y-68691D01*
X-17775Y-68816D01*
X-18175Y-68916D01*
X-18642Y-68941D01*
X-19042Y-68916D01*
X-19442Y-68816D01*
X-19775Y-68666D01*
X-19908Y-68491D01*
X-19775Y-68291D01*
X-19375Y-68116D01*
X-18775Y-68016D01*
X-18108Y-67991D01*
X-17242Y-68041D01*
X-16775Y-68116D01*
X-16308Y-68241D01*
X-15975Y-68416D01*
X-15908Y-68591D01*
X-16042Y-68766D01*
X-16375Y-68891D01*
G01X-16081Y-56420D02*
Y-62609D01*
X-19313D01*
Y-56420D01*
X-16081D01*
G01X-22918Y-42824D02*
G03X-27247I-2165J-2033D01*
G01D02*
X-27249Y-52666D01*
G03X-22917I2166J1916D01*
G01D02*
X-22918Y-42824D01*
G01X-17586Y-41122D02*
X-17386Y-40972D01*
X-17253Y-40797D01*
Y-40597D01*
X-17453Y-40372D01*
X-17786Y-40197D01*
X-18186Y-40072D01*
X-18853Y-39972D01*
X-19453Y-39947D01*
X-20053Y-39997D01*
X-20453Y-40072D01*
X-20853Y-40222D01*
X-21120Y-40397D01*
X-21253Y-40572D01*
Y-40747D01*
X-21120Y-40922D01*
X-20920Y-41072D01*
X-20653Y-41197D01*
G01Y-42022D02*
X-20986Y-42172D01*
X-21186Y-42347D01*
X-21253Y-42572D01*
X-21120Y-42797D01*
X-20853Y-42972D01*
X-20386Y-43097D01*
X-19853Y-43122D01*
X-19320Y-43072D01*
X-18986Y-42947D01*
X-18720Y-42772D01*
X-18653Y-42597D01*
X-18720Y-42422D01*
X-18986Y-42197D01*
X-17253Y-42272D01*
Y-42947D01*
G01X-17919Y-44097D02*
X-17520Y-44247D01*
X-17320Y-44422D01*
X-17253Y-44622D01*
X-17386Y-44872D01*
X-17720Y-45047D01*
X-18119Y-45097D01*
X-18520Y-45072D01*
X-18853Y-44972D01*
X-19520Y-44472D01*
X-19986Y-44247D01*
X-20653Y-44097D01*
X-21253Y-44047D01*
Y-45097D01*
G01X-18894Y-52075D02*
Y-46441D01*
X-18654Y-46201D01*
X-15973D01*
X-15753Y-46421D01*
Y-52150D01*
X-15965Y-52362D01*
X-18607D01*
X-18894Y-52075D01*
G01X-23819Y-35195D02*
X-23619Y-35045D01*
X-23486Y-34870D01*
Y-34670D01*
X-23686Y-34445D01*
X-24019Y-34270D01*
X-24419Y-34145D01*
X-25086Y-34045D01*
X-25686Y-34020D01*
X-26286Y-34070D01*
X-26686Y-34145D01*
X-27086Y-34295D01*
X-27353Y-34470D01*
X-27486Y-34645D01*
Y-34820D01*
X-27353Y-34995D01*
X-27153Y-35145D01*
X-26886Y-35270D01*
G01X-26686Y-36095D02*
X-27153Y-36245D01*
X-27419Y-36445D01*
X-27486Y-36670D01*
X-27419Y-36870D01*
X-27086Y-37070D01*
X-26686Y-37195D01*
X-26286Y-37220D01*
X-25819Y-37170D01*
X-25486Y-36995D01*
X-25352Y-36820D01*
Y-36595D01*
G01Y-36820D02*
X-25153Y-36970D01*
X-24819Y-37095D01*
X-24419Y-37145D01*
X-24019Y-37095D01*
X-23686Y-36970D01*
X-23486Y-36745D01*
X-23553Y-36520D01*
X-23819Y-36295D01*
G01X-26886Y-38095D02*
X-27219Y-38245D01*
X-27419Y-38420D01*
X-27486Y-38645D01*
X-27353Y-38870D01*
X-27086Y-39045D01*
X-26619Y-39170D01*
X-26086Y-39195D01*
X-25553Y-39145D01*
X-25219Y-39020D01*
X-24953Y-38845D01*
X-24886Y-38670D01*
X-24953Y-38495D01*
X-25219Y-38270D01*
X-23486Y-38345D01*
Y-39020D01*
G01X-28803Y17638D02*
X-31632Y20466D01*
X-31190Y20908D01*
X-30907D01*
X-30630Y20808D01*
X-30218Y20466D01*
X-29876Y20054D01*
X-29746Y19712D01*
X-29728Y19447D01*
X-30170Y19005D01*
G01X-29728Y19447D02*
X-28096Y18345D01*
G01X-27666Y19435D02*
X-27307Y19323D01*
X-27071Y19370D01*
X-27024Y19606D01*
X-27183Y20012D01*
X-27519Y20525D01*
X-27908Y20985D01*
X-28426Y21503D01*
X-28886Y21892D01*
X-29351Y22181D01*
X-29646Y22263D01*
X-29864Y22234D01*
X-29911Y21998D01*
X-29829Y21704D01*
X-29617Y21350D01*
X-29275Y20937D01*
X-28909Y20643D01*
X-28491Y20401D01*
X-28196Y20319D01*
X-28025Y20395D01*
X-27978Y20631D01*
X-28108Y20973D01*
X-28426Y21503D01*
G01X24625Y48709D02*
X-24587Y48709D01*
Y75875D01*
X24625D01*
Y48709D01*
G01X-14166Y83082D02*
X-18166D01*
G01X-14166Y83657D02*
Y82507D01*
G01X-18166Y81607D02*
X-14166Y80557D01*
G01Y81607D02*
X-18166Y80557D01*
G01Y79632D02*
X-14166D01*
Y79132D01*
X-14366Y78932D01*
X-14632Y78782D01*
X-15032Y78657D01*
X-15499Y78557D01*
X-16166Y78532D01*
X-16832Y78557D01*
X-17299Y78657D01*
X-17699Y78782D01*
X-17966Y78932D01*
X-18166Y79132D01*
Y79632D01*
G01X-26990Y77910D02*
X-26865Y77510D01*
X-26715Y77243D01*
X-26540Y77110D01*
X-26340Y77243D01*
X-26190Y77510D01*
X-26040Y77910D01*
X-25990Y78443D01*
Y81110D01*
G01X-25040Y77710D02*
X-24890Y77377D01*
X-24715Y77177D01*
X-24490Y77110D01*
X-24265Y77243D01*
X-24090Y77510D01*
X-23965Y77977D01*
X-23940Y78510D01*
X-23990Y79043D01*
X-24115Y79377D01*
X-24290Y79643D01*
X-24465Y79710D01*
X-24640Y79643D01*
X-24865Y79377D01*
X-24790Y81110D01*
X-24115D01*
G01X-22490Y77110D02*
Y81110D01*
X-22790Y80310D01*
G01Y77110D02*
X-22190D01*
G01X-6591Y-71286D02*
G03Y-75616I2033J-2165D01*
G01D02*
X3252Y-75617D01*
G03Y-71285I-1916J2166D01*
G01D02*
X-6591Y-71286D01*
G01X-8909Y-68468D02*
X-8709Y-68318D01*
X-8575Y-68143D01*
Y-67943D01*
X-8775Y-67718D01*
X-9109Y-67543D01*
X-9509Y-67418D01*
X-10175Y-67318D01*
X-10775Y-67293D01*
X-11375Y-67343D01*
X-11775Y-67418D01*
X-12175Y-67568D01*
X-12442Y-67743D01*
X-12575Y-67918D01*
Y-68093D01*
X-12442Y-68268D01*
X-12242Y-68418D01*
X-11975Y-68543D01*
G01X-11775Y-69368D02*
X-12242Y-69518D01*
X-12509Y-69718D01*
X-12575Y-69943D01*
X-12509Y-70143D01*
X-12175Y-70343D01*
X-11775Y-70468D01*
X-11375Y-70493D01*
X-10909Y-70443D01*
X-10575Y-70268D01*
X-10442Y-70093D01*
Y-69868D01*
G01Y-70093D02*
X-10242Y-70243D01*
X-9909Y-70368D01*
X-9509Y-70418D01*
X-9109Y-70368D01*
X-8775Y-70243D01*
X-8575Y-70018D01*
X-8642Y-69793D01*
X-8909Y-69568D01*
G01X-9242Y-71443D02*
X-8842Y-71593D01*
X-8642Y-71768D01*
X-8575Y-71968D01*
X-8709Y-72218D01*
X-9042Y-72393D01*
X-9442Y-72443D01*
X-9842Y-72418D01*
X-10175Y-72318D01*
X-10842Y-71818D01*
X-11309Y-71593D01*
X-11975Y-71443D01*
X-12575Y-71393D01*
Y-72443D01*
G01X-12782Y-55241D02*
X-12783Y-65084D01*
G03X-8451I2166J1916D01*
G01D02*
X-8452Y-55241D01*
G01X-6108Y-59556D02*
X4621D01*
G01Y-65068D02*
X-6797D01*
G01D02*
Y-59556D01*
G01D02*
X-5024D01*
G01X-4172Y-63542D02*
G03I-656J0D01*
G01X-8452Y-55241D02*
G03X-12782I-2165J-2033D01*
G01X-15600Y-39980D02*
X-11600D01*
Y-40605D01*
X-11800Y-40805D01*
X-12067Y-40930D01*
X-12600Y-40980D01*
X-13134Y-40930D01*
X-13467Y-40780D01*
X-13667Y-40605D01*
Y-39980D01*
G01Y-40605D02*
X-15600Y-40980D01*
G01X-14800Y-41930D02*
X-15267Y-42080D01*
X-15534Y-42280D01*
X-15600Y-42505D01*
X-15534Y-42705D01*
X-15200Y-42905D01*
X-14800Y-43030D01*
X-14400Y-43055D01*
X-13934Y-43005D01*
X-13600Y-42830D01*
X-13467Y-42655D01*
Y-42430D01*
G01Y-42655D02*
X-13267Y-42805D01*
X-12934Y-42930D01*
X-12534Y-42980D01*
X-12134Y-42930D01*
X-11800Y-42805D01*
X-11600Y-42580D01*
X-11667Y-42355D01*
X-11934Y-42130D01*
G01X-15000Y-43930D02*
X-15334Y-44080D01*
X-15534Y-44255D01*
X-15600Y-44480D01*
X-15467Y-44705D01*
X-15200Y-44880D01*
X-14734Y-45005D01*
X-14200Y-45030D01*
X-13667Y-44980D01*
X-13334Y-44855D01*
X-13067Y-44680D01*
X-13000Y-44505D01*
X-13067Y-44330D01*
X-13334Y-44105D01*
X-11600Y-44180D01*
Y-44855D01*
G01X-11440Y-46179D02*
Y-52368D01*
X-14672D01*
Y-46179D01*
X-11440D01*
G01X-10589Y-40042D02*
X-6589D01*
Y-40667D01*
X-6789Y-40867D01*
X-7056Y-40992D01*
X-7589Y-41042D01*
X-8123Y-40992D01*
X-8456Y-40842D01*
X-8656Y-40667D01*
Y-40042D01*
G01Y-40667D02*
X-10589Y-41042D01*
G01X-9789Y-41992D02*
X-10256Y-42142D01*
X-10523Y-42342D01*
X-10589Y-42566D01*
X-10523Y-42766D01*
X-10189Y-42966D01*
X-9789Y-43092D01*
X-9389Y-43116D01*
X-8923Y-43066D01*
X-8589Y-42892D01*
X-8456Y-42716D01*
Y-42492D01*
G01Y-42716D02*
X-8256Y-42866D01*
X-7923Y-42992D01*
X-7523Y-43042D01*
X-7123Y-42992D01*
X-6789Y-42866D01*
X-6589Y-42642D01*
X-6656Y-42416D01*
X-6923Y-42192D01*
G01X-10589Y-44842D02*
X-6589D01*
X-9456Y-43916D01*
Y-45167D01*
G01X-7151Y-46237D02*
Y-52426D01*
X-10383D01*
Y-46237D01*
X-7151D01*
G01X-2278Y-40878D02*
X-2078Y-40728D01*
X-1945Y-40553D01*
Y-40353D01*
X-2145Y-40128D01*
X-2478Y-39953D01*
X-2878Y-39828D01*
X-3545Y-39728D01*
X-4145Y-39703D01*
X-4745Y-39753D01*
X-5145Y-39828D01*
X-5545Y-39978D01*
X-5812Y-40153D01*
X-5945Y-40328D01*
Y-40503D01*
X-5812Y-40678D01*
X-5612Y-40828D01*
X-5345Y-40953D01*
G01X-5145Y-41778D02*
X-5612Y-41928D01*
X-5878Y-42128D01*
X-5945Y-42353D01*
X-5878Y-42553D01*
X-5545Y-42753D01*
X-5145Y-42878D01*
X-4745Y-42903D01*
X-4278Y-42853D01*
X-3945Y-42678D01*
X-3812Y-42503D01*
Y-42278D01*
G01Y-42503D02*
X-3612Y-42653D01*
X-3278Y-42778D01*
X-2878Y-42828D01*
X-2478Y-42778D01*
X-2145Y-42653D01*
X-1945Y-42428D01*
X-2012Y-42203D01*
X-2278Y-41978D01*
G01X-5945Y-44278D02*
X-5078Y-44328D01*
X-4345Y-44403D01*
X-3678Y-44503D01*
X-2945Y-44628D01*
X-1945Y-44828D01*
Y-43828D01*
G01X-6247Y-52118D02*
Y-46485D01*
X-6006Y-46245D01*
X-3325D01*
X-3105Y-46465D01*
Y-52193D01*
X-3317Y-52406D01*
X-5960D01*
X-6247Y-52118D01*
G01X-17610Y29782D02*
Y33782D01*
X-16985D01*
X-16785Y33582D01*
X-16660Y33316D01*
X-16610Y32782D01*
X-16660Y32249D01*
X-16810Y31916D01*
X-16985Y31716D01*
X-17610D01*
G01X-16985D02*
X-16610Y29782D01*
G01X-15635Y30316D02*
X-15435Y29982D01*
X-15210Y29782D01*
X-15010D01*
X-14810Y29982D01*
X-14660Y30316D01*
X-14585Y30782D01*
X-14635Y31249D01*
X-14760Y31649D01*
X-14985Y31916D01*
X-15285Y32049D01*
X-15460Y32316D01*
X-15535Y32782D01*
X-15485Y33249D01*
X-15360Y33582D01*
X-15185Y33782D01*
X-15010D01*
X-14835Y33649D01*
X-14685Y33316D01*
G01X-13110Y33782D02*
Y29782D01*
G01X-13685Y33782D02*
X-12535D01*
G01X-9736Y44634D02*
Y30854D01*
X11523D01*
Y44634D01*
X-9736D01*
G01X-10527Y83430D02*
X-6527D01*
Y82805D01*
X-6727Y82605D01*
X-6994Y82480D01*
X-7527Y82430D01*
X-8060Y82480D01*
X-8394Y82630D01*
X-8594Y82805D01*
Y83430D01*
G01Y82805D02*
X-10527Y82430D01*
G01Y81455D02*
X-6527Y80405D01*
G01Y81455D02*
X-10527Y80405D01*
G01Y79480D02*
X-6527D01*
Y78980D01*
X-6727Y78780D01*
X-6994Y78630D01*
X-7394Y78505D01*
X-7860Y78405D01*
X-8527Y78380D01*
X-9194Y78405D01*
X-9660Y78505D01*
X-10060Y78630D01*
X-10327Y78780D01*
X-10527Y78980D01*
Y79480D01*
G01X9940Y88277D02*
Y87490D01*
X-9745D01*
Y88277D01*
G01Y106387D02*
Y107175D01*
X9940D01*
Y106387D01*
G01X9318Y-70896D02*
X9168Y-70696D01*
X8993Y-70562D01*
X8793D01*
X8568Y-70762D01*
X8393Y-71096D01*
X8268Y-71496D01*
X8168Y-72162D01*
X8143Y-72762D01*
X8193Y-73362D01*
X8268Y-73762D01*
X8418Y-74162D01*
X8593Y-74429D01*
X8768Y-74562D01*
X8943D01*
X9118Y-74429D01*
X9268Y-74229D01*
X9393Y-73962D01*
G01X10218Y-73762D02*
X10368Y-74229D01*
X10568Y-74496D01*
X10793Y-74562D01*
X10993Y-74496D01*
X11193Y-74162D01*
X11318Y-73762D01*
X11343Y-73362D01*
X11293Y-72896D01*
X11118Y-72562D01*
X10943Y-72429D01*
X10718D01*
G01X10943D02*
X11093Y-72229D01*
X11218Y-71896D01*
X11268Y-71496D01*
X11218Y-71096D01*
X11093Y-70762D01*
X10868Y-70562D01*
X10643Y-70629D01*
X10418Y-70896D01*
G01X12768Y-74562D02*
Y-70562D01*
X12468Y-71362D01*
G01Y-74562D02*
X13068D01*
G01X7278Y-69382D02*
G03X11608I2165J2033D01*
G01X7277Y-59539D02*
X7278Y-69382D01*
G01X11608D02*
X11609Y-59539D01*
G03X7277I-2166J-1916D01*
G01X713Y-60646D02*
X-2154D01*
X-2754Y-60746D01*
X-3154Y-60946D01*
X-3287Y-61196D01*
X-3154Y-61446D01*
X-2754Y-61646D01*
X-2154Y-61746D01*
X713D01*
G01X-3287Y-63196D02*
X-3220Y-63371D01*
X-3020Y-63571D01*
X-2687Y-63696D01*
X-2220Y-63746D01*
X-1754Y-63696D01*
X-1354Y-63546D01*
X-1153Y-63321D01*
Y-63071D01*
X-1020Y-62921D01*
X-687Y-62796D01*
X-220Y-62746D01*
X246Y-62821D01*
X580Y-62996D01*
X713Y-63196D01*
X580Y-63396D01*
X246Y-63571D01*
X-220Y-63646D01*
X-687Y-63596D01*
X-1020Y-63471D01*
X-1153Y-63321D01*
Y-63071D01*
X-1354Y-62846D01*
X-1754Y-62696D01*
X-2220Y-62646D01*
X-2687Y-62696D01*
X-3020Y-62821D01*
X-3220Y-63021D01*
X-3287Y-63196D01*
G01X4621Y-59556D02*
Y-65068D01*
G01X15866Y-49457D02*
X6023Y-49456D01*
G03Y-53788I1916J-2166D01*
G01D02*
X15866Y-53787D01*
G01X2794Y-41092D02*
X2994Y-40942D01*
X3127Y-40767D01*
Y-40567D01*
X2927Y-40342D01*
X2594Y-40167D01*
X2194Y-40042D01*
X1527Y-39942D01*
X927Y-39917D01*
X327Y-39967D01*
X-73Y-40042D01*
X-473Y-40192D01*
X-740Y-40367D01*
X-873Y-40542D01*
Y-40717D01*
X-740Y-40892D01*
X-540Y-41042D01*
X-273Y-41166D01*
G01X-73Y-41992D02*
X-540Y-42142D01*
X-806Y-42342D01*
X-873Y-42566D01*
X-806Y-42766D01*
X-473Y-42966D01*
X-73Y-43092D01*
X327Y-43116D01*
X794Y-43066D01*
X1127Y-42892D01*
X1260Y-42716D01*
Y-42492D01*
G01Y-42716D02*
X1460Y-42866D01*
X1794Y-42992D01*
X2194Y-43042D01*
X2594Y-42992D01*
X2927Y-42866D01*
X3127Y-42642D01*
X3060Y-42416D01*
X2794Y-42192D01*
G01X794Y-44066D02*
X1260Y-44242D01*
X1527Y-44392D01*
X1660Y-44592D01*
X1527Y-44766D01*
X1260Y-44892D01*
X860Y-44992D01*
X394Y-45017D01*
X-6Y-44992D01*
X-406Y-44892D01*
X-740Y-44742D01*
X-873Y-44566D01*
X-740Y-44366D01*
X-340Y-44192D01*
X260Y-44092D01*
X927Y-44066D01*
X1794Y-44116D01*
X2260Y-44192D01*
X2727Y-44316D01*
X3060Y-44492D01*
X3127Y-44666D01*
X2994Y-44842D01*
X2660Y-44967D01*
G01X-2147Y-52089D02*
Y-46456D01*
X-1907Y-46215D01*
X774D01*
X995Y-46436D01*
Y-52164D01*
X782Y-52377D01*
X-1860D01*
X-2147Y-52089D01*
G01X-1502Y36396D02*
X-1302Y36062D01*
X-1077Y35862D01*
X-877D01*
X-677Y36062D01*
X-527Y36396D01*
X-452Y36862D01*
X-502Y37329D01*
X-627Y37729D01*
X-852Y37996D01*
X-1152Y38129D01*
X-1327Y38396D01*
X-1402Y38862D01*
X-1352Y39329D01*
X-1227Y39662D01*
X-1052Y39862D01*
X-877D01*
X-702Y39729D01*
X-552Y39396D01*
G01X273Y39862D02*
X623Y35862D01*
X1023Y39862D01*
X1423Y35862D01*
X1773Y39862D01*
G01X2548Y39196D02*
X2698Y39596D01*
X2873Y39796D01*
X3073Y39862D01*
X3323Y39729D01*
X3498Y39396D01*
X3548Y38996D01*
X3523Y38596D01*
X3423Y38262D01*
X2923Y37596D01*
X2698Y37129D01*
X2548Y36462D01*
X2498Y35862D01*
X3548D01*
G01X6339Y83327D02*
X10339D01*
Y82827D01*
X10139Y82627D01*
X9872Y82477D01*
X9472Y82352D01*
X9006Y82252D01*
X8339Y82227D01*
X7672Y82252D01*
X7206Y82352D01*
X6806Y82477D01*
X6539Y82627D01*
X6339Y82827D01*
Y83327D01*
G01X10339Y80777D02*
X6339D01*
G01X10339Y81352D02*
Y80202D01*
G01X6339Y79277D02*
X10339D01*
Y78652D01*
X10139Y78452D01*
X9872Y78327D01*
X9339Y78277D01*
X8806Y78327D01*
X8472Y78477D01*
X8272Y78652D01*
Y79277D01*
G01Y78652D02*
X6339Y78277D01*
G01X-2548Y75843D02*
Y73694D01*
X-2489Y73635D01*
X1791D01*
Y75670D01*
X1771Y75690D01*
G01X-2842Y100909D02*
Y98042D01*
X-2742Y97442D01*
X-2542Y97042D01*
X-2292Y96909D01*
X-2042Y97042D01*
X-1842Y97442D01*
X-1742Y98042D01*
Y100909D01*
G01X-292Y96909D02*
Y100909D01*
X-592Y100109D01*
G01Y96909D02*
X8D01*
G01X1708D02*
X1883Y96976D01*
X2083Y97176D01*
X2208Y97509D01*
X2258Y97976D01*
X2208Y98442D01*
X2058Y98842D01*
X1833Y99043D01*
X1583D01*
X1433Y99176D01*
X1308Y99509D01*
X1258Y99976D01*
X1333Y100442D01*
X1508Y100776D01*
X1708Y100909D01*
X1908Y100776D01*
X2083Y100442D01*
X2158Y99976D01*
X2108Y99509D01*
X1983Y99176D01*
X1833Y99043D01*
X1583D01*
X1358Y98842D01*
X1208Y98442D01*
X1158Y97976D01*
X1208Y97509D01*
X1333Y97176D01*
X1533Y96976D01*
X1708Y96909D01*
G01X29179Y-95818D02*
X28622Y-96374D01*
X14703Y-82455D01*
X15260Y-81898D01*
G01X16390Y-61807D02*
X16590Y-61657D01*
X16724Y-61482D01*
Y-61282D01*
X16524Y-61057D01*
X16190Y-60882D01*
X15790Y-60757D01*
X15124Y-60657D01*
X14524Y-60632D01*
X13924Y-60682D01*
X13524Y-60757D01*
X13124Y-60907D01*
X12857Y-61082D01*
X12724Y-61257D01*
Y-61432D01*
X12857Y-61607D01*
X13057Y-61757D01*
X13324Y-61882D01*
G01X13524Y-62707D02*
X13057Y-62857D01*
X12790Y-63057D01*
X12724Y-63282D01*
X12790Y-63482D01*
X13124Y-63682D01*
X13524Y-63807D01*
X13924Y-63832D01*
X14390Y-63782D01*
X14724Y-63607D01*
X14857Y-63432D01*
Y-63207D01*
G01Y-63432D02*
X15057Y-63582D01*
X15390Y-63707D01*
X15790Y-63757D01*
X16190Y-63707D01*
X16524Y-63582D01*
X16724Y-63357D01*
X16657Y-63132D01*
X16390Y-62907D01*
G01X13524Y-64707D02*
X13057Y-64857D01*
X12790Y-65057D01*
X12724Y-65282D01*
X12790Y-65482D01*
X13124Y-65682D01*
X13524Y-65807D01*
X13924Y-65832D01*
X14390Y-65782D01*
X14724Y-65607D01*
X14857Y-65432D01*
Y-65207D01*
G01Y-65432D02*
X15057Y-65582D01*
X15390Y-65707D01*
X15790Y-65757D01*
X16190Y-65707D01*
X16524Y-65582D01*
X16724Y-65357D01*
X16657Y-65132D01*
X16390Y-64907D01*
G01X19851Y-49571D02*
X19701Y-49371D01*
X19526Y-49237D01*
X19326D01*
X19101Y-49437D01*
X18926Y-49771D01*
X18801Y-50171D01*
X18701Y-50837D01*
X18676Y-51437D01*
X18726Y-52037D01*
X18801Y-52437D01*
X18951Y-52837D01*
X19126Y-53104D01*
X19301Y-53237D01*
X19476D01*
X19651Y-53104D01*
X19801Y-52904D01*
X19926Y-52637D01*
G01X20751Y-52437D02*
X20901Y-52904D01*
X21101Y-53171D01*
X21326Y-53237D01*
X21526Y-53171D01*
X21726Y-52837D01*
X21851Y-52437D01*
X21876Y-52037D01*
X21826Y-51571D01*
X21651Y-51237D01*
X21476Y-51104D01*
X21251D01*
G01X21476D02*
X21626Y-50904D01*
X21751Y-50571D01*
X21801Y-50171D01*
X21751Y-49771D01*
X21626Y-49437D01*
X21401Y-49237D01*
X21176Y-49304D01*
X20951Y-49571D01*
G01X23601Y-53237D02*
Y-49237D01*
X22676Y-52104D01*
X23926D01*
G01X15866Y-53787D02*
G03Y-49457I-2033J2165D01*
G01X14619Y83369D02*
X18619D01*
Y82744D01*
X18419Y82544D01*
X18153Y82419D01*
X17619Y82369D01*
X17086Y82419D01*
X16753Y82569D01*
X16553Y82744D01*
Y83369D01*
G01Y82744D02*
X14619Y82369D01*
G01X18619Y80869D02*
X14619D01*
G01X18619Y81444D02*
Y80294D01*
G01X15153Y79394D02*
X14819Y79194D01*
X14619Y78969D01*
Y78769D01*
X14819Y78569D01*
X15153Y78419D01*
X15619Y78344D01*
X16086Y78394D01*
X16486Y78519D01*
X16753Y78744D01*
X16886Y79044D01*
X17153Y79219D01*
X17619Y79294D01*
X18086Y79244D01*
X18419Y79119D01*
X18619Y78944D01*
Y78769D01*
X18486Y78594D01*
X18153Y78444D01*
G01X18530Y94167D02*
G03X22860I2165J2033D01*
G01X18529Y104010D02*
X18530Y94167D01*
G01X22860D02*
X22861Y104010D01*
G03X18529I-2166J-1916D01*
G01X30345Y-67068D02*
X37306Y-74027D01*
G01X28065Y-69092D02*
X28622Y-68536D01*
X42542Y-82455D01*
X41985Y-83012D01*
G01X40368Y-70965D02*
X33408Y-64004D01*
G03X30345Y-67068I-177J-2887D01*
G01X31310Y39428D02*
X31116Y39057D01*
X31033Y38762D01*
X31063Y38544D01*
X31299Y38497D01*
X31593Y38580D01*
X31982Y38756D01*
X32395Y39098D01*
X34280Y40984D01*
G01X32548Y37908D02*
X32418Y37566D01*
X32400Y37301D01*
X32512Y37095D01*
X32766Y37030D01*
X33078Y37095D01*
X33496Y37336D01*
X33891Y37696D01*
X34233Y38108D01*
X34380Y38432D01*
X34445Y38745D01*
X34369Y38915D01*
X34198Y38992D01*
X33850Y38963D01*
X35129Y40135D01*
X35606Y39658D01*
G01X36755Y38509D02*
X36520Y38556D01*
X36178Y38426D01*
X35824Y38214D01*
X35394Y37890D01*
X34952Y37484D01*
X34545Y37042D01*
X34221Y36612D01*
X34009Y36258D01*
X33880Y35916D01*
X33927Y35681D01*
X34162Y35633D01*
X34504Y35763D01*
X34858Y35975D01*
X35288Y36299D01*
X35730Y36706D01*
X36136Y37148D01*
X36461Y37578D01*
X36673Y37931D01*
X36802Y38273D01*
X36755Y38509D01*
G01X31672Y64811D02*
X32026Y64458D01*
X31177Y63609D01*
X30788Y63432D01*
X30476Y63368D01*
X30205Y63450D01*
X30123Y63721D01*
X30187Y64033D01*
X30364Y64422D01*
X30623Y64823D01*
X30965Y65236D01*
X31295Y65566D01*
X31613Y65813D01*
X32014Y66072D01*
X32403Y66249D01*
X32697Y66332D01*
X32980D01*
X33104Y66208D01*
X33151Y65972D01*
X33069Y65678D01*
G01X31160Y62496D02*
X33988Y65324D01*
X31973Y61682D01*
X34801Y64511D01*
G01X32591Y61064D02*
X35420Y63892D01*
X35773Y63539D01*
X35773Y63256D01*
X35691Y62961D01*
X35496Y62590D01*
X35237Y62189D01*
X34783Y61700D01*
X34294Y61246D01*
X33894Y60987D01*
X33522Y60792D01*
X33228Y60710D01*
X32945D01*
X32591Y61064D01*
G01X28307Y99765D02*
X28507Y99915D01*
X28640Y100090D01*
Y100290D01*
X28440Y100515D01*
X28107Y100690D01*
X27707Y100815D01*
X27040Y100915D01*
X26440Y100940D01*
X25840Y100890D01*
X25440Y100815D01*
X25040Y100665D01*
X24774Y100490D01*
X24640Y100315D01*
Y100140D01*
X24774Y99965D01*
X24974Y99815D01*
X25240Y99690D01*
G01Y98865D02*
X24907Y98715D01*
X24707Y98540D01*
X24640Y98315D01*
X24774Y98090D01*
X25040Y97915D01*
X25507Y97790D01*
X26040Y97765D01*
X26574Y97815D01*
X26907Y97940D01*
X27174Y98115D01*
X27240Y98290D01*
X27174Y98465D01*
X26907Y98690D01*
X28640Y98615D01*
Y97940D01*
G01X24640Y96365D02*
X25507Y96315D01*
X26240Y96240D01*
X26907Y96140D01*
X27640Y96015D01*
X28640Y95815D01*
Y96815D01*
G01X46023Y-79231D02*
X43996Y-81258D01*
X43642Y-81753D01*
X43501Y-82177D01*
X43584Y-82448D01*
X43855Y-82530D01*
X44279Y-82389D01*
X44774Y-82035D01*
X46801Y-80008D01*
G01X44998Y-83862D02*
X47826Y-81034D01*
X47048Y-81387D01*
G01X44786Y-83650D02*
X45210Y-84074D01*
G01X46377Y-85241D02*
X47025Y-84664D01*
X47596Y-84198D01*
X48138Y-83797D01*
X48745Y-83367D01*
X49594Y-82802D01*
X48887Y-82094D01*
G01X37306Y-74027D02*
G03X40368Y-70965I93J2968D01*
G01X55896Y-52479D02*
X48935Y-59438D01*
G03X51999Y-62502I2887J-177D01*
G01X40514Y-67271D02*
X40478Y-67519D01*
X40508Y-67737D01*
X40649Y-67878D01*
X40950Y-67896D01*
X41309Y-67784D01*
X41680Y-67590D01*
X42222Y-67189D01*
X42664Y-66782D01*
X43053Y-66323D01*
X43283Y-65987D01*
X43460Y-65598D01*
X43525Y-65286D01*
X43495Y-65068D01*
X43371Y-64944D01*
X43154Y-64914D01*
X42906Y-64950D01*
X42629Y-65050D01*
G01X42046Y-64466D02*
X42175Y-64125D01*
X42193Y-63860D01*
X42081Y-63653D01*
X41828Y-63588D01*
X41516Y-63653D01*
X41097Y-63895D01*
X40702Y-64254D01*
X40361Y-64667D01*
X40213Y-64991D01*
X40148Y-65303D01*
X40225Y-65474D01*
X40396Y-65551D01*
X40743Y-65521D01*
X39465Y-66694D01*
X38988Y-66217D01*
G01X40490Y-63194D02*
X40714Y-62758D01*
X40761Y-62428D01*
X40649Y-62222D01*
X40461Y-62127D01*
X40084Y-62221D01*
X39712Y-62416D01*
X39412Y-62681D01*
X39117Y-63046D01*
X39005Y-63406D01*
X39035Y-63624D01*
X39194Y-63783D01*
G01X39035Y-63624D02*
X38787Y-63659D01*
X38463Y-63807D01*
X38145Y-64054D01*
X37897Y-64372D01*
X37750Y-64696D01*
X37768Y-64997D01*
X37974Y-65109D01*
X38322Y-65079D01*
G01X37551Y-11742D02*
X37401Y-11542D01*
X37226Y-11409D01*
X37026D01*
X36801Y-11609D01*
X36626Y-11942D01*
X36501Y-12342D01*
X36401Y-13009D01*
X36376Y-13609D01*
X36426Y-14209D01*
X36501Y-14609D01*
X36651Y-15009D01*
X36826Y-15276D01*
X37001Y-15409D01*
X37176D01*
X37351Y-15276D01*
X37501Y-15076D01*
X37626Y-14809D01*
G01X38451D02*
X38601Y-15142D01*
X38776Y-15342D01*
X39001Y-15409D01*
X39226Y-15276D01*
X39401Y-15009D01*
X39526Y-14542D01*
X39551Y-14009D01*
X39501Y-13475D01*
X39376Y-13142D01*
X39201Y-12876D01*
X39026Y-12809D01*
X38851Y-12876D01*
X38626Y-13142D01*
X38701Y-11409D01*
X39376D01*
G01X41001D02*
X40801Y-11542D01*
X40651Y-11876D01*
X40551Y-12275D01*
X40476Y-12809D01*
X40451Y-13409D01*
X40476Y-14009D01*
X40551Y-14542D01*
X40651Y-14942D01*
X40801Y-15276D01*
X41001Y-15409D01*
X41201Y-15276D01*
X41351Y-14942D01*
X41451Y-14542D01*
X41526Y-14009D01*
X41551Y-13409D01*
X41526Y-12809D01*
X41451Y-12275D01*
X41351Y-11876D01*
X41201Y-11542D01*
X41001Y-11409D01*
G01X48694Y-17398D02*
X44493D01*
G01D02*
X43032Y-16289D01*
G01D02*
Y-11221D01*
G01X44925Y-6271D02*
Y19989D01*
X55555D01*
Y-6271D01*
X44925D01*
G01X43032Y-11221D02*
X44493Y-9919D01*
G01D02*
X48694D01*
G01X47673Y26803D02*
Y23936D01*
X47773Y23336D01*
X47973Y22936D01*
X48223Y22803D01*
X48473Y22936D01*
X48673Y23336D01*
X48773Y23936D01*
Y26803D01*
G01X50223Y22803D02*
Y26803D01*
X49923Y26003D01*
G01Y22803D02*
X50523D01*
G01X52223D02*
Y26803D01*
X51923Y26003D01*
G01Y22803D02*
X52523D01*
G01X67766Y-80543D02*
X67209Y-81100D01*
X53290Y-67181D01*
X53847Y-66624D01*
G01X51999Y-62502D02*
X58958Y-55541D01*
G01X59734Y-50619D02*
X59486Y-50583D01*
X59268Y-50613D01*
X59127Y-50754D01*
X59109Y-51055D01*
X59221Y-51414D01*
X59416Y-51786D01*
X59816Y-52328D01*
X60223Y-52770D01*
X60683Y-53158D01*
X61018Y-53388D01*
X61408Y-53565D01*
X61720Y-53630D01*
X61938Y-53600D01*
X62062Y-53477D01*
X62091Y-53259D01*
X62056Y-53011D01*
X61956Y-52734D01*
G01X62539Y-52151D02*
X62880Y-52280D01*
X63146Y-52298D01*
X63352Y-52186D01*
X63417Y-51933D01*
X63352Y-51621D01*
X63110Y-51202D01*
X62751Y-50807D01*
X62338Y-50466D01*
X62014Y-50318D01*
X61702Y-50254D01*
X61531Y-50330D01*
X61455Y-50501D01*
X61484Y-50849D01*
X60311Y-49570D01*
X60789Y-49093D01*
G01X63953Y-50737D02*
X64295Y-50866D01*
X64560Y-50884D01*
X64766Y-50772D01*
X64831Y-50519D01*
X64766Y-50206D01*
X64525Y-49788D01*
X64165Y-49393D01*
X63753Y-49051D01*
X63428Y-48904D01*
X63116Y-48839D01*
X62945Y-48916D01*
X62869Y-49087D01*
X62898Y-49434D01*
X61726Y-48156D01*
X62203Y-47678D01*
G01X58958Y-55541D02*
G03X55896Y-52479I-2968J93D01*
G01X54694Y-17398D02*
X60040D01*
G01D02*
Y-9919D01*
G01D02*
X54694D01*
G01X60558Y34923D02*
X60429Y34581D01*
X60411Y34316D01*
X60523Y34110D01*
X60776Y34045D01*
X61089Y34110D01*
X61507Y34352D01*
X61902Y34711D01*
X62244Y35124D01*
X62391Y35448D01*
X62456Y35760D01*
X62379Y35931D01*
X62208Y36007D01*
X61861Y35978D01*
X63139Y37150D01*
X63617Y36673D01*
G01X64324Y35966D02*
X61937Y32696D01*
X65208Y35082D01*
G01X54046Y66520D02*
X53489Y67077D01*
X67408Y80996D01*
X67965Y80439D01*
G01X55356Y77096D02*
X57383Y75068D01*
X57878Y74715D01*
X58303Y74573D01*
X58574Y74656D01*
X58656Y74927D01*
X58515Y75351D01*
X58161Y75846D01*
X56134Y77873D01*
G01X57295Y78091D02*
X57118Y78480D01*
X57100Y78745D01*
X57195Y78934D01*
X57466Y79016D01*
X57825Y78904D01*
X58143Y78657D01*
X58409Y78356D01*
X58574Y78050D01*
X58692Y77225D01*
X58862Y76736D01*
X59228Y76158D01*
X59617Y75699D01*
X60359Y76441D01*
G01X61402Y77484D02*
X58574Y80313D01*
X58927Y79535D01*
G01X61190Y77272D02*
X61614Y77696D01*
G01X77228Y-55129D02*
X75201Y-57156D01*
X74847Y-57651D01*
X74706Y-58075D01*
X74788Y-58346D01*
X75059Y-58429D01*
X75484Y-58287D01*
X75978Y-57934D01*
X78006Y-55906D01*
G01X78224Y-57067D02*
X78612Y-56891D01*
X78878Y-56873D01*
X79066Y-56967D01*
X79149Y-57238D01*
X79037Y-57598D01*
X78789Y-57916D01*
X78489Y-58181D01*
X78182Y-58346D01*
X77357Y-58464D01*
X76868Y-58635D01*
X76291Y-59000D01*
X75831Y-59389D01*
X76574Y-60132D01*
G01X80445Y-58346D02*
X80209Y-58299D01*
X79868Y-58428D01*
X79514Y-58641D01*
X79084Y-58965D01*
X78642Y-59371D01*
X78235Y-59813D01*
X77911Y-60243D01*
X77699Y-60597D01*
X77570Y-60939D01*
X77617Y-61174D01*
X77852Y-61222D01*
X78194Y-61092D01*
X78548Y-60880D01*
X78978Y-60556D01*
X79420Y-60149D01*
X79826Y-59707D01*
X80150Y-59277D01*
X80362Y-58924D01*
X80492Y-58582D01*
X80445Y-58346D01*
G01X66652Y-53818D02*
X67209Y-53261D01*
X81128Y-67181D01*
X80572Y-67738D01*
G01X78171Y13846D02*
X78372Y13996D01*
X78505Y14171D01*
Y14371D01*
X78305Y14596D01*
X77972Y14771D01*
X77571Y14896D01*
X76905Y14996D01*
X76305Y15021D01*
X75705Y14971D01*
X75305Y14896D01*
X74905Y14746D01*
X74638Y14571D01*
X74505Y14396D01*
Y14221D01*
X74638Y14046D01*
X74838Y13896D01*
X75105Y13771D01*
G01X74505Y12096D02*
X78505D01*
X75638Y13021D01*
Y11771D01*
G01X74971Y10821D02*
X74638Y10646D01*
X74505Y10446D01*
X74638Y10246D01*
X75038Y10071D01*
X75638Y9946D01*
X76238Y9896D01*
X76971D01*
X77571Y9946D01*
X78105Y10071D01*
X78372Y10221D01*
X78505Y10396D01*
X78372Y10596D01*
X78105Y10746D01*
X77705Y10846D01*
X77171Y10896D01*
X76705Y10846D01*
X76238Y10721D01*
X75971Y10571D01*
X75905Y10396D01*
X76038Y10196D01*
X76371Y10046D01*
X76971Y9896D01*
G01X68712Y7928D02*
G03X73042I2165J2033D01*
G01D02*
X73043Y17771D01*
G03X68711I-2166J-1916D01*
G01D02*
X68712Y7928D01*
G01X80771Y67634D02*
X81328Y67077D01*
X67408Y53157D01*
X66852Y53714D01*
G54D11*
G01X-93446Y41065D02*
X-94861Y42479D01*
G01D02*
X-94233Y44539D01*
G01D02*
X-84441Y54331D01*
G01X-67736Y37626D02*
X-78872Y26490D01*
G01D02*
X-79667Y27285D01*
G01X-84441Y54331D02*
X-82594Y52483D01*
G01X-68386Y38276D02*
X-67736Y37626D01*
G01X49115Y28829D02*
X28235Y49708D01*
G01D02*
X44660Y66134D01*
G01X65540Y45254D02*
X49115Y28829D01*
G01X44660Y66134D02*
X65540Y45254D01*
G01X53075Y57234D02*
X57176Y53133D01*
G01D02*
X55974Y51931D01*
G01D02*
X51873Y56032D01*
G01D02*
X53075Y57234D01*
G54D12*
G01X101632Y12205D02*
G03Y-12205I0J-12205D01*
G01X107578D01*
G02X12205Y-107578I-107578J12205D01*
G01Y-101632D01*
G03X-12205I-12205J0D01*
G01Y-107578D01*
G02X-107578Y-12205I12205J107578D01*
G01X-101632D01*
G03Y12205I0J12205D01*
G01X-107578D01*
G02X107578I107578J-12205D01*
G01X101632D01*
G01X-107578D02*
X-101632D01*
G01X107578D02*
G03X-107578I-107578J-12205D01*
G01X-72521Y-64448D02*
G03I-917J0D01*
G01X-65969Y-17339D02*
X-74062Y-25431D01*
X-84323Y-15170D01*
X-76230Y-7077D01*
X-65969Y-17339D01*
G01X-63368Y73365D02*
G03I-917J0D01*
G01X29528Y0D02*
G02I-29528J0D01*
G01D02*
G03I-29528J0D01*
G01X29528D02*
G03I-29528J0D01*
G01X-23705Y27839D02*
G02I-4134J0D01*
G01X0Y-98425D02*
Y-86811D01*
G01X4725Y-82087D02*
G02I-4724J0D01*
G01Y82087D02*
G02I-4724J0D01*
G01X-1123Y103710D02*
G03I-917J0D01*
G01X26541Y-88476D02*
G03I-917J0D01*
G01X31973Y-27839D02*
G02I-4134J0D01*
G01X65128Y-73202D02*
G03I-917J0D01*
G01X74347Y64079D02*
G03I-917J0D01*
G01X101632Y12205D02*
X107578D01*
M02*
