G04 ================== begin FILE IDENTIFICATION RECORD ==================*
G04 Layout Name:  F:/work/ZM/Frogs/Git/Hardware/Hardware/Wepark/esp32/cam/ESP323.brd*
G04 Film Name:    SilkScreenBottom*
G04 File Format:  Gerber RS274X*
G04 File Origin:  Cadence Allegro 16.6-2015-S108*
G04 Origin Date:  Thu Aug 01 16:50:14 2019*
G04 *
G04 Layer:  REF DES/SILKSCREEN_BOTTOM*
G04 Layer:  PACKAGE GEOMETRY/SILKSCREEN_BOTTOM*
G04 Layer:  COMPONENT VALUE/SILKSCREEN_BOTTOM*
G04 Layer:  BOARD GEOMETRY/SILKSCREEN_BOTTOM*
G04 Layer:  BOARD GEOMETRY/OUTLINE*
G04 *
G04 Offset:    (0.000 0.000)*
G04 Mirror:    No*
G04 Mode:      Positive*
G04 Rotation:  0*
G04 FullContactRelief:  No*
G04 UndefLineWidth:     0.127*
G04 ================== end FILE IDENTIFICATION RECORD ====================*
%FSLAX35Y35*MOIN*%
%IR0*IPPOS*OFA0.00000B0.00000*MIA0B0*SFA1.00000B1.00000*%
%ADD10C,.005*%
%ADD11C,.01*%
%ADD12C,.000127*%
G75*
%LPD*%
G75*
G54D10*
G01X-95473Y29353D02*
X-99850Y33730D01*
X-102136Y31444D01*
X-97759Y27068D01*
X-95473Y29353D01*
G01X-88009Y-38564D02*
X-96083Y-46638D01*
X-93020Y-49700D01*
X-84947Y-41627D01*
X-88009Y-38564D01*
G01X-92036Y-27357D02*
X-100110Y-35430D01*
X-97047Y-38492D01*
X-88974Y-30419D01*
X-92036Y-27357D01*
G01X-82278Y-38761D02*
X-82184Y-38573D01*
X-82249Y-38260D01*
X-82426Y-37871D01*
X-82685Y-37471D01*
X-83027Y-37058D01*
X-83404Y-36681D01*
X-83816Y-36339D01*
X-84217Y-36080D01*
X-84606Y-35903D01*
X-84918Y-35838D01*
X-85107Y-35933D01*
X-85201Y-36121D01*
X-85136Y-36434D01*
X-84960Y-36822D01*
X-84700Y-37223D01*
X-84358Y-37636D01*
X-83981Y-38013D01*
X-83569Y-38355D01*
X-83168Y-38614D01*
X-82779Y-38791D01*
X-82467Y-38855D01*
X-82278Y-38761D01*
G01X-83174Y-38148D02*
X-82632Y-39115D01*
G01X-83905Y-40388D02*
X-86733Y-37559D01*
X-84052Y-38932D01*
X-84936Y-39816D01*
G01X-93217Y-24828D02*
X-93123Y-24640D01*
X-93187Y-24328D01*
X-93364Y-23939D01*
X-93623Y-23538D01*
X-93965Y-23125D01*
X-94342Y-22748D01*
X-94755Y-22406D01*
X-95156Y-22147D01*
X-95544Y-21970D01*
X-95857Y-21906D01*
X-96045Y-22000D01*
X-96140Y-22188D01*
X-96075Y-22501D01*
X-95898Y-22890D01*
X-95639Y-23290D01*
X-95297Y-23703D01*
X-94920Y-24080D01*
X-94507Y-24422D01*
X-94107Y-24681D01*
X-93718Y-24858D01*
X-93405Y-24923D01*
X-93217Y-24828D01*
G01X-94112Y-24216D02*
X-93570Y-25182D01*
G01X-94808Y-25288D02*
X-94584Y-25724D01*
X-94537Y-26054D01*
X-94649Y-26260D01*
X-94837Y-26355D01*
X-95214Y-26260D01*
X-95586Y-26066D01*
X-95886Y-25801D01*
X-96181Y-25435D01*
X-96293Y-25076D01*
X-96263Y-24858D01*
X-96104Y-24699D01*
G01X-96263Y-24858D02*
X-96511Y-24822D01*
X-96835Y-24675D01*
X-97153Y-24428D01*
X-97400Y-24109D01*
X-97548Y-23785D01*
X-97530Y-23485D01*
X-97324Y-23373D01*
X-96976Y-23402D01*
G01X-94452Y21221D02*
X-91624Y24050D01*
X-92066Y24492D01*
X-92349D01*
X-92626Y24392D01*
X-93038Y24050D01*
X-93380Y23637D01*
X-93509Y23296D01*
X-93527Y23030D01*
X-93085Y22588D01*
G01X-93527Y23030D02*
X-95159Y21928D01*
G01X-96220Y22989D02*
X-93392Y25818D01*
X-93745Y25040D01*
G01X-96008Y22777D02*
X-96432Y23201D01*
G01X-94806Y27232D02*
X-94759Y26996D01*
X-94888Y26654D01*
X-95100Y26301D01*
X-95425Y25870D01*
X-95831Y25429D01*
X-96273Y25022D01*
X-96703Y24698D01*
X-97057Y24486D01*
X-97398Y24356D01*
X-97634Y24403D01*
X-97681Y24639D01*
X-97552Y24981D01*
X-97340Y25334D01*
X-97016Y25764D01*
X-96609Y26206D01*
X-96167Y26613D01*
X-95737Y26937D01*
X-95383Y27149D01*
X-95042Y27279D01*
X-94806Y27232D01*
G01X-74103Y-71236D02*
X-71274Y-68408D01*
X-71716Y-67966D01*
X-71999D01*
X-72276Y-68066D01*
X-72689Y-68408D01*
X-73030Y-68820D01*
X-73160Y-69162D01*
X-73178Y-69427D01*
X-72736Y-69869D01*
G01X-73178Y-69427D02*
X-74810Y-70529D01*
G01X-75835Y-69504D02*
X-75258Y-68855D01*
X-74792Y-68284D01*
X-74392Y-67742D01*
X-73962Y-67135D01*
X-73396Y-66286D01*
X-72689Y-66993D01*
G01X-76654Y-68025D02*
X-77014Y-68136D01*
X-77250Y-68089D01*
X-77297Y-67854D01*
X-77138Y-67447D01*
X-76802Y-66934D01*
X-76413Y-66475D01*
X-75894Y-65956D01*
X-75435Y-65567D01*
X-74969Y-65279D01*
X-74674Y-65196D01*
X-74456Y-65226D01*
X-74409Y-65461D01*
X-74492Y-65756D01*
X-74704Y-66109D01*
X-75046Y-66522D01*
X-75411Y-66816D01*
X-75829Y-67058D01*
X-76124Y-67141D01*
X-76295Y-67064D01*
X-76342Y-66828D01*
X-76212Y-66487D01*
X-75894Y-65956D01*
G01X-76105Y-54585D02*
X-71729Y-58962D01*
X-69443Y-56676D01*
X-73819Y-52300D01*
X-76105Y-54585D01*
G01X-83402Y-61476D02*
X-79026Y-65852D01*
X-76740Y-63566D01*
X-81117Y-59190D01*
X-83402Y-61476D01*
G01X-70375Y-67325D02*
X-67547Y-64496D01*
X-67989Y-64055D01*
X-68272D01*
X-68549Y-64155D01*
X-68961Y-64496D01*
X-69303Y-64909D01*
X-69432Y-65251D01*
X-69450Y-65516D01*
X-69008Y-65958D01*
G01X-69450Y-65516D02*
X-71082Y-66618D01*
G01X-72108Y-65592D02*
X-71530Y-64944D01*
X-71065Y-64373D01*
X-70664Y-63831D01*
X-70234Y-63224D01*
X-69668Y-62375D01*
X-68961Y-63082D01*
G01X-73557Y-64143D02*
X-73634Y-63972D01*
X-73634Y-63689D01*
X-73487Y-63365D01*
X-73192Y-63000D01*
X-72827Y-62705D01*
X-72438Y-62528D01*
X-72137Y-62546D01*
X-71960Y-62723D01*
X-71760Y-62735D01*
X-71436Y-62587D01*
X-71071Y-62293D01*
X-70794Y-61910D01*
X-70682Y-61550D01*
X-70729Y-61315D01*
X-70964Y-61267D01*
X-71324Y-61379D01*
X-71707Y-61656D01*
X-72002Y-62022D01*
X-72149Y-62346D01*
X-72137Y-62546D01*
X-71960Y-62723D01*
X-71943Y-63023D01*
X-72120Y-63412D01*
X-72414Y-63778D01*
X-72780Y-64072D01*
X-73104Y-64220D01*
X-73386D01*
X-73557Y-64143D01*
G01X-79768Y-58016D02*
X-75392Y-62392D01*
X-73106Y-60107D01*
X-77482Y-55730D01*
X-79768Y-58016D01*
G01X-74759Y-40281D02*
X-82832Y-48354D01*
X-79770Y-51416D01*
X-71696Y-43343D01*
X-74759Y-40281D01*
G01X-69018Y-41144D02*
X-68923Y-40956D01*
X-68988Y-40643D01*
X-69165Y-40255D01*
X-69424Y-39854D01*
X-69766Y-39441D01*
X-70143Y-39064D01*
X-70556Y-38722D01*
X-70956Y-38463D01*
X-71345Y-38286D01*
X-71658Y-38222D01*
X-71846Y-38316D01*
X-71940Y-38504D01*
X-71876Y-38817D01*
X-71699Y-39206D01*
X-71440Y-39606D01*
X-71098Y-40019D01*
X-70721Y-40396D01*
X-70308Y-40738D01*
X-69908Y-40997D01*
X-69518Y-41174D01*
X-69206Y-41238D01*
X-69018Y-41144D01*
G01X-69913Y-40531D02*
X-69371Y-41498D01*
G01X-70467Y-41745D02*
X-70338Y-42087D01*
X-70320Y-42352D01*
X-70432Y-42558D01*
X-70685Y-42623D01*
X-70998Y-42558D01*
X-71416Y-42317D01*
X-71811Y-41957D01*
X-72152Y-41545D01*
X-72300Y-41221D01*
X-72365Y-40908D01*
X-72288Y-40738D01*
X-72117Y-40661D01*
X-71770Y-40690D01*
X-73048Y-39518D01*
X-73526Y-39995D01*
G01X-74346Y3539D02*
X-74593Y3504D01*
X-74811Y3533D01*
X-74953Y3675D01*
X-74970Y3976D01*
X-74858Y4335D01*
X-74664Y4706D01*
X-74263Y5248D01*
X-73857Y5690D01*
X-73397Y6079D01*
X-73061Y6309D01*
X-72672Y6486D01*
X-72360Y6550D01*
X-72142Y6521D01*
X-72018Y6397D01*
X-71989Y6179D01*
X-72024Y5932D01*
X-72124Y5655D01*
G01X-70728Y5107D02*
X-73556Y2278D01*
X-73203Y3056D01*
G01X-70940Y5319D02*
X-70516Y4895D01*
G01X-70268Y3516D02*
X-69832Y3740D01*
X-69502Y3787D01*
X-69296Y3675D01*
X-69202Y3486D01*
X-69296Y3109D01*
X-69490Y2738D01*
X-69755Y2438D01*
X-70121Y2143D01*
X-70480Y2031D01*
X-70698Y2060D01*
X-70858Y2219D01*
G01X-70698Y2060D02*
X-70734Y1813D01*
X-70881Y1489D01*
X-71128Y1171D01*
X-71447Y923D01*
X-71771Y776D01*
X-72071Y793D01*
X-72183Y1000D01*
X-72154Y1347D01*
G01X-80253Y41813D02*
X-78226Y39786D01*
X-77872Y39291D01*
X-77731Y38867D01*
X-77813Y38596D01*
X-78084Y38513D01*
X-78509Y38654D01*
X-79004Y39008D01*
X-81031Y41035D01*
G01X-79404Y38136D02*
X-79180Y37700D01*
X-79133Y37370D01*
X-79245Y37164D01*
X-79434Y37070D01*
X-79811Y37164D01*
X-80182Y37358D01*
X-80483Y37623D01*
X-80777Y37989D01*
X-80889Y38348D01*
X-80860Y38566D01*
X-80701Y38725D01*
G01X-80860Y38566D02*
X-81107Y38602D01*
X-81431Y38749D01*
X-81750Y38996D01*
X-81997Y39315D01*
X-82144Y39639D01*
X-82127Y39939D01*
X-81920Y40051D01*
X-81573Y40022D01*
G01X-66709Y-63475D02*
X-63880Y-60647D01*
X-64322Y-60205D01*
X-64605D01*
X-64882Y-60305D01*
X-65295Y-60647D01*
X-65636Y-61059D01*
X-65766Y-61401D01*
X-65784Y-61666D01*
X-65342Y-62108D01*
G01X-65784Y-61666D02*
X-67416Y-62768D01*
G01X-68441Y-61743D02*
X-67864Y-61095D01*
X-67398Y-60523D01*
X-66997Y-59981D01*
X-66567Y-59374D01*
X-66002Y-58525D01*
X-65294Y-59233D01*
G01X-69855Y-60328D02*
X-69278Y-59680D01*
X-68812Y-59109D01*
X-68412Y-58567D01*
X-67982Y-57960D01*
X-67416Y-57111D01*
X-66709Y-57818D01*
G01X-60972Y-16744D02*
X-60936Y-16991D01*
X-60966Y-17209D01*
X-61107Y-17350D01*
X-61408Y-17368D01*
X-61767Y-17256D01*
X-62138Y-17062D01*
X-62681Y-16661D01*
X-63123Y-16254D01*
X-63511Y-15795D01*
X-63741Y-15459D01*
X-63918Y-15070D01*
X-63983Y-14758D01*
X-63953Y-14540D01*
X-63830Y-14416D01*
X-63612Y-14386D01*
X-63364Y-14422D01*
X-63087Y-14522D01*
G01X-62362Y-14080D02*
X-62586Y-13644D01*
X-62634Y-13314D01*
X-62522Y-13108D01*
X-62333Y-13014D01*
X-61956Y-13108D01*
X-61585Y-13302D01*
X-61284Y-13567D01*
X-60990Y-13933D01*
X-60877Y-14292D01*
X-60907Y-14510D01*
X-61066Y-14669D01*
G01X-60907Y-14510D02*
X-60660Y-14546D01*
X-60335Y-14693D01*
X-60017Y-14940D01*
X-59770Y-15259D01*
X-59622Y-15583D01*
X-59640Y-15883D01*
X-59846Y-15995D01*
X-60194Y-15966D01*
G01X-66410Y-13932D02*
X-66375Y-14180D01*
X-66404Y-14398D01*
X-66546Y-14539D01*
X-66847Y-14557D01*
X-67206Y-14445D01*
X-67577Y-14251D01*
X-68119Y-13850D01*
X-68561Y-13443D01*
X-68950Y-12984D01*
X-69180Y-12648D01*
X-69357Y-12259D01*
X-69422Y-11947D01*
X-69392Y-11729D01*
X-69268Y-11605D01*
X-69050Y-11575D01*
X-68803Y-11611D01*
X-68526Y-11711D01*
G01X-65957Y-13007D02*
X-65568Y-13184D01*
X-65303Y-13202D01*
X-65114Y-13108D01*
X-65032Y-12836D01*
X-65144Y-12477D01*
X-65391Y-12159D01*
X-65692Y-11894D01*
X-65998Y-11729D01*
X-66823Y-11611D01*
X-67312Y-11440D01*
X-67890Y-11075D01*
X-68349Y-10686D01*
X-67607Y-9943D01*
G01X-63735Y-11729D02*
X-63971Y-11776D01*
X-64313Y-11646D01*
X-64666Y-11434D01*
X-65096Y-11110D01*
X-65538Y-10703D01*
X-65945Y-10261D01*
X-66269Y-9831D01*
X-66481Y-9478D01*
X-66611Y-9136D01*
X-66564Y-8900D01*
X-66328Y-8853D01*
X-65986Y-8983D01*
X-65633Y-9195D01*
X-65202Y-9519D01*
X-64761Y-9926D01*
X-64354Y-10368D01*
X-64030Y-10798D01*
X-63818Y-11151D01*
X-63688Y-11493D01*
X-63735Y-11729D01*
G01X-58791Y-12238D02*
X-54807Y-8254D01*
Y-7914D01*
X-56703Y-6019D01*
X-57015D01*
X-61065Y-10069D01*
Y-10370D01*
X-59197Y-12238D01*
X-58791D01*
G01X-69697Y-594D02*
X-65714Y-4578D01*
X-65374D01*
X-63478Y-2682D01*
Y-2371D01*
X-67529Y1680D01*
X-67829D01*
X-69697Y-188D01*
Y-594D01*
G01X-61634Y-9393D02*
X-57651Y-5410D01*
Y-5070D01*
X-59546Y-3174D01*
X-59858D01*
X-63909Y-7225D01*
Y-7525D01*
X-62041Y-9393D01*
X-61634D01*
G01X-66921Y2189D02*
X-62937Y-1795D01*
X-62598D01*
X-60702Y101D01*
Y413D01*
X-64752Y4464D01*
X-65053D01*
X-66921Y2596D01*
Y2189D01*
G01X-70618Y6839D02*
X-70866Y6804D01*
X-71084Y6833D01*
X-71225Y6975D01*
X-71243Y7275D01*
X-71131Y7635D01*
X-70936Y8006D01*
X-70536Y8548D01*
X-70129Y8990D01*
X-69670Y9379D01*
X-69334Y9609D01*
X-68945Y9786D01*
X-68632Y9850D01*
X-68414Y9821D01*
X-68291Y9697D01*
X-68261Y9479D01*
X-68296Y9232D01*
X-68397Y8955D01*
G01X-67000Y8407D02*
X-69829Y5578D01*
X-69475Y6356D01*
G01X-67212Y8619D02*
X-66788Y8195D01*
G01X-65586Y6992D02*
X-68414Y4164D01*
X-68061Y4942D01*
G01X-65798Y7205D02*
X-65374Y6780D01*
G01X-57368Y78665D02*
X-61744Y74288D01*
X-59459Y72003D01*
X-55083Y76379D01*
X-57368Y78665D01*
G01X-60973Y82154D02*
X-65350Y77778D01*
X-63064Y75492D01*
X-58688Y79868D01*
X-60973Y82154D01*
G01X-53295Y84941D02*
X-56123Y87769D01*
X-56565Y87327D01*
Y87044D01*
X-56465Y86767D01*
X-56123Y86355D01*
X-55711Y86013D01*
X-55369Y85884D01*
X-55104Y85866D01*
X-54662Y86308D01*
G01X-55104Y85866D02*
X-54002Y84234D01*
G01X-55062Y83173D02*
X-55233Y83096D01*
X-55516Y83096D01*
X-55840Y83244D01*
X-56206Y83538D01*
X-56500Y83904D01*
X-56677Y84292D01*
X-56659Y84593D01*
X-56482Y84770D01*
X-56471Y84970D01*
X-56618Y85294D01*
X-56912Y85660D01*
X-57296Y85937D01*
X-57655Y86049D01*
X-57891Y86001D01*
X-57938Y85766D01*
X-57826Y85406D01*
X-57549Y85023D01*
X-57184Y84729D01*
X-56860Y84581D01*
X-56659Y84593D01*
X-56482Y84770D01*
X-56182Y84788D01*
X-55793Y84611D01*
X-55428Y84316D01*
X-55133Y83951D01*
X-54986Y83627D01*
Y83344D01*
X-55062Y83173D01*
G01X-56476Y81759D02*
X-56647Y81682D01*
X-56930Y81682D01*
X-57254Y81829D01*
X-57620Y82124D01*
X-57914Y82489D01*
X-58091Y82878D01*
X-58073Y83179D01*
X-57897Y83356D01*
X-57885Y83556D01*
X-58032Y83880D01*
X-58327Y84245D01*
X-58710Y84522D01*
X-59069Y84634D01*
X-59305Y84587D01*
X-59352Y84352D01*
X-59240Y83992D01*
X-58963Y83609D01*
X-58598Y83314D01*
X-58274Y83167D01*
X-58073Y83179D01*
X-57897Y83356D01*
X-57596Y83373D01*
X-57207Y83196D01*
X-56842Y82902D01*
X-56547Y82536D01*
X-56400Y82212D01*
Y81930D01*
X-56476Y81759D01*
G01X-57908Y-17574D02*
X-58155Y-17609D01*
X-58373Y-17580D01*
X-58514Y-17438D01*
X-58532Y-17138D01*
X-58420Y-16778D01*
X-58226Y-16407D01*
X-57825Y-15865D01*
X-57418Y-15423D01*
X-56959Y-15034D01*
X-56623Y-14804D01*
X-56234Y-14627D01*
X-55922Y-14563D01*
X-55704Y-14592D01*
X-55580Y-14716D01*
X-55550Y-14934D01*
X-55586Y-15181D01*
X-55686Y-15458D01*
G01X-54920Y-16036D02*
X-54561Y-15924D01*
X-54325Y-15971D01*
X-54278Y-16207D01*
X-54437Y-16613D01*
X-54773Y-17126D01*
X-55162Y-17585D01*
X-55680Y-18104D01*
X-56140Y-18493D01*
X-56605Y-18782D01*
X-56900Y-18864D01*
X-57118Y-18835D01*
X-57165Y-18599D01*
X-57083Y-18304D01*
X-56871Y-17951D01*
X-56529Y-17538D01*
X-56163Y-17244D01*
X-55745Y-17002D01*
X-55450Y-16920D01*
X-55279Y-16996D01*
X-55232Y-17232D01*
X-55362Y-17574D01*
X-55680Y-18104D01*
G01X-49685Y-13646D02*
X-53668Y-9663D01*
X-54008D01*
X-55904Y-11558D01*
X-55904Y-11870D01*
X-51854Y-15921D01*
X-51553D01*
X-49685Y-14053D01*
Y-13646D01*
G01X-44692Y-21244D02*
X-44444Y-21208D01*
X-44226Y-21238D01*
X-44085Y-21379D01*
X-44067Y-21680D01*
X-44179Y-22039D01*
X-44373Y-22410D01*
X-44774Y-22953D01*
X-45181Y-23395D01*
X-45640Y-23783D01*
X-45976Y-24013D01*
X-46365Y-24190D01*
X-46677Y-24255D01*
X-46895Y-24225D01*
X-47019Y-24102D01*
X-47049Y-23884D01*
X-47013Y-23636D01*
X-46913Y-23359D01*
G01X-48310Y-22811D02*
X-45481Y-19983D01*
X-45835Y-20760D01*
G01X-48097Y-23023D02*
X-48522Y-22599D01*
G01X-46895Y-18569D02*
X-46848Y-18804D01*
X-46978Y-19146D01*
X-47190Y-19500D01*
X-47514Y-19930D01*
X-47921Y-20372D01*
X-48363Y-20778D01*
X-48793Y-21102D01*
X-49146Y-21314D01*
X-49488Y-21444D01*
X-49724Y-21397D01*
X-49771Y-21161D01*
X-49641Y-20820D01*
X-49429Y-20466D01*
X-49105Y-20036D01*
X-48698Y-19594D01*
X-48256Y-19187D01*
X-47826Y-18863D01*
X-47473Y-18651D01*
X-47131Y-18521D01*
X-46895Y-18569D01*
G01X-40248Y-18568D02*
X-44232Y-14584D01*
X-44571D01*
X-46467Y-16481D01*
Y-16792D01*
X-42417Y-20843D01*
X-42116D01*
X-40248Y-18975D01*
Y-18568D01*
G01X-49141Y-3145D02*
X-44765Y-7522D01*
X-42479Y-5236D01*
X-46856Y-860D01*
X-49141Y-3145D01*
G01X-56319Y-3244D02*
X-56566Y-3279D01*
X-56784Y-3250D01*
X-56926Y-3108D01*
X-56943Y-2808D01*
X-56831Y-2448D01*
X-56637Y-2077D01*
X-56236Y-1535D01*
X-55830Y-1093D01*
X-55370Y-704D01*
X-55034Y-474D01*
X-54645Y-297D01*
X-54333Y-233D01*
X-54115Y-262D01*
X-53991Y-386D01*
X-53962Y-604D01*
X-53997Y-851D01*
X-54097Y-1128D01*
G01X-52701Y-1676D02*
X-55529Y-4505D01*
X-55176Y-3727D01*
G01X-52913Y-1464D02*
X-52489Y-1888D01*
G01X-53980Y-5112D02*
X-54156Y-5500D01*
X-54174Y-5766D01*
X-54080Y-5954D01*
X-53809Y-6037D01*
X-53449Y-5925D01*
X-53131Y-5677D01*
X-52866Y-5377D01*
X-52701Y-5070D01*
X-52583Y-4245D01*
X-52412Y-3756D01*
X-52047Y-3179D01*
X-51658Y-2719D01*
X-50915Y-3462D01*
G01X-46717Y-10701D02*
X-50701Y-6717D01*
X-51040D01*
X-52936Y-8613D01*
Y-8924D01*
X-48885Y-12975D01*
X-48585D01*
X-46717Y-11107D01*
Y-10701D01*
G01X-39788Y-2109D02*
X-43772Y1875D01*
X-44111Y1875D01*
X-46007Y-21D01*
Y-333D01*
X-41956Y-4384D01*
X-41656D01*
X-39788Y-2515D01*
Y-2109D01*
G01X-46267Y77119D02*
X-49096Y79947D01*
X-49537Y79505D01*
Y79222D01*
X-49437Y78946D01*
X-49096Y78533D01*
X-48683Y78191D01*
X-48341Y78062D01*
X-48076Y78044D01*
X-47634Y78486D01*
G01X-48076Y78044D02*
X-46974Y76412D01*
G01X-48035Y75351D02*
X-48206Y75274D01*
X-48488Y75274D01*
X-48813Y75422D01*
X-49178Y75716D01*
X-49473Y76082D01*
X-49649Y76471D01*
X-49632Y76771D01*
X-49455Y76948D01*
X-49443Y77148D01*
X-49590Y77472D01*
X-49885Y77838D01*
X-50268Y78115D01*
X-50628Y78227D01*
X-50863Y78180D01*
X-50910Y77944D01*
X-50798Y77584D01*
X-50522Y77201D01*
X-50156Y76907D01*
X-49832Y76759D01*
X-49632Y76771D01*
X-49455Y76948D01*
X-49154Y76966D01*
X-48765Y76789D01*
X-48400Y76494D01*
X-48105Y76129D01*
X-47958Y75805D01*
Y75522D01*
X-48035Y75351D01*
G01X-50292Y75451D02*
X-50745Y75658D01*
X-51040Y75740D01*
X-51276Y75693D01*
X-51305Y75475D01*
X-51205Y75198D01*
X-50993Y74844D01*
X-50681Y74497D01*
X-50380Y74231D01*
X-50026Y74019D01*
X-49685Y73890D01*
X-49467Y73919D01*
X-49420Y74155D01*
X-49579Y74561D01*
X-49932Y75056D01*
X-50386Y75546D01*
X-51034Y76123D01*
X-51417Y76400D01*
X-51836Y76642D01*
X-52195Y76754D01*
X-52366Y76677D01*
X-52395Y76459D01*
X-52248Y76135D01*
G01X-53792Y75466D02*
X-58169Y71090D01*
X-55883Y68804D01*
X-51507Y73181D01*
X-53792Y75466D01*
G01X-49750Y80602D02*
X-52579Y83430D01*
X-53021Y82988D01*
Y82706D01*
X-52921Y82429D01*
X-52579Y82016D01*
X-52166Y81674D01*
X-51825Y81545D01*
X-51559Y81527D01*
X-51117Y81969D01*
G01X-51559Y81527D02*
X-50457Y79895D01*
G01X-51518Y78834D02*
X-51689Y78758D01*
X-51972Y78758D01*
X-52296Y78905D01*
X-52661Y79200D01*
X-52956Y79565D01*
X-53133Y79954D01*
X-53115Y80254D01*
X-52938Y80431D01*
X-52926Y80632D01*
X-53074Y80956D01*
X-53368Y81321D01*
X-53751Y81598D01*
X-54111Y81710D01*
X-54346Y81663D01*
X-54394Y81427D01*
X-54282Y81067D01*
X-54005Y80684D01*
X-53639Y80390D01*
X-53315Y80243D01*
X-53115Y80254D01*
X-52938Y80431D01*
X-52638Y80449D01*
X-52249Y80272D01*
X-51883Y79977D01*
X-51589Y79612D01*
X-51441Y79288D01*
Y79005D01*
X-51518Y78834D01*
G01X-52897Y77455D02*
X-53545Y78033D01*
X-54117Y78498D01*
X-54659Y78899D01*
X-55266Y79329D01*
X-56114Y79895D01*
X-55407Y80602D01*
G01X-35283Y-28367D02*
X-35531Y-28402D01*
X-35749Y-28373D01*
X-35890Y-28231D01*
X-35908Y-27931D01*
X-35796Y-27571D01*
X-35602Y-27200D01*
X-35201Y-26658D01*
X-34794Y-26216D01*
X-34335Y-25827D01*
X-33999Y-25597D01*
X-33610Y-25420D01*
X-33298Y-25356D01*
X-33080Y-25385D01*
X-32956Y-25509D01*
X-32926Y-25727D01*
X-32962Y-25974D01*
X-33062Y-26251D01*
G01X-31453Y-27012D02*
X-34282Y-29840D01*
X-32909Y-27159D01*
X-32025Y-28043D01*
G01X-40994Y-22328D02*
X-37010Y-26312D01*
X-36670Y-26312D01*
X-34774Y-24416D01*
X-34775Y-24104D01*
X-38825Y-20054D01*
X-39126D01*
X-40994Y-21921D01*
Y-22328D01*
G01X-39728Y-12510D02*
X-36900Y-9682D01*
X-37342Y-9240D01*
X-37625D01*
X-37902Y-9340D01*
X-38314Y-9682D01*
X-38656Y-10094D01*
X-38785Y-10436D01*
X-38803Y-10701D01*
X-38361Y-11143D01*
G01X-38803Y-10701D02*
X-40435Y-11803D01*
G01X-41496Y-10742D02*
X-38668Y-7914D01*
X-39021Y-8692D01*
G01X-41284Y-10954D02*
X-41708Y-10530D01*
G01X-41396Y-8486D02*
X-41190Y-8032D01*
X-41107Y-7737D01*
X-41154Y-7501D01*
X-41372Y-7472D01*
X-41649Y-7572D01*
X-42003Y-7784D01*
X-42350Y-8097D01*
X-42616Y-8397D01*
X-42828Y-8751D01*
X-42957Y-9092D01*
X-42928Y-9310D01*
X-42692Y-9358D01*
X-42286Y-9198D01*
X-41790Y-8845D01*
X-41302Y-8391D01*
X-40724Y-7743D01*
X-40447Y-7360D01*
X-40206Y-6942D01*
X-40094Y-6582D01*
X-40170Y-6411D01*
X-40388Y-6382D01*
X-40712Y-6529D01*
G01X-34334Y-5631D02*
X-34086Y-5595D01*
X-33868Y-5625D01*
X-33727Y-5766D01*
X-33709Y-6067D01*
X-33821Y-6426D01*
X-34015Y-6797D01*
X-34416Y-7339D01*
X-34823Y-7781D01*
X-35282Y-8170D01*
X-35618Y-8400D01*
X-36007Y-8577D01*
X-36319Y-8642D01*
X-36537Y-8612D01*
X-36661Y-8488D01*
X-36691Y-8270D01*
X-36655Y-8023D01*
X-36555Y-7746D01*
G01X-35259Y-5177D02*
X-35082Y-4788D01*
X-35064Y-4523D01*
X-35159Y-4334D01*
X-35430Y-4252D01*
X-35789Y-4364D01*
X-36107Y-4611D01*
X-36372Y-4912D01*
X-36537Y-5218D01*
X-36655Y-6043D01*
X-36826Y-6532D01*
X-37192Y-7110D01*
X-37580Y-7569D01*
X-38323Y-6827D01*
G01X-36673Y-3763D02*
X-36496Y-3374D01*
X-36478Y-3108D01*
X-36573Y-2920D01*
X-36844Y-2838D01*
X-37203Y-2950D01*
X-37521Y-3197D01*
X-37787Y-3498D01*
X-37952Y-3804D01*
X-38070Y-4629D01*
X-38240Y-5118D01*
X-38606Y-5696D01*
X-38995Y-6155D01*
X-39737Y-5412D01*
G01X-21134Y-74768D02*
X-21259Y-75168D01*
X-21409Y-75435D01*
X-21584Y-75568D01*
X-21784Y-75435D01*
X-21934Y-75168D01*
X-22084Y-74768D01*
X-22134Y-74235D01*
Y-71568D01*
G01X-23159Y-72235D02*
X-23309Y-71835D01*
X-23484Y-71635D01*
X-23684Y-71568D01*
X-23934Y-71701D01*
X-24109Y-72035D01*
X-24159Y-72435D01*
X-24134Y-72835D01*
X-24034Y-73168D01*
X-23534Y-73835D01*
X-23309Y-74302D01*
X-23159Y-74968D01*
X-23109Y-75568D01*
X-24159D01*
G01X-30158Y-39792D02*
Y-59477D01*
G01D02*
X31102D01*
G01X26850D02*
X-26221D01*
G01X-15591Y-65972D02*
X-24449D01*
G01D02*
Y-59477D01*
G01X-23681Y-39792D02*
X-30158D01*
G01X-19129Y89789D02*
X-12940D01*
Y93021D01*
X-19129D01*
Y89789D01*
G01X-19274Y101652D02*
X-13085D01*
Y104884D01*
X-19274D01*
Y101652D01*
G01X-19070Y95720D02*
X-12881D01*
Y98952D01*
X-19070D01*
Y95720D01*
G01X15905Y-97916D02*
X-15591D01*
G01D02*
Y-65972D01*
G01X15556Y-82100D02*
G03I-15748J0D01*
G01X15905Y-65972D02*
X-15591D01*
G01X-14319Y51660D02*
Y55660D01*
X-14944D01*
X-15144Y55460D01*
X-15269Y55194D01*
X-15319Y54660D01*
X-15269Y54127D01*
X-15119Y53794D01*
X-14944Y53594D01*
X-14319D01*
G01X-14944D02*
X-15319Y51660D01*
G01X-16269Y52460D02*
X-16419Y51994D01*
X-16619Y51727D01*
X-16844Y51660D01*
X-17044Y51727D01*
X-17244Y52060D01*
X-17369Y52460D01*
X-17394Y52860D01*
X-17344Y53327D01*
X-17169Y53660D01*
X-16994Y53794D01*
X-16769D01*
G01X-16994D02*
X-17144Y53994D01*
X-17269Y54327D01*
X-17319Y54727D01*
X-17269Y55127D01*
X-17144Y55460D01*
X-16919Y55660D01*
X-16694Y55594D01*
X-16469Y55327D01*
G01X-13313Y43235D02*
Y49424D01*
X-16545D01*
Y43235D01*
X-13313D01*
G01X436Y49148D02*
X-10981D01*
Y44817D01*
X436D01*
Y49148D01*
G01X-12544Y70896D02*
X-16544D01*
G01X-12544Y70321D02*
Y71471D01*
G01X-16544Y72371D02*
X-12544Y73421D01*
G01Y72371D02*
X-16544Y73421D01*
G01Y74346D02*
X-12544D01*
Y74846D01*
X-12744Y75046D01*
X-13010Y75196D01*
X-13410Y75321D01*
X-13877Y75421D01*
X-14544Y75446D01*
X-15210Y75421D01*
X-15677Y75321D01*
X-16077Y75196D01*
X-16344Y75046D01*
X-16544Y74846D01*
Y74346D01*
G01X-7194Y71130D02*
X-3194D01*
Y71754D01*
X-3394Y71954D01*
X-3661Y72080D01*
X-4194Y72130D01*
X-4728Y72080D01*
X-5061Y71930D01*
X-5261Y71754D01*
Y71130D01*
G01Y71754D02*
X-7194Y72130D01*
G01Y73104D02*
X-3194Y74154D01*
G01Y73104D02*
X-7194Y74154D01*
G01Y75080D02*
X-3194D01*
Y75580D01*
X-3394Y75780D01*
X-3661Y75930D01*
X-4061Y76054D01*
X-4528Y76154D01*
X-5194Y76180D01*
X-5861Y76154D01*
X-6328Y76054D01*
X-6728Y75930D01*
X-6994Y75780D01*
X-7194Y75580D01*
Y75080D01*
G01X-5703Y89762D02*
Y93762D01*
X-6328D01*
X-6528Y93562D01*
X-6653Y93295D01*
X-6703Y92762D01*
X-6653Y92228D01*
X-6503Y91895D01*
X-6328Y91695D01*
X-5703D01*
G01X-6328D02*
X-6703Y89762D01*
G01X-8153D02*
X-8203Y90628D01*
X-8278Y91362D01*
X-8378Y92028D01*
X-8503Y92762D01*
X-8703Y93762D01*
X-7703D01*
G01X-10503Y89762D02*
Y93762D01*
X-9578Y90895D01*
X-10828D01*
G01X-6192Y95139D02*
Y99139D01*
X-6817D01*
X-7017Y98939D01*
X-7142Y98673D01*
X-7192Y98139D01*
X-7142Y97606D01*
X-6992Y97273D01*
X-6817Y97072D01*
X-6192D01*
G01X-6817D02*
X-7192Y95139D01*
G01X-8642D02*
X-8692Y96006D01*
X-8767Y96739D01*
X-8867Y97406D01*
X-8992Y98139D01*
X-9192Y99139D01*
X-8192D01*
G01X-10142Y95739D02*
X-10292Y95406D01*
X-10467Y95206D01*
X-10692Y95139D01*
X-10917Y95272D01*
X-11092Y95539D01*
X-11217Y96006D01*
X-11242Y96539D01*
X-11192Y97072D01*
X-11067Y97406D01*
X-10892Y97672D01*
X-10717Y97739D01*
X-10542Y97672D01*
X-10317Y97406D01*
X-10392Y99139D01*
X-11067D01*
G01X-6253Y101372D02*
Y105372D01*
X-6878D01*
X-7078Y105172D01*
X-7203Y104906D01*
X-7253Y104372D01*
X-7203Y103839D01*
X-7053Y103506D01*
X-6878Y103306D01*
X-6253D01*
G01X-6878D02*
X-7253Y101372D01*
G01X-8703D02*
X-8753Y102239D01*
X-8828Y102972D01*
X-8928Y103639D01*
X-9053Y104372D01*
X-9253Y105372D01*
X-8253D01*
G01X-10278Y103039D02*
X-10453Y103506D01*
X-10603Y103772D01*
X-10803Y103906D01*
X-10978Y103772D01*
X-11103Y103506D01*
X-11203Y103106D01*
X-11228Y102639D01*
X-11203Y102239D01*
X-11103Y101839D01*
X-10953Y101506D01*
X-10778Y101372D01*
X-10578Y101506D01*
X-10403Y101906D01*
X-10303Y102506D01*
X-10278Y103172D01*
X-10328Y104039D01*
X-10403Y104506D01*
X-10528Y104972D01*
X-10703Y105306D01*
X-10878Y105372D01*
X-11053Y105239D01*
X-11178Y104906D01*
G01X6458Y53983D02*
Y57983D01*
X5833D01*
X5633Y57783D01*
X5508Y57516D01*
X5458Y56983D01*
X5508Y56449D01*
X5658Y56116D01*
X5833Y55916D01*
X6458D01*
G01X5833D02*
X5458Y53983D01*
G01X4433Y57316D02*
X4283Y57716D01*
X4108Y57916D01*
X3908Y57983D01*
X3658Y57849D01*
X3483Y57516D01*
X3433Y57116D01*
X3458Y56716D01*
X3558Y56383D01*
X4058Y55716D01*
X4283Y55249D01*
X4433Y54583D01*
X4483Y53983D01*
X3433D01*
G01X1958D02*
Y57983D01*
X2258Y57183D01*
G01Y53983D02*
X1658D01*
G01X3392Y52035D02*
Y45846D01*
X6625D01*
Y52035D01*
X3392D01*
G01X-703Y51294D02*
X-503Y51361D01*
X-328Y51627D01*
X-178Y52027D01*
X-78Y52494D01*
X-28Y53027D01*
Y53561D01*
X-78Y54094D01*
X-178Y54561D01*
X-328Y54960D01*
X-503Y55227D01*
X-703Y55294D01*
X-903Y55227D01*
X-1078Y54960D01*
X-1228Y54561D01*
X-1328Y54094D01*
X-1378Y53561D01*
Y53027D01*
X-1328Y52494D01*
X-1228Y52027D01*
X-1078Y51627D01*
X-903Y51361D01*
X-703Y51294D01*
G01X-903Y52361D02*
X-1203Y51294D01*
G01X-2228Y54627D02*
X-2378Y55027D01*
X-2553Y55227D01*
X-2753Y55294D01*
X-3003Y55161D01*
X-3178Y54827D01*
X-3228Y54427D01*
X-3203Y54027D01*
X-3103Y53694D01*
X-2603Y53027D01*
X-2378Y52560D01*
X-2228Y51894D01*
X-2178Y51294D01*
X-3228D01*
G01X2766Y70774D02*
X6766D01*
Y71274D01*
X6566Y71474D01*
X6300Y71624D01*
X5900Y71749D01*
X5433Y71849D01*
X4766Y71874D01*
X4100Y71849D01*
X3633Y71749D01*
X3233Y71624D01*
X2966Y71474D01*
X2766Y71274D01*
Y70774D01*
G01X6766Y73324D02*
X2766D01*
G01X6766Y72749D02*
Y73899D01*
G01X2766Y74824D02*
X6766D01*
Y75449D01*
X6566Y75649D01*
X6300Y75774D01*
X5766Y75824D01*
X5233Y75774D01*
X4900Y75624D01*
X4700Y75449D01*
Y74824D01*
G01Y75449D02*
X2766Y75824D01*
G01X15905Y-65972D02*
Y-97916D01*
G01X10092Y-96073D02*
X12921Y-98901D01*
X13363Y-98459D01*
Y-98176D01*
X13263Y-97900D01*
X12921Y-97487D01*
X12508Y-97145D01*
X12167Y-97016D01*
X11901Y-96998D01*
X11459Y-97440D01*
G01X11901Y-96998D02*
X10800Y-95366D01*
G01X11825Y-94340D02*
X12473Y-94918D01*
X13044Y-95383D01*
X13587Y-95784D01*
X14194Y-96214D01*
X15042Y-96780D01*
X14335Y-97487D01*
G01X13274Y-92891D02*
X16103Y-95719D01*
X15325Y-95366D01*
G01X13062Y-93103D02*
X13486Y-92679D01*
G01X16314Y-101819D02*
X19142Y-104648D01*
X19584Y-104206D01*
Y-103923D01*
X19484Y-103646D01*
X19142Y-103233D01*
X18730Y-102892D01*
X18388Y-102762D01*
X18123Y-102744D01*
X17681Y-103186D01*
G01X18123Y-102744D02*
X17021Y-101112D01*
G01X18046Y-100087D02*
X18694Y-100664D01*
X19266Y-101130D01*
X19808Y-101530D01*
X20415Y-101961D01*
X21263Y-102526D01*
X20556Y-103234D01*
G01X19672Y-99592D02*
X19448Y-99156D01*
X19401Y-98826D01*
X19513Y-98620D01*
X19702Y-98525D01*
X20079Y-98620D01*
X20450Y-98814D01*
X20751Y-99079D01*
X21045Y-99444D01*
X21157Y-99804D01*
X21128Y-100022D01*
X20969Y-100181D01*
G01X21128Y-100022D02*
X21375Y-100057D01*
X21699Y-100205D01*
X22018Y-100452D01*
X22265Y-100770D01*
X22412Y-101094D01*
X22395Y-101395D01*
X22188Y-101507D01*
X21841Y-101477D01*
G01X23652Y-98940D02*
X28028Y-94563D01*
X25742Y-92278D01*
X21366Y-96654D01*
X23652Y-98940D01*
G01X12918Y-98859D02*
X15746Y-101687D01*
X16188Y-101245D01*
Y-100962D01*
X16088Y-100685D01*
X15746Y-100273D01*
X15334Y-99931D01*
X14992Y-99802D01*
X14727Y-99784D01*
X14285Y-100226D01*
G01X14727Y-99784D02*
X13625Y-98152D01*
G01X14650Y-97126D02*
X15298Y-97704D01*
X15870Y-98169D01*
X16412Y-98570D01*
X17019Y-99000D01*
X17867Y-99566D01*
X17160Y-100273D01*
G01X18121Y-98370D02*
X18510Y-98546D01*
X18775Y-98564D01*
X18963Y-98470D01*
X19046Y-98199D01*
X18934Y-97839D01*
X18686Y-97521D01*
X18386Y-97256D01*
X18080Y-97091D01*
X17255Y-96973D01*
X16766Y-96802D01*
X16188Y-96437D01*
X15728Y-96048D01*
X16471Y-95306D01*
G01X17111Y-92467D02*
X21487Y-88090D01*
X19202Y-85805D01*
X14826Y-90181D01*
X17111Y-92467D01*
G01X20381Y-95652D02*
X24758Y-91276D01*
X22472Y-88991D01*
X18096Y-93367D01*
X20381Y-95652D01*
G01X24763Y-65972D02*
X15905D01*
G01X26379Y53433D02*
Y57433D01*
X25754D01*
X25554Y57233D01*
X25429Y56966D01*
X25379Y56433D01*
X25429Y55899D01*
X25579Y55566D01*
X25754Y55366D01*
X26379D01*
G01X25754D02*
X25379Y53433D01*
G01X23929D02*
X23879Y54299D01*
X23804Y55033D01*
X23704Y55699D01*
X23579Y56433D01*
X23379Y57433D01*
X24379D01*
G01X21879D02*
X22079Y57299D01*
X22229Y56966D01*
X22329Y56566D01*
X22404Y56033D01*
X22429Y55433D01*
X22404Y54833D01*
X22329Y54299D01*
X22229Y53899D01*
X22079Y53566D01*
X21879Y53433D01*
X21679Y53566D01*
X21529Y53899D01*
X21429Y54299D01*
X21354Y54833D01*
X21329Y55433D01*
X21354Y56033D01*
X21429Y56566D01*
X21529Y56966D01*
X21679Y57299D01*
X21879Y57433D01*
G01X15915Y53481D02*
X16115Y53547D01*
X16290Y53814D01*
X16440Y54214D01*
X16540Y54681D01*
X16590Y55214D01*
Y55747D01*
X16540Y56281D01*
X16440Y56747D01*
X16290Y57147D01*
X16115Y57414D01*
X15915Y57481D01*
X15715Y57414D01*
X15540Y57147D01*
X15390Y56747D01*
X15290Y56281D01*
X15240Y55747D01*
Y55214D01*
X15290Y54681D01*
X15390Y54214D01*
X15540Y53814D01*
X15715Y53547D01*
X15915Y53481D01*
G01X15715Y54547D02*
X15415Y53481D01*
G01X13915D02*
Y57481D01*
X14215Y56681D01*
G01Y53481D02*
X13615D01*
G01X20719Y49148D02*
X9302D01*
Y44817D01*
X20719D01*
Y49148D01*
G01X14072Y70885D02*
X18072D01*
Y71510D01*
X17872Y71710D01*
X17605Y71835D01*
X17072Y71885D01*
X16538Y71835D01*
X16205Y71685D01*
X16005Y71510D01*
Y70885D01*
G01Y71510D02*
X14072Y71885D01*
G01X18072Y73385D02*
X14072D01*
G01X18072Y72810D02*
Y73960D01*
G01X14605Y74860D02*
X14272Y75060D01*
X14072Y75285D01*
Y75485D01*
X14272Y75685D01*
X14605Y75835D01*
X15072Y75910D01*
X15538Y75860D01*
X15938Y75735D01*
X16205Y75510D01*
X16338Y75210D01*
X16605Y75035D01*
X17072Y74960D01*
X17538Y75010D01*
X17872Y75135D01*
X18072Y75310D01*
Y75485D01*
X17938Y75660D01*
X17605Y75810D01*
G01X31102Y-59477D02*
Y-39792D01*
G01X24763Y-59477D02*
Y-65972D01*
G01X31102Y-39792D02*
X23512D01*
G01X22777Y52027D02*
Y45838D01*
X26009D01*
Y52027D01*
X22777D01*
G01X38804Y57745D02*
X38451Y58098D01*
X37602Y57250D01*
X37425Y56861D01*
X37360Y56548D01*
X37443Y56277D01*
X37714Y56195D01*
X38026Y56260D01*
X38415Y56436D01*
X38816Y56696D01*
X39229Y57038D01*
X39558Y57367D01*
X39806Y57686D01*
X40065Y58086D01*
X40242Y58475D01*
X40324Y58770D01*
Y59053D01*
X40201Y59176D01*
X39965Y59224D01*
X39670Y59141D01*
G01X36488Y57232D02*
X39317Y60060D01*
X35675Y58045D01*
X38504Y60874D01*
G01X35057Y58664D02*
X37885Y61492D01*
X37532Y61846D01*
X37249Y61846D01*
X36954Y61763D01*
X36583Y61569D01*
X36182Y61310D01*
X35693Y60856D01*
X35239Y60367D01*
X34980Y59966D01*
X34785Y59595D01*
X34703Y59300D01*
Y59017D01*
X35057Y58664D01*
G01X62933Y-84936D02*
X67309Y-80559D01*
X65024Y-78274D01*
X60647Y-82650D01*
X62933Y-84936D01*
G01X64308Y-68198D02*
X61480Y-65369D01*
X61038Y-65811D01*
Y-66094D01*
X61138Y-66371D01*
X61480Y-66784D01*
X61893Y-67126D01*
X62234Y-67255D01*
X62500Y-67273D01*
X62941Y-66831D01*
G01X62500Y-67273D02*
X63601Y-68905D01*
G01X62541Y-69966D02*
X62370Y-70042D01*
X62087Y-70042D01*
X61763Y-69895D01*
X61398Y-69600D01*
X61103Y-69235D01*
X60926Y-68846D01*
X60944Y-68546D01*
X61121Y-68369D01*
X61132Y-68168D01*
X60985Y-67844D01*
X60691Y-67479D01*
X60308Y-67202D01*
X59948Y-67090D01*
X59712Y-67137D01*
X59665Y-67373D01*
X59777Y-67732D01*
X60054Y-68115D01*
X60420Y-68410D01*
X60743Y-68557D01*
X60944Y-68546D01*
X61121Y-68369D01*
X61421Y-68351D01*
X61810Y-68528D01*
X62175Y-68823D01*
X62470Y-69188D01*
X62617Y-69512D01*
Y-69795D01*
X62541Y-69966D01*
G01X58298Y-68551D02*
X58534Y-68504D01*
X58876Y-68634D01*
X59229Y-68846D01*
X59659Y-69170D01*
X60101Y-69577D01*
X60508Y-70019D01*
X60832Y-70449D01*
X61044Y-70802D01*
X61174Y-71144D01*
X61127Y-71380D01*
X60891Y-71427D01*
X60549Y-71297D01*
X60196Y-71085D01*
X59765Y-70761D01*
X59324Y-70355D01*
X58917Y-69913D01*
X58593Y-69482D01*
X58381Y-69129D01*
X58251Y-68787D01*
X58298Y-68551D01*
G01X55606Y-78161D02*
X59983Y-73785D01*
X57697Y-71499D01*
X53321Y-75876D01*
X55606Y-78161D01*
G01X68097Y-72567D02*
X65269Y-69739D01*
X64827Y-70181D01*
Y-70464D01*
X64927Y-70740D01*
X65269Y-71153D01*
X65681Y-71495D01*
X66023Y-71624D01*
X66288Y-71642D01*
X66730Y-71200D01*
G01X66288Y-71642D02*
X67390Y-73274D01*
G01X66330Y-74335D02*
X66159Y-74411D01*
X65876Y-74412D01*
X65552Y-74264D01*
X65186Y-73970D01*
X64892Y-73604D01*
X64715Y-73215D01*
X64733Y-72915D01*
X64909Y-72738D01*
X64921Y-72538D01*
X64774Y-72214D01*
X64479Y-71848D01*
X64096Y-71571D01*
X63737Y-71459D01*
X63501Y-71506D01*
X63454Y-71742D01*
X63566Y-72102D01*
X63843Y-72485D01*
X64208Y-72779D01*
X64532Y-72926D01*
X64733Y-72915D01*
X64909Y-72738D01*
X65210Y-72720D01*
X65599Y-72897D01*
X65964Y-73192D01*
X66259Y-73557D01*
X66406Y-73881D01*
Y-74164D01*
X66330Y-74335D01*
G01X64915Y-75749D02*
X62087Y-72921D01*
X62865Y-73274D01*
G01X65127Y-75537D02*
X64703Y-75961D01*
G01X59474Y-81563D02*
X63850Y-77187D01*
X61564Y-74901D01*
X57188Y-79277D01*
X59474Y-81563D01*
G01X61408Y33772D02*
X61066Y33642D01*
X60801Y33624D01*
X60595Y33736D01*
X60530Y33990D01*
X60595Y34302D01*
X60837Y34720D01*
X61196Y35115D01*
X61609Y35457D01*
X61933Y35604D01*
X62245Y35669D01*
X62416Y35593D01*
X62492Y35422D01*
X62463Y35074D01*
X63636Y36353D01*
X63158Y36830D01*
G01X62451Y37537D02*
X59181Y35151D01*
X61567Y38421D01*
G01X62048Y66075D02*
X64876Y68904D01*
X64434Y69346D01*
X64151D01*
X63874Y69246D01*
X63462Y68904D01*
X63120Y68491D01*
X62991Y68150D01*
X62973Y67884D01*
X63415Y67442D01*
G01X62973Y67884D02*
X61341Y66783D01*
G01X60280Y67843D02*
X60203Y68014D01*
X60203Y68297D01*
X60351Y68621D01*
X60645Y68986D01*
X61011Y69281D01*
X61400Y69458D01*
X61700Y69440D01*
X61877Y69263D01*
X62077Y69251D01*
X62401Y69399D01*
X62767Y69693D01*
X63044Y70076D01*
X63156Y70436D01*
X63108Y70672D01*
X62873Y70719D01*
X62513Y70607D01*
X62130Y70330D01*
X61836Y69964D01*
X61688Y69640D01*
X61700Y69440D01*
X61877Y69263D01*
X61895Y68963D01*
X61718Y68574D01*
X61423Y68208D01*
X61058Y67914D01*
X60734Y67766D01*
X60451D01*
X60280Y67843D01*
G01X59820Y69434D02*
X59384Y69210D01*
X59054Y69163D01*
X58848Y69275D01*
X58754Y69464D01*
X58848Y69841D01*
X59042Y70212D01*
X59308Y70512D01*
X59673Y70807D01*
X60033Y70919D01*
X60251Y70890D01*
X60410Y70730D01*
G01X60251Y70890D02*
X60286Y71137D01*
X60433Y71461D01*
X60681Y71779D01*
X60999Y72027D01*
X61323Y72174D01*
X61624Y72157D01*
X61736Y71950D01*
X61706Y71602D01*
G01X53219Y76445D02*
X57595Y72069D01*
X59881Y74355D01*
X55504Y78731D01*
X53219Y76445D01*
G01X65867Y69834D02*
X68696Y72662D01*
X68254Y73104D01*
X67971D01*
X67694Y73004D01*
X67281Y72662D01*
X66939Y72250D01*
X66810Y71908D01*
X66792Y71643D01*
X67234Y71201D01*
G01X66792Y71643D02*
X65160Y70541D01*
G01X64099Y71601D02*
X64023Y71772D01*
X64023Y72055D01*
X64170Y72379D01*
X64465Y72745D01*
X64830Y73039D01*
X65219Y73216D01*
X65519Y73198D01*
X65696Y73022D01*
X65896Y73010D01*
X66221Y73157D01*
X66586Y73452D01*
X66863Y73835D01*
X66975Y74194D01*
X66928Y74430D01*
X66692Y74477D01*
X66332Y74365D01*
X65950Y74088D01*
X65655Y73723D01*
X65508Y73399D01*
X65519Y73198D01*
X65696Y73022D01*
X65714Y72721D01*
X65537Y72332D01*
X65242Y71967D01*
X64877Y71672D01*
X64553Y71525D01*
X64270D01*
X64099Y71601D01*
G01X62473Y73228D02*
X65301Y76056D01*
X63928Y73375D01*
X63044Y74259D01*
G01X56664Y79686D02*
X61041Y75309D01*
X63326Y77595D01*
X58950Y81971D01*
X56664Y79686D01*
G01X60197Y82871D02*
X64573Y78495D01*
X66858Y80780D01*
X62482Y85157D01*
X60197Y82871D01*
G01X71856Y-76203D02*
X69027Y-73374D01*
X68585Y-73816D01*
Y-74099D01*
X68685Y-74376D01*
X69027Y-74789D01*
X69440Y-75131D01*
X69781Y-75260D01*
X70046Y-75278D01*
X70488Y-74836D01*
G01X70046Y-75278D02*
X71148Y-76910D01*
G01X70088Y-77971D02*
X69917Y-78047D01*
X69634Y-78047D01*
X69310Y-77900D01*
X68945Y-77605D01*
X68650Y-77240D01*
X68473Y-76851D01*
X68491Y-76551D01*
X68668Y-76374D01*
X68680Y-76174D01*
X68532Y-75849D01*
X68238Y-75484D01*
X67854Y-75207D01*
X67495Y-75095D01*
X67259Y-75142D01*
X67212Y-75378D01*
X67324Y-75738D01*
X67601Y-76120D01*
X67966Y-76415D01*
X68290Y-76562D01*
X68491Y-76551D01*
X68668Y-76374D01*
X68968Y-76356D01*
X69357Y-76533D01*
X69722Y-76828D01*
X70017Y-77193D01*
X70164Y-77517D01*
Y-77800D01*
X70088Y-77971D01*
G01X66652Y-76692D02*
X66264Y-76515D01*
X65998Y-76498D01*
X65810Y-76592D01*
X65727Y-76863D01*
X65839Y-77222D01*
X66087Y-77540D01*
X66387Y-77806D01*
X66694Y-77971D01*
X67519Y-78089D01*
X68008Y-78260D01*
X68585Y-78625D01*
X69045Y-79014D01*
X68302Y-79756D01*
G01X69198Y73683D02*
X72026Y76512D01*
X71584Y76954D01*
X71301D01*
X71024Y76854D01*
X70612Y76512D01*
X70270Y76099D01*
X70140Y75758D01*
X70123Y75492D01*
X70565Y75050D01*
G01X70123Y75492D02*
X68490Y74390D01*
G01X67430Y75451D02*
X67353Y75622D01*
X67353Y75905D01*
X67500Y76229D01*
X67795Y76594D01*
X68160Y76889D01*
X68549Y77066D01*
X68850Y77048D01*
X69027Y76871D01*
X69227Y76859D01*
X69551Y77007D01*
X69916Y77301D01*
X70193Y77684D01*
X70305Y78044D01*
X70258Y78280D01*
X70022Y78327D01*
X69663Y78215D01*
X69280Y77938D01*
X68985Y77572D01*
X68838Y77248D01*
X68850Y77048D01*
X69027Y76871D01*
X69044Y76571D01*
X68867Y76182D01*
X68573Y75816D01*
X68208Y75522D01*
X67883Y75374D01*
X67601D01*
X67430Y75451D01*
G01X66829Y76901D02*
X66487Y76771D01*
X66222Y76753D01*
X66016Y76865D01*
X65951Y77119D01*
X66016Y77431D01*
X66257Y77849D01*
X66617Y78244D01*
X67029Y78586D01*
X67353Y78733D01*
X67666Y78798D01*
X67836Y78722D01*
X67913Y78551D01*
X67884Y78203D01*
X69056Y79482D01*
X68579Y79959D01*
G54D11*
G01X-85795Y52977D02*
X-95587Y43185D01*
G01D02*
X-93739Y41337D01*
G01X-79532Y27130D02*
X-78882Y26480D01*
G01D02*
X-67746Y37615D01*
G01X-82321Y52190D02*
X-83735Y53604D01*
G01D02*
X-85795Y52977D01*
G01X-67746Y37615D02*
X-68541Y38411D01*
G54D12*
G01X101632Y12205D02*
G03Y-12205I0J-12205D01*
G01X107578D01*
G02X12205Y-107578I-107578J12205D01*
G01Y-101632D01*
G03X-12205I-12205J0D01*
G01Y-107578D01*
G02X-107578Y-12205I12205J107578D01*
G01X-101632D01*
G03Y12205I0J12205D01*
G01X-107578D01*
G02X107578I107578J-12205D01*
G01X101632D01*
G01X29528Y0D02*
G02I-29528J0D01*
G01X-23705Y27839D02*
G02I-4134J0D01*
G01X4725Y-82087D02*
G02I-4724J0D01*
G01Y82087D02*
G02I-4724J0D01*
G01X31973Y-27839D02*
G02I-4134J0D01*
M02*
