M48
;Layer_Color=9474304
;FILE_FORMAT=2:5
INCH,LZ
;TYPE=PLATED
T1F00S00C0.01200
T2F00S00C0.02000
T3F00S00C0.03000
T4F00S00C0.03150
T5F00S00C0.03543
T7F00S00C0.03937
%
T01
X0141401Y-0012126
X0139Y00022
X01448Y00025
X01494Y0003874
X01547Y00027
X01545Y00202
X01537Y00243
X0153401Y0027874
X01427Y00286
X01426Y00327
X01424Y00368
X01428Y00419
X01374Y0043874
X01346Y00472
X012976Y004424
X0121886Y0042961
X01176Y00403
X011574Y004756
X0109Y00489
X0108294Y0057205
X01158Y00833
X01248Y00827
X0135002Y0083298
X01391Y00848
X01326Y0079258
X0135002Y00718
X01391Y00717
X01438Y00736
X0146Y00699
X01506Y00553
X0154Y00539
X0153401Y0043874
X01555Y00412
X01401Y0018
X01366Y00167
X0133Y00152
X01311Y00192
X0129401Y0011874
X01214
X01181Y00196
X01177Y00237
X0118509Y003108
X01374Y0011874
X01363Y00066
X01334Y0003874
X01374Y0107874
X01056Y00968
X01004Y00991
X0091168Y00843
X0088Y0081
X00774Y0083874
X00734Y0075874
X0069401Y0067874
X0061401
X00534
X0045401
X00374
X0029401
X00214
X00134
X0005401
X-0002599
X-0010599
X-00146Y0059874
X-00066
X00014
X0009401
X0017401
X0025401
X00334
X0041401
X00494
X0057401
X00654
X0061401Y0051874
X00534
X0045401
X00374
X0029401
X00214
X00134
X0005401
X-0002599
X-0010599
X-0026599
X-00346
X-0042599
X-00466Y0059874
X-00386
X-0030599
X-00346Y0067874
X-0042599
X-00386Y0075874
X-00226
X-00146
X-00066
X00014
X0009401
X0017401
X0025401
X00214Y0083874
X00134
X0005401
X-0002599
X-0010599
X-0018599
X-0026599
X-00226Y0091874
X-00146
X-00066
X00014
X0009401
X0017401
X0025401
X00334
X0041401
X00374Y0099874
X0029401
X00214
X00134
X0005401
X-0002599
X-0026599
Y0035874
X-00346
X-0042599
X-00466Y0027874
X-00386
X-0030599
Y0011874
X-00466
X-00386Y-0004126
X-0030599
X-00226
X-00146
X-00066
X00014
X0009401
X0017401
X0025401
X00214Y-0012126
X00134
X0005401
X-0002599
X-0010599
X-0018599
X-0026599
X-00346
X-0010599Y0003874
X-0002599
X0005401
X00134
X00214
X00134Y0019874
X0009401Y0027874
X0017401
X0025401
X00334
X0041401
X00494
X0045401Y0019874
X00374
X0029401
X00534
X00774
X00854
X0081401Y0011874
X0089401
X00854Y0003874
X00974Y-0004126
X01028Y00121
X01002Y00178
X0089401Y0027874
X0081401
X00774Y0035874
X00854
X0089968Y0037032
X0091168Y0042032
X0081401Y0043874
X00804Y00514
X00774Y0067874
X00838Y00687
X010512Y005728
X00654Y0043874
X00494
X0041401
X00334
X0025401
X0017401
X0009401
X-0010599Y0035874
X-00146Y0027874
X-00066Y0011874
X0029401Y-0012126
X00374
X0045401
X0064601Y-0003698
X00774Y-0012126
X0045268Y0037032
X0029401Y0083874
X-0050599Y0051874
Y0035874
Y0019874
Y0003874
X01374Y0123874
T02
X01078Y0027032
Y0032032
Y0037032
Y0042032
X01227Y00584
X01265Y00546
X0121886Y00697
X0146067Y00593
X00466Y00094
X00402
X-00034Y0027032
Y0032032
Y0037032
Y0042032
X-00221Y01754
T03
X00978Y00937
T04
X01134Y0133126
X01334Y0148874
T05
X0112901Y-0009279
X0122901
X0132902
X0132402Y0092621
X0122401
X0112401
X0102901Y-0009279
X0092901
X0082902
X-0010679Y00987
X-0020521
T07
X-0004298Y0129215
Y0141026
X0107137Y0115521
X0136666
M30
