%FSLAX25Y25*%
%MOIN*%
G70*
G01*
G75*
G04 Layer_Color=128*
%ADD10C,0.01000*%
%ADD11C,0.00800*%
%ADD12C,0.03000*%
%ADD13C,0.02000*%
%ADD14C,0.04000*%
%ADD15R,0.11811X0.09843*%
%ADD16O,0.11811X0.09843*%
%ADD17R,0.02362X0.02362*%
%ADD18R,0.03347X0.02756*%
%ADD19R,0.09843X0.09843*%
%ADD20R,0.04724X0.01181*%
%ADD21R,0.01181X0.04724*%
%ADD22R,0.02362X0.02362*%
%ADD23R,0.03937X0.04134*%
%ADD24R,0.04134X0.08661*%
%ADD25R,0.04724X0.04331*%
%ADD26R,0.03543X0.06299*%
G04:AMPARAMS|DCode=27|XSize=21.65mil|YSize=9.84mil|CornerRadius=2.46mil|HoleSize=0mil|Usage=FLASHONLY|Rotation=0.000|XOffset=0mil|YOffset=0mil|HoleType=Round|Shape=RoundedRectangle|*
%AMROUNDEDRECTD27*
21,1,0.02165,0.00492,0,0,0.0*
21,1,0.01673,0.00984,0,0,0.0*
1,1,0.00492,0.00837,-0.00246*
1,1,0.00492,-0.00837,-0.00246*
1,1,0.00492,-0.00837,0.00246*
1,1,0.00492,0.00837,0.00246*
%
%ADD27ROUNDEDRECTD27*%
%ADD28R,0.04331X0.04724*%
%ADD29R,0.13780X0.04724*%
%ADD30R,0.08661X0.11024*%
%ADD31R,0.02756X0.03347*%
%ADD32R,0.07087X0.03937*%
%ADD33R,0.01969X0.03150*%
%ADD34R,0.02200X0.06800*%
%ADD35R,0.05000X0.08200*%
%ADD36R,0.19000X0.05200*%
%ADD37R,0.14100X0.20100*%
%ADD38R,0.19200X0.07300*%
%ADD39C,0.00500*%
%ADD40C,0.06000*%
%ADD41R,0.33465X0.07874*%
%ADD42O,0.06000X0.03000*%
%ADD43R,0.06000X0.03000*%
%ADD44R,0.05906X0.05906*%
%ADD45C,0.05906*%
%ADD46R,0.13780X0.35433*%
%ADD47C,0.02000*%
%ADD48C,0.03000*%
%ADD49C,0.04000*%
%ADD50R,0.03937X0.02362*%
%ADD51R,0.03937X0.07299*%
G04:AMPARAMS|DCode=52|XSize=157.48mil|YSize=275.59mil|CornerRadius=0mil|HoleSize=0mil|Usage=FLASHONLY|Rotation=180.000|XOffset=0mil|YOffset=0mil|HoleType=Round|Shape=Octagon|*
%AMOCTAGOND52*
4,1,8,0.03937,-0.13780,-0.03937,-0.13780,-0.07874,-0.09843,-0.07874,0.09843,-0.03937,0.13780,0.03937,0.13780,0.07874,0.09843,0.07874,-0.09843,0.03937,-0.13780,0.0*
%
%ADD52OCTAGOND52*%

%ADD53R,0.03150X0.05512*%
%ADD54R,0.03150X0.05512*%
%ADD55R,0.27200X0.43300*%
%ADD56R,0.13500X0.48000*%
%ADD57R,0.35700X0.14100*%
%ADD58R,0.14000X0.05900*%
%ADD59R,0.20500X0.07100*%
%ADD60R,0.08100X0.16600*%
%ADD61R,0.42700X0.04000*%
%ADD62R,0.26300X0.10800*%
%ADD63R,0.08500X0.52200*%
%ADD64C,0.06299*%
%ADD65C,0.05906*%
%ADD66C,0.07087*%
%ADD67C,0.01500*%
%ADD68C,0.00591*%
%ADD69C,0.00787*%
%ADD70C,0.00600*%
%ADD71R,0.12611X0.10642*%
%ADD72O,0.12611X0.10642*%
%ADD73R,0.03162X0.03162*%
%ADD74R,0.04147X0.03556*%
%ADD75R,0.10642X0.10642*%
%ADD76R,0.05524X0.01981*%
%ADD77R,0.01981X0.05524*%
%ADD78R,0.03162X0.03162*%
%ADD79R,0.04737X0.04934*%
%ADD80R,0.04934X0.09461*%
%ADD81R,0.05524X0.05131*%
%ADD82R,0.04343X0.07099*%
G04:AMPARAMS|DCode=83|XSize=29.65mil|YSize=17.84mil|CornerRadius=4.46mil|HoleSize=0mil|Usage=FLASHONLY|Rotation=0.000|XOffset=0mil|YOffset=0mil|HoleType=Round|Shape=RoundedRectangle|*
%AMROUNDEDRECTD83*
21,1,0.02965,0.00892,0,0,0.0*
21,1,0.02073,0.01784,0,0,0.0*
1,1,0.00892,0.01037,-0.00446*
1,1,0.00892,-0.01037,-0.00446*
1,1,0.00892,-0.01037,0.00446*
1,1,0.00892,0.01037,0.00446*
%
%ADD83ROUNDEDRECTD83*%
%ADD84R,0.05131X0.05524*%
%ADD85R,0.14579X0.05524*%
%ADD86R,0.09461X0.11824*%
%ADD87R,0.03556X0.04147*%
%ADD88R,0.07887X0.04737*%
%ADD89R,0.02769X0.03950*%
%ADD90C,0.06800*%
%ADD91C,0.06394*%
%ADD92R,0.34265X0.08674*%
%ADD93O,0.06800X0.03800*%
%ADD94R,0.06800X0.03800*%
%ADD95R,0.06706X0.06706*%
%ADD96C,0.06706*%
%ADD97R,0.14579X0.36233*%
%ADD98R,0.13500X0.35600*%
%ADD99R,0.10700X0.39500*%
%ADD100R,0.26800X0.07000*%
%ADD101R,0.04737X0.03162*%
%ADD102R,0.04737X0.08099*%
G04:AMPARAMS|DCode=103|XSize=165.48mil|YSize=283.59mil|CornerRadius=0mil|HoleSize=0mil|Usage=FLASHONLY|Rotation=180.000|XOffset=0mil|YOffset=0mil|HoleType=Round|Shape=Octagon|*
%AMOCTAGOND103*
4,1,8,0.04137,-0.14179,-0.04137,-0.14179,-0.08274,-0.10043,-0.08274,0.10043,-0.04137,0.14179,0.04137,0.14179,0.08274,0.10043,0.08274,-0.10043,0.04137,-0.14179,0.0*
%
%ADD103OCTAGOND103*%

%ADD104R,0.03950X0.06312*%
%ADD105R,0.03950X0.06312*%
%ADD106C,0.07099*%
%ADD107C,0.06299*%
%ADD108C,0.07887*%
D17*
X95101Y74621D02*
D03*
Y70684D02*
D03*
X95201Y61821D02*
D03*
Y65758D02*
D03*
X124200Y46500D02*
D03*
Y50437D02*
D03*
X121800Y40100D02*
D03*
Y36163D02*
D03*
D31*
X49294Y-8400D02*
D03*
X55200D02*
D03*
D32*
X122500Y85895D02*
D03*
Y73100D02*
D03*
D39*
X80160Y210284D02*
G03*
X76223Y210284I-1969J0D01*
G01*
X28979D02*
G03*
X25042Y210284I-1969J0D01*
G01*
Y151229D02*
G03*
X28979Y151229I1969J0D01*
G01*
X-41691Y208661D02*
G03*
X-41691Y208661I-4134J0D01*
G01*
X155160Y-3858D02*
G03*
X155160Y-3858I-4134J0D01*
G01*
X-41691D02*
G03*
X-41691Y-3858I-4134J0D01*
G01*
X-53698Y-7826D02*
G03*
X-45825Y-15700I7874J0D01*
G01*
X151026D02*
G03*
X158900Y-7826I0J7874D01*
G01*
X-53698Y69343D02*
G03*
X-37951Y88631I-3937J19287D01*
G01*
X143152D02*
G03*
X158900Y69343I19685J0D01*
G01*
Y135477D02*
G03*
X143152Y116190I3937J-19287D01*
G01*
X76223Y151229D02*
G03*
X80160Y151229I1969J0D01*
G01*
X27798Y132874D02*
G03*
X27798Y132874I-3347J0D01*
G01*
X83309D02*
G03*
X83309Y132874I-3347J0D01*
G01*
X80160Y210284D02*
G03*
X76223Y210284I-1969J0D01*
G01*
X28979D02*
G03*
X25042Y210284I-1969J0D01*
G01*
Y151229D02*
G03*
X28979Y151229I1969J0D01*
G01*
X-41691Y208661D02*
G03*
X-41691Y208661I-4134J0D01*
G01*
X155160D02*
G03*
X155160Y208661I-4134J0D01*
G01*
X-53698Y-7826D02*
G03*
X-45825Y-15700I7874J0D01*
G01*
X151026D02*
G03*
X158900Y-7826I0J7874D01*
G01*
Y210630D02*
G03*
X151026Y218504I-7874J0D01*
G01*
X-53698Y69343D02*
G03*
X-37951Y88631I-3937J19287D01*
G01*
X143152D02*
G03*
X158900Y69343I19685J0D01*
G01*
Y135477D02*
G03*
X143152Y116190I3937J-19287D01*
G01*
X-37951Y116190D02*
G03*
X-52541Y135204I-19685J0D01*
G01*
X76223Y151229D02*
G03*
X80160Y151229I1969J0D01*
G01*
X-45825Y218504D02*
G03*
X-53698Y210630I0J-7874D01*
G01*
Y201100D02*
Y210630D01*
Y201100D02*
X-39000D01*
X158900Y-7826D02*
Y69343D01*
X143152Y88631D02*
Y116190D01*
X80160Y151229D02*
Y210284D01*
X76223Y151229D02*
Y210284D01*
X28979Y151229D02*
Y210284D01*
X25042Y151229D02*
Y210284D01*
X-37951Y88631D02*
Y116190D01*
X-53698Y-7826D02*
Y69343D01*
X-45825Y218504D02*
X151026D01*
X158900Y-7826D02*
Y69343D01*
Y135477D02*
Y210630D01*
X143152Y88631D02*
Y116190D01*
X80160Y151229D02*
Y210284D01*
X76223Y151229D02*
Y210284D01*
X28979Y151229D02*
Y210284D01*
X25042Y151229D02*
Y210284D01*
X-37951Y88631D02*
Y116190D01*
X61000Y105200D02*
X109400D01*
X122300Y118100D01*
Y124000D01*
X120300D02*
X122300D01*
X120300Y119000D02*
Y124000D01*
X109000Y107700D02*
X120300Y119000D01*
X61000Y107700D02*
X109000D01*
X61000Y105200D02*
Y107700D01*
X-24300Y183900D02*
X-20600D01*
X-18200Y181500D01*
Y165300D02*
Y181500D01*
Y165300D02*
X-15400D01*
Y184900D01*
X-18300Y187800D02*
X-15400Y184900D01*
X-39000Y187800D02*
X-18300D01*
X-39000Y183900D02*
X-24300D01*
X-39000Y187800D02*
Y201100D01*
Y136051D02*
Y183900D01*
X-9300Y138100D02*
Y155000D01*
Y138100D02*
X-7800Y136600D01*
X700D01*
Y151800D01*
X3900D01*
Y135300D02*
Y151800D01*
X3200Y134600D02*
X3900Y135300D01*
X-10500Y134600D02*
X3200D01*
X-13100Y137200D02*
X-10500Y134600D01*
X-13100Y137200D02*
Y155000D01*
X-9300D01*
X-45825Y-15700D02*
X110100D01*
X105412D02*
X151026D01*
X-52541Y135204D02*
Y135714D01*
X-52204Y136051D02*
X-39000D01*
X-52541Y135714D02*
X-52204Y136051D01*
D50*
X101302Y75495D02*
D03*
X111144Y71558D02*
D03*
X101302Y67621D02*
D03*
X100901Y60495D02*
D03*
X110744Y56558D02*
D03*
X100901Y52621D02*
D03*
D51*
X65146Y3914D02*
D03*
D52*
X65201Y21021D02*
D03*
D53*
X56091Y3021D02*
D03*
D54*
X74202D02*
D03*
M02*
