G04 ================== begin FILE IDENTIFICATION RECORD ==================*
G04 Layout Name:  F:/projects/git/Hardware/magnetic/PCB/ANT/top.brd*
G04 Film Name:    TOP*
G04 File Format:  Gerber RS274X*
G04 File Origin:  Cadence Allegro 16.6-2015-S108*
G04 Origin Date:  Sun Nov 17 15:31:02 2019*
G04 *
G04 Layer:  BOARD GEOMETRY/OUTLINE*
G04 Layer:  ETCH/TOP*
G04 Layer:  PIN/TOP*
G04 Layer:  VIA CLASS/TOP*
G04 *
G04 Offset:    (0.0000 0.0000)*
G04 Mirror:    No*
G04 Mode:      Positive*
G04 Rotation:  0*
G04 FullContactRelief:  No*
G04 UndefLineWidth:     0.1270*
G04 ================== end FILE IDENTIFICATION RECORD ====================*
%FSLAX35Y35*MOMM*%
%IR0*IPPOS*OFA0.00000B0.00000*MIA0B0*SFA1.00000B1.00000*%
%ADD10R,4.X1.5*%
%ADD11C,.127*%
G75*
%LPD*%
G75*
G36*
G01X-2324790Y-2199000D02*
Y-2200400D01*
X-2324520Y-2200690D01*
G03X1210000Y-2963490I2324512J2200692D01*
G02X1224000Y-2972900I3839J-9408D01*
G01Y-3170960D01*
G02X-2735730Y-2017190I-1224014J3170959D01*
G02X-2727550Y-2001000I8179J6029D01*
G01X2498480D01*
G03X3005930Y-1100360I-2498479J2001002D01*
G01X3005940Y-1100340D01*
X3006000Y-1100180D01*
Y-1099000D01*
X-3216420D01*
G02X-3393170Y199000I3216419J1099017D01*
G01X2476000D01*
Y901000D01*
X-3264050D01*
G02X-3273840Y913890I-4J10160D01*
G02X-2749040Y1999000I3273836J-913889D01*
G01X2499000D01*
Y2000350D01*
X2498780Y2000630D01*
G03X-761420Y3109120I-2498775J-2000631D01*
G02X-774000Y3118990I-2421J9866D01*
G01Y3309710D01*
G02X2872840Y1816590I773997J-3309702D01*
G02X2864250Y1801000I-8586J-5431D01*
G01X-2646280D01*
G03X-3005930Y1100360I2646278J-1801005D01*
G01X-3005940Y1100340D01*
X-3006000Y1100180D01*
Y1099000D01*
X3216420D01*
G02X3393170Y-199000I-3216419J-1099017D01*
G01X-2676000D01*
Y-901000D01*
X3264050D01*
G02X3273840Y-913890I4J-10160D01*
G02X2591840Y-2199000I-3273841J913886D01*
G01X-2324790D01*
G37*
%LPC*%
G75*
G36*
G01X3193760Y200080D02*
Y199980D01*
X2674980D01*
Y900020D01*
X3070840D01*
G02X3193760Y200080I-3070836J-900048D01*
G37*
G36*
G01X3100000Y50020D02*
G02Y-50020I0J-50020D01*
G01X2800000D01*
G02Y50020I0J50020D01*
G01X3100000D01*
G37*
G36*
G01X150000D02*
G02Y-50020I0J-50020D01*
G01X-150000D01*
G02Y50020I0J50020D01*
G01X150000D01*
G37*
G36*
G01X-2800000Y-50020D02*
X-3100000D01*
G02Y50020I0J50020D01*
G01X-2800000D01*
G02Y-50020I0J-50020D01*
G37*
G36*
G01X-3193760Y-200080D02*
Y-199980D01*
X-2874980D01*
Y-900020D01*
X-3070840D01*
G02X-3193760Y-200080I3070836J900048D01*
G37*
%LPD*%
G75*
G54D10*
X0Y-125000D03*
G54D11*
G01X3900000Y0D02*
G02I-3900000J0D01*
G01X-2800000Y-50000D02*
G03Y50000I0J50000D01*
G01X-3100000D01*
G03Y-50000I0J-50000D01*
G01X-2800000D01*
G01X-2438760Y-1307040D02*
G02I-149995J3D01*
G01X150000Y-50000D02*
X-150000D01*
G02Y50000I0J50000D01*
G01X150000D01*
G02Y-50000I0J-50000D01*
G01Y2400000D02*
G02I-150000J0D01*
G01X2754720Y-1274930D02*
G02I-150001J5D01*
G01X3100000Y-50000D02*
X2800000D01*
G02Y50000I0J50000D01*
G01X3100000D01*
G02Y-50000I0J-50000D01*
M02*
