M48
;Layer_Color=9474304
;FILE_FORMAT=2:5
INCH,LZ
;TYPE=PLATED
T1F00S00C0.01200
T2F00S00C0.03543
%
T01
X00039Y-00449
X0004Y-00408
X00042Y-0037
X0005124Y-0032961
X00079Y-003
X00181Y-00294
X00302Y-00322
X00295Y-00395
X00247Y-00414
X0027Y-00437
X00156Y-00471
X00099Y-0048
X0052Y-00369
X00527Y-00325
X00579Y-00329
X00691Y-0036906
X0072Y-00425
X00754Y-00314
X0077Y-00278
X00647Y-00178
X00618Y-00176
X00672Y-00127
X00698Y-00036
X00735Y-00045
X00546Y-00101
X00537Y-00132
X00554Y-00178
X0054Y-00227
X0050287Y-0025487
X00432Y-00157
X00498Y-00081
X00283Y-00123
X00291Y-0015
X00195Y-00167
X00216Y-00207
X00321Y-00246
X0035087Y-0022787
X00207Y-00064
X00154Y-00066
X0017Y-00032
X00127Y-00031
X00102Y-00059
X00037Y-00029
T02
X002437Y-0050681
X003437
X004437
X005437
Y-00002
X004437
X003437
X002437
M30
