G04 ================== begin FILE IDENTIFICATION RECORD ==================*
G04 Layout Name:  F:/projects/git/Hardware/magnetic/PCB/ANT/bottom.brd*
G04 Film Name:    SilkscreenTop*
G04 File Format:  Gerber RS274X*
G04 File Origin:  Cadence Allegro 16.6-2015-S108*
G04 Origin Date:  Sun Nov 17 15:33:26 2019*
G04 *
G04 Layer:  REF DES/SILKSCREEN_TOP*
G04 Layer:  PACKAGE GEOMETRY/SILKSCREEN_TOP*
G04 Layer:  BOARD GEOMETRY/SILKSCREEN_TOP*
G04 Layer:  BOARD GEOMETRY/OUTLINE*
G04 *
G04 Offset:    (0.0000 0.0000)*
G04 Mirror:    No*
G04 Mode:      Positive*
G04 Rotation:  0*
G04 FullContactRelief:  No*
G04 UndefLineWidth:     0.1270*
G04 ================== end FILE IDENTIFICATION RECORD ====================*
%FSLAX35Y35*MOMM*%
%IR0*IPPOS*OFA0.00000B0.00000*MIA0B0*SFA1.00000B1.00000*%
%ADD10C,.127*%
G75*
%LPD*%
G75*
G54D10*
G01X3900000Y0D02*
G02I-3900000J0D01*
G01X-2800000Y-50000D02*
X-3100000D01*
G02Y50000I0J50000D01*
G01X-2800000D01*
G02Y-50000I0J-50000D01*
G01X-2438760Y-1307040D02*
G02I-149995J3D01*
G01X-1315150Y-500000D02*
G02Y-200000I0J150000D01*
G01X-915150D01*
G02Y-500000I0J-150000D01*
G01X-1315150D01*
G01X250000Y-3650000D02*
G02I-250000J0D01*
G01X-150000Y50000D02*
X150000D01*
G02Y-50000I0J-50000D01*
G01X-150000D01*
G02Y50000I0J50000D01*
G01X150000Y2175000D02*
G02I-150000J0D01*
G01X250000Y3650000D02*
G02I-250000J0D01*
G01X470620Y-196400D02*
Y-259900D01*
G01X455040Y-196400D02*
X486200D01*
G01X513630Y-206980D02*
X517690Y-200630D01*
X522440Y-197460D01*
X527850Y-196400D01*
X534630Y-198520D01*
X539370Y-203810D01*
X540720Y-210160D01*
X540050Y-216510D01*
X537340Y-221800D01*
X523790Y-232380D01*
X517690Y-239790D01*
X513630Y-250380D01*
X512280Y-259900D01*
X540720D01*
G01X1376120Y-500000D02*
X976120D01*
G02Y-200000I-2J150000D01*
G01X1376120D01*
G02Y-500000I-2J-150000D01*
G01X2754720Y-1274930D02*
G02I-150001J5D01*
G01X2800000Y50000D02*
X3100000D01*
G02Y-50000I0J-50000D01*
G01X2800000D01*
G02Y50000I0J50000D01*
G01X2922620Y32700D02*
Y-30800D01*
G01X2907040Y32700D02*
X2938200D01*
G01X2978500Y-30800D02*
Y32700D01*
X2970370Y20000D01*
G01Y-30800D02*
X2986630D01*
M02*
