%FSLAX25Y25*%
%MOIN*%
G70*
G01*
G75*
G04 Layer_Physical_Order=2*
G04 Layer_Color=16711680*
%ADD10R,0.02756X0.03347*%
%ADD11R,0.04724X0.04331*%
%ADD12R,0.07874X0.07874*%
%ADD13O,0.08661X0.02362*%
%ADD14R,0.08071X0.09055*%
%ADD15O,0.05500X0.02500*%
%ADD16R,0.05500X0.02500*%
%ADD17R,0.04724X0.14567*%
%ADD18R,0.07559X0.25590*%
%ADD19R,0.06000X0.05000*%
%ADD20R,0.10630X0.03937*%
%ADD21O,0.00787X0.02559*%
%ADD22O,0.02559X0.00787*%
%ADD23R,0.15748X0.15748*%
%ADD24R,0.03347X0.02756*%
%ADD25O,0.02500X0.05500*%
%ADD26R,0.02500X0.05500*%
%ADD27R,0.05000X0.06000*%
%ADD28C,0.03000*%
%ADD29C,0.05000*%
%ADD30C,0.00600*%
%ADD31C,0.00800*%
%ADD32C,0.02000*%
%ADD33C,0.01000*%
%ADD34C,0.01500*%
%ADD35C,0.04000*%
%ADD36R,0.07284X0.19685*%
%ADD37R,0.06800X0.04000*%
%ADD38C,0.00500*%
%ADD39O,0.04724X0.06299*%
%ADD40R,0.04724X0.06299*%
%ADD41C,0.08661*%
%ADD42C,0.03150*%
%ADD43O,0.05906X0.09843*%
%ADD44R,0.05906X0.09843*%
%ADD45C,0.04724*%
%ADD46O,0.09252X0.07087*%
%ADD47O,0.05315X0.12205*%
%ADD48R,0.13386X0.04724*%
%ADD49R,0.04724X0.13386*%
%ADD50C,0.03000*%
%ADD51C,0.04000*%
%ADD52C,0.02000*%
%ADD53C,0.02598*%
%ADD54R,0.02362X0.02362*%
%ADD55R,0.15000X0.11400*%
G36*
X250377Y-2749D02*
X249517Y-3454D01*
X248567Y-4612D01*
X247861Y-5934D01*
X247426Y-7367D01*
X247279Y-8858D01*
X247426Y-10349D01*
X247861Y-11783D01*
X248567Y-13104D01*
X249517Y-14262D01*
X250675Y-15213D01*
X251997Y-15919D01*
X253430Y-16354D01*
X254921Y-16501D01*
X256412Y-16354D01*
X257846Y-15919D01*
X259167Y-15213D01*
X260325Y-14262D01*
X260851Y-13622D01*
X261322Y-13790D01*
Y-171249D01*
X260851Y-171418D01*
X260325Y-170777D01*
X259167Y-169827D01*
X257846Y-169121D01*
X256412Y-168686D01*
X254921Y-168539D01*
X253430Y-168686D01*
X251997Y-169121D01*
X250675Y-169827D01*
X249517Y-170777D01*
X248567Y-171935D01*
X247861Y-173257D01*
X247426Y-174690D01*
X247279Y-176181D01*
X247426Y-177672D01*
X247861Y-179106D01*
X248567Y-180427D01*
X249517Y-181585D01*
X250207Y-182151D01*
X250038Y-182622D01*
X13741D01*
X13573Y-182151D01*
X14262Y-181585D01*
X15213Y-180427D01*
X15919Y-179106D01*
X16354Y-177672D01*
X16501Y-176181D01*
X16354Y-174690D01*
X15919Y-173257D01*
X15213Y-171935D01*
X14262Y-170777D01*
X13104Y-169827D01*
X11783Y-169121D01*
X10349Y-168686D01*
X8858Y-168539D01*
X7367Y-168686D01*
X5934Y-169121D01*
X4612Y-169827D01*
X3454Y-170777D01*
X2749Y-171636D01*
X2278Y-171468D01*
Y-13571D01*
X2749Y-13403D01*
X3454Y-14262D01*
X4612Y-15213D01*
X5934Y-15919D01*
X7367Y-16354D01*
X8858Y-16501D01*
X10349Y-16354D01*
X11783Y-15919D01*
X13104Y-15213D01*
X14262Y-14262D01*
X15213Y-13104D01*
X15919Y-11783D01*
X16354Y-10349D01*
X16501Y-8858D01*
X16354Y-7367D01*
X15919Y-5934D01*
X15213Y-4612D01*
X14262Y-3454D01*
X13104Y-2504D01*
X13161Y-2278D01*
X250208D01*
X250377Y-2749D01*
D02*
G37*
%LPC*%
G36*
X222957Y-124774D02*
X222374D01*
Y-129058D01*
X227675D01*
X227578Y-128320D01*
X227100Y-127166D01*
X226340Y-126175D01*
X225349Y-125415D01*
X224195Y-124937D01*
X222957Y-124774D01*
D02*
G37*
G36*
X213500Y-126200D02*
X210473D01*
X210529Y-126630D01*
X210888Y-127497D01*
X211459Y-128241D01*
X212204Y-128812D01*
X213070Y-129171D01*
X213500Y-129227D01*
Y-126200D01*
D02*
G37*
G36*
X221374Y-124774D02*
X220791D01*
X219553Y-124937D01*
X218399Y-125415D01*
X218029Y-125699D01*
X217568Y-125507D01*
X217593Y-125700D01*
X217527Y-126200D01*
X214500D01*
Y-129227D01*
X214930Y-129171D01*
X215661Y-128868D01*
X216058Y-129172D01*
X216073Y-129058D01*
X221374D01*
Y-124774D01*
D02*
G37*
G36*
X102495Y-120600D02*
X100417D01*
Y-122973D01*
X102495D01*
Y-120600D01*
D02*
G37*
G36*
X243921Y-110097D02*
X242914Y-110229D01*
X241976Y-110618D01*
X241170Y-111236D01*
X240552Y-112042D01*
X240163Y-112980D01*
X240031Y-113987D01*
Y-120877D01*
X240163Y-121884D01*
X240552Y-122822D01*
X241170Y-123628D01*
X241976Y-124247D01*
X242914Y-124635D01*
X243921Y-124768D01*
X244928Y-124635D01*
X245867Y-124247D01*
X246672Y-123628D01*
X247291Y-122822D01*
X247679Y-121884D01*
X247812Y-120877D01*
Y-113987D01*
X247679Y-112980D01*
X247291Y-112042D01*
X246672Y-111236D01*
X245867Y-110618D01*
X244928Y-110229D01*
X243921Y-110097D01*
D02*
G37*
G36*
X144327Y-136627D02*
X144052Y-136627D01*
X143973D01*
D01*
D01*
D01*
D01*
Y-136628D01*
X143973D01*
X143973D01*
X141600D01*
Y-139207D01*
Y-141783D01*
X143973D01*
Y-141783D01*
X143973D01*
X143973Y-141783D01*
X144327D01*
X144327D01*
X144327D01*
Y-141783D01*
X146700D01*
Y-139207D01*
Y-136628D01*
X144327D01*
D01*
D01*
Y-136627D01*
D01*
Y-136627D01*
D02*
G37*
G36*
X150073Y-136628D02*
X147700D01*
Y-138706D01*
X150073D01*
Y-136628D01*
D02*
G37*
G36*
X182100Y-83672D02*
X181265Y-83782D01*
X180486Y-84105D01*
X179818Y-84618D01*
X179305Y-85286D01*
X178982Y-86065D01*
X178872Y-86900D01*
X178982Y-87735D01*
X179305Y-88514D01*
X179377Y-88608D01*
Y-130354D01*
X179082Y-131065D01*
X178972Y-131900D01*
X179082Y-132735D01*
X179405Y-133514D01*
X179918Y-134182D01*
X180586Y-134695D01*
X181365Y-135018D01*
X182200Y-135128D01*
X183035Y-135018D01*
X183814Y-134695D01*
X184482Y-134182D01*
X184995Y-133514D01*
X185318Y-132735D01*
X185428Y-131900D01*
X185318Y-131065D01*
X184995Y-130286D01*
X184823Y-130062D01*
Y-88608D01*
X184895Y-88514D01*
X185218Y-87735D01*
X185328Y-86900D01*
X185218Y-86065D01*
X184895Y-85286D01*
X184382Y-84618D01*
X183714Y-84105D01*
X182935Y-83782D01*
X182100Y-83672D01*
D02*
G37*
G36*
X227675Y-130058D02*
X222374D01*
Y-134343D01*
X222957D01*
X224195Y-134179D01*
X225349Y-133702D01*
X226340Y-132941D01*
X227100Y-131950D01*
X227578Y-130797D01*
X227675Y-130058D01*
D02*
G37*
G36*
X221374D02*
X216073D01*
X216170Y-130797D01*
X216648Y-131950D01*
X217408Y-132941D01*
X218399Y-133702D01*
X219553Y-134179D01*
X220791Y-134343D01*
X221374D01*
Y-130058D01*
D02*
G37*
G36*
X105572Y-120600D02*
X103495D01*
Y-122973D01*
X105572D01*
Y-120600D01*
D02*
G37*
G36*
X105272Y-109200D02*
X103194D01*
Y-111573D01*
X105272D01*
Y-109200D01*
D02*
G37*
G36*
X102194D02*
X100117D01*
Y-111573D01*
X102194D01*
Y-109200D01*
D02*
G37*
G36*
X214000Y-105572D02*
X213070Y-105694D01*
X212204Y-106053D01*
X211459Y-106624D01*
X210888Y-107368D01*
X210529Y-108235D01*
X210407Y-109165D01*
X210529Y-110094D01*
X210888Y-110961D01*
X211459Y-111705D01*
Y-112136D01*
X210888Y-112880D01*
X210529Y-113747D01*
X210407Y-114676D01*
X210529Y-115606D01*
X210888Y-116473D01*
X211459Y-117217D01*
Y-117648D01*
X210888Y-118392D01*
X210529Y-119258D01*
X210407Y-120188D01*
X210529Y-121118D01*
X210888Y-121985D01*
X211459Y-122729D01*
Y-123159D01*
X210888Y-123904D01*
X210529Y-124770D01*
X210473Y-125200D01*
X217527D01*
X217471Y-124770D01*
X217112Y-123904D01*
X216541Y-123159D01*
Y-122729D01*
X217112Y-121985D01*
X217471Y-121118D01*
X217593Y-120188D01*
X217471Y-119258D01*
X217112Y-118392D01*
X216541Y-117648D01*
Y-117217D01*
X217112Y-116473D01*
X217471Y-115606D01*
X217593Y-114676D01*
X217471Y-113747D01*
X217112Y-112880D01*
X216541Y-112136D01*
Y-111705D01*
X217112Y-110961D01*
X217471Y-110094D01*
X217568Y-109357D01*
X218029Y-109166D01*
X218399Y-109450D01*
X219553Y-109927D01*
X220791Y-110090D01*
X221374D01*
Y-105806D01*
X216073D01*
X216058Y-105693D01*
X215661Y-105997D01*
X214930Y-105694D01*
X214000Y-105572D01*
D02*
G37*
G36*
X161805Y-106127D02*
X159728D01*
Y-108500D01*
X161805D01*
Y-106127D01*
D02*
G37*
G36*
X227675Y-105806D02*
X222374D01*
Y-110090D01*
X222957D01*
X224195Y-109927D01*
X225349Y-109450D01*
X226340Y-108689D01*
X227100Y-107698D01*
X227578Y-106545D01*
X227675Y-105806D01*
D02*
G37*
G36*
X105572Y-117227D02*
X103495D01*
Y-119600D01*
X105572D01*
Y-117227D01*
D02*
G37*
G36*
X102495D02*
X100417D01*
Y-119600D01*
X102495D01*
Y-117227D01*
D02*
G37*
G36*
X195800Y-63157D02*
X194942Y-63328D01*
X194214Y-63814D01*
X193728Y-64542D01*
X193557Y-65400D01*
X193728Y-66258D01*
X194169Y-66918D01*
Y-114100D01*
X194169Y-114100D01*
X194169D01*
X194293Y-114724D01*
X194647Y-115253D01*
X202769Y-123376D01*
Y-134024D01*
X200893Y-135900D01*
X200431Y-135708D01*
Y-133918D01*
X200872Y-133258D01*
X201043Y-132400D01*
X200872Y-131542D01*
X200386Y-130814D01*
X199658Y-130328D01*
X198800Y-130157D01*
X197942Y-130328D01*
X197214Y-130814D01*
X196728Y-131542D01*
X196557Y-132400D01*
X196728Y-133258D01*
X197169Y-133918D01*
Y-136887D01*
X196986Y-137069D01*
X171000D01*
X170376Y-137193D01*
X169846Y-137547D01*
X163096Y-144297D01*
X162743Y-144826D01*
X162619Y-145450D01*
Y-151974D01*
X160355Y-154238D01*
X159893Y-154047D01*
Y-147401D01*
X144107D01*
Y-154525D01*
X159414D01*
X159606Y-154987D01*
X157224Y-157369D01*
X125876D01*
X120831Y-152324D01*
Y-121276D01*
X122953Y-119153D01*
X123307Y-118624D01*
X123431Y-118000D01*
X123431Y-118000D01*
Y-113000D01*
X123307Y-112376D01*
X122953Y-111846D01*
X120894Y-109786D01*
X120958Y-109572D01*
X121686Y-109086D01*
X122172Y-108358D01*
X122343Y-107500D01*
X122172Y-106642D01*
X121731Y-105982D01*
Y-104523D01*
X153677D01*
Y-109000D01*
Y-120437D01*
X153301Y-120766D01*
X152773Y-120697D01*
X152160Y-120778D01*
X149714Y-118332D01*
X149108Y-117867D01*
X148403Y-117575D01*
X147646Y-117475D01*
X131654D01*
X130897Y-117575D01*
X130192Y-117867D01*
X129586Y-118332D01*
X127332Y-120586D01*
X126867Y-121192D01*
X126575Y-121897D01*
X126475Y-122654D01*
Y-123102D01*
X126135Y-123243D01*
X125404Y-123804D01*
X124843Y-124535D01*
X124490Y-125386D01*
X124370Y-126300D01*
X124490Y-127214D01*
X124843Y-128065D01*
X125404Y-128796D01*
X126135Y-129357D01*
X126986Y-129710D01*
X127900Y-129830D01*
X128814Y-129710D01*
X129665Y-129357D01*
X130020Y-129085D01*
X130635Y-129557D01*
X131486Y-129910D01*
X132357Y-130025D01*
Y-130887D01*
X131727D01*
Y-136043D01*
X137473D01*
Y-136023D01*
X151900D01*
X152605Y-135931D01*
X153262Y-135658D01*
X153826Y-135226D01*
X158326Y-130726D01*
X158758Y-130162D01*
X159030Y-129505D01*
X159123Y-128800D01*
Y-116603D01*
X159510Y-116285D01*
X159800Y-116343D01*
X160658Y-116172D01*
X161386Y-115686D01*
X161872Y-114958D01*
X162043Y-114100D01*
X161872Y-113242D01*
X161386Y-112514D01*
X160658Y-112028D01*
X160674Y-111873D01*
X161805D01*
Y-109500D01*
X159728D01*
Y-111509D01*
X159276Y-111722D01*
X159123Y-111597D01*
Y-109000D01*
Y-106402D01*
X159243Y-105800D01*
X159123Y-105198D01*
Y-102000D01*
Y-89500D01*
Y-76200D01*
X159030Y-75495D01*
X158758Y-74838D01*
X158326Y-74274D01*
X154926Y-70874D01*
X154362Y-70442D01*
X153705Y-70170D01*
X153000Y-70077D01*
X108300D01*
X107677Y-70159D01*
X107595Y-70170D01*
X106938Y-70442D01*
X106374Y-70874D01*
X102574Y-74674D01*
X102141Y-75238D01*
X101869Y-75895D01*
X101777Y-76600D01*
Y-85200D01*
X101869Y-85905D01*
X102141Y-86562D01*
X102496Y-87024D01*
X102275Y-87472D01*
X97200D01*
X96365Y-87582D01*
X95586Y-87905D01*
X94918Y-88418D01*
X94405Y-89086D01*
X94082Y-89865D01*
X93972Y-90700D01*
X94082Y-91535D01*
X94405Y-92314D01*
X94918Y-92982D01*
X95586Y-93495D01*
X96365Y-93818D01*
X97200Y-93928D01*
X106300D01*
X107135Y-93818D01*
X107914Y-93495D01*
X108582Y-92982D01*
X110182Y-91382D01*
X110695Y-90714D01*
X111018Y-89935D01*
X111128Y-89100D01*
X111121Y-89051D01*
X111129Y-89043D01*
X114627D01*
Y-92278D01*
X114627D01*
X114627Y-92839D01*
X114514Y-92914D01*
X114028Y-93642D01*
X113857Y-94500D01*
X113875Y-94590D01*
X113558Y-94977D01*
X97000D01*
X96377Y-95059D01*
X96295Y-95069D01*
X95638Y-95341D01*
X95074Y-95774D01*
X91174Y-99674D01*
X91174Y-99674D01*
X88774Y-102074D01*
X88341Y-102638D01*
X88069Y-103295D01*
X87977Y-104000D01*
Y-127900D01*
X88069Y-128605D01*
X88341Y-129262D01*
X88774Y-129826D01*
X92074Y-133126D01*
X92638Y-133558D01*
X92910Y-133671D01*
X93295Y-133830D01*
X94000Y-133923D01*
X100500D01*
X101205Y-133830D01*
X101862Y-133558D01*
X102426Y-133126D01*
X102858Y-132562D01*
X103130Y-131905D01*
X103223Y-131200D01*
X103130Y-130495D01*
X102858Y-129838D01*
X102426Y-129274D01*
X101862Y-128842D01*
X101205Y-128569D01*
X100500Y-128477D01*
X95128D01*
X93423Y-126772D01*
Y-105128D01*
X95026Y-103526D01*
X95026Y-103526D01*
X98128Y-100423D01*
X108572D01*
X108763Y-100885D01*
X106674Y-102974D01*
X106242Y-103538D01*
X105970Y-104195D01*
X105877Y-104900D01*
Y-108700D01*
X105970Y-109405D01*
X106022Y-109532D01*
Y-111573D01*
X106177D01*
Y-120100D01*
X106270Y-120805D01*
X106322Y-120932D01*
Y-122973D01*
X108357D01*
X108495Y-123030D01*
X109200Y-123123D01*
X109905Y-123030D01*
X110043Y-122973D01*
X110769D01*
Y-158000D01*
X110893Y-158624D01*
X111247Y-159153D01*
X118347Y-166253D01*
X118347D01*
X118347Y-166253D01*
X118347Y-166254D01*
Y-166253D01*
X118876Y-166607D01*
X119500Y-166731D01*
X154724D01*
X159341Y-171348D01*
X159150Y-171810D01*
X152500D01*
Y-174872D01*
X159893D01*
Y-172553D01*
X160355Y-172362D01*
X161446Y-173453D01*
X161976Y-173807D01*
X162600Y-173931D01*
X185600D01*
X186224Y-173807D01*
X186753Y-173453D01*
X195054Y-165154D01*
X195407Y-164624D01*
X195531Y-164000D01*
X195531Y-164000D01*
X195531Y-164000D01*
Y-164000D01*
Y-152869D01*
X195872Y-152358D01*
X196043Y-151500D01*
X195872Y-150642D01*
X195386Y-149914D01*
X194658Y-149428D01*
X193800Y-149257D01*
X192942Y-149428D01*
X192672Y-149608D01*
X192231Y-149372D01*
Y-149276D01*
X193176Y-148331D01*
X202282D01*
X202942Y-148772D01*
X203800Y-148943D01*
X204658Y-148772D01*
X205386Y-148286D01*
X205872Y-147558D01*
X206043Y-146700D01*
X205872Y-145842D01*
X205386Y-145114D01*
X204658Y-144628D01*
X203800Y-144457D01*
X202942Y-144628D01*
X202282Y-145069D01*
X192500D01*
X191876Y-145193D01*
X191347Y-145546D01*
X190993Y-145900D01*
X190531Y-145708D01*
Y-145218D01*
X190972Y-144558D01*
X191143Y-143700D01*
X190972Y-142842D01*
X190486Y-142114D01*
X190480Y-142110D01*
X190625Y-141631D01*
X199100D01*
X199724Y-141507D01*
X200254Y-141154D01*
X205554Y-135854D01*
X205907Y-135324D01*
X206031Y-134700D01*
Y-122700D01*
X205907Y-122076D01*
X205554Y-121546D01*
X197431Y-113424D01*
Y-66918D01*
X197872Y-66258D01*
X198043Y-65400D01*
X197872Y-64542D01*
X197386Y-63814D01*
X196658Y-63328D01*
X195800Y-63157D01*
D02*
G37*
G36*
X164883Y-109500D02*
X162805D01*
Y-111873D01*
X164883D01*
Y-109500D01*
D02*
G37*
G36*
X132322Y-31220D02*
X131392Y-31342D01*
X130526Y-31701D01*
X129781Y-32272D01*
X129210Y-33016D01*
X128851Y-33883D01*
X128729Y-34813D01*
Y-36387D01*
X128851Y-37317D01*
X129095Y-37904D01*
Y-43741D01*
X123163Y-49672D01*
X85800D01*
X84965Y-49782D01*
X84186Y-50105D01*
X83518Y-50618D01*
X70818Y-63318D01*
X70305Y-63986D01*
X69982Y-64765D01*
X69872Y-65600D01*
Y-70200D01*
Y-87300D01*
Y-112100D01*
X69982Y-112935D01*
X70305Y-113714D01*
X70818Y-114382D01*
X71486Y-114895D01*
X72265Y-115218D01*
X73100Y-115328D01*
X73935Y-115218D01*
X74714Y-114895D01*
X75382Y-114382D01*
X75895Y-113714D01*
X76218Y-112935D01*
X76328Y-112100D01*
X76328Y-112100D01*
X76328Y-112100D01*
Y-112100D01*
Y-87300D01*
Y-66937D01*
X87137Y-56128D01*
X124500D01*
X125335Y-56018D01*
X126114Y-55695D01*
X126782Y-55182D01*
X134604Y-47360D01*
X135117Y-46692D01*
X135440Y-45913D01*
X135550Y-45078D01*
Y-37904D01*
X135793Y-37317D01*
X135915Y-36387D01*
Y-34813D01*
X135793Y-33883D01*
X135434Y-33016D01*
X134863Y-32272D01*
X134118Y-31701D01*
X133252Y-31342D01*
X132322Y-31220D01*
D02*
G37*
G36*
X140600Y-136628D02*
X138227D01*
Y-138706D01*
X140600D01*
Y-136628D01*
D02*
G37*
G36*
X119500Y-168850D02*
X116438D01*
Y-172700D01*
X119500D01*
Y-168850D01*
D02*
G37*
G36*
X151500Y-171810D02*
X144107D01*
Y-174872D01*
X151500D01*
Y-171810D01*
D02*
G37*
G36*
X123562Y-168850D02*
X120500D01*
Y-172700D01*
X123562D01*
Y-168850D01*
D02*
G37*
G36*
X238126Y-143920D02*
X237196Y-144042D01*
X236330Y-144401D01*
X235585Y-144972D01*
X235014Y-145716D01*
X234655Y-146583D01*
X234533Y-147513D01*
Y-149087D01*
X234655Y-150017D01*
X235014Y-150884D01*
X235585Y-151628D01*
X236330Y-152199D01*
X237196Y-152558D01*
X238126Y-152680D01*
X239056Y-152558D01*
X239922Y-152199D01*
X240667Y-151628D01*
X241238Y-150884D01*
X241597Y-150017D01*
X241719Y-149087D01*
Y-147513D01*
X241597Y-146583D01*
X241238Y-145716D01*
X240667Y-144972D01*
X239922Y-144401D01*
X239056Y-144042D01*
X238126Y-143920D01*
D02*
G37*
G36*
X68000Y-159057D02*
X67142Y-159228D01*
X66414Y-159714D01*
X65928Y-160442D01*
X65773Y-161220D01*
X64939Y-162054D01*
X59489D01*
Y-166148D01*
X59237Y-166199D01*
X58674Y-166574D01*
X55282Y-169967D01*
X24818D01*
X22491Y-167640D01*
X22372Y-167042D01*
X21886Y-166314D01*
X21158Y-165828D01*
X20300Y-165657D01*
X19442Y-165828D01*
X18714Y-166314D01*
X18228Y-167042D01*
X18057Y-167900D01*
X18228Y-168758D01*
X18714Y-169486D01*
X19442Y-169972D01*
X20040Y-170091D01*
X22874Y-172926D01*
X22874Y-172926D01*
X22874D01*
X22874Y-172926D01*
X22874D01*
X22874Y-172926D01*
Y-172926D01*
Y-172926D01*
D01*
D01*
X22874D01*
Y-172926D01*
X23437Y-173301D01*
X24100Y-173433D01*
X56000D01*
X56663Y-173301D01*
X57226Y-172926D01*
X57226Y-172926D01*
X57226Y-172926D01*
X59027Y-171124D01*
X59489Y-171316D01*
Y-173116D01*
X60278D01*
Y-175772D01*
X59837Y-176432D01*
X59666Y-177291D01*
X59837Y-178149D01*
X60323Y-178877D01*
X61051Y-179363D01*
X61910Y-179534D01*
X62768Y-179363D01*
X63496Y-178877D01*
X63982Y-178149D01*
X64152Y-177291D01*
X63982Y-176432D01*
X63541Y-175772D01*
Y-173116D01*
X65235D01*
Y-169533D01*
X66034D01*
X66542Y-169872D01*
X67400Y-170043D01*
X68258Y-169872D01*
X68986Y-169386D01*
X69472Y-168658D01*
X69643Y-167800D01*
X69472Y-166942D01*
X68986Y-166214D01*
X68258Y-165728D01*
X67400Y-165557D01*
X66560Y-165724D01*
X66324Y-165283D01*
X68080Y-163527D01*
X68858Y-163372D01*
X69586Y-162886D01*
X70072Y-162158D01*
X70243Y-161300D01*
X70072Y-160442D01*
X69586Y-159714D01*
X68858Y-159228D01*
X68000Y-159057D01*
D02*
G37*
G36*
X159893Y-175872D02*
X152500D01*
Y-178935D01*
X159893D01*
Y-175872D01*
D02*
G37*
G36*
X151500D02*
X144107D01*
Y-178935D01*
X151500D01*
Y-175872D01*
D02*
G37*
G36*
X112126Y-168820D02*
X111196Y-168942D01*
X110329Y-169301D01*
X109585Y-169872D01*
X109014Y-170616D01*
X108656Y-171483D01*
X108533Y-172413D01*
Y-173987D01*
X108656Y-174917D01*
X109014Y-175784D01*
X109585Y-176528D01*
X110329Y-177099D01*
X111196Y-177458D01*
X112126Y-177580D01*
X113056Y-177458D01*
X113923Y-177099D01*
X114667Y-176528D01*
X115238Y-175784D01*
X115596Y-174917D01*
X115719Y-173987D01*
Y-172413D01*
X115596Y-171483D01*
X115238Y-170616D01*
X114667Y-169872D01*
X113923Y-169301D01*
X113056Y-168942D01*
X112126Y-168820D01*
D02*
G37*
G36*
X123562Y-173700D02*
X120500D01*
Y-177550D01*
X123562D01*
Y-173700D01*
D02*
G37*
G36*
X119500D02*
X116438D01*
Y-177550D01*
X119500D01*
Y-173700D01*
D02*
G37*
G36*
X245500Y-148800D02*
X242438D01*
Y-152650D01*
X245500D01*
Y-148800D01*
D02*
G37*
G36*
X140600Y-139706D02*
X138227D01*
Y-141783D01*
X140600D01*
Y-139706D01*
D02*
G37*
G36*
X137473Y-139871D02*
X135100D01*
Y-141949D01*
X137473D01*
Y-139871D01*
D02*
G37*
G36*
X150073Y-139706D02*
X147700D01*
Y-141783D01*
X150073D01*
Y-139706D01*
D02*
G37*
G36*
X137473Y-136793D02*
X135100D01*
Y-138871D01*
X137473D01*
Y-136793D01*
D02*
G37*
G36*
X134100D02*
X131727D01*
Y-138871D01*
X134100D01*
Y-136793D01*
D02*
G37*
G36*
X19094Y-136377D02*
X4095D01*
X3626Y-136470D01*
X3229Y-136735D01*
X2964Y-137132D01*
X2871Y-137600D01*
Y-149000D01*
X2964Y-149468D01*
X3229Y-149865D01*
X3626Y-150130D01*
X4095Y-150224D01*
X19094D01*
X19563Y-150130D01*
X19960Y-149865D01*
X20225Y-149468D01*
X20318Y-149000D01*
Y-137600D01*
X20225Y-137132D01*
X19960Y-136735D01*
X19563Y-136470D01*
X19094Y-136377D01*
D02*
G37*
G36*
X249562Y-148800D02*
X246500D01*
Y-152650D01*
X249562D01*
Y-148800D01*
D02*
G37*
G36*
X245500Y-143950D02*
X242438D01*
Y-147800D01*
X245500D01*
Y-143950D01*
D02*
G37*
G36*
X134100Y-139871D02*
X131727D01*
Y-141949D01*
X134100D01*
Y-139871D01*
D02*
G37*
G36*
X249562Y-143950D02*
X246500D01*
Y-147800D01*
X249562D01*
Y-143950D01*
D02*
G37*
G36*
X120167Y-36100D02*
X117074D01*
Y-39915D01*
X117504Y-39858D01*
X118370Y-39499D01*
X119115Y-38928D01*
X119686Y-38184D01*
X120045Y-37317D01*
X120167Y-36387D01*
Y-36100D01*
D02*
G37*
G36*
X116074D02*
X112981D01*
Y-36387D01*
X113103Y-37317D01*
X113462Y-38184D01*
X114033Y-38928D01*
X114778Y-39499D01*
X115644Y-39858D01*
X116074Y-39915D01*
Y-36100D01*
D02*
G37*
G36*
X123948D02*
X120855D01*
Y-36387D01*
X120977Y-37317D01*
X121336Y-38184D01*
X121907Y-38928D01*
X122652Y-39499D01*
X123518Y-39858D01*
X123948Y-39915D01*
Y-36100D01*
D02*
G37*
G36*
X214500Y-33838D02*
Y-36865D01*
X217527D01*
X217593Y-37365D01*
X217568Y-37557D01*
X218029Y-37366D01*
X218399Y-37650D01*
X219553Y-38127D01*
X220791Y-38291D01*
X221374D01*
Y-34006D01*
X216073D01*
X216058Y-33893D01*
X215661Y-34197D01*
X214930Y-33894D01*
X214500Y-33838D01*
D02*
G37*
G36*
X128041Y-36100D02*
X124948D01*
Y-39915D01*
X125378Y-39858D01*
X126244Y-39499D01*
X126989Y-38928D01*
X127560Y-38184D01*
X127919Y-37317D01*
X128041Y-36387D01*
Y-36100D01*
D02*
G37*
G36*
X200056Y-40519D02*
X198175D01*
Y-42400D01*
X200056D01*
Y-40519D01*
D02*
G37*
G36*
X92024Y-38500D02*
X87012D01*
Y-43513D01*
X87956Y-43388D01*
X89301Y-42831D01*
X90456Y-41945D01*
X91343Y-40789D01*
X91900Y-39444D01*
X92024Y-38500D01*
D02*
G37*
G36*
X45500D02*
X43267D01*
X43297Y-38724D01*
X43576Y-39399D01*
X44021Y-39979D01*
X44601Y-40424D01*
X45276Y-40703D01*
X45500Y-40733D01*
Y-38500D01*
D02*
G37*
G36*
X112262Y-31250D02*
X105138D01*
Y-39950D01*
X112262D01*
Y-31250D01*
D02*
G37*
G36*
X78733Y-38500D02*
X76500D01*
Y-40733D01*
X76724Y-40703D01*
X77399Y-40424D01*
X77979Y-39979D01*
X78424Y-39399D01*
X78703Y-38724D01*
X78733Y-38500D01*
D02*
G37*
G36*
X34988Y-32487D02*
X34044Y-32612D01*
X32699Y-33169D01*
X31544Y-34056D01*
X30657Y-35211D01*
X30100Y-36556D01*
X29976Y-37500D01*
X34988D01*
Y-32487D01*
D02*
G37*
G36*
X116074Y-31286D02*
X115644Y-31342D01*
X114778Y-31701D01*
X114033Y-32272D01*
X113462Y-33016D01*
X113103Y-33883D01*
X112981Y-34813D01*
Y-35100D01*
X116074D01*
Y-31286D01*
D02*
G37*
G36*
X213500Y-33838D02*
X213070Y-33894D01*
X212204Y-34253D01*
X211459Y-34824D01*
X210888Y-35568D01*
X210529Y-36435D01*
X210473Y-36865D01*
X213500D01*
Y-33838D01*
D02*
G37*
G36*
X117074Y-31286D02*
Y-35100D01*
X120167D01*
Y-34813D01*
X120045Y-33883D01*
X119686Y-33016D01*
X119115Y-32272D01*
X118370Y-31701D01*
X117504Y-31342D01*
X117074Y-31286D01*
D02*
G37*
G36*
X124948D02*
Y-35100D01*
X128041D01*
Y-34813D01*
X127919Y-33883D01*
X127560Y-33016D01*
X126989Y-32272D01*
X126244Y-31701D01*
X125378Y-31342D01*
X124948Y-31286D01*
D02*
G37*
G36*
X123948D02*
X123518Y-31342D01*
X122652Y-31701D01*
X121907Y-32272D01*
X121336Y-33016D01*
X120977Y-33883D01*
X120855Y-34813D01*
Y-35100D01*
X123948D01*
Y-31286D01*
D02*
G37*
G36*
X45500Y-35267D02*
X45276Y-35297D01*
X44601Y-35576D01*
X44021Y-36021D01*
X43576Y-36601D01*
X43297Y-37276D01*
X43267Y-37500D01*
X45500D01*
Y-35267D01*
D02*
G37*
G36*
X35988Y-32487D02*
Y-37500D01*
X41001D01*
X40876Y-36556D01*
X40319Y-35211D01*
X39433Y-34056D01*
X38277Y-33169D01*
X36932Y-32612D01*
X35988Y-32487D01*
D02*
G37*
G36*
X76500Y-35267D02*
Y-37500D01*
X78733D01*
X78703Y-37276D01*
X78424Y-36601D01*
X77979Y-36021D01*
X77399Y-35576D01*
X76724Y-35297D01*
X76500Y-35267D01*
D02*
G37*
G36*
X87012Y-32487D02*
Y-37500D01*
X92024D01*
X91900Y-36556D01*
X91343Y-35211D01*
X90456Y-34056D01*
X89301Y-33169D01*
X87956Y-32612D01*
X87012Y-32487D01*
D02*
G37*
G36*
X86012D02*
X85068Y-32612D01*
X83723Y-33169D01*
X82567Y-34056D01*
X81681Y-35211D01*
X81124Y-36556D01*
X80999Y-37500D01*
X86012D01*
Y-32487D01*
D02*
G37*
G36*
Y-38500D02*
X80999D01*
X81124Y-39444D01*
X81681Y-40789D01*
X82567Y-41945D01*
X83723Y-42831D01*
X85068Y-43388D01*
X86012Y-43513D01*
Y-38500D01*
D02*
G37*
G36*
X164883Y-106127D02*
X162805D01*
Y-108500D01*
X164883D01*
Y-106127D01*
D02*
G37*
G36*
X102194Y-105827D02*
X100117D01*
Y-108200D01*
X102194D01*
Y-105827D01*
D02*
G37*
G36*
X156563Y-4476D02*
X59237D01*
X58506Y-4572D01*
X58107Y-4737D01*
X57825Y-4854D01*
X57240Y-5303D01*
X50703Y-11840D01*
X50254Y-12425D01*
X50055Y-12907D01*
X49972Y-13106D01*
X49876Y-13837D01*
Y-15322D01*
X46027D01*
Y-23078D01*
Y-28983D01*
X49675D01*
Y-30400D01*
Y-34138D01*
X48945Y-34441D01*
X48094Y-35094D01*
X47603Y-35733D01*
X47399Y-35576D01*
X46724Y-35297D01*
X46500Y-35267D01*
Y-38001D01*
Y-40733D01*
X46724Y-40703D01*
X47399Y-40424D01*
X47603Y-40267D01*
X48094Y-40906D01*
X48945Y-41559D01*
X49936Y-41970D01*
X51000Y-42110D01*
X52064Y-41970D01*
X53055Y-41559D01*
X53500Y-41218D01*
X53945Y-41559D01*
X54936Y-41970D01*
X56000Y-42110D01*
X57064Y-41970D01*
X58055Y-41559D01*
X58906Y-40906D01*
X59396Y-40267D01*
X59601Y-40424D01*
X60276Y-40703D01*
X60500Y-40733D01*
Y-38001D01*
Y-35267D01*
X60276Y-35297D01*
X59601Y-35576D01*
X59396Y-35733D01*
X58906Y-35094D01*
X58055Y-34441D01*
X57325Y-34138D01*
Y-30400D01*
Y-28678D01*
X60973D01*
Y-22772D01*
Y-22672D01*
X61127D01*
Y-22672D01*
X62427D01*
Y-27278D01*
X65571D01*
X65969Y-27676D01*
Y-29700D01*
Y-35205D01*
X65276Y-35297D01*
X64601Y-35576D01*
X64021Y-36021D01*
X63750Y-36374D01*
X63250D01*
X62979Y-36021D01*
X62399Y-35576D01*
X61724Y-35297D01*
X61500Y-35267D01*
Y-38001D01*
Y-40733D01*
X61724Y-40703D01*
X62399Y-40424D01*
X62979Y-39979D01*
X63250Y-39626D01*
X63750D01*
X64021Y-39979D01*
X64601Y-40424D01*
X65276Y-40703D01*
X66000Y-40799D01*
X66724Y-40703D01*
X67399Y-40424D01*
X67979Y-39979D01*
X68250Y-39626D01*
X68750D01*
X69021Y-39979D01*
X69601Y-40424D01*
X70276Y-40703D01*
X71000Y-40799D01*
X71724Y-40703D01*
X72399Y-40424D01*
X72979Y-39979D01*
X73250Y-39626D01*
X73750D01*
X74021Y-39979D01*
X74601Y-40424D01*
X75276Y-40703D01*
X75500Y-40733D01*
Y-38001D01*
Y-35267D01*
X75276Y-35297D01*
X74601Y-35576D01*
X74021Y-36021D01*
X73750Y-36374D01*
X73250D01*
X72979Y-36021D01*
X72399Y-35576D01*
X71724Y-35297D01*
X71031Y-35205D01*
Y-29700D01*
Y-28276D01*
X72029Y-27278D01*
X75173D01*
Y-22672D01*
X76473D01*
Y-15924D01*
X145930D01*
X171003Y-40997D01*
X171003D01*
X171003Y-40997D01*
X177276Y-47270D01*
Y-64359D01*
X176900Y-64688D01*
X176000Y-64570D01*
X175086Y-64690D01*
X174350Y-64995D01*
X173614Y-64690D01*
X172700Y-64570D01*
X171786Y-64690D01*
X170935Y-65043D01*
X170204Y-65604D01*
X169643Y-66335D01*
X169290Y-67186D01*
X169170Y-68100D01*
X169290Y-69014D01*
X169643Y-69865D01*
X170204Y-70596D01*
X170604Y-70904D01*
X170621Y-71403D01*
X170500Y-71509D01*
X170298Y-71483D01*
X170031Y-71372D01*
X169300Y-71276D01*
X168647Y-71362D01*
X168431Y-71272D01*
X167700Y-71176D01*
X166969Y-71272D01*
X166702Y-71383D01*
X165886Y-71490D01*
X165035Y-71843D01*
X164304Y-72404D01*
X163743Y-73135D01*
X163390Y-73986D01*
X163270Y-74900D01*
X163390Y-75814D01*
X163743Y-76665D01*
X164304Y-77396D01*
X164876Y-77835D01*
Y-78063D01*
X164972Y-78794D01*
X165055Y-78993D01*
X165254Y-79475D01*
X165703Y-80060D01*
X167640Y-81997D01*
X168225Y-82446D01*
X168707Y-82645D01*
X168906Y-82728D01*
X169637Y-82824D01*
X183763D01*
X184494Y-82728D01*
X184693Y-82645D01*
X185175Y-82446D01*
X185760Y-81997D01*
X190797Y-76960D01*
X191246Y-76375D01*
X191445Y-75893D01*
X191528Y-75694D01*
X191624Y-74963D01*
Y-48137D01*
Y-39537D01*
X191528Y-38806D01*
X191445Y-38607D01*
X191246Y-38125D01*
X190797Y-37540D01*
X158560Y-5303D01*
X157975Y-4854D01*
X157493Y-4655D01*
X157294Y-4572D01*
X156563Y-4476D01*
D02*
G37*
G36*
X250500Y-71709D02*
Y-77300D01*
X254189D01*
Y-75832D01*
X254046Y-74747D01*
X253627Y-73737D01*
X252962Y-72870D01*
X252094Y-72204D01*
X251084Y-71786D01*
X250500Y-71709D01*
D02*
G37*
G36*
X254189Y-78300D02*
X250500D01*
Y-83891D01*
X251084Y-83814D01*
X252094Y-83396D01*
X252962Y-82730D01*
X253627Y-81863D01*
X254046Y-80853D01*
X254189Y-79769D01*
Y-78300D01*
D02*
G37*
G36*
X222957Y-100522D02*
X222374D01*
Y-104806D01*
X227675D01*
X227578Y-104068D01*
X227100Y-102914D01*
X226340Y-101923D01*
X225349Y-101163D01*
X224195Y-100685D01*
X222957Y-100522D01*
D02*
G37*
G36*
X105272Y-105827D02*
X103194D01*
Y-108200D01*
X105272D01*
Y-105827D01*
D02*
G37*
G36*
X221374Y-100522D02*
X220791D01*
X219553Y-100685D01*
X218399Y-101163D01*
X217408Y-101923D01*
X216648Y-102914D01*
X216170Y-104068D01*
X216073Y-104806D01*
X221374D01*
Y-100522D01*
D02*
G37*
G36*
X199900Y-55000D02*
X198019D01*
Y-56881D01*
X199900D01*
Y-55000D01*
D02*
G37*
G36*
X200056Y-43400D02*
X198175D01*
Y-45281D01*
X200056D01*
Y-43400D01*
D02*
G37*
G36*
X199856Y-45920D02*
X197975D01*
Y-47801D01*
X199856D01*
Y-45920D01*
D02*
G37*
G36*
X41001Y-38500D02*
X35988D01*
Y-43513D01*
X36932Y-43388D01*
X38277Y-42831D01*
X39433Y-41945D01*
X40319Y-40789D01*
X40876Y-39444D01*
X41001Y-38500D01*
D02*
G37*
G36*
X34988D02*
X29976D01*
X30100Y-39444D01*
X30657Y-40789D01*
X31544Y-41945D01*
X32699Y-42831D01*
X34044Y-43388D01*
X34988Y-43513D01*
Y-38500D01*
D02*
G37*
G36*
X199900Y-52119D02*
X198019D01*
Y-54000D01*
X199900D01*
Y-52119D01*
D02*
G37*
G36*
X199700Y-5072D02*
X198865Y-5182D01*
X198086Y-5505D01*
X197418Y-6018D01*
X196905Y-6686D01*
X196582Y-7465D01*
X196472Y-8300D01*
X196582Y-9135D01*
X196905Y-9914D01*
X197418Y-10582D01*
X198086Y-11095D01*
X198865Y-11418D01*
X198982Y-11433D01*
X201614Y-14065D01*
Y-18700D01*
Y-24337D01*
X201707Y-25042D01*
X201707Y-25042D01*
X201707Y-25042D01*
X201978Y-25699D01*
X202411Y-26263D01*
X204274Y-28126D01*
X204838Y-28558D01*
X205495Y-28831D01*
X206200Y-28923D01*
X218195D01*
X218355Y-29397D01*
X217408Y-30123D01*
X216648Y-31114D01*
X216170Y-32268D01*
X216073Y-33006D01*
X221875D01*
Y-33505D01*
X222374D01*
Y-38291D01*
X222957D01*
X224195Y-38127D01*
X225349Y-37650D01*
X226340Y-36889D01*
X227100Y-35898D01*
X227286Y-35449D01*
X227777Y-35546D01*
Y-55718D01*
X227286Y-55816D01*
X227100Y-55366D01*
X226340Y-54375D01*
X225349Y-53615D01*
X224195Y-53137D01*
X222957Y-52974D01*
X222374D01*
Y-57759D01*
Y-62542D01*
X222957D01*
X224195Y-62379D01*
X225349Y-61901D01*
X226340Y-61141D01*
X227100Y-60150D01*
X227286Y-59701D01*
X227777Y-59798D01*
Y-61072D01*
X220563Y-68286D01*
X220063Y-68286D01*
X217732Y-65954D01*
Y-61955D01*
X218180Y-61734D01*
X218399Y-61901D01*
X219553Y-62379D01*
X220791Y-62542D01*
X221374D01*
Y-57759D01*
Y-52974D01*
X220791D01*
X219553Y-53137D01*
X218399Y-53615D01*
X218114Y-53834D01*
X217652Y-53643D01*
X217605Y-53285D01*
X217232Y-52384D01*
X217223Y-52373D01*
X217120Y-52123D01*
X217468Y-51856D01*
X218247Y-50840D01*
X218737Y-49657D01*
X218904Y-48388D01*
X218737Y-47119D01*
X218247Y-45936D01*
X218014Y-45632D01*
X218247Y-45329D01*
X218737Y-44146D01*
X218904Y-42876D01*
X218737Y-41607D01*
X218247Y-40424D01*
X217468Y-39409D01*
X217120Y-39141D01*
X217471Y-38295D01*
X217527Y-37865D01*
X210473D01*
X210529Y-38295D01*
X210880Y-39141D01*
X210532Y-39409D01*
X210116Y-39951D01*
X208174D01*
Y-39219D01*
X200812D01*
Y-40519D01*
X200811D01*
Y-42901D01*
Y-44620D01*
X200611D01*
Y-45281D01*
X200612D01*
Y-45920D01*
X200611D01*
Y-48302D01*
Y-50682D01*
X200612D01*
Y-51982D01*
D01*
Y-51982D01*
X200475Y-52119D01*
X200900D01*
Y-54501D01*
Y-56881D01*
X206718D01*
Y-56233D01*
X210268D01*
Y-67500D01*
X210268Y-67500D01*
X210268D01*
X210395Y-68466D01*
X210550Y-68839D01*
X210768Y-69366D01*
X211361Y-70139D01*
X211361Y-70139D01*
X211361Y-70139D01*
X215847Y-74625D01*
Y-83921D01*
X216268D01*
Y-86800D01*
X216268Y-86800D01*
X216268D01*
X216395Y-87766D01*
X216550Y-88139D01*
X216768Y-88666D01*
X217361Y-89439D01*
X217361Y-89439D01*
X217361Y-89439D01*
X228368Y-100446D01*
Y-134654D01*
X225461Y-137561D01*
X224868Y-138334D01*
X224650Y-138861D01*
X224495Y-139234D01*
X224368Y-140200D01*
Y-151500D01*
X224495Y-152466D01*
X224868Y-153366D01*
X225461Y-154139D01*
X226234Y-154732D01*
X227134Y-155105D01*
X228100Y-155232D01*
X229066Y-155105D01*
X229966Y-154732D01*
X230739Y-154139D01*
X231332Y-153366D01*
X231705Y-152466D01*
X231832Y-151500D01*
Y-141746D01*
X234739Y-138839D01*
X235194Y-138246D01*
X235332Y-138066D01*
X235550Y-137539D01*
X235705Y-137166D01*
X235720Y-137054D01*
X235832Y-136200D01*
Y-98900D01*
X235705Y-97934D01*
X235332Y-97034D01*
X235194Y-96854D01*
X234739Y-96261D01*
X223732Y-85254D01*
Y-83921D01*
X224153D01*
Y-80952D01*
X224652Y-80919D01*
X224688Y-81192D01*
X225237Y-82518D01*
X226111Y-83657D01*
X227250Y-84531D01*
X228576Y-85081D01*
X230000Y-85268D01*
X231423Y-85081D01*
X232750Y-84531D01*
X233889Y-83657D01*
X234750Y-82535D01*
X235250D01*
X236111Y-83657D01*
X237250Y-84531D01*
X238577Y-85081D01*
X240000Y-85268D01*
X241424Y-85081D01*
X242750Y-84531D01*
X243889Y-83657D01*
X244763Y-82518D01*
X245312Y-81192D01*
X245406Y-80484D01*
X245906D01*
X245954Y-80853D01*
X246373Y-81863D01*
X247038Y-82730D01*
X247906Y-83396D01*
X248916Y-83814D01*
X249500Y-83891D01*
Y-77801D01*
Y-71709D01*
X248916Y-71786D01*
X247906Y-72204D01*
X247038Y-72870D01*
X246373Y-73737D01*
X245954Y-74747D01*
X245906Y-75116D01*
X245406D01*
X245312Y-74408D01*
X244763Y-73082D01*
X243889Y-71943D01*
X242750Y-71069D01*
X241424Y-70519D01*
X240000Y-70332D01*
X238577Y-70519D01*
X237250Y-71069D01*
X236111Y-71943D01*
X235250Y-73065D01*
X234750D01*
X233889Y-71943D01*
X232750Y-71069D01*
X231423Y-70519D01*
X230000Y-70332D01*
X228576Y-70519D01*
X227250Y-71069D01*
X226111Y-71943D01*
X225237Y-73082D01*
X224688Y-74408D01*
X224652Y-74681D01*
X224153Y-74648D01*
Y-72399D01*
X232426Y-64126D01*
X232858Y-63562D01*
X233131Y-62905D01*
X233141Y-62823D01*
X233223Y-62200D01*
Y-29200D01*
X233131Y-28495D01*
X232858Y-27838D01*
X232426Y-27274D01*
X229426Y-24274D01*
X228862Y-23842D01*
X228205Y-23570D01*
X227500Y-23477D01*
X207328D01*
X207060Y-23209D01*
Y-18700D01*
Y-12937D01*
X206967Y-12232D01*
X206695Y-11575D01*
X206263Y-11011D01*
X202833Y-7582D01*
X202818Y-7465D01*
X202495Y-6686D01*
X201982Y-6018D01*
X201314Y-5505D01*
X200535Y-5182D01*
X199700Y-5072D01*
D02*
G37*
G36*
X199856Y-48801D02*
X197975D01*
Y-50682D01*
X199856D01*
Y-48801D01*
D02*
G37*
G36*
X243921Y-38297D02*
X242914Y-38429D01*
X241976Y-38818D01*
X241170Y-39436D01*
X240552Y-40242D01*
X240163Y-41180D01*
X240031Y-42187D01*
Y-49077D01*
X240163Y-50084D01*
X240552Y-51022D01*
X241170Y-51828D01*
X241976Y-52447D01*
X242914Y-52835D01*
X243921Y-52968D01*
X244928Y-52835D01*
X245867Y-52447D01*
X246672Y-51828D01*
X247291Y-51022D01*
X247679Y-50084D01*
X247812Y-49077D01*
Y-42187D01*
X247679Y-41180D01*
X247291Y-40242D01*
X246672Y-39436D01*
X245867Y-38818D01*
X244928Y-38429D01*
X243921Y-38297D01*
D02*
G37*
%LPD*%
G36*
X153677Y-99077D02*
X139584D01*
Y-98200D01*
X137004D01*
Y-97200D01*
X139584D01*
Y-96357D01*
X139600Y-96343D01*
X140458Y-96172D01*
X140966Y-95833D01*
X147600D01*
X148263Y-95701D01*
X148826Y-95326D01*
X150326Y-93826D01*
X150701Y-93263D01*
X150833Y-92600D01*
Y-92223D01*
X153677D01*
Y-99077D01*
D02*
G37*
G36*
X187320Y-142110D02*
X187314Y-142114D01*
X186828Y-142842D01*
X186657Y-143700D01*
X186828Y-144558D01*
X187269Y-145218D01*
Y-163224D01*
X182724Y-167769D01*
X174066D01*
Y-162093D01*
X166942D01*
Y-167769D01*
X165576D01*
X160107Y-162300D01*
X160252Y-161821D01*
X160324Y-161807D01*
X160854Y-161453D01*
X166480Y-155827D01*
X166942Y-156019D01*
Y-161093D01*
X170004D01*
Y-153700D01*
X168113D01*
X168031Y-153600D01*
Y-146376D01*
X172776Y-141631D01*
X187175D01*
X187320Y-142110D01*
D02*
G37*
G36*
X153677Y-77328D02*
Y-86777D01*
X149000D01*
X148295Y-86870D01*
X148168Y-86922D01*
X146127D01*
Y-92078D01*
D01*
Y-92078D01*
X145838Y-92367D01*
X145373D01*
Y-92178D01*
X145373D01*
Y-87022D01*
X141431D01*
Y-86272D01*
X142000D01*
Y-83696D01*
Y-81116D01*
X141431D01*
Y-79400D01*
X141307Y-78776D01*
X140954Y-78246D01*
X139654Y-76947D01*
X139124Y-76593D01*
X138526Y-76474D01*
X137858Y-76028D01*
X137451Y-75947D01*
X137225Y-75523D01*
X147768D01*
X147913Y-76002D01*
X147846Y-76047D01*
X147493Y-76576D01*
X147369Y-77200D01*
Y-81016D01*
X146127D01*
Y-82063D01*
X145373D01*
Y-81116D01*
X143000D01*
Y-83696D01*
Y-86272D01*
X145373D01*
Y-85326D01*
X146127D01*
Y-86172D01*
X148500D01*
Y-83593D01*
X148999D01*
Y-83095D01*
X151873D01*
Y-81016D01*
X150631D01*
Y-77200D01*
X150507Y-76576D01*
X150154Y-76047D01*
X149624Y-75693D01*
X149018Y-75572D01*
Y-75572D01*
X149018Y-75572D01*
X149000Y-75569D01*
Y-75538D01*
X149014Y-75523D01*
X151872D01*
X153677Y-77328D01*
D02*
G37*
G36*
X128569Y-77700D02*
Y-82063D01*
X126473D01*
Y-81116D01*
X124100D01*
Y-83696D01*
X123100D01*
Y-81116D01*
X120727D01*
Y-81217D01*
X120373D01*
Y-81217D01*
X119131D01*
Y-78376D01*
X120076Y-77431D01*
X128348D01*
X128569Y-77700D01*
D02*
G37*
%LPC*%
G36*
X151873Y-84095D02*
X149500D01*
Y-86172D01*
X151873D01*
Y-84095D01*
D02*
G37*
G36*
X174066Y-153700D02*
X171004D01*
Y-161093D01*
X174066D01*
Y-153700D01*
D02*
G37*
%LPD*%
D10*
X102995Y-120100D02*
D03*
X108900D02*
D03*
X137005Y-97700D02*
D03*
X131100D02*
D03*
X102694Y-108700D02*
D03*
X108600D02*
D03*
X162305Y-109000D02*
D03*
X156400D02*
D03*
D24*
X50200Y-25106D02*
D03*
Y-19200D02*
D03*
X56800Y-24800D02*
D03*
Y-18894D02*
D03*
X65300Y-24700D02*
D03*
Y-18794D02*
D03*
X72300Y-24700D02*
D03*
Y-18794D02*
D03*
X62362Y-164632D02*
D03*
Y-170538D02*
D03*
X142500Y-83694D02*
D03*
Y-89600D02*
D03*
X136500Y-83694D02*
D03*
Y-89600D02*
D03*
X123600Y-83694D02*
D03*
Y-89600D02*
D03*
X141100Y-139206D02*
D03*
Y-133300D02*
D03*
X147200Y-139206D02*
D03*
Y-133300D02*
D03*
X134600Y-139371D02*
D03*
Y-133465D02*
D03*
X149000Y-83595D02*
D03*
Y-89500D02*
D03*
X117500Y-89700D02*
D03*
Y-83794D02*
D03*
D28*
X199700Y-8300D02*
X204337Y-12937D01*
Y-18700D02*
Y-12937D01*
Y-24337D02*
Y-18700D01*
X156400Y-89500D02*
Y-76200D01*
Y-102000D02*
Y-89500D01*
X149000D02*
X156400D01*
Y-109000D02*
Y-102000D01*
X108300Y-72800D02*
X153000D01*
X104500Y-76600D02*
X108300Y-72800D01*
X104500Y-85200D02*
Y-76600D01*
X230500Y-62200D02*
Y-29200D01*
X204337Y-24337D02*
X206200Y-26200D01*
X227500D01*
X230500Y-29200D01*
X220000Y-73500D02*
Y-72700D01*
Y-77800D02*
Y-73500D01*
X93100Y-101600D02*
X97000Y-97700D01*
X90700Y-104000D02*
X93100Y-101600D01*
X108900Y-120100D02*
Y-109000D01*
X94000Y-131200D02*
X100500D01*
X90700Y-127900D02*
X94000Y-131200D01*
X153000Y-72800D02*
X156400Y-76200D01*
X97000Y-97700D02*
X123800D01*
X151900Y-133300D02*
X156400Y-128800D01*
X141100Y-133300D02*
X147200D01*
X151900D01*
X156400Y-128800D02*
Y-109000D01*
X220000Y-72700D02*
X230500Y-62200D01*
X108900Y-120100D02*
X109200Y-120400D01*
X108600Y-108700D02*
X108900Y-109000D01*
X156200Y-101800D02*
X156400Y-102000D01*
X120000Y-101800D02*
X156200D01*
X108600Y-108700D02*
Y-104900D01*
X111700Y-101800D01*
X120000D01*
X134600Y-133300D02*
X141100D01*
X182100Y-131800D02*
Y-86900D01*
X90700Y-127900D02*
Y-104000D01*
D29*
X214000Y-67500D02*
X220000Y-73500D01*
X214000Y-67500D02*
Y-54250D01*
X228100Y-151500D02*
Y-140200D01*
X232100Y-136200D01*
Y-98900D01*
X220000Y-86800D02*
Y-77800D01*
Y-86800D02*
X232100Y-98900D01*
D30*
X175300Y-68800D02*
X176000Y-68100D01*
X175300Y-71600D02*
Y-68800D01*
Y-71600D02*
X176900Y-73200D01*
X178900D01*
X180100Y-72000D01*
Y-46100D01*
X173000Y-39000D02*
X180100Y-46100D01*
X147100Y-13100D02*
X173000Y-39000D01*
X71200Y-13100D02*
X147100D01*
X69600Y-14700D02*
X71200Y-13100D01*
X69600Y-16300D02*
Y-14700D01*
Y-16300D02*
X70043Y-16743D01*
X70249D01*
X72300Y-18794D01*
X172700Y-68100D02*
X173700Y-69100D01*
Y-72263D02*
Y-69100D01*
Y-72263D02*
X176237Y-74800D01*
X179563D01*
X181700Y-72663D01*
Y-44800D01*
X170163Y-33263D02*
X181700Y-44800D01*
X148400Y-11500D02*
X170163Y-33263D01*
X70537Y-11500D02*
X148400D01*
X68000Y-14037D02*
X70537Y-11500D01*
X68000Y-16094D02*
Y-14037D01*
X65300Y-18794D02*
X68000Y-16094D01*
X50200Y-19200D02*
X52700Y-16700D01*
Y-13837D01*
X59237Y-7300D01*
X156563D01*
X188800Y-39537D01*
Y-48137D02*
Y-39537D01*
Y-74963D02*
Y-48137D01*
X183763Y-80000D02*
X188800Y-74963D01*
X169637Y-80000D02*
X183763D01*
X167700Y-78063D02*
X169637Y-80000D01*
X167700Y-78063D02*
Y-75800D01*
X166800Y-74900D02*
X167700Y-75800D01*
X155900Y-8900D02*
X187200Y-40200D01*
Y-48800D02*
Y-40200D01*
X59900Y-8900D02*
X155900D01*
X54300Y-16395D02*
X56800Y-18894D01*
X54300Y-14500D02*
X59900Y-8900D01*
X54300Y-16395D02*
Y-14500D01*
X170200Y-78300D02*
X183200D01*
X166800Y-74900D02*
X167700Y-74000D01*
X169300Y-74100D02*
X170200Y-75000D01*
X169300Y-77400D02*
Y-75900D01*
X170200Y-75000D01*
X187200Y-74300D02*
Y-48800D01*
X169300Y-77400D02*
X170200Y-78300D01*
X183200D02*
X187200Y-74300D01*
D31*
X69400Y-27600D02*
X72300Y-24700D01*
X65300D02*
X67600Y-27000D01*
X69400Y-29700D02*
Y-27600D01*
X67600Y-29700D02*
Y-27000D01*
X69400Y-36400D02*
Y-29700D01*
Y-36400D02*
X71000Y-38000D01*
X67600Y-36400D02*
Y-29700D01*
X66000Y-38000D02*
X67600Y-36400D01*
X54400Y-27200D02*
X56800Y-24800D01*
X50200Y-25106D02*
X52600Y-27505D01*
X54400Y-30400D02*
Y-27200D01*
X52600Y-30400D02*
Y-27505D01*
X54400Y-36400D02*
Y-30400D01*
Y-36400D02*
X56000Y-38000D01*
X52600Y-36400D02*
Y-30400D01*
X51000Y-38000D02*
X52600Y-36400D01*
X213913Y-48301D02*
X214000Y-48388D01*
X204293Y-48301D02*
X213913D01*
X204493Y-42900D02*
X204516Y-42876D01*
X214000D01*
X134900Y-93000D02*
X137005Y-95105D01*
Y-97700D02*
Y-95105D01*
X127900Y-126300D02*
X129400Y-124800D01*
X132300Y-126500D02*
X132400D01*
X131200Y-125400D02*
X132300Y-126500D01*
X131200Y-123400D02*
X132400Y-122200D01*
X146900D01*
X131654Y-120400D02*
X147646D01*
X151473Y-124227D01*
X131200Y-125400D02*
Y-123400D01*
X129400Y-124800D02*
Y-122654D01*
X131654Y-120400D01*
X151473Y-124227D02*
X152773D01*
X152800Y-124200D01*
X146900Y-122200D02*
X151327Y-126627D01*
X152700D01*
X120100Y-107500D02*
Y-101900D01*
X120000Y-101800D02*
X120100Y-101900D01*
X114300Y-156700D02*
Y-111700D01*
X112400Y-107600D02*
X112600Y-107400D01*
X119300Y-116500D02*
X119600Y-116800D01*
X197662Y-138700D02*
X198800Y-137562D01*
Y-132400D01*
X188500Y-143300D02*
X188900Y-143700D01*
X195800Y-114100D02*
Y-65400D01*
Y-114100D02*
X204400Y-122700D01*
Y-134700D02*
Y-122700D01*
X199100Y-140000D02*
X204400Y-134700D01*
X185600Y-172300D02*
X193900Y-164000D01*
Y-151600D01*
X193800Y-151500D02*
X193900Y-151600D01*
X119500Y-165100D02*
X155400D01*
X162600Y-172300D01*
X185600D01*
X114300Y-156700D02*
X121200Y-163600D01*
X156300D01*
X163400Y-170700D01*
X184600D01*
X190600Y-164700D01*
Y-148600D01*
X192500Y-146700D02*
X203800D01*
X190600Y-148600D02*
X192500Y-146700D01*
X122400Y-161700D02*
X157200D01*
X164900Y-169400D01*
X183400D01*
X188900Y-163900D02*
Y-143700D01*
X183400Y-169400D02*
X188900Y-163900D01*
X123500Y-160300D02*
X159700D01*
X119200Y-153000D02*
X125200Y-159000D01*
X157900D01*
X164250Y-152650D01*
X159700Y-160300D02*
X166400Y-153600D01*
X138500Y-78100D02*
X139800Y-79400D01*
Y-89200D02*
Y-79400D01*
X139100Y-89900D02*
X139400Y-89600D01*
X139800Y-89200D01*
X123600Y-83694D02*
X130200D01*
X136500D01*
X142500D02*
X148900D01*
X149000Y-83595D01*
Y-77200D01*
X117500Y-77700D02*
X119400Y-75800D01*
X134700D01*
X117500Y-83794D02*
Y-77700D01*
X137000Y-78100D02*
X138500D01*
X134700Y-75800D02*
X137000Y-78100D01*
X130200Y-83694D02*
Y-77700D01*
X61910Y-177291D02*
Y-170991D01*
X62362Y-170538D01*
Y-164632D02*
X64668D01*
X68000Y-161300D01*
X112400Y-158000D02*
Y-107600D01*
Y-158000D02*
X119500Y-165100D01*
X116900Y-117200D02*
Y-111800D01*
X115800Y-155100D02*
Y-118300D01*
Y-155100D02*
X122400Y-161700D01*
X115800Y-118300D02*
X116900Y-117200D01*
X119300Y-117900D02*
Y-116500D01*
X117600Y-119600D02*
X119300Y-117900D01*
X117600Y-154400D02*
Y-119600D01*
Y-154400D02*
X123500Y-160300D01*
X119200Y-153000D02*
Y-120600D01*
X172100Y-140000D02*
X199100D01*
X166400Y-145700D02*
X172100Y-140000D01*
X166400Y-153600D02*
Y-145700D01*
X171000Y-138700D02*
X197662D01*
X164250Y-152650D02*
Y-145450D01*
X171000Y-138700D01*
X116200Y-107400D02*
X121800Y-113000D01*
X119200Y-120600D02*
X121800Y-118000D01*
Y-113000D01*
D32*
X129000Y-89600D02*
X136500D01*
X126400Y-92200D02*
X129000Y-89600D01*
X126400Y-95100D02*
Y-92200D01*
X123800Y-97700D02*
X126400Y-95100D01*
X128900Y-94000D02*
X131100Y-96200D01*
Y-97700D02*
Y-96200D01*
X121500Y-94100D02*
X123600Y-92000D01*
Y-89600D01*
X124500D01*
X135300D02*
X136500D01*
X134600Y-129537D02*
X136800Y-127337D01*
X134600Y-133465D02*
Y-133300D01*
Y-129537D01*
X141100Y-133300D02*
Y-127600D01*
X147200Y-133300D02*
Y-128800D01*
X145900Y-127500D02*
X147200Y-128800D01*
X120800Y-86800D02*
X123600Y-89600D01*
X107900Y-89100D02*
X110200Y-86800D01*
X120800D01*
D33*
X213400Y-54500D02*
X214000Y-53900D01*
X204337Y-54500D02*
X213400D01*
X117500Y-93100D02*
Y-89700D01*
X116100Y-94500D02*
X117500Y-93100D01*
X136500Y-90400D02*
Y-89600D01*
X156500Y-114100D02*
X159800D01*
X149000Y-89500D02*
X149100Y-89600D01*
X139600Y-94100D02*
X147600D01*
X149100Y-92600D02*
Y-89600D01*
X147600Y-94100D02*
X149100Y-92600D01*
X136500Y-89600D02*
X137400Y-90500D01*
X139100Y-91400D02*
Y-89900D01*
X136500Y-89600D02*
X139400D01*
X142500D01*
X20300Y-167900D02*
X24100Y-171700D01*
X59900Y-167800D02*
X67400D01*
X24100Y-171700D02*
X56000D01*
X59900Y-167800D01*
X14764Y-8858D02*
G03*
X14764Y-8858I-5906J0D01*
G01*
Y-176181D02*
G03*
X14764Y-176181I-5906J0D01*
G01*
X260827Y-8858D02*
G03*
X260827Y-8858I-5906J0D01*
G01*
Y-176181D02*
G03*
X260827Y-176181I-5906J0D01*
G01*
D35*
X124500Y-52900D02*
X132322Y-45078D01*
X85800Y-52900D02*
X124500D01*
X132322Y-45078D02*
Y-35600D01*
X73100Y-65600D02*
X85800Y-52900D01*
X73100Y-87300D02*
Y-65600D01*
Y-87300D02*
Y-70200D01*
Y-112100D02*
Y-87300D01*
X97300Y-90700D02*
X106300D01*
X97200D02*
X97300D01*
X106300D02*
X107900Y-89100D01*
D38*
X0Y0D02*
X263779D01*
X0Y-185039D02*
Y0D01*
X263779Y-185039D02*
Y0D01*
X0Y-185039D02*
X263779D01*
D39*
X132322Y-35600D02*
D03*
X124448D02*
D03*
X116574D02*
D03*
X238126Y-148300D02*
D03*
X112126Y-173200D02*
D03*
D40*
X108700Y-35600D02*
D03*
X246000Y-148300D02*
D03*
X120000Y-173200D02*
D03*
D41*
X86512Y-38000D02*
D03*
X35488D02*
D03*
D42*
X76000D02*
D03*
X71000D02*
D03*
X66000D02*
D03*
X61000D02*
D03*
X56000D02*
D03*
X51000D02*
D03*
X46000D02*
D03*
D43*
X230000Y-77800D02*
D03*
X250000D02*
D03*
X240000D02*
D03*
D44*
X220000D02*
D03*
D45*
X214000Y-37365D02*
D03*
Y-42876D02*
D03*
Y-48388D02*
D03*
Y-53900D02*
D03*
Y-109165D02*
D03*
Y-114676D02*
D03*
Y-120188D02*
D03*
Y-125700D02*
D03*
D46*
X221874Y-57758D02*
D03*
Y-33506D02*
D03*
Y-129558D02*
D03*
Y-105306D02*
D03*
D47*
X243921Y-45632D02*
D03*
Y-117432D02*
D03*
D48*
X152000Y-175372D02*
D03*
Y-150963D02*
D03*
D49*
X170504Y-161593D02*
D03*
D50*
X198400Y-85600D02*
D03*
X249700Y-90300D02*
D03*
X257800Y-91800D02*
D03*
X258200Y-100200D02*
D03*
X251300Y-99500D02*
D03*
X243700D02*
D03*
X251200Y-25300D02*
D03*
X5800Y-102200D02*
D03*
X5700Y-89500D02*
D03*
Y-71600D02*
D03*
X6500Y-60600D02*
D03*
X6300Y-48500D02*
D03*
X7100Y-38400D02*
D03*
X6500Y-26300D02*
D03*
X17000Y-32700D02*
D03*
X16400Y-21000D02*
D03*
X19300Y-5700D02*
D03*
X210400Y-5100D02*
D03*
X193300Y-14500D02*
D03*
X186100Y-11100D02*
D03*
X83500Y-81100D02*
D03*
X92600Y-64100D02*
D03*
X84700Y-70400D02*
D03*
X64000Y-73700D02*
D03*
X60500Y-57000D02*
D03*
X52000Y-72900D02*
D03*
X35000Y-57500D02*
D03*
X33500Y-71100D02*
D03*
X34000Y-84100D02*
D03*
X153100Y-143400D02*
D03*
X173600Y-63300D02*
D03*
X166800Y-70300D02*
D03*
X161300D02*
D03*
X181800Y-24800D02*
D03*
X173700Y-17400D02*
D03*
X166100Y-10900D02*
D03*
X165800Y-37300D02*
D03*
X159200Y-30700D02*
D03*
X153200Y-24300D02*
D03*
X146300Y-19900D02*
D03*
X138100Y-18400D02*
D03*
X127600Y-18600D02*
D03*
X117900Y-18300D02*
D03*
X110200Y-18200D02*
D03*
X102400Y-17900D02*
D03*
X95300D02*
D03*
X87000Y-17800D02*
D03*
X79000Y-17500D02*
D03*
X6200Y-144300D02*
D03*
X11400D02*
D03*
X16300Y-144500D02*
D03*
X17400Y-140100D02*
D03*
X8700Y-147400D02*
D03*
X13000D02*
D03*
X104500Y-85200D02*
D03*
X100500Y-131200D02*
D03*
X131600Y-115700D02*
D03*
X137150D02*
D03*
X142700D02*
D03*
Y-111550D02*
D03*
X131600Y-107400D02*
D03*
X137150D02*
D03*
X142700D02*
D03*
X137200Y-111400D02*
D03*
X131600Y-111300D02*
D03*
D51*
X199700Y-8300D02*
D03*
X97300Y-90700D02*
D03*
X228100Y-151500D02*
D03*
X182100Y-86900D02*
D03*
X182200Y-131900D02*
D03*
X73100Y-112100D02*
D03*
D52*
X115300Y-42700D02*
D03*
X100200Y-42800D02*
D03*
X92800Y-42700D02*
D03*
X165100Y-99500D02*
D03*
X167700Y-95300D02*
D03*
X41200Y-56000D02*
D03*
X153900Y-63000D02*
D03*
X177700D02*
D03*
X169100Y-62700D02*
D03*
X128900Y-94000D02*
D03*
X93100Y-101600D02*
D03*
X134900Y-93000D02*
D03*
X157000Y-105800D02*
D03*
X172700Y-68100D02*
D03*
X176000D02*
D03*
X166800Y-74900D02*
D03*
X170200Y-75000D02*
D03*
X120100Y-107500D02*
D03*
X145900Y-127500D02*
D03*
X159800Y-114100D02*
D03*
X136800Y-127337D02*
D03*
X139100Y-91400D02*
D03*
X139600Y-94100D02*
D03*
X121500D02*
D03*
X116100Y-94500D02*
D03*
X141100Y-127600D02*
D03*
X127900Y-126300D02*
D03*
X132400Y-126500D02*
D03*
X152773Y-124227D02*
D03*
X152700Y-126827D02*
D03*
X114300Y-111700D02*
D03*
X116900Y-111800D02*
D03*
X119300Y-116500D02*
D03*
X116200Y-107400D02*
D03*
X112600D02*
D03*
X108983Y-115583D02*
D03*
X193800Y-151500D02*
D03*
X188900Y-143700D02*
D03*
X203800Y-146700D02*
D03*
X198800Y-132400D02*
D03*
X195800Y-65400D02*
D03*
X149000Y-77200D02*
D03*
X137000Y-78100D02*
D03*
X130200Y-77700D02*
D03*
X61910Y-177291D02*
D03*
X68000Y-161300D02*
D03*
X20300Y-167900D02*
D03*
X67400Y-167800D02*
D03*
X153900Y-68800D02*
D03*
X160700Y-76000D02*
D03*
X163000Y-78800D02*
D03*
X160800Y-80000D02*
D03*
X189800Y-85000D02*
D03*
X188900Y-26800D02*
D03*
X190500Y-35400D02*
D03*
X192600Y-40300D02*
D03*
X193400Y-47500D02*
D03*
Y-51700D02*
D03*
X193300Y-56000D02*
D03*
X193600Y-61100D02*
D03*
X193400Y-70100D02*
D03*
X192800Y-77000D02*
D03*
X189800Y-81100D02*
D03*
X15000Y-50900D02*
D03*
X14800Y-59400D02*
D03*
X15400Y-65800D02*
D03*
X15600Y-72700D02*
D03*
X16300Y-79100D02*
D03*
X7800Y-81700D02*
D03*
X6200Y-111700D02*
D03*
X15800Y-115700D02*
D03*
X22400D02*
D03*
X32300Y-115500D02*
D03*
X37100Y-115700D02*
D03*
X66300Y-113500D02*
D03*
X97700Y-80500D02*
D03*
X94500Y-84700D02*
D03*
X91500Y-136600D02*
D03*
X97700Y-136700D02*
D03*
X91800Y-140600D02*
D03*
X97000Y-140800D02*
D03*
X92400Y-145700D02*
D03*
X97200Y-145900D02*
D03*
X35600Y-181100D02*
D03*
X45700Y-180900D02*
D03*
X55900Y-180600D02*
D03*
X68200D02*
D03*
X78500Y-180300D02*
D03*
X70400Y-175300D02*
D03*
X170300Y-131600D02*
D03*
X162300Y-134100D02*
D03*
X168600Y-134900D02*
D03*
X177900Y-135400D02*
D03*
X217100Y-158600D02*
D03*
X222500D02*
D03*
X228300D02*
D03*
X232900Y-158200D02*
D03*
X203900Y-62700D02*
D03*
X204300Y-72900D02*
D03*
X204200Y-80600D02*
D03*
X40100Y-177700D02*
D03*
X5000Y-153700D02*
D03*
X9100D02*
D03*
X16100Y-151100D02*
D03*
X19800D02*
D03*
X5300Y-157900D02*
D03*
X9300Y-157600D02*
D03*
X14600Y-157900D02*
D03*
X9500Y-115800D02*
D03*
X85800Y-95800D02*
D03*
X190400Y-91800D02*
D03*
X191000Y-97800D02*
D03*
X191600Y-105600D02*
D03*
Y-112200D02*
D03*
X240100Y-158700D02*
D03*
X237500Y-164400D02*
D03*
X232800Y-164500D02*
D03*
X221200Y-163400D02*
D03*
X227300Y-165500D02*
D03*
X214500Y-162600D02*
D03*
X231500Y-174500D02*
D03*
X241300Y-172800D02*
D03*
X246800Y-161800D02*
D03*
X255700Y-161000D02*
D03*
X258200Y-150700D02*
D03*
X211000Y-21600D02*
D03*
X216700Y-21700D02*
D03*
X223500Y-21800D02*
D03*
X229500Y-21700D02*
D03*
X236400Y-22900D02*
D03*
X241000Y-28700D02*
D03*
X241700Y-90100D02*
D03*
X208300Y-97100D02*
D03*
X218200Y-97000D02*
D03*
X238600Y-94500D02*
D03*
X199200Y-123100D02*
D03*
D53*
X54724Y-168000D02*
D03*
X50000D02*
D03*
X54724Y-163276D02*
D03*
X50000D02*
D03*
D54*
X200400Y-54500D02*
D03*
X204337D02*
D03*
X200556Y-42900D02*
D03*
X204493D02*
D03*
X200356Y-48301D02*
D03*
X204293D02*
D03*
D55*
X11594Y-143300D02*
D03*
M02*
