%FSLAX25Y25*%
%MOIN*%
G70*
G01*
G75*
G04 Layer_Color=16711935*
%ADD10R,0.07087X0.03937*%
%ADD11O,0.08465X0.02756*%
%ADD12R,0.05100X0.05100*%
%ADD13R,0.02559X0.06496*%
%ADD14R,0.05100X0.05100*%
%ADD15O,0.01102X0.07087*%
%ADD16O,0.07087X0.01102*%
%ADD17R,0.07480X0.09449*%
%ADD18R,0.10799X0.08500*%
%ADD19C,0.01102*%
%ADD20C,0.01000*%
%ADD21C,0.02362*%
%ADD22C,0.01500*%
%ADD23C,0.01200*%
%ADD24C,0.03000*%
%ADD25C,0.02000*%
%ADD26C,0.02500*%
%ADD27C,0.04000*%
%ADD28C,0.04331*%
%ADD29R,0.18600X0.07100*%
%ADD30R,0.10000X0.05300*%
%ADD31R,0.19700X0.10000*%
%ADD32C,0.05906*%
%ADD33R,0.05906X0.05906*%
%ADD34C,0.02000*%
%ADD35C,0.03000*%
G04:AMPARAMS|DCode=36|XSize=94.49mil|YSize=29.13mil|CornerRadius=0.73mil|HoleSize=0mil|Usage=FLASHONLY|Rotation=270.000|XOffset=0mil|YOffset=0mil|HoleType=Round|Shape=RoundedRectangle|*
%AMROUNDEDRECTD36*
21,1,0.09449,0.02768,0,0,270.0*
21,1,0.09303,0.02913,0,0,270.0*
1,1,0.00146,-0.01384,-0.04652*
1,1,0.00146,-0.01384,0.04652*
1,1,0.00146,0.01384,0.04652*
1,1,0.00146,0.01384,-0.04652*
%
%ADD36ROUNDEDRECTD36*%
%ADD37R,0.15700X0.09409*%
%ADD38C,0.00984*%
%ADD39C,0.01969*%
%ADD40C,0.01181*%
%ADD41C,0.00500*%
%ADD42C,0.00787*%
%ADD43C,0.00700*%
%ADD44C,0.00394*%
%ADD45C,0.00591*%
%ADD46R,0.08221X0.00898*%
%ADD47C,0.03937*%
%ADD48R,0.07887X0.04737*%
%ADD49O,0.09265X0.03556*%
%ADD50R,0.05900X0.05900*%
%ADD51R,0.03359X0.07296*%
%ADD52R,0.05900X0.05900*%
%ADD53O,0.01502X0.07487*%
%ADD54O,0.07487X0.01502*%
%ADD55R,0.08280X0.10249*%
%ADD56R,0.11599X0.09300*%
%ADD57C,0.06706*%
%ADD58R,0.06706X0.06706*%
G04:AMPARAMS|DCode=59|XSize=102.49mil|YSize=37.13mil|CornerRadius=0.93mil|HoleSize=0mil|Usage=FLASHONLY|Rotation=270.000|XOffset=0mil|YOffset=0mil|HoleType=Round|Shape=RoundedRectangle|*
%AMROUNDEDRECTD59*
21,1,0.10249,0.03528,0,0,270.0*
21,1,0.10063,0.03713,0,0,270.0*
1,1,0.00186,-0.01764,-0.05032*
1,1,0.00186,-0.01764,0.05032*
1,1,0.00186,0.01764,0.05032*
1,1,0.00186,0.01764,-0.05032*
%
%ADD59ROUNDEDRECTD59*%
%ADD60C,0.00600*%
%ADD61C,0.00197*%
D41*
X-240631Y-196494D02*
G03*
X-3937Y-78740I89056J117754D01*
G01*
X-148000Y-362205D02*
X86937D01*
X-247319D02*
X-188500D01*
Y-345500D01*
X-148000D01*
Y-362205D02*
Y-345500D01*
X-247319Y-196500D02*
X-240631D01*
X35000Y-262500D02*
X86937D01*
X35000D02*
Y-211500D01*
X123681D01*
Y-3602D01*
X86937Y-362205D02*
Y-262500D01*
X-247319Y-362205D02*
Y-196500D01*
X-3937Y-3937D02*
X0Y0D01*
X120079D02*
X123681Y-3602D01*
X-3937Y-78740D02*
Y-3937D01*
X0Y0D02*
X120079D01*
D44*
X54244Y-17223D02*
G03*
X54244Y-17223I-6299J0D01*
G01*
X54145Y-17223D02*
G03*
X54145Y-17223I-6299J0D01*
G01*
D61*
X-151477Y-78740D02*
G03*
X-151477Y-78740I-98J0D01*
G01*
D02*
G03*
X-151477Y-78740I-98J0D01*
G01*
D02*
G03*
X-151477Y-78740I-98J0D01*
G01*
D02*
G03*
X-151477Y-78740I-98J0D01*
G01*
M02*
