M48
;Layer_Color=9474304
;FILE_FORMAT=2:5
INCH,LZ
;TYPE=PLATED
T1F00S00C0.01200
T2F00S00C0.01500
T3F00S00C0.02000
T4F00S00C0.02500
T5F00S00C0.03150
T6F00S00C0.03500
T7F00S00C0.03543
T8F00S00C0.03937
T9F00S00C0.05906
T10F00S00C0.06299
T11F00S00C0.07087
;TYPE=NON_PLATED
%
T01
X00915Y-00943
X00926Y-00893
X00946Y-00596
X00874Y-00555
X00771Y-00447
X0067828Y-0069728
X00629Y-00726
X00652Y-00178
X00604Y-0012
X0057Y00003
X00642Y00031
X00631Y0007
X00543Y00166
X00544Y00197
X0050379Y0015721
X00479Y00118
X00339Y0002
X00292Y00058
X00256Y00066
X0025642Y0020157
X0025821Y0025079
X0028858Y0041336
X0027956Y0054756
X00484Y0036415
X0058253Y00442
X00911Y00326
X00771Y00176
X00829Y-00003
X00802Y-00057
X0075755Y-0006045
X00779Y-00084
X00827
X00967Y-00143
X00972Y-00007
X00977Y00048
X0043256Y-0033356
X0037744Y-0033456
X0004663Y-0015737
X-00033Y0041336
T02
X01844Y00049
X01889Y00027
X01923Y00075
X01912Y00115
X01917Y00166
X01978Y00167
X01974Y00114
X02043Y00061
X0211Y00125
X02178Y0014
X02184Y00221
X02181Y00335
X02182Y-00006
X02098Y-00055
X0183745Y0011245
X01856Y00167
X0177573Y00642
Y00687
X0177Y0076
X01774Y008
X01821Y00803
X01846Y0077
X0189Y00735
X0169Y00719
X01681Y00763
X01648Y00733
X01611Y00693
X01604Y00643
Y00592
Y00549
X01674Y00557
X01655Y00607
X01652Y00652
X017Y00667
X01721Y00625
X01724Y00796
X01389Y00383
X01398Y00336
X0139Y00283
X01384Y00214
Y00161
X0138Y00116
X01379Y00069
X0138Y00011
X01323Y-00002
X01324Y00054
X01327Y00111
X01326Y00157
X01319Y00205
X0132Y00274
X01328Y00331
X01329Y00385
X01242Y00333
X01243Y00295
Y00247
Y00187
X01242Y0013
X01239Y00059
X01237Y-00005
X0123Y-00067
X01241Y-00117
X0127Y-00155
X0144389Y01447
X01471Y01498
X014Y01494
X01495Y014
X01552Y01429
X01536Y01345
X01602Y01376
X01646Y01341
X02093Y01263
X02166Y01247
X02144Y01301
X02176Y01175
X02183Y01082
Y0100026
T03
X00139Y-00741
X00215Y-0081
X00329Y-00895
X00353Y-00737
X00731Y-00744
X00803Y-00747
X00968Y-0077
X01039Y-00775
X01117Y-00866
X01116Y-00918
X01114Y-00964
X01084Y-01143
X00974
X00806Y-01094
X00728Y-01044
X01213Y-01143
X01118Y-00631
X01119Y-0058
X01119Y-0053
X00966Y-007
X00897Y-00311
X00594Y-00339
X00599Y-00435
X00506Y-00437
X00534Y-00499
X00434Y-00491
X00424Y-0065
X00064Y-00665
X00106Y-00217
X00116Y-0014
X00235Y-00111
X00284Y-00134
X00337Y-00157
X00318Y-00075
X00244Y00153
X00262Y00331
X00356Y00329
X0063Y00393
X00626Y00464
X00658Y00511
X0072Y0047
X00764Y00512
X00786Y00421
X00679Y00419
X00562Y00518
X00708Y00714
X00707Y00799
X00801Y00209
X00586Y00187
X00628Y00124
X00572Y00064
X00477Y0008
X-00055Y00191
X-00054Y00469
X-00073Y00547
X-00332Y0052
X-00337Y00414
X-00338Y00331
Y00212
X-00316Y00075
X-00307Y00629
X00703Y00897
T04
X00528Y-00982
X00625Y-01026
X0054Y-00639
X0078713Y-00698
X01138Y-00428
X01247Y-00442
X01314Y-00377
X00276Y-00199
X-00048Y-00456
X000619Y00762
X00358Y00562
X00824Y00509
X00813Y00353
X00732Y00409
X00784Y0092
X00935Y00924
X00973Y01059
X01033Y01031
X01031Y01142
X00962Y01143
X00947Y01214
X01029Y01212
Y01301
X00943
X00852Y01307
X00864Y01218
X00872Y01142
X00881Y01049
X00761Y01056
X00767Y01133
X00768Y01215
X00754Y0131
X00613Y01456
X00287Y01541
X00162Y01467
X00118Y0087
X00319Y00968
T05
X01706Y-0097121
Y-0087279
X01966Y-0082421
Y-0072579
X0214114Y-00149
X0240886
X00879Y0070479
Y0080321
X01206Y01034
Y01134
Y01234
X01506
Y01134
Y01034
X0182672Y01079
X0182472Y00889
X0241528
X0241728Y01079
T06
X01233Y-0107
Y-0073
T07
X0146Y-0097
Y-0087
Y-00607
Y-00507
X00802Y-00565
X00702Y-00565
X00602
X00378Y-00558
X00278
X-00132Y00231
Y00331
Y00431
Y00531
X-00075Y0068058
Y0087743
X00144Y01085
Y01285
T08
X0212215Y00018
X0212415Y00263
X0251785
X0251585Y00018
T09
X02428Y0051095
Y0066695
X01354Y0074323
Y-0010323
X0089595Y01592
X0073995
T10
X01393Y01637
X01593
X01829Y01349
X02029
T11
X01707Y-0013346
Y0008898
Y0030946
M30
