M48
INCH,LZ
T01C.012
T02C.02
T03C.025
T04C.035429
T05C.035433
;LEADER: 12 
;HEADER: 
;CODE  : ASCII 
;FILE  : ESP333-1-4.drl for  ... layers TOP and BOTTOM
;T01 Holesize 1. = 12.000000 Tolerance = +0.000000/-0.000000 PLATED MILS Quantity = 475
;T02 Holesize 2. = 20.000000 Tolerance = +0.000000/-0.000000 PLATED MILS Quantity = 32
;T03 Holesize 3. = 25.000000 Tolerance = +0.000000/-0.000000 PLATED MILS Quantity = 3
;T04 Holesize 4. = 35.429000 Tolerance = +0.000000/-0.000000 PLATED MILS Quantity = 6
;T05 Holesize 5. = 35.433000 Tolerance = +0.000000/-0.000000 PLATED MILS Quantity = 2
%
G90
T01
X-00084518Y00034083
X-00076938Y-00002484
X-00079399Y00005648
X-00058525Y00029026
X-00019798Y00038789
X-00033492Y-00013094
X-00001903Y-00036544
X00011986Y-00035691
X0008557Y-00023653
X-00001522Y00091431
X-00001454Y00097362
X-00000029Y00103294
X-00022142Y0009511
Y00103293
X00043243Y-00082666
X00043764Y-00065695
X-0008001Y00053096
X-00077402Y00008197
X-00085225Y00021923
X-00039718Y00079927
X-00069247Y-00051649
X-00042002Y00007502
X-00008881Y-00038569
X-00077343Y00000602
X-00036458Y00043082
X-0001551Y00043398
X-00009411Y-00051019
X-000771Y00015696
X-00024564Y-00048402
X-00019487Y-00051686
X-00072001Y00020674
X-000814Y00040803
X-000637Y00026688
X-00067609Y00051564
X-00068285Y00023823
X-00079438Y00045884
X-00049995Y00016147
X-00074508Y00001009
X-0005192Y00035479
X00011283Y00049595
X0002237Y00059305
X-00005154Y00059506
X-00021968Y00051691
Y00044783
X-00048319Y00031867
X-00021998Y00035968
X-00046763Y-00003068
X00018176Y00059338
X-00037767Y00010553
X-00034022Y00046899
X00016587Y-00035597
X00008076Y-00034915
X-00068554Y00060576
X-0006645Y00022125
X-00073551Y00044621
X-00027469Y00051582
X-00067122Y00043801
X-000615Y00060601
X0000426Y-00036755
X-00024732Y-00043587
X-00020731Y-00036976
X-00035442Y-00008747
X-00012327Y-00036851
X-00011768Y-00049741
X-00035666Y-00011338
X00008786Y-00038505
X-00039644Y00004999
X00014656Y-0003821
X-00044825Y00013672
X-00026961Y-0003956
X-00022738Y-00035329
X00092591Y00012518
X00102591Y00022518
Y00017518
X00097591
X00087591Y00037518
X00082591
X00087591Y00032518
Y00027518
X00102591
X00072591Y00052518
X00067591
X00077591Y00047518
X00072591
X00077591Y00042518
X00082591Y00052518
X00087591Y00047518
X00082591Y00042518
X00092591Y00052518
Y00042518
X00072591Y00062518
X00077591Y00057518
X00082591Y00067518
X00087591Y00057518
X-00022409Y-00097482
Y-00102482
X-00027409
X-00017409Y-00097482
Y-00102482
X00022591Y-00097482
X00017591
X00022591Y-00102482
X00017591
X00027591Y-00097482
Y-00102482
X00042591Y-00097482
X-00007409Y-00082482
Y-00087482
X-00012409
Y-00092482
X-00017409
X00007591Y-00082482
Y-00087482
X00002591
X-00002409
X00012591Y-00082482
X00017591Y-00087482
X00012591
X00022591Y-00092482
R02X-00005
X00027591Y-00082482
X00032591Y-00092482
X00037591Y-00087482
X00022591Y-00077482
X00027591
X-00062409Y-00082482
X-00067409
X-00057409
Y-00087482
X-00052409Y-00092482
X-00077409Y-00072482
X-00072409
X-00062409Y-00077482
R02X-00005
X-00047409Y-00072482
X-00057409Y-00077482
X-00042409
X-00087409Y-00057482
X-00082409Y-00062482
X-00077409Y-00067482
X-00082409
X-00063286Y-00068542
X-00068153Y-00063237
X-00072409Y-00057482
X-00056257Y-00062797
X-00092409Y-00052482
X00062591Y-00082482
X00057591
Y-00087482
X00052591Y-00092482
X00067591Y-00082482
X00062591Y-00077482
X00077591Y-00072482
R02X-00005
X00072591Y-00077482
X00067591
X00062591Y-00067482
X00077591Y-00057482
X00072591
X00077591Y-00062482
X00072591
X00077591Y-00067482
X00072591
X00087591Y-00057482
X00082591
Y-00062482
Y-00067482
X00078963Y-00042669
X00092591Y-00052482
X-00027409Y00022518
Y00037518
Y-00072482
X-00047409Y-00057482
X-00042409
X-00032409Y-00062482
X-00037409
X-00032409Y-00067482
X-00027409Y-00062482
X-00022409Y-00067482
X-00027409
X00007591Y-00062482
R02X-00005
X00014042Y-00057437
X00021603Y-00055041
X00022591Y-00062482
X00012591
X00025194Y-00057248
X00032591Y-00062482
X00027591
X-00097409Y-00042482
X-00061563Y-00046407
X-00062409Y-00042482
X-00056189Y-00052017
X-00051289Y-00050564
X-00048366Y-00047522
X-00057409Y-00042482
Y-00047482
X-00035997Y-00041422
X-00038852Y-00044413
X-00042409Y-00047482
Y-00052482
X00014306Y-00053323
X00032591Y-00042482
X00027591
X00047591Y-00052482
X00042591
X00055904Y-00048981
X00057101Y-00044979
X00052591Y-00052482
X-00087409Y-00032482
R02X-00005
X-00087409Y-00037482
R02X-00005
X-0007258Y-00028694
X-00062409Y-00032482
X-00072409
X-00062409Y-00037482
X-00067409
X-00047409Y-00032482
X-00052409
X-00047409Y-00037482
R02X-00005
X-0003339Y-00037296
X-00032884Y-0003204
X-00042409Y-00032482
Y-00037482
X00040004Y-00029683
X00050106Y-0003645
X00042591Y-00037482
X00067591
X-00102409Y-00017482
R02Y-00005
X-00087409Y-00017482
R02X-00005
X-00087409Y-00022482
R02X-00005
X-00087409Y-00027482
R02X-00005
X-00082409Y-00017482
Y-00022482
X-00077409Y-00027482
X-00082409
X-00047409Y-00022482
Y-00027482
X-00052409
X-0003383Y-00026667
X-00037074Y-00023084
X-00040488Y-00019772
X-00043631Y-00016765
X00053473Y-00021563
X00062591Y-00017482
R02X-00005
X00062591Y-00022482
X00057591
X00062591Y-00027482
X00057591
X00067591Y-00017482
Y-00022482
X00072591Y-00027482
X00067591
X-00092409Y-00012482
X-00046503Y-00013824
X00047591Y-00002482
Y-00007482
X00057591Y-00002482
X00052591
X00062591Y-00007482
R02X-00005
X00062591Y-00012482
X00067591Y-00007482
Y-00012482
X00047591Y00012518
Y00002518
X00057591Y00012518
X00052591
X00062591Y00002518
R02X-00005
X00071646Y00003192
X00072591Y00012518
Y00007518
X00067591Y00002518
X-00102409Y00022518
Y00017518
X-00097409Y00022518
Y00017518
X00047591Y00022518
X00042591
X00047591Y00017518
X00057591Y00022518
X00052591
X00057591Y00017518
X00052591
X00072591Y00022518
X00067591
X-00102409Y00027518
X-00097409Y00037518
X-00092409Y00032518
X-00097409
X-00092409Y00027518
X-00097409
X00032591Y00037518
X00027591
X00032591Y00032518
X00047591Y00037518
R02X-00005
X00047591Y00032518
R02X-00005
X00047591Y00027518
R02X-00005
X00052591Y00037518
X00057591Y00032518
X00052591
X00057591Y00027518
X00052591
X00067591Y00037518
X00072591Y00032518
X00067591
X00072591Y00027518
X00067591
X-00096696Y00044594
X-00092409Y00052518
X-00052409Y00047518
X-00037409Y00052518
X00007591
X00022591
R02Y-00005
X00012591
X00032591Y00052518
X00027591
X00032591Y00047518
X00027591
X00032591Y00042518
X00027591
X00037591Y00052518
X00042591Y00047518
X00037591
X00047591Y00042518
R02X-00005
X00052591Y00052518
X00062591Y00042518
X-00087409Y00057518
X-00082409Y00062518
X-00077409Y00057518
R02X00015
Y00067518
X-00057409
X-00032409
X-00037409
X-00032409Y00062518
X-00037409Y00057518
X-00042409
X-00022409Y00067518
X-00027409
X-00022409Y00062518
X-00027409Y00057518
X-00007409Y00062518
X-00012409
Y00057518
X-00002409Y00062518
X00007591Y00057518
X-00002409
X00022591Y00062518
X00032591Y00067518
R02Y-00005
X00037591Y00067518
X00042591Y00062518
X00037591
X00047591Y00057518
R02X-00005
X-00067409Y00077518
X-00062409Y00072518
X-00047409Y00077518
X-00057409
X-00047409Y00072518
X-00057409
X-00032409
X-00037409
X-00022409Y00077518
Y00072518
X-00027409
X-00007409Y00077518
X-00012409
Y00072518
X00007591Y00077518
Y00072518
X-00002409
X00022591Y00077518
X00012591
X00017591Y00072518
X00032591Y00077518
Y00072518
X00027591
X-00062409Y00082518
X-00067409
X-00052409Y00092518
X-00047409Y00087518
X-00057409
X-00047409Y00092518
X-00032409
Y00087518
X-00037409Y00082518
Y00092518
X-00022409Y00087518
Y00082518
X-00007409
X-00012409
X00007591
X-00032409Y00097518
X-00042409
X-00027409Y00102518
Y00062518
X-00082804Y-00004906
X-00085879Y-00002608
X00015951Y-00032209
X00019702Y-00030756
X00022591Y-00032482
Y-00027482
X00032591Y-00017482
Y-00022482
X00027591
Y-00027482
X00042591Y-00017482
X00037591
X00036161Y-0000693
X00033592Y-00013047
X00037591Y-00012482
X00033322Y00013111
X00027591Y00022518
X00032591Y00017518
X00018503Y00031479
X00022591Y00027518
X-00062491Y00002279
X-00056316Y00002573
X-00062393Y00008356
X-00056757Y00008454
X-00037409Y00022518
Y00007518
X-00050534Y00023645
X-00037409Y00017518
X-00058726Y00026074
X00047591Y00072518
X00052591Y00077518
X00047591Y00082518
X00052591Y00087518
X00057591Y00082518
X00067591
X-000596Y00011296
X-0006548Y00005808
X-00059452Y00005464
X-00059845Y-00000318
X-00053719Y00005856
X-00079964Y00015885
X-00014275Y-00051718
T02
X00080671Y-00053566
X00083108Y-00039118
X-00053087Y-00080755
X-00038379Y-00083972
X-00024689Y-00086462
X00032278Y-00098191
X-00028164Y-00098616
X00039412Y-00096753
X00046844Y-00056543
X-00020243Y-0008121
X00030462Y-00089132
X-00025141Y-00091164
X-00081625Y-00044476
X-00094361Y-00042725
X00067721Y00067174
X00050908Y00067943
X00081232Y00064158
X0005897Y-0004017
X0002401Y-00050025
X-0000498Y-00050612
X00058242Y-0003643
X00040431Y-00046238
X-00016843Y-00049275
X-0004975Y-00010662
X00005036Y-00051805
X-00014858Y-00061286
X-00073578Y-00005079
X-00066894Y-00009912
X-00054596Y-00023859
X-00047131Y00027138
X-00079017Y00011441
X-00015643Y00036128
T03
X-00059478Y00036982
X-00043422Y00050539
X00021771Y00035961
T04
X-00006134Y00069512
R03X0001
X00052606Y00043996
X00045535Y00051067
T05
X00025613Y00081463
X00015613
M30
