G04 ================== begin FILE IDENTIFICATION RECORD ==================*
G04 Layout Name:  //Zhangmeng/admin/git/Hardware/Wepark/esp32/cam/CAM3/ESP333.brd*
G04 Film Name:    SilkScreenTOP*
G04 File Format:  Gerber RS274X*
G04 File Origin:  Cadence Allegro 16.6-P004*
G04 Origin Date:  Mon Apr 20 15:19:28 2020*
G04 *
G04 Layer:  BOARD GEOMETRY/OUTLINE*
G04 Layer:  REF DES/SILKSCREEN_TOP*
G04 Layer:  PACKAGE GEOMETRY/SILKSCREEN_TOP*
G04 Layer:  COMPONENT VALUE/SILKSCREEN_TOP*
G04 Layer:  BOARD GEOMETRY/SILKSCREEN_TOP*
G04 *
G04 Offset:    (0.000 0.000)*
G04 Mirror:    No*
G04 Mode:      Positive*
G04 Rotation:  0*
G04 FullContactRelief:  No*
G04 UndefLineWidth:     0.126*
G04 ================== end FILE IDENTIFICATION RECORD ====================*
%FSLAX25Y25*MOIN*%
%IR0*IPPOS*OFA0.00000B0.00000*MIA0B0*SFA1.00000B1.00000*%
%ADD10C,.001*%
%ADD11C,.005*%
%ADD12C,.005984*%
%ADD13C,.01*%
%ADD14C,.000126*%
G75*
%LPD*%
G75*
G54D10*
G01X-58099Y3515D02*
X-61634Y7050D01*
G01Y3515D02*
X-58099Y7050D01*
G54D11*
G01X-96077Y18555D02*
X-95830Y18520D01*
X-95612Y18549D01*
X-95470Y18690D01*
X-95453Y18991D01*
X-95565Y19350D01*
X-95759Y19722D01*
X-96160Y20264D01*
X-96566Y20706D01*
X-97026Y21094D01*
X-97362Y21324D01*
X-97751Y21501D01*
X-98063Y21566D01*
X-98281Y21536D01*
X-98405Y21413D01*
X-98434Y21195D01*
X-98399Y20947D01*
X-98299Y20670D01*
G01X-99695Y20122D02*
X-96867Y17294D01*
X-97221Y18072D01*
G01X-99483Y20334D02*
X-99908Y19910D01*
G01X-100155Y18531D02*
X-100591Y18755D01*
X-100921Y18802D01*
X-101127Y18690D01*
X-101222Y18502D01*
X-101127Y18125D01*
X-100933Y17754D01*
X-100668Y17453D01*
X-100302Y17158D01*
X-99943Y17046D01*
X-99725Y17076D01*
X-99566Y17235D01*
G01X-99725Y17076D02*
X-99690Y16828D01*
X-99542Y16504D01*
X-99295Y16186D01*
X-98976Y15939D01*
X-98652Y15791D01*
X-98352Y15809D01*
X-98240Y16015D01*
X-98270Y16363D01*
G01X-98722Y22654D02*
X-98474Y22618D01*
X-98256Y22648D01*
X-98115Y22789D01*
X-98097Y23090D01*
X-98209Y23449D01*
X-98404Y23820D01*
X-98804Y24362D01*
X-99211Y24804D01*
X-99670Y25193D01*
X-100006Y25423D01*
X-100395Y25600D01*
X-100708Y25665D01*
X-100926Y25635D01*
X-101049Y25512D01*
X-101079Y25294D01*
X-101044Y25046D01*
X-100943Y24769D01*
G01X-99647Y22200D02*
X-99470Y21811D01*
X-99452Y21546D01*
X-99547Y21357D01*
X-99818Y21275D01*
X-100177Y21387D01*
X-100495Y21634D01*
X-100761Y21935D01*
X-100926Y22241D01*
X-101044Y23066D01*
X-101214Y23555D01*
X-101580Y24133D01*
X-101969Y24592D01*
X-102711Y23850D01*
G01X-100926Y19978D02*
X-100878Y20214D01*
X-101008Y20556D01*
X-101220Y20909D01*
X-101544Y21340D01*
X-101951Y21782D01*
X-102393Y22188D01*
X-102823Y22512D01*
X-103177Y22724D01*
X-103518Y22854D01*
X-103754Y22807D01*
X-103801Y22571D01*
X-103672Y22230D01*
X-103460Y21876D01*
X-103135Y21446D01*
X-102729Y21004D01*
X-102287Y20597D01*
X-101857Y20273D01*
X-101503Y20061D01*
X-101161Y19931D01*
X-100926Y19978D01*
G01X-85949Y-41660D02*
G03I-941J0D01*
G01X-94951Y-44979D02*
X-95508Y-44422D01*
X-81589Y-30502D01*
X-81032Y-31059D01*
G01X-94255Y-34684D02*
X-92228Y-36711D01*
X-91733Y-37065D01*
X-91308Y-37206D01*
X-91037Y-37124D01*
X-90955Y-36852D01*
X-91096Y-36428D01*
X-91450Y-35933D01*
X-93477Y-33906D01*
G01X-92316Y-33688D02*
X-92493Y-33299D01*
X-92510Y-33034D01*
X-92416Y-32846D01*
X-92145Y-32763D01*
X-91786Y-32875D01*
X-91468Y-33123D01*
X-91202Y-33423D01*
X-91037Y-33730D01*
X-90920Y-34554D01*
X-90749Y-35044D01*
X-90383Y-35621D01*
X-89994Y-36081D01*
X-89252Y-35338D01*
G01X-90902Y-32274D02*
X-91079Y-31885D01*
X-91096Y-31620D01*
X-91002Y-31431D01*
X-90731Y-31349D01*
X-90372Y-31461D01*
X-90053Y-31708D01*
X-89788Y-32009D01*
X-89623Y-32315D01*
X-89505Y-33140D01*
X-89334Y-33629D01*
X-88969Y-34207D01*
X-88580Y-34666D01*
X-87838Y-33924D01*
G01X-89508Y-19763D02*
X-87481Y-21790D01*
X-86986Y-22144D01*
X-86562Y-22285D01*
X-86291Y-22202D01*
X-86208Y-21931D01*
X-86349Y-21507D01*
X-86703Y-21012D01*
X-88730Y-18985D01*
G01X-84876Y-20788D02*
X-87705Y-17960D01*
X-87351Y-18738D01*
G01X-85088Y-21000D02*
X-84664Y-20576D01*
G01X-94348Y-12354D02*
X-94595Y-12319D01*
X-94813Y-12348D01*
X-94954Y-12490D01*
X-94972Y-12790D01*
X-94860Y-13150D01*
X-94666Y-13521D01*
X-94265Y-14063D01*
X-93858Y-14505D01*
X-93399Y-14894D01*
X-93063Y-15124D01*
X-92674Y-15300D01*
X-92362Y-15365D01*
X-92144Y-15336D01*
X-92020Y-15212D01*
X-91990Y-14994D01*
X-92026Y-14747D01*
X-92126Y-14470D01*
G01X-93422Y-11900D02*
X-93599Y-11512D01*
X-93617Y-11246D01*
X-93523Y-11058D01*
X-93252Y-10975D01*
X-92892Y-11087D01*
X-92574Y-11335D01*
X-92309Y-11635D01*
X-92144Y-11942D01*
X-92026Y-12767D01*
X-91855Y-13256D01*
X-91490Y-13833D01*
X-91101Y-14293D01*
X-90358Y-13550D01*
G01X-90211Y-8806D02*
X-86228Y-4823D01*
X-85888Y-4822D01*
X-83992Y-6719D01*
X-83992Y-7030D01*
X-88043Y-11081D01*
X-88343D01*
X-90211Y-9213D01*
Y-8806D01*
G01X-84383Y8473D02*
X-87354Y11444D01*
G01X-81333Y4901D02*
X-85317Y917D01*
X-85656D01*
X-87552Y2813D01*
Y3125D01*
X-83502Y7176D01*
X-83201D01*
X-81333Y5308D01*
Y4901D01*
G01X-95701Y27979D02*
X-95666Y28227D01*
X-95695Y28445D01*
X-95837Y28586D01*
X-96137Y28604D01*
X-96497Y28492D01*
X-96868Y28297D01*
X-97410Y27897D01*
X-97852Y27490D01*
X-98241Y27030D01*
X-98471Y26694D01*
X-98648Y26306D01*
X-98712Y25993D01*
X-98683Y25775D01*
X-98559Y25652D01*
X-98341Y25622D01*
X-98094Y25657D01*
X-97817Y25758D01*
G01X-97057Y24149D02*
X-94228Y26977D01*
X-96909Y25604D01*
X-96025Y24720D01*
G01X-95854Y22947D02*
X-95684Y22870D01*
X-95401Y22870D01*
X-95077Y23018D01*
X-94711Y23312D01*
X-94417Y23678D01*
X-94240Y24066D01*
X-94258Y24367D01*
X-94434Y24544D01*
X-94446Y24744D01*
X-94299Y25068D01*
X-94004Y25434D01*
X-93621Y25711D01*
X-93262Y25823D01*
X-93026Y25775D01*
X-92979Y25540D01*
X-93091Y25180D01*
X-93368Y24797D01*
X-93733Y24503D01*
X-94057Y24355D01*
X-94258Y24367D01*
X-94434Y24544D01*
X-94735Y24561D01*
X-95124Y24385D01*
X-95489Y24090D01*
X-95784Y23725D01*
X-95931Y23400D01*
Y23118D01*
X-95854Y22947D01*
G01X-86307Y20976D02*
X-90087Y24756D01*
G01D02*
X-95376Y19467D01*
G01D02*
X-91596Y15686D01*
G01X-68226Y-43865D02*
X-67669Y-44422D01*
X-81589Y-58341D01*
X-82145Y-57784D01*
G01X-70930Y-30187D02*
X-70894Y-29939D01*
X-70924Y-29721D01*
X-71065Y-29580D01*
X-71366Y-29562D01*
X-71725Y-29674D01*
X-72097Y-29869D01*
X-72639Y-30269D01*
X-73081Y-30676D01*
X-73469Y-31135D01*
X-73699Y-31471D01*
X-73876Y-31860D01*
X-73941Y-32173D01*
X-73911Y-32390D01*
X-73788Y-32514D01*
X-73570Y-32544D01*
X-73322Y-32508D01*
X-73045Y-32408D01*
G01X-72462Y-32992D02*
X-72592Y-33333D01*
X-72609Y-33598D01*
X-72497Y-33805D01*
X-72244Y-33870D01*
X-71932Y-33805D01*
X-71513Y-33563D01*
X-71118Y-33204D01*
X-70777Y-32791D01*
X-70629Y-32467D01*
X-70564Y-32155D01*
X-70641Y-31984D01*
X-70812Y-31907D01*
X-71160Y-31937D01*
X-69881Y-30764D01*
X-69404Y-31242D01*
G01X-75850Y-27298D02*
X-75815Y-27051D01*
X-75844Y-26833D01*
X-75986Y-26691D01*
X-76286Y-26674D01*
X-76646Y-26786D01*
X-77017Y-26980D01*
X-77559Y-27381D01*
X-78001Y-27787D01*
X-78390Y-28247D01*
X-78620Y-28583D01*
X-78797Y-28972D01*
X-78861Y-29284D01*
X-78832Y-29502D01*
X-78708Y-29626D01*
X-78490Y-29655D01*
X-78243Y-29620D01*
X-77966Y-29520D01*
G01X-77418Y-30916D02*
X-74589Y-28088D01*
X-75367Y-28441D01*
G01X-77630Y-30704D02*
X-77206Y-31128D01*
G01X-69855Y-23256D02*
X-73839Y-27239D01*
X-74179D01*
X-76075Y-25343D01*
Y-25032D01*
X-72024Y-20981D01*
X-71724D01*
X-69855Y-22849D01*
Y-23256D01*
G01X-82641Y-1792D02*
X-82980D01*
X-84876Y105D01*
Y416D01*
X-80826Y4467D01*
X-80525D01*
X-78657Y2599D01*
Y2192D01*
G01X-79094Y13762D02*
X-78846Y11945D01*
G01D02*
X-82428Y8362D01*
G01D02*
X-84383Y8473D01*
G01X-81102Y37924D02*
X-83129Y35897D01*
X-83482Y35402D01*
X-83624Y34978D01*
X-83541Y34707D01*
X-83270Y34624D01*
X-82846Y34766D01*
X-82351Y35119D01*
X-80324Y37146D01*
G01X-81950Y34247D02*
X-82174Y33811D01*
X-82221Y33481D01*
X-82109Y33275D01*
X-81921Y33180D01*
X-81544Y33275D01*
X-81172Y33469D01*
X-80872Y33734D01*
X-80577Y34100D01*
X-80465Y34459D01*
X-80495Y34677D01*
X-80654Y34836D01*
G01X-80495Y34677D02*
X-80247Y34713D01*
X-79923Y34860D01*
X-79605Y35107D01*
X-79358Y35426D01*
X-79210Y35750D01*
X-79228Y36050D01*
X-79434Y36162D01*
X-79782Y36133D01*
G01X-65959Y-32470D02*
X-63131Y-29642D01*
X-62689Y-30084D01*
Y-30367D01*
X-62789Y-30644D01*
X-63131Y-31056D01*
X-63543Y-31398D01*
X-63885Y-31528D01*
X-64150Y-31545D01*
X-64592Y-31103D01*
G01X-64150Y-31545D02*
X-65252Y-33178D01*
G01X-64191Y-34238D02*
X-61363Y-31410D01*
X-62141Y-31763D01*
G01X-64403Y-34026D02*
X-63979Y-34450D01*
G01X-66123Y-21731D02*
X-61747Y-26107D01*
X-64032Y-28393D01*
X-68409Y-24016D01*
X-66123Y-21731D01*
G01X-67455Y-31576D02*
X-71439Y-27593D01*
Y-27253D01*
X-69543Y-25357D01*
X-69232Y-25358D01*
X-65181Y-29408D01*
Y-29708D01*
X-67049Y-31576D01*
X-67455D01*
G01X-55454Y-26956D02*
X-59438Y-30939D01*
X-59778D01*
X-61674Y-29044D01*
Y-28732D01*
X-57623Y-24681D01*
X-57322D01*
X-55454Y-26549D01*
Y-26956D01*
G01X-70244Y-17529D02*
G03I-527J0D01*
G01X-63267Y-17165D02*
X-66095Y-14337D01*
X-65653Y-13895D01*
X-65371D01*
X-65094Y-13995D01*
X-64681Y-14337D01*
X-64339Y-14749D01*
X-64210Y-15091D01*
X-64192Y-15356D01*
X-64634Y-15798D01*
G01X-64192Y-15356D02*
X-62560Y-16458D01*
G01X-64192Y-13376D02*
X-64369Y-12987D01*
X-64386Y-12722D01*
X-64292Y-12533D01*
X-64021Y-12451D01*
X-63662Y-12563D01*
X-63344Y-12810D01*
X-63078Y-13111D01*
X-62913Y-13417D01*
X-62796Y-14242D01*
X-62625Y-14731D01*
X-62259Y-15309D01*
X-61870Y-15768D01*
X-61128Y-15026D01*
G01X-71024Y-19656D02*
X-66648Y-15279D01*
X-64363Y-17565D01*
X-68739Y-21941D01*
X-71024Y-19656D01*
G01X-57250Y-17110D02*
X-57214Y-16862D01*
X-57243Y-16644D01*
X-57385Y-16503D01*
X-57686Y-16485D01*
X-58045Y-16597D01*
X-58416Y-16791D01*
X-58958Y-17192D01*
X-59400Y-17599D01*
X-59789Y-18058D01*
X-60019Y-18394D01*
X-60196Y-18783D01*
X-60261Y-19095D01*
X-60231Y-19313D01*
X-60107Y-19437D01*
X-59889Y-19467D01*
X-59642Y-19431D01*
X-59365Y-19331D01*
G01X-57974Y-19213D02*
X-57521Y-19007D01*
X-57226Y-18924D01*
X-56990Y-18972D01*
X-56961Y-19190D01*
X-57061Y-19467D01*
X-57273Y-19820D01*
X-57585Y-20168D01*
X-57886Y-20433D01*
X-58240Y-20645D01*
X-58581Y-20775D01*
X-58799Y-20745D01*
X-58846Y-20510D01*
X-58687Y-20103D01*
X-58334Y-19608D01*
X-57880Y-19119D01*
X-57232Y-18542D01*
X-56849Y-18264D01*
X-56430Y-18023D01*
X-56071Y-17911D01*
X-55900Y-17988D01*
X-55871Y-18206D01*
X-56018Y-18530D01*
G01X-62856Y-18855D02*
X-58872Y-22839D01*
Y-23178D01*
X-60768Y-25074D01*
X-61079D01*
X-65130Y-21023D01*
Y-20723D01*
X-63262Y-18855D01*
X-62856D01*
G01X-60333Y29481D02*
X-63161Y32309D01*
X-62719Y32751D01*
X-62436D01*
X-62160Y32651D01*
X-61747Y32309D01*
X-61405Y31897D01*
X-61276Y31555D01*
X-61258Y31290D01*
X-61700Y30848D01*
G01X-61258Y31290D02*
X-59626Y30188D01*
G01X-58353Y31461D02*
X-61181Y34289D01*
X-59808Y31608D01*
X-58924Y32492D01*
G01X-62653Y38769D02*
X-58668Y42753D01*
X-58329Y42753D01*
X-56434Y40857D01*
X-56433Y40546D01*
X-60484Y36494D01*
X-60785D01*
X-62653Y38363D01*
Y38769D01*
G01X-53472Y44634D02*
X-53225Y44599D01*
X-53007Y44628D01*
X-52865Y44770D01*
X-52848Y45070D01*
X-52960Y45430D01*
X-53154Y45801D01*
X-53555Y46343D01*
X-53961Y46785D01*
X-54421Y47174D01*
X-54757Y47404D01*
X-55146Y47580D01*
X-55458Y47645D01*
X-55676Y47616D01*
X-55800Y47492D01*
X-55829Y47274D01*
X-55794Y47027D01*
X-55694Y46750D01*
G01X-54397Y44180D02*
X-54221Y43792D01*
X-54203Y43526D01*
X-54297Y43338D01*
X-54568Y43255D01*
X-54928Y43367D01*
X-55246Y43615D01*
X-55511Y43915D01*
X-55676Y44222D01*
X-55794Y45047D01*
X-55965Y45536D01*
X-56330Y46113D01*
X-56719Y46573D01*
X-57462Y45830D01*
G01X-58717Y44575D02*
X-55888Y41747D01*
X-57261Y44428D01*
X-58145Y43544D01*
G01X-64651Y65510D02*
X-66678Y63483D01*
X-67032Y62988D01*
X-67173Y62564D01*
X-67091Y62293D01*
X-66820Y62210D01*
X-66395Y62352D01*
X-65900Y62705D01*
X-63873Y64732D01*
G01X-65464Y60666D02*
X-62636Y63495D01*
X-65317Y62122D01*
X-64433Y61238D01*
G01X-51738Y-84526D02*
X-52295Y-83969D01*
X-38376Y-70050D01*
X-37819Y-70606D01*
G01X-51730Y-74518D02*
X-49703Y-76545D01*
X-49208Y-76899D01*
X-48784Y-77040D01*
X-48513Y-76958D01*
X-48430Y-76687D01*
X-48572Y-76263D01*
X-48926Y-75768D01*
X-50952Y-73740D01*
G01X-47099Y-75544D02*
X-49927Y-72715D01*
X-49574Y-73493D01*
G01X-47311Y-75756D02*
X-46887Y-75332D01*
G01X-46315Y-74100D02*
X-45956Y-74212D01*
X-45720Y-74165D01*
X-45673Y-73929D01*
X-45832Y-73523D01*
X-46168Y-73010D01*
X-46557Y-72550D01*
X-47075Y-72032D01*
X-47535Y-71643D01*
X-48000Y-71354D01*
X-48295Y-71272D01*
X-48513Y-71301D01*
X-48560Y-71537D01*
X-48478Y-71831D01*
X-48266Y-72185D01*
X-47924Y-72598D01*
X-47558Y-72892D01*
X-47140Y-73134D01*
X-46845Y-73216D01*
X-46674Y-73140D01*
X-46627Y-72904D01*
X-46757Y-72562D01*
X-47075Y-72032D01*
G01X-50307Y-53803D02*
X-54614Y-49496D01*
G01D02*
X-48777Y-43658D01*
G01D02*
X-44470Y-47965D01*
G01D02*
X-50307Y-53803D01*
G01X-49304Y-27819D02*
X-49057Y-27855D01*
X-48839Y-27825D01*
X-48698Y-27684D01*
X-48680Y-27383D01*
X-48792Y-27024D01*
X-48986Y-26652D01*
X-49387Y-26110D01*
X-49794Y-25668D01*
X-50253Y-25280D01*
X-50589Y-25050D01*
X-50978Y-24873D01*
X-51290Y-24808D01*
X-51508Y-24838D01*
X-51632Y-24961D01*
X-51662Y-25179D01*
X-51626Y-25427D01*
X-51526Y-25704D01*
G01X-53135Y-26464D02*
X-50306Y-29292D01*
X-51679Y-26611D01*
X-52563Y-27495D01*
G01X-52445Y-30020D02*
X-56429Y-34004D01*
X-56768Y-34004D01*
X-58665Y-32108D01*
X-58664Y-31796D01*
X-54614Y-27746D01*
X-54313D01*
X-52445Y-29613D01*
Y-30020D01*
G01X-48721Y-14750D02*
X-53097Y-19127D01*
X-55383Y-16841D01*
X-51007Y-12465D01*
X-48721Y-14750D01*
G01X-52888Y-24673D02*
X-52640Y-24709D01*
X-52422Y-24679D01*
X-52281Y-24538D01*
X-52263Y-24237D01*
X-52375Y-23878D01*
X-52570Y-23506D01*
X-52970Y-22964D01*
X-53377Y-22522D01*
X-53836Y-22134D01*
X-54172Y-21904D01*
X-54561Y-21727D01*
X-54874Y-21662D01*
X-55091Y-21692D01*
X-55215Y-21815D01*
X-55245Y-22033D01*
X-55209Y-22281D01*
X-55109Y-22558D01*
G01X-55551Y-23282D02*
X-55987Y-23058D01*
X-56317Y-23011D01*
X-56523Y-23123D01*
X-56618Y-23312D01*
X-56524Y-23689D01*
X-56329Y-24060D01*
X-56064Y-24361D01*
X-55699Y-24655D01*
X-55339Y-24767D01*
X-55121Y-24738D01*
X-54962Y-24579D01*
G01X-55121Y-24738D02*
X-55086Y-24985D01*
X-54938Y-25310D01*
X-54691Y-25628D01*
X-54373Y-25875D01*
X-54049Y-26023D01*
X-53748Y-26005D01*
X-53636Y-25799D01*
X-53666Y-25451D01*
G01X-48127Y-21008D02*
X-48088Y-20761D01*
X-48115Y-20543D01*
X-48255Y-20399D01*
X-48555Y-20378D01*
X-48916Y-20486D01*
X-49290Y-20676D01*
X-49837Y-21069D01*
X-50284Y-21471D01*
X-50678Y-21925D01*
X-50912Y-22258D01*
X-51094Y-22645D01*
X-51162Y-22957D01*
X-51135Y-23175D01*
X-51013Y-23300D01*
X-50796Y-23332D01*
X-50548Y-23300D01*
X-50270Y-23203D01*
G01X-49738Y-24606D02*
X-46876Y-21813D01*
X-47658Y-22157D01*
G01X-49948Y-24392D02*
X-49529Y-24821D01*
G01X-48132Y-26253D02*
X-45269Y-23459D01*
X-47967Y-24799D01*
X-47094Y-25694D01*
G01X-47200Y-15706D02*
X-43265Y-19739D01*
X-43269Y-20078D01*
X-45188Y-21950D01*
X-45500Y-21947D01*
X-49500Y-17847D01*
X-49496Y-17546D01*
X-47606Y-15701D01*
X-47200Y-15706D01*
G01X-50275Y-10282D02*
X-53104Y-7454D01*
X-53811Y-8161D01*
G01X-55084Y-9434D02*
X-52255Y-12262D01*
X-53628Y-9581D01*
X-54512Y-10465D01*
G01X-46929Y25650D02*
X-42945Y29634D01*
X-42606D01*
X-40709Y27737D01*
Y27426D01*
X-44760Y23375D01*
X-45061D01*
X-46929Y25243D01*
Y25650D01*
G01X-41694Y17146D02*
X-41659Y17394D01*
X-41688Y17612D01*
X-41830Y17753D01*
X-42130Y17771D01*
X-42489Y17659D01*
X-42861Y17465D01*
X-43403Y17064D01*
X-43845Y16657D01*
X-44234Y16198D01*
X-44464Y15862D01*
X-44640Y15473D01*
X-44705Y15160D01*
X-44676Y14942D01*
X-44552Y14819D01*
X-44334Y14789D01*
X-44086Y14825D01*
X-43809Y14925D01*
G01X-43261Y13528D02*
X-40433Y16357D01*
X-41211Y16003D01*
G01X-43474Y13740D02*
X-43049Y13316D01*
G01X-41818Y12744D02*
X-41930Y12385D01*
X-41882Y12149D01*
X-41647Y12102D01*
X-41240Y12261D01*
X-40728Y12597D01*
X-40268Y12986D01*
X-39749Y13505D01*
X-39361Y13964D01*
X-39072Y14430D01*
X-38989Y14725D01*
X-39019Y14942D01*
X-39254Y14990D01*
X-39549Y14907D01*
X-39903Y14695D01*
X-40315Y14353D01*
X-40610Y13988D01*
X-40851Y13569D01*
X-40934Y13275D01*
X-40857Y13104D01*
X-40622Y13057D01*
X-40280Y13187D01*
X-39749Y13505D01*
G01X-45563Y17237D02*
X-49547Y21221D01*
X-49547Y21561D01*
X-47651Y23456D01*
X-47340Y23457D01*
X-43289Y19406D01*
Y19106D01*
X-45157Y17237D01*
X-45563D01*
G01X-55661Y21251D02*
X-53634Y23278D01*
X-53280Y23773D01*
X-53139Y24197D01*
X-53222Y24468D01*
X-53493Y24551D01*
X-53917Y24409D01*
X-54412Y24056D01*
X-56439Y22029D01*
G01X-56657Y23189D02*
X-57046Y23013D01*
X-57311Y22995D01*
X-57500Y23089D01*
X-57582Y23360D01*
X-57470Y23720D01*
X-57223Y24038D01*
X-56922Y24303D01*
X-56616Y24468D01*
X-55791Y24586D01*
X-55302Y24757D01*
X-54724Y25122D01*
X-54265Y25511D01*
X-55007Y26254D01*
G01X-52404Y40860D02*
X-47115Y35570D01*
G01D02*
X-43334Y39350D01*
G01X-59334Y35084D02*
X-54957Y39461D01*
X-52672Y37175D01*
X-57048Y32799D01*
X-59334Y35084D01*
G01X-46771Y30029D02*
X-46524Y29993D01*
X-46306Y30023D01*
X-46164Y30164D01*
X-46147Y30465D01*
X-46259Y30824D01*
X-46453Y31195D01*
X-46854Y31737D01*
X-47260Y32179D01*
X-47720Y32568D01*
X-48056Y32798D01*
X-48445Y32975D01*
X-48757Y33040D01*
X-48975Y33010D01*
X-49099Y32886D01*
X-49128Y32668D01*
X-49093Y32421D01*
X-48993Y32144D01*
G01X-50389Y31596D02*
X-47561Y28768D01*
X-47914Y29545D01*
G01X-50177Y31808D02*
X-50601Y31384D01*
G01X-51804Y30182D02*
X-48975Y27353D01*
X-49329Y28131D01*
G01X-51591Y30394D02*
X-52016Y29970D01*
G01X-48624Y44640D02*
X-52404Y40860D01*
G01X-43596Y52377D02*
X-47972Y48000D01*
X-50259Y50286D01*
X-45882Y54663D01*
X-43596Y52377D01*
G01X-34393Y87702D02*
X-48173D01*
Y66442D01*
X-34393D01*
Y87702D01*
G01X-41546Y59511D02*
X-38718Y56683D01*
X-39160Y56241D01*
X-39443D01*
X-39720Y56341D01*
X-40132Y56683D01*
X-40474Y57095D01*
X-40604Y57437D01*
X-40621Y57702D01*
X-40179Y58144D01*
G01X-40621Y57702D02*
X-42254Y58804D01*
G01X-43314Y57743D02*
X-40486Y54915D01*
X-40839Y55693D01*
G01X-43102Y57955D02*
X-43526Y57531D01*
G01X-41900Y53501D02*
X-41853Y53736D01*
X-41982Y54078D01*
X-42195Y54432D01*
X-42519Y54862D01*
X-42925Y55304D01*
X-43367Y55710D01*
X-43797Y56035D01*
X-44151Y56247D01*
X-44493Y56376D01*
X-44728Y56329D01*
X-44776Y56093D01*
X-44646Y55752D01*
X-44434Y55398D01*
X-44110Y54968D01*
X-43703Y54526D01*
X-43261Y54119D01*
X-42831Y53795D01*
X-42478Y53583D01*
X-42136Y53454D01*
X-41900Y53501D01*
G01X-55120Y74308D02*
Y78308D01*
X-54495D01*
X-54295Y78108D01*
X-54170Y77841D01*
X-54120Y77308D01*
X-54170Y76775D01*
X-54320Y76441D01*
X-54495Y76241D01*
X-55120D01*
G01X-54495D02*
X-54120Y74308D01*
G01X-53145Y74841D02*
X-52945Y74508D01*
X-52720Y74308D01*
X-52520D01*
X-52320Y74508D01*
X-52170Y74841D01*
X-52095Y75308D01*
X-52145Y75775D01*
X-52270Y76175D01*
X-52495Y76441D01*
X-52795Y76575D01*
X-52970Y76841D01*
X-53045Y77308D01*
X-52995Y77775D01*
X-52870Y78108D01*
X-52695Y78308D01*
X-52520D01*
X-52345Y78175D01*
X-52195Y77841D01*
G01X-50620Y78308D02*
Y74308D01*
G01X-51195Y78308D02*
X-50045D01*
G01X-25013Y-83412D02*
X-24456Y-83969D01*
X-38376Y-97888D01*
X-38932Y-97332D01*
G01X-42736Y-81207D02*
G03I-941J0D01*
G01X-36026Y-29202D02*
X-35779Y-29237D01*
X-35561Y-29208D01*
X-35419Y-29066D01*
X-35402Y-28766D01*
X-35514Y-28406D01*
X-35708Y-28035D01*
X-36109Y-27493D01*
X-36515Y-27051D01*
X-36975Y-26662D01*
X-37311Y-26432D01*
X-37700Y-26255D01*
X-38012Y-26191D01*
X-38230Y-26220D01*
X-38354Y-26344D01*
X-38383Y-26562D01*
X-38348Y-26809D01*
X-38248Y-27086D01*
G01X-39644Y-27634D02*
X-36816Y-30463D01*
X-37169Y-29685D01*
G01X-39432Y-27422D02*
X-39856Y-27846D01*
G01X-40245Y-29084D02*
X-40587Y-28954D01*
X-40852Y-28937D01*
X-41058Y-29048D01*
X-41123Y-29302D01*
X-41058Y-29614D01*
X-40817Y-30032D01*
X-40457Y-30427D01*
X-40045Y-30769D01*
X-39721Y-30917D01*
X-39408Y-30981D01*
X-39238Y-30905D01*
X-39161Y-30734D01*
X-39190Y-30386D01*
X-38018Y-31665D01*
X-38495Y-32142D01*
G01X-45113Y-26593D02*
X-41129Y-22609D01*
X-40790D01*
X-38894Y-24505D01*
Y-24816D01*
X-42945Y-28867D01*
X-43245D01*
X-45113Y-26998D01*
Y-26593D01*
G01X-37640Y14895D02*
X-34812Y17724D01*
X-34370Y17282D01*
Y16999D01*
X-34470Y16722D01*
X-34812Y16309D01*
X-35224Y15968D01*
X-35566Y15838D01*
X-35831Y15820D01*
X-36273Y16262D01*
G01X-35831Y15820D02*
X-36933Y14188D01*
G01X-35843Y13758D02*
X-35955Y13399D01*
X-35908Y13163D01*
X-35672Y13116D01*
X-35266Y13275D01*
X-34753Y13611D01*
X-34293Y14000D01*
X-33775Y14518D01*
X-33386Y14978D01*
X-33097Y15443D01*
X-33014Y15738D01*
X-33044Y15956D01*
X-33280Y16003D01*
X-33574Y15921D01*
X-33928Y15708D01*
X-34340Y15367D01*
X-34635Y15001D01*
X-34876Y14583D01*
X-34959Y14288D01*
X-34882Y14117D01*
X-34647Y14070D01*
X-34305Y14200D01*
X-33775Y14518D01*
G01X-41885Y24191D02*
X-37509Y19814D01*
X-39795Y17529D01*
X-44171Y21905D01*
X-41885Y24191D01*
G01X-31270Y20848D02*
X-31234Y21096D01*
X-31264Y21314D01*
X-31405Y21455D01*
X-31706Y21473D01*
X-32065Y21361D01*
X-32436Y21166D01*
X-32978Y20766D01*
X-33420Y20359D01*
X-33809Y19900D01*
X-34039Y19564D01*
X-34216Y19175D01*
X-34281Y18862D01*
X-34251Y18644D01*
X-34127Y18521D01*
X-33909Y18491D01*
X-33662Y18527D01*
X-33385Y18627D01*
G01X-32837Y17230D02*
X-30009Y20059D01*
X-30786Y19705D01*
G01X-33049Y17442D02*
X-32625Y17018D01*
G01X-28594Y18644D02*
X-28830Y18692D01*
X-29172Y18562D01*
X-29525Y18350D01*
X-29956Y18026D01*
X-30398Y17619D01*
X-30804Y17177D01*
X-31128Y16747D01*
X-31340Y16394D01*
X-31470Y16052D01*
X-31423Y15816D01*
X-31187Y15769D01*
X-30845Y15899D01*
X-30492Y16111D01*
X-30062Y16435D01*
X-29620Y16841D01*
X-29213Y17283D01*
X-28889Y17714D01*
X-28677Y18067D01*
X-28547Y18409D01*
X-28594Y18644D01*
G01X-38472Y27015D02*
X-34488Y23031D01*
Y22692D01*
X-36384Y20796D01*
X-36696D01*
X-40747Y24846D01*
Y25147D01*
X-38878Y27015D01*
X-38472D01*
G01X-35986Y44305D02*
X-36233Y44340D01*
X-36451Y44311D01*
X-36593Y44169D01*
X-36610Y43869D01*
X-36498Y43509D01*
X-36304Y43138D01*
X-35903Y42596D01*
X-35497Y42154D01*
X-35037Y41765D01*
X-34701Y41535D01*
X-34312Y41358D01*
X-34000Y41294D01*
X-33782Y41323D01*
X-33658Y41447D01*
X-33629Y41665D01*
X-33664Y41912D01*
X-33764Y42189D01*
G01X-33882Y43580D02*
X-34088Y44034D01*
X-34171Y44328D01*
X-34124Y44564D01*
X-33906Y44594D01*
X-33629Y44493D01*
X-33275Y44281D01*
X-32928Y43969D01*
X-32662Y43668D01*
X-32450Y43315D01*
X-32321Y42973D01*
X-32350Y42755D01*
X-32586Y42708D01*
X-32992Y42867D01*
X-33488Y43220D01*
X-33976Y43674D01*
X-34554Y44322D01*
X-34831Y44706D01*
X-35072Y45124D01*
X-35184Y45483D01*
X-35108Y45654D01*
X-34890Y45684D01*
X-34566Y45536D01*
G01X-33647Y46173D02*
X-33823Y46562D01*
X-33841Y46827D01*
X-33747Y47015D01*
X-33476Y47098D01*
X-33116Y46986D01*
X-32798Y46738D01*
X-32533Y46438D01*
X-32368Y46131D01*
X-32250Y45306D01*
X-32079Y44817D01*
X-31714Y44240D01*
X-31325Y43780D01*
X-30582Y44523D01*
G01X-44381Y48883D02*
X-41411Y51853D01*
G01D02*
X-39593Y52101D01*
G01D02*
X-36010Y48518D01*
G01D02*
X-36121Y46564D01*
G01D02*
X-39092Y43593D01*
G01X-28960Y49941D02*
X-35149Y49940D01*
X-35148Y53173D01*
X-28960Y53173D01*
Y49941D01*
G01X-33165Y66278D02*
X-19385Y66278D01*
Y87538D01*
X-33165Y87537D01*
Y66278D01*
G01X-34812Y57516D02*
X-29178Y57516D01*
X-28938Y57276D01*
Y54595D01*
X-29158Y54374D01*
X-34887D01*
X-35099Y54587D01*
Y57229D01*
X-34812Y57516D01*
G01X-42631Y79468D02*
X-42965Y79268D01*
X-43165Y79043D01*
Y78843D01*
X-42965Y78643D01*
X-42631Y78493D01*
X-42165Y78418D01*
X-41698Y78468D01*
X-41298Y78593D01*
X-41031Y78818D01*
X-40898Y79118D01*
X-40631Y79293D01*
X-40165Y79368D01*
X-39698Y79318D01*
X-39365Y79193D01*
X-39165Y79018D01*
Y78843D01*
X-39298Y78668D01*
X-39631Y78518D01*
G01X-39165Y77693D02*
X-43165Y77343D01*
X-39165Y76943D01*
X-43165Y76543D01*
X-39165Y76193D01*
G01X-39831Y75418D02*
X-39431Y75268D01*
X-39231Y75093D01*
X-39165Y74893D01*
X-39298Y74643D01*
X-39631Y74468D01*
X-40031Y74418D01*
X-40431Y74443D01*
X-40765Y74543D01*
X-41431Y75043D01*
X-41898Y75268D01*
X-42565Y75418D01*
X-43165Y75468D01*
Y74418D01*
G01X-21338Y-64343D02*
X-21138Y-64193D01*
X-21004Y-64018D01*
Y-63818D01*
X-21204Y-63593D01*
X-21538Y-63418D01*
X-21938Y-63293D01*
X-22604Y-63193D01*
X-23204Y-63168D01*
X-23804Y-63218D01*
X-24204Y-63293D01*
X-24604Y-63443D01*
X-24871Y-63618D01*
X-25004Y-63793D01*
Y-63968D01*
X-24871Y-64143D01*
X-24671Y-64293D01*
X-24404Y-64418D01*
G01X-24204Y-65243D02*
X-24671Y-65393D01*
X-24938Y-65593D01*
X-25004Y-65818D01*
X-24938Y-66018D01*
X-24604Y-66218D01*
X-24204Y-66343D01*
X-23804Y-66368D01*
X-23338Y-66318D01*
X-23004Y-66143D01*
X-22871Y-65968D01*
Y-65743D01*
G01Y-65968D02*
X-22671Y-66118D01*
X-22338Y-66243D01*
X-21938Y-66293D01*
X-21538Y-66243D01*
X-21204Y-66118D01*
X-21004Y-65893D01*
X-21071Y-65668D01*
X-21338Y-65443D01*
G01X-24404Y-67243D02*
X-24738Y-67393D01*
X-24938Y-67568D01*
X-25004Y-67793D01*
X-24871Y-68018D01*
X-24604Y-68193D01*
X-24138Y-68318D01*
X-23604Y-68343D01*
X-23071Y-68293D01*
X-22738Y-68168D01*
X-22471Y-67993D01*
X-22404Y-67818D01*
X-22471Y-67643D01*
X-22738Y-67418D01*
X-21004Y-67493D01*
Y-68168D01*
G01X-25750Y-61094D02*
G03X-21420I2165J2033D01*
G01D02*
X-21419Y-51251D01*
G03X-25751I-2166J-1916D01*
G01D02*
X-25750Y-61094D01*
G01X-21268Y-60662D02*
X-17268D01*
Y-61287D01*
X-17468Y-61487D01*
X-17735Y-61612D01*
X-18268Y-61662D01*
X-18801Y-61612D01*
X-19135Y-61462D01*
X-19335Y-61287D01*
Y-60662D01*
G01Y-61287D02*
X-21268Y-61662D01*
G01X-20468Y-62612D02*
X-20935Y-62762D01*
X-21201Y-62962D01*
X-21268Y-63187D01*
X-21201Y-63387D01*
X-20868Y-63587D01*
X-20468Y-63712D01*
X-20068Y-63737D01*
X-19601Y-63687D01*
X-19268Y-63512D01*
X-19135Y-63337D01*
Y-63112D01*
G01Y-63337D02*
X-18935Y-63487D01*
X-18601Y-63612D01*
X-18201Y-63662D01*
X-17801Y-63612D01*
X-17468Y-63487D01*
X-17268Y-63262D01*
X-17335Y-63037D01*
X-17601Y-62812D01*
G01X-21268Y-65112D02*
X-20401Y-65162D01*
X-19668Y-65237D01*
X-19001Y-65337D01*
X-18268Y-65462D01*
X-17268Y-65662D01*
Y-64662D01*
G01X-17152Y-53526D02*
Y-59715D01*
X-20384D01*
Y-53526D01*
X-17152D01*
G01X-25776Y50015D02*
Y54015D01*
X-25151D01*
X-24951Y53814D01*
X-24826Y53548D01*
X-24776Y53015D01*
X-24826Y52481D01*
X-24976Y52148D01*
X-25151Y51948D01*
X-25776D01*
G01X-25151D02*
X-24776Y50015D01*
G01X-23276D02*
Y54015D01*
X-23576Y53215D01*
G01Y50015D02*
X-22976D01*
G01X-21751Y51681D02*
X-21576Y52148D01*
X-21426Y52415D01*
X-21226Y52548D01*
X-21051Y52415D01*
X-20926Y52148D01*
X-20826Y51748D01*
X-20801Y51281D01*
X-20826Y50881D01*
X-20926Y50481D01*
X-21076Y50148D01*
X-21251Y50015D01*
X-21451Y50148D01*
X-21626Y50548D01*
X-21726Y51148D01*
X-21751Y51815D01*
X-21701Y52681D01*
X-21626Y53148D01*
X-21501Y53615D01*
X-21326Y53948D01*
X-21151Y54015D01*
X-20976Y53881D01*
X-20851Y53548D01*
G01X-25026Y58752D02*
X-25176Y58952D01*
X-25351Y59085D01*
X-25551D01*
X-25776Y58885D01*
X-25951Y58552D01*
X-26076Y58152D01*
X-26176Y57485D01*
X-26201Y56885D01*
X-26151Y56285D01*
X-26076Y55885D01*
X-25926Y55485D01*
X-25751Y55218D01*
X-25576Y55085D01*
X-25401D01*
X-25226Y55218D01*
X-25076Y55418D01*
X-24951Y55685D01*
G01X-24051Y58418D02*
X-23901Y58818D01*
X-23726Y59018D01*
X-23526Y59085D01*
X-23276Y58952D01*
X-23101Y58618D01*
X-23051Y58218D01*
X-23076Y57818D01*
X-23176Y57485D01*
X-23676Y56818D01*
X-23901Y56352D01*
X-24051Y55685D01*
X-24101Y55085D01*
X-23051D01*
G01X-22051Y58418D02*
X-21901Y58818D01*
X-21726Y59018D01*
X-21526Y59085D01*
X-21276Y58952D01*
X-21101Y58618D01*
X-21051Y58218D01*
X-21076Y57818D01*
X-21176Y57485D01*
X-21676Y56818D01*
X-21901Y56352D01*
X-22051Y55685D01*
X-22101Y55085D01*
X-21051D01*
G01X-24700Y73547D02*
X-24366Y73747D01*
X-24166Y73972D01*
Y74172D01*
X-24366Y74372D01*
X-24700Y74522D01*
X-25166Y74597D01*
X-25633Y74547D01*
X-26033Y74422D01*
X-26300Y74197D01*
X-26433Y73897D01*
X-26700Y73722D01*
X-27167Y73647D01*
X-27633Y73697D01*
X-27966Y73822D01*
X-28166Y73997D01*
Y74172D01*
X-28033Y74347D01*
X-27700Y74497D01*
G01X-28166Y75322D02*
X-24166Y75672D01*
X-28166Y76072D01*
X-24166Y76472D01*
X-28166Y76822D01*
G01X-24166Y78072D02*
X-28166D01*
X-27367Y77772D01*
G01X-24166D02*
Y78372D01*
G01X-16634Y-60746D02*
X-12634D01*
Y-61371D01*
X-12834Y-61571D01*
X-13100Y-61696D01*
X-13634Y-61746D01*
X-14167Y-61696D01*
X-14500Y-61546D01*
X-14700Y-61371D01*
Y-60746D01*
G01Y-61371D02*
X-16634Y-61746D01*
G01X-15834Y-62696D02*
X-16300Y-62846D01*
X-16567Y-63046D01*
X-16634Y-63271D01*
X-16567Y-63471D01*
X-16234Y-63671D01*
X-15834Y-63796D01*
X-15434Y-63821D01*
X-14967Y-63771D01*
X-14634Y-63596D01*
X-14500Y-63421D01*
Y-63196D01*
G01Y-63421D02*
X-14300Y-63571D01*
X-13967Y-63696D01*
X-13567Y-63746D01*
X-13167Y-63696D01*
X-12834Y-63571D01*
X-12634Y-63346D01*
X-12700Y-63121D01*
X-12967Y-62896D01*
G01X-14967Y-64771D02*
X-14500Y-64946D01*
X-14234Y-65096D01*
X-14100Y-65296D01*
X-14234Y-65471D01*
X-14500Y-65596D01*
X-14900Y-65696D01*
X-15367Y-65721D01*
X-15767Y-65696D01*
X-16167Y-65596D01*
X-16500Y-65446D01*
X-16634Y-65271D01*
X-16500Y-65071D01*
X-16100Y-64896D01*
X-15500Y-64796D01*
X-14834Y-64771D01*
X-13967Y-64821D01*
X-13500Y-64896D01*
X-13034Y-65021D01*
X-12700Y-65196D01*
X-12634Y-65371D01*
X-12767Y-65546D01*
X-13100Y-65671D01*
G01X-13217Y-53545D02*
Y-59734D01*
X-16449D01*
Y-53545D01*
X-13217D01*
G01X-11916Y-60829D02*
X-7916D01*
Y-61454D01*
X-8116Y-61654D01*
X-8382Y-61779D01*
X-8916Y-61829D01*
X-9449Y-61779D01*
X-9782Y-61629D01*
X-9982Y-61454D01*
Y-60829D01*
G01Y-61454D02*
X-11916Y-61829D01*
G01X-11116Y-62779D02*
X-11582Y-62929D01*
X-11849Y-63129D01*
X-11916Y-63354D01*
X-11849Y-63554D01*
X-11516Y-63754D01*
X-11116Y-63879D01*
X-10716Y-63904D01*
X-10249Y-63854D01*
X-9916Y-63679D01*
X-9782Y-63504D01*
Y-63279D01*
G01Y-63504D02*
X-9582Y-63654D01*
X-9249Y-63779D01*
X-8849Y-63829D01*
X-8449Y-63779D01*
X-8116Y-63654D01*
X-7916Y-63429D01*
X-7982Y-63204D01*
X-8249Y-62979D01*
G01X-11316Y-64779D02*
X-11649Y-64929D01*
X-11849Y-65104D01*
X-11916Y-65329D01*
X-11782Y-65554D01*
X-11516Y-65729D01*
X-11049Y-65854D01*
X-10516Y-65879D01*
X-9982Y-65829D01*
X-9649Y-65704D01*
X-9382Y-65529D01*
X-9316Y-65354D01*
X-9382Y-65179D01*
X-9649Y-64954D01*
X-7916Y-65029D01*
Y-65704D01*
G01X-12388Y-59724D02*
Y-53535D01*
X-9156D01*
Y-59724D01*
X-12388D01*
G01X-3698Y-61963D02*
X-3498Y-61813D01*
X-3365Y-61638D01*
Y-61438D01*
X-3565Y-61213D01*
X-3898Y-61038D01*
X-4298Y-60913D01*
X-4965Y-60813D01*
X-5565Y-60788D01*
X-6165Y-60838D01*
X-6565Y-60913D01*
X-6965Y-61063D01*
X-7232Y-61238D01*
X-7365Y-61413D01*
Y-61588D01*
X-7232Y-61763D01*
X-7032Y-61913D01*
X-6765Y-62038D01*
G01Y-62863D02*
X-7098Y-63013D01*
X-7298Y-63188D01*
X-7365Y-63413D01*
X-7232Y-63638D01*
X-6965Y-63813D01*
X-6498Y-63938D01*
X-5965Y-63963D01*
X-5432Y-63913D01*
X-5098Y-63788D01*
X-4832Y-63613D01*
X-4765Y-63438D01*
X-4832Y-63263D01*
X-5098Y-63038D01*
X-3365Y-63113D01*
Y-63788D01*
G01X-4031Y-64938D02*
X-3632Y-65088D01*
X-3432Y-65263D01*
X-3365Y-65463D01*
X-3498Y-65713D01*
X-3832Y-65888D01*
X-4231Y-65938D01*
X-4632Y-65913D01*
X-4965Y-65813D01*
X-5632Y-65313D01*
X-6098Y-65088D01*
X-6765Y-64938D01*
X-7365Y-64888D01*
Y-65938D01*
G01X-5281Y-53882D02*
Y-59516D01*
X-5522Y-59756D01*
X-8203D01*
X-8423Y-59535D01*
Y-53807D01*
X-8211Y-53595D01*
X-5569D01*
X-5281Y-53882D01*
G01X-13456Y34813D02*
Y41002D01*
X-10224D01*
Y34813D01*
X-13456D01*
G01X-8881Y34989D02*
Y40623D01*
X-8641Y40863D01*
X-5960D01*
X-5739Y40642D01*
Y34914D01*
X-5952Y34701D01*
X-8594D01*
X-8881Y34989D01*
G01X-14589Y47456D02*
X-10589D01*
Y46831D01*
X-10789Y46631D01*
X-11056Y46506D01*
X-11589Y46456D01*
X-12122Y46506D01*
X-12455Y46656D01*
X-12656Y46831D01*
Y47456D01*
G01Y46831D02*
X-14589Y46456D01*
G01Y44956D02*
X-14522Y44781D01*
X-14322Y44581D01*
X-13989Y44456D01*
X-13522Y44406D01*
X-13056Y44456D01*
X-12656Y44606D01*
X-12455Y44831D01*
Y45081D01*
X-12322Y45231D01*
X-11989Y45356D01*
X-11522Y45406D01*
X-11056Y45331D01*
X-10722Y45156D01*
X-10589Y44956D01*
X-10722Y44756D01*
X-11056Y44581D01*
X-11522Y44506D01*
X-11989Y44556D01*
X-12322Y44681D01*
X-12455Y44831D01*
Y45081D01*
X-12656Y45306D01*
X-13056Y45456D01*
X-13522Y45506D01*
X-13989Y45456D01*
X-14322Y45331D01*
X-14522Y45131D01*
X-14589Y44956D01*
G01X-14122Y43381D02*
X-14456Y43206D01*
X-14589Y43006D01*
X-14456Y42806D01*
X-14056Y42631D01*
X-13456Y42506D01*
X-12856Y42456D01*
X-12122D01*
X-11522Y42506D01*
X-10989Y42631D01*
X-10722Y42781D01*
X-10589Y42956D01*
X-10722Y43156D01*
X-10989Y43306D01*
X-11389Y43406D01*
X-11922Y43456D01*
X-12389Y43406D01*
X-12856Y43281D01*
X-13122Y43131D01*
X-13189Y42956D01*
X-13056Y42756D01*
X-12722Y42606D01*
X-12122Y42456D01*
G01X-5534Y46711D02*
X-5334Y46861D01*
X-5200Y47036D01*
Y47236D01*
X-5400Y47461D01*
X-5734Y47636D01*
X-6134Y47761D01*
X-6800Y47861D01*
X-7400Y47886D01*
X-8000Y47836D01*
X-8400Y47761D01*
X-8800Y47611D01*
X-9067Y47436D01*
X-9200Y47261D01*
Y47086D01*
X-9067Y46911D01*
X-8867Y46761D01*
X-8600Y46636D01*
G01X-7534Y45736D02*
X-7067Y45561D01*
X-6800Y45411D01*
X-6667Y45211D01*
X-6800Y45036D01*
X-7067Y44911D01*
X-7467Y44811D01*
X-7934Y44786D01*
X-8334Y44811D01*
X-8734Y44911D01*
X-9067Y45061D01*
X-9200Y45236D01*
X-9067Y45436D01*
X-8667Y45611D01*
X-8067Y45711D01*
X-7400Y45736D01*
X-6534Y45686D01*
X-6067Y45611D01*
X-5600Y45486D01*
X-5267Y45311D01*
X-5200Y45136D01*
X-5334Y44961D01*
X-5667Y44836D01*
G01X-9200Y43261D02*
X-5200D01*
X-6000Y43561D01*
G01X-9200D02*
Y42961D01*
G01X-5965Y82072D02*
X-9965D01*
G01X-5965Y82647D02*
Y81497D01*
G01X-9965Y80597D02*
X-5965Y79547D01*
G01Y80597D02*
X-9965Y79547D01*
G01Y78622D02*
X-5965D01*
Y78122D01*
X-6166Y77922D01*
X-6432Y77772D01*
X-6832Y77647D01*
X-7299Y77547D01*
X-7966Y77522D01*
X-8632Y77547D01*
X-9099Y77647D01*
X-9499Y77772D01*
X-9765Y77922D01*
X-9965Y78122D01*
Y78622D01*
G01X-16108Y79988D02*
Y83988D01*
X-15608D01*
X-15408Y83788D01*
X-15258Y83521D01*
X-15133Y83121D01*
X-15033Y82655D01*
X-15008Y81988D01*
X-15033Y81321D01*
X-15133Y80855D01*
X-15258Y80455D01*
X-15408Y80188D01*
X-15608Y79988D01*
X-16108D01*
G01X-14058Y83988D02*
Y79988D01*
X-13058D01*
G01X9940Y88277D02*
Y87490D01*
X-9745D01*
Y88277D01*
G01Y106387D02*
Y107175D01*
X9940D01*
Y106387D01*
G01X11541Y-64969D02*
X11741Y-64819D01*
X11874Y-64644D01*
Y-64444D01*
X11674Y-64219D01*
X11341Y-64044D01*
X10941Y-63919D01*
X10274Y-63819D01*
X9674Y-63794D01*
X9074Y-63844D01*
X8674Y-63919D01*
X8274Y-64069D01*
X8007Y-64244D01*
X7874Y-64419D01*
Y-64594D01*
X8007Y-64769D01*
X8207Y-64919D01*
X8474Y-65044D01*
G01X8674Y-65869D02*
X8207Y-66019D01*
X7941Y-66219D01*
X7874Y-66444D01*
X7941Y-66644D01*
X8274Y-66844D01*
X8674Y-66969D01*
X9074Y-66994D01*
X9541Y-66944D01*
X9874Y-66769D01*
X10007Y-66594D01*
Y-66369D01*
G01Y-66594D02*
X10207Y-66744D01*
X10541Y-66869D01*
X10941Y-66919D01*
X11341Y-66869D01*
X11674Y-66744D01*
X11874Y-66519D01*
X11807Y-66294D01*
X11541Y-66069D01*
G01X7874Y-68719D02*
X11874D01*
X9007Y-67794D01*
Y-69044D01*
G01X7608Y-61699D02*
G03X11938I2165J2033D01*
G01X7607Y-51856D02*
X7608Y-61699D01*
G01X-2814Y-61038D02*
X1186D01*
Y-61663D01*
X986Y-61863D01*
X719Y-61988D01*
X186Y-62038D01*
X-347Y-61988D01*
X-681Y-61838D01*
X-881Y-61663D01*
Y-61038D01*
G01Y-61663D02*
X-2814Y-62038D01*
G01X-2014Y-62988D02*
X-2481Y-63138D01*
X-2747Y-63338D01*
X-2814Y-63563D01*
X-2747Y-63763D01*
X-2414Y-63963D01*
X-2014Y-64088D01*
X-1614Y-64113D01*
X-1147Y-64063D01*
X-814Y-63888D01*
X-681Y-63713D01*
Y-63488D01*
G01Y-63713D02*
X-481Y-63863D01*
X-147Y-63988D01*
X253Y-64038D01*
X653Y-63988D01*
X986Y-63863D01*
X1186Y-63638D01*
X1119Y-63413D01*
X853Y-63188D01*
G01X-2814Y-65838D02*
X1186D01*
X-1681Y-64913D01*
Y-66163D01*
G01X-4435Y-59828D02*
Y-53639D01*
X-1203D01*
Y-59828D01*
X-4435D01*
G01X6659Y-53966D02*
Y-59599D01*
X6419Y-59840D01*
X3738D01*
X3517Y-59619D01*
Y-53891D01*
X3730Y-53678D01*
X6372D01*
X6659Y-53966D01*
G01X5195Y-62213D02*
X5395Y-62063D01*
X5528Y-61888D01*
Y-61688D01*
X5328Y-61463D01*
X4995Y-61288D01*
X4595Y-61163D01*
X3928Y-61063D01*
X3328Y-61038D01*
X2728Y-61088D01*
X2328Y-61163D01*
X1928Y-61313D01*
X1661Y-61488D01*
X1528Y-61663D01*
Y-61838D01*
X1661Y-62013D01*
X1861Y-62163D01*
X2128Y-62288D01*
G01X2328Y-63113D02*
X1861Y-63263D01*
X1595Y-63463D01*
X1528Y-63688D01*
X1595Y-63888D01*
X1928Y-64088D01*
X2328Y-64213D01*
X2728Y-64238D01*
X3195Y-64188D01*
X3528Y-64013D01*
X3661Y-63838D01*
Y-63613D01*
G01Y-63838D02*
X3861Y-63988D01*
X4195Y-64113D01*
X4595Y-64163D01*
X4995Y-64113D01*
X5328Y-63988D01*
X5528Y-63763D01*
X5461Y-63538D01*
X5195Y-63313D01*
G01X1528Y-65613D02*
X2395Y-65663D01*
X3128Y-65738D01*
X3795Y-65838D01*
X4528Y-65963D01*
X5528Y-66163D01*
Y-65163D01*
G01X2714Y-53924D02*
Y-59557D01*
X2474Y-59797D01*
X-207D01*
X-428Y-59577D01*
Y-53849D01*
X-216Y-53636D01*
X2427D01*
X2714Y-53924D01*
G01X11938Y-61699D02*
X11939Y-51856D01*
G03X7607I-2166J-1916D01*
G01X3914Y-45473D02*
X3764Y-45273D01*
X3589Y-45140D01*
X3389D01*
X3164Y-45340D01*
X2989Y-45673D01*
X2864Y-46073D01*
X2764Y-46740D01*
X2739Y-47340D01*
X2789Y-47940D01*
X2864Y-48340D01*
X3014Y-48740D01*
X3189Y-49006D01*
X3364Y-49140D01*
X3539D01*
X3714Y-49006D01*
X3864Y-48806D01*
X3989Y-48540D01*
G01X4814Y-48340D02*
X4964Y-48806D01*
X5164Y-49073D01*
X5389Y-49140D01*
X5589Y-49073D01*
X5789Y-48740D01*
X5914Y-48340D01*
X5939Y-47940D01*
X5889Y-47473D01*
X5714Y-47140D01*
X5539Y-47006D01*
X5314D01*
G01X5539D02*
X5689Y-46806D01*
X5814Y-46473D01*
X5864Y-46073D01*
X5814Y-45673D01*
X5689Y-45340D01*
X5464Y-45140D01*
X5239Y-45206D01*
X5014Y-45473D01*
G01X6889Y-47473D02*
X7064Y-47006D01*
X7214Y-46740D01*
X7414Y-46606D01*
X7589Y-46740D01*
X7714Y-47006D01*
X7814Y-47406D01*
X7839Y-47873D01*
X7814Y-48273D01*
X7714Y-48673D01*
X7564Y-49006D01*
X7389Y-49140D01*
X7189Y-49006D01*
X7014Y-48606D01*
X6914Y-48006D01*
X6889Y-47340D01*
X6939Y-46473D01*
X7014Y-46006D01*
X7139Y-45540D01*
X7314Y-45206D01*
X7489Y-45140D01*
X7664Y-45273D01*
X7789Y-45606D01*
G01X1463Y46295D02*
X5593D01*
Y33921D01*
X1463D01*
Y46295D01*
G01X879Y51669D02*
Y48802D01*
X979Y48202D01*
X1179Y47802D01*
X1429Y47669D01*
X1679Y47802D01*
X1879Y48202D01*
X1979Y48802D01*
Y51669D01*
G01X2954Y51003D02*
X3104Y51402D01*
X3279Y51602D01*
X3479Y51669D01*
X3729Y51536D01*
X3904Y51202D01*
X3954Y50803D01*
X3929Y50402D01*
X3829Y50069D01*
X3329Y49402D01*
X3104Y48936D01*
X2954Y48269D01*
X2904Y47669D01*
X3954D01*
G01X4879Y48269D02*
X5029Y47936D01*
X5204Y47736D01*
X5429Y47669D01*
X5654Y47802D01*
X5829Y48069D01*
X5954Y48536D01*
X5979Y49069D01*
X5929Y49602D01*
X5804Y49936D01*
X5629Y50202D01*
X5454Y50269D01*
X5279Y50202D01*
X5054Y49936D01*
X5129Y51669D01*
X5804D01*
G01X3314Y43854D02*
G03I-618J0D01*
G01X5512Y82739D02*
X9512D01*
Y82114D01*
X9312Y81914D01*
X9045Y81789D01*
X8512Y81739D01*
X7978Y81789D01*
X7645Y81939D01*
X7445Y82114D01*
Y82739D01*
G01Y82114D02*
X5512Y81739D01*
G01Y80764D02*
X9512Y79714D01*
G01Y80764D02*
X5512Y79714D01*
G01Y78789D02*
X9512D01*
Y78289D01*
X9312Y78089D01*
X9045Y77939D01*
X8645Y77814D01*
X8178Y77714D01*
X7512Y77689D01*
X6845Y77714D01*
X6378Y77814D01*
X5978Y77939D01*
X5712Y78089D01*
X5512Y78289D01*
Y78789D01*
G01X-2842Y100909D02*
Y98042D01*
X-2742Y97442D01*
X-2542Y97042D01*
X-2292Y96909D01*
X-2042Y97042D01*
X-1842Y97442D01*
X-1742Y98042D01*
Y100909D01*
G01X-292Y96909D02*
Y100909D01*
X-592Y100109D01*
G01Y96909D02*
X8D01*
G01X1708D02*
X1883Y96976D01*
X2083Y97176D01*
X2208Y97509D01*
X2258Y97976D01*
X2208Y98442D01*
X2058Y98842D01*
X1833Y99042D01*
X1583D01*
X1433Y99176D01*
X1308Y99509D01*
X1258Y99976D01*
X1333Y100442D01*
X1508Y100776D01*
X1708Y100909D01*
X1908Y100776D01*
X2083Y100442D01*
X2158Y99976D01*
X2108Y99509D01*
X1983Y99176D01*
X1833Y99042D01*
X1583D01*
X1358Y98842D01*
X1208Y98442D01*
X1158Y97976D01*
X1208Y97509D01*
X1333Y97176D01*
X1533Y96976D01*
X1708Y96909D01*
G01X-757Y103033D02*
G03I-940J0D01*
G01X14443Y44032D02*
X14442Y34189D01*
G03X18774I2166J1916D01*
G01D02*
X18773Y44032D01*
G01X17529Y50608D02*
X17729Y50758D01*
X17862Y50933D01*
Y51133D01*
X17662Y51358D01*
X17329Y51533D01*
X16929Y51658D01*
X16262Y51758D01*
X15662Y51783D01*
X15062Y51733D01*
X14662Y51658D01*
X14262Y51508D01*
X13995Y51333D01*
X13862Y51158D01*
Y50983D01*
X13995Y50808D01*
X14195Y50658D01*
X14462Y50533D01*
G01X15529Y49633D02*
X15995Y49458D01*
X16262Y49308D01*
X16395Y49108D01*
X16262Y48933D01*
X15995Y48808D01*
X15595Y48708D01*
X15129Y48683D01*
X14729Y48708D01*
X14329Y48808D01*
X13995Y48958D01*
X13862Y49133D01*
X13995Y49333D01*
X14395Y49508D01*
X14995Y49608D01*
X15662Y49633D01*
X16529Y49583D01*
X16995Y49508D01*
X17462Y49383D01*
X17795Y49208D01*
X17862Y49033D01*
X17729Y48858D01*
X17395Y48733D01*
G01X17862Y47158D02*
X17729Y47358D01*
X17395Y47508D01*
X16995Y47608D01*
X16462Y47683D01*
X15862Y47708D01*
X15262Y47683D01*
X14729Y47608D01*
X14329Y47508D01*
X13995Y47358D01*
X13862Y47158D01*
X13995Y46958D01*
X14329Y46808D01*
X14729Y46708D01*
X15262Y46633D01*
X15862Y46608D01*
X16462Y46633D01*
X16995Y46708D01*
X17395Y46808D01*
X17729Y46958D01*
X17862Y47158D01*
G01X18773Y44032D02*
G03X14443I-2165J-2033D01*
G01X12417Y82822D02*
X16417D01*
Y82322D01*
X16217Y82122D01*
X15951Y81972D01*
X15551Y81847D01*
X15084Y81747D01*
X14417Y81722D01*
X13751Y81747D01*
X13284Y81847D01*
X12884Y81972D01*
X12617Y82122D01*
X12417Y82322D01*
Y82822D01*
G01X16417Y80272D02*
X12417D01*
G01X16417Y80847D02*
Y79697D01*
G01X12417Y78772D02*
X16417D01*
Y78147D01*
X16217Y77947D01*
X15951Y77822D01*
X15417Y77772D01*
X14884Y77822D01*
X14551Y77972D01*
X14351Y78147D01*
Y78772D01*
G01Y78147D02*
X12417Y77772D01*
G01X22624Y83372D02*
X26624D01*
Y82747D01*
X26424Y82547D01*
X26157Y82422D01*
X25624Y82372D01*
X25091Y82422D01*
X24757Y82572D01*
X24557Y82747D01*
Y83372D01*
G01Y82747D02*
X22624Y82372D01*
G01X26624Y80872D02*
X22624D01*
G01X26624Y81447D02*
Y80297D01*
G01X23157Y79397D02*
X22824Y79197D01*
X22624Y78972D01*
Y78772D01*
X22824Y78572D01*
X23157Y78422D01*
X23624Y78347D01*
X24091Y78397D01*
X24491Y78522D01*
X24757Y78747D01*
X24891Y79047D01*
X25157Y79222D01*
X25624Y79297D01*
X26091Y79247D01*
X26424Y79122D01*
X26624Y78947D01*
Y78772D01*
X26491Y78597D01*
X26157Y78447D01*
G01X18530Y94167D02*
G03X22860I2165J2033D01*
G01X18529Y104010D02*
X18530Y94167D01*
G01X22860D02*
X22861Y104010D01*
G03X18529I-2166J-1916D01*
G01X43462Y-95691D02*
X42906Y-96248D01*
X28986Y-82328D01*
X29543Y-81772D01*
G01X33567Y60461D02*
X33921Y60107D01*
X33072Y59258D01*
X32683Y59082D01*
X32371Y59017D01*
X32100Y59099D01*
X32017Y59370D01*
X32082Y59683D01*
X32259Y60072D01*
X32518Y60472D01*
X32860Y60885D01*
X33190Y61215D01*
X33508Y61462D01*
X33909Y61722D01*
X34298Y61898D01*
X34592Y61981D01*
X34875D01*
X34999Y61857D01*
X35046Y61621D01*
X34964Y61327D01*
G01X33054Y58145D02*
X35883Y60973D01*
X33868Y57332D01*
X36696Y60160D01*
G01X34486Y56713D02*
X37315Y59541D01*
X37668Y59188D01*
X37668Y58905D01*
X37586Y58610D01*
X37391Y58239D01*
X37132Y57838D01*
X36678Y57349D01*
X36189Y56896D01*
X35788Y56636D01*
X35417Y56442D01*
X35123Y56359D01*
X34840D01*
X34486Y56713D01*
G01X34335Y69489D02*
X34460Y69089D01*
X34610Y68822D01*
X34785Y68689D01*
X34985Y68822D01*
X35135Y69089D01*
X35285Y69489D01*
X35335Y70022D01*
Y72689D01*
G01X36285Y69289D02*
X36435Y68956D01*
X36610Y68756D01*
X36835Y68689D01*
X37060Y68822D01*
X37235Y69089D01*
X37360Y69556D01*
X37385Y70089D01*
X37335Y70622D01*
X37210Y70956D01*
X37035Y71222D01*
X36860Y71289D01*
X36685Y71222D01*
X36460Y70956D01*
X36535Y72689D01*
X37210D01*
G01X38835Y68689D02*
Y72689D01*
X38535Y71889D01*
G01Y68689D02*
X39135D01*
G01X28307Y99765D02*
X28507Y99915D01*
X28641Y100090D01*
Y100290D01*
X28440Y100515D01*
X28107Y100690D01*
X27707Y100815D01*
X27041Y100915D01*
X26441Y100940D01*
X25841Y100890D01*
X25441Y100815D01*
X25040Y100665D01*
X24774Y100490D01*
X24641Y100315D01*
Y100140D01*
X24774Y99965D01*
X24974Y99815D01*
X25240Y99690D01*
G01Y98865D02*
X24907Y98715D01*
X24707Y98540D01*
X24641Y98315D01*
X24774Y98090D01*
X25040Y97915D01*
X25507Y97790D01*
X26040Y97765D01*
X26574Y97815D01*
X26907Y97940D01*
X27174Y98115D01*
X27240Y98290D01*
X27174Y98465D01*
X26907Y98690D01*
X28641Y98615D01*
Y97940D01*
G01X24641Y96365D02*
X25507Y96315D01*
X26240Y96240D01*
X26907Y96140D01*
X27641Y96015D01*
X28641Y95815D01*
Y96815D01*
G01X41084Y-87629D02*
G03I-941J0D01*
G01X42349Y-68966D02*
X42906Y-68409D01*
X56825Y-82328D01*
X56268Y-82885D01*
G01X37551Y-11742D02*
X37401Y-11542D01*
X37226Y-11409D01*
X37026D01*
X36801Y-11609D01*
X36626Y-11942D01*
X36501Y-12342D01*
X36401Y-13009D01*
X36376Y-13609D01*
X36426Y-14209D01*
X36501Y-14609D01*
X36651Y-15009D01*
X36826Y-15275D01*
X37001Y-15409D01*
X37176D01*
X37351Y-15275D01*
X37501Y-15075D01*
X37626Y-14809D01*
G01X38451D02*
X38601Y-15142D01*
X38776Y-15342D01*
X39001Y-15409D01*
X39226Y-15275D01*
X39401Y-15009D01*
X39526Y-14542D01*
X39551Y-14009D01*
X39501Y-13475D01*
X39376Y-13142D01*
X39201Y-12875D01*
X39026Y-12809D01*
X38851Y-12875D01*
X38626Y-13142D01*
X38701Y-11409D01*
X39376D01*
G01X41001D02*
X40801Y-11542D01*
X40651Y-11875D01*
X40551Y-12275D01*
X40476Y-12809D01*
X40451Y-13409D01*
X40476Y-14009D01*
X40551Y-14542D01*
X40651Y-14942D01*
X40801Y-15275D01*
X41001Y-15409D01*
X41201Y-15275D01*
X41351Y-14942D01*
X41451Y-14542D01*
X41526Y-14009D01*
X41551Y-13409D01*
X41526Y-12809D01*
X41451Y-12275D01*
X41351Y-11875D01*
X41201Y-11542D01*
X41001Y-11409D01*
G01X48694Y-17398D02*
X44493D01*
G01D02*
X43032Y-16289D01*
G01D02*
Y-11221D01*
G01X38689Y-17394D02*
X38539Y-17194D01*
X38364Y-17061D01*
X38164D01*
X37939Y-17261D01*
X37764Y-17594D01*
X37639Y-17994D01*
X37539Y-18661D01*
X37514Y-19261D01*
X37564Y-19861D01*
X37639Y-20261D01*
X37789Y-20661D01*
X37964Y-20928D01*
X38139Y-21061D01*
X38314D01*
X38489Y-20928D01*
X38639Y-20728D01*
X38764Y-20461D01*
G01X40139Y-21061D02*
Y-17061D01*
X39839Y-17861D01*
G01Y-21061D02*
X40439D01*
G01X41664Y-17728D02*
X41814Y-17328D01*
X41989Y-17128D01*
X42189Y-17061D01*
X42439Y-17194D01*
X42614Y-17528D01*
X42664Y-17928D01*
X42639Y-18328D01*
X42539Y-18661D01*
X42039Y-19328D01*
X41814Y-19794D01*
X41664Y-20461D01*
X41614Y-21061D01*
X42664D01*
G01X45228Y-18907D02*
X50862D01*
X51102Y-19147D01*
Y-21828D01*
X50881Y-22048D01*
X45153D01*
X44940Y-21836D01*
Y-19194D01*
X45228Y-18907D01*
G01X47392Y19890D02*
X58022D01*
Y-6370D01*
X47392D01*
G01X43032Y-11221D02*
X44493Y-9919D01*
G01D02*
X48694D01*
G01X60307Y-79104D02*
X58279Y-81131D01*
X57926Y-81626D01*
X57784Y-82051D01*
X57867Y-82322D01*
X58138Y-82404D01*
X58562Y-82263D01*
X59057Y-81909D01*
X61084Y-79882D01*
G01X59281Y-83736D02*
X62110Y-80907D01*
X61332Y-81261D01*
G01X59069Y-83524D02*
X59493Y-83948D01*
G01X60660Y-85115D02*
X61308Y-84537D01*
X61880Y-84072D01*
X62422Y-83671D01*
X63029Y-83241D01*
X63877Y-82675D01*
X63170Y-81968D01*
G01X60262Y-44702D02*
X60298Y-44455D01*
X60268Y-44237D01*
X60127Y-44095D01*
X59826Y-44078D01*
X59467Y-44190D01*
X59096Y-44384D01*
X58554Y-44785D01*
X58112Y-45191D01*
X57723Y-45651D01*
X57493Y-45987D01*
X57316Y-46376D01*
X57251Y-46688D01*
X57281Y-46906D01*
X57404Y-47030D01*
X57622Y-47059D01*
X57870Y-47024D01*
X58147Y-46924D01*
G01X58730Y-47507D02*
X58601Y-47849D01*
X58583Y-48114D01*
X58695Y-48320D01*
X58948Y-48385D01*
X59261Y-48320D01*
X59679Y-48079D01*
X60074Y-47719D01*
X60416Y-47307D01*
X60563Y-46982D01*
X60628Y-46670D01*
X60551Y-46499D01*
X60380Y-46423D01*
X60033Y-46452D01*
X61311Y-45280D01*
X61788Y-45757D01*
G01X60144Y-48921D02*
X60015Y-49263D01*
X59997Y-49528D01*
X60109Y-49734D01*
X60362Y-49799D01*
X60675Y-49734D01*
X61093Y-49493D01*
X61488Y-49133D01*
X61830Y-48721D01*
X61977Y-48397D01*
X62042Y-48084D01*
X61965Y-47914D01*
X61794Y-47837D01*
X61447Y-47866D01*
X62725Y-46694D01*
X63203Y-47171D01*
G01X72290Y-55825D02*
X65331Y-48864D01*
G03X62267Y-51928I-177J-2887D01*
G01D02*
X69228Y-58887D01*
G01X64898Y-40700D02*
X64934Y-40452D01*
X64904Y-40234D01*
X64763Y-40093D01*
X64462Y-40075D01*
X64103Y-40187D01*
X63732Y-40382D01*
X63190Y-40782D01*
X62748Y-41189D01*
X62359Y-41648D01*
X62129Y-41984D01*
X61952Y-42373D01*
X61888Y-42686D01*
X61917Y-42904D01*
X62041Y-43027D01*
X62259Y-43057D01*
X62506Y-43021D01*
X62783Y-42921D01*
G01X63366Y-43505D02*
X63237Y-43846D01*
X63219Y-44112D01*
X63331Y-44318D01*
X63584Y-44383D01*
X63897Y-44318D01*
X64315Y-44076D01*
X64710Y-43717D01*
X65052Y-43304D01*
X65199Y-42980D01*
X65264Y-42668D01*
X65187Y-42497D01*
X65016Y-42420D01*
X64669Y-42450D01*
X65947Y-41277D01*
X66425Y-41754D01*
G01X64922Y-44777D02*
X64698Y-45213D01*
X64651Y-45543D01*
X64763Y-45750D01*
X64952Y-45844D01*
X65329Y-45750D01*
X65700Y-45555D01*
X66000Y-45290D01*
X66295Y-44925D01*
X66407Y-44565D01*
X66378Y-44347D01*
X66218Y-44188D01*
G01X66378Y-44347D02*
X66625Y-44312D01*
X66949Y-44165D01*
X67267Y-43917D01*
X67515Y-43599D01*
X67662Y-43275D01*
X67645Y-42974D01*
X67438Y-42862D01*
X67090Y-42892D01*
G01X60040Y-17398D02*
Y-9919D01*
G01D02*
X54694D01*
G01X50140Y26704D02*
Y23838D01*
X50240Y23237D01*
X50440Y22838D01*
X50690Y22704D01*
X50940Y22838D01*
X51140Y23237D01*
X51240Y23838D01*
Y26704D01*
G01X52690Y22704D02*
Y26704D01*
X52390Y25904D01*
G01Y22704D02*
X52990D01*
G01X54690D02*
Y26704D01*
X54390Y25904D01*
G01Y22704D02*
X54990D01*
G01X61983Y31937D02*
X61853Y31595D01*
X61835Y31330D01*
X61947Y31124D01*
X62201Y31059D01*
X62513Y31124D01*
X62931Y31365D01*
X63326Y31725D01*
X63668Y32137D01*
X63815Y32461D01*
X63880Y32774D01*
X63803Y32944D01*
X63632Y33021D01*
X63285Y32992D01*
X64563Y34164D01*
X65041Y33687D01*
G01X65748Y32980D02*
X63361Y29709D01*
X66632Y32096D01*
G01X54046Y66520D02*
X53489Y67077D01*
X67408Y80996D01*
X67965Y80439D01*
G01X55356Y77096D02*
X57383Y75068D01*
X57878Y74715D01*
X58303Y74573D01*
X58574Y74656D01*
X58656Y74927D01*
X58515Y75351D01*
X58161Y75846D01*
X56134Y77873D01*
G01X57295Y78091D02*
X57118Y78480D01*
X57100Y78745D01*
X57195Y78934D01*
X57466Y79016D01*
X57825Y78904D01*
X58143Y78657D01*
X58409Y78356D01*
X58574Y78050D01*
X58692Y77225D01*
X58862Y76736D01*
X59228Y76158D01*
X59617Y75699D01*
X60359Y76441D01*
G01X61402Y77484D02*
X58574Y80313D01*
X58927Y79535D01*
G01X61190Y77272D02*
X61614Y77696D01*
G01X69228Y-58887D02*
G03X72290Y-55825I93J2968D01*
G01X73814Y-54405D02*
G03X76876Y-51343I93J2968D01*
G01D02*
X69916Y-44383D01*
G03X66853Y-47446I-177J-2887D01*
G01D02*
X73814Y-54405D01*
G01X84158Y-52863D02*
X83601Y-53420D01*
X69681Y-39501D01*
X70238Y-38944D01*
G01X75281Y23206D02*
X75131Y23406D01*
X74956Y23540D01*
X74756D01*
X74531Y23340D01*
X74356Y23006D01*
X74231Y22606D01*
X74131Y21940D01*
X74106Y21340D01*
X74156Y20740D01*
X74231Y20340D01*
X74381Y19940D01*
X74556Y19673D01*
X74731Y19540D01*
X74906D01*
X75081Y19673D01*
X75231Y19873D01*
X75356Y20140D01*
G01X77031Y19540D02*
Y23540D01*
X76106Y20673D01*
X77356D01*
G01X78306Y20006D02*
X78481Y19673D01*
X78681Y19540D01*
X78881Y19673D01*
X79056Y20073D01*
X79181Y20673D01*
X79231Y21273D01*
Y22006D01*
X79181Y22606D01*
X79056Y23140D01*
X78906Y23406D01*
X78731Y23540D01*
X78531Y23406D01*
X78381Y23140D01*
X78281Y22740D01*
X78231Y22206D01*
X78281Y21740D01*
X78406Y21273D01*
X78556Y21006D01*
X78731Y20940D01*
X78931Y21073D01*
X79081Y21406D01*
X79231Y22006D01*
G01X81198Y18077D02*
X71356Y18078D01*
G03Y13746I1916J-2166D01*
G01D02*
X81198Y13747D01*
G01X80771Y67634D02*
X81328Y67077D01*
X67408Y53157D01*
X66852Y53714D01*
G01X73649Y64315D02*
G03I-940J0D01*
G01X81780Y-44801D02*
G03I-941J0D01*
G01X93620Y-27449D02*
X91592Y-29476D01*
X91239Y-29971D01*
X91097Y-30395D01*
X91180Y-30666D01*
X91451Y-30749D01*
X91875Y-30607D01*
X92370Y-30254D01*
X94397Y-28227D01*
G01X94615Y-29387D02*
X95004Y-29211D01*
X95269Y-29193D01*
X95458Y-29287D01*
X95540Y-29558D01*
X95428Y-29918D01*
X95181Y-30236D01*
X94880Y-30501D01*
X94574Y-30666D01*
X93749Y-30784D01*
X93260Y-30955D01*
X92682Y-31320D01*
X92223Y-31709D01*
X92965Y-32452D01*
G01X96837Y-30666D02*
X96601Y-30619D01*
X96259Y-30749D01*
X95906Y-30961D01*
X95476Y-31285D01*
X95034Y-31692D01*
X94627Y-32133D01*
X94303Y-32564D01*
X94091Y-32917D01*
X93961Y-33259D01*
X94008Y-33494D01*
X94244Y-33542D01*
X94586Y-33412D01*
X94939Y-33200D01*
X95370Y-32876D01*
X95811Y-32469D01*
X96218Y-32027D01*
X96542Y-31597D01*
X96754Y-31244D01*
X96884Y-30902D01*
X96837Y-30666D01*
G01X83044Y-26138D02*
X83601Y-25581D01*
X97520Y-39501D01*
X96963Y-40058D01*
G01X81198Y13747D02*
G03Y18077I-2033J2165D01*
G54D12*
G01X-61815Y-10586D02*
X-77684Y5282D01*
G01D02*
X-59866Y23099D01*
G01X-57918Y-10586D02*
X-61815D01*
G01X-59866Y23099D02*
X-42050Y5282D01*
G01D02*
X-57918Y-10586D01*
G54D13*
G01X-82473Y22591D02*
X-93609Y33726D01*
G01D02*
X-92813Y34522D01*
G01X-81823Y23241D02*
X-82473Y22591D01*
G01X-68115Y47958D02*
X-79251Y59093D01*
G01X-79034Y48301D02*
X-77620Y49715D01*
G01D02*
X-75560Y49088D01*
G01D02*
X-65768Y39296D01*
G01X-79251Y59093D02*
X-78456Y59889D01*
G01X-65768Y39296D02*
X-67615Y37448D01*
G01X-67465Y48608D02*
X-68115Y47958D01*
G01X-64676Y73668D02*
X-63262Y75082D01*
G01D02*
X-61202Y74455D01*
G01D02*
X-51410Y64663D01*
G01X-56096Y-10794D02*
G03I-361J0D01*
G01X-51410Y64663D02*
X-53258Y62815D01*
G01X30766Y63612D02*
X-12334D01*
G01D02*
Y75312D01*
G01D02*
X30766D01*
G01D02*
Y63612D01*
G54D14*
G01X107416Y13632D02*
X101488D01*
G03X101635Y-13533I147J-13582D01*
G01X101635Y-13534D01*
X107416D01*
G02X12602Y-107482I-107412J13584D01*
G01Y-101582D01*
G03X-12595I-12598J0D01*
G01Y-107482D01*
G02X-107409Y-13534I12599J107532D01*
G01X-101628D01*
X-101629Y-13533D01*
G03X-101481Y13632I0J13583D01*
G01X-107409D01*
G02X107416I107412J-13582D01*
G01X-70045Y-15187D02*
X-78138Y-23280D01*
X-88399Y-13019D01*
X-80306Y-4926D01*
X-70045Y-15187D01*
G01X33469Y8D02*
G03X-33460I-33465J0D01*
G03X33469I33465J0D01*
G01D02*
G03X-33460I-33465J0D01*
G03X33469I33465J0D01*
G01D02*
G03X-33460I-33465J0D01*
G03X33469I33465J0D01*
G01D02*
G03X-33460I-33465J0D01*
G03X33469I33465J0D01*
G01D02*
G03X-33460I-33465J0D01*
G03X33469I33465J0D01*
G01D02*
G03X-33460I-33465J0D01*
G01X-31860Y36191D02*
G02I-4331J0D01*
G01D02*
G03I-4331J0D01*
G01X4757Y-82061D02*
G03X-4691Y-82060I-4724J0D01*
G03X4757Y-82061I4724J0D01*
G01X-4691Y-82060D02*
G03X4757Y-82061I4724J0D01*
G01D02*
G03X-4691Y-82060I-4724J0D01*
G01X4725Y82087D02*
G02I-4724J0D01*
G01X21779Y74794D02*
X21646Y75044D01*
X21486Y75211D01*
X21299Y75294D01*
X21086Y75211D01*
X20926Y75044D01*
X20766Y74794D01*
X20713Y74461D01*
Y72794D01*
G01X19633Y74919D02*
X19473Y75127D01*
X19286Y75252D01*
X19046Y75294D01*
X18806Y75211D01*
X18619Y75044D01*
X18486Y74752D01*
X18459Y74419D01*
X18513Y74086D01*
X18646Y73877D01*
X18833Y73711D01*
X19019Y73669D01*
X19206Y73711D01*
X19446Y73877D01*
X19366Y72794D01*
X18646D01*
G01X17353Y73211D02*
X17193Y72961D01*
X17006Y72836D01*
X16793Y72794D01*
X16526Y72877D01*
X16339Y73086D01*
X16286Y73336D01*
X16313Y73586D01*
X16419Y73794D01*
X16953Y74211D01*
X17193Y74502D01*
X17353Y74919D01*
X17406Y75294D01*
X16286D01*
G01X30754Y76896D02*
X10278D01*
Y85955D01*
X30754D01*
Y76896D01*
G01X40521Y-36191D02*
G02I-4331J0D01*
G01D02*
G03I-4331J0D01*
M02*
