%FSLAX25Y25*%
%MOIN*%
G70*
G01*
G75*
G04 Layer_Physical_Order=2*
G04 Layer_Color=16711680*
%ADD10R,0.07087X0.07874*%
%ADD11R,0.03150X0.05906*%
%ADD12R,0.01575X0.03347*%
%ADD13R,0.04843X0.02559*%
%ADD14R,0.08268X0.02756*%
%ADD15R,0.02362X0.02362*%
%ADD16C,0.01000*%
%ADD17C,0.00500*%
%ADD18C,0.02000*%
G36*
X128300Y-3900D02*
X128500Y-4100D01*
Y-9000D01*
Y-66100D01*
X125300Y-69300D01*
X124900Y-69700D01*
X4700D01*
X2500Y-67500D01*
X2000Y-67000D01*
Y-1300D01*
X125700D01*
X128300Y-3900D01*
D02*
G37*
%LPC*%
G36*
X52900Y-45500D02*
X51460D01*
X51516Y-45780D01*
X51958Y-46442D01*
X52620Y-46884D01*
X52900Y-46940D01*
Y-45500D01*
D02*
G37*
G36*
X49900Y-53361D02*
X49120Y-53516D01*
X48458Y-53958D01*
X48116Y-54471D01*
X40411D01*
X39880Y-54116D01*
X39100Y-53961D01*
X38320Y-54116D01*
X37658Y-54558D01*
X37216Y-55220D01*
X37061Y-56000D01*
X37216Y-56780D01*
X37658Y-57442D01*
X38320Y-57884D01*
X39100Y-58039D01*
X39880Y-57884D01*
X40411Y-57529D01*
X49100D01*
X49685Y-57413D01*
X49685Y-57413D01*
X49685Y-57413D01*
X49704Y-57400D01*
X49900Y-57439D01*
X50680Y-57284D01*
X51342Y-56842D01*
X51784Y-56180D01*
X51939Y-55400D01*
X51784Y-54620D01*
X51342Y-53958D01*
X50680Y-53516D01*
X49900Y-53361D01*
D02*
G37*
G36*
X39100Y-25961D02*
X38320Y-26116D01*
X37789Y-26471D01*
X35800D01*
X35215Y-26587D01*
X34719Y-26919D01*
X31819Y-29819D01*
X31487Y-30315D01*
X31371Y-30900D01*
Y-36789D01*
X31016Y-37320D01*
X30861Y-38100D01*
X31016Y-38880D01*
X31458Y-39542D01*
X31533Y-39592D01*
X31388Y-40071D01*
X27311D01*
X26780Y-39716D01*
X26000Y-39561D01*
X25220Y-39716D01*
X24558Y-40158D01*
X24408Y-40383D01*
X23929Y-40238D01*
Y-33711D01*
X24284Y-33180D01*
X24439Y-32400D01*
X24284Y-31620D01*
X23842Y-30958D01*
X23180Y-30516D01*
X22400Y-30361D01*
X21620Y-30516D01*
X20958Y-30958D01*
X20516Y-31620D01*
X20361Y-32400D01*
X20516Y-33180D01*
X20871Y-33711D01*
Y-46600D01*
X20871Y-46600D01*
X20871D01*
X20987Y-47185D01*
X21319Y-47681D01*
X22419Y-48781D01*
X22915Y-49113D01*
X23012Y-49132D01*
X23500Y-49229D01*
X40802D01*
X41183Y-49484D01*
X41963Y-49639D01*
X42743Y-49484D01*
X43405Y-49042D01*
X43847Y-48380D01*
X44002Y-47600D01*
X43847Y-46820D01*
X43405Y-46158D01*
X42743Y-45716D01*
X41963Y-45561D01*
X41183Y-45716D01*
X40521Y-46158D01*
X40513Y-46171D01*
X37486D01*
X37251Y-45730D01*
X37484Y-45380D01*
X37540Y-45100D01*
X35599D01*
Y-44100D01*
X37540D01*
X37484Y-43820D01*
X37042Y-43158D01*
X37051Y-43129D01*
X51714D01*
X51950Y-43570D01*
X51516Y-44220D01*
X51460Y-44500D01*
X53401D01*
Y-44999D01*
X53900D01*
Y-46940D01*
X54180Y-46884D01*
X54711Y-46529D01*
X62400D01*
X62985Y-46413D01*
X63481Y-46081D01*
X68181Y-41381D01*
X68513Y-40885D01*
X68629Y-40300D01*
Y-35300D01*
X68513Y-34715D01*
X68181Y-34219D01*
X66881Y-32919D01*
X66385Y-32587D01*
X65800Y-32471D01*
X64211D01*
X63680Y-32116D01*
X63400Y-32060D01*
Y-34001D01*
Y-35940D01*
X63680Y-35884D01*
X64211Y-35529D01*
X65166D01*
X65571Y-35934D01*
Y-39667D01*
X61766Y-43471D01*
X58086D01*
X57850Y-43030D01*
X58284Y-42380D01*
X58439Y-41600D01*
X58284Y-40820D01*
X57842Y-40158D01*
X57268Y-39775D01*
X57268Y-39775D01*
X57268D01*
X57180Y-39716D01*
Y-39716D01*
X57189Y-39629D01*
X59918D01*
X59956Y-39821D01*
X60398Y-40482D01*
X61060Y-40924D01*
X61840Y-41079D01*
X62621Y-40924D01*
X63282Y-40482D01*
X63724Y-39821D01*
X63879Y-39040D01*
X63724Y-38260D01*
X63282Y-37598D01*
X62621Y-37156D01*
X61995Y-37032D01*
X61981Y-37019D01*
X61485Y-36687D01*
X60900Y-36571D01*
X34429D01*
Y-31534D01*
X36434Y-29529D01*
X37789D01*
X38320Y-29884D01*
X39100Y-30039D01*
X39880Y-29884D01*
X40542Y-29442D01*
X40984Y-28780D01*
X41139Y-28000D01*
X40984Y-27220D01*
X40542Y-26558D01*
X39880Y-26116D01*
X39100Y-25961D01*
D02*
G37*
G36*
X62400Y-32060D02*
X62120Y-32116D01*
X61458Y-32558D01*
X61016Y-33220D01*
X60960Y-33500D01*
X62400D01*
Y-32060D01*
D02*
G37*
G36*
Y-34500D02*
X60960D01*
X61016Y-34780D01*
X61458Y-35442D01*
X62120Y-35884D01*
X62400Y-35940D01*
Y-34500D01*
D02*
G37*
%LPD*%
D16*
X32900Y-38100D02*
X60900D01*
X61840Y-39040D01*
X35800Y-28000D02*
X39100D01*
X32900Y-30900D02*
X35800Y-28000D01*
X32900Y-38100D02*
Y-30900D01*
X22400Y-46600D02*
Y-32400D01*
Y-46600D02*
X23500Y-47700D01*
X41963D01*
X26000Y-41600D02*
X56400D01*
X39100Y-56000D02*
X49100D01*
X49700Y-55400D01*
X53400Y-45000D02*
X62400D01*
X67100Y-40300D01*
Y-35300D01*
X65800Y-34000D02*
X67100Y-35300D01*
X62900Y-34000D02*
X65800D01*
X117753Y-26245D02*
G03*
X117753Y-26245I-1772J0D01*
G01*
Y-59710D02*
G03*
X117753Y-59710I-1772J0D01*
G01*
D17*
X0Y0D02*
X129921D01*
Y-70866D02*
Y0D01*
X0Y-70866D02*
X129921D01*
X0D02*
Y0D01*
D18*
X32900Y-38100D02*
D03*
X61840Y-39040D02*
D03*
X39100Y-28000D02*
D03*
X22400Y-32400D02*
D03*
X41963Y-47600D02*
D03*
X26000Y-41600D02*
D03*
X56400D02*
D03*
X39100Y-56000D02*
D03*
X49900Y-55400D02*
D03*
X53400Y-45000D02*
D03*
X62900Y-34000D02*
D03*
X35600Y-44600D02*
D03*
M02*
