M48
;Layer_Color=9474304
;FILE_FORMAT=2:5
INCH,LZ
;TYPE=PLATED
T1F00S00C0.01200
T2F00S00C0.02000
T5F00S00C0.03543
T6F00S00C0.03937
T7F00S00C0.04724
;TYPE=NON_PLATED
T9F00S00C0.02953
T10F00S00C0.03543
T11F00S00C0.04331
%
T01
X0470553Y0217754
X04769Y02196
X0477Y02241
X04714Y02285
X04841Y02274
X04936Y02285
X04953Y02316
X04931Y02358
X04938Y0241
X04894Y02404
X04894Y02438
X04939Y02469
X04926Y0258
X04894Y02605
X04894Y02639
X04925Y02668
X05025Y02677
Y02744
X04993Y02578
X05051Y02566
X04775Y02572
X04768Y025
X04769Y02464
X04775Y0243
X04714Y02635
X04823Y02781
X04748Y02872
X0485Y03069
X0515Y0312
X05228Y02861
X05298Y02918
X05352Y0292
X05327Y0283
X05451Y02854
X0544Y02963
X05074Y02223
X05003Y02279
X05008Y02128
X04877Y02115
X0464648Y0217548
X0454806Y0217195
X04534Y02258
X04494Y02265
X04505Y02237
X04474Y02234
X04439Y02232
X04363Y02237
X04365Y02117
X04407Y02118
X04296Y0212
X0423
X04166
X04125Y02142
X04087Y022
X04045Y02273
X0413Y02299
X04184Y02348
X04312Y02356
X04289Y02492
X04292Y02589
X04254Y02628
X04215Y02629
X04156Y02657
X04133Y02686
X04095Y0274
X04043Y02717
X04052Y02828
X04042Y02874
X04088
X04115Y02834
X04108Y02993
X04106Y03035
X04153Y02971
X04237Y03019
X04303Y02919
X04337Y02867
X04371Y02823
X04443Y02784
X04428Y02679
X04484Y02572
X04487Y02534
X04623Y02478
X04619Y02741
X04683Y02809
X04673Y0297
X0463499Y0304836
X04563Y03037
X04545Y03115
X04499Y03078
X04172Y03122
X03983Y0301
X04005Y02918
X04216Y02737
X04105Y0253
X04003Y02347
X04476Y02351
X04446Y03259
Y03359
X0444Y03434
X04675Y03435
X0418Y03223
X04192Y03178
X04213Y03149
X04084Y0315
X04094Y03193
X04103Y03223
X04099Y03268
X04147Y03253
X04031Y03134
X04892Y032
X05101
X05066Y03244
X05021Y03304
X05142Y03151
T02
X04255Y02414
X04427Y0284
X0438Y02897
X04492Y03034
X04225Y0308005
X03964Y03115
T05
X0509955Y0246068
X0514986Y0254783
X0518923Y0261602
X0523955Y0270316
X04314Y027066
X04264Y0279321
X04214Y0287981
X04364Y0262
T06
X05075Y03044
X0502579Y0312924
X0498642Y0319743
X049372Y0328267
T07
X04411Y03662
X04511Y0365806
X04611Y0365413
X04711Y0365019
T09
X0401265Y0250323
X0394179Y0262597
T10
X0389592Y0324244
X0397269Y0337541
T11
X0519371Y0246628
X0528229Y0261971
M30
