G04*
G04 #@! TF.GenerationSoftware,Altium Limited,Altium Designer,23.10.1 (27)*
G04*
G04 Layer_Color=16711935*
%FSLAX25Y25*%
%MOIN*%
G70*
G04*
G04 #@! TF.SameCoordinates,4B5F03CF-9F67-499E-902A-73A7A51B6F95*
G04*
G04*
G04 #@! TF.FilePolarity,Negative*
G04*
G01*
G75*
%ADD95R,0.04147X0.03556*%
%ADD97R,0.10642X0.15210*%
%ADD98R,0.08674X0.15210*%
%ADD99R,0.07099X0.02769*%
%ADD100R,0.02926X0.04343*%
%ADD102R,0.03162X0.04737*%
%ADD103R,0.05131X0.05524*%
%ADD104R,0.13792X0.10642*%
%ADD105R,0.03800X0.04800*%
%ADD106R,0.04800X0.03800*%
%ADD110C,0.06706*%
%ADD111O,0.08674X0.16548*%
%ADD112O,0.04737X0.09068*%
%ADD113C,0.03438*%
%ADD114R,0.06706X0.06706*%
%ADD115C,0.09068*%
%ADD116R,0.06706X0.06706*%
%ADD117C,0.20485*%
%ADD118C,0.07480*%
%ADD119R,0.05524X0.07099*%
%ADD120O,0.05524X0.07099*%
%ADD121O,0.08674X0.12611*%
%ADD122R,0.08674X0.12611*%
%ADD123C,0.08674*%
%ADD124R,0.08674X0.08674*%
%ADD180R,0.24289X1.68700*%
%ADD181R,0.06312X0.06312*%
%ADD182R,0.14186X0.20091*%
%ADD183R,0.14816X0.07808*%
%ADD184R,0.05918X0.14580*%
%ADD185R,0.04343X0.02926*%
%ADD186R,0.02769X0.07099*%
%ADD187R,0.15210X0.08674*%
%ADD188R,0.15210X0.10642*%
%ADD189R,0.05524X0.14580*%
G36*
X596415Y100915D02*
X631315D01*
X633415Y98815D01*
Y78115D01*
X639715Y71815D01*
X713315D01*
Y59015D01*
X607315D01*
X596415Y69915D01*
Y100915D01*
D02*
G37*
D95*
X453815Y196109D02*
D03*
Y202015D02*
D03*
X447880Y201976D02*
D03*
Y196071D02*
D03*
X621915Y237315D02*
D03*
Y243220D02*
D03*
X629015Y243115D02*
D03*
Y237210D02*
D03*
D97*
X471074Y155387D02*
D03*
X432456Y104943D02*
D03*
X494556Y160143D02*
D03*
D98*
X462831Y155387D02*
D03*
X440698Y104943D02*
D03*
X502798Y160143D02*
D03*
D99*
X475327Y159423D02*
D03*
X459579D02*
D03*
X443951Y100907D02*
D03*
X428203D02*
D03*
X490303Y156107D02*
D03*
X506051D02*
D03*
D100*
X464953Y168675D02*
D03*
Y146637D02*
D03*
X474953Y168675D02*
D03*
X469953D02*
D03*
X474953Y146637D02*
D03*
X459953Y168675D02*
D03*
Y146637D02*
D03*
X469953D02*
D03*
X433577Y113693D02*
D03*
X443577D02*
D03*
Y91655D02*
D03*
X428577Y113693D02*
D03*
X433577Y91655D02*
D03*
X428577D02*
D03*
X438577Y113693D02*
D03*
Y91655D02*
D03*
X500677Y146855D02*
D03*
Y168893D02*
D03*
X490677Y146855D02*
D03*
X495677D02*
D03*
X490677Y168893D02*
D03*
X505677Y146855D02*
D03*
Y168893D02*
D03*
X495677D02*
D03*
D102*
X408115Y83115D02*
D03*
X412052Y73273D02*
D03*
X415989Y83115D02*
D03*
D103*
X401615Y102615D02*
D03*
X414942D02*
D03*
D104*
X425815Y131840D02*
D03*
Y158415D02*
D03*
D105*
X400915Y81413D02*
D03*
Y75217D02*
D03*
D106*
X414613Y112415D02*
D03*
X408417D02*
D03*
Y91515D02*
D03*
X414613D02*
D03*
D110*
X207505Y47924D02*
D03*
X217347D02*
D03*
X225221D02*
D03*
X235064D02*
D03*
X435500Y276800D02*
D03*
X340800Y230800D02*
D03*
Y220800D02*
D03*
Y210800D02*
D03*
X484315Y208515D02*
D03*
X158800Y265600D02*
D03*
Y245600D02*
D03*
X371300Y12300D02*
D03*
X315600Y234200D02*
D03*
X190400Y157800D02*
D03*
X520300Y277400D02*
D03*
X519600Y314600D02*
D03*
X480815Y276015D02*
D03*
X480700Y314600D02*
D03*
X436600Y315000D02*
D03*
X110600Y226000D02*
D03*
D111*
X195300Y36900D02*
D03*
X247269D02*
D03*
D112*
X295908Y21600D02*
D03*
Y5262D02*
D03*
X261892Y21600D02*
D03*
Y5262D02*
D03*
D113*
X267522Y19632D02*
D03*
X290278D02*
D03*
D114*
X445500Y276800D02*
D03*
X381300Y12300D02*
D03*
X530300Y277400D02*
D03*
X529600Y314600D02*
D03*
X490815Y276015D02*
D03*
X490700Y314600D02*
D03*
X446600Y315000D02*
D03*
D115*
X318000Y311000D02*
D03*
X304221D02*
D03*
D116*
X340800Y200800D02*
D03*
X484315Y218515D02*
D03*
X315600Y224200D02*
D03*
X190400Y167800D02*
D03*
D117*
X695600Y43000D02*
D03*
X554315Y44515D02*
D03*
X662515Y44415D02*
D03*
X768915Y44315D02*
D03*
X733159D02*
D03*
X809315Y104915D02*
D03*
X772415Y83415D02*
D03*
X809315Y157815D02*
D03*
X772415Y135848D02*
D03*
X809315Y210715D02*
D03*
X772415Y188282D02*
D03*
X625893Y44315D02*
D03*
X482871D02*
D03*
X447115D02*
D03*
X518626D02*
D03*
X809315Y246715D02*
D03*
X772715Y260615D02*
D03*
X590115Y45915D02*
D03*
X575133Y15308D02*
D03*
Y314521D02*
D03*
X59385D02*
D03*
Y15308D02*
D03*
D118*
X118400Y50000D02*
D03*
X138085D02*
D03*
D119*
X286200Y321400D02*
D03*
D120*
X246514D02*
D03*
X262381D02*
D03*
X254507D02*
D03*
X270452D02*
D03*
X278326D02*
D03*
D121*
X194400Y317894D02*
D03*
X204400D02*
D03*
X214400D02*
D03*
X360600Y318094D02*
D03*
X350600D02*
D03*
X340600D02*
D03*
D122*
X224400Y317500D02*
D03*
X370600Y317700D02*
D03*
D123*
X343600Y19700D02*
D03*
X333600D02*
D03*
D124*
X323600D02*
D03*
D180*
X670260Y185365D02*
D03*
D181*
X466037Y104815D02*
D03*
X458793D02*
D03*
X487593Y105015D02*
D03*
X494837D02*
D03*
D182*
X462415Y120815D02*
D03*
X491215Y121015D02*
D03*
D183*
X547915Y168915D02*
D03*
Y131907D02*
D03*
D184*
X590115Y71715D02*
D03*
X572399D02*
D03*
X519815Y73615D02*
D03*
X537532D02*
D03*
X660315Y90215D02*
D03*
X642598D02*
D03*
D185*
X696887Y104077D02*
D03*
Y114077D02*
D03*
X718924D02*
D03*
X696887Y99077D02*
D03*
X718924Y104077D02*
D03*
Y99077D02*
D03*
X696887Y109077D02*
D03*
X718924D02*
D03*
X696887Y140218D02*
D03*
Y150218D02*
D03*
X718924D02*
D03*
X696887Y135218D02*
D03*
X718924Y140218D02*
D03*
Y135218D02*
D03*
X696887Y145218D02*
D03*
X718924D02*
D03*
X697887Y225498D02*
D03*
Y235498D02*
D03*
X719924D02*
D03*
X697887Y220498D02*
D03*
X719924Y225498D02*
D03*
Y220498D02*
D03*
X697887Y230498D02*
D03*
X719924D02*
D03*
X696887Y177358D02*
D03*
Y187358D02*
D03*
X718924D02*
D03*
X696887Y172358D02*
D03*
X718924Y177358D02*
D03*
Y172358D02*
D03*
X696887Y182358D02*
D03*
X718924D02*
D03*
X721893Y269153D02*
D03*
Y259153D02*
D03*
X699855D02*
D03*
X721893Y274153D02*
D03*
X699855Y269153D02*
D03*
Y274153D02*
D03*
X721893Y264153D02*
D03*
X699855D02*
D03*
D186*
X709672Y114451D02*
D03*
Y98703D02*
D03*
Y150592D02*
D03*
Y134844D02*
D03*
X710673Y235872D02*
D03*
Y220124D02*
D03*
X709672Y187732D02*
D03*
Y171984D02*
D03*
X709107Y258779D02*
D03*
Y274527D02*
D03*
D187*
X705637Y111198D02*
D03*
Y147339D02*
D03*
X706637Y232620D02*
D03*
X705637Y184479D02*
D03*
X713143Y262032D02*
D03*
D188*
X705637Y102956D02*
D03*
Y139096D02*
D03*
X706637Y224377D02*
D03*
X705637Y176237D02*
D03*
X713143Y270274D02*
D03*
D189*
X548815Y101315D02*
D03*
X572437D02*
D03*
M02*
