G04 ================== begin FILE IDENTIFICATION RECORD ==================*
G04 Layout Name:  F:/work/ZM/Frogs/Git/Hardware/Hardware/RK3288/RK3288_20200915.brd*
G04 Film Name:    NCDRILL*
G04 File Format:  Gerber RS274X*
G04 File Origin:  Cadence Allegro 16.6-P004*
G04 Origin Date:  Fri Oct 23 10:05:00 2020*
G04 *
G04 Layer:  MANUFACTURING/NCDRILL_FIGURE*
G04 Layer:  MANUFACTURING/NCLEGEND-1-8*
G04 Layer:  BOARD GEOMETRY/OUTLINE*
G04 Layer:  BOARD GEOMETRY/DIMENSION*
G04 Layer:  BOARD GEOMETRY/NCROUTE_PATH*
G04 *
G04 Offset:    (0.000 0.000)*
G04 Mirror:    No*
G04 Mode:      Positive*
G04 Rotation:  0*
G04 FullContactRelief:  No*
G04 UndefLineWidth:     5.000*
G04 ================== end FILE IDENTIFICATION RECORD ====================*
%FSLAX35Y35*MOIN*%
%IR0*IPPOS*OFA0.00000B0.00000*MIA0B0*SFA1.00000B1.00000*%
%AMMACRO19*
1,1,.005,-.017714,-.01575*
20,1,.005,-.017714,-.01575,-.017714,.01575,0.0*
1,1,.005,-.017714,.01575*
20,1,.005,-.017714,.01575,-.017445,.018826,0.0*
1,1,.005,-.017445,.018826*
20,1,.005,-.017445,.018826,-.016646,.021809,0.0*
1,1,.005,-.016646,.021809*
20,1,.005,-.016646,.021809,-.015341,.024607,0.0*
1,1,.005,-.015341,.024607*
20,1,.005,-.015341,.024607,-.01357,.027137,0.0*
1,1,.005,-.01357,.027137*
20,1,.005,-.01357,.027137,-.011387,.02932,0.0*
1,1,.005,-.011387,.02932*
20,1,.005,-.011387,.02932,-.008857,.031091,0.0*
1,1,.005,-.008857,.031091*
20,1,.005,-.008857,.031091,-.006059,.032396,0.0*
1,1,.005,-.006059,.032396*
20,1,.005,-.006059,.032396,-.003076,.033195,0.0*
1,1,.005,-.003076,.033195*
20,1,.005,-.003076,.033195,0.0,.033465,0.0*
1,1,.005,0.0,.033465*
20,1,.005,0.0,.033465,.003076,.033195,0.0*
1,1,.005,.003076,.033195*
20,1,.005,.003076,.033195,.006059,.032396,0.0*
1,1,.005,.006059,.032396*
20,1,.005,.006059,.032396,.008857,.031091,0.0*
1,1,.005,.008857,.031091*
20,1,.005,.008857,.031091,.011387,.02932,0.0*
1,1,.005,.011387,.02932*
20,1,.005,.011387,.02932,.01357,.027137,0.0*
1,1,.005,.01357,.027137*
20,1,.005,.01357,.027137,.015341,.024607,0.0*
1,1,.005,.015341,.024607*
20,1,.005,.015341,.024607,.016646,.021809,0.0*
1,1,.005,.016646,.021809*
20,1,.005,.016646,.021809,.017445,.018826,0.0*
1,1,.005,.017445,.018826*
20,1,.005,.017445,.018826,.017714,.01575,0.0*
1,1,.005,.017714,.01575*
20,1,.005,.017714,.01575,.017714,-.01575,0.0*
1,1,.005,.017714,-.01575*
20,1,.005,.017714,-.01575,.017445,-.018826,0.0*
1,1,.005,.017445,-.018826*
20,1,.005,.017445,-.018826,.016646,-.021809,0.0*
1,1,.005,.016646,-.021809*
20,1,.005,.016646,-.021809,.015341,-.024607,0.0*
1,1,.005,.015341,-.024607*
20,1,.005,.015341,-.024607,.01357,-.027137,0.0*
1,1,.005,.01357,-.027137*
20,1,.005,.01357,-.027137,.011387,-.02932,0.0*
1,1,.005,.011387,-.02932*
20,1,.005,.011387,-.02932,.008857,-.031091,0.0*
1,1,.005,.008857,-.031091*
20,1,.005,.008857,-.031091,.006059,-.032396,0.0*
1,1,.005,.006059,-.032396*
20,1,.005,.006059,-.032396,.003076,-.033195,0.0*
1,1,.005,.003076,-.033195*
20,1,.005,.003076,-.033195,0.0,-.033465,0.0*
1,1,.005,0.0,-.033465*
20,1,.005,0.0,-.033465,-.003076,-.033195,0.0*
1,1,.005,-.003076,-.033195*
20,1,.005,-.003076,-.033195,-.006059,-.032396,0.0*
1,1,.005,-.006059,-.032396*
20,1,.005,-.006059,-.032396,-.008857,-.031091,0.0*
1,1,.005,-.008857,-.031091*
20,1,.005,-.008857,-.031091,-.011387,-.02932,0.0*
1,1,.005,-.011387,-.02932*
20,1,.005,-.011387,-.02932,-.01357,-.027137,0.0*
1,1,.005,-.01357,-.027137*
20,1,.005,-.01357,-.027137,-.015341,-.024607,0.0*
1,1,.005,-.015341,-.024607*
20,1,.005,-.015341,-.024607,-.016646,-.021809,0.0*
1,1,.005,-.016646,-.021809*
20,1,.005,-.016646,-.021809,-.017445,-.018826,0.0*
1,1,.005,-.017445,-.018826*
20,1,.005,-.017445,-.018826,-.017714,-.01575,0.0*
1,1,.005,-.017714,-.01575*
1,1,.005,-.008857,-.008857*
20,1,.005,-.008857,-.008857,-.011219,-.008562,0.0*
1,1,.005,-.011219,-.008562*
20,1,.005,-.011219,-.008562,-.013285,-.007381,0.0*
1,1,.005,-.013285,-.007381*
20,1,.005,-.013285,-.007381,-.015057,-.00561,0.0*
1,1,.005,-.015057,-.00561*
20,1,.005,-.015057,-.00561,-.016238,-.003543,0.0*
1,1,.005,-.016238,-.003543*
20,1,.005,-.016238,-.003543,-.016828,-.001181,0.0*
1,1,.005,-.016828,-.001181*
20,1,.005,-.016828,-.001181,-.016828,.001181,0.0*
1,1,.005,-.016828,.001181*
20,1,.005,-.016828,.001181,-.016238,.003543,0.0*
1,1,.005,-.016238,.003543*
20,1,.005,-.016238,.003543,-.015057,.00561,0.0*
1,1,.005,-.015057,.00561*
20,1,.005,-.015057,.00561,-.013285,.007381,0.0*
1,1,.005,-.013285,.007381*
20,1,.005,-.013285,.007381,-.011219,.008562,0.0*
1,1,.005,-.011219,.008562*
20,1,.005,-.011219,.008562,-.008857,.008857,0.0*
1,1,.005,-.008857,.008857*
20,1,.005,-.008857,.008857,-.006495,.008562,0.0*
1,1,.005,-.006495,.008562*
20,1,.005,-.006495,.008562,-.004429,.007381,0.0*
1,1,.005,-.004429,.007381*
20,1,.005,-.004429,.007381,-.002657,.00561,0.0*
1,1,.005,-.002657,.00561*
20,1,.005,-.002657,.00561,-.001476,.003543,0.0*
1,1,.005,-.001476,.003543*
20,1,.005,-.001476,.003543,-.000886,.001181,0.0*
1,1,.005,-.000886,.001181*
20,1,.005,-.000886,.001181,-.000886,-.001181,0.0*
1,1,.005,-.000886,-.001181*
20,1,.005,-.000886,-.001181,-.001476,-.003543,0.0*
1,1,.005,-.001476,-.003543*
20,1,.005,-.001476,-.003543,-.002657,-.00561,0.0*
1,1,.005,-.002657,-.00561*
20,1,.005,-.002657,-.00561,-.004429,-.007381,0.0*
1,1,.005,-.004429,-.007381*
20,1,.005,-.004429,-.007381,-.006495,-.008562,0.0*
1,1,.005,-.006495,-.008562*
20,1,.005,-.006495,-.008562,-.008857,-.008857,0.0*
1,1,.005,-.008857,-.008857*
1,1,.005,.001477,-.008857*
20,1,.005,.001477,-.008857,.008858,.008857,0.0*
1,1,.005,.008858,.008857*
20,1,.005,.008858,.008857,.016239,-.008857,0.0*
1,1,.005,.016239,-.008857*
1,1,.005,.013582,-.002657*
20,1,.005,.013582,-.002657,.004134,-.002657,0.0*
1,1,.005,.004134,-.002657*
%
%ADD19MACRO19*%
%AMMACRO18*
1,1,.005,-.019685,-.01378*
20,1,.005,-.019685,-.01378,-.019685,.01378,0.0*
1,1,.005,-.019685,.01378*
20,1,.005,-.019685,.01378,-.019386,.017198,0.0*
1,1,.005,-.019386,.017198*
20,1,.005,-.019386,.017198,-.018498,.020513,0.0*
1,1,.005,-.018498,.020513*
20,1,.005,-.018498,.020513,-.017048,.023622,0.0*
1,1,.005,-.017048,.023622*
20,1,.005,-.017048,.023622,-.01508,.026433,0.0*
1,1,.005,-.01508,.026433*
20,1,.005,-.01508,.026433,-.012653,.02886,0.0*
1,1,.005,-.012653,.02886*
20,1,.005,-.012653,.02886,-.009843,.030828,0.0*
1,1,.005,-.009843,.030828*
20,1,.005,-.009843,.030828,-.006733,.032278,0.0*
1,1,.005,-.006733,.032278*
20,1,.005,-.006733,.032278,-.003418,.033166,0.0*
1,1,.005,-.003418,.033166*
20,1,.005,-.003418,.033166,0.0,.033465,0.0*
1,1,.005,0.0,.033465*
20,1,.005,0.0,.033465,.003418,.033166,0.0*
1,1,.005,.003418,.033166*
20,1,.005,.003418,.033166,.006733,.032278,0.0*
1,1,.005,.006733,.032278*
20,1,.005,.006733,.032278,.009842,.030828,0.0*
1,1,.005,.009842,.030828*
20,1,.005,.009842,.030828,.012653,.02886,0.0*
1,1,.005,.012653,.02886*
20,1,.005,.012653,.02886,.01508,.026433,0.0*
1,1,.005,.01508,.026433*
20,1,.005,.01508,.026433,.017048,.023623,0.0*
1,1,.005,.017048,.023623*
20,1,.005,.017048,.023623,.018498,.020513,0.0*
1,1,.005,.018498,.020513*
20,1,.005,.018498,.020513,.019386,.017198,0.0*
1,1,.005,.019386,.017198*
20,1,.005,.019386,.017198,.019685,.01378,0.0*
1,1,.005,.019685,.01378*
20,1,.005,.019685,.01378,.019685,-.01378,0.0*
1,1,.005,.019685,-.01378*
20,1,.005,.019685,-.01378,.019386,-.017198,0.0*
1,1,.005,.019386,-.017198*
20,1,.005,.019386,-.017198,.018498,-.020513,0.0*
1,1,.005,.018498,-.020513*
20,1,.005,.018498,-.020513,.017048,-.023622,0.0*
1,1,.005,.017048,-.023622*
20,1,.005,.017048,-.023622,.01508,-.026433,0.0*
1,1,.005,.01508,-.026433*
20,1,.005,.01508,-.026433,.012653,-.02886,0.0*
1,1,.005,.012653,-.02886*
20,1,.005,.012653,-.02886,.009843,-.030828,0.0*
1,1,.005,.009843,-.030828*
20,1,.005,.009843,-.030828,.006733,-.032278,0.0*
1,1,.005,.006733,-.032278*
20,1,.005,.006733,-.032278,.003418,-.033166,0.0*
1,1,.005,.003418,-.033166*
20,1,.005,.003418,-.033166,0.0,-.033465,0.0*
1,1,.005,0.0,-.033465*
20,1,.005,0.0,-.033465,-.003418,-.033166,0.0*
1,1,.005,-.003418,-.033166*
20,1,.005,-.003418,-.033166,-.006733,-.032278,0.0*
1,1,.005,-.006733,-.032278*
20,1,.005,-.006733,-.032278,-.009842,-.030828,0.0*
1,1,.005,-.009842,-.030828*
20,1,.005,-.009842,-.030828,-.012653,-.02886,0.0*
1,1,.005,-.012653,-.02886*
20,1,.005,-.012653,-.02886,-.01508,-.026433,0.0*
1,1,.005,-.01508,-.026433*
20,1,.005,-.01508,-.026433,-.017048,-.023623,0.0*
1,1,.005,-.017048,-.023623*
20,1,.005,-.017048,-.023623,-.018498,-.020513,0.0*
1,1,.005,-.018498,-.020513*
20,1,.005,-.018498,-.020513,-.019386,-.017198,0.0*
1,1,.005,-.019386,-.017198*
20,1,.005,-.019386,-.017198,-.019685,-.01378,0.0*
1,1,.005,-.019685,-.01378*
1,1,.005,-.009843,-.009842*
20,1,.005,-.009843,-.009842,-.012468,-.009514,0.0*
1,1,.005,-.012468,-.009514*
20,1,.005,-.012468,-.009514,-.014764,-.008202,0.0*
1,1,.005,-.014764,-.008202*
20,1,.005,-.014764,-.008202,-.016732,-.006233,0.0*
1,1,.005,-.016732,-.006233*
20,1,.005,-.016732,-.006233,-.018045,-.003937,0.0*
1,1,.005,-.018045,-.003937*
20,1,.005,-.018045,-.003937,-.018701,-.001312,0.0*
1,1,.005,-.018701,-.001312*
20,1,.005,-.018701,-.001312,-.018701,.001313,0.0*
1,1,.005,-.018701,.001313*
20,1,.005,-.018701,.001313,-.018045,.003938,0.0*
1,1,.005,-.018045,.003938*
20,1,.005,-.018045,.003938,-.016732,.006234,0.0*
1,1,.005,-.016732,.006234*
20,1,.005,-.016732,.006234,-.014764,.008202,0.0*
1,1,.005,-.014764,.008202*
20,1,.005,-.014764,.008202,-.012468,.009515,0.0*
1,1,.005,-.012468,.009515*
20,1,.005,-.012468,.009515,-.009843,.009843,0.0*
1,1,.005,-.009843,.009843*
20,1,.005,-.009843,.009843,-.007218,.009515,0.0*
1,1,.005,-.007218,.009515*
20,1,.005,-.007218,.009515,-.004921,.008202,0.0*
1,1,.005,-.004921,.008202*
20,1,.005,-.004921,.008202,-.002953,.006234,0.0*
1,1,.005,-.002953,.006234*
20,1,.005,-.002953,.006234,-.00164,.003938,0.0*
1,1,.005,-.00164,.003938*
20,1,.005,-.00164,.003938,-.000984,.001313,0.0*
1,1,.005,-.000984,.001313*
20,1,.005,-.000984,.001313,-.000984,-.001312,0.0*
1,1,.005,-.000984,-.001312*
20,1,.005,-.000984,-.001312,-.00164,-.003937,0.0*
1,1,.005,-.00164,-.003937*
20,1,.005,-.00164,-.003937,-.002953,-.006233,0.0*
1,1,.005,-.002953,-.006233*
20,1,.005,-.002953,-.006233,-.004921,-.008202,0.0*
1,1,.005,-.004921,-.008202*
20,1,.005,-.004921,-.008202,-.007218,-.009514,0.0*
1,1,.005,-.007218,-.009514*
20,1,.005,-.007218,-.009514,-.009843,-.009842,0.0*
1,1,.005,-.009843,-.009842*
1,1,.005,.017061,.008202*
20,1,.005,.017061,.008202,.015093,.009187,0.0*
1,1,.005,.015093,.009187*
20,1,.005,.015093,.009187,.012797,.009843,0.0*
1,1,.005,.012797,.009843*
20,1,.005,.012797,.009843,.010172,.009843,0.0*
1,1,.005,.010172,.009843*
20,1,.005,.010172,.009843,.007218,.008858,0.0*
1,1,.005,.007218,.008858*
20,1,.005,.007218,.008858,.004922,.007218,0.0*
1,1,.005,.004922,.007218*
20,1,.005,.004922,.007218,.003282,.00525,0.0*
1,1,.005,.003282,.00525*
20,1,.005,.003282,.00525,.001969,.001969,0.0*
1,1,.005,.001969,.001969*
20,1,.005,.001969,.001969,.001641,-.000984,0.0*
1,1,.005,.001641,-.000984*
20,1,.005,.001641,-.000984,.002298,-.003937,0.0*
1,1,.005,.002298,-.003937*
20,1,.005,.002298,-.003937,.003282,-.005905,0.0*
1,1,.005,.003282,-.005905*
20,1,.005,.003282,-.005905,.00525,-.007874,0.0*
1,1,.005,.00525,-.007874*
20,1,.005,.00525,-.007874,.007547,-.009186,0.0*
1,1,.005,.007547,-.009186*
20,1,.005,.007547,-.009186,.009843,-.009842,0.0*
1,1,.005,.009843,-.009842*
20,1,.005,.009843,-.009842,.01214,-.009842,0.0*
1,1,.005,.01214,-.009842*
20,1,.005,.01214,-.009842,.014437,-.009186,0.0*
1,1,.005,.014437,-.009186*
20,1,.005,.014437,-.009186,.016405,-.008202,0.0*
1,1,.005,.016405,-.008202*
20,1,.005,.016405,-.008202,.018046,-.00689,0.0*
1,1,.005,.018046,-.00689*
%
%ADD18MACRO18*%
%AMMACRO12*
1,1,.005,0.0,.009845*
20,1,.005,0.0,.009845,-.008526,.004922,0.0*
1,1,.005,-.008526,.004922*
20,1,.005,-.008526,.004922,-.008526,-.004922,0.0*
1,1,.005,-.008526,-.004922*
20,1,.005,-.008526,-.004922,0.0,-.009845,0.0*
1,1,.005,0.0,-.009845*
20,1,.005,0.0,-.009845,.008526,-.004922,0.0*
1,1,.005,.008526,-.004922*
20,1,.005,.008526,-.004922,.008526,.004922,0.0*
1,1,.005,.008526,.004922*
20,1,.005,.008526,.004922,0.0,.009845,0.0*
1,1,.005,0.0,.009845*
%
%ADD12MACRO12*%
%AMMACRO13*
1,1,.005,.005906,.005906*
20,1,.005,.005906,.005906,.005906,-.005906,0.0*
1,1,.005,.005906,-.005906*
20,1,.005,.005906,-.005906,-.005906,-.005906,0.0*
1,1,.005,-.005906,-.005906*
20,1,.005,-.005906,-.005906,-.005906,.005906,0.0*
1,1,.005,-.005906,.005906*
20,1,.005,-.005906,.005906,.005906,.005906,0.0*
1,1,.005,.005906,.005906*
%
%ADD13MACRO13*%
%AMMACRO14*
1,1,.005,.017717,0.0*
20,1,.005,.017717,0.0,0.0,-.017717,0.0*
1,1,.005,0.0,-.017717*
20,1,.005,0.0,-.017717,-.017717,0.0,0.0*
1,1,.005,-.017717,0.0*
20,1,.005,-.017717,0.0,0.0,.017717,0.0*
1,1,.005,0.0,.017717*
20,1,.005,0.0,.017717,.017717,0.0,0.0*
1,1,.005,.017717,0.0*
%
%ADD14MACRO14*%
%AMMACRO21*
1,1,.005,.066929,.050197*
20,1,.005,.066929,.050197,.066929,-.050197,0.0*
1,1,.005,.066929,-.050197*
20,1,.005,.066929,-.050197,-.066929,-.050197,0.0*
1,1,.005,-.066929,-.050197*
20,1,.005,-.066929,-.050197,-.066929,.050197,0.0*
1,1,.005,-.066929,.050197*
20,1,.005,-.066929,.050197,.066929,.050197,0.0*
1,1,.005,.066929,.050197*
%
%ADD21MACRO21*%
%AMMACRO15*
1,1,.005,-.015748,-.045276*
20,1,.005,-.015748,-.045276,-.015748,.045276,0.0*
1,1,.005,-.015748,.045276*
20,1,.005,-.015748,.045276,-.015509,.048011,0.0*
1,1,.005,-.015509,.048011*
20,1,.005,-.015509,.048011,-.014798,.050662,0.0*
1,1,.005,-.014798,.050662*
20,1,.005,-.014798,.050662,-.013638,.05315,0.0*
1,1,.005,-.013638,.05315*
20,1,.005,-.013638,.05315,-.012064,.055399,0.0*
1,1,.005,-.012064,.055399*
20,1,.005,-.012064,.055399,-.010123,.05734,0.0*
1,1,.005,-.010123,.05734*
20,1,.005,-.010123,.05734,-.007874,.058914,0.0*
1,1,.005,-.007874,.058914*
20,1,.005,-.007874,.058914,-.005386,.060074,0.0*
1,1,.005,-.005386,.060074*
20,1,.005,-.005386,.060074,-.002735,.060785,0.0*
1,1,.005,-.002735,.060785*
20,1,.005,-.002735,.060785,0.0,.061024,0.0*
1,1,.005,0.0,.061024*
20,1,.005,0.0,.061024,.002735,.060785,0.0*
1,1,.005,.002735,.060785*
20,1,.005,.002735,.060785,.005386,.060074,0.0*
1,1,.005,.005386,.060074*
20,1,.005,.005386,.060074,.007874,.058914,0.0*
1,1,.005,.007874,.058914*
20,1,.005,.007874,.058914,.010123,.05734,0.0*
1,1,.005,.010123,.05734*
20,1,.005,.010123,.05734,.012064,.055399,0.0*
1,1,.005,.012064,.055399*
20,1,.005,.012064,.055399,.013638,.05315,0.0*
1,1,.005,.013638,.05315*
20,1,.005,.013638,.05315,.014798,.050662,0.0*
1,1,.005,.014798,.050662*
20,1,.005,.014798,.050662,.015509,.048011,0.0*
1,1,.005,.015509,.048011*
20,1,.005,.015509,.048011,.015748,.045276,0.0*
1,1,.005,.015748,.045276*
20,1,.005,.015748,.045276,.015748,-.045276,0.0*
1,1,.005,.015748,-.045276*
20,1,.005,.015748,-.045276,.015509,-.048011,0.0*
1,1,.005,.015509,-.048011*
20,1,.005,.015509,-.048011,.014798,-.050662,0.0*
1,1,.005,.014798,-.050662*
20,1,.005,.014798,-.050662,.013638,-.05315,0.0*
1,1,.005,.013638,-.05315*
20,1,.005,.013638,-.05315,.012064,-.055399,0.0*
1,1,.005,.012064,-.055399*
20,1,.005,.012064,-.055399,.010123,-.05734,0.0*
1,1,.005,.010123,-.05734*
20,1,.005,.010123,-.05734,.007874,-.058914,0.0*
1,1,.005,.007874,-.058914*
20,1,.005,.007874,-.058914,.005386,-.060074,0.0*
1,1,.005,.005386,-.060074*
20,1,.005,.005386,-.060074,.002735,-.060785,0.0*
1,1,.005,.002735,-.060785*
20,1,.005,.002735,-.060785,0.0,-.061024,0.0*
1,1,.005,0.0,-.061024*
20,1,.005,0.0,-.061024,-.002735,-.060785,0.0*
1,1,.005,-.002735,-.060785*
20,1,.005,-.002735,-.060785,-.005386,-.060074,0.0*
1,1,.005,-.005386,-.060074*
20,1,.005,-.005386,-.060074,-.007874,-.058914,0.0*
1,1,.005,-.007874,-.058914*
20,1,.005,-.007874,-.058914,-.010123,-.05734,0.0*
1,1,.005,-.010123,-.05734*
20,1,.005,-.010123,-.05734,-.012064,-.055399,0.0*
1,1,.005,-.012064,-.055399*
20,1,.005,-.012064,-.055399,-.013638,-.05315,0.0*
1,1,.005,-.013638,-.05315*
20,1,.005,-.013638,-.05315,-.014798,-.050662,0.0*
1,1,.005,-.014798,-.050662*
20,1,.005,-.014798,-.050662,-.015509,-.048011,0.0*
1,1,.005,-.015509,-.048011*
20,1,.005,-.015509,-.048011,-.015748,-.045276,0.0*
1,1,.005,-.015748,-.045276*
1,1,.005,-.007874,-.007874*
20,1,.005,-.007874,-.007874,-.009974,-.007612,0.0*
1,1,.005,-.009974,-.007612*
20,1,.005,-.009974,-.007612,-.011811,-.006562,0.0*
1,1,.005,-.011811,-.006562*
20,1,.005,-.011811,-.006562,-.013386,-.004987,0.0*
1,1,.005,-.013386,-.004987*
20,1,.005,-.013386,-.004987,-.014436,-.00315,0.0*
1,1,.005,-.014436,-.00315*
20,1,.005,-.014436,-.00315,-.014961,-.00105,0.0*
1,1,.005,-.014961,-.00105*
20,1,.005,-.014961,-.00105,-.014961,.00105,0.0*
1,1,.005,-.014961,.00105*
20,1,.005,-.014961,.00105,-.014436,.00315,0.0*
1,1,.005,-.014436,.00315*
20,1,.005,-.014436,.00315,-.013386,.004987,0.0*
1,1,.005,-.013386,.004987*
20,1,.005,-.013386,.004987,-.011811,.006561,0.0*
1,1,.005,-.011811,.006561*
20,1,.005,-.011811,.006561,-.009974,.007612,0.0*
1,1,.005,-.009974,.007612*
20,1,.005,-.009974,.007612,-.007874,.007874,0.0*
1,1,.005,-.007874,.007874*
20,1,.005,-.007874,.007874,-.005774,.007612,0.0*
1,1,.005,-.005774,.007612*
20,1,.005,-.005774,.007612,-.003937,.006561,0.0*
1,1,.005,-.003937,.006561*
20,1,.005,-.003937,.006561,-.002362,.004987,0.0*
1,1,.005,-.002362,.004987*
20,1,.005,-.002362,.004987,-.001312,.00315,0.0*
1,1,.005,-.001312,.00315*
20,1,.005,-.001312,.00315,-.000787,.00105,0.0*
1,1,.005,-.000787,.00105*
20,1,.005,-.000787,.00105,-.000787,-.00105,0.0*
1,1,.005,-.000787,-.00105*
20,1,.005,-.000787,-.00105,-.001312,-.00315,0.0*
1,1,.005,-.001312,-.00315*
20,1,.005,-.001312,-.00315,-.002362,-.004987,0.0*
1,1,.005,-.002362,-.004987*
20,1,.005,-.002362,-.004987,-.003937,-.006562,0.0*
1,1,.005,-.003937,-.006562*
20,1,.005,-.003937,-.006562,-.005774,-.007612,0.0*
1,1,.005,-.005774,-.007612*
20,1,.005,-.005774,-.007612,-.007874,-.007874,0.0*
1,1,.005,-.007874,-.007874*
1,1,.005,.002101,-.007874*
20,1,.005,.002101,-.007874,.002101,.007874,0.0*
1,1,.005,.002101,.007874*
20,1,.005,.002101,.007874,.00735,.007874,0.0*
1,1,.005,.00735,.007874*
20,1,.005,.00735,.007874,.00945,.007086,0.0*
1,1,.005,.00945,.007086*
20,1,.005,.00945,.007086,.011025,.006037,0.0*
1,1,.005,.011025,.006037*
20,1,.005,.011025,.006037,.012337,.004462,0.0*
1,1,.005,.012337,.004462*
20,1,.005,.012337,.004462,.013387,.002624,0.0*
1,1,.005,.013387,.002624*
20,1,.005,.013387,.002624,.013649,0.0,0.0*
1,1,.005,.013649,0.0*
20,1,.005,.013649,0.0,.013387,-.002625,0.0*
1,1,.005,.013387,-.002625*
20,1,.005,.013387,-.002625,.012337,-.004462,0.0*
1,1,.005,.012337,-.004462*
20,1,.005,.012337,-.004462,.011025,-.006037,0.0*
1,1,.005,.011025,-.006037*
20,1,.005,.011025,-.006037,.00945,-.007087,0.0*
1,1,.005,.00945,-.007087*
20,1,.005,.00945,-.007087,.00735,-.007874,0.0*
1,1,.005,.00735,-.007874*
20,1,.005,.00735,-.007874,.002101,-.007874,0.0*
1,1,.005,.002101,-.007874*
%
%ADD15MACRO15*%
%AMMACRO16*
1,1,.005,-.045276,.015748*
20,1,.005,-.045276,.015748,.045276,.015748,0.0*
1,1,.005,.045276,.015748*
20,1,.005,.045276,.015748,.04801,.015509,0.0*
1,1,.005,.04801,.015509*
20,1,.005,.04801,.015509,.050662,.014798,0.0*
1,1,.005,.050662,.014798*
20,1,.005,.050662,.014798,.053149,.013638,0.0*
1,1,.005,.053149,.013638*
20,1,.005,.053149,.013638,.055398,.012064,0.0*
1,1,.005,.055398,.012064*
20,1,.005,.055398,.012064,.057339,.010123,0.0*
1,1,.005,.057339,.010123*
20,1,.005,.057339,.010123,.058914,.007874,0.0*
1,1,.005,.058914,.007874*
20,1,.005,.058914,.007874,.060074,.005386,0.0*
1,1,.005,.060074,.005386*
20,1,.005,.060074,.005386,.060784,.002735,0.0*
1,1,.005,.060784,.002735*
20,1,.005,.060784,.002735,.061024,0.0,0.0*
1,1,.005,.061024,0.0*
20,1,.005,.061024,0.0,.060784,-.002735,0.0*
1,1,.005,.060784,-.002735*
20,1,.005,.060784,-.002735,.060074,-.005386,0.0*
1,1,.005,.060074,-.005386*
20,1,.005,.060074,-.005386,.058914,-.007874,0.0*
1,1,.005,.058914,-.007874*
20,1,.005,.058914,-.007874,.057339,-.010123,0.0*
1,1,.005,.057339,-.010123*
20,1,.005,.057339,-.010123,.055398,-.012064,0.0*
1,1,.005,.055398,-.012064*
20,1,.005,.055398,-.012064,.05315,-.013638,0.0*
1,1,.005,.05315,-.013638*
20,1,.005,.05315,-.013638,.050662,-.014798,0.0*
1,1,.005,.050662,-.014798*
20,1,.005,.050662,-.014798,.04801,-.015509,0.0*
1,1,.005,.04801,-.015509*
20,1,.005,.04801,-.015509,.045276,-.015748,0.0*
1,1,.005,.045276,-.015748*
20,1,.005,.045276,-.015748,-.045276,-.015748,0.0*
1,1,.005,-.045276,-.015748*
20,1,.005,-.045276,-.015748,-.04801,-.015509,0.0*
1,1,.005,-.04801,-.015509*
20,1,.005,-.04801,-.015509,-.050662,-.014798,0.0*
1,1,.005,-.050662,-.014798*
20,1,.005,-.050662,-.014798,-.053149,-.013638,0.0*
1,1,.005,-.053149,-.013638*
20,1,.005,-.053149,-.013638,-.055398,-.012064,0.0*
1,1,.005,-.055398,-.012064*
20,1,.005,-.055398,-.012064,-.057339,-.010123,0.0*
1,1,.005,-.057339,-.010123*
20,1,.005,-.057339,-.010123,-.058914,-.007874,0.0*
1,1,.005,-.058914,-.007874*
20,1,.005,-.058914,-.007874,-.060074,-.005386,0.0*
1,1,.005,-.060074,-.005386*
20,1,.005,-.060074,-.005386,-.060784,-.002735,0.0*
1,1,.005,-.060784,-.002735*
20,1,.005,-.060784,-.002735,-.061024,0.0,0.0*
1,1,.005,-.061024,0.0*
20,1,.005,-.061024,0.0,-.060784,.002735,0.0*
1,1,.005,-.060784,.002735*
20,1,.005,-.060784,.002735,-.060074,.005386,0.0*
1,1,.005,-.060074,.005386*
20,1,.005,-.060074,.005386,-.058914,.007874,0.0*
1,1,.005,-.058914,.007874*
20,1,.005,-.058914,.007874,-.057339,.010123,0.0*
1,1,.005,-.057339,.010123*
20,1,.005,-.057339,.010123,-.055398,.012064,0.0*
1,1,.005,-.055398,.012064*
20,1,.005,-.055398,.012064,-.05315,.013638,0.0*
1,1,.005,-.05315,.013638*
20,1,.005,-.05315,.013638,-.050662,.014798,0.0*
1,1,.005,-.050662,.014798*
20,1,.005,-.050662,.014798,-.04801,.015509,0.0*
1,1,.005,-.04801,.015509*
20,1,.005,-.04801,.015509,-.045276,.015748,0.0*
1,1,.005,-.045276,.015748*
1,1,.005,-.007874,-.007874*
20,1,.005,-.007874,-.007874,-.009974,-.007612,0.0*
1,1,.005,-.009974,-.007612*
20,1,.005,-.009974,-.007612,-.011811,-.006562,0.0*
1,1,.005,-.011811,-.006562*
20,1,.005,-.011811,-.006562,-.013386,-.004987,0.0*
1,1,.005,-.013386,-.004987*
20,1,.005,-.013386,-.004987,-.014436,-.00315,0.0*
1,1,.005,-.014436,-.00315*
20,1,.005,-.014436,-.00315,-.014961,-.00105,0.0*
1,1,.005,-.014961,-.00105*
20,1,.005,-.014961,-.00105,-.014961,.00105,0.0*
1,1,.005,-.014961,.00105*
20,1,.005,-.014961,.00105,-.014436,.00315,0.0*
1,1,.005,-.014436,.00315*
20,1,.005,-.014436,.00315,-.013386,.004987,0.0*
1,1,.005,-.013386,.004987*
20,1,.005,-.013386,.004987,-.011811,.006561,0.0*
1,1,.005,-.011811,.006561*
20,1,.005,-.011811,.006561,-.009974,.007612,0.0*
1,1,.005,-.009974,.007612*
20,1,.005,-.009974,.007612,-.007874,.007874,0.0*
1,1,.005,-.007874,.007874*
20,1,.005,-.007874,.007874,-.005774,.007612,0.0*
1,1,.005,-.005774,.007612*
20,1,.005,-.005774,.007612,-.003937,.006561,0.0*
1,1,.005,-.003937,.006561*
20,1,.005,-.003937,.006561,-.002362,.004987,0.0*
1,1,.005,-.002362,.004987*
20,1,.005,-.002362,.004987,-.001312,.00315,0.0*
1,1,.005,-.001312,.00315*
20,1,.005,-.001312,.00315,-.000787,.00105,0.0*
1,1,.005,-.000787,.00105*
20,1,.005,-.000787,.00105,-.000787,-.00105,0.0*
1,1,.005,-.000787,-.00105*
20,1,.005,-.000787,-.00105,-.001312,-.00315,0.0*
1,1,.005,-.001312,-.00315*
20,1,.005,-.001312,-.00315,-.002362,-.004987,0.0*
1,1,.005,-.002362,-.004987*
20,1,.005,-.002362,-.004987,-.003937,-.006562,0.0*
1,1,.005,-.003937,-.006562*
20,1,.005,-.003937,-.006562,-.005774,-.007612,0.0*
1,1,.005,-.005774,-.007612*
20,1,.005,-.005774,-.007612,-.007874,-.007874,0.0*
1,1,.005,-.007874,-.007874*
1,1,.005,.002101,-.007874*
20,1,.005,.002101,-.007874,.002101,.007874,0.0*
1,1,.005,.002101,.007874*
20,1,.005,.002101,.007874,.00735,.007874,0.0*
1,1,.005,.00735,.007874*
20,1,.005,.00735,.007874,.00945,.007086,0.0*
1,1,.005,.00945,.007086*
20,1,.005,.00945,.007086,.011025,.006037,0.0*
1,1,.005,.011025,.006037*
20,1,.005,.011025,.006037,.012337,.004462,0.0*
1,1,.005,.012337,.004462*
20,1,.005,.012337,.004462,.013387,.002624,0.0*
1,1,.005,.013387,.002624*
20,1,.005,.013387,.002624,.013649,0.0,0.0*
1,1,.005,.013649,0.0*
20,1,.005,.013649,0.0,.013387,-.002625,0.0*
1,1,.005,.013387,-.002625*
20,1,.005,.013387,-.002625,.012337,-.004462,0.0*
1,1,.005,.012337,-.004462*
20,1,.005,.012337,-.004462,.011025,-.006037,0.0*
1,1,.005,.011025,-.006037*
20,1,.005,.011025,-.006037,.00945,-.007087,0.0*
1,1,.005,.00945,-.007087*
20,1,.005,.00945,-.007087,.00735,-.007874,0.0*
1,1,.005,.00735,-.007874*
20,1,.005,.00735,-.007874,.002101,-.007874,0.0*
1,1,.005,.002101,-.007874*
%
%ADD16MACRO16*%
%AMMACRO11*
1,1,.005,.003935,0.0*
20,1,.005,.003935,0.0,-.003935,0.0,0.0*
1,1,.005,-.003935,0.0*
1,1,.005,0.0,.003935*
20,1,.005,0.0,.003935,0.0,-.003935,0.0*
1,1,.005,0.0,-.003935*
%
%ADD11MACRO11*%
%AMMACRO25*
1,1,.005,.006115,-.014764*
20,1,.005,.006115,-.014764,-.006115,-.014764,0.0*
1,1,.005,-.006115,-.014764*
20,1,.005,-.006115,-.014764,-.014764,-.006115,0.0*
1,1,.005,-.014764,-.006115*
20,1,.005,-.014764,-.006115,-.014764,.006115,0.0*
1,1,.005,-.014764,.006115*
20,1,.005,-.014764,.006115,-.006115,.014764,0.0*
1,1,.005,-.006115,.014764*
20,1,.005,-.006115,.014764,.006115,.014764,0.0*
1,1,.005,.006115,.014764*
20,1,.005,.006115,.014764,.014764,.006115,0.0*
1,1,.005,.014764,.006115*
20,1,.005,.014764,.006115,.014764,-.006115,0.0*
1,1,.005,.014764,-.006115*
20,1,.005,.014764,-.006115,.006115,-.014764,0.0*
1,1,.005,.006115,-.014764*
%
%ADD25MACRO25*%
%AMMACRO17*
1,1,.005,-.017714,-.035435*
20,1,.005,-.017714,-.035435,-.017714,.035435,0.0*
1,1,.005,-.017714,.035435*
20,1,.005,-.017714,.035435,-.017445,.038511,0.0*
1,1,.005,-.017445,.038511*
20,1,.005,-.017445,.038511,-.016646,.041494,0.0*
1,1,.005,-.016646,.041494*
20,1,.005,-.016646,.041494,-.015341,.044292,0.0*
1,1,.005,-.015341,.044292*
20,1,.005,-.015341,.044292,-.01357,.046822,0.0*
1,1,.005,-.01357,.046822*
20,1,.005,-.01357,.046822,-.011387,.049005,0.0*
1,1,.005,-.011387,.049005*
20,1,.005,-.011387,.049005,-.008857,.050776,0.0*
1,1,.005,-.008857,.050776*
20,1,.005,-.008857,.050776,-.006059,.052081,0.0*
1,1,.005,-.006059,.052081*
20,1,.005,-.006059,.052081,-.003076,.05288,0.0*
1,1,.005,-.003076,.05288*
20,1,.005,-.003076,.05288,0.0,.05315,0.0*
1,1,.005,0.0,.05315*
20,1,.005,0.0,.05315,.003076,.05288,0.0*
1,1,.005,.003076,.05288*
20,1,.005,.003076,.05288,.006059,.052081,0.0*
1,1,.005,.006059,.052081*
20,1,.005,.006059,.052081,.008857,.050776,0.0*
1,1,.005,.008857,.050776*
20,1,.005,.008857,.050776,.011387,.049005,0.0*
1,1,.005,.011387,.049005*
20,1,.005,.011387,.049005,.01357,.046822,0.0*
1,1,.005,.01357,.046822*
20,1,.005,.01357,.046822,.015341,.044292,0.0*
1,1,.005,.015341,.044292*
20,1,.005,.015341,.044292,.016646,.041494,0.0*
1,1,.005,.016646,.041494*
20,1,.005,.016646,.041494,.017445,.038511,0.0*
1,1,.005,.017445,.038511*
20,1,.005,.017445,.038511,.017714,.035435,0.0*
1,1,.005,.017714,.035435*
20,1,.005,.017714,.035435,.017714,-.035435,0.0*
1,1,.005,.017714,-.035435*
20,1,.005,.017714,-.035435,.017445,-.038511,0.0*
1,1,.005,.017445,-.038511*
20,1,.005,.017445,-.038511,.016646,-.041494,0.0*
1,1,.005,.016646,-.041494*
20,1,.005,.016646,-.041494,.015341,-.044292,0.0*
1,1,.005,.015341,-.044292*
20,1,.005,.015341,-.044292,.01357,-.046822,0.0*
1,1,.005,.01357,-.046822*
20,1,.005,.01357,-.046822,.011387,-.049005,0.0*
1,1,.005,.011387,-.049005*
20,1,.005,.011387,-.049005,.008857,-.050776,0.0*
1,1,.005,.008857,-.050776*
20,1,.005,.008857,-.050776,.006059,-.052081,0.0*
1,1,.005,.006059,-.052081*
20,1,.005,.006059,-.052081,.003076,-.05288,0.0*
1,1,.005,.003076,-.05288*
20,1,.005,.003076,-.05288,0.0,-.05315,0.0*
1,1,.005,0.0,-.05315*
20,1,.005,0.0,-.05315,-.003076,-.05288,0.0*
1,1,.005,-.003076,-.05288*
20,1,.005,-.003076,-.05288,-.006059,-.052081,0.0*
1,1,.005,-.006059,-.052081*
20,1,.005,-.006059,-.052081,-.008857,-.050776,0.0*
1,1,.005,-.008857,-.050776*
20,1,.005,-.008857,-.050776,-.011387,-.049005,0.0*
1,1,.005,-.011387,-.049005*
20,1,.005,-.011387,-.049005,-.01357,-.046822,0.0*
1,1,.005,-.01357,-.046822*
20,1,.005,-.01357,-.046822,-.015341,-.044292,0.0*
1,1,.005,-.015341,-.044292*
20,1,.005,-.015341,-.044292,-.016646,-.041494,0.0*
1,1,.005,-.016646,-.041494*
20,1,.005,-.016646,-.041494,-.017445,-.038511,0.0*
1,1,.005,-.017445,-.038511*
20,1,.005,-.017445,-.038511,-.017714,-.035435,0.0*
1,1,.005,-.017714,-.035435*
1,1,.005,-.008857,-.008857*
20,1,.005,-.008857,-.008857,-.011219,-.008562,0.0*
1,1,.005,-.011219,-.008562*
20,1,.005,-.011219,-.008562,-.013285,-.007381,0.0*
1,1,.005,-.013285,-.007381*
20,1,.005,-.013285,-.007381,-.015057,-.00561,0.0*
1,1,.005,-.015057,-.00561*
20,1,.005,-.015057,-.00561,-.016238,-.003543,0.0*
1,1,.005,-.016238,-.003543*
20,1,.005,-.016238,-.003543,-.016828,-.001181,0.0*
1,1,.005,-.016828,-.001181*
20,1,.005,-.016828,-.001181,-.016828,.001181,0.0*
1,1,.005,-.016828,.001181*
20,1,.005,-.016828,.001181,-.016238,.003543,0.0*
1,1,.005,-.016238,.003543*
20,1,.005,-.016238,.003543,-.015057,.00561,0.0*
1,1,.005,-.015057,.00561*
20,1,.005,-.015057,.00561,-.013285,.007381,0.0*
1,1,.005,-.013285,.007381*
20,1,.005,-.013285,.007381,-.011219,.008562,0.0*
1,1,.005,-.011219,.008562*
20,1,.005,-.011219,.008562,-.008857,.008857,0.0*
1,1,.005,-.008857,.008857*
20,1,.005,-.008857,.008857,-.006495,.008562,0.0*
1,1,.005,-.006495,.008562*
20,1,.005,-.006495,.008562,-.004429,.007381,0.0*
1,1,.005,-.004429,.007381*
20,1,.005,-.004429,.007381,-.002657,.00561,0.0*
1,1,.005,-.002657,.00561*
20,1,.005,-.002657,.00561,-.001476,.003543,0.0*
1,1,.005,-.001476,.003543*
20,1,.005,-.001476,.003543,-.000886,.001181,0.0*
1,1,.005,-.000886,.001181*
20,1,.005,-.000886,.001181,-.000886,-.001181,0.0*
1,1,.005,-.000886,-.001181*
20,1,.005,-.000886,-.001181,-.001476,-.003543,0.0*
1,1,.005,-.001476,-.003543*
20,1,.005,-.001476,-.003543,-.002657,-.00561,0.0*
1,1,.005,-.002657,-.00561*
20,1,.005,-.002657,-.00561,-.004429,-.007381,0.0*
1,1,.005,-.004429,-.007381*
20,1,.005,-.004429,-.007381,-.006495,-.008562,0.0*
1,1,.005,-.006495,-.008562*
20,1,.005,-.006495,-.008562,-.008857,-.008857,0.0*
1,1,.005,-.008857,-.008857*
1,1,.005,.01122,.000591*
20,1,.005,.01122,.000591,.012401,.001476,0.0*
1,1,.005,.012401,.001476*
20,1,.005,.012401,.001476,.013286,.002952,0.0*
1,1,.005,.013286,.002952*
20,1,.005,.013286,.002952,.013877,.005019,0.0*
1,1,.005,.013877,.005019*
20,1,.005,.013877,.005019,.013286,.00679,0.0*
1,1,.005,.013286,.00679*
20,1,.005,.013286,.00679,.012106,.007971,0.0*
1,1,.005,.012106,.007971*
20,1,.005,.012106,.007971,.010039,.008857,0.0*
1,1,.005,.010039,.008857*
20,1,.005,.010039,.008857,.002068,.008857,0.0*
1,1,.005,.002068,.008857*
20,1,.005,.002068,.008857,.002068,-.008857,0.0*
1,1,.005,.002068,-.008857*
20,1,.005,.002068,-.008857,.011811,-.008857,0.0*
1,1,.005,.011811,-.008857*
20,1,.005,.011811,-.008857,.013877,-.007676,0.0*
1,1,.005,.013877,-.007676*
20,1,.005,.013877,-.007676,.015058,-.005905,0.0*
1,1,.005,.015058,-.005905*
20,1,.005,.015058,-.005905,.015648,-.003838,0.0*
1,1,.005,.015648,-.003838*
20,1,.005,.015648,-.003838,.015058,-.001772,0.0*
1,1,.005,.015058,-.001772*
20,1,.005,.015058,-.001772,.013286,0.0,0.0*
1,1,.005,.013286,0.0*
20,1,.005,.013286,0.0,.01122,.000591,0.0*
1,1,.005,.01122,.000591*
20,1,.005,.01122,.000591,.002068,.000591,0.0*
1,1,.005,.002068,.000591*
%
%ADD17MACRO17*%
%AMMACRO10*
1,1,.005,.068898,0.0*
20,1,.005,.068898,0.0,.067851,-.011964,0.0*
1,1,.005,.067851,-.011964*
20,1,.005,.067851,-.011964,.064742,-.023564,0.0*
1,1,.005,.064742,-.023564*
20,1,.005,.064742,-.023564,.059667,-.034449,0.0*
1,1,.005,.059667,-.034449*
20,1,.005,.059667,-.034449,.052779,-.044286,0.0*
1,1,.005,.052779,-.044286*
20,1,.005,.052779,-.044286,.044286,-.052779,0.0*
1,1,.005,.044286,-.052779*
20,1,.005,.044286,-.052779,.034449,-.059667,0.0*
1,1,.005,.034449,-.059667*
20,1,.005,.034449,-.059667,.023564,-.064742,0.0*
1,1,.005,.023564,-.064742*
20,1,.005,.023564,-.064742,.011964,-.067851,0.0*
1,1,.005,.011964,-.067851*
20,1,.005,.011964,-.067851,0.0,-.068898,0.0*
1,1,.005,0.0,-.068898*
20,1,.005,0.0,-.068898,-.011964,-.067851,0.0*
1,1,.005,-.011964,-.067851*
20,1,.005,-.011964,-.067851,-.023564,-.064742,0.0*
1,1,.005,-.023564,-.064742*
20,1,.005,-.023564,-.064742,-.034449,-.059667,0.0*
1,1,.005,-.034449,-.059667*
20,1,.005,-.034449,-.059667,-.044286,-.052779,0.0*
1,1,.005,-.044286,-.052779*
20,1,.005,-.044286,-.052779,-.052779,-.044286,0.0*
1,1,.005,-.052779,-.044286*
20,1,.005,-.052779,-.044286,-.059667,-.034449,0.0*
1,1,.005,-.059667,-.034449*
20,1,.005,-.059667,-.034449,-.064742,-.023564,0.0*
1,1,.005,-.064742,-.023564*
20,1,.005,-.064742,-.023564,-.067851,-.011964,0.0*
1,1,.005,-.067851,-.011964*
20,1,.005,-.067851,-.011964,-.068898,0.0,0.0*
1,1,.005,-.068898,0.0*
20,1,.005,-.068898,0.0,-.067851,.011964,0.0*
1,1,.005,-.067851,.011964*
20,1,.005,-.067851,.011964,-.064742,.023564,0.0*
1,1,.005,-.064742,.023564*
20,1,.005,-.064742,.023564,-.059667,.034449,0.0*
1,1,.005,-.059667,.034449*
20,1,.005,-.059667,.034449,-.052779,.044286,0.0*
1,1,.005,-.052779,.044286*
20,1,.005,-.052779,.044286,-.044286,.052779,0.0*
1,1,.005,-.044286,.052779*
20,1,.005,-.044286,.052779,-.034449,.059667,0.0*
1,1,.005,-.034449,.059667*
20,1,.005,-.034449,.059667,-.023564,.064742,0.0*
1,1,.005,-.023564,.064742*
20,1,.005,-.023564,.064742,-.011964,.067851,0.0*
1,1,.005,-.011964,.067851*
20,1,.005,-.011964,.067851,0.0,.068898,0.0*
1,1,.005,0.0,.068898*
20,1,.005,0.0,.068898,.011964,.067851,0.0*
1,1,.005,.011964,.067851*
20,1,.005,.011964,.067851,.023564,.064742,0.0*
1,1,.005,.023564,.064742*
20,1,.005,.023564,.064742,.034449,.059667,0.0*
1,1,.005,.034449,.059667*
20,1,.005,.034449,.059667,.044286,.052779,0.0*
1,1,.005,.044286,.052779*
20,1,.005,.044286,.052779,.052779,.044286,0.0*
1,1,.005,.052779,.044286*
20,1,.005,.052779,.044286,.059667,.034449,0.0*
1,1,.005,.059667,.034449*
20,1,.005,.059667,.034449,.064742,.023564,0.0*
1,1,.005,.064742,.023564*
20,1,.005,.064742,.023564,.067851,.011964,0.0*
1,1,.005,.067851,.011964*
20,1,.005,.067851,.011964,.068898,0.0,0.0*
1,1,.005,.068898,0.0*
%
%ADD10MACRO10*%
%AMMACRO20*
1,1,.005,-.014762,-.017714*
20,1,.005,-.014762,-.017714,0.0,.017715,0.0*
1,1,.005,0.0,.017715*
20,1,.005,0.0,.017715,.014763,-.017714,0.0*
1,1,.005,.014763,-.017714*
1,1,.005,.009448,-.005314*
20,1,.005,.009448,-.005314,-.009448,-.005314,0.0*
1,1,.005,-.009448,-.005314*
%
%ADD20MACRO20*%
%AMMACRO23*
1,1,.005,-.005413,.01624*
20,1,.005,-.005413,.01624,.005413,.01624,0.0*
1,1,.005,.005413,.01624*
20,1,.005,.005413,.01624,.008234,.015993,0.0*
1,1,.005,.008234,.015993*
20,1,.005,.008234,.015993,.010968,.015261,0.0*
1,1,.005,.010968,.015261*
20,1,.005,.010968,.015261,.013533,.014064,0.0*
1,1,.005,.013533,.014064*
20,1,.005,.013533,.014064,.015852,.012441,0.0*
1,1,.005,.015852,.012441*
20,1,.005,.015852,.012441,.017854,.010439,0.0*
1,1,.005,.017854,.010439*
20,1,.005,.017854,.010439,.019478,.00812,0.0*
1,1,.005,.019478,.00812*
20,1,.005,.019478,.00812,.020674,.005554,0.0*
1,1,.005,.020674,.005554*
20,1,.005,.020674,.005554,.021407,.00282,0.0*
1,1,.005,.021407,.00282*
20,1,.005,.021407,.00282,.021653,0.0,0.0*
1,1,.005,.021653,0.0*
20,1,.005,.021653,0.0,.021407,-.00282,0.0*
1,1,.005,.021407,-.00282*
20,1,.005,.021407,-.00282,.020674,-.005554,0.0*
1,1,.005,.020674,-.005554*
20,1,.005,.020674,-.005554,.019478,-.00812,0.0*
1,1,.005,.019478,-.00812*
20,1,.005,.019478,-.00812,.017854,-.010439,0.0*
1,1,.005,.017854,-.010439*
20,1,.005,.017854,-.010439,.015852,-.012441,0.0*
1,1,.005,.015852,-.012441*
20,1,.005,.015852,-.012441,.013534,-.014064,0.0*
1,1,.005,.013534,-.014064*
20,1,.005,.013534,-.014064,.010968,-.015261,0.0*
1,1,.005,.010968,-.015261*
20,1,.005,.010968,-.015261,.008234,-.015993,0.0*
1,1,.005,.008234,-.015993*
20,1,.005,.008234,-.015993,.005413,-.01624,0.0*
1,1,.005,.005413,-.01624*
20,1,.005,.005413,-.01624,-.005413,-.01624,0.0*
1,1,.005,-.005413,-.01624*
20,1,.005,-.005413,-.01624,-.008234,-.015993,0.0*
1,1,.005,-.008234,-.015993*
20,1,.005,-.008234,-.015993,-.010968,-.015261,0.0*
1,1,.005,-.010968,-.015261*
20,1,.005,-.010968,-.015261,-.013533,-.014064,0.0*
1,1,.005,-.013533,-.014064*
20,1,.005,-.013533,-.014064,-.015852,-.012441,0.0*
1,1,.005,-.015852,-.012441*
20,1,.005,-.015852,-.012441,-.017854,-.010439,0.0*
1,1,.005,-.017854,-.010439*
20,1,.005,-.017854,-.010439,-.019478,-.00812,0.0*
1,1,.005,-.019478,-.00812*
20,1,.005,-.019478,-.00812,-.020674,-.005554,0.0*
1,1,.005,-.020674,-.005554*
20,1,.005,-.020674,-.005554,-.021407,-.00282,0.0*
1,1,.005,-.021407,-.00282*
20,1,.005,-.021407,-.00282,-.021653,0.0,0.0*
1,1,.005,-.021653,0.0*
20,1,.005,-.021653,0.0,-.021407,.00282,0.0*
1,1,.005,-.021407,.00282*
20,1,.005,-.021407,.00282,-.020674,.005554,0.0*
1,1,.005,-.020674,.005554*
20,1,.005,-.020674,.005554,-.019478,.00812,0.0*
1,1,.005,-.019478,.00812*
20,1,.005,-.019478,.00812,-.017854,.010439,0.0*
1,1,.005,-.017854,.010439*
20,1,.005,-.017854,.010439,-.015852,.012441,0.0*
1,1,.005,-.015852,.012441*
20,1,.005,-.015852,.012441,-.013534,.014064,0.0*
1,1,.005,-.013534,.014064*
20,1,.005,-.013534,.014064,-.010968,.015261,0.0*
1,1,.005,-.010968,.015261*
20,1,.005,-.010968,.015261,-.008234,.015993,0.0*
1,1,.005,-.008234,.015993*
20,1,.005,-.008234,.015993,-.005413,.01624,0.0*
1,1,.005,-.005413,.01624*
%
%ADD23MACRO23*%
%AMMACRO24*
1,1,.005,0.0,.017717*
20,1,.005,0.0,.017717,.017717,-.017717,0.0*
1,1,.005,.017717,-.017717*
20,1,.005,.017717,-.017717,-.017717,-.017717,0.0*
1,1,.005,-.017717,-.017717*
20,1,.005,-.017717,-.017717,0.0,.017717,0.0*
1,1,.005,0.0,.017717*
%
%ADD24MACRO24*%
%AMMACRO26*
1,1,.005,.007874,0.0*
20,1,.005,.007874,0.0,.003937,.006819,0.0*
1,1,.005,.003937,.006819*
20,1,.005,.003937,.006819,-.003937,.006819,0.0*
1,1,.005,-.003937,.006819*
20,1,.005,-.003937,.006819,-.007874,0.0,0.0*
1,1,.005,-.007874,0.0*
20,1,.005,-.007874,0.0,-.003937,-.006819,0.0*
1,1,.005,-.003937,-.006819*
20,1,.005,-.003937,-.006819,.003937,-.006819,0.0*
1,1,.005,.003937,-.006819*
20,1,.005,.003937,-.006819,.007874,0.0,0.0*
1,1,.005,.007874,0.0*
%
%ADD26MACRO26*%
%AMMACRO22*
1,1,.005,-.025099,.008366*
20,1,.005,-.025099,.008366,-.024717,.012724,0.0*
1,1,.005,-.024717,.012724*
20,1,.005,-.024717,.012724,-.023585,.01695,0.0*
1,1,.005,-.023585,.01695*
20,1,.005,-.023585,.01695,-.021736,.020915,0.0*
1,1,.005,-.021736,.020915*
20,1,.005,-.021736,.020915,-.019227,.024499,0.0*
1,1,.005,-.019227,.024499*
20,1,.005,-.019227,.024499,-.016133,.027593,0.0*
1,1,.005,-.016133,.027593*
20,1,.005,-.016133,.027593,-.012549,.030102,0.0*
1,1,.005,-.012549,.030102*
20,1,.005,-.012549,.030102,-.008584,.031951,0.0*
1,1,.005,-.008584,.031951*
20,1,.005,-.008584,.031951,-.004358,.033083,0.0*
1,1,.005,-.004358,.033083*
20,1,.005,-.004358,.033083,0.0,.033465,0.0*
1,1,.005,0.0,.033465*
20,1,.005,0.0,.033465,.004358,.033083,0.0*
1,1,.005,.004358,.033083*
20,1,.005,.004358,.033083,.008584,.031951,0.0*
1,1,.005,.008584,.031951*
20,1,.005,.008584,.031951,.012549,.030102,0.0*
1,1,.005,.012549,.030102*
20,1,.005,.012549,.030102,.016133,.027593,0.0*
1,1,.005,.016133,.027593*
20,1,.005,.016133,.027593,.019227,.024499,0.0*
1,1,.005,.019227,.024499*
20,1,.005,.019227,.024499,.021736,.020915,0.0*
1,1,.005,.021736,.020915*
20,1,.005,.021736,.020915,.023585,.01695,0.0*
1,1,.005,.023585,.01695*
20,1,.005,.023585,.01695,.024717,.012724,0.0*
1,1,.005,.024717,.012724*
20,1,.005,.024717,.012724,.025099,.008366,0.0*
1,1,.005,.025099,.008366*
20,1,.005,.025099,.008366,.025099,-.008366,0.0*
1,1,.005,.025099,-.008366*
20,1,.005,.025099,-.008366,.024717,-.012724,0.0*
1,1,.005,.024717,-.012724*
20,1,.005,.024717,-.012724,.023585,-.01695,0.0*
1,1,.005,.023585,-.01695*
20,1,.005,.023585,-.01695,.021736,-.020915,0.0*
1,1,.005,.021736,-.020915*
20,1,.005,.021736,-.020915,.019227,-.024499,0.0*
1,1,.005,.019227,-.024499*
20,1,.005,.019227,-.024499,.016133,-.027593,0.0*
1,1,.005,.016133,-.027593*
20,1,.005,.016133,-.027593,.012549,-.030102,0.0*
1,1,.005,.012549,-.030102*
20,1,.005,.012549,-.030102,.008584,-.031951,0.0*
1,1,.005,.008584,-.031951*
20,1,.005,.008584,-.031951,.004358,-.033083,0.0*
1,1,.005,.004358,-.033083*
20,1,.005,.004358,-.033083,0.0,-.033465,0.0*
1,1,.005,0.0,-.033465*
20,1,.005,0.0,-.033465,-.004358,-.033083,0.0*
1,1,.005,-.004358,-.033083*
20,1,.005,-.004358,-.033083,-.008584,-.031951,0.0*
1,1,.005,-.008584,-.031951*
20,1,.005,-.008584,-.031951,-.012549,-.030102,0.0*
1,1,.005,-.012549,-.030102*
20,1,.005,-.012549,-.030102,-.016133,-.027593,0.0*
1,1,.005,-.016133,-.027593*
20,1,.005,-.016133,-.027593,-.019227,-.024499,0.0*
1,1,.005,-.019227,-.024499*
20,1,.005,-.019227,-.024499,-.021736,-.020915,0.0*
1,1,.005,-.021736,-.020915*
20,1,.005,-.021736,-.020915,-.023585,-.01695,0.0*
1,1,.005,-.023585,-.01695*
20,1,.005,-.023585,-.01695,-.024717,-.012724,0.0*
1,1,.005,-.024717,-.012724*
20,1,.005,-.024717,-.012724,-.025099,-.008366,0.0*
1,1,.005,-.025099,-.008366*
20,1,.005,-.025099,-.008366,-.025099,.008366,0.0*
1,1,.005,-.025099,.008366*
%
%ADD22MACRO22*%
%ADD27C,.005*%
G75*
%LPD*%
G75*
G54D10*
X11811Y-322835D03*
Y-11811D03*
X31218Y205579D03*
X381890Y-322835D03*
Y-11811D03*
G54D20*
X31218Y177479D03*
X95684Y-15798D03*
X127180Y-15737D03*
G54D11*
X22904Y-324615D03*
Y-330615D03*
X4905Y-300615D03*
Y-306615D03*
X22904Y-312615D03*
X16904D03*
X4905D03*
X22904Y-318615D03*
X16904Y-282615D03*
Y-288615D03*
Y-294615D03*
X22857Y-292703D03*
X18302Y-290646D03*
X22904Y-258615D03*
Y-264615D03*
X16904D03*
Y-276615D03*
X22857Y-267271D03*
X16752Y-259107D03*
X11058Y-261075D03*
X12212Y-263039D03*
X13618Y-257138D03*
X22904Y-240615D03*
Y-246615D03*
Y-252615D03*
X24334Y-238615D03*
X21414Y-233742D03*
X18384Y-235485D03*
X18223Y-237453D03*
X18243Y-239432D03*
X18222Y-241308D03*
X11644Y-243359D03*
X11774Y-245327D03*
X13822Y-247313D03*
X13687Y-249276D03*
X13839Y-251247D03*
X13860Y-253206D03*
X15918Y-255170D03*
X16904Y-228615D03*
X21333Y-229683D03*
X17866Y-224582D03*
X17630Y-221877D03*
X16265Y-223613D03*
X15052Y-225669D03*
X21363Y-231577D03*
X14892Y-227578D03*
X15044Y-229532D03*
X15605Y-202030D03*
X15746Y-207926D03*
X15673Y-205957D03*
X22168Y-205373D03*
X15642Y-200059D03*
X15690Y-209894D03*
X15678Y-203942D03*
X16904Y-168615D03*
X10904D03*
X16904Y-174615D03*
X10904D03*
X22904Y-144615D03*
X16904D03*
X22904Y-150615D03*
Y-156615D03*
X16904D03*
X21544Y-160298D03*
X14144Y-153617D03*
X20010Y-149528D03*
X22904Y-126615D03*
X16904D03*
X22904Y-132615D03*
X16904D03*
X10904D03*
X22904Y-138615D03*
X16904D03*
X10904D03*
X14161Y-140977D03*
X3049Y-105954D03*
X3043Y-103054D03*
X14798Y-102019D03*
X16904Y-78615D03*
X10904D03*
X16904Y-96615D03*
X10904D03*
X16904Y-60615D03*
X22904Y-66615D03*
X16904D03*
X22904Y-72615D03*
X16904D03*
X10904D03*
X22904Y-36615D03*
X16904D03*
X10904D03*
X4905D03*
X22904Y-42615D03*
X16904D03*
X4905D03*
X22904Y-48615D03*
X16904D03*
X4905D03*
Y-54615D03*
X22904Y-12615D03*
Y-18615D03*
Y-24615D03*
X16904D03*
X10904D03*
X4905D03*
X22904Y-30615D03*
X16904D03*
X10904D03*
X4905D03*
X22904Y-6615D03*
X40905Y-324615D03*
X34905D03*
X28904D03*
X40905Y-330615D03*
X34905D03*
X28904D03*
Y-300615D03*
Y-312615D03*
Y-318615D03*
X45583Y-307694D03*
X31185Y-308772D03*
X46350Y-298645D03*
X46172Y-294786D03*
X40905Y-270615D03*
X28904D03*
X31163Y-270714D03*
X40905Y-234615D03*
Y-240615D03*
X34905D03*
Y-246615D03*
X24484Y-236233D03*
X26031Y-234038D03*
X35150Y-237156D03*
X35324Y-234634D03*
X35462Y-232252D03*
X42580Y-233101D03*
X25955Y-229664D03*
X26006Y-231703D03*
X35627Y-229968D03*
X43257Y-195294D03*
X39190Y-140087D03*
X46668Y-110160D03*
X28904Y-114615D03*
X29461Y-104061D03*
X30303Y-106020D03*
X29396Y-101983D03*
X28904Y-78615D03*
Y-84615D03*
Y-90615D03*
Y-96615D03*
X29543Y-100116D03*
X34905Y-60615D03*
X28904D03*
Y-66615D03*
Y-72615D03*
X26457Y-59035D03*
X37673Y-58698D03*
X40285Y-61447D03*
X40905Y-36615D03*
X34905D03*
X28904D03*
X34905Y-42615D03*
X28904D03*
X40905Y-48615D03*
X34905D03*
X28904D03*
X34905Y-54615D03*
X28904D03*
X44572Y-47841D03*
X40905Y-12615D03*
X34905D03*
X28904D03*
X40905Y-18615D03*
X34905D03*
X28904D03*
X40905Y-24615D03*
X34905D03*
X28904D03*
Y-30615D03*
X32847Y-30727D03*
X40905Y-6615D03*
X34905D03*
X28904D03*
X31218Y486579D03*
X56366Y-323526D03*
X46905Y-324615D03*
X64904Y-330615D03*
X58904D03*
X52904D03*
X46905D03*
X67684Y-302347D03*
X61763Y-306272D03*
X65072Y-301736D03*
X64913Y-304543D03*
X64845Y-306693D03*
X47011Y-292636D03*
X64501Y-267010D03*
X66662Y-267794D03*
X61922Y-269200D03*
X58772Y-270352D03*
X56168Y-269513D03*
X57717Y-267338D03*
X59645Y-238662D03*
X63034Y-230152D03*
X50747Y-230298D03*
X67397Y-201197D03*
X62522Y-166975D03*
X60424Y-167392D03*
X64550Y-166957D03*
X68687Y-167487D03*
X52904Y-162615D03*
X55802Y-156660D03*
X68739Y-158582D03*
X64596Y-158620D03*
X64904Y-126615D03*
X52904D03*
X64904Y-132615D03*
X63433Y-124777D03*
X66851Y-132121D03*
X50814Y-110295D03*
X64904Y-102615D03*
Y-108615D03*
X52904Y-114615D03*
X46905D03*
X63347Y-121234D03*
X64904Y-78615D03*
X58904D03*
X46905D03*
X64904Y-84615D03*
X58904D03*
X52904D03*
Y-90615D03*
X60391Y-88343D03*
X61162Y-82226D03*
X63075Y-86538D03*
X64904Y-60615D03*
X58904D03*
X64904Y-72615D03*
X58904D03*
X46905D03*
X46858Y-66295D03*
X64904Y-36615D03*
X58904D03*
X64904Y-48615D03*
Y-54615D03*
X65235Y-38489D03*
X55802Y-37255D03*
X46858Y-39466D03*
X64904Y-12615D03*
X58904D03*
X52904D03*
X46905D03*
X64904Y-18615D03*
Y-24615D03*
Y-6615D03*
X58904D03*
X52904D03*
X46905D03*
X90432Y-330501D03*
X70218Y-332267D03*
X76904Y-300615D03*
X74075Y-305104D03*
X69402Y-312172D03*
X84493Y-305351D03*
X83694Y-283059D03*
X84203Y-285616D03*
X84020Y-300036D03*
X75262Y-295785D03*
X83033Y-272871D03*
X86955Y-276367D03*
X70904Y-234615D03*
Y-246615D03*
X69133Y-235270D03*
X69153Y-237829D03*
X68897Y-232711D03*
X70391Y-205708D03*
X86565Y-205553D03*
X76904Y-168615D03*
X75200Y-167158D03*
X79363Y-167328D03*
X71874Y-167328D03*
X83705Y-157926D03*
X83556Y-166666D03*
X88495Y-166613D03*
X80528Y-149772D03*
X79597Y-158014D03*
X89258Y-158196D03*
X71832Y-158898D03*
X70904Y-126615D03*
X88904Y-132615D03*
X82904D03*
X76904D03*
X70904D03*
Y-102615D03*
X88904Y-108615D03*
X76904D03*
X70904D03*
X88904Y-120615D03*
X82904D03*
X76904D03*
X84438Y-103936D03*
X89533Y-103822D03*
X78722Y-103836D03*
X88904Y-78615D03*
X82904D03*
X76904D03*
X70904D03*
X88904Y-84615D03*
X82904D03*
X76904D03*
X70904D03*
X88904Y-60615D03*
X82904D03*
X76904D03*
X70904D03*
X82904Y-72615D03*
X76904D03*
X70904D03*
X88904Y-36615D03*
X82904D03*
X76904D03*
X70904D03*
X88904Y-48615D03*
X82904D03*
X76904D03*
X70904D03*
X88904Y-54615D03*
X82904D03*
X70904D03*
X88904Y-12615D03*
X82904D03*
X70904D03*
X88904Y-18615D03*
X82904D03*
X70904D03*
X82904Y-24615D03*
X76904D03*
X70904D03*
X88904Y-30615D03*
Y-6615D03*
X82904D03*
X76904D03*
X70904D03*
X112905Y-330615D03*
X106904D03*
X100904D03*
X94904D03*
X106904Y-300615D03*
X94904Y-312615D03*
X99529Y-317257D03*
X100340Y-305104D03*
X100471Y-314045D03*
X98588Y-282570D03*
X104048Y-285028D03*
X104998Y-279243D03*
X106733Y-288362D03*
X103743Y-282336D03*
X103778Y-298645D03*
X108308Y-289278D03*
X96786Y-257187D03*
X106733Y-259771D03*
X104900Y-256498D03*
X108308Y-261337D03*
X105485Y-253348D03*
X103593Y-250858D03*
X103576Y-237270D03*
X108171Y-247706D03*
X94563Y-233708D03*
X106904Y-222615D03*
X112847Y-219661D03*
X109973Y-219395D03*
X92095Y-200255D03*
X100904Y-168615D03*
X112905Y-150615D03*
X106904D03*
X112905Y-156615D03*
X100904Y-162615D03*
X99950Y-156453D03*
X94904Y-132615D03*
X97022Y-133192D03*
X94847Y-134946D03*
X110889Y-132121D03*
X112905Y-102615D03*
X94904D03*
X112905Y-108615D03*
X100904D03*
X94904D03*
X112905Y-120615D03*
X100904D03*
X94904D03*
Y-84615D03*
X106904Y-96615D03*
X94555Y-80301D03*
X94904Y-60615D03*
X98830Y-64923D03*
X103111Y-64786D03*
X107510Y-64482D03*
X112690Y-66295D03*
X98818Y-75006D03*
X107496Y-75071D03*
X103544Y-74993D03*
X101110Y-74905D03*
X106904Y-36615D03*
X100904D03*
X94904D03*
X106904Y-48615D03*
X100904D03*
X94904D03*
Y-54615D03*
X112905Y-12615D03*
X106904D03*
X100904D03*
X94904D03*
X112905Y-18615D03*
X106904D03*
X100904D03*
Y-24615D03*
X94904D03*
X106904Y-30615D03*
X100904D03*
X94904D03*
X104272Y-32796D03*
X105218Y-24227D03*
X106904Y-6615D03*
X100904D03*
X94904D03*
X110188Y-6660D03*
X130904Y-324615D03*
X118905D03*
X130904Y-330615D03*
X124905D03*
X118905D03*
Y-318615D03*
X119300Y-316104D03*
X130904Y-282615D03*
X124905Y-288615D03*
X118438Y-292835D03*
X118166Y-264904D03*
X118038Y-270396D03*
X134238Y-255963D03*
X117059Y-273920D03*
X131903Y-277140D03*
X130904Y-234615D03*
X118905Y-246615D03*
X125425Y-211322D03*
X118905Y-222615D03*
X114372Y-215159D03*
X122846Y-211466D03*
X129429Y-222518D03*
X129447Y-220444D03*
X114051Y-222255D03*
X125485Y-217090D03*
X125524Y-215261D03*
X117747Y-220733D03*
X122771Y-215819D03*
X120353Y-220474D03*
X120502Y-196144D03*
X116381Y-202696D03*
X134035Y-196342D03*
X134134Y-202746D03*
X117497Y-199310D03*
X118809Y-197556D03*
X134112Y-200100D03*
X131202Y-200064D03*
X126513Y-203982D03*
X134076Y-198120D03*
X124332Y-196250D03*
X118905Y-150615D03*
Y-156615D03*
X135127Y-151186D03*
X128899Y-155099D03*
X135481Y-126861D03*
X134968Y-142370D03*
X118030Y-143382D03*
X118905Y-108615D03*
Y-120615D03*
X131591Y-112368D03*
X118905Y-78615D03*
X130904Y-84615D03*
Y-90615D03*
X119579Y-88343D03*
X121313Y-79906D03*
X118905Y-66615D03*
X124818Y-64405D03*
X133473Y-64103D03*
X116157Y-64342D03*
X129149Y-64274D03*
X133528Y-74537D03*
X116238Y-75144D03*
X128312Y-74448D03*
X124726Y-74947D03*
X130904Y-36615D03*
X124905D03*
X118905D03*
X130904Y-42615D03*
X124905D03*
X118905D03*
X130904Y-48615D03*
X124905D03*
X130904Y-12615D03*
X124905D03*
X118905D03*
X130904Y-18615D03*
X124905D03*
X118905D03*
X130904Y-30615D03*
X124905D03*
X118905D03*
X115376Y-25965D03*
X142904Y-324615D03*
X136904D03*
X154904Y-330615D03*
X148905D03*
X142904D03*
X136904D03*
X154904Y-312615D03*
X150210Y-307907D03*
X151807Y-280047D03*
X136904Y-282615D03*
Y-288615D03*
X148694Y-289451D03*
Y-283151D03*
Y-280001D03*
Y-286301D03*
X143239Y-298010D03*
X144941Y-294467D03*
X147731Y-265826D03*
X155181Y-270626D03*
X154807Y-276647D03*
X154994Y-261101D03*
X151844Y-257951D03*
Y-273701D03*
X136904Y-276615D03*
X151844Y-264251D03*
X148407Y-260647D03*
X148694Y-276851D03*
X151844Y-261101D03*
X148607Y-257847D03*
X151844Y-270551D03*
X147513Y-273197D03*
X147763Y-269947D03*
X146007Y-262647D03*
X136331Y-256037D03*
X157581Y-239226D03*
X147207Y-254847D03*
X156181Y-234826D03*
X142904Y-246615D03*
X148694Y-242201D03*
Y-251651D03*
Y-248501D03*
X151844Y-251651D03*
Y-248501D03*
X148694Y-245351D03*
X151844D03*
Y-242201D03*
X154181Y-236826D03*
X155207Y-254647D03*
X136364Y-238830D03*
X142450Y-241947D03*
X154904Y-216615D03*
X137339Y-224187D03*
X143161Y-221588D03*
X156265D03*
X146170Y-230385D03*
X153607Y-212996D03*
X145946Y-215240D03*
X154100Y-225173D03*
X139367Y-217680D03*
X151538Y-229550D03*
X149220Y-231127D03*
X151103Y-210942D03*
X155004Y-189915D03*
X154676Y-206941D03*
X156152Y-202747D03*
X152074Y-189638D03*
X154723Y-209792D03*
X150538Y-195408D03*
X152211Y-184501D03*
X142562Y-179313D03*
X153495Y-180212D03*
X145989Y-187705D03*
Y-180235D03*
X151603Y-187879D03*
X136904Y-144615D03*
X149085Y-155577D03*
X146574Y-152560D03*
X151762Y-154558D03*
X154860Y-151486D03*
X142723Y-157869D03*
X148703Y-158136D03*
X153381Y-153054D03*
X152438Y-160768D03*
X136949Y-128883D03*
X154399Y-144334D03*
X147102Y-133394D03*
X154904Y-102615D03*
X151588Y-109769D03*
X136904Y-78615D03*
X154904Y-84615D03*
X136904D03*
X154904Y-90615D03*
X138458Y-88304D03*
X140466Y-89895D03*
X136594Y-91347D03*
X156780Y-95426D03*
X142904Y-60615D03*
X136904D03*
X148905Y-36615D03*
X142904D03*
X136904D03*
X148905Y-42615D03*
X142904D03*
X136904D03*
X154904Y-48615D03*
X148905D03*
X142904D03*
X136904D03*
X154904Y-54615D03*
X148905D03*
Y-12615D03*
X142904D03*
X148905Y-18615D03*
X142904D03*
X148905Y-30615D03*
X142904D03*
X136904D03*
X172905Y-324615D03*
X160904D03*
X178905Y-330615D03*
X166904D03*
X167229Y-322819D03*
X161915Y-300469D03*
Y-303618D03*
X165064Y-302044D03*
X160904Y-312615D03*
Y-318615D03*
X167125Y-312722D03*
X161607Y-280447D03*
X165064Y-283146D03*
Y-292595D03*
X179807Y-295047D03*
X161915Y-294170D03*
X165064Y-279996D03*
Y-289445D03*
X161915Y-291020D03*
X165064Y-295744D03*
X161915Y-287870D03*
X165064Y-286295D03*
X160807Y-283047D03*
X161915Y-297319D03*
X165064Y-298894D03*
X177044Y-280001D03*
Y-286301D03*
X173894Y-280001D03*
X177044Y-283151D03*
X159007Y-264447D03*
X177407Y-260647D03*
X167113Y-269647D03*
X162981Y-260226D03*
Y-258226D03*
X177469Y-263826D03*
X177044Y-267401D03*
X159007Y-268647D03*
X164829Y-277561D03*
X163007Y-269847D03*
X158407Y-272247D03*
X173894Y-267401D03*
Y-261101D03*
Y-264251D03*
X170744Y-261101D03*
Y-267401D03*
X160607Y-277047D03*
X167356Y-246401D03*
X157781Y-251226D03*
X168007Y-238847D03*
X170744Y-248501D03*
X158407Y-247647D03*
X168007Y-235647D03*
X170744Y-242201D03*
X172181Y-236826D03*
X173894Y-254801D03*
X170744D03*
X166287Y-252967D03*
X163007Y-254847D03*
X177007Y-233847D03*
X167381Y-241626D03*
X173894Y-245351D03*
X170744Y-251651D03*
X167156Y-244401D03*
X177044Y-242201D03*
Y-245351D03*
X173894Y-251651D03*
X158181Y-242226D03*
X177044Y-254801D03*
X173956Y-242201D03*
X177044Y-248501D03*
Y-251651D03*
X175781Y-229026D03*
X178807Y-227047D03*
X175781Y-231226D03*
X176624Y-215847D03*
Y-213287D03*
X164737Y-224764D03*
X158611Y-224296D03*
X176624Y-210727D03*
Y-208167D03*
X176642Y-205580D03*
X161290Y-210727D03*
X171523Y-205580D03*
X166405Y-210698D03*
Y-195344D03*
X163845Y-192849D03*
X168964Y-195344D03*
X176503Y-198058D03*
X163846Y-205580D03*
X161287Y-208139D03*
X163846Y-203021D03*
X161287Y-205580D03*
X158661Y-190294D03*
X174083Y-205580D03*
Y-190226D03*
X158811Y-195272D03*
X176642Y-195344D03*
Y-203021D03*
X168964Y-200462D03*
X171505Y-197921D03*
X168964Y-208139D03*
X174083D03*
X168964Y-197903D03*
X163846Y-210698D03*
X174083D03*
X161210Y-190118D03*
X163846Y-190226D03*
X166405D03*
X168964D03*
X166405Y-197903D03*
Y-200462D03*
X158538Y-203212D03*
X163846Y-197903D03*
X161287D03*
X166405Y-208139D03*
X161289Y-195349D03*
X174083Y-195344D03*
X161282Y-203022D03*
X161155Y-180119D03*
X179201Y-174872D03*
Y-167194D03*
X166405Y-172312D03*
X161287Y-187667D03*
X179201Y-182549D03*
X174083D03*
X176642Y-177430D03*
X172448Y-176875D03*
X176642Y-187667D03*
X174083D03*
X176642Y-169753D03*
Y-182549D03*
X179209Y-187669D03*
X163846Y-187667D03*
X171523Y-182549D03*
X169196Y-179780D03*
X168964Y-182549D03*
X161287D03*
X166405Y-169753D03*
Y-182549D03*
X176642Y-172312D03*
X163846Y-182549D03*
Y-172312D03*
X161287D03*
X163846Y-169753D03*
X161287D03*
Y-154399D03*
X176642D03*
X166410Y-156967D03*
X161287Y-149281D03*
X168964Y-154399D03*
X176642Y-164635D03*
X166405D03*
X171523Y-156958D03*
X158717Y-151772D03*
X168961Y-149329D03*
X174083Y-159517D03*
X176642D03*
Y-162076D03*
X176640Y-149299D03*
X161287Y-151840D03*
X168964Y-162076D03*
X166405Y-159517D03*
X171523Y-162076D03*
X166405D03*
X168964Y-159517D03*
X174083Y-156958D03*
X176642D03*
X163846Y-162076D03*
X161287D03*
X171523Y-154399D03*
X163846Y-156958D03*
X161287D03*
X163846Y-164635D03*
X161287D03*
X166904Y-102615D03*
X160904D03*
X166904Y-108615D03*
X178905Y-114615D03*
X179580Y-102812D03*
X165672Y-116711D03*
X173093Y-114521D03*
X169542Y-118405D03*
X166904Y-84615D03*
X160904Y-90615D03*
X178372Y-93674D03*
X178396Y-91706D03*
X178692Y-89737D03*
X178905Y-60615D03*
X172038Y-60123D03*
X160904Y-42615D03*
X174900Y-47344D03*
X160904Y-48615D03*
Y-54615D03*
X169067Y-46973D03*
X172905Y-12615D03*
X160904Y-18615D03*
X172905Y-30615D03*
X160904D03*
X175056Y-22401D03*
X174685Y-32226D03*
X178905Y-6615D03*
X172905D03*
X177804Y-10451D03*
X165260Y-10346D03*
X168739Y-6660D03*
X196905Y-324615D03*
Y-330615D03*
X192274Y-330574D03*
X195450Y-302047D03*
X191831Y-305201D03*
X189950Y-302847D03*
X188050Y-300347D03*
X192274Y-312722D03*
X198131Y-284726D03*
X190256Y-286301D03*
X184229Y-278161D03*
X188681Y-295751D03*
X187229Y-281561D03*
X188681Y-291026D03*
X183407Y-293647D03*
X194550Y-296847D03*
X196950Y-289847D03*
X194981Y-287876D03*
Y-283151D03*
X193450Y-299647D03*
X196229Y-262761D03*
X180981Y-269826D03*
X198869Y-269026D03*
X189981Y-259426D03*
Y-257426D03*
X201207Y-256447D03*
X200869Y-267426D03*
X193469Y-277426D03*
X183981Y-271426D03*
X197269Y-273426D03*
X200629Y-275361D03*
X197007Y-246047D03*
Y-249047D03*
X190807Y-248647D03*
X190581Y-252426D03*
X190807Y-246647D03*
X189181Y-253826D03*
X195607Y-254247D03*
X195807Y-251247D03*
X180150Y-224047D03*
X181744Y-213247D03*
X201750Y-226747D03*
X184320Y-200467D03*
X189424Y-205607D03*
X191984D03*
X197104D03*
X189424Y-210727D03*
X191984D03*
Y-203047D03*
Y-208167D03*
X197104Y-210727D03*
Y-203047D03*
X189424D03*
X184304D03*
X181744Y-208167D03*
Y-200487D03*
Y-203047D03*
X184304Y-208167D03*
Y-205607D03*
Y-190247D03*
X181744Y-192807D03*
X197104D03*
X194544Y-190247D03*
X191984D03*
Y-192807D03*
X189424Y-190247D03*
X186864Y-192807D03*
X199664D03*
X184304D03*
X184330Y-197927D03*
X181744Y-205607D03*
X189424Y-208167D03*
X197104D03*
X192010Y-197927D03*
X191984Y-195367D03*
X189424D03*
X197130D03*
X184304Y-210727D03*
X181744D03*
X196750Y-197897D03*
X181917Y-198060D03*
X181760Y-190226D03*
X186878D03*
X197104Y-169767D03*
X184304Y-167207D03*
X197130Y-172327D03*
X194544Y-174887D03*
Y-167207D03*
X191984D03*
X189424D03*
X186864D03*
X189424Y-177447D03*
X184304D03*
X189424Y-180007D03*
X184304D03*
X186864D03*
X191984Y-182567D03*
Y-180007D03*
X194544Y-177447D03*
X197104Y-180007D03*
X191984Y-185127D03*
Y-187687D03*
X194544Y-185127D03*
X197104Y-182567D03*
X184304Y-174887D03*
X189437Y-172312D03*
X184319Y-169753D03*
X194555Y-172312D03*
X191984Y-177447D03*
X189437Y-187667D03*
X199688Y-174886D03*
X199673Y-185108D03*
X197104Y-187687D03*
X199673Y-182549D03*
Y-177430D03*
X181760Y-185108D03*
X186878D03*
X184304Y-149287D03*
Y-151847D03*
X194555Y-149281D03*
X189437D03*
X181760Y-159517D03*
X184319Y-156958D03*
X195010Y-151766D03*
X184319Y-162076D03*
X199673Y-159517D03*
X184304Y-164647D03*
X181760Y-156958D03*
Y-162076D03*
X184319Y-159517D03*
X199673Y-164635D03*
X200957Y-143337D03*
X199510Y-130889D03*
X184904Y-114615D03*
X189635Y-103055D03*
X192713Y-101548D03*
X199727Y-114638D03*
X184904Y-96615D03*
X192688Y-91660D03*
X183594Y-93679D03*
X186736Y-93680D03*
X188978Y-95643D03*
X182389Y-97611D03*
X184768Y-100084D03*
X200873Y-93674D03*
X182603Y-99580D03*
X192390Y-93674D03*
X188705Y-89897D03*
X189176Y-98760D03*
X182068Y-89975D03*
X192558Y-95720D03*
X192774Y-81371D03*
X196905Y-60615D03*
Y-66615D03*
X190904D03*
X183940Y-60206D03*
X200830Y-48221D03*
X199368Y-51862D03*
X186728Y-47663D03*
X180878Y-47347D03*
X190719Y-46949D03*
X195078Y-48278D03*
X190904Y-12615D03*
X184904D03*
X196905Y-24615D03*
X190904Y-30615D03*
X182881Y-15987D03*
X196626Y-31470D03*
X186364Y-32934D03*
X198340Y-15724D03*
X196905Y-6615D03*
X190904D03*
X184904D03*
X194795Y-11045D03*
X220905Y-324615D03*
X202904D03*
X220905Y-330615D03*
X202904D03*
X218607Y-303647D03*
Y-300469D03*
X221757Y-298894D03*
Y-283146D03*
X218607Y-291020D03*
X221757Y-292595D03*
X218607Y-287870D03*
X221757Y-289445D03*
X218607Y-294170D03*
X221757Y-286295D03*
X218607Y-284721D03*
X221757Y-279996D03*
Y-295744D03*
X218607Y-297319D03*
X206006Y-280001D03*
Y-286301D03*
X209156Y-280001D03*
X206006Y-283151D03*
X219207Y-263647D03*
X205781Y-260826D03*
X204431Y-270551D03*
X218407Y-269047D03*
X221981Y-261426D03*
X224069Y-261026D03*
X204050Y-264147D03*
X205269Y-266226D03*
X218606Y-275276D03*
X224207Y-274847D03*
X204869Y-274626D03*
X221207Y-276847D03*
X221756Y-270551D03*
X224007Y-272047D03*
X209156Y-261101D03*
X212306Y-267401D03*
Y-261101D03*
X209556Y-267801D03*
X221375Y-263774D03*
X209099Y-264185D03*
X205807Y-251647D03*
Y-248047D03*
X212306Y-251651D03*
X209269Y-255026D03*
X212306Y-254801D03*
X221007Y-254847D03*
X215781Y-247026D03*
X209156Y-245351D03*
X209781Y-238826D03*
X213807Y-238447D03*
X220607Y-252047D03*
X215781Y-250026D03*
X206006Y-242201D03*
X212306D03*
X209156Y-251651D03*
Y-242201D03*
X206007Y-245447D03*
X209156Y-248501D03*
X206006Y-254801D03*
X203850Y-233247D03*
Y-230347D03*
X203750Y-224247D03*
X212607Y-232647D03*
X213007Y-229647D03*
X219007Y-232247D03*
X216807Y-230847D03*
X224070Y-216687D03*
X220869Y-224626D03*
X202750Y-221847D03*
X220144Y-205607D03*
X217587Y-197908D03*
X215028Y-195349D03*
X217610Y-200487D03*
X222704Y-205607D03*
X215028Y-197908D03*
X217584Y-205607D03*
X215028Y-192790D03*
X217587D03*
X220146Y-195349D03*
X217587D03*
X222730Y-200487D03*
X222705Y-192790D03*
Y-195349D03*
X204784Y-205607D03*
X202224Y-208167D03*
X207344Y-210727D03*
X204784D03*
X202224Y-205607D03*
X207344Y-208167D03*
X202224Y-210727D03*
X207344Y-205607D03*
X212464Y-210727D03*
X207344Y-203047D03*
X215024Y-205607D03*
X212464D03*
X215024Y-208167D03*
X209904Y-203047D03*
X217584Y-208167D03*
X209904Y-205607D03*
X204784Y-203047D03*
X202224D03*
X204784Y-190247D03*
X212490Y-197927D03*
X220146Y-192790D03*
X204784Y-192807D03*
X220170Y-200487D03*
X212464Y-208167D03*
X220144D03*
X202224Y-190247D03*
Y-192807D03*
X204784Y-208167D03*
X212464Y-192790D03*
X209904Y-200487D03*
X207344Y-195367D03*
X204784D03*
X202224D03*
X215050Y-172327D03*
Y-174887D03*
X209904Y-172327D03*
X222705Y-177435D03*
X217587Y-172317D03*
X220146Y-167199D03*
X222705D03*
Y-172317D03*
X220146D03*
X217587Y-177435D03*
X215028D03*
X222705Y-169758D03*
X215028Y-187672D03*
X220146D03*
X222705Y-185113D03*
X215028D03*
X217587D03*
X222705Y-182553D03*
X215028D03*
X220146D03*
X222705Y-187672D03*
X217587Y-182553D03*
Y-187672D03*
X220146Y-185113D03*
X204810Y-169767D03*
X204784Y-172327D03*
X220146Y-169758D03*
X204784Y-174887D03*
X220146Y-177435D03*
X204784Y-182567D03*
Y-185127D03*
X202224Y-177447D03*
X204784Y-180007D03*
X202224Y-182567D03*
Y-185127D03*
Y-187687D03*
X204784D03*
X209904Y-182567D03*
X207344D03*
X204784Y-177447D03*
X209897Y-169757D03*
X215027Y-169753D03*
X209904Y-187687D03*
X207312Y-169781D03*
X202232Y-159517D03*
X209909Y-149281D03*
X207350Y-154399D03*
Y-149281D03*
X209950Y-151793D03*
X202276Y-157006D03*
X202232Y-162076D03*
X207350Y-156958D03*
X202232Y-164635D03*
X220146D03*
X217586Y-159517D03*
X222705Y-156958D03*
X215078Y-164672D03*
X220146Y-162076D03*
X222634Y-162156D03*
X220146Y-156958D03*
X222705Y-151840D03*
X209909Y-164635D03*
X222705Y-154399D03*
X215027Y-159517D03*
X209909Y-154399D03*
X217586Y-149281D03*
X209909Y-156958D03*
X207350Y-164635D03*
Y-159517D03*
X212468Y-162076D03*
X217586D03*
X202278Y-140673D03*
X203376Y-131327D03*
X206068Y-134792D03*
X203512Y-133356D03*
X204899Y-141004D03*
X211188Y-139578D03*
X208621Y-137844D03*
X207376Y-136315D03*
X208001Y-132197D03*
X220072Y-141638D03*
X221923Y-124561D03*
X221482Y-143243D03*
X218157Y-132630D03*
X216297Y-126115D03*
X209371Y-129273D03*
X206263Y-126486D03*
X214340Y-128091D03*
X214214Y-125992D03*
X205508Y-123681D03*
X204840Y-127820D03*
X205409Y-101190D03*
X220456Y-120655D03*
X221954Y-118032D03*
X220905Y-84615D03*
X214904D03*
X208904D03*
X221688Y-96281D03*
X220905Y-60615D03*
X214904D03*
X208904D03*
X220905Y-66615D03*
X214904D03*
X208904D03*
X206185Y-57298D03*
X220905Y-36615D03*
Y-42615D03*
Y-48615D03*
X214904D03*
X208904D03*
X220905Y-54615D03*
X214904D03*
X204930Y-33531D03*
X220905Y-12615D03*
X208904D03*
X202904D03*
X220905Y-18615D03*
X208904D03*
X220905Y-24615D03*
X214904D03*
X208904D03*
X202904D03*
X220905Y-30615D03*
X208904D03*
X202904D03*
X220905Y-6615D03*
X214904D03*
X208904D03*
X202904D03*
X226905Y-324615D03*
X244904Y-330615D03*
X226905D03*
X244904Y-300615D03*
X238905D03*
X226905D03*
X228007Y-280047D03*
X244904Y-282615D03*
X238905D03*
Y-288615D03*
X232905Y-294615D03*
X234356Y-289451D03*
Y-283151D03*
X231206Y-280001D03*
X234356Y-286301D03*
X231188Y-299710D03*
X235607Y-265047D03*
X231313Y-270447D03*
X228007Y-270647D03*
Y-276847D03*
X228056Y-261101D03*
Y-264251D03*
X238905Y-258615D03*
Y-264615D03*
X244904Y-276615D03*
X234474Y-276845D03*
X231007Y-264247D03*
X231206Y-257951D03*
X234356D03*
Y-261101D03*
X234603Y-267401D03*
X228056Y-257951D03*
X231181Y-276757D03*
X225181Y-254826D03*
X228056Y-254801D03*
X231206Y-245351D03*
X228056Y-248501D03*
Y-242201D03*
X238905Y-252615D03*
X234356Y-242201D03*
Y-245351D03*
X231206Y-251651D03*
X234356Y-254801D03*
X231206D03*
X234356Y-248501D03*
Y-251651D03*
X231206Y-242201D03*
X230070Y-215287D03*
X225050Y-213047D03*
X246241Y-221489D03*
X224781Y-223226D03*
X231898Y-220839D03*
X233966Y-206961D03*
X235650Y-209847D03*
X244666Y-201014D03*
X242166Y-200161D03*
X246241Y-204164D03*
X236766Y-200161D03*
Y-202361D03*
X241144Y-180047D03*
X242366Y-168361D03*
X240318Y-168426D03*
X236780Y-169758D03*
X230344Y-171047D03*
X245766Y-172161D03*
X235544Y-185047D03*
X232544D03*
X245166Y-166561D03*
X226354Y-136926D03*
X226429Y-134753D03*
X231464Y-139907D03*
X226440Y-138801D03*
X228516Y-142555D03*
X238905Y-120615D03*
X235710Y-120655D03*
X225605Y-107064D03*
X235228Y-108341D03*
X234274Y-118032D03*
X229893Y-106078D03*
X235293D03*
X246424Y-110610D03*
X244904Y-78615D03*
X232905D03*
X238905Y-84615D03*
X232905D03*
X226905D03*
X244904Y-90615D03*
X238905D03*
X226905D03*
X226429Y-97255D03*
X231459Y-99931D03*
X234884D03*
X235620Y-95699D03*
X228518Y-97667D03*
X234864D03*
X244904Y-60615D03*
X232905D03*
X238905Y-72615D03*
Y-36615D03*
X232905D03*
X226905D03*
X232905Y-42615D03*
X226905D03*
X232905Y-48615D03*
X226905D03*
Y-54615D03*
X244904Y-12615D03*
X238905D03*
X232905D03*
X226905D03*
X244904Y-18615D03*
X238905D03*
X232905D03*
X226905D03*
X232905Y-24615D03*
X226905D03*
X244904Y-30615D03*
X238905D03*
X232905D03*
X226905D03*
X244904Y-6615D03*
X238905D03*
X232905D03*
X226905D03*
X256904Y-324615D03*
Y-330615D03*
X250904D03*
X256904Y-300615D03*
X250904D03*
X261520Y-307907D03*
X267876Y-314568D03*
X253675Y-306693D03*
X256904Y-282615D03*
X250904D03*
X262904Y-288615D03*
X256904D03*
X250904D03*
X256904Y-294615D03*
X250904D03*
X262904Y-258615D03*
X256904D03*
X250904D03*
X262904Y-264615D03*
X256904D03*
X250904D03*
X262904Y-270615D03*
X256904D03*
X250904D03*
X262904Y-276615D03*
X256904D03*
X250904D03*
X249549Y-262293D03*
X262904Y-240615D03*
X250904D03*
X261805Y-235437D03*
X258841Y-226214D03*
X268291D03*
X255944Y-218247D03*
X252170Y-222247D03*
X249518Y-229226D03*
X255691Y-229364D03*
X248566Y-213161D03*
X262944Y-220247D03*
X265141Y-226214D03*
X263690Y-214567D03*
X268344Y-218247D03*
X266744Y-221447D03*
X268291Y-232514D03*
X261991D03*
Y-229364D03*
X255691Y-232514D03*
X252541Y-226214D03*
X265250Y-216047D03*
X265141Y-232514D03*
X258841D03*
X252541D03*
Y-229364D03*
X258841D03*
X261991Y-210464D03*
X265141D03*
X252544Y-204047D03*
X255691Y-210464D03*
X256566Y-199961D03*
X254144Y-197047D03*
X259744Y-197447D03*
X253118Y-190426D03*
X265450Y-191847D03*
X259493Y-191401D03*
X255518Y-203626D03*
X253744Y-200647D03*
X250744Y-200447D03*
X247816Y-200472D03*
X256344Y-191647D03*
X267450Y-191847D03*
X251318Y-191626D03*
X261493Y-190601D03*
X265141Y-207314D03*
X261991D03*
X249391Y-204164D03*
X255691Y-207314D03*
X249391D03*
X261991Y-204164D03*
X258841Y-207314D03*
X268450Y-169447D03*
X259744Y-176847D03*
X263744Y-177047D03*
X261744Y-178047D03*
X252766Y-175961D03*
X262144Y-169647D03*
X249366Y-167561D03*
X248744Y-172847D03*
X255691Y-172586D03*
X248344Y-170247D03*
X255691Y-169436D03*
X262191Y-172585D03*
X255691Y-175736D03*
X261991D03*
X252541Y-169436D03*
X268491Y-172585D03*
X252741D03*
X259041D03*
X256744Y-157447D03*
X254744D03*
X262450Y-166047D03*
X261991Y-153686D03*
X265141D03*
X255691Y-150536D03*
X264966Y-157761D03*
X254566Y-163961D03*
X249344Y-155247D03*
X262166Y-157961D03*
X246944Y-158047D03*
X252166Y-165361D03*
X258744Y-163447D03*
X256904Y-144615D03*
X268291Y-150536D03*
X258841D03*
X262191Y-150535D03*
X252541Y-147386D03*
X255691D03*
X268291Y-153686D03*
X249591Y-150535D03*
X259041Y-147385D03*
X262191D03*
X254150Y-139897D03*
X262904Y-108615D03*
X256904D03*
X250904D03*
X262904Y-114615D03*
X256904D03*
X250904D03*
X262904Y-90615D03*
X250904D03*
Y-96615D03*
X256904Y-60615D03*
X250904D03*
Y-72615D03*
X262904Y-36615D03*
X256904D03*
X262904Y-42615D03*
X256904D03*
X262904Y-48615D03*
X256904D03*
X262904Y-54615D03*
X256904D03*
X250904D03*
X259751Y-50333D03*
X262904Y-12615D03*
X256904D03*
X262904Y-18615D03*
X256904D03*
X262904Y-24615D03*
Y-30615D03*
X256904D03*
X250904D03*
X262904Y-6615D03*
X256904D03*
X250904D03*
X255647Y-10244D03*
X280904Y-324615D03*
X274904D03*
X280904Y-330615D03*
X274904D03*
Y-300615D03*
X286904Y-306615D03*
X280904D03*
X286904Y-318615D03*
X280904D03*
X274904D03*
X274727Y-311098D03*
X286904Y-282615D03*
X280904D03*
Y-294615D03*
X274904D03*
X282997Y-296790D03*
X281382Y-299250D03*
X280898Y-291854D03*
X286904Y-258615D03*
X280904D03*
X274904D03*
X268904D03*
X286904Y-264615D03*
X280904D03*
X274904D03*
X268904D03*
X286904Y-270615D03*
X280904D03*
X274904D03*
X268904D03*
X286904Y-276615D03*
X280904Y-234615D03*
X268904D03*
Y-240615D03*
X286904Y-246615D03*
X280904D03*
X274904D03*
X268904D03*
X286904Y-252615D03*
X280904D03*
X274904D03*
X268904D03*
X276950Y-236747D03*
X280650Y-236247D03*
X286944Y-213247D03*
X274591Y-229364D03*
X271050Y-222647D03*
X284041Y-229364D03*
X284036Y-216798D03*
X274588Y-221522D03*
X279344Y-222647D03*
X285611Y-219948D03*
X290336Y-216798D03*
X280887D03*
X287144Y-226047D03*
X280891Y-226214D03*
X277741Y-229364D03*
X288144Y-220647D03*
X268944Y-216247D03*
Y-221247D03*
X287191Y-229364D03*
X290341D03*
X274591Y-226214D03*
X271438Y-213613D03*
X270567Y-219758D03*
X287191Y-232514D03*
X271441Y-229364D03*
X280891D03*
X273400Y-232797D03*
X274591Y-207314D03*
Y-210464D03*
X282466Y-199761D03*
X274588Y-198898D03*
X283944Y-197647D03*
X270366Y-195761D03*
X277650Y-203247D03*
X273013Y-202047D03*
X284744Y-192647D03*
X279312Y-198898D03*
X288566Y-195561D03*
X277540Y-210328D03*
X271419Y-210433D03*
X287191Y-204164D03*
X277894Y-207471D03*
X271438Y-207314D03*
X287186D03*
X287200Y-210447D03*
X286566Y-179561D03*
X274591Y-172586D03*
X269966Y-176961D03*
X281966Y-176761D03*
X290166Y-179161D03*
X279366Y-186561D03*
X275966Y-179361D03*
X271438Y-172583D03*
X277737Y-169433D03*
X290336Y-175732D03*
Y-172583D03*
X271438Y-169433D03*
X277737Y-172583D03*
X274600Y-175497D03*
X271250Y-165047D03*
X284144Y-153647D03*
X271441Y-150536D03*
Y-153686D03*
X277741Y-150536D03*
X282466Y-163136D03*
X272518Y-162626D03*
X269650Y-159247D03*
X280891Y-150536D03*
X274918Y-164026D03*
X284041Y-159986D03*
X287144Y-153647D03*
X280891Y-159986D03*
X290336Y-159984D03*
X279316Y-163136D03*
X287186Y-159984D03*
X271450Y-158197D03*
X268904Y-144615D03*
X274591Y-150536D03*
X285850Y-146447D03*
X290341Y-150536D03*
X280891Y-153686D03*
X274576Y-161768D03*
X273769Y-157393D03*
X271441Y-147386D03*
X287200Y-150697D03*
X275671Y-141464D03*
X288093Y-132385D03*
X284836Y-127178D03*
X288692Y-125674D03*
X288660Y-129246D03*
X271133Y-129417D03*
X290503Y-133628D03*
X276223Y-124358D03*
X273109Y-130267D03*
X274625Y-123078D03*
X280134Y-129468D03*
X268904Y-108615D03*
X280904Y-114615D03*
X268904D03*
X288261Y-114530D03*
X280430Y-121799D03*
X278272Y-121811D03*
X278268Y-113633D03*
X271114Y-112372D03*
X278353Y-111060D03*
X271130Y-110055D03*
X271231Y-106869D03*
X280904Y-90615D03*
X268904D03*
X280904Y-36615D03*
X274904D03*
X268904D03*
X280904Y-42615D03*
X274904D03*
X268904D03*
X280904Y-48615D03*
X274904D03*
X268904D03*
X286904Y-54615D03*
X280904D03*
X274904D03*
X268904D03*
X286904Y-12615D03*
X280904D03*
X274904D03*
X268904D03*
X286904Y-18615D03*
X280904D03*
X274904D03*
X268904D03*
X274904Y-24615D03*
X268904D03*
X286904Y-30615D03*
X280904D03*
X274904D03*
X268904D03*
X286904Y-6615D03*
X280904D03*
X274904D03*
X268904D03*
X310904Y-324615D03*
X304904D03*
X298904D03*
X310904Y-330615D03*
X304904D03*
X298904D03*
X310904Y-300615D03*
X304904D03*
X298904D03*
X294076Y-300815D03*
X310904Y-306615D03*
X304904D03*
X310904Y-318615D03*
X304904D03*
X298904D03*
X292905D03*
X298904Y-282615D03*
X292905D03*
X310904Y-288615D03*
X304904D03*
X292905D03*
X298904Y-258615D03*
X292905D03*
X298904Y-264615D03*
X292905D03*
X308784Y-271950D03*
X304904Y-270615D03*
X298904D03*
X292905D03*
X310904Y-276615D03*
X304904D03*
X292905D03*
X304904Y-234615D03*
X298904D03*
X292905D03*
X310904Y-240615D03*
Y-246615D03*
X304904D03*
X298904D03*
X292905D03*
X310904Y-252615D03*
X304904D03*
X298904D03*
X292905D03*
X293485Y-216798D03*
X301359Y-219948D03*
X309233Y-216798D03*
X307659Y-219948D03*
X306084Y-216798D03*
X312383D03*
X295060Y-219948D03*
X298210D03*
X302934Y-216798D03*
X304509Y-219948D03*
X299785Y-216798D03*
X310808Y-219948D03*
X296635Y-216798D03*
X296641Y-232514D03*
X293491D03*
X293544Y-195647D03*
X309233Y-191024D03*
X300744Y-192047D03*
X291766Y-192561D03*
X312366Y-195161D03*
X298250Y-194847D03*
X296641Y-204164D03*
X293491D03*
X302944Y-177647D03*
X310744Y-183047D03*
X307744Y-186047D03*
X295918Y-186226D03*
X304544Y-179647D03*
X306144Y-188047D03*
X301344Y-182247D03*
X297066Y-175540D03*
X294213Y-175580D03*
X291910Y-163134D03*
X299785Y-159984D03*
X307659Y-163134D03*
X306084Y-159984D03*
X304509Y-163134D03*
X312383Y-159984D03*
X309744Y-160447D03*
X293485Y-159984D03*
X296635D03*
X301359Y-163134D03*
X302934Y-159984D03*
X298210Y-163134D03*
X311450Y-165647D03*
X295060Y-163134D03*
X304904Y-144615D03*
X292905D03*
X299791Y-147386D03*
X293491D03*
X296641D03*
X299753Y-125532D03*
X298904Y-138615D03*
X310904Y-126615D03*
X291473Y-129998D03*
X293561Y-129022D03*
X292768Y-134765D03*
X294854Y-135893D03*
X303729Y-140456D03*
X312470Y-109653D03*
X291484Y-121648D03*
X296626Y-106303D03*
X308964Y-111915D03*
X308656Y-116001D03*
X308651Y-119592D03*
X291450Y-119400D03*
X291500Y-116878D03*
X310904Y-78615D03*
X292905Y-60615D03*
X304904Y-66615D03*
X298904D03*
X292905D03*
X310904Y-72615D03*
X304904D03*
X298904D03*
X292905D03*
X307245Y-65129D03*
X310904Y-36615D03*
X298904D03*
X310904Y-42615D03*
X304904D03*
X310904Y-48615D03*
X304904D03*
X310904Y-54615D03*
X304904Y-12615D03*
X298904D03*
X292905D03*
X304904Y-18615D03*
X298904D03*
X292905D03*
X304904Y-24615D03*
X310904Y-30615D03*
X304904D03*
X292905D03*
X304904Y-6615D03*
X298904D03*
X292905D03*
X334904Y-324615D03*
X328904D03*
X334904Y-330615D03*
X328904D03*
X334904Y-300615D03*
X328904D03*
X316904D03*
X334904Y-306615D03*
X322904D03*
X316904D03*
X334904Y-318615D03*
X328904D03*
X322904D03*
X316904D03*
X333919Y-309951D03*
X331893Y-313480D03*
X334904Y-282615D03*
X328904D03*
X322904D03*
X316904D03*
X334904Y-288615D03*
X328904D03*
X322904D03*
X316904D03*
X328904Y-294615D03*
X320093Y-280817D03*
X334904Y-258615D03*
Y-264615D03*
Y-270615D03*
X328904D03*
X334904Y-276615D03*
X328904D03*
X322904D03*
X319594Y-262293D03*
X334904Y-234615D03*
X328904D03*
X322904D03*
X316904D03*
X334904Y-240615D03*
X328904D03*
X322904D03*
X316904D03*
X334904Y-246615D03*
X328904D03*
X322904D03*
X316904D03*
X334904Y-252615D03*
X328904D03*
X322904D03*
X316904D03*
X313958Y-219948D03*
X334904Y-216615D03*
X322904D03*
X316904D03*
X334904Y-222615D03*
X322904D03*
X316904D03*
X334904Y-228615D03*
X329125Y-227806D03*
X313958Y-192598D03*
X322904Y-192615D03*
Y-198615D03*
Y-204615D03*
Y-210615D03*
X317095Y-201106D03*
X317344Y-205094D03*
X317200Y-197447D03*
Y-210447D03*
X317450Y-192947D03*
X315533Y-188810D03*
X328904Y-168615D03*
X322904D03*
X316904D03*
X322904Y-174615D03*
Y-180615D03*
Y-186615D03*
X317171Y-175159D03*
X317280Y-173258D03*
X317124Y-181000D03*
X317450Y-185447D03*
X329444Y-171811D03*
X328904Y-156615D03*
X334904Y-162615D03*
X328904D03*
X322904D03*
X316904D03*
X320792Y-149838D03*
X334904Y-126615D03*
X335090Y-135672D03*
X335278Y-137660D03*
X329154Y-136437D03*
X321630Y-123535D03*
X333017Y-137527D03*
X328546Y-140127D03*
X334904Y-114615D03*
Y-120615D03*
X320171Y-121303D03*
X330883Y-100418D03*
X321074Y-113503D03*
X322904Y-78615D03*
X316904D03*
X317518Y-96863D03*
X325633Y-87055D03*
X334904Y-72615D03*
X328904D03*
X322904D03*
X316904D03*
X322904Y-36615D03*
X316904D03*
X334904Y-42615D03*
X316904D03*
X334904Y-48615D03*
X328904D03*
X322904D03*
X316904D03*
X322904Y-54615D03*
X316904D03*
X319642Y-54352D03*
X334904Y-12615D03*
X328904D03*
X334904Y-18615D03*
Y-24615D03*
X322904D03*
Y-30615D03*
X316904D03*
X334904Y-6615D03*
X328904D03*
X352904Y-324615D03*
Y-330615D03*
X346904Y-300615D03*
X340905D03*
X352904Y-306615D03*
X346904D03*
X340905D03*
X352904Y-318615D03*
X348075Y-317804D03*
X340905Y-318615D03*
X346904Y-282615D03*
X340905D03*
X351269Y-287855D03*
X352904Y-258615D03*
X346904D03*
X340905D03*
X352904Y-264615D03*
X346904D03*
X340905D03*
X352904Y-270615D03*
X346904D03*
X340905D03*
X352904Y-276615D03*
X346904D03*
X340905D03*
Y-234615D03*
Y-240615D03*
Y-246615D03*
X352904Y-252615D03*
X346904D03*
X340905D03*
X352904Y-216615D03*
X340905D03*
X352904Y-222615D03*
X340905D03*
Y-228615D03*
X352904Y-192615D03*
X346904D03*
Y-198615D03*
X340905Y-210615D03*
X350743Y-193275D03*
X346007Y-207641D03*
X346904Y-168615D03*
X352904Y-150615D03*
X346904D03*
X352904Y-156615D03*
X346904D03*
X340905D03*
X347131Y-161303D03*
X341794Y-149838D03*
X340905Y-126615D03*
X343963Y-136590D03*
X344648Y-134630D03*
X355922Y-133852D03*
X337907Y-138363D03*
X356317Y-140176D03*
X345951Y-137932D03*
X341794Y-136742D03*
X347762Y-134040D03*
X351778Y-130154D03*
X343924Y-143792D03*
X340905Y-114615D03*
Y-120615D03*
X352904Y-102615D03*
X343109Y-104206D03*
X355637Y-115810D03*
X337569Y-102178D03*
X353429Y-121334D03*
X345609Y-94621D03*
X345558Y-97448D03*
X342173Y-94232D03*
X339956Y-90880D03*
X337535Y-86479D03*
X343662Y-91134D03*
X343781Y-88714D03*
X343848Y-86056D03*
X352904Y-72615D03*
X346904D03*
X340905D03*
X352904Y-48615D03*
X346904D03*
X340905D03*
X352904Y-54615D03*
Y-12615D03*
Y-18615D03*
Y-24615D03*
Y-30615D03*
Y-6615D03*
X370904Y-324615D03*
X364904D03*
X358904D03*
X370904Y-330615D03*
X364904D03*
X358904D03*
X376904Y-300615D03*
Y-306615D03*
X370904D03*
X364904D03*
X358904D03*
X376904Y-312615D03*
X370904D03*
X364904D03*
X358904D03*
X370904Y-318615D03*
X364904D03*
X358904D03*
X376904Y-282615D03*
Y-294615D03*
X370358Y-290253D03*
X377796Y-297860D03*
X358904Y-258615D03*
Y-264615D03*
Y-276615D03*
X364904Y-234615D03*
X358904D03*
Y-240615D03*
Y-246615D03*
Y-252615D03*
X376904Y-216615D03*
X364904D03*
X358904D03*
X376904Y-222615D03*
X364904D03*
X358904D03*
X370904Y-228615D03*
X364904D03*
X358904D03*
X370684Y-224736D03*
X376904Y-192615D03*
X364904Y-204615D03*
X358904D03*
X364904Y-210615D03*
X358904D03*
X364904Y-186615D03*
X370330Y-188923D03*
X376904Y-144615D03*
X370904D03*
X376904Y-150615D03*
X370904D03*
X364904D03*
X358904D03*
X370904Y-156615D03*
X364904D03*
X358904D03*
X358323Y-146861D03*
X369656Y-165833D03*
X364904Y-126615D03*
X370904Y-132615D03*
X364904D03*
X376904Y-138615D03*
X370904D03*
X358780Y-135228D03*
X359689Y-127077D03*
X376904Y-102615D03*
X364904D03*
X376904Y-108615D03*
Y-114615D03*
X364904D03*
X372876Y-100764D03*
X376904Y-78615D03*
X370904D03*
X364904D03*
X376904Y-84615D03*
X370904D03*
X364904D03*
X376904Y-90615D03*
X370904D03*
X364904D03*
X376904Y-96615D03*
X370904D03*
X364904D03*
X358904D03*
X376904Y-60615D03*
X370904D03*
X364904D03*
X376904Y-66615D03*
X370904D03*
X364904D03*
X376904Y-72615D03*
X370904D03*
X364904D03*
X358904D03*
X362512Y-62117D03*
X360111Y-65129D03*
X376904Y-36615D03*
X370904D03*
X364904D03*
X358904D03*
X376904Y-42615D03*
X370904D03*
X364904D03*
X358904D03*
X376904Y-48615D03*
X370904D03*
X364904D03*
X358904D03*
X376904Y-54615D03*
X370904D03*
X364904D03*
X358904D03*
X364904Y-12615D03*
X358904D03*
X370904Y-18615D03*
X364904D03*
X358904D03*
X376904Y-24615D03*
X370904D03*
X364904D03*
X358904D03*
X376904Y-30615D03*
X370904D03*
X364904D03*
X358904D03*
X370904Y-6615D03*
X364904D03*
X358904D03*
X388905Y-300615D03*
Y-306615D03*
X382904D03*
X388905Y-312615D03*
Y-288615D03*
Y-294615D03*
Y-258615D03*
Y-264615D03*
X382904D03*
X388905Y-270615D03*
X382904D03*
X388905Y-276615D03*
X382904D03*
X386631Y-218311D03*
X388905Y-192615D03*
Y-198615D03*
Y-204615D03*
Y-168615D03*
Y-174615D03*
Y-186615D03*
Y-144615D03*
X382904D03*
X388905Y-150615D03*
X382904D03*
X388905Y-156615D03*
Y-162615D03*
Y-126615D03*
X382904D03*
X388905Y-132615D03*
X382904D03*
X388905Y-138615D03*
X382904D03*
X388905Y-102615D03*
X382904D03*
X388905Y-108615D03*
X382904D03*
X388905Y-114615D03*
X382904D03*
X388905Y-120615D03*
X382904D03*
X388905Y-78615D03*
X382904D03*
X388905Y-84615D03*
X382904D03*
X388905Y-90615D03*
X382904D03*
X388905Y-96615D03*
X382904D03*
X388905Y-60615D03*
X382904D03*
X388905Y-66615D03*
X382904D03*
X388905Y-72615D03*
X382904D03*
X388905Y-36615D03*
X382904D03*
X388905Y-42615D03*
X382904D03*
X388905Y-48615D03*
X382904D03*
X388905Y-54615D03*
X382904D03*
X388905Y-24615D03*
X382904D03*
X388905Y-30615D03*
X382904D03*
G54D21*
X31218Y233679D03*
X245804Y-43246D03*
X290804D03*
G54D12*
X22605Y-129837D03*
X38052Y-311960D03*
X37032Y-318329D03*
X35174Y-314091D03*
X35287Y-309331D03*
X39503Y-307224D03*
X44112Y-303927D03*
X41686Y-286337D03*
X40848Y-277239D03*
X42274Y-266836D03*
X38398Y-266938D03*
X38534Y-263333D03*
X38635Y-259186D03*
X35030Y-254852D03*
X38720Y-254700D03*
X36543Y-194767D03*
X43545Y-171676D03*
X26142Y-76113D03*
X31218Y402279D03*
X61366Y-292196D03*
X55315Y-292011D03*
X55686Y-287443D03*
X61135Y-287124D03*
X66675Y-292078D03*
X66742Y-287275D03*
X59495Y-281562D03*
X66646Y-281612D03*
X52736Y-199479D03*
X72952Y-323036D03*
X77827Y-323020D03*
X82583Y-328013D03*
X77895Y-328233D03*
X73342Y-328098D03*
X82922Y-322969D03*
X87086Y-323138D03*
Y-327742D03*
X82534Y-262651D03*
X82822Y-258132D03*
X87426Y-258216D03*
X85226Y-254653D03*
X78010Y-195270D03*
X113154Y-321736D03*
X108483Y-321724D03*
X113168Y-317174D03*
X106798Y-313095D03*
X108348Y-317190D03*
X104084Y-320079D03*
X111515Y-271711D03*
X119791Y-307651D03*
X116182Y-286602D03*
X309360Y-14920D03*
X309284Y-19623D03*
X310383Y-23134D03*
X313910Y-10464D03*
X309398Y-10325D03*
X309296Y-5159D03*
X334595Y-296371D03*
X334814Y-291871D03*
X335342Y-188365D03*
X330669Y-188408D03*
X335396Y-193755D03*
X330669Y-193569D03*
X320402Y-87102D03*
X314319Y-5327D03*
X340190Y-291854D03*
X340291Y-296286D03*
X350842Y-296421D03*
X340248Y-188439D03*
X340712Y-193569D03*
X340557Y-198638D03*
X340928Y-203460D03*
X373241Y-261865D03*
X373309Y-267932D03*
X373241Y-275145D03*
X367039Y-257348D03*
X375870Y-256944D03*
X389656Y-237293D03*
X389589Y-243427D03*
X384971Y-251550D03*
X384702Y-245416D03*
X384499Y-236517D03*
X389858Y-216462D03*
Y-221653D03*
Y-226540D03*
X389791Y-231461D03*
X384364Y-230383D03*
G54D22*
X31218Y261779D03*
X237812Y-55254D03*
X298796D03*
G54D13*
X15490Y-107933D03*
X21658Y-75590D03*
X43580Y-289715D03*
X36583Y-164114D03*
X28601Y-138106D03*
X31218Y458479D03*
X60347Y-302390D03*
X48440Y-274640D03*
X50850Y-131864D03*
X50439Y-122349D03*
X80000Y-289669D03*
X79395Y-280037D03*
X78110Y-171698D03*
X108048Y-292382D03*
X110458Y-249196D03*
X96223Y-230436D03*
X109492Y-169029D03*
X113385Y-168945D03*
X112945Y-166372D03*
X109238Y-166236D03*
X99981Y-147900D03*
X111826Y-52526D03*
X121543Y-261594D03*
X121526Y-265250D03*
X121560Y-271479D03*
X126521Y-266056D03*
X121560Y-268466D03*
X121449Y-274476D03*
X115967Y-245998D03*
X119284Y-244306D03*
X120639Y-240514D03*
X124566Y-240582D03*
X128120Y-240446D03*
X128018Y-237298D03*
X124295D03*
X120876Y-237196D03*
X117084Y-237027D03*
X119149Y-233540D03*
X123485Y-231854D03*
X116957Y-168928D03*
X117126Y-166372D03*
X134806Y-122855D03*
X119915Y-39875D03*
X157149Y-310374D03*
X145450Y-233937D03*
X143304Y-248945D03*
X169659Y-88201D03*
X190230Y-114904D03*
X205444Y-114513D03*
X299628Y-308982D03*
X301926Y-258803D03*
X328394Y-257082D03*
G54D23*
X31218Y289879D03*
X379631Y-175298D03*
Y-159708D03*
G54D14*
X10313Y-53734D03*
Y-63734D03*
Y-43734D03*
X40343Y-42298D03*
X46925Y-21572D03*
X31218Y346079D03*
X50343Y-42298D03*
X60343D03*
X70343D03*
X56925Y-21572D03*
G54D24*
X31218Y317979D03*
X245824Y-68246D03*
X242221Y-23955D03*
X250824Y-78246D03*
X260824D03*
X270824D03*
X255824Y-68246D03*
X265824D03*
X252221Y-23955D03*
X280824Y-78246D03*
X290824D03*
X275824Y-68246D03*
X285824D03*
X284387Y-23955D03*
X294387D03*
G54D15*
X31218Y36979D03*
X330050Y-31264D03*
G54D25*
X31218Y374179D03*
X128104Y-312151D03*
X147198D03*
G54D16*
X31218Y65079D03*
X337924Y-53705D03*
X347767Y-43075D03*
G54D26*
X31218Y430379D03*
X175710Y-322149D03*
X180631D03*
G54D17*
X31218Y93179D03*
X156271Y-37475D03*
X213358D03*
G54D27*
G01X0Y0D02*
X393701D01*
Y-334646D01*
X0D01*
Y0D01*
G01Y-9842D02*
Y-403328D01*
G01X-13732Y22929D02*
Y581829D01*
X469868D01*
Y22929D01*
X-13732D01*
G01Y51029D02*
X469868D01*
G01X-13732Y79129D02*
X469868D01*
G01X-13732Y107229D02*
X469868D01*
G01X-13732Y135329D02*
X469868D01*
G01X-13732Y163429D02*
X469868D01*
G01X-13732Y191529D02*
X469868D01*
G01X-13732Y219629D02*
X469868D01*
G01X-13732Y247729D02*
X469868D01*
G01X-13732Y275829D02*
X469868D01*
G01X-13732Y303929D02*
X469868D01*
G01X-13732Y332029D02*
X469868D01*
G01X-13732Y360129D02*
X469868D01*
G01X-13732Y388229D02*
X469868D01*
G01X-13732Y416329D02*
X469868D01*
G01X-13732Y444429D02*
X469868D01*
G01X-13732Y472529D02*
X469868D01*
G01X-2728Y509979D02*
Y522479D01*
X3163D01*
G01X993Y516438D02*
X-2728D01*
G01X10758Y522479D02*
X14477D01*
G01X12618D02*
Y509979D01*
G01X10758D02*
X14477D01*
G01X25948Y516229D02*
X29048D01*
Y512479D01*
X28118Y511229D01*
X27033Y510396D01*
X25483Y509979D01*
X23933Y510396D01*
X22848Y511229D01*
X21918Y512479D01*
X21297Y513938D01*
X20988Y515604D01*
Y517063D01*
X21297Y518313D01*
X21918Y519771D01*
X22848Y521021D01*
X23777Y521854D01*
X25018Y522479D01*
X26102D01*
X27343Y522063D01*
X28273Y521229D01*
G01X34008Y522479D02*
Y513521D01*
X34628Y511646D01*
X35868Y510396D01*
X37418Y509979D01*
X38968Y510396D01*
X40208Y511646D01*
X40828Y513521D01*
Y522479D01*
G01X46718Y509979D02*
Y522479D01*
X50593D01*
X51833Y521854D01*
X52608Y521021D01*
X52918Y519354D01*
X52608Y517688D01*
X51678Y516646D01*
X50593Y516021D01*
X46718D01*
G01X50593D02*
X52918Y509979D01*
G01X65318D02*
X59118D01*
Y522479D01*
X65318D01*
G01X62838Y516438D02*
X59118D01*
G01X-13732Y500629D02*
X469868D01*
G01X-13732Y528729D02*
X469868D01*
G01X-13732Y556829D02*
X469868D01*
G01X90118Y30729D02*
Y43229D01*
X88258Y40730D01*
G01Y30729D02*
X91977D01*
G01X99573Y41146D02*
X100503Y42396D01*
X101588Y43021D01*
X102828Y43229D01*
X104378Y42813D01*
X105463Y41771D01*
X105773Y40521D01*
X105618Y39271D01*
X104997Y38229D01*
X101898Y36146D01*
X100503Y34688D01*
X99573Y32604D01*
X99263Y30729D01*
X105773D01*
G01X111972Y41146D02*
X112903Y42396D01*
X113988Y43021D01*
X115228Y43229D01*
X116778Y42813D01*
X117863Y41771D01*
X118173Y40521D01*
X118018Y39271D01*
X117398Y38229D01*
X114298Y36146D01*
X112903Y34688D01*
X111972Y32604D01*
X111663Y30729D01*
X118173D01*
G01X127318Y30313D02*
X127008Y30521D01*
Y30938D01*
X127318Y31146D01*
X127628Y30938D01*
Y30521D01*
X127318Y30313D01*
G01X139718Y43229D02*
X138477Y42813D01*
X137548Y41771D01*
X136928Y40521D01*
X136463Y38854D01*
X136308Y36979D01*
X136463Y35104D01*
X136928Y33438D01*
X137548Y32187D01*
X138477Y31146D01*
X139718Y30729D01*
X140958Y31146D01*
X141888Y32187D01*
X142508Y33438D01*
X142973Y35104D01*
X143128Y36979D01*
X142973Y38854D01*
X142508Y40521D01*
X141888Y41771D01*
X140958Y42813D01*
X139718Y43229D01*
G01X153978Y30729D02*
Y43229D01*
X148242Y34271D01*
X155993D01*
G01X164208Y30729D02*
X164518Y33438D01*
X164983Y35729D01*
X165602Y37813D01*
X166378Y40104D01*
X167618Y43229D01*
X161418D01*
G01X174593Y39062D02*
X179242Y30729D01*
G01Y39062D02*
X174593Y30729D01*
G01X185908Y33229D02*
X186837Y31771D01*
X188077Y30938D01*
X189473Y30729D01*
X190713Y30938D01*
X191953Y31979D01*
X192728Y33229D01*
X192882Y34479D01*
X192573Y35937D01*
X191488Y36979D01*
X190402Y37396D01*
X189008D01*
G01X190402D02*
X191333Y38021D01*
X192108Y39062D01*
X192418Y40313D01*
X192108Y41563D01*
X191333Y42604D01*
X189938Y43229D01*
X188543Y43021D01*
X187148Y42188D01*
G01X201718Y30729D02*
Y43229D01*
X199858Y40730D01*
G01Y30729D02*
X203577D01*
G01X214118Y30313D02*
X213807Y30521D01*
Y30938D01*
X214118Y31146D01*
X214428Y30938D01*
Y30521D01*
X214118Y30313D01*
G01X228378Y30729D02*
Y43229D01*
X222642Y34271D01*
X230393D01*
G01X236282Y32187D02*
X237368Y31146D01*
X238608Y30729D01*
X239848Y31146D01*
X240933Y32396D01*
X241708Y34271D01*
X242018Y36146D01*
Y38438D01*
X241708Y40313D01*
X240933Y41979D01*
X240003Y42813D01*
X238918Y43229D01*
X237677Y42813D01*
X236748Y41979D01*
X236128Y40730D01*
X235818Y39062D01*
X236128Y37604D01*
X236903Y36146D01*
X237833Y35312D01*
X238918Y35104D01*
X240157Y35521D01*
X241088Y36563D01*
X242018Y38438D01*
G01X248373Y35937D02*
X249458Y37396D01*
X250388Y38229D01*
X251628Y38646D01*
X252713Y38229D01*
X253488Y37396D01*
X254108Y36146D01*
X254263Y34688D01*
X254108Y33438D01*
X253488Y32187D01*
X252558Y31146D01*
X251473Y30729D01*
X250233Y31146D01*
X249148Y32396D01*
X248528Y34271D01*
X248373Y36354D01*
X248682Y39062D01*
X249148Y40521D01*
X249922Y41979D01*
X251008Y43021D01*
X252093Y43229D01*
X253178Y42813D01*
X253953Y41771D01*
G01X76168Y528729D02*
Y22929D01*
G01X90118Y58829D02*
Y71329D01*
X88258Y68830D01*
G01Y58829D02*
X91977D01*
G01X99573Y69246D02*
X100503Y70496D01*
X101588Y71121D01*
X102828Y71329D01*
X104378Y70913D01*
X105463Y69871D01*
X105773Y68621D01*
X105618Y67371D01*
X104997Y66329D01*
X101898Y64246D01*
X100503Y62788D01*
X99573Y60704D01*
X99263Y58829D01*
X105773D01*
G01X111972Y69246D02*
X112903Y70496D01*
X113988Y71121D01*
X115228Y71329D01*
X116778Y70913D01*
X117863Y69871D01*
X118173Y68621D01*
X118018Y67371D01*
X117398Y66329D01*
X114298Y64246D01*
X112903Y62788D01*
X111972Y60704D01*
X111663Y58829D01*
X118173D01*
G01X127318Y58413D02*
X127008Y58621D01*
Y59038D01*
X127318Y59246D01*
X127628Y59038D01*
Y58621D01*
X127318Y58413D01*
G01X139718Y71329D02*
X138477Y70913D01*
X137548Y69871D01*
X136928Y68621D01*
X136463Y66954D01*
X136308Y65079D01*
X136463Y63204D01*
X136928Y61538D01*
X137548Y60287D01*
X138477Y59246D01*
X139718Y58829D01*
X140958Y59246D01*
X141888Y60287D01*
X142508Y61538D01*
X142973Y63204D01*
X143128Y65079D01*
X142973Y66954D01*
X142508Y68621D01*
X141888Y69871D01*
X140958Y70913D01*
X139718Y71329D01*
G01X153978Y58829D02*
Y71329D01*
X148242Y62371D01*
X155993D01*
G01X164208Y58829D02*
X164518Y61538D01*
X164983Y63829D01*
X165602Y65913D01*
X166378Y68204D01*
X167618Y71329D01*
X161418D01*
G01X174593Y67162D02*
X179242Y58829D01*
G01Y67162D02*
X174593Y58829D01*
G01X185908Y61329D02*
X186837Y59871D01*
X188077Y59038D01*
X189473Y58829D01*
X190713Y59038D01*
X191953Y60079D01*
X192728Y61329D01*
X192882Y62579D01*
X192573Y64037D01*
X191488Y65079D01*
X190402Y65496D01*
X189008D01*
G01X190402D02*
X191333Y66121D01*
X192108Y67162D01*
X192418Y68413D01*
X192108Y69663D01*
X191333Y70704D01*
X189938Y71329D01*
X188543Y71121D01*
X187148Y70288D01*
G01X201718Y58829D02*
Y71329D01*
X199858Y68830D01*
G01Y58829D02*
X203577D01*
G01X214118Y58413D02*
X213807Y58621D01*
Y59038D01*
X214118Y59246D01*
X214428Y59038D01*
Y58621D01*
X214118Y58413D01*
G01X228378Y58829D02*
Y71329D01*
X222642Y62371D01*
X230393D01*
G01X236282Y60287D02*
X237368Y59246D01*
X238608Y58829D01*
X239848Y59246D01*
X240933Y60496D01*
X241708Y62371D01*
X242018Y64246D01*
Y66538D01*
X241708Y68413D01*
X240933Y70079D01*
X240003Y70913D01*
X238918Y71329D01*
X237677Y70913D01*
X236748Y70079D01*
X236128Y68830D01*
X235818Y67162D01*
X236128Y65704D01*
X236903Y64246D01*
X237833Y63413D01*
X238918Y63204D01*
X240157Y63621D01*
X241088Y64663D01*
X242018Y66538D01*
G01X248373Y64037D02*
X249458Y65496D01*
X250388Y66329D01*
X251628Y66746D01*
X252713Y66329D01*
X253488Y65496D01*
X254108Y64246D01*
X254263Y62788D01*
X254108Y61538D01*
X253488Y60287D01*
X252558Y59246D01*
X251473Y58829D01*
X250233Y59246D01*
X249148Y60496D01*
X248528Y62371D01*
X248373Y64454D01*
X248682Y67162D01*
X249148Y68621D01*
X249922Y70079D01*
X251008Y71121D01*
X252093Y71329D01*
X253178Y70913D01*
X253953Y69871D01*
G01X90118Y86929D02*
Y99429D01*
X88258Y96930D01*
G01Y86929D02*
X91977D01*
G01X102518Y99429D02*
X101277Y99013D01*
X100348Y97971D01*
X99728Y96721D01*
X99263Y95054D01*
X99108Y93179D01*
X99263Y91304D01*
X99728Y89638D01*
X100348Y88387D01*
X101277Y87346D01*
X102518Y86929D01*
X103758Y87346D01*
X104688Y88387D01*
X105308Y89638D01*
X105773Y91304D01*
X105928Y93179D01*
X105773Y95054D01*
X105308Y96721D01*
X104688Y97971D01*
X103758Y99013D01*
X102518Y99429D01*
G01X111972Y92137D02*
X113058Y93596D01*
X113988Y94429D01*
X115228Y94846D01*
X116313Y94429D01*
X117088Y93596D01*
X117708Y92346D01*
X117863Y90888D01*
X117708Y89638D01*
X117088Y88387D01*
X116158Y87346D01*
X115073Y86929D01*
X113833Y87346D01*
X112748Y88596D01*
X112128Y90471D01*
X111972Y92554D01*
X112282Y95262D01*
X112748Y96721D01*
X113522Y98179D01*
X114608Y99221D01*
X115693Y99429D01*
X116778Y99013D01*
X117553Y97971D01*
G01X127318Y86513D02*
X127008Y86721D01*
Y87138D01*
X127318Y87346D01*
X127628Y87138D01*
Y86721D01*
X127318Y86513D01*
G01X136772Y97346D02*
X137703Y98596D01*
X138788Y99221D01*
X140028Y99429D01*
X141578Y99013D01*
X142663Y97971D01*
X142973Y96721D01*
X142818Y95471D01*
X142198Y94429D01*
X139098Y92346D01*
X137703Y90888D01*
X136772Y88804D01*
X136463Y86929D01*
X142973D01*
G01X149482Y88387D02*
X150568Y87346D01*
X151808Y86929D01*
X153048Y87346D01*
X154133Y88596D01*
X154908Y90471D01*
X155218Y92346D01*
Y94638D01*
X154908Y96513D01*
X154133Y98179D01*
X153203Y99013D01*
X152118Y99429D01*
X150877Y99013D01*
X149948Y98179D01*
X149328Y96930D01*
X149018Y95262D01*
X149328Y93804D01*
X150103Y92346D01*
X151033Y91512D01*
X152118Y91304D01*
X153358Y91721D01*
X154288Y92763D01*
X155218Y94638D01*
G01X161883Y88387D02*
X162968Y87346D01*
X164208Y86929D01*
X165448Y87346D01*
X166533Y88596D01*
X167308Y90471D01*
X167618Y92346D01*
Y94638D01*
X167308Y96513D01*
X166533Y98179D01*
X165602Y99013D01*
X164518Y99429D01*
X163277Y99013D01*
X162348Y98179D01*
X161728Y96930D01*
X161418Y95262D01*
X161728Y93804D01*
X162503Y92346D01*
X163433Y91512D01*
X164518Y91304D01*
X165758Y91721D01*
X166688Y92763D01*
X167618Y94638D01*
G01X174593Y95262D02*
X179242Y86929D01*
G01Y95262D02*
X174593Y86929D01*
G01X185908Y89429D02*
X186837Y87971D01*
X188077Y87138D01*
X189473Y86929D01*
X190713Y87138D01*
X191953Y88179D01*
X192728Y89429D01*
X192882Y90679D01*
X192573Y92137D01*
X191488Y93179D01*
X190402Y93596D01*
X189008D01*
G01X190402D02*
X191333Y94221D01*
X192108Y95262D01*
X192418Y96513D01*
X192108Y97763D01*
X191333Y98804D01*
X189938Y99429D01*
X188543Y99221D01*
X187148Y98388D01*
G01X198308Y88804D02*
X199237Y87763D01*
X200322Y87138D01*
X201718Y86929D01*
X203113Y87346D01*
X204198Y88179D01*
X204973Y89638D01*
X205128Y91304D01*
X204818Y92971D01*
X204042Y94013D01*
X202958Y94846D01*
X201873Y95054D01*
X200788Y94846D01*
X199393Y94013D01*
X199858Y99429D01*
X204042D01*
G01X214118Y86513D02*
X213807Y86721D01*
Y87138D01*
X214118Y87346D01*
X214428Y87138D01*
Y86721D01*
X214118Y86513D01*
G01X228378Y86929D02*
Y99429D01*
X222642Y90471D01*
X230393D01*
G01X235972Y97346D02*
X236903Y98596D01*
X237988Y99221D01*
X239228Y99429D01*
X240778Y99013D01*
X241863Y97971D01*
X242173Y96721D01*
X242018Y95471D01*
X241397Y94429D01*
X238298Y92346D01*
X236903Y90888D01*
X235972Y88804D01*
X235663Y86929D01*
X242173D01*
G01X248682Y88387D02*
X249768Y87346D01*
X251008Y86929D01*
X252248Y87346D01*
X253333Y88596D01*
X254108Y90471D01*
X254418Y92346D01*
Y94638D01*
X254108Y96513D01*
X253333Y98179D01*
X252402Y99013D01*
X251318Y99429D01*
X250077Y99013D01*
X249148Y98179D01*
X248528Y96930D01*
X248218Y95262D01*
X248528Y93804D01*
X249303Y92346D01*
X250233Y91512D01*
X251318Y91304D01*
X252558Y91721D01*
X253488Y92763D01*
X254418Y94638D01*
G01X69658Y563079D02*
Y575579D01*
X72758D01*
X73998Y574954D01*
X74928Y574121D01*
X75703Y572871D01*
X76323Y571412D01*
X76478Y569329D01*
X76323Y567246D01*
X75703Y565788D01*
X74928Y564537D01*
X73998Y563704D01*
X72758Y563079D01*
X69658D01*
G01X82368D02*
Y575579D01*
X86243D01*
X87483Y574954D01*
X88258Y574121D01*
X88568Y572454D01*
X88258Y570788D01*
X87328Y569746D01*
X86243Y569121D01*
X82368D01*
G01X86243D02*
X88568Y563079D01*
G01X96008Y575579D02*
X99727D01*
G01X97868D02*
Y563079D01*
G01X96008D02*
X99727D01*
G01X107168Y575579D02*
Y563079D01*
X113368D01*
G01X119568Y575579D02*
Y563079D01*
X125768D01*
G01X150878Y574538D02*
X149948Y575163D01*
X148863Y575579D01*
X147623D01*
X146227Y574954D01*
X145143Y573913D01*
X144368Y572663D01*
X143747Y570579D01*
X143592Y568704D01*
X143903Y566829D01*
X144368Y565579D01*
X145298Y564329D01*
X146383Y563496D01*
X147468Y563079D01*
X148553D01*
X149638Y563496D01*
X150568Y564121D01*
X151343Y564954D01*
G01X156613Y563079D02*
Y575579D01*
G01X163123D02*
Y563079D01*
G01Y569329D02*
X156613D01*
G01X168392Y563079D02*
X172268Y575579D01*
X176143Y563079D01*
G01X174748Y567454D02*
X169787D01*
G01X181568Y563079D02*
Y575579D01*
X185443D01*
X186683Y574954D01*
X187458Y574121D01*
X187768Y572454D01*
X187458Y570788D01*
X186528Y569746D01*
X185443Y569121D01*
X181568D01*
G01X185443D02*
X187768Y563079D01*
G01X197068Y575579D02*
Y563079D01*
G01X193503Y575579D02*
X200632D01*
G01X209468Y562663D02*
X209157Y562871D01*
Y563288D01*
X209468Y563496D01*
X209778Y563288D01*
Y562871D01*
X209468Y562663D01*
G01Y568287D02*
X209157Y568496D01*
Y568913D01*
X209468Y569121D01*
X209778Y568913D01*
Y568496D01*
X209468Y568287D01*
G01X234268Y575579D02*
Y563079D01*
G01X230703Y575579D02*
X237832D01*
G01X246668Y563079D02*
X245427Y563288D01*
X244343Y564121D01*
X243413Y565371D01*
X242792Y566829D01*
X242482Y568496D01*
Y570163D01*
X242792Y571829D01*
X243413Y573288D01*
X244343Y574538D01*
X245427Y575371D01*
X246668Y575579D01*
X247908Y575371D01*
X248993Y574538D01*
X249923Y573288D01*
X250543Y571829D01*
X250853Y570163D01*
Y568496D01*
X250543Y566829D01*
X249923Y565371D01*
X248993Y564121D01*
X247908Y563288D01*
X246668Y563079D01*
G01X255968D02*
Y575579D01*
X259688D01*
X260928Y574954D01*
X261858Y573496D01*
X262168Y571829D01*
X261858Y570163D01*
X261083Y568913D01*
X259688Y568287D01*
X255968D01*
G01X283868Y575579D02*
Y563079D01*
G01X281698Y571412D02*
X286038D01*
G01X296268Y563079D02*
X295338Y563288D01*
X294408Y564121D01*
X293787Y565579D01*
X293478Y567246D01*
X293787Y568913D01*
X294408Y570371D01*
X295338Y571204D01*
X296268Y571412D01*
X297198Y571204D01*
X298128Y570371D01*
X298748Y568913D01*
X298903Y567246D01*
X298748Y565579D01*
X298128Y564121D01*
X297198Y563288D01*
X296268Y563079D01*
G01X322307Y569746D02*
X322928Y570371D01*
X323392Y571412D01*
X323703Y572871D01*
X323392Y574121D01*
X322773Y574954D01*
X321688Y575579D01*
X317503D01*
Y563079D01*
X322618D01*
X323703Y563913D01*
X324323Y565163D01*
X324632Y566621D01*
X324323Y568079D01*
X323392Y569329D01*
X322307Y569746D01*
X317503D01*
G01X333468Y563079D02*
X332227Y563288D01*
X331143Y564121D01*
X330213Y565371D01*
X329592Y566829D01*
X329282Y568496D01*
Y570163D01*
X329592Y571829D01*
X330213Y573288D01*
X331143Y574538D01*
X332227Y575371D01*
X333468Y575579D01*
X334708Y575371D01*
X335792Y574538D01*
X336723Y573288D01*
X337343Y571829D01*
X337653Y570163D01*
Y568496D01*
X337343Y566829D01*
X336723Y565371D01*
X335792Y564121D01*
X334708Y563288D01*
X333468Y563079D01*
G01X345868Y575579D02*
Y563079D01*
G01X342303Y575579D02*
X349432D01*
G01X358268D02*
Y563079D01*
G01X354703Y575579D02*
X361832D01*
G01X370668Y563079D02*
X369427Y563288D01*
X368343Y564121D01*
X367413Y565371D01*
X366792Y566829D01*
X366482Y568496D01*
Y570163D01*
X366792Y571829D01*
X367413Y573288D01*
X368343Y574538D01*
X369427Y575371D01*
X370668Y575579D01*
X371907Y575371D01*
X372992Y574538D01*
X373923Y573288D01*
X374543Y571829D01*
X374853Y570163D01*
Y568496D01*
X374543Y566829D01*
X373923Y565371D01*
X372992Y564121D01*
X371907Y563288D01*
X370668Y563079D01*
G01X379038D02*
Y575579D01*
X383068Y565163D01*
X387098Y575579D01*
Y563079D01*
G01X99573Y120237D02*
X100658Y121696D01*
X101588Y122529D01*
X102828Y122946D01*
X103913Y122529D01*
X104688Y121696D01*
X105308Y120446D01*
X105463Y118988D01*
X105308Y117738D01*
X104688Y116487D01*
X103758Y115446D01*
X102673Y115029D01*
X101433Y115446D01*
X100348Y116696D01*
X99728Y118571D01*
X99573Y120654D01*
X99883Y123362D01*
X100348Y124821D01*
X101122Y126279D01*
X102208Y127321D01*
X103293Y127529D01*
X104378Y127113D01*
X105153Y126071D01*
G01X111972Y120237D02*
X113058Y121696D01*
X113988Y122529D01*
X115228Y122946D01*
X116313Y122529D01*
X117088Y121696D01*
X117708Y120446D01*
X117863Y118988D01*
X117708Y117738D01*
X117088Y116487D01*
X116158Y115446D01*
X115073Y115029D01*
X113833Y115446D01*
X112748Y116696D01*
X112128Y118571D01*
X111972Y120654D01*
X112282Y123362D01*
X112748Y124821D01*
X113522Y126279D01*
X114608Y127321D01*
X115693Y127529D01*
X116778Y127113D01*
X117553Y126071D01*
G01X127318Y114613D02*
X127008Y114821D01*
Y115238D01*
X127318Y115446D01*
X127628Y115238D01*
Y114821D01*
X127318Y114613D01*
G01X137083Y116487D02*
X138168Y115446D01*
X139408Y115029D01*
X140648Y115446D01*
X141733Y116696D01*
X142508Y118571D01*
X142818Y120446D01*
Y122738D01*
X142508Y124613D01*
X141733Y126279D01*
X140802Y127113D01*
X139718Y127529D01*
X138477Y127113D01*
X137548Y126279D01*
X136928Y125030D01*
X136618Y123362D01*
X136928Y121905D01*
X137703Y120446D01*
X138633Y119613D01*
X139718Y119404D01*
X140958Y119821D01*
X141888Y120863D01*
X142818Y122738D01*
G01X149172Y125446D02*
X150103Y126696D01*
X151188Y127321D01*
X152428Y127529D01*
X153978Y127113D01*
X155063Y126071D01*
X155373Y124821D01*
X155218Y123571D01*
X154598Y122529D01*
X151498Y120446D01*
X150103Y118988D01*
X149172Y116904D01*
X148863Y115029D01*
X155373D01*
G01X161883Y116487D02*
X162968Y115446D01*
X164208Y115029D01*
X165448Y115446D01*
X166533Y116696D01*
X167308Y118571D01*
X167618Y120446D01*
Y122738D01*
X167308Y124613D01*
X166533Y126279D01*
X165602Y127113D01*
X164518Y127529D01*
X163277Y127113D01*
X162348Y126279D01*
X161728Y125030D01*
X161418Y123362D01*
X161728Y121905D01*
X162503Y120446D01*
X163433Y119613D01*
X164518Y119404D01*
X165758Y119821D01*
X166688Y120863D01*
X167618Y122738D01*
G01X174593Y123362D02*
X179242Y115029D01*
G01Y123362D02*
X174593Y115029D01*
G01X185908Y117529D02*
X186837Y116071D01*
X188077Y115238D01*
X189473Y115029D01*
X190713Y115238D01*
X191953Y116279D01*
X192728Y117529D01*
X192882Y118779D01*
X192573Y120237D01*
X191488Y121279D01*
X190402Y121696D01*
X189008D01*
G01X190402D02*
X191333Y122321D01*
X192108Y123362D01*
X192418Y124613D01*
X192108Y125863D01*
X191333Y126904D01*
X189938Y127529D01*
X188543Y127321D01*
X187148Y126488D01*
G01X199082Y116487D02*
X200168Y115446D01*
X201408Y115029D01*
X202648Y115446D01*
X203733Y116696D01*
X204508Y118571D01*
X204818Y120446D01*
Y122738D01*
X204508Y124613D01*
X203733Y126279D01*
X202802Y127113D01*
X201718Y127529D01*
X200477Y127113D01*
X199548Y126279D01*
X198928Y125030D01*
X198618Y123362D01*
X198928Y121905D01*
X199703Y120446D01*
X200633Y119613D01*
X201718Y119404D01*
X202958Y119821D01*
X203888Y120863D01*
X204818Y122738D01*
G01X214118Y114613D02*
X213807Y114821D01*
Y115238D01*
X214118Y115446D01*
X214428Y115238D01*
Y114821D01*
X214118Y114613D01*
G01X223108Y117529D02*
X224037Y116071D01*
X225277Y115238D01*
X226673Y115029D01*
X227913Y115238D01*
X229153Y116279D01*
X229928Y117529D01*
X230082Y118779D01*
X229773Y120237D01*
X228688Y121279D01*
X227603Y121696D01*
X226207D01*
G01X227603D02*
X228533Y122321D01*
X229308Y123362D01*
X229618Y124613D01*
X229308Y125863D01*
X228533Y126904D01*
X227138Y127529D01*
X225743Y127321D01*
X224348Y126488D01*
G01X238608Y115029D02*
X238918Y117738D01*
X239383Y120029D01*
X240003Y122113D01*
X240778Y124404D01*
X242018Y127529D01*
X235818D01*
G01X93372Y148337D02*
X94458Y149796D01*
X95388Y150629D01*
X96628Y151046D01*
X97713Y150629D01*
X98488Y149796D01*
X99108Y148546D01*
X99263Y147088D01*
X99108Y145838D01*
X98488Y144587D01*
X97558Y143546D01*
X96473Y143129D01*
X95233Y143546D01*
X94148Y144796D01*
X93528Y146671D01*
X93372Y148754D01*
X93682Y151462D01*
X94148Y152921D01*
X94923Y154379D01*
X96008Y155421D01*
X97093Y155629D01*
X98178Y155213D01*
X98953Y154171D01*
G01X105772Y148337D02*
X106858Y149796D01*
X107788Y150629D01*
X109028Y151046D01*
X110113Y150629D01*
X110888Y149796D01*
X111508Y148546D01*
X111663Y147088D01*
X111508Y145838D01*
X110888Y144587D01*
X109958Y143546D01*
X108873Y143129D01*
X107633Y143546D01*
X106548Y144796D01*
X105928Y146671D01*
X105772Y148754D01*
X106083Y151462D01*
X106548Y152921D01*
X107322Y154379D01*
X108408Y155421D01*
X109493Y155629D01*
X110578Y155213D01*
X111353Y154171D01*
G01X121117Y142713D02*
X120808Y142921D01*
Y143338D01*
X121117Y143546D01*
X121428Y143338D01*
Y142921D01*
X121117Y142713D01*
G01X130883Y144587D02*
X131968Y143546D01*
X133208Y143129D01*
X134448Y143546D01*
X135533Y144796D01*
X136308Y146671D01*
X136618Y148546D01*
Y150838D01*
X136308Y152713D01*
X135533Y154379D01*
X134602Y155213D01*
X133518Y155629D01*
X132277Y155213D01*
X131348Y154379D01*
X130728Y153130D01*
X130418Y151462D01*
X130728Y150004D01*
X131503Y148546D01*
X132433Y147712D01*
X133518Y147504D01*
X134758Y147921D01*
X135688Y148963D01*
X136618Y150838D01*
G01X142972Y153546D02*
X143903Y154796D01*
X144988Y155421D01*
X146228Y155629D01*
X147778Y155213D01*
X148863Y154171D01*
X149173Y152921D01*
X149018Y151671D01*
X148398Y150629D01*
X145298Y148546D01*
X143903Y147088D01*
X142972Y145004D01*
X142663Y143129D01*
X149173D01*
G01X155682Y144587D02*
X156768Y143546D01*
X158008Y143129D01*
X159248Y143546D01*
X160333Y144796D01*
X161108Y146671D01*
X161418Y148546D01*
Y150838D01*
X161108Y152713D01*
X160333Y154379D01*
X159402Y155213D01*
X158318Y155629D01*
X157077Y155213D01*
X156148Y154379D01*
X155528Y153130D01*
X155218Y151462D01*
X155528Y150004D01*
X156303Y148546D01*
X157233Y147712D01*
X158318Y147504D01*
X159558Y147921D01*
X160488Y148963D01*
X161418Y150838D01*
G01X168393Y151462D02*
X173042Y143129D01*
G01Y151462D02*
X168393Y143129D01*
G01X179708Y145629D02*
X180637Y144171D01*
X181877Y143338D01*
X183273Y143129D01*
X184513Y143338D01*
X185753Y144379D01*
X186528Y145629D01*
X186683Y146879D01*
X186373Y148337D01*
X185288Y149379D01*
X184202Y149796D01*
X182808D01*
G01X184202D02*
X185133Y150421D01*
X185908Y151462D01*
X186218Y152713D01*
X185908Y153963D01*
X185133Y155004D01*
X183738Y155629D01*
X182343Y155421D01*
X180948Y154588D01*
G01X192108Y145004D02*
X193037Y143963D01*
X194122Y143338D01*
X195518Y143129D01*
X196913Y143546D01*
X197998Y144379D01*
X198773Y145838D01*
X198928Y147504D01*
X198618Y149171D01*
X197842Y150213D01*
X196758Y151046D01*
X195673Y151254D01*
X194588Y151046D01*
X193193Y150213D01*
X193658Y155629D01*
X197842D01*
G01X207918Y142713D02*
X207608Y142921D01*
Y143338D01*
X207918Y143546D01*
X208228Y143338D01*
Y142921D01*
X207918Y142713D01*
G01X222178Y143129D02*
Y155629D01*
X216442Y146671D01*
X224193D01*
G01X229772Y153546D02*
X230703Y154796D01*
X231788Y155421D01*
X233028Y155629D01*
X234578Y155213D01*
X235663Y154171D01*
X235973Y152921D01*
X235818Y151671D01*
X235198Y150629D01*
X232098Y148546D01*
X230703Y147088D01*
X229772Y145004D01*
X229463Y143129D01*
X235973D01*
G01X242482Y144587D02*
X243568Y143546D01*
X244807Y143129D01*
X246047Y143546D01*
X247133Y144796D01*
X247908Y146671D01*
X248218Y148546D01*
Y150838D01*
X247908Y152713D01*
X247133Y154379D01*
X246202Y155213D01*
X245118Y155629D01*
X243877Y155213D01*
X242948Y154379D01*
X242328Y153130D01*
X242018Y151462D01*
X242328Y150004D01*
X243103Y148546D01*
X244033Y147712D01*
X245118Y147504D01*
X246358Y147921D01*
X247288Y148963D01*
X248218Y150838D01*
G01X100192Y538079D02*
X104068Y550579D01*
X107943Y538079D01*
G01X106548Y542454D02*
X101587D01*
G01X113368Y550579D02*
Y538079D01*
X119568D01*
G01X125768Y550579D02*
Y538079D01*
X131968D01*
G01X150258Y550579D02*
Y541621D01*
X150878Y539746D01*
X152118Y538496D01*
X153668Y538079D01*
X155218Y538496D01*
X156458Y539746D01*
X157078Y541621D01*
Y550579D01*
G01X162503Y538079D02*
Y550579D01*
X169632Y538079D01*
Y550579D01*
G01X176608D02*
X180327D01*
G01X178468D02*
Y538079D01*
G01X176608D02*
X180327D01*
G01X190868Y550579D02*
Y538079D01*
G01X187303Y550579D02*
X194432D01*
G01X200013Y539746D02*
X201253Y538704D01*
X202648Y538079D01*
X203888D01*
X205128Y538704D01*
X206058Y539746D01*
X206523Y541204D01*
X206213Y542662D01*
X205438Y543913D01*
X204043Y544746D01*
X202183Y545163D01*
X201098Y545996D01*
X200632Y547454D01*
X200943Y548913D01*
X201718Y549954D01*
X202803Y550579D01*
X203888D01*
X204973Y550163D01*
X205903Y549121D01*
G01X224192Y538079D02*
X228068Y550579D01*
X231943Y538079D01*
G01X230548Y542454D02*
X225587D01*
G01X237368Y538079D02*
Y550579D01*
X241243D01*
X242483Y549954D01*
X243258Y549121D01*
X243568Y547454D01*
X243258Y545788D01*
X242328Y544746D01*
X241243Y544121D01*
X237368D01*
G01X241243D02*
X243568Y538079D01*
G01X255968D02*
X249768D01*
Y550579D01*
X255968D01*
G01X253488Y544538D02*
X249768D01*
G01X275808Y550579D02*
X279527D01*
G01X277668D02*
Y538079D01*
G01X275808D02*
X279527D01*
G01X286503D02*
Y550579D01*
X293632Y538079D01*
Y550579D01*
G01X310838Y538079D02*
Y550579D01*
X314868Y540163D01*
X318898Y550579D01*
Y538079D01*
G01X325408Y550579D02*
X329127D01*
G01X327268D02*
Y538079D01*
G01X325408D02*
X329127D01*
G01X336568Y550579D02*
Y538079D01*
X342768D01*
G01X348813Y539746D02*
X350053Y538704D01*
X351448Y538079D01*
X352688D01*
X353928Y538704D01*
X354858Y539746D01*
X355323Y541204D01*
X355013Y542662D01*
X354238Y543913D01*
X352843Y544746D01*
X350983Y545163D01*
X349898Y545996D01*
X349432Y547454D01*
X349743Y548913D01*
X350518Y549954D01*
X351603Y550579D01*
X352688D01*
X353773Y550163D01*
X354703Y549121D01*
G01X133518Y199329D02*
Y211829D01*
X131658Y209330D01*
G01Y199329D02*
X135377D01*
G01X142508Y201829D02*
X143437Y200371D01*
X144677Y199538D01*
X146073Y199329D01*
X147313Y199538D01*
X148553Y200579D01*
X149328Y201829D01*
X149482Y203079D01*
X149173Y204537D01*
X148088Y205579D01*
X147002Y205996D01*
X145608D01*
G01X147002D02*
X147933Y206621D01*
X148708Y207662D01*
X149018Y208913D01*
X148708Y210163D01*
X147933Y211204D01*
X146538Y211829D01*
X145143Y211621D01*
X143748Y210788D01*
G01X158008Y199329D02*
X158318Y202038D01*
X158783Y204329D01*
X159402Y206413D01*
X160178Y208704D01*
X161418Y211829D01*
X155218D01*
G01X170718Y198913D02*
X170408Y199121D01*
Y199538D01*
X170718Y199746D01*
X171028Y199538D01*
Y199121D01*
X170718Y198913D01*
G01X182808Y199329D02*
X183118Y202038D01*
X183583Y204329D01*
X184202Y206413D01*
X184978Y208704D01*
X186218Y211829D01*
X180018D01*
G01X192882Y200787D02*
X193968Y199746D01*
X195208Y199329D01*
X196448Y199746D01*
X197533Y200996D01*
X198308Y202871D01*
X198618Y204746D01*
Y207038D01*
X198308Y208913D01*
X197533Y210579D01*
X196602Y211413D01*
X195518Y211829D01*
X194277Y211413D01*
X193348Y210579D01*
X192728Y209330D01*
X192418Y207662D01*
X192728Y206204D01*
X193503Y204746D01*
X194433Y203912D01*
X195518Y203704D01*
X196758Y204121D01*
X197688Y205163D01*
X198618Y207038D01*
G01X204508Y201204D02*
X205437Y200163D01*
X206522Y199538D01*
X207918Y199329D01*
X209313Y199746D01*
X210398Y200579D01*
X211173Y202038D01*
X211328Y203704D01*
X211018Y205371D01*
X210243Y206413D01*
X209157Y207246D01*
X208073Y207454D01*
X206988Y207246D01*
X205593Y206413D01*
X206058Y211829D01*
X210243D01*
G01X133518Y227429D02*
Y239929D01*
X131658Y237430D01*
G01Y227429D02*
X135377D01*
G01X142508Y229929D02*
X143437Y228471D01*
X144677Y227638D01*
X146073Y227429D01*
X147313Y227638D01*
X148553Y228679D01*
X149328Y229929D01*
X149482Y231179D01*
X149173Y232637D01*
X148088Y233679D01*
X147002Y234096D01*
X145608D01*
G01X147002D02*
X147933Y234721D01*
X148708Y235762D01*
X149018Y237013D01*
X148708Y238263D01*
X147933Y239304D01*
X146538Y239929D01*
X145143Y239721D01*
X143748Y238888D01*
G01X154908Y229929D02*
X155837Y228471D01*
X157077Y227638D01*
X158473Y227429D01*
X159713Y227638D01*
X160953Y228679D01*
X161728Y229929D01*
X161883Y231179D01*
X161573Y232637D01*
X160488Y233679D01*
X159402Y234096D01*
X158008D01*
G01X159402D02*
X160333Y234721D01*
X161108Y235762D01*
X161418Y237013D01*
X161108Y238263D01*
X160333Y239304D01*
X158938Y239929D01*
X157543Y239721D01*
X156148Y238888D01*
G01X170718Y227013D02*
X170408Y227221D01*
Y227638D01*
X170718Y227846D01*
X171028Y227638D01*
Y227221D01*
X170718Y227013D01*
G01X183118Y227429D02*
X184202Y227638D01*
X185442Y228263D01*
X186218Y229304D01*
X186528Y230763D01*
X186218Y232221D01*
X185288Y233471D01*
X183893Y234096D01*
X182343D01*
X181412Y234513D01*
X180637Y235554D01*
X180328Y237013D01*
X180793Y238471D01*
X181877Y239513D01*
X183118Y239929D01*
X184358Y239513D01*
X185442Y238471D01*
X185908Y237013D01*
X185598Y235554D01*
X184823Y234513D01*
X183893Y234096D01*
X182343D01*
X180948Y233471D01*
X180018Y232221D01*
X179708Y230763D01*
X180018Y229304D01*
X180793Y228263D01*
X182033Y227638D01*
X183118Y227429D01*
G01X192108Y229304D02*
X193037Y228263D01*
X194122Y227638D01*
X195518Y227429D01*
X196913Y227846D01*
X197998Y228679D01*
X198773Y230138D01*
X198928Y231804D01*
X198618Y233471D01*
X197842Y234513D01*
X196758Y235346D01*
X195673Y235554D01*
X194588Y235346D01*
X193193Y234513D01*
X193658Y239929D01*
X197842D01*
G01X207918Y227429D02*
X209003Y227638D01*
X210243Y228263D01*
X211018Y229304D01*
X211328Y230763D01*
X211018Y232221D01*
X210088Y233471D01*
X208693Y234096D01*
X207143D01*
X206212Y234513D01*
X205437Y235554D01*
X205128Y237013D01*
X205593Y238471D01*
X206677Y239513D01*
X207918Y239929D01*
X209157Y239513D01*
X210243Y238471D01*
X210708Y237013D01*
X210398Y235554D01*
X209623Y234513D01*
X208693Y234096D01*
X207143D01*
X205748Y233471D01*
X204818Y232221D01*
X204508Y230763D01*
X204818Y229304D01*
X205593Y228263D01*
X206833Y227638D01*
X207918Y227429D01*
G01X136308Y173729D02*
X137237Y172271D01*
X138477Y171438D01*
X139873Y171229D01*
X141113Y171438D01*
X142353Y172479D01*
X143128Y173729D01*
X143282Y174979D01*
X142973Y176437D01*
X141888Y177479D01*
X140802Y177896D01*
X139408D01*
G01X140802D02*
X141733Y178521D01*
X142508Y179562D01*
X142818Y180813D01*
X142508Y182063D01*
X141733Y183104D01*
X140338Y183729D01*
X138943Y183521D01*
X137548Y182688D01*
G01X148708Y173104D02*
X149637Y172063D01*
X150722Y171438D01*
X152118Y171229D01*
X153513Y171646D01*
X154598Y172479D01*
X155373Y173938D01*
X155528Y175604D01*
X155218Y177271D01*
X154442Y178313D01*
X153358Y179146D01*
X152273Y179354D01*
X151188Y179146D01*
X149793Y178313D01*
X150258Y183729D01*
X154442D01*
G01X164518Y170813D02*
X164208Y171021D01*
Y171438D01*
X164518Y171646D01*
X164828Y171438D01*
Y171021D01*
X164518Y170813D01*
G01X178778Y171229D02*
Y183729D01*
X173042Y174771D01*
X180793D01*
G01X186372Y181646D02*
X187303Y182896D01*
X188388Y183521D01*
X189628Y183729D01*
X191178Y183313D01*
X192263Y182271D01*
X192573Y181021D01*
X192418Y179771D01*
X191798Y178729D01*
X188698Y176646D01*
X187303Y175188D01*
X186372Y173104D01*
X186063Y171229D01*
X192573D01*
G01X199082Y172687D02*
X200168Y171646D01*
X201408Y171229D01*
X202648Y171646D01*
X203733Y172896D01*
X204508Y174771D01*
X204818Y176646D01*
Y178938D01*
X204508Y180813D01*
X203733Y182479D01*
X202802Y183313D01*
X201718Y183729D01*
X200477Y183313D01*
X199548Y182479D01*
X198928Y181230D01*
X198618Y179562D01*
X198928Y178105D01*
X199703Y176646D01*
X200633Y175812D01*
X201718Y175604D01*
X202958Y176021D01*
X203888Y177063D01*
X204818Y178938D01*
G01X136772Y260737D02*
X137858Y262196D01*
X138788Y263029D01*
X140028Y263446D01*
X141113Y263029D01*
X141888Y262196D01*
X142508Y260946D01*
X142663Y259488D01*
X142508Y258238D01*
X141888Y256987D01*
X140958Y255946D01*
X139873Y255529D01*
X138633Y255946D01*
X137548Y257196D01*
X136928Y259071D01*
X136772Y261154D01*
X137083Y263862D01*
X137548Y265321D01*
X138322Y266779D01*
X139408Y267821D01*
X140493Y268029D01*
X141578Y267613D01*
X142353Y266571D01*
G01X149172Y260737D02*
X150258Y262196D01*
X151188Y263029D01*
X152428Y263446D01*
X153513Y263029D01*
X154288Y262196D01*
X154908Y260946D01*
X155063Y259488D01*
X154908Y258238D01*
X154288Y256987D01*
X153358Y255946D01*
X152273Y255529D01*
X151033Y255946D01*
X149948Y257196D01*
X149328Y259071D01*
X149172Y261154D01*
X149482Y263862D01*
X149948Y265321D01*
X150722Y266779D01*
X151808Y267821D01*
X152893Y268029D01*
X153978Y267613D01*
X154753Y266571D01*
G01X164518Y255113D02*
X164208Y255321D01*
Y255738D01*
X164518Y255946D01*
X164828Y255738D01*
Y255321D01*
X164518Y255113D01*
G01X174282Y256987D02*
X175368Y255946D01*
X176608Y255529D01*
X177848Y255946D01*
X178933Y257196D01*
X179708Y259071D01*
X180018Y260946D01*
Y263238D01*
X179708Y265113D01*
X178933Y266779D01*
X178003Y267613D01*
X176918Y268029D01*
X175677Y267613D01*
X174748Y266779D01*
X174128Y265530D01*
X173818Y263862D01*
X174128Y262404D01*
X174903Y260946D01*
X175833Y260112D01*
X176918Y259904D01*
X178158Y260321D01*
X179088Y261363D01*
X180018Y263238D01*
G01X186372Y265946D02*
X187303Y267196D01*
X188388Y267821D01*
X189628Y268029D01*
X191178Y267613D01*
X192263Y266571D01*
X192573Y265321D01*
X192418Y264071D01*
X191798Y263029D01*
X188698Y260946D01*
X187303Y259488D01*
X186372Y257404D01*
X186063Y255529D01*
X192573D01*
G01X199082Y256987D02*
X200168Y255946D01*
X201408Y255529D01*
X202648Y255946D01*
X203733Y257196D01*
X204508Y259071D01*
X204818Y260946D01*
Y263238D01*
X204508Y265113D01*
X203733Y266779D01*
X202802Y267613D01*
X201718Y268029D01*
X200477Y267613D01*
X199548Y266779D01*
X198928Y265530D01*
X198618Y263862D01*
X198928Y262404D01*
X199703Y260946D01*
X200633Y260112D01*
X201718Y259904D01*
X202958Y260321D01*
X203888Y261363D01*
X204818Y263238D01*
G01X141578Y283629D02*
Y296129D01*
X135842Y287171D01*
X143593D01*
G01X148708Y286129D02*
X149637Y284671D01*
X150877Y283838D01*
X152273Y283629D01*
X153513Y283838D01*
X154753Y284879D01*
X155528Y286129D01*
X155682Y287379D01*
X155373Y288837D01*
X154288Y289879D01*
X153203Y290296D01*
X151808D01*
G01X153203D02*
X154133Y290921D01*
X154908Y291962D01*
X155218Y293213D01*
X154908Y294463D01*
X154133Y295504D01*
X152738Y296129D01*
X151343Y295921D01*
X149948Y295088D01*
G01X164518Y283213D02*
X164208Y283421D01*
Y283838D01*
X164518Y284046D01*
X164828Y283838D01*
Y283421D01*
X164518Y283213D01*
G01X173508Y286129D02*
X174437Y284671D01*
X175677Y283838D01*
X177073Y283629D01*
X178313Y283838D01*
X179553Y284879D01*
X180328Y286129D01*
X180482Y287379D01*
X180173Y288837D01*
X179088Y289879D01*
X178003Y290296D01*
X176608D01*
G01X178003D02*
X178933Y290921D01*
X179708Y291962D01*
X180018Y293213D01*
X179708Y294463D01*
X178933Y295504D01*
X177538Y296129D01*
X176143Y295921D01*
X174748Y295088D01*
G01X189318Y296129D02*
X188077Y295713D01*
X187148Y294671D01*
X186528Y293421D01*
X186063Y291754D01*
X185908Y289879D01*
X186063Y288004D01*
X186528Y286338D01*
X187148Y285087D01*
X188077Y284046D01*
X189318Y283629D01*
X190558Y284046D01*
X191488Y285087D01*
X192108Y286338D01*
X192573Y288004D01*
X192728Y289879D01*
X192573Y291754D01*
X192108Y293421D01*
X191488Y294671D01*
X190558Y295713D01*
X189318Y296129D01*
G01X201408Y283629D02*
X201718Y286338D01*
X202183Y288629D01*
X202802Y290713D01*
X203578Y293004D01*
X204818Y296129D01*
X198618D01*
G01X136308Y314229D02*
X137237Y312771D01*
X138477Y311938D01*
X139873Y311729D01*
X141113Y311938D01*
X142353Y312979D01*
X143128Y314229D01*
X143282Y315479D01*
X142973Y316937D01*
X141888Y317979D01*
X140802Y318396D01*
X139408D01*
G01X140802D02*
X141733Y319021D01*
X142508Y320062D01*
X142818Y321313D01*
X142508Y322563D01*
X141733Y323604D01*
X140338Y324229D01*
X138943Y324021D01*
X137548Y323188D01*
G01X148708Y313604D02*
X149637Y312563D01*
X150722Y311938D01*
X152118Y311729D01*
X153513Y312146D01*
X154598Y312979D01*
X155373Y314438D01*
X155528Y316104D01*
X155218Y317771D01*
X154442Y318813D01*
X153358Y319646D01*
X152273Y319854D01*
X151188Y319646D01*
X149793Y318813D01*
X150258Y324229D01*
X154442D01*
G01X164518Y311313D02*
X164208Y311521D01*
Y311938D01*
X164518Y312146D01*
X164828Y311938D01*
Y311521D01*
X164518Y311313D01*
G01X178778Y311729D02*
Y324229D01*
X173042Y315271D01*
X180793D01*
G01X185908Y314229D02*
X186837Y312771D01*
X188077Y311938D01*
X189473Y311729D01*
X190713Y311938D01*
X191953Y312979D01*
X192728Y314229D01*
X192882Y315479D01*
X192573Y316937D01*
X191488Y317979D01*
X190402Y318396D01*
X189008D01*
G01X190402D02*
X191333Y319021D01*
X192108Y320062D01*
X192418Y321313D01*
X192108Y322563D01*
X191333Y323604D01*
X189938Y324229D01*
X188543Y324021D01*
X187148Y323188D01*
G01X198308Y314229D02*
X199237Y312771D01*
X200477Y311938D01*
X201873Y311729D01*
X203113Y311938D01*
X204353Y312979D01*
X205128Y314229D01*
X205282Y315479D01*
X204973Y316937D01*
X203888Y317979D01*
X202802Y318396D01*
X201408D01*
G01X202802D02*
X203733Y319021D01*
X204508Y320062D01*
X204818Y321313D01*
X204508Y322563D01*
X203733Y323604D01*
X202338Y324229D01*
X200943Y324021D01*
X199548Y323188D01*
G01X136308Y342329D02*
X137237Y340871D01*
X138477Y340038D01*
X139873Y339829D01*
X141113Y340038D01*
X142353Y341079D01*
X143128Y342329D01*
X143282Y343579D01*
X142973Y345037D01*
X141888Y346079D01*
X140802Y346496D01*
X139408D01*
G01X140802D02*
X141733Y347121D01*
X142508Y348162D01*
X142818Y349413D01*
X142508Y350663D01*
X141733Y351704D01*
X140338Y352329D01*
X138943Y352121D01*
X137548Y351288D01*
G01X148708Y341704D02*
X149637Y340663D01*
X150722Y340038D01*
X152118Y339829D01*
X153513Y340246D01*
X154598Y341079D01*
X155373Y342538D01*
X155528Y344204D01*
X155218Y345871D01*
X154442Y346913D01*
X153358Y347746D01*
X152273Y347954D01*
X151188Y347746D01*
X149793Y346913D01*
X150258Y352329D01*
X154442D01*
G01X164518Y339413D02*
X164208Y339621D01*
Y340038D01*
X164518Y340246D01*
X164828Y340038D01*
Y339621D01*
X164518Y339413D01*
G01X178778Y339829D02*
Y352329D01*
X173042Y343371D01*
X180793D01*
G01X185908Y342329D02*
X186837Y340871D01*
X188077Y340038D01*
X189473Y339829D01*
X190713Y340038D01*
X191953Y341079D01*
X192728Y342329D01*
X192882Y343579D01*
X192573Y345037D01*
X191488Y346079D01*
X190402Y346496D01*
X189008D01*
G01X190402D02*
X191333Y347121D01*
X192108Y348162D01*
X192418Y349413D01*
X192108Y350663D01*
X191333Y351704D01*
X189938Y352329D01*
X188543Y352121D01*
X187148Y351288D01*
G01X198308Y342329D02*
X199237Y340871D01*
X200477Y340038D01*
X201873Y339829D01*
X203113Y340038D01*
X204353Y341079D01*
X205128Y342329D01*
X205282Y343579D01*
X204973Y345037D01*
X203888Y346079D01*
X202802Y346496D01*
X201408D01*
G01X202802D02*
X203733Y347121D01*
X204508Y348162D01*
X204818Y349413D01*
X204508Y350663D01*
X203733Y351704D01*
X202338Y352329D01*
X200943Y352121D01*
X199548Y351288D01*
G01X136772Y378346D02*
X137703Y379596D01*
X138788Y380221D01*
X140028Y380429D01*
X141578Y380013D01*
X142663Y378971D01*
X142973Y377721D01*
X142818Y376471D01*
X142198Y375429D01*
X139098Y373346D01*
X137703Y371888D01*
X136772Y369804D01*
X136463Y367929D01*
X142973D01*
G01X149482Y369387D02*
X150568Y368346D01*
X151808Y367929D01*
X153048Y368346D01*
X154133Y369596D01*
X154908Y371471D01*
X155218Y373346D01*
Y375638D01*
X154908Y377513D01*
X154133Y379179D01*
X153203Y380013D01*
X152118Y380429D01*
X150877Y380013D01*
X149948Y379179D01*
X149328Y377930D01*
X149018Y376262D01*
X149328Y374805D01*
X150103Y373346D01*
X151033Y372512D01*
X152118Y372304D01*
X153358Y372721D01*
X154288Y373763D01*
X155218Y375638D01*
G01X164518Y367513D02*
X164208Y367721D01*
Y368138D01*
X164518Y368346D01*
X164828Y368138D01*
Y367721D01*
X164518Y367513D01*
G01X173508Y369804D02*
X174437Y368763D01*
X175522Y368138D01*
X176918Y367929D01*
X178313Y368346D01*
X179398Y369179D01*
X180173Y370638D01*
X180328Y372304D01*
X180018Y373971D01*
X179242Y375013D01*
X178158Y375846D01*
X177073Y376054D01*
X175988Y375846D01*
X174593Y375013D01*
X175058Y380429D01*
X179242D01*
G01X186372Y378346D02*
X187303Y379596D01*
X188388Y380221D01*
X189628Y380429D01*
X191178Y380013D01*
X192263Y378971D01*
X192573Y377721D01*
X192418Y376471D01*
X191798Y375429D01*
X188698Y373346D01*
X187303Y371888D01*
X186372Y369804D01*
X186063Y367929D01*
X192573D01*
G01X201718D02*
X202802Y368138D01*
X204042Y368763D01*
X204818Y369804D01*
X205128Y371263D01*
X204818Y372721D01*
X203888Y373971D01*
X202493Y374596D01*
X200943D01*
X200013Y375013D01*
X199237Y376054D01*
X198928Y377513D01*
X199393Y378971D01*
X200477Y380013D01*
X201718Y380429D01*
X202958Y380013D01*
X204042Y378971D01*
X204508Y377513D01*
X204198Y376054D01*
X203423Y375013D01*
X202493Y374596D01*
X200943D01*
X199548Y373971D01*
X198618Y372721D01*
X198308Y371263D01*
X198618Y369804D01*
X199393Y368763D01*
X200633Y368138D01*
X201718Y367929D01*
G01X139718Y396029D02*
Y408529D01*
X137858Y406030D01*
G01Y396029D02*
X141577D01*
G01X149482Y397487D02*
X150568Y396446D01*
X151808Y396029D01*
X153048Y396446D01*
X154133Y397696D01*
X154908Y399571D01*
X155218Y401446D01*
Y403738D01*
X154908Y405613D01*
X154133Y407279D01*
X153203Y408113D01*
X152118Y408529D01*
X150877Y408113D01*
X149948Y407279D01*
X149328Y406030D01*
X149018Y404363D01*
X149328Y402904D01*
X150103Y401446D01*
X151033Y400612D01*
X152118Y400404D01*
X153358Y400821D01*
X154288Y401863D01*
X155218Y403738D01*
G01X164518Y395613D02*
X164208Y395821D01*
Y396238D01*
X164518Y396446D01*
X164828Y396238D01*
Y395821D01*
X164518Y395613D01*
G01X173972Y401237D02*
X175058Y402696D01*
X175988Y403529D01*
X177228Y403946D01*
X178313Y403529D01*
X179088Y402696D01*
X179708Y401446D01*
X179863Y399988D01*
X179708Y398738D01*
X179088Y397487D01*
X178158Y396446D01*
X177073Y396029D01*
X175833Y396446D01*
X174748Y397696D01*
X174128Y399571D01*
X173972Y401654D01*
X174282Y404363D01*
X174748Y405821D01*
X175522Y407279D01*
X176608Y408321D01*
X177693Y408529D01*
X178778Y408113D01*
X179553Y407071D01*
G01X189318Y396029D02*
X190402Y396238D01*
X191642Y396863D01*
X192418Y397904D01*
X192728Y399363D01*
X192418Y400821D01*
X191488Y402071D01*
X190093Y402696D01*
X188543D01*
X187612Y403113D01*
X186837Y404154D01*
X186528Y405613D01*
X186993Y407071D01*
X188077Y408113D01*
X189318Y408529D01*
X190558Y408113D01*
X191642Y407071D01*
X192108Y405613D01*
X191798Y404154D01*
X191023Y403113D01*
X190093Y402696D01*
X188543D01*
X187148Y402071D01*
X186218Y400821D01*
X185908Y399363D01*
X186218Y397904D01*
X186993Y396863D01*
X188233Y396238D01*
X189318Y396029D01*
G01X199082Y397487D02*
X200168Y396446D01*
X201408Y396029D01*
X202648Y396446D01*
X203733Y397696D01*
X204508Y399571D01*
X204818Y401446D01*
Y403738D01*
X204508Y405613D01*
X203733Y407279D01*
X202802Y408113D01*
X201718Y408529D01*
X200477Y408113D01*
X199548Y407279D01*
X198928Y406030D01*
X198618Y404363D01*
X198928Y402904D01*
X199703Y401446D01*
X200633Y400612D01*
X201718Y400404D01*
X202958Y400821D01*
X203888Y401863D01*
X204818Y403738D01*
G01X139718Y424129D02*
Y436629D01*
X137858Y434130D01*
G01Y424129D02*
X141577D01*
G01X148708Y426004D02*
X149637Y424963D01*
X150722Y424338D01*
X152118Y424129D01*
X153513Y424546D01*
X154598Y425379D01*
X155373Y426838D01*
X155528Y428504D01*
X155218Y430171D01*
X154442Y431213D01*
X153358Y432046D01*
X152273Y432254D01*
X151188Y432046D01*
X149793Y431213D01*
X150258Y436629D01*
X154442D01*
G01X164518Y423713D02*
X164208Y423921D01*
Y424338D01*
X164518Y424546D01*
X164828Y424338D01*
Y423921D01*
X164518Y423713D01*
G01X176608Y424129D02*
X176918Y426838D01*
X177383Y429129D01*
X178003Y431213D01*
X178778Y433504D01*
X180018Y436629D01*
X173818D01*
G01X191178Y424129D02*
Y436629D01*
X185442Y427671D01*
X193193D01*
G01X201718Y424129D02*
X202802Y424338D01*
X204042Y424963D01*
X204818Y426004D01*
X205128Y427463D01*
X204818Y428921D01*
X203888Y430171D01*
X202493Y430796D01*
X200943D01*
X200013Y431213D01*
X199237Y432254D01*
X198928Y433713D01*
X199393Y435171D01*
X200477Y436213D01*
X201718Y436629D01*
X202958Y436213D01*
X204042Y435171D01*
X204508Y433713D01*
X204198Y432254D01*
X203423Y431213D01*
X202493Y430796D01*
X200943D01*
X199548Y430171D01*
X198618Y428921D01*
X198308Y427463D01*
X198618Y426004D01*
X199393Y424963D01*
X200633Y424338D01*
X201718Y424129D01*
G01X139718Y452229D02*
Y464729D01*
X137858Y462230D01*
G01Y452229D02*
X141577D01*
G01X152118D02*
Y464729D01*
X150258Y462230D01*
G01Y452229D02*
X153977D01*
G01X164518Y451813D02*
X164208Y452021D01*
Y452438D01*
X164518Y452646D01*
X164828Y452438D01*
Y452021D01*
X164518Y451813D01*
G01X176918Y452229D02*
X178003Y452438D01*
X179242Y453063D01*
X180018Y454104D01*
X180328Y455563D01*
X180018Y457021D01*
X179088Y458271D01*
X177693Y458896D01*
X176143D01*
X175212Y459313D01*
X174437Y460354D01*
X174128Y461813D01*
X174593Y463271D01*
X175677Y464313D01*
X176918Y464729D01*
X178158Y464313D01*
X179242Y463271D01*
X179708Y461813D01*
X179398Y460354D01*
X178623Y459313D01*
X177693Y458896D01*
X176143D01*
X174748Y458271D01*
X173818Y457021D01*
X173508Y455563D01*
X173818Y454104D01*
X174593Y453063D01*
X175833Y452438D01*
X176918Y452229D01*
G01X189318D02*
Y464729D01*
X187458Y462230D01*
G01Y452229D02*
X191177D01*
G01X201718D02*
Y464729D01*
X199858Y462230D01*
G01Y452229D02*
X203577D01*
G01X151808Y480329D02*
X152118Y483038D01*
X152583Y485329D01*
X153203Y487413D01*
X153978Y489704D01*
X155218Y492829D01*
X149018D01*
G01X164518Y479913D02*
X164208Y480121D01*
Y480538D01*
X164518Y480746D01*
X164828Y480538D01*
Y480121D01*
X164518Y479913D01*
G01X176918Y480329D02*
X178003Y480538D01*
X179242Y481163D01*
X180018Y482204D01*
X180328Y483663D01*
X180018Y485121D01*
X179088Y486371D01*
X177693Y486996D01*
X176143D01*
X175212Y487413D01*
X174437Y488454D01*
X174128Y489913D01*
X174593Y491371D01*
X175677Y492413D01*
X176918Y492829D01*
X178158Y492413D01*
X179242Y491371D01*
X179708Y489913D01*
X179398Y488454D01*
X178623Y487413D01*
X177693Y486996D01*
X176143D01*
X174748Y486371D01*
X173818Y485121D01*
X173508Y483663D01*
X173818Y482204D01*
X174593Y481163D01*
X175833Y480538D01*
X176918Y480329D01*
G01X189008D02*
X189318Y483038D01*
X189783Y485329D01*
X190402Y487413D01*
X191178Y489704D01*
X192418Y492829D01*
X186218D01*
G01X148863Y511646D02*
X150103Y510604D01*
X151498Y509979D01*
X152738D01*
X153978Y510604D01*
X154908Y511646D01*
X155373Y513105D01*
X155063Y514562D01*
X154288Y515813D01*
X152893Y516646D01*
X151033Y517063D01*
X149948Y517896D01*
X149482Y519354D01*
X149793Y520813D01*
X150568Y521854D01*
X151653Y522479D01*
X152738D01*
X153823Y522063D01*
X154753Y521021D01*
G01X162658Y522479D02*
X166377D01*
G01X164518D02*
Y509979D01*
G01X162658D02*
X166377D01*
G01X173972Y522479D02*
X179863D01*
X173972Y509979D01*
X179863D01*
G01X192418D02*
X186218D01*
Y522479D01*
X192418D01*
G01X189938Y516438D02*
X186218D01*
G01X265268Y528729D02*
Y22929D01*
G01X269453Y171229D02*
Y183729D01*
X276582Y171229D01*
Y183729D01*
G01X285418Y171229D02*
X284177Y171438D01*
X283093Y172271D01*
X282163Y173521D01*
X281542Y174979D01*
X281232Y176646D01*
Y178313D01*
X281542Y179979D01*
X282163Y181438D01*
X283093Y182688D01*
X284177Y183521D01*
X285418Y183729D01*
X286658Y183521D01*
X287742Y182688D01*
X288673Y181438D01*
X289293Y179979D01*
X289603Y178313D01*
Y176646D01*
X289293Y174979D01*
X288673Y173521D01*
X287742Y172271D01*
X286658Y171438D01*
X285418Y171229D01*
G01X294253D02*
Y183729D01*
X301382Y171229D01*
Y183729D01*
G01X308203Y175396D02*
X312233D01*
G01X319518Y171229D02*
Y183729D01*
X323238D01*
X324478Y183104D01*
X325408Y181646D01*
X325718Y179979D01*
X325408Y178313D01*
X324633Y177063D01*
X323238Y176437D01*
X319518D01*
G01X331918Y183729D02*
Y171229D01*
X338118D01*
G01X343542D02*
X347418Y183729D01*
X351293Y171229D01*
G01X349898Y175604D02*
X344937D01*
G01X359818Y183729D02*
Y171229D01*
G01X356253Y183729D02*
X363382D01*
G01X375318Y171229D02*
X369118D01*
Y183729D01*
X375318D01*
G01X372838Y177688D02*
X369118D01*
G01X381208Y171229D02*
Y183729D01*
X384308D01*
X385548Y183104D01*
X386478Y182271D01*
X387253Y181021D01*
X387873Y179562D01*
X388028Y177479D01*
X387873Y175396D01*
X387253Y173938D01*
X386478Y172687D01*
X385548Y171854D01*
X384308Y171229D01*
X381208D01*
G01X294718Y30729D02*
Y43229D01*
X298438D01*
X299678Y42604D01*
X300608Y41146D01*
X300918Y39479D01*
X300608Y37813D01*
X299833Y36563D01*
X298438Y35937D01*
X294718D01*
G01X307118Y43229D02*
Y30729D01*
X313318D01*
G01X318742D02*
X322618Y43229D01*
X326493Y30729D01*
G01X325098Y35104D02*
X320137D01*
G01X335018Y43229D02*
Y30729D01*
G01X331453Y43229D02*
X338582D01*
G01X350518Y30729D02*
X344318D01*
Y43229D01*
X350518D01*
G01X348038Y37188D02*
X344318D01*
G01X356408Y30729D02*
Y43229D01*
X359508D01*
X360748Y42604D01*
X361678Y41771D01*
X362453Y40521D01*
X363073Y39062D01*
X363228Y36979D01*
X363073Y34896D01*
X362453Y33438D01*
X361678Y32187D01*
X360748Y31354D01*
X359508Y30729D01*
X356408D01*
G01X294718Y58829D02*
Y71329D01*
X298438D01*
X299678Y70704D01*
X300608Y69246D01*
X300918Y67579D01*
X300608Y65913D01*
X299833Y64663D01*
X298438Y64037D01*
X294718D01*
G01X307118Y71329D02*
Y58829D01*
X313318D01*
G01X318742D02*
X322618Y71329D01*
X326493Y58829D01*
G01X325098Y63204D02*
X320137D01*
G01X335018Y71329D02*
Y58829D01*
G01X331453Y71329D02*
X338582D01*
G01X350518Y58829D02*
X344318D01*
Y71329D01*
X350518D01*
G01X348038Y65288D02*
X344318D01*
G01X356408Y58829D02*
Y71329D01*
X359508D01*
X360748Y70704D01*
X361678Y69871D01*
X362453Y68621D01*
X363073Y67162D01*
X363228Y65079D01*
X363073Y62996D01*
X362453Y61538D01*
X361678Y60287D01*
X360748Y59454D01*
X359508Y58829D01*
X356408D01*
G01X294718Y86929D02*
Y99429D01*
X298438D01*
X299678Y98804D01*
X300608Y97346D01*
X300918Y95679D01*
X300608Y94013D01*
X299833Y92763D01*
X298438Y92137D01*
X294718D01*
G01X307118Y99429D02*
Y86929D01*
X313318D01*
G01X318742D02*
X322618Y99429D01*
X326493Y86929D01*
G01X325098Y91304D02*
X320137D01*
G01X335018Y99429D02*
Y86929D01*
G01X331453Y99429D02*
X338582D01*
G01X350518Y86929D02*
X344318D01*
Y99429D01*
X350518D01*
G01X348038Y93388D02*
X344318D01*
G01X356408Y86929D02*
Y99429D01*
X359508D01*
X360748Y98804D01*
X361678Y97971D01*
X362453Y96721D01*
X363073Y95262D01*
X363228Y93179D01*
X363073Y91096D01*
X362453Y89638D01*
X361678Y88387D01*
X360748Y87554D01*
X359508Y86929D01*
X356408D01*
G01X294718Y115029D02*
Y127529D01*
X298438D01*
X299678Y126904D01*
X300608Y125446D01*
X300918Y123779D01*
X300608Y122113D01*
X299833Y120863D01*
X298438Y120237D01*
X294718D01*
G01X307118Y127529D02*
Y115029D01*
X313318D01*
G01X318742D02*
X322618Y127529D01*
X326493Y115029D01*
G01X325098Y119404D02*
X320137D01*
G01X335018Y127529D02*
Y115029D01*
G01X331453Y127529D02*
X338582D01*
G01X350518Y115029D02*
X344318D01*
Y127529D01*
X350518D01*
G01X348038Y121488D02*
X344318D01*
G01X356408Y115029D02*
Y127529D01*
X359508D01*
X360748Y126904D01*
X361678Y126071D01*
X362453Y124821D01*
X363073Y123362D01*
X363228Y121279D01*
X363073Y119196D01*
X362453Y117738D01*
X361678Y116487D01*
X360748Y115654D01*
X359508Y115029D01*
X356408D01*
G01X294718Y143129D02*
Y155629D01*
X298438D01*
X299678Y155004D01*
X300608Y153546D01*
X300918Y151879D01*
X300608Y150213D01*
X299833Y148963D01*
X298438Y148337D01*
X294718D01*
G01X307118Y155629D02*
Y143129D01*
X313318D01*
G01X318742D02*
X322618Y155629D01*
X326493Y143129D01*
G01X325098Y147504D02*
X320137D01*
G01X335018Y155629D02*
Y143129D01*
G01X331453Y155629D02*
X338582D01*
G01X350518Y143129D02*
X344318D01*
Y155629D01*
X350518D01*
G01X348038Y149588D02*
X344318D01*
G01X356408Y143129D02*
Y155629D01*
X359508D01*
X360748Y155004D01*
X361678Y154171D01*
X362453Y152921D01*
X363073Y151462D01*
X363228Y149379D01*
X363073Y147296D01*
X362453Y145838D01*
X361678Y144587D01*
X360748Y143754D01*
X359508Y143129D01*
X356408D01*
G01X294718Y199329D02*
Y211829D01*
X298438D01*
X299678Y211204D01*
X300608Y209746D01*
X300918Y208079D01*
X300608Y206413D01*
X299833Y205163D01*
X298438Y204537D01*
X294718D01*
G01X307118Y211829D02*
Y199329D01*
X313318D01*
G01X318742D02*
X322618Y211829D01*
X326493Y199329D01*
G01X325098Y203704D02*
X320137D01*
G01X335018Y211829D02*
Y199329D01*
G01X331453Y211829D02*
X338582D01*
G01X350518Y199329D02*
X344318D01*
Y211829D01*
X350518D01*
G01X348038Y205788D02*
X344318D01*
G01X356408Y199329D02*
Y211829D01*
X359508D01*
X360748Y211204D01*
X361678Y210371D01*
X362453Y209121D01*
X363073Y207662D01*
X363228Y205579D01*
X363073Y203496D01*
X362453Y202038D01*
X361678Y200787D01*
X360748Y199954D01*
X359508Y199329D01*
X356408D01*
G01X294718Y227429D02*
Y239929D01*
X298438D01*
X299678Y239304D01*
X300608Y237846D01*
X300918Y236179D01*
X300608Y234513D01*
X299833Y233263D01*
X298438Y232637D01*
X294718D01*
G01X307118Y239929D02*
Y227429D01*
X313318D01*
G01X318742D02*
X322618Y239929D01*
X326493Y227429D01*
G01X325098Y231804D02*
X320137D01*
G01X335018Y239929D02*
Y227429D01*
G01X331453Y239929D02*
X338582D01*
G01X350518Y227429D02*
X344318D01*
Y239929D01*
X350518D01*
G01X348038Y233888D02*
X344318D01*
G01X356408Y227429D02*
Y239929D01*
X359508D01*
X360748Y239304D01*
X361678Y238471D01*
X362453Y237221D01*
X363073Y235762D01*
X363228Y233679D01*
X363073Y231596D01*
X362453Y230138D01*
X361678Y228887D01*
X360748Y228054D01*
X359508Y227429D01*
X356408D01*
G01X294718Y255529D02*
Y268029D01*
X298438D01*
X299678Y267404D01*
X300608Y265946D01*
X300918Y264279D01*
X300608Y262613D01*
X299833Y261363D01*
X298438Y260737D01*
X294718D01*
G01X307118Y268029D02*
Y255529D01*
X313318D01*
G01X318742D02*
X322618Y268029D01*
X326493Y255529D01*
G01X325098Y259904D02*
X320137D01*
G01X335018Y268029D02*
Y255529D01*
G01X331453Y268029D02*
X338582D01*
G01X350518Y255529D02*
X344318D01*
Y268029D01*
X350518D01*
G01X348038Y261988D02*
X344318D01*
G01X356408Y255529D02*
Y268029D01*
X359508D01*
X360748Y267404D01*
X361678Y266571D01*
X362453Y265321D01*
X363073Y263862D01*
X363228Y261779D01*
X363073Y259696D01*
X362453Y258238D01*
X361678Y256987D01*
X360748Y256154D01*
X359508Y255529D01*
X356408D01*
G01X294718Y283629D02*
Y296129D01*
X298438D01*
X299678Y295504D01*
X300608Y294046D01*
X300918Y292379D01*
X300608Y290713D01*
X299833Y289463D01*
X298438Y288837D01*
X294718D01*
G01X307118Y296129D02*
Y283629D01*
X313318D01*
G01X318742D02*
X322618Y296129D01*
X326493Y283629D01*
G01X325098Y288004D02*
X320137D01*
G01X335018Y296129D02*
Y283629D01*
G01X331453Y296129D02*
X338582D01*
G01X350518Y283629D02*
X344318D01*
Y296129D01*
X350518D01*
G01X348038Y290088D02*
X344318D01*
G01X356408Y283629D02*
Y296129D01*
X359508D01*
X360748Y295504D01*
X361678Y294671D01*
X362453Y293421D01*
X363073Y291962D01*
X363228Y289879D01*
X363073Y287796D01*
X362453Y286338D01*
X361678Y285087D01*
X360748Y284254D01*
X359508Y283629D01*
X356408D01*
G01X294718Y311729D02*
Y324229D01*
X298438D01*
X299678Y323604D01*
X300608Y322146D01*
X300918Y320479D01*
X300608Y318813D01*
X299833Y317563D01*
X298438Y316937D01*
X294718D01*
G01X307118Y324229D02*
Y311729D01*
X313318D01*
G01X318742D02*
X322618Y324229D01*
X326493Y311729D01*
G01X325098Y316104D02*
X320137D01*
G01X335018Y324229D02*
Y311729D01*
G01X331453Y324229D02*
X338582D01*
G01X350518Y311729D02*
X344318D01*
Y324229D01*
X350518D01*
G01X348038Y318188D02*
X344318D01*
G01X356408Y311729D02*
Y324229D01*
X359508D01*
X360748Y323604D01*
X361678Y322771D01*
X362453Y321521D01*
X363073Y320062D01*
X363228Y317979D01*
X363073Y315896D01*
X362453Y314438D01*
X361678Y313187D01*
X360748Y312354D01*
X359508Y311729D01*
X356408D01*
G01X294718Y339829D02*
Y352329D01*
X298438D01*
X299678Y351704D01*
X300608Y350246D01*
X300918Y348579D01*
X300608Y346913D01*
X299833Y345663D01*
X298438Y345037D01*
X294718D01*
G01X307118Y352329D02*
Y339829D01*
X313318D01*
G01X318742D02*
X322618Y352329D01*
X326493Y339829D01*
G01X325098Y344204D02*
X320137D01*
G01X335018Y352329D02*
Y339829D01*
G01X331453Y352329D02*
X338582D01*
G01X350518Y339829D02*
X344318D01*
Y352329D01*
X350518D01*
G01X348038Y346288D02*
X344318D01*
G01X356408Y339829D02*
Y352329D01*
X359508D01*
X360748Y351704D01*
X361678Y350871D01*
X362453Y349621D01*
X363073Y348162D01*
X363228Y346079D01*
X363073Y343996D01*
X362453Y342538D01*
X361678Y341287D01*
X360748Y340454D01*
X359508Y339829D01*
X356408D01*
G01X294718Y367929D02*
Y380429D01*
X298438D01*
X299678Y379804D01*
X300608Y378346D01*
X300918Y376679D01*
X300608Y375013D01*
X299833Y373763D01*
X298438Y373137D01*
X294718D01*
G01X307118Y380429D02*
Y367929D01*
X313318D01*
G01X318742D02*
X322618Y380429D01*
X326493Y367929D01*
G01X325098Y372304D02*
X320137D01*
G01X335018Y380429D02*
Y367929D01*
G01X331453Y380429D02*
X338582D01*
G01X350518Y367929D02*
X344318D01*
Y380429D01*
X350518D01*
G01X348038Y374388D02*
X344318D01*
G01X356408Y367929D02*
Y380429D01*
X359508D01*
X360748Y379804D01*
X361678Y378971D01*
X362453Y377721D01*
X363073Y376262D01*
X363228Y374179D01*
X363073Y372096D01*
X362453Y370638D01*
X361678Y369387D01*
X360748Y368554D01*
X359508Y367929D01*
X356408D01*
G01X294718Y396029D02*
Y408529D01*
X298438D01*
X299678Y407904D01*
X300608Y406446D01*
X300918Y404779D01*
X300608Y403113D01*
X299833Y401863D01*
X298438Y401237D01*
X294718D01*
G01X307118Y408529D02*
Y396029D01*
X313318D01*
G01X318742D02*
X322618Y408529D01*
X326493Y396029D01*
G01X325098Y400404D02*
X320137D01*
G01X335018Y408529D02*
Y396029D01*
G01X331453Y408529D02*
X338582D01*
G01X350518Y396029D02*
X344318D01*
Y408529D01*
X350518D01*
G01X348038Y402488D02*
X344318D01*
G01X356408Y396029D02*
Y408529D01*
X359508D01*
X360748Y407904D01*
X361678Y407071D01*
X362453Y405821D01*
X363073Y404363D01*
X363228Y402279D01*
X363073Y400196D01*
X362453Y398738D01*
X361678Y397487D01*
X360748Y396654D01*
X359508Y396029D01*
X356408D01*
G01X294718Y424129D02*
Y436629D01*
X298438D01*
X299678Y436004D01*
X300608Y434546D01*
X300918Y432879D01*
X300608Y431213D01*
X299833Y429963D01*
X298438Y429337D01*
X294718D01*
G01X307118Y436629D02*
Y424129D01*
X313318D01*
G01X318742D02*
X322618Y436629D01*
X326493Y424129D01*
G01X325098Y428504D02*
X320137D01*
G01X335018Y436629D02*
Y424129D01*
G01X331453Y436629D02*
X338582D01*
G01X350518Y424129D02*
X344318D01*
Y436629D01*
X350518D01*
G01X348038Y430588D02*
X344318D01*
G01X356408Y424129D02*
Y436629D01*
X359508D01*
X360748Y436004D01*
X361678Y435171D01*
X362453Y433921D01*
X363073Y432462D01*
X363228Y430379D01*
X363073Y428296D01*
X362453Y426838D01*
X361678Y425587D01*
X360748Y424754D01*
X359508Y424129D01*
X356408D01*
G01X294718Y452229D02*
Y464729D01*
X298438D01*
X299678Y464104D01*
X300608Y462646D01*
X300918Y460979D01*
X300608Y459313D01*
X299833Y458063D01*
X298438Y457437D01*
X294718D01*
G01X307118Y464729D02*
Y452229D01*
X313318D01*
G01X318742D02*
X322618Y464729D01*
X326493Y452229D01*
G01X325098Y456604D02*
X320137D01*
G01X335018Y464729D02*
Y452229D01*
G01X331453Y464729D02*
X338582D01*
G01X350518Y452229D02*
X344318D01*
Y464729D01*
X350518D01*
G01X348038Y458688D02*
X344318D01*
G01X356408Y452229D02*
Y464729D01*
X359508D01*
X360748Y464104D01*
X361678Y463271D01*
X362453Y462021D01*
X363073Y460562D01*
X363228Y458479D01*
X363073Y456396D01*
X362453Y454938D01*
X361678Y453687D01*
X360748Y452854D01*
X359508Y452229D01*
X356408D01*
G01X294718Y480329D02*
Y492829D01*
X298438D01*
X299678Y492204D01*
X300608Y490746D01*
X300918Y489079D01*
X300608Y487413D01*
X299833Y486163D01*
X298438Y485537D01*
X294718D01*
G01X307118Y492829D02*
Y480329D01*
X313318D01*
G01X318742D02*
X322618Y492829D01*
X326493Y480329D01*
G01X325098Y484704D02*
X320137D01*
G01X335018Y492829D02*
Y480329D01*
G01X331453Y492829D02*
X338582D01*
G01X350518Y480329D02*
X344318D01*
Y492829D01*
X350518D01*
G01X348038Y486788D02*
X344318D01*
G01X356408Y480329D02*
Y492829D01*
X359508D01*
X360748Y492204D01*
X361678Y491371D01*
X362453Y490121D01*
X363073Y488663D01*
X363228Y486579D01*
X363073Y484496D01*
X362453Y483038D01*
X361678Y481787D01*
X360748Y480954D01*
X359508Y480329D01*
X356408D01*
G01X294718Y509979D02*
Y522479D01*
X298438D01*
X299678Y521854D01*
X300608Y520396D01*
X300918Y518729D01*
X300608Y517063D01*
X299833Y515813D01*
X298438Y515187D01*
X294718D01*
G01X307118Y522479D02*
Y509979D01*
X313318D01*
G01X318742D02*
X322618Y522479D01*
X326493Y509979D01*
G01X325098Y514354D02*
X320137D01*
G01X335018Y522479D02*
Y509979D01*
G01X331453Y522479D02*
X338582D01*
G01X350518Y509979D02*
X344318D01*
Y522479D01*
X350518D01*
G01X348038Y516438D02*
X344318D01*
G01X356408Y509979D02*
Y522479D01*
X359508D01*
X360748Y521854D01*
X361678Y521021D01*
X362453Y519771D01*
X363073Y518313D01*
X363228Y516229D01*
X363073Y514146D01*
X362453Y512688D01*
X361678Y511437D01*
X360748Y510604D01*
X359508Y509979D01*
X356408D01*
G01X393701Y-9842D02*
Y-403328D01*
G01X392368Y528729D02*
Y22929D01*
G01X403543Y-334646D02*
X447601D01*
G01X403543Y0D02*
X447601D01*
G01X424918Y311729D02*
Y324229D01*
X423058Y321730D01*
G01Y311729D02*
X426777D01*
G01X439178D02*
Y324229D01*
X433442Y315271D01*
X441193D01*
G01X424918Y396029D02*
X426002Y396238D01*
X427242Y396863D01*
X428018Y397904D01*
X428328Y399363D01*
X428018Y400821D01*
X427088Y402071D01*
X425693Y402696D01*
X424143D01*
X423212Y403113D01*
X422437Y404154D01*
X422127Y405613D01*
X422593Y407071D01*
X423677Y408113D01*
X424918Y408529D01*
X426157Y408113D01*
X427242Y407071D01*
X427708Y405613D01*
X427398Y404154D01*
X426623Y403113D01*
X425693Y402696D01*
X424143D01*
X422748Y402071D01*
X421818Y400821D01*
X421508Y399363D01*
X421818Y397904D01*
X422593Y396863D01*
X423833Y396238D01*
X424918Y396029D01*
G01X433908Y397904D02*
X434837Y396863D01*
X435923Y396238D01*
X437318Y396029D01*
X438713Y396446D01*
X439798Y397279D01*
X440573Y398738D01*
X440728Y400404D01*
X440418Y402071D01*
X439643Y403113D01*
X438558Y403946D01*
X437473Y404154D01*
X436388Y403946D01*
X434993Y403113D01*
X435458Y408529D01*
X439643D01*
G01X421508Y454104D02*
X422437Y453063D01*
X423523Y452438D01*
X424918Y452229D01*
X426313Y452646D01*
X427398Y453479D01*
X428173Y454938D01*
X428328Y456604D01*
X428018Y458271D01*
X427242Y459313D01*
X426157Y460146D01*
X425073Y460354D01*
X423988Y460146D01*
X422593Y459313D01*
X423058Y464729D01*
X427242D01*
G01X437318Y452229D02*
Y464729D01*
X435458Y462230D01*
G01Y452229D02*
X439177D01*
G01X409572Y490746D02*
X410503Y491996D01*
X411588Y492621D01*
X412828Y492829D01*
X414378Y492413D01*
X415463Y491371D01*
X415773Y490121D01*
X415618Y488871D01*
X414998Y487829D01*
X411898Y485746D01*
X410503Y484288D01*
X409572Y482204D01*
X409263Y480329D01*
X415773D01*
G01X421973Y490746D02*
X422903Y491996D01*
X423988Y492621D01*
X425228Y492829D01*
X426778Y492413D01*
X427863Y491371D01*
X428173Y490121D01*
X428018Y488871D01*
X427398Y487829D01*
X424298Y485746D01*
X422903Y484288D01*
X421973Y482204D01*
X421663Y480329D01*
X428173D01*
G01X434372Y485537D02*
X435458Y486996D01*
X436388Y487829D01*
X437628Y488246D01*
X438713Y487829D01*
X439488Y486996D01*
X440108Y485746D01*
X440263Y484288D01*
X440108Y483038D01*
X439488Y481787D01*
X438558Y480746D01*
X437473Y480329D01*
X436233Y480746D01*
X435148Y481996D01*
X434528Y483871D01*
X434372Y485954D01*
X434682Y488663D01*
X435148Y490121D01*
X435923Y491579D01*
X437008Y492621D01*
X438093Y492829D01*
X439178Y492413D01*
X439953Y491371D01*
G01X446773Y490746D02*
X447703Y491996D01*
X448788Y492621D01*
X450028Y492829D01*
X451578Y492413D01*
X452663Y491371D01*
X452973Y490121D01*
X452818Y488871D01*
X452198Y487829D01*
X449098Y485746D01*
X447703Y484288D01*
X446773Y482204D01*
X446463Y480329D01*
X452973D01*
G01X418718Y509979D02*
X417477Y510188D01*
X416393Y511021D01*
X415463Y512271D01*
X414842Y513729D01*
X414532Y515396D01*
Y517063D01*
X414842Y518729D01*
X415463Y520188D01*
X416393Y521438D01*
X417477Y522271D01*
X418718Y522479D01*
X419958Y522271D01*
X421042Y521438D01*
X421973Y520188D01*
X422593Y518729D01*
X422903Y517063D01*
Y515396D01*
X422593Y513729D01*
X421973Y512271D01*
X421042Y511021D01*
X419958Y510188D01*
X418718Y509979D01*
G01X419958Y513313D02*
X421818Y509979D01*
G01X431118Y522479D02*
Y509979D01*
G01X427553Y522479D02*
X434682D01*
G01X443518Y509979D02*
Y515604D01*
X440418Y522479D01*
G01X446618D02*
X443518Y515604D01*
G01X437759Y-167465D02*
Y-334646D01*
G01X435298Y-318898D02*
X437759Y-334646D01*
X440219Y-318898D01*
X435298D01*
G01X431559Y-158090D02*
X432644Y-157882D01*
X433884Y-157257D01*
X434659Y-156216D01*
X434969Y-154757D01*
X434659Y-153299D01*
X433729Y-152049D01*
X432334Y-151423D01*
X430784D01*
X429854Y-151007D01*
X429078Y-149965D01*
X428769Y-148507D01*
X429234Y-147049D01*
X430319Y-146007D01*
X431559Y-145590D01*
X432799Y-146007D01*
X433884Y-147049D01*
X434349Y-148507D01*
X434039Y-149965D01*
X433264Y-151007D01*
X432334Y-151423D01*
X430784D01*
X429389Y-152049D01*
X428459Y-153299D01*
X428149Y-154757D01*
X428459Y-156216D01*
X429234Y-157257D01*
X430474Y-157882D01*
X431559Y-158090D01*
G01X440549Y-156216D02*
X441478Y-157257D01*
X442564Y-157882D01*
X443959Y-158090D01*
X445354Y-157674D01*
X446439Y-156840D01*
X447214Y-155382D01*
X447369Y-153715D01*
X447059Y-152049D01*
X446284Y-151007D01*
X445199Y-150174D01*
X444114Y-149965D01*
X443029Y-150174D01*
X441634Y-151007D01*
X442099Y-145590D01*
X446284D01*
G01X437759Y-136215D02*
Y0D01*
G01X440219Y-15748D02*
X437759Y0D01*
X435298Y-15748D01*
X440219D01*
G01X431118Y30729D02*
Y43229D01*
X429258Y40730D01*
G01Y30729D02*
X432977D01*
G01X428173Y69246D02*
X429103Y70496D01*
X430188Y71121D01*
X431428Y71329D01*
X432978Y70913D01*
X434063Y69871D01*
X434373Y68621D01*
X434218Y67371D01*
X433598Y66329D01*
X430498Y64246D01*
X429103Y62788D01*
X428173Y60704D01*
X427863Y58829D01*
X434373D01*
G01X428173Y97346D02*
X429103Y98596D01*
X430188Y99221D01*
X431428Y99429D01*
X432978Y99013D01*
X434063Y97971D01*
X434373Y96721D01*
X434218Y95471D01*
X433598Y94429D01*
X430498Y92346D01*
X429103Y90888D01*
X428173Y88804D01*
X427863Y86929D01*
X434373D01*
G01X428173Y125446D02*
X429103Y126696D01*
X430188Y127321D01*
X431428Y127529D01*
X432978Y127113D01*
X434063Y126071D01*
X434373Y124821D01*
X434218Y123571D01*
X433598Y122529D01*
X430498Y120446D01*
X429103Y118988D01*
X428173Y116904D01*
X427863Y115029D01*
X434373D01*
G01X428173Y153546D02*
X429103Y154796D01*
X430188Y155421D01*
X431428Y155629D01*
X432978Y155213D01*
X434063Y154171D01*
X434373Y152921D01*
X434218Y151671D01*
X433598Y150629D01*
X430498Y148546D01*
X429103Y147088D01*
X428173Y145004D01*
X427863Y143129D01*
X434373D01*
G01X428173Y181646D02*
X429103Y182896D01*
X430188Y183521D01*
X431428Y183729D01*
X432978Y183313D01*
X434063Y182271D01*
X434373Y181021D01*
X434218Y179771D01*
X433598Y178729D01*
X430498Y176646D01*
X429103Y175188D01*
X428173Y173104D01*
X427863Y171229D01*
X434373D01*
G01X432978Y199329D02*
Y211829D01*
X427242Y202871D01*
X434993D01*
G01X428173Y237846D02*
X429103Y239096D01*
X430188Y239721D01*
X431428Y239929D01*
X432978Y239513D01*
X434063Y238471D01*
X434373Y237221D01*
X434218Y235971D01*
X433598Y234929D01*
X430498Y232846D01*
X429103Y231388D01*
X428173Y229304D01*
X427863Y227429D01*
X434373D01*
G01X428173Y265946D02*
X429103Y267196D01*
X430188Y267821D01*
X431428Y268029D01*
X432978Y267613D01*
X434063Y266571D01*
X434373Y265321D01*
X434218Y264071D01*
X433598Y263029D01*
X430498Y260946D01*
X429103Y259488D01*
X428173Y257404D01*
X427863Y255529D01*
X434373D01*
G01X428173Y294046D02*
X429103Y295296D01*
X430188Y295921D01*
X431428Y296129D01*
X432978Y295713D01*
X434063Y294671D01*
X434373Y293421D01*
X434218Y292171D01*
X433598Y291129D01*
X430498Y289046D01*
X429103Y287588D01*
X428173Y285504D01*
X427863Y283629D01*
X434373D01*
G01X428482Y341287D02*
X429568Y340246D01*
X430807Y339829D01*
X432048Y340246D01*
X433133Y341496D01*
X433908Y343371D01*
X434218Y345246D01*
Y347538D01*
X433908Y349413D01*
X433133Y351079D01*
X432202Y351913D01*
X431118Y352329D01*
X429877Y351913D01*
X428948Y351079D01*
X428328Y349830D01*
X428018Y348162D01*
X428328Y346704D01*
X429103Y345246D01*
X430033Y344412D01*
X431118Y344204D01*
X432358Y344621D01*
X433288Y345663D01*
X434218Y347538D01*
G01X428173Y378346D02*
X429103Y379596D01*
X430188Y380221D01*
X431428Y380429D01*
X432978Y380013D01*
X434063Y378971D01*
X434373Y377721D01*
X434218Y376471D01*
X433598Y375429D01*
X430498Y373346D01*
X429103Y371888D01*
X428173Y369804D01*
X427863Y367929D01*
X434373D01*
G01X428173Y434546D02*
X429103Y435796D01*
X430188Y436421D01*
X431428Y436629D01*
X432978Y436213D01*
X434063Y435171D01*
X434373Y433921D01*
X434218Y432671D01*
X433598Y431629D01*
X430498Y429546D01*
X429103Y428088D01*
X428173Y426004D01*
X427863Y424129D01*
X434373D01*
G54D18*
X31218Y121279D03*
X123380Y-322584D03*
X151923D03*
G54D19*
X31218Y149379D03*
X156271Y-14010D03*
X213358D03*
M02*
