G04*
G04 #@! TF.GenerationSoftware,Altium Limited,Altium Designer,23.10.1 (27)*
G04*
G04 Layer_Color=128*
%FSLAX25Y25*%
%MOIN*%
G70*
G04*
G04 #@! TF.SameCoordinates,4B5F03CF-9F67-499E-902A-73A7A51B6F95*
G04*
G04*
G04 #@! TF.FilePolarity,Positive*
G04*
G01*
G75*
%ADD49R,0.03347X0.02756*%
%ADD51R,0.09843X0.14410*%
%ADD52R,0.07874X0.14410*%
%ADD53R,0.06299X0.01968*%
%ADD54R,0.02126X0.03543*%
%ADD56R,0.02362X0.03937*%
%ADD57R,0.04331X0.04724*%
%ADD58R,0.12992X0.09843*%
%ADD59R,0.03000X0.04000*%
%ADD60R,0.04000X0.03000*%
%ADD163R,0.05512X0.05512*%
%ADD164R,0.13386X0.19291*%
%ADD165R,0.14016X0.07008*%
%ADD166R,0.05118X0.13780*%
%ADD167R,0.03543X0.02126*%
%ADD168R,0.01968X0.06299*%
%ADD169R,0.14410X0.07874*%
%ADD170R,0.14410X0.09843*%
%ADD171R,0.04724X0.13780*%
D49*
X453815Y196109D02*
D03*
Y202015D02*
D03*
X447880Y201976D02*
D03*
Y196071D02*
D03*
X621915Y237315D02*
D03*
Y243220D02*
D03*
X629015Y243115D02*
D03*
Y237210D02*
D03*
D51*
X471074Y155387D02*
D03*
X432456Y104943D02*
D03*
X494556Y160143D02*
D03*
D52*
X462831Y155387D02*
D03*
X440698Y104943D02*
D03*
X502798Y160143D02*
D03*
D53*
X475327Y159423D02*
D03*
X459579D02*
D03*
X443951Y100907D02*
D03*
X428203D02*
D03*
X490303Y156107D02*
D03*
X506051D02*
D03*
D54*
X464953Y168675D02*
D03*
Y146637D02*
D03*
X474953Y168675D02*
D03*
X469953D02*
D03*
X474953Y146637D02*
D03*
X459953Y168675D02*
D03*
Y146637D02*
D03*
X469953D02*
D03*
X433577Y113693D02*
D03*
X443577D02*
D03*
Y91655D02*
D03*
X428577Y113693D02*
D03*
X433577Y91655D02*
D03*
X428577D02*
D03*
X438577Y113693D02*
D03*
Y91655D02*
D03*
X500677Y146855D02*
D03*
Y168893D02*
D03*
X490677Y146855D02*
D03*
X495677D02*
D03*
X490677Y168893D02*
D03*
X505677Y146855D02*
D03*
Y168893D02*
D03*
X495677D02*
D03*
D56*
X408115Y83115D02*
D03*
X412052Y73273D02*
D03*
X415989Y83115D02*
D03*
D57*
X401615Y102615D02*
D03*
X414942D02*
D03*
D58*
X425815Y131840D02*
D03*
Y158415D02*
D03*
D59*
X400915Y81413D02*
D03*
Y75217D02*
D03*
D60*
X414613Y112415D02*
D03*
X408417D02*
D03*
Y91515D02*
D03*
X414613D02*
D03*
D163*
X466037Y104815D02*
D03*
X458793D02*
D03*
X487593Y105015D02*
D03*
X494837D02*
D03*
D164*
X462415Y120815D02*
D03*
X491215Y121015D02*
D03*
D165*
X547915Y168915D02*
D03*
Y131907D02*
D03*
D166*
X590115Y71715D02*
D03*
X572399D02*
D03*
X519815Y73615D02*
D03*
X537532D02*
D03*
X660315Y90215D02*
D03*
X642598D02*
D03*
D167*
X696887Y104077D02*
D03*
Y114077D02*
D03*
X718924D02*
D03*
X696887Y99077D02*
D03*
X718924Y104077D02*
D03*
Y99077D02*
D03*
X696887Y109077D02*
D03*
X718924D02*
D03*
X696887Y140218D02*
D03*
Y150218D02*
D03*
X718924D02*
D03*
X696887Y135218D02*
D03*
X718924Y140218D02*
D03*
Y135218D02*
D03*
X696887Y145218D02*
D03*
X718924D02*
D03*
X697887Y225498D02*
D03*
Y235498D02*
D03*
X719924D02*
D03*
X697887Y220498D02*
D03*
X719924Y225498D02*
D03*
Y220498D02*
D03*
X697887Y230498D02*
D03*
X719924D02*
D03*
X696887Y177358D02*
D03*
Y187358D02*
D03*
X718924D02*
D03*
X696887Y172358D02*
D03*
X718924Y177358D02*
D03*
Y172358D02*
D03*
X696887Y182358D02*
D03*
X718924D02*
D03*
X721893Y269153D02*
D03*
Y259153D02*
D03*
X699855D02*
D03*
X721893Y274153D02*
D03*
X699855Y269153D02*
D03*
Y274153D02*
D03*
X721893Y264153D02*
D03*
X699855D02*
D03*
D168*
X709672Y114451D02*
D03*
Y98703D02*
D03*
Y150592D02*
D03*
Y134844D02*
D03*
X710673Y235872D02*
D03*
Y220124D02*
D03*
X709672Y187732D02*
D03*
Y171984D02*
D03*
X709107Y258779D02*
D03*
Y274527D02*
D03*
D169*
X705637Y111198D02*
D03*
Y147339D02*
D03*
X706637Y232620D02*
D03*
X705637Y184479D02*
D03*
X713143Y262032D02*
D03*
D170*
X705637Y102956D02*
D03*
Y139096D02*
D03*
X706637Y224377D02*
D03*
X705637Y176237D02*
D03*
X713143Y270274D02*
D03*
D171*
X548815Y101315D02*
D03*
X572437D02*
D03*
M02*
