G04*
G04 #@! TF.GenerationSoftware,Altium Limited,Altium Designer,23.7.1 (13)*
G04*
G04 Layer_Physical_Order=4*
G04 Layer_Color=16711680*
%FSLAX44Y44*%
%MOMM*%
G71*
G04*
G04 #@! TF.SameCoordinates,B1C70322-BD44-42DD-AC63-955F88C0B9D7*
G04*
G04*
G04 #@! TF.FilePolarity,Positive*
G04*
G01*
G75*
%ADD10C,0.2540*%
%ADD22C,1.5240*%
%ADD23R,1.5000X1.5000*%
%ADD24C,1.5000*%
%ADD25R,1.5240X1.5240*%
%ADD26C,1.7000*%
%ADD27R,1.7000X1.7000*%
%ADD28C,3.3000*%
%ADD29C,0.5080*%
D10*
X2098040Y1611630D02*
X2106930Y1602740D01*
X2076681Y1611630D02*
X2098040D01*
X2106930Y1064260D02*
Y1602740D01*
X2123440Y1600200D02*
X2205413D01*
X2118360Y1164590D02*
Y1595120D01*
X2205413Y1600200D02*
X2216843Y1611630D01*
X2118360Y1595120D02*
X2123440Y1600200D01*
X2153920Y1790700D02*
X2161540Y1783080D01*
X2205413Y1673860D02*
X2216843Y1662430D01*
X2176780Y1673860D02*
X2205413D01*
X2161540Y1689100D02*
X2176780Y1673860D01*
X2161540Y1689100D02*
Y1783080D01*
X1125220Y1790700D02*
X2153920D01*
X2136140Y1781810D02*
X2153920Y1764030D01*
X2166620Y1662430D02*
X2191443D01*
X2153920Y1675130D02*
X2166620Y1662430D01*
X2153920Y1675130D02*
Y1764030D01*
X1130300Y1781810D02*
X2136140D01*
X1998980Y1775460D02*
X2011680Y1762760D01*
X2065251Y1673860D02*
X2076681Y1662430D01*
X2026920Y1673860D02*
X2065251D01*
X2011680Y1689100D02*
X2026920Y1673860D01*
X2011680Y1689100D02*
Y1762760D01*
X1132840Y1775460D02*
X1998980D01*
X1982470Y1766570D02*
X2004060Y1744980D01*
X1143000Y1766570D02*
X1982470D01*
X2004060Y1672590D02*
Y1744980D01*
X2014220Y1662430D02*
X2051281D01*
X2004060Y1672590D02*
X2014220Y1662430D01*
X1936519Y1611630D02*
X1959379Y1634490D01*
X1991360D01*
X2014220Y1611630D01*
X2019300Y1606550D01*
X2012950Y1612900D02*
X2014220Y1611630D01*
X1981200Y1549400D02*
X2006600Y1524000D01*
X1981200Y1549400D02*
Y1591310D01*
X2006600Y1104900D02*
Y1524000D01*
X1864360Y1457960D02*
Y1605280D01*
X1234440Y880110D02*
X1262380Y908050D01*
Y1275080D01*
X1235710Y1301750D02*
X1262380Y1275080D01*
X1052830Y1280160D02*
X1055370Y1282700D01*
X1068070D01*
X913130D02*
X915670Y1280160D01*
X1052830D01*
X650240Y1282700D02*
X913130D01*
X1040130Y1295400D02*
X1043940Y1291590D01*
X905510D02*
X909320Y1295400D01*
X1043940Y1291590D02*
X1102360D01*
X909320Y1295400D02*
X1040130D01*
X666750Y1291590D02*
X905510D01*
X2216843Y1250950D02*
X2227580D01*
X2242820Y1235710D01*
Y1146810D02*
Y1235710D01*
X1661160Y1238250D02*
X1673860Y1225550D01*
X1554480Y1238250D02*
X1661160D01*
X1539240Y1253490D02*
X1554480Y1238250D01*
X1665085Y1315720D02*
X1674221Y1324856D01*
X1548130Y1315720D02*
X1665085D01*
X1540510Y1323340D02*
X1548130Y1315720D01*
X2127250Y1182370D02*
Y1250950D01*
Y1182370D02*
X2178050Y1131570D01*
X1767640Y778710D02*
X1852521D01*
X1720850Y825500D02*
X1767640Y778710D01*
X1720850Y825500D02*
Y1460500D01*
X1704340Y810260D02*
Y1466850D01*
X1747320Y767280D02*
X1838951D01*
X1704340Y810260D02*
X1747320Y767280D01*
X1112520Y1764030D02*
X1130300Y1781810D01*
X1107440Y1296670D02*
Y1772920D01*
X1125220Y1790700D01*
X1112520Y1292860D02*
Y1764030D01*
X1102360Y1282700D02*
X1112520Y1292860D01*
X1102360Y1291590D02*
X1107440Y1296670D01*
X1068070Y1282700D02*
X1102360D01*
X2019300Y1113790D02*
Y1606550D01*
X1704340Y1477010D02*
X1720850Y1460500D01*
X1704340Y1465580D02*
Y1466850D01*
X1783657Y1675130D02*
X1796357Y1662430D01*
X1723390Y1675130D02*
X1783657D01*
X1714500Y1684020D02*
X1723390Y1675130D01*
X1714500Y1684020D02*
Y1718310D01*
Y1739900D01*
Y1699350D02*
Y1718310D01*
X1722120Y1701800D02*
X1741747D01*
X1753177Y1713230D01*
X1701800Y1752600D02*
X1714500Y1739900D01*
X1167130Y1752600D02*
X1701800D01*
X1692910Y1746250D02*
X1709420Y1729740D01*
X1714500Y1662430D02*
X1770957D01*
X1709420Y1667510D02*
X1714500Y1662430D01*
X1709420Y1667510D02*
Y1729740D01*
X1181100Y1746250D02*
X1692910D01*
X1675130Y1738630D02*
X1691640Y1722120D01*
X1187450Y1738630D02*
X1675130D01*
X1145540Y1710690D02*
X1181100Y1746250D01*
X1145540Y1244600D02*
Y1710690D01*
X1168400Y1719580D02*
X1187450Y1738630D01*
X1168400Y1172210D02*
Y1719580D01*
X1127760Y1226820D02*
X1145540Y1244600D01*
X1107440Y1226820D02*
X1127760D01*
X1135380Y1720850D02*
X1167130Y1752600D01*
X1135380Y1257300D02*
Y1720850D01*
X1118870Y1240790D02*
X1135380Y1257300D01*
X1104900Y1240790D02*
X1118870D01*
X1150620Y1154430D02*
X1168400Y1172210D01*
X1112520Y1154430D02*
X1150620D01*
X1162050Y1176020D02*
Y1662430D01*
X1146810Y1160780D02*
X1162050Y1176020D01*
X1099820Y1160780D02*
X1146810D01*
X1107440Y1179830D02*
X1144270D01*
X1154430Y1189990D02*
Y1535430D01*
X1144270Y1179830D02*
X1154430Y1189990D01*
X599440Y1257300D02*
X1103630D01*
X1125220Y1748790D02*
X1143000Y1766570D01*
X1125220Y1278890D02*
Y1748790D01*
X1103630Y1257300D02*
X1125220Y1278890D01*
X615950Y1266190D02*
X1099820D01*
X1117600Y1760220D02*
X1132840Y1775460D01*
X1117600Y1283970D02*
Y1760220D01*
X1099820Y1266190D02*
X1117600Y1283970D01*
X746759Y1338580D02*
X1065530D01*
X758189Y1352550D02*
X1065530D01*
X1115060Y1797050D02*
X2433320D01*
X1096010Y1778000D02*
X1115060Y1797050D01*
X1096010Y1706880D02*
Y1778000D01*
X1864360Y1115060D02*
Y1308100D01*
X1852930Y1446530D02*
X1864360Y1457960D01*
X1852930Y1319530D02*
X1864360Y1308100D01*
X1852930Y1319530D02*
Y1446530D01*
X1187450Y251460D02*
X1301750Y365760D01*
X1715770Y393700D02*
X1748790D01*
X1687830Y365760D02*
X1715770Y393700D01*
X1301750Y365760D02*
X1687830D01*
X1197610Y243840D02*
X1309370Y355600D01*
X734060Y243840D02*
X1197610D01*
X1309370Y355600D02*
X1673860D01*
X732790Y226060D02*
X1192440D01*
X1310550Y344170D01*
X1708150D02*
X1715770Y351790D01*
X1310550Y344170D02*
X1708150D01*
X2232660Y1112520D02*
X2251710Y1131570D01*
X2232660Y878840D02*
X2251710Y859790D01*
Y780040D02*
Y859790D01*
X2232660Y878840D02*
Y1112520D01*
X2251710Y1131570D02*
Y1604010D01*
X1753177Y1713230D02*
X1770957D01*
X1892069Y1732280D02*
X1911119Y1713230D01*
X1753870Y1732280D02*
X1892069D01*
X1729740Y1708150D02*
X1753870Y1732280D01*
X2357004Y1250950D02*
X2387600Y1220354D01*
Y1071880D02*
Y1220354D01*
X2497166Y1250950D02*
X2527300Y1220816D01*
Y980630D02*
Y1220816D01*
X2577042Y942975D02*
X2583180Y936837D01*
X1976120Y1071880D02*
Y1126490D01*
X1951990Y1057910D02*
Y1109980D01*
X1852521Y778710D02*
X1863951Y767280D01*
X1813560Y1061720D02*
Y1097280D01*
Y1061720D02*
X1875790Y999490D01*
Y780441D02*
Y999490D01*
Y780441D02*
X1888951Y767280D01*
X1827530Y1066800D02*
Y1107440D01*
Y1066800D02*
X1901190Y993140D01*
Y780041D02*
Y993140D01*
Y780041D02*
X1913951Y767280D01*
X1846580Y1074420D02*
Y1615440D01*
Y1074420D02*
X1938020Y982980D01*
Y909320D02*
Y982980D01*
X1927860Y899160D02*
X1938020Y909320D01*
X1927860Y797694D02*
Y899160D01*
X1927520Y778710D02*
Y797354D01*
Y778710D02*
X1938950Y767280D01*
X1927520Y797354D02*
X1927860Y797694D01*
X1864360Y1115060D02*
X1951990Y1027430D01*
Y779240D02*
Y1027430D01*
Y779240D02*
X1963950Y767280D01*
X1951990Y1057910D02*
X1976120Y1033780D01*
Y780110D02*
Y1033780D01*
Y780110D02*
X1988950Y767280D01*
X1976120Y1071880D02*
X2000250Y1047750D01*
Y797275D02*
Y1047750D01*
Y797275D02*
X2000380Y797145D01*
Y780850D02*
Y797145D01*
Y780850D02*
X2013950Y767280D01*
X2006600Y1104900D02*
X2025650Y1085850D01*
Y780580D02*
Y1085850D01*
Y780580D02*
X2038950Y767280D01*
X2019300Y1113790D02*
X2051050Y1082040D01*
Y780180D02*
Y1082040D01*
Y780180D02*
X2063950Y767280D01*
X2061210Y1101090D02*
X2077720Y1084580D01*
Y797414D02*
Y1084580D01*
X2077520Y778710D02*
Y797214D01*
Y778710D02*
X2088950Y767280D01*
X2077520Y797214D02*
X2077720Y797414D01*
X2100580Y780650D02*
Y1089660D01*
X2089150Y1101090D02*
Y1108710D01*
Y1101090D02*
X2100580Y1089660D01*
Y780650D02*
X2113950Y767280D01*
X2106930Y1064260D02*
X2127250Y1043940D01*
Y778980D02*
Y1043940D01*
Y778980D02*
X2138950Y767280D01*
X2118360Y1164590D02*
X2151380Y1131570D01*
Y779850D02*
Y1131570D01*
Y779850D02*
X2163950Y767280D01*
X2178050Y798075D02*
Y1131570D01*
X2177520Y778710D02*
Y797545D01*
Y778710D02*
X2188950Y767280D01*
X2177520Y797545D02*
X2178050Y798075D01*
X2225040Y1129030D02*
X2242820Y1146810D01*
X2225040Y797694D02*
Y1129030D01*
X2225380Y778710D02*
Y797354D01*
X2213950Y767280D02*
X2225380Y778710D01*
X2225040Y797694D02*
X2225380Y797354D01*
X2238950Y767280D02*
X2251710Y780040D01*
X2275840Y1611630D02*
X2277110Y1612900D01*
X2275840Y779170D02*
Y1611630D01*
X2263950Y767280D02*
X2275840Y779170D01*
X2325370Y1009650D02*
X2387600Y1071880D01*
X2301240Y986880D02*
X2324010Y1009650D01*
X2301240Y779570D02*
Y986880D01*
X2324010Y1009650D02*
X2325370D01*
X2288950Y767280D02*
X2301240Y779570D01*
X2313950Y767280D02*
X2527300Y980630D01*
X2583180Y739140D02*
Y936837D01*
X2579103Y735063D02*
X2583180Y739140D01*
X2579103Y651510D02*
Y735063D01*
X2051050Y632460D02*
X2077720Y659130D01*
X2025650Y646898D02*
X2041926Y663174D01*
X2579103Y630187D02*
Y651510D01*
Y630187D02*
X2583180Y626110D01*
Y509270D02*
Y626110D01*
X2576830Y502920D02*
X2583180Y509270D01*
X1074420Y1234440D02*
X1117600D01*
X1065530Y1225550D02*
X1074420Y1234440D01*
X554990Y1225550D02*
X1065530D01*
X1085850Y1220470D02*
X1117600D01*
X1079500Y1214120D02*
X1085850Y1220470D01*
X1051560Y1214120D02*
X1079500D01*
X1051560D02*
X1068070D01*
X541020D02*
X1051560D01*
X1057910Y1206500D02*
X1137920D01*
X1057910D02*
X1069340D01*
X523240D02*
X1057910D01*
X1132840Y1189990D02*
X1135380Y1187450D01*
X1121500Y1201420D02*
X1132840Y1190080D01*
X1076960Y1201420D02*
X1121500D01*
X1132840Y1189990D02*
Y1190080D01*
X1071880Y1196340D02*
X1076960Y1201420D01*
X1057910Y1196340D02*
X1071880D01*
X1057910D02*
X1066800D01*
X508000D02*
X1057910D01*
X1088390Y1178560D02*
X1096010Y1186180D01*
X474981Y1178560D02*
X1088390D01*
X1118870Y1195070D02*
X1126490Y1187450D01*
X1090930Y1195070D02*
X1118870D01*
X1083310Y1187450D02*
X1090930Y1195070D01*
X1059180Y1187450D02*
X1083310D01*
X1059180D02*
X1070610D01*
X491490D02*
X1059180D01*
X1096010Y1186180D02*
X1115060D01*
X1046480Y1168400D02*
X1113790D01*
X1046480D02*
X1084580D01*
X459740D02*
X1046480D01*
X448311Y1154430D02*
X1112520D01*
X431800Y1145540D02*
X1108710D01*
X1287780Y306070D02*
Y312420D01*
X1248410Y266700D02*
X1287780Y306070D01*
X1248410Y266700D02*
X1250950Y269240D01*
X1201420Y219710D02*
X1248410Y266700D01*
X1296670Y302260D02*
Y313690D01*
X1209040Y214630D02*
X1296670Y302260D01*
X695960Y200660D02*
X1211490D01*
X1315720Y304890D01*
Y313690D01*
X1306830Y303530D02*
Y313690D01*
X1210310Y207010D02*
X1306830Y303530D01*
X1214120Y194310D02*
X1315720Y295910D01*
X644558Y194310D02*
X1214120D01*
X224790Y1352550D02*
X431800Y1145540D01*
X250191Y1352550D02*
X448311Y1154430D01*
X275590Y1352550D02*
X459740Y1168400D01*
X300991Y1352550D02*
X474981Y1178560D01*
X326390Y1352550D02*
X491490Y1187450D01*
X351790Y1352550D02*
X508000Y1196340D01*
X377190Y1352550D02*
X523240Y1206500D01*
X402590Y1352550D02*
X541020Y1214120D01*
X427990Y1352550D02*
X554990Y1225550D01*
X582930Y1248410D02*
X1064260D01*
X478790Y1352550D02*
X582930Y1248410D01*
X504190Y1352550D02*
X599440Y1257300D01*
X529590Y1352550D02*
X615950Y1266190D01*
X632460Y1275080D02*
X1068070D01*
X554990Y1352550D02*
X632460Y1275080D01*
X580390Y1352550D02*
X650240Y1282700D01*
X605790Y1352550D02*
X666750Y1291590D01*
X681990Y1301750D02*
X1068070D01*
X631190Y1352550D02*
X681990Y1301750D01*
X699770Y1309370D02*
X1068070D01*
X656590Y1352550D02*
X699770Y1309370D01*
X717550Y1316990D02*
X1068070D01*
X681990Y1352550D02*
X717550Y1316990D01*
X734060Y1325880D02*
X1066800D01*
X707390Y1352550D02*
X734060Y1325880D01*
X732790Y1352550D02*
X746759Y1338580D01*
X234950Y1060450D02*
X288291D01*
X223520Y1049020D02*
X234950Y1060450D01*
X349250Y1045210D02*
X364491Y1060450D01*
X240030Y1045210D02*
X349250D01*
X439420Y1033780D02*
X466090Y1060450D01*
X265430Y1033780D02*
X439420D01*
X501650Y1019810D02*
X542290Y1060450D01*
X290830Y1019810D02*
X501650D01*
X563880Y1005840D02*
X618490Y1060450D01*
X313690Y1005840D02*
X563880D01*
X626110Y991870D02*
X694690Y1060450D01*
X340360Y991870D02*
X626110D01*
X707390Y1624330D02*
Y1661160D01*
X723900Y1677670D01*
X873760D01*
X631190Y1624330D02*
Y1664970D01*
X657860Y1691640D01*
X873760D01*
X554990Y1624330D02*
Y1670050D01*
X589280Y1704340D01*
X873760D01*
X478790Y1624330D02*
Y1686560D01*
X509270Y1717040D01*
X873760D01*
X377190Y1624330D02*
Y1694180D01*
X410210Y1727200D01*
X873760D01*
X300991Y1624330D02*
Y1684021D01*
X356870Y1739900D01*
X873760D01*
X224790Y1624330D02*
Y1691640D01*
X284480Y1751330D01*
X871220D01*
X148591Y1624330D02*
Y1699261D01*
X212090Y1762760D01*
X872490D01*
X679450Y1009650D02*
X965200D01*
X647700Y977900D02*
X679450Y1009650D01*
X566420Y977900D02*
X647700D01*
X692150Y998220D02*
X963930D01*
X661670Y967740D02*
X692150Y998220D01*
X591820Y967740D02*
X661670D01*
X697230Y981710D02*
X963930D01*
X671830Y956310D02*
X697230Y981710D01*
X614680Y956310D02*
X671830D01*
X699770Y966470D02*
X963930D01*
X679450Y946150D02*
X699770Y966470D01*
X640080Y946150D02*
X679450D01*
X1057910Y885100D02*
Y885190D01*
X1044030Y871220D02*
X1057910Y885100D01*
X364490Y871220D02*
X1044030D01*
X1041400Y877570D02*
X1049020Y885190D01*
X400050Y877570D02*
X1041400D01*
X391160Y886460D02*
X400050Y877570D01*
X1040130Y887640D02*
Y887730D01*
X1035140Y882650D02*
X1040130Y887640D01*
X425450Y882650D02*
X1035140D01*
X415290Y892810D02*
X425450Y882650D01*
X1031240Y887730D02*
X1032510Y889000D01*
X449580Y887730D02*
X1031240D01*
X439420Y897890D02*
X449580Y887730D01*
X474980Y894080D02*
X1004570D01*
X464820Y904240D02*
X474980Y894080D01*
X495300Y902970D02*
X1004570D01*
X488950Y909320D02*
X495300Y902970D01*
X523240Y910590D02*
X1004570D01*
X514350Y919480D02*
X523240Y910590D01*
X546100Y920750D02*
X994410D01*
X539750Y927100D02*
X546100Y920750D01*
X635010Y435810D02*
X908250D01*
X610010D02*
X625450Y420370D01*
X944880D01*
X585010Y435810D02*
X610610Y410210D01*
X976630D01*
X560010Y435810D02*
X597040Y398780D01*
X1016000D01*
X160011Y396249D02*
Y435810D01*
Y396249D02*
X198120Y358140D01*
Y331470D02*
Y358140D01*
X185011Y397919D02*
Y435810D01*
Y397919D02*
X218440Y364490D01*
Y339090D02*
Y364490D01*
X210011Y399590D02*
Y435810D01*
Y399590D02*
X242570Y367030D01*
Y347980D02*
Y367030D01*
X665480Y231140D02*
X695960Y200660D01*
X636604Y231140D02*
X645494Y240030D01*
X673100D01*
X706120Y207010D01*
X1210310D01*
X607728Y231140D02*
X644558Y194310D01*
X578853Y231140D02*
X596633Y248920D01*
X681990D01*
X716280Y214630D01*
X1209040D01*
X549977Y231140D02*
X575377Y256540D01*
X689610D01*
X726440Y219710D01*
X1201420D01*
X521101Y231140D02*
X555391Y265430D01*
X693420D01*
X732790Y226060D01*
X485010Y231140D02*
X525650Y271780D01*
X706120D01*
X734060Y243840D01*
X463349Y231140D02*
X511609Y279400D01*
X709930D01*
X737870Y251460D01*
X1187450D01*
X1008380Y1436370D02*
Y1436460D01*
X1018540Y1435100D02*
Y1435190D01*
X974180Y1436370D02*
X977900D01*
X969100Y1441450D02*
X974180Y1436370D01*
X974090Y1451610D02*
X989330Y1436370D01*
X976630Y1459230D02*
X999490Y1436370D01*
X979260Y1465580D02*
X1008380Y1436460D01*
X981800Y1471930D02*
X1018540Y1435190D01*
X148591Y1377950D02*
X252731Y1482090D01*
X224790Y1377950D02*
X323851Y1477010D01*
X394971Y1471930D02*
X981800D01*
X300991Y1377950D02*
X367030Y1443990D01*
X368301Y1445260D01*
X394971Y1471930D01*
X377190Y1377950D02*
X464821Y1465580D01*
X979260D01*
X478790Y1377950D02*
X560070Y1459230D01*
X976630D01*
X554990Y1377950D02*
X628650Y1451610D01*
X974090D01*
X694690Y1441450D02*
X969100D01*
X631190Y1377950D02*
X694690Y1441450D01*
X764539Y1435100D02*
X966470D01*
X707390Y1377950D02*
X764539Y1435100D01*
X323851Y1477010D02*
X986790D01*
X1028700Y1435100D01*
X252731Y1482090D02*
X990690D01*
X1037590Y1435100D02*
Y1435190D01*
X990690Y1482090D02*
X1037590Y1435190D01*
X2051050Y326790D02*
X2063950Y313890D01*
X2051050Y326790D02*
Y632460D01*
X2076450Y326390D02*
X2088950Y313890D01*
X2076450Y326390D02*
Y626110D01*
X2100580Y327260D02*
X2113950Y313890D01*
X2100580Y327260D02*
Y622300D01*
X2142490Y664210D01*
X2125980Y326860D02*
X2138950Y313890D01*
X2125980Y326860D02*
Y612140D01*
X2175477Y661637D01*
X2151380Y326460D02*
X2163950Y313890D01*
X2151380Y326460D02*
Y607060D01*
X2208530Y664210D01*
X2188950Y313890D02*
X2200910Y325850D01*
Y628650D01*
X2239010Y666750D01*
X2225040Y344304D02*
X2225380Y343964D01*
X2213950Y313890D02*
X2225380Y325320D01*
Y343964D01*
X2225040Y344304D02*
Y513219D01*
X2225380Y513559D01*
Y548368D01*
X2225040Y548708D02*
X2225380Y548368D01*
X2238950Y313890D02*
X2250440Y325380D01*
X2263950Y313890D02*
X2275840Y325780D01*
Y603250D01*
X2336800Y664210D01*
X2288950Y313890D02*
X2301240Y326180D01*
X2313950Y313890D02*
X2334260Y334201D01*
X2025650Y327190D02*
X2038950Y313890D01*
X2025650Y327190D02*
Y646898D01*
X2076450Y626110D02*
X2110473Y660133D01*
Y666750D01*
X2250440Y325380D02*
Y612742D01*
X2305384Y667686D01*
X2225040Y623570D02*
X2272899Y671429D01*
X2225040Y548708D02*
Y623570D01*
X2301240Y597635D02*
X2370355Y666750D01*
X2301240Y326180D02*
Y597635D01*
X2334260Y598170D02*
X2402840Y666750D01*
X2334260Y334201D02*
Y598170D01*
D22*
X1210310Y1713230D02*
D03*
X1235710D02*
D03*
X1210310Y1687830D02*
D03*
X1235710D02*
D03*
X1210310Y1662430D02*
D03*
X1235710D02*
D03*
X1210310Y1637030D02*
D03*
X1235710D02*
D03*
X1210310Y1611630D02*
D03*
X1235710D02*
D03*
X1210310Y1586230D02*
D03*
X1235710D02*
D03*
X1210310Y1560830D02*
D03*
X1235710D02*
D03*
X1210310Y1535430D02*
D03*
X1235710D02*
D03*
X1838951Y101600D02*
D03*
X1863951Y126600D02*
D03*
Y101600D02*
D03*
X1888951Y126600D02*
D03*
Y101600D02*
D03*
X1913951Y126600D02*
D03*
Y101600D02*
D03*
X1938950Y126600D02*
D03*
Y101600D02*
D03*
X1963950Y126600D02*
D03*
Y101600D02*
D03*
X1988950Y126600D02*
D03*
Y101600D02*
D03*
X2013950Y126600D02*
D03*
Y101600D02*
D03*
X2038950Y126600D02*
D03*
Y101600D02*
D03*
X2063950Y126600D02*
D03*
Y101600D02*
D03*
X2088950Y126600D02*
D03*
Y101600D02*
D03*
X2113950Y126600D02*
D03*
Y101600D02*
D03*
X2138950Y126600D02*
D03*
Y101600D02*
D03*
X2163950Y126600D02*
D03*
Y101600D02*
D03*
X2188950Y126600D02*
D03*
Y101600D02*
D03*
X2213950Y126600D02*
D03*
Y101600D02*
D03*
X2238950Y126600D02*
D03*
Y101600D02*
D03*
X2263950Y126600D02*
D03*
Y101600D02*
D03*
X2313950D02*
D03*
Y126600D02*
D03*
X2288950Y101600D02*
D03*
Y126600D02*
D03*
X160011Y136090D02*
D03*
X185011Y161090D02*
D03*
Y136090D02*
D03*
X210011Y161090D02*
D03*
Y136090D02*
D03*
X235011Y161090D02*
D03*
Y136090D02*
D03*
X260010Y161090D02*
D03*
Y136090D02*
D03*
X285010Y161090D02*
D03*
Y136090D02*
D03*
X310010Y161090D02*
D03*
Y136090D02*
D03*
X335010Y161090D02*
D03*
Y136090D02*
D03*
X360010Y161090D02*
D03*
Y136090D02*
D03*
X385010Y161090D02*
D03*
Y136090D02*
D03*
X410010Y161090D02*
D03*
Y136090D02*
D03*
X435010Y161090D02*
D03*
Y136090D02*
D03*
X460010Y161090D02*
D03*
Y136090D02*
D03*
X485010Y161090D02*
D03*
Y136090D02*
D03*
X510010Y161090D02*
D03*
Y136090D02*
D03*
X535010Y161090D02*
D03*
Y136090D02*
D03*
X560010Y161090D02*
D03*
Y136090D02*
D03*
X585010Y161090D02*
D03*
Y136090D02*
D03*
X635010D02*
D03*
Y161090D02*
D03*
X610010Y136090D02*
D03*
Y161090D02*
D03*
X165091Y766010D02*
D03*
X190091Y791010D02*
D03*
Y766010D02*
D03*
X215091Y791010D02*
D03*
Y766010D02*
D03*
X240091Y791010D02*
D03*
Y766010D02*
D03*
X265090Y791010D02*
D03*
Y766010D02*
D03*
X290090Y791010D02*
D03*
Y766010D02*
D03*
X315090Y791010D02*
D03*
Y766010D02*
D03*
X340090Y791010D02*
D03*
Y766010D02*
D03*
X365090Y791010D02*
D03*
Y766010D02*
D03*
X390090Y791010D02*
D03*
Y766010D02*
D03*
X415090Y791010D02*
D03*
Y766010D02*
D03*
X440090Y791010D02*
D03*
Y766010D02*
D03*
X465090Y791010D02*
D03*
Y766010D02*
D03*
X490090Y791010D02*
D03*
Y766010D02*
D03*
X515090Y791010D02*
D03*
Y766010D02*
D03*
X540090Y791010D02*
D03*
Y766010D02*
D03*
X565090Y791010D02*
D03*
Y766010D02*
D03*
X590090Y791010D02*
D03*
Y766010D02*
D03*
X640090D02*
D03*
Y791010D02*
D03*
X615090Y766010D02*
D03*
Y791010D02*
D03*
X160011Y435810D02*
D03*
X185011Y460810D02*
D03*
Y435810D02*
D03*
X210011Y460810D02*
D03*
Y435810D02*
D03*
X235011Y460810D02*
D03*
Y435810D02*
D03*
X260010Y460810D02*
D03*
Y435810D02*
D03*
X285010Y460810D02*
D03*
Y435810D02*
D03*
X310010Y460810D02*
D03*
Y435810D02*
D03*
X335010Y460810D02*
D03*
Y435810D02*
D03*
X360010Y460810D02*
D03*
Y435810D02*
D03*
X385010Y460810D02*
D03*
Y435810D02*
D03*
X410010Y460810D02*
D03*
Y435810D02*
D03*
X435010Y460810D02*
D03*
Y435810D02*
D03*
X460010Y460810D02*
D03*
Y435810D02*
D03*
X485010Y460810D02*
D03*
Y435810D02*
D03*
X510010Y460810D02*
D03*
Y435810D02*
D03*
X535010Y460810D02*
D03*
Y435810D02*
D03*
X560010Y460810D02*
D03*
Y435810D02*
D03*
X585010Y460810D02*
D03*
Y435810D02*
D03*
X635010D02*
D03*
Y460810D02*
D03*
X610010Y435810D02*
D03*
Y460810D02*
D03*
X1838951Y518293D02*
D03*
X1863951Y543293D02*
D03*
Y518293D02*
D03*
X1888951Y543293D02*
D03*
Y518293D02*
D03*
X1913951Y543293D02*
D03*
Y518293D02*
D03*
X1938950Y543293D02*
D03*
Y518293D02*
D03*
X1963950Y543293D02*
D03*
Y518293D02*
D03*
X1988950Y543293D02*
D03*
Y518293D02*
D03*
X2013950Y543293D02*
D03*
Y518293D02*
D03*
X2038950Y543293D02*
D03*
Y518293D02*
D03*
X2063950Y543293D02*
D03*
Y518293D02*
D03*
X2088950Y543293D02*
D03*
Y518293D02*
D03*
X2113950Y543293D02*
D03*
Y518293D02*
D03*
X2138950Y543293D02*
D03*
Y518293D02*
D03*
X2163950Y543293D02*
D03*
Y518293D02*
D03*
X2188950Y543293D02*
D03*
Y518293D02*
D03*
X2213950Y543293D02*
D03*
Y518293D02*
D03*
X2238950Y543293D02*
D03*
Y518293D02*
D03*
X2263950Y543293D02*
D03*
Y518293D02*
D03*
X2313950D02*
D03*
Y543293D02*
D03*
X2288950Y518293D02*
D03*
Y543293D02*
D03*
X1838951Y767280D02*
D03*
X1863951Y792280D02*
D03*
Y767280D02*
D03*
X1888951Y792280D02*
D03*
Y767280D02*
D03*
X1913951Y792280D02*
D03*
Y767280D02*
D03*
X1938950Y792280D02*
D03*
Y767280D02*
D03*
X1963950Y792280D02*
D03*
Y767280D02*
D03*
X1988950Y792280D02*
D03*
Y767280D02*
D03*
X2013950Y792280D02*
D03*
Y767280D02*
D03*
X2038950Y792280D02*
D03*
Y767280D02*
D03*
X2063950Y792280D02*
D03*
Y767280D02*
D03*
X2088950Y792280D02*
D03*
Y767280D02*
D03*
X2113950Y792280D02*
D03*
Y767280D02*
D03*
X2138950Y792280D02*
D03*
Y767280D02*
D03*
X2163950Y792280D02*
D03*
Y767280D02*
D03*
X2188950Y792280D02*
D03*
Y767280D02*
D03*
X2213950Y792280D02*
D03*
Y767280D02*
D03*
X2238950Y792280D02*
D03*
Y767280D02*
D03*
X2263950Y792280D02*
D03*
Y767280D02*
D03*
X2313950D02*
D03*
Y792280D02*
D03*
X2288950Y767280D02*
D03*
Y792280D02*
D03*
X1838951Y313890D02*
D03*
X1863951Y338890D02*
D03*
Y313890D02*
D03*
X1888951Y338890D02*
D03*
Y313890D02*
D03*
X1913951Y338890D02*
D03*
Y313890D02*
D03*
X1938950Y338890D02*
D03*
Y313890D02*
D03*
X1963950Y338890D02*
D03*
Y313890D02*
D03*
X1988950Y338890D02*
D03*
Y313890D02*
D03*
X2013950Y338890D02*
D03*
Y313890D02*
D03*
X2038950Y338890D02*
D03*
Y313890D02*
D03*
X2063950Y338890D02*
D03*
Y313890D02*
D03*
X2088950Y338890D02*
D03*
Y313890D02*
D03*
X2113950Y338890D02*
D03*
Y313890D02*
D03*
X2138950Y338890D02*
D03*
Y313890D02*
D03*
X2163950Y338890D02*
D03*
Y313890D02*
D03*
X2188950Y338890D02*
D03*
Y313890D02*
D03*
X2213950Y338890D02*
D03*
Y313890D02*
D03*
X2238950Y338890D02*
D03*
Y313890D02*
D03*
X2263950Y338890D02*
D03*
Y313890D02*
D03*
X2313950D02*
D03*
Y338890D02*
D03*
X2288950Y313890D02*
D03*
Y338890D02*
D03*
X2752090Y1352550D02*
D03*
X2777490D02*
D03*
X2752090Y1327150D02*
D03*
X2777490D02*
D03*
X2752090Y1301750D02*
D03*
X2777490D02*
D03*
X2752090Y1276350D02*
D03*
X2777490D02*
D03*
X2752090Y1250950D02*
D03*
X2777490D02*
D03*
X2752090Y1225550D02*
D03*
X2777490D02*
D03*
X2752090Y1200150D02*
D03*
X2777490D02*
D03*
X2752090Y1174750D02*
D03*
X2777490D02*
D03*
X2611928Y1352550D02*
D03*
X2637328D02*
D03*
X2611928Y1327150D02*
D03*
X2637328D02*
D03*
X2611928Y1301750D02*
D03*
X2637328D02*
D03*
X2611928Y1276350D02*
D03*
X2637328D02*
D03*
X2611928Y1250950D02*
D03*
X2637328D02*
D03*
X2611928Y1225550D02*
D03*
X2637328D02*
D03*
X2611928Y1200150D02*
D03*
X2637328D02*
D03*
X2611928Y1174750D02*
D03*
X2637328D02*
D03*
X2752090Y1713230D02*
D03*
X2777490D02*
D03*
X2752090Y1687830D02*
D03*
X2777490D02*
D03*
X2752090Y1662430D02*
D03*
X2777490D02*
D03*
X2752090Y1637030D02*
D03*
X2777490D02*
D03*
X2752090Y1611630D02*
D03*
X2777490D02*
D03*
X2752090Y1586230D02*
D03*
X2777490D02*
D03*
X2752090Y1560830D02*
D03*
X2777490D02*
D03*
X2752090Y1535430D02*
D03*
X2777490D02*
D03*
X2611928Y1713230D02*
D03*
X2637328D02*
D03*
X2611928Y1687830D02*
D03*
X2637328D02*
D03*
X2611928Y1662430D02*
D03*
X2637328D02*
D03*
X2611928Y1637030D02*
D03*
X2637328D02*
D03*
X2611928Y1611630D02*
D03*
X2637328D02*
D03*
X2611928Y1586230D02*
D03*
X2637328D02*
D03*
X2611928Y1560830D02*
D03*
X2637328D02*
D03*
X2611928Y1535430D02*
D03*
X2637328D02*
D03*
X2471766Y1352550D02*
D03*
X2497166D02*
D03*
X2471766Y1327150D02*
D03*
X2497166D02*
D03*
X2471766Y1301750D02*
D03*
X2497166D02*
D03*
X2471766Y1276350D02*
D03*
X2497166D02*
D03*
X2471766Y1250950D02*
D03*
X2497166D02*
D03*
X2471766Y1225550D02*
D03*
X2497166D02*
D03*
X2471766Y1200150D02*
D03*
X2497166D02*
D03*
X2471766Y1174750D02*
D03*
X2497166D02*
D03*
X2331604Y1352550D02*
D03*
X2357004D02*
D03*
X2331604Y1327150D02*
D03*
X2357004D02*
D03*
X2331604Y1301750D02*
D03*
X2357004D02*
D03*
X2331604Y1276350D02*
D03*
X2357004D02*
D03*
X2331604Y1250950D02*
D03*
X2357004D02*
D03*
X2331604Y1225550D02*
D03*
X2357004D02*
D03*
X2331604Y1200150D02*
D03*
X2357004D02*
D03*
X2331604Y1174750D02*
D03*
X2357004D02*
D03*
X2471766Y1713230D02*
D03*
X2497166D02*
D03*
X2471766Y1687830D02*
D03*
X2497166D02*
D03*
X2471766Y1662430D02*
D03*
X2497166D02*
D03*
X2471766Y1637030D02*
D03*
X2497166D02*
D03*
X2471766Y1611630D02*
D03*
X2497166D02*
D03*
X2471766Y1586230D02*
D03*
X2497166D02*
D03*
X2471766Y1560830D02*
D03*
X2497166D02*
D03*
X2471766Y1535430D02*
D03*
X2497166D02*
D03*
X2331604Y1713230D02*
D03*
X2357004D02*
D03*
X2331604Y1687830D02*
D03*
X2357004D02*
D03*
X2331604Y1662430D02*
D03*
X2357004D02*
D03*
X2331604Y1637030D02*
D03*
X2357004D02*
D03*
X2331604Y1611630D02*
D03*
X2357004D02*
D03*
X2331604Y1586230D02*
D03*
X2357004D02*
D03*
X2331604Y1560830D02*
D03*
X2357004D02*
D03*
X2331604Y1535430D02*
D03*
X2357004D02*
D03*
X2191443Y1352550D02*
D03*
X2216843D02*
D03*
X2191443Y1327150D02*
D03*
X2216843D02*
D03*
X2191443Y1301750D02*
D03*
X2216843D02*
D03*
X2191443Y1276350D02*
D03*
X2216843D02*
D03*
X2191443Y1250950D02*
D03*
X2216843D02*
D03*
X2191443Y1225550D02*
D03*
X2216843D02*
D03*
X2191443Y1200150D02*
D03*
X2216843D02*
D03*
X2191443Y1174750D02*
D03*
X2216843D02*
D03*
X2051281Y1352550D02*
D03*
X2076681D02*
D03*
X2051281Y1327150D02*
D03*
X2076681D02*
D03*
X2051281Y1301750D02*
D03*
X2076681D02*
D03*
X2051281Y1276350D02*
D03*
X2076681D02*
D03*
X2051281Y1250950D02*
D03*
X2076681D02*
D03*
X2051281Y1225550D02*
D03*
X2076681D02*
D03*
X2051281Y1200150D02*
D03*
X2076681D02*
D03*
X2051281Y1174750D02*
D03*
X2076681D02*
D03*
X2191443Y1713230D02*
D03*
X2216843D02*
D03*
X2191443Y1687830D02*
D03*
X2216843D02*
D03*
X2191443Y1662430D02*
D03*
X2216843D02*
D03*
X2191443Y1637030D02*
D03*
X2216843D02*
D03*
X2191443Y1611630D02*
D03*
X2216843D02*
D03*
X2191443Y1586230D02*
D03*
X2216843D02*
D03*
X2191443Y1560830D02*
D03*
X2216843D02*
D03*
X2191443Y1535430D02*
D03*
X2216843D02*
D03*
X2051281Y1713230D02*
D03*
X2076681D02*
D03*
X2051281Y1687830D02*
D03*
X2076681D02*
D03*
X2051281Y1662430D02*
D03*
X2076681D02*
D03*
X2051281Y1637030D02*
D03*
X2076681D02*
D03*
X2051281Y1611630D02*
D03*
X2076681D02*
D03*
X2051281Y1586230D02*
D03*
X2076681D02*
D03*
X2051281Y1560830D02*
D03*
X2076681D02*
D03*
X2051281Y1535430D02*
D03*
X2076681D02*
D03*
X1911119Y1352550D02*
D03*
X1936519D02*
D03*
X1911119Y1327150D02*
D03*
X1936519D02*
D03*
X1911119Y1301750D02*
D03*
X1936519D02*
D03*
X1911119Y1276350D02*
D03*
X1936519D02*
D03*
X1911119Y1250950D02*
D03*
X1936519D02*
D03*
X1911119Y1225550D02*
D03*
X1936519D02*
D03*
X1911119Y1200150D02*
D03*
X1936519D02*
D03*
X1911119Y1174750D02*
D03*
X1936519D02*
D03*
X1770957Y1352550D02*
D03*
X1796357D02*
D03*
X1770957Y1327150D02*
D03*
X1796357D02*
D03*
X1770957Y1301750D02*
D03*
X1796357D02*
D03*
X1770957Y1276350D02*
D03*
X1796357D02*
D03*
X1770957Y1250950D02*
D03*
X1796357D02*
D03*
X1770957Y1225550D02*
D03*
X1796357D02*
D03*
X1770957Y1200150D02*
D03*
X1796357D02*
D03*
X1770957Y1174750D02*
D03*
X1796357D02*
D03*
X1911119Y1713230D02*
D03*
X1936519D02*
D03*
X1911119Y1687830D02*
D03*
X1936519D02*
D03*
X1911119Y1662430D02*
D03*
X1936519D02*
D03*
X1911119Y1637030D02*
D03*
X1936519D02*
D03*
X1911119Y1611630D02*
D03*
X1936519D02*
D03*
X1911119Y1586230D02*
D03*
X1936519D02*
D03*
X1911119Y1560830D02*
D03*
X1936519D02*
D03*
X1911119Y1535430D02*
D03*
X1936519D02*
D03*
X1770957Y1713230D02*
D03*
X1796357D02*
D03*
X1770957Y1687830D02*
D03*
X1796357D02*
D03*
X1770957Y1662430D02*
D03*
X1796357D02*
D03*
X1770957Y1637030D02*
D03*
X1796357D02*
D03*
X1770957Y1611630D02*
D03*
X1796357D02*
D03*
X1770957Y1586230D02*
D03*
X1796357D02*
D03*
X1770957Y1560830D02*
D03*
X1796357D02*
D03*
X1770957Y1535430D02*
D03*
X1796357D02*
D03*
X1630795Y1352550D02*
D03*
X1656195D02*
D03*
X1630795Y1327150D02*
D03*
X1656195D02*
D03*
X1630795Y1301750D02*
D03*
X1656195D02*
D03*
X1630795Y1276350D02*
D03*
X1656195D02*
D03*
X1630795Y1250950D02*
D03*
X1656195D02*
D03*
X1630795Y1225550D02*
D03*
X1656195D02*
D03*
X1630795Y1200150D02*
D03*
X1656195D02*
D03*
X1630795Y1174750D02*
D03*
X1656195D02*
D03*
X1490634Y1352550D02*
D03*
X1516034D02*
D03*
X1490634Y1327150D02*
D03*
X1516034D02*
D03*
X1490634Y1301750D02*
D03*
X1516034D02*
D03*
X1490634Y1276350D02*
D03*
X1516034D02*
D03*
X1490634Y1250950D02*
D03*
X1516034D02*
D03*
X1490634Y1225550D02*
D03*
X1516034D02*
D03*
X1490634Y1200150D02*
D03*
X1516034D02*
D03*
X1490634Y1174750D02*
D03*
X1516034D02*
D03*
X1630795Y1713230D02*
D03*
X1656195D02*
D03*
X1630795Y1687830D02*
D03*
X1656195D02*
D03*
X1630795Y1662430D02*
D03*
X1656195D02*
D03*
X1630795Y1637030D02*
D03*
X1656195D02*
D03*
X1630795Y1611630D02*
D03*
X1656195D02*
D03*
X1630795Y1586230D02*
D03*
X1656195D02*
D03*
X1630795Y1560830D02*
D03*
X1656195D02*
D03*
X1630795Y1535430D02*
D03*
X1656195D02*
D03*
X1490634Y1713230D02*
D03*
X1516034D02*
D03*
X1490634Y1687830D02*
D03*
X1516034D02*
D03*
X1490634Y1662430D02*
D03*
X1516034D02*
D03*
X1490634Y1637030D02*
D03*
X1516034D02*
D03*
X1490634Y1611630D02*
D03*
X1516034D02*
D03*
X1490634Y1586230D02*
D03*
X1516034D02*
D03*
X1490634Y1560830D02*
D03*
X1516034D02*
D03*
X1490634Y1535430D02*
D03*
X1516034D02*
D03*
X1350472Y1352550D02*
D03*
X1375872D02*
D03*
X1350472Y1327150D02*
D03*
X1375872D02*
D03*
X1350472Y1301750D02*
D03*
X1375872D02*
D03*
X1350472Y1276350D02*
D03*
X1375872D02*
D03*
X1350472Y1250950D02*
D03*
X1375872D02*
D03*
X1350472Y1225550D02*
D03*
X1375872D02*
D03*
X1350472Y1200150D02*
D03*
X1375872D02*
D03*
X1350472Y1174750D02*
D03*
X1375872D02*
D03*
X1210310Y1352550D02*
D03*
X1235710D02*
D03*
X1210310Y1327150D02*
D03*
X1235710D02*
D03*
X1210310Y1301750D02*
D03*
X1235710D02*
D03*
X1210310Y1276350D02*
D03*
X1235710D02*
D03*
X1210310Y1250950D02*
D03*
X1235710D02*
D03*
X1210310Y1225550D02*
D03*
X1235710D02*
D03*
X1210310Y1200150D02*
D03*
X1235710D02*
D03*
X1210310Y1174750D02*
D03*
X1235710D02*
D03*
X1350472Y1713230D02*
D03*
X1375872D02*
D03*
X1350472Y1687830D02*
D03*
X1375872D02*
D03*
X1350472Y1662430D02*
D03*
X1375872D02*
D03*
X1350472Y1637030D02*
D03*
X1375872D02*
D03*
X1350472Y1611630D02*
D03*
X1375872D02*
D03*
X1350472Y1586230D02*
D03*
X1375872D02*
D03*
X1350472Y1560830D02*
D03*
X1375872D02*
D03*
X1350472Y1535430D02*
D03*
X1375872D02*
D03*
D23*
X2545080Y292523D02*
D03*
X984250Y149860D02*
D03*
X2545080Y528320D02*
D03*
X981710Y793750D02*
D03*
X2545080Y767080D02*
D03*
Y106680D02*
D03*
D24*
X2570480Y292523D02*
D03*
X2595880D02*
D03*
X2621280D02*
D03*
X2646680D02*
D03*
X2672080D02*
D03*
X2697480D02*
D03*
X2722880D02*
D03*
X2545080Y317923D02*
D03*
X2570480D02*
D03*
X2595880D02*
D03*
X2621280D02*
D03*
X2646680D02*
D03*
X2672080D02*
D03*
X2697480D02*
D03*
X2722880D02*
D03*
X958850Y149860D02*
D03*
X933450D02*
D03*
X908050D02*
D03*
X882650D02*
D03*
X857250D02*
D03*
X831850D02*
D03*
X806450D02*
D03*
X984250Y124460D02*
D03*
X958850D02*
D03*
X933450D02*
D03*
X908050D02*
D03*
X882650D02*
D03*
X857250D02*
D03*
X831850D02*
D03*
X806450D02*
D03*
X2570480Y528320D02*
D03*
X2595880D02*
D03*
X2621280D02*
D03*
X2646680D02*
D03*
X2672080D02*
D03*
X2697480D02*
D03*
X2722880D02*
D03*
X2545080Y553720D02*
D03*
X2570480D02*
D03*
X2595880D02*
D03*
X2621280D02*
D03*
X2646680D02*
D03*
X2672080D02*
D03*
X2697480D02*
D03*
X2722880D02*
D03*
X956310Y793750D02*
D03*
X930910D02*
D03*
X905510D02*
D03*
X880110D02*
D03*
X854710D02*
D03*
X829310D02*
D03*
X803910D02*
D03*
X981710Y768350D02*
D03*
X956310D02*
D03*
X930910D02*
D03*
X905510D02*
D03*
X880110D02*
D03*
X854710D02*
D03*
X829310D02*
D03*
X803910D02*
D03*
X2570480Y767080D02*
D03*
X2595880D02*
D03*
X2621280D02*
D03*
X2646680D02*
D03*
X2672080D02*
D03*
X2697480D02*
D03*
X2722880D02*
D03*
X2545080Y792480D02*
D03*
X2570480D02*
D03*
X2595880D02*
D03*
X2621280D02*
D03*
X2646680D02*
D03*
X2672080D02*
D03*
X2697480D02*
D03*
X2722880D02*
D03*
X2570480Y106680D02*
D03*
X2595880D02*
D03*
X2621280D02*
D03*
X2646680D02*
D03*
X2672080D02*
D03*
X2697480D02*
D03*
X2722880D02*
D03*
X2545080Y132080D02*
D03*
X2570480D02*
D03*
X2595880D02*
D03*
X2621280D02*
D03*
X2646680D02*
D03*
X2672080D02*
D03*
X2697480D02*
D03*
X2722880D02*
D03*
D25*
X1838951Y126600D02*
D03*
X160011Y161090D02*
D03*
X165091Y791010D02*
D03*
X160011Y460810D02*
D03*
X1838951Y543293D02*
D03*
Y792280D02*
D03*
Y338890D02*
D03*
D26*
X148591Y1106170D02*
D03*
Y1131570D02*
D03*
X173991Y1106170D02*
D03*
Y1131570D02*
D03*
X199391Y1106170D02*
D03*
Y1131570D02*
D03*
X224790Y1106170D02*
D03*
Y1131570D02*
D03*
X250191Y1106170D02*
D03*
Y1131570D02*
D03*
X275590Y1106170D02*
D03*
Y1131570D02*
D03*
X300991Y1106170D02*
D03*
Y1131570D02*
D03*
X326390Y1106170D02*
D03*
Y1131570D02*
D03*
X351790Y1106170D02*
D03*
Y1131570D02*
D03*
X377190Y1106170D02*
D03*
Y1131570D02*
D03*
X402590Y1106170D02*
D03*
Y1131570D02*
D03*
X427990Y1106170D02*
D03*
Y1131570D02*
D03*
X453390Y1106170D02*
D03*
Y1131570D02*
D03*
X478790Y1106170D02*
D03*
Y1131570D02*
D03*
X504190Y1106170D02*
D03*
Y1131570D02*
D03*
X529590Y1106170D02*
D03*
Y1131570D02*
D03*
X554990Y1106170D02*
D03*
Y1131570D02*
D03*
X580390Y1106170D02*
D03*
Y1131570D02*
D03*
X605790Y1106170D02*
D03*
Y1131570D02*
D03*
X631190Y1106170D02*
D03*
Y1131570D02*
D03*
X656590Y1106170D02*
D03*
Y1131570D02*
D03*
X681990Y1106170D02*
D03*
Y1131570D02*
D03*
X707390Y1106170D02*
D03*
Y1131570D02*
D03*
X732790Y1106170D02*
D03*
Y1131570D02*
D03*
X758189Y1106170D02*
D03*
X148591Y1352550D02*
D03*
Y1377950D02*
D03*
X173991Y1352550D02*
D03*
Y1377950D02*
D03*
X199391Y1352550D02*
D03*
Y1377950D02*
D03*
X224790Y1352550D02*
D03*
Y1377950D02*
D03*
X250191Y1352550D02*
D03*
Y1377950D02*
D03*
X275590Y1352550D02*
D03*
Y1377950D02*
D03*
X300991Y1352550D02*
D03*
Y1377950D02*
D03*
X326390Y1352550D02*
D03*
Y1377950D02*
D03*
X351790Y1352550D02*
D03*
Y1377950D02*
D03*
X377190Y1352550D02*
D03*
Y1377950D02*
D03*
X402590Y1352550D02*
D03*
Y1377950D02*
D03*
X427990Y1352550D02*
D03*
Y1377950D02*
D03*
X453390Y1352550D02*
D03*
Y1377950D02*
D03*
X478790Y1352550D02*
D03*
Y1377950D02*
D03*
X504190Y1352550D02*
D03*
Y1377950D02*
D03*
X529590Y1352550D02*
D03*
Y1377950D02*
D03*
X554990Y1352550D02*
D03*
Y1377950D02*
D03*
X580390Y1352550D02*
D03*
Y1377950D02*
D03*
X605790Y1352550D02*
D03*
Y1377950D02*
D03*
X631190Y1352550D02*
D03*
Y1377950D02*
D03*
X656590Y1352550D02*
D03*
Y1377950D02*
D03*
X681990Y1352550D02*
D03*
Y1377950D02*
D03*
X707390Y1352550D02*
D03*
Y1377950D02*
D03*
X732790Y1352550D02*
D03*
Y1377950D02*
D03*
X758189Y1352550D02*
D03*
X148591Y1598930D02*
D03*
Y1624330D02*
D03*
X173991Y1598930D02*
D03*
Y1624330D02*
D03*
X199391Y1598930D02*
D03*
Y1624330D02*
D03*
X224790Y1598930D02*
D03*
Y1624330D02*
D03*
X250191Y1598930D02*
D03*
Y1624330D02*
D03*
X275590Y1598930D02*
D03*
Y1624330D02*
D03*
X300991Y1598930D02*
D03*
Y1624330D02*
D03*
X326390Y1598930D02*
D03*
Y1624330D02*
D03*
X351790Y1598930D02*
D03*
Y1624330D02*
D03*
X377190Y1598930D02*
D03*
Y1624330D02*
D03*
X402590Y1598930D02*
D03*
Y1624330D02*
D03*
X427990Y1598930D02*
D03*
Y1624330D02*
D03*
X453390Y1598930D02*
D03*
Y1624330D02*
D03*
X478790Y1598930D02*
D03*
Y1624330D02*
D03*
X504190Y1598930D02*
D03*
Y1624330D02*
D03*
X529590Y1598930D02*
D03*
Y1624330D02*
D03*
X554990Y1598930D02*
D03*
Y1624330D02*
D03*
X580390Y1598930D02*
D03*
Y1624330D02*
D03*
X605790Y1598930D02*
D03*
Y1624330D02*
D03*
X631190Y1598930D02*
D03*
Y1624330D02*
D03*
X656590Y1598930D02*
D03*
Y1624330D02*
D03*
X681990Y1598930D02*
D03*
Y1624330D02*
D03*
X707390Y1598930D02*
D03*
Y1624330D02*
D03*
X732790Y1598930D02*
D03*
Y1624330D02*
D03*
X758189Y1598930D02*
D03*
D27*
Y1131570D02*
D03*
Y1377950D02*
D03*
Y1624330D02*
D03*
D28*
X2940000Y750000D02*
D03*
X60000D02*
D03*
X1430000D02*
D03*
X60000Y60000D02*
D03*
Y1800000D02*
D03*
X2940000D02*
D03*
Y60000D02*
D03*
D29*
X2175443Y661670D02*
D03*
X1771650Y1473200D02*
D03*
X1982470Y1623060D02*
D03*
Y1609090D02*
D03*
X1981200Y1591310D02*
D03*
X1864360Y1605280D02*
D03*
X1846580Y1615440D02*
D03*
X1417320Y1648460D02*
D03*
X1291590Y1656080D02*
D03*
X1154430Y1535430D02*
D03*
Y1681480D02*
D03*
X1162050Y1662430D02*
D03*
X2189480Y1026160D02*
D03*
X2192020Y1033780D02*
D03*
X1266190Y1352550D02*
D03*
X1117600Y713740D02*
D03*
X981710Y1287780D02*
D03*
X1962150Y949960D02*
D03*
X2266950Y1018540D02*
D03*
X1656080Y980440D02*
D03*
X1068070Y1009650D02*
D03*
X1076960D02*
D03*
X1085850D02*
D03*
X2153920Y1187450D02*
D03*
X1673860Y1225550D02*
D03*
X1539240Y1253490D02*
D03*
X1837690Y1230630D02*
D03*
Y1338580D02*
D03*
X1674221Y1324856D02*
D03*
X1540510Y1323340D02*
D03*
X2127250Y1250950D02*
D03*
X2117090Y1106170D02*
D03*
X2202180D02*
D03*
X2042160Y1375410D02*
D03*
X1918970Y1019810D02*
D03*
X1765300Y1005840D02*
D03*
X1176020Y949960D02*
D03*
X1159510Y1007110D02*
D03*
X1150620Y1002030D02*
D03*
X2142490Y1290320D02*
D03*
X1752600Y1187450D02*
D03*
X1744980Y1242060D02*
D03*
X1736090Y1264920D02*
D03*
X1974850Y1160780D02*
D03*
X1992630Y1153160D02*
D03*
X1412240Y1477010D02*
D03*
X1704340D02*
D03*
X1249680Y1466850D02*
D03*
X1704340D02*
D03*
X1691640Y1722120D02*
D03*
X1283970Y1534160D02*
D03*
X1252220Y1121410D02*
D03*
X1404620Y1249680D02*
D03*
X1300480Y1301750D02*
D03*
Y914400D02*
D03*
X1258570Y1714500D02*
D03*
X1276350Y1621790D02*
D03*
X1605280Y1248410D02*
D03*
X1614170Y1089660D02*
D03*
X1621790Y1106170D02*
D03*
X1426210Y1534160D02*
D03*
X1435100Y1301750D02*
D03*
X1441450Y1661160D02*
D03*
X1447800Y1610360D02*
D03*
X1461770Y1249680D02*
D03*
X1543050Y1366520D02*
D03*
X1551940Y1691640D02*
D03*
X1748790Y393700D02*
D03*
X1887220Y1706880D02*
D03*
X1767840Y359410D02*
D03*
X1673860Y355600D02*
D03*
X1840230Y1352550D02*
D03*
X1715770Y351790D02*
D03*
X1880870Y1325880D02*
D03*
X1780540Y341630D02*
D03*
X1731010Y332740D02*
D03*
X2804160Y1341120D02*
D03*
X2783840Y367030D02*
D03*
X2025650Y1466850D02*
D03*
X1882140D02*
D03*
X1887220Y1350010D02*
D03*
X1859280Y1358900D02*
D03*
X1790700Y326390D02*
D03*
X2258060Y1352550D02*
D03*
X2256790Y1093470D02*
D03*
X2346960Y1085850D02*
D03*
X2354580Y257810D02*
D03*
X2258060Y1593850D02*
D03*
X2284730Y1107440D02*
D03*
X2372360D02*
D03*
X2367280Y246380D02*
D03*
X1416050Y1146810D02*
D03*
X1478280D02*
D03*
X1568450Y1701800D02*
D03*
X1577340Y1355090D02*
D03*
X1586230Y1343660D02*
D03*
X1710690Y1352550D02*
D03*
X1722120Y1701800D02*
D03*
X1729740Y1708150D02*
D03*
X1720850Y576580D02*
D03*
X2122170Y1713230D02*
D03*
X2134870Y1617980D02*
D03*
X2127250Y1064260D02*
D03*
X2498090D02*
D03*
Y607060D02*
D03*
X2160270Y1070610D02*
D03*
X2485390D02*
D03*
Y594360D02*
D03*
X2217420Y1106170D02*
D03*
X2470150Y1096010D02*
D03*
X2432050Y1250950D02*
D03*
X2266950Y1200150D02*
D03*
Y1390650D02*
D03*
X2459066Y1375156D02*
D03*
X2463800Y584200D02*
D03*
X2534920Y1360170D02*
D03*
X2470150Y575310D02*
D03*
X2274570Y1804670D02*
D03*
X2251710Y1604010D02*
D03*
X2277110Y1612900D02*
D03*
X2439670Y1468120D02*
D03*
X2284730D02*
D03*
X2509520Y1398270D02*
D03*
Y1410970D02*
D03*
X2650490Y1753870D02*
D03*
X2711450Y1611630D02*
D03*
X2700020Y1562100D02*
D03*
X2712720Y1651000D02*
D03*
X2705100Y1728470D02*
D03*
X2712720Y1661160D02*
D03*
X2700020Y1744980D02*
D03*
X2725420Y1734820D02*
D03*
X2686050Y1710690D02*
D03*
X2725420Y1720850D02*
D03*
X2559050Y1770380D02*
D03*
X2593340Y1761490D02*
D03*
X2738120Y1789430D02*
D03*
X2583180D02*
D03*
X2637790Y1780540D02*
D03*
X2451100D02*
D03*
X2350770Y1407160D02*
D03*
X2312670Y1398270D02*
D03*
X2396490Y1372870D02*
D03*
X2430780Y1301750D02*
D03*
X2438400Y1351280D02*
D03*
X2421890Y1347470D02*
D03*
X2409190Y1717040D02*
D03*
X2414270Y1689100D02*
D03*
X2406650Y1699260D02*
D03*
X2433320Y1797050D02*
D03*
X2405380Y1781810D02*
D03*
Y1790700D02*
D03*
X2294890Y1823720D02*
D03*
X2308860Y1812290D02*
D03*
X1085850Y1790700D02*
D03*
Y1781810D02*
D03*
X1084580Y1760220D02*
D03*
Y1747520D02*
D03*
X1083310Y1736090D02*
D03*
Y1727200D02*
D03*
Y1717040D02*
D03*
Y1708150D02*
D03*
X1096010Y1706880D02*
D03*
X1085850Y1443990D02*
D03*
X1684020Y1139190D02*
D03*
X1543050Y1143000D02*
D03*
X1976120Y1126490D02*
D03*
X1746250Y1087120D02*
D03*
X1951990Y1109980D02*
D03*
X1838960Y1107440D02*
D03*
X1898650Y1118870D02*
D03*
X2089150D02*
D03*
X1963420Y1108710D02*
D03*
X1765300Y1073150D02*
D03*
X1912620Y1082040D02*
D03*
X1416050Y1131570D02*
D03*
X1813560Y1097280D02*
D03*
X1827530Y1107440D02*
D03*
X2061210Y1088390D02*
D03*
X2076450Y1101090D02*
D03*
X2061210D02*
D03*
X2089150Y1108710D02*
D03*
X2537460Y1817370D02*
D03*
X2541270Y1560830D02*
D03*
X2565400Y1532890D02*
D03*
X2574290Y1607820D02*
D03*
X2590800Y1421130D02*
D03*
X2693670Y1352550D02*
D03*
X2637790Y1389380D02*
D03*
X2833370D02*
D03*
X2674620Y1198880D02*
D03*
Y1421130D02*
D03*
X2663190Y1432560D02*
D03*
X2610273Y1015153D02*
D03*
X2840990Y1353820D02*
D03*
X2766060Y1456690D02*
D03*
X2757170Y1449070D02*
D03*
X2842260Y1441450D02*
D03*
X2792730Y1088390D02*
D03*
X2644296Y1104900D02*
D03*
X2626360Y1088390D02*
D03*
X2576407Y942340D02*
D03*
X2541270Y924560D02*
D03*
X2645410Y665480D02*
D03*
X2644296Y929640D02*
D03*
X2385060Y506730D02*
D03*
X2386330Y487680D02*
D03*
Y472440D02*
D03*
X2476500Y511810D02*
D03*
X1140460Y808990D02*
D03*
X1762760Y880110D02*
D03*
X1811020Y893278D02*
D03*
X1168400Y854710D02*
D03*
X1857074Y922956D02*
D03*
X1888356Y928236D02*
D03*
X1919638Y938530D02*
D03*
X1941830Y994410D02*
D03*
X1982202Y1051292D02*
D03*
X2002790Y1061720D02*
D03*
X1982470Y1473200D02*
D03*
X2124710Y1073150D02*
D03*
X2138680Y1082040D02*
D03*
X2239010Y1093470D02*
D03*
X2509520Y1003300D02*
D03*
X2326640D02*
D03*
X2546350Y655320D02*
D03*
X2579103Y651510D02*
D03*
X2576830Y502920D02*
D03*
X2640330Y401320D02*
D03*
X2710180Y424180D02*
D03*
X2705100Y435610D02*
D03*
X2451100Y234950D02*
D03*
X2438400D02*
D03*
X2421890Y233680D02*
D03*
X2405380Y234950D02*
D03*
X2390140D02*
D03*
X2820670Y237490D02*
D03*
X2833370D02*
D03*
X2844800D02*
D03*
X1083310Y1513840D02*
D03*
X1071880Y1512570D02*
D03*
X1061720Y1511300D02*
D03*
X1047750D02*
D03*
X1035050D02*
D03*
X1024890Y1504950D02*
D03*
X1016000Y1484630D02*
D03*
Y1477010D02*
D03*
X1022350Y1470660D02*
D03*
X1064260Y1248410D02*
D03*
X1068070Y1275080D02*
D03*
Y1282700D02*
D03*
Y1301750D02*
D03*
Y1309370D02*
D03*
Y1316990D02*
D03*
X1066800Y1325880D02*
D03*
X1065530Y1338580D02*
D03*
X1117600Y1234440D02*
D03*
Y1220470D02*
D03*
X1099820Y1160780D02*
D03*
X1137920Y1206500D02*
D03*
X1135380Y1187450D02*
D03*
X1126490D02*
D03*
X1115060Y1186180D02*
D03*
X1113790Y1168400D02*
D03*
X1108710Y1145540D02*
D03*
X1112520Y1154430D02*
D03*
X1107440Y1179830D02*
D03*
Y1226820D02*
D03*
X1104900Y1240790D02*
D03*
X1483360Y1045210D02*
D03*
X1437640Y1054100D02*
D03*
X1635760Y1075690D02*
D03*
X1554480Y1065530D02*
D03*
X1562100Y972820D02*
D03*
X1692910Y1029970D02*
D03*
X1676400Y1033780D02*
D03*
X1449070Y960120D02*
D03*
X1362710Y905510D02*
D03*
X1395730Y929640D02*
D03*
X1431290Y938530D02*
D03*
X1234440Y880110D02*
D03*
X991870Y861060D02*
D03*
X1299210Y820420D02*
D03*
X1310640Y829310D02*
D03*
X1398270Y848360D02*
D03*
X1064260Y808990D02*
D03*
X1189990Y707390D02*
D03*
X1297940Y750570D02*
D03*
X1339850Y681990D02*
D03*
X1521460Y668020D02*
D03*
X1548130Y656590D02*
D03*
X1541780Y641350D02*
D03*
X1518920Y292100D02*
D03*
X1529080D02*
D03*
X1540510D02*
D03*
X1551940Y290830D02*
D03*
X1563370Y289560D02*
D03*
X1200150Y332740D02*
D03*
X1225550Y337820D02*
D03*
X1235710D02*
D03*
X1287780Y312420D02*
D03*
X1296670Y313690D02*
D03*
X1306830D02*
D03*
X1315720D02*
D03*
Y295910D02*
D03*
X1647190Y590550D02*
D03*
Y577850D02*
D03*
Y565150D02*
D03*
X1645920Y551180D02*
D03*
X1065530Y1352550D02*
D03*
X694690Y1060450D02*
D03*
X618490D02*
D03*
X542290D02*
D03*
X466090D02*
D03*
X364491D02*
D03*
X288291D02*
D03*
X223520Y1049020D02*
D03*
X240030Y1045210D02*
D03*
X265430Y1033780D02*
D03*
X290830Y1019810D02*
D03*
X313690Y1005840D02*
D03*
X340360Y991870D02*
D03*
X873760Y1677670D02*
D03*
Y1691640D02*
D03*
Y1704340D02*
D03*
Y1717040D02*
D03*
X872490Y1762760D02*
D03*
X871220Y1751330D02*
D03*
X873760Y1739900D02*
D03*
Y1727200D02*
D03*
X965200Y1009650D02*
D03*
X963930Y998220D02*
D03*
Y981710D02*
D03*
Y966470D02*
D03*
X566420Y977900D02*
D03*
X591820Y967740D02*
D03*
X614680Y956310D02*
D03*
X640080Y946150D02*
D03*
X1037590Y1435100D02*
D03*
X1028700D02*
D03*
X1018540D02*
D03*
X1008380Y1436370D02*
D03*
X999490D02*
D03*
X989330D02*
D03*
X977900D02*
D03*
X966470Y1435100D02*
D03*
X994410Y920750D02*
D03*
X1004570Y910590D02*
D03*
X1032510Y889000D02*
D03*
X1040130Y887730D02*
D03*
X1049020Y885190D02*
D03*
X1057910D02*
D03*
X1004570Y894080D02*
D03*
Y902970D02*
D03*
X539750Y927100D02*
D03*
X514350Y919480D02*
D03*
X488950Y909320D02*
D03*
X464820Y904240D02*
D03*
X439420Y897890D02*
D03*
X415290Y892810D02*
D03*
X391160Y886460D02*
D03*
X364490Y871220D02*
D03*
X318971Y294640D02*
D03*
X347846D02*
D03*
X376722D02*
D03*
X405598D02*
D03*
X434474D02*
D03*
X908250Y435810D02*
D03*
X944880Y420370D02*
D03*
X976630Y410210D02*
D03*
X1016000Y398780D02*
D03*
X463349Y294640D02*
D03*
X492225D02*
D03*
X521101D02*
D03*
X549977D02*
D03*
X578853D02*
D03*
X607728D02*
D03*
X636604D02*
D03*
X665480D02*
D03*
X198120Y331470D02*
D03*
X218440Y339090D02*
D03*
X242570Y347980D02*
D03*
X116840Y231140D02*
D03*
X145716D02*
D03*
X174592D02*
D03*
X203467D02*
D03*
X232343D02*
D03*
X261219D02*
D03*
X290095D02*
D03*
X318971D02*
D03*
X347846D02*
D03*
X376722D02*
D03*
X405598D02*
D03*
X434474D02*
D03*
X463349D02*
D03*
X485010D02*
D03*
X521101D02*
D03*
X549977D02*
D03*
X578853D02*
D03*
X607728D02*
D03*
X636604D02*
D03*
X665480D02*
D03*
X1012190Y234950D02*
D03*
X978807D02*
D03*
X961390D02*
D03*
X945424Y233680D02*
D03*
X908050Y232410D02*
D03*
X878659Y233680D02*
D03*
X845276Y234950D02*
D03*
X811893D02*
D03*
X778510Y236220D02*
D03*
X661737Y601980D02*
D03*
X631324D02*
D03*
X600910D02*
D03*
X570497D02*
D03*
X540084D02*
D03*
X509671D02*
D03*
X479258D02*
D03*
X448845D02*
D03*
X415090D02*
D03*
X390090D02*
D03*
X357605D02*
D03*
X327192D02*
D03*
X296779D02*
D03*
X266366D02*
D03*
X235953D02*
D03*
X205539D02*
D03*
X172720D02*
D03*
X142240D02*
D03*
X114300D02*
D03*
X692150D02*
D03*
X1216660Y99060D02*
D03*
X1276350Y119380D02*
D03*
X1329690Y109220D02*
D03*
X1350010Y88900D02*
D03*
X1489710Y74930D02*
D03*
X1503680Y54610D02*
D03*
X1593850Y59690D02*
D03*
X1577340Y46990D02*
D03*
X2402840Y666750D02*
D03*
X2370355D02*
D03*
X2337870D02*
D03*
X2240414D02*
D03*
X2207928D02*
D03*
X2142958D02*
D03*
X2110473D02*
D03*
X2045502Y662940D02*
D03*
X2077987Y658863D02*
D03*
X2272899Y671429D02*
D03*
X2305384Y667686D02*
D03*
M02*
