G04*
G04 #@! TF.GenerationSoftware,Altium Limited,Altium Designer,23.10.1 (27)*
G04*
G04 Layer_Color=16711935*
%FSLAX25Y25*%
%MOIN*%
G70*
G04*
G04 #@! TF.SameCoordinates,D0F96BE9-EE4C-402D-8CE8-E6F0CD5897FE*
G04*
G04*
G04 #@! TF.FilePolarity,Negative*
G04*
G01*
G75*
%ADD28R,0.03800X0.04800*%
%ADD29C,0.05512*%
%ADD30R,0.06706X0.06706*%
%ADD31C,0.06706*%
%ADD32C,0.14580*%
G04:AMPARAMS|DCode=42|XSize=25.72mil|YSize=63.12mil|CornerRadius=5.95mil|HoleSize=0mil|Usage=FLASHONLY|Rotation=0.000|XOffset=0mil|YOffset=0mil|HoleType=Round|Shape=RoundedRectangle|*
%AMROUNDEDRECTD42*
21,1,0.02572,0.05122,0,0,0.0*
21,1,0.01382,0.06312,0,0,0.0*
1,1,0.01190,0.00691,-0.02561*
1,1,0.01190,-0.00691,-0.02561*
1,1,0.01190,-0.00691,0.02561*
1,1,0.01190,0.00691,0.02561*
%
%ADD42ROUNDEDRECTD42*%
D28*
X130400Y80598D02*
D03*
Y74402D02*
D03*
X176100Y51198D02*
D03*
Y45100D02*
D03*
X183900Y45200D02*
D03*
Y51298D02*
D03*
X88100Y36603D02*
D03*
Y42800D02*
D03*
X108000Y76700D02*
D03*
Y70503D02*
D03*
X107800Y36603D02*
D03*
Y42800D02*
D03*
X88100Y77200D02*
D03*
Y71003D02*
D03*
X56300Y42800D02*
D03*
Y36603D02*
D03*
X76300Y77398D02*
D03*
Y71202D02*
D03*
X76200Y36603D02*
D03*
Y42800D02*
D03*
X56100Y68302D02*
D03*
Y74498D02*
D03*
X153600Y80498D02*
D03*
Y74302D02*
D03*
X24400Y42800D02*
D03*
Y36603D02*
D03*
X44400Y68302D02*
D03*
Y74498D02*
D03*
X44800Y42800D02*
D03*
Y36603D02*
D03*
X24700Y68302D02*
D03*
Y74498D02*
D03*
X160400Y80497D02*
D03*
Y74300D02*
D03*
X137400Y80497D02*
D03*
Y74300D02*
D03*
D29*
X114170Y19800D02*
D03*
X108264D02*
D03*
X102358D02*
D03*
X96452D02*
D03*
X90548D02*
D03*
X84641D02*
D03*
X78737D02*
D03*
X72830D02*
D03*
D30*
X147000Y17400D02*
D03*
D31*
X157000D02*
D03*
D32*
X187008Y88583D02*
D03*
X9843Y9843D02*
D03*
Y88583D02*
D03*
X187008Y9843D02*
D03*
D42*
X169275Y37186D02*
D03*
X166716D02*
D03*
X164157D02*
D03*
X161598D02*
D03*
X159039D02*
D03*
X156480D02*
D03*
X153920D02*
D03*
X151361D02*
D03*
X148802D02*
D03*
X146243D02*
D03*
X143684D02*
D03*
X141125D02*
D03*
X169275Y60414D02*
D03*
X166716D02*
D03*
X164157D02*
D03*
X161598D02*
D03*
X159039D02*
D03*
X156480D02*
D03*
X153920D02*
D03*
X151361D02*
D03*
X148802D02*
D03*
X146243D02*
D03*
X143684D02*
D03*
X141125D02*
D03*
M02*
