G04*
G04 #@! TF.GenerationSoftware,Altium Limited,Altium Designer,23.10.1 (27)*
G04*
G04 Layer_Color=8421504*
%FSLAX25Y25*%
%MOIN*%
G70*
G04*
G04 #@! TF.SameCoordinates,D0F96BE9-EE4C-402D-8CE8-E6F0CD5897FE*
G04*
G04*
G04 #@! TF.FilePolarity,Positive*
G04*
G01*
G75*
%ADD15R,0.03937X0.11811*%
%ADD16R,0.04724X0.07284*%
%ADD17R,0.03740X0.03543*%
%ADD18R,0.01968X0.02362*%
%ADD19R,0.03937X0.04331*%
%ADD20R,0.05118X0.07284*%
%ADD21R,0.03000X0.04000*%
D15*
X44500Y72854D02*
D03*
X34500D02*
D03*
X24500D02*
D03*
Y42146D02*
D03*
X34500D02*
D03*
X44500D02*
D03*
X108000Y72854D02*
D03*
X98000D02*
D03*
X88000D02*
D03*
Y42146D02*
D03*
X98000D02*
D03*
X108000D02*
D03*
X76250Y72854D02*
D03*
X66250D02*
D03*
X56250D02*
D03*
Y42146D02*
D03*
X66250D02*
D03*
X76250D02*
D03*
D16*
X192202Y62900D02*
D03*
X179998D02*
D03*
D17*
X125673Y73465D02*
D03*
X137327D02*
D03*
X157577D02*
D03*
X145923D02*
D03*
D18*
X129866Y71766D02*
D03*
X133134D02*
D03*
X153384D02*
D03*
X150116D02*
D03*
D19*
X131000Y47693D02*
D03*
Y41000D02*
D03*
D20*
X191509Y52000D02*
D03*
X180091D02*
D03*
D21*
X123100Y41800D02*
D03*
Y47898D02*
D03*
X164100Y60498D02*
D03*
Y54302D02*
D03*
X171100Y60497D02*
D03*
Y54300D02*
D03*
X169300Y38402D02*
D03*
Y44598D02*
D03*
M02*
