G04*
G04 #@! TF.GenerationSoftware,Altium Limited,Altium Designer,23.10.1 (27)*
G04*
G04 Layer_Physical_Order=1*
G04 Layer_Color=255*
%FSLAX25Y25*%
%MOIN*%
G70*
G04*
G04 #@! TF.SameCoordinates,D0F96BE9-EE4C-402D-8CE8-E6F0CD5897FE*
G04*
G04*
G04 #@! TF.FilePolarity,Positive*
G04*
G01*
G75*
%ADD15R,0.03937X0.11811*%
%ADD16R,0.04724X0.07284*%
%ADD17R,0.03740X0.03543*%
%ADD18R,0.01968X0.02362*%
%ADD19R,0.03937X0.04331*%
%ADD20R,0.05118X0.07284*%
%ADD21R,0.03000X0.04000*%
%ADD33C,0.00800*%
%ADD34C,0.03000*%
%ADD35C,0.02000*%
%ADD36C,0.05118*%
%ADD37R,0.05906X0.05906*%
%ADD38C,0.05906*%
%ADD39C,0.13780*%
%ADD40C,0.02000*%
G36*
X194780Y67542D02*
X192702D01*
Y62900D01*
X191702D01*
Y67542D01*
X189200D01*
Y76900D01*
X175600Y90500D01*
X24400D01*
X12800Y78900D01*
X2020D01*
Y96280D01*
X194780Y96280D01*
Y67542D01*
D02*
G37*
G36*
X187100Y68800D02*
Y30300D01*
X168200Y11400D01*
X164647D01*
X164440Y11900D01*
X170670Y18130D01*
X171090Y18759D01*
X171237Y19500D01*
Y30202D01*
X171419Y30384D01*
X171800Y31303D01*
Y32297D01*
X171419Y33216D01*
X171237Y33398D01*
Y34902D01*
X172300D01*
Y41098D01*
Y48098D01*
X169046D01*
X168800Y48147D01*
X166757D01*
X166649Y48256D01*
Y50802D01*
X167100D01*
Y51752D01*
X168100D01*
Y50800D01*
X174100D01*
Y56997D01*
Y63997D01*
X173600D01*
Y64897D01*
X173219Y65816D01*
X172516Y66519D01*
X171597Y66900D01*
X171340D01*
X169970Y68270D01*
X169341Y68690D01*
X168600Y68837D01*
X160600D01*
X160464Y68810D01*
X160077Y69127D01*
Y69720D01*
X160054Y69777D01*
X160331Y70193D01*
X160947D01*
Y76736D01*
X154207D01*
Y74447D01*
X149293D01*
Y76736D01*
X142553D01*
Y70193D01*
X143188D01*
X143466Y69777D01*
X143423Y69674D01*
Y68680D01*
X143804Y67761D01*
X143986Y67579D01*
Y37225D01*
X140089Y33328D01*
X139598Y33426D01*
X139519Y33616D01*
X138816Y34319D01*
X137897Y34700D01*
X136903D01*
X135984Y34319D01*
X135802Y34137D01*
X133764D01*
X133681Y34196D01*
X133397Y34637D01*
X133404Y34671D01*
X133500Y34903D01*
Y35154D01*
X133549Y35400D01*
Y37335D01*
X134468D01*
Y44028D01*
Y51358D01*
X133549D01*
Y59800D01*
X133500Y60046D01*
Y60297D01*
X133404Y60529D01*
X133355Y60776D01*
X133215Y60984D01*
X133119Y61216D01*
X132942Y61394D01*
X132802Y61602D01*
X132594Y61742D01*
X132416Y61919D01*
X132184Y62015D01*
X131975Y62155D01*
X131729Y62204D01*
X131497Y62300D01*
X131246D01*
X131000Y62349D01*
X125756D01*
X119749Y68356D01*
Y72000D01*
X119700Y72246D01*
Y72497D01*
X119604Y72729D01*
X119555Y72975D01*
X119415Y73184D01*
X119319Y73416D01*
X119142Y73594D01*
X119002Y73802D01*
X118794Y73942D01*
X118616Y74119D01*
X118384Y74216D01*
X118175Y74355D01*
X117929Y74404D01*
X117697Y74500D01*
X117446D01*
X117200Y74549D01*
X116954Y74500D01*
X116703D01*
X116471Y74404D01*
X116225Y74355D01*
X116016Y74216D01*
X115784Y74119D01*
X115606Y73942D01*
X115398Y73802D01*
X115258Y73594D01*
X115081Y73416D01*
X114985Y73184D01*
X114845Y72975D01*
X114796Y72729D01*
X114700Y72497D01*
Y72246D01*
X114651Y72000D01*
Y67300D01*
X114845Y66325D01*
X115398Y65498D01*
X122898Y57998D01*
X123724Y57445D01*
X124700Y57251D01*
X128451D01*
Y51358D01*
X127532D01*
Y50345D01*
X126100D01*
Y51398D01*
X120100D01*
Y50926D01*
X119600Y50592D01*
X119097Y50800D01*
X118103D01*
X117184Y50419D01*
X116481Y49716D01*
X116100Y48797D01*
Y48540D01*
X111969Y44408D01*
X111469Y44615D01*
Y49551D01*
X104532D01*
Y34740D01*
X105652D01*
X105710Y34637D01*
X105417Y34137D01*
X85128D01*
X84905Y34637D01*
X84998Y34740D01*
X91469D01*
Y49551D01*
X89937D01*
Y53398D01*
X90740Y54200D01*
X90997D01*
X91916Y54581D01*
X92619Y55284D01*
X93000Y56203D01*
Y57197D01*
X92619Y58116D01*
X91916Y58819D01*
X90997Y59200D01*
X90003D01*
X89137Y58842D01*
X88637Y59026D01*
Y60098D01*
X89370Y60830D01*
X89790Y61459D01*
X89937Y62200D01*
Y65448D01*
X91469D01*
Y80260D01*
X90601D01*
X90323Y80675D01*
X90500Y81103D01*
Y82097D01*
X90119Y83016D01*
X89416Y83719D01*
X88497Y84100D01*
X87503D01*
X86584Y83719D01*
X85881Y83016D01*
X85500Y82097D01*
Y81103D01*
X85677Y80675D01*
X85399Y80260D01*
X84531D01*
Y65448D01*
X86063D01*
Y63002D01*
X85330Y62270D01*
X84910Y61641D01*
X84763Y60900D01*
Y58098D01*
X84581Y57916D01*
X84200Y56997D01*
Y56003D01*
X84581Y55084D01*
X85284Y54381D01*
X86063Y54058D01*
Y49551D01*
X84531D01*
Y44083D01*
X84446D01*
X83705Y43936D01*
X83076Y43516D01*
X81830Y42270D01*
X81410Y41641D01*
X81263Y40900D01*
Y38398D01*
X81081Y38216D01*
X80700Y37297D01*
Y36303D01*
X81081Y35384D01*
X81784Y34681D01*
X81889Y34637D01*
X81789Y34137D01*
X79610D01*
X79507Y34240D01*
X79714Y34740D01*
X79719D01*
Y49551D01*
X72781D01*
Y34740D01*
X74313D01*
Y33750D01*
X74460Y33009D01*
X74880Y32380D01*
X75500Y31760D01*
Y31503D01*
X75881Y30584D01*
X76584Y29881D01*
X77503Y29500D01*
X78153D01*
X78360Y29000D01*
X77367Y28006D01*
X76947Y27378D01*
X76799Y26637D01*
Y23369D01*
X76244Y23048D01*
X75783Y22587D01*
X75323Y23048D01*
X74397Y23582D01*
X73365Y23859D01*
X72296D01*
X71264Y23582D01*
X70338Y23048D01*
X69582Y22292D01*
X69048Y21367D01*
X68771Y20334D01*
Y19266D01*
X69048Y18233D01*
X69582Y17308D01*
X70338Y16552D01*
X71264Y16018D01*
X72296Y15741D01*
X73365D01*
X74397Y16018D01*
X75323Y16552D01*
X75783Y17013D01*
X76244Y16552D01*
X77170Y16018D01*
X78202Y15741D01*
X79271D01*
X80303Y16018D01*
X81229Y16552D01*
X81689Y17012D01*
X82149Y16552D01*
X83075Y16018D01*
X84107Y15741D01*
X85176D01*
X86208Y16018D01*
X87134Y16552D01*
X87889Y17308D01*
X87993Y17321D01*
X88362Y16952D01*
X89174Y16484D01*
X90048Y16249D01*
Y19800D01*
Y23351D01*
X89174Y23117D01*
X88362Y22648D01*
X87993Y22279D01*
X87889Y22292D01*
X87134Y23048D01*
X86578Y23369D01*
Y24939D01*
X88073Y26433D01*
X107840D01*
X108032Y25971D01*
X106989Y24929D01*
X106569Y24300D01*
X106422Y23559D01*
Y23424D01*
X105771Y23048D01*
X105311Y22588D01*
X104851Y23048D01*
X103925Y23582D01*
X102893Y23859D01*
X101824D01*
X100792Y23582D01*
X99866Y23048D01*
X99405Y22587D01*
X98945Y23048D01*
X98019Y23582D01*
X96987Y23859D01*
X95918D01*
X94886Y23582D01*
X93960Y23048D01*
X93204Y22292D01*
X93102Y22279D01*
X92733Y22648D01*
X91921Y23117D01*
X91048Y23351D01*
Y19800D01*
Y16249D01*
X91921Y16484D01*
X92733Y16952D01*
X93102Y17321D01*
X93204Y17308D01*
X93960Y16552D01*
X94886Y16018D01*
X95918Y15741D01*
X96987D01*
X98019Y16018D01*
X98945Y16552D01*
X99405Y17013D01*
X99866Y16552D01*
X100421Y16231D01*
Y15242D01*
X100569Y14500D01*
X100989Y13872D01*
X102960Y11900D01*
X102753Y11400D01*
X26500Y11400D01*
X12400Y25500D01*
Y74100D01*
X23300Y85000D01*
X170900D01*
X187100Y68800D01*
D02*
G37*
G36*
X120100Y45674D02*
Y44398D01*
X120600D01*
Y42300D01*
X123100D01*
Y41800D01*
D01*
Y42300D01*
X125600D01*
Y44398D01*
X126100D01*
Y45247D01*
X127532D01*
Y44028D01*
Y37335D01*
X128451D01*
Y35400D01*
X128500Y35154D01*
Y34903D01*
X128596Y34671D01*
X128603Y34637D01*
X128319Y34196D01*
X128236Y34137D01*
X114380D01*
X114173Y34637D01*
X114719Y35184D01*
X115100Y36103D01*
Y37097D01*
X114719Y38016D01*
X114016Y38719D01*
X113097Y39100D01*
X112103D01*
X111884Y39009D01*
X111469Y39287D01*
Y40209D01*
X112446D01*
X113187Y40356D01*
X113816Y40776D01*
X118840Y45800D01*
X119097D01*
X119600Y46008D01*
X120100Y45674D01*
D02*
G37*
G36*
X139779Y23301D02*
X138215Y21737D01*
X117738D01*
X117418Y22292D01*
X116662Y23048D01*
X116290Y23263D01*
X116424Y23763D01*
X139587D01*
X139779Y23301D01*
D02*
G37*
G36*
X142547Y19937D02*
Y14937D01*
X105402D01*
X104542Y15798D01*
X104611Y16413D01*
X104851Y16552D01*
X105311Y17012D01*
X105771Y16552D01*
X106697Y16018D01*
X107729Y15741D01*
X108798D01*
X109830Y16018D01*
X110756Y16552D01*
X111216Y17013D01*
X111677Y16552D01*
X112603Y16018D01*
X113635Y15741D01*
X114704D01*
X115736Y16018D01*
X116662Y16552D01*
X117418Y17308D01*
X117738Y17863D01*
X139017D01*
X139759Y18010D01*
X140387Y18430D01*
X142085Y20128D01*
X142547Y19937D01*
D02*
G37*
G36*
X161100Y56998D02*
Y50802D01*
X161551D01*
Y47200D01*
X161745Y46224D01*
X162298Y45398D01*
X163899Y43796D01*
X164726Y43244D01*
X165702Y43049D01*
X166300D01*
Y41098D01*
Y34902D01*
X167363D01*
Y33398D01*
X167181Y33216D01*
X166800Y32297D01*
Y31303D01*
X167181Y30384D01*
X167363Y30202D01*
Y20302D01*
X161998Y14937D01*
X161220D01*
X160970Y15370D01*
X161149Y15681D01*
X161453Y16814D01*
Y17986D01*
X161149Y19119D01*
X160563Y20134D01*
X159734Y20963D01*
X158719Y21549D01*
X157586Y21853D01*
X156414D01*
X155281Y21549D01*
X154266Y20963D01*
X153437Y20134D01*
X152851Y19119D01*
X152547Y17986D01*
Y16814D01*
X152851Y15681D01*
X153030Y15370D01*
X152780Y14937D01*
X151453D01*
Y21853D01*
X150846D01*
X150654Y22315D01*
X156870Y28530D01*
X157290Y29159D01*
X157437Y29900D01*
Y56498D01*
X159501Y58561D01*
X161100D01*
Y56998D01*
D02*
G37*
G36*
X192009Y47358D02*
X194780D01*
Y3200D01*
X194858Y2810D01*
X194880Y2776D01*
Y2020D01*
X2020D01*
Y18000D01*
X14500D01*
X23800Y8700D01*
X172100D01*
X189200Y25800D01*
Y47358D01*
X191009D01*
Y52000D01*
X192009D01*
Y47358D01*
D02*
G37*
%LPC*%
G36*
X100969Y79760D02*
X98500D01*
Y73354D01*
X100969D01*
Y79760D01*
D02*
G37*
G36*
X97500D02*
X95031D01*
Y73354D01*
X97500D01*
Y79760D01*
D02*
G37*
G36*
X69218D02*
X66750D01*
Y73354D01*
X69218D01*
Y79760D01*
D02*
G37*
G36*
X65750D02*
X63282D01*
Y73354D01*
X65750D01*
Y79760D01*
D02*
G37*
G36*
X37468D02*
X35000D01*
Y73354D01*
X37468D01*
Y79760D01*
D02*
G37*
G36*
X34000D02*
X31532D01*
Y73354D01*
X34000D01*
Y79760D01*
D02*
G37*
G36*
X129043Y76736D02*
X122303D01*
Y70193D01*
X127882D01*
Y69584D01*
X129366D01*
Y71766D01*
Y73947D01*
X129043D01*
Y76736D01*
D02*
G37*
G36*
X59719Y80260D02*
X52781D01*
Y68507D01*
X52281Y68243D01*
X52237Y68274D01*
Y70500D01*
X52090Y71241D01*
X51670Y71870D01*
X49316Y74224D01*
X48687Y74644D01*
X47969Y74787D01*
Y80260D01*
X41032D01*
Y65448D01*
X47905D01*
X48181Y64784D01*
X48884Y64081D01*
X49803Y63700D01*
X50797D01*
X51716Y64081D01*
X52419Y64784D01*
X52520Y65026D01*
X52781Y65448D01*
Y65448D01*
X52781Y65448D01*
X54313D01*
Y59350D01*
X54460Y58609D01*
X54880Y57980D01*
X55200Y57660D01*
Y57403D01*
X55581Y56484D01*
X56127Y55937D01*
X56173Y55521D01*
X56088Y55323D01*
X55481Y54716D01*
X55100Y53797D01*
Y53215D01*
X54880Y52995D01*
X54460Y52367D01*
X54313Y51625D01*
Y50830D01*
X53813Y50623D01*
X53316Y51119D01*
X52397Y51500D01*
X51403D01*
X50484Y51119D01*
X49781Y50416D01*
X49400Y49497D01*
Y48503D01*
X49781Y47584D01*
X49963Y47402D01*
Y44600D01*
X50110Y43859D01*
X50530Y43230D01*
X51430Y42330D01*
X52059Y41910D01*
X52781Y41767D01*
Y34740D01*
X59719D01*
Y49551D01*
X58187D01*
Y50823D01*
X58212Y50847D01*
X59016Y51181D01*
X59719Y51884D01*
X60100Y52803D01*
Y53797D01*
X59719Y54716D01*
X59173Y55263D01*
X59127Y55679D01*
X59212Y55877D01*
X59819Y56484D01*
X60200Y57403D01*
Y58397D01*
X59819Y59316D01*
X59116Y60019D01*
X58197Y60400D01*
X58187D01*
Y65448D01*
X59719D01*
Y65894D01*
X59953Y66051D01*
X60948D01*
X61867Y66431D01*
X62570Y67135D01*
X62782Y67645D01*
X63282Y67545D01*
Y65948D01*
X65750D01*
Y72354D01*
X63282D01*
Y69556D01*
X62782Y69457D01*
X62570Y69967D01*
X62388Y70149D01*
Y72049D01*
X62240Y72790D01*
X61821Y73419D01*
X61016Y74224D01*
X60387Y74644D01*
X59719Y74777D01*
Y80260D01*
D02*
G37*
G36*
X100969Y72354D02*
X98500D01*
Y65948D01*
X100969D01*
Y72354D01*
D02*
G37*
G36*
X97500D02*
X95031D01*
Y65948D01*
X97500D01*
Y72354D01*
D02*
G37*
G36*
X69218D02*
X66750D01*
Y65948D01*
X69218D01*
Y72354D01*
D02*
G37*
G36*
X37468D02*
X35000D01*
Y65948D01*
X37468D01*
Y72354D01*
D02*
G37*
G36*
X140697Y76736D02*
X133957D01*
Y74447D01*
X130650D01*
Y73947D01*
X130366D01*
Y71766D01*
Y69584D01*
X130634D01*
Y68737D01*
X131015Y67818D01*
X131298Y67534D01*
X131181Y67416D01*
X130800Y66497D01*
Y65503D01*
X131181Y64584D01*
X131884Y63881D01*
X132803Y63500D01*
X133797D01*
X134716Y63881D01*
X135419Y64584D01*
X135800Y65503D01*
Y65760D01*
X138697Y68657D01*
X139117Y69286D01*
X139264Y70027D01*
Y70193D01*
X140697D01*
Y76736D01*
D02*
G37*
G36*
X183360Y67542D02*
X180498D01*
Y63400D01*
X183360D01*
Y67542D01*
D02*
G37*
G36*
X179498D02*
X176635D01*
Y63400D01*
X179498D01*
Y67542D01*
D02*
G37*
G36*
X183360Y62400D02*
X180498D01*
Y58258D01*
X183360D01*
Y62400D01*
D02*
G37*
G36*
X179498D02*
X176635D01*
Y58258D01*
X179498D01*
Y62400D01*
D02*
G37*
G36*
X76747Y84100D02*
X75753D01*
X74834Y83719D01*
X74131Y83016D01*
X73750Y82097D01*
Y81103D01*
X73927Y80675D01*
X73649Y80260D01*
X72781D01*
Y65448D01*
X74313D01*
Y59748D01*
X74131Y59566D01*
X73750Y58647D01*
Y57653D01*
X74131Y56734D01*
X74834Y56031D01*
X75753Y55650D01*
X76747D01*
X77666Y56031D01*
X78369Y56734D01*
X78750Y57653D01*
Y58647D01*
X78369Y59566D01*
X78187Y59748D01*
Y65448D01*
X79719D01*
Y80260D01*
X78851D01*
X78573Y80675D01*
X78750Y81103D01*
Y82097D01*
X78369Y83016D01*
X77666Y83719D01*
X76747Y84100D01*
D02*
G37*
G36*
X108497D02*
X107503D01*
X106584Y83719D01*
X105881Y83016D01*
X105500Y82097D01*
Y81103D01*
X105677Y80675D01*
X105399Y80260D01*
X104532D01*
Y65448D01*
X106063D01*
Y59000D01*
X106210Y58259D01*
X106630Y57630D01*
X107200Y57060D01*
Y56803D01*
X107581Y55884D01*
X108284Y55181D01*
X109203Y54800D01*
X110197D01*
X111116Y55181D01*
X111819Y55884D01*
X112200Y56803D01*
Y57797D01*
X111819Y58716D01*
X111116Y59419D01*
X110197Y59800D01*
X109940D01*
X109937Y59802D01*
Y65448D01*
X111469D01*
Y80260D01*
X110601D01*
X110323Y80675D01*
X110500Y81103D01*
Y82097D01*
X110119Y83016D01*
X109416Y83719D01*
X108497Y84100D01*
D02*
G37*
G36*
X183650Y56642D02*
X180591D01*
Y52500D01*
X183650D01*
Y56642D01*
D02*
G37*
G36*
X179591D02*
X176532D01*
Y52500D01*
X179591D01*
Y56642D01*
D02*
G37*
G36*
X183650Y51500D02*
X180591D01*
Y47358D01*
X183650D01*
Y51500D01*
D02*
G37*
G36*
X179591D02*
X176532D01*
Y47358D01*
X179591D01*
Y51500D01*
D02*
G37*
G36*
X100969Y49051D02*
X98500D01*
Y42646D01*
X100969D01*
Y49051D01*
D02*
G37*
G36*
X97500D02*
X95031D01*
Y42646D01*
X97500D01*
Y49051D01*
D02*
G37*
G36*
X69218D02*
X66750D01*
Y42646D01*
X69218D01*
Y49051D01*
D02*
G37*
G36*
X65750D02*
X63282D01*
Y42646D01*
X65750D01*
Y49051D01*
D02*
G37*
G36*
X37468D02*
X35000D01*
Y42646D01*
X37468D01*
Y49051D01*
D02*
G37*
G36*
X34000D02*
X31532D01*
Y42646D01*
X34000D01*
Y49051D01*
D02*
G37*
G36*
X100969Y41646D02*
X98500D01*
Y35241D01*
X100969D01*
Y41646D01*
D02*
G37*
G36*
X97500D02*
X95031D01*
Y35241D01*
X97500D01*
Y41646D01*
D02*
G37*
G36*
X69218D02*
X66750D01*
Y35241D01*
X69218D01*
Y41646D01*
D02*
G37*
G36*
X65750D02*
X63282D01*
Y35241D01*
X65750D01*
Y41646D01*
D02*
G37*
G36*
X37468D02*
X35000D01*
Y35241D01*
X37468D01*
Y41646D01*
D02*
G37*
G36*
X34000D02*
X31532D01*
Y35241D01*
X34000D01*
Y41646D01*
D02*
G37*
G36*
X44997Y56600D02*
X44003D01*
X43084Y56219D01*
X42381Y55516D01*
X42000Y54597D01*
Y53603D01*
X42381Y52684D01*
X42563Y52502D01*
Y49551D01*
X41032D01*
Y34740D01*
X47969D01*
Y49551D01*
X46437D01*
Y52502D01*
X46619Y52684D01*
X47000Y53603D01*
Y54597D01*
X46619Y55516D01*
X45916Y56219D01*
X44997Y56600D01*
D02*
G37*
G36*
X27968Y80260D02*
X21032D01*
Y65448D01*
X23363D01*
Y64398D01*
X23181Y64216D01*
X22800Y63297D01*
Y62303D01*
X23181Y61384D01*
X23884Y60681D01*
X24803Y60300D01*
X25797D01*
X26716Y60681D01*
X27419Y61384D01*
X27567Y61741D01*
X28136Y61948D01*
X28363Y61850D01*
Y56202D01*
X26760Y54600D01*
X26403D01*
X25484Y54219D01*
X24781Y53516D01*
X24400Y52597D01*
Y52240D01*
X23130Y50970D01*
X22710Y50341D01*
X22563Y49600D01*
Y49551D01*
X21032D01*
Y34740D01*
X27968D01*
Y49551D01*
X28228Y49944D01*
X28316Y49981D01*
X29019Y50684D01*
X29400Y51603D01*
Y51760D01*
X31670Y54030D01*
X32090Y54659D01*
X32237Y55400D01*
Y61902D01*
X32419Y62084D01*
X32800Y63003D01*
Y63997D01*
X32419Y64916D01*
X31887Y65448D01*
X32094Y65948D01*
X34000D01*
Y72354D01*
X31532D01*
Y66237D01*
X31054Y65894D01*
X30797Y66000D01*
X29803D01*
X28884Y65619D01*
X28181Y64916D01*
X28033Y64559D01*
X27464Y64353D01*
X27237Y64450D01*
Y65448D01*
X27968D01*
Y80260D01*
D02*
G37*
G36*
X125600Y41300D02*
X123600D01*
Y38800D01*
X125600D01*
Y41300D01*
D02*
G37*
G36*
X122600D02*
X120600D01*
Y38800D01*
X122600D01*
Y41300D01*
D02*
G37*
%LPD*%
D15*
X44500Y72854D02*
D03*
X34500D02*
D03*
X24500D02*
D03*
Y42146D02*
D03*
X34500D02*
D03*
X44500D02*
D03*
X108000Y72854D02*
D03*
X98000D02*
D03*
X88000D02*
D03*
Y42146D02*
D03*
X98000D02*
D03*
X108000D02*
D03*
X76250Y72854D02*
D03*
X66250D02*
D03*
X56250D02*
D03*
Y42146D02*
D03*
X66250D02*
D03*
X76250D02*
D03*
D16*
X192202Y62900D02*
D03*
X179998D02*
D03*
D17*
X125673Y73465D02*
D03*
X137327D02*
D03*
X157577D02*
D03*
X145923D02*
D03*
D18*
X129866Y71766D02*
D03*
X133134D02*
D03*
X153384D02*
D03*
X150116D02*
D03*
D19*
X131000Y47693D02*
D03*
Y41000D02*
D03*
D20*
X191509Y52000D02*
D03*
X180091D02*
D03*
D21*
X123100Y41800D02*
D03*
Y47898D02*
D03*
X164100Y60498D02*
D03*
Y54302D02*
D03*
X171100Y60497D02*
D03*
Y54300D02*
D03*
X169300Y38402D02*
D03*
Y44598D02*
D03*
D33*
X155500Y29900D02*
Y57300D01*
X148300Y22700D02*
X155500Y29900D01*
X139017Y19800D02*
X141917Y22700D01*
X148300D01*
X114170Y19800D02*
X139017D01*
X110500Y25700D02*
X148400D01*
X153600Y30900D02*
Y59900D01*
X148400Y25700D02*
X153600Y30900D01*
X104600Y13000D02*
X162800D01*
X169300Y19500D01*
Y31800D01*
X77800Y32200D02*
X137400D01*
X76250Y33750D02*
X77800Y32200D01*
X78737Y26637D02*
X81800Y29700D01*
X78737Y19800D02*
Y26637D01*
X81800Y29700D02*
X139200D01*
X145923Y36423D01*
X87271Y28370D02*
X141971D01*
X84641Y25741D02*
X87271Y28370D01*
X141971D02*
X150116Y36516D01*
X145923Y36423D02*
Y69177D01*
X150116Y36516D02*
Y69216D01*
X102358Y15242D02*
Y19800D01*
Y15242D02*
X104600Y13000D01*
X108359Y23559D02*
X110500Y25700D01*
X169300Y31800D02*
Y38402D01*
X84641Y19800D02*
Y25741D01*
X108359Y19896D02*
Y23559D01*
X108263Y19800D02*
X108359Y19896D01*
X153600Y59900D02*
X160600Y66900D01*
X155500Y57300D02*
X158698Y60498D01*
X164100D02*
Y65000D01*
X160600Y66900D02*
X168600D01*
X171100Y64400D01*
X158698Y60498D02*
X164100D01*
X110600Y34600D02*
X112600Y36600D01*
X108000Y35200D02*
X108600Y34600D01*
X110600D01*
X108000Y35200D02*
Y42146D01*
X76250Y72854D02*
Y81600D01*
X88000Y72854D02*
Y81600D01*
X108000Y72854D02*
Y81600D01*
X171100Y60497D02*
Y64400D01*
X145923Y69177D02*
Y73465D01*
X150116Y69216D02*
Y71766D01*
X157577Y69223D02*
X157600Y69200D01*
X157577Y69223D02*
Y73465D01*
X153492Y69508D02*
X153600Y69400D01*
X153384Y71766D02*
X153492Y71658D01*
Y69508D02*
Y71658D01*
X133300Y66000D02*
X137327Y70027D01*
Y73465D01*
X133134Y69234D02*
Y71766D01*
X83200Y36800D02*
Y40900D01*
X84446Y42146D01*
X88000D01*
X76250Y33750D02*
Y42146D01*
X54696Y43700D02*
X56250Y42146D01*
X52800Y43700D02*
X54696D01*
X51900Y44600D02*
X52800Y43700D01*
X51900Y44600D02*
Y49000D01*
X60451Y68551D02*
Y72049D01*
X59646Y72854D02*
X60451Y72049D01*
X56250Y72854D02*
X59646D01*
X50300Y66200D02*
Y70500D01*
X47946Y72854D02*
X50300Y70500D01*
X44500Y72854D02*
X47946D01*
X25300Y62800D02*
Y72054D01*
X24500Y72854D02*
X25300Y72054D01*
X24500Y49600D02*
X30300Y55400D01*
Y63500D01*
X24500Y42146D02*
Y49600D01*
X44500Y54100D02*
X44600Y54200D01*
X44500Y42146D02*
Y54100D01*
X56250Y51625D02*
X57600Y52975D01*
X56250Y42146D02*
Y51625D01*
X57600Y52975D02*
Y53300D01*
X56250Y59350D02*
X57700Y57900D01*
X56250Y59350D02*
Y72854D01*
X76000Y57900D02*
X76250Y58150D01*
Y72854D01*
X86700Y56500D02*
Y60900D01*
X88000Y62200D02*
Y72854D01*
X86700Y60900D02*
X88000Y62200D01*
Y54200D02*
X90500Y56700D01*
X88000Y42146D02*
Y54200D01*
X108000Y59000D02*
X109700Y57300D01*
X108000Y59000D02*
Y72854D01*
Y42146D02*
X112446D01*
X118600Y48300D01*
D34*
X191509Y52000D02*
X191856Y52347D01*
Y62553D02*
X192202Y62900D01*
X191856Y52347D02*
Y62553D01*
D35*
X164100Y47200D02*
X165702Y45598D01*
X168800D01*
X169300Y44598D02*
Y45098D01*
X168800Y45598D02*
X169300Y45098D01*
X164100Y47200D02*
Y54302D01*
X117200Y67300D02*
Y72000D01*
Y67300D02*
X124700Y59800D01*
X131000D01*
Y47693D02*
Y59800D01*
Y35400D02*
Y41000D01*
X130897Y47796D02*
X131000Y47693D01*
X123100Y47898D02*
X123203Y47796D01*
X130897D01*
X167600Y54301D02*
X171099D01*
X164101D02*
X167600D01*
X164100Y54302D02*
X164101Y54301D01*
X171099D02*
X171100Y54300D01*
D36*
X114170Y19800D02*
D03*
X108264D02*
D03*
X102358D02*
D03*
X96452D02*
D03*
X90548D02*
D03*
X84641D02*
D03*
X78737D02*
D03*
X72830D02*
D03*
D37*
X147000Y17400D02*
D03*
D38*
X157000D02*
D03*
D39*
X187008Y88583D02*
D03*
X9843Y9843D02*
D03*
Y88583D02*
D03*
X187008Y9843D02*
D03*
D40*
X182000Y72000D02*
D03*
X179500Y37000D02*
D03*
X182000Y32000D02*
D03*
X179500Y27000D02*
D03*
X174500Y37000D02*
D03*
X177000Y32000D02*
D03*
X174500Y27000D02*
D03*
X177000Y22000D02*
D03*
X172000Y72000D02*
D03*
X167000D02*
D03*
X164500Y27000D02*
D03*
X159500D02*
D03*
X162000Y22000D02*
D03*
X139500Y67000D02*
D03*
X137000Y62000D02*
D03*
X129500Y67000D02*
D03*
X124500D02*
D03*
X119500Y37000D02*
D03*
X117000Y82000D02*
D03*
X114500Y77000D02*
D03*
X112000Y82000D02*
D03*
X102000D02*
D03*
X97000D02*
D03*
X92000D02*
D03*
X82000D02*
D03*
X74500Y27000D02*
D03*
X72000Y82000D02*
D03*
X69500Y57000D02*
D03*
X72000Y32000D02*
D03*
X69500Y27000D02*
D03*
X67000Y82000D02*
D03*
X64500Y57000D02*
D03*
X67000Y32000D02*
D03*
X64500Y27000D02*
D03*
X67000Y22000D02*
D03*
X64500Y17000D02*
D03*
X62000Y82000D02*
D03*
Y32000D02*
D03*
X59500Y27000D02*
D03*
X62000Y22000D02*
D03*
X59500Y17000D02*
D03*
X57000Y82000D02*
D03*
Y32000D02*
D03*
X54500Y27000D02*
D03*
X57000Y22000D02*
D03*
X54500Y17000D02*
D03*
X52000Y82000D02*
D03*
Y32000D02*
D03*
X49500Y27000D02*
D03*
X52000Y22000D02*
D03*
X49500Y17000D02*
D03*
X47000Y82000D02*
D03*
Y32000D02*
D03*
X44500Y27000D02*
D03*
X47000Y22000D02*
D03*
X44500Y17000D02*
D03*
X42000Y82000D02*
D03*
X39500Y67000D02*
D03*
Y57000D02*
D03*
Y47000D02*
D03*
X42000Y32000D02*
D03*
X39500Y27000D02*
D03*
X42000Y22000D02*
D03*
X39500Y17000D02*
D03*
X37000Y82000D02*
D03*
X34500Y57000D02*
D03*
X37000Y52000D02*
D03*
Y32000D02*
D03*
X34500Y27000D02*
D03*
X37000Y22000D02*
D03*
X34500Y17000D02*
D03*
X32000Y82000D02*
D03*
X29500Y67000D02*
D03*
X32000Y52000D02*
D03*
X29500Y47000D02*
D03*
X32000Y32000D02*
D03*
X29500Y27000D02*
D03*
X32000Y22000D02*
D03*
X29500Y17000D02*
D03*
X27000Y82000D02*
D03*
X24500Y57000D02*
D03*
X27000Y32000D02*
D03*
X24500Y27000D02*
D03*
X27000Y22000D02*
D03*
X24500Y17000D02*
D03*
X19500Y67000D02*
D03*
Y57000D02*
D03*
X22000Y52000D02*
D03*
X19500Y47000D02*
D03*
X22000Y32000D02*
D03*
X19500Y27000D02*
D03*
X22000Y22000D02*
D03*
X17000Y32000D02*
D03*
X14500Y27000D02*
D03*
X117200Y72000D02*
D03*
X131000Y59800D02*
D03*
Y35400D02*
D03*
X137400Y32200D02*
D03*
X169300Y31800D02*
D03*
X112600Y36600D02*
D03*
X76250Y81600D02*
D03*
X88000D02*
D03*
X108000D02*
D03*
X167600Y54301D02*
D03*
X171100Y64400D02*
D03*
X164100Y65000D02*
D03*
X145923Y69177D02*
D03*
X150116Y69216D02*
D03*
X157577Y69223D02*
D03*
X153600Y69400D02*
D03*
X133300Y66000D02*
D03*
X133134Y69234D02*
D03*
X83200Y36800D02*
D03*
X78000Y32000D02*
D03*
X51900Y49000D02*
D03*
X26900Y52100D02*
D03*
X60451Y68551D02*
D03*
X50300Y66200D02*
D03*
X25300Y62800D02*
D03*
X30300Y63500D02*
D03*
X44500Y54100D02*
D03*
X57600Y53300D02*
D03*
X57700Y57900D02*
D03*
X76250Y58150D02*
D03*
X86700Y56500D02*
D03*
X90500Y56700D02*
D03*
X109700Y57300D02*
D03*
X118600Y48300D02*
D03*
M02*
