%FSLAX25Y25*%
%MOIN*%
G70*
G01*
G75*
%ADD10C,0.01000*%
%ADD11C,0.00800*%
%ADD12C,0.02000*%
%ADD13C,0.01500*%
%ADD14R,0.07874X0.09843*%
%ADD15R,0.03937X0.02362*%
%ADD16R,0.02756X0.03347*%
%ADD17R,0.03347X0.02756*%
%ADD18R,0.02362X0.03937*%
%ADD19R,0.09843X0.07874*%
%ADD20R,0.03150X0.03000*%
%ADD21R,0.01102X0.02618*%
%ADD22R,0.02618X0.01102*%
%ADD23R,0.08425X0.08425*%
%ADD24R,0.05118X0.03937*%
%ADD25R,0.07087X0.03937*%
%ADD26R,0.13780X0.04724*%
%ADD27R,0.10630X0.03937*%
%ADD28C,0.04000*%
%ADD29R,0.10400X0.19500*%
%ADD30R,0.29800X0.09500*%
%ADD31R,0.09700X0.12600*%
%ADD32R,0.21700X0.08200*%
%ADD33R,0.14400X0.15700*%
%ADD34R,0.31850X0.07800*%
%ADD35R,0.22100X0.07800*%
%ADD36R,0.09250X0.32500*%
%ADD37R,0.35100X0.09500*%
%ADD38R,0.13950X0.24700*%
%ADD39R,0.15400X0.30700*%
%ADD40R,0.11100X0.37200*%
%ADD41R,0.43600X0.19500*%
%ADD42R,0.55200X0.21700*%
%ADD43R,0.28700X0.30200*%
%ADD44R,0.23100X0.37800*%
%ADD45R,0.46700X0.47800*%
%ADD46R,0.48000X1.67000*%
%ADD47R,0.40000X0.63500*%
%ADD48R,2.47000X0.34000*%
%ADD49R,0.27000X0.39600*%
%ADD50R,0.32000X0.43000*%
%ADD51R,0.28000X0.46000*%
%ADD52C,0.00600*%
%ADD53C,0.05906*%
%ADD54R,0.05906X0.05906*%
%ADD55R,0.04724X0.06299*%
%ADD56O,0.04724X0.06299*%
%ADD57C,0.23622*%
%ADD58R,0.05906X0.05906*%
%ADD59C,0.19685*%
%ADD60C,0.03000*%
%ADD61C,0.02000*%
%ADD62C,0.05500*%
%ADD63R,0.03000X0.04000*%
%ADD64R,0.04000X0.03000*%
%ADD65R,0.04331X0.04724*%
%ADD66R,0.12992X0.09843*%
%ADD67R,0.03543X0.02126*%
%ADD68R,0.01969X0.06299*%
%ADD69R,0.14410X0.07874*%
%ADD70R,0.14410X0.09843*%
%ADD71R,0.05118X0.13780*%
%ADD72R,0.04724X0.13780*%
%ADD73R,0.13386X0.19291*%
%ADD74R,0.05512X0.05512*%
%ADD75R,0.09843X0.14410*%
%ADD76R,0.07874X0.14410*%
%ADD77R,0.06299X0.01969*%
%ADD78R,0.02126X0.03543*%
%ADD79R,0.14016X0.07008*%
%ADD80R,0.23900X0.07400*%
%ADD81R,0.06600X0.29900*%
%ADD82R,0.31161X0.10375*%
%ADD83R,0.10100X0.35200*%
%ADD84R,0.32275X0.09409*%
%ADD85R,0.13400X0.33200*%
%ADD86R,0.09200X0.34200*%
%ADD87R,0.31475X0.09309*%
%ADD88R,0.36300X0.11700*%
%ADD89R,0.07800X0.28400*%
%ADD90R,0.34500X0.09900*%
%ADD91R,0.06800X0.25700*%
%ADD92R,0.33050X0.09400*%
%ADD93R,0.08800X0.24200*%
%ADD94R,0.35000X0.11700*%
%ADD95R,0.13000X0.24000*%
%ADD96R,0.32000X2.10000*%
%ADD97R,0.15000X0.04000*%
%ADD98R,0.15000X0.03000*%
%ADD99R,0.65000X0.49000*%
%ADD100R,0.10000X0.48000*%
%ADD101R,0.85000X0.08000*%
%ADD102R,0.38000X0.18000*%
%ADD103R,0.16000X0.49000*%
%ADD104R,0.32000X0.47000*%
%ADD105R,0.03000X0.08000*%
%ADD106C,0.00500*%
%ADD107C,0.00591*%
%ADD108C,0.00787*%
D10*
X33136Y267500D02*
X62664D01*
X33136Y248551D02*
X62664D01*
Y270992D01*
X33136D02*
X62467D01*
X33136Y248551D02*
Y270992D01*
X37900Y248925D02*
Y251425D01*
X43900D01*
X43900Y248925D01*
X51900D02*
Y251425D01*
X57900D01*
X57900Y248925D01*
X33236Y233300D02*
X62764D01*
X33236Y214351D02*
X62764D01*
Y236792D01*
X33236D02*
X62567D01*
X33236Y214351D02*
Y236792D01*
X38000Y214725D02*
Y217225D01*
X44000D01*
X44000Y214725D01*
X52000D02*
Y217225D01*
X58000D01*
X58000Y214725D01*
X78736Y267400D02*
X108264D01*
X78736Y248451D02*
X108264D01*
Y270892D01*
X78736D02*
X108067D01*
X78736Y248451D02*
Y270892D01*
X83500Y248825D02*
Y251325D01*
X89500D01*
X89500Y248825D01*
X97500D02*
Y251325D01*
X103500D01*
X103500Y248825D01*
X78636Y234900D02*
X108164D01*
X78636Y215951D02*
X108164D01*
Y238392D01*
X78636D02*
X107967D01*
X78636Y215951D02*
Y238392D01*
X83400Y216325D02*
Y218825D01*
X89400D01*
X89400Y216325D01*
X97400D02*
Y218825D01*
X103400D01*
X103400Y216325D01*
X118336Y266800D02*
X147864D01*
X118336Y247851D02*
X147864D01*
Y270292D01*
X118336D02*
X147667D01*
X118336Y247851D02*
Y270292D01*
X123100Y248225D02*
Y250725D01*
X129100D01*
X129100Y248225D01*
X137100D02*
Y250725D01*
X143100D01*
X143100Y248225D01*
X143100Y219125D02*
X143100Y216625D01*
X137100Y219125D02*
X143100D01*
X137100Y216625D02*
Y219125D01*
X129100D02*
X129100Y216625D01*
X123100Y219125D02*
X129100D01*
X123100Y216625D02*
Y219125D01*
X118336Y216251D02*
Y238692D01*
X147667D01*
X147864Y216251D02*
Y238692D01*
X118336Y216251D02*
X147864D01*
X118336Y235200D02*
X147864D01*
X309600Y259900D02*
X310600D01*
X309600Y255900D02*
Y263900D01*
X308600D02*
X309600D01*
X304600Y259900D02*
X308600Y263900D01*
X304600Y259900D02*
X308600Y255900D01*
X309600D01*
X298545Y265806D02*
X316655D01*
X298545Y253994D02*
X316655D01*
X304600Y254100D02*
Y265900D01*
X325200Y216000D02*
X326200D01*
X326200Y212000D02*
Y220000D01*
Y212000D02*
X327200D01*
X331200Y216000D01*
X327200Y220000D02*
X331200Y216000D01*
X326200Y220000D02*
X327200D01*
X319145Y210094D02*
X337255D01*
X319145Y221905D02*
X337255D01*
X331200Y210000D02*
Y221800D01*
X318200Y170900D02*
X319200D01*
X319200Y166900D02*
Y174900D01*
Y166900D02*
X320200D01*
X324200Y170900D01*
X320200Y174900D02*
X324200Y170900D01*
X319200Y174900D02*
X320200D01*
X312145Y164995D02*
X330255D01*
X312145Y176805D02*
X330255D01*
X324200Y164900D02*
Y176700D01*
X315400Y131600D02*
X316400D01*
X316400Y127600D02*
Y135600D01*
Y127600D02*
X317400D01*
X321400Y131600D01*
X317400Y135600D02*
X321400Y131600D01*
X316400Y135600D02*
X317400D01*
X309345Y125695D02*
X327455D01*
X309345Y137505D02*
X327455D01*
X321400Y125600D02*
Y137400D01*
X315300Y96400D02*
X316300D01*
X316300Y92400D02*
Y100400D01*
Y92400D02*
X317300D01*
X321300Y96400D01*
X317300Y100400D02*
X321300Y96400D01*
X316300Y100400D02*
X317300D01*
X309245Y90495D02*
X327355D01*
X309245Y102305D02*
X327355D01*
X321300Y90400D02*
Y102200D01*
X255000Y203900D02*
Y204900D01*
X251000Y204900D02*
X259000D01*
Y205900D01*
X255000Y209900D02*
X259000Y205900D01*
X251000D02*
X255000Y209900D01*
X251000Y204900D02*
Y205900D01*
X260906Y197845D02*
Y215955D01*
X249095Y197845D02*
Y215955D01*
X249200Y209900D02*
X261000D01*
X235000Y200500D02*
Y202500D01*
X258200Y158100D02*
Y159100D01*
X254200Y159100D02*
X262200D01*
Y160100D01*
X258200Y164100D02*
X262200Y160100D01*
X254200D02*
X258200Y164100D01*
X254200Y159100D02*
Y160100D01*
X264106Y152045D02*
Y170155D01*
X252294Y152045D02*
Y170155D01*
X252400Y164100D02*
X264200D01*
X235800Y158200D02*
Y160200D01*
X258600Y109100D02*
Y110100D01*
X254600Y110100D02*
X262600D01*
Y111100D01*
X258600Y115100D02*
X262600Y111100D01*
X254600D02*
X258600Y115100D01*
X254600Y110100D02*
Y111100D01*
X264506Y103045D02*
Y121155D01*
X252695Y103045D02*
Y121155D01*
X252800Y115100D02*
X264600D01*
X233800Y109900D02*
Y111900D01*
X192500Y108700D02*
Y109700D01*
X188500Y109700D02*
X196500D01*
Y110700D01*
X192500Y114700D02*
X196500Y110700D01*
X188500D02*
X192500Y114700D01*
X188500Y109700D02*
Y110700D01*
X198406Y102645D02*
Y120755D01*
X186594Y102645D02*
Y120755D01*
X186700Y114700D02*
X198500D01*
X169900Y105100D02*
Y107100D01*
X194900Y162800D02*
Y163800D01*
X190900Y163800D02*
X198900D01*
Y164800D01*
X194900Y168800D02*
X198900Y164800D01*
X190900D02*
X194900Y168800D01*
X190900Y163800D02*
Y164800D01*
X200805Y156745D02*
Y174855D01*
X188995Y156745D02*
Y174855D01*
X189100Y168800D02*
X200900D01*
X169100Y160000D02*
Y162000D01*
X187400Y216600D02*
X199200D01*
X187294Y204545D02*
Y222655D01*
X199106Y204545D02*
Y222655D01*
X189200Y211600D02*
Y212600D01*
X193200Y216600D01*
X197200Y212600D01*
Y211600D02*
Y212600D01*
X189200Y211600D02*
X197200D01*
X193200Y210600D02*
Y211600D01*
X172700Y206000D02*
Y208000D01*
X433071Y-64000D02*
Y-1500D01*
X0Y-64000D02*
Y-1500D01*
X232030Y-63000D02*
X433071D01*
X0D02*
X197840D01*
X427071Y-61000D02*
X433071Y-63000D01*
X427071Y-65000D02*
X433071Y-63000D01*
X0D02*
X6000Y-65000D01*
X0Y-63000D02*
X6000Y-61000D01*
X434571Y0D02*
X506000D01*
X434571Y275000D02*
X506000D01*
X505000Y0D02*
Y120804D01*
Y150996D02*
Y275000D01*
Y0D02*
X507000Y6000D01*
X503000D02*
X505000Y0D01*
X503000Y269000D02*
X505000Y275000D01*
X507000Y269000D01*
X433071Y0D02*
Y275000D01*
X0Y0D02*
X433071D01*
X0Y275000D02*
X433071D01*
X0Y0D02*
Y275590D01*
D52*
X58710Y191054D02*
Y193990D01*
X61646D01*
X73090Y191054D02*
Y193990D01*
X70154D02*
X73090D01*
X58710Y179610D02*
Y182546D01*
Y179610D02*
X61646D01*
X73090D02*
Y182546D01*
X70154Y179610D02*
X73090D01*
X199441Y-66599D02*
X201440D01*
X200440D01*
Y-60601D01*
X199441Y-61601D01*
X204439Y-66599D02*
X206438D01*
X205438D01*
Y-60601D01*
X204439Y-61601D01*
X209437D02*
X210437Y-60601D01*
X212436D01*
X213436Y-61601D01*
Y-65599D01*
X212436Y-66599D01*
X210437D01*
X209437Y-65599D01*
Y-61601D01*
X215435Y-66599D02*
Y-65599D01*
X216435D01*
Y-66599D01*
X215435D01*
X220434Y-61601D02*
X221433Y-60601D01*
X223433D01*
X224432Y-61601D01*
Y-65599D01*
X223433Y-66599D01*
X221433D01*
X220434Y-65599D01*
Y-61601D01*
X226432D02*
X227431Y-60601D01*
X229431D01*
X230430Y-61601D01*
Y-65599D01*
X229431Y-66599D01*
X227431D01*
X226432Y-65599D01*
Y-61601D01*
X502601Y126403D02*
X503601Y124404D01*
X505600Y122404D01*
X507599D01*
X508599Y123404D01*
Y125403D01*
X507599Y126403D01*
X506600D01*
X505600Y125403D01*
Y122404D01*
X507599Y128402D02*
X508599Y129402D01*
Y131401D01*
X507599Y132401D01*
X503601D01*
X502601Y131401D01*
Y129402D01*
X503601Y128402D01*
X504600D01*
X505600Y129402D01*
Y132401D01*
X508599Y134400D02*
X507599D01*
Y135400D01*
X508599D01*
Y134400D01*
X503601Y139399D02*
X502601Y140399D01*
Y142398D01*
X503601Y143398D01*
X504600D01*
X505600Y142398D01*
X506600Y143398D01*
X507599D01*
X508599Y142398D01*
Y140399D01*
X507599Y139399D01*
X506600D01*
X505600Y140399D01*
X504600Y139399D01*
X503601D01*
X505600Y140399D02*
Y142398D01*
X502601Y149396D02*
Y145397D01*
X505600D01*
X504600Y147396D01*
Y148396D01*
X505600Y149396D01*
X507599D01*
X508599Y148396D01*
Y146397D01*
X507599Y145397D01*
D106*
X66611Y15900D02*
G03*
X66611Y15900I-11811J0D01*
G01*
X102367D02*
G03*
X102367Y15900I-11811J0D01*
G01*
X138122D02*
G03*
X138122Y15900I-11811J0D01*
G01*
X173878D02*
G03*
X173878Y15900I-11811J0D01*
G01*
X209633D02*
G03*
X209633Y15900I-11811J0D01*
G01*
X245389D02*
G03*
X245389Y15900I-11811J0D01*
G01*
X281144D02*
G03*
X281144Y15900I-11811J0D01*
G01*
X316900D02*
G03*
X316900Y15900I-11811J0D01*
G01*
X352655D02*
G03*
X352655Y15900I-11811J0D01*
G01*
X388411D02*
G03*
X388411Y15900I-11811J0D01*
G01*
X392211Y232200D02*
G03*
X392211Y232200I-11811J0D01*
G01*
X391911Y55000D02*
G03*
X391911Y55000I-11811J0D01*
G01*
Y159867D02*
G03*
X391911Y159867I-11811J0D01*
G01*
X428811Y76500D02*
G03*
X428811Y76500I-11811J0D01*
G01*
Y182300D02*
G03*
X428811Y182300I-11811J0D01*
G01*
X391911Y107433D02*
G03*
X391911Y107433I-11811J0D01*
G01*
X428811Y129400D02*
G03*
X428811Y129400I-11811J0D01*
G01*
Y218300D02*
G03*
X428811Y218300I-11811J0D01*
G01*
X158700Y251116D02*
Y270014D01*
X250963Y253676D02*
Y270014D01*
X158700Y253676D02*
X262971D01*
X158700Y251116D02*
X262971D01*
Y270014D01*
X158700D02*
X262971D01*
X300832Y233231D02*
X307132D01*
X300832Y245042D02*
X307132D01*
Y237365D02*
Y240909D01*
X300832Y233231D02*
Y236184D01*
Y242090D02*
Y245042D01*
X307826Y247335D02*
X317669D01*
X307826Y251665D02*
X317669D01*
Y247335D02*
Y251665D01*
X307826Y247335D02*
Y251665D01*
X313835Y233231D02*
Y243074D01*
X318165Y233231D02*
Y243074D01*
X313835Y233231D02*
X318165D01*
X313835Y243074D02*
X318165D01*
X283926Y240435D02*
X293769D01*
X283926Y244765D02*
X293769D01*
Y240435D02*
Y244765D01*
X283926Y240435D02*
Y244765D01*
X283726Y233735D02*
X293568D01*
X283726Y238065D02*
X293568D01*
Y233735D02*
Y238065D01*
X283726Y233735D02*
Y238065D01*
X310535Y194832D02*
Y204674D01*
X314865Y194832D02*
Y204674D01*
X310535Y194832D02*
X314865D01*
X310535Y204674D02*
X314865D01*
X320965Y194626D02*
Y204468D01*
X316635Y194626D02*
Y204468D01*
X320965D01*
X316635Y194626D02*
X320965D01*
X295431Y222365D02*
X305274D01*
X295431Y218035D02*
X305274D01*
X295431D02*
Y222365D01*
X305274Y218035D02*
Y222365D01*
X295532Y215065D02*
X305374D01*
X295532Y210735D02*
X305374D01*
X295532D02*
Y215065D01*
X305374Y210735D02*
Y215065D01*
X296532Y194832D02*
X302832D01*
X296532Y206643D02*
X302832D01*
Y198965D02*
Y202509D01*
X296532Y194832D02*
Y197784D01*
Y203690D02*
Y206643D01*
X320565Y150726D02*
Y160568D01*
X316235Y150726D02*
Y160568D01*
X320565D01*
X316235Y150726D02*
X320565D01*
X309835Y150932D02*
Y160774D01*
X314165Y150932D02*
Y160774D01*
X309835Y150932D02*
X314165D01*
X309835Y160774D02*
X314165D01*
X292731Y177165D02*
X302574D01*
X292731Y172835D02*
X302574D01*
X292731D02*
Y177165D01*
X302574Y172835D02*
Y177165D01*
X292831Y169965D02*
X302674D01*
X292831Y165635D02*
X302674D01*
X292831D02*
Y169965D01*
X302674Y165635D02*
Y169965D01*
X293632Y150732D02*
X299932D01*
X293632Y162542D02*
X299932D01*
Y154865D02*
Y158409D01*
X293632Y150732D02*
Y153684D01*
Y159590D02*
Y162542D01*
X291332Y133765D02*
X301174D01*
X291332Y129435D02*
X301174D01*
X291332D02*
Y133765D01*
X301174Y129435D02*
Y133765D01*
X291231Y127765D02*
X301074D01*
X291231Y123435D02*
X301074D01*
X291231D02*
Y127765D01*
X301074Y123435D02*
Y127765D01*
X318965Y108726D02*
Y118569D01*
X314635Y108726D02*
Y118569D01*
X318965D01*
X314635Y108726D02*
X318965D01*
X307835Y108731D02*
Y118574D01*
X312165Y108731D02*
Y118574D01*
X307835Y108731D02*
X312165D01*
X307835Y118574D02*
X312165D01*
X293232Y108832D02*
X299532D01*
X293232Y120642D02*
X299532D01*
Y112965D02*
Y116509D01*
X293232Y108832D02*
Y111784D01*
Y117690D02*
Y120642D01*
X291431Y98965D02*
X301274D01*
X291431Y94635D02*
X301274D01*
X291431D02*
Y98965D01*
X301274Y94635D02*
Y98965D01*
X291431Y92865D02*
X301274D01*
X291431Y88535D02*
X301274D01*
X291431D02*
Y92865D01*
X301274Y88535D02*
Y92865D01*
X317665Y73126D02*
Y82968D01*
X313335Y73126D02*
Y82968D01*
X317665D01*
X313335Y73126D02*
X317665D01*
X306735Y73132D02*
Y82974D01*
X311065Y73132D02*
Y82974D01*
X306735Y73132D02*
X311065D01*
X306735Y82974D02*
X311065D01*
X293032Y72831D02*
X299331D01*
X293032Y84642D02*
X299331D01*
Y76965D02*
Y80509D01*
X293032Y72831D02*
Y75784D01*
Y81690D02*
Y84642D01*
X227532Y211169D02*
Y217468D01*
X239342Y211169D02*
Y217468D01*
X231665Y211169D02*
X235209D01*
X227532Y217468D02*
X230484D01*
X236390D02*
X239342D01*
X241835Y207231D02*
Y217074D01*
X246165Y207231D02*
Y217074D01*
X241835Y207231D02*
X246165D01*
X241835Y217074D02*
X246165D01*
X240168Y185832D02*
Y192131D01*
X228358Y185832D02*
Y192131D01*
X232491D02*
X236035D01*
X237216Y185832D02*
X240168D01*
X228358D02*
X231310D01*
X243935Y163631D02*
Y173474D01*
X248265Y163631D02*
Y173474D01*
X243935Y163631D02*
X248265D01*
X243935Y173474D02*
X248265D01*
X228031Y167668D02*
Y173968D01*
X239843Y167668D02*
Y173968D01*
X232165Y167668D02*
X235709D01*
X228031Y173968D02*
X230984D01*
X236890D02*
X239843D01*
X220035Y163831D02*
Y173674D01*
X224365Y163831D02*
Y173674D01*
X220035Y163831D02*
X224365D01*
X220035Y173674D02*
X224365D01*
X217065Y163726D02*
Y173568D01*
X212735Y163726D02*
Y173568D01*
X217065D01*
X212735Y163726D02*
X217065D01*
X240069Y143632D02*
Y149932D01*
X228257Y143632D02*
Y149932D01*
X232391D02*
X235935D01*
X237116Y143632D02*
X240069D01*
X228257D02*
X231210D01*
X242835Y115732D02*
Y125574D01*
X247165Y115732D02*
Y125574D01*
X242835Y115732D02*
X247165D01*
X242835Y125574D02*
X247165D01*
X239169Y96932D02*
Y103232D01*
X227358Y96932D02*
Y103232D01*
X231491D02*
X235035D01*
X236216Y96932D02*
X239169D01*
X227358D02*
X230310D01*
X227631Y119668D02*
Y125968D01*
X239442Y119668D02*
Y125968D01*
X231765Y119668D02*
X235309D01*
X227631Y125968D02*
X230584D01*
X236490D02*
X239442D01*
X224565Y115826D02*
Y125669D01*
X220235Y115826D02*
Y125669D01*
X224565D01*
X220235Y115826D02*
X224565D01*
X213635Y115831D02*
Y125674D01*
X217965Y115831D02*
Y125674D01*
X213635Y115831D02*
X217965D01*
X213635Y125674D02*
X217965D01*
X202335Y82013D02*
Y90281D01*
X203122Y81226D02*
X205878D01*
X203122Y91069D02*
X205878D01*
X206665Y82013D02*
Y90281D01*
X205878Y91069D02*
X206665Y90281D01*
X202335D02*
X203122Y91069D01*
X202335Y82013D02*
X203122Y81226D01*
X205878D02*
X206665Y82013D01*
X195335D02*
Y90281D01*
X196122Y81226D02*
X198878D01*
X196122Y91069D02*
X198878D01*
X199665Y82013D02*
Y90281D01*
X198878Y91069D02*
X199665Y90281D01*
X195335D02*
X196122Y91069D01*
X195335Y82013D02*
X196122Y81226D01*
X198878D02*
X199665Y82013D01*
X179835Y112232D02*
Y122074D01*
X184165Y112232D02*
Y122074D01*
X179835Y112232D02*
X184165D01*
X179835Y122074D02*
X184165D01*
X163831Y115469D02*
Y121768D01*
X175643Y115469D02*
Y121768D01*
X167965Y115469D02*
X171509D01*
X163831Y121768D02*
X166784D01*
X172690D02*
X175643D01*
X174169Y91232D02*
Y97531D01*
X162357Y91232D02*
Y97531D01*
X166491D02*
X170035D01*
X171216Y91232D02*
X174169D01*
X162357D02*
X165310D01*
X156235Y111732D02*
Y121574D01*
X160565Y111732D02*
Y121574D01*
X156235Y111732D02*
X160565D01*
X156235Y121574D02*
X160565D01*
X154165Y111826D02*
Y121669D01*
X149835Y111826D02*
Y121669D01*
X154165D01*
X149835Y111826D02*
X154165D01*
X176035Y165331D02*
Y175174D01*
X180365Y165331D02*
Y175174D01*
X176035Y165331D02*
X180365D01*
X176035Y175174D02*
X180365D01*
X161732Y168968D02*
Y175268D01*
X173542Y168968D02*
Y175268D01*
X165865Y168968D02*
X169409D01*
X161732Y175268D02*
X164684D01*
X170590D02*
X173542D01*
X158000Y164157D02*
Y174000D01*
X153669Y164157D02*
Y174000D01*
X158000D01*
X153669Y164157D02*
X158000D01*
X147269Y164263D02*
Y174106D01*
X151600Y164263D02*
Y174106D01*
X147269Y164263D02*
X151600D01*
X147269Y174106D02*
X151600D01*
X173969Y145832D02*
Y152131D01*
X162157Y145832D02*
Y152131D01*
X166291D02*
X169835D01*
X171016Y145832D02*
X173969D01*
X162157D02*
X165110D01*
X181035Y211231D02*
Y221074D01*
X185365Y211231D02*
Y221074D01*
X181035Y211231D02*
X185365D01*
X181035Y221074D02*
X185365D01*
X177368Y193032D02*
Y199331D01*
X165558Y193032D02*
Y199331D01*
X169691D02*
X173235D01*
X174416Y193032D02*
X177368D01*
X165558D02*
X168510D01*
X174490Y221168D02*
X177443D01*
X165631D02*
X168584D01*
X169765Y214868D02*
X173309D01*
X177443D02*
Y221168D01*
X165631Y214868D02*
Y221168D01*
X157835Y221474D02*
X162165D01*
X157835Y211631D02*
X162165D01*
Y221474D01*
X157835Y211631D02*
Y221474D01*
X155165Y211326D02*
Y221168D01*
X150835Y211326D02*
Y221168D01*
X155165D01*
X150835Y211326D02*
X155165D01*
X64365Y199419D02*
Y207687D01*
X60822Y208474D02*
X63578D01*
X60822Y198632D02*
X63578D01*
X60035Y199419D02*
Y207687D01*
Y199419D02*
X60822Y198632D01*
X63578D02*
X64365Y199419D01*
X63578Y208474D02*
X64365Y207687D01*
X60035D02*
X60822Y208474D01*
X66635Y199213D02*
Y207481D01*
X67422Y198426D02*
X70178D01*
X67422Y208268D02*
X70178D01*
X70965Y199213D02*
Y207481D01*
X70178Y208268D02*
X70965Y207481D01*
X66635D02*
X67422Y208268D01*
X66635Y199213D02*
X67422Y198426D01*
X70178D02*
X70965Y199213D01*
X87165Y199019D02*
Y207287D01*
X83622Y208074D02*
X86378D01*
X83622Y198231D02*
X86378D01*
X82835Y199019D02*
Y207287D01*
Y199019D02*
X83622Y198231D01*
X86378D02*
X87165Y199019D01*
X86378Y208074D02*
X87165Y207287D01*
X82835D02*
X83622Y208074D01*
X89732Y202331D02*
X99574D01*
X89732Y198000D02*
X99574D01*
X89732D02*
Y202331D01*
X99574Y198000D02*
Y202331D01*
X89726Y204935D02*
X99568D01*
X89726Y209265D02*
X99568D01*
Y204935D02*
Y209265D01*
X89726Y204935D02*
Y209265D01*
X110692Y190465D02*
X111479Y189678D01*
X110692Y186135D02*
X111479Y186922D01*
X101637D02*
X102424Y186135D01*
X101637Y189678D02*
X102424Y190465D01*
X110692D01*
X101637Y186922D02*
Y189678D01*
X111479Y186922D02*
Y189678D01*
X102424Y186135D02*
X110692D01*
X101732Y179835D02*
X111574D01*
X101732Y184165D02*
X111574D01*
Y179835D02*
Y184165D01*
X101732Y179835D02*
Y184165D01*
X101331Y169365D02*
X111174D01*
X101331Y165035D02*
X111174D01*
X101331D02*
Y169365D01*
X111174Y165035D02*
Y169365D01*
X101276Y162687D02*
X111119D01*
X101276Y158357D02*
X111119D01*
X101276D02*
Y162687D01*
X111119Y158357D02*
Y162687D01*
X85271Y159144D02*
X86058Y158357D01*
X89700Y160522D02*
X91078D01*
X89700D02*
X91078Y161900D01*
X89700Y160522D02*
X91078Y159144D01*
Y161900D01*
X89700Y159144D02*
Y161900D01*
X85271Y161900D02*
X86058Y162687D01*
X86058Y158357D02*
X95113D01*
X85271Y159144D02*
Y161900D01*
X86058Y162687D02*
X95113D01*
Y158357D02*
Y162687D01*
X94913Y164957D02*
Y169287D01*
X85858D02*
X94913D01*
X85071Y165744D02*
Y168500D01*
X85858Y164957D02*
X94913D01*
X85071Y168500D02*
X85858Y169287D01*
X89500Y165744D02*
Y168500D01*
X90878Y165744D02*
Y168500D01*
X89500Y167122D02*
X90878Y165744D01*
X89500Y167122D02*
X90878Y168500D01*
X89500Y167122D02*
X90878D01*
X85071Y165744D02*
X85858Y164957D01*
X48135Y183013D02*
Y191281D01*
X48922Y182226D02*
X51678D01*
X48922Y192069D02*
X51678D01*
X52465Y183013D02*
Y191281D01*
X51678Y192069D02*
X52465Y191281D01*
X48135D02*
X48922Y192069D01*
X48135Y183013D02*
X48922Y182226D01*
X51678D02*
X52465Y183013D01*
X41302Y182158D02*
Y185110D01*
Y191016D02*
Y193968D01*
X35003Y186291D02*
Y189835D01*
Y182158D02*
X41302D01*
X35003Y193968D02*
X41302D01*
X73565Y158126D02*
Y167968D01*
X69235Y158126D02*
Y167968D01*
X73565D01*
X69235Y158126D02*
X73565D01*
X59950Y157154D02*
Y168572D01*
X60935Y156170D02*
X65265D01*
X66250Y157154D02*
Y168572D01*
X60935Y169556D02*
X65265D01*
X66250Y168572D01*
X59950Y168572D02*
X60935Y169556D01*
X65265Y156170D02*
X66250Y157154D01*
X59950D02*
X59950D01*
X60935Y156170D01*
X47569Y151544D02*
X56231D01*
X47569Y169851D02*
X56231D01*
Y151544D02*
Y169851D01*
X47569Y151544D02*
Y169851D01*
X24820Y146147D02*
X39780D01*
Y175675D01*
X24820D02*
X39780D01*
X24820Y146147D02*
Y175675D01*
X7676Y156655D02*
X17124D01*
X7676Y175750D02*
X17124D01*
X6494Y157836D02*
X7676Y156655D01*
X17124D02*
X18305Y157836D01*
X17124Y175750D02*
X18305Y174568D01*
X6494D02*
X7676Y175750D01*
X18305Y157836D02*
Y174568D01*
X6494Y157836D02*
Y174568D01*
X154566Y239666D02*
X152567D01*
X151900Y238999D01*
Y237666D01*
X152567Y237000D01*
X154566D01*
X156565D02*
X157898D01*
X158564Y237666D01*
Y238999D01*
X157898Y239666D01*
X156565D01*
X155899Y238999D01*
Y237666D01*
X156565Y237000D01*
X160564D02*
X161897D01*
X162563Y237666D01*
Y238999D01*
X161897Y239666D01*
X160564D01*
X159897Y238999D01*
Y237666D01*
X160564Y237000D01*
X163896D02*
X165229D01*
X164563D01*
Y240999D01*
X163896D01*
X169228Y237000D02*
X167895D01*
X167228Y237666D01*
Y238999D01*
X167895Y239666D01*
X169228D01*
X169894Y238999D01*
Y238333D01*
X167228D01*
X171227Y239666D02*
Y237000D01*
Y238333D01*
X171894Y238999D01*
X172560Y239666D01*
X173226D01*
X175226Y237000D02*
X176559D01*
X175892D01*
Y240999D01*
X175226Y240332D01*
X153266Y268034D02*
Y270034D01*
X152599Y270700D01*
X151267D01*
X150600Y270034D01*
Y268034D01*
Y266035D02*
Y264702D01*
X151267Y264036D01*
X152599D01*
X153266Y264702D01*
Y266035D01*
X152599Y266701D01*
X151267D01*
X150600Y266035D01*
Y262036D02*
Y260703D01*
X151267Y260037D01*
X152599D01*
X153266Y260703D01*
Y262036D01*
X152599Y262703D01*
X151267D01*
X150600Y262036D01*
Y258704D02*
Y257371D01*
Y258037D01*
X154599D01*
Y258704D01*
X150600Y253372D02*
Y254705D01*
X151267Y255372D01*
X152599D01*
X153266Y254705D01*
Y253372D01*
X152599Y252706D01*
X151933D01*
Y255372D01*
X153266Y251373D02*
X150600D01*
X151933D01*
X152599Y250706D01*
X153266Y250040D01*
Y249374D01*
X150600Y244708D02*
Y247374D01*
X153266Y244708D01*
X153932D01*
X154599Y245375D01*
Y246708D01*
X153932Y247374D01*
X69700Y235400D02*
Y239399D01*
X71699D01*
X72366Y238732D01*
Y237399D01*
X71699Y236733D01*
X69700D01*
X73699Y238732D02*
X74365Y239399D01*
X75698D01*
X76364Y238732D01*
Y238066D01*
X75698Y237399D01*
X75032D01*
X75698D01*
X76364Y236733D01*
Y236066D01*
X75698Y235400D01*
X74365D01*
X73699Y236066D01*
X70600Y268600D02*
Y272599D01*
X72599D01*
X73266Y271932D01*
Y270599D01*
X72599Y269933D01*
X70600D01*
X77264Y272599D02*
X75932Y271932D01*
X74599Y270599D01*
Y269266D01*
X75265Y268600D01*
X76598D01*
X77264Y269266D01*
Y269933D01*
X76598Y270599D01*
X74599D01*
X65400Y248700D02*
Y252699D01*
X67399D01*
X68066Y252032D01*
Y250699D01*
X67399Y250033D01*
X65400D01*
X69399Y252699D02*
X72065D01*
Y252032D01*
X69399Y249366D01*
Y248700D01*
X65600Y217000D02*
Y220999D01*
X67599D01*
X68266Y220332D01*
Y218999D01*
X67599Y218333D01*
X65600D01*
X69599Y220332D02*
X70265Y220999D01*
X71598D01*
X72264Y220332D01*
Y219666D01*
X71598Y218999D01*
X72264Y218333D01*
Y217666D01*
X71598Y217000D01*
X70265D01*
X69599Y217666D01*
Y218333D01*
X70265Y218999D01*
X69599Y219666D01*
Y220332D01*
X70265Y218999D02*
X71598D01*
X371800Y34999D02*
Y31000D01*
Y32999D01*
X374466D01*
Y34999D01*
Y31000D01*
X377798D02*
Y34999D01*
X375799Y32999D01*
X378465D01*
X379797D02*
X382463D01*
X335700Y33899D02*
Y29900D01*
Y31899D01*
X338366D01*
Y33899D01*
Y29900D01*
X341698D02*
Y33899D01*
X339699Y31899D01*
X342365D01*
X343697D02*
X346363D01*
X345030Y33232D02*
Y30566D01*
X405300Y95199D02*
Y91200D01*
Y93199D01*
X407966D01*
Y95199D01*
Y91200D01*
X409299Y94532D02*
X409965Y95199D01*
X411298D01*
X411965Y94532D01*
Y93866D01*
X411298Y93199D01*
X410632D01*
X411298D01*
X411965Y92533D01*
Y91866D01*
X411298Y91200D01*
X409965D01*
X409299Y91866D01*
X413297Y93199D02*
X415963D01*
X368400Y73699D02*
Y69700D01*
Y71699D01*
X371066D01*
Y73699D01*
Y69700D01*
X372399Y73032D02*
X373065Y73699D01*
X374398D01*
X375064Y73032D01*
Y72366D01*
X374398Y71699D01*
X373732D01*
X374398D01*
X375064Y71033D01*
Y70366D01*
X374398Y69700D01*
X373065D01*
X372399Y70366D01*
X376397Y71699D02*
X379063D01*
X377730Y73032D02*
Y70366D01*
X405300Y148099D02*
Y144100D01*
Y146099D01*
X407966D01*
Y148099D01*
Y144100D01*
X411965D02*
X409299D01*
X411965Y146766D01*
Y147432D01*
X411298Y148099D01*
X409965D01*
X409299Y147432D01*
X413297Y146099D02*
X415963D01*
X368400Y126099D02*
Y122100D01*
Y124099D01*
X371066D01*
Y126099D01*
Y122100D01*
X375064D02*
X372399D01*
X375064Y124766D01*
Y125432D01*
X374398Y126099D01*
X373065D01*
X372399Y125432D01*
X376397Y124099D02*
X379063D01*
X377730Y125432D02*
Y122766D01*
X405300Y200999D02*
Y197000D01*
Y198999D01*
X407966D01*
Y200999D01*
Y197000D01*
X409299D02*
X410632D01*
X409965D01*
Y200999D01*
X409299Y200332D01*
X412631Y198999D02*
X415297D01*
X368400Y178599D02*
Y174600D01*
Y176599D01*
X371066D01*
Y178599D01*
Y174600D01*
X372399D02*
X373732D01*
X373065D01*
Y178599D01*
X372399Y177932D01*
X375731Y176599D02*
X378397D01*
X377064Y177932D02*
Y175267D01*
X70400Y176999D02*
Y173667D01*
X71066Y173000D01*
X72399D01*
X73066Y173667D01*
Y176999D01*
X77065D02*
X74399D01*
Y174999D01*
X75732Y175666D01*
X76398D01*
X77065Y174999D01*
Y173667D01*
X76398Y173000D01*
X75065D01*
X74399Y173667D01*
X181199Y108600D02*
Y105934D01*
Y107267D01*
X177200D01*
X181199Y104601D02*
X178533D01*
X177200Y103268D01*
X178533Y101936D01*
X181199D01*
X180532Y97937D02*
X181199Y98603D01*
Y99936D01*
X180532Y100603D01*
X179866D01*
X179199Y99936D01*
Y98603D01*
X178533Y97937D01*
X177866D01*
X177200Y98603D01*
Y99936D01*
X177866Y100603D01*
X181199Y93938D02*
X180532Y95271D01*
X179199Y96604D01*
X177866D01*
X177200Y95937D01*
Y94604D01*
X177866Y93938D01*
X178533D01*
X179199Y94604D01*
Y96604D01*
X245499Y113200D02*
Y110534D01*
Y111867D01*
X241500D01*
X245499Y109201D02*
X242833D01*
X241500Y107868D01*
X242833Y106535D01*
X245499D01*
X244832Y102537D02*
X245499Y103203D01*
Y104536D01*
X244832Y105203D01*
X244166D01*
X243499Y104536D01*
Y103203D01*
X242833Y102537D01*
X242166D01*
X241500Y103203D01*
Y104536D01*
X242166Y105203D01*
X245499Y98538D02*
Y101204D01*
X243499D01*
X244166Y99871D01*
Y99204D01*
X243499Y98538D01*
X242166D01*
X241500Y99204D01*
Y100537D01*
X242166Y101204D01*
X212200Y159899D02*
X214866D01*
X213533D01*
Y155900D01*
X216199Y159899D02*
Y157233D01*
X217532Y155900D01*
X218864Y157233D01*
Y159899D01*
X222863Y159232D02*
X222197Y159899D01*
X220864D01*
X220197Y159232D01*
Y158566D01*
X220864Y157899D01*
X222197D01*
X222863Y157233D01*
Y156567D01*
X222197Y155900D01*
X220864D01*
X220197Y156567D01*
X226196Y155900D02*
Y159899D01*
X224196Y157899D01*
X226862D01*
X181299Y162200D02*
Y159534D01*
Y160867D01*
X177300D01*
X181299Y158201D02*
X178633D01*
X177300Y156868D01*
X178633Y155535D01*
X181299D01*
X180632Y151537D02*
X181299Y152203D01*
Y153536D01*
X180632Y154203D01*
X179966D01*
X179299Y153536D01*
Y152203D01*
X178633Y151537D01*
X177966D01*
X177300Y152203D01*
Y153536D01*
X177966Y154203D01*
X180632Y150204D02*
X181299Y149537D01*
Y148205D01*
X180632Y147538D01*
X179966D01*
X179299Y148205D01*
Y148871D01*
Y148205D01*
X178633Y147538D01*
X177966D01*
X177300Y148205D01*
Y149537D01*
X177966Y150204D01*
X212300Y203599D02*
X214966D01*
X213633D01*
Y199600D01*
X216299Y203599D02*
Y200933D01*
X217632Y199600D01*
X218965Y200933D01*
Y203599D01*
X222963Y202932D02*
X222297Y203599D01*
X220964D01*
X220297Y202932D01*
Y202266D01*
X220964Y201599D01*
X222297D01*
X222963Y200933D01*
Y200267D01*
X222297Y199600D01*
X220964D01*
X220297Y200267D01*
X226962Y199600D02*
X224296D01*
X226962Y202266D01*
Y202932D01*
X226295Y203599D01*
X224963D01*
X224296Y202932D01*
X182599Y207700D02*
Y205034D01*
Y206367D01*
X178600D01*
X182599Y203701D02*
X179933D01*
X178600Y202368D01*
X179933Y201035D01*
X182599D01*
X181932Y197037D02*
X182599Y197703D01*
Y199036D01*
X181932Y199703D01*
X181266D01*
X180599Y199036D01*
Y197703D01*
X179933Y197037D01*
X179267D01*
X178600Y197703D01*
Y199036D01*
X179267Y199703D01*
X178600Y195704D02*
Y194371D01*
Y195037D01*
X182599D01*
X181932Y195704D01*
X158566Y32332D02*
X157899Y32999D01*
X156567D01*
X155900Y32332D01*
Y29666D01*
X156567Y29000D01*
X157899D01*
X158566Y29666D01*
Y30999D01*
X157233D01*
X159899Y29000D02*
Y32999D01*
X162565Y29000D01*
Y32999D01*
X163897D02*
Y29000D01*
X165897D01*
X166563Y29666D01*
Y32332D01*
X165897Y32999D01*
X163897D01*
X261900Y32299D02*
Y29633D01*
X263233Y28300D01*
X264566Y29633D01*
Y32299D01*
X265899D02*
Y28300D01*
X267898D01*
X268565Y28966D01*
Y29633D01*
X267898Y30299D01*
X265899D01*
X267898D01*
X268565Y30966D01*
Y31632D01*
X267898Y32299D01*
X265899D01*
X269897Y28300D02*
Y30966D01*
X271230Y32299D01*
X272563Y30966D01*
Y28300D01*
Y30299D01*
X269897D01*
X273896Y32299D02*
X276562D01*
X275229D01*
Y28300D01*
X300566Y32132D02*
X299899Y32799D01*
X298566D01*
X297900Y32132D01*
Y29466D01*
X298566Y28800D01*
X299899D01*
X300566Y29466D01*
Y30799D01*
X299233D01*
X301899Y28800D02*
Y32799D01*
X304564Y28800D01*
Y32799D01*
X305897D02*
Y28800D01*
X307897D01*
X308563Y29466D01*
Y32132D01*
X307897Y32799D01*
X305897D01*
X190300Y32999D02*
Y30333D01*
X191633Y29000D01*
X192966Y30333D01*
Y32999D01*
X194299D02*
Y29000D01*
X196298D01*
X196965Y29666D01*
Y30333D01*
X196298Y30999D01*
X194299D01*
X196298D01*
X196965Y31666D01*
Y32332D01*
X196298Y32999D01*
X194299D01*
X198297Y29000D02*
Y31666D01*
X199630Y32999D01*
X200963Y31666D01*
Y29000D01*
Y30999D01*
X198297D01*
X202296Y32999D02*
X204962D01*
X203629D01*
Y29000D01*
X230466Y32632D02*
X229799Y33299D01*
X228466D01*
X227800Y32632D01*
Y29966D01*
X228466Y29300D01*
X229799D01*
X230466Y29966D01*
Y31299D01*
X229133D01*
X231799Y29300D02*
Y33299D01*
X234465Y29300D01*
Y33299D01*
X235797D02*
Y29300D01*
X237797D01*
X238463Y29966D01*
Y32632D01*
X237797Y33299D01*
X235797D01*
X87066Y34832D02*
X86399Y35499D01*
X85066D01*
X84400Y34832D01*
Y32166D01*
X85066Y31500D01*
X86399D01*
X87066Y32166D01*
Y33499D01*
X85733D01*
X88399Y31500D02*
Y35499D01*
X91065Y31500D01*
Y35499D01*
X92397D02*
Y31500D01*
X94397D01*
X95063Y32166D01*
Y34832D01*
X94397Y35499D01*
X92397D01*
X40000Y33000D02*
Y35666D01*
X41333Y36999D01*
X42666Y35666D01*
Y33000D01*
Y34999D01*
X40000D01*
X46665Y36999D02*
Y33000D01*
X44665D01*
X43999Y33666D01*
Y34999D01*
X44665Y35666D01*
X46665D01*
X48664D02*
X49997D01*
X50663Y34999D01*
Y33000D01*
X48664D01*
X47997Y33666D01*
X48664Y34333D01*
X50663D01*
X51996Y31667D02*
Y35666D01*
X53996D01*
X54662Y34999D01*
Y33666D01*
X53996Y33000D01*
X51996D01*
X56661Y36332D02*
Y35666D01*
X55995D01*
X57328D01*
X56661D01*
Y33666D01*
X57328Y33000D01*
X61326D02*
X59994D01*
X59327Y33666D01*
Y34999D01*
X59994Y35666D01*
X61326D01*
X61993Y34999D01*
Y34333D01*
X59327D01*
X63326Y35666D02*
Y33000D01*
Y34333D01*
X63992Y34999D01*
X64659Y35666D01*
X65325D01*
X118700Y33099D02*
Y30433D01*
X120033Y29100D01*
X121366Y30433D01*
Y33099D01*
X122699D02*
Y29100D01*
X124698D01*
X125364Y29766D01*
Y30433D01*
X124698Y31099D01*
X122699D01*
X124698D01*
X125364Y31766D01*
Y32432D01*
X124698Y33099D01*
X122699D01*
X126697Y29100D02*
Y31766D01*
X128030Y33099D01*
X129363Y31766D01*
Y29100D01*
Y31099D01*
X126697D01*
X130696Y33099D02*
X133362D01*
X132029D01*
Y29100D01*
X405300Y233000D02*
X406633D01*
X405966D01*
Y236999D01*
X405300Y236332D01*
X411298Y233000D02*
X408632D01*
X411298Y235666D01*
Y236332D01*
X410632Y236999D01*
X409299D01*
X408632Y236332D01*
X412631Y236999D02*
Y234333D01*
X413964Y233000D01*
X415297Y234333D01*
Y236999D01*
X416630Y234999D02*
X419296D01*
X353800Y229200D02*
X355133D01*
X354466D01*
Y233199D01*
X353800Y232532D01*
X359798Y229200D02*
X357132D01*
X359798Y231866D01*
Y232532D01*
X359132Y233199D01*
X357799D01*
X357132Y232532D01*
X361131Y233199D02*
Y230533D01*
X362464Y229200D01*
X363797Y230533D01*
Y233199D01*
X114000Y164700D02*
Y168699D01*
X115999D01*
X116666Y168032D01*
Y166699D01*
X115999Y166033D01*
X114000D01*
X115333D02*
X116666Y164700D01*
X117999Y168699D02*
X120665D01*
Y168032D01*
X117999Y165366D01*
Y164700D01*
X121997Y168699D02*
X124663D01*
Y168032D01*
X121997Y165366D01*
Y164700D01*
X102200Y198200D02*
Y202199D01*
X104199D01*
X104866Y201532D01*
Y200199D01*
X104199Y199533D01*
X102200D01*
X103533D02*
X104866Y198200D01*
X106199Y202199D02*
X108864D01*
Y201532D01*
X106199Y198866D01*
Y198200D01*
X112863Y202199D02*
X111530Y201532D01*
X110197Y200199D01*
Y198866D01*
X110864Y198200D01*
X112197D01*
X112863Y198866D01*
Y199533D01*
X112197Y200199D01*
X110197D01*
X113600Y157900D02*
Y161899D01*
X115599D01*
X116266Y161232D01*
Y159899D01*
X115599Y159233D01*
X113600D01*
X114933D02*
X116266Y157900D01*
X117599Y161899D02*
X120264D01*
Y161232D01*
X117599Y158566D01*
Y157900D01*
X124263Y161899D02*
X121597D01*
Y159899D01*
X122930Y160566D01*
X123597D01*
X124263Y159899D01*
Y158566D01*
X123597Y157900D01*
X122264D01*
X121597Y158566D01*
X70700Y153900D02*
X74699D01*
Y151901D01*
X74032Y151234D01*
X72699D01*
X72033Y151901D01*
Y153900D01*
Y152567D02*
X70700Y151234D01*
X74699Y149901D02*
Y147236D01*
X74032D01*
X71366Y149901D01*
X70700D01*
Y143903D02*
X74699D01*
X72699Y145903D01*
Y143237D01*
X103100Y206300D02*
Y210299D01*
X105099D01*
X105766Y209632D01*
Y208299D01*
X105099Y207633D01*
X103100D01*
X104433D02*
X105766Y206300D01*
X107099Y210299D02*
X109765D01*
Y209632D01*
X107099Y206966D01*
Y206300D01*
X111097Y209632D02*
X111764Y210299D01*
X113097D01*
X113763Y209632D01*
Y208966D01*
X113097Y208299D01*
X112430D01*
X113097D01*
X113763Y207633D01*
Y206966D01*
X113097Y206300D01*
X111764D01*
X111097Y206966D01*
X115000Y178800D02*
Y182799D01*
X116999D01*
X117666Y182132D01*
Y180799D01*
X116999Y180133D01*
X115000D01*
X116333D02*
X117666Y178800D01*
X118999Y182799D02*
X121665D01*
Y182132D01*
X118999Y179466D01*
Y178800D01*
X122997D02*
X124330D01*
X123664D01*
Y182799D01*
X122997Y182132D01*
X49700Y147700D02*
X53699D01*
Y145701D01*
X53032Y145034D01*
X51699D01*
X51033Y145701D01*
Y147700D01*
Y146367D02*
X49700Y145034D01*
X53699Y141035D02*
X53032Y142368D01*
X51699Y143701D01*
X50366D01*
X49700Y143035D01*
Y141702D01*
X50366Y141035D01*
X51033D01*
X51699Y141702D01*
Y143701D01*
X53032Y139703D02*
X53699Y139036D01*
Y137703D01*
X53032Y137037D01*
X52366D01*
X51699Y137703D01*
X51033Y137037D01*
X50366D01*
X49700Y137703D01*
Y139036D01*
X50366Y139703D01*
X51033D01*
X51699Y139036D01*
X52366Y139703D01*
X53032D01*
X51699Y139036D02*
Y137703D01*
X24900Y137100D02*
Y141099D01*
X26899D01*
X27566Y140432D01*
Y139099D01*
X26899Y138433D01*
X24900D01*
X26233D02*
X27566Y137100D01*
X31565Y141099D02*
X30232Y140432D01*
X28899Y139099D01*
Y137767D01*
X29565Y137100D01*
X30898D01*
X31565Y137767D01*
Y138433D01*
X30898Y139099D01*
X28899D01*
X32897Y141099D02*
X35563D01*
Y140432D01*
X32897Y137767D01*
Y137100D01*
X318578Y247461D02*
Y251460D01*
X320577D01*
X321244Y250793D01*
Y249460D01*
X320577Y248794D01*
X318578D01*
X319911D02*
X321244Y247461D01*
X322577Y250793D02*
X323243Y251460D01*
X324576D01*
X325242Y250793D01*
Y250127D01*
X324576Y249460D01*
X323910D01*
X324576D01*
X325242Y248794D01*
Y248127D01*
X324576Y247461D01*
X323243D01*
X322577Y248127D01*
X326575Y250793D02*
X327242Y251460D01*
X328575D01*
X329241Y250793D01*
Y250127D01*
X328575Y249460D01*
X329241Y248794D01*
Y248127D01*
X328575Y247461D01*
X327242D01*
X326575Y248127D01*
Y248794D01*
X327242Y249460D01*
X326575Y250127D01*
Y250793D01*
X327242Y249460D02*
X328575D01*
X320600Y241500D02*
X324599D01*
Y239501D01*
X323932Y238834D01*
X322599D01*
X321933Y239501D01*
Y241500D01*
Y240167D02*
X320600Y238834D01*
X323932Y237501D02*
X324599Y236835D01*
Y235502D01*
X323932Y234836D01*
X323266D01*
X322599Y235502D01*
Y236168D01*
Y235502D01*
X321933Y234836D01*
X321266D01*
X320600Y235502D01*
Y236835D01*
X321266Y237501D01*
X324599Y233503D02*
Y230837D01*
X323932D01*
X321266Y233503D01*
X320600D01*
X270300Y241100D02*
Y245099D01*
X272299D01*
X272966Y244432D01*
Y243099D01*
X272299Y242433D01*
X270300D01*
X271633D02*
X272966Y241100D01*
X274299Y244432D02*
X274965Y245099D01*
X276298D01*
X276964Y244432D01*
Y243766D01*
X276298Y243099D01*
X275632D01*
X276298D01*
X276964Y242433D01*
Y241766D01*
X276298Y241100D01*
X274965D01*
X274299Y241766D01*
X280963Y245099D02*
X279630Y244432D01*
X278297Y243099D01*
Y241766D01*
X278964Y241100D01*
X280297D01*
X280963Y241766D01*
Y242433D01*
X280297Y243099D01*
X278297D01*
X270900Y234200D02*
Y238199D01*
X272899D01*
X273566Y237532D01*
Y236199D01*
X272899Y235533D01*
X270900D01*
X272233D02*
X273566Y234200D01*
X274899Y237532D02*
X275565Y238199D01*
X276898D01*
X277565Y237532D01*
Y236866D01*
X276898Y236199D01*
X276232D01*
X276898D01*
X277565Y235533D01*
Y234866D01*
X276898Y234200D01*
X275565D01*
X274899Y234866D01*
X281563Y238199D02*
X278897D01*
Y236199D01*
X280230Y236866D01*
X280897D01*
X281563Y236199D01*
Y234866D01*
X280897Y234200D01*
X279564D01*
X278897Y234866D01*
X326609Y80662D02*
X330608D01*
Y78663D01*
X329942Y77996D01*
X328609D01*
X327942Y78663D01*
Y80662D01*
Y79329D02*
X326609Y77996D01*
X329942Y76664D02*
X330608Y75997D01*
Y74664D01*
X329942Y73998D01*
X329275D01*
X328609Y74664D01*
Y75331D01*
Y74664D01*
X327942Y73998D01*
X327276D01*
X326609Y74664D01*
Y75997D01*
X327276Y76664D01*
X326609Y70665D02*
X330608D01*
X328609Y72665D01*
Y69999D01*
X337700Y159600D02*
X341699D01*
Y157601D01*
X341032Y156934D01*
X339699D01*
X339033Y157601D01*
Y159600D01*
Y158267D02*
X337700Y156934D01*
X341032Y155601D02*
X341699Y154935D01*
Y153602D01*
X341032Y152936D01*
X340366D01*
X339699Y153602D01*
Y154268D01*
Y153602D01*
X339033Y152936D01*
X338366D01*
X337700Y153602D01*
Y154935D01*
X338366Y155601D01*
X341032Y151603D02*
X341699Y150936D01*
Y149603D01*
X341032Y148937D01*
X340366D01*
X339699Y149603D01*
Y150270D01*
Y149603D01*
X339033Y148937D01*
X338366D01*
X337700Y149603D01*
Y150936D01*
X338366Y151603D01*
X321500Y80400D02*
X325499D01*
Y78401D01*
X324832Y77734D01*
X323499D01*
X322833Y78401D01*
Y80400D01*
Y79067D02*
X321500Y77734D01*
X324832Y76401D02*
X325499Y75735D01*
Y74402D01*
X324832Y73735D01*
X324166D01*
X323499Y74402D01*
Y75068D01*
Y74402D01*
X322833Y73735D01*
X322166D01*
X321500Y74402D01*
Y75735D01*
X322166Y76401D01*
X321500Y69737D02*
Y72403D01*
X324166Y69737D01*
X324832D01*
X325499Y70403D01*
Y71736D01*
X324832Y72403D01*
X331200Y159700D02*
X335199D01*
Y157701D01*
X334532Y157034D01*
X333199D01*
X332533Y157701D01*
Y159700D01*
Y158367D02*
X331200Y157034D01*
X334532Y155701D02*
X335199Y155035D01*
Y153702D01*
X334532Y153035D01*
X333866D01*
X333199Y153702D01*
Y154368D01*
Y153702D01*
X332533Y153035D01*
X331866D01*
X331200Y153702D01*
Y155035D01*
X331866Y155701D01*
X331200Y151703D02*
Y150370D01*
Y151036D01*
X335199D01*
X334532Y151703D01*
X289100Y100600D02*
Y104599D01*
X291099D01*
X291766Y103932D01*
Y102599D01*
X291099Y101933D01*
X289100D01*
X290433D02*
X291766Y100600D01*
X293099Y103932D02*
X293765Y104599D01*
X295098D01*
X295764Y103932D01*
Y103266D01*
X295098Y102599D01*
X294432D01*
X295098D01*
X295764Y101933D01*
Y101266D01*
X295098Y100600D01*
X293765D01*
X293099Y101266D01*
X297097Y103932D02*
X297764Y104599D01*
X299097D01*
X299763Y103932D01*
Y101266D01*
X299097Y100600D01*
X297764D01*
X297097Y101266D01*
Y103932D01*
X292661Y179700D02*
Y183699D01*
X294660D01*
X295327Y183032D01*
Y181699D01*
X294660Y181033D01*
X292661D01*
X293994D02*
X295327Y179700D01*
X299325D02*
X296659D01*
X299325Y182366D01*
Y183032D01*
X298659Y183699D01*
X297326D01*
X296659Y183032D01*
X300658Y180367D02*
X301325Y179700D01*
X302658D01*
X303324Y180367D01*
Y183032D01*
X302658Y183699D01*
X301325D01*
X300658Y183032D01*
Y182366D01*
X301325Y181699D01*
X303324D01*
X285189Y96300D02*
X289188D01*
Y94301D01*
X288521Y93634D01*
X287188D01*
X286522Y94301D01*
Y96300D01*
Y94967D02*
X285189Y93634D01*
Y89635D02*
Y92301D01*
X287855Y89635D01*
X288521D01*
X289188Y90302D01*
Y91635D01*
X288521Y92301D01*
Y88303D02*
X289188Y87636D01*
Y86303D01*
X288521Y85637D01*
X287855D01*
X287188Y86303D01*
X286522Y85637D01*
X285855D01*
X285189Y86303D01*
Y87636D01*
X285855Y88303D01*
X286522D01*
X287188Y87636D01*
X287855Y88303D01*
X288521D01*
X287188Y87636D02*
Y86303D01*
X286989Y172200D02*
X290988D01*
Y170201D01*
X290321Y169534D01*
X288988D01*
X288322Y170201D01*
Y172200D01*
Y170867D02*
X286989Y169534D01*
Y165535D02*
Y168201D01*
X289655Y165535D01*
X290321D01*
X290988Y166202D01*
Y167535D01*
X290321Y168201D01*
X290988Y164203D02*
Y161537D01*
X290321D01*
X287655Y164203D01*
X286989D01*
X180500Y135600D02*
X184499D01*
Y133601D01*
X183832Y132934D01*
X182499D01*
X181833Y133601D01*
Y135600D01*
Y134267D02*
X180500Y132934D01*
Y128936D02*
Y131601D01*
X183166Y128936D01*
X183832D01*
X184499Y129602D01*
Y130935D01*
X183832Y131601D01*
X184499Y124937D02*
X183832Y126270D01*
X182499Y127603D01*
X181167D01*
X180500Y126936D01*
Y125603D01*
X181167Y124937D01*
X181833D01*
X182499Y125603D01*
Y127603D01*
X241800Y138900D02*
X245799D01*
Y136901D01*
X245132Y136234D01*
X243799D01*
X243133Y136901D01*
Y138900D01*
Y137567D02*
X241800Y136234D01*
Y132236D02*
Y134901D01*
X244466Y132236D01*
X245132D01*
X245799Y132902D01*
Y134235D01*
X245132Y134901D01*
X245799Y128237D02*
Y130903D01*
X243799D01*
X244466Y129570D01*
Y128903D01*
X243799Y128237D01*
X242466D01*
X241800Y128903D01*
Y130236D01*
X242466Y130903D01*
X244400Y160700D02*
X248399D01*
Y158701D01*
X247732Y158034D01*
X246399D01*
X245733Y158701D01*
Y160700D01*
Y159367D02*
X244400Y158034D01*
Y154035D02*
Y156701D01*
X247066Y154035D01*
X247732D01*
X248399Y154702D01*
Y156035D01*
X247732Y156701D01*
X244400Y150703D02*
X248399D01*
X246399Y152703D01*
Y150037D01*
X149800Y109900D02*
X153799D01*
Y107901D01*
X153132Y107234D01*
X151799D01*
X151133Y107901D01*
Y109900D01*
Y108567D02*
X149800Y107234D01*
Y103235D02*
Y105901D01*
X152466Y103235D01*
X153132D01*
X153799Y103902D01*
Y105235D01*
X153132Y105901D01*
Y101903D02*
X153799Y101236D01*
Y99903D01*
X153132Y99237D01*
X152466D01*
X151799Y99903D01*
Y100570D01*
Y99903D01*
X151133Y99237D01*
X150467D01*
X149800Y99903D01*
Y101236D01*
X150467Y101903D01*
X220400Y140100D02*
X224399D01*
Y138101D01*
X223732Y137434D01*
X222399D01*
X221733Y138101D01*
Y140100D01*
Y138767D02*
X220400Y137434D01*
Y133435D02*
Y136101D01*
X223066Y133435D01*
X223732D01*
X224399Y134102D01*
Y135435D01*
X223732Y136101D01*
X220400Y129437D02*
Y132103D01*
X223066Y129437D01*
X223732D01*
X224399Y130103D01*
Y131436D01*
X223732Y132103D01*
X213100Y185500D02*
X217099D01*
Y183501D01*
X216432Y182834D01*
X215099D01*
X214433Y183501D01*
Y185500D01*
Y184167D02*
X213100Y182834D01*
Y178835D02*
Y181501D01*
X215766Y178835D01*
X216432D01*
X217099Y179502D01*
Y180835D01*
X216432Y181501D01*
X213100Y177503D02*
Y176170D01*
Y176836D01*
X217099D01*
X216432Y177503D01*
X156500Y109200D02*
X160499D01*
Y107201D01*
X159832Y106534D01*
X158499D01*
X157833Y107201D01*
Y109200D01*
Y107867D02*
X156500Y106534D01*
Y102535D02*
Y105201D01*
X159166Y102535D01*
X159832D01*
X160499Y103202D01*
Y104535D01*
X159832Y105201D01*
Y101203D02*
X160499Y100536D01*
Y99203D01*
X159832Y98537D01*
X157167D01*
X156500Y99203D01*
Y100536D01*
X157167Y101203D01*
X159832D01*
X212000Y139900D02*
X215999D01*
Y137901D01*
X215332Y137234D01*
X213999D01*
X213333Y137901D01*
Y139900D01*
Y138567D02*
X212000Y137234D01*
Y135901D02*
Y134568D01*
Y135235D01*
X215999D01*
X215332Y135901D01*
X212666Y132569D02*
X212000Y131903D01*
Y130570D01*
X212666Y129903D01*
X215332D01*
X215999Y130570D01*
Y131903D01*
X215332Y132569D01*
X214666D01*
X213999Y131903D01*
Y129903D01*
X220200Y185500D02*
X224199D01*
Y183501D01*
X223532Y182834D01*
X222199D01*
X221533Y183501D01*
Y185500D01*
Y184167D02*
X220200Y182834D01*
Y181501D02*
Y180168D01*
Y180835D01*
X224199D01*
X223532Y181501D01*
Y178169D02*
X224199Y177503D01*
Y176170D01*
X223532Y175503D01*
X222866D01*
X222199Y176170D01*
X221533Y175503D01*
X220866D01*
X220200Y176170D01*
Y177503D01*
X220866Y178169D01*
X221533D01*
X222199Y177503D01*
X222866Y178169D01*
X223532D01*
X222199Y177503D02*
Y176170D01*
X339300Y118300D02*
X343299D01*
Y116301D01*
X342632Y115634D01*
X341299D01*
X340633Y116301D01*
Y118300D01*
Y116967D02*
X339300Y115634D01*
Y114301D02*
Y112968D01*
Y113635D01*
X343299D01*
X342632Y114301D01*
X343299Y110969D02*
Y108303D01*
X342632D01*
X339966Y110969D01*
X339300D01*
X337700Y204200D02*
X341699D01*
Y202201D01*
X341032Y201534D01*
X339699D01*
X339033Y202201D01*
Y204200D01*
Y202867D02*
X337700Y201534D01*
Y200201D02*
Y198868D01*
Y199535D01*
X341699D01*
X341032Y200201D01*
X341699Y194203D02*
X341032Y195536D01*
X339699Y196869D01*
X338366D01*
X337700Y196203D01*
Y194870D01*
X338366Y194203D01*
X339033D01*
X339699Y194870D01*
Y196869D01*
X333300Y118400D02*
X337299D01*
Y116401D01*
X336632Y115734D01*
X335299D01*
X334633Y116401D01*
Y118400D01*
Y117067D02*
X333300Y115734D01*
Y114401D02*
Y113068D01*
Y113735D01*
X337299D01*
X336632Y114401D01*
X337299Y108403D02*
Y111069D01*
X335299D01*
X335966Y109736D01*
Y109070D01*
X335299Y108403D01*
X333966D01*
X333300Y109070D01*
Y110403D01*
X333966Y111069D01*
X331500Y203800D02*
X335499D01*
Y201801D01*
X334832Y201134D01*
X333499D01*
X332833Y201801D01*
Y203800D01*
Y202467D02*
X331500Y201134D01*
Y199801D02*
Y198468D01*
Y199135D01*
X335499D01*
X334832Y199801D01*
X331500Y194470D02*
X335499D01*
X333499Y196469D01*
Y193803D01*
X175600Y187300D02*
X179599D01*
Y185301D01*
X178932Y184634D01*
X177599D01*
X176933Y185301D01*
Y187300D01*
Y185967D02*
X175600Y184634D01*
Y183301D02*
Y181968D01*
Y182635D01*
X179599D01*
X178932Y183301D01*
Y179969D02*
X179599Y179303D01*
Y177970D01*
X178932Y177303D01*
X178266D01*
X177599Y177970D01*
Y178636D01*
Y177970D01*
X176933Y177303D01*
X176267D01*
X175600Y177970D01*
Y179303D01*
X176267Y179969D01*
X240900Y230500D02*
X244899D01*
Y228501D01*
X244232Y227834D01*
X242899D01*
X242233Y228501D01*
Y230500D01*
Y229167D02*
X240900Y227834D01*
Y226501D02*
Y225168D01*
Y225835D01*
X244899D01*
X244232Y226501D01*
X240900Y220503D02*
Y223169D01*
X243566Y220503D01*
X244232D01*
X244899Y221170D01*
Y222503D01*
X244232Y223169D01*
X179200Y231400D02*
X183199D01*
Y229401D01*
X182532Y228734D01*
X181199D01*
X180533Y229401D01*
Y231400D01*
Y230067D02*
X179200Y228734D01*
Y227401D02*
Y226068D01*
Y226735D01*
X183199D01*
X182532Y227401D01*
X179200Y224069D02*
Y222736D01*
Y223403D01*
X183199D01*
X182532Y224069D01*
X152400Y187200D02*
X156399D01*
Y185201D01*
X155732Y184534D01*
X154399D01*
X153733Y185201D01*
Y187200D01*
Y185867D02*
X152400Y184534D01*
Y183201D02*
Y181868D01*
Y182535D01*
X156399D01*
X155732Y183201D01*
Y179869D02*
X156399Y179203D01*
Y177870D01*
X155732Y177203D01*
X153067D01*
X152400Y177870D01*
Y179203D01*
X153067Y179869D01*
X155732D01*
X150500Y208100D02*
X154499D01*
Y206101D01*
X153832Y205434D01*
X152499D01*
X151833Y206101D01*
Y208100D01*
Y206767D02*
X150500Y205434D01*
X153832Y204101D02*
X154499Y203435D01*
Y202102D01*
X153832Y201435D01*
X153166D01*
X152499Y202102D01*
X151833Y201435D01*
X151166D01*
X150500Y202102D01*
Y203435D01*
X151166Y204101D01*
X151833D01*
X152499Y203435D01*
X153166Y204101D01*
X153832D01*
X152499Y203435D02*
Y202102D01*
X293300Y135900D02*
Y139899D01*
X295299D01*
X295966Y139232D01*
Y137899D01*
X295299Y137233D01*
X293300D01*
X294633D02*
X295966Y135900D01*
X297299Y139899D02*
X299964D01*
Y139232D01*
X297299Y136566D01*
Y135900D01*
X285400Y210900D02*
Y214899D01*
X287399D01*
X288066Y214232D01*
Y212899D01*
X287399Y212233D01*
X285400D01*
X286733D02*
X288066Y210900D01*
X292064Y214899D02*
X290732Y214232D01*
X289399Y212899D01*
Y211566D01*
X290065Y210900D01*
X291398D01*
X292064Y211566D01*
Y212233D01*
X291398Y212899D01*
X289399D01*
X283600Y123800D02*
Y127799D01*
X285599D01*
X286266Y127132D01*
Y125799D01*
X285599Y125133D01*
X283600D01*
X284933D02*
X286266Y123800D01*
X290265Y127799D02*
X287599D01*
Y125799D01*
X288932Y126466D01*
X289598D01*
X290265Y125799D01*
Y124467D01*
X289598Y123800D01*
X288265D01*
X287599Y124467D01*
X285600Y219200D02*
Y223199D01*
X287599D01*
X288266Y222532D01*
Y221199D01*
X287599Y220533D01*
X285600D01*
X286933D02*
X288266Y219200D01*
X291598D02*
Y223199D01*
X289599Y221199D01*
X292265D01*
X143800Y182700D02*
X147799D01*
Y180701D01*
X147132Y180034D01*
X145799D01*
X145133Y180701D01*
Y182700D01*
Y181367D02*
X143800Y180034D01*
X147132Y178701D02*
X147799Y178035D01*
Y176702D01*
X147132Y176035D01*
X146466D01*
X145799Y176702D01*
Y177368D01*
Y176702D01*
X145133Y176035D01*
X144466D01*
X143800Y176702D01*
Y178035D01*
X144466Y178701D01*
X158400Y208000D02*
X162399D01*
Y206001D01*
X161732Y205334D01*
X160399D01*
X159733Y206001D01*
Y208000D01*
Y206667D02*
X158400Y205334D01*
Y204001D02*
Y202668D01*
Y203335D01*
X162399D01*
X161732Y204001D01*
X301366Y227866D02*
Y230532D01*
X300699Y231199D01*
X299366D01*
X298700Y230532D01*
Y227866D01*
X299366Y227200D01*
X300699D01*
X300033Y228533D02*
X301366Y227200D01*
X300699D02*
X301366Y227866D01*
X305364Y227200D02*
X302699D01*
X305364Y229866D01*
Y230532D01*
X304698Y231199D01*
X303365D01*
X302699Y230532D01*
X306697Y227200D02*
X308030D01*
X307364D01*
Y231199D01*
X306697Y230532D01*
X294166Y67866D02*
Y70532D01*
X293499Y71199D01*
X292166D01*
X291500Y70532D01*
Y67866D01*
X292166Y67200D01*
X293499D01*
X292833Y68533D02*
X294166Y67200D01*
X293499D02*
X294166Y67866D01*
X298165Y67200D02*
X295499D01*
X298165Y69866D01*
Y70532D01*
X297498Y71199D01*
X296165D01*
X295499Y70532D01*
X299497D02*
X300164Y71199D01*
X301497D01*
X302163Y70532D01*
Y67866D01*
X301497Y67200D01*
X300164D01*
X299497Y67866D01*
Y70532D01*
X294666Y144567D02*
Y147232D01*
X293999Y147899D01*
X292666D01*
X292000Y147232D01*
Y144567D01*
X292666Y143900D01*
X293999D01*
X293333Y145233D02*
X294666Y143900D01*
X293999D02*
X294666Y144567D01*
X295999Y143900D02*
X297332D01*
X296665D01*
Y147899D01*
X295999Y147232D01*
X299331Y144567D02*
X299997Y143900D01*
X301330D01*
X301997Y144567D01*
Y147232D01*
X301330Y147899D01*
X299997D01*
X299331Y147232D01*
Y146566D01*
X299997Y145899D01*
X301997D01*
X166866Y82166D02*
Y84832D01*
X166199Y85499D01*
X164866D01*
X164200Y84832D01*
Y82166D01*
X164866Y81500D01*
X166199D01*
X165533Y82833D02*
X166866Y81500D01*
X166199D02*
X166866Y82166D01*
X168199Y81500D02*
X169532D01*
X168865D01*
Y85499D01*
X168199Y84832D01*
X174197Y85499D02*
X172864Y84832D01*
X171531Y83499D01*
Y82166D01*
X172197Y81500D01*
X173530D01*
X174197Y82166D01*
Y82833D01*
X173530Y83499D01*
X171531D01*
X230666Y88366D02*
Y91032D01*
X229999Y91699D01*
X228666D01*
X228000Y91032D01*
Y88366D01*
X228666Y87700D01*
X229999D01*
X229333Y89033D02*
X230666Y87700D01*
X229999D02*
X230666Y88366D01*
X231999Y87700D02*
X233332D01*
X232665D01*
Y91699D01*
X231999Y91032D01*
X237997Y91699D02*
X235331D01*
Y89699D01*
X236664Y90366D01*
X237330D01*
X237997Y89699D01*
Y88366D01*
X237330Y87700D01*
X235997D01*
X235331Y88366D01*
X218766Y145566D02*
Y148232D01*
X218099Y148899D01*
X216766D01*
X216100Y148232D01*
Y145566D01*
X216766Y144900D01*
X218099D01*
X217433Y146233D02*
X218766Y144900D01*
X218099D02*
X218766Y145566D01*
X220099Y144900D02*
X221432D01*
X220765D01*
Y148899D01*
X220099Y148232D01*
X225430Y144900D02*
Y148899D01*
X223431Y146899D01*
X226097D01*
X158066Y125566D02*
Y128232D01*
X157399Y128899D01*
X156067D01*
X155400Y128232D01*
Y125566D01*
X156067Y124900D01*
X157399D01*
X156733Y126233D02*
X158066Y124900D01*
X157399D02*
X158066Y125566D01*
X159399Y124900D02*
X160732D01*
X160065D01*
Y128899D01*
X159399Y128232D01*
X162731D02*
X163397Y128899D01*
X164730D01*
X165397Y128232D01*
Y127566D01*
X164730Y126899D01*
X164064D01*
X164730D01*
X165397Y126233D01*
Y125566D01*
X164730Y124900D01*
X163397D01*
X162731Y125566D01*
X229566Y132067D02*
Y134732D01*
X228899Y135399D01*
X227566D01*
X226900Y134732D01*
Y132067D01*
X227566Y131400D01*
X228899D01*
X228233Y132733D02*
X229566Y131400D01*
X228899D02*
X229566Y132067D01*
X230899Y131400D02*
X232232D01*
X231565D01*
Y135399D01*
X230899Y134732D01*
X236897Y131400D02*
X234231D01*
X236897Y134066D01*
Y134732D01*
X236230Y135399D01*
X234897D01*
X234231Y134732D01*
X230366Y179766D02*
Y182432D01*
X229699Y183099D01*
X228366D01*
X227700Y182432D01*
Y179766D01*
X228366Y179100D01*
X229699D01*
X229033Y180433D02*
X230366Y179100D01*
X229699D02*
X230366Y179766D01*
X231699Y179100D02*
X233032D01*
X232365D01*
Y183099D01*
X231699Y182432D01*
X235031Y179100D02*
X236364D01*
X235697D01*
Y183099D01*
X235031Y182432D01*
X285855Y115834D02*
X288521D01*
X289188Y116501D01*
Y117833D01*
X288521Y118500D01*
X285855D01*
X285189Y117833D01*
Y116501D01*
X286522Y117167D02*
X285189Y115834D01*
Y116501D02*
X285855Y115834D01*
X285189Y114501D02*
Y113168D01*
Y113835D01*
X289188D01*
X288521Y114501D01*
Y111169D02*
X289188Y110503D01*
Y109170D01*
X288521Y108503D01*
X285855D01*
X285189Y109170D01*
Y110503D01*
X285855Y111169D01*
X288521D01*
X297766Y189267D02*
Y191932D01*
X297099Y192599D01*
X295766D01*
X295100Y191932D01*
Y189267D01*
X295766Y188600D01*
X297099D01*
X296433Y189933D02*
X297766Y188600D01*
X297099D02*
X297766Y189267D01*
X299099D02*
X299765Y188600D01*
X301098D01*
X301764Y189267D01*
Y191932D01*
X301098Y192599D01*
X299765D01*
X299099Y191932D01*
Y191266D01*
X299765Y190599D01*
X301764D01*
X176366Y141466D02*
Y144132D01*
X175699Y144799D01*
X174366D01*
X173700Y144132D01*
Y141466D01*
X174366Y140800D01*
X175699D01*
X175033Y142133D02*
X176366Y140800D01*
X175699D02*
X176366Y141466D01*
X177699Y144132D02*
X178365Y144799D01*
X179698D01*
X180365Y144132D01*
Y143466D01*
X179698Y142799D01*
X180365Y142133D01*
Y141466D01*
X179698Y140800D01*
X178365D01*
X177699Y141466D01*
Y142133D01*
X178365Y142799D01*
X177699Y143466D01*
Y144132D01*
X178365Y142799D02*
X179698D01*
X246766Y187666D02*
Y190332D01*
X246099Y190999D01*
X244766D01*
X244100Y190332D01*
Y187666D01*
X244766Y187000D01*
X246099D01*
X245433Y188333D02*
X246766Y187000D01*
X246099D02*
X246766Y187666D01*
X248099Y190999D02*
X250764D01*
Y190332D01*
X248099Y187666D01*
Y187000D01*
X158966Y194067D02*
Y196732D01*
X158299Y197399D01*
X156966D01*
X156300Y196732D01*
Y194067D01*
X156966Y193400D01*
X158299D01*
X157633Y194733D02*
X158966Y193400D01*
X158299D02*
X158966Y194067D01*
X162964Y197399D02*
X161632Y196732D01*
X160299Y195399D01*
Y194067D01*
X160965Y193400D01*
X162298D01*
X162964Y194067D01*
Y194733D01*
X162298Y195399D01*
X160299D01*
X165266Y181167D02*
Y183832D01*
X164599Y184499D01*
X163267D01*
X162600Y183832D01*
Y181167D01*
X163267Y180500D01*
X164599D01*
X163933Y181833D02*
X165266Y180500D01*
X164599D02*
X165266Y181167D01*
X166599Y183832D02*
X167265Y184499D01*
X168598D01*
X169264Y183832D01*
Y183166D01*
X168598Y182499D01*
X167932D01*
X168598D01*
X169264Y181833D01*
Y181167D01*
X168598Y180500D01*
X167265D01*
X166599Y181167D01*
X220066Y212966D02*
Y215632D01*
X219399Y216299D01*
X218066D01*
X217400Y215632D01*
Y212966D01*
X218066Y212300D01*
X219399D01*
X218733Y213633D02*
X220066Y212300D01*
X219399D02*
X220066Y212966D01*
X224064Y212300D02*
X221399D01*
X224064Y214966D01*
Y215632D01*
X223398Y216299D01*
X222065D01*
X221399Y215632D01*
X165766Y224166D02*
Y226832D01*
X165099Y227499D01*
X163767D01*
X163100Y226832D01*
Y224166D01*
X163767Y223500D01*
X165099D01*
X164433Y224833D02*
X165766Y223500D01*
X165099D02*
X165766Y224166D01*
X167099Y223500D02*
X168432D01*
X167765D01*
Y227499D01*
X167099Y226832D01*
X266000Y260000D02*
Y263999D01*
X267999D01*
X268666Y263332D01*
Y261999D01*
X267999Y261333D01*
X266000D01*
X269999Y260000D02*
X271332D01*
X270665D01*
Y263999D01*
X269999Y263332D01*
X273331Y260000D02*
X274664D01*
X273997D01*
Y263999D01*
X273331Y263332D01*
X81400Y189100D02*
X85399D01*
X81400Y186434D01*
X85399D01*
Y185101D02*
Y182436D01*
Y183768D01*
X81400D01*
X84732Y178437D02*
X85399Y179103D01*
Y180436D01*
X84732Y181103D01*
X82066D01*
X81400Y180436D01*
Y179103D01*
X82066Y178437D01*
X79900Y151099D02*
Y147100D01*
X82566D01*
X86564Y151099D02*
X83899D01*
Y147100D01*
X86564D01*
X83899Y149099D02*
X85232D01*
X87897Y151099D02*
Y147100D01*
X89897D01*
X90563Y147766D01*
Y150432D01*
X89897Y151099D01*
X87897D01*
X94562Y147100D02*
X91896D01*
X94562Y149766D01*
Y150432D01*
X93896Y151099D01*
X92563D01*
X91896Y150432D01*
X79900Y144199D02*
Y140200D01*
X82566D01*
X86564Y144199D02*
X83899D01*
Y140200D01*
X86564D01*
X83899Y142199D02*
X85232D01*
X87897Y144199D02*
Y140200D01*
X89897D01*
X90563Y140866D01*
Y143532D01*
X89897Y144199D01*
X87897D01*
X91896Y140200D02*
X93229D01*
X92563D01*
Y144199D01*
X91896Y143532D01*
X31900Y201599D02*
Y197600D01*
X33899D01*
X34566Y198266D01*
Y200932D01*
X33899Y201599D01*
X31900D01*
X35899Y197600D02*
X37232D01*
X36565D01*
Y201599D01*
X35899Y200932D01*
X41230Y197600D02*
Y201599D01*
X39231Y199599D01*
X41897D01*
X301000Y272199D02*
Y268200D01*
X302999D01*
X303666Y268866D01*
Y271532D01*
X302999Y272199D01*
X301000D01*
X304999Y268200D02*
X306332D01*
X305665D01*
Y272199D01*
X304999Y271532D01*
X308331Y268200D02*
X309664D01*
X308997D01*
Y272199D01*
X308331Y271532D01*
X328100Y87599D02*
Y83600D01*
X330099D01*
X330766Y84266D01*
Y86932D01*
X330099Y87599D01*
X328100D01*
X332099Y83600D02*
X333432D01*
X332765D01*
Y87599D01*
X332099Y86932D01*
X335431D02*
X336097Y87599D01*
X337430D01*
X338097Y86932D01*
Y84266D01*
X337430Y83600D01*
X336097D01*
X335431Y84266D01*
Y86932D01*
X317700Y183899D02*
Y179900D01*
X319699D01*
X320366Y180567D01*
Y183232D01*
X319699Y183899D01*
X317700D01*
X321699Y180567D02*
X322365Y179900D01*
X323698D01*
X324364Y180567D01*
Y183232D01*
X323698Y183899D01*
X322365D01*
X321699Y183232D01*
Y182566D01*
X322365Y181899D01*
X324364D01*
X206399Y117100D02*
X202400D01*
Y115101D01*
X203066Y114434D01*
X205732D01*
X206399Y115101D01*
Y117100D01*
X205732Y113101D02*
X206399Y112435D01*
Y111102D01*
X205732Y110435D01*
X205066D01*
X204399Y111102D01*
X203733Y110435D01*
X203066D01*
X202400Y111102D01*
Y112435D01*
X203066Y113101D01*
X203733D01*
X204399Y112435D01*
X205066Y113101D01*
X205732D01*
X204399Y112435D02*
Y111102D01*
X255400Y98199D02*
Y94200D01*
X257399D01*
X258066Y94866D01*
Y97532D01*
X257399Y98199D01*
X255400D01*
X259399D02*
X262065D01*
Y97532D01*
X259399Y94866D01*
Y94200D01*
X257400Y179799D02*
Y175800D01*
X259399D01*
X260066Y176467D01*
Y179132D01*
X259399Y179799D01*
X257400D01*
X264065D02*
X262732Y179132D01*
X261399Y177799D01*
Y176467D01*
X262065Y175800D01*
X263398D01*
X264065Y176467D01*
Y177133D01*
X263398Y177799D01*
X261399D01*
X336400Y133499D02*
Y129500D01*
X338399D01*
X339066Y130166D01*
Y132832D01*
X338399Y133499D01*
X336400D01*
X343064D02*
X340399D01*
Y131499D01*
X341732Y132166D01*
X342398D01*
X343064Y131499D01*
Y130166D01*
X342398Y129500D01*
X341065D01*
X340399Y130166D01*
X324700Y228699D02*
Y224700D01*
X326699D01*
X327366Y225366D01*
Y228032D01*
X326699Y228699D01*
X324700D01*
X330698Y224700D02*
Y228699D01*
X328699Y226699D01*
X331364D01*
X190600Y184399D02*
Y180400D01*
X192599D01*
X193266Y181067D01*
Y183732D01*
X192599Y184399D01*
X190600D01*
X194599Y183732D02*
X195265Y184399D01*
X196598D01*
X197265Y183732D01*
Y183066D01*
X196598Y182399D01*
X195932D01*
X196598D01*
X197265Y181733D01*
Y181067D01*
X196598Y180400D01*
X195265D01*
X194599Y181067D01*
X253100Y225138D02*
Y221139D01*
X255099D01*
X255766Y221806D01*
Y224472D01*
X255099Y225138D01*
X253100D01*
X259765Y221139D02*
X257099D01*
X259765Y223805D01*
Y224472D01*
X259098Y225138D01*
X257765D01*
X257099Y224472D01*
X190800Y231199D02*
Y227200D01*
X192799D01*
X193466Y227866D01*
Y230532D01*
X192799Y231199D01*
X190800D01*
X194799Y227200D02*
X196132D01*
X195465D01*
Y231199D01*
X194799Y230532D01*
X76432Y206034D02*
X77099Y206701D01*
Y208034D01*
X76432Y208700D01*
X73766D01*
X73100Y208034D01*
Y206701D01*
X73766Y206034D01*
X73100Y204701D02*
Y203368D01*
Y204035D01*
X77099D01*
X76432Y204701D01*
X73100Y198703D02*
Y201369D01*
X75766Y198703D01*
X76432D01*
X77099Y199370D01*
Y200703D01*
X76432Y201369D01*
X50832Y203034D02*
X51499Y203701D01*
Y205034D01*
X50832Y205700D01*
X48166D01*
X47500Y205034D01*
Y203701D01*
X48166Y203034D01*
X47500Y201701D02*
Y200368D01*
Y201035D01*
X51499D01*
X50832Y201701D01*
X47500Y198369D02*
Y197036D01*
Y197703D01*
X51499D01*
X50832Y198369D01*
X206432Y76134D02*
X207099Y76801D01*
Y78134D01*
X206432Y78800D01*
X203766D01*
X203100Y78134D01*
Y76801D01*
X203766Y76134D01*
X203100Y74801D02*
Y73468D01*
Y74135D01*
X207099D01*
X206432Y74801D01*
Y71469D02*
X207099Y70803D01*
Y69470D01*
X206432Y68803D01*
X203766D01*
X203100Y69470D01*
Y70803D01*
X203766Y71469D01*
X206432D01*
X84566Y213032D02*
X83899Y213699D01*
X82566D01*
X81900Y213032D01*
Y210366D01*
X82566Y209700D01*
X83899D01*
X84566Y210366D01*
X85899D02*
X86565Y209700D01*
X87898D01*
X88564Y210366D01*
Y213032D01*
X87898Y213699D01*
X86565D01*
X85899Y213032D01*
Y212366D01*
X86565Y211699D01*
X88564D01*
X198832Y75734D02*
X199499Y76401D01*
Y77734D01*
X198832Y78400D01*
X196167D01*
X195500Y77734D01*
Y76401D01*
X196167Y75734D01*
X198832Y74401D02*
X199499Y73735D01*
Y72402D01*
X198832Y71736D01*
X198166D01*
X197499Y72402D01*
X196833Y71736D01*
X196167D01*
X195500Y72402D01*
Y73735D01*
X196167Y74401D01*
X196833D01*
X197499Y73735D01*
X198166Y74401D01*
X198832D01*
X197499Y73735D02*
Y72402D01*
X57132Y205934D02*
X57799Y206601D01*
Y207934D01*
X57132Y208600D01*
X54466D01*
X53800Y207934D01*
Y206601D01*
X54466Y205934D01*
X57799Y204601D02*
Y201936D01*
X57132D01*
X54466Y204601D01*
X53800D01*
X117366Y190132D02*
X116699Y190799D01*
X115366D01*
X114700Y190132D01*
Y187467D01*
X115366Y186800D01*
X116699D01*
X117366Y187467D01*
X121364Y190799D02*
X120032Y190132D01*
X118699Y188799D01*
Y187467D01*
X119365Y186800D01*
X120698D01*
X121364Y187467D01*
Y188133D01*
X120698Y188799D01*
X118699D01*
X9366Y181832D02*
X8699Y182499D01*
X7367D01*
X6700Y181832D01*
Y179166D01*
X7367Y178500D01*
X8699D01*
X9366Y179166D01*
X13364Y182499D02*
X10699D01*
Y180499D01*
X12032Y181166D01*
X12698D01*
X13364Y180499D01*
Y179166D01*
X12698Y178500D01*
X11365D01*
X10699Y179166D01*
X64932Y150734D02*
X65599Y151401D01*
Y152734D01*
X64932Y153400D01*
X62266D01*
X61600Y152734D01*
Y151401D01*
X62266Y150734D01*
X61600Y147402D02*
X65599D01*
X63599Y149401D01*
Y146736D01*
D107*
X63242Y177784D02*
G03*
X63242Y177784I-295J0D01*
G01*
D108*
X239200Y199500D02*
Y203500D01*
X235100D02*
X239100D01*
X235100Y199500D02*
X239100D01*
X229100D02*
X233100D01*
X229000D02*
Y203500D01*
X229100D02*
X233100D01*
Y200500D02*
Y202500D01*
Y200500D02*
X234100Y201500D01*
X233100Y202500D02*
X234100Y201500D01*
X240000Y157200D02*
Y161200D01*
X235900D02*
X239900D01*
X235900Y157200D02*
X239900D01*
X229900D02*
X233900D01*
X229800D02*
Y161200D01*
X229900D02*
X233900D01*
Y158200D02*
Y160200D01*
Y158200D02*
X234900Y159200D01*
X233900Y160200D02*
X234900Y159200D01*
X238000Y108900D02*
Y112900D01*
X233900D02*
X237900D01*
X233900Y108900D02*
X237900D01*
X227900D02*
X231900D01*
X227800D02*
Y112900D01*
X227900D02*
X231900D01*
Y109900D02*
Y111900D01*
Y109900D02*
X232900Y110900D01*
X231900Y111900D02*
X232900Y110900D01*
X174100Y104100D02*
Y108100D01*
X170000D02*
X174000D01*
X170000Y104100D02*
X174000D01*
X164000D02*
X168000D01*
X163900D02*
Y108100D01*
X164000D02*
X168000D01*
Y105100D02*
Y107100D01*
Y105100D02*
X169000Y106100D01*
X168000Y107100D02*
X169000Y106100D01*
X173300Y159000D02*
Y163000D01*
X169200D02*
X173200D01*
X169200Y159000D02*
X173200D01*
X163200D02*
X167200D01*
X163100D02*
Y163000D01*
X163200D02*
X167200D01*
Y160000D02*
Y162000D01*
Y160000D02*
X168200Y161000D01*
X167200Y162000D02*
X168200Y161000D01*
X170800Y208000D02*
X171800Y207000D01*
X170800Y206000D02*
X171800Y207000D01*
X170800Y206000D02*
Y208000D01*
X166800Y209000D02*
X170800D01*
X166700Y205000D02*
Y209000D01*
X166800Y205000D02*
X170800D01*
X172800D02*
X176800D01*
X172800Y209000D02*
X176800D01*
X176900Y205000D02*
Y209000D01*
X97000Y175100D02*
Y195100D01*
X87000D02*
X97000D01*
X87000Y175100D02*
Y195100D01*
Y175100D02*
X97000D01*
M02*
