%FSLAX25Y25*%
%MOIN*%
G70*
G01*
G75*
G04 Layer_Color=32896*
%ADD10R,0.10630X0.03937*%
%ADD11R,0.02126X0.03543*%
%ADD12R,0.06299X0.01969*%
%ADD13R,0.07874X0.14410*%
%ADD14R,0.09843X0.14410*%
%ADD15R,0.25590X0.07559*%
%ADD16R,0.03543X0.02126*%
%ADD17R,0.01969X0.06299*%
%ADD18R,0.14410X0.07874*%
%ADD19R,0.14410X0.09843*%
%ADD20R,0.48504X0.15354*%
%ADD21C,0.00800*%
%ADD22R,0.19863X0.06977*%
%ADD23R,0.06180X0.93198*%
%ADD24R,0.45000X0.11900*%
%ADD25R,0.14563X0.09851*%
%ADD26R,0.30545X0.09475*%
%ADD27R,0.84414X0.11700*%
%ADD28R,0.46600X0.09300*%
%ADD29R,0.07500X0.15800*%
%ADD30R,0.07871X0.17200*%
%ADD31C,0.00500*%
%ADD32O,0.11811X0.09843*%
%ADD33R,0.11811X0.09843*%
%ADD34C,0.04000*%
%ADD35C,0.03000*%
%ADD36C,0.02000*%
%ADD37C,0.05000*%
%ADD38R,0.02756X0.03347*%
%ADD39R,0.03347X0.02756*%
%ADD40R,0.05118X0.03937*%
%ADD41O,0.02756X0.01181*%
%ADD42O,0.01181X0.02756*%
%ADD43R,0.07087X0.13386*%
%ADD44R,0.05000X0.94000*%
%ADD45R,0.16800X0.04300*%
%ADD46R,0.02620X0.27359*%
%ADD47R,0.02295X0.26700*%
%ADD48C,0.01000*%
%ADD49R,0.82400X0.16100*%
%ADD50R,0.11430X0.04737*%
%ADD51R,0.02926X0.04343*%
%ADD52R,0.07099X0.02769*%
%ADD53R,0.08674X0.15210*%
%ADD54R,0.10642X0.15210*%
%ADD55R,0.26391X0.08359*%
%ADD56R,0.04343X0.02926*%
%ADD57R,0.02769X0.07099*%
%ADD58R,0.15210X0.08674*%
%ADD59R,0.15210X0.10642*%
%ADD60R,0.49304X0.16154*%
%ADD61O,0.12611X0.10642*%
%ADD62R,0.12611X0.10642*%
%ADD63R,0.03556X0.04147*%
%ADD64R,0.04147X0.03556*%
%ADD65R,0.05918X0.04737*%
%ADD66O,0.03556X0.01981*%
%ADD67O,0.01981X0.03556*%
%ADD68R,0.07887X0.14186*%
%ADD69C,0.00984*%
D31*
X43445Y-30835D02*
X51713D01*
X52500Y-34378D02*
Y-31622D01*
X42658Y-34378D02*
Y-31622D01*
X43445Y-35165D02*
X51713D01*
X42658Y-34378D02*
X43445Y-35165D01*
X42658Y-31622D02*
X43445Y-30835D01*
X51713D02*
X52500Y-31622D01*
X51713Y-35165D02*
X52500Y-34378D01*
X57739Y-20765D02*
X66007D01*
X56952Y-19978D02*
Y-17222D01*
X66795Y-19978D02*
Y-17222D01*
X57739Y-16435D02*
X66007D01*
X66795Y-17222D01*
X66007Y-20765D02*
X66795Y-19978D01*
X56952D02*
X57739Y-20765D01*
X56952Y-17222D02*
X57739Y-16435D01*
X59039Y-65865D02*
X67307D01*
X58252Y-65078D02*
Y-62322D01*
X68094Y-65078D02*
Y-62322D01*
X59039Y-61535D02*
X67307D01*
X68094Y-62322D01*
X67307Y-65865D02*
X68094Y-65078D01*
X58252D02*
X59039Y-65865D01*
X58252Y-62322D02*
X59039Y-61535D01*
X43339Y-47865D02*
X51607D01*
X42552Y-47078D02*
Y-44322D01*
X52394Y-47078D02*
Y-44322D01*
X43339Y-43535D02*
X51607D01*
X52394Y-44322D01*
X51607Y-47865D02*
X52394Y-47078D01*
X42552D02*
X43339Y-47865D01*
X42552Y-44322D02*
X43339Y-43535D01*
X87765Y-43487D02*
Y-35219D01*
X84222Y-44274D02*
X86978D01*
X84222Y-34431D02*
X86978D01*
X83435Y-43487D02*
Y-35219D01*
X84222Y-34431D01*
X86978D02*
X87765Y-35219D01*
X86978Y-44274D02*
X87765Y-43487D01*
X83435D02*
X84222Y-44274D01*
X90739Y-34275D02*
X99007D01*
X99795Y-37818D02*
Y-35062D01*
X89952Y-37818D02*
Y-35062D01*
X90739Y-38605D02*
X99007D01*
X89952Y-37818D02*
X90739Y-38605D01*
X89952Y-35062D02*
X90739Y-34275D01*
X99007D02*
X99795Y-35062D01*
X99007Y-38605D02*
X99795Y-37818D01*
X90739Y-32745D02*
X99007D01*
X89952Y-31958D02*
Y-29202D01*
X99795Y-31958D02*
Y-29202D01*
X90739Y-28415D02*
X99007D01*
X99795Y-29202D01*
X99007Y-32745D02*
X99795Y-31958D01*
X89952D02*
X90739Y-32745D01*
X89952Y-29202D02*
X90739Y-28415D01*
X90545Y-51965D02*
X98813D01*
X89758Y-51178D02*
Y-48422D01*
X99600Y-51178D02*
Y-48422D01*
X90545Y-47635D02*
X98813D01*
X99600Y-48422D01*
X98813Y-51965D02*
X99600Y-51178D01*
X89758D02*
X90545Y-51965D01*
X89758Y-48422D02*
X90545Y-47635D01*
X83435Y-31781D02*
Y-23513D01*
X84222Y-22726D02*
X86978D01*
X84222Y-32568D02*
X86978D01*
X87765Y-31781D02*
Y-23513D01*
X86978Y-32568D02*
X87765Y-31781D01*
X83435D02*
X84222Y-32568D01*
X83435Y-23513D02*
X84222Y-22726D01*
X86978D02*
X87765Y-23513D01*
X42658Y-41365D02*
X52500D01*
X42658Y-37035D02*
X52500D01*
X42658Y-41365D02*
Y-37035D01*
X52500Y-41365D02*
Y-37035D01*
X72576Y-7370D02*
X78876D01*
X72576Y-20756D02*
X78876D01*
X72576Y-8354D02*
X72576D01*
X78876Y-20756D02*
Y-7370D01*
X72576Y-20756D02*
Y-7370D01*
X51157Y-27665D02*
X61000D01*
X51157Y-23335D02*
X61000D01*
X51157Y-27665D02*
Y-23335D01*
X61000Y-27665D02*
Y-23335D01*
X52358Y-59365D02*
X62200D01*
X52358Y-55035D02*
X62200D01*
X52358Y-59365D02*
Y-55035D01*
X62200Y-59365D02*
Y-55035D01*
X89863Y-57965D02*
X99705D01*
X89863Y-53635D02*
X99705D01*
X89863Y-57965D02*
Y-53635D01*
X99705Y-57965D02*
Y-53635D01*
X89952Y-40135D02*
X99795D01*
X89952Y-44465D02*
X99795D01*
Y-40135D01*
X89952Y-44465D02*
Y-40135D01*
X89863Y-64265D02*
X99705D01*
X89863Y-59935D02*
X99705D01*
X89863Y-64265D02*
Y-59935D01*
X99705Y-64265D02*
Y-59935D01*
X103135Y-49974D02*
Y-40132D01*
X107465Y-49974D02*
Y-40132D01*
X103135D02*
X107465D01*
X103135Y-49974D02*
X107465D01*
X102935Y-37874D02*
Y-28032D01*
X107265Y-37874D02*
Y-28032D01*
X102935D02*
X107265D01*
X102935Y-37874D02*
X107265D01*
X89952Y-22555D02*
X99795D01*
X89952Y-26885D02*
X99795D01*
Y-22555D01*
X89952Y-26885D02*
Y-22555D01*
Y-16695D02*
X99795D01*
X89952Y-21025D02*
X99795D01*
Y-16695D01*
X89952Y-21025D02*
Y-16695D01*
Y-10835D02*
X99795D01*
X89952Y-15165D02*
X99795D01*
Y-10835D01*
X89952Y-15165D02*
Y-10835D01*
X74513Y-34200D02*
Y-33245D01*
X73528D02*
X74513D01*
X60339D02*
X61324D01*
X60339Y-34200D02*
Y-33245D01*
Y-51355D02*
Y-50400D01*
Y-51355D02*
X61324D01*
X73528D02*
X74513D01*
Y-50300D01*
X154639Y-136459D02*
X162907D01*
X153852Y-135672D02*
Y-132916D01*
X163695Y-135672D02*
Y-132916D01*
X154639Y-132128D02*
X162907D01*
X163695Y-132916D01*
X162907Y-136459D02*
X163695Y-135672D01*
X153852D02*
X154639Y-136459D01*
X153852Y-132916D02*
X154639Y-132128D01*
X149213Y-129565D02*
X157481D01*
X148426Y-128778D02*
Y-126022D01*
X158268Y-128778D02*
Y-126022D01*
X149213Y-125235D02*
X157481D01*
X158268Y-126022D01*
X157481Y-129565D02*
X158268Y-128778D01*
X148426D02*
X149213Y-129565D01*
X148426Y-126022D02*
X149213Y-125235D01*
X160461Y-128675D02*
Y-120407D01*
X161248Y-119620D02*
X164004D01*
X161248Y-129462D02*
X164004D01*
X164791Y-128675D02*
Y-120407D01*
X164004Y-129462D02*
X164791Y-128675D01*
X160461D02*
X161248Y-129462D01*
X160461Y-120407D02*
X161248Y-119620D01*
X164004D02*
X164791Y-120407D01*
X160361Y-117175D02*
Y-108907D01*
X161148Y-108120D02*
X163904D01*
X161148Y-117962D02*
X163904D01*
X164691Y-117175D02*
Y-108907D01*
X163904Y-117962D02*
X164691Y-117175D01*
X160361D02*
X161148Y-117962D01*
X160361Y-108907D02*
X161148Y-108120D01*
X163904D02*
X164691Y-108907D01*
X153819Y-86935D02*
X162087D01*
X162874Y-90478D02*
Y-87722D01*
X153032Y-90478D02*
Y-87722D01*
X153819Y-91265D02*
X162087D01*
X153032Y-90478D02*
X153819Y-91265D01*
X153032Y-87722D02*
X153819Y-86935D01*
X162087D02*
X162874Y-87722D01*
X162087Y-91265D02*
X162874Y-90478D01*
X148352Y-119028D02*
X158194D01*
X148352Y-123359D02*
X158194D01*
Y-119028D01*
X148352Y-123359D02*
Y-119028D01*
X153052Y-92828D02*
X162894D01*
X153052Y-97159D02*
X162894D01*
Y-92828D01*
X153052Y-97159D02*
Y-92828D01*
X166861Y-123868D02*
Y-114025D01*
X171191Y-123868D02*
Y-114025D01*
X166861D02*
X171191D01*
X166861Y-123868D02*
X171191D01*
X148432Y-117365D02*
X158274D01*
X148432Y-113035D02*
X158274D01*
X148432Y-117365D02*
Y-113035D01*
X158274Y-117365D02*
Y-113035D01*
X148432Y-111465D02*
X158274D01*
X148432Y-107135D02*
X158274D01*
X148432Y-111465D02*
Y-107135D01*
X158274Y-111465D02*
Y-107135D01*
X153657Y-142859D02*
X163500D01*
X153657Y-138528D02*
X163500D01*
X153657Y-142859D02*
Y-138528D01*
X163500Y-142859D02*
Y-138528D01*
X153657Y-149059D02*
X163500D01*
X153657Y-144728D02*
X163500D01*
X153657Y-149059D02*
Y-144728D01*
X163500Y-149059D02*
Y-144728D01*
X153052Y-98828D02*
X162894D01*
X153052Y-103159D02*
X162894D01*
Y-98828D01*
X153052Y-103159D02*
Y-98828D01*
X205339Y-129759D02*
X213607D01*
X204552Y-128972D02*
Y-126216D01*
X214394Y-128972D02*
Y-126216D01*
X205339Y-125428D02*
X213607D01*
X214394Y-126216D01*
X213607Y-129759D02*
X214394Y-128972D01*
X204552D02*
X205339Y-129759D01*
X204552Y-126216D02*
X205339Y-125428D01*
X205639Y-144959D02*
X213907D01*
X204852Y-144172D02*
Y-141416D01*
X214694Y-144172D02*
Y-141416D01*
X205639Y-140628D02*
X213907D01*
X214694Y-141416D01*
X213907Y-144959D02*
X214694Y-144172D01*
X204852D02*
X205639Y-144959D01*
X204852Y-141416D02*
X205639Y-140628D01*
X204614Y-119306D02*
X214457D01*
X204614Y-123637D02*
X214457D01*
Y-119306D01*
X204614Y-123637D02*
Y-119306D01*
X174176Y-148624D02*
X180476D01*
X174176Y-135238D02*
X180476D01*
X180476Y-147639D02*
X180476D01*
X174176Y-148624D02*
Y-135238D01*
X180476Y-148624D02*
Y-135238D01*
X204752Y-134428D02*
X214595D01*
X204752Y-138759D02*
X214595D01*
Y-134428D01*
X204752Y-138759D02*
Y-134428D01*
X204845Y-113328D02*
X213113D01*
X213900Y-116872D02*
Y-114116D01*
X204058Y-116872D02*
Y-114116D01*
X204845Y-117659D02*
X213113D01*
X204058Y-116872D02*
X204845Y-117659D01*
X204058Y-114116D02*
X204845Y-113328D01*
X213113D02*
X213900Y-114116D01*
X213113Y-117659D02*
X213900Y-116872D01*
X183545Y-93428D02*
X191813D01*
X192600Y-96972D02*
Y-94216D01*
X182757Y-96972D02*
Y-94216D01*
X183545Y-97759D02*
X191813D01*
X182757Y-96972D02*
X183545Y-97759D01*
X182757Y-94216D02*
X183545Y-93428D01*
X191813D02*
X192600Y-94216D01*
X191813Y-97759D02*
X192600Y-96972D01*
X188652Y-99928D02*
X198495D01*
X188652Y-104259D02*
X198495D01*
Y-99928D01*
X188652Y-104259D02*
Y-99928D01*
X180539Y-127549D02*
Y-126594D01*
Y-127549D02*
X181524D01*
X193728D02*
X194713D01*
Y-126594D01*
Y-110394D02*
Y-109439D01*
X193728D02*
X194713D01*
X180539D02*
X181524D01*
X180539Y-110494D02*
Y-109439D01*
X179176Y-137542D02*
Y-134210D01*
X179842Y-133544D01*
X181175D01*
X181842Y-134210D01*
Y-137542D01*
X183175Y-133544D02*
X184508D01*
X183841D01*
Y-137542D01*
X183175Y-136876D01*
X75876Y-23251D02*
Y-26584D01*
X75209Y-27250D01*
X73877D01*
X73210Y-26584D01*
Y-23251D01*
X69212Y-27250D02*
X71877D01*
X69212Y-24584D01*
Y-23918D01*
X69878Y-23251D01*
X71211D01*
X71877Y-23918D01*
X149776Y-99544D02*
X145777D01*
Y-101543D01*
X146444Y-102209D01*
X147777D01*
X148443Y-101543D01*
Y-99544D01*
Y-100877D02*
X149776Y-102209D01*
X145777Y-106208D02*
Y-103542D01*
X147777D01*
X147110Y-104875D01*
Y-105542D01*
X147777Y-106208D01*
X149109D01*
X149776Y-105542D01*
Y-104209D01*
X149109Y-103542D01*
X166776Y-148344D02*
X170775D01*
Y-146344D01*
X170108Y-145678D01*
X168775D01*
X168109Y-146344D01*
Y-148344D01*
Y-147011D02*
X166776Y-145678D01*
Y-144345D02*
Y-143012D01*
Y-143678D01*
X170775D01*
X170108Y-144345D01*
X166776Y-138347D02*
Y-141013D01*
X169442Y-138347D01*
X170108D01*
X170775Y-139013D01*
Y-140346D01*
X170108Y-141013D01*
X166776Y-142144D02*
X170775D01*
Y-140144D01*
X170108Y-139478D01*
X168775D01*
X168109Y-140144D01*
Y-142144D01*
Y-140811D02*
X166776Y-139478D01*
Y-138145D02*
Y-136812D01*
Y-137478D01*
X170775D01*
X170108Y-138145D01*
X166776Y-134813D02*
Y-133480D01*
Y-134146D01*
X170775D01*
X170108Y-134813D01*
X161550Y-110750D02*
X165549D01*
Y-108751D01*
X164882Y-108084D01*
X163549D01*
X162883Y-108751D01*
Y-110750D01*
Y-109417D02*
X161550Y-108084D01*
Y-106751D02*
Y-105418D01*
Y-106085D01*
X165549D01*
X164882Y-106751D01*
Y-103419D02*
X165549Y-102753D01*
Y-101420D01*
X164882Y-100753D01*
X162216D01*
X161550Y-101420D01*
Y-102753D01*
X162216Y-103419D01*
X164882D01*
X161550Y-116650D02*
X165549D01*
Y-114651D01*
X164882Y-113984D01*
X163549D01*
X162883Y-114651D01*
Y-116650D01*
Y-115317D02*
X161550Y-113984D01*
X162216Y-112651D02*
X161550Y-111985D01*
Y-110652D01*
X162216Y-109985D01*
X164882D01*
X165549Y-110652D01*
Y-111985D01*
X164882Y-112651D01*
X164216D01*
X163549Y-111985D01*
Y-109985D01*
X167576Y-127144D02*
Y-131142D01*
X169575D01*
X170242Y-130476D01*
Y-129143D01*
X169575Y-128477D01*
X167576D01*
X168909D02*
X170242Y-127144D01*
X171575Y-130476D02*
X172241Y-131142D01*
X173574D01*
X174241Y-130476D01*
Y-129809D01*
X173574Y-129143D01*
X174241Y-128477D01*
Y-127810D01*
X173574Y-127144D01*
X172241D01*
X171575Y-127810D01*
Y-128477D01*
X172241Y-129143D01*
X171575Y-129809D01*
Y-130476D01*
X172241Y-129143D02*
X173574D01*
X149776Y-93544D02*
X145777D01*
Y-95543D01*
X146444Y-96210D01*
X147777D01*
X148443Y-95543D01*
Y-93544D01*
Y-94877D02*
X149776Y-96210D01*
X145777Y-97542D02*
Y-100208D01*
X146444D01*
X149109Y-97542D01*
X149776D01*
X145076Y-119744D02*
X141077D01*
Y-121743D01*
X141744Y-122409D01*
X143077D01*
X143743Y-121743D01*
Y-119744D01*
Y-121077D02*
X145076Y-122409D01*
X141077Y-126408D02*
X141744Y-125075D01*
X143077Y-123742D01*
X144410D01*
X145076Y-124409D01*
Y-125742D01*
X144410Y-126408D01*
X143743D01*
X143077Y-125742D01*
Y-123742D01*
X185376Y-100644D02*
X181377D01*
Y-102643D01*
X182044Y-103310D01*
X183377D01*
X184043Y-102643D01*
Y-100644D01*
Y-101977D02*
X185376Y-103310D01*
Y-106642D02*
X181377D01*
X183377Y-104642D01*
Y-107308D01*
X201476Y-135144D02*
X197477D01*
Y-137143D01*
X198144Y-137810D01*
X199477D01*
X200143Y-137143D01*
Y-135144D01*
Y-136477D02*
X201476Y-137810D01*
X198144Y-139142D02*
X197477Y-139809D01*
Y-141142D01*
X198144Y-141808D01*
X198810D01*
X199477Y-141142D01*
Y-140475D01*
Y-141142D01*
X200143Y-141808D01*
X200810D01*
X201476Y-141142D01*
Y-139809D01*
X200810Y-139142D01*
X174976Y-151844D02*
Y-155842D01*
X176975D01*
X177642Y-155176D01*
Y-153843D01*
X176975Y-153177D01*
X174976D01*
X176309D02*
X177642Y-151844D01*
X181641D02*
X178975D01*
X181641Y-154509D01*
Y-155176D01*
X180974Y-155842D01*
X179641D01*
X178975Y-155176D01*
X201338Y-120022D02*
X197339D01*
Y-122021D01*
X198006Y-122687D01*
X199339D01*
X200005Y-122021D01*
Y-120022D01*
Y-121355D02*
X201338Y-122687D01*
Y-124020D02*
Y-125353D01*
Y-124687D01*
X197339D01*
X198006Y-124020D01*
X86676Y-11550D02*
X82677D01*
Y-13549D01*
X83344Y-14216D01*
X84677D01*
X85343Y-13549D01*
Y-11550D01*
Y-12883D02*
X86676Y-14216D01*
Y-18214D02*
Y-15549D01*
X84010Y-18214D01*
X83344D01*
X82677Y-17548D01*
Y-16215D01*
X83344Y-15549D01*
X86676Y-21547D02*
X82677D01*
X84677Y-19547D01*
Y-22213D01*
X86676Y-17410D02*
X82677D01*
Y-19409D01*
X83344Y-20076D01*
X84677D01*
X85343Y-19409D01*
Y-17410D01*
Y-18743D02*
X86676Y-20076D01*
Y-24074D02*
Y-21409D01*
X84010Y-24074D01*
X83344D01*
X82677Y-23408D01*
Y-22075D01*
X83344Y-21409D01*
Y-25407D02*
X82677Y-26074D01*
Y-27407D01*
X83344Y-28073D01*
X84010D01*
X84677Y-27407D01*
Y-26740D01*
Y-27407D01*
X85343Y-28073D01*
X86010D01*
X86676Y-27407D01*
Y-26074D01*
X86010Y-25407D01*
X86676Y-23270D02*
X82677D01*
Y-25269D01*
X83344Y-25936D01*
X84677D01*
X85343Y-25269D01*
Y-23270D01*
Y-24603D02*
X86676Y-25936D01*
Y-29934D02*
Y-27269D01*
X84010Y-29934D01*
X83344D01*
X82677Y-29268D01*
Y-27935D01*
X83344Y-27269D01*
X86676Y-33933D02*
Y-31267D01*
X84010Y-33933D01*
X83344D01*
X82677Y-33267D01*
Y-31934D01*
X83344Y-31267D01*
X99650Y-28750D02*
X95651D01*
Y-30749D01*
X96318Y-31416D01*
X97651D01*
X98317Y-30749D01*
Y-28750D01*
Y-30083D02*
X99650Y-31416D01*
Y-35414D02*
Y-32749D01*
X96984Y-35414D01*
X96318D01*
X95651Y-34748D01*
Y-33415D01*
X96318Y-32749D01*
X99650Y-36747D02*
Y-38080D01*
Y-37414D01*
X95651D01*
X96318Y-36747D01*
X99850Y-40850D02*
X95851D01*
Y-42849D01*
X96518Y-43516D01*
X97851D01*
X98517Y-42849D01*
Y-40850D01*
Y-42183D02*
X99850Y-43516D01*
Y-47515D02*
Y-44849D01*
X97184Y-47515D01*
X96518D01*
X95851Y-46848D01*
Y-45515D01*
X96518Y-44849D01*
Y-48847D02*
X95851Y-49514D01*
Y-50847D01*
X96518Y-51513D01*
X99184D01*
X99850Y-50847D01*
Y-49514D01*
X99184Y-48847D01*
X96518D01*
X90582Y-67550D02*
Y-71549D01*
X92581D01*
X93247Y-70882D01*
Y-69549D01*
X92581Y-68883D01*
X90582D01*
X91914D02*
X93247Y-67550D01*
X94580D02*
X95913D01*
X95247D01*
Y-71549D01*
X94580Y-70882D01*
X97913Y-68216D02*
X98579Y-67550D01*
X99912D01*
X100578Y-68216D01*
Y-70882D01*
X99912Y-71549D01*
X98579D01*
X97913Y-70882D01*
Y-70216D01*
X98579Y-69549D01*
X100578D01*
X99076Y-36850D02*
Y-32851D01*
X97077D01*
X96410Y-33518D01*
Y-34851D01*
X97077Y-35517D01*
X99076D01*
X97743D02*
X96410Y-36850D01*
X95077D02*
X93744D01*
X94411D01*
Y-32851D01*
X95077Y-33518D01*
X91745D02*
X91079Y-32851D01*
X89746D01*
X89079Y-33518D01*
Y-34184D01*
X89746Y-34851D01*
X89079Y-35517D01*
Y-36184D01*
X89746Y-36850D01*
X91079D01*
X91745Y-36184D01*
Y-35517D01*
X91079Y-34851D01*
X91745Y-34184D01*
Y-33518D01*
X91079Y-34851D02*
X89746D01*
X90582Y-61250D02*
Y-65249D01*
X92581D01*
X93247Y-64582D01*
Y-63249D01*
X92581Y-62583D01*
X90582D01*
X91914D02*
X93247Y-61250D01*
X94580D02*
X95913D01*
X95247D01*
Y-65249D01*
X94580Y-64582D01*
X97913Y-65249D02*
X100578D01*
Y-64582D01*
X97913Y-61916D01*
Y-61250D01*
X53076Y-62650D02*
Y-66649D01*
X55075D01*
X55742Y-65982D01*
Y-64649D01*
X55075Y-63983D01*
X53076D01*
X54409D02*
X55742Y-62650D01*
X57075D02*
X58408D01*
X57741D01*
Y-66649D01*
X57075Y-65982D01*
X63073Y-66649D02*
X61740Y-65982D01*
X60407Y-64649D01*
Y-63316D01*
X61073Y-62650D01*
X62406D01*
X63073Y-63316D01*
Y-63983D01*
X62406Y-64649D01*
X60407D01*
X51876Y-30950D02*
Y-34949D01*
X53875D01*
X54542Y-34282D01*
Y-32949D01*
X53875Y-32283D01*
X51876D01*
X53209D02*
X54542Y-30950D01*
X55875D02*
X57208D01*
X56541D01*
Y-34949D01*
X55875Y-34282D01*
X61873Y-34949D02*
X59207D01*
Y-32949D01*
X60540Y-33616D01*
X61206D01*
X61873Y-32949D01*
Y-31616D01*
X61206Y-30950D01*
X59873D01*
X59207Y-31616D01*
X82076Y-20050D02*
X86075D01*
Y-18051D01*
X85408Y-17384D01*
X84075D01*
X83409Y-18051D01*
Y-20050D01*
Y-18717D02*
X82076Y-17384D01*
Y-16051D02*
Y-14718D01*
Y-15385D01*
X86075D01*
X85408Y-16051D01*
X82076Y-10720D02*
X86075D01*
X84075Y-12719D01*
Y-10053D01*
X43376Y-44650D02*
Y-48649D01*
X45375D01*
X46042Y-47982D01*
Y-46649D01*
X45375Y-45983D01*
X43376D01*
X44709D02*
X46042Y-44650D01*
X47375D02*
X48708D01*
X48041D01*
Y-48649D01*
X47375Y-47982D01*
X50707D02*
X51373Y-48649D01*
X52706D01*
X53373Y-47982D01*
Y-47316D01*
X52706Y-46649D01*
X52040D01*
X52706D01*
X53373Y-45983D01*
Y-45316D01*
X52706Y-44650D01*
X51373D01*
X50707Y-45316D01*
X169482Y-87884D02*
X170149Y-88551D01*
Y-89884D01*
X169482Y-90550D01*
X166816D01*
X166150Y-89884D01*
Y-88551D01*
X166816Y-87884D01*
X166150Y-86551D02*
Y-85218D01*
Y-85885D01*
X170149D01*
X169482Y-86551D01*
X170149Y-83219D02*
Y-80553D01*
X169482D01*
X166816Y-83219D01*
X166150D01*
X161310Y-101511D02*
X161977Y-100845D01*
X163310D01*
X163976Y-101511D01*
Y-104177D01*
X163310Y-104844D01*
X161977D01*
X161310Y-104177D01*
X159977Y-104844D02*
X158644D01*
X159311D01*
Y-100845D01*
X159977Y-101511D01*
X153979Y-100845D02*
X155312Y-101511D01*
X156645Y-102844D01*
Y-104177D01*
X155979Y-104844D01*
X154646D01*
X153979Y-104177D01*
Y-103511D01*
X154646Y-102844D01*
X156645D01*
X161410Y-113011D02*
X162077Y-112345D01*
X163409D01*
X164076Y-113011D01*
Y-115677D01*
X163409Y-116344D01*
X162077D01*
X161410Y-115677D01*
X160077Y-116344D02*
X158744D01*
X159411D01*
Y-112345D01*
X160077Y-113011D01*
X154079Y-112345D02*
X156745D01*
Y-114344D01*
X155412Y-113678D01*
X154746D01*
X154079Y-114344D01*
Y-115677D01*
X154746Y-116344D01*
X156079D01*
X156745Y-115677D01*
X141818Y-128616D02*
X141151Y-127949D01*
Y-126617D01*
X141818Y-125950D01*
X144483D01*
X145150Y-126617D01*
Y-127949D01*
X144483Y-128616D01*
X145150Y-129949D02*
Y-131282D01*
Y-130615D01*
X141151D01*
X141818Y-129949D01*
X145150Y-135280D02*
X141151D01*
X143151Y-133281D01*
Y-135947D01*
X220508Y-114278D02*
X221175Y-114944D01*
Y-116277D01*
X220508Y-116944D01*
X217842D01*
X217176Y-116277D01*
Y-114944D01*
X217842Y-114278D01*
X217176Y-112945D02*
Y-111612D01*
Y-112278D01*
X221175D01*
X220508Y-112945D01*
Y-109613D02*
X221175Y-108946D01*
Y-107613D01*
X220508Y-106947D01*
X219842D01*
X219175Y-107613D01*
Y-108280D01*
Y-107613D01*
X218509Y-106947D01*
X217842D01*
X217176Y-107613D01*
Y-108946D01*
X217842Y-109613D01*
X199208Y-94378D02*
X199875Y-95044D01*
Y-96377D01*
X199208Y-97044D01*
X196542D01*
X195876Y-96377D01*
Y-95044D01*
X196542Y-94378D01*
X195876Y-93045D02*
Y-91712D01*
Y-92378D01*
X199875D01*
X199208Y-93045D01*
X195876Y-87047D02*
Y-89713D01*
X198542Y-87047D01*
X199208D01*
X199875Y-87713D01*
Y-89046D01*
X199208Y-89713D01*
X84384Y-16118D02*
X85051Y-15451D01*
X86384D01*
X87050Y-16118D01*
Y-18783D01*
X86384Y-19450D01*
X85051D01*
X84384Y-18783D01*
X83051Y-16118D02*
X82385Y-15451D01*
X81052D01*
X80386Y-16118D01*
Y-16784D01*
X81052Y-17451D01*
X81718D01*
X81052D01*
X80386Y-18117D01*
Y-18783D01*
X81052Y-19450D01*
X82385D01*
X83051Y-18783D01*
X79053Y-16118D02*
X78386Y-15451D01*
X77053D01*
X76387Y-16118D01*
Y-16784D01*
X77053Y-17451D01*
X77720D01*
X77053D01*
X76387Y-18117D01*
Y-18783D01*
X77053Y-19450D01*
X78386D01*
X79053Y-18783D01*
X83149Y-51016D02*
X82483Y-50349D01*
Y-49016D01*
X83149Y-48350D01*
X85815D01*
X86481Y-49016D01*
Y-50349D01*
X85815Y-51016D01*
X83149Y-52349D02*
X82483Y-53015D01*
Y-54348D01*
X83149Y-55014D01*
X83816D01*
X84482Y-54348D01*
Y-53682D01*
Y-54348D01*
X85149Y-55014D01*
X85815D01*
X86481Y-54348D01*
Y-53015D01*
X85815Y-52349D01*
X86481Y-59013D02*
Y-56347D01*
X83816Y-59013D01*
X83149D01*
X82483Y-58347D01*
Y-57014D01*
X83149Y-56347D01*
X83344Y-31796D02*
X82677Y-31129D01*
Y-29796D01*
X83344Y-29130D01*
X86010D01*
X86676Y-29796D01*
Y-31129D01*
X86010Y-31796D01*
X83344Y-33129D02*
X82677Y-33795D01*
Y-35128D01*
X83344Y-35794D01*
X84010D01*
X84677Y-35128D01*
Y-34462D01*
Y-35128D01*
X85343Y-35794D01*
X86010D01*
X86676Y-35128D01*
Y-33795D01*
X86010Y-33129D01*
X86676Y-37127D02*
Y-38460D01*
Y-37794D01*
X82677D01*
X83344Y-37127D01*
X198244Y-144009D02*
X197577Y-143343D01*
Y-142010D01*
X198244Y-141344D01*
X200909D01*
X201576Y-142010D01*
Y-143343D01*
X200909Y-144009D01*
X197577Y-148008D02*
Y-145342D01*
X199577D01*
X198910Y-146675D01*
Y-147342D01*
X199577Y-148008D01*
X200909D01*
X201576Y-147342D01*
Y-146009D01*
X200909Y-145342D01*
X106403Y-35224D02*
X107069Y-35891D01*
Y-37224D01*
X106403Y-37890D01*
X103737D01*
X103070Y-37224D01*
Y-35891D01*
X103737Y-35224D01*
X106403Y-33891D02*
X107069Y-33225D01*
Y-31892D01*
X106403Y-31225D01*
X105736D01*
X105070Y-31892D01*
Y-32558D01*
Y-31892D01*
X104403Y-31225D01*
X103737D01*
X103070Y-31892D01*
Y-33225D01*
X103737Y-33891D01*
X106403Y-29893D02*
X107069Y-29226D01*
Y-27893D01*
X106403Y-27227D01*
X103737D01*
X103070Y-27893D01*
Y-29226D01*
X103737Y-29893D01*
X106403D01*
X86816Y-50882D02*
X86149Y-51549D01*
X84816D01*
X84150Y-50882D01*
Y-48216D01*
X84816Y-47550D01*
X86149D01*
X86816Y-48216D01*
X90815Y-47550D02*
X88149D01*
X90815Y-50216D01*
Y-50882D01*
X90148Y-51549D01*
X88815D01*
X88149Y-50882D01*
X92147Y-48216D02*
X92814Y-47550D01*
X94147D01*
X94813Y-48216D01*
Y-50882D01*
X94147Y-51549D01*
X92814D01*
X92147Y-50882D01*
Y-50216D01*
X92814Y-49549D01*
X94813D01*
X35944Y-46916D02*
X35277Y-46249D01*
Y-44916D01*
X35944Y-44250D01*
X38609D01*
X39276Y-44916D01*
Y-46249D01*
X38609Y-46916D01*
X39276Y-50915D02*
Y-48249D01*
X36610Y-50915D01*
X35944D01*
X35277Y-50248D01*
Y-48915D01*
X35944Y-48249D01*
Y-52247D02*
X35277Y-52914D01*
Y-54247D01*
X35944Y-54913D01*
X36610D01*
X37277Y-54247D01*
X37943Y-54913D01*
X38609D01*
X39276Y-54247D01*
Y-52914D01*
X38609Y-52247D01*
X37943D01*
X37277Y-52914D01*
X36610Y-52247D01*
X35944D01*
X37277Y-52914D02*
Y-54247D01*
X51644Y-64916D02*
X50977Y-64249D01*
Y-62916D01*
X51644Y-62250D01*
X54309D01*
X54976Y-62916D01*
Y-64249D01*
X54309Y-64916D01*
X54976Y-68915D02*
Y-66249D01*
X52310Y-68915D01*
X51644D01*
X50977Y-68248D01*
Y-66915D01*
X51644Y-66249D01*
X54976Y-72247D02*
X50977D01*
X52977Y-70247D01*
Y-72913D01*
X197944Y-128809D02*
X197277Y-128143D01*
Y-126810D01*
X197944Y-126144D01*
X200609D01*
X201276Y-126810D01*
Y-128143D01*
X200609Y-128809D01*
X201276Y-132142D02*
X197277D01*
X199277Y-130142D01*
Y-132808D01*
X63410Y-9818D02*
X64077Y-9151D01*
X65409D01*
X66076Y-9818D01*
Y-12483D01*
X65409Y-13150D01*
X64077D01*
X63410Y-12483D01*
X59412Y-13150D02*
X62077D01*
X59412Y-10484D01*
Y-9818D01*
X60078Y-9151D01*
X61411D01*
X62077Y-9818D01*
X58079D02*
X57412Y-9151D01*
X56079D01*
X55413Y-9818D01*
Y-10484D01*
X56079Y-11151D01*
X56746D01*
X56079D01*
X55413Y-11817D01*
Y-12483D01*
X56079Y-13150D01*
X57412D01*
X58079Y-12483D01*
X46042Y-41782D02*
X45375Y-42449D01*
X44042D01*
X43376Y-41782D01*
Y-39116D01*
X44042Y-38450D01*
X45375D01*
X46042Y-39116D01*
X50041Y-38450D02*
X47375D01*
X50041Y-41116D01*
Y-41782D01*
X49374Y-42449D01*
X48041D01*
X47375Y-41782D01*
X54039Y-38450D02*
X51373D01*
X54039Y-41116D01*
Y-41782D01*
X53373Y-42449D01*
X52040D01*
X51373Y-41782D01*
X160310Y-125511D02*
X160977Y-124845D01*
X162310D01*
X162976Y-125511D01*
Y-128177D01*
X162310Y-128844D01*
X160977D01*
X160310Y-128177D01*
X158977Y-128844D02*
X157644D01*
X158311D01*
Y-124845D01*
X158977Y-125511D01*
X155645D02*
X154979Y-124845D01*
X153646D01*
X152979Y-125511D01*
Y-126178D01*
X153646Y-126844D01*
X152979Y-127511D01*
Y-128177D01*
X153646Y-128844D01*
X154979D01*
X155645Y-128177D01*
Y-127511D01*
X154979Y-126844D01*
X155645Y-126178D01*
Y-125511D01*
X154979Y-126844D02*
X153646D01*
X0Y-157480D02*
Y0D01*
Y-157480D02*
X318898D01*
Y0D01*
X0D02*
X318898D01*
D69*
X74510Y-31200D02*
G03*
X74510Y-31200I-492J0D01*
G01*
X181526Y-129594D02*
G03*
X181526Y-129594I-492J0D01*
G01*
M02*
