%FSLAX25Y25*%
%MOIN*%
G70*
G01*
G75*
G04 Layer_Physical_Order=1*
G04 Layer_Color=255*
%ADD10R,0.10630X0.03937*%
%ADD11R,0.02126X0.03543*%
%ADD12R,0.06299X0.01969*%
%ADD13R,0.07874X0.14410*%
%ADD14R,0.09843X0.14410*%
%ADD15R,0.25590X0.07559*%
%ADD16R,0.03543X0.02126*%
%ADD17R,0.01969X0.06299*%
%ADD18R,0.14410X0.07874*%
%ADD19R,0.14410X0.09843*%
%ADD20R,0.48504X0.15354*%
%ADD21C,0.00800*%
%ADD22R,0.19863X0.06977*%
%ADD23R,0.06180X0.93198*%
%ADD24R,0.45000X0.11900*%
%ADD25R,0.14563X0.09851*%
%ADD26R,0.30545X0.09475*%
%ADD27R,0.84414X0.11700*%
%ADD28R,0.46600X0.09300*%
%ADD29R,0.07500X0.15800*%
%ADD30R,0.07871X0.17200*%
%ADD31C,0.00500*%
%ADD32O,0.11811X0.09843*%
%ADD33R,0.11811X0.09843*%
%ADD34C,0.04000*%
%ADD35C,0.03000*%
%ADD36C,0.02000*%
%ADD37C,0.05000*%
G36*
X230200Y-92500D02*
X232500Y-94300D01*
Y-100000D01*
X218500D01*
Y-94100D01*
X137700Y-94200D01*
X137600Y-94100D01*
Y-65600D01*
X139600Y-63600D01*
X230200D01*
Y-92500D01*
D02*
G37*
G36*
X118000Y-80400D02*
Y-114700D01*
X117700Y-115000D01*
X110600D01*
X109700Y-115900D01*
Y-126100D01*
X109100Y-126700D01*
X96600D01*
Y-117600D01*
X99100Y-115100D01*
Y-90200D01*
X99200Y-90100D01*
X98600Y-89500D01*
X90400D01*
X89600Y-88700D01*
Y-80200D01*
X90200Y-79600D01*
X117200D01*
X118000Y-80400D01*
D02*
G37*
G36*
X7700Y-12800D02*
X35600D01*
X44000Y-21200D01*
Y-40800D01*
X57000Y-53800D01*
X118000D01*
X119900Y-55700D01*
Y-68600D01*
X31300D01*
Y-50300D01*
X27800Y-46800D01*
X5400D01*
X3600Y-45000D01*
Y-16500D01*
X7500Y-12600D01*
X7700Y-12800D01*
D02*
G37*
G36*
X137014Y-2225D02*
X136687Y-2715D01*
X136571Y-3300D01*
Y-40500D01*
X136687Y-41085D01*
X137019Y-41581D01*
X137515Y-41913D01*
X138100Y-42029D01*
X281266D01*
X283171Y-43933D01*
Y-71800D01*
X283287Y-72385D01*
X283619Y-72881D01*
X288719Y-77981D01*
X289215Y-78313D01*
X289800Y-78429D01*
X295054D01*
X295246Y-78891D01*
X293419Y-80719D01*
X293087Y-81215D01*
X292971Y-81800D01*
Y-94291D01*
X287991Y-99271D01*
X242300D01*
X241715Y-99387D01*
X241219Y-99719D01*
X239067Y-101871D01*
X233262D01*
X233116Y-101392D01*
X233396Y-101206D01*
X233551D01*
Y-101102D01*
X233581Y-101081D01*
X233913Y-100585D01*
X234029Y-100000D01*
Y-94300D01*
X234011Y-94208D01*
X234018Y-94115D01*
X233953Y-93918D01*
X233913Y-93715D01*
X233861Y-93637D01*
X233832Y-93548D01*
X233697Y-93391D01*
X233581Y-93219D01*
X233504Y-93167D01*
X233443Y-93096D01*
X231729Y-91755D01*
Y-87404D01*
X231914Y-87219D01*
X232083Y-87219D01*
X232083Y-87219D01*
Y-87219D01*
X234686D01*
Y-84655D01*
X235185D01*
Y-84156D01*
X238457D01*
Y-82219D01*
Y-80156D01*
X235185D01*
Y-79156D01*
X238457D01*
Y-77219D01*
Y-75156D01*
X235185D01*
Y-74156D01*
X238457D01*
Y-72219D01*
Y-71925D01*
X238898Y-71689D01*
X239381Y-72011D01*
X240356Y-72205D01*
X241331Y-72011D01*
X242158Y-71458D01*
X242711Y-70631D01*
X242905Y-69656D01*
X242711Y-68680D01*
X242158Y-67853D01*
X241331Y-67301D01*
X240356Y-67107D01*
X239381Y-67301D01*
X238898Y-67623D01*
X238457Y-67387D01*
Y-67093D01*
X232083D01*
X232083Y-67093D01*
Y-67093D01*
X231914Y-67093D01*
X231729Y-66908D01*
Y-63600D01*
X231613Y-63015D01*
X231281Y-62519D01*
X230785Y-62187D01*
X230200Y-62071D01*
X139600D01*
X139015Y-62187D01*
X138519Y-62519D01*
X136519Y-64519D01*
X136187Y-65015D01*
X136071Y-65600D01*
Y-94100D01*
X136187Y-94685D01*
X136519Y-95181D01*
X136619Y-95281D01*
X136619Y-95282D01*
X136620Y-95283D01*
X136867Y-95447D01*
X137115Y-95613D01*
X137116Y-95613D01*
X137117Y-95614D01*
X137408Y-95671D01*
X137700Y-95729D01*
X137701Y-95729D01*
X137702Y-95729D01*
X205078Y-95646D01*
X205128Y-96144D01*
X205125Y-96144D01*
X204496Y-96564D01*
X201015Y-100045D01*
X200595Y-100674D01*
X200448Y-101415D01*
Y-121814D01*
X200204Y-122179D01*
X199714Y-122082D01*
X199590Y-121459D01*
X199170Y-120830D01*
X198437Y-120098D01*
Y-106901D01*
X198855Y-106275D01*
X199049Y-105300D01*
X198855Y-104324D01*
X198302Y-103498D01*
X197476Y-102945D01*
X196500Y-102751D01*
X195525Y-102945D01*
X194698Y-103498D01*
X194145Y-104324D01*
X193951Y-105300D01*
X194145Y-106275D01*
X194563Y-106901D01*
Y-120900D01*
X194710Y-121641D01*
X195130Y-122270D01*
X195863Y-123002D01*
Y-123783D01*
X195445Y-124408D01*
X195251Y-125383D01*
X195445Y-126359D01*
X195998Y-127186D01*
X196825Y-127738D01*
X197800Y-127932D01*
X198775Y-127738D01*
X199602Y-127186D01*
X200155Y-126359D01*
X200318Y-125540D01*
X200780Y-125349D01*
X201410Y-125770D01*
X202385Y-125964D01*
X203361Y-125770D01*
X204187Y-125217D01*
X204740Y-124390D01*
X204934Y-123415D01*
X204740Y-122440D01*
X204322Y-121814D01*
Y-102217D01*
X206669Y-99871D01*
X213425D01*
Y-101206D01*
X217604D01*
X217884Y-101392D01*
X217738Y-101871D01*
X213100D01*
X212612Y-101968D01*
X212515Y-101987D01*
X212019Y-102319D01*
X210219Y-104119D01*
X209887Y-104615D01*
X209771Y-105200D01*
Y-130271D01*
X116033D01*
X114481Y-128719D01*
X113985Y-128387D01*
X113400Y-128271D01*
X110451D01*
Y-128271D01*
Y-128012D01*
X110451Y-127917D01*
X110451Y-127917D01*
X110451D01*
Y-127512D01*
X110781Y-127181D01*
X111113Y-126685D01*
X111229Y-126100D01*
Y-116534D01*
X111233Y-116529D01*
X117700D01*
X118188Y-116432D01*
X118285Y-116413D01*
X118781Y-116081D01*
X119081Y-115781D01*
X119413Y-115285D01*
X119529Y-114700D01*
Y-84214D01*
X119761Y-84144D01*
X120163Y-84442D01*
Y-122950D01*
X119645Y-123724D01*
X119451Y-124700D01*
X119645Y-125675D01*
X120198Y-126502D01*
X121025Y-127055D01*
X122000Y-127249D01*
X122976Y-127055D01*
X123802Y-126502D01*
X124355Y-125675D01*
X124549Y-124700D01*
X124355Y-123724D01*
X124037Y-123249D01*
Y-84301D01*
X124455Y-83675D01*
X124649Y-82700D01*
X124455Y-81725D01*
X123902Y-80898D01*
X123075Y-80345D01*
X122100Y-80151D01*
X121124Y-80345D01*
X120298Y-80898D01*
X120008Y-81331D01*
X119529Y-81186D01*
Y-80400D01*
X119413Y-79815D01*
X119081Y-79319D01*
X118281Y-78519D01*
X117785Y-78187D01*
X117200Y-78071D01*
X90200D01*
X89615Y-78187D01*
X89119Y-78519D01*
X88519Y-79119D01*
X88187Y-79615D01*
X88071Y-80200D01*
Y-88700D01*
X88187Y-89285D01*
X88519Y-89781D01*
X89319Y-90581D01*
X89815Y-90913D01*
X90400Y-91029D01*
X97571D01*
Y-114117D01*
X97155Y-114394D01*
X97038Y-114346D01*
Y-110401D01*
Y-108338D01*
X90495D01*
Y-110401D01*
Y-110901D01*
X55940D01*
X54237Y-109198D01*
Y-80964D01*
X59426D01*
Y-77496D01*
Y-74027D01*
X54755D01*
X54655Y-73524D01*
X54102Y-72698D01*
X53276Y-72145D01*
X52300Y-71951D01*
X51324Y-72145D01*
X50498Y-72698D01*
X49945Y-73524D01*
X49845Y-74027D01*
X44926D01*
Y-77496D01*
Y-80964D01*
X50363D01*
Y-110000D01*
X50363Y-110000D01*
X50363D01*
X50510Y-110741D01*
X50930Y-111370D01*
X53768Y-114208D01*
X54396Y-114628D01*
X55138Y-114775D01*
X90495D01*
Y-115401D01*
X95983D01*
X96174Y-115863D01*
X95519Y-116519D01*
X95187Y-117015D01*
X95071Y-117600D01*
Y-118730D01*
X94630Y-118966D01*
X93925Y-118495D01*
X92950Y-118301D01*
X91975Y-118495D01*
X91148Y-119048D01*
X90595Y-119875D01*
X90401Y-120850D01*
X90485Y-121274D01*
X90325Y-121468D01*
X90325D01*
Y-128012D01*
X90325D01*
X90300Y-128171D01*
X89812Y-128268D01*
X89715Y-128287D01*
X89219Y-128619D01*
X88119Y-129719D01*
X87787Y-130215D01*
X87671Y-130800D01*
Y-139713D01*
X87619Y-139771D01*
X44300D01*
X43715Y-139887D01*
X43219Y-140219D01*
X42419Y-141019D01*
X42087Y-141515D01*
X41971Y-142100D01*
Y-151000D01*
X42087Y-151585D01*
X42419Y-152081D01*
X42619Y-152281D01*
X43115Y-152613D01*
X43700Y-152729D01*
X175449D01*
X175498Y-152802D01*
X176324Y-153355D01*
X177300Y-153549D01*
X178276Y-153355D01*
X179102Y-152802D01*
X179151Y-152729D01*
X210797D01*
X211300Y-152829D01*
X304726D01*
X305311Y-152713D01*
X305807Y-152381D01*
X316651Y-141537D01*
X317113Y-141729D01*
Y-155696D01*
X1784D01*
Y-45844D01*
X2263Y-45699D01*
X2519Y-46082D01*
X4319Y-47881D01*
X4815Y-48213D01*
X5400Y-48329D01*
X27167D01*
X29771Y-50933D01*
Y-68600D01*
X29887Y-69185D01*
X30219Y-69681D01*
X30715Y-70013D01*
X31300Y-70129D01*
X89031D01*
Y-70203D01*
X117621D01*
Y-70129D01*
X119900D01*
X120485Y-70013D01*
X120981Y-69681D01*
X121313Y-69185D01*
X121429Y-68600D01*
Y-55700D01*
X121313Y-55115D01*
X120981Y-54619D01*
X119081Y-52719D01*
X118585Y-52387D01*
X118000Y-52271D01*
X57634D01*
X56954Y-51591D01*
X57002Y-51102D01*
X57555Y-50275D01*
X57749Y-49300D01*
X57555Y-48324D01*
X57137Y-47699D01*
Y-45900D01*
X56990Y-45159D01*
X56570Y-44530D01*
X52737Y-40698D01*
Y-38637D01*
X53216Y-38492D01*
X53676Y-39181D01*
X54503Y-39734D01*
X55479Y-39928D01*
X56454Y-39734D01*
X57079Y-39316D01*
X108178D01*
X108803Y-39734D01*
X109779Y-39928D01*
X110754Y-39734D01*
X111581Y-39181D01*
X112134Y-38354D01*
X112328Y-37379D01*
X112134Y-36403D01*
X111581Y-35576D01*
X110754Y-35024D01*
X109779Y-34830D01*
X108803Y-35024D01*
X108178Y-35441D01*
X57079D01*
X56454Y-35024D01*
X55717Y-34877D01*
X55702Y-34802D01*
X56255Y-33975D01*
X56449Y-33000D01*
X56255Y-32024D01*
X55702Y-31198D01*
X54875Y-30645D01*
X53900Y-30451D01*
X52925Y-30645D01*
X52299Y-31063D01*
X51600D01*
X50859Y-31210D01*
X50230Y-31630D01*
X49430Y-32430D01*
X49010Y-33059D01*
X48863Y-33800D01*
Y-41500D01*
X48863Y-41500D01*
X48863D01*
X49010Y-42241D01*
X49430Y-42870D01*
X53263Y-46702D01*
Y-47247D01*
X52801Y-47438D01*
X45529Y-40167D01*
Y-21200D01*
X45432Y-20712D01*
X45413Y-20615D01*
X45081Y-20119D01*
X36681Y-11719D01*
X36185Y-11387D01*
X35600Y-11271D01*
X8210D01*
X8085Y-11187D01*
X7500Y-11071D01*
X6915Y-11187D01*
X6419Y-11519D01*
X2519Y-15419D01*
X2263Y-15801D01*
X1784Y-15656D01*
Y-1784D01*
X136778D01*
X137014Y-2225D01*
D02*
G37*
G36*
X317126Y-138900D02*
X304726Y-151300D01*
X211300D01*
Y-151200D01*
X43700D01*
X43500Y-151000D01*
Y-142100D01*
X44300Y-141300D01*
X88300D01*
X89200Y-140300D01*
Y-130800D01*
X90300Y-129700D01*
X90400Y-129800D01*
X113400D01*
X115400Y-131800D01*
X211300D01*
Y-105200D01*
X213100Y-103400D01*
X239700D01*
X242300Y-100800D01*
X288624D01*
X294500Y-94924D01*
Y-81800D01*
X296500Y-79800D01*
X317126D01*
Y-138900D01*
D02*
G37*
G36*
X317500Y-5600D02*
Y-73900D01*
X314500Y-76900D01*
X289800D01*
X284700Y-71800D01*
Y-43300D01*
X281900Y-40500D01*
X138100D01*
Y-3300D01*
X139800Y-1600D01*
X313500D01*
X317500Y-5600D01*
D02*
G37*
%LPC*%
G36*
X97038Y-98338D02*
X90495D01*
Y-100401D01*
Y-102338D01*
X97038D01*
Y-100401D01*
Y-98338D01*
D02*
G37*
G36*
X13673Y-102626D02*
X6786D01*
X6861Y-103385D01*
X7228Y-104595D01*
X7824Y-105711D01*
X8626Y-106689D01*
X9604Y-107491D01*
X10720Y-108087D01*
X11930Y-108455D01*
X13189Y-108579D01*
X13673D01*
Y-102626D01*
D02*
G37*
G36*
X21561D02*
X14673D01*
Y-108579D01*
X15157D01*
X16416Y-108455D01*
X17627Y-108087D01*
X18742Y-107491D01*
X19720Y-106689D01*
X20522Y-105711D01*
X21119Y-104595D01*
X21486Y-103385D01*
X21561Y-102626D01*
D02*
G37*
G36*
X97038Y-103338D02*
X90495D01*
Y-105401D01*
Y-107338D01*
X97038D01*
Y-105401D01*
Y-103338D01*
D02*
G37*
G36*
X13673Y-95674D02*
X13189D01*
X11930Y-95798D01*
X10720Y-96165D01*
X9604Y-96761D01*
X8626Y-97564D01*
X7824Y-98541D01*
X7228Y-99657D01*
X6861Y-100867D01*
X6786Y-101626D01*
X13673D01*
Y-95674D01*
D02*
G37*
G36*
X93266Y-95275D02*
X90495D01*
Y-97338D01*
X93266D01*
Y-95275D01*
D02*
G37*
G36*
X283541Y-94998D02*
X277226D01*
Y-97967D01*
X283541D01*
Y-94998D01*
D02*
G37*
G36*
X248226Y-91030D02*
X241911D01*
Y-93998D01*
X248226D01*
Y-91030D01*
D02*
G37*
G36*
X97038Y-95275D02*
X94266D01*
Y-97338D01*
X97038D01*
Y-95275D01*
D02*
G37*
G36*
X255541Y-91030D02*
Y-91030D01*
X249226D01*
Y-94499D01*
Y-97967D01*
X255541D01*
Y-97967D01*
X255541D01*
X255541Y-97967D01*
X255911D01*
Y-97967D01*
X262226D01*
Y-94499D01*
Y-91030D01*
X255911D01*
D01*
D01*
X255911Y-91030D01*
X255541D01*
D02*
G37*
G36*
X15157Y-95674D02*
X14673D01*
Y-101626D01*
X21561D01*
X21486Y-100867D01*
X21119Y-99657D01*
X20522Y-98541D01*
X19720Y-97564D01*
X18742Y-96761D01*
X17627Y-96165D01*
X16416Y-95798D01*
X15157Y-95674D01*
D02*
G37*
G36*
X248226Y-94998D02*
X241911D01*
Y-97967D01*
X248226D01*
Y-94998D01*
D02*
G37*
G36*
X269911Y-91030D02*
X269624Y-91030D01*
X269541D01*
Y-91030D01*
X269541D01*
X269541D01*
X263226D01*
Y-94499D01*
Y-97967D01*
X269541D01*
Y-97967D01*
X269541D01*
X269541Y-97967D01*
X269911D01*
Y-97967D01*
X276226D01*
Y-94499D01*
Y-91030D01*
X269911D01*
Y-91030D01*
D02*
G37*
G36*
X79326Y-130336D02*
X66726D01*
Y-133806D01*
Y-137273D01*
X79326D01*
Y-133806D01*
Y-130336D01*
D02*
G37*
G36*
X86641Y-134305D02*
X80326D01*
Y-137273D01*
X86641D01*
Y-134305D01*
D02*
G37*
G36*
X52126Y-130336D02*
X45811D01*
Y-133305D01*
X52126D01*
Y-130336D01*
D02*
G37*
G36*
X65726D02*
X53126D01*
Y-133806D01*
Y-137273D01*
X65726D01*
Y-133806D01*
Y-130336D01*
D02*
G37*
G36*
X13673Y-133807D02*
X6786D01*
X6861Y-134566D01*
X7228Y-135777D01*
X7824Y-136892D01*
X8626Y-137870D01*
X9604Y-138672D01*
X10720Y-139269D01*
X11930Y-139636D01*
X13189Y-139760D01*
X13673D01*
Y-133807D01*
D02*
G37*
G36*
X21561D02*
X14673D01*
Y-139760D01*
X15157D01*
X16416Y-139636D01*
X17627Y-139269D01*
X18742Y-138672D01*
X19720Y-137870D01*
X20522Y-136892D01*
X21119Y-135777D01*
X21486Y-134566D01*
X21561Y-133807D01*
D02*
G37*
G36*
X52126Y-134305D02*
X45811D01*
Y-137273D01*
X52126D01*
Y-134305D01*
D02*
G37*
G36*
X21561Y-118217D02*
X14673D01*
Y-124169D01*
X15157D01*
X16416Y-124045D01*
X17627Y-123678D01*
X18742Y-123082D01*
X19720Y-122279D01*
X20522Y-121301D01*
X21119Y-120186D01*
X21486Y-118976D01*
X21561Y-118217D01*
D02*
G37*
G36*
X13673Y-111265D02*
X13189D01*
X11930Y-111389D01*
X10720Y-111756D01*
X9604Y-112352D01*
X8626Y-113154D01*
X7824Y-114132D01*
X7228Y-115248D01*
X6861Y-116458D01*
X6786Y-117217D01*
X13673D01*
Y-111265D01*
D02*
G37*
G36*
X15157D02*
X14673D01*
Y-117217D01*
X21561D01*
X21486Y-116458D01*
X21119Y-115248D01*
X20522Y-114132D01*
X19720Y-113154D01*
X18742Y-112352D01*
X17627Y-111756D01*
X16416Y-111389D01*
X15157Y-111265D01*
D02*
G37*
G36*
X13673Y-118217D02*
X6786D01*
X6861Y-118976D01*
X7228Y-120186D01*
X7824Y-121301D01*
X8626Y-122279D01*
X9604Y-123082D01*
X10720Y-123678D01*
X11930Y-124045D01*
X13189Y-124169D01*
X13673D01*
Y-118217D01*
D02*
G37*
G36*
X86641Y-130336D02*
X80326D01*
Y-133305D01*
X86641D01*
Y-130336D01*
D02*
G37*
G36*
X13673Y-126855D02*
X13189D01*
X11930Y-126979D01*
X10720Y-127346D01*
X9604Y-127943D01*
X8626Y-128745D01*
X7824Y-129723D01*
X7228Y-130838D01*
X6861Y-132049D01*
X6786Y-132807D01*
X13673D01*
Y-126855D01*
D02*
G37*
G36*
X15157D02*
X14673D01*
Y-132807D01*
X21561D01*
X21486Y-132049D01*
X21119Y-130838D01*
X20522Y-129723D01*
X19720Y-128745D01*
X18742Y-127943D01*
X17627Y-127346D01*
X16416Y-126979D01*
X15157Y-126855D01*
D02*
G37*
G36*
X283541Y-91030D02*
X277226D01*
Y-93998D01*
X283541D01*
Y-91030D01*
D02*
G37*
G36*
X13673Y-48902D02*
X13189D01*
X11930Y-49026D01*
X10720Y-49393D01*
X9604Y-49990D01*
X8626Y-50792D01*
X7824Y-51770D01*
X7228Y-52885D01*
X6861Y-54096D01*
X6786Y-54854D01*
X13673D01*
Y-48902D01*
D02*
G37*
G36*
X15157D02*
X14673D01*
Y-54854D01*
X21561D01*
X21486Y-54096D01*
X21119Y-52885D01*
X20522Y-51770D01*
X19720Y-50792D01*
X18742Y-49990D01*
X17627Y-49393D01*
X16416Y-49026D01*
X15157Y-48902D01*
D02*
G37*
G36*
X205826Y-50389D02*
X199511D01*
Y-53357D01*
X205826D01*
Y-50389D01*
D02*
G37*
G36*
X21561Y-55854D02*
X14673D01*
Y-61807D01*
X15157D01*
X16416Y-61683D01*
X17627Y-61316D01*
X18742Y-60719D01*
X19720Y-59917D01*
X20522Y-58939D01*
X21119Y-57824D01*
X21486Y-56613D01*
X21561Y-55854D01*
D02*
G37*
G36*
X13673Y-64493D02*
X13189D01*
X11930Y-64617D01*
X10720Y-64984D01*
X9604Y-65580D01*
X8626Y-66382D01*
X7824Y-67360D01*
X7228Y-68476D01*
X6861Y-69686D01*
X6786Y-70445D01*
X13673D01*
Y-64493D01*
D02*
G37*
G36*
X15157D02*
X14673D01*
Y-70445D01*
X21561D01*
X21486Y-69686D01*
X21119Y-68476D01*
X20522Y-67360D01*
X19720Y-66382D01*
X18742Y-65580D01*
X17627Y-64984D01*
X16416Y-64617D01*
X15157Y-64493D01*
D02*
G37*
G36*
X13673Y-55854D02*
X6786D01*
X6861Y-56613D01*
X7228Y-57824D01*
X7824Y-58939D01*
X8626Y-59917D01*
X9604Y-60719D01*
X10720Y-61316D01*
X11930Y-61683D01*
X13189Y-61807D01*
X13673D01*
Y-55854D01*
D02*
G37*
G36*
X282141Y-50389D02*
X275826D01*
Y-53357D01*
X282141D01*
Y-50389D01*
D02*
G37*
G36*
X241094Y-46420D02*
Y-46420D01*
X240911Y-46420D01*
X240826D01*
X240741D01*
X240558Y-46420D01*
X240558Y-46420D01*
Y-46420D01*
X234426D01*
Y-49890D01*
Y-53357D01*
X240741D01*
Y-53357D01*
X240911D01*
X241094Y-53357D01*
X241094Y-53357D01*
Y-53357D01*
X247226D01*
Y-49890D01*
Y-46420D01*
X241094D01*
X241094Y-46420D01*
D02*
G37*
G36*
X254894D02*
Y-46420D01*
X254711Y-46420D01*
X254626D01*
X254541D01*
X254358Y-46420D01*
X254358Y-46420D01*
Y-46420D01*
X248226D01*
Y-49890D01*
Y-53357D01*
X254541D01*
Y-53357D01*
X254711D01*
X254894Y-53357D01*
X254894Y-53357D01*
Y-53357D01*
X261026D01*
Y-49890D01*
Y-46420D01*
X254894D01*
X254894Y-46420D01*
D02*
G37*
G36*
X268694D02*
Y-46420D01*
X268511Y-46420D01*
X268426D01*
X268341D01*
X268158Y-46420D01*
X268158Y-46420D01*
Y-46420D01*
X262026D01*
Y-49890D01*
Y-53357D01*
X268341D01*
Y-53357D01*
X268511D01*
X268694Y-53357D01*
X268694Y-53357D01*
Y-53357D01*
X274826D01*
Y-49890D01*
Y-46420D01*
X268694D01*
X268694Y-46420D01*
D02*
G37*
G36*
X227294D02*
Y-46420D01*
X227111Y-46420D01*
X227026D01*
X226941D01*
X226758Y-46420D01*
X226758Y-46420D01*
Y-46420D01*
X220626D01*
Y-49890D01*
Y-53357D01*
X226941D01*
Y-53357D01*
X227111D01*
X227294Y-53357D01*
X227294Y-53357D01*
Y-53357D01*
X233426D01*
Y-49890D01*
Y-46420D01*
X227294D01*
X227294Y-46420D01*
D02*
G37*
G36*
X205826Y-46420D02*
X199511D01*
Y-49389D01*
X205826D01*
Y-46420D01*
D02*
G37*
G36*
X282141D02*
X275826D01*
Y-49389D01*
X282141D01*
Y-46420D01*
D02*
G37*
G36*
X213494Y-46420D02*
Y-46420D01*
X213311Y-46420D01*
X213226D01*
X213141D01*
X212958Y-46420D01*
X212958Y-46420D01*
Y-46420D01*
X206826D01*
Y-49890D01*
Y-53357D01*
X213141D01*
Y-53357D01*
X213311D01*
X213494Y-53357D01*
X213494Y-53357D01*
Y-53357D01*
X219626D01*
Y-49890D01*
Y-46420D01*
X213494D01*
X213494Y-46420D01*
D02*
G37*
G36*
X15157Y-80083D02*
X14673D01*
Y-86036D01*
X21561D01*
X21486Y-85277D01*
X21119Y-84066D01*
X20522Y-82951D01*
X19720Y-81973D01*
X18742Y-81171D01*
X17627Y-80575D01*
X16416Y-80207D01*
X15157Y-80083D01*
D02*
G37*
G36*
X43926Y-77995D02*
X37611D01*
Y-80964D01*
X43926D01*
Y-77995D01*
D02*
G37*
G36*
X66741D02*
X60426D01*
Y-80964D01*
X66741D01*
Y-77995D01*
D02*
G37*
G36*
X13673Y-80083D02*
X13189D01*
X11930Y-80207D01*
X10720Y-80575D01*
X9604Y-81171D01*
X8626Y-81973D01*
X7824Y-82951D01*
X7228Y-84066D01*
X6861Y-85277D01*
X6786Y-86036D01*
X13673D01*
Y-80083D01*
D02*
G37*
G36*
Y-87036D02*
X6786D01*
X6861Y-87794D01*
X7228Y-89005D01*
X7824Y-90120D01*
X8626Y-91098D01*
X9604Y-91900D01*
X10720Y-92497D01*
X11930Y-92864D01*
X13189Y-92988D01*
X13673D01*
Y-87036D01*
D02*
G37*
G36*
X21561D02*
X14673D01*
Y-92988D01*
X15157D01*
X16416Y-92864D01*
X17627Y-92497D01*
X18742Y-91900D01*
X19720Y-91098D01*
X20522Y-90120D01*
X21119Y-89005D01*
X21486Y-87794D01*
X21561Y-87036D01*
D02*
G37*
G36*
X238457Y-85156D02*
X235686D01*
Y-87219D01*
X238457D01*
Y-85156D01*
D02*
G37*
G36*
X74926Y-77995D02*
X68611D01*
Y-80964D01*
X74926D01*
Y-77995D01*
D02*
G37*
G36*
X66741Y-74027D02*
X60426D01*
Y-76995D01*
X66741D01*
Y-74027D01*
D02*
G37*
G36*
X74926D02*
X68611D01*
Y-76995D01*
X74926D01*
Y-74027D01*
D02*
G37*
G36*
X82241D02*
X75926D01*
Y-76995D01*
X82241D01*
Y-74027D01*
D02*
G37*
G36*
X43926D02*
X37611D01*
Y-76995D01*
X43926D01*
Y-74027D01*
D02*
G37*
G36*
X82241Y-77995D02*
X75926D01*
Y-80964D01*
X82241D01*
Y-77995D01*
D02*
G37*
G36*
X13673Y-71445D02*
X6786D01*
X6861Y-72204D01*
X7228Y-73414D01*
X7824Y-74530D01*
X8626Y-75507D01*
X9604Y-76310D01*
X10720Y-76906D01*
X11930Y-77273D01*
X13189Y-77397D01*
X13673D01*
Y-71445D01*
D02*
G37*
G36*
X21561D02*
X14673D01*
Y-77397D01*
X15157D01*
X16416Y-77273D01*
X17627Y-76906D01*
X18742Y-76310D01*
X19720Y-75507D01*
X20522Y-74530D01*
X21119Y-73414D01*
X21486Y-72204D01*
X21561Y-71445D01*
D02*
G37*
%LPD*%
D10*
X79826Y-146600D02*
D03*
Y-133805D02*
D03*
X66226Y-146600D02*
D03*
Y-133805D02*
D03*
X52626Y-146600D02*
D03*
Y-133805D02*
D03*
X59926Y-64700D02*
D03*
Y-77495D02*
D03*
X75426Y-64700D02*
D03*
Y-77495D02*
D03*
X44426Y-64700D02*
D03*
Y-77495D02*
D03*
X276726Y-107294D02*
D03*
Y-94498D02*
D03*
X262726Y-107294D02*
D03*
Y-94498D02*
D03*
X248726Y-107294D02*
D03*
Y-94498D02*
D03*
X275326Y-37094D02*
D03*
Y-49889D02*
D03*
X247726Y-37094D02*
D03*
Y-49889D02*
D03*
X261526Y-37094D02*
D03*
Y-49889D02*
D03*
X206326Y-37094D02*
D03*
Y-49889D02*
D03*
X220126Y-37094D02*
D03*
Y-49889D02*
D03*
X233926Y-37094D02*
D03*
Y-49889D02*
D03*
D11*
X97888Y-146778D02*
D03*
X107888D02*
D03*
Y-124740D02*
D03*
X92888Y-146778D02*
D03*
X97888Y-124740D02*
D03*
X92888D02*
D03*
X102888Y-146778D02*
D03*
Y-124740D02*
D03*
X220988Y-119972D02*
D03*
X230988D02*
D03*
Y-97934D02*
D03*
X215988Y-119972D02*
D03*
X220988Y-97934D02*
D03*
X215988D02*
D03*
X225988Y-119972D02*
D03*
Y-97934D02*
D03*
D12*
X108262Y-133992D02*
D03*
X92514D02*
D03*
X231362Y-107186D02*
D03*
X215614D02*
D03*
D13*
X105009Y-138028D02*
D03*
X228109Y-111221D02*
D03*
D14*
X96767Y-138028D02*
D03*
X219867Y-111221D02*
D03*
D15*
X103326Y-64924D02*
D03*
Y-83900D02*
D03*
D16*
X115804Y-107838D02*
D03*
Y-97838D02*
D03*
X93766D02*
D03*
X115804Y-112838D02*
D03*
X93766Y-107838D02*
D03*
Y-112838D02*
D03*
X115804Y-102838D02*
D03*
X93766D02*
D03*
X213148Y-74656D02*
D03*
Y-84656D02*
D03*
X235186D02*
D03*
X213148Y-69656D02*
D03*
X235186Y-74656D02*
D03*
Y-69656D02*
D03*
X213148Y-79656D02*
D03*
X235186D02*
D03*
D17*
X103018Y-97464D02*
D03*
Y-113212D02*
D03*
X225934Y-85030D02*
D03*
Y-69282D02*
D03*
D18*
X107053Y-100716D02*
D03*
X221898Y-81777D02*
D03*
D19*
X107053Y-108959D02*
D03*
X221898Y-73535D02*
D03*
D20*
X164026Y-21087D02*
D03*
Y-85300D02*
D03*
D21*
X50800Y-41500D02*
X55200Y-45900D01*
Y-49300D02*
Y-45900D01*
X52300Y-110000D02*
Y-74500D01*
Y-110000D02*
X55138Y-112838D01*
X93766D01*
X50800Y-33800D02*
X51600Y-33000D01*
X53900D01*
X50800Y-41500D02*
Y-33800D01*
X92900Y-122100D02*
Y-120850D01*
X92888Y-122112D02*
X92900Y-122100D01*
X92888Y-124740D02*
Y-122112D01*
X122000Y-124700D02*
X122100Y-124600D01*
Y-82700D01*
X109779Y-37379D02*
X109800Y-37400D01*
X55479Y-37379D02*
X109779D01*
X202385Y-101415D02*
X205866Y-97934D01*
X215988D01*
X202385Y-123415D02*
Y-101415D01*
X235186Y-69656D02*
X240356D01*
X197800Y-125383D02*
Y-122200D01*
X196500Y-120900D02*
X197800Y-122200D01*
X196500Y-120900D02*
Y-105300D01*
D22*
X15369Y-55258D02*
D03*
Y-70849D02*
D03*
Y-86440D02*
D03*
Y-102030D02*
D03*
Y-117621D02*
D03*
Y-133211D02*
D03*
D23*
X13810Y-95501D02*
D03*
D24*
X64400Y-132950D02*
D03*
D25*
X43081Y-78026D02*
D03*
D26*
X69928Y-78262D02*
D03*
D27*
X239993Y-49150D02*
D03*
D28*
X262700Y-94050D02*
D03*
D29*
X237050Y-81500D02*
D03*
D30*
X93635Y-102300D02*
D03*
D31*
X0Y-157480D02*
Y0D01*
Y-157480D02*
X318898D01*
Y0D01*
X0D02*
X318898D01*
D32*
X304724Y-117717D02*
D03*
Y-102126D02*
D03*
Y-70945D02*
D03*
Y-86535D02*
D03*
Y-24173D02*
D03*
Y-39764D02*
D03*
Y-55354D02*
D03*
X14173Y-102126D02*
D03*
Y-117717D02*
D03*
Y-133307D02*
D03*
Y-70945D02*
D03*
Y-86536D02*
D03*
Y-55354D02*
D03*
Y-39764D02*
D03*
D33*
X304724Y-133307D02*
D03*
X14173Y-24173D02*
D03*
D34*
X124300Y-8300D02*
D03*
Y-14160D02*
D03*
Y-20020D02*
D03*
Y-25880D02*
D03*
Y-31740D02*
D03*
Y-37600D02*
D03*
X44100Y-91200D02*
D03*
Y-97060D02*
D03*
Y-102920D02*
D03*
Y-108780D02*
D03*
Y-114640D02*
D03*
Y-120500D02*
D03*
X35400Y-91000D02*
D03*
Y-96860D02*
D03*
Y-102720D02*
D03*
Y-108580D02*
D03*
Y-114440D02*
D03*
Y-120300D02*
D03*
X142700Y-98000D02*
D03*
Y-103860D02*
D03*
Y-109720D02*
D03*
Y-115580D02*
D03*
Y-121440D02*
D03*
Y-127300D02*
D03*
X132600Y-97800D02*
D03*
Y-103660D02*
D03*
Y-109520D02*
D03*
Y-115380D02*
D03*
Y-121240D02*
D03*
Y-127100D02*
D03*
X85600Y-93600D02*
D03*
X79740D02*
D03*
X73880D02*
D03*
X68020D02*
D03*
X62160D02*
D03*
X56300D02*
D03*
X52400Y-122100D02*
D03*
X58260D02*
D03*
X64120D02*
D03*
X69980D02*
D03*
X75840D02*
D03*
X81700D02*
D03*
X52500Y-127000D02*
D03*
X58360D02*
D03*
X64220D02*
D03*
X70080D02*
D03*
X75940D02*
D03*
X81800D02*
D03*
X56100Y-88800D02*
D03*
X61960D02*
D03*
X67820D02*
D03*
X73680D02*
D03*
X79540D02*
D03*
X85400D02*
D03*
X248500Y-81700D02*
D03*
X254360D02*
D03*
X260220D02*
D03*
X266080D02*
D03*
X271940D02*
D03*
X277800D02*
D03*
X248600Y-86700D02*
D03*
X254460D02*
D03*
X260320D02*
D03*
X266180D02*
D03*
X272040D02*
D03*
X277900D02*
D03*
X247700Y-63300D02*
D03*
X253560D02*
D03*
X259420D02*
D03*
X265280D02*
D03*
X271140D02*
D03*
X277000D02*
D03*
X276800Y-58200D02*
D03*
X270940D02*
D03*
X265080D02*
D03*
X259220D02*
D03*
X253360D02*
D03*
X247500D02*
D03*
D35*
X199500Y-107600D02*
D03*
X47500Y-28400D02*
D03*
X118900Y-41700D02*
D03*
X115800Y-25800D02*
D03*
X106600Y-15900D02*
D03*
X67600Y-46300D02*
D03*
X67426Y-40332D02*
D03*
X187500Y-122500D02*
D03*
X187626Y-115726D02*
D03*
X246800Y-44300D02*
D03*
X242060D02*
D03*
X237320D02*
D03*
X232580D02*
D03*
X227840D02*
D03*
X223100D02*
D03*
X251700Y-44200D02*
D03*
X256440D02*
D03*
X261180D02*
D03*
X265920D02*
D03*
X270660D02*
D03*
X275400D02*
D03*
D36*
X217794Y-136594D02*
D03*
X52300Y-74500D02*
D03*
X177400Y-150000D02*
D03*
X150400Y-37300D02*
D03*
X92100Y-81700D02*
D03*
X55200Y-49300D02*
D03*
X53900Y-33000D02*
D03*
X92950Y-120850D02*
D03*
X122000Y-124700D02*
D03*
X122100Y-82700D02*
D03*
X109779Y-37379D02*
D03*
X55479D02*
D03*
X45700Y-146800D02*
D03*
X113100Y-55600D02*
D03*
X202385Y-123415D02*
D03*
X240356Y-69656D02*
D03*
X197800Y-125383D02*
D03*
X196526Y-92526D02*
D03*
X196500Y-105300D02*
D03*
D37*
X287500Y-31200D02*
D03*
X287300Y-23500D02*
D03*
X205300Y-4400D02*
D03*
X194600D02*
D03*
X184100Y-4500D02*
D03*
X174200Y-4400D02*
D03*
X164200D02*
D03*
X154200D02*
D03*
X144000Y-4600D02*
D03*
X123700Y-144200D02*
D03*
X123400Y-136500D02*
D03*
X116000Y-144500D02*
D03*
X115900Y-136200D02*
D03*
X100500Y-141700D02*
D03*
Y-134800D02*
D03*
X107053Y-108959D02*
D03*
Y-100716D02*
D03*
X104800Y-57800D02*
D03*
X75000Y-58400D02*
D03*
X43800Y-57300D02*
D03*
X277200Y-30800D02*
D03*
X266933D02*
D03*
X256667D02*
D03*
X246400D02*
D03*
X236133D02*
D03*
X225867D02*
D03*
X215600D02*
D03*
X215400Y-23300D02*
D03*
X225667D02*
D03*
X235933D02*
D03*
X246200D02*
D03*
X256467D02*
D03*
X266733D02*
D03*
X277000D02*
D03*
X217400Y-74600D02*
D03*
X225500Y-74700D02*
D03*
Y-82100D02*
D03*
X217400Y-82000D02*
D03*
X218800Y-107700D02*
D03*
X226900Y-107800D02*
D03*
Y-115200D02*
D03*
X218800Y-115100D02*
D03*
X289300Y-121600D02*
D03*
X279033D02*
D03*
X268767D02*
D03*
X258500D02*
D03*
X248233D02*
D03*
X237967D02*
D03*
X289400Y-114400D02*
D03*
X279133D02*
D03*
X268867D02*
D03*
X258600D02*
D03*
X248333D02*
D03*
X238067D02*
D03*
X298700Y-146200D02*
D03*
X288433D02*
D03*
X278167D02*
D03*
X267900D02*
D03*
X257633D02*
D03*
X247367D02*
D03*
X237100D02*
D03*
X205600Y-11800D02*
D03*
X195333D02*
D03*
X185067D02*
D03*
X174800D02*
D03*
X164533D02*
D03*
X154267D02*
D03*
X144000D02*
D03*
M02*
