M48
;Layer_Color=9474304
;FILE_FORMAT=2:5
INCH,LZ
;TYPE=PLATED
T1F00S00C0.01200
T2F00S00C0.02000
T3F00S00C0.02500
T4F00S00C0.03500
T5F00S00C0.07283
%
T01
X01774Y-015
X01978Y-0125383
X0202385Y-0123415
X01965Y-01053
X0196526Y-0092526
X0217794Y-0136594
X0122Y-01247
X009295Y-012085
X00921Y-00817
X01221Y-00827
X00457Y-01468
X00523Y-00745
X00552Y-00493
X0055479Y-0037379
X00539Y-0033
X0109779Y-0037379
X01131Y-00556
X01504Y-00373
X0240356Y-0069656
T02
X01875Y-01225
X0187626Y-0115726
X01995Y-01076
X01189Y-00417
X01158Y-00258
X01066Y-00159
X0067426Y-0040332
X00676Y-00463
X00475Y-00284
X02231Y-00443
X022784
X023258
X023732
X024206
X02468
X02517Y-00442
X025644
X026118
X026592
X027066
X02754
T03
X01427Y-01273
Y-012144
Y-011558
Y-010972
Y-010386
Y-0098
X02486Y-00867
X02485Y-00817
X025436
X025446Y-00867
X026032
X026022Y-00817
X026608
X026618Y-00867
X027204
X027194Y-00817
X02778
X02779Y-00867
X01326Y-00978
Y-010366
Y-010952
Y-011538
Y-012124
Y-01271
X00818Y-0127
X00817Y-01221
X007584
X007594Y-0127
X007008
X006998Y-01221
X006412
X006422Y-0127
X005836
X005826Y-01221
X00524
X00525Y-0127
X00441Y-01205
Y-011464
Y-010878
Y-010292
Y-009706
Y-00912
X00354Y-0091
Y-009686
Y-010272
Y-010858
Y-011444
Y-01203
X00563Y-00936
X00561Y-00888
X006196
X006216Y-00936
X006802
X006782Y-00888
X007368
X007388Y-00936
X007974
X007954Y-00888
X00854
X00856Y-00936
X01243Y-00376
Y-003174
Y-002588
Y-002002
Y-001416
Y-00083
X02475Y-00582
X02477Y-00633
X025356
X025336Y-00582
X025922
X025942Y-00633
X026528
X026508Y-00582
X027094
X027114Y-00633
X0277
X02768Y-00582
T04
X02987Y-01462
X0288433
X0278167
X02679
X0257633
X0247367
X02371
X0237967Y-01216
X0238067Y-01144
X0248333
X0248233Y-01216
X02585
X02586Y-01144
X0268867
X0268767Y-01216
X0279033
X0279133Y-01144
X02894
X02893Y-01216
X02269Y-01152
Y-01078
X02188Y-01077
Y-01151
X02174Y-0082
X02255Y-00821
X0107053Y-0100716
Y-0108959
X01005Y-01348
Y-01417
X0116Y-01445
X01237Y-01442
X01234Y-01365
X01159Y-01362
X01048Y-00578
X0075Y-00584
X00438Y-00573
X0144Y-00118
X0144Y-00046
X01542Y-00044
X0154267Y-00118
X0164533
X01642Y-00044
X01742
X01748Y-00118
X0185067
X01841Y-00045
X01946Y-00044
X0195333Y-00118
X02056
X02053Y-00044
X02154Y-00233
X02156Y-00308
X0225867
X0225667Y-00233
X0235933
X0236133Y-00308
X02464
X02462Y-00233
X0256467
X0256667Y-00308
X0266933
X0266733Y-00233
X0277
X02772Y-00308
X02875Y-00312
X02873Y-00235
X02255Y-00747
X02174Y-00746
T05
X0304724Y-0133307
Y-0117717
Y-0102126
Y-0086535
X0014173Y-0086536
Y-0102126
Y-0117717
Y-0133307
Y-0070945
Y-0055354
Y-0039764
Y-0024173
X0304724Y-0024173
Y-0039764
Y-0055354
Y-0070945
M30
