%FSLAX25Y25*%
%MOIN*%
G70*
G01*
G75*
G04 Layer_Physical_Order=2*
G04 Layer_Color=16711680*
%ADD10R,0.14410X0.09843*%
%ADD11R,0.14410X0.07874*%
%ADD12R,0.01969X0.06299*%
%ADD13R,0.03543X0.02126*%
%ADD14R,0.48504X0.15354*%
%ADD15R,0.09843X0.14410*%
%ADD16R,0.07874X0.14410*%
%ADD17R,0.06299X0.01969*%
%ADD18R,0.02126X0.03543*%
%ADD19R,0.10630X0.03937*%
%ADD20R,0.25590X0.07559*%
%ADD21C,0.00800*%
%ADD22R,0.49400X0.08100*%
%ADD23R,0.04800X0.94500*%
%ADD24R,0.18800X0.03900*%
%ADD25R,0.17900X0.04600*%
%ADD26R,0.19200X0.04500*%
%ADD27R,0.85300X0.11600*%
%ADD28R,0.04315X0.07664*%
%ADD29R,0.44671X0.11272*%
%ADD30R,0.44400X0.11000*%
%ADD31R,0.06900X0.15000*%
%ADD32R,0.06300X0.16900*%
%ADD33C,0.00500*%
%ADD34O,0.11811X0.09843*%
%ADD35R,0.11811X0.09843*%
%ADD36C,0.02000*%
%ADD37C,0.05000*%
%ADD38C,0.04000*%
%ADD39C,0.03000*%
%ADD40R,0.07087X0.13386*%
%ADD41O,0.01181X0.02756*%
%ADD42O,0.02756X0.01181*%
%ADD43R,0.02756X0.03347*%
%ADD44R,0.05118X0.03937*%
%ADD45R,0.03347X0.02756*%
%ADD46R,0.04800X0.92500*%
%ADD47R,0.02200X0.25827*%
%ADD48R,0.02300X0.29000*%
G36*
X317113Y-155696D02*
X1784D01*
Y-146877D01*
X2246Y-146686D01*
X3730Y-148170D01*
X4359Y-148590D01*
X5100Y-148737D01*
X44099D01*
X44725Y-149155D01*
X45700Y-149349D01*
X46676Y-149155D01*
X47502Y-148602D01*
X48055Y-147775D01*
X48249Y-146800D01*
X48055Y-145825D01*
X47502Y-144998D01*
X46676Y-144445D01*
X45700Y-144251D01*
X44725Y-144445D01*
X44099Y-144863D01*
X5902D01*
X5437Y-144398D01*
Y-21900D01*
Y17398D01*
X13202Y25163D01*
X47748D01*
Y23927D01*
X53504D01*
X53504Y23927D01*
Y23927D01*
X53504D01*
X53654D01*
X53857Y23927D01*
X53857Y23927D01*
Y23927D01*
X59409D01*
Y24098D01*
X59620Y24185D01*
X60036Y23907D01*
Y20809D01*
X60004Y20761D01*
X59842Y19946D01*
Y19513D01*
X59455Y19196D01*
X58824Y19321D01*
X57249D01*
X56433Y19159D01*
X56385Y19127D01*
X54613D01*
X53902Y19838D01*
X53755Y20575D01*
X53202Y21402D01*
X52376Y21955D01*
X51400Y22149D01*
X51296Y22128D01*
X50909Y22445D01*
Y22773D01*
X45357D01*
X45357Y22773D01*
Y22773D01*
X45153Y22773D01*
X45079D01*
X45004D01*
X44800Y22773D01*
X44800Y22773D01*
Y22773D01*
X39248D01*
Y16427D01*
Y10427D01*
X39248Y10427D01*
X39248D01*
X39248Y10227D01*
Y10179D01*
X39143Y10073D01*
X39143D01*
Y7400D01*
X42022D01*
Y6901D01*
X42520D01*
Y3727D01*
X44898D01*
Y3727D01*
X45048D01*
X45252Y3727D01*
X45252Y3727D01*
Y3727D01*
X46833D01*
X47150Y3340D01*
X47063Y2900D01*
Y-13198D01*
X29330Y-30930D01*
X28910Y-31559D01*
X28763Y-32300D01*
Y-58799D01*
X28345Y-59425D01*
X28151Y-60400D01*
X28345Y-61375D01*
X28898Y-62202D01*
X29724Y-62755D01*
X30700Y-62949D01*
X31675Y-62755D01*
X32502Y-62202D01*
X33055Y-61375D01*
X33249Y-60400D01*
X33055Y-59425D01*
X32637Y-58799D01*
Y-33102D01*
X49427Y-16313D01*
X49889Y-16504D01*
Y-41295D01*
X49889Y-41295D01*
X49889D01*
X50036Y-42036D01*
X50456Y-42664D01*
X53062Y-45270D01*
X53690Y-45690D01*
X54431Y-45837D01*
X93298D01*
X94563Y-47102D01*
Y-55276D01*
X94084Y-55421D01*
X93762Y-54938D01*
X93183Y-54552D01*
X92500Y-54416D01*
X41600D01*
X40917Y-54552D01*
X40338Y-54938D01*
X39952Y-55517D01*
X39816Y-56200D01*
Y-79299D01*
X39429Y-79616D01*
X39100Y-79551D01*
X38124Y-79745D01*
X37298Y-80298D01*
X36745Y-81125D01*
X36551Y-82100D01*
X36745Y-83075D01*
X37163Y-83701D01*
Y-109300D01*
X37163Y-109300D01*
X37163D01*
X37310Y-110041D01*
X37730Y-110670D01*
X41030Y-113970D01*
X41030D01*
X41030Y-113970D01*
X41030Y-113970D01*
Y-113970D01*
X41659Y-114390D01*
X42400Y-114537D01*
X93899D01*
X94525Y-114955D01*
X95500Y-115149D01*
X96475Y-114955D01*
X97302Y-114402D01*
X97855Y-113575D01*
X98049Y-112600D01*
X97855Y-111625D01*
X97302Y-110798D01*
X96475Y-110245D01*
X95500Y-110051D01*
X94525Y-110245D01*
X93899Y-110663D01*
X43346D01*
X43068Y-110247D01*
X43177Y-109984D01*
X92500D01*
X93183Y-109848D01*
X93762Y-109462D01*
X94148Y-108883D01*
X94284Y-108200D01*
Y-89057D01*
X94725Y-88821D01*
X95525Y-89355D01*
X96500Y-89549D01*
X97475Y-89355D01*
X98302Y-88802D01*
X98855Y-87976D01*
X99049Y-87000D01*
X98855Y-86024D01*
X98437Y-85399D01*
Y-46300D01*
X98290Y-45559D01*
X97870Y-44930D01*
X95470Y-42530D01*
X94841Y-42110D01*
X94100Y-41963D01*
X55234D01*
X53763Y-40492D01*
Y-7773D01*
X54704D01*
D01*
X54704D01*
X54843Y-7912D01*
Y-7927D01*
D01*
D01*
Y-7927D01*
X54843D01*
Y-14273D01*
X59511D01*
X59609Y-14764D01*
X58935Y-15043D01*
X58204Y-15604D01*
X57643Y-16335D01*
X57290Y-17186D01*
X57170Y-18100D01*
X57290Y-19014D01*
X57643Y-19865D01*
X58204Y-20596D01*
X58222Y-20610D01*
X57743Y-21235D01*
X57390Y-22086D01*
X57270Y-23000D01*
X57390Y-23914D01*
X57743Y-24765D01*
X58304Y-25496D01*
X59035Y-26057D01*
X59886Y-26410D01*
X60800Y-26530D01*
X61714Y-26410D01*
X62565Y-26057D01*
X63296Y-25496D01*
X63480Y-25257D01*
X63980D01*
X64164Y-25496D01*
X64895Y-26057D01*
X65746Y-26410D01*
X66660Y-26530D01*
X67574Y-26410D01*
X68425Y-26057D01*
X69156Y-25496D01*
X69340Y-25257D01*
X69840D01*
X70024Y-25496D01*
X70755Y-26057D01*
X71606Y-26410D01*
X72520Y-26530D01*
X73434Y-26410D01*
X74285Y-26057D01*
X75016Y-25496D01*
X75200Y-25257D01*
X75700D01*
X75884Y-25496D01*
X76615Y-26057D01*
X77466Y-26410D01*
X78380Y-26530D01*
X79294Y-26410D01*
X80145Y-26057D01*
X80876Y-25496D01*
X81060Y-25257D01*
X81560D01*
X81744Y-25496D01*
X81774Y-25520D01*
Y-26020D01*
X81404Y-26304D01*
X80843Y-27035D01*
X80490Y-27886D01*
X80370Y-28800D01*
X80490Y-29714D01*
X80843Y-30565D01*
X81404Y-31296D01*
X81408Y-31329D01*
X80943Y-31935D01*
X80590Y-32786D01*
X80470Y-33700D01*
X80590Y-34614D01*
X80943Y-35465D01*
X81504Y-36196D01*
X82235Y-36757D01*
X83086Y-37110D01*
X84000Y-37230D01*
X84914Y-37110D01*
X85765Y-36757D01*
X86496Y-36196D01*
X86680Y-35957D01*
X87180D01*
X87364Y-36196D01*
X88095Y-36757D01*
X88946Y-37110D01*
X89860Y-37230D01*
X90774Y-37110D01*
X91625Y-36757D01*
X92356Y-36196D01*
X92540Y-35957D01*
X93040D01*
X93224Y-36196D01*
X93955Y-36757D01*
X94806Y-37110D01*
X95720Y-37230D01*
X96634Y-37110D01*
X97485Y-36757D01*
X98216Y-36196D01*
X98400Y-35957D01*
X98900D01*
X99084Y-36196D01*
X99815Y-36757D01*
X100666Y-37110D01*
X101580Y-37230D01*
X102494Y-37110D01*
X103345Y-36757D01*
X104076Y-36196D01*
X104260Y-35957D01*
X104760D01*
X104944Y-36196D01*
X105675Y-36757D01*
X106526Y-37110D01*
X107440Y-37230D01*
X108354Y-37110D01*
X109205Y-36757D01*
X109936Y-36196D01*
X110120Y-35957D01*
X110620D01*
X110804Y-36196D01*
X111535Y-36757D01*
X112386Y-37110D01*
X113300Y-37230D01*
X114214Y-37110D01*
X115065Y-36757D01*
X115796Y-36196D01*
X116357Y-35465D01*
X116710Y-34614D01*
X116830Y-33700D01*
X116710Y-32786D01*
X116357Y-31935D01*
X115796Y-31204D01*
X115792Y-31171D01*
X116257Y-30565D01*
X116610Y-29714D01*
X116730Y-28800D01*
X116610Y-27886D01*
X116257Y-27035D01*
X115696Y-26304D01*
X114965Y-25743D01*
X114114Y-25390D01*
X113200Y-25270D01*
X112286Y-25390D01*
X111435Y-25743D01*
X110704Y-26304D01*
X110520Y-26543D01*
X110020D01*
X109836Y-26304D01*
X109105Y-25743D01*
X108254Y-25390D01*
X107340Y-25270D01*
X106426Y-25390D01*
X105575Y-25743D01*
X104844Y-26304D01*
X104660Y-26543D01*
X104160D01*
X103976Y-26304D01*
X103245Y-25743D01*
X102394Y-25390D01*
X101480Y-25270D01*
X100566Y-25390D01*
X99715Y-25743D01*
X98984Y-26304D01*
X98800Y-26543D01*
X98300D01*
X98116Y-26304D01*
X97385Y-25743D01*
X96534Y-25390D01*
X95620Y-25270D01*
X94706Y-25390D01*
X93855Y-25743D01*
X93124Y-26304D01*
X92940Y-26543D01*
X92440D01*
X92256Y-26304D01*
X92226Y-26281D01*
Y-25780D01*
X92596Y-25496D01*
X93157Y-24765D01*
X93510Y-23914D01*
X93630Y-23000D01*
X93510Y-22086D01*
X93157Y-21235D01*
X92596Y-20504D01*
X92592Y-20471D01*
X93057Y-19865D01*
X93410Y-19014D01*
X93530Y-18100D01*
X93410Y-17186D01*
X93057Y-16335D01*
X92496Y-15604D01*
X91765Y-15043D01*
X90914Y-14690D01*
X90000Y-14570D01*
X89086Y-14690D01*
X88235Y-15043D01*
X87504Y-15604D01*
X87320Y-15843D01*
X86820D01*
X86636Y-15604D01*
X85905Y-15043D01*
X85054Y-14690D01*
X84140Y-14570D01*
X83226Y-14690D01*
X82375Y-15043D01*
X81644Y-15604D01*
X81460Y-15843D01*
X80960D01*
X80776Y-15604D01*
X80045Y-15043D01*
X79194Y-14690D01*
X78280Y-14570D01*
X77366Y-14690D01*
X76515Y-15043D01*
X75784Y-15604D01*
X75600Y-15843D01*
X75100D01*
X74916Y-15604D01*
X74185Y-15043D01*
X73334Y-14690D01*
X72420Y-14570D01*
X71506Y-14690D01*
X70655Y-15043D01*
X69924Y-15604D01*
X69740Y-15843D01*
X69240D01*
X69056Y-15604D01*
X68325Y-15043D01*
X67474Y-14690D01*
X66560Y-14570D01*
X66541Y-14555D01*
X66504Y-14273D01*
X66504Y-14273D01*
X66504Y-14273D01*
Y-11600D01*
X63625D01*
Y-11101D01*
X63126D01*
Y-7927D01*
X60952D01*
X60952Y-7927D01*
Y-7927D01*
X60748Y-7927D01*
X60610Y-7773D01*
D01*
X60609Y-7773D01*
Y-1479D01*
X61050Y-1243D01*
X61158Y-1315D01*
X61973Y-1477D01*
X62789Y-1315D01*
X63480Y-853D01*
X63942Y-161D01*
X64105Y654D01*
Y2107D01*
X64426D01*
Y10299D01*
Y18493D01*
X64105D01*
Y19946D01*
X63942Y20761D01*
X63910Y20809D01*
Y24927D01*
X63763Y25668D01*
X63343Y26297D01*
X61170Y28470D01*
X60541Y28890D01*
X59800Y29037D01*
X59409D01*
Y30273D01*
X58469D01*
Y30827D01*
X59298D01*
Y30827D01*
X59448D01*
X59652Y30827D01*
X59652Y30827D01*
Y30827D01*
X61826D01*
Y33999D01*
Y37173D01*
X59652D01*
X59652Y37173D01*
Y37173D01*
X59448Y37173D01*
X59373D01*
X59298D01*
X59095Y37173D01*
X59095Y37173D01*
Y37173D01*
X53543D01*
Y30827D01*
X54594D01*
Y30273D01*
X53857D01*
X53857Y30273D01*
Y30273D01*
X53654Y30273D01*
X53579D01*
X53504D01*
X53300Y30273D01*
X53300Y30273D01*
Y30273D01*
X52637D01*
Y39798D01*
X53376Y40537D01*
X69167D01*
Y39006D01*
X77285D01*
Y45943D01*
X69167D01*
Y44411D01*
X52574D01*
X51833Y44264D01*
X51204Y43844D01*
X49330Y41970D01*
X48910Y41341D01*
X48763Y40600D01*
Y30273D01*
X47748D01*
Y29037D01*
X12400D01*
X11659Y28890D01*
X11030Y28470D01*
X2246Y19686D01*
X1784Y19877D01*
Y50516D01*
X317113D01*
Y-155696D01*
D02*
G37*
%LPC*%
G36*
X13673Y-118217D02*
X6786D01*
X6861Y-118976D01*
X7228Y-120186D01*
X7824Y-121301D01*
X8626Y-122279D01*
X9604Y-123082D01*
X10720Y-123678D01*
X11930Y-124045D01*
X13189Y-124169D01*
X13673D01*
Y-118217D01*
D02*
G37*
G36*
X289400Y-110365D02*
X288356Y-110503D01*
X287383Y-110906D01*
X286547Y-111547D01*
X285906Y-112383D01*
X285503Y-113356D01*
X285366Y-114400D01*
X285503Y-115444D01*
X285906Y-116417D01*
X286547Y-117253D01*
X287107Y-117683D01*
X287145Y-117774D01*
Y-118212D01*
X286447Y-118747D01*
X285806Y-119583D01*
X285403Y-120556D01*
X285265Y-121600D01*
X285403Y-122644D01*
X285806Y-123617D01*
X286447Y-124453D01*
X287283Y-125094D01*
X288256Y-125497D01*
X289300Y-125635D01*
X290344Y-125497D01*
X291317Y-125094D01*
X292153Y-124453D01*
X292794Y-123617D01*
X293197Y-122644D01*
X293335Y-121600D01*
X293197Y-120556D01*
X292794Y-119583D01*
X292153Y-118747D01*
X291317Y-118106D01*
Y-117935D01*
X291417Y-117894D01*
X292253Y-117253D01*
X292894Y-116417D01*
X293297Y-115444D01*
X293435Y-114400D01*
X293297Y-113356D01*
X292894Y-112383D01*
X292253Y-111547D01*
X291417Y-110906D01*
X290444Y-110503D01*
X289400Y-110365D01*
D02*
G37*
G36*
X21561Y-118217D02*
X14673D01*
Y-124169D01*
X15157D01*
X16416Y-124045D01*
X17627Y-123678D01*
X18742Y-123082D01*
X19720Y-122279D01*
X20522Y-121301D01*
X21119Y-120186D01*
X21486Y-118976D01*
X21561Y-118217D01*
D02*
G37*
G36*
X305709Y-111264D02*
X303740D01*
X302481Y-111388D01*
X301271Y-111755D01*
X300155Y-112352D01*
X299178Y-113154D01*
X298375Y-114132D01*
X297779Y-115247D01*
X297412Y-116458D01*
X297288Y-117717D01*
X297412Y-118975D01*
X297779Y-120186D01*
X298375Y-121301D01*
X299178Y-122279D01*
X300155Y-123081D01*
X301271Y-123678D01*
X302481Y-124045D01*
X303740Y-124169D01*
X305709D01*
X306967Y-124045D01*
X308178Y-123678D01*
X309293Y-123081D01*
X310271Y-122279D01*
X311074Y-121301D01*
X311670Y-120186D01*
X312037Y-118975D01*
X312161Y-117717D01*
X312037Y-116458D01*
X311670Y-115247D01*
X311074Y-114132D01*
X310271Y-113154D01*
X309293Y-112352D01*
X308178Y-111755D01*
X306967Y-111388D01*
X305709Y-111264D01*
D02*
G37*
G36*
X279133Y-110365D02*
X278089Y-110503D01*
X277116Y-110906D01*
X276280Y-111547D01*
X275639Y-112383D01*
X275236Y-113356D01*
X275099Y-114400D01*
X275236Y-115444D01*
X275639Y-116417D01*
X276280Y-117253D01*
X276841Y-117683D01*
X276878Y-117774D01*
Y-118212D01*
X276181Y-118747D01*
X275539Y-119583D01*
X275136Y-120556D01*
X274999Y-121600D01*
X275136Y-122644D01*
X275539Y-123617D01*
X276181Y-124453D01*
X277016Y-125094D01*
X277989Y-125497D01*
X279033Y-125635D01*
X280078Y-125497D01*
X281051Y-125094D01*
X281886Y-124453D01*
X282527Y-123617D01*
X282930Y-122644D01*
X283068Y-121600D01*
X282930Y-120556D01*
X282527Y-119583D01*
X281886Y-118747D01*
X281051Y-118106D01*
Y-117935D01*
X281151Y-117894D01*
X281986Y-117253D01*
X282627Y-116417D01*
X283030Y-115444D01*
X283168Y-114400D01*
X283030Y-113356D01*
X282627Y-112383D01*
X281986Y-111547D01*
X281151Y-110906D01*
X280178Y-110503D01*
X279133Y-110365D01*
D02*
G37*
G36*
X248333D02*
X247289Y-110503D01*
X246316Y-110906D01*
X245480Y-111547D01*
X244839Y-112383D01*
X244436Y-113356D01*
X244299Y-114400D01*
X244436Y-115444D01*
X244839Y-116417D01*
X245480Y-117253D01*
X246041Y-117683D01*
X246078Y-117774D01*
Y-118212D01*
X245380Y-118747D01*
X244739Y-119583D01*
X244336Y-120556D01*
X244199Y-121600D01*
X244336Y-122644D01*
X244739Y-123617D01*
X245380Y-124453D01*
X246216Y-125094D01*
X247189Y-125497D01*
X248233Y-125635D01*
X249278Y-125497D01*
X250251Y-125094D01*
X251086Y-124453D01*
X251727Y-123617D01*
X252130Y-122644D01*
X252268Y-121600D01*
X252130Y-120556D01*
X251727Y-119583D01*
X251086Y-118747D01*
X250251Y-118106D01*
Y-117935D01*
X250351Y-117894D01*
X251186Y-117253D01*
X251827Y-116417D01*
X252230Y-115444D01*
X252368Y-114400D01*
X252230Y-113356D01*
X251827Y-112383D01*
X251186Y-111547D01*
X250351Y-110906D01*
X249378Y-110503D01*
X248333Y-110365D01*
D02*
G37*
G36*
X238067D02*
X237022Y-110503D01*
X236049Y-110906D01*
X235214Y-111547D01*
X234573Y-112383D01*
X234170Y-113356D01*
X234032Y-114400D01*
X234170Y-115444D01*
X234573Y-116417D01*
X235214Y-117253D01*
X235774Y-117683D01*
X235812Y-117774D01*
Y-118212D01*
X235114Y-118747D01*
X234473Y-119583D01*
X234070Y-120556D01*
X233932Y-121600D01*
X234070Y-122644D01*
X234473Y-123617D01*
X235114Y-124453D01*
X235949Y-125094D01*
X236923Y-125497D01*
X237967Y-125635D01*
X239011Y-125497D01*
X239984Y-125094D01*
X240820Y-124453D01*
X241461Y-123617D01*
X241864Y-122644D01*
X242001Y-121600D01*
X241864Y-120556D01*
X241461Y-119583D01*
X240820Y-118747D01*
X239984Y-118106D01*
Y-117935D01*
X240084Y-117894D01*
X240919Y-117253D01*
X241561Y-116417D01*
X241964Y-115444D01*
X242101Y-114400D01*
X241964Y-113356D01*
X241561Y-112383D01*
X240919Y-111547D01*
X240084Y-110906D01*
X239111Y-110503D01*
X238067Y-110365D01*
D02*
G37*
G36*
X268867D02*
X267823Y-110503D01*
X266849Y-110906D01*
X266014Y-111547D01*
X265373Y-112383D01*
X264970Y-113356D01*
X264832Y-114400D01*
X264970Y-115444D01*
X265373Y-116417D01*
X266014Y-117253D01*
X266574Y-117683D01*
X266612Y-117774D01*
Y-118212D01*
X265914Y-118747D01*
X265273Y-119583D01*
X264870Y-120556D01*
X264732Y-121600D01*
X264870Y-122644D01*
X265273Y-123617D01*
X265914Y-124453D01*
X266749Y-125094D01*
X267723Y-125497D01*
X268767Y-125635D01*
X269811Y-125497D01*
X270784Y-125094D01*
X271620Y-124453D01*
X272261Y-123617D01*
X272664Y-122644D01*
X272801Y-121600D01*
X272664Y-120556D01*
X272261Y-119583D01*
X271620Y-118747D01*
X270784Y-118106D01*
Y-117935D01*
X270884Y-117894D01*
X271720Y-117253D01*
X272361Y-116417D01*
X272764Y-115444D01*
X272901Y-114400D01*
X272764Y-113356D01*
X272361Y-112383D01*
X271720Y-111547D01*
X270884Y-110906D01*
X269911Y-110503D01*
X268867Y-110365D01*
D02*
G37*
G36*
X258600D02*
X257556Y-110503D01*
X256583Y-110906D01*
X255747Y-111547D01*
X255106Y-112383D01*
X254703Y-113356D01*
X254566Y-114400D01*
X254703Y-115444D01*
X255106Y-116417D01*
X255747Y-117253D01*
X256307Y-117683D01*
X256345Y-117774D01*
Y-118212D01*
X255647Y-118747D01*
X255006Y-119583D01*
X254603Y-120556D01*
X254466Y-121600D01*
X254603Y-122644D01*
X255006Y-123617D01*
X255647Y-124453D01*
X256483Y-125094D01*
X257456Y-125497D01*
X258500Y-125635D01*
X259544Y-125497D01*
X260517Y-125094D01*
X261353Y-124453D01*
X261994Y-123617D01*
X262397Y-122644D01*
X262534Y-121600D01*
X262397Y-120556D01*
X261994Y-119583D01*
X261353Y-118747D01*
X260517Y-118106D01*
Y-117935D01*
X260617Y-117894D01*
X261453Y-117253D01*
X262094Y-116417D01*
X262497Y-115444D01*
X262634Y-114400D01*
X262497Y-113356D01*
X262094Y-112383D01*
X261453Y-111547D01*
X260617Y-110906D01*
X259644Y-110503D01*
X258600Y-110365D01*
D02*
G37*
G36*
X21561Y-102626D02*
X14673D01*
Y-108579D01*
X15157D01*
X16416Y-108455D01*
X17627Y-108087D01*
X18742Y-107491D01*
X19720Y-106689D01*
X20522Y-105711D01*
X21119Y-104595D01*
X21486Y-103385D01*
X21561Y-102626D01*
D02*
G37*
G36*
X13673D02*
X6786D01*
X6861Y-103385D01*
X7228Y-104595D01*
X7824Y-105711D01*
X8626Y-106689D01*
X9604Y-107491D01*
X10720Y-108087D01*
X11930Y-108455D01*
X13189Y-108579D01*
X13673D01*
Y-102626D01*
D02*
G37*
G36*
Y-95674D02*
X13189D01*
X11930Y-95798D01*
X10720Y-96165D01*
X9604Y-96761D01*
X8626Y-97564D01*
X7824Y-98541D01*
X7228Y-99657D01*
X6861Y-100867D01*
X6786Y-101626D01*
X13673D01*
Y-95674D01*
D02*
G37*
G36*
X305709Y-95674D02*
X303740D01*
X302481Y-95797D01*
X301271Y-96165D01*
X300155Y-96761D01*
X299178Y-97563D01*
X298375Y-98541D01*
X297779Y-99657D01*
X297412Y-100867D01*
X297288Y-102126D01*
X297412Y-103385D01*
X297779Y-104595D01*
X298375Y-105711D01*
X299178Y-106688D01*
X300155Y-107491D01*
X301271Y-108087D01*
X302481Y-108454D01*
X303740Y-108578D01*
X305709D01*
X306967Y-108454D01*
X308178Y-108087D01*
X309293Y-107491D01*
X310271Y-106688D01*
X311074Y-105711D01*
X311670Y-104595D01*
X312037Y-103385D01*
X312161Y-102126D01*
X312037Y-100867D01*
X311670Y-99657D01*
X311074Y-98541D01*
X310271Y-97563D01*
X309293Y-96761D01*
X308178Y-96165D01*
X306967Y-95797D01*
X305709Y-95674D01*
D02*
G37*
G36*
X195303Y-109472D02*
X195016D01*
Y-111104D01*
X197335D01*
X197272Y-110788D01*
X196810Y-110097D01*
X196119Y-109635D01*
X195303Y-109472D01*
D02*
G37*
G36*
X13673Y-111265D02*
X13189D01*
X11930Y-111389D01*
X10720Y-111756D01*
X9604Y-112352D01*
X8626Y-113154D01*
X7824Y-114132D01*
X7228Y-115248D01*
X6861Y-116458D01*
X6786Y-117217D01*
X13673D01*
Y-111265D01*
D02*
G37*
G36*
X128600Y-116451D02*
X127624Y-116645D01*
X126798Y-117198D01*
X126245Y-118025D01*
X126074Y-118887D01*
X126048Y-118913D01*
X94551D01*
X93925Y-118495D01*
X92950Y-118301D01*
X91975Y-118495D01*
X91148Y-119048D01*
X90595Y-119875D01*
X90401Y-120850D01*
X90595Y-121826D01*
X91148Y-122652D01*
X91975Y-123205D01*
X92950Y-123399D01*
X93925Y-123205D01*
X94551Y-122787D01*
X126850D01*
X127591Y-122640D01*
X128220Y-122220D01*
X128963Y-121477D01*
X129576Y-121355D01*
X130402Y-120802D01*
X130955Y-119975D01*
X131149Y-119000D01*
X130955Y-118025D01*
X130402Y-117198D01*
X129576Y-116645D01*
X128600Y-116451D01*
D02*
G37*
G36*
X114728Y-96782D02*
X113683Y-96920D01*
X112710Y-97323D01*
X111875Y-97964D01*
X111234Y-98799D01*
X110830Y-99772D01*
X110693Y-100817D01*
X110830Y-101861D01*
X111234Y-102834D01*
X111875Y-103669D01*
X112710Y-104311D01*
X113621Y-104688D01*
Y-105188D01*
X112710Y-105565D01*
X111875Y-106206D01*
X111234Y-107042D01*
X110830Y-108015D01*
X110693Y-109059D01*
X110830Y-110103D01*
X111234Y-111076D01*
X111875Y-111912D01*
X112710Y-112553D01*
X113683Y-112956D01*
X114728Y-113094D01*
X115772Y-112956D01*
X116745Y-112553D01*
X117580Y-111912D01*
X118222Y-111076D01*
X118625Y-110103D01*
X118762Y-109059D01*
X118625Y-108015D01*
X118222Y-107042D01*
X117580Y-106206D01*
X116745Y-105565D01*
X115834Y-105188D01*
Y-104688D01*
X116745Y-104311D01*
X117580Y-103669D01*
X118222Y-102834D01*
X118625Y-101861D01*
X118762Y-100817D01*
X118625Y-99772D01*
X118222Y-98799D01*
X117580Y-97964D01*
X116745Y-97323D01*
X115772Y-96920D01*
X114728Y-96782D01*
D02*
G37*
G36*
X15157Y-111265D02*
X14673D01*
Y-117217D01*
X21561D01*
X21486Y-116458D01*
X21119Y-115248D01*
X20522Y-114132D01*
X19720Y-113154D01*
X18742Y-112352D01*
X17627Y-111756D01*
X16416Y-111389D01*
X15157Y-111265D01*
D02*
G37*
G36*
X150400Y226D02*
X149617Y123D01*
X148887Y-180D01*
X148260Y-660D01*
X147780Y-1287D01*
X147477Y-2017D01*
X147374Y-2800D01*
X147477Y-3583D01*
X147780Y-4313D01*
X148260Y-4940D01*
X148463Y-5095D01*
Y-106127D01*
X147522D01*
Y-112473D01*
Y-118020D01*
X147442D01*
Y-124367D01*
X147517D01*
Y-130573D01*
X153272D01*
Y-130573D01*
X153422D01*
X153626Y-130573D01*
X153626Y-130573D01*
Y-130573D01*
X159178D01*
Y-130372D01*
X159453D01*
Y-130372D01*
X165799D01*
Y-129431D01*
X167376D01*
X167568Y-129893D01*
X165104Y-132357D01*
X164604D01*
Y-131121D01*
X159052D01*
X159052Y-131121D01*
Y-131121D01*
X158848Y-131121D01*
X158773D01*
X158698D01*
X158494Y-131121D01*
X158494Y-131121D01*
Y-131121D01*
X156321D01*
Y-134295D01*
X155822D01*
Y-134794D01*
X152943D01*
Y-137167D01*
X152943Y-137167D01*
X152943D01*
X152943Y-137467D01*
X152889Y-137521D01*
X152748D01*
Y-140194D01*
X155627D01*
Y-141194D01*
X152748D01*
Y-143867D01*
Y-146394D01*
X155627D01*
Y-146893D01*
X156126D01*
Y-150067D01*
X158504D01*
Y-150067D01*
X158653D01*
X158858Y-150067D01*
X158858Y-150067D01*
Y-150067D01*
X164409D01*
Y-148642D01*
X164976Y-148264D01*
X172805Y-140435D01*
X173267Y-140626D01*
Y-141462D01*
X181385D01*
Y-134525D01*
X179263D01*
Y-131476D01*
X181450Y-129289D01*
X182927D01*
X183166Y-129647D01*
X183858Y-130109D01*
X184673Y-130271D01*
X185489Y-130109D01*
X186180Y-129647D01*
X186643Y-128955D01*
X186805Y-128139D01*
Y-126687D01*
X187126D01*
Y-118495D01*
Y-110301D01*
X186805D01*
Y-108848D01*
X186643Y-108032D01*
X186180Y-107341D01*
X185489Y-106879D01*
X184673Y-106717D01*
X183858Y-106879D01*
X183166Y-107341D01*
X182927Y-107698D01*
X179838D01*
X165763Y-93624D01*
X165135Y-93204D01*
X164394Y-93056D01*
X163804D01*
Y-91821D01*
X163784D01*
Y-89600D01*
X160905D01*
Y-89101D01*
X160406D01*
Y-85927D01*
X158231D01*
X158231Y-85927D01*
Y-85927D01*
X158028Y-85927D01*
X157953D01*
X157878D01*
X157674Y-85927D01*
X157674Y-85927D01*
Y-85927D01*
X152337D01*
Y-5095D01*
X152540Y-4940D01*
X153021Y-4313D01*
X153323Y-3583D01*
X153426Y-2800D01*
X153323Y-2017D01*
X153021Y-1287D01*
X152540Y-660D01*
X151913Y-180D01*
X151183Y123D01*
X150400Y226D01*
D02*
G37*
G36*
X288433Y-142166D02*
X287389Y-142303D01*
X286416Y-142706D01*
X285580Y-143347D01*
X284939Y-144183D01*
X284536Y-145156D01*
X284399Y-146200D01*
X284536Y-147244D01*
X284939Y-148217D01*
X285580Y-149053D01*
X286416Y-149694D01*
X287389Y-150097D01*
X288433Y-150234D01*
X289478Y-150097D01*
X290451Y-149694D01*
X291286Y-149053D01*
X291927Y-148217D01*
X292330Y-147244D01*
X292468Y-146200D01*
X292330Y-145156D01*
X291927Y-144183D01*
X291286Y-143347D01*
X290451Y-142706D01*
X289478Y-142303D01*
X288433Y-142166D01*
D02*
G37*
G36*
X278167D02*
X277122Y-142303D01*
X276149Y-142706D01*
X275314Y-143347D01*
X274673Y-144183D01*
X274270Y-145156D01*
X274132Y-146200D01*
X274270Y-147244D01*
X274673Y-148217D01*
X275314Y-149053D01*
X276149Y-149694D01*
X277122Y-150097D01*
X278167Y-150234D01*
X279211Y-150097D01*
X280184Y-149694D01*
X281019Y-149053D01*
X281661Y-148217D01*
X282064Y-147244D01*
X282201Y-146200D01*
X282064Y-145156D01*
X281661Y-144183D01*
X281019Y-143347D01*
X280184Y-142706D01*
X279211Y-142303D01*
X278167Y-142166D01*
D02*
G37*
G36*
X155126Y-147394D02*
X152748D01*
Y-150067D01*
X155126D01*
Y-147394D01*
D02*
G37*
G36*
X298700Y-142166D02*
X297656Y-142303D01*
X296683Y-142706D01*
X295847Y-143347D01*
X295206Y-144183D01*
X294803Y-145156D01*
X294666Y-146200D01*
X294803Y-147244D01*
X295206Y-148217D01*
X295847Y-149053D01*
X296683Y-149694D01*
X297656Y-150097D01*
X298700Y-150234D01*
X299744Y-150097D01*
X300717Y-149694D01*
X301553Y-149053D01*
X302194Y-148217D01*
X302597Y-147244D01*
X302734Y-146200D01*
X302597Y-145156D01*
X302194Y-144183D01*
X301553Y-143347D01*
X300717Y-142706D01*
X299744Y-142303D01*
X298700Y-142166D01*
D02*
G37*
G36*
X267900D02*
X266856Y-142303D01*
X265883Y-142706D01*
X265047Y-143347D01*
X264406Y-144183D01*
X264003Y-145156D01*
X263865Y-146200D01*
X264003Y-147244D01*
X264406Y-148217D01*
X265047Y-149053D01*
X265883Y-149694D01*
X266856Y-150097D01*
X267900Y-150234D01*
X268944Y-150097D01*
X269917Y-149694D01*
X270753Y-149053D01*
X271394Y-148217D01*
X271797Y-147244D01*
X271935Y-146200D01*
X271797Y-145156D01*
X271394Y-144183D01*
X270753Y-143347D01*
X269917Y-142706D01*
X268944Y-142303D01*
X267900Y-142166D01*
D02*
G37*
G36*
X237100D02*
X236056Y-142303D01*
X235083Y-142706D01*
X234247Y-143347D01*
X233606Y-144183D01*
X233203Y-145156D01*
X233066Y-146200D01*
X233203Y-147244D01*
X233606Y-148217D01*
X234247Y-149053D01*
X235083Y-149694D01*
X236056Y-150097D01*
X237100Y-150234D01*
X238144Y-150097D01*
X239117Y-149694D01*
X239953Y-149053D01*
X240594Y-148217D01*
X240997Y-147244D01*
X241135Y-146200D01*
X240997Y-145156D01*
X240594Y-144183D01*
X239953Y-143347D01*
X239117Y-142706D01*
X238144Y-142303D01*
X237100Y-142166D01*
D02*
G37*
G36*
X181385Y-142399D02*
X173267D01*
Y-149336D01*
X174589D01*
X174906Y-149723D01*
X174851Y-150000D01*
X175045Y-150976D01*
X175598Y-151802D01*
X176425Y-152355D01*
X177400Y-152549D01*
X178375Y-152355D01*
X179202Y-151802D01*
X179755Y-150976D01*
X179949Y-150000D01*
X179894Y-149723D01*
X180211Y-149336D01*
X181385D01*
Y-142399D01*
D02*
G37*
G36*
X257633Y-142166D02*
X256589Y-142303D01*
X255616Y-142706D01*
X254781Y-143347D01*
X254139Y-144183D01*
X253736Y-145156D01*
X253599Y-146200D01*
X253736Y-147244D01*
X254139Y-148217D01*
X254781Y-149053D01*
X255616Y-149694D01*
X256589Y-150097D01*
X257633Y-150234D01*
X258678Y-150097D01*
X259651Y-149694D01*
X260486Y-149053D01*
X261127Y-148217D01*
X261530Y-147244D01*
X261668Y-146200D01*
X261530Y-145156D01*
X261127Y-144183D01*
X260486Y-143347D01*
X259651Y-142706D01*
X258678Y-142303D01*
X257633Y-142166D01*
D02*
G37*
G36*
X247367D02*
X246322Y-142303D01*
X245349Y-142706D01*
X244514Y-143347D01*
X243873Y-144183D01*
X243470Y-145156D01*
X243332Y-146200D01*
X243470Y-147244D01*
X243873Y-148217D01*
X244514Y-149053D01*
X245349Y-149694D01*
X246322Y-150097D01*
X247367Y-150234D01*
X248411Y-150097D01*
X249384Y-149694D01*
X250219Y-149053D01*
X250861Y-148217D01*
X251264Y-147244D01*
X251401Y-146200D01*
X251264Y-145156D01*
X250861Y-144183D01*
X250219Y-143347D01*
X249384Y-142706D01*
X248411Y-142303D01*
X247367Y-142166D01*
D02*
G37*
G36*
X155321Y-131121D02*
X152943D01*
Y-133794D01*
X155321D01*
Y-131121D01*
D02*
G37*
G36*
X312130Y-126886D02*
X297319D01*
Y-139728D01*
X312130D01*
Y-126886D01*
D02*
G37*
G36*
X15157Y-126855D02*
X14673D01*
Y-132807D01*
X21561D01*
X21486Y-132049D01*
X21119Y-130838D01*
X20522Y-129723D01*
X19720Y-128745D01*
X18742Y-127943D01*
X17627Y-127346D01*
X16416Y-126979D01*
X15157Y-126855D01*
D02*
G37*
G36*
X13673D02*
X13189D01*
X11930Y-126979D01*
X10720Y-127346D01*
X9604Y-127943D01*
X8626Y-128745D01*
X7824Y-129723D01*
X7228Y-130838D01*
X6861Y-132049D01*
X6786Y-132807D01*
X13673D01*
Y-126855D01*
D02*
G37*
G36*
X21561Y-133807D02*
X14673D01*
Y-139760D01*
X15157D01*
X16416Y-139636D01*
X17627Y-139269D01*
X18742Y-138672D01*
X19720Y-137870D01*
X20522Y-136892D01*
X21119Y-135777D01*
X21486Y-134566D01*
X21561Y-133807D01*
D02*
G37*
G36*
X215604Y-143294D02*
X213226D01*
Y-145967D01*
X215604D01*
Y-143294D01*
D02*
G37*
G36*
X115900Y-132166D02*
X114856Y-132303D01*
X113883Y-132706D01*
X113047Y-133347D01*
X112406Y-134183D01*
X112003Y-135156D01*
X111865Y-136200D01*
X112003Y-137244D01*
X112406Y-138217D01*
X113047Y-139053D01*
X113883Y-139694D01*
X114856Y-140097D01*
X114890Y-140102D01*
X114956Y-140603D01*
X113983Y-141006D01*
X113147Y-141647D01*
X112506Y-142483D01*
X112103Y-143456D01*
X111966Y-144500D01*
X112103Y-145544D01*
X112506Y-146517D01*
X113147Y-147353D01*
X113983Y-147994D01*
X114956Y-148397D01*
X116000Y-148535D01*
X117044Y-148397D01*
X118017Y-147994D01*
X118853Y-147353D01*
X119494Y-146517D01*
X119662Y-146111D01*
X120162D01*
X120206Y-146217D01*
X120847Y-147053D01*
X121683Y-147694D01*
X122656Y-148097D01*
X123700Y-148234D01*
X124744Y-148097D01*
X125717Y-147694D01*
X126553Y-147053D01*
X127194Y-146217D01*
X127597Y-145244D01*
X127734Y-144200D01*
X127597Y-143156D01*
X127194Y-142183D01*
X126553Y-141347D01*
X125717Y-140706D01*
X124744Y-140303D01*
X124741Y-140274D01*
X125417Y-139994D01*
X126253Y-139353D01*
X126894Y-138517D01*
X127297Y-137544D01*
X127435Y-136500D01*
X127297Y-135456D01*
X126894Y-134483D01*
X126253Y-133647D01*
X125417Y-133006D01*
X124444Y-132603D01*
X123400Y-132466D01*
X122356Y-132603D01*
X121383Y-133006D01*
X120547Y-133647D01*
X119959Y-134414D01*
X119463Y-134349D01*
X119394Y-134183D01*
X118753Y-133347D01*
X117917Y-132706D01*
X116944Y-132303D01*
X115900Y-132166D01*
D02*
G37*
G36*
X13673Y-133807D02*
X6786D01*
X6861Y-134566D01*
X7228Y-135777D01*
X7824Y-136892D01*
X8626Y-137870D01*
X9604Y-138672D01*
X10720Y-139269D01*
X11930Y-139636D01*
X13189Y-139760D01*
X13673D01*
Y-133807D01*
D02*
G37*
G36*
X100500Y-130765D02*
X99456Y-130903D01*
X98483Y-131306D01*
X97647Y-131947D01*
X97006Y-132783D01*
X96603Y-133756D01*
X96465Y-134800D01*
X96603Y-135844D01*
X97006Y-136817D01*
X97647Y-137653D01*
X98100Y-138000D01*
Y-138500D01*
X97647Y-138847D01*
X97006Y-139683D01*
X96603Y-140656D01*
X96465Y-141700D01*
X96603Y-142744D01*
X97006Y-143717D01*
X97647Y-144553D01*
X98483Y-145194D01*
X99456Y-145597D01*
X100500Y-145735D01*
X101544Y-145597D01*
X102517Y-145194D01*
X103353Y-144553D01*
X103994Y-143717D01*
X104397Y-142744D01*
X104534Y-141700D01*
X104397Y-140656D01*
X103994Y-139683D01*
X103353Y-138847D01*
X102900Y-138500D01*
Y-138000D01*
X103353Y-137653D01*
X103994Y-136817D01*
X104397Y-135844D01*
X104534Y-134800D01*
X104397Y-133756D01*
X103994Y-132783D01*
X103353Y-131947D01*
X102517Y-131306D01*
X101544Y-130903D01*
X100500Y-130765D01*
D02*
G37*
G36*
X21579Y-17752D02*
X6768D01*
Y-30595D01*
X21579D01*
Y-17752D01*
D02*
G37*
G36*
X305709Y-17721D02*
X303740D01*
X302481Y-17844D01*
X301271Y-18212D01*
X300155Y-18808D01*
X299178Y-19610D01*
X298375Y-20588D01*
X297779Y-21704D01*
X297412Y-22914D01*
X297288Y-24173D01*
X297412Y-25432D01*
X297779Y-26642D01*
X298375Y-27758D01*
X299178Y-28735D01*
X300155Y-29538D01*
X301271Y-30134D01*
X302481Y-30501D01*
X303740Y-30625D01*
X305709D01*
X306967Y-30501D01*
X308178Y-30134D01*
X309293Y-29538D01*
X310271Y-28735D01*
X311074Y-27758D01*
X311670Y-26642D01*
X312037Y-25432D01*
X312161Y-24173D01*
X312037Y-22914D01*
X311670Y-21704D01*
X311074Y-20588D01*
X310271Y-19610D01*
X309293Y-18808D01*
X308178Y-18212D01*
X306967Y-17844D01*
X305709Y-17721D01*
D02*
G37*
G36*
X102300Y4095D02*
X99627D01*
Y1716D01*
X102300D01*
Y4095D01*
D02*
G37*
G36*
X66504Y-7927D02*
X64126D01*
Y-10600D01*
X66504D01*
Y-7927D01*
D02*
G37*
G36*
X305709Y-33311D02*
X303740D01*
X302481Y-33435D01*
X301271Y-33802D01*
X300155Y-34399D01*
X299178Y-35201D01*
X298375Y-36179D01*
X297779Y-37294D01*
X297412Y-38505D01*
X297288Y-39764D01*
X297412Y-41022D01*
X297779Y-42233D01*
X298375Y-43348D01*
X299178Y-44326D01*
X300155Y-45128D01*
X301271Y-45725D01*
X302481Y-46092D01*
X303740Y-46216D01*
X305709D01*
X306967Y-46092D01*
X308178Y-45725D01*
X309293Y-45128D01*
X310271Y-44326D01*
X311074Y-43348D01*
X311670Y-42233D01*
X312037Y-41022D01*
X312161Y-39764D01*
X312037Y-38505D01*
X311670Y-37294D01*
X311074Y-36179D01*
X310271Y-35201D01*
X309293Y-34399D01*
X308178Y-33802D01*
X306967Y-33435D01*
X305709Y-33311D01*
D02*
G37*
G36*
X13673Y-48902D02*
X13189D01*
X11930Y-49026D01*
X10720Y-49393D01*
X9604Y-49990D01*
X8626Y-50792D01*
X7824Y-51770D01*
X7228Y-52885D01*
X6861Y-54096D01*
X6786Y-54854D01*
X13673D01*
Y-48902D01*
D02*
G37*
G36*
X305709Y-48902D02*
X303740D01*
X302481Y-49026D01*
X301271Y-49393D01*
X300155Y-49989D01*
X299178Y-50792D01*
X298375Y-51769D01*
X297779Y-52885D01*
X297412Y-54095D01*
X297288Y-55354D01*
X297412Y-56613D01*
X297779Y-57823D01*
X298375Y-58939D01*
X299178Y-59917D01*
X300155Y-60719D01*
X301271Y-61315D01*
X302481Y-61682D01*
X303740Y-61806D01*
X305709D01*
X306967Y-61682D01*
X308178Y-61315D01*
X309293Y-60719D01*
X310271Y-59917D01*
X311074Y-58939D01*
X311670Y-57823D01*
X312037Y-56613D01*
X312161Y-55354D01*
X312037Y-54095D01*
X311670Y-52885D01*
X311074Y-51769D01*
X310271Y-50792D01*
X309293Y-49989D01*
X308178Y-49393D01*
X306967Y-49026D01*
X305709Y-48902D01*
D02*
G37*
G36*
X15157Y-33312D02*
X13189D01*
X11930Y-33435D01*
X10720Y-33803D01*
X9604Y-34399D01*
X8626Y-35201D01*
X7824Y-36179D01*
X7228Y-37295D01*
X6861Y-38505D01*
X6737Y-39764D01*
X6861Y-41023D01*
X7228Y-42233D01*
X7824Y-43349D01*
X8626Y-44326D01*
X9604Y-45129D01*
X10720Y-45725D01*
X11930Y-46092D01*
X13189Y-46216D01*
X15157D01*
X16416Y-46092D01*
X17627Y-45725D01*
X18742Y-45129D01*
X19720Y-44326D01*
X20522Y-43349D01*
X21119Y-42233D01*
X21486Y-41023D01*
X21610Y-39764D01*
X21486Y-38505D01*
X21119Y-37295D01*
X20522Y-36179D01*
X19720Y-35201D01*
X18742Y-34399D01*
X17627Y-33803D01*
X16416Y-33435D01*
X15157Y-33312D01*
D02*
G37*
G36*
Y-48902D02*
X14673D01*
Y-54854D01*
X21561D01*
X21486Y-54096D01*
X21119Y-52885D01*
X20522Y-51770D01*
X19720Y-50792D01*
X18742Y-49990D01*
X17627Y-49393D01*
X16416Y-49026D01*
X15157Y-48902D01*
D02*
G37*
G36*
X278700Y39430D02*
X277786Y39310D01*
X276935Y38957D01*
X276204Y38396D01*
X276020Y38157D01*
X275520D01*
X275336Y38396D01*
X274605Y38957D01*
X273754Y39310D01*
X272840Y39430D01*
X271926Y39310D01*
X271075Y38957D01*
X270344Y38396D01*
X270160Y38157D01*
X269660D01*
X269476Y38396D01*
X268745Y38957D01*
X267894Y39310D01*
X266980Y39430D01*
X266066Y39310D01*
X265215Y38957D01*
X264484Y38396D01*
X264300Y38157D01*
X263800D01*
X263616Y38396D01*
X262885Y38957D01*
X262034Y39310D01*
X261120Y39430D01*
X260206Y39310D01*
X259355Y38957D01*
X258624Y38396D01*
X258440Y38157D01*
X257940D01*
X257756Y38396D01*
X257025Y38957D01*
X256174Y39310D01*
X255260Y39430D01*
X254346Y39310D01*
X253495Y38957D01*
X252764Y38396D01*
X252580Y38157D01*
X252080D01*
X251896Y38396D01*
X251165Y38957D01*
X250314Y39310D01*
X249400Y39430D01*
X248486Y39310D01*
X247635Y38957D01*
X246904Y38396D01*
X246343Y37665D01*
X245990Y36814D01*
X245870Y35900D01*
X245990Y34986D01*
X246343Y34135D01*
X246904Y33404D01*
X247082Y33267D01*
X246543Y32565D01*
X246190Y31714D01*
X246070Y30800D01*
X246190Y29886D01*
X246543Y29035D01*
X247104Y28304D01*
X247835Y27743D01*
X248686Y27390D01*
X249600Y27270D01*
X250514Y27390D01*
X251365Y27743D01*
X252096Y28304D01*
X252280Y28543D01*
X252780D01*
X252964Y28304D01*
X253695Y27743D01*
X254546Y27390D01*
X255460Y27270D01*
X256374Y27390D01*
X257225Y27743D01*
X257956Y28304D01*
X258140Y28543D01*
X258640D01*
X258824Y28304D01*
X259555Y27743D01*
X260406Y27390D01*
X261320Y27270D01*
X262234Y27390D01*
X263085Y27743D01*
X263816Y28304D01*
X264000Y28543D01*
X264500D01*
X264684Y28304D01*
X265415Y27743D01*
X266266Y27390D01*
X267180Y27270D01*
X268094Y27390D01*
X268945Y27743D01*
X269676Y28304D01*
X269860Y28543D01*
X270360D01*
X270544Y28304D01*
X271275Y27743D01*
X272126Y27390D01*
X273040Y27270D01*
X273954Y27390D01*
X274805Y27743D01*
X275536Y28304D01*
X275720Y28543D01*
X276220D01*
X276404Y28304D01*
X277135Y27743D01*
X277986Y27390D01*
X278900Y27270D01*
X279814Y27390D01*
X280665Y27743D01*
X281396Y28304D01*
X281957Y29035D01*
X282310Y29886D01*
X282430Y30800D01*
X282310Y31714D01*
X281957Y32565D01*
X281396Y33296D01*
X281355Y33610D01*
X281757Y34135D01*
X282110Y34986D01*
X282230Y35900D01*
X282110Y36814D01*
X281757Y37665D01*
X281196Y38396D01*
X280465Y38957D01*
X279614Y39310D01*
X278700Y39430D01*
D02*
G37*
G36*
X92298Y42773D02*
Y42773D01*
X86542D01*
Y41537D01*
X82700D01*
X81959Y41390D01*
X81330Y40970D01*
X77747Y37387D01*
X77285Y37578D01*
Y38069D01*
X69167D01*
Y31132D01*
X70563D01*
Y22402D01*
X69593Y21432D01*
X69386Y21453D01*
X68694Y21915D01*
X67879Y22077D01*
X67063Y21915D01*
X66372Y21453D01*
X65909Y20761D01*
X65747Y19946D01*
Y18493D01*
X65426D01*
Y10299D01*
Y2107D01*
X65747D01*
Y654D01*
X65909Y-161D01*
X66372Y-853D01*
X67063Y-1315D01*
X67879Y-1477D01*
X68694Y-1315D01*
X69386Y-853D01*
X69625Y-495D01*
X72056D01*
X82430Y-10870D01*
X83059Y-11290D01*
X83800Y-11437D01*
X86453D01*
Y-12673D01*
X92209D01*
Y-12673D01*
X92209D01*
X92209Y-12673D01*
X92359D01*
Y-12673D01*
X98115D01*
Y-6373D01*
Y-27D01*
X98009D01*
Y5973D01*
X96366D01*
X96175Y6435D01*
X96696Y6956D01*
X96810Y7127D01*
X98204D01*
Y13473D01*
X98204D01*
Y14668D01*
X99427D01*
Y13816D01*
X99627D01*
Y13378D01*
X99627D01*
Y7826D01*
X99627Y7826D01*
X99627D01*
X99627Y7622D01*
Y7472D01*
D01*
D01*
D01*
X99627D01*
D01*
Y5094D01*
X105973D01*
Y7269D01*
X105973Y7269D01*
D01*
D01*
X105973Y7472D01*
Y7488D01*
Y7547D01*
X105973Y7622D01*
X105973Y7826D01*
X105973Y7826D01*
X105973D01*
Y12538D01*
X106360Y12855D01*
X107279Y12672D01*
X108254Y12866D01*
X108398Y12962D01*
X109963Y11398D01*
Y-12500D01*
X109963Y-12500D01*
X109963D01*
X110110Y-13241D01*
X110530Y-13870D01*
X111296Y-14636D01*
X111199Y-15126D01*
X110435Y-15443D01*
X109704Y-16004D01*
X109143Y-16735D01*
X108790Y-17586D01*
X108670Y-18500D01*
X108790Y-19414D01*
X109143Y-20265D01*
X109704Y-20996D01*
X110435Y-21557D01*
X111286Y-21910D01*
X112200Y-22030D01*
X113114Y-21910D01*
X113965Y-21557D01*
X114696Y-20996D01*
X115257Y-20265D01*
X115574Y-19501D01*
X116064Y-19404D01*
X117663Y-21002D01*
Y-46000D01*
X117663Y-46000D01*
X117663D01*
X117810Y-46741D01*
X118230Y-47370D01*
X126663Y-55802D01*
Y-58999D01*
X126245Y-59624D01*
X126051Y-60600D01*
X126245Y-61576D01*
X126798Y-62402D01*
X127624Y-62955D01*
X128600Y-63149D01*
X129576Y-62955D01*
X130402Y-62402D01*
X130955Y-61576D01*
X131149Y-60600D01*
X130955Y-59624D01*
X130537Y-58999D01*
Y-55000D01*
X130390Y-54259D01*
X129970Y-53630D01*
X121537Y-45198D01*
Y-20200D01*
X121390Y-19459D01*
X120970Y-18830D01*
X113837Y-11698D01*
Y-4011D01*
X114224Y-3694D01*
X114500Y-3749D01*
X115475Y-3555D01*
X116302Y-3002D01*
X116855Y-2176D01*
X117049Y-1200D01*
X116855Y-225D01*
X116437Y401D01*
Y19300D01*
X116290Y20041D01*
X115870Y20670D01*
X112570Y23970D01*
X111941Y24390D01*
X111200Y24537D01*
X105773D01*
Y25478D01*
X104537D01*
Y26400D01*
X104390Y27141D01*
X103970Y27770D01*
X102490Y29250D01*
X101861Y29670D01*
X101120Y29817D01*
X98204D01*
Y30567D01*
Y33240D01*
X95325D01*
Y34240D01*
X98204D01*
Y36427D01*
Y39100D01*
X95325D01*
Y39599D01*
X94826D01*
Y42773D01*
X92448D01*
D01*
D01*
X92448Y42773D01*
X92298D01*
D02*
G37*
G36*
X202000Y41730D02*
X201086Y41610D01*
X200235Y41257D01*
X199504Y40696D01*
X199320Y40457D01*
X198820D01*
X198636Y40696D01*
X197905Y41257D01*
X197054Y41610D01*
X196140Y41730D01*
X195226Y41610D01*
X194375Y41257D01*
X193644Y40696D01*
X193460Y40457D01*
X192960D01*
X192776Y40696D01*
X192045Y41257D01*
X191194Y41610D01*
X190280Y41730D01*
X189366Y41610D01*
X188515Y41257D01*
X187784Y40696D01*
X187600Y40457D01*
X187100D01*
X186916Y40696D01*
X186185Y41257D01*
X185334Y41610D01*
X184420Y41730D01*
X183506Y41610D01*
X182655Y41257D01*
X181924Y40696D01*
X181740Y40457D01*
X181240D01*
X181056Y40696D01*
X180325Y41257D01*
X179474Y41610D01*
X178560Y41730D01*
X177646Y41610D01*
X176795Y41257D01*
X176064Y40696D01*
X175880Y40457D01*
X175380D01*
X175196Y40696D01*
X174465Y41257D01*
X173614Y41610D01*
X172700Y41730D01*
X171786Y41610D01*
X170935Y41257D01*
X170204Y40696D01*
X169643Y39965D01*
X169290Y39114D01*
X169170Y38200D01*
X169290Y37286D01*
X169643Y36435D01*
X170204Y35704D01*
X170382Y35567D01*
X169843Y34865D01*
X169490Y34014D01*
X169370Y33100D01*
X169490Y32186D01*
X169843Y31335D01*
X170404Y30604D01*
X171135Y30043D01*
X171986Y29690D01*
X172900Y29570D01*
X173814Y29690D01*
X174665Y30043D01*
X175396Y30604D01*
X175580Y30843D01*
X176080D01*
X176264Y30604D01*
X176995Y30043D01*
X177846Y29690D01*
X178760Y29570D01*
X179674Y29690D01*
X180525Y30043D01*
X181256Y30604D01*
X181440Y30843D01*
X181940D01*
X182124Y30604D01*
X182855Y30043D01*
X183706Y29690D01*
X184620Y29570D01*
X185534Y29690D01*
X186385Y30043D01*
X187116Y30604D01*
X187300Y30843D01*
X187800D01*
X187984Y30604D01*
X188715Y30043D01*
X189566Y29690D01*
X190480Y29570D01*
X191394Y29690D01*
X192245Y30043D01*
X192976Y30604D01*
X193160Y30843D01*
X193660D01*
X193844Y30604D01*
X194575Y30043D01*
X195426Y29690D01*
X196340Y29570D01*
X197254Y29690D01*
X198105Y30043D01*
X198836Y30604D01*
X199020Y30843D01*
X199520D01*
X199704Y30604D01*
X200435Y30043D01*
X201286Y29690D01*
X202200Y29570D01*
X203114Y29690D01*
X203965Y30043D01*
X204696Y30604D01*
X205257Y31335D01*
X205610Y32186D01*
X205730Y33100D01*
X205610Y34014D01*
X205257Y34865D01*
X204696Y35596D01*
X204655Y35910D01*
X205057Y36435D01*
X205410Y37286D01*
X205530Y38200D01*
X205410Y39114D01*
X205057Y39965D01*
X204496Y40696D01*
X203765Y41257D01*
X202914Y41610D01*
X202000Y41730D01*
D02*
G37*
G36*
X98204Y42773D02*
X95826D01*
Y40100D01*
X98204D01*
Y42773D01*
D02*
G37*
G36*
X65204Y37173D02*
X62826D01*
Y34500D01*
X65204D01*
Y37173D01*
D02*
G37*
G36*
X41521Y6400D02*
X39143D01*
Y3727D01*
X41521D01*
Y6400D01*
D02*
G37*
G36*
X105973Y4095D02*
X103300D01*
Y1716D01*
X105973D01*
Y4095D01*
D02*
G37*
G36*
X65204Y33500D02*
X62826D01*
Y30827D01*
X65204D01*
Y33500D01*
D02*
G37*
G36*
X278800Y25330D02*
X277886Y25210D01*
X277035Y24857D01*
X276304Y24296D01*
X276120Y24057D01*
X275620D01*
X275436Y24296D01*
X274705Y24857D01*
X273854Y25210D01*
X272940Y25330D01*
X272026Y25210D01*
X271175Y24857D01*
X270444Y24296D01*
X270260Y24057D01*
X269760D01*
X269576Y24296D01*
X268845Y24857D01*
X267994Y25210D01*
X267080Y25330D01*
X266166Y25210D01*
X265315Y24857D01*
X264584Y24296D01*
X264400Y24057D01*
X263900D01*
X263716Y24296D01*
X262985Y24857D01*
X262134Y25210D01*
X261220Y25330D01*
X260306Y25210D01*
X259455Y24857D01*
X258724Y24296D01*
X258540Y24057D01*
X258040D01*
X257856Y24296D01*
X257125Y24857D01*
X256274Y25210D01*
X255360Y25330D01*
X254446Y25210D01*
X253595Y24857D01*
X252864Y24296D01*
X252680Y24057D01*
X252180D01*
X251996Y24296D01*
X251265Y24857D01*
X250414Y25210D01*
X249500Y25330D01*
X248586Y25210D01*
X247735Y24857D01*
X247004Y24296D01*
X246443Y23565D01*
X246090Y22714D01*
X245970Y21800D01*
X246090Y20886D01*
X246443Y20035D01*
X247004Y19304D01*
X247182Y19167D01*
X246643Y18465D01*
X246290Y17614D01*
X246170Y16700D01*
X246290Y15786D01*
X246643Y14935D01*
X247204Y14204D01*
X247935Y13643D01*
X248786Y13290D01*
X249700Y13170D01*
X250614Y13290D01*
X251465Y13643D01*
X252196Y14204D01*
X252380Y14443D01*
X252880D01*
X253064Y14204D01*
X253795Y13643D01*
X254646Y13290D01*
X255560Y13170D01*
X256474Y13290D01*
X257325Y13643D01*
X258056Y14204D01*
X258240Y14443D01*
X258740D01*
X258924Y14204D01*
X259655Y13643D01*
X260506Y13290D01*
X261420Y13170D01*
X262334Y13290D01*
X263185Y13643D01*
X263916Y14204D01*
X264100Y14443D01*
X264600D01*
X264784Y14204D01*
X265515Y13643D01*
X266366Y13290D01*
X267280Y13170D01*
X268194Y13290D01*
X269045Y13643D01*
X269776Y14204D01*
X269960Y14443D01*
X270460D01*
X270644Y14204D01*
X271375Y13643D01*
X272226Y13290D01*
X273140Y13170D01*
X274054Y13290D01*
X274905Y13643D01*
X275636Y14204D01*
X275820Y14443D01*
X276320D01*
X276504Y14204D01*
X277235Y13643D01*
X278086Y13290D01*
X279000Y13170D01*
X279914Y13290D01*
X280765Y13643D01*
X281496Y14204D01*
X282057Y14935D01*
X282410Y15786D01*
X282530Y16700D01*
X282410Y17614D01*
X282057Y18465D01*
X281496Y19196D01*
X281318Y19333D01*
X281857Y20035D01*
X282210Y20886D01*
X282330Y21800D01*
X282210Y22714D01*
X281857Y23565D01*
X281296Y24296D01*
X280565Y24857D01*
X279714Y25210D01*
X278800Y25330D01*
D02*
G37*
G36*
X163784Y-85927D02*
X161406D01*
Y-88600D01*
X163784D01*
Y-85927D01*
D02*
G37*
G36*
X305709Y-80083D02*
X303740D01*
X302481Y-80207D01*
X301271Y-80574D01*
X300155Y-81170D01*
X299178Y-81973D01*
X298375Y-82951D01*
X297779Y-84066D01*
X297412Y-85277D01*
X297288Y-86535D01*
X297412Y-87794D01*
X297779Y-89004D01*
X298375Y-90120D01*
X299178Y-91098D01*
X300155Y-91900D01*
X301271Y-92497D01*
X302481Y-92864D01*
X303740Y-92988D01*
X305709D01*
X306967Y-92864D01*
X308178Y-92497D01*
X309293Y-91900D01*
X310271Y-91098D01*
X311074Y-90120D01*
X311670Y-89004D01*
X312037Y-87794D01*
X312161Y-86535D01*
X312037Y-85277D01*
X311670Y-84066D01*
X311074Y-82951D01*
X310271Y-81973D01*
X309293Y-81170D01*
X308178Y-80574D01*
X306967Y-80207D01*
X305709Y-80083D01*
D02*
G37*
G36*
X13673Y-80083D02*
X13189D01*
X11930Y-80207D01*
X10720Y-80575D01*
X9604Y-81171D01*
X8626Y-81973D01*
X7824Y-82951D01*
X7228Y-84066D01*
X6861Y-85277D01*
X6786Y-86036D01*
X13673D01*
Y-80083D01*
D02*
G37*
G36*
X198900Y-53616D02*
X168300D01*
X167617Y-53751D01*
X167038Y-54138D01*
X166651Y-54717D01*
X166516Y-55400D01*
Y-85500D01*
X166651Y-86183D01*
X167038Y-86762D01*
X167617Y-87148D01*
X168300Y-87284D01*
X198900D01*
X199583Y-87148D01*
X200162Y-86762D01*
X200549Y-86183D01*
X200684Y-85500D01*
X200684Y-85500D01*
X200684Y-85500D01*
Y-85500D01*
Y-55400D01*
X200549Y-54717D01*
X200162Y-54138D01*
X199583Y-53751D01*
X198900Y-53616D01*
D02*
G37*
G36*
X21561Y-87036D02*
X14673D01*
Y-92988D01*
X15157D01*
X16416Y-92864D01*
X17627Y-92497D01*
X18742Y-91900D01*
X19720Y-91098D01*
X20522Y-90120D01*
X21119Y-89005D01*
X21486Y-87794D01*
X21561Y-87036D01*
D02*
G37*
G36*
X184226Y-96094D02*
X181848D01*
Y-98767D01*
X184226D01*
Y-96094D01*
D02*
G37*
G36*
X15157Y-95674D02*
X14673D01*
Y-101626D01*
X21561D01*
X21486Y-100867D01*
X21119Y-99657D01*
X20522Y-98541D01*
X19720Y-97564D01*
X18742Y-96761D01*
X17627Y-96165D01*
X16416Y-95798D01*
X15157Y-95674D01*
D02*
G37*
G36*
X13673Y-87036D02*
X6786D01*
X6861Y-87794D01*
X7228Y-89005D01*
X7824Y-90120D01*
X8626Y-91098D01*
X9604Y-91900D01*
X10720Y-92497D01*
X11930Y-92864D01*
X13189Y-92988D01*
X13673D01*
Y-87036D01*
D02*
G37*
G36*
X184226Y-92421D02*
X181848D01*
Y-95094D01*
X184226D01*
Y-92421D01*
D02*
G37*
G36*
X13673Y-64493D02*
X13189D01*
X11930Y-64617D01*
X10720Y-64984D01*
X9604Y-65580D01*
X8626Y-66382D01*
X7824Y-67360D01*
X7228Y-68476D01*
X6861Y-69686D01*
X6786Y-70445D01*
X13673D01*
Y-64493D01*
D02*
G37*
G36*
X240356Y-67107D02*
X239381Y-67301D01*
X238755Y-67719D01*
X207744D01*
X207003Y-67866D01*
X206374Y-68286D01*
X202030Y-72630D01*
X201610Y-73259D01*
X201463Y-74000D01*
Y-110698D01*
X200525Y-111635D01*
X197460D01*
X197435Y-111604D01*
X197429Y-111635D01*
X196167D01*
X196119Y-111603D01*
X195303Y-111441D01*
X194016D01*
Y-109472D01*
X193728D01*
X193097Y-109598D01*
X192710Y-109281D01*
Y-108848D01*
X192558Y-108081D01*
Y-105267D01*
X193498D01*
X193498Y-105267D01*
Y-105267D01*
X193951Y-105300D01*
D01*
X194145Y-106275D01*
X194698Y-107102D01*
X195525Y-107655D01*
X196500Y-107849D01*
X197476Y-107655D01*
X198302Y-107102D01*
X198855Y-106275D01*
X199049Y-105300D01*
X199076Y-105267D01*
X199404D01*
Y-98921D01*
X198463D01*
Y-94127D01*
X198881Y-93501D01*
X199075Y-92526D01*
X198881Y-91550D01*
X198328Y-90724D01*
X197501Y-90171D01*
X196526Y-89977D01*
X195551Y-90171D01*
X194724Y-90724D01*
X194171Y-91550D01*
X193998Y-92421D01*
X193998D01*
X193509D01*
D01*
D01*
X193509D01*
D01*
D01*
Y-92421D01*
X193479D01*
Y-92421D01*
X187958D01*
X187958Y-92421D01*
Y-92421D01*
X187753Y-92421D01*
X187679D01*
X187604D01*
X187400Y-92421D01*
X187400Y-92421D01*
Y-92421D01*
X185226D01*
Y-95595D01*
Y-98767D01*
X187389D01*
X187742Y-99120D01*
Y-105267D01*
X188683D01*
Y-107922D01*
X188610Y-108032D01*
X188447Y-108848D01*
Y-110301D01*
X188126D01*
Y-118495D01*
Y-126687D01*
X188447D01*
Y-128139D01*
X188610Y-128955D01*
X189072Y-129647D01*
X189763Y-130109D01*
X190579Y-130271D01*
X191394Y-130109D01*
X192086Y-129647D01*
X192325Y-129289D01*
X193350D01*
X202024Y-137963D01*
X202024D01*
X202024Y-137963D01*
X202024Y-137963D01*
Y-137963D01*
X202652Y-138383D01*
X203394Y-138531D01*
X203842D01*
Y-139767D01*
X203942D01*
Y-145967D01*
X209698D01*
X209698Y-145967D01*
Y-145967D01*
X209698D01*
X209848D01*
X210052Y-145967D01*
X210052Y-145967D01*
Y-145967D01*
X212226D01*
Y-142793D01*
X212725D01*
Y-142294D01*
X215604D01*
Y-139620D01*
X215504D01*
Y-138531D01*
X216193D01*
X216818Y-138949D01*
X217794Y-139143D01*
X218769Y-138949D01*
X219596Y-138396D01*
X220149Y-137569D01*
X220343Y-136594D01*
X220149Y-135618D01*
X219596Y-134791D01*
X218769Y-134239D01*
X217794Y-134045D01*
X216818Y-134239D01*
X216193Y-134657D01*
X215504D01*
Y-133421D01*
X209952D01*
X209952Y-133421D01*
Y-133421D01*
X209748Y-133421D01*
X209673D01*
X209598D01*
X209395Y-133421D01*
X209395Y-133421D01*
Y-133421D01*
X203842D01*
Y-133650D01*
X203381Y-133841D01*
X197686Y-128146D01*
X197800Y-127932D01*
X198628Y-127768D01*
X199930Y-129070D01*
X200559Y-129490D01*
X201300Y-129637D01*
X203643D01*
Y-130767D01*
X209398D01*
Y-130767D01*
X209398D01*
X209398Y-130767D01*
X209548D01*
Y-130767D01*
X215304D01*
Y-124645D01*
X215366D01*
Y-118298D01*
X214809D01*
Y-117200D01*
X215300Y-117102D01*
X215306Y-117117D01*
X215947Y-117953D01*
X216783Y-118594D01*
X217756Y-118997D01*
X218800Y-119134D01*
X219844Y-118997D01*
X220817Y-118594D01*
X221653Y-117953D01*
X222294Y-117117D01*
X222579Y-116428D01*
X223079D01*
X223406Y-117217D01*
X224047Y-118053D01*
X224883Y-118694D01*
X225856Y-119097D01*
X226900Y-119235D01*
X227944Y-119097D01*
X228917Y-118694D01*
X229753Y-118053D01*
X230394Y-117217D01*
X230797Y-116244D01*
X230935Y-115200D01*
X230797Y-114156D01*
X230394Y-113183D01*
X229753Y-112347D01*
X228917Y-111706D01*
Y-111294D01*
X229753Y-110653D01*
X230394Y-109817D01*
X230797Y-108844D01*
X230935Y-107800D01*
X230797Y-106756D01*
X230394Y-105783D01*
X229753Y-104947D01*
X228917Y-104306D01*
X227944Y-103903D01*
X226900Y-103765D01*
X225856Y-103903D01*
X224883Y-104306D01*
X224047Y-104947D01*
X223406Y-105783D01*
X223121Y-106472D01*
X222621D01*
X222294Y-105683D01*
X221653Y-104847D01*
X220817Y-104206D01*
X219844Y-103803D01*
X218800Y-103665D01*
X217756Y-103803D01*
X216783Y-104206D01*
X215947Y-104847D01*
X215306Y-105683D01*
X214903Y-106656D01*
X214766Y-107700D01*
X214903Y-108744D01*
X215306Y-109717D01*
X215947Y-110553D01*
X216725Y-111150D01*
Y-111650D01*
X215947Y-112247D01*
X215306Y-113083D01*
X215300Y-113098D01*
X214809Y-113000D01*
Y-112320D01*
X212432D01*
Y-115495D01*
X211432D01*
Y-112320D01*
X209053D01*
D01*
D01*
X209054Y-112320D01*
X208904D01*
Y-112320D01*
X205568D01*
X205251Y-111934D01*
X205337Y-111500D01*
X205337Y-111500D01*
X205337Y-111500D01*
Y-111500D01*
Y-74802D01*
X208546Y-71593D01*
X214100D01*
X214321Y-72042D01*
X213906Y-72583D01*
X213503Y-73556D01*
X213366Y-74600D01*
X213503Y-75644D01*
X213906Y-76617D01*
X214547Y-77453D01*
X215325Y-78050D01*
Y-78550D01*
X214547Y-79147D01*
X213906Y-79983D01*
X213503Y-80956D01*
X213366Y-82000D01*
X213503Y-83044D01*
X213906Y-84017D01*
X214547Y-84853D01*
X215383Y-85494D01*
X216356Y-85897D01*
X217400Y-86035D01*
X218444Y-85897D01*
X219417Y-85494D01*
X220253Y-84853D01*
X220894Y-84017D01*
X221179Y-83328D01*
X221679D01*
X222006Y-84117D01*
X222647Y-84953D01*
X223483Y-85594D01*
X224456Y-85997D01*
X225500Y-86134D01*
X226544Y-85997D01*
X227517Y-85594D01*
X228353Y-84953D01*
X228994Y-84117D01*
X229397Y-83144D01*
X229535Y-82100D01*
X229397Y-81056D01*
X228994Y-80083D01*
X228353Y-79247D01*
X227517Y-78606D01*
Y-78194D01*
X228353Y-77553D01*
X228994Y-76717D01*
X229397Y-75744D01*
X229535Y-74700D01*
X229397Y-73656D01*
X228994Y-72683D01*
X228353Y-71847D01*
X228439Y-71593D01*
X238755D01*
X239381Y-72011D01*
X240356Y-72205D01*
X241331Y-72011D01*
X242158Y-71458D01*
X242711Y-70631D01*
X242905Y-69656D01*
X242711Y-68680D01*
X242158Y-67853D01*
X241331Y-67301D01*
X240356Y-67107D01*
D02*
G37*
G36*
X15157Y-64493D02*
X14673D01*
Y-70445D01*
X21561D01*
X21486Y-69686D01*
X21119Y-68476D01*
X20522Y-67360D01*
X19720Y-66382D01*
X18742Y-65580D01*
X17627Y-64984D01*
X16416Y-64617D01*
X15157Y-64493D01*
D02*
G37*
G36*
X21561Y-55854D02*
X14673D01*
Y-61807D01*
X15157D01*
X16416Y-61683D01*
X17627Y-61316D01*
X18742Y-60719D01*
X19720Y-59917D01*
X20522Y-58939D01*
X21119Y-57824D01*
X21486Y-56613D01*
X21561Y-55854D01*
D02*
G37*
G36*
X13673D02*
X6786D01*
X6861Y-56613D01*
X7228Y-57824D01*
X7824Y-58939D01*
X8626Y-59917D01*
X9604Y-60719D01*
X10720Y-61316D01*
X11930Y-61683D01*
X13189Y-61807D01*
X13673D01*
Y-55854D01*
D02*
G37*
G36*
X15157Y-80083D02*
X14673D01*
Y-86036D01*
X21561D01*
X21486Y-85277D01*
X21119Y-84066D01*
X20522Y-82951D01*
X19720Y-81973D01*
X18742Y-81171D01*
X17627Y-80575D01*
X16416Y-80207D01*
X15157Y-80083D01*
D02*
G37*
G36*
X13673Y-71445D02*
X6786D01*
X6861Y-72204D01*
X7228Y-73414D01*
X7824Y-74530D01*
X8626Y-75507D01*
X9604Y-76310D01*
X10720Y-76906D01*
X11930Y-77273D01*
X13189Y-77397D01*
X13673D01*
Y-71445D01*
D02*
G37*
G36*
X305709Y-64492D02*
X303740D01*
X302481Y-64616D01*
X301271Y-64983D01*
X300155Y-65580D01*
X299178Y-66382D01*
X298375Y-67360D01*
X297779Y-68476D01*
X297412Y-69686D01*
X297288Y-70945D01*
X297412Y-72203D01*
X297779Y-73414D01*
X298375Y-74529D01*
X299178Y-75507D01*
X300155Y-76310D01*
X301271Y-76906D01*
X302481Y-77273D01*
X303740Y-77397D01*
X305709D01*
X306967Y-77273D01*
X308178Y-76906D01*
X309293Y-76310D01*
X310271Y-75507D01*
X311074Y-74529D01*
X311670Y-73414D01*
X312037Y-72203D01*
X312161Y-70945D01*
X312037Y-69686D01*
X311670Y-68476D01*
X311074Y-67360D01*
X310271Y-66382D01*
X309293Y-65580D01*
X308178Y-64983D01*
X306967Y-64616D01*
X305709Y-64492D01*
D02*
G37*
G36*
X21561Y-71445D02*
X14673D01*
Y-77397D01*
X15157D01*
X16416Y-77273D01*
X17627Y-76906D01*
X18742Y-76310D01*
X19720Y-75507D01*
X20522Y-74530D01*
X21119Y-73414D01*
X21486Y-72204D01*
X21561Y-71445D01*
D02*
G37*
%LPD*%
G36*
X80730Y5330D02*
X81359Y4910D01*
X82100Y4763D01*
X86348D01*
Y3300D01*
X89227D01*
Y2300D01*
X86348D01*
Y-373D01*
X86453D01*
Y-1263D01*
X85802D01*
X77791Y6749D01*
X77163Y7169D01*
X76421Y7316D01*
X74760D01*
X74735Y7347D01*
X74572Y8163D01*
X74460Y8331D01*
X74572Y8500D01*
X74635Y8816D01*
X74137D01*
X74111Y8855D01*
X73420Y9316D01*
X73467Y9347D01*
X74729D01*
X74735Y9316D01*
X74760Y9347D01*
X76713D01*
X80730Y5330D01*
D02*
G37*
D21*
X194516Y-115541D02*
X205979D01*
X206026Y-115494D01*
X194516Y-121447D02*
X206557D01*
X206583Y-121472D01*
X212488Y-127532D02*
Y-121472D01*
X212426Y-127594D02*
X212488Y-127532D01*
X198984Y-125383D02*
X201300Y-127700D01*
X206414D01*
X206521Y-127594D01*
X190579Y-127352D02*
X194152D01*
X203394Y-136594D02*
X206720D01*
X194152Y-127352D02*
X203394Y-136594D01*
X206720Y-142694D02*
Y-136594D01*
Y-142694D02*
X206821Y-142794D01*
X169026Y-115994D02*
X172794D01*
X176278Y-119478D02*
X180736D01*
X172794Y-115994D02*
X176278Y-119478D01*
X162526Y-115994D02*
X169026D01*
X156306Y-121114D02*
Y-115200D01*
X156226Y-121194D02*
X156306Y-121114D01*
X156226Y-121194D02*
X162232D01*
X150320Y-127326D02*
Y-121194D01*
Y-127326D02*
X150394Y-127400D01*
X156300D02*
X162532D01*
X162626Y-127494D01*
X160088Y-110088D02*
X162526D01*
X159300Y-109300D02*
X160088Y-110088D01*
X156306Y-109300D02*
X159300D01*
X150400Y-115200D02*
Y-109300D01*
X160926Y-94994D02*
X164394D01*
X179035Y-109635D02*
X184673D01*
X164394Y-94994D02*
X179035Y-109635D01*
X155000Y-94973D02*
Y-89100D01*
Y-94973D02*
X155020Y-94994D01*
Y-100994D02*
Y-94994D01*
X160926Y-100994D02*
X163694D01*
X176272Y-113572D01*
X180736D01*
X190631Y-102083D02*
Y-95594D01*
X190621Y-102094D02*
X190631Y-102083D01*
X190621Y-109594D02*
Y-102094D01*
X190579Y-109635D02*
X190621Y-109594D01*
X162526Y-121488D02*
X162626Y-121588D01*
X162232Y-121194D02*
X162526Y-121488D01*
Y-115994D01*
X162626Y-127494D02*
X169506D01*
X175554Y-121447D02*
X180736D01*
X169506Y-127494D02*
X175554Y-121447D01*
X176785Y-123415D02*
X180736D01*
X161726Y-134294D02*
X165906D01*
X176785Y-123415D01*
X180648Y-127352D02*
X184673D01*
X177326Y-137994D02*
Y-130674D01*
X180648Y-127352D01*
X161531Y-140694D02*
X165426D01*
X161531Y-146894D02*
X163606D01*
X172506Y-137994D02*
X177326D01*
X163606Y-146894D02*
X172506Y-137994D01*
X196526Y-105274D02*
Y-102094D01*
X196500Y-105300D02*
X196526Y-105274D01*
Y-102094D02*
Y-92526D01*
X194516Y-125383D02*
X197800D01*
X194516Y-113572D02*
X201328D01*
X203400Y-111500D01*
Y-74000D01*
X207744Y-69656D01*
X240356D01*
X194516Y-123415D02*
X202385D01*
X202400Y-123400D01*
X48373Y7347D02*
X58036D01*
X47926Y6900D02*
X48373Y7347D01*
X42126Y13400D02*
Y19600D01*
X48031D02*
X51400D01*
X53810Y17190D02*
X58036D01*
X51400Y19600D02*
X53810Y17190D01*
X48179Y13253D02*
X58036D01*
X48031Y13400D02*
X48179Y13253D01*
X61973Y19158D02*
Y24927D01*
X56532Y27100D02*
X59800D01*
X61973Y24927D01*
X56532Y27100D02*
Y33889D01*
X56420Y34000D02*
X56532Y33889D01*
X67879Y19158D02*
X70058D01*
X72500Y21600D01*
Y33874D01*
X73226Y34600D01*
X82700Y39600D02*
X89420D01*
X81040Y33740D02*
X89420D01*
X73226Y34600D02*
X77700D01*
X82700Y39600D01*
X89420Y22020D02*
Y27880D01*
X89420Y22020D02*
X89420Y22020D01*
X75000Y27700D02*
X81040Y33740D01*
X71816Y15221D02*
X74260D01*
X81038Y22000D02*
X83100D01*
X74260Y15221D02*
X81038Y22000D01*
X71816Y13253D02*
X75753D01*
X78800Y16300D01*
X83000D01*
X83100Y16200D01*
X89380D01*
X89420Y16160D01*
X83100Y10294D02*
X89415D01*
X89420Y10300D01*
X95326Y8326D02*
Y10300D01*
X71816Y11284D02*
X77516D01*
X93700Y6700D02*
X95326Y8326D01*
X82100Y6700D02*
X93700D01*
X77516Y11284D02*
X82100Y6700D01*
X95326Y16160D02*
Y22020D01*
Y10300D02*
Y16160D01*
Y10300D02*
X95326Y10300D01*
X95771Y16605D02*
X101126D01*
X95326Y16160D02*
X95771Y16605D01*
X71816Y5379D02*
X76421D01*
X85000Y-3200D02*
X89332D01*
X76421Y5379D02*
X85000Y-3200D01*
X95131Y-3094D02*
Y2800D01*
Y-3094D02*
X95237Y-3200D01*
Y-9500D02*
Y-3200D01*
X67879Y1442D02*
X72858D01*
X83800Y-9500D02*
X89332D01*
X72858Y1442D02*
X83800Y-9500D01*
X60542Y1442D02*
X61973D01*
X57721Y-11100D02*
Y-4611D01*
X57731Y-4600D01*
X58200Y-4132D01*
Y-900D02*
X60542Y1442D01*
X58200Y-4132D02*
Y-900D01*
X102600Y10700D02*
Y16694D01*
Y10700D02*
X102800Y10500D01*
X95326Y27880D02*
X101120D01*
X102600Y22600D02*
Y26400D01*
X101120Y27880D02*
X102600Y26400D01*
X52574Y42474D02*
X73226D01*
X50700Y40600D02*
X52574Y42474D01*
X50700Y27174D02*
Y40600D01*
X50626Y27100D02*
X50700Y27174D01*
X3500Y-145200D02*
X5100Y-146800D01*
X45700D01*
X52979Y15221D02*
X58036D01*
X51826Y-4600D02*
Y2426D01*
X52700Y3300D01*
X54300Y6047D02*
X54969Y5379D01*
X52147Y6047D02*
X54300D01*
X49000Y2900D02*
X52147Y6047D01*
X54969Y5379D02*
X58036D01*
X188610Y-117509D02*
X194516D01*
X187626Y-118494D02*
X188610Y-117509D01*
Y-119478D02*
X194516D01*
X187626Y-118494D02*
X188610Y-119478D01*
X180736Y-117509D02*
X186642D01*
X187626Y-118494D01*
Y-115726D01*
X183504Y-111604D02*
X187626Y-115726D01*
X180736Y-111604D02*
X183504D01*
X58036Y11284D02*
X63942D01*
X64926Y10300D01*
X58036Y9316D02*
X63942D01*
X64926Y10300D01*
X65910Y9316D02*
X71816D01*
X64926Y10300D02*
X65910Y9316D01*
X58036Y3410D02*
X60290D01*
X60300Y3400D01*
X64926Y8026D01*
X69610Y3410D02*
X71816D01*
X69600Y3400D02*
X69610Y3410D01*
X64926Y8074D02*
Y10300D01*
Y8074D02*
X69600Y3400D01*
X212626Y-136594D02*
X217794D01*
X217800Y-136600D01*
X177326Y-149974D02*
Y-145868D01*
X177300Y-150000D02*
X177326Y-149974D01*
X79606Y27905D02*
X83100D01*
X79600Y27900D02*
X79606Y27905D01*
X111200Y22600D02*
X114500Y19300D01*
X102600Y22600D02*
X111200D01*
X114500Y-1200D02*
Y19300D01*
X107279Y15221D02*
X108879D01*
X111900Y12200D01*
Y-12500D02*
Y12200D01*
Y-12500D02*
X119600Y-20200D01*
X169026Y-124974D02*
Y-121899D01*
X169000Y-125000D02*
X169026Y-124974D01*
X177816Y-125383D02*
X180736D01*
X173910Y-132210D02*
X174100Y-132020D01*
X165426Y-140694D02*
X173910Y-132210D01*
X174100Y-132020D02*
Y-129100D01*
X177816Y-125383D01*
X75000Y18590D02*
Y27700D01*
X71816Y17190D02*
X73600D01*
X75000Y18590D01*
X150400Y-109300D02*
Y-2800D01*
X37500Y27100D02*
X41200D01*
X50626D01*
X12400D02*
X41200D01*
X3500Y18200D02*
X12400Y27100D01*
X3500Y-145200D02*
Y-21900D01*
Y18200D01*
X119600Y-46000D02*
Y-20200D01*
X39100Y-109300D02*
Y-82100D01*
Y-109300D02*
X42400Y-112600D01*
X128600Y-60600D02*
Y-55000D01*
X119600Y-46000D02*
X128600Y-55000D01*
X51826Y-41295D02*
Y-4600D01*
Y-41295D02*
X54431Y-43900D01*
X92950Y-120850D02*
X126850D01*
X128700Y-119000D01*
X30700Y-60400D02*
Y-32300D01*
X49000Y-14000D02*
Y2900D01*
X30700Y-32300D02*
X49000Y-14000D01*
X42400Y-112600D02*
X95500D01*
X54431Y-43900D02*
X94100D01*
X96500Y-87000D02*
Y-46300D01*
X94100Y-43900D02*
X96500Y-46300D01*
D26*
X15037Y-55135D02*
D03*
Y-70726D02*
D03*
Y-86316D02*
D03*
Y-101907D02*
D03*
Y-117498D02*
D03*
Y-133088D02*
D03*
D33*
X0Y51200D02*
X318898D01*
Y-157480D02*
Y51200D01*
X0Y-157480D02*
X318898D01*
X0D02*
Y51200D01*
X41100Y-55700D02*
X92600D01*
X41100Y-108600D02*
Y-55700D01*
Y-108600D02*
X92600D01*
Y-55700D01*
X168000Y-85500D02*
X199300D01*
X168000Y-55000D02*
X199300D01*
Y-85500D02*
Y-55000D01*
X168000Y-85500D02*
Y-55000D01*
D34*
X14173Y-39764D02*
D03*
Y-55354D02*
D03*
Y-86536D02*
D03*
Y-70945D02*
D03*
Y-133307D02*
D03*
Y-117717D02*
D03*
Y-102126D02*
D03*
X304724Y-55354D02*
D03*
Y-39764D02*
D03*
Y-24173D02*
D03*
Y-86535D02*
D03*
Y-70945D02*
D03*
Y-102126D02*
D03*
Y-117717D02*
D03*
D35*
X14173Y-24173D02*
D03*
X304724Y-133307D02*
D03*
D36*
X196500Y-105300D02*
D03*
X196526Y-92526D02*
D03*
X197800Y-125383D02*
D03*
X240356Y-69656D02*
D03*
X202385Y-123415D02*
D03*
X114500Y-1200D02*
D03*
X45700Y-146800D02*
D03*
X52979Y15221D02*
D03*
X107279D02*
D03*
X92950Y-120850D02*
D03*
X51400Y19600D02*
D03*
X52700Y3300D02*
D03*
X177400Y-150000D02*
D03*
X217794Y-136594D02*
D03*
X79606Y27905D02*
D03*
X83600Y3100D02*
D03*
X169000Y-125000D02*
D03*
X128600Y-119000D02*
D03*
X96500Y-87000D02*
D03*
X30700Y-60400D02*
D03*
X128600Y-60600D02*
D03*
X39100Y-82100D02*
D03*
X95500Y-112600D02*
D03*
D37*
X237100Y-146200D02*
D03*
X247367D02*
D03*
X257633D02*
D03*
X267900D02*
D03*
X278167D02*
D03*
X288433D02*
D03*
X298700D02*
D03*
X238067Y-114400D02*
D03*
X248333D02*
D03*
X258600D02*
D03*
X268867D02*
D03*
X279133D02*
D03*
X289400D02*
D03*
X237967Y-121600D02*
D03*
X248233D02*
D03*
X258500D02*
D03*
X268767D02*
D03*
X279033D02*
D03*
X289300D02*
D03*
X218800Y-115100D02*
D03*
X226900Y-115200D02*
D03*
Y-107800D02*
D03*
X218800Y-107700D02*
D03*
X217400Y-82000D02*
D03*
X225500Y-82100D02*
D03*
Y-74700D02*
D03*
X217400Y-74600D02*
D03*
X114728Y-100817D02*
D03*
Y-109059D02*
D03*
X100500Y-134800D02*
D03*
Y-141700D02*
D03*
X115900Y-136200D02*
D03*
X116000Y-144500D02*
D03*
X123400Y-136500D02*
D03*
X123700Y-144200D02*
D03*
D38*
X277900Y-86700D02*
D03*
X272040D02*
D03*
X266180D02*
D03*
X260320D02*
D03*
X254460D02*
D03*
X248600D02*
D03*
X277800Y-81700D02*
D03*
X271940D02*
D03*
X266080D02*
D03*
X260220D02*
D03*
X254360D02*
D03*
X248500D02*
D03*
X132600Y-127100D02*
D03*
Y-121240D02*
D03*
Y-115380D02*
D03*
Y-109520D02*
D03*
Y-103660D02*
D03*
Y-97800D02*
D03*
X142700Y-127300D02*
D03*
Y-121440D02*
D03*
Y-115580D02*
D03*
Y-109720D02*
D03*
Y-103860D02*
D03*
Y-98000D02*
D03*
X35400Y-120300D02*
D03*
Y-114440D02*
D03*
Y-108580D02*
D03*
Y-102720D02*
D03*
Y-96860D02*
D03*
X35300Y-126700D02*
D03*
X124300Y-37600D02*
D03*
Y-31740D02*
D03*
Y-25880D02*
D03*
Y-20020D02*
D03*
Y-14160D02*
D03*
Y-8300D02*
D03*
X48100Y-123400D02*
D03*
X53960D02*
D03*
X59820D02*
D03*
X65680D02*
D03*
X71540D02*
D03*
X77400D02*
D03*
X48200Y-128300D02*
D03*
X54060D02*
D03*
X59920D02*
D03*
X65780D02*
D03*
X71640D02*
D03*
X77500D02*
D03*
X112200Y-18500D02*
D03*
X113300Y-33700D02*
D03*
X107440D02*
D03*
X101580D02*
D03*
X95720D02*
D03*
X89860D02*
D03*
X84000D02*
D03*
X113200Y-28800D02*
D03*
X107340D02*
D03*
X101480D02*
D03*
X95620D02*
D03*
X89760D02*
D03*
X83900D02*
D03*
X90100Y-23000D02*
D03*
X84240D02*
D03*
X78380D02*
D03*
X72520D02*
D03*
X66660D02*
D03*
X60800D02*
D03*
X90000Y-18100D02*
D03*
X84140D02*
D03*
X78280D02*
D03*
X72420D02*
D03*
X66560D02*
D03*
X60700D02*
D03*
X249600Y30800D02*
D03*
X255460D02*
D03*
X261320D02*
D03*
X267180D02*
D03*
X273040D02*
D03*
X278900D02*
D03*
X278700Y35900D02*
D03*
X272840D02*
D03*
X266980D02*
D03*
X261120D02*
D03*
X255260D02*
D03*
X249400D02*
D03*
X249700Y16700D02*
D03*
X255560D02*
D03*
X261420D02*
D03*
X267280D02*
D03*
X273140D02*
D03*
X279000D02*
D03*
X278800Y21800D02*
D03*
X272940D02*
D03*
X267080D02*
D03*
X261220D02*
D03*
X255360D02*
D03*
X249500D02*
D03*
X172900Y33100D02*
D03*
X178760D02*
D03*
X184620D02*
D03*
X190480D02*
D03*
X196340D02*
D03*
X202200D02*
D03*
X202000Y38200D02*
D03*
X196140D02*
D03*
X190280D02*
D03*
X184420D02*
D03*
X178560D02*
D03*
X172700D02*
D03*
X203700Y-11200D02*
D03*
X209560D02*
D03*
X215420D02*
D03*
X221280D02*
D03*
X227140D02*
D03*
X233000D02*
D03*
X203800Y-16200D02*
D03*
X209660D02*
D03*
X215520D02*
D03*
X221380D02*
D03*
X227240D02*
D03*
X233100D02*
D03*
X245800Y-11500D02*
D03*
X251660D02*
D03*
X257520D02*
D03*
X263380D02*
D03*
X269240D02*
D03*
X275100D02*
D03*
X245900Y-16500D02*
D03*
X251760D02*
D03*
X257620D02*
D03*
X263480D02*
D03*
X269340D02*
D03*
X275200D02*
D03*
X70700Y-52400D02*
D03*
X55400Y-51600D02*
D03*
X38800Y-52500D02*
D03*
X34800Y-49000D02*
D03*
D39*
X187626Y-115726D02*
D03*
X187500Y-122500D02*
D03*
X64926Y12269D02*
D03*
X65100Y6300D02*
D03*
X104100Y36700D02*
D03*
X113300Y26800D02*
D03*
X123803Y-44300D02*
D03*
X45000Y24200D02*
D03*
X199500Y-107600D02*
D03*
X150400Y-2800D02*
D03*
D40*
X187626Y-118494D02*
D03*
X64926Y10300D02*
D03*
D41*
X184673Y-127352D02*
D03*
X190579D02*
D03*
Y-109635D02*
D03*
X184673D02*
D03*
X67879Y19158D02*
D03*
X61973D02*
D03*
Y1442D02*
D03*
X67879D02*
D03*
D42*
X194516Y-125383D02*
D03*
Y-123415D02*
D03*
Y-121447D02*
D03*
Y-119478D02*
D03*
Y-117509D02*
D03*
Y-115541D02*
D03*
Y-113572D02*
D03*
Y-111604D02*
D03*
X180736D02*
D03*
Y-113572D02*
D03*
Y-115541D02*
D03*
Y-117509D02*
D03*
Y-119478D02*
D03*
Y-121447D02*
D03*
Y-123415D02*
D03*
Y-125383D02*
D03*
X58036Y17190D02*
D03*
Y15221D02*
D03*
Y13253D02*
D03*
Y11284D02*
D03*
Y9316D02*
D03*
Y7347D02*
D03*
Y5379D02*
D03*
Y3410D02*
D03*
X71816D02*
D03*
Y5379D02*
D03*
Y7347D02*
D03*
Y9316D02*
D03*
Y11284D02*
D03*
Y13253D02*
D03*
Y15221D02*
D03*
Y17190D02*
D03*
D43*
X196526Y-102094D02*
D03*
X190621D02*
D03*
X190631Y-95594D02*
D03*
X184726D02*
D03*
X211931Y-115494D02*
D03*
X206026D02*
D03*
X212626Y-136594D02*
D03*
X206720D02*
D03*
X212488Y-121472D02*
D03*
X206583D02*
D03*
X206821Y-142794D02*
D03*
X212726D02*
D03*
X206521Y-127594D02*
D03*
X212426D02*
D03*
X160926Y-100994D02*
D03*
X155020D02*
D03*
X155626Y-146894D02*
D03*
X161531D02*
D03*
X155626Y-140694D02*
D03*
X161531D02*
D03*
X150400Y-109300D02*
D03*
X156306D02*
D03*
X150400Y-115200D02*
D03*
X156306D02*
D03*
X160926Y-94994D02*
D03*
X155020D02*
D03*
X156226Y-121194D02*
D03*
X150320D02*
D03*
X160906Y-89100D02*
D03*
X155000D02*
D03*
X150394Y-127400D02*
D03*
X156300D02*
D03*
X155821Y-134294D02*
D03*
X161726D02*
D03*
X95326Y39600D02*
D03*
X89420D02*
D03*
X95326Y33740D02*
D03*
X89420D02*
D03*
X95326Y27880D02*
D03*
X89420D02*
D03*
X89332Y-9500D02*
D03*
X95237D02*
D03*
X95326Y10300D02*
D03*
X89420D02*
D03*
X89332Y-3200D02*
D03*
X95237D02*
D03*
X51826Y-4600D02*
D03*
X57731D02*
D03*
X50626Y27100D02*
D03*
X56532D02*
D03*
X42126Y13400D02*
D03*
X48031D02*
D03*
X89226Y2800D02*
D03*
X95131D02*
D03*
X89420Y22020D02*
D03*
X95326D02*
D03*
Y16160D02*
D03*
X89420D02*
D03*
X42020Y6900D02*
D03*
X47926D02*
D03*
X57721Y-11100D02*
D03*
X63626D02*
D03*
X56420Y34000D02*
D03*
X62326D02*
D03*
X48031Y19600D02*
D03*
X42126D02*
D03*
D44*
X177326Y-145868D02*
D03*
Y-137994D02*
D03*
X73226Y42474D02*
D03*
Y34600D02*
D03*
D45*
X169026Y-115994D02*
D03*
Y-121899D02*
D03*
X162526Y-110088D02*
D03*
Y-115994D02*
D03*
X162626Y-121588D02*
D03*
Y-127494D02*
D03*
X102600Y22600D02*
D03*
Y16694D02*
D03*
X102800Y10500D02*
D03*
Y4594D02*
D03*
X83100Y27905D02*
D03*
Y22000D02*
D03*
Y10294D02*
D03*
Y16200D02*
D03*
D46*
X14400Y-94350D02*
D03*
D47*
X187800Y-120187D02*
D03*
D48*
X65050Y9500D02*
D03*
M02*
