;TYPE=PLATED
;Layer: PTH_Through_Via
;EasyEDA Pro v2.2.37.7, 2025-04-09 10:13:22
;Gerber Generator version 0.3
M48
METRIC,LZ,0000.00000
;Hole size 1 = 0.30480 METRIC
T01C0.30480
;Hole size 2 = 0.30500 METRIC
T02C0.30500
%
G05
G90
T01
X43.14495Y-38.06495
X43.14495Y-36.86505
X41.94505Y-36.86505
X41.94505Y-38.06495
T02
X46.863Y-33.655
X32.258Y-11.811
X45.974Y-28.448
X36.322Y-23.114
X47.498Y-38.227
X42.799Y-19.177
X37.973Y-38.44011
X29.591Y-40.386
X38.1701Y-36.48989
X36.957Y-36.068
X39.624Y-33.02
X39.116Y-29.591
X33.147Y-38.354
X46.99Y-39.74008
X26.67Y-28.067
X17.907Y-9.652
X32.639Y-26.67
X18.6149Y-9.652
X32.639Y-25.94316
X47.498Y-43.18
X48.86961Y-43.18
X50.165Y-43.18
X50.165Y-44.28603
X48.91421Y-44.28603
X47.48707Y-44.28603
X47.48707Y-45.75776
X48.91421Y-45.75776
X50.165Y-45.593
X50.673Y-40.513
X21.844Y-28.067
X18.4785Y-35.71279
X15.51273Y-35.71279
X42.799Y-24.257
X42.037Y-24.257
X41.30058Y-24.257
X41.021Y-22.352
X41.021Y-21.61609
X43.688Y-21.209
X44.37289Y-21.209
X55.499Y-1.778
X57.19112Y-1.778
X59.19804Y-1.778
X61.00426Y-1.778
X64.04808Y-1.778
X62.74358Y-1.778
X65.55326Y-1.778
X67.66052Y-1.778
X69.2995Y-1.778
X70.612Y-1.778
X71.882Y-1.778
X61.214Y-19.685
X61.214Y-22.87722
X62.611Y-24.257
X61.22725Y-24.257
X61.214Y-18.65527
X61.214Y-20.58785
X61.214Y-21.82173
X73.37806Y-15.28812
X73.37806Y-13.97247
X73.37806Y-11.22969
X73.37806Y-9.93635
X73.37806Y-18.32078
X73.37811Y-19.48033
X72.31731Y-33.81
X75.565Y-30.58526
X10.0Y-31.369
X11.23652Y-31.369
X11.23652Y-35.85155
X10.0Y-35.87384
X8.64983Y-35.87384
X7.75787Y-35.87384
X7.75787Y-34.6697
X7.64637Y-33.81
X7.64637Y-32.3952
X7.64637Y-31.39174
X8.78362Y-31.39174
X12.0Y-33.93383
X14.72632Y-47.33303
X16.42104Y-47.33303
X18.27187Y-47.33303
X19.58751Y-47.33303
X14.605Y-35.687
X15.875Y-28.702
X15.875Y-26.94866
X15.875Y-25.41002
X15.875Y-23.6261
X15.875Y-22.17666
X15.875Y-20.57113
X15.875Y-18.8764
X15.875Y-17.38237
X15.875Y-15.84373
X15.875Y-14.48349
X16.383Y-13.589
X19.939Y-13.589
X17.526Y-13.589
X19.03171Y-13.55166
X11.78311Y-13.335
X10.033Y-9.144
X19.03171Y-22.89023
X19.03171Y-18.29663
X20.828Y-20.701
X20.828Y-18.34123
X20.828Y-19.54537
X20.828Y-21.86447
X20.828Y-22.93483
X42.56109Y-31.877
X40.132Y-29.57994
X35.052Y-35.433
X32.66032Y-35.433
X29.591Y-35.687
X37.8783Y-46.863
X52.07Y-39.116
X59.69Y-40.005
X56.74886Y-40.005
X56.769Y-42.545
X56.769Y-44.91053
X59.79268Y-44.91053
X59.79268Y-42.60258
X56.769Y-37.338
X59.92647Y-37.338
X63.5Y-34.544
X62.484Y-35.433
X64.516Y-33.782
X65.532Y-32.893
X66.421Y-31.877
X67.056Y-31.242
X64.262Y-29.845
X63.5Y-30.734
X62.484Y-31.623
X61.468Y-32.385
X60.833Y-33.274
X59.69Y-34.163
X58.801Y-34.925
X57.785Y-35.941
X47.244Y-24.638
X48.25292Y-24.638
X49.42362Y-24.638
X50.66122Y-24.638
X42.799Y-25.146
X42.06494Y-25.146
X41.16183Y-25.146
X41.91Y-20.193
X49.911Y-34.29
X49.911Y-32.9025
X49.911Y-31.02938
X49.911Y-29.55764
X51.689Y-29.591
X51.689Y-31.02938
X51.689Y-32.8356
X51.689Y-34.30734
X35.433Y-29.591
X34.544Y-29.591
X28.575Y-28.956
X29.48766Y-28.956
X30.46882Y-28.956
X28.575Y-27.178
X29.50996Y-27.178
X30.49112Y-27.178
X31.75Y-24.638
X31.75Y-25.56302
X31.75Y-26.49958
X33.655Y-24.638
X33.655Y-25.56302
X33.655Y-26.54417
X37.592Y-28.956
X37.592Y-27.32464
X30.988Y-11.811
X31.623Y-12.446
X32.258Y-13.081
X29.64004Y-13.081
X30.353Y-13.716
X30.988Y-14.478
X47.498Y-49.276
X48.641Y-49.276
X48.641Y-47.625
X47.51561Y-47.625
X51.943Y-47.244
X51.054Y-48.26
X48.26Y-40.513
X52.08031Y-40.513
X73.37806Y-21.336
X75.565Y-25.07688
X11.78311Y-16.891
X12.192Y-11.303
X10.03173Y-10.93929
X21.59Y-12.192
X41.148Y-19.431
X31.877Y-41.656
X31.242Y-42.291
X30.607Y-43.053
X29.845Y-43.815
X31.30573Y-44.78995
X31.877Y-44.069
X32.639Y-43.434
X33.528Y-42.545
X34.671Y-42.545
X32.512Y-41.148
X51.689Y-27.813
X67.34825Y-33.81
X41.021Y-16.51
X41.77822Y-16.51
M30