G04 Layer: TopSilkscreenLayer*
G04 EasyEDA Pro v2.2.37.7, 2025-04-09 10:13:22*
G04 Gerber Generator version 0.3*
G04 Scale: 100 percent, Rotated: No, Reflected: No*
G04 Dimensions in millimeters*
G04 Leading zeros omitted, absolute positions, 4 integers and 5 decimals*
%FSLAX45Y45*%
%MOMM*%
%ADD10C,0.3*%
%ADD11C,0.1524*%
%ADD12C,0.254*%
%ADD13C,0.15199*%
%ADD14C,0.4*%
G75*


G04 Text Start*
G54D10*
G01X1348486Y-2513076D02*
G01X1348486Y-2693416D01*
G01X1419606Y-2513076D02*
G01X1419606Y-2693416D01*
G01X1419606Y-2513076D02*
G01X1540002Y-2693416D01*
G01X1540002Y-2513076D02*
G01X1540002Y-2693416D01*
G01X1688592Y-2538984D02*
G01X1688592Y-2693416D01*
G01X1611122Y-2616200D02*
G01X1765808Y-2616200D01*
G01X1451864Y-3292602D02*
G01X1443228Y-3275584D01*
G01X1426210Y-3258312D01*
G01X1408938Y-3249676D01*
G01X1374648Y-3249676D01*
G01X1357376Y-3258312D01*
G01X1340358Y-3275584D01*
G01X1331722Y-3292602D01*
G01X1323086Y-3318510D01*
G01X1323086Y-3361436D01*
G01X1331722Y-3387090D01*
G01X1340358Y-3404362D01*
G01X1357376Y-3421380D01*
G01X1374648Y-3430016D01*
G01X1408938Y-3430016D01*
G01X1426210Y-3421380D01*
G01X1443228Y-3404362D01*
G01X1451864Y-3387090D01*
G01X1451864Y-3361436D01*
G01X1408938Y-3361436D02*
G01X1451864Y-3361436D01*
G01X1522984Y-3249676D02*
G01X1522984Y-3430016D01*
G01X1522984Y-3249676D02*
G01X1643380Y-3430016D01*
G01X1643380Y-3249676D02*
G01X1643380Y-3430016D01*
G01X1714500Y-3249676D02*
G01X1714500Y-3430016D01*
G01X1714500Y-3249676D02*
G01X1774698Y-3249676D01*
G01X1800352Y-3258312D01*
G01X1817624Y-3275584D01*
G01X1826260Y-3292602D01*
G01X1834896Y-3318510D01*
G01X1834896Y-3361436D01*
G01X1826260Y-3387090D01*
G01X1817624Y-3404362D01*
G01X1800352Y-3421380D01*
G01X1774698Y-3430016D01*
G01X1714500Y-3430016D01*
G01X6239764Y-3305302D02*
G01X6231128Y-3288284D01*
G01X6214110Y-3271012D01*
G01X6196838Y-3262376D01*
G01X6162548Y-3262376D01*
G01X6145276Y-3271012D01*
G01X6128258Y-3288284D01*
G01X6119622Y-3305302D01*
G01X6110986Y-3331210D01*
G01X6110986Y-3374136D01*
G01X6119622Y-3399790D01*
G01X6128258Y-3417062D01*
G01X6145276Y-3434080D01*
G01X6162548Y-3442716D01*
G01X6196838Y-3442716D01*
G01X6214110Y-3434080D01*
G01X6231128Y-3417062D01*
G01X6239764Y-3399790D01*
G01X6239764Y-3374136D01*
G01X6196838Y-3374136D02*
G01X6239764Y-3374136D01*
G01X6310884Y-3262376D02*
G01X6310884Y-3442716D01*
G01X6310884Y-3262376D02*
G01X6431280Y-3442716D01*
G01X6431280Y-3262376D02*
G01X6431280Y-3442716D01*
G01X6502400Y-3262376D02*
G01X6502400Y-3442716D01*
G01X6502400Y-3262376D02*
G01X6562598Y-3262376D01*
G01X6588252Y-3271012D01*
G01X6605524Y-3288284D01*
G01X6614160Y-3305302D01*
G01X6622796Y-3331210D01*
G01X6622796Y-3374136D01*
G01X6614160Y-3399790D01*
G01X6605524Y-3417062D01*
G01X6588252Y-3434080D01*
G01X6562598Y-3442716D01*
G01X6502400Y-3442716D01*
G01X6035548Y-2500376D02*
G01X6018276Y-2509012D01*
G01X6001258Y-2526284D01*
G01X5992622Y-2543302D01*
G01X5983986Y-2569210D01*
G01X5983986Y-2612136D01*
G01X5992622Y-2637790D01*
G01X6001258Y-2655062D01*
G01X6018276Y-2672080D01*
G01X6035548Y-2680716D01*
G01X6069838Y-2680716D01*
G01X6087110Y-2672080D01*
G01X6104128Y-2655062D01*
G01X6112764Y-2637790D01*
G01X6121400Y-2612136D01*
G01X6121400Y-2569210D01*
G01X6112764Y-2543302D01*
G01X6104128Y-2526284D01*
G01X6087110Y-2509012D01*
G01X6069838Y-2500376D01*
G01X6035548Y-2500376D01*
G01X6192520Y-2500376D02*
G01X6192520Y-2629154D01*
G01X6201156Y-2655062D01*
G01X6218428Y-2672080D01*
G01X6244082Y-2680716D01*
G01X6261354Y-2680716D01*
G01X6287008Y-2672080D01*
G01X6304280Y-2655062D01*
G01X6312916Y-2629154D01*
G01X6312916Y-2500376D01*
G01X6444234Y-2500376D02*
G01X6444234Y-2680716D01*
G01X6384036Y-2500376D02*
G01X6504432Y-2500376D01*
G01X6653022Y-2526284D02*
G01X6653022Y-2680716D01*
G01X6575552Y-2603500D02*
G01X6730238Y-2603500D01*
G54D11*
G01X4071620Y-3322066D02*
G01X4071620Y-3368548D01*
G01X4074668Y-3377692D01*
G01X4081018Y-3384042D01*
G01X4090162Y-3387090D01*
G01X4096512Y-3387090D01*
G01X4105656Y-3384042D01*
G01X4111752Y-3377692D01*
G01X4115054Y-3368548D01*
G01X4115054Y-3322066D01*
G01X4148328Y-3337560D02*
G01X4148328Y-3334512D01*
G01X4151376Y-3328162D01*
G01X4154424Y-3325114D01*
G01X4160520Y-3322066D01*
G01X4172966Y-3322066D01*
G01X4179316Y-3325114D01*
G01X4182364Y-3328162D01*
G01X4185412Y-3334512D01*
G01X4185412Y-3340608D01*
G01X4182364Y-3346704D01*
G01X4176014Y-3356102D01*
G01X4145280Y-3387090D01*
G01X4188460Y-3387090D01*
G01X3792220Y-4096766D02*
G01X3792220Y-4161790D01*
G01X3792220Y-4161790D02*
G01X3829304Y-4161790D01*
G01X3859530Y-4096766D02*
G01X3859530Y-4161790D01*
G01X3859530Y-4096766D02*
G01X3884168Y-4161790D01*
G01X3909060Y-4096766D02*
G01X3884168Y-4161790D01*
G01X3909060Y-4096766D02*
G01X3909060Y-4161790D01*
G01X3942334Y-4112260D02*
G01X3942334Y-4109212D01*
G01X3945382Y-4102862D01*
G01X3948430Y-4099814D01*
G01X3954526Y-4096766D01*
G01X3966972Y-4096766D01*
G01X3973322Y-4099814D01*
G01X3976370Y-4102862D01*
G01X3979418Y-4109212D01*
G01X3979418Y-4115308D01*
G01X3976370Y-4121404D01*
G01X3970020Y-4130802D01*
G01X3939286Y-4161790D01*
G01X3982466Y-4161790D01*
G01X4049776Y-4096766D02*
G01X4018788Y-4096766D01*
G01X4015740Y-4124452D01*
G01X4018788Y-4121404D01*
G01X4027932Y-4118356D01*
G01X4037330Y-4118356D01*
G01X4046728Y-4121404D01*
G01X4052824Y-4127754D01*
G01X4055872Y-4136898D01*
G01X4055872Y-4143248D01*
G01X4052824Y-4152392D01*
G01X4046728Y-4158742D01*
G01X4037330Y-4161790D01*
G01X4027932Y-4161790D01*
G01X4018788Y-4158742D01*
G01X4015740Y-4155440D01*
G01X4012692Y-4149344D01*
G01X4086098Y-4109212D02*
G01X4092194Y-4105910D01*
G01X4101338Y-4096766D01*
G01X4101338Y-4161790D01*
G01X4131564Y-4109212D02*
G01X4137660Y-4105910D01*
G01X4146804Y-4096766D01*
G01X4146804Y-4161790D01*
G01X4192270Y-4096766D02*
G01X4183126Y-4099814D01*
G01X4180078Y-4105910D01*
G01X4180078Y-4112260D01*
G01X4183126Y-4118356D01*
G01X4189222Y-4121404D01*
G01X4201668Y-4124452D01*
G01X4211066Y-4127754D01*
G01X4217162Y-4133850D01*
G01X4220210Y-4139946D01*
G01X4220210Y-4149344D01*
G01X4217162Y-4155440D01*
G01X4214114Y-4158742D01*
G01X4204716Y-4161790D01*
G01X4192270Y-4161790D01*
G01X4183126Y-4158742D01*
G01X4180078Y-4155440D01*
G01X4177030Y-4149344D01*
G01X4177030Y-4139946D01*
G01X4180078Y-4133850D01*
G01X4186174Y-4127754D01*
G01X4195572Y-4124452D01*
G01X4207764Y-4121404D01*
G01X4214114Y-4118356D01*
G01X4217162Y-4112260D01*
G01X4217162Y-4105910D01*
G01X4214114Y-4099814D01*
G01X4204716Y-4096766D01*
G01X4192270Y-4096766D01*
G01X4250436Y-4096766D02*
G01X4250436Y-4161790D01*
G01X4250436Y-4096766D02*
G01X4275074Y-4161790D01*
G01X4299966Y-4096766D02*
G01X4275074Y-4161790D01*
G01X4299966Y-4096766D02*
G01X4299966Y-4161790D01*
G01X4330192Y-4096766D02*
G01X4330192Y-4161790D01*
G01X4373372Y-4096766D02*
G01X4373372Y-4161790D01*
G01X4330192Y-4127754D02*
G01X4373372Y-4127754D01*
G01X4403598Y-4096766D02*
G01X4446778Y-4161790D01*
G01X4446778Y-4096766D02*
G01X4403598Y-4161790D01*
G01X4532630Y-4084320D02*
G01X4477004Y-4183380D01*
G01X4562856Y-4096766D02*
G01X4562856Y-4161790D01*
G01X4562856Y-4096766D02*
G01X4606036Y-4161790D01*
G01X4606036Y-4096766D02*
G01X4606036Y-4161790D01*
G01X4654804Y-4096766D02*
G01X4648454Y-4099814D01*
G01X4642358Y-4105910D01*
G01X4639310Y-4112260D01*
G01X4636262Y-4121404D01*
G01X4636262Y-4136898D01*
G01X4639310Y-4146296D01*
G01X4642358Y-4152392D01*
G01X4648454Y-4158742D01*
G01X4654804Y-4161790D01*
G01X4666996Y-4161790D01*
G01X4673346Y-4158742D01*
G01X4679442Y-4152392D01*
G01X4682490Y-4146296D01*
G01X4685792Y-4136898D01*
G01X4685792Y-4121404D01*
G01X4682490Y-4112260D01*
G01X4679442Y-4105910D01*
G01X4673346Y-4099814D01*
G01X4666996Y-4096766D01*
G01X4654804Y-4096766D01*
G01X4716018Y-4096766D02*
G01X4716018Y-4161790D01*
G01X4716018Y-4096766D02*
G01X4743704Y-4096766D01*
G01X4753102Y-4099814D01*
G01X4756150Y-4102862D01*
G01X4759198Y-4109212D01*
G01X4759198Y-4118356D01*
G01X4756150Y-4124452D01*
G01X4753102Y-4127754D01*
G01X4743704Y-4130802D01*
G01X4716018Y-4130802D01*
G01X4789424Y-4096766D02*
G01X4789424Y-4161790D01*
G01X4789424Y-4096766D02*
G01X4817110Y-4096766D01*
G01X4826508Y-4099814D01*
G01X4829556Y-4102862D01*
G01X4832604Y-4109212D01*
G01X4832604Y-4115308D01*
G01X4829556Y-4121404D01*
G01X4826508Y-4124452D01*
G01X4817110Y-4127754D01*
G01X4789424Y-4127754D02*
G01X4817110Y-4127754D01*
G01X4826508Y-4130802D01*
G01X4829556Y-4133850D01*
G01X4832604Y-4139946D01*
G01X4832604Y-4149344D01*
G01X4829556Y-4155440D01*
G01X4826508Y-4158742D01*
G01X4817110Y-4161790D01*
G01X4789424Y-4161790D01*
G01X3080766Y-3103880D02*
G01X3145790Y-3103880D01*
G01X3080766Y-3103880D02*
G01X3080766Y-3075940D01*
G01X3083814Y-3066796D01*
G01X3086862Y-3063748D01*
G01X3093212Y-3060446D01*
G01X3099308Y-3060446D01*
G01X3105404Y-3063748D01*
G01X3108452Y-3066796D01*
G01X3111754Y-3075940D01*
G01X3111754Y-3103880D01*
G01X3111754Y-3082290D02*
G01X3145790Y-3060446D01*
G01X3096260Y-3027172D02*
G01X3093212Y-3027172D01*
G01X3086862Y-3024124D01*
G01X3083814Y-3021076D01*
G01X3080766Y-3014980D01*
G01X3080766Y-3002534D01*
G01X3083814Y-2996184D01*
G01X3086862Y-2993136D01*
G01X3093212Y-2990088D01*
G01X3099308Y-2990088D01*
G01X3105404Y-2993136D01*
G01X3114802Y-2999486D01*
G01X3145790Y-3030220D01*
G01X3145790Y-2987040D01*
G01X3093212Y-2913380D02*
G01X3089910Y-2907284D01*
G01X3080766Y-2897886D01*
G01X3145790Y-2897886D01*
G01X3080766Y-2849118D02*
G01X3083814Y-2858516D01*
G01X3093212Y-2864612D01*
G01X3108452Y-2867660D01*
G01X3117850Y-2867660D01*
G01X3133344Y-2864612D01*
G01X3142742Y-2858516D01*
G01X3145790Y-2849118D01*
G01X3145790Y-2843022D01*
G01X3142742Y-2833624D01*
G01X3133344Y-2827528D01*
G01X3117850Y-2824480D01*
G01X3108452Y-2824480D01*
G01X3093212Y-2827528D01*
G01X3083814Y-2833624D01*
G01X3080766Y-2843022D01*
G01X3080766Y-2849118D01*
G01X3080766Y-2794254D02*
G01X3145790Y-2794254D01*
G01X3080766Y-2751074D02*
G01X3123946Y-2794254D01*
G01X3108452Y-2779014D02*
G01X3145790Y-2751074D01*
G01X3080766Y-3510280D02*
G01X3145790Y-3510280D01*
G01X3080766Y-3510280D02*
G01X3080766Y-3482340D01*
G01X3083814Y-3473196D01*
G01X3086862Y-3470148D01*
G01X3093212Y-3466846D01*
G01X3099308Y-3466846D01*
G01X3105404Y-3470148D01*
G01X3108452Y-3473196D01*
G01X3111754Y-3482340D01*
G01X3111754Y-3510280D01*
G01X3111754Y-3488690D02*
G01X3145790Y-3466846D01*
G01X3080766Y-3430524D02*
G01X3080766Y-3396488D01*
G01X3105404Y-3415030D01*
G01X3105404Y-3405886D01*
G01X3108452Y-3399536D01*
G01X3111754Y-3396488D01*
G01X3120898Y-3393440D01*
G01X3127248Y-3393440D01*
G01X3136392Y-3396488D01*
G01X3142742Y-3402584D01*
G01X3145790Y-3411982D01*
G01X3145790Y-3421380D01*
G01X3142742Y-3430524D01*
G01X3139440Y-3433572D01*
G01X3133344Y-3436620D01*
G01X3093212Y-3319780D02*
G01X3089910Y-3313684D01*
G01X3080766Y-3304286D01*
G01X3145790Y-3304286D01*
G01X3096260Y-3271012D02*
G01X3093212Y-3271012D01*
G01X3086862Y-3267964D01*
G01X3083814Y-3264916D01*
G01X3080766Y-3258820D01*
G01X3080766Y-3246374D01*
G01X3083814Y-3240024D01*
G01X3086862Y-3236976D01*
G01X3093212Y-3233928D01*
G01X3099308Y-3233928D01*
G01X3105404Y-3236976D01*
G01X3114802Y-3243326D01*
G01X3145790Y-3274060D01*
G01X3145790Y-3230880D01*
G01X3080766Y-3200654D02*
G01X3145790Y-3200654D01*
G01X3080766Y-3157474D02*
G01X3123946Y-3200654D01*
G01X3108452Y-3185414D02*
G01X3145790Y-3157474D01*
G01X3851402Y-3020060D02*
G01X3848354Y-3013710D01*
G01X3842004Y-3007614D01*
G01X3835908Y-3004566D01*
G01X3823462Y-3004566D01*
G01X3817366Y-3007614D01*
G01X3811016Y-3013710D01*
G01X3807968Y-3020060D01*
G01X3804920Y-3029204D01*
G01X3804920Y-3044698D01*
G01X3807968Y-3054096D01*
G01X3811016Y-3060192D01*
G01X3817366Y-3066542D01*
G01X3823462Y-3069590D01*
G01X3835908Y-3069590D01*
G01X3842004Y-3066542D01*
G01X3848354Y-3060192D01*
G01X3851402Y-3054096D01*
G01X3918712Y-3013710D02*
G01X3915664Y-3007614D01*
G01X3906266Y-3004566D01*
G01X3900170Y-3004566D01*
G01X3890772Y-3007614D01*
G01X3884676Y-3017012D01*
G01X3881628Y-3032252D01*
G01X3881628Y-3047746D01*
G01X3884676Y-3060192D01*
G01X3890772Y-3066542D01*
G01X3900170Y-3069590D01*
G01X3903218Y-3069590D01*
G01X3912362Y-3066542D01*
G01X3918712Y-3060192D01*
G01X3921760Y-3051048D01*
G01X3921760Y-3047746D01*
G01X3918712Y-3038602D01*
G01X3912362Y-3032252D01*
G01X3903218Y-3029204D01*
G01X3900170Y-3029204D01*
G01X3890772Y-3032252D01*
G01X3884676Y-3038602D01*
G01X3881628Y-3047746D01*
G01X3970020Y-3017012D02*
G01X3976116Y-3013710D01*
G01X3985514Y-3004566D01*
G01X3985514Y-3069590D01*
G01X4034282Y-3004566D02*
G01X4024884Y-3007614D01*
G01X4018788Y-3017012D01*
G01X4015740Y-3032252D01*
G01X4015740Y-3041650D01*
G01X4018788Y-3057144D01*
G01X4024884Y-3066542D01*
G01X4034282Y-3069590D01*
G01X4040378Y-3069590D01*
G01X4049776Y-3066542D01*
G01X4055872Y-3057144D01*
G01X4058920Y-3041650D01*
G01X4058920Y-3032252D01*
G01X4055872Y-3017012D01*
G01X4049776Y-3007614D01*
G01X4040378Y-3004566D01*
G01X4034282Y-3004566D01*
G01X4107688Y-3004566D02*
G01X4098290Y-3007614D01*
G01X4092194Y-3017012D01*
G01X4089146Y-3032252D01*
G01X4089146Y-3041650D01*
G01X4092194Y-3057144D01*
G01X4098290Y-3066542D01*
G01X4107688Y-3069590D01*
G01X4113784Y-3069590D01*
G01X4123182Y-3066542D01*
G01X4129278Y-3057144D01*
G01X4132326Y-3041650D01*
G01X4132326Y-3032252D01*
G01X4129278Y-3017012D01*
G01X4123182Y-3007614D01*
G01X4113784Y-3004566D01*
G01X4107688Y-3004566D01*
G01X4162552Y-3026156D02*
G01X4162552Y-3069590D01*
G01X4162552Y-3038602D02*
G01X4171696Y-3029204D01*
G01X4177792Y-3026156D01*
G01X4187190Y-3026156D01*
G01X4193286Y-3029204D01*
G01X4196588Y-3038602D01*
G01X4196588Y-3069590D01*
G01X4226814Y-3004566D02*
G01X4226814Y-3069590D01*
G01X4226814Y-3004566D02*
G01X4266946Y-3004566D01*
G01X4226814Y-3035554D02*
G01X4251452Y-3035554D01*
G01X3385566Y-3992880D02*
G01X3450590Y-3992880D01*
G01X3385566Y-3992880D02*
G01X3385566Y-3964940D01*
G01X3388614Y-3955796D01*
G01X3391662Y-3952748D01*
G01X3398012Y-3949446D01*
G01X3404108Y-3949446D01*
G01X3410204Y-3952748D01*
G01X3413252Y-3955796D01*
G01X3416554Y-3964940D01*
G01X3416554Y-3992880D01*
G01X3416554Y-3971290D02*
G01X3450590Y-3949446D01*
G01X3385566Y-3888486D02*
G01X3428746Y-3919220D01*
G01X3428746Y-3872992D01*
G01X3385566Y-3888486D02*
G01X3450590Y-3888486D01*
G01X3398012Y-3827780D02*
G01X3394710Y-3821684D01*
G01X3385566Y-3812286D01*
G01X3450590Y-3812286D01*
G01X3385566Y-3763518D02*
G01X3388614Y-3772916D01*
G01X3398012Y-3779012D01*
G01X3413252Y-3782060D01*
G01X3422650Y-3782060D01*
G01X3438144Y-3779012D01*
G01X3447542Y-3772916D01*
G01X3450590Y-3763518D01*
G01X3450590Y-3757422D01*
G01X3447542Y-3748024D01*
G01X3438144Y-3741928D01*
G01X3422650Y-3738880D01*
G01X3413252Y-3738880D01*
G01X3398012Y-3741928D01*
G01X3388614Y-3748024D01*
G01X3385566Y-3757422D01*
G01X3385566Y-3763518D01*
G01X3385566Y-3690112D02*
G01X3388614Y-3699510D01*
G01X3398012Y-3705606D01*
G01X3413252Y-3708654D01*
G01X3422650Y-3708654D01*
G01X3438144Y-3705606D01*
G01X3447542Y-3699510D01*
G01X3450590Y-3690112D01*
G01X3450590Y-3684016D01*
G01X3447542Y-3674618D01*
G01X3438144Y-3668522D01*
G01X3422650Y-3665474D01*
G01X3413252Y-3665474D01*
G01X3398012Y-3668522D01*
G01X3388614Y-3674618D01*
G01X3385566Y-3684016D01*
G01X3385566Y-3690112D01*
G01X3385566Y-3635248D02*
G01X3450590Y-3635248D01*
G01X3385566Y-3592068D02*
G01X3428746Y-3635248D01*
G01X3413252Y-3620008D02*
G01X3450590Y-3592068D01*
G01X3385566Y-3510280D02*
G01X3450590Y-3510280D01*
G01X3385566Y-3510280D02*
G01X3385566Y-3482340D01*
G01X3388614Y-3473196D01*
G01X3391662Y-3470148D01*
G01X3398012Y-3466846D01*
G01X3404108Y-3466846D01*
G01X3410204Y-3470148D01*
G01X3413252Y-3473196D01*
G01X3416554Y-3482340D01*
G01X3416554Y-3510280D01*
G01X3416554Y-3488690D02*
G01X3450590Y-3466846D01*
G01X3385566Y-3399536D02*
G01X3385566Y-3430524D01*
G01X3413252Y-3433572D01*
G01X3410204Y-3430524D01*
G01X3407156Y-3421380D01*
G01X3407156Y-3411982D01*
G01X3410204Y-3402584D01*
G01X3416554Y-3396488D01*
G01X3425698Y-3393440D01*
G01X3432048Y-3393440D01*
G01X3441192Y-3396488D01*
G01X3447542Y-3402584D01*
G01X3450590Y-3411982D01*
G01X3450590Y-3421380D01*
G01X3447542Y-3430524D01*
G01X3444240Y-3433572D01*
G01X3438144Y-3436620D01*
G01X3398012Y-3319780D02*
G01X3394710Y-3313684D01*
G01X3385566Y-3304286D01*
G01X3450590Y-3304286D01*
G01X3385566Y-3267964D02*
G01X3385566Y-3233928D01*
G01X3410204Y-3252470D01*
G01X3410204Y-3243326D01*
G01X3413252Y-3236976D01*
G01X3416554Y-3233928D01*
G01X3425698Y-3230880D01*
G01X3432048Y-3230880D01*
G01X3441192Y-3233928D01*
G01X3447542Y-3240024D01*
G01X3450590Y-3249422D01*
G01X3450590Y-3258820D01*
G01X3447542Y-3267964D01*
G01X3444240Y-3271012D01*
G01X3438144Y-3274060D01*
G01X3385566Y-3200654D02*
G01X3450590Y-3200654D01*
G01X3385566Y-3157474D02*
G01X3428746Y-3200654D01*
G01X3413252Y-3185414D02*
G01X3450590Y-3157474D01*
G01X3083560Y-4047998D02*
G01X3077210Y-4051046D01*
G01X3071114Y-4057396D01*
G01X3068066Y-4063492D01*
G01X3068066Y-4075938D01*
G01X3071114Y-4082034D01*
G01X3077210Y-4088384D01*
G01X3083560Y-4091432D01*
G01X3092704Y-4094480D01*
G01X3108198Y-4094480D01*
G01X3117596Y-4091432D01*
G01X3123692Y-4088384D01*
G01X3130042Y-4082034D01*
G01X3133090Y-4075938D01*
G01X3133090Y-4063492D01*
G01X3130042Y-4057396D01*
G01X3123692Y-4051046D01*
G01X3117596Y-4047998D01*
G01X3080512Y-4017772D02*
G01X3077210Y-4011676D01*
G01X3068066Y-4002532D01*
G01X3133090Y-4002532D01*
G01X3083560Y-3969258D02*
G01X3080512Y-3969258D01*
G01X3074162Y-3966210D01*
G01X3071114Y-3963162D01*
G01X3068066Y-3957066D01*
G01X3068066Y-3944620D01*
G01X3071114Y-3938270D01*
G01X3074162Y-3935222D01*
G01X3080512Y-3932174D01*
G01X3086608Y-3932174D01*
G01X3092704Y-3935222D01*
G01X3102102Y-3941572D01*
G01X3133090Y-3972306D01*
G01X3133090Y-3929126D01*
G01X3068066Y-3860292D02*
G01X3111246Y-3891280D01*
G01X3111246Y-3844798D01*
G01X3068066Y-3860292D02*
G01X3133090Y-3860292D01*
G01X3068066Y-3771392D02*
G01X3133090Y-3802380D01*
G01X3068066Y-3814572D02*
G01X3068066Y-3771392D01*
G01X3068066Y-3722624D02*
G01X3071114Y-3732022D01*
G01X3080512Y-3738118D01*
G01X3095752Y-3741166D01*
G01X3105150Y-3741166D01*
G01X3120644Y-3738118D01*
G01X3130042Y-3732022D01*
G01X3133090Y-3722624D01*
G01X3133090Y-3716528D01*
G01X3130042Y-3707130D01*
G01X3120644Y-3701034D01*
G01X3105150Y-3697986D01*
G01X3095752Y-3697986D01*
G01X3080512Y-3701034D01*
G01X3071114Y-3707130D01*
G01X3068066Y-3716528D01*
G01X3068066Y-3722624D01*
G01X3089656Y-3667760D02*
G01X3154680Y-3667760D01*
G01X3099054Y-3667760D02*
G01X3092704Y-3661664D01*
G01X3089656Y-3655568D01*
G01X3089656Y-3646170D01*
G01X3092704Y-3640074D01*
G01X3099054Y-3633724D01*
G01X3108198Y-3630676D01*
G01X3114548Y-3630676D01*
G01X3123692Y-3633724D01*
G01X3130042Y-3640074D01*
G01X3133090Y-3646170D01*
G01X3133090Y-3655568D01*
G01X3130042Y-3661664D01*
G01X3123692Y-3667760D01*
G01X3068066Y-3600450D02*
G01X3133090Y-3600450D01*
G01X3068066Y-3600450D02*
G01X3068066Y-3560318D01*
G01X3099054Y-3600450D02*
G01X3099054Y-3575812D01*
G01X2791460Y-4022598D02*
G01X2785110Y-4025646D01*
G01X2779014Y-4031996D01*
G01X2775966Y-4038092D01*
G01X2775966Y-4050538D01*
G01X2779014Y-4056634D01*
G01X2785110Y-4062984D01*
G01X2791460Y-4066032D01*
G01X2800604Y-4069080D01*
G01X2816098Y-4069080D01*
G01X2825496Y-4066032D01*
G01X2831592Y-4062984D01*
G01X2837942Y-4056634D01*
G01X2840990Y-4050538D01*
G01X2840990Y-4038092D01*
G01X2837942Y-4031996D01*
G01X2831592Y-4025646D01*
G01X2825496Y-4022598D01*
G01X2788412Y-3992372D02*
G01X2785110Y-3986276D01*
G01X2775966Y-3977132D01*
G01X2840990Y-3977132D01*
G01X2775966Y-3940810D02*
G01X2775966Y-3906774D01*
G01X2800604Y-3925316D01*
G01X2800604Y-3916172D01*
G01X2803652Y-3909822D01*
G01X2806954Y-3906774D01*
G01X2816098Y-3903726D01*
G01X2822448Y-3903726D01*
G01X2831592Y-3906774D01*
G01X2837942Y-3912870D01*
G01X2840990Y-3922268D01*
G01X2840990Y-3931666D01*
G01X2837942Y-3940810D01*
G01X2834640Y-3943858D01*
G01X2828544Y-3946906D01*
G01X2785110Y-3803396D02*
G01X2779014Y-3806444D01*
G01X2775966Y-3815588D01*
G01X2775966Y-3821938D01*
G01X2779014Y-3831082D01*
G01X2788412Y-3837432D01*
G01X2803652Y-3840480D01*
G01X2819146Y-3840480D01*
G01X2831592Y-3837432D01*
G01X2837942Y-3831082D01*
G01X2840990Y-3821938D01*
G01X2840990Y-3818890D01*
G01X2837942Y-3809492D01*
G01X2831592Y-3803396D01*
G01X2822448Y-3800348D01*
G01X2819146Y-3800348D01*
G01X2810002Y-3803396D01*
G01X2803652Y-3809492D01*
G01X2800604Y-3818890D01*
G01X2800604Y-3821938D01*
G01X2803652Y-3831082D01*
G01X2810002Y-3837432D01*
G01X2819146Y-3840480D01*
G01X2775966Y-3754882D02*
G01X2779014Y-3764026D01*
G01X2785110Y-3767074D01*
G01X2791460Y-3767074D01*
G01X2797556Y-3764026D01*
G01X2800604Y-3757930D01*
G01X2803652Y-3745484D01*
G01X2806954Y-3736086D01*
G01X2813050Y-3729990D01*
G01X2819146Y-3726942D01*
G01X2828544Y-3726942D01*
G01X2834640Y-3729990D01*
G01X2837942Y-3733038D01*
G01X2840990Y-3742436D01*
G01X2840990Y-3754882D01*
G01X2837942Y-3764026D01*
G01X2834640Y-3767074D01*
G01X2828544Y-3770122D01*
G01X2819146Y-3770122D01*
G01X2813050Y-3767074D01*
G01X2806954Y-3760978D01*
G01X2803652Y-3751580D01*
G01X2800604Y-3739388D01*
G01X2797556Y-3733038D01*
G01X2791460Y-3729990D01*
G01X2785110Y-3729990D01*
G01X2779014Y-3733038D01*
G01X2775966Y-3742436D01*
G01X2775966Y-3754882D01*
G01X2797556Y-3696716D02*
G01X2840990Y-3696716D01*
G01X2810002Y-3696716D02*
G01X2800604Y-3687572D01*
G01X2797556Y-3681476D01*
G01X2797556Y-3672078D01*
G01X2800604Y-3665982D01*
G01X2810002Y-3662680D01*
G01X2840990Y-3662680D01*
G01X2775966Y-3632454D02*
G01X2840990Y-3632454D01*
G01X2775966Y-3632454D02*
G01X2775966Y-3592322D01*
G01X2806954Y-3632454D02*
G01X2806954Y-3607816D01*
G01X5367274Y-126883D02*
G01X5302250Y-126883D01*
G01X5302250Y-126883D02*
G01X5302250Y-163967D01*
G01X5354828Y-194193D02*
G01X5358130Y-200289D01*
G01X5367274Y-209433D01*
G01X5302250Y-209433D01*
G01X3868420Y-70612D02*
G01X3874516Y-67310D01*
G01X3883914Y-58166D01*
G01X3883914Y-123190D01*
G01X3932682Y-58166D02*
G01X3923284Y-61214D01*
G01X3917188Y-70612D01*
G01X3914140Y-85852D01*
G01X3914140Y-95250D01*
G01X3917188Y-110744D01*
G01X3923284Y-120142D01*
G01X3932682Y-123190D01*
G01X3938778Y-123190D01*
G01X3948176Y-120142D01*
G01X3954272Y-110744D01*
G01X3957320Y-95250D01*
G01X3957320Y-85852D01*
G01X3954272Y-70612D01*
G01X3948176Y-61214D01*
G01X3938778Y-58166D01*
G01X3932682Y-58166D01*
G01X3987546Y-79756D02*
G01X3987546Y-110744D01*
G01X3990594Y-120142D01*
G01X3996690Y-123190D01*
G01X4006088Y-123190D01*
G01X4012184Y-120142D01*
G01X4021582Y-110744D01*
G01X4021582Y-79756D02*
G01X4021582Y-123190D01*
G01X4051808Y-58166D02*
G01X4051808Y-123190D01*
G01X4094988Y-58166D02*
G01X4094988Y-123190D01*
G01X4051808Y-89154D02*
G01X4094988Y-89154D01*
G01X2299462Y-337566D02*
G01X2293366Y-340614D01*
G01X2287016Y-346710D01*
G01X2283968Y-353060D01*
G01X2280920Y-362204D01*
G01X2280920Y-377698D01*
G01X2283968Y-387096D01*
G01X2287016Y-393192D01*
G01X2293366Y-399542D01*
G01X2299462Y-402590D01*
G01X2311908Y-402590D01*
G01X2318004Y-399542D01*
G01X2324354Y-393192D01*
G01X2327402Y-387096D01*
G01X2330450Y-377698D01*
G01X2330450Y-362204D01*
G01X2327402Y-353060D01*
G01X2324354Y-346710D01*
G01X2318004Y-340614D01*
G01X2311908Y-337566D01*
G01X2299462Y-337566D01*
G01X2308860Y-390144D02*
G01X2327402Y-408686D01*
G01X2360676Y-350012D02*
G01X2366772Y-346710D01*
G01X2375916Y-337566D01*
G01X2375916Y-402590D01*
G01X2522220Y-337566D02*
G01X2522220Y-402590D01*
G01X2522220Y-337566D02*
G01X2565654Y-402590D01*
G01X2565654Y-337566D02*
G01X2565654Y-402590D01*
G01X2642108Y-353060D02*
G01X2639060Y-346710D01*
G01X2632964Y-340614D01*
G01X2626614Y-337566D01*
G01X2614422Y-337566D01*
G01X2608072Y-340614D01*
G01X2601976Y-346710D01*
G01X2598928Y-353060D01*
G01X2595880Y-362204D01*
G01X2595880Y-377698D01*
G01X2598928Y-387096D01*
G01X2601976Y-393192D01*
G01X2608072Y-399542D01*
G01X2614422Y-402590D01*
G01X2626614Y-402590D01*
G01X2632964Y-399542D01*
G01X2639060Y-393192D01*
G01X2642108Y-387096D01*
G01X2672334Y-337566D02*
G01X2672334Y-402590D01*
G01X2672334Y-337566D02*
G01X2712466Y-337566D01*
G01X2672334Y-368554D02*
G01X2696972Y-368554D01*
G01X2672334Y-402590D02*
G01X2712466Y-402590D01*
G01X2785872Y-337566D02*
G01X2754884Y-402590D01*
G01X2742692Y-337566D02*
G01X2785872Y-337566D01*
G01X2853182Y-337566D02*
G01X2822194Y-337566D01*
G01X2819146Y-365252D01*
G01X2822194Y-362204D01*
G01X2831338Y-359156D01*
G01X2840736Y-359156D01*
G01X2850134Y-362204D01*
G01X2856230Y-368554D01*
G01X2859278Y-377698D01*
G01X2859278Y-384048D01*
G01X2856230Y-393192D01*
G01X2850134Y-399542D01*
G01X2840736Y-402590D01*
G01X2831338Y-402590D01*
G01X2822194Y-399542D01*
G01X2819146Y-396240D01*
G01X2816098Y-390144D01*
G01X2926588Y-346710D02*
G01X2923540Y-340614D01*
G01X2914142Y-337566D01*
G01X2908046Y-337566D01*
G01X2898648Y-340614D01*
G01X2892552Y-350012D01*
G01X2889504Y-365252D01*
G01X2889504Y-380746D01*
G01X2892552Y-393192D01*
G01X2898648Y-399542D01*
G01X2908046Y-402590D01*
G01X2911094Y-402590D01*
G01X2920238Y-399542D01*
G01X2926588Y-393192D01*
G01X2929636Y-384048D01*
G01X2929636Y-380746D01*
G01X2926588Y-371602D01*
G01X2920238Y-365252D01*
G01X2911094Y-362204D01*
G01X2908046Y-362204D01*
G01X2898648Y-365252D01*
G01X2892552Y-371602D01*
G01X2889504Y-380746D01*
G01X2978404Y-337566D02*
G01X2969006Y-340614D01*
G01X2962910Y-350012D01*
G01X2959862Y-365252D01*
G01X2959862Y-374650D01*
G01X2962910Y-390144D01*
G01X2969006Y-399542D01*
G01X2978404Y-402590D01*
G01X2984500Y-402590D01*
G01X2993898Y-399542D01*
G01X2999994Y-390144D01*
G01X3003042Y-374650D01*
G01X3003042Y-365252D01*
G01X2999994Y-350012D01*
G01X2993898Y-340614D01*
G01X2984500Y-337566D01*
G01X2978404Y-337566D01*
G01X3033268Y-337566D02*
G01X3033268Y-402590D01*
G01X3076448Y-337566D02*
G01X3033268Y-380746D01*
G01X3048508Y-365252D02*
G01X3076448Y-402590D01*
G01X4255262Y-1594866D02*
G01X4249166Y-1597914D01*
G01X4242816Y-1604010D01*
G01X4239768Y-1610360D01*
G01X4236720Y-1619504D01*
G01X4236720Y-1634998D01*
G01X4239768Y-1644396D01*
G01X4242816Y-1650492D01*
G01X4249166Y-1656842D01*
G01X4255262Y-1659890D01*
G01X4267708Y-1659890D01*
G01X4273804Y-1656842D01*
G01X4280154Y-1650492D01*
G01X4283202Y-1644396D01*
G01X4286250Y-1634998D01*
G01X4286250Y-1619504D01*
G01X4283202Y-1610360D01*
G01X4280154Y-1604010D01*
G01X4273804Y-1597914D01*
G01X4267708Y-1594866D01*
G01X4255262Y-1594866D01*
G01X4264660Y-1647444D02*
G01X4283202Y-1665986D01*
G01X4319524Y-1610360D02*
G01X4319524Y-1607312D01*
G01X4322572Y-1600962D01*
G01X4325620Y-1597914D01*
G01X4331716Y-1594866D01*
G01X4344162Y-1594866D01*
G01X4350512Y-1597914D01*
G01X4353560Y-1600962D01*
G01X4356608Y-1607312D01*
G01X4356608Y-1613408D01*
G01X4353560Y-1619504D01*
G01X4347210Y-1628902D01*
G01X4316476Y-1659890D01*
G01X4359656Y-1659890D01*
G01X4478020Y-1594866D02*
G01X4478020Y-1659890D01*
G01X4478020Y-1594866D02*
G01X4521454Y-1659890D01*
G01X4521454Y-1594866D02*
G01X4521454Y-1659890D01*
G01X4597908Y-1610360D02*
G01X4594860Y-1604010D01*
G01X4588764Y-1597914D01*
G01X4582414Y-1594866D01*
G01X4570222Y-1594866D01*
G01X4563872Y-1597914D01*
G01X4557776Y-1604010D01*
G01X4554728Y-1610360D01*
G01X4551680Y-1619504D01*
G01X4551680Y-1634998D01*
G01X4554728Y-1644396D01*
G01X4557776Y-1650492D01*
G01X4563872Y-1656842D01*
G01X4570222Y-1659890D01*
G01X4582414Y-1659890D01*
G01X4588764Y-1656842D01*
G01X4594860Y-1650492D01*
G01X4597908Y-1644396D01*
G01X4628134Y-1594866D02*
G01X4628134Y-1659890D01*
G01X4628134Y-1594866D02*
G01X4668266Y-1594866D01*
G01X4628134Y-1625854D02*
G01X4652772Y-1625854D01*
G01X4628134Y-1659890D02*
G01X4668266Y-1659890D01*
G01X4741672Y-1594866D02*
G01X4710684Y-1659890D01*
G01X4698492Y-1594866D02*
G01X4741672Y-1594866D01*
G01X4808982Y-1594866D02*
G01X4777994Y-1594866D01*
G01X4774946Y-1622552D01*
G01X4777994Y-1619504D01*
G01X4787138Y-1616456D01*
G01X4796536Y-1616456D01*
G01X4805934Y-1619504D01*
G01X4812030Y-1625854D01*
G01X4815078Y-1634998D01*
G01X4815078Y-1641348D01*
G01X4812030Y-1650492D01*
G01X4805934Y-1656842D01*
G01X4796536Y-1659890D01*
G01X4787138Y-1659890D01*
G01X4777994Y-1656842D01*
G01X4774946Y-1653540D01*
G01X4771898Y-1647444D01*
G01X4882388Y-1604010D02*
G01X4879340Y-1597914D01*
G01X4869942Y-1594866D01*
G01X4863846Y-1594866D01*
G01X4854448Y-1597914D01*
G01X4848352Y-1607312D01*
G01X4845304Y-1622552D01*
G01X4845304Y-1638046D01*
G01X4848352Y-1650492D01*
G01X4854448Y-1656842D01*
G01X4863846Y-1659890D01*
G01X4866894Y-1659890D01*
G01X4876038Y-1656842D01*
G01X4882388Y-1650492D01*
G01X4885436Y-1641348D01*
G01X4885436Y-1638046D01*
G01X4882388Y-1628902D01*
G01X4876038Y-1622552D01*
G01X4866894Y-1619504D01*
G01X4863846Y-1619504D01*
G01X4854448Y-1622552D01*
G01X4848352Y-1628902D01*
G01X4845304Y-1638046D01*
G01X4934204Y-1594866D02*
G01X4924806Y-1597914D01*
G01X4918710Y-1607312D01*
G01X4915662Y-1622552D01*
G01X4915662Y-1631950D01*
G01X4918710Y-1647444D01*
G01X4924806Y-1656842D01*
G01X4934204Y-1659890D01*
G01X4940300Y-1659890D01*
G01X4949698Y-1656842D01*
G01X4955794Y-1647444D01*
G01X4958842Y-1631950D01*
G01X4958842Y-1622552D01*
G01X4955794Y-1607312D01*
G01X4949698Y-1597914D01*
G01X4940300Y-1594866D01*
G01X4934204Y-1594866D01*
G01X4989068Y-1594866D02*
G01X4989068Y-1659890D01*
G01X5032248Y-1594866D02*
G01X4989068Y-1638046D01*
G01X5004308Y-1622552D02*
G01X5032248Y-1659890D01*
G01X2915920Y-1569466D02*
G01X2915920Y-1634490D01*
G01X2915920Y-1569466D02*
G01X2937510Y-1569466D01*
G01X2946908Y-1572514D01*
G01X2953004Y-1578610D01*
G01X2956052Y-1584960D01*
G01X2959354Y-1594104D01*
G01X2959354Y-1609598D01*
G01X2956052Y-1618996D01*
G01X2953004Y-1625092D01*
G01X2946908Y-1631442D01*
G01X2937510Y-1634490D01*
G01X2915920Y-1634490D01*
G01X2995676Y-1569466D02*
G01X3029712Y-1569466D01*
G01X3011170Y-1594104D01*
G01X3020314Y-1594104D01*
G01X3026664Y-1597152D01*
G01X3029712Y-1600454D01*
G01X3032760Y-1609598D01*
G01X3032760Y-1615948D01*
G01X3029712Y-1625092D01*
G01X3023616Y-1631442D01*
G01X3014218Y-1634490D01*
G01X3004820Y-1634490D01*
G01X2995676Y-1631442D01*
G01X2992628Y-1628140D01*
G01X2989580Y-1622044D01*
G01X3187954Y-1578610D02*
G01X3181604Y-1572514D01*
G01X3172460Y-1569466D01*
G01X3160014Y-1569466D01*
G01X3150616Y-1572514D01*
G01X3144520Y-1578610D01*
G01X3144520Y-1584960D01*
G01X3147568Y-1591056D01*
G01X3150616Y-1594104D01*
G01X3156966Y-1597152D01*
G01X3175508Y-1603502D01*
G01X3181604Y-1606550D01*
G01X3184652Y-1609598D01*
G01X3187954Y-1615948D01*
G01X3187954Y-1625092D01*
G01X3181604Y-1631442D01*
G01X3172460Y-1634490D01*
G01X3160014Y-1634490D01*
G01X3150616Y-1631442D01*
G01X3144520Y-1625092D01*
G01X3218180Y-1569466D02*
G01X3218180Y-1634490D01*
G01X3218180Y-1569466D02*
G01X3245866Y-1569466D01*
G01X3255264Y-1572514D01*
G01X3258312Y-1575562D01*
G01X3261360Y-1581912D01*
G01X3261360Y-1588008D01*
G01X3258312Y-1594104D01*
G01X3255264Y-1597152D01*
G01X3245866Y-1600454D01*
G01X3218180Y-1600454D02*
G01X3245866Y-1600454D01*
G01X3255264Y-1603502D01*
G01X3258312Y-1606550D01*
G01X3261360Y-1612646D01*
G01X3261360Y-1622044D01*
G01X3258312Y-1628140D01*
G01X3255264Y-1631442D01*
G01X3245866Y-1634490D01*
G01X3218180Y-1634490D01*
G01X3291586Y-1569466D02*
G01X3291586Y-1634490D01*
G01X3291586Y-1569466D02*
G01X3313176Y-1569466D01*
G01X3322320Y-1572514D01*
G01X3328670Y-1578610D01*
G01X3331718Y-1584960D01*
G01X3334766Y-1594104D01*
G01X3334766Y-1609598D01*
G01X3331718Y-1618996D01*
G01X3328670Y-1625092D01*
G01X3322320Y-1631442D01*
G01X3313176Y-1634490D01*
G01X3291586Y-1634490D01*
G01X3364992Y-1569466D02*
G01X3364992Y-1634490D01*
G01X3364992Y-1569466D02*
G01X3386582Y-1569466D01*
G01X3395726Y-1572514D01*
G01X3402076Y-1578610D01*
G01X3405124Y-1584960D01*
G01X3408172Y-1594104D01*
G01X3408172Y-1609598D01*
G01X3405124Y-1618996D01*
G01X3402076Y-1625092D01*
G01X3395726Y-1631442D01*
G01X3386582Y-1634490D01*
G01X3364992Y-1634490D01*
G01X3441446Y-1584960D02*
G01X3441446Y-1581912D01*
G01X3444494Y-1575562D01*
G01X3447542Y-1572514D01*
G01X3453638Y-1569466D01*
G01X3466084Y-1569466D01*
G01X3472434Y-1572514D01*
G01X3475482Y-1575562D01*
G01X3478530Y-1581912D01*
G01X3478530Y-1588008D01*
G01X3475482Y-1594104D01*
G01X3469132Y-1603502D01*
G01X3438398Y-1634490D01*
G01X3481578Y-1634490D01*
G01X3530346Y-1569466D02*
G01X3520948Y-1572514D01*
G01X3514852Y-1581912D01*
G01X3511804Y-1597152D01*
G01X3511804Y-1606550D01*
G01X3514852Y-1622044D01*
G01X3520948Y-1631442D01*
G01X3530346Y-1634490D01*
G01X3536442Y-1634490D01*
G01X3545840Y-1631442D01*
G01X3551936Y-1622044D01*
G01X3554984Y-1606550D01*
G01X3554984Y-1597152D01*
G01X3551936Y-1581912D01*
G01X3545840Y-1572514D01*
G01X3536442Y-1569466D01*
G01X3530346Y-1569466D01*
G01X3615944Y-1569466D02*
G01X3585210Y-1612646D01*
G01X3631438Y-1612646D01*
G01X3615944Y-1569466D02*
G01X3615944Y-1634490D01*
G01X3698748Y-1569466D02*
G01X3667760Y-1569466D01*
G01X3664712Y-1597152D01*
G01X3667760Y-1594104D01*
G01X3676904Y-1591056D01*
G01X3686302Y-1591056D01*
G01X3695700Y-1594104D01*
G01X3701796Y-1600454D01*
G01X3704844Y-1609598D01*
G01X3704844Y-1615948D01*
G01X3701796Y-1625092D01*
G01X3695700Y-1631442D01*
G01X3686302Y-1634490D01*
G01X3676904Y-1634490D01*
G01X3667760Y-1631442D01*
G01X3664712Y-1628140D01*
G01X3661664Y-1622044D01*
G01X3781298Y-1584960D02*
G01X3778250Y-1578610D01*
G01X3772154Y-1572514D01*
G01X3765804Y-1569466D01*
G01X3753612Y-1569466D01*
G01X3747262Y-1572514D01*
G01X3741166Y-1578610D01*
G01X3738118Y-1584960D01*
G01X3735070Y-1594104D01*
G01X3735070Y-1609598D01*
G01X3738118Y-1618996D01*
G01X3741166Y-1625092D01*
G01X3747262Y-1631442D01*
G01X3753612Y-1634490D01*
G01X3765804Y-1634490D01*
G01X3772154Y-1631442D01*
G01X3778250Y-1625092D01*
G01X3781298Y-1618996D01*
G01X3833114Y-1569466D02*
G01X3833114Y-1634490D01*
G01X3811524Y-1569466D02*
G01X3854704Y-1569466D01*
G01X5595620Y-337566D02*
G01X5595620Y-402590D01*
G01X5595620Y-337566D02*
G01X5617210Y-337566D01*
G01X5626608Y-340614D01*
G01X5632704Y-346710D01*
G01X5635752Y-353060D01*
G01X5639054Y-362204D01*
G01X5639054Y-377698D01*
G01X5635752Y-387096D01*
G01X5632704Y-393192D01*
G01X5626608Y-399542D01*
G01X5617210Y-402590D01*
G01X5595620Y-402590D01*
G01X5672328Y-353060D02*
G01X5672328Y-350012D01*
G01X5675376Y-343662D01*
G01X5678424Y-340614D01*
G01X5684520Y-337566D01*
G01X5696966Y-337566D01*
G01X5703316Y-340614D01*
G01X5706364Y-343662D01*
G01X5709412Y-350012D01*
G01X5709412Y-356108D01*
G01X5706364Y-362204D01*
G01X5700014Y-371602D01*
G01X5669280Y-402590D01*
G01X5712460Y-402590D01*
G01X5931154Y-346710D02*
G01X5924804Y-340614D01*
G01X5915660Y-337566D01*
G01X5903214Y-337566D01*
G01X5893816Y-340614D01*
G01X5887720Y-346710D01*
G01X5887720Y-353060D01*
G01X5890768Y-359156D01*
G01X5893816Y-362204D01*
G01X5900166Y-365252D01*
G01X5918708Y-371602D01*
G01X5924804Y-374650D01*
G01X5927852Y-377698D01*
G01X5931154Y-384048D01*
G01X5931154Y-393192D01*
G01X5924804Y-399542D01*
G01X5915660Y-402590D01*
G01X5903214Y-402590D01*
G01X5893816Y-399542D01*
G01X5887720Y-393192D01*
G01X5961380Y-337566D02*
G01X5961380Y-402590D01*
G01X5961380Y-337566D02*
G01X5989066Y-337566D01*
G01X5998464Y-340614D01*
G01X6001512Y-343662D01*
G01X6004560Y-350012D01*
G01X6004560Y-356108D01*
G01X6001512Y-362204D01*
G01X5998464Y-365252D01*
G01X5989066Y-368554D01*
G01X5961380Y-368554D02*
G01X5989066Y-368554D01*
G01X5998464Y-371602D01*
G01X6001512Y-374650D01*
G01X6004560Y-380746D01*
G01X6004560Y-390144D01*
G01X6001512Y-396240D01*
G01X5998464Y-399542D01*
G01X5989066Y-402590D01*
G01X5961380Y-402590D01*
G01X6034786Y-337566D02*
G01X6034786Y-402590D01*
G01X6034786Y-337566D02*
G01X6056376Y-337566D01*
G01X6065520Y-340614D01*
G01X6071870Y-346710D01*
G01X6074918Y-353060D01*
G01X6077966Y-362204D01*
G01X6077966Y-377698D01*
G01X6074918Y-387096D01*
G01X6071870Y-393192D01*
G01X6065520Y-399542D01*
G01X6056376Y-402590D01*
G01X6034786Y-402590D01*
G01X6108192Y-337566D02*
G01X6108192Y-402590D01*
G01X6108192Y-337566D02*
G01X6129782Y-337566D01*
G01X6138926Y-340614D01*
G01X6145276Y-346710D01*
G01X6148324Y-353060D01*
G01X6151372Y-362204D01*
G01X6151372Y-377698D01*
G01X6148324Y-387096D01*
G01X6145276Y-393192D01*
G01X6138926Y-399542D01*
G01X6129782Y-402590D01*
G01X6108192Y-402590D01*
G01X6184646Y-353060D02*
G01X6184646Y-350012D01*
G01X6187694Y-343662D01*
G01X6190742Y-340614D01*
G01X6196838Y-337566D01*
G01X6209284Y-337566D01*
G01X6215634Y-340614D01*
G01X6218682Y-343662D01*
G01X6221730Y-350012D01*
G01X6221730Y-356108D01*
G01X6218682Y-362204D01*
G01X6212332Y-371602D01*
G01X6181598Y-402590D01*
G01X6224778Y-402590D01*
G01X6273546Y-337566D02*
G01X6264148Y-340614D01*
G01X6258052Y-350012D01*
G01X6255004Y-365252D01*
G01X6255004Y-374650D01*
G01X6258052Y-390144D01*
G01X6264148Y-399542D01*
G01X6273546Y-402590D01*
G01X6279642Y-402590D01*
G01X6289040Y-399542D01*
G01X6295136Y-390144D01*
G01X6298184Y-374650D01*
G01X6298184Y-365252D01*
G01X6295136Y-350012D01*
G01X6289040Y-340614D01*
G01X6279642Y-337566D01*
G01X6273546Y-337566D01*
G01X6359144Y-337566D02*
G01X6328410Y-380746D01*
G01X6374638Y-380746D01*
G01X6359144Y-337566D02*
G01X6359144Y-402590D01*
G01X6441948Y-337566D02*
G01X6410960Y-337566D01*
G01X6407912Y-365252D01*
G01X6410960Y-362204D01*
G01X6420104Y-359156D01*
G01X6429502Y-359156D01*
G01X6438900Y-362204D01*
G01X6444996Y-368554D01*
G01X6448044Y-377698D01*
G01X6448044Y-384048D01*
G01X6444996Y-393192D01*
G01X6438900Y-399542D01*
G01X6429502Y-402590D01*
G01X6420104Y-402590D01*
G01X6410960Y-399542D01*
G01X6407912Y-396240D01*
G01X6404864Y-390144D01*
G01X6524498Y-353060D02*
G01X6521450Y-346710D01*
G01X6515354Y-340614D01*
G01X6509004Y-337566D01*
G01X6496812Y-337566D01*
G01X6490462Y-340614D01*
G01X6484366Y-346710D01*
G01X6481318Y-353060D01*
G01X6478270Y-362204D01*
G01X6478270Y-377698D01*
G01X6481318Y-387096D01*
G01X6484366Y-393192D01*
G01X6490462Y-399542D01*
G01X6496812Y-402590D01*
G01X6509004Y-402590D01*
G01X6515354Y-399542D01*
G01X6521450Y-393192D01*
G01X6524498Y-387096D01*
G01X6576314Y-337566D02*
G01X6576314Y-402590D01*
G01X6554724Y-337566D02*
G01X6597904Y-337566D01*
G01X4351020Y-2547366D02*
G01X4351020Y-2612390D01*
G01X4351020Y-2547366D02*
G01X4372610Y-2547366D01*
G01X4382008Y-2550414D01*
G01X4388104Y-2556510D01*
G01X4391152Y-2562860D01*
G01X4394454Y-2572004D01*
G01X4394454Y-2587498D01*
G01X4391152Y-2596896D01*
G01X4388104Y-2602992D01*
G01X4382008Y-2609342D01*
G01X4372610Y-2612390D01*
G01X4351020Y-2612390D01*
G01X4424680Y-2559812D02*
G01X4430776Y-2556510D01*
G01X4439920Y-2547366D01*
G01X4439920Y-2612390D01*
G01X4584954Y-2556510D02*
G01X4578604Y-2550414D01*
G01X4569460Y-2547366D01*
G01X4557014Y-2547366D01*
G01X4547616Y-2550414D01*
G01X4541520Y-2556510D01*
G01X4541520Y-2562860D01*
G01X4544568Y-2568956D01*
G01X4547616Y-2572004D01*
G01X4553966Y-2575052D01*
G01X4572508Y-2581402D01*
G01X4578604Y-2584450D01*
G01X4581652Y-2587498D01*
G01X4584954Y-2593848D01*
G01X4584954Y-2602992D01*
G01X4578604Y-2609342D01*
G01X4569460Y-2612390D01*
G01X4557014Y-2612390D01*
G01X4547616Y-2609342D01*
G01X4541520Y-2602992D01*
G01X4658360Y-2556510D02*
G01X4652264Y-2550414D01*
G01X4642866Y-2547366D01*
G01X4630420Y-2547366D01*
G01X4621276Y-2550414D01*
G01X4615180Y-2556510D01*
G01X4615180Y-2562860D01*
G01X4618228Y-2568956D01*
G01X4621276Y-2572004D01*
G01X4627372Y-2575052D01*
G01X4645914Y-2581402D01*
G01X4652264Y-2584450D01*
G01X4655312Y-2587498D01*
G01X4658360Y-2593848D01*
G01X4658360Y-2602992D01*
G01X4652264Y-2609342D01*
G01X4642866Y-2612390D01*
G01X4630420Y-2612390D01*
G01X4621276Y-2609342D01*
G01X4615180Y-2602992D01*
G01X4694682Y-2547366D02*
G01X4728718Y-2547366D01*
G01X4710176Y-2572004D01*
G01X4719320Y-2572004D01*
G01X4725670Y-2575052D01*
G01X4728718Y-2578354D01*
G01X4731766Y-2587498D01*
G01X4731766Y-2593848D01*
G01X4728718Y-2602992D01*
G01X4722622Y-2609342D01*
G01X4713224Y-2612390D01*
G01X4703826Y-2612390D01*
G01X4694682Y-2609342D01*
G01X4691634Y-2606040D01*
G01X4688586Y-2599944D01*
G01X4761992Y-2559812D02*
G01X4768088Y-2556510D01*
G01X4777232Y-2547366D01*
G01X4777232Y-2612390D01*
G01X4826000Y-2547366D02*
G01X4816602Y-2550414D01*
G01X4810506Y-2559812D01*
G01X4807458Y-2575052D01*
G01X4807458Y-2584450D01*
G01X4810506Y-2599944D01*
G01X4816602Y-2609342D01*
G01X4826000Y-2612390D01*
G01X4832096Y-2612390D01*
G01X4841494Y-2609342D01*
G01X4847590Y-2599944D01*
G01X4850638Y-2584450D01*
G01X4850638Y-2575052D01*
G01X4847590Y-2559812D01*
G01X4841494Y-2550414D01*
G01X4832096Y-2547366D01*
G01X4826000Y-2547366D01*
G01X1899920Y-1709166D02*
G01X1899920Y-1774190D01*
G01X1899920Y-1709166D02*
G01X1927860Y-1709166D01*
G01X1937004Y-1712214D01*
G01X1940052Y-1715262D01*
G01X1943354Y-1721612D01*
G01X1943354Y-1727708D01*
G01X1940052Y-1733804D01*
G01X1937004Y-1736852D01*
G01X1927860Y-1740154D01*
G01X1899920Y-1740154D01*
G01X1921510Y-1740154D02*
G01X1943354Y-1774190D01*
G01X1988820Y-1709166D02*
G01X1979676Y-1712214D01*
G01X1976628Y-1718310D01*
G01X1976628Y-1724660D01*
G01X1979676Y-1730756D01*
G01X1985772Y-1733804D01*
G01X1998218Y-1736852D01*
G01X2007616Y-1740154D01*
G01X2013712Y-1746250D01*
G01X2016760Y-1752346D01*
G01X2016760Y-1761744D01*
G01X2013712Y-1767840D01*
G01X2010664Y-1771142D01*
G01X2001266Y-1774190D01*
G01X1988820Y-1774190D01*
G01X1979676Y-1771142D01*
G01X1976628Y-1767840D01*
G01X1973580Y-1761744D01*
G01X1973580Y-1752346D01*
G01X1976628Y-1746250D01*
G01X1982724Y-1740154D01*
G01X1992122Y-1736852D01*
G01X2004314Y-1733804D01*
G01X2010664Y-1730756D01*
G01X2013712Y-1724660D01*
G01X2013712Y-1718310D01*
G01X2010664Y-1712214D01*
G01X2001266Y-1709166D01*
G01X1988820Y-1709166D01*
G01X2153920Y-1734312D02*
G01X2160016Y-1731010D01*
G01X2169414Y-1721866D01*
G01X2169414Y-1786890D01*
G01X2218182Y-1721866D02*
G01X2208784Y-1724914D01*
G01X2202688Y-1734312D01*
G01X2199640Y-1749552D01*
G01X2199640Y-1758950D01*
G01X2202688Y-1774444D01*
G01X2208784Y-1783842D01*
G01X2218182Y-1786890D01*
G01X2224278Y-1786890D01*
G01X2233676Y-1783842D01*
G01X2239772Y-1774444D01*
G01X2242820Y-1758950D01*
G01X2242820Y-1749552D01*
G01X2239772Y-1734312D01*
G01X2233676Y-1724914D01*
G01X2224278Y-1721866D01*
G01X2218182Y-1721866D01*
G01X2273046Y-1743456D02*
G01X2273046Y-1786890D01*
G01X2273046Y-1755902D02*
G01X2282190Y-1746504D01*
G01X2288286Y-1743456D01*
G01X2297684Y-1743456D01*
G01X2303780Y-1746504D01*
G01X2307082Y-1755902D01*
G01X2307082Y-1786890D01*
G01X2307082Y-1755902D02*
G01X2316226Y-1746504D01*
G01X2322576Y-1743456D01*
G01X2331720Y-1743456D01*
G01X2337816Y-1746504D01*
G01X2341118Y-1755902D01*
G01X2341118Y-1786890D01*
G01X2371344Y-1786890D02*
G01X2392934Y-1786890D01*
G01X2386584Y-1777492D01*
G01X2380488Y-1768348D01*
G01X2377440Y-1758950D01*
G01X2377440Y-1749552D01*
G01X2380488Y-1740408D01*
G01X2383536Y-1734312D01*
G01X2389886Y-1727962D01*
G01X2395982Y-1724914D01*
G01X2408428Y-1724914D01*
G01X2414524Y-1727962D01*
G01X2420874Y-1734312D01*
G01X2423922Y-1740408D01*
G01X2426970Y-1749552D01*
G01X2426970Y-1758950D01*
G01X2423922Y-1768348D01*
G01X2417572Y-1777492D01*
G01X2411476Y-1786890D01*
G01X2433066Y-1786890D01*
G01X6664960Y-1825498D02*
G01X6658610Y-1828546D01*
G01X6652514Y-1834896D01*
G01X6649466Y-1840992D01*
G01X6649466Y-1853438D01*
G01X6652514Y-1859534D01*
G01X6658610Y-1865884D01*
G01X6664960Y-1868932D01*
G01X6674104Y-1871980D01*
G01X6689598Y-1871980D01*
G01X6698996Y-1868932D01*
G01X6705092Y-1865884D01*
G01X6711442Y-1859534D01*
G01X6714490Y-1853438D01*
G01X6714490Y-1840992D01*
G01X6711442Y-1834896D01*
G01X6705092Y-1828546D01*
G01X6698996Y-1825498D01*
G01X6671056Y-1755140D02*
G01X6680454Y-1758188D01*
G01X6686550Y-1764538D01*
G01X6689598Y-1773682D01*
G01X6689598Y-1776730D01*
G01X6686550Y-1786128D01*
G01X6680454Y-1792224D01*
G01X6671056Y-1795272D01*
G01X6668008Y-1795272D01*
G01X6658610Y-1792224D01*
G01X6652514Y-1786128D01*
G01X6649466Y-1776730D01*
G01X6649466Y-1773682D01*
G01X6652514Y-1764538D01*
G01X6658610Y-1758188D01*
G01X6671056Y-1755140D01*
G01X6686550Y-1755140D01*
G01X6702044Y-1758188D01*
G01X6711442Y-1764538D01*
G01X6714490Y-1773682D01*
G01X6714490Y-1780032D01*
G01X6711442Y-1789176D01*
G01X6705092Y-1792224D01*
G01X6664960Y-1678432D02*
G01X6661912Y-1678432D01*
G01X6655562Y-1675384D01*
G01X6652514Y-1672082D01*
G01X6649466Y-1665986D01*
G01X6649466Y-1653540D01*
G01X6652514Y-1647444D01*
G01X6655562Y-1644396D01*
G01X6661912Y-1641348D01*
G01X6668008Y-1641348D01*
G01X6674104Y-1644396D01*
G01X6683502Y-1650492D01*
G01X6714490Y-1681480D01*
G01X6714490Y-1638046D01*
G01X6664960Y-1604772D02*
G01X6661912Y-1604772D01*
G01X6655562Y-1601724D01*
G01X6652514Y-1598676D01*
G01X6649466Y-1592580D01*
G01X6649466Y-1580134D01*
G01X6652514Y-1573784D01*
G01X6655562Y-1570736D01*
G01X6661912Y-1567688D01*
G01X6668008Y-1567688D01*
G01X6674104Y-1570736D01*
G01X6683502Y-1577086D01*
G01X6714490Y-1607820D01*
G01X6714490Y-1564640D01*
G01X6649466Y-1515872D02*
G01X6652514Y-1525270D01*
G01X6661912Y-1531366D01*
G01X6677152Y-1534414D01*
G01X6686550Y-1534414D01*
G01X6702044Y-1531366D01*
G01X6711442Y-1525270D01*
G01X6714490Y-1515872D01*
G01X6714490Y-1509776D01*
G01X6711442Y-1500378D01*
G01X6702044Y-1494282D01*
G01X6686550Y-1491234D01*
G01X6677152Y-1491234D01*
G01X6661912Y-1494282D01*
G01X6652514Y-1500378D01*
G01X6649466Y-1509776D01*
G01X6649466Y-1515872D01*
G01X6671056Y-1461008D02*
G01X6702044Y-1461008D01*
G01X6711442Y-1457960D01*
G01X6714490Y-1451864D01*
G01X6714490Y-1442466D01*
G01X6711442Y-1436370D01*
G01X6702044Y-1426972D01*
G01X6671056Y-1426972D02*
G01X6714490Y-1426972D01*
G01X6649466Y-1396746D02*
G01X6714490Y-1396746D01*
G01X6649466Y-1396746D02*
G01X6649466Y-1356614D01*
G01X6680454Y-1396746D02*
G01X6680454Y-1372108D01*
G01X6899402Y-314960D02*
G01X6896354Y-308610D01*
G01X6890004Y-302514D01*
G01X6883908Y-299466D01*
G01X6871462Y-299466D01*
G01X6865366Y-302514D01*
G01X6859016Y-308610D01*
G01X6855968Y-314960D01*
G01X6852920Y-324104D01*
G01X6852920Y-339598D01*
G01X6855968Y-348996D01*
G01X6859016Y-355092D01*
G01X6865366Y-361442D01*
G01X6871462Y-364490D01*
G01X6883908Y-364490D01*
G01X6890004Y-361442D01*
G01X6896354Y-355092D01*
G01X6899402Y-348996D01*
G01X6944868Y-299466D02*
G01X6935724Y-302514D01*
G01X6932676Y-308610D01*
G01X6932676Y-314960D01*
G01X6935724Y-321056D01*
G01X6941820Y-324104D01*
G01X6954266Y-327152D01*
G01X6963664Y-330454D01*
G01X6969760Y-336550D01*
G01X6972808Y-342646D01*
G01X6972808Y-352044D01*
G01X6969760Y-358140D01*
G01X6966712Y-361442D01*
G01X6957314Y-364490D01*
G01X6944868Y-364490D01*
G01X6935724Y-361442D01*
G01X6932676Y-358140D01*
G01X6929628Y-352044D01*
G01X6929628Y-342646D01*
G01X6932676Y-336550D01*
G01X6938772Y-330454D01*
G01X6948170Y-327152D01*
G01X6960362Y-324104D01*
G01X6966712Y-321056D01*
G01X6969760Y-314960D01*
G01X6969760Y-308610D01*
G01X6966712Y-302514D01*
G01X6957314Y-299466D01*
G01X6944868Y-299466D01*
G01X7059168Y-314960D02*
G01X7059168Y-311912D01*
G01X7062216Y-305562D01*
G01X7065518Y-302514D01*
G01X7071614Y-299466D01*
G01X7084060Y-299466D01*
G01X7090156Y-302514D01*
G01X7093204Y-305562D01*
G01X7096252Y-311912D01*
G01X7096252Y-318008D01*
G01X7093204Y-324104D01*
G01X7087108Y-333502D01*
G01X7056120Y-364490D01*
G01X7099554Y-364490D01*
G01X7132828Y-314960D02*
G01X7132828Y-311912D01*
G01X7135876Y-305562D01*
G01X7138924Y-302514D01*
G01X7145020Y-299466D01*
G01X7157466Y-299466D01*
G01X7163816Y-302514D01*
G01X7166864Y-305562D01*
G01X7169912Y-311912D01*
G01X7169912Y-318008D01*
G01X7166864Y-324104D01*
G01X7160514Y-333502D01*
G01X7129780Y-364490D01*
G01X7172960Y-364490D01*
G01X7221728Y-299466D02*
G01X7212330Y-302514D01*
G01X7206234Y-311912D01*
G01X7203186Y-327152D01*
G01X7203186Y-336550D01*
G01X7206234Y-352044D01*
G01X7212330Y-361442D01*
G01X7221728Y-364490D01*
G01X7227824Y-364490D01*
G01X7237222Y-361442D01*
G01X7243318Y-352044D01*
G01X7246366Y-336550D01*
G01X7246366Y-327152D01*
G01X7243318Y-311912D01*
G01X7237222Y-302514D01*
G01X7227824Y-299466D01*
G01X7221728Y-299466D01*
G01X7276592Y-321056D02*
G01X7276592Y-352044D01*
G01X7279640Y-361442D01*
G01X7285736Y-364490D01*
G01X7295134Y-364490D01*
G01X7301230Y-361442D01*
G01X7310628Y-352044D01*
G01X7310628Y-321056D02*
G01X7310628Y-364490D01*
G01X7340854Y-299466D02*
G01X7340854Y-364490D01*
G01X7340854Y-299466D02*
G01X7380986Y-299466D01*
G01X7340854Y-330454D02*
G01X7365492Y-330454D01*
G01X6188202Y-2105660D02*
G01X6185154Y-2099310D01*
G01X6178804Y-2093214D01*
G01X6172708Y-2090166D01*
G01X6160262Y-2090166D01*
G01X6154166Y-2093214D01*
G01X6147816Y-2099310D01*
G01X6144768Y-2105660D01*
G01X6141720Y-2114804D01*
G01X6141720Y-2130298D01*
G01X6144768Y-2139696D01*
G01X6147816Y-2145792D01*
G01X6154166Y-2152142D01*
G01X6160262Y-2155190D01*
G01X6172708Y-2155190D01*
G01X6178804Y-2152142D01*
G01X6185154Y-2145792D01*
G01X6188202Y-2139696D01*
G01X6218428Y-2102612D02*
G01X6224524Y-2099310D01*
G01X6233668Y-2090166D01*
G01X6233668Y-2155190D01*
G01X6282436Y-2090166D02*
G01X6273038Y-2093214D01*
G01X6266942Y-2102612D01*
G01X6263894Y-2117852D01*
G01X6263894Y-2127250D01*
G01X6266942Y-2142744D01*
G01X6273038Y-2152142D01*
G01X6282436Y-2155190D01*
G01X6288532Y-2155190D01*
G01X6297930Y-2152142D01*
G01X6304026Y-2142744D01*
G01X6307074Y-2127250D01*
G01X6307074Y-2117852D01*
G01X6304026Y-2102612D01*
G01X6297930Y-2093214D01*
G01X6288532Y-2090166D01*
G01X6282436Y-2090166D01*
G01X6376416Y-2090166D02*
G01X6410452Y-2090166D01*
G01X6391910Y-2114804D01*
G01X6401308Y-2114804D01*
G01X6407404Y-2117852D01*
G01X6410452Y-2121154D01*
G01X6413754Y-2130298D01*
G01X6413754Y-2136648D01*
G01X6410452Y-2145792D01*
G01X6404356Y-2152142D01*
G01X6395212Y-2155190D01*
G01X6385814Y-2155190D01*
G01X6376416Y-2152142D01*
G01X6373368Y-2148840D01*
G01X6370320Y-2142744D01*
G01X6450076Y-2090166D02*
G01X6484112Y-2090166D01*
G01X6465570Y-2114804D01*
G01X6474714Y-2114804D01*
G01X6481064Y-2117852D01*
G01X6484112Y-2121154D01*
G01X6487160Y-2130298D01*
G01X6487160Y-2136648D01*
G01X6484112Y-2145792D01*
G01X6478016Y-2152142D01*
G01X6468618Y-2155190D01*
G01X6459220Y-2155190D01*
G01X6450076Y-2152142D01*
G01X6447028Y-2148840D01*
G01X6443980Y-2142744D01*
G01X6535928Y-2090166D02*
G01X6526530Y-2093214D01*
G01X6520434Y-2102612D01*
G01X6517386Y-2117852D01*
G01X6517386Y-2127250D01*
G01X6520434Y-2142744D01*
G01X6526530Y-2152142D01*
G01X6535928Y-2155190D01*
G01X6542024Y-2155190D01*
G01X6551422Y-2152142D01*
G01X6557518Y-2142744D01*
G01X6560566Y-2127250D01*
G01X6560566Y-2117852D01*
G01X6557518Y-2102612D01*
G01X6551422Y-2093214D01*
G01X6542024Y-2090166D01*
G01X6535928Y-2090166D01*
G01X6590792Y-2111756D02*
G01X6590792Y-2155190D01*
G01X6590792Y-2124202D02*
G01X6599936Y-2114804D01*
G01X6606032Y-2111756D01*
G01X6615430Y-2111756D01*
G01X6621526Y-2114804D01*
G01X6624828Y-2124202D01*
G01X6624828Y-2155190D01*
G01X6655054Y-2090166D02*
G01X6655054Y-2155190D01*
G01X6655054Y-2090166D02*
G01X6695186Y-2090166D01*
G01X6655054Y-2121154D02*
G01X6679692Y-2121154D01*
G01X6162802Y-1788160D02*
G01X6159754Y-1781810D01*
G01X6153404Y-1775714D01*
G01X6147308Y-1772666D01*
G01X6134862Y-1772666D01*
G01X6128766Y-1775714D01*
G01X6122416Y-1781810D01*
G01X6119368Y-1788160D01*
G01X6116320Y-1797304D01*
G01X6116320Y-1812798D01*
G01X6119368Y-1822196D01*
G01X6122416Y-1828292D01*
G01X6128766Y-1834642D01*
G01X6134862Y-1837690D01*
G01X6147308Y-1837690D01*
G01X6153404Y-1834642D01*
G01X6159754Y-1828292D01*
G01X6162802Y-1822196D01*
G01X6193028Y-1785112D02*
G01X6199124Y-1781810D01*
G01X6208268Y-1772666D01*
G01X6208268Y-1837690D01*
G01X6238494Y-1785112D02*
G01X6244590Y-1781810D01*
G01X6253734Y-1772666D01*
G01X6253734Y-1837690D01*
G01X6350508Y-1772666D02*
G01X6319520Y-1815846D01*
G01X6366002Y-1815846D01*
G01X6350508Y-1772666D02*
G01X6350508Y-1837690D01*
G01X6399276Y-1822196D02*
G01X6396228Y-1825244D01*
G01X6399276Y-1828292D01*
G01X6402324Y-1825244D01*
G01X6399276Y-1822196D01*
G01X6475730Y-1772666D02*
G01X6444742Y-1837690D01*
G01X6432550Y-1772666D02*
G01X6475730Y-1772666D01*
G01X6505956Y-1794256D02*
G01X6505956Y-1825244D01*
G01X6509004Y-1834642D01*
G01X6515100Y-1837690D01*
G01X6524498Y-1837690D01*
G01X6530594Y-1834642D01*
G01X6539992Y-1825244D01*
G01X6539992Y-1794256D02*
G01X6539992Y-1837690D01*
G01X6570218Y-1772666D02*
G01X6570218Y-1837690D01*
G01X6570218Y-1772666D02*
G01X6610350Y-1772666D01*
G01X6570218Y-1803654D02*
G01X6594856Y-1803654D01*
G01X505460Y-1736598D02*
G01X499110Y-1739646D01*
G01X493014Y-1745996D01*
G01X489966Y-1752092D01*
G01X489966Y-1764538D01*
G01X493014Y-1770634D01*
G01X499110Y-1776984D01*
G01X505460Y-1780032D01*
G01X514604Y-1783080D01*
G01X530098Y-1783080D01*
G01X539496Y-1780032D01*
G01X545592Y-1776984D01*
G01X551942Y-1770634D01*
G01X554990Y-1764538D01*
G01X554990Y-1752092D01*
G01X551942Y-1745996D01*
G01X545592Y-1739646D01*
G01X539496Y-1736598D01*
G01X505460Y-1703324D02*
G01X502412Y-1703324D01*
G01X496062Y-1700276D01*
G01X493014Y-1697228D01*
G01X489966Y-1691132D01*
G01X489966Y-1678686D01*
G01X493014Y-1672336D01*
G01X496062Y-1669288D01*
G01X502412Y-1666240D01*
G01X508508Y-1666240D01*
G01X514604Y-1669288D01*
G01X524002Y-1675638D01*
G01X554990Y-1706372D01*
G01X554990Y-1663192D01*
G01X505460Y-1538732D02*
G01X502412Y-1538732D01*
G01X496062Y-1535684D01*
G01X493014Y-1532382D01*
G01X489966Y-1526286D01*
G01X489966Y-1513840D01*
G01X493014Y-1507744D01*
G01X496062Y-1504696D01*
G01X502412Y-1501648D01*
G01X508508Y-1501648D01*
G01X514604Y-1504696D01*
G01X524002Y-1510792D01*
G01X554990Y-1541780D01*
G01X554990Y-1498346D01*
G01X505460Y-1465072D02*
G01X502412Y-1465072D01*
G01X496062Y-1462024D01*
G01X493014Y-1458976D01*
G01X489966Y-1452880D01*
G01X489966Y-1440434D01*
G01X493014Y-1434084D01*
G01X496062Y-1431036D01*
G01X502412Y-1427988D01*
G01X508508Y-1427988D01*
G01X514604Y-1431036D01*
G01X524002Y-1437386D01*
G01X554990Y-1468120D01*
G01X554990Y-1424940D01*
G01X489966Y-1376172D02*
G01X493014Y-1385570D01*
G01X502412Y-1391666D01*
G01X517652Y-1394714D01*
G01X527050Y-1394714D01*
G01X542544Y-1391666D01*
G01X551942Y-1385570D01*
G01X554990Y-1376172D01*
G01X554990Y-1370076D01*
G01X551942Y-1360678D01*
G01X542544Y-1354582D01*
G01X527050Y-1351534D01*
G01X517652Y-1351534D01*
G01X502412Y-1354582D01*
G01X493014Y-1360678D01*
G01X489966Y-1370076D01*
G01X489966Y-1376172D01*
G01X511556Y-1321308D02*
G01X542544Y-1321308D01*
G01X551942Y-1318260D01*
G01X554990Y-1312164D01*
G01X554990Y-1302766D01*
G01X551942Y-1296670D01*
G01X542544Y-1287272D01*
G01X511556Y-1287272D02*
G01X554990Y-1287272D01*
G01X489966Y-1257046D02*
G01X554990Y-1257046D01*
G01X489966Y-1257046D02*
G01X489966Y-1216914D01*
G01X520954Y-1257046D02*
G01X520954Y-1232408D01*
G01X879602Y-137160D02*
G01X876554Y-130810D01*
G01X870204Y-124714D01*
G01X864108Y-121666D01*
G01X851662Y-121666D01*
G01X845566Y-124714D01*
G01X839216Y-130810D01*
G01X836168Y-137160D01*
G01X833120Y-146304D01*
G01X833120Y-161798D01*
G01X836168Y-171196D01*
G01X839216Y-177292D01*
G01X845566Y-183642D01*
G01X851662Y-186690D01*
G01X864108Y-186690D01*
G01X870204Y-183642D01*
G01X876554Y-177292D01*
G01X879602Y-171196D01*
G01X909828Y-134112D02*
G01X915924Y-130810D01*
G01X925068Y-121666D01*
G01X925068Y-186690D01*
G01X1052068Y-137160D02*
G01X1052068Y-134112D01*
G01X1055116Y-127762D01*
G01X1058418Y-124714D01*
G01X1064514Y-121666D01*
G01X1076960Y-121666D01*
G01X1083056Y-124714D01*
G01X1086104Y-127762D01*
G01X1089152Y-134112D01*
G01X1089152Y-140208D01*
G01X1086104Y-146304D01*
G01X1080008Y-155702D01*
G01X1049020Y-186690D01*
G01X1092454Y-186690D01*
G01X1125728Y-137160D02*
G01X1125728Y-134112D01*
G01X1128776Y-127762D01*
G01X1131824Y-124714D01*
G01X1137920Y-121666D01*
G01X1150366Y-121666D01*
G01X1156716Y-124714D01*
G01X1159764Y-127762D01*
G01X1162812Y-134112D01*
G01X1162812Y-140208D01*
G01X1159764Y-146304D01*
G01X1153414Y-155702D01*
G01X1122680Y-186690D01*
G01X1165860Y-186690D01*
G01X1214628Y-121666D02*
G01X1205230Y-124714D01*
G01X1199134Y-134112D01*
G01X1196086Y-149352D01*
G01X1196086Y-158750D01*
G01X1199134Y-174244D01*
G01X1205230Y-183642D01*
G01X1214628Y-186690D01*
G01X1220724Y-186690D01*
G01X1230122Y-183642D01*
G01X1236218Y-174244D01*
G01X1239266Y-158750D01*
G01X1239266Y-149352D01*
G01X1236218Y-134112D01*
G01X1230122Y-124714D01*
G01X1220724Y-121666D01*
G01X1214628Y-121666D01*
G01X1269492Y-143256D02*
G01X1269492Y-174244D01*
G01X1272540Y-183642D01*
G01X1278636Y-186690D01*
G01X1288034Y-186690D01*
G01X1294130Y-183642D01*
G01X1303528Y-174244D01*
G01X1303528Y-143256D02*
G01X1303528Y-186690D01*
G01X1333754Y-121666D02*
G01X1333754Y-186690D01*
G01X1333754Y-121666D02*
G01X1373886Y-121666D01*
G01X1333754Y-152654D02*
G01X1358392Y-152654D01*
G01X1483360Y-1279398D02*
G01X1477010Y-1282446D01*
G01X1470914Y-1288796D01*
G01X1467866Y-1294892D01*
G01X1467866Y-1307338D01*
G01X1470914Y-1313434D01*
G01X1477010Y-1319784D01*
G01X1483360Y-1322832D01*
G01X1492504Y-1325880D01*
G01X1507998Y-1325880D01*
G01X1517396Y-1322832D01*
G01X1523492Y-1319784D01*
G01X1529842Y-1313434D01*
G01X1532890Y-1307338D01*
G01X1532890Y-1294892D01*
G01X1529842Y-1288796D01*
G01X1523492Y-1282446D01*
G01X1517396Y-1279398D01*
G01X1467866Y-1243076D02*
G01X1467866Y-1209040D01*
G01X1492504Y-1227582D01*
G01X1492504Y-1218438D01*
G01X1495552Y-1212088D01*
G01X1498854Y-1209040D01*
G01X1507998Y-1205992D01*
G01X1514348Y-1205992D01*
G01X1523492Y-1209040D01*
G01X1529842Y-1215136D01*
G01X1532890Y-1224534D01*
G01X1532890Y-1233932D01*
G01X1529842Y-1243076D01*
G01X1526540Y-1246124D01*
G01X1520444Y-1249172D01*
G01X1467866Y-1141984D02*
G01X1467866Y-1107948D01*
G01X1492504Y-1126490D01*
G01X1492504Y-1117092D01*
G01X1495552Y-1110996D01*
G01X1498854Y-1107948D01*
G01X1507998Y-1104646D01*
G01X1514348Y-1104646D01*
G01X1523492Y-1107948D01*
G01X1529842Y-1114044D01*
G01X1532890Y-1123188D01*
G01X1532890Y-1132586D01*
G01X1529842Y-1141984D01*
G01X1526540Y-1145032D01*
G01X1520444Y-1148080D01*
G01X1467866Y-1068324D02*
G01X1467866Y-1034288D01*
G01X1492504Y-1052830D01*
G01X1492504Y-1043686D01*
G01X1495552Y-1037336D01*
G01X1498854Y-1034288D01*
G01X1507998Y-1031240D01*
G01X1514348Y-1031240D01*
G01X1523492Y-1034288D01*
G01X1529842Y-1040384D01*
G01X1532890Y-1049782D01*
G01X1532890Y-1059180D01*
G01X1529842Y-1068324D01*
G01X1526540Y-1071372D01*
G01X1520444Y-1074420D01*
G01X1467866Y-982472D02*
G01X1470914Y-991870D01*
G01X1480312Y-997966D01*
G01X1495552Y-1001014D01*
G01X1504950Y-1001014D01*
G01X1520444Y-997966D01*
G01X1529842Y-991870D01*
G01X1532890Y-982472D01*
G01X1532890Y-976376D01*
G01X1529842Y-966978D01*
G01X1520444Y-960882D01*
G01X1504950Y-957834D01*
G01X1495552Y-957834D01*
G01X1480312Y-960882D01*
G01X1470914Y-966978D01*
G01X1467866Y-976376D01*
G01X1467866Y-982472D01*
G01X1489456Y-927608D02*
G01X1532890Y-927608D01*
G01X1501902Y-927608D02*
G01X1492504Y-918464D01*
G01X1489456Y-912368D01*
G01X1489456Y-902970D01*
G01X1492504Y-896874D01*
G01X1501902Y-893572D01*
G01X1532890Y-893572D01*
G01X1467866Y-863346D02*
G01X1532890Y-863346D01*
G01X1467866Y-863346D02*
G01X1467866Y-823214D01*
G01X1498854Y-863346D02*
G01X1498854Y-838708D01*
G01X1826260Y-1253998D02*
G01X1819910Y-1257046D01*
G01X1813814Y-1263396D01*
G01X1810766Y-1269492D01*
G01X1810766Y-1281938D01*
G01X1813814Y-1288034D01*
G01X1819910Y-1294384D01*
G01X1826260Y-1297432D01*
G01X1835404Y-1300480D01*
G01X1850898Y-1300480D01*
G01X1860296Y-1297432D01*
G01X1866392Y-1294384D01*
G01X1872742Y-1288034D01*
G01X1875790Y-1281938D01*
G01X1875790Y-1269492D01*
G01X1872742Y-1263396D01*
G01X1866392Y-1257046D01*
G01X1860296Y-1253998D01*
G01X1810766Y-1193038D02*
G01X1853946Y-1223772D01*
G01X1853946Y-1177544D01*
G01X1810766Y-1193038D02*
G01X1875790Y-1193038D01*
G01X2115566Y-1155192D02*
G01X2158746Y-1186180D01*
G01X2158746Y-1139698D01*
G01X2115566Y-1155192D02*
G01X2180590Y-1155192D01*
G01X2165096Y-1106424D02*
G01X2168144Y-1109472D01*
G01X2171192Y-1106424D01*
G01X2168144Y-1103376D01*
G01X2165096Y-1106424D01*
G01X2115566Y-1029970D02*
G01X2180590Y-1060958D01*
G01X2115566Y-1073150D02*
G01X2115566Y-1029970D01*
G01X2137156Y-999744D02*
G01X2168144Y-999744D01*
G01X2177542Y-996696D01*
G01X2180590Y-990600D01*
G01X2180590Y-981202D01*
G01X2177542Y-975106D01*
G01X2168144Y-965708D01*
G01X2137156Y-965708D02*
G01X2180590Y-965708D01*
G01X2115566Y-935482D02*
G01X2180590Y-935482D01*
G01X2115566Y-935482D02*
G01X2115566Y-895350D01*
G01X2146554Y-935482D02*
G01X2146554Y-910844D01*
G01X6865620Y-2128266D02*
G01X6865620Y-2174748D01*
G01X6868668Y-2183892D01*
G01X6875018Y-2190242D01*
G01X6884162Y-2193290D01*
G01X6890512Y-2193290D01*
G01X6899656Y-2190242D01*
G01X6905752Y-2183892D01*
G01X6909054Y-2174748D01*
G01X6909054Y-2128266D01*
G01X6945376Y-2128266D02*
G01X6979412Y-2128266D01*
G01X6960870Y-2152904D01*
G01X6970014Y-2152904D01*
G01X6976364Y-2155952D01*
G01X6979412Y-2159254D01*
G01X6982460Y-2168398D01*
G01X6982460Y-2174748D01*
G01X6979412Y-2183892D01*
G01X6973316Y-2190242D01*
G01X6963918Y-2193290D01*
G01X6954520Y-2193290D01*
G01X6945376Y-2190242D01*
G01X6942328Y-2186940D01*
G01X6939280Y-2180844D01*
G01X7119620Y-2128266D02*
G01X7119620Y-2193290D01*
G01X7163054Y-2128266D02*
G01X7119620Y-2171446D01*
G01X7135114Y-2155952D02*
G01X7163054Y-2193290D01*
G01X7193280Y-2128266D02*
G01X7193280Y-2193290D01*
G01X7193280Y-2128266D02*
G01X7233412Y-2128266D01*
G01X7193280Y-2159254D02*
G01X7217918Y-2159254D01*
G01X7306818Y-2128266D02*
G01X7275830Y-2193290D01*
G01X7263638Y-2128266D02*
G01X7306818Y-2128266D01*
G01X7340092Y-2177796D02*
G01X7337044Y-2180844D01*
G01X7340092Y-2183892D01*
G01X7343140Y-2180844D01*
G01X7340092Y-2177796D01*
G01X7410450Y-2137410D02*
G01X7407402Y-2131314D01*
G01X7398004Y-2128266D01*
G01X7391908Y-2128266D01*
G01X7382510Y-2131314D01*
G01X7376414Y-2140712D01*
G01X7373366Y-2155952D01*
G01X7373366Y-2171446D01*
G01X7376414Y-2183892D01*
G01X7382510Y-2190242D01*
G01X7391908Y-2193290D01*
G01X7394956Y-2193290D01*
G01X7404100Y-2190242D01*
G01X7410450Y-2183892D01*
G01X7413498Y-2174748D01*
G01X7413498Y-2171446D01*
G01X7410450Y-2162302D01*
G01X7404100Y-2155952D01*
G01X7394956Y-2152904D01*
G01X7391908Y-2152904D01*
G01X7382510Y-2155952D01*
G01X7376414Y-2162302D01*
G01X7373366Y-2171446D01*
G01X7446772Y-2143760D02*
G01X7446772Y-2140712D01*
G01X7449820Y-2134362D01*
G01X7452868Y-2131314D01*
G01X7458964Y-2128266D01*
G01X7471410Y-2128266D01*
G01X7477760Y-2131314D01*
G01X7480808Y-2134362D01*
G01X7483856Y-2140712D01*
G01X7483856Y-2146808D01*
G01X7480808Y-2152904D01*
G01X7474458Y-2162302D01*
G01X7443724Y-2193290D01*
G01X7486904Y-2193290D01*
G01X7517130Y-2165350D02*
G01X7572756Y-2165350D01*
G01X7606030Y-2143760D02*
G01X7606030Y-2140712D01*
G01X7609078Y-2134362D01*
G01X7612126Y-2131314D01*
G01X7618222Y-2128266D01*
G01X7630668Y-2128266D01*
G01X7637018Y-2131314D01*
G01X7640066Y-2134362D01*
G01X7643114Y-2140712D01*
G01X7643114Y-2146808D01*
G01X7640066Y-2152904D01*
G01X7633716Y-2162302D01*
G01X7602982Y-2193290D01*
G01X7646162Y-2193290D01*
G01X7676388Y-2128266D02*
G01X7676388Y-2193290D01*
G01X7676388Y-2128266D02*
G01X7704074Y-2128266D01*
G01X7713472Y-2131314D01*
G01X7716520Y-2134362D01*
G01X7719568Y-2140712D01*
G01X7719568Y-2149856D01*
G01X7716520Y-2155952D01*
G01X7713472Y-2159254D01*
G01X7704074Y-2162302D01*
G01X7676388Y-2162302D01*
G01X121920Y-3817366D02*
G01X121920Y-3863848D01*
G01X124968Y-3872992D01*
G01X131318Y-3879342D01*
G01X140462Y-3882390D01*
G01X146812Y-3882390D01*
G01X155956Y-3879342D01*
G01X162052Y-3872992D01*
G01X165354Y-3863848D01*
G01X165354Y-3817366D01*
G01X195580Y-3829812D02*
G01X201676Y-3826510D01*
G01X210820Y-3817366D01*
G01X210820Y-3882390D01*
G01X325120Y-3804666D02*
G01X325120Y-3869690D01*
G01X368554Y-3804666D02*
G01X325120Y-3847846D01*
G01X340614Y-3832352D02*
G01X368554Y-3869690D01*
G01X398780Y-3804666D02*
G01X398780Y-3869690D01*
G01X398780Y-3804666D02*
G01X438912Y-3804666D01*
G01X398780Y-3835654D02*
G01X423418Y-3835654D01*
G01X512318Y-3804666D02*
G01X481330Y-3869690D01*
G01X469138Y-3804666D02*
G01X512318Y-3804666D01*
G01X545592Y-3854196D02*
G01X542544Y-3857244D01*
G01X545592Y-3860292D01*
G01X548640Y-3857244D01*
G01X545592Y-3854196D01*
G01X615950Y-3813810D02*
G01X612902Y-3807714D01*
G01X603504Y-3804666D01*
G01X597408Y-3804666D01*
G01X588010Y-3807714D01*
G01X581914Y-3817112D01*
G01X578866Y-3832352D01*
G01X578866Y-3847846D01*
G01X581914Y-3860292D01*
G01X588010Y-3866642D01*
G01X597408Y-3869690D01*
G01X600456Y-3869690D01*
G01X609600Y-3866642D01*
G01X615950Y-3860292D01*
G01X618998Y-3851148D01*
G01X618998Y-3847846D01*
G01X615950Y-3838702D01*
G01X609600Y-3832352D01*
G01X600456Y-3829304D01*
G01X597408Y-3829304D01*
G01X588010Y-3832352D01*
G01X581914Y-3838702D01*
G01X578866Y-3847846D01*
G01X652272Y-3820160D02*
G01X652272Y-3817112D01*
G01X655320Y-3810762D01*
G01X658368Y-3807714D01*
G01X664464Y-3804666D01*
G01X676910Y-3804666D01*
G01X683260Y-3807714D01*
G01X686308Y-3810762D01*
G01X689356Y-3817112D01*
G01X689356Y-3823208D01*
G01X686308Y-3829304D01*
G01X679958Y-3838702D01*
G01X649224Y-3869690D01*
G01X692404Y-3869690D01*
G01X722630Y-3841750D02*
G01X778256Y-3841750D01*
G01X811530Y-3820160D02*
G01X811530Y-3817112D01*
G01X814578Y-3810762D01*
G01X817626Y-3807714D01*
G01X823722Y-3804666D01*
G01X836168Y-3804666D01*
G01X842518Y-3807714D01*
G01X845566Y-3810762D01*
G01X848614Y-3817112D01*
G01X848614Y-3823208D01*
G01X845566Y-3829304D01*
G01X839216Y-3838702D01*
G01X808482Y-3869690D01*
G01X851662Y-3869690D01*
G01X881888Y-3804666D02*
G01X881888Y-3869690D01*
G01X881888Y-3804666D02*
G01X909574Y-3804666D01*
G01X918972Y-3807714D01*
G01X922020Y-3810762D01*
G01X925068Y-3817112D01*
G01X925068Y-3826256D01*
G01X922020Y-3832352D01*
G01X918972Y-3835654D01*
G01X909574Y-3838702D01*
G01X881888Y-3838702D01*
G01X4422902Y-3020060D02*
G01X4419854Y-3013710D01*
G01X4413504Y-3007614D01*
G01X4407408Y-3004566D01*
G01X4394962Y-3004566D01*
G01X4388866Y-3007614D01*
G01X4382516Y-3013710D01*
G01X4379468Y-3020060D01*
G01X4376420Y-3029204D01*
G01X4376420Y-3044698D01*
G01X4379468Y-3054096D01*
G01X4382516Y-3060192D01*
G01X4388866Y-3066542D01*
G01X4394962Y-3069590D01*
G01X4407408Y-3069590D01*
G01X4413504Y-3066542D01*
G01X4419854Y-3060192D01*
G01X4422902Y-3054096D01*
G01X4490212Y-3004566D02*
G01X4459224Y-3004566D01*
G01X4456176Y-3032252D01*
G01X4459224Y-3029204D01*
G01X4468368Y-3026156D01*
G01X4477766Y-3026156D01*
G01X4487164Y-3029204D01*
G01X4493260Y-3035554D01*
G01X4496308Y-3044698D01*
G01X4496308Y-3051048D01*
G01X4493260Y-3060192D01*
G01X4487164Y-3066542D01*
G01X4477766Y-3069590D01*
G01X4468368Y-3069590D01*
G01X4459224Y-3066542D01*
G01X4456176Y-3063240D01*
G01X4453128Y-3057144D01*
G01X4566920Y-3017012D02*
G01X4573016Y-3013710D01*
G01X4582414Y-3004566D01*
G01X4582414Y-3069590D01*
G01X4631182Y-3004566D02*
G01X4621784Y-3007614D01*
G01X4615688Y-3017012D01*
G01X4612640Y-3032252D01*
G01X4612640Y-3041650D01*
G01X4615688Y-3057144D01*
G01X4621784Y-3066542D01*
G01X4631182Y-3069590D01*
G01X4637278Y-3069590D01*
G01X4646676Y-3066542D01*
G01X4652772Y-3057144D01*
G01X4655820Y-3041650D01*
G01X4655820Y-3032252D01*
G01X4652772Y-3017012D01*
G01X4646676Y-3007614D01*
G01X4637278Y-3004566D01*
G01X4631182Y-3004566D01*
G01X4704588Y-3004566D02*
G01X4695190Y-3007614D01*
G01X4689094Y-3017012D01*
G01X4686046Y-3032252D01*
G01X4686046Y-3041650D01*
G01X4689094Y-3057144D01*
G01X4695190Y-3066542D01*
G01X4704588Y-3069590D01*
G01X4710684Y-3069590D01*
G01X4720082Y-3066542D01*
G01X4726178Y-3057144D01*
G01X4729226Y-3041650D01*
G01X4729226Y-3032252D01*
G01X4726178Y-3017012D01*
G01X4720082Y-3007614D01*
G01X4710684Y-3004566D01*
G01X4704588Y-3004566D01*
G01X4759452Y-3026156D02*
G01X4759452Y-3069590D01*
G01X4759452Y-3038602D02*
G01X4768596Y-3029204D01*
G01X4774692Y-3026156D01*
G01X4784090Y-3026156D01*
G01X4790186Y-3029204D01*
G01X4793488Y-3038602D01*
G01X4793488Y-3069590D01*
G01X4823714Y-3004566D02*
G01X4823714Y-3069590D01*
G01X4823714Y-3004566D02*
G01X4863846Y-3004566D01*
G01X4823714Y-3035554D02*
G01X4848352Y-3035554D01*
G01X4886960Y-3971798D02*
G01X4880610Y-3974846D01*
G01X4874514Y-3981196D01*
G01X4871466Y-3987292D01*
G01X4871466Y-3999738D01*
G01X4874514Y-4005834D01*
G01X4880610Y-4012184D01*
G01X4886960Y-4015232D01*
G01X4896104Y-4018280D01*
G01X4911598Y-4018280D01*
G01X4920996Y-4015232D01*
G01X4927092Y-4012184D01*
G01X4933442Y-4005834D01*
G01X4936490Y-3999738D01*
G01X4936490Y-3987292D01*
G01X4933442Y-3981196D01*
G01X4927092Y-3974846D01*
G01X4920996Y-3971798D01*
G01X4883912Y-3941572D02*
G01X4880610Y-3935476D01*
G01X4871466Y-3926332D01*
G01X4936490Y-3926332D01*
G01X4871466Y-3865372D02*
G01X4914646Y-3896106D01*
G01X4914646Y-3849878D01*
G01X4871466Y-3865372D02*
G01X4936490Y-3865372D01*
G01X4883912Y-3764280D02*
G01X4880610Y-3758184D01*
G01X4871466Y-3748786D01*
G01X4936490Y-3748786D01*
G01X4893056Y-3718560D02*
G01X4924044Y-3718560D01*
G01X4933442Y-3715512D01*
G01X4936490Y-3709416D01*
G01X4936490Y-3700018D01*
G01X4933442Y-3693922D01*
G01X4924044Y-3684524D01*
G01X4893056Y-3684524D02*
G01X4936490Y-3684524D01*
G01X4871466Y-3654298D02*
G01X4936490Y-3654298D01*
G01X4871466Y-3654298D02*
G01X4871466Y-3614166D01*
G01X4902454Y-3654298D02*
G01X4902454Y-3629660D01*
G01X3843020Y-2610866D02*
G01X3843020Y-2675890D01*
G01X3843020Y-2610866D02*
G01X3870960Y-2610866D01*
G01X3880104Y-2613914D01*
G01X3883152Y-2616962D01*
G01X3886454Y-2623312D01*
G01X3886454Y-2629408D01*
G01X3883152Y-2635504D01*
G01X3880104Y-2638552D01*
G01X3870960Y-2641854D01*
G01X3843020Y-2641854D01*
G01X3864610Y-2641854D02*
G01X3886454Y-2675890D01*
G01X3916680Y-2623312D02*
G01X3922776Y-2620010D01*
G01X3931920Y-2610866D01*
G01X3931920Y-2675890D01*
G01X4071620Y-2610866D02*
G01X4071620Y-2675890D01*
G01X4071620Y-2610866D02*
G01X4115054Y-2675890D01*
G01X4115054Y-2610866D02*
G01X4115054Y-2675890D01*
G01X4191508Y-2626360D02*
G01X4188460Y-2620010D01*
G01X4182364Y-2613914D01*
G01X4176014Y-2610866D01*
G01X4163822Y-2610866D01*
G01X4157472Y-2613914D01*
G01X4151376Y-2620010D01*
G01X4148328Y-2626360D01*
G01X4145280Y-2635504D01*
G01X4145280Y-2650998D01*
G01X4148328Y-2660396D01*
G01X4151376Y-2666492D01*
G01X4157472Y-2672842D01*
G01X4163822Y-2675890D01*
G01X4176014Y-2675890D01*
G01X4182364Y-2672842D01*
G01X4188460Y-2666492D01*
G01X4191508Y-2660396D01*
G01X2791460Y-3501898D02*
G01X2785110Y-3504946D01*
G01X2779014Y-3511296D01*
G01X2775966Y-3517392D01*
G01X2775966Y-3529838D01*
G01X2779014Y-3535934D01*
G01X2785110Y-3542284D01*
G01X2791460Y-3545332D01*
G01X2800604Y-3548380D01*
G01X2816098Y-3548380D01*
G01X2825496Y-3545332D01*
G01X2831592Y-3542284D01*
G01X2837942Y-3535934D01*
G01X2840990Y-3529838D01*
G01X2840990Y-3517392D01*
G01X2837942Y-3511296D01*
G01X2831592Y-3504946D01*
G01X2825496Y-3501898D01*
G01X2775966Y-3428492D02*
G01X2840990Y-3459480D01*
G01X2775966Y-3471672D02*
G01X2775966Y-3428492D01*
G01X2788412Y-3370580D02*
G01X2785110Y-3364484D01*
G01X2775966Y-3355086D01*
G01X2840990Y-3355086D01*
G01X2775966Y-3306318D02*
G01X2779014Y-3315716D01*
G01X2788412Y-3321812D01*
G01X2803652Y-3324860D01*
G01X2813050Y-3324860D01*
G01X2828544Y-3321812D01*
G01X2837942Y-3315716D01*
G01X2840990Y-3306318D01*
G01X2840990Y-3300222D01*
G01X2837942Y-3290824D01*
G01X2828544Y-3284728D01*
G01X2813050Y-3281680D01*
G01X2803652Y-3281680D01*
G01X2788412Y-3284728D01*
G01X2779014Y-3290824D01*
G01X2775966Y-3300222D01*
G01X2775966Y-3306318D01*
G01X2775966Y-3232912D02*
G01X2779014Y-3242310D01*
G01X2788412Y-3248406D01*
G01X2803652Y-3251454D01*
G01X2813050Y-3251454D01*
G01X2828544Y-3248406D01*
G01X2837942Y-3242310D01*
G01X2840990Y-3232912D01*
G01X2840990Y-3226816D01*
G01X2837942Y-3217418D01*
G01X2828544Y-3211322D01*
G01X2813050Y-3208274D01*
G01X2803652Y-3208274D01*
G01X2788412Y-3211322D01*
G01X2779014Y-3217418D01*
G01X2775966Y-3226816D01*
G01X2775966Y-3232912D01*
G01X2797556Y-3178048D02*
G01X2840990Y-3178048D01*
G01X2810002Y-3178048D02*
G01X2800604Y-3168904D01*
G01X2797556Y-3162808D01*
G01X2797556Y-3153410D01*
G01X2800604Y-3147314D01*
G01X2810002Y-3144012D01*
G01X2840990Y-3144012D01*
G01X2775966Y-3113786D02*
G01X2840990Y-3113786D01*
G01X2775966Y-3113786D02*
G01X2775966Y-3073654D01*
G01X2806954Y-3113786D02*
G01X2806954Y-3089148D01*
G01X4300220Y-4198366D02*
G01X4300220Y-4263390D01*
G01X4300220Y-4198366D02*
G01X4328160Y-4198366D01*
G01X4337304Y-4201414D01*
G01X4340352Y-4204462D01*
G01X4343654Y-4210812D01*
G01X4343654Y-4216908D01*
G01X4340352Y-4223004D01*
G01X4337304Y-4226052D01*
G01X4328160Y-4229354D01*
G01X4300220Y-4229354D01*
G01X4321810Y-4229354D02*
G01X4343654Y-4263390D01*
G01X4417060Y-4198366D02*
G01X4386072Y-4263390D01*
G01X4373880Y-4198366D02*
G01X4417060Y-4198366D01*
G01X4465320Y-4210812D02*
G01X4471416Y-4207510D01*
G01X4480814Y-4198366D01*
G01X4480814Y-4263390D01*
G01X4529582Y-4198366D02*
G01X4520184Y-4201414D01*
G01X4514088Y-4210812D01*
G01X4511040Y-4226052D01*
G01X4511040Y-4235450D01*
G01X4514088Y-4250944D01*
G01X4520184Y-4260342D01*
G01X4529582Y-4263390D01*
G01X4535678Y-4263390D01*
G01X4545076Y-4260342D01*
G01X4551172Y-4250944D01*
G01X4554220Y-4235450D01*
G01X4554220Y-4226052D01*
G01X4551172Y-4210812D01*
G01X4545076Y-4201414D01*
G01X4535678Y-4198366D01*
G01X4529582Y-4198366D01*
G01X4584446Y-4198366D02*
G01X4584446Y-4263390D01*
G01X4627626Y-4198366D02*
G01X4584446Y-4241546D01*
G01X4599686Y-4226052D02*
G01X4627626Y-4263390D01*
G01X3813302Y-4213860D02*
G01X3810254Y-4207510D01*
G01X3803904Y-4201414D01*
G01X3797808Y-4198366D01*
G01X3785362Y-4198366D01*
G01X3779266Y-4201414D01*
G01X3772916Y-4207510D01*
G01X3769868Y-4213860D01*
G01X3766820Y-4223004D01*
G01X3766820Y-4238498D01*
G01X3769868Y-4247896D01*
G01X3772916Y-4253992D01*
G01X3779266Y-4260342D01*
G01X3785362Y-4263390D01*
G01X3797808Y-4263390D01*
G01X3803904Y-4260342D01*
G01X3810254Y-4253992D01*
G01X3813302Y-4247896D01*
G01X3843528Y-4210812D02*
G01X3849624Y-4207510D01*
G01X3858768Y-4198366D01*
G01X3858768Y-4263390D01*
G01X3932174Y-4198366D02*
G01X3901186Y-4263390D01*
G01X3888994Y-4198366D02*
G01X3932174Y-4198366D01*
G01X3970020Y-4210812D02*
G01X3976116Y-4207510D01*
G01X3985514Y-4198366D01*
G01X3985514Y-4263390D01*
G01X4034282Y-4198366D02*
G01X4024884Y-4201414D01*
G01X4018788Y-4210812D01*
G01X4015740Y-4226052D01*
G01X4015740Y-4235450D01*
G01X4018788Y-4250944D01*
G01X4024884Y-4260342D01*
G01X4034282Y-4263390D01*
G01X4040378Y-4263390D01*
G01X4049776Y-4260342D01*
G01X4055872Y-4250944D01*
G01X4058920Y-4235450D01*
G01X4058920Y-4226052D01*
G01X4055872Y-4210812D01*
G01X4049776Y-4201414D01*
G01X4040378Y-4198366D01*
G01X4034282Y-4198366D01*
G01X4107688Y-4198366D02*
G01X4098290Y-4201414D01*
G01X4092194Y-4210812D01*
G01X4089146Y-4226052D01*
G01X4089146Y-4235450D01*
G01X4092194Y-4250944D01*
G01X4098290Y-4260342D01*
G01X4107688Y-4263390D01*
G01X4113784Y-4263390D01*
G01X4123182Y-4260342D01*
G01X4129278Y-4250944D01*
G01X4132326Y-4235450D01*
G01X4132326Y-4226052D01*
G01X4129278Y-4210812D01*
G01X4123182Y-4201414D01*
G01X4113784Y-4198366D01*
G01X4107688Y-4198366D01*
G01X4162552Y-4219956D02*
G01X4162552Y-4263390D01*
G01X4162552Y-4232402D02*
G01X4171696Y-4223004D01*
G01X4177792Y-4219956D01*
G01X4187190Y-4219956D01*
G01X4193286Y-4223004D01*
G01X4196588Y-4232402D01*
G01X4196588Y-4263390D01*
G01X4226814Y-4198366D02*
G01X4226814Y-4263390D01*
G01X4226814Y-4198366D02*
G01X4266946Y-4198366D01*
G01X4226814Y-4229354D02*
G01X4251452Y-4229354D01*
G01X4270502Y-4518660D02*
G01X4267454Y-4512310D01*
G01X4261104Y-4506214D01*
G01X4255008Y-4503166D01*
G01X4242562Y-4503166D01*
G01X4236466Y-4506214D01*
G01X4230116Y-4512310D01*
G01X4227068Y-4518660D01*
G01X4224020Y-4527804D01*
G01X4224020Y-4543298D01*
G01X4227068Y-4552696D01*
G01X4230116Y-4558792D01*
G01X4236466Y-4565142D01*
G01X4242562Y-4568190D01*
G01X4255008Y-4568190D01*
G01X4261104Y-4565142D01*
G01X4267454Y-4558792D01*
G01X4270502Y-4552696D01*
G01X4300728Y-4515612D02*
G01X4306824Y-4512310D01*
G01X4315968Y-4503166D01*
G01X4315968Y-4568190D01*
G01X4383278Y-4512310D02*
G01X4380230Y-4506214D01*
G01X4370832Y-4503166D01*
G01X4364736Y-4503166D01*
G01X4355338Y-4506214D01*
G01X4349242Y-4515612D01*
G01X4346194Y-4530852D01*
G01X4346194Y-4546346D01*
G01X4349242Y-4558792D01*
G01X4355338Y-4565142D01*
G01X4364736Y-4568190D01*
G01X4367784Y-4568190D01*
G01X4376928Y-4565142D01*
G01X4383278Y-4558792D01*
G01X4386326Y-4549648D01*
G01X4386326Y-4546346D01*
G01X4383278Y-4537202D01*
G01X4376928Y-4530852D01*
G01X4367784Y-4527804D01*
G01X4364736Y-4527804D01*
G01X4355338Y-4530852D01*
G01X4349242Y-4537202D01*
G01X4346194Y-4546346D01*
G01X4455668Y-4518660D02*
G01X4455668Y-4515612D01*
G01X4458716Y-4509262D01*
G01X4462018Y-4506214D01*
G01X4468114Y-4503166D01*
G01X4480560Y-4503166D01*
G01X4486656Y-4506214D01*
G01X4489704Y-4509262D01*
G01X4492752Y-4515612D01*
G01X4492752Y-4521708D01*
G01X4489704Y-4527804D01*
G01X4483608Y-4537202D01*
G01X4452620Y-4568190D01*
G01X4496054Y-4568190D01*
G01X4529328Y-4552696D02*
G01X4526280Y-4555744D01*
G01X4529328Y-4558792D01*
G01X4532376Y-4555744D01*
G01X4529328Y-4552696D01*
G01X4565650Y-4518660D02*
G01X4565650Y-4515612D01*
G01X4568698Y-4509262D01*
G01X4571746Y-4506214D01*
G01X4577842Y-4503166D01*
G01X4590288Y-4503166D01*
G01X4596638Y-4506214D01*
G01X4599686Y-4509262D01*
G01X4602734Y-4515612D01*
G01X4602734Y-4521708D01*
G01X4599686Y-4527804D01*
G01X4593336Y-4537202D01*
G01X4562602Y-4568190D01*
G01X4605782Y-4568190D01*
G01X4636008Y-4524756D02*
G01X4636008Y-4568190D01*
G01X4636008Y-4537202D02*
G01X4645152Y-4527804D01*
G01X4651248Y-4524756D01*
G01X4660646Y-4524756D01*
G01X4666742Y-4527804D01*
G01X4670044Y-4537202D01*
G01X4670044Y-4568190D01*
G01X4700270Y-4503166D02*
G01X4700270Y-4568190D01*
G01X4700270Y-4503166D02*
G01X4740402Y-4503166D01*
G01X4700270Y-4534154D02*
G01X4724908Y-4534154D01*
G01X3944620Y-4503166D02*
G01X3944620Y-4568190D01*
G01X3944620Y-4503166D02*
G01X3972560Y-4503166D01*
G01X3981704Y-4506214D01*
G01X3984752Y-4509262D01*
G01X3988054Y-4515612D01*
G01X3988054Y-4521708D01*
G01X3984752Y-4527804D01*
G01X3981704Y-4530852D01*
G01X3972560Y-4534154D01*
G01X3944620Y-4534154D01*
G01X3966210Y-4534154D02*
G01X3988054Y-4568190D01*
G01X4058412Y-4524756D02*
G01X4055364Y-4534154D01*
G01X4049014Y-4540250D01*
G01X4039870Y-4543298D01*
G01X4036822Y-4543298D01*
G01X4027424Y-4540250D01*
G01X4021328Y-4534154D01*
G01X4018280Y-4524756D01*
G01X4018280Y-4521708D01*
G01X4021328Y-4512310D01*
G01X4027424Y-4506214D01*
G01X4036822Y-4503166D01*
G01X4039870Y-4503166D01*
G01X4049014Y-4506214D01*
G01X4055364Y-4512310D01*
G01X4058412Y-4524756D01*
G01X4058412Y-4540250D01*
G01X4055364Y-4555744D01*
G01X4049014Y-4565142D01*
G01X4039870Y-4568190D01*
G01X4033520Y-4568190D01*
G01X4024376Y-4565142D01*
G01X4021328Y-4558792D01*
G01X3887216Y-4807966D02*
G01X3921252Y-4807966D01*
G01X3902710Y-4832604D01*
G01X3912108Y-4832604D01*
G01X3918204Y-4835652D01*
G01X3921252Y-4838954D01*
G01X3924554Y-4848098D01*
G01X3924554Y-4854448D01*
G01X3921252Y-4863592D01*
G01X3915156Y-4869942D01*
G01X3906012Y-4872990D01*
G01X3896614Y-4872990D01*
G01X3887216Y-4869942D01*
G01X3884168Y-4866640D01*
G01X3881120Y-4860544D01*
G01X3994912Y-4829556D02*
G01X3991864Y-4838954D01*
G01X3985514Y-4845050D01*
G01X3976370Y-4848098D01*
G01X3973322Y-4848098D01*
G01X3963924Y-4845050D01*
G01X3957828Y-4838954D01*
G01X3954780Y-4829556D01*
G01X3954780Y-4826508D01*
G01X3957828Y-4817110D01*
G01X3963924Y-4811014D01*
G01X3973322Y-4807966D01*
G01X3976370Y-4807966D01*
G01X3985514Y-4811014D01*
G01X3991864Y-4817110D01*
G01X3994912Y-4829556D01*
G01X3994912Y-4845050D01*
G01X3991864Y-4860544D01*
G01X3985514Y-4869942D01*
G01X3976370Y-4872990D01*
G01X3970020Y-4872990D01*
G01X3960876Y-4869942D01*
G01X3957828Y-4863592D01*
G01X4043680Y-4807966D02*
G01X4034282Y-4811014D01*
G01X4028186Y-4820412D01*
G01X4025138Y-4835652D01*
G01X4025138Y-4845050D01*
G01X4028186Y-4860544D01*
G01X4034282Y-4869942D01*
G01X4043680Y-4872990D01*
G01X4049776Y-4872990D01*
G01X4059174Y-4869942D01*
G01X4065270Y-4860544D01*
G01X4068318Y-4845050D01*
G01X4068318Y-4835652D01*
G01X4065270Y-4820412D01*
G01X4059174Y-4811014D01*
G01X4049776Y-4807966D01*
G01X4043680Y-4807966D01*
G01X4098544Y-4872990D02*
G01X4120134Y-4872990D01*
G01X4113784Y-4863592D01*
G01X4107688Y-4854448D01*
G01X4104640Y-4845050D01*
G01X4104640Y-4835652D01*
G01X4107688Y-4826508D01*
G01X4110736Y-4820412D01*
G01X4117086Y-4814062D01*
G01X4123182Y-4811014D01*
G01X4135628Y-4811014D01*
G01X4141724Y-4814062D01*
G01X4148074Y-4820412D01*
G01X4151122Y-4826508D01*
G01X4154170Y-4835652D01*
G01X4154170Y-4845050D01*
G01X4151122Y-4854448D01*
G01X4144772Y-4863592D01*
G01X4138676Y-4872990D01*
G01X4160266Y-4872990D01*
G01X6186786Y-3628638D02*
G01X6121762Y-3628638D01*
G01X6186786Y-3628638D02*
G01X6186786Y-3656578D01*
G01X6183738Y-3665722D01*
G01X6180690Y-3668770D01*
G01X6174340Y-3672072D01*
G01X6168244Y-3672072D01*
G01X6162148Y-3668770D01*
G01X6159100Y-3665722D01*
G01X6155798Y-3656578D01*
G01X6155798Y-3628638D01*
G01X6155798Y-3650228D02*
G01X6121762Y-3672072D01*
G01X6174340Y-3702298D02*
G01X6177642Y-3708394D01*
G01X6186786Y-3717538D01*
G01X6121762Y-3717538D01*
G01X6186786Y-3766306D02*
G01X6183738Y-3756908D01*
G01X6174340Y-3750812D01*
G01X6159100Y-3747764D01*
G01X6149702Y-3747764D01*
G01X6134208Y-3750812D01*
G01X6124810Y-3756908D01*
G01X6121762Y-3766306D01*
G01X6121762Y-3772402D01*
G01X6124810Y-3781800D01*
G01X6134208Y-3787896D01*
G01X6149702Y-3790944D01*
G01X6159100Y-3790944D01*
G01X6174340Y-3787896D01*
G01X6183738Y-3781800D01*
G01X6186786Y-3772402D01*
G01X6186786Y-3766306D01*
G01X6177788Y-3881120D02*
G01X6181090Y-3887216D01*
G01X6190234Y-3896614D01*
G01X6125210Y-3896614D01*
G01X6190234Y-3945382D02*
G01X6187186Y-3935984D01*
G01X6177788Y-3929888D01*
G01X6162548Y-3926840D01*
G01X6153150Y-3926840D01*
G01X6137656Y-3929888D01*
G01X6128258Y-3935984D01*
G01X6125210Y-3945382D01*
G01X6125210Y-3951478D01*
G01X6128258Y-3960876D01*
G01X6137656Y-3966972D01*
G01X6153150Y-3970020D01*
G01X6162548Y-3970020D01*
G01X6177788Y-3966972D01*
G01X6187186Y-3960876D01*
G01X6190234Y-3951478D01*
G01X6190234Y-3945382D01*
G01X6190234Y-4000246D02*
G01X6125210Y-4000246D01*
G01X6168644Y-4030980D02*
G01X6137656Y-4000246D01*
G01X6150102Y-4012438D02*
G01X6125210Y-4034282D01*
G01X6125210Y-4064508D02*
G01X6125210Y-4086098D01*
G01X6134608Y-4079748D01*
G01X6143752Y-4073652D01*
G01X6153150Y-4070604D01*
G01X6162548Y-4070604D01*
G01X6171692Y-4073652D01*
G01X6177788Y-4076700D01*
G01X6184138Y-4083050D01*
G01X6187186Y-4089146D01*
G01X6187186Y-4101592D01*
G01X6184138Y-4107688D01*
G01X6177788Y-4114038D01*
G01X6171692Y-4117086D01*
G01X6162548Y-4120134D01*
G01X6153150Y-4120134D01*
G01X6143752Y-4117086D01*
G01X6134608Y-4110736D01*
G01X6125210Y-4104640D01*
G01X6125210Y-4126230D01*
G01X5267960Y-4454398D02*
G01X5261610Y-4457446D01*
G01X5255514Y-4463796D01*
G01X5252466Y-4469892D01*
G01X5252466Y-4482338D01*
G01X5255514Y-4488434D01*
G01X5261610Y-4494784D01*
G01X5267960Y-4497832D01*
G01X5277104Y-4500880D01*
G01X5292598Y-4500880D01*
G01X5301996Y-4497832D01*
G01X5308092Y-4494784D01*
G01X5314442Y-4488434D01*
G01X5317490Y-4482338D01*
G01X5317490Y-4469892D01*
G01X5314442Y-4463796D01*
G01X5308092Y-4457446D01*
G01X5301996Y-4454398D01*
G01X5264912Y-4424172D02*
G01X5261610Y-4418076D01*
G01X5252466Y-4408932D01*
G01X5317490Y-4408932D01*
G01X5252466Y-4363466D02*
G01X5255514Y-4372610D01*
G01X5261610Y-4375658D01*
G01X5267960Y-4375658D01*
G01X5274056Y-4372610D01*
G01X5277104Y-4366514D01*
G01X5280152Y-4354068D01*
G01X5283454Y-4344670D01*
G01X5289550Y-4338574D01*
G01X5295646Y-4335526D01*
G01X5305044Y-4335526D01*
G01X5311140Y-4338574D01*
G01X5314442Y-4341622D01*
G01X5317490Y-4351020D01*
G01X5317490Y-4363466D01*
G01X5314442Y-4372610D01*
G01X5311140Y-4375658D01*
G01X5305044Y-4378706D01*
G01X5295646Y-4378706D01*
G01X5289550Y-4375658D01*
G01X5283454Y-4369562D01*
G01X5280152Y-4360164D01*
G01X5277104Y-4347972D01*
G01X5274056Y-4341622D01*
G01X5267960Y-4338574D01*
G01X5261610Y-4338574D01*
G01X5255514Y-4341622D01*
G01X5252466Y-4351020D01*
G01X5252466Y-4363466D01*
G01X5264912Y-4259580D02*
G01X5261610Y-4253484D01*
G01X5252466Y-4244086D01*
G01X5317490Y-4244086D01*
G01X5252466Y-4195318D02*
G01X5255514Y-4204716D01*
G01X5264912Y-4210812D01*
G01X5280152Y-4213860D01*
G01X5289550Y-4213860D01*
G01X5305044Y-4210812D01*
G01X5314442Y-4204716D01*
G01X5317490Y-4195318D01*
G01X5317490Y-4189222D01*
G01X5314442Y-4179824D01*
G01X5305044Y-4173728D01*
G01X5289550Y-4170680D01*
G01X5280152Y-4170680D01*
G01X5264912Y-4173728D01*
G01X5255514Y-4179824D01*
G01X5252466Y-4189222D01*
G01X5252466Y-4195318D01*
G01X5252466Y-4121912D02*
G01X5255514Y-4131310D01*
G01X5264912Y-4137406D01*
G01X5280152Y-4140454D01*
G01X5289550Y-4140454D01*
G01X5305044Y-4137406D01*
G01X5314442Y-4131310D01*
G01X5317490Y-4121912D01*
G01X5317490Y-4115816D01*
G01X5314442Y-4106418D01*
G01X5305044Y-4100322D01*
G01X5289550Y-4097274D01*
G01X5280152Y-4097274D01*
G01X5264912Y-4100322D01*
G01X5255514Y-4106418D01*
G01X5252466Y-4115816D01*
G01X5252466Y-4121912D01*
G01X5274056Y-4067048D02*
G01X5339080Y-4067048D01*
G01X5283454Y-4067048D02*
G01X5277104Y-4060952D01*
G01X5274056Y-4054856D01*
G01X5274056Y-4045458D01*
G01X5277104Y-4039362D01*
G01X5283454Y-4033012D01*
G01X5292598Y-4029964D01*
G01X5298948Y-4029964D01*
G01X5308092Y-4033012D01*
G01X5314442Y-4039362D01*
G01X5317490Y-4045458D01*
G01X5317490Y-4054856D01*
G01X5314442Y-4060952D01*
G01X5308092Y-4067048D01*
G01X5252466Y-3999738D02*
G01X5317490Y-3999738D01*
G01X5252466Y-3999738D02*
G01X5252466Y-3959606D01*
G01X5283454Y-3999738D02*
G01X5283454Y-3975100D01*
G01X2251202Y-2639060D02*
G01X2248154Y-2632710D01*
G01X2241804Y-2626614D01*
G01X2235708Y-2623566D01*
G01X2223262Y-2623566D01*
G01X2217166Y-2626614D01*
G01X2210816Y-2632710D01*
G01X2207768Y-2639060D01*
G01X2204720Y-2648204D01*
G01X2204720Y-2663698D01*
G01X2207768Y-2673096D01*
G01X2210816Y-2679192D01*
G01X2217166Y-2685542D01*
G01X2223262Y-2688590D01*
G01X2235708Y-2688590D01*
G01X2241804Y-2685542D01*
G01X2248154Y-2679192D01*
G01X2251202Y-2673096D01*
G01X2281428Y-2636012D02*
G01X2287524Y-2632710D01*
G01X2296668Y-2623566D01*
G01X2296668Y-2688590D01*
G01X2363978Y-2623566D02*
G01X2332990Y-2623566D01*
G01X2329942Y-2651252D01*
G01X2332990Y-2648204D01*
G01X2342134Y-2645156D01*
G01X2351532Y-2645156D01*
G01X2360930Y-2648204D01*
G01X2367026Y-2654554D01*
G01X2370074Y-2663698D01*
G01X2370074Y-2670048D01*
G01X2367026Y-2679192D01*
G01X2360930Y-2685542D01*
G01X2351532Y-2688590D01*
G01X2342134Y-2688590D01*
G01X2332990Y-2685542D01*
G01X2329942Y-2682240D01*
G01X2326894Y-2676144D01*
G01X2446020Y-2636012D02*
G01X2452116Y-2632710D01*
G01X2461514Y-2623566D01*
G01X2461514Y-2688590D01*
G01X2510282Y-2623566D02*
G01X2500884Y-2626614D01*
G01X2494788Y-2636012D01*
G01X2491740Y-2651252D01*
G01X2491740Y-2660650D01*
G01X2494788Y-2676144D01*
G01X2500884Y-2685542D01*
G01X2510282Y-2688590D01*
G01X2516378Y-2688590D01*
G01X2525776Y-2685542D01*
G01X2531872Y-2676144D01*
G01X2534920Y-2660650D01*
G01X2534920Y-2651252D01*
G01X2531872Y-2636012D01*
G01X2525776Y-2626614D01*
G01X2516378Y-2623566D01*
G01X2510282Y-2623566D01*
G01X2583688Y-2623566D02*
G01X2574290Y-2626614D01*
G01X2568194Y-2636012D01*
G01X2565146Y-2651252D01*
G01X2565146Y-2660650D01*
G01X2568194Y-2676144D01*
G01X2574290Y-2685542D01*
G01X2583688Y-2688590D01*
G01X2589784Y-2688590D01*
G01X2599182Y-2685542D01*
G01X2605278Y-2676144D01*
G01X2608326Y-2660650D01*
G01X2608326Y-2651252D01*
G01X2605278Y-2636012D01*
G01X2599182Y-2626614D01*
G01X2589784Y-2623566D01*
G01X2583688Y-2623566D01*
G01X2638552Y-2645156D02*
G01X2638552Y-2710180D01*
G01X2638552Y-2654554D02*
G01X2644648Y-2648204D01*
G01X2650744Y-2645156D01*
G01X2660142Y-2645156D01*
G01X2666238Y-2648204D01*
G01X2672588Y-2654554D01*
G01X2675636Y-2663698D01*
G01X2675636Y-2670048D01*
G01X2672588Y-2679192D01*
G01X2666238Y-2685542D01*
G01X2660142Y-2688590D01*
G01X2650744Y-2688590D01*
G01X2644648Y-2685542D01*
G01X2638552Y-2679192D01*
G01X2705862Y-2623566D02*
G01X2705862Y-2688590D01*
G01X2705862Y-2623566D02*
G01X2745994Y-2623566D01*
G01X2705862Y-2654554D02*
G01X2730500Y-2654554D01*
G01X2230120Y-2306066D02*
G01X2230120Y-2371090D01*
G01X2230120Y-2306066D02*
G01X2258060Y-2306066D01*
G01X2267204Y-2309114D01*
G01X2270252Y-2312162D01*
G01X2273554Y-2318512D01*
G01X2273554Y-2324608D01*
G01X2270252Y-2330704D01*
G01X2267204Y-2333752D01*
G01X2258060Y-2337054D01*
G01X2230120Y-2337054D01*
G01X2251710Y-2337054D02*
G01X2273554Y-2371090D01*
G01X2340864Y-2315210D02*
G01X2337816Y-2309114D01*
G01X2328418Y-2306066D01*
G01X2322322Y-2306066D01*
G01X2312924Y-2309114D01*
G01X2306828Y-2318512D01*
G01X2303780Y-2333752D01*
G01X2303780Y-2349246D01*
G01X2306828Y-2361692D01*
G01X2312924Y-2368042D01*
G01X2322322Y-2371090D01*
G01X2325370Y-2371090D01*
G01X2334514Y-2368042D01*
G01X2340864Y-2361692D01*
G01X2343912Y-2352548D01*
G01X2343912Y-2349246D01*
G01X2340864Y-2340102D01*
G01X2334514Y-2333752D01*
G01X2325370Y-2330704D01*
G01X2322322Y-2330704D01*
G01X2312924Y-2333752D01*
G01X2306828Y-2340102D01*
G01X2303780Y-2349246D01*
G01X2477262Y-2306066D02*
G01X2468118Y-2309114D01*
G01X2461768Y-2318512D01*
G01X2458720Y-2333752D01*
G01X2458720Y-2343150D01*
G01X2461768Y-2358644D01*
G01X2468118Y-2368042D01*
G01X2477262Y-2371090D01*
G01X2483612Y-2371090D01*
G01X2492756Y-2368042D01*
G01X2498852Y-2358644D01*
G01X2502154Y-2343150D01*
G01X2502154Y-2333752D01*
G01X2498852Y-2318512D01*
G01X2492756Y-2309114D01*
G01X2483612Y-2306066D01*
G01X2477262Y-2306066D01*
G01X2532380Y-2371090D02*
G01X2553970Y-2371090D01*
G01X2547620Y-2361692D01*
G01X2541524Y-2352548D01*
G01X2538476Y-2343150D01*
G01X2538476Y-2333752D01*
G01X2541524Y-2324608D01*
G01X2544572Y-2318512D01*
G01X2550922Y-2312162D01*
G01X2557018Y-2309114D01*
G01X2569464Y-2309114D01*
G01X2575560Y-2312162D01*
G01X2581910Y-2318512D01*
G01X2584958Y-2324608D01*
G01X2588006Y-2333752D01*
G01X2588006Y-2343150D01*
G01X2584958Y-2352548D01*
G01X2578608Y-2361692D01*
G01X2572512Y-2371090D01*
G01X2594102Y-2371090D01*
G01X2616454Y-4372610D02*
G01X2610104Y-4366514D01*
G01X2600960Y-4363466D01*
G01X2588514Y-4363466D01*
G01X2579116Y-4366514D01*
G01X2573020Y-4372610D01*
G01X2573020Y-4378960D01*
G01X2576068Y-4385056D01*
G01X2579116Y-4388104D01*
G01X2585466Y-4391152D01*
G01X2604008Y-4397502D01*
G01X2610104Y-4400550D01*
G01X2613152Y-4403598D01*
G01X2616454Y-4409948D01*
G01X2616454Y-4419092D01*
G01X2610104Y-4425442D01*
G01X2600960Y-4428490D01*
G01X2588514Y-4428490D01*
G01X2579116Y-4425442D01*
G01X2573020Y-4419092D01*
G01X2646680Y-4363466D02*
G01X2661920Y-4428490D01*
G01X2677414Y-4363466D02*
G01X2661920Y-4428490D01*
G01X2677414Y-4363466D02*
G01X2692908Y-4428490D01*
G01X2708402Y-4363466D02*
G01X2692908Y-4428490D01*
G01X2738628Y-4375912D02*
G01X2744724Y-4372610D01*
G01X2753868Y-4363466D01*
G01X2753868Y-4428490D01*
G01X2895854Y-4372610D02*
G01X2889504Y-4366514D01*
G01X2880360Y-4363466D01*
G01X2867914Y-4363466D01*
G01X2858516Y-4366514D01*
G01X2852420Y-4372610D01*
G01X2852420Y-4378960D01*
G01X2855468Y-4385056D01*
G01X2858516Y-4388104D01*
G01X2864866Y-4391152D01*
G01X2883408Y-4397502D01*
G01X2889504Y-4400550D01*
G01X2892552Y-4403598D01*
G01X2895854Y-4409948D01*
G01X2895854Y-4419092D01*
G01X2889504Y-4425442D01*
G01X2880360Y-4428490D01*
G01X2867914Y-4428490D01*
G01X2858516Y-4425442D01*
G01X2852420Y-4419092D01*
G01X2926080Y-4363466D02*
G01X2926080Y-4428490D01*
G01X2969260Y-4363466D02*
G01X2926080Y-4406646D01*
G01X2941320Y-4391152D02*
G01X2969260Y-4428490D01*
G01X2999486Y-4375912D02*
G01X3005582Y-4372610D01*
G01X3014726Y-4363466D01*
G01X3014726Y-4428490D01*
G01X3048000Y-4378960D02*
G01X3048000Y-4375912D01*
G01X3051048Y-4369562D01*
G01X3054096Y-4366514D01*
G01X3060192Y-4363466D01*
G01X3072638Y-4363466D01*
G01X3078988Y-4366514D01*
G01X3082036Y-4369562D01*
G01X3085084Y-4375912D01*
G01X3085084Y-4382008D01*
G01X3082036Y-4388104D01*
G01X3075686Y-4397502D01*
G01X3044952Y-4428490D01*
G01X3088132Y-4428490D01*
G01X3118358Y-4363466D02*
G01X3118358Y-4428490D01*
G01X3118358Y-4363466D02*
G01X3139948Y-4363466D01*
G01X3149092Y-4366514D01*
G01X3155442Y-4372610D01*
G01X3158490Y-4378960D01*
G01X3161538Y-4388104D01*
G01X3161538Y-4403598D01*
G01X3158490Y-4412996D01*
G01X3155442Y-4419092D01*
G01X3149092Y-4425442D01*
G01X3139948Y-4428490D01*
G01X3118358Y-4428490D01*
G01X3210306Y-4363466D02*
G01X3200908Y-4366514D01*
G01X3194812Y-4375912D01*
G01X3191764Y-4391152D01*
G01X3191764Y-4400550D01*
G01X3194812Y-4416044D01*
G01X3200908Y-4425442D01*
G01X3210306Y-4428490D01*
G01X3216402Y-4428490D01*
G01X3225800Y-4425442D01*
G01X3231896Y-4416044D01*
G01X3234944Y-4400550D01*
G01X3234944Y-4391152D01*
G01X3231896Y-4375912D01*
G01X3225800Y-4366514D01*
G01X3216402Y-4363466D01*
G01X3210306Y-4363466D01*
G01X3308350Y-4363466D02*
G01X3277362Y-4428490D01*
G01X3265170Y-4363466D02*
G01X3308350Y-4363466D01*
G01X3338576Y-4363466D02*
G01X3363214Y-4428490D01*
G01X3388106Y-4363466D02*
G01X3363214Y-4428490D01*
G01X3464560Y-4378960D02*
G01X3461512Y-4372610D01*
G01X3455416Y-4366514D01*
G01X3449066Y-4363466D01*
G01X3436874Y-4363466D01*
G01X3430524Y-4366514D01*
G01X3424428Y-4372610D01*
G01X3421380Y-4378960D01*
G01X3418332Y-4388104D01*
G01X3418332Y-4403598D01*
G01X3421380Y-4412996D01*
G01X3424428Y-4419092D01*
G01X3430524Y-4425442D01*
G01X3436874Y-4428490D01*
G01X3449066Y-4428490D01*
G01X3455416Y-4425442D01*
G01X3461512Y-4419092D01*
G01X3464560Y-4412996D01*
G01X3464560Y-4403598D01*
G01X3449066Y-4403598D02*
G01X3464560Y-4403598D01*
G01X3500882Y-4363466D02*
G01X3534918Y-4363466D01*
G01X3516376Y-4388104D01*
G01X3525520Y-4388104D01*
G01X3531870Y-4391152D01*
G01X3534918Y-4394454D01*
G01X3537966Y-4403598D01*
G01X3537966Y-4409948D01*
G01X3534918Y-4419092D01*
G01X3528822Y-4425442D01*
G01X3519424Y-4428490D01*
G01X3510026Y-4428490D01*
G01X3500882Y-4425442D01*
G01X3497834Y-4422140D01*
G01X3494786Y-4416044D01*
G01X1211920Y-4091362D02*
G01X1211920Y-4137844D01*
G01X1214968Y-4146988D01*
G01X1221318Y-4153338D01*
G01X1230462Y-4156386D01*
G01X1236812Y-4156386D01*
G01X1245956Y-4153338D01*
G01X1252052Y-4146988D01*
G01X1255354Y-4137844D01*
G01X1255354Y-4091362D01*
G01X1328760Y-4100506D02*
G01X1322664Y-4094410D01*
G01X1313266Y-4091362D01*
G01X1300820Y-4091362D01*
G01X1291676Y-4094410D01*
G01X1285580Y-4100506D01*
G01X1285580Y-4106856D01*
G01X1288628Y-4112952D01*
G01X1291676Y-4116000D01*
G01X1297772Y-4119048D01*
G01X1316314Y-4125398D01*
G01X1322664Y-4128446D01*
G01X1325712Y-4131494D01*
G01X1328760Y-4137844D01*
G01X1328760Y-4146988D01*
G01X1322664Y-4153338D01*
G01X1313266Y-4156386D01*
G01X1300820Y-4156386D01*
G01X1291676Y-4153338D01*
G01X1285580Y-4146988D01*
G01X1358986Y-4091362D02*
G01X1358986Y-4156386D01*
G01X1358986Y-4091362D02*
G01X1386672Y-4091362D01*
G01X1396070Y-4094410D01*
G01X1399118Y-4097458D01*
G01X1402166Y-4103808D01*
G01X1402166Y-4109904D01*
G01X1399118Y-4116000D01*
G01X1396070Y-4119048D01*
G01X1386672Y-4122350D01*
G01X1358986Y-4122350D02*
G01X1386672Y-4122350D01*
G01X1396070Y-4125398D01*
G01X1399118Y-4128446D01*
G01X1402166Y-4134542D01*
G01X1402166Y-4143940D01*
G01X1399118Y-4150036D01*
G01X1396070Y-4153338D01*
G01X1386672Y-4156386D01*
G01X1358986Y-4156386D01*
G01X1432392Y-4103808D02*
G01X1438488Y-4100506D01*
G01X1447632Y-4091362D01*
G01X1447632Y-4156386D01*
G01X1664716Y-3973830D02*
G01X1729740Y-3973830D01*
G01X1664716Y-3973830D02*
G01X1664716Y-3945890D01*
G01X1667764Y-3936746D01*
G01X1670812Y-3933698D01*
G01X1677162Y-3930396D01*
G01X1683258Y-3930396D01*
G01X1689354Y-3933698D01*
G01X1692402Y-3936746D01*
G01X1695704Y-3945890D01*
G01X1695704Y-3973830D01*
G01X1695704Y-3952240D02*
G01X1729740Y-3930396D01*
G01X1677162Y-3900170D02*
G01X1673860Y-3894074D01*
G01X1664716Y-3884930D01*
G01X1729740Y-3884930D01*
G01X1677162Y-3854704D02*
G01X1673860Y-3848608D01*
G01X1664716Y-3839464D01*
G01X1729740Y-3839464D01*
G01X1671066Y-3727196D02*
G01X1671066Y-3758184D01*
G01X1698752Y-3761232D01*
G01X1695704Y-3758184D01*
G01X1692656Y-3748786D01*
G01X1692656Y-3739388D01*
G01X1695704Y-3730244D01*
G01X1702054Y-3724148D01*
G01X1711198Y-3720846D01*
G01X1717548Y-3720846D01*
G01X1726692Y-3724148D01*
G01X1733042Y-3730244D01*
G01X1736090Y-3739388D01*
G01X1736090Y-3748786D01*
G01X1733042Y-3758184D01*
G01X1729740Y-3761232D01*
G01X1723644Y-3764280D01*
G01X1720596Y-3687572D02*
G01X1723644Y-3690620D01*
G01X1726692Y-3687572D01*
G01X1723644Y-3684524D01*
G01X1720596Y-3687572D01*
G01X1683512Y-3654298D02*
G01X1680210Y-3648202D01*
G01X1671066Y-3639058D01*
G01X1736090Y-3639058D01*
G01X1671066Y-3608832D02*
G01X1736090Y-3608832D01*
G01X1692656Y-3578098D02*
G01X1723644Y-3608832D01*
G01X1711198Y-3596640D02*
G01X1736090Y-3574796D01*
G01X1736090Y-3544570D02*
G01X1736090Y-3522980D01*
G01X1726692Y-3529330D01*
G01X1717548Y-3535426D01*
G01X1708150Y-3538474D01*
G01X1698752Y-3538474D01*
G01X1689608Y-3535426D01*
G01X1683512Y-3532378D01*
G01X1677162Y-3526028D01*
G01X1674114Y-3519932D01*
G01X1674114Y-3507486D01*
G01X1677162Y-3501390D01*
G01X1683512Y-3495040D01*
G01X1689608Y-3491992D01*
G01X1698752Y-3488944D01*
G01X1708150Y-3488944D01*
G01X1717548Y-3491992D01*
G01X1726692Y-3498342D01*
G01X1736090Y-3504438D01*
G01X1736090Y-3482848D01*
G01X1366266Y-3980180D02*
G01X1431290Y-3980180D01*
G01X1366266Y-3980180D02*
G01X1366266Y-3952240D01*
G01X1369314Y-3943096D01*
G01X1372362Y-3940048D01*
G01X1378712Y-3936746D01*
G01X1384808Y-3936746D01*
G01X1390904Y-3940048D01*
G01X1393952Y-3943096D01*
G01X1397254Y-3952240D01*
G01X1397254Y-3980180D01*
G01X1397254Y-3958590D02*
G01X1431290Y-3936746D01*
G01X1378712Y-3906520D02*
G01X1375410Y-3900424D01*
G01X1366266Y-3891280D01*
G01X1431290Y-3891280D01*
G01X1381760Y-3858006D02*
G01X1378712Y-3858006D01*
G01X1372362Y-3854958D01*
G01X1369314Y-3851910D01*
G01X1366266Y-3845814D01*
G01X1366266Y-3833368D01*
G01X1369314Y-3827018D01*
G01X1372362Y-3823970D01*
G01X1378712Y-3820922D01*
G01X1384808Y-3820922D01*
G01X1390904Y-3823970D01*
G01X1400302Y-3830320D01*
G01X1431290Y-3861054D01*
G01X1431290Y-3817874D01*
G01X1366266Y-3727196D02*
G01X1366266Y-3758184D01*
G01X1393952Y-3761232D01*
G01X1390904Y-3758184D01*
G01X1387856Y-3748786D01*
G01X1387856Y-3739388D01*
G01X1390904Y-3730244D01*
G01X1397254Y-3724148D01*
G01X1406398Y-3720846D01*
G01X1412748Y-3720846D01*
G01X1421892Y-3724148D01*
G01X1428242Y-3730244D01*
G01X1431290Y-3739388D01*
G01X1431290Y-3748786D01*
G01X1428242Y-3758184D01*
G01X1424940Y-3761232D01*
G01X1418844Y-3764280D01*
G01X1415796Y-3687572D02*
G01X1418844Y-3690620D01*
G01X1421892Y-3687572D01*
G01X1418844Y-3684524D01*
G01X1415796Y-3687572D01*
G01X1378712Y-3654298D02*
G01X1375410Y-3648202D01*
G01X1366266Y-3639058D01*
G01X1431290Y-3639058D01*
G01X1366266Y-3608832D02*
G01X1431290Y-3608832D01*
G01X1387856Y-3578098D02*
G01X1418844Y-3608832D01*
G01X1406398Y-3596640D02*
G01X1431290Y-3574796D01*
G01X1431290Y-3544570D02*
G01X1431290Y-3522980D01*
G01X1421892Y-3529330D01*
G01X1412748Y-3535426D01*
G01X1403350Y-3538474D01*
G01X1393952Y-3538474D01*
G01X1384808Y-3535426D01*
G01X1378712Y-3532378D01*
G01X1372362Y-3526028D01*
G01X1369314Y-3519932D01*
G01X1369314Y-3507486D01*
G01X1372362Y-3501390D01*
G01X1378712Y-3495040D01*
G01X1384808Y-3491992D01*
G01X1393952Y-3488944D01*
G01X1403350Y-3488944D01*
G01X1412748Y-3491992D01*
G01X1421892Y-3498342D01*
G01X1431290Y-3504438D01*
G01X1431290Y-3482848D01*
G01X3652520Y-58166D02*
G01X3652520Y-123190D01*
G01X3652520Y-123190D02*
G01X3689604Y-123190D01*
G01X3722878Y-73660D02*
G01X3722878Y-70612D01*
G01X3725926Y-64262D01*
G01X3728974Y-61214D01*
G01X3735070Y-58166D01*
G01X3747516Y-58166D01*
G01X3753866Y-61214D01*
G01X3756914Y-64262D01*
G01X3759962Y-70612D01*
G01X3759962Y-76708D01*
G01X3756914Y-82804D01*
G01X3750564Y-92202D01*
G01X3719830Y-123190D01*
G01X3763010Y-123190D01*
G01X562610Y-83566D02*
G01X562610Y-148590D01*
G01X541020Y-83566D02*
G01X584454Y-83566D01*
G01X614680Y-83566D02*
G01X614680Y-148590D01*
G01X614680Y-83566D02*
G01X642366Y-83566D01*
G01X651764Y-86614D01*
G01X654812Y-89662D01*
G01X657860Y-96012D01*
G01X657860Y-105156D01*
G01X654812Y-111252D01*
G01X651764Y-114554D01*
G01X642366Y-117602D01*
G01X614680Y-117602D01*
G01X688086Y-96012D02*
G01X694182Y-92710D01*
G01X703326Y-83566D01*
G01X703326Y-148590D01*
G01X7230110Y-58166D02*
G01X7230110Y-123190D01*
G01X7208520Y-58166D02*
G01X7251954Y-58166D01*
G01X7282180Y-58166D02*
G01X7282180Y-123190D01*
G01X7282180Y-58166D02*
G01X7309866Y-58166D01*
G01X7319264Y-61214D01*
G01X7322312Y-64262D01*
G01X7325360Y-70612D01*
G01X7325360Y-79756D01*
G01X7322312Y-85852D01*
G01X7319264Y-89154D01*
G01X7309866Y-92202D01*
G01X7282180Y-92202D01*
G01X7358634Y-73660D02*
G01X7358634Y-70612D01*
G01X7361682Y-64262D01*
G01X7364730Y-61214D01*
G01X7370826Y-58166D01*
G01X7383272Y-58166D01*
G01X7389622Y-61214D01*
G01X7392670Y-64262D01*
G01X7395718Y-70612D01*
G01X7395718Y-76708D01*
G01X7392670Y-82804D01*
G01X7386320Y-92202D01*
G01X7355586Y-123190D01*
G01X7398766Y-123190D01*
G01X588010Y-4833366D02*
G01X588010Y-4898390D01*
G01X566420Y-4833366D02*
G01X609854Y-4833366D01*
G01X640080Y-4833366D02*
G01X640080Y-4898390D01*
G01X640080Y-4833366D02*
G01X667766Y-4833366D01*
G01X677164Y-4836414D01*
G01X680212Y-4839462D01*
G01X683260Y-4845812D01*
G01X683260Y-4854956D01*
G01X680212Y-4861052D01*
G01X677164Y-4864354D01*
G01X667766Y-4867402D01*
G01X640080Y-4867402D01*
G01X719582Y-4833366D02*
G01X753618Y-4833366D01*
G01X735076Y-4858004D01*
G01X744220Y-4858004D01*
G01X750570Y-4861052D01*
G01X753618Y-4864354D01*
G01X756666Y-4873498D01*
G01X756666Y-4879848D01*
G01X753618Y-4888992D01*
G01X747522Y-4895342D01*
G01X738124Y-4898390D01*
G01X728726Y-4898390D01*
G01X719582Y-4895342D01*
G01X716534Y-4892040D01*
G01X713486Y-4885944D01*
G01X7242810Y-4833366D02*
G01X7242810Y-4898390D01*
G01X7221220Y-4833366D02*
G01X7264654Y-4833366D01*
G01X7294880Y-4833366D02*
G01X7294880Y-4898390D01*
G01X7294880Y-4833366D02*
G01X7322566Y-4833366D01*
G01X7331964Y-4836414D01*
G01X7335012Y-4839462D01*
G01X7338060Y-4845812D01*
G01X7338060Y-4854956D01*
G01X7335012Y-4861052D01*
G01X7331964Y-4864354D01*
G01X7322566Y-4867402D01*
G01X7294880Y-4867402D01*
G01X7399020Y-4833366D02*
G01X7368286Y-4876546D01*
G01X7414514Y-4876546D01*
G01X7399020Y-4833366D02*
G01X7399020Y-4898390D01*
G04 Text End*

G04 PolygonModel Start*
G01X4077360Y-3413879D02*
G01X4431640Y-3413879D01*
G01X4431640Y-3413879D02*
G01X4431640Y-4079121D01*
G01X4431640Y-4079121D02*
G01X4077360Y-4079121D01*
G01X4077360Y-4079121D02*
G01X4077360Y-3413879D01*
G01X3355609Y-2873380D02*
G01X3355609Y-2744887D01*
G01X3355609Y-2744887D02*
G01X3172191Y-2744887D01*
G01X3172191Y-2744887D02*
G01X3172191Y-2873380D01*
G01X3355609Y-2968620D02*
G01X3355609Y-3097113D01*
G01X3355609Y-3097113D02*
G01X3172191Y-3097113D01*
G01X3172191Y-3097113D02*
G01X3172191Y-2968620D01*
G01X3355609Y-3279780D02*
G01X3355609Y-3151287D01*
G01X3355609Y-3151287D02*
G01X3172191Y-3151287D01*
G01X3172191Y-3151287D02*
G01X3172191Y-3279780D01*
G01X3355609Y-3375020D02*
G01X3355609Y-3503513D01*
G01X3355609Y-3503513D02*
G01X3172191Y-3503513D01*
G01X3172191Y-3503513D02*
G01X3172191Y-3375020D01*
G01X4194320Y-3097339D02*
G01X4053319Y-3097339D01*
G01X4053319Y-3278060D02*
G01X4194320Y-3278060D01*
G01X4209560Y-3262820D02*
G01X4209560Y-3112579D01*
G01X3832080Y-3097339D02*
G01X3973081Y-3097339D01*
G01X3973081Y-3278060D02*
G01X3832080Y-3278060D01*
G01X3816840Y-3262820D02*
G01X3816840Y-3112579D01*
G01X4194320Y-3278060D02*
G03X4209560Y-3262820I0J15240D01*
G01X4209560Y-3112579D02*
G03X4194320Y-3097339I-15240J0D01*
G01X3832080Y-3278060D02*
G02X3816840Y-3262820I0J15240D01*
G01X3816840Y-3112579D02*
G02X3832080Y-3097339I15240J0D01*
G01X3476991Y-3844920D02*
G01X3476991Y-3973413D01*
G01X3476991Y-3973413D02*
G01X3660409Y-3973413D01*
G01X3660409Y-3973413D02*
G01X3660409Y-3844920D01*
G01X3476991Y-3749680D02*
G01X3476991Y-3621187D01*
G01X3476991Y-3621187D02*
G01X3660409Y-3621187D01*
G01X3660409Y-3621187D02*
G01X3660409Y-3749680D01*
G01X3660409Y-3279780D02*
G01X3660409Y-3151287D01*
G01X3660409Y-3151287D02*
G01X3476991Y-3151287D01*
G01X3476991Y-3151287D02*
G01X3476991Y-3279780D01*
G01X3660409Y-3375020D02*
G01X3660409Y-3503513D01*
G01X3660409Y-3503513D02*
G01X3476991Y-3503513D01*
G01X3476991Y-3503513D02*
G01X3476991Y-3375020D01*
G01X3341561Y-3978420D02*
G01X3341561Y-3837419D01*
G01X3160840Y-3837419D02*
G01X3160840Y-3978420D01*
G01X3176080Y-3993660D02*
G01X3326321Y-3993660D01*
G01X3341561Y-3616180D02*
G01X3341561Y-3757181D01*
G01X3160840Y-3757181D02*
G01X3160840Y-3616180D01*
G01X3176080Y-3600940D02*
G01X3326321Y-3600940D01*
G01X3160840Y-3978420D02*
G03X3176080Y-3993660I15240J0D01*
G01X3326321Y-3993660D02*
G03X3341561Y-3978420I0J15240D01*
G01X3160840Y-3616180D02*
G02X3176080Y-3600940I15240J0D01*
G01X3326321Y-3600940D02*
G02X3341561Y-3616180I0J-15240D01*
G01X3049461Y-3978420D02*
G01X3049461Y-3837419D01*
G01X2868740Y-3837419D02*
G01X2868740Y-3978420D01*
G01X2883980Y-3993660D02*
G01X3034221Y-3993660D01*
G01X3049461Y-3616180D02*
G01X3049461Y-3757181D01*
G01X2868740Y-3757181D02*
G01X2868740Y-3616180D01*
G01X2883980Y-3600940D02*
G01X3034221Y-3600940D01*
G01X2868740Y-3978420D02*
G03X2883980Y-3993660I15240J0D01*
G01X3034221Y-3993660D02*
G03X3049461Y-3978420I0J15240D01*
G01X2868740Y-3616180D02*
G02X2883980Y-3600940I15240J0D01*
G01X3034221Y-3600940D02*
G02X3049461Y-3616180I0J-15240D01*
G54D12*
G01X5245100Y-419087D02*
G01X4499440Y-419087D01*
G01X4339760Y-419087D02*
G01X3594100Y-419087D01*
G01X3594100Y-419087D02*
G01X3594100Y-1231887D01*
G01X3594100Y-1231887D02*
G01X4339760Y-1231887D01*
G01X4499440Y-1231887D02*
G01X5245100Y-1231887D01*
G01X5245100Y-1231887D02*
G01X5245100Y-419087D01*
G01X5181089Y-419087D02*
G01X5056629Y-1231887D01*
G01X5056629Y-1231887D02*
G01X4929629Y-419087D01*
G01X4929629Y-419087D02*
G01X4797549Y-1231887D01*
G01X4797549Y-1231887D02*
G01X4673089Y-419087D01*
G01X4673089Y-419087D02*
G01X4538469Y-1231887D01*
G01X4538469Y-1231887D02*
G01X4422094Y-448582D01*
G01X4422094Y-448582D02*
G01X4287009Y-1231887D01*
G01X4287009Y-1231887D02*
G01X4165089Y-419087D01*
G01X4165089Y-419087D02*
G01X4033009Y-1231887D01*
G01X4033009Y-1231887D02*
G01X3911089Y-419087D01*
G01X3911089Y-419087D02*
G01X3784089Y-1231887D01*
G01X3784089Y-1231887D02*
G01X3654549Y-419087D01*
G54D11*
G01X3041226Y-1159459D02*
G01X3041226Y-490220D01*
G01X2444483Y-490220D02*
G01X3041226Y-490220D01*
G01X2444483Y-1159459D02*
G01X3041226Y-1159459D01*
G01X4459856Y-1713641D02*
G01X4459856Y-2382880D01*
G01X5056598Y-2382880D02*
G01X4459856Y-2382880D01*
G01X5056598Y-1713641D02*
G01X4459856Y-1713641D01*
G54D13*
G01X3146790Y-2237935D02*
G01X3091164Y-2237935D01*
G01X3091164Y-2237935D02*
G01X3091164Y-2312103D01*
G01X3091164Y-2312103D02*
G01X3146790Y-2312103D01*
G01X3146790Y-2312103D02*
G01X3146790Y-2311061D01*
G01X3146790Y-1782919D02*
G01X3091164Y-1782919D01*
G01X3091164Y-1782919D02*
G01X3091164Y-1857087D01*
G01X3091164Y-1857087D02*
G01X3146790Y-1857087D01*
G01X3146790Y-1857087D02*
G01X3146790Y-1856046D01*
G54D11*
G01X3771902Y-1711703D02*
G01X3146666Y-1711703D01*
G01X3146666Y-1711703D02*
G01X3146666Y-2386941D01*
G01X3771902Y-2386941D02*
G01X3146666Y-2386941D01*
G54D14*
G01X3096150Y-1717395D02*
G03X3096023Y-1677395I-127J20000D01*
G03X3095896Y-1717395I0J-20000D01*
G54D13*
G01X5808815Y-1015835D02*
G01X5753189Y-1015835D01*
G01X5753189Y-1015835D02*
G01X5753189Y-1090003D01*
G01X5753189Y-1090003D02*
G01X5808815Y-1090003D01*
G01X5808815Y-1090003D02*
G01X5808815Y-1088961D01*
G01X5808815Y-560819D02*
G01X5753189Y-560819D01*
G01X5753189Y-560819D02*
G01X5753189Y-634987D01*
G01X5753189Y-634987D02*
G01X5808815Y-634987D01*
G01X5808815Y-634987D02*
G01X5808815Y-633946D01*
G54D11*
G01X6433927Y-489603D02*
G01X5808690Y-489603D01*
G01X5808690Y-489603D02*
G01X5808690Y-1164841D01*
G01X6433927Y-1164841D02*
G01X5808690Y-1164841D01*
G54D14*
G01X5758175Y-495295D02*
G03X5758048Y-455295I-127J20000D01*
G03X5757921Y-495295I0J-20000D01*
G54D11*
G01X4698492Y-2936621D02*
G01X4698492Y-2651379D01*
G01X4869718Y-2936621D02*
G01X4350482Y-2936621D01*
G01X4350771Y-2676439D02*
G01X4350103Y-2652517D01*
G01X4350482Y-2936621D02*
G01X4349814Y-2912699D01*
G01X4869718Y-2651379D02*
G01X4350482Y-2651379D01*
G36*
G01X4862101Y-2944241D02*
G01X4862233Y-2903581D01*
G01X4908187Y-2904033D01*
G01X4907821Y-2944241D01*
G01X4862101Y-2944241D01*
G37*
G36*
G01X4861278Y-2684404D02*
G01X4861410Y-2643744D01*
G01X4907364Y-2644196D01*
G01X4906998Y-2684404D01*
G01X4861278Y-2684404D01*
G37*
G01X2489200Y-2235200D02*
G01X2632695Y-2235200D01*
G01X2632695Y-2235200D02*
G01X2632695Y-1843883D01*
G01X2632695Y-1843883D02*
G01X2489200Y-1843883D01*
G01X1930400Y-2235200D02*
G01X1786905Y-2235200D01*
G01X1786905Y-2235200D02*
G01X1786905Y-1843883D01*
G01X1786905Y-1843883D02*
G01X1930400Y-1843883D01*
G54D12*
G01X6942800Y-1569100D02*
G01X6818340Y-1569100D01*
G01X6880570Y-1636410D02*
G01X6880570Y-1501790D01*
G01X7163054Y-1289050D02*
G03X7170166Y-1289050I3556J-399985D01*
G36*
G01X7437801Y-1989099D02*
G03X7437801Y-1389101I-314998J299999D01*
G01X7437801Y-1989099D01*
G37*
G01X6942800Y-705500D02*
G01X6818340Y-705500D01*
G01X6880570Y-772810D02*
G01X6880570Y-638190D01*
G01X7163054Y-425450D02*
G03X7170166Y-425450I3556J-399985D01*
G36*
G01X7437801Y-1125499D02*
G03X7437801Y-525501I-314998J299999D01*
G01X7437801Y-1125499D01*
G37*
G54D11*
G01X6543820Y-2195639D02*
G01X6402819Y-2195639D01*
G01X6402819Y-2376360D02*
G01X6543820Y-2376360D01*
G01X6559060Y-2361120D02*
G01X6559060Y-2210879D01*
G01X6181580Y-2195639D02*
G01X6322581Y-2195639D01*
G01X6322581Y-2376360D02*
G01X6181580Y-2376360D01*
G01X6166340Y-2361120D02*
G01X6166340Y-2210879D01*
G01X6543820Y-2376360D02*
G03X6559060Y-2361120I0J15240D01*
G01X6559060Y-2210879D02*
G03X6543820Y-2195639I-15240J0D01*
G01X6181580Y-2376360D02*
G02X6166340Y-2361120I0J15240D01*
G01X6166340Y-2210879D02*
G02X6181580Y-2195639I15240J0D01*
G01X6543820Y-1878139D02*
G01X6402819Y-1878139D01*
G01X6402819Y-2058860D02*
G01X6543820Y-2058860D01*
G01X6559060Y-2043620D02*
G01X6559060Y-1893379D01*
G01X6181580Y-1878139D02*
G01X6322581Y-1878139D01*
G01X6322581Y-2058860D02*
G01X6181580Y-2058860D01*
G01X6166340Y-2043620D02*
G01X6166340Y-1893379D01*
G01X6543820Y-2058860D02*
G03X6559060Y-2043620I0J15240D01*
G01X6559060Y-1893379D02*
G03X6543820Y-1878139I-15240J0D01*
G01X6181580Y-2058860D02*
G02X6166340Y-2043620I0J15240D01*
G01X6166340Y-1893379D02*
G02X6181580Y-1878139I15240J0D01*
G54D12*
G01X783300Y-1416700D02*
G01X658840Y-1416700D01*
G01X721070Y-1484010D02*
G01X721070Y-1349390D01*
G01X1003554Y-1136650D02*
G03X1010666Y-1136650I3556J-399985D01*
G36*
G01X1278301Y-1836699D02*
G03X1278301Y-1236701I-314998J299999D01*
G01X1278301Y-1836699D01*
G37*
G01X1123300Y-402300D02*
G01X1123300Y-277840D01*
G01X1055990Y-340070D02*
G01X1190610Y-340070D01*
G01X1403350Y-622554D02*
G03X1403350Y-629666I-399985J-3556D01*
G36*
G01X703301Y-897301D02*
G03X1303299Y-897301I299999J314998D01*
G01X703301Y-897301D01*
G37*
G54D11*
G01X1553939Y-929980D02*
G01X1553939Y-1070981D01*
G01X1734660Y-1070981D02*
G01X1734660Y-929980D01*
G01X1719420Y-914740D02*
G01X1569179Y-914740D01*
G01X1553939Y-1292220D02*
G01X1553939Y-1151219D01*
G01X1734660Y-1151219D02*
G01X1734660Y-1292220D01*
G01X1719420Y-1307460D02*
G01X1569179Y-1307460D01*
G01X1734660Y-929980D02*
G03X1719420Y-914740I-15240J0D01*
G01X1569179Y-914740D02*
G03X1553939Y-929980I0J-15240D01*
G01X1734660Y-1292220D02*
G02X1719420Y-1307460I-15240J0D01*
G01X1569179Y-1307460D02*
G02X1553939Y-1292220I0J15240D01*
G01X1903940Y-929980D02*
G01X1903940Y-1070981D01*
G01X2084661Y-1070981D02*
G01X2084661Y-929980D01*
G01X2069421Y-914740D02*
G01X1919180Y-914740D01*
G01X1903940Y-1292220D02*
G01X1903940Y-1151219D01*
G01X2084661Y-1151219D02*
G01X2084661Y-1292220D01*
G01X2069421Y-1307460D02*
G01X1919180Y-1307460D01*
G01X2084661Y-929980D02*
G03X2069421Y-914740I-15240J0D01*
G01X1919180Y-914740D02*
G03X1903940Y-929980I0J-15240D01*
G01X2084661Y-1292220D02*
G02X2069421Y-1307460I-15240J0D01*
G01X1919180Y-1307460D02*
G02X1903940Y-1292220I0J15240D01*
G54D12*
G01X7730702Y-3761998D02*
G01X7698500Y-3850900D01*
G01X7698500Y-3850900D02*
G01X7800100Y-3850900D01*
G01X7800100Y-3850900D02*
G01X7766127Y-3761998D01*
G01X7034018Y-3761998D02*
G01X7000000Y-3850900D01*
G01X7000000Y-3850900D02*
G01X7101600Y-3850900D01*
G01X7101600Y-3850900D02*
G01X7067887Y-3761998D01*
G01X6800000Y-3761998D02*
G01X7999998Y-3761998D01*
G01X7999998Y-2238003D02*
G01X7999998Y-3761998D01*
G01X6800000Y-2238003D02*
G01X7999998Y-2238003D01*
G01X6800000Y-2238003D02*
G01X6800000Y-3761998D01*
G01X6800000Y-3000000D02*
G01X7999998Y-3000000D01*
G01X7482600Y-2619000D02*
G01X7355600Y-2619000D01*
G01X7508000Y-2644400D02*
G01X7508000Y-2771400D01*
G01X7533400Y-2619000D02*
G01X7660400Y-2619000D01*
G01X7508000Y-2593600D02*
G01X7508000Y-2466600D01*
G01X7508000Y-3355600D02*
G01X7508000Y-3228600D01*
G01X7533400Y-3381000D02*
G01X7660400Y-3381000D01*
G01X7508000Y-3406400D02*
G01X7508000Y-3533400D01*
G01X7482600Y-3381000D02*
G01X7355600Y-3381000D01*
G01X269298Y-2238003D02*
G01X301500Y-2149100D01*
G01X301500Y-2149100D02*
G01X199900Y-2149100D01*
G01X199900Y-2149100D02*
G01X233873Y-2238003D01*
G01X965982Y-2238003D02*
G01X1000000Y-2149100D01*
G01X1000000Y-2149100D02*
G01X898400Y-2149100D01*
G01X898400Y-2149100D02*
G01X932113Y-2238003D01*
G01X1200000Y-2238003D02*
G01X2Y-2238003D01*
G01X2Y-3761998D02*
G01X2Y-2238003D01*
G01X1200000Y-3761998D02*
G01X2Y-3761998D01*
G01X1200000Y-3761998D02*
G01X1200000Y-2238003D01*
G01X1200000Y-3000000D02*
G01X2Y-3000000D01*
G01X517400Y-3381000D02*
G01X644400Y-3381000D01*
G01X492000Y-3355600D02*
G01X492000Y-3228600D01*
G01X466600Y-3381000D02*
G01X339600Y-3381000D01*
G01X492000Y-3406400D02*
G01X492000Y-3533400D01*
G01X492000Y-2644400D02*
G01X492000Y-2771400D01*
G01X466600Y-2619000D02*
G01X339600Y-2619000D01*
G01X492000Y-2593600D02*
G01X492000Y-2466600D01*
G01X517400Y-2619000D02*
G01X644400Y-2619000D01*
G54D11*
G01X4428980Y-3278060D02*
G01X4569981Y-3278060D01*
G01X4569981Y-3097339D02*
G01X4428980Y-3097339D01*
G01X4413740Y-3112579D02*
G01X4413740Y-3262820D01*
G01X4791220Y-3278060D02*
G01X4650219Y-3278060D01*
G01X4650219Y-3097339D02*
G01X4791220Y-3097339D01*
G01X4806460Y-3112579D02*
G01X4806460Y-3262820D01*
G01X4428980Y-3097339D02*
G03X4413740Y-3112579I0J-15240D01*
G01X4413740Y-3262820D02*
G03X4428980Y-3278060I15240J0D01*
G01X4791220Y-3097339D02*
G02X4806460Y-3112579I0J-15240D01*
G01X4806460Y-3262820D02*
G02X4791220Y-3278060I-15240J0D01*
G01X4976940Y-3628880D02*
G01X4976940Y-3769881D01*
G01X5157661Y-3769881D02*
G01X5157661Y-3628880D01*
G01X5142421Y-3613640D02*
G01X4992180Y-3613640D01*
G01X4976940Y-3991120D02*
G01X4976940Y-3850119D01*
G01X5157661Y-3850119D02*
G01X5157661Y-3991120D01*
G01X5142421Y-4006360D02*
G01X4992180Y-4006360D01*
G01X5157661Y-3628880D02*
G03X5142421Y-3613640I-15240J0D01*
G01X4992180Y-3613640D02*
G03X4976940Y-3628880I0J-15240D01*
G01X5157661Y-3991120D02*
G02X5142421Y-4006360I-15240J0D01*
G01X4992180Y-4006360D02*
G02X4976940Y-3991120I0J15240D01*
G01X4060820Y-2885709D02*
G01X4189313Y-2885709D01*
G01X4189313Y-2885709D02*
G01X4189313Y-2702291D01*
G01X4189313Y-2702291D02*
G01X4060820Y-2702291D01*
G01X3965580Y-2885709D02*
G01X3837087Y-2885709D01*
G01X3837087Y-2885709D02*
G01X3837087Y-2702291D01*
G01X3837087Y-2702291D02*
G01X3965580Y-2702291D01*
G01X2868740Y-3146280D02*
G01X2868740Y-3287281D01*
G01X3049461Y-3287281D02*
G01X3049461Y-3146280D01*
G01X3034221Y-3131040D02*
G01X2883980Y-3131040D01*
G01X2868740Y-3508520D02*
G01X2868740Y-3367519D01*
G01X3049461Y-3367519D02*
G01X3049461Y-3508520D01*
G01X3034221Y-3523760D02*
G01X2883980Y-3523760D01*
G01X3049461Y-3146280D02*
G03X3034221Y-3131040I-15240J0D01*
G01X2883980Y-3131040D02*
G03X2868740Y-3146280I0J-15240D01*
G01X3049461Y-3508520D02*
G02X3034221Y-3523760I-15240J0D01*
G01X2883980Y-3523760D02*
G02X2868740Y-3508520I0J15240D01*
G01X4492620Y-4473209D02*
G01X4621113Y-4473209D01*
G01X4621113Y-4473209D02*
G01X4621113Y-4289791D01*
G01X4621113Y-4289791D02*
G01X4492620Y-4289791D01*
G01X4397380Y-4473209D02*
G01X4268887Y-4473209D01*
G01X4268887Y-4473209D02*
G01X4268887Y-4289791D01*
G01X4268887Y-4289791D02*
G01X4397380Y-4289791D01*
G01X4194320Y-4291139D02*
G01X4053319Y-4291139D01*
G01X4053319Y-4471860D02*
G01X4194320Y-4471860D01*
G01X4209560Y-4456620D02*
G01X4209560Y-4306379D01*
G01X3832080Y-4291139D02*
G01X3973081Y-4291139D01*
G01X3973081Y-4471860D02*
G01X3832080Y-4471860D01*
G01X3816840Y-4456620D02*
G01X3816840Y-4306379D01*
G01X4194320Y-4471860D02*
G03X4209560Y-4456620I0J15240D01*
G01X4209560Y-4306379D02*
G03X4194320Y-4291139I-15240J0D01*
G01X3832080Y-4471860D02*
G02X3816840Y-4456620I0J15240D01*
G01X3816840Y-4306379D02*
G02X3832080Y-4291139I15240J0D01*
G01X4626120Y-4595939D02*
G01X4485119Y-4595939D01*
G01X4485119Y-4776660D02*
G01X4626120Y-4776660D01*
G01X4641360Y-4761420D02*
G01X4641360Y-4611179D01*
G01X4263880Y-4595939D02*
G01X4404881Y-4595939D01*
G01X4404881Y-4776660D02*
G01X4263880Y-4776660D01*
G01X4248640Y-4761420D02*
G01X4248640Y-4611179D01*
G01X4626120Y-4776660D02*
G03X4641360Y-4761420I0J15240D01*
G01X4641360Y-4611179D02*
G03X4626120Y-4595939I-15240J0D01*
G01X4263880Y-4776660D02*
G02X4248640Y-4761420I0J15240D01*
G01X4248640Y-4611179D02*
G02X4263880Y-4595939I15240J0D01*
G01X4060820Y-4778009D02*
G01X4189313Y-4778009D01*
G01X4189313Y-4778009D02*
G01X4189313Y-4594591D01*
G01X4189313Y-4594591D02*
G01X4060820Y-4594591D01*
G01X3965580Y-4778009D02*
G01X3837087Y-4778009D01*
G01X3837087Y-4778009D02*
G01X3837087Y-4594591D01*
G01X3837087Y-4594591D02*
G01X3965580Y-4594591D01*
G54D12*
G01X6064612Y-3639971D02*
G01X6064612Y-4589972D01*
G01X5946609Y-3834568D02*
G01X5984709Y-3834568D01*
G01X5984709Y-3834568D02*
G01X6022809Y-3834568D01*
G01X6022809Y-3834568D02*
G01X5984709Y-3834568D01*
G01X6064612Y-3639971D02*
G01X5574605Y-3639971D01*
G01X5574605Y-3639971D02*
G01X5569609Y-3639971D01*
G01X5569609Y-3639971D02*
G01X5569609Y-3689471D01*
G01X5569609Y-3689471D02*
G01X5619609Y-3689471D01*
G01X5619609Y-3689471D02*
G01X5619609Y-4540472D01*
G01X5619609Y-4540472D02*
G01X5569609Y-4540472D01*
G01X5569609Y-4540472D02*
G01X5569609Y-4590505D01*
G01X5569609Y-4590505D02*
G01X5574605Y-4590505D01*
G01X5574605Y-4590505D02*
G01X6064612Y-4590505D01*
G01X6038557Y-3834568D02*
G03X5930796Y-3835076I-53879J-508D01*
G03X6038557Y-3835584I53881J0D01*
G54D11*
G01X5335548Y-4073552D02*
G01X5335548Y-4214552D01*
G01X5516269Y-4214552D02*
G01X5516269Y-4073552D01*
G01X5501029Y-4058312D02*
G01X5350788Y-4058312D01*
G01X5335548Y-4435791D02*
G01X5335548Y-4294791D01*
G01X5516269Y-4294791D02*
G01X5516269Y-4435791D01*
G01X5501029Y-4451031D02*
G01X5350788Y-4451031D01*
G01X5516269Y-4073552D02*
G03X5501029Y-4058312I-15240J0D01*
G01X5350788Y-4058312D02*
G03X5335548Y-4073552I0J-15240D01*
G01X5516269Y-4435791D02*
G02X5501029Y-4451031I-15240J0D01*
G01X5350788Y-4451031D02*
G02X5335548Y-4435791I0J15240D01*
G01X2606820Y-2716339D02*
G01X2465819Y-2716339D01*
G01X2465819Y-2897060D02*
G01X2606820Y-2897060D01*
G01X2622060Y-2881820D02*
G01X2622060Y-2731579D01*
G01X2244580Y-2716339D02*
G01X2385581Y-2716339D01*
G01X2385581Y-2897060D02*
G01X2244580Y-2897060D01*
G01X2229340Y-2881820D02*
G01X2229340Y-2731579D01*
G01X2606820Y-2897060D02*
G03X2622060Y-2881820I0J15240D01*
G01X2622060Y-2731579D02*
G03X2606820Y-2716339I-15240J0D01*
G01X2244580Y-2897060D02*
G02X2229340Y-2881820I0J15240D01*
G01X2229340Y-2731579D02*
G02X2244580Y-2716339I15240J0D01*
G01X2378080Y-2397491D02*
G01X2249587Y-2397491D01*
G01X2249587Y-2397491D02*
G01X2249587Y-2580909D01*
G01X2249587Y-2580909D02*
G01X2378080Y-2580909D01*
G01X2473320Y-2397491D02*
G01X2601813Y-2397491D01*
G01X2601813Y-2397491D02*
G01X2601813Y-2580909D01*
G01X2601813Y-2580909D02*
G01X2473320Y-2580909D01*
G54D12*
G01X2844229Y-4918994D02*
G01X2844229Y-5232395D01*
G01X2844229Y-5232395D02*
G01X3048000Y-5232395D01*
G01X3048000Y-5232395D02*
G01X3048000Y-4918994D01*
G01X3462599Y-4478995D02*
G01X2582601Y-4478995D01*
G01X3462599Y-4918994D02*
G01X2582601Y-4918994D01*
G01X2582601Y-4478995D02*
G01X2582601Y-4527520D01*
G01X2582601Y-4870470D02*
G01X2582601Y-4918994D01*
G01X3462599Y-4478995D02*
G01X3462599Y-4527520D01*
G01X3462599Y-4870470D02*
G01X3462599Y-4918994D01*
G01X2159008Y-4635495D02*
G01X2159008Y-4436100D01*
G01X2159008Y-4978397D02*
G01X2159008Y-4831100D01*
G01X1251809Y-4635182D02*
G01X1251809Y-4436410D01*
G01X1251809Y-4993297D02*
G01X1251809Y-4831413D01*
G01X2151807Y-4993297D02*
G01X1251809Y-4993297D01*
G54D11*
G01X1939559Y-3743330D02*
G01X1939559Y-3614837D01*
G01X1939559Y-3614837D02*
G01X1756141Y-3614837D01*
G01X1756141Y-3614837D02*
G01X1756141Y-3743330D01*
G01X1939559Y-3838570D02*
G01X1939559Y-3967063D01*
G01X1939559Y-3967063D02*
G01X1756141Y-3967063D01*
G01X1756141Y-3967063D02*
G01X1756141Y-3838570D01*
G01X1641109Y-3736980D02*
G01X1641109Y-3608487D01*
G01X1641109Y-3608487D02*
G01X1457691Y-3608487D01*
G01X1457691Y-3608487D02*
G01X1457691Y-3736980D01*
G01X1641109Y-3832220D02*
G01X1641109Y-3960713D01*
G01X1641109Y-3960713D02*
G01X1457691Y-3960713D01*
G01X1457691Y-3960713D02*
G01X1457691Y-3832220D01*
G54D12*
G01X3744603Y-195504D02*
G01X5094597Y-195501D01*
G01X5094597Y-1455499D02*
G01X3744603Y-1455499D01*
G01X3744603Y-1455499D02*
G01X3744603Y-1048476D01*
G01X3744603Y-602524D02*
G01X3744603Y-195504D01*
G01X5094597Y-1455499D02*
G01X5094597Y-1048476D01*
G01X5094597Y-602524D02*
G01X5094597Y-195501D01*
G01X484150Y-115850D02*
G01X115850Y-484150D01*
G01X103150Y-115850D02*
G01X471450Y-484150D01*
G01X7884150Y-115850D02*
G01X7515850Y-484150D01*
G01X7503150Y-115850D02*
G01X7871450Y-484150D01*
G01X484150Y-4515850D02*
G01X115850Y-4884150D01*
G01X103150Y-4515850D02*
G01X471450Y-4884150D01*
G01X7884150Y-4515850D02*
G01X7515850Y-4884150D01*
G01X7503150Y-4515850D02*
G01X7871450Y-4884150D01*

G04 Circle Start*
G54D10*
G01X3952164Y-3391611D02*
G03X3982187Y-3391611I15011J0D01*
G03X3952164Y-3391611I-15011J0D01*
G01X4112489Y-3467100D02*
G03X4142511Y-3467100I15011J0D01*
G03X4112489Y-3467100I-15011J0D01*
G54D12*
G01X7254965Y-2619000D02*
G03X7761035Y-2619000I253035J0D01*
G03X7254965Y-2619000I-253035J0D01*
G01X7254965Y-3381000D02*
G03X7761035Y-3381000I253035J0D01*
G03X7254965Y-3381000I-253035J0D01*
G01X238965Y-3381000D02*
G03X745035Y-3381000I253035J0D01*
G03X238965Y-3381000I-253035J0D01*
G01X238965Y-2619000D02*
G03X745035Y-2619000I253035J0D01*
G03X238965Y-2619000I-253035J0D01*
G01X26950Y-293650D02*
G03X560350Y-293650I266700J0D01*
G03X26950Y-293650I-266700J0D01*
G01X7426950Y-293650D02*
G03X7960350Y-293650I266700J0D01*
G03X7426950Y-293650I-266700J0D01*
G01X26950Y-4693650D02*
G03X560350Y-4693650I266700J0D01*
G03X26950Y-4693650I-266700J0D01*
G01X7426950Y-4693650D02*
G03X7960350Y-4693650I266700J0D01*
G03X7426950Y-4693650I-266700J0D01*
G04 Circle End*

M02*

