G04 Layer: TopSolderMaskLayer*
G04 EasyEDA Pro v2.2.37.7, 2025-04-09 10:13:22*
G04 Gerber Generator version 0.3*
G04 Scale: 100 percent, Rotated: No, Reflected: No*
G04 Dimensions in millimeters*
G04 Leading zeros omitted, absolute positions, 4 integers and 5 decimals*
%FSLAX45Y45*%
%MOMM*%
%AMRoundRect*1,1,$1,$2,$3*1,1,$1,$4,$5*1,1,$1,0-$2,0-$3*1,1,$1,0-$4,0-$5*20,1,$1,$2,$3,$4,$5,0*20,1,$1,$4,$5,0-$2,0-$3,0*20,1,$1,0-$2,0-$3,0-$4,0-$5,0*20,1,$1,0-$4,0-$5,$2,$3,0*4,1,4,$2,$3,$4,$5,0-$2,0-$3,0-$4,0-$5,$2,$3,0*%
%ADD10O,1.84851X0.445*%
%ADD11RoundRect,0.09875X1.50162X2.10162X1.50162X-2.10162*%
%ADD12RoundRect,0.09387X-0.69237X-0.57013X-0.69237X0.57013*%
%ADD13RoundRect,0.09495X-0.70833X0.67833X0.70833X0.67833*%
%ADD14RoundRect,0.09387X0.69237X0.57013X0.69237X-0.57013*%
%ADD15RoundRect,0.09495X0.67833X0.70833X0.67833X-0.70833*%
%ADD16C,3.102*%
%ADD17RoundRect,0.10032X3.25084X-3.00083X-3.25084X-3.00083*%
%ADD18RoundRect,0.09508X1.40346X-0.65346X-1.40346X-0.65346*%
%ADD19RoundRect,0.10032X-3.25084X3.00083X3.25084X3.00083*%
%ADD20RoundRect,0.09508X-1.40346X0.65346X1.40346X0.65346*%
%ADD21RoundRect,0.09531X-1.40334X0.67835X1.40334X0.67835*%
%ADD22RoundRect,0.0959X-1.40305X0.75305X1.40305X0.75305*%
%ADD23RoundRect,0.09728X-1.00236X1.00236X1.00236X1.00236*%
%ADD24RoundRect,0.09728X-1.00236X1.65236X1.00236X1.65236*%
%ADD25C,1.702*%
%ADD26RoundRect,0.09495X-0.67833X-0.70833X-0.67833X0.70833*%
%ADD27RoundRect,0.09875X-1.50162X-1.50162X-1.50162X1.50162*%
%ADD28RoundRect,0.09875X1.50162X1.50162X1.50162X-1.50162*%
%ADD29RoundRect,0.09495X0.70833X-0.67833X-0.70833X-0.67833*%
%ADD30RoundRect,0.09387X-0.57013X0.69237X0.57013X0.69237*%
%ADD31C,1.626*%
%ADD32RoundRect,0.09387X0.57013X-0.69237X-0.57013X-0.69237*%
%ADD33O,1.70155X1.7016*%
%ADD34O,2.1016X2.70159*%
%ADD35RoundRect,0.08752X-0.30625X0.55625X0.30625X0.55625*%
%ADD36RoundRect,0.08002X-0.16X0.56X0.16X0.56*%
%ADD37O,1.30002X2.10002*%
%ADD38O,1.30002X1.90002*%
%ADD39RoundRect,0.09919X-1.7514X-2.0014X-1.7514X2.0014*%
%ADD40C,3.4036*%
G75*


G04 Pad Start*
G54D10*
G01X3967175Y-3453994D03*
G01X3967175Y-3518992D03*
G01X3967175Y-3583991D03*
G01X3967175Y-3648989D03*
G01X3967175Y-3714013D03*
G01X3967175Y-3779012D03*
G01X3967175Y-3844011D03*
G01X3967175Y-3909009D03*
G01X3967175Y-3974008D03*
G01X3967175Y-4039006D03*
G01X4541825Y-3453994D03*
G01X4541825Y-3518992D03*
G01X4541825Y-3583991D03*
G01X4541825Y-3648989D03*
G01X4541825Y-3714013D03*
G01X4541825Y-3779012D03*
G01X4541825Y-3844011D03*
G01X4541825Y-3909009D03*
G01X4541825Y-3974008D03*
G01X4541825Y-4039006D03*
G54D11*
G01X4254500Y-3746500D03*
G54D12*
G01X3263900Y-2821000D03*
G01X3263900Y-3021000D03*
G01X3263900Y-3227400D03*
G01X3263900Y-3427400D03*
G54D13*
G01X4113200Y-3187700D03*
G01X3913200Y-3187700D03*
G54D14*
G01X3568700Y-3897300D03*
G01X3568700Y-3697300D03*
G54D12*
G01X3568700Y-3227400D03*
G01X3568700Y-3427400D03*
G54D15*
G01X3251200Y-3897300D03*
G01X3251200Y-3697300D03*
G01X2959100Y-3897300D03*
G01X2959100Y-3697300D03*
G54D16*
G01X4419600Y-1375499D03*
G01X4419600Y-275501D03*
G54D17*
G01X2566403Y-825500D03*
G54D18*
G01X3224797Y-1052779D03*
G01X3224797Y-598221D03*
G54D19*
G01X4934678Y-2047600D03*
G54D20*
G01X4276285Y-1820321D03*
G01X4276285Y-2274879D03*
G54D19*
G01X3629085Y-2049314D03*
G54D21*
G01X2934065Y-1818606D03*
G54D22*
G01X2934065Y-2276594D03*
G54D19*
G01X6291110Y-827214D03*
G54D21*
G01X5596090Y-596506D03*
G54D22*
G01X5596090Y-1054494D03*
G54D23*
G01X4390111Y-2794000D03*
G01X4830089Y-2794000D03*
G54D24*
G01X1903171Y-2044700D03*
G01X2516429Y-2044700D03*
G54D25*
G01X6987799Y-1689095D03*
G01X7337811Y-1689095D03*
G01X7337806Y-825500D03*
G01X6987794Y-825500D03*
G54D13*
G01X6462700Y-2286000D03*
G01X6262700Y-2286000D03*
G01X6462700Y-1968500D03*
G01X6262700Y-1968500D03*
G54D25*
G01X828299Y-1536695D03*
G01X1178311Y-1536695D03*
G01X1003300Y-797306D03*
G01X1003300Y-447294D03*
G54D26*
G01X1644300Y-1011100D03*
G01X1644300Y-1211100D03*
G01X1994300Y-1011100D03*
G01X1994300Y-1211100D03*
G54D27*
G01X7000000Y-3381000D03*
G54D16*
G01X7000000Y-2619000D03*
G54D28*
G01X1000000Y-2619000D03*
G54D16*
G01X1000000Y-3381000D03*
G54D29*
G01X4510100Y-3187700D03*
G01X4710100Y-3187700D03*
G54D26*
G01X5067300Y-3710000D03*
G01X5067300Y-3910000D03*
G54D30*
G01X4113200Y-2794000D03*
G01X3913200Y-2794000D03*
G54D26*
G01X2959100Y-3227400D03*
G01X2959100Y-3427400D03*
G54D30*
G01X4545000Y-4381500D03*
G01X4345000Y-4381500D03*
G54D13*
G01X4113200Y-4381500D03*
G01X3913200Y-4381500D03*
G01X4545000Y-4686300D03*
G01X4345000Y-4686300D03*
G54D30*
G01X4113200Y-4686300D03*
G01X3913200Y-4686300D03*
G54D31*
G01X5819609Y-4114984D03*
G01X5819609Y-3864972D03*
G01X5819609Y-4364971D03*
G54D26*
G01X5425909Y-4154672D03*
G01X5425909Y-4354671D03*
G54D13*
G01X2525700Y-2806700D03*
G01X2325700Y-2806700D03*
G54D32*
G01X2325700Y-2489200D03*
G01X2525700Y-2489200D03*
G54D33*
G01X2822600Y-4698995D03*
G01X3222600Y-4698995D03*
G01X3022600Y-4698995D03*
G54D34*
G01X3437611Y-4698995D03*
G01X2607589Y-4698995D03*
G54D35*
G01X1381798Y-4258297D03*
G01X1461808Y-4258297D03*
G54D36*
G01X1526807Y-4258297D03*
G01X1576819Y-4258297D03*
G01X1626807Y-4258297D03*
G01X1676794Y-4258297D03*
G01X1726806Y-4258297D03*
G01X1776794Y-4258297D03*
G01X1826806Y-4258297D03*
G01X1876819Y-4258297D03*
G54D35*
G01X1941817Y-4258297D03*
G01X2021802Y-4258297D03*
G54D37*
G01X1269302Y-4313288D03*
G01X2134299Y-4313288D03*
G54D38*
G01X1269302Y-4733303D03*
G01X2134299Y-4733303D03*
G54D12*
G01X1847850Y-3690950D03*
G01X1847850Y-3890950D03*
G01X1549400Y-3684600D03*
G01X1549400Y-3884600D03*
G54D39*
G01X3819601Y-825500D03*
G01X5019599Y-825500D03*
G54D40*
G01X293650Y-293650D03*
G01X7693650Y-293650D03*
G01X293650Y-4693650D03*
G01X7693650Y-4693650D03*
G04 Pad End*

M02*

