%FSLAX25Y25*%
%MOIN*%
G70*
G01*
G75*
G04 Layer_Color=255*
%ADD10R,0.03347X0.02756*%
%ADD11O,0.06299X0.01181*%
%ADD12R,0.06299X0.01181*%
%ADD13O,0.01181X0.06299*%
%ADD14R,0.05000X0.06000*%
%ADD15R,0.02756X0.03347*%
%ADD16R,0.05118X0.03937*%
%ADD17R,0.10630X0.03937*%
%ADD18R,0.03543X0.02126*%
%ADD19R,0.01969X0.06299*%
%ADD20R,0.14410X0.07874*%
%ADD21R,0.14410X0.09843*%
%ADD22R,0.21654X0.05630*%
%ADD23R,0.03937X0.10630*%
%ADD24R,0.20866X0.11024*%
%ADD25R,0.03937X0.05118*%
%ADD26R,0.09843X0.15748*%
%ADD27R,0.08661X0.07087*%
%ADD28O,0.09843X0.05906*%
%ADD29R,0.10000X0.07500*%
%ADD30R,0.02126X0.03543*%
%ADD31R,0.06299X0.01969*%
%ADD32R,0.07874X0.14410*%
%ADD33R,0.09843X0.14410*%
%ADD34R,0.02559X0.05315*%
%ADD35R,0.09449X0.08268*%
%ADD36O,0.03543X0.01969*%
%ADD37O,0.03543X0.01969*%
%ADD38R,0.03543X0.01969*%
%ADD39R,0.02362X0.03937*%
%ADD40R,0.03937X0.02362*%
%ADD41C,0.01000*%
%ADD42C,0.00800*%
%ADD43C,0.03000*%
%ADD44C,0.01500*%
%ADD45C,0.04000*%
%ADD46C,0.01200*%
%ADD47C,0.02000*%
%ADD48C,0.10000*%
%ADD49C,0.08000*%
%ADD50C,0.05000*%
%ADD51R,0.10571X0.09351*%
%ADD52R,0.10871X0.13938*%
%ADD53R,0.06400X0.08900*%
%ADD54R,0.08600X0.43171*%
%ADD55R,0.10722X0.08773*%
%ADD56R,0.28371X0.07471*%
%ADD57R,0.07400X0.15300*%
%ADD58R,0.44271X0.10500*%
%ADD59R,0.12367X0.05271*%
%ADD60R,0.10200X0.04900*%
%ADD61R,0.04000X0.18600*%
%ADD62R,0.18900X0.05200*%
%ADD63R,0.07300X0.29900*%
%ADD64R,0.24300X1.56600*%
%ADD65R,0.50200X0.62200*%
%ADD66R,0.24100X0.17400*%
%ADD67R,0.25624X0.17093*%
%ADD68R,0.23600X0.17400*%
%ADD69R,0.05906X0.05906*%
%ADD70C,0.05906*%
%ADD71O,0.06000X0.10000*%
%ADD72R,0.06000X0.10000*%
%ADD73O,0.11811X0.09843*%
%ADD74R,0.11811X0.09843*%
%ADD75O,0.05906X0.09843*%
%ADD76R,0.05906X0.09843*%
%ADD77R,0.09843X0.11811*%
%ADD78O,0.09843X0.11811*%
%ADD79R,0.05906X0.05906*%
%ADD80C,0.06693*%
%ADD81C,0.05500*%
%ADD82O,0.07874X0.15748*%
%ADD83C,0.05512*%
%ADD84C,0.03000*%
%ADD85C,0.02000*%
%ADD86C,0.04000*%
%ADD87O,0.05500X0.02500*%
%ADD88R,0.05500X0.02500*%
%ADD89O,0.01181X0.02756*%
%ADD90O,0.02756X0.01181*%
%ADD91R,0.13386X0.07087*%
%ADD92R,0.09100X0.04600*%
%ADD93R,0.04000X0.22000*%
%ADD94R,0.18000X0.06400*%
%ADD95R,0.05200X0.25200*%
%ADD96R,0.18400X0.60700*%
%ADD97R,0.24600X1.31200*%
%ADD98R,0.50100X0.62100*%
D10*
X277500Y-265905D02*
D03*
Y-260000D02*
D03*
X273177Y-236400D02*
D03*
Y-230494D02*
D03*
X286477Y-217500D02*
D03*
Y-211595D02*
D03*
X301802Y-259794D02*
D03*
Y-265700D02*
D03*
X298777Y-211200D02*
D03*
Y-217106D02*
D03*
X304977Y-211000D02*
D03*
Y-216905D02*
D03*
X295965Y-259794D02*
D03*
Y-265700D02*
D03*
X292477Y-217206D02*
D03*
Y-211300D02*
D03*
X311177Y-216905D02*
D03*
Y-211000D02*
D03*
X273277Y-224505D02*
D03*
Y-218600D02*
D03*
X284277Y-253306D02*
D03*
Y-247400D02*
D03*
X271400Y-266005D02*
D03*
Y-260100D02*
D03*
X284290Y-265700D02*
D03*
Y-259794D02*
D03*
X290127Y-259794D02*
D03*
Y-265700D02*
D03*
X307640Y-259794D02*
D03*
Y-265700D02*
D03*
X313477Y-259794D02*
D03*
Y-265700D02*
D03*
X179377Y-264789D02*
D03*
Y-270694D02*
D03*
X162977Y-240005D02*
D03*
Y-234100D02*
D03*
X188177Y-227505D02*
D03*
Y-221600D02*
D03*
X206277Y-233206D02*
D03*
Y-227300D02*
D03*
X195677Y-221500D02*
D03*
Y-227406D02*
D03*
X206277Y-246400D02*
D03*
Y-240494D02*
D03*
X155977Y-245900D02*
D03*
Y-239995D02*
D03*
X191777Y-258900D02*
D03*
Y-264806D02*
D03*
X185477Y-258894D02*
D03*
Y-264800D02*
D03*
D15*
X146994Y-165000D02*
D03*
X152900D02*
D03*
X135294Y-165100D02*
D03*
X141200D02*
D03*
X141305Y-158800D02*
D03*
X135400D02*
D03*
X295877Y-253400D02*
D03*
X289972D02*
D03*
X295977Y-247400D02*
D03*
X290072D02*
D03*
X278400Y-271800D02*
D03*
X284306D02*
D03*
X295983Y-271400D02*
D03*
X290077D02*
D03*
X206372Y-254600D02*
D03*
X212277D02*
D03*
X206572Y-260600D02*
D03*
X212477D02*
D03*
X167372Y-270895D02*
D03*
X173277D02*
D03*
X173472Y-258894D02*
D03*
X179377D02*
D03*
X191783Y-270495D02*
D03*
X185877D02*
D03*
X148472Y-264300D02*
D03*
X154377D02*
D03*
X148472Y-257800D02*
D03*
X154377D02*
D03*
X206477Y-266800D02*
D03*
X212383D02*
D03*
X179577Y-226200D02*
D03*
X173672D02*
D03*
X173077Y-264794D02*
D03*
X167172D02*
D03*
D16*
X243600Y-63600D02*
D03*
Y-71474D02*
D03*
X234600Y-63500D02*
D03*
Y-71374D02*
D03*
X213777Y-235100D02*
D03*
Y-227226D02*
D03*
D25*
X309977Y-239900D02*
D03*
X317851D02*
D03*
D26*
X175757Y-314900D02*
D03*
D27*
X161583Y-309979D02*
D03*
X161584Y-319821D02*
D03*
D28*
X137371Y-305845D02*
D03*
Y-323955D02*
D03*
D40*
X227800Y-249474D02*
D03*
X217957Y-245537D02*
D03*
X227800Y-241600D02*
D03*
D41*
X0Y-33D02*
X393701D01*
X0Y-358301D02*
Y-33D01*
Y-358301D02*
X393701D01*
Y-33D01*
D69*
X378100Y-70100D02*
D03*
X346100Y-89176D02*
D03*
D70*
X368100Y-70100D02*
D03*
X358100D02*
D03*
X348100D02*
D03*
X338100D02*
D03*
X328100D02*
D03*
X318100D02*
D03*
X308100D02*
D03*
X376100Y-89176D02*
D03*
X366100D02*
D03*
X356100D02*
D03*
X39900Y-56200D02*
D03*
Y-66200D02*
D03*
X162077Y-123400D02*
D03*
Y-113400D02*
D03*
X9100Y-69300D02*
D03*
Y-59300D02*
D03*
Y-49300D02*
D03*
X54277Y-309900D02*
D03*
X64120D02*
D03*
X71994D02*
D03*
X81836D02*
D03*
D71*
X14677Y-316900D02*
D03*
X14477Y-343400D02*
D03*
X240777Y-337950D02*
D03*
X190627D02*
D03*
X140477D02*
D03*
X289477Y-337900D02*
D03*
X11577Y-143800D02*
D03*
D72*
X24677Y-316900D02*
D03*
X24477Y-343400D02*
D03*
X230777Y-337950D02*
D03*
X180627D02*
D03*
X130477D02*
D03*
X279477Y-337900D02*
D03*
X21577Y-143800D02*
D03*
D73*
X354331Y-270742D02*
D03*
Y-255151D02*
D03*
Y-223970D02*
D03*
Y-239561D02*
D03*
Y-177198D02*
D03*
Y-192789D02*
D03*
Y-208380D02*
D03*
X63780Y-255151D02*
D03*
Y-270742D02*
D03*
Y-286333D02*
D03*
Y-223970D02*
D03*
Y-239561D02*
D03*
Y-208380D02*
D03*
Y-192789D02*
D03*
D74*
X354331Y-286333D02*
D03*
X63780Y-177198D02*
D03*
D75*
X102877Y-15000D02*
D03*
X122877D02*
D03*
X112877D02*
D03*
X43177D02*
D03*
X63177D02*
D03*
X53177D02*
D03*
X290977D02*
D03*
X300977D02*
D03*
X280977D02*
D03*
X350377D02*
D03*
X360377D02*
D03*
X340377D02*
D03*
X172177D02*
D03*
X182177D02*
D03*
X162177D02*
D03*
X192177D02*
D03*
X202177D02*
D03*
X242177D02*
D03*
X232177D02*
D03*
X222177D02*
D03*
X212177D02*
D03*
D76*
X92877D02*
D03*
X33177D02*
D03*
X270977D02*
D03*
X330377D02*
D03*
X152177D02*
D03*
D77*
X316287Y-332400D02*
D03*
X361109Y-332300D02*
D03*
D78*
X331877Y-332400D02*
D03*
X376700Y-332300D02*
D03*
D79*
X39900Y-76200D02*
D03*
X162077Y-103400D02*
D03*
X9100Y-79300D02*
D03*
D80*
X40977Y-205685D02*
D03*
Y-186000D02*
D03*
X26577Y-205885D02*
D03*
Y-186200D02*
D03*
X9377Y-205300D02*
D03*
Y-195300D02*
D03*
Y-185300D02*
D03*
D81*
X24177Y-292600D02*
D03*
X14177D02*
D03*
D82*
X42072Y-320924D02*
D03*
X94041D02*
D03*
D83*
X5877Y-248200D02*
D03*
X45877D02*
D03*
X7677Y-265900D02*
D03*
X37677D02*
D03*
X5577Y-230200D02*
D03*
X45577D02*
D03*
X6677Y-131100D02*
D03*
Y-91100D02*
D03*
X17477Y-131700D02*
D03*
Y-91700D02*
D03*
X28377Y-131700D02*
D03*
Y-91700D02*
D03*
X79077Y-185700D02*
D03*
Y-225700D02*
D03*
X89377Y-185600D02*
D03*
Y-225600D02*
D03*
X57500Y-164700D02*
D03*
X7500D02*
D03*
D87*
X175300Y-172500D02*
D03*
X197938D02*
D03*
X175300Y-162500D02*
D03*
Y-167500D02*
D03*
X197938Y-162500D02*
D03*
Y-177500D02*
D03*
Y-167500D02*
D03*
D88*
X175300Y-177500D02*
D03*
D89*
X296367Y-240390D02*
D03*
X294398D02*
D03*
X292430D02*
D03*
X290461D02*
D03*
X288493D02*
D03*
X286524D02*
D03*
X284556D02*
D03*
X282587D02*
D03*
Y-226610D02*
D03*
X284556D02*
D03*
X286524D02*
D03*
X288493D02*
D03*
X290461D02*
D03*
X292430D02*
D03*
X294398D02*
D03*
X296367D02*
D03*
X189367Y-249990D02*
D03*
X187399D02*
D03*
X185430D02*
D03*
X183461D02*
D03*
X181493D02*
D03*
X179525D02*
D03*
X177556D02*
D03*
X175587D02*
D03*
Y-236210D02*
D03*
X177556D02*
D03*
X179525D02*
D03*
X181493D02*
D03*
X183461D02*
D03*
X185430D02*
D03*
X187399D02*
D03*
X189367D02*
D03*
D90*
X280619Y-236453D02*
D03*
Y-230547D02*
D03*
X298336D02*
D03*
Y-236453D02*
D03*
X173619Y-246053D02*
D03*
Y-240147D02*
D03*
X191335D02*
D03*
Y-246053D02*
D03*
D91*
X289477Y-233500D02*
D03*
X182477Y-243100D02*
D03*
M02*
