M48
;Layer_Color=9474304
;FILE_FORMAT=2:5
INCH,LZ
;TYPE=PLATED
T1F00S00C0.01200
T2F00S00C0.02000
T3F00S00C0.02500
T4F00S00C0.03300
T5F00S00C0.03346
T6F00S00C0.03543
T7F00S00C0.03937
T8F00S00C0.04000
T9F00S00C0.04724
T11F00S00C0.07283
%
T01
X0106577Y-0267
X0110077
X0126477Y-02725
X0141677Y-0267
X0147577Y-02697
X0161077Y-02725
X0133277Y-0291
X0187777Y-02948
X0201377Y-02799
X0209477Y-02813
X0248177Y-02818
X0239677Y-02955
X0209477Y-02273
X0191577Y-02271
X0194477Y-02327
X0177577Y-02328
X0149377Y-02341
X0116777Y-02302
X0102877Y-02323
X0266177Y-02324
X0299777Y-02265
X0290077Y-02757
X02904Y-02803
Y-02857
X02966
X03025Y-02856
X02838Y-02853
X02788
X0256077Y-02674
X0320477Y-02684
X0332477Y-0268
X03355Y-02848
X03386Y-02878
X0332477Y-0211
X0316077
X0295277Y-02204
X0280177Y-02052
X02889Y-0175
X02863Y-01629
X02728Y-01663
X02671Y-01691
X02597Y-0175
X02533Y-01544
X02559Y-0139
X0274691Y-0118391
X02789
X02773Y-01039
X02732Y-01066
X02825Y-01014
X02968Y-01015
X03002Y-01023
X02935Y-01066
Y-00865
X0286065Y-0072835
X02889Y-00694
X03076Y-00758
X03375Y-00922
X03276Y-01033
X03176Y-0115295
X03461Y-01153
X03559Y-00987
X036597Y-012593
X03761Y-01375
X0260872Y-00949
X0241522Y-0089176
X02317Y-0089198
X02337Y-00764
X0237585Y-00766
X0239554Y-00742
X02453Y-00758
X02455Y-00785
X0251365Y-0072835
X02514Y-00694
X02254Y-00987
X02259Y-01131
X02228Y-01185
X02279Y-01248
X02336Y-01245
X02335Y-01213
X02376Y-012593
X02474Y-0124
X0245459Y-0140659
X0241522Y-0137
X0239554Y-0143046
X02481Y-01457
X02513Y-01574
X02421Y-01691
X02184Y-01693
X0193618Y-0167399
X01832Y-0177499
X0194477Y-02087
X0191477Y-0214
X0201577Y-02103
X0210803Y-0194097
X02278Y-0203
X02341Y-01975
X02158Y-01431
X02154Y-01332
X02124Y-0133
X0152677Y-01381
X0146777Y-01407
X01431Y-01408
X01376Y-01362
X014Y-0133
X01353Y-01304
X01318Y-01302
X0132Y-01588
X01055Y-01429
X0114777Y-01942
X0119877Y-01975
X0119777Y-02077
X0114777
X01501Y-02031
X01467Y-00734
X00721Y-00762
X00686Y-00712
X00598Y-00873
X00452Y-01008
X00686Y-01181
X0070617Y-0124717
X006492Y-014248
X00593Y-0146
X0022977Y-01244
X00255Y-00734
X01318Y-00414
X01353Y-00412
X01431Y-00378
X01401Y-00345
X01376Y-00317
X0153Y-00345
X0176Y-00317
X01955
X02277
X02376
X0248Y-0029
X0251Y-00263
X0281
X0291Y-00262
X03002Y-00333
X02735Y-00548
X02571Y-00655
X03504Y-00274
T02
X00646Y-02995
X00725Y-02996
X00811Y-02997
X00845Y-02825
X00914Y-02768
X00842Y-02657
X0079877Y-02606
X00845Y-02358
X01434Y-02293
X01665Y-02289
X0182377Y-02424
X0197Y-02432
X0182577Y-02774
X0178477
X0174077
X01957Y-031
X01977Y-03179
X02486Y-03142
X01316Y-03154
X01262Y-03086
X02595Y-03143
X02699Y-03151
X02786Y-03147
X02855Y-0313
X02922Y-03151
X03035Y-0315
X03038Y-03432
X02989Y-03509
X03068Y-03549
X03429Y-03545
X03434Y-03302
Y-03173
X03313Y-03172
X0341Y-03015
X0323Y-02305
X03256Y-02226
X03179Y-02249
X03106Y-02332
X0294476Y-02347
X0267177Y-02766
X0262477Y-02769
X0257677
X02669Y-01956
X02696Y-01877
X02783Y-01954
X02842Y-01828
X02927Y-0187
X02981Y-01937
X03056Y-0186
X03051Y-01749
X03161Y-01772
X03256Y-01818
X03338Y-01836
X0334Y-01921
X03345Y-02035
X03252Y-02047
X03262Y-01968
X03183Y-01982
X03166Y-02054
X03183Y-02165
X031Y-02223
X03146Y-01907
X03313Y-0172
X03315Y-01586
X03444Y-01619
X03584Y-01615
X03625Y-01526
X03751Y-01561
X0372Y-01609
X0384Y-01582
X03842Y-0144
X03846Y-01323
X0383Y-01199
X03828Y-01048
X03714Y-01032
X03709Y-01164
X03552Y-01185
X03568Y-01064
X03389Y-01076
X03305Y-01142
X0334Y-0132
X03491Y-01328
X03651Y-01326
X03454Y-01472
X03266Y-0146
X03148Y-01549
X03028Y-01638
X02974Y-01513
X02986Y-0132
X0315Y-01318
X03073Y-01199
X02939Y-01198
X03069Y-01036
X03058Y-00831
X03223Y-00834
X03546Y-00809
X0366Y-00792
X02656Y-00834
X02584Y-0111
X02611Y-01519
X02796Y-01562
Y-01348
X02415Y-01223
X02476Y-01099
X02527Y-01034
X02398Y-01032
X02269Y-01042
X02253Y-01733
X02259Y-01911
X02152Y-02033
X0213Y-02106
X02068Y-02146
X02041Y-02039
X01983Y-01894
X01769Y-01895
X01603Y-019
X0159877Y-02121
X01662Y-02084
X0143577Y-02119
Y-02174
X0137077Y-0211796
X0130577Y-02116
X01279Y-02025
X01398Y-02026
X01077Y-01965
X00968Y-01929
X01121Y-01388
X01182Y-01337
X01253Y-01316
X01279Y-01403
X0122Y-01233
X01111Y-01253
X01198Y-01057
X01169Y-00954
X01124Y-00784
X01519Y-00739
X01603Y-00793
X02493Y-01767
X02506Y-01884
X02448Y-01957
X00965Y-01833
X00958Y-01727
X00895Y-01642
X00953Y-01331
X00906Y-01248
X00962Y-01057
X0095Y-0093
X00928Y-00788
X00654Y-00805
X00519Y-00806
X00553Y-01073
X0057Y-01177
X00416Y-01139
X00391Y-01003
X0050203Y-0132103
X00595Y-00591
X00921Y-00554
X00964Y-00631
X00908Y-00318
X00791Y-00327
X00155Y-0031
X00101Y-00164
X00178Y-00567
X01105Y-00527
X01155Y-00657
X01531Y-00644
X01877Y-00636
X02246Y-0054
X02593Y-00548
X02719Y-00644
X02788Y-00515
X03234Y-00636
X03337Y-00653
X03365Y-00565
X03518Y-00641
X03693Y-00551
X03871Y-00593
X03867Y-0048
X03814Y-00337
X03769Y-00222
X03771Y-001
X03539Y-00323
T03
X0098577Y-03517
X0110977
X0123077
X0133077
X0144177
X0154877
X0164277
X0174477
X0185577
X0196777
X0206777
X0216477
X0225977
X0237646Y-0351131
X0244177Y-03445
X0241077Y-02617
X0240677Y-02554
X0234677
X0234877Y-02487
X0240977Y-02478
X0240877Y-02415
X0234877Y-02417
X0234777Y-02623
X0168577Y-02596
Y-02506
X0149877Y-02495
X0141111
X0132344
X0123577
X0123377Y-0259
X0132777
X0141077
X0266477Y-02619
X0266877Y-02517
X0267577Y-02893
X0260327
X0254177
Y-02971
X0260477
X0267577
Y-03049
X0260877
X026685Y-0220283
Y-0212041
X0081377Y-021223
X0032977Y-01721
X00388Y-00409
X00586
X01191
Y-0058
X01725
X0182102Y-0057998
X02276Y-00635
X02348Y-0039574
X02565Y-00432
Y-00047
X03057Y-0058
T04
X0014177Y-02926
X0024177
T05
X0007677Y-02659
X0005877Y-02482
X0005577Y-02302
X0045577
X0045877Y-02482
X0037677Y-02659
X0079077Y-02257
X0089377Y-02256
Y-01856
X0079077Y-01857
X00575Y-01647
X00075
X0006677Y-01311
X0017477Y-01317
X0028377
Y-00917
X0017477
X0006677Y-00911
T06
X03081Y-00701
X03181
X03281
X03381
X03481
X03581
X03681
X03781
X03761Y-0089176
X03661
X03561
X03461
X0162077Y-01034
Y-01134
Y-01234
X00399Y-00762
Y-00662
X00091Y-00693
Y-00793
Y-00593
Y-00493
X00399Y-00562
T07
X0054277Y-03099
X006412
X0071994
X0081836
X0009377Y-02053
Y-01953
Y-01853
X0033177Y-0015
X0043177
X0053177
X0063177
X0092877
X0102877
X0112877
X0122877
X0152177
X0162177
X0172177
X0182177
X0192177
X0202177
X0212177
X0222177
X0232177
X0242177
X0270977
X0280977
X0290977
X0300977
X0330377
X0340377
X0350377
X0360377
T08
X0014477Y-03434
X0024477
X0024677Y-03169
X0014677
X0130477Y-033795
X0140477
X0180627
X0190627
X0230777
X0240777
X0279477Y-03379
X0289477
X0021577Y-01438
X0011577
T09
X0026577Y-0205885
X0040977Y-0205685
Y-0186
X0026577Y-01862
T11
X006378Y-0286333
Y-0270742
Y-0255151
Y-0239561
Y-022397
X0354331Y-022397
Y-0239561
Y-0255151
Y-0270742
Y-0286333
X0361109Y-03323
X03767
X0331877Y-03324
X0316287
X0354331Y-020838
Y-0192789
Y-0177198
X006378Y-0177198
Y-0192789
Y-020838
M30
