%FSLAX25Y25*%
%MOIN*%
G70*
G01*
G75*
G04 Layer_Physical_Order=1*
G04 Layer_Color=255*
%ADD10R,0.03347X0.02756*%
%ADD11O,0.06299X0.01181*%
%ADD12R,0.06299X0.01181*%
%ADD13O,0.01181X0.06299*%
%ADD14R,0.05000X0.06000*%
%ADD15R,0.02756X0.03347*%
%ADD16R,0.05118X0.03937*%
%ADD17R,0.10630X0.03937*%
%ADD18R,0.03543X0.02126*%
%ADD19R,0.01969X0.06299*%
%ADD20R,0.14410X0.07874*%
%ADD21R,0.14410X0.09843*%
%ADD22R,0.21654X0.05630*%
%ADD23R,0.03937X0.10630*%
%ADD24R,0.20866X0.11024*%
%ADD25R,0.03937X0.05118*%
%ADD26R,0.09843X0.15748*%
%ADD27R,0.08661X0.07087*%
%ADD28O,0.09843X0.05906*%
%ADD29R,0.10000X0.07500*%
%ADD30R,0.02126X0.03543*%
%ADD31R,0.06299X0.01969*%
%ADD32R,0.07874X0.14410*%
%ADD33R,0.09843X0.14410*%
%ADD34R,0.02559X0.05315*%
%ADD35R,0.09449X0.08268*%
%ADD36O,0.03543X0.01969*%
%ADD37O,0.03543X0.01969*%
%ADD38R,0.03543X0.01969*%
%ADD39R,0.02362X0.03937*%
%ADD40R,0.03937X0.02362*%
%ADD41C,0.01000*%
%ADD42C,0.00800*%
%ADD43C,0.03000*%
%ADD44C,0.01500*%
%ADD45C,0.04000*%
%ADD46C,0.01200*%
%ADD47C,0.02000*%
%ADD48C,0.10000*%
%ADD49C,0.08000*%
%ADD50C,0.05000*%
%ADD51R,0.10571X0.09351*%
%ADD52R,0.10871X0.13938*%
%ADD53R,0.06400X0.08900*%
%ADD54R,0.08600X0.43171*%
%ADD55R,0.10722X0.08773*%
%ADD56R,0.28371X0.07471*%
%ADD57R,0.07400X0.15300*%
%ADD58R,0.44271X0.10500*%
%ADD59R,0.12367X0.05271*%
%ADD60R,0.10200X0.04900*%
%ADD61R,0.04000X0.18600*%
%ADD62R,0.18900X0.05200*%
%ADD63R,0.07300X0.29900*%
%ADD64R,0.24300X1.56600*%
%ADD65R,0.50200X0.62200*%
%ADD66R,0.24100X0.17400*%
%ADD67R,0.25624X0.17093*%
%ADD68R,0.23600X0.17400*%
%ADD69R,0.05906X0.05906*%
%ADD70C,0.05906*%
%ADD71O,0.06000X0.10000*%
%ADD72R,0.06000X0.10000*%
%ADD73O,0.11811X0.09843*%
%ADD74R,0.11811X0.09843*%
%ADD75O,0.05906X0.09843*%
%ADD76R,0.05906X0.09843*%
%ADD77R,0.09843X0.11811*%
%ADD78O,0.09843X0.11811*%
%ADD79R,0.05906X0.05906*%
%ADD80C,0.06693*%
%ADD81C,0.05500*%
%ADD82O,0.07874X0.15748*%
%ADD83C,0.05512*%
%ADD84C,0.03000*%
%ADD85C,0.02000*%
%ADD86C,0.04000*%
G36*
X366248Y-324894D02*
X362109D01*
Y-332301D01*
Y-339705D01*
X366248D01*
Y-356262D01*
X286427D01*
X286213Y-355810D01*
X286275Y-355734D01*
X287489D01*
X287489Y-355734D01*
X288533Y-355597D01*
X289507Y-355194D01*
X290342Y-354553D01*
X292330Y-352565D01*
X292971Y-351729D01*
X293374Y-350756D01*
X293512Y-349712D01*
X293512Y-349712D01*
X293512Y-349712D01*
Y-349712D01*
Y-341919D01*
X293861Y-341075D01*
X294016Y-339900D01*
Y-335900D01*
X293861Y-334725D01*
X293408Y-333631D01*
X292687Y-332691D01*
X291747Y-331969D01*
X290652Y-331516D01*
X289477Y-331361D01*
X288302Y-331516D01*
X287208Y-331969D01*
X286268Y-332691D01*
X285546Y-333631D01*
X285093Y-334725D01*
X284938Y-335900D01*
Y-339900D01*
X285093Y-341075D01*
X285443Y-341919D01*
Y-346207D01*
X284991Y-346421D01*
X284806Y-346269D01*
X283677Y-345666D01*
X282451Y-345294D01*
X281177Y-345169D01*
X266677D01*
Y-336750D01*
X253677D01*
Y-345169D01*
X251015D01*
X250679Y-344798D01*
X250709Y-344500D01*
Y-341031D01*
X252459Y-339281D01*
X252790Y-338785D01*
X252907Y-338200D01*
Y-329900D01*
X252790Y-329315D01*
X252459Y-328819D01*
X232007Y-308366D01*
Y-278329D01*
X234986D01*
X235147Y-278803D01*
X234539Y-279269D01*
X233825Y-280199D01*
X233377Y-281282D01*
X233355Y-281445D01*
X239684D01*
Y-282444D01*
X240683D01*
Y-286936D01*
X241652D01*
X242814Y-286783D01*
X243898Y-286334D01*
X244828Y-285620D01*
X245541Y-284690D01*
X245846Y-283956D01*
X246301Y-283652D01*
X246403Y-283621D01*
X247089Y-284079D01*
X247137Y-284577D01*
X246496Y-285219D01*
X246164Y-285715D01*
X246048Y-286300D01*
Y-298251D01*
X245557Y-298348D01*
X245541Y-298310D01*
X244828Y-297379D01*
X243898Y-296666D01*
X242814Y-296217D01*
X242465Y-296171D01*
X242174Y-295765D01*
X242226Y-295500D01*
X242032Y-294525D01*
X241480Y-293698D01*
X240653Y-293145D01*
X239677Y-292951D01*
X238702Y-293145D01*
X237875Y-293698D01*
X237322Y-294525D01*
X237128Y-295500D01*
X237181Y-295766D01*
X236890Y-296173D01*
X236553Y-296217D01*
X235469Y-296666D01*
X234539Y-297379D01*
X233825Y-298310D01*
X233377Y-299393D01*
X233224Y-300555D01*
X233377Y-301718D01*
X233825Y-302801D01*
X234539Y-303731D01*
X235469Y-304445D01*
X236553Y-304893D01*
X237715Y-305046D01*
X241652D01*
X242814Y-304893D01*
X243898Y-304445D01*
X244828Y-303731D01*
X245541Y-302801D01*
X245557Y-302762D01*
X246048Y-302860D01*
Y-308000D01*
X246164Y-308585D01*
X246496Y-309081D01*
X246992Y-309413D01*
X247577Y-309529D01*
X325877D01*
X326048Y-309669D01*
Y-321766D01*
X323896Y-323919D01*
X323564Y-324415D01*
X323448Y-325000D01*
Y-346700D01*
X323564Y-347285D01*
X323896Y-347781D01*
X324392Y-348113D01*
X324977Y-348229D01*
X348144D01*
X348437Y-348171D01*
X348726Y-348114D01*
X348728Y-348113D01*
X348729Y-348113D01*
X348978Y-347947D01*
X349223Y-347784D01*
X349224Y-347782D01*
X349225Y-347781D01*
X349391Y-347533D01*
X349556Y-347288D01*
X349556Y-347287D01*
X349557Y-347285D01*
X349615Y-346994D01*
X349673Y-346703D01*
X349707Y-330403D01*
X349706Y-330401D01*
X349707Y-330400D01*
Y-298700D01*
X349590Y-298115D01*
X349259Y-297619D01*
X348762Y-297287D01*
X348177Y-297171D01*
X342807D01*
Y-296021D01*
X343247Y-295785D01*
X343829Y-296172D01*
X343967Y-296230D01*
X344092Y-296313D01*
X344240Y-296342D01*
X344380Y-296400D01*
X344530Y-296400D01*
X344677Y-296429D01*
X362677D01*
X363263Y-296313D01*
X363759Y-295981D01*
X364090Y-295485D01*
X364207Y-294900D01*
Y-231900D01*
X364090Y-231315D01*
X364189Y-231129D01*
X366248D01*
Y-324894D01*
D02*
G37*
G36*
X65483Y-2513D02*
X65104Y-2804D01*
X60681Y-7227D01*
X60120Y-7958D01*
X59767Y-8809D01*
X59647Y-9723D01*
Y-10318D01*
X59288Y-10786D01*
X58839Y-11869D01*
X58686Y-13032D01*
Y-16969D01*
X58839Y-18131D01*
X59288Y-19214D01*
X59647Y-19682D01*
Y-35677D01*
X59767Y-36591D01*
X60019Y-37200D01*
X59666Y-37553D01*
X59514Y-37490D01*
X58600Y-37370D01*
X57781Y-37478D01*
X57406Y-37148D01*
Y-36643D01*
X51846D01*
Y-39671D01*
X51703Y-40017D01*
X51600Y-40800D01*
X51703Y-41583D01*
X51846Y-41929D01*
Y-44958D01*
X57406D01*
Y-44652D01*
X57781Y-44322D01*
X58600Y-44430D01*
X59514Y-44310D01*
X60365Y-43957D01*
X61096Y-43396D01*
X61657Y-42665D01*
X62010Y-41814D01*
X62130Y-40900D01*
X62038Y-40200D01*
X62486Y-39979D01*
X78370Y-55862D01*
Y-167566D01*
X61231D01*
X61010Y-167117D01*
X61218Y-166846D01*
X61646Y-165811D01*
X61793Y-164700D01*
X61646Y-163589D01*
X61218Y-162554D01*
X60535Y-161665D01*
X59646Y-160983D01*
X58611Y-160554D01*
X57500Y-160407D01*
X56389Y-160554D01*
X55354Y-160983D01*
X54465Y-161665D01*
X53782Y-162554D01*
X53354Y-163589D01*
X53207Y-164700D01*
X53354Y-165811D01*
X53782Y-166846D01*
X53990Y-167117D01*
X53769Y-167566D01*
X46977D01*
X46509Y-167659D01*
X46112Y-167924D01*
X45847Y-168321D01*
X45791Y-168600D01*
X35677D01*
Y-169195D01*
X35229Y-169416D01*
X34742Y-169043D01*
X33891Y-168690D01*
X32977Y-168570D01*
X32063Y-168690D01*
X31212Y-169043D01*
X30870Y-169305D01*
X30540Y-168929D01*
X37040Y-162430D01*
X41242D01*
X42155Y-162310D01*
X43007Y-161957D01*
X43738Y-161396D01*
X43738Y-161396D01*
X43738Y-161396D01*
X46715Y-158419D01*
X47177Y-158610D01*
Y-158964D01*
X47114Y-159442D01*
X47217Y-160226D01*
X47459Y-160809D01*
Y-162911D01*
X52821D01*
Y-160896D01*
X52824Y-160892D01*
X53126Y-160163D01*
X53229Y-159379D01*
Y-153068D01*
X56758D01*
Y-151178D01*
X57070Y-150970D01*
X59538Y-148502D01*
X60276Y-148355D01*
X61102Y-147802D01*
X61655Y-146976D01*
X61849Y-146000D01*
X61655Y-145025D01*
X61102Y-144198D01*
X60276Y-143645D01*
X59300Y-143451D01*
X58325Y-143645D01*
X57498Y-144198D01*
X56945Y-145025D01*
X56870Y-145404D01*
X56429Y-145640D01*
X56314Y-145593D01*
Y-130300D01*
Y-129800D01*
X56314Y-129800D01*
X56314Y-129800D01*
Y-129800D01*
Y-129073D01*
X57255D01*
Y-122727D01*
X51499D01*
D01*
D01*
X51499Y-122727D01*
X51350D01*
Y-122727D01*
X45594D01*
Y-128723D01*
X44761Y-129555D01*
X44319Y-130217D01*
X44164Y-130997D01*
Y-146132D01*
X43522D01*
Y-147345D01*
X43146Y-147835D01*
X42793Y-148686D01*
X42673Y-149600D01*
Y-152476D01*
X39779Y-155370D01*
X35577D01*
X34664Y-155490D01*
X33812Y-155843D01*
X33081Y-156404D01*
X24381Y-165104D01*
X23820Y-165835D01*
X23467Y-166686D01*
X23415Y-167081D01*
X22916Y-167048D01*
Y-150300D01*
X26077D01*
Y-137300D01*
X23216D01*
Y-135245D01*
X24372Y-134089D01*
X24502Y-134098D01*
X25221Y-134578D01*
X25342Y-134735D01*
X26231Y-135417D01*
X27266Y-135846D01*
X28377Y-135993D01*
X29488Y-135846D01*
X30523Y-135417D01*
X31413Y-134735D01*
X32095Y-133846D01*
X32524Y-132811D01*
X32670Y-131700D01*
X32524Y-130589D01*
X32095Y-129554D01*
X31413Y-128665D01*
X30523Y-127982D01*
X29488Y-127554D01*
X28377Y-127407D01*
X27266Y-127554D01*
X26231Y-127982D01*
X25465Y-128570D01*
X25016Y-128349D01*
Y-125848D01*
X25332Y-125375D01*
X25526Y-124400D01*
X25332Y-123424D01*
X24780Y-122598D01*
X23953Y-122045D01*
X22977Y-121851D01*
X22002Y-122045D01*
X21175Y-122598D01*
X20622Y-123424D01*
X20428Y-124400D01*
X20622Y-125375D01*
X20938Y-125848D01*
Y-128426D01*
X20490Y-128647D01*
X19624Y-127982D01*
X18588Y-127554D01*
X17477Y-127407D01*
X16366Y-127554D01*
X15331Y-127982D01*
X14442Y-128665D01*
X13760Y-129554D01*
X13331Y-130589D01*
X13185Y-131700D01*
X13331Y-132811D01*
X13760Y-133846D01*
X14442Y-134735D01*
X15331Y-135417D01*
X16366Y-135846D01*
X17477Y-135993D01*
X18588Y-135846D01*
X18722Y-135791D01*
X19138Y-136069D01*
Y-137300D01*
X17077D01*
Y-150300D01*
X18838D01*
Y-232500D01*
X18838Y-232500D01*
X18838D01*
X18993Y-233280D01*
X19435Y-233942D01*
X28938Y-243445D01*
Y-292379D01*
X28439Y-292412D01*
X28464Y-292600D01*
X28439Y-292788D01*
X28938Y-292821D01*
Y-310400D01*
X21637D01*
Y-296598D01*
X22053Y-296320D01*
X23068Y-296741D01*
X23177Y-296755D01*
Y-292601D01*
Y-288445D01*
X23068Y-288459D01*
X22053Y-288880D01*
X21637Y-288602D01*
Y-280902D01*
X25170Y-277370D01*
X25590Y-276741D01*
X25737Y-276000D01*
X25737Y-276000D01*
X25737Y-276000D01*
Y-276000D01*
Y-243900D01*
X25737Y-243900D01*
X25737Y-243900D01*
Y-243900D01*
X25737D01*
X25737Y-243900D01*
X25590Y-243159D01*
X25170Y-242530D01*
X16837Y-234198D01*
Y-162500D01*
X16690Y-161759D01*
X16270Y-161130D01*
X8614Y-153475D01*
Y-149764D01*
X9063Y-149543D01*
X9308Y-149731D01*
X10402Y-150184D01*
X11577Y-150339D01*
X12752Y-150184D01*
X13847Y-149731D01*
X14787Y-149009D01*
X15508Y-148069D01*
X15961Y-146975D01*
X16116Y-145800D01*
Y-141800D01*
X15961Y-140625D01*
X15508Y-139531D01*
X14787Y-138591D01*
X13847Y-137869D01*
X12752Y-137416D01*
X11577Y-137261D01*
X10402Y-137416D01*
X9308Y-137869D01*
X9063Y-138057D01*
X8614Y-137836D01*
Y-134904D01*
X8823Y-134818D01*
X9713Y-134135D01*
X10395Y-133246D01*
X10824Y-132211D01*
X10970Y-131100D01*
X10824Y-129989D01*
X10395Y-128954D01*
X9713Y-128065D01*
X8823Y-127383D01*
X7788Y-126954D01*
X6677Y-126807D01*
X5566Y-126954D01*
X4531Y-127383D01*
X3642Y-128065D01*
X2960Y-128954D01*
X2531Y-129989D01*
X2039Y-129924D01*
Y-92276D01*
X2531Y-92211D01*
X2960Y-93246D01*
X3642Y-94135D01*
X4531Y-94818D01*
X5566Y-95246D01*
X5677Y-95261D01*
Y-91101D01*
Y-86939D01*
X5566Y-86954D01*
X4531Y-87383D01*
X3642Y-88065D01*
X2960Y-88954D01*
X2531Y-89989D01*
X2039Y-89924D01*
Y-2039D01*
X65323D01*
X65483Y-2513D01*
D02*
G37*
G36*
X237100Y-120149D02*
X252944D01*
X254843Y-122048D01*
Y-127571D01*
X254843Y-127571D01*
Y-128108D01*
X254840Y-128104D01*
X254317Y-127754D01*
X254317Y-127754D01*
X254149Y-127642D01*
X253333Y-127480D01*
X252517Y-127642D01*
X252349Y-127754D01*
X252180Y-127642D01*
X251365Y-127480D01*
X250549Y-127642D01*
X250380Y-127754D01*
X250212Y-127642D01*
X249396Y-127480D01*
X249365Y-127454D01*
Y-125559D01*
X249755Y-124976D01*
X249949Y-124000D01*
X249755Y-123024D01*
X249202Y-122198D01*
X248376Y-121645D01*
X247400Y-121451D01*
X246425Y-121645D01*
X245598Y-122198D01*
X245045Y-123024D01*
X244851Y-124000D01*
X245045Y-124976D01*
X245490Y-125642D01*
Y-127454D01*
X245459Y-127480D01*
X244643Y-127642D01*
X244475Y-127754D01*
X244306Y-127642D01*
X243491Y-127480D01*
X242675Y-127642D01*
X242506Y-127754D01*
X242338Y-127642D01*
X241522Y-127480D01*
X240706Y-127642D01*
X240538Y-127754D01*
X240369Y-127642D01*
X240010Y-127570D01*
X239819Y-127109D01*
X239955Y-126905D01*
X240149Y-125930D01*
X239955Y-124954D01*
X239402Y-124127D01*
X238576Y-123575D01*
X237600Y-123381D01*
X237600Y-123381D01*
X237600Y-123381D01*
X237539Y-123340D01*
X237406Y-122675D01*
X236986Y-122047D01*
X236002Y-121062D01*
X235855Y-120325D01*
X235855Y-120325D01*
X235855D01*
X236209Y-119972D01*
X237100Y-120149D01*
D02*
G37*
G36*
X162077Y-210500D02*
Y-217000D01*
X159677Y-219400D01*
X140277D01*
X137277Y-222400D01*
X105877D01*
X104277Y-220800D01*
Y-210600D01*
X105077Y-209800D01*
X161377D01*
X162077Y-210500D01*
D02*
G37*
G36*
X275477Y-204200D02*
Y-226900D01*
X274377Y-228000D01*
X261977D01*
X260777Y-229200D01*
Y-260100D01*
X259877Y-261000D01*
X247677D01*
X247177Y-260500D01*
Y-219700D01*
X220277D01*
X218877Y-218300D01*
Y-207700D01*
X220777Y-205800D01*
X251677D01*
X254577Y-202900D01*
X274177D01*
X275477Y-204200D01*
D02*
G37*
G36*
X341948Y-288610D02*
X341561Y-288927D01*
X341277Y-288871D01*
X335209D01*
Y-288662D01*
X328665D01*
Y-288871D01*
X327577D01*
X327407Y-288731D01*
Y-283633D01*
X327411Y-283629D01*
X341948D01*
Y-288610D01*
D02*
G37*
G36*
X362677Y-294900D02*
X344677D01*
X343477Y-294100D01*
Y-282800D01*
X342777Y-282100D01*
X326777D01*
X325877Y-283000D01*
Y-308000D01*
X247577D01*
Y-286300D01*
X249377Y-284500D01*
X271377D01*
X274977Y-288100D01*
X304877D01*
Y-272600D01*
X266377D01*
X262677Y-268900D01*
Y-244900D01*
X263777Y-243800D01*
X282877D01*
X284577Y-245500D01*
Y-255700D01*
X285477Y-256600D01*
X335277D01*
X337177Y-254700D01*
Y-233500D01*
X338777Y-231900D01*
X362677D01*
Y-294900D01*
D02*
G37*
G36*
X303020Y-2501D02*
X298838Y-6683D01*
X298357Y-7310D01*
X298268Y-7524D01*
X298054Y-8040D01*
X297951Y-8823D01*
Y-9741D01*
X297801Y-9856D01*
X297088Y-10786D01*
X296639Y-11869D01*
X296486Y-13032D01*
Y-16969D01*
X296639Y-18131D01*
X297088Y-19214D01*
X297801Y-20144D01*
X298732Y-20858D01*
X299815Y-21307D01*
X300977Y-21460D01*
X302140Y-21307D01*
X303223Y-20858D01*
X304153Y-20144D01*
X304867Y-19214D01*
X305315Y-18131D01*
X305468Y-16969D01*
Y-13032D01*
X305315Y-11869D01*
X304867Y-10786D01*
X304184Y-9896D01*
X307453Y-6626D01*
X364730D01*
X366957Y-8853D01*
Y-30963D01*
X365960Y-31960D01*
X365479Y-32587D01*
X365391Y-32801D01*
X365177Y-33317D01*
X365074Y-34100D01*
Y-40169D01*
X361698D01*
X360938Y-40069D01*
X360155Y-40172D01*
X360149Y-40174D01*
X359608D01*
X359463Y-39696D01*
X359602Y-39602D01*
X359602Y-39602D01*
X359602Y-39602D01*
X362302Y-36902D01*
X362302Y-36902D01*
X362302Y-36902D01*
X362855Y-36075D01*
X363049Y-35100D01*
X363049Y-35100D01*
X363049Y-35100D01*
Y-35100D01*
X363049D01*
X363049Y-35100D01*
X362926Y-34483D01*
Y-20625D01*
X363553Y-20144D01*
X364267Y-19214D01*
X364715Y-18131D01*
X364868Y-16969D01*
Y-13032D01*
X364715Y-11869D01*
X364267Y-10786D01*
X363553Y-9856D01*
X362623Y-9142D01*
X361540Y-8693D01*
X360377Y-8540D01*
X359215Y-8693D01*
X358132Y-9142D01*
X357202Y-9856D01*
X356488Y-10786D01*
X356039Y-11869D01*
X355886Y-13032D01*
Y-16969D01*
X356039Y-18131D01*
X356488Y-19214D01*
X357202Y-20144D01*
X357828Y-20625D01*
Y-34167D01*
X356744Y-35251D01*
X342800D01*
X341825Y-35445D01*
X340998Y-35998D01*
X338498Y-38498D01*
X337945Y-39325D01*
X337776Y-40172D01*
X337775Y-40180D01*
X334234D01*
Y-40178D01*
X334234Y-39924D01*
X334234Y-39826D01*
X334234Y-39826D01*
X334234D01*
Y-38300D01*
X331060D01*
Y-37301D01*
X330061D01*
Y-34422D01*
X327934D01*
Y-34416D01*
X325761D01*
Y-37295D01*
X324762D01*
Y-38295D01*
X321587D01*
Y-39968D01*
X321587Y-39968D01*
X321587D01*
X321587Y-40172D01*
Y-40322D01*
D01*
D01*
X321587D01*
Y-46078D01*
X321735D01*
Y-48886D01*
X321547Y-49074D01*
X319761D01*
Y-47600D01*
Y-38600D01*
X311761D01*
Y-39470D01*
X309661D01*
Y-38500D01*
X302137D01*
Y-34901D01*
X302555Y-34275D01*
X302749Y-33300D01*
X302634Y-32724D01*
X302952Y-32337D01*
X336300D01*
X337041Y-32190D01*
X337670Y-31770D01*
X337670Y-31770D01*
X337670Y-31770D01*
X341747Y-27693D01*
X342167Y-27064D01*
X342314Y-26323D01*
X342314Y-26323D01*
X342314Y-26323D01*
Y-26323D01*
Y-20986D01*
X342623Y-20858D01*
X343553Y-20144D01*
X344267Y-19214D01*
X344715Y-18131D01*
X344868Y-16969D01*
Y-13032D01*
X344715Y-11869D01*
X344267Y-10786D01*
X343553Y-9856D01*
X342623Y-9142D01*
X341540Y-8693D01*
X340377Y-8540D01*
X339215Y-8693D01*
X338132Y-9142D01*
X337201Y-9856D01*
X336488Y-10786D01*
X336039Y-11869D01*
X335886Y-13032D01*
Y-16969D01*
X336039Y-18131D01*
X336488Y-19214D01*
X337201Y-20144D01*
X338132Y-20858D01*
X338440Y-20986D01*
Y-25520D01*
X335498Y-28463D01*
X298700D01*
X297959Y-28610D01*
X297330Y-29030D01*
X293530Y-32830D01*
X293110Y-33459D01*
X292963Y-34200D01*
Y-39432D01*
X291459D01*
Y-39232D01*
X288400D01*
Y-42701D01*
Y-46169D01*
X291141D01*
Y-46369D01*
X298263D01*
Y-47306D01*
X291459D01*
Y-47106D01*
X283341D01*
Y-54043D01*
X291141D01*
Y-54242D01*
X293263D01*
Y-71400D01*
X293263Y-71400D01*
X293263D01*
X293410Y-72141D01*
X293830Y-72770D01*
X294863Y-73802D01*
Y-83828D01*
X294475Y-84145D01*
X293500Y-83951D01*
X292525Y-84145D01*
X291698Y-84698D01*
X291316Y-85269D01*
X290837Y-85124D01*
Y-71001D01*
X291255Y-70376D01*
X291449Y-69400D01*
X291255Y-68424D01*
X290702Y-67598D01*
X289876Y-67045D01*
X288900Y-66851D01*
X287925Y-67045D01*
X287098Y-67598D01*
X286545Y-68424D01*
X286435Y-68979D01*
X285937Y-68930D01*
Y-65300D01*
X285790Y-64559D01*
X285370Y-63930D01*
X276002Y-54562D01*
X275855Y-53825D01*
X275302Y-52998D01*
X274476Y-52445D01*
X273500Y-52251D01*
X272524Y-52445D01*
X271698Y-52998D01*
X271145Y-53825D01*
X270951Y-54800D01*
X271145Y-55775D01*
X271698Y-56602D01*
X272524Y-57155D01*
X273262Y-57302D01*
X282063Y-66102D01*
Y-81432D01*
X279300D01*
Y-84901D01*
Y-88368D01*
X282063D01*
Y-89306D01*
X274241D01*
Y-90761D01*
X270136D01*
X269672Y-90668D01*
X264554D01*
X264089Y-90761D01*
X244000D01*
X243764Y-90320D01*
X243877Y-90151D01*
X244071Y-89176D01*
X243877Y-88200D01*
X243756Y-88019D01*
X243947Y-87557D01*
X244306Y-87486D01*
X244475Y-87373D01*
X244643Y-87486D01*
X245459Y-87648D01*
X246275Y-87486D01*
X246443Y-87373D01*
X246612Y-87486D01*
X247428Y-87648D01*
X248243Y-87486D01*
X248412Y-87373D01*
X248580Y-87486D01*
X249396Y-87648D01*
X250212Y-87486D01*
X250380Y-87373D01*
X250549Y-87486D01*
X251365Y-87648D01*
X252180Y-87486D01*
X252349Y-87373D01*
X252517Y-87486D01*
X253333Y-87648D01*
X254149Y-87486D01*
X254317Y-87373D01*
X254486Y-87486D01*
X255302Y-87648D01*
X256117Y-87486D01*
X256286Y-87373D01*
X256454Y-87486D01*
X257270Y-87648D01*
X258086Y-87486D01*
X258777Y-87024D01*
X259239Y-86332D01*
X259402Y-85517D01*
Y-80398D01*
X259239Y-79583D01*
X259207Y-79535D01*
Y-66846D01*
X259455Y-66475D01*
X259649Y-65500D01*
X259455Y-64525D01*
X258902Y-63698D01*
X258075Y-63145D01*
X257100Y-62951D01*
X256124Y-63145D01*
X255298Y-63698D01*
X254745Y-64525D01*
X254551Y-65500D01*
X254745Y-66475D01*
X255298Y-67302D01*
X255333Y-67326D01*
Y-78241D01*
X255302Y-78267D01*
X254486Y-78429D01*
X254317Y-78542D01*
X254149Y-78429D01*
X253404Y-78281D01*
Y-74283D01*
X253719Y-73811D01*
X253914Y-72835D01*
X253719Y-71860D01*
X253241Y-71144D01*
X253755Y-70376D01*
X253949Y-69400D01*
X253755Y-68424D01*
X253202Y-67598D01*
X252376Y-67045D01*
X251400Y-66851D01*
X250425Y-67045D01*
X249598Y-67598D01*
X249045Y-68424D01*
X248898Y-69162D01*
X248026Y-70034D01*
X247606Y-70663D01*
X247459Y-71404D01*
Y-73705D01*
X247018Y-73941D01*
X246275Y-73445D01*
X245300Y-73251D01*
X244324Y-73445D01*
X243498Y-73998D01*
X242945Y-74825D01*
X242798Y-75562D01*
X242121Y-76240D01*
X241969Y-76466D01*
X241491Y-76321D01*
Y-75801D01*
X241909Y-75175D01*
X242103Y-74200D01*
X241909Y-73225D01*
X241811Y-73079D01*
X252370Y-62520D01*
X252790Y-61892D01*
X252937Y-61150D01*
Y-45026D01*
X253428Y-44929D01*
X253443Y-44965D01*
X254004Y-45696D01*
X254735Y-46257D01*
X255586Y-46610D01*
X256500Y-46730D01*
X257414Y-46610D01*
X258265Y-46257D01*
X258996Y-45696D01*
X259557Y-44965D01*
X259910Y-44114D01*
X260030Y-43200D01*
Y-4700D01*
X259910Y-3786D01*
X259557Y-2935D01*
X258996Y-2204D01*
X259052Y-2039D01*
X302828D01*
X303020Y-2501D01*
D02*
G37*
G36*
X303348Y-277536D02*
X298477D01*
Y-281006D01*
Y-284473D01*
X303348D01*
Y-286571D01*
X275611D01*
X272459Y-283419D01*
X271962Y-283087D01*
X271377Y-282971D01*
X271096D01*
X270861Y-282530D01*
X270890Y-282485D01*
X271007Y-281900D01*
Y-275939D01*
X273032D01*
X274235Y-277142D01*
X274235Y-277142D01*
X274632Y-277407D01*
X274897Y-277584D01*
X275677Y-277739D01*
X276662D01*
Y-280005D01*
X283478D01*
Y-281004D01*
X284477D01*
Y-284473D01*
X290292D01*
Y-284473D01*
X290292D01*
X290292Y-284473D01*
X290662D01*
Y-284473D01*
X296477D01*
Y-281006D01*
Y-277536D01*
X292387D01*
X292152Y-277095D01*
X292432Y-276676D01*
X292626Y-275700D01*
X292432Y-274725D01*
X292329Y-274570D01*
X292565Y-274129D01*
X303348D01*
Y-277536D01*
D02*
G37*
G36*
X391662Y-165871D02*
X341677D01*
X341092Y-165987D01*
X340596Y-166319D01*
X340264Y-166815D01*
X340148Y-167400D01*
Y-229600D01*
X340224Y-229984D01*
X339907Y-230371D01*
X338777D01*
X338192Y-230487D01*
X337696Y-230819D01*
X336096Y-232419D01*
X335764Y-232915D01*
X335648Y-233500D01*
Y-254066D01*
X334644Y-255071D01*
X286111D01*
X286107Y-255066D01*
Y-253973D01*
X291077D01*
Y-250506D01*
Y-247036D01*
X286107D01*
Y-245500D01*
X285990Y-244915D01*
X285659Y-244419D01*
X283959Y-242719D01*
X283463Y-242387D01*
X282877Y-242271D01*
X263777D01*
X263289Y-242368D01*
X263192Y-242387D01*
X262748Y-242684D01*
X262307Y-242448D01*
Y-229834D01*
X262611Y-229529D01*
X265244D01*
X265293Y-230027D01*
X265202Y-230045D01*
X264375Y-230598D01*
X263822Y-231424D01*
X263628Y-232400D01*
X263822Y-233376D01*
X264375Y-234202D01*
X265202Y-234755D01*
X266177Y-234949D01*
X267153Y-234755D01*
X267625Y-234439D01*
X291677D01*
X292458Y-234284D01*
X293119Y-233842D01*
X296719Y-230242D01*
X297161Y-229580D01*
X297316Y-228800D01*
X297316Y-228800D01*
X297316Y-228800D01*
Y-228800D01*
Y-228178D01*
X297795Y-228033D01*
X297975Y-228302D01*
X298802Y-228855D01*
X299777Y-229049D01*
X300753Y-228855D01*
X301580Y-228302D01*
X302132Y-227476D01*
X302326Y-226500D01*
X302132Y-225524D01*
X301816Y-225052D01*
Y-219700D01*
X301661Y-218920D01*
X301219Y-218258D01*
X298919Y-215958D01*
X298258Y-215516D01*
X297477Y-215361D01*
X294277D01*
X293497Y-215516D01*
X292835Y-215958D01*
X291835Y-216958D01*
X291393Y-217620D01*
X291238Y-218400D01*
Y-226455D01*
X289033Y-228661D01*
X276533D01*
X276341Y-228199D01*
X276559Y-227981D01*
X276890Y-227485D01*
X277007Y-226900D01*
Y-225725D01*
X279137D01*
Y-223161D01*
X280136D01*
Y-222162D01*
X283409D01*
Y-220725D01*
Y-219162D01*
X280136D01*
Y-217162D01*
X283409D01*
Y-215725D01*
Y-214162D01*
X280136D01*
Y-212162D01*
X283409D01*
Y-210725D01*
Y-205599D01*
X283041D01*
X282724Y-205213D01*
X282726Y-205200D01*
X282532Y-204224D01*
X281980Y-203398D01*
X281153Y-202845D01*
X280177Y-202651D01*
X279202Y-202845D01*
X278375Y-203398D01*
X277822Y-204224D01*
X277628Y-205200D01*
X277631Y-205213D01*
X277477Y-205400D01*
X277007Y-205231D01*
Y-204200D01*
X276890Y-203615D01*
X276559Y-203119D01*
X275259Y-201819D01*
X274763Y-201487D01*
X274177Y-201371D01*
X254577D01*
X253992Y-201487D01*
X253496Y-201819D01*
X251044Y-204271D01*
X250022D01*
X249831Y-203809D01*
X257970Y-195670D01*
X258390Y-195041D01*
X258537Y-194300D01*
X258537Y-194300D01*
X258537Y-194300D01*
Y-194300D01*
Y-183783D01*
X259773D01*
Y-183678D01*
X260027D01*
Y-183678D01*
X266373D01*
Y-178126D01*
X266373Y-178126D01*
D01*
D01*
X266373Y-177922D01*
Y-177906D01*
Y-177847D01*
X266373Y-177772D01*
X266373Y-177568D01*
X266373Y-177568D01*
X266373D01*
Y-175894D01*
X263199D01*
Y-174896D01*
X262228D01*
X262200Y-174753D01*
Y-172017D01*
X260027D01*
Y-172122D01*
X259773D01*
Y-172122D01*
X253427D01*
Y-177674D01*
X253427Y-177674D01*
X253427D01*
X253427Y-177878D01*
Y-178028D01*
D01*
D01*
X253427D01*
Y-183783D01*
X254663D01*
Y-193498D01*
X247098Y-201063D01*
X229401D01*
X228776Y-200645D01*
X227800Y-200451D01*
X226825Y-200645D01*
X225998Y-201198D01*
X225445Y-202025D01*
X225251Y-203000D01*
X225427Y-203884D01*
X225110Y-204271D01*
X220777D01*
X220192Y-204387D01*
X219696Y-204719D01*
X217796Y-206619D01*
X217464Y-207115D01*
X217348Y-207700D01*
Y-218300D01*
X217464Y-218885D01*
X217796Y-219381D01*
X219196Y-220781D01*
X219692Y-221113D01*
X220277Y-221229D01*
X245648D01*
Y-226254D01*
X245186Y-226446D01*
X244859Y-226119D01*
X244362Y-225787D01*
X243777Y-225671D01*
X219877D01*
X219292Y-225787D01*
X218796Y-226119D01*
X218296Y-226619D01*
X217964Y-227115D01*
X217848Y-227700D01*
Y-235900D01*
X217964Y-236485D01*
X218004Y-236544D01*
X217768Y-236985D01*
X216282D01*
Y-242800D01*
X218750D01*
Y-238081D01*
X219191Y-237845D01*
X219592Y-238113D01*
X220177Y-238229D01*
X221348D01*
Y-281536D01*
X221302D01*
Y-281536D01*
X220885D01*
X220662Y-281387D01*
X220077Y-281271D01*
X212020D01*
X211832Y-280325D01*
X211516Y-279852D01*
Y-250615D01*
X211813D01*
Y-250615D01*
X212213Y-250615D01*
Y-256300D01*
X219150D01*
Y-250485D01*
X218750D01*
Y-244800D01*
X215281D01*
Y-243801D01*
X214282D01*
Y-236985D01*
X211813D01*
D01*
X211813D01*
X211516Y-236688D01*
Y-228748D01*
X211832Y-228275D01*
X212026Y-227300D01*
X211832Y-226325D01*
X211280Y-225498D01*
X210453Y-224945D01*
X209477Y-224751D01*
X208502Y-224945D01*
X207675Y-225498D01*
X207122Y-226325D01*
X206928Y-227300D01*
X207122Y-228275D01*
X207438Y-228748D01*
Y-279852D01*
X207122Y-280325D01*
X206934Y-281271D01*
X203943D01*
X203732Y-280875D01*
X203926Y-279900D01*
X203732Y-278924D01*
X203616Y-278751D01*
Y-211748D01*
X203932Y-211276D01*
X204126Y-210300D01*
X203932Y-209325D01*
X203380Y-208498D01*
X202553Y-207945D01*
X201577Y-207751D01*
X200602Y-207945D01*
X199775Y-208498D01*
X199222Y-209325D01*
X199028Y-210300D01*
X199222Y-211276D01*
X199538Y-211748D01*
Y-278153D01*
X199022Y-278924D01*
X198828Y-279900D01*
X199022Y-280875D01*
X198811Y-281271D01*
X196477D01*
X195892Y-281387D01*
X195396Y-281719D01*
X195124Y-282126D01*
X194876D01*
Y-300874D01*
X195124D01*
X195396Y-301281D01*
X195892Y-301613D01*
X196477Y-301729D01*
X204643D01*
Y-323700D01*
X204674Y-324019D01*
Y-328950D01*
X207326D01*
X207546Y-329131D01*
X208675Y-329734D01*
X209900Y-330106D01*
X211174Y-330231D01*
X219987D01*
X220738Y-330157D01*
X226277Y-335696D01*
Y-344450D01*
X234337D01*
X234462Y-344753D01*
X234185Y-345169D01*
X217706D01*
Y-341200D01*
X217674Y-340881D01*
Y-335950D01*
X215023D01*
X214803Y-335769D01*
X213674Y-335166D01*
X212449Y-334794D01*
X211174Y-334669D01*
X209900Y-334794D01*
X208675Y-335166D01*
X207546Y-335769D01*
X207326Y-335950D01*
X204674D01*
Y-340881D01*
X204643Y-341200D01*
Y-345169D01*
X196856D01*
X195951Y-344894D01*
X194677Y-344769D01*
X194662Y-344755D01*
Y-341969D01*
X195011Y-341125D01*
X195166Y-339950D01*
Y-335950D01*
X195011Y-334775D01*
X194558Y-333681D01*
X193837Y-332741D01*
X192897Y-332019D01*
X191802Y-331566D01*
X190627Y-331411D01*
X189453Y-331566D01*
X188358Y-332019D01*
X187418Y-332741D01*
X186697Y-333681D01*
X186243Y-334775D01*
X186088Y-335950D01*
Y-339950D01*
X186243Y-341125D01*
X186593Y-341969D01*
Y-345169D01*
X167557D01*
Y-341200D01*
X167526Y-340881D01*
Y-335950D01*
X164875D01*
X164655Y-335769D01*
X163525Y-335166D01*
X162300Y-334794D01*
X161026Y-334669D01*
X159752Y-334794D01*
X158526Y-335166D01*
X157397Y-335769D01*
X157177Y-335950D01*
X154526D01*
Y-340881D01*
X154494Y-341200D01*
Y-345169D01*
X145497D01*
X145251Y-345094D01*
X144512Y-345021D01*
Y-341969D01*
X144861Y-341125D01*
X145016Y-339950D01*
Y-335950D01*
X144861Y-334775D01*
X144408Y-333681D01*
X143687Y-332741D01*
X142747Y-332019D01*
X141652Y-331566D01*
X140477Y-331411D01*
X139303Y-331566D01*
X138208Y-332019D01*
X137268Y-332741D01*
X136547Y-333681D01*
X136093Y-334775D01*
X135938Y-335950D01*
Y-339950D01*
X136093Y-341125D01*
X136443Y-341969D01*
Y-345169D01*
X116209D01*
Y-341300D01*
X116177Y-340981D01*
Y-336050D01*
X113526D01*
X113306Y-335869D01*
X112177Y-335266D01*
X110951Y-334894D01*
X109677Y-334769D01*
X108403Y-334894D01*
X107178Y-335266D01*
X106049Y-335869D01*
X105828Y-336050D01*
X103177D01*
Y-340981D01*
X103146Y-341300D01*
Y-345169D01*
X98577D01*
X97303Y-345294D01*
X96078Y-345666D01*
X94949Y-346269D01*
X93959Y-347082D01*
X93147Y-348071D01*
X92543Y-349201D01*
X92171Y-350426D01*
X92046Y-351700D01*
X92171Y-352974D01*
X92543Y-354200D01*
X93147Y-355329D01*
X93541Y-355810D01*
X93327Y-356262D01*
X2039D01*
Y-250967D01*
X2513Y-250806D01*
X2842Y-251235D01*
X3731Y-251918D01*
X4766Y-252346D01*
X5877Y-252493D01*
X6988Y-252346D01*
X8023Y-251918D01*
X8398Y-251630D01*
X14215D01*
X15747Y-253162D01*
Y-267638D01*
X3981Y-279404D01*
X3420Y-280135D01*
X3067Y-280986D01*
X2947Y-281900D01*
Y-301400D01*
X2947Y-301400D01*
X2947D01*
X3067Y-302314D01*
X3420Y-303165D01*
X3981Y-303896D01*
X11147Y-311062D01*
Y-312109D01*
X10746Y-312631D01*
X10293Y-313725D01*
X10138Y-314900D01*
Y-318900D01*
X10293Y-320075D01*
X10746Y-321169D01*
X11468Y-322109D01*
X12408Y-322831D01*
X13502Y-323284D01*
X14677Y-323439D01*
X15852Y-323284D01*
X16947Y-322831D01*
X17314Y-322549D01*
X17763Y-322770D01*
Y-323998D01*
X13107Y-328653D01*
X12687Y-329281D01*
X12540Y-330023D01*
Y-337332D01*
X12208Y-337469D01*
X11268Y-338191D01*
X10547Y-339131D01*
X10093Y-340225D01*
X9938Y-341400D01*
Y-345400D01*
X10093Y-346575D01*
X10547Y-347669D01*
X11268Y-348609D01*
X12208Y-349331D01*
X13302Y-349784D01*
X14477Y-349939D01*
X15652Y-349784D01*
X16747Y-349331D01*
X17687Y-348609D01*
X18408Y-347669D01*
X18861Y-346575D01*
X19016Y-345400D01*
Y-341400D01*
X18861Y-340225D01*
X18408Y-339131D01*
X17687Y-338191D01*
X16747Y-337469D01*
X16414Y-337332D01*
Y-330825D01*
X21070Y-326170D01*
X21490Y-325541D01*
X21637Y-324800D01*
Y-323400D01*
X28938D01*
Y-325455D01*
X23035Y-331358D01*
X22593Y-332020D01*
X22438Y-332800D01*
Y-336900D01*
X19977D01*
Y-349900D01*
X28977D01*
Y-336900D01*
X26516D01*
Y-333645D01*
X32419Y-327742D01*
X32861Y-327080D01*
X33016Y-326300D01*
Y-269770D01*
X33478Y-269578D01*
X34300Y-270400D01*
X34977D01*
Y-308768D01*
X35019Y-308984D01*
X35056Y-309202D01*
X35066Y-309218D01*
X35070Y-309236D01*
X35192Y-309420D01*
X35309Y-309606D01*
X35324Y-309617D01*
X35335Y-309633D01*
X35518Y-309756D01*
X35697Y-309884D01*
X39585Y-311635D01*
X39577Y-312135D01*
X39331Y-312237D01*
X38195Y-313109D01*
X37323Y-314245D01*
X36775Y-315567D01*
X36588Y-316987D01*
Y-319924D01*
X47556D01*
Y-316987D01*
X47377Y-315626D01*
X47779Y-315328D01*
X54939Y-318554D01*
X59291Y-320515D01*
X59310Y-320520D01*
X59326Y-320530D01*
X59542Y-320573D01*
X59757Y-320623D01*
X59776Y-320620D01*
X59794Y-320623D01*
X78349D01*
X78368Y-320620D01*
X78386Y-320623D01*
X78601Y-320573D01*
X78817Y-320530D01*
X78833Y-320520D01*
X78851Y-320515D01*
X79310Y-320309D01*
X79310Y-320309D01*
X82746Y-318761D01*
X82925Y-318633D01*
X83108Y-318510D01*
X83119Y-318495D01*
X83134Y-318483D01*
X83251Y-318297D01*
X83373Y-318113D01*
X83377Y-318095D01*
X83387Y-318079D01*
X83424Y-317861D01*
X83467Y-317645D01*
Y-314414D01*
X83459Y-314374D01*
X83464Y-314334D01*
X83412Y-314142D01*
X83399Y-314072D01*
X84082Y-313790D01*
X85012Y-313076D01*
X85726Y-312146D01*
X86174Y-311062D01*
X86196Y-310900D01*
X81835D01*
Y-309901D01*
X80836D01*
Y-306907D01*
X80838Y-306904D01*
X80968Y-306715D01*
X80970Y-306706D01*
X80976Y-306698D01*
X81020Y-306473D01*
X81069Y-306249D01*
X81072Y-306047D01*
X81071Y-306042D01*
X81072Y-306037D01*
X81028Y-305808D01*
X80986Y-305577D01*
X80983Y-305573D01*
X80982Y-305568D01*
X80954Y-305525D01*
X80954Y-305525D01*
X80853Y-305372D01*
X80726Y-305176D01*
X80723Y-305173D01*
X80720Y-305169D01*
X80369Y-304813D01*
X80365Y-304810D01*
X80362Y-304806D01*
X80168Y-304677D01*
X79974Y-304545D01*
X79970Y-304544D01*
X79966Y-304541D01*
X79736Y-304496D01*
X79507Y-304448D01*
X79502Y-304449D01*
X79497Y-304448D01*
X73919D01*
X73874Y-304457D01*
X73820Y-304394D01*
X73686Y-304325D01*
X73563Y-304237D01*
X73387Y-304158D01*
Y-302279D01*
X73356Y-302122D01*
X73346Y-301962D01*
X73310Y-301890D01*
X73294Y-301811D01*
X73205Y-301678D01*
X73135Y-301534D01*
X73074Y-301481D01*
X73029Y-301414D01*
X72896Y-301325D01*
X72776Y-301220D01*
X72699Y-301193D01*
X72632Y-301149D01*
X72475Y-301117D01*
X72324Y-301066D01*
X72115Y-301039D01*
X71755Y-300890D01*
X71447Y-300653D01*
X71210Y-300345D01*
X71061Y-299985D01*
X71011Y-299600D01*
X71061Y-299215D01*
X71210Y-298855D01*
X71447Y-298547D01*
X71755Y-298310D01*
X72115Y-298162D01*
X72324Y-298134D01*
X72475Y-298082D01*
X72632Y-298051D01*
X72699Y-298007D01*
X72776Y-297980D01*
X72896Y-297875D01*
X73029Y-297786D01*
X73074Y-297719D01*
X73135Y-297666D01*
X73205Y-297522D01*
X73294Y-297389D01*
X73310Y-297310D01*
X73346Y-297238D01*
X73356Y-297078D01*
X73387Y-296921D01*
Y-236147D01*
X73849Y-235956D01*
X74747Y-236853D01*
X74747D01*
X74747Y-236853D01*
X77838Y-239945D01*
Y-258383D01*
X77738Y-258460D01*
X77257Y-259087D01*
X76954Y-259817D01*
X76851Y-260600D01*
X76954Y-261383D01*
X77257Y-262113D01*
X77738Y-262740D01*
X78364Y-263221D01*
X79094Y-263523D01*
X79877Y-263626D01*
X80660Y-263523D01*
X81390Y-263221D01*
X82017Y-262740D01*
X82498Y-262113D01*
X82800Y-261383D01*
X82903Y-260600D01*
X82800Y-259817D01*
X82498Y-259087D01*
X82017Y-258460D01*
X81916Y-258383D01*
Y-239100D01*
X81761Y-238320D01*
X81319Y-237658D01*
X77631Y-233969D01*
X77039Y-233378D01*
Y-229912D01*
X77455Y-229635D01*
X77966Y-229846D01*
X79077Y-229993D01*
X80188Y-229846D01*
X81223Y-229417D01*
X82112Y-228735D01*
X82795Y-227846D01*
X83224Y-226811D01*
X83370Y-225700D01*
X83224Y-224589D01*
X82795Y-223554D01*
X82112Y-222665D01*
X81223Y-221983D01*
X80188Y-221554D01*
X79077Y-221407D01*
X77966Y-221554D01*
X77455Y-221765D01*
X77039Y-221488D01*
Y-211245D01*
X77768Y-210515D01*
X78184Y-210793D01*
X77967Y-211317D01*
X77847Y-212230D01*
X77967Y-213144D01*
X78320Y-213995D01*
X78881Y-214726D01*
X79612Y-215288D01*
X80463Y-215640D01*
X80515Y-215647D01*
X82543Y-217676D01*
X83170Y-218157D01*
X83900Y-218459D01*
X83900Y-218459D01*
X83900Y-218459D01*
D01*
X83900Y-218459D01*
X83900Y-218459D01*
X84683Y-218562D01*
X102748D01*
Y-220800D01*
X102864Y-221385D01*
X103196Y-221881D01*
X104796Y-223481D01*
X105292Y-223813D01*
X105877Y-223929D01*
X114483D01*
Y-229133D01*
X114422Y-229224D01*
X114228Y-230200D01*
X114422Y-231175D01*
X114975Y-232002D01*
X115802Y-232555D01*
X116777Y-232749D01*
X117753Y-232555D01*
X118580Y-232002D01*
X119132Y-231175D01*
X119326Y-230200D01*
X119132Y-229224D01*
X119071Y-229133D01*
Y-223929D01*
X137277D01*
X137863Y-223813D01*
X138359Y-223481D01*
X140911Y-220929D01*
X159677D01*
X160263Y-220813D01*
X160759Y-220481D01*
X163159Y-218081D01*
X163490Y-217585D01*
X163607Y-217000D01*
Y-210500D01*
X163490Y-209915D01*
X163159Y-209419D01*
X162459Y-208719D01*
X161962Y-208387D01*
X161377Y-208271D01*
X122607D01*
X122290Y-207884D01*
X122326Y-207700D01*
X122132Y-206725D01*
X121714Y-206099D01*
Y-199250D01*
X122232Y-198476D01*
X122426Y-197500D01*
X122232Y-196525D01*
X121680Y-195698D01*
X120853Y-195145D01*
X119877Y-194951D01*
X118902Y-195145D01*
X118075Y-195698D01*
X117522Y-196525D01*
X117328Y-197500D01*
X117522Y-198476D01*
X117840Y-198951D01*
Y-206099D01*
X117527Y-206568D01*
X117027D01*
X116714Y-206099D01*
Y-195801D01*
X117132Y-195176D01*
X117326Y-194200D01*
X117132Y-193225D01*
X116580Y-192398D01*
X115753Y-191845D01*
X114777Y-191651D01*
X113802Y-191845D01*
X112975Y-192398D01*
X112422Y-193225D01*
X112228Y-194200D01*
X112422Y-195176D01*
X112840Y-195801D01*
Y-206099D01*
X112422Y-206725D01*
X112228Y-207700D01*
X112265Y-207884D01*
X111948Y-208271D01*
X105077D01*
X104492Y-208387D01*
X103996Y-208719D01*
X103196Y-209519D01*
X102864Y-210015D01*
X102748Y-210600D01*
Y-212510D01*
X85936D01*
X84794Y-211368D01*
X84787Y-211317D01*
X84434Y-210465D01*
X83873Y-209734D01*
X83142Y-209173D01*
X82330Y-208837D01*
Y-208837D01*
X82330D01*
X82291Y-208820D01*
Y-208820D01*
X82296Y-208739D01*
X98700D01*
X99480Y-208584D01*
X100142Y-208142D01*
X103142Y-205142D01*
X103584Y-204480D01*
X103739Y-203700D01*
X103739Y-203700D01*
X103739Y-203700D01*
Y-203700D01*
Y-183445D01*
X107245Y-179939D01*
X113357D01*
Y-186459D01*
X120294D01*
Y-178341D01*
X119065D01*
Y-176959D01*
X120494D01*
Y-168841D01*
X114174D01*
X112870Y-168253D01*
X112870Y-168253D01*
X111583Y-167674D01*
X111565Y-167669D01*
X111549Y-167659D01*
X111333Y-167616D01*
X111118Y-167566D01*
X111099Y-167569D01*
X111081Y-167566D01*
X85430D01*
Y-54400D01*
X85310Y-53486D01*
X84957Y-52635D01*
X84396Y-51904D01*
X66707Y-34215D01*
Y-19682D01*
X67067Y-19214D01*
X67515Y-18131D01*
X67668Y-16969D01*
Y-13032D01*
X67515Y-11869D01*
X67078Y-10814D01*
X69062Y-8830D01*
X88424D01*
Y-21421D01*
X97330D01*
Y-8830D01*
X100260D01*
X100421Y-9304D01*
X99701Y-9856D01*
X98988Y-10786D01*
X98539Y-11869D01*
X98386Y-13032D01*
Y-14000D01*
X107368D01*
Y-13032D01*
X107215Y-11869D01*
X106767Y-10786D01*
X106053Y-9856D01*
X105123Y-9142D01*
X105185Y-8830D01*
X110260D01*
X110421Y-9304D01*
X109702Y-9856D01*
X108988Y-10786D01*
X108539Y-11869D01*
X108386Y-13032D01*
Y-16969D01*
X108539Y-18131D01*
X108988Y-19214D01*
X109702Y-20144D01*
X110632Y-20858D01*
X110838Y-20944D01*
Y-28041D01*
X109932D01*
Y-36159D01*
X116868D01*
Y-28041D01*
X114916D01*
Y-20944D01*
X115123Y-20858D01*
X116053Y-20144D01*
X116767Y-19214D01*
X117215Y-18131D01*
X117368Y-16969D01*
Y-13032D01*
X117215Y-11869D01*
X116767Y-10786D01*
X116053Y-9856D01*
X115123Y-9142D01*
X115185Y-8830D01*
X118938D01*
X119347Y-9240D01*
Y-10318D01*
X118988Y-10786D01*
X118539Y-11869D01*
X118386Y-13032D01*
Y-16969D01*
X118539Y-18131D01*
X118988Y-19214D01*
X119702Y-20144D01*
X120632Y-20858D01*
X121715Y-21307D01*
X122877Y-21460D01*
X124040Y-21307D01*
X125123Y-20858D01*
X126053Y-20144D01*
X126767Y-19214D01*
X127215Y-18131D01*
X127368Y-16969D01*
Y-13032D01*
X127215Y-11869D01*
X126767Y-10786D01*
X126407Y-10318D01*
Y-7777D01*
X126287Y-6864D01*
X125934Y-6012D01*
X125373Y-5281D01*
X122896Y-2804D01*
X122165Y-2243D01*
X122206Y-2039D01*
X253565D01*
X253786Y-2488D01*
X253443Y-2935D01*
X253090Y-3786D01*
X252970Y-4700D01*
Y-24079D01*
X252529Y-24315D01*
X251975Y-23945D01*
X251000Y-23751D01*
X250025Y-23945D01*
X249198Y-24498D01*
X248645Y-25324D01*
X248451Y-26300D01*
X248250Y-26501D01*
X248000Y-26451D01*
X247024Y-26645D01*
X246198Y-27198D01*
X245645Y-28025D01*
X245604Y-28231D01*
X244114D01*
Y-20986D01*
X244423Y-20858D01*
X245353Y-20144D01*
X246067Y-19214D01*
X246515Y-18131D01*
X246668Y-16969D01*
Y-13032D01*
X246515Y-11869D01*
X246067Y-10786D01*
X245353Y-9856D01*
X244423Y-9142D01*
X243340Y-8693D01*
X242177Y-8540D01*
X241015Y-8693D01*
X239932Y-9142D01*
X239001Y-9856D01*
X238288Y-10786D01*
X237839Y-11869D01*
X237686Y-13032D01*
Y-16969D01*
X237839Y-18131D01*
X238288Y-19214D01*
X239001Y-20144D01*
X239932Y-20858D01*
X240240Y-20986D01*
Y-28231D01*
X238118D01*
Y-28860D01*
X237732Y-29177D01*
X237600Y-29151D01*
X236625Y-29345D01*
X235798Y-29898D01*
X235245Y-30724D01*
X235051Y-31700D01*
X235245Y-32675D01*
X235798Y-33502D01*
X236625Y-34055D01*
X237600Y-34249D01*
X237732Y-34223D01*
X238118Y-34540D01*
Y-35168D01*
X246063D01*
Y-36105D01*
X238118D01*
Y-36548D01*
X236606D01*
X236565Y-36517D01*
X235714Y-36164D01*
X234800Y-36044D01*
X233886Y-36164D01*
X233035Y-36517D01*
X232994Y-36548D01*
X226211D01*
Y-36105D01*
X218093D01*
Y-36548D01*
X206186D01*
Y-36105D01*
X198068D01*
Y-36548D01*
X186161D01*
Y-36105D01*
X178043D01*
Y-36548D01*
X166136D01*
Y-36105D01*
X158018D01*
Y-43042D01*
X166136D01*
Y-42600D01*
X178043D01*
Y-43042D01*
X179076D01*
Y-56192D01*
X179045Y-56233D01*
X178692Y-57084D01*
X178572Y-57998D01*
X178692Y-58912D01*
X179045Y-59763D01*
X179606Y-60494D01*
X180337Y-61055D01*
X181188Y-61408D01*
X182102Y-61528D01*
X183016Y-61408D01*
X183867Y-61055D01*
X184598Y-60494D01*
X185159Y-59763D01*
X185512Y-58912D01*
X185632Y-57998D01*
X185512Y-57084D01*
X185159Y-56233D01*
X185128Y-56192D01*
Y-43042D01*
X186161D01*
Y-42600D01*
X198068D01*
Y-43042D01*
X206186D01*
Y-42600D01*
X218093D01*
Y-43042D01*
X226211D01*
Y-42600D01*
X232994D01*
X233035Y-42631D01*
X233886Y-42984D01*
X234800Y-43104D01*
X235714Y-42984D01*
X236565Y-42631D01*
X236606Y-42600D01*
X238118D01*
Y-43042D01*
X246063D01*
Y-56698D01*
X236215Y-66545D01*
X235795Y-67174D01*
X235648Y-67915D01*
Y-74955D01*
X235397Y-75059D01*
X235125Y-75086D01*
X235070Y-75030D01*
X234441Y-74610D01*
X233700Y-74463D01*
X232200D01*
X231459Y-74610D01*
X230830Y-75030D01*
X230346Y-75515D01*
X229884Y-75323D01*
Y-66159D01*
X230096Y-65996D01*
X230657Y-65265D01*
X231010Y-64414D01*
X231130Y-63500D01*
X231010Y-62586D01*
X230657Y-61735D01*
X230096Y-61004D01*
X229365Y-60443D01*
X228514Y-60090D01*
X227600Y-59970D01*
X226686Y-60090D01*
X225835Y-60443D01*
X225104Y-61004D01*
X224543Y-61735D01*
X224190Y-62586D01*
X224070Y-63500D01*
X224190Y-64414D01*
X224543Y-65265D01*
X225104Y-65996D01*
X225601Y-66378D01*
Y-82958D01*
Y-90251D01*
X223100D01*
X222125Y-90445D01*
X221729Y-90710D01*
X213250D01*
Y-90709D01*
X213193Y-90710D01*
X212013Y-89529D01*
Y-85359D01*
X213442D01*
Y-77241D01*
X206505D01*
Y-85359D01*
X207935D01*
Y-90374D01*
X207935Y-90374D01*
X207935D01*
X208090Y-91154D01*
X208532Y-91816D01*
X210958Y-94242D01*
X211313Y-94479D01*
X211168Y-94958D01*
X203141D01*
Y-96763D01*
X202202D01*
X198502Y-93062D01*
X197924Y-92676D01*
Y-88798D01*
X193611D01*
Y-85159D01*
X195143D01*
Y-77041D01*
X188206D01*
Y-85159D01*
X189737D01*
Y-88798D01*
X185476D01*
Y-100066D01*
X197924D01*
Y-98617D01*
X198386Y-98426D01*
X200030Y-100070D01*
X200659Y-100490D01*
X201400Y-100637D01*
X203141D01*
Y-101894D01*
X211113D01*
X211304Y-102356D01*
X210829Y-102831D01*
X203141D01*
Y-104363D01*
X201200D01*
X200459Y-104510D01*
X199830Y-104930D01*
X198386Y-106374D01*
X197924Y-106183D01*
Y-105334D01*
X185476D01*
Y-116602D01*
X190037D01*
Y-118941D01*
X188505D01*
Y-127059D01*
X195443D01*
Y-118941D01*
X193911D01*
Y-116602D01*
X196018D01*
X196263Y-116900D01*
Y-129698D01*
X195905Y-130056D01*
X195443Y-129865D01*
Y-128141D01*
X188505D01*
Y-136259D01*
X188505D01*
Y-136341D01*
X188406Y-136441D01*
X188406D01*
Y-144559D01*
X195343D01*
Y-136441D01*
X195343D01*
Y-136359D01*
X195443Y-136259D01*
X195443D01*
Y-134337D01*
X196300D01*
X197041Y-134190D01*
X197122Y-134136D01*
X197563Y-134372D01*
Y-146898D01*
X193898Y-150563D01*
X183930D01*
X183739Y-150101D01*
X185770Y-148070D01*
X186190Y-147441D01*
X186337Y-146700D01*
Y-144559D01*
X187469D01*
Y-136613D01*
X187469D01*
D01*
D01*
Y-136613D01*
D01*
X187568Y-136259D01*
Y-136259D01*
X187568Y-136087D01*
X187568Y-136087D01*
X187568D01*
Y-133200D01*
X180631D01*
Y-136087D01*
X180631Y-136087D01*
X180631D01*
X180631Y-136259D01*
Y-136341D01*
X180532Y-136441D01*
X180532D01*
Y-144559D01*
X182463D01*
Y-145898D01*
X181198Y-147163D01*
X166802D01*
X164014Y-144375D01*
Y-127417D01*
X164323Y-127289D01*
X165253Y-126576D01*
X165967Y-125646D01*
X166094Y-125337D01*
X169800D01*
X170541Y-125190D01*
X171170Y-124770D01*
X171170Y-124770D01*
X171170Y-124770D01*
X173870Y-122070D01*
X174290Y-121441D01*
X174437Y-120700D01*
X174437Y-120700D01*
X174437Y-120700D01*
Y-120700D01*
Y-60925D01*
X174996Y-60496D01*
X175557Y-59765D01*
X175910Y-58914D01*
X176030Y-58000D01*
X175910Y-57086D01*
X175557Y-56235D01*
X174996Y-55504D01*
X174265Y-54943D01*
X173414Y-54590D01*
X172500Y-54470D01*
X171586Y-54590D01*
X170735Y-54943D01*
X170004Y-55504D01*
X169443Y-56235D01*
X169090Y-57086D01*
X168970Y-58000D01*
X169090Y-58914D01*
X169443Y-59765D01*
X170004Y-60496D01*
X170563Y-60925D01*
Y-119898D01*
X168998Y-121463D01*
X166094D01*
X165967Y-121154D01*
X165253Y-120224D01*
X164323Y-119510D01*
X163240Y-119062D01*
X162077Y-118909D01*
X160915Y-119062D01*
X159832Y-119510D01*
X158902Y-120224D01*
X158188Y-121154D01*
X157739Y-122238D01*
X157586Y-123400D01*
X157739Y-124562D01*
X158188Y-125646D01*
X158902Y-126576D01*
X159832Y-127289D01*
X160140Y-127417D01*
Y-145177D01*
X160140Y-145177D01*
X160140D01*
X160287Y-145919D01*
X160707Y-146547D01*
X164261Y-150101D01*
X164070Y-150563D01*
X129100D01*
X128359Y-150710D01*
X127730Y-151130D01*
X123530Y-155330D01*
X123110Y-155959D01*
X122963Y-156700D01*
Y-168841D01*
X121432D01*
Y-176959D01*
X128368D01*
Y-168841D01*
X126837D01*
Y-157502D01*
X129902Y-154437D01*
X140604D01*
X140796Y-154899D01*
X140430Y-155265D01*
X140010Y-155893D01*
X139863Y-156635D01*
Y-168841D01*
X138531D01*
Y-176959D01*
X145468D01*
Y-168841D01*
X143737D01*
Y-157437D01*
X144837Y-156337D01*
X195500D01*
X196241Y-156190D01*
X196870Y-155770D01*
X202370Y-150270D01*
X202790Y-149641D01*
X202937Y-148900D01*
Y-120202D01*
X203679Y-119461D01*
X204141Y-119652D01*
Y-122895D01*
X210463D01*
Y-123831D01*
X209200D01*
Y-127301D01*
Y-130769D01*
X210463D01*
Y-131399D01*
X210045Y-132025D01*
X209851Y-133000D01*
X210045Y-133976D01*
X210598Y-134802D01*
X211424Y-135355D01*
X212400Y-135549D01*
X213375Y-135355D01*
X213750Y-135105D01*
X214424Y-135555D01*
X215400Y-135749D01*
X216375Y-135555D01*
X217202Y-135002D01*
X217755Y-134176D01*
X217949Y-133200D01*
X217755Y-132225D01*
X217337Y-131599D01*
Y-127302D01*
X219270Y-125370D01*
X219690Y-124741D01*
X219746Y-124459D01*
X220459D01*
X221275Y-124297D01*
X221966Y-123835D01*
X222428Y-123143D01*
X222591Y-122328D01*
X222428Y-121512D01*
X222378Y-121436D01*
X222652Y-121025D01*
X222659Y-121021D01*
X222800Y-121049D01*
X223776Y-120855D01*
X224602Y-120302D01*
X225155Y-119475D01*
X225349Y-118500D01*
X225381Y-118461D01*
X227454D01*
X227771Y-118848D01*
X227761Y-118900D01*
Y-121500D01*
X227916Y-122280D01*
X227993Y-122396D01*
X227971Y-122506D01*
X227816Y-122879D01*
X227159Y-123010D01*
X226530Y-123430D01*
X226110Y-124059D01*
X225963Y-124800D01*
X226110Y-125541D01*
X226530Y-126170D01*
X227449Y-127088D01*
X227304Y-127567D01*
X226927Y-127642D01*
X226235Y-128104D01*
X225773Y-128795D01*
X225611Y-129611D01*
Y-130233D01*
X225030D01*
X224289Y-130380D01*
X223660Y-130800D01*
X214430Y-140030D01*
X214010Y-140659D01*
X213863Y-141400D01*
Y-141499D01*
X213445Y-142124D01*
X213251Y-143100D01*
X213445Y-144076D01*
X213476Y-144122D01*
X213285Y-144584D01*
X212620Y-144716D01*
X211958Y-145158D01*
X211958Y-145158D01*
X197662Y-159454D01*
X192773D01*
Y-158615D01*
X186427D01*
D01*
D01*
X186427Y-158615D01*
X186373D01*
Y-158615D01*
X180027D01*
Y-164167D01*
X180027Y-164167D01*
X180027D01*
X180027Y-164371D01*
Y-164521D01*
D01*
D01*
D01*
X180027D01*
D01*
Y-170277D01*
X181263D01*
Y-175898D01*
X180845Y-176523D01*
X180651Y-177499D01*
X180845Y-178474D01*
X181398Y-179301D01*
X182225Y-179854D01*
X183200Y-180048D01*
X184176Y-179854D01*
X185002Y-179301D01*
X185555Y-178474D01*
X185749Y-177499D01*
X185555Y-176523D01*
X185137Y-175898D01*
Y-170277D01*
X186373D01*
Y-170277D01*
X186427D01*
X186727Y-170277D01*
X186727Y-170277D01*
Y-170277D01*
X192773D01*
Y-170174D01*
X193160Y-169857D01*
X193618Y-169948D01*
X194593Y-169754D01*
X195420Y-169201D01*
X195973Y-168374D01*
X196167Y-167399D01*
X195973Y-166423D01*
X195420Y-165596D01*
X194593Y-165044D01*
X193618Y-164850D01*
X193160Y-164941D01*
X192773Y-164624D01*
Y-164521D01*
Y-164446D01*
Y-164371D01*
X192773Y-164167D01*
X192773Y-164167D01*
X192773D01*
Y-163532D01*
X198507D01*
X199287Y-163377D01*
X199949Y-162935D01*
X214245Y-148639D01*
X218928D01*
X219709Y-148484D01*
X220370Y-148042D01*
X221618Y-146794D01*
X229659D01*
Y-141014D01*
X229951D01*
X230732Y-140859D01*
X231393Y-140417D01*
X233121Y-138688D01*
X233563Y-138027D01*
X233719Y-137247D01*
X233719Y-137247D01*
X233719Y-137247D01*
Y-137246D01*
Y-136847D01*
X234464Y-136698D01*
X234632Y-136586D01*
X234801Y-136698D01*
X235617Y-136861D01*
X236432Y-136698D01*
X236601Y-136586D01*
X236769Y-136698D01*
X237585Y-136861D01*
X237616Y-136886D01*
Y-141446D01*
X237199Y-142071D01*
X237005Y-143046D01*
X237199Y-144022D01*
X237751Y-144849D01*
X238578Y-145401D01*
X239554Y-145595D01*
X240529Y-145401D01*
X241356Y-144849D01*
X241909Y-144022D01*
X242103Y-143046D01*
X241909Y-142071D01*
X241491Y-141446D01*
Y-139575D01*
X241522Y-139549D01*
X242497Y-139355D01*
X242925Y-139070D01*
X243278Y-139423D01*
X243104Y-139684D01*
X242910Y-140659D01*
X243104Y-141635D01*
X243657Y-142462D01*
X244484Y-143014D01*
X245459Y-143208D01*
X246434Y-143014D01*
X247122Y-142555D01*
X247546Y-142781D01*
X247472Y-143276D01*
X247125Y-143345D01*
X246298Y-143898D01*
X245745Y-144725D01*
X245551Y-145700D01*
X245745Y-146676D01*
X246298Y-147502D01*
X247125Y-148055D01*
X248100Y-148249D01*
X249075Y-148055D01*
D01*
Y-148055D01*
X249463Y-148372D01*
Y-155650D01*
X248945Y-156424D01*
X248751Y-157400D01*
X248945Y-158376D01*
X249498Y-159202D01*
X250325Y-159755D01*
X251300Y-159949D01*
X252275Y-159755D01*
X253102Y-159202D01*
X253655Y-158376D01*
X253849Y-157400D01*
X253742Y-156861D01*
X254275Y-156755D01*
X255102Y-156202D01*
X255655Y-155376D01*
X255849Y-154400D01*
X255655Y-153425D01*
X255270Y-152849D01*
Y-141206D01*
X255657Y-140889D01*
X255900Y-140937D01*
X256641Y-140790D01*
X257270Y-140370D01*
X257690Y-139741D01*
X257837Y-139000D01*
X257690Y-138259D01*
X257270Y-137630D01*
X257239Y-137599D01*
Y-136886D01*
X257270Y-136861D01*
X258086Y-136698D01*
X258777Y-136236D01*
X259239Y-135545D01*
X259402Y-134729D01*
Y-130492D01*
X259747Y-129975D01*
X259941Y-129000D01*
Y-120992D01*
X259747Y-120017D01*
X259195Y-119190D01*
X255802Y-115798D01*
X254976Y-115245D01*
X254000Y-115051D01*
X238156D01*
X237349Y-114244D01*
Y-98700D01*
X237155Y-97724D01*
X236602Y-96898D01*
X235344Y-95639D01*
X236145Y-94839D01*
X258963D01*
X259083Y-95441D01*
X259503Y-96070D01*
X259571Y-96138D01*
X260200Y-96558D01*
X260941Y-96706D01*
X262396D01*
X262422Y-96737D01*
X262584Y-97553D01*
X262697Y-97721D01*
X262584Y-97890D01*
X262422Y-98706D01*
X262584Y-99521D01*
X262697Y-99690D01*
X262584Y-99858D01*
X262422Y-100674D01*
X262584Y-101490D01*
X262697Y-101658D01*
X262584Y-101827D01*
X262422Y-102643D01*
X262584Y-103458D01*
X262697Y-103627D01*
X262584Y-103795D01*
X262422Y-104611D01*
X262584Y-105427D01*
X262697Y-105595D01*
X262584Y-105764D01*
X262422Y-106579D01*
X262584Y-107395D01*
X262697Y-107564D01*
X262584Y-107732D01*
X262422Y-108548D01*
X262584Y-109364D01*
X262697Y-109532D01*
X262584Y-109701D01*
X262422Y-110517D01*
X262584Y-111332D01*
X262697Y-111501D01*
X262584Y-111669D01*
X262422Y-112485D01*
X262584Y-113301D01*
X262697Y-113469D01*
X262584Y-113638D01*
X262422Y-114453D01*
X262584Y-115269D01*
X262697Y-115438D01*
X262584Y-115606D01*
X262422Y-116422D01*
X262584Y-117238D01*
X262697Y-117406D01*
X262584Y-117575D01*
X262422Y-118391D01*
X262584Y-119206D01*
X262697Y-119375D01*
X262584Y-119543D01*
X262422Y-120359D01*
X262584Y-121175D01*
X262697Y-121343D01*
X262584Y-121512D01*
X262422Y-122328D01*
X262584Y-123143D01*
X263046Y-123835D01*
X263738Y-124297D01*
X264554Y-124459D01*
X265175D01*
Y-167481D01*
X264745Y-168124D01*
X264551Y-169100D01*
X264745Y-170076D01*
X265298Y-170902D01*
X266125Y-171455D01*
X267100Y-171649D01*
X268075Y-171455D01*
X268902Y-170902D01*
X269455Y-170076D01*
X269649Y-169100D01*
X269455Y-168124D01*
X269050Y-167518D01*
Y-124459D01*
X269672D01*
X270476Y-124299D01*
X270863Y-124616D01*
Y-164699D01*
X270445Y-165324D01*
X270251Y-166300D01*
X270445Y-167276D01*
X270998Y-168102D01*
X271825Y-168655D01*
X272800Y-168849D01*
X273776Y-168655D01*
X274602Y-168102D01*
X275155Y-167276D01*
X275349Y-166300D01*
X275155Y-165324D01*
X274737Y-164699D01*
Y-122200D01*
X274737Y-122200D01*
X274737Y-122200D01*
Y-122200D01*
X274737D01*
X274737Y-122200D01*
X274590Y-121459D01*
X274467Y-121274D01*
X274691Y-120940D01*
X275666Y-120746D01*
X276493Y-120193D01*
X276545Y-120115D01*
X277045D01*
X277098Y-120193D01*
X277924Y-120746D01*
X278900Y-120940D01*
X279875Y-120746D01*
X280702Y-120193D01*
X281255Y-119366D01*
X281449Y-118391D01*
X281255Y-117415D01*
X280702Y-116588D01*
X279875Y-116036D01*
X279138Y-115889D01*
X278301Y-115052D01*
X277673Y-114632D01*
X276932Y-114485D01*
X271829D01*
X271803Y-114453D01*
X271641Y-113638D01*
X271528Y-113469D01*
X271641Y-113301D01*
X271803Y-112485D01*
X271641Y-111669D01*
X271528Y-111501D01*
X271641Y-111332D01*
X271803Y-110517D01*
X271641Y-109701D01*
X271528Y-109532D01*
X271641Y-109364D01*
X271693Y-109100D01*
X272155Y-108909D01*
X272224Y-108955D01*
X273200Y-109149D01*
X274176Y-108955D01*
X275002Y-108402D01*
X275555Y-107576D01*
X275749Y-106600D01*
X275792Y-106548D01*
X276589D01*
X277194Y-106428D01*
X277300Y-106449D01*
X278275Y-106255D01*
X279102Y-105702D01*
X279655Y-104876D01*
X279849Y-103900D01*
X279814Y-103724D01*
X280131Y-103337D01*
X280899D01*
X281524Y-103755D01*
X282500Y-103949D01*
X283475Y-103755D01*
X283820Y-103525D01*
X284261Y-103761D01*
Y-161452D01*
X283945Y-161925D01*
X283751Y-162900D01*
X283945Y-163875D01*
X284498Y-164702D01*
X285325Y-165255D01*
X286300Y-165449D01*
X286576Y-165394D01*
X286963Y-165711D01*
Y-173399D01*
X286545Y-174024D01*
X286351Y-175000D01*
X286545Y-175976D01*
X287098Y-176802D01*
X287925Y-177355D01*
X288900Y-177549D01*
X289876Y-177355D01*
X290702Y-176802D01*
X291255Y-175976D01*
X291449Y-175000D01*
X291255Y-174024D01*
X290837Y-173399D01*
Y-107976D01*
X291316Y-107831D01*
X291698Y-108402D01*
X292525Y-108955D01*
X293500Y-109149D01*
X294476Y-108955D01*
X295302Y-108402D01*
X295855Y-107576D01*
X296049Y-106600D01*
X295855Y-105624D01*
X295437Y-104999D01*
Y-104172D01*
X295825Y-103855D01*
Y-103855D01*
D01*
X296800Y-104049D01*
X297776Y-103855D01*
X297797Y-103840D01*
X298288Y-103938D01*
X298398Y-104102D01*
X299224Y-104655D01*
X300200Y-104849D01*
X301175Y-104655D01*
X302002Y-104102D01*
X302555Y-103276D01*
X302749Y-102300D01*
X302555Y-101324D01*
X302137Y-100699D01*
Y-59919D01*
X302444Y-59792D01*
X302611Y-59735D01*
X303164Y-60457D01*
X303204Y-60496D01*
X303204Y-60496D01*
X303935Y-61057D01*
D01*
D01*
Y-61057D01*
X303935Y-61057D01*
D01*
D01*
X303935D01*
Y-61057D01*
D01*
X303935D01*
Y-61057D01*
X304786Y-61410D01*
X305700Y-61530D01*
X306614Y-61410D01*
X307465Y-61057D01*
X308196Y-60496D01*
X308757Y-59765D01*
X309110Y-58914D01*
X309230Y-58000D01*
X309191Y-57701D01*
Y-56500D01*
X309661D01*
Y-47500D01*
Y-46530D01*
X311761D01*
Y-47600D01*
Y-56600D01*
X319761D01*
Y-55126D01*
X322800D01*
X323583Y-55023D01*
X324099Y-54809D01*
X324313Y-54720D01*
X324940Y-54240D01*
X326900Y-52279D01*
X327381Y-51652D01*
X327683Y-50923D01*
X327786Y-50139D01*
Y-46231D01*
X333361D01*
Y-49500D01*
X333361Y-49500D01*
X333361D01*
X333516Y-50280D01*
X333958Y-50942D01*
X335138Y-52122D01*
X335800Y-52564D01*
X336580Y-52719D01*
X338031D01*
X338481Y-53020D01*
X339450Y-53213D01*
X341025D01*
X341995Y-53020D01*
X342617Y-52604D01*
X342818Y-52564D01*
X343480Y-52122D01*
X343922Y-51461D01*
X344077Y-50680D01*
X343922Y-49900D01*
X343480Y-49238D01*
X342818Y-48796D01*
X342807Y-48738D01*
X342816Y-48731D01*
X343345Y-47940D01*
X340237D01*
Y-46231D01*
X341016Y-46128D01*
X341470Y-45940D01*
X343345D01*
X343360Y-45963D01*
X343510Y-45684D01*
X343510D01*
X343510Y-45684D01*
Y-44789D01*
X343880Y-44542D01*
X344322Y-43880D01*
X344477Y-43100D01*
X344322Y-42320D01*
X343880Y-41658D01*
X343510Y-41411D01*
Y-40716D01*
X343510Y-40716D01*
X343510D01*
X343503Y-40701D01*
X343856Y-40349D01*
X350059D01*
X350219Y-40822D01*
X349909Y-41060D01*
X349822Y-41174D01*
X349470Y-41409D01*
X348921Y-42231D01*
X348728Y-43200D01*
X348921Y-44169D01*
X349470Y-44991D01*
X349822Y-45226D01*
X349909Y-45340D01*
X350536Y-45821D01*
X351266Y-46123D01*
X352049Y-46226D01*
X357665D01*
Y-48100D01*
X364011D01*
Y-46222D01*
D01*
Y-46222D01*
X364013Y-46220D01*
X364534D01*
X364887Y-46574D01*
Y-48100D01*
X371234D01*
Y-46574D01*
X371234Y-46574D01*
D01*
D01*
X371234Y-46222D01*
D01*
X371236Y-46220D01*
X372247D01*
X374074Y-48048D01*
Y-54047D01*
X365960Y-62160D01*
X365479Y-62787D01*
X365391Y-63001D01*
X365177Y-63517D01*
X365074Y-64300D01*
Y-66809D01*
X364924Y-66924D01*
X364211Y-67854D01*
X363762Y-68938D01*
X363609Y-70100D01*
X363762Y-71262D01*
X364211Y-72346D01*
X364924Y-73276D01*
X365854Y-73989D01*
X366938Y-74438D01*
X368100Y-74591D01*
X369262Y-74438D01*
X370346Y-73989D01*
X371276Y-73276D01*
X371989Y-72346D01*
X372438Y-71262D01*
X372591Y-70100D01*
X372438Y-68938D01*
X371989Y-67854D01*
X371276Y-66924D01*
X371126Y-66809D01*
Y-65553D01*
X379240Y-57440D01*
X379720Y-56813D01*
X379809Y-56599D01*
X380023Y-56083D01*
X380126Y-55300D01*
Y-46794D01*
X380023Y-46011D01*
X379720Y-45281D01*
X379240Y-44655D01*
X375640Y-41055D01*
X375013Y-40574D01*
X374799Y-40485D01*
X374283Y-40272D01*
X373500Y-40168D01*
X371126D01*
Y-35353D01*
X372123Y-34356D01*
X372604Y-33730D01*
X372906Y-33000D01*
X373009Y-32217D01*
X373009Y-32217D01*
X373009Y-32217D01*
Y-32217D01*
Y-7600D01*
X372906Y-6817D01*
X372604Y-6087D01*
X372395Y-5815D01*
X372123Y-5460D01*
X372123Y-5460D01*
X369164Y-2501D01*
X369355Y-2039D01*
X391662D01*
Y-165871D01*
D02*
G37*
G36*
X341277Y-298700D02*
X348177D01*
Y-330400D01*
X348144Y-346700D01*
X324977D01*
Y-325000D01*
X327577Y-322400D01*
Y-290400D01*
X341277D01*
Y-298700D01*
D02*
G37*
G36*
X223100Y-95349D02*
X227844D01*
X228326Y-95831D01*
X229048Y-96552D01*
X230298Y-97802D01*
X230328Y-97822D01*
X230348Y-97852D01*
X232251Y-99756D01*
Y-113662D01*
X231958Y-113858D01*
X231433Y-114383D01*
X227858D01*
X227623Y-113942D01*
X227690Y-113841D01*
X227837Y-113100D01*
X227690Y-112359D01*
X227270Y-111730D01*
X226641Y-111310D01*
X225900Y-111163D01*
X225159Y-111310D01*
X224530Y-111730D01*
X223744Y-112516D01*
X222616D01*
X222591Y-112485D01*
X222428Y-111669D01*
X222316Y-111501D01*
X222428Y-111332D01*
X222591Y-110517D01*
X222428Y-109701D01*
X222316Y-109532D01*
X222428Y-109364D01*
X222591Y-108548D01*
X222428Y-107732D01*
X222316Y-107564D01*
X222428Y-107395D01*
X222591Y-106579D01*
X222428Y-105764D01*
X222316Y-105595D01*
X222428Y-105427D01*
X222591Y-104611D01*
X222428Y-103795D01*
X222316Y-103627D01*
X222428Y-103458D01*
X222591Y-102643D01*
X222428Y-101827D01*
X222316Y-101658D01*
X222428Y-101490D01*
X222591Y-100674D01*
X222616Y-100643D01*
X223808D01*
X224425Y-101055D01*
X225400Y-101249D01*
X226376Y-101055D01*
X227202Y-100502D01*
X227755Y-99676D01*
X227949Y-98700D01*
X227755Y-97724D01*
X227202Y-96898D01*
X226376Y-96345D01*
X225400Y-96151D01*
X224425Y-96345D01*
X223791Y-96768D01*
X222616D01*
X222591Y-96737D01*
X222428Y-95921D01*
X222316Y-95753D01*
X222428Y-95584D01*
X222430Y-95576D01*
X222846Y-95298D01*
X223100Y-95349D01*
D02*
G37*
G36*
X112367Y-169369D02*
X113857Y-170040D01*
Y-176167D01*
X106400D01*
X105737Y-176299D01*
X105174Y-176674D01*
X100474Y-181374D01*
X100099Y-181937D01*
X99967Y-182600D01*
Y-192446D01*
X99468Y-192478D01*
X99431Y-192195D01*
X99159Y-191538D01*
X98726Y-190974D01*
X98162Y-190542D01*
X97505Y-190269D01*
X96800Y-190177D01*
X96095Y-190269D01*
X95438Y-190542D01*
X94874Y-190974D01*
X94441Y-191538D01*
X94169Y-192195D01*
X94077Y-192900D01*
X94169Y-193605D01*
X94441Y-194262D01*
X94874Y-194826D01*
X95438Y-195258D01*
X96095Y-195530D01*
X96800Y-195623D01*
X97505Y-195530D01*
X98162Y-195258D01*
X98726Y-194826D01*
X99159Y-194262D01*
X99431Y-193605D01*
X99468Y-193322D01*
X99967Y-193354D01*
Y-199973D01*
X73997D01*
X72622Y-200592D01*
X72164Y-200799D01*
Y-204308D01*
Y-296921D01*
X71795Y-296970D01*
X71138Y-297242D01*
X70574Y-297674D01*
X70142Y-298238D01*
X69870Y-298895D01*
X69777Y-299600D01*
X69870Y-300305D01*
X70142Y-300962D01*
X70574Y-301526D01*
X71138Y-301958D01*
X71795Y-302231D01*
X72164Y-302279D01*
Y-304949D01*
X73060Y-305353D01*
X72923Y-305834D01*
X71994Y-305711D01*
X70910Y-305854D01*
X69899Y-306273D01*
X69032Y-306938D01*
X68366Y-307806D01*
X68307Y-307950D01*
X67807D01*
X67747Y-307806D01*
X67081Y-306938D01*
X66214Y-306273D01*
X65204Y-305854D01*
X64120Y-305711D01*
X63036Y-305854D01*
X62025Y-306273D01*
X61158Y-306938D01*
X60492Y-307806D01*
X60074Y-308816D01*
X59931Y-309900D01*
X60074Y-310984D01*
X60492Y-311994D01*
X61158Y-312862D01*
X62025Y-313527D01*
X63036Y-313946D01*
X64120Y-314089D01*
X65204Y-313946D01*
X66214Y-313527D01*
X67081Y-312862D01*
X67747Y-311994D01*
X67807Y-311850D01*
X68307D01*
X68366Y-311994D01*
X69032Y-312862D01*
X69899Y-313527D01*
X70910Y-313946D01*
X71994Y-314089D01*
X73078Y-313946D01*
X74088Y-313527D01*
X74955Y-312862D01*
X75621Y-311994D01*
X76040Y-310984D01*
X76182Y-309900D01*
X76040Y-308816D01*
X75621Y-307806D01*
X74955Y-306938D01*
X74088Y-306273D01*
X73821Y-306162D01*
X73919Y-305672D01*
X79497D01*
X79848Y-306028D01*
X79845Y-306230D01*
X79742Y-306273D01*
X78874Y-306938D01*
X78209Y-307806D01*
X77790Y-308816D01*
X77648Y-309900D01*
X77790Y-310984D01*
X78209Y-311994D01*
X78874Y-312862D01*
X79742Y-313527D01*
X80752Y-313946D01*
X81836Y-314089D01*
X81867Y-314085D01*
X82243Y-314414D01*
Y-317645D01*
X78807Y-319194D01*
X78349Y-319400D01*
X59794D01*
X55442Y-317439D01*
X44923Y-312699D01*
X44663Y-312499D01*
X43413Y-311982D01*
X43298Y-311967D01*
X36200Y-308768D01*
Y-270400D01*
X40600D01*
X42400Y-268600D01*
Y-262400D01*
X41100Y-261100D01*
X36200D01*
Y-210900D01*
X44677D01*
X46977Y-208600D01*
Y-199200D01*
Y-168789D01*
X78393D01*
X78584Y-169251D01*
X73865Y-173971D01*
X70885D01*
Y-171077D01*
X64780D01*
Y-177199D01*
Y-183320D01*
X70885D01*
Y-180426D01*
X75202D01*
X76037Y-180316D01*
X76815Y-179994D01*
X77484Y-179481D01*
X77484Y-179481D01*
X77484Y-179481D01*
X84182Y-172782D01*
X84695Y-172114D01*
X85018Y-171335D01*
X85018Y-171335D01*
X85018Y-171335D01*
X85128Y-170500D01*
Y-168789D01*
X111081D01*
X112367Y-169369D01*
D02*
G37*
G36*
X269477Y-275200D02*
Y-281900D01*
X268977Y-282400D01*
X255577D01*
Y-274900D01*
X269177D01*
X269477Y-275200D01*
D02*
G37*
G36*
X245277Y-228700D02*
Y-275900D01*
X244377Y-276800D01*
X230477D01*
Y-309000D01*
X251377Y-329900D01*
Y-338200D01*
X249277Y-340300D01*
X237977D01*
X236177Y-338500D01*
Y-326400D01*
X222877Y-313100D01*
Y-236700D01*
X220177D01*
X219377Y-235900D01*
Y-227700D01*
X219877Y-227200D01*
X243777D01*
X245277Y-228700D01*
D02*
G37*
%LPC*%
G36*
X64764Y-202229D02*
X62795D01*
X61595Y-202347D01*
X60441Y-202697D01*
X59378Y-203265D01*
X58446Y-204030D01*
X57681Y-204962D01*
X57113Y-206026D01*
X56763Y-207180D01*
X56644Y-208380D01*
X56763Y-209580D01*
X57113Y-210734D01*
X57681Y-211797D01*
X58446Y-212729D01*
X59378Y-213494D01*
X60441Y-214062D01*
X61595Y-214412D01*
X62795Y-214530D01*
X64764D01*
X65964Y-214412D01*
X67118Y-214062D01*
X68181Y-213494D01*
X69113Y-212729D01*
X69878Y-211797D01*
X70446Y-210734D01*
X70797Y-209580D01*
X70915Y-208380D01*
X70797Y-207180D01*
X70446Y-206026D01*
X69878Y-204962D01*
X69113Y-204030D01*
X68181Y-203265D01*
X67118Y-202697D01*
X65964Y-202347D01*
X64764Y-202229D01*
D02*
G37*
G36*
X237672Y-170241D02*
X230735D01*
Y-178359D01*
Y-186433D01*
X232266D01*
Y-195745D01*
X231745Y-196525D01*
X231551Y-197500D01*
X231745Y-198476D01*
X232298Y-199302D01*
X233125Y-199855D01*
X234100Y-200049D01*
X235075Y-199855D01*
X235902Y-199302D01*
X236455Y-198476D01*
X236649Y-197500D01*
X236455Y-196525D01*
X236140Y-196054D01*
Y-186433D01*
X237672D01*
Y-178359D01*
Y-170241D01*
D02*
G37*
G36*
X62780Y-193789D02*
X56743D01*
X56763Y-193989D01*
X57113Y-195143D01*
X57681Y-196206D01*
X58446Y-197138D01*
X59378Y-197903D01*
X60441Y-198472D01*
X61595Y-198822D01*
X62780Y-198938D01*
Y-193789D01*
D02*
G37*
G36*
X70816D02*
X64780D01*
Y-198938D01*
X65964Y-198822D01*
X67118Y-198472D01*
X68181Y-197903D01*
X69113Y-197138D01*
X69878Y-196206D01*
X70446Y-195143D01*
X70797Y-193989D01*
X70816Y-193789D01*
D02*
G37*
G36*
X332477Y-208451D02*
X316077D01*
X315102Y-208645D01*
X314275Y-209198D01*
X313722Y-210024D01*
X313528Y-211000D01*
X313722Y-211976D01*
X314275Y-212802D01*
X315102Y-213355D01*
X316077Y-213549D01*
X332477D01*
X333453Y-213355D01*
X334280Y-212802D01*
X334832Y-211976D01*
X335026Y-211000D01*
X334832Y-210024D01*
X334280Y-209198D01*
X333453Y-208645D01*
X332477Y-208451D01*
D02*
G37*
G36*
X194477Y-206151D02*
X193502Y-206345D01*
X192675Y-206898D01*
X192122Y-207724D01*
X191928Y-208700D01*
X192122Y-209676D01*
X192540Y-210301D01*
Y-211268D01*
X192154Y-211585D01*
X191477Y-211451D01*
X190502Y-211645D01*
X189675Y-212198D01*
X189122Y-213024D01*
X188928Y-214000D01*
X189122Y-214976D01*
X189438Y-215448D01*
Y-225802D01*
X189222Y-226125D01*
X189028Y-227100D01*
X189222Y-228076D01*
X189775Y-228902D01*
X190602Y-229455D01*
X191577Y-229649D01*
X192154Y-229534D01*
X192540Y-229852D01*
Y-231099D01*
X192122Y-231725D01*
X191928Y-232700D01*
X192122Y-233676D01*
X192675Y-234502D01*
X193502Y-235055D01*
X194477Y-235249D01*
X195453Y-235055D01*
X196280Y-234502D01*
X196832Y-233676D01*
X197026Y-232700D01*
X196832Y-231725D01*
X196414Y-231099D01*
Y-210301D01*
X196832Y-209676D01*
X197026Y-208700D01*
X196832Y-207724D01*
X196280Y-206898D01*
X195453Y-206345D01*
X194477Y-206151D01*
D02*
G37*
G36*
X153343Y-168841D02*
X146405D01*
Y-176959D01*
X147937D01*
Y-177841D01*
X147005D01*
Y-185959D01*
X148163D01*
Y-192600D01*
Y-196500D01*
Y-201499D01*
X147745Y-202125D01*
X147551Y-203100D01*
X147745Y-204076D01*
X148298Y-204902D01*
X149125Y-205455D01*
X150100Y-205649D01*
X151075Y-205455D01*
X151902Y-204902D01*
X152455Y-204076D01*
X152649Y-203100D01*
X152455Y-202125D01*
X152037Y-201499D01*
Y-196500D01*
Y-185959D01*
X153943D01*
Y-177841D01*
X151811D01*
Y-176959D01*
X153343D01*
Y-168841D01*
D02*
G37*
G36*
X327992Y-246836D02*
X322177D01*
Y-249305D01*
X327992D01*
Y-246836D01*
D02*
G37*
G36*
X64764Y-233410D02*
X62795D01*
X61595Y-233528D01*
X60441Y-233878D01*
X59378Y-234447D01*
X58446Y-235211D01*
X57681Y-236144D01*
X57113Y-237207D01*
X56763Y-238361D01*
X56644Y-239561D01*
X56763Y-240761D01*
X57113Y-241915D01*
X57681Y-242978D01*
X58446Y-243910D01*
X59378Y-244675D01*
X60441Y-245244D01*
X61595Y-245594D01*
X62795Y-245712D01*
X64764D01*
X65964Y-245594D01*
X67118Y-245244D01*
X68181Y-244675D01*
X69113Y-243910D01*
X69878Y-242978D01*
X70446Y-241915D01*
X70797Y-240761D01*
X70915Y-239561D01*
X70797Y-238361D01*
X70446Y-237207D01*
X69878Y-236144D01*
X69113Y-235211D01*
X68181Y-234447D01*
X67118Y-233878D01*
X65964Y-233528D01*
X64764Y-233410D01*
D02*
G37*
G36*
X151177Y-229395D02*
X145362D01*
Y-231864D01*
X147334D01*
X147570Y-232305D01*
X147022Y-233124D01*
X146828Y-234100D01*
X147022Y-235075D01*
X147440Y-235701D01*
Y-243671D01*
X104814D01*
Y-233901D01*
X105232Y-233276D01*
X105426Y-232300D01*
X105232Y-231325D01*
X104680Y-230498D01*
X103853Y-229945D01*
X102877Y-229751D01*
X101902Y-229945D01*
X101075Y-230498D01*
X100522Y-231325D01*
X100328Y-232300D01*
X100522Y-233276D01*
X100940Y-233901D01*
Y-243671D01*
X89177D01*
X88592Y-243787D01*
X88096Y-244119D01*
X87764Y-244615D01*
X87648Y-245200D01*
Y-261000D01*
X87764Y-261585D01*
X88096Y-262081D01*
X90896Y-264881D01*
X91392Y-265213D01*
X91977Y-265329D01*
X104156D01*
X104392Y-265770D01*
X104222Y-266024D01*
X104028Y-267000D01*
X104222Y-267975D01*
X104775Y-268802D01*
X105602Y-269355D01*
X106159Y-269466D01*
X107835Y-271142D01*
X108497Y-271584D01*
X109277Y-271739D01*
X109277Y-271739D01*
X123686D01*
X124003Y-272126D01*
X123928Y-272500D01*
X124122Y-273476D01*
X124675Y-274302D01*
X125502Y-274855D01*
X126477Y-275049D01*
X127453Y-274855D01*
X127773Y-274641D01*
X159782D01*
X160102Y-274855D01*
X161077Y-275049D01*
X162053Y-274855D01*
X162880Y-274302D01*
X163432Y-273476D01*
X163626Y-272500D01*
X163432Y-271525D01*
X162880Y-270698D01*
X162053Y-270145D01*
X161077Y-269951D01*
X160102Y-270145D01*
X159782Y-270359D01*
X150389D01*
X150072Y-269972D01*
X150126Y-269700D01*
X149932Y-268724D01*
X149380Y-267898D01*
X148553Y-267345D01*
X147577Y-267151D01*
X146602Y-267345D01*
X146129Y-267661D01*
X144489D01*
X144172Y-267274D01*
X144226Y-267000D01*
X144032Y-266024D01*
X143862Y-265770D01*
X144098Y-265329D01*
X168944D01*
X169648Y-266034D01*
Y-279800D01*
X169764Y-280385D01*
X170096Y-280881D01*
X170592Y-281213D01*
X171177Y-281329D01*
X181480D01*
X181758Y-281745D01*
X181577Y-282182D01*
X181555Y-282345D01*
X186883D01*
Y-278854D01*
X186107D01*
Y-269100D01*
X185990Y-268515D01*
X185659Y-268019D01*
X182607Y-264967D01*
Y-245200D01*
X182490Y-244615D01*
X182454Y-244561D01*
Y-243820D01*
X181711D01*
X181662Y-243787D01*
X181077Y-243671D01*
X180269D01*
Y-241339D01*
X175301D01*
Y-243671D01*
X151314D01*
Y-235701D01*
X151732Y-235075D01*
X151926Y-234100D01*
X151732Y-233124D01*
X151180Y-232298D01*
X151311Y-231864D01*
X151177D01*
Y-229395D01*
D02*
G37*
G36*
X313792Y-247136D02*
X307977D01*
Y-249605D01*
X313792D01*
Y-247136D01*
D02*
G37*
G36*
X298892Y-247036D02*
X293077D01*
Y-249505D01*
X298892D01*
Y-247036D01*
D02*
G37*
G36*
X320177Y-246836D02*
X314362D01*
Y-249305D01*
X320177D01*
Y-246836D01*
D02*
G37*
G36*
X49000Y-225400D02*
X42200D01*
X41500Y-226100D01*
X41200D01*
Y-233700D01*
X42200Y-234700D01*
X48500D01*
X50300Y-232900D01*
Y-226700D01*
X49000Y-225400D01*
D02*
G37*
G36*
X151177Y-224927D02*
X145362D01*
Y-227395D01*
X151177D01*
Y-224927D01*
D02*
G37*
G36*
X158992D02*
X153177D01*
Y-227395D01*
X158992D01*
Y-224927D01*
D02*
G37*
G36*
X283409Y-224162D02*
X281137D01*
Y-225725D01*
X283409D01*
Y-224162D01*
D02*
G37*
G36*
X158992Y-229395D02*
X153177D01*
Y-231864D01*
X158992D01*
Y-229395D01*
D02*
G37*
G36*
X64764Y-217819D02*
X62795D01*
X61595Y-217937D01*
X60441Y-218288D01*
X59378Y-218856D01*
X58446Y-219621D01*
X57681Y-220553D01*
X57113Y-221616D01*
X56763Y-222770D01*
X56644Y-223970D01*
X56763Y-225170D01*
X57113Y-226324D01*
X57681Y-227387D01*
X58446Y-228320D01*
X59378Y-229084D01*
X60441Y-229653D01*
X61595Y-230003D01*
X62795Y-230121D01*
X64764D01*
X65964Y-230003D01*
X67118Y-229653D01*
X68181Y-229084D01*
X69113Y-228320D01*
X69878Y-227387D01*
X70446Y-226324D01*
X70797Y-225170D01*
X70915Y-223970D01*
X70797Y-222770D01*
X70446Y-221616D01*
X69878Y-220553D01*
X69113Y-219621D01*
X68181Y-218856D01*
X67118Y-218288D01*
X65964Y-217937D01*
X64764Y-217819D01*
D02*
G37*
G36*
X89377Y-221307D02*
X88266Y-221454D01*
X87231Y-221883D01*
X86342Y-222565D01*
X85660Y-223454D01*
X85231Y-224489D01*
X85085Y-225600D01*
X85231Y-226711D01*
X85660Y-227746D01*
X86342Y-228635D01*
X87231Y-229317D01*
X88266Y-229746D01*
X89377Y-229893D01*
X90488Y-229746D01*
X91523Y-229317D01*
X92413Y-228635D01*
X93095Y-227746D01*
X93524Y-226711D01*
X93670Y-225600D01*
X93524Y-224489D01*
X93095Y-223454D01*
X92413Y-222565D01*
X91523Y-221883D01*
X90488Y-221454D01*
X89377Y-221307D01*
D02*
G37*
G36*
X128168Y-178341D02*
X125700D01*
Y-181400D01*
X128168D01*
Y-178341D01*
D02*
G37*
G36*
X242100Y-166551D02*
X241125Y-166745D01*
X240298Y-167298D01*
X239745Y-168124D01*
X239551Y-169100D01*
X239701Y-169854D01*
X239384Y-170241D01*
X238609D01*
Y-178359D01*
Y-181374D01*
X245546D01*
Y-178359D01*
Y-170241D01*
X244816D01*
X244499Y-169854D01*
X244649Y-169100D01*
X244455Y-168124D01*
X243902Y-167298D01*
X243075Y-166745D01*
X242100Y-166551D01*
D02*
G37*
G36*
X141600Y-177841D02*
X139131D01*
Y-180900D01*
X141600D01*
Y-177841D01*
D02*
G37*
G36*
X62780Y-178198D02*
X56674D01*
Y-183320D01*
X62780D01*
Y-178198D01*
D02*
G37*
G36*
X218400Y-166751D02*
X217425Y-166945D01*
X216598Y-167498D01*
X216045Y-168324D01*
X215851Y-169300D01*
X215961Y-169854D01*
X215644Y-170241D01*
X214909D01*
Y-178061D01*
X214909Y-178061D01*
X214909D01*
X214909Y-178359D01*
D01*
D01*
Y-178359D01*
X215209Y-178415D01*
D01*
X215209Y-178415D01*
Y-181474D01*
X222146D01*
Y-178713D01*
X222146Y-178713D01*
D01*
D01*
X222146Y-178713D01*
X222146Y-178415D01*
X221853Y-178360D01*
X221853Y-178360D01*
X221846Y-178359D01*
X221846Y-178061D01*
X221846Y-178061D01*
X221846D01*
Y-170241D01*
X221156D01*
X220839Y-169854D01*
X220949Y-169300D01*
X220755Y-168324D01*
X220202Y-167498D01*
X219375Y-166945D01*
X218400Y-166751D01*
D02*
G37*
G36*
X123700Y-178341D02*
X121231D01*
Y-181400D01*
X123700D01*
Y-178341D01*
D02*
G37*
G36*
X146069Y-177841D02*
X143600D01*
Y-180900D01*
X146069D01*
Y-177841D01*
D02*
G37*
G36*
X224600Y-152200D02*
X221541D01*
Y-154668D01*
X224600D01*
Y-152200D01*
D02*
G37*
G36*
X229659D02*
X226600D01*
Y-154668D01*
X229659D01*
Y-152200D01*
D02*
G37*
G36*
X224600Y-147731D02*
X221541D01*
Y-150200D01*
X224600D01*
Y-147731D01*
D02*
G37*
G36*
X62780Y-171077D02*
X56674D01*
Y-176198D01*
X62780D01*
Y-171077D01*
D02*
G37*
G36*
X95800Y-169977D02*
X95095Y-170070D01*
X94438Y-170342D01*
X93874Y-170774D01*
X93441Y-171338D01*
X93169Y-171995D01*
X93077Y-172700D01*
X93169Y-173405D01*
X93441Y-174062D01*
X93874Y-174626D01*
X94438Y-175058D01*
X95095Y-175330D01*
X95800Y-175423D01*
X96505Y-175330D01*
X97162Y-175058D01*
X97726Y-174626D01*
X98159Y-174062D01*
X98431Y-173405D01*
X98523Y-172700D01*
X98431Y-171995D01*
X98159Y-171338D01*
X97726Y-170774D01*
X97162Y-170342D01*
X96505Y-170070D01*
X95800Y-169977D01*
D02*
G37*
G36*
X266373Y-172017D02*
X264200D01*
Y-173895D01*
X266373D01*
Y-172017D01*
D02*
G37*
G36*
X146069Y-182900D02*
X143600D01*
Y-185959D01*
X146069D01*
Y-182900D01*
D02*
G37*
G36*
X79077Y-181710D02*
X78044Y-181846D01*
X77082Y-182245D01*
X76256Y-182879D01*
X75622Y-183705D01*
X75223Y-184667D01*
X75087Y-185700D01*
X75223Y-186733D01*
X75622Y-187695D01*
X76256Y-188521D01*
X77082Y-189155D01*
X78044Y-189554D01*
X79077Y-189690D01*
X80110Y-189554D01*
X81072Y-189155D01*
X81899Y-188521D01*
X82533Y-187695D01*
X82931Y-186733D01*
X83067Y-185700D01*
X82931Y-184667D01*
X82533Y-183705D01*
X81899Y-182879D01*
X81072Y-182245D01*
X80110Y-181846D01*
X79077Y-181710D01*
D02*
G37*
G36*
X89377Y-181610D02*
X88345Y-181746D01*
X87382Y-182144D01*
X86556Y-182779D01*
X85922Y-183605D01*
X85523Y-184567D01*
X85387Y-185600D01*
X85523Y-186633D01*
X85922Y-187595D01*
X86556Y-188421D01*
X87382Y-189056D01*
X88345Y-189454D01*
X89377Y-189590D01*
X90410Y-189454D01*
X91372Y-189056D01*
X92199Y-188421D01*
X92833Y-187595D01*
X93231Y-186633D01*
X93367Y-185600D01*
X93231Y-184567D01*
X92833Y-183605D01*
X92199Y-182779D01*
X91372Y-182144D01*
X90410Y-181746D01*
X89377Y-181610D01*
D02*
G37*
G36*
X217677Y-183474D02*
X215209D01*
Y-186533D01*
X217677D01*
Y-183474D01*
D02*
G37*
G36*
X213972Y-170241D02*
X207035D01*
Y-178359D01*
X207335D01*
Y-178415D01*
X207335D01*
Y-186533D01*
X208866D01*
Y-192496D01*
X208448Y-193121D01*
X208254Y-194097D01*
X208448Y-195072D01*
X209001Y-195899D01*
X209828Y-196452D01*
X210803Y-196646D01*
X211779Y-196452D01*
X212606Y-195899D01*
X213158Y-195072D01*
X213352Y-194097D01*
X213158Y-193121D01*
X212740Y-192496D01*
Y-186533D01*
X214272D01*
Y-178415D01*
X213972D01*
Y-178359D01*
X213972D01*
Y-170241D01*
D02*
G37*
G36*
X62780Y-186640D02*
X61595Y-186756D01*
X60441Y-187106D01*
X59378Y-187675D01*
X58446Y-188440D01*
X57681Y-189372D01*
X57113Y-190435D01*
X56763Y-191589D01*
X56743Y-191789D01*
X62780D01*
Y-186640D01*
D02*
G37*
G36*
X64780D02*
Y-191789D01*
X70816D01*
X70797Y-191589D01*
X70446Y-190435D01*
X69878Y-189372D01*
X69113Y-188440D01*
X68181Y-187675D01*
X67118Y-187106D01*
X65964Y-186756D01*
X64780Y-186640D01*
D02*
G37*
G36*
X222146Y-183474D02*
X219677D01*
Y-186533D01*
X222146D01*
Y-183474D01*
D02*
G37*
G36*
X245546Y-183374D02*
X243077D01*
Y-186433D01*
X245546D01*
Y-183374D01*
D02*
G37*
G36*
X96500Y-180577D02*
X95795Y-180669D01*
X95138Y-180942D01*
X94574Y-181374D01*
X94142Y-181938D01*
X93870Y-182595D01*
X93777Y-183300D01*
X93870Y-184005D01*
X94142Y-184662D01*
X94574Y-185226D01*
X95138Y-185658D01*
X95795Y-185931D01*
X96500Y-186023D01*
X97205Y-185931D01*
X97862Y-185658D01*
X98426Y-185226D01*
X98858Y-184662D01*
X99130Y-184005D01*
X99223Y-183300D01*
X99130Y-182595D01*
X98858Y-181938D01*
X98426Y-181374D01*
X97862Y-180942D01*
X97205Y-180669D01*
X96500Y-180577D01*
D02*
G37*
G36*
X141600Y-182900D02*
X139131D01*
Y-185959D01*
X141600D01*
Y-182900D01*
D02*
G37*
G36*
X123700Y-183400D02*
X121231D01*
Y-186459D01*
X123700D01*
Y-183400D01*
D02*
G37*
G36*
X128168D02*
X125700D01*
Y-186459D01*
X128168D01*
Y-183400D01*
D02*
G37*
G36*
X241077Y-183374D02*
X238609D01*
Y-186433D01*
X241077D01*
Y-183374D01*
D02*
G37*
G36*
X305977Y-247136D02*
X300162D01*
Y-249605D01*
X305977D01*
Y-247136D01*
D02*
G37*
G36*
X82836Y-305540D02*
Y-308900D01*
X86196D01*
X86174Y-308738D01*
X85726Y-307654D01*
X85012Y-306724D01*
X84082Y-306011D01*
X82999Y-305562D01*
X82836Y-305540D01*
D02*
G37*
G36*
X187777Y-292251D02*
X186802Y-292445D01*
X185975Y-292998D01*
X185422Y-293825D01*
X185228Y-294800D01*
X185422Y-295776D01*
X185840Y-296401D01*
Y-296974D01*
X184753Y-297117D01*
X183669Y-297566D01*
X182739Y-298280D01*
X182025Y-299210D01*
X181577Y-300293D01*
X181424Y-301455D01*
X181577Y-302618D01*
X182025Y-303701D01*
X182739Y-304631D01*
X183669Y-305345D01*
X184753Y-305793D01*
X185915Y-305946D01*
X189852D01*
X191014Y-305793D01*
X192097Y-305345D01*
X193028Y-304631D01*
X193741Y-303701D01*
X194190Y-302618D01*
X194343Y-301455D01*
X194190Y-300293D01*
X193741Y-299210D01*
X193028Y-298280D01*
X192097Y-297566D01*
X191014Y-297117D01*
X189852Y-296964D01*
X189714D01*
Y-296401D01*
X190132Y-295776D01*
X190326Y-294800D01*
X190132Y-293825D01*
X189580Y-292998D01*
X188753Y-292445D01*
X187777Y-292251D01*
D02*
G37*
G36*
X133277Y-288451D02*
X132302Y-288645D01*
X131475Y-289198D01*
X130922Y-290024D01*
X130728Y-291000D01*
X130922Y-291975D01*
X131475Y-292802D01*
X132302Y-293355D01*
X133039Y-293502D01*
X133246Y-293709D01*
Y-296764D01*
X133215D01*
X132053Y-296917D01*
X130969Y-297366D01*
X130039Y-298079D01*
X129325Y-299010D01*
X128877Y-300093D01*
X128724Y-301255D01*
X128877Y-302418D01*
X129325Y-303501D01*
X130039Y-304431D01*
X130969Y-305145D01*
X132053Y-305593D01*
X133215Y-305746D01*
X137152D01*
X138314Y-305593D01*
X139398Y-305145D01*
X140328Y-304431D01*
X141041Y-303501D01*
X141490Y-302418D01*
X141643Y-301255D01*
X141490Y-300093D01*
X141041Y-299010D01*
X140328Y-298079D01*
X139398Y-297366D01*
X138314Y-296917D01*
X137152Y-296764D01*
X137121D01*
Y-292906D01*
X136973Y-292165D01*
X136553Y-291536D01*
X135779Y-290762D01*
X135632Y-290024D01*
X135080Y-289198D01*
X134253Y-288645D01*
X133277Y-288451D01*
D02*
G37*
G36*
X58334Y-310900D02*
X55277D01*
Y-313957D01*
X55361Y-313946D01*
X56371Y-313527D01*
X57239Y-312862D01*
X57905Y-311994D01*
X58323Y-310984D01*
X58334Y-310900D01*
D02*
G37*
G36*
X53277Y-305843D02*
X53193Y-305854D01*
X52183Y-306273D01*
X51315Y-306938D01*
X50650Y-307806D01*
X50231Y-308816D01*
X50220Y-308900D01*
X53277D01*
Y-305843D01*
D02*
G37*
G36*
X55277D02*
Y-308900D01*
X58334D01*
X58323Y-308816D01*
X57905Y-307806D01*
X57239Y-306938D01*
X56371Y-306273D01*
X55361Y-305854D01*
X55277Y-305843D01*
D02*
G37*
G36*
X25177Y-288445D02*
Y-291600D01*
X28332D01*
X28318Y-291491D01*
X27890Y-290457D01*
X27208Y-289569D01*
X26320Y-288888D01*
X25287Y-288459D01*
X25177Y-288445D01*
D02*
G37*
G36*
X186883Y-284345D02*
X181555D01*
X181577Y-284507D01*
X182025Y-285590D01*
X182739Y-286521D01*
X183669Y-287234D01*
X184753Y-287683D01*
X185915Y-287836D01*
X186883D01*
Y-284345D01*
D02*
G37*
G36*
X194211D02*
X188883D01*
Y-287836D01*
X189852D01*
X191014Y-287683D01*
X192097Y-287234D01*
X193028Y-286521D01*
X193741Y-285590D01*
X194190Y-284507D01*
X194211Y-284345D01*
D02*
G37*
G36*
X64600Y-296777D02*
X63895Y-296869D01*
X63238Y-297142D01*
X62674Y-297574D01*
X62242Y-298138D01*
X61970Y-298795D01*
X61877Y-299500D01*
X61970Y-300205D01*
X62242Y-300862D01*
X62674Y-301426D01*
X63238Y-301858D01*
X63895Y-302131D01*
X64600Y-302223D01*
X65305Y-302131D01*
X65962Y-301858D01*
X66526Y-301426D01*
X66958Y-300862D01*
X67230Y-300205D01*
X67323Y-299500D01*
X67230Y-298795D01*
X66958Y-298138D01*
X66526Y-297574D01*
X65962Y-297142D01*
X65305Y-296869D01*
X64600Y-296777D01*
D02*
G37*
G36*
X28332Y-293600D02*
X25177D01*
Y-296755D01*
X25287Y-296741D01*
X26320Y-296312D01*
X27208Y-295631D01*
X27890Y-294743D01*
X28318Y-293709D01*
X28332Y-293600D01*
D02*
G37*
G36*
X64764Y-280182D02*
X62795D01*
X61595Y-280300D01*
X60441Y-280650D01*
X59378Y-281218D01*
X58446Y-281983D01*
X57681Y-282915D01*
X57113Y-283979D01*
X56763Y-285133D01*
X56644Y-286333D01*
X56763Y-287533D01*
X57113Y-288686D01*
X57681Y-289750D01*
X58446Y-290682D01*
X59378Y-291447D01*
X60441Y-292015D01*
X61595Y-292365D01*
X62795Y-292483D01*
X64764D01*
X65964Y-292365D01*
X67118Y-292015D01*
X68181Y-291447D01*
X69113Y-290682D01*
X69878Y-289750D01*
X70446Y-288686D01*
X70797Y-287533D01*
X70915Y-286333D01*
X70797Y-285133D01*
X70446Y-283979D01*
X69878Y-282915D01*
X69113Y-281983D01*
X68181Y-281218D01*
X67118Y-280650D01*
X65964Y-280300D01*
X64764Y-280182D01*
D02*
G37*
G36*
X53277Y-310900D02*
X50220D01*
X50231Y-310984D01*
X50650Y-311994D01*
X51315Y-312862D01*
X52183Y-313527D01*
X53193Y-313946D01*
X53277Y-313957D01*
Y-310900D01*
D02*
G37*
G36*
X315287Y-333400D02*
X309865D01*
Y-339806D01*
X315287D01*
Y-333400D01*
D02*
G37*
G36*
X322708D02*
X317287D01*
Y-339806D01*
X322708D01*
Y-333400D01*
D02*
G37*
G36*
X360109Y-333300D02*
X354688D01*
Y-339705D01*
X360109D01*
Y-333300D01*
D02*
G37*
G36*
X116802Y-281471D02*
X91177D01*
X90592Y-281587D01*
X90096Y-281919D01*
X89764Y-282415D01*
X89648Y-283000D01*
Y-300093D01*
X89764Y-300678D01*
X90096Y-301174D01*
X90376Y-301362D01*
Y-301574D01*
X90935D01*
X91177Y-301622D01*
X103146D01*
Y-323800D01*
X103146Y-323800D01*
X103146D01*
X103177Y-324119D01*
Y-329050D01*
X105828D01*
X106049Y-329231D01*
X107178Y-329834D01*
X108403Y-330206D01*
X109677Y-330331D01*
X119787D01*
X120538Y-330257D01*
X125977Y-335696D01*
Y-344450D01*
X134977D01*
Y-331450D01*
X133142D01*
X126244Y-324552D01*
X126318Y-323800D01*
X126193Y-322526D01*
X125821Y-321301D01*
X125217Y-320171D01*
X124405Y-319182D01*
X123415Y-318369D01*
X122286Y-317766D01*
X121061Y-317394D01*
X119787Y-317269D01*
X116209D01*
Y-302165D01*
X116802D01*
Y-301622D01*
X117387Y-301506D01*
X117883Y-301174D01*
X118214Y-300678D01*
X118331Y-300093D01*
Y-283000D01*
X118214Y-282415D01*
X117883Y-281919D01*
X117387Y-281587D01*
X116802Y-281471D01*
D02*
G37*
G36*
X168177Y-281871D02*
X144077D01*
X143492Y-281987D01*
X142996Y-282319D01*
X142664Y-282815D01*
X142548Y-283400D01*
Y-300800D01*
X142664Y-301385D01*
X142996Y-301881D01*
X143492Y-302213D01*
X144077Y-302329D01*
X154494D01*
Y-323700D01*
X154526Y-324019D01*
Y-328950D01*
X157177D01*
X157397Y-329131D01*
X158526Y-329734D01*
X159752Y-330106D01*
X161026Y-330231D01*
X162300Y-330106D01*
X163525Y-329734D01*
X164655Y-329131D01*
X164875Y-328950D01*
X165921D01*
X176127Y-339156D01*
Y-344450D01*
X185127D01*
Y-331450D01*
X179833D01*
X169230Y-320847D01*
X168394Y-320206D01*
X167557Y-319859D01*
Y-302364D01*
X169501D01*
Y-301518D01*
X169590Y-301385D01*
X169707Y-300800D01*
Y-283400D01*
X169590Y-282815D01*
X169502Y-282682D01*
Y-282435D01*
X169337D01*
X169259Y-282319D01*
X168763Y-281987D01*
X168177Y-281871D01*
D02*
G37*
G36*
X266677Y-319250D02*
X253677D01*
Y-329750D01*
X266677D01*
Y-329134D01*
X273606D01*
X275410Y-330938D01*
X275218Y-331400D01*
X274977D01*
Y-335922D01*
X274880Y-336156D01*
X274743Y-337200D01*
X274880Y-338244D01*
X274977Y-338478D01*
Y-344400D01*
X283977D01*
Y-331400D01*
X283512D01*
Y-329300D01*
X283374Y-328256D01*
X282971Y-327283D01*
X282330Y-326447D01*
X278130Y-322247D01*
X277294Y-321606D01*
X276321Y-321203D01*
X275277Y-321065D01*
X275277Y-321065D01*
X266677D01*
Y-319250D01*
D02*
G37*
G36*
X94041Y-311503D02*
X92622Y-311690D01*
X91299Y-312237D01*
X90163Y-313109D01*
X89292Y-314245D01*
X88744Y-315567D01*
X88557Y-316987D01*
Y-324861D01*
X88744Y-326280D01*
X89292Y-327603D01*
X90163Y-328738D01*
X91299Y-329610D01*
X92622Y-330158D01*
X94041Y-330345D01*
X95460Y-330158D01*
X96783Y-329610D01*
X97919Y-328738D01*
X98790Y-327603D01*
X99338Y-326280D01*
X99525Y-324861D01*
Y-316987D01*
X99338Y-315567D01*
X98790Y-314245D01*
X97919Y-313109D01*
X96783Y-312237D01*
X95460Y-311690D01*
X94041Y-311503D01*
D02*
G37*
G36*
X41072Y-321924D02*
X36588D01*
Y-324861D01*
X36775Y-326280D01*
X37323Y-327603D01*
X38195Y-328738D01*
X39331Y-329610D01*
X40653Y-330158D01*
X41072Y-330213D01*
Y-321924D01*
D02*
G37*
G36*
X47556D02*
X43073D01*
Y-330213D01*
X43492Y-330158D01*
X44814Y-329610D01*
X45950Y-328738D01*
X46822Y-327603D01*
X47370Y-326280D01*
X47556Y-324861D01*
Y-321924D01*
D02*
G37*
G36*
X315287Y-324994D02*
X309865D01*
Y-331400D01*
X315287D01*
Y-324994D01*
D02*
G37*
G36*
X322708D02*
X317287D01*
Y-331400D01*
X322708D01*
Y-324994D01*
D02*
G37*
G36*
X360109Y-324894D02*
X354688D01*
Y-331300D01*
X360109D01*
Y-324894D01*
D02*
G37*
G36*
X134183Y-284145D02*
X128855D01*
X128877Y-284307D01*
X129325Y-285390D01*
X130039Y-286320D01*
X130969Y-287034D01*
X132053Y-287483D01*
X133215Y-287636D01*
X134183D01*
Y-284145D01*
D02*
G37*
G36*
X190309Y-257362D02*
X183765D01*
Y-258925D01*
Y-260362D01*
X190309D01*
Y-258925D01*
Y-257362D01*
D02*
G37*
G36*
Y-252362D02*
X183765D01*
Y-253925D01*
Y-255362D01*
X190309D01*
Y-253925D01*
Y-252362D01*
D02*
G37*
G36*
X305977Y-251605D02*
X300162D01*
Y-254073D01*
X305977D01*
Y-251605D01*
D02*
G37*
G36*
X186037Y-262362D02*
X183765D01*
Y-263925D01*
X186037D01*
Y-262362D01*
D02*
G37*
G36*
X190309D02*
X188037D01*
Y-263925D01*
X190309D01*
Y-262362D01*
D02*
G37*
G36*
X64764Y-249001D02*
X62795D01*
X61595Y-249119D01*
X60441Y-249469D01*
X59378Y-250037D01*
X58446Y-250802D01*
X57681Y-251734D01*
X57113Y-252798D01*
X56763Y-253952D01*
X56644Y-255151D01*
X56763Y-256351D01*
X57113Y-257505D01*
X57681Y-258569D01*
X58446Y-259501D01*
X59378Y-260266D01*
X60441Y-260834D01*
X61595Y-261184D01*
X62795Y-261302D01*
X64764D01*
X65964Y-261184D01*
X67118Y-260834D01*
X68181Y-260266D01*
X69113Y-259501D01*
X69878Y-258569D01*
X70446Y-257505D01*
X70797Y-256351D01*
X70915Y-255151D01*
X70797Y-253952D01*
X70446Y-252798D01*
X69878Y-251734D01*
X69113Y-250802D01*
X68181Y-250037D01*
X67118Y-249469D01*
X65964Y-249119D01*
X64764Y-249001D01*
D02*
G37*
G36*
X327992Y-251305D02*
X322177D01*
Y-253773D01*
X327992D01*
Y-251305D01*
D02*
G37*
G36*
X50677Y-241715D02*
X40577D01*
Y-252115D01*
X41877Y-253415D01*
X49577D01*
X51877Y-251115D01*
Y-242915D01*
X50677Y-241715D01*
D02*
G37*
G36*
X184177Y-230251D02*
X177577D01*
X176602Y-230445D01*
X175775Y-230998D01*
X175222Y-231824D01*
X175028Y-232800D01*
X175222Y-233775D01*
X175775Y-234602D01*
X176602Y-235155D01*
X177577Y-235349D01*
X183121D01*
X184488Y-236716D01*
Y-243799D01*
X183765D01*
Y-248925D01*
Y-250362D01*
X190309D01*
Y-248925D01*
Y-243799D01*
X189586D01*
Y-235660D01*
X189392Y-234684D01*
X188839Y-233857D01*
X185980Y-230998D01*
X185153Y-230445D01*
X184177Y-230251D01*
D02*
G37*
G36*
X313792Y-251605D02*
X307977D01*
Y-254073D01*
X313792D01*
Y-251605D01*
D02*
G37*
G36*
X298892Y-251505D02*
X293077D01*
Y-253973D01*
X298892D01*
Y-251505D01*
D02*
G37*
G36*
X320177Y-251305D02*
X314362D01*
Y-253773D01*
X320177D01*
Y-251305D01*
D02*
G37*
G36*
X219150Y-258300D02*
X212213D01*
Y-264115D01*
X212413D01*
Y-269300D01*
X219350D01*
Y-263485D01*
X219150D01*
Y-258300D01*
D02*
G37*
G36*
X335209Y-285099D02*
X332937D01*
Y-286662D01*
X335209D01*
Y-285099D01*
D02*
G37*
G36*
X282477Y-282005D02*
X276662D01*
Y-284473D01*
X282477D01*
Y-282005D01*
D02*
G37*
G36*
X189852Y-278854D02*
X188883D01*
Y-282345D01*
X194211D01*
X194190Y-282182D01*
X193741Y-281099D01*
X193028Y-280169D01*
X192097Y-279455D01*
X191014Y-279007D01*
X189852Y-278854D01*
D02*
G37*
G36*
X141511Y-284145D02*
X136183D01*
Y-287636D01*
X137152D01*
X138314Y-287483D01*
X139398Y-287034D01*
X140328Y-286320D01*
X141041Y-285390D01*
X141490Y-284307D01*
X141511Y-284145D01*
D02*
G37*
G36*
X238683Y-283445D02*
X233355D01*
X233377Y-283607D01*
X233825Y-284690D01*
X234539Y-285620D01*
X235469Y-286334D01*
X236553Y-286783D01*
X237715Y-286936D01*
X238683D01*
Y-283445D01*
D02*
G37*
G36*
X330937Y-285099D02*
X328665D01*
Y-286662D01*
X330937D01*
Y-285099D01*
D02*
G37*
G36*
X219350Y-271300D02*
X216882D01*
Y-277115D01*
X219350D01*
Y-271300D01*
D02*
G37*
G36*
X64764Y-264591D02*
X62795D01*
X61595Y-264709D01*
X60441Y-265059D01*
X59378Y-265628D01*
X58446Y-266393D01*
X57681Y-267325D01*
X57113Y-268388D01*
X56763Y-269542D01*
X56644Y-270742D01*
X56763Y-271942D01*
X57113Y-273096D01*
X57681Y-274159D01*
X58446Y-275091D01*
X59378Y-275856D01*
X60441Y-276425D01*
X61595Y-276775D01*
X62795Y-276893D01*
X64764D01*
X65964Y-276775D01*
X67118Y-276425D01*
X68181Y-275856D01*
X69113Y-275091D01*
X69878Y-274159D01*
X70446Y-273096D01*
X70797Y-271942D01*
X70915Y-270742D01*
X70797Y-269542D01*
X70446Y-268388D01*
X69878Y-267325D01*
X69113Y-266393D01*
X68181Y-265628D01*
X67118Y-265059D01*
X65964Y-264709D01*
X64764Y-264591D01*
D02*
G37*
G36*
X7677Y-261607D02*
X6566Y-261754D01*
X5531Y-262182D01*
X4642Y-262865D01*
X3960Y-263754D01*
X3531Y-264789D01*
X3385Y-265900D01*
X3531Y-267011D01*
X3960Y-268046D01*
X4642Y-268935D01*
X5531Y-269618D01*
X6566Y-270046D01*
X7677Y-270193D01*
X8788Y-270046D01*
X9824Y-269618D01*
X10712Y-268935D01*
X11395Y-268046D01*
X11824Y-267011D01*
X11970Y-265900D01*
X11824Y-264789D01*
X11395Y-263754D01*
X10712Y-262865D01*
X9824Y-262182D01*
X8788Y-261754D01*
X7677Y-261607D01*
D02*
G37*
G36*
X134183Y-278654D02*
X133215D01*
X132053Y-278807D01*
X130969Y-279255D01*
X130039Y-279969D01*
X129325Y-280899D01*
X128877Y-281982D01*
X128855Y-282145D01*
X134183D01*
Y-278654D01*
D02*
G37*
G36*
X137152D02*
X136183D01*
Y-282145D01*
X141511D01*
X141490Y-281982D01*
X141041Y-280899D01*
X140328Y-279969D01*
X139398Y-279255D01*
X138314Y-278807D01*
X137152Y-278654D01*
D02*
G37*
G36*
X214882Y-271300D02*
X212413D01*
Y-277115D01*
X214882D01*
Y-271300D01*
D02*
G37*
G36*
X229659Y-147731D02*
X226600D01*
Y-150200D01*
X229659D01*
Y-147731D01*
D02*
G37*
G36*
X202177Y-8540D02*
X201015Y-8693D01*
X199932Y-9142D01*
X199002Y-9856D01*
X198288Y-10786D01*
X197839Y-11869D01*
X197686Y-13032D01*
Y-16969D01*
X197839Y-18131D01*
X198288Y-19214D01*
X199002Y-20144D01*
X199932Y-20858D01*
X200240Y-20986D01*
Y-28231D01*
X198068D01*
Y-29763D01*
X197101D01*
X196476Y-29345D01*
X195500Y-29151D01*
X194525Y-29345D01*
X193698Y-29898D01*
X193145Y-30724D01*
X192951Y-31700D01*
X193145Y-32675D01*
X193698Y-33502D01*
X194525Y-34055D01*
X195500Y-34249D01*
X196476Y-34055D01*
X197101Y-33637D01*
X198068D01*
Y-35168D01*
X206186D01*
Y-28231D01*
X204114D01*
Y-20986D01*
X204423Y-20858D01*
X205353Y-20144D01*
X206067Y-19214D01*
X206515Y-18131D01*
X206668Y-16969D01*
Y-13032D01*
X206515Y-11869D01*
X206067Y-10786D01*
X205353Y-9856D01*
X204423Y-9142D01*
X203340Y-8693D01*
X202177Y-8540D01*
D02*
G37*
G36*
X280977D02*
X279815Y-8693D01*
X278732Y-9142D01*
X277801Y-9856D01*
X277088Y-10786D01*
X276639Y-11869D01*
X276486Y-13032D01*
Y-16969D01*
X276639Y-18131D01*
X277088Y-19214D01*
X277801Y-20144D01*
X278732Y-20858D01*
X279040Y-20986D01*
Y-24734D01*
X278645Y-25324D01*
X278451Y-26300D01*
X278645Y-27275D01*
X279198Y-28102D01*
X280025Y-28655D01*
X281000Y-28849D01*
X281976Y-28655D01*
X282802Y-28102D01*
X283355Y-27275D01*
X283549Y-26300D01*
X283355Y-25324D01*
X282914Y-24665D01*
Y-20986D01*
X283223Y-20858D01*
X284153Y-20144D01*
X284867Y-19214D01*
X285315Y-18131D01*
X285468Y-16969D01*
Y-13032D01*
X285315Y-11869D01*
X284867Y-10786D01*
X284153Y-9856D01*
X283223Y-9142D01*
X282140Y-8693D01*
X280977Y-8540D01*
D02*
G37*
G36*
X290977D02*
X289815Y-8693D01*
X288732Y-9142D01*
X287802Y-9856D01*
X287088Y-10786D01*
X286639Y-11869D01*
X286486Y-13032D01*
Y-16969D01*
X286639Y-18131D01*
X287088Y-19214D01*
X287802Y-20144D01*
X288732Y-20858D01*
X289040Y-20986D01*
Y-24633D01*
X288645Y-25225D01*
X288451Y-26200D01*
X288645Y-27176D01*
X289198Y-28002D01*
X290024Y-28555D01*
X291000Y-28749D01*
X291975Y-28555D01*
X292802Y-28002D01*
X293355Y-27176D01*
X293549Y-26200D01*
X293355Y-25225D01*
X292914Y-24565D01*
Y-20986D01*
X293223Y-20858D01*
X294153Y-20144D01*
X294867Y-19214D01*
X295315Y-18131D01*
X295468Y-16969D01*
Y-13032D01*
X295315Y-11869D01*
X294867Y-10786D01*
X294153Y-9856D01*
X293223Y-9142D01*
X292140Y-8693D01*
X290977Y-8540D01*
D02*
G37*
G36*
X222177D02*
X221015Y-8693D01*
X219932Y-9142D01*
X219002Y-9856D01*
X218288Y-10786D01*
X217839Y-11869D01*
X217686Y-13032D01*
Y-16969D01*
X217839Y-18131D01*
X218288Y-19214D01*
X219002Y-20144D01*
X219932Y-20858D01*
X220240Y-20986D01*
Y-28231D01*
X218093D01*
Y-35168D01*
X226211D01*
Y-34242D01*
X226652Y-34007D01*
X226725Y-34055D01*
X227700Y-34249D01*
X228676Y-34055D01*
X229502Y-33502D01*
X230055Y-32675D01*
X230249Y-31700D01*
X230055Y-30724D01*
X229502Y-29898D01*
X228676Y-29345D01*
X227700Y-29151D01*
X226725Y-29345D01*
X226652Y-29393D01*
X226211Y-29158D01*
Y-28231D01*
X224114D01*
Y-20986D01*
X224423Y-20858D01*
X225353Y-20144D01*
X226067Y-19214D01*
X226515Y-18131D01*
X226668Y-16969D01*
Y-13032D01*
X226515Y-11869D01*
X226067Y-10786D01*
X225353Y-9856D01*
X224423Y-9142D01*
X223340Y-8693D01*
X222177Y-8540D01*
D02*
G37*
G36*
X350377D02*
X349215Y-8693D01*
X348132Y-9142D01*
X347201Y-9856D01*
X346488Y-10786D01*
X346039Y-11869D01*
X345886Y-13032D01*
Y-16969D01*
X346039Y-18131D01*
X346488Y-19214D01*
X347201Y-20144D01*
X348132Y-20858D01*
X348440Y-20986D01*
Y-25833D01*
X348045Y-26425D01*
X347851Y-27400D01*
X348045Y-28376D01*
X348598Y-29202D01*
X349425Y-29755D01*
X350400Y-29949D01*
X351376Y-29755D01*
X352202Y-29202D01*
X352755Y-28376D01*
X352949Y-27400D01*
X352755Y-26425D01*
X352314Y-25765D01*
Y-20986D01*
X352623Y-20858D01*
X353553Y-20144D01*
X354267Y-19214D01*
X354715Y-18131D01*
X354868Y-16969D01*
Y-13032D01*
X354715Y-11869D01*
X354267Y-10786D01*
X353553Y-9856D01*
X352623Y-9142D01*
X351540Y-8693D01*
X350377Y-8540D01*
D02*
G37*
G36*
X182177D02*
X181015Y-8693D01*
X179932Y-9142D01*
X179001Y-9856D01*
X178288Y-10786D01*
X177839Y-11869D01*
X177686Y-13032D01*
Y-16969D01*
X177839Y-18131D01*
X178288Y-19214D01*
X179001Y-20144D01*
X179932Y-20858D01*
X180240Y-20986D01*
Y-28231D01*
X178043D01*
Y-29763D01*
X177601D01*
X176976Y-29345D01*
X176000Y-29151D01*
X175024Y-29345D01*
X174198Y-29898D01*
X173645Y-30724D01*
X173451Y-31700D01*
X173645Y-32675D01*
X174198Y-33502D01*
X175024Y-34055D01*
X176000Y-34249D01*
X176976Y-34055D01*
X177601Y-33637D01*
X178043D01*
Y-35168D01*
X186161D01*
Y-28231D01*
X184114D01*
Y-20986D01*
X184423Y-20858D01*
X185353Y-20144D01*
X186067Y-19214D01*
X186515Y-18131D01*
X186668Y-16969D01*
Y-13032D01*
X186515Y-11869D01*
X186067Y-10786D01*
X185353Y-9856D01*
X184423Y-9142D01*
X183340Y-8693D01*
X182177Y-8540D01*
D02*
G37*
G36*
X151177Y-16000D02*
X147724D01*
Y-21421D01*
X151177D01*
Y-16000D01*
D02*
G37*
G36*
X329377D02*
X325924D01*
Y-21421D01*
X329377D01*
Y-16000D01*
D02*
G37*
G36*
X334830D02*
X331377D01*
Y-21421D01*
X334830D01*
Y-16000D01*
D02*
G37*
G36*
X42177D02*
X38686D01*
Y-16969D01*
X38839Y-18131D01*
X39288Y-19214D01*
X40001Y-20144D01*
X40932Y-20858D01*
X42015Y-21307D01*
X42177Y-21328D01*
Y-16000D01*
D02*
G37*
G36*
X156630D02*
X153177D01*
Y-21421D01*
X156630D01*
Y-16000D01*
D02*
G37*
G36*
X269977D02*
X266524D01*
Y-21421D01*
X269977D01*
Y-16000D01*
D02*
G37*
G36*
X275430D02*
X271977D01*
Y-21421D01*
X275430D01*
Y-16000D01*
D02*
G37*
G36*
X162177Y-8540D02*
X161015Y-8693D01*
X159932Y-9142D01*
X159002Y-9856D01*
X158288Y-10786D01*
X157839Y-11869D01*
X157686Y-13032D01*
Y-16969D01*
X157839Y-18131D01*
X158288Y-19214D01*
X159002Y-20144D01*
X159932Y-20858D01*
X160240Y-20986D01*
Y-28231D01*
X158018D01*
Y-29763D01*
X155800D01*
X155059Y-29910D01*
X154430Y-30330D01*
X152762Y-31998D01*
X152024Y-32145D01*
X151198Y-32698D01*
X150645Y-33525D01*
X150451Y-34500D01*
X150645Y-35476D01*
X151198Y-36302D01*
X152024Y-36855D01*
X153000Y-37049D01*
X153975Y-36855D01*
X154802Y-36302D01*
X155355Y-35476D01*
X155502Y-34738D01*
X156602Y-33637D01*
X158018D01*
Y-35168D01*
X166136D01*
Y-28231D01*
X164114D01*
Y-20986D01*
X164423Y-20858D01*
X165353Y-20144D01*
X166067Y-19214D01*
X166515Y-18131D01*
X166668Y-16969D01*
Y-13032D01*
X166515Y-11869D01*
X166067Y-10786D01*
X165353Y-9856D01*
X164423Y-9142D01*
X163340Y-8693D01*
X162177Y-8540D01*
D02*
G37*
G36*
X367061Y-50100D02*
X364887D01*
Y-51978D01*
X367061D01*
Y-50100D01*
D02*
G37*
G36*
X371234D02*
X369061D01*
Y-51978D01*
X371234D01*
Y-50100D01*
D02*
G37*
G36*
X351049Y-48190D02*
X350292Y-48340D01*
X349470Y-48889D01*
X348942Y-49680D01*
X351049D01*
Y-48190D01*
D02*
G37*
G36*
X355156Y-51680D02*
X353049D01*
Y-53171D01*
X353806Y-53020D01*
X354627Y-52471D01*
X355156Y-51680D01*
D02*
G37*
G36*
X359838Y-50100D02*
X357665D01*
Y-51978D01*
X359838D01*
Y-50100D01*
D02*
G37*
G36*
X364011D02*
X361838D01*
Y-51978D01*
X364011D01*
Y-50100D01*
D02*
G37*
G36*
X353049Y-48190D02*
Y-49680D01*
X355156D01*
X354627Y-48889D01*
X353806Y-48340D01*
X353049Y-48190D01*
D02*
G37*
G36*
X334234Y-34422D02*
X332061D01*
Y-36300D01*
X334234D01*
Y-34422D01*
D02*
G37*
G36*
X323761Y-34416D02*
X321587D01*
Y-36294D01*
X323761D01*
Y-34416D01*
D02*
G37*
G36*
X53177Y-8540D02*
X52015Y-8693D01*
X50932Y-9142D01*
X50002Y-9856D01*
X49288Y-10786D01*
X48839Y-11869D01*
X48686Y-13032D01*
Y-16969D01*
X48839Y-18131D01*
X49288Y-19214D01*
X50002Y-20144D01*
X50932Y-20858D01*
X51240Y-20986D01*
Y-27241D01*
X49709D01*
Y-35359D01*
X56646D01*
Y-27241D01*
X55114D01*
Y-20986D01*
X55423Y-20858D01*
X56353Y-20144D01*
X57067Y-19214D01*
X57515Y-18131D01*
X57668Y-16969D01*
Y-13032D01*
X57515Y-11869D01*
X57067Y-10786D01*
X56353Y-9856D01*
X55423Y-9142D01*
X54340Y-8693D01*
X53177Y-8540D01*
D02*
G37*
G36*
X286400Y-43700D02*
X283341D01*
Y-46169D01*
X286400D01*
Y-43700D01*
D02*
G37*
G36*
Y-39232D02*
X283341D01*
Y-41700D01*
X286400D01*
Y-39232D01*
D02*
G37*
G36*
X137600Y-29151D02*
X136625Y-29345D01*
X135798Y-29898D01*
X135245Y-30724D01*
X135051Y-31700D01*
X135245Y-32675D01*
X135663Y-33301D01*
Y-38353D01*
X135300Y-38651D01*
X134325Y-38845D01*
X133498Y-39398D01*
X133498D01*
Y-39398D01*
X133348Y-39427D01*
X132775Y-39045D01*
X131800Y-38851D01*
X130824Y-39045D01*
X129998Y-39598D01*
X129445Y-40424D01*
X129251Y-41400D01*
X129445Y-42375D01*
X129863Y-43001D01*
Y-128599D01*
X129445Y-129225D01*
X129251Y-130200D01*
X129445Y-131175D01*
X129998Y-132002D01*
X130824Y-132555D01*
X131800Y-132749D01*
X132775Y-132555D01*
X133348Y-132173D01*
X133498Y-132202D01*
X133498Y-132202D01*
Y-132202D01*
X134325Y-132755D01*
X135300Y-132949D01*
X135663Y-133247D01*
Y-134599D01*
X135245Y-135224D01*
X135051Y-136200D01*
X135245Y-137176D01*
X135798Y-138002D01*
X136625Y-138555D01*
X137600Y-138749D01*
X138575Y-138555D01*
X139402Y-138002D01*
X139955Y-137176D01*
X140149Y-136200D01*
X140019Y-135545D01*
X140776Y-135395D01*
X141163Y-135712D01*
Y-139199D01*
X140745Y-139824D01*
X140551Y-140800D01*
X140745Y-141776D01*
X141298Y-142602D01*
X142124Y-143155D01*
X143100Y-143349D01*
X144076Y-143155D01*
X144902Y-142602D01*
X144902Y-142602D01*
X144902Y-142602D01*
X144902Y-142602D01*
Y-142602D01*
X144902D01*
X144975Y-142502D01*
D01*
X144975Y-142502D01*
X145802Y-143055D01*
X146777Y-143249D01*
X147753Y-143055D01*
X148580Y-142502D01*
X149132Y-141675D01*
X149326Y-140700D01*
X149132Y-139725D01*
X148714Y-139099D01*
Y-114669D01*
X150740D01*
Y-120800D01*
Y-129000D01*
Y-136499D01*
X150322Y-137125D01*
X150128Y-138100D01*
X150322Y-139076D01*
X150875Y-139902D01*
X151702Y-140455D01*
X152677Y-140649D01*
X153653Y-140455D01*
X154480Y-139902D01*
X155032Y-139076D01*
X155226Y-138100D01*
X155032Y-137125D01*
X154614Y-136499D01*
Y-120800D01*
Y-114669D01*
X156736D01*
Y-107731D01*
X148714D01*
Y-106795D01*
X156736D01*
Y-105263D01*
X157624D01*
Y-107853D01*
X166530D01*
Y-98947D01*
X157624D01*
Y-101389D01*
X156736D01*
Y-99857D01*
X148714D01*
Y-74885D01*
X149055Y-74375D01*
X149249Y-73400D01*
X149055Y-72425D01*
X148502Y-71598D01*
X147676Y-71045D01*
X146700Y-70851D01*
X145724Y-71045D01*
X145478Y-71210D01*
X145037Y-70974D01*
Y-39401D01*
X145455Y-38776D01*
X145649Y-37800D01*
X145455Y-36825D01*
X144902Y-35998D01*
X144076Y-35445D01*
X143100Y-35251D01*
X142916Y-35288D01*
X142563Y-34934D01*
X142649Y-34500D01*
X142455Y-33525D01*
X141902Y-32698D01*
X141076Y-32145D01*
X140100Y-31951D01*
X140099Y-31950D01*
X140149Y-31700D01*
X139955Y-30724D01*
X139402Y-29898D01*
X138575Y-29345D01*
X137600Y-29151D01*
D02*
G37*
G36*
X191177Y-8672D02*
X191015Y-8693D01*
X189932Y-9142D01*
X189002Y-9856D01*
X188288Y-10786D01*
X187839Y-11869D01*
X187686Y-13032D01*
Y-14000D01*
X191177D01*
Y-8672D01*
D02*
G37*
G36*
X193177D02*
Y-14000D01*
X196668D01*
Y-13032D01*
X196515Y-11869D01*
X196067Y-10786D01*
X195353Y-9856D01*
X194423Y-9142D01*
X193340Y-8693D01*
X193177Y-8672D01*
D02*
G37*
G36*
X211177D02*
X211015Y-8693D01*
X209932Y-9142D01*
X209001Y-9856D01*
X208288Y-10786D01*
X207839Y-11869D01*
X207686Y-13032D01*
Y-14000D01*
X211177D01*
Y-8672D01*
D02*
G37*
G36*
X156630Y-8579D02*
X153177D01*
Y-14000D01*
X156630D01*
Y-8579D01*
D02*
G37*
G36*
X171177Y-8672D02*
X171015Y-8693D01*
X169932Y-9142D01*
X169001Y-9856D01*
X168288Y-10786D01*
X167839Y-11869D01*
X167686Y-13032D01*
Y-14000D01*
X171177D01*
Y-8672D01*
D02*
G37*
G36*
X173177D02*
Y-14000D01*
X176668D01*
Y-13032D01*
X176515Y-11869D01*
X176067Y-10786D01*
X175353Y-9856D01*
X174423Y-9142D01*
X173340Y-8693D01*
X173177Y-8672D01*
D02*
G37*
G36*
X213177D02*
Y-14000D01*
X216668D01*
Y-13032D01*
X216515Y-11869D01*
X216067Y-10786D01*
X215353Y-9856D01*
X214423Y-9142D01*
X213340Y-8693D01*
X213177Y-8672D01*
D02*
G37*
G36*
X275430Y-8579D02*
X271977D01*
Y-14000D01*
X275430D01*
Y-8579D01*
D02*
G37*
G36*
X329377D02*
X325924D01*
Y-14000D01*
X329377D01*
Y-8579D01*
D02*
G37*
G36*
X334830D02*
X331377D01*
Y-14000D01*
X334830D01*
Y-8579D01*
D02*
G37*
G36*
X231177Y-8672D02*
X231015Y-8693D01*
X229932Y-9142D01*
X229001Y-9856D01*
X228288Y-10786D01*
X227839Y-11869D01*
X227686Y-13032D01*
Y-14000D01*
X231177D01*
Y-8672D01*
D02*
G37*
G36*
X233177D02*
Y-14000D01*
X236668D01*
Y-13032D01*
X236515Y-11869D01*
X236067Y-10786D01*
X235353Y-9856D01*
X234423Y-9142D01*
X233340Y-8693D01*
X233177Y-8672D01*
D02*
G37*
G36*
X269977Y-8579D02*
X266524D01*
Y-14000D01*
X269977D01*
Y-8579D01*
D02*
G37*
G36*
X151177D02*
X147724D01*
Y-14000D01*
X151177D01*
Y-8579D01*
D02*
G37*
G36*
X171177Y-16000D02*
X167686D01*
Y-16969D01*
X167839Y-18131D01*
X168288Y-19214D01*
X169001Y-20144D01*
X169932Y-20858D01*
X171015Y-21307D01*
X171177Y-21328D01*
Y-16000D01*
D02*
G37*
G36*
X176668D02*
X173177D01*
Y-21328D01*
X173340Y-21307D01*
X174423Y-20858D01*
X175353Y-20144D01*
X176067Y-19214D01*
X176515Y-18131D01*
X176668Y-16969D01*
Y-16000D01*
D02*
G37*
G36*
X191177D02*
X187686D01*
Y-16969D01*
X187839Y-18131D01*
X188288Y-19214D01*
X189002Y-20144D01*
X189932Y-20858D01*
X191015Y-21307D01*
X191177Y-21328D01*
Y-16000D01*
D02*
G37*
G36*
X47668D02*
X44177D01*
Y-21328D01*
X44340Y-21307D01*
X45423Y-20858D01*
X46353Y-20144D01*
X47067Y-19214D01*
X47515Y-18131D01*
X47668Y-16969D01*
Y-16000D01*
D02*
G37*
G36*
X101877D02*
X98386D01*
Y-16969D01*
X98539Y-18131D01*
X98988Y-19214D01*
X99701Y-20144D01*
X100632Y-20858D01*
X101715Y-21307D01*
X101877Y-21328D01*
Y-16000D01*
D02*
G37*
G36*
X107368D02*
X103877D01*
Y-21328D01*
X104040Y-21307D01*
X105123Y-20858D01*
X106053Y-20144D01*
X106767Y-19214D01*
X107215Y-18131D01*
X107368Y-16969D01*
Y-16000D01*
D02*
G37*
G36*
X196668D02*
X193177D01*
Y-21328D01*
X193340Y-21307D01*
X194423Y-20858D01*
X195353Y-20144D01*
X196067Y-19214D01*
X196515Y-18131D01*
X196668Y-16969D01*
Y-16000D01*
D02*
G37*
G36*
X236668D02*
X233177D01*
Y-21328D01*
X233340Y-21307D01*
X234423Y-20858D01*
X235353Y-20144D01*
X236067Y-19214D01*
X236515Y-18131D01*
X236668Y-16969D01*
Y-16000D01*
D02*
G37*
G36*
X42177Y-8672D02*
X42015Y-8693D01*
X40932Y-9142D01*
X40001Y-9856D01*
X39288Y-10786D01*
X38839Y-11869D01*
X38686Y-13032D01*
Y-14000D01*
X42177D01*
Y-8672D01*
D02*
G37*
G36*
X44177D02*
Y-14000D01*
X47668D01*
Y-13032D01*
X47515Y-11869D01*
X47067Y-10786D01*
X46353Y-9856D01*
X45423Y-9142D01*
X44340Y-8693D01*
X44177Y-8672D01*
D02*
G37*
G36*
X211177Y-16000D02*
X207686D01*
Y-16969D01*
X207839Y-18131D01*
X208288Y-19214D01*
X209001Y-20144D01*
X209932Y-20858D01*
X211015Y-21307D01*
X211177Y-21328D01*
Y-16000D01*
D02*
G37*
G36*
X216668D02*
X213177D01*
Y-21328D01*
X213340Y-21307D01*
X214423Y-20858D01*
X215353Y-20144D01*
X216067Y-19214D01*
X216515Y-18131D01*
X216668Y-16969D01*
Y-16000D01*
D02*
G37*
G36*
X231177D02*
X227686D01*
Y-16969D01*
X227839Y-18131D01*
X228288Y-19214D01*
X229001Y-20144D01*
X229932Y-20858D01*
X231015Y-21307D01*
X231177Y-21328D01*
Y-16000D01*
D02*
G37*
G36*
X356100Y-84684D02*
X354938Y-84837D01*
X353854Y-85286D01*
X352924Y-86000D01*
X352210Y-86930D01*
X351762Y-88013D01*
X351609Y-89176D01*
X351762Y-90338D01*
X352210Y-91421D01*
X352924Y-92351D01*
X353854Y-93065D01*
X354163Y-93193D01*
Y-96854D01*
X354098Y-96898D01*
X353545Y-97724D01*
X353351Y-98700D01*
X353545Y-99676D01*
X354098Y-100502D01*
X354925Y-101055D01*
X355900Y-101249D01*
X356875Y-101055D01*
X357702Y-100502D01*
X358255Y-99676D01*
X358449Y-98700D01*
X358255Y-97724D01*
X358037Y-97399D01*
Y-93193D01*
X358346Y-93065D01*
X359276Y-92351D01*
X359990Y-91421D01*
X360438Y-90338D01*
X360591Y-89176D01*
X360438Y-88013D01*
X359990Y-86930D01*
X359276Y-86000D01*
X358346Y-85286D01*
X357262Y-84837D01*
X356100Y-84684D01*
D02*
G37*
G36*
X54077Y-96174D02*
X51609D01*
Y-97855D01*
X54077D01*
Y-96174D01*
D02*
G37*
G36*
X58546D02*
X56077D01*
Y-97855D01*
X58546D01*
Y-96174D01*
D02*
G37*
G36*
X328100Y-65609D02*
X326938Y-65762D01*
X325854Y-66211D01*
X324924Y-66924D01*
X324211Y-67854D01*
X323762Y-68938D01*
X323609Y-70100D01*
X323762Y-71262D01*
X324211Y-72346D01*
X324924Y-73276D01*
X325663Y-73842D01*
Y-101699D01*
X325245Y-102324D01*
X325051Y-103300D01*
X325245Y-104276D01*
X325798Y-105102D01*
X326624Y-105655D01*
X327600Y-105849D01*
X328575Y-105655D01*
X329402Y-105102D01*
X329955Y-104276D01*
X330149Y-103300D01*
X329955Y-102324D01*
X329537Y-101699D01*
Y-74324D01*
X330346Y-73989D01*
X331276Y-73276D01*
X331990Y-72346D01*
X332438Y-71262D01*
X332591Y-70100D01*
X332438Y-68938D01*
X331990Y-67854D01*
X331276Y-66924D01*
X330346Y-66211D01*
X329262Y-65762D01*
X328100Y-65609D01*
D02*
G37*
G36*
X166437Y-114400D02*
X163077D01*
Y-117760D01*
X163240Y-117738D01*
X164323Y-117289D01*
X165253Y-116576D01*
X165967Y-115646D01*
X166415Y-114562D01*
X166437Y-114400D01*
D02*
G37*
G36*
X161077Y-109040D02*
X160915Y-109062D01*
X159832Y-109511D01*
X158902Y-110224D01*
X158188Y-111154D01*
X157739Y-112238D01*
X157718Y-112400D01*
X161077D01*
Y-109040D01*
D02*
G37*
G36*
X163077D02*
Y-112400D01*
X166437D01*
X166415Y-112238D01*
X165967Y-111154D01*
X165253Y-110224D01*
X164323Y-109511D01*
X163240Y-109062D01*
X163077Y-109040D01*
D02*
G37*
G36*
X58546Y-92493D02*
X56077D01*
Y-94174D01*
X58546D01*
Y-92493D01*
D02*
G37*
G36*
X7677Y-86939D02*
Y-90100D01*
X10838D01*
X10824Y-89989D01*
X10395Y-88954D01*
X9713Y-88065D01*
X8823Y-87383D01*
X7788Y-86954D01*
X7677Y-86939D01*
D02*
G37*
G36*
X28377Y-87407D02*
X27266Y-87554D01*
X26231Y-87982D01*
X25342Y-88665D01*
X25335Y-88674D01*
X20520D01*
X20513Y-88665D01*
X19624Y-87982D01*
X18588Y-87554D01*
X17477Y-87407D01*
X16366Y-87554D01*
X15331Y-87982D01*
X14442Y-88665D01*
X13760Y-89554D01*
X13331Y-90589D01*
X13185Y-91700D01*
X13331Y-92811D01*
X13760Y-93846D01*
X14442Y-94735D01*
X15331Y-95417D01*
X16366Y-95846D01*
X17477Y-95993D01*
X18588Y-95846D01*
X19624Y-95417D01*
X20513Y-94735D01*
X20520Y-94726D01*
X25335D01*
X25342Y-94735D01*
X26231Y-95417D01*
X27266Y-95846D01*
X28377Y-95993D01*
X29488Y-95846D01*
X30523Y-95417D01*
X31413Y-94735D01*
X32095Y-93846D01*
X32524Y-92811D01*
X32670Y-91700D01*
X32524Y-90589D01*
X32095Y-89554D01*
X31413Y-88665D01*
X30523Y-87982D01*
X29488Y-87554D01*
X28377Y-87407D01*
D02*
G37*
G36*
X54077Y-92493D02*
X52373D01*
Y-94174D01*
X54077D01*
Y-92493D01*
D02*
G37*
G36*
X51609Y-94200D02*
X50200D01*
Y-96078D01*
X51609D01*
Y-94200D01*
D02*
G37*
G36*
X10838Y-92100D02*
X7677D01*
Y-95261D01*
X7788Y-95246D01*
X8823Y-94818D01*
X9713Y-94135D01*
X10395Y-93246D01*
X10824Y-92211D01*
X10838Y-92100D01*
D02*
G37*
G36*
X338100Y-65609D02*
X336938Y-65762D01*
X335854Y-66211D01*
X334924Y-66924D01*
X334210Y-67854D01*
X333762Y-68938D01*
X333609Y-70100D01*
X333762Y-71262D01*
X334210Y-72346D01*
X334924Y-73276D01*
X335663Y-73842D01*
Y-84100D01*
Y-84900D01*
Y-90450D01*
X335145Y-91224D01*
X334951Y-92200D01*
X335145Y-93176D01*
X335698Y-94002D01*
X336525Y-94555D01*
X337500Y-94749D01*
X338475Y-94555D01*
X339302Y-94002D01*
X339855Y-93176D01*
X340049Y-92200D01*
X339855Y-91224D01*
X339537Y-90749D01*
Y-84900D01*
Y-84100D01*
Y-74324D01*
X340346Y-73989D01*
X341276Y-73276D01*
X341989Y-72346D01*
X342438Y-71262D01*
X342591Y-70100D01*
X342438Y-68938D01*
X341989Y-67854D01*
X341276Y-66924D01*
X340346Y-66211D01*
X339262Y-65762D01*
X338100Y-65609D01*
D02*
G37*
G36*
X207200Y-128300D02*
X204141D01*
Y-130769D01*
X207200D01*
Y-128300D01*
D02*
G37*
G36*
X366100Y-84684D02*
X364938Y-84837D01*
X363854Y-85286D01*
X362924Y-86000D01*
X362210Y-86930D01*
X361762Y-88013D01*
X361609Y-89176D01*
X361762Y-90338D01*
X362210Y-91421D01*
X362924Y-92351D01*
X363854Y-93065D01*
X364163Y-93193D01*
Y-124135D01*
X363615Y-124954D01*
X363421Y-125930D01*
X363615Y-126905D01*
X364168Y-127732D01*
X364995Y-128285D01*
X365970Y-128479D01*
X366946Y-128285D01*
X367773Y-127732D01*
X368325Y-126905D01*
X368519Y-125930D01*
X368325Y-124954D01*
X368037Y-124524D01*
Y-93193D01*
X368346Y-93065D01*
X369276Y-92351D01*
X369989Y-91421D01*
X370438Y-90338D01*
X370591Y-89176D01*
X370438Y-88013D01*
X369989Y-86930D01*
X369276Y-86000D01*
X368346Y-85286D01*
X367262Y-84837D01*
X366100Y-84684D01*
D02*
G37*
G36*
X183100Y-124000D02*
X180631D01*
Y-127059D01*
X183100D01*
Y-124000D01*
D02*
G37*
G36*
X187568Y-128141D02*
X185100D01*
Y-131200D01*
X187568D01*
Y-128141D01*
D02*
G37*
G36*
X108994Y-28041D02*
X102058D01*
Y-36159D01*
X103589D01*
Y-36942D01*
X102620D01*
Y-45257D01*
X103463D01*
Y-141449D01*
X103145Y-141925D01*
X102951Y-142900D01*
X103145Y-143876D01*
X103698Y-144702D01*
X104525Y-145255D01*
X105500Y-145449D01*
X106475Y-145255D01*
X107302Y-144702D01*
X107855Y-143876D01*
X108049Y-142900D01*
X107855Y-141925D01*
X107337Y-141150D01*
Y-45257D01*
X108179D01*
Y-36942D01*
X107463D01*
Y-36159D01*
X108994D01*
Y-28041D01*
D02*
G37*
G36*
X376100Y-84684D02*
X374938Y-84837D01*
X373854Y-85286D01*
X372924Y-86000D01*
X372211Y-86930D01*
X371762Y-88013D01*
X371609Y-89176D01*
X371762Y-90338D01*
X372211Y-91421D01*
X372924Y-92351D01*
X373854Y-93065D01*
X374163Y-93193D01*
Y-135899D01*
X373745Y-136524D01*
X373551Y-137500D01*
X373745Y-138476D01*
X374298Y-139302D01*
X375125Y-139855D01*
X376100Y-140049D01*
X377076Y-139855D01*
X377902Y-139302D01*
X378455Y-138476D01*
X378649Y-137500D01*
X378455Y-136524D01*
X378037Y-135899D01*
Y-93193D01*
X378346Y-93065D01*
X379276Y-92351D01*
X379990Y-91421D01*
X380438Y-90338D01*
X380591Y-89176D01*
X380438Y-88013D01*
X379990Y-86930D01*
X379276Y-86000D01*
X378346Y-85286D01*
X377262Y-84837D01*
X376100Y-84684D01*
D02*
G37*
G36*
X183100Y-128141D02*
X180631D01*
Y-131200D01*
X183100D01*
Y-128141D01*
D02*
G37*
G36*
X350553Y-84723D02*
X341647D01*
Y-93628D01*
X344163D01*
Y-113699D01*
X343745Y-114324D01*
X343551Y-115300D01*
X343745Y-116276D01*
X344298Y-117102D01*
X345125Y-117655D01*
X346100Y-117849D01*
X347076Y-117655D01*
X347902Y-117102D01*
X348455Y-116276D01*
X348649Y-115300D01*
X348455Y-114324D01*
X348037Y-113699D01*
Y-93628D01*
X350553D01*
Y-84723D01*
D02*
G37*
G36*
X318100Y-65609D02*
X316938Y-65762D01*
X315854Y-66211D01*
X314924Y-66924D01*
X314211Y-67854D01*
X313762Y-68938D01*
X313609Y-70100D01*
X313762Y-71262D01*
X314211Y-72346D01*
X314924Y-73276D01*
X315663Y-73842D01*
Y-113695D01*
X315245Y-114320D01*
X315051Y-115295D01*
X315245Y-116271D01*
X315798Y-117098D01*
X316624Y-117650D01*
X317600Y-117844D01*
X318576Y-117650D01*
X319402Y-117098D01*
X319955Y-116271D01*
X320149Y-115295D01*
X319955Y-114320D01*
X319537Y-113695D01*
Y-74324D01*
X320346Y-73989D01*
X321276Y-73276D01*
X321989Y-72346D01*
X322438Y-71262D01*
X322591Y-70100D01*
X322438Y-68938D01*
X321989Y-67854D01*
X321276Y-66924D01*
X320346Y-66211D01*
X319262Y-65762D01*
X318100Y-65609D01*
D02*
G37*
G36*
X161077Y-114400D02*
X157718D01*
X157739Y-114562D01*
X158188Y-115646D01*
X158902Y-116576D01*
X159832Y-117289D01*
X160915Y-117738D01*
X161077Y-117760D01*
Y-114400D01*
D02*
G37*
G36*
X187568Y-118941D02*
X185100D01*
Y-122000D01*
X187568D01*
Y-118941D01*
D02*
G37*
G36*
Y-124000D02*
X185100D01*
Y-127059D01*
X187568D01*
Y-124000D01*
D02*
G37*
G36*
X207200Y-123831D02*
X204141D01*
Y-126300D01*
X207200D01*
Y-123831D01*
D02*
G37*
G36*
X183100Y-118941D02*
X180631D01*
Y-122000D01*
X183100D01*
Y-118941D01*
D02*
G37*
G36*
X9100Y-64809D02*
X7938Y-64962D01*
X6854Y-65411D01*
X5924Y-66124D01*
X5210Y-67054D01*
X4762Y-68138D01*
X4609Y-69300D01*
X4762Y-70462D01*
X5210Y-71546D01*
X5924Y-72476D01*
X6854Y-73190D01*
X7938Y-73638D01*
X9100Y-73791D01*
X10262Y-73638D01*
X11346Y-73190D01*
X12276Y-72476D01*
X12990Y-71546D01*
X13438Y-70462D01*
X13591Y-69300D01*
X13438Y-68138D01*
X12990Y-67054D01*
X12276Y-66124D01*
X11346Y-65411D01*
X10262Y-64962D01*
X9100Y-64809D01*
D02*
G37*
G36*
X377100Y-65647D02*
X373647D01*
Y-69100D01*
X377100D01*
Y-65647D01*
D02*
G37*
G36*
X382553D02*
X379100D01*
Y-69100D01*
X382553D01*
Y-65647D01*
D02*
G37*
G36*
X358100Y-65609D02*
X356938Y-65762D01*
X355854Y-66211D01*
X354924Y-66924D01*
X354210Y-67854D01*
X353762Y-68938D01*
X353609Y-70100D01*
X353762Y-71262D01*
X354210Y-72346D01*
X354924Y-73276D01*
X355854Y-73989D01*
X356938Y-74438D01*
X358100Y-74591D01*
X359262Y-74438D01*
X360346Y-73989D01*
X361276Y-73276D01*
X361989Y-72346D01*
X362438Y-71262D01*
X362591Y-70100D01*
X362438Y-68938D01*
X361989Y-67854D01*
X361276Y-66924D01*
X360346Y-66211D01*
X359262Y-65762D01*
X358100Y-65609D01*
D02*
G37*
G36*
X377100Y-71100D02*
X373647D01*
Y-74553D01*
X377100D01*
Y-71100D01*
D02*
G37*
G36*
X382553D02*
X379100D01*
Y-74553D01*
X382553D01*
Y-71100D01*
D02*
G37*
G36*
X8100Y-60300D02*
X4741D01*
X4762Y-60462D01*
X5210Y-61546D01*
X5924Y-62476D01*
X6854Y-63190D01*
X7938Y-63638D01*
X8100Y-63660D01*
Y-60300D01*
D02*
G37*
G36*
X10100Y-54940D02*
Y-58300D01*
X13460D01*
X13438Y-58138D01*
X12990Y-57054D01*
X12276Y-56124D01*
X11346Y-55410D01*
X10262Y-54962D01*
X10100Y-54940D01*
D02*
G37*
G36*
X9100Y-44809D02*
X7938Y-44962D01*
X6854Y-45410D01*
X5924Y-46124D01*
X5210Y-47054D01*
X4762Y-48138D01*
X4609Y-49300D01*
X4762Y-50462D01*
X5210Y-51546D01*
X5924Y-52476D01*
X6854Y-53189D01*
X7938Y-53638D01*
X9100Y-53791D01*
X10262Y-53638D01*
X11346Y-53189D01*
X12276Y-52476D01*
X12990Y-51546D01*
X13438Y-50462D01*
X13591Y-49300D01*
X13438Y-48138D01*
X12990Y-47054D01*
X12276Y-46124D01*
X11346Y-45410D01*
X10262Y-44962D01*
X9100Y-44809D01*
D02*
G37*
G36*
X351049Y-51680D02*
X348942D01*
X349470Y-52471D01*
X350292Y-53020D01*
X351049Y-53171D01*
Y-51680D01*
D02*
G37*
G36*
X13460Y-60300D02*
X10100D01*
Y-63660D01*
X10262Y-63638D01*
X11346Y-63190D01*
X12276Y-62476D01*
X12990Y-61546D01*
X13438Y-60462D01*
X13460Y-60300D01*
D02*
G37*
G36*
X117628Y-36942D02*
X112069D01*
Y-39971D01*
X111926Y-40317D01*
X111823Y-41100D01*
X111926Y-41883D01*
X112069Y-42229D01*
Y-45257D01*
X116074D01*
Y-56194D01*
X116043Y-56235D01*
X115690Y-57086D01*
X115570Y-58000D01*
X115690Y-58914D01*
X116043Y-59765D01*
X116604Y-60496D01*
X117335Y-61057D01*
X118186Y-61410D01*
X119100Y-61530D01*
X120014Y-61410D01*
X120865Y-61057D01*
X121596Y-60496D01*
X122157Y-59765D01*
X122510Y-58914D01*
X122630Y-58000D01*
X122510Y-57086D01*
X122157Y-56235D01*
X122126Y-56194D01*
Y-42706D01*
X122157Y-42665D01*
X122510Y-41814D01*
X122630Y-40900D01*
X122510Y-39986D01*
X122157Y-39135D01*
X121596Y-38404D01*
X120865Y-37843D01*
X120014Y-37490D01*
X119100Y-37370D01*
X118186Y-37490D01*
X118044Y-37549D01*
X117628Y-37271D01*
Y-36942D01*
D02*
G37*
G36*
X8100Y-54940D02*
X7938Y-54962D01*
X6854Y-55410D01*
X5924Y-56124D01*
X5210Y-57054D01*
X4762Y-58138D01*
X4741Y-58300D01*
X8100D01*
Y-54940D01*
D02*
G37*
G36*
X348100Y-65609D02*
X346938Y-65762D01*
X345854Y-66211D01*
X344924Y-66924D01*
X344211Y-67854D01*
X343762Y-68938D01*
X343609Y-70100D01*
X343762Y-71262D01*
X344211Y-72346D01*
X344924Y-73276D01*
X345854Y-73989D01*
X346938Y-74438D01*
X348100Y-74591D01*
X349262Y-74438D01*
X350346Y-73989D01*
X351276Y-73276D01*
X351990Y-72346D01*
X352438Y-71262D01*
X352591Y-70100D01*
X352438Y-68938D01*
X351990Y-67854D01*
X351276Y-66924D01*
X350346Y-66211D01*
X349262Y-65762D01*
X348100Y-65609D01*
D02*
G37*
G36*
X187268Y-82100D02*
X184800D01*
Y-85159D01*
X187268D01*
Y-82100D01*
D02*
G37*
G36*
X277300Y-81432D02*
X274241D01*
Y-83900D01*
X277300D01*
Y-81432D01*
D02*
G37*
G36*
X201100Y-77241D02*
X198632D01*
Y-80300D01*
X201100D01*
Y-77241D01*
D02*
G37*
G36*
X182800Y-82100D02*
X180332D01*
Y-85159D01*
X182800D01*
Y-82100D01*
D02*
G37*
G36*
X277300Y-85900D02*
X274241D01*
Y-88368D01*
X277300D01*
Y-85900D01*
D02*
G37*
G36*
X201100Y-82300D02*
X198632D01*
Y-85359D01*
X201100D01*
Y-82300D01*
D02*
G37*
G36*
X205569D02*
X203100D01*
Y-85359D01*
X205569D01*
Y-82300D01*
D02*
G37*
G36*
X187268Y-77041D02*
X184800D01*
Y-80100D01*
X187268D01*
Y-77041D01*
D02*
G37*
G36*
X308100Y-65609D02*
X306938Y-65762D01*
X305854Y-66211D01*
X304924Y-66924D01*
X304210Y-67854D01*
X303762Y-68938D01*
X303609Y-70100D01*
X303762Y-71262D01*
X304210Y-72346D01*
X304924Y-73276D01*
X305663Y-73842D01*
Y-74199D01*
X305245Y-74825D01*
X305051Y-75800D01*
X305245Y-76775D01*
X305798Y-77602D01*
X306625Y-78155D01*
X307600Y-78349D01*
X308576Y-78155D01*
X309402Y-77602D01*
X309955Y-76775D01*
X310149Y-75800D01*
X309955Y-74825D01*
X309822Y-74625D01*
X309967Y-74146D01*
X310346Y-73989D01*
X311276Y-73276D01*
X311989Y-72346D01*
X312438Y-71262D01*
X312591Y-70100D01*
X312438Y-68938D01*
X311989Y-67854D01*
X311276Y-66924D01*
X310346Y-66211D01*
X309262Y-65762D01*
X308100Y-65609D01*
D02*
G37*
G36*
X37630Y-8579D02*
X28725D01*
Y-21421D01*
X31140D01*
Y-29531D01*
X29018D01*
Y-31063D01*
X28200D01*
X27459Y-31210D01*
X26830Y-31630D01*
X24130Y-34330D01*
X23710Y-34959D01*
X23563Y-35700D01*
Y-71799D01*
X23145Y-72425D01*
X22951Y-73400D01*
X23145Y-74375D01*
X23698Y-75202D01*
X24524Y-75755D01*
X24633Y-75776D01*
X24584Y-76274D01*
X13553D01*
Y-74847D01*
X4647D01*
Y-83753D01*
X13553D01*
Y-82326D01*
X29400D01*
X30183Y-82223D01*
X30699Y-82009D01*
X30913Y-81920D01*
X31540Y-81440D01*
X34985Y-77994D01*
X35447Y-78185D01*
Y-80653D01*
X43240D01*
Y-99234D01*
X42845Y-99825D01*
X42651Y-100800D01*
X42845Y-101776D01*
X43398Y-102602D01*
X44225Y-103155D01*
X45200Y-103349D01*
X46176Y-103155D01*
X47002Y-102602D01*
X47555Y-101776D01*
X47749Y-100800D01*
X47555Y-99825D01*
X47114Y-99165D01*
Y-96078D01*
X48200D01*
Y-93199D01*
X49199D01*
Y-92200D01*
X52373D01*
Y-90322D01*
D01*
Y-90322D01*
X52373Y-90322D01*
Y-90172D01*
D01*
X52373Y-89981D01*
X58546D01*
Y-89981D01*
X58825Y-89655D01*
Y-89655D01*
D01*
X59800Y-89849D01*
X60776Y-89655D01*
X61010Y-89498D01*
X61451Y-89734D01*
Y-93918D01*
X62880D01*
Y-141032D01*
X62565Y-141505D01*
X62371Y-142480D01*
X62565Y-143456D01*
X63117Y-144283D01*
X63944Y-144835D01*
X64920Y-145029D01*
X65895Y-144835D01*
X66722Y-144283D01*
X67275Y-143456D01*
X67469Y-142480D01*
X67275Y-141505D01*
X66959Y-141032D01*
Y-120540D01*
X67400Y-120305D01*
X67624Y-120455D01*
X68600Y-120649D01*
X69576Y-120455D01*
X69722Y-120357D01*
X70163Y-120593D01*
Y-122258D01*
X69641Y-122362D01*
X68814Y-122914D01*
X68262Y-123741D01*
X68068Y-124717D01*
X68262Y-125692D01*
X68814Y-126519D01*
X69641Y-127072D01*
X70617Y-127266D01*
X71592Y-127072D01*
X72419Y-126519D01*
X72972Y-125692D01*
X73118Y-124955D01*
X73470Y-124603D01*
X73890Y-123975D01*
X74037Y-123234D01*
Y-77801D01*
X74455Y-77175D01*
X74649Y-76200D01*
X74455Y-75225D01*
X73902Y-74398D01*
X73075Y-73845D01*
X72100Y-73651D01*
X71125Y-73845D01*
X70978Y-73943D01*
X70537Y-73707D01*
Y-72801D01*
X70955Y-72176D01*
X71149Y-71200D01*
X70955Y-70224D01*
X70402Y-69398D01*
X69576Y-68845D01*
X68600Y-68651D01*
X67624Y-68845D01*
X66798Y-69398D01*
X66245Y-70224D01*
X66051Y-71200D01*
X66245Y-72176D01*
X66663Y-72801D01*
Y-88556D01*
X62493D01*
X62176Y-88169D01*
X62349Y-87300D01*
X62155Y-86325D01*
X61602Y-85498D01*
X60776Y-84945D01*
X59800Y-84751D01*
X58825Y-84945D01*
X58546Y-84619D01*
Y-84619D01*
X52373D01*
Y-84417D01*
X47114D01*
Y-44958D01*
X47957D01*
Y-36643D01*
X47240D01*
Y-35359D01*
X48772D01*
Y-27241D01*
X41835D01*
Y-35359D01*
X43366D01*
Y-36643D01*
X42398D01*
Y-39158D01*
X41907Y-39256D01*
X41857Y-39135D01*
X41296Y-38404D01*
X40565Y-37843D01*
X39714Y-37490D01*
X38800Y-37370D01*
X37886Y-37490D01*
X37501Y-37650D01*
X37136Y-37405D01*
Y-37405D01*
X29018D01*
Y-44342D01*
X30051D01*
Y-74369D01*
X28147Y-76274D01*
X26416D01*
X26367Y-75776D01*
X26476Y-75755D01*
X27302Y-75202D01*
X27855Y-74375D01*
X28049Y-73400D01*
X27855Y-72425D01*
X27437Y-71799D01*
Y-36502D01*
X28556Y-35383D01*
X29018Y-35575D01*
Y-36468D01*
X37136D01*
Y-29531D01*
X35014D01*
Y-21421D01*
X37630D01*
Y-8579D01*
D02*
G37*
G36*
X205569Y-77241D02*
X203100D01*
Y-80300D01*
X205569D01*
Y-77241D01*
D02*
G37*
G36*
X182800Y-77041D02*
X180332D01*
Y-80100D01*
X182800D01*
Y-77041D01*
D02*
G37*
%LPD*%
G36*
X181077Y-265600D02*
X184577Y-269100D01*
Y-279800D01*
X171177D01*
Y-265400D01*
X169577Y-263800D01*
X91977D01*
X89177Y-261000D01*
Y-245200D01*
X181077D01*
Y-265600D01*
D02*
G37*
G36*
X42398Y-42642D02*
Y-44958D01*
X43240D01*
Y-52585D01*
X42792Y-52806D01*
X42146Y-52311D01*
X41062Y-51862D01*
X40900Y-51841D01*
Y-56201D01*
X38900D01*
Y-51841D01*
X38738Y-51862D01*
X37654Y-52311D01*
X36724Y-53024D01*
X36577Y-53217D01*
X36103Y-53056D01*
Y-44342D01*
X37136D01*
Y-44342D01*
X37453Y-44131D01*
X37886Y-44310D01*
X38800Y-44430D01*
X39714Y-44310D01*
X40565Y-43957D01*
X41296Y-43396D01*
X41857Y-42665D01*
X41907Y-42544D01*
X42398Y-42642D01*
D02*
G37*
D10*
X183200Y-167399D02*
D03*
Y-161493D02*
D03*
X368061Y-43194D02*
D03*
Y-49100D02*
D03*
X189600Y-161493D02*
D03*
Y-167399D02*
D03*
X256600Y-180905D02*
D03*
Y-175000D02*
D03*
X263200Y-174894D02*
D03*
Y-180800D02*
D03*
X49200Y-93200D02*
D03*
Y-87295D02*
D03*
X331061Y-37300D02*
D03*
Y-43205D02*
D03*
X360838Y-49100D02*
D03*
Y-43194D02*
D03*
X324761Y-43200D02*
D03*
Y-37295D02*
D03*
D11*
X217900Y-100674D02*
D03*
Y-94769D02*
D03*
Y-96737D02*
D03*
Y-98706D02*
D03*
Y-102643D02*
D03*
Y-104611D02*
D03*
Y-106579D02*
D03*
Y-108548D02*
D03*
Y-110517D02*
D03*
Y-112485D02*
D03*
Y-114453D02*
D03*
X267113Y-122328D02*
D03*
Y-120359D02*
D03*
Y-118391D02*
D03*
Y-116422D02*
D03*
Y-114453D02*
D03*
Y-112485D02*
D03*
Y-110517D02*
D03*
Y-108548D02*
D03*
Y-106579D02*
D03*
Y-104611D02*
D03*
Y-102643D02*
D03*
Y-100674D02*
D03*
Y-98706D02*
D03*
Y-96737D02*
D03*
Y-94769D02*
D03*
Y-92800D02*
D03*
X217900Y-116422D02*
D03*
Y-120359D02*
D03*
Y-118391D02*
D03*
Y-122328D02*
D03*
D12*
Y-92800D02*
D03*
D13*
X227743Y-132170D02*
D03*
X229711D02*
D03*
X231680D02*
D03*
X233648D02*
D03*
X235617D02*
D03*
X237585D02*
D03*
X239554D02*
D03*
X241522D02*
D03*
X243491D02*
D03*
X245459D02*
D03*
X247428D02*
D03*
X249396D02*
D03*
X251365D02*
D03*
X253333D02*
D03*
X255302D02*
D03*
X257270D02*
D03*
Y-82958D02*
D03*
X255302D02*
D03*
X253333D02*
D03*
X251365D02*
D03*
X249396D02*
D03*
X247428D02*
D03*
X245459D02*
D03*
X243491D02*
D03*
X241522D02*
D03*
X239554D02*
D03*
X237585D02*
D03*
X235617D02*
D03*
X233648D02*
D03*
X231680D02*
D03*
X229711D02*
D03*
X227743D02*
D03*
D14*
X305661Y-52000D02*
D03*
Y-43000D02*
D03*
X315761Y-52100D02*
D03*
Y-43100D02*
D03*
D15*
X48472Y-125900D02*
D03*
X54377D02*
D03*
D16*
X295200Y-42900D02*
D03*
Y-50774D02*
D03*
X287400Y-42700D02*
D03*
Y-50574D02*
D03*
X242177Y-31700D02*
D03*
Y-39574D02*
D03*
X222152D02*
D03*
Y-31700D02*
D03*
X162077D02*
D03*
Y-39574D02*
D03*
X152677Y-111200D02*
D03*
Y-103326D02*
D03*
X182102Y-31700D02*
D03*
Y-39574D02*
D03*
X202127Y-31700D02*
D03*
Y-39574D02*
D03*
X207200Y-106300D02*
D03*
Y-98426D02*
D03*
X208200Y-119426D02*
D03*
Y-127300D02*
D03*
X225600Y-143326D02*
D03*
Y-151200D02*
D03*
X278300Y-92774D02*
D03*
Y-84900D02*
D03*
X33077Y-40874D02*
D03*
Y-33000D02*
D03*
D17*
X321177Y-263100D02*
D03*
Y-250305D02*
D03*
X292077Y-263300D02*
D03*
Y-250505D02*
D03*
X306977Y-263400D02*
D03*
Y-250605D02*
D03*
X283477Y-293800D02*
D03*
Y-281005D02*
D03*
X152177Y-215600D02*
D03*
Y-228395D02*
D03*
X297477Y-293800D02*
D03*
Y-281005D02*
D03*
D18*
X278955Y-258938D02*
D03*
Y-248938D02*
D03*
X256917D02*
D03*
X278955Y-263938D02*
D03*
X256917Y-258938D02*
D03*
Y-263938D02*
D03*
X278955Y-253938D02*
D03*
X256917D02*
D03*
X258099Y-213162D02*
D03*
Y-223162D02*
D03*
X280137D02*
D03*
X258099Y-208162D02*
D03*
X280137Y-213162D02*
D03*
Y-208162D02*
D03*
X258099Y-218162D02*
D03*
X280137D02*
D03*
X309899Y-292662D02*
D03*
Y-302662D02*
D03*
X331937D02*
D03*
X309899Y-287662D02*
D03*
X331937Y-292662D02*
D03*
Y-287662D02*
D03*
X309899Y-297662D02*
D03*
X331937D02*
D03*
X164999Y-251362D02*
D03*
Y-261362D02*
D03*
X187037D02*
D03*
X164999Y-246362D02*
D03*
X187037Y-251362D02*
D03*
Y-246362D02*
D03*
X164999Y-256362D02*
D03*
X187037D02*
D03*
D19*
X266169Y-248564D02*
D03*
Y-264312D02*
D03*
X270885Y-223536D02*
D03*
Y-207788D02*
D03*
X322685Y-303036D02*
D03*
Y-287288D02*
D03*
X177785Y-261736D02*
D03*
Y-245988D02*
D03*
D20*
X270205Y-251817D02*
D03*
X266850Y-220283D02*
D03*
X318650Y-299783D02*
D03*
X173750Y-258483D02*
D03*
D21*
X270205Y-260059D02*
D03*
X266850Y-212041D02*
D03*
X318650Y-291541D02*
D03*
X173750Y-250241D02*
D03*
D22*
X232777Y-231606D02*
D03*
Y-215700D02*
D03*
D23*
X228077Y-243800D02*
D03*
X215282D02*
D03*
X228677Y-270300D02*
D03*
X215882D02*
D03*
X228477Y-257300D02*
D03*
X215682D02*
D03*
D24*
X116777Y-215536D02*
D03*
Y-255300D02*
D03*
D25*
X218677Y-182474D02*
D03*
X210803D02*
D03*
X242077Y-182374D02*
D03*
X234203D02*
D03*
X142600Y-181900D02*
D03*
X150474D02*
D03*
X218377Y-174300D02*
D03*
X210503D02*
D03*
X242077D02*
D03*
X234203D02*
D03*
X142000Y-172900D02*
D03*
X149874D02*
D03*
X53177Y-31300D02*
D03*
X45303D02*
D03*
X184000Y-140500D02*
D03*
X191874D02*
D03*
X113400Y-32100D02*
D03*
X105526D02*
D03*
X191674Y-81100D02*
D03*
X183800D02*
D03*
X191974Y-123000D02*
D03*
X184100D02*
D03*
X191974Y-132200D02*
D03*
X184100D02*
D03*
X209974Y-81300D02*
D03*
X202100D02*
D03*
X116826Y-182400D02*
D03*
X124700D02*
D03*
X117026Y-172900D02*
D03*
X124900D02*
D03*
D26*
X201298Y-291500D02*
D03*
X149498Y-292400D02*
D03*
X96798Y-292200D02*
D03*
D27*
X215471Y-286579D02*
D03*
X215471Y-296421D02*
D03*
X163671Y-287479D02*
D03*
X163671Y-297321D02*
D03*
X110971Y-287279D02*
D03*
X110971Y-297121D02*
D03*
D28*
X239683Y-282445D02*
D03*
Y-300555D02*
D03*
X187883Y-283345D02*
D03*
Y-301455D02*
D03*
X135183Y-283145D02*
D03*
Y-301255D02*
D03*
D29*
X161026Y-341200D02*
D03*
Y-323700D02*
D03*
X211174Y-341200D02*
D03*
Y-323700D02*
D03*
X109677Y-341300D02*
D03*
Y-323800D02*
D03*
X260177Y-342000D02*
D03*
Y-324500D02*
D03*
D30*
X257656Y-302350D02*
D03*
X267656D02*
D03*
Y-280313D02*
D03*
X252656Y-302350D02*
D03*
X257656Y-280313D02*
D03*
X252656D02*
D03*
X262656Y-302350D02*
D03*
Y-280313D02*
D03*
D31*
X268030Y-289565D02*
D03*
X252282D02*
D03*
D32*
X264777Y-293600D02*
D03*
D33*
X256535D02*
D03*
D34*
X54626Y-40800D02*
D03*
X45177D02*
D03*
X114849Y-41100D02*
D03*
X105400D02*
D03*
D35*
X191700Y-110968D02*
D03*
Y-94432D02*
D03*
D36*
X340238Y-50680D02*
D03*
Y-46940D02*
D03*
X352049Y-50680D02*
D03*
D37*
Y-43200D02*
D03*
D38*
X340238D02*
D03*
D39*
X54077Y-149600D02*
D03*
X50140Y-159442D02*
D03*
X46203Y-149600D02*
D03*
D40*
X55077Y-87300D02*
D03*
X64920Y-91237D02*
D03*
X55077Y-95174D02*
D03*
D41*
X76189Y-235411D02*
X79877Y-239100D01*
X75000Y-234223D02*
X76189Y-235411D01*
X117003Y-175800D02*
Y-172900D01*
X75000Y-234223D02*
Y-210400D01*
X78700Y-206700D01*
X98700D01*
X101700Y-203700D01*
Y-182600D01*
X117003Y-172900D02*
X117026D01*
X106400Y-177900D02*
X116903D01*
X101700Y-182600D02*
X106400Y-177900D01*
X116826Y-182400D02*
X117026Y-182200D01*
Y-172900D01*
X22977Y-132600D02*
Y-124400D01*
X21177Y-134400D02*
X22977Y-132600D01*
X21177Y-143400D02*
Y-134400D01*
X227525Y-138975D02*
X229951D01*
X231680Y-137247D01*
X225600Y-140900D02*
X227525Y-138975D01*
X225600Y-143326D02*
Y-140900D01*
X231680Y-137247D02*
Y-132170D01*
X182806Y-161099D02*
X183200Y-161493D01*
X231648Y-132139D02*
X231680Y-132170D01*
X217900Y-116422D02*
X217932Y-116391D01*
X48700Y-128500D02*
Y-126128D01*
X48472Y-125900D02*
X48700Y-126128D01*
X46203Y-130997D02*
X48700Y-128500D01*
X46203Y-149600D02*
Y-130997D01*
X64900Y-142500D02*
X64920Y-142480D01*
Y-91237D01*
X278274Y-92800D02*
X278300Y-92774D01*
X209974Y-90374D02*
X212400Y-92800D01*
X209974Y-90374D02*
Y-81300D01*
X212400Y-92800D02*
X217900D01*
X64877Y-91194D02*
X64920Y-91237D01*
X79877Y-260600D02*
Y-239100D01*
X249665Y-280313D02*
X252656D01*
X191477Y-227100D02*
Y-214000D01*
X248177Y-281800D02*
X249665Y-280313D01*
X109277Y-269700D02*
X147577D01*
X20877Y-232500D02*
X30977Y-242600D01*
Y-326300D02*
Y-242600D01*
X24477Y-332800D02*
X30977Y-326300D01*
X24477Y-343400D02*
Y-332800D01*
X275677Y-275700D02*
X290077D01*
X273877Y-273900D02*
X275677Y-275700D01*
X250977Y-273900D02*
X273877D01*
X249177Y-275700D02*
X250977Y-273900D01*
X243477Y-275700D02*
X249177D01*
X242377Y-274600D02*
X243477Y-275700D01*
X209477Y-281300D02*
Y-227300D01*
X289877Y-230700D02*
X293277Y-227300D01*
X270885Y-229208D02*
X272377Y-230700D01*
X289877D01*
X293277Y-218400D02*
X294277Y-217400D01*
X270885Y-229208D02*
Y-223536D01*
X293277Y-227300D02*
Y-218400D01*
X294277Y-217400D02*
X297477D01*
X299777Y-219700D01*
Y-226500D02*
Y-219700D01*
X256077Y-267400D02*
X256917Y-266560D01*
Y-263938D01*
X291677Y-232400D02*
X295277Y-228800D01*
X266177Y-232400D02*
X291677D01*
X295277Y-228800D02*
Y-220400D01*
X280137Y-208162D02*
X280177Y-208122D01*
Y-205200D01*
X201577Y-279700D02*
Y-210300D01*
X239683Y-300555D02*
Y-295506D01*
X106577Y-267000D02*
X109277Y-269700D01*
X340238Y-50680D02*
X342038D01*
X341482Y-43100D02*
X342438D01*
X116903Y-175900D02*
X117003Y-175800D01*
X21177Y-143400D02*
X21577Y-143800D01*
X20877Y-144500D02*
X21577Y-143800D01*
X20877Y-232500D02*
Y-144500D01*
X211204Y-116422D02*
X217900D01*
X208200Y-119426D02*
X211204Y-116422D01*
X189600Y-167399D02*
X193618D01*
X193619Y-167400D01*
X251365Y-82958D02*
Y-72835D01*
X286065D02*
X286300Y-73071D01*
Y-162900D02*
Y-73071D01*
X112877Y-31577D02*
Y-15000D01*
Y-31577D02*
X113400Y-32100D01*
X336580Y-50680D02*
X340238D01*
X335400Y-49500D02*
X336580Y-50680D01*
X335400Y-49500D02*
Y-43505D01*
X335700Y-43205D01*
X217900Y-92800D02*
X223100D01*
X231600Y-132090D02*
X231680Y-132170D01*
X231600Y-132090D02*
Y-123592D01*
X231680Y-123512D01*
Y-123380D01*
X229800Y-121500D02*
X231680Y-123380D01*
X267113Y-92800D02*
X278274D01*
X235300D02*
X267113D01*
X232100Y-96000D02*
X232150Y-96050D01*
X232100Y-96000D02*
X235300Y-92800D01*
X198507Y-161493D02*
X213400Y-146600D01*
X189600Y-161493D02*
X198507D01*
X213400Y-146600D02*
X218928D01*
X222202Y-143326D02*
X225600D01*
X218928Y-146600D02*
X222202Y-143326D01*
X233400Y-115300D02*
X234800D01*
X229800Y-121500D02*
Y-118900D01*
X217900Y-116422D02*
X232278D01*
X229800Y-118900D02*
X232278Y-116422D01*
X233400Y-115300D01*
X0Y-33D02*
X393701D01*
X0Y-358301D02*
Y-33D01*
Y-358301D02*
X393701D01*
Y-33D01*
D42*
X256700Y-180905D02*
X263094D01*
X256600D02*
X256700D01*
X256600Y-194300D02*
Y-180905D01*
X247900Y-203000D02*
X256600Y-194300D01*
X149874Y-183474D02*
X149900Y-183500D01*
X124877Y-172877D02*
X124900Y-172900D01*
X14900Y-235000D02*
X23800Y-243900D01*
X14900Y-235000D02*
Y-162500D01*
X6677Y-154277D02*
X14900Y-162500D01*
X338920Y-46940D02*
X340238D01*
X227900Y-124800D02*
X229711Y-126611D01*
Y-132170D02*
Y-126611D01*
X255302Y-138402D02*
X255900Y-139000D01*
X255302Y-138402D02*
Y-132170D01*
X224547Y-114453D02*
X225900Y-113100D01*
X217900Y-114453D02*
X224547D01*
X260872Y-94700D02*
X260941Y-94769D01*
X267113D01*
X235617Y-82958D02*
Y-78316D01*
X6677Y-154277D02*
Y-131100D01*
X23800Y-276000D02*
Y-243900D01*
X19700Y-280100D02*
X23800Y-276000D01*
X19700Y-324800D02*
Y-280100D01*
X14477Y-330023D02*
X19700Y-324800D01*
X14477Y-343400D02*
Y-330023D01*
X166000Y-149100D02*
X182000D01*
X162077Y-145177D02*
X166000Y-149100D01*
X184000Y-140500D02*
X184400Y-140900D01*
Y-146700D02*
Y-140900D01*
X182000Y-149100D02*
X184400Y-146700D01*
X162077Y-145177D02*
Y-123400D01*
X183200Y-177499D02*
Y-167399D01*
X263094Y-180905D02*
X263200Y-180800D01*
X227800Y-203000D02*
X247900D01*
X243422Y-82889D02*
X243491Y-82958D01*
X218377Y-174300D02*
X219300Y-173377D01*
X234203Y-182374D02*
Y-182300D01*
X234203Y-182226D02*
Y-174300D01*
X234129Y-182300D02*
X234203Y-182226D01*
X210503Y-182174D02*
Y-174300D01*
Y-182174D02*
X210803Y-182474D01*
X234200Y-197400D02*
X234203Y-197397D01*
Y-182374D01*
X210800Y-194100D02*
X210803Y-194097D01*
Y-182474D01*
X149751Y-202751D02*
X150100Y-203100D01*
X55700Y-149600D02*
X59300Y-146000D01*
X54077Y-149600D02*
X55700D01*
X54377Y-130300D02*
Y-125900D01*
X251365Y-132170D02*
X251400Y-132205D01*
X54377Y-130300D02*
Y-129800D01*
Y-149300D02*
Y-130300D01*
X249396Y-132170D02*
X249500Y-132274D01*
X245459Y-140659D02*
X245500Y-140700D01*
X245459Y-140659D02*
Y-132170D01*
X152677Y-138100D02*
Y-120800D01*
Y-129000D02*
Y-120800D01*
Y-111200D01*
X241522Y-137000D02*
Y-132170D01*
X198200Y-130500D02*
Y-116900D01*
X204100Y-111000D01*
X208300D01*
X210659Y-108641D02*
X214689Y-104611D01*
X191974Y-132200D02*
X192174Y-132400D01*
X196300D01*
X198200Y-130500D01*
X208300Y-111000D02*
X210659Y-108641D01*
Y-108641D01*
X214689Y-104611D02*
X217900D01*
X191874Y-140500D02*
X191974Y-140400D01*
Y-132200D01*
X201400Y-98700D02*
X207474D01*
X191674Y-94406D02*
X191700Y-94432D01*
X191674Y-94406D02*
Y-81100D01*
X191700Y-110968D02*
X191974Y-111242D01*
Y-123000D02*
Y-111242D01*
X196532Y-110968D02*
X201200Y-106300D01*
X207200D01*
X191700Y-110968D02*
X196532D01*
X197132Y-94432D02*
X201400Y-98700D01*
X191700Y-94432D02*
X197132D01*
X210100Y-106300D02*
X213757Y-102643D01*
X207200Y-106300D02*
X210100D01*
X213757Y-102643D02*
X217900D01*
X207200Y-98426D02*
X207474Y-98700D01*
X211700D01*
X213674Y-100674D01*
X217900D01*
X119777Y-197600D02*
X119877Y-197500D01*
X119777Y-207700D02*
Y-197600D01*
X114777Y-207700D02*
Y-194200D01*
X105400Y-44000D02*
Y-41100D01*
X234129Y-182300D02*
X234203Y-182374D01*
X187777Y-301349D02*
X187883Y-301455D01*
X187777Y-301349D02*
Y-294800D01*
X135183Y-301255D02*
Y-292906D01*
X133277Y-291000D02*
X135183Y-292906D01*
X102877Y-252100D02*
Y-232300D01*
X110077Y-267000D02*
X141677D01*
X149377Y-247500D02*
Y-234100D01*
X194477Y-232700D02*
Y-208700D01*
X339983Y-47194D02*
X340238Y-46940D01*
X242077Y-174300D02*
X242277Y-174100D01*
X162003Y-103326D02*
X162077Y-103400D01*
X152677Y-103326D02*
X162003D01*
X33077Y-15100D02*
X33177Y-15000D01*
X54077Y-149600D02*
X54377Y-149300D01*
X229711Y-82958D02*
Y-78889D01*
X232200Y-76400D01*
X233700D01*
X235617Y-78316D01*
X251400Y-157300D02*
Y-132205D01*
X251400Y-157300D02*
X251400Y-157300D01*
X253333Y-154367D02*
Y-132170D01*
X253300Y-154400D02*
X253333Y-154367D01*
X150100Y-203100D02*
Y-196500D01*
Y-192600D01*
X149874Y-181500D02*
X150100Y-181726D01*
X149874Y-181500D02*
Y-172900D01*
X150100Y-196500D02*
Y-181726D01*
X214920Y-106579D02*
X217900D01*
X124900Y-172900D02*
Y-156700D01*
X129100Y-152500D02*
X194700D01*
X199500Y-147700D01*
X124900Y-156700D02*
X129100Y-152500D01*
X214790Y-108548D02*
X217900D01*
X141800Y-156635D02*
X144035Y-154400D01*
X141800Y-172700D02*
Y-156635D01*
Y-172700D02*
X142000Y-172900D01*
X195500Y-154400D02*
X201000Y-148900D01*
X144035Y-154400D02*
X195500D01*
X208338Y-115000D02*
X214790Y-108548D01*
X201000Y-148900D02*
Y-119400D01*
X205400Y-115000D02*
X208338D01*
X201000Y-119400D02*
X205400Y-115000D01*
X208300Y-113200D02*
X214920Y-106579D01*
X199500Y-147700D02*
Y-118300D01*
X204600Y-113200D01*
X208300D01*
X242077Y-174300D02*
Y-169123D01*
X218377Y-174300D02*
Y-169323D01*
X218400Y-169300D01*
X272800Y-166300D02*
Y-122200D01*
X267113Y-120359D02*
X270959D01*
X272800Y-122200D01*
X267100Y-169100D02*
X267113Y-169087D01*
Y-122328D01*
X239554Y-143046D02*
Y-132170D01*
X237585D02*
Y-125945D01*
X237600Y-125930D01*
X247428Y-132170D02*
Y-124028D01*
X247400Y-124000D02*
X247428Y-124028D01*
X217900Y-98706D02*
X225395D01*
X225400Y-98700D01*
X267113Y-118391D02*
X274691D01*
X274700Y-118400D01*
X267113Y-116422D02*
X276932D01*
X278900Y-118391D01*
X245459Y-82958D02*
Y-78541D01*
X243491Y-82958D02*
Y-77609D01*
X245300Y-75800D01*
X241522Y-89176D02*
Y-82958D01*
X241500Y-89198D02*
X241522Y-89176D01*
X249396Y-82958D02*
Y-71404D01*
X251400Y-69400D01*
X288900Y-175000D02*
Y-69400D01*
X256600Y-175000D02*
X259700D01*
X49200Y-87295D02*
X55072D01*
X55077Y-87300D01*
X59800D01*
X293500Y-106600D02*
Y-86500D01*
X267113Y-106579D02*
X273180D01*
X273200Y-106600D01*
X257270Y-82958D02*
Y-65670D01*
X257100Y-65500D02*
X257270Y-65670D01*
X267113Y-96737D02*
X282263D01*
X284000Y-95000D01*
X33077Y-33000D02*
Y-15100D01*
X45177Y-40800D02*
X45303Y-40674D01*
Y-31300D01*
X53177D02*
Y-15000D01*
X28200Y-33000D02*
X33077D01*
X25500Y-35700D02*
X28200Y-33000D01*
X25500Y-73400D02*
Y-35700D01*
X146777Y-73423D02*
X146800Y-73400D01*
X146777Y-140700D02*
Y-73423D01*
X162177Y-31600D02*
Y-15000D01*
X162077Y-31700D02*
X162177Y-31600D01*
X182177Y-31625D02*
Y-15000D01*
X182102Y-31700D02*
X182177Y-31625D01*
X202177Y-31650D02*
Y-15000D01*
X202127Y-31700D02*
X202177Y-31650D01*
X222177Y-31675D02*
Y-15000D01*
X222152Y-31700D02*
X222177Y-31675D01*
X213441Y-120359D02*
X217900D01*
X212400Y-121400D02*
X213441Y-120359D01*
X212400Y-133000D02*
Y-121400D01*
X176000Y-31700D02*
X182102D01*
X137600Y-136200D02*
Y-31700D01*
X140000Y-133000D02*
Y-34600D01*
X140100Y-34500D01*
X153000D02*
X155800Y-31700D01*
X162077D01*
X195500D02*
X202127D01*
X143100Y-140800D02*
Y-37800D01*
X105400Y-41100D02*
X105526Y-40974D01*
Y-32100D01*
X105400Y-142800D02*
Y-41100D01*
X249500Y-144300D02*
Y-132274D01*
X248100Y-145700D02*
X249500Y-144300D01*
X222152Y-31700D02*
X227700D01*
X135300Y-130400D02*
Y-41200D01*
X233648Y-132170D02*
Y-124548D01*
X233600Y-124500D02*
X233648Y-124548D01*
X237600Y-31700D02*
X242177D01*
X131800Y-130200D02*
Y-41400D01*
X235617Y-132170D02*
Y-123417D01*
X233500Y-121300D02*
X235617Y-123417D01*
X45177Y-100777D02*
Y-40800D01*
Y-100777D02*
X45200Y-100800D01*
X217900Y-118391D02*
X222691D01*
X222800Y-118500D01*
X280977Y-26277D02*
Y-15000D01*
Y-26277D02*
X281000Y-26300D01*
X251000Y-61150D02*
Y-26300D01*
X239554Y-82958D02*
Y-72597D01*
X251000Y-61150D01*
X290977Y-26177D02*
Y-15000D01*
Y-26177D02*
X291000Y-26200D01*
X248000Y-57500D02*
Y-29000D01*
X237585Y-82958D02*
Y-67915D01*
X248000Y-57500D01*
X340377Y-26323D02*
Y-15000D01*
X294900Y-34200D02*
X298700Y-30400D01*
X294900Y-42600D02*
Y-34200D01*
Y-42600D02*
X295200Y-42900D01*
X336300Y-30400D02*
X340377Y-26323D01*
X298700Y-30400D02*
X336300D01*
X350377Y-27377D02*
Y-15000D01*
Y-27377D02*
X350400Y-27400D01*
X300200Y-102300D02*
Y-33300D01*
X267113Y-104611D02*
X276589D01*
X277300Y-103900D01*
X273500Y-54800D02*
X284000Y-65300D01*
Y-95000D02*
Y-65300D01*
X287400Y-50574D02*
X295000D01*
X295200Y-50774D01*
Y-71400D02*
Y-50774D01*
Y-71400D02*
X296800Y-73000D01*
Y-101500D02*
Y-73000D01*
X267113Y-102643D02*
X273257D01*
X274500Y-101400D01*
X282500D01*
X282600Y-101500D01*
X231680Y-89177D02*
Y-82958D01*
Y-89177D02*
X231700Y-89198D01*
X242177Y-31700D02*
Y-15000D01*
X225200Y-132170D02*
X227743D01*
X225030D02*
X225200D01*
X215800Y-143100D02*
Y-141400D01*
X225030Y-132170D01*
X162077Y-123400D02*
X169800D01*
X172500Y-120700D01*
Y-58000D01*
X215400Y-133200D02*
Y-126500D01*
X217900Y-124000D02*
Y-122328D01*
X215400Y-126500D02*
X217900Y-124000D01*
X327500Y-103400D02*
X327600Y-103300D01*
X337600Y-84900D02*
Y-84100D01*
Y-84900D02*
Y-70600D01*
X338100Y-70100D01*
X337600Y-92200D02*
Y-84900D01*
X327600Y-103300D02*
Y-70600D01*
X328100Y-70100D01*
X317600Y-115295D02*
Y-70600D01*
X318100Y-70100D01*
X307600Y-75800D02*
Y-70600D01*
X308100Y-70100D01*
X356100Y-98500D02*
Y-89176D01*
X346100Y-115300D02*
Y-89176D01*
X366100Y-125800D02*
Y-89176D01*
X365970Y-125930D02*
X366100Y-125800D01*
X376100Y-137500D02*
Y-89176D01*
X68600Y-118100D02*
Y-71200D01*
X70617Y-124717D02*
X72100Y-123234D01*
Y-76200D01*
D43*
X17477Y-91700D02*
X28377D01*
X50203Y-159379D02*
Y-146226D01*
Y-132103D01*
X63780Y-177198D02*
X64381Y-177800D01*
X63177Y-15000D02*
X63577Y-14600D01*
X50140Y-159442D02*
X50203Y-159379D01*
X81377Y-212230D02*
X84683Y-215536D01*
X116777D01*
X79077Y-225700D02*
X79177Y-225600D01*
X45577Y-230200D02*
X46269Y-230891D01*
X300977Y-15000D02*
Y-8823D01*
X365983Y-3600D02*
X369983Y-7600D01*
Y-32217D02*
Y-7600D01*
X368100Y-34100D02*
X369983Y-32217D01*
X368100Y-43155D02*
Y-34100D01*
X368061Y-43194D02*
X368100Y-43155D01*
X300977Y-8823D02*
X306200Y-3600D01*
X365983D01*
X352049Y-43200D02*
X360832D01*
X360838Y-43194D02*
X368061D01*
X368061Y-43194D01*
X360832Y-43200D02*
X360938Y-43094D01*
X315761Y-52100D02*
X322800D01*
X324761Y-50139D02*
Y-43200D01*
X322800Y-52100D02*
X324761Y-50139D01*
Y-43200D02*
X324766Y-43205D01*
X331061D01*
X340232D02*
X340238Y-43200D01*
X331061Y-43205D02*
X335700D01*
X340232D01*
X162077Y-39574D02*
X182102D01*
X202127D01*
X222152D01*
X242177D01*
X33077Y-75623D02*
Y-40874D01*
X9100Y-79300D02*
X29400D01*
X33077Y-75623D01*
Y-40874D02*
X38774D01*
X38800Y-40900D01*
X54626Y-40800D02*
X57900D01*
X58000Y-40900D01*
X114849Y-41100D02*
X115049Y-40900D01*
X119100D01*
Y-58000D02*
Y-40900D01*
X182102Y-57998D02*
Y-39574D01*
X182100Y-58000D02*
X182102Y-57998D01*
X368061Y-43194D02*
X373500D01*
X377100Y-46794D01*
X368100Y-70100D02*
Y-64300D01*
X377100Y-55300D01*
Y-46794D01*
D44*
X183200Y-161493D02*
X189600D01*
X116777Y-230200D02*
Y-215536D01*
D45*
X315661Y-43000D02*
X315761Y-43100D01*
X26877Y-167600D02*
X35577Y-158900D01*
X26877Y-173600D02*
Y-167600D01*
X35577Y-158900D02*
X41242D01*
X46203Y-153938D01*
Y-149600D01*
X26877Y-173600D02*
Y-171000D01*
Y-185900D02*
Y-173600D01*
X26577Y-186200D02*
X26877Y-185900D01*
X33177Y-199285D02*
Y-172300D01*
X26577Y-205885D02*
X33177Y-199285D01*
X19277Y-269100D02*
Y-251700D01*
X6477Y-281900D02*
X19277Y-269100D01*
X5877Y-248200D02*
X5977Y-248100D01*
X15677D01*
X19277Y-251700D01*
X6477Y-301400D02*
Y-281900D01*
Y-301400D02*
X14677Y-309600D01*
Y-316900D02*
Y-309600D01*
X305661Y-43000D02*
X315661D01*
X63780Y-177198D02*
X75202D01*
X81900Y-170500D01*
Y-54400D01*
X63177Y-35677D02*
Y-15000D01*
Y-35677D02*
X81900Y-54400D01*
X63177Y-15000D02*
Y-9723D01*
X67600Y-5300D01*
X120400D01*
X122877Y-15000D02*
Y-7777D01*
X120400Y-5300D02*
X122877Y-7777D01*
X256500Y-43200D02*
Y-4700D01*
X305661Y-57961D02*
Y-52000D01*
Y-57961D02*
X305700Y-58000D01*
D46*
X126477Y-272500D02*
X161077D01*
X227743Y-82958D02*
Y-63557D01*
X227800Y-63500D01*
X227743Y-91643D02*
Y-82958D01*
Y-91643D02*
X228900Y-92800D01*
D47*
X316077Y-211000D02*
X332477D01*
X177577Y-232800D02*
X184177D01*
X187037Y-235660D01*
Y-246362D02*
Y-235660D01*
X340238Y-43200D02*
X340300Y-43138D01*
Y-40300D01*
X342800Y-37800D01*
X357800D02*
X360500Y-35100D01*
X360377Y-34977D02*
X360500Y-35100D01*
X342800Y-37800D02*
X357800D01*
X360377Y-34977D02*
Y-15000D01*
X234800Y-115300D02*
Y-98700D01*
Y-115300D02*
X237100Y-117600D01*
X254000D01*
X257392Y-129000D02*
Y-120992D01*
X254000Y-117600D02*
X257392Y-120992D01*
X232150Y-96050D02*
X234800Y-98700D01*
X223100Y-92800D02*
X228900D01*
X230128Y-94028D02*
X230850Y-94750D01*
X232100Y-96000D01*
X228900Y-92800D02*
X230850Y-94750D01*
D48*
X109677Y-350900D02*
Y-341300D01*
X161026Y-350951D02*
Y-341200D01*
X194277Y-351700D02*
X194677Y-351300D01*
X211174Y-351403D02*
Y-341200D01*
Y-323700D02*
X219987D01*
X109677Y-323800D02*
X119787D01*
X109677Y-298415D02*
X110971Y-297121D01*
X109677Y-323800D02*
Y-298415D01*
X161026Y-323700D02*
Y-299966D01*
X211174Y-323700D02*
Y-300718D01*
X194277Y-351700D02*
X196777D01*
X164277D02*
X174477D01*
X110977D02*
X123077D01*
X174477D02*
X185577D01*
X216477D02*
X225977D01*
X206777D02*
X216477D01*
X196777D02*
X206777D01*
X160277D02*
X164277D01*
X160277D02*
X161026Y-350951D01*
X154877Y-351700D02*
X160277D01*
X144177D02*
X154877D01*
X143777D02*
X144177D01*
X123077D02*
X133077D01*
X108877D02*
X109677Y-350900D01*
X108877Y-351700D02*
X110977D01*
X98577D02*
X108877D01*
X225977D02*
X236977D01*
X133077D02*
X140477D01*
X143777D01*
X185577D02*
X190627D01*
X194277D01*
X261077D02*
X281177D01*
X143777D02*
X143977Y-351500D01*
X236977Y-351700D02*
X261077D01*
X236977D02*
X244177Y-344500D01*
Y-332300D01*
D49*
X161026Y-299966D02*
X163671Y-297321D01*
D50*
X230777Y-337950D02*
Y-334491D01*
X219987Y-323700D02*
X230777Y-334491D01*
X161026Y-323700D02*
X166377D01*
X180627Y-337950D01*
X130477D02*
Y-334491D01*
X119787Y-323800D02*
X130477Y-334491D01*
X190627Y-351700D02*
Y-337950D01*
X281177Y-351700D02*
X287489D01*
X260177Y-350800D02*
Y-342000D01*
Y-350800D02*
X261077Y-351700D01*
X260177Y-324500D02*
X260777Y-325100D01*
X275277D01*
X278777Y-337200D02*
X279477Y-337900D01*
Y-329300D01*
X275277Y-325100D02*
X279477Y-329300D01*
X289477Y-349712D02*
Y-337900D01*
X140477Y-351700D02*
Y-337950D01*
X287489Y-351700D02*
X289477Y-349712D01*
D51*
X241162Y-288375D02*
D03*
D52*
X188442Y-257431D02*
D03*
D53*
X215077Y-237550D02*
D03*
D54*
X216177Y-259785D02*
D03*
D55*
X298387Y-280187D02*
D03*
D56*
X289563Y-282935D02*
D03*
D57*
X282277Y-219850D02*
D03*
D58*
X308642Y-249450D02*
D03*
D59*
X333994Y-286365D02*
D03*
D60*
X358477Y-332550D02*
D03*
D61*
X362177Y-333600D02*
D03*
D62*
X314027Y-331900D02*
D03*
D63*
X316027Y-331950D02*
D03*
D64*
X379927Y-278400D02*
D03*
D65*
X366777Y-198500D02*
D03*
D66*
X156127Y-292100D02*
D03*
D67*
X103989Y-291546D02*
D03*
D68*
X208277Y-291500D02*
D03*
D69*
X378100Y-70100D02*
D03*
X346100Y-89176D02*
D03*
D70*
X368100Y-70100D02*
D03*
X358100D02*
D03*
X348100D02*
D03*
X338100D02*
D03*
X328100D02*
D03*
X318100D02*
D03*
X308100D02*
D03*
X376100Y-89176D02*
D03*
X366100D02*
D03*
X356100D02*
D03*
X39900Y-56200D02*
D03*
Y-66200D02*
D03*
X162077Y-123400D02*
D03*
Y-113400D02*
D03*
X9100Y-69300D02*
D03*
Y-59300D02*
D03*
Y-49300D02*
D03*
X54277Y-309900D02*
D03*
X64120D02*
D03*
X71994D02*
D03*
X81836D02*
D03*
D71*
X14677Y-316900D02*
D03*
X14477Y-343400D02*
D03*
X240777Y-337950D02*
D03*
X190627D02*
D03*
X140477D02*
D03*
X289477Y-337900D02*
D03*
X11577Y-143800D02*
D03*
D72*
X24677Y-316900D02*
D03*
X24477Y-343400D02*
D03*
X230777Y-337950D02*
D03*
X180627D02*
D03*
X130477D02*
D03*
X279477Y-337900D02*
D03*
X21577Y-143800D02*
D03*
D73*
X354331Y-270742D02*
D03*
Y-255151D02*
D03*
Y-223970D02*
D03*
Y-239561D02*
D03*
Y-177198D02*
D03*
Y-192789D02*
D03*
Y-208380D02*
D03*
X63780Y-255151D02*
D03*
Y-270742D02*
D03*
Y-286333D02*
D03*
Y-223970D02*
D03*
Y-239561D02*
D03*
Y-208380D02*
D03*
Y-192789D02*
D03*
D74*
X354331Y-286333D02*
D03*
X63780Y-177198D02*
D03*
D75*
X102877Y-15000D02*
D03*
X122877D02*
D03*
X112877D02*
D03*
X43177D02*
D03*
X63177D02*
D03*
X53177D02*
D03*
X290977D02*
D03*
X300977D02*
D03*
X280977D02*
D03*
X350377D02*
D03*
X360377D02*
D03*
X340377D02*
D03*
X172177D02*
D03*
X182177D02*
D03*
X162177D02*
D03*
X192177D02*
D03*
X202177D02*
D03*
X242177D02*
D03*
X232177D02*
D03*
X222177D02*
D03*
X212177D02*
D03*
D76*
X92877D02*
D03*
X33177D02*
D03*
X270977D02*
D03*
X330377D02*
D03*
X152177D02*
D03*
D77*
X316287Y-332400D02*
D03*
X361109Y-332300D02*
D03*
D78*
X331877Y-332400D02*
D03*
X376700Y-332300D02*
D03*
D79*
X39900Y-76200D02*
D03*
X162077Y-103400D02*
D03*
X9100Y-79300D02*
D03*
D80*
X40977Y-205685D02*
D03*
Y-186000D02*
D03*
X26577Y-205885D02*
D03*
Y-186200D02*
D03*
X9377Y-205300D02*
D03*
Y-195300D02*
D03*
Y-185300D02*
D03*
D81*
X24177Y-292600D02*
D03*
X14177D02*
D03*
D82*
X42072Y-320924D02*
D03*
X94041D02*
D03*
D83*
X5877Y-248200D02*
D03*
X45877D02*
D03*
X7677Y-265900D02*
D03*
X37677D02*
D03*
X5577Y-230200D02*
D03*
X45577D02*
D03*
X6677Y-131100D02*
D03*
Y-91100D02*
D03*
X17477Y-131700D02*
D03*
Y-91700D02*
D03*
X28377Y-131700D02*
D03*
Y-91700D02*
D03*
X79077Y-185700D02*
D03*
Y-225700D02*
D03*
X89377Y-185600D02*
D03*
Y-225600D02*
D03*
X57500Y-164700D02*
D03*
X7500D02*
D03*
D84*
X343400Y-330200D02*
D03*
X341000Y-301500D02*
D03*
X343400Y-317300D02*
D03*
X331300Y-317200D02*
D03*
X159877Y-212100D02*
D03*
X143577Y-217400D02*
D03*
X130577Y-211600D02*
D03*
X137077Y-211796D02*
D03*
X143577Y-211900D02*
D03*
X257677Y-276900D02*
D03*
X262477D02*
D03*
X182577Y-277400D02*
D03*
X178477D02*
D03*
X174077D02*
D03*
X267177Y-276600D02*
D03*
X50203Y-132103D02*
D03*
X79877Y-260600D02*
D03*
X64600Y-299500D02*
D03*
X72500Y-299600D02*
D03*
X81100Y-299700D02*
D03*
X91400Y-276800D02*
D03*
X84200Y-265700D02*
D03*
X84500Y-282500D02*
D03*
X126200Y-308600D02*
D03*
X131600Y-315400D02*
D03*
X195700Y-310000D02*
D03*
X197700Y-317900D02*
D03*
X248600Y-314200D02*
D03*
X259500Y-314300D02*
D03*
X269900Y-315100D02*
D03*
X278600Y-314700D02*
D03*
X292200Y-315100D02*
D03*
X303500Y-315000D02*
D03*
X285500Y-313000D02*
D03*
X303800Y-343200D02*
D03*
X298900Y-350900D02*
D03*
X342900Y-354500D02*
D03*
X306800Y-354900D02*
D03*
X294476Y-234700D02*
D03*
X318300Y-216500D02*
D03*
X325600Y-222600D02*
D03*
X317900Y-224900D02*
D03*
X310000Y-222300D02*
D03*
X310600Y-233200D02*
D03*
X323000Y-230500D02*
D03*
X316600Y-205400D02*
D03*
X325200Y-204700D02*
D03*
X334500Y-203500D02*
D03*
X326200Y-196800D02*
D03*
X314600Y-190700D02*
D03*
X292700Y-187000D02*
D03*
X278300Y-195400D02*
D03*
X298100Y-193700D02*
D03*
X305600Y-186000D02*
D03*
X318300Y-198200D02*
D03*
X331300Y-172000D02*
D03*
X333800Y-183600D02*
D03*
X316100Y-177200D02*
D03*
X325600Y-181800D02*
D03*
X334000Y-192100D02*
D03*
X331500Y-158600D02*
D03*
X344400Y-161900D02*
D03*
X358400Y-161500D02*
D03*
X372000Y-160900D02*
D03*
X384000Y-158200D02*
D03*
X384200Y-144000D02*
D03*
X375100Y-156100D02*
D03*
X362500Y-152600D02*
D03*
X314800Y-154900D02*
D03*
X302800Y-163800D02*
D03*
X305100Y-174900D02*
D03*
X284200Y-182800D02*
D03*
X269600Y-187700D02*
D03*
X266900Y-195600D02*
D03*
X204100Y-203900D02*
D03*
X215200Y-203300D02*
D03*
X206800Y-214600D02*
D03*
X213000Y-210600D02*
D03*
X127900Y-202500D02*
D03*
X139800Y-202600D02*
D03*
X166200Y-208400D02*
D03*
X143400Y-229300D02*
D03*
X166500Y-228900D02*
D03*
X182377Y-242400D02*
D03*
X197000Y-243200D02*
D03*
X84500Y-235800D02*
D03*
X107700Y-196500D02*
D03*
X89500Y-164200D02*
D03*
X95800Y-172700D02*
D03*
X96500Y-183300D02*
D03*
X96800Y-192900D02*
D03*
X90600Y-124800D02*
D03*
X95300Y-133100D02*
D03*
X111100Y-125300D02*
D03*
X118200Y-133700D02*
D03*
X127900Y-140300D02*
D03*
X122000Y-123300D02*
D03*
X125300Y-131600D02*
D03*
X112100Y-138800D02*
D03*
X116900Y-95400D02*
D03*
X119800Y-105700D02*
D03*
X95000Y-93000D02*
D03*
X96200Y-105700D02*
D03*
X92800Y-78800D02*
D03*
X112400Y-78400D02*
D03*
X151900Y-73900D02*
D03*
X160300Y-79300D02*
D03*
X92100Y-55400D02*
D03*
X96400Y-63100D02*
D03*
X110500Y-52700D02*
D03*
X115500Y-65700D02*
D03*
X153100Y-64400D02*
D03*
X187700Y-63600D02*
D03*
X224600Y-54000D02*
D03*
X259300Y-54800D02*
D03*
X271900Y-64400D02*
D03*
X333700Y-65300D02*
D03*
X351800Y-64100D02*
D03*
X369300Y-55100D02*
D03*
X354600Y-80900D02*
D03*
X323400Y-63600D02*
D03*
X336500Y-56500D02*
D03*
X353900Y-32300D02*
D03*
X377100Y-10000D02*
D03*
X376900Y-22200D02*
D03*
X381400Y-33700D02*
D03*
X386700Y-48000D02*
D03*
X387100Y-59300D02*
D03*
X10100Y-16400D02*
D03*
X15500Y-31000D02*
D03*
X17800Y-56700D02*
D03*
X59500Y-59100D02*
D03*
X65400Y-80500D02*
D03*
X239800Y-103200D02*
D03*
X247600Y-109900D02*
D03*
X258400Y-111000D02*
D03*
X252700Y-103400D02*
D03*
X226900Y-104200D02*
D03*
X241500Y-122300D02*
D03*
X298600Y-132000D02*
D03*
X315000Y-131800D02*
D03*
X334000Y-132000D02*
D03*
X349100Y-132800D02*
D03*
X365100Y-132600D02*
D03*
X356800Y-106400D02*
D03*
X355200Y-118500D02*
D03*
X338900Y-107600D02*
D03*
X330500Y-114200D02*
D03*
X371400Y-103200D02*
D03*
X370900Y-116400D02*
D03*
X382800Y-104800D02*
D03*
X383000Y-119900D02*
D03*
X384600Y-132300D02*
D03*
X366000Y-79200D02*
D03*
X326600Y-146000D02*
D03*
X345400Y-147200D02*
D03*
X279600Y-134800D02*
D03*
X293900Y-119800D02*
D03*
X307300Y-119900D02*
D03*
X160300Y-190000D02*
D03*
X176900Y-189500D02*
D03*
X198300Y-189400D02*
D03*
X225300Y-173300D02*
D03*
X225900Y-191100D02*
D03*
X249300Y-176700D02*
D03*
X244800Y-195700D02*
D03*
X39100Y-100300D02*
D03*
X41600Y-113900D02*
D03*
X55300Y-107300D02*
D03*
X57000Y-117700D02*
D03*
X51900Y-80600D02*
D03*
X79100Y-32700D02*
D03*
X90800Y-31800D02*
D03*
X278800Y-51500D02*
D03*
X305800Y-83100D02*
D03*
X306900Y-103600D02*
D03*
X265600Y-83400D02*
D03*
X322300D02*
D03*
X279600Y-156200D02*
D03*
X261100Y-151900D02*
D03*
X297400Y-151300D02*
D03*
X250600Y-188400D02*
D03*
D85*
X183200Y-177499D02*
D03*
X227800Y-203000D02*
D03*
X150100Y-203100D02*
D03*
X59300Y-146000D02*
D03*
X64920Y-142480D02*
D03*
X245459Y-140659D02*
D03*
X152677Y-138100D02*
D03*
X241522Y-137000D02*
D03*
X22977Y-124400D02*
D03*
X147577Y-269700D02*
D03*
X248177Y-281800D02*
D03*
X290077Y-275700D02*
D03*
X161077Y-272500D02*
D03*
X126477D02*
D03*
X116777Y-230200D02*
D03*
X209477Y-281300D02*
D03*
Y-227300D02*
D03*
X332477Y-268000D02*
D03*
Y-211000D02*
D03*
X320477Y-268400D02*
D03*
X316077Y-211000D02*
D03*
X299777Y-226500D02*
D03*
X256077Y-267400D02*
D03*
X266177Y-232400D02*
D03*
X295277Y-220400D02*
D03*
X280177Y-205200D02*
D03*
X239677Y-295500D02*
D03*
X119877Y-197500D02*
D03*
X119777Y-207700D02*
D03*
X114777Y-194200D02*
D03*
Y-207700D02*
D03*
X187777Y-294800D02*
D03*
X234100Y-197500D02*
D03*
X133277Y-291000D02*
D03*
X201377Y-279900D02*
D03*
X201577Y-210300D02*
D03*
X141677Y-267000D02*
D03*
X110077D02*
D03*
X106577D02*
D03*
X177577Y-232800D02*
D03*
X149377Y-234100D02*
D03*
X102877Y-232300D02*
D03*
X194477Y-208700D02*
D03*
Y-232700D02*
D03*
X191477Y-214000D02*
D03*
X191577Y-227100D02*
D03*
X210803Y-194097D02*
D03*
X146777Y-140700D02*
D03*
X251300Y-157400D02*
D03*
X253300Y-154400D02*
D03*
X242100Y-169100D02*
D03*
X218400Y-169300D02*
D03*
X272800Y-166300D02*
D03*
X267100Y-169100D02*
D03*
X239554Y-143046D02*
D03*
X237600Y-125930D02*
D03*
X247400Y-124000D02*
D03*
X225400Y-98700D02*
D03*
X274691Y-118391D02*
D03*
X278900D02*
D03*
X245500Y-78500D02*
D03*
X245300Y-75800D02*
D03*
X241522Y-89176D02*
D03*
X193618Y-167399D02*
D03*
X286300Y-162900D02*
D03*
X251365Y-72835D02*
D03*
X286065D02*
D03*
X251400Y-69400D02*
D03*
X288900D02*
D03*
X259700Y-175000D02*
D03*
X288900D02*
D03*
X59800Y-87300D02*
D03*
X293500Y-86500D02*
D03*
Y-106600D02*
D03*
X273200D02*
D03*
X257100Y-65500D02*
D03*
X273500Y-54800D02*
D03*
X25500Y-73400D02*
D03*
X146700D02*
D03*
X140000Y-133000D02*
D03*
X212400D02*
D03*
X176000Y-31700D02*
D03*
X137600D02*
D03*
Y-136200D02*
D03*
X215400Y-133200D02*
D03*
X153000Y-34500D02*
D03*
X140100D02*
D03*
X195500Y-31700D02*
D03*
X143100Y-37800D02*
D03*
Y-140800D02*
D03*
X215800Y-143100D02*
D03*
X105500Y-142900D02*
D03*
X248100Y-145700D02*
D03*
X227700Y-31700D02*
D03*
X135300Y-41200D02*
D03*
Y-130400D02*
D03*
X233600Y-124500D02*
D03*
X237600Y-31700D02*
D03*
X131800Y-41400D02*
D03*
Y-130200D02*
D03*
X233500Y-121300D02*
D03*
X45200Y-100800D02*
D03*
X222800Y-118500D02*
D03*
X281000Y-26300D02*
D03*
X251000D02*
D03*
X291000Y-26200D02*
D03*
X248000Y-29000D02*
D03*
X239554Y-74200D02*
D03*
X237585Y-76600D02*
D03*
X350400Y-27400D02*
D03*
X300200Y-33300D02*
D03*
X277300Y-103900D02*
D03*
X300200Y-102300D02*
D03*
X296800Y-101500D02*
D03*
X282500Y-101400D02*
D03*
X231700Y-89198D02*
D03*
X337500Y-92200D02*
D03*
X227900Y-124800D02*
D03*
X225900Y-113100D02*
D03*
X233700Y-76400D02*
D03*
X260872Y-94900D02*
D03*
X255900Y-139000D02*
D03*
X335500Y-284800D02*
D03*
X338600Y-287800D02*
D03*
X290400Y-280300D02*
D03*
Y-285700D02*
D03*
X278800Y-285300D02*
D03*
X283800D02*
D03*
X296600Y-285700D02*
D03*
X302500Y-285600D02*
D03*
X132000Y-158800D02*
D03*
X327600Y-103300D02*
D03*
X317600Y-115295D02*
D03*
X307600Y-75800D02*
D03*
X355900Y-98700D02*
D03*
X346100Y-115300D02*
D03*
X365970Y-125930D02*
D03*
X376100Y-137500D02*
D03*
X68600Y-118100D02*
D03*
X70617Y-124717D02*
D03*
X68600Y-71200D02*
D03*
X72100Y-76200D02*
D03*
D86*
X241077Y-261700D02*
D03*
X240677Y-255400D02*
D03*
X240977Y-247800D02*
D03*
X240877Y-241500D02*
D03*
X234777Y-262300D02*
D03*
X234677Y-255400D02*
D03*
X234877Y-248700D02*
D03*
Y-241700D02*
D03*
X266477Y-261900D02*
D03*
X266877Y-251700D02*
D03*
X266850Y-220283D02*
D03*
Y-212041D02*
D03*
X81377Y-212230D02*
D03*
X32977Y-172100D02*
D03*
X123077Y-351700D02*
D03*
X164277D02*
D03*
X185577D02*
D03*
X206777D02*
D03*
X267577Y-304900D02*
D03*
X260877D02*
D03*
X149877Y-249500D02*
D03*
X123377Y-259000D02*
D03*
X123577Y-249500D02*
D03*
X132777Y-259000D02*
D03*
X132344Y-249500D02*
D03*
X141077Y-259000D02*
D03*
X141111Y-249500D02*
D03*
X168577Y-259600D02*
D03*
Y-250600D02*
D03*
X254177Y-297100D02*
D03*
X260477D02*
D03*
X267577D02*
D03*
Y-289300D02*
D03*
X260327D02*
D03*
X254177D02*
D03*
X196777Y-351700D02*
D03*
X244177Y-344500D02*
D03*
X237646Y-351131D02*
D03*
X216477Y-351700D02*
D03*
X225977D02*
D03*
X174477D02*
D03*
X154877D02*
D03*
X133077D02*
D03*
X144177D02*
D03*
X98577D02*
D03*
X110977D02*
D03*
X256500Y-4700D02*
D03*
Y-43200D02*
D03*
X305700Y-58000D02*
D03*
X38800Y-40900D02*
D03*
X58600D02*
D03*
X119100D02*
D03*
Y-58000D02*
D03*
X182102Y-57998D02*
D03*
X227600Y-63500D02*
D03*
X234800Y-39574D02*
D03*
X172500Y-58000D02*
D03*
M02*
