%FSLAX25Y25*%
%MOIN*%
G70*
G01*
G75*
G04 Layer_Physical_Order=2*
G04 Layer_Color=16711680*
%ADD10R,0.03937X0.02362*%
%ADD11R,0.03347X0.02756*%
%ADD12O,0.06299X0.01181*%
%ADD13R,0.06299X0.01181*%
%ADD14O,0.01181X0.06299*%
%ADD15R,0.05118X0.03937*%
%ADD16R,0.10630X0.03937*%
%ADD17R,0.03937X0.05118*%
%ADD18R,0.03543X0.02126*%
%ADD19R,0.01969X0.06299*%
%ADD20R,0.14410X0.07874*%
%ADD21R,0.14410X0.09843*%
%ADD22R,0.09449X0.08268*%
%ADD23R,0.05000X0.06000*%
%ADD24R,0.02362X0.02362*%
%ADD25R,0.02362X0.02362*%
%ADD26R,0.02362X0.03937*%
%ADD27O,0.02362X0.06890*%
%ADD28R,0.11811X0.07480*%
%ADD29R,0.02756X0.03347*%
%ADD30R,0.10000X0.07500*%
%ADD31R,0.09843X0.15748*%
%ADD32R,0.08661X0.07087*%
%ADD33O,0.09843X0.05906*%
%ADD34O,0.03543X0.01969*%
%ADD35O,0.03543X0.01969*%
%ADD36R,0.03543X0.01969*%
%ADD37R,0.02559X0.05315*%
%ADD38R,0.20866X0.11024*%
%ADD39R,0.03937X0.10630*%
%ADD40R,0.21654X0.05630*%
%ADD41C,0.02000*%
%ADD42C,0.00800*%
%ADD43C,0.03000*%
%ADD44C,0.03500*%
%ADD45C,0.04000*%
%ADD46C,0.01000*%
%ADD47C,0.01500*%
%ADD48C,0.10000*%
%ADD49C,0.08000*%
%ADD50C,0.05000*%
%ADD51C,0.01200*%
%ADD52R,0.19200X0.07900*%
%ADD53R,0.58405X0.13100*%
%ADD54R,0.24300X1.56600*%
%ADD55R,0.50200X0.62200*%
%ADD56R,0.24100X0.17400*%
%ADD57R,0.25624X0.17093*%
%ADD58R,0.23600X0.17400*%
%ADD59R,0.05906X0.05906*%
%ADD60C,0.05906*%
%ADD61O,0.11811X0.09843*%
%ADD62R,0.11811X0.09843*%
%ADD63O,0.05906X0.09843*%
%ADD64R,0.05906X0.09843*%
%ADD65R,0.09843X0.11811*%
%ADD66O,0.09843X0.11811*%
%ADD67R,0.05906X0.05906*%
%ADD68C,0.06693*%
%ADD69C,0.05500*%
%ADD70O,0.07874X0.15748*%
%ADD71C,0.05512*%
%ADD72R,0.06000X0.10000*%
%ADD73O,0.06000X0.10000*%
%ADD74C,0.02000*%
%ADD75C,0.03000*%
%ADD76C,0.04000*%
%ADD77O,0.05500X0.02500*%
%ADD78R,0.05500X0.02500*%
%ADD79O,0.01181X0.02756*%
%ADD80O,0.02756X0.01181*%
%ADD81R,0.13386X0.07087*%
%ADD82R,0.15000X0.13000*%
%ADD83R,0.19400X0.21500*%
%ADD84R,0.18400X0.60700*%
%ADD85R,0.24600X1.31200*%
%ADD86R,0.50100X0.62100*%
G36*
X391662Y-165971D02*
X342277D01*
X341692Y-166087D01*
X341196Y-166419D01*
X340864Y-166915D01*
X340748Y-167500D01*
Y-229600D01*
X340864Y-230185D01*
X341196Y-230681D01*
X341692Y-231013D01*
X342277Y-231129D01*
X343716D01*
X343861Y-231608D01*
X343696Y-231719D01*
X343364Y-232215D01*
X343248Y-232800D01*
Y-293500D01*
X343364Y-294085D01*
X343696Y-294581D01*
X344192Y-294913D01*
X344777Y-295029D01*
X363177D01*
X363762Y-294913D01*
X364259Y-294581D01*
X364590Y-294085D01*
X364707Y-293500D01*
Y-232800D01*
X364590Y-232215D01*
X364259Y-231719D01*
X364093Y-231608D01*
X364238Y-231129D01*
X366148D01*
Y-324894D01*
X362109D01*
Y-332301D01*
Y-339705D01*
X366148D01*
Y-356262D01*
X242406D01*
X242214Y-355800D01*
X242264Y-355750D01*
X242682Y-355241D01*
X242794Y-355194D01*
X243630Y-354553D01*
X244271Y-353717D01*
X244674Y-352744D01*
X244812Y-351700D01*
Y-347947D01*
X245091Y-347910D01*
X245942Y-347557D01*
X246673Y-346996D01*
X247234Y-346265D01*
X247587Y-345414D01*
X247707Y-344500D01*
X247587Y-343586D01*
X247234Y-342735D01*
X246673Y-342004D01*
X245942Y-341443D01*
X245162Y-341120D01*
X245316Y-339950D01*
Y-335950D01*
X245161Y-334775D01*
X244708Y-333681D01*
X243987Y-332741D01*
X243047Y-332019D01*
X241952Y-331566D01*
X240777Y-331411D01*
X239602Y-331566D01*
X238508Y-332019D01*
X237568Y-332741D01*
X236846Y-333681D01*
X236393Y-334775D01*
X236238Y-335950D01*
Y-339950D01*
X236393Y-341125D01*
X236743Y-341969D01*
Y-344689D01*
X236372Y-344725D01*
X235146Y-345097D01*
X235013Y-345169D01*
X194662D01*
Y-341969D01*
X195011Y-341125D01*
X195166Y-339950D01*
Y-335950D01*
X195011Y-334775D01*
X194558Y-333681D01*
X193837Y-332741D01*
X192897Y-332019D01*
X191802Y-331566D01*
X190627Y-331411D01*
X189453Y-331566D01*
X188358Y-332019D01*
X187418Y-332741D01*
X186697Y-333681D01*
X186243Y-334775D01*
X186088Y-335950D01*
Y-339950D01*
X186243Y-341125D01*
X186593Y-341969D01*
Y-345169D01*
X144512D01*
Y-341969D01*
X144861Y-341125D01*
X145016Y-339950D01*
Y-335950D01*
X144861Y-334775D01*
X144408Y-333681D01*
X143687Y-332741D01*
X142747Y-332019D01*
X141652Y-331566D01*
X140477Y-331411D01*
X139303Y-331566D01*
X138208Y-332019D01*
X137268Y-332741D01*
X136547Y-333681D01*
X136093Y-334775D01*
X135938Y-335950D01*
Y-339950D01*
X136093Y-341125D01*
X136443Y-341969D01*
Y-345169D01*
X98577D01*
X97303Y-345294D01*
X96078Y-345666D01*
X94949Y-346269D01*
X93959Y-347082D01*
X93147Y-348071D01*
X92543Y-349201D01*
X92171Y-350426D01*
X92046Y-351700D01*
X92171Y-352974D01*
X92543Y-354200D01*
X93147Y-355329D01*
X93541Y-355810D01*
X93327Y-356262D01*
X33300D01*
Y-309800D01*
X51835Y-291265D01*
Y-266178D01*
X57649D01*
X57863Y-266630D01*
X57430Y-267157D01*
X56834Y-268273D01*
X56467Y-269483D01*
X56441Y-269742D01*
X71118D01*
X71092Y-269483D01*
X70725Y-268273D01*
X70129Y-267157D01*
X69326Y-266180D01*
X69326D01*
Y-266179D01*
Y-266179D01*
X69327Y-266178D01*
X69327Y-266178D01*
X77100D01*
X77524Y-266122D01*
X77948Y-266066D01*
X78344Y-265903D01*
X78739Y-265739D01*
X79418Y-265218D01*
X79418Y-265218D01*
X79418Y-265218D01*
X87058Y-257578D01*
X134371D01*
Y-261200D01*
X134487Y-261785D01*
X134819Y-262281D01*
X135315Y-262613D01*
X135900Y-262729D01*
X150900D01*
X151485Y-262613D01*
X151981Y-262281D01*
X152313Y-261785D01*
X152429Y-261200D01*
Y-248200D01*
X152313Y-247615D01*
X151981Y-247119D01*
X151485Y-246787D01*
X150900Y-246671D01*
X135900D01*
X135315Y-246787D01*
X134819Y-247119D01*
X134487Y-247615D01*
X134371Y-248200D01*
Y-251022D01*
X85700D01*
X84852Y-251134D01*
X84293Y-251365D01*
X84061Y-251461D01*
X83766Y-251687D01*
X83382Y-251982D01*
X75742Y-259622D01*
X69986D01*
X69773Y-259170D01*
X70129Y-258736D01*
X70725Y-257621D01*
X71092Y-256410D01*
X71118Y-256151D01*
X56441D01*
X56467Y-256410D01*
X56834Y-257621D01*
X57430Y-258736D01*
X57786Y-259170D01*
X57573Y-259622D01*
X51835D01*
Y-233917D01*
X58808D01*
X58976Y-234388D01*
X58233Y-234998D01*
X57430Y-235976D01*
X56834Y-237092D01*
X56467Y-238302D01*
X56441Y-238561D01*
X71118D01*
X71092Y-238302D01*
X70725Y-237092D01*
X70129Y-235976D01*
X69326Y-234998D01*
X68348Y-234196D01*
X68418Y-233917D01*
X73886D01*
X74669Y-233814D01*
X75399Y-233512D01*
X76025Y-233031D01*
X76025Y-233031D01*
X76025Y-233031D01*
X79065Y-229991D01*
X79077Y-229993D01*
X80188Y-229846D01*
X81223Y-229417D01*
X82112Y-228735D01*
X82120Y-228726D01*
X86460D01*
X87231Y-229317D01*
X88266Y-229746D01*
X89377Y-229893D01*
X90488Y-229746D01*
X91523Y-229317D01*
X92413Y-228635D01*
X93095Y-227746D01*
X93524Y-226711D01*
X93670Y-225600D01*
X93524Y-224489D01*
X93095Y-223454D01*
X92413Y-222565D01*
X91523Y-221883D01*
X90488Y-221454D01*
X89377Y-221307D01*
X88266Y-221454D01*
X87231Y-221883D01*
X86342Y-222565D01*
X86258Y-222674D01*
X82120D01*
X82112Y-222665D01*
X81223Y-221983D01*
X80188Y-221554D01*
X79077Y-221407D01*
X77966Y-221554D01*
X76931Y-221983D01*
X76042Y-222665D01*
X75360Y-223554D01*
X74931Y-224589D01*
X74785Y-225700D01*
X74786Y-225712D01*
X72632Y-227866D01*
X70449D01*
X70192Y-227437D01*
X70725Y-226439D01*
X71092Y-225229D01*
X71118Y-224970D01*
X56441D01*
X56467Y-225229D01*
X56834Y-226439D01*
X57367Y-227437D01*
X57110Y-227866D01*
X51835D01*
Y-189207D01*
X52251Y-188929D01*
X52686Y-189110D01*
X53600Y-189230D01*
X56930D01*
X57187Y-189659D01*
X56834Y-190320D01*
X56467Y-191530D01*
X56343Y-192789D01*
X56467Y-194048D01*
X56834Y-195258D01*
X57430Y-196374D01*
X58233Y-197352D01*
X59211Y-198154D01*
X60326Y-198750D01*
X61537Y-199117D01*
X62795Y-199241D01*
X64764D01*
X66023Y-199117D01*
X67233Y-198750D01*
X68348Y-198154D01*
X69326Y-197352D01*
X70129Y-196374D01*
X70725Y-195258D01*
X71092Y-194048D01*
X71216Y-192789D01*
X71092Y-191530D01*
X70725Y-190320D01*
X70129Y-189204D01*
X70274Y-188898D01*
X76254D01*
X76931Y-189418D01*
X77966Y-189846D01*
X79077Y-189993D01*
X80188Y-189846D01*
X81223Y-189418D01*
X82112Y-188735D01*
X82795Y-187846D01*
X83224Y-186811D01*
X83370Y-185700D01*
X83224Y-184589D01*
X82795Y-183554D01*
X82112Y-182665D01*
X81223Y-181983D01*
X80188Y-181554D01*
X79077Y-181407D01*
X77966Y-181554D01*
X77281Y-181838D01*
X71185D01*
Y-170777D01*
X56374D01*
Y-182170D01*
X55062D01*
X51835Y-178942D01*
Y-173635D01*
X42900Y-164700D01*
X18200D01*
X16200Y-162700D01*
Y-137200D01*
X2039D01*
Y-132276D01*
X2531Y-132211D01*
X2960Y-133246D01*
X3642Y-134135D01*
X4531Y-134818D01*
X5566Y-135246D01*
X6677Y-135393D01*
X7788Y-135246D01*
X8823Y-134818D01*
X9564Y-134249D01*
X14069D01*
X14442Y-134735D01*
X15331Y-135417D01*
X16366Y-135846D01*
X17477Y-135993D01*
X18588Y-135846D01*
X19624Y-135417D01*
X20513Y-134735D01*
X21195Y-133846D01*
X21624Y-132811D01*
X21770Y-131700D01*
X21624Y-130589D01*
X21195Y-129554D01*
X20513Y-128665D01*
X19624Y-127982D01*
X18588Y-127554D01*
X17477Y-127407D01*
X16366Y-127554D01*
X15331Y-127982D01*
X14442Y-128665D01*
X14069Y-129151D01*
X10476D01*
X10395Y-128954D01*
X9713Y-128065D01*
X8823Y-127383D01*
X7788Y-126954D01*
X6677Y-126807D01*
X5566Y-126954D01*
X4531Y-127383D01*
X3642Y-128065D01*
X2960Y-128954D01*
X2531Y-129989D01*
X2039Y-129924D01*
Y-92276D01*
X2531Y-92211D01*
X2960Y-93246D01*
X3642Y-94135D01*
X4531Y-94818D01*
X5566Y-95246D01*
X5677Y-95261D01*
Y-91101D01*
Y-86939D01*
X5566Y-86954D01*
X4531Y-87383D01*
X3642Y-88065D01*
X2960Y-88954D01*
X2531Y-89989D01*
X2039Y-89924D01*
Y-2072D01*
X125382D01*
X125573Y-2534D01*
X120381Y-7727D01*
X119820Y-8458D01*
X119467Y-9309D01*
X119347Y-10223D01*
Y-10318D01*
X118988Y-10786D01*
X118539Y-11869D01*
X118386Y-13032D01*
Y-16969D01*
X118539Y-18131D01*
X118988Y-19214D01*
X119702Y-20144D01*
X120632Y-20858D01*
X121715Y-21307D01*
X122877Y-21460D01*
X124040Y-21307D01*
X125123Y-20858D01*
X126053Y-20144D01*
X126767Y-19214D01*
X127215Y-18131D01*
X127368Y-16969D01*
Y-13032D01*
X127215Y-11869D01*
X126925Y-11168D01*
X129962Y-8130D01*
X147724D01*
Y-8579D01*
X147724D01*
Y-14000D01*
X156630D01*
Y-8579D01*
X156630D01*
Y-8484D01*
X156983Y-8130D01*
X161470D01*
X161503Y-8629D01*
X161015Y-8693D01*
X159932Y-9142D01*
X159002Y-9856D01*
X158288Y-10786D01*
X157839Y-11869D01*
X157686Y-13032D01*
Y-16969D01*
X157839Y-18131D01*
X158288Y-19214D01*
X159002Y-20144D01*
X159932Y-20858D01*
X161015Y-21307D01*
X162177Y-21460D01*
X163340Y-21307D01*
X164423Y-20858D01*
X165353Y-20144D01*
X166067Y-19214D01*
X166515Y-18131D01*
X166668Y-16969D01*
Y-13032D01*
X166515Y-11869D01*
X166067Y-10786D01*
X165353Y-9856D01*
X164423Y-9142D01*
X163340Y-8693D01*
X162852Y-8629D01*
X162884Y-8130D01*
X171470D01*
X171503Y-8629D01*
X172177Y-8540D01*
X172852Y-8629D01*
X172885Y-8130D01*
X181470D01*
X181503Y-8629D01*
X181015Y-8693D01*
X179932Y-9142D01*
X179001Y-9856D01*
X178288Y-10786D01*
X177839Y-11869D01*
X177686Y-13032D01*
Y-16969D01*
X177839Y-18131D01*
X178288Y-19214D01*
X179001Y-20144D01*
X179932Y-20858D01*
X181015Y-21307D01*
X182177Y-21460D01*
X183340Y-21307D01*
X184423Y-20858D01*
X185353Y-20144D01*
X186067Y-19214D01*
X186515Y-18131D01*
X186668Y-16969D01*
Y-13032D01*
X186515Y-11869D01*
X186067Y-10786D01*
X185353Y-9856D01*
X184423Y-9142D01*
X183340Y-8693D01*
X182852Y-8629D01*
X182885Y-8130D01*
X191470D01*
X191503Y-8629D01*
X192177Y-8540D01*
X192852Y-8629D01*
X192885Y-8130D01*
X201470D01*
X201503Y-8629D01*
X201015Y-8693D01*
X199932Y-9142D01*
X199002Y-9856D01*
X198288Y-10786D01*
X197839Y-11869D01*
X197686Y-13032D01*
Y-16969D01*
X197839Y-18131D01*
X198288Y-19214D01*
X199002Y-20144D01*
X199932Y-20858D01*
X201015Y-21307D01*
X202177Y-21460D01*
X203340Y-21307D01*
X204423Y-20858D01*
X205353Y-20144D01*
X206067Y-19214D01*
X206515Y-18131D01*
X206668Y-16969D01*
Y-13032D01*
X206515Y-11869D01*
X206067Y-10786D01*
X205353Y-9856D01*
X204423Y-9142D01*
X203340Y-8693D01*
X202852Y-8629D01*
X202885Y-8130D01*
X211470D01*
X211503Y-8629D01*
X212177Y-8540D01*
X212852Y-8629D01*
X212884Y-8130D01*
X221470D01*
X221503Y-8629D01*
X221015Y-8693D01*
X219932Y-9142D01*
X219002Y-9856D01*
X218288Y-10786D01*
X217839Y-11869D01*
X217686Y-13032D01*
Y-16969D01*
X217839Y-18131D01*
X218288Y-19214D01*
X219002Y-20144D01*
X219932Y-20858D01*
X221015Y-21307D01*
X222177Y-21460D01*
X223340Y-21307D01*
X224423Y-20858D01*
X225353Y-20144D01*
X226067Y-19214D01*
X226515Y-18131D01*
X226668Y-16969D01*
Y-13032D01*
X226515Y-11869D01*
X226067Y-10786D01*
X225353Y-9856D01*
X224423Y-9142D01*
X223340Y-8693D01*
X222852Y-8629D01*
X222884Y-8130D01*
X231470D01*
X231503Y-8629D01*
X232177Y-8540D01*
X232852Y-8629D01*
X232885Y-8130D01*
X241470D01*
X241503Y-8629D01*
X241015Y-8693D01*
X239932Y-9142D01*
X239001Y-9856D01*
X238288Y-10786D01*
X237839Y-11869D01*
X237686Y-13032D01*
Y-16969D01*
X237839Y-18131D01*
X238288Y-19214D01*
X239001Y-20144D01*
X239932Y-20858D01*
X241015Y-21307D01*
X242177Y-21460D01*
X243340Y-21307D01*
X244423Y-20858D01*
X245353Y-20144D01*
X246067Y-19214D01*
X246515Y-18131D01*
X246668Y-16969D01*
Y-13032D01*
X246515Y-11869D01*
X246067Y-10786D01*
X245353Y-9856D01*
X244423Y-9142D01*
X243340Y-8693D01*
X242852Y-8629D01*
X242884Y-8130D01*
X255740D01*
X256500Y-8230D01*
X257414Y-8110D01*
X258265Y-7757D01*
X258996Y-7196D01*
X259557Y-6465D01*
X259910Y-5614D01*
X260030Y-4700D01*
X259910Y-3786D01*
X259557Y-2935D01*
X258996Y-2204D01*
X258896Y-2104D01*
X258907Y-2072D01*
X391662D01*
Y-165971D01*
D02*
G37*
%LPC*%
G36*
X64780Y-217519D02*
Y-222970D01*
X71118D01*
X71092Y-222711D01*
X70725Y-221501D01*
X70129Y-220386D01*
X69326Y-219408D01*
X68348Y-218605D01*
X67233Y-218009D01*
X66023Y-217642D01*
X64780Y-217519D01*
D02*
G37*
G36*
X266850Y-208511D02*
X265936Y-208631D01*
X265085Y-208984D01*
X264353Y-209545D01*
X263792Y-210276D01*
X263440Y-211127D01*
X263319Y-212041D01*
X263440Y-212955D01*
X263792Y-213806D01*
X264353Y-214537D01*
X265085Y-215098D01*
X265936Y-215451D01*
X266850Y-215571D01*
X267763Y-215451D01*
X268615Y-215098D01*
X269346Y-214537D01*
X269907Y-213806D01*
X270259Y-212955D01*
X270380Y-212041D01*
X270259Y-211127D01*
X269907Y-210276D01*
X269346Y-209545D01*
X268615Y-208984D01*
X267763Y-208631D01*
X266850Y-208511D01*
D02*
G37*
G36*
X281587Y-223977D02*
X281080Y-224316D01*
X280618Y-225007D01*
X280498Y-225610D01*
X281587D01*
Y-223977D01*
D02*
G37*
G36*
X62780Y-217519D02*
X61537Y-217642D01*
X60326Y-218009D01*
X59211Y-218605D01*
X58233Y-219408D01*
X57430Y-220386D01*
X56834Y-221501D01*
X56467Y-222711D01*
X56441Y-222970D01*
X62780D01*
Y-217519D01*
D02*
G37*
G36*
X280177Y-202651D02*
X279202Y-202845D01*
X278375Y-203398D01*
X277822Y-204224D01*
X277628Y-205200D01*
X277822Y-206175D01*
X278138Y-206648D01*
Y-218200D01*
X278138Y-218200D01*
X278138D01*
X278293Y-218980D01*
X278735Y-219642D01*
X282377Y-223284D01*
X282232Y-223762D01*
X282517Y-223705D01*
Y-225359D01*
X282424Y-225823D01*
Y-226611D01*
Y-227398D01*
X282467Y-227610D01*
X280498D01*
X280582Y-228029D01*
X280264Y-228416D01*
X279832D01*
X279367Y-228508D01*
X276350D01*
Y-227617D01*
X276350D01*
Y-227484D01*
X276450Y-227383D01*
X276450D01*
Y-221831D01*
X276450Y-221831D01*
D01*
D01*
X276450Y-221628D01*
Y-221612D01*
Y-221553D01*
X276450Y-221478D01*
X276450Y-221274D01*
X276450Y-221274D01*
X276450D01*
Y-215722D01*
X270104D01*
Y-216561D01*
X268533D01*
X267753Y-216716D01*
X267558Y-216846D01*
X266850Y-216753D01*
X265936Y-216874D01*
X265085Y-217226D01*
X264353Y-217787D01*
X263792Y-218518D01*
X263440Y-219370D01*
X263319Y-220283D01*
X263440Y-221197D01*
X263792Y-222048D01*
X264353Y-222780D01*
X265085Y-223341D01*
X265936Y-223693D01*
X266850Y-223814D01*
X267763Y-223693D01*
X268615Y-223341D01*
X269346Y-222780D01*
X269631Y-222409D01*
X270104Y-222569D01*
Y-227383D01*
X270104D01*
Y-227517D01*
X270004Y-227617D01*
X270004D01*
Y-233169D01*
X270004Y-233169D01*
X270004D01*
X270004Y-233372D01*
Y-233522D01*
D01*
D01*
D01*
X270004D01*
D01*
Y-235400D01*
X276350D01*
Y-233726D01*
X276350Y-233726D01*
D01*
D01*
X276350Y-233522D01*
Y-233506D01*
Y-233447D01*
X276350Y-233372D01*
X276350Y-233169D01*
X276350Y-233169D01*
X276350D01*
Y-232586D01*
X279367D01*
X279832Y-232679D01*
X281284D01*
Y-232679D01*
X281406D01*
X282222Y-232517D01*
X282247Y-232500D01*
X296707D01*
X296732Y-232517D01*
X297548Y-232679D01*
X297670D01*
Y-232679D01*
X299123D01*
X299587Y-232586D01*
X301030D01*
X301810Y-232431D01*
X302472Y-231989D01*
X306419Y-228042D01*
X306861Y-227380D01*
X307016Y-226600D01*
X307016Y-226600D01*
X307016Y-226600D01*
Y-226600D01*
Y-219783D01*
X314350D01*
Y-214028D01*
D01*
Y-214028D01*
X314351Y-214028D01*
Y-213878D01*
D01*
X314350Y-213549D01*
X316077D01*
X317053Y-213355D01*
X317880Y-212802D01*
X318432Y-211976D01*
X318626Y-211000D01*
X318432Y-210024D01*
X317880Y-209198D01*
X317053Y-208645D01*
X316077Y-208451D01*
X314350D01*
Y-208122D01*
X305977D01*
Y-211001D01*
X303977D01*
Y-208122D01*
X301804D01*
Y-208322D01*
X295604D01*
Y-208422D01*
X289304D01*
Y-208717D01*
X287477D01*
Y-211596D01*
X286478D01*
Y-212595D01*
X283304D01*
Y-214472D01*
X283304Y-214472D01*
X283304Y-214622D01*
X283304D01*
Y-217790D01*
X282842Y-217981D01*
X282216Y-217355D01*
Y-206648D01*
X282532Y-206175D01*
X282726Y-205200D01*
X282532Y-204224D01*
X281980Y-203398D01*
X281153Y-202845D01*
X280177Y-202651D01*
D02*
G37*
G36*
X285477Y-208717D02*
X283304D01*
Y-210595D01*
X285477D01*
Y-208717D01*
D02*
G37*
G36*
X62780Y-209380D02*
X56441D01*
X56467Y-209638D01*
X56834Y-210849D01*
X57430Y-211964D01*
X58233Y-212942D01*
X59211Y-213744D01*
X60326Y-214341D01*
X61537Y-214708D01*
X62780Y-214830D01*
Y-209380D01*
D02*
G37*
G36*
X71118D02*
X64780D01*
Y-214830D01*
X66023Y-214708D01*
X67233Y-214341D01*
X68348Y-213744D01*
X69326Y-212942D01*
X70129Y-211964D01*
X70725Y-210849D01*
X71092Y-209638D01*
X71118Y-209380D01*
D02*
G37*
G36*
X297670Y-234321D02*
X297548D01*
X296732Y-234483D01*
X296707Y-234500D01*
X282247D01*
X282222Y-234483D01*
X281406Y-234321D01*
X281284D01*
Y-234321D01*
X279832D01*
X279016Y-234484D01*
X278324Y-234946D01*
X277862Y-235637D01*
X277700Y-236453D01*
X277862Y-237268D01*
X278324Y-237960D01*
X277299Y-239494D01*
X270035Y-246758D01*
X269593Y-247420D01*
X269438Y-248200D01*
Y-248688D01*
X268990Y-248909D01*
X268642Y-248643D01*
X267791Y-248290D01*
X266877Y-248170D01*
X265964Y-248290D01*
X265112Y-248643D01*
X264381Y-249204D01*
X263820Y-249935D01*
X263467Y-250786D01*
X263347Y-251700D01*
X263467Y-252614D01*
X263820Y-253465D01*
X264381Y-254196D01*
X265112Y-254757D01*
X265964Y-255110D01*
X266877Y-255230D01*
X267791Y-255110D01*
X268642Y-254757D01*
X268990Y-254491D01*
X269438Y-254712D01*
Y-257222D01*
X268227D01*
Y-258386D01*
X267811Y-258664D01*
X267391Y-258490D01*
X266477Y-258370D01*
X265564Y-258490D01*
X264712Y-258843D01*
X263981Y-259404D01*
X263420Y-260135D01*
X263067Y-260986D01*
X262947Y-261900D01*
X263067Y-262814D01*
X263420Y-263665D01*
X263981Y-264396D01*
X264712Y-264957D01*
X265564Y-265310D01*
X266477Y-265430D01*
X267391Y-265310D01*
X267811Y-265136D01*
X268227Y-265414D01*
Y-268883D01*
X274573D01*
Y-268783D01*
X275522D01*
Y-274973D01*
X281278D01*
X281278Y-274973D01*
Y-274973D01*
X281278D01*
X281428D01*
X281631Y-274973D01*
X281632Y-274973D01*
Y-274973D01*
X283306D01*
Y-271799D01*
X285306D01*
Y-274973D01*
X287183D01*
X287183Y-274973D01*
Y-274973D01*
X287307Y-274998D01*
X287585Y-275414D01*
X287528Y-275700D01*
X287722Y-276676D01*
X288275Y-277502D01*
X289102Y-278055D01*
X290077Y-278249D01*
X291053Y-278055D01*
X291880Y-277502D01*
X292432Y-276676D01*
X292626Y-275700D01*
X292432Y-274725D01*
X292513Y-274573D01*
X292955D01*
Y-274573D01*
X292955D01*
X292955Y-274573D01*
X293105D01*
Y-274573D01*
X298861D01*
Y-268578D01*
X300802D01*
Y-265699D01*
X302802D01*
Y-268578D01*
X304466D01*
Y-268578D01*
X306640D01*
Y-265699D01*
X308640D01*
Y-268578D01*
X312477D01*
Y-265699D01*
X313476D01*
Y-264700D01*
X316650D01*
Y-263026D01*
X316650Y-263026D01*
D01*
D01*
X316650Y-262822D01*
Y-262806D01*
Y-262747D01*
X316650Y-262672D01*
X316650Y-262469D01*
X316650Y-262469D01*
X316650D01*
Y-256916D01*
X315516D01*
Y-255241D01*
X315995Y-255096D01*
X316049Y-255176D01*
X318028Y-257156D01*
Y-267897D01*
X317928Y-268400D01*
X318122Y-269375D01*
X318675Y-270202D01*
X319502Y-270755D01*
X320477Y-270949D01*
X321453Y-270755D01*
X322280Y-270202D01*
X322320Y-270143D01*
X322380Y-270102D01*
X322932Y-269275D01*
X323126Y-268300D01*
Y-256100D01*
X322932Y-255124D01*
X322380Y-254298D01*
X320400Y-252318D01*
Y-243959D01*
X321320D01*
Y-235841D01*
X314383D01*
Y-243959D01*
X315302D01*
Y-251588D01*
X314840Y-251779D01*
X312016Y-248955D01*
Y-243959D01*
X313446D01*
Y-235841D01*
X306509D01*
Y-237194D01*
X306047Y-237386D01*
X303672Y-235011D01*
X303010Y-234569D01*
X302230Y-234414D01*
X299587D01*
X299123Y-234321D01*
X297670D01*
Y-234321D01*
D02*
G37*
G36*
X62780Y-248701D02*
X61537Y-248823D01*
X60326Y-249190D01*
X59211Y-249786D01*
X58233Y-250589D01*
X57430Y-251567D01*
X56834Y-252682D01*
X56467Y-253893D01*
X56441Y-254151D01*
X62780D01*
Y-248701D01*
D02*
G37*
G36*
X64780D02*
Y-254151D01*
X71118D01*
X71092Y-253893D01*
X70725Y-252682D01*
X70129Y-251567D01*
X69326Y-250589D01*
X68348Y-249786D01*
X67233Y-249190D01*
X66023Y-248823D01*
X64780Y-248701D01*
D02*
G37*
G36*
X266177Y-229851D02*
X265202Y-230045D01*
X264375Y-230598D01*
X263822Y-231424D01*
X263711Y-231982D01*
X254635Y-241058D01*
X254193Y-241720D01*
X254038Y-242500D01*
Y-265952D01*
X253722Y-266424D01*
X253528Y-267400D01*
X253722Y-268375D01*
X254275Y-269202D01*
X255102Y-269755D01*
X256077Y-269949D01*
X257053Y-269755D01*
X257880Y-269202D01*
X258432Y-268375D01*
X258626Y-267400D01*
X258432Y-266424D01*
X258116Y-265952D01*
Y-243345D01*
X266595Y-234866D01*
X267153Y-234755D01*
X267980Y-234202D01*
X268532Y-233376D01*
X268726Y-232400D01*
X268532Y-231424D01*
X267980Y-230598D01*
X267153Y-230045D01*
X266177Y-229851D01*
D02*
G37*
G36*
X316650Y-266700D02*
X314477D01*
Y-268578D01*
X316650D01*
Y-266700D01*
D02*
G37*
G36*
X272177Y-237400D02*
X270004D01*
Y-239278D01*
X272177D01*
Y-237400D01*
D02*
G37*
G36*
X276350D02*
X274177D01*
Y-239278D01*
X276350D01*
Y-237400D01*
D02*
G37*
G36*
X62780Y-240561D02*
X56441D01*
X56467Y-240820D01*
X56834Y-242030D01*
X57430Y-243146D01*
X58233Y-244123D01*
X59211Y-244926D01*
X60326Y-245522D01*
X61537Y-245889D01*
X62780Y-246012D01*
Y-240561D01*
D02*
G37*
G36*
X71118D02*
X64780D01*
Y-246012D01*
X66023Y-245889D01*
X67233Y-245522D01*
X68348Y-244926D01*
X69326Y-244123D01*
X70129Y-243146D01*
X70725Y-242030D01*
X71092Y-240820D01*
X71118Y-240561D01*
D02*
G37*
G36*
X62780Y-201929D02*
X61537Y-202051D01*
X60326Y-202418D01*
X59211Y-203015D01*
X58233Y-203817D01*
X57430Y-204795D01*
X56834Y-205910D01*
X56467Y-207121D01*
X56441Y-207380D01*
X62780D01*
Y-201929D01*
D02*
G37*
G36*
X68600Y-115551D02*
X67624Y-115745D01*
X66798Y-116298D01*
X66245Y-117124D01*
X66051Y-118100D01*
X66245Y-119076D01*
X66798Y-119902D01*
X67624Y-120455D01*
X68362Y-120602D01*
X69651Y-121891D01*
X69602Y-122388D01*
X68814Y-122914D01*
X68262Y-123741D01*
X68243Y-123836D01*
X67765Y-123981D01*
X66742Y-122958D01*
X66080Y-122516D01*
X65300Y-122361D01*
X24425D01*
X24367Y-122322D01*
X23953Y-122045D01*
X22977Y-121851D01*
X22002Y-122045D01*
X21175Y-122598D01*
X20622Y-123424D01*
X20428Y-124400D01*
X20622Y-125375D01*
X21175Y-126202D01*
X22002Y-126755D01*
X22977Y-126949D01*
X23953Y-126755D01*
X24261Y-126549D01*
X24425Y-126439D01*
X64455D01*
X77995Y-139979D01*
X77804Y-140441D01*
X66368D01*
X65895Y-140125D01*
X64920Y-139931D01*
X63944Y-140125D01*
X63117Y-140678D01*
X62565Y-141505D01*
X62371Y-142480D01*
X62565Y-143456D01*
X62676Y-143622D01*
X62440Y-144063D01*
X60901D01*
X60276Y-143645D01*
X59300Y-143451D01*
X58325Y-143645D01*
X57498Y-144198D01*
X56945Y-145025D01*
X56751Y-146000D01*
X56945Y-146976D01*
X57498Y-147802D01*
X58325Y-148355D01*
X59300Y-148549D01*
X60276Y-148355D01*
X60901Y-147937D01*
X77098D01*
X113730Y-184570D01*
X113730D01*
X113730Y-184570D01*
X113730Y-184570D01*
Y-184570D01*
X114359Y-184990D01*
X115100Y-185137D01*
X196000D01*
X196741Y-184990D01*
X197370Y-184570D01*
X197370Y-184570D01*
X197370Y-184570D01*
X199308Y-182632D01*
X199728Y-182003D01*
X199875Y-181262D01*
X199875Y-181262D01*
X199875Y-181262D01*
Y-181262D01*
Y-180216D01*
X200156Y-180179D01*
X200825Y-179902D01*
X201399Y-179461D01*
X201840Y-178887D01*
X202117Y-178218D01*
X202212Y-177500D01*
X202117Y-176782D01*
X201840Y-176113D01*
X201399Y-175539D01*
X200825Y-175098D01*
Y-174902D01*
X201399Y-174461D01*
X201840Y-173887D01*
X202000Y-173500D01*
X193876D01*
X194036Y-173887D01*
X194476Y-174461D01*
X194853Y-174750D01*
Y-175250D01*
X194476Y-175539D01*
X194036Y-176113D01*
X193759Y-176782D01*
X193664Y-177500D01*
X193759Y-178218D01*
X194036Y-178887D01*
X194476Y-179461D01*
X195051Y-179902D01*
X195701Y-180171D01*
X195713Y-180232D01*
X195635Y-180825D01*
X195198Y-181263D01*
X115902D01*
X109641Y-175001D01*
X109832Y-174539D01*
X171050D01*
Y-174750D01*
X171050D01*
Y-180250D01*
X179550D01*
Y-179539D01*
X181754D01*
X182225Y-179854D01*
X183200Y-180048D01*
X184176Y-179854D01*
X185002Y-179301D01*
X185555Y-178474D01*
X185749Y-177499D01*
X185555Y-176523D01*
X185002Y-175696D01*
X184176Y-175144D01*
X183200Y-174950D01*
X182225Y-175144D01*
X181750Y-175461D01*
X179550D01*
Y-174750D01*
X179105D01*
X178884Y-174302D01*
X179202Y-173887D01*
X179479Y-173218D01*
X179574Y-172500D01*
X179479Y-171782D01*
X179202Y-171113D01*
X178761Y-170539D01*
X178187Y-170098D01*
Y-169902D01*
X178761Y-169461D01*
X179202Y-168887D01*
X179479Y-168218D01*
X179574Y-167500D01*
X179479Y-166782D01*
X179202Y-166113D01*
X178761Y-165539D01*
X178187Y-165098D01*
Y-164902D01*
X178761Y-164461D01*
X179202Y-163887D01*
X179362Y-163500D01*
X171238D01*
X171398Y-163887D01*
X171839Y-164461D01*
X172215Y-164750D01*
Y-165250D01*
X171839Y-165539D01*
X171820Y-165563D01*
X161502D01*
X159570Y-163630D01*
X158941Y-163210D01*
X158200Y-163063D01*
X155778D01*
Y-161827D01*
X150022D01*
D01*
D01*
X150022Y-161827D01*
X149873D01*
Y-161827D01*
X144184D01*
Y-156387D01*
X249725D01*
X250425Y-156855D01*
X251400Y-157049D01*
X252376Y-156855D01*
X253202Y-156302D01*
X253755Y-155475D01*
X253902Y-154736D01*
X254309Y-154655D01*
X255135Y-154102D01*
X255688Y-153276D01*
X255882Y-152300D01*
X255688Y-151324D01*
X255135Y-150498D01*
X254309Y-149945D01*
X253333Y-149751D01*
X252358Y-149945D01*
X251732Y-150363D01*
X103602D01*
X71102Y-117862D01*
X70955Y-117124D01*
X70402Y-116298D01*
X69576Y-115745D01*
X68600Y-115551D01*
D02*
G37*
G36*
X45200Y-98251D02*
X44225Y-98445D01*
X43398Y-98998D01*
X42845Y-99825D01*
X42651Y-100800D01*
X42845Y-101776D01*
X43398Y-102602D01*
X44225Y-103155D01*
X45200Y-103349D01*
X46176Y-103155D01*
X46801Y-102737D01*
X63198D01*
X80330Y-119870D01*
X80959Y-120290D01*
X81700Y-120437D01*
X158173D01*
X158394Y-120886D01*
X158188Y-121154D01*
X157739Y-122238D01*
X157586Y-123400D01*
X157739Y-124562D01*
X158188Y-125646D01*
X158471Y-126014D01*
X158249Y-126463D01*
X133401D01*
X132775Y-126045D01*
X131800Y-125851D01*
X130824Y-126045D01*
X129998Y-126598D01*
X129445Y-127425D01*
X129251Y-128400D01*
X129445Y-129376D01*
X129998Y-130202D01*
X130824Y-130755D01*
X131800Y-130949D01*
X132473Y-130815D01*
X132889Y-131093D01*
X132945Y-131376D01*
X133498Y-132202D01*
X134325Y-132755D01*
X135300Y-132949D01*
X136275Y-132755D01*
X136901Y-132337D01*
X137189D01*
X137506Y-132724D01*
X137451Y-133000D01*
X137581Y-133655D01*
X136625Y-133845D01*
X135798Y-134398D01*
X135245Y-135224D01*
X135051Y-136200D01*
X135245Y-137176D01*
X135798Y-138002D01*
X136625Y-138555D01*
X137600Y-138749D01*
X138575Y-138555D01*
X139201Y-138137D01*
X141724D01*
X141869Y-138616D01*
X141298Y-138998D01*
X140745Y-139824D01*
X140551Y-140800D01*
X140745Y-141776D01*
X141298Y-142602D01*
X142124Y-143155D01*
X142679Y-143265D01*
X142630Y-143763D01*
X109102D01*
X108002Y-142662D01*
X107855Y-141925D01*
X107302Y-141098D01*
X106475Y-140545D01*
X105500Y-140351D01*
X104525Y-140545D01*
X103698Y-141098D01*
X103145Y-141925D01*
X102951Y-142900D01*
X103145Y-143876D01*
X103698Y-144702D01*
X104525Y-145255D01*
X105262Y-145402D01*
X106930Y-147070D01*
X107559Y-147490D01*
X108300Y-147637D01*
X246499D01*
X247125Y-148055D01*
X248100Y-148249D01*
X249076Y-148055D01*
X249902Y-147502D01*
X250455Y-146676D01*
X250649Y-145700D01*
X250561Y-145260D01*
X250788Y-144984D01*
X340554D01*
X341295Y-144836D01*
X341923Y-144416D01*
X341923Y-144416D01*
X341923Y-144416D01*
X346338Y-140002D01*
X347076Y-139855D01*
X347902Y-139302D01*
X348455Y-138476D01*
X348649Y-137500D01*
X348455Y-136524D01*
X347902Y-135698D01*
X347076Y-135145D01*
X346100Y-134951D01*
X345125Y-135145D01*
X344298Y-135698D01*
X343745Y-136524D01*
X343598Y-137262D01*
X339751Y-141109D01*
X248313D01*
X247995Y-140723D01*
X248008Y-140659D01*
X247814Y-139684D01*
X247262Y-138857D01*
X246434Y-138304D01*
X245459Y-138110D01*
X244484Y-138304D01*
X244057Y-138590D01*
X243703Y-138236D01*
X243877Y-137976D01*
X244071Y-137000D01*
X243877Y-136024D01*
X243324Y-135198D01*
X242497Y-134645D01*
X241522Y-134451D01*
X240547Y-134645D01*
X239720Y-135198D01*
X239167Y-136024D01*
X239140Y-136163D01*
X215870D01*
X215821Y-135665D01*
X216375Y-135555D01*
X217202Y-135002D01*
X217755Y-134176D01*
X217949Y-133200D01*
X217854Y-132724D01*
X218171Y-132337D01*
X231700D01*
X232441Y-132190D01*
X233070Y-131770D01*
X234970Y-129870D01*
X235390Y-129241D01*
X235537Y-128500D01*
Y-128089D01*
X235978Y-127853D01*
X236625Y-128285D01*
X237600Y-128479D01*
X238576Y-128285D01*
X239201Y-127867D01*
X354499D01*
X355124Y-128285D01*
X356100Y-128479D01*
X357076Y-128285D01*
X357902Y-127732D01*
X358455Y-126905D01*
X358649Y-125930D01*
X358455Y-124954D01*
X357902Y-124127D01*
X357076Y-123575D01*
X356100Y-123381D01*
X355124Y-123575D01*
X354525Y-123976D01*
X354499Y-123993D01*
X332300D01*
X332109Y-123531D01*
X338402Y-117237D01*
X374499D01*
X375125Y-117655D01*
X376100Y-117849D01*
X377076Y-117655D01*
X377902Y-117102D01*
X378455Y-116276D01*
X378649Y-115300D01*
X378455Y-114324D01*
X377902Y-113498D01*
X377076Y-112945D01*
X376100Y-112751D01*
X375125Y-112945D01*
X374499Y-113363D01*
X337600D01*
X336859Y-113510D01*
X336230Y-113930D01*
X328098Y-122063D01*
X249001D01*
X248376Y-121645D01*
X247400Y-121451D01*
X246425Y-121645D01*
X245598Y-122198D01*
X245045Y-123024D01*
X244852Y-123993D01*
X239201D01*
X238576Y-123575D01*
X237600Y-123381D01*
X236625Y-123575D01*
X236415Y-123715D01*
X235955Y-123524D01*
X235488Y-122825D01*
X235855Y-122275D01*
X236049Y-121300D01*
X235855Y-120325D01*
X235302Y-119498D01*
X234475Y-118945D01*
X233500Y-118751D01*
X232524Y-118945D01*
X231698Y-119498D01*
X231145Y-120325D01*
X230998Y-121062D01*
X229738Y-122322D01*
X229319Y-122950D01*
X229171Y-123692D01*
Y-126289D01*
X228998Y-126463D01*
X165905D01*
X165684Y-126014D01*
X165967Y-125646D01*
X166415Y-124562D01*
X166568Y-123400D01*
X166415Y-122238D01*
X165967Y-121154D01*
X165760Y-120886D01*
X165982Y-120437D01*
X221199D01*
X221825Y-120855D01*
X222800Y-121049D01*
X223776Y-120855D01*
X224602Y-120302D01*
X225155Y-119475D01*
X225349Y-118500D01*
X225155Y-117525D01*
X224602Y-116698D01*
X223776Y-116145D01*
X222800Y-115951D01*
X221825Y-116145D01*
X221199Y-116563D01*
X165828D01*
X165607Y-116114D01*
X165967Y-115646D01*
X166415Y-114562D01*
X166437Y-114400D01*
X157718D01*
X157739Y-114562D01*
X158188Y-115646D01*
X158547Y-116114D01*
X158326Y-116563D01*
X82502D01*
X65370Y-99430D01*
X64741Y-99010D01*
X64000Y-98863D01*
X46801D01*
X46176Y-98445D01*
X45200Y-98251D01*
D02*
G37*
G36*
X26077Y-137300D02*
X17077D01*
Y-150300D01*
X26077D01*
Y-137300D01*
D02*
G37*
G36*
X28377Y-127407D02*
X27266Y-127554D01*
X26231Y-127982D01*
X25342Y-128665D01*
X24660Y-129554D01*
X24231Y-130589D01*
X24085Y-131700D01*
X24231Y-132811D01*
X24660Y-133846D01*
X25342Y-134735D01*
X26231Y-135417D01*
X27266Y-135846D01*
X28377Y-135993D01*
X29488Y-135846D01*
X30523Y-135417D01*
X31413Y-134735D01*
X31420Y-134726D01*
X32996D01*
X33720Y-135026D01*
X34503Y-135129D01*
X50203D01*
X50986Y-135026D01*
X51716Y-134724D01*
X52343Y-134243D01*
X52824Y-133616D01*
X53126Y-132886D01*
X53229Y-132103D01*
X53126Y-131320D01*
X52824Y-130590D01*
X52343Y-129964D01*
X51716Y-129483D01*
X50986Y-129180D01*
X50203Y-129077D01*
X35608D01*
X34883Y-128777D01*
X34100Y-128674D01*
X31420D01*
X31413Y-128665D01*
X30523Y-127982D01*
X29488Y-127554D01*
X28377Y-127407D01*
D02*
G37*
G36*
X166530Y-98947D02*
X157624D01*
Y-107853D01*
X166530D01*
Y-98947D01*
D02*
G37*
G36*
X17477Y-87407D02*
X16366Y-87554D01*
X15331Y-87982D01*
X14442Y-88665D01*
X13760Y-89554D01*
X13331Y-90589D01*
X13185Y-91700D01*
X13331Y-92811D01*
X13760Y-93846D01*
X14442Y-94735D01*
X15331Y-95417D01*
X16366Y-95846D01*
X17477Y-95993D01*
X18588Y-95846D01*
X19624Y-95417D01*
X20513Y-94735D01*
X21195Y-93846D01*
X21624Y-92811D01*
X21770Y-91700D01*
X21624Y-90589D01*
X21195Y-89554D01*
X20513Y-88665D01*
X19624Y-87982D01*
X18588Y-87554D01*
X17477Y-87407D01*
D02*
G37*
G36*
X161077Y-109040D02*
X160915Y-109062D01*
X159832Y-109511D01*
X158902Y-110224D01*
X158188Y-111154D01*
X157739Y-112238D01*
X157718Y-112400D01*
X161077D01*
Y-109040D01*
D02*
G37*
G36*
X163077D02*
Y-112400D01*
X166437D01*
X166415Y-112238D01*
X165967Y-111154D01*
X165253Y-110224D01*
X164323Y-109511D01*
X163240Y-109062D01*
X163077Y-109040D01*
D02*
G37*
G36*
X199438Y-159726D02*
X198938D01*
Y-161500D01*
X202000D01*
X201840Y-161113D01*
X201399Y-160539D01*
X200825Y-160098D01*
X200156Y-159821D01*
X199438Y-159726D01*
D02*
G37*
G36*
X210803Y-191548D02*
X209828Y-191742D01*
X209198Y-192163D01*
X115101D01*
X114476Y-191745D01*
X113500Y-191551D01*
X112524Y-191745D01*
X111698Y-192298D01*
X111145Y-193124D01*
X110951Y-194100D01*
X111145Y-195076D01*
X111698Y-195902D01*
X112186Y-196229D01*
X112245Y-196525D01*
X112245D01*
X112245Y-196525D01*
X112051Y-197500D01*
X112245Y-198476D01*
X112798Y-199302D01*
X113625Y-199855D01*
X114600Y-200049D01*
X115576Y-199855D01*
X116201Y-199437D01*
X121989D01*
X122306Y-199824D01*
X122251Y-200100D01*
X122445Y-201076D01*
X122998Y-201902D01*
X123825Y-202455D01*
X124800Y-202649D01*
X125776Y-202455D01*
X126248Y-202139D01*
X166852D01*
X167324Y-202455D01*
X168300Y-202649D01*
X169275Y-202455D01*
X170102Y-201902D01*
X170655Y-201076D01*
X170849Y-200100D01*
X170794Y-199824D01*
X171111Y-199437D01*
X232499D01*
X233125Y-199855D01*
X234100Y-200049D01*
X235075Y-199855D01*
X235902Y-199302D01*
X236455Y-198476D01*
X236649Y-197500D01*
X236455Y-196525D01*
X235902Y-195698D01*
X235075Y-195145D01*
X234100Y-194951D01*
X233125Y-195145D01*
X232499Y-195563D01*
X213361D01*
X213125Y-195122D01*
X213158Y-195072D01*
X213352Y-194097D01*
X213158Y-193121D01*
X212606Y-192295D01*
X211779Y-191742D01*
X210803Y-191548D01*
D02*
G37*
G36*
X57500Y-160407D02*
X56389Y-160554D01*
X55354Y-160983D01*
X54465Y-161665D01*
X53782Y-162554D01*
X53354Y-163589D01*
X53207Y-164700D01*
X53354Y-165811D01*
X53782Y-166846D01*
X54465Y-167735D01*
X55354Y-168418D01*
X56389Y-168846D01*
X57500Y-168993D01*
X58611Y-168846D01*
X59646Y-168418D01*
X59891Y-168230D01*
X77115D01*
X85847Y-176962D01*
Y-183210D01*
X85660Y-183454D01*
X85231Y-184489D01*
X85085Y-185600D01*
X85231Y-186711D01*
X85660Y-187746D01*
X86342Y-188635D01*
X87231Y-189318D01*
X88266Y-189746D01*
X89377Y-189893D01*
X90488Y-189746D01*
X91523Y-189318D01*
X92413Y-188635D01*
X93095Y-187746D01*
X93524Y-186711D01*
X93670Y-185600D01*
X93524Y-184489D01*
X93095Y-183454D01*
X92907Y-183210D01*
Y-175500D01*
X92787Y-174586D01*
X92434Y-173735D01*
X91873Y-173004D01*
X81073Y-162204D01*
X80342Y-161643D01*
X79491Y-161290D01*
X78577Y-161170D01*
X59891D01*
X59646Y-160983D01*
X58611Y-160554D01*
X57500Y-160407D01*
D02*
G37*
G36*
X64780Y-201929D02*
Y-207380D01*
X71118D01*
X71092Y-207121D01*
X70725Y-205910D01*
X70129Y-204795D01*
X69326Y-203817D01*
X68348Y-203015D01*
X67233Y-202418D01*
X66023Y-202051D01*
X64780Y-201929D01*
D02*
G37*
G36*
X227800Y-200451D02*
X226825Y-200645D01*
X225998Y-201198D01*
X225445Y-202025D01*
X225251Y-203000D01*
X225445Y-203976D01*
X225998Y-204802D01*
X226825Y-205355D01*
X227800Y-205549D01*
X228776Y-205355D01*
X229602Y-204802D01*
X230155Y-203976D01*
X230349Y-203000D01*
X230155Y-202025D01*
X229602Y-201198D01*
X228776Y-200645D01*
X227800Y-200451D01*
D02*
G37*
G36*
X176800Y-159726D02*
X176300D01*
Y-161500D01*
X179362D01*
X179202Y-161113D01*
X178761Y-160539D01*
X178187Y-160098D01*
X177518Y-159821D01*
X176800Y-159726D01*
D02*
G37*
G36*
X196938D02*
X196438D01*
X195720Y-159821D01*
X195051Y-160098D01*
X194476Y-160539D01*
X194036Y-161113D01*
X193876Y-161500D01*
X196938D01*
Y-159726D01*
D02*
G37*
G36*
X286300Y-160351D02*
X285325Y-160545D01*
X284852Y-160861D01*
X208100D01*
X207320Y-161016D01*
X206658Y-161458D01*
X202655Y-165461D01*
X201298D01*
X200825Y-165098D01*
Y-164902D01*
X201399Y-164461D01*
X201840Y-163887D01*
X202000Y-163500D01*
X193876D01*
X194036Y-163887D01*
X194476Y-164461D01*
X194587Y-164546D01*
X194381Y-165001D01*
X193618Y-164850D01*
X192642Y-165044D01*
X191815Y-165596D01*
X191263Y-166423D01*
X191069Y-167399D01*
X191263Y-168374D01*
X191815Y-169201D01*
X192642Y-169754D01*
X193618Y-169948D01*
X194466Y-169779D01*
X194784Y-170040D01*
X194853Y-170142D01*
Y-170250D01*
X194476Y-170539D01*
X194036Y-171113D01*
X193876Y-171500D01*
X202000D01*
X201840Y-171113D01*
X201399Y-170539D01*
X200825Y-170098D01*
Y-169902D01*
X201298Y-169539D01*
X203500D01*
X204280Y-169384D01*
X204942Y-168942D01*
X204942Y-168942D01*
X204942Y-168942D01*
X208945Y-164939D01*
X219368D01*
X219559Y-165401D01*
X218162Y-166798D01*
X217425Y-166945D01*
X216598Y-167498D01*
X216045Y-168324D01*
X215851Y-169300D01*
X216045Y-170275D01*
X216598Y-171102D01*
X217425Y-171655D01*
X218400Y-171849D01*
X219375Y-171655D01*
X220202Y-171102D01*
X220755Y-170275D01*
X220902Y-169538D01*
X222202Y-168237D01*
X239329D01*
X239646Y-168624D01*
X239551Y-169100D01*
X239745Y-170076D01*
X240298Y-170902D01*
X241125Y-171455D01*
X242100Y-171649D01*
X243075Y-171455D01*
X243701Y-171037D01*
X265499D01*
X266125Y-171455D01*
X267100Y-171649D01*
X268075Y-171455D01*
X268902Y-170902D01*
X269455Y-170076D01*
X269649Y-169100D01*
X269513Y-168418D01*
X269661Y-168237D01*
X271199D01*
X271404Y-168374D01*
X271825Y-168655D01*
X272800Y-168849D01*
X273776Y-168655D01*
X274602Y-168102D01*
X275155Y-167276D01*
X275349Y-166300D01*
X275155Y-165325D01*
X275361Y-164939D01*
X284852D01*
X285325Y-165255D01*
X285325Y-165255D01*
X285325Y-165255D01*
D01*
X285325Y-165255D01*
X285325Y-165255D01*
X286300Y-165449D01*
X287276Y-165255D01*
X288102Y-164702D01*
X288655Y-163875D01*
X288849Y-162900D01*
X288655Y-161925D01*
X288102Y-161098D01*
X287276Y-160545D01*
X286300Y-160351D01*
D02*
G37*
G36*
X174300Y-159726D02*
X173800D01*
X173082Y-159821D01*
X172413Y-160098D01*
X171839Y-160539D01*
X171398Y-161113D01*
X171238Y-161500D01*
X174300D01*
Y-159726D01*
D02*
G37*
G36*
X360109Y-324894D02*
X354688D01*
Y-331300D01*
X360109D01*
Y-324894D01*
D02*
G37*
G36*
X94041Y-311503D02*
X92622Y-311690D01*
X91299Y-312237D01*
X90163Y-313109D01*
X89292Y-314245D01*
X88744Y-315567D01*
X88557Y-316987D01*
Y-324861D01*
X88744Y-326280D01*
X89292Y-327603D01*
X90163Y-328738D01*
X91299Y-329610D01*
X92622Y-330158D01*
X94041Y-330345D01*
X95460Y-330158D01*
X96783Y-329610D01*
X97919Y-328738D01*
X98790Y-327603D01*
X99338Y-326280D01*
X99525Y-324861D01*
Y-316987D01*
X99338Y-315567D01*
X98790Y-314245D01*
X97919Y-313109D01*
X96783Y-312237D01*
X95460Y-311690D01*
X94041Y-311503D01*
D02*
G37*
G36*
X315287Y-324994D02*
X309865D01*
Y-331400D01*
X315287D01*
Y-324994D01*
D02*
G37*
G36*
X322708D02*
X317287D01*
Y-331400D01*
X322708D01*
Y-324994D01*
D02*
G37*
G36*
X41072Y-311634D02*
X40653Y-311690D01*
X39331Y-312237D01*
X38195Y-313109D01*
X37323Y-314245D01*
X36775Y-315567D01*
X36588Y-316987D01*
Y-319924D01*
X41072D01*
Y-311634D01*
D02*
G37*
G36*
X43073D02*
Y-319924D01*
X47556D01*
Y-316987D01*
X47370Y-315567D01*
X46822Y-314245D01*
X45950Y-313109D01*
X44814Y-312237D01*
X43492Y-311690D01*
X43073Y-311634D01*
D02*
G37*
G36*
X41072Y-321924D02*
X36588D01*
Y-324861D01*
X36775Y-326280D01*
X37323Y-327603D01*
X38195Y-328738D01*
X39331Y-329610D01*
X40653Y-330158D01*
X41072Y-330213D01*
Y-321924D01*
D02*
G37*
G36*
X47556D02*
X43073D01*
Y-330213D01*
X43492Y-330158D01*
X44814Y-329610D01*
X45950Y-328738D01*
X46822Y-327603D01*
X47370Y-326280D01*
X47556Y-324861D01*
Y-321924D01*
D02*
G37*
G36*
X360109Y-333300D02*
X354688D01*
Y-339705D01*
X360109D01*
Y-333300D01*
D02*
G37*
G36*
X185127Y-331450D02*
X176127D01*
Y-344450D01*
X185127D01*
Y-331450D01*
D02*
G37*
G36*
X235277D02*
X226277D01*
Y-344450D01*
X235277D01*
Y-331450D01*
D02*
G37*
G36*
X341277Y-297071D02*
X327577D01*
X326992Y-297187D01*
X326496Y-297519D01*
X326164Y-298015D01*
X326048Y-298600D01*
Y-321766D01*
X323896Y-323919D01*
X323564Y-324415D01*
X323448Y-325000D01*
Y-346700D01*
X323564Y-347285D01*
X323896Y-347781D01*
X324392Y-348113D01*
X324977Y-348229D01*
X348144D01*
X348437Y-348171D01*
X348726Y-348114D01*
X348728Y-348113D01*
X348729Y-348113D01*
X348978Y-347947D01*
X349223Y-347784D01*
X349224Y-347782D01*
X349225Y-347781D01*
X349391Y-347533D01*
X349556Y-347288D01*
X349556Y-347287D01*
X349557Y-347285D01*
X349615Y-346994D01*
X349673Y-346703D01*
X349707Y-330403D01*
X349706Y-330401D01*
X349707Y-330400D01*
Y-298700D01*
X349590Y-298115D01*
X349259Y-297619D01*
X348762Y-297287D01*
X348177Y-297171D01*
X341780D01*
X341277Y-297071D01*
D02*
G37*
G36*
X134977Y-331450D02*
X125977D01*
Y-344450D01*
X134977D01*
Y-331450D01*
D02*
G37*
G36*
X315287Y-333400D02*
X309865D01*
Y-339806D01*
X315287D01*
Y-333400D01*
D02*
G37*
G36*
X322708D02*
X317287D01*
Y-339806D01*
X322708D01*
Y-333400D01*
D02*
G37*
G36*
X289477Y-331361D02*
X288302Y-331516D01*
X287208Y-331969D01*
X286268Y-332691D01*
X285546Y-333631D01*
X285093Y-334725D01*
X284938Y-335900D01*
Y-339900D01*
X285093Y-341075D01*
X285546Y-342169D01*
X286268Y-343109D01*
X287208Y-343831D01*
X288302Y-344284D01*
X289477Y-344439D01*
X290652Y-344284D01*
X291747Y-343831D01*
X292687Y-343109D01*
X293408Y-342169D01*
X293861Y-341075D01*
X294016Y-339900D01*
Y-335900D01*
X293861Y-334725D01*
X293408Y-333631D01*
X292687Y-332691D01*
X291747Y-331969D01*
X290652Y-331516D01*
X289477Y-331361D01*
D02*
G37*
G36*
X167414Y-304936D02*
X155753D01*
Y-315022D01*
X155753D01*
Y-324865D01*
X167414D01*
Y-323856D01*
X169335D01*
Y-324274D01*
X182178D01*
Y-319660D01*
X182640Y-319468D01*
X191624Y-328453D01*
X191624Y-328453D01*
X192460Y-329094D01*
X192460Y-329094D01*
X192460Y-329094D01*
D01*
X192460Y-329094D01*
X192460Y-329094D01*
X193433Y-329497D01*
X194477Y-329634D01*
X194477Y-329634D01*
X260406D01*
X271524Y-340753D01*
X271524Y-340753D01*
X272360Y-341394D01*
X272360Y-341394D01*
X272360Y-341394D01*
D01*
X272360Y-341394D01*
X272360Y-341394D01*
X273333Y-341797D01*
X274377Y-341934D01*
X274377Y-341934D01*
X274977D01*
Y-344400D01*
X283977D01*
Y-331400D01*
X274977D01*
Y-332141D01*
X274515Y-332332D01*
X264930Y-322747D01*
X264094Y-322106D01*
X263121Y-321703D01*
X262077Y-321566D01*
X262077Y-321566D01*
X196148D01*
X186630Y-312047D01*
X185794Y-311406D01*
X184821Y-311003D01*
X183777Y-310865D01*
X183777Y-310865D01*
X182178D01*
Y-305526D01*
X169335D01*
Y-305944D01*
X167414D01*
Y-304936D01*
D02*
G37*
G36*
X54277Y-305409D02*
X53115Y-305562D01*
X52032Y-306011D01*
X51101Y-306724D01*
X50388Y-307654D01*
X49939Y-308738D01*
X49786Y-309900D01*
X49939Y-311062D01*
X50388Y-312146D01*
X51101Y-313076D01*
X52032Y-313790D01*
X53115Y-314238D01*
X54277Y-314391D01*
X55440Y-314238D01*
X56523Y-313790D01*
X57453Y-313076D01*
X58167Y-312146D01*
X58615Y-311062D01*
X58768Y-309900D01*
X58615Y-308738D01*
X58167Y-307654D01*
X57453Y-306724D01*
X56523Y-306011D01*
X55440Y-305562D01*
X54277Y-305409D01*
D02*
G37*
G36*
X71118Y-287333D02*
X64780D01*
Y-292783D01*
X66023Y-292661D01*
X67233Y-292294D01*
X68348Y-291698D01*
X69326Y-290895D01*
X70129Y-289917D01*
X70725Y-288802D01*
X71092Y-287591D01*
X71118Y-287333D01*
D02*
G37*
G36*
X62780Y-279882D02*
X61537Y-280004D01*
X60326Y-280371D01*
X59211Y-280968D01*
X58233Y-281770D01*
X57430Y-282748D01*
X56834Y-283863D01*
X56467Y-285074D01*
X56441Y-285333D01*
X62780D01*
Y-279882D01*
D02*
G37*
G36*
X183800Y-242071D02*
X167000D01*
X166512Y-242168D01*
X166415Y-242187D01*
X165919Y-242519D01*
X164819Y-243619D01*
X164487Y-244115D01*
X164371Y-244700D01*
Y-266500D01*
X164487Y-267085D01*
X164819Y-267581D01*
X189750Y-292513D01*
X189433Y-292900D01*
X189433D01*
X188753Y-292445D01*
X187777Y-292251D01*
X186802Y-292445D01*
X186177Y-292863D01*
X141480D01*
X117647Y-269030D01*
X117018Y-268610D01*
X116277Y-268463D01*
X101401D01*
X100776Y-268045D01*
X99800Y-267851D01*
X98825Y-268045D01*
X97998Y-268598D01*
X97584Y-269217D01*
X97094Y-269119D01*
X97055Y-268924D01*
X96502Y-268098D01*
X95675Y-267545D01*
X94700Y-267351D01*
X93725Y-267545D01*
X92898Y-268098D01*
X92345Y-268924D01*
X92151Y-269900D01*
X92345Y-270876D01*
X92661Y-271348D01*
Y-301723D01*
X92816Y-302503D01*
X93258Y-303165D01*
X115490Y-325397D01*
X115490D01*
X115490Y-325397D01*
X115490Y-325397D01*
Y-325397D01*
X116152Y-325839D01*
X116932Y-325994D01*
X131428D01*
X131513Y-326201D01*
X132227Y-327131D01*
X133157Y-327845D01*
X134240Y-328293D01*
X135403Y-328446D01*
X139339D01*
X140502Y-328293D01*
X141585Y-327845D01*
X142515Y-327131D01*
X143229Y-326201D01*
X143678Y-325118D01*
X143831Y-323955D01*
X143678Y-322793D01*
X143229Y-321710D01*
X142515Y-320779D01*
X141585Y-320066D01*
X140502Y-319617D01*
X139339Y-319464D01*
X135403D01*
X134240Y-319617D01*
X133157Y-320066D01*
X132227Y-320779D01*
X131513Y-321710D01*
X131428Y-321916D01*
X117777D01*
X96739Y-300878D01*
Y-276792D01*
X97126Y-276474D01*
X97500Y-276549D01*
X98475Y-276355D01*
X99101Y-275937D01*
X115475D01*
X130776Y-291238D01*
X130922Y-291975D01*
X131475Y-292802D01*
X132302Y-293355D01*
X133277Y-293549D01*
X134253Y-293355D01*
X135080Y-292802D01*
X135205Y-292614D01*
X135703Y-292565D01*
X139307Y-296170D01*
X139936Y-296590D01*
X140677Y-296737D01*
X186177D01*
X186802Y-297155D01*
X187777Y-297349D01*
X188753Y-297155D01*
X189580Y-296602D01*
X190132Y-295776D01*
X190326Y-294800D01*
X190132Y-293825D01*
X189677Y-293144D01*
X190064Y-292827D01*
X205619Y-308381D01*
X206115Y-308713D01*
X206700Y-308829D01*
X251500D01*
X252003Y-308729D01*
X270000D01*
X270585Y-308613D01*
X271081Y-308281D01*
X271413Y-307785D01*
X271529Y-307200D01*
Y-285700D01*
X271413Y-285115D01*
X271081Y-284619D01*
X270585Y-284287D01*
X270000Y-284171D01*
X250600D01*
X250015Y-284287D01*
X249519Y-284619D01*
X249187Y-285115D01*
X249071Y-285700D01*
Y-295271D01*
X246000D01*
X245415Y-295387D01*
X244919Y-295719D01*
X242166Y-298471D01*
X240108D01*
X240059Y-297973D01*
X240653Y-297855D01*
X241480Y-297302D01*
X242032Y-296476D01*
X242226Y-295500D01*
X242032Y-294525D01*
X241480Y-293698D01*
X240653Y-293145D01*
X239677Y-292951D01*
X238702Y-293145D01*
X238229Y-293461D01*
X233145D01*
X203739Y-264055D01*
Y-257348D01*
X204055Y-256875D01*
X204249Y-255900D01*
X204055Y-254925D01*
X203502Y-254098D01*
X202676Y-253545D01*
X201700Y-253351D01*
X200725Y-253545D01*
X199898Y-254098D01*
X199345Y-254925D01*
X199151Y-255900D01*
X199345Y-256875D01*
X199661Y-257348D01*
Y-264900D01*
X199661Y-264900D01*
X199661D01*
X199816Y-265680D01*
X200258Y-266342D01*
X230858Y-296942D01*
X230858Y-296942D01*
X231520Y-297384D01*
X231520Y-297384D01*
X231520Y-297384D01*
D01*
X231520Y-297384D01*
X231520Y-297384D01*
X232300Y-297539D01*
X232300Y-297539D01*
X238229D01*
X238702Y-297855D01*
X239295Y-297973D01*
X239246Y-298471D01*
X214134D01*
X187329Y-271667D01*
Y-245600D01*
X187213Y-245015D01*
X186881Y-244519D01*
X184881Y-242519D01*
X184385Y-242187D01*
X183800Y-242071D01*
D02*
G37*
G36*
X62780Y-287333D02*
X56441D01*
X56467Y-287591D01*
X56834Y-288802D01*
X57430Y-289917D01*
X58233Y-290895D01*
X59211Y-291698D01*
X60326Y-292294D01*
X61537Y-292661D01*
X62780Y-292783D01*
Y-287333D01*
D02*
G37*
G36*
X71118Y-271742D02*
X64780D01*
Y-277193D01*
X66023Y-277070D01*
X67233Y-276703D01*
X68348Y-276107D01*
X69326Y-275305D01*
X70129Y-274327D01*
X70725Y-273211D01*
X71092Y-272001D01*
X71118Y-271742D01*
D02*
G37*
G36*
X332477Y-208451D02*
X331502Y-208645D01*
X330675Y-209198D01*
X330122Y-210024D01*
X329928Y-211000D01*
Y-268000D01*
X329928Y-268000D01*
X329928D01*
X330122Y-268975D01*
X330675Y-269802D01*
X331502Y-270355D01*
X332477Y-270549D01*
X333453Y-270355D01*
X334280Y-269802D01*
X334832Y-268975D01*
X335026Y-268000D01*
Y-211000D01*
X334832Y-210024D01*
X334280Y-209198D01*
X333453Y-208645D01*
X332477Y-208451D01*
D02*
G37*
G36*
X64780Y-279882D02*
Y-285333D01*
X71118D01*
X71092Y-285074D01*
X70725Y-283863D01*
X70129Y-282748D01*
X69326Y-281770D01*
X68348Y-280968D01*
X67233Y-280371D01*
X66023Y-280004D01*
X64780Y-279882D01*
D02*
G37*
G36*
X62780Y-271742D02*
X56441D01*
X56467Y-272001D01*
X56834Y-273211D01*
X57430Y-274327D01*
X58233Y-275305D01*
X59211Y-276107D01*
X60326Y-276703D01*
X61537Y-277070D01*
X62780Y-277193D01*
Y-271742D01*
D02*
G37*
G36*
X139339Y-301354D02*
X138371D01*
Y-304845D01*
X143699D01*
X143678Y-304682D01*
X143229Y-303599D01*
X142515Y-302669D01*
X141585Y-301955D01*
X140502Y-301507D01*
X139339Y-301354D01*
D02*
G37*
G36*
X136371Y-306845D02*
X131043D01*
X131064Y-307007D01*
X131513Y-308090D01*
X132227Y-309020D01*
X133157Y-309734D01*
X134240Y-310183D01*
X135403Y-310336D01*
X136371D01*
Y-306845D01*
D02*
G37*
G36*
X143699D02*
X138371D01*
Y-310336D01*
X139339D01*
X140502Y-310183D01*
X141585Y-309734D01*
X142515Y-309020D01*
X143229Y-308090D01*
X143678Y-307007D01*
X143699Y-306845D01*
D02*
G37*
G36*
X80836Y-310900D02*
X77477D01*
X77498Y-311062D01*
X77947Y-312146D01*
X78661Y-313076D01*
X79591Y-313790D01*
X80674Y-314238D01*
X80836Y-314260D01*
Y-310900D01*
D02*
G37*
G36*
X86196D02*
X82836D01*
Y-314260D01*
X82999Y-314238D01*
X84082Y-313790D01*
X85012Y-313076D01*
X85726Y-312146D01*
X86174Y-311062D01*
X86196Y-310900D01*
D02*
G37*
G36*
X71994Y-305409D02*
X70831Y-305562D01*
X69748Y-306011D01*
X68818Y-306724D01*
X68307Y-307391D01*
X67807D01*
X67295Y-306724D01*
X66365Y-306011D01*
X65282Y-305562D01*
X64120Y-305409D01*
X62957Y-305562D01*
X61874Y-306011D01*
X60944Y-306724D01*
X60230Y-307654D01*
X59782Y-308738D01*
X59628Y-309900D01*
X59782Y-311062D01*
X60230Y-312146D01*
X60944Y-313076D01*
X61874Y-313790D01*
X62957Y-314238D01*
X64120Y-314391D01*
X65282Y-314238D01*
X66365Y-313790D01*
X67295Y-313076D01*
X67807Y-312409D01*
X68307D01*
X68818Y-313076D01*
X69748Y-313790D01*
X70831Y-314238D01*
X71994Y-314391D01*
X73156Y-314238D01*
X74239Y-313790D01*
X75169Y-313076D01*
X75883Y-312146D01*
X76332Y-311062D01*
X76485Y-309900D01*
X76332Y-308738D01*
X75883Y-307654D01*
X75169Y-306724D01*
X74239Y-306011D01*
X73156Y-305562D01*
X71994Y-305409D01*
D02*
G37*
G36*
X136371Y-301354D02*
X135403D01*
X134240Y-301507D01*
X133157Y-301955D01*
X132227Y-302669D01*
X131513Y-303599D01*
X131064Y-304682D01*
X131043Y-304845D01*
X136371D01*
Y-301354D01*
D02*
G37*
G36*
X80836Y-305540D02*
X80674Y-305562D01*
X79591Y-306011D01*
X78661Y-306724D01*
X77947Y-307654D01*
X77498Y-308738D01*
X77477Y-308900D01*
X80836D01*
Y-305540D01*
D02*
G37*
G36*
X82836D02*
Y-308900D01*
X86196D01*
X86174Y-308738D01*
X85726Y-307654D01*
X85012Y-306724D01*
X84082Y-306011D01*
X82999Y-305562D01*
X82836Y-305540D01*
D02*
G37*
G36*
X28377Y-87407D02*
X27266Y-87554D01*
X26231Y-87982D01*
X25342Y-88665D01*
X24660Y-89554D01*
X24231Y-90589D01*
X24085Y-91700D01*
X24231Y-92811D01*
X24660Y-93846D01*
X25342Y-94735D01*
X26231Y-95417D01*
X27266Y-95846D01*
X28377Y-95993D01*
X29488Y-95846D01*
X30523Y-95417D01*
X31413Y-94735D01*
X32095Y-93846D01*
X32524Y-92811D01*
X32670Y-91700D01*
X32524Y-90589D01*
X32095Y-89554D01*
X31413Y-88665D01*
X30523Y-87982D01*
X29488Y-87554D01*
X28377Y-87407D01*
D02*
G37*
G36*
X171177Y-16000D02*
X167686D01*
Y-16969D01*
X167839Y-18131D01*
X168288Y-19214D01*
X169001Y-20144D01*
X169932Y-20858D01*
X171015Y-21307D01*
X171177Y-21328D01*
Y-16000D01*
D02*
G37*
G36*
X176668D02*
X173177D01*
Y-21328D01*
X173340Y-21307D01*
X174423Y-20858D01*
X175353Y-20144D01*
X176067Y-19214D01*
X176515Y-18131D01*
X176668Y-16969D01*
Y-16000D01*
D02*
G37*
G36*
X101877D02*
X98386D01*
Y-16969D01*
X98539Y-18131D01*
X98988Y-19214D01*
X99701Y-20144D01*
X100632Y-20858D01*
X101715Y-21307D01*
X101877Y-21328D01*
Y-16000D01*
D02*
G37*
G36*
X107368D02*
X103877D01*
Y-21328D01*
X104040Y-21307D01*
X105123Y-20858D01*
X106053Y-20144D01*
X106767Y-19214D01*
X107215Y-18131D01*
X107368Y-16969D01*
Y-16000D01*
D02*
G37*
G36*
X211177D02*
X207686D01*
Y-16969D01*
X207839Y-18131D01*
X208288Y-19214D01*
X209001Y-20144D01*
X209932Y-20858D01*
X211015Y-21307D01*
X211177Y-21328D01*
Y-16000D01*
D02*
G37*
G36*
X216668D02*
X213177D01*
Y-21328D01*
X213340Y-21307D01*
X214423Y-20858D01*
X215353Y-20144D01*
X216067Y-19214D01*
X216515Y-18131D01*
X216668Y-16969D01*
Y-16000D01*
D02*
G37*
G36*
X191177D02*
X187686D01*
Y-16969D01*
X187839Y-18131D01*
X188288Y-19214D01*
X189002Y-20144D01*
X189932Y-20858D01*
X191015Y-21307D01*
X191177Y-21328D01*
Y-16000D01*
D02*
G37*
G36*
X196668D02*
X193177D01*
Y-21328D01*
X193340Y-21307D01*
X194423Y-20858D01*
X195353Y-20144D01*
X196067Y-19214D01*
X196515Y-18131D01*
X196668Y-16969D01*
Y-16000D01*
D02*
G37*
G36*
X47668D02*
X44177D01*
Y-21328D01*
X44340Y-21307D01*
X45423Y-20858D01*
X46353Y-20144D01*
X47067Y-19214D01*
X47515Y-18131D01*
X47668Y-16969D01*
Y-16000D01*
D02*
G37*
G36*
X156630D02*
X153177D01*
Y-21421D01*
X156630D01*
Y-16000D01*
D02*
G37*
G36*
X269977D02*
X266524D01*
Y-21421D01*
X269977D01*
Y-16000D01*
D02*
G37*
G36*
X97330Y-8579D02*
X88424D01*
Y-21421D01*
X97330D01*
Y-8579D01*
D02*
G37*
G36*
X151177Y-16000D02*
X147724D01*
Y-21421D01*
X151177D01*
Y-16000D01*
D02*
G37*
G36*
X334830D02*
X331377D01*
Y-21421D01*
X334830D01*
Y-16000D01*
D02*
G37*
G36*
X42177D02*
X38686D01*
Y-16969D01*
X38839Y-18131D01*
X39288Y-19214D01*
X40001Y-20144D01*
X40932Y-20858D01*
X42015Y-21307D01*
X42177Y-21328D01*
Y-16000D01*
D02*
G37*
G36*
X275430D02*
X271977D01*
Y-21421D01*
X275430D01*
Y-16000D01*
D02*
G37*
G36*
X329377D02*
X325924D01*
Y-21421D01*
X329377D01*
Y-16000D01*
D02*
G37*
G36*
X231177D02*
X227686D01*
Y-16969D01*
X227839Y-18131D01*
X228288Y-19214D01*
X229001Y-20144D01*
X229932Y-20858D01*
X231015Y-21307D01*
X231177Y-21328D01*
Y-16000D01*
D02*
G37*
G36*
Y-8672D02*
X231015Y-8693D01*
X229932Y-9142D01*
X229001Y-9856D01*
X228288Y-10786D01*
X227839Y-11869D01*
X227686Y-13032D01*
Y-14000D01*
X231177D01*
Y-8672D01*
D02*
G37*
G36*
X233177D02*
Y-14000D01*
X236668D01*
Y-13032D01*
X236515Y-11869D01*
X236067Y-10786D01*
X235353Y-9856D01*
X234423Y-9142D01*
X233340Y-8693D01*
X233177Y-8672D01*
D02*
G37*
G36*
X211177D02*
X211015Y-8693D01*
X209932Y-9142D01*
X209001Y-9856D01*
X208288Y-10786D01*
X207839Y-11869D01*
X207686Y-13032D01*
Y-14000D01*
X211177D01*
Y-8672D01*
D02*
G37*
G36*
X213177D02*
Y-14000D01*
X216668D01*
Y-13032D01*
X216515Y-11869D01*
X216067Y-10786D01*
X215353Y-9856D01*
X214423Y-9142D01*
X213340Y-8693D01*
X213177Y-8672D01*
D02*
G37*
G36*
X329377Y-8579D02*
X325924D01*
Y-14000D01*
X329377D01*
Y-8579D01*
D02*
G37*
G36*
X334830D02*
X331377D01*
Y-14000D01*
X334830D01*
Y-8579D01*
D02*
G37*
G36*
X269977D02*
X266524D01*
Y-14000D01*
X269977D01*
Y-8579D01*
D02*
G37*
G36*
X275430D02*
X271977D01*
Y-14000D01*
X275430D01*
Y-8579D01*
D02*
G37*
G36*
X193177Y-8672D02*
Y-14000D01*
X196668D01*
Y-13032D01*
X196515Y-11869D01*
X196067Y-10786D01*
X195353Y-9856D01*
X194423Y-9142D01*
X193340Y-8693D01*
X193177Y-8672D01*
D02*
G37*
G36*
X44177D02*
Y-14000D01*
X47668D01*
Y-13032D01*
X47515Y-11869D01*
X47067Y-10786D01*
X46353Y-9856D01*
X45423Y-9142D01*
X44340Y-8693D01*
X44177Y-8672D01*
D02*
G37*
G36*
X101877D02*
X101715Y-8693D01*
X100632Y-9142D01*
X99701Y-9856D01*
X98988Y-10786D01*
X98539Y-11869D01*
X98386Y-13032D01*
Y-14000D01*
X101877D01*
Y-8672D01*
D02*
G37*
G36*
X236668Y-16000D02*
X233177D01*
Y-21328D01*
X233340Y-21307D01*
X234423Y-20858D01*
X235353Y-20144D01*
X236067Y-19214D01*
X236515Y-18131D01*
X236668Y-16969D01*
Y-16000D01*
D02*
G37*
G36*
X42177Y-8672D02*
X42015Y-8693D01*
X40932Y-9142D01*
X40001Y-9856D01*
X39288Y-10786D01*
X38839Y-11869D01*
X38686Y-13032D01*
Y-14000D01*
X42177D01*
Y-8672D01*
D02*
G37*
G36*
X173177D02*
Y-14000D01*
X176668D01*
Y-13032D01*
X176515Y-11869D01*
X176067Y-10786D01*
X175353Y-9856D01*
X174423Y-9142D01*
X173340Y-8693D01*
X173177Y-8672D01*
D02*
G37*
G36*
X191177D02*
X191015Y-8693D01*
X189932Y-9142D01*
X189002Y-9856D01*
X188288Y-10786D01*
X187839Y-11869D01*
X187686Y-13032D01*
Y-14000D01*
X191177D01*
Y-8672D01*
D02*
G37*
G36*
X103877D02*
Y-14000D01*
X107368D01*
Y-13032D01*
X107215Y-11869D01*
X106767Y-10786D01*
X106053Y-9856D01*
X105123Y-9142D01*
X104040Y-8693D01*
X103877Y-8672D01*
D02*
G37*
G36*
X171177D02*
X171015Y-8693D01*
X169932Y-9142D01*
X169001Y-9856D01*
X168288Y-10786D01*
X167839Y-11869D01*
X167686Y-13032D01*
Y-14000D01*
X171177D01*
Y-8672D01*
D02*
G37*
G36*
X382553Y-65800D02*
X379100D01*
Y-69253D01*
X382553D01*
Y-65800D01*
D02*
G37*
G36*
X377100Y-60347D02*
X373647D01*
Y-63800D01*
X377100D01*
Y-60347D01*
D02*
G37*
G36*
X368100Y-60309D02*
X366938Y-60462D01*
X365854Y-60910D01*
X364924Y-61624D01*
X364211Y-62554D01*
X363762Y-63638D01*
X363609Y-64800D01*
X363762Y-65962D01*
X364211Y-67046D01*
X364924Y-67976D01*
X365854Y-68690D01*
X366938Y-69138D01*
X368100Y-69291D01*
X369262Y-69138D01*
X370346Y-68690D01*
X371276Y-67976D01*
X371989Y-67046D01*
X372438Y-65962D01*
X372591Y-64800D01*
X372438Y-63638D01*
X371989Y-62554D01*
X371276Y-61624D01*
X370346Y-60910D01*
X369262Y-60462D01*
X368100Y-60309D01*
D02*
G37*
G36*
X377100Y-65800D02*
X373647D01*
Y-69253D01*
X377100D01*
Y-65800D01*
D02*
G37*
G36*
X382553Y-60347D02*
X379100D01*
Y-63800D01*
X382553D01*
Y-60347D01*
D02*
G37*
G36*
X8100Y-54940D02*
X7938Y-54962D01*
X6854Y-55410D01*
X5924Y-56124D01*
X5210Y-57054D01*
X4762Y-58138D01*
X4741Y-58300D01*
X8100D01*
Y-54940D01*
D02*
G37*
G36*
X10100D02*
Y-58300D01*
X13460D01*
X13438Y-58138D01*
X12990Y-57054D01*
X12276Y-56124D01*
X11346Y-55410D01*
X10262Y-54962D01*
X10100Y-54940D01*
D02*
G37*
G36*
X8100Y-60300D02*
X4741D01*
X4762Y-60462D01*
X5210Y-61546D01*
X5924Y-62476D01*
X6854Y-63190D01*
X7938Y-63638D01*
X8100Y-63660D01*
Y-60300D01*
D02*
G37*
G36*
X13460D02*
X10100D01*
Y-63660D01*
X10262Y-63638D01*
X11346Y-63190D01*
X12276Y-62476D01*
X12990Y-61546D01*
X13438Y-60462D01*
X13460Y-60300D01*
D02*
G37*
G36*
X366100Y-84684D02*
X364938Y-84837D01*
X363854Y-85286D01*
X362924Y-86000D01*
X362210Y-86930D01*
X361762Y-88013D01*
X361609Y-89176D01*
X361762Y-90338D01*
X362210Y-91421D01*
X362924Y-92351D01*
X363854Y-93065D01*
X364938Y-93514D01*
X366100Y-93667D01*
X367262Y-93514D01*
X368346Y-93065D01*
X369276Y-92351D01*
X369989Y-91421D01*
X370438Y-90338D01*
X370591Y-89176D01*
X370438Y-88013D01*
X369989Y-86930D01*
X369276Y-86000D01*
X368346Y-85286D01*
X367262Y-84837D01*
X366100Y-84684D01*
D02*
G37*
G36*
X376100D02*
X374938Y-84837D01*
X373854Y-85286D01*
X372924Y-86000D01*
X372211Y-86930D01*
X371762Y-88013D01*
X371609Y-89176D01*
X371762Y-90338D01*
X372211Y-91421D01*
X372924Y-92351D01*
X373854Y-93065D01*
X374938Y-93514D01*
X376100Y-93667D01*
X377262Y-93514D01*
X378346Y-93065D01*
X379276Y-92351D01*
X379990Y-91421D01*
X380438Y-90338D01*
X380591Y-89176D01*
X380438Y-88013D01*
X379990Y-86930D01*
X379276Y-86000D01*
X378346Y-85286D01*
X377262Y-84837D01*
X376100Y-84684D01*
D02*
G37*
G36*
X10838Y-92100D02*
X7677D01*
Y-95261D01*
X7788Y-95246D01*
X8823Y-94818D01*
X9713Y-94135D01*
X10395Y-93246D01*
X10824Y-92211D01*
X10838Y-92100D01*
D02*
G37*
G36*
X356100Y-84684D02*
X354938Y-84837D01*
X353854Y-85286D01*
X352924Y-86000D01*
X352210Y-86930D01*
X351762Y-88013D01*
X351609Y-89176D01*
X351762Y-90338D01*
X352210Y-91421D01*
X352924Y-92351D01*
X353854Y-93065D01*
X354938Y-93514D01*
X356100Y-93667D01*
X357262Y-93514D01*
X358346Y-93065D01*
X359276Y-92351D01*
X359990Y-91421D01*
X360438Y-90338D01*
X360591Y-89176D01*
X360438Y-88013D01*
X359990Y-86930D01*
X359276Y-86000D01*
X358346Y-85286D01*
X357262Y-84837D01*
X356100Y-84684D01*
D02*
G37*
G36*
X7677Y-86939D02*
Y-90100D01*
X10838D01*
X10824Y-89989D01*
X10395Y-88954D01*
X9713Y-88065D01*
X8823Y-87383D01*
X7788Y-86954D01*
X7677Y-86939D01*
D02*
G37*
G36*
X328100Y-60309D02*
X326938Y-60462D01*
X325854Y-60910D01*
X324924Y-61624D01*
X324211Y-62554D01*
X323762Y-63638D01*
X323609Y-64800D01*
X323762Y-65962D01*
X324211Y-67046D01*
X324924Y-67976D01*
X325854Y-68690D01*
X326938Y-69138D01*
X328100Y-69291D01*
X329262Y-69138D01*
X330346Y-68690D01*
X331276Y-67976D01*
X331990Y-67046D01*
X332438Y-65962D01*
X332591Y-64800D01*
X332438Y-63638D01*
X331990Y-62554D01*
X331276Y-61624D01*
X330346Y-60910D01*
X329262Y-60462D01*
X328100Y-60309D01*
D02*
G37*
G36*
X338100D02*
X336938Y-60462D01*
X335854Y-60910D01*
X334924Y-61624D01*
X334210Y-62554D01*
X333762Y-63638D01*
X333609Y-64800D01*
X333762Y-65962D01*
X334210Y-67046D01*
X334924Y-67976D01*
X335854Y-68690D01*
X336938Y-69138D01*
X338100Y-69291D01*
X339262Y-69138D01*
X340346Y-68690D01*
X341276Y-67976D01*
X341989Y-67046D01*
X342438Y-65962D01*
X342591Y-64800D01*
X342438Y-63638D01*
X341989Y-62554D01*
X341276Y-61624D01*
X340346Y-60910D01*
X339262Y-60462D01*
X338100Y-60309D01*
D02*
G37*
G36*
X13553Y-74847D02*
X4647D01*
Y-83753D01*
X13553D01*
Y-74847D01*
D02*
G37*
G36*
X318100Y-60309D02*
X316938Y-60462D01*
X315854Y-60910D01*
X314924Y-61624D01*
X314211Y-62554D01*
X313762Y-63638D01*
X313609Y-64800D01*
X313762Y-65962D01*
X314211Y-67046D01*
X314924Y-67976D01*
X315854Y-68690D01*
X316938Y-69138D01*
X318100Y-69291D01*
X319262Y-69138D01*
X320346Y-68690D01*
X321276Y-67976D01*
X321989Y-67046D01*
X322438Y-65962D01*
X322591Y-64800D01*
X322438Y-63638D01*
X321989Y-62554D01*
X321276Y-61624D01*
X320346Y-60910D01*
X319262Y-60462D01*
X318100Y-60309D01*
D02*
G37*
G36*
X112877Y-8540D02*
X111715Y-8693D01*
X110632Y-9142D01*
X109702Y-9856D01*
X108988Y-10786D01*
X108539Y-11869D01*
X108386Y-13032D01*
Y-16969D01*
X108539Y-18131D01*
X108988Y-19214D01*
X109702Y-20144D01*
X110632Y-20858D01*
X111715Y-21307D01*
X112877Y-21460D01*
X114040Y-21307D01*
X115123Y-20858D01*
X116053Y-20144D01*
X116767Y-19214D01*
X117215Y-18131D01*
X117368Y-16969D01*
Y-13032D01*
X117215Y-11869D01*
X116767Y-10786D01*
X116053Y-9856D01*
X115123Y-9142D01*
X114040Y-8693D01*
X112877Y-8540D01*
D02*
G37*
G36*
X280977D02*
X279815Y-8693D01*
X278732Y-9142D01*
X277801Y-9856D01*
X277088Y-10786D01*
X276639Y-11869D01*
X276486Y-13032D01*
Y-16969D01*
X276639Y-18131D01*
X277088Y-19214D01*
X277801Y-20144D01*
X278732Y-20858D01*
X279815Y-21307D01*
X280977Y-21460D01*
X282140Y-21307D01*
X283223Y-20858D01*
X284153Y-20144D01*
X284867Y-19214D01*
X285315Y-18131D01*
X285468Y-16969D01*
Y-13032D01*
X285315Y-11869D01*
X284867Y-10786D01*
X284153Y-9856D01*
X283223Y-9142D01*
X282140Y-8693D01*
X280977Y-8540D01*
D02*
G37*
G36*
X53177D02*
X52015Y-8693D01*
X50932Y-9142D01*
X50002Y-9856D01*
X49288Y-10786D01*
X48839Y-11869D01*
X48686Y-13032D01*
Y-16969D01*
X48839Y-18131D01*
X49288Y-19214D01*
X50002Y-20144D01*
X50932Y-20858D01*
X52015Y-21307D01*
X53177Y-21460D01*
X54340Y-21307D01*
X55423Y-20858D01*
X56353Y-20144D01*
X57067Y-19214D01*
X57515Y-18131D01*
X57668Y-16969D01*
Y-13032D01*
X57515Y-11869D01*
X57067Y-10786D01*
X56353Y-9856D01*
X55423Y-9142D01*
X54340Y-8693D01*
X53177Y-8540D01*
D02*
G37*
G36*
X63177D02*
X62015Y-8693D01*
X60932Y-9142D01*
X60001Y-9856D01*
X59288Y-10786D01*
X58839Y-11869D01*
X58686Y-13032D01*
Y-16969D01*
X58839Y-18131D01*
X59288Y-19214D01*
X60001Y-20144D01*
X60932Y-20858D01*
X62015Y-21307D01*
X63177Y-21460D01*
X64340Y-21307D01*
X65423Y-20858D01*
X66353Y-20144D01*
X67067Y-19214D01*
X67515Y-18131D01*
X67668Y-16969D01*
Y-13032D01*
X67515Y-11869D01*
X67067Y-10786D01*
X66353Y-9856D01*
X65423Y-9142D01*
X64340Y-8693D01*
X63177Y-8540D01*
D02*
G37*
G36*
X290977D02*
X289815Y-8693D01*
X288732Y-9142D01*
X287802Y-9856D01*
X287088Y-10786D01*
X286639Y-11869D01*
X286486Y-13032D01*
Y-16969D01*
X286639Y-18131D01*
X287088Y-19214D01*
X287802Y-20144D01*
X288732Y-20858D01*
X289815Y-21307D01*
X290977Y-21460D01*
X292140Y-21307D01*
X293223Y-20858D01*
X294153Y-20144D01*
X294867Y-19214D01*
X295315Y-18131D01*
X295468Y-16969D01*
Y-13032D01*
X295315Y-11869D01*
X294867Y-10786D01*
X294153Y-9856D01*
X293223Y-9142D01*
X292140Y-8693D01*
X290977Y-8540D01*
D02*
G37*
G36*
X360377D02*
X359215Y-8693D01*
X358132Y-9142D01*
X357202Y-9856D01*
X356488Y-10786D01*
X356039Y-11869D01*
X355886Y-13032D01*
Y-16969D01*
X356039Y-18131D01*
X356488Y-19214D01*
X357202Y-20144D01*
X358132Y-20858D01*
X359215Y-21307D01*
X360377Y-21460D01*
X361540Y-21307D01*
X362623Y-20858D01*
X363553Y-20144D01*
X364267Y-19214D01*
X364715Y-18131D01*
X364868Y-16969D01*
Y-13032D01*
X364715Y-11869D01*
X364267Y-10786D01*
X363553Y-9856D01*
X362623Y-9142D01*
X361540Y-8693D01*
X360377Y-8540D01*
D02*
G37*
G36*
X37630Y-8579D02*
X28725D01*
Y-21421D01*
X37630D01*
Y-8579D01*
D02*
G37*
G36*
X340377Y-8540D02*
X339215Y-8693D01*
X338132Y-9142D01*
X337201Y-9856D01*
X336488Y-10786D01*
X336039Y-11869D01*
X335886Y-13032D01*
Y-16969D01*
X336039Y-18131D01*
X336488Y-19214D01*
X337201Y-20144D01*
X338132Y-20858D01*
X339215Y-21307D01*
X340377Y-21460D01*
X341540Y-21307D01*
X342623Y-20858D01*
X343553Y-20144D01*
X344267Y-19214D01*
X344715Y-18131D01*
X344868Y-16969D01*
Y-13032D01*
X344715Y-11869D01*
X344267Y-10786D01*
X343553Y-9856D01*
X342623Y-9142D01*
X341540Y-8693D01*
X340377Y-8540D01*
D02*
G37*
G36*
X350377D02*
X349215Y-8693D01*
X348132Y-9142D01*
X347201Y-9856D01*
X346488Y-10786D01*
X346039Y-11869D01*
X345886Y-13032D01*
Y-16969D01*
X346039Y-18131D01*
X346488Y-19214D01*
X347201Y-20144D01*
X348132Y-20858D01*
X349215Y-21307D01*
X350377Y-21460D01*
X351540Y-21307D01*
X352623Y-20858D01*
X353553Y-20144D01*
X354267Y-19214D01*
X354715Y-18131D01*
X354868Y-16969D01*
Y-13032D01*
X354715Y-11869D01*
X354267Y-10786D01*
X353553Y-9856D01*
X352623Y-9142D01*
X351540Y-8693D01*
X350377Y-8540D01*
D02*
G37*
G36*
X40900Y-51841D02*
Y-55200D01*
X44260D01*
X44238Y-55038D01*
X43789Y-53954D01*
X43076Y-53024D01*
X42146Y-52311D01*
X41062Y-51862D01*
X40900Y-51841D01*
D02*
G37*
G36*
X182102Y-54468D02*
X181188Y-54588D01*
X180337Y-54941D01*
X180293Y-54974D01*
X174306D01*
X174265Y-54943D01*
X173414Y-54590D01*
X172500Y-54470D01*
X171586Y-54590D01*
X170735Y-54943D01*
X170694Y-54974D01*
X120906D01*
X120865Y-54943D01*
X120014Y-54590D01*
X119100Y-54470D01*
X118186Y-54590D01*
X117335Y-54943D01*
X116604Y-55504D01*
X116043Y-56235D01*
X115690Y-57086D01*
X115570Y-58000D01*
X115690Y-58914D01*
X116043Y-59765D01*
X116604Y-60496D01*
X117335Y-61057D01*
X118186Y-61410D01*
X119100Y-61530D01*
X120014Y-61410D01*
X120865Y-61057D01*
X120906Y-61026D01*
X170694D01*
X170735Y-61057D01*
X171586Y-61410D01*
X172500Y-61530D01*
X173414Y-61410D01*
X174265Y-61057D01*
X174306Y-61026D01*
X180299D01*
X180337Y-61055D01*
X181188Y-61408D01*
X182102Y-61528D01*
X183016Y-61408D01*
X183867Y-61055D01*
X183905Y-61026D01*
X216847D01*
X221460Y-65640D01*
X221460Y-65640D01*
X221815Y-65912D01*
X222087Y-66120D01*
X222817Y-66423D01*
X222817Y-66423D01*
X222817Y-66423D01*
D01*
X222817Y-66423D01*
X222817Y-66423D01*
X223600Y-66526D01*
X225794D01*
X225835Y-66557D01*
X226596Y-66872D01*
X226498Y-67363D01*
X74902D01*
X67770Y-60230D01*
X67141Y-59810D01*
X66400Y-59663D01*
X43421D01*
X43200Y-59214D01*
X43789Y-58446D01*
X44238Y-57362D01*
X44260Y-57200D01*
X35541D01*
X35562Y-57362D01*
X36011Y-58446D01*
X36600Y-59214D01*
X36379Y-59663D01*
X24500D01*
X23759Y-59810D01*
X23130Y-60230D01*
X15998Y-67363D01*
X13117D01*
X12990Y-67054D01*
X12276Y-66124D01*
X11346Y-65411D01*
X10262Y-64962D01*
X9100Y-64809D01*
X7938Y-64962D01*
X6854Y-65411D01*
X5924Y-66124D01*
X5210Y-67054D01*
X4762Y-68138D01*
X4609Y-69300D01*
X4762Y-70462D01*
X5210Y-71546D01*
X5924Y-72476D01*
X6854Y-73190D01*
X7938Y-73638D01*
X9100Y-73791D01*
X10262Y-73638D01*
X11346Y-73190D01*
X12276Y-72476D01*
X12990Y-71546D01*
X13117Y-71237D01*
X16800D01*
X17541Y-71090D01*
X18170Y-70670D01*
X18170Y-70670D01*
X18170Y-70670D01*
X25302Y-63537D01*
X35805D01*
X36011Y-63954D01*
X35562Y-65038D01*
X35409Y-66200D01*
X35562Y-67362D01*
X36011Y-68446D01*
X36063Y-68514D01*
X35842Y-68963D01*
X27101D01*
X26476Y-68545D01*
X25500Y-68351D01*
X24524Y-68545D01*
X23698Y-69098D01*
X23145Y-69924D01*
X22951Y-70900D01*
X23145Y-71876D01*
X23698Y-72702D01*
X24524Y-73255D01*
X25500Y-73449D01*
X26476Y-73255D01*
X27101Y-72837D01*
X35447D01*
Y-80653D01*
X44353D01*
Y-78137D01*
X70499D01*
X71125Y-78555D01*
X72100Y-78749D01*
X73075Y-78555D01*
X73902Y-78002D01*
X74455Y-77175D01*
X74649Y-76200D01*
X74554Y-75724D01*
X74871Y-75337D01*
X145099D01*
X145724Y-75755D01*
X146700Y-75949D01*
X147676Y-75755D01*
X148502Y-75202D01*
X149055Y-74375D01*
X149249Y-73400D01*
X149055Y-72425D01*
X148502Y-71598D01*
X148612Y-71237D01*
X227600D01*
X228341Y-71090D01*
X228970Y-70670D01*
X230079Y-69561D01*
X230541Y-69752D01*
Y-74843D01*
X233135D01*
X233230Y-74985D01*
X235083Y-76838D01*
X235230Y-77575D01*
X235783Y-78402D01*
X236610Y-78955D01*
X237585Y-79149D01*
X238561Y-78955D01*
X239387Y-78402D01*
X239940Y-77575D01*
X240127Y-76635D01*
X240529Y-76555D01*
X241356Y-76002D01*
X241449Y-75862D01*
X241815Y-75790D01*
X242354Y-75430D01*
X242769Y-75708D01*
X242751Y-75800D01*
X242945Y-76775D01*
X243295Y-77300D01*
X243145Y-77525D01*
X242951Y-78500D01*
X243145Y-79475D01*
X243698Y-80302D01*
X244525Y-80855D01*
X245500Y-81049D01*
X246476Y-80855D01*
X247101Y-80437D01*
X339700D01*
X340132Y-80351D01*
X340368Y-80792D01*
X333922Y-87238D01*
X293096D01*
X292779Y-86852D01*
X292849Y-86500D01*
X292655Y-85524D01*
X292102Y-84698D01*
X291276Y-84145D01*
X290300Y-83951D01*
X289324Y-84145D01*
X288699Y-84563D01*
X287959Y-84710D01*
X287330Y-85130D01*
X287098Y-85363D01*
X242432D01*
X242309Y-85338D01*
X61364D01*
X60776Y-84945D01*
X59800Y-84751D01*
X58824Y-84945D01*
X57998Y-85498D01*
X57445Y-86325D01*
X57251Y-87300D01*
X57445Y-88275D01*
X57998Y-89102D01*
X58824Y-89655D01*
X59800Y-89849D01*
X60776Y-89655D01*
X61437Y-89213D01*
X229154D01*
X229345Y-90173D01*
X229898Y-91000D01*
X230725Y-91553D01*
X231462Y-91699D01*
X232208Y-92445D01*
X232837Y-92865D01*
X233578Y-93013D01*
X270274D01*
X270591Y-93399D01*
X270551Y-93600D01*
X270745Y-94576D01*
X271298Y-95402D01*
X272125Y-95955D01*
X272603Y-96050D01*
X272838Y-96491D01*
X272726Y-96763D01*
X227001D01*
X226376Y-96345D01*
X225400Y-96151D01*
X224425Y-96345D01*
X223598Y-96898D01*
X223045Y-97724D01*
X222851Y-98700D01*
X223045Y-99676D01*
X223598Y-100502D01*
X224425Y-101055D01*
X225400Y-101249D01*
X226376Y-101055D01*
X227001Y-100637D01*
X279709D01*
X280026Y-101024D01*
X279951Y-101400D01*
X279986Y-101576D01*
X279669Y-101963D01*
X278901D01*
X278275Y-101545D01*
X277300Y-101351D01*
X276325Y-101545D01*
X275498Y-102098D01*
X274945Y-102925D01*
X274751Y-103900D01*
X274791Y-104101D01*
X274375Y-104378D01*
X274176Y-104245D01*
X273200Y-104051D01*
X272224Y-104245D01*
X271398Y-104798D01*
X270845Y-105624D01*
X270651Y-106600D01*
X270845Y-107576D01*
X271398Y-108402D01*
X272224Y-108955D01*
X273200Y-109149D01*
X274176Y-108955D01*
X274801Y-108537D01*
X281151D01*
X281342Y-108999D01*
X274453Y-115889D01*
X273715Y-116036D01*
X272888Y-116588D01*
X272336Y-117415D01*
X272142Y-118391D01*
X272336Y-119366D01*
X272888Y-120193D01*
X273715Y-120746D01*
X274691Y-120940D01*
X275666Y-120746D01*
X276493Y-120193D01*
X276545Y-120115D01*
X277045D01*
X277098Y-120193D01*
X277924Y-120746D01*
X278900Y-120940D01*
X279875Y-120746D01*
X280702Y-120193D01*
X281255Y-119366D01*
X281402Y-118629D01*
X282798Y-117233D01*
X316499D01*
X317125Y-117650D01*
X318100Y-117844D01*
X319075Y-117650D01*
X319902Y-117098D01*
X320455Y-116271D01*
X320649Y-115295D01*
X320455Y-114320D01*
X319902Y-113493D01*
X319075Y-112940D01*
X318100Y-112746D01*
X317125Y-112940D01*
X316499Y-113358D01*
X283116D01*
X282925Y-112896D01*
X284184Y-111637D01*
X326499D01*
X327125Y-112055D01*
X328100Y-112249D01*
X329076Y-112055D01*
X329902Y-111502D01*
X330455Y-110676D01*
X330649Y-109700D01*
X330455Y-108724D01*
X329902Y-107898D01*
X329076Y-107345D01*
X328100Y-107151D01*
X327125Y-107345D01*
X326499Y-107763D01*
X293012D01*
X292695Y-107376D01*
X292849Y-106600D01*
X292774Y-106224D01*
X293091Y-105837D01*
X298600D01*
X299341Y-105690D01*
X299970Y-105270D01*
X299970Y-105270D01*
X299970Y-105270D01*
X300438Y-104802D01*
X301175Y-104655D01*
X302002Y-104102D01*
X302555Y-103276D01*
X302749Y-102300D01*
X302555Y-101324D01*
X302390Y-101078D01*
X302626Y-100637D01*
X364499D01*
X365125Y-101055D01*
X366100Y-101249D01*
X367075Y-101055D01*
X367902Y-100502D01*
X368455Y-99676D01*
X368649Y-98700D01*
X368455Y-97724D01*
X367902Y-96898D01*
X367075Y-96345D01*
X366100Y-96151D01*
X365125Y-96345D01*
X364499Y-96763D01*
X356920D01*
X356841Y-96710D01*
X356100Y-96563D01*
X355359Y-96710D01*
X355280Y-96763D01*
X307712D01*
X307395Y-96376D01*
X307549Y-95600D01*
X307355Y-94625D01*
X306802Y-93798D01*
X305976Y-93245D01*
X305054Y-93062D01*
Y-93062D01*
X305054Y-93062D01*
X305000Y-93051D01*
Y-93016D01*
X305004Y-93013D01*
X336463D01*
X337124Y-93455D01*
X338100Y-93649D01*
X339075Y-93455D01*
X339902Y-92902D01*
X340455Y-92076D01*
X340649Y-91100D01*
X340455Y-90124D01*
X339902Y-89298D01*
X339075Y-88745D01*
X338100Y-88551D01*
X338096Y-88544D01*
X341185Y-85454D01*
X341647Y-85646D01*
Y-93628D01*
X350553D01*
Y-84723D01*
X342570D01*
X342379Y-84261D01*
X357436Y-69204D01*
X358100Y-69291D01*
X359262Y-69138D01*
X360346Y-68690D01*
X361276Y-67976D01*
X361989Y-67046D01*
X362438Y-65962D01*
X362591Y-64800D01*
X362438Y-63638D01*
X361989Y-62554D01*
X361276Y-61624D01*
X360346Y-60910D01*
X359262Y-60462D01*
X358100Y-60309D01*
X356938Y-60462D01*
X355854Y-60910D01*
X354924Y-61624D01*
X354210Y-62554D01*
X353762Y-63638D01*
X353609Y-64800D01*
X353762Y-65962D01*
X354183Y-66978D01*
X350392Y-70768D01*
X349951Y-70533D01*
X350037Y-70100D01*
X350037Y-70100D01*
X350037Y-70100D01*
Y-70100D01*
Y-68817D01*
X350346Y-68690D01*
X351276Y-67976D01*
X351990Y-67046D01*
X352438Y-65962D01*
X352591Y-64800D01*
X352438Y-63638D01*
X351990Y-62554D01*
X351276Y-61624D01*
X350346Y-60910D01*
X349262Y-60462D01*
X348100Y-60309D01*
X346938Y-60462D01*
X345854Y-60910D01*
X344924Y-61624D01*
X344211Y-62554D01*
X343762Y-63638D01*
X343609Y-64800D01*
X343762Y-65962D01*
X344211Y-67046D01*
X344924Y-67976D01*
X345854Y-68690D01*
X346163Y-68817D01*
Y-69298D01*
X338898Y-76563D01*
X310891D01*
X310574Y-76176D01*
X310649Y-75800D01*
X310455Y-74825D01*
X309902Y-73998D01*
X309075Y-73445D01*
X308100Y-73251D01*
X307124Y-73445D01*
X306499Y-73863D01*
X288803D01*
X288486Y-73476D01*
X288614Y-72835D01*
X288506Y-72294D01*
X288860Y-71941D01*
X288900Y-71949D01*
X289876Y-71755D01*
X290702Y-71202D01*
X291255Y-70376D01*
X291449Y-69400D01*
X291255Y-68424D01*
X290702Y-67598D01*
X289876Y-67045D01*
X288900Y-66851D01*
X287925Y-67045D01*
X287449Y-67363D01*
X287299Y-67463D01*
X259326D01*
X259090Y-67022D01*
X259455Y-66475D01*
X259649Y-65500D01*
X259455Y-64525D01*
X258902Y-63698D01*
X258075Y-63145D01*
X257100Y-62951D01*
X256124Y-63145D01*
X255499Y-63563D01*
X253700D01*
X252959Y-63710D01*
X252330Y-64130D01*
X250898Y-65563D01*
X247659D01*
Y-60132D01*
X239541D01*
Y-60474D01*
X238659D01*
Y-60031D01*
X230541D01*
Y-60474D01*
X229406D01*
X229365Y-60443D01*
X228514Y-60090D01*
X227600Y-59970D01*
X226686Y-60090D01*
X225835Y-60443D01*
X225794Y-60474D01*
X224853D01*
X220240Y-55860D01*
X219613Y-55379D01*
X219399Y-55291D01*
X218883Y-55077D01*
X218100Y-54974D01*
X183911D01*
X183867Y-54941D01*
X183016Y-54588D01*
X182102Y-54468D01*
D02*
G37*
G36*
X9100Y-44809D02*
X7938Y-44962D01*
X6854Y-45410D01*
X5924Y-46124D01*
X5210Y-47054D01*
X4762Y-48138D01*
X4609Y-49300D01*
X4762Y-50462D01*
X5210Y-51546D01*
X5924Y-52476D01*
X6854Y-53189D01*
X7938Y-53638D01*
X9100Y-53791D01*
X10262Y-53638D01*
X11346Y-53189D01*
X12276Y-52476D01*
X12990Y-51546D01*
X13117Y-51237D01*
X39660D01*
X39693Y-51736D01*
X39900Y-51709D01*
X40108Y-51736D01*
X40136Y-51300D01*
X40140Y-51237D01*
X267198D01*
X270998Y-55038D01*
X271049Y-55291D01*
X271145Y-55775D01*
X271698Y-56602D01*
X272524Y-57155D01*
X273500Y-57349D01*
X274476Y-57155D01*
X275302Y-56602D01*
X275855Y-55775D01*
X276049Y-54800D01*
X275855Y-53825D01*
X275302Y-52998D01*
X274476Y-52445D01*
X273738Y-52298D01*
X269370Y-47930D01*
X268741Y-47510D01*
X268000Y-47363D01*
X13117D01*
X12990Y-47054D01*
X12276Y-46124D01*
X11346Y-45410D01*
X10262Y-44962D01*
X9100Y-44809D01*
D02*
G37*
G36*
X38900Y-51841D02*
X38738Y-51862D01*
X37654Y-52311D01*
X36724Y-53024D01*
X36011Y-53954D01*
X35562Y-55038D01*
X35541Y-55200D01*
X38900D01*
Y-51841D01*
D02*
G37*
G36*
X119100Y-37370D02*
X118186Y-37490D01*
X117335Y-37843D01*
X117294Y-37874D01*
X60406D01*
X60365Y-37843D01*
X59514Y-37490D01*
X58600Y-37370D01*
X57686Y-37490D01*
X56835Y-37843D01*
X56794Y-37874D01*
X40606D01*
X40565Y-37843D01*
X39714Y-37490D01*
X38800Y-37370D01*
X37886Y-37490D01*
X37035Y-37843D01*
X36304Y-38404D01*
X35743Y-39135D01*
X35390Y-39986D01*
X35270Y-40900D01*
X35390Y-41814D01*
X35743Y-42665D01*
X36304Y-43396D01*
X37035Y-43957D01*
X37886Y-44310D01*
X38800Y-44430D01*
X39714Y-44310D01*
X40565Y-43957D01*
X40606Y-43926D01*
X56794D01*
X56835Y-43957D01*
X57686Y-44310D01*
X58600Y-44430D01*
X59514Y-44310D01*
X60365Y-43957D01*
X60406Y-43926D01*
X117294D01*
X117335Y-43957D01*
X118186Y-44310D01*
X119100Y-44430D01*
X120014Y-44310D01*
X120865Y-43957D01*
X121596Y-43396D01*
X122157Y-42665D01*
X122510Y-41814D01*
X122630Y-40900D01*
X122510Y-39986D01*
X122157Y-39135D01*
X121596Y-38404D01*
X120865Y-37843D01*
X120014Y-37490D01*
X119100Y-37370D01*
D02*
G37*
G36*
X291000Y-23651D02*
X290024Y-23845D01*
X289198Y-24398D01*
X288645Y-25225D01*
X288498Y-25962D01*
X287398Y-27063D01*
X283791D01*
X283474Y-26676D01*
X283549Y-26300D01*
X283355Y-25324D01*
X282802Y-24498D01*
X281976Y-23945D01*
X281000Y-23751D01*
X280025Y-23945D01*
X279399Y-24363D01*
X252601D01*
X251975Y-23945D01*
X251000Y-23751D01*
X250025Y-23945D01*
X249198Y-24498D01*
X248645Y-25324D01*
X248451Y-26300D01*
X248250Y-26501D01*
X248000Y-26451D01*
X247024Y-26645D01*
X246198Y-27198D01*
X245645Y-28025D01*
X245451Y-29000D01*
X245645Y-29976D01*
X246198Y-30802D01*
X247024Y-31355D01*
X248000Y-31549D01*
X248975Y-31355D01*
X249601Y-30937D01*
X288200D01*
X288941Y-30790D01*
X289570Y-30370D01*
X289570Y-30370D01*
X289570Y-30370D01*
X291238Y-28702D01*
X291975Y-28555D01*
X292802Y-28002D01*
X293355Y-27176D01*
X293549Y-26200D01*
X293355Y-25225D01*
X292802Y-24398D01*
X291975Y-23845D01*
X291000Y-23651D01*
D02*
G37*
G36*
X347800Y-31351D02*
X346825Y-31545D01*
X345998Y-32098D01*
X345445Y-32925D01*
X345334Y-33482D01*
X344855Y-33961D01*
X301948D01*
X301476Y-33645D01*
X300500Y-33451D01*
X299524Y-33645D01*
X298698Y-34198D01*
X298145Y-35024D01*
X297951Y-36000D01*
X298145Y-36975D01*
X298698Y-37802D01*
X299524Y-38355D01*
X300500Y-38549D01*
X301476Y-38355D01*
X301948Y-38039D01*
X345700D01*
X346480Y-37884D01*
X347142Y-37442D01*
X347142Y-37442D01*
X347142Y-37442D01*
X348218Y-36366D01*
X348776Y-36255D01*
X349602Y-35702D01*
X350155Y-34876D01*
X350349Y-33900D01*
X350155Y-32925D01*
X349602Y-32098D01*
X348776Y-31545D01*
X347800Y-31351D01*
D02*
G37*
G36*
X300977Y-8540D02*
X299815Y-8693D01*
X298732Y-9142D01*
X297801Y-9856D01*
X297088Y-10786D01*
X296639Y-11869D01*
X296486Y-13032D01*
Y-16969D01*
X296639Y-18131D01*
X297088Y-19214D01*
X297801Y-20144D01*
X297951Y-20259D01*
Y-23569D01*
X287647Y-33874D01*
X244851D01*
X244851Y-33874D01*
X244068Y-33977D01*
X243338Y-34280D01*
X242984Y-34552D01*
X242712Y-34760D01*
X242712Y-34760D01*
X240924Y-36548D01*
X236606D01*
X236565Y-36517D01*
X235714Y-36164D01*
X234800Y-36044D01*
X233886Y-36164D01*
X233035Y-36517D01*
X232577Y-36868D01*
X232248Y-36492D01*
X235102Y-33637D01*
X235999D01*
X236625Y-34055D01*
X237600Y-34249D01*
X238576Y-34055D01*
X239402Y-33502D01*
X239955Y-32675D01*
X240149Y-31700D01*
X239955Y-30724D01*
X239402Y-29898D01*
X238576Y-29345D01*
X237600Y-29151D01*
X236625Y-29345D01*
X235999Y-29763D01*
X234300D01*
X233559Y-29910D01*
X232930Y-30330D01*
X230532Y-32728D01*
X230091Y-32492D01*
X230249Y-31700D01*
X230055Y-30724D01*
X229502Y-29898D01*
X228676Y-29345D01*
X227700Y-29151D01*
X226725Y-29345D01*
X225898Y-29898D01*
X225345Y-30724D01*
X225198Y-31462D01*
X217398Y-39263D01*
X191330D01*
X191139Y-38801D01*
X195738Y-34202D01*
X196476Y-34055D01*
X197302Y-33502D01*
X197855Y-32675D01*
X198049Y-31700D01*
X197855Y-30724D01*
X197302Y-29898D01*
X196476Y-29345D01*
X195500Y-29151D01*
X194525Y-29345D01*
X193698Y-29898D01*
X193145Y-30724D01*
X192998Y-31462D01*
X188598Y-35863D01*
X155672D01*
X155355Y-35476D01*
X155355Y-35475D01*
X155549Y-34500D01*
X155454Y-34024D01*
X155771Y-33637D01*
X174399D01*
X175024Y-34055D01*
X176000Y-34249D01*
X176976Y-34055D01*
X177802Y-33502D01*
X178355Y-32675D01*
X178549Y-31700D01*
X178355Y-30724D01*
X177802Y-29898D01*
X176976Y-29345D01*
X176000Y-29151D01*
X175024Y-29345D01*
X174399Y-29763D01*
X139201D01*
X138575Y-29345D01*
X137600Y-29151D01*
X136625Y-29345D01*
X135798Y-29898D01*
X135245Y-30724D01*
X135051Y-31700D01*
X135245Y-32675D01*
X135798Y-33502D01*
X136625Y-34055D01*
X137600Y-34249D01*
X137601Y-34250D01*
X137551Y-34500D01*
X137745Y-35476D01*
X138298Y-36302D01*
X139125Y-36855D01*
X140100Y-37049D01*
X140284Y-37012D01*
X140637Y-37366D01*
X140551Y-37800D01*
X140745Y-38776D01*
X140776Y-38822D01*
X140540Y-39263D01*
X136901D01*
X136275Y-38845D01*
X135300Y-38651D01*
X134325Y-38845D01*
X133498Y-39398D01*
X132945Y-40224D01*
X132751Y-41200D01*
X132147Y-41320D01*
X131800Y-41251D01*
X130824Y-41445D01*
X129998Y-41998D01*
X129445Y-42825D01*
X129251Y-43800D01*
X129445Y-44776D01*
X129998Y-45602D01*
X130824Y-46155D01*
X131800Y-46349D01*
X132775Y-46155D01*
X133550Y-45637D01*
X222300D01*
X223041Y-45490D01*
X223670Y-45070D01*
X223670Y-45070D01*
X223670Y-45070D01*
X231718Y-37022D01*
X232094Y-37351D01*
X231743Y-37809D01*
X231390Y-38660D01*
X231270Y-39574D01*
X231390Y-40488D01*
X231743Y-41339D01*
X232304Y-42070D01*
X233035Y-42631D01*
X233886Y-42984D01*
X234800Y-43104D01*
X235714Y-42984D01*
X236565Y-42631D01*
X236606Y-42600D01*
X242177D01*
X242960Y-42497D01*
X243476Y-42283D01*
X243690Y-42195D01*
X244317Y-41714D01*
X246105Y-39926D01*
X254240D01*
X254400Y-40399D01*
X254004Y-40704D01*
X253443Y-41435D01*
X253090Y-42286D01*
X252970Y-43200D01*
X253090Y-44114D01*
X253443Y-44965D01*
X254004Y-45696D01*
X254735Y-46257D01*
X255586Y-46610D01*
X256500Y-46730D01*
X299926D01*
X302130Y-48935D01*
Y-57961D01*
X302130Y-57961D01*
X302130D01*
X302251Y-58874D01*
X302603Y-59726D01*
X303164Y-60457D01*
X303204Y-60496D01*
X303935Y-61057D01*
X304636Y-61348D01*
X304742Y-61743D01*
X304724Y-61886D01*
X304210Y-62554D01*
X303762Y-63638D01*
X303609Y-64800D01*
X303762Y-65962D01*
X304210Y-67046D01*
X304924Y-67976D01*
X305854Y-68690D01*
X306938Y-69138D01*
X308100Y-69291D01*
X309262Y-69138D01*
X310346Y-68690D01*
X311276Y-67976D01*
X311989Y-67046D01*
X312438Y-65962D01*
X312591Y-64800D01*
X312438Y-63638D01*
X311989Y-62554D01*
X311276Y-61624D01*
X310346Y-60910D01*
X309262Y-60462D01*
X308814Y-60403D01*
X308622Y-59941D01*
X308757Y-59765D01*
X309110Y-58914D01*
X309230Y-58000D01*
X309191Y-57701D01*
Y-47472D01*
X309071Y-46559D01*
X308718Y-45707D01*
X308157Y-44976D01*
X303884Y-40704D01*
X303153Y-40143D01*
X302302Y-39790D01*
X301388Y-39670D01*
X290996D01*
X290835Y-39196D01*
X291040Y-39040D01*
X303117Y-26962D01*
X303598Y-26336D01*
X303686Y-26122D01*
X303900Y-25606D01*
X304003Y-24823D01*
Y-20259D01*
X304153Y-20144D01*
X304867Y-19214D01*
X305315Y-18131D01*
X305468Y-16969D01*
Y-13032D01*
X305315Y-11869D01*
X304867Y-10786D01*
X304153Y-9856D01*
X303223Y-9142D01*
X302140Y-8693D01*
X300977Y-8540D01*
D02*
G37*
%LPD*%
G36*
X341277Y-298700D02*
X348177D01*
Y-330400D01*
X348144Y-346700D01*
X324977D01*
Y-325000D01*
X327577Y-322400D01*
Y-298600D01*
X341277D01*
Y-298700D01*
D02*
G37*
G36*
X185800Y-245600D02*
Y-272300D01*
X213500Y-300000D01*
X242800D01*
X246000Y-296800D01*
X252400D01*
Y-306400D01*
X251500Y-307300D01*
X206700D01*
X165900Y-266500D01*
Y-244700D01*
X167000Y-243600D01*
X183800D01*
X185800Y-245600D01*
D02*
G37*
D11*
X273177Y-236400D02*
D03*
Y-230494D02*
D03*
X286477Y-217500D02*
D03*
Y-211595D02*
D03*
X301802Y-259794D02*
D03*
Y-265700D02*
D03*
X298777Y-211200D02*
D03*
Y-217106D02*
D03*
X304977Y-211000D02*
D03*
Y-216905D02*
D03*
X295965Y-259794D02*
D03*
Y-265700D02*
D03*
X292477Y-217206D02*
D03*
Y-211300D02*
D03*
X311177Y-216905D02*
D03*
Y-211000D02*
D03*
X273277Y-224505D02*
D03*
Y-218600D02*
D03*
X284277Y-253306D02*
D03*
Y-247400D02*
D03*
X271400Y-266005D02*
D03*
Y-260100D02*
D03*
X284290Y-265700D02*
D03*
Y-259794D02*
D03*
X290127Y-259794D02*
D03*
Y-265700D02*
D03*
X307640Y-259794D02*
D03*
Y-265700D02*
D03*
X313477Y-259794D02*
D03*
Y-265700D02*
D03*
X277500Y-265905D02*
D03*
Y-260000D02*
D03*
D15*
X243600Y-63600D02*
D03*
Y-71474D02*
D03*
X234600Y-63500D02*
D03*
Y-71374D02*
D03*
D17*
X309977Y-239900D02*
D03*
X317851D02*
D03*
D29*
X295877Y-253400D02*
D03*
X289972D02*
D03*
X295977Y-247400D02*
D03*
X290072D02*
D03*
X278400Y-271800D02*
D03*
X284306D02*
D03*
X295983Y-271400D02*
D03*
X290077D02*
D03*
X135294Y-165100D02*
D03*
X141200D02*
D03*
X141305Y-158800D02*
D03*
X135400D02*
D03*
X146994Y-165000D02*
D03*
X152900D02*
D03*
D31*
X175757Y-314900D02*
D03*
D32*
X161583Y-309979D02*
D03*
X161584Y-319821D02*
D03*
D33*
X137371Y-305845D02*
D03*
Y-323955D02*
D03*
D41*
X7277Y-131700D02*
X17477D01*
X332477Y-268000D02*
Y-211000D01*
X320577Y-268300D02*
Y-256100D01*
X317851Y-253374D02*
X320577Y-256100D01*
X317851Y-253374D02*
Y-239900D01*
X311177Y-211000D02*
X316077D01*
D42*
X346100Y-115300D02*
X376100D01*
X340500D02*
X346100D01*
X337600D02*
X340500D01*
X355900Y-98700D02*
X356100Y-98500D01*
X355900Y-98700D02*
X366100D01*
X225400D02*
X355900D01*
X141200Y-165100D02*
X141305Y-164995D01*
Y-158800D01*
X146895Y-165100D02*
X146994Y-165000D01*
X141200Y-165100D02*
X146895D01*
X160700Y-167500D02*
X175300D01*
X158200Y-165000D02*
X160700Y-167500D01*
X152900Y-165000D02*
X158200D01*
X183100Y-177399D02*
X183200Y-177499D01*
X152677Y-138100D02*
X240422D01*
X241522Y-137000D01*
X277500Y-268400D02*
Y-265905D01*
Y-268400D02*
X278400Y-269300D01*
Y-271800D02*
Y-269300D01*
X271477Y-265905D02*
X277500D01*
Y-260000D02*
Y-249200D01*
X284556Y-242144D01*
Y-240390D01*
X289477Y-233500D02*
X290461Y-232516D01*
Y-226610D01*
X282587Y-228610D02*
X287477Y-233500D01*
X289477D01*
X282587Y-228610D02*
Y-226610D01*
X288493Y-232516D02*
X289477Y-233500D01*
X288493Y-232516D02*
Y-226610D01*
X282577Y-238200D02*
X287277Y-233500D01*
X282577Y-238200D02*
X282587Y-238210D01*
Y-240390D02*
Y-238210D01*
X288493Y-234484D02*
X289477Y-233500D01*
X288493Y-240390D02*
Y-234484D01*
X283783Y-271600D02*
X284290Y-271093D01*
Y-265700D01*
X307640Y-265700D02*
X313477D01*
X301802D02*
X307640D01*
X301802Y-265700D02*
X301802Y-265700D01*
X140677Y-294800D02*
X187777D01*
X6677Y-131100D02*
X7277Y-131700D01*
X218400Y-169300D02*
X221400Y-166300D01*
X272800D01*
X242100Y-169100D02*
X267100D01*
X247400Y-124000D02*
X328900D01*
X337600Y-115300D01*
X274691Y-118391D02*
X283381Y-109700D01*
X251400Y-69400D02*
X288900D01*
X59800Y-87300D02*
X59824Y-87276D01*
X242309D01*
X242334Y-87300D01*
X273200Y-106600D02*
X290300D01*
X229400Y-67500D02*
X251700D01*
X253700Y-65500D01*
X257100D01*
X227600Y-69300D02*
X229400Y-67500D01*
X140000Y-133000D02*
X212400D01*
X137600Y-31700D02*
X176000D01*
X137600Y-136200D02*
X153464D01*
X153664Y-136400D01*
X140100Y-34500D02*
X153000D01*
X189400Y-37800D02*
X195500Y-31700D01*
X143100Y-37800D02*
X189400D01*
X143100Y-140800D02*
X145400Y-143100D01*
X59300Y-146000D02*
X77900D01*
X115100Y-183200D01*
X218200Y-41200D02*
X227700Y-31700D01*
X135300Y-41200D02*
X218200D01*
X135300Y-130400D02*
X231700D01*
X233600Y-128500D02*
Y-124500D01*
X231700Y-130400D02*
X233600Y-128500D01*
X45200Y-100800D02*
X52400D01*
X64000D01*
X81700Y-118500D01*
X222800D01*
X229800Y-128400D02*
X231108Y-127092D01*
Y-123692D01*
X233500Y-121300D01*
X251000Y-26300D02*
X281000D01*
X288200Y-29000D02*
X291000Y-26200D01*
X248000Y-29000D02*
X288200D01*
X241074Y-74000D02*
X243600Y-71474D01*
X239554Y-74000D02*
X241074D01*
X234600Y-73615D02*
Y-71374D01*
Y-73615D02*
X237585Y-76600D01*
X9100Y-49300D02*
X268000D01*
X273500Y-54800D01*
X277300Y-103900D02*
X298600D01*
X300200Y-102300D01*
X282500Y-101400D02*
X293100D01*
X234300Y-31700D02*
X237600D01*
X222300Y-43700D02*
X234300Y-31700D01*
X108300Y-145700D02*
X248100D01*
X105500Y-142900D02*
X108300Y-145700D01*
X145400Y-143100D02*
X215800D01*
X153664Y-136400D02*
X212200D01*
X215400Y-133200D01*
X132000Y-158800D02*
X135400D01*
X278900Y-118391D02*
X281995Y-115295D01*
X245500Y-78500D02*
X339700D01*
X241522Y-89176D02*
X334724D01*
X237600Y-125930D02*
X356100D01*
X9100Y-69300D02*
X16800D01*
X24500Y-61600D01*
X55700Y-73400D02*
X146700D01*
X146800D01*
X53200Y-70900D02*
X55700Y-73400D01*
X70617Y-124717D02*
X100350Y-154450D01*
X39900Y-76200D02*
X72100D01*
X24500Y-61600D02*
X52700D01*
X74100Y-69300D02*
X74200D01*
X227600D01*
X52700Y-61600D02*
X66400D01*
X74100Y-69300D01*
X63600Y-66200D02*
X68600Y-71200D01*
X39900Y-66200D02*
X63600D01*
X68600Y-118100D02*
X102800Y-152300D01*
X231700Y-89198D02*
X233578Y-91076D01*
X288700Y-86500D02*
X290300D01*
X242334Y-87300D02*
X287900D01*
X288700Y-86500D01*
X114600Y-197500D02*
X234100D01*
X113500Y-194100D02*
X210800D01*
X97500Y-274000D02*
X116277D01*
X133277Y-291000D01*
X99800Y-270400D02*
X116277D01*
X140677Y-294800D01*
X131800Y-128400D02*
X229800D01*
X25500Y-70900D02*
X31000D01*
X53200D01*
X146777Y-140700D02*
X245500D01*
X134100Y-43700D02*
X222300D01*
X131800D02*
X134100D01*
X340554Y-143046D02*
X346100Y-137500D01*
X239554Y-143046D02*
X340554D01*
X348100Y-70100D02*
Y-64800D01*
X339700Y-78500D02*
X348100Y-70100D01*
X358100Y-65800D02*
Y-64800D01*
X334724Y-89176D02*
X358100Y-65800D01*
X245300Y-75800D02*
X304800D01*
X307600D01*
X304800D02*
X308100D01*
X281995Y-115295D02*
X317600D01*
X321200Y-109700D02*
X328100D01*
X283381D02*
X321200D01*
X233578Y-91076D02*
X338076D01*
X338100Y-91100D01*
X115100Y-183200D02*
X196000D01*
X197938Y-181262D02*
Y-177500D01*
X196000Y-183200D02*
X197938Y-181262D01*
X102800Y-152300D02*
X251200D01*
X253333D01*
X100350Y-154450D02*
X248350D01*
X251350D02*
X251400Y-154500D01*
X248350Y-154450D02*
X251350D01*
D43*
X28377Y-131700D02*
X34100D01*
X34503Y-132103D01*
X50203D01*
X89277Y-225700D02*
X89377Y-225600D01*
X79077Y-225700D02*
X89277D01*
X45577Y-230200D02*
X45877Y-230500D01*
X46269Y-230891D01*
X45877Y-248200D02*
Y-230500D01*
X73886Y-230891D02*
X79077Y-225700D01*
X46269Y-230891D02*
X73886D01*
X45577Y-247900D02*
X45877Y-248200D01*
X9377Y-185823D02*
Y-185300D01*
Y-205300D02*
X9962Y-205885D01*
X26577D01*
X34777Y-199485D02*
X40977Y-205685D01*
X34777Y-199485D02*
Y-187900D01*
X33077Y-186200D02*
X34777Y-187900D01*
X26577Y-186200D02*
X33077D01*
X9377Y-195300D02*
X21777D01*
X26577Y-190500D01*
Y-186200D01*
X25977Y-186800D02*
X26577Y-186200D01*
X28377Y-131700D02*
X28777Y-132100D01*
X38800Y-40900D02*
X58600D01*
X119100D01*
X218100Y-58000D02*
X223600Y-63500D01*
X234600D02*
X243500D01*
X243600Y-63600D01*
X119100Y-58000D02*
X218100D01*
X223600Y-63500D02*
X227600D01*
X234600D01*
X300977Y-24823D02*
Y-15000D01*
X288900Y-36900D02*
X300977Y-24823D01*
X244851Y-36900D02*
X288900D01*
X242177Y-39574D02*
X244851Y-36900D01*
X234800Y-39574D02*
X242177D01*
D44*
X37677Y-265900D02*
X47000D01*
X77100Y-262900D02*
X85700Y-254300D01*
X141100D01*
X141500Y-254700D01*
X47000Y-265900D02*
X50000Y-262900D01*
X77100D01*
D45*
X14177Y-290900D02*
Y-269700D01*
X7677Y-284400D02*
X14177Y-290900D01*
X7677Y-284400D02*
Y-265900D01*
X7884Y-167207D02*
Y-164700D01*
X7500Y-147877D02*
X11577Y-143800D01*
X7500Y-164700D02*
Y-147877D01*
X37877Y-172100D02*
X40000D01*
X35300D02*
X37877D01*
X32977D02*
X35300D01*
X40000D02*
X53600Y-185700D01*
X59389D01*
X59721Y-185368D01*
X78745D01*
X79077Y-185700D01*
X57500Y-164700D02*
X78577D01*
X89377Y-175500D01*
X40977Y-214900D02*
Y-205685D01*
Y-223000D02*
Y-214900D01*
X38277Y-265300D02*
Y-225700D01*
X40977Y-223000D01*
X38277Y-265300D02*
X38377Y-265200D01*
X37677Y-265900D02*
X38277Y-265300D01*
X19077Y-240700D02*
X29364D01*
X32177Y-243513D01*
Y-258700D02*
Y-243513D01*
X30377Y-260500D02*
X32177Y-258700D01*
X89377Y-185600D02*
Y-175500D01*
X7884Y-167207D02*
X18377Y-177700D01*
X40977Y-186000D02*
Y-185500D01*
X33177Y-177700D02*
X40977Y-185500D01*
X18377Y-177700D02*
X33177D01*
X13677Y-259900D02*
Y-244100D01*
X5577Y-236000D02*
X13677Y-244100D01*
X7677Y-265900D02*
X13677Y-259900D01*
X5577Y-236000D02*
Y-230200D01*
X14477Y-236100D02*
Y-229500D01*
Y-236100D02*
X19077Y-240700D01*
X14177Y-269700D02*
X23377Y-260500D01*
X30377D01*
X3000Y-209900D02*
X6600Y-213500D01*
X3000Y-209900D02*
Y-192200D01*
X6600Y-213500D02*
X29177D01*
X32477Y-216800D01*
Y-222600D02*
Y-216800D01*
X14477Y-229500D02*
X17777Y-226200D01*
X28877D02*
X32477Y-222600D01*
X17777Y-226200D02*
X28877D01*
X24677Y-308600D02*
X37677Y-295600D01*
X24677Y-316900D02*
Y-308600D01*
X37677Y-295600D02*
Y-265900D01*
X3000Y-192200D02*
X9377Y-185823D01*
X122877Y-15000D02*
Y-10223D01*
X128500Y-4600D01*
X256400D01*
X256500Y-4700D01*
Y-43200D02*
X301388D01*
X305661Y-47472D01*
Y-57961D02*
Y-47472D01*
Y-57961D02*
X305700Y-58000D01*
D46*
X268533Y-218600D02*
X273277D01*
X266850Y-220283D02*
X268533Y-218600D01*
X183199Y-177500D02*
X183200Y-177499D01*
X175300Y-177500D02*
X183199D01*
X290077Y-275700D02*
Y-271400D01*
X256077Y-242500D02*
X266177Y-232400D01*
X256077Y-267400D02*
Y-242500D01*
X299667Y-226610D02*
X299777Y-226500D01*
X296367Y-226610D02*
X299667D01*
X294398D02*
Y-221279D01*
X298677Y-211300D02*
X298777Y-211200D01*
X292477Y-211300D02*
X298677D01*
X280177Y-218200D02*
X284556Y-222579D01*
X280177Y-218200D02*
Y-205200D01*
X284556Y-226610D02*
Y-222579D01*
X273177Y-230494D02*
X273230Y-230547D01*
X280619D01*
X273177Y-230494D02*
X273277Y-230395D01*
Y-224505D01*
X301030Y-230547D02*
X304977Y-226600D01*
X298336Y-230547D02*
X301030D01*
X304977Y-226600D02*
Y-216905D01*
X311177D01*
X296367Y-222610D02*
X298777Y-220200D01*
Y-217106D01*
X296367Y-226610D02*
Y-222610D01*
X292430Y-217253D02*
X292477Y-217206D01*
X292430Y-226610D02*
Y-217253D01*
X286477Y-226563D02*
X286524Y-226610D01*
X286477Y-226563D02*
Y-217500D01*
X309977Y-249800D02*
X313477Y-253300D01*
Y-259794D02*
Y-253300D01*
X309977Y-249800D02*
Y-239900D01*
X302230Y-236453D02*
X305677Y-239900D01*
X309977D01*
X298336Y-236453D02*
X302230D01*
X290077Y-265750D02*
X290127Y-265700D01*
X290077Y-271400D02*
Y-265750D01*
X295965Y-265700D02*
X295983Y-265718D01*
Y-271400D02*
Y-265718D01*
X297767Y-240390D02*
X307640Y-250262D01*
Y-259794D02*
Y-250262D01*
X296367Y-240390D02*
X297767D01*
X294398Y-241621D02*
X297504Y-244727D01*
X301802Y-259794D02*
Y-248760D01*
X297769Y-244727D02*
X301802Y-248760D01*
X297504Y-244727D02*
X297769D01*
X294398Y-241621D02*
Y-240390D01*
X295877Y-253400D02*
Y-247500D01*
X295977Y-247400D01*
X292430Y-244453D02*
Y-240390D01*
Y-244453D02*
X295377Y-247400D01*
X295977D01*
X295965Y-259794D02*
X295965Y-259794D01*
X290127Y-259794D02*
X295965D01*
X290127Y-259794D02*
X290127Y-259794D01*
X284290Y-259794D02*
X290127D01*
X282377Y-259800D02*
X284284D01*
X280177Y-249600D02*
X282377Y-247400D01*
X284284Y-259800D02*
X284290Y-259794D01*
X281577Y-259000D02*
X282377Y-259800D01*
X281577Y-259000D02*
Y-256000D01*
X280177Y-254600D02*
X281577Y-256000D01*
X280177Y-254600D02*
Y-249600D01*
X282377Y-247400D02*
X284277D01*
X289877Y-253306D02*
X289972Y-253400D01*
X284277Y-253306D02*
X289877D01*
X289777Y-247106D02*
X290072Y-247400D01*
X289777Y-247106D02*
Y-244200D01*
X290461Y-243516D01*
Y-240390D01*
X284277Y-247400D02*
X290072D01*
X271477Y-248200D02*
X280619Y-239058D01*
Y-236453D01*
X271477Y-260000D02*
Y-248200D01*
X116932Y-323955D02*
X137371D01*
X193719Y-167500D02*
X197938D01*
X193618Y-167399D02*
X193719Y-167500D01*
X197938D02*
X203500D01*
X208100Y-162900D01*
X286300D01*
X251365Y-72835D02*
X286065D01*
X64920Y-142480D02*
X78680D01*
X108700Y-172500D01*
X175300D01*
X106000Y-165100D02*
X135294D01*
X22977Y-124400D02*
X59800D01*
X81200Y-140300D02*
X106000Y-165100D01*
X80700Y-139800D02*
X81200Y-140300D01*
X59800Y-124400D02*
X65300D01*
X80700Y-139800D01*
X275100Y-95600D02*
X305000D01*
X273100Y-93600D02*
X275100Y-95600D01*
X345700Y-36000D02*
X347800Y-33900D01*
X300500Y-36000D02*
X345700D01*
X124800Y-200100D02*
X168300D01*
X201600Y-255900D02*
X201700D01*
X232300Y-295500D02*
X239677D01*
X201700Y-264900D02*
X232300Y-295500D01*
X201700Y-264900D02*
Y-256000D01*
Y-255900D01*
X94700Y-301723D02*
X116932Y-323955D01*
X94700Y-301723D02*
Y-269900D01*
X201600Y-255900D02*
X201700Y-256000D01*
X0Y-33D02*
X393701D01*
X0Y-358301D02*
Y-33D01*
Y-358301D02*
X393701D01*
Y-33D01*
D48*
X196777Y-351700D02*
X206777D01*
X225977D02*
X237077D01*
X154877D02*
X164277D01*
X123077D02*
X133077D01*
X237077D02*
X237646Y-351131D01*
X174477Y-351700D02*
X185577D01*
X164277D02*
X174477D01*
X110977D02*
X123077D01*
X98577D02*
X110977D01*
X140477D02*
X144177D01*
X133077D02*
X140477D01*
X144177D02*
X154877D01*
X185577D02*
X190627D01*
X196777D01*
X206777D02*
X216477D01*
X225977D01*
D50*
X194477Y-325600D02*
X262077D01*
X274377Y-337900D01*
X183777Y-314900D02*
X194477Y-325600D01*
X175757Y-314900D02*
X183777D01*
X190627Y-351700D02*
Y-337950D01*
X279477Y-337900D02*
X279777Y-337600D01*
X274377Y-337900D02*
X279477D01*
X161583Y-309979D02*
X170836D01*
X175757Y-314900D01*
X161584Y-319821D02*
X170836D01*
X175757Y-314900D01*
X140477Y-351700D02*
Y-337950D01*
X240777Y-351700D02*
Y-337950D01*
D51*
X161577Y-122900D02*
X162077Y-123400D01*
D59*
X378100Y-64800D02*
D03*
X346100Y-89176D02*
D03*
D60*
X368100Y-64800D02*
D03*
X358100D02*
D03*
X348100D02*
D03*
X338100D02*
D03*
X328100D02*
D03*
X318100D02*
D03*
X308100D02*
D03*
X39900Y-56200D02*
D03*
Y-66200D02*
D03*
X162077Y-123400D02*
D03*
Y-113400D02*
D03*
X9100Y-69300D02*
D03*
Y-59300D02*
D03*
Y-49300D02*
D03*
X54277Y-309900D02*
D03*
X64120D02*
D03*
X71994D02*
D03*
X81836D02*
D03*
X376100Y-89176D02*
D03*
X366100D02*
D03*
X356100D02*
D03*
X170600Y-229700D02*
D03*
D61*
X354331Y-270742D02*
D03*
Y-255151D02*
D03*
Y-223970D02*
D03*
Y-239561D02*
D03*
Y-177198D02*
D03*
Y-192789D02*
D03*
Y-208380D02*
D03*
X63780Y-255151D02*
D03*
Y-270742D02*
D03*
Y-286333D02*
D03*
Y-223970D02*
D03*
Y-239561D02*
D03*
Y-208380D02*
D03*
Y-192789D02*
D03*
D62*
X354331Y-286333D02*
D03*
X63780Y-177198D02*
D03*
D63*
X102877Y-15000D02*
D03*
X122877D02*
D03*
X112877D02*
D03*
X43177D02*
D03*
X63177D02*
D03*
X53177D02*
D03*
X350377D02*
D03*
X360377D02*
D03*
X340377D02*
D03*
X290977D02*
D03*
X300977D02*
D03*
X280977D02*
D03*
X172177D02*
D03*
X182177D02*
D03*
X162177D02*
D03*
X192177D02*
D03*
X202177D02*
D03*
X242177D02*
D03*
X232177D02*
D03*
X222177D02*
D03*
X212177D02*
D03*
D64*
X92877D02*
D03*
X33177D02*
D03*
X330377D02*
D03*
X270977D02*
D03*
X152177D02*
D03*
D65*
X316287Y-332400D02*
D03*
X361109Y-332300D02*
D03*
D66*
X331877Y-332400D02*
D03*
X376700Y-332300D02*
D03*
D67*
X39900Y-76200D02*
D03*
X162077Y-103400D02*
D03*
X9100Y-79300D02*
D03*
D68*
X40977Y-205685D02*
D03*
Y-186000D02*
D03*
X26577Y-205885D02*
D03*
Y-186200D02*
D03*
X9377Y-205300D02*
D03*
Y-195300D02*
D03*
Y-185300D02*
D03*
D69*
X24177Y-290900D02*
D03*
X14177D02*
D03*
D70*
X42072Y-320924D02*
D03*
X94041D02*
D03*
D71*
X5877Y-248200D02*
D03*
X45877D02*
D03*
X7677Y-265900D02*
D03*
X37677D02*
D03*
X6677Y-131100D02*
D03*
Y-91100D02*
D03*
X17477Y-131700D02*
D03*
Y-91700D02*
D03*
X28377Y-131700D02*
D03*
Y-91700D02*
D03*
X89377Y-185600D02*
D03*
Y-225600D02*
D03*
X57500Y-164700D02*
D03*
X7500D02*
D03*
X79077Y-185700D02*
D03*
Y-225700D02*
D03*
X5577Y-230200D02*
D03*
X45577D02*
D03*
D72*
X24477Y-343400D02*
D03*
X21577Y-143800D02*
D03*
X279477Y-337900D02*
D03*
X130477Y-337950D02*
D03*
X180627D02*
D03*
X230777D02*
D03*
X24677Y-316900D02*
D03*
D73*
X14477Y-343400D02*
D03*
X11577Y-143800D02*
D03*
X289477Y-337900D02*
D03*
X140477Y-337950D02*
D03*
X190627D02*
D03*
X240777D02*
D03*
X14677Y-316900D02*
D03*
D74*
X86300Y-29200D02*
D03*
X296700Y-82800D02*
D03*
X275600Y-64700D02*
D03*
X269600Y-59800D02*
D03*
X258200Y-54300D02*
D03*
X196900Y-74400D02*
D03*
X217300Y-73600D02*
D03*
X223300Y-77600D02*
D03*
X150000Y-80700D02*
D03*
X152700Y-73600D02*
D03*
X159000Y-79500D02*
D03*
X93500Y-78900D02*
D03*
X121300Y-79300D02*
D03*
X123900Y-94300D02*
D03*
X127500Y-106700D02*
D03*
X124300Y-112100D02*
D03*
X111100Y-111400D02*
D03*
X113300Y-102400D02*
D03*
X109900Y-94300D02*
D03*
X98400Y-97500D02*
D03*
X93700Y-109400D02*
D03*
X88900Y-100700D02*
D03*
X87900Y-90600D02*
D03*
X81600Y-245800D02*
D03*
X82500Y-237800D02*
D03*
X382400Y-161900D02*
D03*
X372700Y-162200D02*
D03*
X363200Y-162600D02*
D03*
X349600D02*
D03*
X338800Y-163500D02*
D03*
X335300Y-174000D02*
D03*
X247500Y-317300D02*
D03*
X249900Y-313100D02*
D03*
X242200Y-312600D02*
D03*
X105900Y-266300D02*
D03*
X102400Y-277900D02*
D03*
X85800Y-280800D02*
D03*
X87800Y-273700D02*
D03*
Y-265700D02*
D03*
X112500Y-204400D02*
D03*
X161300Y-203900D02*
D03*
X143900Y-211100D02*
D03*
X148900Y-206700D02*
D03*
X143500Y-204800D02*
D03*
X183200Y-177499D02*
D03*
X59300Y-146000D02*
D03*
X64920Y-142480D02*
D03*
X152677Y-138100D02*
D03*
X241522Y-137000D02*
D03*
X22977Y-124400D02*
D03*
X290077Y-275700D02*
D03*
X332477Y-211000D02*
D03*
X316077D02*
D03*
X299777Y-226500D02*
D03*
X256077Y-267400D02*
D03*
X266177Y-232400D02*
D03*
X295277Y-220400D02*
D03*
X280177Y-205200D02*
D03*
X234100Y-197500D02*
D03*
X201700Y-255900D02*
D03*
X210803Y-194097D02*
D03*
X146777Y-140700D02*
D03*
X251400Y-154500D02*
D03*
X242100Y-169100D02*
D03*
X218400Y-169300D02*
D03*
X272800Y-166300D02*
D03*
X267100Y-169100D02*
D03*
X239554Y-143046D02*
D03*
X237600Y-125930D02*
D03*
X247400Y-124000D02*
D03*
X225400Y-98700D02*
D03*
X274691Y-118391D02*
D03*
X278900D02*
D03*
X245500Y-78500D02*
D03*
X245300Y-75800D02*
D03*
X241522Y-89176D02*
D03*
X193618Y-167399D02*
D03*
X286300Y-162900D02*
D03*
X251365Y-72835D02*
D03*
X286065D02*
D03*
X251400Y-69400D02*
D03*
X288900D02*
D03*
X59800Y-87300D02*
D03*
X290300Y-86500D02*
D03*
Y-106600D02*
D03*
X273200D02*
D03*
X273500Y-54800D02*
D03*
X25500Y-70900D02*
D03*
X146700Y-73400D02*
D03*
X140000Y-133000D02*
D03*
X212400D02*
D03*
X176000Y-31700D02*
D03*
X137600D02*
D03*
Y-136200D02*
D03*
X215400Y-133200D02*
D03*
X153000Y-34500D02*
D03*
X140100D02*
D03*
X195500Y-31700D02*
D03*
X143100Y-37800D02*
D03*
X215800Y-143100D02*
D03*
X105500Y-142900D02*
D03*
X248100Y-145700D02*
D03*
X227700Y-31700D02*
D03*
X135300Y-41200D02*
D03*
X233600Y-124500D02*
D03*
X237600Y-31700D02*
D03*
X131800Y-128400D02*
D03*
X45200Y-100800D02*
D03*
X222800Y-118500D02*
D03*
X281000Y-26300D02*
D03*
X251000D02*
D03*
X291000Y-26200D02*
D03*
X248000Y-29000D02*
D03*
X239554Y-74200D02*
D03*
X237585Y-76600D02*
D03*
X277300Y-103900D02*
D03*
X300200Y-102300D02*
D03*
X293100Y-101400D02*
D03*
X282500D02*
D03*
X231700Y-89198D02*
D03*
X318100Y-115295D02*
D03*
X366100Y-98700D02*
D03*
X376100Y-115300D02*
D03*
X356100Y-125930D02*
D03*
X346100Y-137500D02*
D03*
X68600Y-118100D02*
D03*
X70617Y-124717D02*
D03*
X305000Y-95600D02*
D03*
X273100Y-93600D02*
D03*
X300500Y-36000D02*
D03*
X347800Y-33900D02*
D03*
X72100Y-76200D02*
D03*
X68600Y-71200D02*
D03*
X356100Y-125930D02*
D03*
X376100Y-115300D02*
D03*
X366100Y-98700D02*
D03*
X328100Y-109700D02*
D03*
X338100Y-91100D02*
D03*
X282500Y-101400D02*
D03*
X277300Y-103900D02*
D03*
X45200Y-100800D02*
D03*
X233500Y-121300D02*
D03*
X135300Y-130400D02*
D03*
X248100Y-145700D02*
D03*
X215800Y-143100D02*
D03*
X143100Y-140800D02*
D03*
X215400Y-133200D02*
D03*
X212400Y-133000D02*
D03*
X273500Y-54800D02*
D03*
X257100Y-65500D02*
D03*
X273200Y-106600D02*
D03*
X59800Y-87300D02*
D03*
X288900Y-69400D02*
D03*
X286065Y-72835D02*
D03*
X286300Y-162900D02*
D03*
X193618Y-167399D02*
D03*
X267100Y-169100D02*
D03*
X272800Y-166300D02*
D03*
X218400Y-169300D02*
D03*
X242100Y-169100D02*
D03*
X253333Y-152300D02*
D03*
X133277Y-291000D02*
D03*
X187777Y-294800D02*
D03*
X239677Y-295500D02*
D03*
X280177Y-205200D02*
D03*
X295277Y-220400D02*
D03*
X266177Y-232400D02*
D03*
X256077Y-267400D02*
D03*
X299777Y-226500D02*
D03*
X316077Y-211000D02*
D03*
X320477Y-268400D02*
D03*
X332477Y-211000D02*
D03*
Y-268000D02*
D03*
X22977Y-124400D02*
D03*
X241522Y-137000D02*
D03*
X245459Y-140659D02*
D03*
X227800Y-203000D02*
D03*
X183200Y-177499D02*
D03*
X124800Y-200100D02*
D03*
X168300D02*
D03*
X114600Y-197500D02*
D03*
X113500Y-194100D02*
D03*
X97500Y-274000D02*
D03*
X99800Y-270400D02*
D03*
X94700Y-269900D02*
D03*
X131800Y-43800D02*
D03*
X308100Y-75800D02*
D03*
X132000Y-158800D02*
D03*
X227900Y-124800D02*
D03*
X225900Y-113100D02*
D03*
X255900Y-139000D02*
D03*
X260872Y-94800D02*
D03*
X232200Y-76400D02*
D03*
X337300Y-285900D02*
D03*
X186600Y-225200D02*
D03*
X186500Y-230100D02*
D03*
Y-235500D02*
D03*
X192900Y-218000D02*
D03*
X193300Y-225200D02*
D03*
X193600Y-230900D02*
D03*
X194700Y-239000D02*
D03*
X195400Y-248100D02*
D03*
X196100Y-255700D02*
D03*
X205700Y-228800D02*
D03*
X206200Y-235800D02*
D03*
X207400Y-244300D02*
D03*
X207200Y-249300D02*
D03*
X207500Y-254400D02*
D03*
X144000Y-226000D02*
D03*
X144500Y-232200D02*
D03*
X144600Y-237500D02*
D03*
X144700Y-243500D02*
D03*
X150500Y-225300D02*
D03*
X151200Y-230100D02*
D03*
Y-234900D02*
D03*
X150900Y-240400D02*
D03*
X152700Y-243500D02*
D03*
X157200Y-227200D02*
D03*
X156750Y-232653D02*
D03*
X156700Y-242900D02*
D03*
X196300Y-263900D02*
D03*
Y-272000D02*
D03*
X200900Y-277800D02*
D03*
X208800Y-263300D02*
D03*
X124000Y-269200D02*
D03*
X134800Y-272700D02*
D03*
X144700Y-274000D02*
D03*
X162800Y-274900D02*
D03*
X153700Y-275400D02*
D03*
X256800Y-271100D02*
D03*
X250000Y-266400D02*
D03*
X251900Y-278800D02*
D03*
X261900Y-279400D02*
D03*
X271000D02*
D03*
X294200Y-233900D02*
D03*
X284800Y-235300D02*
D03*
X303600Y-233200D02*
D03*
X308800Y-232100D02*
D03*
X310300Y-222500D02*
D03*
X313600Y-228300D02*
D03*
X320600Y-221800D02*
D03*
X317500Y-229800D02*
D03*
X313900Y-233600D02*
D03*
X325100Y-230200D02*
D03*
X324700Y-235600D02*
D03*
X326500Y-241800D02*
D03*
X267600Y-236000D02*
D03*
X264600Y-240800D02*
D03*
X270700Y-240500D02*
D03*
X324600Y-216300D02*
D03*
X318500Y-205100D02*
D03*
X326100Y-204800D02*
D03*
X333600Y-206000D02*
D03*
X259400Y-313100D02*
D03*
X267700Y-313300D02*
D03*
X274600Y-313200D02*
D03*
X281500Y-313000D02*
D03*
X288100Y-312900D02*
D03*
X298700Y-312500D02*
D03*
X282800Y-320300D02*
D03*
X293000Y-319800D02*
D03*
X299000Y-318900D02*
D03*
X302200Y-321200D02*
D03*
X304200Y-328700D02*
D03*
X303100Y-338500D02*
D03*
X297500Y-353400D02*
D03*
X303600Y-347200D02*
D03*
X306100Y-354300D02*
D03*
X316300Y-354400D02*
D03*
X311600Y-346500D02*
D03*
X121600Y-310400D02*
D03*
X127700Y-315000D02*
D03*
X139000Y-315200D02*
D03*
X190100Y-310400D02*
D03*
X198800Y-314600D02*
D03*
X198200Y-307700D02*
D03*
X63600Y-154200D02*
D03*
X72700Y-152600D02*
D03*
X70200Y-137000D02*
D03*
X59900Y-131800D02*
D03*
X58300Y-137500D02*
D03*
X37400Y-139500D02*
D03*
X38900Y-145700D02*
D03*
X38700Y-128300D02*
D03*
X38100Y-120700D02*
D03*
X90000Y-165600D02*
D03*
X99500Y-138000D02*
D03*
X111300Y-130900D02*
D03*
X115400Y-140400D02*
D03*
X126400Y-138700D02*
D03*
X120200Y-124900D02*
D03*
X94100Y-123800D02*
D03*
X89700Y-129000D02*
D03*
X98500Y-131300D02*
D03*
X124700Y-131700D02*
D03*
X122500Y-148800D02*
D03*
X133500Y-149000D02*
D03*
X148500D02*
D03*
X167300Y-159100D02*
D03*
X159900Y-160900D02*
D03*
X213300Y-158000D02*
D03*
X164400Y-176200D02*
D03*
X203800Y-182100D02*
D03*
X225200Y-171100D02*
D03*
X225000Y-179000D02*
D03*
X227400Y-186100D02*
D03*
X225100Y-191100D02*
D03*
X257000Y-176600D02*
D03*
X281700Y-177300D02*
D03*
X305000Y-173300D02*
D03*
X306300Y-158600D02*
D03*
X323400Y-152200D02*
D03*
X325300Y-171900D02*
D03*
X317200Y-184100D02*
D03*
X294500Y-190400D02*
D03*
X261300Y-195800D02*
D03*
X268700Y-186700D02*
D03*
X283300Y-170900D02*
D03*
X299000Y-175400D02*
D03*
X303600Y-187300D02*
D03*
X319400Y-195600D02*
D03*
X331800Y-187500D02*
D03*
X279800Y-154500D02*
D03*
X276600Y-132500D02*
D03*
X262800Y-132100D02*
D03*
X262400Y-147900D02*
D03*
X258600Y-157200D02*
D03*
X292400Y-136800D02*
D03*
X315200Y-136000D02*
D03*
X329000D02*
D03*
X339600Y-132000D02*
D03*
X355100Y-133200D02*
D03*
X341200Y-147600D02*
D03*
X340000Y-157500D02*
D03*
X353500Y-148400D02*
D03*
X365600Y-107600D02*
D03*
X367100Y-125300D02*
D03*
X376000Y-132600D02*
D03*
X372800Y-150800D02*
D03*
X364400Y-155300D02*
D03*
X368500Y-138400D02*
D03*
X382900Y-116300D02*
D03*
X383500Y-104900D02*
D03*
X299400Y-120300D02*
D03*
X313300Y-120200D02*
D03*
X327800Y-117600D02*
D03*
X341200Y-107400D02*
D03*
X324500Y-102300D02*
D03*
X312500Y-104100D02*
D03*
X275200Y-110600D02*
D03*
X263900Y-83800D02*
D03*
X269800Y-83500D02*
D03*
X265300Y-65900D02*
D03*
X315100Y-74500D02*
D03*
X312100Y-81300D02*
D03*
X331500Y-83100D02*
D03*
X332400Y-75200D02*
D03*
X352200Y-79300D02*
D03*
X364700Y-77800D02*
D03*
X375900Y-76900D02*
D03*
X382000D02*
D03*
X387100Y-68000D02*
D03*
X385700Y-54500D02*
D03*
X383500Y-43200D02*
D03*
X375100Y-37300D02*
D03*
X381200Y-26800D02*
D03*
X342900Y-31600D02*
D03*
X323000Y-33400D02*
D03*
X260100Y-32100D02*
D03*
X266500Y-32000D02*
D03*
X275600Y-32400D02*
D03*
X284000D02*
D03*
X277400Y-49900D02*
D03*
X281500Y-56200D02*
D03*
X291300Y-57900D02*
D03*
X232000Y-46503D02*
D03*
X201400Y-46700D02*
D03*
X167000Y-46800D02*
D03*
X137000Y-25700D02*
D03*
X128200Y-31800D02*
D03*
X130400Y-37300D02*
D03*
X134400Y-31900D02*
D03*
X150900Y-52900D02*
D03*
X160000Y-64600D02*
D03*
X180300Y-64000D02*
D03*
X192900Y-63200D02*
D03*
X111700Y-54100D02*
D03*
X116500Y-63900D02*
D03*
X125200Y-65800D02*
D03*
X123900Y-53100D02*
D03*
X70100Y-33500D02*
D03*
X60100Y-46200D02*
D03*
X88700Y-54800D02*
D03*
X95800Y-62400D02*
D03*
X71900Y-56600D02*
D03*
X81500Y-35400D02*
D03*
X78900Y-18900D02*
D03*
X78300Y-26700D02*
D03*
X94600Y-32700D02*
D03*
X14700Y-31200D02*
D03*
X17000Y-41100D02*
D03*
X9800Y-22300D02*
D03*
X14200Y-9000D02*
D03*
X20300Y-11500D02*
D03*
X23800Y-25700D02*
D03*
X37800Y-93800D02*
D03*
Y-107300D02*
D03*
X44400Y-111500D02*
D03*
X56800Y-113800D02*
D03*
D75*
X343400Y-330200D02*
D03*
Y-317300D02*
D03*
X50203Y-132103D02*
D03*
X331300Y-317200D02*
D03*
X341000Y-301500D02*
D03*
X141500Y-250100D02*
D03*
Y-254700D02*
D03*
X141600Y-259300D02*
D03*
X147600Y-250400D02*
D03*
X147400Y-254900D02*
D03*
Y-259300D02*
D03*
X171000Y-246700D02*
D03*
X182700Y-255200D02*
D03*
X182200Y-249800D02*
D03*
X176500Y-249700D02*
D03*
D76*
X266877Y-251700D02*
D03*
X32977Y-172100D02*
D03*
X123077Y-351700D02*
D03*
X185577D02*
D03*
X206777D02*
D03*
X244177Y-344500D02*
D03*
X237646Y-351131D02*
D03*
X216477Y-351700D02*
D03*
X225977D02*
D03*
X174477D02*
D03*
X144177D02*
D03*
X98577D02*
D03*
X256500Y-4700D02*
D03*
Y-43200D02*
D03*
X305700Y-58000D02*
D03*
X58600Y-40900D02*
D03*
X119100D02*
D03*
Y-58000D02*
D03*
X182102Y-57998D02*
D03*
X227600Y-63500D02*
D03*
X234800Y-39574D02*
D03*
X172500Y-58000D02*
D03*
D03*
X234800Y-39574D02*
D03*
X182102Y-57998D02*
D03*
X38800Y-40900D02*
D03*
X305700Y-58000D02*
D03*
X256500Y-43200D02*
D03*
Y-4700D02*
D03*
X110977Y-351700D02*
D03*
X133077D02*
D03*
X154877D02*
D03*
X196777D02*
D03*
X254177Y-289300D02*
D03*
X260327D02*
D03*
X267200Y-289500D02*
D03*
X267577Y-297100D02*
D03*
X260477D02*
D03*
X254177D02*
D03*
X260877Y-304900D02*
D03*
X267577D02*
D03*
X164277Y-351700D02*
D03*
X32977Y-172100D02*
D03*
X266850Y-212041D02*
D03*
Y-220283D02*
D03*
X266477Y-261900D02*
D03*
D77*
X175300Y-172500D02*
D03*
X197938D02*
D03*
X175300Y-162500D02*
D03*
Y-167500D02*
D03*
X197938Y-162500D02*
D03*
Y-177500D02*
D03*
Y-167500D02*
D03*
D78*
X175300Y-177500D02*
D03*
D79*
X296367Y-240390D02*
D03*
X294398D02*
D03*
X292430D02*
D03*
X290461D02*
D03*
X288493D02*
D03*
X286524D02*
D03*
X284556D02*
D03*
X282587D02*
D03*
Y-226610D02*
D03*
X284556D02*
D03*
X286524D02*
D03*
X288493D02*
D03*
X290461D02*
D03*
X292430D02*
D03*
X294398D02*
D03*
X296367D02*
D03*
D80*
X280619Y-236453D02*
D03*
Y-230547D02*
D03*
X298336D02*
D03*
Y-236453D02*
D03*
D81*
X289477Y-233500D02*
D03*
D82*
X143400Y-254700D02*
D03*
D83*
X260300Y-296450D02*
D03*
D84*
X353977Y-263150D02*
D03*
D85*
X379977Y-291100D02*
D03*
D86*
X367327Y-198550D02*
D03*
M02*
