%FSLAX25Y25*%
%MOIN*%
G70*
G01*
G75*
G04 Layer_Color=16711935*
%ADD10R,0.03937X0.02362*%
%ADD11R,0.03347X0.02756*%
%ADD12O,0.06299X0.01181*%
%ADD13R,0.06299X0.01181*%
%ADD14O,0.01181X0.06299*%
%ADD15R,0.05118X0.03937*%
%ADD16R,0.10630X0.03937*%
%ADD17R,0.03937X0.05118*%
%ADD18R,0.03543X0.02126*%
%ADD19R,0.01969X0.06299*%
%ADD20R,0.14410X0.07874*%
%ADD21R,0.14410X0.09843*%
%ADD22R,0.09449X0.08268*%
%ADD23R,0.05000X0.06000*%
%ADD24R,0.02362X0.02362*%
%ADD25R,0.02362X0.02362*%
%ADD26R,0.02362X0.03937*%
%ADD27O,0.02362X0.06890*%
%ADD28R,0.11811X0.07480*%
%ADD29R,0.02756X0.03347*%
%ADD30R,0.10000X0.07500*%
%ADD31R,0.09843X0.15748*%
%ADD32R,0.08661X0.07087*%
%ADD33O,0.09843X0.05906*%
%ADD34O,0.03543X0.01969*%
%ADD35O,0.03543X0.01969*%
%ADD36R,0.03543X0.01969*%
%ADD37R,0.02559X0.05315*%
%ADD38R,0.20866X0.11024*%
%ADD39R,0.03937X0.10630*%
%ADD40R,0.21654X0.05630*%
%ADD41C,0.02000*%
%ADD42C,0.00800*%
%ADD43C,0.03000*%
%ADD44C,0.03500*%
%ADD45C,0.04000*%
%ADD46C,0.01000*%
%ADD47C,0.01500*%
%ADD48C,0.10000*%
%ADD49C,0.08000*%
%ADD50C,0.05000*%
%ADD51C,0.01200*%
%ADD52R,0.19200X0.07900*%
%ADD53R,0.58405X0.13100*%
%ADD54R,0.24300X1.56600*%
%ADD55R,0.50200X0.62200*%
%ADD56R,0.24100X0.17400*%
%ADD57R,0.25624X0.17093*%
%ADD58R,0.23600X0.17400*%
%ADD59R,0.05906X0.05906*%
%ADD60C,0.05906*%
%ADD61O,0.11811X0.09843*%
%ADD62R,0.11811X0.09843*%
%ADD63O,0.05906X0.09843*%
%ADD64R,0.05906X0.09843*%
%ADD65R,0.09843X0.11811*%
%ADD66O,0.09843X0.11811*%
%ADD67R,0.05906X0.05906*%
%ADD68C,0.06693*%
%ADD69C,0.05500*%
%ADD70O,0.07874X0.15748*%
%ADD71C,0.05512*%
%ADD72R,0.06000X0.10000*%
%ADD73O,0.06000X0.10000*%
%ADD74C,0.02000*%
%ADD75C,0.03000*%
%ADD76C,0.04000*%
%ADD77O,0.05500X0.02500*%
%ADD78R,0.05500X0.02500*%
%ADD79O,0.01181X0.02756*%
%ADD80O,0.02756X0.01181*%
%ADD81R,0.13386X0.07087*%
%ADD82R,0.15000X0.13000*%
%ADD83R,0.19400X0.21500*%
%ADD84R,0.18400X0.60700*%
%ADD85R,0.24600X1.31200*%
%ADD86R,0.50100X0.62100*%
%ADD87C,0.00500*%
%ADD88C,0.00394*%
%ADD89C,0.00984*%
%ADD90C,0.00787*%
%ADD91C,0.00591*%
%ADD92R,0.04724X0.02756*%
%ADD93R,0.01968X0.03543*%
%ADD94R,0.23900X1.20759*%
%ADD95R,0.14900X0.21400*%
%ADD96R,0.04737X0.03162*%
%ADD97R,0.04147X0.03556*%
%ADD98O,0.07099X0.01981*%
%ADD99R,0.07099X0.01981*%
%ADD100O,0.01981X0.07099*%
%ADD101R,0.05918X0.04737*%
%ADD102R,0.11430X0.04737*%
%ADD103R,0.04737X0.05918*%
%ADD104R,0.04343X0.02926*%
%ADD105R,0.02769X0.07099*%
%ADD106R,0.15210X0.08674*%
%ADD107R,0.15210X0.10642*%
%ADD108R,0.10249X0.09068*%
%ADD109R,0.05800X0.06800*%
%ADD110R,0.03162X0.03162*%
%ADD111R,0.03162X0.03162*%
%ADD112R,0.03162X0.04737*%
%ADD113O,0.03162X0.07690*%
%ADD114R,0.12611X0.08280*%
%ADD115R,0.03556X0.04147*%
%ADD116R,0.10800X0.08300*%
%ADD117R,0.10642X0.16548*%
%ADD118R,0.09461X0.07887*%
%ADD119O,0.10642X0.06706*%
%ADD120O,0.04343X0.02769*%
%ADD121O,0.04343X0.02769*%
%ADD122R,0.04343X0.02769*%
%ADD123R,0.03359X0.06115*%
%ADD124R,0.21666X0.11824*%
%ADD125R,0.04737X0.11430*%
%ADD126R,0.22453X0.06430*%
%ADD127R,0.06706X0.06706*%
%ADD128C,0.06706*%
%ADD129O,0.12611X0.10642*%
%ADD130R,0.12611X0.10642*%
%ADD131O,0.06706X0.10642*%
%ADD132R,0.06706X0.10642*%
%ADD133R,0.10642X0.12611*%
%ADD134O,0.10642X0.12611*%
%ADD135R,0.06706X0.06706*%
%ADD136C,0.07493*%
%ADD137C,0.06300*%
%ADD138O,0.08674X0.16548*%
%ADD139C,0.06312*%
%ADD140R,0.06800X0.10800*%
%ADD141O,0.06800X0.10800*%
%ADD142R,0.13323X0.25300*%
%ADD143R,0.24600X1.27600*%
%ADD144O,0.06300X0.03300*%
%ADD145R,0.06300X0.03300*%
%ADD146O,0.01981X0.03556*%
%ADD147O,0.03556X0.01981*%
%ADD148R,0.14186X0.07887*%
D46*
X0Y-33D02*
X393701D01*
X0Y-358301D02*
Y-33D01*
Y-358301D02*
X393701D01*
Y-33D01*
D97*
X273177Y-236400D02*
D03*
Y-230494D02*
D03*
X286477Y-217500D02*
D03*
Y-211595D02*
D03*
X301802Y-259794D02*
D03*
Y-265700D02*
D03*
X298777Y-211200D02*
D03*
Y-217106D02*
D03*
X304977Y-211000D02*
D03*
Y-216905D02*
D03*
X295965Y-259794D02*
D03*
Y-265700D02*
D03*
X292477Y-217206D02*
D03*
Y-211300D02*
D03*
X311177Y-216905D02*
D03*
Y-211000D02*
D03*
X273277Y-224505D02*
D03*
Y-218600D02*
D03*
X284277Y-253306D02*
D03*
Y-247400D02*
D03*
X271400Y-266005D02*
D03*
Y-260100D02*
D03*
X284290Y-265700D02*
D03*
Y-259794D02*
D03*
X290127Y-259794D02*
D03*
Y-265700D02*
D03*
X307640Y-259794D02*
D03*
Y-265700D02*
D03*
X313477Y-259794D02*
D03*
Y-265700D02*
D03*
X277500Y-265905D02*
D03*
Y-260000D02*
D03*
D101*
X243600Y-63600D02*
D03*
Y-71474D02*
D03*
X234600Y-63500D02*
D03*
Y-71374D02*
D03*
D103*
X309977Y-239900D02*
D03*
X317851D02*
D03*
D115*
X295877Y-253400D02*
D03*
X289972D02*
D03*
X295977Y-247400D02*
D03*
X290072D02*
D03*
X278400Y-271800D02*
D03*
X284306D02*
D03*
X295983Y-271400D02*
D03*
X290077D02*
D03*
X135294Y-165100D02*
D03*
X141200D02*
D03*
X141305Y-158800D02*
D03*
X135400D02*
D03*
X146994Y-165000D02*
D03*
X152900D02*
D03*
D117*
X175757Y-314900D02*
D03*
D118*
X161583Y-309979D02*
D03*
X161584Y-319821D02*
D03*
D119*
X137371Y-305845D02*
D03*
Y-323955D02*
D03*
D127*
X378100Y-64800D02*
D03*
X346100Y-89176D02*
D03*
D128*
X368100Y-64800D02*
D03*
X358100D02*
D03*
X348100D02*
D03*
X338100D02*
D03*
X328100D02*
D03*
X318100D02*
D03*
X308100D02*
D03*
X39900Y-56200D02*
D03*
Y-66200D02*
D03*
X162077Y-123400D02*
D03*
Y-113400D02*
D03*
X9100Y-69300D02*
D03*
Y-59300D02*
D03*
Y-49300D02*
D03*
X54277Y-309900D02*
D03*
X64120D02*
D03*
X71994D02*
D03*
X81836D02*
D03*
X376100Y-89176D02*
D03*
X366100D02*
D03*
X356100D02*
D03*
X170600Y-229700D02*
D03*
D129*
X354331Y-270742D02*
D03*
Y-255151D02*
D03*
Y-223970D02*
D03*
Y-239561D02*
D03*
Y-177198D02*
D03*
Y-192789D02*
D03*
Y-208380D02*
D03*
X63780Y-255151D02*
D03*
Y-270742D02*
D03*
Y-286333D02*
D03*
Y-223970D02*
D03*
Y-239561D02*
D03*
Y-208380D02*
D03*
Y-192789D02*
D03*
D130*
X354331Y-286333D02*
D03*
X63780Y-177198D02*
D03*
D131*
X102877Y-15000D02*
D03*
X122877D02*
D03*
X112877D02*
D03*
X43177D02*
D03*
X63177D02*
D03*
X53177D02*
D03*
X350377D02*
D03*
X360377D02*
D03*
X340377D02*
D03*
X290977D02*
D03*
X300977D02*
D03*
X280977D02*
D03*
X172177D02*
D03*
X182177D02*
D03*
X162177D02*
D03*
X192177D02*
D03*
X202177D02*
D03*
X242177D02*
D03*
X232177D02*
D03*
X222177D02*
D03*
X212177D02*
D03*
D132*
X92877D02*
D03*
X33177D02*
D03*
X330377D02*
D03*
X270977D02*
D03*
X152177D02*
D03*
D133*
X316287Y-332400D02*
D03*
X361109Y-332300D02*
D03*
D134*
X331877Y-332400D02*
D03*
X376700Y-332300D02*
D03*
D135*
X39900Y-76200D02*
D03*
X162077Y-103400D02*
D03*
X9100Y-79300D02*
D03*
D136*
X40977Y-205685D02*
D03*
Y-186000D02*
D03*
X26577Y-205885D02*
D03*
Y-186200D02*
D03*
X9377Y-205300D02*
D03*
Y-195300D02*
D03*
Y-185300D02*
D03*
D137*
X24177Y-290900D02*
D03*
X14177D02*
D03*
D138*
X42072Y-320924D02*
D03*
X94041D02*
D03*
D139*
X5877Y-248200D02*
D03*
X45877D02*
D03*
X7677Y-265900D02*
D03*
X37677D02*
D03*
X6677Y-131100D02*
D03*
Y-91100D02*
D03*
X17477Y-131700D02*
D03*
Y-91700D02*
D03*
X28377Y-131700D02*
D03*
Y-91700D02*
D03*
X89377Y-185600D02*
D03*
Y-225600D02*
D03*
X57500Y-164700D02*
D03*
X7500D02*
D03*
X79077Y-185700D02*
D03*
Y-225700D02*
D03*
X5577Y-230200D02*
D03*
X45577D02*
D03*
D140*
X24477Y-343400D02*
D03*
X21577Y-143800D02*
D03*
X279477Y-337900D02*
D03*
X130477Y-337950D02*
D03*
X180627D02*
D03*
X230777D02*
D03*
X24677Y-316900D02*
D03*
D141*
X14477Y-343400D02*
D03*
X11577Y-143800D02*
D03*
X289477Y-337900D02*
D03*
X140477Y-337950D02*
D03*
X190627D02*
D03*
X240777D02*
D03*
X14677Y-316900D02*
D03*
D142*
X357039Y-311650D02*
D03*
D143*
X380177Y-231700D02*
D03*
D144*
X175300Y-172500D02*
D03*
X197938D02*
D03*
X175300Y-162500D02*
D03*
Y-167500D02*
D03*
X197938Y-162500D02*
D03*
Y-177500D02*
D03*
Y-167500D02*
D03*
D145*
X175300Y-177500D02*
D03*
D146*
X296367Y-240390D02*
D03*
X294398D02*
D03*
X292430D02*
D03*
X290461D02*
D03*
X288493D02*
D03*
X286524D02*
D03*
X284556D02*
D03*
X282587D02*
D03*
Y-226610D02*
D03*
X284556D02*
D03*
X286524D02*
D03*
X288493D02*
D03*
X290461D02*
D03*
X292430D02*
D03*
X294398D02*
D03*
X296367D02*
D03*
D147*
X280619Y-236453D02*
D03*
Y-230547D02*
D03*
X298336D02*
D03*
Y-236453D02*
D03*
D148*
X289477Y-233500D02*
D03*
M02*
