%FSLAX25Y25*%
%MOIN*%
G70*
G01*
G75*
G04 Layer_Color=8388736*
%ADD10C,0.01200*%
%ADD11C,0.00800*%
%ADD12C,0.01500*%
%ADD13C,0.02000*%
%ADD14C,0.04000*%
%ADD15C,0.01000*%
%ADD16R,0.03347X0.02756*%
%ADD17R,0.02756X0.03347*%
%ADD18O,0.05500X0.02500*%
%ADD19R,0.05500X0.02500*%
%ADD20R,0.07874X0.07874*%
%ADD21R,0.07087X0.03937*%
%ADD22R,0.05118X0.03937*%
%ADD23R,0.07874X0.07874*%
%ADD24O,0.01969X0.03543*%
%ADD25O,0.01969X0.03543*%
%ADD26R,0.01969X0.03543*%
%ADD27O,0.04724X0.00984*%
%ADD28R,0.04724X0.01772*%
%ADD29O,0.04724X0.01772*%
%ADD30O,0.00984X0.04724*%
%ADD31O,0.01772X0.04724*%
%ADD32R,0.03937X0.02362*%
%ADD33R,0.04724X0.02362*%
%ADD34R,0.06299X0.07087*%
%ADD35R,0.03347X0.01575*%
%ADD36C,0.03000*%
%ADD37C,0.00500*%
%ADD38R,0.05906X0.05906*%
%ADD39C,0.05906*%
%ADD40R,0.05906X0.05906*%
%ADD41R,0.19685X0.23622*%
%ADD42C,0.02000*%
%ADD43C,0.03000*%
%ADD44C,0.00787*%
%ADD45R,0.04147X0.03556*%
%ADD46R,0.03556X0.04147*%
%ADD47O,0.06300X0.03300*%
%ADD48R,0.06300X0.03300*%
%ADD49R,0.08674X0.08674*%
%ADD50R,0.07887X0.04737*%
%ADD51R,0.05918X0.04737*%
%ADD52R,0.08674X0.08674*%
%ADD53O,0.02769X0.04343*%
%ADD54O,0.02769X0.04343*%
%ADD55R,0.02769X0.04343*%
%ADD56O,0.05524X0.01784*%
%ADD57R,0.05524X0.02572*%
%ADD58O,0.05524X0.02572*%
%ADD59O,0.01784X0.05524*%
%ADD60O,0.02572X0.05524*%
%ADD61R,0.04737X0.03162*%
%ADD62R,0.05524X0.03162*%
%ADD63R,0.07099X0.07887*%
%ADD64R,0.03740X0.01969*%
%ADD65R,0.06706X0.06706*%
%ADD66C,0.06706*%
%ADD67R,0.06706X0.06706*%
%ADD68R,0.20485X0.24422*%
D37*
X251306Y-267900D02*
X255243Y-263963D01*
Y-43490D01*
X251306Y-39553D02*
X255243Y-43490D01*
X101700Y-39553D02*
X133800D01*
X133196D02*
X184000D01*
X182409D02*
X233600D01*
X231621D02*
X251306D01*
X97763Y-43490D02*
X101700Y-39553D01*
X97763Y-263963D02*
Y-43490D01*
Y-263963D02*
X101700Y-267900D01*
X251306D01*
X101700D02*
X251306D01*
X97763Y-263963D02*
X101700Y-267900D01*
X97763Y-263963D02*
Y-43490D01*
X101700Y-39553D01*
X231621D02*
X251306D01*
X182409D02*
X233600D01*
X133196D02*
X184000D01*
X101700D02*
X133800D01*
X251306D02*
X255243Y-43490D01*
Y-263963D02*
Y-43490D01*
X251306Y-267900D02*
X255243Y-263963D01*
D45*
X162800Y-89300D02*
D03*
Y-83394D02*
D03*
X178523Y-207300D02*
D03*
Y-201395D02*
D03*
X160500Y-199300D02*
D03*
Y-205205D02*
D03*
X149300Y-192300D02*
D03*
Y-198205D02*
D03*
X117000Y-211194D02*
D03*
Y-217100D02*
D03*
X110700Y-211395D02*
D03*
Y-217300D02*
D03*
X187000Y-205400D02*
D03*
Y-199495D02*
D03*
X235900Y-218900D02*
D03*
Y-212995D02*
D03*
X242400Y-213100D02*
D03*
Y-219005D02*
D03*
X138600Y-83495D02*
D03*
Y-89400D02*
D03*
X190500Y-91300D02*
D03*
Y-85395D02*
D03*
X144800Y-59395D02*
D03*
Y-65300D02*
D03*
X188000Y-134806D02*
D03*
Y-128900D02*
D03*
X158600Y-65105D02*
D03*
Y-59200D02*
D03*
X182100Y-128894D02*
D03*
Y-134800D02*
D03*
X212600Y-129095D02*
D03*
Y-135000D02*
D03*
X113800Y-101706D02*
D03*
Y-95800D02*
D03*
X133700Y-101406D02*
D03*
Y-95500D02*
D03*
X127300Y-95894D02*
D03*
Y-101800D02*
D03*
X120600Y-95995D02*
D03*
Y-101900D02*
D03*
X218500Y-141894D02*
D03*
Y-147800D02*
D03*
Y-129095D02*
D03*
Y-135000D02*
D03*
X193900Y-128894D02*
D03*
Y-134800D02*
D03*
X144700Y-83495D02*
D03*
Y-89400D02*
D03*
X150900Y-83394D02*
D03*
Y-89300D02*
D03*
X156800Y-83495D02*
D03*
Y-89400D02*
D03*
D46*
X137800Y-153400D02*
D03*
X143705D02*
D03*
X137900Y-146400D02*
D03*
X143806D02*
D03*
X230726Y-169100D02*
D03*
X236631D02*
D03*
X139305Y-198500D02*
D03*
X133400D02*
D03*
X139406Y-192100D02*
D03*
X133500D02*
D03*
X171895Y-248500D02*
D03*
X177800D02*
D03*
X221700Y-202700D02*
D03*
X227606D02*
D03*
X227700Y-196700D02*
D03*
X221795D02*
D03*
X158600Y-72200D02*
D03*
X152694D02*
D03*
X209300Y-74300D02*
D03*
X203395D02*
D03*
X120800Y-113600D02*
D03*
X126706D02*
D03*
X127000Y-107600D02*
D03*
X132905D02*
D03*
X162195Y-136100D02*
D03*
X168100D02*
D03*
X201294Y-168100D02*
D03*
X207200D02*
D03*
X207300Y-162200D02*
D03*
X201395D02*
D03*
X136600Y-173500D02*
D03*
X142506D02*
D03*
X207500Y-156200D02*
D03*
X201594D02*
D03*
X207200Y-174100D02*
D03*
X201294D02*
D03*
X197794Y-104500D02*
D03*
X203700D02*
D03*
X200395Y-146900D02*
D03*
X206300D02*
D03*
X138795Y-77400D02*
D03*
X144700D02*
D03*
X114894Y-107600D02*
D03*
X120800D02*
D03*
X238305Y-135800D02*
D03*
X232400D02*
D03*
X179905Y-77300D02*
D03*
X174000D02*
D03*
X182095Y-104700D02*
D03*
X188000D02*
D03*
X203395Y-84700D02*
D03*
X209300D02*
D03*
X197895Y-98400D02*
D03*
X203800D02*
D03*
X182095Y-117100D02*
D03*
X188000D02*
D03*
X126406Y-89500D02*
D03*
X120500D02*
D03*
X182095Y-110900D02*
D03*
X188000D02*
D03*
X182095Y-123000D02*
D03*
X188000D02*
D03*
X200294Y-140500D02*
D03*
X206200D02*
D03*
D47*
X126900Y-212400D02*
D03*
X149538D02*
D03*
X126900Y-222400D02*
D03*
Y-217400D02*
D03*
X149538Y-222400D02*
D03*
Y-207400D02*
D03*
Y-217400D02*
D03*
D48*
X126900Y-207400D02*
D03*
D49*
X142300Y-248500D02*
D03*
X158048D02*
D03*
X204800D02*
D03*
X189052D02*
D03*
D50*
X169600Y-225305D02*
D03*
Y-238100D02*
D03*
X180500Y-225105D02*
D03*
Y-237900D02*
D03*
D51*
X169500Y-199226D02*
D03*
Y-207100D02*
D03*
X232200Y-242500D02*
D03*
Y-234626D02*
D03*
X219400Y-178074D02*
D03*
Y-170200D02*
D03*
D52*
X219900Y-258000D02*
D03*
Y-242252D02*
D03*
D53*
X229180Y-220800D02*
D03*
X225440D02*
D03*
X229180Y-208989D02*
D03*
D54*
X221700D02*
D03*
D55*
Y-220800D02*
D03*
D56*
X188900Y-157320D02*
D03*
X153467Y-169132D02*
D03*
X153467Y-159289D02*
D03*
Y-165194D02*
D03*
Y-167163D02*
D03*
Y-163226D02*
D03*
Y-153383D02*
D03*
X188900Y-167163D02*
D03*
Y-161258D02*
D03*
X153467Y-171100D02*
D03*
X188900D02*
D03*
X153467Y-155352D02*
D03*
Y-157320D02*
D03*
Y-161258D02*
D03*
X188900Y-169132D02*
D03*
Y-163226D02*
D03*
Y-153383D02*
D03*
Y-159289D02*
D03*
Y-165194D02*
D03*
Y-155352D02*
D03*
D57*
Y-173462D02*
D03*
D58*
X153467D02*
D03*
Y-151021D02*
D03*
X188900D02*
D03*
D59*
X162325Y-144525D02*
D03*
X180042D02*
D03*
Y-179958D02*
D03*
X178073D02*
D03*
X176105D02*
D03*
X174136D02*
D03*
X172168D02*
D03*
X168231D02*
D03*
X166262D02*
D03*
X164294D02*
D03*
X166262Y-144525D02*
D03*
X178073D02*
D03*
X162325Y-179958D02*
D03*
X170199D02*
D03*
X164294Y-144525D02*
D03*
X172168D02*
D03*
X170199D02*
D03*
X174136D02*
D03*
X168231D02*
D03*
X176105D02*
D03*
D60*
X159963D02*
D03*
X182404Y-179958D02*
D03*
X159963D02*
D03*
X182404Y-144525D02*
D03*
D61*
X230700Y-183274D02*
D03*
X240543Y-179337D02*
D03*
X230700Y-175400D02*
D03*
D62*
X181836Y-83700D02*
D03*
Y-87440D02*
D03*
Y-91180D02*
D03*
X171600D02*
D03*
Y-87440D02*
D03*
Y-83700D02*
D03*
D63*
X221027Y-106100D02*
D03*
Y-84840D02*
D03*
X235200Y-106100D02*
D03*
Y-84840D02*
D03*
D64*
X200260Y-129741D02*
D03*
Y-132300D02*
D03*
Y-134859D02*
D03*
X207740D02*
D03*
Y-129741D02*
D03*
D65*
X112900Y-124800D02*
D03*
X113300Y-177800D02*
D03*
X112600Y-259300D02*
D03*
D66*
X112900Y-134800D02*
D03*
X160000Y-262000D02*
D03*
X170000D02*
D03*
X180000D02*
D03*
X113300Y-147800D02*
D03*
Y-157800D02*
D03*
Y-167800D02*
D03*
X112600Y-249300D02*
D03*
Y-239300D02*
D03*
Y-229300D02*
D03*
D67*
X190000Y-262000D02*
D03*
D68*
X127300Y-59300D02*
D03*
X176500D02*
D03*
X225700D02*
D03*
M02*
