%FSLAX25Y25*%
%MOIN*%
G70*
G01*
G75*
G04 Layer_Physical_Order=2*
G04 Layer_Color=16711680*
%ADD10C,0.01200*%
%ADD11C,0.00800*%
%ADD12C,0.01500*%
%ADD13C,0.02000*%
%ADD14C,0.04000*%
%ADD15C,0.01000*%
%ADD16R,0.03347X0.02756*%
%ADD17R,0.02756X0.03347*%
%ADD18O,0.05500X0.02500*%
%ADD19R,0.05500X0.02500*%
%ADD20R,0.07874X0.07874*%
%ADD21R,0.07087X0.03937*%
%ADD22R,0.05118X0.03937*%
%ADD23R,0.07874X0.07874*%
%ADD24O,0.01969X0.03543*%
%ADD25O,0.01969X0.03543*%
%ADD26R,0.01969X0.03543*%
%ADD27O,0.04724X0.00984*%
%ADD28R,0.04724X0.01772*%
%ADD29O,0.04724X0.01772*%
%ADD30O,0.00984X0.04724*%
%ADD31O,0.01772X0.04724*%
%ADD32R,0.03937X0.02362*%
%ADD33R,0.04724X0.02362*%
%ADD34R,0.06299X0.07087*%
%ADD35R,0.03347X0.01575*%
%ADD36C,0.03000*%
%ADD37C,0.00500*%
%ADD38R,0.05906X0.05906*%
%ADD39C,0.05906*%
%ADD40R,0.05906X0.05906*%
%ADD41R,0.19685X0.23622*%
%ADD42C,0.02000*%
%ADD43C,0.03000*%
G36*
X213800Y-76900D02*
X253016D01*
Y-262961D01*
X250261Y-265716D01*
X194453D01*
Y-257547D01*
X193530D01*
Y-253300D01*
X193410Y-252386D01*
X193057Y-251535D01*
X192496Y-250804D01*
X187596Y-245904D01*
X186865Y-245343D01*
X186014Y-244990D01*
X185100Y-244870D01*
X139400D01*
X138486Y-244990D01*
X137635Y-245343D01*
X136904Y-245904D01*
X127038Y-255770D01*
X117053D01*
Y-254847D01*
X108147D01*
Y-263753D01*
X117053D01*
Y-262830D01*
X128500D01*
X129414Y-262710D01*
X130265Y-262357D01*
X130996Y-261796D01*
X140862Y-251930D01*
X183638D01*
X186470Y-254762D01*
Y-257547D01*
X185547D01*
Y-265716D01*
X183250D01*
X183089Y-265242D01*
X183176Y-265176D01*
X183889Y-264246D01*
X184338Y-263162D01*
X184491Y-262000D01*
X184338Y-260838D01*
X183889Y-259754D01*
X183176Y-258824D01*
X182246Y-258110D01*
X181162Y-257662D01*
X180000Y-257509D01*
X178838Y-257662D01*
X177754Y-258110D01*
X176824Y-258824D01*
X176110Y-259754D01*
X175662Y-260838D01*
X175509Y-262000D01*
X175662Y-263162D01*
X176110Y-264246D01*
X176824Y-265176D01*
X176911Y-265242D01*
X176750Y-265716D01*
X173250D01*
X173089Y-265242D01*
X173176Y-265176D01*
X173890Y-264246D01*
X174338Y-263162D01*
X174491Y-262000D01*
X174338Y-260838D01*
X173890Y-259754D01*
X173176Y-258824D01*
X172246Y-258110D01*
X171162Y-257662D01*
X170000Y-257509D01*
X168838Y-257662D01*
X167754Y-258110D01*
X166824Y-258824D01*
X166111Y-259754D01*
X165662Y-260838D01*
X165509Y-262000D01*
X165662Y-263162D01*
X166111Y-264246D01*
X166824Y-265176D01*
X166911Y-265242D01*
X166750Y-265716D01*
X163250D01*
X163089Y-265242D01*
X163176Y-265176D01*
X163890Y-264246D01*
X164338Y-263162D01*
X164359Y-263000D01*
X155640D01*
X155662Y-263162D01*
X156111Y-264246D01*
X156824Y-265176D01*
X156911Y-265242D01*
X156750Y-265716D01*
X102739D01*
X100084Y-263061D01*
Y-77105D01*
X140905D01*
X141811Y-76200D01*
X213100D01*
X213800Y-76900D01*
D02*
G37*
%LPC*%
G36*
X187000Y-176932D02*
X186217Y-177035D01*
X185487Y-177338D01*
X184860Y-177819D01*
X184379Y-178445D01*
X184077Y-179175D01*
X183974Y-179958D01*
Y-186800D01*
X184077Y-187583D01*
X184291Y-188099D01*
X184379Y-188313D01*
X184860Y-188940D01*
X189360Y-193440D01*
X189987Y-193921D01*
X190201Y-194009D01*
X190717Y-194223D01*
X191500Y-194326D01*
X221795D01*
X221797Y-194325D01*
X221800Y-194326D01*
X222583Y-194223D01*
X223313Y-193921D01*
X223940Y-193440D01*
X224420Y-192813D01*
X224723Y-192083D01*
X224826Y-191300D01*
X224723Y-190517D01*
X224420Y-189787D01*
X223940Y-189160D01*
X223313Y-188680D01*
X222583Y-188377D01*
X221800Y-188274D01*
X221797Y-188275D01*
X221795Y-188274D01*
X192753D01*
X190026Y-185547D01*
Y-179958D01*
X189923Y-179175D01*
X189620Y-178445D01*
X189140Y-177819D01*
X188513Y-177338D01*
X187783Y-177035D01*
X187000Y-176932D01*
D02*
G37*
G36*
X119900Y-198251D02*
X118924Y-198445D01*
X118299Y-198863D01*
X112301D01*
X111676Y-198445D01*
X110700Y-198251D01*
X109724Y-198445D01*
X108898Y-198998D01*
X108345Y-199825D01*
X108151Y-200800D01*
X108345Y-201776D01*
X108898Y-202602D01*
X109724Y-203155D01*
X110700Y-203349D01*
X111676Y-203155D01*
X112301Y-202737D01*
X118299D01*
X118924Y-203155D01*
X119900Y-203349D01*
X120876Y-203155D01*
X121702Y-202602D01*
X122255Y-201776D01*
X122449Y-200800D01*
X122255Y-199825D01*
X121702Y-198998D01*
X120876Y-198445D01*
X119900Y-198251D01*
D02*
G37*
G36*
X113600Y-224940D02*
Y-228300D01*
X116960D01*
X116938Y-228138D01*
X116490Y-227054D01*
X115776Y-226124D01*
X114846Y-225411D01*
X113762Y-224962D01*
X113600Y-224940D01*
D02*
G37*
G36*
X230600Y-162251D02*
X229625Y-162445D01*
X229305Y-162659D01*
X196200D01*
X196020Y-162695D01*
X195800Y-162651D01*
X194825Y-162845D01*
X193998Y-163398D01*
X193445Y-164225D01*
X193251Y-165200D01*
X193445Y-166175D01*
X193998Y-167002D01*
X194825Y-167555D01*
X195800Y-167749D01*
X196775Y-167555D01*
X197602Y-167002D01*
X197643Y-166941D01*
X229305D01*
X229625Y-167155D01*
X230600Y-167349D01*
X231575Y-167155D01*
X232402Y-166602D01*
X232955Y-165776D01*
X233149Y-164800D01*
X232955Y-163824D01*
X232402Y-162998D01*
X231575Y-162445D01*
X230600Y-162251D01*
D02*
G37*
G36*
X147800Y-170913D02*
X147750Y-170923D01*
X147700Y-170913D01*
X146724Y-171107D01*
X145898Y-171660D01*
X142306Y-175251D01*
X117753D01*
Y-173347D01*
X108847D01*
Y-182253D01*
X117753D01*
Y-180349D01*
X143362D01*
X144338Y-180155D01*
X145165Y-179602D01*
X145165Y-179602D01*
X145165Y-179602D01*
X149301Y-175466D01*
X149602Y-175265D01*
X150155Y-174438D01*
X150349Y-173462D01*
X150155Y-172487D01*
X149602Y-171660D01*
X148775Y-171107D01*
X147800Y-170913D01*
D02*
G37*
G36*
X139406Y-185151D02*
X138430Y-185345D01*
X137805Y-185763D01*
X130500D01*
X129759Y-185910D01*
X129130Y-186330D01*
X125530Y-189930D01*
X125110Y-190559D01*
X124963Y-191300D01*
Y-243298D01*
X120898Y-247363D01*
X116617D01*
X116490Y-247054D01*
X115776Y-246124D01*
X114846Y-245410D01*
X113762Y-244962D01*
X112600Y-244809D01*
X111438Y-244962D01*
X110354Y-245410D01*
X109424Y-246124D01*
X108711Y-247054D01*
X108262Y-248138D01*
X108109Y-249300D01*
X108262Y-250462D01*
X108711Y-251546D01*
X109424Y-252476D01*
X110354Y-253189D01*
X111438Y-253638D01*
X112600Y-253791D01*
X113762Y-253638D01*
X114846Y-253189D01*
X115776Y-252476D01*
X116490Y-251546D01*
X116617Y-251237D01*
X121700D01*
X122441Y-251090D01*
X123070Y-250670D01*
X128270Y-245470D01*
X128690Y-244841D01*
X128837Y-244100D01*
X128837Y-244100D01*
X128837Y-244100D01*
Y-244100D01*
Y-192102D01*
X131302Y-189637D01*
X137805D01*
X138430Y-190055D01*
X139406Y-190249D01*
X140381Y-190055D01*
X141208Y-189502D01*
X141761Y-188675D01*
X141955Y-187700D01*
X141761Y-186724D01*
X141208Y-185898D01*
X140381Y-185345D01*
X139406Y-185151D01*
D02*
G37*
G36*
X112600Y-234809D02*
X111438Y-234962D01*
X110354Y-235410D01*
X109424Y-236124D01*
X108711Y-237054D01*
X108262Y-238138D01*
X108109Y-239300D01*
X108262Y-240462D01*
X108711Y-241546D01*
X109424Y-242476D01*
X110354Y-243190D01*
X111438Y-243638D01*
X112600Y-243791D01*
X113762Y-243638D01*
X114846Y-243190D01*
X115776Y-242476D01*
X116490Y-241546D01*
X116938Y-240462D01*
X117091Y-239300D01*
X116938Y-238138D01*
X116490Y-237054D01*
X115776Y-236124D01*
X114846Y-235410D01*
X113762Y-234962D01*
X112600Y-234809D01*
D02*
G37*
G36*
X161000Y-257641D02*
Y-261000D01*
X164359D01*
X164338Y-260838D01*
X163890Y-259754D01*
X163176Y-258824D01*
X162246Y-258110D01*
X161162Y-257662D01*
X161000Y-257641D01*
D02*
G37*
G36*
X159000D02*
X158838Y-257662D01*
X157754Y-258110D01*
X156824Y-258824D01*
X156111Y-259754D01*
X155662Y-260838D01*
X155640Y-261000D01*
X159000D01*
Y-257641D01*
D02*
G37*
G36*
X111600Y-224940D02*
X111438Y-224962D01*
X110354Y-225411D01*
X109424Y-226124D01*
X108711Y-227054D01*
X108262Y-228138D01*
X108240Y-228300D01*
X111600D01*
Y-224940D01*
D02*
G37*
G36*
X116960Y-230300D02*
X113600D01*
Y-233660D01*
X113762Y-233638D01*
X114846Y-233190D01*
X115776Y-232476D01*
X116490Y-231546D01*
X116938Y-230462D01*
X116960Y-230300D01*
D02*
G37*
G36*
X111600D02*
X108240D01*
X108262Y-230462D01*
X108711Y-231546D01*
X109424Y-232476D01*
X110354Y-233190D01*
X111438Y-233638D01*
X111600Y-233660D01*
Y-230300D01*
D02*
G37*
G36*
X111900Y-120347D02*
X108447D01*
Y-123800D01*
X111900D01*
Y-120347D01*
D02*
G37*
G36*
X215100Y-82151D02*
X214124Y-82345D01*
X213298Y-82898D01*
X212745Y-83724D01*
X212551Y-84700D01*
X212745Y-85676D01*
X213298Y-86502D01*
X214124Y-87055D01*
X214502Y-87130D01*
X217059Y-89687D01*
Y-123556D01*
X216698Y-123798D01*
X216145Y-124625D01*
X215951Y-125600D01*
X216145Y-126576D01*
X216698Y-127402D01*
X217525Y-127955D01*
X218500Y-128149D01*
X219476Y-127955D01*
X220302Y-127402D01*
X220855Y-126576D01*
X220960Y-126045D01*
X221178Y-125719D01*
X221341Y-124900D01*
Y-88800D01*
X221178Y-87981D01*
X220714Y-87286D01*
X217530Y-84102D01*
X217455Y-83724D01*
X216902Y-82898D01*
X216075Y-82345D01*
X215100Y-82151D01*
D02*
G37*
G36*
X117353Y-125800D02*
X113900D01*
Y-129253D01*
X117353D01*
Y-125800D01*
D02*
G37*
G36*
X183400Y-85751D02*
X166683D01*
X165708Y-85945D01*
X164881Y-86498D01*
X162044Y-89334D01*
X114439D01*
X112802Y-87698D01*
X111976Y-87145D01*
X111000Y-86951D01*
X110024Y-87145D01*
X109198Y-87698D01*
X108645Y-88525D01*
X108451Y-89500D01*
X108645Y-90475D01*
X109198Y-91302D01*
X111581Y-93686D01*
X112408Y-94238D01*
X113383Y-94432D01*
X163100D01*
X164076Y-94238D01*
X164902Y-93686D01*
X164902Y-93686D01*
X164902Y-93686D01*
X167739Y-90849D01*
X182344D01*
X184398Y-92902D01*
X184398D01*
X184398Y-92902D01*
X184398Y-92902D01*
Y-92902D01*
X185224Y-93455D01*
X186200Y-93649D01*
X206844D01*
X210351Y-97156D01*
Y-106800D01*
X210351Y-106800D01*
X210351D01*
X210545Y-107775D01*
X211098Y-108602D01*
X211925Y-109155D01*
X212900Y-109349D01*
X213876Y-109155D01*
X214702Y-108602D01*
X215255Y-107775D01*
X215449Y-106800D01*
Y-96100D01*
X215255Y-95125D01*
X214702Y-94298D01*
X209702Y-89298D01*
X208875Y-88745D01*
X207900Y-88551D01*
X187256D01*
X185202Y-86498D01*
X184376Y-85945D01*
X183400Y-85751D01*
D02*
G37*
G36*
X166300Y-109051D02*
X165324Y-109245D01*
X164498Y-109798D01*
X163945Y-110625D01*
X163751Y-111600D01*
X163945Y-112575D01*
X164498Y-113402D01*
X165324Y-113955D01*
X165432Y-113976D01*
X167131Y-115676D01*
X167082Y-116173D01*
X166298Y-116698D01*
X165745Y-117525D01*
X165554Y-118486D01*
X165075Y-118631D01*
X163376Y-116932D01*
X163355Y-116824D01*
X162802Y-115998D01*
X161976Y-115445D01*
X161000Y-115251D01*
X160024Y-115445D01*
X159198Y-115998D01*
X158645Y-116824D01*
X158451Y-117800D01*
X158645Y-118775D01*
X159198Y-119602D01*
X160024Y-120155D01*
X160132Y-120176D01*
X184101Y-144146D01*
X184026Y-144525D01*
X184170Y-145249D01*
X183729Y-145484D01*
X155076Y-116832D01*
X155055Y-116725D01*
X154502Y-115898D01*
X153675Y-115345D01*
X152700Y-115151D01*
X151725Y-115345D01*
X150898Y-115898D01*
X150345Y-116725D01*
X150151Y-117700D01*
X150345Y-118675D01*
X150898Y-119502D01*
X151725Y-120055D01*
X151832Y-120076D01*
X180627Y-148871D01*
Y-149955D01*
X180566Y-150046D01*
X180372Y-151021D01*
X180566Y-151997D01*
X181119Y-152824D01*
X181946Y-153376D01*
X182921Y-153570D01*
X183897Y-153376D01*
X184724Y-152824D01*
X185276Y-151997D01*
X185470Y-151021D01*
X185276Y-150046D01*
X185215Y-149955D01*
Y-147921D01*
X185045Y-147065D01*
X185461Y-146788D01*
X185599Y-146880D01*
X186575Y-147074D01*
X186806Y-147264D01*
Y-151500D01*
X186980Y-152378D01*
X187478Y-153122D01*
X187478Y-153122D01*
X187478Y-153122D01*
X189678Y-155322D01*
X189678D01*
X189678Y-155322D01*
X189678Y-155322D01*
Y-155322D01*
X190422Y-155819D01*
X191300Y-155994D01*
X194533D01*
X194624Y-156055D01*
X195600Y-156249D01*
X196575Y-156055D01*
X197402Y-155502D01*
X197955Y-154675D01*
X198149Y-153700D01*
X197955Y-152725D01*
X197402Y-151898D01*
X197132Y-151717D01*
X197122Y-151622D01*
X197619Y-150878D01*
X197794Y-150000D01*
Y-143300D01*
Y-140800D01*
X197619Y-139922D01*
X197122Y-139178D01*
X168676Y-110732D01*
X168655Y-110625D01*
X168102Y-109798D01*
X167276Y-109245D01*
X166300Y-109051D01*
D02*
G37*
G36*
X117353Y-120347D02*
X113900D01*
Y-123800D01*
X117353D01*
Y-120347D01*
D02*
G37*
G36*
X111900Y-125800D02*
X108447D01*
Y-129253D01*
X111900D01*
Y-125800D01*
D02*
G37*
G36*
X112300Y-153440D02*
X112138Y-153462D01*
X111054Y-153911D01*
X110124Y-154624D01*
X109411Y-155554D01*
X108962Y-156638D01*
X108940Y-156800D01*
X112300D01*
Y-153440D01*
D02*
G37*
G36*
X117659Y-158800D02*
X114300D01*
Y-162160D01*
X114462Y-162138D01*
X115546Y-161689D01*
X116476Y-160976D01*
X117190Y-160046D01*
X117638Y-158962D01*
X117659Y-158800D01*
D02*
G37*
G36*
X112300D02*
X108940D01*
X108962Y-158962D01*
X109411Y-160046D01*
X110124Y-160976D01*
X111054Y-161689D01*
X112138Y-162138D01*
X112300Y-162160D01*
Y-158800D01*
D02*
G37*
G36*
X191600Y-110951D02*
X190624Y-111145D01*
X189798Y-111698D01*
X189245Y-112524D01*
X189051Y-113500D01*
X189245Y-114476D01*
X189798Y-115302D01*
X190624Y-115855D01*
X191002Y-115930D01*
X195359Y-120287D01*
Y-128405D01*
X195145Y-128725D01*
X194951Y-129700D01*
X195145Y-130675D01*
X195698Y-131502D01*
X196525Y-132055D01*
X197500Y-132249D01*
X198476Y-132055D01*
X199302Y-131502D01*
X199855Y-130675D01*
X200049Y-129700D01*
X199855Y-128725D01*
X199641Y-128405D01*
Y-119400D01*
X199478Y-118581D01*
X199014Y-117886D01*
X194030Y-112902D01*
X193955Y-112524D01*
X193402Y-111698D01*
X192576Y-111145D01*
X191600Y-110951D01*
D02*
G37*
G36*
X112900Y-130309D02*
X111738Y-130462D01*
X110654Y-130911D01*
X109724Y-131624D01*
X109011Y-132554D01*
X108562Y-133638D01*
X108409Y-134800D01*
X108562Y-135962D01*
X109011Y-137046D01*
X109724Y-137976D01*
X110654Y-138689D01*
X111738Y-139138D01*
X112900Y-139291D01*
X114062Y-139138D01*
X115146Y-138689D01*
X116076Y-137976D01*
X116752Y-137094D01*
X124250D01*
X127578Y-140422D01*
X127578D01*
X127578Y-140422D01*
X127578Y-140422D01*
Y-140422D01*
X128322Y-140919D01*
X129200Y-141094D01*
X139650D01*
X143956Y-145401D01*
X143765Y-145863D01*
X117317D01*
X117190Y-145554D01*
X116476Y-144624D01*
X115546Y-143911D01*
X114462Y-143462D01*
X113300Y-143309D01*
X112138Y-143462D01*
X111054Y-143911D01*
X110124Y-144624D01*
X109411Y-145554D01*
X108962Y-146638D01*
X108809Y-147800D01*
X108962Y-148962D01*
X109411Y-150046D01*
X110124Y-150976D01*
X111054Y-151690D01*
X112138Y-152138D01*
X113300Y-152291D01*
X114462Y-152138D01*
X115546Y-151690D01*
X116476Y-150976D01*
X117190Y-150046D01*
X117317Y-149737D01*
X143798D01*
X144263Y-150202D01*
Y-163599D01*
X143845Y-164225D01*
X143651Y-165200D01*
X143706Y-165476D01*
X143389Y-165863D01*
X117317D01*
X117190Y-165554D01*
X116476Y-164624D01*
X115546Y-163910D01*
X114462Y-163462D01*
X113300Y-163309D01*
X112138Y-163462D01*
X111054Y-163910D01*
X110124Y-164624D01*
X109411Y-165554D01*
X108962Y-166638D01*
X108809Y-167800D01*
X108962Y-168962D01*
X109411Y-170046D01*
X110124Y-170976D01*
X111054Y-171689D01*
X112138Y-172138D01*
X113300Y-172291D01*
X114462Y-172138D01*
X115546Y-171689D01*
X116476Y-170976D01*
X117190Y-170046D01*
X117317Y-169737D01*
X153398D01*
X158163Y-174502D01*
Y-181899D01*
X157745Y-182525D01*
X157551Y-183500D01*
X157745Y-184476D01*
X158298Y-185302D01*
X159125Y-185855D01*
X160100Y-186049D01*
X161075Y-185855D01*
X161902Y-185302D01*
X162455Y-184476D01*
X162649Y-183500D01*
X162455Y-182525D01*
X162037Y-181899D01*
Y-173700D01*
X161890Y-172959D01*
X161470Y-172330D01*
X155570Y-166430D01*
X154941Y-166010D01*
X154200Y-165863D01*
X149011D01*
X148694Y-165476D01*
X148749Y-165200D01*
X148555Y-164225D01*
X148137Y-163599D01*
Y-158751D01*
X148524Y-158434D01*
X149100Y-158549D01*
X150075Y-158355D01*
X150902Y-157802D01*
X151455Y-156975D01*
X151649Y-156000D01*
X151455Y-155025D01*
X151394Y-154933D01*
Y-147300D01*
X151219Y-146422D01*
X150722Y-145678D01*
X142222Y-137178D01*
X141478Y-136680D01*
X140600Y-136506D01*
X130150D01*
X126822Y-133178D01*
X126078Y-132680D01*
X125200Y-132506D01*
X116752D01*
X116076Y-131624D01*
X115146Y-130911D01*
X114062Y-130462D01*
X112900Y-130309D01*
D02*
G37*
G36*
X114300Y-153440D02*
Y-156800D01*
X117659D01*
X117638Y-156638D01*
X117190Y-155554D01*
X116476Y-154624D01*
X115546Y-153911D01*
X114462Y-153462D01*
X114300Y-153440D01*
D02*
G37*
%LPD*%
D10*
X197731Y-164800D02*
G03*
X196083Y-165483I0J-2331D01*
G01*
X191600Y-113500D02*
X197500Y-119400D01*
Y-129700D02*
Y-119400D01*
X196200Y-164800D02*
X230600D01*
X195800Y-165200D02*
X196200Y-164800D01*
X215100Y-84700D02*
X219200Y-88800D01*
X218500Y-125600D02*
X219200Y-124900D01*
Y-88800D01*
D11*
X118451Y-200800D02*
G03*
X119476Y-200376I0J1448D01*
G01*
Y-201224D02*
G03*
X118451Y-200800I-1024J-1024D01*
G01*
X112148D02*
G03*
X111124Y-201224I0J-1448D01*
G01*
Y-200376D02*
G03*
X112148Y-200800I1024J1024D01*
G01*
X137957Y-187700D02*
G03*
X138981Y-187276I0J1448D01*
G01*
Y-188124D02*
G03*
X137957Y-187700I-1024J-1024D01*
G01*
X160100Y-182052D02*
G03*
X160524Y-183076I1448J0D01*
G01*
X159676D02*
G03*
X160100Y-182052I-1024J1024D01*
G01*
X146200Y-163751D02*
G03*
X146624Y-164776I1448J0D01*
G01*
X145776D02*
G03*
X146200Y-163751I-1024J1024D01*
G01*
Y-165200D02*
Y-149400D01*
X144600Y-147800D02*
X146200Y-149400D01*
X113300Y-147800D02*
X144600D01*
X160100Y-183500D02*
Y-173700D01*
X154200Y-167800D02*
X160100Y-173700D01*
X113300Y-167800D02*
X154200D01*
X112600Y-249300D02*
X121700D01*
X126900Y-244100D01*
Y-191300D01*
X130500Y-187700D01*
X139406D01*
X110700Y-200800D02*
X119900D01*
D12*
X194270Y-150876D02*
G03*
X195500Y-147907I-2970J2970D01*
G01*
X194270Y-150876D02*
G03*
X195500Y-147907I-2970J2970D01*
G01*
X161000Y-117800D02*
X186575Y-143375D01*
Y-144525D02*
Y-143375D01*
X182921Y-151021D02*
Y-147921D01*
X152700Y-117700D02*
X182921Y-147921D01*
X189100Y-151500D02*
X191300Y-153700D01*
X189100Y-151500D02*
Y-139500D01*
X191300Y-153700D02*
X195600D01*
X168100Y-118500D02*
X189100Y-139500D01*
X166300Y-111600D02*
X195500Y-140800D01*
X149100Y-156000D02*
Y-147300D01*
X140600Y-138800D02*
X149100Y-147300D01*
X129200Y-138800D02*
X140600D01*
X125200Y-134800D02*
X129200Y-138800D01*
X112900Y-134800D02*
X125200D01*
X195500Y-149800D02*
Y-143300D01*
Y-140800D01*
Y-150000D02*
Y-143300D01*
X194447Y-151053D02*
X195500Y-150000D01*
D13*
X118014Y-177800D02*
G03*
X114681Y-179181I0J-4714D01*
G01*
Y-176419D02*
G03*
X118014Y-177800I3334J3334D01*
G01*
X111000Y-89500D02*
X113383Y-91883D01*
X143362Y-177800D02*
X147700Y-173462D01*
X113300Y-177800D02*
X143362D01*
X113383Y-91883D02*
X163100D01*
X166683Y-88300D01*
X183400D01*
X186200Y-91100D01*
X207900D01*
X212900Y-106800D02*
Y-96100D01*
X207900Y-91100D02*
X212900Y-96100D01*
D14*
X190000Y-262000D02*
Y-253300D01*
X185100Y-248400D02*
X190000Y-253300D01*
X139400Y-248400D02*
X185100D01*
X128500Y-259300D02*
X139400Y-248400D01*
X112600Y-259300D02*
X128500D01*
D36*
X187000Y-186800D02*
Y-179958D01*
Y-186800D02*
X191500Y-191300D01*
X221795D01*
D37*
X251306Y-267900D02*
X255243Y-263963D01*
Y-43490D01*
X251306Y-39553D02*
X255243Y-43490D01*
X101700Y-39553D02*
X133800D01*
X133196D02*
X184000D01*
X182409D02*
X233600D01*
X231621D02*
X251306D01*
X97763Y-43490D02*
X101700Y-39553D01*
X97763Y-263963D02*
Y-43490D01*
Y-263963D02*
X101700Y-267900D01*
X251306D01*
X101700D02*
X251306D01*
X97763Y-263963D02*
X101700Y-267900D01*
X97763Y-263963D02*
Y-43490D01*
X101700Y-39553D01*
X231621D02*
X251306D01*
X182409D02*
X233600D01*
X133196D02*
X184000D01*
X101700D02*
X133800D01*
X251306D02*
X255243Y-43490D01*
Y-263963D02*
Y-43490D01*
X251306Y-267900D02*
X255243Y-263963D01*
D38*
X112900Y-124800D02*
D03*
X113300Y-177800D02*
D03*
X112600Y-259300D02*
D03*
D39*
X112900Y-134800D02*
D03*
X160000Y-262000D02*
D03*
X170000D02*
D03*
X180000D02*
D03*
X113300Y-147800D02*
D03*
Y-157800D02*
D03*
Y-167800D02*
D03*
X112600Y-249300D02*
D03*
Y-239300D02*
D03*
Y-229300D02*
D03*
D40*
X190000Y-262000D02*
D03*
D41*
X127300Y-59300D02*
D03*
X176500D02*
D03*
X225700D02*
D03*
D42*
X111000Y-89500D02*
D03*
X186575Y-144525D02*
D03*
X182921Y-151021D02*
D03*
X195600Y-153700D02*
D03*
X193200Y-146200D02*
D03*
X194447Y-151053D02*
D03*
X152700Y-117700D02*
D03*
X161000Y-117800D02*
D03*
X168100Y-118500D02*
D03*
X166300Y-111600D02*
D03*
X119500Y-124300D02*
D03*
X149100Y-156000D02*
D03*
X155600Y-216000D02*
D03*
X151600Y-182500D02*
D03*
X142000Y-182400D02*
D03*
X132600Y-173000D02*
D03*
X181900Y-161500D02*
D03*
X160900Y-166700D02*
D03*
X230600Y-164800D02*
D03*
X147800Y-173462D02*
D03*
X146200Y-165200D02*
D03*
X160100Y-183500D02*
D03*
X139406Y-187700D02*
D03*
X110700Y-200800D02*
D03*
X119900D02*
D03*
X194200Y-205900D02*
D03*
X202900D02*
D03*
X211900Y-206100D02*
D03*
X183500Y-215600D02*
D03*
X193200D02*
D03*
X202300Y-215800D02*
D03*
X211500Y-211800D02*
D03*
X212400Y-219700D02*
D03*
X211900Y-225400D02*
D03*
X201200Y-232300D02*
D03*
X192900Y-235100D02*
D03*
X191700Y-226300D02*
D03*
X198600Y-222800D02*
D03*
X207400Y-231300D02*
D03*
X207700Y-236000D02*
D03*
X142700Y-236900D02*
D03*
X152000D02*
D03*
X160100Y-229400D02*
D03*
X134500Y-232900D02*
D03*
X134300Y-224900D02*
D03*
X135200Y-215500D02*
D03*
X138600Y-210200D02*
D03*
X137300Y-264100D02*
D03*
X146100Y-259300D02*
D03*
X236700Y-255100D02*
D03*
X232000Y-262000D02*
D03*
X243800Y-243500D02*
D03*
X240200Y-231400D02*
D03*
X242400Y-205100D02*
D03*
X232400Y-195500D02*
D03*
X173200Y-154300D02*
D03*
X172400Y-161200D02*
D03*
X161100Y-158000D02*
D03*
X179700Y-151200D02*
D03*
X199900Y-186000D02*
D03*
X180500Y-188200D02*
D03*
X207400Y-185600D02*
D03*
X194300Y-185900D02*
D03*
X126600Y-153100D02*
D03*
X130600Y-155701D02*
D03*
X148200Y-141500D02*
D03*
X112200Y-114400D02*
D03*
X120400Y-129100D02*
D03*
X128500Y-132800D02*
D03*
X137400Y-135300D02*
D03*
X149400Y-134400D02*
D03*
X136200Y-125500D02*
D03*
X131300Y-118700D02*
D03*
X139200Y-115500D02*
D03*
X143700Y-116200D02*
D03*
X148200Y-98500D02*
D03*
X110200Y-78800D02*
D03*
X118600Y-79200D02*
D03*
X242800Y-95600D02*
D03*
X244600Y-105500D02*
D03*
X241600Y-158300D02*
D03*
X243800Y-166300D02*
D03*
X244000Y-194300D02*
D03*
X250900Y-174000D02*
D03*
X191600Y-113500D02*
D03*
X197500Y-129700D02*
D03*
X186200Y-91100D02*
D03*
X195800Y-165200D02*
D03*
X207800Y-132100D02*
D03*
X209700Y-141800D02*
D03*
X213300Y-160600D02*
D03*
X220800Y-157000D02*
D03*
X225600Y-147600D02*
D03*
X212700Y-151400D02*
D03*
X212900Y-106800D02*
D03*
X215100Y-84700D02*
D03*
X218500Y-125600D02*
D03*
X152694Y-78294D02*
D03*
D43*
X187000Y-179958D02*
D03*
X221800Y-191300D02*
D03*
M02*
