G04*
G04 #@! TF.GenerationSoftware,Altium Limited,Altium Designer,23.10.1 (27)*
G04*
G04 Layer_Color=8388736*
%FSLAX44Y44*%
%MOMM*%
G71*
G04*
G04 #@! TF.SameCoordinates,DDDD84AE-B6A4-46D7-9BE3-1AC597AA5375*
G04*
G04*
G04 #@! TF.FilePolarity,Negative*
G04*
G01*
G75*
%ADD20R,2.9032X1.2032*%
%ADD21O,2.9032X1.2032*%
%ADD22R,1.5532X0.8532*%
%ADD23R,2.2032X1.7032*%
%ADD24R,3.7032X2.7032*%
%ADD25R,1.0532X0.9032*%
%ADD26R,0.9032X1.0532*%
%ADD27R,0.8032X1.2032*%
%ADD28C,1.8032*%
%ADD29R,1.8032X1.8032*%
%ADD30C,3.7032*%
D20*
X602000Y-240274D02*
D03*
X60000Y-285486D02*
D03*
D21*
X602000Y-285274D02*
D03*
X690000D02*
D03*
Y-240274D02*
D03*
X60000Y-240486D02*
D03*
X-28000D02*
D03*
Y-285486D02*
D03*
D22*
X187452Y-263020D02*
D03*
Y-287020D02*
D03*
X548498Y-267092D02*
D03*
Y-291092D02*
D03*
X117206Y-259466D02*
D03*
Y-235466D02*
D03*
D23*
X251000Y-237880D02*
D03*
Y-287880D02*
D03*
X411000Y-237880D02*
D03*
Y-262880D02*
D03*
Y-287880D02*
D03*
D24*
X331000Y-330380D02*
D03*
Y-195380D02*
D03*
D25*
X99680Y-285772D02*
D03*
Y-270772D02*
D03*
X708010Y-205762D02*
D03*
Y-190762D02*
D03*
X99680Y-256562D02*
D03*
Y-241562D02*
D03*
X220330Y-272550D02*
D03*
Y-287550D02*
D03*
X548498Y-237106D02*
D03*
Y-252106D02*
D03*
X487284Y-200668D02*
D03*
Y-215668D02*
D03*
X565770Y-201176D02*
D03*
Y-216176D02*
D03*
X644618Y-200762D02*
D03*
Y-215762D02*
D03*
X536306Y-205762D02*
D03*
Y-190762D02*
D03*
X614284Y-205762D02*
D03*
Y-190762D02*
D03*
X692262Y-205762D02*
D03*
Y-190762D02*
D03*
X117206Y-285772D02*
D03*
Y-270772D02*
D03*
X566532Y-237244D02*
D03*
Y-252244D02*
D03*
X551800Y-205762D02*
D03*
Y-190762D02*
D03*
X629905Y-205762D02*
D03*
Y-190762D02*
D03*
X566532Y-266962D02*
D03*
Y-281962D02*
D03*
D26*
X134352Y-156464D02*
D03*
X149352D02*
D03*
X149620Y-171450D02*
D03*
X134620D02*
D03*
X442820Y-272804D02*
D03*
X457820D02*
D03*
X457820Y-238006D02*
D03*
X442820D02*
D03*
X457820Y-287790D02*
D03*
X442820D02*
D03*
X442820Y-253246D02*
D03*
X457820D02*
D03*
X442820Y-223020D02*
D03*
X457820D02*
D03*
Y-302776D02*
D03*
X442820D02*
D03*
D27*
X502430Y-215762D02*
D03*
X512430Y-190762D02*
D03*
X522430Y-215762D02*
D03*
X580756Y-215762D02*
D03*
X590756Y-190762D02*
D03*
X600756Y-215762D02*
D03*
X658800Y-215762D02*
D03*
X668800Y-190762D02*
D03*
X678800Y-215762D02*
D03*
D28*
X265702Y-132944D02*
D03*
X291102D02*
D03*
X316502D02*
D03*
X341902D02*
D03*
X367302D02*
D03*
X265702Y-158344D02*
D03*
X291102D02*
D03*
X316502D02*
D03*
X341902D02*
D03*
X367302D02*
D03*
X392702D02*
D03*
X443502D02*
D03*
X418102D02*
D03*
Y-132944D02*
D03*
X443502D02*
D03*
X240302Y-158344D02*
D03*
X392702Y-132944D02*
D03*
X214902Y-158344D02*
D03*
X240302Y-132944D02*
D03*
D29*
X214902D02*
D03*
D30*
X-76236Y-338580D02*
D03*
X738236D02*
D03*
X-76236Y558380D02*
D03*
X738236D02*
D03*
M02*
