%FSLAX25Y25*%
%MOIN*%
G70*
G01*
G75*
G04 Layer_Color=16711935*
%ADD10R,0.02756X0.03347*%
%ADD11R,0.04724X0.04331*%
%ADD12R,0.07874X0.07874*%
%ADD13O,0.08661X0.02362*%
%ADD14R,0.08071X0.09055*%
%ADD15O,0.05500X0.02500*%
%ADD16R,0.05500X0.02500*%
%ADD17R,0.04724X0.14567*%
%ADD18R,0.07559X0.25590*%
%ADD19R,0.06000X0.05000*%
%ADD20R,0.10630X0.03937*%
%ADD21O,0.00787X0.02559*%
%ADD22O,0.02559X0.00787*%
%ADD23R,0.15748X0.15748*%
%ADD24R,0.03347X0.02756*%
%ADD25O,0.02500X0.05500*%
%ADD26R,0.02500X0.05500*%
%ADD27R,0.05000X0.06000*%
%ADD28C,0.03000*%
%ADD29C,0.05000*%
%ADD30C,0.00600*%
%ADD31C,0.00800*%
%ADD32C,0.02000*%
%ADD33C,0.01000*%
%ADD34C,0.01500*%
%ADD35C,0.04000*%
%ADD36R,0.07284X0.19685*%
%ADD37R,0.06800X0.04000*%
%ADD38C,0.00500*%
%ADD39O,0.04724X0.06299*%
%ADD40R,0.04724X0.06299*%
%ADD41C,0.08661*%
%ADD42C,0.03150*%
%ADD43O,0.05906X0.09843*%
%ADD44R,0.05906X0.09843*%
%ADD45C,0.04724*%
%ADD46O,0.09252X0.07087*%
%ADD47O,0.05315X0.12205*%
%ADD48R,0.13386X0.04724*%
%ADD49R,0.04724X0.13386*%
%ADD50C,0.03000*%
%ADD51C,0.04000*%
%ADD52C,0.02000*%
%ADD53C,0.02598*%
%ADD54R,0.02362X0.02362*%
%ADD55R,0.15000X0.11400*%
%ADD56C,0.00984*%
%ADD57C,0.00394*%
%ADD58C,0.00591*%
%ADD59C,0.00787*%
%ADD60R,0.03556X0.04147*%
%ADD61R,0.05524X0.05131*%
%ADD62R,0.08674X0.08674*%
%ADD63O,0.09461X0.03162*%
%ADD64R,0.08871X0.09855*%
%ADD65O,0.06300X0.03300*%
%ADD66R,0.06300X0.03300*%
%ADD67R,0.05524X0.15367*%
%ADD68R,0.08359X0.26391*%
%ADD69R,0.06800X0.05800*%
%ADD70R,0.11430X0.04737*%
%ADD71R,0.00800X0.00800*%
%ADD72R,0.00800X0.00800*%
%ADD73O,0.01587X0.03359*%
%ADD74O,0.03359X0.01587*%
%ADD75R,0.16548X0.16548*%
%ADD76R,0.04147X0.03556*%
%ADD77O,0.03300X0.06300*%
%ADD78R,0.03300X0.06300*%
%ADD79R,0.05800X0.06800*%
%ADD80O,0.05524X0.07099*%
%ADD81R,0.05524X0.07099*%
%ADD82C,0.09461*%
%ADD83C,0.03950*%
%ADD84O,0.06706X0.10642*%
%ADD85R,0.06706X0.10642*%
%ADD86C,0.05524*%
%ADD87O,0.10052X0.07887*%
%ADD88O,0.06115X0.13005*%
%ADD89R,0.14186X0.05524*%
%ADD90R,0.05524X0.14186*%
%ADD91R,0.03162X0.03162*%
%ADD92C,0.03398*%
D33*
X14764Y-8858D02*
G03*
X14764Y-8858I-5906J0D01*
G01*
Y-176181D02*
G03*
X14764Y-176181I-5906J0D01*
G01*
X260827Y-8858D02*
G03*
X260827Y-8858I-5906J0D01*
G01*
Y-176181D02*
G03*
X260827Y-176181I-5906J0D01*
G01*
D38*
X0Y0D02*
X263779D01*
X0Y-185039D02*
Y0D01*
X263779Y-185039D02*
Y0D01*
X0Y-185039D02*
X263779D01*
D60*
X102995Y-120100D02*
D03*
X108900D02*
D03*
X137005Y-97700D02*
D03*
X131100D02*
D03*
X102694Y-108700D02*
D03*
X108600D02*
D03*
X162305Y-109000D02*
D03*
X156400D02*
D03*
D76*
X50200Y-25106D02*
D03*
Y-19200D02*
D03*
X56800Y-24800D02*
D03*
Y-18894D02*
D03*
X65300Y-24700D02*
D03*
Y-18794D02*
D03*
X72300Y-24700D02*
D03*
Y-18794D02*
D03*
X62362Y-164632D02*
D03*
Y-170538D02*
D03*
X142500Y-83694D02*
D03*
Y-89600D02*
D03*
X136500Y-83694D02*
D03*
Y-89600D02*
D03*
X123600Y-83694D02*
D03*
Y-89600D02*
D03*
X141100Y-139206D02*
D03*
Y-133300D02*
D03*
X147200Y-139206D02*
D03*
Y-133300D02*
D03*
X134600Y-139371D02*
D03*
Y-133465D02*
D03*
X149000Y-83595D02*
D03*
Y-89500D02*
D03*
X117500Y-89700D02*
D03*
Y-83794D02*
D03*
D80*
X132322Y-35600D02*
D03*
X124448D02*
D03*
X116574D02*
D03*
X238126Y-148300D02*
D03*
X112126Y-173200D02*
D03*
D81*
X108700Y-35600D02*
D03*
X246000Y-148300D02*
D03*
X120000Y-173200D02*
D03*
D82*
X86512Y-38000D02*
D03*
X35488D02*
D03*
D83*
X76000D02*
D03*
X71000D02*
D03*
X66000D02*
D03*
X61000D02*
D03*
X56000D02*
D03*
X51000D02*
D03*
X46000D02*
D03*
D84*
X230000Y-77800D02*
D03*
X250000D02*
D03*
X240000D02*
D03*
D85*
X220000D02*
D03*
D86*
X214000Y-37365D02*
D03*
Y-42876D02*
D03*
Y-48388D02*
D03*
Y-53900D02*
D03*
Y-109165D02*
D03*
Y-114676D02*
D03*
Y-120188D02*
D03*
Y-125700D02*
D03*
D87*
X221874Y-57758D02*
D03*
Y-33506D02*
D03*
Y-129558D02*
D03*
Y-105306D02*
D03*
D88*
X243921Y-45632D02*
D03*
Y-117432D02*
D03*
D89*
X152000Y-175372D02*
D03*
Y-150963D02*
D03*
D90*
X170504Y-161593D02*
D03*
D91*
X200400Y-54500D02*
D03*
X204337D02*
D03*
X200556Y-42900D02*
D03*
X204493D02*
D03*
X200356Y-48301D02*
D03*
X204293D02*
D03*
D92*
X54724Y-168000D02*
D03*
X50000D02*
D03*
X54724Y-163276D02*
D03*
X50000D02*
D03*
M02*
