%FSLAX25Y25*%
%MOIN*%
G70*
G01*
G75*
G04 Layer_Physical_Order=2*
G04 Layer_Color=36540*
%ADD10C,0.01500*%
%ADD11C,0.02000*%
%ADD12R,0.02362X0.02362*%
%ADD13R,0.05000X0.07874*%
%ADD14R,0.05000X0.05000*%
%ADD15R,0.04800X0.05600*%
%ADD16R,0.02362X0.02362*%
%ADD17R,0.02756X0.03347*%
%ADD18O,0.06299X0.01181*%
%ADD19O,0.01181X0.06299*%
%ADD20R,0.06299X0.01181*%
%ADD21C,0.03937*%
G04:AMPARAMS|DCode=22|XSize=41.34mil|YSize=86.61mil|CornerRadius=6.2mil|HoleSize=0mil|Usage=FLASHONLY|Rotation=0.000|XOffset=0mil|YOffset=0mil|HoleType=Round|Shape=RoundedRectangle|*
%AMROUNDEDRECTD22*
21,1,0.04134,0.07421,0,0,0.0*
21,1,0.02894,0.08661,0,0,0.0*
1,1,0.01240,0.01447,-0.03711*
1,1,0.01240,-0.01447,-0.03711*
1,1,0.01240,-0.01447,0.03711*
1,1,0.01240,0.01447,0.03711*
%
%ADD22ROUNDEDRECTD22*%
G04:AMPARAMS|DCode=23|XSize=39.37mil|YSize=41.34mil|CornerRadius=5.91mil|HoleSize=0mil|Usage=FLASHONLY|Rotation=0.000|XOffset=0mil|YOffset=0mil|HoleType=Round|Shape=RoundedRectangle|*
%AMROUNDEDRECTD23*
21,1,0.03937,0.02953,0,0,0.0*
21,1,0.02756,0.04134,0,0,0.0*
1,1,0.01181,0.01378,-0.01476*
1,1,0.01181,-0.01378,-0.01476*
1,1,0.01181,-0.01378,0.01476*
1,1,0.01181,0.01378,0.01476*
%
%ADD23ROUNDEDRECTD23*%
%ADD24R,0.00984X0.01083*%
%ADD25R,0.01083X0.00984*%
%ADD26R,0.03347X0.02756*%
%ADD27R,0.01890X0.01181*%
%ADD28R,0.01181X0.01890*%
%ADD29R,0.00984X0.01083*%
%ADD30R,0.01083X0.00984*%
%ADD31R,0.00787X0.01378*%
%ADD32R,0.01181X0.01378*%
%ADD33R,0.00984X0.01378*%
%ADD34R,0.01181X0.01181*%
%ADD35R,0.03937X0.02362*%
%ADD36R,0.03937X0.03150*%
%ADD37R,0.03150X0.03937*%
%ADD38R,0.09843X0.11811*%
%ADD39O,0.07087X0.02362*%
%ADD40O,0.02362X0.07087*%
%ADD41C,0.00800*%
%ADD42C,0.01000*%
%ADD43C,0.00500*%
%ADD44C,0.00600*%
%ADD45R,0.12000X0.09600*%
%ADD46C,0.02000*%
%ADD47C,0.04000*%
%ADD48C,0.03000*%
%ADD49C,0.05000*%
%ADD50C,0.04000*%
%ADD51C,0.03000*%
G36*
X2856Y54300D02*
X3337Y53673D01*
X3963Y53192D01*
X4693Y52890D01*
X4810Y52874D01*
X8352Y49332D01*
Y32956D01*
X8426Y32581D01*
X8002Y32316D01*
X7919Y32380D01*
X7189Y32683D01*
X6406Y32786D01*
X5622Y32683D01*
X4893Y32380D01*
X4266Y31899D01*
X3785Y31273D01*
X3483Y30543D01*
X3380Y29760D01*
X3483Y28977D01*
X3785Y28247D01*
X4266Y27620D01*
X4893Y27139D01*
X5622Y26837D01*
X6337Y26743D01*
X6510Y25876D01*
X7062Y25049D01*
X7889Y24497D01*
X8627Y24350D01*
X22944Y10033D01*
X22943D01*
X22944Y10033D01*
X22944D01*
X22944Y10033D01*
Y10033D01*
X22944Y10033D01*
Y10033D01*
X23572Y9613D01*
X24313Y9466D01*
X47292D01*
X48033Y9613D01*
X48661Y10033D01*
X58257Y19629D01*
X58748Y19531D01*
X58832Y19328D01*
X59313Y18701D01*
X59940Y18220D01*
X60669Y17918D01*
X61453Y17815D01*
X62236Y17918D01*
X62966Y18220D01*
X63592Y18701D01*
X64073Y19328D01*
X64376Y20057D01*
X64479Y20841D01*
X64376Y21624D01*
X64073Y22354D01*
X63592Y22980D01*
X62966Y23461D01*
X62762Y23546D01*
X62664Y24036D01*
X69766Y31138D01*
X70186Y31766D01*
X70333Y32507D01*
Y34142D01*
X70751Y34767D01*
X70945Y35742D01*
X70751Y36718D01*
X70199Y37545D01*
X69372Y38097D01*
X68396Y38291D01*
X68304Y38273D01*
X68069Y38714D01*
X70108Y40753D01*
X70549Y40517D01*
X70363Y39585D01*
X70557Y38609D01*
X71110Y37782D01*
X71937Y37230D01*
X72854Y37047D01*
X79354Y30547D01*
X79209Y30068D01*
X78869Y30001D01*
X78752Y29978D01*
X78157Y29580D01*
X67474Y18898D01*
X67076Y18302D01*
X67053Y18185D01*
X66937Y17600D01*
Y13154D01*
X67053Y12568D01*
X67076Y12452D01*
X67474Y11857D01*
X69119Y10212D01*
X69301Y9295D01*
X69854Y8468D01*
X70681Y7915D01*
X71656Y7721D01*
X72632Y7915D01*
X73458Y8468D01*
X74011Y9295D01*
X74205Y10270D01*
X74011Y11246D01*
X73458Y12073D01*
X72632Y12625D01*
X71714Y12808D01*
X70607Y13914D01*
Y16839D01*
X80215Y26447D01*
X85736D01*
X85881Y25968D01*
X85541Y25741D01*
X84988Y24914D01*
X84794Y23939D01*
X84988Y22963D01*
X85541Y22136D01*
X86368Y21584D01*
X86988Y21460D01*
X87024Y21276D01*
X87577Y20449D01*
X88404Y19897D01*
X89379Y19703D01*
X90355Y19897D01*
X90965Y20305D01*
X99080D01*
X99397Y19918D01*
X99379Y19827D01*
X99422Y19613D01*
X99104Y19227D01*
X96074D01*
X95372Y19087D01*
X94776Y18689D01*
X86575Y10488D01*
X85658Y10306D01*
X84831Y9753D01*
X84437Y9164D01*
X83947Y9262D01*
X83854Y9731D01*
X83301Y10558D01*
X82474Y11111D01*
X81499Y11305D01*
X80523Y11111D01*
X79984Y10751D01*
X79355Y11171D01*
X78379Y11365D01*
X77404Y11171D01*
X76577Y10619D01*
X76025Y9792D01*
X75831Y8816D01*
X76025Y7841D01*
X76577Y7014D01*
X77404Y6461D01*
X78141Y6315D01*
X80817Y3639D01*
X81661Y2795D01*
X81868Y2656D01*
X81723Y2178D01*
X64345D01*
X64110Y2619D01*
X64279Y2872D01*
X64473Y3847D01*
X64279Y4823D01*
X63726Y5650D01*
X62899Y6202D01*
X61924Y6396D01*
X60948Y6202D01*
X60121Y5650D01*
X59569Y4823D01*
X59375Y3847D01*
X59569Y2872D01*
X59738Y2619D01*
X59502Y2178D01*
X12187D01*
X11930Y2607D01*
X12281Y3264D01*
X12674Y4559D01*
X12807Y5906D01*
X12674Y7252D01*
X12281Y8546D01*
X11644Y9740D01*
X10785Y10785D01*
X9740Y11644D01*
X8546Y12281D01*
X7252Y12674D01*
X5906Y12807D01*
X4559Y12674D01*
X3264Y12281D01*
X2607Y11930D01*
X2178Y12187D01*
Y45494D01*
X2565Y45811D01*
X3131Y45698D01*
X4106Y45893D01*
X4933Y46445D01*
X5486Y47272D01*
X5680Y48248D01*
X5486Y49223D01*
X4933Y50050D01*
X4106Y50603D01*
X3131Y50797D01*
X2565Y50684D01*
X2178Y51001D01*
Y54655D01*
X2668Y54752D01*
X2856Y54300D01*
D02*
G37*
G36*
X39542Y49720D02*
X39503Y49320D01*
X38950Y48493D01*
X38756Y47518D01*
X38950Y46542D01*
X39503Y45715D01*
X40330Y45163D01*
X41305Y44969D01*
X42280Y45163D01*
X42689Y45436D01*
X43130Y45200D01*
Y38858D01*
X42743Y38541D01*
X42443Y38601D01*
X41467Y38407D01*
X40640Y37854D01*
X40088Y37027D01*
X39978Y36475D01*
X39009Y36283D01*
X38182Y35730D01*
X38023Y35714D01*
X29328Y44409D01*
Y48539D01*
X29715Y48856D01*
X30511Y48698D01*
X31486Y48892D01*
X32313Y49444D01*
X32773D01*
X32864Y49308D01*
X33691Y48755D01*
X34667Y48561D01*
X35642Y48755D01*
X36469Y49308D01*
X37022Y50135D01*
X37216Y51110D01*
X37151Y51434D01*
X37592Y51669D01*
X39542Y49720D01*
D02*
G37*
G36*
X157361Y166684D02*
X157010Y166027D01*
X156617Y164732D01*
X156484Y163386D01*
X156617Y162039D01*
X157010Y160745D01*
X157648Y159552D01*
X158506Y158506D01*
X159552Y157648D01*
X160745Y157010D01*
X162039Y156617D01*
X163386Y156484D01*
X164732Y156617D01*
X166027Y157010D01*
X166684Y157361D01*
X167113Y157104D01*
Y12187D01*
X166684Y11930D01*
X166027Y12281D01*
X164732Y12674D01*
X163386Y12807D01*
X162039Y12674D01*
X160745Y12281D01*
X159552Y11644D01*
X158506Y10785D01*
X157648Y9740D01*
X157010Y8546D01*
X156617Y7252D01*
X156484Y5906D01*
X156617Y4559D01*
X157010Y3264D01*
X157361Y2607D01*
X157104Y2178D01*
X93970D01*
X93652Y2565D01*
X93745Y3032D01*
X93551Y4007D01*
X92999Y4834D01*
X92582Y5112D01*
X92533Y5610D01*
X94938Y8015D01*
X95436Y7966D01*
X95714Y7549D01*
X96541Y6997D01*
X97516Y6803D01*
X102429D01*
X102759Y6550D01*
X103489Y6247D01*
X104272Y6144D01*
X105055Y6247D01*
X105785Y6550D01*
X106412Y7030D01*
X106893Y7657D01*
X107195Y8387D01*
X107298Y9170D01*
X107195Y9953D01*
X106893Y10683D01*
X106412Y11310D01*
X106426Y11351D01*
X134347D01*
X135088Y11498D01*
X135717Y11918D01*
X139226Y15427D01*
X139963Y15574D01*
X140790Y16126D01*
X141343Y16953D01*
X141537Y17929D01*
X141343Y18904D01*
X140790Y19731D01*
X139963Y20284D01*
X139836Y20703D01*
X140090Y20956D01*
X151346D01*
X152123Y20437D01*
X153099Y20243D01*
X154074Y20437D01*
X154901Y20989D01*
X155454Y21816D01*
X155648Y22792D01*
X155454Y23767D01*
X154901Y24594D01*
X154074Y25147D01*
X153841Y25193D01*
X153754Y25322D01*
X154581Y25875D01*
Y25875D01*
X154581Y25875D01*
X154581Y25875D01*
X155134Y26702D01*
X155328Y27677D01*
X155134Y28653D01*
X154581Y29479D01*
X153754Y30032D01*
X152779Y30226D01*
X151804Y30032D01*
X150977Y29479D01*
X150424Y28653D01*
X150241Y27735D01*
X149416Y26910D01*
X140051D01*
X139869Y27821D01*
X139317Y28647D01*
X138490Y29200D01*
X137514Y29394D01*
X136539Y29200D01*
X135712Y28647D01*
X135160Y27821D01*
X135049Y27263D01*
X132169Y24383D01*
X98446D01*
X98345Y24507D01*
X98151Y25482D01*
X97598Y26309D01*
X97640Y26447D01*
X125628D01*
X126214Y26563D01*
X126330Y26586D01*
X126926Y26984D01*
X137523Y37582D01*
X137789Y37980D01*
X137921Y38177D01*
X138061Y38880D01*
Y46318D01*
X137944Y46904D01*
X137921Y47021D01*
X137523Y47616D01*
X132404Y52735D01*
X132222Y53653D01*
X131669Y54479D01*
X130842Y55032D01*
Y55322D01*
D01*
X131669Y55875D01*
X132222Y56702D01*
X132416Y57677D01*
X132222Y58653D01*
X131669Y59479D01*
X130842Y60032D01*
X129867Y60226D01*
X128891Y60032D01*
X128064Y59479D01*
X127512Y58653D01*
X127329Y57735D01*
X125754Y56160D01*
X125357Y55565D01*
X125333Y55448D01*
X125217Y54862D01*
Y52763D01*
X125333Y52178D01*
X125357Y52061D01*
X125754Y51466D01*
X132929Y44291D01*
Y43643D01*
X132542Y43326D01*
X132200Y43394D01*
X131225Y43200D01*
X130447Y42680D01*
X86509D01*
X85923Y42564D01*
X85807Y42541D01*
X85806Y42542D01*
X85529Y42957D01*
X85846Y43431D01*
X86040Y44406D01*
X85846Y45382D01*
X85647Y45680D01*
X85874Y46020D01*
X86068Y46995D01*
X85939Y47644D01*
X86354Y47922D01*
X87108Y47418D01*
X87108Y47418D01*
X87108D01*
X87215Y47259D01*
X87205Y47212D01*
X87399Y46237D01*
X87952Y45410D01*
X88779Y44857D01*
X89754Y44663D01*
X90730Y44857D01*
X91355Y45275D01*
X94219D01*
X94961Y45422D01*
X95589Y45842D01*
X96447Y46700D01*
X96926Y46555D01*
X97017Y46095D01*
X97570Y45268D01*
X98397Y44716D01*
X99372Y44522D01*
X100348Y44716D01*
X101175Y45268D01*
X101727Y46095D01*
X101921Y47071D01*
X101727Y48046D01*
X101175Y48873D01*
X100348Y49426D01*
X99372Y49620D01*
X101783Y52035D01*
X101785Y52038D01*
X102283Y51989D01*
X102535Y51611D01*
X103362Y51058D01*
X104338Y50864D01*
X105313Y51058D01*
X106140Y51611D01*
X106693Y52438D01*
X106887Y53413D01*
X106693Y54388D01*
X106140Y55215D01*
X105762Y55468D01*
X105713Y55966D01*
X107143Y57396D01*
X118716D01*
X119457Y57543D01*
X120086Y57963D01*
X125994Y63871D01*
X147484D01*
X150747Y60608D01*
X150894Y59871D01*
X151447Y59044D01*
X152274Y58491D01*
X153249Y58297D01*
X154225Y58491D01*
X155052Y59044D01*
X155604Y59871D01*
X155798Y60846D01*
X155604Y61822D01*
X155052Y62649D01*
X154225Y63201D01*
X153487Y63348D01*
X149657Y67178D01*
X149028Y67598D01*
X148287Y67746D01*
X125191D01*
X124450Y67598D01*
X123822Y67178D01*
X117913Y61270D01*
X106341D01*
X105599Y61123D01*
X104971Y60703D01*
X93417Y49149D01*
X91355D01*
X90730Y49567D01*
X90730Y49567D01*
X90730D01*
X90623Y49726D01*
X90633Y49773D01*
X90439Y50748D01*
X89886Y51575D01*
X89059Y52128D01*
X88084Y52322D01*
X87108Y52128D01*
X86281Y51575D01*
X85729Y50748D01*
X85535Y49773D01*
X85664Y49124D01*
X85248Y48846D01*
X84494Y49350D01*
X83519Y49544D01*
X82543Y49350D01*
X81716Y48798D01*
X81164Y47971D01*
X80970Y46995D01*
X81164Y46020D01*
X81363Y45722D01*
X81136Y45382D01*
X80942Y44406D01*
X81136Y43431D01*
X81688Y42604D01*
X81946Y42432D01*
X82043Y41942D01*
X81548Y41200D01*
X81354Y40225D01*
X81548Y39249D01*
X82100Y38422D01*
X82928Y37870D01*
X83281Y37800D01*
X83331Y37725D01*
X83331Y37725D01*
X83331D01*
X83525Y36750D01*
X84077Y35923D01*
X84904Y35370D01*
X85879Y35176D01*
X86855Y35370D01*
X87682Y35923D01*
X88235Y36750D01*
X88428Y37725D01*
X88235Y38700D01*
X88400Y39010D01*
X100199D01*
X100434Y38569D01*
X100322Y38401D01*
X100128Y37426D01*
X100322Y36451D01*
X100875Y35624D01*
X101702Y35071D01*
X102678Y34877D01*
X103653Y35071D01*
X104480Y35624D01*
X105032Y36451D01*
X105226Y37426D01*
X105032Y38401D01*
X104920Y38569D01*
X105156Y39010D01*
X130447D01*
X130810Y38767D01*
X130859Y38269D01*
X125074Y32484D01*
X82609D01*
X75450Y39643D01*
X75267Y40560D01*
X74715Y41387D01*
X73888Y41939D01*
X72912Y42134D01*
X71979Y41948D01*
X71744Y42389D01*
X73375Y44020D01*
X73928Y44847D01*
X74122Y45823D01*
Y50050D01*
X73928Y51025D01*
X73375Y51852D01*
X72176Y53051D01*
Y66686D01*
X75306Y69815D01*
X100461D01*
X100554Y69744D01*
X101284Y69441D01*
X102067Y69338D01*
X103938D01*
X104173Y68897D01*
X103860Y68429D01*
X103666Y67453D01*
X103860Y66478D01*
X104413Y65651D01*
X105240Y65099D01*
X106215Y64904D01*
X107191Y65099D01*
X108018Y65651D01*
X108217Y65949D01*
X108545Y66015D01*
X108761D01*
X109288Y65226D01*
X110115Y64673D01*
X111090Y64479D01*
X112066Y64673D01*
X112893Y65226D01*
X113445Y66053D01*
X113639Y67028D01*
X113445Y68003D01*
X112893Y68831D01*
X112066Y69383D01*
X111090Y69577D01*
X110115Y69383D01*
X109288Y68831D01*
X109089Y68532D01*
X108760Y68467D01*
X108545D01*
X108018Y69256D01*
X107852Y69367D01*
X107870Y69441D01*
X108386Y69655D01*
X108599Y69744D01*
X109226Y70225D01*
X111074Y72073D01*
X112710D01*
X113028Y71686D01*
X112843Y70756D01*
X113037Y69780D01*
X113589Y68953D01*
X114416Y68401D01*
X115392Y68207D01*
X116367Y68401D01*
X117194Y68953D01*
X117746Y69780D01*
X117858Y70340D01*
X118336Y70485D01*
X118360Y70460D01*
X118987Y69980D01*
X119717Y69677D01*
X120500Y69574D01*
X121283Y69677D01*
X122013Y69980D01*
X122640Y70460D01*
X123120Y71087D01*
X123423Y71817D01*
X123526Y72600D01*
X123423Y73383D01*
X123120Y74113D01*
X122640Y74740D01*
X121180Y76199D01*
X121372Y76661D01*
X138898D01*
X139678Y76816D01*
X140340Y77258D01*
X140340Y77258D01*
X140340Y77258D01*
X140607Y77525D01*
X141090Y77622D01*
X141752Y78063D01*
X141759Y78074D01*
X142112Y78310D01*
X142665Y79137D01*
X142859Y80112D01*
X142665Y81088D01*
X142349Y81560D01*
Y105890D01*
X142194Y106670D01*
X142110Y106796D01*
X141955Y107576D01*
X141402Y108402D01*
X140576Y108955D01*
X139600Y109149D01*
X138625Y108955D01*
X137798Y108402D01*
X137245Y107576D01*
X137051Y106600D01*
X137245Y105624D01*
X137798Y104798D01*
X138271Y104481D01*
Y95041D01*
X137792Y94896D01*
X137363Y95539D01*
X136536Y96091D01*
X135561Y96285D01*
X134585Y96091D01*
X133758Y95539D01*
X133206Y94712D01*
X133012Y93736D01*
X133206Y92761D01*
X133758Y91934D01*
X134585Y91381D01*
X135561Y91187D01*
X136536Y91381D01*
X137363Y91934D01*
X137792Y92576D01*
X138271Y92431D01*
Y89361D01*
X137830Y89125D01*
X137241Y89519D01*
X136265Y89713D01*
X135290Y89519D01*
X134463Y88966D01*
X133910Y88139D01*
X133716Y87164D01*
X133910Y86189D01*
X134226Y85716D01*
Y84310D01*
X133095Y83179D01*
X101556D01*
X101083Y83495D01*
X100108Y83689D01*
X99133Y83495D01*
X98305Y82942D01*
X97753Y82115D01*
X97559Y81140D01*
X97562Y81126D01*
X97245Y80739D01*
X96622D01*
X96332Y81029D01*
X96221Y81586D01*
X95669Y82413D01*
X94842Y82966D01*
X93866Y83160D01*
X92891Y82966D01*
X92418Y82650D01*
X75915D01*
X75637Y83066D01*
X75676Y83161D01*
X80700D01*
X81480Y83316D01*
X82142Y83758D01*
X84982Y86598D01*
X85423Y86363D01*
X85351Y86000D01*
X85545Y85024D01*
X86098Y84198D01*
X86924Y83645D01*
X87900Y83451D01*
X88876Y83645D01*
X89702Y84198D01*
X90255Y85024D01*
X90449Y86000D01*
X90255Y86975D01*
X90461Y87361D01*
X109400D01*
X110180Y87516D01*
X110842Y87958D01*
X116544Y93661D01*
X116993Y93440D01*
X116942Y93055D01*
X117045Y92272D01*
X117348Y91542D01*
X117829Y90915D01*
X118455Y90434D01*
X119185Y90132D01*
X119968Y90029D01*
X120751Y90132D01*
X121481Y90434D01*
X122108Y90915D01*
X122589Y91542D01*
X122891Y92272D01*
X122994Y93055D01*
X122891Y93838D01*
X122589Y94568D01*
X122108Y95194D01*
X121481Y95675D01*
X120751Y95977D01*
X119968Y96080D01*
X119583Y96030D01*
X119362Y96478D01*
X122745Y99861D01*
X132452D01*
X132924Y99545D01*
X133900Y99351D01*
X134876Y99545D01*
X135702Y100098D01*
X136255Y100925D01*
X136449Y101900D01*
X136255Y102875D01*
X135702Y103702D01*
X134876Y104255D01*
X133900Y104449D01*
X132924Y104255D01*
X132452Y103939D01*
X121900D01*
X121120Y103784D01*
X120458Y103342D01*
X117172Y100056D01*
X116786Y100373D01*
X117084Y100820D01*
X117239Y101600D01*
Y103800D01*
Y106986D01*
X117486Y107355D01*
X117680Y108331D01*
X117486Y109306D01*
X116933Y110133D01*
X116106Y110686D01*
X115131Y110880D01*
X114155Y110686D01*
X113328Y110133D01*
X112776Y109306D01*
X112582Y108331D01*
X112776Y107355D01*
X113061Y106928D01*
X112783Y106512D01*
X112600Y106549D01*
X111625Y106355D01*
X110798Y105802D01*
X110245Y104975D01*
X110051Y104000D01*
X110245Y103024D01*
X110798Y102198D01*
X111625Y101645D01*
X111719Y101626D01*
X111864Y101148D01*
X105879Y95163D01*
X105438Y95398D01*
X105505Y95736D01*
X105311Y96711D01*
X104758Y97538D01*
X103931Y98090D01*
X103374Y98201D01*
X101909Y99666D01*
X101247Y100108D01*
X100467Y100264D01*
X39679D01*
X39206Y100579D01*
X38230Y100773D01*
X37255Y100579D01*
X36428Y100027D01*
X35957Y99322D01*
X35457D01*
X35440Y99347D01*
X34613Y99900D01*
X33637Y100094D01*
X32662Y99900D01*
X31835Y99347D01*
X31282Y98520D01*
X31088Y97545D01*
X31282Y96570D01*
X31835Y95743D01*
X32662Y95190D01*
X33219Y95079D01*
X34640Y93658D01*
X35302Y93216D01*
X36082Y93061D01*
X69755D01*
X70361Y92455D01*
Y89094D01*
X69920Y88858D01*
X69476Y89155D01*
X68500Y89349D01*
X67524Y89155D01*
X67005Y88808D01*
X66549Y89014D01*
X66510Y89313D01*
X66157Y90165D01*
X65596Y90896D01*
X64865Y91457D01*
X64014Y91809D01*
X63100Y91930D01*
X27863D01*
X23780Y96012D01*
Y128050D01*
X23780Y128050D01*
X23660Y128964D01*
X23307Y129815D01*
X22746Y130546D01*
X20430Y132862D01*
Y140100D01*
X20310Y141014D01*
X19957Y141865D01*
X19396Y142596D01*
X18665Y143157D01*
X17814Y143510D01*
X16900Y143630D01*
X15986Y143510D01*
X15135Y143157D01*
X14404Y142596D01*
X13843Y141865D01*
X13490Y141014D01*
X13370Y140100D01*
Y131400D01*
X13370Y131400D01*
X13370D01*
X13490Y130486D01*
X13843Y129635D01*
X14404Y128904D01*
X16720Y126588D01*
Y94550D01*
X16720Y94550D01*
X16720D01*
X16840Y93636D01*
X17193Y92785D01*
X17754Y92054D01*
X23904Y85903D01*
X23904Y85903D01*
X24635Y85342D01*
D01*
D01*
Y85342D01*
X24635Y85342D01*
D01*
D01*
X24635D01*
Y85342D01*
D01*
X24635D01*
Y85342D01*
X25487Y84990D01*
X26400Y84869D01*
X40176D01*
X40454Y84454D01*
D01*
D01*
X40152Y83724D01*
X40049Y82941D01*
X40152Y82158D01*
X40454Y81428D01*
X40935Y80801D01*
X41561Y80320D01*
X42291Y80018D01*
X43075Y79915D01*
X43858Y80018D01*
X44587Y80320D01*
X45214Y80801D01*
X45695Y81428D01*
X45997Y82158D01*
X46100Y82941D01*
X45997Y83724D01*
X45695Y84454D01*
X45900Y84869D01*
X48075D01*
X48263Y83924D01*
X48815Y83097D01*
X49642Y82545D01*
X50618Y82351D01*
X51593Y82545D01*
X52420Y83097D01*
X52973Y83924D01*
X53161Y84869D01*
X63100D01*
X64014Y84990D01*
X64865Y85342D01*
X65596Y85903D01*
X65651Y85975D01*
X66138Y85861D01*
X66145Y85825D01*
X66698Y84998D01*
X67524Y84445D01*
X68082Y84334D01*
X73247Y79169D01*
X73247Y79169D01*
X73644Y78904D01*
X73909Y78727D01*
X74689Y78571D01*
X92418D01*
X92891Y78256D01*
X93449Y78145D01*
X94335Y77258D01*
X94335Y77258D01*
X94997Y76816D01*
X95777Y76661D01*
X95777Y76661D01*
X106450D01*
X106642Y76199D01*
X105833Y75390D01*
X102067D01*
X101284Y75287D01*
X100554Y74985D01*
X100461Y74913D01*
X74250D01*
X73274Y74719D01*
X72448Y74167D01*
X67825Y69544D01*
X67272Y68717D01*
X67078Y67742D01*
Y51995D01*
X67272Y51020D01*
X67825Y50193D01*
X69024Y48994D01*
Y48040D01*
X68545Y47895D01*
X68011Y48695D01*
X67184Y49247D01*
X66209Y49441D01*
X65233Y49247D01*
X64406Y48695D01*
X63854Y47868D01*
X63660Y46892D01*
X63854Y45917D01*
X64406Y45090D01*
X65233Y44537D01*
X65922Y44400D01*
X66067Y43922D01*
X48744Y26599D01*
X45091D01*
X44813Y27015D01*
X45015Y27502D01*
X45153Y28546D01*
X45015Y29591D01*
X44612Y30564D01*
X43971Y31399D01*
X43135Y32040D01*
X42162Y32443D01*
X42097Y32589D01*
X42339Y32952D01*
X42449Y33504D01*
X43418Y33697D01*
X44245Y34249D01*
X44746Y34999D01*
X45186D01*
X45255Y34985D01*
X45682Y34347D01*
X46509Y33794D01*
X47484Y33600D01*
X48460Y33794D01*
X49287Y34347D01*
X49839Y35174D01*
X50022Y36092D01*
X50701Y36546D01*
X51253Y37373D01*
X51447Y38348D01*
X51253Y39324D01*
X50701Y40151D01*
X49874Y40703D01*
X48983Y40881D01*
Y46324D01*
X48843Y47027D01*
X48711Y47224D01*
X48445Y47622D01*
X45564Y50503D01*
X45567Y50538D01*
X46073Y51295D01*
X47004Y51480D01*
X47831Y52033D01*
X48383Y52860D01*
X48577Y53835D01*
X48383Y54811D01*
X48347Y54865D01*
X48549Y55001D01*
X49101Y55827D01*
X49295Y56803D01*
X49101Y57778D01*
X48549Y58605D01*
X47722Y59158D01*
X46984Y59304D01*
X45325Y60963D01*
X45375Y61461D01*
X45430Y61498D01*
X45983Y62325D01*
X46177Y63301D01*
X45983Y64276D01*
X45430Y65103D01*
X44604Y65656D01*
X43628Y65850D01*
X42653Y65656D01*
X41826Y65103D01*
X41788Y65047D01*
X41291Y64998D01*
X38545Y67744D01*
X37917Y68164D01*
X37176Y68311D01*
X27307D01*
X26681Y68729D01*
X25706Y68923D01*
X24730Y68729D01*
X23903Y68176D01*
X23351Y67349D01*
X23157Y66374D01*
X23351Y65398D01*
X23903Y64571D01*
X24730Y64019D01*
X25706Y63825D01*
X25706Y63825D01*
X25706Y63825D01*
X25962Y63654D01*
X26076Y63079D01*
X26629Y62252D01*
X27318Y61792D01*
X27173Y61313D01*
X26416D01*
X15226Y72502D01*
Y81122D01*
X15087Y81824D01*
X14689Y82419D01*
X12902Y84206D01*
X12719Y85124D01*
X12428Y85560D01*
X13038Y86028D01*
X13599Y86760D01*
X13951Y87611D01*
X14072Y88525D01*
X13951Y89438D01*
X13599Y90290D01*
X13038Y91021D01*
X12307Y91582D01*
X11455Y91935D01*
X10542Y92055D01*
X9628Y91935D01*
X8776Y91582D01*
X8045Y91021D01*
X7484Y90290D01*
X7132Y89438D01*
X7011Y88525D01*
X7132Y87611D01*
X6403Y87309D01*
X6260Y87338D01*
X5284Y87144D01*
X4457Y86591D01*
X3905Y85764D01*
X3711Y84789D01*
X3905Y83813D01*
X4457Y82986D01*
X5284Y82434D01*
X6202Y82251D01*
X9711Y78742D01*
Y71882D01*
X9828Y71296D01*
X9851Y71179D01*
X10249Y70584D01*
X23963Y56869D01*
X24559Y56471D01*
X24675Y56448D01*
X25261Y56332D01*
X32930D01*
X35225Y54036D01*
X34990Y53595D01*
X34667Y53659D01*
X33691Y53465D01*
X32864Y52913D01*
X32404D01*
X32313Y53049D01*
X31486Y53601D01*
X30511Y53795D01*
X29535Y53601D01*
X29177Y53363D01*
X28788Y53481D01*
X28147Y54316D01*
X27311Y54957D01*
X26338Y55361D01*
X25294Y55498D01*
X24250Y55361D01*
X23277Y54957D01*
X22441Y54316D01*
X21800Y53481D01*
X21397Y52508D01*
X21259Y51463D01*
Y42738D01*
X21259Y42738D01*
X21397Y41693D01*
X21800Y40720D01*
X22441Y39885D01*
X35265Y27061D01*
X35074Y26599D01*
X32399D01*
X28095Y30902D01*
X27268Y31455D01*
X26293Y31649D01*
X21673D01*
X21580Y31721D01*
X20850Y32023D01*
X20067Y32126D01*
X19284Y32023D01*
X18554Y31721D01*
X17927Y31240D01*
X17446Y30613D01*
X17144Y29883D01*
X17041Y29100D01*
X17144Y28317D01*
X17446Y27587D01*
X17927Y26960D01*
X18554Y26480D01*
X19284Y26177D01*
X19585Y26138D01*
X19890Y25741D01*
X19804Y25089D01*
X19924Y24175D01*
X20277Y23324D01*
X20838Y22593D01*
X21569Y22032D01*
X22420Y21679D01*
X23334Y21559D01*
X24248Y21679D01*
X25099Y22032D01*
X25830Y22593D01*
X26391Y23324D01*
X26744Y24175D01*
X26771Y24383D01*
X27245Y24543D01*
X29540Y22248D01*
X30367Y21695D01*
X31343Y21501D01*
X43854D01*
X44132Y21085D01*
X44020Y20815D01*
X43900Y19901D01*
X44020Y18987D01*
X44373Y18136D01*
X44934Y17405D01*
X45665Y16844D01*
X46516Y16491D01*
X47430Y16371D01*
X48344Y16491D01*
X49195Y16844D01*
X49591Y17148D01*
X49921Y16772D01*
X46489Y13340D01*
X25116D01*
X11366Y27090D01*
X11220Y27827D01*
X11186Y27877D01*
X11503Y28263D01*
X12158Y27992D01*
X12941Y27889D01*
X13724Y27992D01*
X14454Y28295D01*
X15081Y28775D01*
X15562Y29402D01*
X15864Y30132D01*
X15967Y30915D01*
X15864Y31698D01*
X15562Y32428D01*
X15081Y33055D01*
X14454Y33536D01*
X13724Y33838D01*
X13608Y33853D01*
X13450Y34012D01*
Y42350D01*
X13928Y42496D01*
X14204Y42083D01*
X15031Y41530D01*
X16006Y41336D01*
X16982Y41530D01*
X17809Y42083D01*
X18361Y42910D01*
X18555Y43885D01*
X18361Y44861D01*
X17809Y45688D01*
X16982Y46240D01*
X16006Y46434D01*
X15031Y46240D01*
X14204Y45688D01*
X13928Y45275D01*
X13450Y45420D01*
Y50388D01*
X13256Y51364D01*
X12703Y52191D01*
X8415Y56479D01*
X8399Y56596D01*
X8097Y57326D01*
X7616Y57952D01*
X6989Y58433D01*
X6260Y58735D01*
X5476Y58838D01*
X4693Y58735D01*
X3963Y58433D01*
X3337Y57952D01*
X2856Y57326D01*
X2668Y56873D01*
X2178Y56970D01*
Y157104D01*
X2607Y157361D01*
X3264Y157010D01*
X4559Y156617D01*
X5906Y156484D01*
X7252Y156617D01*
X8546Y157010D01*
X9740Y157648D01*
X10785Y158506D01*
X11644Y159552D01*
X12281Y160745D01*
X12674Y162039D01*
X12807Y163386D01*
X12674Y164732D01*
X12281Y166027D01*
X11930Y166684D01*
X12187Y167113D01*
X73416D01*
X73607Y166651D01*
X70386Y163430D01*
X69889Y162686D01*
X69714Y161808D01*
Y159938D01*
X69387Y159513D01*
X69085Y158783D01*
X68982Y158000D01*
X69085Y157217D01*
X69387Y156487D01*
X69868Y155860D01*
X70495Y155379D01*
X71225Y155077D01*
X72008Y154974D01*
X72791Y155077D01*
X73521Y155379D01*
X73851Y155633D01*
X74299Y155412D01*
Y151561D01*
X74454Y150781D01*
X74897Y150120D01*
X101158Y123858D01*
X101820Y123416D01*
X102600Y123261D01*
X111788D01*
X112105Y122874D01*
X112034Y122518D01*
X111555Y122039D01*
X73545D01*
X60442Y135142D01*
X59780Y135584D01*
X59000Y135739D01*
X55000D01*
X54220Y135584D01*
X53558Y135142D01*
X51158Y132742D01*
X50716Y132080D01*
X50561Y131300D01*
Y122848D01*
X50245Y122376D01*
X50051Y121400D01*
X50245Y120424D01*
X50798Y119598D01*
X51625Y119045D01*
X52600Y118851D01*
X53575Y119045D01*
X54402Y119598D01*
X54955Y120424D01*
X55149Y121400D01*
X55029Y122003D01*
X55223Y122293D01*
X55367Y122437D01*
X56062Y122298D01*
X65030Y113330D01*
X65030D01*
X65030Y113330D01*
X65030Y113330D01*
Y113330D01*
X65659Y112910D01*
X66400Y112763D01*
X113499D01*
X114125Y112345D01*
X115100Y112151D01*
X116076Y112345D01*
X116902Y112898D01*
X117455Y113725D01*
X117649Y114700D01*
X117555Y115174D01*
X117872Y115561D01*
X127000D01*
X127780Y115716D01*
X128442Y116158D01*
X128442Y116158D01*
X128442Y116158D01*
X130845Y118561D01*
X133808D01*
X134125Y118174D01*
X133951Y117300D01*
X134145Y116324D01*
X134698Y115498D01*
X135524Y114945D01*
X136500Y114751D01*
X137476Y114945D01*
X138302Y115498D01*
X138855Y116324D01*
X139049Y117300D01*
X138855Y118275D01*
X139007Y118561D01*
X146055D01*
X146798Y117818D01*
X146563Y117377D01*
X146200Y117449D01*
X145224Y117255D01*
X144398Y116702D01*
X143845Y115875D01*
X143651Y114900D01*
X143845Y113925D01*
X144398Y113098D01*
X145224Y112545D01*
X146200Y112351D01*
X147176Y112545D01*
X148002Y113098D01*
X148555Y113925D01*
X148749Y114900D01*
X149231Y114996D01*
X149245Y114925D01*
X149798Y114098D01*
X150625Y113545D01*
X151600Y113351D01*
X152576Y113545D01*
X153402Y114098D01*
X153955Y114925D01*
X154149Y115900D01*
X153955Y116876D01*
X153402Y117702D01*
X152576Y118255D01*
X152018Y118366D01*
X148342Y122042D01*
X147680Y122484D01*
X146900Y122639D01*
X130000D01*
X129220Y122484D01*
X128558Y122042D01*
X126155Y119639D01*
X116178D01*
X116033Y120118D01*
X116302Y120298D01*
X116855Y121124D01*
X117049Y122100D01*
X116855Y123075D01*
X116954Y123261D01*
X152906D01*
X153141Y122820D01*
X153045Y122676D01*
X152851Y121700D01*
X153045Y120724D01*
X153598Y119898D01*
X154425Y119345D01*
X155400Y119151D01*
X156376Y119345D01*
X157202Y119898D01*
X157755Y120724D01*
X157949Y121700D01*
X157755Y122676D01*
X157384Y123231D01*
X157400Y123261D01*
X158180Y123416D01*
X158842Y123858D01*
X163242Y128258D01*
X163684Y128920D01*
X163839Y129700D01*
Y150300D01*
X163684Y151080D01*
X163242Y151742D01*
X157699Y157284D01*
X157038Y157727D01*
X156257Y157882D01*
X149830D01*
X149049Y157727D01*
X148388Y157284D01*
X145758Y154655D01*
X145316Y153993D01*
X145161Y153213D01*
Y147500D01*
X145161Y147500D01*
X145161D01*
X145316Y146720D01*
X145758Y146058D01*
X147861Y143955D01*
Y143748D01*
X147545Y143275D01*
X147351Y142300D01*
X147545Y141324D01*
X148098Y140498D01*
X148925Y139945D01*
X149900Y139751D01*
X150875Y139945D01*
X151702Y140498D01*
X152255Y141324D01*
X152449Y142300D01*
X152255Y143275D01*
X151939Y143748D01*
Y144800D01*
X151939Y144800D01*
X151784Y145580D01*
X151342Y146242D01*
X149239Y148345D01*
Y150293D01*
X149440Y150457D01*
X149701Y150566D01*
X150208Y150058D01*
X150870Y149616D01*
X151650Y149461D01*
X154264D01*
X154500Y149020D01*
X154415Y148892D01*
X154220Y147917D01*
X154415Y146941D01*
X154730Y146469D01*
Y138614D01*
X151555Y135439D01*
X128045D01*
X117513Y145971D01*
X116852Y146413D01*
X116071Y146568D01*
X115076D01*
X114603Y146884D01*
X114258Y146952D01*
Y147174D01*
X115085Y147726D01*
X115637Y148553D01*
X115831Y149529D01*
X115637Y150504D01*
X115085Y151331D01*
X114258Y151884D01*
X113282Y152078D01*
X112307Y151884D01*
X111834Y151568D01*
X111100D01*
X110320Y151413D01*
X109658Y150971D01*
X108058Y149371D01*
X107616Y148709D01*
X107461Y147929D01*
Y142500D01*
X107461Y142500D01*
X107461D01*
X107616Y141720D01*
X108058Y141058D01*
X112315Y136801D01*
X112124Y136339D01*
X104645D01*
X87039Y153945D01*
Y155783D01*
X87140Y155860D01*
X87621Y156487D01*
X87923Y157217D01*
X88026Y158000D01*
X87923Y158783D01*
X87621Y159513D01*
X87140Y160140D01*
X86513Y160620D01*
X85783Y160923D01*
X85000Y161026D01*
X84217Y160923D01*
X83487Y160620D01*
X82860Y160140D01*
X82809D01*
X82182Y160620D01*
X81452Y160923D01*
X80669Y161026D01*
X79886Y160923D01*
X79156Y160620D01*
X78530Y160140D01*
X78478D01*
X77851Y160620D01*
X77122Y160923D01*
X76338Y161026D01*
X75555Y160923D01*
X74826Y160620D01*
X74750Y160563D01*
X74302Y160784D01*
Y160858D01*
X76939Y163495D01*
X129361D01*
X137406Y155450D01*
Y140638D01*
X137316Y140504D01*
X137122Y139529D01*
X137316Y138553D01*
X137869Y137726D01*
X138696Y137174D01*
X139671Y136980D01*
X140647Y137174D01*
X141474Y137726D01*
X142026Y138553D01*
X142220Y139529D01*
X142026Y140504D01*
X141994Y140552D01*
Y156400D01*
X141820Y157278D01*
X141322Y158022D01*
X139907Y159438D01*
X140224Y159824D01*
X140791Y159445D01*
X141767Y159251D01*
X142742Y159445D01*
X143569Y159998D01*
X144122Y160825D01*
X144316Y161800D01*
X144122Y162776D01*
X143569Y163602D01*
X142742Y164155D01*
X141767Y164349D01*
X140791Y164155D01*
X139964Y163602D01*
X139412Y162776D01*
X139218Y161800D01*
X139412Y160825D01*
X139791Y160257D01*
X139404Y159940D01*
X135902Y163443D01*
X135900Y163451D01*
X136875Y163645D01*
D01*
X136875D01*
X136875Y163645D01*
X137702Y164198D01*
X138255Y165024D01*
X138449Y166000D01*
X138255Y166975D01*
X138329Y167113D01*
X157104D01*
X157361Y166684D01*
D02*
G37*
%LPC*%
G36*
X138516Y8821D02*
X137540Y8627D01*
X136713Y8074D01*
X136161Y7247D01*
X135967Y6272D01*
X136161Y5296D01*
X136713Y4469D01*
X137540Y3917D01*
X138516Y3723D01*
X139491Y3917D01*
X140318Y4469D01*
X140871Y5296D01*
X141065Y6272D01*
X140871Y7247D01*
X140318Y8074D01*
X139491Y8627D01*
X138516Y8821D01*
D02*
G37*
G36*
X53208Y70402D02*
X52294Y70282D01*
X51443Y69929D01*
X50712Y69368D01*
X50151Y68637D01*
X49798Y67786D01*
X49678Y66872D01*
X49798Y65958D01*
X50151Y65107D01*
X50712Y64376D01*
X51443Y63815D01*
X52294Y63462D01*
X53208Y63342D01*
X54122Y63462D01*
X54973Y63815D01*
X55704Y64376D01*
X56265Y65107D01*
X56618Y65958D01*
X56738Y66872D01*
X56618Y67786D01*
X56265Y68637D01*
X55704Y69368D01*
X54973Y69929D01*
X54122Y70282D01*
X53208Y70402D01*
D02*
G37*
G36*
X89320Y60201D02*
X88344Y60006D01*
X87517Y59454D01*
X86965Y58627D01*
X86781Y57701D01*
X86181Y57582D01*
X85354Y57029D01*
X84802Y56202D01*
X84608Y55227D01*
X84802Y54251D01*
X85354Y53424D01*
X86181Y52872D01*
X87157Y52678D01*
X88132Y52872D01*
X88959Y53424D01*
X89512Y54251D01*
X89696Y55177D01*
X90295Y55296D01*
X91122Y55849D01*
X91675Y56676D01*
X91869Y57652D01*
X91675Y58627D01*
X91122Y59454D01*
X90295Y60006D01*
X89320Y60201D01*
D02*
G37*
G36*
X144102Y8935D02*
X143127Y8741D01*
X142300Y8188D01*
X141747Y7361D01*
X141553Y6386D01*
X141747Y5410D01*
X142300Y4583D01*
X143127Y4031D01*
X144102Y3837D01*
X145078Y4031D01*
X145905Y4583D01*
X146457Y5410D01*
X146651Y6386D01*
X146457Y7361D01*
X145905Y8188D01*
X145078Y8741D01*
X144102Y8935D01*
D02*
G37*
G36*
X71634Y30617D02*
X70659Y30423D01*
X69832Y29870D01*
X69279Y29043D01*
X69085Y28068D01*
X69279Y27092D01*
X69832Y26265D01*
X70659Y25713D01*
X71634Y25519D01*
X72610Y25713D01*
X73437Y26265D01*
X73989Y27092D01*
X74183Y28068D01*
X73989Y29043D01*
X73437Y29870D01*
X72610Y30423D01*
X71634Y30617D01*
D02*
G37*
G36*
X114495Y52052D02*
X113519Y51858D01*
X112692Y51305D01*
X112140Y50479D01*
X111946Y49503D01*
X112140Y48528D01*
X112692Y47701D01*
X113519Y47148D01*
X114495Y46954D01*
X115470Y47148D01*
X116297Y47701D01*
X116850Y48528D01*
X117043Y49503D01*
X116850Y50479D01*
X116297Y51305D01*
X115470Y51858D01*
X114495Y52052D01*
D02*
G37*
G36*
X55100Y109749D02*
X54124Y109555D01*
X53298Y109002D01*
X52745Y108176D01*
X52551Y107200D01*
X52745Y106225D01*
X53298Y105398D01*
X54124Y104845D01*
X55100Y104651D01*
X56076Y104845D01*
X56902Y105398D01*
X57455Y106225D01*
X57649Y107200D01*
X57455Y108176D01*
X56902Y109002D01*
X56076Y109555D01*
X55100Y109749D01*
D02*
G37*
G36*
X13437Y109492D02*
X12462Y109298D01*
X11635Y108746D01*
X11082Y107919D01*
X10888Y106943D01*
X11082Y105968D01*
X11635Y105141D01*
X12462Y104588D01*
X13437Y104394D01*
X14413Y104588D01*
X15240Y105141D01*
X15792Y105968D01*
X15986Y106943D01*
X15792Y107919D01*
X15240Y108746D01*
X14413Y109298D01*
X13437Y109492D01*
D02*
G37*
G36*
X147633Y164349D02*
X146658Y164155D01*
X145831Y163602D01*
X145278Y162776D01*
X145084Y161800D01*
X145278Y160825D01*
X145831Y159998D01*
X146658Y159445D01*
X147633Y159251D01*
X148609Y159445D01*
X149436Y159998D01*
X149988Y160825D01*
X150182Y161800D01*
X149988Y162776D01*
X149436Y163602D01*
X148609Y164155D01*
X147633Y164349D01*
D02*
G37*
G36*
X38200Y145449D02*
X37225Y145255D01*
X36398Y144702D01*
X35845Y143876D01*
X35651Y142900D01*
X35845Y141925D01*
X36398Y141098D01*
X36718Y140883D01*
Y140383D01*
X36598Y140302D01*
X36045Y139476D01*
X35851Y138500D01*
X36045Y137524D01*
X36598Y136698D01*
X36789Y136569D01*
X36887Y136079D01*
X36360Y135290D01*
X36166Y134315D01*
X36360Y133340D01*
X36913Y132512D01*
X37739Y131960D01*
X38715Y131766D01*
X39690Y131960D01*
X40517Y132512D01*
X41070Y133340D01*
X41264Y134315D01*
X41070Y135290D01*
X40517Y136117D01*
X40202Y136328D01*
Y136698D01*
X40755Y137524D01*
X40949Y138500D01*
X40755Y139476D01*
X40202Y140302D01*
X39882Y140517D01*
Y141017D01*
X40002Y141098D01*
X40555Y141925D01*
X40749Y142900D01*
X40555Y143876D01*
X40002Y144702D01*
X39176Y145255D01*
X38200Y145449D01*
D02*
G37*
G36*
X147401Y73572D02*
X146425Y73378D01*
X145598Y72825D01*
X145046Y71998D01*
X144852Y71023D01*
X145046Y70047D01*
X145598Y69221D01*
X146425Y68668D01*
X147401Y68474D01*
X148376Y68668D01*
X149203Y69221D01*
X149756Y70047D01*
X149950Y71023D01*
X149756Y71998D01*
X149203Y72825D01*
X148376Y73378D01*
X147401Y73572D01*
D02*
G37*
G36*
X44881Y72672D02*
X44098Y72569D01*
X43368Y72267D01*
X42742Y71786D01*
X42261Y71159D01*
X41958Y70429D01*
X41855Y69646D01*
X41958Y68863D01*
X42261Y68133D01*
X42742Y67507D01*
X43368Y67026D01*
X44098Y66724D01*
X44881Y66620D01*
X45664Y66724D01*
X46394Y67026D01*
X47021Y67507D01*
X47502Y68133D01*
X47804Y68863D01*
X47907Y69646D01*
X47804Y70429D01*
X47502Y71159D01*
X47021Y71786D01*
X46394Y72267D01*
X45664Y72569D01*
X44881Y72672D01*
D02*
G37*
G36*
X79435Y109005D02*
X78459Y108811D01*
X77632Y108259D01*
X77080Y107432D01*
X76886Y106456D01*
X77080Y105481D01*
X77632Y104654D01*
X78459Y104101D01*
X79435Y103907D01*
X80410Y104101D01*
X81237Y104654D01*
X81790Y105481D01*
X81984Y106456D01*
X81790Y107432D01*
X81237Y108259D01*
X80410Y108811D01*
X79435Y109005D01*
D02*
G37*
G36*
X9822Y104678D02*
X8846Y104484D01*
X8019Y103932D01*
X7467Y103105D01*
X7273Y102129D01*
X7467Y101154D01*
X8019Y100327D01*
X8846Y99775D01*
X9822Y99581D01*
X10797Y99775D01*
X11624Y100327D01*
X12177Y101154D01*
X12371Y102129D01*
X12177Y103105D01*
X11624Y103932D01*
X10797Y104484D01*
X9822Y104678D01*
D02*
G37*
%LPD*%
D10*
X130311Y165789D02*
X139700Y156400D01*
X75989Y165789D02*
X130311D01*
X72008Y158000D02*
Y161808D01*
X75989Y165789D01*
X139700Y139529D02*
Y156400D01*
D11*
X5476Y55813D02*
X10901Y50388D01*
Y32956D02*
X12941Y30915D01*
X10901Y32956D02*
Y50388D01*
X69627Y51995D02*
X71573Y50050D01*
Y45823D02*
Y50050D01*
X49800Y24050D02*
X71573Y45823D01*
X26293Y29100D02*
X31343Y24050D01*
X20067Y29100D02*
X26293D01*
X69627Y67742D02*
X74250Y72364D01*
X69627Y51995D02*
Y67742D01*
X74250Y72364D02*
X102067D01*
X31343Y24050D02*
X49800D01*
X97516Y9352D02*
X104272D01*
D41*
X97472Y13288D02*
X134347D01*
X138988Y17929D01*
X37176Y66374D02*
X46746Y56803D01*
X25706Y66374D02*
X37176D01*
X89754Y47212D02*
X94219D01*
X106341Y59333D01*
X8865Y26851D02*
X24313Y11403D01*
X47292D01*
X118716Y59333D02*
X125191Y65809D01*
X106341Y59333D02*
X118716D01*
X125191Y65809D02*
X148287D01*
X153249Y60846D01*
X68396Y32507D02*
Y35742D01*
X47292Y11403D02*
X68396Y32507D01*
X88348Y4165D02*
X97472Y13288D01*
X83031Y4165D02*
X88348D01*
X80935Y6261D02*
X82187Y5009D01*
X83031Y4165D01*
X78379Y8816D02*
X82187Y5009D01*
X78379Y8816D02*
Y8816D01*
X56300Y124800D02*
X66400Y114700D01*
X115100D01*
D42*
X38230Y98224D02*
X100467D01*
X102956Y95736D01*
X140310Y79505D02*
Y80112D01*
X133013Y22344D02*
X137514Y26845D01*
X85000Y153100D02*
Y158000D01*
X80669Y150831D02*
Y158000D01*
Y150831D02*
X103800Y127700D01*
X156300D01*
X76338Y151561D02*
Y158000D01*
X147200Y153213D02*
X149830Y155842D01*
X147200Y147500D02*
Y153213D01*
Y147500D02*
X149900Y144800D01*
Y142300D02*
Y144800D01*
X76338Y151561D02*
X102600Y125300D01*
X157400D01*
X115200Y101600D02*
Y103800D01*
X105400Y91800D02*
X115200Y101600D01*
X79400Y91800D02*
X105400D01*
X76900Y87400D02*
Y89300D01*
X79400Y91800D01*
X115200Y101600D02*
Y108400D01*
X89373Y22344D02*
X133013D01*
X56300Y130100D02*
X68800Y117600D01*
X127000D02*
X130000Y120600D01*
X146900D01*
X151600Y115900D01*
X68800Y117600D02*
X127000D01*
X140310Y80112D02*
Y105890D01*
X33637Y97545D02*
X36082Y95100D01*
X70600D01*
X72400Y86900D02*
Y93300D01*
X70600Y95100D02*
X72400Y93300D01*
X139600Y106600D02*
X140310Y105890D01*
X93866Y80611D02*
X95777Y78700D01*
X138898D02*
X140310Y80112D01*
X95777Y78700D02*
X138898D01*
X100108Y81140D02*
X133940D01*
X136265Y83465D02*
Y87164D01*
X133940Y81140D02*
X136265Y83465D01*
X111100Y149529D02*
X113282D01*
X109500Y147929D02*
X111100Y149529D01*
X109500Y142500D02*
Y147929D01*
Y142500D02*
X115400Y136600D01*
X85000Y153100D02*
X103800Y134300D01*
X52600Y121400D02*
Y131300D01*
X55000Y133700D01*
X59000D01*
X72700Y120000D01*
X112400D02*
X114500Y122100D01*
X72700Y120000D02*
X112400D01*
X72400Y86900D02*
X74100Y85200D01*
X80700D01*
X84900Y89400D01*
X109400D01*
X121900Y101900D01*
X133900D01*
X68500Y86800D02*
X74689Y80611D01*
X93866D01*
X150083Y153068D02*
X151650Y151500D01*
X157000D01*
X160300Y148200D01*
X156300Y127700D02*
X160300Y131700D01*
Y148200D01*
X149830Y155842D02*
X156257D01*
X157400Y125300D02*
X161800Y129700D01*
Y150300D01*
X156257Y155842D02*
X161800Y150300D01*
X103800Y134300D02*
X118600D01*
X123200Y129700D02*
X141700D01*
X141900Y129900D01*
X118600Y134300D02*
X123200Y129700D01*
X115400Y136600D02*
X120600D01*
X113628Y144529D02*
X116071D01*
X153282Y131900D02*
X153832Y131350D01*
X152400Y133400D02*
X156770Y137769D01*
Y147917D01*
X127200Y133400D02*
X152400D01*
X116071Y144529D02*
X127200Y133400D01*
X125300Y131900D02*
X153282D01*
X120600Y136600D02*
X125300Y131900D01*
X153741Y131259D02*
X153800Y131200D01*
D43*
X10630Y5906D02*
G03*
X10630Y5906I-4724J0D01*
G01*
X168110Y163386D02*
G03*
X168110Y163386I-4724J0D01*
G01*
X10630D02*
G03*
X10630Y163386I-4724J0D01*
G01*
X168110Y5906D02*
G03*
X168110Y5906I-4724J0D01*
G01*
X0Y-74D02*
X169291Y-0D01*
Y169291D01*
X-0D02*
X0Y0D01*
X-0Y169291D02*
X169291D01*
X168484Y168484D02*
X169291Y169291D01*
D44*
X33690Y58167D02*
X44965Y46892D01*
X97332Y15409D02*
X131947D01*
X47147Y40100D02*
Y46324D01*
Y40100D02*
X48898Y38348D01*
X33994Y59478D02*
X47147Y46324D01*
X44965Y38669D02*
Y46892D01*
Y38669D02*
X47484Y36149D01*
X131947Y15409D02*
X139330Y22792D01*
X153099D01*
X150176Y25074D02*
X152779Y27677D01*
X130566Y17391D02*
X138250Y25074D01*
X150176D01*
X72912Y39585D02*
X81848Y30648D01*
X86633Y7951D02*
X96074Y17391D01*
X130566D01*
X68772Y17600D02*
X79454Y28282D01*
X125628D02*
X136226Y38880D01*
Y46318D01*
X129867Y52677D02*
X136226Y46318D01*
X79454Y28282D02*
X125628D01*
X81848Y30648D02*
X107282D01*
X125834D02*
X134764Y39579D01*
Y45052D01*
X127052Y52763D02*
X134764Y45052D01*
X107282Y30648D02*
X125834D01*
X127052Y54862D02*
X129867Y57677D01*
X127052Y52763D02*
Y54862D01*
X87413Y5490D02*
X97332Y15409D01*
X81499Y8756D02*
X84765Y5490D01*
X87413D01*
X10364Y84148D02*
X13391Y81122D01*
X6260Y84789D02*
X11547Y79502D01*
X13391Y71742D02*
Y81122D01*
X25655Y59478D02*
X33994D01*
X13391Y71742D02*
X25655Y59478D01*
X11547Y71882D02*
Y79502D01*
X25261Y58167D02*
X33690D01*
X11547Y71882D02*
X25261Y58167D01*
X86509Y40845D02*
X132200D01*
X83903Y40225D02*
X85889D01*
X86509Y40845D01*
X68772Y13154D02*
X71656Y10270D01*
X68772Y13154D02*
Y17600D01*
D46*
X147600Y79300D02*
D03*
X149900Y90000D02*
D03*
X161200Y125500D02*
D03*
X165100Y133800D02*
D03*
X165500Y139800D02*
D03*
Y145900D02*
D03*
X156700Y158300D02*
D03*
X110100Y157100D02*
D03*
X118800Y130600D02*
D03*
X96900Y82200D02*
D03*
X92000Y84500D02*
D03*
X20000Y86300D02*
D03*
X24200Y72100D02*
D03*
X33800Y144200D02*
D03*
X38100Y123200D02*
D03*
X104800Y19800D02*
D03*
X106800Y4300D02*
D03*
X101500Y4200D02*
D03*
X115600Y38500D02*
D03*
X163300Y16600D02*
D03*
X156100Y15600D02*
D03*
X148300Y15200D02*
D03*
X156900Y65000D02*
D03*
X114700Y45400D02*
D03*
X104700Y62900D02*
D03*
X114100Y56800D02*
D03*
X113400Y63200D02*
D03*
X96100Y76200D02*
D03*
X136400Y69600D02*
D03*
X122400Y67300D02*
D03*
X126300Y71700D02*
D03*
X140300Y72400D02*
D03*
X164500Y74800D02*
D03*
X158700Y71300D02*
D03*
X153400Y69100D02*
D03*
X149300Y75600D02*
D03*
X163100Y96400D02*
D03*
X162000Y102300D02*
D03*
X160600Y119300D02*
D03*
X163700Y123600D02*
D03*
X119000Y109400D02*
D03*
X119100Y121800D02*
D03*
X126683Y147028D02*
D03*
X111600Y162300D02*
D03*
X8000Y119800D02*
D03*
X4000Y120500D02*
D03*
X4600Y127500D02*
D03*
X7800Y147300D02*
D03*
X4400Y151000D02*
D03*
X9000Y152200D02*
D03*
X11600Y147900D02*
D03*
X11200Y143100D02*
D03*
X6000Y142600D02*
D03*
X42300Y158300D02*
D03*
X30700Y111700D02*
D03*
X27000Y115600D02*
D03*
X36800Y101500D02*
D03*
X30600Y94800D02*
D03*
X58300Y79500D02*
D03*
X62100Y83500D02*
D03*
X56700Y83600D02*
D03*
X53100Y80900D02*
D03*
X40600Y76700D02*
D03*
X26400Y77500D02*
D03*
X27800Y55200D02*
D03*
X24100Y56200D02*
D03*
X20300Y10200D02*
D03*
X26100Y16200D02*
D03*
X16000Y6200D02*
D03*
X3900Y16600D02*
D03*
X66300Y16400D02*
D03*
X52500Y20900D02*
D03*
X72900Y42400D02*
D03*
X77400Y38700D02*
D03*
X71300Y32400D02*
D03*
X30511Y43187D02*
D03*
X34358Y92169D02*
D03*
X12429Y111765D02*
D03*
X4287Y111562D02*
D03*
X3542Y79562D02*
D03*
X13384Y101957D02*
D03*
X65961Y58395D02*
D03*
X38080Y70252D02*
D03*
X101455Y58908D02*
D03*
X58219Y70307D02*
D03*
X70607Y24702D02*
D03*
X118580Y84274D02*
D03*
X114258Y67451D02*
D03*
X91608Y49863D02*
D03*
X91870Y24557D02*
D03*
X43628Y63301D02*
D03*
X66209Y46892D02*
D03*
X97516Y9352D02*
D03*
X69627Y51995D02*
D03*
X85879Y37725D02*
D03*
X95796Y24507D02*
D03*
X91196Y3032D02*
D03*
X61924Y3847D02*
D03*
X71634Y28068D02*
D03*
X144102Y6386D02*
D03*
X83903Y40225D02*
D03*
X83491Y44406D02*
D03*
X83519Y46995D02*
D03*
X89754Y47212D02*
D03*
X78379Y8816D02*
D03*
X138988Y17929D02*
D03*
X153099Y22792D02*
D03*
X152779Y27677D02*
D03*
X81499Y8756D02*
D03*
X86633Y7951D02*
D03*
X72912Y39585D02*
D03*
X71656Y10270D02*
D03*
X68396Y35742D02*
D03*
X28431Y64055D02*
D03*
X32045Y62574D02*
D03*
X48898Y38348D02*
D03*
X47484Y36149D02*
D03*
X102956Y95736D02*
D03*
X46746Y56803D02*
D03*
X25706Y66374D02*
D03*
X43765Y52340D02*
D03*
X46028Y53835D02*
D03*
X16006Y43885D02*
D03*
X10364Y84148D02*
D03*
X6260Y84789D02*
D03*
X13437Y106943D02*
D03*
X9822Y102129D02*
D03*
X99372Y47071D02*
D03*
X102678Y37426D02*
D03*
X111090Y67028D02*
D03*
X106215Y67453D02*
D03*
X113628Y144529D02*
D03*
X150083Y153068D02*
D03*
X149900Y142300D02*
D03*
X156770Y147917D02*
D03*
X113282Y149529D02*
D03*
X89379Y22252D02*
D03*
X137514Y26845D02*
D03*
X135561Y93736D02*
D03*
X140310Y80112D02*
D03*
X136265Y87164D02*
D03*
X100108Y81140D02*
D03*
X88084Y49773D02*
D03*
X38230Y98224D02*
D03*
X76900Y87400D02*
D03*
X89320Y57652D02*
D03*
X87900Y86000D02*
D03*
X87343Y23939D02*
D03*
X79435Y106456D02*
D03*
X50618Y84900D02*
D03*
X104338Y53413D02*
D03*
X114495Y49503D02*
D03*
X115392Y70756D02*
D03*
X93866Y80611D02*
D03*
X30511Y51247D02*
D03*
X34667Y51110D02*
D03*
X41305Y47518D02*
D03*
X41994Y58309D02*
D03*
X42443Y36052D02*
D03*
X39984Y33928D02*
D03*
X153249Y60846D02*
D03*
X129867Y57677D02*
D03*
X129867Y52677D02*
D03*
X132200Y40845D02*
D03*
X104144Y46903D02*
D03*
X87157Y55227D02*
D03*
X101928Y19827D02*
D03*
X8865Y26851D02*
D03*
X3131Y48248D02*
D03*
X20951Y57471D02*
D03*
X9091Y69358D02*
D03*
X67768Y3626D02*
D03*
X138516Y6272D02*
D03*
X77948Y49397D02*
D03*
X88654Y35906D02*
D03*
X30097Y101100D02*
D03*
X6433Y93000D02*
D03*
X9776Y30469D02*
D03*
X2654Y36480D02*
D03*
X42598Y4429D02*
D03*
X38200Y142900D02*
D03*
X38400Y138500D02*
D03*
X38715Y134315D02*
D03*
X153832Y131350D02*
D03*
X141900Y129900D02*
D03*
X139671Y139529D02*
D03*
X146200Y114900D02*
D03*
X136500Y117300D02*
D03*
X141767Y161800D02*
D03*
X147633D02*
D03*
X112600Y104000D02*
D03*
X115131Y108331D02*
D03*
X147401Y71023D02*
D03*
X56300Y130100D02*
D03*
Y124800D02*
D03*
X151600Y115900D02*
D03*
X115100Y114700D02*
D03*
X155400Y121700D02*
D03*
X139600Y106600D02*
D03*
X33637Y97545D02*
D03*
X72400Y86900D02*
D03*
X115600Y130100D02*
D03*
X52600Y121400D02*
D03*
X114500Y122100D02*
D03*
X133900Y101900D02*
D03*
X135900Y166000D02*
D03*
X68500Y86800D02*
D03*
X55100Y107200D02*
D03*
X62700Y144500D02*
D03*
X67600Y137200D02*
D03*
X72900Y136600D02*
D03*
X66700Y132200D02*
D03*
X72700Y132400D02*
D03*
X91300Y124900D02*
D03*
X61100Y115900D02*
D03*
X142483Y138825D02*
D03*
D47*
X28676Y7881D02*
D03*
X10542Y88525D02*
D03*
X53208Y66872D02*
D03*
X23334Y25089D02*
D03*
X47430Y19901D02*
D03*
X25294Y51463D02*
D03*
X41118Y28546D02*
D03*
D48*
X17100Y131200D02*
D03*
Y135500D02*
D03*
X16900Y140100D02*
D03*
X104272Y9170D02*
D03*
X61453Y20841D02*
D03*
X120500Y72600D02*
D03*
X119968Y93055D02*
D03*
X102067Y72364D02*
D03*
X44881Y69646D02*
D03*
X43075Y82941D02*
D03*
X6406Y29760D02*
D03*
X12941Y30915D02*
D03*
X5476Y55813D02*
D03*
X20067Y29100D02*
D03*
X63100Y88200D02*
D03*
X59300Y88300D02*
D03*
X55100Y88200D02*
D03*
X85000Y158000D02*
D03*
X80669D02*
D03*
X76338D02*
D03*
X72008D02*
D03*
D49*
X25294Y42738D02*
Y51463D01*
Y42738D02*
X39485Y28546D01*
X41118D01*
D50*
X16900Y131400D02*
X20250Y128050D01*
Y94550D02*
Y128050D01*
X26400Y88400D02*
X63100D01*
X20250Y94550D02*
X26400Y88400D01*
X16900Y131400D02*
Y140100D01*
D51*
X118001Y75099D02*
X120500Y72600D01*
X109821Y75099D02*
X118001D01*
X102067Y72364D02*
X107086D01*
X109821Y75099D01*
M02*
