G04 ================== begin FILE IDENTIFICATION RECORD ==================*
G04 Layout Name:  F:/projects/git/Hardware/magnetic/PCB/NODE/Node2.brd*
G04 Film Name:    TOP*
G04 File Format:  Gerber RS274X*
G04 File Origin:  Cadence Allegro 16.6-2015-S108*
G04 Origin Date:  Sun Nov 17 12:29:58 2019*
G04 *
G04 Layer:  BOARD GEOMETRY/OUTLINE*
G04 Layer:  ETCH/TOP*
G04 Layer:  PIN/TOP*
G04 Layer:  VIA CLASS/TOP*
G04 *
G04 Offset:    (0.000 0.000)*
G04 Mirror:    No*
G04 Mode:      Positive*
G04 Rotation:  0*
G04 FullContactRelief:  No*
G04 UndefLineWidth:     0.127*
G04 ================== end FILE IDENTIFICATION RECORD ====================*
%FSLAX31Y31*MOMM*%
%IR0*IPPOS*OFA0.00000B0.00000*MIA0B0*SFA1.00000B1.00000*%
%ADD21R,.499999X.499999*%
%ADD26R,.499999X.499999*%
%ADD22R,.799795X.960095*%
%ADD20R,.960095X.799795*%
%ADD14R,2.399995X1.950009*%
%ADD15C,4.399991*%
%ADD36R,.229997X.450012*%
%ADD38R,.450012X.229997*%
%ADD17R,.2X.750011*%
%ADD19R,.750011X.2*%
%ADD18C,.508*%
%ADD10C,.762*%
%ADD34R,.299999X.650011*%
%ADD33R,.650011X.299999*%
%ADD24C,1.499997*%
%ADD29R,.859993X.299999*%
%ADD31R,.299999X.859993*%
%ADD35R,.299999X.499999*%
%ADD30R,.650011X.550012*%
%ADD39C,1.500099*%
%ADD32R,.499999X.299999*%
%ADD27O,.799998X1.499997*%
%ADD23R,.550012X.399999*%
%ADD25R,1.399997X1.15001*%
%ADD37R,2.499995X2.499995*%
%ADD28R,1.799996X.999998*%
%ADD16R,1.399997X1.699997*%
%ADD11R,1.699997X1.399997*%
%ADD13R,.799998X.959993*%
%ADD12R,.959993X.799998*%
%ADD40C,.127*%
%ADD41C,.2032*%
%ADD42C,.254*%
%ADD43C,.3048*%
%ADD44C,.381*%
%ADD45C,.003226*%
%ADD46C,.299999*%
%ADD47C,.899998*%
%ADD53R,1.0541X1.21412*%
%ADD50C,1.754124*%
%ADD55C,1.754226*%
%ADD56R,1.053897X1.214171*%
%ADD54R,1.214171X1.053897*%
%ADD51R,1.214222X1.053897*%
%ADD48R,1.053897X1.214222*%
%ADD49R,1.214069X1.0541*%
%ADD52R,2.054098X1.2541*%
G75*
%LPD*%
G75*
G36*
G01X-125Y235D02*
Y248D01*
X-135D01*
Y235D01*
X-199D01*
X-212Y221D01*
Y206D01*
X-222D01*
X-242Y206D01*
G02X-243Y208I0J1D01*
G01X-186Y265D01*
X-231Y311D01*
G02X-231Y312I1J1D01*
G02X268Y281I231J-312D01*
G02X267Y280I-1J-1D01*
G03X279Y267I-9J-21D01*
G02X281Y269I1J0D01*
G02X312Y-231I-281J-269D01*
G02X311Y-231I-1J1D01*
G01X265Y-186D01*
X186Y-265D01*
X231Y-311D01*
G02X231Y-312I-1J-1D01*
G02X-268Y-282I-231J312D01*
G02X-267Y-280I1J1D01*
G03X-280Y-267I9J22D01*
G02X-281Y-268I-1J0D01*
G02X-312Y231I281J268D01*
G02X-311Y231I1J-1D01*
G01X-265Y186D01*
X-252Y199D01*
G02X-250Y198I1J-1D01*
G03X-242Y189I8J0D01*
G01X-227D01*
G03X-226Y189I1J8D01*
G01X-220D01*
Y188D01*
X-231D01*
Y175D01*
X-221D01*
Y178D01*
G02X-219Y179I1J0D01*
G01X-214Y173D01*
X-204D01*
G03X-200Y175I0J5D01*
G03X-200Y181I-4J3D01*
G01X-200Y182D01*
G03X-204Y184I-4J-3D01*
G01X-209D01*
X-210Y184D01*
Y189D01*
X-208D01*
Y185D01*
X-200D01*
Y190D01*
G03X-196Y197I-4J7D01*
G01Y214D01*
X-192Y218D01*
X-127D01*
X-124Y221D01*
G03X-125Y234I-6J6D01*
G02X-125Y235I1J1D01*
G37*
%LPC*%
G75*
G36*
G01X233Y190D02*
X229D01*
G03X228Y189I0J-1D01*
G01X238Y179D01*
G02X231Y171I1J-9D01*
G01X219Y184D01*
X145D01*
X133Y196D01*
X104D01*
Y113D01*
X93D01*
Y230D01*
X-27D01*
X-34Y223D01*
Y191D01*
X-22Y179D01*
Y128D01*
X76D01*
X88Y117D01*
Y94D01*
X88Y75D01*
X88Y74D01*
Y69D01*
X77D01*
Y74D01*
X77Y75D01*
X77Y90D01*
X77Y94D01*
X67D01*
Y29D01*
G02X66Y24I-5J-2D01*
G01X65Y23D01*
Y18D01*
G02X65Y16I-5J0D01*
G01X65Y11D01*
X54D01*
Y17D01*
G02X54Y18I5J1D01*
G01Y25D01*
G02X56Y28I5J0D01*
G01X56Y29D01*
X57Y30D01*
Y94D01*
X32D01*
Y44D01*
G02X24Y41I-5J0D01*
G03X22Y40I-1J-1D01*
G01Y37D01*
G02X14Y33I-5J0D01*
G03X12Y33I-1J-1D01*
G01Y32D01*
G02X2I-5J0D01*
G01Y36D01*
G03X0Y36I-1J0D01*
G01X-33Y2D01*
X-96D01*
X-125Y-27D01*
X-125Y-28D01*
G02X-143I-9J-1D01*
G01X-143Y-27D01*
X-151Y-19D01*
X-189D01*
G03X-190Y-20I0J-1D01*
G02X-189Y-22I-5J-1D01*
G01Y-26D01*
X-188D01*
Y-37D01*
X-200D01*
Y-26D01*
X-200Y-22D01*
G02X-199Y-20I5J0D01*
G03X-200Y-19I-1J0D01*
G01X-214D01*
X-218Y-14D01*
X-222D01*
G02X-225Y-13I0J5D01*
G03X-227Y-14I-1J-1D01*
G01Y-21D01*
X-231D01*
G03X-232Y-22I0J-1D01*
G01X-221Y-34D01*
Y-36D01*
X-215Y-42D01*
Y-45D01*
X-215Y-58D01*
X-225D01*
Y-46D01*
X-228Y-43D01*
X-231Y-46D01*
Y-58D01*
X-231Y-68D01*
X-229Y-68D01*
Y-63D01*
X-212D01*
Y-83D01*
X-229D01*
Y-78D01*
X-235D01*
X-241Y-72D01*
Y-58D01*
X-241Y-45D01*
X-241Y-42D01*
X-237Y-38D01*
X-247Y-27D01*
X-253Y-33D01*
Y-35D01*
X-249Y-39D01*
X-248Y-40D01*
Y-45D01*
X-248Y-57D01*
X-248Y-68D01*
X-258Y-78D01*
X-265D01*
Y-83D01*
X-282D01*
Y-63D01*
X-265D01*
Y-68D01*
X-263D01*
X-258Y-63D01*
Y-57D01*
X-258Y-45D01*
X-258Y-44D01*
X-260Y-42D01*
X-264Y-46D01*
Y-57D01*
X-274D01*
Y-45D01*
X-274Y-42D01*
X-267Y-34D01*
Y-26D01*
G02X-272Y-21I0J5D01*
G03X-274Y-20I-1J0D01*
G01X-284Y-31D01*
G02X-289Y-34I-5J2D01*
G01X-291D01*
X-298Y-41D01*
X-302D01*
X-314Y-41D01*
Y-30D01*
X-302D01*
X-299Y-27D01*
X-302Y-25D01*
X-314D01*
X-324Y-25D01*
X-325Y-26D01*
Y-30D01*
X-321D01*
Y-46D01*
X-340D01*
Y-30D01*
X-336D01*
Y-22D01*
X-328Y-14D01*
X-314D01*
X-302Y-14D01*
X-298Y-14D01*
X-293Y-19D01*
X-292D01*
X-277Y-3D01*
G03X-277Y-2I-1J1D01*
G01X-292D01*
X-298Y-7D01*
X-302D01*
X-314Y-7D01*
X-328Y-7D01*
X-336Y0D01*
Y6D01*
X-336Y7D01*
X-340D01*
Y23D01*
X-321D01*
Y7D01*
X-325D01*
Y4D01*
X-324Y3D01*
X-314D01*
X-302Y3D01*
X-300Y5D01*
X-303Y9D01*
X-314D01*
Y19D01*
X-302D01*
X-299Y19D01*
X-292Y12D01*
X-285D01*
G03X-284Y14I0J1D01*
G01X-301Y30D01*
Y41D01*
X-306Y47D01*
Y51D01*
X-306Y63D01*
X-296D01*
Y51D01*
X-292Y47D01*
X-290Y49D01*
Y51D01*
X-290Y63D01*
X-290Y69D01*
X-291Y70D01*
X-308D01*
Y92D01*
X-281D01*
Y75D01*
X-281Y74D01*
G03X-280Y75I0J0D01*
G01Y92D01*
X-253D01*
Y70D01*
X-265D01*
Y63D01*
X-265Y51D01*
X-262Y48D01*
X-260Y51D01*
Y63D01*
X-249D01*
Y51D01*
X-249Y47D01*
X-255Y42D01*
Y41D01*
X-247Y33D01*
X-234Y46D01*
G02X-233Y47I4J-4D01*
G01X-233Y52D01*
X-234D01*
Y63D01*
X-233D01*
Y81D01*
X-229Y85D01*
G02X-227Y85I4J-4D01*
G01X-227Y86D01*
X-226Y86D01*
G03X-225Y87I0J1D01*
G02X-225Y88I5J0D01*
G02X-223Y91I5J0D01*
G01X-223Y92D01*
G02X-220Y93I3J-4D01*
G01X-213D01*
G02Y83I0J-5D01*
G03X-214Y81I0J-1D01*
G01X-202Y81D01*
X-181Y102D01*
Y175D01*
X-189D01*
Y182D01*
X-181D01*
Y189D01*
X-185D01*
G02X-193Y197I0J8D01*
G01Y207D01*
G02X-176I8J0D01*
G01Y206D01*
X-149D01*
G02X-143Y203I0J-8D01*
G01X-131Y203D01*
X-123Y195D01*
Y150D01*
X-120Y148D01*
X-103D01*
G02X-101Y147I0J-6D01*
G01X-98Y147D01*
Y146D01*
X-97D01*
X-97Y147D01*
X-93D01*
X-81Y147D01*
X-77Y147D01*
Y148D01*
X-82Y152D01*
X-93D01*
Y163D01*
X-81D01*
X-78Y163D01*
X-67Y152D01*
Y144D01*
X-64Y141D01*
X-60D01*
Y166D01*
X-70D01*
G02Y176I0J5D01*
G01X-60D01*
Y181D01*
X-90D01*
Y180D01*
X-102D01*
Y191D01*
G03X-101Y193I0J1D01*
G02X-102Y196I4J3D01*
G01Y263D01*
X-107Y268D01*
X-108D01*
X-120Y268D01*
Y278D01*
X-119D01*
Y282D01*
X-119Y294D01*
X-109D01*
Y282D01*
X-109Y278D01*
X-108D01*
X-103Y278D01*
X-92Y268D01*
Y196D01*
G02X-93Y193I-5J0D01*
G03X-92Y191I1J-1D01*
G01X-90D01*
X-63Y191D01*
X-60Y191D01*
Y238D01*
X-49D01*
Y216D01*
X-45D01*
Y228D01*
X-37Y236D01*
X-42Y241D01*
Y242D01*
X-43Y243D01*
Y282D01*
X-52D01*
Y294D01*
X-43D01*
Y298D01*
X-46D01*
G02X-48Y298I0J6D01*
G01X-52Y298D01*
Y300D01*
G02X-53Y304I5J4D01*
G02X-52Y308I6J0D01*
G01Y310D01*
X-48D01*
G02X-46Y310I2J-6D01*
G01X-36D01*
G02X-31Y309I0J-6D01*
G01X-26Y303D01*
X-23D01*
G02X-23Y291I6J-6D01*
G01X-31D01*
X-32Y291D01*
X-32Y258D01*
X-13D01*
Y261D01*
X-13Y264D01*
X-13Y276D01*
X-3D01*
Y264D01*
X-3Y258D01*
X77D01*
Y266D01*
X71Y273D01*
X9D01*
X3Y279D01*
Y290D01*
G02X13I5J7D01*
G01Y283D01*
X75Y283D01*
X87Y271D01*
Y252D01*
G02X85Y248I-5J0D01*
G01Y247D01*
X-32D01*
Y245D01*
X-27Y241D01*
X124D01*
X130Y241D01*
X136Y241D01*
Y230D01*
X130D01*
X120Y230D01*
X116Y230D01*
Y226D01*
X127D01*
G02Y216I0J-5D01*
G01X108D01*
X104Y216D01*
Y211D01*
X142D01*
X153Y201D01*
X233D01*
G02Y190I7J-5D01*
G37*
G36*
G01X127Y292D02*
X66D01*
G02Y302I-7J5D01*
G01X127D01*
G02Y292I0J-5D01*
G37*
G36*
G01X-119Y202D02*
Y221D01*
X-119Y233D01*
X-119Y235D01*
X-119Y248D01*
X-119Y251D01*
X-120D01*
Y262D01*
X-108D01*
Y251D01*
X-109D01*
Y248D01*
X-109Y235D01*
X-109Y233D01*
X-109Y221D01*
X-109Y202D01*
G02X-119I-5J0D01*
G37*
G36*
G01X-112Y180D02*
X-118D01*
Y191D01*
X-106D01*
Y189D01*
G02X-112Y180I-3J-4D01*
G37*
G36*
G01X258Y42D02*
X258Y105D01*
X252Y111D01*
X242D01*
G02X242Y128I-3J8D01*
G01X259Y128D01*
X274Y112D01*
Y42D01*
G02X258Y42I-8J-3D01*
G37*
G36*
G01X-8Y23D02*
X4D01*
Y24D01*
X15D01*
Y12D01*
X4D01*
Y13D01*
X-8D01*
G02Y23I0J5D01*
G37*
G36*
G01X31Y23D02*
X32D01*
G02X34Y23I0J-5D01*
G01X38Y23D01*
Y24D01*
X49D01*
Y19D01*
G02X49Y16I-5J-2D01*
G01X49Y11D01*
X38D01*
Y12D01*
X32D01*
G03X31Y12I-1J-1D01*
G01X20D01*
Y17D01*
G02X20Y18I5J1D01*
G01X20Y19D01*
Y24D01*
X31D01*
Y23D01*
G37*
G36*
G01X-120Y-284D02*
Y-212D01*
X-129D01*
G02Y-202I-7J5D01*
G01X-114D01*
X-110Y-206D01*
Y-284D01*
G02X-120I-5J0D01*
G37*
G36*
G01X-93Y-192D02*
Y-341D01*
G02X-99Y-347I-6J0D01*
G01X-123D01*
X-142Y-328D01*
Y-289D01*
G02X-130I6J6D01*
G01Y-323D01*
X-118Y-334D01*
X-106D01*
Y-192D01*
G02X-93I6J0D01*
G37*
G36*
G01X-125Y282D02*
G03X-125Y280I0J-1D01*
G02X-130Y265I-4J-7D01*
G01X-165D01*
G02Y281I0J8D01*
G01X-135D01*
Y294D01*
X-125D01*
Y282D01*
G37*
G36*
G01X119Y111D02*
G02X129I5J0D01*
G01Y-313D01*
G02X124Y-318I-5J0D01*
G01X124Y-322D01*
G03X125Y-323I1J0D01*
G01X132Y-316D01*
Y120D01*
G02X142I5J0D01*
G01Y38D01*
G03X143Y37I1J0D01*
G02X149Y32I1J-5D01*
G01Y31D01*
X149Y-287D01*
G03X151Y-288I1J0D01*
G02X160Y-294I3J-6D01*
G01Y-324D01*
X133Y-351D01*
X83D01*
G02X77Y-344I0J6D01*
G03X76Y-343I-1J0D01*
G01X-13D01*
X-22Y-335D01*
Y-323D01*
G02Y-309I5J7D01*
G01Y-305D01*
X-18Y-300D01*
G03X-18Y-299I-1J1D01*
G02X-21Y-294I2J4D01*
G01Y-293D01*
G02X-25Y-292I-1J5D01*
G03X-26Y-293I-1J-1D01*
G02X-30Y-295I-4J3D01*
G01X-35D01*
G02X-40Y-294I-2J5D01*
G01X-41Y-294D01*
X-41Y-293D01*
X-42Y-292D01*
X-42Y-294D01*
X-50D01*
G03X-52Y-293I-1J0D01*
G01X-55Y-296D01*
X-57D01*
Y-299D01*
X-54Y-302D01*
X-48D01*
X-42Y-307D01*
G02X-51Y-317I0J-9D01*
G01X-51Y-316D01*
X-53Y-315D01*
X-58D01*
G03X-59Y-316I0J-1D01*
G02X-69Y-308I-9J-1D01*
G03X-68Y-306I0J1D01*
G01X-70Y-304D01*
Y-291D01*
G02X-69Y-288I6J0D01*
G01Y-285D01*
X-65D01*
G02X-62Y-285I2J-6D01*
G01X-59Y-285D01*
Y-281D01*
X-69D01*
Y-279D01*
G03X-70Y-278I-1J0D01*
G02X-78Y-275I-3J4D01*
G01Y-74D01*
X-63Y-60D01*
X-17D01*
X-8Y-51D01*
G03X-8Y-50I0J0D01*
G01X-9D01*
X-15Y-50D01*
G02X-19Y-48I0J6D01*
G01X-21Y-50D01*
X-30D01*
Y-56D01*
X-38D01*
Y-50D01*
X-45D01*
G02X-50Y-48I0J6D01*
G01X-52Y-50D01*
X-62D01*
Y-56D01*
X-69D01*
Y-48D01*
G02X-66Y-37I4J5D01*
G01X-61D01*
Y-27D01*
G02X-60Y-24I6J0D01*
G02X-49I5J0D01*
G02X-48Y-27I-5J-4D01*
G01Y-35D01*
X-48Y-36D01*
G03X-47Y-37I1J0D01*
G02X-45Y-37I1J-6D01*
G01X-32D01*
X-25Y-37D01*
G02X-19Y-39I1J-6D01*
G02X-15Y-37I4J-4D01*
G01X-4D01*
X3Y-37D01*
G02X14Y-48I0J-11D01*
G01Y-49D01*
G03X15Y-49I1J0D01*
G02X16Y-49I0J-5D01*
G01X17Y-49D01*
Y-50D01*
G02X19Y-54I-3J-4D01*
G01Y-61D01*
G03X20Y-63I1J-1D01*
G01X29D01*
X39Y-73D01*
Y-100D01*
X20Y-119D01*
Y-121D01*
X27D01*
Y-128D01*
X20D01*
Y-131D01*
X28D01*
Y-139D01*
G02X30Y-144I-4J-5D01*
G01Y-154D01*
X29Y-155D01*
Y-159D01*
G02X28Y-162I-6J0D01*
G01Y-168D01*
X26Y-170D01*
Y-171D01*
X27D01*
X28Y-171D01*
G02X31Y-169I3J-4D01*
G01X83D01*
G02Y-179I0J-5D01*
G01X80D01*
X80Y-180D01*
G02X75Y-184I-5J0D01*
G01X73D01*
G03X72Y-186I0J-1D01*
G02X71Y-194I-4J-4D01*
G03X71Y-196I1J-1D01*
G02X66Y-196I-2J-3D01*
G03X65Y-195I-1J1D01*
G01X63D01*
G02X58Y-200I-5J0D01*
G01X57D01*
G02X52Y-205I-5J0D01*
G03X51Y-205I-1J-1D01*
G02X43Y-212I-4J-3D01*
G01X41Y-210D01*
X36D01*
G02X36Y-211I-5J0D01*
G01X36Y-217D01*
G03X37Y-218I1J0D01*
G01X46D01*
X48Y-216D01*
X59D01*
Y-209D01*
X67D01*
Y-217D01*
G02X70Y-222I-4J-5D01*
G01Y-231D01*
X70Y-232D01*
X72D01*
G02X77Y-234I0J-6D01*
G01X85D01*
Y-242D01*
X79D01*
Y-252D01*
G02X78Y-253I-6J0D01*
G01X78Y-267D01*
G02X77Y-271I-6J0D01*
G01X77Y-273D01*
G02X80Y-278I-2J-5D01*
G01X81Y-278D01*
X82D01*
Y-267D01*
G02X83Y-264I6J0D01*
G01Y-261D01*
X86D01*
G02X90Y-261I2J-6D01*
G01X93Y-261D01*
Y-264D01*
G02X94Y-267I-5J-4D01*
G01Y-273D01*
X95Y-274D01*
Y-288D01*
X100D01*
G02X104Y-289I0J-6D01*
G03X105Y-288I1J1D01*
G01Y36D01*
X105Y44D01*
G02X116I5J0D01*
G01Y43D01*
G03X117Y42I1J0D01*
G02X119Y42I2J-5D01*
G03X119Y43I0J1D01*
G01Y111D01*
G37*
G54D53*
X-24Y270D03*
G54D50*
X-136Y-258D03*
Y-232D03*
X-134Y-80D03*
Y-54D03*
X34Y297D03*
X59Y-22D03*
X85D03*
X224Y-142D03*
Y-91D03*
Y-116D03*
Y-65D03*
X240Y145D03*
G54D55*
X240Y39D03*
G54D54*
X88Y-252D03*
G54D51*
X-130Y257D03*
X146Y236D03*
G54D48*
X-242Y182D03*
X-103Y157D03*
X82Y59D03*
G54D49*
X-194Y-47D03*
G54D52*
X-68Y-9D03*
X-42D03*
%LPD*%
G75*
G36*
G01X-238Y-11D02*
G03X-243Y-10I-3J-4D01*
G03X-247I-2J-5D01*
G03X-251I-2J-5D01*
G03X-254Y-10I-2J-5D01*
G01X-255Y-10D01*
Y-9D01*
G03X-255Y-7I-5J0D01*
G01X-255Y10D01*
G03X-255Y12I-5J1D01*
G01X-255Y14D01*
G03X-255Y16I-5J1D01*
G01X-255Y17D01*
X-254D01*
G03X-253Y17I1J5D01*
G01X-252Y17D01*
X-250D01*
G03X-249Y17I1J5D01*
G01X-248Y17D01*
X-242D01*
G03X-240Y17I1J5D01*
G03X-234Y17I3J4D01*
G01X-228D01*
Y16D01*
G03X-228Y14I5J-1D01*
G01X-228Y12D01*
G03X-228Y10I5J-1D01*
G01X-228Y8D01*
G03X-228Y6I5J-1D01*
G01X-228Y4D01*
G03X-228Y2I5J-1D01*
G01X-228Y-4D01*
G03X-228Y-6I5J-1D01*
G01X-228Y-8D01*
G03X-228Y-10I5J-1D01*
G01X-228Y-11D01*
X-238D01*
G37*
G36*
G01X-258Y21D02*
G02X-259Y20I-1J0D01*
G03X-260Y20I-1J-5D01*
G01X-269D01*
X-284Y35D01*
Y41D01*
X-280Y45D01*
Y51D01*
X-280Y63D01*
X-280Y70D01*
X-275D01*
Y63D01*
X-276D01*
Y51D01*
X-275D01*
Y47D01*
X-271Y43D01*
Y37D01*
X-258Y24D01*
Y22D01*
G03X-258Y21I5J0D01*
G37*
G36*
G01X-194Y27D02*
G02X-195Y29I0J1D01*
G01X-156Y68D01*
X-141D01*
G03Y78I7J5D01*
G01X-158D01*
G02X-159Y80I0J1D01*
G01X-145Y93D01*
X-141D01*
G03Y103I7J5D01*
G01X-149D01*
X-209Y44D01*
X-222D01*
Y52D01*
X-222Y63D01*
X-222Y68D01*
G02X-221Y69I1J0D01*
G03X-220Y68I2J6D01*
G01X-197D01*
X-169Y97D01*
Y175D01*
X-160D01*
Y188D01*
X-169D01*
Y189D01*
X-151D01*
G03X-143Y191I3J8D01*
G01X-136D01*
X-136Y190D01*
Y145D01*
X-126Y135D01*
X-109D01*
Y32D01*
G03X-109Y29I6J0D01*
G02X-110Y27I-1J0D01*
G01X-127D01*
G03X-141I-7J-5D01*
G01X-194D01*
G37*
G36*
G01X-141Y2D02*
X-146D01*
X-152Y-4D01*
X-188D01*
G02X-189Y-3I0J1D01*
G03X-190Y0I-5J0D01*
G02X-190Y2I1J1D01*
G01Y12D01*
X-202D01*
X-203Y12D01*
G02X-203Y13I0J1D01*
G01X-199Y17D01*
X-141D01*
G03X-127I7J5D01*
G01X-123D01*
G02X-123Y15I0J-1D01*
G01X-133Y5D01*
G03X-141Y2I-1J-9D01*
G37*
G36*
G01X-86Y114D02*
Y38D01*
X-97Y27D01*
X-98D01*
G02X-98Y28I0J1D01*
G03X-97Y32I-5J4D01*
G01Y136D01*
X-93D01*
X-81Y136D01*
X-76Y131D01*
X-77Y131D01*
X-80Y131D01*
G03X-81Y121I0J-5D01*
G02X-81Y119I0J-1D01*
G01X-86Y114D01*
G37*
G36*
G01X-42Y-276D02*
X-43Y-276D01*
Y-275D01*
G03X-47Y-274I-4J-4D01*
G01X-55Y-274D01*
X-56Y-275D01*
G02X-58Y-274I-1J1D01*
G01Y-269D01*
X-61D01*
G02X-61Y-267I0J1D01*
G03X-60Y-264I-3J4D01*
G01Y-78D01*
X-55Y-73D01*
X-10D01*
X-7Y-71D01*
G02X-5Y-71I1J-1D01*
G01Y-81D01*
G03X-3Y-85I6J0D01*
G02X-3Y-86I0J0D01*
G03X-5Y-90I5J-4D01*
G01Y-103D01*
X-4Y-105D01*
G03X-3Y-105I5J4D01*
G03X-4Y-106I4J-4D01*
G03X-15Y-106I-6J-4D01*
G01X-22D01*
Y-114D01*
X-16D01*
Y-118D01*
G03X-14Y-124I6J-1D01*
G03X-10Y-135I4J-4D01*
G01X-5D01*
Y-136D01*
X-11D01*
Y-144D01*
X-12Y-144D01*
G03X-17Y-153I1J-6D01*
G01X-18Y-153D01*
Y-147D01*
X-26D01*
Y-154D01*
X-30D01*
Y-147D01*
X-37D01*
Y-154D01*
X-36D01*
Y-155D01*
G03X-37Y-156I3J-4D01*
G02X-39Y-156I-1J1D01*
G03X-41Y-155I-5J-4D01*
G01Y-147D01*
X-48D01*
Y-155D01*
G03X-51Y-160I4J-5D01*
G01Y-167D01*
X-48Y-170D01*
G03X-46Y-171I4J4D01*
G01X-41Y-176D01*
X-31D01*
X-31Y-177D01*
G03X-32Y-178I2J-4D01*
G01X-33Y-178D01*
X-33Y-179D01*
X-34Y-179D01*
Y-178D01*
X-42D01*
Y-185D01*
X-34D01*
Y-191D01*
X-38D01*
Y-187D01*
X-47D01*
Y-195D01*
X-43D01*
G02X-43Y-196I0J-1D01*
G01X-44Y-197D01*
X-47D01*
X-50Y-197D01*
Y-189D01*
X-57D01*
Y-196D01*
X-56D01*
Y-197D01*
G03X-56Y-198I2J-4D01*
G01X-57Y-198D01*
X-57Y-199D01*
G03Y-204I4J-3D01*
G01X-57Y-205D01*
X-56Y-205D01*
G03X-54Y-206I3J4D01*
G01X-51D01*
X-40Y-206D01*
X-39Y-206D01*
X-38D01*
Y-204D01*
X-35Y-201D01*
X-33D01*
Y-206D01*
X-24D01*
Y-201D01*
X-23D01*
X-21Y-199D01*
X-10D01*
G02X-10Y-200I0J-1D01*
G01X-11Y-201D01*
G03X-6Y-210I4J-4D01*
G01X-4Y-210D01*
G02X-4Y-211I0J-1D01*
G01X-15Y-223D01*
X-19D01*
Y-222D01*
X-23D01*
Y-216D01*
G03X-24Y-213I-5J0D01*
G01X-24Y-212D01*
X-25D01*
G03X-30Y-212I-3J-4D01*
G01X-31Y-212D01*
X-31Y-213D01*
G03X-32Y-213I4J-3D01*
G01X-32Y-214D01*
X-33D01*
Y-212D01*
X-40D01*
Y-219D01*
X-33D01*
Y-222D01*
X-36D01*
Y-233D01*
X-38D01*
Y-222D01*
X-55D01*
Y-236D01*
X-53D01*
Y-238D01*
X-45Y-246D01*
X-24D01*
G02X-23Y-248I0J-1D01*
G01X-31Y-256D01*
Y-272D01*
X-33Y-274D01*
X-37D01*
G03X-41Y-275I0J-5D01*
G01X-41Y-276D01*
G02X-42Y-276I-1J0D01*
G37*
G36*
G01X-60Y19D02*
X-88D01*
G02X-89Y20I0J1D01*
G01X-76Y34D01*
Y110D01*
X-70Y116D01*
X-60D01*
Y113D01*
X-59D01*
G03X-54Y110I5J3D01*
G01X-43D01*
G03X-43Y109I5J0D01*
G01X-43Y99D01*
G03X-41Y95I5J0D01*
G01Y94D01*
X-33D01*
Y90D01*
X-33Y80D01*
X-50D01*
X-60Y71D01*
Y23D01*
G03X-59Y20I5J0D01*
G02X-60Y19I-1J-1D01*
G37*
G36*
G01X-10Y69D02*
X-10Y70D01*
G02X-8Y69I1J-1D01*
G01Y49D01*
X-38Y19D01*
X-50D01*
G02X-50Y20I0J1D01*
G03X-49Y23I-4J3D01*
G01Y67D01*
X-46Y70D01*
X-33D01*
Y69D01*
X-22D01*
Y74D01*
X-22Y75D01*
X-22Y85D01*
G02X-20Y84I1J-1D01*
G01Y83D01*
G03X-18Y78I5J0D01*
G02X-17Y77I0J-1D01*
G01X-18Y76D01*
G03X-10Y69I4J-4D01*
G37*
G36*
G01X-40Y180D02*
X-40Y181D01*
X-33Y175D01*
Y136D01*
X-49D01*
Y161D01*
X-45D01*
X-40Y161D01*
X-38Y162D01*
G03X-44Y171I-4J4D01*
G01X-49Y171D01*
Y180D01*
X-40D01*
G37*
G36*
G01X14Y-328D02*
X13Y-327D01*
Y-323D01*
G03X15Y-311I-5J7D01*
G02X16Y-309I1J1D01*
G01X26D01*
G02X27Y-311I0J-1D01*
G03X33Y-307I7J-6D01*
G02X32Y-306I0J1D01*
G01X35Y-303D01*
Y-290D01*
X38D01*
X54Y-306D01*
Y-309D01*
G03X64I5J-7D01*
G01Y-306D01*
G02X66Y-305I1J0D01*
G01X76Y-315D01*
G03X83Y-308I9J-1D01*
G01X66Y-290D01*
G02X66Y-288I1J1D01*
G01X82D01*
Y-290D01*
X75D01*
Y-298D01*
X83D01*
G03X88Y-300I5J4D01*
G01X100D01*
G03X104Y-299I0J6D01*
G02X105Y-300I1J-1D01*
G01Y-316D01*
G03X112Y-321I5J0D01*
G02X113Y-322I0J-1D01*
G01Y-325D01*
G03X114Y-326I5J0D01*
G02X113Y-328I-1J0D01*
G01X14D01*
G37*
G36*
G01X35Y-258D02*
G03X35Y-263I5J-2D01*
G03Y-268I5J-3D01*
G03Y-273I5J-3D01*
G03Y-278I5J-3D01*
G01X36Y-278D01*
Y-279D01*
G03X35Y-280I5J-2D01*
G03X33Y-280I-1J-5D01*
G01X32Y-280D01*
G03X30Y-280I-2J-5D01*
G01X30Y-275D01*
G03X20I-5J0D01*
G01Y-280D01*
X7D01*
Y-281D01*
X6D01*
G02X5Y-280I0J1D01*
G03X4Y-280I-5J0D01*
G01X4Y-273D01*
G03X5Y-268I-5J2D01*
G01X4Y-268D01*
X5Y-268D01*
G03Y-263I-5J2D01*
G01X4Y-263D01*
X5Y-263D01*
G03Y-258I-5J2D01*
G01X4Y-258D01*
X5Y-258D01*
G03Y-253I-5J2D01*
G01X4Y-253D01*
X4Y-252D01*
X5Y-251D01*
G03X6Y-251I0J5D01*
G01X8Y-251D01*
G03X12Y-251I2J5D01*
G01X13Y-251D01*
G03X17Y-251I2J5D01*
G01X18Y-251D01*
G03X20Y-251I2J5D01*
G02X20Y-252I0J-1D01*
G01Y-254D01*
G03X30I5J0D01*
G01Y-251D01*
X33D01*
Y-250D01*
X37D01*
Y-253D01*
X35D01*
Y-258D01*
G37*
G36*
G01X8Y-111D02*
Y-110D01*
G03X6Y-105I-6J0D01*
G03X8Y-101I-4J4D01*
G01Y-90D01*
G03X8Y-88I-6J0D01*
G01X7Y-88D01*
Y-87D01*
X9D01*
Y-94D01*
X16D01*
Y-86D01*
G03X17Y-85I-4J5D01*
G03X18Y-77I-4J5D01*
G02X19Y-76I1J1D01*
G01X24D01*
X26Y-78D01*
Y-95D01*
X10Y-112D01*
G02X8Y-111I-1J1D01*
G37*
%LPC*%
G75*
G54D50*
X-134Y47D03*
G54D56*
X-28Y59D03*
G54D51*
X-212Y57D03*
X-180Y7D03*
G54D48*
X-148Y181D03*
%LPD*%
G75*
G54D10*
X-368Y-105D03*
Y-75D03*
Y-44D03*
X-383Y-29D03*
X-368Y-14D03*
X-383Y1D03*
X-368Y17D03*
X-383Y32D03*
X-368Y47D03*
Y78D03*
Y108D03*
X-337Y-166D03*
X-353Y-151D03*
X-337Y-136D03*
X-353Y-121D03*
X-337Y-105D03*
X-353Y-90D03*
X-337Y-75D03*
X-353Y-60D03*
Y-29D03*
X-337Y-14D03*
X-353Y1D03*
Y32D03*
X-337Y47D03*
X-353Y62D03*
X-337Y78D03*
X-353Y93D03*
X-337Y108D03*
X-353Y123D03*
X-337Y138D03*
X-353Y154D03*
X-337Y169D03*
X-292Y-243D03*
X-307Y-227D03*
X-292Y-212D03*
X-307Y-197D03*
X-322Y-182D03*
X-292D03*
X-307Y-166D03*
X-322Y-151D03*
X-292D03*
X-307Y-136D03*
X-322Y-121D03*
X-292D03*
X-307Y-105D03*
X-322Y-90D03*
X-292D03*
X-307Y-75D03*
X-322Y-60D03*
X-292D03*
X-322Y32D03*
Y62D03*
Y93D03*
X-307Y108D03*
X-322Y123D03*
X-292D03*
X-307Y138D03*
X-322Y154D03*
X-292D03*
X-307Y169D03*
X-322Y184D03*
X-292D03*
X-307Y199D03*
X-246Y-288D03*
X-276Y-227D03*
X-246D03*
X-261Y-212D03*
X-276Y-197D03*
X-246D03*
X-261Y-182D03*
X-276Y-166D03*
X-246D03*
X-261Y-151D03*
X-276Y-136D03*
X-246D03*
X-261Y-121D03*
X-276Y-105D03*
X-246D03*
X-261Y-90D03*
X-246Y-75D03*
X-246Y7D03*
X-276Y47D03*
X-246Y78D03*
X-276Y108D03*
X-246D03*
X-261Y123D03*
X-276Y138D03*
X-246D03*
X-261Y154D03*
X-276Y169D03*
X-246D03*
X-261Y184D03*
X-215Y-319D03*
X-231Y-303D03*
X-215Y-288D03*
X-231Y-273D03*
X-215Y-258D03*
X-231Y-243D03*
X-215Y-227D03*
X-231Y-212D03*
X-215Y-197D03*
X-231Y-182D03*
X-215Y-166D03*
X-231Y-151D03*
X-215Y-136D03*
X-231Y-121D03*
X-215Y-105D03*
X-231Y-90D03*
X-234Y11D03*
X-237Y-5D03*
X-215Y47D03*
X-231Y93D03*
Y123D03*
X-215Y138D03*
X-231Y154D03*
X-215Y169D03*
X-231Y168D03*
X-231Y215D03*
X-215Y230D03*
X-170Y-334D03*
X-185Y-319D03*
X-200Y-303D03*
X-170D03*
X-185Y-288D03*
X-200Y-273D03*
X-170D03*
X-185Y-258D03*
X-200Y-243D03*
X-170D03*
X-185Y-227D03*
X-200Y-212D03*
X-170D03*
X-185Y-197D03*
X-200Y-182D03*
X-170D03*
X-185Y-166D03*
X-200Y-151D03*
X-170D03*
X-185Y-136D03*
X-200Y-121D03*
X-170D03*
X-185Y-105D03*
X-200Y-90D03*
X-170D03*
X-185Y-75D03*
Y-44D03*
X-170Y-29D03*
Y1D03*
X-200Y62D03*
X-185Y78D03*
X-200Y93D03*
X-170D03*
X-185Y108D03*
Y138D03*
X-200Y154D03*
X-185Y169D03*
X-170Y215D03*
X-185Y207D03*
X-200Y245D03*
X-170D03*
X-185Y291D03*
X-200Y306D03*
X-170D03*
X-185Y321D03*
X-170Y337D03*
X-154Y-349D03*
X-139Y-334D03*
X-154Y-319D03*
Y-288D03*
Y-258D03*
Y-197D03*
X-139Y-182D03*
X-154Y-166D03*
X-139Y-151D03*
X-154Y-136D03*
X-139Y-121D03*
X-154Y-105D03*
Y-75D03*
Y-44D03*
Y47D03*
Y108D03*
Y138D03*
X-139Y154D03*
X-154Y169D03*
X-139Y184D03*
Y215D03*
Y245D03*
X-154Y260D03*
X-148Y227D03*
X-154Y291D03*
X-165Y273D03*
X-139Y306D03*
X-154Y321D03*
X-139Y337D03*
X-154Y352D03*
X-109Y-364D03*
X-124Y-349D03*
X-94D03*
X-124Y-319D03*
X-109Y-303D03*
X-124Y-288D03*
Y-197D03*
X-109Y-182D03*
X-124Y-166D03*
X-109Y-151D03*
X-124Y-136D03*
X-109Y-121D03*
X-124Y-105D03*
X-109Y-90D03*
Y-60D03*
Y-29D03*
X-124Y108D03*
X-94D03*
Y169D03*
X-109Y184D03*
X-124Y199D03*
X-94Y291D03*
X-109Y306D03*
X-124Y321D03*
X-94D03*
X-109Y337D03*
X-124Y352D03*
X-94D03*
X-109Y367D03*
X-63Y-380D03*
X-78Y-364D03*
X-63Y-349D03*
X-78Y-60D03*
Y-29D03*
X-63Y108D03*
X-78Y215D03*
Y245D03*
X-63Y260D03*
X-78Y276D03*
X-63Y291D03*
X-78Y306D03*
X-63Y321D03*
X-78Y337D03*
X-63Y352D03*
X-78Y367D03*
X-33Y-380D03*
X-48Y-364D03*
X-17D03*
X-33Y-349D03*
X-48Y-334D03*
X-46Y-299D03*
X-48Y-212D03*
Y-182D03*
X-33Y-136D03*
X-48Y-121D03*
X-17D03*
X-33Y-105D03*
X-48Y-90D03*
X-17D03*
X-33Y-75D03*
X-17Y-29D03*
Y1D03*
X-34Y35D03*
X-48Y32D03*
Y62D03*
X-39Y149D03*
X-17Y154D03*
Y184D03*
X-33Y199D03*
X-17Y215D03*
X-48Y245D03*
Y276D03*
X-33Y321D03*
X-48Y337D03*
X-17D03*
X-33Y352D03*
X-48Y367D03*
X-17D03*
X-33Y382D03*
X-2Y-380D03*
X28D03*
X13Y-364D03*
X-2Y-349D03*
X28D03*
X13Y-273D03*
X25Y-195D03*
X11Y-185D03*
X22Y-79D03*
X28Y-44D03*
X13Y-29D03*
X-2Y-14D03*
X28D03*
X13Y1D03*
X-2Y138D03*
X28D03*
X13Y154D03*
X-2Y169D03*
X28D03*
X13Y184D03*
X-2Y199D03*
X28D03*
X13Y215D03*
X-2Y321D03*
X28D03*
X13Y337D03*
X-2Y352D03*
X28D03*
X13Y367D03*
X-2Y382D03*
X28D03*
X59Y-380D03*
X44Y-364D03*
Y-303D03*
X59Y-166D03*
X44Y-151D03*
X59Y-136D03*
X44Y-121D03*
X59Y-105D03*
X44Y-90D03*
X59Y-75D03*
X44Y-60D03*
X59Y-44D03*
X44Y1D03*
Y62D03*
X59Y138D03*
X44Y154D03*
X59Y169D03*
X44Y184D03*
X59Y321D03*
X44Y337D03*
X59Y352D03*
X44Y367D03*
X74Y-364D03*
X105D03*
X100Y-294D03*
X89Y-227D03*
Y-197D03*
Y-166D03*
X74Y-151D03*
X89Y-136D03*
X74Y-121D03*
X89Y-105D03*
X74Y-90D03*
X89Y-75D03*
X74Y-60D03*
X89Y-44D03*
X74Y1D03*
X89Y17D03*
X105Y62D03*
Y93D03*
X89Y138D03*
X74Y154D03*
X89Y199D03*
X74Y215D03*
X105Y245D03*
X89Y260D03*
X105Y276D03*
X74Y306D03*
X105D03*
X89Y321D03*
X74Y337D03*
X105D03*
X89Y352D03*
X74Y367D03*
X105D03*
X120Y138D03*
X135Y154D03*
Y184D03*
Y215D03*
X143Y252D03*
X120Y260D03*
X135Y276D03*
Y306D03*
X120Y321D03*
X135Y337D03*
X120Y352D03*
X150Y-349D03*
X166Y-334D03*
X181Y-319D03*
X166Y-303D03*
X181Y-288D03*
X153Y-294D03*
X166Y-273D03*
X181Y-258D03*
X166Y-243D03*
X181Y-227D03*
X166Y-212D03*
X181Y-197D03*
X166Y-182D03*
X181Y-166D03*
X166Y-121D03*
X181Y-105D03*
X166Y-90D03*
X181Y-75D03*
X166Y-60D03*
X181Y-44D03*
X166Y-29D03*
X181Y-14D03*
X166Y1D03*
X181Y17D03*
X166Y32D03*
X150Y47D03*
X181D03*
X166Y62D03*
X150Y78D03*
X181D03*
X166Y93D03*
X150Y108D03*
X181D03*
X166Y123D03*
X150Y138D03*
X181Y169D03*
X166Y215D03*
X153Y224D03*
X181Y230D03*
X166Y245D03*
X150Y260D03*
X181D03*
X166Y276D03*
X150Y291D03*
X181D03*
X166Y306D03*
X150Y321D03*
X181D03*
X166Y337D03*
X150Y352D03*
X211Y-319D03*
X196Y-303D03*
Y-243D03*
X211Y-227D03*
X196Y-212D03*
X227D03*
X211Y-197D03*
X196Y-182D03*
X227D03*
X211Y-166D03*
X196Y-151D03*
Y-121D03*
Y-90D03*
Y-60D03*
X211Y-44D03*
X196Y-29D03*
X227D03*
X211Y-14D03*
X196Y1D03*
X227D03*
X211Y17D03*
X196Y32D03*
X211Y47D03*
X196Y62D03*
X227D03*
X211Y78D03*
X196Y93D03*
X227D03*
X211Y108D03*
Y138D03*
X196Y154D03*
X211Y169D03*
X196Y215D03*
X227D03*
X211Y230D03*
X196Y245D03*
X227D03*
X211Y260D03*
X196Y276D03*
X227D03*
X211Y291D03*
X196Y306D03*
X227D03*
X211Y321D03*
X242Y-197D03*
X257Y-182D03*
X242Y-166D03*
X257Y-151D03*
X242Y-136D03*
X257Y-121D03*
Y-90D03*
Y-60D03*
X242Y-44D03*
X257Y-29D03*
X242Y-14D03*
X257Y1D03*
X242Y78D03*
X257Y184D03*
Y215D03*
X242Y230D03*
Y291D03*
X303Y-197D03*
X287Y-182D03*
X272Y-166D03*
X303D03*
X287Y-151D03*
X272Y-136D03*
X303D03*
X287Y-121D03*
X272Y-105D03*
X303D03*
X287Y-90D03*
X272Y-75D03*
X303D03*
X287Y-60D03*
X272Y-44D03*
X303D03*
X287Y-29D03*
X272Y-14D03*
X303D03*
X287Y1D03*
X272Y17D03*
X303D03*
X287Y32D03*
X303Y47D03*
X287Y62D03*
X303Y78D03*
X287Y93D03*
X303Y108D03*
X287Y123D03*
X272Y138D03*
X303D03*
X287Y154D03*
X272Y169D03*
X303D03*
X287Y184D03*
X272Y199D03*
X303D03*
X287Y215D03*
X272Y230D03*
X303D03*
X287Y245D03*
X318Y-212D03*
Y-182D03*
X333Y-166D03*
X318Y-151D03*
X333Y-136D03*
X318Y-121D03*
X333Y-105D03*
X318Y-90D03*
X333Y-75D03*
X318Y-60D03*
X333Y-44D03*
X318Y-29D03*
X333Y-14D03*
X318Y1D03*
X333Y17D03*
X318Y32D03*
X333Y47D03*
X318Y62D03*
X333Y78D03*
X318Y93D03*
X333Y108D03*
X318Y123D03*
X333Y138D03*
X318Y154D03*
X333Y169D03*
X318Y184D03*
Y215D03*
X348Y-151D03*
Y-121D03*
X364Y-105D03*
X348Y-90D03*
X364Y-75D03*
X348Y-60D03*
X379D03*
X364Y-44D03*
X348Y-29D03*
X379D03*
X364Y-14D03*
X348Y1D03*
X379D03*
X364Y17D03*
X348Y32D03*
X379D03*
X364Y47D03*
X348Y62D03*
X379D03*
X364Y78D03*
X348Y93D03*
X364Y108D03*
X348Y123D03*
Y154D03*
G54D11*
X-331Y-38D03*
Y15D03*
G54D20*
X-212Y57D03*
X-228D03*
X-180Y7D03*
X-196D03*
X-130Y257D03*
X-130Y273D03*
X-112Y186D03*
X-96D03*
X-114Y257D03*
X-114Y273D03*
X88Y-252D03*
X72D03*
X146Y236D03*
X130D03*
G54D12*
X-308Y-19D03*
Y-35D03*
X-308Y-2D03*
Y14D03*
X-194Y-31D03*
Y-47D03*
X-87Y141D03*
Y157D03*
G54D30*
X-42Y-191D03*
X-29D03*
Y-202D03*
X-42D03*
G54D21*
X-220Y75D03*
Y81D03*
Y88D03*
X-54Y-43D03*
X-37Y-290D03*
X-46D03*
X-46Y-279D03*
X-37D03*
X-28Y-216D03*
X-37D03*
X-38Y-181D03*
X-29D03*
X-10Y-110D03*
X-19D03*
X-24Y-43D03*
X-15D03*
X-45Y-43D03*
X1Y-140D03*
X-8D03*
X14Y-159D03*
X23D03*
X14Y-125D03*
X23D03*
X88Y-294D03*
X79D03*
X72Y-238D03*
X81D03*
G54D40*
G01X-248Y182D02*
X-242D01*
G01X-246Y7D02*
Y13D01*
X-245Y13D01*
G01X-234Y11D02*
X-233Y11D01*
G01X-245Y13D02*
Y22D01*
G01X-233Y11D02*
Y22D01*
G01X-212Y51D02*
Y57D01*
G01D02*
Y63D01*
G01X-218Y57D02*
X-212D01*
G01D02*
X-205D01*
G01X-242Y175D02*
Y182D01*
G01D02*
Y188D01*
G01Y182D02*
X-236D01*
G01X-226Y175D02*
Y182D01*
G01D02*
Y188D01*
G01X-232Y182D02*
X-226D01*
G01X-209Y188D02*
X-204D01*
G01X-194Y-53D02*
Y-47D01*
G01D02*
Y-41D01*
G01X-201Y-47D02*
X-194D01*
G01D02*
X-188D01*
G01X-180Y1D02*
Y7D01*
G01D02*
Y13D01*
G01X-187Y7D02*
X-180D01*
G01D02*
X-173D01*
G01X-204Y184D02*
Y188D01*
G01D02*
X-200D01*
G01X-136Y-242D02*
Y-232D01*
G01D02*
Y-223D01*
G01X-145Y-232D02*
X-136D01*
G01D02*
X-127D01*
G01X-134Y-89D02*
Y-80D01*
G01D02*
Y-70D01*
G01X-143Y-80D02*
X-134D01*
G01D02*
X-125D01*
G01X-148Y174D02*
Y181D01*
G01D02*
Y187D01*
G01X-154Y181D02*
X-148D01*
G01D02*
X-142D01*
G01X-165Y175D02*
Y182D01*
G01D02*
Y188D01*
G01Y182D02*
X-159D01*
G01X-130Y242D02*
Y248D01*
G01X-136Y242D02*
X-130D01*
G01D02*
X-124D01*
G01X-130Y251D02*
Y257D01*
G01D02*
Y262D01*
G01X-136Y257D02*
X-130D01*
G01D02*
X-123D01*
G01X-130Y288D02*
Y295D01*
G01X-136Y288D02*
X-130D01*
G01D02*
X-124D01*
G01X-112Y180D02*
Y186D01*
G01X-103Y151D02*
Y157D01*
G01D02*
Y164D01*
G01X-109Y157D02*
X-103D01*
G01D02*
X-97D01*
G01X-112Y186D02*
Y191D01*
G01X-119Y186D02*
X-112D01*
G01X-68Y-325D02*
Y-316D01*
G01X-77D02*
X-68D01*
G01D02*
X-59D01*
G01X-63Y-282D02*
Y-275D01*
G01D02*
X-58D01*
G01X-66Y-57D02*
Y-52D01*
G01X-68Y-16D02*
Y-9D01*
G01X-70Y-52D02*
X-66D01*
G01D02*
X-61D01*
G01X-52Y-9D02*
X-42D01*
G01X-68D02*
Y-2D01*
G01X-78Y-9D02*
X-68D01*
G01D02*
X-57D01*
G01X-54Y141D02*
X-47D01*
G01X-54Y146D02*
X-48D01*
G01X-54Y191D02*
X-60D01*
X-78Y208D01*
G01D02*
Y215D01*
G01X-52Y288D02*
X-46D01*
G01X-46Y-299D02*
G01X-46Y-299D02*
Y-290D01*
G01X-37Y-220D02*
Y-216D01*
G01D02*
Y-211D01*
G01X-41Y-216D02*
X-37D01*
G01X-29Y-206D02*
Y-202D01*
G01X-34D02*
X-29D01*
G01D02*
X-24D01*
G01X-42Y-191D02*
Y-186D01*
G01X-47Y-191D02*
X-42D01*
G01D02*
X-37D01*
G01X-38Y-186D02*
Y-181D01*
G01D02*
Y-177D01*
G01X-42Y-181D02*
X-38D01*
G01X-12Y-140D02*
X-8D01*
G01X-22Y-151D02*
Y-146D01*
G01X-26Y-151D02*
X-22D01*
G01D02*
X-18D01*
G01X-44Y-151D02*
Y-146D01*
G01X-49Y-151D02*
X-44D01*
G01D02*
X-40D01*
G01X-33Y-151D02*
Y-146D01*
G01X-38Y-151D02*
X-33D01*
G01D02*
X-29D01*
G01X-19Y-114D02*
Y-110D01*
G01D02*
Y-106D01*
G01X-23Y-110D02*
X-19D01*
G01X-34Y-57D02*
Y-52D01*
G01X-42Y-16D02*
Y-9D01*
G01X-38Y-52D02*
X-34D01*
G01D02*
X-30D01*
G01X-42Y-9D02*
Y-2D01*
G01Y-9D02*
X-31D01*
G01X-28Y53D02*
Y59D01*
G01D02*
Y66D01*
G01X-34Y59D02*
X-28D01*
G01D02*
X-22D01*
G01X-39Y86D02*
X-34D01*
G01D02*
X-33Y87D01*
Y99D01*
G01X-47Y141D02*
X-39Y149D01*
G01X-48Y146D02*
X-45Y149D01*
X-39D01*
G01X-24Y263D02*
Y270D01*
G01D02*
Y277D01*
G01X-30Y270D02*
X-24D01*
G01D02*
X-18D01*
G01X-46Y281D02*
Y288D01*
G01D02*
Y295D01*
G01X13Y-273D02*
X11Y-276D01*
G01D02*
X0D01*
G01X11Y-210D02*
Y-200D01*
X18Y-192D01*
G01X-8Y-140D02*
Y-136D01*
G01X24Y-135D02*
Y-131D01*
G01Y-135D02*
X28D01*
G01X13Y-94D02*
Y-90D01*
G01X23Y-129D02*
Y-125D01*
G01D02*
Y-120D01*
G01Y-125D02*
X27D01*
G01X21Y-77D02*
X19Y-75D01*
X10D01*
X8Y-73D01*
Y-69D01*
G01X8Y-90D02*
X13D01*
G01D02*
X17D01*
G01X24Y297D02*
X34D01*
G01X63Y-213D02*
Y-208D01*
G01X59Y-213D02*
X63D01*
G01D02*
X68D01*
G01X59Y-31D02*
Y-22D01*
G01D02*
Y-13D01*
G01X50Y-22D02*
X59D01*
G01D02*
X68D01*
G01X34Y288D02*
Y297D01*
G01D02*
Y306D01*
G01Y297D02*
X43D01*
G01X79Y-298D02*
Y-294D01*
G01D02*
Y-290D01*
G01X75Y-294D02*
X79D01*
G01X88Y-257D02*
Y-252D01*
G01D02*
Y-246D01*
G01X82Y-252D02*
X88D01*
G01D02*
X95D01*
G01X81Y-242D02*
Y-238D01*
G01D02*
Y-234D01*
G01Y-238D02*
X86D01*
G01X85Y-31D02*
Y-22D01*
G01D02*
Y-13D01*
G01X75Y-22D02*
X85D01*
G01D02*
X94D01*
G01X82Y53D02*
Y59D01*
G01D02*
Y66D01*
G01X77Y59D02*
X82D01*
G01D02*
X88D01*
G01X70Y86D02*
X71D01*
G01D02*
X77Y93D01*
Y99D01*
G01X99Y231D02*
X90D01*
X74Y215D01*
G01X139Y236D02*
X146D01*
G01Y230D02*
Y236D01*
G01D02*
Y241D01*
G01Y236D02*
X152D01*
G01X215Y-91D02*
X224D01*
G01Y-100D02*
Y-91D01*
G01D02*
Y-81D01*
G01Y-91D02*
X233D01*
G01X240Y30D02*
Y39D01*
G01D02*
Y49D01*
G01X231Y39D02*
X240D01*
G01D02*
X250D01*
G01X240Y135D02*
Y145D01*
G01D02*
Y154D01*
G01X230Y145D02*
X240D01*
G01D02*
X249D01*
G54D13*
X-285Y57D03*
X-301D03*
X-253Y-51D03*
X-269D03*
X-270Y57D03*
X-254D03*
X-236Y-52D03*
X-220D03*
X-130Y227D03*
X-130Y242D03*
X-130Y288D03*
X-114Y227D03*
X-114Y242D03*
X-114Y288D03*
X-24Y270D03*
X26Y18D03*
X10D03*
X-8Y270D03*
X59Y18D03*
X43D03*
X72Y-267D03*
X88D03*
G54D31*
X-13Y99D03*
X-18D03*
X-23D03*
X-28D03*
X-33D03*
X-38D03*
Y252D03*
X-33D03*
X-28D03*
X-23D03*
X-18D03*
X-13D03*
X27Y99D03*
X22D03*
X17D03*
X12D03*
X7D03*
X2D03*
X-3D03*
X-8D03*
Y252D03*
X-3D03*
X2D03*
X7D03*
X12D03*
X17D03*
X22D03*
X27D03*
X67Y99D03*
X62D03*
X57D03*
X52D03*
X47D03*
X42D03*
X37D03*
X32D03*
Y252D03*
X37D03*
X42D03*
X47D03*
X52D03*
X57D03*
X62D03*
X67D03*
X82Y99D03*
X77D03*
X72D03*
Y252D03*
X77D03*
X82D03*
G54D22*
X-226Y182D03*
X-242Y182D03*
X-226Y198D03*
X-242Y198D03*
X-165Y182D03*
X-148Y181D03*
X-165Y198D03*
X-148Y197D03*
X-103Y141D03*
Y157D03*
X-63Y-291D03*
Y-275D03*
X-28Y59D03*
Y75D03*
X-46Y288D03*
Y304D03*
X82Y59D03*
Y75D03*
G54D41*
G01X-260Y-5D02*
X-265D01*
X-289Y-29D01*
G01X-260Y-1D02*
X-267D01*
G01X-260Y7D02*
X-294D01*
G01X-260Y3D02*
X-295D01*
G01X-249Y-16D02*
Y-22D01*
G01X-253Y-16D02*
Y-20D01*
G01X-241Y-16D02*
Y-21D01*
G01X-245Y-16D02*
Y-22D01*
G01X-217Y29D02*
X-227D01*
X-229Y27D01*
Y22D01*
G01X-64Y-264D02*
Y-76D01*
X-57Y-69D01*
X-12D01*
X-5Y-62D01*
X12D01*
X14Y-59D01*
Y-54D01*
G01X1D02*
X-4D01*
X-15Y-65D01*
X-61D01*
X-73Y-76D01*
Y-275D01*
G01X-42Y-202D02*
X-49D01*
X-54Y-202D01*
G01X-28Y-216D02*
Y-221D01*
X-28Y-229D01*
G01X-29Y-191D02*
G01X1Y-190D02*
X-18Y-190D01*
X-19Y-191D01*
X-29D01*
G01D02*
Y-181D01*
G01X-42Y-202D02*
X-37Y-196D01*
X-25D01*
X-23Y-195D01*
X1D01*
G01X25Y-247D02*
Y-254D01*
G01X23Y-224D02*
X21Y-221D01*
Y-210D01*
G01X27Y-224D02*
X26Y-223D01*
Y-214D01*
X26Y-210D01*
G01X47Y-234D02*
X42D01*
X18Y-234D01*
X15Y-237D01*
Y-247D01*
G01X31Y-239D02*
X22D01*
X20Y-241D01*
Y-247D01*
G01X10D02*
Y-235D01*
X16Y-229D01*
X46D01*
X46Y-228D01*
X52D01*
G01X21Y-210D02*
X26Y-210D01*
G01X36Y-180D02*
X75Y-180D01*
G01X31Y-174D02*
X83D01*
G54D23*
X-185Y178D03*
X-204D03*
X-185Y197D03*
X-204Y188D03*
Y197D03*
G54D32*
X-1Y-281D03*
Y-251D03*
X40D03*
Y-281D03*
G54D14*
X-295Y81D03*
X-267D03*
G54D42*
G01X-331Y-38D02*
Y-24D01*
X-326Y-19D01*
X-308D01*
G01X-331Y15D02*
Y6D01*
X-331Y2D01*
X-326Y-2D01*
X-308D01*
G01X-289Y-29D02*
X-294D01*
X-300Y-35D01*
X-308D01*
G01X-267Y-1D02*
X-290Y-24D01*
X-295D01*
X-300Y-19D01*
X-308D01*
G01X-294Y7D02*
X-301Y14D01*
X-308D01*
G01X-295Y3D02*
X-300Y-2D01*
X-308D01*
G01X-260Y11D02*
X-275D01*
X-296Y32D01*
Y43D01*
X-301Y49D01*
Y57D01*
G01X-260Y15D02*
X-271D01*
X-289Y33D01*
Y43D01*
X-285Y47D01*
Y57D01*
G01D02*
Y71D01*
X-295Y81D01*
G01X-273Y-73D02*
X-261D01*
X-253Y-65D01*
Y-51D01*
G01D02*
Y-42D01*
X-258Y-38D01*
Y-31D01*
X-249Y-22D01*
G01D02*
Y-15D01*
G01X-269Y-51D02*
Y-44D01*
X-262Y-37D01*
Y-28D01*
X-253Y-20D01*
G01D02*
Y-15D01*
G01X-249Y22D02*
Y29D01*
X-260Y39D01*
Y44D01*
X-254Y49D01*
Y57D01*
G01X-253Y22D02*
Y26D01*
X-266Y39D01*
Y45D01*
X-270Y50D01*
Y57D01*
G01D02*
Y77D01*
X-267Y81D01*
G01X-220Y-73D02*
X-233D01*
X-236Y-70D01*
Y-52D01*
G01X-237Y-16D02*
X-233D01*
G01D02*
Y-9D01*
G01X-237Y-5D02*
Y-16D01*
G01X-241Y-21D02*
X-226Y-36D01*
Y-38D01*
X-220Y-44D01*
Y-52D01*
G01X-241Y-15D02*
Y-21D01*
G01X-245Y-22D02*
X-231Y-36D01*
Y-40D01*
X-236Y-44D01*
Y-52D01*
G01X-245Y-15D02*
Y-22D01*
G01X-134Y-29D02*
X-149Y-14D01*
X-211D01*
X-216Y-9D01*
X-222D01*
G01X-233Y-9D02*
X-237Y-5D01*
G01X-222Y3D02*
X-216D01*
X-210Y-3D01*
X-194D01*
G01X-134Y22D02*
X-202D01*
X-212Y11D01*
X-222D01*
G01X-134Y73D02*
X-158D01*
X-216Y15D01*
X-222D01*
G01X-237Y21D02*
Y27D01*
G01X-237Y22D02*
Y27D01*
G01X-134Y-3D02*
X-144D01*
X-150Y-9D01*
X-211D01*
X-215Y-5D01*
X-222D01*
G01X-241Y22D02*
Y31D01*
G01X-215Y7D02*
X-203D01*
X-196Y7D01*
G01X-215Y7D02*
X-214Y7D01*
X-209D01*
G01X-215Y7D02*
X-222Y7D01*
G01X-237Y27D02*
X-226Y39D01*
X-207D01*
X-147Y98D01*
X-134D01*
G01X-241Y31D02*
X-230Y42D01*
G01X-220Y81D02*
X-225D01*
X-228Y78D01*
Y57D01*
G01X-241Y31D02*
X-228Y45D01*
Y57D01*
G01X-220Y88D02*
X-213Y88D01*
G01X-213Y197D02*
X-215Y195D01*
Y182D01*
X-211Y178D01*
X-204D01*
G01X-194Y-31D02*
Y-22D01*
G01X-115Y-284D02*
Y-208D01*
X-116Y-207D01*
X-136D01*
G01X2Y99D02*
Y45D01*
X-36Y7D01*
X-98D01*
X-134Y-29D01*
G01X-54Y121D02*
X-72D01*
X-81Y112D01*
Y36D01*
X-94Y22D01*
X-134D01*
G01X-3Y99D02*
X-3Y92D01*
X-3Y47D01*
X-36Y14D01*
X-117D01*
X-134Y-3D01*
G01X-103Y141D02*
X-95D01*
X-87Y141D01*
G01X-97Y196D02*
Y265D01*
X-105Y273D01*
X-114D01*
G01X-114Y227D02*
Y202D01*
G01X-96Y186D02*
X-61D01*
X-54Y186D01*
G01X-114Y257D02*
X-114Y249D01*
X-114Y242D01*
G01X-114Y227D02*
Y234D01*
X-114Y242D01*
G01X-114Y288D02*
Y280D01*
X-114Y273D01*
G01X-54Y-280D02*
Y-288D01*
X-57Y-291D01*
X-63D01*
G01X-54Y-280D02*
X-53Y-279D01*
X-46D01*
G01X-28Y75D02*
X-48D01*
X-55Y69D01*
Y23D01*
G01X-87Y157D02*
X-80D01*
X-72Y150D01*
Y142D01*
X-66Y136D01*
X-54D01*
G01Y126D02*
X-75D01*
X-80Y126D01*
G01X-54Y131D02*
X-68D01*
X-79Y141D01*
X-87D01*
G01X-70Y171D02*
X-54D01*
G01X-42Y166D02*
X-47Y166D01*
X-54Y166D01*
G01Y211D02*
X-40Y211D01*
G01X-17Y-316D02*
Y-332D01*
X-11Y-338D01*
X126D01*
X144Y-320D01*
Y29D01*
X144Y32D01*
G01X30Y-285D02*
Y-301D01*
X27Y-304D01*
X-14D01*
X-17Y-307D01*
Y-316D01*
G01X-37Y-279D02*
Y-285D01*
X-37Y-290D01*
G01X-30Y-290D02*
X-37D01*
G01X-16Y-294D02*
Y-264D01*
X-12Y-261D01*
X0D01*
G01X-22Y-288D02*
Y-261D01*
X-17Y-256D01*
X-6D01*
X0Y-256D01*
G01X-37Y-279D02*
X-31D01*
X-26Y-274D01*
Y-258D01*
X-19Y-250D01*
X-6D01*
X-6Y-251D01*
X-1D01*
G01X-15Y83D02*
Y88D01*
X-13Y90D01*
Y99D01*
G01X-8D02*
X-8Y79D01*
X-14Y73D01*
G01X-22Y90D02*
X-23Y90D01*
Y99D01*
G01X-33Y252D02*
X-33Y262D01*
X-30Y265D01*
G01D02*
X-29D01*
G01D02*
X-24Y270D01*
G01X137Y120D02*
Y-319D01*
X123Y-333D01*
X12D01*
X8Y-329D01*
Y-316D01*
G01X25Y-290D02*
Y-285D01*
G01X0Y-266D02*
X-9D01*
X-10Y-267D01*
G01X-1Y-281D02*
X-8D01*
X-9Y-282D01*
G01X0Y-271D02*
X-6D01*
X-10Y-275D01*
G01X25Y-275D02*
Y-285D01*
G01X5Y-246D02*
X-3D01*
X-4Y-244D01*
X-9D01*
G01X-7Y-205D02*
X1Y-205D01*
G01X10Y18D02*
X-8D01*
G01X17Y99D02*
Y37D01*
G01X27Y99D02*
Y44D01*
G01X7Y99D02*
Y32D01*
G01X-8Y252D02*
X-8Y263D01*
X-8Y270D01*
G01X82Y252D02*
Y269D01*
X73Y278D01*
X11D01*
X8Y281D01*
Y297D01*
G01X35Y-285D02*
X40D01*
X59Y-304D01*
Y-316D01*
G01X40Y-281D02*
X49D01*
X85Y-316D01*
G01X75Y-278D02*
X59D01*
X52Y-271D01*
X40D01*
G01Y-266D02*
X54D01*
X57Y-268D01*
G01X63Y-261D02*
X46D01*
X40Y-261D01*
G01X83Y-283D02*
X58D01*
X50Y-276D01*
X46D01*
X40Y-276D01*
G01X31Y-217D02*
Y-210D01*
G01X36Y-185D02*
X63Y-185D01*
G01X36Y-190D02*
X56Y-190D01*
X56Y-189D01*
X60D01*
X60Y-190D01*
X61D01*
X69Y-190D01*
G01X47Y-208D02*
X43Y-205D01*
X36D01*
G01Y-195D02*
X50Y-195D01*
X50Y-194D01*
X54D01*
X55Y-195D01*
X58D01*
G01X36Y-200D02*
X52Y-200D01*
G01X32Y18D02*
X44D01*
G01X60Y25D02*
Y18D01*
G01X62Y27D02*
Y99D01*
G01X59Y297D02*
X127D01*
G01Y221D02*
X106D01*
X99Y221D01*
G01X240Y170D02*
X221Y189D01*
X147D01*
X135Y201D01*
X99D01*
G01X240Y195D02*
X150D01*
X140Y206D01*
X99D01*
G01X119Y-325D02*
Y37D01*
G01X110Y-316D02*
Y38D01*
X110Y44D01*
G01X124Y111D02*
Y-313D01*
G54D24*
X-136Y-283D03*
Y-258D03*
Y-207D03*
Y-232D03*
X-134Y-80D03*
Y-54D03*
Y-29D03*
Y-3D03*
Y22D03*
Y47D03*
Y73D03*
Y98D03*
X-68Y-316D03*
X-17D03*
X-42D03*
X-17Y297D03*
X34Y-316D03*
X8D03*
X34Y297D03*
X8D03*
X59Y-316D03*
Y-22D03*
X59Y297D03*
X85Y-316D03*
Y-22D03*
X224Y-142D03*
Y-91D03*
Y-116D03*
Y-65D03*
X240Y119D03*
Y145D03*
Y170D03*
Y195D03*
G54D33*
X0Y-276D03*
Y-271D03*
Y-266D03*
Y-261D03*
Y-256D03*
X40D03*
Y-261D03*
Y-266D03*
Y-271D03*
Y-276D03*
G54D15*
X-258Y-258D03*
X258Y258D03*
G54D43*
G01X-54Y116D02*
X-42D01*
X-38Y120D01*
G01X1Y-180D02*
X-16Y-180D01*
G01X6Y-174D02*
X-2D01*
X-5Y-172D01*
G01X-33Y-160D02*
X-27D01*
X-22Y-160D01*
G01X-38Y99D02*
X-38Y110D01*
X-38Y111D01*
G01X16Y-174D02*
X16Y-167D01*
X14Y-165D01*
Y-159D01*
G01X23D02*
Y-166D01*
X21Y-168D01*
Y-174D01*
G01X11D02*
X11Y-169D01*
X10Y-169D01*
X1Y-160D01*
G01X32Y18D02*
X26D01*
G01X43Y18D02*
X32D01*
G01X60Y25D02*
X62Y27D01*
G01X59Y18D02*
Y25D01*
X60Y25D01*
G54D16*
X-273Y-73D03*
X-220D03*
G54D25*
X-47Y-229D03*
X-28D03*
G54D34*
X25Y-285D03*
X20D03*
X15D03*
X10D03*
Y-247D03*
X15D03*
X20D03*
X25D03*
X1Y-54D03*
X8D03*
X14D03*
Y-69D03*
X8D03*
X1D03*
X30Y-285D03*
Y-247D03*
G54D44*
G01X-16Y-180D02*
X-18Y-177D01*
Y-176D01*
X-18Y-170D01*
G01D02*
X-39D01*
X-44Y-165D01*
G01X-5Y-172D02*
X-11Y-165D01*
Y-160D01*
G01X63Y-222D02*
X51D01*
X49Y-224D01*
X23D01*
G01X1Y-185D02*
X11Y-185D01*
X18Y-192D01*
G01X1Y-200D02*
X11Y-200D01*
X18Y-192D01*
G01D02*
X22Y-188D01*
X23D01*
X26Y-185D01*
Y-174D01*
G54D35*
X5Y-285D03*
Y-246D03*
X35Y-285D03*
Y-246D03*
G54D17*
X-249Y-16D03*
X-253D03*
Y22D03*
X-249D03*
X-229Y-16D03*
X-233D03*
X-237D03*
X-241D03*
X-245D03*
Y22D03*
X-241D03*
X-237D03*
X-233D03*
X-229D03*
G54D26*
X-54Y-193D03*
Y-202D03*
X-66Y-52D03*
Y-43D03*
X-33Y-160D03*
Y-151D03*
X-44Y-160D03*
Y-151D03*
X-22Y-160D03*
Y-151D03*
X-11Y-160D03*
Y-151D03*
X-10Y-128D03*
Y-119D03*
X-34Y-52D03*
Y-43D03*
X14Y-135D03*
Y-144D03*
X24Y-144D03*
Y-135D03*
X1Y-151D03*
Y-160D03*
X1Y-101D03*
Y-110D03*
X1Y-119D03*
Y-128D03*
X13Y-90D03*
Y-81D03*
X1Y-81D03*
Y-90D03*
X63Y-222D03*
Y-213D03*
G54D45*
G01X312Y-234D02*
X265Y-187D01*
X187Y-265D01*
X234Y-312D01*
G02X-312Y234I-234J312D01*
G01X-265Y187D01*
X-187Y265D01*
X-234Y312D01*
G02X312Y-234I234J-312D01*
G54D27*
X-55Y-27D03*
G54D18*
G01X-175Y197D02*
Y99D01*
X-199Y75D01*
X-220D01*
G01X-99Y-341D02*
X-121D01*
X-136Y-326D01*
Y-283D01*
G01X-103Y141D02*
X-123D01*
X-129Y148D01*
Y193D01*
X-134Y197D01*
X-148D01*
G01X-99Y-192D02*
Y-341D01*
G01X-103Y141D02*
Y32D01*
G01X-63Y-291D02*
Y-302D01*
X-57Y-308D01*
X-50D01*
X-42Y-316D01*
G01X-55Y-37D02*
X-54Y-37D01*
Y-43D01*
G01X-55Y-37D02*
Y-39D01*
G01Y-27D02*
Y-37D01*
G01X-66Y-43D02*
X-55D01*
X-54Y-43D01*
G01X-28Y-229D02*
X-12D01*
X6Y-211D01*
Y-210D01*
G01X-47Y-229D02*
X-47Y-236D01*
X-43Y-240D01*
X-16D01*
X-14Y-238D01*
X-6D01*
X16Y-216D01*
Y-210D01*
G01X-44Y-165D02*
X-44Y-164D01*
Y-160D01*
G01X-22Y-160D02*
X-11D01*
G01Y-151D02*
X1D01*
G01X-10Y-110D02*
Y-119D01*
G01X-15Y-43D02*
X-6D01*
X3Y-43D01*
G02X8Y-49I0J-5D01*
G01Y-54D01*
G01X-34Y-43D02*
X-24D01*
G01X-45Y-43D02*
X-34D01*
G01X-36Y304D02*
X-29Y297D01*
X-17D01*
G01X-46Y304D02*
X-36Y304D01*
G01X14Y-159D02*
Y-151D01*
X14Y-144D01*
G01X24Y-144D02*
Y-151D01*
X23Y-152D01*
Y-159D01*
G01X1Y-140D02*
Y-151D01*
G01X1Y-128D02*
Y-140D01*
G01X14Y-135D02*
Y-125D01*
G01X1Y-110D02*
Y-119D01*
G01X-10Y-119D02*
X1D01*
G01X-10Y-128D02*
X1D01*
G01X1Y-90D02*
Y-101D01*
G01X14Y-69D02*
X27D01*
X33Y-75D01*
Y-98D01*
X14Y-116D01*
Y-125D01*
G01X1Y-81D02*
X13D01*
G01X1Y-69D02*
Y-81D01*
G01X63Y-222D02*
Y-234D01*
X67Y-238D01*
X72D01*
G01X83Y-345D02*
X130D01*
X153Y-321D01*
Y-294D01*
G01X88D02*
Y-287D01*
X89Y-286D01*
Y-277D01*
X88Y-276D01*
Y-267D01*
G01X88Y-294D02*
X100D01*
G01X72Y-267D02*
Y-252D01*
G01X72Y-252D02*
X72Y-238D01*
X-267Y-21D03*
X-209Y7D03*
X-217Y29D03*
X-230Y42D03*
X-213Y88D03*
X-194Y-22D03*
Y-3D03*
X-99Y-341D03*
X-115Y-284D03*
X-99Y-192D03*
X-103Y32D03*
X-97Y196D03*
X-114Y202D03*
X-64Y-264D03*
X-54Y-280D03*
X-73Y-275D03*
X-55Y23D03*
X-80Y126D03*
X-70Y171D03*
X-22Y-288D03*
X-30Y-290D03*
X-16Y-294D03*
X-10Y-267D03*
X-18Y-170D03*
X-15Y83D03*
X-14Y73D03*
X-22Y90D03*
X-38Y111D03*
X-38Y120D03*
X-42Y166D03*
X-9Y-282D03*
X-10Y-275D03*
X25Y-254D03*
X25Y-275D03*
X27Y-224D03*
X-9Y-244D03*
X-7Y-205D03*
X-8Y18D03*
X17Y37D03*
X27Y44D03*
X7Y32D03*
X57Y-268D03*
X63Y-261D03*
X47Y-234D03*
X31Y-217D03*
X31Y-239D03*
X52Y-228D03*
X63Y-185D03*
X69Y-190D03*
X47Y-208D03*
X58Y-195D03*
X52Y-200D03*
X83Y-345D03*
X75Y-278D03*
X83Y-283D03*
X75Y-180D03*
X69Y-199D03*
X83Y-174D03*
X119Y-325D03*
X110Y-316D03*
X124Y-313D03*
X119Y37D03*
X110Y44D03*
X144Y32D03*
X124Y111D03*
X137Y120D03*
X127Y221D03*
Y297D03*
G54D36*
X26Y-210D03*
X21D03*
X16D03*
X11D03*
X6D03*
Y-174D03*
X11D03*
X16D03*
X21D03*
X26D03*
X31Y-210D03*
Y-174D03*
G54D46*
G01X-260Y-9D02*
Y-14D01*
X-267Y-21D01*
G01X-28Y131D02*
X-54Y131D01*
G01Y186D02*
X-43D01*
X-40Y189D01*
G01X-28Y99D02*
X-28Y123D01*
G01X-28Y75D02*
Y92D01*
X-28Y99D01*
G01Y131D02*
Y177D01*
X-40Y189D01*
G01X-28Y123D02*
Y131D01*
G01Y123D02*
X74Y123D01*
X82Y115D01*
Y99D01*
G01X-40Y189D02*
Y211D01*
G01D02*
Y226D01*
X-29Y236D01*
G01X-38Y252D02*
X-38Y302D01*
X-36Y304D01*
G01X-38Y252D02*
X-38Y245D01*
X-37Y244D01*
Y243D01*
X-29Y236D01*
G01D02*
X99D01*
G01X82Y75D02*
Y92D01*
X82Y99D01*
G01X99Y236D02*
X110Y236D01*
G01D02*
X111Y235D01*
Y228D01*
X109Y226D01*
X99D01*
G01X110Y236D02*
X122D01*
X130Y236D01*
G54D28*
X-68Y-9D03*
X-42D03*
G54D37*
X18Y-192D03*
G54D19*
X-260Y-9D03*
Y-5D03*
Y-1D03*
Y3D03*
Y7D03*
Y11D03*
Y15D03*
X-222D03*
Y11D03*
Y7D03*
Y3D03*
Y-1D03*
Y-5D03*
Y-9D03*
G54D47*
G01X-148Y227D02*
X-195D01*
X-204Y218D01*
Y197D01*
G01X-242Y198D02*
X-226D01*
G01X-226Y198D02*
X-213D01*
X-213Y197D01*
G01D02*
X-204D01*
G01X-185D02*
X-175D01*
G01X-185D02*
X-185Y207D01*
G01X-175Y197D02*
X-175Y198D01*
X-165D01*
G01X-148Y227D02*
X-130D01*
G01X-165Y198D02*
X-149D01*
X-148Y197D01*
G01X-165Y273D02*
X-130D01*
G01X240Y119D02*
X255D01*
X266Y109D01*
Y39D01*
G54D29*
X-54Y116D03*
Y121D03*
Y126D03*
Y131D03*
Y136D03*
Y141D03*
Y146D03*
Y151D03*
Y156D03*
Y161D03*
Y166D03*
Y171D03*
Y176D03*
Y181D03*
Y186D03*
Y191D03*
Y196D03*
Y201D03*
Y206D03*
Y211D03*
Y216D03*
Y221D03*
Y226D03*
Y231D03*
Y236D03*
X99Y141D03*
Y136D03*
Y131D03*
Y126D03*
Y121D03*
Y116D03*
Y181D03*
Y176D03*
Y171D03*
Y166D03*
Y161D03*
Y156D03*
Y151D03*
Y146D03*
Y221D03*
Y216D03*
Y211D03*
Y206D03*
Y201D03*
Y196D03*
Y191D03*
Y186D03*
Y236D03*
Y231D03*
Y226D03*
G54D38*
X1Y-205D03*
Y-200D03*
Y-195D03*
Y-190D03*
Y-185D03*
Y-180D03*
X36D03*
Y-185D03*
Y-190D03*
Y-195D03*
Y-200D03*
Y-205D03*
G54D39*
X240Y39D03*
X266D03*
M02*
