M48
;Layer_Color=9474304
;FILE_FORMAT=4:4
METRIC,LZ
;TYPE=PLATED
T01F00S00C0.3048
T02F00S00C0.7620
T03F00S00C1.0998
T04F00S00C1.5000
T05F00S00C1.5500
T06F00S00C2.2000
T07F00S00C3.3000
T08F00S00C10.0000
T09F00S00C13.0000
T10F00S00C13.0017
%
T01
X00283458Y00698796
Y00709796
Y00720796
Y00731796
Y00742796
Y00878796
Y00889796
Y00900796
Y00911796
Y00922796
X00427132Y0092284
Y0091184
Y0090084
Y0088984
Y0087884
X00374074Y00805996
Y00794996
X00425058Y00742796
Y00731796
Y00720796
Y00709796
Y00698796
X00566658
Y00709796
Y00720796
Y00731796
Y00742796
X00515674Y00794996
Y00805996
X00566658Y00878796
Y00889796
Y00900796
Y00911796
Y00922796
X00706532Y0092284
Y0091184
Y0090084
Y0088984
Y0087884
X00657274Y00805996
Y00794996
X00708258Y00742796
Y00731796
Y00720796
Y00709796
Y00698796
X00849858
Y00709796
Y00720796
Y00731796
Y00742796
X00798874Y00794996
Y00805996
X00849858Y00878796
Y00889796
Y00900796
Y00911796
Y00922796
X00940474Y00805996
Y00794996
X00991458Y00742796
Y00731796
Y00720796
Y00709796
Y00698796
Y00878796
Y00889796
Y00900796
Y00911796
Y00922796
X01127314Y0080602
X01122234Y0079502
X01133636Y0097502
X01134984Y0098602
X0112522Y01154996
X011303Y01165996
X01136622Y01334996
X0113797Y01345996
X00991458Y01282796
Y01271796
Y01260796
Y01249796
Y01238796
Y01102796
Y01091796
Y01080796
Y01069796
Y01058796
X00940474Y00985996
Y00974996
X00797148Y0097504
Y0098604
X00849858Y01058796
Y01069796
Y01080796
Y01091796
Y01102796
X00798874Y01154996
Y01165996
X00849858Y01238796
Y01249796
Y01260796
Y01271796
Y01282796
X00798874Y01334996
Y01345996
X00940474
Y01334996
Y01165996
Y01154996
X00657274
Y01165996
X00708258Y01102796
Y01091796
Y01080796
Y01069796
Y01058796
X00657274Y00985996
Y00974996
X00708258Y01238796
Y01249796
Y01260796
Y01271796
Y01282796
X00657274Y01334996
Y01345996
X00515674
Y01334996
X00566658Y01282796
Y01271796
Y01260796
Y01249796
Y01238796
X00515674Y01165996
Y01154996
X00566658Y01102796
Y01091796
Y01080796
Y01069796
Y01058796
X00517748Y0098604
Y0097504
X00374074Y00974996
Y00985996
X00425058Y01058796
Y01069796
Y01080796
Y01091796
Y01102796
X00374074Y01154996
Y01165996
X00425058Y01238796
Y01249796
Y01260796
Y01271796
Y01282796
X00374074Y01334996
Y01345996
X00283458Y01282796
Y01271796
Y01260796
Y01249796
Y01238796
Y01102796
Y01091796
Y01080796
Y01069796
Y01058796
X001651Y014097
X0016764Y0158496
X001524Y0159004
X0026162Y0157226
X0028702Y0157988
X0035814Y0156464
X0037592Y015621
X0048514Y0157226
X004953Y0158242
X005461Y0159258
X005588
X0019304Y0141732
X0072644Y0153416
X0073406Y0154432
X0075946Y0159766
X0077216
X0087122Y0158496
X0088138Y015875
X0098298Y0157988
Y0156718
T02
X00291644Y00838996
X00365888
Y00816996
X00433244Y00838996
X00507488
Y00816996
X00574844Y00838996
X0063564Y008382
X00649088Y00816996
X00716444Y00838996
X0077724Y008382
X00790688Y00816996
X00858044Y00838996
X0091884Y008382
X00932288Y00816996
X00999644Y00838996
X01073888
Y00816996
Y00996996
Y01018996
X00999644
Y01198996
X01073888
Y01176996
X00933742Y0117688
Y0119888
X00859498
X00790688Y01198996
Y01176996
X00716444Y01198996
X00649088
Y01176996
Y01018996
Y00996996
X00716444Y01018996
X00790688
Y00996996
X00858044Y01018996
X00932288
Y00996996
X00574844Y01018996
X00507488Y0101854
Y0099654
X00433244Y0101854
X00365888Y01018996
Y00996996
X00291644Y01018996
Y01198996
X00365888
Y01176996
X00433244Y01198996
X00507488
Y01176996
X00574844Y01198996
Y01378996
X00507488
Y01356996
X00433244Y01378996
X00365888
Y01356996
X00291644Y01378996
X00649088
Y01356996
X00716444Y01378996
X00790688
Y01356996
X00858044Y01378996
X00932288
Y01356996
X00999644Y01378996
X01073888
Y01356996
T03
X010638Y00169415
Y00194816
Y00220215
Y00245616
Y00271015
Y00296416
Y00321815
Y00347215
X010892
Y00321815
Y00296416
Y00271015
Y00245616
Y00220215
Y00194816
Y00169415
X0117706
Y00194816
Y00220215
Y00245616
Y00271015
Y00296416
Y00321815
Y00347215
X0120246
Y00321815
Y00296416
Y00271015
Y00245616
Y00220215
Y00194816
Y00169415
X0129032Y0017145
Y0019685
Y0022225
Y0024765
Y0027305
Y0029845
Y0032385
Y0034925
X0131572
Y0032385
Y0029845
Y0027305
Y0024765
Y0022225
Y0019685
Y0017145
X0097594Y00169415
Y00194816
Y00220215
Y00245616
Y00271015
Y00296416
Y00321815
Y00347215
X0095054
Y00321815
Y00296416
Y00271015
Y00245616
Y00220215
Y00194816
Y00169415
X0086268
Y00194816
Y00220215
Y00245616
Y00271015
Y00296416
Y00321815
Y00347215
X0083728
Y00321815
Y00296416
Y00271015
Y00245616
Y00220215
Y00194816
Y00169415
X0074942
Y00194816
Y00220215
Y00245616
Y00271015
Y00296416
Y00321815
Y00347215
X0072402
Y00321815
Y00296416
Y00271015
Y00245616
Y00220215
Y00194816
Y00169415
X0063616
Y00194816
Y00220215
Y00245616
Y00271015
Y00296416
Y00321815
Y00347215
X0061076
Y00321815
Y00296416
Y00271015
Y00245616
Y00220215
Y00194816
Y00169415
X005229
Y00194816
Y00220215
Y00245616
Y00271015
Y00296416
Y00321815
Y00347215
X004975
Y00321815
Y00296416
Y00271015
Y00245616
Y00220215
Y00194816
Y00169415
X0040964Y0016764
Y0019304
Y0021844
Y0024384
Y0026924
Y0029464
Y0032004
Y0034544
X0038424
Y0032004
Y0029464
Y0026924
Y0024384
Y0021844
Y0019304
Y0016764
X0029638Y0016891
Y0019431
Y0021971
Y0024511
Y0027051
Y0029591
Y0032131
Y0034671
X0027098
Y0032131
Y0029591
Y0027051
Y0024511
Y0021971
Y0019431
Y0016891
X0018312Y00169415
Y00194816
Y00220215
Y00245616
Y00271015
Y00296416
Y00321815
Y00347215
X0015772
Y00321815
Y00296416
Y00271015
Y00245616
Y00220215
Y00194816
Y00169415
X0006986
Y00194816
Y00220215
Y00245616
Y00271015
Y00296416
Y00321815
Y00347215
X0004446
Y00321815
Y00296416
Y00271015
Y00245616
Y00220215
Y00194816
Y00169415
Y01671317
Y01696718
Y01722117
X0006986
Y01696718
Y01671317
X0015772
Y01696718
Y01722117
X0018312
Y01696718
Y01671317
X0027098
Y01696718
Y01722117
X0029638
Y01696718
Y01671317
X0038424
Y01696718
Y01722117
X0040964
Y01696718
Y01671317
X004975
Y01696718
Y01722117
X005229
Y01696718
Y01671317
X0061076
Y01696718
Y01722117
X0063616
Y01696718
Y01671317
X0072402
Y01696718
Y01722117
X0074942
Y01696718
Y01671317
X0083728
Y01696718
Y01722117
X0086268
Y01696718
Y01671317
X0095054
Y01696718
Y01722117
X0097594
Y01696718
Y01671317
X010638
Y01696718
Y01722117
X010892
Y01696718
Y01671317
X0117706
Y01696718
Y01722117
X0120246
Y01696718
Y01671317
X0129032
Y01696718
Y01722117
X0131572
Y01696718
Y01671317
Y01747518
Y01772917
Y01798318
Y01823717
Y01849117
X0129032
Y01823717
Y01798318
Y01772917
Y01747518
X0120246
Y01772917
Y01798318
Y01823717
Y01849117
X0117706
Y01823717
Y01798318
Y01772917
Y01747518
X010892
Y01772917
Y01798318
Y01823717
Y01849117
X010638
Y01823717
Y01798318
Y01772917
Y01747518
X0097594
Y01772917
Y01798318
Y01823717
Y01849117
X0095054
Y01823717
Y01798318
Y01772917
Y01747518
X0086268
Y01772917
Y01798318
Y01823717
Y01849117
X0083728
Y01823717
Y01798318
Y01772917
Y01747518
X0074942
Y01772917
Y01798318
Y01823717
Y01849117
X0072402
Y01823717
Y01798318
Y01772917
Y01747518
X0063616
Y01772917
Y01798318
Y01823717
Y01849117
X0061076
Y01823717
Y01798318
Y01772917
Y01747518
X005229
Y01772917
Y01798318
Y01823717
Y01849117
X004975
Y01823717
Y01798318
Y01772917
Y01747518
X0040964
Y01772917
Y01798318
Y01823717
Y01849117
X0038424
Y01823717
Y01798318
Y01772917
Y01747518
X0029638
Y01772917
Y01798318
Y01823717
Y01849117
X0027098
Y01823717
Y01798318
Y01772917
Y01747518
X0018312
Y01772917
Y01798318
Y01823717
Y01849117
X0015772
Y01823717
Y01798318
Y01772917
Y01747518
X0006986
Y01772917
Y01798318
Y01823717
Y01849117
X0004446
Y01823717
Y01798318
Y01772917
Y01747518
T04
X00304202Y00749962
X00355202
X00329702Y00775462
X00355202Y00800962
X00304202
Y00919042
X00355202
X00329702Y00944541
X00446188Y00919042
X00497188
X00471688Y00944541
X00447204Y00800962
X00498204
Y00749962
X00472704Y00775462
X00447204Y00749962
X00588936
X00639936
X00614436Y00775462
X00639936Y00800962
X00588936
X00588174Y00919042
X00639174
X00613674Y00944541
X0073016Y00919042
X0078116
X0075566Y00944541
X00872146Y00919042
X00923146
X00897646Y00944541
X008724Y00800962
X009234
Y00749962
X008979Y00775462
X008724Y00749962
X00781668
X00756168Y00775462
X00781668Y00800962
X00730668
Y00749962
X01014132
X01065132
X01039632Y00775462
X01065132Y00800962
X01014132
Y00919042
X01065132
X01039632Y00944541
X01065132Y00970041
X01014132
X01014132Y01109965
Y01160965
X01039632Y01135465
X01065132Y01160965
Y01109965
X01066402Y01289966
X01015402
Y01340966
X01040902Y01315466
X01066402Y01340966
X00924416
X00873416
X00898916Y01315466
X00873416Y01289966
X00924416
X00923146Y01160965
X00872146
X00897646Y01135465
X00872146Y01109965
X00923146
X00923146Y00970041
X00872146
X0078116
X0073016
X00639174
X00588174
X00588174Y01109965
Y01160965
X00613674Y01135465
X00639174Y01160965
Y01109965
X0073016
Y01160965
X0075566Y01135465
X0078116Y01160965
Y01109965
X0078243Y01289966
X0073143
Y01340966
X0075693Y01315466
X0078243Y01340966
X00640444
X00589444
X00614944Y01315466
X00589444Y01289966
X00640444
X00498458
X00447458
Y01340966
X00472958Y01315466
X00498458Y01340966
X00356472
X00305472
X00330972Y01315466
X00305472Y01289966
X00356472
X00355202Y01160965
X00304202
X00329702Y01135465
X00304202Y01109965
X00355202
X00446188
Y01160965
X00471688Y01135465
X00497188Y01160965
Y01109965
X00497188Y00970041
X00446188
X00355202
X00304202
T05
X01159281Y00509442
X00187478
Y0156944
X01179281
T06
X0036738Y00659442
X01049379
X0036738Y0141944
X00999379
T07
X000235Y00029941
X01335364Y0003
X01249281Y00519442
X00683379
X00097478
X01019281Y01039441
X00612379Y01039441
X00347478Y01039441
X00097478Y0155944
X00683379Y0155944
X0126928
X01335364Y0205
X00023674Y02049885
T08
X01219281Y01039441
X00147478
T09
X00147478Y00773525
X01219281Y01305356
X00147478
T10
X01219281Y00773525
M30
