%FSLAX25Y25*%
%MOIN*%
G70*
G01*
G75*
%ADD10C,0.27559*%
%ADD11C,0.00800*%
%ADD12C,0.03000*%
%ADD13C,0.01000*%
%ADD14C,0.01500*%
%ADD15C,0.00500*%
%ADD16C,0.10236*%
%ADD17C,0.05906*%
%ADD18C,0.12205*%
%ADD19R,0.05906X0.05906*%
%ADD20C,0.02000*%
%ADD21C,0.03000*%
%ADD22C,0.07874*%
%ADD23R,0.02756X0.03347*%
%ADD24O,0.08661X0.02362*%
%ADD25C,0.00787*%
D15*
X55386Y-181246D02*
X339874D01*
X55386D02*
Y-11954D01*
X339874D01*
Y-181246D02*
Y-11954D01*
X6800Y-183901D02*
X9466D01*
X8133D01*
Y-187900D01*
X12798D02*
Y-183901D01*
X10799Y-185901D01*
X13465D01*
X4200Y-133101D02*
X6866D01*
X5533D01*
Y-137100D01*
X8199Y-133768D02*
X8865Y-133101D01*
X10198D01*
X10864Y-133768D01*
Y-134434D01*
X10198Y-135101D01*
X9532D01*
X10198D01*
X10864Y-135767D01*
Y-136433D01*
X10198Y-137100D01*
X8865D01*
X8199Y-136433D01*
X4800Y-86201D02*
X7466D01*
X6133D01*
Y-90200D01*
X11464D02*
X8799D01*
X11464Y-87534D01*
Y-86868D01*
X10798Y-86201D01*
X9465D01*
X8799Y-86868D01*
X6600Y-40401D02*
X9266D01*
X7933D01*
Y-44400D01*
X10599D02*
X11932D01*
X11265D01*
Y-40401D01*
X10599Y-41068D01*
X350700Y-109600D02*
Y-105601D01*
X352699D01*
X353366Y-106268D01*
Y-107601D01*
X352699Y-108267D01*
X350700D01*
X354699Y-109600D02*
X356032D01*
X355365D01*
Y-105601D01*
X354699Y-106268D01*
X348900Y-126700D02*
Y-122701D01*
X350899D01*
X351566Y-123368D01*
Y-124701D01*
X350899Y-125367D01*
X348900D01*
X355564Y-126700D02*
X352899D01*
X355564Y-124034D01*
Y-123368D01*
X354898Y-122701D01*
X353565D01*
X352899Y-123368D01*
X343460Y-18350D02*
Y-14351D01*
X345459D01*
X346126Y-15017D01*
Y-16350D01*
X345459Y-17017D01*
X343460D01*
X347459Y-15017D02*
X348125Y-14351D01*
X349458D01*
X350124Y-15017D01*
Y-15684D01*
X349458Y-16350D01*
X348792D01*
X349458D01*
X350124Y-17017D01*
Y-17683D01*
X349458Y-18350D01*
X348125D01*
X347459Y-17683D01*
X0Y-192913D02*
X370200D01*
X0Y0D02*
X370200D01*
X0Y-192913D02*
Y0D01*
X370079Y-192913D02*
Y0D01*
D25*
X348000Y-129400D02*
X358000D01*
Y-169400D02*
Y-129400D01*
X348000Y-169400D02*
Y-129400D01*
Y-169400D02*
X358000D01*
X349800Y-20600D02*
X359800D01*
Y-100600D02*
Y-20600D01*
X349800Y-100600D02*
X359800D01*
X349800D02*
Y-20600D01*
M02*
