%FSLAX25Y25*%
%MOIN*%
G70*
G01*
G75*
G04 Layer_Physical_Order=2*
G04 Layer_Color=16711680*
%ADD10C,0.27559*%
%ADD11C,0.00800*%
%ADD12C,0.01000*%
%ADD13C,0.03000*%
%ADD14C,0.01500*%
%ADD15C,0.00500*%
%ADD16C,0.10236*%
%ADD17C,0.05906*%
%ADD18C,0.12205*%
%ADD19R,0.05906X0.05906*%
%ADD20C,0.02000*%
%ADD21C,0.03000*%
%ADD22C,0.07874*%
%ADD23O,0.08661X0.02362*%
%ADD24R,0.02756X0.03347*%
%ADD25R,0.03347X0.02756*%
G36*
X367716Y-190616D02*
X360393D01*
X360136Y-190187D01*
X360475Y-189553D01*
X360853Y-188305D01*
X360981Y-187008D01*
X360853Y-185711D01*
X360475Y-184463D01*
X359860Y-183313D01*
X359033Y-182306D01*
X358025Y-181479D01*
X356876Y-180864D01*
X355628Y-180485D01*
X354331Y-180358D01*
X353033Y-180485D01*
X351786Y-180864D01*
X350636Y-181479D01*
X349628Y-182306D01*
X348801Y-183313D01*
X348187Y-184463D01*
X347808Y-185711D01*
X347681Y-187008D01*
X347808Y-188305D01*
X348187Y-189553D01*
X348526Y-190187D01*
X348269Y-190616D01*
X84802D01*
X84545Y-190187D01*
X84884Y-189553D01*
X85263Y-188305D01*
X85390Y-187008D01*
X85263Y-185711D01*
X84884Y-184463D01*
X84269Y-183313D01*
X83442Y-182306D01*
X82435Y-181479D01*
X81285Y-180864D01*
X80037Y-180485D01*
X78740Y-180358D01*
X77443Y-180485D01*
X76195Y-180864D01*
X75046Y-181479D01*
X74038Y-182306D01*
X73211Y-183313D01*
X72596Y-184463D01*
X72218Y-185711D01*
X72090Y-187008D01*
X72218Y-188305D01*
X72596Y-189553D01*
X72935Y-190187D01*
X72678Y-190616D01*
X45800D01*
Y-51000D01*
X80500D01*
Y-118773D01*
X86000D01*
Y-118800D01*
X86000D01*
Y-134300D01*
X95100D01*
Y-119400D01*
X114431D01*
X114702Y-119512D01*
X115402Y-119604D01*
X121701D01*
X122401Y-119512D01*
X122671Y-119400D01*
X125010D01*
Y-114000D01*
X125400Y-114000D01*
X125010D01*
Y-94490D01*
Y-94100D01*
X123957D01*
X123736Y-93652D01*
X124043Y-93252D01*
X124189Y-92900D01*
X112914D01*
X113060Y-93252D01*
X113366Y-93652D01*
X113145Y-94100D01*
X110740D01*
X109070Y-92430D01*
X108682Y-92171D01*
X107050Y-90539D01*
X97400D01*
Y-49200D01*
X94900D01*
Y-34500D01*
X93500Y-33100D01*
X93300Y-33300D01*
X45800D01*
Y-2384D01*
X72632D01*
X72889Y-2813D01*
X72596Y-3361D01*
X72218Y-4608D01*
X72090Y-5906D01*
X72218Y-7203D01*
X72596Y-8450D01*
X73211Y-9600D01*
X74038Y-10608D01*
X75046Y-11435D01*
X76195Y-12049D01*
X77443Y-12428D01*
X78740Y-12556D01*
X80037Y-12428D01*
X81285Y-12049D01*
X82435Y-11435D01*
X83442Y-10608D01*
X84269Y-9600D01*
X84884Y-8450D01*
X85263Y-7203D01*
X85390Y-5906D01*
X85263Y-4608D01*
X84884Y-3361D01*
X84591Y-2813D01*
X84848Y-2384D01*
X348222D01*
X348479Y-2813D01*
X348187Y-3361D01*
X347808Y-4608D01*
X347681Y-5906D01*
X347808Y-7203D01*
X348187Y-8450D01*
X348801Y-9600D01*
X349628Y-10608D01*
X350636Y-11435D01*
X351786Y-12049D01*
X353033Y-12428D01*
X354331Y-12556D01*
X355628Y-12428D01*
X356876Y-12049D01*
X358025Y-11435D01*
X359033Y-10608D01*
X359860Y-9600D01*
X360475Y-8450D01*
X360853Y-7203D01*
X360981Y-5906D01*
X360853Y-4608D01*
X360475Y-3361D01*
X360182Y-2813D01*
X360439Y-2384D01*
X367716D01*
Y-190616D01*
D02*
G37*
%LPC*%
G36*
X63260Y-107109D02*
X62098Y-107262D01*
X61014Y-107711D01*
X60084Y-108424D01*
X59370Y-109354D01*
X58922Y-110438D01*
X58769Y-111600D01*
X58922Y-112762D01*
X59370Y-113846D01*
X60084Y-114776D01*
X61014Y-115489D01*
X62098Y-115938D01*
X63260Y-116091D01*
X64422Y-115938D01*
X65505Y-115489D01*
X66436Y-114776D01*
X67149Y-113846D01*
X67598Y-112762D01*
X67751Y-111600D01*
X67598Y-110438D01*
X67149Y-109354D01*
X66436Y-108424D01*
X65505Y-107711D01*
X64422Y-107262D01*
X63260Y-107109D01*
D02*
G37*
G36*
Y-97109D02*
X62098Y-97262D01*
X61014Y-97711D01*
X60084Y-98424D01*
X59370Y-99354D01*
X58922Y-100438D01*
X58769Y-101600D01*
X58922Y-102762D01*
X59370Y-103846D01*
X60084Y-104776D01*
X61014Y-105490D01*
X62098Y-105938D01*
X63260Y-106091D01*
X64422Y-105938D01*
X65505Y-105490D01*
X66436Y-104776D01*
X67149Y-103846D01*
X67598Y-102762D01*
X67751Y-101600D01*
X67598Y-100438D01*
X67149Y-99354D01*
X66436Y-98424D01*
X65505Y-97711D01*
X64422Y-97262D01*
X63260Y-97109D01*
D02*
G37*
G36*
X64260Y-127241D02*
Y-130600D01*
X67619D01*
X67598Y-130438D01*
X67149Y-129354D01*
X66436Y-128424D01*
X65505Y-127710D01*
X64422Y-127262D01*
X64260Y-127241D01*
D02*
G37*
G36*
X63260Y-117109D02*
X62098Y-117262D01*
X61014Y-117710D01*
X60084Y-118424D01*
X59370Y-119354D01*
X58922Y-120438D01*
X58769Y-121600D01*
X58922Y-122762D01*
X59370Y-123846D01*
X60084Y-124776D01*
X61014Y-125489D01*
X62098Y-125938D01*
X63260Y-126091D01*
X64422Y-125938D01*
X65505Y-125489D01*
X66436Y-124776D01*
X67149Y-123846D01*
X67598Y-122762D01*
X67751Y-121600D01*
X67598Y-120438D01*
X67149Y-119354D01*
X66436Y-118424D01*
X65505Y-117710D01*
X64422Y-117262D01*
X63260Y-117109D01*
D02*
G37*
G36*
X353800Y-96600D02*
X350347D01*
Y-100053D01*
X353800D01*
Y-96600D01*
D02*
G37*
G36*
Y-91147D02*
X350347D01*
Y-94600D01*
X353800D01*
Y-91147D01*
D02*
G37*
G36*
X359253D02*
X355800D01*
Y-94600D01*
X359253D01*
Y-91147D01*
D02*
G37*
G36*
Y-96600D02*
X355800D01*
Y-100053D01*
X359253D01*
Y-96600D01*
D02*
G37*
G36*
X63260Y-87109D02*
X62098Y-87262D01*
X61014Y-87710D01*
X60084Y-88424D01*
X59370Y-89354D01*
X58922Y-90438D01*
X58769Y-91600D01*
X58922Y-92762D01*
X59370Y-93846D01*
X60084Y-94776D01*
X61014Y-95490D01*
X62098Y-95938D01*
X63260Y-96091D01*
X64422Y-95938D01*
X65505Y-95490D01*
X66436Y-94776D01*
X67149Y-93846D01*
X67598Y-92762D01*
X67751Y-91600D01*
X67598Y-90438D01*
X67149Y-89354D01*
X66436Y-88424D01*
X65505Y-87710D01*
X64422Y-87262D01*
X63260Y-87109D01*
D02*
G37*
G36*
X353000Y-159909D02*
X351838Y-160062D01*
X350754Y-160511D01*
X349824Y-161224D01*
X349111Y-162154D01*
X348662Y-163238D01*
X348509Y-164400D01*
X348662Y-165562D01*
X349111Y-166646D01*
X349824Y-167576D01*
X350754Y-168289D01*
X351838Y-168738D01*
X353000Y-168891D01*
X354162Y-168738D01*
X355246Y-168289D01*
X356176Y-167576D01*
X356890Y-166646D01*
X357338Y-165562D01*
X357491Y-164400D01*
X357338Y-163238D01*
X356890Y-162154D01*
X356176Y-161224D01*
X355246Y-160511D01*
X354162Y-160062D01*
X353000Y-159909D01*
D02*
G37*
G36*
Y-149909D02*
X351838Y-150062D01*
X350754Y-150511D01*
X349824Y-151224D01*
X349111Y-152154D01*
X348662Y-153238D01*
X348509Y-154400D01*
X348662Y-155562D01*
X349111Y-156646D01*
X349824Y-157576D01*
X350754Y-158290D01*
X351838Y-158738D01*
X353000Y-158891D01*
X354162Y-158738D01*
X355246Y-158290D01*
X356176Y-157576D01*
X356890Y-156646D01*
X357338Y-155562D01*
X357491Y-154400D01*
X357338Y-153238D01*
X356890Y-152154D01*
X356176Y-151224D01*
X355246Y-150511D01*
X354162Y-150062D01*
X353000Y-149909D01*
D02*
G37*
G36*
X67197Y-161244D02*
X65707Y-161391D01*
X64274Y-161826D01*
X62953Y-162532D01*
X61795Y-163482D01*
X60845Y-164639D01*
X60139Y-165960D01*
X59705Y-167393D01*
X59558Y-168884D01*
X59705Y-170374D01*
X60139Y-171807D01*
X60845Y-173127D01*
X61795Y-174285D01*
X62953Y-175235D01*
X64274Y-175941D01*
X65707Y-176376D01*
X67197Y-176523D01*
X68687Y-176376D01*
X70120Y-175941D01*
X71441Y-175235D01*
X72599Y-174285D01*
X73549Y-173127D01*
X74255Y-171807D01*
X74689Y-170374D01*
X74836Y-168884D01*
X74689Y-167393D01*
X74255Y-165960D01*
X73549Y-164639D01*
X72599Y-163482D01*
X71441Y-162532D01*
X70120Y-161826D01*
X68687Y-161391D01*
X67197Y-161244D01*
D02*
G37*
G36*
X328063D02*
X326573Y-161391D01*
X325140Y-161826D01*
X323819Y-162532D01*
X322661Y-163482D01*
X321711Y-164639D01*
X321005Y-165960D01*
X320571Y-167393D01*
X320424Y-168884D01*
X320571Y-170374D01*
X321005Y-171807D01*
X321711Y-173127D01*
X322661Y-174285D01*
X323819Y-175235D01*
X325140Y-175941D01*
X326573Y-176376D01*
X328063Y-176523D01*
X329553Y-176376D01*
X330986Y-175941D01*
X332307Y-175235D01*
X333465Y-174285D01*
X334415Y-173127D01*
X335121Y-171807D01*
X335555Y-170374D01*
X335702Y-168884D01*
X335555Y-167393D01*
X335121Y-165960D01*
X334415Y-164639D01*
X333465Y-163482D01*
X332307Y-162532D01*
X330986Y-161826D01*
X329553Y-161391D01*
X328063Y-161244D01*
D02*
G37*
G36*
X353000Y-139909D02*
X351838Y-140062D01*
X350754Y-140510D01*
X349824Y-141224D01*
X349111Y-142154D01*
X348662Y-143238D01*
X348509Y-144400D01*
X348662Y-145562D01*
X349111Y-146646D01*
X349824Y-147576D01*
X350754Y-148290D01*
X351838Y-148738D01*
X353000Y-148891D01*
X354162Y-148738D01*
X355246Y-148290D01*
X356176Y-147576D01*
X356890Y-146646D01*
X357338Y-145562D01*
X357491Y-144400D01*
X357338Y-143238D01*
X356890Y-142154D01*
X356176Y-141224D01*
X355246Y-140510D01*
X354162Y-140062D01*
X353000Y-139909D01*
D02*
G37*
G36*
X67619Y-132600D02*
X64260D01*
Y-135959D01*
X64422Y-135938D01*
X65505Y-135489D01*
X66436Y-134776D01*
X67149Y-133846D01*
X67598Y-132762D01*
X67619Y-132600D01*
D02*
G37*
G36*
X62260Y-127241D02*
X62098Y-127262D01*
X61014Y-127710D01*
X60084Y-128424D01*
X59370Y-129354D01*
X58922Y-130438D01*
X58900Y-130600D01*
X62260D01*
Y-127241D01*
D02*
G37*
G36*
X357453Y-129947D02*
X348547D01*
Y-138853D01*
X357453D01*
Y-129947D01*
D02*
G37*
G36*
X62260Y-132600D02*
X58900D01*
X58922Y-132762D01*
X59370Y-133846D01*
X60084Y-134776D01*
X61014Y-135489D01*
X62098Y-135938D01*
X62260Y-135959D01*
Y-132600D01*
D02*
G37*
G36*
X354800Y-81109D02*
X353638Y-81262D01*
X352554Y-81710D01*
X351624Y-82424D01*
X350910Y-83354D01*
X350462Y-84438D01*
X350309Y-85600D01*
X350462Y-86762D01*
X350910Y-87846D01*
X351624Y-88776D01*
X352554Y-89490D01*
X353638Y-89938D01*
X354800Y-90091D01*
X355962Y-89938D01*
X357046Y-89490D01*
X357976Y-88776D01*
X358689Y-87846D01*
X359138Y-86762D01*
X359291Y-85600D01*
X359138Y-84438D01*
X358689Y-83354D01*
X357976Y-82424D01*
X357046Y-81710D01*
X355962Y-81262D01*
X354800Y-81109D01*
D02*
G37*
G36*
X63260Y-57109D02*
X62098Y-57262D01*
X61014Y-57710D01*
X60084Y-58424D01*
X59370Y-59354D01*
X58922Y-60438D01*
X58769Y-61600D01*
X58922Y-62762D01*
X59370Y-63846D01*
X60084Y-64776D01*
X61014Y-65490D01*
X62098Y-65938D01*
X63260Y-66091D01*
X64422Y-65938D01*
X65505Y-65490D01*
X66436Y-64776D01*
X67149Y-63846D01*
X67598Y-62762D01*
X67751Y-61600D01*
X67598Y-60438D01*
X67149Y-59354D01*
X66436Y-58424D01*
X65505Y-57710D01*
X64422Y-57262D01*
X63260Y-57109D01*
D02*
G37*
G36*
X354800Y-51109D02*
X353638Y-51262D01*
X352554Y-51710D01*
X351624Y-52424D01*
X350910Y-53354D01*
X350462Y-54438D01*
X350309Y-55600D01*
X350462Y-56762D01*
X350910Y-57846D01*
X351624Y-58776D01*
X352554Y-59490D01*
X353638Y-59938D01*
X354800Y-60091D01*
X355962Y-59938D01*
X357046Y-59490D01*
X357976Y-58776D01*
X358689Y-57846D01*
X359138Y-56762D01*
X359291Y-55600D01*
X359138Y-54438D01*
X358689Y-53354D01*
X357976Y-52424D01*
X357046Y-51710D01*
X355962Y-51262D01*
X354800Y-51109D01*
D02*
G37*
G36*
Y-61109D02*
X353638Y-61262D01*
X352554Y-61711D01*
X351624Y-62424D01*
X350910Y-63354D01*
X350462Y-64438D01*
X350309Y-65600D01*
X350462Y-66762D01*
X350910Y-67846D01*
X351624Y-68776D01*
X352554Y-69490D01*
X353638Y-69938D01*
X354800Y-70091D01*
X355962Y-69938D01*
X357046Y-69490D01*
X357976Y-68776D01*
X358689Y-67846D01*
X359138Y-66762D01*
X359291Y-65600D01*
X359138Y-64438D01*
X358689Y-63354D01*
X357976Y-62424D01*
X357046Y-61711D01*
X355962Y-61262D01*
X354800Y-61109D01*
D02*
G37*
G36*
X128732Y-68627D02*
Y-68627D01*
X128528Y-68627D01*
X128453D01*
X128378D01*
X128174Y-68627D01*
X128174Y-68627D01*
Y-68627D01*
X122622D01*
Y-68774D01*
X121500D01*
X120717Y-68877D01*
X119987Y-69179D01*
X119360Y-69660D01*
X116412Y-72609D01*
X115931Y-73236D01*
X115628Y-73966D01*
X115525Y-74749D01*
Y-79196D01*
X115402D01*
X114702Y-79288D01*
X114049Y-79558D01*
X113489Y-79988D01*
X113060Y-80548D01*
X112789Y-81200D01*
X112697Y-81900D01*
X112789Y-82600D01*
X113060Y-83252D01*
X113489Y-83812D01*
X113930Y-84150D01*
Y-84650D01*
X113489Y-84988D01*
X113060Y-85548D01*
X112914Y-85900D01*
X118552D01*
Y-87900D01*
X112914D01*
X113060Y-88252D01*
X113489Y-88812D01*
X113930Y-89150D01*
Y-89650D01*
X113489Y-89988D01*
X113060Y-90548D01*
X112914Y-90900D01*
X123732D01*
X124356Y-91523D01*
X124405Y-91900D01*
X124370Y-92171D01*
X124843Y-92010D01*
X126166Y-93334D01*
X126793Y-93815D01*
X127523Y-94117D01*
X127523Y-94117D01*
X127523Y-94117D01*
D01*
X127523Y-94117D01*
X127523Y-94117D01*
X128306Y-94220D01*
X129089Y-94117D01*
X129819Y-93815D01*
X130446Y-93334D01*
X130926Y-92707D01*
X131145Y-92180D01*
X131640Y-92245D01*
X131687Y-92600D01*
X131957Y-93252D01*
X132387Y-93812D01*
X132827Y-94150D01*
Y-94650D01*
X132387Y-94988D01*
X131957Y-95548D01*
X131687Y-96200D01*
X131595Y-96900D01*
X131687Y-97600D01*
X131957Y-98252D01*
X132387Y-98812D01*
X132827Y-99150D01*
Y-99650D01*
X132387Y-99988D01*
X131957Y-100548D01*
X131687Y-101200D01*
X131595Y-101900D01*
X131687Y-102600D01*
X131957Y-103252D01*
X132387Y-103812D01*
X132827Y-104150D01*
Y-104650D01*
X132387Y-104988D01*
X131957Y-105548D01*
X131687Y-106200D01*
X131595Y-106900D01*
X131687Y-107600D01*
X131957Y-108252D01*
X132387Y-108812D01*
X132827Y-109150D01*
Y-109650D01*
X132387Y-109988D01*
X131957Y-110548D01*
X131687Y-111200D01*
X131595Y-111900D01*
X131687Y-112600D01*
X131957Y-113252D01*
X132387Y-113812D01*
X132827Y-114150D01*
Y-114650D01*
X132387Y-114988D01*
X131957Y-115548D01*
X131687Y-116200D01*
X131595Y-116900D01*
X131687Y-117600D01*
X131957Y-118252D01*
X132387Y-118812D01*
X132947Y-119242D01*
X133599Y-119512D01*
X134299Y-119604D01*
X140598D01*
X141298Y-119512D01*
X141951Y-119242D01*
X142478Y-118837D01*
X143399D01*
X144025Y-119255D01*
X145000Y-119449D01*
X145975Y-119255D01*
X146176Y-119121D01*
X146617Y-119357D01*
Y-120073D01*
X152373D01*
Y-120073D01*
X152522D01*
X152726Y-120073D01*
X152726Y-120073D01*
Y-120073D01*
X158278D01*
Y-117791D01*
X158323Y-117683D01*
X158426Y-116900D01*
Y-110800D01*
Y-104700D01*
Y-98600D01*
Y-97453D01*
X163040Y-92840D01*
X163521Y-92213D01*
X163609Y-91999D01*
X163823Y-91483D01*
X163926Y-90700D01*
Y-86360D01*
X164026Y-85600D01*
X163923Y-84817D01*
X163620Y-84087D01*
X163140Y-83460D01*
X162513Y-82980D01*
X161783Y-82677D01*
X161000Y-82574D01*
X160950Y-82581D01*
X160900Y-82574D01*
X160117Y-82677D01*
X159387Y-82980D01*
X158760Y-83460D01*
X158280Y-84087D01*
X157977Y-84817D01*
X157874Y-85600D01*
Y-89447D01*
X153260Y-94060D01*
X152779Y-94687D01*
X152477Y-95417D01*
X152476Y-95427D01*
X152373D01*
X152373D01*
X152097Y-95427D01*
X152097Y-95427D01*
Y-95427D01*
X146617D01*
Y-96663D01*
X145400D01*
X144659Y-96810D01*
X144085Y-97194D01*
X143663Y-97278D01*
X143298Y-96936D01*
X143303Y-96900D01*
X143211Y-96200D01*
X142940Y-95548D01*
X142511Y-94988D01*
X141951Y-94558D01*
Y-94242D01*
X142511Y-93812D01*
X142940Y-93252D01*
X143211Y-92600D01*
X143303Y-91900D01*
X143211Y-91200D01*
X142940Y-90548D01*
X142511Y-89988D01*
X142532Y-89926D01*
X151758D01*
X151800Y-89931D01*
X152583Y-89828D01*
X152691Y-89784D01*
X154973D01*
Y-84028D01*
D01*
Y-84028D01*
X154973Y-84028D01*
Y-83878D01*
X154973D01*
Y-82000D01*
X148627D01*
Y-83874D01*
X143028D01*
X142807Y-83426D01*
X142940Y-83252D01*
X143086Y-82900D01*
X131811D01*
X131957Y-83252D01*
X132387Y-83812D01*
X132827Y-84150D01*
Y-84650D01*
X132387Y-84988D01*
X131957Y-85548D01*
X131687Y-86200D01*
X131595Y-86900D01*
X131687Y-87600D01*
X131957Y-88252D01*
X132387Y-88812D01*
X132827Y-89150D01*
Y-89650D01*
X132387Y-89988D01*
X131957Y-90548D01*
X131788Y-90957D01*
X131292Y-90892D01*
X131229Y-90411D01*
X130926Y-89681D01*
X130446Y-89055D01*
X128526Y-87135D01*
Y-74973D01*
D01*
X128528D01*
X128879Y-74973D01*
X128879Y-74973D01*
Y-74973D01*
X130405D01*
Y-71801D01*
Y-68627D01*
X128732D01*
X128732Y-68627D01*
D02*
G37*
G36*
X354800Y-41109D02*
X353638Y-41262D01*
X352554Y-41710D01*
X351624Y-42424D01*
X350910Y-43354D01*
X350462Y-44438D01*
X350309Y-45600D01*
X350462Y-46762D01*
X350910Y-47846D01*
X351624Y-48776D01*
X352554Y-49490D01*
X353638Y-49938D01*
X354800Y-50091D01*
X355962Y-49938D01*
X357046Y-49490D01*
X357976Y-48776D01*
X358689Y-47846D01*
X359138Y-46762D01*
X359291Y-45600D01*
X359138Y-44438D01*
X358689Y-43354D01*
X357976Y-42424D01*
X357046Y-41710D01*
X355962Y-41262D01*
X354800Y-41109D01*
D02*
G37*
G36*
X328063Y-16677D02*
X326573Y-16824D01*
X325140Y-17259D01*
X323819Y-17965D01*
X322661Y-18915D01*
X321711Y-20073D01*
X321005Y-21393D01*
X320571Y-22826D01*
X320424Y-24317D01*
X320571Y-25807D01*
X321005Y-27240D01*
X321711Y-28561D01*
X322661Y-29718D01*
X323819Y-30668D01*
X325140Y-31374D01*
X326573Y-31809D01*
X328063Y-31956D01*
X329553Y-31809D01*
X330986Y-31374D01*
X332307Y-30668D01*
X333465Y-29718D01*
X334415Y-28561D01*
X335121Y-27240D01*
X335555Y-25807D01*
X335702Y-24317D01*
X335555Y-22826D01*
X335121Y-21393D01*
X334415Y-20073D01*
X333465Y-18915D01*
X332307Y-17965D01*
X330986Y-17259D01*
X329553Y-16824D01*
X328063Y-16677D01*
D02*
G37*
G36*
X354800Y-21109D02*
X353638Y-21262D01*
X352554Y-21711D01*
X351624Y-22424D01*
X350910Y-23354D01*
X350462Y-24438D01*
X350309Y-25600D01*
X350462Y-26762D01*
X350910Y-27846D01*
X351624Y-28776D01*
X352554Y-29489D01*
X353638Y-29938D01*
X354800Y-30091D01*
X355962Y-29938D01*
X357046Y-29489D01*
X357976Y-28776D01*
X358689Y-27846D01*
X359138Y-26762D01*
X359291Y-25600D01*
X359138Y-24438D01*
X358689Y-23354D01*
X357976Y-22424D01*
X357046Y-21711D01*
X355962Y-21262D01*
X354800Y-21109D01*
D02*
G37*
G36*
Y-31109D02*
X353638Y-31262D01*
X352554Y-31710D01*
X351624Y-32424D01*
X350910Y-33354D01*
X350462Y-34438D01*
X350309Y-35600D01*
X350462Y-36762D01*
X350910Y-37846D01*
X351624Y-38776D01*
X352554Y-39489D01*
X353638Y-39938D01*
X354800Y-40091D01*
X355962Y-39938D01*
X357046Y-39489D01*
X357976Y-38776D01*
X358689Y-37846D01*
X359138Y-36762D01*
X359291Y-35600D01*
X359138Y-34438D01*
X358689Y-33354D01*
X357976Y-32424D01*
X357046Y-31710D01*
X355962Y-31262D01*
X354800Y-31109D01*
D02*
G37*
G36*
X67197Y-16677D02*
X65707Y-16824D01*
X64274Y-17259D01*
X62953Y-17965D01*
X61795Y-18915D01*
X60845Y-20073D01*
X60139Y-21393D01*
X59705Y-22826D01*
X59558Y-24317D01*
X59705Y-25807D01*
X60139Y-27240D01*
X60845Y-28561D01*
X61795Y-29718D01*
X62953Y-30668D01*
X64274Y-31374D01*
X65707Y-31809D01*
X67197Y-31956D01*
X68687Y-31809D01*
X70120Y-31374D01*
X71441Y-30668D01*
X72599Y-29718D01*
X73549Y-28561D01*
X74255Y-27240D01*
X74689Y-25807D01*
X74836Y-24317D01*
X74689Y-22826D01*
X74255Y-21393D01*
X73549Y-20073D01*
X72599Y-18915D01*
X71441Y-17965D01*
X70120Y-17259D01*
X68687Y-16824D01*
X67197Y-16677D01*
D02*
G37*
G36*
X140598Y-79196D02*
X138449D01*
Y-80900D01*
X143086D01*
X142940Y-80548D01*
X142511Y-79988D01*
X141951Y-79558D01*
X141298Y-79288D01*
X140598Y-79196D01*
D02*
G37*
G36*
X354800Y-71109D02*
X353638Y-71262D01*
X352554Y-71710D01*
X351624Y-72424D01*
X350910Y-73354D01*
X350462Y-74438D01*
X350309Y-75600D01*
X350462Y-76762D01*
X350910Y-77846D01*
X351624Y-78776D01*
X352554Y-79489D01*
X353638Y-79938D01*
X354800Y-80091D01*
X355962Y-79938D01*
X357046Y-79489D01*
X357976Y-78776D01*
X358689Y-77846D01*
X359138Y-76762D01*
X359291Y-75600D01*
X359138Y-74438D01*
X358689Y-73354D01*
X357976Y-72424D01*
X357046Y-71710D01*
X355962Y-71262D01*
X354800Y-71109D01*
D02*
G37*
G36*
X63260Y-77109D02*
X62098Y-77262D01*
X61014Y-77710D01*
X60084Y-78424D01*
X59370Y-79354D01*
X58922Y-80438D01*
X58769Y-81600D01*
X58922Y-82762D01*
X59370Y-83846D01*
X60084Y-84776D01*
X61014Y-85489D01*
X62098Y-85938D01*
X63260Y-86091D01*
X64422Y-85938D01*
X65505Y-85489D01*
X66436Y-84776D01*
X67149Y-83846D01*
X67598Y-82762D01*
X67751Y-81600D01*
X67598Y-80438D01*
X67149Y-79354D01*
X66436Y-78424D01*
X65505Y-77710D01*
X64422Y-77262D01*
X63260Y-77109D01*
D02*
G37*
G36*
X136449Y-79196D02*
X134299D01*
X133599Y-79288D01*
X132947Y-79558D01*
X132387Y-79988D01*
X131957Y-80548D01*
X131811Y-80900D01*
X136449D01*
Y-79196D01*
D02*
G37*
G36*
X150800Y-78122D02*
X148627D01*
Y-80000D01*
X150800D01*
Y-78122D01*
D02*
G37*
G36*
X134283Y-72800D02*
X132405D01*
Y-74973D01*
X134283D01*
Y-72800D01*
D02*
G37*
G36*
Y-68627D02*
X132405D01*
Y-70800D01*
X134283D01*
Y-68627D01*
D02*
G37*
G36*
X154973Y-78122D02*
X152800D01*
Y-80000D01*
X154973D01*
Y-78122D01*
D02*
G37*
G36*
X63260Y-67109D02*
X62098Y-67262D01*
X61014Y-67711D01*
X60084Y-68424D01*
X59370Y-69354D01*
X58922Y-70438D01*
X58769Y-71600D01*
X58922Y-72762D01*
X59370Y-73846D01*
X60084Y-74776D01*
X61014Y-75489D01*
X62098Y-75938D01*
X63260Y-76091D01*
X64422Y-75938D01*
X65505Y-75489D01*
X66436Y-74776D01*
X67149Y-73846D01*
X67598Y-72762D01*
X67751Y-71600D01*
X67598Y-70438D01*
X67149Y-69354D01*
X66436Y-68424D01*
X65505Y-67711D01*
X64422Y-67262D01*
X63260Y-67109D01*
D02*
G37*
%LPD*%
D11*
X145000Y-116900D02*
X149495D01*
X137449D02*
X145000D01*
X144487Y-105313D02*
X145100Y-104700D01*
X142900Y-106900D02*
X144487Y-105313D01*
X144300Y-99700D02*
X145400Y-98600D01*
X142100Y-101900D02*
X144300Y-99700D01*
X144800Y-110800D02*
X149495D01*
X143700Y-111900D02*
X144800Y-110800D01*
X137449Y-111900D02*
X143700D01*
X145100Y-104700D02*
X149495D01*
X137449Y-106900D02*
X142900D01*
X145400Y-98600D02*
X149495D01*
X137449Y-101900D02*
X142100D01*
X96005Y-101067D02*
X105267D01*
X106100Y-101900D01*
X118551D01*
X110800Y-96900D02*
X118551D01*
X107700Y-93800D02*
X110800Y-96900D01*
X96005Y-93800D02*
X107700D01*
D12*
X90100Y-130500D02*
Y-115600D01*
X96005D02*
X107200D01*
X110900Y-111900D01*
X118551D01*
X109500Y-106900D02*
X118551D01*
X108067Y-108333D02*
X109500Y-106900D01*
X96005Y-108333D02*
X108067D01*
D13*
X160900Y-90700D02*
Y-85600D01*
X155400Y-96200D02*
X160900Y-90700D01*
X155400Y-98600D02*
Y-96200D01*
X125500Y-88388D02*
Y-71800D01*
Y-88388D02*
X128306Y-91194D01*
X155400Y-104700D02*
Y-98600D01*
Y-110800D02*
Y-104700D01*
Y-116900D02*
Y-110800D01*
X151795Y-86900D02*
X151800Y-86905D01*
X137449Y-86900D02*
X151795D01*
X118551Y-81900D02*
Y-74749D01*
X121500Y-71800D01*
X125500D01*
D14*
X84400Y-101000D02*
X84467Y-101067D01*
X90100D01*
X83500Y-108400D02*
X83567Y-108333D01*
X90100D01*
Y-93800D02*
X90200Y-93700D01*
Y-46600D01*
D15*
X0Y-192913D02*
X370200D01*
X0Y0D02*
X370200D01*
X0Y-192913D02*
Y0D01*
X370079Y-192913D02*
Y0D01*
D16*
X354331Y-5906D02*
D03*
Y-187008D02*
D03*
X78740D02*
D03*
Y-5906D02*
D03*
D17*
X63260Y-61600D02*
D03*
Y-71600D02*
D03*
Y-81600D02*
D03*
Y-91600D02*
D03*
Y-101600D02*
D03*
Y-111600D02*
D03*
Y-121600D02*
D03*
Y-131600D02*
D03*
X353000Y-164400D02*
D03*
Y-154400D02*
D03*
Y-144400D02*
D03*
X354800Y-85600D02*
D03*
Y-75600D02*
D03*
Y-65600D02*
D03*
Y-55600D02*
D03*
Y-45600D02*
D03*
Y-35600D02*
D03*
Y-25600D02*
D03*
D18*
X67197Y-24317D02*
D03*
X328063D02*
D03*
Y-168884D02*
D03*
X67197D02*
D03*
D19*
X353000Y-134400D02*
D03*
X354800Y-95600D02*
D03*
D20*
X145000Y-116900D02*
D03*
X144800Y-110800D02*
D03*
X144487Y-105313D02*
D03*
X144300Y-99700D02*
D03*
X90100Y-130500D02*
D03*
X83500Y-108400D02*
D03*
X84467Y-101067D02*
D03*
X90200Y-46600D02*
D03*
D21*
X161000Y-85600D02*
D03*
X128306Y-91194D02*
D03*
D22*
X26100Y-25200D02*
D03*
Y-72667D02*
D03*
Y-120133D02*
D03*
Y-167600D02*
D03*
D23*
X118551Y-116900D02*
D03*
Y-111900D02*
D03*
Y-106900D02*
D03*
Y-101900D02*
D03*
Y-96900D02*
D03*
Y-91900D02*
D03*
Y-86900D02*
D03*
Y-81900D02*
D03*
X137449Y-116900D02*
D03*
Y-111900D02*
D03*
Y-106900D02*
D03*
Y-101900D02*
D03*
Y-96900D02*
D03*
Y-91900D02*
D03*
Y-86900D02*
D03*
Y-81900D02*
D03*
D24*
X125500Y-71800D02*
D03*
X131405D02*
D03*
X96005Y-115600D02*
D03*
X90100D02*
D03*
X155400Y-116900D02*
D03*
X149495D02*
D03*
X155400Y-110800D02*
D03*
X149495D02*
D03*
X155400Y-104700D02*
D03*
X149495D02*
D03*
X96005Y-108333D02*
D03*
X90100D02*
D03*
X96005Y-101067D02*
D03*
X90100D02*
D03*
X96005Y-93800D02*
D03*
X90100D02*
D03*
X149495Y-98600D02*
D03*
X155400D02*
D03*
D25*
X151800Y-81000D02*
D03*
Y-86905D02*
D03*
M02*
