M48
INCH,LZ
T01C.00394
T02C.0078
T03C.007874
T04C.011811
T05C.015748
T06C.02
T07C.025
T08C.035429
T09C.035433
T10C.03622
T11C.066929
T12C.08661
T13C.090551
T14C.133858
T15C.025591
T16C.035429
T17C.059059
;LEADER: 12 
;HEADER: 
;CODE  : ASCII 
;FILE  : WeChat_ZM_PART_2020527-1-8.drl for board #Taaaaag07072.tmp ... layers TOP and BOTTOM
;T02 Holesize 1. = 7.800000 Tolerance = +0.000000/-0.000000 PLATED MILS Quantity = 933
;T03 Holesize 2. = 7.874000 Tolerance = +0.000000/-0.000000 PLATED MILS Quantity = 724
;T04 Holesize 3. = 11.811000 Tolerance = +0.000000/-0.000000 PLATED MILS Quantity = 183
;T05 Holesize 4. = 15.748000 Tolerance = +0.000000/-0.000000 PLATED MILS Quantity = 12
;T06 Holesize 5. = 20.000000 Tolerance = +0.000000/-0.000000 PLATED MILS Quantity = 17
;T07 Holesize 6. = 25.000000 Tolerance = +0.000000/-0.000000 PLATED MILS Quantity = 1
;T08 Holesize 7. = 35.429000 Tolerance = +0.000000/-0.000000 PLATED MILS Quantity = 2
;T09 Holesize 8. = 35.433000 Tolerance = +0.000000/-0.000000 PLATED MILS Quantity = 57
;T10 Holesize 9. = 36.220000 Tolerance = +0.000000/-0.000000 PLATED MILS Quantity = 8
;T11 Holesize 10. = 66.929000 Tolerance = +0.000000/-0.000000 PLATED MILS Quantity = 2
;T12 Holesize 11. = 86.610000 Tolerance = +0.000000/-0.000000 PLATED MILS Quantity = 1
;T13 Holesize 12. = 90.551000 Tolerance = +0.000000/-0.000000 PLATED MILS Quantity = 4
;T14 Holesize 13. = 133.858000 Tolerance = +0.000000/-0.000000 PLATED MILS Quantity = 2
%
G90
T02
X00004068Y-00233362
X00007068
X00013068
R02X00003
X00025068
R02X00003
X00037068
R02X00003
X00049068
X00052068
X00055068
X00061068
X00064068
R05X000045
X00089568
X00095568
X00100068
X00106068
X00110568
X00113568
X00118068
X00122568
X00125568
X00130068
X00136068
R02X00006
X00152568
X00160068
X00164568
X00170568
X00238068
X00241068
X00245568
X00251568
X00254568
X003207Y-002298
X003311Y-002202
X003502Y-002322
X003609Y-002317
X004012Y-002308
X004113Y-002306
X004223Y-002244
X004539Y-002241
X00469068Y-00233362
X004687Y-00209
X004593Y-00207
X004567Y-00205465
X004506Y-00202
X004103Y-00218
X004067Y-002005
X00403715Y-00200307
X004012Y-002008
X003906Y-002184
X00381Y-0022
X003154Y-002046
X003127Y-00208519
X003111Y-002035
X003078Y-00207
X002933Y-002071
X002874Y-002067
X00281151Y-00204348
X002725Y-002038
X00172068Y-00213362
X00091068
X00086568
X00079068
X00074568
X00071568
X00064068
X00047568
X00043068
R02X-000045
X00026568
X000251Y-00218
X00023568Y-00213362
X00011568
X00007068
X00004068
X00005568Y-00193362
X00010068
X00013068
R02X000045
X00025068
X00031068
X00034068
X00037068
X00043068
R02X00003
X00055068
R02X00003
X001005Y-00188985
X00113568Y-00193362
X00118068
X00122568
X00125568
X00157068
X001792Y-001913
X00223917Y-0018843
X002263Y-001892
X00229607Y-00183788
X002316Y-001839
X002619Y-00184617
X00264073Y-00184617
X00288754Y-00188299
X00292327Y-00188306
X00294146Y-00193752
X00295917Y-00188314
X00295876Y-00181076
X00295955Y-00195561
X00296111Y-00185186
X00299567Y-0018468
X00301399Y-00182903
X00306825Y-00181076
X00308Y-001999
X003096Y-001967
X00421068Y-00193362
X004275Y-001923
X004292Y-00191
X0043Y-001984
X00466068Y-00193362
X004673Y-001805
X00469068Y-00193362
X00420335Y-001679
X00416182Y-00173682
X004142Y-001613
X004107Y-001737
X00406655Y-00173945
X00402943Y-00174078
X00399456Y-00161444
X003975Y-00161
X0039355Y-0016155
X003913Y-00161
X003891Y-001742
Y-001609
X003873Y-00161271
X003843Y-001759
X00383707Y-00161407
X003786Y-001724
X003768Y-001738
X00371524Y-00173724
X00369456Y-00175944
X00365Y-001759
X00361733Y-00164742
X003598Y-001692
X00328823Y-00167221
X003254Y-001614
X00323121Y-00161171
X00323091Y-0016479
X00321298Y-00162981
X003196Y-001613
X00317664Y-00170219
X00317685Y-001666
X003159Y-00172
X00315881Y-00168409
X00315871Y-00161171
X00315839Y-0016479
X0031405Y-0016295
X0031223Y-00175647
X003111Y-001685
X00310432Y-00166592
X00310393Y-00170219
X00309Y-001685
X00308622Y-00161169
X0030863Y-00172028
X00308Y-001648
Y-001667
X00306821Y-00177456
X00306818Y-00173838
X00306827Y-0016298
X00306803Y-00170219
X00304934Y-00179266
X00303193Y-00166583
X00303194Y-00177406
X00303193Y-00170093
X00303201Y-0016298
X00301378Y-00164789
X00299563Y-00166595
Y-00162977
X00297754Y-00179259
Y-00164786
Y-00172022
X00297772Y-00161158
X00295955Y-00166628
X00294159Y-00164705
X00294146Y-00175646
X00294136Y-00161167
X00292336Y-00170202
X0029228Y-0016298
X00292335Y-00177429
X00292336Y-00173842
X00290524Y-00179519
X00290497Y-0016117
X00290527Y-00168399
X00290516Y-00175537
X00288712Y-00177457
X00288717Y-00166617
X00288681Y-00170219
X002869Y-001648
X00286872Y-00172028
X00286908Y-00161092
X00285098Y-00162998
X0028509Y-00170214
X00285144Y-00177456
X002836Y-001765
X00283289Y-00164889
X00283288Y-00172088
X00281479Y-00162979
X00281478Y-00166621
X00279669Y-00172031
X002796Y-001687
X0027961Y-0016479
X00277781Y-00170219
X002778Y-001666
X0027605Y-0016485
Y-0017205
X00274756Y-00178743
X00273448Y-0016512
X00273Y-001769
X00272983Y-00178803
X00272541Y-00166641
X00272431Y-00168431
X00270581Y-00170219
X00268828Y-00172028
X00267526Y-00177035
X00263377Y-00162981
X00263166Y-00175614
X002614Y-001758
X002319Y-001642
X00231Y-0018
X002291Y-001783
X00223617Y-00172017
X002229Y-00165028
X00221581Y-00172764
X00221102Y-00163843
X00220548Y-00168957
X0021905Y-00162058
X00217547Y-00160756
X00216344Y-00178087
X00214824Y-00160444
X002139Y-0017
X00213709Y-00175754
X00213274Y-00161679
X00212226Y-00168906
X00211001Y-00164967
X002074Y-001694
X00178339Y-001792
X00147839Y-00172139
X001343Y-001727
X001027Y-001791
X000878Y-001797
X00074568Y-00173362
X00059568
X00050568
X00047568
X00043068
X00038568
X00035568
R03X-000045
X00008568
X00004068
Y-00153362
X00010068
X00013068
X00017568
X00025929Y-00145948
X00031068Y-00153362
X00034068
X00070068
X00076068
X00080568
X00088068
R02X00003
X00115068
R02X000045
X00127068
X00151068
X00182568
X00204436Y-00155707
X00211685Y-00153304
X002156Y-00145796
X00216451Y-00159266
X00218385Y-00150214
X00227166Y-00158519
X002277Y-001446
X0023987Y-00143047
X00243424Y-00143076
X00250717Y-00143084
X00252526Y-00141275
X00254254Y-00146699
X002549Y-001589
X00256145Y-00141255
X00256063Y-00148508
X00256228Y-00152101
X00257949Y-00153933
X00259765Y-00144895
X00260568Y-00153362
X00263377Y-00159362
X00265193Y-00146704
X00265294Y-00157606
X00267009Y-00144885
X00268812Y-00150388
X00268813Y-00143091
X00270681Y-00152123
X00272369Y-0014308
X00272413Y-00157526
X00274248Y-00159362
X002742Y-001556
X00274241Y-001521
X00274258Y-00141266
X002779Y-00159
X0027786Y-00148509
X00277883Y-00144885
X0027786Y-00155727
X00279662Y-00150312
X00279654Y-00157554
X00279701Y-00146695
X002798Y-001539
X0028148Y-00155742
X00281471Y-00148503
X00283295Y-00146695
X0028328Y-00143075
X00283289Y-00157546
X00285098Y-00159098
Y-00155698
X0028509Y-00144885
X00285103Y-00152127
X00286812Y-00150318
X00286907Y-00153937
X00288708Y-00141266
X00288707Y-00152121
X00288785Y-00144885
X00290524Y-00143076
X00290517Y-00153931
X00290537Y-00157547
X00292345Y-00152123
X00292327Y-00141266
X00292335Y-00148483
X00292427Y-00159358
X00294136Y-00157549
X00294328Y-00146695
X00295945Y-00152121
Y-0015574
Y-00159358
X0029596Y-00141266
X00295955Y-00148545
X00297754Y-00153931
X00297759Y-00150471
X00297754Y-00146694
Y-00157549
X00297753Y-00143075
X00299563Y-00148503
X00299562Y-00141266
X002996Y-001557
X00299562Y-00144885
X00301372Y-00153931
X003014Y-001575
X00301372Y-00143075
Y-00150312
X00301372Y-00146694
X00303182Y-00152121
X0030325Y-0014848
X00303193Y-00155707
X0030499Y-00150312
X00305007Y-00143072
X00304991Y-00157549
Y-00153931
X00304997Y-001467
X003068Y-00148503
Y-00159358
Y-0015574
X00306807Y-00144891
X00306799Y-00152121
X00308609Y-00146694
Y-00157549
X00308608Y-00153931
X00308609Y-00150312
X00310418Y-00141266
X00310417Y-0015574
X00310421Y-00144832
X00310419Y-00152121
Y-00148503
X00312228Y-00150312
Y-00146694
Y-00153931
X00314037Y-00148503
Y-00141266
Y-00144885
Y-00152121
X00315846Y-00143075
Y-00150312
Y-00146694
X00317655Y-00148503
X00317669Y-0015213
X00317655Y-00144885
X00319478Y-00150303
Y-00153878
X00319465Y-00146694
X00321288Y-00148509
X00321272Y-00159362
X00323098Y-00157569
X00323059Y-00153933
X00323083Y-00143075
X00323098Y-00146695
X00324824Y-00152124
X00326667Y-00153933
X00328443Y-00155743
X00328516Y-00148505
X00328542Y-00159402
X00330125Y-00150314
X00330254Y-001467
X00332146Y-00156048
X00332131Y-00152124
X00332146Y-00141289
X00333971Y-00153948
X00333983Y-00150314
X00334205Y-00157552
X00335804Y-00144885
X00335803Y-00141289
X00337556Y-00143072
X0033773Y-0015765
X00341105Y-00155326
X00343004Y-00148504
X0034358Y-0015785
X00344813Y-00146693
X00346666Y-00141266
X00349155Y-00154276
X00350231Y-00141266
X00351647Y-00154283
X00352256Y-00143077
X00354155Y-00153926
X003714Y-001544
X0037288Y-001561
X00374327Y-00157119
X003763Y-001569
X003785Y-001516
X003831Y-00151785
X00386Y-00154585
X003872Y-001562
X003907Y-00157229
X003913Y-001532
X003926Y-00146
Y-001424
X00392755Y-00148977
X00394765Y-00151762
X003992Y-001554
X004011Y-001555
X004034Y-001556
X004047Y-001583
X00409925Y-00156
X004111Y-001536
X004132Y-001584
X00416568Y-00153362
X00421068
X00420075Y-00121425
X004198Y-00124
X00416212Y-00128388
X004129Y-00126
X00411321Y-00131201
X0041069Y-00128355
X00404891Y-00128342
X00402489Y-00130265
X004Y-00133
X00398503Y-00125687
Y-00127457
X00395522Y-00124878
X003951Y-001347
X003934Y-00137925
X003927Y-00125
X00390992Y-00137972
X00389673Y-00128527
X003872Y-00133
X003866Y-00130251
X003842Y-001347
X00381739Y-001248
X003814Y-001345
X003747Y-00133
X003745Y-001289
X00373312Y-00130278
X003602Y-001214
X00351518Y-00130696
X00351488Y-00128731
X003514Y-001213
X003493Y-001318
X00345155Y-00131876
X00344727Y-00135838
X00344195Y-00128054
X00343763Y-00121821
X00343155Y-00133076
X00342986Y-00137618
X00341194Y-00135603
X00339384Y-00137488
X00333982Y-00132218
X00333954Y-00135837
X00332124Y-00137646
X00332139Y-00134032
X00330257Y-00135837
X00328592Y-00130408
X00328542Y-00126774
X003264Y-00125
X00324908Y-00133992
X003248Y-001304
X00323077Y-00139457
X00323098Y-00128702
X00323066Y-00132218
X00323061Y-00121361
X00321293Y-00123155
X00321327Y-00134028
X00321247Y-00137647
X003195Y-001214
X00319479Y-00128621
X00319478Y-00132229
X00319479Y-00124965
X00317673Y-00134028
X0031767Y-0012679
X00317668Y-00130409
X00317655Y-00137648
X00316035Y-00121482
X00315859Y-0013947
X00314037Y-00134029
X00312369Y-00139461
X00312262Y-00121362
X00310429Y-00126784
X00310419Y-0013041
X00310426Y-00137636
X00308609Y-00135839
Y-00124983
Y-00128602
X003068Y-00126793
Y-00130411
X00305002Y-0012859
X00305021Y-00121362
X00305018Y-00139472
X00304991Y-0013222
X00303182Y-00130411
X00303183Y-00137638
X00303182Y-00123174
X00301372Y-00135839
X00301374Y-00139457
X00299563Y-00137648
Y-00126793
X00297754Y-00135839
X00297779Y-00121354
X00297768Y-00139518
X00297754Y-0013222
X00297762Y-0012501
X00297754Y-00128602
X00295989Y-00123176
X00295945Y-00126793
Y-00130411
Y-00134029
X00294171Y-00121371
X00294136Y-00135839
X00292331Y-00126761
X00292327Y-00134029
Y-00130411
X00292328Y-00137648
X00290535Y-00128602
X00290488Y-00135842
X00290517Y-0013222
X002905Y-00124981
X00288712Y-00126818
X00288736Y-00137647
X00288708Y-0013403
X00288717Y-00130422
X00286898Y-0013222
X00285093Y-00123171
X00285093Y-00134037
X00283271Y-00139457
X0028328Y-0013222
X00283219Y-00124981
X00281479Y-00130394
X00281476Y-00137647
X0028147Y-0012317
X00279707Y-00132223
X00279662Y-00135839
X00276061Y-00121361
X00276019Y-00132219
X00276038Y-00135838
X0027605Y-00128601
X00274209Y-00130409
X00274202Y-00137647
X0027248Y-0012498
X00272425Y-00139457
X00272438Y-00132218
X0027066Y-0012679
X00270571Y-0012317
X00270607Y-00130408
X00270622Y-00133999
X00268806Y-00139457
X00267233Y-00136291
X00267003Y-00123197
X00265187Y-00139457
X00265193Y-00124989
X00263384Y-00126798
X00261637Y-00135837
X00261567Y-00139456
X00259765Y-00130417
X00259804Y-00137705
X00257967Y-00135853
X00257949Y-00132218
X00256063Y-00137652
X00239568Y-00133362
X002197Y-001346
X00170568Y-00133362
X00161568
X00122568
X00104568
X00098568
X00076068
X00028068
X00016068
R02X-00003
X00005568
X00004068Y-00113362
X00007068
R02X000045
X00028068
X00035568
X00040068
X00043068
X00070068
X00082068
X00139068
X00151068
X002113Y-001188
X0025Y-0011
X00274241Y-00115941
X00276044Y-00117746
X00277844Y-00112314
X002778Y-00116
X00277873Y-00112319
X00277853Y-00119556
X00279662Y-00117746
X002815Y-001177
X00281471Y-00112319
X00281478Y-00119521
X00283301Y-0010689
X0028328Y-00114128
Y-00110509
X00285098Y-00105084
X0028509Y-00112319
X00285098Y-00115955
X00286907Y-00103275
Y-00114146
X00288718Y-00119552
X00288708Y-00108701
X00290517Y-00106891
X00290526Y-00114126
X0029054Y-00117744
X00290566Y-00103266
X002906Y-00110504
X0029233Y-00119552
X00292344Y-00101456
X00292335Y-00108665
X00294136Y-00106891
Y-00114128
Y-00110509
X00295945Y-00112319
X00295933Y-00115933
X00295955Y-00119557
X00297715Y-00106885
X00297754Y-00110509
X00297765Y-00114165
X00299495Y-00108695
X00299563Y-00101464
X00299574Y-00105074
X00301384Y-00114184
X00303194Y-00108693
X0030315Y-0011618
X00304996Y-00110504
X00305003Y-00106866
X00304993Y-00103274
X00305002Y-00117797
X00306767Y-00115933
X00308622Y-00114122
X00308658Y-00117742
X003102Y-001157
X00310416Y-00119556
X00310432Y-00112368
X00312277Y-00110489
X003124Y-001177
X00314048Y-00119552
X00314466Y-00114066
X003177Y-001194
X003195Y-001178
X00337605Y-00115776
X00345142Y-00119626
X00349155Y-00112276
X003537Y-001112
X00357656Y-001128
X00362752Y-00112152
X003656Y-00112243
X00367747Y-00112325
X003693Y-001097
X003733Y-001132
X003788Y-001077
X00379579Y-00110521
X00381077Y-001128
X003866Y-001124
X003972Y-001121
X00397307Y-00114222
X00401149Y-00112596
X00405412Y-00114587
X00409933Y-00113867
X00415176Y-001119
X00418433Y-00113867
X00467Y-001057
Y-000895
X004254Y-000996
X0037532Y-00091562
X003733Y-00091475
X00372679Y-00083123
X003707Y-000898
X003341Y-000823
X00327161Y-00080615
X003247Y-000819
X003144Y-000807
X003124Y-000819
X003108Y-000833
X0030549Y-0008862
X00303779Y-00089979
X00301712Y-00087351
X00301399Y-00096036
X00301384Y-00099684
X00299574Y-00097874
X00299286Y-00086462
X002978Y-000855
X00295955Y-00087245
X002959Y-000854
X002946Y-000808
X00294173Y-00096028
X00294146Y-00099646
X00292327Y-00097845
X00290539Y-00099647
X00151068Y-00093362
X00145068
X00136068
X00083568
X00077568
X00056568
X00016068
X00011568
X00008568
X00004068
Y-00073362
X00007068
X00013068
X00016068
X00034068
R02X00003
X00046068
X00052068
X00056568
X00062568
X00067068
X00070068
X00149568
X00152568
X0015563Y-0007343
X00187068Y-00073362
X00191568
X00200568
X00206568
X00244Y-000703
X00275Y-000715
X00306275Y-00078975
X00433068Y-00073362
X004671Y-00078
X00469068Y-00053362
X004567Y-000464
X003958Y-000476
X003731Y-000488
X00373Y-000517
X003675Y-000491
X003672Y-000518
X003616Y-00052
Y-00049
X003557Y-000519
X003556Y-000489
X00334068Y-00053362
X002979Y-000585
X002463Y-000425
X00242568Y-00053362
X00226068
X00158568
X001549Y-000423
X00151068Y-00053362
X00139068
X00131568
X00124068
X00119568
X00107568
X00059568
X00046068
X00026568
X00017568
X00004068
Y-00033363
X00010068
X00014568
X00017568
R02X000045
X00034068
X00038568
X00041568
X00046068
X00058068
X00061068
X00065568
X00070068
X00073068
X00107568
X00116568
R02X00003
X00127068
X00131568
X00134568
R02X000045
X001501Y-00022321
X00155415Y-00022421
X00176568Y-00033363
X00200568
X00208068
X00217068
X00220068
X00224568
X00235068
X002825Y-000272
X00303852Y-00036247
X003044Y-000337
X00310068Y-00033363
X00326568
X00332568
X00335568
X003391Y-000283
X00340068Y-00033363
X00343068
X00347568
X00355068
X00359568
X00362568
X00365568
X00382068
X00385068
X003851Y-000394
X00404568Y-00033363
X00427868Y-00023474
X00451068Y-00033363
X00455568
X00460068
X00466068
X00469068
Y-00013362
X00455568
X00449568
R02X-00003
X00439068
X00425568
X00416568
X004058Y-000062
X00404568Y-00013362
X00389568
X00385068
X00371568
X00344568
R03X-000045
X003287Y-00005994
X00322068Y-00013362
X00313068
X00310068
X00305568
X00302568
X00298068
X00293568
X00272568
X00268068
X00254568
X00251568
X00217068
X00212568
X00205068
X001997Y-000155
X001977Y-00015261
X00165494Y-00017788
X00142068Y-00013362
X00137568
X00130068
R02X-000135
X00092568
X00088068
X00085068
X00079068
X00074568
X00071568
X00067068
X00062568
X00059568
X00056568
X00052068
X00049068
X00041568
X00038568
X00034068
X00026568
X00023568
X00016068
X00004068
T03
X00029878Y-00010124
X0002Y-000148
X0003305Y-0003972
X00023101Y-00068385
X00025929Y-00069781
X0003139Y-00136203
X00029878Y-00138032
X00023101Y-00144274
X00054492Y-00223635
X00056269Y-0018251
X00047266Y-00069781
X00050799Y-00068385
X00052303Y-00067297
X00041196Y-00062896
X00057897Y-00062097
X00057958Y-00054256
X00056858Y-00036181
X0005533Y-0002148
X000508Y-00021446
X00050798Y-00019373
X00047256Y-00017343
X00043453Y-00008706
X00076088Y-00004113
X00079862Y-00043267
X00072059Y-00052202
X00061429Y-00053396
X00064956Y-00055013
X00068488Y-0006354
X00072041Y-00068959
X00074623Y-00073535
X000979Y-00115
X00084567Y-001129
X000865Y-001075
X00096692Y-0010379
X00092823Y-00103786
X00096721Y-00099873
X00092793Y-00099848
X000863Y-000997
X00086609Y-00096909
X00096715Y-00095923
X0009281Y-00095924
X00086361Y-00095216
X0009279Y-0009197
X0008884Y-00091988
X00096731Y-00091978
X00092858Y-00088126
X00088839Y-0008805
X00085184Y-00067308
X00081747Y-0004682
X00082413Y-00040865
X00090991Y-00036198
X000977Y-000323
X000946Y-00027031
X00082695Y-00010124
X00097672Y-00003576
X00099797Y-0000215
X001027Y-000347
X001108Y-000833
X00111012Y-00088727
X00113758Y-000891
X001141Y-000907
X00118383Y-00091319
X001164Y-000913
X00100651Y-00091986
X00104416Y-00094119
X00111152Y-00094967
X0010065Y-00095936
X0011832Y-00097194
X00104587Y-00097888
X00118269Y-00099297
X00116589Y-00099334
X00114819Y-00099386
X00100697Y-00099836
X00104808Y-00101614
X00100649Y-001038
X00116582Y-00105247
X00114832Y-00107026
X00119418Y-00112153
X00110077Y-00112879
X0011827Y-00113381
X00113438Y-00114751
X00110078Y-00119063
X00116395Y-00120831
X00115975Y-00129947
X00117457Y-00136843
X00109789Y-00166568
X00118569Y-00171655
X00112398Y-00172385
X00103224Y-00176824
X00105912Y-00187612
X00105237Y-00192337
X001152Y-002076
X00104985Y-002082
Y-0021374
X001082Y-00213723
X001181Y-0021375
X001148Y-00213873
X001114Y-002146
X00111042Y-00220258
X001098Y-002241
X00118203Y-00228597
X00122055Y-00229055
X00132782Y-00225399
X001312Y-00213873
X001347Y-00213896
X001279Y-00213806
X001214Y-00213728
X00125152Y-00207528
X00126723Y-00207308
X00128298Y-00207133
X00131356Y-00204917
X00136639Y-00201785
X00135571Y-00200211
X00138811Y-00193911
X001388Y-00191
X001385Y-001879
X001394Y-001864
X00123067Y-0017226
X00137521Y-0017222
X00123975Y-00128706
X00136627Y-00125544
X00121467Y-00116681
X00127112Y-00113578
X00121253Y-000934
X00120059Y-00087468
X001248Y-000849
X001311Y-000816
X00132531Y-00072382
X001529Y-000255
X00143104Y-00072761
X00140854Y-0007286
X00142866Y-00074361
X00146769Y-00084997
X00148774Y-00085231
X00141493Y-00085493
X00145165Y-00085877
X00159827Y-00103209
X00159142Y-00121817
X00144398Y-00127088
X00146648Y-00128988
X001582Y-001416
X001454Y-001479
X001441Y-001539
X00140498Y-00156734
X001511Y-00161
X00156647Y-00161247
X001408Y-001644
X00158883Y-00174711
X00151106Y-00182496
X00157267Y-00184581
X001512Y-001871
X00151187Y-00189327
X00140803Y-00192337
X00149885Y-00192496
X00151846Y-00192952
X00157144Y-00197192
X00143665Y-001986
X001512Y-002072
X00143665Y-00207596
X00149119
X00179351Y-00226541
X00177219Y-00226439
X00178888Y-00203304
X001786Y-001707
X001769Y-00169
X00178572Y-00068525
X00177119Y-000679
X001755Y-000675
X00167023Y-00067218
X001743Y-000663
X00163Y-000604
X00174291Y-00054168
X001672Y-000476
X001767Y-000465
X001682Y-000461
X001677Y-000423
X00165369Y-000406
X00167719Y-00039054
X00166952Y-00037414
X00165288Y-00036788
X00168758Y-00034658
X001669Y-000341
X00165092Y-00034008
X00167267Y-00030533
X00165501Y-00029146
X0016762Y-00027768
X00166241Y-0002639
X00167568Y-00024965
X0016587Y-0002362
X00166349Y-00021251
X00166544Y-0001966
X001717Y-00015341
X00168218Y-0001519
X001762Y-000113
X0017078Y-00004666
X00168694Y-00004645
X00170854Y-00002915
X00168767Y-00002894
X001709Y-000013
X00168838Y-0000124
X00195068Y-00001373
X0019504Y-00003028
X00195012Y-00004781
X00185209Y-0001378
X00190481Y-0001391
X00180435Y-00013998
X0019246Y-00013958
X00196023Y-00014013
X00196721Y-00046967
X00191862Y-00047179
X00181527Y-00047695
X00195164Y-00048349
X00186458Y-0005068
X00193951Y-00055538
X00199433Y-00055878
X00199444Y-0005778
X00193933Y-00057934
X00198178Y-00060244
X00196107
X00194036Y-00060278
X00194019Y-00061904
X0019609Y-0006187
X0019816
X00188733Y-00064538
X00191Y-001024
X00196546Y-00102505
X00192335Y-00111594
X001999Y-00112
X001835Y-00113
X001969Y-001151
X001991Y-001245
X00196Y-001311
X001977Y-001323
X001992Y-001332
X001991Y-001767
X001953Y-00177456
X001977Y-001799
X00191Y-001832
X001908Y-001851
X001895Y-001884
X00193Y-00192
X00181736Y-00203354
X00193108Y-0020445
X001945Y-002052
X00189267Y-00226379
X00191023Y-00226388
X00211844Y-00226789
X0020085Y-00226716
X00203306Y-00226631
X00200761Y-00216974
X00203421Y-00217042
X00202784Y-00208402
X00201184Y-00208409
X002021Y-001785
X002008Y-001767
X0021905Y-00175808
X002024Y-001557
X002021Y-001528
X00214Y-001482
X00206334Y-00134866
X002017Y-001304
X002113Y-001303
X002048
X00212Y-001246
X002198Y-001187
X002075Y-001168
X00212744Y-0009722
X002048Y-000949
X00207032Y-00094946
X002051Y-000907
X002085
X002102Y-000904
X00212506Y-0009
X002151Y-000854
X002188Y-000826
X002128Y-000785
X00215532Y-00077385
X002128Y-000646
X00203927Y-00061887
X00200094Y-00061904
X00202062Y-0006187
X002185Y-000606
X00200111Y-00060278
X00203944Y-00060261
X00202079Y-00060244
X00205365Y-00059405
X00205382Y-00057608
X0021488Y-00057219
X0020535Y-00055851
X002134Y-00050757
X002197Y-000447
X00216811Y-00042394
X00218522Y-00042387
X00215164Y-00042345
X00214066Y-00041031
X00201484Y-0004017
X00214168Y-000391
X00201794Y-00038285
X00214093Y-0003741
X00202459Y-00023421
X002066Y-000217
X00202222Y-00020878
X0021675Y-0001725
X00211887Y-00016616
X00205012Y-00004878
X00203357Y-0000485
X00201605Y-00004822
X00205Y-000031
X00203329Y-00003139
X00201577Y-00003112
X00205012Y-0000147
X00203357Y-00001443
X00201605Y-00001415
X002344Y-000055
X002322
X002381
X00232725Y-00008591
X00221608Y-00011695
X00230191Y-00014883
X00230125Y-00017047
X00226059Y-00017528
X00225989Y-00019559
X00221775Y-00019587
X00230265Y-00019641
X00223778Y-00019629
X00227484Y-00019813
X00220438Y-00024407
X00223937Y-00024439
X00222249
X00229043Y-00024538
X00225732Y-00024505
X00227388Y-00024472
X00235382Y-00025139
X00233243Y-00034904
X00239612Y-00035616
X00233168Y-00037227
X00231051Y-00039475
X00238151Y-00039587
X0023579
X00233374Y-00039568
X00225174Y-00042345
X00226773Y-00042303
X00221893Y-00042331
X00223561Y-00042345
X00220308Y-00042359
X002266Y-000458
X002277Y-000471
X002221Y-000534
X002305Y-000539
X002244Y-000668
X00231711Y-000715
X00225071Y-00076939
X00225068Y-00078514
X002216Y-000823
X002238Y-000826
X00232133Y-00085867
X002247Y-000903
X002396Y-00091
X002244Y-000924
X002374Y-000944
X00222Y-001416
X002238
X00228757Y-0015179
X00231759Y-001519
X002398Y-001564
X00235459Y-001639
X002359Y-001708
X002344Y-001837
X00237
X002313Y-001874
X00233Y-002146
X00256Y-002044
X002547Y-002032
X002551Y-001696
X002402Y-001693
X00257955Y-001576
X00253193Y-00156883
X00259765Y-00155835
X002563Y-00155743
X00251264Y-0015519
X00254416Y-00153878
X00249428Y-00153495
X00252561Y-00152124
X002477Y-001516
X00250957Y-00150314
X00245873Y-00149727
X00248986Y-00148506
X00247254Y-00146695
X00252615Y-00144885
X00258Y-001395
X00244437Y-00137036
X00246176Y-00135058
X00250899Y-00130585
X002486Y-001301
X002468Y-001269
X002436Y-000939
X002505Y-000932
X00251Y-00069
X002504Y-000543
X002492Y-000443
X002481Y-000427
X00242526Y-00039753
X00240492Y-00039681
X00244292Y-00039642
X002569Y-000221
X002447Y-00007
X002436Y-000057
X002416Y-000055
X002706Y-000451
X00276
X002685
X00273659Y-00045264
X002629Y-000456
X002621Y-000478
X002646Y-00047992
X00274642Y-0004807
X00273443Y-000512
X00263517Y-00052083
X00269681Y-000523
X00272802Y-0005393
X00270965Y-00053865
X00278207Y-00056803
X00277837Y-00070037
X002729Y-000746
X002715Y-000754
X00278752Y-00104154
X00276637Y-00105657
X00279669Y-00106985
X0027355Y-00122055
X002753Y-001239
X002628Y-0013279
X002743Y-00134028
X00270622Y-00148678
X00267057Y-00155743
X00270622Y-00155778
X002725Y-001558
X002706Y-00159
X002616Y-001612
X00268794Y-0016125
X00279669Y-00161369
X00272431Y-00161369
X00274241Y-00162641
X00267003Y-00162997
X00260448Y-00164294
X00270622Y-00166678
X002642Y-001728
X00277859Y-00173941
X002619Y-00174
X002668Y-00174291
X00264424Y-00174379
X002677Y-001847
X00269Y-001857
X00260224Y-00186523
X00277402Y-00187329
X00279545Y-001885
X00277365Y-00188909
X00275141Y-001889
X002785Y-00194654
X002797Y-002148
X002917Y-002066
X002901Y-002065
X002975Y-002064
X002899Y-002008
X002932Y-002007
X002883Y-002006
X002959Y-001996
X00298Y-001995
X00288394Y-00195506
X00287969Y-001917
X00290527Y-00189973
X00297765Y-00186465
X00292605Y-00184695
X002942Y-001829
X00297765Y-00182765
X00295944Y-00177456
X00299575Y-00177375
X00299574Y-00173874
X002815Y-001738
X00296137Y-00173837
X00285162Y-00173838
X00299574Y-00170174
X002816Y-00169
X00294146Y-0016841
X002903Y-001648
X00292433Y-00115933
X00288716Y-00112264
X002996Y-001123
X00286889Y-00110622
X00281472Y-00105155
X00297765Y-00103435
X00283288Y-00103348
X00294146Y-00103246
X00280562Y-00102351
X00285098Y-00101601
X00282539Y-00100722
X00286907Y-00099661
X00297765Y-00099735
X00284274Y-00098831
X00288717Y-00098025
X00285927Y-00096844
X00287486Y-00094819
X00289273Y-00092966
X00292122Y-00087322
X00293372Y-00086072
X00280883Y-00083281
X00282089Y-00082178
X00299124Y-00081732
X002978Y-000803
X002994Y-000796
X00292256Y-00070129
X002961Y-000586
X002902
X0029961Y-000528
X002924Y-000523
X002973Y-000522
X0029852Y-00051194
X002889Y-000509
X002936Y-000492
X002893Y-000459
X002973Y-00037
X002918Y-000362
X00298678Y-00015722
X002963Y-000113
X00297305Y-00005184
X00303558Y-00002658
X00317528Y-00014787
X00304Y-000224
X003069Y-00026757
X00304Y-000275
X003124Y-000298
X003037Y-000392
X00303781Y-00042819
X0030836Y-0004576
X00303737Y-00046537
X0030021Y-0004809
X00306Y-00058341
X00301533Y-000585
X00301Y-000791
X00304941Y-00080441
X003006Y-000823
X003103Y-000849
X003079Y-000871
X003041Y-001136
X003155Y-00125
X00305002Y-00135839
X00317669Y-00141252
X003014Y-001757
X00301305Y-001793
X00301395Y-00186505
X00301384Y-00190084
X003055Y-001936
Y-001999
X00301395Y-00203
X00306Y-002042
X003012Y-002055
X003032Y-002057
X003051
X00301Y-002259
X00323038Y-00135838
X00321568Y-00042641
X003263Y-000195
X00323295Y-00009221
X003553Y-00113
X003497Y-000515
X003498Y-000487
X00349441Y-00017725
X00359341Y-00017741
X00354559Y-00015641
X00363372Y-00005994
X00375948Y-00015911
X00364459Y-000161
X00369641Y-00017716
X0037724Y-0002086
X00368542Y-00033446
X00372498Y-000336
X0037446
X0037674Y-0005966
X00378304Y-00060573
X003767Y-000617
X00372892Y-00064984
X00370959
X00366522Y-00065158
X003648Y-00065165
X00368368Y-00065158
X00362531Y-00065247
X003748Y-00083
X003708Y-000839
X00374857Y-00173536
X003945Y-002034
X00394159Y-00070689
X00398286Y-00070673
X00395739Y-00070607
X00393021Y-00067918
X0039126Y-00067762
X00396787Y-00061162
X00395114Y-00061063
X00391356Y-00060659
X00393156Y-00060684
X00389327Y-00060659
X00380342Y-00060635
X00383738Y-0006057
X00387673Y-00060618
X00382157Y-00060536
X00384816Y-00055537
X00386427Y-00055536
X0041888Y-00081514
X004125Y-00079
X00419541Y-00078759
X004131Y-00073711
X0040949Y-00073498
X004112Y-00073486
X00401677Y-00072893
X00403523Y-00072806
X00400009Y-00070747
X00404Y-00067672
X00404037Y-00065578
X00400736Y-00064275
X00405593Y-00063993
X004037Y-000639
X004098Y-00060507
X004132Y-000396
X00415368Y-000332
X00413577Y-00028577
X00418518Y-00011418
X0042327Y-0002357
X00427766Y-00025666
X0043323Y-00033219
X004369Y-000404
X004276Y-000408
X004316Y-000554
X004262Y-000555
X004234Y-000561
X004276Y-000567
X004285Y-000678
X004343Y-000686
X004248Y-000912
X0043861Y-00099748
X00432333Y-00104203
X00434663Y-0010429
X00432109Y-00109936
X004345Y-001103
X0043485Y-0013895
X004351Y-001408
X004208Y-001427
Y-001445
X00434Y-001536
X00420267Y-00164733
X004364Y-00188269
X004359Y-001906
X004362Y-002007
X004399Y-002008
X004304Y-002019
X004308Y-002207
X00459Y-002178
X00457128Y-00201528
X00447436Y-00201018
X004437Y-00201
X0044555Y-0020095
X004416Y-002009
X004533Y-002007
X004518Y-001947
X004486Y-00188227
X00454989Y-00187204
X00453143Y-00187067
X00457542Y-00182459
X00457617Y-00180647
X00452452Y-00160452
X004433Y-001588
X00450161Y-00156039
X004477Y-00156
X004456Y-001536
X004559Y-00145058
X004546Y-001421
X004502Y-001089
X00451747Y-00093599
X00451698Y-00091635
X00451196Y-00087704
X00451386Y-00085735
X0045112Y-00081798
X00451217Y-0007983
X00450993Y-00075893
X00451154Y-00073924
X004402Y-000681
X00451806Y-000641
X004402Y-000567
X004427
X00455057Y-00040566
X004507Y-00020703
X004455Y-00015
X004475Y-000078
X00467113Y-00054587
X004659Y-00058
X00466819Y-0006048
X004668Y-000623
X004659Y-000636
X004662Y-000652
X00464835Y-00074379
X00466694Y-00074515
X00466613Y-00080228
X00464717Y-00080253
X00464473Y-00085483
X00466418Y-00085495
X00465006Y-00092001
X00466865Y-00091976
X00464286Y-0009696
X00466505Y-00097072
X00465726Y-00147026
X00467595Y-00148995
X00467832Y-00152932
X00467752Y-00160452
X00465022Y-0016251
X00466906Y-00162473
X004681Y-001669
X00467057Y-00168857
X00465074Y-00168869
X00463999Y-00175733
X0046605Y-00175752
X004664Y-001916
X004608Y-00194
X00468731Y-00195331
X00462Y-001954
X004643Y-001959
X0046Y-001974
X00466172Y-00211028
T04
X00046709Y-00046811
X000755Y-00042615
X00119Y-00066813
X00116657Y-00108624
X001156Y-001128
X00098339Y-00120046
X00114924Y-00132446
X00095365Y-00133135
X00111841Y-00135179
X0009887Y-00165554
X00116534Y-00172796
X00090576Y-00181848
X001046Y-00197
X001033Y-002024
X0013941Y-00198327
X00136058Y-00184463
X00142162Y-00184291
X001497Y-001574
X0014096Y-00142202
X001247Y-001399
X001221
Y-001376
X001247
X001246Y-001354
X001221
X00146831Y-00118308
X00143601Y-00118156
X00126507Y-00092009
X00128975Y-0009205
X00133012Y-00084131
X00137028Y-00082093
X00144809Y-0006076
X00141429Y-00060718
X00148091Y-00060746
X00129791Y-00058426
X00141604Y-00056803
X00141368Y-00053252
X0013421Y-00050717
X00141321Y-0005037
X001665Y-000528
X00151212Y-00060757
X00154048Y-00060872
X0016002
X00156953Y-00060941
X00150722Y-00086122
X00158844Y-00095987
X00167357Y-00115099
X00170346Y-00115154
X00173013Y-00118643
X0016734Y-00118625
X00170329Y-00118681
X00167186Y-00121726
X00173068Y-00121687
X00170175Y-00121781
X00170134Y-00124622
X0016734Y-0012469
X00167424Y-00127247
X00170163Y-00127358
X001716Y-00143248
Y-00154328
X001648Y-00172341
X00170465Y-00178027
Y-00189289
X001641Y-001912
X00187398Y-00188988
X001841Y-001781
X00209425Y-0015504
X00186461Y-00143457
X001913Y-001357
X00209506Y-00123765
X00187748Y-00120961
X00195137Y-00120943
X00195096Y-00118575
X00198582Y-00118422
X0018771Y-00118399
X00204599Y-00112625
X00207032
X00209409
X0020453Y-00110358
X00207213Y-00110428
X00200214Y-00087898
X00206682Y-00087658
X00196945Y-00087744
X00203572Y-00087693
X00186608Y-00086832
X00200282Y-00084903
X00209814Y-00084783
X00203435Y-00084664
X00197014Y-00084749
X00206546Y-00084629
X00186558Y-00083503
X00200163Y-00082388
X00196894Y-00082234
X0020978Y-00082011
X00203401Y-00081892
X00206511Y-00081857
X00186617Y-0008009
X00209831Y-00079136
X00206563Y-00078982
X00203452Y-00079017
X0018649Y-00076821
X002379Y-000521
X00236071Y-00066308
X00235896Y-00069383
X00238873Y-00071732
X00239194Y-00082267
X00237051Y-00089351
X00210814Y-00110831
X00212148Y-00112611
X0022676Y-001145
X00224205Y-00114674
X002267Y-001176
X00224289Y-00117605
X002241Y-001205
X002267Y-001206
X002299
X002334Y-001208
X002371Y-00121
Y-00124
X002266
X002334
X0023Y-001241
X00223865Y-00124103
X00216966Y-00131734
X00214234Y-00131706
X0021967
X00222061Y-0013165
X00216Y-001393
X002302Y-001565
X002469Y-002126
X002515
X002613
X002402Y-001478
Y-001241
X002427Y-001239
X002401Y-00121
X002432Y-001174
Y-001144
Y-001117
X00242235Y-00082149
X00242151Y-00079438
Y-00076852
X00242068Y-00074099
X00241335Y-00071549
X00256633Y-00013785
X00290849Y-0001381
X002969Y-00041
X003223Y-000532
X003261Y-000518
X003192Y-000511
X003261Y-000493
X003215Y-000488
X00324Y-000482
X003361Y-000549
X003438
X003388Y-000548
X003413
X003361Y-000525
X003438Y-000521
X00378365Y-00032581
X003851Y-000029
X003824
X003796Y-000028
X003769
X004058Y-00047191
X004187Y-000873
X004205Y-000686
X004289Y-000748
X004414Y-00075609
X004289Y-000783
X004352Y-000822
X00429
X004324
X00439769Y-000909
X004302Y-001889
X00450928Y-00172756
X004507Y-001686
X00468031Y-00156869
X004664Y-001363
X00467166Y-00068366
X0045628Y-000579
X00470176Y-00046776
X00463687Y-00046713
T05
X00258591Y-0003469
X00260165Y-00031934
X00263315
X0026489Y-0003469
X00266465Y-00031934
X00268039Y-0003469
X00271189
X00272764Y-00031934
X00274339Y-0003469
X00275913Y-00031934
X00279063
X00280638Y-0003469
T06
X00181469Y-00023199
X00185196Y-00023312
X00188838Y-00023354
X00181441Y-0002787
X00185168Y-00027984
X0018881Y-00028026
X00181496Y-00032375
X00188866Y-0003253
X00185223Y-00032488
X00181441Y-00036935
X00185168Y-00037048
X0018881Y-0003709
X00192495Y-00037118
X0019255Y-00032558
X00192495Y-00028053
X00192522Y-00023382
X00203421Y-00027768
T07
X00182609Y-00157217
T08
X00410054Y-00197488
X00420054
T09
X00024512Y-00156279
Y-00166279
Y-00198445
Y-00208445
X00068803Y-00204842
Y-00194842
Y-00184842
R02Y0001
X00078803Y-00159842
R04Y-0001
X00245919Y-00219757
Y-00229757
X00255919
Y-00219757
X00265919
Y-00229757
X00275919
Y-00219757
X00285919
Y-00229757
X00295919
Y-00219757
X00305919
Y-00229757
X00315919
Y-00219757
X00325919
Y-00229757
X00335919
Y-00219757
X00345919
Y-00229757
X00355919
Y-00219757
X00365919
Y-00229757
X00375919
Y-00219757
X00385919
Y-00229757
X00395919
Y-00219757
X00405919
Y-00229757
X00415919
Y-00219757
X00425919
Y-00229757
X00435919
Y-00219757
X00450321Y-00228793
R02Y0001
T10
X00051492Y-00092732
Y-00102575
Y-00110449
Y-00120291
X00061807
Y-00110449
Y-00102575
Y-00092732
T11
X00055811Y-00212854
Y-0015187
T12
X00122812Y-00016137
T13
X00040823Y-00132378
X00063185
Y-00080646
X00040823
T14
X00043803Y-00204862
Y-00159862
M30
