M48
INCH,LZ
T01C.00394
T02C.0078
T03C.007874
T04C.011811
T05C.015748
T06C.02
T07C.025
T08C.035429
T09C.035433
T10C.03622
T11C.066929
T12C.08661
T13C.090551
T14C.133858
T15C.025591
T16C.035429
T17C.059059
;LEADER: 12 
;HEADER: 
;CODE  : ASCII 
;FILE  : WeChat_ZM_PART_2020527-1-4.drl for board #Taaaaag07072.tmp ... layers TOP and POWER1
;T01 Holesize 1. = 3.940000 Tolerance = +0.000000/-0.000000 PLATED MILS Quantity = 178
%
G90
T01
X00359655Y-00191376
X00361899Y-00191533
X0036423Y-00191351
X00366405Y-00191476
X00368755Y-00191376
X00371116Y-0019137
X00373605Y-00192276
X00375348Y-00191134
X00377955Y-00185476
X00379955Y-00183926
X00382755Y-00182726
X00384493Y-00185772
X00387535Y-0018519
X00388072Y-00181526
X0038951Y-00185509
X003949Y-001835
X00397536Y-001888
X00400395Y-00182876
X004015Y-001816
X00401793Y-00182782
X00421Y-001715
X00418156Y-00166701
X00418166Y-00162766
X00416184Y-0016473
X00414219Y-0016867
X00414197Y-0016669
X00413272Y-00163702
X00413272Y-00169698
X00412269Y-00164715
X004111Y-001697
X00410529Y-00162779
X00410289Y-0016671
X00406493Y-001685
X00406345Y-00170638
X0040539Y-00165769
X004053Y-001686
X00401461Y-00165761
X00400436Y-00162764
X003997Y-001678
X00398503Y-00164743
X00397791Y-00169699
X00397018Y-00167439
X00396503Y-00162764
X003953Y-001699
X0039507Y-0017227
X00394535Y-00164722
X00392577Y-001667
X00392566Y-00162768
X00391884Y-00165421
X00388683Y-00166748
X00388628Y-00162768
X003869Y-001687
X0038666Y-00164733
X00385721Y-0016969
X00385445Y-00167472
X00384691Y-00162764
X00382723Y-00164733
X00382056Y-00171906
X00381757Y-00167622
X00381543Y-00161878
X00379713Y-00167706
X00375951Y-00167717
X003747Y-001687
X00374701Y-001667
X00372Y-001676
X003709Y-001667
Y-001628
X003701Y-001639
X00368941Y-00164731
X003681Y-001705
X00367Y-001609
X00366976Y-00168677
X00366867Y-00166701
X003661Y-001656
X00354055Y-00164426
X00343101Y-00177876
X00341638Y-00176276
X00340755Y-00168626
X00339705Y-00178076
X003366Y-00178226
X00303062Y-00173838
X00356684Y-00147286
X003832Y-001586
X00383955Y-00148977
X00385943Y-0014768
X004041Y-00153737
X004097Y-001541
X0041129Y-00159738
X00416267Y-00121426
X00414219Y-00123394
X00412251Y-00121425
X004112Y-001223
X00410286Y-0012339
X00408801Y-00130744
X0040747Y-00121827
X00407239Y-00130114
X00401262Y-0012944
X004004Y-001203
X0040044Y-00123394
X004Y-001391
X00398478Y-00121419
X0039749Y-001204
X003975Y-001244
X003956Y-001203
X00394534Y-00121425
X00392566Y-00123394
X0038862Y-00123401
X003868Y-001214
X003853Y-00128081
X00384691Y-00123394
X00382723Y-00121425
X003807Y-001234
X003777Y-001347
X003723Y-001292
X00370912Y-00123394
X00370376Y-0012068
X00368943Y-00121425
X00366976Y-00123399
X003592Y-001311
X00342925Y-001239
X00332751Y-00122577
X00332Y-00121094
X00329905Y-00106926
X00330186Y-00105391
X00330666Y-00116976
X00332802Y-00115176
X00333405Y-00113076
X00333802Y-00118376
X00335955Y-00110276
X003403Y-001049
X00365008Y-0011749
X00366186Y-00118381
X00366907Y-00119457
X003689Y-00116
X00374799Y-00117495
X003749Y-001195
X00376Y-001183
X00376159Y-00116327
X00380754Y-00119457
X003827Y-001145
X00385221Y-00116745
X00385707Y-00118444
X003867Y-001151
X00388628Y-00119457
X00392338Y-00119562
X0039465Y-0010375
X00394956Y-001144
X003965Y-001173
X00399Y-00116
X003992Y-001175
X0040044Y-0011796
X00404309Y-00119458
Y-00117479
X00406339Y-00117498
X00410417Y-00119323
X00411489Y-00116616
X00414219Y-00117488
X004148Y-001188
X00415097Y-00101103
X004209Y-001162
X004231Y-001178
X004134Y-000996
X004128Y-00098276
X004109Y-00096094
X00399555Y-00099761
X0039158Y-0009406
X003915Y-000924
X003863Y-000921
X003768Y-000876
X003731Y-000869
X003655Y-000857
X003632Y-000841
X003613Y-000838
X00358605Y-00084276
X00355555Y-00086726
X00354055Y-00083776
X00342292Y-00082597
X00341824Y-0008114
M30
