%FSLAX25Y25*%
%MOIN*%
G70*
G01*
G75*
G04 Layer_Color=16711935*
%ADD10R,0.05118X0.03937*%
%ADD11R,0.02756X0.03347*%
%ADD12R,0.04331X0.01700*%
%ADD13R,0.03347X0.02756*%
%ADD14R,0.03937X0.02362*%
%ADD15O,0.00984X0.04724*%
%ADD16O,0.04724X0.00984*%
%ADD17O,0.04724X0.01772*%
%ADD18O,0.01772X0.04724*%
%ADD19R,0.04724X0.01772*%
%ADD20R,0.06299X0.07087*%
%ADD21O,0.01969X0.03543*%
%ADD22R,0.01969X0.03543*%
%ADD23O,0.01969X0.03543*%
%ADD24R,0.07874X0.07874*%
%ADD25R,0.07874X0.07874*%
%ADD26R,0.07087X0.03937*%
%ADD27O,0.05500X0.02500*%
%ADD28R,0.05500X0.02500*%
%ADD29R,0.04724X0.03543*%
%ADD30R,0.02756X0.03543*%
%ADD31C,0.04000*%
%ADD32C,0.00800*%
%ADD33C,0.01500*%
%ADD34C,0.01000*%
%ADD35C,0.03000*%
%ADD36C,0.01200*%
%ADD37C,0.02000*%
%ADD38C,0.00500*%
%ADD39R,0.19685X0.23622*%
%ADD40C,0.05906*%
%ADD41R,0.05906X0.05906*%
%ADD42R,0.05906X0.05906*%
%ADD43C,0.02000*%
%ADD44C,0.03000*%
%ADD45C,0.00787*%
%ADD46R,0.05918X0.04737*%
%ADD47R,0.03556X0.04147*%
%ADD48R,0.05131X0.02500*%
%ADD49R,0.04147X0.03556*%
%ADD50R,0.04737X0.03162*%
%ADD51O,0.01784X0.05524*%
%ADD52O,0.05524X0.01784*%
%ADD53O,0.05524X0.02572*%
%ADD54O,0.02572X0.05524*%
%ADD55R,0.05524X0.02572*%
%ADD56R,0.07099X0.07887*%
%ADD57O,0.02769X0.04343*%
%ADD58R,0.02769X0.04343*%
%ADD59O,0.02769X0.04343*%
%ADD60R,0.08674X0.08674*%
%ADD61R,0.08674X0.08674*%
%ADD62R,0.07887X0.04737*%
%ADD63O,0.06300X0.03300*%
%ADD64R,0.06300X0.03300*%
%ADD65R,0.05524X0.04343*%
%ADD66R,0.03556X0.04343*%
%ADD67R,0.20485X0.24422*%
%ADD68C,0.06706*%
%ADD69R,0.06706X0.06706*%
%ADD70R,0.06706X0.06706*%
D38*
X251306Y-267900D02*
X255243Y-263963D01*
Y-43490D01*
X251306Y-39553D02*
X255243Y-43490D01*
X101700Y-39553D02*
X133800D01*
X133196D02*
X184000D01*
X182409D02*
X233600D01*
X231621D02*
X251306D01*
X97763Y-43490D02*
X101700Y-39553D01*
X97763Y-263963D02*
Y-43490D01*
Y-263963D02*
X101700Y-267900D01*
X251306D01*
X101700D02*
X251306D01*
X97763Y-263963D02*
X101700Y-267900D01*
X97763Y-263963D02*
Y-43490D01*
X101700Y-39553D01*
X231621D02*
X251306D01*
X182409D02*
X233600D01*
X133196D02*
X184000D01*
X101700D02*
X133800D01*
X251306D02*
X255243Y-43490D01*
Y-263963D02*
Y-43490D01*
X251306Y-267900D02*
X255243Y-263963D01*
D67*
X225700Y-59200D02*
D03*
X176500D02*
D03*
X127300D02*
D03*
D68*
X112600Y-229300D02*
D03*
Y-239300D02*
D03*
Y-249300D02*
D03*
X113300Y-167800D02*
D03*
Y-157800D02*
D03*
Y-147800D02*
D03*
X180000Y-262000D02*
D03*
X170000D02*
D03*
X160000D02*
D03*
X112900Y-134800D02*
D03*
D69*
X112600Y-259300D02*
D03*
X113300Y-177800D02*
D03*
X112900Y-124800D02*
D03*
D70*
X190000Y-262000D02*
D03*
M02*
