%FSLAX25Y25*%
%MOIN*%
G70*
G01*
G75*
G04 Layer_Physical_Order=2*
G04 Layer_Color=16711680*
%ADD10R,0.05118X0.03937*%
%ADD11R,0.02756X0.03347*%
%ADD12R,0.04331X0.01700*%
%ADD13R,0.03347X0.02756*%
%ADD14R,0.03937X0.02362*%
%ADD15O,0.00984X0.04724*%
%ADD16O,0.04724X0.00984*%
%ADD17O,0.04724X0.01772*%
%ADD18O,0.01772X0.04724*%
%ADD19R,0.04724X0.01772*%
%ADD20R,0.06299X0.07087*%
%ADD21O,0.01969X0.03543*%
%ADD22R,0.01969X0.03543*%
%ADD23O,0.01969X0.03543*%
%ADD24R,0.07874X0.07874*%
%ADD25R,0.07874X0.07874*%
%ADD26R,0.07087X0.03937*%
%ADD27O,0.05500X0.02500*%
%ADD28R,0.05500X0.02500*%
%ADD29R,0.04724X0.03543*%
%ADD30R,0.02756X0.03543*%
%ADD31C,0.04000*%
%ADD32C,0.00800*%
%ADD33C,0.01500*%
%ADD34C,0.01000*%
%ADD35C,0.03000*%
%ADD36C,0.01200*%
%ADD37C,0.02000*%
%ADD38C,0.00500*%
%ADD39R,0.19685X0.23622*%
%ADD40C,0.05906*%
%ADD41R,0.05906X0.05906*%
%ADD42R,0.05906X0.05906*%
%ADD43C,0.02000*%
%ADD44C,0.03000*%
G36*
X253016Y-44539D02*
Y-262961D01*
X250261Y-265716D01*
X194453D01*
Y-257547D01*
X193530D01*
Y-253300D01*
X193410Y-252386D01*
X193057Y-251535D01*
X192496Y-250804D01*
X187596Y-245904D01*
X186865Y-245343D01*
X186014Y-244990D01*
X185100Y-244870D01*
X139400D01*
X138486Y-244990D01*
X137635Y-245343D01*
X136904Y-245904D01*
X127038Y-255770D01*
X117053D01*
Y-254847D01*
X108147D01*
Y-263753D01*
X117053D01*
Y-262830D01*
X128500D01*
X129414Y-262710D01*
X130265Y-262357D01*
X130996Y-261796D01*
X130996Y-261796D01*
X130996Y-261796D01*
X140862Y-251930D01*
X183638D01*
X186470Y-254762D01*
Y-257547D01*
X185547D01*
Y-265716D01*
X183250D01*
X183089Y-265242D01*
X183176Y-265176D01*
X183889Y-264246D01*
X184338Y-263162D01*
X184491Y-262000D01*
X184338Y-260838D01*
X183889Y-259754D01*
X183176Y-258824D01*
X182246Y-258110D01*
X181162Y-257662D01*
X180000Y-257509D01*
X178838Y-257662D01*
X177754Y-258110D01*
X176824Y-258824D01*
X176110Y-259754D01*
X175662Y-260838D01*
X175509Y-262000D01*
X175662Y-263162D01*
X176110Y-264246D01*
X176824Y-265176D01*
X176911Y-265242D01*
X176750Y-265716D01*
X173250D01*
X173089Y-265242D01*
X173176Y-265176D01*
X173890Y-264246D01*
X174338Y-263162D01*
X174491Y-262000D01*
X174338Y-260838D01*
X173890Y-259754D01*
X173176Y-258824D01*
X172246Y-258110D01*
X171162Y-257662D01*
X170000Y-257509D01*
X168838Y-257662D01*
X167754Y-258110D01*
X166824Y-258824D01*
X166111Y-259754D01*
X165662Y-260838D01*
X165509Y-262000D01*
X165662Y-263162D01*
X166111Y-264246D01*
X166824Y-265176D01*
X166911Y-265242D01*
X166750Y-265716D01*
X163250D01*
X163089Y-265242D01*
X163176Y-265176D01*
X163890Y-264246D01*
X164338Y-263162D01*
X164359Y-263000D01*
X155640D01*
X155662Y-263162D01*
X156111Y-264246D01*
X156824Y-265176D01*
X156911Y-265242D01*
X156750Y-265716D01*
X102739D01*
X100084Y-263061D01*
Y-44439D01*
X102534Y-41989D01*
X250466D01*
X253016Y-44539D01*
D02*
G37*
%LPC*%
G36*
X187000Y-176932D02*
X186217Y-177035D01*
X185487Y-177338D01*
X184860Y-177819D01*
X184379Y-178445D01*
X184077Y-179175D01*
X183974Y-179958D01*
Y-186800D01*
X184077Y-187583D01*
X184291Y-188099D01*
X184379Y-188313D01*
X184860Y-188940D01*
X189360Y-193440D01*
X189987Y-193921D01*
X190201Y-194009D01*
X190717Y-194223D01*
X191500Y-194326D01*
X222900D01*
X223683Y-194223D01*
X224413Y-193921D01*
X225040Y-193440D01*
X225520Y-192813D01*
X225823Y-192083D01*
X225926Y-191300D01*
X225823Y-190517D01*
X225520Y-189787D01*
X225040Y-189160D01*
X224413Y-188680D01*
X223683Y-188377D01*
X222900Y-188274D01*
X192753D01*
X190026Y-185547D01*
Y-179958D01*
X189923Y-179175D01*
X189620Y-178445D01*
X189140Y-177819D01*
X188513Y-177338D01*
X187783Y-177035D01*
X187000Y-176932D01*
D02*
G37*
G36*
X119900Y-198251D02*
X118924Y-198445D01*
X118299Y-198863D01*
X112301D01*
X111676Y-198445D01*
X110700Y-198251D01*
X109724Y-198445D01*
X108898Y-198998D01*
X108345Y-199825D01*
X108151Y-200800D01*
X108345Y-201776D01*
X108898Y-202602D01*
X109724Y-203155D01*
X110700Y-203349D01*
X111676Y-203155D01*
X112301Y-202737D01*
X118299D01*
X118924Y-203155D01*
X119900Y-203349D01*
X120876Y-203155D01*
X121702Y-202602D01*
X122255Y-201776D01*
X122449Y-200800D01*
X122255Y-199825D01*
X121702Y-198998D01*
X120876Y-198445D01*
X119900Y-198251D01*
D02*
G37*
G36*
X113600Y-224940D02*
Y-228300D01*
X116960D01*
X116938Y-228138D01*
X116490Y-227054D01*
X115776Y-226124D01*
X114846Y-225411D01*
X113762Y-224962D01*
X113600Y-224940D01*
D02*
G37*
G36*
X197800Y-134551D02*
X196825Y-134745D01*
X195998Y-135298D01*
X195445Y-136125D01*
X195251Y-137100D01*
X195445Y-138075D01*
X195998Y-138902D01*
X196825Y-139455D01*
X197800Y-139649D01*
X198775Y-139455D01*
X199095Y-139241D01*
X221913D01*
X228459Y-145787D01*
Y-163505D01*
X228245Y-163824D01*
X228051Y-164800D01*
X228245Y-165776D01*
X228798Y-166602D01*
X229625Y-167155D01*
X230600Y-167349D01*
X231575Y-167155D01*
X232402Y-166602D01*
X232955Y-165776D01*
X233149Y-164800D01*
X232955Y-163824D01*
X232741Y-163505D01*
Y-144900D01*
X232578Y-144081D01*
X232114Y-143386D01*
X224314Y-135586D01*
X223619Y-135122D01*
X222800Y-134959D01*
X199095D01*
X198775Y-134745D01*
X197800Y-134551D01*
D02*
G37*
G36*
X147800Y-170913D02*
X147750Y-170923D01*
X147700Y-170913D01*
X146724Y-171107D01*
X145898Y-171660D01*
X142306Y-175251D01*
X117753D01*
Y-173347D01*
X108847D01*
Y-182253D01*
X117753D01*
Y-180349D01*
X143362D01*
X144338Y-180155D01*
X145165Y-179602D01*
X145165Y-179602D01*
X145165Y-179602D01*
X149301Y-175466D01*
X149602Y-175265D01*
X150155Y-174438D01*
X150349Y-173462D01*
X150155Y-172487D01*
X149602Y-171660D01*
X148775Y-171107D01*
X147800Y-170913D01*
D02*
G37*
G36*
X139406Y-185151D02*
X138430Y-185345D01*
X137805Y-185763D01*
X130500D01*
X129759Y-185910D01*
X129130Y-186330D01*
X125530Y-189930D01*
X125110Y-190559D01*
X124963Y-191300D01*
Y-243298D01*
X120898Y-247363D01*
X116617D01*
X116490Y-247054D01*
X115776Y-246124D01*
X114846Y-245410D01*
X113762Y-244962D01*
X112600Y-244809D01*
X111438Y-244962D01*
X110354Y-245410D01*
X109424Y-246124D01*
X108711Y-247054D01*
X108262Y-248138D01*
X108109Y-249300D01*
X108262Y-250462D01*
X108711Y-251546D01*
X109424Y-252476D01*
X110354Y-253189D01*
X111438Y-253638D01*
X112600Y-253791D01*
X113762Y-253638D01*
X114846Y-253189D01*
X115776Y-252476D01*
X116490Y-251546D01*
X116617Y-251237D01*
X121700D01*
X122441Y-251090D01*
X123070Y-250670D01*
X128270Y-245470D01*
X128690Y-244841D01*
X128837Y-244100D01*
X128837Y-244100D01*
X128837Y-244100D01*
Y-244100D01*
Y-192102D01*
X131302Y-189637D01*
X137805D01*
X138430Y-190055D01*
X139406Y-190249D01*
X140381Y-190055D01*
X141208Y-189502D01*
X141761Y-188675D01*
X141955Y-187700D01*
X141761Y-186724D01*
X141208Y-185898D01*
X140381Y-185345D01*
X139406Y-185151D01*
D02*
G37*
G36*
X112600Y-234809D02*
X111438Y-234962D01*
X110354Y-235410D01*
X109424Y-236124D01*
X108711Y-237054D01*
X108262Y-238138D01*
X108109Y-239300D01*
X108262Y-240462D01*
X108711Y-241546D01*
X109424Y-242476D01*
X110354Y-243190D01*
X111438Y-243638D01*
X112600Y-243791D01*
X113762Y-243638D01*
X114846Y-243190D01*
X115776Y-242476D01*
X116490Y-241546D01*
X116938Y-240462D01*
X117091Y-239300D01*
X116938Y-238138D01*
X116490Y-237054D01*
X115776Y-236124D01*
X114846Y-235410D01*
X113762Y-234962D01*
X112600Y-234809D01*
D02*
G37*
G36*
X161000Y-257641D02*
Y-261000D01*
X164359D01*
X164338Y-260838D01*
X163890Y-259754D01*
X163176Y-258824D01*
X162246Y-258110D01*
X161162Y-257662D01*
X161000Y-257641D01*
D02*
G37*
G36*
X159000D02*
X158838Y-257662D01*
X157754Y-258110D01*
X156824Y-258824D01*
X156111Y-259754D01*
X155662Y-260838D01*
X155640Y-261000D01*
X159000D01*
Y-257641D01*
D02*
G37*
G36*
X111600Y-224940D02*
X111438Y-224962D01*
X110354Y-225411D01*
X109424Y-226124D01*
X108711Y-227054D01*
X108262Y-228138D01*
X108240Y-228300D01*
X111600D01*
Y-224940D01*
D02*
G37*
G36*
X116960Y-230300D02*
X113600D01*
Y-233660D01*
X113762Y-233638D01*
X114846Y-233190D01*
X115776Y-232476D01*
X116490Y-231546D01*
X116938Y-230462D01*
X116960Y-230300D01*
D02*
G37*
G36*
X111600D02*
X108240D01*
X108262Y-230462D01*
X108711Y-231546D01*
X109424Y-232476D01*
X110354Y-233190D01*
X111438Y-233638D01*
X111600Y-233660D01*
Y-230300D01*
D02*
G37*
G36*
X112300Y-158800D02*
X108940D01*
X108962Y-158962D01*
X109411Y-160046D01*
X110124Y-160976D01*
X111054Y-161689D01*
X112138Y-162138D01*
X112300Y-162160D01*
Y-158800D01*
D02*
G37*
G36*
X117353Y-120347D02*
X113900D01*
Y-123800D01*
X117353D01*
Y-120347D01*
D02*
G37*
G36*
X111900D02*
X108447D01*
Y-123800D01*
X111900D01*
Y-120347D01*
D02*
G37*
G36*
X117353Y-125800D02*
X113900D01*
Y-129253D01*
X117353D01*
Y-125800D01*
D02*
G37*
G36*
X237042Y-45889D02*
X214357D01*
Y-72511D01*
X237042D01*
Y-45889D01*
D02*
G37*
G36*
X187843D02*
X165157D01*
Y-72511D01*
X187843D01*
Y-45889D01*
D02*
G37*
G36*
X138643D02*
X115957D01*
Y-72511D01*
X138643D01*
Y-45889D01*
D02*
G37*
G36*
X111900Y-125800D02*
X108447D01*
Y-129253D01*
X111900D01*
Y-125800D01*
D02*
G37*
G36*
X114300Y-153440D02*
Y-156800D01*
X117659D01*
X117638Y-156638D01*
X117190Y-155554D01*
X116476Y-154624D01*
X115546Y-153911D01*
X114462Y-153462D01*
X114300Y-153440D01*
D02*
G37*
G36*
X112300D02*
X112138Y-153462D01*
X111054Y-153911D01*
X110124Y-154624D01*
X109411Y-155554D01*
X108962Y-156638D01*
X108940Y-156800D01*
X112300D01*
Y-153440D01*
D02*
G37*
G36*
X117659Y-158800D02*
X114300D01*
Y-162160D01*
X114462Y-162138D01*
X115546Y-161689D01*
X116476Y-160976D01*
X117190Y-160046D01*
X117638Y-158962D01*
X117659Y-158800D01*
D02*
G37*
G36*
X198100Y-90670D02*
X115789D01*
X114875Y-90790D01*
X114024Y-91143D01*
X113293Y-91704D01*
X112198Y-92798D01*
X111637Y-93529D01*
X111285Y-94381D01*
X111164Y-95294D01*
X111285Y-96208D01*
X111637Y-97060D01*
X112198Y-97791D01*
X112929Y-98352D01*
X113781Y-98704D01*
X114694Y-98825D01*
X115608Y-98704D01*
X116460Y-98352D01*
X117191Y-97791D01*
X117251Y-97730D01*
X177566D01*
Y-99244D01*
X177494Y-99337D01*
X177192Y-100067D01*
X177089Y-100850D01*
X177192Y-101633D01*
X177494Y-102363D01*
X177975Y-102990D01*
X178602Y-103471D01*
X179331Y-103773D01*
X180114Y-103876D01*
X180898Y-103773D01*
X181628Y-103471D01*
X182254Y-102990D01*
X182735Y-102363D01*
X183037Y-101633D01*
X183140Y-100850D01*
X183037Y-100067D01*
X182735Y-99337D01*
X182664Y-99244D01*
Y-97730D01*
X184257D01*
X184445Y-98676D01*
X184998Y-99502D01*
X185825Y-100055D01*
X185932Y-100076D01*
X186006Y-100150D01*
Y-114232D01*
X185945Y-114323D01*
X185751Y-115299D01*
X185945Y-116274D01*
X186006Y-116365D01*
Y-151400D01*
X186180Y-152278D01*
X186678Y-153022D01*
X186678Y-153022D01*
X186678Y-153022D01*
X188678Y-155022D01*
X189422Y-155519D01*
X190300Y-155694D01*
X192033D01*
X192124Y-155755D01*
X193100Y-155949D01*
X194076Y-155755D01*
X194902Y-155202D01*
X195455Y-154376D01*
X195649Y-153400D01*
X195455Y-152425D01*
X194902Y-151598D01*
X194076Y-151045D01*
X193100Y-150851D01*
X192124Y-151045D01*
X192033Y-151106D01*
X191250D01*
X190594Y-150450D01*
Y-116365D01*
X190655Y-116274D01*
X190849Y-115299D01*
X190655Y-114323D01*
X190594Y-114232D01*
Y-99200D01*
X190419Y-98322D01*
X190319Y-98171D01*
X190554Y-97730D01*
X196638D01*
X200070Y-101162D01*
Y-126400D01*
X200070Y-126400D01*
X200070D01*
X200190Y-127314D01*
X200543Y-128165D01*
X201104Y-128896D01*
X203904Y-131696D01*
X204635Y-132257D01*
X205486Y-132610D01*
X206400Y-132730D01*
X217600D01*
X218514Y-132610D01*
X219365Y-132257D01*
X220096Y-131696D01*
X220657Y-130965D01*
X221010Y-130114D01*
X221130Y-129200D01*
X221010Y-128286D01*
X220657Y-127435D01*
X220096Y-126704D01*
X219365Y-126143D01*
X218514Y-125790D01*
X217600Y-125670D01*
X207862D01*
X207130Y-124938D01*
Y-99700D01*
X207010Y-98786D01*
X206657Y-97935D01*
X206096Y-97204D01*
X200596Y-91704D01*
X199865Y-91143D01*
X199014Y-90790D01*
X198100Y-90670D01*
D02*
G37*
G36*
X168700Y-106151D02*
X167725Y-106345D01*
X166898Y-106898D01*
X166345Y-107724D01*
X166151Y-108700D01*
X166345Y-109676D01*
X166898Y-110502D01*
X167725Y-111055D01*
X167832Y-111076D01*
X173806Y-117050D01*
Y-139633D01*
X173745Y-139725D01*
X173551Y-140700D01*
X173745Y-141675D01*
X174298Y-142502D01*
X175125Y-143055D01*
X176100Y-143249D01*
X177076Y-143055D01*
X177902Y-142502D01*
X178455Y-141675D01*
X178649Y-140700D01*
X178455Y-139725D01*
X178394Y-139633D01*
Y-116100D01*
X178219Y-115222D01*
X177722Y-114478D01*
X171076Y-107832D01*
X171055Y-107724D01*
X170502Y-106898D01*
X169676Y-106345D01*
X168700Y-106151D01*
D02*
G37*
G36*
X112900Y-130309D02*
X111738Y-130462D01*
X110654Y-130911D01*
X109724Y-131624D01*
X109011Y-132554D01*
X108562Y-133638D01*
X108409Y-134800D01*
X108562Y-135962D01*
X109011Y-137046D01*
X109724Y-137976D01*
X110654Y-138689D01*
X111738Y-139138D01*
X112900Y-139291D01*
X114062Y-139138D01*
X115146Y-138689D01*
X116076Y-137976D01*
X116752Y-137094D01*
X124250D01*
X127578Y-140422D01*
X128322Y-140919D01*
X129200Y-141094D01*
X139650D01*
X143956Y-145401D01*
X143765Y-145863D01*
X117317D01*
X117190Y-145554D01*
X116476Y-144624D01*
X115546Y-143911D01*
X114462Y-143462D01*
X113300Y-143309D01*
X112138Y-143462D01*
X111054Y-143911D01*
X110124Y-144624D01*
X109411Y-145554D01*
X108962Y-146638D01*
X108809Y-147800D01*
X108962Y-148962D01*
X109411Y-150046D01*
X110124Y-150976D01*
X111054Y-151690D01*
X112138Y-152138D01*
X113300Y-152291D01*
X114462Y-152138D01*
X115546Y-151690D01*
X116476Y-150976D01*
X117190Y-150046D01*
X117317Y-149737D01*
X143798D01*
X144263Y-150202D01*
Y-163599D01*
X143845Y-164225D01*
X143651Y-165200D01*
X143706Y-165476D01*
X143389Y-165863D01*
X117317D01*
X117190Y-165554D01*
X116476Y-164624D01*
X115546Y-163910D01*
X114462Y-163462D01*
X113300Y-163309D01*
X112138Y-163462D01*
X111054Y-163910D01*
X110124Y-164624D01*
X109411Y-165554D01*
X108962Y-166638D01*
X108809Y-167800D01*
X108962Y-168962D01*
X109411Y-170046D01*
X110124Y-170976D01*
X111054Y-171689D01*
X112138Y-172138D01*
X113300Y-172291D01*
X114462Y-172138D01*
X115546Y-171689D01*
X116476Y-170976D01*
X117190Y-170046D01*
X117317Y-169737D01*
X153398D01*
X158163Y-174502D01*
Y-181899D01*
X157745Y-182525D01*
X157551Y-183500D01*
X157745Y-184476D01*
X158298Y-185302D01*
X159125Y-185855D01*
X160100Y-186049D01*
X161075Y-185855D01*
X161902Y-185302D01*
X162455Y-184476D01*
X162649Y-183500D01*
X162455Y-182525D01*
X162037Y-181899D01*
Y-173700D01*
X161890Y-172959D01*
X161470Y-172330D01*
X155570Y-166430D01*
X154941Y-166010D01*
X154200Y-165863D01*
X149011D01*
X148694Y-165476D01*
X148749Y-165200D01*
X148555Y-164225D01*
X148137Y-163599D01*
Y-158751D01*
X148524Y-158434D01*
X149100Y-158549D01*
X150075Y-158355D01*
X150902Y-157802D01*
X151455Y-156975D01*
X151649Y-156000D01*
X151455Y-155025D01*
X151394Y-154933D01*
Y-147300D01*
X151219Y-146422D01*
X150722Y-145678D01*
X142222Y-137178D01*
X141478Y-136680D01*
X140600Y-136506D01*
X130150D01*
X126822Y-133178D01*
X126078Y-132680D01*
X125200Y-132506D01*
X116752D01*
X116076Y-131624D01*
X115146Y-130911D01*
X114062Y-130462D01*
X112900Y-130309D01*
D02*
G37*
%LPD*%
D31*
X206400Y-129200D02*
X217600D01*
X203600Y-126400D02*
X206400Y-129200D01*
X203600Y-126400D02*
Y-99700D01*
X198100Y-94200D02*
X203600Y-99700D01*
X180900Y-94200D02*
X198100D01*
X112600Y-259300D02*
X128500D01*
X139400Y-248400D01*
X185100D01*
X190000Y-253300D01*
Y-262000D02*
Y-253300D01*
X114694Y-95294D02*
X115789Y-94200D01*
X180900D01*
D32*
X110700Y-200800D02*
X119900D01*
X130500Y-187700D02*
X139406D01*
X126900Y-191300D02*
X130500Y-187700D01*
X126900Y-244100D02*
Y-191300D01*
X121700Y-249300D02*
X126900Y-244100D01*
X112600Y-249300D02*
X121700D01*
X113300Y-167800D02*
X154200D01*
X160100Y-173700D01*
Y-183500D02*
Y-173700D01*
X113300Y-147800D02*
X144600D01*
X146200Y-149400D01*
Y-165200D02*
Y-149400D01*
D33*
X188300Y-115299D02*
Y-99200D01*
X186800Y-97700D02*
X188300Y-99200D01*
X168700Y-108700D02*
X176100Y-116100D01*
Y-140700D02*
Y-116100D01*
X190300Y-153400D02*
X193100D01*
X188300Y-151400D02*
Y-115299D01*
Y-151400D02*
X190300Y-153400D01*
X112900Y-134800D02*
X125200D01*
X129200Y-138800D01*
X140600D01*
X149100Y-147300D01*
Y-156000D02*
Y-147300D01*
D35*
X191500Y-191300D02*
X222900D01*
X187000Y-186800D02*
X191500Y-191300D01*
X187000Y-186800D02*
Y-179958D01*
D36*
X197800Y-137100D02*
X222800D01*
X230600Y-144900D01*
Y-164800D02*
Y-144900D01*
D37*
X113300Y-177800D02*
X143362D01*
X147700Y-173462D01*
X180114Y-100850D02*
Y-94986D01*
X180900Y-94200D01*
D38*
X251306Y-267900D02*
X255243Y-263963D01*
Y-43490D01*
X251306Y-39553D02*
X255243Y-43490D01*
X101700Y-39553D02*
X133800D01*
X133196D02*
X184000D01*
X182409D02*
X233600D01*
X231621D02*
X251306D01*
X97763Y-43490D02*
X101700Y-39553D01*
X97763Y-263963D02*
Y-43490D01*
Y-263963D02*
X101700Y-267900D01*
X251306D01*
X101700D02*
X251306D01*
X97763Y-263963D02*
X101700Y-267900D01*
X97763Y-263963D02*
Y-43490D01*
X101700Y-39553D01*
X231621D02*
X251306D01*
X182409D02*
X233600D01*
X133196D02*
X184000D01*
X101700D02*
X133800D01*
X251306D02*
X255243Y-43490D01*
Y-263963D02*
Y-43490D01*
X251306Y-267900D02*
X255243Y-263963D01*
D39*
X225700Y-59200D02*
D03*
X176500D02*
D03*
X127300D02*
D03*
D40*
X112600Y-229300D02*
D03*
Y-239300D02*
D03*
Y-249300D02*
D03*
X113300Y-167800D02*
D03*
Y-157800D02*
D03*
Y-147800D02*
D03*
X180000Y-262000D02*
D03*
X170000D02*
D03*
X160000D02*
D03*
X112900Y-134800D02*
D03*
D41*
X112600Y-259300D02*
D03*
X113300Y-177800D02*
D03*
X112900Y-124800D02*
D03*
D42*
X190000Y-262000D02*
D03*
D43*
X242800Y-137600D02*
D03*
X237900Y-132300D02*
D03*
X199600Y-132800D02*
D03*
X192400Y-130300D02*
D03*
X161200Y-126000D02*
D03*
X167100Y-125800D02*
D03*
X243800Y-179700D02*
D03*
X244000Y-194300D02*
D03*
X226200Y-152200D02*
D03*
X243800Y-166300D02*
D03*
X241600Y-158300D02*
D03*
X237700Y-150700D02*
D03*
X237100Y-143200D02*
D03*
X231900Y-136000D02*
D03*
X206800Y-148700D02*
D03*
X200500Y-142400D02*
D03*
X192900Y-146000D02*
D03*
X209700Y-114400D02*
D03*
X208900Y-105300D02*
D03*
X244600Y-105500D02*
D03*
X242800Y-95600D02*
D03*
X240963Y-87001D02*
D03*
X236000Y-83000D02*
D03*
X239600Y-72000D02*
D03*
X193900Y-68100D02*
D03*
X212000Y-79900D02*
D03*
X209900Y-73900D02*
D03*
X204800Y-62600D02*
D03*
X198100Y-53700D02*
D03*
X142200Y-69100D02*
D03*
X157500Y-66700D02*
D03*
X151200Y-58000D02*
D03*
X144200Y-85600D02*
D03*
X139600Y-82000D02*
D03*
X133000Y-77300D02*
D03*
X120800Y-77000D02*
D03*
X110300Y-77500D02*
D03*
X176800Y-110500D02*
D03*
X174100Y-99600D02*
D03*
X169100Y-100300D02*
D03*
X183700Y-130200D02*
D03*
X180700Y-133000D02*
D03*
X140000Y-99400D02*
D03*
X139800Y-106500D02*
D03*
X139200Y-115500D02*
D03*
X131300Y-118700D02*
D03*
X136200Y-125500D02*
D03*
X149400Y-134400D02*
D03*
X137400Y-135300D02*
D03*
X128500Y-132800D02*
D03*
X120400Y-129100D02*
D03*
X112200Y-114400D02*
D03*
X148200Y-141500D02*
D03*
X130600Y-155701D02*
D03*
X126600Y-153100D02*
D03*
X194300Y-185900D02*
D03*
X207400Y-185600D02*
D03*
X180500Y-188200D02*
D03*
X199900Y-186000D02*
D03*
X195000Y-165700D02*
D03*
X179700Y-151200D02*
D03*
X161100Y-158000D02*
D03*
X172400Y-161200D02*
D03*
X173200Y-154300D02*
D03*
X232400Y-195500D02*
D03*
X242400Y-205100D02*
D03*
X240200Y-231400D02*
D03*
X243800Y-243500D02*
D03*
X232000Y-262000D02*
D03*
X236700Y-255100D02*
D03*
X146100Y-259300D02*
D03*
X137300Y-264100D02*
D03*
X138600Y-210200D02*
D03*
X135200Y-215500D02*
D03*
X134300Y-224900D02*
D03*
X134500Y-232900D02*
D03*
X160100Y-229400D02*
D03*
X152000Y-236900D02*
D03*
X142700D02*
D03*
X207700Y-236000D02*
D03*
X207400Y-231300D02*
D03*
X198600Y-222800D02*
D03*
X191700Y-226300D02*
D03*
X192900Y-235100D02*
D03*
X201200Y-232300D02*
D03*
X211900Y-225400D02*
D03*
X212400Y-219700D02*
D03*
X211500Y-211800D02*
D03*
X202300Y-215800D02*
D03*
X193200Y-215600D02*
D03*
X183500D02*
D03*
X211900Y-206100D02*
D03*
X202900Y-205900D02*
D03*
X194200D02*
D03*
X188300Y-115299D02*
D03*
X186800Y-97700D02*
D03*
X168700Y-108700D02*
D03*
X176100Y-140700D02*
D03*
X193100Y-153400D02*
D03*
X119900Y-200800D02*
D03*
X110700D02*
D03*
X139406Y-187700D02*
D03*
X160100Y-183500D02*
D03*
X146200Y-165200D02*
D03*
X147800Y-173462D02*
D03*
X197800Y-137100D02*
D03*
X230600Y-164800D02*
D03*
X160900Y-166700D02*
D03*
X181900Y-161500D02*
D03*
X159935Y-115735D02*
D03*
X132600Y-173000D02*
D03*
X212100Y-143700D02*
D03*
X213700Y-159500D02*
D03*
X142000Y-182400D02*
D03*
X151600Y-182500D02*
D03*
X155600Y-216000D02*
D03*
X149100Y-156000D02*
D03*
X119500Y-124300D02*
D03*
D44*
X222900Y-191300D02*
D03*
X187000Y-179958D02*
D03*
X114694Y-95294D02*
D03*
X180114Y-100850D02*
D03*
X217600Y-129200D02*
D03*
M02*
