  0
SECTION
  2
HEADER
  9
$ACADVER
  1
AC1009
  9
$INSBASE
 10
0.0
 20
0.0
 30
0.0
  9
$EXTMIN
 10
394.0968529551000756
 20
612.8880609824998373
 30
0.0
  9
$EXTMAX
 10
615.0968529551000756
 20
844.3880603268996765
 30
0.0
  9
$LIMMIN
 10
0.0
 20
0.0
  9
$LIMMAX
 10
1485.0
 20
1050.0
  9
$ORTHOMODE
 70
     0
  9
$REGENMODE
 70
     1
  9
$FILLMODE
 70
     1
  9
$QTEXTMODE
 70
     0
  9
$MIRRTEXT
 70
     1
  9
$DRAGMODE
 70
     2
  9
$LTSCALE
 40
5.0
  9
$OSMODE
 70
    39
  9
$ATTMODE
 70
     1
  9
$TEXTSIZE
 40
17.5
  9
$TRACEWID
 40
1.0
  9
$TEXTSTYLE
  7
STANDARD
  9
$CLAYER
  8
0
  9
$CELTYPE
  6
BYLAYER
  9
$CECOLOR
 62
   256
  9
$DIMSCALE
 40
1.0
  9
$DIMASZ
 40
15.0
  9
$DIMEXO
 40
5.0
  9
$DIMDLI
 40
3.75
  9
$DIMRND
 40
0.0
  9
$DIMDLE
 40
0.0
  9
$DIMEXE
 40
5.0
  9
$DIMTP
 40
0.0
  9
$DIMTM
 40
0.0
  9
$DIMTXT
 40
17.5
  9
$DIMCEN
 40
2.5
  9
$DIMTSZ
 40
0.0
  9
$DIMTOL
 70
     0
  9
$DIMLIM
 70
     0
  9
$DIMTIH
 70
     1
  9
$DIMTOH
 70
     1
  9
$DIMSE1
 70
     0
  9
$DIMSE2
 70
     0
  9
$DIMTAD
 70
     1
  9
$DIMZIN
 70
     0
  9
$DIMBLK
  1

  9
$DIMASO
 70
     1
  9
$DIMSHO
 70
     1
  9
$DIMPOST
  1

  9
$DIMAPOST
  1

  9
$DIMALT
 70
     0
  9
$DIMALTD
 70
     3
  9
$DIMALTF
 40
0.0393700787
  9
$DIMLFAC
 40
1.0
  9
$DIMTOFL
 70
     1
  9
$DIMTVP
 40
0.0
  9
$DIMTIX
 70
     0
  9
$DIMSOXD
 70
     0
  9
$DIMSAH
 70
     0
  9
$DIMBLK1
  1

  9
$DIMBLK2
  1

  9
$DIMSTYLE
  2
ISO-25
  9
$DIMCLRD
 70
     0
  9
$DIMCLRE
 70
     0
  9
$DIMCLRT
 70
     0
  9
$DIMTFAC
 40
1.0
  9
$DIMGAP
 40
7.6200000000000001
  9
$LUNITS
 70
     2
  9
$LUPREC
 70
     2
  9
$SKETCHINC
 40
1.0
  9
$FILLETRAD
 40
10.0
  9
$AUNITS
 70
     0
  9
$AUPREC
 70
     2
  9
$MENU
  1
.
  9
$ELEVATION
 40
0.0
  9
$PELEVATION
 40
0.0
  9
$THICKNESS
 40
0.0
  9
$LIMCHECK
 70
     0
  9
$BLIPMODE
 70
     0
  9
$CHAMFERA
 40
0.0
  9
$CHAMFERB
 40
0.0
  9
$SKPOLY
 70
     0
  9
$TDCREATE
 40
2460557.9223495367914438
  9
$TDUPDATE
 40
2460589.9766319449990988
  9
$TDINDWG
 40
0.0163269097
  9
$TDUSRTIMER
 40
0.0163259954
  9
$USRTIMER
 70
     1
  9
$ANGBASE
 50
0.0
  9
$ANGDIR
 70
     0
  9
$PDMODE
 70
     0
  9
$PDSIZE
 40
-1.0
  9
$PLINEWID
 40
0.0
  9
$COORDS
 70
     1
  9
$SPLFRAME
 70
     0
  9
$SPLINETYPE
 70
     6
  9
$SPLINESEGS
 70
     8
  9
$ATTDIA
 70
     1
  9
$ATTREQ
 70
     1
  9
$HANDLING
 70
     1
  9
$HANDSEED
  5
956
  9
$SURFTAB1
 70
     6
  9
$SURFTAB2
 70
     6
  9
$SURFTYPE
 70
     6
  9
$SURFU
 70
     6
  9
$SURFV
 70
     6
  9
$UCSNAME
  2

  9
$UCSORG
 10
0.0
 20
0.0
 30
0.0
  9
$UCSXDIR
 10
1.0
 20
0.0
 30
0.0
  9
$UCSYDIR
 10
0.0
 20
1.0
 30
0.0
  9
$PUCSNAME
  2

  9
$PUCSORG
 10
0.0
 20
0.0
 30
0.0
  9
$PUCSXDIR
 10
1.0
 20
0.0
 30
0.0
  9
$PUCSYDIR
 10
0.0
 20
1.0
 30
0.0
  9
$USERI1
 70
     0
  9
$USERI2
 70
     0
  9
$USERI3
 70
     0
  9
$USERI4
 70
     0
  9
$USERI5
 70
     0
  9
$USERR1
 40
0.0
  9
$USERR2
 40
0.0
  9
$USERR3
 40
0.0
  9
$USERR4
 40
0.0
  9
$USERR5
 40
0.0
  9
$WORLDVIEW
 70
     1
  9
$SHADEDGE
 70
     3
  9
$SHADEDIF
 70
    70
  9
$TILEMODE
 70
     1
  9
$MAXACTVP
 70
    64
  9
$PLIMCHECK
 70
     0
  9
$PEXTMIN
 10
1.0000000000000000E+20
 20
1.0000000000000000E+20
 30
1.0000000000000000E+20
  9
$PEXTMAX
 10
-1.0000000000000000E+20
 20
-1.0000000000000000E+20
 30
-1.0000000000000000E+20
  9
$PLIMMIN
 10
0.0
 20
0.0
  9
$PLIMMAX
 10
420.0
 20
297.0
  9
$UNITMODE
 70
     0
  9
$VISRETAIN
 70
     1
  9
$PLINEGEN
 70
     0
  9
$PSLTSCALE
 70
     1
  0
ENDSEC
  0
SECTION
  2
TABLES
  0
TABLE
  2
VPORT
 70
     1
  0
VPORT
  2
*ACTIVE
 70
     0
 10
0.0
 20
0.0
 11
1.0
 21
1.0
 12
614.8386722368012443
 22
693.8619104762913139
 13
0.0
 23
0.0
 14
10.0
 24
10.0
 15
10.0
 25
10.0
 16
0.0
 26
0.0
 36
1.0
 17
0.0
 27
0.0
 37
0.0
 40
331.6551792140656971
 41
2.0750816104461371
 42
50.0
 43
0.0
 44
0.0
 50
0.0
 51
0.0
 71
     0
 72
  2000
 73
     1
 74
     3
 75
     0
 76
     0
 77
     0
 78
     0
  0
ENDTAB
  0
TABLE
  2
LTYPE
 70
     7
  0
LTYPE
  2
CONTINUOUS
 70
     0
  3
Solid line
 72
    65
 73
     0
 40
0.0
  0
LTYPE
  2
HIDDEN
 70
     0
  3
Hidden __ __ __ __ __ __ __ __ __ __ __ __ __ __
 72
    65
 73
     2
 40
1.905
 49
1.27
 49
-0.635
  0
LTYPE
  2
PHANTOM
 70
     0
  3
Phantom ______  __  __  ______  __  __  ______
 72
    65
 73
     6
 40
12.6999999999999993
 49
6.349999999999997
 49
-1.27
 49
1.27
 49
-1.27
 49
1.27
 49
-1.27
  0
LTYPE
  2
CENTER
 70
     0
  3
Center ____ _ ____ _ ____ _ ____ _ ____ _ ____
 72
    65
 73
     4
 40
10.1600000000000001
 49
6.349999999999997
 49
-1.27
 49
1.27
 49
-1.27
  0
LTYPE
  2
CENTERX2
 70
     0
  3
Center (2x) ________  __  ________  __  _____
 72
    65
 73
     4
 40
20.3200000000000003
 49
12.6999999999999993
 49
-2.54
 49
2.54
 49
-2.54
  0
LTYPE
  2
DOT2
 70
     0
  3
Dot (.5x) ........................................
 72
    65
 73
     2
 40
0.635
 49
0.0
 49
-0.635
  0
ENDTAB
  0
TABLE
  2
LAYER
 70
     3
  0
LAYER
  2
0
 70
     0
 62
     7
  6
CONTINUOUS
  0
LAYER
  2
FORMAT
 70
     0
 62
     7
  6
CONTINUOUS
  0
LAYER
  2
DEFPOINTS
 70
     0
 62
     7
  6
CONTINUOUS
  0
ENDTAB
  0
TABLE
  2
STYLE
 70
     7
  0
STYLE
  2
STANDARD
 70
     0
 40
0.0
 41
1.0
 50
0.0
 71
     0
 42
17.5
  3
txt
  4

  0
STYLE
  2
ANNOTATIVE
 70
     0
 40
0.0
 41
1.0
 50
0.0
 71
     0
 42
0.2
  3
txt
  4

  0
STYLE
  2
SLDTEXTSTYLE0
 70
     0
 40
0.0
 41
0.75
 50
0.0
 71
     0
 42
17.5
  3
TXT
  4
bigfont
  0
STYLE
  2
SLDTEXTSTYLE1
 70
     0
 40
0.0
 41
0.7
 50
0.0
 71
     0
 42
17.5
  3
TXT
  4
bigfont
  0
STYLE
  2
SLDTEXTSTYLE2
 70
     0
 40
0.0
 41
0.58
 50
0.0
 71
     0
 42
17.5
  3
TXT
  4
bigfont
  0
STYLE
  2
SLDTEXTSTYLE3
 70
     0
 40
0.0
 41
0.7
 50
0.0
 71
     0
 42
17.5
  3
TXT
  4

  0
STYLE
  2
SLDTEXTSTYLE4
 70
     0
 40
0.0
 41
0.75
 50
0.0
 71
     0
 42
17.5
  3
TXT
  4

  0
ENDTAB
  0
TABLE
  2
VIEW
 70
     0
  0
ENDTAB
  0
TABLE
  2
UCS
 70
     0
  0
ENDTAB
  0
TABLE
  2
APPID
 70
     5
  0
APPID
  2
ACAD
 70
     0
  0
APPID
  2
ACADANNOTATIVE
 70
     0
  0
APPID
  2
ACAD_NAV_VCDISPLAY
 70
     0
  0
APPID
  2
ACAD_MLEADERVER
 70
     0
  0
APPID
  2
ACAD_EXEMPT_FROM_CAD_STANDARDS
 70
     0
  0
ENDTAB
  0
TABLE
  2
DIMSTYLE
 70
     7
  0
DIMSTYLE
  2
STANDARD
 70
     0
  3

  4

  5

  6

  7

 40
1.0
 41
0.18
 42
0.0625
 43
0.38
 44
0.18
 45
0.0
 46
0.0
 47
0.0
 48
0.0
140
0.18
141
0.09
142
0.0
143
25.3999999999999986
144
1.0
145
0.0
146
1.0
147
0.09
 71
     0
 72
     0
 73
     1
 74
     1
 75
     0
 76
     0
 77
     0
 78
     0
170
     0
171
     2
172
     0
173
     0
174
     0
175
     0
176
     0
177
     0
178
     0
  0
DIMSTYLE
  2
ANNOTATIVE
 70
     0
  3

  4

  5

  6

  7

 40
1.0
 41
0.18
 42
0.0625
 43
0.38
 44
0.18
 45
0.0
 46
0.0
 47
0.0
 48
0.0
140
0.18
141
0.09
142
0.0
143
25.3999999999999986
144
1.0
145
0.0
146
1.0
147
0.09
 71
     0
 72
     0
 73
     1
 74
     1
 75
     0
 76
     0
 77
     0
 78
     0
170
     0
171
     2
172
     0
173
     0
174
     0
175
     0
176
     0
177
     0
178
     0
  0
DIMSTYLE
  2
ISO-25
 70
     0
  3

  4

  5

  6

  7

 40
1.0
 41
2.5
 42
0.625
 43
3.75
 44
1.25
 45
0.0
 46
0.0
 47
0.0
 48
0.0
140
2.5
141
2.5
142
0.0
143
0.0393700787
144
1.0
145
0.0
146
1.0
147
0.625
 71
     0
 72
     0
 73
     0
 74
     0
 75
     0
 76
     0
 77
     1
 78
     8
170
     0
171
     3
172
     1
173
     0
174
     0
175
     0
176
     0
177
     0
178
     0
  0
DIMSTYLE
  2
SLDDIMSTYLE0
 70
     0
  3

  4

  5

  6

  7

 40
1.0
 41
15.0
 42
0.0625
 43
0.38
 44
0.0
 45
0.000000001
 46
0.0
 47
0.0
 48
0.0
140
17.5
141
0.09
142
0.0
143
25.3999999999999986
144
1.0
145
0.0
146
1.0
147
4.375
 71
     0
 72
     0
 73
     0
 74
     0
 75
     0
 76
     0
 77
     1
 78
    12
170
     0
171
     2
172
     0
173
     1
174
     0
175
     0
176
     0
177
     0
178
     0
  0
DIMSTYLE
  2
SLDDIMSTYLE1
 70
     0
  3

  4

  5

  6

  7

 40
1.0
 41
15.0
 42
0.0625
 43
0.38
 44
0.0
 45
0.000000001
 46
0.0
 47
0.0
 48
0.0
140
17.5
141
0.09
142
0.0
143
25.3999999999999986
144
1.0
145
0.0
146
1.0
147
4.375
 71
     0
 72
     0
 73
     0
 74
     0
 75
     0
 76
     0
 77
     1
 78
    12
170
     0
171
     2
172
     1
173
     1
174
     0
175
     0
176
     0
177
     0
178
     0
  0
DIMSTYLE
  2
SLDDIMSTYLE2
 70
     0
  3

  4

  5

  6

  7

 40
1.0
 41
15.0
 42
0.0625
 43
0.38
 44
0.0
 45
0.000000001
 46
0.0
 47
0.0
 48
0.0
140
17.5
141
0.0
142
0.0
143
25.3999999999999986
144
1.0
145
0.0
146
1.0
147
4.375
 71
     0
 72
     0
 73
     0
 74
     0
 75
     0
 76
     0
 77
     1
 78
    12
170
     0
171
     2
172
     1
173
     1
174
     0
175
     0
176
     0
177
     0
178
     0
  0
ENDTAB
  0
ENDSEC
  0
SECTION
  2
BLOCKS
  0
BLOCK
  8
0
  2
$MODEL_SPACE
 70
     0
 10
0.0
 20
0.0
 30
0.0
  3
$MODEL_SPACE
  1

  0
ENDBLK
  5
89B
  8
0
  0
BLOCK
 67
     1
  8
0
  2
$PAPER_SPACE
 70
     0
 10
0.0
 20
0.0
 30
0.0
  3
$PAPER_SPACE
  1

  0
ENDBLK
  5
897
 67
     1
  8
0
  0
BLOCK
  8
0
  2
_CLOSED
 70
     0
 10
0.0
 20
0.0
 30
0.0
  3
_CLOSED
  1

  0
LINE
  5
165
  8
0
  6
BYBLOCK
 62
     0
 10
-1.0
 20
0.166667
 30
0.0
 11
0.0
 21
0.0
 31
0.0
  0
LINE
  5
166
  8
0
  6
BYBLOCK
 62
     0
 10
0.0
 20
0.0
 30
0.0
 11
-1.0
 21
-0.166667
 31
0.0
  0
LINE
  5
167
  8
0
  6
BYBLOCK
 62
     0
 10
-1.0
 20
0.166667
 30
0.0
 11
-1.0
 21
-0.166667
 31
0.0
  0
LINE
  5
168
  8
0
  6
BYBLOCK
 62
     0
 10
0.0
 20
0.0
 30
0.0
 11
-1.0
 21
0.0
 31
0.0
  0
ENDBLK
  5
164
  8
0
  0
BLOCK
  8
0
  2
_D
 70
     0
 10
0.0
 20
0.0
 30
0.0
  3
_D
  1

  0
INSERT
  5
16C
  8
FORMAT
  2
_CLOSED
 10
344.5968529551000756
 20
757.8880603268997902
 30
13.0
 41
15.0
 42
15.0
 50
90.0
  0
INSERT
  5
16D
  8
FORMAT
  2
_CLOSED
 10
344.5968529551000756
 20
647.8880603268999039
 30
13.0
 41
15.0
 42
15.0
 50
270.0
  0
LINE
  5
16E
  8
FORMAT
 10
532.5968529550999619
 20
757.8880603268997902
 30
0.0
 11
339.5968529551000756
 21
757.8880603268997902
 31
0.0
  0
LINE
  5
16F
  8
FORMAT
 10
532.5968529550999619
 20
647.8880603268999039
 30
0.0
 11
339.5968529551000756
 21
647.8880603268999039
 31
0.0
  0
LINE
  5
170
  8
FORMAT
 10
344.5968529551000756
 20
757.8880603268997902
 30
0.0
 11
344.5968529551000756
 21
647.8880603268999039
 31
0.0
  0
INSERT
  5
171
  8
0
  2
*U4
 10
0.0
 20
0.0
 30
0.0
  0
ENDBLK
  5
16B
  8
0
  0
BLOCK
  8
0
  2
*U4
 70
     1
 10
0.0
 20
0.0
 30
0.0
  3
*U4
  1

  0
TEXT
  5
650
  8
FORMAT
 10
339.5381683822000127
 20
686.98758880150001
 30
0.0
 40
17.5
  1
110
 50
90.0000000000003837
 41
0.75
  7
SLDTEXTSTYLE4
  0
ENDBLK
  5
652
  8
0
  0
BLOCK
  8
0
  2
_D_1
 70
     0
 10
0.0
 20
0.0
 30
0.0
  3
_D_1
  1

  0
INSERT
  5
177
  8
FORMAT
  2
_CLOSED
 10
414.5968529551000756
 20
586.9910523065000234
 30
13.0
 41
15.0
 42
15.0
  0
INSERT
  5
178
  8
FORMAT
  2
_CLOSED
 10
479.5968529551000188
 20
586.9910523065000234
 30
13.0
 41
15.0
 42
15.0
 50
180.0
  0
LINE
  5
179
  8
FORMAT
 10
414.5968529551000756
 20
745.8880603268997902
 30
0.0
 11
414.5968529551000756
 21
581.9910523065000234
 31
0.0
  0
LINE
  5
17A
  8
FORMAT
 10
479.5968529551000188
 20
745.8880603268997902
 30
0.0
 11
479.5968529551000188
 21
581.9910523065000234
 31
0.0
  0
LINE
  5
17B
  8
FORMAT
 10
414.5968529551000756
 20
586.9910523065000234
 30
0.0
 11
394.5968529551000756
 21
586.9910523065000234
 31
0.0
  0
LINE
  5
17C
  8
FORMAT
 10
414.5968529551000756
 20
586.9910523065000234
 30
0.0
 11
479.5968529551000188
 21
586.9910523065000234
 31
0.0
  0
LINE
  5
17D
  8
FORMAT
 10
479.5968529551000188
 20
586.9910523065000234
 30
0.0
 11
499.5968529550999051
 21
586.9910523065000234
 31
0.0
  0
INSERT
  5
17E
  8
0
  2
*U6
 10
0.0
 20
0.0
 30
0.0
  0
ENDBLK
  5
176
  8
0
  0
BLOCK
  8
0
  2
*U6
 70
     1
 10
0.0
 20
0.0
 30
0.0
  3
*U6
  1

  0
TEXT
  5
654
  8
FORMAT
 10
434.1337829632000194
 20
592.0497368793999158
 30
0.0
 40
17.5
  1
65
 41
0.75
  7
SLDTEXTSTYLE4
  0
ENDBLK
  5
656
  8
0
  0
BLOCK
  8
0
  2
_D_2
 70
     0
 10
0.0
 20
0.0
 30
0.0
  3
_D_2
  1

  0
INSERT
  5
183
  8
FORMAT
  2
_CLOSED
 10
479.5968529551000188
 20
586.9910523065000234
 30
13.0
 41
15.0
 42
15.0
  0
INSERT
  5
184
  8
FORMAT
  2
_CLOSED
 10
544.5968529550999619
 20
586.9910523065000234
 30
13.0
 41
15.0
 42
15.0
 50
180.0
  0
LINE
  5
185
  8
FORMAT
 10
479.5968529551000188
 20
745.8880603268997902
 30
0.0
 11
479.5968529551000188
 21
581.9910523065000234
 31
0.0
  0
LINE
  5
186
  8
FORMAT
 10
544.5968529550999619
 20
815.8880603268999039
 30
0.0
 11
544.5968529550999619
 21
581.9910523065000234
 31
0.0
  0
LINE
  5
187
  8
FORMAT
 10
479.5968529551000188
 20
586.9910523065000234
 30
0.0
 11
459.5968529551000188
 21
586.9910523065000234
 31
0.0
  0
LINE
  5
188
  8
FORMAT
 10
479.5968529551000188
 20
586.9910523065000234
 30
0.0
 11
544.5968529550999619
 21
586.9910523065000234
 31
0.0
  0
LINE
  5
189
  8
FORMAT
 10
544.5968529550999619
 20
586.9910523065000234
 30
0.0
 11
564.5968529551000756
 21
586.9910523065000234
 31
0.0
  0
INSERT
  5
18A
  8
0
  2
*U8
 10
0.0
 20
0.0
 30
0.0
  0
ENDBLK
  5
182
  8
0
  0
BLOCK
  8
0
  2
*U8
 70
     1
 10
0.0
 20
0.0
 30
0.0
  3
*U8
  1

  0
TEXT
  5
658
  8
FORMAT
 10
504.1671249188000274
 20
592.0497368793999158
 30
0.0
 40
17.5
  1
65
 41
0.75
  7
SLDTEXTSTYLE4
  0
ENDBLK
  5
65A
  8
0
  0
BLOCK
  8
0
  2
_D_3
 70
     0
 10
0.0
 20
0.0
 30
0.0
  3
_D_3
  1

  0
INSERT
  5
18F
  8
FORMAT
  2
_CLOSED
 10
344.5968529551000756
 20
757.8880603268997902
 30
13.0
 41
15.0
 42
15.0
 50
270.0
  0
INSERT
  5
190
  8
FORMAT
  2
_CLOSED
 10
344.5968529551000756
 20
827.8880603268997902
 30
13.0
 41
15.0
 42
15.0
 50
90.0
  0
LINE
  5
191
  8
FORMAT
 10
532.5968529550999619
 20
757.8880603268997902
 30
0.0
 11
339.5968529551000756
 21
757.8880603268997902
 31
0.0
  0
LINE
  5
192
  8
FORMAT
 10
532.5968529550999619
 20
827.8880603268997902
 30
0.0
 11
339.5968529551000756
 21
827.8880603268997902
 31
0.0
  0
LINE
  5
193
  8
FORMAT
 10
344.5968529551000756
 20
757.8880603268997902
 30
0.0
 11
344.5968529551000756
 21
827.8880603268997902
 31
0.0
  0
INSERT
  5
194
  8
0
  2
*U10
 10
0.0
 20
0.0
 30
0.0
  0
ENDBLK
  5
18E
  8
0
  0
BLOCK
  8
0
  2
*U10
 70
     1
 10
0.0
 20
0.0
 30
0.0
  3
*U10
  1

  0
TEXT
  5
65C
  8
FORMAT
 10
339.5381683822000127
 20
781.7902023624999401
 30
0.0
 40
17.5
  1
70
 50
90.0
 41
0.75
  7
SLDTEXTSTYLE4
  0
ENDBLK
  5
65E
  8
0
  0
BLOCK
  8
0
  2
_NONE
 70
     0
 10
0.0
 20
0.0
 30
0.0
  3
_NONE
  1

  0
ENDBLK
  5
199
  8
0
  0
BLOCK
  8
0
  2
_D_4
 70
     0
 10
0.0
 20
0.0
 30
0.0
  3
_D_4
  1

  0
LINE
  5
5B2
  8
FORMAT
 62
     0
 10
329.8638771818643249
 20
591.887018289258549
 30
0.0
 11
400.4144424410314969
 21
638.514734769179654
 31
0.0
  0
INSERT
  5
5B3
  8
0
  2
*U13
 10
0.0
 20
0.0
 30
0.0
  0
LINE
  5
5B4
  8
FORMAT
 62
     0
 10
416.2653718391001121
 20
648.9908045101000198
 30
0.0
 11
412.9283340710999255
 21
646.7853161436000846
 31
0.0
  0
INSERT
  5
5B5
  8
FORMAT
 62
     0
  2
_CLOSED
 10
412.9283340710999255
 20
646.7853161436000846
 30
0.0
 41
15.0
 42
15.0
 43
15.0
 50
33.4611951987283334
  0
POINT
  5
5B6
  8
DEFPOINTS
 62
     0
 10
412.9283340710999255
 20
646.7853161436000846
 30
0.0
  0
POINT
  5
5B7
  8
DEFPOINTS
 62
     0
 10
416.2653718391001121
 20
648.9908045101000198
 30
0.0
  0
ENDBLK
  5
19C
  8
0
  0
BLOCK
  8
0
  2
*U13
 70
     1
 10
0.0
 20
0.0
 30
0.0
  3
*U13
  1

  0
TEXT
  5
689
  8
FORMAT
 62
     0
 10
331.1015093397617193
 20
597.9491562489007492
 30
0.0
 40
17.5
  1
8-M4
 50
33.4611951987283334
 41
0.75
  7
SLDTEXTSTYLE4
  0
ENDBLK
  5
68B
  8
0
  0
BLOCK
  8
0
  2
SW_CENTERMARKSYMBOL_0
 70
     0
 10
0.0
 20
0.0
 30
0.0
  3
SW_CENTERMARKSYMBOL_0
  1

  0
LINE
  5
1A5
  8
FORMAT
 62
     0
 10
0.0
 20
0.0
 30
0.0
 11
0.0
 21
2.5
 31
0.0
  0
LINE
  5
1A6
  8
FORMAT
 62
     0
 10
0.0
 20
0.0
 30
0.0
 11
-2.5
 21
0.0
 31
0.0
  0
LINE
  5
1A7
  8
FORMAT
 62
     0
 10
0.0
 20
0.0
 30
0.0
 11
0.0
 21
-2.5
 31
0.0
  0
LINE
  5
1A8
  8
FORMAT
 62
     0
 10
0.0
 20
0.0
 30
0.0
 11
2.5
 21
0.0
 31
0.0
  0
LINE
  5
1A9
  8
FORMAT
 62
     0
 10
0.0
 20
5.0
 30
0.0
 11
0.0
 21
5.5
 31
0.0
  0
LINE
  5
1AA
  8
FORMAT
 62
     0
 10
-5.0
 20
0.0
 30
0.0
 11
-5.5
 21
0.0
 31
0.0
  0
LINE
  5
1AB
  8
FORMAT
 62
     0
 10
0.0
 20
-5.0
 30
0.0
 11
0.0
 21
-5.5
 31
0.0
  0
LINE
  5
1AC
  8
FORMAT
 62
     0
 10
5.0
 20
0.0
 30
0.0
 11
5.5
 21
0.0
 31
0.0
  0
ENDBLK
  5
1A4
  8
0
  0
BLOCK
  8
0
  2
SW_CENTERMARKSYMBOL_1
 70
     0
 10
0.0
 20
0.0
 30
0.0
  3
SW_CENTERMARKSYMBOL_1
  1

  0
LINE
  5
1B1
  8
FORMAT
 62
     0
 10
0.0
 20
0.0
 30
0.0
 11
0.0
 21
2.5
 31
0.0
  0
LINE
  5
1B2
  8
FORMAT
 62
     0
 10
0.0
 20
0.0
 30
0.0
 11
-2.5
 21
0.0
 31
0.0
  0
LINE
  5
1B3
  8
FORMAT
 62
     0
 10
0.0
 20
0.0
 30
0.0
 11
0.0
 21
-2.5
 31
0.0
  0
LINE
  5
1B4
  8
FORMAT
 62
     0
 10
0.0
 20
0.0
 30
0.0
 11
2.5
 21
0.0
 31
0.0
  0
LINE
  5
1B5
  8
FORMAT
 62
     0
 10
0.0
 20
5.0
 30
0.0
 11
0.0
 21
5.5
 31
0.0
  0
LINE
  5
1B6
  8
FORMAT
 62
     0
 10
-5.0
 20
0.0
 30
0.0
 11
-5.5
 21
0.0
 31
0.0
  0
LINE
  5
1B7
  8
FORMAT
 62
     0
 10
0.0
 20
-5.0
 30
0.0
 11
0.0
 21
-5.5
 31
0.0
  0
LINE
  5
1B8
  8
FORMAT
 62
     0
 10
5.0
 20
0.0
 30
0.0
 11
5.5
 21
0.0
 31
0.0
  0
ENDBLK
  5
1B0
  8
0
  0
BLOCK
  8
0
  2
SW_CENTERMARKSYMBOL_2
 70
     0
 10
0.0
 20
0.0
 30
0.0
  3
SW_CENTERMARKSYMBOL_2
  1

  0
LINE
  5
1BD
  8
FORMAT
 62
     0
 10
0.0
 20
0.0
 30
0.0
 11
0.0
 21
2.5
 31
0.0
  0
LINE
  5
1BE
  8
FORMAT
 62
     0
 10
0.0
 20
0.0
 30
0.0
 11
-2.5
 21
0.0
 31
0.0
  0
LINE
  5
1BF
  8
FORMAT
 62
     0
 10
0.0
 20
0.0
 30
0.0
 11
0.0
 21
-2.5
 31
0.0
  0
LINE
  5
1C0
  8
FORMAT
 62
     0
 10
0.0
 20
0.0
 30
0.0
 11
2.5
 21
0.0
 31
0.0
  0
LINE
  5
1C1
  8
FORMAT
 62
     0
 10
0.0
 20
5.0
 30
0.0
 11
0.0
 21
5.5
 31
0.0
  0
LINE
  5
1C2
  8
FORMAT
 62
     0
 10
-5.0
 20
0.0
 30
0.0
 11
-5.5
 21
0.0
 31
0.0
  0
LINE
  5
1C3
  8
FORMAT
 62
     0
 10
0.0
 20
-5.0
 30
0.0
 11
0.0
 21
-5.5
 31
0.0
  0
LINE
  5
1C4
  8
FORMAT
 62
     0
 10
5.0
 20
0.0
 30
0.0
 11
5.5
 21
0.0
 31
0.0
  0
ENDBLK
  5
1BC
  8
0
  0
BLOCK
  8
0
  2
SW_CENTERMARKSYMBOL_3
 70
     0
 10
0.0
 20
0.0
 30
0.0
  3
SW_CENTERMARKSYMBOL_3
  1

  0
LINE
  5
1C9
  8
FORMAT
 62
     0
 10
0.0
 20
0.0
 30
0.0
 11
0.0
 21
2.5
 31
0.0
  0
LINE
  5
1CA
  8
FORMAT
 62
     0
 10
0.0
 20
0.0
 30
0.0
 11
-2.5
 21
0.0
 31
0.0
  0
LINE
  5
1CB
  8
FORMAT
 62
     0
 10
0.0
 20
0.0
 30
0.0
 11
0.0
 21
-2.5
 31
0.0
  0
LINE
  5
1CC
  8
FORMAT
 62
     0
 10
0.0
 20
0.0
 30
0.0
 11
2.5
 21
0.0
 31
0.0
  0
LINE
  5
1CD
  8
FORMAT
 62
     0
 10
0.0
 20
5.0
 30
0.0
 11
0.0
 21
5.5
 31
0.0
  0
LINE
  5
1CE
  8
FORMAT
 62
     0
 10
-5.0
 20
0.0
 30
0.0
 11
-5.5
 21
0.0
 31
0.0
  0
LINE
  5
1CF
  8
FORMAT
 62
     0
 10
0.0
 20
-5.0
 30
0.0
 11
0.0
 21
-5.5
 31
0.0
  0
LINE
  5
1D0
  8
FORMAT
 62
     0
 10
5.0
 20
0.0
 30
0.0
 11
5.5
 21
0.0
 31
0.0
  0
ENDBLK
  5
1C8
  8
0
  0
BLOCK
  8
0
  2
SW_CENTERMARKSYMBOL_4
 70
     0
 10
0.0
 20
0.0
 30
0.0
  3
SW_CENTERMARKSYMBOL_4
  1

  0
LINE
  5
1D5
  8
FORMAT
 62
     0
 10
0.0
 20
0.0
 30
0.0
 11
0.0
 21
2.5
 31
0.0
  0
LINE
  5
1D6
  8
FORMAT
 62
     0
 10
0.0
 20
0.0
 30
0.0
 11
-2.5
 21
0.0
 31
0.0
  0
LINE
  5
1D7
  8
FORMAT
 62
     0
 10
0.0
 20
0.0
 30
0.0
 11
0.0
 21
-2.5
 31
0.0
  0
LINE
  5
1D8
  8
FORMAT
 62
     0
 10
0.0
 20
0.0
 30
0.0
 11
2.5
 21
0.0
 31
0.0
  0
LINE
  5
1D9
  8
FORMAT
 62
     0
 10
0.0
 20
5.0
 30
0.0
 11
0.0
 21
5.5
 31
0.0
  0
LINE
  5
1DA
  8
FORMAT
 62
     0
 10
-5.0
 20
0.0
 30
0.0
 11
-5.5
 21
0.0
 31
0.0
  0
LINE
  5
1DB
  8
FORMAT
 62
     0
 10
0.0
 20
-5.0
 30
0.0
 11
0.0
 21
-5.5
 31
0.0
  0
LINE
  5
1DC
  8
FORMAT
 62
     0
 10
5.0
 20
0.0
 30
0.0
 11
5.5
 21
0.0
 31
0.0
  0
ENDBLK
  5
1D4
  8
0
  0
BLOCK
  8
0
  2
SW_CENTERMARKSYMBOL_5
 70
     0
 10
0.0
 20
0.0
 30
0.0
  3
SW_CENTERMARKSYMBOL_5
  1

  0
LINE
  5
1E1
  8
FORMAT
 62
     0
 10
0.0
 20
0.0
 30
0.0
 11
0.0
 21
2.5
 31
0.0
  0
LINE
  5
1E2
  8
FORMAT
 62
     0
 10
0.0
 20
0.0
 30
0.0
 11
-2.5
 21
0.0
 31
0.0
  0
LINE
  5
1E3
  8
FORMAT
 62
     0
 10
0.0
 20
0.0
 30
0.0
 11
0.0
 21
-2.5
 31
0.0
  0
LINE
  5
1E4
  8
FORMAT
 62
     0
 10
0.0
 20
0.0
 30
0.0
 11
2.5
 21
0.0
 31
0.0
  0
LINE
  5
1E5
  8
FORMAT
 62
     0
 10
0.0
 20
5.0
 30
0.0
 11
0.0
 21
5.5
 31
0.0
  0
LINE
  5
1E6
  8
FORMAT
 62
     0
 10
-5.0
 20
0.0
 30
0.0
 11
-5.5
 21
0.0
 31
0.0
  0
LINE
  5
1E7
  8
FORMAT
 62
     0
 10
0.0
 20
-5.0
 30
0.0
 11
0.0
 21
-5.5
 31
0.0
  0
LINE
  5
1E8
  8
FORMAT
 62
     0
 10
5.0
 20
0.0
 30
0.0
 11
5.5
 21
0.0
 31
0.0
  0
ENDBLK
  5
1E0
  8
0
  0
BLOCK
  8
0
  2
SW_CENTERMARKSYMBOL_6
 70
     0
 10
0.0
 20
0.0
 30
0.0
  3
SW_CENTERMARKSYMBOL_6
  1

  0
LINE
  5
1ED
  8
FORMAT
 62
     0
 10
0.0
 20
0.0
 30
0.0
 11
0.0
 21
2.5
 31
0.0
  0
LINE
  5
1EE
  8
FORMAT
 62
     0
 10
0.0
 20
0.0
 30
0.0
 11
-2.5
 21
0.0
 31
0.0
  0
LINE
  5
1EF
  8
FORMAT
 62
     0
 10
0.0
 20
0.0
 30
0.0
 11
0.0
 21
-2.5
 31
0.0
  0
LINE
  5
1F0
  8
FORMAT
 62
     0
 10
0.0
 20
0.0
 30
0.0
 11
2.5
 21
0.0
 31
0.0
  0
LINE
  5
1F1
  8
FORMAT
 62
     0
 10
0.0
 20
5.0
 30
0.0
 11
0.0
 21
5.5
 31
0.0
  0
LINE
  5
1F2
  8
FORMAT
 62
     0
 10
-5.0
 20
0.0
 30
0.0
 11
-5.5
 21
0.0
 31
0.0
  0
LINE
  5
1F3
  8
FORMAT
 62
     0
 10
0.0
 20
-5.0
 30
0.0
 11
0.0
 21
-5.5
 31
0.0
  0
LINE
  5
1F4
  8
FORMAT
 62
     0
 10
5.0
 20
0.0
 30
0.0
 11
5.5
 21
0.0
 31
0.0
  0
ENDBLK
  5
1EC
  8
0
  0
BLOCK
  8
0
  2
SW_CENTERMARKSYMBOL_7
 70
     0
 10
0.0
 20
0.0
 30
0.0
  3
SW_CENTERMARKSYMBOL_7
  1

  0
LINE
  5
1F9
  8
FORMAT
 62
     0
 10
0.0
 20
0.0
 30
0.0
 11
0.0
 21
2.5
 31
0.0
  0
LINE
  5
1FA
  8
FORMAT
 62
     0
 10
0.0
 20
0.0
 30
0.0
 11
-2.5
 21
0.0
 31
0.0
  0
LINE
  5
1FB
  8
FORMAT
 62
     0
 10
0.0
 20
0.0
 30
0.0
 11
0.0
 21
-2.5
 31
0.0
  0
LINE
  5
1FC
  8
FORMAT
 62
     0
 10
0.0
 20
0.0
 30
0.0
 11
2.5
 21
0.0
 31
0.0
  0
LINE
  5
1FD
  8
FORMAT
 62
     0
 10
0.0
 20
5.0
 30
0.0
 11
0.0
 21
5.5
 31
0.0
  0
LINE
  5
1FE
  8
FORMAT
 62
     0
 10
-5.0
 20
0.0
 30
0.0
 11
-5.5
 21
0.0
 31
0.0
  0
LINE
  5
1FF
  8
FORMAT
 62
     0
 10
0.0
 20
-5.0
 30
0.0
 11
0.0
 21
-5.5
 31
0.0
  0
LINE
  5
200
  8
FORMAT
 62
     0
 10
5.0
 20
0.0
 30
0.0
 11
5.5
 21
0.0
 31
0.0
  0
ENDBLK
  5
1F8
  8
0
  0
BLOCK
  8
0
  2
SW_CENTERMARKSYMBOL_8
 70
     0
 10
0.0
 20
0.0
 30
0.0
  3
SW_CENTERMARKSYMBOL_8
  1

  0
LINE
  5
205
  8
FORMAT
 62
     0
 10
0.0
 20
0.0
 30
0.0
 11
0.0
 21
2.5
 31
0.0
  0
LINE
  5
206
  8
FORMAT
 62
     0
 10
0.0
 20
0.0
 30
0.0
 11
-2.5
 21
0.0
 31
0.0
  0
LINE
  5
207
  8
FORMAT
 62
     0
 10
0.0
 20
0.0
 30
0.0
 11
0.0
 21
-2.5
 31
0.0
  0
LINE
  5
208
  8
FORMAT
 62
     0
 10
0.0
 20
0.0
 30
0.0
 11
2.5
 21
0.0
 31
0.0
  0
LINE
  5
209
  8
FORMAT
 62
     0
 10
0.0
 20
5.0
 30
0.0
 11
0.0
 21
7.0
 31
0.0
  0
LINE
  5
20A
  8
FORMAT
 62
     0
 10
-5.0
 20
0.0
 30
0.0
 11
-7.0
 21
0.0
 31
0.0
  0
LINE
  5
20B
  8
FORMAT
 62
     0
 10
0.0
 20
-5.0
 30
0.0
 11
0.0
 21
-7.0
 31
0.0
  0
LINE
  5
20C
  8
FORMAT
 62
     0
 10
5.0
 20
0.0
 30
0.0
 11
7.0
 21
0.0
 31
0.0
  0
ENDBLK
  5
204
  8
0
  0
BLOCK
  8
0
  2
SW_CENTERMARKSYMBOL_9
 70
     0
 10
0.0
 20
0.0
 30
0.0
  3
SW_CENTERMARKSYMBOL_9
  1

  0
LINE
  5
211
  8
FORMAT
 62
     0
 10
0.0
 20
0.0
 30
0.0
 11
0.0
 21
2.5
 31
0.0
  0
LINE
  5
212
  8
FORMAT
 62
     0
 10
0.0
 20
0.0
 30
0.0
 11
-2.5
 21
0.0
 31
0.0
  0
LINE
  5
213
  8
FORMAT
 62
     0
 10
0.0
 20
0.0
 30
0.0
 11
0.0
 21
-2.5
 31
0.0
  0
LINE
  5
214
  8
FORMAT
 62
     0
 10
0.0
 20
0.0
 30
0.0
 11
2.5
 21
0.0
 31
0.0
  0
LINE
  5
215
  8
FORMAT
 62
     0
 10
0.0
 20
5.0
 30
0.0
 11
0.0
 21
7.0
 31
0.0
  0
LINE
  5
216
  8
FORMAT
 62
     0
 10
-5.0
 20
0.0
 30
0.0
 11
-7.0
 21
0.0
 31
0.0
  0
LINE
  5
217
  8
FORMAT
 62
     0
 10
0.0
 20
-5.0
 30
0.0
 11
0.0
 21
-7.0
 31
0.0
  0
LINE
  5
218
  8
FORMAT
 62
     0
 10
5.0
 20
0.0
 30
0.0
 11
7.0
 21
0.0
 31
0.0
  0
ENDBLK
  5
210
  8
0
  0
BLOCK
  8
0
  2
SW_CENTERMARKSYMBOL_10
 70
     0
 10
0.0
 20
0.0
 30
0.0
  3
SW_CENTERMARKSYMBOL_10
  1

  0
LINE
  5
21D
  8
FORMAT
 62
     0
 10
0.0
 20
0.0
 30
0.0
 11
0.0
 21
2.5
 31
0.0
  0
LINE
  5
21E
  8
FORMAT
 62
     0
 10
0.0
 20
0.0
 30
0.0
 11
-2.5
 21
0.0
 31
0.0
  0
LINE
  5
21F
  8
FORMAT
 62
     0
 10
0.0
 20
0.0
 30
0.0
 11
0.0
 21
-2.5
 31
0.0
  0
LINE
  5
220
  8
FORMAT
 62
     0
 10
0.0
 20
0.0
 30
0.0
 11
2.5
 21
0.0
 31
0.0
  0
LINE
  5
221
  8
FORMAT
 62
     0
 10
0.0
 20
5.0
 30
0.0
 11
0.0
 21
7.0
 31
0.0
  0
LINE
  5
222
  8
FORMAT
 62
     0
 10
-5.0
 20
0.0
 30
0.0
 11
-7.0
 21
0.0
 31
0.0
  0
LINE
  5
223
  8
FORMAT
 62
     0
 10
0.0
 20
-5.0
 30
0.0
 11
0.0
 21
-7.0
 31
0.0
  0
LINE
  5
224
  8
FORMAT
 62
     0
 10
5.0
 20
0.0
 30
0.0
 11
7.0
 21
0.0
 31
0.0
  0
ENDBLK
  5
21C
  8
0
  0
BLOCK
  8
0
  2
SW_CENTERMARKSYMBOL_11
 70
     0
 10
0.0
 20
0.0
 30
0.0
  3
SW_CENTERMARKSYMBOL_11
  1

  0
LINE
  5
229
  8
FORMAT
 62
     0
 10
0.0
 20
0.0
 30
0.0
 11
0.0
 21
2.5
 31
0.0
  0
LINE
  5
22A
  8
FORMAT
 62
     0
 10
0.0
 20
0.0
 30
0.0
 11
-2.5
 21
0.0
 31
0.0
  0
LINE
  5
22B
  8
FORMAT
 62
     0
 10
0.0
 20
0.0
 30
0.0
 11
0.0
 21
-2.5
 31
0.0
  0
LINE
  5
22C
  8
FORMAT
 62
     0
 10
0.0
 20
0.0
 30
0.0
 11
2.5
 21
0.0
 31
0.0
  0
LINE
  5
22D
  8
FORMAT
 62
     0
 10
0.0
 20
5.0
 30
0.0
 11
0.0
 21
7.0
 31
0.0
  0
LINE
  5
22E
  8
FORMAT
 62
     0
 10
-5.0
 20
0.0
 30
0.0
 11
-7.0
 21
0.0
 31
0.0
  0
LINE
  5
22F
  8
FORMAT
 62
     0
 10
0.0
 20
-5.0
 30
0.0
 11
0.0
 21
-7.0
 31
0.0
  0
LINE
  5
230
  8
FORMAT
 62
     0
 10
5.0
 20
0.0
 30
0.0
 11
7.0
 21
0.0
 31
0.0
  0
ENDBLK
  5
228
  8
0
  0
BLOCK
  8
0
  2
SW_CENTERMARKSYMBOL_12
 70
     0
 10
0.0
 20
0.0
 30
0.0
  3
SW_CENTERMARKSYMBOL_12
  1

  0
LINE
  5
235
  8
FORMAT
 62
     0
 10
0.0
 20
0.0
 30
0.0
 11
0.0
 21
2.5
 31
0.0
  0
LINE
  5
236
  8
FORMAT
 62
     0
 10
0.0
 20
0.0
 30
0.0
 11
-2.5
 21
0.0
 31
0.0
  0
LINE
  5
237
  8
FORMAT
 62
     0
 10
0.0
 20
0.0
 30
0.0
 11
0.0
 21
-2.5
 31
0.0
  0
LINE
  5
238
  8
FORMAT
 62
     0
 10
0.0
 20
0.0
 30
0.0
 11
2.5
 21
0.0
 31
0.0
  0
LINE
  5
239
  8
FORMAT
 62
     0
 10
0.0
 20
5.0
 30
0.0
 11
0.0
 21
7.0
 31
0.0
  0
LINE
  5
23A
  8
FORMAT
 62
     0
 10
-5.0
 20
0.0
 30
0.0
 11
-7.0
 21
0.0
 31
0.0
  0
LINE
  5
23B
  8
FORMAT
 62
     0
 10
0.0
 20
-5.0
 30
0.0
 11
0.0
 21
-7.0
 31
0.0
  0
LINE
  5
23C
  8
FORMAT
 62
     0
 10
5.0
 20
0.0
 30
0.0
 11
7.0
 21
0.0
 31
0.0
  0
ENDBLK
  5
234
  8
0
  0
BLOCK
  8
0
  2
SW_CENTERMARKSYMBOL_13
 70
     0
 10
0.0
 20
0.0
 30
0.0
  3
SW_CENTERMARKSYMBOL_13
  1

  0
LINE
  5
241
  8
FORMAT
 62
     0
 10
0.0
 20
0.0
 30
0.0
 11
0.0
 21
2.5
 31
0.0
  0
LINE
  5
242
  8
FORMAT
 62
     0
 10
0.0
 20
0.0
 30
0.0
 11
-2.5
 21
0.0
 31
0.0
  0
LINE
  5
243
  8
FORMAT
 62
     0
 10
0.0
 20
0.0
 30
0.0
 11
0.0
 21
-2.5
 31
0.0
  0
LINE
  5
244
  8
FORMAT
 62
     0
 10
0.0
 20
0.0
 30
0.0
 11
2.5
 21
0.0
 31
0.0
  0
LINE
  5
245
  8
FORMAT
 62
     0
 10
0.0
 20
5.0
 30
0.0
 11
0.0
 21
7.0
 31
0.0
  0
LINE
  5
246
  8
FORMAT
 62
     0
 10
-5.0
 20
0.0
 30
0.0
 11
-7.0
 21
0.0
 31
0.0
  0
LINE
  5
247
  8
FORMAT
 62
     0
 10
0.0
 20
-5.0
 30
0.0
 11
0.0
 21
-7.0
 31
0.0
  0
LINE
  5
248
  8
FORMAT
 62
     0
 10
5.0
 20
0.0
 30
0.0
 11
7.0
 21
0.0
 31
0.0
  0
ENDBLK
  5
240
  8
0
  0
BLOCK
  8
0
  2
SW_CENTERMARKSYMBOL_14
 70
     0
 10
0.0
 20
0.0
 30
0.0
  3
SW_CENTERMARKSYMBOL_14
  1

  0
LINE
  5
24D
  8
FORMAT
 62
     0
 10
0.0
 20
0.0
 30
0.0
 11
0.0
 21
2.5
 31
0.0
  0
LINE
  5
24E
  8
FORMAT
 62
     0
 10
0.0
 20
0.0
 30
0.0
 11
-2.5
 21
0.0
 31
0.0
  0
LINE
  5
24F
  8
FORMAT
 62
     0
 10
0.0
 20
0.0
 30
0.0
 11
0.0
 21
-2.5
 31
0.0
  0
LINE
  5
250
  8
FORMAT
 62
     0
 10
0.0
 20
0.0
 30
0.0
 11
2.5
 21
0.0
 31
0.0
  0
LINE
  5
251
  8
FORMAT
 62
     0
 10
0.0
 20
5.0
 30
0.0
 11
0.0
 21
7.0
 31
0.0
  0
LINE
  5
252
  8
FORMAT
 62
     0
 10
-5.0
 20
0.0
 30
0.0
 11
-7.0
 21
0.0
 31
0.0
  0
LINE
  5
253
  8
FORMAT
 62
     0
 10
0.0
 20
-5.0
 30
0.0
 11
0.0
 21
-7.0
 31
0.0
  0
LINE
  5
254
  8
FORMAT
 62
     0
 10
5.0
 20
0.0
 30
0.0
 11
7.0
 21
0.0
 31
0.0
  0
ENDBLK
  5
24C
  8
0
  0
BLOCK
  8
0
  2
SW_CENTERMARKSYMBOL_15
 70
     0
 10
0.0
 20
0.0
 30
0.0
  3
SW_CENTERMARKSYMBOL_15
  1

  0
LINE
  5
259
  8
FORMAT
 62
     0
 10
0.0
 20
0.0
 30
0.0
 11
0.0
 21
2.5
 31
0.0
  0
LINE
  5
25A
  8
FORMAT
 62
     0
 10
0.0
 20
0.0
 30
0.0
 11
-2.5
 21
0.0
 31
0.0
  0
LINE
  5
25B
  8
FORMAT
 62
     0
 10
0.0
 20
0.0
 30
0.0
 11
0.0
 21
-2.5
 31
0.0
  0
LINE
  5
25C
  8
FORMAT
 62
     0
 10
0.0
 20
0.0
 30
0.0
 11
2.5
 21
0.0
 31
0.0
  0
LINE
  5
25D
  8
FORMAT
 62
     0
 10
0.0
 20
5.0
 30
0.0
 11
0.0
 21
7.0
 31
0.0
  0
LINE
  5
25E
  8
FORMAT
 62
     0
 10
-5.0
 20
0.0
 30
0.0
 11
-7.0
 21
0.0
 31
0.0
  0
LINE
  5
25F
  8
FORMAT
 62
     0
 10
0.0
 20
-5.0
 30
0.0
 11
0.0
 21
-7.0
 31
0.0
  0
LINE
  5
260
  8
FORMAT
 62
     0
 10
5.0
 20
0.0
 30
0.0
 11
7.0
 21
0.0
 31
0.0
  0
ENDBLK
  5
258
  8
0
  0
BLOCK
  8
0
  2
*U30
 70
     1
 10
0.0
 20
0.0
 30
0.0
  3
*U30
  1

  0
TEXT
  5
681
  8
0
 62
     0
 10
617.2168529551000802
 20
597.527718973166543
 30
0.0
 40
17.5
  1
35,00
  0
ENDBLK
  5
683
  8
0
  0
BLOCK
  8
0
  2
*U31
 70
     1
 10
0.0
 20
0.0
 30
0.0
  3
*U31
  1

  0
TEXT
  5
685
  8
0
 62
     0
 10
651.6059829200047488
 20
723.4247269935666509
 30
0.0
 40
17.5
  1
35,00
  0
ENDBLK
  5
687
  8
0
  0
ENDSEC
  0
SECTION
  2
ENTITIES
  0
LINE
  5
CA
  8
0
  6
CONTINUOUS
 62
     7
 10
609.5968496768999785
 20
636.138059671199926
 30
0.0
 11
609.5968496768999785
 21
716.6380607589999272
 31
0.0
  0
LINE
  5
CC
  8
0
  6
CONTINUOUS
 62
     7
 10
609.5968496768999785
 20
731.1380603417998145
 30
0.0
 11
609.5968496768999785
 21
828.638062353399846
 31
0.0
  0
LINE
  5
CF
  8
0
  6
CONTINUOUS
 62
     7
 10
600.9763863651999145
 20
838.8880570486001034
 30
0.0
 11
506.846852858299826
 21
838.8880570486001034
 31
0.0
  0
LINE
  5
D3
  8
0
  6
CONTINUOUS
 62
     7
 10
399.5968562333999898
 20
746.1380600064998134
 30
0.0
 11
399.5968562333999898
 21
831.6380609824998373
 31
0.0
  0
LINE
  5
D5
  8
0
  6
CONTINUOUS
 62
     7
 10
399.5968562333999898
 20
637.2733120873000416
 30
0.0
 11
399.5968562333999898
 21
731.6380604236996987
 31
0.0
  0
LINE
  5
D8
  8
0
  6
CONTINUOUS
 62
     7
 10
497.3468531637000183
 20
628.888063605100001
 30
0.0
 11
410.8468529551000188
 21
628.888063605100001
 31
0.0
  0
LINE
  5
DA
  8
0
  6
CONTINUOUS
 62
     7
 10
602.3468536108000535
 20
628.888063605100001
 30
0.0
 11
511.8468527465000193
 21
628.888063605100001
 31
0.0
  0
ARC
  5
11E
  8
0
  6
CONTINUOUS
 62
     7
 10
403.5968529550996777
 20
628.8880603268999039
 30
0.0
 40
10.2500000000000906
 50
0.0
 51
112.9696765723000027
  0
ARC
  5
11F
  8
0
  6
CONTINUOUS
 62
     7
 10
609.5968529551000756
 20
835.8880603268997902
 30
0.0
 40
10.2500000000000604
 50
162.9813525964000007
 51
270.0
  0
ARC
  5
121
  8
0
  6
CONTINUOUS
 62
     7
 10
609.5968529551000756
 20
723.8880603268999039
 30
0.0
 40
10.2500000000001101
 50
90.0
 51
270.0
  0
ARC
  5
122
  8
0
  6
CONTINUOUS
 62
     7
 10
609.5968529551000756
 20
628.8880603268999039
 30
0.0
 40
10.25
 50
90.0
 51
180.0
  0
ARC
  5
124
  8
0
  6
CONTINUOUS
 62
     7
 10
399.5968529551000756
 20
738.8880603268999039
 30
0.0
 40
10.25
 50
270.0
 51
90.0
  0
ARC
  5
125
  8
0
  6
CONTINUOUS
 62
     7
 10
504.5968529551000188
 20
628.8880603268999039
 30
0.0
 40
10.25
 50
0.0
 51
180.0
  0
LINE
  5
129
  8
0
  6
CONTINUOUS
 62
     7
 10
505.9201484794998009
 20
767.8880621746002362
 30
0.0
 11
399.5968562333999898
 21
767.8880621746002362
 31
0.0
  0
LINE
  5
12E
  8
0
  6
CONTINUOUS
 62
     7
 10
519.423368644600032
 20
770.8880608036998865
 30
0.0
 11
519.423368644600032
 21
838.8880570486001034
 31
0.0
  0
CIRCLE
  5
130
  8
0
  6
CONTINUOUS
 62
     7
 10
579.3468529551000756
 20
659.3880603268999039
 30
0.0
 40
3.5000000000001119
  0
CIRCLE
  5
131
  8
0
  6
CONTINUOUS
 62
     7
 10
579.3468529551000756
 20
659.3880603268999039
 30
0.0
 40
1.25
  0
CIRCLE
  5
132
  8
0
  6
CONTINUOUS
 62
     7
 10
579.3468529551000756
 20
659.3880603268999039
 30
0.0
 40
4.5000000000001119
  0
POLYLINE
  5
133
  8
0
  6
CONTINUOUS
 62
     7
 66
     1
 10
0.0
 20
0.0
 30
0.0
 70
     8
  0
VERTEX
  5
7A9
  8
0
 62
     7
 10
515.4529999999999745
 20
767.8880000000000337
 30
0.0
 70
    32
  0
VERTEX
  5
7AA
  8
0
 62
     7
 10
515.5019999999999527
 20
767.8880000000000337
 30
0.0
 70
    32
  0
VERTEX
  5
7AB
  8
0
 62
     7
 10
515.5509999999999309
 20
767.8889999999998963
 30
0.0
 70
    32
  0
VERTEX
  5
7AC
  8
0
 62
     7
 10
515.6000000000000227
 20
767.8899999999998727
 30
0.0
 70
    32
  0
VERTEX
  5
7AD
  8
0
 62
     7
 10
515.6480000000000246
 20
767.8919999999999391
 30
0.0
 70
    32
  0
VERTEX
  5
7AE
  8
0
 62
     7
 10
515.6970000000000027
 20
767.8939999999997781
 30
0.0
 70
    32
  0
VERTEX
  5
7AF
  8
0
 62
     7
 10
515.7459999999998672
 20
767.8959999999999582
 30
0.0
 70
    32
  0
VERTEX
  5
7B0
  8
0
 62
     7
 10
515.793999999999869
 20
767.8989999999997735
 30
0.0
 70
    32
  0
VERTEX
  5
7B1
  8
0
 62
     7
 10
515.8429999999999609
 20
767.90300000000002
 30
0.0
 70
    32
  0
VERTEX
  5
7B2
  8
0
 62
     7
 10
515.890999999999849
 20
767.9059999999999491
 30
0.0
 70
    32
  0
VERTEX
  5
7B3
  8
0
 62
     7
 10
515.9389999999999645
 20
767.9109999999999445
 30
0.0
 70
    32
  0
VERTEX
  5
7B4
  8
0
 62
     7
 10
515.9880000000000564
 20
767.9149999999998499
 30
0.0
 70
    32
  0
VERTEX
  5
7B5
  8
0
 62
     7
 10
516.0359999999999445
 20
767.9210000000000491
 30
0.0
 70
    32
  0
VERTEX
  5
7B6
  8
0
 62
     7
 10
516.0839999999999463
 20
767.9260000000000446
 30
0.0
 70
    32
  0
VERTEX
  5
7B7
  8
0
 62
     7
 10
516.1319999999999482
 20
767.9320000000000164
 30
0.0
 70
    32
  0
VERTEX
  5
7B8
  8
0
 62
     7
 10
516.17999999999995
 20
767.9389999999998508
 30
0.0
 70
    32
  0
VERTEX
  5
7B9
  8
0
 62
     7
 10
516.2279999999999518
 20
767.9460000000000264
 30
0.0
 70
    32
  0
VERTEX
  5
7BA
  8
0
 62
     7
 10
516.2759999999999536
 20
767.9529999999998608
 30
0.0
 70
    32
  0
VERTEX
  5
7BB
  8
0
 62
     7
 10
516.3229999999998654
 20
767.9610000000000127
 30
0.0
 70
    32
  0
VERTEX
  5
7BC
  8
0
 62
     7
 10
516.3709999999999809
 20
767.9689999999999372
 30
0.0
 70
    32
  0
VERTEX
  5
7BD
  8
0
 62
     7
 10
516.4179999999998927
 20
767.9779999999999518
 30
0.0
 70
    32
  0
VERTEX
  5
7BE
  8
0
 62
     7
 10
516.4650000000000318
 20
767.9869999999999663
 30
0.0
 70
    32
  0
VERTEX
  5
7BF
  8
0
 62
     7
 10
516.5119999999999436
 20
767.9969999999998436
 30
0.0
 70
    32
  0
VERTEX
  5
7C0
  8
0
 62
     7
 10
516.5589999999998554
 20
768.0069999999999482
 30
0.0
 70
    32
  0
VERTEX
  5
7C1
  8
0
 62
     7
 10
516.6059999999998809
 20
768.0169999999999391
 30
0.0
 70
    32
  0
VERTEX
  5
7C2
  8
0
 62
     7
 10
516.65199999999993
 20
768.02800000000002
 30
0.0
 70
    32
  0
VERTEX
  5
7C3
  8
0
 62
     7
 10
516.6990000000000691
 20
768.0389999999999873
 30
0.0
 70
    32
  0
VERTEX
  5
7C4
  8
0
 62
     7
 10
516.7450000000000045
 20
768.0510000000000446
 30
0.0
 70
    32
  0
VERTEX
  5
7C5
  8
0
 62
     7
 10
516.79099999999994
 20
768.0629999999998745
 30
0.0
 70
    32
  0
VERTEX
  5
7C6
  8
0
 62
     7
 10
516.8369999999999891
 20
768.0760000000000218
 30
0.0
 70
    32
  0
VERTEX
  5
7C7
  8
0
 62
     7
 10
516.8819999999999482
 20
768.0889999999999418
 30
0.0
 70
    32
  0
VERTEX
  5
7C8
  8
0
 62
     7
 10
516.9279999999998836
 20
768.1029999999999518
 30
0.0
 70
    32
  0
VERTEX
  5
7C9
  8
0
 62
     7
 10
516.9729999999999563
 20
768.1160000000000991
 30
0.0
 70
    32
  0
VERTEX
  5
7CA
  8
0
 62
     7
 10
517.0180000000000291
 20
768.1309999999999718
 30
0.0
 70
    32
  0
VERTEX
  5
7CB
  8
0
 62
     7
 10
517.0620000000000118
 20
768.1449999999998681
 30
0.0
 70
    32
  0
VERTEX
  5
7CC
  8
0
 62
     7
 10
517.1069999999998572
 20
768.1609999999999445
 30
0.0
 70
    32
  0
VERTEX
  5
7CD
  8
0
 62
     7
 10
517.1509999999999536
 20
768.1760000000000446
 30
0.0
 70
    32
  0
VERTEX
  5
7CE
  8
0
 62
     7
 10
517.19500000000005
 20
768.1919999999998936
 30
0.0
 70
    32
  0
VERTEX
  5
7CF
  8
0
 62
     7
 10
517.2380000000000564
 20
768.20799999999997
 30
0.0
 70
    32
  0
VERTEX
  5
7D0
  8
0
 62
     7
 10
517.2819999999999254
 20
768.2250000000000227
 30
0.0
 70
    32
  0
VERTEX
  5
7D1
  8
0
 62
     7
 10
517.3250000000000455
 20
768.2419999999998481
 30
0.0
 70
    32
  0
VERTEX
  5
7D2
  8
0
 62
     7
 10
517.3680000000000518
 20
768.2599999999998772
 30
0.0
 70
    32
  0
VERTEX
  5
7D3
  8
0
 62
     7
 10
517.4099999999999682
 20
768.27800000000002
 30
0.0
 70
    32
  0
VERTEX
  5
7D4
  8
0
 62
     7
 10
517.4519999999999982
 20
768.2960000000000491
 30
0.0
 70
    32
  0
VERTEX
  5
7D5
  8
0
 62
     7
 10
517.4940000000000282
 20
768.3150000000000546
 30
0.0
 70
    32
  0
VERTEX
  5
7D6
  8
0
 62
     7
 10
517.5359999999999445
 20
768.3339999999999463
 30
0.0
 70
    32
  0
VERTEX
  5
7D7
  8
0
 62
     7
 10
517.5769999999998845
 20
768.3530000000000655
 30
0.0
 70
    32
  0
VERTEX
  5
7D8
  8
0
 62
     7
 10
517.6180000000000518
 20
768.3730000000000473
 30
0.0
 70
    32
  0
VERTEX
  5
7D9
  8
0
 62
     7
 10
517.6589999999999918
 20
768.3939999999997781
 30
0.0
 70
    32
  0
VERTEX
  5
7DA
  8
0
 62
     7
 10
517.6989999999999554
 20
768.4139999999999873
 30
0.0
 70
    32
  0
VERTEX
  5
7DB
  8
0
 62
     7
 10
517.7390000000000327
 20
768.4349999999999454
 30
0.0
 70
    32
  0
VERTEX
  5
7DC
  8
0
 62
     7
 10
517.7789999999998827
 20
768.4569999999998799
 30
0.0
 70
    32
  0
VERTEX
  5
7DD
  8
0
 62
     7
 10
517.8179999999999836
 20
768.4779999999999518
 30
0.0
 70
    32
  0
VERTEX
  5
7DE
  8
0
 62
     7
 10
517.8569999999998572
 20
768.50100000000009
 30
0.0
 70
    32
  0
VERTEX
  5
7DF
  8
0
 62
     7
 10
517.8959999999999582
 20
768.5230000000000246
 30
0.0
 70
    32
  0
VERTEX
  5
7E0
  8
0
 62
     7
 10
517.9339999999998554
 20
768.5460000000000491
 30
0.0
 70
    32
  0
VERTEX
  5
7E1
  8
0
 62
     7
 10
517.9719999999998663
 20
768.56899999999996
 30
0.0
 70
    32
  0
VERTEX
  5
7E2
  8
0
 62
     7
 10
518.0089999999999009
 20
768.5929999999999609
 30
0.0
 70
    32
  0
VERTEX
  5
7E3
  8
0
 62
     7
 10
518.0470000000000255
 20
768.6159999999999854
 30
0.0
 70
    32
  0
VERTEX
  5
7E4
  8
0
 62
     7
 10
518.0830000000000837
 20
768.6410000000000764
 30
0.0
 70
    32
  0
VERTEX
  5
7E5
  8
0
 62
     7
 10
518.1189999999999145
 20
768.6649999999999636
 30
0.0
 70
    32
  0
VERTEX
  5
7E6
  8
0
 62
     7
 10
518.154999999999859
 20
768.6900000000000546
 30
0.0
 70
    32
  0
VERTEX
  5
7E7
  8
0
 62
     7
 10
518.1910000000000309
 20
768.7150000000000318
 30
0.0
 70
    32
  0
VERTEX
  5
7E8
  8
0
 62
     7
 10
518.2259999999999991
 20
768.7409999999999854
 30
0.0
 70
    32
  0
VERTEX
  5
7E9
  8
0
 62
     7
 10
518.2609999999998536
 20
768.7669999999999391
 30
0.0
 70
    32
  0
VERTEX
  5
7EA
  8
0
 62
     7
 10
518.2949999999998454
 20
768.7930000000000064
 30
0.0
 70
    32
  0
VERTEX
  5
7EB
  8
0
 62
     7
 10
518.3289999999999509
 20
768.8189999999998463
 30
0.0
 70
    32
  0
VERTEX
  5
7EC
  8
0
 62
     7
 10
518.3619999999998527
 20
768.8460000000000036
 30
0.0
 70
    32
  0
VERTEX
  5
7ED
  8
0
 62
     7
 10
518.3949999999999818
 20
768.8730000000000473
 30
0.0
 70
    32
  0
VERTEX
  5
7EE
  8
0
 62
     7
 10
518.4270000000000209
 20
768.9009999999999536
 30
0.0
 70
    32
  0
VERTEX
  5
7EF
  8
0
 62
     7
 10
518.4600000000000364
 20
768.9289999999998599
 30
0.0
 70
    32
  0
VERTEX
  5
7F0
  8
0
 62
     7
 10
518.4909999999999854
 20
768.9569999999998799
 30
0.0
 70
    32
  0
VERTEX
  5
7F1
  8
0
 62
     7
 10
518.5219999999999345
 20
768.9850000000000136
 30
0.0
 70
    32
  0
VERTEX
  5
7F2
  8
0
 62
     7
 10
518.5529999999998836
 20
769.0130000000000337
 30
0.0
 70
    32
  0
VERTEX
  5
7F3
  8
0
 62
     7
 10
518.5830000000000837
 20
769.0419999999999163
 30
0.0
 70
    32
  0
VERTEX
  5
7F4
  8
0
 62
     7
 10
518.6130000000000564
 20
769.071999999999889
 30
0.0
 70
    32
  0
VERTEX
  5
7F5
  8
0
 62
     7
 10
518.6419999999999391
 20
769.1010000000001128
 30
0.0
 70
    32
  0
VERTEX
  5
7F6
  8
0
 62
     7
 10
518.6709999999999354
 20
769.1310000000000855
 30
0.0
 70
    32
  0
VERTEX
  5
7F7
  8
0
 62
     7
 10
518.6989999999999554
 20
769.1609999999999445
 30
0.0
 70
    32
  0
VERTEX
  5
7F8
  8
0
 62
     7
 10
518.7269999999998618
 20
769.1910000000000309
 30
0.0
 70
    32
  0
VERTEX
  5
7F9
  8
0
 62
     7
 10
518.7540000000000191
 20
769.2210000000000036
 30
0.0
 70
    32
  0
VERTEX
  5
7FA
  8
0
 62
     7
 10
518.7809999999999491
 20
769.2519999999999527
 30
0.0
 70
    32
  0
VERTEX
  5
7FB
  8
0
 62
     7
 10
518.8070000000000164
 20
769.2830000000000155
 30
0.0
 70
    32
  0
VERTEX
  5
7FC
  8
0
 62
     7
 10
518.83299999999997
 20
769.3139999999998508
 30
0.0
 70
    32
  0
VERTEX
  5
7FD
  8
0
 62
     7
 10
518.8590000000000373
 20
769.34599999999989
 30
0.0
 70
    32
  0
VERTEX
  5
7FE
  8
0
 62
     7
 10
518.8830000000000382
 20
769.3769999999999527
 30
0.0
 70
    32
  0
VERTEX
  5
7FF
  8
0
 62
     7
 10
518.9080000000000155
 20
769.4089999999999918
 30
0.0
 70
    32
  0
VERTEX
  5
800
  8
0
 62
     7
 10
518.93100000000004
 20
769.4420000000000073
 30
0.0
 70
    32
  0
VERTEX
  5
801
  8
0
 62
     7
 10
518.9550000000000409
 20
769.4739999999999327
 30
0.0
 70
    32
  0
VERTEX
  5
802
  8
0
 62
     7
 10
518.9769999999999754
 20
769.5059999999999718
 30
0.0
 70
    32
  0
VERTEX
  5
803
  8
0
 62
     7
 10
518.9990000000000236
 20
769.5389999999998736
 30
0.0
 70
    32
  0
VERTEX
  5
804
  8
0
 62
     7
 10
519.0209999999998445
 20
769.5720000000000027
 30
0.0
 70
    32
  0
VERTEX
  5
805
  8
0
 62
     7
 10
519.0419999999999163
 20
769.6050000000000182
 30
0.0
 70
    32
  0
VERTEX
  5
806
  8
0
 62
     7
 10
519.0629999999998745
 20
769.6389999999998963
 30
0.0
 70
    32
  0
VERTEX
  5
807
  8
0
 62
     7
 10
519.08299999999997
 20
769.6720000000000255
 30
0.0
 70
    32
  0
VERTEX
  5
808
  8
0
 62
     7
 10
519.1019999999998618
 20
769.7060000000000173
 30
0.0
 70
    32
  0
VERTEX
  5
809
  8
0
 62
     7
 10
519.1209999999998672
 20
769.7400000000000091
 30
0.0
 70
    32
  0
VERTEX
  5
80A
  8
0
 62
     7
 10
519.1399999999998727
 20
769.7739999999997735
 30
0.0
 70
    32
  0
VERTEX
  5
80B
  8
0
 62
     7
 10
519.1569999999999254
 20
769.8079999999999927
 30
0.0
 70
    32
  0
VERTEX
  5
80C
  8
0
 62
     7
 10
519.1749999999999545
 20
769.8429999999999609
 30
0.0
 70
    32
  0
VERTEX
  5
80D
  8
0
 62
     7
 10
519.1910000000000309
 20
769.8769999999999527
 30
0.0
 70
    32
  0
VERTEX
  5
80E
  8
0
 62
     7
 10
519.2069999999999936
 20
769.9119999999999209
 30
0.0
 70
    32
  0
VERTEX
  5
80F
  8
0
 62
     7
 10
519.22300000000007
 20
769.946999999999889
 30
0.0
 70
    32
  0
VERTEX
  5
810
  8
0
 62
     7
 10
519.2380000000000564
 20
769.9819999999998572
 30
0.0
 70
    32
  0
VERTEX
  5
811
  8
0
 62
     7
 10
519.2519999999999527
 20
770.0169999999999391
 30
0.0
 70
    32
  0
VERTEX
  5
812
  8
0
 62
     7
 10
519.2659999999999627
 20
770.0529999999999973
 30
0.0
 70
    32
  0
VERTEX
  5
813
  8
0
 62
     7
 10
519.2799999999999727
 20
770.0879999999999654
 30
0.0
 70
    32
  0
VERTEX
  5
814
  8
0
 62
     7
 10
519.2919999999999163
 20
770.1230000000000473
 30
0.0
 70
    32
  0
VERTEX
  5
815
  8
0
 62
     7
 10
519.3039999999998599
 20
770.1589999999999918
 30
0.0
 70
    32
  0
VERTEX
  5
816
  8
0
 62
     7
 10
519.3160000000000309
 20
770.19500000000005
 30
0.0
 70
    32
  0
VERTEX
  5
817
  8
0
 62
     7
 10
519.3269999999999982
 20
770.2310000000001082
 30
0.0
 70
    32
  0
VERTEX
  5
818
  8
0
 62
     7
 10
519.3369999999998754
 20
770.2669999999999391
 30
0.0
 70
    32
  0
VERTEX
  5
819
  8
0
 62
     7
 10
519.3469999999998663
 20
770.3029999999999973
 30
0.0
 70
    32
  0
VERTEX
  5
81A
  8
0
 62
     7
 10
519.3559999999998809
 20
770.3389999999999418
 30
0.0
 70
    32
  0
VERTEX
  5
81B
  8
0
 62
     7
 10
519.3649999999998954
 20
770.375
 30
0.0
 70
    32
  0
VERTEX
  5
81C
  8
0
 62
     7
 10
519.3730000000000473
 20
770.4109999999999445
 30
0.0
 70
    32
  0
VERTEX
  5
81D
  8
0
 62
     7
 10
519.3799999999999955
 20
770.4479999999999791
 30
0.0
 70
    32
  0
VERTEX
  5
81E
  8
0
 62
     7
 10
519.3869999999999436
 20
770.4839999999999236
 30
0.0
 70
    32
  0
VERTEX
  5
81F
  8
0
 62
     7
 10
519.3940000000000055
 20
770.5210000000000719
 30
0.0
 70
    32
  0
VERTEX
  5
820
  8
0
 62
     7
 10
519.3990000000000009
 20
770.5570000000000164
 30
0.0
 70
    32
  0
VERTEX
  5
821
  8
0
 62
     7
 10
519.4039999999999964
 20
770.5939999999999372
 30
0.0
 70
    32
  0
VERTEX
  5
822
  8
0
 62
     7
 10
519.4089999999999918
 20
770.6310000000000855
 30
0.0
 70
    32
  0
VERTEX
  5
823
  8
0
 62
     7
 10
519.4130000000000109
 20
770.6669999999999163
 30
0.0
 70
    32
  0
VERTEX
  5
824
  8
0
 62
     7
 10
519.41599999999994
 20
770.7039999999999509
 30
0.0
 70
    32
  0
VERTEX
  5
825
  8
0
 62
     7
 10
519.418999999999869
 20
770.7410000000000991
 30
0.0
 70
    32
  0
VERTEX
  5
826
  8
0
 62
     7
 10
519.4209999999999354
 20
770.77800000000002
 30
0.0
 70
    32
  0
VERTEX
  5
827
  8
0
 62
     7
 10
519.4220000000000255
 20
770.8139999999999645
 30
0.0
 70
    32
  0
VERTEX
  5
828
  8
0
 62
     7
 10
519.4230000000000018
 20
770.8510000000001128
 30
0.0
 70
    32
  0
VERTEX
  5
829
  8
0
 62
     7
 10
519.4230000000000018
 20
770.8880000000000337
 30
0.0
 70
    32
  0
SEQEND
  5
82A
  8
0
 62
     7
  0
LINE
  5
134
  8
0
  6
CONTINUOUS
 62
     7
 10
515.4534813730996348
 20
767.8880621746002362
 30
0.0
 11
505.9201484794998009
 21
767.8880621746002362
 31
0.0
  0
LINE
  5
140
  8
0
  6
CONTINUOUS
 62
     7
 10
587.3468530146999456
 20
656.6380639626999027
 30
0.0
 11
587.3468530146999456
 21
662.1380602075997786
 31
0.0
  0
LINE
  5
141
  8
0
  6
CONTINUOUS
 62
     7
 10
588.8468560545998116
 20
656.6380639626999027
 30
0.0
 11
587.3468530146999456
 21
656.6380639626999027
 31
0.0
  0
LINE
  5
142
  8
0
  6
CONTINUOUS
 62
     7
 10
588.8468560545998116
 20
662.1380602075997786
 30
0.0
 11
588.8468560545998116
 21
656.6380639626999027
 31
0.0
  0
LINE
  5
143
  8
0
  6
CONTINUOUS
 62
     7
 10
587.3468530146999456
 20
662.1380602075997786
 30
0.0
 11
588.8468560545998116
 21
662.1380602075997786
 31
0.0
  0
LINE
  5
144
  8
0
  6
CONTINUOUS
 62
     7
 10
576.596849855700043
 20
649.6380572273999405
 30
0.0
 11
576.596849855700043
 21
651.138060267300034
 31
0.0
  0
LINE
  5
145
  8
0
  6
CONTINUOUS
 62
     7
 10
582.0968535511999562
 20
649.6380572273999405
 30
0.0
 11
576.596849855700043
 21
649.6380572273999405
 31
0.0
  0
LINE
  5
146
  8
0
  6
CONTINUOUS
 62
     7
 10
582.0968535511999562
 20
651.138060267300034
 30
0.0
 11
582.0968535511999562
 21
649.6380572273999405
 31
0.0
  0
LINE
  5
147
  8
0
  6
CONTINUOUS
 62
     7
 10
576.596849855700043
 20
651.138060267300034
 30
0.0
 11
582.0968535511999562
 21
651.138060267300034
 31
0.0
  0
LINE
  5
148
  8
0
  6
CONTINUOUS
 62
     7
 10
576.596849855700043
 20
667.6380639030999191
 30
0.0
 11
576.596849855700043
 21
669.1380594923996341
 31
0.0
  0
LINE
  5
149
  8
0
  6
CONTINUOUS
 62
     7
 10
582.0968535511999562
 20
667.6380639030999191
 30
0.0
 11
576.596849855700043
 21
667.6380639030999191
 31
0.0
  0
LINE
  5
14A
  8
0
  6
CONTINUOUS
 62
     7
 10
582.0968535511999562
 20
669.1380594923996341
 30
0.0
 11
582.0968535511999562
 21
667.6380639030999191
 31
0.0
  0
LINE
  5
14B
  8
0
  6
CONTINUOUS
 62
     7
 10
576.596849855700043
 20
669.1380594923996341
 30
0.0
 11
582.0968535511999562
 21
669.1380594923996341
 31
0.0
  0
CIRCLE
  5
14C
  8
0
  6
CONTINUOUS
 62
     7
 10
544.5968529550999619
 20
757.8880603268997902
 30
0.0
 40
4.5
  0
CIRCLE
  5
14D
  8
0
  6
CONTINUOUS
 62
     7
 10
544.5968529550999619
 20
757.8880603268997902
 30
0.0
 40
1.649999999999975
  0
CIRCLE
  5
14E
  8
0
  6
CONTINUOUS
 62
     7
 10
414.5968529551000756
 20
647.8880603268999039
 30
0.0
 40
4.4999999999999432
  0
CIRCLE
  5
14F
  8
0
  6
CONTINUOUS
 62
     7
 10
414.5968529551000756
 20
647.8880603268999039
 30
0.0
 40
1.649999999999975
  0
CIRCLE
  5
150
  8
0
  6
CONTINUOUS
 62
     7
 10
479.5968529551000188
 20
647.8880603268999039
 30
0.0
 40
4.500000000000056
  0
CIRCLE
  5
151
  8
0
  6
CONTINUOUS
 62
     7
 10
479.5968529551000188
 20
647.8880603268999039
 30
0.0
 40
1.649999999999975
  0
CIRCLE
  5
152
  8
0
  6
CONTINUOUS
 62
     7
 10
479.5968529551000188
 20
757.8880603268997902
 30
0.0
 40
4.500000000000056
  0
CIRCLE
  5
153
  8
0
  6
CONTINUOUS
 62
     7
 10
479.5968529551000188
 20
757.8880603268997902
 30
0.0
 40
1.649999999999975
  0
CIRCLE
  5
154
  8
0
  6
CONTINUOUS
 62
     7
 10
414.5968529551000756
 20
757.8880603268997902
 30
0.0
 40
4.4999999999999432
  0
CIRCLE
  5
155
  8
0
  6
CONTINUOUS
 62
     7
 10
414.5968529551000756
 20
757.8880603268997902
 30
0.0
 40
1.649999999999975
  0
CIRCLE
  5
156
  8
0
  6
CONTINUOUS
 62
     7
 10
544.5968529550999619
 20
647.8880603268999039
 30
0.0
 40
4.5
  0
CIRCLE
  5
157
  8
0
  6
CONTINUOUS
 62
     7
 10
544.5968529550999619
 20
647.8880603268999039
 30
0.0
 40
1.649999999999975
  0
CIRCLE
  5
158
  8
0
  6
CONTINUOUS
 62
     7
 10
544.5968529550999619
 20
827.8880603268997902
 30
0.0
 40
4.5
  0
CIRCLE
  5
159
  8
0
  6
CONTINUOUS
 62
     7
 10
544.5968529550999619
 20
827.8880603268997902
 30
0.0
 40
1.649999999999975
  0
CIRCLE
  5
552
  8
0
  6
CONTINUOUS
 62
     7
 10
579.5968529550999619
 20
682.8880603268999039
 30
0.0
 40
4.5
  0
CIRCLE
  5
553
  8
0
  6
CONTINUOUS
 62
     7
 10
579.5968529550999619
 20
682.8880603268999039
 30
0.0
 40
1.649999999999975
  0
ENDSEC
  0
EOF
