M48
;Layer_Color=9474304
;FILE_FORMAT=2:5
INCH,LZ
;TYPE=PLATED
T1F00S00C0.01200
T2F00S00C0.01299
T3F00S00C0.02000
T4F00S00C0.02362
T5F00S00C0.02500
T6F00S00C0.02800
T7F00S00C0.03000
T8F00S00C0.03543
T9F00S00C0.03937
T10F00S00C0.04000
T11F00S00C0.04724
T13F00S00C0.07283
%
T01
X-00248Y-02896
X00459Y-02639
X00539
X01004Y-02671
X01047Y-02759
X01084Y-03106
X01119
X01051Y-03302
X01435Y-03106
X01512Y-02777
X00506Y-03264
X01873Y-03515
X02034Y-03103
X01963Y-02763
X01934Y-02707
X01838Y-0267
X01794Y-02764
X02034Y-02614
X0275438Y-0260462
X02811Y-02856
X0284353Y-0294947
X0285721Y-0302821
X02836Y-03051
X028993Y-031127
X02819Y-03237
X02728Y-03218
X02647Y-02854
X0292Y-02914
X0222Y-03805
X01933Y-02576
X01963Y-02523
X01937Y-02297
X01902Y-02277
X0183674Y-0235974
X0172075Y-0204075
X0174437Y-0169037
X01867Y-0175
X01901Y-01573
X01874Y-01472
X0185Y-01496
X017255Y-0152504
X020745Y-013105
X02102Y-01253
X01991Y-01112
X02477Y-02316
X01645Y-02277
X01658Y-02204
X0169Y-02227
X01597Y-02156
X0160264Y-0211364
X0154396Y-0209004
X0151996Y-02071
X01455Y-02116
X01423Y-02147
X01429Y-02278
X01475Y-02359
X01247Y-02322
X0134Y-01957
X01534Y-01881
X01606Y-01829
X01638Y-01828
X01685Y-01816
X01665Y-01909
X01647Y-02047
X01569Y-02178
X0161531Y-0174469
X01669Y-0169
X0165Y-0151459
X0160264Y-0153336
X01546Y-01554
X01502Y-01524
X01583Y-01351
X01272Y-01332
X01141
X0106445Y-0133455
X01057Y-01367
X01133Y-0119455
X0117092Y-0117692
X0120469Y-0116168
X01357Y-01112
X01186Y-01632
X00794Y-01637
X00712Y-01597
X00604Y-01554
X00421Y-01573
X0052Y-01363
X0079Y-0145
X00794Y-01908
X00712Y-01847
X00642Y-02005
X00579
X00421Y-01969
X00358Y-02009
X00421Y-02102
X00795Y-02178
X00154Y-01677
X00065Y-01815
X-00037Y-01907
X-00004Y-0196
X00037Y-01997
X00045Y-02315
X-00166Y-02295
X-00443Y-02204
X-00486Y-02227
X-0031969Y-0174469
X-00346Y-01714
X-00382Y-01483
X00019Y-00394
X-00005Y-00365
X-00037Y-00336
X00975Y-00959
X01193Y-00988
X01561Y-00915
X01782Y-00988
X01815Y-00959
X0202Y-00915
X01919Y-00456
X01892Y-00479
X01873Y-00338
X0185Y-00314
X02214Y-00165
X02255Y-00148
T02
X00288Y-02429
X00289Y-02385
T03
X01842Y-02852
X0180933Y-0161667
X0122Y-01587
X00389Y-0141
X00387Y-01114
X-00112Y-00866
X00834Y-00978
X01903Y-00878
X01754Y-00629
T04
X-0066Y-02824
X-0056
T05
X-00706Y-03747
X-00568Y-03844
X-00449Y-03871
X-00299
X-00188
X-00175Y-03775
X-00167Y-03696
Y-03598
X-00263Y-03593
X-0028Y-03692
Y-03777
X-00056Y-03772
X-00058Y-03693
X-00061Y-03599
X00069Y-03705
X0007Y-03777
X00056Y-03871
X-00067
X-00043Y-03315
X-001Y-03252
X-00029Y-03188
X-00173Y-03165
X-00283Y-03174
X-0025Y-03084
X-00175Y-03044
X-00168Y-02896
Y-02768
X-0017Y-02672
X-00072Y-0277
X0004Y-02771
X00114Y-02722
X00126Y-02647
X-00348Y-0265
X-00431Y-02616
X-00488Y-02701
X-00401Y-02736
X-00314Y-02759
X-00301Y-02863
X-00371Y-02829
Y-02931
X-00367Y-03031
X-00297Y-02993
X-00386Y-03135
X-00412Y-0325
X-00163Y-03356
X00095Y-03419
X-00623Y-02637
X00204Y-02589
X00256Y-02629
X00305Y-02675
X00313Y-02587
X00407Y-02589
X00457Y-02686
X00438Y-02878
X0044Y-02958
X00522Y-02921
X00585Y-02918
X00639Y-02919
X00638Y-02854
X0058Y-02855
X00517Y-02853
X00322Y-02878
X00324Y-0295
X00325Y-0302
X00243Y-03016
X0024Y-02952
X00234Y-02879
X00143Y-02877
X00145Y-02955
Y-03038
X00488Y-03044
X00495Y-03107
X0055Y-03077
X00605Y-03044
X00607Y-03115
X00932Y-02827
X01004Y-02836
X01009Y-02725
X00931Y-02727
X00801Y-02615
X01186Y-02721
X01176Y-0278
X01189Y-02847
X01263Y-02783
X01341Y-02819
X01431Y-02821
X01471Y-02786
X01499Y-02715
X01652Y-02718
X017Y-0278001
X01517Y-02931
X0142933
X0134167
X01254
X01252Y-03026
X01346
X01429
X01543Y-03257
X01503Y-0343
X01404Y-03441
X01544Y-03528
X01615Y-03799
X0154969Y-0386531
X01433Y-03871
X01338
X01241
X01141
X01029
X00918
X00816
X00722
X00615
X00613Y-03783
X00504Y-03871
X00404
X00283
X00159
X00959Y-03506
X00987Y-03417
X01162Y-03421
X01098Y-035
X01109Y-03556
X01337Y-02722
X01853Y-02725
X01993Y-02878
X02202Y-02853
X0219Y-02933
X02186Y-03012
X02187Y-03104
X0215299Y-0318197
X02085Y-03181
X01951Y-03189
X01849Y-03247
X017765
X01715
Y-03325
X01778
X01849
Y-03403
X01782
X01715
X01739Y-03555
X01747Y-03629
X01752Y-03724
X01747Y-03824
X01749Y-0389
X02164Y-0388
X02172Y-03787
X02176Y-03693
Y-03592
X02173Y-03492
X02142Y-03415
X02072Y-03373
X01994Y-03414
X019Y-03565
X02331Y-03581
X02285Y-03415
X02382Y-03401
X02381Y-03328
X02367Y-03251
X02359Y-03126
X02372Y-03055
X02277Y-03146
X0227Y-02967
X02272Y-02894
X02332
X02335Y-02829
X02272Y-02826
X02278Y-02758
X0234Y-0276
X02331Y-0269
X02274Y-02691
X0227Y-02614
X02335Y-02611
X02127Y-02616
X02625
X02627Y-02723
X02675Y-02754
X02724Y-02685
X02879Y-02689
X02984Y-02692
X02961Y-02597
X0306563Y-0265507
X03064Y-02762
Y-0285
Y-02939
X02985Y-0294
X03063Y-03037
X03059Y-03124
X0297Y-03122
X02797Y-03112
X02731Y-03123
X02721Y-02979
X02958Y-02787
X03056Y-03223
X03051Y-03332
X03052Y-03419
X02971Y-03422
X02877Y-03437
Y-03361
X02844Y-03521
X03052Y-03527
Y-03622
X03055Y-03714
X03054Y-03803
X03058Y-03898
X02979Y-039
X02887Y-03901
X02823Y-03904
X02706Y-03907
X02743Y-03835
X02702Y-03764
X02639Y-03762
X02645Y-03857
X02504Y-03842
X02386Y-03838
X02294Y-03839
X02669Y-03687
X02571Y-03353
Y-03298
X0251Y-03297
X02513Y-03354
X01704Y-03032
Y-02942
X01731Y-02525
X01729Y-02458
X01866Y-02472
X01877Y-02387
X01979
X02015Y-02333
X01993Y-02261
X0212Y-02277
X02092Y-02366
X02072Y-0243
X02085Y-02492
X02146Y-02488
X02138Y-02417
X02194Y-02335
X02326Y-02386
Y-02441
Y-02497
X02392Y-02498
Y-02443
Y-02387
X02624Y-02388
X02688Y-0239
X02743Y-02389
X02741Y-02455
X02686Y-02456
X02624Y-02458
X02492Y-02574
X02843Y-02512
X02989Y-02508
X03066Y-02484
X03062Y-02408
X03044Y-02339
X02972Y-02335
X02962Y-02426
X0297437Y-02231
X03047Y-02261
X03049Y-02163
X03051Y-0208
X03052Y-02
X03054Y-01916
X03034Y-01751
X03051Y-01644
X02934Y-01646
X02851Y-01602
X02774Y-01644
X02712Y-01606
X02755Y-01518
X02748Y-01459
X0277Y-01399
X02684Y-01408
X02635Y-01456
X02651Y-01521
X02574Y-01529
X02456Y-01527
X02499Y-01606
X02606Y-01642
X02665Y-01765
X02534Y-0176
X02358Y-01772
X02278Y-01771
X02306Y-01665
X02341Y-01576
X02289Y-01488
X02367Y-01425
X02484Y-01395
X02563Y-01399
X0254Y-01348
X0265Y-01326
X02627Y-01249
X02672Y-01218
X02629Y-01169
X02601Y-01106
X02681Y-01057
X02755Y-01097
X02749Y-0114
X02793Y-01214
X02802Y-01295
X02741Y-01274
X02898Y-01309
X02864Y-01377
X02847Y-01439
X02895Y-01521
X02992Y-01552
X03021Y-01497
X0302Y-01346
X0296Y-01382
X02985Y-01277
X0304Y-012
X03023Y-01129
X02966Y-01157
X02883Y-01194
Y-01086
X03005Y-01029
X02563Y-01226
X02487Y-01174
X02467Y-01275
X02079Y-01157
X02082Y-01037
X01721Y-01204
X01727Y-01324
X0182Y-02023
X02035Y-0215
X02141Y-02136
X02247Y-02094
X02255Y-0221
X0227Y-01916
X02699Y-01922
X02701Y-02028
X02733Y-02119
X02803Y-02185
X02855Y-02266
X02927Y-02158
X02858Y-02085
X02904Y-01757
X02795Y-01754
X03065Y-02565
X02049Y-02531
X01997Y-02464
X01643Y-0246
X01644Y-02526
X01554Y-02527
X01553Y-02459
X01455
X01452Y-02525
X01347Y-02524
X01345Y-02463
X01214Y-02272
X00981Y-02259
X00961Y-02349
X00798Y-0236
X00799Y-0242
X008Y-02482
Y-02547
X00873Y-02549
X00872Y-02485
X00716Y-02486
Y-02422
X00718Y-02361
X0072Y-02546
X00402Y-02519
X0036Y-02553
X00304Y-02515
X00262Y-02549
X00197Y-02518
X00172Y-02261
X00298Y-0226
X00411Y-02262
X00489Y-01997
X00718Y-01938
X00755Y-01643
X01102Y-01645
X01413Y-0163329
X01571Y-01762
X0155Y-0192
X01516Y-02136
X01672Y-02351
X00841Y-02261
X00461Y-01525
X00314Y-01546
X00301Y-01633
X00237Y-01601
X00298Y-01049
X01273Y-01172
X01394Y-01173
X01346Y-013
X01514Y-01321
X01511Y-01236
X01584Y-01231
X01583Y-01296
X01582Y-0115
X01489Y-01054
X00117Y-01371
X00109Y-01616
X-0025Y-01581
X-00211Y-01432
X-00207Y-01322
X-00223Y-01191
X-00562Y-01176
X-00636Y-01142
X-00709Y-01155
X-00701Y-01306
X-00597Y-01406
X-00696Y-01527
X-00753Y-0167
X-00696Y-01752
X-00592Y-01817
Y-01975
X-00677Y-01968
X-0076Y-01982
X-00738Y-01904
X-00758Y-02082
X-00662Y-02083
X-00671Y-02177
X-00672Y-02265
X-00576Y-02306
X-00462Y-02304
X-00262Y-02307
X-00207Y-0241
X-00243Y-02457
X-00051Y-02125
X00006Y-02162
X-0017Y-01791
X-00363Y-018
X-00366Y-01907
X-00567Y-02073
X-00573Y-02179
X-00778
X-00575Y-01644
X-00588Y-01016
X-0061Y-00904
X-00722Y-00869
X-00718Y-0099
X-00714Y-00726
X-00588Y-00739
X-00502Y-00633
X-004Y-00604
X-00395Y-00531
X-00309Y-00639
X-00337Y-00711
X-00231Y-00758
X-00188Y-00675
X-00241Y-00592
X-00248Y-00465
X-00252Y-00398
X-00089Y-00321
X-00066Y-00175
X00065Y-00531
X00132Y-00914
X00124Y-00984
X-00185Y-00969
X-00206Y-00869
X-00623Y-00571
X-00722Y-00562
X-0069Y-00451
X-00612Y-00388
X-00729Y-00325
X-00645Y-00236
X-00669Y-00089
X-00759Y-00167
X00419Y-00558
X00473Y-0063
X00401Y-00711
X00446Y-00886
X00273Y-00951
X00202Y-00981
X00683Y-00992
X00699Y-0055
X0063Y-00518
X00566Y-00445
X00789Y-00499
X00958Y-00523
X01114Y-00537
X01214Y-00502
X01167Y-0044274
X01208Y-00358
X01408Y-00354
X01361Y-00523
X01455Y-00629
X01638Y-00494
X01671Y-00879
X01372Y-0087885
X01018Y-0086251
X00872Y-00628
X0178Y-00519
X01802Y-0038
X01718Y-00404
X01936Y-00379
X02104Y-00363
X02333Y-00542
X02287Y-00661
X02397Y-0065
X02492Y-00713
X02592Y-00706
X02603Y-00605
X02719Y-0062
X02703Y-00701
X02839Y-00729
X02933Y-00825
X03016Y-00697
X03023Y-0054
X03004Y-00412
X02941Y-00328
X02854Y-00345
X02832Y-0043
X02744Y-00852
X02579Y-00854
X02422Y-00888
X02316Y-0088
X02295Y-00797
X02084Y-00944
T06
X01754Y-00629
T07
X0090649Y-01439
X0100649
X0110649
X0120649
X0130649
X0140649
Y-01039
X0130649
X0120649
X0110649
X0100649
X0090649
X0095806Y-0077837
X0106806
X012494
X013594
X0154074
X0165074
X0077672
X0066672
T08
X0025Y-0141
Y-0131
Y-0121
X-00443Y-01295
Y-01395
Y-01495
X-00445Y-01123
Y-01023
Y-00923
Y-00823
T09
X-00284Y-03453
X-0018557
X-0010684
X-0000841
X00082Y-00207
X-00215
X-00315
X-00415
X-00515
X00182
X00282
X00382
X00675
X00775
X00875
X00975
X01075
X01175
X01275
X01375
X01475
X01575
X01863
X01963
X02063
X02163
X02457
X02557
X02657
X02757
T10
X-00672Y-03519
X-00572
T11
X-00718Y-03199
Y-03004
X-0052115
Y-03199
T13
X0045709Y-03678
X00613
X0096409Y-03677
X0112
X0145909
X01615
X0190309
X02059
X0233609Y-03678
X02492
X0278709Y-0368
X02943
M30
