%FSLAX25Y25*%
%MOIN*%
G70*
G01*
G75*
%ADD10C,0.02000*%
%ADD11R,0.07874X0.07874*%
%ADD12R,0.03347X0.02756*%
%ADD13R,0.02756X0.08268*%
%ADD14R,0.02559X0.04843*%
%ADD15R,0.19685X0.05118*%
%ADD16R,0.04724X0.09843*%
%ADD17R,0.09843X0.05906*%
%ADD18O,0.01378X0.06890*%
%ADD19R,0.01378X0.01181*%
%ADD20R,0.01378X0.00984*%
%ADD21R,0.01181X0.01181*%
%ADD22O,0.04724X0.00984*%
%ADD23R,0.04724X0.01772*%
%ADD24O,0.04724X0.01772*%
%ADD25O,0.00984X0.04724*%
%ADD26O,0.01772X0.04724*%
%ADD27R,0.07480X0.05512*%
%ADD28R,0.05315X0.01654*%
%ADD29R,0.03937X0.03150*%
%ADD30R,0.03150X0.03937*%
%ADD31R,0.09843X0.11811*%
%ADD32O,0.07087X0.02362*%
%ADD33O,0.02362X0.07087*%
%ADD34O,0.03543X0.01969*%
%ADD35R,0.03543X0.01969*%
%ADD36O,0.03543X0.01969*%
%ADD37R,0.01575X0.03347*%
%ADD38R,0.03937X0.02362*%
%ADD39R,0.02756X0.03347*%
G04:AMPARAMS|DCode=40|XSize=35.43mil|YSize=157.48mil|CornerRadius=1.77mil|HoleSize=0mil|Usage=FLASHONLY|Rotation=0.000|XOffset=0mil|YOffset=0mil|HoleType=Round|Shape=RoundedRectangle|*
%AMROUNDEDRECTD40*
21,1,0.03543,0.15394,0,0,0.0*
21,1,0.03189,0.15748,0,0,0.0*
1,1,0.00354,0.01595,-0.07697*
1,1,0.00354,-0.01595,-0.07697*
1,1,0.00354,-0.01595,0.07697*
1,1,0.00354,0.01595,0.07697*
%
%ADD40ROUNDEDRECTD40*%
%ADD41R,0.05906X0.03937*%
%ADD42R,0.05118X0.19685*%
%ADD43R,0.03937X0.05906*%
%ADD44C,0.04000*%
%ADD45C,0.01000*%
%ADD46C,0.01500*%
%ADD47C,0.00800*%
%ADD48C,0.03000*%
%ADD49C,0.07000*%
%ADD50R,0.16830X0.03653*%
%ADD51C,0.00500*%
%ADD52C,0.05906*%
%ADD53R,0.05906X0.05906*%
%ADD54C,0.11811*%
%ADD55O,0.07874X0.15748*%
%ADD56C,0.03228*%
%ADD57R,0.05906X0.05906*%
%ADD58C,0.07874*%
%ADD59R,0.07874X0.07874*%
%ADD60O,0.11811X0.07874*%
%ADD61R,0.11811X0.07874*%
G04:AMPARAMS|DCode=62|XSize=51.18mil|YSize=173.23mil|CornerRadius=2.56mil|HoleSize=0mil|Usage=FLASHONLY|Rotation=0.000|XOffset=0mil|YOffset=0mil|HoleType=Round|Shape=RoundedRectangle|*
%AMROUNDEDRECTD62*
21,1,0.05118,0.16811,0,0,0.0*
21,1,0.04606,0.17323,0,0,0.0*
1,1,0.00512,0.02303,-0.08406*
1,1,0.00512,-0.02303,-0.08406*
1,1,0.00512,-0.02303,0.08406*
1,1,0.00512,0.02303,0.08406*
%
%ADD62ROUNDEDRECTD62*%
%ADD63C,0.03000*%
%ADD64C,0.04000*%
%ADD65C,0.02000*%
%ADD66C,0.06000*%
%ADD67R,0.03937X0.07087*%
%ADD68R,0.11811X0.08661*%
D11*
X73852Y-120500D02*
D03*
X89600D02*
D03*
X89448Y-106500D02*
D03*
X73700D02*
D03*
D12*
X132756Y13406D02*
D03*
Y7500D02*
D03*
X122856Y13406D02*
D03*
Y7500D02*
D03*
X112956Y13406D02*
D03*
Y7500D02*
D03*
X103056Y13406D02*
D03*
Y7500D02*
D03*
X303100Y-103805D02*
D03*
Y-97900D02*
D03*
X296656Y-103905D02*
D03*
Y-98000D02*
D03*
X152956Y-165300D02*
D03*
Y-159395D02*
D03*
X173356Y-159395D02*
D03*
Y-165300D02*
D03*
X159756Y-159395D02*
D03*
Y-165300D02*
D03*
X119256Y-129295D02*
D03*
Y-135200D02*
D03*
X153456Y-85994D02*
D03*
Y-91900D02*
D03*
X112600Y-135205D02*
D03*
Y-129300D02*
D03*
X166556Y-165300D02*
D03*
Y-159395D02*
D03*
X103100Y-2300D02*
D03*
Y-8206D02*
D03*
X112856Y-2300D02*
D03*
Y-8206D02*
D03*
X122756Y-2300D02*
D03*
Y-8206D02*
D03*
X117256Y-85994D02*
D03*
Y-91900D02*
D03*
X132656Y-2300D02*
D03*
Y-8206D02*
D03*
X124496Y-91900D02*
D03*
Y-85994D02*
D03*
X146216Y-85994D02*
D03*
Y-91900D02*
D03*
X132556Y-165300D02*
D03*
Y-159395D02*
D03*
X188556Y-125300D02*
D03*
Y-131205D02*
D03*
X131736Y-85994D02*
D03*
Y-91900D02*
D03*
X146156Y-165300D02*
D03*
Y-159395D02*
D03*
X181256Y-131100D02*
D03*
Y-125195D02*
D03*
X138976Y-91900D02*
D03*
Y-85994D02*
D03*
X139356Y-159395D02*
D03*
Y-165300D02*
D03*
X274956Y-23795D02*
D03*
Y-29700D02*
D03*
X281556Y-23695D02*
D03*
Y-29600D02*
D03*
X178300Y-89100D02*
D03*
Y-95006D02*
D03*
X198756Y-53800D02*
D03*
Y-59706D02*
D03*
X183989Y-53800D02*
D03*
Y-59706D02*
D03*
X176606Y-53800D02*
D03*
Y-59706D02*
D03*
X191373Y-53800D02*
D03*
Y-59706D02*
D03*
X169223Y-53800D02*
D03*
Y-59706D02*
D03*
X154456Y-53800D02*
D03*
Y-59706D02*
D03*
X161839Y-53800D02*
D03*
Y-59706D02*
D03*
X229600Y-19100D02*
D03*
Y-13194D02*
D03*
X60156Y-103706D02*
D03*
Y-97800D02*
D03*
X53034Y-103739D02*
D03*
Y-97833D02*
D03*
X60156Y-90500D02*
D03*
Y-84595D02*
D03*
X52934Y-90533D02*
D03*
Y-84628D02*
D03*
X57256Y-184200D02*
D03*
Y-190105D02*
D03*
X23700Y-146200D02*
D03*
Y-140295D02*
D03*
X73256Y-163805D02*
D03*
Y-157900D02*
D03*
X-7144Y-179900D02*
D03*
Y-173995D02*
D03*
X102400Y-157794D02*
D03*
Y-163700D02*
D03*
X110000Y-163706D02*
D03*
Y-157800D02*
D03*
D13*
X146029Y11702D02*
D03*
Y-35542D02*
D03*
X197171Y11702D02*
D03*
Y-35542D02*
D03*
D14*
X170596Y-41900D02*
D03*
X175596D02*
D03*
X180596D02*
D03*
X185596D02*
D03*
X190596D02*
D03*
X165596D02*
D03*
X161856D02*
D03*
D15*
X-17100Y-61922D02*
D03*
Y-38300D02*
D03*
X43000Y-163800D02*
D03*
Y-140178D02*
D03*
X14200Y-81200D02*
D03*
Y-104822D02*
D03*
D16*
X50056Y-59600D02*
D03*
X30371D02*
D03*
D17*
X37156Y-96702D02*
D03*
D18*
X33417Y-104872D02*
D03*
X35976D02*
D03*
X38535D02*
D03*
X41094D02*
D03*
X33417Y-88533D02*
D03*
X35976D02*
D03*
X38535D02*
D03*
X41094D02*
D03*
D19*
X231832Y-31857D02*
D03*
X229568D02*
D03*
D20*
X231832Y-33727D02*
D03*
X229568D02*
D03*
D21*
X230700Y-35400D02*
D03*
D22*
X128656Y-127279D02*
D03*
X164089Y-115469D02*
D03*
X164089Y-125311D02*
D03*
Y-119405D02*
D03*
Y-117437D02*
D03*
Y-121374D02*
D03*
Y-131217D02*
D03*
X128656Y-117437D02*
D03*
Y-123343D02*
D03*
X164089Y-113500D02*
D03*
X128656D02*
D03*
X164089Y-129248D02*
D03*
Y-127279D02*
D03*
Y-123343D02*
D03*
X128656Y-115469D02*
D03*
Y-121374D02*
D03*
Y-131217D02*
D03*
Y-125311D02*
D03*
Y-119405D02*
D03*
Y-129248D02*
D03*
D23*
Y-111138D02*
D03*
D24*
X164089D02*
D03*
Y-133579D02*
D03*
X128656D02*
D03*
D25*
X155231Y-140075D02*
D03*
X137514D02*
D03*
Y-104642D02*
D03*
X139483D02*
D03*
X141451D02*
D03*
X143420D02*
D03*
X145388D02*
D03*
X149325D02*
D03*
X151294D02*
D03*
X153262D02*
D03*
X151294Y-140075D02*
D03*
X139483D02*
D03*
X155231Y-104642D02*
D03*
X147357D02*
D03*
X153262Y-140075D02*
D03*
X145388D02*
D03*
X147357D02*
D03*
X143420D02*
D03*
X149325D02*
D03*
X141451D02*
D03*
D26*
X157593D02*
D03*
X135152Y-104642D02*
D03*
X157593D02*
D03*
X135152Y-140075D02*
D03*
D27*
X314487Y-136582D02*
D03*
Y-166504D02*
D03*
D28*
X303956Y-156618D02*
D03*
Y-146382D02*
D03*
Y-148941D02*
D03*
Y-154059D02*
D03*
Y-151500D02*
D03*
D29*
X274025Y-87523D02*
D03*
Y-98546D02*
D03*
X231892D02*
D03*
Y-93035D02*
D03*
Y-76499D02*
D03*
Y-65476D02*
D03*
Y-59964D02*
D03*
Y-70987D02*
D03*
Y-82011D02*
D03*
Y-87523D02*
D03*
X274025Y-76499D02*
D03*
Y-82011D02*
D03*
Y-93035D02*
D03*
D30*
X236423Y-104058D02*
D03*
X258470Y-54416D02*
D03*
X252958D02*
D03*
X236423D02*
D03*
X241935D02*
D03*
X247446D02*
D03*
X263982D02*
D03*
X241935Y-104058D02*
D03*
X247446D02*
D03*
X252958D02*
D03*
X258470D02*
D03*
X263982D02*
D03*
X269494D02*
D03*
D31*
X264376Y-79219D02*
D03*
X241541Y-65833D02*
D03*
X264376D02*
D03*
X252958D02*
D03*
X241541Y-79219D02*
D03*
X252958D02*
D03*
X241541Y-92605D02*
D03*
X264376D02*
D03*
X252958D02*
D03*
D32*
X284454Y-94376D02*
D03*
Y-103038D02*
D03*
Y-90046D02*
D03*
Y-85715D02*
D03*
Y-81384D02*
D03*
Y-77054D02*
D03*
Y-72723D02*
D03*
Y-68392D02*
D03*
Y-59731D02*
D03*
Y-55400D02*
D03*
X221856Y-98707D02*
D03*
Y-94376D02*
D03*
Y-90046D02*
D03*
Y-85715D02*
D03*
Y-81384D02*
D03*
Y-77054D02*
D03*
Y-72723D02*
D03*
Y-68392D02*
D03*
Y-64061D02*
D03*
Y-59731D02*
D03*
Y-55400D02*
D03*
Y-103038D02*
D03*
X284454Y-98707D02*
D03*
Y-64061D02*
D03*
D33*
X240163Y-114258D02*
D03*
X270478D02*
D03*
X266147D02*
D03*
X261816D02*
D03*
X257486D02*
D03*
X240163Y-44180D02*
D03*
X244494D02*
D03*
X248824D02*
D03*
X253155D02*
D03*
X257486D02*
D03*
X261816D02*
D03*
X266147D02*
D03*
X270478D02*
D03*
X235832Y-114258D02*
D03*
X244494D02*
D03*
X248824D02*
D03*
X253155D02*
D03*
X235832Y-44180D02*
D03*
D34*
X93667Y-165280D02*
D03*
X81856Y-161540D02*
D03*
Y-165280D02*
D03*
D35*
Y-157800D02*
D03*
D36*
X93667D02*
D03*
D37*
X183415Y-80142D02*
D03*
X180856Y-72858D02*
D03*
X183415D02*
D03*
X180856Y-80142D02*
D03*
X178297D02*
D03*
Y-72858D02*
D03*
D38*
X46256Y-190500D02*
D03*
X36413Y-186563D02*
D03*
X46256Y-182626D02*
D03*
X239000Y-23400D02*
D03*
X248843Y-27337D02*
D03*
X239000Y-31274D02*
D03*
X14100Y-148100D02*
D03*
X4258Y-144163D02*
D03*
X14100Y-140226D02*
D03*
D39*
X-18400Y-71956D02*
D03*
X-12494D02*
D03*
X70195Y-85800D02*
D03*
X76100D02*
D03*
X206700Y-19500D02*
D03*
X212606D02*
D03*
X206700Y-27500D02*
D03*
X212606D02*
D03*
X223694Y-26300D02*
D03*
X229600D02*
D03*
X235661Y-6800D02*
D03*
X229756D02*
D03*
X44424Y-77402D02*
D03*
X38519D02*
D03*
X-12600Y-79356D02*
D03*
X-18506D02*
D03*
D40*
X229756Y8000D02*
D03*
X288456Y7900D02*
D03*
D41*
X266056Y-29811D02*
D03*
Y-18000D02*
D03*
D42*
X86700Y-59200D02*
D03*
X63078D02*
D03*
X96956Y-139700D02*
D03*
X73334D02*
D03*
D43*
X14389Y-116900D02*
D03*
X26200D02*
D03*
X70217Y-77166D02*
D03*
X82028D02*
D03*
D45*
X193037Y6781D02*
G03*
X193037Y6781I-1772J0D01*
G01*
X159572D02*
G03*
X159572Y6781I-1772J0D01*
G01*
D51*
X-39500Y-199135D02*
Y17400D01*
Y-199135D02*
X326642D01*
Y17400D01*
X-39500D02*
X326642D01*
D52*
X139400Y-191200D02*
D03*
X149400D02*
D03*
X159400D02*
D03*
X83700Y-94200D02*
D03*
X74056Y-31800D02*
D03*
X64213D02*
D03*
X56339D02*
D03*
X46497D02*
D03*
X19000Y-161200D02*
D03*
X9000D02*
D03*
X19000Y-191200D02*
D03*
X-18944Y-164300D02*
D03*
Y-154300D02*
D03*
Y-144300D02*
D03*
D53*
X169400Y-191200D02*
D03*
X73700Y-94200D02*
D03*
D54*
X318768Y9526D02*
D03*
Y-191261D02*
D03*
X-31626D02*
D03*
Y9526D02*
D03*
D55*
X86261Y-20776D02*
D03*
X34292D02*
D03*
D56*
X306023Y-143626D02*
D03*
Y-159374D02*
D03*
D57*
X9000Y-191200D02*
D03*
X-18944Y-174300D02*
D03*
D58*
X235834Y-159500D02*
D03*
D59*
X259456D02*
D03*
D60*
X-17538Y-108000D02*
D03*
D61*
X-17144Y-98000D02*
D03*
D62*
X219520Y8787D02*
D03*
X239992D02*
D03*
X278220Y8687D02*
D03*
X298692D02*
D03*
M02*
