%FSLAX25Y25*%
%MOIN*%
G70*
G01*
G75*
%ADD10C,0.02000*%
%ADD11R,0.07874X0.07874*%
%ADD12R,0.03347X0.02756*%
%ADD13R,0.02756X0.08268*%
%ADD14R,0.02559X0.04843*%
%ADD15R,0.19685X0.05118*%
%ADD16R,0.04724X0.09843*%
%ADD17R,0.09843X0.05906*%
%ADD18O,0.01378X0.06890*%
%ADD19R,0.01378X0.01181*%
%ADD20R,0.01378X0.00984*%
%ADD21R,0.01181X0.01181*%
%ADD22O,0.04724X0.00984*%
%ADD23R,0.04724X0.01772*%
%ADD24O,0.04724X0.01772*%
%ADD25O,0.00984X0.04724*%
%ADD26O,0.01772X0.04724*%
%ADD27R,0.07480X0.05512*%
%ADD28R,0.05315X0.01654*%
%ADD29R,0.03937X0.03150*%
%ADD30R,0.03150X0.03937*%
%ADD31R,0.09843X0.11811*%
%ADD32O,0.07087X0.02362*%
%ADD33O,0.02362X0.07087*%
%ADD34O,0.03543X0.01969*%
%ADD35R,0.03543X0.01969*%
%ADD36O,0.03543X0.01969*%
%ADD37R,0.01575X0.03347*%
%ADD38R,0.03937X0.02362*%
%ADD39R,0.02756X0.03347*%
G04:AMPARAMS|DCode=40|XSize=35.43mil|YSize=157.48mil|CornerRadius=1.77mil|HoleSize=0mil|Usage=FLASHONLY|Rotation=0.000|XOffset=0mil|YOffset=0mil|HoleType=Round|Shape=RoundedRectangle|*
%AMROUNDEDRECTD40*
21,1,0.03543,0.15394,0,0,0.0*
21,1,0.03189,0.15748,0,0,0.0*
1,1,0.00354,0.01595,-0.07697*
1,1,0.00354,-0.01595,-0.07697*
1,1,0.00354,-0.01595,0.07697*
1,1,0.00354,0.01595,0.07697*
%
%ADD40ROUNDEDRECTD40*%
%ADD41R,0.05906X0.03937*%
%ADD42R,0.05118X0.19685*%
%ADD43R,0.03937X0.05906*%
%ADD44C,0.04000*%
%ADD45C,0.01000*%
%ADD46C,0.01500*%
%ADD47C,0.00800*%
%ADD48C,0.03000*%
%ADD49C,0.07000*%
%ADD50R,0.16830X0.03653*%
%ADD51C,0.00500*%
%ADD52C,0.05906*%
%ADD53R,0.05906X0.05906*%
%ADD54C,0.11811*%
%ADD55O,0.07874X0.15748*%
%ADD56C,0.03228*%
%ADD57R,0.05906X0.05906*%
%ADD58C,0.07874*%
%ADD59R,0.07874X0.07874*%
%ADD60O,0.11811X0.07874*%
%ADD61R,0.11811X0.07874*%
G04:AMPARAMS|DCode=62|XSize=51.18mil|YSize=173.23mil|CornerRadius=2.56mil|HoleSize=0mil|Usage=FLASHONLY|Rotation=0.000|XOffset=0mil|YOffset=0mil|HoleType=Round|Shape=RoundedRectangle|*
%AMROUNDEDRECTD62*
21,1,0.05118,0.16811,0,0,0.0*
21,1,0.04606,0.17323,0,0,0.0*
1,1,0.00512,0.02303,-0.08406*
1,1,0.00512,-0.02303,-0.08406*
1,1,0.00512,-0.02303,0.08406*
1,1,0.00512,0.02303,0.08406*
%
%ADD62ROUNDEDRECTD62*%
%ADD63C,0.03000*%
%ADD64C,0.04000*%
%ADD65C,0.02000*%
%ADD66C,0.06000*%
%ADD67R,0.03937X0.07087*%
%ADD68R,0.11811X0.08661*%
%ADD69C,0.00984*%
%ADD70C,0.02362*%
%ADD71C,0.00787*%
%ADD72C,0.00300*%
%ADD73C,0.00400*%
%ADD74C,0.00493*%
%ADD75C,0.00700*%
D45*
X175539Y-80200D02*
G03*
X175539Y-80200I-583J0D01*
G01*
X287015Y-159500D02*
G03*
X287015Y-159500I-39370J0D01*
G01*
X194656Y-38300D02*
Y11800D01*
X148556D02*
X194656D01*
X148556Y-38300D02*
Y11800D01*
Y-38300D02*
X194656D01*
X212606Y-57650D02*
Y-53150D01*
Y-57650D02*
X214856Y-55400D01*
X212606Y-53150D02*
X214856Y-55400D01*
X193037Y6781D02*
G03*
X193037Y6781I-1772J0D01*
G01*
X159572D02*
G03*
X159572Y6781I-1772J0D01*
G01*
D47*
X176525Y-77500D02*
Y-75500D01*
X185187D01*
Y-77500D02*
Y-75500D01*
X176525Y-77500D02*
X185187D01*
D51*
X138656Y-112500D02*
G03*
X138656Y-112500I-2000J0D01*
G01*
X85990Y-155438D02*
G03*
X89533Y-155438I1772J0D01*
G01*
X94718Y-126406D02*
Y-114594D01*
X68734D02*
X94718D01*
X68734Y-126406D02*
Y-114594D01*
Y-126406D02*
X94718D01*
X83694Y-124437D02*
Y-116563D01*
X79757Y-124437D02*
Y-116563D01*
Y-120500D02*
X83694Y-124437D01*
X79757Y-120500D02*
X83694Y-116563D01*
X68582Y-112406D02*
Y-100594D01*
Y-112406D02*
X94566D01*
Y-100594D01*
X68582D02*
X94566D01*
X79606Y-110437D02*
Y-102563D01*
X83543Y-110437D02*
Y-102563D01*
X79606D02*
X83543Y-106500D01*
X79606Y-110437D02*
X83543Y-106500D01*
X130591Y14587D02*
X131378Y15374D01*
X132756Y9567D02*
Y10945D01*
X134134Y9567D01*
X131378D02*
X132756Y10945D01*
X131378Y9567D02*
X134134D01*
X131378Y10945D02*
X134134D01*
X134134Y15374D02*
X134921Y14587D01*
X130591Y5531D02*
Y14587D01*
X131378Y15374D02*
X134134D01*
X134921Y5531D02*
Y14587D01*
X130591Y5531D02*
X134921D01*
X120691Y14587D02*
X121478Y15374D01*
X122856Y9567D02*
Y10945D01*
X124234Y9567D01*
X121478D02*
X122856Y10945D01*
X121478Y9567D02*
X124234D01*
X121478Y10945D02*
X124234D01*
X124234Y15374D02*
X125021Y14587D01*
X120691Y5531D02*
Y14587D01*
X121478Y15374D02*
X124234D01*
X125021Y5531D02*
Y14587D01*
X120691Y5531D02*
X125021D01*
X110791Y14587D02*
X111578Y15374D01*
X112956Y9567D02*
Y10945D01*
X114334Y9567D01*
X111578D02*
X112956Y10945D01*
X111578Y9567D02*
X114334D01*
X111578Y10945D02*
X114334D01*
X114334Y15374D02*
X115121Y14587D01*
X110791Y5531D02*
Y14587D01*
X111578Y15374D02*
X114334D01*
X115121Y5531D02*
Y14587D01*
X110791Y5531D02*
X115121D01*
X100891Y14587D02*
X101678Y15374D01*
X103056Y9567D02*
Y10945D01*
X104434Y9567D01*
X101678D02*
X103056Y10945D01*
X101678Y9567D02*
X104434D01*
X101678Y10945D02*
X104434D01*
X104434Y15374D02*
X105221Y14587D01*
X100891Y5531D02*
Y14587D01*
X101678Y15374D02*
X104434D01*
X105221Y5531D02*
Y14587D01*
X100891Y5531D02*
X105221D01*
X66759Y-92469D02*
X67169Y-92878D01*
X62321Y-92469D02*
X66759D01*
X305265Y-105774D02*
Y-95932D01*
X300935Y-105774D02*
Y-95932D01*
X305265D01*
X300935Y-105774D02*
X305265D01*
X298821Y-105874D02*
Y-96031D01*
X294491Y-105874D02*
Y-96031D01*
X298821D01*
X294491Y-105874D02*
X298821D01*
X-27927Y-64875D02*
X-25958Y-66843D01*
X-8242D02*
X-6273Y-64875D01*
X-27927Y-35347D02*
X-25958Y-33379D01*
Y-66843D02*
X-8242D01*
X-25958Y-33379D02*
X-8242D01*
X-6273Y-64875D02*
Y-35347D01*
X-27927Y-64875D02*
Y-35347D01*
X-8242Y-33379D02*
X-6273Y-35347D01*
X53206Y-65505D02*
Y-53694D01*
X27221D02*
X53206D01*
X27221Y-65505D02*
Y-53694D01*
Y-65505D02*
X53206D01*
X31188Y-39000D02*
X89456D01*
X31188D02*
Y16118D01*
X89456D01*
Y-39000D02*
Y16118D01*
X134561Y-108579D02*
X160152D01*
X132593Y-110547D02*
X134562Y-108579D01*
X132593Y-136138D02*
Y-110547D01*
X132593Y-136138D02*
X160152D01*
Y-108579D01*
X320656Y-135752D02*
X325609D01*
X321056Y-167300D02*
X325609D01*
X303956D02*
X307556D01*
X303956D02*
Y-165300D01*
Y-137721D02*
Y-135752D01*
X306956D01*
X325609Y-167300D02*
Y-135752D01*
X84218Y-167642D02*
Y-155438D01*
X91305D01*
X84218Y-167642D02*
X91305D01*
Y-155438D01*
X37988Y-192469D02*
X44287D01*
X37988Y-180657D02*
X44287D01*
Y-188335D02*
Y-184791D01*
X37988Y-192469D02*
Y-189516D01*
Y-183610D02*
Y-180657D01*
X-33286Y-103000D02*
X-9664D01*
X-33286Y-86189D02*
X-5727D01*
X-33286Y-119811D02*
X-5727D01*
X-33286D02*
Y-86189D01*
X-5727Y-119811D02*
Y-86189D01*
X-9664Y-119811D02*
Y-86189D01*
X-10526Y-74121D02*
Y-69791D01*
X-20369Y-74121D02*
Y-69791D01*
Y-74121D02*
X-10526D01*
X-20369Y-69791D02*
X-10526D01*
X263656Y-25400D02*
X268380D01*
X266018D02*
X268380Y-23038D01*
X263656D02*
X268380D01*
X263656D02*
X266018Y-25400D01*
X262513Y-15441D02*
X269599D01*
X262513Y-32500D02*
Y-15441D01*
Y-32500D02*
X269599D01*
Y-15441D01*
X89653Y-70027D02*
X91621Y-68058D01*
X60125Y-48373D02*
X89653D01*
X60125Y-70027D02*
X89653D01*
X91621Y-68058D02*
Y-50342D01*
X58157Y-68058D02*
Y-50342D01*
X89653Y-48373D02*
X91621Y-50342D01*
X58157Y-68058D02*
X60125Y-70027D01*
X58157Y-50342D02*
X60125Y-48373D01*
X68226Y-87178D02*
X69013Y-87965D01*
X68226Y-84422D02*
X69013Y-83635D01*
X77281D02*
X78069Y-84422D01*
X77281Y-87965D02*
X78069Y-87178D01*
X69013Y-87965D02*
X77281D01*
X78069Y-87178D02*
Y-84422D01*
X68226Y-87178D02*
Y-84422D01*
X69013Y-83635D02*
X77281D01*
X204731Y-21665D02*
Y-17335D01*
Y-21665D02*
X213787D01*
X214574Y-20878D02*
Y-18122D01*
X204731Y-17335D02*
X213787D01*
X213787Y-21665D02*
X214574Y-20878D01*
X210145Y-20878D02*
Y-18122D01*
X208767Y-20878D02*
Y-18122D01*
X210145Y-19500D01*
X208767Y-20878D02*
X210145Y-19500D01*
X208767D02*
X210145D01*
X213787Y-17335D02*
X214574Y-18122D01*
X150791Y-157426D02*
X155121D01*
X150791Y-167269D02*
X155121D01*
Y-157426D01*
X150791Y-167269D02*
Y-157426D01*
X171191Y-167269D02*
X175521D01*
X171191Y-157426D02*
X175521D01*
X171191Y-167269D02*
Y-157426D01*
X175521Y-167269D02*
Y-157426D01*
X157590Y-167269D02*
X161921D01*
X157590Y-157426D02*
X161921D01*
X157590Y-167269D02*
Y-157426D01*
X161921Y-167269D02*
Y-157426D01*
X117091Y-128113D02*
X117878Y-127326D01*
X120634D02*
X121421Y-128113D01*
X120634Y-137169D02*
X121421Y-136381D01*
X117091D02*
X117878Y-137169D01*
X117091Y-136381D02*
Y-128113D01*
X117878Y-137169D02*
X120634D01*
X117878Y-127326D02*
X120634D01*
X121421Y-136381D02*
Y-128113D01*
X151291Y-84813D02*
X152078Y-84026D01*
X154834D02*
X155621Y-84813D01*
X154834Y-93868D02*
X155621Y-93081D01*
X151291D02*
X152078Y-93868D01*
X151291Y-93081D02*
Y-84813D01*
X152078Y-93868D02*
X154834D01*
X152078Y-84026D02*
X154834D01*
X155621Y-93081D02*
Y-84813D01*
X113978Y-137174D02*
X114765Y-136387D01*
X110435D02*
X111222Y-137174D01*
X110435Y-128119D02*
X111222Y-127331D01*
X113978D02*
X114765Y-128119D01*
Y-136387D02*
Y-128119D01*
X111222Y-127331D02*
X113978D01*
X111222Y-137174D02*
X113978D01*
X110435Y-136387D02*
Y-128119D01*
X164391Y-157426D02*
X168721D01*
X164391Y-167269D02*
X168721D01*
Y-157426D01*
X164391Y-167269D02*
Y-157426D01*
X100935Y-10174D02*
X105265D01*
X100935Y-332D02*
X105265D01*
X100935Y-10174D02*
Y-332D01*
X105265Y-10174D02*
Y-332D01*
X110691Y-10174D02*
X115021D01*
X110691Y-332D02*
X115021D01*
X110691Y-10174D02*
Y-332D01*
X115021Y-10174D02*
Y-332D01*
X120591Y-10174D02*
X124921D01*
X120591Y-332D02*
X124921D01*
X120591Y-10174D02*
Y-332D01*
X124921Y-10174D02*
Y-332D01*
X115091Y-84813D02*
X115878Y-84026D01*
X118634D02*
X119421Y-84813D01*
X118634Y-93868D02*
X119421Y-93081D01*
X115091D02*
X115878Y-93868D01*
X115091Y-93081D02*
Y-84813D01*
X115878Y-93868D02*
X118634D01*
X115878Y-84026D02*
X118634D01*
X119421Y-93081D02*
Y-84813D01*
X130491Y-10174D02*
X134821D01*
X130491Y-332D02*
X134821D01*
X130491Y-10174D02*
Y-332D01*
X134821Y-10174D02*
Y-332D01*
X122331Y-84026D02*
X126661D01*
X122331Y-93868D02*
X126661D01*
Y-84026D01*
X122331Y-93868D02*
Y-84026D01*
X144051Y-93868D02*
X148381D01*
X144051Y-84026D02*
X148381D01*
X144051Y-93868D02*
Y-84026D01*
X148381Y-93868D02*
Y-84026D01*
X130391Y-157426D02*
X134721D01*
X130391Y-167269D02*
X134721D01*
Y-157426D01*
X130391Y-167269D02*
Y-157426D01*
X240968Y-21431D02*
X247268D01*
X240968Y-33242D02*
X247268D01*
X240968Y-29109D02*
Y-25565D01*
X247268Y-24384D02*
Y-21431D01*
Y-33242D02*
Y-30290D01*
X186391Y-133174D02*
X190721D01*
X186391Y-123331D02*
X190721D01*
X186391Y-133174D02*
Y-123331D01*
X190721Y-133174D02*
Y-123331D01*
X129571Y-93868D02*
X133901D01*
X129571Y-84026D02*
X133901D01*
X129571Y-93868D02*
Y-84026D01*
X133901Y-93868D02*
Y-84026D01*
X143991Y-157426D02*
X148321D01*
X143991Y-167269D02*
X148321D01*
Y-157426D01*
X143991Y-167269D02*
Y-157426D01*
X179091Y-123226D02*
X183421D01*
X179091Y-133069D02*
X183421D01*
Y-123226D01*
X179091Y-133069D02*
Y-123226D01*
X136811Y-84026D02*
X141141D01*
X136811Y-93868D02*
X141141D01*
Y-84026D01*
X136811Y-93868D02*
Y-84026D01*
X137191Y-167269D02*
X141521D01*
X137191Y-157426D02*
X141521D01*
X137191Y-167269D02*
Y-157426D01*
X141521Y-167269D02*
Y-157426D01*
X272791Y-22613D02*
X273578Y-21826D01*
X276334D02*
X277121Y-22613D01*
X276334Y-31668D02*
X277121Y-30881D01*
X272791D02*
X273578Y-31668D01*
X272791Y-30881D02*
Y-22613D01*
X273578Y-31668D02*
X276334D01*
X273578Y-21826D02*
X276334D01*
X277121Y-30881D02*
Y-22613D01*
X279391Y-22513D02*
X280178Y-21726D01*
X282934D02*
X283721Y-22513D01*
X282934Y-31569D02*
X283721Y-30781D01*
X279391D02*
X280178Y-31569D01*
X279391Y-30781D02*
Y-22513D01*
X280178Y-31569D02*
X282934D01*
X280178Y-21726D02*
X282934D01*
X283721Y-30781D02*
Y-22513D01*
X214574Y-29665D02*
Y-25335D01*
X204731Y-29665D02*
Y-25335D01*
Y-29665D02*
X214574D01*
X204731Y-25335D02*
X214574D01*
X176135Y-96974D02*
X180465D01*
X176135Y-87132D02*
X180465D01*
X176135Y-96974D02*
Y-87132D01*
X180465Y-96974D02*
Y-87132D01*
X196590Y-52619D02*
X197378Y-51832D01*
X200134D02*
X200921Y-52619D01*
X200134Y-61674D02*
X200921Y-60887D01*
X196590D02*
X197378Y-61674D01*
X196590Y-60887D02*
Y-52619D01*
X197378Y-61674D02*
X200134D01*
X197378Y-51832D02*
X200134D01*
X200921Y-60887D02*
Y-52619D01*
X181824D02*
X182611Y-51832D01*
X185367D02*
X186155Y-52619D01*
X185367Y-61674D02*
X186155Y-60887D01*
X181824D02*
X182611Y-61674D01*
X181824Y-60887D02*
Y-52619D01*
X182611Y-61674D02*
X185367D01*
X182611Y-51832D02*
X185367D01*
X186155Y-60887D02*
Y-52619D01*
X174441Y-61674D02*
X178771D01*
X174441Y-51832D02*
X178771D01*
X174441Y-61674D02*
Y-51832D01*
X178771Y-61674D02*
Y-51832D01*
X189207Y-61674D02*
X193538D01*
X189207Y-51832D02*
X193538D01*
X189207Y-61674D02*
Y-51832D01*
X193538Y-61674D02*
Y-51832D01*
X167057Y-61674D02*
X171388D01*
X167057Y-51832D02*
X171388D01*
X167057Y-61674D02*
Y-51832D01*
X171388Y-61674D02*
Y-51832D01*
X152291Y-52619D02*
X153078Y-51832D01*
X155834D02*
X156621Y-52619D01*
X155834Y-61674D02*
X156621Y-60887D01*
X152291D02*
X153078Y-61674D01*
X152291Y-60887D02*
Y-52619D01*
X153078Y-61674D02*
X155834D01*
X153078Y-51832D02*
X155834D01*
X156621Y-60887D02*
Y-52619D01*
X159674D02*
X160461Y-51832D01*
X163217D02*
X164005Y-52619D01*
X163217Y-61674D02*
X164005Y-60887D01*
X159674D02*
X160461Y-61674D01*
X159674Y-60887D02*
Y-52619D01*
X160461Y-61674D02*
X163217D01*
X160461Y-51832D02*
X163217D01*
X164005Y-60887D02*
Y-52619D01*
X221726Y-27678D02*
X222513Y-28465D01*
X221726Y-24922D02*
X222513Y-24135D01*
X230781D02*
X231569Y-24922D01*
X230781Y-28465D02*
X231569Y-27678D01*
X222513Y-28465D02*
X230781D01*
X231569Y-27678D02*
Y-24922D01*
X221726Y-27678D02*
Y-24922D01*
X222513Y-24135D02*
X230781D01*
X236842Y-4635D02*
X237630Y-5422D01*
X236842Y-8965D02*
X237630Y-8178D01*
X227787D02*
X228575Y-8965D01*
X227787Y-5422D02*
X228575Y-4635D01*
X236842D01*
X227787Y-8178D02*
Y-5422D01*
X237630Y-8178D02*
Y-5422D01*
X228575Y-8965D02*
X236842D01*
X227435Y-11226D02*
X231765D01*
X227435Y-21068D02*
X231765D01*
Y-11226D01*
X227435Y-21068D02*
Y-11226D01*
X36550Y-79568D02*
Y-75237D01*
X46393Y-79568D02*
Y-75237D01*
X36550D02*
X46393D01*
X36550Y-79568D02*
X46393D01*
X99909Y-150527D02*
X101877Y-148558D01*
X70381Y-128873D02*
X99909D01*
X70381Y-150527D02*
X99909D01*
X101877Y-148558D02*
Y-130842D01*
X68413Y-148558D02*
Y-130842D01*
X99909Y-128873D02*
X101877Y-130842D01*
X68413Y-148558D02*
X70381Y-150527D01*
X68413Y-130842D02*
X70381Y-128873D01*
X18800Y-119224D02*
Y-114500D01*
Y-116862D02*
X21162Y-119224D01*
Y-114500D01*
X18800Y-116862D02*
X21162Y-114500D01*
X28759Y-120443D02*
Y-113357D01*
X11700D02*
X28759D01*
X11700Y-120443D02*
Y-113357D01*
Y-120443D02*
X28759D01*
X61534Y-105674D02*
X62321Y-104887D01*
X60156Y-101245D02*
Y-99867D01*
X58778D02*
X60156Y-101245D01*
X61534Y-99867D01*
X58778D02*
X61534D01*
X58778Y-101245D02*
X61534D01*
X57991Y-104887D02*
X58778Y-105674D01*
X62321Y-104887D02*
Y-95832D01*
X58778Y-105674D02*
X61534D01*
X57991Y-104887D02*
Y-95832D01*
X62321D01*
X54412Y-105707D02*
X55199Y-104920D01*
X53034Y-101278D02*
Y-99900D01*
X51656D02*
X53034Y-101278D01*
X54412Y-99900D01*
X51656D02*
X54412D01*
X51656Y-101278D02*
X54412D01*
X50868Y-104920D02*
X51656Y-105707D01*
X55199Y-104920D02*
Y-95865D01*
X51656Y-105707D02*
X54412D01*
X50868Y-104920D02*
Y-95865D01*
X55199D01*
X-20474Y-81521D02*
Y-77191D01*
X-10632Y-81521D02*
Y-77191D01*
X-20474D02*
X-10632D01*
X-20474Y-81521D02*
X-10632D01*
X57991Y-82626D02*
X62321D01*
X57991Y-92469D02*
X62321D01*
Y-82626D01*
X57991Y-92469D02*
Y-82626D01*
X50769Y-82659D02*
X55099D01*
X50769Y-92502D02*
X55099D01*
Y-82659D01*
X50769Y-92502D02*
Y-82659D01*
X55090Y-192074D02*
X59421D01*
X55090Y-182231D02*
X59421D01*
X55090Y-192074D02*
Y-182231D01*
X59421Y-192074D02*
Y-182231D01*
X74628Y-79490D02*
Y-74766D01*
Y-77128D02*
X76990Y-79490D01*
Y-74766D01*
X74628Y-77128D02*
X76990Y-74766D01*
X84587Y-80709D02*
Y-73623D01*
X67528D02*
X84587D01*
X67528Y-80709D02*
Y-73623D01*
Y-80709D02*
X84587D01*
X5832Y-150068D02*
X12132D01*
X5832Y-138258D02*
X12132D01*
Y-145935D02*
Y-142391D01*
X5832Y-150068D02*
Y-147116D01*
Y-141210D02*
Y-138258D01*
X21535Y-138326D02*
X25865D01*
X21535Y-148169D02*
X25865D01*
Y-138326D01*
X21535Y-148169D02*
Y-138326D01*
X74634Y-165774D02*
X75421Y-164987D01*
X71091D02*
X71878Y-165774D01*
X71091Y-156719D02*
X71878Y-155931D01*
X74634D02*
X75421Y-156719D01*
Y-164987D02*
Y-156719D01*
X71878Y-155931D02*
X74634D01*
X71878Y-165774D02*
X74634D01*
X71091Y-164987D02*
Y-156719D01*
X32173Y-166753D02*
X34142Y-168721D01*
X53827Y-166753D02*
Y-137225D01*
X32173Y-166753D02*
Y-137225D01*
X34142Y-168721D02*
X51858D01*
X34142Y-135257D02*
X51858D01*
Y-168721D02*
X53827Y-166753D01*
X32173Y-137225D02*
X34142Y-135257D01*
X51858D02*
X53827Y-137225D01*
X23058Y-76279D02*
X25027Y-78247D01*
X3373Y-107775D02*
Y-78247D01*
X25027Y-107775D02*
Y-78247D01*
X5342Y-76279D02*
X23058D01*
X5342Y-109743D02*
X23058D01*
X3373Y-78247D02*
X5342Y-76279D01*
X23058Y-109743D02*
X25027Y-107775D01*
X3373D02*
X5342Y-109743D01*
X-9309Y-172026D02*
X-4979D01*
X-9309Y-181869D02*
X-4979D01*
Y-172026D01*
X-9309Y-181869D02*
Y-172026D01*
X100235Y-156613D02*
X101022Y-155826D01*
X103778D02*
X104565Y-156613D01*
X103778Y-165668D02*
X104565Y-164881D01*
X100235D02*
X101022Y-165668D01*
X100235Y-164881D02*
Y-156613D01*
X101022Y-165668D02*
X103778D01*
X101022Y-155826D02*
X103778D01*
X104565Y-164881D02*
Y-156613D01*
X111378Y-165674D02*
X112165Y-164887D01*
X107835D02*
X108622Y-165674D01*
X107835Y-156619D02*
X108622Y-155832D01*
X111378D02*
X112165Y-156619D01*
Y-164887D02*
Y-156619D01*
X108622Y-155832D02*
X111378D01*
X108622Y-165674D02*
X111378D01*
X107835Y-164887D02*
Y-156619D01*
X98100Y-118501D02*
Y-122500D01*
X100099D01*
X100766Y-121834D01*
Y-119168D01*
X100099Y-118501D01*
X98100D01*
X102099Y-119168D02*
X102765Y-118501D01*
X104098D01*
X104764Y-119168D01*
Y-119834D01*
X104098Y-120501D01*
X104764Y-121167D01*
Y-121834D01*
X104098Y-122500D01*
X102765D01*
X102099Y-121834D01*
Y-121167D01*
X102765Y-120501D01*
X102099Y-119834D01*
Y-119168D01*
X102765Y-120501D02*
X104098D01*
X98300Y-105401D02*
Y-109400D01*
X100299D01*
X100966Y-108733D01*
Y-106068D01*
X100299Y-105401D01*
X98300D01*
X102299D02*
X104964D01*
Y-106068D01*
X102299Y-108733D01*
Y-109400D01*
X131050Y-195550D02*
X127051D01*
Y-193551D01*
X127718Y-192884D01*
X129051D01*
X129717Y-193551D01*
Y-195550D01*
X131050Y-191551D02*
Y-190218D01*
Y-190885D01*
X127051D01*
X127718Y-191551D01*
X-12000Y-13001D02*
Y-15667D01*
X-10667Y-17000D01*
X-9334Y-15667D01*
Y-13001D01*
X-8001Y-17000D02*
X-6668D01*
X-7335D01*
Y-13001D01*
X-8001Y-13668D01*
X-4669Y-17000D02*
Y-16333D01*
X-4003D01*
Y-17000D01*
X-4669D01*
X-1337Y-13668D02*
X-670Y-13001D01*
X663D01*
X1329Y-13668D01*
Y-16333D01*
X663Y-17000D01*
X-670D01*
X-1337Y-16333D01*
Y-13668D01*
X-25434Y-2268D02*
X-26101Y-1601D01*
X-27434D01*
X-28100Y-2268D01*
Y-2934D01*
X-27434Y-3601D01*
X-26101D01*
X-25434Y-4267D01*
Y-4934D01*
X-26101Y-5600D01*
X-27434D01*
X-28100Y-4934D01*
X-24101Y-5600D02*
Y-2934D01*
X-23435D01*
X-22768Y-3601D01*
Y-5600D01*
Y-3601D01*
X-22102Y-2934D01*
X-21436Y-3601D01*
Y-5600D01*
X-19436Y-2934D02*
X-18103D01*
X-17437Y-3601D01*
Y-5600D01*
X-19436D01*
X-20103Y-4934D01*
X-19436Y-4267D01*
X-17437D01*
X-16104Y-2934D02*
Y-5600D01*
Y-4267D01*
X-15437Y-3601D01*
X-14771Y-2934D01*
X-14105D01*
X-11439Y-2268D02*
Y-2934D01*
X-12105D01*
X-10772D01*
X-11439D01*
Y-4934D01*
X-10772Y-5600D01*
X-4774Y-1601D02*
Y-5600D01*
X-2775D01*
X-2108Y-4934D01*
Y-4267D01*
X-2775Y-3601D01*
X-4774D01*
X-2775D01*
X-2108Y-2934D01*
Y-2268D01*
X-2775Y-1601D01*
X-4774D01*
X-109Y-5600D02*
X1224D01*
X1890Y-4934D01*
Y-3601D01*
X1224Y-2934D01*
X-109D01*
X-776Y-3601D01*
Y-4934D01*
X-109Y-5600D01*
X3223Y-2934D02*
X5889Y-5600D01*
X4556Y-4267D01*
X5889Y-2934D01*
X3223Y-5600D01*
X261399Y-127800D02*
X258400D01*
Y-129299D01*
X258900Y-129799D01*
X259400D01*
X259899Y-129299D01*
Y-127800D01*
Y-129299D01*
X260399Y-129799D01*
X260899D01*
X261399Y-129299D01*
Y-127800D01*
Y-130799D02*
Y-132798D01*
Y-131799D01*
X258400D01*
X-32101Y-142501D02*
X-34100D01*
Y-144000D01*
X-33100D01*
X-34100D01*
Y-145500D01*
X-31101Y-142501D02*
Y-145500D01*
X-29601D01*
X-29102Y-145000D01*
Y-144500D01*
X-29601Y-144000D01*
X-31101D01*
X-29601D01*
X-29102Y-143501D01*
Y-143001D01*
X-29601Y-142501D01*
X-31101D01*
X-32901Y-152601D02*
X-33400Y-152101D01*
X-34400D01*
X-34900Y-152601D01*
Y-154600D01*
X-34400Y-155100D01*
X-33400D01*
X-32901Y-154600D01*
Y-153601D01*
X-33900D01*
X-31901Y-155100D02*
Y-152101D01*
X-29902Y-155100D01*
Y-152101D01*
X-28902D02*
Y-155100D01*
X-27402D01*
X-26903Y-154600D01*
Y-152601D01*
X-27402Y-152101D01*
X-28902D01*
X-35200Y-162901D02*
Y-164900D01*
X-34200Y-165900D01*
X-33201Y-164900D01*
Y-162901D01*
X-30202Y-163401D02*
X-30701Y-162901D01*
X-31701D01*
X-32201Y-163401D01*
Y-165400D01*
X-31701Y-165900D01*
X-30701D01*
X-30202Y-165400D01*
X-27203Y-163401D02*
X-27702Y-162901D01*
X-28702D01*
X-29202Y-163401D01*
Y-165400D01*
X-28702Y-165900D01*
X-27702D01*
X-27203Y-165400D01*
X-33301Y-173101D02*
X-33801Y-172601D01*
X-34800D01*
X-35300Y-173101D01*
Y-175100D01*
X-34800Y-175600D01*
X-33801D01*
X-33301Y-175100D01*
Y-174100D01*
X-34300D01*
X-32301Y-175600D02*
Y-172601D01*
X-30302Y-175600D01*
Y-172601D01*
X-29302D02*
Y-175600D01*
X-27802D01*
X-27303Y-175100D01*
Y-173101D01*
X-27802Y-172601D01*
X-29302D01*
X177300Y-190701D02*
X177800Y-190201D01*
X178799D01*
X179299Y-190701D01*
Y-191201D01*
X178799Y-191700D01*
X178300D01*
X178799D01*
X179299Y-192200D01*
Y-192700D01*
X178799Y-193200D01*
X177800D01*
X177300Y-192700D01*
X180299Y-190201D02*
Y-192200D01*
X181299Y-193200D01*
X182298Y-192200D01*
Y-190201D01*
X-1201Y-97900D02*
Y-99899D01*
X-201Y-98900D02*
X-2200D01*
X-39500Y-199135D02*
Y17400D01*
Y-199135D02*
X326642D01*
Y17400D01*
X-39500D02*
X326642D01*
D69*
X44441Y-88533D02*
G03*
X44441Y-88533I-492J0D01*
G01*
X4374Y-191200D02*
G03*
X4374Y-191200I-492J0D01*
G01*
D70*
X9079Y-182696D02*
G03*
X9079Y-182696I-1181J0D01*
G01*
D71*
X3961Y-178700D02*
G03*
X3961Y-173700I0J2500D01*
G01*
X174400Y-196200D02*
Y-186200D01*
X134400Y-196200D02*
X174400D01*
X134400Y-186200D02*
X174400D01*
X134400Y-196200D02*
Y-186200D01*
X88700Y-99200D02*
Y-89200D01*
X68700Y-99200D02*
X88700D01*
X68700D02*
Y-89200D01*
X88700D01*
X31154Y-99852D02*
Y-93553D01*
X43358Y-99852D02*
Y-93553D01*
X31154Y-99852D02*
X43358D01*
X31154Y-93553D02*
X43358D01*
X24039Y-186633D02*
Y-165767D01*
X3961Y-173700D02*
Y-165767D01*
Y-186633D02*
Y-178700D01*
Y-165767D02*
X24039D01*
X3961Y-186633D02*
X24039D01*
X-23944Y-139300D02*
X-13944D01*
Y-179300D02*
Y-139300D01*
X-23944Y-179300D02*
Y-139300D01*
Y-179300D02*
X-13944D01*
D72*
X228900Y-35800D02*
Y-31469D01*
Y-35800D02*
X232443D01*
X228900Y-31469D02*
X232443D01*
Y-35800D02*
Y-31469D01*
D73*
X222250Y-113865D02*
Y-103000D01*
Y-48573D01*
X284061Y-113865D02*
Y-44573D01*
X222250Y-113865D02*
X284061D01*
X226250Y-44573D02*
X284061D01*
X222250Y-48573D02*
X226250Y-44573D01*
D74*
X270556Y-160300D02*
Y-157100D01*
X269156Y-158800D02*
X271956D01*
D75*
X-19768Y-23935D02*
X-20601Y-23102D01*
X-22267D01*
X-23100Y-23935D01*
Y-27267D01*
X-22267Y-28100D01*
X-20601D01*
X-19768Y-27267D01*
X-14769Y-28100D02*
X-18102D01*
X-14769Y-24768D01*
Y-23935D01*
X-15602Y-23102D01*
X-17269D01*
X-18102Y-23935D01*
X-9771Y-28100D02*
X-13103D01*
X-9771Y-24768D01*
Y-23935D01*
X-10604Y-23102D01*
X-12270D01*
X-13103Y-23935D01*
X49598Y-93600D02*
X45433D01*
X44600Y-94433D01*
Y-96099D01*
X45433Y-96932D01*
X49598D01*
X44600Y-98598D02*
Y-100265D01*
Y-99431D01*
X49598D01*
X48765Y-98598D01*
X224200Y-37402D02*
Y-41567D01*
X225033Y-42400D01*
X226699D01*
X227532Y-41567D01*
Y-37402D01*
X232531D02*
X230865Y-38235D01*
X229198Y-39901D01*
Y-41567D01*
X230031Y-42400D01*
X231698D01*
X232531Y-41567D01*
Y-40734D01*
X231698Y-39901D01*
X229198D01*
X55600Y-2502D02*
Y-6667D01*
X56433Y-7500D01*
X58099D01*
X58932Y-6667D01*
Y-2502D01*
X63931Y-3335D02*
X63098Y-2502D01*
X61431D01*
X60598Y-3335D01*
Y-4168D01*
X61431Y-5001D01*
X63098D01*
X63931Y-5834D01*
Y-6667D01*
X63098Y-7500D01*
X61431D01*
X60598Y-6667D01*
X65597Y-2502D02*
Y-7500D01*
X68096D01*
X68929Y-6667D01*
Y-5834D01*
X68096Y-5001D01*
X65597D01*
X68096D01*
X68929Y-4168D01*
Y-3335D01*
X68096Y-2502D01*
X65597D01*
X70595Y-7500D02*
X72261D01*
X71428D01*
Y-2502D01*
X70595Y-3335D01*
X144000Y-146302D02*
Y-150467D01*
X144833Y-151300D01*
X146499D01*
X147332Y-150467D01*
Y-146302D01*
X151498Y-151300D02*
Y-146302D01*
X148998Y-148801D01*
X152331D01*
X324906Y-177648D02*
Y-173483D01*
X324073Y-172650D01*
X322407D01*
X321574Y-173483D01*
Y-177648D01*
X316575Y-176815D02*
X317408Y-177648D01*
X319075D01*
X319907Y-176815D01*
Y-175982D01*
X319075Y-175149D01*
X317408D01*
X316575Y-174316D01*
Y-173483D01*
X317408Y-172650D01*
X319075D01*
X319907Y-173483D01*
X314909Y-177648D02*
Y-172650D01*
X312410D01*
X311577Y-173483D01*
Y-174316D01*
X312410Y-175149D01*
X314909D01*
X312410D01*
X311577Y-175982D01*
Y-176815D01*
X312410Y-177648D01*
X314909D01*
X30898Y-172500D02*
X26733D01*
X25900Y-173333D01*
Y-174999D01*
X26733Y-175832D01*
X30898D01*
X26733Y-177498D02*
X25900Y-178331D01*
Y-179998D01*
X26733Y-180831D01*
X30065D01*
X30898Y-179998D01*
Y-178331D01*
X30065Y-177498D01*
X29232D01*
X28399Y-178331D01*
Y-180831D01*
X293000Y-45302D02*
Y-49467D01*
X293833Y-50300D01*
X295499D01*
X296332Y-49467D01*
Y-45302D01*
X297998D02*
X301331D01*
Y-46135D01*
X297998Y-49467D01*
Y-50300D01*
X83000Y-169802D02*
Y-173967D01*
X83833Y-174800D01*
X85499D01*
X86332Y-173967D01*
Y-169802D01*
X91331D02*
X87998D01*
Y-172301D01*
X89665Y-171468D01*
X90498D01*
X91331Y-172301D01*
Y-173967D01*
X90498Y-174800D01*
X88831D01*
X87998Y-173967D01*
X193598Y-72500D02*
X189433D01*
X188600Y-73333D01*
Y-74999D01*
X189433Y-75832D01*
X193598D01*
X188600Y-80831D02*
Y-77498D01*
X191932Y-80831D01*
X192765D01*
X193598Y-79998D01*
Y-78331D01*
X192765Y-77498D01*
X166932Y-24535D02*
X166099Y-23702D01*
X164433D01*
X163600Y-24535D01*
Y-25368D01*
X164433Y-26201D01*
X166099D01*
X166932Y-27034D01*
Y-27867D01*
X166099Y-28700D01*
X164433D01*
X163600Y-27867D01*
X168598Y-23702D02*
X170264D01*
X169431D01*
Y-28700D01*
X168598D01*
X170264D01*
X172764D02*
Y-23702D01*
X174430Y-25368D01*
X176096Y-23702D01*
Y-28700D01*
X177762D02*
X179428D01*
X178595D01*
Y-23702D01*
X177762Y-24535D01*
X242332Y-145435D02*
X241499Y-144602D01*
X239833D01*
X239000Y-145435D01*
Y-146268D01*
X239833Y-147101D01*
X241499D01*
X242332Y-147934D01*
Y-148767D01*
X241499Y-149600D01*
X239833D01*
X239000Y-148767D01*
X247331Y-145435D02*
X246498Y-144602D01*
X244831D01*
X243998Y-145435D01*
Y-148767D01*
X244831Y-149600D01*
X246498D01*
X247331Y-148767D01*
X248997Y-149600D02*
X250663D01*
X249830D01*
Y-144602D01*
X248997Y-145435D01*
X301200Y-110200D02*
X306198D01*
Y-112699D01*
X305365Y-113532D01*
X303699D01*
X302866Y-112699D01*
Y-110200D01*
Y-111866D02*
X301200Y-113532D01*
X302033Y-115198D02*
X301200Y-116031D01*
Y-117698D01*
X302033Y-118531D01*
X305365D01*
X306198Y-117698D01*
Y-116031D01*
X305365Y-115198D01*
X304532D01*
X303699Y-116031D01*
Y-118531D01*
X33032Y-194967D02*
Y-191635D01*
X32199Y-190802D01*
X30533D01*
X29700Y-191635D01*
Y-194967D01*
X30533Y-195800D01*
X32199D01*
X31366Y-194134D02*
X33032Y-195800D01*
X32199D02*
X33032Y-194967D01*
X34698Y-195800D02*
X36364D01*
X35531D01*
Y-190802D01*
X34698Y-191635D01*
X-32700Y-128400D02*
Y-123402D01*
X-30201D01*
X-29368Y-124235D01*
Y-125901D01*
X-30201Y-126734D01*
X-32700D01*
X-27702Y-124235D02*
X-26869Y-123402D01*
X-25202D01*
X-24369Y-124235D01*
Y-125068D01*
X-25202Y-125901D01*
X-26035D01*
X-25202D01*
X-24369Y-126734D01*
Y-127567D01*
X-25202Y-128400D01*
X-26869D01*
X-27702Y-127567D01*
X90700Y-96900D02*
Y-91902D01*
X93199D01*
X94032Y-92735D01*
Y-94401D01*
X93199Y-95234D01*
X90700D01*
X98198Y-96900D02*
Y-91902D01*
X95698Y-94401D01*
X99031D01*
X-38200Y-73600D02*
Y-68602D01*
X-34868Y-73600D01*
Y-68602D01*
X-33202D02*
X-29869D01*
X-31536D01*
Y-73600D01*
X-24871Y-69435D02*
X-25704Y-68602D01*
X-27370D01*
X-28203Y-69435D01*
Y-72767D01*
X-27370Y-73600D01*
X-25704D01*
X-24871Y-72767D01*
X-23205Y-73600D02*
X-21539D01*
X-22372D01*
Y-68602D01*
X-23205Y-69435D01*
X249932Y12165D02*
X249099Y12998D01*
X247433D01*
X246600Y12165D01*
Y8833D01*
X247433Y8000D01*
X249099D01*
X249932Y8833D01*
Y10499D01*
X248266D01*
X251598Y8000D02*
Y12998D01*
X254931Y8000D01*
Y12998D01*
X259929Y12165D02*
X259096Y12998D01*
X257430D01*
X256597Y12165D01*
Y11332D01*
X257430Y10499D01*
X259096D01*
X259929Y9666D01*
Y8833D01*
X259096Y8000D01*
X257430D01*
X256597Y8833D01*
X264927Y12165D02*
X264094Y12998D01*
X262428D01*
X261595Y12165D01*
Y11332D01*
X262428Y10499D01*
X264094D01*
X264927Y9666D01*
Y8833D01*
X264094Y8000D01*
X262428D01*
X261595Y8833D01*
X268098Y-4200D02*
X263100D01*
Y-6699D01*
X263933Y-7532D01*
X267265D01*
X268098Y-6699D01*
Y-4200D01*
X263100Y-11698D02*
X268098D01*
X265599Y-9198D01*
Y-12531D01*
X97232Y-57935D02*
X96399Y-57102D01*
X94733D01*
X93900Y-57935D01*
Y-61267D01*
X94733Y-62100D01*
X96399D01*
X97232Y-61267D01*
X102231Y-62100D02*
X98898D01*
X102231Y-58768D01*
Y-57935D01*
X101398Y-57102D01*
X99731D01*
X98898Y-57935D01*
X83932Y-84935D02*
X83099Y-84102D01*
X81433D01*
X80600Y-84935D01*
Y-88267D01*
X81433Y-89100D01*
X83099D01*
X83932Y-88267D01*
X85598Y-89100D02*
X87265D01*
X86431D01*
Y-84102D01*
X85598Y-84935D01*
X199700Y4700D02*
X204698D01*
X199700Y1368D01*
X204698D01*
Y-3631D02*
Y-298D01*
X199700D01*
Y-3631D01*
X202199Y-298D02*
Y-1964D01*
X204698Y-5297D02*
Y-8629D01*
Y-6963D01*
X199700D01*
X204698Y-13627D02*
Y-10295D01*
X202199D01*
X203032Y-11961D01*
Y-12794D01*
X202199Y-13627D01*
X200533D01*
X199700Y-12794D01*
Y-11128D01*
X200533Y-10295D01*
X220932Y-17835D02*
X220099Y-17002D01*
X218433D01*
X217600Y-17835D01*
Y-21167D01*
X218433Y-22000D01*
X220099D01*
X220932Y-21167D01*
X222598Y-17835D02*
X223431Y-17002D01*
X225098D01*
X225931Y-17835D01*
Y-18668D01*
X225098Y-19501D01*
X224265D01*
X225098D01*
X225931Y-20334D01*
Y-21167D01*
X225098Y-22000D01*
X223431D01*
X222598Y-21167D01*
X99865Y-44432D02*
X100698Y-43599D01*
Y-41933D01*
X99865Y-41100D01*
X96533D01*
X95700Y-41933D01*
Y-43599D01*
X96533Y-44432D01*
X95700Y-48598D02*
X100698D01*
X98199Y-46098D01*
Y-49431D01*
X106765Y-44532D02*
X107598Y-43699D01*
Y-42033D01*
X106765Y-41200D01*
X103433D01*
X102600Y-42033D01*
Y-43699D01*
X103433Y-44532D01*
X107598Y-49531D02*
Y-46198D01*
X105099D01*
X105932Y-47864D01*
Y-48698D01*
X105099Y-49531D01*
X103433D01*
X102600Y-48698D01*
Y-47031D01*
X103433Y-46198D01*
X145665Y-45532D02*
X146498Y-44699D01*
Y-43033D01*
X145665Y-42200D01*
X142333D01*
X141500Y-43033D01*
Y-44699D01*
X142333Y-45532D01*
X146498Y-50531D02*
X145665Y-48864D01*
X143999Y-47198D01*
X142333D01*
X141500Y-48031D01*
Y-49698D01*
X142333Y-50531D01*
X143166D01*
X143999Y-49698D01*
Y-47198D01*
X129165Y-45432D02*
X129998Y-44599D01*
Y-42933D01*
X129165Y-42100D01*
X125833D01*
X125000Y-42933D01*
Y-44599D01*
X125833Y-45432D01*
X129998Y-47098D02*
Y-50431D01*
X129165D01*
X125833Y-47098D01*
X125000D01*
X116265Y-71532D02*
X117098Y-70699D01*
Y-69033D01*
X116265Y-68200D01*
X112933D01*
X112100Y-69033D01*
Y-70699D01*
X112933Y-71532D01*
X116265Y-73198D02*
X117098Y-74031D01*
Y-75698D01*
X116265Y-76531D01*
X115432D01*
X114599Y-75698D01*
X113766Y-76531D01*
X112933D01*
X112100Y-75698D01*
Y-74031D01*
X112933Y-73198D01*
X113766D01*
X114599Y-74031D01*
X115432Y-73198D01*
X116265D01*
X114599Y-74031D02*
Y-75698D01*
X113565Y-143132D02*
X114398Y-142299D01*
Y-140633D01*
X113565Y-139800D01*
X110233D01*
X109400Y-140633D01*
Y-142299D01*
X110233Y-143132D01*
Y-144798D02*
X109400Y-145631D01*
Y-147298D01*
X110233Y-148131D01*
X113565D01*
X114398Y-147298D01*
Y-145631D01*
X113565Y-144798D01*
X112732D01*
X111899Y-145631D01*
Y-148131D01*
X243232Y-4535D02*
X242399Y-3702D01*
X240733D01*
X239900Y-4535D01*
Y-7867D01*
X240733Y-8700D01*
X242399D01*
X243232Y-7867D01*
X244898Y-8700D02*
X246565D01*
X245731D01*
Y-3702D01*
X244898Y-4535D01*
X249064D02*
X249897Y-3702D01*
X251563D01*
X252396Y-4535D01*
Y-7867D01*
X251563Y-8700D01*
X249897D01*
X249064Y-7867D01*
Y-4535D01*
X276565Y-9232D02*
X277398Y-8399D01*
Y-6733D01*
X276565Y-5900D01*
X273233D01*
X272400Y-6733D01*
Y-8399D01*
X273233Y-9232D01*
X272400Y-10898D02*
Y-12564D01*
Y-11731D01*
X277398D01*
X276565Y-10898D01*
X272400Y-18396D02*
Y-15064D01*
X275732Y-18396D01*
X276565D01*
X277398Y-17563D01*
Y-15897D01*
X276565Y-15064D01*
X155765Y-71632D02*
X156598Y-70799D01*
Y-69133D01*
X155765Y-68300D01*
X152433D01*
X151600Y-69133D01*
Y-70799D01*
X152433Y-71632D01*
X151600Y-73298D02*
Y-74964D01*
Y-74131D01*
X156598D01*
X155765Y-73298D01*
Y-77464D02*
X156598Y-78297D01*
Y-79963D01*
X155765Y-80796D01*
X154932D01*
X154099Y-79963D01*
Y-79130D01*
Y-79963D01*
X153266Y-80796D01*
X152433D01*
X151600Y-79963D01*
Y-78297D01*
X152433Y-77464D01*
X122065Y-142532D02*
X122898Y-141699D01*
Y-140033D01*
X122065Y-139200D01*
X118733D01*
X117900Y-140033D01*
Y-141699D01*
X118733Y-142532D01*
X117900Y-144198D02*
Y-145864D01*
Y-145031D01*
X122898D01*
X122065Y-144198D01*
X117900Y-150863D02*
X122898D01*
X120399Y-148364D01*
Y-151696D01*
X284765Y-8632D02*
X285598Y-7799D01*
Y-6133D01*
X284765Y-5300D01*
X281433D01*
X280600Y-6133D01*
Y-7799D01*
X281433Y-8632D01*
X280600Y-10298D02*
Y-11964D01*
Y-11131D01*
X285598D01*
X284765Y-10298D01*
X285598Y-17796D02*
Y-14464D01*
X283099D01*
X283932Y-16130D01*
Y-16963D01*
X283099Y-17796D01*
X281433D01*
X280600Y-16963D01*
Y-15297D01*
X281433Y-14464D01*
X10232Y-69135D02*
X9399Y-68302D01*
X7733D01*
X6900Y-69135D01*
Y-72467D01*
X7733Y-73300D01*
X9399D01*
X10232Y-72467D01*
X11898Y-73300D02*
X13565D01*
X12731D01*
Y-68302D01*
X11898Y-69135D01*
X19396Y-68302D02*
X17730Y-69135D01*
X16064Y-70801D01*
Y-72467D01*
X16897Y-73300D01*
X18563D01*
X19396Y-72467D01*
Y-71634D01*
X18563Y-70801D01*
X16064D01*
X65965Y-160132D02*
X66798Y-159299D01*
Y-157633D01*
X65965Y-156800D01*
X62633D01*
X61800Y-157633D01*
Y-159299D01*
X62633Y-160132D01*
X61800Y-161798D02*
Y-163464D01*
Y-162631D01*
X66798D01*
X65965Y-161798D01*
X66798Y-165964D02*
Y-169296D01*
X65965D01*
X62633Y-165964D01*
X61800D01*
X112165Y-171932D02*
X112998Y-171099D01*
Y-169433D01*
X112165Y-168600D01*
X108833D01*
X108000Y-169433D01*
Y-171099D01*
X108833Y-171932D01*
X108000Y-173598D02*
Y-175265D01*
Y-174431D01*
X112998D01*
X112165Y-173598D01*
Y-177764D02*
X112998Y-178597D01*
Y-180263D01*
X112165Y-181096D01*
X111332D01*
X110499Y-180263D01*
X109666Y-181096D01*
X108833D01*
X108000Y-180263D01*
Y-178597D01*
X108833Y-177764D01*
X109666D01*
X110499Y-178597D01*
X111332Y-177764D01*
X112165D01*
X110499Y-178597D02*
Y-180263D01*
X103065Y-171232D02*
X103898Y-170399D01*
Y-168733D01*
X103065Y-167900D01*
X99733D01*
X98900Y-168733D01*
Y-170399D01*
X99733Y-171232D01*
X98900Y-172898D02*
Y-174565D01*
Y-173731D01*
X103898D01*
X103065Y-172898D01*
X99733Y-177064D02*
X98900Y-177897D01*
Y-179563D01*
X99733Y-180396D01*
X103065D01*
X103898Y-179563D01*
Y-177897D01*
X103065Y-177064D01*
X102232D01*
X101399Y-177897D01*
Y-180396D01*
X36282Y-127885D02*
X35449Y-127052D01*
X33783D01*
X32950Y-127885D01*
Y-131217D01*
X33783Y-132050D01*
X35449D01*
X36282Y-131217D01*
X41281Y-132050D02*
X37948D01*
X41281Y-128718D01*
Y-127885D01*
X40448Y-127052D01*
X38781D01*
X37948Y-127885D01*
X42947D02*
X43780Y-127052D01*
X45446D01*
X46279Y-127885D01*
Y-131217D01*
X45446Y-132050D01*
X43780D01*
X42947Y-131217D01*
Y-127885D01*
X59432Y-138735D02*
X58599Y-137902D01*
X56933D01*
X56100Y-138735D01*
Y-142067D01*
X56933Y-142900D01*
X58599D01*
X59432Y-142067D01*
X64431Y-142900D02*
X61098D01*
X64431Y-139568D01*
Y-138735D01*
X63598Y-137902D01*
X61931D01*
X61098Y-138735D01*
X66097Y-142900D02*
X67763D01*
X66930D01*
Y-137902D01*
X66097Y-138735D01*
X62798Y-108300D02*
X57800D01*
Y-110799D01*
X58633Y-111632D01*
X61965D01*
X62798Y-110799D01*
Y-108300D01*
X57800Y-113298D02*
Y-114964D01*
Y-114131D01*
X62798D01*
X61965Y-113298D01*
X53698Y-108200D02*
X48700D01*
Y-110699D01*
X49533Y-111532D01*
X52865D01*
X53698Y-110699D01*
Y-108200D01*
X48700Y-116531D02*
Y-113198D01*
X52032Y-116531D01*
X52865D01*
X53698Y-115698D01*
Y-114031D01*
X52865Y-113198D01*
X87500Y-75502D02*
Y-80500D01*
X89999D01*
X90832Y-79667D01*
Y-76335D01*
X89999Y-75502D01*
X87500D01*
X95831D02*
X92498D01*
Y-78001D01*
X94165Y-77168D01*
X94998D01*
X95831Y-78001D01*
Y-79667D01*
X94998Y-80500D01*
X93331D01*
X92498Y-79667D01*
X-400Y-115102D02*
Y-120100D01*
X2099D01*
X2932Y-119267D01*
Y-115935D01*
X2099Y-115102D01*
X-400D01*
X7931D02*
X6265Y-115935D01*
X4598Y-117601D01*
Y-119267D01*
X5431Y-120100D01*
X7098D01*
X7931Y-119267D01*
Y-118434D01*
X7098Y-117601D01*
X4598D01*
X307032Y-2535D02*
X306199Y-1702D01*
X304533D01*
X303700Y-2535D01*
Y-5867D01*
X304533Y-6700D01*
X306199D01*
X307032Y-5867D01*
Y-4201D01*
X305366D01*
X312031Y-2535D02*
X311198Y-1702D01*
X309531D01*
X308698Y-2535D01*
Y-3368D01*
X309531Y-4201D01*
X311198D01*
X312031Y-5034D01*
Y-5867D01*
X311198Y-6700D01*
X309531D01*
X308698Y-5867D01*
X313697Y-6700D02*
Y-1702D01*
X315363Y-3368D01*
X317029Y-1702D01*
Y-6700D01*
X-23294Y-135950D02*
Y-130952D01*
X-20795D01*
X-19962Y-131785D01*
Y-133451D01*
X-20795Y-134284D01*
X-23294D01*
X-14964Y-135950D02*
X-18296D01*
X-14964Y-132618D01*
Y-131785D01*
X-15797Y-130952D01*
X-17463D01*
X-18296Y-131785D01*
X7432Y-134767D02*
Y-131435D01*
X6599Y-130602D01*
X4933D01*
X4100Y-131435D01*
Y-134767D01*
X4933Y-135600D01*
X6599D01*
X5766Y-133934D02*
X7432Y-135600D01*
X6599D02*
X7432Y-134767D01*
X9098Y-131435D02*
X9931Y-130602D01*
X11598D01*
X12431Y-131435D01*
Y-132268D01*
X11598Y-133101D01*
X10764D01*
X11598D01*
X12431Y-133934D01*
Y-134767D01*
X11598Y-135600D01*
X9931D01*
X9098Y-134767D01*
X243232Y-18067D02*
Y-14735D01*
X242399Y-13902D01*
X240733D01*
X239900Y-14735D01*
Y-18067D01*
X240733Y-18900D01*
X242399D01*
X241566Y-17234D02*
X243232Y-18900D01*
X242399D02*
X243232Y-18067D01*
X248231Y-13902D02*
X244898D01*
Y-16401D01*
X246565Y-15568D01*
X247398D01*
X248231Y-16401D01*
Y-18067D01*
X247398Y-18900D01*
X245731D01*
X244898Y-18067D01*
X129600Y-14300D02*
X134598D01*
Y-16799D01*
X133765Y-17632D01*
X132099D01*
X131266Y-16799D01*
Y-14300D01*
Y-15966D02*
X129600Y-17632D01*
Y-19298D02*
Y-20965D01*
Y-20131D01*
X134598D01*
X133765Y-19298D01*
X110100Y-41600D02*
X115098D01*
Y-44099D01*
X114265Y-44932D01*
X112599D01*
X111766Y-44099D01*
Y-41600D01*
Y-43266D02*
X110100Y-44932D01*
Y-49931D02*
Y-46598D01*
X113432Y-49931D01*
X114265D01*
X115098Y-49098D01*
Y-47431D01*
X114265Y-46598D01*
X133000Y-42000D02*
X137998D01*
Y-44499D01*
X137165Y-45332D01*
X135499D01*
X134666Y-44499D01*
Y-42000D01*
Y-43666D02*
X133000Y-45332D01*
X137165Y-46998D02*
X137998Y-47831D01*
Y-49498D01*
X137165Y-50331D01*
X136332D01*
X135499Y-49498D01*
Y-48665D01*
Y-49498D01*
X134666Y-50331D01*
X133833D01*
X133000Y-49498D01*
Y-47831D01*
X133833Y-46998D01*
X117700Y-41800D02*
X122698D01*
Y-44299D01*
X121865Y-45132D01*
X120199D01*
X119366Y-44299D01*
Y-41800D01*
Y-43466D02*
X117700Y-45132D01*
Y-49298D02*
X122698D01*
X120199Y-46798D01*
Y-50131D01*
X164500Y-170300D02*
X169498D01*
Y-172799D01*
X168665Y-173632D01*
X166999D01*
X166166Y-172799D01*
Y-170300D01*
Y-171966D02*
X164500Y-173632D01*
X169498Y-178631D02*
Y-175298D01*
X166999D01*
X167832Y-176964D01*
Y-177798D01*
X166999Y-178631D01*
X165333D01*
X164500Y-177798D01*
Y-176131D01*
X165333Y-175298D01*
X171900Y-170300D02*
X176898D01*
Y-172799D01*
X176065Y-173632D01*
X174399D01*
X173566Y-172799D01*
Y-170300D01*
Y-171966D02*
X171900Y-173632D01*
X176898Y-178631D02*
X176065Y-176964D01*
X174399Y-175298D01*
X172733D01*
X171900Y-176131D01*
Y-177798D01*
X172733Y-178631D01*
X173566D01*
X174399Y-177798D01*
Y-175298D01*
X119500Y-68300D02*
X124498D01*
Y-70799D01*
X123665Y-71632D01*
X121999D01*
X121166Y-70799D01*
Y-68300D01*
Y-69966D02*
X119500Y-71632D01*
X124498Y-73298D02*
Y-76631D01*
X123665D01*
X120333Y-73298D01*
X119500D01*
X120100Y-14600D02*
X125098D01*
Y-17099D01*
X124265Y-17932D01*
X122599D01*
X121766Y-17099D01*
Y-14600D01*
Y-16266D02*
X120100Y-17932D01*
X124265Y-19598D02*
X125098Y-20431D01*
Y-22098D01*
X124265Y-22931D01*
X123432D01*
X122599Y-22098D01*
X121766Y-22931D01*
X120933D01*
X120100Y-22098D01*
Y-20431D01*
X120933Y-19598D01*
X121766D01*
X122599Y-20431D01*
X123432Y-19598D01*
X124265D01*
X122599Y-20431D02*
Y-22098D01*
X294200Y-109500D02*
X299198D01*
Y-111999D01*
X298365Y-112832D01*
X296699D01*
X295866Y-111999D01*
Y-109500D01*
Y-111166D02*
X294200Y-112832D01*
Y-114498D02*
Y-116165D01*
Y-115331D01*
X299198D01*
X298365Y-114498D01*
Y-118664D02*
X299198Y-119497D01*
Y-121163D01*
X298365Y-121996D01*
X295033D01*
X294200Y-121163D01*
Y-119497D01*
X295033Y-118664D01*
X298365D01*
X143000Y-68200D02*
X147998D01*
Y-70699D01*
X147165Y-71532D01*
X145499D01*
X144666Y-70699D01*
Y-68200D01*
Y-69866D02*
X143000Y-71532D01*
Y-73198D02*
Y-74865D01*
Y-74031D01*
X147998D01*
X147165Y-73198D01*
X143000Y-77364D02*
Y-79030D01*
Y-78197D01*
X147998D01*
X147165Y-77364D01*
X111400Y-14800D02*
X116398D01*
Y-17299D01*
X115565Y-18132D01*
X113899D01*
X113066Y-17299D01*
Y-14800D01*
Y-16466D02*
X111400Y-18132D01*
Y-19798D02*
Y-21464D01*
Y-20631D01*
X116398D01*
X115565Y-19798D01*
X111400Y-27296D02*
Y-23964D01*
X114732Y-27296D01*
X115565D01*
X116398Y-26463D01*
Y-24797D01*
X115565Y-23964D01*
X101400Y-15300D02*
X106398D01*
Y-17799D01*
X105565Y-18632D01*
X103899D01*
X103066Y-17799D01*
Y-15300D01*
Y-16966D02*
X101400Y-18632D01*
Y-20298D02*
Y-21964D01*
Y-21131D01*
X106398D01*
X105565Y-20298D01*
Y-24464D02*
X106398Y-25297D01*
Y-26963D01*
X105565Y-27796D01*
X104732D01*
X103899Y-26963D01*
Y-26130D01*
Y-26963D01*
X103066Y-27796D01*
X102233D01*
X101400Y-26963D01*
Y-25297D01*
X102233Y-24464D01*
X157300Y-170300D02*
X162298D01*
Y-172799D01*
X161465Y-173632D01*
X159799D01*
X158966Y-172799D01*
Y-170300D01*
Y-171966D02*
X157300Y-173632D01*
Y-175298D02*
Y-176964D01*
Y-176131D01*
X162298D01*
X161465Y-175298D01*
X157300Y-181963D02*
X162298D01*
X159799Y-179464D01*
Y-182796D01*
X150900Y-169900D02*
X155898D01*
Y-172399D01*
X155065Y-173232D01*
X153399D01*
X152566Y-172399D01*
Y-169900D01*
Y-171566D02*
X150900Y-173232D01*
Y-174898D02*
Y-176565D01*
Y-175731D01*
X155898D01*
X155065Y-174898D01*
X155898Y-182396D02*
Y-179064D01*
X153399D01*
X154232Y-180730D01*
Y-181563D01*
X153399Y-182396D01*
X151733D01*
X150900Y-181563D01*
Y-179897D01*
X151733Y-179064D01*
X-9500Y-184300D02*
X-4502D01*
Y-186799D01*
X-5335Y-187632D01*
X-7001D01*
X-7834Y-186799D01*
Y-184300D01*
Y-185966D02*
X-9500Y-187632D01*
Y-189298D02*
Y-190964D01*
Y-190131D01*
X-4502D01*
X-5335Y-189298D01*
X-4502Y-196796D02*
X-5335Y-195130D01*
X-7001Y-193464D01*
X-8667D01*
X-9500Y-194297D01*
Y-195963D01*
X-8667Y-196796D01*
X-7834D01*
X-7001Y-195963D01*
Y-193464D01*
X213500Y-14900D02*
Y-9902D01*
X215999D01*
X216832Y-10735D01*
Y-12401D01*
X215999Y-13234D01*
X213500D01*
X215166D02*
X216832Y-14900D01*
X218498D02*
X220164D01*
X219331D01*
Y-9902D01*
X218498Y-10735D01*
X222664Y-9902D02*
X225996D01*
Y-10735D01*
X222664Y-14067D01*
Y-14900D01*
X176200Y-100200D02*
X181198D01*
Y-102699D01*
X180365Y-103532D01*
X178699D01*
X177866Y-102699D01*
Y-100200D01*
Y-101866D02*
X176200Y-103532D01*
Y-105198D02*
Y-106865D01*
Y-106031D01*
X181198D01*
X180365Y-105198D01*
Y-109364D02*
X181198Y-110197D01*
Y-111863D01*
X180365Y-112696D01*
X179532D01*
X178699Y-111863D01*
X177866Y-112696D01*
X177033D01*
X176200Y-111863D01*
Y-110197D01*
X177033Y-109364D01*
X177866D01*
X178699Y-110197D01*
X179532Y-109364D01*
X180365D01*
X178699Y-110197D02*
Y-111863D01*
X202300Y-38100D02*
Y-33102D01*
X204799D01*
X205632Y-33935D01*
Y-35601D01*
X204799Y-36434D01*
X202300D01*
X203966D02*
X205632Y-38100D01*
X207298D02*
X208964D01*
X208131D01*
Y-33102D01*
X207298Y-33935D01*
X211464Y-37267D02*
X212297Y-38100D01*
X213963D01*
X214796Y-37267D01*
Y-33935D01*
X213963Y-33102D01*
X212297D01*
X211464Y-33935D01*
Y-34768D01*
X212297Y-35601D01*
X214796D01*
X134500Y-68300D02*
X139498D01*
Y-70799D01*
X138665Y-71632D01*
X136999D01*
X136166Y-70799D01*
Y-68300D01*
Y-69966D02*
X134500Y-71632D01*
Y-76631D02*
Y-73298D01*
X137832Y-76631D01*
X138665D01*
X139498Y-75798D01*
Y-74131D01*
X138665Y-73298D01*
Y-78297D02*
X139498Y-79130D01*
Y-80796D01*
X138665Y-81629D01*
X135333D01*
X134500Y-80796D01*
Y-79130D01*
X135333Y-78297D01*
X138665D01*
X137200Y-169500D02*
X142198D01*
Y-171999D01*
X141365Y-172832D01*
X139699D01*
X138866Y-171999D01*
Y-169500D01*
Y-171166D02*
X137200Y-172832D01*
Y-177831D02*
Y-174498D01*
X140532Y-177831D01*
X141365D01*
X142198Y-176998D01*
Y-175331D01*
X141365Y-174498D01*
X137200Y-179497D02*
Y-181163D01*
Y-180330D01*
X142198D01*
X141365Y-179497D01*
X177700Y-135400D02*
X182698D01*
Y-137899D01*
X181865Y-138732D01*
X180199D01*
X179366Y-137899D01*
Y-135400D01*
Y-137066D02*
X177700Y-138732D01*
Y-143731D02*
Y-140398D01*
X181032Y-143731D01*
X181865D01*
X182698Y-142898D01*
Y-141231D01*
X181865Y-140398D01*
X177700Y-148729D02*
Y-145397D01*
X181032Y-148729D01*
X181865D01*
X182698Y-147896D01*
Y-146230D01*
X181865Y-145397D01*
X126900Y-68300D02*
X131898D01*
Y-70799D01*
X131065Y-71632D01*
X129399D01*
X128566Y-70799D01*
Y-68300D01*
Y-69966D02*
X126900Y-71632D01*
Y-76631D02*
Y-73298D01*
X130232Y-76631D01*
X131065D01*
X131898Y-75798D01*
Y-74131D01*
X131065Y-73298D01*
Y-78297D02*
X131898Y-79130D01*
Y-80796D01*
X131065Y-81629D01*
X130232D01*
X129399Y-80796D01*
Y-79963D01*
Y-80796D01*
X128566Y-81629D01*
X127733D01*
X126900Y-80796D01*
Y-79130D01*
X127733Y-78297D01*
X144100Y-169700D02*
X149098D01*
Y-172199D01*
X148265Y-173032D01*
X146599D01*
X145766Y-172199D01*
Y-169700D01*
Y-171366D02*
X144100Y-173032D01*
Y-178031D02*
Y-174698D01*
X147432Y-178031D01*
X148265D01*
X149098Y-177198D01*
Y-175531D01*
X148265Y-174698D01*
X144100Y-182196D02*
X149098D01*
X146599Y-179697D01*
Y-183029D01*
X186400Y-135200D02*
X191398D01*
Y-137699D01*
X190565Y-138532D01*
X188899D01*
X188066Y-137699D01*
Y-135200D01*
Y-136866D02*
X186400Y-138532D01*
Y-143531D02*
Y-140198D01*
X189732Y-143531D01*
X190565D01*
X191398Y-142698D01*
Y-141031D01*
X190565Y-140198D01*
X191398Y-148529D02*
Y-145197D01*
X188899D01*
X189732Y-146863D01*
Y-147696D01*
X188899Y-148529D01*
X187233D01*
X186400Y-147696D01*
Y-146030D01*
X187233Y-145197D01*
X128800Y-168800D02*
X133798D01*
Y-171299D01*
X132965Y-172132D01*
X131299D01*
X130466Y-171299D01*
Y-168800D01*
Y-170466D02*
X128800Y-172132D01*
Y-177131D02*
Y-173798D01*
X132132Y-177131D01*
X132965D01*
X133798Y-176298D01*
Y-174631D01*
X132965Y-173798D01*
X133798Y-182129D02*
X132965Y-180463D01*
X131299Y-178797D01*
X129633D01*
X128800Y-179630D01*
Y-181296D01*
X129633Y-182129D01*
X130466D01*
X131299Y-181296D01*
Y-178797D01*
X31000Y-49900D02*
Y-44902D01*
X33499D01*
X34332Y-45735D01*
Y-47401D01*
X33499Y-48234D01*
X31000D01*
X32666D02*
X34332Y-49900D01*
X39331D02*
X35998D01*
X39331Y-46568D01*
Y-45735D01*
X38498Y-44902D01*
X36831D01*
X35998Y-45735D01*
X40997Y-44902D02*
X44329D01*
Y-45735D01*
X40997Y-49067D01*
Y-49900D01*
X21500Y-122300D02*
X26498D01*
Y-124799D01*
X25665Y-125632D01*
X23999D01*
X23166Y-124799D01*
Y-122300D01*
Y-123966D02*
X21500Y-125632D01*
Y-130631D02*
Y-127298D01*
X24832Y-130631D01*
X25665D01*
X26498Y-129798D01*
Y-128131D01*
X25665Y-127298D01*
Y-132297D02*
X26498Y-133130D01*
Y-134796D01*
X25665Y-135629D01*
X24832D01*
X23999Y-134796D01*
X23166Y-135629D01*
X22333D01*
X21500Y-134796D01*
Y-133130D01*
X22333Y-132297D01*
X23166D01*
X23999Y-133130D01*
X24832Y-132297D01*
X25665D01*
X23999Y-133130D02*
Y-134796D01*
X61800Y-179200D02*
X66798D01*
Y-181699D01*
X65965Y-182532D01*
X64299D01*
X63466Y-181699D01*
Y-179200D01*
Y-180866D02*
X61800Y-182532D01*
Y-187531D02*
Y-184198D01*
X65132Y-187531D01*
X65965D01*
X66798Y-186698D01*
Y-185031D01*
X65965Y-184198D01*
X62633Y-189197D02*
X61800Y-190030D01*
Y-191696D01*
X62633Y-192529D01*
X65965D01*
X66798Y-191696D01*
Y-190030D01*
X65965Y-189197D01*
X65132D01*
X64299Y-190030D01*
Y-192529D01*
X56300Y-67600D02*
X61298D01*
Y-70099D01*
X60465Y-70932D01*
X58799D01*
X57966Y-70099D01*
Y-67600D01*
Y-69266D02*
X56300Y-70932D01*
X60465Y-72598D02*
X61298Y-73431D01*
Y-75098D01*
X60465Y-75931D01*
X59632D01*
X58799Y-75098D01*
Y-74265D01*
Y-75098D01*
X57966Y-75931D01*
X57133D01*
X56300Y-75098D01*
Y-73431D01*
X57133Y-72598D01*
X60465Y-77597D02*
X61298Y-78430D01*
Y-80096D01*
X60465Y-80929D01*
X57133D01*
X56300Y-80096D01*
Y-78430D01*
X57133Y-77597D01*
X60465D01*
X49200Y-69400D02*
X54198D01*
Y-71899D01*
X53365Y-72732D01*
X51699D01*
X50866Y-71899D01*
Y-69400D01*
Y-71066D02*
X49200Y-72732D01*
X53365Y-74398D02*
X54198Y-75231D01*
Y-76898D01*
X53365Y-77731D01*
X52532D01*
X51699Y-76898D01*
Y-76064D01*
Y-76898D01*
X50866Y-77731D01*
X50033D01*
X49200Y-76898D01*
Y-75231D01*
X50033Y-74398D01*
X49200Y-79397D02*
Y-81063D01*
Y-80230D01*
X54198D01*
X53365Y-79397D01*
X-36700Y-81100D02*
Y-76102D01*
X-34201D01*
X-33368Y-76935D01*
Y-78601D01*
X-34201Y-79434D01*
X-36700D01*
X-35034D02*
X-33368Y-81100D01*
X-31702Y-76935D02*
X-30869Y-76102D01*
X-29202D01*
X-28369Y-76935D01*
Y-77768D01*
X-29202Y-78601D01*
X-30035D01*
X-29202D01*
X-28369Y-79434D01*
Y-80267D01*
X-29202Y-81100D01*
X-30869D01*
X-31702Y-80267D01*
X-23371Y-81100D02*
X-26703D01*
X-23371Y-77768D01*
Y-76935D01*
X-24204Y-76102D01*
X-25870D01*
X-26703Y-76935D01*
X32000Y-72600D02*
Y-67602D01*
X34499D01*
X35332Y-68435D01*
Y-70101D01*
X34499Y-70934D01*
X32000D01*
X33666D02*
X35332Y-72600D01*
X36998Y-68435D02*
X37831Y-67602D01*
X39498D01*
X40331Y-68435D01*
Y-69268D01*
X39498Y-70101D01*
X38664D01*
X39498D01*
X40331Y-70934D01*
Y-71767D01*
X39498Y-72600D01*
X37831D01*
X36998Y-71767D01*
X41997Y-68435D02*
X42830Y-67602D01*
X44496D01*
X45329Y-68435D01*
Y-69268D01*
X44496Y-70101D01*
X43663D01*
X44496D01*
X45329Y-70934D01*
Y-71767D01*
X44496Y-72600D01*
X42830D01*
X41997Y-71767D01*
M02*
