%FSLAX25Y25*%
%MOIN*%
G70*
G01*
G75*
G04 Layer_Color=128*
%ADD10C,0.01000*%
%ADD11C,0.01500*%
%ADD12C,0.02000*%
%ADD13R,0.02362X0.03937*%
%ADD14R,0.03347X0.02756*%
%ADD15R,0.02756X0.03347*%
%ADD16R,0.03150X0.03937*%
%ADD17R,0.06000X0.07874*%
%ADD18R,0.03150X0.07000*%
%ADD19R,0.03937X0.03150*%
%ADD20R,0.09843X0.11811*%
%ADD21O,0.07087X0.02362*%
%ADD22O,0.02362X0.07087*%
%ADD23C,0.01200*%
%ADD24C,0.00800*%
%ADD25R,0.12700X0.10700*%
%ADD26R,0.06900X0.08800*%
%ADD27C,0.00500*%
%ADD28C,0.05906*%
%ADD29R,0.05906X0.05906*%
%ADD30C,0.02000*%
%ADD31C,0.04000*%
%ADD32R,0.11811X0.08661*%
%ADD33R,0.02559X0.04843*%
%ADD34R,0.02756X0.08268*%
%ADD35R,0.01575X0.03347*%
%ADD36R,0.05906X0.03937*%
%ADD37R,0.12100X0.10500*%
%ADD38R,0.22700X0.10400*%
%ADD39R,0.10900X0.05300*%
%ADD40R,0.07200X0.31400*%
%ADD41C,0.00400*%
%ADD42R,0.03162X0.04737*%
%ADD43R,0.04147X0.03556*%
%ADD44R,0.03556X0.04147*%
%ADD45R,0.03950X0.04737*%
%ADD46R,0.06800X0.08674*%
%ADD47R,0.03950X0.07800*%
%ADD48R,0.04737X0.03950*%
%ADD49R,0.10642X0.12611*%
%ADD50O,0.07887X0.03162*%
%ADD51O,0.03162X0.07887*%
%ADD52C,0.06706*%
%ADD53R,0.06706X0.06706*%
%ADD54C,0.02800*%
%ADD55R,0.12611X0.09461*%
%ADD56R,0.03359X0.05643*%
%ADD57R,0.03556X0.09068*%
%ADD58R,0.02375X0.04147*%
%ADD59R,0.06706X0.04737*%
D14*
X31800Y-45006D02*
D03*
Y-39100D02*
D03*
X52100Y-46200D02*
D03*
Y-40295D02*
D03*
X35914Y-21800D02*
D03*
Y-15894D02*
D03*
X49300Y-21600D02*
D03*
Y-15695D02*
D03*
X43000Y-15700D02*
D03*
Y-21606D02*
D03*
X23029Y-21800D02*
D03*
Y-15894D02*
D03*
X29471Y-15894D02*
D03*
Y-21800D02*
D03*
X16586Y-21800D02*
D03*
Y-15894D02*
D03*
X3700Y-21800D02*
D03*
Y-15894D02*
D03*
X10143Y-15894D02*
D03*
Y-21800D02*
D03*
D15*
X40300Y-33100D02*
D03*
X46205D02*
D03*
D27*
X0Y0D02*
X102362D01*
X0Y-118110D02*
Y0D01*
Y-118110D02*
X102362D01*
Y0D01*
D32*
X89500Y-19600D02*
D03*
Y-45191D02*
D03*
D33*
X26900Y-59200D02*
D03*
X30640D02*
D03*
X55640D02*
D03*
X50640D02*
D03*
X45640D02*
D03*
X40640D02*
D03*
X35640D02*
D03*
D34*
X62215Y-65558D02*
D03*
Y-112802D02*
D03*
X11073Y-65558D02*
D03*
Y-112802D02*
D03*
D35*
X45359Y-38958D02*
D03*
X42800Y-46242D02*
D03*
X45359D02*
D03*
X42800Y-38958D02*
D03*
X40241D02*
D03*
Y-46242D02*
D03*
D36*
X65800Y-15200D02*
D03*
Y-27011D02*
D03*
M02*
