%FSLAX25Y25*%
%MOIN*%
G70*
G01*
G75*
G04 Layer_Color=16711935*
%ADD10C,0.01000*%
%ADD11C,0.00800*%
%ADD12C,0.02000*%
%ADD13C,0.01500*%
%ADD14R,0.07874X0.09843*%
%ADD15R,0.03937X0.02362*%
%ADD16R,0.02756X0.03347*%
%ADD17R,0.03347X0.02756*%
%ADD18R,0.02362X0.03937*%
%ADD19R,0.09843X0.07874*%
%ADD20R,0.03150X0.03000*%
%ADD21R,0.01102X0.02618*%
%ADD22R,0.02618X0.01102*%
%ADD23R,0.08425X0.08425*%
%ADD24R,0.05118X0.03937*%
%ADD25R,0.07087X0.03937*%
%ADD26R,0.13780X0.04724*%
%ADD27R,0.10630X0.03937*%
%ADD28C,0.04000*%
%ADD29R,0.10400X0.19500*%
%ADD30R,0.29800X0.09500*%
%ADD31R,0.09700X0.12600*%
%ADD32R,0.21700X0.08200*%
%ADD33R,0.14400X0.15700*%
%ADD34R,0.31850X0.07800*%
%ADD35R,0.22100X0.07800*%
%ADD36R,0.09250X0.32500*%
%ADD37R,0.35100X0.09500*%
%ADD38R,0.13950X0.24700*%
%ADD39R,0.15400X0.30700*%
%ADD40R,0.11100X0.37200*%
%ADD41R,0.43600X0.19500*%
%ADD42R,0.55200X0.21700*%
%ADD43R,0.28700X0.30200*%
%ADD44R,0.23100X0.37800*%
%ADD45R,0.46700X0.47800*%
%ADD46R,0.48000X1.67000*%
%ADD47R,0.40000X0.63500*%
%ADD48R,2.47000X0.34000*%
%ADD49R,0.27000X0.39600*%
%ADD50R,0.32000X0.43000*%
%ADD51R,0.28000X0.46000*%
%ADD52C,0.00600*%
%ADD53C,0.05906*%
%ADD54R,0.05906X0.05906*%
%ADD55R,0.04724X0.06299*%
%ADD56O,0.04724X0.06299*%
%ADD57C,0.23622*%
%ADD58R,0.05906X0.05906*%
%ADD59C,0.19685*%
%ADD60C,0.03000*%
%ADD61C,0.02000*%
%ADD62C,0.05500*%
%ADD63R,0.03000X0.04000*%
%ADD64R,0.04000X0.03000*%
%ADD65R,0.04331X0.04724*%
%ADD66R,0.12992X0.09843*%
%ADD67R,0.03543X0.02126*%
%ADD68R,0.01969X0.06299*%
%ADD69R,0.14410X0.07874*%
%ADD70R,0.14410X0.09843*%
%ADD71R,0.05118X0.13780*%
%ADD72R,0.04724X0.13780*%
%ADD73R,0.13386X0.19291*%
%ADD74R,0.05512X0.05512*%
%ADD75R,0.09843X0.14410*%
%ADD76R,0.07874X0.14410*%
%ADD77R,0.06299X0.01969*%
%ADD78R,0.02126X0.03543*%
%ADD79R,0.14016X0.07008*%
%ADD80R,0.23900X0.07400*%
%ADD81R,0.06600X0.29900*%
%ADD82R,0.31161X0.10375*%
%ADD83R,0.10100X0.35200*%
%ADD84R,0.32275X0.09409*%
%ADD85R,0.13400X0.33200*%
%ADD86R,0.09200X0.34200*%
%ADD87R,0.31475X0.09309*%
%ADD88R,0.36300X0.11700*%
%ADD89R,0.07800X0.28400*%
%ADD90R,0.34500X0.09900*%
%ADD91R,0.06800X0.25700*%
%ADD92R,0.33050X0.09400*%
%ADD93R,0.08800X0.24200*%
%ADD94R,0.35000X0.11700*%
%ADD95R,0.13000X0.24000*%
%ADD96R,0.32000X2.10000*%
%ADD97R,0.15000X0.04000*%
%ADD98R,0.15000X0.03000*%
%ADD99R,0.65000X0.49000*%
%ADD100R,0.10000X0.48000*%
%ADD101R,0.85000X0.08000*%
%ADD102R,0.38000X0.18000*%
%ADD103R,0.16000X0.49000*%
%ADD104R,0.32000X0.47000*%
%ADD105R,0.03000X0.08000*%
%ADD106C,0.00500*%
%ADD107C,0.00591*%
%ADD108C,0.00787*%
%ADD109R,0.11900X0.28100*%
%ADD110R,0.28600X0.18100*%
%ADD111R,0.25200X0.35000*%
%ADD112R,0.07300X0.32200*%
%ADD113R,0.36300X0.15600*%
%ADD114R,0.19800X0.35200*%
%ADD115R,0.64900X0.18900*%
%ADD116R,0.13100X1.63900*%
%ADD117R,2.36600X0.30300*%
%ADD118R,0.14400X1.76600*%
%ADD119R,0.08674X0.10642*%
%ADD120R,0.04737X0.03162*%
%ADD121R,0.03556X0.04147*%
%ADD122R,0.04147X0.03556*%
%ADD123R,0.03162X0.04737*%
%ADD124R,0.10642X0.08674*%
%ADD125R,0.03950X0.03800*%
%ADD126R,0.01902X0.03418*%
%ADD127R,0.03418X0.01902*%
%ADD128R,0.09225X0.09225*%
%ADD129R,0.05918X0.04737*%
%ADD130R,0.07887X0.04737*%
%ADD131R,0.14579X0.05524*%
%ADD132R,0.11430X0.04737*%
%ADD133C,0.06706*%
%ADD134R,0.06706X0.06706*%
%ADD135R,0.05524X0.07099*%
%ADD136O,0.05524X0.07099*%
%ADD137C,0.24422*%
%ADD138R,0.06706X0.06706*%
%ADD139C,0.20485*%
%ADD140R,0.03800X0.04800*%
%ADD141R,0.04800X0.03800*%
%ADD142R,0.05131X0.05524*%
%ADD143R,0.13792X0.10642*%
%ADD144R,0.04343X0.02926*%
%ADD145R,0.02769X0.07099*%
%ADD146R,0.15210X0.08674*%
%ADD147R,0.15210X0.10642*%
%ADD148R,0.05918X0.14579*%
%ADD149R,0.05524X0.14579*%
%ADD150R,0.14186X0.20091*%
%ADD151R,0.06312X0.06312*%
%ADD152R,0.10642X0.15210*%
%ADD153R,0.08674X0.15210*%
%ADD154R,0.07099X0.02769*%
%ADD155R,0.02926X0.04343*%
%ADD156R,0.14816X0.07808*%
%ADD157C,0.00700*%
D10*
X433071Y-64000D02*
Y-1500D01*
X0Y-64000D02*
Y-1500D01*
X232030Y-63000D02*
X433071D01*
X0D02*
X197840D01*
X427071Y-61000D02*
X433071Y-63000D01*
X427071Y-65000D02*
X433071Y-63000D01*
X0D02*
X6000Y-65000D01*
X0Y-63000D02*
X6000Y-61000D01*
X434571Y0D02*
X506000D01*
X434571Y275000D02*
X506000D01*
X505000Y0D02*
Y120804D01*
Y150996D02*
Y275000D01*
Y0D02*
X507000Y6000D01*
X503000D02*
X505000Y0D01*
X503000Y269000D02*
X505000Y275000D01*
X507000Y269000D01*
X433071Y0D02*
Y275000D01*
X0Y0D02*
X433071D01*
X0Y275000D02*
X433071D01*
X0Y0D02*
Y275590D01*
D52*
X199441Y-66599D02*
X201440D01*
X200440D01*
Y-60601D01*
X199441Y-61601D01*
X204439Y-66599D02*
X206438D01*
X205438D01*
Y-60601D01*
X204439Y-61601D01*
X209437D02*
X210437Y-60601D01*
X212436D01*
X213436Y-61601D01*
Y-65599D01*
X212436Y-66599D01*
X210437D01*
X209437Y-65599D01*
Y-61601D01*
X215435Y-66599D02*
Y-65599D01*
X216435D01*
Y-66599D01*
X215435D01*
X220434Y-61601D02*
X221433Y-60601D01*
X223433D01*
X224432Y-61601D01*
Y-65599D01*
X223433Y-66599D01*
X221433D01*
X220434Y-65599D01*
Y-61601D01*
X226432D02*
X227431Y-60601D01*
X229431D01*
X230430Y-61601D01*
Y-65599D01*
X229431Y-66599D01*
X227431D01*
X226432Y-65599D01*
Y-61601D01*
X502601Y126403D02*
X503601Y124404D01*
X505600Y122404D01*
X507599D01*
X508599Y123404D01*
Y125403D01*
X507599Y126403D01*
X506600D01*
X505600Y125403D01*
Y122404D01*
X507599Y128402D02*
X508599Y129402D01*
Y131401D01*
X507599Y132401D01*
X503601D01*
X502601Y131401D01*
Y129402D01*
X503601Y128402D01*
X504600D01*
X505600Y129402D01*
Y132401D01*
X508599Y134400D02*
X507599D01*
Y135400D01*
X508599D01*
Y134400D01*
X503601Y139399D02*
X502601Y140399D01*
Y142398D01*
X503601Y143398D01*
X504600D01*
X505600Y142398D01*
X506600Y143398D01*
X507599D01*
X508599Y142398D01*
Y140399D01*
X507599Y139399D01*
X506600D01*
X505600Y140399D01*
X504600Y139399D01*
X503601D01*
X505600Y140399D02*
Y142398D01*
X502601Y149396D02*
Y145397D01*
X505600D01*
X504600Y147396D01*
Y148396D01*
X505600Y149396D01*
X507599D01*
X508599Y148396D01*
Y146397D01*
X507599Y145397D01*
M02*
