M48
;Layer_Color=9474304
;FILE_FORMAT=2:5
INCH,LZ
;TYPE=PLATED
T01F00S00C0.01181
T02F00S00C0.01200
T03F00S00C0.02000
T04F00S00C0.02500
T05F00S00C0.03200
T06F00S00C0.03543
T07F00S00C0.03937
T08F00S00C0.04000
T09F00S00C0.04724
T10F00S00C0.05906
T11F00S00C0.06299
T12F00S00C0.06693
;TYPE=NON_PLATED
T13F00S00C0.11024
T14F00S00C0.12598
%
T01
X0619343Y0406026
Y0409845
Y04139
Y0417837
Y0421774
X062328
X0627217
Y0417837
X062328
Y04139
Y0409963
X0627217
Y04139
X0631154
Y0417837
X0631036Y0421656
X0635091Y0421774
Y0417837
Y04139
X0634972Y0409963
X0631154
Y0406026
X0627217
X062328
X0635091
X0502591Y0454026
X0498654
X0494717
Y0457963
X049078
Y04619
X0486843
Y0457845
Y0454026
X049078
X0494717Y04619
X0498654
X0502591
X0502472Y0457963
X0498654
Y0465837
X0494717
Y0469774
X049078
X0486843
Y0465837
X049078
X0498535Y0469656
X0502591Y0469774
Y0465837
T02
X0820875Y01009
X0825875
X0830875
X0828375Y01059
X0823375
X0818375
X0820875Y01109
X0825875
X0828375Y01159
X0823375
X0825875Y01209
X0820875
X0823375Y01259
X0828375
X0825875Y01309
X0818375Y01259
X0858375
X0868375
X0873375
X0878375
X0883375
X0880875Y01309
X0875875
Y01209
X0880875
X0883375Y01159
X0878375
X0873375
X0868375
X0870875Y01209
Y01109
X0875875
X0880875
X0883375Y01059
X0878375
X0873375
X0868375
X0870875Y01009
X0875875
X0880875
X0885875
X0890875
X0865875
Y01109
X0913375Y01159
X0923375
X0928375
X0933375
X0938375
X0943375
X0948375
X0953375
X0950875Y01209
X0945875
X0940875
X0935875
X0930875
X0925875
X0928375Y01259
X0933375
X0938375
X0943375
X0948375
X0953375
X0950875Y01309
X0945875
X0940875
X0935875
X0930875
X0933375Y01359
X0938375
X0943375
X0948375
X0953375
X0950875Y01409
X0945875
X0940875
X0935875
X0923375Y01359
X0918375
X0923375Y01259
X0925875Y01109
X0930875
X0935875
X0940875
X0945875
X0950875
X0953375Y01059
X0948375
X0943375
X0938375
X0933375
X0928375
X0923375
X0925875Y01009
X0930875
X0935875
X0940875
X0945875
X0950875
X0920875
Y01109
X0953375Y01459
X0808375Y01259
Y01159
X0773375
X0768375
X0770875Y01209
X0775875
X0773375Y01259
X0768375
X0765875Y01209
Y01109
X0770875
X0775875
X0773375Y01059
X0768375
X0763375
X0765875Y01009
X0770875
X0775875
X0780875
X0775875Y01309
X0755875Y01209
X0725875
X0720875
X0715875
X0718375Y01259
X0723375
X0725875Y01309
X0720875
X0713375Y01259
Y01159
X0718375
X0723375
X0725875Y01109
X0720875
X0715875
X0710875
X0713375Y01059
X0718375
X0723375
X0725875Y01009
X0730875
X0720875
X0715875
X0710875
X0708375Y01059
X0703375Y01159
Y01259
X0673375
X0668375
X0663375
X0665875Y01309
X0670875
Y01209
X0665875
X0668375Y01159
X0673375
X0670875Y01109
X0665875
X0668375Y01059
X0673375
X0675875Y01009
X0670875
X0665875
X0663375Y01059
Y01159
X0660875Y01209
Y01109
X0655875
X0658375Y01059
X0660875Y01009
X0655875
X0650875Y01209
X0620875
X0615875
X0610875
X0613375Y01259
X0618375
X0620875Y01309
X0615875
X0608375Y01259
Y01159
X0613375
X0618375
X0620875Y01109
X0615875
X0610875
X0605875
X0608375Y01059
X0613375
X0618375
X0620875Y01009
X0625875
X0615875
X0610875
X0605875
X0603375Y01059
X0598375Y01259
X0568375
X0563375
X0558375
X0553375
X0555875Y01209
X0560875
X0565875
X0568375Y01159
X0563375
X0558375
X0560875Y01109
X0565875
X0568375Y01059
X0563375
X0558375
X0553375
X0555875Y01109
X0550875
Y01009
X0555875
X0560875
X0565875
X0570875
X0565875Y01309
X0560875
X0543375Y01259
X0513375
X0508375
X0510875Y01209
X0505875
X0508375Y01159
X0513375
X0510875Y01109
X0505875
X0508375Y01059
X0513375
X0515875Y01009
X0510875
X0505875
X0500875
X0503375Y01059
X0498375
X0500875Y01109
X0503375Y01159
Y01259
X0493375
X0458375
X0453375
X0448375
X0450875Y01209
X0455875
X0458375Y01159
X0453375
X0455875Y01109
X0450875
X0445875
X0448375Y01059
X0453375
X0458375
X0460875Y01009
X0455875
X0450875
X0445875
X0415875
X0410875
X0405875
X0400875
X0395875
X0398375Y01059
X0403375
X0408375
X0410875Y01109
X0405875
X0400875
X0395875
X0398375Y01159
X0403375
X0408375
X0410875Y01209
X0405875
X0400875
X0403375Y01259
X0408375
X0410875Y01309
X0405875
X0398375Y01259
X0388375
X0385875Y01209
X0393375Y01059
X0353375
X0355875Y01009
X0350875
Y01109
X0353375Y01159
X0350875Y01209
X0353375Y01259
X0350875Y01309
X0438375Y01259
X0455875Y01309
X0348375Y01259
X0343375
X0345875Y01209
X0348375Y01159
X0343375
X0345875Y01109
X0340875
X0343375Y01059
X0348375
X0345875Y01009
X0340875
X0333375Y01159
Y01259
X0303375
X0298375
X0293375
X0295875Y01309
X0300875
Y01209
X0295875
X0290875
X0293375Y01159
X0298375
X0303375
X0300875Y01109
X0295875
X0290875
X0293375Y01059
X0298375
X0303375
X0305875Y01009
X0300875
X0295875
X0290875
X0280875Y01209
X0245875
X0240875
X0243375Y01259
X0248375
X0245875Y01309
X0238375Y01259
Y01159
X0243375
X0248375
X0245875Y01109
X0240875
X0235875
X0238375Y01059
X0243375
X0248375
X0253375
X0255875Y01009
X0250875
X0245875
X0240875
X0235875
X0228375Y01159
Y01259
X0198375
X0193375
X0195875Y01309
Y01209
X0198375Y01159
X0193375
X0195875Y01109
X0198375Y01059
X0193375
X0195875Y01009
X0200875
X0190875
X0185875
X0180875
X0183375Y01059
X0188375
X0190875Y01109
X0185875
X0180875
X0188375Y01159
X0190875Y01209
X0185875
X0188375Y01259
X0190875Y01309
X0175875Y01209
X0110875
X0105875
X0100875
X0095875
X0090875
X0085875
X0080875
X0075875
X0070875
X0065875
X0060875
X0055875
X0050875
X0053375Y01259
X0058375
X0063375
X0068375
X0073375
X0078375
X0083375
X0088375
X0093375
X0098375
X0103375
X0108375
X0113375
X0110875Y01309
X0105875
X0100875
X0095875
X0090875
X0085875
X0080875
X0075875
X0070875
X0065875
X0060875
X0055875
X0050875
X0053375Y01359
X0058375
X0063375
X0068375
X0073375
X0078375
X0083375
X0088375
X0093375
X0098375
X0103375
X0108375
X0113375
X0110875Y01409
X0105875
X0100875
X0095875
X0090875
X0085875
X0080875
X0075875
X0070875
X0065875
X0060875
X0055875
X0050875
X0048375Y01359
Y01259
Y01159
X0053375
X0058375
X0063375
X0068375
X0073375
X0078375
X0083375
X0088375
X0093375
X0098375
X0103375
X0108375
X0113375
X0110875Y01109
X0105875
X0100875
X0095875
X0090875
X0085875
X0080875
X0075875
X0070875
X0065875
X0060875
X0055875
X0050875
X0053375Y01059
X0058375
X0063375
X0068375
X0073375
X0078375
X0083375
X0088375
X0093375
X0098375
X0103375
X0108375
X0113375
X0110875Y01009
X0105875
X0100875
X0095875
X0090875
X0085875
X0080875
X0075875
X0070875
X0065875
X0060875
X0055875
X0050875
X0048375Y01059
X0113375Y01459
X0033375
X0028375
X0023375
X0018375
X0013375
X0008375
X0010875Y01409
X0015875
X0020875
X0025875
X0030875
X0035875
X0033375Y01359
X0028375
X0023375
X0018375
X0013375
X0008375
X0010875Y01309
X0015875
X0020875
X0025875
X0030875
X0035875
X0033375Y01259
X0028375
X0023375
X0018375
X0013375
X0008375
X0010875Y01209
X0015875
X0020875
X0025875
X0030875
X0035875
X0033375Y01159
X0028375
X0023375
X0018375
X0013375
X0008375
X0010875Y01109
X0015875
X0020875
X0025875
X0030875
X0035875
X0033375Y01059
X0028375
X0023375
X0018375
X0013375
X0008375
X0010875Y01009
X0015875
X0020875
X0025875
X0030875
X0035875
X0005875
Y01109
Y01209
Y01309
Y01409
Y01509
X0010875
X0015875
X0020875
X0025875
X0030875
X0035875
X0033375Y01559
X0028375
X0023375
X0018375
X0013375
X0008375
X0010875Y01609
X0015875
X0005875
X0008375Y01659
X0010875Y01709
X0005875
X0008375Y01759
X0010875Y01809
X0005875
X0008375Y01859
X0013375
X0018375
X0020875Y01909
X0015875
X0010875
X0005875
X0008375Y01959
X0013375
X0018375
X0023375
X0028375
X0030875Y02009
X0035875
X0025875
X0020875
X0015875
X0010875
X0005875
X0008375Y02059
X0013375
X0018375
X0023375
X0020875Y02109
X0015875
X0010875
X0005875
X0008375Y02159
X0013375
X0018375
X0020875Y02209
X0015875
X0010875
X0005875
X0008375Y02259
X0013375
X0018375
X0020875Y02309
X0015875
X0010875
X0005875
X0008375Y02359
X0013375
X0018375
X0020875Y02409
X0015875
X0010875
X0005875
X0008375Y02459
X0013375
X0018375
X0020875Y02509
X0015875
X0010875
X0005875
X0008375Y02559
X0013375
X0018375
X0020875Y02609
X0015875
X0010875
X0005875
X0008375Y02659
X0013375
X0018375
X0020875Y02709
X0015875
X0010875
X0005875
X0008375Y02759
X0013375
X0018375
X0020875Y02809
X0015875
X0010875
X0005875
X0008375Y02859
X0013375
X0018375
X0020875Y02909
X0015875
X0010875
X0005875
X0008375Y02959
X0013375
X0018375
X0020875Y03009
X0015875
X0010875
X0005875
X0008375Y03059
X0013375
X0018375
X0028375
X0033375
X0030875Y03009
X0025875
X0028375Y02959
X0030875Y02909
X0035875
X0033375Y02859
X0028375
X0030875Y02809
X0035875
X0033375Y02759
X0028375
X0030875Y02709
X0025875
X0028375Y02659
X0025875Y02609
X0028375Y02559
X0033375
X0030875Y02509
X0025875
X0028375Y02459
X0030875Y02409
X0025875
X0028375Y02359
X0033375
X0035875Y02309
X0030875
X0025875
X0028375Y02259
X0030875Y02209
X0025875
X0028375Y02159
X0033375
X0030875Y02109
X0025875Y02809
Y02909
X0038375Y02859
X0043375
X0048375
X0053375
X0055875Y02809
X0060875
X0065875
X0070875
X0073375Y02859
X0078375
X0083375
X0088375
X0093375
X0098375
X0103375
X0108375
X0113375
X0118375
X0110875Y02809
X0105875
X0100875
X0095875
X0090875
X0085875
X0088375Y02759
X0093375
X0098375
X0103375
X0100875Y02709
X0103375Y02659
X0105875Y02609
X0100875
X0103375Y02559
X0108375
X0098375
X0093375
X0088375
X0083375
X0078375
X0073375
X0068375
X0063375
X0058375
X0053375
X0048375
X0043375
X0038375
X0045875Y02509
X0050875
X0053375Y02459
X0048375
X0050875Y02409
X0053375Y02359
X0058375
X0063375
X0065875Y02409
Y02509
Y02309
X0060875
X0055875
X0050875
X0045875
X0048375Y02359
X0043375
X0038375
X0048375Y02259
X0053375
X0058375
X0063375
X0060875Y02209
X0055875
X0050875
X0045875Y02109
X0048375Y02059
X0053375
X0058375
X0063375
X0055875Y02009
X0050875
Y01909
X0048375Y01859
X0063375
X0068375
X0073375
X0078375
X0083375
X0088375
X0093375
X0095875Y01909
X0100875
X0105875
X0110875
X0108375Y01959
X0103375
X0098375
X0093375
X0095875Y02009
X0100875
X0105875
X0110875
X0115875
X0125875
X0130875
X0135875
X0140875
X0145875
X0150875
X0153375Y02059
X0148375
X0143375
X0145875Y02109
X0150875
X0148375Y02159
X0143375
X0145875Y02209
X0140875
X0135875
X0130875
X0125875
X0120875
X0115875
X0110875
X0105875
X0100875
X0095875
X0090875
X0085875
X0088375Y02259
X0093375
X0098375
X0103375
X0108375
X0113375
X0118375
X0123375
X0128375
X0133375
X0135875Y02309
X0140875
X0145875
X0148375Y02359
X0143375
X0145875Y02409
X0150875
X0153375Y02459
X0148375
X0143375
X0145875Y02509
X0150875
X0155875
X0160875
X0165875
X0170875
X0175875
X0180875
X0178375Y02559
X0173375
X0168375
X0163375
X0165875Y02609
X0170875
X0175875
X0173375Y02659
X0168375
X0163375
X0165875Y02709
X0170875
X0175875
X0173375Y02759
X0168375
X0163375
X0158375
X0153375
X0148375
X0143375
X0145875Y02809
X0150875
X0155875
X0160875
X0165875
X0170875
X0175875
X0150875Y02709
X0145875
X0140875
X0135875
X0130875
X0125875
X0128375Y02759
X0133375
X0135875Y02809
X0138375Y02959
X0123375
Y02659
X0128375
X0133375
X0135875Y02609
X0140875
X0145875
X0150875
X0148375Y02659
X0143375
Y02559
X0148375
X0140875Y02509
X0135875
X0130875
X0125875
X0128375Y02559
X0133375
X0130875Y02609
X0125875
X0123375Y02559
X0128375Y02459
X0133375
X0135875Y02409
X0140875
X0130875
X0125875
X0128375Y02359
X0133375
X0130875Y02309
X0125875
X0128375Y02159
X0133375
X0135875Y02109
X0140875
X0130875
X0125875
X0120875
X0115875
X0110875
X0105875
X0100875
X0095875
X0090875
X0093375Y02159
X0098375
X0103375
X0108375
X0113375
X0118375
X0123375
X0108375Y02059
X0103375
X0098375
X0093375
X0088375
X0083375
X0090875Y02009
Y01909
X0085875Y01809
X0080875
X0075875
X0070875
X0065875
X0060875
X0070875Y01909
X0073375Y01959
X0088375Y02159
X0083375Y02259
Y02759
X0068375
X0063375
X0058375
X0053375
X0048375
X0043375
X0038375
X0040875Y02809
X0045875
X0050875
Y02909
X0045875
X0048375Y03059
X0043375
X0038375
X0065875Y03009
X0068375Y02959
X0063375
X0065875Y02909
X0070875
X0075875
X0068375Y02859
X0063375
X0055875Y02709
X0050875
X0053375Y01559
X0058375
X0063375
X0068375
X0073375
X0078375
X0083375
X0088375
X0093375
X0098375
X0103375
X0108375
X0110875Y01609
X0115875
X0120875
X0123375Y01659
X0128375
X0130875Y01709
X0135875
X0140875
X0145875
X0150875
X0153375Y01759
X0148375
X0143375
X0138375
X0133375
X0128375
X0123375
X0118375
X0120875Y01709
X0125875
Y01809
X0130875
X0135875
X0140875
X0145875
X0150875
X0148375Y01859
X0143375
X0138375
X0133375
X0128375
X0130875Y01909
X0135875
X0140875
X0145875
X0150875
X0148375Y01959
X0143375
X0138375
X0133375
X0168375
X0173375
X0178375
X0175875Y02009
X0170875
X0173375Y02059
X0178375
X0183375
X0188375
X0190875Y02109
X0185875
X0180875
X0175875
X0170875
X0173375Y02159
X0178375
X0183375
X0188375
X0190875Y02209
X0185875
X0180875
X0175875
X0170875
X0165875
X0168375Y02259
X0173375
X0178375
X0183375
X0188375
X0190875Y02309
X0185875
X0180875
X0175875
X0170875
X0165875
X0163375Y02259
X0168375Y02159
Y02059
X0170875Y01909
X0175875
X0178375Y01859
X0173375
X0168375
X0170875Y01809
X0175875
X0180875
X0178375Y01759
X0173375
X0168375
X0177585Y0161715
X0118375Y01659
X0115875Y01709
X0110875
X0105875
X0100875
X0095875
X0098375Y01759
X0103375
X0108375
Y01659
X0103375
X0098375
X0093375
X0088375
X0083375
X0085875Y01609
X0090875
X0095875
X0100875
X0105875
Y01509
X0110875
X0100875
X0095875
X0090875
X0085875
X0080875
X0075875
X0070875
X0065875
X0060875
X0055875
X0050875
X0048375Y01559
X0080875Y01609
X0143375Y02259
X0148375
X0153375Y03059
X0158375
X0163375
X0200875Y02809
X0205875
X0203375Y02759
X0198375
X0200875Y02709
X0205875
X0208375Y02659
X0213375
X0215875Y02609
X0203375Y02659
X0198375
X0230875Y02509
X0233375Y02459
X0238375
X0235875Y02409
X0230875
X0233375Y02359
X0238375
X0235875Y02309
X0230875
X0233375Y02259
X0238375
X0235875Y02209
X0230875
X0233375Y02159
X0238375
X0235875Y02109
X0230875
X0233375Y02059
X0238375
X0235875Y02009
X0230875
X0233375Y01959
X0238375
X0228375
X0213375
X0208375
X0203375
X0198375
X0200875Y02009
X0195875
X0198375Y02059
X0203375
X0200875Y02109
X0195875
X0198375Y02159
X0203375
X0193375
Y02059
X0195875Y01909
X0200875
X0205875
X0210875
X0215875
X0213375Y01859
X0208375
X0203375
X0198375
X0230585Y0160615
X0281885Y0161315
X02861Y0161
X0286Y01796
X0288375Y02059
X0293375
X0298375
X0295875Y02109
X0290875
X0285875
X0280875
X0283375Y02159
X0288375
X0293375
X0298375
X0295875Y02209
X0290875
X0285875
X0280875
X0283375Y02259
X0288375
X0293375
X0298375
X0295875Y02309
X0290875
X0285875
X0280875
X0283375Y02359
X0288375
X0293375
X0298375
X0295875Y02409
X0290875
X0285875
X0280875
X0283375Y02459
X0288375
X0293375
X0298375
X0300875Y02509
X0295875
X0290875
X0285875
X0280875
X0275875
X0278375Y02559
Y02459
X0273375
X0268375
X0263375
X0258375
X0253375
X0248375
Y02659
X0253375
X0258375
X0263375
X0265875Y02709
X0260875
X0255875
X0250875
Y02909
X0255875
X0260875
X0265875
X0270875
X0275875
X0280875
X0283375Y02959
X0285875Y03009
X0280875
X0283375Y03059
X0288375
X0293375
X0313375
X0318375
X0315875Y03009
X0330875
Y02709
X0335875
X0340875
X0343375Y02659
X0348375
X0345875Y02609
X0340875
X0335875
X0330875
X0325875
X0320875
X0315875
X0310875
X0313375Y02659
X0318375
X0323375
X0328375
X0333375
X0338375
Y02559
X0343375
X0348375
X0340875Y02509
X0335875
X0330875
X0325875
X0320875
X0315875
X0310875
X0313375Y02559
X0318375
X0323375
X0328375
X0333375
X0328375Y02459
X0323375
X0318375
X0313375
X0315875Y02409
X0320875
X0325875
X0330875Y02309
X0335875
X0338375Y02359
X0340875Y02209
X0345875
X0348375Y02259
X0338375Y02159
X0340875Y02109
X0335875
X0330875
X0333375Y02059
X0338375
X0340875Y02009
X0335875
X0330875
X0325875
X0328375Y02059
Y01959
X0333375
X0338375
X0343375
X0348375
X0345875Y01909
X0340875
X0348375Y01859
X0335875Y01809
X0315875
X0313375Y01959
X0308375
X0310875Y02009
X0313375Y02059
X0315875Y02109
X0318375Y02159
X0313375
X0315875Y02209
X0320875
X0325875
X0328375Y02259
X0313375
X0315875Y02709
X0320875
X0325875
X0310875
X0305875
X0300875
X0295875
X0290875
X0285875
X0280875
X0293375Y02559
X0283375Y02059
X0278375
X0273375
X0268375
X0263375
X0258375
X0253375
X0248375
X0228375Y03059
X0334685Y0161115
X0350875Y01809
X0355875
X0360875
X0365875
X0370875
X0375875
X0380875
X0385875
X0390875
X0395875
X0400875
X0405875
X0410875
X0415875
X0420875
X0425875
X0430875
X0435875
X0440875
X0445875
X0450875
X0455875
X0460875
X0465875
X0470875
X0475875
X0480875
X0485875
X0490875
X0495875
X0498375Y01859
X0493375
X0488375
X0483375
X0478375
X0473375
X0468375
X0463375
X0458375
X0453375
X0448375
X0443375
X0438375
X0433375
X0428375
X0423375
X0418375
X0413375
X0408375
X0403375
X0398375
X0393375
X0388375
X0383375
X0378375
X0373375
X0368375
X0363375
X0358375
X0353375
X0355875Y01909
X0360875
X0365875
X0370875
X0375875
X0380875
X0385875
X0390875
X0395875
X0400875
X0405875
X0410875
X0413375Y02059
X0418375
X0423375
X0420875Y02109
X0415875
X0418375Y02159
X0420875Y02209
X0415875
X0418375Y02259
X0420875Y02309
X0415875
X0418375Y02359
X0420875Y02409
X0415875
X0418375Y02459
X0420875Y02609
X0425875
X0430875
X0432Y02676
X0431516Y0272156
X04363Y02702
X0438375Y02759
X0443375
X0440875Y02809
X0435875
X0430875
X0433375Y02859
X0428375
X0430875Y02909
X0425875
X0420875
X0423375Y02959
X0418375
X0420875Y03009
X0415875
X0410875
X0413375Y03059
X0408375
X0400875Y02909
X0395875
X0390875
X0385875
X0380875
X0375875
X0378375Y02959
X0383375
X0388375
X0393375
X0390875Y03009
X0385875
X0380875
X0375875
X0370875
X0365875
X0360875
X0355875
X0350875
X0353375Y03059
X0358375
X0363375
X0368375
X0373375
X0378375
X0383375
X0373375Y02959
X03654Y02861
X03647Y02831
X03612
X03702Y02796
X0370875Y02709
X0375875
X0380875
X0385875
X0388375Y02659
X0393375
X0395875Y02609
X0390875
X0385875
X0380875
X0375875
X0370875
X0373375Y02659
X0378375
X0383375
Y02559
X0388375
X0393375
X0398375
X0403375
X0400875Y02509
X0385875
X0380875
X0378375Y02559
Y02359
X0375875Y02309
X0378375Y02259
X0375875Y02209
X0378375Y02159
X0375875Y02109
X03823Y0212
X0383375Y02059
X03854Y0218
X0363375Y02159
X0358375
X0360875Y02209
X0355875
X0350875
X0353375Y02259
X0358375
X0363375
X0360875Y02309
X0355875
X0350875
X0358375Y02359
X0363375
X0368375Y02459
X0360875Y02509
X0355875
X0358375Y02559
X0353375
X0350875Y02609
X0360875Y02709
X0365875
X0368375Y02659
X03874Y02436
X0410875Y02709
X0415875
X0420875
X0423375Y02659
X0418375
X0413375Y02759
X0408375
X0410875Y02809
X0405875
X0400875
X0403375Y02859
X0398375
X04404Y02868
X04401Y02902
Y02937
X044Y02983
X0445875Y03009
X0450875
X0448375Y03059
X0443375
X0438375
X0448375Y02959
X04532Y02942
X04634Y0284
X0470875Y02809
X04871Y02781
X04903Y02785
X0489284Y0283116
X0493748Y0282231
X0492754Y0286246
X0492462Y0291538
X04966Y02907
X0500875Y03009
X0503375Y03059
X0498375
X0493375
X0485482Y0275283
X0483375Y02359
X0488375
X0493375
X0498375
X0503375
X0500875Y02309
X0495875
X0490875
X0485875
X0488375Y02259
X0493375
X0498375
X0490875Y02209
X0485875
X0488375Y02159
X0483375
Y02259
X0473375
Y02359
X0460875Y02309
X0455875
X0450875
X0445875
X0440875
X0435875
X0438375Y02359
X0443375
X0448375
X0453375
X0455875Y02409
X0440875
X04436Y02437
X0443375Y02259
X0448375
X0453375
X0458375
X0460875Y02209
X0455875
X0458375Y02159
X0463375
X0460875Y02109
X0455875
X0453375Y02159
X0473375
X0483375Y01959
X0488375
X0493375
X0498375
X0503375
X0500875Y02009
X0495875
X0492891Y0160815
X0444385Y0158785
X0439785Y0160715
X04445Y01667
X0445875Y02009
X0438375Y02059
X0433375
Y01959
X0438375Y02259
X0440875Y02609
X0445875
X0450875
X0451216Y026602
X0408375Y02059
X0403375
X0378375Y01959
X0373375
X0368375
X0363375
X0358375
X0353375
X0355875Y02009
X0360875
X0365875
X0370875
X0363375Y02059
X0358375
X0360875Y02109
X0355875
X0350875Y01909
X0387385Y0160015
X0545791Y0159515
X0540875Y01809
X0543375Y01859
X0545875Y01909
X0550875
X0555875
X0560875
X0565875
X0570875
X0575875
X0580875
X0585875
X0590875
X0595875
X0600875
X0605875
X0610875
X0615875
X0620875
X0625875
X0630875
X0635875
X0640875
X0643375Y01959
X0638375
X0633375
X0628375
X0623375
X0618375
X0613375
X0608375
X0603375
X0598375
X0593375
X0588375
X0583375
X0578375
X0573375
X0568375
Y01859
X0573375
X0578375
X0583375
X0588375
X0593375
X0598375
X0603375
X0608375
X0613375
X0618375
X0623375
X0628375
X0633375
X0638375
X0635875Y01809
X0630875
X0625875
X0620875
X0615875
X0610875
X0605875
X0600875
X0595875
X0590875
X0585875
X0580875
X0575875
X0570875
Y02109
X0575875Y02209
X0580875
X0585875
X0583375Y02259
X0578375
X0573375
X0568375
X0563375
X0556144Y0220204
X0543375Y02159
X0538375
X0533375
X0528375
X0523375
X0525875Y02109
X0530875
X0535875
X0540875
X0543375Y01959
X0548375
X0538375
X0533375
Y01859
X0528375
X0523375
X0525875Y01909
X0520875
X0515875
X0523375Y01959
X0525875Y01809
X0530875
X0540875Y01909
X05575Y02005
X05581Y02031
X0555875Y02409
X0560875
X0565875
X0563375Y02459
X0558375
X0553375
X0550875Y02409
X05452Y02514
X0539579Y0251621
X05394Y02547
X05327Y0252
X05274Y02597
X0514323Y02631
X05159Y02854
X0519894Y0285606
X05236Y02827
X05254Y02801
X0527799Y02823
X052958Y027618
X0552237Y0275553
X0551055Y02795
X0548291Y02693
X0550875Y02609
X0562352Y0269648
X05657Y02692
X05669Y02759
X05716Y02758
X05747
X0575875Y02709
X0590875
X0595875
X0600875
X0598375Y02759
X0593375
Y02659
X0598375
X0600875Y02609
X0595875
X0590875
X0593375Y02559
X0598375
X0600875Y02509
X0595875
X06127Y02477
X06128Y02443
X06126Y02414
X0613375Y02359
X0615875Y02309
X0610875
X0613375Y02259
X0608375
X0603375
X0598375
X0600875Y02209
X0605875
X0603375Y02159
X0598375
X0595875Y02209
X06043Y02319
X0604054Y02347
X060399Y0237199
X0613375Y02559
X0615875Y02609
X0613375Y02659
X0618375Y02759
X0615875Y02809
X0618375Y02859
X0613375
X06089Y02903
X06064
X06038Y02867
X05993Y02814
X0630875Y02809
X0635875
X0640875
X0643375Y02859
X0638375
X0633375
Y02759
X0630875Y02709
X0640875Y02609
X0643375Y02559
X0638375
X0635875Y02509
X0630875
X0633375Y02459
X0643375
X0640875Y02409
X0643375Y02359
X0638375
X0633375
X0635875Y02309
X0640875
X0643375Y02259
X0638375
X0633375
X0635875Y02209
X0640875
X0643375Y02159
X0638375
X0633375
X06266Y02162
X06231Y0216
X06191Y02163
X0613375Y02159
X0625875Y02109
X0630875
X0635875
X0640875
X0643375Y02059
X0638375
X0633375
X0628375
X0623375
X0625875Y02009
X0630875
X0635875
X0640875
X0655875
X0660875
X0658375Y02059
X0660875Y02109
X0655875
X0658375Y02159
X0660875Y02209
X0655875
X0658375Y02259
X0660875Y02309
X0655875
X0658375Y02359
X0660875Y02409
X0655875
X0658375Y02459
X0660875Y02509
X0655875
X0658375Y02559
X0660875Y02609
X0655875Y02709
X0658375Y02759
X0660875Y02809
Y03009
X0643375Y03059
X0638375
X0633375
X0628375
X0623375
X06159Y03056
X0613756Y0302244
X05747Y02944
X05715Y02926
X05672Y02928
X05694Y02967
X05652Y02803
X05629Y02816
X0543485Y0287245
X05476Y03003
X0528375Y03059
X0518375
X0513375
X0508375
X0510875Y03009
X0505875
X0510875Y02409
X05185Y0236
X0521862Y0236162
X05238Y02319
X05337Y02371
X0563247Y0252253
X05722Y02527
X05724Y02496
X05719Y02557
X0630875Y02309
Y02209
X0620875Y02009
X0615875
X0658375Y01959
X0660875Y01909
X0655875
X0658375Y01859
X0660875Y01809
X0655875
X0651391Y0159415
X0598691Y0159715
X0514962Y02061
X0509844Y0203844
X0663375Y02059
X0665875Y02109
X0663375Y02159
X0665875Y02209
X0663375Y02259
X0665875Y02309
X0663375Y02359
X0665875Y02409
X0663375Y02459
X0665875Y02509
X0663375Y02559
X0665875Y02609
X0663375Y02659
Y02759
X0665875Y02809
X0680875
X0685875
X0690875
X0695875
X0700875
X0705875
X0710875
X0715875
X0720875
X0725875
X0730875
X0735875
X0740875
X0745875
X0750875
X0755875
X0760875
X0765875
X0770875
X0775875
X0780875
X0785875
X0790875
X0795875
X0800875
X0805875
X0810875
X0815875
X0813375Y02859
X0808375
X0803375
X0798375
X0793375
X0788375
X0783375
X0778375
X0773375
X0768375
X0763375
X0758375
X0753375
X0748375
X0743375
X0738375
X0733375
X0728375
X0723375
X0718375
X0713375
X0708375
X0703375
X0698375
X0693375
X0688375
X0683375
Y02959
X0678375
X0680875Y03009
X0685875
X0688375Y03059
X0693375
X0698375
X0703375
X0708375
X0713375
X0718375
X0723375
X0728375
X0733375
X0738375
X0743375
X0748375
X0753375
X0758375
X0763375
X0768375
X0773375
X0778375
X0783375
X0788375
X0793375
X0798375
X0800841Y03023
X0805875Y03009
X0810875
X0815875
X0813375Y03059
X0808375
Y02959
X0813375
X0815875Y02909
X0810875
X0805875
X0800875
X0795875
X0790875
X0785875
X0780875
X0775875
X0770875
X0765875
X0760875
X0755875
X0750875
X0745875
X0740875
X0735875
X0730875
X0725875
X0720875
X0715875
X0710875
X0705875
X0700875
X0695875
X0690875
X0693375Y02959
X0698375
X0703375
X0708375
X0713375
X0718375
X0723375
X0728375
X0733375
X0738375
X0743375
X0748375
X0753375
X0758375
X0763375
X0768375
X0773375
X0778375
X0783375
X0788375
X0793375
X0798375
X0803375
Y02759
X0808375
X0813375
X0815875Y02709
X0810875
X0805875
X0800875
X0795875
X0790875
X0785875
X0780875
X0775875
X0770875
X0765875
X0760875
X0755875
X0750875
X0745875
X0740875
X0735875
X0730875
X0725875
X0720875
X0715875
X0710875
X0705875
X0700875
X0695875
X0690875
X0685875
X0680875
X0675875
X0678375Y02759
X0683375
X0688375
X0693375
X0698375
X0703375
X0708375
X0713375
X0718375
X0723375
X0728375
X0733375
X0738375
X0743375
X0748375
X0753375
X0758375
X0763375
X0768375
X0773375
X0778375
X0783375
X0788375
X0793375
X0798375
Y02659
X0803375
X0808375
X0813375
X0815875Y02609
X0810875
X0805875
X0800875
X0795875
X0790875
X0785875
X0780875
X0775875
X0770875
X0765875
X0760875
X0755875
X0750875
X0745875
X0740875
X0735875
X0730875
X0725875
X0720875
X0715875
X0710875
X0705875
X0700875
X0695875
X0690875
X0685875
X0680875
X0675875
X0678375Y02659
X0683375
X0688375
X0693375
X0698375
X0703375
X0708375
X0713375
X0718375
X0723375
X0728375
X0733375
X0738375
X0743375
X0748375
X0753375
X0758375
X0763375
X0768375
X0773375
X0778375
X0783375
X0788375
X0793375
Y02559
X0798375
X0803375
X0808375
X0813375
X0815875Y02509
X0810875
X0805875
X0800875
X0795875
X0790875
X0785875
X0780875
X0775875
X0770875
X0765875
X0760875
X0755875
X0750875
X0745875
X0740875
X0735875
X0730875
X0725875
X0720875
X0715875
X0710875
X0705875
X0700875
X0695875
X0690875
X0685875
X0680875
X0675875
X0678375Y02559
X0683375
X0688375
X0693375
X0698375
X0703375
X0708375
X0713375
X0718375
X0723375
X0728375
X0733375
X0738375
X0743375
X0748375
X0753375
X0758375
X0763375
X0768375
X0773375
X0778375
X0783375
X0788375
Y02459
X0793375
X0798375
X0803375
X0808375
X0813375
X0815875Y02409
X0810875
X0805875
X0800875
X0795875
X0790875
X0785875
X0780875
X0775875
X0770875
X0765875
X0760875
X0755875
X0750875
X0745875
X0740875
X0735875
X0730875
X0725875
X0720875
X0715875
X0710875
X0705875
X0700875
X0695875
X0690875
X0685875
X0680875
X0675875
X0678375Y02459
X0683375
X0688375
X0693375
X0698375
X0703375
X0708375
X0713375
X0718375
X0723375
X0728375
X0733375
X0738375
X0743375
X0748375
X0753375
X0758375
X0763375
X0768375
X0773375
X0778375
X0783375
Y02359
X0788375
X0793375
X0798375
X0803375
X0808375
X0813375
X0815875Y02309
X0810875
X0805875
X0800875
X0795875
X0790875
X0785875
X0780875
X0775875
X0770875
X0765875
X0760875
X0755875
X0750875
X0745875
X0740875
X0735875
X0730875
X0725875
X0720875
X0715875
X0710875
X0705875
X0700875
X0695875
X0690875
X0685875
X0680875
X0675875
X0678375Y02359
X0683375
X0688375
X0693375
X0698375
X0703375
X0708375
X0713375
X0718375
X0723375
X0728375
X0733375
X0738375
X0743375
X0748375
X0753375
X0758375
X0763375
X0768375
X0773375
X0778375
Y02259
X0783375
X0788375
X0793375
X0798375
X0803375
X0808375
X0813375
X0815875Y02209
X0810875
X0805875
X0800875
X0795875
X0790875
X0785875
X0780875
X0775875
X0770875
X0765875
X0760875
X0755875
X0750875
X0745875
X0740875
X0735875
X0730875
X0725875
X0720875
X0715875
X0710875
X0705875
X0700875
X0695875
X0690875
X0685875
X0680875
X0675875
X0678375Y02259
X0683375
X0688375
X0693375
X0698375
X0703375
X0708375
X0713375
X0718375
X0723375
X0728375
X0733375
X0738375
X0743375
X0748375
X0753375
X0758375
X0763375
X0768375
X0773375
Y02159
X0778375
X0783375
X0788375
X0793375
X0798375
X0803375
X0808375
X0813375
X0815875Y02109
X0810875
X0805875
X0800875
X0795875
X0790875
X0785875
X0780875
X0775875
X0770875
X0765875
X0760875
X0755875
X0750875
X0745875
X0740875
X0735875
X0730875
X0725875
X0720875
X0715875
X0710875
X0705875
X0700875
X0695875
X0690875
X0685875
X0680875
X0675875
X0678375Y02159
X0683375
X0688375
X0693375
X0698375
X0703375
X0708375
X0713375
X0718375
X0723375
X0728375
X0733375
X0738375
X0743375
X0748375
X0753375
X0758375
X0763375
X0768375
Y02059
X0773375
X0778375
X0783375
X0788375
X0793375
X0798375
X0803375
X0808375
X0813375
X0815875Y02009
X0810875
X0805875
X0800875
X0795875
X0790875
X0785875
X0780875
X0775875
X0770875
X0765875
X0760875
X0755875
X0750875
X0745875
X0740875
X0735875
X0730875
X0725875
X0720875
X0715875
X0710875
X0705875
X0700875
X0695875
X0690875
X0685875
X0680875
X0675875
X0678375Y02059
X0683375
X0688375
X0693375
X0698375
X0703375
X0708375
X0713375
X0718375
X0723375
X0728375
X0733375
X0738375
X0743375
X0748375
X0753375
X0758375
X0763375
Y01959
X0768375
X0773375
X0778375
X0783375
X0788375
X0793375
X0798375
X0803375
X0808375
X0813375
X0815875Y01909
X0810875
X0805875
X0800875
X0795875
X0790875
X0785875
X0780875
X0775875
X0770875
X0765875
X0760875
X0755875
X0750875
X0745875
X0740875
X0735875
X0730875
X0725875
X0720875
X0715875
X0710875
X0705875
X0700875
X0695875
X0690875
X0685875
X0680875
X0675875
X0678375Y01959
X0683375
X0688375
X0693375
X0698375
X0703375
X0708375
X0713375
X0718375
X0723375
X0728375
X0733375
X0738375
X0743375
X0748375
X0753375
X0758375
Y01859
X0763375
X0768375
X0773375
X0778375
X0783375
X0788375
X0793375
X0798375
X0803375
X0808375
X0813375
X0815875Y01809
X0810875
X0805875
X0800875
X0795875
X0790875
X0785875
X0780875
X0775875
X0770875
X0765875
X0760875
X0755875
X0750875
X0745875
X0740875
X0735875
X0730875
X0725875
X0720875
X0715875
X0710875
X0705875
X0700875
X0695875
X0690875
X0685875
X0680875
X0675875
X0678375Y01859
X0683375
X0688375
X0693375
X0698375
X0703375
X0708375
X0713375
X0718375
X0723375
X0728375
X0733375
X0738375
X0743375
X0748375
X0753375
X07401Y01678
X0704285Y0160515
X0665875Y01809
X0663375Y01859
X0665875Y01909
X0663375Y01959
X0665875Y02009
X0675875Y02909
X0663375Y03059
X0810328Y0162072
X0820875Y01809
X0825875
X0830875
X0835875
X0840875
X0845875
X0850875
X0855875
X0860875
X0865875
X0870875
X0875875
X0880875
X0885875
X0890875
X0895875
X0900875
X0905875
X0910875
X0913375Y01859
X0918375
X0923375
X0928375
X0933375
X0938375
X0940875Y01909
X0935875
X0930875
X0925875
X0920875
X0923375Y01959
X0928375
X0933375
X0938375
X0940875Y02009
X0935875
X0930875
X0925875
X0920875
X0923375Y02059
X0928375
X0933375
X0938375
X0940875Y02109
X0935875
X0930875
X0925875
X0920875
X0923375Y02159
X0928375
X0933375
X0938375
X0940875Y02209
X0935875
X0930875
X0925875
X0920875
X0923375Y02259
X0928375
X0933375
X0938375
X0940875Y02309
X0935875
X0930875
X0925875
X0920875
X0923375Y02359
X0928375
X0933375
X0938375
X0940875Y02409
X0935875
X0930875
X0925875
X0920875
X0923375Y02459
X0928375
X0933375
X0938375
X0940875Y02509
X0935875
X0930875
X0925875
X0920875
X0923375Y02559
X0928375
X0933375
X0938375
X0940875Y02609
X0935875
X0930875
X0925875
X0920875
X0923375Y02659
X0928375
X0933375
X0938375
X0940875Y02709
X0935875
X0930875
X0925875
X0920875
X0923375Y02759
X0928375
X0933375
X0938375
X0940875Y02809
X0935875
X0930875
X0925875
X0920875
X0923375Y02859
X0928375
X0933375
X0938375
X0940875Y02909
X0935875
X0930875
X0925875
X0920875
X0923375Y02959
X0928375
X0933375
X0938375
X0940875Y03009
X0935875
X0930875
X0925875
X0920875
X0923375Y03059
X0928375
X0933375
X0938375
X0918375
X0913375
X0908375
X0903375
X0898375
X0893375
X0888375
X0883375
X0878375
X0873375
X0868375
X0863375
X0858375
X0853375
X0848375
X0843375
X0838375
X0833375
X0828375
X0823375
X0818375
X0820875Y03009
X0825875
X0830875
X0835875
X0840875
X0845875
X0850875
X0855875
X0860875
X0865875
X0870875
X0875875
X0880875
X0885875
X0890875
X0895875
X0900875
X0905875
X0910875
X0913375Y02959
X0918375
Y02859
X0913375
X0908375
X0903375
X0898375
X0893375
X0888375
X0883375
X0878375
X0873375
X0868375
X0863375
X0858375
X0853375
X0848375
X0843375
X0838375
X0833375
X0828375
X0823375
X0818375
X0820875Y02909
X0825875
X0830875
X0835875
X0840875
X0845875
X0850875
X0855875
X0860875
X0865875
X0870875
X0875875
X0880875
X0885875
X0890875
X0895875
X0900875
X0905875
X0910875
X0908375Y02959
X0903375
X0898375
X0893375
X0888375
X0883375
X0878375
X0873375
X0868375
X0863375
X0858375
X0853375
X0848375
X0843375
X0838375
X0833375
X0828375
X0823375
X0818375
X0820875Y02809
X0825875
X0830875
X0835875
X0840875
X0845875
X0850875
X0855875
X0860875
X0865875
X0870875
X0875875
X0880875
X0885875
X0890875
X0895875
X0900875
X0905875
X0910875
X0913375Y02759
X0918375
Y02659
X0913375
X0908375
X0903375
X0898375
X0893375
X0888375
X0883375
X0878375
X0873375
X0868375
X0863375
X0858375
X0853375
X0848375
X0843375
X0838375
X0833375
X0828375
X0823375
X0818375
X0820875Y02709
X0825875
X0830875
X0835875
X0840875
X0845875
X0850875
X0855875
X0860875
X0865875
X0870875
X0875875
X0880875
X0885875
X0890875
X0895875
X0900875
X0905875
X0910875
X0908375Y02759
X0903375
X0898375
X0893375
X0888375
X0883375
X0878375
X0873375
X0868375
X0863375
X0858375
X0853375
X0848375
X0843375
X0838375
X0833375
X0828375
X0823375
X0818375
X0820875Y02609
X0825875
X0830875
X0835875
X0840875
X0845875
X0850875
X0855875
X0860875
X0865875
X0870875
X0875875
X0880875
X0885875
X0890875
X0895875
X0900875
X0905875
X0910875
X0913375Y02559
X0918375
Y02459
X0913375
X0908375
X0903375
X0898375
X0893375
X0888375
X0883375
X0878375
X0873375
X0868375
X0863375
X0858375
X0853375
X0848375
X0843375
X0838375
X0833375
X0828375
X0823375
X0818375
X0820875Y02509
X0825875
X0830875
X0835875
X0840875
X0845875
X0850875
X0855875
X0860875
X0865875
X0870875
X0875875
X0880875
X0885875
X0890875
X0895875
X0900875
X0905875
X0910875
X0908375Y02559
X0903375
X0898375
X0893375
X0888375
X0883375
X0878375
X0873375
X0868375
X0863375
X0858375
X0853375
X0848375
X0843375
X0838375
X0833375
X0828375
X0823375
X0818375
X0820875Y02409
X0825875
X0830875
X0835875
X0840875
X0845875
X0850875
X0855875
X0860875
X0865875
X0870875
X0875875
X0880875
X0885875
X0890875
X0895875
X0900875
X0905875
X0910875
X0913375Y02359
X0918375
Y02259
X0913375
X0908375
X0903375
X0898375
X0893375
X0888375
X0883375
X0878375
X0873375
X0868375
X0863375
X0858375
X0853375
X0848375
X0843375
X0838375
X0833375
X0828375
X0823375
X0818375
X0820875Y02309
X0825875
X0830875
X0835875
X0840875
X0845875
X0850875
X0855875
X0860875
X0865875
X0870875
X0875875
X0880875
X0885875
X0890875
X0895875
X0900875
X0905875
X0910875
X0908375Y02359
X0903375
X0898375
X0893375
X0888375
X0883375
X0878375
X0873375
X0868375
X0863375
X0858375
X0853375
X0848375
X0843375
X0838375
X0833375
X0828375
X0823375
X0818375
X0820875Y02209
X0825875
X0830875
X0835875
X0840875
X0845875
X0850875
X0855875
X0860875
X0865875
X0870875
X0875875
X0880875
X0885875
X0890875
X0895875
X0900875
X0905875
X0910875
X0913375Y02159
X0918375
Y02059
X0913375
X0908375
X0903375
X0898375
X0893375
X0888375
X0883375
X0878375
X0873375
X0868375
X0863375
X0858375
X0853375
X0848375
X0843375
X0838375
X0833375
X0828375
X0823375
X0818375
X0820875Y02109
X0825875
X0830875
X0835875
X0840875
X0845875
X0850875
X0855875
X0860875
X0865875
X0870875
X0875875
X0880875
X0885875
X0890875
X0895875
X0900875
X0905875
X0910875
X0908375Y02159
X0903375
X0898375
X0893375
X0888375
X0883375
X0878375
X0873375
X0868375
X0863375
X0858375
X0853375
X0848375
X0843375
X0838375
X0833375
X0828375
X0823375
X0818375
X0820875Y02009
X0825875
X0830875
X0835875
X0840875
X0845875
X0850875
X0855875
X0860875
X0865875
X0870875
X0875875
X0880875
X0885875
X0890875
X0895875
X0900875
X0905875
X0910875
X0913375Y01959
X0918375
X0908375
X0903375
X0898375
X0893375
X0888375
X0883375
X0878375
X0873375
X0868375
X0863375
X0858375
X0853375
X0848375
X0843375
X0838375
X0833375
X0828375
X0823375
X0818375
X0820875Y01909
X0825875
X0830875
X0835875
X0840875
X0845875
X0850875
X0855875
X0860875
X0865875
X0870875
X0875875
X0880875
X0885875
X0890875
X0895875
X0900875
X0905875
X0910875
X0908375Y01859
X0903375
X0898375
X0893375
X0888375
X0883375
X0878375
X0873375
X0868375
X0863375
X0858375
X0853375
X0848375
X0843375
X0838375
X0833375
X0828375
X0823375
X0818375
X0860006Y0162006
X0915Y01613
X0920875Y01609
X0923375Y01659
X0928375
X0933375
X0938375
X0940875Y01709
X0935875
X0930875
X0925875
X0920875
X0923375Y01759
X0928375
X0933375
X0938375
X0940875Y01809
X0935875
X0930875
X0925875
X0920875
X0918375Y01759
X0923375Y01559
X0938375
X0940875Y01609
X0935875
Y03109
X0940875
X0938375Y03159
X0933375
X0928375
X0923375
X0918375
X0913375
X0908375
X0903375
X0898375
X0893375
X0888375
X0883375
X0878375
X0873375
X0868375
X0863375
X0858375
X0853375
X0848375
X0843375
X0838375
X0833375
X0828375
X0823375
X0818375
X0820875Y03209
X0825875
X0830875
X0835875
X0840875
X0845875
X0850875
X0855875
X0860875
X0865875
X0870875
X0875875
X0880875
X0885875
X0890875
X0895875
X0900875
X0905875
X0910875
X0913375Y03259
X0918375
X0923375
X0928375
X0933375
X0938375
X0940875Y03309
X0935875
X0930875
X0925875
X0920875
X0923375Y03359
X0928375
X0933375
X0938375
X0940875Y03409
X0935875
X0930875
X0925875
X0920875
X0923375Y03459
X0928375
X0933375
X0938375
X0940875Y03509
X0935875
X0930875
X0925875
X0920875
X0923375Y03559
X0928375
X0933375
X0938375
X0940875Y03609
X0935875
X0930875
X0925875
X0920875
X0923375Y03659
X0928375
X0933375
X0938375
X0940875Y03709
X0935875
X0930875
X0925875
X0920875
X0923375Y03759
X0928375
X0933375
X0938375
X0940875Y03809
X0935875
X0930875
X0925875
X0920875
X0923375Y03859
X0928375
X0933375
X0938375
X0940875Y03909
X0935875
X0930875
X0925875
X0920875
X0923375Y03959
X0928375
X0933375
X0938375
X0940875Y04009
X0935875
X0930875
X0925875
X0920875
X0923375Y04059
X0928375
X0933375
X0938375
X0940875Y04109
X0935875
X0930875
X0925875
X0920875
X0923375Y04159
X0928375
X0933375
X0938375
X0940875Y04209
X0935875
X0930875
X0925875
X0920875
X0923375Y04259
X0928375
X0933375
X0938375
X0940875Y04309
X0935875
X0930875
X0925875
X0920875
X0923375Y04359
X0928375
X0933375
X0938375
X0940875Y04409
X0935875
X0930875
X0925875
X0920875
X0923375Y04459
X0928375
X0933375
X0938375
X0940875Y04509
X0935875
X0930875
X0925875
X0920875
X0923375Y04559
X0928375
X0933375
X0938375
X0940875Y04609
X0935875
X0930875
X0925875
X0920875
X0918375Y04559
Y04459
X09111Y0446209
X0905875Y04409
X09011Y0445468
X0895875Y04409
X08914Y0445697
X08811
X0873375Y04459
X0868375
X0863375
X0858375
X0853375
X0848375
X0843375
X0838375
X08347Y0445467
X0828375Y04459
X08248Y0445467
X0818375Y04459
X0820875Y04609
X0825875
X0830875
X0835875
X0840875
X0845875
X0850875
X0855875
X0860875
X0865875
X0870875
X0868375Y04559
X0863375
X0858375
X0853375
X0848375
X0843375
X0845875Y04509
X0850875
X0855875
X0860875
X0865875
X0870875
Y04409
X0875875
X08763Y04362
X0875875Y04309
X0873375Y04259
X0868375
X0863375
X0858375
X0853375
X0848375
X0843375
X0838375
X0840875Y04209
X0845875
X0850875
X0855875
X0860875
X0865875
X0870875
X0875875
X0873375Y04159
X0868375
X0863375
X0858375
X0853375
X0848375
X0843375
X0838375
X0828375
X0830875Y04209
X0828375Y04259
X0830875Y04309
X0820875
X0818375Y04259
X0820875Y04209
X0818375Y04159
X0820875Y04109
X0818375Y04059
X0820875Y04009
X0818375Y03959
X0828375Y04059
X0830875Y04109
X0840875Y03909
X0845875
X0850875
X0855875
X0860875
X0865875
X0870875
X0875875
X0880875
X0885875
X0890875
X0895875
X0900875
X0905875
X0910875
X0913375Y03959
X0918375
Y04059
X0913375
X0910875Y04009
X0905875
X0900875
X0895875
X0898375Y03959
X0903375
X0908375
Y03859
X0913375
X0918375
Y03759
X0913375
X0908375
X0903375
X0898375
X0893375
X0888375
X0883375
X0878375
X0873375
X0868375
X0863375
X0858375
X0853375
X0848375
X0843375
X0838375
X0840875Y03809
X0845875
X0850875
X0855875
X0860875
X0865875
X0870875
X0875875
X0880875
X0885875
X0890875
X0895875
X0900875
X0905875
X0910875
Y03709
X0905875
X0900875
X0895875
X0890875
X0885875
X0880875
X0875875
X0870875
X0865875
X0860875
X0855875
X0850875
X0845875
X0840875
X0843375Y03659
X0848375
X0853375
X0858375
X0863375
X0868375
X0873375
X0878375
X0883375
X0888375
X0893375
X0898375
X0903375
X0908375
X0913375
X0918375
Y03559
X0913375
X0908375
X0903375
X0898375
X0893375
X0888375
X0883375
X0878375
X0873375
X0868375
X0863375
X0858375
X0853375
X0848375
X0843375
X0838375
X0833375
X0835875Y03609
X0840875
X0845875
X0850875
X0855875
X0860875
X0865875
X0870875
X0875875
X0880875
X0885875
X0890875
X0895875
X0900875
X0905875
X0910875
Y03509
X0905875
X0900875
X0895875
X0890875
X0885875
X0880875
X0875875
X0870875
X0865875
X0860875
X0855875
X0850875
X0845875
X0840875
X0835875
X0830875
X0833375Y03459
X0838375
X0843375
X0848375
X0853375
X0858375
X0863375
X0868375
X0873375
X0878375
X0883375
X0888375
X0893375
X0898375
X0903375
X0908375
X0913375
X0918375
Y03359
X0913375
X0908375
X0903375
X0898375
X0893375
X0888375
X0883375
X0878375
X0873375
X0868375
X0863375
X0858375
X0853375
X0848375
X0843375
X0838375
X0833375
X0828375
X0823375
X0825875Y03409
X0830875
X0835875
X0840875
X0845875
X0850875
X0855875
X0860875
X0865875
X0870875
X0875875
X0880875
X0885875
X0890875
X0895875
X0900875
X0905875
X0910875
Y03309
X0905875
X0900875
X0895875
X0890875
X0885875
X0880875
X0875875
X0870875
X0865875
X0860875
X0855875
X0850875
X0845875
X0840875
X0835875
X0830875
X0825875
X0820875
X0823375Y03259
X0828375
X0833375
X0838375
X0843375
X0848375
X0853375
X0858375
X0863375
X0868375
X0873375
X0878375
X0883375
X0888375
X0893375
X0898375
X0903375
X0908375
X0920875Y03209
X0925875
X0930875
X0935875
X0940875
X0930875Y03109
X0925875
X0920875
X0910875
X0905875
X0900875
X0895875
X0890875
X0885875
X0880875
X0875875
X0870875
X0865875
X0860875
X0855875
X0850875
X0845875
X0840875
X0835875
X0830875
X0825875
X0820875
X0818375Y03259
X08248Y03462
X0828375Y03459
Y03659
X0833047Y0363866
X0838375Y03659
X0830875Y03709
X0828375Y03759
X0830875Y03809
X0838375Y03859
X0843375
X0848375
X0853375
X0858375
X0863375
X0868375
X0873375
X0878375
X0883375
X0888375
X0893375
X0898375
X0903375
X0893375Y03959
X0888375
X0883375
X0876903Y03989
X0888753Y04022
X0899189Y04085
X0905875Y04109
X0905172Y04053
X0905875Y04209
Y04309
X0895875
Y04209
X0885875
Y04309
Y04409
X0865875
X0860875
X0855875
X0850875
X0845875
X0840875
Y04509
X08506Y04334
X0880875Y04609
X0890875
X0900875
X0910875
X0918375Y04359
Y04259
Y04159
X0820875Y03709
X0818375Y03659
X0820875Y03609
X0818375Y03559
X0808375
X0810875Y03609
Y03509
X0808375Y03459
X0798375
X0793375
X0795875Y03409
X0800875
X0798375Y03359
X0793375
X0788375
X0783375
X0785875Y03309
X0790875
X0795875
X0788375Y03259
X0783375
X0778375
X0773375
X0780875Y03309
X0790875Y03409
X0800875Y03509
X0798375Y03759
X0793375
X0788375
X0783375
X0778375
X0773375
X0768375
X0763375
X0758375
X0753375
X0748375
X0743375
X0745875Y03809
X0750875
X0755875
X0760875
X0765875
X0770875
X0775875
X0780875
X0785875
X0790875
X0795875
X0800875
X0798375Y03859
X0793375
X0788375
X0783375
X0778375
X0773375
X0768375
X0763375
X0758375
X0753375
X0755875Y03709
X0760875
X0765875
X0770875
X0775875
X0780875
X0785875
X0790875
X0788375Y03659
X0783375
X0778375
X0773375
X0768375
X0763375
X0758375
X0753375
X0748375
X0743375
X0738375
X0733375
X0735875Y03709
X0740875
X0745875
X0750875
Y03609
X0755875
X0760875
X0765875
X0770875
X0775875
X0780875
X0778375Y03559
X0773375
X0768375
X0763375
X0758375
X0753375
X0748375
X0743375
X0738375
X0733375
X0728375
X0723375
X0718375
X0720875Y03609
X0725875
X0730875
X0735875
X0740875
X0745875
Y03509
X0750875
X0755875
X0760875
X0765875
X0770875
X0768375Y03459
X0763375
X0758375
X0753375
X0748375
X0743375
X0738375
X0733375
X0728375
X0723375
X0718375
X0713375
X0708375
X0710875Y03509
X0715875
X0720875
X0725875
X0730875
X0735875
X0740875
Y03409
X0745875
X0750875
X0755875
X0760875
X0758375Y03359
X0753375
X0748375
X0743375
X0738375
X0733375
X0728375
X0723375
X0718375
X0713375
X0708375
X0703375
X0698375
X0693375
X0688375
X0683375
X0678375
Y03459
X0683375
X0688375
X0693375
X0695875Y03509
X0700875
X0703375Y03559
X0698375
X0693375
X0688375
X0683375
X0678375
X0673375
X0675875Y03609
X0680875
X0685875
X0690875
X0695875
X0700875
X0705875
X0710875
Y03409
X0715875
X0720875
X0725875
X0730875
X0735875
Y03109
X0740875
X0745875
X0750875
X0755875
X0760875
X0765875
X0770875
X0775875
X0780875
X0785875
X0790875
X0795875
X0800875
X0810875
X0815875
X0813375Y03159
X0815875Y03209
X0814382Y0326182
X0808375Y03859
X0810875Y03909
X0808375Y03959
X0810875Y04009
X0808375Y04059
X0810875Y04109
X0808375Y04159
X0810875Y04209
X0808375Y04259
X0810875Y04309
X0800875
X0795875
X0790875
X0785875
X0780875
X0775875
X0770875
X0773375Y04259
X0768375
X0770875Y04209
X0775875
X0780875
X0785875
X0790875
X0795875
X0800875
X0798375Y04259
X0793375
X0788375
X0783375
Y04159
X0788375
X0793375
X0798375
X0800875Y04109
X0795875
X0790875
X0785875
X0780875
X0775875
X0770875
X0773375Y04159
X0768375
Y04059
X0773375
X0775875Y04009
X0770875
X0765875
X0768375Y03959
X0773375
X0775875Y03909
X0780875
X0785875
X0790875
X0795875
X0800875
X0798375Y03959
X0793375
X0788375
X0783375
X0785875Y04009
X0790875
X0795875
X0800875
X0798375Y04059
X0793375
X0788375
X0783375
X0780875Y04009
X0763375Y03959
X0758375Y04059
Y04159
Y04259
X0748375
X0743375
X0738375
X0740875Y04309
X0745875
X0748375Y04359
X0743375
X0738375
X0740875Y04409
X0745875
X0748375Y04459
X0743375
X0738375
X0740875Y04509
X0745875
X0748375Y04559
X0743375
X0745875Y04609
X0750875
X0740875
X0735875
Y04409
Y04309
Y04209
X0740875
X0745875
X0748375Y04159
X0743375
X0738375
X0745875Y04109
X0748375Y04059
X0745875Y04009
X0730875
X0725875
X0728375Y03959
X0733375
X0723375
X0705875Y04009
X0700875
X0695875
X0690875
X0685875
X0680875
X0683375Y04059
X0688375
X0693375
X0690875Y04109
X0685875
X0680875
X0683375Y04159
X0688375
X0693375
X0690875Y04209
X0693375Y04259
X0703375
X0708375
X0713375
X0718375
X0715875Y04209
X0710875
X0705875
X0708375Y04159
X0713375
X0718375
X0703375
Y04359
Y04459
Y04559
X0705875Y04609
X0690875
X0693375Y04559
X0690875Y04509
X0693375Y04459
X06881Y044582
X06907Y0440278
X0675877Y0440277
X06707Y04408
X0663375Y04359
X06682Y04554
X0673318Y0460573
X0718375Y04459
X0758375
X0768375
X0773375
X0775875Y04509
X0770875
X0773375Y04559
X0768375
X0770875Y04609
X0775875
X0780875
X0785875
X0790875
X0795875
X0800875
X0805875
X0810875
X0815875
X08144Y0445806
X0808375Y04459
X08046Y0446314
X0798375Y04459
X0793375
X0788375
X0783375
X0785875Y04509
X0790875
X0793375Y04559
X0788375
X0783375
X0780875Y04509
Y04409
X0775875
X0770875
X0785875
X0790875
X0795875
X0793Y04359
X0752854Y0434615
X0758375Y04559
X0765875Y04609
X0698375Y03959
X0693375
X0688375
X0683375
X0678375
X0673375
X0675875Y03509
X0680875
X0685875
X0690875
X0700875Y03409
X0705875
Y03109
X0710875
X0715875
X0720875
X0725875
X0730875
X0700875
X0695875
X0690875
X0680875Y03209
X0663375Y03259
X0665875Y03309
X0663375Y03359
Y03459
X0668375
X0673375
X06715Y03419
X0670875Y03509
X0665875
X07237Y0369
X0660875Y03509
X0655875
X0658375Y03459
X06425Y03459
X0638375Y03459
X0633375
X0628375
X0630875Y03509
X0635875
X0640875
X0633375Y03559
X0628375
X0623375
X0618375
X0620875Y03509
X0625875
X0615875
X0610875
X0605875
X0600875
X0595875
X0590875
X0583375Y03359
X0578375
X0573375
X0568375
X0570875Y03309
X0575875
X0580875
X0583375Y03259
X0588375
X0585875Y03209
X0580875
X0575875
X0570875
X0565875
X0560875
X0563375Y03259
X0568375
X0573375
X0578375
X0565875Y03309
X0558375Y03259
X0553375
X0549585Y0324315
X05446Y03205
X0540875Y03209
X0535875
X0538375Y03159
X0533375
X0530875Y03109
X0525875
Y03209
X0520875
X0515875
X0510875
X0505875
X0508375Y03259
X0513375
X0518375
X0523375
X0528375
X05398Y03261
X0515875Y03309
X0510875
X0505875
X0508375Y03359
X0513375
X0518375
X0515875Y03509
X0510875
X0505875
X0508375Y03659
Y03759
X0513375
X0518375
X0520875Y03809
X0525875
X05332Y0381
X05358Y03851
X0539585Y038555
X0544585Y0383002
X0549585Y0380397
X0534585Y0375285
X0528375Y03859
X0523375
X0518375
X0513375
X0508375
X0510875Y03909
X0515875
X0520875
X0525875
X0515875Y03809
X0510875
X051425Y040935
X0518Y04066
X05121Y04154
X0505875Y04209
X0525875
X0528375Y04459
X0518Y04416
X05142Y044
X0513158Y0453042
X05134Y04592
X0513735Y0462884
X0545875Y04609
X0550875
X0555875
X0560875
X0565875
X0570875
X0573375Y04559
X0568375
X0563375
X0558375
X0553375
X0548375
X0543375
X0545875Y04509
X0550875
X0555875
X0560875
X0565875
X0570875
X0573375Y04459
X0568375
X0563375
X0558375
X0553375
X0548375
X0543375
X0545875Y04409
X0550875
X0555875
X0560875
X0565875
X0570875
X0573375Y04359
X0578375
X0580875Y04309
X0575875
X0570875
X0565875
X0560875
X0555875
X0550875
X0553375Y04359
X0558375
X0563375
X0568375
Y04259
X0573375
X0578375
X0583375
X0563375
X0558375
X0553375
X0548375Y04359
X0543375
X0560875Y04109
X0563375Y04059
X0565875Y04009
X0570875
X0575875
X0580875
X0585875
X0583375Y03959
X0578375
X0573375
X0568375
X0563375
X0560875Y04009
X05751Y04086
X05714Y04124
X05861Y04084
X06074Y04051
X06076Y0401
X0610875Y03909
X063Y03913
X06333Y03912
X06362Y03911
X0640875Y03909
X0645875
X06526Y03987
X06559Y03957
X0660106Y0396505
X0660875Y04009
X0653679Y0408979
X06603Y0416
X0658375Y04359
X0653375
X0648375
X0643375
X0638375
X0633375
X0628375
X0623375
X0618375
X0613375
X0608375
X0603375
X0600875Y04409
X06026Y04593
X0585875Y04609
X0630875Y04509
X06328Y04436
X0635875Y04409
X0645875
X0650875
X0648375Y04459
X0645875Y04509
X06494Y046
X065705Y044845
X06094Y0416
X0628375Y03959
X0628813Y0368687
X0635875Y03409
X0630875Y03309
Y03209
X0635875
X0640875
X0643375Y03259
X0638375
Y03159
X0643375
X0640875Y03109
X0635875
X0630875
X0625875
X0620875
X0615875
X0610875
X0613375Y03159
X0618375
X0623375
X0628375
X0633375
X0625875Y03209
X0620875
X0615875
X0608375Y03159
X06034Y03129
X0603543Y0323042
X05991Y0324
X0655875Y03209
X0658375Y03259
X0660875Y03309
X0655875
X0568375Y03659
X0518375Y03159
X0513375
X0508375
X0510875Y03109
X0515875
X0505875
X0500875
X0495875
X0490875
X0493375Y03159
X0498375
X0503375
X0500875Y03209
X0495875
X0490875
X0485875
X0480875
X0483375Y03259
X0488375
X0493375
X0498375
X0503375
Y03359
X0500875Y03509
X0495875
X0490875
X0485875
X0480875
X0475875
X0470875
X0465875
X0460875
X0455875
X0450875
X0445875
X0440875
X0435875
X0430875
X0425875
X0420875
X0415875
X0410875
X0405875
X0400875
X0403375Y03559
X0398375
Y03659
Y03759
Y03859
X0403375
X0408375
X0410875Y03909
X0405875
X0408375Y03959
X0413375
X0415875Y04009
X0420875
X0423375Y04059
X0418375
X0413375
X0415875Y04109
X0420875
X0425875
X0430875
X0433375Y04159
X0428375
X0423375
X0425875Y04209
X0430875
X0435875
X0440875
X0445875
X0450875
X0455875
X0460875
X0465875
X0468375Y04259
X0463375
X0458375
X0453375
X0448375
X0443375
X0438375
X0433375
X0435875Y04309
X0440875
X0445875
X0450875
X0455875
X0460875
X0465875
X0470875
X0475875
X0468375Y04359
X0463375
X0458375
X0453375
X0448375
X0443375
X0438375
X0433375
X0435875Y04409
X0440875
X0445875
X0450875
X0453375Y04459
X0448375
X0443375
X0438375
X0433375
X0430875Y04509
X0425875
X0420875
X0423375Y04559
X0425875Y04609
X0430875
X0420875
X0414961Y0463314
X04094Y0452844
X03993Y0453218
X0388894
X0378847
X03525Y0452718
X0353375Y04059
X0355875Y04009
X0350875
X0353375Y03959
X0358375
X0360875Y03909
X0355875
X0350875
X0353375Y03859
X0358375
X0360875Y03809
X0355875
X0350875
X0353375Y03759
X0358375
X0360875Y03709
X0355875
X0350875
X0353375Y03659
X0358375
X0360875Y03609
X0355875
X0350875
X0353375Y03559
X0358375
X0360875Y03509
X0355875
X0350875
X0353375Y03459
X0358375
X0350875Y03409
Y03309
X0353375Y03259
X0358375
X0363375
X0368375
X0370875Y03309
Y03209
X0365875
X0360875
X0355875
X0350875
X0353375Y03159
X0358375
X0363375
X0368375
X0373375
X0375875Y03109
X0380875
X0370875
X0365875
X0360875
X0355875
X0350875
X0398375Y03359
X0443375
X0448375
X0453375
X0458375
X0455875Y03309
X0450875
X0445875
X0468375Y03259
X0478375Y03159
X0483375
X0488375
X0490875Y03809
X0495875
X0498375Y03859
X0493375
X0488375
X0483375
X0478375
X0480875Y03909
X0485875
X0490875
X0495875
X0493375Y03959
X0488375
X0483375
X0468375
X0463375
X0458375
X0453375
X0448375
X0443375
X0445875Y04009
X0450875
X0455875
X0460875
X0465875
X0470875
X0468375Y04059
X0463375
X0458375
X0453375
X0455875Y03909
X0460875
X0465875
X0468375Y03859
X0463375
X0458375
X0453375
X0448375
X0443375
X0438375
X0433375
X0435875Y03909
X0440875
X0445875
X0450875
Y03809
X0455875
X0460875
X0465875
X0458375Y03759
X0453375
X0448375
X0443375
X0445875Y03809
X0440875
X0435875
X0430875
X0445875Y03709
X0450875
X0455875
X0458375Y03659
X0453375
X0448375
X0443375
X0480875Y03809
X0485875
X0490875Y04309
X0488375Y04359
X0490875Y04409
X0495875
X0470875
X04717Y04468
X0475Y04469
X04532Y0459
X04455Y04571
X04404Y04587
X0430875Y04409
X0425875
X0420875
X0415875
X0410875
X0413375Y04459
X0418375
X0423375
Y04359
X0418375
X0413375
X0408375
X0403375
X0405875Y04309
X0410875
X0415875
X0420875
X0425875
X0430875
X0423375Y04259
X0418375
X0413375
X0408375
X0403375
X0398375
X0400875Y04309
Y04209
X0405875
X0410875
X0415875
X0413375Y04159
X0408375
X0403375
X0398375
X0400875Y04109
X0405875
X0403375Y04059
X0398375
Y03959
X0403375
X0405875Y04009
X0410875
X0405875Y03809
X0345875
X0340875
X0335875
X0330875
X0325875
X0320875
X0315875
X0318375Y03859
X0323375
X0328375
X0333375
X0338375
X0343375
X0348375
X0345875Y03909
X0340875
X0335875
X0330875
X0325875
X0320875
X0315875
X0310875
X0305875
X0308375Y03959
X0313375
X0310875Y04009
X0305875
X0308375Y04059
X0303375
X0305875Y04109
X0310875
X0315875
X0320875
X0325875
X0330875
X0335875
X0340875
X0345875
X0348375Y04059
X0343375
X0338375
X0333375
X0335875Y04009
X0340875
X0345875
X0348375Y03959
X0343375
X0338375
X0333375
Y04159
X0338375
X0343375
X0335875Y04209
X0330875
X0325875
X0320875
X0315875
X0310875
X0305875
X0300875
X0295875
X0290875
X0285875
X0280875
X0283375Y04259
X0288375
X0293375
X0298375
X0303375
X0308375
X0313375
X0318375
X0323375
X0328375
X0333375
X0328375Y04159
X0323375
X0318375
X0313375
X0308375
X0303375
X0298375
X0293375
X0300875Y04109
X0303375Y03959
X0313375Y03859
X0323375Y03759
X0328375
X0333375
X0338375
X0343375
X0348375
X0345875Y03709
X0340875
X0335875
X0330875
X0325875
X0333375Y03659
X0338375
X0343375
X0348375
X0345875Y03609
X0340875
X0335875
X0338375Y03559
X0343375
X0348375
X0345875Y03509
X0340875
X0335875
X0338375Y03459
X0343375
X0348375
X0345875Y03409
X0340875
X0335875
X0338375Y03359
X0343375
X0348375
X0345875Y03309
X0340875
X0335875
X0338375Y03259
X0343375
X0348375
X0345875Y03209
X0340875
X0335875
X0338375Y03159
X0343375
X0348375
X0345875Y03109
X0340875
X0335875
X0333375Y03159
Y03259
Y03459
Y03559
X0318375
X0313375
X0308375
X0303375
X0298375
X0293375
X0288375
X0283375
X0278375
X0273375
X0268375
X0263375
X0258375
X0253375
X0248375
X0243375
X0245875Y03509
X0250875
X0255875
X0260875
X0265875
X0270875
X0275875
X0280875
X0285875
X0290875
X0295875
X0300875
X0298375Y03459
X0293375
X0288375
X0283375
X0278375
X0273375
X0268375
X0263375
X0258375
X0253375
X0248375
X0243375
X0238375
X0233375
X0228375
X0223375
X0218375
X0213375
X0208375
X0203375
X0205875Y03509
X0210875
X0215875
X0220875
X0225875
X0230875
X0235875
X0240875
Y03409
X0245875
X0250875
X0255875
X0260875
X0265875
X0270875
X0275875
X0280875
X0285875
X0290875
X0295875
X0300875
X0298375Y03359
X0293375
X0288375
X0283375
X0278375
X0273375
X0268375
X0263375
X0258375
X0253375
X0248375
X0243375
X0238375
X0233375
X0228375
X0223375
X0218375
X0213375
X0208375
X0203375
X0198375
X0193375
X0195875Y03409
X0200875
X0205875
X0210875
X0215875
X0220875
X0225875
X0230875
X0235875
Y03309
X0240875
X0245875
X0250875
X0255875
X0260875
X0265875
X0270875
X0275875
X0280875
X0285875
X0290875
X0295875
X0300875
X0298375Y03259
X0293375
X0288375
X0283375
X0278375
X0280875Y03209
X0285875
X0290875
X0295875
X0293375Y03159
X0288375
X0283375
X0285875Y03109
X0290875
X0295875
X0280875
X0320875
X0318375Y03459
X0320875Y03509
X0315875
Y03609
X0310875
X0305875
X0300875
X0295875
X0290875
X0285875
X0280875
X0275875
X0270875
X0265875
X0260875
X0255875
X0250875
X0253375Y03659
X0258375
X0263375
X0268375
X0273375
X0278375
X0283375
X0288375
X0293375
X0298375
X0303375
X0308375
X0313375
X0305875Y03709
X0300875
X0295875
X0290875
X0285875
X0280875
X0275875
X0270875
X0265875
X0260875
X0255875
X0250875
X0245875
X0240875
X0243375Y03759
X0248375
X0253375
X0258375
X0263375
X0268375
X0273375
X0278375
X0283375
X0288375
X0293375
X0298375
X0303375
X0295875Y03809
X0290875
X0285875
X0280875
X0275875
X0270875
X0265875
X0260875
X0255875
X0250875
X0245875
X0240875
X0243375Y03859
X0248375
X0253375
X0258375
X0263375
X0268375
X0273375
X0278375
X0283375
X0288375
X0293375
X0285875Y03909
X0280875
X0275875
X0270875
X0265875
X0260875
X0255875
X0250875
X0245875
X0240875
X0243375Y03959
X0248375
X0253375
X0258375
X0263375
X0268375
X0265875Y04009
X0260875
X0255875
X0250875
X0253375Y04059
X0258375
X0255875Y04109
X0235875
X0230875
X0225875
X0220875
X0215875
X0210875
X0205875
X0208375Y04159
X0213375
X0218375
X0223375
X0228375
X0233375
X0235875Y04209
X0230875
X0225875
X0228375Y04259
X0233375
X0235875Y04309
X0230875
X0225875
X0223375Y04259
X0218375Y04359
X0213375
X0208375
X0203375
X0198375
X0200875Y04409
X0205875
X0210875
X0215875
X0220875
X0225875
X0230875
X0233375Y04459
X0228375
X0223375
X0218375
X0213375
X0208375
X0203375
X0195875Y04309
X0193375Y04259
X0195875Y04209
X0198375Y04159
X0193375
X0198375Y04059
X0203375
X0208375
X0213375
X0218375
X0223375
X0228375
X0233375
X0223375Y03859
X0218375
X0213375
X0208375
X0203375
X0198375
X0193375
X0195875Y03809
X0200875
X0205875
X0210875
X0215875
X0220875
X0223375Y03759
X0228375
X0230875Y03709
X0225875
X0220875
X0215875
X0210875
X0205875
X0208375Y03759
X0213375
X0218375
X0203375
X0205875Y03309
X0210875
X0215875
X0220875
X0225875
X0230875
X0243375Y03259
X0245875Y03209
X0248375Y03659
X0243375
X0200875Y03309
X0195875
X02508Y04366
X0253375Y04459
X0258375
X0263375
X0265875Y04409
X0270875
X0273375Y04359
X0268375
X0263375
X0265875Y04309
X0270875
X0275875
X0280875
X0278375Y04259
X0260875Y04309
Y04409
Y04509
X0255875
X0250875
X0253375Y04559
X0248375
X0243375
X0245875Y04609
X0250875
X0240875
X0275875
X0280875
X0285875
X0290875
X0295875
X0300875
X0305875
X0310875
X0308375Y04559
X0303375
X0298375
X0293375
X0288375
X0283375
X0278375
X0285875Y04509
X0290875
X0295875
X0300875
X0305875
X0310875
X0315875
X0318375Y04459
X0323375
X03224Y04524
X0332406Y0452718
X034235
X0313375Y04459
X0308375
X0303375
X0298375
X0293375
X0288375
X0188375
X0183375
X0185875Y04409
X0183375Y04359
X0183826Y0429974
X0183743Y0425643
X0188375Y04259
X0190875Y04209
X0185875
X0188375Y04159
X0183375
X0185875Y04109
X0190875
X0188375Y04059
X0183375
X0178375Y03959
X0173375
X0168375
X0170875Y03909
X0175875
Y03809
X0180875
X0185875
X0190875
X0188Y03842
X0188375Y03759
X0183375
X0185875Y03709
Y03509
X0183375Y03459
X0185875Y03409
X0190875
X0188375Y03359
X0183375
X0178375
X0173375
X0168375
X0163375
X0158375
X0153375
X0155875Y03409
X0160875
X0165875
X0170875
X0175875
X0180875
Y03309
X0185875
X0190875
X0175875
X0170875
X0165875
X0160875
X0155875
X01534Y03172
X01489
X0144Y03171
X0140875Y03209
X0138375Y03259
X0135875Y03309
X0120875
X0115875
X0118375Y03259
X0113375
X0115875Y03209
X0120875
X0123375Y03159
X0118375
X0130875Y03109
X0145875
X0153375Y03459
X0158375
X0163375
X0165875Y03509
X0160875
X0155875
X0158375Y03559
X0163375
X0168375
X0170875Y03609
X0175875
X0165875
X0160875
X0155875
X0158375Y03659
X0163375
X0165875Y03709
X0160875
X0155875
X0158375Y03759
X0163375
X0168375
X0170875Y03809
X01647Y03842
X01649Y03873
X0165875Y03909
Y04009
X0168375Y04059
X0165875Y04109
X0168375Y04159
X0165875Y04209
X0168375Y04259
X0165875Y04309
X0150875
X0153375Y04259
X0148375
X0150875Y04209
X0153375Y04159
Y04059
Y03959
Y03859
X0158375
X0160875Y03809
X0155875
X0153375Y03759
Y03659
Y03559
X0140875Y03709
Y03809
Y03909
X0135875
X0130875
X0133375Y03959
X0138375
X0140875Y04009
X0138375Y04059
X01403Y04108
X01401Y04158
X014Y04258
X0140875Y04309
X0135875
X0138375Y04359
X0135875Y04409
X0130875
X0125875
X0120875
X0115875
X0110875
X0105875
X0100875
X0103375Y04459
X0108375
X0113375
X0118375
X0123375
X0128375
X0133375
X0138375
X0140875Y04509
X0135875
X0130875
X0125875
X0120875
X0115875
X0110875
X0105875
X0100875
X0095875
X0090875
X0088375Y04459
X0083375
X0078375
X0073375
X0068375
X0063375
X0058375
X0053375
X0048375
X0050875Y04409
X0055875
X0060875
X0063375Y04359
X0058375
X0053375
X0048375
X0050875Y04309
X0055875
X0060875
X0063375Y04259
X0058375
X0053375
X0048375
X0043375
X0045875Y04309
X0040875
X0050875Y04209
X0055875
X0060875
X0053375Y04159
X0048375
X0040875Y04109
X0053375Y04059
X0055875Y04009
X0060875
X0063375Y03959
X0058375
X0053375
X0048375
X0050875Y04009
Y03909
X0055875
X0060875
Y03809
X0055875
X0050875
X0045875
X0040875
X0043375Y03759
X0048375
X0053375
X0050875Y03709
X0045875
X0040875
X0043375Y03659
X0048375
X0050875Y03609
X0048375Y03559
X0050875Y03509
X0048375Y03459
X0043375
X0038375
X0045875Y03409
X0050875
X0048375Y03359
X0050875Y03309
Y03209
X0045875
X0043375Y03259
X0038375
X0045875Y03109
X0050875
X0078375Y03159
X0088375
X0093375Y03259
X0098375
X0100875Y03309
X0095875
X0090875
X0085875
X0080875
X0065875
X0063375Y03559
Y03659
X0088375
X0085875Y03709
Y03609
X0088375Y03559
X0085875Y03509
X0093375Y03459
X0095875Y03409
X0090875
X0093375Y03359
X0113375Y03559
X0118375
X0115875Y03609
X0110875
X0113375Y03759
X0108375
X0103375
X0110875Y03909
X0115875
X0118375Y03959
X0113375
X0108375
X0110875Y04009
X0115875
X0118375Y04059
X0113375
X0108375
X0103375
X0105875Y04109
X0110875
X0115875
X0119749Y04107
X0119949Y04171
X0113375Y04159
X0108375
X0103375
X0105875Y04209
X0110875
X0115875
X0118375Y04259
X0113375
X0108375
X0103375
X0105875Y04309
X0110875
X0115875
X0118375Y04359
X0113375
X0108375
X0103375
X0100875Y04309
Y04209
Y04109
X0095875Y04009
X0105875
X0118375Y03859
X0128375Y03759
X0080875Y03909
X0078375Y03959
X0075875Y04009
X0073375Y04059
X00784Y04071
X0075875Y04109
X00782Y04186
X0078375Y04259
X0073375
X0078375Y04359
X0080875Y04409
X0083375Y04559
X0088375
X0093375
X0098375
X0103375
X0108375
X0113375
X0118375
X0123375
X0128375
X0133375
X0138375
X0140875Y04609
X0145875
X0150875
X0155875
X01638Y04626
X0170875Y04609
X0175875
X0178375Y04559
X0173375
X0135875Y04609
X0130875
X0125875
X0120875
X0115875
X0110875
X0105875
X0100875
X0095875
X0090875
X0085875
X0080875
X0075875
X0070875
X0065875
X0060875
X0055875
X0050875
X0045875
X0040875
X0043375Y04559
X0048375
X0053375
X0058375
X0063375
X0068375
X0073375
X0078375
X0098375Y04459
X0038375Y04559
X0040875Y03909
X0045875
X0038375Y03759
Y03659
X0033375
X0028375
X0030875Y03709
X0035875
X0033375Y03759
X0028375
X0030875Y03809
X0035875
Y03909
X0030875
X0025875
X0020875
X0015875
X0010875
X0005875
X0008375Y03959
X0013375
X0018375
X0023375
X0028375
X0030875Y04009
X0025875
X0020875
X0015875
X0010875
X0005875
X0008375Y04059
X0013375
X0018375
X0023375
X0028375
X0033375
X0035875Y04109
X0030875
X0025875
X0020875
X0015875
X0010875
X0005875
X0008375Y04159
X0013375
X0018375
X0023375
X0028375
X0030875Y04209
X0025875
X0020875
X0015875
X0010875
X0005875
X0008375Y04259
X0013375
X0018375
X0023375
X0028375
X0033375
X0035875Y04309
X0030875
X0025875
X0020875
X0015875
X0010875
X0005875
X0008375Y04359
X0013375
X0018375
X0023375
X0028375
X0030875Y04409
X0025875
X0020875
X0015875
X0010875
X0005875
X0008375Y04459
X0013375
X0018375
X0023375
X0028375
Y04559
X0033375
X0035875Y04609
X0030875
X0025875
X0020875
X0015875
X0010875
X0005875
X0008375Y04559
X0013375
X0018375
X0023375
Y03859
X0018375
X0013375
X0008375
X0010875Y03809
X0015875
X0020875
X0018375Y03759
X0013375
X0008375
X0010875Y03709
X0015875
X0020875
X0025875
Y03609
X0020875
X0015875
X0010875
X0005875
X0008375Y03659
X0013375
X0018375
Y03559
X0013375
X0008375
X0010875Y03509
X0015875
X0020875
X0025875
X0030875
X0033375Y03459
X0028375
X0030875Y03409
X0025875
X0020875
X0015875
X0010875
X0005875
X0008375Y03459
X0013375
X0018375
Y03359
X0013375
X0008375
X0010875Y03309
X0015875
X0020875
X0025875
X0030875
X0035875
X0033375Y03259
X0028375
X0030875Y03209
X0025875
X0020875
X0015875
X0010875
X0005875
X0008375Y03259
X0013375
X0018375
Y03159
X0013375
X0008375
X0010875Y03109
X0015875
X0020875
X0025875
X0030875
X0035875
X0028375Y03159
Y03359
Y03559
X0030875Y03609
X0005875Y03709
Y03809
Y03509
Y03309
Y03109
X0018375Y04659
X0023375
X0028375
X0033375
X0035875Y04709
X0030875
X0025875
X0020875
X0015875
X0018375Y04759
X0023375
X0028375
X0033375
X0035875Y04809
X0030875
X0025875
X0020875
X0023375Y04859
X0028375
X0033375
X0035875Y04909
X0030875
X0025875
X0020875
X0015875
X0010875
X0005875
X0008375Y04959
X0013375
X0018375
X0023375
X0028375
X0033375
X0035875Y05009
X0030875
X0025875
X0020875
X0015875
X0010875
X0005875
X0008375Y05059
X0013375
X0018375
X0023375
X0028375
X0033375
X0035875Y05109
X0030875
X0025875
X0020875
X0023375Y05159
X0028375
X0033375
X0035875Y05209
X0030875
X0025875
X0020875
X0015875
X0018375Y05259
X0023375
X0028375
X0033375
X0035875Y05309
X0030875
X0025875
X0020875
X0015875
X0010875
X0005875
X0008375Y05359
X0013375
X0018375
X0023375
X0028375
X0033375
X0035875Y05409
X0030875
X0025875
X0020875
X0015875
X0010875
X0005875
X0008375Y05459
X0013375
X0018375
X0023375
X0028375
X0033375
X0035875Y05509
X0030875
X0025875
X0020875
X0015875
X0010875
X0005875
X0008375Y05559
X0013375
X0018375
X0023375
X0028375
X0033375
X0035875Y05609
X0030875
X0033375Y05659
X0035875Y05709
X0033375Y05759
X0035875Y05809
X0030875
X0010875
X0005875
X0008375Y05759
X0005875Y05709
Y05609
X0010875
X0013375Y05259
X0008375
X0005875Y05109
X0018375Y05159
Y04859
X0013375
X0008375
X0005875Y04809
X0008375Y04759
X0038375
X0043375
X0048375
X0053375
X0058375
X0063375
X0068375
X0073375
X0078375
X0083375
X0088375
X0093375
X0098375
X0103375
X0108375
X0113375
X0118375
X0123375
X0128375
X0133375
X0135875Y04709
X0130875
X0125875
X0120875
X0115875
X0110875
X0105875
X0100875
X0095875
X0090875
X0085875
X0080875
X0075875
X0070875
X0065875
X0068375Y04659
X0073375
X0078375
X0083375
X0088375
X0093375
X0098375
X0103375
X0108375
X0113375
X0118375
X0123375
X0128375
X0133375
X0138375
X0143375
X0148375
X0153375
X0168375
X0173375
X0178375
X01842Y04651
X0180875Y04709
X0175875
X0170875
X0173375Y04759
X0178375
X01727Y04817
X01842Y04885
X0188375Y04859
Y04959
X0183375
X0178375
X01727Y05037
X0168375Y05059
X0163375
X0165875Y05109
X0170875
X0175875
X0180875
X0185875
X0190875
X0188375Y05159
X0183375
X0178375
X0173375
X0168375
X0163375
X0158375
X0153375
X0148375
X0143375
X0138375
X0133375
X0128375
X0123375
X0118375
X0113375
X0108375
X0103375
X0098375
X0093375
X0090875Y05209
X0088375Y05259
X0083375
X0078375
X0073375
X0068375
X0063375
X0058375
X0053375
X0048375
X0043375
X0038375
X0040875Y05309
X0045875
X0050875
X0055875
X0060875
X0065875
X0063375Y05359
X0058375
X0053375
X0048375
X0043375
X0038375
X0040875Y05409
X0045875
X0050875
X0055875
X0065875
X0070875
X0073375Y05359
X0078375
X0085875Y05409
X0090875
X0095875
X0098375Y05359
X0103375
X0093375
X0088375Y05459
X0083375
X0085875Y05509
X0088375Y05559
X0093375
X0095875Y05609
X0100875
X0105875
X0110875
X0115875
X0120875
X0125875
X0130875
X0135875
X0140875
X0145875
X0150875
X0155875
X0160875
X0165875
X0170875
X0175875
X0180875
X0185875
X0190875
X0188375Y05659
X0183375
X0178375
X0173375
X0168375
X0163375
X0158375
X0153375
X0148375
X0143375
X0138375
X0133375
X0128375
X0123375
X0118375
X0113375
X0108375
X0103375
X0098375
X0093375
X0088375
X0083375
X0078375
X0073375
X0068375
X0063375
X0065875Y05709
X0070875
X0075875
X0080875
X0085875
X0090875
X0095875
X0100875
X0105875
X0110875
X0115875
X0120875
X0125875
X0130875
X0135875
X0140875
X0145875
X0150875
X0155875
X0160875
X0165875
X0170875
X0175875
X0180875
X0185875
X0190875
X0188375Y05759
X0183375
X0178375
X0173375
X0168375
X0163375
X0158375
X0153375
X0148375
X0143375
X0138375
X0133375
X0128375
X0123375
X0118375
X0113375
X0108375
X0103375
X0098375
X0093375
X0088375
X0083375
X0078375
X0073375
X0068375
X0063375
X0065875Y05809
X0070875
X0075875
X0080875
X0085875
X0090875
X0095875
X0100875
X0105875
X0110875
X0115875
X0120875
X0125875
X0130875
X0135875
X0140875
X0145875
X0150875
X0155875
X0160875
X0165875
X0170875
X0175875
X0180875
X0185875
X0190875
X0188375Y05559
X0183375
X0185875Y05509
X0188375Y05459
X0190875Y05409
X0175875
X0170875
X0168375Y05459
X0165875Y05509
X0168375Y05559
X0173375
X0163375
X0153375
X0148375
X0143375
X0145875Y05509
X0148375Y05459
X0150875Y05409
X0155875
X0158375Y05359
X0163375
X0143375
X0138375
X0135875Y05409
X0130875
X0128375Y05459
X0125875Y05509
X0128375Y05559
X0133375
X0123375
X0113375
X0108375
X0103375
X0105875Y05509
X0108375Y05459
X0110875Y05409
X0115875
X0118375Y05359
X0123375
X01098Y05075
X01137Y05004
X0106Y04928
X0093375Y04959
X01017Y05044
X007908Y050832
X0073375Y05159
X0068375
X0070875Y05209
X0065875
X0055875Y05109
X0050875
X0045875
X0040875
X0043375Y05159
X0038375
X0040875Y05209
X0045875
X0048375Y05059
X0053375
X0055875Y05009
X0050875
X0045875
X0040875
X0043375Y05059
X0038375
Y04959
X0043375
X0048375
X0053375
X0055875Y04909
X0050875
X0045875
X0040875
X0043375Y04859
X0048375
X0053375
X0055875Y04809
X0050875
X0045875
X0040875
X0038375Y04859
X0040875Y04709
X0045875
X0043375Y04659
X0038375
X0063375
X0073375Y04859
X0078595Y0485795
X00792Y04906
X01172Y04798
X01264Y0489
X0165875Y05009
X0160875Y05109
X0155875
X0090875Y05609
X0085875
X0080875
X0075875
X0070875
X0065875
X0068375Y05559
X0073375
X0083375
X0063375
X0065875Y05509
X0068375Y05459
X0063375
X0048375
X0043375
X0038375
X0040875Y05509
X0045875
X0048375Y05559
X0053375
X0055875Y05609
X0050875
X0045875
X0040875
X0043375Y05659
X0048375
X0053375
X0055875Y05709
X0050875
X0045875
X0040875
X0043375Y05759
X0048375
X0053375
X0055875Y05809
X0050875
X0045875
X0040875
X0038375Y05759
Y05659
Y05559
X0043375
X0193375
X0195875Y05609
X0200875
X0205875
X0210875
X0215875
X0220875
X0225875
X0230875
X0235875
X0240875
X0245875
X0250875
X0255875
X0260875
X0265875
X0270875
X0275875
X0280875
X0285875
X0290875
X0295875
X0300875
X0305875
X0310875
X0315875
X0320875
X0325875
X0330875
X0335875
X0340875
X0345875
X0348375Y05659
X0343375
X0338375
X0333375
X0328375
X0323375
X0318375
X0313375
X0308375
X0303375
X0298375
X0293375
X0288375
X0283375
X0278375
X0273375
X0268375
X0263375
X0258375
X0253375
X0248375
X0243375
X0238375
X0233375
X0228375
X0223375
X0218375
X0213375
X0208375
X0203375
X0198375
X0193375
X0195875Y05709
X0200875
X0205875
X0210875
X0215875
X0220875
X0225875
X0230875
X0235875
X0240875
X0245875
X0250875
X0255875
X0260875
X0265875
X0270875
X0275875
X0280875
X0285875
X0290875
X0295875
X0300875
X0305875
X0310875
X0315875
X0320875
X0325875
X0330875
X0335875
X0340875
X0345875
X0348375Y05759
X0343375
X0338375
X0333375
X0328375
X0323375
X0318375
X0313375
X0308375
X0303375
X0298375
X0293375
X0288375
X0283375
X0278375
X0273375
X0268375
X0263375
X0258375
X0253375
X0248375
X0243375
X0238375
X0233375
X0228375
X0223375
X0218375
X0213375
X0208375
X0203375
X0198375
X0193375
X0195875Y05809
X0200875
X0205875
X0210875
X0215875
X0220875
X0225875
X0230875
X0235875
X0240875
X0245875
X0250875
X0255875
X0260875
X0265875
X0270875
X0275875
X0280875
X0285875
X0290875
X0295875
X0300875
X0305875
X0310875
X0315875
X0320875
X0325875
X0330875
X0335875
X0340875
X0345875
X0348375Y05559
X0338375
X0333375
X0328375
X0318375
X0313375
X0308375
X0298375
X0293375
X0288375
X0278375
X0273375
X0268375
X0258375
X0253375
X0248375
X0238375
X0233375
X0228375
X0230875Y05509
X0235875
X0233375Y05459
X0228375
X0225875Y05509
X0235875Y05409
X0240875
X0245875
X0250875
X0255875
X0260875
X0265875
X0268375Y05359
X0273375
X0283375
X0288375
X0293375
X0298375
X0303375
X0308375
X0313375
Y05459
X0315875Y05509
X0320875Y05409
X0325875
X0330875
X0335875
X0340875
X0345875
X0338375Y05459
X0333375
X0335875Y05509
X0338375Y05259
X0343375
X0348375
X0333375
X0328375
X0323375
X0318375
X0313375
X0308375
X0303375
X0298375
X0293375
X0288375
X0283375
X0278375
X0273375
X0268375
X0263375
X0258375
X0253375
X0248375
Y05359
X0253375
X0258375
X0263375
X0258375Y05459
X0253375
X0255875Y05509
X0275875
X0273375Y05459
X0280875Y05409
X0285875
X0290875
X0295875
X0300875
X0305875
X0298375Y05459
X0293375
X0295875Y05509
Y05209
X0300875
X0303375Y05159
X0298375
X0293375
X0288375
X0283375
X0278375
X0273375
X0268375
X0263375
X0258375
X0260875Y05209
X0265875
X0270875
X0275875
X0280875
X0285875
X0290875
Y05109
X0295875
X0300875
X0305875
X0303375Y05059
X0298375
X0293375
X0288375
X0283375
X0278375
X0273375
X0268375
X0270875Y05109
X0275875
X0280875
X0285875
Y05009
X0290875
X0295875
X0300875
X0303375Y04959
X0298375
X0293375
X0288375
X0283375
X0278375
X0280875Y05009
X0275875
X0285875Y04909
X0290875
X0295875
X0300875
X0305875
X0310875
X0313375Y04859
X0308375
X0303375
X0298375
X0293375
X0288375
X0270875Y04709
X0265875
X0268375Y04659
X0273375
X0263375Y04759
X0258375
X0260875Y04809
X0255875
X0253375Y04859
X0248375
X0250875Y04909
X0245875
X0243375Y04959
X0238375
X0240875Y05009
X0235875
X0233375Y05059
X0228375
X0230875Y05109
X0225875
X0220875
X0215875
X0210875
X0205875
X0200875
X0195875
X0198375Y05159
X0203375
X0208375
X0213375
X0218375
X0223375
X0193375
X01961Y04945
X01935Y04913
X0200875Y04809
X0203375Y04759
X0208375
X0213375
X0215875Y04709
X0220875
X0225875
X0230875
X0235875
X0240875
X0243375Y04659
X0238375
X0233375
X0228375
X0223375
X0218375
X0213375
X0203375
X0205875Y04709
X0200875
X0195875Y05409
X0210875
X0208375Y05459
X0205875Y05509
X0208375Y05559
X0203375
X0238375Y05359
X0243375
X0255875Y05209
X0265875Y05109
X0310161Y0499097
X0323046
X03225Y04877
X03326
X03423Y04888
X0335932Y0499097
X0348818
X03296Y0517601
X0353375Y05259
X0358375
X0363375
X0368375
X0373375
X0378375
X0383375
X0388375
X0393375
X0398375
X0403375
X0408375
X0418375
X0420875Y05209
X0425875
X0430875
X0435875
X0438375Y05159
X0433375
X0435875Y05109
X0440875
X0438375Y05059
X0433375
X0435875Y05009
X0440875
X0438375Y04959
X0433375
X0435875Y04909
X0440875
X0443375Y04859
X0448375
X0450875Y04809
X0445875
X0440875
X0435875
X0430875
X0425875
X0420875
X0415875
X0418375Y04859
X0423375
X0425875Y04909
X0430875
X0433375Y04859
X0438375
Y04759
X0443375
X0448375
X0450875Y04709
X0445875
X0440875
X0435875
X0430875
X0425875
X0420875
X0415875
X0410875
X0405875
X0408375Y04759
X0413375
X0418375
X0423375
X0433375
Y04659
X0438375
X0443375
X0448375
X0453375
X0458375
X04733Y04651
X0471751Y0494538
X0463651Y0494533
X0454151Y0494223
X0445751Y0494449
X0430875Y05009
X0425875
X0420875
X0423375Y05059
X0418375
X0420875Y05109
X0425875
X0430875
X0423375Y05159
X0418375
X0428375Y05259
X0433375
Y05459
X0435875Y05509
X0438375Y05559
X0433375
X0428375
X0430875Y05609
X0435875
X0440875
X0445875
X0450875
X0455875
X0460875
X0465875
X0470875
X0475875
X0480875
X0485875
X0490875
X0495875
X0500875
X0503375Y05659
X0498375
X0493375
X0488375
X0483375
X0478375
X0473375
X0468375
X0463375
X0458375
X0453375
X0448375
X0443375
X0438375
X0433375
X0428375
X0423375
X0418375
X0413375
X0408375
X0403375
X0398375
X0393375
X0388375
X0383375
X0378375
X0373375
X0368375
X0363375
X0358375
X0353375
X0355875Y05709
X0360875
X0365875
X0370875
X0375875
X0380875
X0385875
X0390875
X0395875
X0400875
X0405875
X0410875
X0415875
X0420875
X0425875
X0430875
X0435875
X0440875
X0445875
X0450875
X0455875
X0460875
X0465875
X0470875
X0475875
X0480875
X0485875
X0490875
X0495875
X0500875
X0503375Y05759
X0498375
X0493375
X0488375
X0483375
X0478375
X0473375
X0468375
X0463375
X0458375
X0453375
X0448375
X0443375
X0438375
X0433375
X0428375
X0423375
X0418375
X0413375
X0408375
X0403375
X0398375
X0393375
X0388375
X0383375
X0378375
X0373375
X0368375
X0363375
X0358375
X0353375
X0355875Y05809
X0360875
X0365875
X0370875
X0375875
X0380875
X0385875
X0390875
X0395875
X0400875
X0405875
X0410875
X0415875
X0420875
X0425875
X0430875
X0435875
X0440875
X0445875
X0450875
X0455875
X0460875
X0465875
X0470875
X0475875
X0480875
X0485875
X0490875
X0495875
X0500875
X0503375Y05559
Y05459
X0488375
X0483375
X0478375
X0473375
X0475875Y05509
X0480875
X0485875
X0488375Y05559
X0483375
X0478375
X0473375
X0453375
X0448375
X0455875Y05509
X0453375Y05459
X0418375
X0413375
X0415875Y05509
X0418375Y05559
X0413375
X0408375
X0410875Y05609
X0415875
X0420875
X0425875
X0405875
X0400875
X0395875
X0390875
X0385875
X0380875
X0375875
X0370875
X0365875
X0360875
X0355875
X0350875
X0353375Y05559
X0358375
X0355875Y05509
X0353375Y05459
X0360875Y05409
X0365875
X0370875
X0375875
X0380875
X0385875
X0393375Y05459
X0395875Y05509
X0398375Y05559
X0393375
X0388375
X0378375
X0373375
X0368375
X0375875Y05509
X0378375Y05459
X0373375
X03881Y0517601
X0394475Y0499097
X0407332
X0409Y04892
X0413375Y04859
X0415875Y04909
X0420875
X0423375Y04959
X0418375
X03988Y04895
X03883
X03783Y04877
X0378375Y04959
X0381618Y0499097
X0368761
X0363375Y04959
X0365875Y04909
X0360875
X0363375Y04859
X0368375
X0365875Y04809
X0360875
X0363375Y04759
X0358375
X0353375
X03523Y04883
X0358375Y04859
X0360875Y05009
X0363375Y05059
X0360875Y05109
X0350875Y05709
Y05809
X0465875Y05209
X0478375Y05159
X0495875Y05109
X0498375Y05259
X0503375
X0499551Y0495333
X0489551Y0494733
X0481951
X0458375Y05059
X0423375Y04659
X0418375
X0506551Y0495333
X0517051Y0495533
X0524351
X0540395Y0496749
X0548195
X0560875Y05009
X0563375Y05059
X0568375
X0573375
X0570875Y05109
X0565875
X0560875
X0555875
X0558375Y05059
X0553375Y05159
X0555875Y05309
X0558375Y05359
X0563375
X0568375
X0573375
X0575875Y05409
X0580875
X0583375Y05459
X0588375
X0585875Y05509
X0588375Y05559
X0593375
X0595875Y05609
X0600875
X0605875
X0610875
X0615875
X0620875
X0625875
X0630875
X0635875
X0640875
X0643375Y05659
X0638375
X0633375
X0628375
X0623375
X0618375
X0613375
X0608375
X0603375
X0598375
X0593375
X0588375
X0583375
X0578375
X0573375
X0568375
X0563375
X0558375
X0553375
X0548375
X0543375
X0545875Y05709
X0550875
X0555875
X0560875
X0565875
X0570875
X0575875
X0580875
X0585875
X0590875
X0595875
X0600875
X0605875
X0610875
X0615875
X0620875
X0625875
X0630875
X0635875
X0640875
X0638375Y05759
X0633375
X0628375
X0623375
X0618375
X0613375
X0608375
X0603375
X0598375
X0593375
X0588375
X0583375
X0578375
X0573375
X0568375
X0563375
X0558375
X0553375
X0555875Y05609
X0560875
X0565875
X0570875
X0575875
X0580875
X0585875
X0590875
X0583375Y05559
X0573375
X0568375
X0563375
X0565875Y05509
X0568375Y05459
X0563375
X0565875Y05409
X0570875
X0560875
X0555875
X0553375Y05359
X0548375Y05459
X0545875Y05509
X0548375Y05559
X0553375
X0550875Y05609
X0545875
X0540875
X0543375Y05559
X0528375
X0523375
X0525875Y05609
X0530875
X0528375Y05659
X0523375
X0518375
X0513375
X0508375
X0510875Y05709
X0515875
X0520875
X0525875
X0530875
X0533375Y05759
X0528375
X0523375
X0518375
X0513375
X0508375
X0510875Y05809
X0515875
X0520875
X0525875
X0530875
X0535875
X0540875
X0505875
Y05709
Y05609
X0510875
X0515875
X0520875
X0513375Y05559
X0508375
X0505875Y05509
X0508375Y05459
X0523375
X0528375
X0525875Y05509
X0530875Y05309
X0533375Y05259
Y05159
X0530875Y05109
X0510875
X0513375Y05159
X0510875Y05209
X0508375Y05259
X0518375
X0515875Y05309
X0573375Y05259
X0575875Y05209
X0580875
X0573375Y05159
X0588375Y05059
Y04959
X0590875Y04909
X0585875
X0588375Y04859
Y04759
X0595092Y047619
X0610254Y0477352
X0625317
X0618375Y04859
X0615875Y04909
X0619608Y0497628
X0618375Y05159
X0610875Y05209
X0605875
X0600875
X0603375Y05259
Y05159
Y05059
X0633375Y05159
X0635875Y05209
X0630875
X0633375Y05259
X0648375Y05159
X06544Y05104
X0648375Y04959
X0645875Y04909
X0640279Y0478592
X06349Y04654
X06465
X06555Y04693
X06556Y04728
X06168Y0465
X0588375Y04659
X0573375
X0568375
X0563375
X0558375
X0553375
X0548375
X0550875Y04709
X0555875
X0560875
X0558375Y04759
X0553375
X0545875Y04709
X0560875Y04909
X05804Y0478
X0588375Y05359
X0603375Y05459
X0608375
X0605875Y05509
X0608375Y05559
X0613375
X0623375
X0628375
X0633375
X0643375
X0653375
X0655875Y05609
X0660875
X0658375Y05659
X0653375
X0655875Y05709
X0660875
X0658375Y05759
X0653375
X0655875Y05809
X0660875
X0650875
X0643375Y05459
X0628375
X0623375
X0625875Y05509
X0603375Y05559
X0655875Y05409
X0670875
X0675875
X0680875
X0683375Y05459
X0688375
X0685875Y05509
X0688375Y05559
X0693375
X0695875Y05609
X0700875
X0705875
X0710875
X0715875
X0720875
X0725875
X0730875
X0735875
X0740875
X0745875
X0750875
X0755875
X0760875
X0765875
X0770875
X0775875
X0780875
X0785875
X0790875
X0795875
X0800875
X0805875
X0810875
X0815875
X0813375Y05659
X0808375
X0803375
X0798375
X0793375
X0788375
X0783375
X0778375
X0773375
X0768375
X0763375
X0758375
X0753375
X0748375
X0743375
X0738375
X0733375
X0728375
X0723375
X0718375
X0713375
X0708375
X0703375
X0698375
X0693375
X0688375
X0683375
X0678375
X0673375
X0668375
X0663375
X0665875Y05709
X0670875
X0675875
X0680875
X0685875
X0690875
X0695875
X0700875
X0705875
X0710875
X0715875
X0720875
X0725875
X0730875
X0735875
X0740875
X0745875
X0750875
X0755875
X0760875
X0765875
X0770875
X0775875
X0780875
X0785875
X0790875
X0795875
X0800875
X0805875
X0810875
X0815875
X0813375Y05759
X0808375
X0803375
X0798375
X0793375
X0788375
X0783375
X0778375
X0773375
X0768375
X0763375
X0758375
X0753375
X0748375
X0743375
X0738375
X0733375
X0728375
X0723375
X0718375
X0713375
X0708375
X0703375
X0698375
X0693375
X0688375
X0683375
X0678375
X0673375
X0668375
X0663375
X0665875Y05809
X0670875
X0675875
X0680875
X0685875
X0690875
X0695875
X0700875
X0705875
X0710875
X0715875
X0720875
X0725875
X0730875
X0735875
X0740875
X0745875
X0750875
X0755875
X0760875
X0765875
X0770875
X0775875
X0780875
X0785875
X0790875
X0795875
X0800875
X0805875
X0810875
X0815875
X0813375Y05559
X0815875Y05509
X0813375Y05459
X0815875Y05409
X0810875
X0800875
X0803375Y05359
X08066Y05314
X07927Y0531
X0793375Y05359
X0788375
X0790875Y05409
X0785875
X0780875
X0778375Y05459
X0775875Y05509
X0778375Y05559
X0783375
X0793375
X0798375
X0803375
X0795875Y05509
X0798375Y05459
X0785875Y05309
X0773375Y05359
X0768375
X0763375
X0758375
X0753375
X0748375
X0743375
X0738375
X0740875Y05409
X0745875
X0750875
X0755875
X0760875
X0765875
X0770875
X0773375Y05559
X0763375
X0758375
X0753375
X0755875Y05509
X0758375Y05459
X0738375
X0733375
X0728375
X0730875Y05509
X0735875
X0738375Y05559
X0743375
X0733375
X0728375
X0725875Y05509
X0730875Y05409
X0735875
X0723375Y05359
X0718375
X0713375
X0708375
X0703375
X0698375
X0693375
X0688375
X0695875Y05409
X0700875
X0705875
X0710875
X0715875
X0708375Y05459
X0703375
X0705875Y05509
X0708375Y05559
X0703375
X0690875Y05609
X0685875
X0680875
X0675875
X0670875
X0665875
X0668375Y05559
X0673375
X0683375
X0663375
X0665875Y05509
X0675875Y05209
X0680875
X0685875
X0690875
X0695875
X0700875
X0705875
X0710875
X0708375Y05159
X0703375
X0698375
X0693375
X0688375
X0683375
X0678375
X0673375
X0680875Y05109
X0685875
X0690875
X0695875
X0700875
X0705875
X0710875
X0708375Y05059
X0703375
X0698375
X0693375
X0688375
X0683375
X0685875Y05009
X0690875
X0695875
X0700875
X0705875
X0710875
X0720875
X0725875
X0730875
X0735875
X0740875
X0745875
X0750875
X0755875
X0758375Y04959
X0753375
X0755875Y04909
X0753Y04882
X0768375Y04859
X0773375
X0778375
X0783375
X0788375
X0793375
X0795875Y04909
X0790875
X0785875
X0780875
X0775875
X0770875
X0773375Y04959
X0778375
X0783375
X0788375
X0785875Y05009
X0780875
X0775875
X0770875
X0773375Y05059
X0778375
X0783375
X0788375
X07927Y0507186
X0803375Y05059
X08066Y0507286
X080455Y0493488
X08145Y04928
X0815875Y04709
X0810875
X0805875
X0800875
X0795875
X0790875
X0785875
X0780875
X0775875
X0770875
X0765875
X0760875
X0755875
X0750875
X0768375Y04759
X0773375
X0778375
X0783375
X0788375
X0793375
X0790875Y04809
X0785875
X0780875
X0775875
X0770875
X0773375Y04659
X0778375
X0768375
X0788375
X0793375
X0798375
X0803375
X0808375
X0813375
X0768375Y04959
Y05059
X0770875Y05109
X0775875
X0780875
X0778375Y05159
X0773375
X0768375
X0763375
X0758375
X0760875Y05209
X0765875
X0770875
X0775875
X0765875Y05109
X0760875
X0753375Y05059
X0748375
X0743375
X0738375
X0733375
X0728375
X0723375
X0725875Y05109
X0730875
X0735875
X0740875
X0745875
X0743375Y05159
X0738375
X0733375
X0728375
X0723375
X0725875Y05209
X0730875
X0735875
X0750875
X0755875
X0720875
Y05109
X0723375Y04959
X0720875Y04909
X07207Y04868
X0720574Y0483474
X0705875Y04709
X0708375Y04659
X0703375
X0693375
X0690875Y04709
X0673375Y04759
X0668375
Y04809
X0675875
X067765Y04946
X06854
X06693Y0503
X0665041Y0503259
X06707Y04634
X0818375Y04659
X0823375
X0828375
X0833375
X0838375
X0843375
X0848375
X0853375
X0858375
X0863375
X0868375
X0873375
X0878375
X0883375
X0888375
X0893375
X0898375
X0903375
X0905875Y04709
X0910875
X0915875
X0920875
X0925875
X0930875
X0935875
X0940875
X0938375Y04759
X0933375
X0928375
X0923375
X0918375
X0920875Y04809
X0925875
X0930875
X0935875
X0940875
X0938375Y04859
X0933375
X0928375
X0923375
X0918375
X0920875Y04909
X0925875
X0930875
X0935875
X0940875
X0938375Y04959
X0933375
X0928375
X0923375
X0925875Y05009
X0930875
X0935875
X0940875
X0938375Y05059
X0933375
X0928375
X0923375
X0925875Y05109
X0930875
X0935875
X0940875
X0938375Y05159
X0933375
X0928375
X0923375
X0920875Y05109
Y05009
X0910328Y0504689
X0896835Y0504465
X0893375Y05059
Y04959
X08912Y04884
X09013Y0489
X09111Y04865
X0915875Y04809
X0918375Y04659
X0923375
X0928375
X0933375
X0938375
X0913375
X0900875Y04709
X0895875
X0890875
X0885875
X0880875
X0875875
X0870875
X0865875
X0860875
X0855875
X0850875
X0845875
X0840875
X0835875
X0830875
X0825875
X0820875
X08249Y04881
X08346Y04906
X0840875Y04909
X0845875
X0850875
X0855875
X0860875
X0865875
X0870875
X0868375Y04859
X0863375
X0858375
X0853375
X0848375
X0843375
X0838375
X0840875Y04809
X0845875
X0850875
X0855875
X0860875
X0865875
X0870875
X0868375Y04759
X0863375
X0858375
X0853375
X0848375
X0843375
Y04959
X0848375
X0853375
X0858375
X0863375
X0865875Y05009
X0860875
X0855875
X0850875
X0845875
X0840875
X0835875
X0838375Y05059
X0843375
X0848375
X0853375
X0858375
X0863375
X08699Y0506586
X0883Y0504617
X08811Y04864
X0863375Y05159
X0858375
Y05259
X0863375
X0865875Y05309
X0860875
X0855875
X0850875
X0853375Y05359
X0858375
X0863375
X0868375
X0873375
X0869851Y0532338
X0870875Y05409
X0865875
X0860875
X0855875
X0850875
X0853375Y05459
X0858375
X0855875Y05509
X0858375Y05559
X0863375
X0865875Y05609
X0870875
X0875875
X0880875
X0885875
X0890875
X0895875
X0900875
X0905875
X0910875
X0915875
X0920875
X0925875
X0930875
X0933375Y05559
X0938375
X0943375
X0948375
X0953375
X0950875Y05609
X0953375Y05659
Y05759
X0950875Y05809
X0930875
X0925875
X0920875
X0915875
X0910875
X0905875
X0900875
X0895875
X0890875
X0885875
X0880875
X0875875
X0870875
X0865875
X0860875
X0855875
X0850875
X0845875
X0840875
X0835875
X0830875
X0825875
X0820875
X0823375Y05759
X0828375
X0833375
X0838375
X0843375
X0848375
X0853375
X0858375
X0863375
X0868375
X0873375
X0878375
X0883375
X0888375
X0893375
X0898375
X0903375
X0908375
X0913375
X0918375
X0923375
X0925875Y05709
X0920875
X0915875
X0910875
X0905875
X0900875
X0895875
X0890875
X0885875
X0880875
X0875875
X0870875
X0865875
X0860875
X0855875
X0850875
X0845875
X0840875
X0835875
X0830875
X0825875
X0820875
X0823375Y05659
X0828375
X0833375
X0838375
X0843375
X0848375
X0853375
X0858375
X0863375
X0868375
X0873375
X0878375
X0883375
X0888375
X0893375
X0898375
X0903375
X0908375
X0913375
X0918375
X0923375
Y05559
X0928375
X0930875Y05509
X0935875
X0940875
X0945875
X0950875
X0953375Y05459
X0948375
X0943375
X0938375
X0933375
X0928375
X0923375
X0918375
X0920875Y05509
X0925875
Y05409
X0930875
X0935875
X0940875
X0945875
X0950875
X0953375Y05359
X0948375
X0943375
X0938375
X0933375
X0928375
X0923375
X0918375
X0913375
X0910351Y0532338
X0910875Y05409
X0915875
X0920875
X0915875Y05509
X0918375Y05559
X0898375
X0893375
X0895875Y05509
X0898375Y05459
X0893375
X0895875Y05409
X0900875
X0898375Y05359
X0893375
X0896786Y0532186
X0900875Y05309
X0882951Y0532338
X0883375Y05359
X0885875Y05409
X0880875
X0878375Y05459
X0875875Y05509
X0878375Y05559
X0883375
X0873375
X0860875Y05609
X0855875
X0850875
X0845875
X0840875
X0835875
X0830875
X0825875
X0820875
X0823375Y05559
X0818375
Y05659
Y05759
Y05459
X0820875Y05409
X0823375Y05359
X0818375
X0821Y05315
X0833452Y0531394
X0833375Y05359
X0838375
X0843375
X0840875Y05409
X0835875
X0830875
X0833375Y05459
X0838375
X0835875Y05509
X0838375Y05559
X0843375
X0853375
X0833375
X0840875Y05309
X0843375Y05259
X0853375
X0848375Y05159
X0843375
X0838375
X0840875Y05109
X0845875
X0850875
X08336Y050758
X0821Y0507686
X0838375Y04959
X0948375Y05259
X0953375
X0950875Y05309
X0945875
T03
X00928Y02365
X00987
X01058Y02361
X01118Y02362
X01184Y02417
X00995Y02445
X00937Y0243
X04787Y01967
X05176Y02006
X05318
X0543485Y02616
X05903Y02243
X06582Y01661
X05223Y0403
X0487038Y0402846
X0153509Y0444891
T04
X01576Y02405
X01876Y02581
X0186Y02628
X01925Y02622
X01422Y02852
X01477Y03013
X02435Y02908
Y02692
X02946Y02663
X0315134Y0233415
X02252Y02325
X02261Y0224
Y02155
X02254Y02052
X04276Y01906
X04396Y02468
X06715Y01894
X06684Y0397
X05862Y03915
X05549
X0554906Y0418595
X0528405Y0396927
X052001Y036909
X0524585Y0341785
X05545Y03425
X0554394Y0361705
X05888Y03425
X0522217Y04374
X0498831Y0396927
X0492985Y0342385
X0462985
X0439491Y0342491
X04386Y03613
X0318Y03178
X01205Y03407
X01157
X01306Y03579
X01342Y03743
X01345Y04008
X01129Y03834
X01052Y03684
X01003
X00947Y03683
X00788Y03715
X00737Y03667
X00718Y03582
X04598Y05135
X07157Y0527007
T05
X0597217Y04064
Y04134
X0465217Y04539
Y04609
T06
X0821928Y008142
X0846372Y00952
Y0067641
X08759Y008142
X0900872Y006768
Y0095239
X09304Y008146
X07924Y00952
Y0067641
X0768785Y008182
X0739257Y0068041
Y00956
X0716151Y008182
X0686624Y0068041
Y00956
X0663517Y008182
X063399Y0068041
Y00956
X0610883Y008182
X0581356Y0068041
Y00956
X055825Y008182
X0528722Y00956
Y0068041
X0505616Y008182
X0476088Y0068041
Y00956
X0452982Y008182
X0423454Y00956
Y0068041
X0400348Y008182
X037082Y0068041
Y00956
X0347714Y008182
X0318187Y0068041
Y00956
X029508Y008182
X0265553Y0068041
Y00956
X0242445Y008182
X0212917Y0068041
Y00956
X0189813Y008182
X0160285Y00956
Y0068041
Y0160561
X0189813
X0212917
X0242445
X0265553
X029508
X0318187
X0347714
X037082
X0400348
X0423454
X0452982
X0476088
X0505616
X0468Y02122
Y02222
Y02322
Y02422
X0528722Y0160561
X055825
X0581356
X0610883
X063399
X0663517
X0686624
X0716151
X0739257
X0768785
X07924Y0160161
X0821928
X0846372
X08759
X0900872Y01602
X09304
X06519Y04903
Y05003
X0539Y05199
Y05299
T07
X0092363Y0304633
X0201385Y02431
T08
X03355Y01886
X06502Y01864
X07394Y04064
X06429Y03588
T09
X01842Y03602
T10
X00515Y00147
X01315
X00815Y01947
X00615
X01942Y03502
Y03702
X01742
Y03502
T11
X00915Y00147
X01215Y01947
T12
X0672126Y00408
X0692126
X0712126
X0732126
X0752126
X0772126
X0652126
X0632126
X0612126
X0592126
X0572126
X0552126
X0532126
X0512126
X0492126
X0457165Y00404
X0437165
X0417165
X0397165
X0377165
X0357165
X0337165
X0317165
X0297165
X0277165
X0257165
X0237165
X0217165
X0197165
X0177165
X0039385Y02246
Y02446
Y02646
X0039386Y02975
Y03175
Y03375
Y03575
X0039386Y03993
Y04193
Y04393
X0056535Y05494
X0076535
X0096535
X0116535
X0136535
X0156535
X0176535
X0196535
X0216535
X0244567
X0264567
X0284567
X0304567
X0324567
X0344567
X0364567
X0384567
X0404567
X0424567
X0444567
X0464567
X0496535
X0516535
X0536535
X0556535
X0576535
X0596535
X0616535
X0636535
X0656535
X0676535
X0696535
X0716535
X07472Y0549402
X07672
X07872
X08072
X08272
X08472
X08672
X08872
X09072
T13
X0940945Y0019685
X0019685
T14
X0019685Y0570866
X09387
M30
