M48
;Layer_Color=9474304
;FILE_FORMAT=4:4
METRIC,LZ
;TYPE=PLATED
T01F00S00C0.3048
T02F00S00C0.9000
T03F00S00C1.0998
T04F00S00C1.1000
T05F00S00C3.3000
%
T01
X0011684Y0023114
X00145716
X00174592
X00203467
X00232343
X00261219
X00290095
X00318971
X00347846
X00376722
X00405598
X00434474
X00463349
X0048501
X00521101
Y0029464
X00492225
X00463349
X00434474
X00405598
X00376722
X00347846
X00318971
X0024257Y0034798
X0021844Y0033909
X0019812Y0033147
X00549977Y0029464
X00578853
X00607728
X00636604
X0066548
Y0023114
X00636604
X00607728
X00578853
X00549977
X0077851Y0023622
X00811893Y0023495
X00845276
X00878659Y0023368
X0090805Y0023241
X0090825Y0043581
X0094488Y0042037
X0097663Y0041021
X01016Y0039878
X0101219Y0023495
X00978807
X0096139
X00945424Y0023368
X0120015Y0033274
X0122555Y0033782
X0123571
X0128778Y0031242
X0129667Y0031369
X0130683
X0131572
Y0029591
X0132969Y0010922
X0127635Y0011938
X0121666Y0009906
X0135001Y000889
X0148971Y0007493
X0150368Y0005461
X0157734Y0004699
X0159385Y0005969
X0156337Y0028956
X0155194Y0029083
X0154051Y002921
X0152908
X0151892
X0167386Y003556
X0171577Y0035179
X0173101Y0033274
X0178054Y0034163
X017907Y0032639
X0176784Y0035941
X0174879Y003937
X0235458Y0025781
X0236728Y0024638
X0239014Y0023495
X0240538
X0242189Y0023368
X024384Y0023495
X024511
X0264033Y0040132
X0271018Y0042418
X027051Y0043561
X0278384Y0036703
X0282067Y0023749
X0283337
X028448
X0257683Y0050292
X02579103Y0065151
X0254635Y0065532
X0264541Y0066548
X0249809Y0060706
X0248539Y0059436
X024638Y005842
X0247015Y0057531
X024765Y0051181
X0238506Y0050673
X0238633Y0048768
Y0047244
X02370355Y0066675
X0240284
X0233787
X02305384Y00667686
X02272899Y00671429
X02240414Y0066675
X02207928
X02175443Y0066167
X02142958Y0066675
X02110473
X02077987Y00658863
X02045502Y0066294
X0172085Y0057658
X0164719Y0057785
Y0059055
Y0056515
X0164592Y0055118
X0154178Y0064135
X0154813Y0065659
X0152146Y0066802
X0133985Y0068199
X0129794Y0075057
X0129921Y0082042
X0131064Y0082931
X0114046Y0080899
X0106426
X011176Y0071374
X0118999Y0070739
X0069215Y0060198
X00661737
X00631324
X0060091
X00570497
X00540084
X00509671
X00479258
X00448845
X0041509
X0039009
X00357605
X00327192
X00296779
X00266366
X00235953
X00205539
X0017272
X0014224
X001143
X0036449Y0087122
X0039116Y0088646
X0041529Y0089281
X0043942Y0089789
X0046482Y0090424
X0048895Y0090932
X0051435Y0091948
X0053975Y009271
X0046609Y0106045
X00364491
X00288291
X0029083Y0101981
X0031369Y0100584
X0034036Y0099187
X0026543Y0103378
X0024003Y0104521
X0022352Y0104902
X0054229Y0106045
X0061849
X0069469
X0064008Y0094615
X0061468Y0095631
X0059182Y0096774
X0056642Y009779
X0096393Y0098171
Y0096647
Y0099822
X009652Y0100965
X0106807
X0107696
X0108585
X0115062Y0100203
X0115951Y0100711
X0117602Y0094996
X011684Y0085471
X0123444Y0088011
X0130048Y009144
X0125222Y0112141
X0110871Y0114554
X0111252Y0115443
X0111379Y011684
X0110744Y0117983
X0111506Y0118618
X0112649Y0118745
X0113538
X0113792Y012065
X011176Y0122047
Y0123444
X0110744Y0122682
X0109982Y0116078
X0105791Y0088519
X0104902
X0104013Y0088773
X0103251Y00889
X0100457Y0089408
Y0090297
Y0091059
X0099441Y0092075
X0099187Y0086106
X0136271Y0090551
X0139573Y0092964
X0143129Y0093853
X0144907Y0096012
X0143764Y010541
X0148336Y0104521
X0155448Y0106553
X0161417Y0108966
X0162179Y0110617
X0163576Y0107569
X016764Y0103378
X0169291Y0102997
X0165608Y0098044
X015621Y0097282
X0154305Y01143
X0147828Y0114681
X0141605
Y0113157
X0168402Y0113919
X0167386Y0122555
X0139827Y0084836
X0176276Y0088011
X0181102Y00893278
X01857074Y00922956
X01888356Y00928236
X01919638Y0093853
X0196215Y0094996
X0194183Y0099441
X0191897Y0101981
X0191262Y0108204
X0189865Y0111887
X0195199Y0110998
X0196342Y0110871
X0197612Y0112649
X0197485Y0116078
X0199263Y0115316
X0200279Y0106172
X01982202Y01051292
X0206121Y0108839
Y0110109
X0207645
X0208915Y0110871
Y0111887
X0211709Y0110617
X0212471Y0107315
X0212725Y0106426
X0183896Y0110744
X0182753
X0181356Y0109728
X017653Y0107315
X0174625Y0108712
X017653Y0100584
X017526Y0118745
X0183769Y0123063
X0215392Y0118745
X0213868Y0108204
X0216027Y0107061
X0219202Y0103378
X0218948Y0102616
X0226695Y0101854
X0232664Y010033
X0234696Y0108585
X0237236Y0110744
X0228473
X0225679Y0109347
X0223901
X0221742Y0110617
X0220218
X0226695Y0120015
X0247015Y0109601
X0248539Y0107061
X0249809Y0106426
X0250952Y010033
X0254127Y0092456
X02576407Y0094234
X02644296Y0092964
X02610273Y01015153
X0262636Y0108839
X02644296Y011049
X0267462Y0119888
X0279273Y0108839
X0280416Y0134112
X0284099Y0135382
X0283337Y0138938
X0284226Y0144145
X0276606Y0145669
X0275717Y0144907
X0267462Y0142113
X0266319Y0143256
X0263779Y0138938
X025908Y0142113
X0253492Y0136017
X0269367Y0135255
X0270002Y015621
X0271145Y0161163
X0257429Y0160782
X0254127Y0156083
X025654Y0153289
X0250952Y0141097
Y0139827
X02459066Y01375156
X024384Y0135128
X0242189Y0134747
X0239649Y0137287
X0235077Y0140716
X0231267Y0139827
X0226695Y0139065
X0225806Y0135255
X0228473Y0146812
X0225806Y0159385
X0225171Y0160401
X0227711Y016129
X0213487Y0161798
X0214249Y0129032
X0243078Y0130175
X0243205Y0125095
X0243967Y0146812
X0202565Y0146685
X0198247Y014732
X0188214Y0146685
X0177165Y014732
X0184023Y0135255
X0183769Y0133858
X0185928Y013589
X0188722Y0135001
X0188087Y0132588
X0173609Y0126492
X0174498Y0124206
X0212725Y0125095
X0204216Y0137541
X019812Y0159131
X0198247Y0160909
Y0162306
X0186436Y0160528
X0184658Y0161544
X0170434Y0147701
Y0146685
X0171069Y0135255
X01674221Y01324856
X0158623Y0134366
X0157734Y0135509
X0154305Y0136652
X0154051Y0132334
X0153924Y0125349
X0160528Y0124841
X0146177Y0124968
X0140462
X014351Y0130175
X0141224Y0147701
X0142621Y0153416
X014478Y0161036
X0127635Y0162179
X0128397Y0153416
X0124968Y0146685
X0126619Y0135255
X0130048Y0130175
X0106807
Y0130937
Y0131699
X010668Y0132588
X0106553Y0133858
Y0135255
X0106807Y012827
Y0127508
X0106426Y0124841
X011049Y0124079
X0098171Y0128778
X009779Y0143637
X0098933
X0099949
X0100838
X0101854Y014351
X010287
X0103759
X0102235Y0147066
X01016Y0147701
Y0148463
X0102489Y0150495
X0103505Y015113
X0104775
X0106172
X0107188Y0151257
X0108331Y0151384
X0108585Y0144399
X0096647Y014351
X0115443Y0153543
X0087376Y0167767
Y0169164
Y0170434
Y0171704
Y017272
Y017399
X0087122Y0175133
X0087249Y0176276
X0108458Y0176022
Y0174752
X0108331Y0173609
Y017272
Y0171704
Y0170815
X0109601Y0170688
X0115443Y0168148
X0116205Y0166243
X0129159Y0165608
X0125857Y017145
X0108585Y0178181
Y017907
X0141732Y0164846
X0144145Y0166116
X0155194Y0169164
X0156845Y017018
X0169164Y0172212
X0172212Y017018
X0172974Y0170815
X0188722Y0170688
X0212217Y0171323
X0227457Y0180467
X0229489Y0182372
X0230886Y0181229
X0240538Y017907
Y0178181
X0243332Y0179705
X024511Y0178054
X0240919Y0171704
X0240665Y0169926
X0241427Y016891
X0255905Y0177038
X0259334Y0176149
X0258318Y0178943
X0263779Y0178054
X0265049Y0175387
X0270002Y0174498
X027051Y0172847
X0272542Y0173482
Y0172085
X0268605Y0171069
X0271272Y0166116
Y01651
X0273812Y0178943
X0253746Y0181737
T02
X0080645Y0012446
Y0014986
X0083185
X0085725
X0088265
X0090805
X0093345
Y0012446
X0090805
X0088265
X0085725
X0083185
X0095885
Y0014986
X0098425
Y0012446
X0254508Y0013208
Y0010668
X0257048
X0259588
X0262128
X0264668
X0267208
X0269748
X0272288
Y0013208
X0269748
X0267208
X0264668
X0262128
X0259588
X0257048
Y00292523
X0254508
Y00317923
X0257048
X0259588
Y00292523
X0262128
X0264668
X0267208
X0269748
X0272288
Y00317923
X0269748
X0267208
X0264668
X0262128
Y0052832
X0259588
X0257048
X0254508
Y0055372
X0257048
X0259588
X0262128
X0264668
Y0052832
X0267208
X0269748
X0272288
Y0055372
X0269748
X0267208
Y0076708
X0264668
X0262128
X0259588
X0257048
X0254508
Y0079248
X0257048
X0259588
X0262128
X0264668
X0267208
X0269748
Y0076708
X0272288
Y0079248
X0098171Y0079375
X0095631
Y0076835
X0098171
X0093091
Y0079375
X0090551
X0088011
X0085471
X0082931
X0080391
Y0076835
X0082931
X0085471
X0088011
X0090551
T03
X0121031Y0117475
Y0120015
Y0122555
X0123571
Y0120015
Y0117475
X01350472
Y0120015
Y0122555
X01375872
Y0120015
Y0117475
X01490634
Y0120015
Y0122555
X01516034
Y0120015
Y0117475
X01630795
Y0120015
Y0122555
X01656195
Y0120015
Y0117475
X01770957
Y0120015
Y0122555
X01796357
Y0120015
Y0117475
X01911119
Y0120015
Y0122555
X01936519
Y0120015
Y0117475
X02051281
Y0120015
Y0122555
X02076681
Y0120015
Y0117475
X02191443
Y0120015
Y0122555
X02216843
Y0120015
Y0117475
X02331604
Y0120015
Y0122555
X02357004
Y0120015
Y0117475
X02471766
Y0120015
Y0122555
X02497166
Y0120015
Y0117475
X02611928
Y0120015
Y0122555
X02637328
Y0120015
Y0117475
X0275209
Y0120015
Y0122555
X0277749
Y0120015
Y0117475
Y0125095
Y0127635
Y0130175
Y0132715
Y0135255
X0275209
Y0132715
Y0130175
Y0127635
Y0125095
X02637328
Y0127635
Y0130175
Y0132715
Y0135255
X02611928
Y0132715
Y0130175
Y0127635
Y0125095
Y0153543
Y0156083
Y0158623
Y0161163
X02637328
Y0158623
Y0156083
Y0153543
X0275209
Y0156083
Y0158623
Y0161163
X0277749
Y0158623
Y0156083
Y0153543
X02497166
Y0156083
Y0158623
Y0161163
X02471766
Y0158623
Y0156083
Y0153543
X02357004
Y0156083
Y0158623
Y0161163
X02331604
Y0158623
Y0156083
Y0153543
X02216843
Y0156083
Y0158623
Y0161163
X02191443
Y0158623
Y0156083
Y0153543
Y0135255
X02216843
Y0132715
X02191443
Y0130175
X02216843
Y0127635
X02191443
Y0125095
X02216843
X02331604
Y0127635
Y0130175
Y0132715
Y0135255
X02357004
Y0132715
Y0130175
Y0127635
Y0125095
X02471766
Y0127635
Y0130175
Y0132715
Y0135255
X02497166
Y0132715
Y0130175
Y0127635
Y0125095
X02076681
Y0127635
Y0130175
Y0132715
Y0135255
X02051281
Y0132715
Y0130175
Y0127635
Y0125095
X01936519
Y0127635
Y0130175
Y0132715
Y0135255
X01911119
Y0132715
Y0130175
Y0127635
Y0125095
X01796357
Y0127635
Y0130175
Y0132715
Y0135255
X01770957
Y0132715
Y0130175
Y0127635
Y0125095
Y0153543
Y0156083
Y0158623
Y0161163
X01796357
Y0158623
Y0156083
Y0153543
X01911119
Y0156083
Y0158623
Y0161163
X01936519
Y0158623
Y0156083
Y0153543
X02051281
Y0156083
Y0158623
Y0161163
X02076681
Y0158623
Y0156083
Y0153543
X01656195
Y0156083
Y0158623
Y0161163
X01630795
Y0158623
Y0156083
Y0153543
X01516034
Y0156083
Y0158623
Y0161163
X01490634
Y0158623
Y0156083
Y0153543
X01375872
Y0156083
Y0158623
Y0161163
X01350472
Y0158623
Y0156083
Y0153543
Y0135255
X01375872
Y0132715
X01350472
Y0130175
X01375872
Y0127635
X01350472
Y0125095
X01375872
X01490634
Y0127635
Y0130175
Y0132715
Y0135255
X01516034
Y0132715
Y0130175
Y0127635
Y0125095
X01630795
Y0127635
Y0130175
Y0132715
Y0135255
X01656195
Y0132715
Y0130175
Y0127635
Y0125095
X0123571
Y0127635
Y0130175
Y0132715
Y0135255
X0121031
Y0132715
Y0130175
Y0127635
Y0125095
Y0153543
Y0156083
Y0158623
Y0161163
X0123571
Y0158623
Y0156083
Y0153543
Y0163703
Y0166243
Y0168783
Y0171323
X0121031
Y0168783
Y0166243
Y0163703
X01350472
Y0166243
Y0168783
Y0171323
X01375872
Y0168783
Y0166243
Y0163703
X01490634
Y0166243
Y0168783
Y0171323
X01516034
Y0168783
Y0166243
Y0163703
X01630795
Y0166243
Y0168783
Y0171323
X01656195
Y0168783
Y0166243
Y0163703
X01770957
Y0166243
Y0168783
Y0171323
X01796357
Y0168783
Y0166243
Y0163703
X01911119
Y0166243
Y0168783
Y0171323
X01936519
Y0168783
Y0166243
Y0163703
X02051281
Y0166243
Y0168783
Y0171323
X02076681
Y0168783
Y0166243
Y0163703
X02191443
Y0166243
Y0168783
Y0171323
X02216843
Y0168783
Y0166243
Y0163703
X02331604
Y0166243
Y0168783
Y0171323
X02357004
Y0168783
Y0166243
Y0163703
X02471766
Y0166243
Y0168783
Y0171323
X02497166
Y0168783
Y0166243
Y0163703
X02611928
Y0166243
Y0168783
Y0171323
X02637328
Y0168783
Y0166243
Y0163703
X0275209
Y0166243
Y0168783
Y0171323
X0277749
Y0168783
Y0166243
Y0163703
T04
X00160011Y0013609
Y0016109
X00185011
Y0013609
X00210011
Y0016109
X00235011
Y0013609
X0026001
Y0016109
X0028501
Y0013609
X0031001
Y0016109
X0033501
Y0013609
X0036001
Y0016109
X0038501
Y0013609
X0041001
Y0016109
X0043501
Y0013609
X0046001
Y0016109
X0048501
Y0013609
X0051001
Y0016109
X0053501
Y0013609
Y0043581
X0051001
X0048501
X0046001
X0043501
X0041001
X0038501
X0036001
X0033501
X0031001
X0028501
X0026001
X00235011
X00210011
X00185011
X00160011
X0056001
X0058501
X0061001
X0063501
Y0016109
Y0013609
X0061001
X0058501
X0056001
Y0016109
X0058501
X0061001
X01838951Y001266
Y001016
X01863951
Y001266
X01888951
Y001016
X01913951
Y001266
X0193895
Y001016
X0196395
Y001266
X0198895
Y001016
X0201395
Y001266
X0203895
Y001016
X0206395
Y001266
X0208895
Y001016
X0211395
Y001266
Y0031389
X0208895
X0206395
X0203895
X0201395
X0198895
X0196395
X0193895
X01913951
X01888951
X01863951
X01838951
Y0033889
X01863951
X01888951
X01913951
X0193895
X0196395
X0198895
X0201395
X0203895
X0206395
X0208895
X0211395
X0213895
Y0031389
X0216395
Y0033889
X0218895
Y0031389
X0221395
Y0033889
X0223895
Y0031389
X0226395
Y0033889
X0228895
X0231395
Y0031389
X0228895
Y001266
X0226395
X0223895
X0221395
X0218895
X0216395
X0213895
Y001016
X0216395
X0218895
X0221395
X0223895
X0226395
X0228895
X0231395
Y001266
Y00518293
Y00543293
X0228895
X0226395
X0223895
X0221395
X0218895
X0216395
X0213895
Y00518293
X0216395
X0218895
X0221395
X0223895
X0226395
X0228895
Y0076728
X0226395
X0223895
X0221395
X0218895
X0216395
X0213895
Y0079228
X0216395
X0218895
X0221395
X0223895
X0226395
X0228895
X0231395
Y0076728
X0211395
X0208895
X0206395
X0203895
X0201395
X0198895
X0196395
X0193895
X01913951
X01888951
X01863951
X01838951
Y0079228
X01863951
X01888951
X01913951
X0193895
X0196395
X0198895
X0201395
X0203895
X0206395
X0208895
X0211395
Y00543293
X0208895
X0206395
X0203895
X0201395
X0198895
X0196395
X0193895
X01913951
X01888951
X01863951
X01838951
Y00518293
X01863951
X01888951
X01913951
X0193895
X0196395
X0198895
X0201395
X0203895
X0206395
X0208895
X0211395
X0063501Y0046081
X0061001
X0058501
X0056001
X0056509Y0076601
Y0079101
X0059009
Y0076601
X0061509
X0064009
Y0079101
X0061509
X0054009
X0051509
X0049009
X0046509
X0044009
X0041509
X0039009
X0036509
X0034009
X0031509
X0029009
X0026509
X00240091
X00215091
X00190091
X00165091
Y0076601
X00190091
X00215091
X00240091
X0026509
X0029009
X0031509
X0034009
X0036509
X0039009
X0041509
X0044009
X0046509
X0049009
X0051509
X0054009
X0053501Y0046081
X0051001
X0048501
X0046001
X0043501
X0041001
X0038501
X0036001
X0033501
X0031001
X0028501
X0026001
X00235011
X00210011
X00185011
X00160011
X00148591Y0110617
Y0113157
X00173991
X00199391
Y0110617
X00173991
X0022479
Y0113157
X00250191
Y0110617
X0027559
Y0113157
X00300991
X0032639
Y0110617
X00300991
X0035179
Y0113157
X0037719
Y0110617
X0040259
Y0113157
X0042799
X0045339
Y0110617
X0042799
X0047879
Y0113157
X0050419
Y0110617
X0052959
Y0113157
X0055499
X0058039
Y0110617
X0055499
X0060579
Y0113157
X0063119
Y0110617
X0065659
Y0113157
X0068199
X0070739
Y0110617
X0068199
X0073279
Y0113157
X00758189
Y0110617
Y0135255
X0073279
X0070739
X0068199
X0065659
X0063119
X0060579
X0058039
X0055499
Y0137795
X0058039
X0060579
X0063119
X0065659
X0068199
X0070739
X0073279
X00758189
Y0159893
X0073279
X0070739
X0068199
X0065659
X0063119
X0060579
X0058039
X0055499
Y0162433
X0058039
X0060579
X0063119
X0065659
X0068199
X0070739
X0073279
X00758189
X0052959
X0050419
X0047879
X0045339
X0042799
X0040259
X0037719
X0035179
X0032639
X00300991
X0027559
X00250191
X0022479
X00199391
X00173991
X00148591
Y0159893
X00173991
X00199391
X0022479
X00250191
X0027559
X00300991
X0032639
X0035179
X0037719
X0040259
X0042799
X0045339
X0047879
X0050419
X0052959
Y0137795
X0050419
X0047879
X0045339
X0042799
X0040259
X0037719
X0035179
X0032639
X00300991
X0027559
X00250191
X0022479
X00199391
X00173991
X00148591
Y0135255
X00173991
X00199391
X0022479
X00250191
X0027559
X00300991
X0032639
X0035179
X0037719
X0040259
X0042799
X0045339
X0047879
X0050419
X0052959
T05
X0006Y0006
X0294
Y0075
X0143
X0006
Y018
X0294
M30
