M48
;Layer_Color=9474304
;FILE_FORMAT=2:5
INCH,LZ
;TYPE=PLATED
T1F00S00C0.01200
T2F00S00C0.02000
T3F00S00C0.03543
;TYPE=NON_PLATED
%
T01
X01373Y-02641
X01461Y-02593
X01427Y-02369
X0152
X01601Y-02294
X01345Y-02329
X01343Y-02249
X01917Y-02263
X01929Y-02351
X02012Y-02323
X02074Y-02313
X02077Y-0236
X02119Y-02254
X01986Y-02228
X02402Y-02314
X02438Y-02435
X02367Y-02551
X0232Y-0262
X02124Y-02197
X02115Y-02118
X02119Y-02061
X02029Y-02059
X01942
X01932Y-02156
X02023Y-02158
X01835Y-02156
X01556Y-0216
X01352Y-02155
X01386Y-02102
X0139406Y-01877
X0142Y-01824
X01516Y-01825
X01601Y-01835
X01609Y-01667
X01611Y-0158
X01491Y-0156
X01462Y-01652
X01478Y-0173462
X01326Y-0173
X01306Y-0155701
X01266Y-01531
X01285Y-01328
X01374Y-01353
X01362Y-01255
X01313Y-01187
X01392Y-01155
X01437Y-01162
X01464Y-01234
X01527Y-01177
X0161Y-01178
X01681Y-01185
X01663Y-01116
X0166Y-01064
X01736Y-0107
X01752Y-01128
X01916Y-01135
X01996Y-01121
X01975Y-01297
X02078Y-01321
X02097Y-01418
X02127Y-01514
X02133Y-01606
X02208Y-0157
X02265Y-01531
X02256Y-01476
X0239Y-01462
X02416Y-01583
X02438Y-01663
X02306Y-01648
X02509Y-0174
X0244Y-01943
X02424Y-02051
X02324Y-01955
X02074Y-01856
X01999Y-0186
X01943Y-01859
X01805Y-01882
X01819Y-01615
X01724Y-01612
X01732Y-01543
X01797Y-01512
X0182921Y-0151021
X0186575Y-0144525
X01932Y-01462
X0194447Y-0151053
X01956Y-01537
X01958Y-01652
X02185Y-01247
X02192Y-01183
Y-01003
X02169Y-0096
X0238Y-00917
X0240963Y-0087001
X0236Y-0083
X02428Y-00956
X02446Y-01055
X01814Y-00954
X01842Y-00918
X01835Y-00882
X01793Y-00767
X0162594Y-0083294
X01628Y-00872
X01636Y-00963
X01482Y-00985
X01439Y-01048
X01491Y-00773
X012Y-00793
X011Y-00794
X01105Y-00844
X0111Y-00895
X01122Y-01144
X01195Y-01243
X01204Y-01291
X01494Y-01344
X01482Y-01415
X01199Y-02008
X01107
X01902Y-0048589
T02
X0187Y-0179958
X02218Y-01913
T03
X01126Y-02593
Y-02493
Y-02393
Y-02293
X016Y-0262
X017
X018
X019
X01133Y-01778
Y-01678
Y-01578
Y-01478
X01129Y-01348
Y-01248
M30
