G04*
G04 #@! TF.GenerationSoftware,Altium Limited,Altium Designer,19.0.10 (269)*
G04*
G04 Layer_Color=128*
%FSLAX25Y25*%
%MOIN*%
G70*
G01*
G75*
%ADD14C,0.01000*%
%ADD16R,0.03000X0.04000*%
%ADD17R,0.04000X0.03000*%
G04:AMPARAMS|DCode=20|XSize=25.59mil|YSize=47.24mil|CornerRadius=1.92mil|HoleSize=0mil|Usage=FLASHONLY|Rotation=180.000|XOffset=0mil|YOffset=0mil|HoleType=Round|Shape=RoundedRectangle|*
%AMROUNDEDRECTD20*
21,1,0.02559,0.04341,0,0,180.0*
21,1,0.02175,0.04724,0,0,180.0*
1,1,0.00384,-0.01088,0.02170*
1,1,0.00384,0.01088,0.02170*
1,1,0.00384,0.01088,-0.02170*
1,1,0.00384,-0.01088,-0.02170*
%
%ADD20ROUNDEDRECTD20*%
%ADD21R,0.02500X0.02400*%
%ADD56R,0.02402X0.02500*%
%ADD57R,0.00984X0.02756*%
%ADD58R,0.02756X0.00984*%
%ADD59R,0.02362X0.02362*%
G04:AMPARAMS|DCode=60|XSize=17.72mil|YSize=61.02mil|CornerRadius=1.95mil|HoleSize=0mil|Usage=FLASHONLY|Rotation=0.000|XOffset=0mil|YOffset=0mil|HoleType=Round|Shape=RoundedRectangle|*
%AMROUNDEDRECTD60*
21,1,0.01772,0.05713,0,0,0.0*
21,1,0.01382,0.06102,0,0,0.0*
1,1,0.00390,0.00691,-0.02856*
1,1,0.00390,-0.00691,-0.02856*
1,1,0.00390,-0.00691,0.02856*
1,1,0.00390,0.00691,0.02856*
%
%ADD60ROUNDEDRECTD60*%
%ADD61R,0.03937X0.04331*%
G04:AMPARAMS|DCode=62|XSize=17.72mil|YSize=61.02mil|CornerRadius=1.95mil|HoleSize=0mil|Usage=FLASHONLY|Rotation=90.000|XOffset=0mil|YOffset=0mil|HoleType=Round|Shape=RoundedRectangle|*
%AMROUNDEDRECTD62*
21,1,0.01772,0.05713,0,0,90.0*
21,1,0.01382,0.06102,0,0,90.0*
1,1,0.00390,0.02856,0.00691*
1,1,0.00390,0.02856,-0.00691*
1,1,0.00390,-0.02856,-0.00691*
1,1,0.00390,-0.02856,0.00691*
%
%ADD62ROUNDEDRECTD62*%
D14*
X78900Y-310502D02*
Y-316500D01*
X75901D01*
X74901Y-315500D01*
Y-314501D01*
X75901Y-313501D01*
X78900D01*
X75901D01*
X74901Y-312501D01*
Y-311502D01*
X75901Y-310502D01*
X78900D01*
X71902Y-316500D02*
X69903D01*
X68903Y-315500D01*
Y-313501D01*
X69903Y-312501D01*
X71902D01*
X72902Y-313501D01*
Y-315500D01*
X71902Y-316500D01*
X65904Y-311502D02*
Y-312501D01*
X66904D01*
X64904D01*
X65904D01*
Y-315500D01*
X64904Y-316500D01*
X60906Y-311502D02*
Y-312501D01*
X61905D01*
X59906D01*
X60906D01*
Y-315500D01*
X59906Y-316500D01*
X55907D02*
X53908D01*
X52908Y-315500D01*
Y-313501D01*
X53908Y-312501D01*
X55907D01*
X56907Y-313501D01*
Y-315500D01*
X55907Y-316500D01*
X50909D02*
Y-312501D01*
X49909D01*
X48910Y-313501D01*
Y-316500D01*
Y-313501D01*
X47910Y-312501D01*
X46910Y-313501D01*
Y-316500D01*
X38913D02*
Y-310502D01*
X35914D01*
X34914Y-311502D01*
Y-313501D01*
X35914Y-314501D01*
X38913D01*
X31915Y-312501D02*
X29916D01*
X28916Y-313501D01*
Y-316500D01*
X31915D01*
X32915Y-315500D01*
X31915Y-314501D01*
X28916D01*
X26917Y-316500D02*
X23918D01*
X22918Y-315500D01*
X23918Y-314501D01*
X25917D01*
X26917Y-313501D01*
X25917Y-312501D01*
X22918D01*
X19919Y-311502D02*
Y-312501D01*
X20919D01*
X18919D01*
X19919D01*
Y-315500D01*
X18919Y-316500D01*
X12921D02*
X14921D01*
X15920Y-315500D01*
Y-313501D01*
X14921Y-312501D01*
X12921D01*
X11922Y-313501D01*
Y-314501D01*
X15920D01*
D16*
X71800Y-37802D02*
D03*
Y-43900D02*
D03*
X-21646Y19851D02*
D03*
Y13654D02*
D03*
X15725Y14051D02*
D03*
Y20150D02*
D03*
X-1975Y51D02*
D03*
Y6150D02*
D03*
X-60002Y-22803D02*
D03*
Y-16705D02*
D03*
X21400Y14000D02*
D03*
Y20098D02*
D03*
X-7175Y51D02*
D03*
Y6150D02*
D03*
D17*
X35402Y34953D02*
D03*
X41598D02*
D03*
X-53900Y-16003D02*
D03*
X-47802D02*
D03*
X-32602Y-33503D02*
D03*
X-38700D02*
D03*
X-32602Y-38803D02*
D03*
X-38700D02*
D03*
D20*
X-13412Y-50580D02*
D03*
X-20892D02*
D03*
Y-62194D02*
D03*
X-17152D02*
D03*
X-13412D02*
D03*
D21*
X14584Y-28716D02*
D03*
X10978D02*
D03*
D56*
X15100Y-21197D02*
D03*
Y-24803D02*
D03*
X10920Y-21297D02*
D03*
Y-24903D02*
D03*
D57*
X12163Y-41776D02*
D03*
X14131D02*
D03*
X16100D02*
D03*
X18068D02*
D03*
X20037D02*
D03*
X22005D02*
D03*
Y-49256D02*
D03*
X20037D02*
D03*
X18068D02*
D03*
X16100D02*
D03*
X14131D02*
D03*
X12163D02*
D03*
D58*
X22793Y-44532D02*
D03*
Y-46500D02*
D03*
X11376D02*
D03*
Y-44532D02*
D03*
D59*
X17084Y-45516D02*
D03*
D60*
X10563Y998D02*
D03*
X8004D02*
D03*
X5445D02*
D03*
X2886D02*
D03*
X10563Y19305D02*
D03*
X8004D02*
D03*
X5445D02*
D03*
X2886D02*
D03*
X-48302Y-55728D02*
D03*
X-45743D02*
D03*
X-43184D02*
D03*
X-40625D02*
D03*
X-48302Y-74035D02*
D03*
X-45743D02*
D03*
X-43184D02*
D03*
X-40625D02*
D03*
D61*
X6184Y-39716D02*
D03*
Y-46409D02*
D03*
D62*
X-51454Y-28839D02*
D03*
Y-26280D02*
D03*
Y-23720D02*
D03*
Y-21161D02*
D03*
X-33147Y-28839D02*
D03*
Y-26280D02*
D03*
Y-23720D02*
D03*
Y-21161D02*
D03*
M02*
