%FSLAX25Y25*%
%MOIN*%
G70*
G01*
G75*
G04 Layer_Physical_Order=1*
G04 Layer_Color=255*
%ADD10R,0.02756X0.03347*%
%ADD11R,0.03347X0.02756*%
%ADD12O,0.03543X0.01969*%
%ADD13O,0.03543X0.01969*%
%ADD14R,0.03543X0.01969*%
%ADD15R,0.02362X0.02362*%
%ADD16R,0.02200X0.01378*%
%ADD17O,0.01102X0.03937*%
%ADD18O,0.03937X0.01102*%
%ADD19R,0.05906X0.05906*%
%ADD20R,0.02362X0.02362*%
%ADD21O,0.02400X0.00800*%
%ADD22O,0.00800X0.02400*%
%ADD23O,0.02756X0.00787*%
%ADD24O,0.00787X0.02756*%
%ADD25C,0.00600*%
%ADD26C,0.01000*%
%ADD27C,0.02000*%
%ADD28C,0.00800*%
%ADD29C,0.01500*%
%ADD30C,0.00500*%
%ADD31C,0.05906*%
%ADD32C,0.02000*%
G36*
X29690Y-28719D02*
X30189D01*
Y-30947D01*
X30476D01*
X31329Y-30777D01*
X31926Y-30378D01*
X32367Y-30614D01*
Y-34282D01*
X32182Y-34467D01*
X31814D01*
X31329Y-34143D01*
X30476Y-33973D01*
X28902D01*
X28049Y-34143D01*
X27937Y-34217D01*
X25873D01*
Y-33628D01*
X20127D01*
Y-34217D01*
X18809D01*
X18706Y-34115D01*
X18061Y-33684D01*
X17300Y-33532D01*
X17250D01*
Y-33461D01*
X14949D01*
Y-32461D01*
X17250D01*
Y-31868D01*
X17636Y-31551D01*
X18100Y-31643D01*
X18958Y-31472D01*
X19686Y-30986D01*
D01*
Y-30986D01*
X20127Y-31222D01*
Y-32878D01*
X22500D01*
Y-30299D01*
X22999D01*
Y-29800D01*
X25873D01*
Y-28745D01*
X26314Y-28509D01*
X26681Y-28754D01*
X26674Y-28720D01*
X26758Y-28298D01*
X26875Y-28220D01*
X29690D01*
Y-28719D01*
D02*
G37*
G36*
X3022Y-33671D02*
X3052Y-33820D01*
X3538Y-34547D01*
X4266Y-35034D01*
X5124Y-35204D01*
X5964Y-35037D01*
X6011Y-35076D01*
X6350Y-35584D01*
Y-35021D01*
X8651D01*
Y-36020D01*
X6350D01*
Y-37409D01*
Y-39968D01*
Y-40139D01*
X10950D01*
Y-40068D01*
X11061D01*
X11822Y-39916D01*
X12209Y-39658D01*
X12650Y-39894D01*
Y-39968D01*
Y-42528D01*
X13420D01*
Y-42850D01*
X13537Y-43435D01*
X13868Y-43931D01*
X14719Y-44781D01*
X14718D01*
X14719Y-44782D01*
X14719Y-44782D01*
Y-44782D01*
X15215Y-45113D01*
X15800Y-45229D01*
X25376D01*
X25414Y-45286D01*
X26142Y-45772D01*
X27000Y-45943D01*
X27858Y-45772D01*
X28586Y-45286D01*
X29072Y-44558D01*
X29243Y-43700D01*
X29072Y-42842D01*
X28586Y-42114D01*
X27858Y-41628D01*
X27000Y-41457D01*
X26943Y-41400D01*
X26772Y-40542D01*
X26286Y-39814D01*
X25558Y-39328D01*
X24700Y-39157D01*
Y-39137D01*
X25054Y-38783D01*
X25873D01*
Y-38194D01*
X27954D01*
X28049Y-38258D01*
X28902Y-38427D01*
X30476D01*
X31329Y-38258D01*
X31814Y-37933D01*
X32900D01*
X33563Y-37801D01*
X34126Y-37426D01*
X34126Y-37426D01*
X34126Y-37426D01*
X35078Y-36473D01*
X35214Y-36486D01*
Y-36486D01*
X35214Y-36486D01*
D01*
X35214Y-36486D01*
X36514Y-37786D01*
X37242Y-38272D01*
X38100Y-38443D01*
X39257D01*
Y-39627D01*
X36128D01*
Y-45373D01*
X36128D01*
X36128Y-45751D01*
X35268Y-46611D01*
X34370Y-46492D01*
X33286Y-46635D01*
X32276Y-47054D01*
X31408Y-47719D01*
X30743Y-48587D01*
X30521Y-49122D01*
X28219D01*
X27997Y-48587D01*
X27332Y-47719D01*
X26464Y-47054D01*
X25454Y-46635D01*
X24870Y-46558D01*
Y-49121D01*
X23870D01*
Y-46558D01*
X23286Y-46635D01*
X22276Y-47054D01*
X21408Y-47719D01*
X20743Y-48587D01*
X20521Y-49122D01*
X2078D01*
Y-33380D01*
X2540Y-33189D01*
X3022Y-33671D01*
D02*
G37*
G36*
X56605Y-23237D02*
X58726D01*
D01*
X58726Y-23237D01*
D01*
X59070Y-23574D01*
Y-24558D01*
X59193Y-25180D01*
X59545Y-25707D01*
X60073Y-26059D01*
X60694Y-26183D01*
X61316Y-26059D01*
X61679Y-25817D01*
X62041Y-26059D01*
X62663Y-26183D01*
X63285Y-26059D01*
X63647Y-25817D01*
X64010Y-26059D01*
X64631Y-26183D01*
X65253Y-26059D01*
X65616Y-25817D01*
X65978Y-26059D01*
X66600Y-26183D01*
X66600Y-26183D01*
X66600Y-26183D01*
X66937Y-26269D01*
D01*
X66937Y-26269D01*
X67044Y-26806D01*
X66866Y-27024D01*
X66613Y-27193D01*
X66481D01*
X66400Y-27177D01*
X62680D01*
X61822Y-27347D01*
X61094Y-27834D01*
X60614Y-28314D01*
X60128Y-29042D01*
X59957Y-29900D01*
Y-35500D01*
X60128Y-36358D01*
X60614Y-37086D01*
X62014Y-38486D01*
X62742Y-38972D01*
X63600Y-39143D01*
X66378D01*
X66405Y-39149D01*
X69127D01*
Y-39483D01*
X74873D01*
Y-34328D01*
X69717D01*
X69405Y-34119D01*
X69259Y-33941D01*
X69315Y-33660D01*
X66399D01*
Y-32660D01*
X69315D01*
X69415Y-33160D01*
X69332Y-33578D01*
X71500D01*
Y-30999D01*
X72500D01*
Y-33578D01*
X74873D01*
Y-33578D01*
X74912Y-33546D01*
X75400Y-33643D01*
X76258Y-33472D01*
X76281Y-33457D01*
X76722Y-33693D01*
Y-49122D01*
X67618D01*
Y-49121D01*
X65236D01*
Y-48200D01*
X67618D01*
Y-46319D01*
X67618D01*
Y-46227D01*
X67972Y-45873D01*
X69578D01*
Y-43500D01*
X64422D01*
Y-45873D01*
X64422D01*
Y-45965D01*
X64069Y-46319D01*
X63673D01*
Y-45873D01*
X63672D01*
Y-40127D01*
X58517D01*
Y-40757D01*
X57018D01*
X56832Y-40571D01*
Y-38554D01*
X56951Y-38475D01*
X57434Y-37752D01*
X57603Y-36900D01*
X57434Y-36048D01*
X56951Y-35325D01*
X56229Y-34843D01*
X55376Y-34673D01*
X54670D01*
X54589Y-34657D01*
X52929D01*
X51686Y-33414D01*
X50958Y-32928D01*
X50281Y-32793D01*
Y-32619D01*
Y-31563D01*
X45519D01*
Y-33444D01*
Y-37381D01*
X49309D01*
X50414Y-38486D01*
X51142Y-38972D01*
X52000Y-39143D01*
X52346D01*
Y-41500D01*
X52517Y-42358D01*
X53003Y-43086D01*
X54503Y-44586D01*
X55231Y-45072D01*
X56089Y-45243D01*
X58517D01*
Y-45873D01*
X58919D01*
Y-46319D01*
X58919D01*
X58919Y-46528D01*
X58523D01*
Y-46528D01*
X50217D01*
Y-49122D01*
X48219D01*
X47997Y-48587D01*
X47332Y-47719D01*
X46464Y-47054D01*
X45454Y-46635D01*
X44370Y-46492D01*
X43286Y-46635D01*
X42276Y-47054D01*
X41408Y-47719D01*
X40743Y-48587D01*
X40521Y-49122D01*
X39755D01*
X39564Y-48660D01*
X40292Y-47932D01*
X40778Y-47204D01*
X40949Y-46346D01*
Y-45373D01*
X41284D01*
Y-44538D01*
X41960Y-44086D01*
X41960Y-44086D01*
X41960Y-44086D01*
X43086Y-42960D01*
X43086Y-42960D01*
X43086Y-42960D01*
X43572Y-42232D01*
X43743Y-41374D01*
Y-38384D01*
X44472D01*
Y-34016D01*
X44405D01*
X44169Y-33575D01*
X44345Y-33312D01*
X44415Y-32960D01*
X41499D01*
Y-31960D01*
X44415D01*
X44345Y-31608D01*
X43862Y-30885D01*
X43794Y-30840D01*
Y-30340D01*
X43862Y-30294D01*
X44345Y-29572D01*
X44514Y-28720D01*
X44376Y-28024D01*
X44706Y-27959D01*
X45268Y-27583D01*
X45268Y-27583D01*
X45268Y-27583D01*
X47323Y-25528D01*
X47415Y-25466D01*
X47604Y-25185D01*
X48066Y-25376D01*
X48044Y-25487D01*
X48214Y-26345D01*
X48700Y-27073D01*
X49428Y-27559D01*
X50287Y-27730D01*
X51145Y-27559D01*
X51873Y-27073D01*
X52359Y-26345D01*
X52530Y-25487D01*
X52399Y-24832D01*
X52815Y-24554D01*
X53142Y-24772D01*
X54000Y-24943D01*
X54858Y-24772D01*
X55586Y-24286D01*
X56072Y-23558D01*
X56154Y-23147D01*
X56605Y-23237D01*
D02*
G37*
G36*
X71884Y-10311D02*
X71971Y-10329D01*
X71988Y-10416D01*
X72231Y-10779D01*
X71988Y-11141D01*
X71865Y-11763D01*
X71988Y-12385D01*
X72231Y-12747D01*
X71988Y-13110D01*
X71865Y-13732D01*
X71988Y-14353D01*
X72231Y-14716D01*
X71988Y-15078D01*
X71964Y-15200D01*
X72819D01*
X72868Y-15233D01*
X73490Y-15357D01*
X74475D01*
Y-15935D01*
X74474D01*
X73929Y-16043D01*
X73490D01*
X72868Y-16167D01*
X72819Y-16200D01*
X71964D01*
X71988Y-16322D01*
X72231Y-16684D01*
X71988Y-17047D01*
X71865Y-17669D01*
X71988Y-18290D01*
X72231Y-18653D01*
X71988Y-19015D01*
X71865Y-19637D01*
X71988Y-20259D01*
X72231Y-20621D01*
X71988Y-20984D01*
X71971Y-21071D01*
X71884Y-21089D01*
X71521Y-21331D01*
X71159Y-21089D01*
X70537Y-20965D01*
X69915Y-21089D01*
X69553Y-21331D01*
X69190Y-21089D01*
X68568Y-20965D01*
X67947Y-21089D01*
X67584Y-21331D01*
X67222Y-21089D01*
X66600Y-20965D01*
X65978Y-21089D01*
X65712Y-21266D01*
X65251Y-21075D01*
X65229Y-20969D01*
X65389Y-20863D01*
X66060Y-20191D01*
X66658Y-20072D01*
X67386Y-19586D01*
X67872Y-18858D01*
X68043Y-18000D01*
X67872Y-17142D01*
X67386Y-16414D01*
X66658Y-15928D01*
X65800Y-15757D01*
X64942Y-15928D01*
X64214Y-16414D01*
X64184Y-16459D01*
X63684D01*
X63386Y-16014D01*
X62658Y-15528D01*
X61800Y-15357D01*
X61634Y-15390D01*
X61218Y-15112D01*
X61212Y-15078D01*
X60969Y-14716D01*
X61212Y-14353D01*
X61335Y-13732D01*
X61212Y-13110D01*
X60969Y-12747D01*
X61212Y-12385D01*
X61335Y-11763D01*
X61212Y-11141D01*
X60969Y-10779D01*
X61212Y-10416D01*
X61229Y-10329D01*
X61316Y-10311D01*
X61679Y-10069D01*
X62041Y-10311D01*
X62663Y-10435D01*
X63285Y-10311D01*
X63647Y-10069D01*
X64010Y-10311D01*
X64631Y-10435D01*
X65253Y-10311D01*
X65616Y-10069D01*
X65978Y-10311D01*
X66600Y-10435D01*
X67222Y-10311D01*
X67584Y-10069D01*
X67947Y-10311D01*
X68568Y-10435D01*
X69190Y-10311D01*
X69553Y-10069D01*
X69915Y-10311D01*
X70537Y-10435D01*
X71159Y-10311D01*
X71521Y-10069D01*
X71884Y-10311D01*
D02*
G37*
G36*
X20743Y-2294D02*
X21408Y-3162D01*
X22276Y-3827D01*
X22682Y-3996D01*
X22769Y-4433D01*
X23144Y-4996D01*
X24574Y-6426D01*
X24574Y-6426D01*
X24574D01*
X24574Y-6426D01*
X24574D01*
X24574Y-6426D01*
Y-6426D01*
Y-6426D01*
D01*
D01*
X24574D01*
Y-6426D01*
X25137Y-6801D01*
X25800Y-6933D01*
X25919D01*
Y-7800D01*
X28301D01*
Y-8800D01*
X25919D01*
Y-10681D01*
D01*
Y-10681D01*
X25829Y-10771D01*
X25800D01*
X25215Y-10887D01*
X25109Y-10958D01*
X24668Y-10722D01*
Y-10399D01*
X24544Y-9775D01*
X24191Y-9246D01*
X23661Y-8892D01*
X23037Y-8768D01*
X22413Y-8892D01*
X22250Y-9001D01*
X22086Y-8892D01*
X21462Y-8768D01*
X20838Y-8892D01*
X20675Y-9001D01*
X20512Y-8892D01*
X19887Y-8768D01*
X19263Y-8892D01*
X19100Y-9001D01*
X18937Y-8892D01*
X18313Y-8768D01*
X17688Y-8892D01*
X17525Y-9001D01*
X17362Y-8892D01*
X16738Y-8768D01*
X16114Y-8892D01*
X15950Y-9001D01*
X15787Y-8892D01*
X15163Y-8768D01*
X14539Y-8892D01*
X14009Y-9246D01*
X13656Y-9775D01*
X13532Y-10399D01*
Y-11832D01*
X12329D01*
Y-6500D01*
X12327Y-6486D01*
X12443Y-5900D01*
X12272Y-5042D01*
X11786Y-4314D01*
X11058Y-3828D01*
X10200Y-3657D01*
X9998Y-3697D01*
X9781Y-3519D01*
Y-3519D01*
X3963D01*
Y-5901D01*
X2963D01*
Y-3519D01*
X2078D01*
Y-1878D01*
X20570D01*
X20743Y-2294D01*
D02*
G37*
%LPC*%
G36*
X66500Y-40127D02*
X64422D01*
Y-42500D01*
X66500D01*
Y-40127D01*
D02*
G37*
G36*
X69578D02*
X67500D01*
Y-42500D01*
X69578D01*
Y-40127D01*
D02*
G37*
G36*
X32300Y-39627D02*
X30222D01*
Y-42000D01*
X32300D01*
Y-39627D01*
D02*
G37*
G36*
X10950Y-41139D02*
X9150D01*
Y-42528D01*
X10950D01*
Y-41139D01*
D02*
G37*
G36*
X32300Y-43000D02*
X30222D01*
Y-45373D01*
X32300D01*
Y-43000D01*
D02*
G37*
G36*
X35378D02*
X33300D01*
Y-45373D01*
X35378D01*
Y-43000D01*
D02*
G37*
G36*
X8150Y-41139D02*
X6350D01*
Y-42528D01*
X8150D01*
Y-41139D01*
D02*
G37*
G36*
X35378Y-39627D02*
X33300D01*
Y-42000D01*
X35378D01*
Y-39627D01*
D02*
G37*
G36*
X50281Y-28682D02*
X48400D01*
Y-30563D01*
X50281D01*
Y-28682D01*
D02*
G37*
G36*
X47400D02*
X45519D01*
Y-30563D01*
X47400D01*
Y-28682D01*
D02*
G37*
G36*
X55376Y-27193D02*
X55089D01*
Y-28920D01*
X57504D01*
X57434Y-28567D01*
X56951Y-27845D01*
X56229Y-27362D01*
X55376Y-27193D01*
D02*
G37*
G36*
X54089D02*
X53802D01*
X52949Y-27362D01*
X52227Y-27845D01*
X51744Y-28567D01*
X51674Y-28920D01*
X54089D01*
Y-27193D01*
D02*
G37*
G36*
Y-29920D02*
X51674D01*
X51744Y-30272D01*
X52227Y-30994D01*
X52949Y-31477D01*
X53802Y-31647D01*
X54089D01*
Y-29920D01*
D02*
G37*
G36*
X25873Y-30800D02*
X23500D01*
Y-32878D01*
X25873D01*
Y-30800D01*
D02*
G37*
G36*
X29189Y-29220D02*
X26774D01*
X26844Y-29572D01*
X27327Y-30294D01*
X28049Y-30777D01*
X28902Y-30947D01*
X29189D01*
Y-29220D01*
D02*
G37*
G36*
X57504Y-29920D02*
X55089D01*
Y-31647D01*
X55376D01*
X56229Y-31477D01*
X56951Y-30994D01*
X57434Y-30272D01*
X57504Y-29920D01*
D02*
G37*
%LPD*%
D10*
X32800Y-42500D02*
D03*
X38706D02*
D03*
X67000Y-43000D02*
D03*
X61094D02*
D03*
D11*
X23000Y-30300D02*
D03*
Y-36206D02*
D03*
X72000Y-31000D02*
D03*
Y-36906D02*
D03*
D12*
X41500Y-28720D02*
D03*
Y-32460D02*
D03*
X29689Y-28720D02*
D03*
X66400Y-29420D02*
D03*
Y-33160D02*
D03*
X54589Y-29420D02*
D03*
D13*
X29689Y-36200D02*
D03*
X54589Y-36900D02*
D03*
D14*
X41500Y-36200D02*
D03*
X66400Y-36900D02*
D03*
D15*
X32237Y-8300D02*
D03*
X28300D02*
D03*
X7400Y-5900D02*
D03*
X3463D02*
D03*
X65237Y-48700D02*
D03*
X61300D02*
D03*
X7400Y-21200D02*
D03*
X3463D02*
D03*
X7400Y-11000D02*
D03*
X3463D02*
D03*
Y-16100D02*
D03*
X7400D02*
D03*
X3463Y-26300D02*
D03*
X7400D02*
D03*
D16*
X8650Y-32961D02*
D03*
Y-35520D02*
D03*
Y-38080D02*
D03*
Y-40639D02*
D03*
X14950D02*
D03*
Y-38080D02*
D03*
Y-35520D02*
D03*
Y-32961D02*
D03*
D17*
X46153Y-22787D02*
D03*
Y-8613D02*
D03*
X40247D02*
D03*
Y-22787D02*
D03*
D18*
X50287Y-19637D02*
D03*
Y-17669D02*
D03*
Y-15700D02*
D03*
Y-13732D02*
D03*
Y-11763D02*
D03*
X36113D02*
D03*
Y-13732D02*
D03*
Y-15700D02*
D03*
Y-17669D02*
D03*
Y-19637D02*
D03*
D19*
X43200Y-15700D02*
D03*
X54370Y-200D02*
D03*
Y-50681D02*
D03*
D20*
X47900Y-31063D02*
D03*
Y-35000D02*
D03*
D21*
X25301Y-13463D02*
D03*
Y-15038D02*
D03*
Y-16613D02*
D03*
Y-18187D02*
D03*
Y-19762D02*
D03*
Y-21337D02*
D03*
X12899D02*
D03*
Y-19762D02*
D03*
Y-18187D02*
D03*
Y-16613D02*
D03*
Y-15038D02*
D03*
Y-13463D02*
D03*
D22*
X23037Y-23601D02*
D03*
X21462D02*
D03*
X19887D02*
D03*
X18313D02*
D03*
X16738D02*
D03*
X15163D02*
D03*
Y-11199D02*
D03*
X16738D02*
D03*
X18313D02*
D03*
X19887D02*
D03*
X21462D02*
D03*
X23037D02*
D03*
D23*
X74474Y-21606D02*
D03*
Y-19637D02*
D03*
Y-17669D02*
D03*
Y-15700D02*
D03*
Y-13732D02*
D03*
Y-11763D02*
D03*
Y-9794D02*
D03*
X58726D02*
D03*
Y-11763D02*
D03*
Y-13732D02*
D03*
Y-15700D02*
D03*
Y-17669D02*
D03*
Y-19637D02*
D03*
Y-21606D02*
D03*
D24*
X72505Y-7826D02*
D03*
X70537D02*
D03*
X68568D02*
D03*
X66600D02*
D03*
X64631D02*
D03*
X62663D02*
D03*
X60694D02*
D03*
Y-23574D02*
D03*
X62663D02*
D03*
X64631D02*
D03*
X66600D02*
D03*
X68568D02*
D03*
X70537D02*
D03*
X72505D02*
D03*
D25*
X3463Y-11000D02*
Y-5900D01*
Y-16100D02*
Y-11000D01*
Y-21200D02*
Y-16100D01*
X23037Y-23601D02*
Y-22137D01*
X21600Y-20700D02*
X23037Y-22137D01*
X14300Y-25900D02*
X24500D01*
X13600Y-27000D02*
X26000D01*
X10300Y-23700D02*
X13600Y-27000D01*
X12899Y-24499D02*
X14300Y-25900D01*
X12899Y-24499D02*
Y-21337D01*
X10500Y-29400D02*
X18100D01*
X14950Y-38080D02*
X16680D01*
X17200Y-38600D01*
Y-40600D02*
Y-38600D01*
Y-40600D02*
X18000Y-41400D01*
X24700D01*
X15163Y-23601D02*
Y-15563D01*
X9000Y-5900D02*
X10200D01*
X7400D02*
X9000D01*
X10200D02*
X10800Y-6500D01*
Y-14336D02*
Y-6500D01*
Y-14336D02*
X11502Y-15038D01*
X12899D01*
X14638D02*
X15163Y-15563D01*
X12899Y-15038D02*
X14638D01*
X19500Y-16700D02*
X19587Y-16613D01*
X25301D01*
X7400Y-26300D02*
X10500Y-29400D01*
X10700Y-18100D02*
X10787Y-18187D01*
X12899D01*
X8700Y-16100D02*
X10700Y-18100D01*
X7400Y-16100D02*
X8700D01*
X10813Y-16613D02*
X12899D01*
X9700Y-14336D02*
Y-11500D01*
Y-15500D02*
Y-14336D01*
Y-15500D02*
X10813Y-16613D01*
X9200Y-11000D02*
X9700Y-11500D01*
X7400Y-11000D02*
X9200D01*
X32732Y-17669D02*
X36113D01*
X24500Y-25900D02*
X32732Y-17669D01*
X26000Y-27000D02*
X33363Y-19637D01*
X36113D01*
X7900Y-23700D02*
X10300D01*
X7400Y-23200D02*
X7900Y-23700D01*
X7400Y-23200D02*
Y-21200D01*
X32200Y-15700D02*
X36113D01*
X31500Y-15000D02*
X32200Y-15700D01*
X29100Y-15000D02*
X31500D01*
X32631Y-13732D02*
X36113D01*
X31200Y-12300D02*
X32631Y-13732D01*
X28300Y-12300D02*
X31200D01*
X25800D02*
X28300D01*
X25301Y-12799D02*
X25800Y-12300D01*
X25301Y-13463D02*
Y-12799D01*
Y-15038D02*
X29062D01*
X15800Y-43700D02*
X27000D01*
X14950Y-42850D02*
X15800Y-43700D01*
X14950Y-42850D02*
Y-40639D01*
X10882Y-19762D02*
X12899D01*
X7400Y-21200D02*
X9444D01*
X10882Y-19762D01*
D26*
X43200Y-15700D02*
X46153Y-12747D01*
Y-8613D01*
X62863Y-19637D02*
X64700Y-17800D01*
X58726Y-19637D02*
X62863D01*
X25800Y-5200D02*
X48500D01*
X49800Y-7900D02*
Y-6500D01*
X48500Y-5200D02*
X49800Y-6500D01*
X24370Y-3770D02*
X25800Y-5200D01*
X24370Y-3770D02*
Y-200D01*
X74474Y-17669D02*
X76131D01*
X77200Y-16600D01*
Y-4000D01*
X74600Y-1400D02*
X77200Y-4000D01*
X64100Y-1400D02*
X74600D01*
X62200Y-3300D02*
X64100Y-1400D01*
X57470Y-3300D02*
X62200D01*
X54370Y-200D02*
X57470Y-3300D01*
X54000Y-22700D02*
Y-19739D01*
X50287Y-17669D02*
X51929D01*
X54000Y-19739D01*
X57926Y-19637D02*
X58726D01*
X57037D02*
X58726D01*
X68568Y-7826D02*
Y-4831D01*
X69800Y-3600D01*
X70537Y-7826D02*
Y-5763D01*
X71800Y-4500D01*
X57926Y-17669D02*
X58726D01*
X61731D01*
X71800Y-4500D02*
X73500D01*
X50287Y-25487D02*
Y-19637D01*
X61731Y-17669D02*
X61800Y-17600D01*
X50287Y-15700D02*
X57926D01*
X53168Y-13732D02*
X53700Y-13200D01*
X50287Y-13732D02*
X53168D01*
X29689Y-36200D02*
X32900D01*
X34100Y-35000D01*
Y-28500D01*
X36242Y-26357D01*
X44043D01*
X46153Y-24247D01*
X35087Y-22787D02*
X40247D01*
D27*
X52000Y-36900D02*
X54589D01*
X50100Y-35000D02*
X52000Y-36900D01*
X47900Y-35000D02*
X50100D01*
X54589Y-41500D02*
Y-36900D01*
Y-41500D02*
X56089Y-43000D01*
X61094D01*
X61300Y-43205D01*
Y-48700D02*
Y-43205D01*
X38100Y-36200D02*
X41500D01*
X36800Y-34900D02*
X38100Y-36200D01*
X36800Y-34900D02*
Y-30000D01*
X38080Y-28720D01*
X41500D01*
X63600Y-36900D02*
X66400D01*
X62200Y-35500D02*
X63600Y-36900D01*
X62200Y-35500D02*
Y-29900D01*
X62680Y-29420D01*
X66400D01*
Y-36900D02*
X66405Y-36906D01*
X72000D01*
X38706Y-46346D02*
Y-42500D01*
X34370Y-50681D02*
X38706Y-46346D01*
Y-42500D02*
X40374D01*
X41500Y-41374D01*
Y-36200D01*
D28*
X54400Y-10100D02*
Y-6000D01*
X44500Y-200D02*
X45950D01*
X44370D02*
X44500D01*
X45950D02*
X49900Y-4150D01*
X52550D01*
X54400Y-6000D01*
X69900Y-27600D02*
X74200D01*
X75100Y-28500D01*
Y-31100D02*
Y-28500D01*
Y-31100D02*
X75400Y-31400D01*
X71700Y-25852D02*
X75052D01*
X70537Y-24689D02*
X71700Y-25852D01*
X70537Y-24689D02*
Y-23574D01*
X75052Y-25852D02*
X77000Y-27800D01*
X68568Y-26269D02*
X69900Y-27600D01*
X68568Y-26269D02*
Y-23574D01*
X32237Y-8300D02*
X39934D01*
X54400Y-10100D02*
X54600D01*
X55400Y-20400D02*
Y-17800D01*
Y-20400D02*
X56605Y-21606D01*
X58726D01*
D29*
X14950Y-35520D02*
X17300D01*
X17985Y-36206D01*
X23000D01*
X29684D02*
X29689Y-36200D01*
X23000Y-36206D02*
X29684D01*
X11061Y-38080D02*
X13621Y-35520D01*
X8650Y-38080D02*
X11061D01*
X3463Y-31300D02*
X5124Y-32961D01*
X3463Y-31300D02*
Y-26300D01*
X5124Y-32961D02*
X8650D01*
X11061D02*
X13621Y-35520D01*
X8650Y-32961D02*
X11061D01*
X7500D02*
X8650D01*
X13621Y-35520D02*
X14950D01*
D30*
X0Y-51181D02*
Y0D01*
Y-51181D02*
X78740D01*
Y0D01*
X0D02*
X78740D01*
D31*
X24370Y-200D02*
D03*
X34370D02*
D03*
X44370D02*
D03*
X24370Y-50681D02*
D03*
X34370D02*
D03*
X44370D02*
D03*
D32*
X29500Y-39500D02*
D03*
X72000Y-42500D02*
D03*
X52700Y-32500D02*
D03*
X17000Y-3200D02*
D03*
X12700Y-3100D02*
D03*
X3700Y-2900D02*
D03*
X7900Y-30000D02*
D03*
X4200Y-37000D02*
D03*
X9900Y-48000D02*
D03*
X32100Y-24600D02*
D03*
X21600Y-20700D02*
D03*
X18100Y-29400D02*
D03*
X43200Y-15700D02*
D03*
X20700Y-6400D02*
D03*
X15400Y-6600D02*
D03*
X15600Y-47100D02*
D03*
X3900Y-44900D02*
D03*
X4000Y-40800D02*
D03*
X57900Y-32900D02*
D03*
X30200Y-32200D02*
D03*
X67200Y-12700D02*
D03*
X69100Y-36906D02*
D03*
X49800Y-8100D02*
D03*
X75400Y-31400D02*
D03*
X77000Y-27800D02*
D03*
X54600Y-10100D02*
D03*
X55400Y-17800D02*
D03*
X64700D02*
D03*
X73500Y-4500D02*
D03*
X50287Y-25487D02*
D03*
X69800Y-3600D02*
D03*
X54000Y-22700D02*
D03*
X61800Y-17600D02*
D03*
X53700Y-13200D02*
D03*
X52000Y-36900D02*
D03*
X35087Y-22787D02*
D03*
X10200Y-5900D02*
D03*
X5124Y-32961D02*
D03*
X19500Y-16700D02*
D03*
X28300Y-12300D02*
D03*
X24700Y-41400D02*
D03*
X29100Y-15000D02*
D03*
X27000Y-43700D02*
D03*
M02*
