G04 ================== begin FILE IDENTIFICATION RECORD ==================*
G04 Layout Name:  F:/projects/git/Hardware/magnetic/PCB/RECEIVER/Receiver2.brd*
G04 Film Name:    NcDrill*
G04 File Format:  Gerber RS274X*
G04 File Origin:  Cadence Allegro 16.6-2015-S108*
G04 Origin Date:  Sun Nov 17 12:32:55 2019*
G04 *
G04 Layer:  MANUFACTURING/NCLEGEND-1-2*
G04 Layer:  BOARD GEOMETRY/OUTLINE*
G04 *
G04 Offset:    (0.000 0.000)*
G04 Mirror:    No*
G04 Mode:      Positive*
G04 Rotation:  0*
G04 FullContactRelief:  No*
G04 UndefLineWidth:     0.127*
G04 ================== end FILE IDENTIFICATION RECORD ====================*
%FSLAX31Y31*MOMM*%
%IR0*IPPOS*OFA0.00000B0.00000*MIA0B0*SFA1.00000B1.00000*%
%AMMACRO14*
1,1,.003226,.1524,0.0*
20,1,.003226,.1524,0.0,-.1524,0.0,0.0*
1,1,.003226,-.1524,0.0*
1,1,.003226,0.0,.1524*
20,1,.003226,0.0,.1524,0.0,-.1524,0.0*
1,1,.003226,0.0,-.1524*
%
%ADD14MACRO14*%
%AMMACRO11*
1,1,.003226,0.0,.449999*
20,1,.003226,0.0,.449999,-.389711,.225,0.0*
1,1,.003226,-.389711,.225*
20,1,.003226,-.389711,.225,-.389711,-.225,0.0*
1,1,.003226,-.389711,-.225*
20,1,.003226,-.389711,-.225,0.0,-.449999,0.0*
1,1,.003226,0.0,-.449999*
20,1,.003226,0.0,-.449999,.389711,-.225,0.0*
1,1,.003226,.389711,-.225*
20,1,.003226,.389711,-.225,.389711,.225,0.0*
1,1,.003226,.389711,.225*
20,1,.003226,.389711,.225,0.0,.449999,0.0*
1,1,.003226,0.0,.449999*
%
%ADD11MACRO11*%
%AMMACRO10*
1,1,.003226,-.359994,-.240005*
20,1,.003226,-.359994,-.240005,-.359994,.240005,0.0*
1,1,.003226,-.359994,.240005*
20,1,.003226,-.359994,.240005,-.354525,.302517,0.0*
1,1,.003226,-.354525,.302517*
20,1,.003226,-.354525,.302517,-.338284,.36313,0.0*
1,1,.003226,-.338284,.36313*
20,1,.003226,-.338284,.36313,-.311764,.420002,0.0*
1,1,.003226,-.311764,.420002*
20,1,.003226,-.311764,.420002,-.275772,.471404,0.0*
1,1,.003226,-.275772,.471404*
20,1,.003226,-.275772,.471404,-.2314,.515776,0.0*
1,1,.003226,-.2314,.515776*
20,1,.003226,-.2314,.515776,-.179997,.551769,0.0*
1,1,.003226,-.179997,.551769*
20,1,.003226,-.179997,.551769,-.123125,.578288,0.0*
1,1,.003226,-.123125,.578288*
20,1,.003226,-.123125,.578288,-.062512,.59453,0.0*
1,1,.003226,-.062512,.59453*
20,1,.003226,-.062512,.59453,0.0,.599999,0.0*
1,1,.003226,0.0,.599999*
20,1,.003226,0.0,.599999,.062512,.59453,0.0*
1,1,.003226,.062512,.59453*
20,1,.003226,.062512,.59453,.123125,.578288,0.0*
1,1,.003226,.123125,.578288*
20,1,.003226,.123125,.578288,.179997,.551769,0.0*
1,1,.003226,.179997,.551769*
20,1,.003226,.179997,.551769,.2314,.515776,0.0*
1,1,.003226,.2314,.515776*
20,1,.003226,.2314,.515776,.275772,.471404,0.0*
1,1,.003226,.275772,.471404*
20,1,.003226,.275772,.471404,.311764,.420002,0.0*
1,1,.003226,.311764,.420002*
20,1,.003226,.311764,.420002,.338284,.36313,0.0*
1,1,.003226,.338284,.36313*
20,1,.003226,.338284,.36313,.354525,.302517,0.0*
1,1,.003226,.354525,.302517*
20,1,.003226,.354525,.302517,.359994,.240005,0.0*
1,1,.003226,.359994,.240005*
20,1,.003226,.359994,.240005,.359994,-.240005,0.0*
1,1,.003226,.359994,-.240005*
20,1,.003226,.359994,-.240005,.354525,-.302517,0.0*
1,1,.003226,.354525,-.302517*
20,1,.003226,.354525,-.302517,.338284,-.36313,0.0*
1,1,.003226,.338284,-.36313*
20,1,.003226,.338284,-.36313,.311764,-.420002,0.0*
1,1,.003226,.311764,-.420002*
20,1,.003226,.311764,-.420002,.275772,-.471404,0.0*
1,1,.003226,.275772,-.471404*
20,1,.003226,.275772,-.471404,.2314,-.515776,0.0*
1,1,.003226,.2314,-.515776*
20,1,.003226,.2314,-.515776,.179997,-.551769,0.0*
1,1,.003226,.179997,-.551769*
20,1,.003226,.179997,-.551769,.123125,-.578288,0.0*
1,1,.003226,.123125,-.578288*
20,1,.003226,.123125,-.578288,.062512,-.59453,0.0*
1,1,.003226,.062512,-.59453*
20,1,.003226,.062512,-.59453,0.0,-.599999,0.0*
1,1,.003226,0.0,-.599999*
20,1,.003226,0.0,-.599999,-.062512,-.59453,0.0*
1,1,.003226,-.062512,-.59453*
20,1,.003226,-.062512,-.59453,-.123125,-.578288,0.0*
1,1,.003226,-.123125,-.578288*
20,1,.003226,-.123125,-.578288,-.179997,-.551769,0.0*
1,1,.003226,-.179997,-.551769*
20,1,.003226,-.179997,-.551769,-.2314,-.515776,0.0*
1,1,.003226,-.2314,-.515776*
20,1,.003226,-.2314,-.515776,-.275772,-.471404,0.0*
1,1,.003226,-.275772,-.471404*
20,1,.003226,-.275772,-.471404,-.311764,-.420002,0.0*
1,1,.003226,-.311764,-.420002*
20,1,.003226,-.311764,-.420002,-.338284,-.36313,0.0*
1,1,.003226,-.338284,-.36313*
20,1,.003226,-.338284,-.36313,-.354525,-.302517,0.0*
1,1,.003226,-.354525,-.302517*
20,1,.003226,-.354525,-.302517,-.359994,-.240005,0.0*
1,1,.003226,-.359994,-.240005*
1,1,.003226,-.18001,-.179984*
20,1,.003226,-.18001,-.179984,-.22799,-.17399,0.0*
1,1,.003226,-.22799,-.17399*
20,1,.003226,-.22799,-.17399,-.270002,-.149987,0.0*
1,1,.003226,-.270002,-.149987*
20,1,.003226,-.270002,-.149987,-.305994,-.113995,0.0*
1,1,.003226,-.305994,-.113995*
20,1,.003226,-.305994,-.113995,-.329997,-.071984,0.0*
1,1,.003226,-.329997,-.071984*
20,1,.003226,-.329997,-.071984,-.342011,-.023978,0.0*
1,1,.003226,-.342011,-.023978*
20,1,.003226,-.342011,-.023978,-.342011,.024003,0.0*
1,1,.003226,-.342011,.024003*
20,1,.003226,-.342011,.024003,-.329997,.072009,0.0*
1,1,.003226,-.329997,.072009*
20,1,.003226,-.329997,.072009,-.305994,.114021,0.0*
1,1,.003226,-.305994,.114021*
20,1,.003226,-.305994,.114021,-.270002,.150012,0.0*
1,1,.003226,-.270002,.150012*
20,1,.003226,-.270002,.150012,-.22799,.174015,0.0*
1,1,.003226,-.22799,.174015*
20,1,.003226,-.22799,.174015,-.18001,.18001,0.0*
1,1,.003226,-.18001,.18001*
20,1,.003226,-.18001,.18001,-.132004,.174015,0.0*
1,1,.003226,-.132004,.174015*
20,1,.003226,-.132004,.174015,-.089992,.150012,0.0*
1,1,.003226,-.089992,.150012*
20,1,.003226,-.089992,.150012,-.054,.114021,0.0*
1,1,.003226,-.054,.114021*
20,1,.003226,-.054,.114021,-.029997,.072009,0.0*
1,1,.003226,-.029997,.072009*
20,1,.003226,-.029997,.072009,-.017983,.024003,0.0*
1,1,.003226,-.017983,.024003*
20,1,.003226,-.017983,.024003,-.017983,-.023978,0.0*
1,1,.003226,-.017983,-.023978*
20,1,.003226,-.017983,-.023978,-.029997,-.071984,0.0*
1,1,.003226,-.029997,-.071984*
20,1,.003226,-.029997,-.071984,-.054,-.113995,0.0*
1,1,.003226,-.054,-.113995*
20,1,.003226,-.054,-.113995,-.089992,-.149987,0.0*
1,1,.003226,-.089992,-.149987*
20,1,.003226,-.089992,-.149987,-.132004,-.17399,0.0*
1,1,.003226,-.132004,-.17399*
20,1,.003226,-.132004,-.17399,-.18001,-.179984,0.0*
1,1,.003226,-.18001,-.179984*
1,1,.003226,.030023,-.179984*
20,1,.003226,.030023,-.179984,.18001,.18001,0.0*
1,1,.003226,.18001,.18001*
20,1,.003226,.18001,.18001,.330022,-.179984,0.0*
1,1,.003226,.330022,-.179984*
1,1,.003226,.276022,-.054*
20,1,.003226,.276022,-.054,.084023,-.054,0.0*
1,1,.003226,.084023,-.054*
%
%ADD10MACRO10*%
%AMMACRO12*
1,1,.003226,.355003,0.0*
20,1,.003226,.355003,0.0,.177502,.307442,0.0*
1,1,.003226,.177502,.307442*
20,1,.003226,.177502,.307442,-.177502,.307442,0.0*
1,1,.003226,-.177502,.307442*
20,1,.003226,-.177502,.307442,-.355003,0.0,0.0*
1,1,.003226,-.355003,0.0*
20,1,.003226,-.355003,0.0,-.177502,-.307442,0.0*
1,1,.003226,-.177502,-.307442*
20,1,.003226,-.177502,-.307442,.177502,-.307442,0.0*
1,1,.003226,.177502,-.307442*
20,1,.003226,.177502,-.307442,.355003,0.0,0.0*
1,1,.003226,.355003,0.0*
%
%ADD12MACRO12*%
%AMMACRO13*
1,1,.003226,.254,.254*
20,1,.003226,.254,.254,.254,-.254,0.0*
1,1,.003226,.254,-.254*
20,1,.003226,.254,-.254,-.254,-.254,0.0*
1,1,.003226,-.254,-.254*
20,1,.003226,-.254,-.254,-.254,.254,0.0*
1,1,.003226,-.254,.254*
20,1,.003226,-.254,.254,.254,.254,0.0*
1,1,.003226,.254,.254*
%
%ADD13MACRO13*%
%ADD15C,.127*%
%ADD16C,.003226*%
G75*
%LPD*%
G75*
G54D10*
X-125Y226D03*
X62Y-30D03*
X134D03*
G54D11*
X-125Y290D03*
X114Y-365D03*
X139D03*
X165D03*
X190D03*
X211Y-312D03*
X186D03*
X256Y-365D03*
X230D03*
X262Y-312D03*
X237D03*
X281Y-365D03*
X287Y-312D03*
X307Y-365D03*
X338Y-312D03*
X313D03*
X338Y-18D03*
X313D03*
X420Y-49D03*
X445D03*
X496D03*
X471D03*
X611Y-234D03*
Y-208D03*
Y-183D03*
Y-157D03*
X637Y-234D03*
Y-183D03*
Y-208D03*
Y-157D03*
G54D12*
X-125Y353D03*
X74Y-56D03*
X122D03*
G54D13*
X-125Y417D03*
X22Y-337D03*
X19Y-268D03*
X22Y-245D03*
Y-215D03*
Y-185D03*
Y-154D03*
Y-124D03*
X7Y-78D03*
X22Y-63D03*
X13Y-90D03*
X7Y-47D03*
Y-17D03*
X52Y-367D03*
X37Y-352D03*
X52Y-337D03*
X37Y-322D03*
X52Y-245D03*
X37Y-230D03*
X52Y-215D03*
X37Y-200D03*
X52Y-185D03*
X37Y-169D03*
X52Y-154D03*
X37Y-139D03*
X52Y-124D03*
X37Y-108D03*
Y-78D03*
X52Y-63D03*
X68Y-383D03*
X98D03*
X83Y-367D03*
X68Y-352D03*
X98D03*
X83Y-337D03*
X68Y-322D03*
X98D03*
X68Y-261D03*
X98D03*
X83Y-245D03*
X68Y-230D03*
X98D03*
X83Y-215D03*
X68Y-200D03*
X98D03*
X83Y-185D03*
X68Y-169D03*
X83Y-154D03*
X68Y-139D03*
X83Y-124D03*
X68Y-108D03*
Y-78D03*
X83Y-32D03*
X98Y-17D03*
X129Y-383D03*
Y-352D03*
X113Y-306D03*
X129Y-291D03*
X113Y-215D03*
X129Y-169D03*
X113Y-154D03*
X129Y-139D03*
X113Y-124D03*
X129Y-108D03*
Y-78D03*
X113Y-32D03*
X159Y-383D03*
Y-261D03*
X174Y-245D03*
Y-215D03*
X144Y-185D03*
X174D03*
X159Y-169D03*
X144Y-154D03*
X174D03*
X159Y-139D03*
X144Y-124D03*
X174D03*
X159Y-108D03*
X144Y-93D03*
X174D03*
X159Y-78D03*
X144Y-63D03*
X174D03*
X159Y-47D03*
X174Y-32D03*
X159Y-17D03*
X190Y-383D03*
X220D03*
X190Y-322D03*
Y-291D03*
X205Y-245D03*
X220Y-230D03*
X205Y-215D03*
X207Y-158D03*
X205Y-124D03*
X220Y-108D03*
X205Y-93D03*
Y-63D03*
X251Y-383D03*
X235Y-335D03*
X251Y-230D03*
X245Y-196D03*
X235Y-93D03*
X281Y-383D03*
Y-261D03*
X266Y-185D03*
X281Y-169D03*
X296Y-124D03*
X264Y-90D03*
X296Y-93D03*
X266Y-32D03*
X296D03*
X281Y-17D03*
X311Y-383D03*
Y-139D03*
X311Y-119D03*
X322Y-111D03*
X335Y-97D03*
X327Y-124D03*
X314Y-61D03*
X311Y-78D03*
X327Y-32D03*
X342Y-383D03*
X372D03*
X363Y-353D03*
X342Y-291D03*
Y-230D03*
X351Y-251D03*
X342Y-200D03*
Y-169D03*
Y-139D03*
X372D03*
X342Y-108D03*
X372D03*
X342Y-78D03*
X372D03*
X357Y-63D03*
X342Y-47D03*
X372D03*
X357Y-32D03*
X372Y-17D03*
X403Y-383D03*
X388Y-276D03*
Y-245D03*
X399Y-203D03*
X388Y-154D03*
Y-124D03*
X403Y-108D03*
Y-78D03*
X388Y-32D03*
X403Y-17D03*
X433Y-383D03*
X418Y-276D03*
Y-245D03*
X449D03*
X433Y-230D03*
X449Y-215D03*
X433Y-200D03*
X449Y-185D03*
X433Y-169D03*
X449Y-154D03*
X433Y-108D03*
Y-78D03*
X418Y-63D03*
X449D03*
X418Y-32D03*
X433Y-17D03*
X464Y-383D03*
X494D03*
X479Y-367D03*
X494Y-352D03*
X461Y-342D03*
X494Y-322D03*
X479Y-306D03*
X494Y-261D03*
X464Y-230D03*
X494D03*
X479Y-215D03*
X464Y-200D03*
X494D03*
X479Y-185D03*
X464Y-169D03*
X494D03*
X479Y-154D03*
X464Y-108D03*
X494Y-78D03*
X479Y-63D03*
Y-32D03*
X464Y-17D03*
X494D03*
X525Y-383D03*
X510Y-367D03*
X525Y-352D03*
Y-261D03*
X510Y-124D03*
Y-63D03*
Y-32D03*
X525Y-17D03*
X555Y-383D03*
X540Y-367D03*
X571D03*
X540Y-306D03*
X571D03*
Y-276D03*
X540Y-215D03*
X555Y-200D03*
Y-108D03*
X540Y-93D03*
X571D03*
X555Y-78D03*
X540Y-63D03*
X571D03*
X555Y-47D03*
X540Y-32D03*
X571D03*
X555Y-17D03*
X586Y-383D03*
X601Y-367D03*
Y-337D03*
Y-306D03*
Y-276D03*
Y-245D03*
X586Y-200D03*
X574Y-144D03*
X601Y-93D03*
X586Y-78D03*
X601Y-63D03*
X586Y-47D03*
X601Y-32D03*
X586Y-17D03*
X632Y-337D03*
X616Y-322D03*
X632Y-306D03*
X616Y-291D03*
X632Y-276D03*
X616Y-261D03*
Y-139D03*
X632Y-124D03*
X616Y-108D03*
X632Y-93D03*
X616Y-78D03*
X632Y-63D03*
G54D14*
X-125Y480D03*
X132Y-197D03*
X115Y-90D03*
X165Y-317D03*
X157Y-326D03*
X174Y-277D03*
X156Y-197D03*
X186Y-284D03*
X193Y-272D03*
X199Y-141D03*
X192Y-72D03*
X214Y-78D03*
X240Y-298D03*
X246Y-277D03*
X222Y-278D03*
X222Y-284D03*
X226Y-272D03*
X240Y-258D03*
X247Y-254D03*
X231Y-227D03*
X235Y-243D03*
X284Y-274D03*
X284Y-252D03*
X287Y-233D03*
X267Y-231D03*
X287Y-205D03*
X290Y-199D03*
X283Y-69D03*
X289Y-45D03*
X327Y-363D03*
X318Y-332D03*
X322Y-278D03*
X323Y-264D03*
X317Y-255D03*
X311Y-270D03*
X303Y-228D03*
X303Y-195D03*
X310Y-197D03*
X300Y-183D03*
X336Y-149D03*
X328Y-168D03*
X322Y-173D03*
X311Y-163D03*
X373Y-343D03*
X372Y-365D03*
X354Y-320D03*
X367Y-285D03*
X372Y-292D03*
X360Y-181D03*
X351Y-172D03*
X360Y-162D03*
X351Y-98D03*
X445Y-326D03*
X455Y-330D03*
X434Y-326D03*
X441Y-312D03*
X416Y-98D03*
X457Y-320D03*
X472Y-275D03*
X474Y-98D03*
X514Y-275D03*
X525Y-237D03*
X517Y-247D03*
X494Y-182D03*
X501Y-107D03*
X529Y-110D03*
X525Y-25D03*
X517Y-49D03*
X550Y-346D03*
X556Y-285D03*
X537Y-292D03*
X559Y-140D03*
X546Y-145D03*
X535Y-146D03*
X559Y-117D03*
X546Y-110D03*
X583Y-346D03*
G54D15*
G01X45Y-370D02*
G03I-15J0D01*
G01Y-30D02*
G03I-15J0D01*
G01X635Y-370D02*
G03I-15J0D01*
G01Y-30D02*
G03I-15J0D01*
G54D16*
G01X-239Y194D02*
Y702D01*
X989D01*
Y194D01*
X-239D01*
G01Y258D02*
X989D01*
G01X-239Y321D02*
X989D01*
G01X-239Y385D02*
X989D01*
G01X-239Y448D02*
X989D01*
G01X-211Y528D02*
Y560D01*
X-196D01*
G01X-202Y544D02*
X-211D01*
G01X-177Y560D02*
X-167D01*
G01X-172D02*
Y528D01*
G01X-177D02*
X-167D01*
G01X-138Y544D02*
X-130D01*
Y534D01*
X-133Y531D01*
X-135Y529D01*
X-139Y528D01*
X-143Y529D01*
X-146Y531D01*
X-148Y534D01*
X-150Y538D01*
X-151Y542D01*
Y546D01*
X-150Y549D01*
X-148Y553D01*
X-146Y556D01*
X-144Y558D01*
X-141Y560D01*
X-138D01*
X-135Y558D01*
X-132Y556D01*
G01X-118Y560D02*
Y537D01*
X-116Y532D01*
X-113Y529D01*
X-109Y528D01*
X-105Y529D01*
X-102Y532D01*
X-100Y537D01*
Y560D01*
G01X-85Y528D02*
Y560D01*
X-76D01*
X-72Y558D01*
X-70Y556D01*
X-70Y552D01*
X-70Y547D01*
X-73Y545D01*
X-76Y543D01*
X-85D01*
G01X-76D02*
X-70Y528D01*
G01X-38D02*
X-54D01*
Y560D01*
X-38D01*
G01X-44Y544D02*
X-54D01*
G01X-239Y512D02*
X989D01*
G01X-239Y575D02*
X989D01*
G01X-239Y639D02*
X989D01*
G01X-27Y655D02*
Y687D01*
X-19D01*
X-16Y685D01*
X-14Y683D01*
X-12Y680D01*
X-10Y676D01*
X-10Y671D01*
X-10Y665D01*
X-12Y662D01*
X-14Y658D01*
X-16Y656D01*
X-19Y655D01*
X-27D01*
G01X5D02*
Y687D01*
X15D01*
X18Y685D01*
X20Y683D01*
X21Y679D01*
X20Y674D01*
X18Y672D01*
X15Y670D01*
X5D01*
G01X15D02*
X21Y655D01*
G01X40Y687D02*
X49D01*
G01X45D02*
Y655D01*
G01X40D02*
X49D01*
G01X68Y687D02*
Y655D01*
X84D01*
G01X100Y687D02*
Y655D01*
X115D01*
G01X179Y684D02*
X177Y685D01*
X174Y687D01*
X171D01*
X167Y685D01*
X165Y682D01*
X163Y679D01*
X161Y674D01*
X161Y669D01*
X161Y664D01*
X163Y661D01*
X165Y658D01*
X168Y656D01*
X171Y655D01*
X173D01*
X176Y656D01*
X178Y657D01*
X180Y660D01*
G01X194Y655D02*
Y687D01*
G01X210D02*
Y655D01*
G01Y671D02*
X194D01*
G01X224Y655D02*
X233Y687D01*
X243Y655D01*
G01X240Y666D02*
X227D01*
G01X257Y655D02*
Y687D01*
X267D01*
X270Y685D01*
X272Y683D01*
X273Y679D01*
X272Y674D01*
X270Y672D01*
X267Y670D01*
X257D01*
G01X267D02*
X273Y655D01*
G01X296Y687D02*
Y655D01*
G01X287Y687D02*
X306D01*
G01X328Y654D02*
X327Y654D01*
Y655D01*
X328Y656D01*
X329Y655D01*
Y654D01*
X328Y654D01*
G01Y668D02*
X327Y669D01*
Y670D01*
X328Y670D01*
X329Y670D01*
Y669D01*
X328Y668D01*
G01X391Y687D02*
Y655D01*
G01X382Y687D02*
X400D01*
G01X422Y655D02*
X419Y655D01*
X417Y657D01*
X414Y661D01*
X413Y664D01*
X412Y669D01*
Y673D01*
X413Y677D01*
X414Y681D01*
X417Y684D01*
X419Y686D01*
X422Y687D01*
X426Y686D01*
X428Y684D01*
X431Y681D01*
X432Y677D01*
X433Y673D01*
Y669D01*
X432Y664D01*
X431Y661D01*
X428Y657D01*
X426Y655D01*
X422Y655D01*
G01X446D02*
Y687D01*
X456D01*
X459Y685D01*
X461Y681D01*
X462Y677D01*
X461Y673D01*
X459Y670D01*
X456Y668D01*
X446D01*
G01X517Y687D02*
Y655D01*
G01X511Y676D02*
X522D01*
G01X548Y655D02*
X546Y655D01*
X544Y657D01*
X542Y661D01*
X541Y665D01*
X542Y670D01*
X544Y673D01*
X546Y675D01*
X548Y676D01*
X551Y675D01*
X553Y673D01*
X555Y670D01*
X555Y665D01*
X555Y661D01*
X553Y657D01*
X551Y655D01*
X548Y655D01*
G01X615Y672D02*
X616Y673D01*
X617Y676D01*
X618Y680D01*
X617Y683D01*
X616Y685D01*
X613Y687D01*
X602D01*
Y655D01*
X615D01*
X618Y657D01*
X620Y660D01*
X621Y664D01*
X620Y667D01*
X617Y671D01*
X615Y672D01*
X602D01*
G01X643Y655D02*
X640Y655D01*
X637Y657D01*
X635Y661D01*
X633Y664D01*
X632Y669D01*
Y673D01*
X633Y677D01*
X635Y681D01*
X637Y684D01*
X640Y686D01*
X643Y687D01*
X646Y686D01*
X649Y684D01*
X651Y681D01*
X653Y677D01*
X654Y673D01*
Y669D01*
X653Y664D01*
X651Y661D01*
X649Y657D01*
X646Y655D01*
X643Y655D01*
G01X674Y687D02*
Y655D01*
G01X665Y687D02*
X683D01*
G01X706D02*
Y655D01*
G01X697Y687D02*
X715D01*
G01X737Y655D02*
X734Y655D01*
X732Y657D01*
X729Y661D01*
X728Y664D01*
X727Y669D01*
Y673D01*
X728Y677D01*
X729Y681D01*
X732Y684D01*
X734Y686D01*
X737Y687D01*
X741Y686D01*
X743Y684D01*
X746Y681D01*
X747Y677D01*
X748Y673D01*
Y669D01*
X747Y664D01*
X746Y661D01*
X743Y657D01*
X741Y655D01*
X737Y655D01*
G01X759D02*
Y687D01*
X769Y660D01*
X779Y687D01*
Y655D01*
G01X0Y-400D02*
Y0D01*
X650D01*
Y-400D01*
X0D01*
G01X45Y-370D02*
G03I-15J0D01*
G01Y-30D02*
G03I-15J0D01*
G01X-11Y575D02*
Y194D01*
G01X45Y210D02*
Y242D01*
X31Y219D01*
X50D01*
G01X71Y210D02*
X72Y217D01*
X73Y223D01*
X75Y228D01*
X77Y234D01*
X80Y242D01*
X64D01*
G01X104Y209D02*
X103Y210D01*
Y211D01*
X104Y211D01*
X104Y210D01*
X104Y209D01*
G01X128Y237D02*
X130Y240D01*
X133Y242D01*
X136Y242D01*
X140Y241D01*
X143Y238D01*
X143Y235D01*
X143Y232D01*
X141Y229D01*
X133Y224D01*
X130Y220D01*
X128Y215D01*
X127Y210D01*
X143D01*
G01X171D02*
Y242D01*
X157Y219D01*
X176D01*
G01X203Y210D02*
Y242D01*
X188Y219D01*
X208D01*
G01X224Y231D02*
X235Y210D01*
G01Y231D02*
X224Y210D01*
G01X254Y237D02*
X256Y240D01*
X259Y242D01*
X262Y242D01*
X266Y241D01*
X269Y238D01*
X269Y235D01*
X269Y232D01*
X267Y229D01*
X259Y224D01*
X256Y220D01*
X254Y215D01*
X253Y210D01*
X269D01*
G01X293D02*
X295Y211D01*
X298Y212D01*
X300Y215D01*
X301Y219D01*
X300Y222D01*
X298Y226D01*
X295Y227D01*
X291D01*
X288Y228D01*
X286Y231D01*
X285Y235D01*
X287Y238D01*
X289Y241D01*
X293Y242D01*
X296Y241D01*
X298Y238D01*
X300Y235D01*
X299Y231D01*
X297Y228D01*
X295Y227D01*
X291D01*
X287Y226D01*
X285Y222D01*
X284Y219D01*
X285Y215D01*
X287Y212D01*
X290Y211D01*
X293Y210D01*
G01X324Y209D02*
X323Y210D01*
Y211D01*
X324Y211D01*
X325Y211D01*
Y210D01*
X324Y209D01*
G01X347Y217D02*
X349Y213D01*
X352Y211D01*
X356Y210D01*
X359Y211D01*
X362Y213D01*
X364Y217D01*
X365Y220D01*
X364Y224D01*
X361Y226D01*
X358Y227D01*
X355D01*
G01X358D02*
X361Y229D01*
X363Y231D01*
X363Y235D01*
X363Y238D01*
X361Y240D01*
X357Y242D01*
X354Y242D01*
X350Y239D01*
G01X392Y210D02*
Y242D01*
X377Y219D01*
X397D01*
G01X411Y224D02*
X414Y227D01*
X416Y229D01*
X419Y230D01*
X422Y229D01*
X424Y227D01*
X426Y224D01*
X426Y220D01*
X426Y217D01*
X424Y214D01*
X422Y211D01*
X419Y210D01*
X416Y211D01*
X413Y215D01*
X411Y219D01*
X411Y225D01*
X412Y231D01*
X413Y235D01*
X415Y239D01*
X418Y242D01*
X421Y242D01*
X423Y241D01*
X425Y238D01*
G01X50Y591D02*
X60Y623D01*
X70Y591D01*
G01X67Y602D02*
X54D01*
G01X84Y623D02*
Y591D01*
X100D01*
G01X115Y623D02*
Y591D01*
X131D01*
G01X178Y623D02*
Y600D01*
X179Y596D01*
X182Y592D01*
X186Y591D01*
X190Y592D01*
X193Y596D01*
X195Y600D01*
Y623D01*
G01X209Y591D02*
Y623D01*
X227Y591D01*
Y623D01*
G01X245D02*
X254D01*
G01X249D02*
Y591D01*
G01X245D02*
X254D01*
G01X281Y623D02*
Y591D01*
G01X272Y623D02*
X290D01*
G01X304Y596D02*
X307Y593D01*
X311Y591D01*
X314D01*
X317Y593D01*
X319Y596D01*
X321Y599D01*
X320Y603D01*
X318Y606D01*
X314Y608D01*
X309Y609D01*
X307Y611D01*
X306Y615D01*
X306Y619D01*
X308Y621D01*
X311Y623D01*
X314D01*
X317Y622D01*
X319Y619D01*
G01X365Y591D02*
X375Y623D01*
X385Y591D01*
G01X382Y602D02*
X369D01*
G01X399Y591D02*
Y623D01*
X409D01*
X412Y621D01*
X414Y619D01*
X415Y615D01*
X414Y611D01*
X411Y608D01*
X409Y607D01*
X399D01*
G01X409D02*
X415Y591D01*
G01X446D02*
X430D01*
Y623D01*
X446D01*
G01X440Y608D02*
X430D01*
G01X496Y623D02*
X506D01*
G01X501D02*
Y591D01*
G01X496D02*
X506D01*
G01X524D02*
Y623D01*
X542Y591D01*
Y623D01*
G01X585Y591D02*
Y623D01*
X596Y597D01*
X606Y623D01*
Y591D01*
G01X622Y623D02*
X632D01*
G01X627D02*
Y591D01*
G01X622D02*
X632D01*
G01X651Y623D02*
Y591D01*
X667D01*
G01X682Y596D02*
X685Y593D01*
X689Y591D01*
X692D01*
X695Y593D01*
X697Y596D01*
X698Y599D01*
X698Y603D01*
X696Y606D01*
X692Y608D01*
X687Y609D01*
X685Y611D01*
X683Y615D01*
X684Y619D01*
X686Y621D01*
X689Y623D01*
X692D01*
X695Y622D01*
X697Y619D01*
G01X142Y280D02*
X145Y276D01*
X148Y274D01*
X151Y274D01*
X154Y274D01*
X158Y277D01*
X159Y280D01*
X160Y283D01*
X159Y287D01*
X156Y290D01*
X154Y291D01*
X150D01*
G01X154D02*
X156Y292D01*
X158Y295D01*
X159Y298D01*
X158Y301D01*
X156Y304D01*
X152Y306D01*
X149Y305D01*
X145Y303D01*
G01X174Y279D02*
X176Y276D01*
X179Y274D01*
X182Y274D01*
X186Y275D01*
X189Y277D01*
X191Y281D01*
X191Y285D01*
X190Y289D01*
X188Y292D01*
X185Y294D01*
X183Y294D01*
X180Y294D01*
X176Y292D01*
X178Y306D01*
X188D01*
G01X214Y273D02*
X213Y273D01*
Y274D01*
X214Y275D01*
X215Y274D01*
Y273D01*
X214Y273D01*
G01X250Y274D02*
Y306D01*
X235Y283D01*
X255D01*
G01X268Y280D02*
X271Y276D01*
X274Y274D01*
X277Y274D01*
X280Y274D01*
X283Y277D01*
X285Y280D01*
X286Y283D01*
X285Y287D01*
X282Y290D01*
X280Y291D01*
X276D01*
G01X280D02*
X282Y292D01*
X284Y295D01*
X285Y298D01*
X284Y301D01*
X282Y304D01*
X278Y306D01*
X275Y305D01*
X271Y303D01*
G01X300Y280D02*
X302Y276D01*
X305Y274D01*
X309Y274D01*
X312Y274D01*
X315Y277D01*
X317Y280D01*
X317Y283D01*
X317Y287D01*
X314Y290D01*
X311Y291D01*
X308D01*
G01X311D02*
X313Y292D01*
X315Y295D01*
X316Y298D01*
X315Y301D01*
X313Y304D01*
X310Y306D01*
X306Y305D01*
X303Y303D01*
G01X143Y364D02*
X146Y367D01*
X148Y369D01*
X152Y369D01*
X156Y368D01*
X158Y365D01*
X159Y362D01*
X159Y359D01*
X157Y356D01*
X149Y351D01*
X146Y347D01*
X143Y342D01*
X143Y337D01*
X159D01*
G01X182D02*
X182Y344D01*
X183Y350D01*
X185Y355D01*
X187Y361D01*
X190Y369D01*
X174D01*
G01X214Y336D02*
X213Y337D01*
Y338D01*
X214Y338D01*
X215Y338D01*
Y337D01*
X214Y336D01*
G01X239Y341D02*
X241Y338D01*
X245Y337D01*
X248Y338D01*
X250Y342D01*
X252Y346D01*
X253Y351D01*
Y357D01*
X252Y362D01*
X250Y366D01*
X248Y368D01*
X245Y369D01*
X242Y368D01*
X240Y366D01*
X238Y363D01*
X237Y358D01*
X238Y355D01*
X240Y351D01*
X243Y349D01*
X245Y348D01*
X248Y349D01*
X251Y352D01*
X253Y357D01*
G01X268Y342D02*
X271Y339D01*
X273Y338D01*
X277Y337D01*
X280Y338D01*
X283Y340D01*
X285Y344D01*
X285Y348D01*
X285Y353D01*
X283Y355D01*
X280Y357D01*
X277Y358D01*
X274Y357D01*
X271Y355D01*
X272Y369D01*
X283D01*
G01X300Y344D02*
X302Y340D01*
X305Y338D01*
X309Y337D01*
X312Y338D01*
X315Y340D01*
X317Y344D01*
X317Y347D01*
X317Y351D01*
X314Y353D01*
X311Y354D01*
X308D01*
G01X311D02*
X313Y356D01*
X315Y358D01*
X316Y362D01*
X315Y365D01*
X313Y367D01*
X310Y369D01*
X306Y369D01*
X303Y366D01*
G01X175Y427D02*
X177Y430D01*
X180Y432D01*
X183Y433D01*
X187Y431D01*
X190Y429D01*
X191Y426D01*
X190Y422D01*
X189Y420D01*
X181Y415D01*
X177Y411D01*
X175Y406D01*
X174Y401D01*
X191D01*
G01X214Y433D02*
X211Y431D01*
X208Y429D01*
X207Y426D01*
X206Y421D01*
X205Y417D01*
X206Y412D01*
X207Y408D01*
X208Y404D01*
X211Y402D01*
X214Y401D01*
X217Y402D01*
X219Y404D01*
X221Y408D01*
X222Y412D01*
X222Y417D01*
X222Y421D01*
X221Y426D01*
X219Y429D01*
X217Y431D01*
X214Y433D01*
G01X245Y400D02*
X245Y401D01*
X245Y402D01*
X246Y401D01*
Y400D01*
X245Y400D01*
G01X277Y433D02*
X274Y431D01*
X271Y429D01*
X270Y426D01*
X269Y421D01*
X268Y417D01*
X269Y412D01*
X270Y408D01*
X271Y404D01*
X274Y402D01*
X277Y401D01*
X280Y402D01*
X282Y404D01*
X284Y408D01*
X285Y412D01*
X285Y417D01*
X285Y421D01*
X284Y426D01*
X282Y429D01*
X280Y431D01*
X277Y433D01*
G01X182Y464D02*
Y496D01*
X178Y490D01*
G01Y464D02*
X187D01*
G01X206Y491D02*
X209Y494D01*
X211Y496D01*
X215Y496D01*
X219Y495D01*
X221Y492D01*
X222Y489D01*
X222Y486D01*
X220Y483D01*
X212Y478D01*
X209Y474D01*
X206Y469D01*
X206Y464D01*
X222D01*
G01X245Y463D02*
X245Y464D01*
Y465D01*
X246D01*
Y464D01*
X245Y463D01*
G01X277Y496D02*
X274Y495D01*
X271Y492D01*
X270Y489D01*
X269Y485D01*
X268Y480D01*
X269Y475D01*
X270Y471D01*
X271Y468D01*
X274Y465D01*
X277Y464D01*
X280Y465D01*
X282Y468D01*
X284Y471D01*
X285Y475D01*
X285Y480D01*
X285Y485D01*
X284Y489D01*
X282Y492D01*
X280Y495D01*
X277Y496D01*
G01X174Y532D02*
X177Y529D01*
X181Y528D01*
X184D01*
X187Y529D01*
X189Y532D01*
X191Y536D01*
X190Y539D01*
X188Y543D01*
X184Y545D01*
X180Y546D01*
X177Y548D01*
X176Y552D01*
X176Y555D01*
X178Y558D01*
X181Y560D01*
X184D01*
X187Y558D01*
X189Y556D01*
G01X209Y560D02*
X219D01*
G01X214D02*
Y528D01*
G01X209D02*
X219D01*
G01X238Y560D02*
X253D01*
X238Y528D01*
X253D01*
G01X285D02*
X269D01*
Y560D01*
X285D01*
G01X278Y544D02*
X269D01*
G01X470Y575D02*
Y194D01*
G01X545Y210D02*
Y242D01*
X554D01*
X557Y240D01*
X559Y237D01*
X560Y233D01*
X559Y228D01*
X558Y225D01*
X554Y224D01*
X545D01*
G01X576Y242D02*
Y210D01*
X592D01*
G01X606D02*
X615Y242D01*
X625Y210D01*
G01X622Y221D02*
X609D01*
G01X647Y242D02*
Y210D01*
G01X638Y242D02*
X656D01*
G01X686Y210D02*
X671D01*
Y242D01*
X686D01*
G01X680Y227D02*
X671D01*
G01X701Y210D02*
Y242D01*
X709D01*
X712Y240D01*
X715Y238D01*
X717Y235D01*
X718Y231D01*
X719Y226D01*
X718Y221D01*
X717Y217D01*
X715Y214D01*
X712Y212D01*
X709Y210D01*
X701D01*
G01X545Y274D02*
Y306D01*
X554D01*
X557Y304D01*
X559Y300D01*
X560Y296D01*
X559Y292D01*
X558Y289D01*
X554Y287D01*
X545D01*
G01X576Y306D02*
Y274D01*
X592D01*
G01X606D02*
X615Y306D01*
X625Y274D01*
G01X622Y285D02*
X609D01*
G01X647Y306D02*
Y274D01*
G01X638Y306D02*
X656D01*
G01X686Y274D02*
X671D01*
Y306D01*
X686D01*
G01X680Y290D02*
X671D01*
G01X701Y274D02*
Y306D01*
X709D01*
X712Y304D01*
X715Y302D01*
X717Y299D01*
X718Y295D01*
X719Y290D01*
X718Y284D01*
X717Y281D01*
X715Y277D01*
X712Y275D01*
X709Y274D01*
X701D01*
G01X545Y337D02*
Y369D01*
X554D01*
X557Y367D01*
X559Y364D01*
X560Y360D01*
X559Y355D01*
X558Y352D01*
X554Y351D01*
X545D01*
G01X576Y369D02*
Y337D01*
X592D01*
G01X606D02*
X615Y369D01*
X625Y337D01*
G01X622Y348D02*
X609D01*
G01X647Y369D02*
Y337D01*
G01X638Y369D02*
X656D01*
G01X686Y337D02*
X671D01*
Y369D01*
X686D01*
G01X680Y354D02*
X671D01*
G01X701Y337D02*
Y369D01*
X709D01*
X712Y367D01*
X715Y365D01*
X717Y362D01*
X718Y358D01*
X719Y353D01*
X718Y348D01*
X717Y344D01*
X715Y341D01*
X712Y339D01*
X709Y337D01*
X701D01*
G01X545Y401D02*
Y433D01*
X554D01*
X557Y431D01*
X559Y427D01*
X560Y423D01*
X559Y419D01*
X558Y416D01*
X554Y414D01*
X545D01*
G01X576Y433D02*
Y401D01*
X592D01*
G01X606D02*
X615Y433D01*
X625Y401D01*
G01X622Y412D02*
X609D01*
G01X647Y433D02*
Y401D01*
G01X638Y433D02*
X656D01*
G01X686Y401D02*
X671D01*
Y433D01*
X686D01*
G01X680Y417D02*
X671D01*
G01X701Y401D02*
Y433D01*
X709D01*
X712Y431D01*
X715Y429D01*
X717Y426D01*
X718Y422D01*
X719Y417D01*
X718Y411D01*
X717Y408D01*
X715Y404D01*
X712Y402D01*
X709Y401D01*
X701D01*
G01X545Y464D02*
Y496D01*
X554D01*
X557Y494D01*
X559Y491D01*
X560Y487D01*
X559Y482D01*
X558Y479D01*
X554Y478D01*
X545D01*
G01X576Y496D02*
Y464D01*
X592D01*
G01X606D02*
X615Y496D01*
X625Y464D01*
G01X622Y475D02*
X609D01*
G01X647Y496D02*
Y464D01*
G01X638Y496D02*
X656D01*
G01X686Y464D02*
X671D01*
Y496D01*
X686D01*
G01X680Y481D02*
X671D01*
G01X701Y464D02*
Y496D01*
X709D01*
X712Y494D01*
X715Y492D01*
X717Y489D01*
X718Y485D01*
X719Y480D01*
X718Y475D01*
X717Y471D01*
X715Y468D01*
X712Y466D01*
X709Y464D01*
X701D01*
G01X545Y528D02*
Y560D01*
X554D01*
X557Y558D01*
X559Y554D01*
X560Y550D01*
X559Y546D01*
X558Y543D01*
X554Y541D01*
X545D01*
G01X576Y560D02*
Y528D01*
X592D01*
G01X606D02*
X615Y560D01*
X625Y528D01*
G01X622Y539D02*
X609D01*
G01X647Y560D02*
Y528D01*
G01X638Y560D02*
X656D01*
G01X686Y528D02*
X671D01*
Y560D01*
X686D01*
G01X680Y544D02*
X671D01*
G01X701Y528D02*
Y560D01*
X709D01*
X712Y558D01*
X715Y556D01*
X717Y553D01*
X718Y549D01*
X719Y544D01*
X718Y538D01*
X717Y535D01*
X715Y531D01*
X712Y529D01*
X709Y528D01*
X701D01*
G01X635Y-370D02*
G03I-15J0D01*
G01Y-30D02*
G03I-15J0D01*
G01X793Y575D02*
Y194D01*
G01X883Y237D02*
X886Y240D01*
X889Y242D01*
X892Y242D01*
X896Y241D01*
X898Y238D01*
X899Y235D01*
X899Y232D01*
X897Y229D01*
X889Y224D01*
X886Y220D01*
X883Y215D01*
X883Y210D01*
X899D01*
G01X868Y300D02*
X870Y303D01*
X873Y305D01*
X876Y306D01*
X880Y304D01*
X883Y302D01*
X883Y299D01*
X883Y295D01*
X882Y293D01*
X874Y288D01*
X870Y284D01*
X868Y279D01*
X867Y274D01*
X883D01*
G01X900Y277D02*
X903Y275D01*
X906Y274D01*
X909Y275D01*
X912Y278D01*
X914Y283D01*
X915Y288D01*
Y293D01*
X914Y298D01*
X912Y302D01*
X909Y304D01*
X907Y306D01*
X904Y304D01*
X901Y302D01*
X900Y299D01*
X899Y295D01*
X900Y291D01*
X902Y288D01*
X904Y285D01*
X907Y285D01*
X910Y286D01*
X912Y289D01*
X915Y293D01*
G01X883Y364D02*
X886Y367D01*
X889Y369D01*
X892Y369D01*
X896Y368D01*
X898Y365D01*
X899Y362D01*
X899Y359D01*
X897Y356D01*
X889Y351D01*
X886Y347D01*
X883Y342D01*
X883Y337D01*
X899D01*
G01X852Y427D02*
X854Y430D01*
X857Y432D01*
X860Y433D01*
X864Y431D01*
X867Y429D01*
X868Y426D01*
X867Y422D01*
X866Y420D01*
X858Y415D01*
X854Y411D01*
X852Y406D01*
X851Y401D01*
X868D01*
G01X896D02*
Y433D01*
X881Y410D01*
X901D01*
G01X915Y427D02*
X917Y430D01*
X920Y432D01*
X923Y433D01*
X927Y431D01*
X930Y429D01*
X931Y426D01*
X930Y422D01*
X929Y420D01*
X921Y415D01*
X917Y411D01*
X915Y406D01*
X914Y401D01*
X931D01*
G01X874Y464D02*
X875Y471D01*
X876Y477D01*
X878Y482D01*
X880Y488D01*
X883Y496D01*
X867D01*
G01X899Y478D02*
X902Y481D01*
X904Y483D01*
X908Y484D01*
X910Y483D01*
X912Y481D01*
X914Y478D01*
X914Y474D01*
X914Y471D01*
X912Y468D01*
X910Y465D01*
X907Y464D01*
X904Y465D01*
X901Y469D01*
X900Y473D01*
X899Y479D01*
X900Y485D01*
X901Y489D01*
X903Y493D01*
X906Y496D01*
X909Y496D01*
X911Y495D01*
X913Y492D01*
G01X859Y528D02*
X856Y528D01*
X854Y530D01*
X851Y534D01*
X850Y537D01*
X849Y542D01*
Y546D01*
X850Y550D01*
X851Y554D01*
X854Y557D01*
X856Y559D01*
X859Y560D01*
X863Y559D01*
X865Y557D01*
X868Y554D01*
X869Y550D01*
X870Y546D01*
Y542D01*
X869Y537D01*
X868Y534D01*
X865Y530D01*
X863Y528D01*
X859Y528D01*
G01X863Y536D02*
X867Y528D01*
G01X891Y560D02*
Y528D01*
G01X882Y560D02*
X900D01*
G01X922Y528D02*
Y542D01*
X915Y560D01*
G01X930D02*
X922Y542D01*
M02*
