G04 ================== begin FILE IDENTIFICATION RECORD ==================*
G04 Layout Name:  F:/projects/git/Hardware/magnetic/PCB/RECEIVER/Receiver2.brd*
G04 Film Name:    SilkscreenTop*
G04 File Format:  Gerber RS274X*
G04 File Origin:  Cadence Allegro 16.6-2015-S108*
G04 Origin Date:  Sun Nov 17 15:25:23 2019*
G04 *
G04 Layer:  REF DES/SILKSCREEN_TOP*
G04 Layer:  PACKAGE GEOMETRY/SILKSCREEN_TOP*
G04 Layer:  BOARD GEOMETRY/SILKSCREEN_TOP*
G04 Layer:  BOARD GEOMETRY/OUTLINE*
G04 *
G04 Offset:    (0.000 0.000)*
G04 Mirror:    No*
G04 Mode:      Positive*
G04 Rotation:  0*
G04 FullContactRelief:  No*
G04 UndefLineWidth:     0.127*
G04 ================== end FILE IDENTIFICATION RECORD ====================*
%FSLAX31Y31*MOMM*%
%IR0*IPPOS*OFA0.00000B0.00000*MIA0B0*SFA1.00000B1.00000*%
%ADD10C,.127*%
%ADD11C,.150012*%
%ADD12C,.003226*%
G75*
%LPD*%
G75*
G36*
G01X147Y-256D02*
G03I-4J0D01*
G37*
G36*
G01X591Y-181D02*
G03I-2J0D01*
G37*
G54D10*
G01X45Y-370D02*
G03I-15J0D01*
G01X5Y-311D02*
Y-301D01*
X7D01*
X8Y-301D01*
X8Y-302D01*
X8Y-303D01*
X8Y-305D01*
X7Y-306D01*
X5Y-306D01*
G01X7D02*
X8Y-311D01*
G01X13D02*
Y-301D01*
X12Y-303D01*
G01Y-311D02*
X14D01*
G01X18Y-302D02*
X43D01*
Y-312D01*
X18D01*
Y-302D01*
G01X4Y-298D02*
Y-287D01*
X6D01*
X7Y-288D01*
X7Y-289D01*
X7Y-290D01*
X7Y-291D01*
X7Y-292D01*
X6Y-293D01*
X4D01*
G01X6D02*
X7Y-298D01*
G01X11Y-289D02*
X11Y-288D01*
X12Y-288D01*
X13Y-287D01*
X13Y-288D01*
X14Y-289D01*
X14Y-290D01*
X14Y-291D01*
X14Y-292D01*
X12Y-293D01*
X11Y-294D01*
X11Y-296D01*
X11Y-298D01*
X14D01*
G01X17Y-288D02*
X43D01*
Y-298D01*
X17D01*
Y-288D01*
G01X23Y-260D02*
X23Y-259D01*
X22Y-259D01*
X21Y-259D01*
X20Y-260D01*
X20Y-261D01*
X19Y-263D01*
X19Y-264D01*
X19Y-266D01*
X20Y-267D01*
X20Y-268D01*
X21Y-269D01*
X22Y-269D01*
X23Y-269D01*
X23Y-268D01*
X24Y-267D01*
G01X28Y-269D02*
Y-259D01*
X27Y-261D01*
G01Y-269D02*
X29D01*
G01X36D02*
Y-259D01*
X33Y-266D01*
X37D01*
G01X17Y-273D02*
G03Y-284I5J-5D01*
G01D02*
X42Y-284D01*
G03Y-273I-5J6D01*
G01D02*
X17Y-273D01*
G01X45Y-30D02*
G03I-15J0D01*
G01X51Y-46D02*
X50Y-46D01*
X49Y-46D01*
X49Y-47D01*
X49Y-48D01*
X50Y-48D01*
X51Y-49D01*
X52Y-49D01*
X59D01*
G01X49Y-54D02*
X59D01*
X57Y-53D01*
G01X49D02*
Y-55D01*
G01X207Y-380D02*
Y-350D01*
X97D01*
Y-380D01*
X207D01*
G01X94Y-344D02*
X94Y-345D01*
X95Y-346D01*
X96D01*
X97Y-345D01*
X97Y-344D01*
X97Y-343D01*
Y-336D01*
G01X101Y-342D02*
X101Y-341D01*
X102Y-340D01*
X103D01*
X103Y-341D01*
X104Y-342D01*
X104Y-343D01*
X104Y-344D01*
X103Y-345D01*
X103Y-346D01*
X102Y-346D01*
X101Y-345D01*
X101Y-344D01*
X101Y-342D01*
X101Y-340D01*
X101Y-338D01*
X101Y-337D01*
X102Y-336D01*
X103Y-336D01*
X103Y-337D01*
X104Y-337D01*
G01X91Y-256D02*
Y-263D01*
X91Y-265D01*
X92Y-266D01*
X93Y-266D01*
X94Y-266D01*
X94Y-265D01*
X95Y-263D01*
Y-256D01*
G01X97Y-264D02*
X98Y-265D01*
X99Y-266D01*
X100D01*
X101Y-265D01*
X101Y-264D01*
X101Y-263D01*
X101Y-262D01*
X101Y-261D01*
X100Y-260D01*
X99D01*
G01X100D02*
X101Y-259D01*
X101Y-258D01*
X101Y-257D01*
X100Y-256D01*
X99Y-256D01*
X98Y-257D01*
G01X135Y-18D02*
Y-6D01*
X62D01*
Y-17D01*
G01X104Y-382D02*
X114D01*
Y-384D01*
X113Y-385D01*
X112Y-385D01*
X111Y-385D01*
X110Y-384D01*
X109Y-384D01*
Y-382D01*
G01Y-384D02*
X104Y-385D01*
G01X106Y-388D02*
X105Y-389D01*
X104Y-390D01*
X105Y-391D01*
X106Y-391D01*
X107Y-392D01*
X108Y-391D01*
X109Y-391D01*
X110Y-390D01*
X110Y-389D01*
X111Y-389D01*
X112Y-388D01*
X113Y-389D01*
X114Y-389D01*
X114Y-390D01*
X114Y-391D01*
X113Y-391D01*
G01X114Y-396D02*
X104D01*
G01X114Y-395D02*
Y-398D01*
G01X139Y-384D02*
Y-386D01*
X136D01*
X135Y-385D01*
X134Y-385D01*
X134Y-384D01*
X134Y-383D01*
X135Y-382D01*
X136Y-382D01*
X137Y-381D01*
X138Y-381D01*
X140D01*
X141Y-381D01*
X142Y-382D01*
X143Y-382D01*
X143Y-383D01*
X144Y-384D01*
X144Y-385D01*
X143Y-385D01*
G01X134Y-388D02*
X144D01*
X134Y-392D01*
X144D01*
G01X134Y-395D02*
X144D01*
Y-397D01*
X143Y-397D01*
X143Y-398D01*
X142Y-398D01*
X141Y-399D01*
X139Y-399D01*
X137Y-399D01*
X136Y-398D01*
X135Y-398D01*
X134Y-397D01*
X134Y-395D01*
G01X101Y-316D02*
Y-321D01*
X106D01*
G01X101Y-276D02*
Y-271D01*
X106D01*
G01X114Y-247D02*
X115Y-247D01*
X115Y-246D01*
X115Y-245D01*
X114Y-244D01*
X113Y-244D01*
X111Y-243D01*
X109Y-243D01*
X108Y-243D01*
X107Y-244D01*
X106Y-244D01*
X105Y-245D01*
X105Y-246D01*
X105Y-247D01*
X106Y-247D01*
X106Y-248D01*
G01X113Y-250D02*
X114Y-251D01*
X115Y-252D01*
X115Y-253D01*
X114Y-254D01*
X113Y-254D01*
X112Y-254D01*
X111Y-253D01*
X109Y-252D01*
X108Y-251D01*
X106Y-250D01*
X105Y-250D01*
Y-254D01*
G01X107Y-236D02*
G03X118I5J5D01*
G01D02*
X118Y-211D01*
G03X107I-6J-5D01*
G01D02*
X107Y-236D01*
G01X128Y-247D02*
X129Y-247D01*
X129Y-246D01*
Y-245D01*
X128Y-244D01*
X127Y-244D01*
X125Y-243D01*
X124Y-243D01*
X122Y-243D01*
X121Y-244D01*
X120Y-244D01*
X119Y-245D01*
X119Y-246D01*
X119Y-247D01*
X120Y-247D01*
X121Y-248D01*
G01X119Y-252D02*
X129D01*
X127Y-251D01*
G01X119D02*
Y-253D01*
G01X121Y-236D02*
G03X132I5J5D01*
G01D02*
X132Y-211D01*
G03X121I-6J-5D01*
G01D02*
X121Y-236D01*
G01X136Y-242D02*
X146D01*
Y-244D01*
X145Y-245D01*
X144Y-245D01*
X142Y-245D01*
X142Y-244D01*
X141Y-244D01*
Y-242D01*
G01Y-244D02*
X136Y-245D01*
G01X138Y-248D02*
X137Y-248D01*
X136Y-249D01*
X136Y-250D01*
X136Y-251D01*
X137Y-251D01*
X138Y-252D01*
X139Y-252D01*
X140Y-252D01*
X141Y-251D01*
X142Y-250D01*
G01D02*
X142Y-251D01*
X143Y-251D01*
X144Y-252D01*
X145Y-251D01*
X146Y-251D01*
X146Y-250D01*
X146Y-249D01*
G01X137Y-236D02*
Y-211D01*
X146D01*
Y-236D01*
X137D01*
G01X161Y-375D02*
X160Y-376D01*
X159Y-377D01*
X160Y-378D01*
X161Y-378D01*
X162Y-379D01*
X163Y-378D01*
X164Y-378D01*
X165Y-377D01*
X165Y-376D01*
X166Y-376D01*
X167Y-375D01*
X168Y-376D01*
X169Y-376D01*
X170Y-377D01*
X169Y-378D01*
X168Y-378D01*
G01X170Y-381D02*
X159Y-382D01*
X170Y-383D01*
X159Y-385D01*
X170Y-386D01*
G01Y-389D02*
Y-391D01*
G01Y-390D02*
X159D01*
G01Y-389D02*
Y-391D01*
G01Y-394D02*
X170D01*
X161Y-397D01*
X170Y-399D01*
X159D01*
G01X174Y-331D02*
Y-338D01*
X175Y-340D01*
X175Y-341D01*
X176Y-341D01*
X177Y-341D01*
X178Y-340D01*
X178Y-338D01*
Y-331D01*
G01X181Y-339D02*
X181Y-340D01*
X182Y-341D01*
X183Y-341D01*
X184Y-340D01*
X185Y-339D01*
X185Y-337D01*
X184Y-336D01*
X184Y-335D01*
X183Y-334D01*
X182D01*
X181Y-335D01*
X182Y-331D01*
X184D01*
G01X177Y-288D02*
X177Y-287D01*
X176Y-287D01*
X175D01*
X175Y-288D01*
X174Y-288D01*
X174Y-289D01*
X173Y-291D01*
X173Y-293D01*
X173Y-294D01*
X174Y-295D01*
X174Y-296D01*
X175Y-297D01*
X176Y-297D01*
X177Y-297D01*
X177Y-296D01*
G01X182Y-297D02*
Y-287D01*
X181Y-289D01*
G01Y-297D02*
X183D01*
G01X188D02*
X189Y-295D01*
X189Y-293D01*
X189Y-291D01*
X190Y-290D01*
X190Y-287D01*
X187D01*
G01X353Y-327D02*
X170D01*
Y-6D01*
X353D01*
Y-327D01*
G01X151Y-316D02*
Y-321D01*
X146D01*
G01X151Y-277D02*
Y-271D01*
X146D01*
G01X150Y-242D02*
X161D01*
Y-244D01*
X160Y-244D01*
X159Y-245D01*
X158Y-245D01*
X157Y-245D01*
X156Y-244D01*
X155Y-244D01*
Y-242D01*
G01Y-244D02*
X150Y-245D01*
G01Y-251D02*
X161D01*
X153Y-248D01*
Y-252D01*
G01X151Y-236D02*
Y-211D01*
X161D01*
Y-236D01*
X151D01*
G01X175Y-55D02*
X217D01*
X218Y-55D01*
Y-99D01*
X217Y-100D01*
X186D01*
X186Y-79D01*
X173D01*
X173Y-80D01*
Y-56D01*
X175Y-55D01*
G01X187Y-63D02*
X187Y-62D01*
X187Y-61D01*
X187Y-60D01*
X186Y-60D01*
X185Y-59D01*
X183Y-59D01*
X182Y-59D01*
X180Y-59D01*
X179Y-59D01*
X178Y-60D01*
X177Y-61D01*
Y-62D01*
X178Y-62D01*
X178Y-63D01*
X179Y-63D01*
G01X181Y-66D02*
X183Y-67D01*
X184Y-68D01*
X183Y-68D01*
X183Y-69D01*
X182Y-69D01*
X180Y-69D01*
X179Y-69D01*
X178Y-69D01*
X178Y-68D01*
X177Y-68D01*
X178Y-67D01*
X179Y-66D01*
X180Y-66D01*
X182Y-66D01*
X184Y-66D01*
X185Y-66D01*
X186Y-67D01*
X187Y-67D01*
X187Y-68D01*
X187Y-69D01*
X186Y-69D01*
G01X177Y-74D02*
X187D01*
X185Y-73D01*
G01X177D02*
Y-75D01*
G01X178Y-53D02*
X180Y-43D01*
X182Y-53D01*
G01X181Y-49D02*
X179D01*
G01X188Y-375D02*
X186Y-376D01*
X186Y-377D01*
X186Y-378D01*
X187Y-378D01*
X188Y-379D01*
X189Y-379D01*
X190Y-379D01*
X191Y-378D01*
X191Y-377D01*
G01D02*
X192Y-378D01*
X193Y-379D01*
X194Y-378D01*
X195Y-378D01*
X196Y-377D01*
X196Y-376D01*
X195Y-376D01*
G01X185Y-383D02*
X186Y-383D01*
Y-384D01*
X185D01*
X185Y-383D01*
G01X188Y-388D02*
X186Y-389D01*
X186Y-390D01*
X186Y-391D01*
X187Y-392D01*
X188Y-392D01*
X189Y-392D01*
X190Y-392D01*
X191Y-391D01*
X191Y-390D01*
G01Y-391D02*
X192Y-391D01*
X192Y-392D01*
X193Y-392D01*
X194Y-392D01*
X195Y-391D01*
X196Y-390D01*
X195Y-389D01*
G01X196Y-395D02*
X186Y-397D01*
X196Y-399D01*
G01X213Y-350D02*
Y-380D01*
X324D01*
Y-350D01*
X213D01*
G01X221Y-287D02*
X196Y-287D01*
G03Y-298I5J-6D01*
G01D02*
X221Y-298D01*
G01X207Y-249D02*
X207Y-248D01*
X206Y-248D01*
X205Y-249D01*
X204Y-249D01*
X204Y-250D01*
X204Y-252D01*
X203Y-254D01*
X204Y-255D01*
X204Y-256D01*
X204Y-257D01*
X205Y-258D01*
X206Y-258D01*
X207Y-258D01*
X207Y-257D01*
X208Y-257D01*
G01X213Y-258D02*
Y-248D01*
X210Y-255D01*
X214D01*
G01X219Y-258D02*
X220Y-258D01*
X220Y-257D01*
X221Y-256D01*
X220Y-254D01*
X220Y-253D01*
X219Y-253D01*
X218D01*
X217Y-252D01*
X217Y-250D01*
X217Y-249D01*
X218Y-248D01*
X219Y-248D01*
X220Y-249D01*
X220Y-250D01*
X220Y-252D01*
X220Y-253D01*
X219Y-253D01*
X218D01*
X217Y-254D01*
X217Y-256D01*
X217Y-257D01*
X217Y-258D01*
X218Y-258D01*
X219Y-258D01*
G01X205Y-264D02*
X219D01*
X220Y-264D01*
Y-271D01*
X219Y-272D01*
X204D01*
X204Y-271D01*
Y-264D01*
X205Y-264D01*
G01X189Y-282D02*
Y-272D01*
X191D01*
X192Y-272D01*
X192Y-273D01*
X193Y-274D01*
X192Y-276D01*
X192Y-277D01*
X191Y-277D01*
X189D01*
G01X191D02*
X193Y-282D01*
G01X196Y-281D02*
X197Y-282D01*
X198D01*
X199Y-281D01*
X199Y-279D01*
X199Y-278D01*
Y-276D01*
X199Y-274D01*
X199Y-273D01*
X198Y-272D01*
X197Y-272D01*
X196Y-273D01*
X196Y-274D01*
X196Y-275D01*
X196Y-276D01*
X196Y-278D01*
X197Y-278D01*
X198Y-278D01*
X199Y-277D01*
X199Y-276D01*
G01X202Y-197D02*
X203Y-196D01*
X203Y-195D01*
X203Y-194D01*
X202Y-194D01*
X201Y-193D01*
X199Y-193D01*
X197Y-193D01*
X196Y-193D01*
X195Y-193D01*
X194Y-194D01*
X193Y-194D01*
X193Y-195D01*
Y-196D01*
X194Y-197D01*
G01X197Y-200D02*
X198Y-201D01*
X199Y-201D01*
X199Y-202D01*
X198Y-203D01*
X197Y-203D01*
X196Y-203D01*
X195Y-203D01*
X194Y-203D01*
X193Y-202D01*
Y-201D01*
X194Y-200D01*
X196Y-200D01*
X197Y-200D01*
X200Y-200D01*
X201Y-200D01*
X202Y-201D01*
X203Y-201D01*
X203Y-202D01*
X203Y-203D01*
X202Y-203D01*
G01X193Y-209D02*
X203D01*
X196Y-206D01*
Y-210D01*
G01X194Y-188D02*
Y-173D01*
X195Y-173D01*
X202D01*
X202Y-188D01*
X195Y-188D01*
X194Y-188D01*
G01X214Y-204D02*
X217Y-194D01*
G01X214D02*
X217Y-204D01*
G01X220Y-195D02*
X221Y-194D01*
X222Y-194D01*
X223Y-194D01*
X224Y-195D01*
X224Y-196D01*
X224Y-197D01*
X223Y-198D01*
X222Y-199D01*
X221Y-200D01*
X220Y-202D01*
X220Y-204D01*
X224D01*
G01X217Y-171D02*
X217Y-179D01*
X207D01*
G01X207Y-171D02*
X229D01*
Y-189D01*
X207D01*
Y-171D01*
G01X215Y-129D02*
Y-143D01*
X214Y-144D01*
X207D01*
X207Y-143D01*
Y-129D01*
X207Y-128D01*
X214D01*
X215Y-129D01*
G01X193Y-158D02*
X193Y-157D01*
X192Y-157D01*
X191Y-158D01*
X190Y-158D01*
X190Y-159D01*
X189Y-161D01*
X189Y-163D01*
X190Y-164D01*
X190Y-165D01*
X190Y-166D01*
X191Y-167D01*
X192Y-167D01*
X193Y-167D01*
X193Y-166D01*
X194Y-166D01*
G01X196Y-163D02*
X197Y-162D01*
X198Y-161D01*
X199D01*
X199Y-162D01*
X200Y-163D01*
X200Y-164D01*
X200Y-165D01*
X199Y-166D01*
X199Y-167D01*
X198Y-167D01*
X197Y-167D01*
X197Y-166D01*
X197Y-164D01*
X196Y-163D01*
X197Y-160D01*
X197Y-159D01*
X197Y-158D01*
X198Y-157D01*
X199Y-157D01*
X200Y-158D01*
G01X203Y-166D02*
X203Y-167D01*
X204Y-167D01*
X205Y-167D01*
X206Y-166D01*
X206Y-165D01*
X207Y-164D01*
X206Y-162D01*
X206Y-161D01*
X205Y-161D01*
X204D01*
X203Y-161D01*
X204Y-157D01*
X206D01*
G01X227Y-168D02*
X213D01*
X212Y-167D01*
Y-160D01*
X227Y-160D01*
X228Y-160D01*
Y-167D01*
X227Y-168D01*
G01X227Y-109D02*
X227Y-108D01*
Y-107D01*
X226Y-106D01*
X225Y-106D01*
X223Y-105D01*
X222Y-105D01*
X220Y-105D01*
X219Y-106D01*
X218Y-106D01*
X218Y-107D01*
X217Y-107D01*
Y-108D01*
X218Y-108D01*
X218Y-109D01*
X219Y-109D01*
G01Y-112D02*
X218Y-112D01*
X217Y-113D01*
X217Y-114D01*
X218Y-115D01*
X220Y-116D01*
X221Y-116D01*
X222Y-116D01*
X223Y-115D01*
X224Y-115D01*
X224Y-114D01*
X224Y-113D01*
X223Y-113D01*
X227Y-113D01*
Y-115D01*
G01X218Y-119D02*
X218Y-120D01*
X217Y-120D01*
X218Y-121D01*
X219Y-122D01*
X220Y-122D01*
X222Y-122D01*
X224D01*
X225Y-122D01*
X226Y-122D01*
X227Y-121D01*
X227Y-120D01*
X226Y-119D01*
X225Y-119D01*
X224Y-119D01*
X223Y-119D01*
X222Y-119D01*
X221Y-120D01*
X221Y-121D01*
X222Y-122D01*
X224Y-122D01*
G01X213Y-109D02*
X214Y-108D01*
X214Y-107D01*
X214Y-106D01*
X213Y-105D01*
X212Y-105D01*
X210Y-105D01*
X208Y-105D01*
X207Y-105D01*
X206Y-105D01*
X205Y-105D01*
X204Y-106D01*
X204Y-107D01*
X204Y-108D01*
X205Y-108D01*
X205Y-109D01*
G01X208Y-112D02*
X209Y-112D01*
X210Y-113D01*
Y-114D01*
X209Y-114D01*
X208Y-115D01*
X207Y-115D01*
X206Y-115D01*
X205Y-114D01*
X204Y-114D01*
X204Y-113D01*
X205Y-112D01*
X207Y-112D01*
X208Y-112D01*
X211Y-112D01*
X212Y-112D01*
X213Y-112D01*
X214Y-113D01*
X214Y-114D01*
X213Y-115D01*
G01X208Y-118D02*
X209Y-119D01*
X210Y-119D01*
X210Y-120D01*
X210Y-121D01*
X209Y-121D01*
X208Y-121D01*
X207Y-121D01*
X206Y-121D01*
X205Y-121D01*
X204Y-121D01*
X204Y-120D01*
X204Y-119D01*
X205Y-119D01*
X207Y-118D01*
X208Y-118D01*
X211Y-118D01*
X212Y-119D01*
X213Y-119D01*
X214Y-120D01*
X214Y-121D01*
X213Y-121D01*
G01X227Y-82D02*
X228Y-81D01*
X228Y-80D01*
X227Y-79D01*
X226Y-78D01*
X224Y-78D01*
X222Y-78D01*
X221Y-78D01*
X220Y-78D01*
X219Y-79D01*
X218Y-79D01*
X218Y-80D01*
X218Y-81D01*
X219Y-82D01*
G01X220Y-85D02*
X219Y-85D01*
X218Y-86D01*
Y-87D01*
X219Y-88D01*
X220Y-88D01*
X221Y-88D01*
X222Y-88D01*
X223Y-88D01*
X223Y-87D01*
Y-86D01*
G01Y-87D02*
X224Y-88D01*
X225Y-88D01*
X226Y-88D01*
X227Y-88D01*
X228Y-87D01*
X228Y-86D01*
X227Y-85D01*
G01X222Y-91D02*
X223Y-92D01*
X224Y-93D01*
Y-94D01*
X223Y-94D01*
X222Y-95D01*
X221Y-95D01*
X220Y-95D01*
X219Y-94D01*
X218Y-94D01*
X218Y-93D01*
X218Y-92D01*
X219Y-92D01*
X221Y-91D01*
X222Y-91D01*
X225Y-92D01*
X226Y-92D01*
X227Y-92D01*
X228Y-93D01*
X228Y-94D01*
X227Y-94D01*
G01X199Y-63D02*
X200Y-62D01*
X200Y-61D01*
X200Y-60D01*
X199Y-60D01*
X198Y-59D01*
X196Y-59D01*
X195Y-59D01*
X193Y-59D01*
X192Y-59D01*
X191Y-60D01*
X190Y-61D01*
Y-62D01*
X191Y-62D01*
X191Y-63D01*
X192Y-63D01*
G01X194Y-66D02*
X196Y-67D01*
X197Y-68D01*
X196Y-68D01*
X196Y-69D01*
X195Y-69D01*
X193Y-69D01*
X192Y-69D01*
X191Y-69D01*
X191Y-68D01*
X190Y-68D01*
X191Y-67D01*
X192Y-66D01*
X193Y-66D01*
X195Y-66D01*
X197Y-66D01*
X198Y-66D01*
X199Y-67D01*
X200Y-68D01*
X200Y-69D01*
X199Y-69D01*
G01X200Y-74D02*
X199Y-73D01*
X198Y-73D01*
X197Y-73D01*
X195Y-72D01*
X194Y-73D01*
X192Y-73D01*
X191Y-73D01*
X191Y-74D01*
X190Y-74D01*
X191Y-75D01*
X192Y-76D01*
X194Y-76D01*
X195Y-76D01*
X197Y-76D01*
X198Y-76D01*
X199Y-75D01*
X200Y-75D01*
X200Y-74D01*
G01X214Y-59D02*
X204D01*
Y-63D01*
G01Y-68D02*
X214D01*
X212Y-67D01*
G01X204D02*
Y-69D01*
G01Y-75D02*
X214D01*
X207Y-72D01*
Y-76D01*
G01X214Y-80D02*
X204D01*
Y-83D01*
G01Y-88D02*
X214D01*
X212Y-87D01*
G01X204D02*
Y-89D01*
G01X206Y-93D02*
X204Y-93D01*
X204Y-94D01*
X204Y-95D01*
X205Y-96D01*
X206Y-96D01*
X207Y-96D01*
X208Y-96D01*
X209Y-96D01*
X209Y-95D01*
Y-94D01*
G01Y-95D02*
X210Y-96D01*
X211Y-96D01*
X212Y-96D01*
X213Y-96D01*
X214Y-95D01*
X214Y-94D01*
X213Y-93D01*
G01X199Y-80D02*
X189D01*
Y-84D01*
G01Y-89D02*
X199D01*
X197Y-88D01*
G01X189D02*
Y-90D01*
G01X197Y-94D02*
X198Y-94D01*
X199Y-95D01*
X199Y-96D01*
X198Y-97D01*
X197Y-97D01*
X196Y-97D01*
X195Y-97D01*
X193Y-95D01*
X192Y-94D01*
X190Y-94D01*
X189Y-94D01*
Y-97D01*
G01X226Y-375D02*
X225Y-376D01*
X224Y-376D01*
X224Y-377D01*
X224Y-378D01*
X225Y-378D01*
X226Y-379D01*
X227Y-379D01*
X228Y-379D01*
X229Y-378D01*
X229Y-377D01*
G01Y-378D02*
X230Y-378D01*
X231Y-379D01*
X232Y-379D01*
X233Y-379D01*
X233Y-378D01*
X234Y-377D01*
X233Y-376D01*
G01X223Y-384D02*
X224Y-383D01*
X224Y-384D01*
X223D01*
G01X226Y-388D02*
X225Y-389D01*
X224Y-390D01*
Y-391D01*
X225Y-392D01*
X226Y-392D01*
X227Y-392D01*
X228Y-392D01*
X229Y-391D01*
X229Y-390D01*
G01Y-391D02*
X230Y-391D01*
X231Y-392D01*
X232Y-392D01*
X233Y-392D01*
X233Y-391D01*
X234Y-391D01*
X234Y-390D01*
X233Y-389D01*
G01X234Y-395D02*
X224Y-397D01*
X234Y-399D01*
G01X221Y-298D02*
G03Y-287I-5J5D01*
G01X256Y-240D02*
X304D01*
Y-288D01*
X254D01*
Y-240D01*
X256D01*
G01X233Y-209D02*
X234Y-208D01*
X234Y-207D01*
X234Y-206D01*
X233Y-205D01*
X232Y-205D01*
X230Y-205D01*
X229Y-205D01*
X227Y-205D01*
X226Y-205D01*
X225Y-206D01*
X224Y-206D01*
X224Y-207D01*
X224Y-208D01*
X225Y-208D01*
X226Y-209D01*
G01X224Y-214D02*
X234D01*
X227Y-211D01*
Y-215D01*
G01X234Y-220D02*
X234Y-219D01*
X233Y-219D01*
X232Y-218D01*
X231Y-218D01*
X229Y-218D01*
X228Y-218D01*
X226Y-218D01*
X225Y-219D01*
X224Y-219D01*
X224Y-220D01*
X224Y-221D01*
X225Y-221D01*
X226Y-221D01*
X228Y-222D01*
X229Y-222D01*
X231Y-222D01*
X232Y-221D01*
X233Y-221D01*
X234Y-221D01*
X234Y-220D01*
G01X246Y-206D02*
Y-220D01*
X246Y-221D01*
X239D01*
X238Y-220D01*
Y-205D01*
X239Y-205D01*
X245D01*
X246Y-206D01*
G01X250Y-248D02*
G03I-2J0D01*
G01X253Y-226D02*
Y-236D01*
X257D01*
G01X261D02*
X261Y-234D01*
X262Y-232D01*
X262Y-230D01*
X262Y-229D01*
X263Y-226D01*
X260D01*
G01X251Y-210D02*
X284D01*
Y-224D01*
X251D01*
Y-210D01*
G01X253Y-190D02*
Y-195D01*
X258D01*
G01X243Y-146D02*
X262D01*
X262Y-108D01*
X262Y-107D01*
X229D01*
Y-125D01*
X230Y-126D01*
X240D01*
X240Y-127D01*
Y-144D01*
X243Y-146D01*
X242Y-146D01*
G01X238Y-150D02*
X239Y-149D01*
X239Y-148D01*
X238Y-147D01*
X236Y-146D01*
X235Y-146D01*
X233Y-146D01*
X232Y-146D01*
X231Y-146D01*
X230Y-147D01*
X229Y-147D01*
X229Y-148D01*
Y-149D01*
X230Y-150D01*
G01X231Y-153D02*
X230Y-153D01*
X229Y-154D01*
X229Y-155D01*
X230Y-156D01*
X231Y-156D01*
X232Y-157D01*
X233Y-156D01*
X234Y-156D01*
X234Y-155D01*
Y-154D01*
G01Y-155D02*
X235Y-156D01*
X236Y-156D01*
X238Y-156D01*
X239Y-155D01*
X239Y-154D01*
X238Y-153D01*
G01X229Y-162D02*
X239D01*
X232Y-159D01*
Y-163D01*
G01X239Y-129D02*
Y-143D01*
X238Y-144D01*
X231D01*
X231Y-143D01*
Y-129D01*
X231Y-128D01*
X238D01*
X239Y-129D01*
G01X227Y-129D02*
Y-143D01*
X226Y-144D01*
X220D01*
X219Y-143D01*
Y-129D01*
X220Y-128D01*
X226D01*
X227Y-129D01*
G01X250Y-162D02*
G03I-2J0D01*
G01X258Y-155D02*
X253D01*
Y-160D01*
G01X233Y-105D02*
X235Y-95D01*
X237Y-105D01*
G01X236Y-102D02*
X233D01*
G01X251Y-109D02*
Y-124D01*
X250Y-124D01*
X244D01*
X243Y-124D01*
Y-109D01*
X244Y-109D01*
X250D01*
X251Y-109D01*
G01X245Y-98D02*
X260D01*
X260Y-99D01*
Y-105D01*
X260Y-106D01*
X245D01*
X245Y-105D01*
Y-99D01*
X245Y-98D01*
G01X238Y-109D02*
Y-124D01*
X231Y-124D01*
X230Y-124D01*
Y-109D01*
X231Y-109D01*
X237D01*
X238Y-109D01*
G01X219Y-72D02*
Y-58D01*
X220Y-57D01*
X226D01*
X227Y-58D01*
Y-72D01*
X226Y-73D01*
X220D01*
X219Y-72D01*
G01X261Y-81D02*
X261Y-80D01*
X261Y-79D01*
X260Y-78D01*
X259Y-78D01*
X257Y-78D01*
X256Y-77D01*
X254Y-78D01*
X253Y-78D01*
X252Y-78D01*
X252Y-79D01*
X251Y-80D01*
X252Y-81D01*
X253Y-82D01*
G01X253Y-84D02*
X252Y-85D01*
X251Y-86D01*
Y-87D01*
X252Y-88D01*
X253Y-88D01*
X254Y-88D01*
X256Y-88D01*
X256Y-87D01*
X257Y-87D01*
Y-86D01*
G01Y-87D02*
X258Y-88D01*
X259Y-88D01*
X260Y-88D01*
X261Y-87D01*
X261Y-86D01*
X261Y-85D01*
G01X251Y-93D02*
X254Y-93D01*
X255Y-93D01*
X257Y-93D01*
X259Y-94D01*
X261Y-94D01*
Y-91D01*
G01X252Y-72D02*
Y-58D01*
X253Y-57D01*
X260D01*
X260Y-58D01*
Y-73D01*
X253Y-73D01*
X252Y-72D01*
G01X234Y-84D02*
X234Y-83D01*
X233Y-83D01*
X232D01*
X231Y-84D01*
X231Y-85D01*
X230Y-87D01*
X230Y-88D01*
X230Y-90D01*
X231Y-91D01*
X231Y-92D01*
X232Y-93D01*
X233Y-93D01*
X234Y-93D01*
X234Y-92D01*
X234Y-91D01*
G01X237Y-89D02*
X238Y-88D01*
X238Y-87D01*
X239Y-87D01*
X240Y-87D01*
X240Y-88D01*
X240Y-89D01*
X241Y-90D01*
X240Y-91D01*
X240Y-92D01*
X240Y-93D01*
X239Y-93D01*
X238Y-93D01*
X238Y-92D01*
X237Y-90D01*
X237Y-88D01*
X238Y-86D01*
X238Y-85D01*
X238Y-84D01*
X239Y-83D01*
X240Y-83D01*
X240Y-84D01*
G01X244Y-84D02*
X244Y-83D01*
X245Y-83D01*
X246Y-83D01*
X247Y-83D01*
X247Y-84D01*
X247Y-85D01*
X247Y-86D01*
X247Y-87D01*
X245Y-89D01*
X244Y-90D01*
X244Y-91D01*
X244Y-93D01*
X247D01*
G01X237Y-68D02*
Y-78D01*
X241D01*
G01X244Y-69D02*
X244Y-68D01*
X245Y-68D01*
X246Y-68D01*
X247Y-68D01*
X247Y-69D01*
X247Y-70D01*
X247Y-71D01*
X247Y-72D01*
X245Y-73D01*
X244Y-75D01*
X244Y-76D01*
X244Y-78D01*
X247D01*
G01X257Y-33D02*
X258Y-34D01*
X258Y-35D01*
X259Y-35D01*
X260Y-34D01*
X260Y-33D01*
X261Y-32D01*
Y-25D01*
G01X265Y-35D02*
X266Y-35D01*
X267Y-35D01*
X267Y-34D01*
X267Y-33D01*
X267Y-31D01*
X267Y-30D01*
X266Y-30D01*
X265D01*
X264Y-30D01*
X264Y-29D01*
X264Y-28D01*
X264Y-26D01*
X265Y-25D01*
X266D01*
X267Y-26D01*
X267Y-28D01*
X267Y-29D01*
X266Y-30D01*
X265Y-30D01*
X264Y-30D01*
X264Y-31D01*
X264Y-33D01*
X264Y-34D01*
X264Y-35D01*
X265Y-35D01*
G01X282Y-383D02*
Y-385D01*
X279D01*
X278Y-385D01*
X277Y-384D01*
X277Y-383D01*
X277Y-382D01*
X278Y-382D01*
X279Y-381D01*
X280Y-381D01*
X282Y-381D01*
X283D01*
X284Y-381D01*
X285Y-381D01*
X286Y-382D01*
X287Y-382D01*
X287Y-383D01*
Y-384D01*
X286Y-385D01*
G01X277Y-388D02*
X287D01*
X277Y-392D01*
X287D01*
G01X277Y-394D02*
X287D01*
Y-396D01*
X287Y-397D01*
X286Y-397D01*
X285Y-398D01*
X284Y-398D01*
X282Y-398D01*
X280Y-398D01*
X279Y-398D01*
X278Y-397D01*
X277Y-396D01*
Y-394D01*
G01X270Y-292D02*
Y-299D01*
X270Y-301D01*
X271Y-302D01*
X272D01*
X273Y-301D01*
X273Y-299D01*
Y-292D01*
G01X278Y-302D02*
Y-292D01*
X277Y-294D01*
G01Y-302D02*
X279D01*
G01X283Y-300D02*
X283Y-301D01*
X284Y-302D01*
X285Y-302D01*
X286Y-301D01*
X287Y-300D01*
X287Y-299D01*
X286Y-298D01*
X286Y-297D01*
X285Y-297D01*
X284D01*
G01X285D02*
X286Y-296D01*
X286Y-295D01*
X286Y-294D01*
X286Y-293D01*
X285Y-292D01*
X284Y-292D01*
X283Y-293D01*
G01X288Y-195D02*
X293D01*
Y-190D01*
G01X290Y-140D02*
Y-147D01*
X290Y-149D01*
X291Y-150D01*
X292Y-150D01*
X293Y-150D01*
X293Y-149D01*
X294Y-147D01*
Y-140D01*
G01X298Y-150D02*
Y-140D01*
X297Y-142D01*
G01Y-150D02*
X299D01*
G01X303Y-149D02*
X304Y-149D01*
X304Y-150D01*
X305Y-150D01*
X306Y-150D01*
X306Y-149D01*
X307Y-148D01*
X307Y-147D01*
X307Y-145D01*
X306Y-144D01*
X305Y-144D01*
X304Y-144D01*
X304Y-140D01*
X306D01*
G01X293Y-160D02*
Y-155D01*
X288D01*
G01X287Y-111D02*
X286Y-111D01*
X285Y-111D01*
X285Y-112D01*
X285Y-113D01*
X285Y-114D01*
X285Y-115D01*
X286Y-116D01*
X287Y-117D01*
X288Y-118D01*
X289Y-119D01*
X290Y-119D01*
X291Y-119D01*
X292Y-119D01*
X293Y-118D01*
X293Y-117D01*
X292Y-117D01*
G01X297Y-115D02*
X289Y-107D01*
X290Y-110D01*
G01X296Y-115D02*
X297Y-114D01*
G01X301Y-110D02*
X302Y-109D01*
X302Y-108D01*
X301Y-108D01*
X301Y-107D01*
X300Y-106D01*
X299Y-106D01*
X298Y-106D01*
X297Y-106D01*
X296Y-106D01*
X295Y-105D01*
X294Y-104D01*
X294Y-103D01*
X295Y-102D01*
X296Y-103D01*
X297Y-103D01*
X298Y-104D01*
X298Y-105D01*
X298Y-106D01*
X297Y-106D01*
X297Y-107D01*
X297Y-108D01*
X298Y-109D01*
X299Y-110D01*
X300Y-110D01*
X301Y-110D01*
G01X290Y-103D02*
X280Y-113D01*
X279D01*
X274Y-109D01*
Y-108D01*
X285Y-98D01*
X286D01*
X290Y-102D01*
Y-103D01*
G01X264Y-132D02*
Y-117D01*
X265Y-117D01*
X271D01*
X272Y-117D01*
Y-132D01*
X271Y-132D01*
X265D01*
X264Y-132D01*
G01X267Y-98D02*
X277Y-88D01*
X278D01*
X283Y-93D01*
X283Y-94D01*
X273Y-104D01*
X272D01*
X267Y-99D01*
Y-98D01*
G01X289Y-133D02*
X274D01*
X274Y-132D01*
Y-125D01*
X289Y-125D01*
X289Y-132D01*
X289Y-133D01*
G01X287Y-92D02*
X294Y-99D01*
X297Y-96D01*
G01X300Y-93D02*
X293Y-86D01*
X294Y-88D01*
G01X300Y-94D02*
X301Y-92D01*
G01X305Y-88D02*
X298Y-81D01*
X298Y-83D01*
G01X304Y-89D02*
X306Y-87D01*
G01X273Y-49D02*
Y-64D01*
X272Y-64D01*
X266D01*
X265Y-64D01*
Y-49D01*
X266Y-48D01*
X272D01*
X273Y-49D01*
G01X266Y-82D02*
X265Y-82D01*
X264Y-83D01*
Y-84D01*
X265Y-85D01*
X265Y-87D01*
X267Y-88D01*
X268Y-89D01*
X269Y-90D01*
X270Y-90D01*
X271Y-90D01*
X272Y-89D01*
X272Y-88D01*
X272Y-87D01*
G01X274Y-85D02*
X274Y-86D01*
X275Y-86D01*
X276Y-85D01*
X276Y-84D01*
X276Y-83D01*
X276Y-82D01*
X275Y-81D01*
X274Y-80D01*
X273Y-80D01*
X272Y-80D01*
X271Y-80D01*
X271Y-81D01*
X271Y-82D01*
X268Y-79D01*
X270Y-77D01*
G01X281Y-80D02*
X281Y-79D01*
X281Y-78D01*
X280Y-77D01*
X279Y-77D01*
X278Y-76D01*
X277Y-76D01*
X276Y-77D01*
X275Y-77D01*
X274Y-76D01*
X273Y-75D01*
X273Y-74D01*
X273Y-73D01*
X274Y-73D01*
X275Y-73D01*
X276Y-74D01*
X277Y-75D01*
X277Y-76D01*
X276Y-77D01*
X276Y-78D01*
X277Y-79D01*
X277Y-80D01*
X278Y-81D01*
X279Y-81D01*
X280Y-81D01*
X281Y-80D01*
G01X300Y-67D02*
X310Y-77D01*
X310Y-78D01*
X305Y-83D01*
X304Y-83D01*
X294Y-73D01*
Y-72D01*
X299Y-67D01*
X300D01*
G01X285Y-26D02*
Y-33D01*
X286Y-35D01*
X286Y-36D01*
X287Y-36D01*
X288Y-36D01*
X289Y-35D01*
X289Y-33D01*
Y-26D01*
G01X294Y-36D02*
Y-26D01*
X293Y-28D01*
G01Y-36D02*
X295D01*
G01X301D02*
Y-26D01*
X298Y-33D01*
X302D01*
G01X331Y-369D02*
X331Y-370D01*
X332Y-371D01*
X333D01*
X333Y-370D01*
X334Y-369D01*
X334Y-368D01*
Y-361D01*
G01X337Y-369D02*
X338Y-370D01*
X338Y-371D01*
X339Y-371D01*
X340Y-371D01*
X340Y-370D01*
X341Y-369D01*
X341Y-368D01*
X341Y-367D01*
X340Y-366D01*
X339Y-366D01*
G01D02*
X340Y-365D01*
X340Y-364D01*
X341Y-363D01*
X340Y-362D01*
X339Y-361D01*
X338Y-361D01*
X338Y-362D01*
G01X329Y-261D02*
X343D01*
X344Y-262D01*
Y-269D01*
X343Y-269D01*
X329D01*
X328Y-269D01*
Y-262D01*
X329Y-261D01*
G01X320Y-218D02*
G03Y-229I5J-5D01*
G01D02*
X345Y-229D01*
G03Y-218I-5J6D01*
G01D02*
X320Y-218D01*
G01X309Y-207D02*
Y-221D01*
X308Y-222D01*
X301D01*
X301Y-221D01*
Y-207D01*
X301Y-206D01*
X308D01*
X309Y-207D01*
G01X336Y-241D02*
X322D01*
X321Y-240D01*
Y-233D01*
X322Y-233D01*
X336D01*
X337Y-233D01*
Y-240D01*
X336Y-241D01*
G01X345Y-256D02*
X320D01*
Y-246D01*
X345D01*
Y-256D01*
G01X321Y-202D02*
X321Y-201D01*
X322Y-201D01*
Y-200D01*
X321Y-199D01*
X320Y-199D01*
X319Y-198D01*
X318Y-198D01*
X316Y-198D01*
X315Y-198D01*
X314Y-198D01*
X313Y-199D01*
X312Y-200D01*
X312Y-201D01*
X312Y-202D01*
X313Y-202D01*
G01X312Y-208D02*
X322D01*
X314Y-205D01*
Y-209D01*
G01X312Y-213D02*
X322D01*
X320Y-212D01*
G01X312D02*
Y-214D01*
G01X326Y-109D02*
X326Y-108D01*
X327Y-108D01*
Y-107D01*
X326Y-106D01*
X325Y-106D01*
X324Y-105D01*
X323Y-105D01*
X321Y-105D01*
X320Y-105D01*
X319Y-105D01*
X318Y-106D01*
X317Y-106D01*
X317Y-107D01*
X317Y-108D01*
X318Y-109D01*
G01X325Y-112D02*
X326Y-112D01*
X327Y-113D01*
X327Y-114D01*
X326Y-114D01*
X326Y-115D01*
X325Y-115D01*
X324Y-115D01*
X323Y-115D01*
X321Y-113D01*
X320Y-112D01*
X318Y-112D01*
X317Y-112D01*
Y-115D01*
G01X318Y-119D02*
X317Y-119D01*
X317Y-120D01*
X317Y-121D01*
X318Y-121D01*
X320Y-122D01*
X321Y-122D01*
X323D01*
X324Y-122D01*
X326Y-121D01*
X327Y-120D01*
X326Y-119D01*
X325Y-119D01*
X323Y-118D01*
X322Y-119D01*
X321Y-119D01*
X320Y-119D01*
X320Y-120D01*
X321Y-121D01*
X323Y-122D01*
G01X334Y-114D02*
X334Y-113D01*
X333Y-113D01*
X332Y-113D01*
X331Y-114D01*
X331Y-115D01*
X331Y-117D01*
X331Y-118D01*
X331Y-120D01*
X331Y-121D01*
X331Y-122D01*
X332Y-123D01*
X333Y-123D01*
X334Y-123D01*
X334Y-122D01*
X335Y-121D01*
G01X338Y-119D02*
X338Y-118D01*
X339Y-117D01*
X340D01*
X340Y-118D01*
X341Y-119D01*
X341Y-120D01*
X341Y-121D01*
X340Y-122D01*
X340Y-123D01*
X339Y-123D01*
X338Y-122D01*
X338Y-120D01*
X338Y-118D01*
X338Y-116D01*
X338Y-115D01*
X338Y-114D01*
X339Y-113D01*
X340Y-113D01*
X341Y-114D01*
G01X344Y-121D02*
X344Y-122D01*
X345Y-123D01*
X346Y-123D01*
X347Y-123D01*
X347Y-122D01*
X348Y-121D01*
X348Y-120D01*
X348Y-119D01*
X347Y-118D01*
X346Y-118D01*
G01D02*
X347Y-117D01*
X347Y-116D01*
X348Y-115D01*
X347Y-114D01*
X347Y-113D01*
X346Y-113D01*
X345Y-113D01*
X345Y-114D01*
G01X317Y-124D02*
Y-134D01*
X321D01*
G01X325D02*
X326Y-134D01*
X327Y-134D01*
X327Y-133D01*
X327Y-132D01*
X327Y-130D01*
X327Y-129D01*
X326Y-129D01*
X325D01*
X324Y-128D01*
X324Y-127D01*
X324Y-125D01*
X325Y-125D01*
X325Y-124D01*
X326Y-125D01*
X327Y-125D01*
X327Y-127D01*
X327Y-128D01*
X326Y-129D01*
X325Y-129D01*
X324Y-129D01*
X324Y-130D01*
X324Y-132D01*
X324Y-133D01*
X324Y-134D01*
X325Y-134D01*
G01X321Y-74D02*
X321Y-73D01*
X321Y-72D01*
X320Y-72D01*
X319Y-72D01*
X318Y-73D01*
X316Y-74D01*
X315Y-75D01*
X314Y-76D01*
X314Y-77D01*
X313Y-78D01*
X313Y-79D01*
X314Y-79D01*
X314Y-80D01*
X315Y-80D01*
X316Y-80D01*
G01X318Y-82D02*
X318Y-83D01*
X318Y-84D01*
X319Y-84D01*
X320Y-84D01*
X321Y-84D01*
X322Y-83D01*
X323Y-82D01*
X323Y-81D01*
X323Y-80D01*
X323Y-79D01*
X322Y-79D01*
X321Y-79D01*
X325Y-76D01*
X326Y-78D01*
G01X323Y-89D02*
X324Y-87D01*
X326Y-86D01*
X327Y-85D01*
X329Y-84D01*
X331Y-83D01*
X329Y-80D01*
G01X301Y-65D02*
G03I-1J0D01*
G01X352Y-260D02*
X351Y-259D01*
X350Y-259D01*
X349Y-260D01*
X348Y-261D01*
X348Y-263D01*
X348Y-265D01*
X348Y-266D01*
X348Y-267D01*
X349Y-268D01*
X350Y-269D01*
X351Y-269D01*
X352Y-268D01*
G01X355Y-268D02*
X356Y-269D01*
X357Y-269D01*
X358Y-269D01*
X358Y-268D01*
X359Y-267D01*
X359Y-266D01*
X358Y-264D01*
X358Y-263D01*
X357Y-263D01*
X356D01*
X355Y-263D01*
X356Y-259D01*
X358D01*
G01X363D02*
X362Y-260D01*
X362Y-261D01*
X362Y-263D01*
X361Y-264D01*
X362Y-266D01*
X362Y-267D01*
X362Y-268D01*
X363Y-269D01*
X364D01*
X365Y-268D01*
X365Y-267D01*
X365Y-266D01*
X365Y-264D01*
X365Y-263D01*
X365Y-261D01*
X365Y-260D01*
X364Y-259D01*
X363Y-259D01*
G01X358Y-245D02*
Y-255D01*
X361D01*
G01X365Y-254D02*
X365Y-255D01*
X366Y-255D01*
X367Y-255D01*
X367Y-254D01*
X368Y-252D01*
X368Y-251D01*
Y-249D01*
X368Y-247D01*
X367Y-246D01*
X367Y-245D01*
X366Y-245D01*
X365Y-246D01*
X365Y-247D01*
X365Y-248D01*
X365Y-250D01*
X365Y-251D01*
X366Y-252D01*
X367Y-251D01*
X368Y-250D01*
X368Y-249D01*
G01X355Y-219D02*
X354Y-218D01*
X353Y-218D01*
X352Y-218D01*
X351Y-219D01*
X351Y-220D01*
X351Y-222D01*
X351Y-223D01*
X351Y-225D01*
X351Y-226D01*
X352Y-227D01*
X352Y-228D01*
X353Y-228D01*
X354Y-228D01*
X354Y-227D01*
X355Y-227D01*
G01X360Y-228D02*
Y-218D01*
X357Y-225D01*
X361D01*
G01X364Y-224D02*
X365Y-223D01*
X365Y-222D01*
X366Y-222D01*
X367Y-222D01*
X367Y-223D01*
X367Y-224D01*
X368Y-225D01*
X367Y-226D01*
X367Y-227D01*
X367Y-228D01*
X366Y-228D01*
X365Y-228D01*
X365Y-227D01*
X364Y-225D01*
X364Y-223D01*
X365Y-221D01*
X365Y-220D01*
X365Y-219D01*
X366Y-218D01*
X367Y-218D01*
X367Y-219D01*
G01X347Y-233D02*
X347Y-232D01*
X346Y-232D01*
X345D01*
X345Y-233D01*
X344Y-233D01*
X344Y-234D01*
X343Y-236D01*
X343Y-238D01*
X343Y-239D01*
X344Y-240D01*
X344Y-241D01*
X345Y-242D01*
X346Y-242D01*
X347Y-241D01*
G01X353Y-242D02*
Y-232D01*
X350Y-239D01*
X354D01*
G01X358Y-242D02*
X358Y-240D01*
X359Y-238D01*
X359Y-236D01*
X359Y-235D01*
X360Y-232D01*
X357D01*
G01X408Y-376D02*
X408Y-375D01*
X408Y-374D01*
X408Y-373D01*
X407Y-373D01*
X406Y-372D01*
X404Y-372D01*
X403Y-372D01*
X401Y-372D01*
X400Y-372D01*
X399Y-373D01*
X398Y-374D01*
Y-375D01*
X399Y-375D01*
X399Y-376D01*
X400Y-376D01*
G01X398Y-381D02*
X408D01*
X406Y-380D01*
G01X398D02*
Y-382D01*
G01Y-387D02*
X408D01*
X406Y-386D01*
G01X398D02*
Y-388D01*
G01X390Y-376D02*
X391Y-376D01*
X391Y-375D01*
Y-374D01*
X390Y-374D01*
X390Y-373D01*
X389Y-373D01*
X387Y-372D01*
X385Y-372D01*
X384Y-372D01*
X383Y-373D01*
X382Y-373D01*
X381Y-374D01*
X381Y-375D01*
X382Y-376D01*
G01X381Y-381D02*
X391D01*
X389Y-380D01*
G01X381D02*
Y-382D01*
G01X389Y-386D02*
X390Y-386D01*
X391Y-387D01*
X391Y-388D01*
X391Y-389D01*
X390Y-389D01*
X389Y-389D01*
X388Y-389D01*
X387Y-389D01*
X385Y-387D01*
X384Y-386D01*
X382Y-386D01*
X381Y-386D01*
Y-389D01*
G01X410Y-340D02*
G03X399I-5J-5D01*
G01D02*
X399Y-365D01*
G03X410I6J5D01*
G01D02*
X410Y-340D01*
G01X383Y-365D02*
G03X394I5J5D01*
G01D02*
X394Y-340D01*
G03X383I-6J-5D01*
G01D02*
X383Y-365D01*
G01X381Y-131D02*
Y-138D01*
X382Y-140D01*
X382Y-141D01*
X383Y-141D01*
X384Y-141D01*
X385Y-140D01*
X385Y-138D01*
Y-131D01*
G01X390Y-141D02*
Y-131D01*
X389Y-133D01*
G01Y-141D02*
X391D01*
G01X396Y-131D02*
X395Y-132D01*
X395Y-133D01*
X395Y-134D01*
X394Y-136D01*
X395Y-137D01*
X395Y-139D01*
X395Y-140D01*
X396Y-141D01*
X397D01*
X397Y-140D01*
X398Y-139D01*
X398Y-137D01*
X398Y-136D01*
X398Y-134D01*
X398Y-133D01*
X397Y-132D01*
X397Y-131D01*
X396Y-131D01*
G01X426Y-114D02*
X427Y-113D01*
X427Y-112D01*
X427Y-111D01*
X426Y-111D01*
X425Y-110D01*
X423Y-110D01*
X422Y-110D01*
X420Y-110D01*
X419Y-110D01*
X418Y-111D01*
X417Y-111D01*
X417Y-112D01*
Y-113D01*
X418Y-114D01*
X419Y-114D01*
G01X425Y-117D02*
X426Y-117D01*
X427Y-118D01*
X427Y-119D01*
X427Y-120D01*
X426Y-120D01*
X425Y-120D01*
X424Y-120D01*
X423Y-120D01*
X421Y-118D01*
X420Y-117D01*
X419Y-117D01*
X417Y-117D01*
Y-120D01*
G01Y-126D02*
X427D01*
X420Y-123D01*
Y-127D01*
G01X403Y-34D02*
Y-64D01*
X513D01*
Y-34D01*
X403D01*
G01X416Y-7D02*
X415Y-7D01*
X414Y-8D01*
Y-9D01*
X415Y-10D01*
X416Y-10D01*
X417Y-10D01*
X418Y-10D01*
X419Y-10D01*
X419Y-9D01*
Y-8D01*
G01Y-9D02*
X420Y-9D01*
X421Y-10D01*
X422Y-10D01*
X423Y-10D01*
X424Y-9D01*
X424Y-8D01*
X423Y-7D01*
G01X414Y-15D02*
G01X416Y-20D02*
X415Y-20D01*
X414Y-21D01*
X414Y-22D01*
X415Y-23D01*
X416Y-23D01*
X417Y-24D01*
X418Y-23D01*
X419Y-23D01*
X419Y-22D01*
Y-21D01*
G01Y-22D02*
X420Y-23D01*
X421Y-23D01*
X422Y-23D01*
X423Y-23D01*
X424Y-23D01*
X424Y-22D01*
X424Y-21D01*
X423Y-20D01*
G01X424Y-26D02*
X414Y-28D01*
X424Y-30D01*
G01X390Y-51D02*
X390Y-52D01*
X390Y-53D01*
X391Y-53D01*
X392Y-53D01*
X392Y-52D01*
X393Y-51D01*
X393Y-50D01*
Y-43D01*
G01X396Y-52D02*
X396Y-53D01*
X397Y-53D01*
X398Y-53D01*
X399Y-53D01*
X399Y-52D01*
X400Y-51D01*
X400Y-50D01*
X400Y-48D01*
X399Y-48D01*
X399Y-47D01*
X398Y-47D01*
X397Y-47D01*
X397Y-48D01*
X397Y-43D01*
X399D01*
G01X433Y-370D02*
Y-378D01*
X434Y-379D01*
X434Y-380D01*
X435Y-381D01*
X436Y-380D01*
X437Y-379D01*
X437Y-378D01*
Y-370D01*
G01X440Y-376D02*
X441Y-375D01*
X442Y-374D01*
X443Y-375D01*
X443Y-376D01*
X443Y-377D01*
X443Y-378D01*
X443Y-379D01*
X443Y-380D01*
X442Y-381D01*
X441Y-380D01*
X441Y-379D01*
X440Y-378D01*
X440Y-376D01*
X440Y-374D01*
X441Y-373D01*
X441Y-371D01*
X442Y-371D01*
X442Y-370D01*
X443Y-371D01*
X443Y-372D01*
G01X443Y-338D02*
Y-365D01*
G01D02*
X429D01*
G01D02*
Y-336D01*
G01D02*
X443D01*
G01D02*
Y-341D01*
G01X435Y-341D02*
G03I-2J0D01*
G01X419Y-102D02*
G03X430I5J5D01*
G01D02*
X430Y-77D01*
G03X419I-6J-5D01*
G01D02*
X419Y-102D01*
G01X442Y-114D02*
X443Y-113D01*
X443Y-112D01*
X442Y-111D01*
X441Y-111D01*
X440Y-110D01*
X439Y-110D01*
X437Y-110D01*
X436Y-110D01*
X435Y-110D01*
X434Y-111D01*
X433Y-111D01*
X433Y-112D01*
X433Y-113D01*
X434Y-113D01*
X434Y-114D01*
G01X433Y-118D02*
X443D01*
X441Y-117D01*
G01X433D02*
Y-119D01*
G01X435Y-123D02*
X434Y-124D01*
X433Y-124D01*
X433Y-125D01*
X433Y-126D01*
X434Y-126D01*
X435Y-127D01*
X436Y-127D01*
X437Y-127D01*
X438Y-126D01*
X438Y-125D01*
G01Y-126D02*
X439Y-126D01*
X439Y-127D01*
X440Y-127D01*
X441Y-127D01*
X442Y-126D01*
X443Y-125D01*
X442Y-124D01*
G01X435Y-102D02*
G03X446I5J5D01*
G01D02*
X446Y-77D01*
G03X435I-6J-5D01*
G01D02*
X435Y-102D01*
G01X449Y-108D02*
X459D01*
Y-110D01*
X458Y-111D01*
X456Y-111D01*
X455Y-111D01*
X454Y-110D01*
X454Y-108D01*
G01Y-110D02*
X449Y-111D01*
G01X453Y-114D02*
X454Y-115D01*
X455Y-116D01*
Y-117D01*
X454Y-117D01*
X453Y-118D01*
X452Y-118D01*
X451Y-118D01*
X450Y-117D01*
X449Y-117D01*
X449Y-116D01*
X449Y-115D01*
X450Y-115D01*
X452Y-115D01*
X453Y-114D01*
X455Y-115D01*
X457Y-115D01*
X458Y-115D01*
X459Y-116D01*
X459Y-117D01*
X458Y-117D01*
G01X449Y-103D02*
Y-77D01*
X459D01*
Y-103D01*
X449D01*
G01X442Y-3D02*
X441Y-4D01*
X441Y-5D01*
Y-6D01*
X442Y-7D01*
X443Y-7D01*
X445Y-7D01*
X446Y-6D01*
X447Y-5D01*
X447Y-4D01*
X448Y-4D01*
X450Y-4D01*
X451Y-4D01*
X451Y-5D01*
Y-6D01*
X450Y-7D01*
G01X451Y-9D02*
X441Y-10D01*
X451Y-12D01*
X441Y-13D01*
X451Y-14D01*
G01X450Y-20D02*
X451Y-20D01*
X451Y-19D01*
Y-18D01*
X450Y-17D01*
X449Y-17D01*
X447Y-16D01*
X445Y-16D01*
X444Y-16D01*
X443Y-17D01*
X442Y-17D01*
X441Y-18D01*
X441Y-19D01*
X441Y-20D01*
X442Y-20D01*
X442Y-21D01*
G01X451Y-23D02*
X441D01*
Y-27D01*
G01Y-30D02*
X451D01*
G01Y-33D02*
X445Y-30D01*
G01X441Y-33D02*
X448Y-31D01*
G01X476Y-375D02*
X476Y-374D01*
X477Y-373D01*
X476Y-372D01*
X475Y-371D01*
X474Y-371D01*
X472Y-371D01*
X471Y-371D01*
X469Y-371D01*
X468Y-371D01*
X467Y-371D01*
X467Y-372D01*
X466Y-373D01*
X467Y-374D01*
X468Y-375D01*
G01X468Y-378D02*
X467Y-378D01*
X466Y-379D01*
X467Y-380D01*
X468Y-380D01*
X469Y-381D01*
X471Y-381D01*
X473D01*
X474Y-381D01*
X476Y-380D01*
X477Y-379D01*
X476Y-379D01*
X476Y-378D01*
X475Y-378D01*
X473Y-378D01*
X472Y-378D01*
X471Y-378D01*
X470Y-379D01*
X470Y-380D01*
X471Y-380D01*
X473Y-381D01*
G01X491Y-372D02*
X491Y-371D01*
X491Y-370D01*
X490Y-369D01*
X489Y-369D01*
X487Y-369D01*
X486Y-368D01*
X484Y-369D01*
X483Y-369D01*
X482Y-369D01*
X482Y-370D01*
X481Y-371D01*
X482Y-372D01*
X483Y-373D01*
G01X481Y-377D02*
X491D01*
X489Y-376D01*
G01X481D02*
Y-378D01*
G01X491Y-384D02*
X491Y-383D01*
X490Y-383D01*
X489Y-382D01*
X488Y-382D01*
X486Y-382D01*
X485Y-382D01*
X483Y-382D01*
X482Y-383D01*
X481Y-384D01*
X482Y-384D01*
X482Y-385D01*
X483Y-385D01*
X485Y-386D01*
X486Y-386D01*
X488Y-386D01*
X489Y-385D01*
X490Y-385D01*
X491Y-384D01*
G01X464Y-362D02*
G03X475I5J5D01*
G01D02*
X475Y-337D01*
G03X464I-6J-5D01*
G01D02*
X464Y-362D01*
G01X491Y-337D02*
G03X480I-5J-5D01*
G01D02*
X480Y-362D01*
G03X491I6J5D01*
G01D02*
X491Y-337D01*
G01X488Y-317D02*
X489Y-316D01*
X488Y-315D01*
X487Y-314D01*
X486Y-314D01*
X485Y-314D01*
X483Y-313D01*
X482Y-314D01*
X481Y-314D01*
X480Y-314D01*
X479Y-315D01*
X479Y-316D01*
X479Y-317D01*
X480Y-318D01*
G01X487Y-321D02*
X488Y-321D01*
X489Y-322D01*
X488Y-323D01*
X488Y-324D01*
X487Y-324D01*
X486Y-324D01*
X485Y-324D01*
X483Y-322D01*
X482Y-321D01*
X480Y-321D01*
X479Y-320D01*
Y-324D01*
G01X481Y-327D02*
X479Y-327D01*
X479Y-328D01*
X479Y-329D01*
X479Y-330D01*
X480Y-330D01*
X481Y-331D01*
X482Y-331D01*
X483Y-331D01*
X484Y-330D01*
X484Y-329D01*
G01D02*
X485Y-330D01*
X486Y-330D01*
X487Y-330D01*
X488Y-330D01*
X489Y-329D01*
X489Y-328D01*
X488Y-328D01*
G01X479Y-282D02*
X479Y-307D01*
G03X490I6J5D01*
G01D02*
X490Y-282D01*
G01D02*
G03X479I-5J-5D01*
G01X488Y-115D02*
X489Y-114D01*
X489Y-113D01*
X488Y-112D01*
X487Y-111D01*
X485Y-111D01*
X483Y-111D01*
X482Y-111D01*
X481Y-111D01*
X480Y-112D01*
X479Y-112D01*
X479Y-113D01*
X479Y-114D01*
X480Y-115D01*
G01X479Y-119D02*
X489D01*
X487Y-118D01*
G01X479D02*
Y-120D01*
G01X480Y-125D02*
X479Y-125D01*
X479Y-126D01*
X479Y-127D01*
X480Y-127D01*
X482Y-128D01*
X483Y-128D01*
X485D01*
X487Y-128D01*
X488Y-127D01*
X489Y-127D01*
X489Y-126D01*
X489Y-125D01*
X488Y-125D01*
X487Y-124D01*
X486Y-124D01*
X484Y-124D01*
X483Y-125D01*
X482Y-125D01*
X482Y-126D01*
X483Y-127D01*
X485Y-128D01*
G01X479Y-102D02*
G03X490I5J5D01*
G01D02*
X490Y-77D01*
G03X479I-6J-5D01*
G01D02*
X479Y-102D01*
G01X471Y-17D02*
Y-19D01*
X468D01*
X467Y-18D01*
X466Y-17D01*
X467Y-16D01*
X467Y-15D01*
X468Y-15D01*
X469Y-14D01*
X471Y-14D01*
X472D01*
X473Y-14D01*
X474Y-15D01*
X475Y-15D01*
X476Y-16D01*
X476Y-17D01*
X476Y-18D01*
X475Y-18D01*
G01X466Y-21D02*
X476D01*
X466Y-25D01*
X476D01*
G01X466Y-28D02*
X476D01*
Y-29D01*
X476Y-30D01*
X475Y-31D01*
X474Y-31D01*
X473Y-31D01*
X471Y-32D01*
X470Y-31D01*
X468Y-31D01*
X467Y-31D01*
X467Y-30D01*
X466Y-29D01*
Y-28D01*
G01X491Y-4D02*
X490Y-4D01*
X489Y-5D01*
Y-6D01*
X490Y-6D01*
X491Y-7D01*
X492Y-7D01*
X493Y-7D01*
X494Y-7D01*
X495Y-6D01*
X495Y-5D01*
X496Y-4D01*
X497Y-4D01*
X498Y-4D01*
X499Y-5D01*
X500Y-5D01*
Y-6D01*
X499Y-6D01*
X498Y-7D01*
G01X500Y-9D02*
X489Y-11D01*
X500Y-12D01*
X489Y-13D01*
X500Y-15D01*
G01X489Y-17D02*
X500D01*
Y-18D01*
X499Y-19D01*
X498Y-20D01*
X497Y-20D01*
X496Y-20D01*
X495Y-20D01*
X493Y-20D01*
X492Y-20D01*
X491Y-20D01*
X490Y-19D01*
X489Y-18D01*
Y-17D01*
G01X500Y-24D02*
Y-26D01*
G01Y-25D02*
X489D01*
G01Y-24D02*
Y-26D01*
G01Y-32D02*
X490Y-31D01*
X491Y-30D01*
X493Y-30D01*
X494Y-30D01*
X495D01*
X497Y-30D01*
X498Y-30D01*
X499Y-31D01*
X500Y-32D01*
X499Y-32D01*
X499Y-33D01*
X498Y-34D01*
X497Y-34D01*
X495Y-34D01*
X494D01*
X493Y-34D01*
X491Y-34D01*
X490Y-33D01*
X490Y-32D01*
X489Y-32D01*
G01X522Y-341D02*
Y-331D01*
X524D01*
X525Y-332D01*
X526Y-334D01*
X525Y-335D01*
X525Y-336D01*
X524Y-336D01*
X522D01*
G01X524D02*
X526Y-341D01*
G01X530D02*
Y-331D01*
X529Y-333D01*
G01Y-341D02*
X531D01*
G01X535Y-339D02*
X536Y-340D01*
X536Y-341D01*
X537Y-341D01*
X538Y-341D01*
X538Y-340D01*
X539Y-339D01*
X539Y-338D01*
X539Y-337D01*
X538Y-336D01*
X537Y-336D01*
G01X538D02*
X538Y-335D01*
X539Y-334D01*
X539Y-333D01*
X539Y-332D01*
X538Y-332D01*
X537Y-331D01*
X536Y-332D01*
G01X533Y-290D02*
X543D01*
Y-292D01*
X543Y-293D01*
X542Y-293D01*
X541Y-294D01*
X539Y-293D01*
X538Y-292D01*
Y-290D01*
G01Y-292D02*
X533Y-294D01*
G01Y-299D02*
X543D01*
X541Y-298D01*
G01X533D02*
Y-300D01*
G01X542Y-304D02*
X543Y-304D01*
X543Y-305D01*
X543Y-306D01*
X542Y-307D01*
X541Y-307D01*
X540Y-307D01*
X539Y-307D01*
X538Y-305D01*
X536Y-304D01*
X535Y-304D01*
X533Y-303D01*
Y-307D01*
G01X532Y-323D02*
Y-313D01*
X534D01*
X534Y-314D01*
X535Y-314D01*
X535Y-315D01*
X536Y-317D01*
X536Y-318D01*
X536Y-320D01*
X535Y-321D01*
X535Y-322D01*
X534Y-323D01*
X532Y-323D01*
G01X539Y-315D02*
X539Y-314D01*
X540Y-313D01*
X541Y-313D01*
X542Y-314D01*
X542Y-315D01*
X542Y-316D01*
X542Y-317D01*
X540Y-319D01*
X539Y-320D01*
X539Y-322D01*
X539Y-323D01*
X542D01*
G01X513Y-130D02*
X512Y-130D01*
X511Y-130D01*
X510Y-130D01*
X510Y-131D01*
X509Y-132D01*
X509Y-134D01*
X509Y-135D01*
X509Y-137D01*
X509Y-138D01*
X510Y-139D01*
X511Y-140D01*
X512D01*
X512Y-139D01*
X513Y-139D01*
X513Y-138D01*
G01X516Y-136D02*
X517Y-134D01*
X518Y-133D01*
X518Y-134D01*
X519Y-134D01*
X519Y-135D01*
X519Y-137D01*
X519Y-138D01*
X519Y-139D01*
X518Y-139D01*
X518Y-140D01*
X517Y-139D01*
X516Y-138D01*
X516Y-137D01*
X516Y-135D01*
X516Y-133D01*
X516Y-132D01*
X517Y-131D01*
X517Y-130D01*
X518Y-130D01*
X519Y-130D01*
X519Y-131D01*
G01X525Y-128D02*
G03Y-139I5J-5D01*
G01D02*
X550Y-139D01*
G03Y-128I-5J6D01*
G01X513Y-114D02*
X512Y-114D01*
X512Y-113D01*
X511D01*
X510Y-114D01*
X510Y-115D01*
X509Y-116D01*
X509Y-117D01*
X509Y-119D01*
X509Y-121D01*
X509Y-122D01*
X510Y-123D01*
X511Y-123D01*
X511Y-124D01*
X512D01*
X512Y-123D01*
X513Y-123D01*
X513Y-122D01*
G01X519Y-124D02*
Y-113D01*
X516Y-121D01*
X520D01*
G01X550Y-114D02*
X525Y-114D01*
G03Y-125I5J-6D01*
G01D02*
X550Y-125D01*
G01X550Y-128D02*
X525Y-128D01*
G01X497Y-111D02*
X507D01*
Y-113D01*
X506Y-114D01*
X504Y-114D01*
X503Y-114D01*
X502Y-114D01*
X502Y-113D01*
Y-111D01*
G01Y-113D02*
X497Y-114D01*
G01X498Y-117D02*
X497Y-118D01*
X497Y-119D01*
X497Y-120D01*
X498Y-121D01*
X499Y-121D01*
X500Y-121D01*
X502Y-121D01*
X503Y-120D01*
X503Y-119D01*
X503Y-118D01*
X507Y-118D01*
Y-120D01*
G01X496Y-103D02*
Y-77D01*
X506D01*
Y-103D01*
X496D01*
G01X545Y-332D02*
X570D01*
Y-342D01*
X545D01*
Y-332D01*
G01X578Y-294D02*
X579Y-293D01*
X579Y-292D01*
X579Y-291D01*
X578Y-291D01*
X577Y-290D01*
X575Y-290D01*
X574Y-290D01*
X572Y-290D01*
X571Y-290D01*
X570Y-291D01*
X569Y-291D01*
X569Y-292D01*
Y-293D01*
X570Y-294D01*
X571Y-294D01*
G01X569Y-298D02*
X571Y-299D01*
X573Y-299D01*
X575Y-299D01*
X577Y-300D01*
X579Y-300D01*
Y-297D01*
G01X552Y-289D02*
X562D01*
Y-292D01*
X561Y-292D01*
X561Y-293D01*
X559Y-293D01*
X558Y-293D01*
X557Y-292D01*
X557Y-289D01*
G01Y-292D02*
X552Y-293D01*
G01Y-298D02*
X562D01*
X560Y-297D01*
G01X552D02*
Y-299D01*
G01Y-304D02*
X562D01*
X560Y-303D01*
G01X552D02*
Y-305D01*
G01X557Y-321D02*
X561D01*
G01X557Y-325D02*
Y-317D01*
G01X561Y-325D02*
Y-317D01*
X557Y-321D01*
X561Y-325D01*
G01X551Y-282D02*
Y-256D01*
X561D01*
Y-282D01*
X551D01*
G01X533Y-282D02*
Y-257D01*
X543D01*
Y-282D01*
X533D01*
G01X590Y-129D02*
X565Y-129D01*
G03Y-140I5J-6D01*
G01D02*
X590Y-140D01*
G01X550Y-125D02*
G03Y-114I-5J5D01*
G01X590Y-111D02*
X565Y-111D01*
G03Y-122I5J-6D01*
G01D02*
X590Y-122D01*
G01X635Y-370D02*
G03I-15J0D01*
G01X597Y-294D02*
X597Y-293D01*
Y-292D01*
X596Y-291D01*
X595Y-291D01*
X593Y-290D01*
X592Y-290D01*
X590Y-290D01*
X589Y-291D01*
X588Y-291D01*
X588Y-292D01*
X587Y-292D01*
Y-293D01*
X588Y-293D01*
X588Y-294D01*
X589Y-294D01*
G01X587Y-299D02*
X588Y-300D01*
X589Y-301D01*
X590Y-301D01*
X591Y-301D01*
X592Y-300D01*
X593Y-299D01*
Y-298D01*
X594Y-297D01*
X595Y-297D01*
X596Y-298D01*
X597Y-298D01*
X597Y-299D01*
X596Y-300D01*
X595Y-300D01*
X594Y-300D01*
X593Y-300D01*
X593Y-299D01*
Y-298D01*
X592Y-298D01*
X591Y-297D01*
X590Y-297D01*
X589Y-297D01*
X588Y-298D01*
X587Y-298D01*
X587Y-299D01*
G01X597Y-258D02*
G03X586I-5J-5D01*
G01D02*
X586Y-283D01*
G03X597I6J5D01*
G01D02*
X597Y-258D01*
G01X571Y-282D02*
G03X582I5J5D01*
G01D02*
X582Y-257D01*
G03X571I-6J-5D01*
G01D02*
X571Y-282D01*
G01X611Y-197D02*
X604D01*
X602Y-197D01*
X601Y-198D01*
X601Y-199D01*
X602Y-200D01*
X604Y-200D01*
X611D01*
G01X601Y-206D02*
X611D01*
X604Y-203D01*
Y-207D01*
G01X601Y-133D02*
X601Y-132D01*
X600Y-132D01*
X599Y-132D01*
X598Y-133D01*
X598Y-134D01*
X598Y-136D01*
X597Y-137D01*
X598Y-139D01*
X598Y-140D01*
X598Y-141D01*
X599Y-142D01*
X600Y-142D01*
X601Y-142D01*
X601Y-141D01*
X602Y-140D01*
G01X604D02*
X605Y-141D01*
X605Y-142D01*
X606Y-142D01*
X607Y-142D01*
X608Y-141D01*
X608Y-140D01*
X608Y-138D01*
X608Y-137D01*
X607Y-136D01*
X607Y-135D01*
X606Y-135D01*
X605Y-136D01*
X605Y-132D01*
X607D01*
G01X590Y-140D02*
G03Y-129I-5J5D01*
G01X602Y-115D02*
X601Y-114D01*
X600Y-114D01*
X599Y-115D01*
X598Y-116D01*
X598Y-118D01*
X598Y-120D01*
X598Y-121D01*
X598Y-122D01*
X599Y-123D01*
X599Y-124D01*
X600Y-124D01*
X601D01*
X602Y-123D01*
G01X605Y-122D02*
X605Y-123D01*
X606Y-124D01*
X607Y-124D01*
X608Y-123D01*
X608Y-122D01*
X608Y-121D01*
X608Y-120D01*
X608Y-119D01*
X607Y-119D01*
X606D01*
G01X607D02*
X608Y-118D01*
X608Y-117D01*
X608Y-116D01*
X608Y-115D01*
X607Y-114D01*
X606Y-114D01*
X605Y-115D01*
G01X590Y-122D02*
G03Y-111I-5J5D01*
G01X635Y-30D02*
G03I-15J0D01*
G01X619Y-258D02*
X619Y-260D01*
X620Y-260D01*
X620Y-261D01*
X621Y-260D01*
X622Y-258D01*
X622Y-257D01*
Y-250D01*
G01X627Y-261D02*
X627Y-258D01*
X627Y-256D01*
X628Y-255D01*
X628Y-253D01*
X629Y-250D01*
X625D01*
G54D11*
G01X509Y-128D02*
G03I-3J0D01*
G54D12*
G01X0Y-400D02*
Y0D01*
X650D01*
Y-400D01*
X0D01*
G01X45Y-370D02*
G03I-15J0D01*
G01Y-30D02*
G03I-15J0D01*
G01X219Y-274D02*
Y-281D01*
X205D01*
Y-274D01*
X219D01*
G01X260Y-143D02*
X253D01*
Y-129D01*
X260D01*
Y-143D01*
G01X242Y-129D02*
X249D01*
Y-143D01*
X242D01*
Y-129D01*
G01X261Y-124D02*
X254D01*
Y-109D01*
X261D01*
Y-124D01*
G01X248Y-57D02*
Y-64D01*
X234D01*
Y-57D01*
X248D01*
G01X280Y-137D02*
Y-144D01*
X265D01*
Y-137D01*
X280D01*
G01X287Y-89D02*
X282Y-84D01*
X292Y-74D01*
X297Y-79D01*
X287Y-89D01*
G01X295Y-41D02*
Y-63D01*
X288D01*
Y-41D01*
X295D01*
G01X397Y-149D02*
Y-249D01*
X497D01*
Y-149D01*
X397D01*
G01X570Y-317D02*
Y-325D01*
X545D01*
Y-317D01*
X570D01*
G01X594Y-177D02*
X531D01*
Y-225D01*
X594D01*
Y-177D01*
G01X635Y-370D02*
G03I-15J0D01*
G01X599Y-249D02*
Y-143D01*
X649D01*
Y-249D01*
X599D01*
G01X635Y-30D02*
G03I-15J0D01*
M02*
