%FSLAX25Y25*%
%MOIN*%
G70*
G01*
G75*
G04 Layer_Physical_Order=4*
G04 Layer_Color=16711680*
%ADD10C,0.01500*%
%ADD11C,0.02000*%
%ADD12R,0.02362X0.02362*%
%ADD13R,0.05000X0.07874*%
%ADD14R,0.05000X0.05000*%
%ADD15R,0.04800X0.05600*%
%ADD16R,0.02362X0.02362*%
%ADD17R,0.02756X0.03347*%
%ADD18O,0.06299X0.01181*%
%ADD19O,0.01181X0.06299*%
%ADD20R,0.06299X0.01181*%
%ADD21C,0.03937*%
G04:AMPARAMS|DCode=22|XSize=41.34mil|YSize=86.61mil|CornerRadius=6.2mil|HoleSize=0mil|Usage=FLASHONLY|Rotation=0.000|XOffset=0mil|YOffset=0mil|HoleType=Round|Shape=RoundedRectangle|*
%AMROUNDEDRECTD22*
21,1,0.04134,0.07421,0,0,0.0*
21,1,0.02894,0.08661,0,0,0.0*
1,1,0.01240,0.01447,-0.03711*
1,1,0.01240,-0.01447,-0.03711*
1,1,0.01240,-0.01447,0.03711*
1,1,0.01240,0.01447,0.03711*
%
%ADD22ROUNDEDRECTD22*%
G04:AMPARAMS|DCode=23|XSize=39.37mil|YSize=41.34mil|CornerRadius=5.91mil|HoleSize=0mil|Usage=FLASHONLY|Rotation=0.000|XOffset=0mil|YOffset=0mil|HoleType=Round|Shape=RoundedRectangle|*
%AMROUNDEDRECTD23*
21,1,0.03937,0.02953,0,0,0.0*
21,1,0.02756,0.04134,0,0,0.0*
1,1,0.01181,0.01378,-0.01476*
1,1,0.01181,-0.01378,-0.01476*
1,1,0.01181,-0.01378,0.01476*
1,1,0.01181,0.01378,0.01476*
%
%ADD23ROUNDEDRECTD23*%
%ADD24R,0.00984X0.01083*%
%ADD25R,0.01083X0.00984*%
%ADD26R,0.03347X0.02756*%
%ADD27R,0.01890X0.01181*%
%ADD28R,0.01181X0.01890*%
%ADD29R,0.00984X0.01083*%
%ADD30R,0.01083X0.00984*%
%ADD31R,0.00787X0.01378*%
%ADD32R,0.01181X0.01378*%
%ADD33R,0.00984X0.01378*%
%ADD34R,0.01181X0.01181*%
%ADD35R,0.03937X0.02362*%
%ADD36R,0.03937X0.03150*%
%ADD37R,0.03150X0.03937*%
%ADD38R,0.09843X0.11811*%
%ADD39O,0.07087X0.02362*%
%ADD40O,0.02362X0.07087*%
%ADD41C,0.00800*%
%ADD42C,0.01000*%
%ADD43C,0.00500*%
%ADD44C,0.00600*%
%ADD45R,0.12000X0.09600*%
%ADD46C,0.02000*%
%ADD47C,0.04000*%
%ADD48C,0.03000*%
%ADD49C,0.05000*%
%ADD50C,0.04000*%
%ADD51C,0.03000*%
%ADD52R,0.05906X0.03150*%
%ADD53R,0.07874X0.07087*%
%ADD54R,0.05906X0.05118*%
%ADD55R,0.02362X0.03937*%
%ADD56R,0.07874X0.07874*%
%ADD57P,0.03341X4X90.0*%
%ADD58R,0.09843X0.01969*%
%ADD59O,0.03937X0.07874*%
%ADD60R,0.08661X0.11811*%
G04:AMPARAMS|DCode=61|XSize=45mil|YSize=65mil|CornerRadius=5.63mil|HoleSize=0mil|Usage=FLASHONLY|Rotation=0.000|XOffset=0mil|YOffset=0mil|HoleType=Round|Shape=RoundedRectangle|*
%AMROUNDEDRECTD61*
21,1,0.04500,0.05375,0,0,0.0*
21,1,0.03375,0.06500,0,0,0.0*
1,1,0.01125,0.01688,-0.02688*
1,1,0.01125,-0.01688,-0.02688*
1,1,0.01125,-0.01688,0.02688*
1,1,0.01125,0.01688,0.02688*
%
%ADD61ROUNDEDRECTD61*%
%ADD62O,0.02953X0.01772*%
%ADD63R,0.11811X0.19685*%
%ADD64O,0.08661X0.02362*%
%ADD65R,0.07087X0.04331*%
%ADD66O,0.01378X0.02756*%
%ADD67R,0.05118X0.03937*%
%ADD68R,0.01200X0.01800*%
%ADD69R,0.02559X0.04921*%
%ADD70R,0.03937X0.05118*%
%ADD71R,0.04921X0.02559*%
%ADD72C,0.00787*%
%ADD73O,0.07874X0.03937*%
%ADD74R,0.10738X0.04200*%
G36*
X30335Y163774D02*
Y131698D01*
X21928Y123290D01*
Y120935D01*
X20383Y119390D01*
Y95343D01*
X23164Y95045D01*
X23216Y92297D01*
X19305Y92038D01*
X18228Y92804D01*
X16557Y92792D01*
X16635Y97421D01*
X15336Y99234D01*
X15218Y158873D01*
X21346Y165001D01*
X29108D01*
X30335Y163774D01*
D02*
G37*
G36*
X79747Y73818D02*
Y70205D01*
X78920Y69378D01*
X70061D01*
X65775Y65091D01*
X63414D01*
Y67028D01*
X63425Y67039D01*
X64817D01*
X66520Y68743D01*
Y73726D01*
X66785Y73991D01*
X79574D01*
X79747Y73818D01*
D02*
G37*
G36*
X3814Y85309D02*
X3711Y84789D01*
X3905Y83813D01*
X4457Y82986D01*
X5284Y82434D01*
X6260Y82240D01*
X7235Y82434D01*
X7818Y82823D01*
X8308Y82726D01*
X8562Y82346D01*
X9248Y81887D01*
X9297Y81390D01*
X9150Y81242D01*
X11045Y79347D01*
D01*
X11045Y79346D01*
X11046Y79346D01*
D01*
X12941Y77450D01*
X12538Y77047D01*
X13000Y76856D01*
Y73317D01*
X13000Y73317D01*
X13000D01*
X13148Y72576D01*
X13567Y71948D01*
X18491Y67024D01*
X18299Y66562D01*
X17042D01*
X16301Y66415D01*
X15672Y65995D01*
X14700Y65023D01*
X14239Y65214D01*
Y64562D01*
X14056Y64380D01*
X10769D01*
Y64879D01*
X10270D01*
Y67561D01*
X7301D01*
Y66653D01*
X2504D01*
D01*
X2504D01*
X2178Y66979D01*
Y85695D01*
X3497D01*
X3814Y85309D01*
D02*
G37*
G36*
X13756Y124954D02*
X13553Y124650D01*
X13393Y123846D01*
Y118471D01*
X13553Y117666D01*
X13771Y117339D01*
X13786Y109779D01*
X13437Y109492D01*
X12462Y109298D01*
X11635Y108746D01*
X11082Y107919D01*
X10888Y106943D01*
X11082Y105968D01*
X11635Y105141D01*
X12462Y104588D01*
X13437Y104394D01*
X13797Y104100D01*
X13803Y101073D01*
X13450Y100719D01*
X12409D01*
X12177Y101154D01*
X12371Y102129D01*
X12177Y103105D01*
X11624Y103932D01*
X10797Y104484D01*
X9822Y104678D01*
X8846Y104484D01*
X8019Y103932D01*
X7467Y103105D01*
X7273Y102129D01*
X7467Y101154D01*
X8019Y100327D01*
X8405Y100069D01*
X8454Y99572D01*
X8026Y99143D01*
X3571D01*
X2985Y99027D01*
X2619Y98782D01*
X2178Y99018D01*
Y130518D01*
X2371D01*
Y130518D01*
X4552D01*
Y133201D01*
X5552D01*
Y130518D01*
X7734D01*
Y130518D01*
X7734D01*
X7734Y130518D01*
X7871Y130518D01*
Y130518D01*
X10052D01*
Y133201D01*
X10551D01*
Y133700D01*
X13234D01*
Y134455D01*
Y134588D01*
X13737D01*
X13756Y124954D01*
D02*
G37*
G36*
X71166Y118219D02*
Y115008D01*
X70462D01*
Y108071D01*
X71271D01*
X71462Y107609D01*
X71425Y107572D01*
X70983Y106910D01*
X70828Y106130D01*
Y99246D01*
X70186D01*
Y98604D01*
X69681D01*
X68768Y99517D01*
Y104146D01*
X68768Y104146D01*
X68768Y104146D01*
Y104146D01*
X68768D01*
X68768Y104146D01*
X68613Y104926D01*
X68436Y105191D01*
X68171Y105588D01*
X68171Y105588D01*
X65320Y108438D01*
X65435Y108817D01*
X66694D01*
Y115754D01*
X61332D01*
Y114294D01*
X60705Y114170D01*
X60044Y113728D01*
X59282Y112966D01*
X58820Y113157D01*
Y115754D01*
X58411D01*
Y116414D01*
X63091D01*
Y117056D01*
X68505D01*
X69286Y117211D01*
X69947Y117653D01*
X70705Y118411D01*
X71166Y118219D01*
D02*
G37*
G36*
X15861Y97475D02*
Y93967D01*
X15074D01*
X14937Y94104D01*
X14943Y94098D01*
X14937Y94803D01*
Y95852D01*
X14929Y95860D01*
X14937Y94803D01*
Y94104D01*
X14781Y94260D01*
Y95880D01*
X9921D01*
X8565Y94524D01*
X3576D01*
X3226Y94875D01*
Y97269D01*
X3571Y97614D01*
X8660D01*
X10235Y99190D01*
X14147D01*
X15861Y97475D01*
D02*
G37*
G36*
X95606Y68643D02*
X94356Y67393D01*
X93936Y66764D01*
X93789Y66023D01*
Y63108D01*
X93045D01*
Y57777D01*
X92983D01*
Y57032D01*
X92849Y57006D01*
X92721Y56980D01*
X92127Y56583D01*
X91787Y56811D01*
X91716Y56882D01*
X91869Y57652D01*
X91675Y58627D01*
X91122Y59454D01*
X90295Y60006D01*
X89320Y60201D01*
X88344Y60006D01*
X87517Y59454D01*
X86965Y58627D01*
X86781Y57701D01*
X86181Y57582D01*
X85354Y57029D01*
X84802Y56202D01*
X84608Y55227D01*
X84802Y54251D01*
X85354Y53424D01*
X86181Y52872D01*
X87157Y52678D01*
X88132Y52872D01*
X88959Y53424D01*
X89178Y53752D01*
X89640Y53561D01*
X89569Y53203D01*
Y52318D01*
X89128Y52082D01*
X89059Y52128D01*
X88084Y52322D01*
X87108Y52128D01*
X86281Y51575D01*
X85907Y51016D01*
X85410Y50967D01*
X85175Y51201D01*
X84546Y51621D01*
X83805Y51769D01*
X81639D01*
X81016Y51645D01*
X80629Y51962D01*
Y51570D01*
X77947D01*
Y52570D01*
X80629D01*
Y53326D01*
Y58688D01*
X75267D01*
Y58688D01*
X74993D01*
X74866Y58816D01*
X74719Y59557D01*
X74299Y60185D01*
X72379Y62105D01*
X71751Y62525D01*
X71010Y62672D01*
X71010D01*
D01*
X66118D01*
X66118Y63135D01*
X66118D01*
Y63630D01*
X66360Y63678D01*
X66856Y64010D01*
X70695Y67848D01*
X78920D01*
X79505Y67965D01*
X80001Y68296D01*
X80367Y68663D01*
X81072D01*
Y69105D01*
X95415D01*
X95606Y68643D01*
D02*
G37*
G36*
X42410Y23110D02*
X45084D01*
X45245Y22636D01*
X44934Y22397D01*
X44373Y21666D01*
X44020Y20815D01*
X43900Y19901D01*
Y17473D01*
X43800Y17323D01*
X43640Y16518D01*
Y11143D01*
X43800Y10339D01*
X44184Y9763D01*
Y5334D01*
X44216Y5093D01*
Y3365D01*
X44323Y2554D01*
X43993Y2178D01*
X40267D01*
X39989Y2594D01*
X40042Y2722D01*
X40138Y3450D01*
X40500Y3921D01*
X40903Y4894D01*
X41040Y5939D01*
Y16210D01*
X41040Y16210D01*
X40903Y17254D01*
X40500Y18227D01*
X39858Y19063D01*
X39858Y19063D01*
X40000Y19404D01*
X40898D01*
Y22373D01*
X38216D01*
Y23373D01*
X40898D01*
Y24318D01*
X41118Y24512D01*
X42410D01*
Y23110D01*
D02*
G37*
G36*
X4059Y22144D02*
X4558D01*
Y18645D01*
X6026D01*
X6932Y18764D01*
X7168Y18862D01*
X7584Y18584D01*
Y14786D01*
X13143D01*
Y19666D01*
X14602Y21125D01*
X14720Y21077D01*
X14849Y20594D01*
X14786Y20512D01*
X14434Y19660D01*
X14313Y18747D01*
X14434Y17833D01*
X14786Y16982D01*
X15064Y16620D01*
Y14786D01*
X20623D01*
Y16534D01*
X25831Y21741D01*
X25973Y21883D01*
X26463Y21786D01*
X26849Y20856D01*
X27490Y20020D01*
X27661Y19848D01*
Y19404D01*
X28105D01*
X32971Y14539D01*
Y5939D01*
X33109Y4894D01*
X33164Y4760D01*
Y3627D01*
X33283Y2722D01*
X33336Y2594D01*
X33059Y2178D01*
X32084D01*
X31806Y2594D01*
X32030Y3134D01*
X32149Y4039D01*
Y5508D01*
X25152D01*
Y4039D01*
X25271Y3134D01*
X25495Y2594D01*
X25217Y2178D01*
X12187D01*
X11930Y2607D01*
X12281Y3264D01*
X12674Y4559D01*
X12807Y5906D01*
X12674Y7252D01*
X12281Y8546D01*
X11644Y9740D01*
X10785Y10785D01*
X9740Y11644D01*
X8546Y12281D01*
X7252Y12674D01*
X5906Y12807D01*
X4559Y12674D01*
X3264Y12281D01*
X2607Y11930D01*
X2178Y12187D01*
Y18645D01*
X3558D01*
Y21643D01*
X2178D01*
Y22643D01*
X4059D01*
Y22144D01*
D02*
G37*
G36*
X29634Y53926D02*
X29535Y53601D01*
X28708Y53049D01*
D01*
X28351Y53228D01*
X27790Y53960D01*
X27059Y54521D01*
X26208Y54873D01*
X25294Y54994D01*
X24380Y54873D01*
X23529Y54521D01*
X22798Y53960D01*
X22237Y53228D01*
X21884Y52377D01*
X21764Y51463D01*
Y50960D01*
X17917D01*
Y58218D01*
X17961Y58262D01*
X24081D01*
Y58826D01*
X24543Y59017D01*
X29634Y53926D01*
D02*
G37*
G36*
X157361Y166684D02*
X157010Y166027D01*
X156617Y164732D01*
X156484Y163386D01*
X156617Y162039D01*
X157010Y160745D01*
X157648Y159552D01*
X158506Y158506D01*
X159552Y157648D01*
X160745Y157010D01*
X162039Y156617D01*
X163386Y156484D01*
X164732Y156617D01*
X166027Y157010D01*
X166684Y157361D01*
X167113Y157104D01*
Y12187D01*
X166684Y11930D01*
X166027Y12281D01*
X164732Y12674D01*
X163386Y12807D01*
X162039Y12674D01*
X160745Y12281D01*
X159552Y11644D01*
X158506Y10785D01*
X157648Y9740D01*
X157010Y8546D01*
X156617Y7252D01*
X156484Y5906D01*
X156617Y4559D01*
X157010Y3264D01*
X157361Y2607D01*
X157104Y2178D01*
X93970D01*
X93652Y2565D01*
X93745Y3032D01*
X93551Y4007D01*
X92999Y4834D01*
X92172Y5387D01*
X91196Y5581D01*
X90221Y5387D01*
X89394Y4834D01*
X88841Y4007D01*
X88647Y3032D01*
X88740Y2565D01*
X88423Y2178D01*
X64345D01*
X64110Y2619D01*
X64279Y2872D01*
X64473Y3847D01*
X64279Y4823D01*
X63726Y5650D01*
X62899Y6202D01*
X61924Y6396D01*
X60948Y6202D01*
X60730Y6056D01*
X60289Y6292D01*
Y7102D01*
X60169Y8008D01*
X60086Y8208D01*
X60919Y9040D01*
X60930D01*
Y13331D01*
X57639D01*
Y14320D01*
X54651Y11331D01*
X54170Y10704D01*
X53867Y9974D01*
X53764Y9191D01*
Y8856D01*
X53760Y8851D01*
X53411Y8008D01*
X53292Y7102D01*
Y5633D01*
X56791D01*
Y4634D01*
X53292D01*
Y3165D01*
X53372Y2554D01*
X53043Y2178D01*
X51436D01*
X51106Y2554D01*
X51213Y3365D01*
Y5093D01*
X51245Y5334D01*
Y13546D01*
X51220Y13733D01*
Y16518D01*
X51060Y17323D01*
X50960Y17473D01*
Y19901D01*
X50840Y20815D01*
X50487Y21666D01*
X49926Y22397D01*
X49195Y22958D01*
X49225Y23110D01*
X53284D01*
Y23109D01*
X53503D01*
X53507Y23087D01*
X54004Y22343D01*
X57128Y19218D01*
X57128Y19218D01*
X57873Y18721D01*
X58353Y18626D01*
X58450Y18135D01*
X58255Y18005D01*
X57800Y17323D01*
X57640Y16518D01*
Y14331D01*
X65220D01*
Y16518D01*
X65060Y17323D01*
X64604Y18005D01*
X63922Y18461D01*
X63635Y18518D01*
X63592Y18701D01*
X64073Y19328D01*
X64376Y20057D01*
X64479Y20841D01*
X64376Y21624D01*
X64073Y22354D01*
X63592Y22980D01*
X63636Y23109D01*
X63425D01*
X63095Y23362D01*
Y28545D01*
Y33983D01*
X58157D01*
D01*
X58157D01*
X57920Y34220D01*
Y35498D01*
X59063D01*
Y38178D01*
Y40860D01*
X52945D01*
Y35498D01*
X53332D01*
Y33983D01*
X53284D01*
Y33983D01*
X49574D01*
X49338Y34424D01*
X49839Y35174D01*
X50022Y36092D01*
X50701Y36546D01*
X51253Y37373D01*
X51447Y38348D01*
X51253Y39324D01*
X50701Y40151D01*
X49874Y40703D01*
X49382Y40801D01*
Y41601D01*
X46709D01*
Y39572D01*
X46543Y39324D01*
X46523Y39223D01*
X46130D01*
X46409Y38883D01*
X46335Y38388D01*
X45682Y37952D01*
X45181Y37202D01*
X44741D01*
X44672Y37216D01*
X44245Y37854D01*
X43418Y38407D01*
X42443Y38601D01*
X42421Y38596D01*
X40900Y40118D01*
X40900Y40118D01*
X40321Y40505D01*
X39638Y40641D01*
X38317D01*
X37994Y41123D01*
X37522Y41439D01*
Y42687D01*
X32478D01*
Y43687D01*
X37522D01*
Y44935D01*
X37994Y45250D01*
X38215Y45580D01*
X39704D01*
X40330Y45163D01*
X41305Y44969D01*
X42280Y45163D01*
X42595Y45373D01*
X43036Y45137D01*
Y45129D01*
X43036Y45129D01*
X43036Y44979D01*
X43036D01*
Y42601D01*
X49382D01*
Y44979D01*
D01*
Y44979D01*
X49382Y44979D01*
Y45129D01*
X49382D01*
Y50885D01*
D01*
Y50885D01*
X49523Y51025D01*
X52730D01*
Y54495D01*
X53730D01*
Y51025D01*
X56229D01*
Y49153D01*
X56229Y49153D01*
X56229D01*
X56376Y48411D01*
X56796Y47783D01*
X59084Y45495D01*
X59713Y45075D01*
X59713Y45075D01*
X59713Y45075D01*
D01*
X59713Y45075D01*
X59713Y45075D01*
X60454Y44927D01*
X64650D01*
X65233Y44537D01*
X66209Y44343D01*
X67184Y44537D01*
X67768Y44927D01*
X78672D01*
X79413Y45075D01*
X80042Y45495D01*
X80706Y46159D01*
X81094Y46041D01*
X81262Y45570D01*
X81136Y45382D01*
X80942Y44406D01*
X81136Y43431D01*
X81688Y42604D01*
X81946Y42432D01*
X82043Y41942D01*
X81548Y41200D01*
X81354Y40225D01*
X81548Y39249D01*
X82100Y38422D01*
X82928Y37870D01*
X83343Y37787D01*
X83331Y37725D01*
X83525Y36750D01*
X84077Y35923D01*
X84904Y35370D01*
X85879Y35176D01*
X86508Y35301D01*
X86770Y35126D01*
Y35126D01*
X86770Y35126D01*
X87212Y34464D01*
X87874Y34022D01*
X88654Y33867D01*
X92380D01*
X92734Y33514D01*
X92734Y33225D01*
X92717Y33209D01*
X87940D01*
Y26763D01*
X87554Y26446D01*
X87343Y26488D01*
X86368Y26294D01*
X85541Y25741D01*
X84988Y24914D01*
X84794Y23939D01*
X84988Y22963D01*
X85541Y22136D01*
X86368Y21584D01*
X86988Y21460D01*
X87024Y21276D01*
X87502Y20561D01*
X87266Y20120D01*
X81074D01*
Y23231D01*
X80687D01*
Y25091D01*
X82845D01*
Y33209D01*
X73940D01*
Y29978D01*
X73462Y29833D01*
X73437Y29870D01*
X72610Y30423D01*
X71634Y30617D01*
X70659Y30423D01*
X69832Y29870D01*
X69510Y29388D01*
X69032Y29533D01*
Y33320D01*
X69372Y33387D01*
X70199Y33940D01*
X70751Y34767D01*
X70945Y35742D01*
X70751Y36718D01*
X70199Y37545D01*
X69372Y38097D01*
X68396Y38291D01*
X67421Y38097D01*
X66594Y37545D01*
X66041Y36718D01*
X65847Y35742D01*
X66041Y34767D01*
X66270Y34424D01*
X66034Y33983D01*
X64095D01*
Y28545D01*
Y23110D01*
X69032D01*
Y26602D01*
X69510Y26747D01*
X69832Y26265D01*
X70659Y25713D01*
X71634Y25519D01*
X72610Y25713D01*
X73437Y26265D01*
X73462Y26302D01*
X73940Y26157D01*
Y25091D01*
X76099D01*
Y23231D01*
X71775D01*
Y17869D01*
X72151D01*
X72653Y17117D01*
X74002Y15769D01*
Y15769D01*
D01*
Y15769D01*
X74002Y15768D01*
D01*
D01*
D01*
X74002D01*
X74002Y15768D01*
Y15768D01*
X74002Y15768D01*
Y15768D01*
X74829Y15216D01*
X75805Y15022D01*
X99672D01*
X100648Y15216D01*
X101475Y15769D01*
X103730Y18024D01*
X104283Y18851D01*
X104477Y19827D01*
X104283Y20802D01*
X103730Y21629D01*
X102904Y22182D01*
X101928Y22376D01*
X100953Y22182D01*
X100126Y21629D01*
X98616Y20120D01*
X91492D01*
X91256Y20561D01*
X91734Y21276D01*
X91928Y22252D01*
X91734Y23227D01*
X91182Y24054D01*
X90355Y24607D01*
X89735Y24730D01*
X89698Y24914D01*
X89793Y25091D01*
X92847D01*
X93277Y24660D01*
X93247Y24507D01*
X93441Y23532D01*
X93993Y22705D01*
X94820Y22152D01*
X95796Y21958D01*
X96771Y22152D01*
X97598Y22705D01*
X98151Y23532D01*
X98345Y24507D01*
X98221Y25127D01*
X98345Y25747D01*
X98151Y26722D01*
X97598Y27549D01*
X96846Y28302D01*
Y32872D01*
X96846Y32872D01*
D01*
D01*
X96846Y33209D01*
D01*
X96862Y33225D01*
X102033D01*
Y34326D01*
X102455Y34609D01*
X102735Y34889D01*
X103653Y35071D01*
X104480Y35624D01*
X105032Y36451D01*
X105226Y37426D01*
X105032Y38401D01*
X104480Y39228D01*
X103653Y39781D01*
X102678Y39975D01*
X102389Y39918D01*
X102002Y40235D01*
Y42815D01*
X102282D01*
Y48177D01*
X102219D01*
Y51292D01*
X102660Y51527D01*
X103362Y51058D01*
X104338Y50864D01*
X105313Y51058D01*
X106140Y51611D01*
X106693Y52438D01*
X106887Y53413D01*
X106693Y54388D01*
X106140Y55215D01*
X105313Y55768D01*
X104338Y55962D01*
X103362Y55768D01*
X102723Y55341D01*
X102282Y55576D01*
Y57746D01*
X102344D01*
Y59927D01*
X99662D01*
Y60426D01*
X99163D01*
Y63108D01*
X97663D01*
Y65220D01*
X101548Y69105D01*
X101834D01*
X102617Y69208D01*
X103347Y69511D01*
X103974Y69991D01*
X103983Y70004D01*
X104469D01*
X104746Y69588D01*
X104684Y69437D01*
X104413Y69256D01*
X103860Y68429D01*
X103666Y67453D01*
X103860Y66478D01*
X104413Y65651D01*
X105240Y65099D01*
X106215Y64904D01*
X107191Y65099D01*
X108018Y65651D01*
X108217Y65949D01*
X108545Y66015D01*
X108761D01*
X109288Y65226D01*
X110115Y64673D01*
X111090Y64479D01*
X112066Y64673D01*
X112893Y65226D01*
X113066Y65485D01*
X113478Y65567D01*
X114258Y65412D01*
X115039Y65567D01*
X115700Y66009D01*
X116142Y66671D01*
X116298Y67451D01*
X116142Y68232D01*
X116199Y68367D01*
X116367Y68401D01*
X117194Y68953D01*
X117746Y69780D01*
X117862Y70362D01*
X118349Y70475D01*
X118360Y70460D01*
X118987Y69980D01*
X119717Y69677D01*
X120500Y69574D01*
X121283Y69677D01*
X122013Y69980D01*
X122640Y70460D01*
X122916Y70820D01*
X123275Y71096D01*
X124749Y72569D01*
X125229Y73196D01*
X125532Y73926D01*
X125635Y74709D01*
Y83726D01*
X125532Y84509D01*
X125290Y85093D01*
Y86272D01*
X126506Y87488D01*
X127802D01*
Y87194D01*
X127802D01*
Y80257D01*
X128469D01*
X128693Y80034D01*
X128693Y80034D01*
Y80034D01*
X129113Y79405D01*
X130767Y77751D01*
X130767D01*
Y77751D01*
X131395Y77332D01*
X132136Y77184D01*
X135995D01*
X136736Y77332D01*
X136851Y77408D01*
X137292Y77172D01*
Y74472D01*
X146591D01*
Y79834D01*
X146013D01*
Y80352D01*
X146655D01*
Y87289D01*
X145804D01*
X145613Y87751D01*
X149789Y91927D01*
X151417D01*
Y90396D01*
X156779D01*
Y97333D01*
X156779D01*
Y97388D01*
X157100Y97709D01*
X157100D01*
Y103071D01*
X153564D01*
X153373Y103533D01*
X156770Y106930D01*
X157190Y107559D01*
X157337Y108300D01*
X157337Y108300D01*
X157337Y108300D01*
Y108300D01*
Y120099D01*
X157755Y120724D01*
X157949Y121700D01*
X157755Y122676D01*
X157202Y123502D01*
X156376Y124055D01*
X155400Y124249D01*
X154425Y124055D01*
X153598Y123502D01*
X153045Y122676D01*
X152851Y121700D01*
X153045Y120724D01*
X153463Y120099D01*
Y118192D01*
X153022Y117957D01*
X152576Y118255D01*
X151600Y118449D01*
X150625Y118255D01*
X149798Y117702D01*
X149245Y116876D01*
X149051Y115900D01*
X148640Y115818D01*
X148555Y115875D01*
D01*
X148002Y116702D01*
X147176Y117255D01*
X146200Y117449D01*
X145224Y117255D01*
X144398Y116702D01*
X143845Y115875D01*
X143651Y114900D01*
X143845Y113925D01*
X144398Y113098D01*
X145224Y112545D01*
X146200Y112351D01*
X147176Y112545D01*
X148002Y113098D01*
X148555Y113925D01*
X148749Y114900D01*
X149160Y114982D01*
X149245Y114925D01*
D01*
X149798Y114098D01*
X150625Y113545D01*
X151600Y113351D01*
X152576Y113545D01*
X153022Y113843D01*
X153463Y113608D01*
Y109102D01*
X150498Y106137D01*
X142451D01*
X142134Y106524D01*
X142149Y106600D01*
X141955Y107576D01*
X141402Y108402D01*
X140576Y108955D01*
X139600Y109149D01*
X138625Y108955D01*
X137798Y108402D01*
X137245Y107576D01*
X137051Y106600D01*
X137066Y106524D01*
X136749Y106137D01*
X130200D01*
X129459Y105990D01*
X128830Y105570D01*
X124991Y101730D01*
X124571Y101102D01*
X124423Y100361D01*
Y97037D01*
X123865D01*
Y95604D01*
X121905D01*
Y101932D01*
X121905Y101932D01*
X121905Y101932D01*
Y101932D01*
X121905D01*
X121905Y101932D01*
X121758Y102673D01*
X121338Y103302D01*
X117405Y107235D01*
X117486Y107355D01*
X117680Y108331D01*
X117486Y109306D01*
X116933Y110133D01*
X116106Y110686D01*
X115131Y110880D01*
X114155Y110686D01*
X113328Y110133D01*
X112776Y109306D01*
X112582Y108331D01*
X112603Y108224D01*
X112286Y107837D01*
X90576D01*
X89835Y107690D01*
X89207Y107270D01*
X87001Y105064D01*
X86581Y104435D01*
X86433Y103694D01*
Y100051D01*
X85689D01*
Y94689D01*
X90268D01*
Y91252D01*
X87482Y88466D01*
X86924Y88355D01*
X86098Y87802D01*
X85545Y86976D01*
X85351Y86000D01*
X85545Y85024D01*
X86098Y84198D01*
X86924Y83645D01*
X87900Y83451D01*
X88876Y83645D01*
X89702Y84198D01*
X90255Y85024D01*
X90366Y85582D01*
X93749Y88966D01*
X94191Y89627D01*
X94347Y90408D01*
Y94689D01*
X94989D01*
Y98949D01*
X95098D01*
Y103963D01*
X110058D01*
X110245Y103024D01*
X110798Y102198D01*
X111625Y101645D01*
X112600Y101451D01*
X113575Y101645D01*
X114402Y102198D01*
X114955Y103024D01*
X115047Y103489D01*
X115526Y103635D01*
X118031Y101129D01*
Y95350D01*
X117829Y95194D01*
X117348Y94568D01*
X117045Y93838D01*
X116942Y93055D01*
X117045Y92272D01*
X117348Y91542D01*
X117829Y90915D01*
X118455Y90434D01*
X119185Y90132D01*
X119968Y90029D01*
X120751Y90132D01*
X121481Y90434D01*
X121574Y90506D01*
X123102D01*
X123294Y90044D01*
X121167Y87917D01*
X120725Y87256D01*
X120713Y87194D01*
X119928D01*
Y86309D01*
X119487Y86074D01*
X119360Y86158D01*
X118580Y86313D01*
X117799Y86158D01*
X117138Y85716D01*
X115925Y84504D01*
X116628D01*
Y81821D01*
X115628D01*
Y84503D01*
X112659D01*
Y83643D01*
X112197Y83452D01*
X109754Y85896D01*
Y88440D01*
D01*
Y88440D01*
X109950Y88636D01*
X112080D01*
Y91319D01*
X112579D01*
Y91817D01*
X115261D01*
Y93447D01*
X115590D01*
Y95628D01*
X112908D01*
Y96127D01*
X112409D01*
Y98809D01*
X106291D01*
Y93999D01*
X105962D01*
Y92241D01*
X104483Y90763D01*
X103930Y89936D01*
X103736Y88960D01*
Y88440D01*
X102817D01*
Y83078D01*
X105362D01*
X107167Y81273D01*
X106946Y80824D01*
X106285Y80911D01*
X105502Y80808D01*
X104919Y80566D01*
X102937D01*
X102620Y80953D01*
X102657Y81140D01*
X102463Y82115D01*
X101910Y82942D01*
X101083Y83495D01*
X100108Y83689D01*
X99133Y83495D01*
X98305Y82942D01*
X97753Y82115D01*
X97559Y81140D01*
X97753Y80164D01*
X98305Y79337D01*
X99133Y78785D01*
X100108Y78591D01*
X101083Y78785D01*
X101910Y79337D01*
X102338Y79978D01*
X102817Y79833D01*
Y77393D01*
X100581Y75157D01*
X81072D01*
Y75599D01*
X72954D01*
Y75520D01*
X66785D01*
X66200Y75404D01*
X66001Y75271D01*
X65142D01*
Y74576D01*
X64772Y74241D01*
X64590Y74259D01*
Y76490D01*
X59030D01*
Y68568D01*
D01*
Y68568D01*
X58954Y68492D01*
X57950D01*
Y66592D01*
X59755D01*
Y66092D01*
X59855Y65592D01*
X57950D01*
Y65208D01*
X57705Y65107D01*
X57289Y65385D01*
Y65836D01*
X56738D01*
Y66872D01*
Y68568D01*
X57109D01*
Y70402D01*
X57387Y70764D01*
X57740Y71615D01*
X57860Y72529D01*
X57740Y73443D01*
X57387Y74294D01*
X57109Y74656D01*
Y76490D01*
X51550D01*
Y74742D01*
X50712Y73903D01*
X50151Y73172D01*
X49798Y72321D01*
X49678Y71407D01*
Y66872D01*
Y65836D01*
X49171D01*
Y64439D01*
X49126Y64211D01*
Y63725D01*
X48166Y62765D01*
X46465D01*
X46147Y63152D01*
X46177Y63301D01*
X45983Y64276D01*
X45430Y65103D01*
X44604Y65656D01*
X43628Y65850D01*
X42653Y65656D01*
X41826Y65103D01*
X41273Y64276D01*
X41079Y63301D01*
X41109Y63152D01*
X40792Y62765D01*
X38853D01*
X38853D01*
D01*
X38669Y62728D01*
X38306Y62656D01*
X37919Y62973D01*
Y63306D01*
X38663D01*
Y68669D01*
X29364D01*
Y67605D01*
X28994Y67357D01*
X28589Y66953D01*
X28111Y67098D01*
X28061Y67349D01*
X27508Y68176D01*
X26681Y68729D01*
X26284Y68808D01*
X26076Y69196D01*
X30856D01*
Y70625D01*
X34585D01*
X35366Y70780D01*
X36027Y71222D01*
X38454Y73649D01*
X38941Y73447D01*
X38838Y72664D01*
X38941Y71881D01*
X39182Y71298D01*
Y69196D01*
X41053D01*
X42742Y67507D01*
X43368Y67026D01*
X44098Y66724D01*
X44881Y66620D01*
X45664Y66724D01*
X46394Y67026D01*
X47021Y67507D01*
X47502Y68133D01*
X47804Y68863D01*
X47907Y69646D01*
X47804Y70429D01*
X47502Y71159D01*
X47390Y71305D01*
X47021Y71786D01*
X47021Y71786D01*
X44545Y74262D01*
Y76133D01*
X39966D01*
Y79038D01*
X40608D01*
Y80487D01*
X41056Y80708D01*
X41561Y80320D01*
X42291Y80018D01*
X43075Y79915D01*
X43119D01*
Y79038D01*
X48482D01*
Y82223D01*
X48553Y82762D01*
X48588Y82778D01*
X49292Y82778D01*
X49642Y82545D01*
X50618Y82351D01*
X51593Y82545D01*
X52420Y83097D01*
X52973Y83924D01*
X53167Y84900D01*
X53070Y85387D01*
X53495Y85650D01*
X53587Y85580D01*
X54317Y85277D01*
X55100Y85174D01*
X55883Y85277D01*
X56613Y85580D01*
X57240Y86060D01*
X57259Y86085D01*
X57787Y85680D01*
X58517Y85377D01*
X59300Y85274D01*
X60083Y85377D01*
X60813Y85680D01*
X61135Y85927D01*
X61587Y85580D01*
X62317Y85277D01*
X63100Y85174D01*
X63883Y85277D01*
X64613Y85580D01*
X65240Y86060D01*
X65553Y86468D01*
X66040Y86355D01*
X66145Y85825D01*
X66698Y84998D01*
X67524Y84445D01*
X68500Y84251D01*
X69476Y84445D01*
X70302Y84998D01*
Y84998D01*
X70598Y85098D01*
X71425Y84545D01*
X72400Y84351D01*
X73375Y84545D01*
X74202Y85098D01*
X74567Y85643D01*
X75067Y85643D01*
X75098Y85598D01*
X75924Y85045D01*
X76900Y84851D01*
X77876Y85045D01*
X78702Y85598D01*
X79255Y86424D01*
X79449Y87400D01*
X79255Y88376D01*
X78843Y88992D01*
Y93884D01*
X79485D01*
Y98229D01*
X79761D01*
Y103972D01*
X80410Y104101D01*
X81237Y104654D01*
X81790Y105481D01*
X81901Y106038D01*
X82459Y106597D01*
X82901Y107258D01*
X83056Y108039D01*
Y108071D01*
X83698D01*
Y115008D01*
X80466D01*
Y120148D01*
X79499D01*
Y121324D01*
X88392D01*
X89034Y120682D01*
X88842Y120220D01*
X85732D01*
Y114858D01*
X85798D01*
Y108792D01*
X91161D01*
Y114858D01*
X93672D01*
Y108792D01*
X99035D01*
Y110221D01*
X104561D01*
X105341Y110377D01*
X106002Y110819D01*
X106002Y110819D01*
X106002Y110819D01*
X109042Y113858D01*
X109484Y114520D01*
X109639Y115300D01*
X109639Y115300D01*
X109639Y115300D01*
Y115300D01*
Y127055D01*
X110645Y128061D01*
X114152D01*
X114625Y127745D01*
X115600Y127551D01*
X116576Y127745D01*
X117402Y128298D01*
X117955Y129124D01*
X118149Y130100D01*
X117955Y131076D01*
X117402Y131902D01*
X116576Y132455D01*
X115600Y132649D01*
X114625Y132455D01*
X114152Y132139D01*
X109800D01*
X109020Y131984D01*
X108358Y131542D01*
X106158Y129342D01*
X105716Y128680D01*
X105561Y127900D01*
Y116145D01*
X103716Y114300D01*
X99035D01*
Y115729D01*
X95031D01*
Y120220D01*
X94389D01*
Y120250D01*
X94234Y121030D01*
X93792Y121692D01*
X90679Y124805D01*
X90726Y124961D01*
X91326D01*
Y135048D01*
X80452D01*
Y125402D01*
X72773D01*
X71993Y125247D01*
X71331Y124805D01*
X67661Y121134D01*
X63091D01*
Y121776D01*
X56463D01*
X56415Y122274D01*
X57275Y122445D01*
X58102Y122998D01*
X58655Y123825D01*
X58849Y124800D01*
X58655Y125776D01*
X58102Y126602D01*
X57275Y127155D01*
X56300Y127349D01*
X55325Y127155D01*
X54498Y126602D01*
X53945Y125776D01*
X53751Y124800D01*
X53871Y124197D01*
X53677Y123907D01*
X53533Y123763D01*
X52600Y123949D01*
X51625Y123755D01*
X50798Y123202D01*
X50245Y122376D01*
X50051Y121400D01*
X50245Y120424D01*
X50798Y119598D01*
X51625Y119045D01*
X52600Y118851D01*
X53406Y119011D01*
X53792Y118694D01*
Y116414D01*
X54536D01*
Y115754D01*
X53458D01*
Y109110D01*
X53298Y109002D01*
X52745Y108176D01*
X52551Y107200D01*
X52745Y106225D01*
X53298Y105398D01*
X54124Y104845D01*
X54168Y104836D01*
X54016Y104073D01*
Y99728D01*
X53374D01*
Y95339D01*
X52200D01*
X51420Y95184D01*
X50758Y94742D01*
X49176Y93160D01*
X48734Y92498D01*
X48579Y91718D01*
Y91345D01*
X48210D01*
Y91345D01*
X46895D01*
X46312Y91587D01*
X45529Y91690D01*
X44746Y91587D01*
X44162Y91345D01*
X38911D01*
Y90311D01*
X38603Y90106D01*
X38603Y90106D01*
X36485Y87987D01*
X36484Y87987D01*
X36042Y87326D01*
X35887Y86545D01*
Y85975D01*
X35245D01*
D01*
D01*
X35245Y85975D01*
X34793D01*
Y85975D01*
X34151D01*
Y89078D01*
X35800Y90727D01*
X36242Y91389D01*
X36397Y92169D01*
X36242Y92950D01*
X35800Y93611D01*
X35138Y94053D01*
X34358Y94209D01*
X33578Y94053D01*
X32916Y93611D01*
X30670Y91365D01*
X30670Y91365D01*
X30404Y90968D01*
X30227Y90703D01*
X30072Y89923D01*
Y85975D01*
X29430D01*
Y83007D01*
X32112D01*
Y82508D01*
X32611D01*
Y79038D01*
X34793D01*
Y79038D01*
X34793D01*
X34793Y79038D01*
X35245D01*
Y79038D01*
X35887D01*
Y76850D01*
X33740Y74703D01*
X30856D01*
Y76133D01*
X25493D01*
Y69979D01*
X25031Y69788D01*
X20937Y73883D01*
Y75557D01*
Y80396D01*
X21008Y80468D01*
X21556D01*
Y79038D01*
X26919D01*
Y85975D01*
X21556D01*
Y84546D01*
X20163D01*
X19383Y84391D01*
X18721Y83949D01*
X17622Y82849D01*
X17181Y83085D01*
X17295Y83659D01*
Y86112D01*
X19426D01*
Y86784D01*
X19458Y86805D01*
X19855Y87070D01*
X19855Y87070D01*
X20036Y87252D01*
X24492D01*
Y87499D01*
X29567D01*
Y91436D01*
Y93618D01*
X26885D01*
Y94618D01*
X29567D01*
Y96799D01*
X28925D01*
Y99061D01*
X30097D01*
X30877Y99216D01*
X31157Y99403D01*
X31356Y99297D01*
X31477Y98812D01*
X31282Y98520D01*
X31088Y97545D01*
X31282Y96570D01*
X31835Y95743D01*
X32662Y95190D01*
X33637Y94996D01*
X34613Y95190D01*
X35440Y95743D01*
X35911Y96448D01*
X36411D01*
X36428Y96422D01*
X37255Y95869D01*
X38230Y95675D01*
X39206Y95869D01*
X40033Y96422D01*
X40083Y96497D01*
X49065D01*
Y101859D01*
X48731D01*
Y103633D01*
X49039Y103941D01*
X49481Y104602D01*
X49636Y105383D01*
Y106280D01*
X50278D01*
Y113217D01*
X44916D01*
Y106517D01*
X42612D01*
Y103834D01*
X42114D01*
Y103335D01*
X39431D01*
Y101217D01*
X39184D01*
X38404Y101062D01*
X37862Y100700D01*
X37255Y100579D01*
X36428Y100027D01*
X36155Y99618D01*
X35676Y99763D01*
Y112925D01*
X40304Y117552D01*
X40979D01*
Y116123D01*
X46341D01*
Y123060D01*
X40979D01*
Y121631D01*
X39459D01*
X38679Y121475D01*
X38017Y121033D01*
X38017Y121033D01*
X35435Y118452D01*
X34973Y118643D01*
Y120658D01*
X31683D01*
Y116367D01*
X32698D01*
X32889Y115906D01*
X32195Y115211D01*
X31753Y114550D01*
X31598Y113769D01*
Y103033D01*
X31157Y102797D01*
X30877Y102984D01*
X30097Y103139D01*
X28908D01*
Y105159D01*
X25940D01*
Y101099D01*
X24940D01*
Y105159D01*
X21971D01*
D01*
X21971D01*
X21912Y105218D01*
Y118757D01*
X23009Y119854D01*
X23341Y120350D01*
X23458Y120935D01*
Y122657D01*
X31417Y130616D01*
X31748Y131113D01*
X31865Y131698D01*
Y163774D01*
X31748Y164359D01*
X31417Y164855D01*
X30189Y166083D01*
X29693Y166414D01*
X29108Y166531D01*
X21346D01*
X20858Y166434D01*
X20761Y166414D01*
X20265Y166083D01*
X19178Y164996D01*
X18789D01*
Y164607D01*
X14137Y159955D01*
X14136Y159954D01*
X14135Y159953D01*
X13970Y159704D01*
X13805Y159459D01*
X13805Y159457D01*
X13804Y159456D01*
X13747Y159164D01*
X13689Y158873D01*
X13689Y158872D01*
X13689Y158870D01*
X13726Y140172D01*
X13373Y139818D01*
X13234Y139818D01*
X13234Y139818D01*
X13234Y139818D01*
X7871D01*
D01*
D01*
X7871Y139818D01*
X7734Y139818D01*
Y139818D01*
X2371D01*
D01*
X2371D01*
X2178Y140011D01*
Y157104D01*
X2607Y157361D01*
X3264Y157010D01*
X4559Y156617D01*
X5906Y156484D01*
X7252Y156617D01*
X8546Y157010D01*
X9740Y157648D01*
X10785Y158506D01*
X11644Y159552D01*
X12281Y160745D01*
X12674Y162039D01*
X12807Y163386D01*
X12674Y164732D01*
X12281Y166027D01*
X11930Y166684D01*
X12187Y167113D01*
X71316D01*
X71507Y166651D01*
X70386Y165530D01*
X69889Y164786D01*
X69714Y163908D01*
Y159938D01*
X69387Y159513D01*
X69085Y158783D01*
X68982Y158000D01*
X69085Y157217D01*
X69387Y156487D01*
X69868Y155860D01*
X70495Y155379D01*
X71225Y155077D01*
X72008Y154974D01*
X72791Y155077D01*
X73521Y155379D01*
X74147Y155860D01*
X74199D01*
X74826Y155379D01*
X75555Y155077D01*
X76338Y154974D01*
X77122Y155077D01*
X77851Y155379D01*
X78182Y155633D01*
X78630Y155412D01*
Y147131D01*
X78630Y147131D01*
X78630D01*
X78785Y146350D01*
X79227Y145689D01*
X83558Y141358D01*
X84220Y140916D01*
X85000Y140761D01*
X85000Y140761D01*
X93247D01*
Y139725D01*
X102153D01*
Y144647D01*
X102153D01*
Y150796D01*
X102153D01*
Y152143D01*
X93247D01*
Y149760D01*
X90123D01*
X87039Y152845D01*
Y155783D01*
X87140Y155860D01*
X87621Y156487D01*
X87923Y157217D01*
X88026Y158000D01*
X88008Y158139D01*
X88456Y158360D01*
X90694Y156122D01*
X91356Y155680D01*
X92136Y155525D01*
X93247D01*
Y154489D01*
Y153142D01*
X102153D01*
Y154489D01*
Y159410D01*
Y165560D01*
X99765D01*
X99322Y166222D01*
X98893Y166651D01*
X99084Y167113D01*
X133178D01*
X133496Y166727D01*
X133351Y166000D01*
X133545Y165024D01*
X134098Y164198D01*
X134924Y163645D01*
X135900Y163451D01*
X136875Y163645D01*
X137702Y164198D01*
X138255Y165024D01*
X138449Y166000D01*
X138255Y166975D01*
X138329Y167113D01*
X157104D01*
X157361Y166684D01*
D02*
G37*
G36*
X58673Y61669D02*
X60621D01*
X60694Y61597D01*
Y59860D01*
X60607Y59773D01*
X60588Y59793D01*
X59074D01*
X58706Y59425D01*
X51228D01*
X50655Y59999D01*
Y64211D01*
X56131Y64211D01*
X58673Y61669D01*
D02*
G37*
%LPC*%
G36*
X10692Y78286D02*
X9150Y76743D01*
X10692Y75201D01*
X12234Y76743D01*
X10692Y78286D01*
D02*
G37*
G36*
X102344Y63108D02*
X100163D01*
Y60927D01*
X102344D01*
Y63108D01*
D02*
G37*
G36*
X14238Y67561D02*
X11270D01*
Y65380D01*
X14238D01*
Y67561D01*
D02*
G37*
G36*
X160716Y87491D02*
X155354D01*
Y80554D01*
X156098D01*
Y79903D01*
X151291D01*
Y74541D01*
X151291Y74541D01*
X151291D01*
X151401Y74277D01*
X150186Y73062D01*
X148849D01*
X148376Y73378D01*
X147401Y73572D01*
X146425Y73378D01*
X145598Y72825D01*
X145046Y71998D01*
X144852Y71023D01*
X145046Y70047D01*
X145598Y69221D01*
X146425Y68668D01*
X147401Y68474D01*
X148376Y68668D01*
X148849Y68984D01*
X151031D01*
X151811Y69139D01*
X152473Y69581D01*
X155414Y72523D01*
X155856Y73184D01*
X156012Y73965D01*
X156012Y73965D01*
X156012Y73965D01*
Y73965D01*
Y74541D01*
X160591D01*
Y79903D01*
X159973D01*
Y80554D01*
X160716D01*
Y87491D01*
D02*
G37*
G36*
X31611Y82007D02*
X29430D01*
Y79038D01*
X31611D01*
Y82007D01*
D02*
G37*
G36*
X8443Y80535D02*
X6900Y78993D01*
X8443Y77451D01*
X9985Y78993D01*
X8443Y80535D01*
D02*
G37*
G36*
X68701Y83145D02*
X65142D01*
Y80177D01*
X68701D01*
Y83145D01*
D02*
G37*
G36*
X86574Y81705D02*
X84393D01*
Y79524D01*
X86574D01*
Y81705D01*
D02*
G37*
G36*
X81072Y79505D02*
X77513D01*
Y76537D01*
X81072D01*
Y79505D01*
D02*
G37*
G36*
X76513Y83473D02*
X72954D01*
Y83145D01*
X69701D01*
Y79676D01*
Y76208D01*
X73260D01*
Y76537D01*
X76513D01*
Y80004D01*
Y83473D01*
D02*
G37*
G36*
X68701Y79176D02*
X65142D01*
Y76208D01*
X68701D01*
Y79176D01*
D02*
G37*
G36*
X93866Y83160D02*
X92891Y82966D01*
X92064Y82413D01*
X91591Y81705D01*
X87574D01*
Y79023D01*
Y76343D01*
X93692D01*
Y77562D01*
X93722Y77582D01*
X93722Y77582D01*
X94284Y78145D01*
X94842Y78256D01*
X95669Y78808D01*
X96221Y79635D01*
X96415Y80611D01*
X96221Y81586D01*
X95669Y82413D01*
X94842Y82966D01*
X93866Y83160D01*
D02*
G37*
G36*
X86574Y78524D02*
X84393D01*
Y76343D01*
X86574D01*
Y78524D01*
D02*
G37*
G36*
X71656Y12819D02*
X70681Y12625D01*
X69854Y12073D01*
X69301Y11246D01*
X69107Y10270D01*
X69301Y9295D01*
X69854Y8468D01*
X70681Y7915D01*
X71656Y7721D01*
X72632Y7915D01*
X73458Y8468D01*
X74011Y9295D01*
X74205Y10270D01*
X74011Y11246D01*
X73458Y12073D01*
X72632Y12625D01*
X71656Y12819D01*
D02*
G37*
G36*
X97516Y11901D02*
X96541Y11706D01*
X95714Y11154D01*
X95161Y10327D01*
X94967Y9352D01*
X95161Y8376D01*
X95714Y7549D01*
X96541Y6997D01*
X97516Y6803D01*
X98492Y6997D01*
X99318Y7549D01*
X99871Y8376D01*
X100065Y9352D01*
X99871Y10327D01*
X99318Y11154D01*
X98492Y11706D01*
X97516Y11901D01*
D02*
G37*
G36*
X142618Y12832D02*
X140436D01*
Y10651D01*
X142618D01*
Y12832D01*
D02*
G37*
G36*
X65220Y13331D02*
X61930D01*
Y9040D01*
X63117D01*
X63922Y9200D01*
X64604Y9656D01*
X65060Y10339D01*
X65220Y11143D01*
Y13331D01*
D02*
G37*
G36*
X29151Y11409D02*
Y6508D01*
X32149D01*
Y7976D01*
X32030Y8882D01*
X31680Y9725D01*
X31124Y10450D01*
X30400Y11006D01*
X29556Y11355D01*
X29151Y11409D01*
D02*
G37*
G36*
X144102Y8935D02*
X143127Y8741D01*
X142300Y8188D01*
X141747Y7361D01*
X141553Y6386D01*
X141747Y5410D01*
X142300Y4583D01*
X143127Y4031D01*
X144102Y3837D01*
X145078Y4031D01*
X145905Y4583D01*
X146457Y5410D01*
X146651Y6386D01*
X146457Y7361D01*
X145905Y8188D01*
X145078Y8741D01*
X144102Y8935D01*
D02*
G37*
G36*
X138516Y8821D02*
X137540Y8627D01*
X136713Y8074D01*
X136161Y7247D01*
X135967Y6272D01*
X136161Y5296D01*
X136713Y4469D01*
X137540Y3917D01*
X138516Y3723D01*
X139491Y3917D01*
X140318Y4469D01*
X140871Y5296D01*
X141065Y6272D01*
X140871Y7247D01*
X140318Y8074D01*
X139491Y8627D01*
X138516Y8821D01*
D02*
G37*
G36*
X28151Y11409D02*
X27745Y11355D01*
X26902Y11006D01*
X26177Y10450D01*
X25621Y9725D01*
X25271Y8882D01*
X25152Y7976D01*
Y6508D01*
X28151D01*
Y11409D01*
D02*
G37*
G36*
X78379Y11365D02*
X77404Y11171D01*
X76577Y10619D01*
X76025Y9792D01*
X75831Y8816D01*
X76025Y7841D01*
X76577Y7014D01*
X77404Y6461D01*
X78379Y6267D01*
X79355Y6461D01*
X79894Y6821D01*
X80523Y6401D01*
X81499Y6207D01*
X82474Y6401D01*
X83301Y6954D01*
X83695Y7543D01*
X84185Y7445D01*
X84279Y6975D01*
X84831Y6148D01*
X85658Y5596D01*
X86633Y5402D01*
X87609Y5596D01*
X88436Y6148D01*
X88988Y6975D01*
X89182Y7951D01*
X88988Y8926D01*
X89128Y9187D01*
X93623D01*
Y11171D01*
X82173D01*
X81499Y11305D01*
X80824Y11171D01*
X80780D01*
Y11162D01*
X80523Y11111D01*
X79984Y10751D01*
X79355Y11171D01*
X78379Y11365D01*
D02*
G37*
G36*
X86701Y14155D02*
X80780D01*
Y12171D01*
X86701D01*
Y14155D01*
D02*
G37*
G36*
X114495Y52052D02*
X113519Y51858D01*
X112692Y51305D01*
X112140Y50479D01*
X111946Y49503D01*
X112140Y48528D01*
X112692Y47701D01*
X113519Y47148D01*
X114495Y46954D01*
X115470Y47148D01*
X116297Y47701D01*
X116850Y48528D01*
X117043Y49503D01*
X116850Y50479D01*
X116297Y51305D01*
X115470Y51858D01*
X114495Y52052D01*
D02*
G37*
G36*
X45709Y41601D02*
X43036D01*
Y39223D01*
X45709D01*
Y41601D01*
D02*
G37*
G36*
X153249Y63395D02*
X152274Y63201D01*
X151447Y62649D01*
X150894Y61822D01*
X150700Y60846D01*
X150894Y59871D01*
X151447Y59044D01*
X152274Y58491D01*
X153011Y58345D01*
X154481Y56875D01*
X154709Y56325D01*
X155139Y55765D01*
X155579Y55427D01*
Y54927D01*
X155139Y54589D01*
X154709Y54029D01*
X154439Y53377D01*
X154412Y53177D01*
X165989D01*
X165962Y53377D01*
X165692Y54029D01*
X165262Y54589D01*
X164702Y55019D01*
Y55335D01*
X165262Y55765D01*
X165692Y56325D01*
X165962Y56977D01*
X166054Y57677D01*
X165962Y58377D01*
X165692Y59029D01*
X165262Y59589D01*
X164702Y60019D01*
X164050Y60289D01*
X163350Y60381D01*
X157051D01*
X156523Y60312D01*
X155751Y61084D01*
X155604Y61822D01*
X155052Y62649D01*
X154225Y63201D01*
X153249Y63395D01*
D02*
G37*
G36*
X127327Y60381D02*
X121027D01*
X120327Y60289D01*
X119675Y60019D01*
X119115Y59589D01*
X118685Y59029D01*
X118415Y58377D01*
X118323Y57677D01*
X118415Y56977D01*
X118685Y56325D01*
X119115Y55765D01*
X119555Y55427D01*
Y54927D01*
X119115Y54589D01*
X118685Y54029D01*
X118415Y53377D01*
X118323Y52677D01*
X118415Y51977D01*
X118685Y51325D01*
X119115Y50765D01*
X119555Y50427D01*
Y49927D01*
X119115Y49589D01*
X118685Y49029D01*
X118415Y48377D01*
X118323Y47677D01*
X118415Y46977D01*
X118685Y46325D01*
X119115Y45765D01*
X119555Y45427D01*
Y44927D01*
X119115Y44589D01*
X118685Y44029D01*
X118415Y43377D01*
X118323Y42677D01*
X118415Y41977D01*
X118685Y41325D01*
X119115Y40765D01*
X119555Y40427D01*
Y39927D01*
X119115Y39589D01*
X118685Y39029D01*
X118415Y38377D01*
X118323Y37677D01*
X118415Y36977D01*
X118685Y36325D01*
X119115Y35765D01*
X119555Y35427D01*
Y34927D01*
X119115Y34589D01*
X118685Y34029D01*
X118415Y33377D01*
X118323Y32677D01*
X118415Y31977D01*
X118685Y31325D01*
X119115Y30765D01*
X119226Y30680D01*
X119112Y30193D01*
X118301Y30032D01*
X117474Y29479D01*
X102470Y14475D01*
X101917Y13648D01*
X101723Y12672D01*
Y10776D01*
X101652Y10683D01*
X101349Y9953D01*
X101246Y9170D01*
X101349Y8387D01*
X101652Y7657D01*
X102132Y7030D01*
X102759Y6550D01*
X103489Y6247D01*
X104272Y6144D01*
X105055Y6247D01*
X105785Y6550D01*
X106412Y7030D01*
X106893Y7657D01*
X107195Y8387D01*
X107298Y9170D01*
X107195Y9953D01*
X106893Y10683D01*
X106821Y10776D01*
Y11616D01*
X117872Y22667D01*
X118345Y22507D01*
X118415Y21977D01*
X118685Y21325D01*
X119115Y20765D01*
X119675Y20335D01*
X120327Y20065D01*
X121027Y19973D01*
X127327D01*
X128026Y20065D01*
X128679Y20335D01*
X129239Y20765D01*
X129668Y21325D01*
X129939Y21977D01*
X130031Y22677D01*
X129939Y23377D01*
X129897Y23477D01*
X130313Y23755D01*
X133450Y20617D01*
Y16013D01*
X133318D01*
Y10651D01*
X139436D01*
Y13333D01*
X139936D01*
Y13832D01*
X142618D01*
Y16013D01*
X141245D01*
X141009Y16454D01*
X141343Y16953D01*
X141537Y17929D01*
X141343Y18904D01*
X140790Y19731D01*
X139963Y20284D01*
X138988Y20478D01*
X138935Y20467D01*
X138549Y20784D01*
Y21673D01*
X138354Y22649D01*
X137802Y23475D01*
X137329Y23949D01*
X137514Y24296D01*
X138490Y24490D01*
X139317Y25043D01*
X139869Y25870D01*
X140064Y26845D01*
X139869Y27821D01*
X139317Y28647D01*
X138490Y29200D01*
X137514Y29394D01*
X136539Y29200D01*
X135712Y28647D01*
X135160Y27821D01*
X134980Y26921D01*
X134502Y26775D01*
X131798Y29479D01*
X130971Y30032D01*
X129996Y30226D01*
X129314D01*
X129154Y30700D01*
X129239Y30765D01*
X129298Y30842D01*
X130452D01*
X131037Y30958D01*
X131154Y30981D01*
X131749Y31379D01*
X133498Y33128D01*
X133896Y33723D01*
X134035Y34426D01*
Y39092D01*
X134555Y39870D01*
X134749Y40845D01*
X134555Y41821D01*
X134002Y42648D01*
X133176Y43200D01*
X132200Y43394D01*
X131225Y43200D01*
X130458Y42688D01*
X130086Y42856D01*
X129999Y42914D01*
X129939Y43377D01*
X129668Y44029D01*
X129239Y44589D01*
X128679Y45019D01*
Y45335D01*
D01*
X129239Y45765D01*
X129668Y46325D01*
X129939Y46977D01*
X130031Y47677D01*
X129939Y48377D01*
X129668Y49029D01*
X129239Y49589D01*
X128944Y49815D01*
X129151Y50270D01*
X129867Y50128D01*
X130842Y50322D01*
X131669Y50875D01*
X132222Y51702D01*
X132416Y52677D01*
X132222Y53653D01*
X131669Y54479D01*
X130842Y55032D01*
Y55322D01*
D01*
X131669Y55875D01*
X132222Y56702D01*
X132416Y57677D01*
X132222Y58653D01*
X131669Y59479D01*
X130842Y60032D01*
X129867Y60226D01*
X128891Y60032D01*
X128769Y59950D01*
X128679Y60019D01*
X128026Y60289D01*
X127327Y60381D01*
D02*
G37*
G36*
X62244Y40860D02*
X60063D01*
Y38679D01*
X62244D01*
Y40860D01*
D02*
G37*
G36*
X165989Y52177D02*
X154412D01*
X154439Y51977D01*
X154709Y51325D01*
X155139Y50765D01*
X155579Y50427D01*
Y49927D01*
X155139Y49589D01*
X154709Y49029D01*
X154439Y48377D01*
X154347Y47677D01*
X154439Y46977D01*
X154709Y46325D01*
X155139Y45765D01*
X155579Y45427D01*
Y44927D01*
X155139Y44589D01*
X154709Y44029D01*
X154439Y43377D01*
X154347Y42677D01*
X154439Y41977D01*
X154709Y41325D01*
X155139Y40765D01*
X155579Y40427D01*
Y39927D01*
X155139Y39589D01*
X154709Y39029D01*
X154439Y38377D01*
X154347Y37677D01*
X154439Y36977D01*
X154709Y36325D01*
X155139Y35765D01*
X155579Y35427D01*
Y34927D01*
X155139Y34589D01*
X154709Y34029D01*
X154439Y33377D01*
X154347Y32677D01*
X154439Y31977D01*
X154709Y31325D01*
X155139Y30765D01*
X155579Y30427D01*
Y29927D01*
X155139Y29589D01*
X155080Y29512D01*
X154532D01*
X153754Y30032D01*
X152779Y30226D01*
X151804Y30032D01*
X150977Y29479D01*
X150424Y28653D01*
X150230Y27677D01*
X150424Y26702D01*
X150977Y25875D01*
X151720Y25378D01*
Y24905D01*
X151714Y24873D01*
X151296Y24594D01*
X150744Y23767D01*
X150550Y22792D01*
X150744Y21816D01*
X151296Y20989D01*
X152123Y20437D01*
X153099Y20243D01*
X154074Y20437D01*
X154680Y20842D01*
X155080D01*
X155139Y20765D01*
X155699Y20335D01*
X156351Y20065D01*
X157051Y19973D01*
X163350D01*
X164050Y20065D01*
X164702Y20335D01*
X165262Y20765D01*
X165692Y21325D01*
X165962Y21977D01*
X166054Y22677D01*
X165962Y23377D01*
X165692Y24029D01*
X165262Y24589D01*
X164702Y25019D01*
Y25335D01*
X165262Y25765D01*
X165692Y26325D01*
X165962Y26977D01*
X166054Y27677D01*
X165962Y28377D01*
X165692Y29029D01*
X165262Y29589D01*
X164702Y30019D01*
D01*
Y30335D01*
X165262Y30765D01*
X165692Y31325D01*
X165962Y31977D01*
X166054Y32677D01*
X165962Y33377D01*
X165692Y34029D01*
X165262Y34589D01*
X164702Y35019D01*
Y35335D01*
D01*
X165262Y35765D01*
X165692Y36325D01*
X165962Y36977D01*
X166054Y37677D01*
X165962Y38377D01*
X165692Y39029D01*
X165262Y39589D01*
X164702Y40019D01*
Y40335D01*
X165262Y40765D01*
X165692Y41325D01*
X165962Y41977D01*
X166054Y42677D01*
X165962Y43377D01*
X165692Y44029D01*
X165262Y44589D01*
X164702Y45019D01*
Y45335D01*
X165262Y45765D01*
X165692Y46325D01*
X165962Y46977D01*
X166054Y47677D01*
X165962Y48377D01*
X165692Y49029D01*
X165262Y49589D01*
X164702Y50019D01*
Y50335D01*
X165262Y50765D01*
X165692Y51325D01*
X165962Y51977D01*
X165989Y52177D01*
D02*
G37*
G36*
X93623Y14155D02*
X87701D01*
Y12171D01*
X93623D01*
Y14155D01*
D02*
G37*
G36*
X72912Y42134D02*
X71937Y41939D01*
X71110Y41387D01*
X70557Y40560D01*
X70363Y39585D01*
X70557Y38609D01*
X71110Y37782D01*
X71937Y37230D01*
X72912Y37036D01*
X73888Y37230D01*
X74715Y37782D01*
X75267Y38609D01*
X75461Y39585D01*
X75267Y40560D01*
X74715Y41387D01*
X73888Y41939D01*
X72912Y42134D01*
D02*
G37*
G36*
X62244Y37679D02*
X60063D01*
Y35498D01*
X62244D01*
Y37679D01*
D02*
G37*
G36*
X38200Y145449D02*
X37225Y145255D01*
X36398Y144702D01*
X35845Y143876D01*
X35651Y142900D01*
X35845Y141925D01*
X36398Y141098D01*
X36718Y140883D01*
Y140383D01*
X36598Y140302D01*
X36045Y139476D01*
X35851Y138500D01*
X36045Y137524D01*
X36598Y136698D01*
X36789Y136569D01*
X36887Y136079D01*
X36360Y135290D01*
X36166Y134315D01*
X36360Y133340D01*
X36913Y132512D01*
X37739Y131960D01*
X38715Y131766D01*
X39690Y131960D01*
X40517Y132512D01*
X41070Y133340D01*
X41264Y134315D01*
X41070Y135290D01*
X40517Y136117D01*
X40202Y136328D01*
Y136698D01*
X40755Y137524D01*
X40949Y138500D01*
X40755Y139476D01*
X40202Y140302D01*
X39882Y140517D01*
Y141017D01*
X40002Y141098D01*
X40555Y141925D01*
X40749Y142900D01*
X40555Y143876D01*
X40002Y144702D01*
X39176Y145255D01*
X38200Y145449D01*
D02*
G37*
G36*
X13234Y132700D02*
X11052D01*
Y130518D01*
X13234D01*
Y132700D01*
D02*
G37*
G36*
X50173Y145091D02*
X44842D01*
Y138186D01*
X50173D01*
Y145091D01*
D02*
G37*
G36*
X116439Y139028D02*
X114015D01*
X114101Y138597D01*
X114628Y137808D01*
X115417Y137280D01*
X116348Y137095D01*
X116439D01*
Y139028D01*
D02*
G37*
G36*
X50173Y137186D02*
X44842D01*
Y130280D01*
X50173D01*
Y137186D01*
D02*
G37*
G36*
X32871Y125948D02*
X31683D01*
Y121658D01*
X34973D01*
Y123846D01*
X34813Y124650D01*
X34358Y125332D01*
X33675Y125788D01*
X32871Y125948D01*
D02*
G37*
G36*
X30683D02*
X29496D01*
X28691Y125788D01*
X28009Y125332D01*
X27553Y124650D01*
X27393Y123846D01*
Y121658D01*
X30683D01*
Y125948D01*
D02*
G37*
G36*
X56503Y137186D02*
X51173D01*
Y130280D01*
X53603D01*
X53751Y130100D01*
X53945Y129124D01*
X54498Y128298D01*
X55325Y127745D01*
X56300Y127551D01*
X57275Y127745D01*
X58102Y128298D01*
X58655Y129124D01*
X58849Y130100D01*
X58655Y131076D01*
X58102Y131902D01*
X57275Y132455D01*
X56503Y132608D01*
Y137186D01*
D02*
G37*
G36*
X151742Y124052D02*
X149561D01*
Y121871D01*
X151742D01*
Y124052D01*
D02*
G37*
G36*
X56503Y145091D02*
X51173D01*
Y138186D01*
X56503D01*
Y145091D01*
D02*
G37*
G36*
X56041Y164996D02*
X50711D01*
Y158091D01*
X56041D01*
Y164996D01*
D02*
G37*
G36*
X49711D02*
X44380D01*
Y158091D01*
X49711D01*
Y164996D01*
D02*
G37*
G36*
X147633Y164349D02*
X146658Y164155D01*
X145831Y163602D01*
X145278Y162776D01*
X145084Y161800D01*
X145278Y160825D01*
X145831Y159998D01*
X146658Y159445D01*
X147633Y159251D01*
X148609Y159445D01*
X149436Y159998D01*
X149988Y160825D01*
X150182Y161800D01*
X149988Y162776D01*
X149436Y163602D01*
X148609Y164155D01*
X147633Y164349D01*
D02*
G37*
G36*
X141767D02*
X140791Y164155D01*
X139964Y163602D01*
X139412Y162776D01*
X139218Y161800D01*
X139412Y160825D01*
X139964Y159998D01*
X140791Y159445D01*
X141767Y159251D01*
X142742Y159445D01*
X143569Y159998D01*
X144122Y160825D01*
X144316Y161800D01*
X144122Y162776D01*
X143569Y163602D01*
X142742Y164155D01*
X141767Y164349D01*
D02*
G37*
G36*
X126183Y158370D02*
X119277D01*
Y156760D01*
X118836Y156524D01*
X118460Y156775D01*
X117529Y156960D01*
X116348D01*
X115417Y156775D01*
X114628Y156248D01*
X114101Y155459D01*
X113916Y154528D01*
X114101Y153597D01*
X114628Y152808D01*
X115417Y152280D01*
X115430Y152278D01*
Y151778D01*
X115417Y151775D01*
X115107Y151568D01*
X114730D01*
X114258Y151884D01*
X113282Y152078D01*
X112307Y151884D01*
X111480Y151331D01*
X110927Y150504D01*
X110733Y149529D01*
X110927Y148553D01*
X111480Y147726D01*
X112307Y147174D01*
X112187Y146573D01*
X111825Y146331D01*
X111273Y145504D01*
X111079Y144529D01*
X111273Y143553D01*
X111825Y142726D01*
X112652Y142174D01*
X113628Y141980D01*
X114603Y142174D01*
X114990Y142432D01*
X115430Y142196D01*
Y141778D01*
X115417Y141775D01*
X114628Y141248D01*
X114101Y140459D01*
X114015Y140028D01*
X116940D01*
Y139529D01*
X117439D01*
Y137095D01*
X117529D01*
X118460Y137280D01*
X118836Y137532D01*
X119277Y137296D01*
Y135685D01*
X126183D01*
Y147027D01*
Y158370D01*
D02*
G37*
G36*
X56041Y157091D02*
X50711D01*
Y150185D01*
X56041D01*
Y157091D01*
D02*
G37*
G36*
X49711D02*
X44380D01*
Y150185D01*
X49711D01*
Y157091D01*
D02*
G37*
G36*
X145393Y158524D02*
X143212D01*
Y156342D01*
X145393D01*
Y158524D01*
D02*
G37*
G36*
X152511Y158524D02*
X147149D01*
Y158524D01*
X146393D01*
Y155842D01*
X145894D01*
Y155342D01*
X143212D01*
Y153161D01*
X143465D01*
Y152903D01*
X143465D01*
Y151466D01*
X138411D01*
X137949Y151775D01*
X137018Y151960D01*
Y152095D01*
X137949Y152280D01*
X138738Y152808D01*
X139265Y153597D01*
X139450Y154528D01*
X139265Y155459D01*
X138738Y156248D01*
X137949Y156775D01*
X137018Y156960D01*
X135837D01*
X134906Y156775D01*
X134529Y156524D01*
X134089Y156760D01*
Y158370D01*
X127183D01*
Y147027D01*
Y135685D01*
X133633D01*
Y129807D01*
X133808Y128929D01*
X134305Y128185D01*
X134305Y128185D01*
X134305Y128185D01*
X134305Y128185D01*
Y128185D01*
X139560Y122930D01*
Y122930D01*
D01*
Y122930D01*
X139560Y122930D01*
D01*
D01*
X139560D01*
X139560Y122930D01*
Y122930D01*
X139560Y122930D01*
Y122930D01*
X140305Y122432D01*
X141182Y122258D01*
X142443D01*
Y121871D01*
X148561D01*
Y124553D01*
X149060D01*
Y125052D01*
X151742D01*
Y127035D01*
X151979D01*
Y129051D01*
X152420Y129287D01*
X152857Y128995D01*
X153832Y128801D01*
X154099Y128854D01*
X154325Y128669D01*
Y128669D01*
X159687D01*
Y132606D01*
Y137968D01*
X158809D01*
Y138570D01*
X159451D01*
Y142508D01*
Y147870D01*
X159357D01*
X159318Y147917D01*
X159125Y148892D01*
X158572Y149719D01*
X157745Y150272D01*
X156770Y150466D01*
X155794Y150272D01*
X154967Y149719D01*
X154415Y148892D01*
X154220Y147917D01*
X154182Y147870D01*
X154088D01*
Y142508D01*
Y138570D01*
X154730D01*
Y137968D01*
X154325D01*
Y136997D01*
X152341D01*
Y141758D01*
X152447Y142290D01*
X152491D01*
Y147541D01*
X152764D01*
Y152903D01*
X152764D01*
X152631Y153065D01*
X152632Y153068D01*
X152511Y153674D01*
Y158524D01*
D02*
G37*
G36*
X114500Y124649D02*
X113524Y124455D01*
X112698Y123902D01*
X112145Y123075D01*
X111951Y122100D01*
X112145Y121124D01*
X112698Y120298D01*
X113524Y119745D01*
X114500Y119551D01*
X115475Y119745D01*
X116302Y120298D01*
X116855Y121124D01*
X117049Y122100D01*
X116855Y123075D01*
X116302Y123902D01*
X115475Y124455D01*
X114500Y124649D01*
D02*
G37*
G36*
X102956Y98285D02*
X101980Y98090D01*
X101154Y97538D01*
X100601Y96711D01*
X100407Y95736D01*
X100601Y94760D01*
X101154Y93933D01*
X101980Y93381D01*
X102956Y93186D01*
X103931Y93381D01*
X104758Y93933D01*
X105311Y94760D01*
X105505Y95736D01*
X105311Y96711D01*
X104758Y97538D01*
X103931Y98090D01*
X102956Y98285D01*
D02*
G37*
G36*
X115261Y90817D02*
X113080D01*
Y88636D01*
X115261D01*
Y90817D01*
D02*
G37*
G36*
X42404Y109249D02*
X40223D01*
Y106280D01*
X39431D01*
Y104335D01*
X41612D01*
Y106517D01*
X42404D01*
Y109249D01*
D02*
G37*
G36*
X115590Y98809D02*
X113409D01*
Y96628D01*
X115590D01*
Y98809D01*
D02*
G37*
G36*
X152842Y87491D02*
X150661D01*
Y84522D01*
X152842D01*
Y87491D01*
D02*
G37*
G36*
X149661Y83522D02*
X147480D01*
Y80554D01*
X149661D01*
Y83522D01*
D02*
G37*
G36*
X81072Y83473D02*
X77513D01*
Y80505D01*
X81072D01*
Y83473D01*
D02*
G37*
G36*
X149661Y87491D02*
X147480D01*
Y84522D01*
X149661D01*
Y87491D01*
D02*
G37*
G36*
X152842Y83522D02*
X150661D01*
Y80554D01*
X152842D01*
Y83522D01*
D02*
G37*
G36*
X25407Y109241D02*
X22439D01*
Y105682D01*
X25407D01*
Y109241D01*
D02*
G37*
G36*
X115100Y117249D02*
X114125Y117055D01*
X113298Y116502D01*
X112745Y115675D01*
X112551Y114700D01*
X112745Y113725D01*
X113298Y112898D01*
X114125Y112345D01*
X115100Y112151D01*
X116076Y112345D01*
X116902Y112898D01*
X117455Y113725D01*
X117649Y114700D01*
X117455Y115675D01*
X116902Y116502D01*
X116076Y117055D01*
X115100Y117249D01*
D02*
G37*
G36*
X42404Y113217D02*
X40223D01*
Y110249D01*
X42404D01*
Y113217D01*
D02*
G37*
G36*
X30683Y120658D02*
X27393D01*
Y118471D01*
X27553Y117666D01*
X28009Y116983D01*
X28691Y116528D01*
X29496Y116367D01*
X30683D01*
Y120658D01*
D02*
G37*
G36*
X136500Y119849D02*
X135524Y119655D01*
X134698Y119102D01*
X134145Y118275D01*
X133951Y117300D01*
X134145Y116324D01*
X134698Y115498D01*
X135524Y114945D01*
X136500Y114751D01*
X137476Y114945D01*
X138302Y115498D01*
X138855Y116324D01*
X139049Y117300D01*
X138855Y118275D01*
X138302Y119102D01*
X137476Y119655D01*
X136500Y119849D01*
D02*
G37*
G36*
X39223Y113217D02*
X37042D01*
Y110249D01*
X39223D01*
Y113217D01*
D02*
G37*
G36*
Y109249D02*
X37042D01*
Y106280D01*
X39223D01*
Y109249D01*
D02*
G37*
G36*
X29376Y109241D02*
X26408D01*
Y105682D01*
X29376D01*
Y109241D01*
D02*
G37*
G36*
Y113800D02*
X26408D01*
Y110241D01*
X29376D01*
Y113800D01*
D02*
G37*
G36*
X25407D02*
X22439D01*
Y110241D01*
X25407D01*
Y113800D01*
D02*
G37*
%LPD*%
D10*
X78393Y20550D02*
Y29150D01*
X55626Y23965D02*
Y38179D01*
X135927Y129807D02*
X141182Y124552D01*
X135927Y129807D02*
Y139529D01*
X61810Y68253D02*
Y72529D01*
Y68253D02*
X62050Y68014D01*
Y66092D02*
Y68014D01*
X25294Y48568D02*
X26344Y47518D01*
X28542D01*
X55626Y23965D02*
X58750Y20841D01*
Y20841D02*
X61453D01*
X28542Y36282D02*
Y38856D01*
X15564Y26255D02*
X17844Y23976D01*
Y18747D02*
Y23976D01*
X4406Y42902D02*
X6213Y41096D01*
X20844Y45106D02*
Y48279D01*
X16833Y41096D02*
X20844Y45106D01*
X6213Y41096D02*
X12838D01*
X13660D02*
X16833D01*
X12838D02*
X13660D01*
X141182Y124552D02*
X145124D01*
X135927Y139529D02*
X139671D01*
X72008Y158000D02*
Y163908D01*
X75300Y167200D01*
X95100D01*
X97700Y162485D02*
Y164600D01*
X95100Y167200D02*
X97700Y164600D01*
D11*
X24533Y137136D02*
X25082Y137686D01*
X10552Y137136D02*
X10552Y137136D01*
X5052Y137136D02*
X10552D01*
X92393Y27910D02*
Y29150D01*
X119968Y93055D02*
X126032D01*
X126546Y93568D01*
X115392Y70756D02*
Y76653D01*
X106285Y85759D02*
X115392Y76653D01*
X106285Y88960D02*
X108643Y91317D01*
X106285Y85759D02*
Y88960D01*
X108972Y91647D02*
Y96128D01*
X108643Y91317D02*
X108972Y91647D01*
X104272Y9170D02*
Y12672D01*
X119277Y27677D02*
X124177D01*
X136000Y13332D02*
Y21673D01*
X129996Y27677D02*
X136000Y21673D01*
X124177Y27677D02*
X129996D01*
X104272Y12672D02*
X119277Y27677D01*
X75805Y17571D02*
X87201D01*
X74456Y18920D02*
X75805Y17571D01*
X87201D02*
X99672D01*
X101928Y19827D01*
X92393Y29150D02*
X95796Y25747D01*
X5995Y88512D02*
X6079Y88512D01*
X26533Y34273D02*
X28542Y36282D01*
X5476Y55813D02*
X6279Y55010D01*
Y51708D02*
Y55010D01*
Y51498D02*
Y51603D01*
Y51603D02*
Y51708D01*
X13061Y29882D02*
Y35005D01*
X10552Y137136D02*
X24533D01*
D12*
X59563Y38179D02*
D03*
X55626D02*
D03*
X78393Y20550D02*
D03*
X74456D02*
D03*
X99601Y55096D02*
D03*
X95664D02*
D03*
X95664Y45496D02*
D03*
X99601D02*
D03*
X99538Y50296D02*
D03*
X95601D02*
D03*
X145893Y155842D02*
D03*
X149830Y155842D02*
D03*
X145723Y139654D02*
D03*
X149660D02*
D03*
X150083Y150222D02*
D03*
X146146D02*
D03*
X149810Y144972D02*
D03*
X145873D02*
D03*
X59992Y97047D02*
D03*
X56055D02*
D03*
X56473Y119095D02*
D03*
X60410D02*
D03*
X92308Y97370D02*
D03*
X88371D02*
D03*
X88413Y117539D02*
D03*
X92350D02*
D03*
X76804Y96565D02*
D03*
X72867D02*
D03*
X73848Y117466D02*
D03*
X77785D02*
D03*
X108972Y96128D02*
D03*
X112909D02*
D03*
X45529Y88664D02*
D03*
X41592D02*
D03*
X106285Y72685D02*
D03*
X110222D02*
D03*
X157909Y77222D02*
D03*
X153972D02*
D03*
X150482Y100390D02*
D03*
X154419D02*
D03*
X65961Y55700D02*
D03*
X62024D02*
D03*
X66209Y50547D02*
D03*
X62272D02*
D03*
X35982Y65988D02*
D03*
X32045D02*
D03*
X35982Y59888D02*
D03*
X32045D02*
D03*
X149298Y129716D02*
D03*
X145361D02*
D03*
X145587Y134958D02*
D03*
X149524D02*
D03*
X149061Y124552D02*
D03*
X145124D02*
D03*
X95384Y40998D02*
D03*
X99321D02*
D03*
X95415Y35906D02*
D03*
X99352D02*
D03*
X112580Y91317D02*
D03*
X108643D02*
D03*
X87074Y79024D02*
D03*
X91011D02*
D03*
X46384Y99178D02*
D03*
X42447D02*
D03*
X46049Y103835D02*
D03*
X42112D02*
D03*
X141145Y100045D02*
D03*
X145082D02*
D03*
X143910Y77153D02*
D03*
X139973D02*
D03*
X139936Y13332D02*
D03*
X136000D02*
D03*
X99663Y60427D02*
D03*
X95726D02*
D03*
D16*
X6174Y51603D02*
D03*
Y47666D02*
D03*
X5185Y60035D02*
D03*
Y63972D02*
D03*
X18256Y78238D02*
D03*
Y74301D02*
D03*
X21811Y93870D02*
D03*
Y89933D02*
D03*
X26886Y94118D02*
D03*
Y90181D02*
D03*
X72929Y52029D02*
D03*
Y55966D02*
D03*
X77948Y52070D02*
D03*
Y56007D02*
D03*
X157006Y131350D02*
D03*
Y135287D02*
D03*
X156770Y145189D02*
D03*
Y141252D02*
D03*
X5052Y133200D02*
D03*
Y137136D02*
D03*
X10552Y133200D02*
D03*
Y137136D02*
D03*
D26*
X46209Y48007D02*
D03*
Y42101D02*
D03*
D35*
X106285Y85759D02*
D03*
X116128Y81822D02*
D03*
X106285Y77885D02*
D03*
X11001Y52216D02*
D03*
X20844Y48279D02*
D03*
X11001Y44342D02*
D03*
X10770Y64880D02*
D03*
X20612Y60943D02*
D03*
X10770Y57006D02*
D03*
D41*
X42189Y53916D02*
X43765Y52340D01*
X32691Y55564D02*
X44299D01*
X32479Y43187D02*
Y47518D01*
X142483Y138825D02*
X143312Y139654D01*
X145723D01*
X149061Y129479D02*
X149298Y129716D01*
X149061Y124552D02*
Y129479D01*
X50508Y62368D02*
X53230D01*
X38853Y60828D02*
X48968D01*
X50508Y62368D01*
X37913Y59888D02*
X38853Y60828D01*
X35982Y59888D02*
X37913D01*
X139411Y84289D02*
X148987Y93865D01*
X69661Y52029D02*
X72929D01*
X58166Y58851D02*
X60049Y60735D01*
X58166Y49153D02*
Y58851D01*
Y49153D02*
X60454Y46864D01*
X66209Y46892D02*
Y50547D01*
X28431Y64055D02*
X30364Y65988D01*
X32045D01*
Y59888D02*
Y62574D01*
X44299Y55564D02*
X46028Y53835D01*
X145430Y144529D02*
X145873Y144972D01*
X145452Y149529D02*
X146146Y150222D01*
X158035Y77348D02*
Y84022D01*
X157909Y77222D02*
X158035Y77348D01*
X148987Y93865D02*
X154098D01*
X139411Y82537D02*
Y84289D01*
X135995Y79121D02*
X139411Y82537D01*
X88371Y97370D02*
Y103694D01*
X132136Y79121D02*
X135995D01*
X130483Y80775D02*
X132136Y79121D01*
X130483Y80775D02*
Y83726D01*
X126361Y93754D02*
X126546Y93568D01*
X154419Y94186D02*
Y100390D01*
X56473Y112620D02*
Y119095D01*
X56139Y112286D02*
X56473Y112620D01*
X73848Y112244D02*
Y117466D01*
X73143Y111540D02*
X73848Y112244D01*
X88413Y117539D02*
X88480Y117472D01*
Y112261D02*
Y117472D01*
X17170Y100705D02*
X17566Y101100D01*
X17170Y93333D02*
Y100705D01*
X72971Y56007D02*
X77948D01*
X72929Y55966D02*
X72971Y56007D01*
X72929Y55966D02*
Y58816D01*
X71010Y60735D02*
X72929Y58816D01*
X64018Y60735D02*
X71010D01*
X62024Y60709D02*
X62050Y60735D01*
X62024Y55700D02*
Y60709D01*
Y55700D02*
X62272Y55453D01*
Y50547D02*
Y55453D01*
X35982Y59888D02*
Y65988D01*
X30511Y47518D02*
Y51247D01*
X36416Y47518D02*
X41305D01*
X45720D01*
X46209Y48007D01*
X156418Y57677D02*
X160201D01*
X153249Y60846D02*
X156418Y57677D01*
X89152Y40998D02*
X95384D01*
X85879Y37725D02*
X89152Y40998D01*
X95726Y60427D02*
Y66023D01*
X101834Y72131D01*
X18256Y73824D02*
X25706Y66374D01*
X18256Y73824D02*
Y74301D01*
X13476Y81777D02*
X14937Y80315D01*
X15358Y83659D02*
Y88512D01*
X13476Y81777D02*
X15358Y83659D01*
X8865Y26851D02*
X11818D01*
X6174Y51603D02*
X6279Y51498D01*
X13966Y61549D02*
X17042Y64625D01*
X5185Y63972D02*
X7608Y61549D01*
X13966D01*
X5185Y60035D02*
X7741D01*
X10770Y57006D01*
X17042Y64625D02*
X21674D01*
X29024Y59231D02*
X32691Y55564D01*
X14937Y73317D02*
X29024Y59231D01*
X14937Y73317D02*
Y80315D01*
X21674Y64625D02*
X25435Y60864D01*
X32383Y53916D02*
X42189D01*
X25435Y60864D02*
X32383Y53916D01*
X6279Y51708D02*
X6788Y52216D01*
X6279Y51498D02*
X10283D01*
X6174Y51603D02*
X6279D01*
X6174D02*
X6279Y51708D01*
X10283Y51498D02*
X11001Y52216D01*
X78672Y46864D02*
X81639Y49832D01*
X83805D01*
X89144Y44492D01*
X60454Y46864D02*
X73897D01*
X92289Y44492D02*
X93293Y45496D01*
X89144Y44492D02*
X92289D01*
X93293Y45496D02*
X95664D01*
X73897Y46864D02*
X78672D01*
X126361Y93754D02*
Y100361D01*
X116000Y105900D02*
X119968Y101932D01*
Y93055D02*
Y101932D01*
X100300Y105900D02*
X116000D01*
X88371Y103694D02*
X90576Y105900D01*
X100300D01*
X126361Y100361D02*
X130200Y104200D01*
X144900D01*
X145082Y100045D02*
Y104018D01*
X144900Y104200D02*
X145082Y104018D01*
X144900Y104200D02*
X151300D01*
X155400Y108300D01*
Y121700D01*
X31892Y42600D02*
X32479Y43187D01*
X23400Y42600D02*
X31892D01*
X20935Y40135D02*
X23400Y42600D01*
X20935Y35005D02*
Y40135D01*
X136427Y149528D02*
X141099D01*
X135927Y149529D02*
X136427D01*
X141100D02*
X145452D01*
X141099Y149528D02*
X141100Y149529D01*
X136427Y144528D02*
X139799D01*
X135927Y144529D02*
X136427D01*
X139800D02*
X145430D01*
X139799Y144528D02*
X139800Y144529D01*
D42*
X32111Y89923D02*
X34358Y92169D01*
X32111Y82507D02*
Y89923D01*
X65961Y55700D02*
Y58395D01*
X116128Y81822D02*
X118580Y84274D01*
X110222Y71487D02*
X114258Y67451D01*
X110222Y71487D02*
Y72685D01*
X81017Y108039D02*
Y111540D01*
X79435Y106456D02*
X81017Y108039D01*
X147401Y71023D02*
X151031D01*
X153972Y73965D01*
Y77222D01*
X150083Y153068D02*
Y155590D01*
Y150222D02*
Y153068D01*
X156770Y145189D02*
Y147917D01*
X153832Y131350D02*
X157006D01*
X149830Y155842D02*
X150083Y155590D01*
X149660Y139654D02*
X149810Y139804D01*
X156770Y135523D02*
Y141252D01*
Y135523D02*
X157006Y135287D01*
X156677Y134958D02*
X157006Y135287D01*
X149524Y134958D02*
X156677D01*
X145587Y129942D02*
Y134958D01*
X145361Y129716D02*
X145587Y129942D01*
X141429Y89527D02*
X150482Y98581D01*
Y100390D01*
X125661Y89527D02*
X141429D01*
X135696Y93663D02*
X140037D01*
X122609Y86475D02*
X125661Y89527D01*
X122609Y83726D02*
Y86475D01*
X140310Y77491D02*
Y80112D01*
X140037Y97085D02*
X141145Y98194D01*
Y100045D01*
X140037Y93663D02*
Y97085D01*
X143974Y77217D02*
Y83820D01*
X143910Y77153D02*
X143974Y77217D01*
X139973Y77153D02*
X140310Y77491D01*
X136100Y83820D02*
Y86998D01*
X38230Y98224D02*
X39184Y99178D01*
X42447D01*
X72867Y106130D02*
X77785Y111047D01*
X72867Y96565D02*
Y106130D01*
X77785Y111047D02*
Y117466D01*
X68837Y96565D02*
X72867D01*
X66729Y98672D02*
X68837Y96565D01*
X66729Y98672D02*
Y104146D01*
X63879Y106996D02*
X66729Y104146D01*
X58979Y106996D02*
X63879D01*
X56055Y104073D02*
X58979Y106996D01*
X56055Y97047D02*
Y104073D01*
X77080Y96841D02*
Y101697D01*
X76804Y96565D02*
X77080Y96841D01*
X72773Y123363D02*
X77460D01*
X89237D01*
X77460Y117791D02*
Y123363D01*
Y117791D02*
X77785Y117466D01*
X92350Y117539D02*
Y120250D01*
X89237Y123363D02*
X92350Y120250D01*
X68505Y119095D02*
X72773Y123363D01*
X60410Y119095D02*
X68505D01*
X47597Y105383D02*
Y109749D01*
X46049Y103835D02*
X47597Y105383D01*
X46384Y99178D02*
Y103501D01*
X46049Y103835D02*
X46384Y103501D01*
X33637Y113769D02*
X39459Y119591D01*
X43660D01*
X33637Y97545D02*
Y113769D01*
X92417Y97479D02*
Y102418D01*
X92308Y97370D02*
X92417Y97479D01*
X60076Y97131D02*
Y102443D01*
X59992Y97047D02*
X60076Y97131D01*
X92280Y79024D02*
X93866Y80611D01*
X91011Y79024D02*
X92280D01*
X23936Y82507D02*
X24237D01*
X24087Y82356D02*
X24237Y82507D01*
X37926Y76005D02*
Y82507D01*
X34585Y72664D02*
X37926Y76005D01*
X28174Y72664D02*
X34585D01*
X37926Y82507D02*
Y86545D01*
X40045Y88664D01*
X41592D01*
X99538Y55033D02*
X99601Y55096D01*
X99538Y50296D02*
Y55033D01*
X99372Y50131D02*
X99538Y50296D01*
X99372Y47071D02*
Y50131D01*
X93502Y55096D02*
X94090D01*
X95664D01*
X91608Y53203D02*
X93502Y55096D01*
X91608Y49863D02*
Y53203D01*
X93796Y54802D02*
X94090Y55096D01*
X21811Y89933D02*
X22059Y90181D01*
X26886D01*
X17326Y88512D02*
X18413D01*
X19834Y89933D01*
X21811D01*
X22026Y89396D02*
X22301Y89672D01*
X18256Y78238D02*
Y80599D01*
X20163Y82507D01*
X23936D01*
X24087Y82356D01*
X13393Y24196D02*
Y26851D01*
X10363Y18747D02*
Y21166D01*
X13393Y28426D02*
Y29550D01*
X15878Y59063D02*
X17758Y60943D01*
X20612D01*
X13061Y29882D02*
X13393Y29550D01*
X11001Y44342D02*
X13490D01*
X15878Y46730D01*
Y59063D01*
X6174Y47666D02*
X7678D01*
X11001Y44342D01*
X77948Y49397D02*
Y52070D01*
X95601Y50296D02*
Y53585D01*
X94090Y55096D02*
X95601Y53585D01*
X89512Y35906D02*
X90778D01*
X95415D01*
X88654D02*
X90778D01*
X26886Y94118D02*
Y99654D01*
X25440Y101100D02*
X26886Y99654D01*
X25440Y101100D02*
X30097D01*
X11298Y93869D02*
X13358D01*
X9531Y92102D02*
X11298Y93869D01*
X7331Y92102D02*
X9531D01*
X6433Y93000D02*
X7331Y92102D01*
X14968Y28426D02*
X20935Y34393D01*
Y35005D01*
X56245Y93300D02*
X59992Y97047D01*
X52200Y93300D02*
X56245D01*
X50618Y91718D02*
X52200Y93300D01*
X50618Y84900D02*
Y91718D01*
X142084Y129716D02*
X145361D01*
X141900Y129900D02*
X142084Y129716D01*
X85000Y152000D02*
Y158000D01*
X89279Y147721D02*
X97700D01*
X85000Y152000D02*
X89279Y147721D01*
X76338Y158000D02*
Y161838D01*
X92136Y157564D02*
X97700D01*
X76338Y161838D02*
X77300Y162800D01*
X86900D01*
X92136Y157564D01*
X85000Y142800D02*
X97700D01*
X80669Y147131D02*
Y158000D01*
Y147131D02*
X85000Y142800D01*
X87900Y86000D02*
X92308Y90408D01*
Y97370D01*
X76804Y87496D02*
Y96565D01*
Y87496D02*
X76900Y87400D01*
X96354Y112261D02*
X104561D01*
X107600Y115300D01*
X109800Y130100D02*
X115600D01*
X107600Y127900D02*
X109800Y130100D01*
X107600Y115300D02*
Y127900D01*
X72867Y94267D02*
Y96565D01*
X68500Y86800D02*
Y89900D01*
X72867Y94267D01*
X56400Y107200D02*
X61486Y112286D01*
X64013D01*
X149810Y139804D02*
Y144972D01*
X55100Y107200D02*
X56400D01*
X113283Y149528D02*
X116939D01*
X113282Y149529D02*
X113283Y149528D01*
X113629Y144528D02*
X116939D01*
X113628Y144529D02*
X113629Y144528D01*
D43*
X34667Y47737D02*
Y51110D01*
X34448Y47518D02*
X34667Y47737D01*
X39638Y38856D02*
X42443Y36052D01*
X36416Y38856D02*
X39638D01*
X34448D02*
X36416D01*
X38119Y35793D02*
X39984Y33928D01*
X34021Y35793D02*
X38119D01*
X32479Y37335D02*
X34021Y35793D01*
X32479Y37335D02*
Y38856D01*
X10630Y5906D02*
G03*
X10630Y5906I-4724J0D01*
G01*
X168110Y163386D02*
G03*
X168110Y163386I-4724J0D01*
G01*
X10630D02*
G03*
X10630Y163386I-4724J0D01*
G01*
X168110Y5906D02*
G03*
X168110Y5906I-4724J0D01*
G01*
X0Y-74D02*
X169291Y-0D01*
Y169291D01*
X-0D02*
X0Y0D01*
X-0Y169291D02*
X169291D01*
X168484Y168484D02*
X169291Y169291D01*
D44*
X99352Y35906D02*
Y40967D01*
X153213Y22677D02*
X160201D01*
X153099Y22792D02*
X153213Y22677D01*
X152779Y27677D02*
X160201D01*
X124177Y57677D02*
X129867D01*
X124177Y52677D02*
X129867D01*
X124177Y32677D02*
X130452D01*
X132200Y34426D01*
Y40845D01*
X99352Y35906D02*
X101158D01*
X102678Y37426D01*
X9776Y30469D02*
X11818Y28426D01*
D46*
X147600Y79300D02*
D03*
X149900Y90000D02*
D03*
X161200Y125500D02*
D03*
X165100Y133800D02*
D03*
X165500Y139800D02*
D03*
Y145900D02*
D03*
X156700Y158300D02*
D03*
X110100Y157100D02*
D03*
X118800Y130600D02*
D03*
X96900Y82200D02*
D03*
X92000Y84500D02*
D03*
X20000Y86300D02*
D03*
X24200Y72100D02*
D03*
X33800Y144200D02*
D03*
X38100Y123200D02*
D03*
X104800Y19800D02*
D03*
X106800Y4300D02*
D03*
X101500Y4200D02*
D03*
X115600Y38500D02*
D03*
X163300Y16600D02*
D03*
X156100Y15600D02*
D03*
X148300Y15200D02*
D03*
X156900Y65000D02*
D03*
X114700Y45400D02*
D03*
X104700Y62900D02*
D03*
X114100Y56800D02*
D03*
X113400Y63200D02*
D03*
X96100Y76200D02*
D03*
X136400Y69600D02*
D03*
X122400Y67300D02*
D03*
X126300Y71700D02*
D03*
X140300Y72400D02*
D03*
X164500Y74800D02*
D03*
X158700Y71300D02*
D03*
X153400Y69100D02*
D03*
X149300Y75600D02*
D03*
X163100Y96400D02*
D03*
X162000Y102300D02*
D03*
X160600Y119300D02*
D03*
X163700Y123600D02*
D03*
X119000Y109400D02*
D03*
X119100Y121800D02*
D03*
X126683Y147028D02*
D03*
X111600Y162300D02*
D03*
X8000Y119800D02*
D03*
X4000Y120500D02*
D03*
X4600Y127500D02*
D03*
X7800Y147300D02*
D03*
X4400Y151000D02*
D03*
X9000Y152200D02*
D03*
X11600Y147900D02*
D03*
X11200Y143100D02*
D03*
X6000Y142600D02*
D03*
X42300Y158300D02*
D03*
X30700Y111700D02*
D03*
X27000Y115600D02*
D03*
X36800Y101500D02*
D03*
X30600Y94800D02*
D03*
X58300Y79500D02*
D03*
X62100Y83500D02*
D03*
X56700Y83600D02*
D03*
X53100Y80900D02*
D03*
X40600Y76700D02*
D03*
X26400Y77500D02*
D03*
X27800Y55200D02*
D03*
X24100Y56200D02*
D03*
X20300Y10200D02*
D03*
X26100Y16200D02*
D03*
X16000Y6200D02*
D03*
X3900Y16600D02*
D03*
X66300Y16400D02*
D03*
X52500Y20900D02*
D03*
X72900Y42400D02*
D03*
X77400Y38700D02*
D03*
X71300Y32400D02*
D03*
X30511Y43187D02*
D03*
X34358Y92169D02*
D03*
X12429Y111765D02*
D03*
X4287Y111562D02*
D03*
X3542Y79562D02*
D03*
X13384Y101957D02*
D03*
X65961Y58395D02*
D03*
X38080Y70252D02*
D03*
X101455Y58908D02*
D03*
X58219Y70307D02*
D03*
X70607Y24702D02*
D03*
X118580Y84274D02*
D03*
X114258Y67451D02*
D03*
X91608Y49863D02*
D03*
X91870Y24557D02*
D03*
X43628Y63301D02*
D03*
X66209Y46892D02*
D03*
X97516Y9352D02*
D03*
X69627Y51995D02*
D03*
X85879Y37725D02*
D03*
X95796Y24507D02*
D03*
X91196Y3032D02*
D03*
X61924Y3847D02*
D03*
X71634Y28068D02*
D03*
X144102Y6386D02*
D03*
X83903Y40225D02*
D03*
X83491Y44406D02*
D03*
X83519Y46995D02*
D03*
X89754Y47212D02*
D03*
X78379Y8816D02*
D03*
X138988Y17929D02*
D03*
X153099Y22792D02*
D03*
X152779Y27677D02*
D03*
X81499Y8756D02*
D03*
X86633Y7951D02*
D03*
X72912Y39585D02*
D03*
X71656Y10270D02*
D03*
X68396Y35742D02*
D03*
X28431Y64055D02*
D03*
X32045Y62574D02*
D03*
X48898Y38348D02*
D03*
X47484Y36149D02*
D03*
X102956Y95736D02*
D03*
X46746Y56803D02*
D03*
X25706Y66374D02*
D03*
X43765Y52340D02*
D03*
X46028Y53835D02*
D03*
X16006Y43885D02*
D03*
X10364Y84148D02*
D03*
X6260Y84789D02*
D03*
X13437Y106943D02*
D03*
X9822Y102129D02*
D03*
X99372Y47071D02*
D03*
X102678Y37426D02*
D03*
X111090Y67028D02*
D03*
X106215Y67453D02*
D03*
X113628Y144529D02*
D03*
X150083Y153068D02*
D03*
X149900Y142300D02*
D03*
X156770Y147917D02*
D03*
X113282Y149529D02*
D03*
X89379Y22252D02*
D03*
X137514Y26845D02*
D03*
X135561Y93736D02*
D03*
X140310Y80112D02*
D03*
X136265Y87164D02*
D03*
X100108Y81140D02*
D03*
X88084Y49773D02*
D03*
X38230Y98224D02*
D03*
X76900Y87400D02*
D03*
X89320Y57652D02*
D03*
X87900Y86000D02*
D03*
X87343Y23939D02*
D03*
X79435Y106456D02*
D03*
X50618Y84900D02*
D03*
X104338Y53413D02*
D03*
X114495Y49503D02*
D03*
X115392Y70756D02*
D03*
X93866Y80611D02*
D03*
X30511Y51247D02*
D03*
X34667Y51110D02*
D03*
X41305Y47518D02*
D03*
X41994Y58309D02*
D03*
X42443Y36052D02*
D03*
X39984Y33928D02*
D03*
X153249Y60846D02*
D03*
X129867Y57677D02*
D03*
X129867Y52677D02*
D03*
X132200Y40845D02*
D03*
X104144Y46903D02*
D03*
X87157Y55227D02*
D03*
X101928Y19827D02*
D03*
X8865Y26851D02*
D03*
X3131Y48248D02*
D03*
X20951Y57471D02*
D03*
X9091Y69358D02*
D03*
X67768Y3626D02*
D03*
X138516Y6272D02*
D03*
X77948Y49397D02*
D03*
X88654Y35906D02*
D03*
X30097Y101100D02*
D03*
X6433Y93000D02*
D03*
X9776Y30469D02*
D03*
X2654Y36480D02*
D03*
X42598Y4429D02*
D03*
X38200Y142900D02*
D03*
X38400Y138500D02*
D03*
X38715Y134315D02*
D03*
X153832Y131350D02*
D03*
X141900Y129900D02*
D03*
X139671Y139529D02*
D03*
X146200Y114900D02*
D03*
X136500Y117300D02*
D03*
X141767Y161800D02*
D03*
X147633D02*
D03*
X112600Y104000D02*
D03*
X115131Y108331D02*
D03*
X147401Y71023D02*
D03*
X56300Y130100D02*
D03*
Y124800D02*
D03*
X151600Y115900D02*
D03*
X115100Y114700D02*
D03*
X155400Y121700D02*
D03*
X139600Y106600D02*
D03*
X33637Y97545D02*
D03*
X72400Y86900D02*
D03*
X115600Y130100D02*
D03*
X52600Y121400D02*
D03*
X114500Y122100D02*
D03*
X133900Y101900D02*
D03*
X135900Y166000D02*
D03*
X68500Y86800D02*
D03*
X55100Y107200D02*
D03*
X62700Y144500D02*
D03*
X67600Y137200D02*
D03*
X72900Y136600D02*
D03*
X66700Y132200D02*
D03*
X72700Y132400D02*
D03*
X91300Y124900D02*
D03*
X61100Y115900D02*
D03*
X142483Y138825D02*
D03*
D47*
X28676Y7881D02*
D03*
X10542Y88525D02*
D03*
X53208Y66872D02*
D03*
X23334Y25089D02*
D03*
X47430Y19901D02*
D03*
X25294Y51463D02*
D03*
X41118Y28546D02*
D03*
D48*
X17100Y131200D02*
D03*
Y135500D02*
D03*
X16900Y140100D02*
D03*
X104272Y9170D02*
D03*
X61453Y20841D02*
D03*
X120500Y72600D02*
D03*
X119968Y93055D02*
D03*
X102067Y72364D02*
D03*
X44881Y69646D02*
D03*
X43075Y82941D02*
D03*
X6406Y29760D02*
D03*
X12941Y30915D02*
D03*
X5476Y55813D02*
D03*
X20067Y29100D02*
D03*
X63100Y88200D02*
D03*
X59300Y88300D02*
D03*
X55100Y88200D02*
D03*
X85000Y158000D02*
D03*
X80669D02*
D03*
X76338D02*
D03*
X72008D02*
D03*
D49*
X35085Y31690D02*
X35306D01*
X41118Y28546D02*
X47846D01*
X35306Y31690D02*
X38449Y28546D01*
X30343Y22873D02*
X36663Y16553D01*
X37006Y16210D01*
Y5939D02*
Y16210D01*
X36663D02*
Y16553D01*
D50*
X53208Y66872D02*
Y71407D01*
X54330Y72529D01*
X53208Y62390D02*
Y66872D01*
Y62390D02*
X53230Y62368D01*
X25294Y48568D02*
Y51463D01*
X47430Y13831D02*
Y19901D01*
X5995Y88512D02*
X5996Y88512D01*
X6079D01*
X47715Y5334D02*
Y13546D01*
X47430Y13831D02*
X47715Y13546D01*
X26533Y34273D02*
Y34334D01*
X27145Y34947D01*
X17844Y18747D02*
X23334Y24237D01*
X26533Y27436D02*
Y34273D01*
X23334Y24237D02*
Y25089D01*
Y24237D02*
X26533Y27436D01*
X6079Y88512D02*
X11917D01*
D51*
X41863Y72664D02*
X44881Y69646D01*
X45529Y82778D02*
Y88664D01*
X43075Y82941D02*
X45366D01*
X106285Y72685D02*
Y76582D01*
Y77885D01*
X102067Y72364D02*
X106285Y76582D01*
X56790Y9191D02*
X61430Y13831D01*
X56790Y5133D02*
Y9191D01*
X10363Y21166D02*
X13393Y24196D01*
X77013Y72131D02*
X101834D01*
X122609Y74709D02*
Y83726D01*
X121136Y73236D02*
X122609Y74709D01*
D52*
X97700Y162485D02*
D03*
Y157564D02*
D03*
Y152643D02*
D03*
X97700Y147721D02*
D03*
X97700Y142800D02*
D03*
D53*
X85889Y130005D02*
D03*
Y175280D02*
D03*
D54*
X92393Y29150D02*
D03*
X78393Y29150D02*
D03*
D55*
X47597Y109749D02*
D03*
X43660Y119591D02*
D03*
X39723Y109749D02*
D03*
X81017Y111540D02*
D03*
X77080Y101697D02*
D03*
X73143Y111540D02*
D03*
X96354Y112261D02*
D03*
X92417Y102418D02*
D03*
X88480Y112261D02*
D03*
X64013Y112286D02*
D03*
X60076Y102443D02*
D03*
X56139Y112286D02*
D03*
X45800Y82507D02*
D03*
X41863Y72664D02*
D03*
X37926Y82507D02*
D03*
X32111D02*
D03*
X28174Y72664D02*
D03*
X24237Y82507D02*
D03*
X150161Y84022D02*
D03*
X154098Y93865D02*
D03*
X158035Y84022D02*
D03*
X122609Y83726D02*
D03*
X126546Y93568D02*
D03*
X130483Y83726D02*
D03*
X30343Y22873D02*
D03*
X34280Y32715D02*
D03*
X38217Y22873D02*
D03*
X136100Y83820D02*
D03*
X140037Y93663D02*
D03*
X143974Y83820D02*
D03*
D56*
X63595Y28546D02*
D03*
X47846D02*
D03*
D57*
X10692Y78993D02*
D03*
X13476Y81777D02*
D03*
D58*
X87201Y17571D02*
D03*
Y11671D02*
D03*
D59*
X47715Y5334D02*
D03*
X56790Y5133D02*
D03*
X36663Y5596D02*
D03*
X28651Y6008D02*
D03*
D60*
X24620Y157591D02*
D03*
X50211D02*
D03*
X25082Y137686D02*
D03*
X50673D02*
D03*
D61*
X17183Y121158D02*
D03*
X31183D02*
D03*
X47430Y13831D02*
D03*
X61430D02*
D03*
D62*
X116939Y139528D02*
D03*
Y144528D02*
D03*
Y149528D02*
D03*
Y154528D02*
D03*
X136427D02*
D03*
Y149528D02*
D03*
Y144528D02*
D03*
Y139528D02*
D03*
D63*
X126683Y147028D02*
D03*
D64*
X124177Y22677D02*
D03*
X124177Y27677D02*
D03*
X124177Y32677D02*
D03*
X124177Y37677D02*
D03*
X124177Y42677D02*
D03*
X124177Y47677D02*
D03*
X124177Y52677D02*
D03*
X124177Y57677D02*
D03*
X160201Y22677D02*
D03*
Y27677D02*
D03*
X160201Y32677D02*
D03*
X160201Y37677D02*
D03*
Y42677D02*
D03*
Y47677D02*
D03*
Y52677D02*
D03*
Y57677D02*
D03*
D65*
X32479Y43187D02*
D03*
D66*
X28542Y38856D02*
D03*
X30511Y38856D02*
D03*
X32479D02*
D03*
X34448Y38856D02*
D03*
X36416D02*
D03*
Y47518D02*
D03*
X34448D02*
D03*
X32479Y47518D02*
D03*
X30511D02*
D03*
X28542Y47518D02*
D03*
D67*
X69201Y79677D02*
D03*
Y71803D02*
D03*
X77013Y80005D02*
D03*
Y72131D02*
D03*
X53230Y54494D02*
D03*
Y62368D02*
D03*
D68*
X64018Y66092D02*
D03*
X62050D02*
D03*
X60049Y66092D02*
D03*
X62050Y60735D02*
D03*
X64018D02*
D03*
X60049Y60735D02*
D03*
X17326Y93869D02*
D03*
X15358D02*
D03*
X13358Y93869D02*
D03*
X15358Y88512D02*
D03*
X17326Y88512D02*
D03*
X13358D02*
D03*
D69*
X54330Y72529D02*
D03*
X61810D02*
D03*
X10363Y18747D02*
D03*
X17844D02*
D03*
D70*
X25440Y101100D02*
D03*
X17566D02*
D03*
X25907Y109741D02*
D03*
X18033D02*
D03*
X20935Y35005D02*
D03*
X13061Y35005D02*
D03*
D71*
X6079Y88475D02*
D03*
X6079Y95955D02*
D03*
D72*
X11818Y26851D02*
D03*
X11818Y28426D02*
D03*
X13393Y26851D02*
D03*
Y28426D02*
D03*
X14968Y26851D02*
D03*
Y28426D02*
D03*
D73*
X4406Y42902D02*
D03*
X4317Y36483D02*
D03*
X4058Y22143D02*
D03*
X4272Y29740D02*
D03*
D74*
X34269Y43100D02*
D03*
M02*
