%FSLAX25Y25*%
%MOIN*%
G70*
G01*
G75*
G04 Layer_Color=32896*
%ADD10O,0.06299X0.01181*%
%ADD11R,0.06299X0.01181*%
%ADD12O,0.01181X0.06299*%
%ADD13R,0.05000X0.06000*%
%ADD14R,0.03347X0.02756*%
%ADD15R,0.02756X0.03347*%
%ADD16R,0.03937X0.05118*%
%ADD17R,0.10630X0.03937*%
%ADD18R,0.03543X0.02126*%
%ADD19R,0.01969X0.06299*%
%ADD20R,0.14410X0.07874*%
%ADD21R,0.14410X0.09843*%
%ADD22R,0.21654X0.05630*%
%ADD23R,0.03937X0.10630*%
%ADD24R,0.20866X0.11024*%
%ADD25R,0.05118X0.03937*%
%ADD26R,0.09843X0.15748*%
%ADD27R,0.08661X0.07087*%
%ADD28O,0.09843X0.05906*%
%ADD29R,0.10000X0.07500*%
%ADD30R,0.02126X0.03543*%
%ADD31R,0.06299X0.01969*%
%ADD32R,0.07874X0.14410*%
%ADD33R,0.09843X0.14410*%
%ADD34R,0.02559X0.05315*%
%ADD35R,0.09449X0.08268*%
%ADD36O,0.03543X0.01969*%
%ADD37O,0.03543X0.01969*%
%ADD38R,0.03543X0.01969*%
%ADD39R,0.02362X0.03937*%
%ADD40R,0.03937X0.02362*%
%ADD41C,0.03000*%
%ADD42C,0.00800*%
%ADD43C,0.01000*%
%ADD44C,0.01500*%
%ADD45C,0.04000*%
%ADD46C,0.03500*%
%ADD47C,0.06000*%
%ADD48C,0.01200*%
%ADD49C,0.02000*%
%ADD50C,0.10000*%
%ADD51C,0.08000*%
%ADD52C,0.05000*%
%ADD53R,0.07300X0.29900*%
%ADD54R,0.18900X0.05200*%
%ADD55R,0.04000X0.18600*%
%ADD56R,0.10200X0.04900*%
%ADD57R,0.12367X0.05271*%
%ADD58R,0.44271X0.10500*%
%ADD59R,0.07400X0.15300*%
%ADD60R,0.28371X0.07471*%
%ADD61R,0.10722X0.08773*%
%ADD62R,0.08600X0.43171*%
%ADD63R,0.06400X0.08900*%
%ADD64R,0.10871X0.13938*%
%ADD65R,0.10571X0.09351*%
%ADD66R,0.24300X1.56600*%
%ADD67R,0.50200X0.62200*%
%ADD68R,0.24100X0.17400*%
%ADD69R,0.25624X0.17093*%
%ADD70R,0.23600X0.17400*%
%ADD71C,0.05906*%
%ADD72C,0.12205*%
%ADD73O,0.06000X0.10000*%
%ADD74R,0.06000X0.10000*%
%ADD75O,0.11811X0.09843*%
%ADD76R,0.11811X0.09843*%
%ADD77O,0.05906X0.09843*%
%ADD78R,0.05906X0.09843*%
%ADD79R,0.09843X0.11811*%
%ADD80O,0.09843X0.11811*%
%ADD81R,0.05906X0.05906*%
%ADD82C,0.06693*%
%ADD83C,0.05500*%
%ADD84O,0.07874X0.15748*%
%ADD85C,0.05512*%
%ADD86C,0.03000*%
%ADD87C,0.02000*%
%ADD88C,0.04000*%
%ADD89O,0.05500X0.02500*%
%ADD90R,0.05500X0.02500*%
%ADD91C,0.27559*%
%ADD92O,0.08661X0.02362*%
%ADD93O,0.01181X0.02756*%
%ADD94O,0.02756X0.01181*%
%ADD95R,0.13386X0.07087*%
%ADD96R,0.05200X0.25200*%
%ADD97R,0.18000X0.06400*%
%ADD98R,0.04000X0.22000*%
%ADD99R,0.09100X0.04600*%
%ADD100R,0.18400X0.60700*%
%ADD101R,0.24600X1.31200*%
%ADD102R,0.50100X0.62100*%
%ADD103C,0.00394*%
%ADD104C,0.00500*%
%ADD105C,0.00787*%
%ADD106C,0.00591*%
%ADD107R,0.04724X0.02756*%
%ADD108R,0.01968X0.03543*%
%ADD109R,0.23900X1.76759*%
%ADD110O,0.07099X0.01981*%
%ADD111R,0.07099X0.01981*%
%ADD112O,0.01981X0.07099*%
%ADD113R,0.05800X0.06800*%
%ADD114R,0.04147X0.03556*%
%ADD115R,0.03556X0.04147*%
%ADD116R,0.04737X0.05918*%
%ADD117R,0.11430X0.04737*%
%ADD118R,0.04343X0.02926*%
%ADD119R,0.02769X0.07099*%
%ADD120R,0.15210X0.08674*%
%ADD121R,0.15210X0.10642*%
%ADD122R,0.22453X0.06430*%
%ADD123R,0.04737X0.11430*%
%ADD124R,0.21666X0.11824*%
%ADD125R,0.05918X0.04737*%
%ADD126R,0.10642X0.16548*%
%ADD127R,0.09461X0.07887*%
%ADD128O,0.10642X0.06706*%
%ADD129R,0.10800X0.08300*%
%ADD130R,0.02926X0.04343*%
%ADD131R,0.07099X0.02769*%
%ADD132R,0.08674X0.15210*%
%ADD133R,0.10642X0.15210*%
%ADD134R,0.03359X0.06115*%
%ADD135R,0.10249X0.09068*%
%ADD136O,0.04343X0.02769*%
%ADD137O,0.04343X0.02769*%
%ADD138R,0.04343X0.02769*%
%ADD139R,0.03162X0.04737*%
%ADD140R,0.04737X0.03162*%
%ADD141C,0.06706*%
%ADD142C,0.13005*%
%ADD143O,0.06800X0.10800*%
%ADD144R,0.06800X0.10800*%
%ADD145O,0.12611X0.10642*%
%ADD146R,0.12611X0.10642*%
%ADD147O,0.06706X0.10642*%
%ADD148R,0.06706X0.10642*%
%ADD149R,0.10642X0.12611*%
%ADD150O,0.10642X0.12611*%
%ADD151R,0.06706X0.06706*%
%ADD152C,0.07493*%
%ADD153C,0.06300*%
%ADD154O,0.08674X0.16548*%
%ADD155C,0.06312*%
%ADD156R,0.26300X0.08900*%
%ADD157R,0.11700X0.26700*%
%ADD158R,0.15700X0.26800*%
%ADD159R,1.11500X0.07500*%
%ADD160R,0.24600X1.77500*%
%ADD161O,0.06300X0.03300*%
%ADD162R,0.06300X0.03300*%
%ADD163C,0.28359*%
%ADD164O,0.09461X0.03162*%
%ADD165O,0.01981X0.03556*%
%ADD166O,0.03556X0.01981*%
%ADD167R,0.14186X0.07887*%
%ADD168C,0.02362*%
%ADD169C,0.00984*%
G36*
X97352Y-128950D02*
X97508Y-128969D01*
X97655Y-129004D01*
X97718Y-129023D01*
X97777Y-129038D01*
X97830Y-129057D01*
X97879Y-129077D01*
X97923Y-129091D01*
X97957Y-129111D01*
X97982Y-129121D01*
X98006Y-129130D01*
X98016Y-129140D01*
X98021D01*
X98089Y-129179D01*
X98148Y-129223D01*
X98265Y-129316D01*
X98357Y-129413D01*
X98440Y-129511D01*
X98499Y-129604D01*
X98523Y-129638D01*
X98548Y-129672D01*
X98563Y-129701D01*
X98572Y-129721D01*
X98582Y-129736D01*
Y-129741D01*
X98645Y-129892D01*
X98694Y-130048D01*
X98728Y-130194D01*
X98753Y-130331D01*
X98763Y-130389D01*
X98767Y-130443D01*
X98772Y-130492D01*
Y-130536D01*
X98777Y-130570D01*
Y-130595D01*
Y-130609D01*
Y-130614D01*
X98767Y-130785D01*
X98748Y-130946D01*
X98714Y-131092D01*
X98699Y-131161D01*
X98680Y-131219D01*
X98660Y-131278D01*
X98645Y-131326D01*
X98626Y-131370D01*
X98611Y-131405D01*
X98602Y-131434D01*
X98592Y-131453D01*
X98582Y-131468D01*
Y-131473D01*
X98499Y-131605D01*
X98406Y-131722D01*
X98314Y-131824D01*
X98216Y-131907D01*
X98133Y-131971D01*
X98099Y-131995D01*
X98065Y-132015D01*
X98040Y-132034D01*
X98016Y-132044D01*
X98006Y-132049D01*
X98001Y-132054D01*
X97855Y-132122D01*
X97704Y-132171D01*
X97562Y-132205D01*
X97425Y-132229D01*
X97367Y-132239D01*
X97313Y-132244D01*
X97264Y-132249D01*
X97220D01*
X97186Y-132254D01*
X97142D01*
X97016Y-132249D01*
X96889Y-132234D01*
X96776Y-132215D01*
X96674Y-132190D01*
X96630Y-132181D01*
X96586Y-132171D01*
X96552Y-132161D01*
X96523Y-132151D01*
X96498Y-132141D01*
X96479Y-132137D01*
X96469Y-132132D01*
X96464D01*
X96342Y-132078D01*
X96220Y-132019D01*
X96113Y-131956D01*
X96015Y-131897D01*
X95932Y-131839D01*
X95898Y-131819D01*
X95869Y-131795D01*
X95844Y-131780D01*
X95830Y-131766D01*
X95820Y-131761D01*
X95815Y-131756D01*
Y-130565D01*
X97172D01*
Y-130941D01*
X96230D01*
Y-131546D01*
X96288Y-131590D01*
X96352Y-131634D01*
X96415Y-131673D01*
X96479Y-131707D01*
X96537Y-131736D01*
X96586Y-131756D01*
X96606Y-131766D01*
X96620Y-131771D01*
X96625Y-131775D01*
X96630D01*
X96728Y-131810D01*
X96825Y-131834D01*
X96918Y-131853D01*
X96996Y-131863D01*
X97064Y-131873D01*
X97118Y-131878D01*
X97167D01*
X97284Y-131873D01*
X97396Y-131858D01*
X97494Y-131834D01*
X97587Y-131810D01*
X97660Y-131785D01*
X97694Y-131771D01*
X97718Y-131761D01*
X97738Y-131756D01*
X97752Y-131746D01*
X97762Y-131741D01*
X97767D01*
X97865Y-131683D01*
X97952Y-131614D01*
X98026Y-131541D01*
X98084Y-131473D01*
X98128Y-131409D01*
X98162Y-131361D01*
X98177Y-131341D01*
X98187Y-131326D01*
X98192Y-131317D01*
Y-131312D01*
X98240Y-131195D01*
X98274Y-131078D01*
X98304Y-130956D01*
X98318Y-130839D01*
X98323Y-130790D01*
X98328Y-130741D01*
X98333Y-130697D01*
Y-130663D01*
X98338Y-130629D01*
Y-130609D01*
Y-130595D01*
Y-130590D01*
X98333Y-130463D01*
X98318Y-130341D01*
X98299Y-130233D01*
X98274Y-130136D01*
X98255Y-130058D01*
X98245Y-130024D01*
X98235Y-129999D01*
X98226Y-129975D01*
X98221Y-129960D01*
X98216Y-129950D01*
Y-129945D01*
X98187Y-129882D01*
X98157Y-129823D01*
X98123Y-129770D01*
X98089Y-129721D01*
X98060Y-129682D01*
X98035Y-129653D01*
X98021Y-129633D01*
X98016Y-129628D01*
X97962Y-129575D01*
X97909Y-129531D01*
X97850Y-129492D01*
X97796Y-129457D01*
X97747Y-129428D01*
X97708Y-129409D01*
X97684Y-129399D01*
X97674Y-129394D01*
X97591Y-129365D01*
X97508Y-129340D01*
X97421Y-129326D01*
X97342Y-129311D01*
X97274Y-129306D01*
X97220Y-129301D01*
X97172D01*
X97084Y-129306D01*
X97001Y-129316D01*
X96928Y-129331D01*
X96864Y-129345D01*
X96811Y-129360D01*
X96767Y-129375D01*
X96742Y-129384D01*
X96732Y-129389D01*
X96659Y-129423D01*
X96601Y-129457D01*
X96547Y-129497D01*
X96503Y-129531D01*
X96469Y-129565D01*
X96444Y-129589D01*
X96430Y-129609D01*
X96425Y-129614D01*
X96386Y-129672D01*
X96352Y-129736D01*
X96323Y-129799D01*
X96298Y-129858D01*
X96279Y-129916D01*
X96259Y-129960D01*
X96254Y-129989D01*
X96249Y-129994D01*
Y-129999D01*
X95864Y-129892D01*
X95898Y-129775D01*
X95937Y-129672D01*
X95976Y-129584D01*
X96015Y-129511D01*
X96054Y-129448D01*
X96083Y-129404D01*
X96103Y-129379D01*
X96108Y-129370D01*
X96171Y-129296D01*
X96244Y-129238D01*
X96318Y-129184D01*
X96391Y-129140D01*
X96454Y-129101D01*
X96503Y-129077D01*
X96523Y-129067D01*
X96537Y-129062D01*
X96547Y-129057D01*
X96552D01*
X96659Y-129018D01*
X96767Y-128989D01*
X96874Y-128969D01*
X96967Y-128955D01*
X97050Y-128945D01*
X97089D01*
X97118Y-128940D01*
X97176D01*
X97352Y-128950D01*
D02*
G37*
G36*
X97467Y-117845D02*
X97589Y-117860D01*
X97701Y-117884D01*
X97804Y-117909D01*
X97901Y-117947D01*
X97994Y-117982D01*
X98077Y-118026D01*
X98155Y-118065D01*
X98223Y-118109D01*
X98282Y-118152D01*
X98331Y-118187D01*
X98374Y-118221D01*
X98409Y-118250D01*
X98433Y-118274D01*
X98448Y-118289D01*
X98453Y-118294D01*
X98526Y-118382D01*
X98594Y-118475D01*
X98648Y-118577D01*
X98697Y-118679D01*
X98741Y-118782D01*
X98775Y-118885D01*
X98799Y-118987D01*
X98823Y-119085D01*
X98843Y-119182D01*
X98853Y-119265D01*
X98862Y-119343D01*
X98872Y-119412D01*
Y-119465D01*
X98877Y-119509D01*
Y-119534D01*
Y-119543D01*
X98867Y-119699D01*
X98848Y-119846D01*
X98819Y-119983D01*
X98804Y-120041D01*
X98785Y-120100D01*
X98770Y-120153D01*
X98755Y-120202D01*
X98741Y-120241D01*
X98726Y-120275D01*
X98711Y-120305D01*
X98706Y-120324D01*
X98697Y-120339D01*
Y-120344D01*
X98619Y-120475D01*
X98536Y-120597D01*
X98443Y-120695D01*
X98355Y-120783D01*
X98277Y-120851D01*
X98243Y-120876D01*
X98213Y-120900D01*
X98189Y-120915D01*
X98170Y-120929D01*
X98160Y-120934D01*
X98155Y-120939D01*
X98087Y-120978D01*
X98018Y-121007D01*
X97877Y-121061D01*
X97740Y-121100D01*
X97618Y-121124D01*
X97560Y-121134D01*
X97506Y-121144D01*
X97462Y-121149D01*
X97423D01*
X97389Y-121154D01*
X97345D01*
X97194Y-121144D01*
X97047Y-121124D01*
X96915Y-121090D01*
X96803Y-121056D01*
X96750Y-121037D01*
X96706Y-121022D01*
X96667Y-121002D01*
X96632Y-120988D01*
X96603Y-120978D01*
X96584Y-120968D01*
X96574Y-120958D01*
X96569D01*
X96442Y-120876D01*
X96330Y-120783D01*
X96232Y-120685D01*
X96154Y-120592D01*
X96096Y-120510D01*
X96071Y-120470D01*
X96047Y-120441D01*
X96032Y-120412D01*
X96022Y-120392D01*
X96013Y-120383D01*
Y-120378D01*
X95944Y-120231D01*
X95895Y-120080D01*
X95861Y-119934D01*
X95837Y-119797D01*
X95827Y-119734D01*
X95822Y-119680D01*
X95817Y-119631D01*
Y-119587D01*
X95812Y-119553D01*
Y-119524D01*
Y-119509D01*
Y-119504D01*
X95822Y-119329D01*
X95842Y-119167D01*
X95871Y-119021D01*
X95891Y-118958D01*
X95905Y-118894D01*
X95925Y-118841D01*
X95944Y-118792D01*
X95959Y-118748D01*
X95974Y-118714D01*
X95983Y-118684D01*
X95993Y-118665D01*
X96003Y-118650D01*
Y-118645D01*
X96081Y-118509D01*
X96164Y-118392D01*
X96257Y-118289D01*
X96344Y-118206D01*
X96422Y-118143D01*
X96457Y-118113D01*
X96486Y-118094D01*
X96510Y-118074D01*
X96530Y-118065D01*
X96540Y-118055D01*
X96544D01*
X96613Y-118016D01*
X96681Y-117982D01*
X96818Y-117933D01*
X96954Y-117894D01*
X97076Y-117865D01*
X97135Y-117860D01*
X97184Y-117850D01*
X97233Y-117845D01*
X97272D01*
X97301Y-117840D01*
X97345D01*
X97467Y-117845D01*
D02*
G37*
G36*
X91960Y-132200D02*
X90808D01*
X90701Y-132195D01*
X90603Y-132190D01*
X90515Y-132181D01*
X90442Y-132171D01*
X90379Y-132161D01*
X90335Y-132156D01*
X90306Y-132146D01*
X90296D01*
X90213Y-132122D01*
X90140Y-132097D01*
X90076Y-132073D01*
X90022Y-132049D01*
X89978Y-132024D01*
X89944Y-132005D01*
X89920Y-131995D01*
X89915Y-131990D01*
X89856Y-131946D01*
X89803Y-131897D01*
X89749Y-131849D01*
X89710Y-131805D01*
X89671Y-131761D01*
X89647Y-131727D01*
X89627Y-131707D01*
X89622Y-131697D01*
X89574Y-131624D01*
X89530Y-131546D01*
X89490Y-131468D01*
X89461Y-131395D01*
X89437Y-131326D01*
X89417Y-131278D01*
X89412Y-131258D01*
X89408Y-131244D01*
X89403Y-131234D01*
Y-131229D01*
X89373Y-131122D01*
X89354Y-131009D01*
X89334Y-130897D01*
X89325Y-130799D01*
X89320Y-130712D01*
Y-130673D01*
X89315Y-130643D01*
Y-130614D01*
Y-130595D01*
Y-130585D01*
Y-130580D01*
X89320Y-130424D01*
X89334Y-130282D01*
X89354Y-130155D01*
X89368Y-130097D01*
X89378Y-130043D01*
X89388Y-129994D01*
X89403Y-129950D01*
X89412Y-129911D01*
X89422Y-129882D01*
X89432Y-129858D01*
X89437Y-129838D01*
X89442Y-129828D01*
Y-129823D01*
X89495Y-129701D01*
X89554Y-129594D01*
X89617Y-129501D01*
X89681Y-129423D01*
X89735Y-129360D01*
X89778Y-129311D01*
X89813Y-129282D01*
X89818Y-129272D01*
X89822D01*
X89900Y-129213D01*
X89978Y-129165D01*
X90057Y-129126D01*
X90130Y-129096D01*
X90193Y-129072D01*
X90247Y-129057D01*
X90266Y-129048D01*
X90276D01*
X90286Y-129043D01*
X90291D01*
X90369Y-129028D01*
X90462Y-129013D01*
X90559Y-129004D01*
X90647Y-128999D01*
X90730Y-128994D01*
X91960D01*
Y-132200D01*
D02*
G37*
G36*
X92274Y-118270D02*
X91220D01*
Y-121100D01*
X90796D01*
Y-118270D01*
X89742D01*
Y-117894D01*
X92274D01*
Y-118270D01*
D02*
G37*
G36*
X95261Y-119748D02*
Y-119841D01*
X95256Y-119929D01*
X95251Y-120012D01*
X95242Y-120090D01*
X95232Y-120158D01*
X95222Y-120227D01*
X95212Y-120285D01*
X95198Y-120339D01*
X95188Y-120387D01*
X95178Y-120431D01*
X95168Y-120470D01*
X95159Y-120500D01*
X95149Y-120524D01*
X95144Y-120539D01*
X95139Y-120549D01*
Y-120553D01*
X95085Y-120656D01*
X95022Y-120749D01*
X94959Y-120822D01*
X94890Y-120885D01*
X94832Y-120939D01*
X94778Y-120973D01*
X94758Y-120988D01*
X94749Y-120993D01*
X94739Y-121002D01*
X94734D01*
X94622Y-121051D01*
X94495Y-121090D01*
X94373Y-121115D01*
X94256Y-121134D01*
X94202Y-121139D01*
X94153Y-121144D01*
X94109Y-121149D01*
X94070D01*
X94041Y-121154D01*
X93997D01*
X93831Y-121144D01*
X93685Y-121124D01*
X93616Y-121115D01*
X93558Y-121100D01*
X93499Y-121081D01*
X93451Y-121066D01*
X93407Y-121051D01*
X93363Y-121032D01*
X93329Y-121017D01*
X93304Y-121007D01*
X93280Y-120993D01*
X93265Y-120988D01*
X93255Y-120978D01*
X93251D01*
X93153Y-120905D01*
X93065Y-120832D01*
X92997Y-120754D01*
X92943Y-120680D01*
X92904Y-120612D01*
X92875Y-120563D01*
X92865Y-120544D01*
X92860Y-120529D01*
X92855Y-120519D01*
Y-120514D01*
X92816Y-120402D01*
X92792Y-120275D01*
X92772Y-120148D01*
X92758Y-120026D01*
X92753Y-119968D01*
X92748Y-119914D01*
Y-119870D01*
X92743Y-119826D01*
Y-119792D01*
Y-119768D01*
Y-119753D01*
Y-119748D01*
Y-117894D01*
X93168D01*
Y-119748D01*
Y-119856D01*
X93177Y-119958D01*
X93187Y-120046D01*
X93197Y-120129D01*
X93212Y-120207D01*
X93231Y-120270D01*
X93251Y-120329D01*
X93265Y-120383D01*
X93285Y-120427D01*
X93304Y-120466D01*
X93319Y-120495D01*
X93338Y-120519D01*
X93348Y-120539D01*
X93358Y-120553D01*
X93368Y-120558D01*
Y-120563D01*
X93407Y-120602D01*
X93455Y-120632D01*
X93558Y-120685D01*
X93665Y-120719D01*
X93778Y-120749D01*
X93875Y-120763D01*
X93919Y-120768D01*
X93958D01*
X93992Y-120773D01*
X94036D01*
X94134Y-120768D01*
X94222Y-120758D01*
X94300Y-120739D01*
X94368Y-120719D01*
X94422Y-120705D01*
X94461Y-120685D01*
X94485Y-120675D01*
X94495Y-120671D01*
X94563Y-120627D01*
X94617Y-120578D01*
X94666Y-120524D01*
X94700Y-120475D01*
X94729Y-120431D01*
X94749Y-120397D01*
X94758Y-120373D01*
X94763Y-120363D01*
X94778Y-120324D01*
X94788Y-120280D01*
X94807Y-120183D01*
X94817Y-120080D01*
X94827Y-119983D01*
X94832Y-119890D01*
X94836Y-119851D01*
Y-119817D01*
Y-119787D01*
Y-119768D01*
Y-119753D01*
Y-119748D01*
Y-117894D01*
X95261D01*
Y-119748D01*
D02*
G37*
G36*
X94980Y-140589D02*
X95102Y-140613D01*
X95214Y-140647D01*
X95307Y-140687D01*
X95380Y-140731D01*
X95410Y-140750D01*
X95434Y-140765D01*
X95459Y-140779D01*
X95473Y-140789D01*
X95478Y-140794D01*
X95483Y-140799D01*
X95571Y-140887D01*
X95639Y-140984D01*
X95698Y-141087D01*
X95737Y-141184D01*
X95771Y-141272D01*
X95780Y-141311D01*
X95790Y-141345D01*
X95795Y-141370D01*
X95800Y-141389D01*
X95805Y-141404D01*
Y-141409D01*
X95410Y-141477D01*
X95390Y-141375D01*
X95361Y-141287D01*
X95332Y-141214D01*
X95297Y-141155D01*
X95268Y-141106D01*
X95244Y-141072D01*
X95224Y-141053D01*
X95219Y-141048D01*
X95156Y-140999D01*
X95092Y-140965D01*
X95029Y-140935D01*
X94966Y-140921D01*
X94917Y-140911D01*
X94873Y-140901D01*
X94834D01*
X94751Y-140906D01*
X94678Y-140926D01*
X94614Y-140945D01*
X94560Y-140974D01*
X94517Y-140999D01*
X94482Y-141023D01*
X94463Y-141043D01*
X94458Y-141048D01*
X94409Y-141101D01*
X94375Y-141165D01*
X94346Y-141223D01*
X94331Y-141277D01*
X94321Y-141331D01*
X94312Y-141370D01*
Y-141394D01*
Y-141399D01*
Y-141404D01*
X94321Y-141501D01*
X94346Y-141585D01*
X94375Y-141653D01*
X94414Y-141707D01*
X94453Y-141750D01*
X94482Y-141785D01*
X94507Y-141804D01*
X94517Y-141809D01*
X94595Y-141853D01*
X94673Y-141882D01*
X94746Y-141907D01*
X94814Y-141921D01*
X94878Y-141931D01*
X94922Y-141936D01*
X94985D01*
X95005Y-141931D01*
X95029D01*
X95073Y-142277D01*
X95014Y-142263D01*
X94961Y-142253D01*
X94912Y-142248D01*
X94873Y-142243D01*
X94839Y-142238D01*
X94795D01*
X94697Y-142248D01*
X94614Y-142268D01*
X94536Y-142292D01*
X94473Y-142326D01*
X94419Y-142360D01*
X94380Y-142385D01*
X94361Y-142404D01*
X94351Y-142414D01*
X94292Y-142482D01*
X94248Y-142556D01*
X94214Y-142634D01*
X94195Y-142702D01*
X94180Y-142765D01*
X94175Y-142814D01*
X94170Y-142834D01*
Y-142848D01*
Y-142853D01*
Y-142858D01*
X94180Y-142961D01*
X94199Y-143053D01*
X94229Y-143136D01*
X94263Y-143205D01*
X94302Y-143263D01*
X94331Y-143302D01*
X94351Y-143327D01*
X94361Y-143336D01*
X94434Y-143400D01*
X94512Y-143449D01*
X94590Y-143478D01*
X94668Y-143502D01*
X94731Y-143517D01*
X94780Y-143522D01*
X94800Y-143527D01*
X94829D01*
X94912Y-143522D01*
X94990Y-143502D01*
X95058Y-143478D01*
X95112Y-143454D01*
X95161Y-143424D01*
X95195Y-143405D01*
X95214Y-143385D01*
X95224Y-143380D01*
X95278Y-143317D01*
X95327Y-143244D01*
X95366Y-143161D01*
X95395Y-143083D01*
X95419Y-143009D01*
X95434Y-142951D01*
X95444Y-142931D01*
Y-142912D01*
X95449Y-142902D01*
Y-142897D01*
X95844Y-142951D01*
X95834Y-143024D01*
X95820Y-143092D01*
X95776Y-143219D01*
X95727Y-143332D01*
X95668Y-143429D01*
X95644Y-143468D01*
X95615Y-143502D01*
X95590Y-143532D01*
X95571Y-143561D01*
X95551Y-143580D01*
X95537Y-143595D01*
X95532Y-143600D01*
X95527Y-143605D01*
X95473Y-143649D01*
X95415Y-143688D01*
X95361Y-143722D01*
X95302Y-143746D01*
X95185Y-143795D01*
X95073Y-143824D01*
X95024Y-143834D01*
X94975Y-143839D01*
X94936Y-143844D01*
X94897Y-143849D01*
X94868Y-143854D01*
X94829D01*
X94746Y-143849D01*
X94663Y-143839D01*
X94585Y-143829D01*
X94512Y-143810D01*
X94443Y-143785D01*
X94380Y-143761D01*
X94321Y-143737D01*
X94268Y-143707D01*
X94224Y-143683D01*
X94180Y-143658D01*
X94141Y-143634D01*
X94112Y-143610D01*
X94087Y-143590D01*
X94073Y-143580D01*
X94063Y-143571D01*
X94058Y-143566D01*
X94004Y-143507D01*
X93955Y-143449D01*
X93916Y-143390D01*
X93882Y-143332D01*
X93848Y-143273D01*
X93824Y-143210D01*
X93789Y-143097D01*
X93775Y-143049D01*
X93765Y-143000D01*
X93760Y-142961D01*
X93755Y-142922D01*
X93751Y-142892D01*
Y-142873D01*
Y-142858D01*
Y-142853D01*
X93755Y-142741D01*
X93775Y-142639D01*
X93799Y-142551D01*
X93828Y-142478D01*
X93863Y-142419D01*
X93887Y-142375D01*
X93907Y-142346D01*
X93911Y-142336D01*
X93975Y-142263D01*
X94048Y-142204D01*
X94121Y-142155D01*
X94190Y-142121D01*
X94253Y-142092D01*
X94302Y-142077D01*
X94321Y-142068D01*
X94336D01*
X94346Y-142063D01*
X94351D01*
X94273Y-142024D01*
X94204Y-141975D01*
X94151Y-141931D01*
X94102Y-141887D01*
X94068Y-141848D01*
X94038Y-141819D01*
X94024Y-141799D01*
X94019Y-141789D01*
X93980Y-141726D01*
X93955Y-141658D01*
X93936Y-141594D01*
X93921Y-141536D01*
X93911Y-141487D01*
X93907Y-141448D01*
Y-141423D01*
Y-141414D01*
X93911Y-141331D01*
X93926Y-141258D01*
X93946Y-141189D01*
X93965Y-141126D01*
X93985Y-141077D01*
X94004Y-141038D01*
X94019Y-141014D01*
X94024Y-141004D01*
X94073Y-140935D01*
X94126Y-140872D01*
X94185Y-140818D01*
X94239Y-140774D01*
X94287Y-140740D01*
X94326Y-140716D01*
X94356Y-140701D01*
X94361Y-140696D01*
X94365D01*
X94448Y-140657D01*
X94531Y-140628D01*
X94614Y-140609D01*
X94687Y-140594D01*
X94751Y-140584D01*
X94800Y-140579D01*
X94912D01*
X94980Y-140589D01*
D02*
G37*
G36*
X98713D02*
X98835Y-140613D01*
X98948Y-140647D01*
X99040Y-140687D01*
X99114Y-140731D01*
X99143Y-140750D01*
X99167Y-140765D01*
X99192Y-140779D01*
X99206Y-140789D01*
X99211Y-140794D01*
X99216Y-140799D01*
X99304Y-140887D01*
X99372Y-140984D01*
X99431Y-141087D01*
X99470Y-141184D01*
X99504Y-141272D01*
X99514Y-141311D01*
X99524Y-141345D01*
X99528Y-141370D01*
X99533Y-141389D01*
X99538Y-141404D01*
Y-141409D01*
X99143Y-141477D01*
X99123Y-141375D01*
X99094Y-141287D01*
X99065Y-141214D01*
X99031Y-141155D01*
X99001Y-141106D01*
X98977Y-141072D01*
X98957Y-141053D01*
X98953Y-141048D01*
X98889Y-140999D01*
X98826Y-140965D01*
X98762Y-140935D01*
X98699Y-140921D01*
X98650Y-140911D01*
X98606Y-140901D01*
X98567D01*
X98484Y-140906D01*
X98411Y-140926D01*
X98347Y-140945D01*
X98294Y-140974D01*
X98250Y-140999D01*
X98216Y-141023D01*
X98196Y-141043D01*
X98191Y-141048D01*
X98142Y-141101D01*
X98108Y-141165D01*
X98079Y-141223D01*
X98064Y-141277D01*
X98055Y-141331D01*
X98045Y-141370D01*
Y-141394D01*
Y-141399D01*
Y-141404D01*
X98055Y-141501D01*
X98079Y-141585D01*
X98108Y-141653D01*
X98147Y-141707D01*
X98186Y-141750D01*
X98216Y-141785D01*
X98240Y-141804D01*
X98250Y-141809D01*
X98328Y-141853D01*
X98406Y-141882D01*
X98479Y-141907D01*
X98548Y-141921D01*
X98611Y-141931D01*
X98655Y-141936D01*
X98718D01*
X98738Y-141931D01*
X98762D01*
X98806Y-142277D01*
X98748Y-142263D01*
X98694Y-142253D01*
X98645Y-142248D01*
X98606Y-142243D01*
X98572Y-142238D01*
X98528D01*
X98430Y-142248D01*
X98347Y-142268D01*
X98269Y-142292D01*
X98206Y-142326D01*
X98152Y-142360D01*
X98113Y-142385D01*
X98094Y-142404D01*
X98084Y-142414D01*
X98025Y-142482D01*
X97981Y-142556D01*
X97947Y-142634D01*
X97928Y-142702D01*
X97913Y-142765D01*
X97908Y-142814D01*
X97903Y-142834D01*
Y-142848D01*
Y-142853D01*
Y-142858D01*
X97913Y-142961D01*
X97933Y-143053D01*
X97962Y-143136D01*
X97996Y-143205D01*
X98035Y-143263D01*
X98064Y-143302D01*
X98084Y-143327D01*
X98094Y-143336D01*
X98167Y-143400D01*
X98245Y-143449D01*
X98323Y-143478D01*
X98401Y-143502D01*
X98465Y-143517D01*
X98513Y-143522D01*
X98533Y-143527D01*
X98562D01*
X98645Y-143522D01*
X98723Y-143502D01*
X98791Y-143478D01*
X98845Y-143454D01*
X98894Y-143424D01*
X98928Y-143405D01*
X98948Y-143385D01*
X98957Y-143380D01*
X99011Y-143317D01*
X99060Y-143244D01*
X99099Y-143161D01*
X99128Y-143083D01*
X99153Y-143009D01*
X99167Y-142951D01*
X99177Y-142931D01*
Y-142912D01*
X99182Y-142902D01*
Y-142897D01*
X99577Y-142951D01*
X99567Y-143024D01*
X99553Y-143092D01*
X99509Y-143219D01*
X99460Y-143332D01*
X99401Y-143429D01*
X99377Y-143468D01*
X99348Y-143502D01*
X99323Y-143532D01*
X99304Y-143561D01*
X99284Y-143580D01*
X99270Y-143595D01*
X99265Y-143600D01*
X99260Y-143605D01*
X99206Y-143649D01*
X99148Y-143688D01*
X99094Y-143722D01*
X99036Y-143746D01*
X98918Y-143795D01*
X98806Y-143824D01*
X98757Y-143834D01*
X98708Y-143839D01*
X98669Y-143844D01*
X98630Y-143849D01*
X98601Y-143854D01*
X98562D01*
X98479Y-143849D01*
X98396Y-143839D01*
X98318Y-143829D01*
X98245Y-143810D01*
X98177Y-143785D01*
X98113Y-143761D01*
X98055Y-143737D01*
X98001Y-143707D01*
X97957Y-143683D01*
X97913Y-143658D01*
X97874Y-143634D01*
X97845Y-143610D01*
X97820Y-143590D01*
X97806Y-143580D01*
X97796Y-143571D01*
X97791Y-143566D01*
X97737Y-143507D01*
X97689Y-143449D01*
X97650Y-143390D01*
X97615Y-143332D01*
X97581Y-143273D01*
X97557Y-143210D01*
X97523Y-143097D01*
X97508Y-143049D01*
X97498Y-143000D01*
X97493Y-142961D01*
X97488Y-142922D01*
X97484Y-142892D01*
Y-142873D01*
Y-142858D01*
Y-142853D01*
X97488Y-142741D01*
X97508Y-142639D01*
X97532Y-142551D01*
X97562Y-142478D01*
X97596Y-142419D01*
X97620Y-142375D01*
X97640Y-142346D01*
X97645Y-142336D01*
X97708Y-142263D01*
X97781Y-142204D01*
X97855Y-142155D01*
X97923Y-142121D01*
X97986Y-142092D01*
X98035Y-142077D01*
X98055Y-142068D01*
X98069D01*
X98079Y-142063D01*
X98084D01*
X98006Y-142024D01*
X97938Y-141975D01*
X97884Y-141931D01*
X97835Y-141887D01*
X97801Y-141848D01*
X97772Y-141819D01*
X97757Y-141799D01*
X97752Y-141789D01*
X97713Y-141726D01*
X97689Y-141658D01*
X97669Y-141594D01*
X97654Y-141536D01*
X97645Y-141487D01*
X97640Y-141448D01*
Y-141423D01*
Y-141414D01*
X97645Y-141331D01*
X97659Y-141258D01*
X97679Y-141189D01*
X97698Y-141126D01*
X97718Y-141077D01*
X97737Y-141038D01*
X97752Y-141014D01*
X97757Y-141004D01*
X97806Y-140935D01*
X97859Y-140872D01*
X97918Y-140818D01*
X97972Y-140774D01*
X98020Y-140740D01*
X98059Y-140716D01*
X98089Y-140701D01*
X98094Y-140696D01*
X98098D01*
X98181Y-140657D01*
X98264Y-140628D01*
X98347Y-140609D01*
X98421Y-140594D01*
X98484Y-140584D01*
X98533Y-140579D01*
X98645D01*
X98713Y-140589D01*
D02*
G37*
G36*
X92286Y-143800D02*
X91852D01*
X90598Y-140594D01*
X91027D01*
X91896Y-142922D01*
X91930Y-143019D01*
X91964Y-143117D01*
X91994Y-143205D01*
X92018Y-143283D01*
X92038Y-143351D01*
X92052Y-143405D01*
X92057Y-143424D01*
X92062Y-143439D01*
X92067Y-143444D01*
Y-143449D01*
X92120Y-143263D01*
X92150Y-143175D01*
X92179Y-143092D01*
X92203Y-143024D01*
X92218Y-142970D01*
X92228Y-142951D01*
X92233Y-142936D01*
X92238Y-142927D01*
Y-142922D01*
X93067Y-140594D01*
X93531D01*
X92286Y-143800D01*
D02*
G37*
G36*
X95195Y-132200D02*
X94790D01*
Y-129682D01*
X93107Y-132200D01*
X92672D01*
Y-128994D01*
X93077D01*
Y-131512D01*
X94766Y-128994D01*
X95195D01*
Y-132200D01*
D02*
G37*
G36*
X96874Y-143800D02*
X96425D01*
Y-143351D01*
X96874D01*
Y-143800D01*
D02*
G37*
%LPC*%
G36*
X91535Y-129370D02*
X90867D01*
X90735Y-129375D01*
X90623Y-129379D01*
X90530Y-129389D01*
X90452Y-129404D01*
X90393Y-129418D01*
X90354Y-129428D01*
X90330Y-129433D01*
X90320Y-129438D01*
X90237Y-129482D01*
X90159Y-129535D01*
X90091Y-129594D01*
X90032Y-129657D01*
X89983Y-129711D01*
X89949Y-129760D01*
X89935Y-129780D01*
X89930Y-129794D01*
X89920Y-129799D01*
Y-129804D01*
X89891Y-129858D01*
X89866Y-129916D01*
X89822Y-130038D01*
X89793Y-130165D01*
X89774Y-130292D01*
X89769Y-130346D01*
X89764Y-130399D01*
X89759Y-130448D01*
X89754Y-130492D01*
Y-130526D01*
Y-130551D01*
Y-130570D01*
Y-130575D01*
X89759Y-130707D01*
X89769Y-130824D01*
X89783Y-130931D01*
X89798Y-131024D01*
X89813Y-131097D01*
X89822Y-131126D01*
X89827Y-131151D01*
X89832Y-131170D01*
X89837Y-131185D01*
X89842Y-131190D01*
Y-131195D01*
X89876Y-131283D01*
X89915Y-131366D01*
X89954Y-131434D01*
X89988Y-131492D01*
X90022Y-131536D01*
X90052Y-131570D01*
X90071Y-131595D01*
X90076Y-131600D01*
X90120Y-131639D01*
X90164Y-131673D01*
X90213Y-131697D01*
X90262Y-131722D01*
X90301Y-131741D01*
X90335Y-131756D01*
X90354Y-131761D01*
X90364Y-131766D01*
X90437Y-131785D01*
X90515Y-131800D01*
X90598Y-131810D01*
X90676Y-131815D01*
X90750Y-131819D01*
X90803Y-131824D01*
X91535D01*
Y-129370D01*
D02*
G37*
G36*
X97389Y-118206D02*
X97345D01*
X97228Y-118211D01*
X97120Y-118231D01*
X97023Y-118255D01*
X96940Y-118284D01*
X96872Y-118318D01*
X96818Y-118343D01*
X96798Y-118353D01*
X96784Y-118362D01*
X96779Y-118367D01*
X96774D01*
X96686Y-118431D01*
X96608Y-118504D01*
X96540Y-118582D01*
X96486Y-118655D01*
X96442Y-118719D01*
X96413Y-118772D01*
X96403Y-118792D01*
X96393Y-118806D01*
X96388Y-118816D01*
Y-118821D01*
X96344Y-118933D01*
X96310Y-119050D01*
X96286Y-119167D01*
X96266Y-119270D01*
X96257Y-119363D01*
Y-119407D01*
X96252Y-119441D01*
Y-119465D01*
Y-119485D01*
Y-119499D01*
Y-119504D01*
X96257Y-119616D01*
X96266Y-119724D01*
X96281Y-119821D01*
X96301Y-119914D01*
X96325Y-120002D01*
X96349Y-120080D01*
X96379Y-120148D01*
X96408Y-120217D01*
X96437Y-120270D01*
X96466Y-120319D01*
X96491Y-120363D01*
X96515Y-120397D01*
X96535Y-120427D01*
X96549Y-120446D01*
X96559Y-120456D01*
X96564Y-120461D01*
X96623Y-120519D01*
X96686Y-120568D01*
X96750Y-120612D01*
X96818Y-120651D01*
X96881Y-120685D01*
X96950Y-120710D01*
X97072Y-120749D01*
X97130Y-120763D01*
X97184Y-120773D01*
X97228Y-120783D01*
X97272Y-120788D01*
X97306Y-120793D01*
X97350D01*
X97438Y-120788D01*
X97516Y-120778D01*
X97594Y-120763D01*
X97667Y-120739D01*
X97740Y-120714D01*
X97804Y-120685D01*
X97862Y-120656D01*
X97916Y-120627D01*
X97965Y-120597D01*
X98009Y-120563D01*
X98043Y-120539D01*
X98072Y-120514D01*
X98096Y-120490D01*
X98116Y-120475D01*
X98126Y-120466D01*
X98131Y-120461D01*
X98184Y-120397D01*
X98233Y-120324D01*
X98272Y-120251D01*
X98306Y-120178D01*
X98335Y-120100D01*
X98365Y-120026D01*
X98399Y-119880D01*
X98414Y-119812D01*
X98423Y-119748D01*
X98428Y-119695D01*
X98433Y-119646D01*
X98438Y-119602D01*
Y-119573D01*
Y-119553D01*
Y-119548D01*
X98433Y-119416D01*
X98423Y-119294D01*
X98409Y-119187D01*
X98389Y-119085D01*
X98365Y-118987D01*
X98335Y-118904D01*
X98306Y-118831D01*
X98277Y-118763D01*
X98248Y-118704D01*
X98218Y-118655D01*
X98189Y-118611D01*
X98165Y-118577D01*
X98145Y-118553D01*
X98131Y-118533D01*
X98121Y-118523D01*
X98116Y-118518D01*
X98052Y-118465D01*
X97989Y-118416D01*
X97926Y-118372D01*
X97857Y-118338D01*
X97794Y-118309D01*
X97730Y-118284D01*
X97608Y-118245D01*
X97555Y-118231D01*
X97506Y-118221D01*
X97457Y-118216D01*
X97418Y-118211D01*
X97389Y-118206D01*
D02*
G37*
%LPD*%
D43*
X-0Y0D02*
X393701D01*
X-0Y-393701D02*
Y0D01*
Y-393701D02*
X393701D01*
Y0D01*
D104*
X188519Y-203800D02*
G03*
X184519Y-203800I-2000J0D01*
G01*
X188519D02*
X193519D01*
X179519D02*
X184519D01*
X179519Y-183800D02*
X193519D01*
Y-203800D02*
Y-183800D01*
X179519Y-203800D02*
Y-183800D01*
X55386Y-203046D02*
X339874D01*
Y-33754D01*
X55386D02*
X339874D01*
X55386Y-203046D02*
Y-33754D01*
X145726Y-188935D02*
X155569D01*
X145726Y-193265D02*
X155569D01*
Y-188935D01*
X145726Y-193265D02*
Y-188935D01*
X133226Y-188735D02*
X143069D01*
X133226Y-193065D02*
X143069D01*
Y-188735D01*
X133226Y-193065D02*
Y-188735D01*
X133231Y-186965D02*
X143074D01*
X133231Y-182635D02*
X143074D01*
X133231Y-186965D02*
Y-182635D01*
X143074Y-186965D02*
Y-182635D01*
X195450Y-72670D02*
X201750D01*
X195450Y-86056D02*
X201750D01*
X195450Y-73654D02*
X195450D01*
X201750Y-86056D02*
Y-72670D01*
X195450Y-86056D02*
Y-72670D01*
X175050Y-73070D02*
X181350D01*
X175050Y-86456D02*
X181350D01*
X175050Y-74054D02*
X175050D01*
X181350Y-86456D02*
Y-73070D01*
X175050Y-86456D02*
Y-73070D01*
X246865Y-115587D02*
Y-107319D01*
X243322Y-116374D02*
X246078D01*
X243322Y-106532D02*
X246078D01*
X242535Y-115587D02*
Y-107319D01*
X243322Y-106532D01*
X246078D02*
X246865Y-107319D01*
X246078Y-116374D02*
X246865Y-115587D01*
X242535D02*
X243322Y-116374D01*
X293565Y-115987D02*
Y-107719D01*
X290022Y-116774D02*
X292778D01*
X290022Y-106931D02*
X292778D01*
X289235Y-115987D02*
Y-107719D01*
X290022Y-106931D01*
X292778D02*
X293565Y-107719D01*
X292778Y-116774D02*
X293565Y-115987D01*
X289235D02*
X290022Y-116774D01*
X289026Y-123735D02*
X298868D01*
X289026Y-128065D02*
X298868D01*
Y-123735D01*
X289026Y-128065D02*
Y-123735D01*
Y-130035D02*
X298868D01*
X289026Y-134365D02*
X298868D01*
Y-130035D01*
X289026Y-134365D02*
Y-130035D01*
Y-136335D02*
X298868D01*
X289026Y-140665D02*
X298868D01*
Y-136335D01*
X289026Y-140665D02*
Y-136335D01*
X275335Y-303274D02*
Y-293431D01*
X279665Y-303274D02*
Y-293431D01*
X275335D02*
X279665D01*
X275335Y-303274D02*
X279665D01*
X219532Y-286842D02*
Y-283890D01*
Y-277984D02*
Y-275031D01*
X225832Y-282709D02*
Y-279165D01*
X219532Y-286842D02*
X225832D01*
X219532Y-275031D02*
X225832D01*
X271012Y-272981D02*
Y-264713D01*
X271799Y-263926D02*
X274555D01*
X271799Y-273768D02*
X274555D01*
X275342Y-272981D02*
Y-264713D01*
X274555Y-273768D02*
X275342Y-272981D01*
X271012D02*
X271799Y-273768D01*
X271012Y-264713D02*
X271799Y-263926D01*
X274555D02*
X275342Y-264713D01*
X284312Y-254081D02*
Y-245813D01*
X285099Y-245026D02*
X287855D01*
X285099Y-254869D02*
X287855D01*
X288643Y-254081D02*
Y-245813D01*
X287855Y-254869D02*
X288643Y-254081D01*
X284312D02*
X285099Y-254869D01*
X284312Y-245813D02*
X285099Y-245026D01*
X287855D02*
X288643Y-245813D01*
X288791Y-290965D02*
X297058D01*
X288003Y-290178D02*
Y-287422D01*
X297846Y-290178D02*
Y-287422D01*
X288791Y-286635D02*
X297058D01*
X297846Y-287422D01*
X297058Y-290965D02*
X297846Y-290178D01*
X288003D02*
X288791Y-290965D01*
X288003Y-287422D02*
X288791Y-286635D01*
X303967Y-302281D02*
Y-294013D01*
X300424Y-303068D02*
X303180D01*
X300424Y-293226D02*
X303180D01*
X299637Y-302281D02*
Y-294013D01*
X300424Y-293226D01*
X303180D02*
X303967Y-294013D01*
X303180Y-303068D02*
X303967Y-302281D01*
X299637D02*
X300424Y-303068D01*
X300942Y-253687D02*
Y-245419D01*
X297399Y-254474D02*
X300155D01*
X297399Y-244632D02*
X300155D01*
X296612Y-253687D02*
Y-245419D01*
X297399Y-244632D01*
X300155D02*
X300942Y-245419D01*
X300155Y-254474D02*
X300942Y-253687D01*
X296612D02*
X297399Y-254474D01*
X307142Y-253487D02*
Y-245219D01*
X303599Y-254274D02*
X306355D01*
X303599Y-244431D02*
X306355D01*
X302812Y-253487D02*
Y-245219D01*
X303599Y-244431D01*
X306355D02*
X307142Y-245219D01*
X306355Y-254274D02*
X307142Y-253487D01*
X302812D02*
X303599Y-254274D01*
X288891Y-284965D02*
X297158D01*
X288103Y-284178D02*
Y-281422D01*
X297946Y-284178D02*
Y-281422D01*
X288891Y-280635D02*
X297158D01*
X297946Y-281422D01*
X297158Y-284965D02*
X297946Y-284178D01*
X288103D02*
X288891Y-284965D01*
X288103Y-281422D02*
X288891Y-280635D01*
X298130Y-302281D02*
Y-294013D01*
X294587Y-303068D02*
X297343D01*
X294587Y-293226D02*
X297343D01*
X293799Y-302281D02*
Y-294013D01*
X294587Y-293226D01*
X297343D02*
X298130Y-294013D01*
X297343Y-303068D02*
X298130Y-302281D01*
X293799D02*
X294587Y-303068D01*
X277219Y-305035D02*
X285487D01*
X286274Y-308578D02*
Y-305822D01*
X276431Y-308578D02*
Y-305822D01*
X277219Y-309365D02*
X285487D01*
X276431Y-308578D02*
X277219Y-309365D01*
X276431Y-305822D02*
X277219Y-305035D01*
X285487D02*
X286274Y-305822D01*
X285487Y-309365D02*
X286274Y-308578D01*
X290312Y-254574D02*
Y-244731D01*
X294642Y-254574D02*
Y-244731D01*
X290312D02*
X294642D01*
X290312Y-254574D02*
X294642D01*
X320607Y-278450D02*
Y-272150D01*
X307221Y-278450D02*
Y-272150D01*
X319623Y-272150D02*
Y-272150D01*
X307221Y-278450D02*
X320607D01*
X307221Y-272150D02*
X320607D01*
X309012Y-254274D02*
Y-244431D01*
X313342Y-254274D02*
Y-244431D01*
X309012D02*
X313342D01*
X309012Y-254274D02*
X313342D01*
X271112Y-261874D02*
Y-252031D01*
X275443Y-261874D02*
Y-252031D01*
X271112D02*
X275443D01*
X271112Y-261874D02*
X275443D01*
X289026Y-142635D02*
X298868D01*
X289026Y-146965D02*
X298868D01*
Y-142635D01*
X289026Y-146965D02*
Y-142635D01*
X282112Y-290674D02*
Y-280832D01*
X286442Y-290674D02*
Y-280832D01*
X282112D02*
X286442D01*
X282112Y-290674D02*
X286442D01*
X269235Y-303374D02*
Y-293531D01*
X273565Y-303374D02*
Y-293531D01*
X269235D02*
X273565D01*
X269235Y-303374D02*
X273565D01*
X282124Y-303068D02*
Y-293226D01*
X286455Y-303068D02*
Y-293226D01*
X282124D02*
X286455D01*
X282124Y-303068D02*
X286455D01*
X292292D02*
Y-293226D01*
X287962Y-303068D02*
Y-293226D01*
Y-303068D02*
X292292D01*
X287962Y-293226D02*
X292292D01*
X288109Y-308965D02*
X297951D01*
X288109Y-304635D02*
X297951D01*
X288109Y-308965D02*
Y-304635D01*
X297951Y-308965D02*
Y-304635D01*
X309805Y-303068D02*
Y-293226D01*
X305474Y-303068D02*
Y-293226D01*
Y-303068D02*
X309805D01*
X305474Y-293226D02*
X309805D01*
X315642Y-303068D02*
Y-293226D01*
X311312Y-303068D02*
Y-293226D01*
Y-303068D02*
X315642D01*
X311312Y-293226D02*
X315642D01*
X297577Y-275987D02*
X298532D01*
Y-275002D01*
Y-262798D02*
Y-261813D01*
X297577D02*
X298532D01*
X280422D02*
X281377D01*
X280422Y-262798D02*
Y-261813D01*
Y-275987D02*
Y-275002D01*
Y-275987D02*
X281477D01*
X190577Y-285587D02*
X191532D01*
Y-284602D01*
Y-272398D02*
Y-271413D01*
X190577D02*
X191532D01*
X173422D02*
X174377D01*
X173422Y-272398D02*
Y-271413D01*
Y-285587D02*
Y-284602D01*
Y-285587D02*
X174477D01*
X210628Y-259870D02*
X216927D01*
X210628Y-273256D02*
X216927D01*
X210628Y-260854D02*
X210628D01*
X216927Y-273256D02*
Y-259870D01*
X210628Y-273256D02*
Y-259870D01*
X204403Y-287835D02*
X214246D01*
X204403Y-292165D02*
X214246D01*
Y-287835D01*
X204403Y-292165D02*
Y-287835D01*
X204603Y-293835D02*
X214446D01*
X204603Y-298165D02*
X214446D01*
Y-293835D01*
X204603Y-298165D02*
Y-293835D01*
X165403Y-304129D02*
X175246D01*
X165403Y-308460D02*
X175246D01*
Y-304129D01*
X165403Y-308460D02*
Y-304129D01*
X181543Y-308063D02*
Y-298220D01*
X177212Y-308063D02*
Y-298220D01*
Y-308063D02*
X181543D01*
X177212Y-298220D02*
X181543D01*
X171503Y-292129D02*
X181346D01*
X171503Y-296460D02*
X181346D01*
Y-292129D01*
X171503Y-296460D02*
Y-292129D01*
X183909Y-308060D02*
X193751D01*
X183909Y-303729D02*
X193751D01*
X183909Y-308060D02*
Y-303729D01*
X193751Y-308060D02*
Y-303729D01*
X146503Y-297535D02*
X156346D01*
X146503Y-301865D02*
X156346D01*
Y-297535D01*
X146503Y-301865D02*
Y-297535D01*
Y-291035D02*
X156346D01*
X146503Y-295365D02*
X156346D01*
Y-291035D01*
X146503Y-295365D02*
Y-291035D01*
X160812Y-277374D02*
Y-267531D01*
X165143Y-277374D02*
Y-267531D01*
X160812D02*
X165143D01*
X160812Y-277374D02*
X165143D01*
X186012Y-264874D02*
Y-255031D01*
X190342Y-264874D02*
Y-255031D01*
X186012D02*
X190342D01*
X186012Y-264874D02*
X190342D01*
X204112Y-270574D02*
Y-260732D01*
X208442Y-270574D02*
Y-260732D01*
X204112D02*
X208442D01*
X204112Y-270574D02*
X208442D01*
X205296Y-300035D02*
X213564D01*
X214351Y-303578D02*
Y-300822D01*
X204509Y-303578D02*
Y-300822D01*
X205296Y-304365D02*
X213564D01*
X204509Y-303578D02*
X205296Y-304365D01*
X204509Y-300822D02*
X205296Y-300035D01*
X213564D02*
X214351Y-300822D01*
X213564Y-304365D02*
X214351Y-303578D01*
X197843Y-263987D02*
Y-255719D01*
X194299Y-264774D02*
X197055D01*
X194299Y-254931D02*
X197055D01*
X193512Y-263987D02*
Y-255719D01*
X194299Y-254931D01*
X197055D02*
X197843Y-255719D01*
X197055Y-264774D02*
X197843Y-263987D01*
X193512D02*
X194299Y-264774D01*
X204112Y-282981D02*
Y-274713D01*
X204899Y-273926D02*
X207655D01*
X204899Y-283769D02*
X207655D01*
X208442Y-282981D02*
Y-274713D01*
X207655Y-283769D02*
X208442Y-282981D01*
X204112D02*
X204899Y-283769D01*
X204112Y-274713D02*
X204899Y-273926D01*
X207655D02*
X208442Y-274713D01*
X153812Y-282481D02*
Y-274213D01*
X154599Y-273426D02*
X157355D01*
X154599Y-283268D02*
X157355D01*
X158142Y-282481D02*
Y-274213D01*
X157355Y-283268D02*
X158142Y-282481D01*
X153812D02*
X154599Y-283268D01*
X153812Y-274213D02*
X154599Y-273426D01*
X157355D02*
X158142Y-274213D01*
X172491Y-263765D02*
X180758D01*
X171703Y-262978D02*
Y-260222D01*
X181546Y-262978D02*
Y-260222D01*
X172491Y-259435D02*
X180758D01*
X181546Y-260222D01*
X180758Y-263765D02*
X181546Y-262978D01*
X171703D02*
X172491Y-263765D01*
X171703Y-260222D02*
X172491Y-259435D01*
X193942Y-301387D02*
Y-293119D01*
X190399Y-302174D02*
X193155D01*
X190399Y-292332D02*
X193155D01*
X189612Y-301387D02*
Y-293119D01*
X190399Y-292332D01*
X193155D02*
X193942Y-293119D01*
X193155Y-302174D02*
X193942Y-301387D01*
X189612D02*
X190399Y-302174D01*
X187643Y-301381D02*
Y-293113D01*
X184099Y-302168D02*
X186855D01*
X184099Y-292326D02*
X186855D01*
X183312Y-301381D02*
Y-293113D01*
X184099Y-292326D01*
X186855D02*
X187643Y-293113D01*
X186855Y-302168D02*
X187643Y-301381D01*
X183312D02*
X184099Y-302168D01*
X165991Y-302360D02*
X174258D01*
X165203Y-301572D02*
Y-298816D01*
X175046Y-301572D02*
Y-298816D01*
X165991Y-298029D02*
X174258D01*
X175046Y-298816D01*
X174258Y-302360D02*
X175046Y-301572D01*
X165203D02*
X165991Y-302360D01*
X165203Y-298816D02*
X165991Y-298029D01*
X191100Y-176801D02*
Y-180133D01*
X190434Y-180800D01*
X189101D01*
X188434Y-180133D01*
Y-176801D01*
X184435Y-180800D02*
X187101D01*
X184435Y-178134D01*
Y-177468D01*
X185102Y-176801D01*
X186435D01*
X187101Y-177468D01*
X158600Y-185800D02*
Y-181801D01*
X156601D01*
X155934Y-182468D01*
Y-183801D01*
X156601Y-184467D01*
X158600D01*
X157267D02*
X155934Y-185800D01*
X151936Y-181801D02*
X153268Y-182468D01*
X154601Y-183801D01*
Y-185134D01*
X153935Y-185800D01*
X152602D01*
X151936Y-185134D01*
Y-184467D01*
X152602Y-183801D01*
X154601D01*
X150603Y-185134D02*
X149936Y-185800D01*
X148603D01*
X147937Y-185134D01*
Y-182468D01*
X148603Y-181801D01*
X149936D01*
X150603Y-182468D01*
Y-183134D01*
X149936Y-183801D01*
X147937D01*
X290268Y-95066D02*
X289601Y-94399D01*
Y-93066D01*
X290268Y-92400D01*
X292934D01*
X293600Y-93066D01*
Y-94399D01*
X292934Y-95066D01*
X290268Y-96399D02*
X289601Y-97065D01*
Y-98398D01*
X290268Y-99064D01*
X290934D01*
X291601Y-98398D01*
Y-97732D01*
Y-98398D01*
X292267Y-99064D01*
X292934D01*
X293600Y-98398D01*
Y-97065D01*
X292934Y-96399D01*
X289601Y-103063D02*
Y-100397D01*
X291601D01*
X290934Y-101730D01*
Y-102397D01*
X291601Y-103063D01*
X292934D01*
X293600Y-102397D01*
Y-101064D01*
X292934Y-100397D01*
X312177Y-128100D02*
Y-124101D01*
X310178D01*
X309511Y-124768D01*
Y-126101D01*
X310178Y-126767D01*
X312177D01*
X310844D02*
X309511Y-128100D01*
X305513Y-124101D02*
X306846Y-124768D01*
X308178Y-126101D01*
Y-127434D01*
X307512Y-128100D01*
X306179D01*
X305513Y-127434D01*
Y-126767D01*
X306179Y-126101D01*
X308178D01*
X302180Y-128100D02*
Y-124101D01*
X304180Y-126101D01*
X301514D01*
X278100Y-325500D02*
X274101D01*
Y-327499D01*
X274768Y-328166D01*
X276101D01*
X276767Y-327499D01*
Y-325500D01*
Y-326833D02*
X278100Y-328166D01*
X274101Y-329499D02*
Y-332165D01*
X274768D01*
X277434Y-329499D01*
X278100D01*
X274768Y-333497D02*
X274101Y-334164D01*
Y-335497D01*
X274768Y-336163D01*
X275434D01*
X276101Y-335497D01*
Y-334830D01*
Y-335497D01*
X276767Y-336163D01*
X277434D01*
X278100Y-335497D01*
Y-334164D01*
X277434Y-333497D01*
X227434Y-270873D02*
Y-268207D01*
X228101Y-267541D01*
X229434D01*
X230100Y-268207D01*
Y-270873D01*
X229434Y-271539D01*
X228101D01*
X228767Y-270206D02*
X227434Y-271539D01*
X228101D02*
X227434Y-270873D01*
X226101Y-271539D02*
X224768D01*
X225435D01*
Y-267541D01*
X226101Y-268207D01*
X222769Y-270873D02*
X222103Y-271539D01*
X220770D01*
X220103Y-270873D01*
Y-268207D01*
X220770Y-267541D01*
X222103D01*
X222769Y-268207D01*
Y-268874D01*
X222103Y-269540D01*
X220103D01*
X51800Y-40150D02*
Y-36151D01*
X49801D01*
X49134Y-36817D01*
Y-38150D01*
X49801Y-38817D01*
X51800D01*
X47801Y-40150D02*
X46468D01*
X47135D01*
Y-36151D01*
X47801Y-36817D01*
X131000Y-193300D02*
Y-189301D01*
X129001D01*
X128334Y-189968D01*
Y-191301D01*
X129001Y-191967D01*
X131000D01*
X129667D02*
X128334Y-193300D01*
X124336Y-189301D02*
X127001D01*
Y-191301D01*
X125668Y-190634D01*
X125002D01*
X124336Y-191301D01*
Y-192633D01*
X125002Y-193300D01*
X126335D01*
X127001Y-192633D01*
X123003Y-189301D02*
X120337D01*
Y-189968D01*
X123003Y-192633D01*
Y-193300D01*
X131000Y-186500D02*
Y-182501D01*
X129001D01*
X128334Y-183168D01*
Y-184501D01*
X129001Y-185167D01*
X131000D01*
X129667D02*
X128334Y-186500D01*
X124336Y-182501D02*
X125668Y-183168D01*
X127001Y-184501D01*
Y-185834D01*
X126335Y-186500D01*
X125002D01*
X124336Y-185834D01*
Y-185167D01*
X125002Y-184501D01*
X127001D01*
X120337Y-186500D02*
X123003D01*
X120337Y-183834D01*
Y-183168D01*
X121003Y-182501D01*
X122336D01*
X123003Y-183168D01*
X200400Y-89500D02*
X196401D01*
Y-91499D01*
X197068Y-92166D01*
X198401D01*
X199067Y-91499D01*
Y-89500D01*
Y-90833D02*
X200400Y-92166D01*
Y-93499D02*
Y-94832D01*
Y-94165D01*
X196401D01*
X197068Y-93499D01*
X200400Y-99497D02*
Y-96831D01*
X197734Y-99497D01*
X197068D01*
X196401Y-98830D01*
Y-97497D01*
X197068Y-96831D01*
X180300Y-90200D02*
X176301D01*
Y-92199D01*
X176968Y-92866D01*
X178301D01*
X178967Y-92199D01*
Y-90200D01*
Y-91533D02*
X180300Y-92866D01*
Y-94199D02*
Y-95532D01*
Y-94865D01*
X176301D01*
X176968Y-94199D01*
Y-97531D02*
X176301Y-98197D01*
Y-99530D01*
X176968Y-100197D01*
X177634D01*
X178301Y-99530D01*
Y-98864D01*
Y-99530D01*
X178967Y-100197D01*
X179633D01*
X180300Y-99530D01*
Y-98197D01*
X179633Y-97531D01*
X243368Y-96466D02*
X242701Y-95799D01*
Y-94466D01*
X243368Y-93800D01*
X246034D01*
X246700Y-94466D01*
Y-95799D01*
X246034Y-96466D01*
X246700Y-100464D02*
Y-97799D01*
X244034Y-100464D01*
X243368D01*
X242701Y-99798D01*
Y-98465D01*
X243368Y-97799D01*
X242701Y-104463D02*
Y-101797D01*
X244701D01*
X244034Y-103130D01*
Y-103797D01*
X244701Y-104463D01*
X246034D01*
X246700Y-103797D01*
Y-102464D01*
X246034Y-101797D01*
X312177Y-134400D02*
Y-130401D01*
X310178D01*
X309511Y-131068D01*
Y-132401D01*
X310178Y-133067D01*
X312177D01*
X310844D02*
X309511Y-134400D01*
X308178D02*
X306846D01*
X307512D01*
Y-130401D01*
X308178Y-131068D01*
X304846D02*
X304180Y-130401D01*
X302847D01*
X302180Y-131068D01*
Y-131734D01*
X302847Y-132401D01*
X302180Y-133067D01*
Y-133733D01*
X302847Y-134400D01*
X304180D01*
X304846Y-133733D01*
Y-133067D01*
X304180Y-132401D01*
X304846Y-131734D01*
Y-131068D01*
X304180Y-132401D02*
X302847D01*
X312177Y-140900D02*
Y-136901D01*
X310178D01*
X309511Y-137568D01*
Y-138901D01*
X310178Y-139567D01*
X312177D01*
X310844D02*
X309511Y-140900D01*
X308178D02*
X306846D01*
X307512D01*
Y-136901D01*
X308178Y-137568D01*
X302180Y-136901D02*
X303513Y-137568D01*
X304846Y-138901D01*
Y-140234D01*
X304180Y-140900D01*
X302847D01*
X302180Y-140234D01*
Y-139567D01*
X302847Y-138901D01*
X304846D01*
X268000Y-148501D02*
Y-151833D01*
X267334Y-152500D01*
X266001D01*
X265334Y-151833D01*
Y-148501D01*
X264001Y-152500D02*
X262668D01*
X263335D01*
Y-148501D01*
X264001Y-149168D01*
X309877Y-261001D02*
Y-264334D01*
X309211Y-265000D01*
X307878D01*
X307211Y-264334D01*
Y-261001D01*
X305878Y-261668D02*
X305212Y-261001D01*
X303879D01*
X303213Y-261668D01*
Y-262334D01*
X303879Y-263001D01*
X304546D01*
X303879D01*
X303213Y-263667D01*
Y-264334D01*
X303879Y-265000D01*
X305212D01*
X305878Y-264334D01*
X321177Y-293700D02*
X317179D01*
Y-295699D01*
X317845Y-296366D01*
X319178D01*
X319844Y-295699D01*
Y-293700D01*
Y-295033D02*
X321177Y-296366D01*
X317179Y-300364D02*
Y-297699D01*
X319178D01*
X318511Y-299032D01*
Y-299698D01*
X319178Y-300364D01*
X320511D01*
X321177Y-299698D01*
Y-298365D01*
X320511Y-297699D01*
X321177Y-301697D02*
Y-303030D01*
Y-302364D01*
X317179D01*
X317845Y-301697D01*
X309877Y-306800D02*
X305878D01*
Y-308799D01*
X306545Y-309466D01*
X307878D01*
X308544Y-308799D01*
Y-306800D01*
Y-308133D02*
X309877Y-309466D01*
X305878Y-313464D02*
Y-310799D01*
X307878D01*
X307211Y-312132D01*
Y-312798D01*
X307878Y-313464D01*
X309211D01*
X309877Y-312798D01*
Y-311465D01*
X309211Y-310799D01*
X306545Y-314797D02*
X305878Y-315464D01*
Y-316797D01*
X306545Y-317463D01*
X309211D01*
X309877Y-316797D01*
Y-315464D01*
X309211Y-314797D01*
X306545D01*
X299677Y-316200D02*
Y-312201D01*
X297678D01*
X297011Y-312868D01*
Y-314201D01*
X297678Y-314867D01*
X299677D01*
X298344D02*
X297011Y-316200D01*
X293679D02*
Y-312201D01*
X295678Y-314201D01*
X293013D01*
X291680Y-315534D02*
X291013Y-316200D01*
X289680D01*
X289014Y-315534D01*
Y-312868D01*
X289680Y-312201D01*
X291013D01*
X291680Y-312868D01*
Y-313534D01*
X291013Y-314201D01*
X289014D01*
X291077Y-325300D02*
X287078D01*
Y-327299D01*
X287745Y-327966D01*
X289078D01*
X289744Y-327299D01*
Y-325300D01*
Y-326633D02*
X291077Y-327966D01*
Y-331298D02*
X287078D01*
X289078Y-329299D01*
Y-331964D01*
X287745Y-333297D02*
X287078Y-333964D01*
Y-335297D01*
X287745Y-335963D01*
X288411D01*
X289078Y-335297D01*
X289744Y-335963D01*
X290411D01*
X291077Y-335297D01*
Y-333964D01*
X290411Y-333297D01*
X289744D01*
X289078Y-333964D01*
X288411Y-333297D01*
X287745D01*
X289078Y-333964D02*
Y-335297D01*
X285477Y-325400D02*
X281479D01*
Y-327399D01*
X282145Y-328066D01*
X283478D01*
X284144Y-327399D01*
Y-325400D01*
Y-326733D02*
X285477Y-328066D01*
Y-331398D02*
X281479D01*
X283478Y-329399D01*
Y-332065D01*
X281479Y-336063D02*
Y-333397D01*
X283478D01*
X282811Y-334730D01*
Y-335397D01*
X283478Y-336063D01*
X284811D01*
X285477Y-335397D01*
Y-334064D01*
X284811Y-333397D01*
X272300Y-325400D02*
X268301D01*
Y-327399D01*
X268968Y-328066D01*
X270301D01*
X270967Y-327399D01*
Y-325400D01*
Y-326733D02*
X272300Y-328066D01*
Y-331398D02*
X268301D01*
X270301Y-329399D01*
Y-332065D01*
X272300Y-336063D02*
Y-333397D01*
X269634Y-336063D01*
X268968D01*
X268301Y-335397D01*
Y-334064D01*
X268968Y-333397D01*
X279700Y-279700D02*
X275701D01*
Y-281699D01*
X276368Y-282366D01*
X277701D01*
X278367Y-281699D01*
Y-279700D01*
Y-281033D02*
X279700Y-282366D01*
Y-286365D02*
Y-283699D01*
X277034Y-286365D01*
X276368D01*
X275701Y-285698D01*
Y-284365D01*
X276368Y-283699D01*
X279034Y-287697D02*
X279700Y-288364D01*
Y-289697D01*
X279034Y-290363D01*
X276368D01*
X275701Y-289697D01*
Y-288364D01*
X276368Y-287697D01*
X277034D01*
X277701Y-288364D01*
Y-290363D01*
X312000Y-147400D02*
Y-143401D01*
X310001D01*
X309334Y-144068D01*
Y-145401D01*
X310001Y-146067D01*
X312000D01*
X310667D02*
X309334Y-147400D01*
X305335D02*
X308001D01*
X305335Y-144734D01*
Y-144068D01*
X306002Y-143401D01*
X307335D01*
X308001Y-144068D01*
X304003D02*
X303336Y-143401D01*
X302003D01*
X301337Y-144068D01*
Y-144734D01*
X302003Y-145401D01*
X301337Y-146067D01*
Y-146733D01*
X302003Y-147400D01*
X303336D01*
X304003Y-146733D01*
Y-146067D01*
X303336Y-145401D01*
X304003Y-144734D01*
Y-144068D01*
X303336Y-145401D02*
X302003D01*
X268277Y-251000D02*
X264279D01*
Y-252999D01*
X264945Y-253666D01*
X266278D01*
X266944Y-252999D01*
Y-251000D01*
Y-252333D02*
X268277Y-253666D01*
Y-257664D02*
Y-254999D01*
X265611Y-257664D01*
X264945D01*
X264279Y-256998D01*
Y-255665D01*
X264945Y-254999D01*
X264279Y-258997D02*
Y-261663D01*
X264945D01*
X267611Y-258997D01*
X268277D01*
X313977Y-232100D02*
X309979D01*
Y-234099D01*
X310645Y-234766D01*
X311978D01*
X312644Y-234099D01*
Y-232100D01*
Y-233433D02*
X313977Y-234766D01*
Y-238765D02*
Y-236099D01*
X311311Y-238765D01*
X310645D01*
X309979Y-238098D01*
Y-236765D01*
X310645Y-236099D01*
X313977Y-240097D02*
Y-241430D01*
Y-240764D01*
X309979D01*
X310645Y-240097D01*
X335077Y-277400D02*
Y-273401D01*
X333078D01*
X332411Y-274068D01*
Y-275401D01*
X333078Y-276067D01*
X335077D01*
X333744D02*
X332411Y-277400D01*
X328413D02*
X331079D01*
X328413Y-274734D01*
Y-274068D01*
X329079Y-273401D01*
X330412D01*
X331079Y-274068D01*
X327080D02*
X326413Y-273401D01*
X325080D01*
X324414Y-274068D01*
Y-276734D01*
X325080Y-277400D01*
X326413D01*
X327080Y-276734D01*
Y-274068D01*
X295377Y-232100D02*
X291378D01*
Y-234099D01*
X292045Y-234766D01*
X293378D01*
X294044Y-234099D01*
Y-232100D01*
Y-233433D02*
X295377Y-234766D01*
Y-236099D02*
Y-237432D01*
Y-236765D01*
X291378D01*
X292045Y-236099D01*
X294711Y-239431D02*
X295377Y-240097D01*
Y-241430D01*
X294711Y-242097D01*
X292045D01*
X291378Y-241430D01*
Y-240097D01*
X292045Y-239431D01*
X292711D01*
X293378Y-240097D01*
Y-242097D01*
X282434Y-311568D02*
X283101Y-310901D01*
X284434D01*
X285100Y-311568D01*
Y-314234D01*
X284434Y-314900D01*
X283101D01*
X282434Y-314234D01*
X281101Y-311568D02*
X280435Y-310901D01*
X279102D01*
X278435Y-311568D01*
Y-312234D01*
X279102Y-312901D01*
X279768D01*
X279102D01*
X278435Y-313567D01*
Y-314234D01*
X279102Y-314900D01*
X280435D01*
X281101Y-314234D01*
X275103Y-314900D02*
Y-310901D01*
X277103Y-312901D01*
X274437D01*
X293745Y-327966D02*
X293078Y-327299D01*
Y-325966D01*
X293745Y-325300D01*
X296411D01*
X297077Y-325966D01*
Y-327299D01*
X296411Y-327966D01*
X293745Y-329299D02*
X293078Y-329965D01*
Y-331298D01*
X293745Y-331964D01*
X294411D01*
X295078Y-331298D01*
Y-330632D01*
Y-331298D01*
X295744Y-331964D01*
X296411D01*
X297077Y-331298D01*
Y-329965D01*
X296411Y-329299D01*
X293745Y-333297D02*
X293078Y-333964D01*
Y-335297D01*
X293745Y-335963D01*
X294411D01*
X295078Y-335297D01*
Y-334630D01*
Y-335297D01*
X295744Y-335963D01*
X296411D01*
X297077Y-335297D01*
Y-333964D01*
X296411Y-333297D01*
X308211Y-280568D02*
X308878Y-279901D01*
X310211D01*
X310877Y-280568D01*
Y-283234D01*
X310211Y-283900D01*
X308878D01*
X308211Y-283234D01*
X306878Y-280568D02*
X306212Y-279901D01*
X304879D01*
X304213Y-280568D01*
Y-281234D01*
X304879Y-281901D01*
X305546D01*
X304879D01*
X304213Y-282567D01*
Y-283234D01*
X304879Y-283900D01*
X306212D01*
X306878Y-283234D01*
X300214Y-283900D02*
X302880D01*
X300214Y-281234D01*
Y-280568D01*
X300880Y-279901D01*
X302213D01*
X302880Y-280568D01*
X304445Y-234266D02*
X303779Y-233599D01*
Y-232266D01*
X304445Y-231600D01*
X307111D01*
X307777Y-232266D01*
Y-233599D01*
X307111Y-234266D01*
X307777Y-238264D02*
Y-235599D01*
X305111Y-238264D01*
X304445D01*
X303779Y-237598D01*
Y-236265D01*
X304445Y-235599D01*
X307777Y-242263D02*
Y-239597D01*
X305111Y-242263D01*
X304445D01*
X303779Y-241597D01*
Y-240264D01*
X304445Y-239597D01*
X298145Y-235066D02*
X297479Y-234399D01*
Y-233066D01*
X298145Y-232400D01*
X300811D01*
X301477Y-233066D01*
Y-234399D01*
X300811Y-235066D01*
X301477Y-239065D02*
Y-236399D01*
X298811Y-239065D01*
X298145D01*
X297479Y-238398D01*
Y-237065D01*
X298145Y-236399D01*
X301477Y-240397D02*
Y-241730D01*
Y-241064D01*
X297479D01*
X298145Y-240397D01*
X300945Y-309666D02*
X300278Y-308999D01*
Y-307666D01*
X300945Y-307000D01*
X303611D01*
X304277Y-307666D01*
Y-308999D01*
X303611Y-309666D01*
X304277Y-310999D02*
Y-312332D01*
Y-311665D01*
X300278D01*
X300945Y-310999D01*
Y-314331D02*
X300278Y-314997D01*
Y-316330D01*
X300945Y-316997D01*
X301611D01*
X302278Y-316330D01*
X302944Y-316997D01*
X303611D01*
X304277Y-316330D01*
Y-314997D01*
X303611Y-314331D01*
X302944D01*
X302278Y-314997D01*
X301611Y-314331D01*
X300945D01*
X302278Y-314997D02*
Y-316330D01*
X308211Y-286068D02*
X308878Y-285401D01*
X310211D01*
X310877Y-286068D01*
Y-288734D01*
X310211Y-289400D01*
X308878D01*
X308211Y-288734D01*
X306878Y-289400D02*
X305546D01*
X306212D01*
Y-285401D01*
X306878Y-286068D01*
X301547Y-289400D02*
Y-285401D01*
X303546Y-287401D01*
X300880D01*
X285045Y-234266D02*
X284379Y-233599D01*
Y-232266D01*
X285045Y-231600D01*
X287711D01*
X288377Y-232266D01*
Y-233599D01*
X287711Y-234266D01*
X288377Y-235599D02*
Y-236932D01*
Y-236265D01*
X284379D01*
X285045Y-235599D01*
Y-238931D02*
X284379Y-239597D01*
Y-240930D01*
X285045Y-241597D01*
X285711D01*
X286378Y-240930D01*
Y-240264D01*
Y-240930D01*
X287044Y-241597D01*
X287711D01*
X288377Y-240930D01*
Y-239597D01*
X287711Y-238931D01*
X264245Y-267566D02*
X263579Y-266899D01*
Y-265566D01*
X264245Y-264900D01*
X266911D01*
X267577Y-265566D01*
Y-266899D01*
X266911Y-267566D01*
X267577Y-268899D02*
Y-270232D01*
Y-269565D01*
X263579D01*
X264245Y-268899D01*
X267577Y-274897D02*
Y-272231D01*
X264911Y-274897D01*
X264245D01*
X263579Y-274230D01*
Y-272897D01*
X264245Y-272231D01*
X201526Y-286950D02*
X198194D01*
X197527Y-286284D01*
Y-284951D01*
X198194Y-284284D01*
X201526D01*
Y-280286D02*
X200859Y-281618D01*
X199527Y-282951D01*
X198194D01*
X197527Y-282285D01*
Y-280952D01*
X198194Y-280286D01*
X198860D01*
X199527Y-280952D01*
Y-282951D01*
X209177Y-247200D02*
X205178D01*
Y-249199D01*
X205845Y-249866D01*
X207178D01*
X207844Y-249199D01*
Y-247200D01*
Y-248533D02*
X209177Y-249866D01*
X205845Y-251199D02*
X205178Y-251865D01*
Y-253198D01*
X205845Y-253865D01*
X206511D01*
X207178Y-253198D01*
Y-252532D01*
Y-253198D01*
X207844Y-253865D01*
X208511D01*
X209177Y-253198D01*
Y-251865D01*
X208511Y-251199D01*
X205178Y-255197D02*
Y-257863D01*
X205845D01*
X208511Y-255197D01*
X209177D01*
X216577Y-246500D02*
X212579D01*
Y-248499D01*
X213245Y-249166D01*
X214578D01*
X215244Y-248499D01*
Y-246500D01*
Y-247833D02*
X216577Y-249166D01*
X213245Y-250499D02*
X212579Y-251165D01*
Y-252498D01*
X213245Y-253165D01*
X213911D01*
X214578Y-252498D01*
Y-251832D01*
Y-252498D01*
X215244Y-253165D01*
X215911D01*
X216577Y-252498D01*
Y-251165D01*
X215911Y-250499D01*
X212579Y-257163D02*
X213245Y-255830D01*
X214578Y-254497D01*
X215911D01*
X216577Y-255164D01*
Y-256497D01*
X215911Y-257163D01*
X215244D01*
X214578Y-256497D01*
Y-254497D01*
X190577Y-242100D02*
X186579D01*
Y-244099D01*
X187245Y-244766D01*
X188578D01*
X189244Y-244099D01*
Y-242100D01*
Y-243433D02*
X190577Y-244766D01*
X187245Y-246099D02*
X186579Y-246765D01*
Y-248098D01*
X187245Y-248764D01*
X187911D01*
X188578Y-248098D01*
Y-247432D01*
Y-248098D01*
X189244Y-248764D01*
X189911D01*
X190577Y-248098D01*
Y-246765D01*
X189911Y-246099D01*
X186579Y-252763D02*
Y-250097D01*
X188578D01*
X187911Y-251430D01*
Y-252097D01*
X188578Y-252763D01*
X189911D01*
X190577Y-252097D01*
Y-250764D01*
X189911Y-250097D01*
X170111Y-321168D02*
X170778Y-320501D01*
X172111D01*
X172777Y-321168D01*
Y-323834D01*
X172111Y-324500D01*
X170778D01*
X170111Y-323834D01*
X166113Y-320501D02*
X168779D01*
Y-322501D01*
X167446Y-321834D01*
X166779D01*
X166113Y-322501D01*
Y-323834D01*
X166779Y-324500D01*
X168112D01*
X168779Y-323834D01*
X164780Y-321168D02*
X164113Y-320501D01*
X162780D01*
X162114Y-321168D01*
Y-321834D01*
X162780Y-322501D01*
X163447D01*
X162780D01*
X162114Y-323167D01*
Y-323834D01*
X162780Y-324500D01*
X164113D01*
X164780Y-323834D01*
X183345Y-317266D02*
X182678Y-316599D01*
Y-315266D01*
X183345Y-314600D01*
X186011D01*
X186677Y-315266D01*
Y-316599D01*
X186011Y-317266D01*
X182678Y-321265D02*
Y-318599D01*
X184678D01*
X184011Y-319932D01*
Y-320598D01*
X184678Y-321265D01*
X186011D01*
X186677Y-320598D01*
Y-319265D01*
X186011Y-318599D01*
X186677Y-325263D02*
Y-322597D01*
X184011Y-325263D01*
X183345D01*
X182678Y-324597D01*
Y-323264D01*
X183345Y-322597D01*
X196145Y-294866D02*
X195478Y-294199D01*
Y-292866D01*
X196145Y-292200D01*
X198811D01*
X199477Y-292866D01*
Y-294199D01*
X198811Y-294866D01*
X195478Y-298865D02*
Y-296199D01*
X197478D01*
X196811Y-297532D01*
Y-298198D01*
X197478Y-298865D01*
X198811D01*
X199477Y-298198D01*
Y-296865D01*
X198811Y-296199D01*
X199477Y-300197D02*
Y-301530D01*
Y-300864D01*
X195478D01*
X196145Y-300197D01*
X179311Y-254168D02*
X179978Y-253501D01*
X181311D01*
X181977Y-254168D01*
Y-256834D01*
X181311Y-257500D01*
X179978D01*
X179311Y-256834D01*
X175313Y-253501D02*
X177979D01*
Y-255501D01*
X176646Y-254834D01*
X175979D01*
X175313Y-255501D01*
Y-256834D01*
X175979Y-257500D01*
X177312D01*
X177979Y-256834D01*
X173980Y-254168D02*
X173313Y-253501D01*
X171980D01*
X171314Y-254168D01*
Y-256834D01*
X171980Y-257500D01*
X173313D01*
X173980Y-256834D01*
Y-254168D01*
X154645Y-263066D02*
X153979Y-262399D01*
Y-261066D01*
X154645Y-260400D01*
X157311D01*
X157977Y-261066D01*
Y-262399D01*
X157311Y-263066D01*
X157977Y-266398D02*
X153979D01*
X155978Y-264399D01*
Y-267064D01*
X154645Y-268397D02*
X153979Y-269064D01*
Y-270397D01*
X154645Y-271063D01*
X157311D01*
X157977Y-270397D01*
Y-269064D01*
X157311Y-268397D01*
X154645D01*
X210445Y-277966D02*
X209778Y-277299D01*
Y-275966D01*
X210445Y-275300D01*
X213111D01*
X213777Y-275966D01*
Y-277299D01*
X213111Y-277966D01*
X210445Y-279299D02*
X209778Y-279965D01*
Y-281298D01*
X210445Y-281964D01*
X211111D01*
X211778Y-281298D01*
Y-280632D01*
Y-281298D01*
X212444Y-281964D01*
X213111D01*
X213777Y-281298D01*
Y-279965D01*
X213111Y-279299D01*
Y-283297D02*
X213777Y-283964D01*
Y-285297D01*
X213111Y-285963D01*
X210445D01*
X209778Y-285297D01*
Y-283964D01*
X210445Y-283297D01*
X211111D01*
X211778Y-283964D01*
Y-285963D01*
X194645Y-244366D02*
X193979Y-243699D01*
Y-242366D01*
X194645Y-241700D01*
X197311D01*
X197977Y-242366D01*
Y-243699D01*
X197311Y-244366D01*
X194645Y-245699D02*
X193979Y-246365D01*
Y-247698D01*
X194645Y-248364D01*
X195311D01*
X195978Y-247698D01*
Y-247032D01*
Y-247698D01*
X196644Y-248364D01*
X197311D01*
X197977Y-247698D01*
Y-246365D01*
X197311Y-245699D01*
X194645Y-249697D02*
X193979Y-250364D01*
Y-251697D01*
X194645Y-252363D01*
X195311D01*
X195978Y-251697D01*
X196644Y-252363D01*
X197311D01*
X197977Y-251697D01*
Y-250364D01*
X197311Y-249697D01*
X196644D01*
X195978Y-250364D01*
X195311Y-249697D01*
X194645D01*
X195978Y-250364D02*
Y-251697D01*
X37100Y-197501D02*
Y-201500D01*
X34434D01*
X30435D02*
X33101D01*
X30435Y-198834D01*
Y-198168D01*
X31102Y-197501D01*
X32435D01*
X33101Y-198168D01*
X110777Y-153600D02*
Y-149601D01*
X108778D01*
X108111Y-150268D01*
Y-151601D01*
X108778Y-152267D01*
X110777D01*
X104779Y-153600D02*
Y-149601D01*
X106779Y-151601D01*
X104113D01*
X30577Y-142300D02*
X26579D01*
Y-144299D01*
X27245Y-144966D01*
X28578D01*
X29244Y-144299D01*
Y-142300D01*
Y-143633D02*
X30577Y-144966D01*
Y-148965D02*
Y-146299D01*
X27911Y-148965D01*
X27245D01*
X26579Y-148298D01*
Y-146965D01*
X27245Y-146299D01*
X30577Y-152297D02*
X26579D01*
X28578Y-150297D01*
Y-152963D01*
X18777Y-141500D02*
X14778D01*
Y-143499D01*
X15445Y-144166D01*
X16778D01*
X17444Y-143499D01*
Y-141500D01*
Y-142833D02*
X18777Y-144166D01*
Y-148164D02*
Y-145499D01*
X16111Y-148164D01*
X15445D01*
X14778Y-147498D01*
Y-146165D01*
X15445Y-145499D01*
X14778Y-152163D02*
Y-149497D01*
X16778D01*
X16111Y-150830D01*
Y-151497D01*
X16778Y-152163D01*
X18111D01*
X18777Y-151497D01*
Y-150164D01*
X18111Y-149497D01*
X224911Y-301168D02*
X225578Y-300501D01*
X226911D01*
X227577Y-301168D01*
Y-303834D01*
X226911Y-304500D01*
X225578D01*
X224911Y-303834D01*
X223579Y-304500D02*
X222246D01*
X222912D01*
Y-300501D01*
X223579Y-301168D01*
X217580Y-300501D02*
X220246D01*
Y-302501D01*
X218913Y-301834D01*
X218247D01*
X217580Y-302501D01*
Y-303834D01*
X218247Y-304500D01*
X219580D01*
X220246Y-303834D01*
X164972Y-254600D02*
X160973D01*
Y-256599D01*
X161639Y-257266D01*
X162972D01*
X163639Y-256599D01*
Y-254600D01*
Y-255933D02*
X164972Y-257266D01*
X161639Y-258599D02*
X160973Y-259265D01*
Y-260598D01*
X161639Y-261264D01*
X162306D01*
X162972Y-260598D01*
Y-259932D01*
Y-260598D01*
X163639Y-261264D01*
X164305D01*
X164972Y-260598D01*
Y-259265D01*
X164305Y-258599D01*
X161639Y-262597D02*
X160973Y-263264D01*
Y-264597D01*
X161639Y-265263D01*
X162306D01*
X162972Y-264597D01*
X163639Y-265263D01*
X164305D01*
X164972Y-264597D01*
Y-263264D01*
X164305Y-262597D01*
X163639D01*
X162972Y-263264D01*
X162306Y-262597D01*
X161639D01*
X162972Y-263264D02*
Y-264597D01*
X143777Y-294900D02*
Y-290901D01*
X141778D01*
X141111Y-291568D01*
Y-292901D01*
X141778Y-293567D01*
X143777D01*
X142444D02*
X141111Y-294900D01*
X139778Y-291568D02*
X139112Y-290901D01*
X137779D01*
X137113Y-291568D01*
Y-292234D01*
X137779Y-292901D01*
X138446D01*
X137779D01*
X137113Y-293567D01*
Y-294234D01*
X137779Y-294900D01*
X139112D01*
X139778Y-294234D01*
X135780D02*
X135113Y-294900D01*
X133780D01*
X133114Y-294234D01*
Y-291568D01*
X133780Y-290901D01*
X135113D01*
X135780Y-291568D01*
Y-292234D01*
X135113Y-292901D01*
X133114D01*
X144077Y-301600D02*
Y-297601D01*
X142078D01*
X141411Y-298268D01*
Y-299601D01*
X142078Y-300267D01*
X144077D01*
X142744D02*
X141411Y-301600D01*
X138079D02*
Y-297601D01*
X140078Y-299601D01*
X137413D01*
X136080Y-298268D02*
X135413Y-297601D01*
X134080D01*
X133414Y-298268D01*
Y-300934D01*
X134080Y-301600D01*
X135413D01*
X136080Y-300934D01*
Y-298268D01*
X191877Y-331000D02*
Y-327001D01*
X189878D01*
X189211Y-327668D01*
Y-329001D01*
X189878Y-329667D01*
X191877D01*
X190544D02*
X189211Y-331000D01*
X185879D02*
Y-327001D01*
X187879Y-329001D01*
X185213D01*
X183880Y-331000D02*
X182547D01*
X183213D01*
Y-327001D01*
X183880Y-327668D01*
X180377Y-318400D02*
Y-314401D01*
X178378D01*
X177711Y-315068D01*
Y-316401D01*
X178378Y-317067D01*
X180377D01*
X179044D02*
X177711Y-318400D01*
X174379D02*
Y-314401D01*
X176379Y-316401D01*
X173713D01*
X172380Y-315068D02*
X171713Y-314401D01*
X170380D01*
X169714Y-315068D01*
Y-315734D01*
X170380Y-316401D01*
X171047D01*
X170380D01*
X169714Y-317067D01*
Y-317734D01*
X170380Y-318400D01*
X171713D01*
X172380Y-317734D01*
X179977Y-320400D02*
X175979D01*
Y-322399D01*
X176645Y-323066D01*
X177978D01*
X178644Y-322399D01*
Y-320400D01*
Y-321733D02*
X179977Y-323066D01*
Y-326398D02*
X175979D01*
X177978Y-324399D01*
Y-327064D01*
X179977Y-330397D02*
X175979D01*
X177978Y-328397D01*
Y-331063D01*
X172577Y-330800D02*
Y-326801D01*
X170578D01*
X169911Y-327468D01*
Y-328801D01*
X170578Y-329467D01*
X172577D01*
X171244D02*
X169911Y-330800D01*
X166579D02*
Y-326801D01*
X168579Y-328801D01*
X165913D01*
X161914Y-326801D02*
X163247Y-327468D01*
X164580Y-328801D01*
Y-330134D01*
X163913Y-330800D01*
X162580D01*
X161914Y-330134D01*
Y-329467D01*
X162580Y-328801D01*
X164580D01*
X227377Y-298500D02*
Y-294501D01*
X225378D01*
X224711Y-295168D01*
Y-296501D01*
X225378Y-297167D01*
X227377D01*
X226044D02*
X224711Y-298500D01*
X221379D02*
Y-294501D01*
X223378Y-296501D01*
X220713D01*
X219380Y-294501D02*
X216714D01*
Y-295168D01*
X219380Y-297834D01*
Y-298500D01*
X227177Y-291600D02*
Y-287601D01*
X225178D01*
X224511Y-288268D01*
Y-289601D01*
X225178Y-290267D01*
X227177D01*
X225844D02*
X224511Y-291600D01*
X223179Y-288268D02*
X222512Y-287601D01*
X221179D01*
X220513Y-288268D01*
Y-288934D01*
X221179Y-289601D01*
X221846D01*
X221179D01*
X220513Y-290267D01*
Y-290934D01*
X221179Y-291600D01*
X222512D01*
X223179Y-290934D01*
X217180Y-291600D02*
Y-287601D01*
X219180Y-289601D01*
X216514D01*
X8177Y-139700D02*
X4179D01*
Y-141699D01*
X4845Y-142366D01*
X6178D01*
X6844Y-141699D01*
Y-139700D01*
Y-141033D02*
X8177Y-142366D01*
Y-146364D02*
Y-143699D01*
X5511Y-146364D01*
X4845D01*
X4179Y-145698D01*
Y-144365D01*
X4845Y-143699D01*
X4179Y-150363D02*
X4845Y-149030D01*
X6178Y-147697D01*
X7511D01*
X8177Y-148364D01*
Y-149697D01*
X7511Y-150363D01*
X6844D01*
X6178Y-149697D01*
Y-147697D01*
X91477Y-237700D02*
X87479D01*
Y-239699D01*
X88145Y-240366D01*
X89478D01*
X90144Y-239699D01*
Y-237700D01*
Y-239033D02*
X91477Y-240366D01*
X87479Y-244365D02*
X88145Y-243032D01*
X89478Y-241699D01*
X90811D01*
X91477Y-242365D01*
Y-243698D01*
X90811Y-244365D01*
X90144D01*
X89478Y-243698D01*
Y-241699D01*
X88145Y-245697D02*
X87479Y-246364D01*
Y-247697D01*
X88145Y-248363D01*
X90811D01*
X91477Y-247697D01*
Y-246364D01*
X90811Y-245697D01*
X88145D01*
X80877Y-237800D02*
X76878D01*
Y-239799D01*
X77545Y-240466D01*
X78878D01*
X79544Y-239799D01*
Y-237800D01*
Y-239133D02*
X80877Y-240466D01*
X76878Y-244464D02*
X77545Y-243132D01*
X78878Y-241799D01*
X80211D01*
X80877Y-242465D01*
Y-243798D01*
X80211Y-244464D01*
X79544D01*
X78878Y-243798D01*
Y-241799D01*
X80877Y-245797D02*
Y-247130D01*
Y-246464D01*
X76878D01*
X77545Y-245797D01*
X161360Y-369184D02*
Y-366518D01*
X162026Y-365851D01*
X163359D01*
X164026Y-366518D01*
Y-369184D01*
X163359Y-369850D01*
X162026D01*
X162693Y-368517D02*
X161360Y-369850D01*
X162026D02*
X161360Y-369184D01*
X160027Y-369850D02*
X158694D01*
X159361D01*
Y-365851D01*
X160027Y-366518D01*
X154029Y-365851D02*
X155362Y-366518D01*
X156695Y-367851D01*
Y-369184D01*
X156028Y-369850D01*
X154695D01*
X154029Y-369184D01*
Y-368517D01*
X154695Y-367851D01*
X156695D01*
D105*
X262957Y-145685D02*
X270043D01*
X262957Y-106315D02*
X270043D01*
X262957Y-145685D02*
Y-106315D01*
X270043Y-145685D02*
Y-106315D01*
X102677Y-116000D02*
X112677D01*
X102677Y-146000D02*
Y-116000D01*
Y-146000D02*
X112677D01*
Y-116000D01*
X6677Y-162500D02*
Y-158500D01*
Y-134500D02*
Y-130500D01*
X10677Y-158500D02*
Y-134500D01*
X2677Y-158500D02*
X10677D01*
X2677D02*
Y-134500D01*
X10677D01*
X17477Y-163100D02*
Y-159100D01*
Y-135100D02*
Y-131100D01*
X21477Y-159100D02*
Y-135100D01*
X13477Y-159100D02*
X21477D01*
X13477D02*
Y-135100D01*
X21477D01*
X28377Y-163100D02*
Y-159100D01*
Y-135100D02*
Y-131100D01*
X32377Y-159100D02*
Y-135100D01*
X24377Y-159100D02*
X32377D01*
X24377D02*
Y-135100D01*
X32377D01*
X79077Y-229100D02*
Y-225100D01*
Y-257100D02*
Y-253100D01*
X75077D02*
Y-229100D01*
X83077D01*
Y-253100D02*
Y-229100D01*
X75077Y-253100D02*
X83077D01*
X89377Y-229000D02*
Y-225000D01*
Y-257000D02*
Y-253000D01*
X85377D02*
Y-229000D01*
X93377D01*
Y-253000D02*
Y-229000D01*
X85377Y-253000D02*
X93377D01*
X17500Y-195100D02*
X47500D01*
Y-205100D02*
Y-195100D01*
X17500Y-205100D02*
X47500D01*
X17500D02*
Y-195100D01*
X47500Y-200100D02*
X53500D01*
X11500D02*
X17500D01*
X143473Y-339867D02*
X148198D01*
X143473Y-342623D02*
Y-339867D01*
Y-342623D02*
X148198Y-342623D01*
X146229Y-352072D02*
Y-348528D01*
X143473Y-360733D02*
X148198Y-360733D01*
X143473Y-360733D02*
Y-357977D01*
X148198D01*
X146229Y-348528D02*
X148198D01*
X146229Y-352072D02*
X148198D01*
X169851Y-360733D02*
X174576D01*
X169851Y-339867D02*
X174576D01*
X166898Y-360143D02*
X169851Y-363095D01*
X166898Y-340458D02*
X169851Y-337505D01*
X148198D02*
X151150Y-340457D01*
X148198Y-363095D02*
X151150Y-360143D01*
Y-340457D01*
X166898Y-340458D01*
Y-360143D02*
Y-340458D01*
X151150Y-360143D02*
X166898D01*
X148198Y-363095D02*
X169851D01*
X148198Y-337505D02*
X169851D01*
X148198Y-363095D02*
Y-337505D01*
X175757Y-358174D02*
Y-342426D01*
X169851Y-363095D02*
Y-337505D01*
X174576Y-360733D02*
X175757Y-358174D01*
X174576Y-339867D02*
X175757Y-342426D01*
D106*
X155640Y-358174D02*
X155846Y-357762D01*
X156464Y-357143D01*
X152135D01*
X156258Y-357349D02*
X152135D01*
Y-358174D02*
Y-356318D01*
X155640Y-344385D02*
X155433Y-344179D01*
X155227Y-344385D01*
X155433Y-344591D01*
X155640D01*
X156052Y-344385D01*
X156258Y-344179D01*
X156464Y-343561D01*
Y-342736D01*
X156258Y-342117D01*
X155846Y-341911D01*
X155227D01*
X154815Y-342117D01*
X154609Y-342736D01*
Y-343354D01*
X156464Y-342736D02*
X156258Y-342323D01*
X155846Y-342117D01*
X155227D01*
X154815Y-342323D01*
X154609Y-342736D01*
X154403Y-342323D01*
X153990Y-341911D01*
X153578Y-341705D01*
X152959D01*
X152547Y-341911D01*
X152341Y-342117D01*
X152135Y-342736D01*
Y-343561D01*
X152341Y-344179D01*
X152547Y-344385D01*
X152959Y-344591D01*
X153166D01*
X153372Y-344385D01*
X153166Y-344179D01*
X152959Y-344385D01*
X154197Y-342117D02*
X153578Y-341911D01*
X152959D01*
X152547Y-342117D01*
X152341Y-342323D01*
X152135Y-342736D01*
D107*
X145836Y-341245D02*
D03*
X145835Y-359355D02*
D03*
D108*
X147213Y-350300D02*
D03*
D168*
X267287Y-110252D02*
G03*
X267287Y-110252I-1181J0D01*
G01*
D169*
X276441Y-105154D02*
G03*
X276441Y-105154I-492J0D01*
G01*
X301069Y-275492D02*
G03*
X301069Y-275492I-492J0D01*
G01*
X194069Y-285092D02*
G03*
X194069Y-285092I-492J0D01*
G01*
M02*
